ISO-10303-21;
HEADER;
FILE_DESCRIPTION(('OpenSCAD Viewer retained AP242 B-rep'),'2;1');
FILE_NAME('model.step','',(''),(''),'OpenSCAD Viewer','OpenSCAD Viewer','');
FILE_SCHEMA(('AP242_MANAGED_MODEL_BASED_3D_ENGINEERING_MIM_LF'));
ENDSEC;
DATA;
#1=CARTESIAN_POINT('',(5.00000000000000000E-1,2.50000000000000000E-1,0.00000000000000000E0));
#2=VERTEX_POINT('OSCAD_TOPO/3|vertex|v:3715287cb40783d245f7702dd10b9183|0c81fe1552579f5b5d881077b8b1e168fe089371fc3324a36470047079850306',#1);
#3=CARTESIAN_POINT('',(0.00000000000000000E0,7.50000000000000000E-1,0.00000000000000000E0));
#4=VERTEX_POINT('OSCAD_TOPO/3|vertex|v:79e4732d2d2de2300aad118d0750b001|c84b116c4439927ef9cebfebdc24459f83bf1a06f2771b18b5e571a3a0bb6455',#3);
#5=CARTESIAN_POINT('',(-5.00000000000000000E-1,2.50000000000000000E-1,0.00000000000000000E0));
#6=VERTEX_POINT('OSCAD_TOPO/3|vertex|v:bf8c2d7239e9528b55d501828b4b603f|7a9f6857c3b4fbc543b1016bab1ecbe6e749f76a0f74c6bd84a8ae3179be836d',#5);
#7=CARTESIAN_POINT('',(0.00000000000000000E0,-2.50000000000000000E-1,0.00000000000000000E0));
#8=VERTEX_POINT('OSCAD_TOPO/3|vertex|v:c9d8ce9e667290e0024d929e3d0aaf8b|35565d0affbe82c16537056c26abef5e67840e34594d434616df38e5f79e2175',#7);
#9=CARTESIAN_POINT('',(2.00000000000000011E-1,2.50000000000000000E-1,0.00000000000000000E0));
#10=VERTEX_POINT('OSCAD_TOPO/3|vertex|v:74ec88c495b13d49a7c78c02d6ea7aa9|9acd94a5c76d22a76a88f21519d63d8ad78336277539d67394790503be192e2b',#9);
#11=CARTESIAN_POINT('',(0.00000000000000000E0,4.99999999999999889E-2,0.00000000000000000E0));
#12=VERTEX_POINT('OSCAD_TOPO/3|vertex|v:4063017b5eacb16a8a54d845c35ca921|e34500616832183f109937514c9b5630839c1e9f97917d3b9a833d5f949d1ba6',#11);
#13=CARTESIAN_POINT('',(-2.00000000000000011E-1,2.50000000000000000E-1,0.00000000000000000E0));
#14=VERTEX_POINT('OSCAD_TOPO/3|vertex|v:6f4c162e1eaea93494b7f17c575aeaf1|ea0080bbce37b8344b59fff90f73788545b3f40abdd9aa9b480d482a1b41c90d',#13);
#15=CARTESIAN_POINT('',(0.00000000000000000E0,4.50000000000000011E-1,0.00000000000000000E0));
#16=VERTEX_POINT('OSCAD_TOPO/3|vertex|v:ad0edd11d22eeb84bcfcbbd37ef9c580|bbbd94429b3fa91b395c897b69046f17bc56858f24071fa028226c9e49941985',#15);
#17=CARTESIAN_POINT('',(1.00000000000000000E0,5.00000000000000000E-1,1.00000000000000000E1));
#18=VERTEX_POINT('OSCAD_TOPO/3|vertex|v:137f29f23aa115748fab774da6f16480|cc385960648f5c0d54d8e077302da2254e843074c21c7feaad47ccdb747e01a5',#17);
#19=CARTESIAN_POINT('',(0.00000000000000000E0,1.00000000000000000E0,1.00000000000000000E1));
#20=VERTEX_POINT('OSCAD_TOPO/3|vertex|v:c5ad3961a5ec04186b4eb078a1eb4267|8fd5977d95407c98cb2cf2c47bb7c0797d24b331e043ba04e1e79f57179791ad',#19);
#21=CARTESIAN_POINT('',(-1.00000000000000000E0,5.00000000000000000E-1,1.00000000000000000E1));
#22=VERTEX_POINT('OSCAD_TOPO/3|vertex|v:fa11e9f4c56903ccfb44e72f867953ac|1d3540c39a3eddabdd34c21dca6a41e16f3518636383cbcaa4cc4e7e3c896520',#21);
#23=CARTESIAN_POINT('',(0.00000000000000000E0,0.00000000000000000E0,1.00000000000000000E1));
#24=VERTEX_POINT('OSCAD_TOPO/3|vertex|v:df728c5d9e8990b00b3acf0940532f69|3eccf96a8e99a54c56bd9048a6bc9d33fc7710cfe7fa2840230ad93220d7e1cc',#23);
#25=CARTESIAN_POINT('',(4.00000000000000022E-1,5.00000000000000000E-1,1.00000000000000000E1));
#26=VERTEX_POINT('OSCAD_TOPO/3|vertex|v:b23705579da4cef73557e115ea6e08ce|45592bb8a0f9eebe9a314ec8738eff0276ea01b09d371088221da8dc9b905728',#25);
#27=CARTESIAN_POINT('',(0.00000000000000000E0,2.99999999999999989E-1,1.00000000000000000E1));
#28=VERTEX_POINT('OSCAD_TOPO/3|vertex|v:8671829ced8e49db90cfa352a3ad2af2|4bde8f4674ca48b68c39aab9636abce75e59aadcc1cdd917bfae640295d2ff7a',#27);
#29=CARTESIAN_POINT('',(-4.00000000000000022E-1,5.00000000000000000E-1,1.00000000000000000E1));
#30=VERTEX_POINT('OSCAD_TOPO/3|vertex|v:d03e3845c926af5e8fda912bad648f7c|21266436daa2e7b1536420a8d5dc07aa1c62bb0707e3c55deb8e52ad98238b16',#29);
#31=CARTESIAN_POINT('',(0.00000000000000000E0,6.99999999999999956E-1,1.00000000000000000E1));
#32=VERTEX_POINT('OSCAD_TOPO/3|vertex|v:04b58f0135599215649d2a56cab7a187|c32f30c2b3ecd22c8e02336b9f6bf0156fbd8a39129111b84c15297213876efd',#31);
#33=CARTESIAN_POINT('',(5.00000000000000000E-1,2.50000000000000000E-1,0.00000000000000000E0));
#34=CARTESIAN_POINT('',(1.00000000000000000E0,5.00000000000000000E-1,1.00000000000000000E1));
#35=CARTESIAN_POINT('',(5.00000000000000000E-1,7.50000000000000000E-1,0.00000000000000000E0));
#36=CARTESIAN_POINT('',(1.00000000000000000E0,1.00000000000000000E0,1.00000000000000000E1));
#37=CARTESIAN_POINT('',(0.00000000000000000E0,7.50000000000000000E-1,0.00000000000000000E0));
#38=CARTESIAN_POINT('',(0.00000000000000000E0,1.00000000000000000E0,1.00000000000000000E1));
#39=(BOUNDED_SURFACE()B_SPLINE_SURFACE(2,1,((#33,#34),(#35,#36),(#37,#38)),.UNSPECIFIED.,.F.,.F.,.F.)B_SPLINE_SURFACE_WITH_KNOTS((3,3),(2,2),(0.00000000000000000E0,1.00000000000000000E0),(0.00000000000000000E0,1.00000000000000000E0),.UNSPECIFIED.)GEOMETRIC_REPRESENTATION_ITEM()RATIONAL_B_SPLINE_SURFACE(((1.00000000000000000E0,1.00000000000000000E0),(7.07106781186547573E-1,7.07106781186547573E-1),(1.00000000000000000E0,1.00000000000000000E0)))REPRESENTATION_ITEM('')SURFACE());
#40=CARTESIAN_POINT('',(0.00000000000000000E0,7.50000000000000000E-1,0.00000000000000000E0));
#41=CARTESIAN_POINT('',(0.00000000000000000E0,1.00000000000000000E0,1.00000000000000000E1));
#42=CARTESIAN_POINT('',(-5.00000000000000000E-1,7.50000000000000000E-1,0.00000000000000000E0));
#43=CARTESIAN_POINT('',(-1.00000000000000000E0,1.00000000000000000E0,1.00000000000000000E1));
#44=CARTESIAN_POINT('',(-5.00000000000000000E-1,2.50000000000000000E-1,0.00000000000000000E0));
#45=CARTESIAN_POINT('',(-1.00000000000000000E0,5.00000000000000000E-1,1.00000000000000000E1));
#46=(BOUNDED_SURFACE()B_SPLINE_SURFACE(2,1,((#40,#41),(#42,#43),(#44,#45)),.UNSPECIFIED.,.F.,.F.,.F.)B_SPLINE_SURFACE_WITH_KNOTS((3,3),(2,2),(0.00000000000000000E0,1.00000000000000000E0),(0.00000000000000000E0,1.00000000000000000E0),.UNSPECIFIED.)GEOMETRIC_REPRESENTATION_ITEM()RATIONAL_B_SPLINE_SURFACE(((1.00000000000000000E0,1.00000000000000000E0),(7.07106781186547573E-1,7.07106781186547573E-1),(1.00000000000000000E0,1.00000000000000000E0)))REPRESENTATION_ITEM('')SURFACE());
#47=CARTESIAN_POINT('',(-5.00000000000000000E-1,2.50000000000000000E-1,0.00000000000000000E0));
#48=CARTESIAN_POINT('',(-1.00000000000000000E0,5.00000000000000000E-1,1.00000000000000000E1));
#49=CARTESIAN_POINT('',(-5.00000000000000000E-1,-2.50000000000000000E-1,0.00000000000000000E0));
#50=CARTESIAN_POINT('',(-1.00000000000000000E0,0.00000000000000000E0,1.00000000000000000E1));
#51=CARTESIAN_POINT('',(0.00000000000000000E0,-2.50000000000000000E-1,0.00000000000000000E0));
#52=CARTESIAN_POINT('',(0.00000000000000000E0,0.00000000000000000E0,1.00000000000000000E1));
#53=(BOUNDED_SURFACE()B_SPLINE_SURFACE(2,1,((#47,#48),(#49,#50),(#51,#52)),.UNSPECIFIED.,.F.,.F.,.F.)B_SPLINE_SURFACE_WITH_KNOTS((3,3),(2,2),(0.00000000000000000E0,1.00000000000000000E0),(0.00000000000000000E0,1.00000000000000000E0),.UNSPECIFIED.)GEOMETRIC_REPRESENTATION_ITEM()RATIONAL_B_SPLINE_SURFACE(((1.00000000000000000E0,1.00000000000000000E0),(7.07106781186547573E-1,7.07106781186547573E-1),(1.00000000000000000E0,1.00000000000000000E0)))REPRESENTATION_ITEM('')SURFACE());
#54=CARTESIAN_POINT('',(0.00000000000000000E0,-2.50000000000000000E-1,0.00000000000000000E0));
#55=CARTESIAN_POINT('',(0.00000000000000000E0,0.00000000000000000E0,1.00000000000000000E1));
#56=CARTESIAN_POINT('',(5.00000000000000000E-1,-2.50000000000000000E-1,0.00000000000000000E0));
#57=CARTESIAN_POINT('',(1.00000000000000000E0,0.00000000000000000E0,1.00000000000000000E1));
#58=CARTESIAN_POINT('',(5.00000000000000000E-1,2.50000000000000000E-1,0.00000000000000000E0));
#59=CARTESIAN_POINT('',(1.00000000000000000E0,5.00000000000000000E-1,1.00000000000000000E1));
#60=(BOUNDED_SURFACE()B_SPLINE_SURFACE(2,1,((#54,#55),(#56,#57),(#58,#59)),.UNSPECIFIED.,.F.,.F.,.F.)B_SPLINE_SURFACE_WITH_KNOTS((3,3),(2,2),(0.00000000000000000E0,1.00000000000000000E0),(0.00000000000000000E0,1.00000000000000000E0),.UNSPECIFIED.)GEOMETRIC_REPRESENTATION_ITEM()RATIONAL_B_SPLINE_SURFACE(((1.00000000000000000E0,1.00000000000000000E0),(7.07106781186547573E-1,7.07106781186547573E-1),(1.00000000000000000E0,1.00000000000000000E0)))REPRESENTATION_ITEM('')SURFACE());
#61=CARTESIAN_POINT('',(2.00000000000000011E-1,2.50000000000000000E-1,0.00000000000000000E0));
#62=CARTESIAN_POINT('',(4.00000000000000022E-1,5.00000000000000000E-1,1.00000000000000000E1));
#63=CARTESIAN_POINT('',(2.00000000000000011E-1,4.99999999999999889E-2,0.00000000000000000E0));
#64=CARTESIAN_POINT('',(4.00000000000000022E-1,2.99999999999999989E-1,1.00000000000000000E1));
#65=CARTESIAN_POINT('',(0.00000000000000000E0,4.99999999999999889E-2,0.00000000000000000E0));
#66=CARTESIAN_POINT('',(0.00000000000000000E0,2.99999999999999989E-1,1.00000000000000000E1));
#67=(BOUNDED_SURFACE()B_SPLINE_SURFACE(2,1,((#61,#62),(#63,#64),(#65,#66)),.UNSPECIFIED.,.F.,.F.,.F.)B_SPLINE_SURFACE_WITH_KNOTS((3,3),(2,2),(0.00000000000000000E0,1.00000000000000000E0),(0.00000000000000000E0,1.00000000000000000E0),.UNSPECIFIED.)GEOMETRIC_REPRESENTATION_ITEM()RATIONAL_B_SPLINE_SURFACE(((1.00000000000000000E0,1.00000000000000000E0),(7.07106781186547573E-1,7.07106781186547573E-1),(1.00000000000000000E0,1.00000000000000000E0)))REPRESENTATION_ITEM('')SURFACE());
#68=CARTESIAN_POINT('',(0.00000000000000000E0,4.99999999999999889E-2,0.00000000000000000E0));
#69=CARTESIAN_POINT('',(0.00000000000000000E0,2.99999999999999989E-1,1.00000000000000000E1));
#70=CARTESIAN_POINT('',(-2.00000000000000011E-1,4.99999999999999889E-2,0.00000000000000000E0));
#71=CARTESIAN_POINT('',(-4.00000000000000022E-1,2.99999999999999989E-1,1.00000000000000000E1));
#72=CARTESIAN_POINT('',(-2.00000000000000011E-1,2.50000000000000000E-1,0.00000000000000000E0));
#73=CARTESIAN_POINT('',(-4.00000000000000022E-1,5.00000000000000000E-1,1.00000000000000000E1));
#74=(BOUNDED_SURFACE()B_SPLINE_SURFACE(2,1,((#68,#69),(#70,#71),(#72,#73)),.UNSPECIFIED.,.F.,.F.,.F.)B_SPLINE_SURFACE_WITH_KNOTS((3,3),(2,2),(0.00000000000000000E0,1.00000000000000000E0),(0.00000000000000000E0,1.00000000000000000E0),.UNSPECIFIED.)GEOMETRIC_REPRESENTATION_ITEM()RATIONAL_B_SPLINE_SURFACE(((1.00000000000000000E0,1.00000000000000000E0),(7.07106781186547573E-1,7.07106781186547573E-1),(1.00000000000000000E0,1.00000000000000000E0)))REPRESENTATION_ITEM('')SURFACE());
#75=CARTESIAN_POINT('',(-2.00000000000000011E-1,2.50000000000000000E-1,0.00000000000000000E0));
#76=CARTESIAN_POINT('',(-4.00000000000000022E-1,5.00000000000000000E-1,1.00000000000000000E1));
#77=CARTESIAN_POINT('',(-2.00000000000000011E-1,4.50000000000000011E-1,0.00000000000000000E0));
#78=CARTESIAN_POINT('',(-4.00000000000000022E-1,6.99999999999999956E-1,1.00000000000000000E1));
#79=CARTESIAN_POINT('',(0.00000000000000000E0,4.50000000000000011E-1,0.00000000000000000E0));
#80=CARTESIAN_POINT('',(0.00000000000000000E0,6.99999999999999956E-1,1.00000000000000000E1));
#81=(BOUNDED_SURFACE()B_SPLINE_SURFACE(2,1,((#75,#76),(#77,#78),(#79,#80)),.UNSPECIFIED.,.F.,.F.,.F.)B_SPLINE_SURFACE_WITH_KNOTS((3,3),(2,2),(0.00000000000000000E0,1.00000000000000000E0),(0.00000000000000000E0,1.00000000000000000E0),.UNSPECIFIED.)GEOMETRIC_REPRESENTATION_ITEM()RATIONAL_B_SPLINE_SURFACE(((1.00000000000000000E0,1.00000000000000000E0),(7.07106781186547573E-1,7.07106781186547573E-1),(1.00000000000000000E0,1.00000000000000000E0)))REPRESENTATION_ITEM('')SURFACE());
#82=CARTESIAN_POINT('',(0.00000000000000000E0,4.50000000000000011E-1,0.00000000000000000E0));
#83=CARTESIAN_POINT('',(0.00000000000000000E0,6.99999999999999956E-1,1.00000000000000000E1));
#84=CARTESIAN_POINT('',(2.00000000000000011E-1,4.50000000000000011E-1,0.00000000000000000E0));
#85=CARTESIAN_POINT('',(4.00000000000000022E-1,6.99999999999999956E-1,1.00000000000000000E1));
#86=CARTESIAN_POINT('',(2.00000000000000011E-1,2.50000000000000000E-1,0.00000000000000000E0));
#87=CARTESIAN_POINT('',(4.00000000000000022E-1,5.00000000000000000E-1,1.00000000000000000E1));
#88=(BOUNDED_SURFACE()B_SPLINE_SURFACE(2,1,((#82,#83),(#84,#85),(#86,#87)),.UNSPECIFIED.,.F.,.F.,.F.)B_SPLINE_SURFACE_WITH_KNOTS((3,3),(2,2),(0.00000000000000000E0,1.00000000000000000E0),(0.00000000000000000E0,1.00000000000000000E0),.UNSPECIFIED.)GEOMETRIC_REPRESENTATION_ITEM()RATIONAL_B_SPLINE_SURFACE(((1.00000000000000000E0,1.00000000000000000E0),(7.07106781186547573E-1,7.07106781186547573E-1),(1.00000000000000000E0,1.00000000000000000E0)))REPRESENTATION_ITEM('')SURFACE());
#89=CARTESIAN_POINT('',(5.00000000000000000E-1,-2.50000000000000000E-1,0.00000000000000000E0));
#90=CARTESIAN_POINT('',(5.00000000000000000E-1,7.50000000000000000E-1,0.00000000000000000E0));
#91=CARTESIAN_POINT('',(-5.00000000000000000E-1,-2.50000000000000000E-1,0.00000000000000000E0));
#92=CARTESIAN_POINT('',(-5.00000000000000000E-1,7.50000000000000000E-1,0.00000000000000000E0));
#93=B_SPLINE_SURFACE_WITH_KNOTS('',1,1,((#89,#90),(#91,#92)),.UNSPECIFIED.,.F.,.F.,.F.,(2,2),(2,2),(-5.00000000000000000E-1,5.00000000000000000E-1),(-2.50000000000000000E-1,7.50000000000000000E-1),.UNSPECIFIED.);
#94=CARTESIAN_POINT('',(-1.00000000000000000E0,0.00000000000000000E0,1.00000000000000000E1));
#95=CARTESIAN_POINT('',(-1.00000000000000000E0,1.00000000000000000E0,1.00000000000000000E1));
#96=CARTESIAN_POINT('',(1.00000000000000000E0,0.00000000000000000E0,1.00000000000000000E1));
#97=CARTESIAN_POINT('',(1.00000000000000000E0,1.00000000000000000E0,1.00000000000000000E1));
#98=B_SPLINE_SURFACE_WITH_KNOTS('',1,1,((#94,#95),(#96,#97)),.UNSPECIFIED.,.F.,.F.,.F.,(2,2),(2,2),(-1.00000000000000000E0,1.00000000000000000E0),(0.00000000000000000E0,1.00000000000000000E0),.UNSPECIFIED.);
#99=CARTESIAN_POINT('',(5.00000000000000000E-1,2.50000000000000000E-1,0.00000000000000000E0));
#100=CARTESIAN_POINT('',(5.00000000000000000E-1,7.50000000000000000E-1,0.00000000000000000E0));
#101=CARTESIAN_POINT('',(0.00000000000000000E0,7.50000000000000000E-1,0.00000000000000000E0));
#102=(BOUNDED_CURVE()B_SPLINE_CURVE(2,(#99,#100,#101),.UNSPECIFIED.,.F.,.F.)B_SPLINE_CURVE_WITH_KNOTS((3,3),(0.00000000000000000E0,1.00000000000000000E0),.UNSPECIFIED.)CURVE()GEOMETRIC_REPRESENTATION_ITEM()RATIONAL_B_SPLINE_CURVE((1.00000000000000000E0,7.07106781186547573E-1,1.00000000000000000E0))REPRESENTATION_ITEM(''));
#103=CARTESIAN_POINT('',(0.00000000000000000E0,7.50000000000000000E-1,0.00000000000000000E0));
#104=CARTESIAN_POINT('',(0.00000000000000000E0,1.00000000000000000E0,1.00000000000000000E1));
#105=B_SPLINE_CURVE_WITH_KNOTS('',1,(#103,#104),.UNSPECIFIED.,.F.,.F.,(2,2),(0.00000000000000000E0,1.00000000000000000E0),.UNSPECIFIED.);
#106=CARTESIAN_POINT('',(1.00000000000000000E0,5.00000000000000000E-1,1.00000000000000000E1));
#107=CARTESIAN_POINT('',(1.00000000000000000E0,1.00000000000000000E0,1.00000000000000000E1));
#108=CARTESIAN_POINT('',(0.00000000000000000E0,1.00000000000000000E0,1.00000000000000000E1));
#109=(BOUNDED_CURVE()B_SPLINE_CURVE(2,(#106,#107,#108),.UNSPECIFIED.,.F.,.F.)B_SPLINE_CURVE_WITH_KNOTS((3,3),(0.00000000000000000E0,1.00000000000000000E0),.UNSPECIFIED.)CURVE()GEOMETRIC_REPRESENTATION_ITEM()RATIONAL_B_SPLINE_CURVE((1.00000000000000000E0,7.07106781186547573E-1,1.00000000000000000E0))REPRESENTATION_ITEM(''));
#110=CARTESIAN_POINT('',(5.00000000000000000E-1,2.50000000000000000E-1,0.00000000000000000E0));
#111=CARTESIAN_POINT('',(1.00000000000000000E0,5.00000000000000000E-1,1.00000000000000000E1));
#112=B_SPLINE_CURVE_WITH_KNOTS('',1,(#110,#111),.UNSPECIFIED.,.F.,.F.,(2,2),(0.00000000000000000E0,1.00000000000000000E0),.UNSPECIFIED.);
#113=CARTESIAN_POINT('',(0.00000000000000000E0,7.50000000000000000E-1,0.00000000000000000E0));
#114=CARTESIAN_POINT('',(-5.00000000000000000E-1,7.50000000000000000E-1,0.00000000000000000E0));
#115=CARTESIAN_POINT('',(-5.00000000000000000E-1,2.50000000000000000E-1,0.00000000000000000E0));
#116=(BOUNDED_CURVE()B_SPLINE_CURVE(2,(#113,#114,#115),.UNSPECIFIED.,.F.,.F.)B_SPLINE_CURVE_WITH_KNOTS((3,3),(0.00000000000000000E0,1.00000000000000000E0),.UNSPECIFIED.)CURVE()GEOMETRIC_REPRESENTATION_ITEM()RATIONAL_B_SPLINE_CURVE((1.00000000000000000E0,7.07106781186547573E-1,1.00000000000000000E0))REPRESENTATION_ITEM(''));
#117=CARTESIAN_POINT('',(-5.00000000000000000E-1,2.50000000000000000E-1,0.00000000000000000E0));
#118=CARTESIAN_POINT('',(-1.00000000000000000E0,5.00000000000000000E-1,1.00000000000000000E1));
#119=B_SPLINE_CURVE_WITH_KNOTS('',1,(#117,#118),.UNSPECIFIED.,.F.,.F.,(2,2),(0.00000000000000000E0,1.00000000000000000E0),.UNSPECIFIED.);
#120=CARTESIAN_POINT('',(0.00000000000000000E0,1.00000000000000000E0,1.00000000000000000E1));
#121=CARTESIAN_POINT('',(-1.00000000000000000E0,1.00000000000000000E0,1.00000000000000000E1));
#122=CARTESIAN_POINT('',(-1.00000000000000000E0,5.00000000000000000E-1,1.00000000000000000E1));
#123=(BOUNDED_CURVE()B_SPLINE_CURVE(2,(#120,#121,#122),.UNSPECIFIED.,.F.,.F.)B_SPLINE_CURVE_WITH_KNOTS((3,3),(0.00000000000000000E0,1.00000000000000000E0),.UNSPECIFIED.)CURVE()GEOMETRIC_REPRESENTATION_ITEM()RATIONAL_B_SPLINE_CURVE((1.00000000000000000E0,7.07106781186547573E-1,1.00000000000000000E0))REPRESENTATION_ITEM(''));
#124=CARTESIAN_POINT('',(-5.00000000000000000E-1,2.50000000000000000E-1,0.00000000000000000E0));
#125=CARTESIAN_POINT('',(-5.00000000000000000E-1,-2.50000000000000000E-1,0.00000000000000000E0));
#126=CARTESIAN_POINT('',(0.00000000000000000E0,-2.50000000000000000E-1,0.00000000000000000E0));
#127=(BOUNDED_CURVE()B_SPLINE_CURVE(2,(#124,#125,#126),.UNSPECIFIED.,.F.,.F.)B_SPLINE_CURVE_WITH_KNOTS((3,3),(0.00000000000000000E0,1.00000000000000000E0),.UNSPECIFIED.)CURVE()GEOMETRIC_REPRESENTATION_ITEM()RATIONAL_B_SPLINE_CURVE((1.00000000000000000E0,7.07106781186547573E-1,1.00000000000000000E0))REPRESENTATION_ITEM(''));
#128=CARTESIAN_POINT('',(0.00000000000000000E0,-2.50000000000000000E-1,0.00000000000000000E0));
#129=CARTESIAN_POINT('',(0.00000000000000000E0,0.00000000000000000E0,1.00000000000000000E1));
#130=B_SPLINE_CURVE_WITH_KNOTS('',1,(#128,#129),.UNSPECIFIED.,.F.,.F.,(2,2),(0.00000000000000000E0,1.00000000000000000E0),.UNSPECIFIED.);
#131=CARTESIAN_POINT('',(-1.00000000000000000E0,5.00000000000000000E-1,1.00000000000000000E1));
#132=CARTESIAN_POINT('',(-1.00000000000000000E0,0.00000000000000000E0,1.00000000000000000E1));
#133=CARTESIAN_POINT('',(0.00000000000000000E0,0.00000000000000000E0,1.00000000000000000E1));
#134=(BOUNDED_CURVE()B_SPLINE_CURVE(2,(#131,#132,#133),.UNSPECIFIED.,.F.,.F.)B_SPLINE_CURVE_WITH_KNOTS((3,3),(0.00000000000000000E0,1.00000000000000000E0),.UNSPECIFIED.)CURVE()GEOMETRIC_REPRESENTATION_ITEM()RATIONAL_B_SPLINE_CURVE((1.00000000000000000E0,7.07106781186547573E-1,1.00000000000000000E0))REPRESENTATION_ITEM(''));
#135=CARTESIAN_POINT('',(5.00000000000000000E-1,2.50000000000000000E-1,0.00000000000000000E0));
#136=CARTESIAN_POINT('',(5.00000000000000000E-1,-2.50000000000000000E-1,0.00000000000000000E0));
#137=CARTESIAN_POINT('',(0.00000000000000000E0,-2.50000000000000000E-1,0.00000000000000000E0));
#138=(BOUNDED_CURVE()B_SPLINE_CURVE(2,(#135,#136,#137),.UNSPECIFIED.,.F.,.F.)B_SPLINE_CURVE_WITH_KNOTS((3,3),(0.00000000000000000E0,1.00000000000000000E0),.UNSPECIFIED.)CURVE()GEOMETRIC_REPRESENTATION_ITEM()RATIONAL_B_SPLINE_CURVE((1.00000000000000000E0,7.07106781186547573E-1,1.00000000000000000E0))REPRESENTATION_ITEM(''));
#139=CARTESIAN_POINT('',(1.00000000000000000E0,5.00000000000000000E-1,1.00000000000000000E1));
#140=CARTESIAN_POINT('',(1.00000000000000000E0,0.00000000000000000E0,1.00000000000000000E1));
#141=CARTESIAN_POINT('',(0.00000000000000000E0,0.00000000000000000E0,1.00000000000000000E1));
#142=(BOUNDED_CURVE()B_SPLINE_CURVE(2,(#139,#140,#141),.UNSPECIFIED.,.F.,.F.)B_SPLINE_CURVE_WITH_KNOTS((3,3),(0.00000000000000000E0,1.00000000000000000E0),.UNSPECIFIED.)CURVE()GEOMETRIC_REPRESENTATION_ITEM()RATIONAL_B_SPLINE_CURVE((1.00000000000000000E0,7.07106781186547573E-1,1.00000000000000000E0))REPRESENTATION_ITEM(''));
#143=CARTESIAN_POINT('',(2.00000000000000011E-1,2.50000000000000000E-1,0.00000000000000000E0));
#144=CARTESIAN_POINT('',(2.00000000000000011E-1,4.99999999999999889E-2,0.00000000000000000E0));
#145=CARTESIAN_POINT('',(0.00000000000000000E0,4.99999999999999889E-2,0.00000000000000000E0));
#146=(BOUNDED_CURVE()B_SPLINE_CURVE(2,(#143,#144,#145),.UNSPECIFIED.,.F.,.F.)B_SPLINE_CURVE_WITH_KNOTS((3,3),(0.00000000000000000E0,1.00000000000000000E0),.UNSPECIFIED.)CURVE()GEOMETRIC_REPRESENTATION_ITEM()RATIONAL_B_SPLINE_CURVE((1.00000000000000000E0,7.07106781186547573E-1,1.00000000000000000E0))REPRESENTATION_ITEM(''));
#147=CARTESIAN_POINT('',(0.00000000000000000E0,4.99999999999999889E-2,0.00000000000000000E0));
#148=CARTESIAN_POINT('',(0.00000000000000000E0,2.99999999999999989E-1,1.00000000000000000E1));
#149=B_SPLINE_CURVE_WITH_KNOTS('',1,(#147,#148),.UNSPECIFIED.,.F.,.F.,(2,2),(0.00000000000000000E0,1.00000000000000000E0),.UNSPECIFIED.);
#150=CARTESIAN_POINT('',(4.00000000000000022E-1,5.00000000000000000E-1,1.00000000000000000E1));
#151=CARTESIAN_POINT('',(4.00000000000000022E-1,2.99999999999999989E-1,1.00000000000000000E1));
#152=CARTESIAN_POINT('',(0.00000000000000000E0,2.99999999999999989E-1,1.00000000000000000E1));
#153=(BOUNDED_CURVE()B_SPLINE_CURVE(2,(#150,#151,#152),.UNSPECIFIED.,.F.,.F.)B_SPLINE_CURVE_WITH_KNOTS((3,3),(0.00000000000000000E0,1.00000000000000000E0),.UNSPECIFIED.)CURVE()GEOMETRIC_REPRESENTATION_ITEM()RATIONAL_B_SPLINE_CURVE((1.00000000000000000E0,7.07106781186547573E-1,1.00000000000000000E0))REPRESENTATION_ITEM(''));
#154=CARTESIAN_POINT('',(2.00000000000000011E-1,2.50000000000000000E-1,0.00000000000000000E0));
#155=CARTESIAN_POINT('',(4.00000000000000022E-1,5.00000000000000000E-1,1.00000000000000000E1));
#156=B_SPLINE_CURVE_WITH_KNOTS('',1,(#154,#155),.UNSPECIFIED.,.F.,.F.,(2,2),(0.00000000000000000E0,1.00000000000000000E0),.UNSPECIFIED.);
#157=CARTESIAN_POINT('',(0.00000000000000000E0,4.99999999999999889E-2,0.00000000000000000E0));
#158=CARTESIAN_POINT('',(-2.00000000000000011E-1,4.99999999999999889E-2,0.00000000000000000E0));
#159=CARTESIAN_POINT('',(-2.00000000000000011E-1,2.50000000000000000E-1,0.00000000000000000E0));
#160=(BOUNDED_CURVE()B_SPLINE_CURVE(2,(#157,#158,#159),.UNSPECIFIED.,.F.,.F.)B_SPLINE_CURVE_WITH_KNOTS((3,3),(0.00000000000000000E0,1.00000000000000000E0),.UNSPECIFIED.)CURVE()GEOMETRIC_REPRESENTATION_ITEM()RATIONAL_B_SPLINE_CURVE((1.00000000000000000E0,7.07106781186547573E-1,1.00000000000000000E0))REPRESENTATION_ITEM(''));
#161=CARTESIAN_POINT('',(-2.00000000000000011E-1,2.50000000000000000E-1,0.00000000000000000E0));
#162=CARTESIAN_POINT('',(-4.00000000000000022E-1,5.00000000000000000E-1,1.00000000000000000E1));
#163=B_SPLINE_CURVE_WITH_KNOTS('',1,(#161,#162),.UNSPECIFIED.,.F.,.F.,(2,2),(0.00000000000000000E0,1.00000000000000000E0),.UNSPECIFIED.);
#164=CARTESIAN_POINT('',(0.00000000000000000E0,2.99999999999999989E-1,1.00000000000000000E1));
#165=CARTESIAN_POINT('',(-4.00000000000000022E-1,2.99999999999999989E-1,1.00000000000000000E1));
#166=CARTESIAN_POINT('',(-4.00000000000000022E-1,5.00000000000000000E-1,1.00000000000000000E1));
#167=(BOUNDED_CURVE()B_SPLINE_CURVE(2,(#164,#165,#166),.UNSPECIFIED.,.F.,.F.)B_SPLINE_CURVE_WITH_KNOTS((3,3),(0.00000000000000000E0,1.00000000000000000E0),.UNSPECIFIED.)CURVE()GEOMETRIC_REPRESENTATION_ITEM()RATIONAL_B_SPLINE_CURVE((1.00000000000000000E0,7.07106781186547573E-1,1.00000000000000000E0))REPRESENTATION_ITEM(''));
#168=CARTESIAN_POINT('',(-2.00000000000000011E-1,2.50000000000000000E-1,0.00000000000000000E0));
#169=CARTESIAN_POINT('',(-2.00000000000000011E-1,4.50000000000000011E-1,0.00000000000000000E0));
#170=CARTESIAN_POINT('',(0.00000000000000000E0,4.50000000000000011E-1,0.00000000000000000E0));
#171=(BOUNDED_CURVE()B_SPLINE_CURVE(2,(#168,#169,#170),.UNSPECIFIED.,.F.,.F.)B_SPLINE_CURVE_WITH_KNOTS((3,3),(0.00000000000000000E0,1.00000000000000000E0),.UNSPECIFIED.)CURVE()GEOMETRIC_REPRESENTATION_ITEM()RATIONAL_B_SPLINE_CURVE((1.00000000000000000E0,7.07106781186547573E-1,1.00000000000000000E0))REPRESENTATION_ITEM(''));
#172=CARTESIAN_POINT('',(0.00000000000000000E0,4.50000000000000011E-1,0.00000000000000000E0));
#173=CARTESIAN_POINT('',(0.00000000000000000E0,6.99999999999999956E-1,1.00000000000000000E1));
#174=B_SPLINE_CURVE_WITH_KNOTS('',1,(#172,#173),.UNSPECIFIED.,.F.,.F.,(2,2),(0.00000000000000000E0,1.00000000000000000E0),.UNSPECIFIED.);
#175=CARTESIAN_POINT('',(-4.00000000000000022E-1,5.00000000000000000E-1,1.00000000000000000E1));
#176=CARTESIAN_POINT('',(-4.00000000000000022E-1,6.99999999999999956E-1,1.00000000000000000E1));
#177=CARTESIAN_POINT('',(0.00000000000000000E0,6.99999999999999956E-1,1.00000000000000000E1));
#178=(BOUNDED_CURVE()B_SPLINE_CURVE(2,(#175,#176,#177),.UNSPECIFIED.,.F.,.F.)B_SPLINE_CURVE_WITH_KNOTS((3,3),(0.00000000000000000E0,1.00000000000000000E0),.UNSPECIFIED.)CURVE()GEOMETRIC_REPRESENTATION_ITEM()RATIONAL_B_SPLINE_CURVE((1.00000000000000000E0,7.07106781186547573E-1,1.00000000000000000E0))REPRESENTATION_ITEM(''));
#179=CARTESIAN_POINT('',(2.00000000000000011E-1,2.50000000000000000E-1,0.00000000000000000E0));
#180=CARTESIAN_POINT('',(2.00000000000000011E-1,4.50000000000000011E-1,0.00000000000000000E0));
#181=CARTESIAN_POINT('',(0.00000000000000000E0,4.50000000000000011E-1,0.00000000000000000E0));
#182=(BOUNDED_CURVE()B_SPLINE_CURVE(2,(#179,#180,#181),.UNSPECIFIED.,.F.,.F.)B_SPLINE_CURVE_WITH_KNOTS((3,3),(0.00000000000000000E0,1.00000000000000000E0),.UNSPECIFIED.)CURVE()GEOMETRIC_REPRESENTATION_ITEM()RATIONAL_B_SPLINE_CURVE((1.00000000000000000E0,7.07106781186547573E-1,1.00000000000000000E0))REPRESENTATION_ITEM(''));
#183=CARTESIAN_POINT('',(4.00000000000000022E-1,5.00000000000000000E-1,1.00000000000000000E1));
#184=CARTESIAN_POINT('',(4.00000000000000022E-1,6.99999999999999956E-1,1.00000000000000000E1));
#185=CARTESIAN_POINT('',(0.00000000000000000E0,6.99999999999999956E-1,1.00000000000000000E1));
#186=(BOUNDED_CURVE()B_SPLINE_CURVE(2,(#183,#184,#185),.UNSPECIFIED.,.F.,.F.)B_SPLINE_CURVE_WITH_KNOTS((3,3),(0.00000000000000000E0,1.00000000000000000E0),.UNSPECIFIED.)CURVE()GEOMETRIC_REPRESENTATION_ITEM()RATIONAL_B_SPLINE_CURVE((1.00000000000000000E0,7.07106781186547573E-1,1.00000000000000000E0))REPRESENTATION_ITEM(''));
#187=(GEOMETRIC_REPRESENTATION_CONTEXT(2)REPRESENTATION_CONTEXT('','2D'));
#188=CARTESIAN_POINT('',(0.00000000000000000E0,0.00000000000000000E0));
#189=CARTESIAN_POINT('',(1.00000000000000000E0,0.00000000000000000E0));
#190=B_SPLINE_CURVE_WITH_KNOTS('',1,(#188,#189),.UNSPECIFIED.,.F.,.F.,(2,2),(0.00000000000000000E0,1.00000000000000000E0),.UNSPECIFIED.);
#191=DEFINITIONAL_REPRESENTATION('',(#190),#187);
#192=PCURVE('',#39,#191);
#193=CARTESIAN_POINT('',(1.00000000000000000E0,0.00000000000000000E0));
#194=CARTESIAN_POINT('',(1.00000000000000000E0,1.00000000000000000E0));
#195=B_SPLINE_CURVE_WITH_KNOTS('',1,(#193,#194),.UNSPECIFIED.,.F.,.F.,(2,2),(0.00000000000000000E0,1.00000000000000000E0),.UNSPECIFIED.);
#196=DEFINITIONAL_REPRESENTATION('',(#195),#187);
#197=PCURVE('',#39,#196);
#198=CARTESIAN_POINT('',(1.00000000000000000E0,1.00000000000000000E0));
#199=CARTESIAN_POINT('',(0.00000000000000000E0,1.00000000000000000E0));
#200=B_SPLINE_CURVE_WITH_KNOTS('',1,(#198,#199),.UNSPECIFIED.,.F.,.F.,(2,2),(0.00000000000000000E0,1.00000000000000000E0),.UNSPECIFIED.);
#201=DEFINITIONAL_REPRESENTATION('',(#200),#187);
#202=PCURVE('',#39,#201);
#203=CARTESIAN_POINT('',(0.00000000000000000E0,1.00000000000000000E0));
#204=CARTESIAN_POINT('',(0.00000000000000000E0,0.00000000000000000E0));
#205=B_SPLINE_CURVE_WITH_KNOTS('',1,(#203,#204),.UNSPECIFIED.,.F.,.F.,(2,2),(0.00000000000000000E0,1.00000000000000000E0),.UNSPECIFIED.);
#206=DEFINITIONAL_REPRESENTATION('',(#205),#187);
#207=PCURVE('',#39,#206);
#208=CARTESIAN_POINT('',(0.00000000000000000E0,0.00000000000000000E0));
#209=CARTESIAN_POINT('',(1.00000000000000000E0,0.00000000000000000E0));
#210=B_SPLINE_CURVE_WITH_KNOTS('',1,(#208,#209),.UNSPECIFIED.,.F.,.F.,(2,2),(0.00000000000000000E0,1.00000000000000000E0),.UNSPECIFIED.);
#211=DEFINITIONAL_REPRESENTATION('',(#210),#187);
#212=PCURVE('',#46,#211);
#213=CARTESIAN_POINT('',(1.00000000000000000E0,0.00000000000000000E0));
#214=CARTESIAN_POINT('',(1.00000000000000000E0,1.00000000000000000E0));
#215=B_SPLINE_CURVE_WITH_KNOTS('',1,(#213,#214),.UNSPECIFIED.,.F.,.F.,(2,2),(0.00000000000000000E0,1.00000000000000000E0),.UNSPECIFIED.);
#216=DEFINITIONAL_REPRESENTATION('',(#215),#187);
#217=PCURVE('',#46,#216);
#218=CARTESIAN_POINT('',(1.00000000000000000E0,1.00000000000000000E0));
#219=CARTESIAN_POINT('',(0.00000000000000000E0,1.00000000000000000E0));
#220=B_SPLINE_CURVE_WITH_KNOTS('',1,(#218,#219),.UNSPECIFIED.,.F.,.F.,(2,2),(0.00000000000000000E0,1.00000000000000000E0),.UNSPECIFIED.);
#221=DEFINITIONAL_REPRESENTATION('',(#220),#187);
#222=PCURVE('',#46,#221);
#223=CARTESIAN_POINT('',(0.00000000000000000E0,1.00000000000000000E0));
#224=CARTESIAN_POINT('',(0.00000000000000000E0,0.00000000000000000E0));
#225=B_SPLINE_CURVE_WITH_KNOTS('',1,(#223,#224),.UNSPECIFIED.,.F.,.F.,(2,2),(0.00000000000000000E0,1.00000000000000000E0),.UNSPECIFIED.);
#226=DEFINITIONAL_REPRESENTATION('',(#225),#187);
#227=PCURVE('',#46,#226);
#228=CARTESIAN_POINT('',(0.00000000000000000E0,0.00000000000000000E0));
#229=CARTESIAN_POINT('',(1.00000000000000000E0,0.00000000000000000E0));
#230=B_SPLINE_CURVE_WITH_KNOTS('',1,(#228,#229),.UNSPECIFIED.,.F.,.F.,(2,2),(0.00000000000000000E0,1.00000000000000000E0),.UNSPECIFIED.);
#231=DEFINITIONAL_REPRESENTATION('',(#230),#187);
#232=PCURVE('',#53,#231);
#233=CARTESIAN_POINT('',(1.00000000000000000E0,0.00000000000000000E0));
#234=CARTESIAN_POINT('',(1.00000000000000000E0,1.00000000000000000E0));
#235=B_SPLINE_CURVE_WITH_KNOTS('',1,(#233,#234),.UNSPECIFIED.,.F.,.F.,(2,2),(0.00000000000000000E0,1.00000000000000000E0),.UNSPECIFIED.);
#236=DEFINITIONAL_REPRESENTATION('',(#235),#187);
#237=PCURVE('',#53,#236);
#238=CARTESIAN_POINT('',(1.00000000000000000E0,1.00000000000000000E0));
#239=CARTESIAN_POINT('',(0.00000000000000000E0,1.00000000000000000E0));
#240=B_SPLINE_CURVE_WITH_KNOTS('',1,(#238,#239),.UNSPECIFIED.,.F.,.F.,(2,2),(0.00000000000000000E0,1.00000000000000000E0),.UNSPECIFIED.);
#241=DEFINITIONAL_REPRESENTATION('',(#240),#187);
#242=PCURVE('',#53,#241);
#243=CARTESIAN_POINT('',(0.00000000000000000E0,1.00000000000000000E0));
#244=CARTESIAN_POINT('',(0.00000000000000000E0,0.00000000000000000E0));
#245=B_SPLINE_CURVE_WITH_KNOTS('',1,(#243,#244),.UNSPECIFIED.,.F.,.F.,(2,2),(0.00000000000000000E0,1.00000000000000000E0),.UNSPECIFIED.);
#246=DEFINITIONAL_REPRESENTATION('',(#245),#187);
#247=PCURVE('',#53,#246);
#248=CARTESIAN_POINT('',(0.00000000000000000E0,0.00000000000000000E0));
#249=CARTESIAN_POINT('',(1.00000000000000000E0,0.00000000000000000E0));
#250=B_SPLINE_CURVE_WITH_KNOTS('',1,(#248,#249),.UNSPECIFIED.,.F.,.F.,(2,2),(0.00000000000000000E0,1.00000000000000000E0),.UNSPECIFIED.);
#251=DEFINITIONAL_REPRESENTATION('',(#250),#187);
#252=PCURVE('',#60,#251);
#253=CARTESIAN_POINT('',(1.00000000000000000E0,0.00000000000000000E0));
#254=CARTESIAN_POINT('',(1.00000000000000000E0,1.00000000000000000E0));
#255=B_SPLINE_CURVE_WITH_KNOTS('',1,(#253,#254),.UNSPECIFIED.,.F.,.F.,(2,2),(0.00000000000000000E0,1.00000000000000000E0),.UNSPECIFIED.);
#256=DEFINITIONAL_REPRESENTATION('',(#255),#187);
#257=PCURVE('',#60,#256);
#258=CARTESIAN_POINT('',(1.00000000000000000E0,1.00000000000000000E0));
#259=CARTESIAN_POINT('',(0.00000000000000000E0,1.00000000000000000E0));
#260=B_SPLINE_CURVE_WITH_KNOTS('',1,(#258,#259),.UNSPECIFIED.,.F.,.F.,(2,2),(0.00000000000000000E0,1.00000000000000000E0),.UNSPECIFIED.);
#261=DEFINITIONAL_REPRESENTATION('',(#260),#187);
#262=PCURVE('',#60,#261);
#263=CARTESIAN_POINT('',(0.00000000000000000E0,1.00000000000000000E0));
#264=CARTESIAN_POINT('',(0.00000000000000000E0,0.00000000000000000E0));
#265=B_SPLINE_CURVE_WITH_KNOTS('',1,(#263,#264),.UNSPECIFIED.,.F.,.F.,(2,2),(0.00000000000000000E0,1.00000000000000000E0),.UNSPECIFIED.);
#266=DEFINITIONAL_REPRESENTATION('',(#265),#187);
#267=PCURVE('',#60,#266);
#268=CARTESIAN_POINT('',(0.00000000000000000E0,0.00000000000000000E0));
#269=CARTESIAN_POINT('',(1.00000000000000000E0,0.00000000000000000E0));
#270=B_SPLINE_CURVE_WITH_KNOTS('',1,(#268,#269),.UNSPECIFIED.,.F.,.F.,(2,2),(0.00000000000000000E0,1.00000000000000000E0),.UNSPECIFIED.);
#271=DEFINITIONAL_REPRESENTATION('',(#270),#187);
#272=PCURVE('',#67,#271);
#273=CARTESIAN_POINT('',(1.00000000000000000E0,0.00000000000000000E0));
#274=CARTESIAN_POINT('',(1.00000000000000000E0,1.00000000000000000E0));
#275=B_SPLINE_CURVE_WITH_KNOTS('',1,(#273,#274),.UNSPECIFIED.,.F.,.F.,(2,2),(0.00000000000000000E0,1.00000000000000000E0),.UNSPECIFIED.);
#276=DEFINITIONAL_REPRESENTATION('',(#275),#187);
#277=PCURVE('',#67,#276);
#278=CARTESIAN_POINT('',(1.00000000000000000E0,1.00000000000000000E0));
#279=CARTESIAN_POINT('',(0.00000000000000000E0,1.00000000000000000E0));
#280=B_SPLINE_CURVE_WITH_KNOTS('',1,(#278,#279),.UNSPECIFIED.,.F.,.F.,(2,2),(0.00000000000000000E0,1.00000000000000000E0),.UNSPECIFIED.);
#281=DEFINITIONAL_REPRESENTATION('',(#280),#187);
#282=PCURVE('',#67,#281);
#283=CARTESIAN_POINT('',(0.00000000000000000E0,1.00000000000000000E0));
#284=CARTESIAN_POINT('',(0.00000000000000000E0,0.00000000000000000E0));
#285=B_SPLINE_CURVE_WITH_KNOTS('',1,(#283,#284),.UNSPECIFIED.,.F.,.F.,(2,2),(0.00000000000000000E0,1.00000000000000000E0),.UNSPECIFIED.);
#286=DEFINITIONAL_REPRESENTATION('',(#285),#187);
#287=PCURVE('',#67,#286);
#288=CARTESIAN_POINT('',(0.00000000000000000E0,0.00000000000000000E0));
#289=CARTESIAN_POINT('',(1.00000000000000000E0,0.00000000000000000E0));
#290=B_SPLINE_CURVE_WITH_KNOTS('',1,(#288,#289),.UNSPECIFIED.,.F.,.F.,(2,2),(0.00000000000000000E0,1.00000000000000000E0),.UNSPECIFIED.);
#291=DEFINITIONAL_REPRESENTATION('',(#290),#187);
#292=PCURVE('',#74,#291);
#293=CARTESIAN_POINT('',(1.00000000000000000E0,0.00000000000000000E0));
#294=CARTESIAN_POINT('',(1.00000000000000000E0,1.00000000000000000E0));
#295=B_SPLINE_CURVE_WITH_KNOTS('',1,(#293,#294),.UNSPECIFIED.,.F.,.F.,(2,2),(0.00000000000000000E0,1.00000000000000000E0),.UNSPECIFIED.);
#296=DEFINITIONAL_REPRESENTATION('',(#295),#187);
#297=PCURVE('',#74,#296);
#298=CARTESIAN_POINT('',(1.00000000000000000E0,1.00000000000000000E0));
#299=CARTESIAN_POINT('',(0.00000000000000000E0,1.00000000000000000E0));
#300=B_SPLINE_CURVE_WITH_KNOTS('',1,(#298,#299),.UNSPECIFIED.,.F.,.F.,(2,2),(0.00000000000000000E0,1.00000000000000000E0),.UNSPECIFIED.);
#301=DEFINITIONAL_REPRESENTATION('',(#300),#187);
#302=PCURVE('',#74,#301);
#303=CARTESIAN_POINT('',(0.00000000000000000E0,1.00000000000000000E0));
#304=CARTESIAN_POINT('',(0.00000000000000000E0,0.00000000000000000E0));
#305=B_SPLINE_CURVE_WITH_KNOTS('',1,(#303,#304),.UNSPECIFIED.,.F.,.F.,(2,2),(0.00000000000000000E0,1.00000000000000000E0),.UNSPECIFIED.);
#306=DEFINITIONAL_REPRESENTATION('',(#305),#187);
#307=PCURVE('',#74,#306);
#308=CARTESIAN_POINT('',(0.00000000000000000E0,0.00000000000000000E0));
#309=CARTESIAN_POINT('',(1.00000000000000000E0,0.00000000000000000E0));
#310=B_SPLINE_CURVE_WITH_KNOTS('',1,(#308,#309),.UNSPECIFIED.,.F.,.F.,(2,2),(0.00000000000000000E0,1.00000000000000000E0),.UNSPECIFIED.);
#311=DEFINITIONAL_REPRESENTATION('',(#310),#187);
#312=PCURVE('',#81,#311);
#313=CARTESIAN_POINT('',(1.00000000000000000E0,0.00000000000000000E0));
#314=CARTESIAN_POINT('',(1.00000000000000000E0,1.00000000000000000E0));
#315=B_SPLINE_CURVE_WITH_KNOTS('',1,(#313,#314),.UNSPECIFIED.,.F.,.F.,(2,2),(0.00000000000000000E0,1.00000000000000000E0),.UNSPECIFIED.);
#316=DEFINITIONAL_REPRESENTATION('',(#315),#187);
#317=PCURVE('',#81,#316);
#318=CARTESIAN_POINT('',(1.00000000000000000E0,1.00000000000000000E0));
#319=CARTESIAN_POINT('',(0.00000000000000000E0,1.00000000000000000E0));
#320=B_SPLINE_CURVE_WITH_KNOTS('',1,(#318,#319),.UNSPECIFIED.,.F.,.F.,(2,2),(0.00000000000000000E0,1.00000000000000000E0),.UNSPECIFIED.);
#321=DEFINITIONAL_REPRESENTATION('',(#320),#187);
#322=PCURVE('',#81,#321);
#323=CARTESIAN_POINT('',(0.00000000000000000E0,1.00000000000000000E0));
#324=CARTESIAN_POINT('',(0.00000000000000000E0,0.00000000000000000E0));
#325=B_SPLINE_CURVE_WITH_KNOTS('',1,(#323,#324),.UNSPECIFIED.,.F.,.F.,(2,2),(0.00000000000000000E0,1.00000000000000000E0),.UNSPECIFIED.);
#326=DEFINITIONAL_REPRESENTATION('',(#325),#187);
#327=PCURVE('',#81,#326);
#328=CARTESIAN_POINT('',(0.00000000000000000E0,0.00000000000000000E0));
#329=CARTESIAN_POINT('',(1.00000000000000000E0,0.00000000000000000E0));
#330=B_SPLINE_CURVE_WITH_KNOTS('',1,(#328,#329),.UNSPECIFIED.,.F.,.F.,(2,2),(0.00000000000000000E0,1.00000000000000000E0),.UNSPECIFIED.);
#331=DEFINITIONAL_REPRESENTATION('',(#330),#187);
#332=PCURVE('',#88,#331);
#333=CARTESIAN_POINT('',(1.00000000000000000E0,0.00000000000000000E0));
#334=CARTESIAN_POINT('',(1.00000000000000000E0,1.00000000000000000E0));
#335=B_SPLINE_CURVE_WITH_KNOTS('',1,(#333,#334),.UNSPECIFIED.,.F.,.F.,(2,2),(0.00000000000000000E0,1.00000000000000000E0),.UNSPECIFIED.);
#336=DEFINITIONAL_REPRESENTATION('',(#335),#187);
#337=PCURVE('',#88,#336);
#338=CARTESIAN_POINT('',(1.00000000000000000E0,1.00000000000000000E0));
#339=CARTESIAN_POINT('',(0.00000000000000000E0,1.00000000000000000E0));
#340=B_SPLINE_CURVE_WITH_KNOTS('',1,(#338,#339),.UNSPECIFIED.,.F.,.F.,(2,2),(0.00000000000000000E0,1.00000000000000000E0),.UNSPECIFIED.);
#341=DEFINITIONAL_REPRESENTATION('',(#340),#187);
#342=PCURVE('',#88,#341);
#343=CARTESIAN_POINT('',(0.00000000000000000E0,1.00000000000000000E0));
#344=CARTESIAN_POINT('',(0.00000000000000000E0,0.00000000000000000E0));
#345=B_SPLINE_CURVE_WITH_KNOTS('',1,(#343,#344),.UNSPECIFIED.,.F.,.F.,(2,2),(0.00000000000000000E0,1.00000000000000000E0),.UNSPECIFIED.);
#346=DEFINITIONAL_REPRESENTATION('',(#345),#187);
#347=PCURVE('',#88,#346);
#348=CARTESIAN_POINT('',(-5.00000000000000000E-1,2.50000000000000000E-1));
#349=CARTESIAN_POINT('',(-5.00000000000000000E-1,-2.50000000000000000E-1));
#350=CARTESIAN_POINT('',(0.00000000000000000E0,-2.50000000000000000E-1));
#351=(BOUNDED_CURVE()B_SPLINE_CURVE(2,(#348,#349,#350),.UNSPECIFIED.,.F.,.F.)B_SPLINE_CURVE_WITH_KNOTS((3,3),(0.00000000000000000E0,1.00000000000000000E0),.UNSPECIFIED.)CURVE()GEOMETRIC_REPRESENTATION_ITEM()RATIONAL_B_SPLINE_CURVE((1.00000000000000000E0,7.07106781186547573E-1,1.00000000000000000E0))REPRESENTATION_ITEM(''));
#352=DEFINITIONAL_REPRESENTATION('',(#351),#187);
#353=PCURVE('',#93,#352);
#354=CARTESIAN_POINT('',(0.00000000000000000E0,-2.50000000000000000E-1));
#355=CARTESIAN_POINT('',(5.00000000000000000E-1,-2.50000000000000000E-1));
#356=CARTESIAN_POINT('',(5.00000000000000000E-1,2.50000000000000000E-1));
#357=(BOUNDED_CURVE()B_SPLINE_CURVE(2,(#354,#355,#356),.UNSPECIFIED.,.F.,.F.)B_SPLINE_CURVE_WITH_KNOTS((3,3),(0.00000000000000000E0,1.00000000000000000E0),.UNSPECIFIED.)CURVE()GEOMETRIC_REPRESENTATION_ITEM()RATIONAL_B_SPLINE_CURVE((1.00000000000000000E0,7.07106781186547573E-1,1.00000000000000000E0))REPRESENTATION_ITEM(''));
#358=DEFINITIONAL_REPRESENTATION('',(#357),#187);
#359=PCURVE('',#93,#358);
#360=CARTESIAN_POINT('',(5.00000000000000000E-1,2.50000000000000000E-1));
#361=CARTESIAN_POINT('',(5.00000000000000000E-1,7.50000000000000000E-1));
#362=CARTESIAN_POINT('',(0.00000000000000000E0,7.50000000000000000E-1));
#363=(BOUNDED_CURVE()B_SPLINE_CURVE(2,(#360,#361,#362),.UNSPECIFIED.,.F.,.F.)B_SPLINE_CURVE_WITH_KNOTS((3,3),(0.00000000000000000E0,1.00000000000000000E0),.UNSPECIFIED.)CURVE()GEOMETRIC_REPRESENTATION_ITEM()RATIONAL_B_SPLINE_CURVE((1.00000000000000000E0,7.07106781186547573E-1,1.00000000000000000E0))REPRESENTATION_ITEM(''));
#364=DEFINITIONAL_REPRESENTATION('',(#363),#187);
#365=PCURVE('',#93,#364);
#366=CARTESIAN_POINT('',(0.00000000000000000E0,7.50000000000000000E-1));
#367=CARTESIAN_POINT('',(-5.00000000000000000E-1,7.50000000000000000E-1));
#368=CARTESIAN_POINT('',(-5.00000000000000000E-1,2.50000000000000000E-1));
#369=(BOUNDED_CURVE()B_SPLINE_CURVE(2,(#366,#367,#368),.UNSPECIFIED.,.F.,.F.)B_SPLINE_CURVE_WITH_KNOTS((3,3),(0.00000000000000000E0,1.00000000000000000E0),.UNSPECIFIED.)CURVE()GEOMETRIC_REPRESENTATION_ITEM()RATIONAL_B_SPLINE_CURVE((1.00000000000000000E0,7.07106781186547573E-1,1.00000000000000000E0))REPRESENTATION_ITEM(''));
#370=DEFINITIONAL_REPRESENTATION('',(#369),#187);
#371=PCURVE('',#93,#370);
#372=CARTESIAN_POINT('',(-2.00000000000000011E-1,2.50000000000000000E-1));
#373=CARTESIAN_POINT('',(-2.00000000000000011E-1,4.50000000000000011E-1));
#374=CARTESIAN_POINT('',(0.00000000000000000E0,4.50000000000000011E-1));
#375=(BOUNDED_CURVE()B_SPLINE_CURVE(2,(#372,#373,#374),.UNSPECIFIED.,.F.,.F.)B_SPLINE_CURVE_WITH_KNOTS((3,3),(0.00000000000000000E0,1.00000000000000000E0),.UNSPECIFIED.)CURVE()GEOMETRIC_REPRESENTATION_ITEM()RATIONAL_B_SPLINE_CURVE((1.00000000000000000E0,7.07106781186547573E-1,1.00000000000000000E0))REPRESENTATION_ITEM(''));
#376=DEFINITIONAL_REPRESENTATION('',(#375),#187);
#377=PCURVE('',#93,#376);
#378=CARTESIAN_POINT('',(0.00000000000000000E0,4.50000000000000011E-1));
#379=CARTESIAN_POINT('',(2.00000000000000011E-1,4.50000000000000011E-1));
#380=CARTESIAN_POINT('',(2.00000000000000011E-1,2.50000000000000000E-1));
#381=(BOUNDED_CURVE()B_SPLINE_CURVE(2,(#378,#379,#380),.UNSPECIFIED.,.F.,.F.)B_SPLINE_CURVE_WITH_KNOTS((3,3),(0.00000000000000000E0,1.00000000000000000E0),.UNSPECIFIED.)CURVE()GEOMETRIC_REPRESENTATION_ITEM()RATIONAL_B_SPLINE_CURVE((1.00000000000000000E0,7.07106781186547573E-1,1.00000000000000000E0))REPRESENTATION_ITEM(''));
#382=DEFINITIONAL_REPRESENTATION('',(#381),#187);
#383=PCURVE('',#93,#382);
#384=CARTESIAN_POINT('',(2.00000000000000011E-1,2.50000000000000000E-1));
#385=CARTESIAN_POINT('',(2.00000000000000011E-1,4.99999999999999889E-2));
#386=CARTESIAN_POINT('',(0.00000000000000000E0,4.99999999999999889E-2));
#387=(BOUNDED_CURVE()B_SPLINE_CURVE(2,(#384,#385,#386),.UNSPECIFIED.,.F.,.F.)B_SPLINE_CURVE_WITH_KNOTS((3,3),(0.00000000000000000E0,1.00000000000000000E0),.UNSPECIFIED.)CURVE()GEOMETRIC_REPRESENTATION_ITEM()RATIONAL_B_SPLINE_CURVE((1.00000000000000000E0,7.07106781186547573E-1,1.00000000000000000E0))REPRESENTATION_ITEM(''));
#388=DEFINITIONAL_REPRESENTATION('',(#387),#187);
#389=PCURVE('',#93,#388);
#390=CARTESIAN_POINT('',(0.00000000000000000E0,4.99999999999999889E-2));
#391=CARTESIAN_POINT('',(-2.00000000000000011E-1,4.99999999999999889E-2));
#392=CARTESIAN_POINT('',(-2.00000000000000011E-1,2.50000000000000000E-1));
#393=(BOUNDED_CURVE()B_SPLINE_CURVE(2,(#390,#391,#392),.UNSPECIFIED.,.F.,.F.)B_SPLINE_CURVE_WITH_KNOTS((3,3),(0.00000000000000000E0,1.00000000000000000E0),.UNSPECIFIED.)CURVE()GEOMETRIC_REPRESENTATION_ITEM()RATIONAL_B_SPLINE_CURVE((1.00000000000000000E0,7.07106781186547573E-1,1.00000000000000000E0))REPRESENTATION_ITEM(''));
#394=DEFINITIONAL_REPRESENTATION('',(#393),#187);
#395=PCURVE('',#93,#394);
#396=CARTESIAN_POINT('',(1.00000000000000000E0,5.00000000000000000E-1));
#397=CARTESIAN_POINT('',(1.00000000000000000E0,1.00000000000000000E0));
#398=CARTESIAN_POINT('',(0.00000000000000000E0,1.00000000000000000E0));
#399=(BOUNDED_CURVE()B_SPLINE_CURVE(2,(#396,#397,#398),.UNSPECIFIED.,.F.,.F.)B_SPLINE_CURVE_WITH_KNOTS((3,3),(0.00000000000000000E0,1.00000000000000000E0),.UNSPECIFIED.)CURVE()GEOMETRIC_REPRESENTATION_ITEM()RATIONAL_B_SPLINE_CURVE((1.00000000000000000E0,7.07106781186547573E-1,1.00000000000000000E0))REPRESENTATION_ITEM(''));
#400=DEFINITIONAL_REPRESENTATION('',(#399),#187);
#401=PCURVE('',#98,#400);
#402=CARTESIAN_POINT('',(0.00000000000000000E0,1.00000000000000000E0));
#403=CARTESIAN_POINT('',(-1.00000000000000000E0,1.00000000000000000E0));
#404=CARTESIAN_POINT('',(-1.00000000000000000E0,5.00000000000000000E-1));
#405=(BOUNDED_CURVE()B_SPLINE_CURVE(2,(#402,#403,#404),.UNSPECIFIED.,.F.,.F.)B_SPLINE_CURVE_WITH_KNOTS((3,3),(0.00000000000000000E0,1.00000000000000000E0),.UNSPECIFIED.)CURVE()GEOMETRIC_REPRESENTATION_ITEM()RATIONAL_B_SPLINE_CURVE((1.00000000000000000E0,7.07106781186547573E-1,1.00000000000000000E0))REPRESENTATION_ITEM(''));
#406=DEFINITIONAL_REPRESENTATION('',(#405),#187);
#407=PCURVE('',#98,#406);
#408=CARTESIAN_POINT('',(-1.00000000000000000E0,5.00000000000000000E-1));
#409=CARTESIAN_POINT('',(-1.00000000000000000E0,0.00000000000000000E0));
#410=CARTESIAN_POINT('',(0.00000000000000000E0,0.00000000000000000E0));
#411=(BOUNDED_CURVE()B_SPLINE_CURVE(2,(#408,#409,#410),.UNSPECIFIED.,.F.,.F.)B_SPLINE_CURVE_WITH_KNOTS((3,3),(0.00000000000000000E0,1.00000000000000000E0),.UNSPECIFIED.)CURVE()GEOMETRIC_REPRESENTATION_ITEM()RATIONAL_B_SPLINE_CURVE((1.00000000000000000E0,7.07106781186547573E-1,1.00000000000000000E0))REPRESENTATION_ITEM(''));
#412=DEFINITIONAL_REPRESENTATION('',(#411),#187);
#413=PCURVE('',#98,#412);
#414=CARTESIAN_POINT('',(0.00000000000000000E0,0.00000000000000000E0));
#415=CARTESIAN_POINT('',(1.00000000000000000E0,0.00000000000000000E0));
#416=CARTESIAN_POINT('',(1.00000000000000000E0,5.00000000000000000E-1));
#417=(BOUNDED_CURVE()B_SPLINE_CURVE(2,(#414,#415,#416),.UNSPECIFIED.,.F.,.F.)B_SPLINE_CURVE_WITH_KNOTS((3,3),(0.00000000000000000E0,1.00000000000000000E0),.UNSPECIFIED.)CURVE()GEOMETRIC_REPRESENTATION_ITEM()RATIONAL_B_SPLINE_CURVE((1.00000000000000000E0,7.07106781186547573E-1,1.00000000000000000E0))REPRESENTATION_ITEM(''));
#418=DEFINITIONAL_REPRESENTATION('',(#417),#187);
#419=PCURVE('',#98,#418);
#420=CARTESIAN_POINT('',(4.00000000000000022E-1,5.00000000000000000E-1));
#421=CARTESIAN_POINT('',(4.00000000000000022E-1,2.99999999999999989E-1));
#422=CARTESIAN_POINT('',(0.00000000000000000E0,2.99999999999999989E-1));
#423=(BOUNDED_CURVE()B_SPLINE_CURVE(2,(#420,#421,#422),.UNSPECIFIED.,.F.,.F.)B_SPLINE_CURVE_WITH_KNOTS((3,3),(0.00000000000000000E0,1.00000000000000000E0),.UNSPECIFIED.)CURVE()GEOMETRIC_REPRESENTATION_ITEM()RATIONAL_B_SPLINE_CURVE((1.00000000000000000E0,7.07106781186547573E-1,1.00000000000000000E0))REPRESENTATION_ITEM(''));
#424=DEFINITIONAL_REPRESENTATION('',(#423),#187);
#425=PCURVE('',#98,#424);
#426=CARTESIAN_POINT('',(0.00000000000000000E0,2.99999999999999989E-1));
#427=CARTESIAN_POINT('',(-4.00000000000000022E-1,2.99999999999999989E-1));
#428=CARTESIAN_POINT('',(-4.00000000000000022E-1,5.00000000000000000E-1));
#429=(BOUNDED_CURVE()B_SPLINE_CURVE(2,(#426,#427,#428),.UNSPECIFIED.,.F.,.F.)B_SPLINE_CURVE_WITH_KNOTS((3,3),(0.00000000000000000E0,1.00000000000000000E0),.UNSPECIFIED.)CURVE()GEOMETRIC_REPRESENTATION_ITEM()RATIONAL_B_SPLINE_CURVE((1.00000000000000000E0,7.07106781186547573E-1,1.00000000000000000E0))REPRESENTATION_ITEM(''));
#430=DEFINITIONAL_REPRESENTATION('',(#429),#187);
#431=PCURVE('',#98,#430);
#432=CARTESIAN_POINT('',(-4.00000000000000022E-1,5.00000000000000000E-1));
#433=CARTESIAN_POINT('',(-4.00000000000000022E-1,6.99999999999999956E-1));
#434=CARTESIAN_POINT('',(0.00000000000000000E0,6.99999999999999956E-1));
#435=(BOUNDED_CURVE()B_SPLINE_CURVE(2,(#432,#433,#434),.UNSPECIFIED.,.F.,.F.)B_SPLINE_CURVE_WITH_KNOTS((3,3),(0.00000000000000000E0,1.00000000000000000E0),.UNSPECIFIED.)CURVE()GEOMETRIC_REPRESENTATION_ITEM()RATIONAL_B_SPLINE_CURVE((1.00000000000000000E0,7.07106781186547573E-1,1.00000000000000000E0))REPRESENTATION_ITEM(''));
#436=DEFINITIONAL_REPRESENTATION('',(#435),#187);
#437=PCURVE('',#98,#436);
#438=CARTESIAN_POINT('',(0.00000000000000000E0,6.99999999999999956E-1));
#439=CARTESIAN_POINT('',(4.00000000000000022E-1,6.99999999999999956E-1));
#440=CARTESIAN_POINT('',(4.00000000000000022E-1,5.00000000000000000E-1));
#441=(BOUNDED_CURVE()B_SPLINE_CURVE(2,(#438,#439,#440),.UNSPECIFIED.,.F.,.F.)B_SPLINE_CURVE_WITH_KNOTS((3,3),(0.00000000000000000E0,1.00000000000000000E0),.UNSPECIFIED.)CURVE()GEOMETRIC_REPRESENTATION_ITEM()RATIONAL_B_SPLINE_CURVE((1.00000000000000000E0,7.07106781186547573E-1,1.00000000000000000E0))REPRESENTATION_ITEM(''));
#442=DEFINITIONAL_REPRESENTATION('',(#441),#187);
#443=PCURVE('',#98,#442);
#444=SURFACE_CURVE('',#102,(#192,#371),.PCURVE_S1.);
#445=EDGE_CURVE('OSCAD_TOPO/3|edge|e:893b55f65ce990acf4c0db3bae09645d|eb97b6463a78d6c76a4ecfba9c5c4d578b6faca4c45fad0374ad01dc615bff56',#2,#4,#444,.T.);
#446=SURFACE_CURVE('',#105,(#197,#227),.PCURVE_S1.);
#447=EDGE_CURVE('OSCAD_TOPO/3|edge|e:0914aba121c75b2c307c8646b9f9ab91|52c979451e4888f0cc8d00f708f79ad673c3ddd5d6e278192a6034a60dc4645f',#4,#20,#446,.T.);
#448=SURFACE_CURVE('',#109,(#202,#401),.PCURVE_S1.);
#449=EDGE_CURVE('OSCAD_TOPO/3|edge|e:cc0edaff7785984f969109891986c916|876a2531d48cc2b80acdaa44fb7458dd21ba6d032415d44765553e0f8d56b00d',#18,#20,#448,.T.);
#450=SURFACE_CURVE('',#112,(#207,#257),.PCURVE_S1.);
#451=EDGE_CURVE('OSCAD_TOPO/3|edge|e:208be793f11a29bbcd35c99f5a987af5|1db3e375ba405e40ab27d12859f3204bdd17193e2fca1165bc5b6aade0d40fcb',#2,#18,#450,.T.);
#452=SURFACE_CURVE('',#116,(#212,#365),.PCURVE_S1.);
#453=EDGE_CURVE('OSCAD_TOPO/3|edge|e:7a9facc7b356b6bcba60eb5fac1caa53|eeb2ef50a3f01bded87645b505da9c7be3faee4926bc86e1bcb78631f1e404ee',#4,#6,#452,.T.);
#454=SURFACE_CURVE('',#119,(#217,#247),.PCURVE_S1.);
#455=EDGE_CURVE('OSCAD_TOPO/3|edge|e:229366fd292295b22376479dfb0435b8|76a2b99e68247fee9aa5723fecc6880b03fe5d493880455578cd6cea912925b8',#6,#22,#454,.T.);
#456=SURFACE_CURVE('',#123,(#222,#407),.PCURVE_S1.);
#457=EDGE_CURVE('OSCAD_TOPO/3|edge|e:8c7f77c9afcbe8b037dc9ad181f24080|2376d430d7d79b793ee9889c06aa073409e704f29f98754bdbbd2266f43140c3',#20,#22,#456,.T.);
#458=SURFACE_CURVE('',#127,(#232,#359),.PCURVE_S1.);
#459=EDGE_CURVE('OSCAD_TOPO/3|edge|e:6e44a731072bb10ebf9b78a3e2ea1bb4|5117f85e33dc13416925bc0f143a03359a0bbd180a5b4e863183b190e6fef96b',#6,#8,#458,.T.);
#460=SURFACE_CURVE('',#130,(#237,#267),.PCURVE_S1.);
#461=EDGE_CURVE('OSCAD_TOPO/3|edge|e:e0741b855edd79f1ca855d8960e2822c|1cb39acba570156ad99df6116d7ab00ef85a02bcfe04853c469e3df239603f3e',#8,#24,#460,.T.);
#462=SURFACE_CURVE('',#134,(#242,#413),.PCURVE_S1.);
#463=EDGE_CURVE('OSCAD_TOPO/3|edge|e:dd080e54b271e50cc85f9996f105af0e|699b044e9d620eb3b853a19400731dcc3507e1db4f337be60db593d84e6f7004',#22,#24,#462,.T.);
#464=SURFACE_CURVE('',#138,(#252,#353),.PCURVE_S1.);
#465=EDGE_CURVE('OSCAD_TOPO/3|edge|e:409dbb31ab0410038acf2267a78fc141|07946343eaffcefb6424dbc455c03da5cdf53210f23f16450886ed8547a4b47b',#2,#8,#464,.T.);
#466=SURFACE_CURVE('',#142,(#262,#419),.PCURVE_S1.);
#467=EDGE_CURVE('OSCAD_TOPO/3|edge|e:b004e0fb1a6852df106bede2f66d8fde|c410da818e4445e4506d4b0aedd34e420a13c973790106cc83aa826fb9b7b8c3',#18,#24,#466,.T.);
#468=SURFACE_CURVE('',#146,(#272,#395),.PCURVE_S1.);
#469=EDGE_CURVE('OSCAD_TOPO/3|edge|e:565730c98485bdccad37e1096dc51712|d1fdbbe8a21067fc3537276c3bd84a25b7f6331bd4d9c951a2b14a537fc3c04c',#10,#12,#468,.T.);
#470=SURFACE_CURVE('',#149,(#277,#307),.PCURVE_S1.);
#471=EDGE_CURVE('OSCAD_TOPO/3|edge|e:9949ef82156c54e7f59fcba80823ad13|598c4cccafb93afa94c8beaaab6f5700556a7f0c630316df67ab8143f8d82c83',#12,#28,#470,.T.);
#472=SURFACE_CURVE('',#153,(#282,#425),.PCURVE_S1.);
#473=EDGE_CURVE('OSCAD_TOPO/3|edge|e:ced3629521dbcb656ddd36706c00b569|180739f2b0a697b177d16aa12d4e658390beae152ba9e66663842868053a5bd9',#26,#28,#472,.T.);
#474=SURFACE_CURVE('',#156,(#287,#337),.PCURVE_S1.);
#475=EDGE_CURVE('OSCAD_TOPO/3|edge|e:419bbc7de7d7e1f5142ff39cb894185d|310949a4ad145800aa6a73fe3e8f4b2309d13985363d237568d63f329b3fe459',#10,#26,#474,.T.);
#476=SURFACE_CURVE('',#160,(#292,#389),.PCURVE_S1.);
#477=EDGE_CURVE('OSCAD_TOPO/3|edge|e:1579bcd4d825faf9fff7a9046f4c95a8|c731b5d9a7993c8cc912bf1b63ac8acc431bde5302f5c5a06d5d055e7167c372',#12,#14,#476,.T.);
#478=SURFACE_CURVE('',#163,(#297,#327),.PCURVE_S1.);
#479=EDGE_CURVE('OSCAD_TOPO/3|edge|e:f1549c048e6caf3bfbfcc77906040814|1ed246e618c8548477ce726f5c0084befd1c762d2a09f36b41cb74792a833cd1',#14,#30,#478,.T.);
#480=SURFACE_CURVE('',#167,(#302,#431),.PCURVE_S1.);
#481=EDGE_CURVE('OSCAD_TOPO/3|edge|e:a9c7ef0d4980eb133980a73adb25ff1f|da31bb343189bf909395d8bd39f87a8e1a94690d7fd7a83560d34801a2582b20',#28,#30,#480,.T.);
#482=SURFACE_CURVE('',#171,(#312,#383),.PCURVE_S1.);
#483=EDGE_CURVE('OSCAD_TOPO/3|edge|e:d3d836a0aeae8a8cf5392fcb54c28393|d34bbf71b26744c761ab8107263815aff4676f18e68b16e34cb55ee84155dc70',#14,#16,#482,.T.);
#484=SURFACE_CURVE('',#174,(#317,#347),.PCURVE_S1.);
#485=EDGE_CURVE('OSCAD_TOPO/3|edge|e:7b6dcf780f2eb06bb68087c78c5643ca|1e12c606b5eb969862a940962bde969dbfa41b24072c70823ed9a7563d245a2b',#16,#32,#484,.T.);
#486=SURFACE_CURVE('',#178,(#322,#437),.PCURVE_S1.);
#487=EDGE_CURVE('OSCAD_TOPO/3|edge|e:37a22f144f8c2e427d5b83c5c5223327|7b8e71bd491782b143276ff3eed8a6dfb7eb6033498d53b1e31130cf1bf4f6a2',#30,#32,#486,.T.);
#488=SURFACE_CURVE('',#182,(#332,#377),.PCURVE_S1.);
#489=EDGE_CURVE('OSCAD_TOPO/3|edge|e:108db680d68193b55abc98f3acb8c083|5004b50d36df6f402de0e432da4474f76de6fd138bf2ab0b1fe94f149c938402',#10,#16,#488,.T.);
#490=SURFACE_CURVE('',#186,(#342,#443),.PCURVE_S1.);
#491=EDGE_CURVE('OSCAD_TOPO/3|edge|e:7274368422cab2a6e7a17fb94d0743bd|ab56596cfc698a7c26eea05d9155f485d8580f35ea197c356e39a2b01792b9d2',#26,#32,#490,.T.);
#492=ORIENTED_EDGE('',*,*,#445,.T.);
#493=ORIENTED_EDGE('',*,*,#447,.T.);
#494=ORIENTED_EDGE('',*,*,#449,.F.);
#495=ORIENTED_EDGE('',*,*,#451,.F.);
#496=EDGE_LOOP('OSCAD_TOPO/3|loop|l:e9eae0e3daed4eed88bd74685c3eb7d0|8941c30b4f82fbde98255bf0e315636d26e329976e562c7e469aa51b722c10ca',(#492,#493,#494,#495));
#497=ORIENTED_EDGE('',*,*,#453,.T.);
#498=ORIENTED_EDGE('',*,*,#455,.T.);
#499=ORIENTED_EDGE('',*,*,#457,.F.);
#500=ORIENTED_EDGE('',*,*,#447,.F.);
#501=EDGE_LOOP('OSCAD_TOPO/3|loop|l:0f99a04a919941ae838c16a36f29a493|31c71e2238a8da4ccedc72861e245987cfef783e750f94c76abeddbd8d8c2180',(#497,#498,#499,#500));
#502=ORIENTED_EDGE('',*,*,#459,.T.);
#503=ORIENTED_EDGE('',*,*,#461,.T.);
#504=ORIENTED_EDGE('',*,*,#463,.F.);
#505=ORIENTED_EDGE('',*,*,#455,.F.);
#506=EDGE_LOOP('OSCAD_TOPO/3|loop|l:5f089e8804cf5b79a87906fa0a3f9e39|0d890a383afd99c314c930d31e103b56a4df2b47dfa38d3498795bbabd62543f',(#502,#503,#504,#505));
#507=ORIENTED_EDGE('',*,*,#465,.F.);
#508=ORIENTED_EDGE('',*,*,#451,.T.);
#509=ORIENTED_EDGE('',*,*,#467,.T.);
#510=ORIENTED_EDGE('',*,*,#461,.F.);
#511=EDGE_LOOP('OSCAD_TOPO/3|loop|l:ceb41e1886e04e90e9be43e40560ee24|08e473d0e1998ebb3683a149ab06d307c831414dcbb17c1c102f3a1c8c7a8009',(#507,#508,#509,#510));
#512=ORIENTED_EDGE('',*,*,#469,.T.);
#513=ORIENTED_EDGE('',*,*,#471,.T.);
#514=ORIENTED_EDGE('',*,*,#473,.F.);
#515=ORIENTED_EDGE('',*,*,#475,.F.);
#516=EDGE_LOOP('OSCAD_TOPO/3|loop|l:7e179d039171da63c2f0c87a2c86e293|c34915b4e52ae2d68f7b4063906e6f070a11a9401a338db75805414170c325e9',(#512,#513,#514,#515));
#517=ORIENTED_EDGE('',*,*,#477,.T.);
#518=ORIENTED_EDGE('',*,*,#479,.T.);
#519=ORIENTED_EDGE('',*,*,#481,.F.);
#520=ORIENTED_EDGE('',*,*,#471,.F.);
#521=EDGE_LOOP('OSCAD_TOPO/3|loop|l:119ab2d2202e39a0e4070e7c159eac55|44668e8e27216884a6ca2515bc1ba9ffb34ece300f30f53567d475299a74bc07',(#517,#518,#519,#520));
#522=ORIENTED_EDGE('',*,*,#483,.T.);
#523=ORIENTED_EDGE('',*,*,#485,.T.);
#524=ORIENTED_EDGE('',*,*,#487,.F.);
#525=ORIENTED_EDGE('',*,*,#479,.F.);
#526=EDGE_LOOP('OSCAD_TOPO/3|loop|l:34856698d736754ff716c67c5901f18b|d49c12ad8f26903f421a5f4d0107ca5c22e007c2e0ab307d48201bff3aacac27',(#522,#523,#524,#525));
#527=ORIENTED_EDGE('',*,*,#489,.F.);
#528=ORIENTED_EDGE('',*,*,#475,.T.);
#529=ORIENTED_EDGE('',*,*,#491,.T.);
#530=ORIENTED_EDGE('',*,*,#485,.F.);
#531=EDGE_LOOP('OSCAD_TOPO/3|loop|l:22a3ad0bb355c2876d309d1509b7ae4b|fe780643f77b0cf0e165bd3208e307217f3c5b06f7e35b66fa074ad854f9f90e',(#527,#528,#529,#530));
#532=ORIENTED_EDGE('',*,*,#465,.T.);
#533=ORIENTED_EDGE('',*,*,#459,.F.);
#534=ORIENTED_EDGE('',*,*,#453,.F.);
#535=ORIENTED_EDGE('',*,*,#445,.F.);
#536=EDGE_LOOP('OSCAD_TOPO/3|loop|l:4e612cccf3cda2f30997cd2a129a0176|fef032bc4ff65f7b89da1b918b8103bb33ceac117d1f03df0477e4340f239a86',(#532,#533,#534,#535));
#537=ORIENTED_EDGE('',*,*,#489,.T.);
#538=ORIENTED_EDGE('',*,*,#483,.F.);
#539=ORIENTED_EDGE('',*,*,#477,.F.);
#540=ORIENTED_EDGE('',*,*,#469,.F.);
#541=EDGE_LOOP('OSCAD_TOPO/3|loop|l:e2601701ffa51ed43f46416cb7bdb06e|3ab713475f23b11e1844b652f863b71b75917442137e5ca0d57a5ab085419bbe',(#537,#538,#539,#540));
#542=ORIENTED_EDGE('',*,*,#449,.T.);
#543=ORIENTED_EDGE('',*,*,#457,.T.);
#544=ORIENTED_EDGE('',*,*,#463,.T.);
#545=ORIENTED_EDGE('',*,*,#467,.F.);
#546=EDGE_LOOP('OSCAD_TOPO/3|loop|l:40d77bdf6de474d7fa945773398a393b|0637e82d768774f0fa9b124535d94fde198388d47439256237f73d4580a7ee39',(#542,#543,#544,#545));
#547=ORIENTED_EDGE('',*,*,#473,.T.);
#548=ORIENTED_EDGE('',*,*,#481,.T.);
#549=ORIENTED_EDGE('',*,*,#487,.T.);
#550=ORIENTED_EDGE('',*,*,#491,.F.);
#551=EDGE_LOOP('OSCAD_TOPO/3|loop|l:57d4012c0d16017b8e712c7302fdf050|696197b55f9e1ecb5ca105bfd3d777705e628a071404f8e2b331029432f3b231',(#547,#548,#549,#550));
#552=FACE_OUTER_BOUND('',#496,.T.);
#553=ADVANCED_FACE('OSCAD_TOPO/3|face|f:d581107bfffbc8e24dc6f28b3fa044bf|54923d20823003c17556cb0811633fa6bd13d686ddaa6c8e0fc4162b35f13fff',(#552),#39,.T.);
#554=FACE_OUTER_BOUND('',#501,.T.);
#555=ADVANCED_FACE('OSCAD_TOPO/3|face|f:dd1b7a73a2ebdf27a96711e3d79df713|02a04202c0b14b88afd550023b67c95d133b5415ae2573d3bc2d9d9c2ace02a7',(#554),#46,.T.);
#556=FACE_OUTER_BOUND('',#506,.T.);
#557=ADVANCED_FACE('OSCAD_TOPO/3|face|f:455f8d32f8c3b4306ff844d14cf7d163|eb702fec191e160c870facd7e6ddb6fc886e6c62f7066d396fb7367e5caa1085',(#556),#53,.T.);
#558=FACE_OUTER_BOUND('',#511,.T.);
#559=ADVANCED_FACE('OSCAD_TOPO/3|face|f:128dd2ae4266c453374d203a426ec0b5|e57e5781fe6e673d0ece97fe34bcc1844100facf3ad52bc19a6b55c9be815897',(#558),#60,.T.);
#560=FACE_OUTER_BOUND('',#516,.T.);
#561=ADVANCED_FACE('OSCAD_TOPO/3|face|f:7dc89cb13874dd6b771b4c9896a5d907|170bf1a7b0b5813eb9ed2a4ca9254c712732168aa2bb2704a6d1482bdf2bb952',(#560),#67,.T.);
#562=FACE_OUTER_BOUND('',#521,.T.);
#563=ADVANCED_FACE('OSCAD_TOPO/3|face|f:d89bff348c7f743c9ae806b3fd3430bd|1a7e3f53fa5c2118b6a328aff4efe8c21e570cbf80172c8c20da721daf5aeda0',(#562),#74,.T.);
#564=FACE_OUTER_BOUND('',#526,.T.);
#565=ADVANCED_FACE('OSCAD_TOPO/3|face|f:fac9fef9cc2a5abc7dbc97e8b197e4fa|42e18f5812b2f424eed67718f3c4083ad53e4932d61083599d489f0bb6054f70',(#564),#81,.T.);
#566=FACE_OUTER_BOUND('',#531,.T.);
#567=ADVANCED_FACE('OSCAD_TOPO/3|face|f:1c09fefce17c29487aee4a637e284a3c|5b479db9de182f72aa077dcc471000e551fd6572acc8d1031af6bedb58eeb925',(#566),#88,.T.);
#568=FACE_OUTER_BOUND('',#536,.T.);
#569=FACE_BOUND('',#541,.T.);
#570=ADVANCED_FACE('OSCAD_TOPO/3|face|f:2d11042eefdcf9972c6b6eb8c80cb904|ab7aed731eb66d963a18ab65b4a4b0efe2d15efeadc4c0dc14e895a0afbae367',(#568,#569),#93,.T.);
#571=FACE_OUTER_BOUND('',#546,.T.);
#572=FACE_BOUND('',#551,.T.);
#573=ADVANCED_FACE('OSCAD_TOPO/3|face|f:86c3251a46418caf126eb4b639420d67|b293060516e902e018145685dc4beb405e568758a9f405f47ef764dec898b500',(#571,#572),#98,.T.);
#574=CLOSED_SHELL('OSCAD_TOPO/3|shell|s:a1e87ca5d2c0f9996f566cb3882d0cbf|267582bb2610757592e85bc4c31de659d9375b6590e92da121721fbd098f08a7',(#553,#555,#557,#559,#561,#563,#565,#567,#570,#573));
#575=MANIFOLD_SOLID_BREP('OSCAD_TOPO/3|body|b:1eaffb249782eb71184b89c7c4968a76|efae7ee12c51d70897615cb68819d28dfae82e4d881387104ce07f9de298a693',#574);
#576=(LENGTH_UNIT()NAMED_UNIT(*)SI_UNIT(.MILLI.,.METRE.));
#577=UNCERTAINTY_MEASURE_WITH_UNIT(LENGTH_MEASURE(9.99999999999999955E-8),#576,'distance_accuracy_value','');
#578=(GEOMETRIC_REPRESENTATION_CONTEXT(3)GLOBAL_UNCERTAINTY_ASSIGNED_CONTEXT((#577))GLOBAL_UNIT_ASSIGNED_CONTEXT((#576))REPRESENTATION_CONTEXT('','3D'));
#579=ADVANCED_BREP_SHAPE_REPRESENTATION('',(#575),#578);
#580=APPLICATION_CONTEXT('managed model based 3d engineering');
#581=PRODUCT_CONTEXT('',#580,'mechanical');
#582=PRODUCT('model','model','',(#581));
#583=PRODUCT_DEFINITION_FORMATION('1','',#582);
#584=PRODUCT_DEFINITION_CONTEXT('part definition',#580,'design');
#585=PRODUCT_DEFINITION('design','',#583,#584);
#586=PRODUCT_DEFINITION_SHAPE('','',#585);
#587=SHAPE_DEFINITION_REPRESENTATION(#586,#579);
ENDSEC;
END-ISO-10303-21;
