ISO-10303-21;
HEADER;
FILE_DESCRIPTION(('OpenSCAD Viewer retained AP242 B-rep'),'2;1');
FILE_NAME('model.step','',(''),(''),'OpenSCAD Viewer','OpenSCAD Viewer','');
FILE_SCHEMA(('AP242_MANAGED_MODEL_BASED_3D_ENGINEERING_MIM_LF'));
ENDSEC;
DATA;
#1=CARTESIAN_POINT('',(2.00000000000000000E1,0.00000000000000000E0,0.00000000000000000E0));
#2=VERTEX_POINT('OSCAD_TOPO/3|vertex|v:eeafa1f193a00e53c2ad070631add22a|2f57866bfcf1365e4ee0c0c7b006e7d171e9cf8ecb8e6dcbbbe94f72a62d4823',#1);
#3=CARTESIAN_POINT('',(0.00000000000000000E0,2.00000000000000000E1,0.00000000000000000E0));
#4=VERTEX_POINT('OSCAD_TOPO/3|vertex|v:3d9774850fd962e522513344b828956e|d555225819ec426e319e1bbea33fca8648c37dadb3f764733e3f7e4db4e4465e',#3);
#5=CARTESIAN_POINT('',(0.00000000000000000E0,2.00000000000000000E1,8.00000000000000000E0));
#6=VERTEX_POINT('OSCAD_TOPO/3|vertex|v:6195d3d712c106b1a01b0b96a37e91dc|9f8a1829f9d4f6014b9f6d12ebdca3f1e28c425e0656409a8a43c7071dc34ea8',#5);
#7=CARTESIAN_POINT('',(2.00000000000000000E1,0.00000000000000000E0,8.00000000000000000E0));
#8=VERTEX_POINT('OSCAD_TOPO/3|vertex|v:399ec685e9588b854361386f3cbefd63|8ab4158a42d2c3cc16cf649cab47ea39d50d6c1a5b94152ee70cf2bf1638d158',#7);
#9=CARTESIAN_POINT('',(-2.00000000000000000E1,0.00000000000000000E0,0.00000000000000000E0));
#10=VERTEX_POINT('OSCAD_TOPO/3|vertex|v:8a63d87e0063351fc3a877852e3c4190|efe4d388619020bc70316871f1ccf610b0eec5383cc7ea53bcb3087502999d03',#9);
#11=CARTESIAN_POINT('',(-2.00000000000000000E1,0.00000000000000000E0,8.00000000000000000E0));
#12=VERTEX_POINT('OSCAD_TOPO/3|vertex|v:057db3ccff8cc2164707374af49b5da2|8481efa2931fbacf3c691550f22717306ec177506301b4b9433f92f15976d68d',#11);
#13=CARTESIAN_POINT('',(0.00000000000000000E0,-2.00000000000000000E1,0.00000000000000000E0));
#14=VERTEX_POINT('OSCAD_TOPO/3|vertex|v:2e93c68df56bb8872ea1c7f49a6295d0|137be0bdca1201c4865f995fa30858398cd44d03ef9d3c7ea89c2889a619c120',#13);
#15=CARTESIAN_POINT('',(0.00000000000000000E0,-2.00000000000000000E1,8.00000000000000000E0));
#16=VERTEX_POINT('OSCAD_TOPO/3|vertex|v:175482d0b3061a11854003f24d7e1afd|b67dd2360a555b951478d5c10b00f6189435e6c43a1585b637f045c2bcfa153b',#15);
#17=CARTESIAN_POINT('',(5.00000000000000000E0,0.00000000000000000E0,0.00000000000000000E0));
#18=VERTEX_POINT('OSCAD_TOPO/3|vertex|v:ca0e371c0e65f05b5b78b9b603713aeb|4172a2f068046afc72ac3e751c4450c5c4a1bdf6a599d0c8bf438537a483418a',#17);
#19=CARTESIAN_POINT('',(0.00000000000000000E0,-5.00000000000000000E0,0.00000000000000000E0));
#20=VERTEX_POINT('OSCAD_TOPO/3|vertex|v:66354ba7ccd501c81a60daf738ea5514|e647d3a2117c85a5d9755975f2710bca43a3786e142f05e7b1540bbf5f781de4',#19);
#21=CARTESIAN_POINT('',(0.00000000000000000E0,-5.00000000000000000E0,8.00000000000000000E0));
#22=VERTEX_POINT('OSCAD_TOPO/3|vertex|v:7e1d8de6d9cf64d8d5071001ae84278d|f579bb9a6b33d215c51fe7afca80ac38115a90be6e96f98a513d579dd0065dc0',#21);
#23=CARTESIAN_POINT('',(5.00000000000000000E0,0.00000000000000000E0,8.00000000000000000E0));
#24=VERTEX_POINT('OSCAD_TOPO/3|vertex|v:8f4abd2578920e9ed2d764a9d2c1f168|b3d105f676825d29fa00092a359a66a414e5e68c015524e5840b558a382b7543',#23);
#25=CARTESIAN_POINT('',(-5.00000000000000000E0,0.00000000000000000E0,0.00000000000000000E0));
#26=VERTEX_POINT('OSCAD_TOPO/3|vertex|v:1fc9e0968879ec46488bdee4304e51d6|fd3c8f3c1420774493df7905c05a787915c3bf03cdd9490ed021f657d79576d3',#25);
#27=CARTESIAN_POINT('',(-5.00000000000000000E0,0.00000000000000000E0,8.00000000000000000E0));
#28=VERTEX_POINT('OSCAD_TOPO/3|vertex|v:8dd459b4d72c90252f396d0734f483e1|7b31100afee8a6a08929a7e3097c0e4128a04d3ccc89a29b864e7c1a0fb4575f',#27);
#29=CARTESIAN_POINT('',(0.00000000000000000E0,5.00000000000000000E0,0.00000000000000000E0));
#30=VERTEX_POINT('OSCAD_TOPO/3|vertex|v:52a7adc63afa2c0e5f005639cb9e2d10|51281efd40942a5e074bebb1dda24105797e2c87a468cfdbc9892c14012dce42',#29);
#31=CARTESIAN_POINT('',(0.00000000000000000E0,5.00000000000000000E0,8.00000000000000000E0));
#32=VERTEX_POINT('OSCAD_TOPO/3|vertex|v:40d344c2d1a2763229c274700012f4e0|0cba10a7be9ee73be5087816d5b7dd4647c8b85764993a6d87f730f2e5b5b77d',#31);
#33=CARTESIAN_POINT('',(2.00000000000000000E1,0.00000000000000000E0,0.00000000000000000E0));
#34=CARTESIAN_POINT('',(2.00000000000000000E1,0.00000000000000000E0,8.00000000000000000E0));
#35=CARTESIAN_POINT('',(2.00000000000000000E1,2.00000000000000000E1,0.00000000000000000E0));
#36=CARTESIAN_POINT('',(2.00000000000000000E1,2.00000000000000000E1,8.00000000000000000E0));
#37=CARTESIAN_POINT('',(0.00000000000000000E0,2.00000000000000000E1,0.00000000000000000E0));
#38=CARTESIAN_POINT('',(0.00000000000000000E0,2.00000000000000000E1,8.00000000000000000E0));
#39=CARTESIAN_POINT('',(-2.00000000000000000E1,2.00000000000000000E1,0.00000000000000000E0));
#40=CARTESIAN_POINT('',(-2.00000000000000000E1,2.00000000000000000E1,8.00000000000000000E0));
#41=CARTESIAN_POINT('',(-2.00000000000000000E1,0.00000000000000000E0,0.00000000000000000E0));
#42=CARTESIAN_POINT('',(-2.00000000000000000E1,0.00000000000000000E0,8.00000000000000000E0));
#43=CARTESIAN_POINT('',(-2.00000000000000000E1,-2.00000000000000000E1,0.00000000000000000E0));
#44=CARTESIAN_POINT('',(-2.00000000000000000E1,-2.00000000000000000E1,8.00000000000000000E0));
#45=CARTESIAN_POINT('',(0.00000000000000000E0,-2.00000000000000000E1,0.00000000000000000E0));
#46=CARTESIAN_POINT('',(0.00000000000000000E0,-2.00000000000000000E1,8.00000000000000000E0));
#47=CARTESIAN_POINT('',(2.00000000000000000E1,-2.00000000000000000E1,0.00000000000000000E0));
#48=CARTESIAN_POINT('',(2.00000000000000000E1,-2.00000000000000000E1,8.00000000000000000E0));
#49=CARTESIAN_POINT('',(2.00000000000000000E1,0.00000000000000000E0,0.00000000000000000E0));
#50=CARTESIAN_POINT('',(2.00000000000000000E1,0.00000000000000000E0,8.00000000000000000E0));
#51=(BOUNDED_SURFACE()B_SPLINE_SURFACE(2,1,((#33,#34),(#35,#36),(#37,#38),(#39,#40),(#41,#42),(#43,#44),(#45,#46),(#47,#48),(#49,#50)),.UNSPECIFIED.,.F.,.F.,.F.)B_SPLINE_SURFACE_WITH_KNOTS((3,2,2,2,3),(2,2),(0.00000000000000000E0,1.00000000000000000E0,2.00000000000000000E0,3.00000000000000000E0,4.00000000000000000E0),(0.00000000000000000E0,1.00000000000000000E0),.UNSPECIFIED.)GEOMETRIC_REPRESENTATION_ITEM()RATIONAL_B_SPLINE_SURFACE(((1.00000000000000000E0,1.00000000000000000E0),(7.07106781186547573E-1,7.07106781186547573E-1),(1.00000000000000000E0,1.00000000000000000E0),(7.07106781186547573E-1,7.07106781186547573E-1),(1.00000000000000000E0,1.00000000000000000E0),(7.07106781186547573E-1,7.07106781186547573E-1),(1.00000000000000000E0,1.00000000000000000E0),(7.07106781186547573E-1,7.07106781186547573E-1),(1.00000000000000000E0,1.00000000000000000E0)))REPRESENTATION_ITEM('')SURFACE());
#52=CARTESIAN_POINT('',(5.00000000000000000E0,0.00000000000000000E0,0.00000000000000000E0));
#53=CARTESIAN_POINT('',(5.00000000000000000E0,0.00000000000000000E0,8.00000000000000000E0));
#54=CARTESIAN_POINT('',(5.00000000000000000E0,-5.00000000000000000E0,0.00000000000000000E0));
#55=CARTESIAN_POINT('',(5.00000000000000000E0,-5.00000000000000000E0,8.00000000000000000E0));
#56=CARTESIAN_POINT('',(0.00000000000000000E0,-5.00000000000000000E0,0.00000000000000000E0));
#57=CARTESIAN_POINT('',(0.00000000000000000E0,-5.00000000000000000E0,8.00000000000000000E0));
#58=(BOUNDED_SURFACE()B_SPLINE_SURFACE(2,1,((#52,#53),(#54,#55),(#56,#57)),.UNSPECIFIED.,.F.,.F.,.F.)B_SPLINE_SURFACE_WITH_KNOTS((3,3),(2,2),(0.00000000000000000E0,1.00000000000000000E0),(0.00000000000000000E0,1.00000000000000000E0),.UNSPECIFIED.)GEOMETRIC_REPRESENTATION_ITEM()RATIONAL_B_SPLINE_SURFACE(((1.00000000000000000E0,1.00000000000000000E0),(7.07106781186547573E-1,7.07106781186547573E-1),(1.00000000000000000E0,1.00000000000000000E0)))REPRESENTATION_ITEM('')SURFACE());
#59=CARTESIAN_POINT('',(0.00000000000000000E0,-5.00000000000000000E0,0.00000000000000000E0));
#60=CARTESIAN_POINT('',(0.00000000000000000E0,-5.00000000000000000E0,8.00000000000000000E0));
#61=CARTESIAN_POINT('',(-5.00000000000000000E0,-5.00000000000000000E0,0.00000000000000000E0));
#62=CARTESIAN_POINT('',(-5.00000000000000000E0,-5.00000000000000000E0,8.00000000000000000E0));
#63=CARTESIAN_POINT('',(-5.00000000000000000E0,0.00000000000000000E0,0.00000000000000000E0));
#64=CARTESIAN_POINT('',(-5.00000000000000000E0,0.00000000000000000E0,8.00000000000000000E0));
#65=(BOUNDED_SURFACE()B_SPLINE_SURFACE(2,1,((#59,#60),(#61,#62),(#63,#64)),.UNSPECIFIED.,.F.,.F.,.F.)B_SPLINE_SURFACE_WITH_KNOTS((3,3),(2,2),(0.00000000000000000E0,1.00000000000000000E0),(0.00000000000000000E0,1.00000000000000000E0),.UNSPECIFIED.)GEOMETRIC_REPRESENTATION_ITEM()RATIONAL_B_SPLINE_SURFACE(((1.00000000000000000E0,1.00000000000000000E0),(7.07106781186547573E-1,7.07106781186547573E-1),(1.00000000000000000E0,1.00000000000000000E0)))REPRESENTATION_ITEM('')SURFACE());
#66=CARTESIAN_POINT('',(-5.00000000000000000E0,0.00000000000000000E0,0.00000000000000000E0));
#67=CARTESIAN_POINT('',(-5.00000000000000000E0,0.00000000000000000E0,8.00000000000000000E0));
#68=CARTESIAN_POINT('',(-5.00000000000000000E0,5.00000000000000000E0,0.00000000000000000E0));
#69=CARTESIAN_POINT('',(-5.00000000000000000E0,5.00000000000000000E0,8.00000000000000000E0));
#70=CARTESIAN_POINT('',(0.00000000000000000E0,5.00000000000000000E0,0.00000000000000000E0));
#71=CARTESIAN_POINT('',(0.00000000000000000E0,5.00000000000000000E0,8.00000000000000000E0));
#72=(BOUNDED_SURFACE()B_SPLINE_SURFACE(2,1,((#66,#67),(#68,#69),(#70,#71)),.UNSPECIFIED.,.F.,.F.,.F.)B_SPLINE_SURFACE_WITH_KNOTS((3,3),(2,2),(0.00000000000000000E0,1.00000000000000000E0),(0.00000000000000000E0,1.00000000000000000E0),.UNSPECIFIED.)GEOMETRIC_REPRESENTATION_ITEM()RATIONAL_B_SPLINE_SURFACE(((1.00000000000000000E0,1.00000000000000000E0),(7.07106781186547573E-1,7.07106781186547573E-1),(1.00000000000000000E0,1.00000000000000000E0)))REPRESENTATION_ITEM('')SURFACE());
#73=CARTESIAN_POINT('',(0.00000000000000000E0,5.00000000000000000E0,0.00000000000000000E0));
#74=CARTESIAN_POINT('',(0.00000000000000000E0,5.00000000000000000E0,8.00000000000000000E0));
#75=CARTESIAN_POINT('',(5.00000000000000000E0,5.00000000000000000E0,0.00000000000000000E0));
#76=CARTESIAN_POINT('',(5.00000000000000000E0,5.00000000000000000E0,8.00000000000000000E0));
#77=CARTESIAN_POINT('',(5.00000000000000000E0,0.00000000000000000E0,0.00000000000000000E0));
#78=CARTESIAN_POINT('',(5.00000000000000000E0,0.00000000000000000E0,8.00000000000000000E0));
#79=(BOUNDED_SURFACE()B_SPLINE_SURFACE(2,1,((#73,#74),(#75,#76),(#77,#78)),.UNSPECIFIED.,.F.,.F.,.F.)B_SPLINE_SURFACE_WITH_KNOTS((3,3),(2,2),(0.00000000000000000E0,1.00000000000000000E0),(0.00000000000000000E0,1.00000000000000000E0),.UNSPECIFIED.)GEOMETRIC_REPRESENTATION_ITEM()RATIONAL_B_SPLINE_SURFACE(((1.00000000000000000E0,1.00000000000000000E0),(7.07106781186547573E-1,7.07106781186547573E-1),(1.00000000000000000E0,1.00000000000000000E0)))REPRESENTATION_ITEM('')SURFACE());
#80=CARTESIAN_POINT('',(2.00000000000000000E1,-2.00000000000000000E1,0.00000000000000000E0));
#81=CARTESIAN_POINT('',(2.00000000000000000E1,2.00000000000000000E1,0.00000000000000000E0));
#82=CARTESIAN_POINT('',(-2.00000000000000000E1,-2.00000000000000000E1,0.00000000000000000E0));
#83=CARTESIAN_POINT('',(-2.00000000000000000E1,2.00000000000000000E1,0.00000000000000000E0));
#84=B_SPLINE_SURFACE_WITH_KNOTS('',1,1,((#80,#81),(#82,#83)),.UNSPECIFIED.,.F.,.F.,.F.,(2,2),(2,2),(0.00000000000000000E0,1.00000000000000000E0),(0.00000000000000000E0,1.00000000000000000E0),.UNSPECIFIED.);
#85=CARTESIAN_POINT('',(-2.00000000000000000E1,-2.00000000000000000E1,8.00000000000000000E0));
#86=CARTESIAN_POINT('',(-2.00000000000000000E1,2.00000000000000000E1,8.00000000000000000E0));
#87=CARTESIAN_POINT('',(2.00000000000000000E1,-2.00000000000000000E1,8.00000000000000000E0));
#88=CARTESIAN_POINT('',(2.00000000000000000E1,2.00000000000000000E1,8.00000000000000000E0));
#89=B_SPLINE_SURFACE_WITH_KNOTS('',1,1,((#85,#86),(#87,#88)),.UNSPECIFIED.,.F.,.F.,.F.,(2,2),(2,2),(0.00000000000000000E0,1.00000000000000000E0),(0.00000000000000000E0,1.00000000000000000E0),.UNSPECIFIED.);
#90=CARTESIAN_POINT('',(2.00000000000000000E1,0.00000000000000000E0,0.00000000000000000E0));
#91=CARTESIAN_POINT('',(2.00000000000000000E1,2.00000000000000000E1,0.00000000000000000E0));
#92=CARTESIAN_POINT('',(0.00000000000000000E0,2.00000000000000000E1,0.00000000000000000E0));
#93=(BOUNDED_CURVE()B_SPLINE_CURVE(2,(#90,#91,#92),.UNSPECIFIED.,.F.,.F.)B_SPLINE_CURVE_WITH_KNOTS((3,3),(0.00000000000000000E0,1.00000000000000000E0),.UNSPECIFIED.)CURVE()GEOMETRIC_REPRESENTATION_ITEM()RATIONAL_B_SPLINE_CURVE((1.00000000000000000E0,7.07106781186547573E-1,1.00000000000000000E0))REPRESENTATION_ITEM(''));
#94=CARTESIAN_POINT('',(0.00000000000000000E0,2.00000000000000000E1,0.00000000000000000E0));
#95=CARTESIAN_POINT('',(0.00000000000000000E0,2.00000000000000000E1,8.00000000000000000E0));
#96=B_SPLINE_CURVE_WITH_KNOTS('',1,(#94,#95),.UNSPECIFIED.,.F.,.F.,(2,2),(0.00000000000000000E0,1.00000000000000000E0),.UNSPECIFIED.);
#97=CARTESIAN_POINT('',(2.00000000000000000E1,0.00000000000000000E0,8.00000000000000000E0));
#98=CARTESIAN_POINT('',(2.00000000000000000E1,2.00000000000000000E1,8.00000000000000000E0));
#99=CARTESIAN_POINT('',(0.00000000000000000E0,2.00000000000000000E1,8.00000000000000000E0));
#100=(BOUNDED_CURVE()B_SPLINE_CURVE(2,(#97,#98,#99),.UNSPECIFIED.,.F.,.F.)B_SPLINE_CURVE_WITH_KNOTS((3,3),(0.00000000000000000E0,1.00000000000000000E0),.UNSPECIFIED.)CURVE()GEOMETRIC_REPRESENTATION_ITEM()RATIONAL_B_SPLINE_CURVE((1.00000000000000000E0,7.07106781186547573E-1,1.00000000000000000E0))REPRESENTATION_ITEM(''));
#101=CARTESIAN_POINT('',(2.00000000000000000E1,0.00000000000000000E0,0.00000000000000000E0));
#102=CARTESIAN_POINT('',(2.00000000000000000E1,0.00000000000000000E0,8.00000000000000000E0));
#103=B_SPLINE_CURVE_WITH_KNOTS('',1,(#101,#102),.UNSPECIFIED.,.F.,.F.,(2,2),(0.00000000000000000E0,1.00000000000000000E0),.UNSPECIFIED.);
#104=CARTESIAN_POINT('',(0.00000000000000000E0,2.00000000000000000E1,0.00000000000000000E0));
#105=CARTESIAN_POINT('',(-2.00000000000000000E1,2.00000000000000000E1,0.00000000000000000E0));
#106=CARTESIAN_POINT('',(-2.00000000000000000E1,0.00000000000000000E0,0.00000000000000000E0));
#107=(BOUNDED_CURVE()B_SPLINE_CURVE(2,(#104,#105,#106),.UNSPECIFIED.,.F.,.F.)B_SPLINE_CURVE_WITH_KNOTS((3,3),(0.00000000000000000E0,1.00000000000000000E0),.UNSPECIFIED.)CURVE()GEOMETRIC_REPRESENTATION_ITEM()RATIONAL_B_SPLINE_CURVE((1.00000000000000000E0,7.07106781186547573E-1,1.00000000000000000E0))REPRESENTATION_ITEM(''));
#108=CARTESIAN_POINT('',(-2.00000000000000000E1,0.00000000000000000E0,0.00000000000000000E0));
#109=CARTESIAN_POINT('',(-2.00000000000000000E1,0.00000000000000000E0,8.00000000000000000E0));
#110=B_SPLINE_CURVE_WITH_KNOTS('',1,(#108,#109),.UNSPECIFIED.,.F.,.F.,(2,2),(0.00000000000000000E0,1.00000000000000000E0),.UNSPECIFIED.);
#111=CARTESIAN_POINT('',(0.00000000000000000E0,2.00000000000000000E1,8.00000000000000000E0));
#112=CARTESIAN_POINT('',(-2.00000000000000000E1,2.00000000000000000E1,8.00000000000000000E0));
#113=CARTESIAN_POINT('',(-2.00000000000000000E1,0.00000000000000000E0,8.00000000000000000E0));
#114=(BOUNDED_CURVE()B_SPLINE_CURVE(2,(#111,#112,#113),.UNSPECIFIED.,.F.,.F.)B_SPLINE_CURVE_WITH_KNOTS((3,3),(0.00000000000000000E0,1.00000000000000000E0),.UNSPECIFIED.)CURVE()GEOMETRIC_REPRESENTATION_ITEM()RATIONAL_B_SPLINE_CURVE((1.00000000000000000E0,7.07106781186547573E-1,1.00000000000000000E0))REPRESENTATION_ITEM(''));
#115=CARTESIAN_POINT('',(-2.00000000000000000E1,0.00000000000000000E0,0.00000000000000000E0));
#116=CARTESIAN_POINT('',(-2.00000000000000000E1,-2.00000000000000000E1,0.00000000000000000E0));
#117=CARTESIAN_POINT('',(0.00000000000000000E0,-2.00000000000000000E1,0.00000000000000000E0));
#118=(BOUNDED_CURVE()B_SPLINE_CURVE(2,(#115,#116,#117),.UNSPECIFIED.,.F.,.F.)B_SPLINE_CURVE_WITH_KNOTS((3,3),(0.00000000000000000E0,1.00000000000000000E0),.UNSPECIFIED.)CURVE()GEOMETRIC_REPRESENTATION_ITEM()RATIONAL_B_SPLINE_CURVE((1.00000000000000000E0,7.07106781186547573E-1,1.00000000000000000E0))REPRESENTATION_ITEM(''));
#119=CARTESIAN_POINT('',(0.00000000000000000E0,-2.00000000000000000E1,0.00000000000000000E0));
#120=CARTESIAN_POINT('',(0.00000000000000000E0,-2.00000000000000000E1,8.00000000000000000E0));
#121=B_SPLINE_CURVE_WITH_KNOTS('',1,(#119,#120),.UNSPECIFIED.,.F.,.F.,(2,2),(0.00000000000000000E0,1.00000000000000000E0),.UNSPECIFIED.);
#122=CARTESIAN_POINT('',(-2.00000000000000000E1,0.00000000000000000E0,8.00000000000000000E0));
#123=CARTESIAN_POINT('',(-2.00000000000000000E1,-2.00000000000000000E1,8.00000000000000000E0));
#124=CARTESIAN_POINT('',(0.00000000000000000E0,-2.00000000000000000E1,8.00000000000000000E0));
#125=(BOUNDED_CURVE()B_SPLINE_CURVE(2,(#122,#123,#124),.UNSPECIFIED.,.F.,.F.)B_SPLINE_CURVE_WITH_KNOTS((3,3),(0.00000000000000000E0,1.00000000000000000E0),.UNSPECIFIED.)CURVE()GEOMETRIC_REPRESENTATION_ITEM()RATIONAL_B_SPLINE_CURVE((1.00000000000000000E0,7.07106781186547573E-1,1.00000000000000000E0))REPRESENTATION_ITEM(''));
#126=CARTESIAN_POINT('',(0.00000000000000000E0,-2.00000000000000000E1,0.00000000000000000E0));
#127=CARTESIAN_POINT('',(2.00000000000000000E1,-2.00000000000000000E1,0.00000000000000000E0));
#128=CARTESIAN_POINT('',(2.00000000000000000E1,0.00000000000000000E0,0.00000000000000000E0));
#129=(BOUNDED_CURVE()B_SPLINE_CURVE(2,(#126,#127,#128),.UNSPECIFIED.,.F.,.F.)B_SPLINE_CURVE_WITH_KNOTS((3,3),(0.00000000000000000E0,1.00000000000000000E0),.UNSPECIFIED.)CURVE()GEOMETRIC_REPRESENTATION_ITEM()RATIONAL_B_SPLINE_CURVE((1.00000000000000000E0,7.07106781186547573E-1,1.00000000000000000E0))REPRESENTATION_ITEM(''));
#130=CARTESIAN_POINT('',(0.00000000000000000E0,-2.00000000000000000E1,8.00000000000000000E0));
#131=CARTESIAN_POINT('',(2.00000000000000000E1,-2.00000000000000000E1,8.00000000000000000E0));
#132=CARTESIAN_POINT('',(2.00000000000000000E1,0.00000000000000000E0,8.00000000000000000E0));
#133=(BOUNDED_CURVE()B_SPLINE_CURVE(2,(#130,#131,#132),.UNSPECIFIED.,.F.,.F.)B_SPLINE_CURVE_WITH_KNOTS((3,3),(0.00000000000000000E0,1.00000000000000000E0),.UNSPECIFIED.)CURVE()GEOMETRIC_REPRESENTATION_ITEM()RATIONAL_B_SPLINE_CURVE((1.00000000000000000E0,7.07106781186547573E-1,1.00000000000000000E0))REPRESENTATION_ITEM(''));
#134=CARTESIAN_POINT('',(5.00000000000000000E0,0.00000000000000000E0,0.00000000000000000E0));
#135=CARTESIAN_POINT('',(5.00000000000000000E0,-5.00000000000000000E0,0.00000000000000000E0));
#136=CARTESIAN_POINT('',(0.00000000000000000E0,-5.00000000000000000E0,0.00000000000000000E0));
#137=(BOUNDED_CURVE()B_SPLINE_CURVE(2,(#134,#135,#136),.UNSPECIFIED.,.F.,.F.)B_SPLINE_CURVE_WITH_KNOTS((3,3),(0.00000000000000000E0,1.00000000000000000E0),.UNSPECIFIED.)CURVE()GEOMETRIC_REPRESENTATION_ITEM()RATIONAL_B_SPLINE_CURVE((1.00000000000000000E0,7.07106781186547573E-1,1.00000000000000000E0))REPRESENTATION_ITEM(''));
#138=CARTESIAN_POINT('',(0.00000000000000000E0,-5.00000000000000000E0,0.00000000000000000E0));
#139=CARTESIAN_POINT('',(0.00000000000000000E0,-5.00000000000000000E0,8.00000000000000000E0));
#140=B_SPLINE_CURVE_WITH_KNOTS('',1,(#138,#139),.UNSPECIFIED.,.F.,.F.,(2,2),(0.00000000000000000E0,1.00000000000000000E0),.UNSPECIFIED.);
#141=CARTESIAN_POINT('',(5.00000000000000000E0,0.00000000000000000E0,8.00000000000000000E0));
#142=CARTESIAN_POINT('',(5.00000000000000000E0,-5.00000000000000000E0,8.00000000000000000E0));
#143=CARTESIAN_POINT('',(0.00000000000000000E0,-5.00000000000000000E0,8.00000000000000000E0));
#144=(BOUNDED_CURVE()B_SPLINE_CURVE(2,(#141,#142,#143),.UNSPECIFIED.,.F.,.F.)B_SPLINE_CURVE_WITH_KNOTS((3,3),(0.00000000000000000E0,1.00000000000000000E0),.UNSPECIFIED.)CURVE()GEOMETRIC_REPRESENTATION_ITEM()RATIONAL_B_SPLINE_CURVE((1.00000000000000000E0,7.07106781186547573E-1,1.00000000000000000E0))REPRESENTATION_ITEM(''));
#145=CARTESIAN_POINT('',(5.00000000000000000E0,0.00000000000000000E0,0.00000000000000000E0));
#146=CARTESIAN_POINT('',(5.00000000000000000E0,0.00000000000000000E0,8.00000000000000000E0));
#147=B_SPLINE_CURVE_WITH_KNOTS('',1,(#145,#146),.UNSPECIFIED.,.F.,.F.,(2,2),(0.00000000000000000E0,1.00000000000000000E0),.UNSPECIFIED.);
#148=CARTESIAN_POINT('',(0.00000000000000000E0,-5.00000000000000000E0,0.00000000000000000E0));
#149=CARTESIAN_POINT('',(-5.00000000000000000E0,-5.00000000000000000E0,0.00000000000000000E0));
#150=CARTESIAN_POINT('',(-5.00000000000000000E0,0.00000000000000000E0,0.00000000000000000E0));
#151=(BOUNDED_CURVE()B_SPLINE_CURVE(2,(#148,#149,#150),.UNSPECIFIED.,.F.,.F.)B_SPLINE_CURVE_WITH_KNOTS((3,3),(0.00000000000000000E0,1.00000000000000000E0),.UNSPECIFIED.)CURVE()GEOMETRIC_REPRESENTATION_ITEM()RATIONAL_B_SPLINE_CURVE((1.00000000000000000E0,7.07106781186547573E-1,1.00000000000000000E0))REPRESENTATION_ITEM(''));
#152=CARTESIAN_POINT('',(-5.00000000000000000E0,0.00000000000000000E0,0.00000000000000000E0));
#153=CARTESIAN_POINT('',(-5.00000000000000000E0,0.00000000000000000E0,8.00000000000000000E0));
#154=B_SPLINE_CURVE_WITH_KNOTS('',1,(#152,#153),.UNSPECIFIED.,.F.,.F.,(2,2),(0.00000000000000000E0,1.00000000000000000E0),.UNSPECIFIED.);
#155=CARTESIAN_POINT('',(0.00000000000000000E0,-5.00000000000000000E0,8.00000000000000000E0));
#156=CARTESIAN_POINT('',(-5.00000000000000000E0,-5.00000000000000000E0,8.00000000000000000E0));
#157=CARTESIAN_POINT('',(-5.00000000000000000E0,0.00000000000000000E0,8.00000000000000000E0));
#158=(BOUNDED_CURVE()B_SPLINE_CURVE(2,(#155,#156,#157),.UNSPECIFIED.,.F.,.F.)B_SPLINE_CURVE_WITH_KNOTS((3,3),(0.00000000000000000E0,1.00000000000000000E0),.UNSPECIFIED.)CURVE()GEOMETRIC_REPRESENTATION_ITEM()RATIONAL_B_SPLINE_CURVE((1.00000000000000000E0,7.07106781186547573E-1,1.00000000000000000E0))REPRESENTATION_ITEM(''));
#159=CARTESIAN_POINT('',(-5.00000000000000000E0,0.00000000000000000E0,0.00000000000000000E0));
#160=CARTESIAN_POINT('',(-5.00000000000000000E0,5.00000000000000000E0,0.00000000000000000E0));
#161=CARTESIAN_POINT('',(0.00000000000000000E0,5.00000000000000000E0,0.00000000000000000E0));
#162=(BOUNDED_CURVE()B_SPLINE_CURVE(2,(#159,#160,#161),.UNSPECIFIED.,.F.,.F.)B_SPLINE_CURVE_WITH_KNOTS((3,3),(0.00000000000000000E0,1.00000000000000000E0),.UNSPECIFIED.)CURVE()GEOMETRIC_REPRESENTATION_ITEM()RATIONAL_B_SPLINE_CURVE((1.00000000000000000E0,7.07106781186547573E-1,1.00000000000000000E0))REPRESENTATION_ITEM(''));
#163=CARTESIAN_POINT('',(0.00000000000000000E0,5.00000000000000000E0,0.00000000000000000E0));
#164=CARTESIAN_POINT('',(0.00000000000000000E0,5.00000000000000000E0,8.00000000000000000E0));
#165=B_SPLINE_CURVE_WITH_KNOTS('',1,(#163,#164),.UNSPECIFIED.,.F.,.F.,(2,2),(0.00000000000000000E0,1.00000000000000000E0),.UNSPECIFIED.);
#166=CARTESIAN_POINT('',(-5.00000000000000000E0,0.00000000000000000E0,8.00000000000000000E0));
#167=CARTESIAN_POINT('',(-5.00000000000000000E0,5.00000000000000000E0,8.00000000000000000E0));
#168=CARTESIAN_POINT('',(0.00000000000000000E0,5.00000000000000000E0,8.00000000000000000E0));
#169=(BOUNDED_CURVE()B_SPLINE_CURVE(2,(#166,#167,#168),.UNSPECIFIED.,.F.,.F.)B_SPLINE_CURVE_WITH_KNOTS((3,3),(0.00000000000000000E0,1.00000000000000000E0),.UNSPECIFIED.)CURVE()GEOMETRIC_REPRESENTATION_ITEM()RATIONAL_B_SPLINE_CURVE((1.00000000000000000E0,7.07106781186547573E-1,1.00000000000000000E0))REPRESENTATION_ITEM(''));
#170=CARTESIAN_POINT('',(0.00000000000000000E0,5.00000000000000000E0,0.00000000000000000E0));
#171=CARTESIAN_POINT('',(5.00000000000000000E0,5.00000000000000000E0,0.00000000000000000E0));
#172=CARTESIAN_POINT('',(5.00000000000000000E0,0.00000000000000000E0,0.00000000000000000E0));
#173=(BOUNDED_CURVE()B_SPLINE_CURVE(2,(#170,#171,#172),.UNSPECIFIED.,.F.,.F.)B_SPLINE_CURVE_WITH_KNOTS((3,3),(0.00000000000000000E0,1.00000000000000000E0),.UNSPECIFIED.)CURVE()GEOMETRIC_REPRESENTATION_ITEM()RATIONAL_B_SPLINE_CURVE((1.00000000000000000E0,7.07106781186547573E-1,1.00000000000000000E0))REPRESENTATION_ITEM(''));
#174=CARTESIAN_POINT('',(0.00000000000000000E0,5.00000000000000000E0,8.00000000000000000E0));
#175=CARTESIAN_POINT('',(5.00000000000000000E0,5.00000000000000000E0,8.00000000000000000E0));
#176=CARTESIAN_POINT('',(5.00000000000000000E0,0.00000000000000000E0,8.00000000000000000E0));
#177=(BOUNDED_CURVE()B_SPLINE_CURVE(2,(#174,#175,#176),.UNSPECIFIED.,.F.,.F.)B_SPLINE_CURVE_WITH_KNOTS((3,3),(0.00000000000000000E0,1.00000000000000000E0),.UNSPECIFIED.)CURVE()GEOMETRIC_REPRESENTATION_ITEM()RATIONAL_B_SPLINE_CURVE((1.00000000000000000E0,7.07106781186547573E-1,1.00000000000000000E0))REPRESENTATION_ITEM(''));
#178=(GEOMETRIC_REPRESENTATION_CONTEXT(2)REPRESENTATION_CONTEXT('','2D'));
#179=CARTESIAN_POINT('',(0.00000000000000000E0,0.00000000000000000E0));
#180=CARTESIAN_POINT('',(1.00000000000000000E0,0.00000000000000000E0));
#181=B_SPLINE_CURVE_WITH_KNOTS('',1,(#179,#180),.UNSPECIFIED.,.F.,.F.,(2,2),(0.00000000000000000E0,1.00000000000000000E0),.UNSPECIFIED.);
#182=DEFINITIONAL_REPRESENTATION('',(#181),#178);
#183=PCURVE('',#51,#182);
#184=CARTESIAN_POINT('',(1.00000000000000000E0,0.00000000000000000E0));
#185=CARTESIAN_POINT('',(1.00000000000000000E0,1.00000000000000000E0));
#186=B_SPLINE_CURVE_WITH_KNOTS('',1,(#184,#185),.UNSPECIFIED.,.F.,.F.,(2,2),(0.00000000000000000E0,1.00000000000000000E0),.UNSPECIFIED.);
#187=DEFINITIONAL_REPRESENTATION('',(#186),#178);
#188=PCURVE('',#51,#187);
#189=CARTESIAN_POINT('',(1.00000000000000000E0,1.00000000000000000E0));
#190=CARTESIAN_POINT('',(0.00000000000000000E0,1.00000000000000000E0));
#191=B_SPLINE_CURVE_WITH_KNOTS('',1,(#189,#190),.UNSPECIFIED.,.F.,.F.,(2,2),(0.00000000000000000E0,1.00000000000000000E0),.UNSPECIFIED.);
#192=DEFINITIONAL_REPRESENTATION('',(#191),#178);
#193=PCURVE('',#51,#192);
#194=CARTESIAN_POINT('',(0.00000000000000000E0,1.00000000000000000E0));
#195=CARTESIAN_POINT('',(0.00000000000000000E0,0.00000000000000000E0));
#196=B_SPLINE_CURVE_WITH_KNOTS('',1,(#194,#195),.UNSPECIFIED.,.F.,.F.,(2,2),(0.00000000000000000E0,1.00000000000000000E0),.UNSPECIFIED.);
#197=DEFINITIONAL_REPRESENTATION('',(#196),#178);
#198=PCURVE('',#51,#197);
#199=CARTESIAN_POINT('',(1.00000000000000000E0,0.00000000000000000E0));
#200=CARTESIAN_POINT('',(2.00000000000000000E0,0.00000000000000000E0));
#201=B_SPLINE_CURVE_WITH_KNOTS('',1,(#199,#200),.UNSPECIFIED.,.F.,.F.,(2,2),(0.00000000000000000E0,1.00000000000000000E0),.UNSPECIFIED.);
#202=DEFINITIONAL_REPRESENTATION('',(#201),#178);
#203=PCURVE('',#51,#202);
#204=CARTESIAN_POINT('',(2.00000000000000000E0,0.00000000000000000E0));
#205=CARTESIAN_POINT('',(2.00000000000000000E0,1.00000000000000000E0));
#206=B_SPLINE_CURVE_WITH_KNOTS('',1,(#204,#205),.UNSPECIFIED.,.F.,.F.,(2,2),(0.00000000000000000E0,1.00000000000000000E0),.UNSPECIFIED.);
#207=DEFINITIONAL_REPRESENTATION('',(#206),#178);
#208=PCURVE('',#51,#207);
#209=CARTESIAN_POINT('',(2.00000000000000000E0,1.00000000000000000E0));
#210=CARTESIAN_POINT('',(1.00000000000000000E0,1.00000000000000000E0));
#211=B_SPLINE_CURVE_WITH_KNOTS('',1,(#209,#210),.UNSPECIFIED.,.F.,.F.,(2,2),(0.00000000000000000E0,1.00000000000000000E0),.UNSPECIFIED.);
#212=DEFINITIONAL_REPRESENTATION('',(#211),#178);
#213=PCURVE('',#51,#212);
#214=CARTESIAN_POINT('',(1.00000000000000000E0,1.00000000000000000E0));
#215=CARTESIAN_POINT('',(1.00000000000000000E0,0.00000000000000000E0));
#216=B_SPLINE_CURVE_WITH_KNOTS('',1,(#214,#215),.UNSPECIFIED.,.F.,.F.,(2,2),(0.00000000000000000E0,1.00000000000000000E0),.UNSPECIFIED.);
#217=DEFINITIONAL_REPRESENTATION('',(#216),#178);
#218=PCURVE('',#51,#217);
#219=CARTESIAN_POINT('',(2.00000000000000000E0,0.00000000000000000E0));
#220=CARTESIAN_POINT('',(3.00000000000000000E0,0.00000000000000000E0));
#221=B_SPLINE_CURVE_WITH_KNOTS('',1,(#219,#220),.UNSPECIFIED.,.F.,.F.,(2,2),(0.00000000000000000E0,1.00000000000000000E0),.UNSPECIFIED.);
#222=DEFINITIONAL_REPRESENTATION('',(#221),#178);
#223=PCURVE('',#51,#222);
#224=CARTESIAN_POINT('',(3.00000000000000000E0,0.00000000000000000E0));
#225=CARTESIAN_POINT('',(3.00000000000000000E0,1.00000000000000000E0));
#226=B_SPLINE_CURVE_WITH_KNOTS('',1,(#224,#225),.UNSPECIFIED.,.F.,.F.,(2,2),(0.00000000000000000E0,1.00000000000000000E0),.UNSPECIFIED.);
#227=DEFINITIONAL_REPRESENTATION('',(#226),#178);
#228=PCURVE('',#51,#227);
#229=CARTESIAN_POINT('',(3.00000000000000000E0,1.00000000000000000E0));
#230=CARTESIAN_POINT('',(2.00000000000000000E0,1.00000000000000000E0));
#231=B_SPLINE_CURVE_WITH_KNOTS('',1,(#229,#230),.UNSPECIFIED.,.F.,.F.,(2,2),(0.00000000000000000E0,1.00000000000000000E0),.UNSPECIFIED.);
#232=DEFINITIONAL_REPRESENTATION('',(#231),#178);
#233=PCURVE('',#51,#232);
#234=CARTESIAN_POINT('',(2.00000000000000000E0,1.00000000000000000E0));
#235=CARTESIAN_POINT('',(2.00000000000000000E0,0.00000000000000000E0));
#236=B_SPLINE_CURVE_WITH_KNOTS('',1,(#234,#235),.UNSPECIFIED.,.F.,.F.,(2,2),(0.00000000000000000E0,1.00000000000000000E0),.UNSPECIFIED.);
#237=DEFINITIONAL_REPRESENTATION('',(#236),#178);
#238=PCURVE('',#51,#237);
#239=CARTESIAN_POINT('',(3.00000000000000000E0,0.00000000000000000E0));
#240=CARTESIAN_POINT('',(4.00000000000000000E0,0.00000000000000000E0));
#241=B_SPLINE_CURVE_WITH_KNOTS('',1,(#239,#240),.UNSPECIFIED.,.F.,.F.,(2,2),(0.00000000000000000E0,1.00000000000000000E0),.UNSPECIFIED.);
#242=DEFINITIONAL_REPRESENTATION('',(#241),#178);
#243=PCURVE('',#51,#242);
#244=CARTESIAN_POINT('',(4.00000000000000000E0,0.00000000000000000E0));
#245=CARTESIAN_POINT('',(4.00000000000000000E0,1.00000000000000000E0));
#246=B_SPLINE_CURVE_WITH_KNOTS('',1,(#244,#245),.UNSPECIFIED.,.F.,.F.,(2,2),(0.00000000000000000E0,1.00000000000000000E0),.UNSPECIFIED.);
#247=DEFINITIONAL_REPRESENTATION('',(#246),#178);
#248=PCURVE('',#51,#247);
#249=CARTESIAN_POINT('',(4.00000000000000000E0,1.00000000000000000E0));
#250=CARTESIAN_POINT('',(3.00000000000000000E0,1.00000000000000000E0));
#251=B_SPLINE_CURVE_WITH_KNOTS('',1,(#249,#250),.UNSPECIFIED.,.F.,.F.,(2,2),(0.00000000000000000E0,1.00000000000000000E0),.UNSPECIFIED.);
#252=DEFINITIONAL_REPRESENTATION('',(#251),#178);
#253=PCURVE('',#51,#252);
#254=CARTESIAN_POINT('',(3.00000000000000000E0,1.00000000000000000E0));
#255=CARTESIAN_POINT('',(3.00000000000000000E0,0.00000000000000000E0));
#256=B_SPLINE_CURVE_WITH_KNOTS('',1,(#254,#255),.UNSPECIFIED.,.F.,.F.,(2,2),(0.00000000000000000E0,1.00000000000000000E0),.UNSPECIFIED.);
#257=DEFINITIONAL_REPRESENTATION('',(#256),#178);
#258=PCURVE('',#51,#257);
#259=CARTESIAN_POINT('',(0.00000000000000000E0,0.00000000000000000E0));
#260=CARTESIAN_POINT('',(1.00000000000000000E0,0.00000000000000000E0));
#261=B_SPLINE_CURVE_WITH_KNOTS('',1,(#259,#260),.UNSPECIFIED.,.F.,.F.,(2,2),(0.00000000000000000E0,1.00000000000000000E0),.UNSPECIFIED.);
#262=DEFINITIONAL_REPRESENTATION('',(#261),#178);
#263=PCURVE('',#58,#262);
#264=CARTESIAN_POINT('',(1.00000000000000000E0,0.00000000000000000E0));
#265=CARTESIAN_POINT('',(1.00000000000000000E0,1.00000000000000000E0));
#266=B_SPLINE_CURVE_WITH_KNOTS('',1,(#264,#265),.UNSPECIFIED.,.F.,.F.,(2,2),(0.00000000000000000E0,1.00000000000000000E0),.UNSPECIFIED.);
#267=DEFINITIONAL_REPRESENTATION('',(#266),#178);
#268=PCURVE('',#58,#267);
#269=CARTESIAN_POINT('',(1.00000000000000000E0,1.00000000000000000E0));
#270=CARTESIAN_POINT('',(0.00000000000000000E0,1.00000000000000000E0));
#271=B_SPLINE_CURVE_WITH_KNOTS('',1,(#269,#270),.UNSPECIFIED.,.F.,.F.,(2,2),(0.00000000000000000E0,1.00000000000000000E0),.UNSPECIFIED.);
#272=DEFINITIONAL_REPRESENTATION('',(#271),#178);
#273=PCURVE('',#58,#272);
#274=CARTESIAN_POINT('',(0.00000000000000000E0,1.00000000000000000E0));
#275=CARTESIAN_POINT('',(0.00000000000000000E0,0.00000000000000000E0));
#276=B_SPLINE_CURVE_WITH_KNOTS('',1,(#274,#275),.UNSPECIFIED.,.F.,.F.,(2,2),(0.00000000000000000E0,1.00000000000000000E0),.UNSPECIFIED.);
#277=DEFINITIONAL_REPRESENTATION('',(#276),#178);
#278=PCURVE('',#58,#277);
#279=CARTESIAN_POINT('',(0.00000000000000000E0,0.00000000000000000E0));
#280=CARTESIAN_POINT('',(1.00000000000000000E0,0.00000000000000000E0));
#281=B_SPLINE_CURVE_WITH_KNOTS('',1,(#279,#280),.UNSPECIFIED.,.F.,.F.,(2,2),(0.00000000000000000E0,1.00000000000000000E0),.UNSPECIFIED.);
#282=DEFINITIONAL_REPRESENTATION('',(#281),#178);
#283=PCURVE('',#65,#282);
#284=CARTESIAN_POINT('',(1.00000000000000000E0,0.00000000000000000E0));
#285=CARTESIAN_POINT('',(1.00000000000000000E0,1.00000000000000000E0));
#286=B_SPLINE_CURVE_WITH_KNOTS('',1,(#284,#285),.UNSPECIFIED.,.F.,.F.,(2,2),(0.00000000000000000E0,1.00000000000000000E0),.UNSPECIFIED.);
#287=DEFINITIONAL_REPRESENTATION('',(#286),#178);
#288=PCURVE('',#65,#287);
#289=CARTESIAN_POINT('',(1.00000000000000000E0,1.00000000000000000E0));
#290=CARTESIAN_POINT('',(0.00000000000000000E0,1.00000000000000000E0));
#291=B_SPLINE_CURVE_WITH_KNOTS('',1,(#289,#290),.UNSPECIFIED.,.F.,.F.,(2,2),(0.00000000000000000E0,1.00000000000000000E0),.UNSPECIFIED.);
#292=DEFINITIONAL_REPRESENTATION('',(#291),#178);
#293=PCURVE('',#65,#292);
#294=CARTESIAN_POINT('',(0.00000000000000000E0,1.00000000000000000E0));
#295=CARTESIAN_POINT('',(0.00000000000000000E0,0.00000000000000000E0));
#296=B_SPLINE_CURVE_WITH_KNOTS('',1,(#294,#295),.UNSPECIFIED.,.F.,.F.,(2,2),(0.00000000000000000E0,1.00000000000000000E0),.UNSPECIFIED.);
#297=DEFINITIONAL_REPRESENTATION('',(#296),#178);
#298=PCURVE('',#65,#297);
#299=CARTESIAN_POINT('',(0.00000000000000000E0,0.00000000000000000E0));
#300=CARTESIAN_POINT('',(1.00000000000000000E0,0.00000000000000000E0));
#301=B_SPLINE_CURVE_WITH_KNOTS('',1,(#299,#300),.UNSPECIFIED.,.F.,.F.,(2,2),(0.00000000000000000E0,1.00000000000000000E0),.UNSPECIFIED.);
#302=DEFINITIONAL_REPRESENTATION('',(#301),#178);
#303=PCURVE('',#72,#302);
#304=CARTESIAN_POINT('',(1.00000000000000000E0,0.00000000000000000E0));
#305=CARTESIAN_POINT('',(1.00000000000000000E0,1.00000000000000000E0));
#306=B_SPLINE_CURVE_WITH_KNOTS('',1,(#304,#305),.UNSPECIFIED.,.F.,.F.,(2,2),(0.00000000000000000E0,1.00000000000000000E0),.UNSPECIFIED.);
#307=DEFINITIONAL_REPRESENTATION('',(#306),#178);
#308=PCURVE('',#72,#307);
#309=CARTESIAN_POINT('',(1.00000000000000000E0,1.00000000000000000E0));
#310=CARTESIAN_POINT('',(0.00000000000000000E0,1.00000000000000000E0));
#311=B_SPLINE_CURVE_WITH_KNOTS('',1,(#309,#310),.UNSPECIFIED.,.F.,.F.,(2,2),(0.00000000000000000E0,1.00000000000000000E0),.UNSPECIFIED.);
#312=DEFINITIONAL_REPRESENTATION('',(#311),#178);
#313=PCURVE('',#72,#312);
#314=CARTESIAN_POINT('',(0.00000000000000000E0,1.00000000000000000E0));
#315=CARTESIAN_POINT('',(0.00000000000000000E0,0.00000000000000000E0));
#316=B_SPLINE_CURVE_WITH_KNOTS('',1,(#314,#315),.UNSPECIFIED.,.F.,.F.,(2,2),(0.00000000000000000E0,1.00000000000000000E0),.UNSPECIFIED.);
#317=DEFINITIONAL_REPRESENTATION('',(#316),#178);
#318=PCURVE('',#72,#317);
#319=CARTESIAN_POINT('',(0.00000000000000000E0,0.00000000000000000E0));
#320=CARTESIAN_POINT('',(1.00000000000000000E0,0.00000000000000000E0));
#321=B_SPLINE_CURVE_WITH_KNOTS('',1,(#319,#320),.UNSPECIFIED.,.F.,.F.,(2,2),(0.00000000000000000E0,1.00000000000000000E0),.UNSPECIFIED.);
#322=DEFINITIONAL_REPRESENTATION('',(#321),#178);
#323=PCURVE('',#79,#322);
#324=CARTESIAN_POINT('',(1.00000000000000000E0,0.00000000000000000E0));
#325=CARTESIAN_POINT('',(1.00000000000000000E0,1.00000000000000000E0));
#326=B_SPLINE_CURVE_WITH_KNOTS('',1,(#324,#325),.UNSPECIFIED.,.F.,.F.,(2,2),(0.00000000000000000E0,1.00000000000000000E0),.UNSPECIFIED.);
#327=DEFINITIONAL_REPRESENTATION('',(#326),#178);
#328=PCURVE('',#79,#327);
#329=CARTESIAN_POINT('',(1.00000000000000000E0,1.00000000000000000E0));
#330=CARTESIAN_POINT('',(0.00000000000000000E0,1.00000000000000000E0));
#331=B_SPLINE_CURVE_WITH_KNOTS('',1,(#329,#330),.UNSPECIFIED.,.F.,.F.,(2,2),(0.00000000000000000E0,1.00000000000000000E0),.UNSPECIFIED.);
#332=DEFINITIONAL_REPRESENTATION('',(#331),#178);
#333=PCURVE('',#79,#332);
#334=CARTESIAN_POINT('',(0.00000000000000000E0,1.00000000000000000E0));
#335=CARTESIAN_POINT('',(0.00000000000000000E0,0.00000000000000000E0));
#336=B_SPLINE_CURVE_WITH_KNOTS('',1,(#334,#335),.UNSPECIFIED.,.F.,.F.,(2,2),(0.00000000000000000E0,1.00000000000000000E0),.UNSPECIFIED.);
#337=DEFINITIONAL_REPRESENTATION('',(#336),#178);
#338=PCURVE('',#79,#337);
#339=CARTESIAN_POINT('',(0.00000000000000000E0,5.00000000000000000E-1));
#340=CARTESIAN_POINT('',(0.00000000000000000E0,0.00000000000000000E0));
#341=CARTESIAN_POINT('',(5.00000000000000000E-1,0.00000000000000000E0));
#342=(BOUNDED_CURVE()B_SPLINE_CURVE(2,(#339,#340,#341),.UNSPECIFIED.,.F.,.F.)B_SPLINE_CURVE_WITH_KNOTS((3,3),(0.00000000000000000E0,1.00000000000000000E0),.UNSPECIFIED.)CURVE()GEOMETRIC_REPRESENTATION_ITEM()RATIONAL_B_SPLINE_CURVE((1.00000000000000000E0,7.07106781186547573E-1,1.00000000000000000E0))REPRESENTATION_ITEM(''));
#343=DEFINITIONAL_REPRESENTATION('',(#342),#178);
#344=PCURVE('',#84,#343);
#345=CARTESIAN_POINT('',(5.00000000000000000E-1,0.00000000000000000E0));
#346=CARTESIAN_POINT('',(1.00000000000000000E0,0.00000000000000000E0));
#347=CARTESIAN_POINT('',(1.00000000000000000E0,5.00000000000000000E-1));
#348=(BOUNDED_CURVE()B_SPLINE_CURVE(2,(#345,#346,#347),.UNSPECIFIED.,.F.,.F.)B_SPLINE_CURVE_WITH_KNOTS((3,3),(0.00000000000000000E0,1.00000000000000000E0),.UNSPECIFIED.)CURVE()GEOMETRIC_REPRESENTATION_ITEM()RATIONAL_B_SPLINE_CURVE((1.00000000000000000E0,7.07106781186547573E-1,1.00000000000000000E0))REPRESENTATION_ITEM(''));
#349=DEFINITIONAL_REPRESENTATION('',(#348),#178);
#350=PCURVE('',#84,#349);
#351=CARTESIAN_POINT('',(1.00000000000000000E0,5.00000000000000000E-1));
#352=CARTESIAN_POINT('',(1.00000000000000000E0,1.00000000000000000E0));
#353=CARTESIAN_POINT('',(5.00000000000000000E-1,1.00000000000000000E0));
#354=(BOUNDED_CURVE()B_SPLINE_CURVE(2,(#351,#352,#353),.UNSPECIFIED.,.F.,.F.)B_SPLINE_CURVE_WITH_KNOTS((3,3),(0.00000000000000000E0,1.00000000000000000E0),.UNSPECIFIED.)CURVE()GEOMETRIC_REPRESENTATION_ITEM()RATIONAL_B_SPLINE_CURVE((1.00000000000000000E0,7.07106781186547573E-1,1.00000000000000000E0))REPRESENTATION_ITEM(''));
#355=DEFINITIONAL_REPRESENTATION('',(#354),#178);
#356=PCURVE('',#84,#355);
#357=CARTESIAN_POINT('',(5.00000000000000000E-1,1.00000000000000000E0));
#358=CARTESIAN_POINT('',(0.00000000000000000E0,1.00000000000000000E0));
#359=CARTESIAN_POINT('',(0.00000000000000000E0,5.00000000000000000E-1));
#360=(BOUNDED_CURVE()B_SPLINE_CURVE(2,(#357,#358,#359),.UNSPECIFIED.,.F.,.F.)B_SPLINE_CURVE_WITH_KNOTS((3,3),(0.00000000000000000E0,1.00000000000000000E0),.UNSPECIFIED.)CURVE()GEOMETRIC_REPRESENTATION_ITEM()RATIONAL_B_SPLINE_CURVE((1.00000000000000000E0,7.07106781186547573E-1,1.00000000000000000E0))REPRESENTATION_ITEM(''));
#361=DEFINITIONAL_REPRESENTATION('',(#360),#178);
#362=PCURVE('',#84,#361);
#363=CARTESIAN_POINT('',(3.75000000000000000E-1,5.00000000000000000E-1));
#364=CARTESIAN_POINT('',(3.75000000000000000E-1,6.25000000000000000E-1));
#365=CARTESIAN_POINT('',(5.00000000000000000E-1,6.25000000000000000E-1));
#366=(BOUNDED_CURVE()B_SPLINE_CURVE(2,(#363,#364,#365),.UNSPECIFIED.,.F.,.F.)B_SPLINE_CURVE_WITH_KNOTS((3,3),(0.00000000000000000E0,1.00000000000000000E0),.UNSPECIFIED.)CURVE()GEOMETRIC_REPRESENTATION_ITEM()RATIONAL_B_SPLINE_CURVE((1.00000000000000000E0,7.07106781186547573E-1,1.00000000000000000E0))REPRESENTATION_ITEM(''));
#367=DEFINITIONAL_REPRESENTATION('',(#366),#178);
#368=PCURVE('',#84,#367);
#369=CARTESIAN_POINT('',(5.00000000000000000E-1,6.25000000000000000E-1));
#370=CARTESIAN_POINT('',(6.25000000000000000E-1,6.25000000000000000E-1));
#371=CARTESIAN_POINT('',(6.25000000000000000E-1,5.00000000000000000E-1));
#372=(BOUNDED_CURVE()B_SPLINE_CURVE(2,(#369,#370,#371),.UNSPECIFIED.,.F.,.F.)B_SPLINE_CURVE_WITH_KNOTS((3,3),(0.00000000000000000E0,1.00000000000000000E0),.UNSPECIFIED.)CURVE()GEOMETRIC_REPRESENTATION_ITEM()RATIONAL_B_SPLINE_CURVE((1.00000000000000000E0,7.07106781186547573E-1,1.00000000000000000E0))REPRESENTATION_ITEM(''));
#373=DEFINITIONAL_REPRESENTATION('',(#372),#178);
#374=PCURVE('',#84,#373);
#375=CARTESIAN_POINT('',(6.25000000000000000E-1,5.00000000000000000E-1));
#376=CARTESIAN_POINT('',(6.25000000000000000E-1,3.75000000000000000E-1));
#377=CARTESIAN_POINT('',(5.00000000000000000E-1,3.75000000000000000E-1));
#378=(BOUNDED_CURVE()B_SPLINE_CURVE(2,(#375,#376,#377),.UNSPECIFIED.,.F.,.F.)B_SPLINE_CURVE_WITH_KNOTS((3,3),(0.00000000000000000E0,1.00000000000000000E0),.UNSPECIFIED.)CURVE()GEOMETRIC_REPRESENTATION_ITEM()RATIONAL_B_SPLINE_CURVE((1.00000000000000000E0,7.07106781186547573E-1,1.00000000000000000E0))REPRESENTATION_ITEM(''));
#379=DEFINITIONAL_REPRESENTATION('',(#378),#178);
#380=PCURVE('',#84,#379);
#381=CARTESIAN_POINT('',(5.00000000000000000E-1,3.75000000000000000E-1));
#382=CARTESIAN_POINT('',(3.75000000000000000E-1,3.75000000000000000E-1));
#383=CARTESIAN_POINT('',(3.75000000000000000E-1,5.00000000000000000E-1));
#384=(BOUNDED_CURVE()B_SPLINE_CURVE(2,(#381,#382,#383),.UNSPECIFIED.,.F.,.F.)B_SPLINE_CURVE_WITH_KNOTS((3,3),(0.00000000000000000E0,1.00000000000000000E0),.UNSPECIFIED.)CURVE()GEOMETRIC_REPRESENTATION_ITEM()RATIONAL_B_SPLINE_CURVE((1.00000000000000000E0,7.07106781186547573E-1,1.00000000000000000E0))REPRESENTATION_ITEM(''));
#385=DEFINITIONAL_REPRESENTATION('',(#384),#178);
#386=PCURVE('',#84,#385);
#387=CARTESIAN_POINT('',(1.00000000000000000E0,5.00000000000000000E-1));
#388=CARTESIAN_POINT('',(1.00000000000000000E0,1.00000000000000000E0));
#389=CARTESIAN_POINT('',(5.00000000000000000E-1,1.00000000000000000E0));
#390=(BOUNDED_CURVE()B_SPLINE_CURVE(2,(#387,#388,#389),.UNSPECIFIED.,.F.,.F.)B_SPLINE_CURVE_WITH_KNOTS((3,3),(0.00000000000000000E0,1.00000000000000000E0),.UNSPECIFIED.)CURVE()GEOMETRIC_REPRESENTATION_ITEM()RATIONAL_B_SPLINE_CURVE((1.00000000000000000E0,7.07106781186547573E-1,1.00000000000000000E0))REPRESENTATION_ITEM(''));
#391=DEFINITIONAL_REPRESENTATION('',(#390),#178);
#392=PCURVE('',#89,#391);
#393=CARTESIAN_POINT('',(5.00000000000000000E-1,1.00000000000000000E0));
#394=CARTESIAN_POINT('',(0.00000000000000000E0,1.00000000000000000E0));
#395=CARTESIAN_POINT('',(0.00000000000000000E0,5.00000000000000000E-1));
#396=(BOUNDED_CURVE()B_SPLINE_CURVE(2,(#393,#394,#395),.UNSPECIFIED.,.F.,.F.)B_SPLINE_CURVE_WITH_KNOTS((3,3),(0.00000000000000000E0,1.00000000000000000E0),.UNSPECIFIED.)CURVE()GEOMETRIC_REPRESENTATION_ITEM()RATIONAL_B_SPLINE_CURVE((1.00000000000000000E0,7.07106781186547573E-1,1.00000000000000000E0))REPRESENTATION_ITEM(''));
#397=DEFINITIONAL_REPRESENTATION('',(#396),#178);
#398=PCURVE('',#89,#397);
#399=CARTESIAN_POINT('',(0.00000000000000000E0,5.00000000000000000E-1));
#400=CARTESIAN_POINT('',(0.00000000000000000E0,0.00000000000000000E0));
#401=CARTESIAN_POINT('',(5.00000000000000000E-1,0.00000000000000000E0));
#402=(BOUNDED_CURVE()B_SPLINE_CURVE(2,(#399,#400,#401),.UNSPECIFIED.,.F.,.F.)B_SPLINE_CURVE_WITH_KNOTS((3,3),(0.00000000000000000E0,1.00000000000000000E0),.UNSPECIFIED.)CURVE()GEOMETRIC_REPRESENTATION_ITEM()RATIONAL_B_SPLINE_CURVE((1.00000000000000000E0,7.07106781186547573E-1,1.00000000000000000E0))REPRESENTATION_ITEM(''));
#403=DEFINITIONAL_REPRESENTATION('',(#402),#178);
#404=PCURVE('',#89,#403);
#405=CARTESIAN_POINT('',(5.00000000000000000E-1,0.00000000000000000E0));
#406=CARTESIAN_POINT('',(1.00000000000000000E0,0.00000000000000000E0));
#407=CARTESIAN_POINT('',(1.00000000000000000E0,5.00000000000000000E-1));
#408=(BOUNDED_CURVE()B_SPLINE_CURVE(2,(#405,#406,#407),.UNSPECIFIED.,.F.,.F.)B_SPLINE_CURVE_WITH_KNOTS((3,3),(0.00000000000000000E0,1.00000000000000000E0),.UNSPECIFIED.)CURVE()GEOMETRIC_REPRESENTATION_ITEM()RATIONAL_B_SPLINE_CURVE((1.00000000000000000E0,7.07106781186547573E-1,1.00000000000000000E0))REPRESENTATION_ITEM(''));
#409=DEFINITIONAL_REPRESENTATION('',(#408),#178);
#410=PCURVE('',#89,#409);
#411=CARTESIAN_POINT('',(6.25000000000000000E-1,5.00000000000000000E-1));
#412=CARTESIAN_POINT('',(6.25000000000000000E-1,3.75000000000000000E-1));
#413=CARTESIAN_POINT('',(5.00000000000000000E-1,3.75000000000000000E-1));
#414=(BOUNDED_CURVE()B_SPLINE_CURVE(2,(#411,#412,#413),.UNSPECIFIED.,.F.,.F.)B_SPLINE_CURVE_WITH_KNOTS((3,3),(0.00000000000000000E0,1.00000000000000000E0),.UNSPECIFIED.)CURVE()GEOMETRIC_REPRESENTATION_ITEM()RATIONAL_B_SPLINE_CURVE((1.00000000000000000E0,7.07106781186547573E-1,1.00000000000000000E0))REPRESENTATION_ITEM(''));
#415=DEFINITIONAL_REPRESENTATION('',(#414),#178);
#416=PCURVE('',#89,#415);
#417=CARTESIAN_POINT('',(5.00000000000000000E-1,3.75000000000000000E-1));
#418=CARTESIAN_POINT('',(3.75000000000000000E-1,3.75000000000000000E-1));
#419=CARTESIAN_POINT('',(3.75000000000000000E-1,5.00000000000000000E-1));
#420=(BOUNDED_CURVE()B_SPLINE_CURVE(2,(#417,#418,#419),.UNSPECIFIED.,.F.,.F.)B_SPLINE_CURVE_WITH_KNOTS((3,3),(0.00000000000000000E0,1.00000000000000000E0),.UNSPECIFIED.)CURVE()GEOMETRIC_REPRESENTATION_ITEM()RATIONAL_B_SPLINE_CURVE((1.00000000000000000E0,7.07106781186547573E-1,1.00000000000000000E0))REPRESENTATION_ITEM(''));
#421=DEFINITIONAL_REPRESENTATION('',(#420),#178);
#422=PCURVE('',#89,#421);
#423=CARTESIAN_POINT('',(3.75000000000000000E-1,5.00000000000000000E-1));
#424=CARTESIAN_POINT('',(3.75000000000000000E-1,6.25000000000000000E-1));
#425=CARTESIAN_POINT('',(5.00000000000000000E-1,6.25000000000000000E-1));
#426=(BOUNDED_CURVE()B_SPLINE_CURVE(2,(#423,#424,#425),.UNSPECIFIED.,.F.,.F.)B_SPLINE_CURVE_WITH_KNOTS((3,3),(0.00000000000000000E0,1.00000000000000000E0),.UNSPECIFIED.)CURVE()GEOMETRIC_REPRESENTATION_ITEM()RATIONAL_B_SPLINE_CURVE((1.00000000000000000E0,7.07106781186547573E-1,1.00000000000000000E0))REPRESENTATION_ITEM(''));
#427=DEFINITIONAL_REPRESENTATION('',(#426),#178);
#428=PCURVE('',#89,#427);
#429=CARTESIAN_POINT('',(5.00000000000000000E-1,6.25000000000000000E-1));
#430=CARTESIAN_POINT('',(6.25000000000000000E-1,6.25000000000000000E-1));
#431=CARTESIAN_POINT('',(6.25000000000000000E-1,5.00000000000000000E-1));
#432=(BOUNDED_CURVE()B_SPLINE_CURVE(2,(#429,#430,#431),.UNSPECIFIED.,.F.,.F.)B_SPLINE_CURVE_WITH_KNOTS((3,3),(0.00000000000000000E0,1.00000000000000000E0),.UNSPECIFIED.)CURVE()GEOMETRIC_REPRESENTATION_ITEM()RATIONAL_B_SPLINE_CURVE((1.00000000000000000E0,7.07106781186547573E-1,1.00000000000000000E0))REPRESENTATION_ITEM(''));
#433=DEFINITIONAL_REPRESENTATION('',(#432),#178);
#434=PCURVE('',#89,#433);
#435=SURFACE_CURVE('',#93,(#183,#362),.PCURVE_S1.);
#436=EDGE_CURVE('OSCAD_TOPO/3|edge|e:866512d1b44e85daac0ac6f965ba3848|de09774757378ede874ab4e6b47e75a7bdc717e0cc622158a669474d44f9c1cb',#2,#4,#435,.T.);
#437=SURFACE_CURVE('',#96,(#188,#218),.PCURVE_S1.);
#438=EDGE_CURVE('OSCAD_TOPO/3|edge|e:6ab4232dbfb4c9200a89e7fdbbfdf1d0|b2a98654c03fcd121a17a46b9d2739f89c93af9967864c52a67cb7581374ebe1',#4,#6,#437,.T.);
#439=SURFACE_CURVE('',#100,(#193,#392),.PCURVE_S1.);
#440=EDGE_CURVE('OSCAD_TOPO/3|edge|e:c4277a8674a40f4a2834785fda2abb6e|569c84fb1ba4da17ac00181d650428ae59d467de1d8e1ccc184c492d9f05a7c1',#8,#6,#439,.T.);
#441=SEAM_CURVE('',#103,(#198,#248),.PCURVE_S1.);
#442=EDGE_CURVE('OSCAD_TOPO/3|edge|e:ee24c2e625aa0b0f6610a84f33c6404b|6ab10e467d5d03c76b1f679bc8145482f71700d6562f7191a222f21f6054f6aa',#2,#8,#441,.T.);
#443=SURFACE_CURVE('',#107,(#203,#356),.PCURVE_S1.);
#444=EDGE_CURVE('OSCAD_TOPO/3|edge|e:28b27ef9b071f0da66aa209dd676b106|795d64b86e5f2755b3ea982ce7cb2434a727b463e1d43f883f55bcb137087305',#4,#10,#443,.T.);
#445=SURFACE_CURVE('',#110,(#208,#238),.PCURVE_S1.);
#446=EDGE_CURVE('OSCAD_TOPO/3|edge|e:2dab4515472ab2267b2ecc5e2b80b790|6f4667ea4a7cff798d667585351938d38196c130a880e19ae7a6d8e3c3a6f495',#10,#12,#445,.T.);
#447=SURFACE_CURVE('',#114,(#213,#398),.PCURVE_S1.);
#448=EDGE_CURVE('OSCAD_TOPO/3|edge|e:bc38d9e22e75dc350a7ba2216521b4b6|f6032c457b04e0e3cb269bf0c5fea370d825dba7300f2f3279009b735d599822',#6,#12,#447,.T.);
#449=SURFACE_CURVE('',#118,(#223,#350),.PCURVE_S1.);
#450=EDGE_CURVE('OSCAD_TOPO/3|edge|e:ebb56be06ec41cd752697dd7d7206034|9584beee9845fe4e89e09ede40d47933b538860260f729eeb72a18109a3e56ee',#10,#14,#449,.T.);
#451=SURFACE_CURVE('',#121,(#228,#258),.PCURVE_S1.);
#452=EDGE_CURVE('OSCAD_TOPO/3|edge|e:68a1bec3fc75b36f7f3afa96fc985616|26d977a80e8f957b37c97312ffe67c97be1a9ea14a28562e5a89991ca01e97f0',#14,#16,#451,.T.);
#453=SURFACE_CURVE('',#125,(#233,#404),.PCURVE_S1.);
#454=EDGE_CURVE('OSCAD_TOPO/3|edge|e:28529b315c5993c39c0d42355943486d|9c21d77738e6f9c86c6eb71f12c18b752a76a388747555889acc1e5e4bdb490d',#12,#16,#453,.T.);
#455=SURFACE_CURVE('',#129,(#243,#344),.PCURVE_S1.);
#456=EDGE_CURVE('OSCAD_TOPO/3|edge|e:4ac96bce1c0cc652965028b603fc6891|17d7fd02d6911b887797b71ea8b8c67d0ab93c2d25ceb145edf2d1e990c063b8',#14,#2,#455,.T.);
#457=SURFACE_CURVE('',#133,(#253,#410),.PCURVE_S1.);
#458=EDGE_CURVE('OSCAD_TOPO/3|edge|e:7779cac6e746c9d31f1f95604288c763|0c1e897f7e698046b5423efe89fbe2ad59394ca19b19fcd5c4a8caf6a64750ee',#16,#8,#457,.T.);
#459=SURFACE_CURVE('',#137,(#263,#386),.PCURVE_S1.);
#460=EDGE_CURVE('OSCAD_TOPO/3|edge|e:b63e1aac8436ffa958b50728f0f07b35|3bbd7c57910fc967c0a816ab2dac9b592bce70328c75a8498699c71e57685dc4',#18,#20,#459,.T.);
#461=SURFACE_CURVE('',#140,(#268,#298),.PCURVE_S1.);
#462=EDGE_CURVE('OSCAD_TOPO/3|edge|e:89bd32989a6b6ace30a393f00a345760|005c87393b969005c912c26ceaadd25747ce6816d9c838b9bb836d0546ac08f9',#20,#22,#461,.T.);
#463=SURFACE_CURVE('',#144,(#273,#416),.PCURVE_S1.);
#464=EDGE_CURVE('OSCAD_TOPO/3|edge|e:be65b8a0f05c557f094c112262ba9b45|f33908b4399ad70759752124bb9f914354c8be8ee7f4926fa97f29dd86cad29b',#24,#22,#463,.T.);
#465=SURFACE_CURVE('',#147,(#278,#328),.PCURVE_S1.);
#466=EDGE_CURVE('OSCAD_TOPO/3|edge|e:0ca645defd6ef55739ccfad67d31c15b|20980a1bb2f3fbe9025b5cda3701a41cff7809fa45201286e4b10cd7d6f3d594',#18,#24,#465,.T.);
#467=SURFACE_CURVE('',#151,(#283,#380),.PCURVE_S1.);
#468=EDGE_CURVE('OSCAD_TOPO/3|edge|e:16c0a6ef458c8471012a5e50d4243d9d|118c3669a22cb139d2e84fe21a90cb088ada1781cf01755f1f9389904d3a7b83',#20,#26,#467,.T.);
#469=SURFACE_CURVE('',#154,(#288,#318),.PCURVE_S1.);
#470=EDGE_CURVE('OSCAD_TOPO/3|edge|e:2884f9884a719511fef7dae5562df80b|0d8e6aa60e908a399ba4a818bf624933188a3f4cc496a248c3d3c2cf8749d496',#26,#28,#469,.T.);
#471=SURFACE_CURVE('',#158,(#293,#422),.PCURVE_S1.);
#472=EDGE_CURVE('OSCAD_TOPO/3|edge|e:20708692f2ece7776532861af3ea2998|c4dc8cfb7946cc0709bf5ed3575a754faf70a6630dc38f0365cc90df218e1b93',#22,#28,#471,.T.);
#473=SURFACE_CURVE('',#162,(#303,#374),.PCURVE_S1.);
#474=EDGE_CURVE('OSCAD_TOPO/3|edge|e:60803eec01d38b9ffcd17f998b6af4e0|a7bfa03b08485e2680bf657fedeedc99a372331c6e7d90132e96746fd5c3f2c9',#26,#30,#473,.T.);
#475=SURFACE_CURVE('',#165,(#308,#338),.PCURVE_S1.);
#476=EDGE_CURVE('OSCAD_TOPO/3|edge|e:a70fd5d22f8adb8fa9585a83df016dd4|45c79e2dd6847bbe0b74359dfa32ea7d3d81d07db50cea21950ede1d2724b6b7',#30,#32,#475,.T.);
#477=SURFACE_CURVE('',#169,(#313,#428),.PCURVE_S1.);
#478=EDGE_CURVE('OSCAD_TOPO/3|edge|e:bbad19f6ce5925ab3676eb9da7b5fc9c|5fa453be21699cb3d67eb6efdc13578791e5cfc8219e2f197530e7f7c7645626',#28,#32,#477,.T.);
#479=SURFACE_CURVE('',#173,(#323,#368),.PCURVE_S1.);
#480=EDGE_CURVE('OSCAD_TOPO/3|edge|e:e1db1b769df2a32d365e1892126a8a2e|6754b8390afe6ac6f45e9f789de4435c633d459fd0320a1737063d72415e224e',#30,#18,#479,.T.);
#481=SURFACE_CURVE('',#177,(#333,#434),.PCURVE_S1.);
#482=EDGE_CURVE('OSCAD_TOPO/3|edge|e:67075122d41b7337a292800e7bb256a3|7c1d524b4843ed58417bcd1e0caff06506def84598e2269232a7db0158ce8b0b',#32,#24,#481,.T.);
#483=ORIENTED_EDGE('',*,*,#436,.T.);
#484=ORIENTED_EDGE('',*,*,#438,.T.);
#485=ORIENTED_EDGE('',*,*,#440,.F.);
#486=ORIENTED_EDGE('',*,*,#442,.F.);
#487=EDGE_LOOP('OSCAD_TOPO/3|loop|l:779989db8ee621e218924854f74d0ef7|5968e93959d72f459eaaa9795f5c7ade4a65092b43167331b87c988b27d4cb34',(#483,#484,#485,#486));
#488=ORIENTED_EDGE('',*,*,#444,.T.);
#489=ORIENTED_EDGE('',*,*,#446,.T.);
#490=ORIENTED_EDGE('',*,*,#448,.F.);
#491=ORIENTED_EDGE('',*,*,#438,.F.);
#492=EDGE_LOOP('OSCAD_TOPO/3|loop|l:d14deb6539ac5f03f9c8cb516657574c|012ce0282ee41b3c80f92594c007c51f884236afec9694b09417c90ab6334141',(#488,#489,#490,#491));
#493=ORIENTED_EDGE('',*,*,#450,.T.);
#494=ORIENTED_EDGE('',*,*,#452,.T.);
#495=ORIENTED_EDGE('',*,*,#454,.F.);
#496=ORIENTED_EDGE('',*,*,#446,.F.);
#497=EDGE_LOOP('OSCAD_TOPO/3|loop|l:4b757942028019c8e300aac53b47f886|1a4396ff2f10d259287bc5301f4764c46148df5acc5c5143409f646e244a52e8',(#493,#494,#495,#496));
#498=ORIENTED_EDGE('',*,*,#456,.T.);
#499=ORIENTED_EDGE('',*,*,#442,.T.);
#500=ORIENTED_EDGE('',*,*,#458,.F.);
#501=ORIENTED_EDGE('',*,*,#452,.F.);
#502=EDGE_LOOP('OSCAD_TOPO/3|loop|l:b0a4ac524cf4b240c39bd0d5b1994822|3c19daa36410ada461d308bf617c3a39fa2a265ff32bd70f92eeb669eb3c22f1',(#498,#499,#500,#501));
#503=ORIENTED_EDGE('',*,*,#460,.T.);
#504=ORIENTED_EDGE('',*,*,#462,.T.);
#505=ORIENTED_EDGE('',*,*,#464,.F.);
#506=ORIENTED_EDGE('',*,*,#466,.F.);
#507=EDGE_LOOP('OSCAD_TOPO/3|loop|l:134b18ec770413c2c8a20e2e022334ed|d91731c76a41f903325183768649747b3284ae655fa51494ea5ad648ecd7b195',(#503,#504,#505,#506));
#508=ORIENTED_EDGE('',*,*,#468,.T.);
#509=ORIENTED_EDGE('',*,*,#470,.T.);
#510=ORIENTED_EDGE('',*,*,#472,.F.);
#511=ORIENTED_EDGE('',*,*,#462,.F.);
#512=EDGE_LOOP('OSCAD_TOPO/3|loop|l:4f35d02e6d4774b94cf3086f8281c40f|fd8988f93f922824b2e8ff7dae4ac1fc532b3924e9489751ec92d6ba91260e72',(#508,#509,#510,#511));
#513=ORIENTED_EDGE('',*,*,#474,.T.);
#514=ORIENTED_EDGE('',*,*,#476,.T.);
#515=ORIENTED_EDGE('',*,*,#478,.F.);
#516=ORIENTED_EDGE('',*,*,#470,.F.);
#517=EDGE_LOOP('OSCAD_TOPO/3|loop|l:ec16b4619ee2a25441cdd8a7a526850d|31e9568e84b97488b56b042edf31523f6493554125cd98a6ee24ce8e4136c139',(#513,#514,#515,#516));
#518=ORIENTED_EDGE('',*,*,#480,.T.);
#519=ORIENTED_EDGE('',*,*,#466,.T.);
#520=ORIENTED_EDGE('',*,*,#482,.F.);
#521=ORIENTED_EDGE('',*,*,#476,.F.);
#522=EDGE_LOOP('OSCAD_TOPO/3|loop|l:f5abab6750363566ae66af9a3ed383cd|2c23fc7596fab802f04a1e7fcacd7c8ae396f7930b8c9f015d10fc22d7830bef',(#518,#519,#520,#521));
#523=ORIENTED_EDGE('',*,*,#456,.F.);
#524=ORIENTED_EDGE('',*,*,#450,.F.);
#525=ORIENTED_EDGE('',*,*,#444,.F.);
#526=ORIENTED_EDGE('',*,*,#436,.F.);
#527=EDGE_LOOP('OSCAD_TOPO/3|loop|l:d691333c269f325beec7786bbe701252|9a3770099d2f741daa2b72f97b62e116bacc25f29629caa152741256945d6f4f',(#523,#524,#525,#526));
#528=ORIENTED_EDGE('',*,*,#480,.F.);
#529=ORIENTED_EDGE('',*,*,#474,.F.);
#530=ORIENTED_EDGE('',*,*,#468,.F.);
#531=ORIENTED_EDGE('',*,*,#460,.F.);
#532=EDGE_LOOP('OSCAD_TOPO/3|loop|l:2bcc1a4914224f95a383295bb38f6f4b|c6a198dbbb5bec3bf2fa54666f5ea8735ccd2eb734ae5595075b07cca9af2993',(#528,#529,#530,#531));
#533=ORIENTED_EDGE('',*,*,#440,.T.);
#534=ORIENTED_EDGE('',*,*,#448,.T.);
#535=ORIENTED_EDGE('',*,*,#454,.T.);
#536=ORIENTED_EDGE('',*,*,#458,.T.);
#537=EDGE_LOOP('OSCAD_TOPO/3|loop|l:15de95bb2f25e8d419b64e0799856d46|a2d53440480ed898989bfc1f7b0b37fbb3eead78cb941d1384a8608a7bc17cf8',(#533,#534,#535,#536));
#538=ORIENTED_EDGE('',*,*,#464,.T.);
#539=ORIENTED_EDGE('',*,*,#472,.T.);
#540=ORIENTED_EDGE('',*,*,#478,.T.);
#541=ORIENTED_EDGE('',*,*,#482,.T.);
#542=EDGE_LOOP('OSCAD_TOPO/3|loop|l:2b212273b3f6eb8268a163878cd4d04e|391c7dfc8f88d1a0e45ade20313aad67e1f1f427be9135a3d85d0bdc46a14b98',(#538,#539,#540,#541));
#543=FACE_OUTER_BOUND('',#487,.T.);
#544=ADVANCED_FACE('OSCAD_TOPO/3|face|f:8d780bbfff35abaa3f678d3d11d3b1f5|d5a1b16e73ac2629144513825ed45373f9fd68a776749421b5187fb39348fab0',(#543),#51,.T.);
#545=FACE_OUTER_BOUND('',#492,.T.);
#546=ADVANCED_FACE('OSCAD_TOPO/3|face|f:ff9d6998a1ab5d24ea549d2600fbaa7f|80253c928f7fd91ceed25c9d77d4a07f5610b868b9067d6ba21311ae2d06f4d5',(#545),#51,.T.);
#547=FACE_OUTER_BOUND('',#497,.T.);
#548=ADVANCED_FACE('OSCAD_TOPO/3|face|f:d377aee909b0d642ddd7cb1d6d2325d5|1a14a0641bc4e6ae6aba2cc09f70c0c8865f7edf8fd5b6539046285ce49ec4fd',(#547),#51,.T.);
#549=FACE_OUTER_BOUND('',#502,.T.);
#550=ADVANCED_FACE('OSCAD_TOPO/3|face|f:2c31f1d187c9f8dc107e0bd125c0c54f|d3b55db165e5fe7f1c529765b85d7fd55fdafb546a028cb69e254b1f6e305dcd',(#549),#51,.T.);
#551=FACE_OUTER_BOUND('',#507,.T.);
#552=ADVANCED_FACE('OSCAD_TOPO/3|face|f:452a8789c8b9af02758dac0423ae2f13|ade5444181bbf9d8e387ea36fbfe75974b8bd2e969312137b994976549fe9457',(#551),#58,.T.);
#553=FACE_OUTER_BOUND('',#512,.T.);
#554=ADVANCED_FACE('OSCAD_TOPO/3|face|f:7005359177c6e6773ab3d9e99896da77|49b36648766c83a9fd5a9233414b111f34a289bf075922408cdea34e44e5769a',(#553),#65,.T.);
#555=FACE_OUTER_BOUND('',#517,.T.);
#556=ADVANCED_FACE('OSCAD_TOPO/3|face|f:e55ff6bbca87414487ef664de9c94359|73a547a4fd5b30b3814a6138ec8f24519102807c0c2ff476b808fb3beff8456f',(#555),#72,.T.);
#557=FACE_OUTER_BOUND('',#522,.T.);
#558=ADVANCED_FACE('OSCAD_TOPO/3|face|f:fc24a1ed78de35abdd57cd109d933f05|6f5c74a64583a4400fa07865848d9cf3c6e71f0265e886ad86f405aeef4edc24',(#557),#79,.T.);
#559=FACE_OUTER_BOUND('',#527,.T.);
#560=FACE_BOUND('',#532,.T.);
#561=ADVANCED_FACE('OSCAD_TOPO/3|face|f:bce6c25995ecd463b87020c21df7b826|4678ba5b62b473c7677d44151046efa3b5f64cbf05186a6f2e0a18573c93cce3',(#559,#560),#84,.T.);
#562=FACE_OUTER_BOUND('',#537,.T.);
#563=FACE_BOUND('',#542,.T.);
#564=ADVANCED_FACE('OSCAD_TOPO/3|face|f:5baaf050f72e0e48d07eec2092556c14|ba2ac18c45c726893ec5266b82984db72c5179ff634f8d8dca34ab33d5ef2812',(#562,#563),#89,.T.);
#565=CLOSED_SHELL('OSCAD_TOPO/3|shell|s:61fad354445eaf20ab737caea16b38ea|ecf23132c6875dca7a7e21d2957e6cd73b4007567031debde7a8386be716eefd',(#544,#546,#548,#550,#552,#554,#556,#558,#561,#564));
#566=MANIFOLD_SOLID_BREP('OSCAD_TOPO/3|body|b:cc6f82a71a236e918c2d902aad609f7d|0bbc126e45f0773a77e6b3de13aa5bb3edb47c36badc525adb1999511dcea6c2',#565);
#567=(LENGTH_UNIT()NAMED_UNIT(*)SI_UNIT(.MILLI.,.METRE.));
#568=UNCERTAINTY_MEASURE_WITH_UNIT(LENGTH_MEASURE(9.99999999999999955E-8),#567,'distance_accuracy_value','');
#569=(GEOMETRIC_REPRESENTATION_CONTEXT(3)GLOBAL_UNCERTAINTY_ASSIGNED_CONTEXT((#568))GLOBAL_UNIT_ASSIGNED_CONTEXT((#567))REPRESENTATION_CONTEXT('','3D'));
#570=ADVANCED_BREP_SHAPE_REPRESENTATION('',(#566),#569);
#571=APPLICATION_CONTEXT('managed model based 3d engineering');
#572=PRODUCT_CONTEXT('',#571,'mechanical');
#573=PRODUCT('model','model','',(#572));
#574=PRODUCT_DEFINITION_FORMATION('1','',#573);
#575=PRODUCT_DEFINITION_CONTEXT('part definition',#571,'design');
#576=PRODUCT_DEFINITION('design','',#574,#575);
#577=PRODUCT_DEFINITION_SHAPE('','',#576);
#578=SHAPE_DEFINITION_REPRESENTATION(#577,#570);
ENDSEC;
END-ISO-10303-21;
