ISO-10303-21;
HEADER;
FILE_DESCRIPTION(('OpenSCAD Viewer retained AP242 B-rep'),'2;1');
FILE_NAME('model.step','',(''),(''),'OpenSCAD Viewer','OpenSCAD Viewer','');
FILE_SCHEMA(('AP242_MANAGED_MODEL_BASED_3D_ENGINEERING_MIM_LF'));
ENDSEC;
DATA;
#1=CARTESIAN_POINT('',(-4.00000000000000000E0,-3.00000000000000000E0,0.00000000000000000E0));
#2=VERTEX_POINT('OSCAD_TOPO/3|vertex|v:e9159800197ac51a113f56318c8d95a4|3112ea7156227175d20b59c8f44ddf2826d8bf677f6890e64877650f2b445adb',#1);
#3=CARTESIAN_POINT('',(-4.00000000000000000E0,-3.00000000000000000E0,3.00000000000000000E0));
#4=VERTEX_POINT('OSCAD_TOPO/3|vertex|v:600fb3bb8007d4417f1bd97a0d035d2f|90bb0903987dede5e92873b094277ac1f831fade3de6188f325e491afdc413f6',#3);
#5=CARTESIAN_POINT('',(4.00000000000000000E0,-3.00000000000000000E0,0.00000000000000000E0));
#6=VERTEX_POINT('OSCAD_TOPO/3|vertex|v:e7818720f11f90bad27b72c175ef5e62|562b648f8b5e01a8f2d0aba388c5c50924dd5181946272b616e37e8594092355',#5);
#7=CARTESIAN_POINT('',(4.00000000000000000E0,-3.00000000000000000E0,3.00000000000000000E0));
#8=VERTEX_POINT('OSCAD_TOPO/3|vertex|v:a22b9347cec6a0096b20b661f201716a|6e619aacaa13aa93b2d73e389c7889ecd0fb8cc7b179bfc5055ffd343433c628',#7);
#9=CARTESIAN_POINT('',(4.00000000000000000E0,3.00000000000000000E0,0.00000000000000000E0));
#10=VERTEX_POINT('OSCAD_TOPO/3|vertex|v:09bc989ab136565eafa6b1c07c2981d5|507d060c77e70aa5d2c106c6f68d0769d867c2d881266133fa3112e99302022f',#9);
#11=CARTESIAN_POINT('',(4.00000000000000000E0,3.00000000000000000E0,3.00000000000000000E0));
#12=VERTEX_POINT('OSCAD_TOPO/3|vertex|v:2046836da1cb0161e78e5fcfa4b9d51b|6364f8d1bd2f6c056dbc154e8a49ddc604726cf721195c1da68f8b6da443082f',#11);
#13=CARTESIAN_POINT('',(-4.00000000000000000E0,3.00000000000000000E0,0.00000000000000000E0));
#14=VERTEX_POINT('OSCAD_TOPO/3|vertex|v:e5273027e5d9a1c351ac1948902111c7|420d20b7002b37effbea2be303b433412d83431f12a0188db432fa928a995590',#13);
#15=CARTESIAN_POINT('',(-4.00000000000000000E0,3.00000000000000000E0,3.00000000000000000E0));
#16=VERTEX_POINT('OSCAD_TOPO/3|vertex|v:54f6a287f9cc76bb962b16f9baecc301|9e3cef416cc7c166a4ae56505c5b7703a7f9f1ab68bd635229d9eb1e4c2c3f2d',#15);
#17=CARTESIAN_POINT('',(0.00000000000000000E0,2.00000000000000000E0,0.00000000000000000E0));
#18=VERTEX_POINT('OSCAD_TOPO/3|vertex|v:4da6a71bbd8682eea7476dfa8a111789|e58bff6b40d40faf3355976d3273446059fc0dd6c216a01efa7bae6850e9fb03',#17);
#19=CARTESIAN_POINT('',(0.00000000000000000E0,2.00000000000000000E0,3.00000000000000000E0));
#20=VERTEX_POINT('OSCAD_TOPO/3|vertex|v:95ffb6ed101327e0d3bf1fd71190acc8|b72804b121f55b2cd80557bd78fe1844bb676ef173867b58da612a4e83654824',#19);
#21=CARTESIAN_POINT('',(2.00000000000000000E0,0.00000000000000000E0,0.00000000000000000E0));
#22=VERTEX_POINT('OSCAD_TOPO/3|vertex|v:220e6fc475a9da38f53af60746604ed2|1dcac6380df9c51f2f20175abf4c52a78bcefb465c10760b4c3387485c81df72',#21);
#23=CARTESIAN_POINT('',(2.00000000000000000E0,0.00000000000000000E0,3.00000000000000000E0));
#24=VERTEX_POINT('OSCAD_TOPO/3|vertex|v:4b70ab8bc1634cafc56ace3775c1695d|f44bb44d58568641147154721f0c17d4727ada8f4c0d6d6f39636a784bc840d9',#23);
#25=CARTESIAN_POINT('',(0.00000000000000000E0,-2.00000000000000000E0,0.00000000000000000E0));
#26=VERTEX_POINT('OSCAD_TOPO/3|vertex|v:3a16a9cac804736d2977ee197f9edc3a|4b554a548339e786911b3142c30533798c63c3ec0ad9f015bc07a239beb37985',#25);
#27=CARTESIAN_POINT('',(0.00000000000000000E0,-2.00000000000000000E0,3.00000000000000000E0));
#28=VERTEX_POINT('OSCAD_TOPO/3|vertex|v:6a1a15f990020727260d567c1e0522de|70a9bb661a96f72be90dbd43d0e554aca76678681bf8f8ddc9e438172b5b085e',#27);
#29=CARTESIAN_POINT('',(-2.00000000000000000E0,0.00000000000000000E0,0.00000000000000000E0));
#30=VERTEX_POINT('OSCAD_TOPO/3|vertex|v:fd04dc2d6b4ab3525d530c03274411ba|dc1d54fe4fc06d4d6adc4e03ef8095471c8467513c042660b1b5445f11a2c965',#29);
#31=CARTESIAN_POINT('',(-2.00000000000000000E0,0.00000000000000000E0,3.00000000000000000E0));
#32=VERTEX_POINT('OSCAD_TOPO/3|vertex|v:5cee54df8c5d595cdbea2392750ab88c|fa6498bae7aa3b8114893ca89fddd766391a75de72fa863328788dddd2354028',#31);
#33=CARTESIAN_POINT('',(-4.00000000000000000E0,-3.00000000000000000E0,0.00000000000000000E0));
#34=CARTESIAN_POINT('',(-4.00000000000000000E0,-3.00000000000000000E0,3.00000000000000000E0));
#35=CARTESIAN_POINT('',(4.00000000000000000E0,-3.00000000000000000E0,0.00000000000000000E0));
#36=CARTESIAN_POINT('',(4.00000000000000000E0,-3.00000000000000000E0,3.00000000000000000E0));
#37=B_SPLINE_SURFACE_WITH_KNOTS('',1,1,((#33,#34),(#35,#36)),.UNSPECIFIED.,.F.,.F.,.F.,(2,2),(2,2),(0.00000000000000000E0,1.00000000000000000E0),(0.00000000000000000E0,1.00000000000000000E0),.UNSPECIFIED.);
#38=CARTESIAN_POINT('',(4.00000000000000000E0,-3.00000000000000000E0,0.00000000000000000E0));
#39=CARTESIAN_POINT('',(4.00000000000000000E0,-3.00000000000000000E0,3.00000000000000000E0));
#40=CARTESIAN_POINT('',(4.00000000000000000E0,3.00000000000000000E0,0.00000000000000000E0));
#41=CARTESIAN_POINT('',(4.00000000000000000E0,3.00000000000000000E0,3.00000000000000000E0));
#42=B_SPLINE_SURFACE_WITH_KNOTS('',1,1,((#38,#39),(#40,#41)),.UNSPECIFIED.,.F.,.F.,.F.,(2,2),(2,2),(0.00000000000000000E0,1.00000000000000000E0),(0.00000000000000000E0,1.00000000000000000E0),.UNSPECIFIED.);
#43=CARTESIAN_POINT('',(4.00000000000000000E0,3.00000000000000000E0,0.00000000000000000E0));
#44=CARTESIAN_POINT('',(4.00000000000000000E0,3.00000000000000000E0,3.00000000000000000E0));
#45=CARTESIAN_POINT('',(-4.00000000000000000E0,3.00000000000000000E0,0.00000000000000000E0));
#46=CARTESIAN_POINT('',(-4.00000000000000000E0,3.00000000000000000E0,3.00000000000000000E0));
#47=B_SPLINE_SURFACE_WITH_KNOTS('',1,1,((#43,#44),(#45,#46)),.UNSPECIFIED.,.F.,.F.,.F.,(2,2),(2,2),(0.00000000000000000E0,1.00000000000000000E0),(0.00000000000000000E0,1.00000000000000000E0),.UNSPECIFIED.);
#48=CARTESIAN_POINT('',(-4.00000000000000000E0,3.00000000000000000E0,0.00000000000000000E0));
#49=CARTESIAN_POINT('',(-4.00000000000000000E0,3.00000000000000000E0,3.00000000000000000E0));
#50=CARTESIAN_POINT('',(-4.00000000000000000E0,-3.00000000000000000E0,0.00000000000000000E0));
#51=CARTESIAN_POINT('',(-4.00000000000000000E0,-3.00000000000000000E0,3.00000000000000000E0));
#52=B_SPLINE_SURFACE_WITH_KNOTS('',1,1,((#48,#49),(#50,#51)),.UNSPECIFIED.,.F.,.F.,.F.,(2,2),(2,2),(0.00000000000000000E0,1.00000000000000000E0),(0.00000000000000000E0,1.00000000000000000E0),.UNSPECIFIED.);
#53=CARTESIAN_POINT('',(0.00000000000000000E0,2.00000000000000000E0,0.00000000000000000E0));
#54=CARTESIAN_POINT('',(0.00000000000000000E0,2.00000000000000000E0,3.00000000000000000E0));
#55=CARTESIAN_POINT('',(2.00000000000000000E0,2.00000000000000000E0,0.00000000000000000E0));
#56=CARTESIAN_POINT('',(2.00000000000000000E0,2.00000000000000000E0,3.00000000000000000E0));
#57=CARTESIAN_POINT('',(2.00000000000000000E0,0.00000000000000000E0,0.00000000000000000E0));
#58=CARTESIAN_POINT('',(2.00000000000000000E0,0.00000000000000000E0,3.00000000000000000E0));
#59=(BOUNDED_SURFACE()B_SPLINE_SURFACE(2,1,((#53,#54),(#55,#56),(#57,#58)),.UNSPECIFIED.,.F.,.F.,.F.)B_SPLINE_SURFACE_WITH_KNOTS((3,3),(2,2),(0.00000000000000000E0,1.00000000000000000E0),(0.00000000000000000E0,1.00000000000000000E0),.UNSPECIFIED.)GEOMETRIC_REPRESENTATION_ITEM()RATIONAL_B_SPLINE_SURFACE(((1.00000000000000000E0,1.00000000000000000E0),(7.07106781186547573E-1,7.07106781186547573E-1),(1.00000000000000000E0,1.00000000000000000E0)))REPRESENTATION_ITEM('')SURFACE());
#60=CARTESIAN_POINT('',(2.00000000000000000E0,0.00000000000000000E0,0.00000000000000000E0));
#61=CARTESIAN_POINT('',(2.00000000000000000E0,0.00000000000000000E0,3.00000000000000000E0));
#62=CARTESIAN_POINT('',(2.00000000000000000E0,-2.00000000000000000E0,0.00000000000000000E0));
#63=CARTESIAN_POINT('',(2.00000000000000000E0,-2.00000000000000000E0,3.00000000000000000E0));
#64=CARTESIAN_POINT('',(0.00000000000000000E0,-2.00000000000000000E0,0.00000000000000000E0));
#65=CARTESIAN_POINT('',(0.00000000000000000E0,-2.00000000000000000E0,3.00000000000000000E0));
#66=(BOUNDED_SURFACE()B_SPLINE_SURFACE(2,1,((#60,#61),(#62,#63),(#64,#65)),.UNSPECIFIED.,.F.,.F.,.F.)B_SPLINE_SURFACE_WITH_KNOTS((3,3),(2,2),(0.00000000000000000E0,1.00000000000000000E0),(0.00000000000000000E0,1.00000000000000000E0),.UNSPECIFIED.)GEOMETRIC_REPRESENTATION_ITEM()RATIONAL_B_SPLINE_SURFACE(((1.00000000000000000E0,1.00000000000000000E0),(7.07106781186547573E-1,7.07106781186547573E-1),(1.00000000000000000E0,1.00000000000000000E0)))REPRESENTATION_ITEM('')SURFACE());
#67=CARTESIAN_POINT('',(0.00000000000000000E0,-2.00000000000000000E0,0.00000000000000000E0));
#68=CARTESIAN_POINT('',(0.00000000000000000E0,-2.00000000000000000E0,3.00000000000000000E0));
#69=CARTESIAN_POINT('',(-2.00000000000000000E0,-2.00000000000000000E0,0.00000000000000000E0));
#70=CARTESIAN_POINT('',(-2.00000000000000000E0,-2.00000000000000000E0,3.00000000000000000E0));
#71=CARTESIAN_POINT('',(-2.00000000000000000E0,0.00000000000000000E0,0.00000000000000000E0));
#72=CARTESIAN_POINT('',(-2.00000000000000000E0,0.00000000000000000E0,3.00000000000000000E0));
#73=(BOUNDED_SURFACE()B_SPLINE_SURFACE(2,1,((#67,#68),(#69,#70),(#71,#72)),.UNSPECIFIED.,.F.,.F.,.F.)B_SPLINE_SURFACE_WITH_KNOTS((3,3),(2,2),(0.00000000000000000E0,1.00000000000000000E0),(0.00000000000000000E0,1.00000000000000000E0),.UNSPECIFIED.)GEOMETRIC_REPRESENTATION_ITEM()RATIONAL_B_SPLINE_SURFACE(((1.00000000000000000E0,1.00000000000000000E0),(7.07106781186547573E-1,7.07106781186547573E-1),(1.00000000000000000E0,1.00000000000000000E0)))REPRESENTATION_ITEM('')SURFACE());
#74=CARTESIAN_POINT('',(-2.00000000000000000E0,0.00000000000000000E0,0.00000000000000000E0));
#75=CARTESIAN_POINT('',(-2.00000000000000000E0,0.00000000000000000E0,3.00000000000000000E0));
#76=CARTESIAN_POINT('',(-2.00000000000000000E0,2.00000000000000000E0,0.00000000000000000E0));
#77=CARTESIAN_POINT('',(-2.00000000000000000E0,2.00000000000000000E0,3.00000000000000000E0));
#78=CARTESIAN_POINT('',(0.00000000000000000E0,2.00000000000000000E0,0.00000000000000000E0));
#79=CARTESIAN_POINT('',(0.00000000000000000E0,2.00000000000000000E0,3.00000000000000000E0));
#80=(BOUNDED_SURFACE()B_SPLINE_SURFACE(2,1,((#74,#75),(#76,#77),(#78,#79)),.UNSPECIFIED.,.F.,.F.,.F.)B_SPLINE_SURFACE_WITH_KNOTS((3,3),(2,2),(0.00000000000000000E0,1.00000000000000000E0),(0.00000000000000000E0,1.00000000000000000E0),.UNSPECIFIED.)GEOMETRIC_REPRESENTATION_ITEM()RATIONAL_B_SPLINE_SURFACE(((1.00000000000000000E0,1.00000000000000000E0),(7.07106781186547573E-1,7.07106781186547573E-1),(1.00000000000000000E0,1.00000000000000000E0)))REPRESENTATION_ITEM('')SURFACE());
#81=CARTESIAN_POINT('',(4.00000000000000000E0,-3.00000000000000000E0,0.00000000000000000E0));
#82=CARTESIAN_POINT('',(4.00000000000000000E0,3.00000000000000000E0,0.00000000000000000E0));
#83=CARTESIAN_POINT('',(-4.00000000000000000E0,-3.00000000000000000E0,0.00000000000000000E0));
#84=CARTESIAN_POINT('',(-4.00000000000000000E0,3.00000000000000000E0,0.00000000000000000E0));
#85=B_SPLINE_SURFACE_WITH_KNOTS('',1,1,((#81,#82),(#83,#84)),.UNSPECIFIED.,.F.,.F.,.F.,(2,2),(2,2),(0.00000000000000000E0,1.00000000000000000E0),(0.00000000000000000E0,1.00000000000000000E0),.UNSPECIFIED.);
#86=CARTESIAN_POINT('',(-4.00000000000000000E0,-3.00000000000000000E0,3.00000000000000000E0));
#87=CARTESIAN_POINT('',(-4.00000000000000000E0,3.00000000000000000E0,3.00000000000000000E0));
#88=CARTESIAN_POINT('',(4.00000000000000000E0,-3.00000000000000000E0,3.00000000000000000E0));
#89=CARTESIAN_POINT('',(4.00000000000000000E0,3.00000000000000000E0,3.00000000000000000E0));
#90=B_SPLINE_SURFACE_WITH_KNOTS('',1,1,((#86,#87),(#88,#89)),.UNSPECIFIED.,.F.,.F.,.F.,(2,2),(2,2),(0.00000000000000000E0,1.00000000000000000E0),(0.00000000000000000E0,1.00000000000000000E0),.UNSPECIFIED.);
#91=CARTESIAN_POINT('',(-4.00000000000000000E0,-3.00000000000000000E0,0.00000000000000000E0));
#92=CARTESIAN_POINT('',(4.00000000000000000E0,-3.00000000000000000E0,0.00000000000000000E0));
#93=B_SPLINE_CURVE_WITH_KNOTS('',1,(#91,#92),.UNSPECIFIED.,.F.,.F.,(2,2),(0.00000000000000000E0,1.00000000000000000E0),.UNSPECIFIED.);
#94=CARTESIAN_POINT('',(-4.00000000000000000E0,-3.00000000000000000E0,3.00000000000000000E0));
#95=CARTESIAN_POINT('',(4.00000000000000000E0,-3.00000000000000000E0,3.00000000000000000E0));
#96=B_SPLINE_CURVE_WITH_KNOTS('',1,(#94,#95),.UNSPECIFIED.,.F.,.F.,(2,2),(0.00000000000000000E0,1.00000000000000000E0),.UNSPECIFIED.);
#97=CARTESIAN_POINT('',(-4.00000000000000000E0,-3.00000000000000000E0,0.00000000000000000E0));
#98=CARTESIAN_POINT('',(-4.00000000000000000E0,-3.00000000000000000E0,3.00000000000000000E0));
#99=B_SPLINE_CURVE_WITH_KNOTS('',1,(#97,#98),.UNSPECIFIED.,.F.,.F.,(2,2),(0.00000000000000000E0,1.00000000000000000E0),.UNSPECIFIED.);
#100=CARTESIAN_POINT('',(4.00000000000000000E0,-3.00000000000000000E0,0.00000000000000000E0));
#101=CARTESIAN_POINT('',(4.00000000000000000E0,3.00000000000000000E0,0.00000000000000000E0));
#102=B_SPLINE_CURVE_WITH_KNOTS('',1,(#100,#101),.UNSPECIFIED.,.F.,.F.,(2,2),(0.00000000000000000E0,1.00000000000000000E0),.UNSPECIFIED.);
#103=CARTESIAN_POINT('',(4.00000000000000000E0,-3.00000000000000000E0,3.00000000000000000E0));
#104=CARTESIAN_POINT('',(4.00000000000000000E0,3.00000000000000000E0,3.00000000000000000E0));
#105=B_SPLINE_CURVE_WITH_KNOTS('',1,(#103,#104),.UNSPECIFIED.,.F.,.F.,(2,2),(0.00000000000000000E0,1.00000000000000000E0),.UNSPECIFIED.);
#106=CARTESIAN_POINT('',(4.00000000000000000E0,-3.00000000000000000E0,0.00000000000000000E0));
#107=CARTESIAN_POINT('',(4.00000000000000000E0,-3.00000000000000000E0,3.00000000000000000E0));
#108=B_SPLINE_CURVE_WITH_KNOTS('',1,(#106,#107),.UNSPECIFIED.,.F.,.F.,(2,2),(0.00000000000000000E0,1.00000000000000000E0),.UNSPECIFIED.);
#109=CARTESIAN_POINT('',(4.00000000000000000E0,3.00000000000000000E0,0.00000000000000000E0));
#110=CARTESIAN_POINT('',(-4.00000000000000000E0,3.00000000000000000E0,0.00000000000000000E0));
#111=B_SPLINE_CURVE_WITH_KNOTS('',1,(#109,#110),.UNSPECIFIED.,.F.,.F.,(2,2),(0.00000000000000000E0,1.00000000000000000E0),.UNSPECIFIED.);
#112=CARTESIAN_POINT('',(4.00000000000000000E0,3.00000000000000000E0,3.00000000000000000E0));
#113=CARTESIAN_POINT('',(-4.00000000000000000E0,3.00000000000000000E0,3.00000000000000000E0));
#114=B_SPLINE_CURVE_WITH_KNOTS('',1,(#112,#113),.UNSPECIFIED.,.F.,.F.,(2,2),(0.00000000000000000E0,1.00000000000000000E0),.UNSPECIFIED.);
#115=CARTESIAN_POINT('',(4.00000000000000000E0,3.00000000000000000E0,0.00000000000000000E0));
#116=CARTESIAN_POINT('',(4.00000000000000000E0,3.00000000000000000E0,3.00000000000000000E0));
#117=B_SPLINE_CURVE_WITH_KNOTS('',1,(#115,#116),.UNSPECIFIED.,.F.,.F.,(2,2),(0.00000000000000000E0,1.00000000000000000E0),.UNSPECIFIED.);
#118=CARTESIAN_POINT('',(-4.00000000000000000E0,3.00000000000000000E0,0.00000000000000000E0));
#119=CARTESIAN_POINT('',(-4.00000000000000000E0,-3.00000000000000000E0,0.00000000000000000E0));
#120=B_SPLINE_CURVE_WITH_KNOTS('',1,(#118,#119),.UNSPECIFIED.,.F.,.F.,(2,2),(0.00000000000000000E0,1.00000000000000000E0),.UNSPECIFIED.);
#121=CARTESIAN_POINT('',(-4.00000000000000000E0,3.00000000000000000E0,3.00000000000000000E0));
#122=CARTESIAN_POINT('',(-4.00000000000000000E0,-3.00000000000000000E0,3.00000000000000000E0));
#123=B_SPLINE_CURVE_WITH_KNOTS('',1,(#121,#122),.UNSPECIFIED.,.F.,.F.,(2,2),(0.00000000000000000E0,1.00000000000000000E0),.UNSPECIFIED.);
#124=CARTESIAN_POINT('',(-4.00000000000000000E0,3.00000000000000000E0,0.00000000000000000E0));
#125=CARTESIAN_POINT('',(-4.00000000000000000E0,3.00000000000000000E0,3.00000000000000000E0));
#126=B_SPLINE_CURVE_WITH_KNOTS('',1,(#124,#125),.UNSPECIFIED.,.F.,.F.,(2,2),(0.00000000000000000E0,1.00000000000000000E0),.UNSPECIFIED.);
#127=CARTESIAN_POINT('',(0.00000000000000000E0,2.00000000000000000E0,0.00000000000000000E0));
#128=CARTESIAN_POINT('',(2.00000000000000000E0,2.00000000000000000E0,0.00000000000000000E0));
#129=CARTESIAN_POINT('',(2.00000000000000000E0,0.00000000000000000E0,0.00000000000000000E0));
#130=(BOUNDED_CURVE()B_SPLINE_CURVE(2,(#127,#128,#129),.UNSPECIFIED.,.F.,.F.)B_SPLINE_CURVE_WITH_KNOTS((3,3),(0.00000000000000000E0,1.00000000000000000E0),.UNSPECIFIED.)CURVE()GEOMETRIC_REPRESENTATION_ITEM()RATIONAL_B_SPLINE_CURVE((1.00000000000000000E0,7.07106781186547573E-1,1.00000000000000000E0))REPRESENTATION_ITEM(''));
#131=CARTESIAN_POINT('',(0.00000000000000000E0,2.00000000000000000E0,3.00000000000000000E0));
#132=CARTESIAN_POINT('',(2.00000000000000000E0,2.00000000000000000E0,3.00000000000000000E0));
#133=CARTESIAN_POINT('',(2.00000000000000000E0,0.00000000000000000E0,3.00000000000000000E0));
#134=(BOUNDED_CURVE()B_SPLINE_CURVE(2,(#131,#132,#133),.UNSPECIFIED.,.F.,.F.)B_SPLINE_CURVE_WITH_KNOTS((3,3),(0.00000000000000000E0,1.00000000000000000E0),.UNSPECIFIED.)CURVE()GEOMETRIC_REPRESENTATION_ITEM()RATIONAL_B_SPLINE_CURVE((1.00000000000000000E0,7.07106781186547573E-1,1.00000000000000000E0))REPRESENTATION_ITEM(''));
#135=CARTESIAN_POINT('',(0.00000000000000000E0,2.00000000000000000E0,0.00000000000000000E0));
#136=CARTESIAN_POINT('',(0.00000000000000000E0,2.00000000000000000E0,3.00000000000000000E0));
#137=B_SPLINE_CURVE_WITH_KNOTS('',1,(#135,#136),.UNSPECIFIED.,.F.,.F.,(2,2),(0.00000000000000000E0,1.00000000000000000E0),.UNSPECIFIED.);
#138=CARTESIAN_POINT('',(2.00000000000000000E0,0.00000000000000000E0,0.00000000000000000E0));
#139=CARTESIAN_POINT('',(2.00000000000000000E0,-2.00000000000000000E0,0.00000000000000000E0));
#140=CARTESIAN_POINT('',(0.00000000000000000E0,-2.00000000000000000E0,0.00000000000000000E0));
#141=(BOUNDED_CURVE()B_SPLINE_CURVE(2,(#138,#139,#140),.UNSPECIFIED.,.F.,.F.)B_SPLINE_CURVE_WITH_KNOTS((3,3),(0.00000000000000000E0,1.00000000000000000E0),.UNSPECIFIED.)CURVE()GEOMETRIC_REPRESENTATION_ITEM()RATIONAL_B_SPLINE_CURVE((1.00000000000000000E0,7.07106781186547573E-1,1.00000000000000000E0))REPRESENTATION_ITEM(''));
#142=CARTESIAN_POINT('',(2.00000000000000000E0,0.00000000000000000E0,3.00000000000000000E0));
#143=CARTESIAN_POINT('',(2.00000000000000000E0,-2.00000000000000000E0,3.00000000000000000E0));
#144=CARTESIAN_POINT('',(0.00000000000000000E0,-2.00000000000000000E0,3.00000000000000000E0));
#145=(BOUNDED_CURVE()B_SPLINE_CURVE(2,(#142,#143,#144),.UNSPECIFIED.,.F.,.F.)B_SPLINE_CURVE_WITH_KNOTS((3,3),(0.00000000000000000E0,1.00000000000000000E0),.UNSPECIFIED.)CURVE()GEOMETRIC_REPRESENTATION_ITEM()RATIONAL_B_SPLINE_CURVE((1.00000000000000000E0,7.07106781186547573E-1,1.00000000000000000E0))REPRESENTATION_ITEM(''));
#146=CARTESIAN_POINT('',(2.00000000000000000E0,0.00000000000000000E0,0.00000000000000000E0));
#147=CARTESIAN_POINT('',(2.00000000000000000E0,0.00000000000000000E0,3.00000000000000000E0));
#148=B_SPLINE_CURVE_WITH_KNOTS('',1,(#146,#147),.UNSPECIFIED.,.F.,.F.,(2,2),(0.00000000000000000E0,1.00000000000000000E0),.UNSPECIFIED.);
#149=CARTESIAN_POINT('',(0.00000000000000000E0,-2.00000000000000000E0,0.00000000000000000E0));
#150=CARTESIAN_POINT('',(-2.00000000000000000E0,-2.00000000000000000E0,0.00000000000000000E0));
#151=CARTESIAN_POINT('',(-2.00000000000000000E0,0.00000000000000000E0,0.00000000000000000E0));
#152=(BOUNDED_CURVE()B_SPLINE_CURVE(2,(#149,#150,#151),.UNSPECIFIED.,.F.,.F.)B_SPLINE_CURVE_WITH_KNOTS((3,3),(0.00000000000000000E0,1.00000000000000000E0),.UNSPECIFIED.)CURVE()GEOMETRIC_REPRESENTATION_ITEM()RATIONAL_B_SPLINE_CURVE((1.00000000000000000E0,7.07106781186547573E-1,1.00000000000000000E0))REPRESENTATION_ITEM(''));
#153=CARTESIAN_POINT('',(0.00000000000000000E0,-2.00000000000000000E0,3.00000000000000000E0));
#154=CARTESIAN_POINT('',(-2.00000000000000000E0,-2.00000000000000000E0,3.00000000000000000E0));
#155=CARTESIAN_POINT('',(-2.00000000000000000E0,0.00000000000000000E0,3.00000000000000000E0));
#156=(BOUNDED_CURVE()B_SPLINE_CURVE(2,(#153,#154,#155),.UNSPECIFIED.,.F.,.F.)B_SPLINE_CURVE_WITH_KNOTS((3,3),(0.00000000000000000E0,1.00000000000000000E0),.UNSPECIFIED.)CURVE()GEOMETRIC_REPRESENTATION_ITEM()RATIONAL_B_SPLINE_CURVE((1.00000000000000000E0,7.07106781186547573E-1,1.00000000000000000E0))REPRESENTATION_ITEM(''));
#157=CARTESIAN_POINT('',(0.00000000000000000E0,-2.00000000000000000E0,0.00000000000000000E0));
#158=CARTESIAN_POINT('',(0.00000000000000000E0,-2.00000000000000000E0,3.00000000000000000E0));
#159=B_SPLINE_CURVE_WITH_KNOTS('',1,(#157,#158),.UNSPECIFIED.,.F.,.F.,(2,2),(0.00000000000000000E0,1.00000000000000000E0),.UNSPECIFIED.);
#160=CARTESIAN_POINT('',(-2.00000000000000000E0,0.00000000000000000E0,0.00000000000000000E0));
#161=CARTESIAN_POINT('',(-2.00000000000000000E0,2.00000000000000000E0,0.00000000000000000E0));
#162=CARTESIAN_POINT('',(0.00000000000000000E0,2.00000000000000000E0,0.00000000000000000E0));
#163=(BOUNDED_CURVE()B_SPLINE_CURVE(2,(#160,#161,#162),.UNSPECIFIED.,.F.,.F.)B_SPLINE_CURVE_WITH_KNOTS((3,3),(0.00000000000000000E0,1.00000000000000000E0),.UNSPECIFIED.)CURVE()GEOMETRIC_REPRESENTATION_ITEM()RATIONAL_B_SPLINE_CURVE((1.00000000000000000E0,7.07106781186547573E-1,1.00000000000000000E0))REPRESENTATION_ITEM(''));
#164=CARTESIAN_POINT('',(-2.00000000000000000E0,0.00000000000000000E0,3.00000000000000000E0));
#165=CARTESIAN_POINT('',(-2.00000000000000000E0,2.00000000000000000E0,3.00000000000000000E0));
#166=CARTESIAN_POINT('',(0.00000000000000000E0,2.00000000000000000E0,3.00000000000000000E0));
#167=(BOUNDED_CURVE()B_SPLINE_CURVE(2,(#164,#165,#166),.UNSPECIFIED.,.F.,.F.)B_SPLINE_CURVE_WITH_KNOTS((3,3),(0.00000000000000000E0,1.00000000000000000E0),.UNSPECIFIED.)CURVE()GEOMETRIC_REPRESENTATION_ITEM()RATIONAL_B_SPLINE_CURVE((1.00000000000000000E0,7.07106781186547573E-1,1.00000000000000000E0))REPRESENTATION_ITEM(''));
#168=CARTESIAN_POINT('',(-2.00000000000000000E0,0.00000000000000000E0,0.00000000000000000E0));
#169=CARTESIAN_POINT('',(-2.00000000000000000E0,0.00000000000000000E0,3.00000000000000000E0));
#170=B_SPLINE_CURVE_WITH_KNOTS('',1,(#168,#169),.UNSPECIFIED.,.F.,.F.,(2,2),(0.00000000000000000E0,1.00000000000000000E0),.UNSPECIFIED.);
#171=(GEOMETRIC_REPRESENTATION_CONTEXT(2)REPRESENTATION_CONTEXT('','2D'));
#172=CARTESIAN_POINT('',(1.00000000000000000E0,0.00000000000000000E0));
#173=CARTESIAN_POINT('',(1.00000000000000000E0,1.00000000000000000E0));
#174=B_SPLINE_CURVE_WITH_KNOTS('',1,(#172,#173),.UNSPECIFIED.,.F.,.F.,(2,2),(0.00000000000000000E0,1.00000000000000000E0),.UNSPECIFIED.);
#175=DEFINITIONAL_REPRESENTATION('',(#174),#171);
#176=PCURVE('',#85,#175);
#177=CARTESIAN_POINT('',(1.00000000000000000E0,1.00000000000000000E0));
#178=CARTESIAN_POINT('',(0.00000000000000000E0,1.00000000000000000E0));
#179=B_SPLINE_CURVE_WITH_KNOTS('',1,(#177,#178),.UNSPECIFIED.,.F.,.F.,(2,2),(0.00000000000000000E0,1.00000000000000000E0),.UNSPECIFIED.);
#180=DEFINITIONAL_REPRESENTATION('',(#179),#171);
#181=PCURVE('',#85,#180);
#182=CARTESIAN_POINT('',(0.00000000000000000E0,1.00000000000000000E0));
#183=CARTESIAN_POINT('',(0.00000000000000000E0,0.00000000000000000E0));
#184=B_SPLINE_CURVE_WITH_KNOTS('',1,(#182,#183),.UNSPECIFIED.,.F.,.F.,(2,2),(0.00000000000000000E0,1.00000000000000000E0),.UNSPECIFIED.);
#185=DEFINITIONAL_REPRESENTATION('',(#184),#171);
#186=PCURVE('',#85,#185);
#187=CARTESIAN_POINT('',(0.00000000000000000E0,0.00000000000000000E0));
#188=CARTESIAN_POINT('',(1.00000000000000000E0,0.00000000000000000E0));
#189=B_SPLINE_CURVE_WITH_KNOTS('',1,(#187,#188),.UNSPECIFIED.,.F.,.F.,(2,2),(0.00000000000000000E0,1.00000000000000000E0),.UNSPECIFIED.);
#190=DEFINITIONAL_REPRESENTATION('',(#189),#171);
#191=PCURVE('',#85,#190);
#192=CARTESIAN_POINT('',(0.00000000000000000E0,0.00000000000000000E0));
#193=CARTESIAN_POINT('',(1.00000000000000000E0,0.00000000000000000E0));
#194=B_SPLINE_CURVE_WITH_KNOTS('',1,(#192,#193),.UNSPECIFIED.,.F.,.F.,(2,2),(0.00000000000000000E0,1.00000000000000000E0),.UNSPECIFIED.);
#195=DEFINITIONAL_REPRESENTATION('',(#194),#171);
#196=PCURVE('',#90,#195);
#197=CARTESIAN_POINT('',(1.00000000000000000E0,0.00000000000000000E0));
#198=CARTESIAN_POINT('',(1.00000000000000000E0,1.00000000000000000E0));
#199=B_SPLINE_CURVE_WITH_KNOTS('',1,(#197,#198),.UNSPECIFIED.,.F.,.F.,(2,2),(0.00000000000000000E0,1.00000000000000000E0),.UNSPECIFIED.);
#200=DEFINITIONAL_REPRESENTATION('',(#199),#171);
#201=PCURVE('',#90,#200);
#202=CARTESIAN_POINT('',(1.00000000000000000E0,1.00000000000000000E0));
#203=CARTESIAN_POINT('',(0.00000000000000000E0,1.00000000000000000E0));
#204=B_SPLINE_CURVE_WITH_KNOTS('',1,(#202,#203),.UNSPECIFIED.,.F.,.F.,(2,2),(0.00000000000000000E0,1.00000000000000000E0),.UNSPECIFIED.);
#205=DEFINITIONAL_REPRESENTATION('',(#204),#171);
#206=PCURVE('',#90,#205);
#207=CARTESIAN_POINT('',(0.00000000000000000E0,1.00000000000000000E0));
#208=CARTESIAN_POINT('',(0.00000000000000000E0,0.00000000000000000E0));
#209=B_SPLINE_CURVE_WITH_KNOTS('',1,(#207,#208),.UNSPECIFIED.,.F.,.F.,(2,2),(0.00000000000000000E0,1.00000000000000000E0),.UNSPECIFIED.);
#210=DEFINITIONAL_REPRESENTATION('',(#209),#171);
#211=PCURVE('',#90,#210);
#212=CARTESIAN_POINT('',(0.00000000000000000E0,0.00000000000000000E0));
#213=CARTESIAN_POINT('',(1.00000000000000000E0,0.00000000000000000E0));
#214=B_SPLINE_CURVE_WITH_KNOTS('',1,(#212,#213),.UNSPECIFIED.,.F.,.F.,(2,2),(0.00000000000000000E0,1.00000000000000000E0),.UNSPECIFIED.);
#215=DEFINITIONAL_REPRESENTATION('',(#214),#171);
#216=PCURVE('',#37,#215);
#217=CARTESIAN_POINT('',(1.00000000000000000E0,0.00000000000000000E0));
#218=CARTESIAN_POINT('',(1.00000000000000000E0,1.00000000000000000E0));
#219=B_SPLINE_CURVE_WITH_KNOTS('',1,(#217,#218),.UNSPECIFIED.,.F.,.F.,(2,2),(0.00000000000000000E0,1.00000000000000000E0),.UNSPECIFIED.);
#220=DEFINITIONAL_REPRESENTATION('',(#219),#171);
#221=PCURVE('',#37,#220);
#222=CARTESIAN_POINT('',(1.00000000000000000E0,1.00000000000000000E0));
#223=CARTESIAN_POINT('',(0.00000000000000000E0,1.00000000000000000E0));
#224=B_SPLINE_CURVE_WITH_KNOTS('',1,(#222,#223),.UNSPECIFIED.,.F.,.F.,(2,2),(0.00000000000000000E0,1.00000000000000000E0),.UNSPECIFIED.);
#225=DEFINITIONAL_REPRESENTATION('',(#224),#171);
#226=PCURVE('',#37,#225);
#227=CARTESIAN_POINT('',(0.00000000000000000E0,1.00000000000000000E0));
#228=CARTESIAN_POINT('',(0.00000000000000000E0,0.00000000000000000E0));
#229=B_SPLINE_CURVE_WITH_KNOTS('',1,(#227,#228),.UNSPECIFIED.,.F.,.F.,(2,2),(0.00000000000000000E0,1.00000000000000000E0),.UNSPECIFIED.);
#230=DEFINITIONAL_REPRESENTATION('',(#229),#171);
#231=PCURVE('',#37,#230);
#232=CARTESIAN_POINT('',(0.00000000000000000E0,0.00000000000000000E0));
#233=CARTESIAN_POINT('',(1.00000000000000000E0,0.00000000000000000E0));
#234=B_SPLINE_CURVE_WITH_KNOTS('',1,(#232,#233),.UNSPECIFIED.,.F.,.F.,(2,2),(0.00000000000000000E0,1.00000000000000000E0),.UNSPECIFIED.);
#235=DEFINITIONAL_REPRESENTATION('',(#234),#171);
#236=PCURVE('',#42,#235);
#237=CARTESIAN_POINT('',(1.00000000000000000E0,0.00000000000000000E0));
#238=CARTESIAN_POINT('',(1.00000000000000000E0,1.00000000000000000E0));
#239=B_SPLINE_CURVE_WITH_KNOTS('',1,(#237,#238),.UNSPECIFIED.,.F.,.F.,(2,2),(0.00000000000000000E0,1.00000000000000000E0),.UNSPECIFIED.);
#240=DEFINITIONAL_REPRESENTATION('',(#239),#171);
#241=PCURVE('',#42,#240);
#242=CARTESIAN_POINT('',(1.00000000000000000E0,1.00000000000000000E0));
#243=CARTESIAN_POINT('',(0.00000000000000000E0,1.00000000000000000E0));
#244=B_SPLINE_CURVE_WITH_KNOTS('',1,(#242,#243),.UNSPECIFIED.,.F.,.F.,(2,2),(0.00000000000000000E0,1.00000000000000000E0),.UNSPECIFIED.);
#245=DEFINITIONAL_REPRESENTATION('',(#244),#171);
#246=PCURVE('',#42,#245);
#247=CARTESIAN_POINT('',(0.00000000000000000E0,1.00000000000000000E0));
#248=CARTESIAN_POINT('',(0.00000000000000000E0,0.00000000000000000E0));
#249=B_SPLINE_CURVE_WITH_KNOTS('',1,(#247,#248),.UNSPECIFIED.,.F.,.F.,(2,2),(0.00000000000000000E0,1.00000000000000000E0),.UNSPECIFIED.);
#250=DEFINITIONAL_REPRESENTATION('',(#249),#171);
#251=PCURVE('',#42,#250);
#252=CARTESIAN_POINT('',(0.00000000000000000E0,0.00000000000000000E0));
#253=CARTESIAN_POINT('',(1.00000000000000000E0,0.00000000000000000E0));
#254=B_SPLINE_CURVE_WITH_KNOTS('',1,(#252,#253),.UNSPECIFIED.,.F.,.F.,(2,2),(0.00000000000000000E0,1.00000000000000000E0),.UNSPECIFIED.);
#255=DEFINITIONAL_REPRESENTATION('',(#254),#171);
#256=PCURVE('',#47,#255);
#257=CARTESIAN_POINT('',(1.00000000000000000E0,0.00000000000000000E0));
#258=CARTESIAN_POINT('',(1.00000000000000000E0,1.00000000000000000E0));
#259=B_SPLINE_CURVE_WITH_KNOTS('',1,(#257,#258),.UNSPECIFIED.,.F.,.F.,(2,2),(0.00000000000000000E0,1.00000000000000000E0),.UNSPECIFIED.);
#260=DEFINITIONAL_REPRESENTATION('',(#259),#171);
#261=PCURVE('',#47,#260);
#262=CARTESIAN_POINT('',(1.00000000000000000E0,1.00000000000000000E0));
#263=CARTESIAN_POINT('',(0.00000000000000000E0,1.00000000000000000E0));
#264=B_SPLINE_CURVE_WITH_KNOTS('',1,(#262,#263),.UNSPECIFIED.,.F.,.F.,(2,2),(0.00000000000000000E0,1.00000000000000000E0),.UNSPECIFIED.);
#265=DEFINITIONAL_REPRESENTATION('',(#264),#171);
#266=PCURVE('',#47,#265);
#267=CARTESIAN_POINT('',(0.00000000000000000E0,1.00000000000000000E0));
#268=CARTESIAN_POINT('',(0.00000000000000000E0,0.00000000000000000E0));
#269=B_SPLINE_CURVE_WITH_KNOTS('',1,(#267,#268),.UNSPECIFIED.,.F.,.F.,(2,2),(0.00000000000000000E0,1.00000000000000000E0),.UNSPECIFIED.);
#270=DEFINITIONAL_REPRESENTATION('',(#269),#171);
#271=PCURVE('',#47,#270);
#272=CARTESIAN_POINT('',(0.00000000000000000E0,0.00000000000000000E0));
#273=CARTESIAN_POINT('',(1.00000000000000000E0,0.00000000000000000E0));
#274=B_SPLINE_CURVE_WITH_KNOTS('',1,(#272,#273),.UNSPECIFIED.,.F.,.F.,(2,2),(0.00000000000000000E0,1.00000000000000000E0),.UNSPECIFIED.);
#275=DEFINITIONAL_REPRESENTATION('',(#274),#171);
#276=PCURVE('',#52,#275);
#277=CARTESIAN_POINT('',(1.00000000000000000E0,0.00000000000000000E0));
#278=CARTESIAN_POINT('',(1.00000000000000000E0,1.00000000000000000E0));
#279=B_SPLINE_CURVE_WITH_KNOTS('',1,(#277,#278),.UNSPECIFIED.,.F.,.F.,(2,2),(0.00000000000000000E0,1.00000000000000000E0),.UNSPECIFIED.);
#280=DEFINITIONAL_REPRESENTATION('',(#279),#171);
#281=PCURVE('',#52,#280);
#282=CARTESIAN_POINT('',(1.00000000000000000E0,1.00000000000000000E0));
#283=CARTESIAN_POINT('',(0.00000000000000000E0,1.00000000000000000E0));
#284=B_SPLINE_CURVE_WITH_KNOTS('',1,(#282,#283),.UNSPECIFIED.,.F.,.F.,(2,2),(0.00000000000000000E0,1.00000000000000000E0),.UNSPECIFIED.);
#285=DEFINITIONAL_REPRESENTATION('',(#284),#171);
#286=PCURVE('',#52,#285);
#287=CARTESIAN_POINT('',(0.00000000000000000E0,1.00000000000000000E0));
#288=CARTESIAN_POINT('',(0.00000000000000000E0,0.00000000000000000E0));
#289=B_SPLINE_CURVE_WITH_KNOTS('',1,(#287,#288),.UNSPECIFIED.,.F.,.F.,(2,2),(0.00000000000000000E0,1.00000000000000000E0),.UNSPECIFIED.);
#290=DEFINITIONAL_REPRESENTATION('',(#289),#171);
#291=PCURVE('',#52,#290);
#292=CARTESIAN_POINT('',(5.00000000000000000E-1,8.33333333333333370E-1));
#293=CARTESIAN_POINT('',(7.50000000000000000E-1,8.33333333333333370E-1));
#294=CARTESIAN_POINT('',(7.50000000000000000E-1,5.00000000000000000E-1));
#295=(BOUNDED_CURVE()B_SPLINE_CURVE(2,(#292,#293,#294),.UNSPECIFIED.,.F.,.F.)B_SPLINE_CURVE_WITH_KNOTS((3,3),(0.00000000000000000E0,1.00000000000000000E0),.UNSPECIFIED.)CURVE()GEOMETRIC_REPRESENTATION_ITEM()RATIONAL_B_SPLINE_CURVE((1.00000000000000000E0,7.07106781186547573E-1,1.00000000000000000E0))REPRESENTATION_ITEM(''));
#296=DEFINITIONAL_REPRESENTATION('',(#295),#171);
#297=PCURVE('',#85,#296);
#298=CARTESIAN_POINT('',(7.50000000000000000E-1,5.00000000000000000E-1));
#299=CARTESIAN_POINT('',(7.50000000000000000E-1,1.66666666666666657E-1));
#300=CARTESIAN_POINT('',(5.00000000000000000E-1,1.66666666666666657E-1));
#301=(BOUNDED_CURVE()B_SPLINE_CURVE(2,(#298,#299,#300),.UNSPECIFIED.,.F.,.F.)B_SPLINE_CURVE_WITH_KNOTS((3,3),(0.00000000000000000E0,1.00000000000000000E0),.UNSPECIFIED.)CURVE()GEOMETRIC_REPRESENTATION_ITEM()RATIONAL_B_SPLINE_CURVE((1.00000000000000000E0,7.07106781186547573E-1,1.00000000000000000E0))REPRESENTATION_ITEM(''));
#302=DEFINITIONAL_REPRESENTATION('',(#301),#171);
#303=PCURVE('',#85,#302);
#304=CARTESIAN_POINT('',(5.00000000000000000E-1,1.66666666666666657E-1));
#305=CARTESIAN_POINT('',(2.50000000000000000E-1,1.66666666666666657E-1));
#306=CARTESIAN_POINT('',(2.50000000000000000E-1,5.00000000000000000E-1));
#307=(BOUNDED_CURVE()B_SPLINE_CURVE(2,(#304,#305,#306),.UNSPECIFIED.,.F.,.F.)B_SPLINE_CURVE_WITH_KNOTS((3,3),(0.00000000000000000E0,1.00000000000000000E0),.UNSPECIFIED.)CURVE()GEOMETRIC_REPRESENTATION_ITEM()RATIONAL_B_SPLINE_CURVE((1.00000000000000000E0,7.07106781186547573E-1,1.00000000000000000E0))REPRESENTATION_ITEM(''));
#308=DEFINITIONAL_REPRESENTATION('',(#307),#171);
#309=PCURVE('',#85,#308);
#310=CARTESIAN_POINT('',(2.50000000000000000E-1,5.00000000000000000E-1));
#311=CARTESIAN_POINT('',(2.50000000000000000E-1,8.33333333333333370E-1));
#312=CARTESIAN_POINT('',(5.00000000000000000E-1,8.33333333333333370E-1));
#313=(BOUNDED_CURVE()B_SPLINE_CURVE(2,(#310,#311,#312),.UNSPECIFIED.,.F.,.F.)B_SPLINE_CURVE_WITH_KNOTS((3,3),(0.00000000000000000E0,1.00000000000000000E0),.UNSPECIFIED.)CURVE()GEOMETRIC_REPRESENTATION_ITEM()RATIONAL_B_SPLINE_CURVE((1.00000000000000000E0,7.07106781186547573E-1,1.00000000000000000E0))REPRESENTATION_ITEM(''));
#314=DEFINITIONAL_REPRESENTATION('',(#313),#171);
#315=PCURVE('',#85,#314);
#316=CARTESIAN_POINT('',(5.00000000000000000E-1,8.33333333333333370E-1));
#317=CARTESIAN_POINT('',(7.50000000000000000E-1,8.33333333333333370E-1));
#318=CARTESIAN_POINT('',(7.50000000000000000E-1,5.00000000000000000E-1));
#319=(BOUNDED_CURVE()B_SPLINE_CURVE(2,(#316,#317,#318),.UNSPECIFIED.,.F.,.F.)B_SPLINE_CURVE_WITH_KNOTS((3,3),(0.00000000000000000E0,1.00000000000000000E0),.UNSPECIFIED.)CURVE()GEOMETRIC_REPRESENTATION_ITEM()RATIONAL_B_SPLINE_CURVE((1.00000000000000000E0,7.07106781186547573E-1,1.00000000000000000E0))REPRESENTATION_ITEM(''));
#320=DEFINITIONAL_REPRESENTATION('',(#319),#171);
#321=PCURVE('',#90,#320);
#322=CARTESIAN_POINT('',(7.50000000000000000E-1,5.00000000000000000E-1));
#323=CARTESIAN_POINT('',(7.50000000000000000E-1,1.66666666666666657E-1));
#324=CARTESIAN_POINT('',(5.00000000000000000E-1,1.66666666666666657E-1));
#325=(BOUNDED_CURVE()B_SPLINE_CURVE(2,(#322,#323,#324),.UNSPECIFIED.,.F.,.F.)B_SPLINE_CURVE_WITH_KNOTS((3,3),(0.00000000000000000E0,1.00000000000000000E0),.UNSPECIFIED.)CURVE()GEOMETRIC_REPRESENTATION_ITEM()RATIONAL_B_SPLINE_CURVE((1.00000000000000000E0,7.07106781186547573E-1,1.00000000000000000E0))REPRESENTATION_ITEM(''));
#326=DEFINITIONAL_REPRESENTATION('',(#325),#171);
#327=PCURVE('',#90,#326);
#328=CARTESIAN_POINT('',(5.00000000000000000E-1,1.66666666666666657E-1));
#329=CARTESIAN_POINT('',(2.50000000000000000E-1,1.66666666666666657E-1));
#330=CARTESIAN_POINT('',(2.50000000000000000E-1,5.00000000000000000E-1));
#331=(BOUNDED_CURVE()B_SPLINE_CURVE(2,(#328,#329,#330),.UNSPECIFIED.,.F.,.F.)B_SPLINE_CURVE_WITH_KNOTS((3,3),(0.00000000000000000E0,1.00000000000000000E0),.UNSPECIFIED.)CURVE()GEOMETRIC_REPRESENTATION_ITEM()RATIONAL_B_SPLINE_CURVE((1.00000000000000000E0,7.07106781186547573E-1,1.00000000000000000E0))REPRESENTATION_ITEM(''));
#332=DEFINITIONAL_REPRESENTATION('',(#331),#171);
#333=PCURVE('',#90,#332);
#334=CARTESIAN_POINT('',(2.50000000000000000E-1,5.00000000000000000E-1));
#335=CARTESIAN_POINT('',(2.50000000000000000E-1,8.33333333333333370E-1));
#336=CARTESIAN_POINT('',(5.00000000000000000E-1,8.33333333333333370E-1));
#337=(BOUNDED_CURVE()B_SPLINE_CURVE(2,(#334,#335,#336),.UNSPECIFIED.,.F.,.F.)B_SPLINE_CURVE_WITH_KNOTS((3,3),(0.00000000000000000E0,1.00000000000000000E0),.UNSPECIFIED.)CURVE()GEOMETRIC_REPRESENTATION_ITEM()RATIONAL_B_SPLINE_CURVE((1.00000000000000000E0,7.07106781186547573E-1,1.00000000000000000E0))REPRESENTATION_ITEM(''));
#338=DEFINITIONAL_REPRESENTATION('',(#337),#171);
#339=PCURVE('',#90,#338);
#340=CARTESIAN_POINT('',(0.00000000000000000E0,0.00000000000000000E0));
#341=CARTESIAN_POINT('',(1.00000000000000000E0,0.00000000000000000E0));
#342=B_SPLINE_CURVE_WITH_KNOTS('',1,(#340,#341),.UNSPECIFIED.,.F.,.F.,(2,2),(0.00000000000000000E0,1.00000000000000000E0),.UNSPECIFIED.);
#343=DEFINITIONAL_REPRESENTATION('',(#342),#171);
#344=PCURVE('',#59,#343);
#345=CARTESIAN_POINT('',(1.00000000000000000E0,0.00000000000000000E0));
#346=CARTESIAN_POINT('',(1.00000000000000000E0,1.00000000000000000E0));
#347=B_SPLINE_CURVE_WITH_KNOTS('',1,(#345,#346),.UNSPECIFIED.,.F.,.F.,(2,2),(0.00000000000000000E0,1.00000000000000000E0),.UNSPECIFIED.);
#348=DEFINITIONAL_REPRESENTATION('',(#347),#171);
#349=PCURVE('',#59,#348);
#350=CARTESIAN_POINT('',(1.00000000000000000E0,1.00000000000000000E0));
#351=CARTESIAN_POINT('',(0.00000000000000000E0,1.00000000000000000E0));
#352=B_SPLINE_CURVE_WITH_KNOTS('',1,(#350,#351),.UNSPECIFIED.,.F.,.F.,(2,2),(0.00000000000000000E0,1.00000000000000000E0),.UNSPECIFIED.);
#353=DEFINITIONAL_REPRESENTATION('',(#352),#171);
#354=PCURVE('',#59,#353);
#355=CARTESIAN_POINT('',(0.00000000000000000E0,1.00000000000000000E0));
#356=CARTESIAN_POINT('',(0.00000000000000000E0,0.00000000000000000E0));
#357=B_SPLINE_CURVE_WITH_KNOTS('',1,(#355,#356),.UNSPECIFIED.,.F.,.F.,(2,2),(0.00000000000000000E0,1.00000000000000000E0),.UNSPECIFIED.);
#358=DEFINITIONAL_REPRESENTATION('',(#357),#171);
#359=PCURVE('',#59,#358);
#360=CARTESIAN_POINT('',(0.00000000000000000E0,0.00000000000000000E0));
#361=CARTESIAN_POINT('',(1.00000000000000000E0,0.00000000000000000E0));
#362=B_SPLINE_CURVE_WITH_KNOTS('',1,(#360,#361),.UNSPECIFIED.,.F.,.F.,(2,2),(0.00000000000000000E0,1.00000000000000000E0),.UNSPECIFIED.);
#363=DEFINITIONAL_REPRESENTATION('',(#362),#171);
#364=PCURVE('',#66,#363);
#365=CARTESIAN_POINT('',(1.00000000000000000E0,0.00000000000000000E0));
#366=CARTESIAN_POINT('',(1.00000000000000000E0,1.00000000000000000E0));
#367=B_SPLINE_CURVE_WITH_KNOTS('',1,(#365,#366),.UNSPECIFIED.,.F.,.F.,(2,2),(0.00000000000000000E0,1.00000000000000000E0),.UNSPECIFIED.);
#368=DEFINITIONAL_REPRESENTATION('',(#367),#171);
#369=PCURVE('',#66,#368);
#370=CARTESIAN_POINT('',(1.00000000000000000E0,1.00000000000000000E0));
#371=CARTESIAN_POINT('',(0.00000000000000000E0,1.00000000000000000E0));
#372=B_SPLINE_CURVE_WITH_KNOTS('',1,(#370,#371),.UNSPECIFIED.,.F.,.F.,(2,2),(0.00000000000000000E0,1.00000000000000000E0),.UNSPECIFIED.);
#373=DEFINITIONAL_REPRESENTATION('',(#372),#171);
#374=PCURVE('',#66,#373);
#375=CARTESIAN_POINT('',(0.00000000000000000E0,1.00000000000000000E0));
#376=CARTESIAN_POINT('',(0.00000000000000000E0,0.00000000000000000E0));
#377=B_SPLINE_CURVE_WITH_KNOTS('',1,(#375,#376),.UNSPECIFIED.,.F.,.F.,(2,2),(0.00000000000000000E0,1.00000000000000000E0),.UNSPECIFIED.);
#378=DEFINITIONAL_REPRESENTATION('',(#377),#171);
#379=PCURVE('',#66,#378);
#380=CARTESIAN_POINT('',(0.00000000000000000E0,0.00000000000000000E0));
#381=CARTESIAN_POINT('',(1.00000000000000000E0,0.00000000000000000E0));
#382=B_SPLINE_CURVE_WITH_KNOTS('',1,(#380,#381),.UNSPECIFIED.,.F.,.F.,(2,2),(0.00000000000000000E0,1.00000000000000000E0),.UNSPECIFIED.);
#383=DEFINITIONAL_REPRESENTATION('',(#382),#171);
#384=PCURVE('',#73,#383);
#385=CARTESIAN_POINT('',(1.00000000000000000E0,0.00000000000000000E0));
#386=CARTESIAN_POINT('',(1.00000000000000000E0,1.00000000000000000E0));
#387=B_SPLINE_CURVE_WITH_KNOTS('',1,(#385,#386),.UNSPECIFIED.,.F.,.F.,(2,2),(0.00000000000000000E0,1.00000000000000000E0),.UNSPECIFIED.);
#388=DEFINITIONAL_REPRESENTATION('',(#387),#171);
#389=PCURVE('',#73,#388);
#390=CARTESIAN_POINT('',(1.00000000000000000E0,1.00000000000000000E0));
#391=CARTESIAN_POINT('',(0.00000000000000000E0,1.00000000000000000E0));
#392=B_SPLINE_CURVE_WITH_KNOTS('',1,(#390,#391),.UNSPECIFIED.,.F.,.F.,(2,2),(0.00000000000000000E0,1.00000000000000000E0),.UNSPECIFIED.);
#393=DEFINITIONAL_REPRESENTATION('',(#392),#171);
#394=PCURVE('',#73,#393);
#395=CARTESIAN_POINT('',(0.00000000000000000E0,1.00000000000000000E0));
#396=CARTESIAN_POINT('',(0.00000000000000000E0,0.00000000000000000E0));
#397=B_SPLINE_CURVE_WITH_KNOTS('',1,(#395,#396),.UNSPECIFIED.,.F.,.F.,(2,2),(0.00000000000000000E0,1.00000000000000000E0),.UNSPECIFIED.);
#398=DEFINITIONAL_REPRESENTATION('',(#397),#171);
#399=PCURVE('',#73,#398);
#400=CARTESIAN_POINT('',(0.00000000000000000E0,0.00000000000000000E0));
#401=CARTESIAN_POINT('',(1.00000000000000000E0,0.00000000000000000E0));
#402=B_SPLINE_CURVE_WITH_KNOTS('',1,(#400,#401),.UNSPECIFIED.,.F.,.F.,(2,2),(0.00000000000000000E0,1.00000000000000000E0),.UNSPECIFIED.);
#403=DEFINITIONAL_REPRESENTATION('',(#402),#171);
#404=PCURVE('',#80,#403);
#405=CARTESIAN_POINT('',(1.00000000000000000E0,0.00000000000000000E0));
#406=CARTESIAN_POINT('',(1.00000000000000000E0,1.00000000000000000E0));
#407=B_SPLINE_CURVE_WITH_KNOTS('',1,(#405,#406),.UNSPECIFIED.,.F.,.F.,(2,2),(0.00000000000000000E0,1.00000000000000000E0),.UNSPECIFIED.);
#408=DEFINITIONAL_REPRESENTATION('',(#407),#171);
#409=PCURVE('',#80,#408);
#410=CARTESIAN_POINT('',(1.00000000000000000E0,1.00000000000000000E0));
#411=CARTESIAN_POINT('',(0.00000000000000000E0,1.00000000000000000E0));
#412=B_SPLINE_CURVE_WITH_KNOTS('',1,(#410,#411),.UNSPECIFIED.,.F.,.F.,(2,2),(0.00000000000000000E0,1.00000000000000000E0),.UNSPECIFIED.);
#413=DEFINITIONAL_REPRESENTATION('',(#412),#171);
#414=PCURVE('',#80,#413);
#415=CARTESIAN_POINT('',(0.00000000000000000E0,1.00000000000000000E0));
#416=CARTESIAN_POINT('',(0.00000000000000000E0,0.00000000000000000E0));
#417=B_SPLINE_CURVE_WITH_KNOTS('',1,(#415,#416),.UNSPECIFIED.,.F.,.F.,(2,2),(0.00000000000000000E0,1.00000000000000000E0),.UNSPECIFIED.);
#418=DEFINITIONAL_REPRESENTATION('',(#417),#171);
#419=PCURVE('',#80,#418);
#420=SURFACE_CURVE('',#93,(#191,#216),.PCURVE_S1.);
#421=EDGE_CURVE('OSCAD_TOPO/3|edge|e:bfa542d8e0ddd115055e4ef50a5402ef|e4142b1000dccf4e15f49420cd608983f75cb2cb72ad7928bbb955f0b29257ee',#2,#6,#420,.T.);
#422=SURFACE_CURVE('',#96,(#196,#226),.PCURVE_S1.);
#423=EDGE_CURVE('OSCAD_TOPO/3|edge|e:fb9de2e5545ba14fe70a00ffddb2d8ac|8ad3b5da4bfaab3fd7d726e48d3d4f4ea371209fab3f35e58094646ac2378771',#4,#8,#422,.T.);
#424=SURFACE_CURVE('',#99,(#231,#281),.PCURVE_S1.);
#425=EDGE_CURVE('OSCAD_TOPO/3|edge|e:e8fb3cff38594616eb477064e1debf01|b2247613e182c3c2bd2594ac3dcd0dd12ab63b72ac477a1f416940d64c78538d',#2,#4,#424,.T.);
#426=SURFACE_CURVE('',#102,(#186,#236),.PCURVE_S1.);
#427=EDGE_CURVE('OSCAD_TOPO/3|edge|e:ea183b69ec0c770c342203bb93c7bd0d|cce96fc9a24b194367b164bdeb4a367b669b199e5dc69c03518be60f77bf4e6b',#6,#10,#426,.T.);
#428=SURFACE_CURVE('',#105,(#201,#246),.PCURVE_S1.);
#429=EDGE_CURVE('OSCAD_TOPO/3|edge|e:fdbc35c1c0fafd5ebc9bf4b8b23df9e2|6a0cbb0a49c15c32ddf8edb1ff6867348f4407857cf31577780e68d4b4625786',#8,#12,#428,.T.);
#430=SURFACE_CURVE('',#108,(#221,#251),.PCURVE_S1.);
#431=EDGE_CURVE('OSCAD_TOPO/3|edge|e:539e5c142fb018f33caba61acf824c76|ad62e6396dde29c93e96a32b157b8d39b703309d987c2f137f46d3ea91a45a06',#6,#8,#430,.T.);
#432=SURFACE_CURVE('',#111,(#181,#256),.PCURVE_S1.);
#433=EDGE_CURVE('OSCAD_TOPO/3|edge|e:2d474386f84de8fca5cb5d7a541a316b|3e19eaefc3c1e7b56a7a44f959d4b2dbd511624de5498247d765e42a252f2a78',#10,#14,#432,.T.);
#434=SURFACE_CURVE('',#114,(#206,#266),.PCURVE_S1.);
#435=EDGE_CURVE('OSCAD_TOPO/3|edge|e:d5fa05e6c1c4972360618d3c401461df|8130e07740eb961e1bd8372c60df8b1ed6e040466384887ec1ff379bebefecf3',#12,#16,#434,.T.);
#436=SURFACE_CURVE('',#117,(#241,#271),.PCURVE_S1.);
#437=EDGE_CURVE('OSCAD_TOPO/3|edge|e:d6b1026f1fe351136c3c0124e0570af0|68287eaccf6d449bf0f4b10f03b90a797c174d0c3b1d24901377caafa8ad26ef',#10,#12,#436,.T.);
#438=SURFACE_CURVE('',#120,(#176,#276),.PCURVE_S1.);
#439=EDGE_CURVE('OSCAD_TOPO/3|edge|e:d5a26f48d8b62768c59cf46354e6f532|0f34201ab80ffbcaca46097b940ad51a37b43a0d221eefbe4d98158b33cbc8ee',#14,#2,#438,.T.);
#440=SURFACE_CURVE('',#123,(#211,#286),.PCURVE_S1.);
#441=EDGE_CURVE('OSCAD_TOPO/3|edge|e:027f6109294fd65fa68da2077484f172|fac71544c4cb6c3b994bf8357c159e1cbfb0c26ae798e37fbc6e75f13aa94877',#16,#4,#440,.T.);
#442=SURFACE_CURVE('',#126,(#261,#291),.PCURVE_S1.);
#443=EDGE_CURVE('OSCAD_TOPO/3|edge|e:c3a61ba414108784d95277fe33ec798d|8dbec3ffba24a776c2a835b774e9e9315fd32b15ddfb1a7d7096fed7c315451c',#14,#16,#442,.T.);
#444=SURFACE_CURVE('',#130,(#315,#344),.PCURVE_S1.);
#445=EDGE_CURVE('OSCAD_TOPO/3|edge|e:9f1137e0d634bbd07610645ad0878d5d|72f54a669330552c844f6ccd3d008bffe5b4f752a09017b1ac626692491f0d05',#18,#22,#444,.T.);
#446=SURFACE_CURVE('',#134,(#321,#354),.PCURVE_S1.);
#447=EDGE_CURVE('OSCAD_TOPO/3|edge|e:4c724ff597e73c8f3a58f3c34fa0d962|4902e50a98fdb801901c04ecb18be0fcd41f478fd8647508ff3c220b08457b94',#20,#24,#446,.T.);
#448=SURFACE_CURVE('',#137,(#359,#409),.PCURVE_S1.);
#449=EDGE_CURVE('OSCAD_TOPO/3|edge|e:adc7755ec5a409859acdec4fb20c25b5|c63c14601a802164af447bc177861f6baac99870d86adc5e6cabca2afbf661ab',#18,#20,#448,.T.);
#450=SURFACE_CURVE('',#141,(#309,#364),.PCURVE_S1.);
#451=EDGE_CURVE('OSCAD_TOPO/3|edge|e:42fafa2298066de1a407e7a1ea0274ad|5e6fe3582883d54f05aa6d420193f635d95c8f085f66e9f5b16cba8650c261e7',#22,#26,#450,.T.);
#452=SURFACE_CURVE('',#145,(#327,#374),.PCURVE_S1.);
#453=EDGE_CURVE('OSCAD_TOPO/3|edge|e:04eb921459da3f1f3af696809234df5e|db8f9979ce22e9870df0ba62708cda670d4576a87a05d30bcfc219424642b379',#24,#28,#452,.T.);
#454=SURFACE_CURVE('',#148,(#349,#379),.PCURVE_S1.);
#455=EDGE_CURVE('OSCAD_TOPO/3|edge|e:37d662bf62ef7ee5505c5d8cbf930d25|12277b6d35351d77d1060f38e87ec571352f5e710bcb7acf0925e5c6781df47a',#22,#24,#454,.T.);
#456=SURFACE_CURVE('',#152,(#303,#384),.PCURVE_S1.);
#457=EDGE_CURVE('OSCAD_TOPO/3|edge|e:99b5204a305bc8cbe2d87b5353041f75|0734da58f257af0e7095ac9881dd76cb4eb8d62ddbf9897a22288f8499d41b80',#26,#30,#456,.T.);
#458=SURFACE_CURVE('',#156,(#333,#394),.PCURVE_S1.);
#459=EDGE_CURVE('OSCAD_TOPO/3|edge|e:26d7a21d9300dd9fa790f3ad3b747255|8ec6cd34b58e9b28739d5d2b6bf028d89b91e28aa067b16e07b3007c530a2280',#28,#32,#458,.T.);
#460=SURFACE_CURVE('',#159,(#369,#399),.PCURVE_S1.);
#461=EDGE_CURVE('OSCAD_TOPO/3|edge|e:6f955543bb0f8a0c6b53b79af6845a47|eb3577a865b5b976c8f040cdfe063efb41e6a8410736100b18dbe876d8c3e55c',#26,#28,#460,.T.);
#462=SURFACE_CURVE('',#163,(#297,#404),.PCURVE_S1.);
#463=EDGE_CURVE('OSCAD_TOPO/3|edge|e:0680b1ee751725c690cbc1647e2348af|8528ec849affd087ae4d2a43eb1f50244733af616ba43af74d997393494ce01c',#30,#18,#462,.T.);
#464=SURFACE_CURVE('',#167,(#339,#414),.PCURVE_S1.);
#465=EDGE_CURVE('OSCAD_TOPO/3|edge|e:b32227987ffb635a7e4b16a906702f2d|5a47a66c917700baff0968a09706e0ed78fa27fd75724c34bf8ce0ab83d3273e',#32,#20,#464,.T.);
#466=SURFACE_CURVE('',#170,(#389,#419),.PCURVE_S1.);
#467=EDGE_CURVE('OSCAD_TOPO/3|edge|e:24fae1060958841eea68dad2a5302d31|84b6c3d2bb8266276f75b2e1b751b5a3fd72f3b37e083e6e8dfa222b12f7b3d7',#30,#32,#466,.T.);
#468=ORIENTED_EDGE('',*,*,#439,.F.);
#469=ORIENTED_EDGE('',*,*,#433,.F.);
#470=ORIENTED_EDGE('',*,*,#427,.F.);
#471=ORIENTED_EDGE('',*,*,#421,.F.);
#472=EDGE_LOOP('OSCAD_TOPO/3|loop|l:ad74c295e05a24d0a58b5515f290779e|7c1814b1baefb682174b9f8f381efe91cccb8a66a4bb478847ad87129a3d4278',(#468,#469,#470,#471));
#473=ORIENTED_EDGE('',*,*,#423,.T.);
#474=ORIENTED_EDGE('',*,*,#429,.T.);
#475=ORIENTED_EDGE('',*,*,#435,.T.);
#476=ORIENTED_EDGE('',*,*,#441,.T.);
#477=EDGE_LOOP('OSCAD_TOPO/3|loop|l:eb65daa269819ac424f7094e4af9323c|203e7c73c38a6d1308d006dd929a93d088409018c61ef67cf70b90d79aaf0b88',(#473,#474,#475,#476));
#478=ORIENTED_EDGE('',*,*,#421,.T.);
#479=ORIENTED_EDGE('',*,*,#431,.T.);
#480=ORIENTED_EDGE('',*,*,#423,.F.);
#481=ORIENTED_EDGE('',*,*,#425,.F.);
#482=EDGE_LOOP('OSCAD_TOPO/3|loop|l:ef78a38e5b08ab81a9b0d7d4e8444460|f04f9e059a29c477ae97aeda6f23f2bbbfd17b4f751724d9ddec079b16ec8eeb',(#478,#479,#480,#481));
#483=ORIENTED_EDGE('',*,*,#427,.T.);
#484=ORIENTED_EDGE('',*,*,#437,.T.);
#485=ORIENTED_EDGE('',*,*,#429,.F.);
#486=ORIENTED_EDGE('',*,*,#431,.F.);
#487=EDGE_LOOP('OSCAD_TOPO/3|loop|l:19c4920ffb55ee35f02f119aa2010d42|4c62ec350f720162ddaa66f4d892beb7dd4f57b91a556f773ae3f874286a61b2',(#483,#484,#485,#486));
#488=ORIENTED_EDGE('',*,*,#433,.T.);
#489=ORIENTED_EDGE('',*,*,#443,.T.);
#490=ORIENTED_EDGE('',*,*,#435,.F.);
#491=ORIENTED_EDGE('',*,*,#437,.F.);
#492=EDGE_LOOP('OSCAD_TOPO/3|loop|l:64b8c6d1894485756d07408868fb5985|22ad7208df23fe74079a352c3eeff4c437771b58396878b0c46f6127c8c0923b',(#488,#489,#490,#491));
#493=ORIENTED_EDGE('',*,*,#439,.T.);
#494=ORIENTED_EDGE('',*,*,#425,.T.);
#495=ORIENTED_EDGE('',*,*,#441,.F.);
#496=ORIENTED_EDGE('',*,*,#443,.F.);
#497=EDGE_LOOP('OSCAD_TOPO/3|loop|l:0773cb87d189baeb0e873c3da528e797|474563da711a040fa435813504b8cc5699fbb8059ecceab05490fd71184603bb',(#493,#494,#495,#496));
#498=ORIENTED_EDGE('',*,*,#463,.F.);
#499=ORIENTED_EDGE('',*,*,#457,.F.);
#500=ORIENTED_EDGE('',*,*,#451,.F.);
#501=ORIENTED_EDGE('',*,*,#445,.F.);
#502=EDGE_LOOP('OSCAD_TOPO/3|loop|l:b2b47dcfdc503ca301da8fc14d7583df|7a234ecc5f9a21d083098e26b280ee03c35f63696f613f8d0f5eec8b608bdfec',(#498,#499,#500,#501));
#503=ORIENTED_EDGE('',*,*,#447,.T.);
#504=ORIENTED_EDGE('',*,*,#453,.T.);
#505=ORIENTED_EDGE('',*,*,#459,.T.);
#506=ORIENTED_EDGE('',*,*,#465,.T.);
#507=EDGE_LOOP('OSCAD_TOPO/3|loop|l:f70f5414658b798a9ac9078c66edd717|96e01f7eb0cfd6627dd809e39f4c5e4a857861f75970f07cf9b1a132d5220133',(#503,#504,#505,#506));
#508=ORIENTED_EDGE('',*,*,#445,.T.);
#509=ORIENTED_EDGE('',*,*,#455,.T.);
#510=ORIENTED_EDGE('',*,*,#447,.F.);
#511=ORIENTED_EDGE('',*,*,#449,.F.);
#512=EDGE_LOOP('OSCAD_TOPO/3|loop|l:29872f3252844ce07667d2690e1ae546|0de1ee19464273b1deba45525189c6972bf70f4c61bec7d00d311188079dab89',(#508,#509,#510,#511));
#513=ORIENTED_EDGE('',*,*,#451,.T.);
#514=ORIENTED_EDGE('',*,*,#461,.T.);
#515=ORIENTED_EDGE('',*,*,#453,.F.);
#516=ORIENTED_EDGE('',*,*,#455,.F.);
#517=EDGE_LOOP('OSCAD_TOPO/3|loop|l:a438f7b5cbbc079368ffd7e11b2165d3|8afaa7cc19004985bfe4175ef558c331dc7fe0580a4d13c1ad1903833a3129cd',(#513,#514,#515,#516));
#518=ORIENTED_EDGE('',*,*,#457,.T.);
#519=ORIENTED_EDGE('',*,*,#467,.T.);
#520=ORIENTED_EDGE('',*,*,#459,.F.);
#521=ORIENTED_EDGE('',*,*,#461,.F.);
#522=EDGE_LOOP('OSCAD_TOPO/3|loop|l:336715439e03ac26cb2eaa3523029e82|7ae275a38f6e35d3016a33fad6ff7338a706efb702af86b70725da875108aca9',(#518,#519,#520,#521));
#523=ORIENTED_EDGE('',*,*,#463,.T.);
#524=ORIENTED_EDGE('',*,*,#449,.T.);
#525=ORIENTED_EDGE('',*,*,#465,.F.);
#526=ORIENTED_EDGE('',*,*,#467,.F.);
#527=EDGE_LOOP('OSCAD_TOPO/3|loop|l:047316ce33a9834ccc5c9afa5a77595c|fb220e7ed2c94b0814cbe4cb18ba4ff6a4790f28b5e8f3eefdb450c42f6d3633',(#523,#524,#525,#526));
#528=FACE_OUTER_BOUND('',#482,.T.);
#529=ADVANCED_FACE('OSCAD_TOPO/3|face|f:2f4493f27940e1862d210e59c4a4740f|31782cffb1a71fe5dbcce121dfc53406ffcb6495cb8ac6251d87b795e5b1f9dd',(#528),#37,.T.);
#530=FACE_OUTER_BOUND('',#487,.T.);
#531=ADVANCED_FACE('OSCAD_TOPO/3|face|f:8834b77803d7e69625edf3a3ccf1fa7b|54c7ddf503d1f50dbe3250a717d5405e25a20cdf5f980b38c0b83a7b4f82031d',(#530),#42,.T.);
#532=FACE_OUTER_BOUND('',#492,.T.);
#533=ADVANCED_FACE('OSCAD_TOPO/3|face|f:fa70926b9bbc2ae81579944ef5ebc3a4|7916fe114173bed016816a1c1d0d0e9a94ff7728ffbe72598fba1fc23551e7df',(#532),#47,.T.);
#534=FACE_OUTER_BOUND('',#497,.T.);
#535=ADVANCED_FACE('OSCAD_TOPO/3|face|f:5d62b36e2aa427b7012a06a458fdfedb|9ff518dea7405bfbe8ab1335491d24df3439c6a33d45b67409473e1030f6241c',(#534),#52,.T.);
#536=FACE_OUTER_BOUND('',#512,.T.);
#537=ADVANCED_FACE('OSCAD_TOPO/3|face|f:044dd01217a8db12a63c1307d3a7a700|a74701f0653ff8076859005af6d92a8c30cd0fd942ff3027940a6044c7e8c0c8',(#536),#59,.T.);
#538=FACE_OUTER_BOUND('',#517,.T.);
#539=ADVANCED_FACE('OSCAD_TOPO/3|face|f:d6b4e55a6c098179447b52d2f56e3099|fcadab675a3efb67479ec2e0086bd3dc71b91089b416aacd1e52ae2a26bd7c38',(#538),#66,.T.);
#540=FACE_OUTER_BOUND('',#522,.T.);
#541=ADVANCED_FACE('OSCAD_TOPO/3|face|f:e00638a34b2cd1af6227900970365361|8976d4750524dd40ac422c1fde6efff972da06b6ccd84256ebefd42482eb18a5',(#540),#73,.T.);
#542=FACE_OUTER_BOUND('',#527,.T.);
#543=ADVANCED_FACE('OSCAD_TOPO/3|face|f:fb6b2d7e93973663f5c2235c638820e8|2d11a53b4e4528c44d8764966901769ada11aba92d2587244a512bd0e1543a10',(#542),#80,.T.);
#544=FACE_OUTER_BOUND('',#472,.T.);
#545=FACE_BOUND('',#502,.T.);
#546=ADVANCED_FACE('OSCAD_TOPO/3|face|f:953843b710c51a5374da9d11fb20a89d|ed8aaa9ce748f7d76e2c8df7653047f2bc5402c209d027e24926b3cf07ccc554',(#544,#545),#85,.T.);
#547=FACE_OUTER_BOUND('',#477,.T.);
#548=FACE_BOUND('',#507,.T.);
#549=ADVANCED_FACE('OSCAD_TOPO/3|face|f:f7f378a6deee2c97ff23f40c90d4d390|5c4f8250e7dd3c7ec3a88b021303af4653d4993ba92b59f984f3873b70de7e9b',(#547,#548),#90,.T.);
#550=CLOSED_SHELL('OSCAD_TOPO/3|shell|s:ec067ea76391c3305005defc0e4e3ed9|f0082273ee77963737a6005a667263b30ecc37bd427c68aefc947b27673a424a',(#529,#531,#533,#535,#537,#539,#541,#543,#546,#549));
#551=MANIFOLD_SOLID_BREP('OSCAD_TOPO/3|body|b:cf152c828bf3b6ed19b084c3911e7ea3|449057c4378c43510689405de5f90e299e830d11d59ab8cd1cf36288b766da5d',#550);
#552=(LENGTH_UNIT()NAMED_UNIT(*)SI_UNIT(.MILLI.,.METRE.));
#553=UNCERTAINTY_MEASURE_WITH_UNIT(LENGTH_MEASURE(9.99999999999999955E-8),#552,'distance_accuracy_value','');
#554=(GEOMETRIC_REPRESENTATION_CONTEXT(3)GLOBAL_UNCERTAINTY_ASSIGNED_CONTEXT((#553))GLOBAL_UNIT_ASSIGNED_CONTEXT((#552))REPRESENTATION_CONTEXT('','3D'));
#555=ADVANCED_BREP_SHAPE_REPRESENTATION('',(#551),#554);
#556=APPLICATION_CONTEXT('managed model based 3d engineering');
#557=PRODUCT_CONTEXT('',#556,'mechanical');
#558=PRODUCT('model','model','',(#557));
#559=PRODUCT_DEFINITION_FORMATION('1','',#558);
#560=PRODUCT_DEFINITION_CONTEXT('part definition',#556,'design');
#561=PRODUCT_DEFINITION('design','',#559,#560);
#562=PRODUCT_DEFINITION_SHAPE('','',#561);
#563=SHAPE_DEFINITION_REPRESENTATION(#562,#555);
ENDSEC;
END-ISO-10303-21;
