ISO-10303-21;
HEADER;
FILE_DESCRIPTION(('OpenSCAD Viewer retained AP242 B-rep'),'2;1');
FILE_NAME('model.step','',(''),(''),'OpenSCAD Viewer','OpenSCAD Viewer','');
FILE_SCHEMA(('AP242_MANAGED_MODEL_BASED_3D_ENGINEERING_MIM_LF'));
ENDSEC;
DATA;
#1=CARTESIAN_POINT('',(0.00000000000000000E0,2.00000000000000000E0,-2.00000000000000000E0));
#2=VERTEX_POINT('OSCAD_TOPO/3|vertex|v:00467c5378c578cb837a14621d986e98|88465855a7e6e8c9fffeab00f9504b10c6287ee76b8637b5019d05d2175986a1',#1);
#3=CARTESIAN_POINT('',(0.00000000000000000E0,2.00000000000000000E0,0.00000000000000000E0));
#4=VERTEX_POINT('OSCAD_TOPO/3|vertex|v:4da6a71bbd8682eea7476dfa8a111789|e58bff6b40d40faf3355976d3273446059fc0dd6c216a01efa7bae6850e9fb03',#3);
#5=CARTESIAN_POINT('',(-2.00000000000000000E0,0.00000000000000000E0,-2.00000000000000000E0));
#6=VERTEX_POINT('OSCAD_TOPO/3|vertex|v:070b3eabe6bb84e5bc0019a85170f6dc|da079ceecf56947ee6da5df71da260b3bea4dd62b897bc737c4b0d6cb1e1cc6b',#5);
#7=CARTESIAN_POINT('',(-2.00000000000000000E0,0.00000000000000000E0,0.00000000000000000E0));
#8=VERTEX_POINT('OSCAD_TOPO/3|vertex|v:fd04dc2d6b4ab3525d530c03274411ba|dc1d54fe4fc06d4d6adc4e03ef8095471c8467513c042660b1b5445f11a2c965',#7);
#9=CARTESIAN_POINT('',(0.00000000000000000E0,-2.00000000000000044E0,-2.00000000000000000E0));
#10=VERTEX_POINT('OSCAD_TOPO/3|vertex|v:72b5f79cce8fc468cf873e7ebfeb3455|0576af4b3f383b2c1f4aba0e777595b8524455c6eadfc5422106ea7ab91cfd95',#9);
#11=CARTESIAN_POINT('',(0.00000000000000000E0,-2.00000000000000044E0,0.00000000000000000E0));
#12=VERTEX_POINT('OSCAD_TOPO/3|vertex|v:71f9b05b266405384422e499a0cbf9ad|36e018230b3458518652a27dec4c804add8632d43fb6e0f708327ec059f8d2dc',#11);
#13=CARTESIAN_POINT('',(0.00000000000000000E0,2.00000000000000000E0,-2.00000000000000000E0));
#14=CARTESIAN_POINT('',(0.00000000000000000E0,2.00000000000000000E0,0.00000000000000000E0));
#15=CARTESIAN_POINT('',(-2.00000000000000000E0,2.00000000000000000E0,-2.00000000000000000E0));
#16=CARTESIAN_POINT('',(-2.00000000000000000E0,2.00000000000000000E0,0.00000000000000000E0));
#17=CARTESIAN_POINT('',(-2.00000000000000000E0,0.00000000000000000E0,-2.00000000000000000E0));
#18=CARTESIAN_POINT('',(-2.00000000000000000E0,0.00000000000000000E0,0.00000000000000000E0));
#19=(BOUNDED_SURFACE()B_SPLINE_SURFACE(2,1,((#13,#14),(#15,#16),(#17,#18)),.UNSPECIFIED.,.F.,.F.,.F.)B_SPLINE_SURFACE_WITH_KNOTS((3,3),(2,2),(0.00000000000000000E0,1.00000000000000000E0),(0.00000000000000000E0,1.00000000000000000E0),.UNSPECIFIED.)GEOMETRIC_REPRESENTATION_ITEM()RATIONAL_B_SPLINE_SURFACE(((1.00000000000000000E0,1.00000000000000000E0),(7.07106781186547573E-1,7.07106781186547573E-1),(1.00000000000000000E0,1.00000000000000000E0)))REPRESENTATION_ITEM('')SURFACE());
#20=CARTESIAN_POINT('',(-2.00000000000000000E0,0.00000000000000000E0,-2.00000000000000000E0));
#21=CARTESIAN_POINT('',(-2.00000000000000000E0,0.00000000000000000E0,0.00000000000000000E0));
#22=CARTESIAN_POINT('',(-2.00000000000000000E0,-2.00000000000000000E0,-2.00000000000000000E0));
#23=CARTESIAN_POINT('',(-2.00000000000000000E0,-2.00000000000000000E0,0.00000000000000000E0));
#24=CARTESIAN_POINT('',(0.00000000000000000E0,-2.00000000000000000E0,-2.00000000000000000E0));
#25=CARTESIAN_POINT('',(0.00000000000000000E0,-2.00000000000000000E0,0.00000000000000000E0));
#26=(BOUNDED_SURFACE()B_SPLINE_SURFACE(2,1,((#20,#21),(#22,#23),(#24,#25)),.UNSPECIFIED.,.F.,.F.,.F.)B_SPLINE_SURFACE_WITH_KNOTS((3,3),(2,2),(0.00000000000000000E0,1.00000000000000000E0),(0.00000000000000000E0,1.00000000000000000E0),.UNSPECIFIED.)GEOMETRIC_REPRESENTATION_ITEM()RATIONAL_B_SPLINE_SURFACE(((1.00000000000000000E0,1.00000000000000000E0),(7.07106781186547573E-1,7.07106781186547573E-1),(1.00000000000000000E0,1.00000000000000000E0)))REPRESENTATION_ITEM('')SURFACE());
#27=CARTESIAN_POINT('',(0.00000000000000000E0,-2.00000000000000044E0,-2.00000000000000000E0));
#28=CARTESIAN_POINT('',(0.00000000000000000E0,-2.00000000000000044E0,0.00000000000000000E0));
#29=CARTESIAN_POINT('',(0.00000000000000000E0,2.00000000000000000E0,-2.00000000000000000E0));
#30=CARTESIAN_POINT('',(0.00000000000000000E0,2.00000000000000000E0,0.00000000000000000E0));
#31=B_SPLINE_SURFACE_WITH_KNOTS('',1,1,((#27,#28),(#29,#30)),.UNSPECIFIED.,.F.,.F.,.F.,(2,2),(2,2),(0.00000000000000000E0,1.00000000000000000E0),(0.00000000000000000E0,1.00000000000000000E0),.UNSPECIFIED.);
#32=CARTESIAN_POINT('',(0.00000000000000000E0,-2.00000000000000044E0,-2.00000000000000000E0));
#33=CARTESIAN_POINT('',(0.00000000000000000E0,2.00000000000000000E0,-2.00000000000000000E0));
#34=CARTESIAN_POINT('',(-2.00000000000000000E0,-2.00000000000000044E0,-2.00000000000000000E0));
#35=CARTESIAN_POINT('',(-2.00000000000000000E0,2.00000000000000000E0,-2.00000000000000000E0));
#36=B_SPLINE_SURFACE_WITH_KNOTS('',1,1,((#32,#33),(#34,#35)),.UNSPECIFIED.,.F.,.F.,.F.,(2,2),(2,2),(0.00000000000000000E0,1.00000000000000000E0),(0.00000000000000000E0,1.00000000000000000E0),.UNSPECIFIED.);
#37=CARTESIAN_POINT('',(-2.00000000000000000E0,-2.00000000000000044E0,0.00000000000000000E0));
#38=CARTESIAN_POINT('',(-2.00000000000000000E0,2.00000000000000000E0,0.00000000000000000E0));
#39=CARTESIAN_POINT('',(0.00000000000000000E0,-2.00000000000000044E0,0.00000000000000000E0));
#40=CARTESIAN_POINT('',(0.00000000000000000E0,2.00000000000000000E0,0.00000000000000000E0));
#41=B_SPLINE_SURFACE_WITH_KNOTS('',1,1,((#37,#38),(#39,#40)),.UNSPECIFIED.,.F.,.F.,.F.,(2,2),(2,2),(0.00000000000000000E0,1.00000000000000000E0),(0.00000000000000000E0,1.00000000000000000E0),.UNSPECIFIED.);
#42=CARTESIAN_POINT('',(0.00000000000000000E0,2.00000000000000000E0,-2.00000000000000000E0));
#43=CARTESIAN_POINT('',(-2.00000000000000000E0,2.00000000000000000E0,-2.00000000000000000E0));
#44=CARTESIAN_POINT('',(-2.00000000000000000E0,0.00000000000000000E0,-2.00000000000000000E0));
#45=(BOUNDED_CURVE()B_SPLINE_CURVE(2,(#42,#43,#44),.UNSPECIFIED.,.F.,.F.)B_SPLINE_CURVE_WITH_KNOTS((3,3),(0.00000000000000000E0,1.00000000000000000E0),.UNSPECIFIED.)CURVE()GEOMETRIC_REPRESENTATION_ITEM()RATIONAL_B_SPLINE_CURVE((1.00000000000000000E0,7.07106781186547573E-1,1.00000000000000000E0))REPRESENTATION_ITEM(''));
#46=CARTESIAN_POINT('',(0.00000000000000000E0,2.00000000000000000E0,0.00000000000000000E0));
#47=CARTESIAN_POINT('',(-2.00000000000000000E0,2.00000000000000000E0,0.00000000000000000E0));
#48=CARTESIAN_POINT('',(-2.00000000000000000E0,0.00000000000000000E0,0.00000000000000000E0));
#49=(BOUNDED_CURVE()B_SPLINE_CURVE(2,(#46,#47,#48),.UNSPECIFIED.,.F.,.F.)B_SPLINE_CURVE_WITH_KNOTS((3,3),(0.00000000000000000E0,1.00000000000000000E0),.UNSPECIFIED.)CURVE()GEOMETRIC_REPRESENTATION_ITEM()RATIONAL_B_SPLINE_CURVE((1.00000000000000000E0,7.07106781186547573E-1,1.00000000000000000E0))REPRESENTATION_ITEM(''));
#50=CARTESIAN_POINT('',(0.00000000000000000E0,2.00000000000000000E0,-2.00000000000000000E0));
#51=CARTESIAN_POINT('',(0.00000000000000000E0,2.00000000000000000E0,0.00000000000000000E0));
#52=B_SPLINE_CURVE_WITH_KNOTS('',1,(#50,#51),.UNSPECIFIED.,.F.,.F.,(2,2),(0.00000000000000000E0,1.00000000000000000E0),.UNSPECIFIED.);
#53=CARTESIAN_POINT('',(-2.00000000000000000E0,0.00000000000000000E0,-2.00000000000000000E0));
#54=CARTESIAN_POINT('',(-2.00000000000000000E0,-2.00000000000000000E0,-2.00000000000000000E0));
#55=CARTESIAN_POINT('',(0.00000000000000000E0,-2.00000000000000000E0,-2.00000000000000000E0));
#56=(BOUNDED_CURVE()B_SPLINE_CURVE(2,(#53,#54,#55),.UNSPECIFIED.,.F.,.F.)B_SPLINE_CURVE_WITH_KNOTS((3,3),(0.00000000000000000E0,1.00000000000000000E0),.UNSPECIFIED.)CURVE()GEOMETRIC_REPRESENTATION_ITEM()RATIONAL_B_SPLINE_CURVE((1.00000000000000000E0,7.07106781186547573E-1,1.00000000000000000E0))REPRESENTATION_ITEM(''));
#57=CARTESIAN_POINT('',(-2.00000000000000000E0,0.00000000000000000E0,0.00000000000000000E0));
#58=CARTESIAN_POINT('',(-2.00000000000000000E0,-2.00000000000000000E0,0.00000000000000000E0));
#59=CARTESIAN_POINT('',(0.00000000000000000E0,-2.00000000000000000E0,0.00000000000000000E0));
#60=(BOUNDED_CURVE()B_SPLINE_CURVE(2,(#57,#58,#59),.UNSPECIFIED.,.F.,.F.)B_SPLINE_CURVE_WITH_KNOTS((3,3),(0.00000000000000000E0,1.00000000000000000E0),.UNSPECIFIED.)CURVE()GEOMETRIC_REPRESENTATION_ITEM()RATIONAL_B_SPLINE_CURVE((1.00000000000000000E0,7.07106781186547573E-1,1.00000000000000000E0))REPRESENTATION_ITEM(''));
#61=CARTESIAN_POINT('',(-2.00000000000000000E0,0.00000000000000000E0,-2.00000000000000000E0));
#62=CARTESIAN_POINT('',(-2.00000000000000000E0,0.00000000000000000E0,0.00000000000000000E0));
#63=B_SPLINE_CURVE_WITH_KNOTS('',1,(#61,#62),.UNSPECIFIED.,.F.,.F.,(2,2),(0.00000000000000000E0,1.00000000000000000E0),.UNSPECIFIED.);
#64=CARTESIAN_POINT('',(0.00000000000000000E0,-2.00000000000000044E0,-2.00000000000000000E0));
#65=CARTESIAN_POINT('',(0.00000000000000000E0,2.00000000000000000E0,-2.00000000000000000E0));
#66=B_SPLINE_CURVE_WITH_KNOTS('',1,(#64,#65),.UNSPECIFIED.,.F.,.F.,(2,2),(0.00000000000000000E0,1.00000000000000000E0),.UNSPECIFIED.);
#67=CARTESIAN_POINT('',(0.00000000000000000E0,-2.00000000000000044E0,0.00000000000000000E0));
#68=CARTESIAN_POINT('',(0.00000000000000000E0,2.00000000000000000E0,0.00000000000000000E0));
#69=B_SPLINE_CURVE_WITH_KNOTS('',1,(#67,#68),.UNSPECIFIED.,.F.,.F.,(2,2),(0.00000000000000000E0,1.00000000000000000E0),.UNSPECIFIED.);
#70=CARTESIAN_POINT('',(0.00000000000000000E0,-2.00000000000000044E0,-2.00000000000000000E0));
#71=CARTESIAN_POINT('',(0.00000000000000000E0,-2.00000000000000044E0,0.00000000000000000E0));
#72=B_SPLINE_CURVE_WITH_KNOTS('',1,(#70,#71),.UNSPECIFIED.,.F.,.F.,(2,2),(0.00000000000000000E0,1.00000000000000000E0),.UNSPECIFIED.);
#73=(GEOMETRIC_REPRESENTATION_CONTEXT(2)REPRESENTATION_CONTEXT('','2D'));
#74=CARTESIAN_POINT('',(0.00000000000000000E0,1.00000000000000000E0));
#75=CARTESIAN_POINT('',(0.00000000000000000E0,0.00000000000000000E0));
#76=B_SPLINE_CURVE_WITH_KNOTS('',1,(#74,#75),.UNSPECIFIED.,.F.,.F.,(2,2),(0.00000000000000000E0,1.00000000000000000E0),.UNSPECIFIED.);
#77=DEFINITIONAL_REPRESENTATION('',(#76),#73);
#78=PCURVE('',#36,#77);
#79=CARTESIAN_POINT('',(0.00000000000000000E0,1.11022302462515654E-16));
#80=CARTESIAN_POINT('',(1.00000000000000000E0,1.11022302462515654E-16));
#81=CARTESIAN_POINT('',(1.00000000000000000E0,5.00000000000000111E-1));
#82=(BOUNDED_CURVE()B_SPLINE_CURVE(2,(#79,#80,#81),.UNSPECIFIED.,.F.,.F.)B_SPLINE_CURVE_WITH_KNOTS((3,3),(0.00000000000000000E0,1.00000000000000000E0),.UNSPECIFIED.)CURVE()GEOMETRIC_REPRESENTATION_ITEM()RATIONAL_B_SPLINE_CURVE((1.00000000000000000E0,7.07106781186547573E-1,1.00000000000000000E0))REPRESENTATION_ITEM(''));
#83=DEFINITIONAL_REPRESENTATION('',(#82),#73);
#84=PCURVE('',#36,#83);
#85=CARTESIAN_POINT('',(1.00000000000000000E0,5.00000000000000111E-1));
#86=CARTESIAN_POINT('',(1.00000000000000000E0,1.00000000000000000E0));
#87=CARTESIAN_POINT('',(0.00000000000000000E0,1.00000000000000000E0));
#88=(BOUNDED_CURVE()B_SPLINE_CURVE(2,(#85,#86,#87),.UNSPECIFIED.,.F.,.F.)B_SPLINE_CURVE_WITH_KNOTS((3,3),(0.00000000000000000E0,1.00000000000000000E0),.UNSPECIFIED.)CURVE()GEOMETRIC_REPRESENTATION_ITEM()RATIONAL_B_SPLINE_CURVE((1.00000000000000000E0,7.07106781186547573E-1,1.00000000000000000E0))REPRESENTATION_ITEM(''));
#89=DEFINITIONAL_REPRESENTATION('',(#88),#73);
#90=PCURVE('',#36,#89);
#91=CARTESIAN_POINT('',(1.00000000000000000E0,1.00000000000000000E0));
#92=CARTESIAN_POINT('',(0.00000000000000000E0,1.00000000000000000E0));
#93=CARTESIAN_POINT('',(0.00000000000000000E0,5.00000000000000111E-1));
#94=(BOUNDED_CURVE()B_SPLINE_CURVE(2,(#91,#92,#93),.UNSPECIFIED.,.F.,.F.)B_SPLINE_CURVE_WITH_KNOTS((3,3),(0.00000000000000000E0,1.00000000000000000E0),.UNSPECIFIED.)CURVE()GEOMETRIC_REPRESENTATION_ITEM()RATIONAL_B_SPLINE_CURVE((1.00000000000000000E0,7.07106781186547573E-1,1.00000000000000000E0))REPRESENTATION_ITEM(''));
#95=DEFINITIONAL_REPRESENTATION('',(#94),#73);
#96=PCURVE('',#41,#95);
#97=CARTESIAN_POINT('',(0.00000000000000000E0,5.00000000000000111E-1));
#98=CARTESIAN_POINT('',(0.00000000000000000E0,1.11022302462515654E-16));
#99=CARTESIAN_POINT('',(1.00000000000000000E0,1.11022302462515654E-16));
#100=(BOUNDED_CURVE()B_SPLINE_CURVE(2,(#97,#98,#99),.UNSPECIFIED.,.F.,.F.)B_SPLINE_CURVE_WITH_KNOTS((3,3),(0.00000000000000000E0,1.00000000000000000E0),.UNSPECIFIED.)CURVE()GEOMETRIC_REPRESENTATION_ITEM()RATIONAL_B_SPLINE_CURVE((1.00000000000000000E0,7.07106781186547573E-1,1.00000000000000000E0))REPRESENTATION_ITEM(''));
#101=DEFINITIONAL_REPRESENTATION('',(#100),#73);
#102=PCURVE('',#41,#101);
#103=CARTESIAN_POINT('',(1.00000000000000000E0,0.00000000000000000E0));
#104=CARTESIAN_POINT('',(1.00000000000000000E0,1.00000000000000000E0));
#105=B_SPLINE_CURVE_WITH_KNOTS('',1,(#103,#104),.UNSPECIFIED.,.F.,.F.,(2,2),(0.00000000000000000E0,1.00000000000000000E0),.UNSPECIFIED.);
#106=DEFINITIONAL_REPRESENTATION('',(#105),#73);
#107=PCURVE('',#41,#106);
#108=CARTESIAN_POINT('',(0.00000000000000000E0,0.00000000000000000E0));
#109=CARTESIAN_POINT('',(1.00000000000000000E0,0.00000000000000000E0));
#110=B_SPLINE_CURVE_WITH_KNOTS('',1,(#108,#109),.UNSPECIFIED.,.F.,.F.,(2,2),(0.00000000000000000E0,1.00000000000000000E0),.UNSPECIFIED.);
#111=DEFINITIONAL_REPRESENTATION('',(#110),#73);
#112=PCURVE('',#19,#111);
#113=CARTESIAN_POINT('',(1.00000000000000000E0,0.00000000000000000E0));
#114=CARTESIAN_POINT('',(1.00000000000000000E0,1.00000000000000000E0));
#115=B_SPLINE_CURVE_WITH_KNOTS('',1,(#113,#114),.UNSPECIFIED.,.F.,.F.,(2,2),(0.00000000000000000E0,1.00000000000000000E0),.UNSPECIFIED.);
#116=DEFINITIONAL_REPRESENTATION('',(#115),#73);
#117=PCURVE('',#19,#116);
#118=CARTESIAN_POINT('',(1.00000000000000000E0,1.00000000000000000E0));
#119=CARTESIAN_POINT('',(0.00000000000000000E0,1.00000000000000000E0));
#120=B_SPLINE_CURVE_WITH_KNOTS('',1,(#118,#119),.UNSPECIFIED.,.F.,.F.,(2,2),(0.00000000000000000E0,1.00000000000000000E0),.UNSPECIFIED.);
#121=DEFINITIONAL_REPRESENTATION('',(#120),#73);
#122=PCURVE('',#19,#121);
#123=CARTESIAN_POINT('',(0.00000000000000000E0,1.00000000000000000E0));
#124=CARTESIAN_POINT('',(0.00000000000000000E0,0.00000000000000000E0));
#125=B_SPLINE_CURVE_WITH_KNOTS('',1,(#123,#124),.UNSPECIFIED.,.F.,.F.,(2,2),(0.00000000000000000E0,1.00000000000000000E0),.UNSPECIFIED.);
#126=DEFINITIONAL_REPRESENTATION('',(#125),#73);
#127=PCURVE('',#19,#126);
#128=CARTESIAN_POINT('',(0.00000000000000000E0,0.00000000000000000E0));
#129=CARTESIAN_POINT('',(1.00000000000000000E0,0.00000000000000000E0));
#130=B_SPLINE_CURVE_WITH_KNOTS('',1,(#128,#129),.UNSPECIFIED.,.F.,.F.,(2,2),(0.00000000000000000E0,1.00000000000000000E0),.UNSPECIFIED.);
#131=DEFINITIONAL_REPRESENTATION('',(#130),#73);
#132=PCURVE('',#26,#131);
#133=CARTESIAN_POINT('',(1.00000000000000000E0,0.00000000000000000E0));
#134=CARTESIAN_POINT('',(1.00000000000000000E0,1.00000000000000000E0));
#135=B_SPLINE_CURVE_WITH_KNOTS('',1,(#133,#134),.UNSPECIFIED.,.F.,.F.,(2,2),(0.00000000000000000E0,1.00000000000000000E0),.UNSPECIFIED.);
#136=DEFINITIONAL_REPRESENTATION('',(#135),#73);
#137=PCURVE('',#26,#136);
#138=CARTESIAN_POINT('',(1.00000000000000000E0,1.00000000000000000E0));
#139=CARTESIAN_POINT('',(0.00000000000000000E0,1.00000000000000000E0));
#140=B_SPLINE_CURVE_WITH_KNOTS('',1,(#138,#139),.UNSPECIFIED.,.F.,.F.,(2,2),(0.00000000000000000E0,1.00000000000000000E0),.UNSPECIFIED.);
#141=DEFINITIONAL_REPRESENTATION('',(#140),#73);
#142=PCURVE('',#26,#141);
#143=CARTESIAN_POINT('',(0.00000000000000000E0,1.00000000000000000E0));
#144=CARTESIAN_POINT('',(0.00000000000000000E0,0.00000000000000000E0));
#145=B_SPLINE_CURVE_WITH_KNOTS('',1,(#143,#144),.UNSPECIFIED.,.F.,.F.,(2,2),(0.00000000000000000E0,1.00000000000000000E0),.UNSPECIFIED.);
#146=DEFINITIONAL_REPRESENTATION('',(#145),#73);
#147=PCURVE('',#26,#146);
#148=CARTESIAN_POINT('',(0.00000000000000000E0,0.00000000000000000E0));
#149=CARTESIAN_POINT('',(1.00000000000000000E0,0.00000000000000000E0));
#150=B_SPLINE_CURVE_WITH_KNOTS('',1,(#148,#149),.UNSPECIFIED.,.F.,.F.,(2,2),(0.00000000000000000E0,1.00000000000000000E0),.UNSPECIFIED.);
#151=DEFINITIONAL_REPRESENTATION('',(#150),#73);
#152=PCURVE('',#31,#151);
#153=CARTESIAN_POINT('',(1.00000000000000000E0,0.00000000000000000E0));
#154=CARTESIAN_POINT('',(1.00000000000000000E0,1.00000000000000000E0));
#155=B_SPLINE_CURVE_WITH_KNOTS('',1,(#153,#154),.UNSPECIFIED.,.F.,.F.,(2,2),(0.00000000000000000E0,1.00000000000000000E0),.UNSPECIFIED.);
#156=DEFINITIONAL_REPRESENTATION('',(#155),#73);
#157=PCURVE('',#31,#156);
#158=CARTESIAN_POINT('',(1.00000000000000000E0,1.00000000000000000E0));
#159=CARTESIAN_POINT('',(0.00000000000000000E0,1.00000000000000000E0));
#160=B_SPLINE_CURVE_WITH_KNOTS('',1,(#158,#159),.UNSPECIFIED.,.F.,.F.,(2,2),(0.00000000000000000E0,1.00000000000000000E0),.UNSPECIFIED.);
#161=DEFINITIONAL_REPRESENTATION('',(#160),#73);
#162=PCURVE('',#31,#161);
#163=CARTESIAN_POINT('',(0.00000000000000000E0,1.00000000000000000E0));
#164=CARTESIAN_POINT('',(0.00000000000000000E0,0.00000000000000000E0));
#165=B_SPLINE_CURVE_WITH_KNOTS('',1,(#163,#164),.UNSPECIFIED.,.F.,.F.,(2,2),(0.00000000000000000E0,1.00000000000000000E0),.UNSPECIFIED.);
#166=DEFINITIONAL_REPRESENTATION('',(#165),#73);
#167=PCURVE('',#31,#166);
#168=SURFACE_CURVE('',#45,(#90,#112),.PCURVE_S1.);
#169=EDGE_CURVE('OSCAD_TOPO/3|edge|e:6af922ebeb78e92a7ae4ebeba7a776de|1b381ba2e67a578a2aeea7e782f07107a601db4c45c0c2b235cdac6e58afffa8',#2,#6,#168,.T.);
#170=SURFACE_CURVE('',#49,(#96,#122),.PCURVE_S1.);
#171=EDGE_CURVE('OSCAD_TOPO/3|edge|e:0680b1ee751725c690cbc1647e2348af|c314c6a748e860b1e3e3d1af420331e0f18bff97ab398624cdc0677d5c2fffc9',#4,#8,#170,.T.);
#172=SURFACE_CURVE('',#52,(#127,#157),.PCURVE_S1.);
#173=EDGE_CURVE('OSCAD_TOPO/3|edge|e:e7c3d6f519e3a03157342073a38e6f49|52b0c74fb3ac5c349d8efc910f311628da26825a6adb1d851c0ba7b93ce27a9b',#2,#4,#172,.T.);
#174=SURFACE_CURVE('',#56,(#84,#132),.PCURVE_S1.);
#175=EDGE_CURVE('OSCAD_TOPO/3|edge|e:b06e820753c542cf830ff95c45553e07|d725873d5ea017c82e42311d60d3a6a70c32c1c2e1786911ade0f42785c29671',#6,#10,#174,.T.);
#176=SURFACE_CURVE('',#60,(#102,#142),.PCURVE_S1.);
#177=EDGE_CURVE('OSCAD_TOPO/3|edge|e:99b5204a305bc8cbe2d87b5353041f75|783a04c95fd980ef02a327a4ce2250a0761b58a250b7a2e6769795efc883960d',#8,#12,#176,.T.);
#178=SURFACE_CURVE('',#63,(#117,#147),.PCURVE_S1.);
#179=EDGE_CURVE('OSCAD_TOPO/3|edge|e:7c1b0e2cbb6d1c47eae07ab430e989e2|c41146e00c67354beb30caa8829dbd6af3e6cf9c0088deb3a933339e9da65fb5',#6,#8,#178,.T.);
#180=SURFACE_CURVE('',#66,(#78,#152),.PCURVE_S1.);
#181=EDGE_CURVE('OSCAD_TOPO/3|edge|e:bfc70da335cad7bb4bdfc7a9a4e6bb39|65e9dc18f3a77680b7531a835007305c9415822394a872058b6d861c0bf6bbbc',#10,#2,#180,.T.);
#182=SURFACE_CURVE('',#69,(#107,#162),.PCURVE_S1.);
#183=EDGE_CURVE('OSCAD_TOPO/3|edge|e:6ef5ab18678105cc53b3c07e588f5645|172ff41aec9b16085f59493b8b984adb6468c223035d7ba59b0cb2b81c948732',#12,#4,#182,.T.);
#184=SURFACE_CURVE('',#72,(#137,#167),.PCURVE_S1.);
#185=EDGE_CURVE('OSCAD_TOPO/3|edge|e:627ce3d18d6dfa5ed6976ee8785c06cf|b6eea78d80a8b6d27d5ce0342792bba5db1e919ca6fbfe7f4630e6d1fc8df3fd',#10,#12,#184,.T.);
#186=ORIENTED_EDGE('',*,*,#181,.F.);
#187=ORIENTED_EDGE('',*,*,#175,.F.);
#188=ORIENTED_EDGE('',*,*,#169,.F.);
#189=EDGE_LOOP('OSCAD_TOPO/3|loop|l:817756dba4e7ec5041b4adbc50d524d5|6c3306ad18628ed93b4be3f364c1bb68e17e56f6aaa16f5ee35ee61f3c6453d3',(#186,#187,#188));
#190=ORIENTED_EDGE('',*,*,#171,.T.);
#191=ORIENTED_EDGE('',*,*,#177,.T.);
#192=ORIENTED_EDGE('',*,*,#183,.T.);
#193=EDGE_LOOP('OSCAD_TOPO/3|loop|l:76f60502d0cf31932c038cbd2360df1d|2f55555fbab77cc6973d3d2cbf9ae07612c33e52d99f000166ed31b33f3173f7',(#190,#191,#192));
#194=ORIENTED_EDGE('',*,*,#169,.T.);
#195=ORIENTED_EDGE('',*,*,#179,.T.);
#196=ORIENTED_EDGE('',*,*,#171,.F.);
#197=ORIENTED_EDGE('',*,*,#173,.F.);
#198=EDGE_LOOP('OSCAD_TOPO/3|loop|l:babde66914337408444bdbdc7153adbd|8d9f9e471138e7185b725ba772138d2fac796a85533021b119e401b697d0784a',(#194,#195,#196,#197));
#199=ORIENTED_EDGE('',*,*,#175,.T.);
#200=ORIENTED_EDGE('',*,*,#185,.T.);
#201=ORIENTED_EDGE('',*,*,#177,.F.);
#202=ORIENTED_EDGE('',*,*,#179,.F.);
#203=EDGE_LOOP('OSCAD_TOPO/3|loop|l:59ed7acbe5f286692d9b3357d75746be|4330e0a11c7851fcc60812a3d1fcf928cdacf3974efe1d5854b166b7a514e6b1',(#199,#200,#201,#202));
#204=ORIENTED_EDGE('',*,*,#181,.T.);
#205=ORIENTED_EDGE('',*,*,#173,.T.);
#206=ORIENTED_EDGE('',*,*,#183,.F.);
#207=ORIENTED_EDGE('',*,*,#185,.F.);
#208=EDGE_LOOP('OSCAD_TOPO/3|loop|l:ed145a466a4ff32e6e7a91930ea9a4ab|45f58c909bd6031cd520537c3345f3347abe25423a9cfa1697330768373ae0e0',(#204,#205,#206,#207));
#209=FACE_OUTER_BOUND('',#198,.T.);
#210=ADVANCED_FACE('OSCAD_TOPO/3|face|f:9300ac5b6f60ab490046db6ffe13aae2|aa8d25047d81f607c021ab9ae6446138ac442e0becbd9e4de112f5e265bd8ba1',(#209),#19,.T.);
#211=FACE_OUTER_BOUND('',#203,.T.);
#212=ADVANCED_FACE('OSCAD_TOPO/3|face|f:9c65f059d89398f13c17920d4dc810a4|cc9cbfe230ca420ef0084757ec493fbb2f2ab8e3047c1b3c4451d1e36fa6eaa7',(#211),#26,.T.);
#213=FACE_OUTER_BOUND('',#208,.T.);
#214=ADVANCED_FACE('OSCAD_TOPO/3|face|f:d512ec0c3b583300de470fac8d8a9c82|9d684db538ca2b6f03205ab82d88bbe5ecbb3a9787d234e933965f3c62e81433',(#213),#31,.T.);
#215=FACE_OUTER_BOUND('',#189,.T.);
#216=ADVANCED_FACE('OSCAD_TOPO/3|face|f:b90196f0ee613d592b772ca89c63c703|61da80e80f1ae663a9d8ae54087a7156701f17b46db166f5867cb839092b1be3',(#215),#36,.T.);
#217=FACE_OUTER_BOUND('',#193,.T.);
#218=ADVANCED_FACE('OSCAD_TOPO/3|face|f:a6d5b90418ef5f346110fcebc3dbe673|78ca66d4a899a45099038686f1c61c79e61234fc6720f7a5d7b73958fb534a80',(#217),#41,.T.);
#219=CLOSED_SHELL('OSCAD_TOPO/3|shell|s:ff69f63f6086f993e3b68a9cc5a663c1|46dcf9b2a9662015e282df0749a588f029c7eda23de52b35aaa2c551ca819747',(#210,#212,#214,#216,#218));
#220=MANIFOLD_SOLID_BREP('OSCAD_TOPO/3|body|b:e23b3c5282f036be3292d1f4f8a0860e|eb10e4a01bd2054680dd0ccad2487d3a2580d6c564630ea0dc01c3ff20d9dff2',#219);
#221=(LENGTH_UNIT()NAMED_UNIT(*)SI_UNIT(.MILLI.,.METRE.));
#222=UNCERTAINTY_MEASURE_WITH_UNIT(LENGTH_MEASURE(9.99999999999999955E-8),#221,'distance_accuracy_value','');
#223=(GEOMETRIC_REPRESENTATION_CONTEXT(3)GLOBAL_UNCERTAINTY_ASSIGNED_CONTEXT((#222))GLOBAL_UNIT_ASSIGNED_CONTEXT((#221))REPRESENTATION_CONTEXT('','3D'));
#224=ADVANCED_BREP_SHAPE_REPRESENTATION('',(#220),#223);
#225=APPLICATION_CONTEXT('managed model based 3d engineering');
#226=PRODUCT_CONTEXT('',#225,'mechanical');
#227=PRODUCT('model','model','',(#226));
#228=PRODUCT_DEFINITION_FORMATION('1','',#227);
#229=PRODUCT_DEFINITION_CONTEXT('part definition',#225,'design');
#230=PRODUCT_DEFINITION('design','',#228,#229);
#231=PRODUCT_DEFINITION_SHAPE('','',#230);
#232=SHAPE_DEFINITION_REPRESENTATION(#231,#224);
ENDSEC;
END-ISO-10303-21;
