ISO-10303-21;
HEADER;
FILE_DESCRIPTION(('OpenSCAD Viewer retained AP242 B-rep'),'2;1');
FILE_NAME('model.step','',(''),(''),'OpenSCAD Viewer','OpenSCAD Viewer','');
FILE_SCHEMA(('AP242_MANAGED_MODEL_BASED_3D_ENGINEERING_MIM_LF'));
ENDSEC;
DATA;
#1=CARTESIAN_POINT('',(-4.00000000000000000E0,-3.00000000000000000E0,0.00000000000000000E0));
#2=VERTEX_POINT('OSCAD_TOPO/3|vertex|v:e9159800197ac51a113f56318c8d95a4|3112ea7156227175d20b59c8f44ddf2826d8bf677f6890e64877650f2b445adb',#1);
#3=CARTESIAN_POINT('',(-4.00000000000000000E0,-3.00000000000000000E0,5.00000000000000000E0));
#4=VERTEX_POINT('OSCAD_TOPO/3|vertex|v:62b54d236e4ac65928122c21cbd71d88|4172c913f04b3cc26b72c91f307267c6ae0dbd68bc0b24c928b4dc14a1a86922',#3);
#5=CARTESIAN_POINT('',(3.00000000000000000E0,-3.00000000000000000E0,0.00000000000000000E0));
#6=VERTEX_POINT('OSCAD_TOPO/3|vertex|v:1104972d4357acda6963e6d6481dbab8|15388e813f4ccbee75845e9815d37fa2434778dbc7bdbd7310a49f03395354ad',#5);
#7=CARTESIAN_POINT('',(3.00000000000000000E0,-3.00000000000000000E0,5.00000000000000000E0));
#8=VERTEX_POINT('OSCAD_TOPO/3|vertex|v:bd2702eef03b7e543c7012ee2cbb2428|86646c94a2cdd433695a3ad09ca3fbc21b42f461a9b54b70e97a0ba59c380d99',#7);
#9=CARTESIAN_POINT('',(3.00000000000000000E0,-2.00000000000000000E0,0.00000000000000000E0));
#10=VERTEX_POINT('OSCAD_TOPO/3|vertex|v:467045df5a517d97800219a315153f68|30578c6ff6fe7d549d5397a1366652934ee3fd881f8e2d53391d11adab2b6a80',#9);
#11=CARTESIAN_POINT('',(3.00000000000000000E0,-2.00000000000000000E0,5.00000000000000000E0));
#12=VERTEX_POINT('OSCAD_TOPO/3|vertex|v:5ef288df64dc29ba2955e7cab8094390|d9e19260d181496c3bb1f7438f9b54a2640ef80a8582d63e01052dfe6ee28e56',#11);
#13=CARTESIAN_POINT('',(5.00000000000000000E0,0.00000000000000000E0,0.00000000000000000E0));
#14=VERTEX_POINT('OSCAD_TOPO/3|vertex|v:ca0e371c0e65f05b5b78b9b603713aeb|4172a2f068046afc72ac3e751c4450c5c4a1bdf6a599d0c8bf438537a483418a',#13);
#15=CARTESIAN_POINT('',(5.00000000000000000E0,0.00000000000000000E0,5.00000000000000000E0));
#16=VERTEX_POINT('OSCAD_TOPO/3|vertex|v:3e9fbde3979e7b3f7622bc0c7e2e151b|9e7f3ef9e0eb8ae5953ef6ca64b8488933d298f278e2e67521bbc5b09efc982e',#15);
#17=CARTESIAN_POINT('',(3.00000000000000000E0,2.00000000000000000E0,0.00000000000000000E0));
#18=VERTEX_POINT('OSCAD_TOPO/3|vertex|v:a644b8f0dd14d8bf560515ae5e0f1d8c|e1faeab33b79058dc96376e3bdd7429d13b8162f1af59c4e77f57e09486b7613',#17);
#19=CARTESIAN_POINT('',(3.00000000000000000E0,2.00000000000000000E0,5.00000000000000000E0));
#20=VERTEX_POINT('OSCAD_TOPO/3|vertex|v:c28b7959f0bc5d093f82679622e1570e|397c32699fb80e5a78e38081df86a43e735aed21905a85da4b3807976ed55d42',#19);
#21=CARTESIAN_POINT('',(3.00000000000000000E0,3.00000000000000000E0,0.00000000000000000E0));
#22=VERTEX_POINT('OSCAD_TOPO/3|vertex|v:f6710c6bf37c492d7273aa42b0eb0354|8d28926292be1f0e30b4ad824027f934f6a24072cc16332e1f792c3f5b3b8b5c',#21);
#23=CARTESIAN_POINT('',(3.00000000000000000E0,3.00000000000000000E0,5.00000000000000000E0));
#24=VERTEX_POINT('OSCAD_TOPO/3|vertex|v:a30bd6f99ad3c3375bf7ba67bee6bc44|3d18ad2aaeeb6ffd2c9105e9966c21ee8f38611fcd4c95142d0334606b2dfa6d',#23);
#25=CARTESIAN_POINT('',(-4.00000000000000000E0,3.00000000000000000E0,0.00000000000000000E0));
#26=VERTEX_POINT('OSCAD_TOPO/3|vertex|v:e5273027e5d9a1c351ac1948902111c7|420d20b7002b37effbea2be303b433412d83431f12a0188db432fa928a995590',#25);
#27=CARTESIAN_POINT('',(-4.00000000000000000E0,3.00000000000000000E0,5.00000000000000000E0));
#28=VERTEX_POINT('OSCAD_TOPO/3|vertex|v:ec6e7a84d482be9c3f161cd05e23a769|97607ef1ec74f6bcc5807fa303857d2b2dd3b7701d7b46f103ed61945c734a0a',#27);
#29=CARTESIAN_POINT('',(-4.00000000000000000E0,-3.00000000000000000E0,0.00000000000000000E0));
#30=CARTESIAN_POINT('',(-4.00000000000000000E0,-3.00000000000000000E0,5.00000000000000000E0));
#31=CARTESIAN_POINT('',(3.00000000000000000E0,-3.00000000000000000E0,0.00000000000000000E0));
#32=CARTESIAN_POINT('',(3.00000000000000000E0,-3.00000000000000000E0,5.00000000000000000E0));
#33=B_SPLINE_SURFACE_WITH_KNOTS('',1,1,((#29,#30),(#31,#32)),.UNSPECIFIED.,.F.,.F.,.F.,(2,2),(2,2),(0.00000000000000000E0,1.00000000000000000E0),(0.00000000000000000E0,1.00000000000000000E0),.UNSPECIFIED.);
#34=CARTESIAN_POINT('',(3.00000000000000000E0,-3.00000000000000000E0,0.00000000000000000E0));
#35=CARTESIAN_POINT('',(3.00000000000000000E0,-3.00000000000000000E0,5.00000000000000000E0));
#36=CARTESIAN_POINT('',(3.00000000000000000E0,-2.00000000000000000E0,0.00000000000000000E0));
#37=CARTESIAN_POINT('',(3.00000000000000000E0,-2.00000000000000000E0,5.00000000000000000E0));
#38=B_SPLINE_SURFACE_WITH_KNOTS('',1,1,((#34,#35),(#36,#37)),.UNSPECIFIED.,.F.,.F.,.F.,(2,2),(2,2),(0.00000000000000000E0,1.00000000000000000E0),(0.00000000000000000E0,1.00000000000000000E0),.UNSPECIFIED.);
#39=CARTESIAN_POINT('',(3.00000000000000000E0,-2.00000000000000000E0,0.00000000000000000E0));
#40=CARTESIAN_POINT('',(3.00000000000000000E0,-2.00000000000000000E0,5.00000000000000000E0));
#41=CARTESIAN_POINT('',(5.00000000000000000E0,-2.00000000000000000E0,0.00000000000000000E0));
#42=CARTESIAN_POINT('',(5.00000000000000000E0,-2.00000000000000000E0,5.00000000000000000E0));
#43=CARTESIAN_POINT('',(5.00000000000000000E0,0.00000000000000000E0,0.00000000000000000E0));
#44=CARTESIAN_POINT('',(5.00000000000000000E0,0.00000000000000000E0,5.00000000000000000E0));
#45=(BOUNDED_SURFACE()B_SPLINE_SURFACE(2,1,((#39,#40),(#41,#42),(#43,#44)),.UNSPECIFIED.,.F.,.F.,.F.)B_SPLINE_SURFACE_WITH_KNOTS((3,3),(2,2),(0.00000000000000000E0,1.00000000000000000E0),(0.00000000000000000E0,1.00000000000000000E0),.UNSPECIFIED.)GEOMETRIC_REPRESENTATION_ITEM()RATIONAL_B_SPLINE_SURFACE(((1.00000000000000000E0,1.00000000000000000E0),(7.07106781186547573E-1,7.07106781186547573E-1),(1.00000000000000000E0,1.00000000000000000E0)))REPRESENTATION_ITEM('')SURFACE());
#46=CARTESIAN_POINT('',(5.00000000000000000E0,0.00000000000000000E0,0.00000000000000000E0));
#47=CARTESIAN_POINT('',(5.00000000000000000E0,0.00000000000000000E0,5.00000000000000000E0));
#48=CARTESIAN_POINT('',(5.00000000000000000E0,2.00000000000000000E0,0.00000000000000000E0));
#49=CARTESIAN_POINT('',(5.00000000000000000E0,2.00000000000000000E0,5.00000000000000000E0));
#50=CARTESIAN_POINT('',(3.00000000000000000E0,2.00000000000000000E0,0.00000000000000000E0));
#51=CARTESIAN_POINT('',(3.00000000000000000E0,2.00000000000000000E0,5.00000000000000000E0));
#52=(BOUNDED_SURFACE()B_SPLINE_SURFACE(2,1,((#46,#47),(#48,#49),(#50,#51)),.UNSPECIFIED.,.F.,.F.,.F.)B_SPLINE_SURFACE_WITH_KNOTS((3,3),(2,2),(0.00000000000000000E0,1.00000000000000000E0),(0.00000000000000000E0,1.00000000000000000E0),.UNSPECIFIED.)GEOMETRIC_REPRESENTATION_ITEM()RATIONAL_B_SPLINE_SURFACE(((1.00000000000000000E0,1.00000000000000000E0),(7.07106781186547573E-1,7.07106781186547573E-1),(1.00000000000000000E0,1.00000000000000000E0)))REPRESENTATION_ITEM('')SURFACE());
#53=CARTESIAN_POINT('',(3.00000000000000000E0,2.00000000000000000E0,0.00000000000000000E0));
#54=CARTESIAN_POINT('',(3.00000000000000000E0,2.00000000000000000E0,5.00000000000000000E0));
#55=CARTESIAN_POINT('',(3.00000000000000000E0,3.00000000000000000E0,0.00000000000000000E0));
#56=CARTESIAN_POINT('',(3.00000000000000000E0,3.00000000000000000E0,5.00000000000000000E0));
#57=B_SPLINE_SURFACE_WITH_KNOTS('',1,1,((#53,#54),(#55,#56)),.UNSPECIFIED.,.F.,.F.,.F.,(2,2),(2,2),(0.00000000000000000E0,1.00000000000000000E0),(0.00000000000000000E0,1.00000000000000000E0),.UNSPECIFIED.);
#58=CARTESIAN_POINT('',(3.00000000000000000E0,3.00000000000000000E0,0.00000000000000000E0));
#59=CARTESIAN_POINT('',(3.00000000000000000E0,3.00000000000000000E0,5.00000000000000000E0));
#60=CARTESIAN_POINT('',(-4.00000000000000000E0,3.00000000000000000E0,0.00000000000000000E0));
#61=CARTESIAN_POINT('',(-4.00000000000000000E0,3.00000000000000000E0,5.00000000000000000E0));
#62=B_SPLINE_SURFACE_WITH_KNOTS('',1,1,((#58,#59),(#60,#61)),.UNSPECIFIED.,.F.,.F.,.F.,(2,2),(2,2),(0.00000000000000000E0,1.00000000000000000E0),(0.00000000000000000E0,1.00000000000000000E0),.UNSPECIFIED.);
#63=CARTESIAN_POINT('',(-4.00000000000000000E0,3.00000000000000000E0,0.00000000000000000E0));
#64=CARTESIAN_POINT('',(-4.00000000000000000E0,3.00000000000000000E0,5.00000000000000000E0));
#65=CARTESIAN_POINT('',(-4.00000000000000000E0,-3.00000000000000000E0,0.00000000000000000E0));
#66=CARTESIAN_POINT('',(-4.00000000000000000E0,-3.00000000000000000E0,5.00000000000000000E0));
#67=B_SPLINE_SURFACE_WITH_KNOTS('',1,1,((#63,#64),(#65,#66)),.UNSPECIFIED.,.F.,.F.,.F.,(2,2),(2,2),(0.00000000000000000E0,1.00000000000000000E0),(0.00000000000000000E0,1.00000000000000000E0),.UNSPECIFIED.);
#68=CARTESIAN_POINT('',(5.00000000000000000E0,-3.00000000000000000E0,0.00000000000000000E0));
#69=CARTESIAN_POINT('',(5.00000000000000000E0,3.00000000000000000E0,0.00000000000000000E0));
#70=CARTESIAN_POINT('',(-4.00000000000000000E0,-3.00000000000000000E0,0.00000000000000000E0));
#71=CARTESIAN_POINT('',(-4.00000000000000000E0,3.00000000000000000E0,0.00000000000000000E0));
#72=B_SPLINE_SURFACE_WITH_KNOTS('',1,1,((#68,#69),(#70,#71)),.UNSPECIFIED.,.F.,.F.,.F.,(2,2),(2,2),(0.00000000000000000E0,1.00000000000000000E0),(0.00000000000000000E0,1.00000000000000000E0),.UNSPECIFIED.);
#73=CARTESIAN_POINT('',(-4.00000000000000000E0,-3.00000000000000000E0,5.00000000000000000E0));
#74=CARTESIAN_POINT('',(-4.00000000000000000E0,3.00000000000000000E0,5.00000000000000000E0));
#75=CARTESIAN_POINT('',(5.00000000000000000E0,-3.00000000000000000E0,5.00000000000000000E0));
#76=CARTESIAN_POINT('',(5.00000000000000000E0,3.00000000000000000E0,5.00000000000000000E0));
#77=B_SPLINE_SURFACE_WITH_KNOTS('',1,1,((#73,#74),(#75,#76)),.UNSPECIFIED.,.F.,.F.,.F.,(2,2),(2,2),(0.00000000000000000E0,1.00000000000000000E0),(0.00000000000000000E0,1.00000000000000000E0),.UNSPECIFIED.);
#78=CARTESIAN_POINT('',(-4.00000000000000000E0,-3.00000000000000000E0,0.00000000000000000E0));
#79=CARTESIAN_POINT('',(3.00000000000000000E0,-3.00000000000000000E0,0.00000000000000000E0));
#80=B_SPLINE_CURVE_WITH_KNOTS('',1,(#78,#79),.UNSPECIFIED.,.F.,.F.,(2,2),(0.00000000000000000E0,1.00000000000000000E0),.UNSPECIFIED.);
#81=CARTESIAN_POINT('',(-4.00000000000000000E0,-3.00000000000000000E0,5.00000000000000000E0));
#82=CARTESIAN_POINT('',(3.00000000000000000E0,-3.00000000000000000E0,5.00000000000000000E0));
#83=B_SPLINE_CURVE_WITH_KNOTS('',1,(#81,#82),.UNSPECIFIED.,.F.,.F.,(2,2),(0.00000000000000000E0,1.00000000000000000E0),.UNSPECIFIED.);
#84=CARTESIAN_POINT('',(-4.00000000000000000E0,-3.00000000000000000E0,0.00000000000000000E0));
#85=CARTESIAN_POINT('',(-4.00000000000000000E0,-3.00000000000000000E0,5.00000000000000000E0));
#86=B_SPLINE_CURVE_WITH_KNOTS('',1,(#84,#85),.UNSPECIFIED.,.F.,.F.,(2,2),(0.00000000000000000E0,1.00000000000000000E0),.UNSPECIFIED.);
#87=CARTESIAN_POINT('',(3.00000000000000000E0,-3.00000000000000000E0,0.00000000000000000E0));
#88=CARTESIAN_POINT('',(3.00000000000000000E0,-2.00000000000000000E0,0.00000000000000000E0));
#89=B_SPLINE_CURVE_WITH_KNOTS('',1,(#87,#88),.UNSPECIFIED.,.F.,.F.,(2,2),(0.00000000000000000E0,1.00000000000000000E0),.UNSPECIFIED.);
#90=CARTESIAN_POINT('',(3.00000000000000000E0,-3.00000000000000000E0,5.00000000000000000E0));
#91=CARTESIAN_POINT('',(3.00000000000000000E0,-2.00000000000000000E0,5.00000000000000000E0));
#92=B_SPLINE_CURVE_WITH_KNOTS('',1,(#90,#91),.UNSPECIFIED.,.F.,.F.,(2,2),(0.00000000000000000E0,1.00000000000000000E0),.UNSPECIFIED.);
#93=CARTESIAN_POINT('',(3.00000000000000000E0,-3.00000000000000000E0,0.00000000000000000E0));
#94=CARTESIAN_POINT('',(3.00000000000000000E0,-3.00000000000000000E0,5.00000000000000000E0));
#95=B_SPLINE_CURVE_WITH_KNOTS('',1,(#93,#94),.UNSPECIFIED.,.F.,.F.,(2,2),(0.00000000000000000E0,1.00000000000000000E0),.UNSPECIFIED.);
#96=CARTESIAN_POINT('',(3.00000000000000000E0,-2.00000000000000000E0,0.00000000000000000E0));
#97=CARTESIAN_POINT('',(5.00000000000000000E0,-2.00000000000000000E0,0.00000000000000000E0));
#98=CARTESIAN_POINT('',(5.00000000000000000E0,0.00000000000000000E0,0.00000000000000000E0));
#99=(BOUNDED_CURVE()B_SPLINE_CURVE(2,(#96,#97,#98),.UNSPECIFIED.,.F.,.F.)B_SPLINE_CURVE_WITH_KNOTS((3,3),(0.00000000000000000E0,1.00000000000000000E0),.UNSPECIFIED.)CURVE()GEOMETRIC_REPRESENTATION_ITEM()RATIONAL_B_SPLINE_CURVE((1.00000000000000000E0,7.07106781186547573E-1,1.00000000000000000E0))REPRESENTATION_ITEM(''));
#100=CARTESIAN_POINT('',(3.00000000000000000E0,-2.00000000000000000E0,5.00000000000000000E0));
#101=CARTESIAN_POINT('',(5.00000000000000000E0,-2.00000000000000000E0,5.00000000000000000E0));
#102=CARTESIAN_POINT('',(5.00000000000000000E0,0.00000000000000000E0,5.00000000000000000E0));
#103=(BOUNDED_CURVE()B_SPLINE_CURVE(2,(#100,#101,#102),.UNSPECIFIED.,.F.,.F.)B_SPLINE_CURVE_WITH_KNOTS((3,3),(0.00000000000000000E0,1.00000000000000000E0),.UNSPECIFIED.)CURVE()GEOMETRIC_REPRESENTATION_ITEM()RATIONAL_B_SPLINE_CURVE((1.00000000000000000E0,7.07106781186547573E-1,1.00000000000000000E0))REPRESENTATION_ITEM(''));
#104=CARTESIAN_POINT('',(3.00000000000000000E0,-2.00000000000000000E0,0.00000000000000000E0));
#105=CARTESIAN_POINT('',(3.00000000000000000E0,-2.00000000000000000E0,5.00000000000000000E0));
#106=B_SPLINE_CURVE_WITH_KNOTS('',1,(#104,#105),.UNSPECIFIED.,.F.,.F.,(2,2),(0.00000000000000000E0,1.00000000000000000E0),.UNSPECIFIED.);
#107=CARTESIAN_POINT('',(5.00000000000000000E0,0.00000000000000000E0,0.00000000000000000E0));
#108=CARTESIAN_POINT('',(5.00000000000000000E0,2.00000000000000000E0,0.00000000000000000E0));
#109=CARTESIAN_POINT('',(3.00000000000000000E0,2.00000000000000000E0,0.00000000000000000E0));
#110=(BOUNDED_CURVE()B_SPLINE_CURVE(2,(#107,#108,#109),.UNSPECIFIED.,.F.,.F.)B_SPLINE_CURVE_WITH_KNOTS((3,3),(0.00000000000000000E0,1.00000000000000000E0),.UNSPECIFIED.)CURVE()GEOMETRIC_REPRESENTATION_ITEM()RATIONAL_B_SPLINE_CURVE((1.00000000000000000E0,7.07106781186547573E-1,1.00000000000000000E0))REPRESENTATION_ITEM(''));
#111=CARTESIAN_POINT('',(5.00000000000000000E0,0.00000000000000000E0,5.00000000000000000E0));
#112=CARTESIAN_POINT('',(5.00000000000000000E0,2.00000000000000000E0,5.00000000000000000E0));
#113=CARTESIAN_POINT('',(3.00000000000000000E0,2.00000000000000000E0,5.00000000000000000E0));
#114=(BOUNDED_CURVE()B_SPLINE_CURVE(2,(#111,#112,#113),.UNSPECIFIED.,.F.,.F.)B_SPLINE_CURVE_WITH_KNOTS((3,3),(0.00000000000000000E0,1.00000000000000000E0),.UNSPECIFIED.)CURVE()GEOMETRIC_REPRESENTATION_ITEM()RATIONAL_B_SPLINE_CURVE((1.00000000000000000E0,7.07106781186547573E-1,1.00000000000000000E0))REPRESENTATION_ITEM(''));
#115=CARTESIAN_POINT('',(5.00000000000000000E0,0.00000000000000000E0,0.00000000000000000E0));
#116=CARTESIAN_POINT('',(5.00000000000000000E0,0.00000000000000000E0,5.00000000000000000E0));
#117=B_SPLINE_CURVE_WITH_KNOTS('',1,(#115,#116),.UNSPECIFIED.,.F.,.F.,(2,2),(0.00000000000000000E0,1.00000000000000000E0),.UNSPECIFIED.);
#118=CARTESIAN_POINT('',(3.00000000000000000E0,2.00000000000000000E0,0.00000000000000000E0));
#119=CARTESIAN_POINT('',(3.00000000000000000E0,3.00000000000000000E0,0.00000000000000000E0));
#120=B_SPLINE_CURVE_WITH_KNOTS('',1,(#118,#119),.UNSPECIFIED.,.F.,.F.,(2,2),(0.00000000000000000E0,1.00000000000000000E0),.UNSPECIFIED.);
#121=CARTESIAN_POINT('',(3.00000000000000000E0,2.00000000000000000E0,5.00000000000000000E0));
#122=CARTESIAN_POINT('',(3.00000000000000000E0,3.00000000000000000E0,5.00000000000000000E0));
#123=B_SPLINE_CURVE_WITH_KNOTS('',1,(#121,#122),.UNSPECIFIED.,.F.,.F.,(2,2),(0.00000000000000000E0,1.00000000000000000E0),.UNSPECIFIED.);
#124=CARTESIAN_POINT('',(3.00000000000000000E0,2.00000000000000000E0,0.00000000000000000E0));
#125=CARTESIAN_POINT('',(3.00000000000000000E0,2.00000000000000000E0,5.00000000000000000E0));
#126=B_SPLINE_CURVE_WITH_KNOTS('',1,(#124,#125),.UNSPECIFIED.,.F.,.F.,(2,2),(0.00000000000000000E0,1.00000000000000000E0),.UNSPECIFIED.);
#127=CARTESIAN_POINT('',(3.00000000000000000E0,3.00000000000000000E0,0.00000000000000000E0));
#128=CARTESIAN_POINT('',(-4.00000000000000000E0,3.00000000000000000E0,0.00000000000000000E0));
#129=B_SPLINE_CURVE_WITH_KNOTS('',1,(#127,#128),.UNSPECIFIED.,.F.,.F.,(2,2),(0.00000000000000000E0,1.00000000000000000E0),.UNSPECIFIED.);
#130=CARTESIAN_POINT('',(3.00000000000000000E0,3.00000000000000000E0,5.00000000000000000E0));
#131=CARTESIAN_POINT('',(-4.00000000000000000E0,3.00000000000000000E0,5.00000000000000000E0));
#132=B_SPLINE_CURVE_WITH_KNOTS('',1,(#130,#131),.UNSPECIFIED.,.F.,.F.,(2,2),(0.00000000000000000E0,1.00000000000000000E0),.UNSPECIFIED.);
#133=CARTESIAN_POINT('',(3.00000000000000000E0,3.00000000000000000E0,0.00000000000000000E0));
#134=CARTESIAN_POINT('',(3.00000000000000000E0,3.00000000000000000E0,5.00000000000000000E0));
#135=B_SPLINE_CURVE_WITH_KNOTS('',1,(#133,#134),.UNSPECIFIED.,.F.,.F.,(2,2),(0.00000000000000000E0,1.00000000000000000E0),.UNSPECIFIED.);
#136=CARTESIAN_POINT('',(-4.00000000000000000E0,3.00000000000000000E0,0.00000000000000000E0));
#137=CARTESIAN_POINT('',(-4.00000000000000000E0,-3.00000000000000000E0,0.00000000000000000E0));
#138=B_SPLINE_CURVE_WITH_KNOTS('',1,(#136,#137),.UNSPECIFIED.,.F.,.F.,(2,2),(0.00000000000000000E0,1.00000000000000000E0),.UNSPECIFIED.);
#139=CARTESIAN_POINT('',(-4.00000000000000000E0,3.00000000000000000E0,5.00000000000000000E0));
#140=CARTESIAN_POINT('',(-4.00000000000000000E0,-3.00000000000000000E0,5.00000000000000000E0));
#141=B_SPLINE_CURVE_WITH_KNOTS('',1,(#139,#140),.UNSPECIFIED.,.F.,.F.,(2,2),(0.00000000000000000E0,1.00000000000000000E0),.UNSPECIFIED.);
#142=CARTESIAN_POINT('',(-4.00000000000000000E0,3.00000000000000000E0,0.00000000000000000E0));
#143=CARTESIAN_POINT('',(-4.00000000000000000E0,3.00000000000000000E0,5.00000000000000000E0));
#144=B_SPLINE_CURVE_WITH_KNOTS('',1,(#142,#143),.UNSPECIFIED.,.F.,.F.,(2,2),(0.00000000000000000E0,1.00000000000000000E0),.UNSPECIFIED.);
#145=(GEOMETRIC_REPRESENTATION_CONTEXT(2)REPRESENTATION_CONTEXT('','2D'));
#146=CARTESIAN_POINT('',(1.00000000000000000E0,0.00000000000000000E0));
#147=CARTESIAN_POINT('',(1.00000000000000000E0,1.00000000000000000E0));
#148=B_SPLINE_CURVE_WITH_KNOTS('',1,(#146,#147),.UNSPECIFIED.,.F.,.F.,(2,2),(0.00000000000000000E0,1.00000000000000000E0),.UNSPECIFIED.);
#149=DEFINITIONAL_REPRESENTATION('',(#148),#145);
#150=PCURVE('',#72,#149);
#151=CARTESIAN_POINT('',(1.00000000000000000E0,1.00000000000000000E0));
#152=CARTESIAN_POINT('',(2.22222222222222210E-1,1.00000000000000000E0));
#153=B_SPLINE_CURVE_WITH_KNOTS('',1,(#151,#152),.UNSPECIFIED.,.F.,.F.,(2,2),(0.00000000000000000E0,1.00000000000000000E0),.UNSPECIFIED.);
#154=DEFINITIONAL_REPRESENTATION('',(#153),#145);
#155=PCURVE('',#72,#154);
#156=CARTESIAN_POINT('',(2.22222222222222210E-1,1.00000000000000000E0));
#157=CARTESIAN_POINT('',(2.22222222222222210E-1,8.33333333333333370E-1));
#158=B_SPLINE_CURVE_WITH_KNOTS('',1,(#156,#157),.UNSPECIFIED.,.F.,.F.,(2,2),(0.00000000000000000E0,1.00000000000000000E0),.UNSPECIFIED.);
#159=DEFINITIONAL_REPRESENTATION('',(#158),#145);
#160=PCURVE('',#72,#159);
#161=CARTESIAN_POINT('',(2.22222222222222210E-1,8.33333333333333370E-1));
#162=CARTESIAN_POINT('',(0.00000000000000000E0,8.33333333333333370E-1));
#163=CARTESIAN_POINT('',(0.00000000000000000E0,5.00000000000000000E-1));
#164=(BOUNDED_CURVE()B_SPLINE_CURVE(2,(#161,#162,#163),.UNSPECIFIED.,.F.,.F.)B_SPLINE_CURVE_WITH_KNOTS((3,3),(0.00000000000000000E0,1.00000000000000000E0),.UNSPECIFIED.)CURVE()GEOMETRIC_REPRESENTATION_ITEM()RATIONAL_B_SPLINE_CURVE((1.00000000000000000E0,7.07106781186547573E-1,1.00000000000000000E0))REPRESENTATION_ITEM(''));
#165=DEFINITIONAL_REPRESENTATION('',(#164),#145);
#166=PCURVE('',#72,#165);
#167=CARTESIAN_POINT('',(0.00000000000000000E0,5.00000000000000000E-1));
#168=CARTESIAN_POINT('',(0.00000000000000000E0,1.66666666666666657E-1));
#169=CARTESIAN_POINT('',(2.22222222222222210E-1,1.66666666666666657E-1));
#170=(BOUNDED_CURVE()B_SPLINE_CURVE(2,(#167,#168,#169),.UNSPECIFIED.,.F.,.F.)B_SPLINE_CURVE_WITH_KNOTS((3,3),(0.00000000000000000E0,1.00000000000000000E0),.UNSPECIFIED.)CURVE()GEOMETRIC_REPRESENTATION_ITEM()RATIONAL_B_SPLINE_CURVE((1.00000000000000000E0,7.07106781186547573E-1,1.00000000000000000E0))REPRESENTATION_ITEM(''));
#171=DEFINITIONAL_REPRESENTATION('',(#170),#145);
#172=PCURVE('',#72,#171);
#173=CARTESIAN_POINT('',(2.22222222222222210E-1,1.66666666666666657E-1));
#174=CARTESIAN_POINT('',(2.22222222222222210E-1,0.00000000000000000E0));
#175=B_SPLINE_CURVE_WITH_KNOTS('',1,(#173,#174),.UNSPECIFIED.,.F.,.F.,(2,2),(0.00000000000000000E0,1.00000000000000000E0),.UNSPECIFIED.);
#176=DEFINITIONAL_REPRESENTATION('',(#175),#145);
#177=PCURVE('',#72,#176);
#178=CARTESIAN_POINT('',(2.22222222222222210E-1,0.00000000000000000E0));
#179=CARTESIAN_POINT('',(1.00000000000000000E0,0.00000000000000000E0));
#180=B_SPLINE_CURVE_WITH_KNOTS('',1,(#178,#179),.UNSPECIFIED.,.F.,.F.,(2,2),(0.00000000000000000E0,1.00000000000000000E0),.UNSPECIFIED.);
#181=DEFINITIONAL_REPRESENTATION('',(#180),#145);
#182=PCURVE('',#72,#181);
#183=CARTESIAN_POINT('',(0.00000000000000000E0,0.00000000000000000E0));
#184=CARTESIAN_POINT('',(7.77777777777777790E-1,0.00000000000000000E0));
#185=B_SPLINE_CURVE_WITH_KNOTS('',1,(#183,#184),.UNSPECIFIED.,.F.,.F.,(2,2),(0.00000000000000000E0,1.00000000000000000E0),.UNSPECIFIED.);
#186=DEFINITIONAL_REPRESENTATION('',(#185),#145);
#187=PCURVE('',#77,#186);
#188=CARTESIAN_POINT('',(7.77777777777777790E-1,0.00000000000000000E0));
#189=CARTESIAN_POINT('',(7.77777777777777790E-1,1.66666666666666657E-1));
#190=B_SPLINE_CURVE_WITH_KNOTS('',1,(#188,#189),.UNSPECIFIED.,.F.,.F.,(2,2),(0.00000000000000000E0,1.00000000000000000E0),.UNSPECIFIED.);
#191=DEFINITIONAL_REPRESENTATION('',(#190),#145);
#192=PCURVE('',#77,#191);
#193=CARTESIAN_POINT('',(7.77777777777777790E-1,1.66666666666666657E-1));
#194=CARTESIAN_POINT('',(1.00000000000000000E0,1.66666666666666657E-1));
#195=CARTESIAN_POINT('',(1.00000000000000000E0,5.00000000000000000E-1));
#196=(BOUNDED_CURVE()B_SPLINE_CURVE(2,(#193,#194,#195),.UNSPECIFIED.,.F.,.F.)B_SPLINE_CURVE_WITH_KNOTS((3,3),(0.00000000000000000E0,1.00000000000000000E0),.UNSPECIFIED.)CURVE()GEOMETRIC_REPRESENTATION_ITEM()RATIONAL_B_SPLINE_CURVE((1.00000000000000000E0,7.07106781186547573E-1,1.00000000000000000E0))REPRESENTATION_ITEM(''));
#197=DEFINITIONAL_REPRESENTATION('',(#196),#145);
#198=PCURVE('',#77,#197);
#199=CARTESIAN_POINT('',(1.00000000000000000E0,5.00000000000000000E-1));
#200=CARTESIAN_POINT('',(1.00000000000000000E0,8.33333333333333370E-1));
#201=CARTESIAN_POINT('',(7.77777777777777790E-1,8.33333333333333370E-1));
#202=(BOUNDED_CURVE()B_SPLINE_CURVE(2,(#199,#200,#201),.UNSPECIFIED.,.F.,.F.)B_SPLINE_CURVE_WITH_KNOTS((3,3),(0.00000000000000000E0,1.00000000000000000E0),.UNSPECIFIED.)CURVE()GEOMETRIC_REPRESENTATION_ITEM()RATIONAL_B_SPLINE_CURVE((1.00000000000000000E0,7.07106781186547573E-1,1.00000000000000000E0))REPRESENTATION_ITEM(''));
#203=DEFINITIONAL_REPRESENTATION('',(#202),#145);
#204=PCURVE('',#77,#203);
#205=CARTESIAN_POINT('',(7.77777777777777790E-1,8.33333333333333370E-1));
#206=CARTESIAN_POINT('',(7.77777777777777790E-1,1.00000000000000000E0));
#207=B_SPLINE_CURVE_WITH_KNOTS('',1,(#205,#206),.UNSPECIFIED.,.F.,.F.,(2,2),(0.00000000000000000E0,1.00000000000000000E0),.UNSPECIFIED.);
#208=DEFINITIONAL_REPRESENTATION('',(#207),#145);
#209=PCURVE('',#77,#208);
#210=CARTESIAN_POINT('',(7.77777777777777790E-1,1.00000000000000000E0));
#211=CARTESIAN_POINT('',(0.00000000000000000E0,1.00000000000000000E0));
#212=B_SPLINE_CURVE_WITH_KNOTS('',1,(#210,#211),.UNSPECIFIED.,.F.,.F.,(2,2),(0.00000000000000000E0,1.00000000000000000E0),.UNSPECIFIED.);
#213=DEFINITIONAL_REPRESENTATION('',(#212),#145);
#214=PCURVE('',#77,#213);
#215=CARTESIAN_POINT('',(0.00000000000000000E0,1.00000000000000000E0));
#216=CARTESIAN_POINT('',(0.00000000000000000E0,0.00000000000000000E0));
#217=B_SPLINE_CURVE_WITH_KNOTS('',1,(#215,#216),.UNSPECIFIED.,.F.,.F.,(2,2),(0.00000000000000000E0,1.00000000000000000E0),.UNSPECIFIED.);
#218=DEFINITIONAL_REPRESENTATION('',(#217),#145);
#219=PCURVE('',#77,#218);
#220=CARTESIAN_POINT('',(0.00000000000000000E0,0.00000000000000000E0));
#221=CARTESIAN_POINT('',(1.00000000000000000E0,0.00000000000000000E0));
#222=B_SPLINE_CURVE_WITH_KNOTS('',1,(#220,#221),.UNSPECIFIED.,.F.,.F.,(2,2),(0.00000000000000000E0,1.00000000000000000E0),.UNSPECIFIED.);
#223=DEFINITIONAL_REPRESENTATION('',(#222),#145);
#224=PCURVE('',#33,#223);
#225=CARTESIAN_POINT('',(1.00000000000000000E0,0.00000000000000000E0));
#226=CARTESIAN_POINT('',(1.00000000000000000E0,1.00000000000000000E0));
#227=B_SPLINE_CURVE_WITH_KNOTS('',1,(#225,#226),.UNSPECIFIED.,.F.,.F.,(2,2),(0.00000000000000000E0,1.00000000000000000E0),.UNSPECIFIED.);
#228=DEFINITIONAL_REPRESENTATION('',(#227),#145);
#229=PCURVE('',#33,#228);
#230=CARTESIAN_POINT('',(1.00000000000000000E0,1.00000000000000000E0));
#231=CARTESIAN_POINT('',(0.00000000000000000E0,1.00000000000000000E0));
#232=B_SPLINE_CURVE_WITH_KNOTS('',1,(#230,#231),.UNSPECIFIED.,.F.,.F.,(2,2),(0.00000000000000000E0,1.00000000000000000E0),.UNSPECIFIED.);
#233=DEFINITIONAL_REPRESENTATION('',(#232),#145);
#234=PCURVE('',#33,#233);
#235=CARTESIAN_POINT('',(0.00000000000000000E0,1.00000000000000000E0));
#236=CARTESIAN_POINT('',(0.00000000000000000E0,0.00000000000000000E0));
#237=B_SPLINE_CURVE_WITH_KNOTS('',1,(#235,#236),.UNSPECIFIED.,.F.,.F.,(2,2),(0.00000000000000000E0,1.00000000000000000E0),.UNSPECIFIED.);
#238=DEFINITIONAL_REPRESENTATION('',(#237),#145);
#239=PCURVE('',#33,#238);
#240=CARTESIAN_POINT('',(0.00000000000000000E0,0.00000000000000000E0));
#241=CARTESIAN_POINT('',(1.00000000000000000E0,0.00000000000000000E0));
#242=B_SPLINE_CURVE_WITH_KNOTS('',1,(#240,#241),.UNSPECIFIED.,.F.,.F.,(2,2),(0.00000000000000000E0,1.00000000000000000E0),.UNSPECIFIED.);
#243=DEFINITIONAL_REPRESENTATION('',(#242),#145);
#244=PCURVE('',#38,#243);
#245=CARTESIAN_POINT('',(1.00000000000000000E0,0.00000000000000000E0));
#246=CARTESIAN_POINT('',(1.00000000000000000E0,1.00000000000000000E0));
#247=B_SPLINE_CURVE_WITH_KNOTS('',1,(#245,#246),.UNSPECIFIED.,.F.,.F.,(2,2),(0.00000000000000000E0,1.00000000000000000E0),.UNSPECIFIED.);
#248=DEFINITIONAL_REPRESENTATION('',(#247),#145);
#249=PCURVE('',#38,#248);
#250=CARTESIAN_POINT('',(1.00000000000000000E0,1.00000000000000000E0));
#251=CARTESIAN_POINT('',(0.00000000000000000E0,1.00000000000000000E0));
#252=B_SPLINE_CURVE_WITH_KNOTS('',1,(#250,#251),.UNSPECIFIED.,.F.,.F.,(2,2),(0.00000000000000000E0,1.00000000000000000E0),.UNSPECIFIED.);
#253=DEFINITIONAL_REPRESENTATION('',(#252),#145);
#254=PCURVE('',#38,#253);
#255=CARTESIAN_POINT('',(0.00000000000000000E0,1.00000000000000000E0));
#256=CARTESIAN_POINT('',(0.00000000000000000E0,0.00000000000000000E0));
#257=B_SPLINE_CURVE_WITH_KNOTS('',1,(#255,#256),.UNSPECIFIED.,.F.,.F.,(2,2),(0.00000000000000000E0,1.00000000000000000E0),.UNSPECIFIED.);
#258=DEFINITIONAL_REPRESENTATION('',(#257),#145);
#259=PCURVE('',#38,#258);
#260=CARTESIAN_POINT('',(0.00000000000000000E0,0.00000000000000000E0));
#261=CARTESIAN_POINT('',(1.00000000000000000E0,0.00000000000000000E0));
#262=B_SPLINE_CURVE_WITH_KNOTS('',1,(#260,#261),.UNSPECIFIED.,.F.,.F.,(2,2),(0.00000000000000000E0,1.00000000000000000E0),.UNSPECIFIED.);
#263=DEFINITIONAL_REPRESENTATION('',(#262),#145);
#264=PCURVE('',#45,#263);
#265=CARTESIAN_POINT('',(1.00000000000000000E0,0.00000000000000000E0));
#266=CARTESIAN_POINT('',(1.00000000000000000E0,1.00000000000000000E0));
#267=B_SPLINE_CURVE_WITH_KNOTS('',1,(#265,#266),.UNSPECIFIED.,.F.,.F.,(2,2),(0.00000000000000000E0,1.00000000000000000E0),.UNSPECIFIED.);
#268=DEFINITIONAL_REPRESENTATION('',(#267),#145);
#269=PCURVE('',#45,#268);
#270=CARTESIAN_POINT('',(1.00000000000000000E0,1.00000000000000000E0));
#271=CARTESIAN_POINT('',(0.00000000000000000E0,1.00000000000000000E0));
#272=B_SPLINE_CURVE_WITH_KNOTS('',1,(#270,#271),.UNSPECIFIED.,.F.,.F.,(2,2),(0.00000000000000000E0,1.00000000000000000E0),.UNSPECIFIED.);
#273=DEFINITIONAL_REPRESENTATION('',(#272),#145);
#274=PCURVE('',#45,#273);
#275=CARTESIAN_POINT('',(0.00000000000000000E0,1.00000000000000000E0));
#276=CARTESIAN_POINT('',(0.00000000000000000E0,0.00000000000000000E0));
#277=B_SPLINE_CURVE_WITH_KNOTS('',1,(#275,#276),.UNSPECIFIED.,.F.,.F.,(2,2),(0.00000000000000000E0,1.00000000000000000E0),.UNSPECIFIED.);
#278=DEFINITIONAL_REPRESENTATION('',(#277),#145);
#279=PCURVE('',#45,#278);
#280=CARTESIAN_POINT('',(0.00000000000000000E0,0.00000000000000000E0));
#281=CARTESIAN_POINT('',(1.00000000000000000E0,0.00000000000000000E0));
#282=B_SPLINE_CURVE_WITH_KNOTS('',1,(#280,#281),.UNSPECIFIED.,.F.,.F.,(2,2),(0.00000000000000000E0,1.00000000000000000E0),.UNSPECIFIED.);
#283=DEFINITIONAL_REPRESENTATION('',(#282),#145);
#284=PCURVE('',#52,#283);
#285=CARTESIAN_POINT('',(1.00000000000000000E0,0.00000000000000000E0));
#286=CARTESIAN_POINT('',(1.00000000000000000E0,1.00000000000000000E0));
#287=B_SPLINE_CURVE_WITH_KNOTS('',1,(#285,#286),.UNSPECIFIED.,.F.,.F.,(2,2),(0.00000000000000000E0,1.00000000000000000E0),.UNSPECIFIED.);
#288=DEFINITIONAL_REPRESENTATION('',(#287),#145);
#289=PCURVE('',#52,#288);
#290=CARTESIAN_POINT('',(1.00000000000000000E0,1.00000000000000000E0));
#291=CARTESIAN_POINT('',(0.00000000000000000E0,1.00000000000000000E0));
#292=B_SPLINE_CURVE_WITH_KNOTS('',1,(#290,#291),.UNSPECIFIED.,.F.,.F.,(2,2),(0.00000000000000000E0,1.00000000000000000E0),.UNSPECIFIED.);
#293=DEFINITIONAL_REPRESENTATION('',(#292),#145);
#294=PCURVE('',#52,#293);
#295=CARTESIAN_POINT('',(0.00000000000000000E0,1.00000000000000000E0));
#296=CARTESIAN_POINT('',(0.00000000000000000E0,0.00000000000000000E0));
#297=B_SPLINE_CURVE_WITH_KNOTS('',1,(#295,#296),.UNSPECIFIED.,.F.,.F.,(2,2),(0.00000000000000000E0,1.00000000000000000E0),.UNSPECIFIED.);
#298=DEFINITIONAL_REPRESENTATION('',(#297),#145);
#299=PCURVE('',#52,#298);
#300=CARTESIAN_POINT('',(0.00000000000000000E0,0.00000000000000000E0));
#301=CARTESIAN_POINT('',(1.00000000000000000E0,0.00000000000000000E0));
#302=B_SPLINE_CURVE_WITH_KNOTS('',1,(#300,#301),.UNSPECIFIED.,.F.,.F.,(2,2),(0.00000000000000000E0,1.00000000000000000E0),.UNSPECIFIED.);
#303=DEFINITIONAL_REPRESENTATION('',(#302),#145);
#304=PCURVE('',#57,#303);
#305=CARTESIAN_POINT('',(1.00000000000000000E0,0.00000000000000000E0));
#306=CARTESIAN_POINT('',(1.00000000000000000E0,1.00000000000000000E0));
#307=B_SPLINE_CURVE_WITH_KNOTS('',1,(#305,#306),.UNSPECIFIED.,.F.,.F.,(2,2),(0.00000000000000000E0,1.00000000000000000E0),.UNSPECIFIED.);
#308=DEFINITIONAL_REPRESENTATION('',(#307),#145);
#309=PCURVE('',#57,#308);
#310=CARTESIAN_POINT('',(1.00000000000000000E0,1.00000000000000000E0));
#311=CARTESIAN_POINT('',(0.00000000000000000E0,1.00000000000000000E0));
#312=B_SPLINE_CURVE_WITH_KNOTS('',1,(#310,#311),.UNSPECIFIED.,.F.,.F.,(2,2),(0.00000000000000000E0,1.00000000000000000E0),.UNSPECIFIED.);
#313=DEFINITIONAL_REPRESENTATION('',(#312),#145);
#314=PCURVE('',#57,#313);
#315=CARTESIAN_POINT('',(0.00000000000000000E0,1.00000000000000000E0));
#316=CARTESIAN_POINT('',(0.00000000000000000E0,0.00000000000000000E0));
#317=B_SPLINE_CURVE_WITH_KNOTS('',1,(#315,#316),.UNSPECIFIED.,.F.,.F.,(2,2),(0.00000000000000000E0,1.00000000000000000E0),.UNSPECIFIED.);
#318=DEFINITIONAL_REPRESENTATION('',(#317),#145);
#319=PCURVE('',#57,#318);
#320=CARTESIAN_POINT('',(0.00000000000000000E0,0.00000000000000000E0));
#321=CARTESIAN_POINT('',(1.00000000000000000E0,0.00000000000000000E0));
#322=B_SPLINE_CURVE_WITH_KNOTS('',1,(#320,#321),.UNSPECIFIED.,.F.,.F.,(2,2),(0.00000000000000000E0,1.00000000000000000E0),.UNSPECIFIED.);
#323=DEFINITIONAL_REPRESENTATION('',(#322),#145);
#324=PCURVE('',#62,#323);
#325=CARTESIAN_POINT('',(1.00000000000000000E0,0.00000000000000000E0));
#326=CARTESIAN_POINT('',(1.00000000000000000E0,1.00000000000000000E0));
#327=B_SPLINE_CURVE_WITH_KNOTS('',1,(#325,#326),.UNSPECIFIED.,.F.,.F.,(2,2),(0.00000000000000000E0,1.00000000000000000E0),.UNSPECIFIED.);
#328=DEFINITIONAL_REPRESENTATION('',(#327),#145);
#329=PCURVE('',#62,#328);
#330=CARTESIAN_POINT('',(1.00000000000000000E0,1.00000000000000000E0));
#331=CARTESIAN_POINT('',(0.00000000000000000E0,1.00000000000000000E0));
#332=B_SPLINE_CURVE_WITH_KNOTS('',1,(#330,#331),.UNSPECIFIED.,.F.,.F.,(2,2),(0.00000000000000000E0,1.00000000000000000E0),.UNSPECIFIED.);
#333=DEFINITIONAL_REPRESENTATION('',(#332),#145);
#334=PCURVE('',#62,#333);
#335=CARTESIAN_POINT('',(0.00000000000000000E0,1.00000000000000000E0));
#336=CARTESIAN_POINT('',(0.00000000000000000E0,0.00000000000000000E0));
#337=B_SPLINE_CURVE_WITH_KNOTS('',1,(#335,#336),.UNSPECIFIED.,.F.,.F.,(2,2),(0.00000000000000000E0,1.00000000000000000E0),.UNSPECIFIED.);
#338=DEFINITIONAL_REPRESENTATION('',(#337),#145);
#339=PCURVE('',#62,#338);
#340=CARTESIAN_POINT('',(0.00000000000000000E0,0.00000000000000000E0));
#341=CARTESIAN_POINT('',(1.00000000000000000E0,0.00000000000000000E0));
#342=B_SPLINE_CURVE_WITH_KNOTS('',1,(#340,#341),.UNSPECIFIED.,.F.,.F.,(2,2),(0.00000000000000000E0,1.00000000000000000E0),.UNSPECIFIED.);
#343=DEFINITIONAL_REPRESENTATION('',(#342),#145);
#344=PCURVE('',#67,#343);
#345=CARTESIAN_POINT('',(1.00000000000000000E0,0.00000000000000000E0));
#346=CARTESIAN_POINT('',(1.00000000000000000E0,1.00000000000000000E0));
#347=B_SPLINE_CURVE_WITH_KNOTS('',1,(#345,#346),.UNSPECIFIED.,.F.,.F.,(2,2),(0.00000000000000000E0,1.00000000000000000E0),.UNSPECIFIED.);
#348=DEFINITIONAL_REPRESENTATION('',(#347),#145);
#349=PCURVE('',#67,#348);
#350=CARTESIAN_POINT('',(1.00000000000000000E0,1.00000000000000000E0));
#351=CARTESIAN_POINT('',(0.00000000000000000E0,1.00000000000000000E0));
#352=B_SPLINE_CURVE_WITH_KNOTS('',1,(#350,#351),.UNSPECIFIED.,.F.,.F.,(2,2),(0.00000000000000000E0,1.00000000000000000E0),.UNSPECIFIED.);
#353=DEFINITIONAL_REPRESENTATION('',(#352),#145);
#354=PCURVE('',#67,#353);
#355=CARTESIAN_POINT('',(0.00000000000000000E0,1.00000000000000000E0));
#356=CARTESIAN_POINT('',(0.00000000000000000E0,0.00000000000000000E0));
#357=B_SPLINE_CURVE_WITH_KNOTS('',1,(#355,#356),.UNSPECIFIED.,.F.,.F.,(2,2),(0.00000000000000000E0,1.00000000000000000E0),.UNSPECIFIED.);
#358=DEFINITIONAL_REPRESENTATION('',(#357),#145);
#359=PCURVE('',#67,#358);
#360=SURFACE_CURVE('',#80,(#182,#224),.PCURVE_S1.);
#361=EDGE_CURVE('OSCAD_TOPO/3|edge|e:c65ba74512cc4b244ca3b6b7edbcfc40|ace706952dae4d761aa7898fdf4394b67d81d36e4d98f5c6e3a52ce970782d3e',#2,#6,#360,.T.);
#362=SURFACE_CURVE('',#83,(#187,#234),.PCURVE_S1.);
#363=EDGE_CURVE('OSCAD_TOPO/3|edge|e:6c1aafdddcdc6877515b24bafdd5c4ab|8f176b407cfc7aebf8b7ab335f554ad38983d42930b8fc6842d3a26f61b17918',#4,#8,#362,.T.);
#364=SURFACE_CURVE('',#86,(#239,#349),.PCURVE_S1.);
#365=EDGE_CURVE('OSCAD_TOPO/3|edge|e:c6aa33a86345a1a5808de5b9038e420b|fe1fd9dd322e5a1a69177e8990d8adf525062740ea44956f56114ecc4b466855',#2,#4,#364,.T.);
#366=SURFACE_CURVE('',#89,(#177,#244),.PCURVE_S1.);
#367=EDGE_CURVE('OSCAD_TOPO/3|edge|e:60e0a7e687615bc70756995601f9e09b|bf9d774be55fd677d12c45809397a4982e34544bb444cc1e3a5a3e4575021176',#6,#10,#366,.T.);
#368=SURFACE_CURVE('',#92,(#192,#254),.PCURVE_S1.);
#369=EDGE_CURVE('OSCAD_TOPO/3|edge|e:d9b071452af519b0236a19cd08cae18c|beb58a522381ecde1ab6252be20682fd7dc9621fc4857386327ff4aea7edd416',#8,#12,#368,.T.);
#370=SURFACE_CURVE('',#95,(#229,#259),.PCURVE_S1.);
#371=EDGE_CURVE('OSCAD_TOPO/3|edge|e:e1623141cff16c2a697df558a03853a2|11ba4dd6be89f3b4db9c998cef486ed0fa7be7b24b428d4864ce0a6cc2664c73',#6,#8,#370,.T.);
#372=SURFACE_CURVE('',#99,(#172,#264),.PCURVE_S1.);
#373=EDGE_CURVE('OSCAD_TOPO/3|edge|e:37ad053e09f8f27c0023d8d2ca59b390|91dec958d59ea316bc330871a4b99f49eb5548af7e39781edc09ef7151e80bb3',#10,#14,#372,.T.);
#374=SURFACE_CURVE('',#103,(#198,#274),.PCURVE_S1.);
#375=EDGE_CURVE('OSCAD_TOPO/3|edge|e:4f73f7b09169ac26b8fd6c0868f61142|787a11fa48baf3d66b98a219a353646056208587b7c2e70b6cfb06f67f8bdc2d',#12,#16,#374,.T.);
#376=SURFACE_CURVE('',#106,(#249,#279),.PCURVE_S1.);
#377=EDGE_CURVE('OSCAD_TOPO/3|edge|e:9d079e68432949eedb1f32d0c85a18a7|af4a381689c417fe78e17c66161a516b0d83b173c48c23e4f1584842fc946626',#10,#12,#376,.T.);
#378=SURFACE_CURVE('',#110,(#166,#284),.PCURVE_S1.);
#379=EDGE_CURVE('OSCAD_TOPO/3|edge|e:415ff790518191970fca12c34a4bc941|666fd201f5cdc558b2a3ea233d621888207daf498ad9d8178085522d3e9f320e',#14,#18,#378,.T.);
#380=SURFACE_CURVE('',#114,(#204,#294),.PCURVE_S1.);
#381=EDGE_CURVE('OSCAD_TOPO/3|edge|e:96d6b10374fdb590c4bb67efb41495cf|f2cdb031d4bff94a22f3440409c16e028a7464706e58de365828213cd78da70b',#16,#20,#380,.T.);
#382=SURFACE_CURVE('',#117,(#269,#299),.PCURVE_S1.);
#383=EDGE_CURVE('OSCAD_TOPO/3|edge|e:b2a34b56bb67d245f2a2f0f7b81dae67|8f04714677779a94a95a1c52b53531672a5292217b8358cae91b82a70286c57c',#14,#16,#382,.T.);
#384=SURFACE_CURVE('',#120,(#160,#304),.PCURVE_S1.);
#385=EDGE_CURVE('OSCAD_TOPO/3|edge|e:92306e39ab5cdd5715c22f9e7623d139|9725f0a213b824400825db53c99f45d4a79dac47cc8a03044a38878ecf3b19e3',#18,#22,#384,.T.);
#386=SURFACE_CURVE('',#123,(#209,#314),.PCURVE_S1.);
#387=EDGE_CURVE('OSCAD_TOPO/3|edge|e:d03195891a887353e15b937bcc8ac2f5|7a00dfe65ff8b41b741e5a5bc98b713248bb31ab9c04ad0ffcac53382f1de1a4',#20,#24,#386,.T.);
#388=SURFACE_CURVE('',#126,(#289,#319),.PCURVE_S1.);
#389=EDGE_CURVE('OSCAD_TOPO/3|edge|e:601e68c55f8e27645b4a79f6983338f7|5d9f220761fa066c0c3f8edfafe6ddf9369ad7fda54fdeafb1f148cdfa91c3d1',#18,#20,#388,.T.);
#390=SURFACE_CURVE('',#129,(#155,#324),.PCURVE_S1.);
#391=EDGE_CURVE('OSCAD_TOPO/3|edge|e:28ad91cedfde02f7e82135695f26ca75|bb26e4cb984997b9d20d44c99f1d03e2c45cb28efa883689532124300fbcf0e6',#22,#26,#390,.T.);
#392=SURFACE_CURVE('',#132,(#214,#334),.PCURVE_S1.);
#393=EDGE_CURVE('OSCAD_TOPO/3|edge|e:6ef2d5a0eae740d6e12c6ed2d764703d|b9f35b9fef95d8d37ce185483f1144d99110d5876b96789215ade381262e8abf',#24,#28,#392,.T.);
#394=SURFACE_CURVE('',#135,(#309,#339),.PCURVE_S1.);
#395=EDGE_CURVE('OSCAD_TOPO/3|edge|e:37e5a9717bbdcdd212317bd1db866f67|7e7d1e9ab98263009cbc32fbd12798b46a9b56f444f5375b2027547f9410a0eb',#22,#24,#394,.T.);
#396=SURFACE_CURVE('',#138,(#150,#344),.PCURVE_S1.);
#397=EDGE_CURVE('OSCAD_TOPO/3|edge|e:d5a26f48d8b62768c59cf46354e6f532|c9f0bedc4bbe7321f2a9845c8be7b8dcc0b4bd7ceb8030f3ab35d7d8196a3891',#26,#2,#396,.T.);
#398=SURFACE_CURVE('',#141,(#219,#354),.PCURVE_S1.);
#399=EDGE_CURVE('OSCAD_TOPO/3|edge|e:f9daec4b12de75038b83ea12fd107f4f|cc62def11c47aa61d1010a4103aad0dfd510f43527c396efdcb905f3843f8e5a',#28,#4,#398,.T.);
#400=SURFACE_CURVE('',#144,(#329,#359),.PCURVE_S1.);
#401=EDGE_CURVE('OSCAD_TOPO/3|edge|e:bb23f1e396e221076d968edc7ea09251|a8979a34cdeb54392870d27814e20bf2de5d2f7d76c4fbc29259f3cdf1444ea9',#26,#28,#400,.T.);
#402=ORIENTED_EDGE('',*,*,#397,.F.);
#403=ORIENTED_EDGE('',*,*,#391,.F.);
#404=ORIENTED_EDGE('',*,*,#385,.F.);
#405=ORIENTED_EDGE('',*,*,#379,.F.);
#406=ORIENTED_EDGE('',*,*,#373,.F.);
#407=ORIENTED_EDGE('',*,*,#367,.F.);
#408=ORIENTED_EDGE('',*,*,#361,.F.);
#409=EDGE_LOOP('OSCAD_TOPO/3|loop|l:b2b8872a962cf69e016b2c70f1657dd7|284b4967cf072f9e077800f5cdca86105720ebcea9800117fff684f3ddd14e1f',(#402,#403,#404,#405,#406,#407,#408));
#410=ORIENTED_EDGE('',*,*,#363,.T.);
#411=ORIENTED_EDGE('',*,*,#369,.T.);
#412=ORIENTED_EDGE('',*,*,#375,.T.);
#413=ORIENTED_EDGE('',*,*,#381,.T.);
#414=ORIENTED_EDGE('',*,*,#387,.T.);
#415=ORIENTED_EDGE('',*,*,#393,.T.);
#416=ORIENTED_EDGE('',*,*,#399,.T.);
#417=EDGE_LOOP('OSCAD_TOPO/3|loop|l:cd0a6f711f286f2ecc0d2baa0b224a4e|ef8b8d02b964a2aa9dda0f41595f824f1fb4ddba2e647b327984d1fbaf5e7270',(#410,#411,#412,#413,#414,#415,#416));
#418=ORIENTED_EDGE('',*,*,#361,.T.);
#419=ORIENTED_EDGE('',*,*,#371,.T.);
#420=ORIENTED_EDGE('',*,*,#363,.F.);
#421=ORIENTED_EDGE('',*,*,#365,.F.);
#422=EDGE_LOOP('OSCAD_TOPO/3|loop|l:ac7a7476eb5f22a8be889a4b1c4b82d9|b15ecc07a2b46339657fab066a5e0fb43fe8b4e3971d99a86af8c92694fe9f72',(#418,#419,#420,#421));
#423=ORIENTED_EDGE('',*,*,#367,.T.);
#424=ORIENTED_EDGE('',*,*,#377,.T.);
#425=ORIENTED_EDGE('',*,*,#369,.F.);
#426=ORIENTED_EDGE('',*,*,#371,.F.);
#427=EDGE_LOOP('OSCAD_TOPO/3|loop|l:f543236d49319a35f80341c8ec7a17bb|32875d576a839371567a339e242999099a519b4a784b2cd2dba03829620a4f84',(#423,#424,#425,#426));
#428=ORIENTED_EDGE('',*,*,#373,.T.);
#429=ORIENTED_EDGE('',*,*,#383,.T.);
#430=ORIENTED_EDGE('',*,*,#375,.F.);
#431=ORIENTED_EDGE('',*,*,#377,.F.);
#432=EDGE_LOOP('OSCAD_TOPO/3|loop|l:5782d402c924823a393bd8f118131ac5|132a29c0f187a60571123aad630dac5938c127c0106ae3977601f19345e65746',(#428,#429,#430,#431));
#433=ORIENTED_EDGE('',*,*,#379,.T.);
#434=ORIENTED_EDGE('',*,*,#389,.T.);
#435=ORIENTED_EDGE('',*,*,#381,.F.);
#436=ORIENTED_EDGE('',*,*,#383,.F.);
#437=EDGE_LOOP('OSCAD_TOPO/3|loop|l:c20808c0bf4ace17123853788eb32ff4|b8de0287fffef8fb46c4fc6d0c7cf8b7c981c648c16c741831598edcf698cc64',(#433,#434,#435,#436));
#438=ORIENTED_EDGE('',*,*,#385,.T.);
#439=ORIENTED_EDGE('',*,*,#395,.T.);
#440=ORIENTED_EDGE('',*,*,#387,.F.);
#441=ORIENTED_EDGE('',*,*,#389,.F.);
#442=EDGE_LOOP('OSCAD_TOPO/3|loop|l:883c3f117f3aa1ab98f527318ddde973|47e2f974bae836f843a9deb69c8b452105edf7cf052b796ec7b2e9d6d97a14a1',(#438,#439,#440,#441));
#443=ORIENTED_EDGE('',*,*,#391,.T.);
#444=ORIENTED_EDGE('',*,*,#401,.T.);
#445=ORIENTED_EDGE('',*,*,#393,.F.);
#446=ORIENTED_EDGE('',*,*,#395,.F.);
#447=EDGE_LOOP('OSCAD_TOPO/3|loop|l:84c826231aeab9db5795026b59b4267a|f35a2c599a85127ec1b715e65f07ed13281826c0fe26dc99b7e48bd89d7c3272',(#443,#444,#445,#446));
#448=ORIENTED_EDGE('',*,*,#397,.T.);
#449=ORIENTED_EDGE('',*,*,#365,.T.);
#450=ORIENTED_EDGE('',*,*,#399,.F.);
#451=ORIENTED_EDGE('',*,*,#401,.F.);
#452=EDGE_LOOP('OSCAD_TOPO/3|loop|l:d6d9c22c8ad92324be21233f34050b2e|f61f4e13ce7982434a56d334334740f59d6e635470d77ec78c8a476f43f324f4',(#448,#449,#450,#451));
#453=FACE_OUTER_BOUND('',#422,.T.);
#454=ADVANCED_FACE('OSCAD_TOPO/3|face|f:43069c6371e74117f5352604e73872b7|e93125ff3309d8e9784ae6746bc1778e3df9ccd691a54ab99b29df00cc08b2c3',(#453),#33,.T.);
#455=FACE_OUTER_BOUND('',#427,.T.);
#456=ADVANCED_FACE('OSCAD_TOPO/3|face|f:bd5e76dfbe2331b4135a19d5c654d99d|52a9679428a0ca13fa8c187d255498ed8e46fd05282b2edcd236c947a2cfb32c',(#455),#38,.T.);
#457=FACE_OUTER_BOUND('',#432,.T.);
#458=ADVANCED_FACE('OSCAD_TOPO/3|face|f:9c4d61b1f8c2cbf408adfb10c27cee89|0c42a479ff71d4236ee4f865169fc444a4377614d0d8859c902b60722ab1fc8d',(#457),#45,.T.);
#459=FACE_OUTER_BOUND('',#437,.T.);
#460=ADVANCED_FACE('OSCAD_TOPO/3|face|f:12360ca8ea81f1909caa81669b612a52|0ca5679935a10e3ebccc402e56a4661a8097656de314368c9f3068569b349267',(#459),#52,.T.);
#461=FACE_OUTER_BOUND('',#442,.T.);
#462=ADVANCED_FACE('OSCAD_TOPO/3|face|f:de5c11e6e454ba32680e9524afc5d352|15510cd126dcf8ddfe0245fa79fff9f8a65cef22990eb62166f0372908bde2bc',(#461),#57,.T.);
#463=FACE_OUTER_BOUND('',#447,.T.);
#464=ADVANCED_FACE('OSCAD_TOPO/3|face|f:cd3f3c31360e0d388717dc51fcf2937f|d7af28739376bbb580271b2eaf7948c2bea79fddaf3d539e9c573c74a33e726f',(#463),#62,.T.);
#465=FACE_OUTER_BOUND('',#452,.T.);
#466=ADVANCED_FACE('OSCAD_TOPO/3|face|f:5255ae4aed98ddb8d6afd6de5612cc02|83e75393c3bd30ffb81b59dd3ac664c362e9d63230111870f25893ca04309b51',(#465),#67,.T.);
#467=FACE_OUTER_BOUND('',#409,.T.);
#468=ADVANCED_FACE('OSCAD_TOPO/3|face|f:1e7075835f7d409b2434be529665e734|0b85b4585f859173f80923306b2135b507a8e22daad2423c8439892f8e3391e4',(#467),#72,.T.);
#469=FACE_OUTER_BOUND('',#417,.T.);
#470=ADVANCED_FACE('OSCAD_TOPO/3|face|f:f9adbe6831d139cc6b3f0eb4cc5268ca|ca6946109b155b84bf77ba1bc7e792557dc214a193711ba6ce46060e3d1c86d6',(#469),#77,.T.);
#471=CLOSED_SHELL('OSCAD_TOPO/3|shell|s:27a1d9ca503cf075d3358330cf87dbb4|0c9bdab1d3bef23605747f8ac414f1f8aba677e1b38ac6f6d136a176946095e1',(#454,#456,#458,#460,#462,#464,#466,#468,#470));
#472=MANIFOLD_SOLID_BREP('OSCAD_TOPO/3|body|b:a9c8298ffe9ba267f12d32b8f424a1b7|856707abd6aa97b5a77f7ed415c96b112e3dbc9b164a1cd9f6a90d0b91a3178c',#471);
#473=(LENGTH_UNIT()NAMED_UNIT(*)SI_UNIT(.MILLI.,.METRE.));
#474=UNCERTAINTY_MEASURE_WITH_UNIT(LENGTH_MEASURE(9.99999999999999955E-8),#473,'distance_accuracy_value','');
#475=(GEOMETRIC_REPRESENTATION_CONTEXT(3)GLOBAL_UNCERTAINTY_ASSIGNED_CONTEXT((#474))GLOBAL_UNIT_ASSIGNED_CONTEXT((#473))REPRESENTATION_CONTEXT('','3D'));
#476=ADVANCED_BREP_SHAPE_REPRESENTATION('',(#472),#475);
#477=APPLICATION_CONTEXT('managed model based 3d engineering');
#478=PRODUCT_CONTEXT('',#477,'mechanical');
#479=PRODUCT('model','model','',(#478));
#480=PRODUCT_DEFINITION_FORMATION('1','',#479);
#481=PRODUCT_DEFINITION_CONTEXT('part definition',#477,'design');
#482=PRODUCT_DEFINITION('design','',#480,#481);
#483=PRODUCT_DEFINITION_SHAPE('','',#482);
#484=SHAPE_DEFINITION_REPRESENTATION(#483,#476);
ENDSEC;
END-ISO-10303-21;
