ISO-10303-21;
HEADER;
FILE_DESCRIPTION(('OpenSCAD Viewer retained AP242 B-rep'),'2;1');
FILE_NAME('model.step','',(''),(''),'OpenSCAD Viewer','OpenSCAD Viewer','');
FILE_SCHEMA(('AP242_MANAGED_MODEL_BASED_3D_ENGINEERING_MIM_LF'));
ENDSEC;
DATA;
#1=CARTESIAN_POINT('',(0.00000000000000000E0,7.62000000000000000E2,0.00000000000000000E0));
#2=VERTEX_POINT('OSCAD_TOPO/3|vertex|v:5322c9765bf4aa8aca266ec520e05536|49bc8057a4ff78400de5665d854046d898bf3fcf185698388ee1bddadfec2cb9',#1);
#3=CARTESIAN_POINT('',(1.27000000000000000E2,7.62000000000000000E2,0.00000000000000000E0));
#4=VERTEX_POINT('OSCAD_TOPO/3|vertex|v:7284747cf114f8ef85c8ea877626b4ce|d71aa69edabc487c2c07bcb7c5d219144e7a12219d7f35d23488ae7ca6c59a81',#3);
#5=CARTESIAN_POINT('',(1.27000000000000000E2,1.27000000000000000E2,0.00000000000000000E0));
#6=VERTEX_POINT('OSCAD_TOPO/3|vertex|v:cab33244109007359884d5d0ba635a36|63c0077b9bc094f2f42157d3d21e37d04216180cf8e7c8f22d4b1337cd04a420',#5);
#7=CARTESIAN_POINT('',(1.01600000000000000E3,1.27000000000000000E2,0.00000000000000000E0));
#8=VERTEX_POINT('OSCAD_TOPO/3|vertex|v:a4563897f9523a11457c8f1a93598eaa|45fed6ea9f9243e60e2b71659b93a7035131c9c76d91a4b613b7e9153bb80c21',#7);
#9=CARTESIAN_POINT('',(1.01600000000000000E3,0.00000000000000000E0,0.00000000000000000E0));
#10=VERTEX_POINT('OSCAD_TOPO/3|vertex|v:c1f42e5b53a44c26c2f04e73371a196f|d9f458d9164aac0ec0583b510018d3759aa17a611abcd1d3e2a02cf482d6c6ce',#9);
#11=CARTESIAN_POINT('',(0.00000000000000000E0,0.00000000000000000E0,0.00000000000000000E0));
#12=VERTEX_POINT('OSCAD_TOPO/3|vertex|v:2301485b2aa5130a3ffa2c3d4ddce85f|191be695419e636e18cadbd25849313dc09d01169bcb85a989c23a0b6cf87b5c',#11);
#13=CARTESIAN_POINT('',(0.00000000000000000E0,0.00000000000000000E0,5.34399999999999977E2));
#14=VERTEX_POINT('OSCAD_TOPO/3|vertex|v:6c39a90d08deb3f12a5231e8fb83e5f8|1981a85f911556f432611e311044671629e0f02c3821a83ffc4499a1ca542fd3',#13);
#15=CARTESIAN_POINT('',(0.00000000000000000E0,7.62000000000000000E2,5.34399999999999977E2));
#16=VERTEX_POINT('OSCAD_TOPO/3|vertex|v:179c426c6b71e288e8a1239cad25dd3b|190eb6cdbb9b42631a641ce60b8031bf00960b0d756544498a8e3abb6bc78fca',#15);
#17=CARTESIAN_POINT('',(1.01600000000000000E3,0.00000000000000000E0,5.34399999999999977E2));
#18=VERTEX_POINT('OSCAD_TOPO/3|vertex|v:a4f13d24a4cdcb3ceee4531412180ea6|5d1fbe44b6bd1190823ba37ad850759280981ab1f62d7703ca6128fe52fc566d',#17);
#19=CARTESIAN_POINT('',(1.01600000000000000E3,1.27000000000000000E2,5.34399999999999977E2));
#20=VERTEX_POINT('OSCAD_TOPO/3|vertex|v:22c9b1b0f93e5a9a2f0d928b76154d06|a9350dfa0e5e02d0d2cc5d00a65e270527fac2fe6e0b72a7611cd46117f570a5',#19);
#21=CARTESIAN_POINT('',(1.27000000000000000E2,1.27000000000000000E2,5.34399999999999977E2));
#22=VERTEX_POINT('OSCAD_TOPO/3|vertex|v:62f8dffe01e94d3d2c3c071636822652|f5696b78c41c87d112227388307f68337003f7b4d3a088a92b34027241b1a0f8',#21);
#23=CARTESIAN_POINT('',(1.27000000000000000E2,7.62000000000000000E2,5.34399999999999977E2));
#24=VERTEX_POINT('OSCAD_TOPO/3|vertex|v:0938688a62ed7750a028e2482b8cf4eb|7f5245e8638948b861d5681a78ac8f6537cbd59ed2a22635192faa01499efafd',#23);
#25=CARTESIAN_POINT('',(0.00000000000000000E0,0.00000000000000000E0,0.00000000000000000E0));
#26=CARTESIAN_POINT('',(1.01600000000000000E3,0.00000000000000000E0,0.00000000000000000E0));
#27=CARTESIAN_POINT('',(0.00000000000000000E0,7.62000000000000000E2,0.00000000000000000E0));
#28=CARTESIAN_POINT('',(1.01600000000000000E3,7.62000000000000000E2,0.00000000000000000E0));
#29=B_SPLINE_SURFACE_WITH_KNOTS('',1,1,((#25,#26),(#27,#28)),.UNSPECIFIED.,.F.,.F.,.F.,(2,2),(2,2),(0.00000000000000000E0,1.00000000000000000E0),(0.00000000000000000E0,1.00000000000000000E0),.UNSPECIFIED.);
#30=CARTESIAN_POINT('',(0.00000000000000000E0,0.00000000000000000E0,0.00000000000000000E0));
#31=CARTESIAN_POINT('',(0.00000000000000000E0,7.62000000000000000E2,0.00000000000000000E0));
#32=CARTESIAN_POINT('',(0.00000000000000000E0,0.00000000000000000E0,5.34399999999999977E2));
#33=CARTESIAN_POINT('',(0.00000000000000000E0,7.62000000000000000E2,5.34399999999999977E2));
#34=B_SPLINE_SURFACE_WITH_KNOTS('',1,1,((#30,#31),(#32,#33)),.UNSPECIFIED.,.F.,.F.,.F.,(2,2),(2,2),(0.00000000000000000E0,1.00000000000000000E0),(0.00000000000000000E0,1.00000000000000000E0),.UNSPECIFIED.);
#35=CARTESIAN_POINT('',(0.00000000000000000E0,7.62000000000000000E2,5.34399999999999977E2));
#36=CARTESIAN_POINT('',(1.01600000000000000E3,7.62000000000000000E2,5.34399999999999977E2));
#37=CARTESIAN_POINT('',(0.00000000000000000E0,0.00000000000000000E0,5.34399999999999977E2));
#38=CARTESIAN_POINT('',(1.01600000000000000E3,0.00000000000000000E0,5.34399999999999977E2));
#39=B_SPLINE_SURFACE_WITH_KNOTS('',1,1,((#35,#36),(#37,#38)),.UNSPECIFIED.,.F.,.F.,.F.,(2,2),(2,2),(0.00000000000000000E0,1.00000000000000000E0),(0.00000000000000000E0,1.00000000000000000E0),.UNSPECIFIED.);
#40=CARTESIAN_POINT('',(0.00000000000000000E0,0.00000000000000000E0,5.34399999999999977E2));
#41=CARTESIAN_POINT('',(1.01600000000000000E3,0.00000000000000000E0,5.34399999999999977E2));
#42=CARTESIAN_POINT('',(0.00000000000000000E0,0.00000000000000000E0,0.00000000000000000E0));
#43=CARTESIAN_POINT('',(1.01600000000000000E3,0.00000000000000000E0,0.00000000000000000E0));
#44=B_SPLINE_SURFACE_WITH_KNOTS('',1,1,((#40,#41),(#42,#43)),.UNSPECIFIED.,.F.,.F.,.F.,(2,2),(2,2),(0.00000000000000000E0,1.00000000000000000E0),(0.00000000000000000E0,1.00000000000000000E0),.UNSPECIFIED.);
#45=CARTESIAN_POINT('',(1.01600000000000000E3,0.00000000000000000E0,5.34399999999999977E2));
#46=CARTESIAN_POINT('',(1.01600000000000000E3,1.27000000000000000E2,5.34399999999999977E2));
#47=CARTESIAN_POINT('',(1.01600000000000000E3,0.00000000000000000E0,0.00000000000000000E0));
#48=CARTESIAN_POINT('',(1.01600000000000000E3,1.27000000000000000E2,0.00000000000000000E0));
#49=B_SPLINE_SURFACE_WITH_KNOTS('',1,1,((#45,#46),(#47,#48)),.UNSPECIFIED.,.F.,.F.,.F.,(2,2),(2,2),(0.00000000000000000E0,1.00000000000000000E0),(0.00000000000000000E0,1.00000000000000000E0),.UNSPECIFIED.);
#50=CARTESIAN_POINT('',(1.27000000000000000E2,1.27000000000000000E2,0.00000000000000000E0));
#51=CARTESIAN_POINT('',(1.01600000000000000E3,1.27000000000000000E2,0.00000000000000000E0));
#52=CARTESIAN_POINT('',(1.27000000000000000E2,1.27000000000000000E2,5.34399999999999977E2));
#53=CARTESIAN_POINT('',(1.01600000000000000E3,1.27000000000000000E2,5.34399999999999977E2));
#54=B_SPLINE_SURFACE_WITH_KNOTS('',1,1,((#50,#51),(#52,#53)),.UNSPECIFIED.,.F.,.F.,.F.,(2,2),(2,2),(0.00000000000000000E0,1.00000000000000000E0),(0.00000000000000000E0,1.00000000000000000E0),.UNSPECIFIED.);
#55=CARTESIAN_POINT('',(1.27000000000000000E2,1.27000000000000000E2,5.34399999999999977E2));
#56=CARTESIAN_POINT('',(1.27000000000000000E2,7.62000000000000000E2,5.34399999999999977E2));
#57=CARTESIAN_POINT('',(1.27000000000000000E2,1.27000000000000000E2,0.00000000000000000E0));
#58=CARTESIAN_POINT('',(1.27000000000000000E2,7.62000000000000000E2,0.00000000000000000E0));
#59=B_SPLINE_SURFACE_WITH_KNOTS('',1,1,((#55,#56),(#57,#58)),.UNSPECIFIED.,.F.,.F.,.F.,(2,2),(2,2),(0.00000000000000000E0,1.00000000000000000E0),(0.00000000000000000E0,1.00000000000000000E0),.UNSPECIFIED.);
#60=CARTESIAN_POINT('',(0.00000000000000000E0,7.62000000000000000E2,0.00000000000000000E0));
#61=CARTESIAN_POINT('',(1.27000000000000000E2,7.62000000000000000E2,0.00000000000000000E0));
#62=CARTESIAN_POINT('',(0.00000000000000000E0,7.62000000000000000E2,5.34399999999999977E2));
#63=CARTESIAN_POINT('',(1.27000000000000000E2,7.62000000000000000E2,5.34399999999999977E2));
#64=B_SPLINE_SURFACE_WITH_KNOTS('',1,1,((#60,#61),(#62,#63)),.UNSPECIFIED.,.F.,.F.,.F.,(2,2),(2,2),(0.00000000000000000E0,1.00000000000000000E0),(0.00000000000000000E0,1.00000000000000000E0),.UNSPECIFIED.);
#65=CARTESIAN_POINT('',(0.00000000000000000E0,7.62000000000000000E2,0.00000000000000000E0));
#66=CARTESIAN_POINT('',(1.27000000000000000E2,7.62000000000000000E2,0.00000000000000000E0));
#67=B_SPLINE_CURVE_WITH_KNOTS('',1,(#65,#66),.UNSPECIFIED.,.F.,.F.,(2,2),(0.00000000000000000E0,1.00000000000000000E0),.UNSPECIFIED.);
#68=CARTESIAN_POINT('',(1.27000000000000000E2,7.62000000000000000E2,0.00000000000000000E0));
#69=CARTESIAN_POINT('',(1.27000000000000000E2,1.27000000000000000E2,0.00000000000000000E0));
#70=B_SPLINE_CURVE_WITH_KNOTS('',1,(#68,#69),.UNSPECIFIED.,.F.,.F.,(2,2),(0.00000000000000000E0,1.00000000000000000E0),.UNSPECIFIED.);
#71=CARTESIAN_POINT('',(1.27000000000000000E2,1.27000000000000000E2,0.00000000000000000E0));
#72=CARTESIAN_POINT('',(1.01600000000000000E3,1.27000000000000000E2,0.00000000000000000E0));
#73=B_SPLINE_CURVE_WITH_KNOTS('',1,(#71,#72),.UNSPECIFIED.,.F.,.F.,(2,2),(0.00000000000000000E0,1.00000000000000000E0),.UNSPECIFIED.);
#74=CARTESIAN_POINT('',(1.01600000000000000E3,1.27000000000000000E2,0.00000000000000000E0));
#75=CARTESIAN_POINT('',(1.01600000000000000E3,0.00000000000000000E0,0.00000000000000000E0));
#76=B_SPLINE_CURVE_WITH_KNOTS('',1,(#74,#75),.UNSPECIFIED.,.F.,.F.,(2,2),(0.00000000000000000E0,1.00000000000000000E0),.UNSPECIFIED.);
#77=CARTESIAN_POINT('',(1.01600000000000000E3,0.00000000000000000E0,0.00000000000000000E0));
#78=CARTESIAN_POINT('',(0.00000000000000000E0,0.00000000000000000E0,0.00000000000000000E0));
#79=B_SPLINE_CURVE_WITH_KNOTS('',1,(#77,#78),.UNSPECIFIED.,.F.,.F.,(2,2),(0.00000000000000000E0,1.00000000000000000E0),.UNSPECIFIED.);
#80=CARTESIAN_POINT('',(0.00000000000000000E0,7.62000000000000000E2,0.00000000000000000E0));
#81=CARTESIAN_POINT('',(0.00000000000000000E0,0.00000000000000000E0,0.00000000000000000E0));
#82=B_SPLINE_CURVE_WITH_KNOTS('',1,(#80,#81),.UNSPECIFIED.,.F.,.F.,(2,2),(0.00000000000000000E0,1.00000000000000000E0),.UNSPECIFIED.);
#83=CARTESIAN_POINT('',(0.00000000000000000E0,0.00000000000000000E0,0.00000000000000000E0));
#84=CARTESIAN_POINT('',(0.00000000000000000E0,0.00000000000000000E0,5.34399999999999977E2));
#85=B_SPLINE_CURVE_WITH_KNOTS('',1,(#83,#84),.UNSPECIFIED.,.F.,.F.,(2,2),(0.00000000000000000E0,1.00000000000000000E0),.UNSPECIFIED.);
#86=CARTESIAN_POINT('',(0.00000000000000000E0,0.00000000000000000E0,5.34399999999999977E2));
#87=CARTESIAN_POINT('',(0.00000000000000000E0,7.62000000000000000E2,5.34399999999999977E2));
#88=B_SPLINE_CURVE_WITH_KNOTS('',1,(#86,#87),.UNSPECIFIED.,.F.,.F.,(2,2),(0.00000000000000000E0,1.00000000000000000E0),.UNSPECIFIED.);
#89=CARTESIAN_POINT('',(0.00000000000000000E0,7.62000000000000000E2,0.00000000000000000E0));
#90=CARTESIAN_POINT('',(0.00000000000000000E0,7.62000000000000000E2,5.34399999999999977E2));
#91=B_SPLINE_CURVE_WITH_KNOTS('',1,(#89,#90),.UNSPECIFIED.,.F.,.F.,(2,2),(0.00000000000000000E0,1.00000000000000000E0),.UNSPECIFIED.);
#92=CARTESIAN_POINT('',(0.00000000000000000E0,0.00000000000000000E0,5.34399999999999977E2));
#93=CARTESIAN_POINT('',(1.01600000000000000E3,0.00000000000000000E0,5.34399999999999977E2));
#94=B_SPLINE_CURVE_WITH_KNOTS('',1,(#92,#93),.UNSPECIFIED.,.F.,.F.,(2,2),(0.00000000000000000E0,1.00000000000000000E0),.UNSPECIFIED.);
#95=CARTESIAN_POINT('',(1.01600000000000000E3,0.00000000000000000E0,5.34399999999999977E2));
#96=CARTESIAN_POINT('',(1.01600000000000000E3,1.27000000000000000E2,5.34399999999999977E2));
#97=B_SPLINE_CURVE_WITH_KNOTS('',1,(#95,#96),.UNSPECIFIED.,.F.,.F.,(2,2),(0.00000000000000000E0,1.00000000000000000E0),.UNSPECIFIED.);
#98=CARTESIAN_POINT('',(1.01600000000000000E3,1.27000000000000000E2,5.34399999999999977E2));
#99=CARTESIAN_POINT('',(1.27000000000000000E2,1.27000000000000000E2,5.34399999999999977E2));
#100=B_SPLINE_CURVE_WITH_KNOTS('',1,(#98,#99),.UNSPECIFIED.,.F.,.F.,(2,2),(0.00000000000000000E0,1.00000000000000000E0),.UNSPECIFIED.);
#101=CARTESIAN_POINT('',(1.27000000000000000E2,1.27000000000000000E2,5.34399999999999977E2));
#102=CARTESIAN_POINT('',(1.27000000000000000E2,7.62000000000000000E2,5.34399999999999977E2));
#103=B_SPLINE_CURVE_WITH_KNOTS('',1,(#101,#102),.UNSPECIFIED.,.F.,.F.,(2,2),(0.00000000000000000E0,1.00000000000000000E0),.UNSPECIFIED.);
#104=CARTESIAN_POINT('',(1.27000000000000000E2,7.62000000000000000E2,5.34399999999999977E2));
#105=CARTESIAN_POINT('',(0.00000000000000000E0,7.62000000000000000E2,5.34399999999999977E2));
#106=B_SPLINE_CURVE_WITH_KNOTS('',1,(#104,#105),.UNSPECIFIED.,.F.,.F.,(2,2),(0.00000000000000000E0,1.00000000000000000E0),.UNSPECIFIED.);
#107=CARTESIAN_POINT('',(1.01600000000000000E3,0.00000000000000000E0,0.00000000000000000E0));
#108=CARTESIAN_POINT('',(1.01600000000000000E3,0.00000000000000000E0,5.34399999999999977E2));
#109=B_SPLINE_CURVE_WITH_KNOTS('',1,(#107,#108),.UNSPECIFIED.,.F.,.F.,(2,2),(0.00000000000000000E0,1.00000000000000000E0),.UNSPECIFIED.);
#110=CARTESIAN_POINT('',(1.01600000000000000E3,1.27000000000000000E2,0.00000000000000000E0));
#111=CARTESIAN_POINT('',(1.01600000000000000E3,1.27000000000000000E2,5.34399999999999977E2));
#112=B_SPLINE_CURVE_WITH_KNOTS('',1,(#110,#111),.UNSPECIFIED.,.F.,.F.,(2,2),(0.00000000000000000E0,1.00000000000000000E0),.UNSPECIFIED.);
#113=CARTESIAN_POINT('',(1.27000000000000000E2,1.27000000000000000E2,0.00000000000000000E0));
#114=CARTESIAN_POINT('',(1.27000000000000000E2,1.27000000000000000E2,5.34399999999999977E2));
#115=B_SPLINE_CURVE_WITH_KNOTS('',1,(#113,#114),.UNSPECIFIED.,.F.,.F.,(2,2),(0.00000000000000000E0,1.00000000000000000E0),.UNSPECIFIED.);
#116=CARTESIAN_POINT('',(1.27000000000000000E2,7.62000000000000000E2,0.00000000000000000E0));
#117=CARTESIAN_POINT('',(1.27000000000000000E2,7.62000000000000000E2,5.34399999999999977E2));
#118=B_SPLINE_CURVE_WITH_KNOTS('',1,(#116,#117),.UNSPECIFIED.,.F.,.F.,(2,2),(0.00000000000000000E0,1.00000000000000000E0),.UNSPECIFIED.);
#119=(GEOMETRIC_REPRESENTATION_CONTEXT(2)REPRESENTATION_CONTEXT('','2D'));
#120=CARTESIAN_POINT('',(1.00000000000000000E0,0.00000000000000000E0));
#121=CARTESIAN_POINT('',(1.00000000000000000E0,1.25000000000000000E-1));
#122=B_SPLINE_CURVE_WITH_KNOTS('',1,(#120,#121),.UNSPECIFIED.,.F.,.F.,(2,2),(0.00000000000000000E0,1.00000000000000000E0),.UNSPECIFIED.);
#123=DEFINITIONAL_REPRESENTATION('',(#122),#119);
#124=PCURVE('',#29,#123);
#125=CARTESIAN_POINT('',(1.00000000000000000E0,1.25000000000000000E-1));
#126=CARTESIAN_POINT('',(1.66666666666666657E-1,1.25000000000000000E-1));
#127=B_SPLINE_CURVE_WITH_KNOTS('',1,(#125,#126),.UNSPECIFIED.,.F.,.F.,(2,2),(0.00000000000000000E0,1.00000000000000000E0),.UNSPECIFIED.);
#128=DEFINITIONAL_REPRESENTATION('',(#127),#119);
#129=PCURVE('',#29,#128);
#130=CARTESIAN_POINT('',(1.66666666666666657E-1,1.25000000000000000E-1));
#131=CARTESIAN_POINT('',(1.66666666666666657E-1,1.00000000000000000E0));
#132=B_SPLINE_CURVE_WITH_KNOTS('',1,(#130,#131),.UNSPECIFIED.,.F.,.F.,(2,2),(0.00000000000000000E0,1.00000000000000000E0),.UNSPECIFIED.);
#133=DEFINITIONAL_REPRESENTATION('',(#132),#119);
#134=PCURVE('',#29,#133);
#135=CARTESIAN_POINT('',(1.66666666666666657E-1,1.00000000000000000E0));
#136=CARTESIAN_POINT('',(0.00000000000000000E0,1.00000000000000000E0));
#137=B_SPLINE_CURVE_WITH_KNOTS('',1,(#135,#136),.UNSPECIFIED.,.F.,.F.,(2,2),(0.00000000000000000E0,1.00000000000000000E0),.UNSPECIFIED.);
#138=DEFINITIONAL_REPRESENTATION('',(#137),#119);
#139=PCURVE('',#29,#138);
#140=CARTESIAN_POINT('',(0.00000000000000000E0,1.00000000000000000E0));
#141=CARTESIAN_POINT('',(0.00000000000000000E0,0.00000000000000000E0));
#142=B_SPLINE_CURVE_WITH_KNOTS('',1,(#140,#141),.UNSPECIFIED.,.F.,.F.,(2,2),(0.00000000000000000E0,1.00000000000000000E0),.UNSPECIFIED.);
#143=DEFINITIONAL_REPRESENTATION('',(#142),#119);
#144=PCURVE('',#29,#143);
#145=CARTESIAN_POINT('',(0.00000000000000000E0,0.00000000000000000E0));
#146=CARTESIAN_POINT('',(1.00000000000000000E0,0.00000000000000000E0));
#147=B_SPLINE_CURVE_WITH_KNOTS('',1,(#145,#146),.UNSPECIFIED.,.F.,.F.,(2,2),(0.00000000000000000E0,1.00000000000000000E0),.UNSPECIFIED.);
#148=DEFINITIONAL_REPRESENTATION('',(#147),#119);
#149=PCURVE('',#29,#148);
#150=CARTESIAN_POINT('',(0.00000000000000000E0,1.00000000000000000E0));
#151=CARTESIAN_POINT('',(0.00000000000000000E0,0.00000000000000000E0));
#152=B_SPLINE_CURVE_WITH_KNOTS('',1,(#150,#151),.UNSPECIFIED.,.F.,.F.,(2,2),(0.00000000000000000E0,1.00000000000000000E0),.UNSPECIFIED.);
#153=DEFINITIONAL_REPRESENTATION('',(#152),#119);
#154=PCURVE('',#34,#153);
#155=CARTESIAN_POINT('',(0.00000000000000000E0,0.00000000000000000E0));
#156=CARTESIAN_POINT('',(1.00000000000000000E0,0.00000000000000000E0));
#157=B_SPLINE_CURVE_WITH_KNOTS('',1,(#155,#156),.UNSPECIFIED.,.F.,.F.,(2,2),(0.00000000000000000E0,1.00000000000000000E0),.UNSPECIFIED.);
#158=DEFINITIONAL_REPRESENTATION('',(#157),#119);
#159=PCURVE('',#34,#158);
#160=CARTESIAN_POINT('',(1.00000000000000000E0,0.00000000000000000E0));
#161=CARTESIAN_POINT('',(1.00000000000000000E0,1.00000000000000000E0));
#162=B_SPLINE_CURVE_WITH_KNOTS('',1,(#160,#161),.UNSPECIFIED.,.F.,.F.,(2,2),(0.00000000000000000E0,1.00000000000000000E0),.UNSPECIFIED.);
#163=DEFINITIONAL_REPRESENTATION('',(#162),#119);
#164=PCURVE('',#34,#163);
#165=CARTESIAN_POINT('',(1.00000000000000000E0,1.00000000000000000E0));
#166=CARTESIAN_POINT('',(0.00000000000000000E0,1.00000000000000000E0));
#167=B_SPLINE_CURVE_WITH_KNOTS('',1,(#165,#166),.UNSPECIFIED.,.F.,.F.,(2,2),(0.00000000000000000E0,1.00000000000000000E0),.UNSPECIFIED.);
#168=DEFINITIONAL_REPRESENTATION('',(#167),#119);
#169=PCURVE('',#34,#168);
#170=CARTESIAN_POINT('',(1.00000000000000000E0,0.00000000000000000E0));
#171=CARTESIAN_POINT('',(1.00000000000000000E0,1.00000000000000000E0));
#172=B_SPLINE_CURVE_WITH_KNOTS('',1,(#170,#171),.UNSPECIFIED.,.F.,.F.,(2,2),(0.00000000000000000E0,1.00000000000000000E0),.UNSPECIFIED.);
#173=DEFINITIONAL_REPRESENTATION('',(#172),#119);
#174=PCURVE('',#39,#173);
#175=CARTESIAN_POINT('',(1.00000000000000000E0,1.00000000000000000E0));
#176=CARTESIAN_POINT('',(8.33333333333333370E-1,1.00000000000000000E0));
#177=B_SPLINE_CURVE_WITH_KNOTS('',1,(#175,#176),.UNSPECIFIED.,.F.,.F.,(2,2),(0.00000000000000000E0,1.00000000000000000E0),.UNSPECIFIED.);
#178=DEFINITIONAL_REPRESENTATION('',(#177),#119);
#179=PCURVE('',#39,#178);
#180=CARTESIAN_POINT('',(8.33333333333333370E-1,1.00000000000000000E0));
#181=CARTESIAN_POINT('',(8.33333333333333370E-1,1.25000000000000000E-1));
#182=B_SPLINE_CURVE_WITH_KNOTS('',1,(#180,#181),.UNSPECIFIED.,.F.,.F.,(2,2),(0.00000000000000000E0,1.00000000000000000E0),.UNSPECIFIED.);
#183=DEFINITIONAL_REPRESENTATION('',(#182),#119);
#184=PCURVE('',#39,#183);
#185=CARTESIAN_POINT('',(8.33333333333333370E-1,1.25000000000000000E-1));
#186=CARTESIAN_POINT('',(0.00000000000000000E0,1.25000000000000000E-1));
#187=B_SPLINE_CURVE_WITH_KNOTS('',1,(#185,#186),.UNSPECIFIED.,.F.,.F.,(2,2),(0.00000000000000000E0,1.00000000000000000E0),.UNSPECIFIED.);
#188=DEFINITIONAL_REPRESENTATION('',(#187),#119);
#189=PCURVE('',#39,#188);
#190=CARTESIAN_POINT('',(0.00000000000000000E0,1.25000000000000000E-1));
#191=CARTESIAN_POINT('',(0.00000000000000000E0,0.00000000000000000E0));
#192=B_SPLINE_CURVE_WITH_KNOTS('',1,(#190,#191),.UNSPECIFIED.,.F.,.F.,(2,2),(0.00000000000000000E0,1.00000000000000000E0),.UNSPECIFIED.);
#193=DEFINITIONAL_REPRESENTATION('',(#192),#119);
#194=PCURVE('',#39,#193);
#195=CARTESIAN_POINT('',(0.00000000000000000E0,0.00000000000000000E0));
#196=CARTESIAN_POINT('',(1.00000000000000000E0,0.00000000000000000E0));
#197=B_SPLINE_CURVE_WITH_KNOTS('',1,(#195,#196),.UNSPECIFIED.,.F.,.F.,(2,2),(0.00000000000000000E0,1.00000000000000000E0),.UNSPECIFIED.);
#198=DEFINITIONAL_REPRESENTATION('',(#197),#119);
#199=PCURVE('',#39,#198);
#200=CARTESIAN_POINT('',(1.00000000000000000E0,0.00000000000000000E0));
#201=CARTESIAN_POINT('',(1.00000000000000000E0,1.00000000000000000E0));
#202=B_SPLINE_CURVE_WITH_KNOTS('',1,(#200,#201),.UNSPECIFIED.,.F.,.F.,(2,2),(0.00000000000000000E0,1.00000000000000000E0),.UNSPECIFIED.);
#203=DEFINITIONAL_REPRESENTATION('',(#202),#119);
#204=PCURVE('',#44,#203);
#205=CARTESIAN_POINT('',(1.00000000000000000E0,1.00000000000000000E0));
#206=CARTESIAN_POINT('',(0.00000000000000000E0,1.00000000000000000E0));
#207=B_SPLINE_CURVE_WITH_KNOTS('',1,(#205,#206),.UNSPECIFIED.,.F.,.F.,(2,2),(0.00000000000000000E0,1.00000000000000000E0),.UNSPECIFIED.);
#208=DEFINITIONAL_REPRESENTATION('',(#207),#119);
#209=PCURVE('',#44,#208);
#210=CARTESIAN_POINT('',(0.00000000000000000E0,1.00000000000000000E0));
#211=CARTESIAN_POINT('',(0.00000000000000000E0,0.00000000000000000E0));
#212=B_SPLINE_CURVE_WITH_KNOTS('',1,(#210,#211),.UNSPECIFIED.,.F.,.F.,(2,2),(0.00000000000000000E0,1.00000000000000000E0),.UNSPECIFIED.);
#213=DEFINITIONAL_REPRESENTATION('',(#212),#119);
#214=PCURVE('',#44,#213);
#215=CARTESIAN_POINT('',(0.00000000000000000E0,0.00000000000000000E0));
#216=CARTESIAN_POINT('',(1.00000000000000000E0,0.00000000000000000E0));
#217=B_SPLINE_CURVE_WITH_KNOTS('',1,(#215,#216),.UNSPECIFIED.,.F.,.F.,(2,2),(0.00000000000000000E0,1.00000000000000000E0),.UNSPECIFIED.);
#218=DEFINITIONAL_REPRESENTATION('',(#217),#119);
#219=PCURVE('',#44,#218);
#220=CARTESIAN_POINT('',(1.00000000000000000E0,0.00000000000000000E0));
#221=CARTESIAN_POINT('',(1.00000000000000000E0,1.00000000000000000E0));
#222=B_SPLINE_CURVE_WITH_KNOTS('',1,(#220,#221),.UNSPECIFIED.,.F.,.F.,(2,2),(0.00000000000000000E0,1.00000000000000000E0),.UNSPECIFIED.);
#223=DEFINITIONAL_REPRESENTATION('',(#222),#119);
#224=PCURVE('',#49,#223);
#225=CARTESIAN_POINT('',(1.00000000000000000E0,1.00000000000000000E0));
#226=CARTESIAN_POINT('',(0.00000000000000000E0,1.00000000000000000E0));
#227=B_SPLINE_CURVE_WITH_KNOTS('',1,(#225,#226),.UNSPECIFIED.,.F.,.F.,(2,2),(0.00000000000000000E0,1.00000000000000000E0),.UNSPECIFIED.);
#228=DEFINITIONAL_REPRESENTATION('',(#227),#119);
#229=PCURVE('',#49,#228);
#230=CARTESIAN_POINT('',(0.00000000000000000E0,1.00000000000000000E0));
#231=CARTESIAN_POINT('',(0.00000000000000000E0,0.00000000000000000E0));
#232=B_SPLINE_CURVE_WITH_KNOTS('',1,(#230,#231),.UNSPECIFIED.,.F.,.F.,(2,2),(0.00000000000000000E0,1.00000000000000000E0),.UNSPECIFIED.);
#233=DEFINITIONAL_REPRESENTATION('',(#232),#119);
#234=PCURVE('',#49,#233);
#235=CARTESIAN_POINT('',(0.00000000000000000E0,0.00000000000000000E0));
#236=CARTESIAN_POINT('',(1.00000000000000000E0,0.00000000000000000E0));
#237=B_SPLINE_CURVE_WITH_KNOTS('',1,(#235,#236),.UNSPECIFIED.,.F.,.F.,(2,2),(0.00000000000000000E0,1.00000000000000000E0),.UNSPECIFIED.);
#238=DEFINITIONAL_REPRESENTATION('',(#237),#119);
#239=PCURVE('',#49,#238);
#240=CARTESIAN_POINT('',(0.00000000000000000E0,1.00000000000000000E0));
#241=CARTESIAN_POINT('',(0.00000000000000000E0,0.00000000000000000E0));
#242=B_SPLINE_CURVE_WITH_KNOTS('',1,(#240,#241),.UNSPECIFIED.,.F.,.F.,(2,2),(0.00000000000000000E0,1.00000000000000000E0),.UNSPECIFIED.);
#243=DEFINITIONAL_REPRESENTATION('',(#242),#119);
#244=PCURVE('',#54,#243);
#245=CARTESIAN_POINT('',(0.00000000000000000E0,0.00000000000000000E0));
#246=CARTESIAN_POINT('',(1.00000000000000000E0,0.00000000000000000E0));
#247=B_SPLINE_CURVE_WITH_KNOTS('',1,(#245,#246),.UNSPECIFIED.,.F.,.F.,(2,2),(0.00000000000000000E0,1.00000000000000000E0),.UNSPECIFIED.);
#248=DEFINITIONAL_REPRESENTATION('',(#247),#119);
#249=PCURVE('',#54,#248);
#250=CARTESIAN_POINT('',(1.00000000000000000E0,0.00000000000000000E0));
#251=CARTESIAN_POINT('',(1.00000000000000000E0,1.00000000000000000E0));
#252=B_SPLINE_CURVE_WITH_KNOTS('',1,(#250,#251),.UNSPECIFIED.,.F.,.F.,(2,2),(0.00000000000000000E0,1.00000000000000000E0),.UNSPECIFIED.);
#253=DEFINITIONAL_REPRESENTATION('',(#252),#119);
#254=PCURVE('',#54,#253);
#255=CARTESIAN_POINT('',(1.00000000000000000E0,1.00000000000000000E0));
#256=CARTESIAN_POINT('',(0.00000000000000000E0,1.00000000000000000E0));
#257=B_SPLINE_CURVE_WITH_KNOTS('',1,(#255,#256),.UNSPECIFIED.,.F.,.F.,(2,2),(0.00000000000000000E0,1.00000000000000000E0),.UNSPECIFIED.);
#258=DEFINITIONAL_REPRESENTATION('',(#257),#119);
#259=PCURVE('',#54,#258);
#260=CARTESIAN_POINT('',(1.00000000000000000E0,0.00000000000000000E0));
#261=CARTESIAN_POINT('',(1.00000000000000000E0,1.00000000000000000E0));
#262=B_SPLINE_CURVE_WITH_KNOTS('',1,(#260,#261),.UNSPECIFIED.,.F.,.F.,(2,2),(0.00000000000000000E0,1.00000000000000000E0),.UNSPECIFIED.);
#263=DEFINITIONAL_REPRESENTATION('',(#262),#119);
#264=PCURVE('',#59,#263);
#265=CARTESIAN_POINT('',(1.00000000000000000E0,1.00000000000000000E0));
#266=CARTESIAN_POINT('',(0.00000000000000000E0,1.00000000000000000E0));
#267=B_SPLINE_CURVE_WITH_KNOTS('',1,(#265,#266),.UNSPECIFIED.,.F.,.F.,(2,2),(0.00000000000000000E0,1.00000000000000000E0),.UNSPECIFIED.);
#268=DEFINITIONAL_REPRESENTATION('',(#267),#119);
#269=PCURVE('',#59,#268);
#270=CARTESIAN_POINT('',(0.00000000000000000E0,1.00000000000000000E0));
#271=CARTESIAN_POINT('',(0.00000000000000000E0,0.00000000000000000E0));
#272=B_SPLINE_CURVE_WITH_KNOTS('',1,(#270,#271),.UNSPECIFIED.,.F.,.F.,(2,2),(0.00000000000000000E0,1.00000000000000000E0),.UNSPECIFIED.);
#273=DEFINITIONAL_REPRESENTATION('',(#272),#119);
#274=PCURVE('',#59,#273);
#275=CARTESIAN_POINT('',(0.00000000000000000E0,0.00000000000000000E0));
#276=CARTESIAN_POINT('',(1.00000000000000000E0,0.00000000000000000E0));
#277=B_SPLINE_CURVE_WITH_KNOTS('',1,(#275,#276),.UNSPECIFIED.,.F.,.F.,(2,2),(0.00000000000000000E0,1.00000000000000000E0),.UNSPECIFIED.);
#278=DEFINITIONAL_REPRESENTATION('',(#277),#119);
#279=PCURVE('',#59,#278);
#280=CARTESIAN_POINT('',(0.00000000000000000E0,1.00000000000000000E0));
#281=CARTESIAN_POINT('',(0.00000000000000000E0,0.00000000000000000E0));
#282=B_SPLINE_CURVE_WITH_KNOTS('',1,(#280,#281),.UNSPECIFIED.,.F.,.F.,(2,2),(0.00000000000000000E0,1.00000000000000000E0),.UNSPECIFIED.);
#283=DEFINITIONAL_REPRESENTATION('',(#282),#119);
#284=PCURVE('',#64,#283);
#285=CARTESIAN_POINT('',(0.00000000000000000E0,0.00000000000000000E0));
#286=CARTESIAN_POINT('',(1.00000000000000000E0,0.00000000000000000E0));
#287=B_SPLINE_CURVE_WITH_KNOTS('',1,(#285,#286),.UNSPECIFIED.,.F.,.F.,(2,2),(0.00000000000000000E0,1.00000000000000000E0),.UNSPECIFIED.);
#288=DEFINITIONAL_REPRESENTATION('',(#287),#119);
#289=PCURVE('',#64,#288);
#290=CARTESIAN_POINT('',(1.00000000000000000E0,0.00000000000000000E0));
#291=CARTESIAN_POINT('',(1.00000000000000000E0,1.00000000000000000E0));
#292=B_SPLINE_CURVE_WITH_KNOTS('',1,(#290,#291),.UNSPECIFIED.,.F.,.F.,(2,2),(0.00000000000000000E0,1.00000000000000000E0),.UNSPECIFIED.);
#293=DEFINITIONAL_REPRESENTATION('',(#292),#119);
#294=PCURVE('',#64,#293);
#295=CARTESIAN_POINT('',(1.00000000000000000E0,1.00000000000000000E0));
#296=CARTESIAN_POINT('',(0.00000000000000000E0,1.00000000000000000E0));
#297=B_SPLINE_CURVE_WITH_KNOTS('',1,(#295,#296),.UNSPECIFIED.,.F.,.F.,(2,2),(0.00000000000000000E0,1.00000000000000000E0),.UNSPECIFIED.);
#298=DEFINITIONAL_REPRESENTATION('',(#297),#119);
#299=PCURVE('',#64,#298);
#300=SURFACE_CURVE('',#67,(#124,#284),.PCURVE_S1.);
#301=EDGE_CURVE('OSCAD_TOPO/3|edge|e:ea9524e88d051aaee403aa119cdc9821|1011809e92e8e9092fbe7f6a77a8fde5b61be3084de92da21d660b3167f85339',#2,#4,#300,.T.);
#302=SURFACE_CURVE('',#70,(#129,#264),.PCURVE_S1.);
#303=EDGE_CURVE('OSCAD_TOPO/3|edge|e:1801aa1ab1916e297f2a13effe75d0bc|712c76b194041cc7c66454ab3f65800235f7764a72ab95b74f4cf42a46dd4130',#4,#6,#302,.T.);
#304=SURFACE_CURVE('',#73,(#134,#244),.PCURVE_S1.);
#305=EDGE_CURVE('OSCAD_TOPO/3|edge|e:e6682369f6e1811de685fd518d3a1d12|f7c0e5364872a1ba78228695520a0d5e6a20b799988952de2e11a9a19c498d24',#6,#8,#304,.T.);
#306=SURFACE_CURVE('',#76,(#139,#224),.PCURVE_S1.);
#307=EDGE_CURVE('OSCAD_TOPO/3|edge|e:a5eab1898a1dd1dcf4ccd80a6c46f718|e478439385b91c714813f83a75fe059dda2eab83de4849a053e8fd664914aeb9',#8,#10,#306,.T.);
#308=SURFACE_CURVE('',#79,(#144,#204),.PCURVE_S1.);
#309=EDGE_CURVE('OSCAD_TOPO/3|edge|e:7af66a8c80643e9d0bf22c391b0ae09c|f332a8cc2701adba23bfced3dc4838777a642e687d19722777d213b758d675f3',#10,#12,#308,.T.);
#310=SURFACE_CURVE('',#82,(#149,#154),.PCURVE_S1.);
#311=EDGE_CURVE('OSCAD_TOPO/3|edge|e:4d13663938322657119a14067c530f05|f0a25cac9a3280cbbf4df86c9cec2a0461408449eb78646886df8cadcfbf5e68',#2,#12,#310,.T.);
#312=SURFACE_CURVE('',#85,(#159,#219),.PCURVE_S1.);
#313=EDGE_CURVE('OSCAD_TOPO/3|edge|e:5925f56d8e3611c96596bae226925384|4df3962542f31ca3067a04d71d1dfc201e93b50786293ac28d159726c16396d3',#12,#14,#312,.T.);
#314=SURFACE_CURVE('',#88,(#164,#199),.PCURVE_S1.);
#315=EDGE_CURVE('OSCAD_TOPO/3|edge|e:aca29da237c9037f661a488b57bb06f3|924e4861d11165dd129f27de1a660805f39f3ef45c3f5e9ed4c15ffee9308b78',#14,#16,#314,.T.);
#316=SURFACE_CURVE('',#91,(#169,#289),.PCURVE_S1.);
#317=EDGE_CURVE('OSCAD_TOPO/3|edge|e:0d455987531ad98b0b73b749ef62e4b4|90f731cfe45850bef6d8619e6347e5637e1972d964eacb743eaedc272a406a88',#2,#16,#316,.T.);
#318=SURFACE_CURVE('',#94,(#174,#214),.PCURVE_S1.);
#319=EDGE_CURVE('OSCAD_TOPO/3|edge|e:09728f78c9bc047f72d0a70df439f3d7|a6d949e9747fc70e88c7a05341b8ab21bcfab9542a9744eb331b5b009d9eae77',#14,#18,#318,.T.);
#320=SURFACE_CURVE('',#97,(#179,#234),.PCURVE_S1.);
#321=EDGE_CURVE('OSCAD_TOPO/3|edge|e:121f0905132506c459becfdf894b9a60|562418821e492e791249a7528d57305dc138a870b354d22f8cb1c2940d85dff8',#18,#20,#320,.T.);
#322=SURFACE_CURVE('',#100,(#184,#254),.PCURVE_S1.);
#323=EDGE_CURVE('OSCAD_TOPO/3|edge|e:458bdf23021a19a5b3855890b9534ddd|80762dff9612e43b1e8eed2ec2702a3b618a156bba5677e32fe44db40e498a9f',#20,#22,#322,.T.);
#324=SURFACE_CURVE('',#103,(#189,#274),.PCURVE_S1.);
#325=EDGE_CURVE('OSCAD_TOPO/3|edge|e:14ead2cc6e4a69163f6e82871d9239ea|228417caff1b53969a7a9eafc53b06dd93e74b3b45896603616427ee370ad92b',#22,#24,#324,.T.);
#326=SURFACE_CURVE('',#106,(#194,#294),.PCURVE_S1.);
#327=EDGE_CURVE('OSCAD_TOPO/3|edge|e:d52460241d9efc014cf461393e95a4b6|ec8c31a08bb02c70b1b4c679028b3c45df7e7c33c9f632e0be5211ba64582ea7',#24,#16,#326,.T.);
#328=SURFACE_CURVE('',#109,(#209,#239),.PCURVE_S1.);
#329=EDGE_CURVE('OSCAD_TOPO/3|edge|e:68da6b1225e04a7d433de4466cd0ab43|86d6e15c8df4e165e228f22390edf998d9c10d7fd9947a3949b282bf85059509',#10,#18,#328,.T.);
#330=SURFACE_CURVE('',#112,(#229,#259),.PCURVE_S1.);
#331=EDGE_CURVE('OSCAD_TOPO/3|edge|e:3a3175215f709c7a180008b3221c2dd5|a84cf38470695f0fd444ef42b70dcd0cfd6e516b0f3fc70193e9f7d254880762',#8,#20,#330,.T.);
#332=SURFACE_CURVE('',#115,(#249,#279),.PCURVE_S1.);
#333=EDGE_CURVE('OSCAD_TOPO/3|edge|e:09bfcb64b9a53a438faa30b8cb559152|4d3aeaf2da0e1ae68b1de48fddd2a32454c3c64a0265f308a1fc271e3b3cd702',#6,#22,#332,.T.);
#334=SURFACE_CURVE('',#118,(#269,#299),.PCURVE_S1.);
#335=EDGE_CURVE('OSCAD_TOPO/3|edge|e:794c222ab1d747df49fa0de020573c3e|64592de22d1e3fe90c3fb1e48c776166f893b79558c9b42feae37731141b4588',#4,#24,#334,.T.);
#336=ORIENTED_EDGE('',*,*,#301,.T.);
#337=ORIENTED_EDGE('',*,*,#303,.T.);
#338=ORIENTED_EDGE('',*,*,#305,.T.);
#339=ORIENTED_EDGE('',*,*,#307,.T.);
#340=ORIENTED_EDGE('',*,*,#309,.T.);
#341=ORIENTED_EDGE('',*,*,#311,.F.);
#342=EDGE_LOOP('OSCAD_TOPO/3|loop|l:7b63f3685ba180222e66b4fa1b6a3d3d|3ae0d5301e52a3fcc7e95c256e0ab2e7e62ffadda2042524fe6be10930eee5d6',(#336,#337,#338,#339,#340,#341));
#343=ORIENTED_EDGE('',*,*,#311,.T.);
#344=ORIENTED_EDGE('',*,*,#313,.T.);
#345=ORIENTED_EDGE('',*,*,#315,.T.);
#346=ORIENTED_EDGE('',*,*,#317,.F.);
#347=EDGE_LOOP('OSCAD_TOPO/3|loop|l:80262d15b33399bd40217be7f8be449c|b8ef568dc91a707500db1497fcc7c6cdd077a5c5878afa3d5a100f45ba070495',(#343,#344,#345,#346));
#348=ORIENTED_EDGE('',*,*,#319,.T.);
#349=ORIENTED_EDGE('',*,*,#321,.T.);
#350=ORIENTED_EDGE('',*,*,#323,.T.);
#351=ORIENTED_EDGE('',*,*,#325,.T.);
#352=ORIENTED_EDGE('',*,*,#327,.T.);
#353=ORIENTED_EDGE('',*,*,#315,.F.);
#354=EDGE_LOOP('OSCAD_TOPO/3|loop|l:fc97ac9c9471ca071195d6cb46f2679f|9d4e01dc2ea8c8a7b945990728a9ff5c429588eaf244b78a953a0f51fe21c833',(#348,#349,#350,#351,#352,#353));
#355=ORIENTED_EDGE('',*,*,#309,.F.);
#356=ORIENTED_EDGE('',*,*,#329,.T.);
#357=ORIENTED_EDGE('',*,*,#319,.F.);
#358=ORIENTED_EDGE('',*,*,#313,.F.);
#359=EDGE_LOOP('OSCAD_TOPO/3|loop|l:3f020c7625b6f29a13565cab78f11306|4218650aa333be421bf57a0e7f3af3d02e24993d37f450cde35e494f1400cc66',(#355,#356,#357,#358));
#360=ORIENTED_EDGE('',*,*,#307,.F.);
#361=ORIENTED_EDGE('',*,*,#331,.T.);
#362=ORIENTED_EDGE('',*,*,#321,.F.);
#363=ORIENTED_EDGE('',*,*,#329,.F.);
#364=EDGE_LOOP('OSCAD_TOPO/3|loop|l:dc86e6ed43b0ae77496aabca62766042|9115cfe1f1762edc49e2a1d6190928165b3da7fb4d2419d88f4cf3589293a6a7',(#360,#361,#362,#363));
#365=ORIENTED_EDGE('',*,*,#305,.F.);
#366=ORIENTED_EDGE('',*,*,#333,.T.);
#367=ORIENTED_EDGE('',*,*,#323,.F.);
#368=ORIENTED_EDGE('',*,*,#331,.F.);
#369=EDGE_LOOP('OSCAD_TOPO/3|loop|l:4adbcfa699eb9265f4b59506701e4222|9508ca1466022010ee64a37859212b76c2f1cb5c3b47287c10c68812b73a1848',(#365,#366,#367,#368));
#370=ORIENTED_EDGE('',*,*,#303,.F.);
#371=ORIENTED_EDGE('',*,*,#335,.T.);
#372=ORIENTED_EDGE('',*,*,#325,.F.);
#373=ORIENTED_EDGE('',*,*,#333,.F.);
#374=EDGE_LOOP('OSCAD_TOPO/3|loop|l:4bc6c0b8adca26c17fc49d08be9bbcb6|4915e33600068c9b3b30c2cec6dadae0e2c51c09acac2ae7ed3024aa9d1e089c',(#370,#371,#372,#373));
#375=ORIENTED_EDGE('',*,*,#301,.F.);
#376=ORIENTED_EDGE('',*,*,#317,.T.);
#377=ORIENTED_EDGE('',*,*,#327,.F.);
#378=ORIENTED_EDGE('',*,*,#335,.F.);
#379=EDGE_LOOP('OSCAD_TOPO/3|loop|l:bca121b427327f66f6cb4b9cd46dbf52|2aead0935b9bfb1c538ea4ac3a8b1e6c4ad28ea965ea642c44956f42de97ba6d',(#375,#376,#377,#378));
#380=FACE_OUTER_BOUND('',#342,.T.);
#381=ADVANCED_FACE('OSCAD_TOPO/3|face|f:c48d69aaa7adcc2988f9a855c71ae703|c2b9624dbe4a8bdde631235ddf74fa0f8a3cfff7393d488a8f0c909ebce8a6f8',(#380),#29,.T.);
#382=FACE_OUTER_BOUND('',#347,.T.);
#383=ADVANCED_FACE('OSCAD_TOPO/3|face|f:7e0e746e405c50d649d1a29c610b71c5|510e13771f1f51aa54e13c3da3e3c328f9f42163719b062a24c406aca1b991b5',(#382),#34,.T.);
#384=FACE_OUTER_BOUND('',#354,.T.);
#385=ADVANCED_FACE('OSCAD_TOPO/3|face|f:43c1464fb0365e45211cde15522ac048|f930d9a37344c4796754b69c601f4dd5567a410dd5318b89c679d686d8b2b632',(#384),#39,.T.);
#386=FACE_OUTER_BOUND('',#359,.T.);
#387=ADVANCED_FACE('OSCAD_TOPO/3|face|f:983f139b664dcac8821f3bc0bddb2d1b|8f4b410d5c8b76df6989af8be7ca76868ad976c4efa48785dd9b19d9166c49db',(#386),#44,.T.);
#388=FACE_OUTER_BOUND('',#364,.T.);
#389=ADVANCED_FACE('OSCAD_TOPO/3|face|f:0739e5731066af2cdcea057f77df1962|91b6a2534f37fd7c91f177a421597ccbb2d7deadee51786642161747547a0400',(#388),#49,.T.);
#390=FACE_OUTER_BOUND('',#369,.T.);
#391=ADVANCED_FACE('OSCAD_TOPO/3|face|f:590e26f8bfbc3ecc1aa5f23389b72542|5cc52e94af4e25615df0bb59deb71ee2bcc61eeb4c3676fc4f1d713513cdad7a',(#390),#54,.T.);
#392=FACE_OUTER_BOUND('',#374,.T.);
#393=ADVANCED_FACE('OSCAD_TOPO/3|face|f:b33e4c78aeb1cc30ef27e65e36d513e1|778e43896ae3b1a02d1b6e15699a90f72daa2a61003fc779e21ac5bc11bc6460',(#392),#59,.T.);
#394=FACE_OUTER_BOUND('',#379,.T.);
#395=ADVANCED_FACE('OSCAD_TOPO/3|face|f:b71fc16eb67b69921317cd7937b17119|bc73554f214158a61cb796d5918ada1a121b7ae1b271ba689394f27b318d76af',(#394),#64,.T.);
#396=CLOSED_SHELL('OSCAD_TOPO/3|shell|s:1e0ea38705dae03a94741a66ef6f8764|35244c196f834eef7fc7807a62992cb1ba3f5b2cc2c623a5f6b1779e6079a795',(#381,#383,#385,#387,#389,#391,#393,#395));
#397=MANIFOLD_SOLID_BREP('OSCAD_TOPO/3|body|b:0dcc056f4b38dfa18fa886a7d4fed2c7|5134ffdb097e8cbb2c64bf1cb5dfe3b97b9d24d25fc99e75aa62ae2ea063b72b',#396);
#398=(LENGTH_UNIT()NAMED_UNIT(*)SI_UNIT(.MILLI.,.METRE.));
#399=UNCERTAINTY_MEASURE_WITH_UNIT(LENGTH_MEASURE(9.99999999999999955E-8),#398,'distance_accuracy_value','');
#400=(GEOMETRIC_REPRESENTATION_CONTEXT(3)GLOBAL_UNCERTAINTY_ASSIGNED_CONTEXT((#399))GLOBAL_UNIT_ASSIGNED_CONTEXT((#398))REPRESENTATION_CONTEXT('','3D'));
#401=ADVANCED_BREP_SHAPE_REPRESENTATION('',(#397),#400);
#402=APPLICATION_CONTEXT('managed model based 3d engineering');
#403=PRODUCT_CONTEXT('',#402,'mechanical');
#404=PRODUCT('model','model','',(#403));
#405=PRODUCT_DEFINITION_FORMATION('1','',#404);
#406=PRODUCT_DEFINITION_CONTEXT('part definition',#402,'design');
#407=PRODUCT_DEFINITION('design','',#405,#406);
#408=PRODUCT_DEFINITION_SHAPE('','',#407);
#409=SHAPE_DEFINITION_REPRESENTATION(#408,#401);
ENDSEC;
END-ISO-10303-21;
