ISO-10303-21;
HEADER;
FILE_DESCRIPTION(('OpenSCAD Viewer retained AP242 B-rep'),'2;1');
FILE_NAME('model.step','',(''),(''),'OpenSCAD Viewer','OpenSCAD Viewer','');
FILE_SCHEMA(('AP242_MANAGED_MODEL_BASED_3D_ENGINEERING_MIM_LF'));
ENDSEC;
DATA;
#1=CARTESIAN_POINT('',(0.00000000000000000E0,3.00000000000000000E1,0.00000000000000000E0));
#2=VERTEX_POINT('OSCAD_TOPO/3|vertex|v:f34a46770adaa53d880ebba9ca5fb14d|53a1551483f37f3abd7d4031cc78eae6b9c506b02a781bdd06636225d65b051e',#1);
#3=CARTESIAN_POINT('',(5.00000000000000000E0,3.00000000000000000E1,0.00000000000000000E0));
#4=VERTEX_POINT('OSCAD_TOPO/3|vertex|v:01951cb304bc31ddfb1acc461682e2a1|48d2fa2f4e298ce12833a694d3c225a6c5e308c87904f05ca0ebd2b9f3e086d2',#3);
#5=CARTESIAN_POINT('',(5.00000000000000000E0,5.00000000000000000E0,0.00000000000000000E0));
#6=VERTEX_POINT('OSCAD_TOPO/3|vertex|v:c47e38a06edb15c3b877080fcc216872|49406528489b02fb851dc2f6b443027b9986632dc3ac940d13873020737e5ebc',#5);
#7=CARTESIAN_POINT('',(4.00000000000000000E1,5.00000000000000000E0,0.00000000000000000E0));
#8=VERTEX_POINT('OSCAD_TOPO/3|vertex|v:e90d376c44d3c8d72882744b35f19862|7b2b8d34dbb4c2c74c84e9df2854725ad8667cefe942ba14f5ecbae3fc8881bd',#7);
#9=CARTESIAN_POINT('',(4.00000000000000000E1,0.00000000000000000E0,0.00000000000000000E0));
#10=VERTEX_POINT('OSCAD_TOPO/3|vertex|v:00043a01e0f479e2548c3291a1b550b6|3f743843ec3bc841c4040bf6d9854da68b7a767cf4a838f8d1ead97d821e1c9a',#9);
#11=CARTESIAN_POINT('',(0.00000000000000000E0,0.00000000000000000E0,0.00000000000000000E0));
#12=VERTEX_POINT('OSCAD_TOPO/3|vertex|v:2301485b2aa5130a3ffa2c3d4ddce85f|191be695419e636e18cadbd25849313dc09d01169bcb85a989c23a0b6cf87b5c',#11);
#13=CARTESIAN_POINT('',(0.00000000000000000E0,0.00000000000000000E0,2.10000000000000000E1));
#14=VERTEX_POINT('OSCAD_TOPO/3|vertex|v:8e27b0b507a84d73a21f0a7791d077a8|94472e9b2a4de33739abcd9c2dd569d638471688a2266a906d694e9f904e995c',#13);
#15=CARTESIAN_POINT('',(4.00000000000000000E1,0.00000000000000000E0,2.10000000000000000E1));
#16=VERTEX_POINT('OSCAD_TOPO/3|vertex|v:f4672cbc062ab636c599eb3bfd705a83|451c5b6cdd9d1346f32ac96962063a536690b23751ed9ecafcbea0539df15c73',#15);
#17=CARTESIAN_POINT('',(4.00000000000000000E1,5.00000000000000000E0,2.10000000000000000E1));
#18=VERTEX_POINT('OSCAD_TOPO/3|vertex|v:7de1706a7c025e56ffdce30f396a4976|4f80b6a202cd2636d444c264ddedf115806c4abbcbb84e137d1a69812203db22',#17);
#19=CARTESIAN_POINT('',(5.00000000000000000E0,5.00000000000000000E0,2.10000000000000000E1));
#20=VERTEX_POINT('OSCAD_TOPO/3|vertex|v:41e977b9510ac400e2450607210043db|722dfa8fa379f21fbd521fbb2ba5993e56b4951b6c4191e2afb9495991d78707',#19);
#21=CARTESIAN_POINT('',(5.00000000000000000E0,3.00000000000000000E1,2.10000000000000000E1));
#22=VERTEX_POINT('OSCAD_TOPO/3|vertex|v:ad44ce4b195019a833ef544d875b3514|021cfa6eefd925b07baf04ed9f0fa10e1acdd0df759b9e615428b6fa92628e6d',#21);
#23=CARTESIAN_POINT('',(0.00000000000000000E0,3.00000000000000000E1,2.10000000000000000E1));
#24=VERTEX_POINT('OSCAD_TOPO/3|vertex|v:6d859220133004b9cb69e4589d3e6ed0|37c4a7e25cda8b545489494a617abbad5ab0e1504dc4b348bcea7232c0112977',#23);
#25=CARTESIAN_POINT('',(0.00000000000000000E0,0.00000000000000000E0,0.00000000000000000E0));
#26=CARTESIAN_POINT('',(4.00000000000000000E1,0.00000000000000000E0,0.00000000000000000E0));
#27=CARTESIAN_POINT('',(0.00000000000000000E0,3.00000000000000000E1,0.00000000000000000E0));
#28=CARTESIAN_POINT('',(4.00000000000000000E1,3.00000000000000000E1,0.00000000000000000E0));
#29=B_SPLINE_SURFACE_WITH_KNOTS('',1,1,((#25,#26),(#27,#28)),.UNSPECIFIED.,.F.,.F.,.F.,(2,2),(2,2),(0.00000000000000000E0,1.00000000000000000E0),(0.00000000000000000E0,1.00000000000000000E0),.UNSPECIFIED.);
#30=CARTESIAN_POINT('',(0.00000000000000000E0,3.00000000000000000E1,2.10000000000000000E1));
#31=CARTESIAN_POINT('',(4.00000000000000000E1,3.00000000000000000E1,2.10000000000000000E1));
#32=CARTESIAN_POINT('',(0.00000000000000000E0,0.00000000000000000E0,2.10000000000000000E1));
#33=CARTESIAN_POINT('',(4.00000000000000000E1,0.00000000000000000E0,2.10000000000000000E1));
#34=B_SPLINE_SURFACE_WITH_KNOTS('',1,1,((#30,#31),(#32,#33)),.UNSPECIFIED.,.F.,.F.,.F.,(2,2),(2,2),(0.00000000000000000E0,1.00000000000000000E0),(0.00000000000000000E0,1.00000000000000000E0),.UNSPECIFIED.);
#35=CARTESIAN_POINT('',(0.00000000000000000E0,0.00000000000000000E0,2.10000000000000000E1));
#36=CARTESIAN_POINT('',(4.00000000000000000E1,0.00000000000000000E0,2.10000000000000000E1));
#37=CARTESIAN_POINT('',(0.00000000000000000E0,0.00000000000000000E0,0.00000000000000000E0));
#38=CARTESIAN_POINT('',(4.00000000000000000E1,0.00000000000000000E0,0.00000000000000000E0));
#39=B_SPLINE_SURFACE_WITH_KNOTS('',1,1,((#35,#36),(#37,#38)),.UNSPECIFIED.,.F.,.F.,.F.,(2,2),(2,2),(0.00000000000000000E0,1.00000000000000000E0),(0.00000000000000000E0,1.00000000000000000E0),.UNSPECIFIED.);
#40=CARTESIAN_POINT('',(4.00000000000000000E1,0.00000000000000000E0,2.10000000000000000E1));
#41=CARTESIAN_POINT('',(4.00000000000000000E1,5.00000000000000000E0,2.10000000000000000E1));
#42=CARTESIAN_POINT('',(4.00000000000000000E1,0.00000000000000000E0,0.00000000000000000E0));
#43=CARTESIAN_POINT('',(4.00000000000000000E1,5.00000000000000000E0,0.00000000000000000E0));
#44=B_SPLINE_SURFACE_WITH_KNOTS('',1,1,((#40,#41),(#42,#43)),.UNSPECIFIED.,.F.,.F.,.F.,(2,2),(2,2),(0.00000000000000000E0,1.00000000000000000E0),(0.00000000000000000E0,1.00000000000000000E0),.UNSPECIFIED.);
#45=CARTESIAN_POINT('',(5.00000000000000000E0,5.00000000000000000E0,0.00000000000000000E0));
#46=CARTESIAN_POINT('',(4.00000000000000000E1,5.00000000000000000E0,0.00000000000000000E0));
#47=CARTESIAN_POINT('',(5.00000000000000000E0,5.00000000000000000E0,2.10000000000000000E1));
#48=CARTESIAN_POINT('',(4.00000000000000000E1,5.00000000000000000E0,2.10000000000000000E1));
#49=B_SPLINE_SURFACE_WITH_KNOTS('',1,1,((#45,#46),(#47,#48)),.UNSPECIFIED.,.F.,.F.,.F.,(2,2),(2,2),(0.00000000000000000E0,1.00000000000000000E0),(0.00000000000000000E0,1.00000000000000000E0),.UNSPECIFIED.);
#50=CARTESIAN_POINT('',(5.00000000000000000E0,5.00000000000000000E0,2.10000000000000000E1));
#51=CARTESIAN_POINT('',(5.00000000000000000E0,3.00000000000000000E1,2.10000000000000000E1));
#52=CARTESIAN_POINT('',(5.00000000000000000E0,5.00000000000000000E0,0.00000000000000000E0));
#53=CARTESIAN_POINT('',(5.00000000000000000E0,3.00000000000000000E1,0.00000000000000000E0));
#54=B_SPLINE_SURFACE_WITH_KNOTS('',1,1,((#50,#51),(#52,#53)),.UNSPECIFIED.,.F.,.F.,.F.,(2,2),(2,2),(0.00000000000000000E0,1.00000000000000000E0),(0.00000000000000000E0,1.00000000000000000E0),.UNSPECIFIED.);
#55=CARTESIAN_POINT('',(0.00000000000000000E0,3.00000000000000000E1,0.00000000000000000E0));
#56=CARTESIAN_POINT('',(5.00000000000000000E0,3.00000000000000000E1,0.00000000000000000E0));
#57=CARTESIAN_POINT('',(0.00000000000000000E0,3.00000000000000000E1,2.10000000000000000E1));
#58=CARTESIAN_POINT('',(5.00000000000000000E0,3.00000000000000000E1,2.10000000000000000E1));
#59=B_SPLINE_SURFACE_WITH_KNOTS('',1,1,((#55,#56),(#57,#58)),.UNSPECIFIED.,.F.,.F.,.F.,(2,2),(2,2),(0.00000000000000000E0,1.00000000000000000E0),(0.00000000000000000E0,1.00000000000000000E0),.UNSPECIFIED.);
#60=CARTESIAN_POINT('',(0.00000000000000000E0,0.00000000000000000E0,0.00000000000000000E0));
#61=CARTESIAN_POINT('',(0.00000000000000000E0,3.00000000000000000E1,0.00000000000000000E0));
#62=CARTESIAN_POINT('',(0.00000000000000000E0,0.00000000000000000E0,2.10000000000000000E1));
#63=CARTESIAN_POINT('',(0.00000000000000000E0,3.00000000000000000E1,2.10000000000000000E1));
#64=B_SPLINE_SURFACE_WITH_KNOTS('',1,1,((#60,#61),(#62,#63)),.UNSPECIFIED.,.F.,.F.,.F.,(2,2),(2,2),(0.00000000000000000E0,1.00000000000000000E0),(0.00000000000000000E0,1.00000000000000000E0),.UNSPECIFIED.);
#65=CARTESIAN_POINT('',(0.00000000000000000E0,3.00000000000000000E1,0.00000000000000000E0));
#66=CARTESIAN_POINT('',(5.00000000000000000E0,3.00000000000000000E1,0.00000000000000000E0));
#67=B_SPLINE_CURVE_WITH_KNOTS('',1,(#65,#66),.UNSPECIFIED.,.F.,.F.,(2,2),(0.00000000000000000E0,1.00000000000000000E0),.UNSPECIFIED.);
#68=CARTESIAN_POINT('',(5.00000000000000000E0,3.00000000000000000E1,0.00000000000000000E0));
#69=CARTESIAN_POINT('',(5.00000000000000000E0,5.00000000000000000E0,0.00000000000000000E0));
#70=B_SPLINE_CURVE_WITH_KNOTS('',1,(#68,#69),.UNSPECIFIED.,.F.,.F.,(2,2),(0.00000000000000000E0,1.00000000000000000E0),.UNSPECIFIED.);
#71=CARTESIAN_POINT('',(5.00000000000000000E0,5.00000000000000000E0,0.00000000000000000E0));
#72=CARTESIAN_POINT('',(4.00000000000000000E1,5.00000000000000000E0,0.00000000000000000E0));
#73=B_SPLINE_CURVE_WITH_KNOTS('',1,(#71,#72),.UNSPECIFIED.,.F.,.F.,(2,2),(0.00000000000000000E0,1.00000000000000000E0),.UNSPECIFIED.);
#74=CARTESIAN_POINT('',(4.00000000000000000E1,5.00000000000000000E0,0.00000000000000000E0));
#75=CARTESIAN_POINT('',(4.00000000000000000E1,0.00000000000000000E0,0.00000000000000000E0));
#76=B_SPLINE_CURVE_WITH_KNOTS('',1,(#74,#75),.UNSPECIFIED.,.F.,.F.,(2,2),(0.00000000000000000E0,1.00000000000000000E0),.UNSPECIFIED.);
#77=CARTESIAN_POINT('',(4.00000000000000000E1,0.00000000000000000E0,0.00000000000000000E0));
#78=CARTESIAN_POINT('',(0.00000000000000000E0,0.00000000000000000E0,0.00000000000000000E0));
#79=B_SPLINE_CURVE_WITH_KNOTS('',1,(#77,#78),.UNSPECIFIED.,.F.,.F.,(2,2),(0.00000000000000000E0,1.00000000000000000E0),.UNSPECIFIED.);
#80=CARTESIAN_POINT('',(0.00000000000000000E0,3.00000000000000000E1,0.00000000000000000E0));
#81=CARTESIAN_POINT('',(0.00000000000000000E0,0.00000000000000000E0,0.00000000000000000E0));
#82=B_SPLINE_CURVE_WITH_KNOTS('',1,(#80,#81),.UNSPECIFIED.,.F.,.F.,(2,2),(0.00000000000000000E0,1.00000000000000000E0),.UNSPECIFIED.);
#83=CARTESIAN_POINT('',(0.00000000000000000E0,0.00000000000000000E0,2.10000000000000000E1));
#84=CARTESIAN_POINT('',(4.00000000000000000E1,0.00000000000000000E0,2.10000000000000000E1));
#85=B_SPLINE_CURVE_WITH_KNOTS('',1,(#83,#84),.UNSPECIFIED.,.F.,.F.,(2,2),(0.00000000000000000E0,1.00000000000000000E0),.UNSPECIFIED.);
#86=CARTESIAN_POINT('',(4.00000000000000000E1,0.00000000000000000E0,2.10000000000000000E1));
#87=CARTESIAN_POINT('',(4.00000000000000000E1,5.00000000000000000E0,2.10000000000000000E1));
#88=B_SPLINE_CURVE_WITH_KNOTS('',1,(#86,#87),.UNSPECIFIED.,.F.,.F.,(2,2),(0.00000000000000000E0,1.00000000000000000E0),.UNSPECIFIED.);
#89=CARTESIAN_POINT('',(4.00000000000000000E1,5.00000000000000000E0,2.10000000000000000E1));
#90=CARTESIAN_POINT('',(5.00000000000000000E0,5.00000000000000000E0,2.10000000000000000E1));
#91=B_SPLINE_CURVE_WITH_KNOTS('',1,(#89,#90),.UNSPECIFIED.,.F.,.F.,(2,2),(0.00000000000000000E0,1.00000000000000000E0),.UNSPECIFIED.);
#92=CARTESIAN_POINT('',(5.00000000000000000E0,5.00000000000000000E0,2.10000000000000000E1));
#93=CARTESIAN_POINT('',(5.00000000000000000E0,3.00000000000000000E1,2.10000000000000000E1));
#94=B_SPLINE_CURVE_WITH_KNOTS('',1,(#92,#93),.UNSPECIFIED.,.F.,.F.,(2,2),(0.00000000000000000E0,1.00000000000000000E0),.UNSPECIFIED.);
#95=CARTESIAN_POINT('',(5.00000000000000000E0,3.00000000000000000E1,2.10000000000000000E1));
#96=CARTESIAN_POINT('',(0.00000000000000000E0,3.00000000000000000E1,2.10000000000000000E1));
#97=B_SPLINE_CURVE_WITH_KNOTS('',1,(#95,#96),.UNSPECIFIED.,.F.,.F.,(2,2),(0.00000000000000000E0,1.00000000000000000E0),.UNSPECIFIED.);
#98=CARTESIAN_POINT('',(0.00000000000000000E0,0.00000000000000000E0,2.10000000000000000E1));
#99=CARTESIAN_POINT('',(0.00000000000000000E0,3.00000000000000000E1,2.10000000000000000E1));
#100=B_SPLINE_CURVE_WITH_KNOTS('',1,(#98,#99),.UNSPECIFIED.,.F.,.F.,(2,2),(0.00000000000000000E0,1.00000000000000000E0),.UNSPECIFIED.);
#101=CARTESIAN_POINT('',(4.00000000000000000E1,0.00000000000000000E0,0.00000000000000000E0));
#102=CARTESIAN_POINT('',(4.00000000000000000E1,0.00000000000000000E0,2.10000000000000000E1));
#103=B_SPLINE_CURVE_WITH_KNOTS('',1,(#101,#102),.UNSPECIFIED.,.F.,.F.,(2,2),(0.00000000000000000E0,1.00000000000000000E0),.UNSPECIFIED.);
#104=CARTESIAN_POINT('',(0.00000000000000000E0,0.00000000000000000E0,0.00000000000000000E0));
#105=CARTESIAN_POINT('',(0.00000000000000000E0,0.00000000000000000E0,2.10000000000000000E1));
#106=B_SPLINE_CURVE_WITH_KNOTS('',1,(#104,#105),.UNSPECIFIED.,.F.,.F.,(2,2),(0.00000000000000000E0,1.00000000000000000E0),.UNSPECIFIED.);
#107=CARTESIAN_POINT('',(4.00000000000000000E1,5.00000000000000000E0,0.00000000000000000E0));
#108=CARTESIAN_POINT('',(4.00000000000000000E1,5.00000000000000000E0,2.10000000000000000E1));
#109=B_SPLINE_CURVE_WITH_KNOTS('',1,(#107,#108),.UNSPECIFIED.,.F.,.F.,(2,2),(0.00000000000000000E0,1.00000000000000000E0),.UNSPECIFIED.);
#110=CARTESIAN_POINT('',(5.00000000000000000E0,5.00000000000000000E0,0.00000000000000000E0));
#111=CARTESIAN_POINT('',(5.00000000000000000E0,5.00000000000000000E0,2.10000000000000000E1));
#112=B_SPLINE_CURVE_WITH_KNOTS('',1,(#110,#111),.UNSPECIFIED.,.F.,.F.,(2,2),(0.00000000000000000E0,1.00000000000000000E0),.UNSPECIFIED.);
#113=CARTESIAN_POINT('',(5.00000000000000000E0,3.00000000000000000E1,0.00000000000000000E0));
#114=CARTESIAN_POINT('',(5.00000000000000000E0,3.00000000000000000E1,2.10000000000000000E1));
#115=B_SPLINE_CURVE_WITH_KNOTS('',1,(#113,#114),.UNSPECIFIED.,.F.,.F.,(2,2),(0.00000000000000000E0,1.00000000000000000E0),.UNSPECIFIED.);
#116=CARTESIAN_POINT('',(0.00000000000000000E0,3.00000000000000000E1,0.00000000000000000E0));
#117=CARTESIAN_POINT('',(0.00000000000000000E0,3.00000000000000000E1,2.10000000000000000E1));
#118=B_SPLINE_CURVE_WITH_KNOTS('',1,(#116,#117),.UNSPECIFIED.,.F.,.F.,(2,2),(0.00000000000000000E0,1.00000000000000000E0),.UNSPECIFIED.);
#119=(GEOMETRIC_REPRESENTATION_CONTEXT(2)REPRESENTATION_CONTEXT('','2D'));
#120=CARTESIAN_POINT('',(1.00000000000000000E0,0.00000000000000000E0));
#121=CARTESIAN_POINT('',(1.00000000000000000E0,1.25000000000000000E-1));
#122=B_SPLINE_CURVE_WITH_KNOTS('',1,(#120,#121),.UNSPECIFIED.,.F.,.F.,(2,2),(0.00000000000000000E0,1.00000000000000000E0),.UNSPECIFIED.);
#123=DEFINITIONAL_REPRESENTATION('',(#122),#119);
#124=PCURVE('',#29,#123);
#125=CARTESIAN_POINT('',(1.00000000000000000E0,1.25000000000000000E-1));
#126=CARTESIAN_POINT('',(1.66666666666666657E-1,1.25000000000000000E-1));
#127=B_SPLINE_CURVE_WITH_KNOTS('',1,(#125,#126),.UNSPECIFIED.,.F.,.F.,(2,2),(0.00000000000000000E0,1.00000000000000000E0),.UNSPECIFIED.);
#128=DEFINITIONAL_REPRESENTATION('',(#127),#119);
#129=PCURVE('',#29,#128);
#130=CARTESIAN_POINT('',(1.66666666666666657E-1,1.25000000000000000E-1));
#131=CARTESIAN_POINT('',(1.66666666666666657E-1,1.00000000000000000E0));
#132=B_SPLINE_CURVE_WITH_KNOTS('',1,(#130,#131),.UNSPECIFIED.,.F.,.F.,(2,2),(0.00000000000000000E0,1.00000000000000000E0),.UNSPECIFIED.);
#133=DEFINITIONAL_REPRESENTATION('',(#132),#119);
#134=PCURVE('',#29,#133);
#135=CARTESIAN_POINT('',(1.66666666666666657E-1,1.00000000000000000E0));
#136=CARTESIAN_POINT('',(0.00000000000000000E0,1.00000000000000000E0));
#137=B_SPLINE_CURVE_WITH_KNOTS('',1,(#135,#136),.UNSPECIFIED.,.F.,.F.,(2,2),(0.00000000000000000E0,1.00000000000000000E0),.UNSPECIFIED.);
#138=DEFINITIONAL_REPRESENTATION('',(#137),#119);
#139=PCURVE('',#29,#138);
#140=CARTESIAN_POINT('',(0.00000000000000000E0,1.00000000000000000E0));
#141=CARTESIAN_POINT('',(0.00000000000000000E0,0.00000000000000000E0));
#142=B_SPLINE_CURVE_WITH_KNOTS('',1,(#140,#141),.UNSPECIFIED.,.F.,.F.,(2,2),(0.00000000000000000E0,1.00000000000000000E0),.UNSPECIFIED.);
#143=DEFINITIONAL_REPRESENTATION('',(#142),#119);
#144=PCURVE('',#29,#143);
#145=CARTESIAN_POINT('',(0.00000000000000000E0,0.00000000000000000E0));
#146=CARTESIAN_POINT('',(1.00000000000000000E0,0.00000000000000000E0));
#147=B_SPLINE_CURVE_WITH_KNOTS('',1,(#145,#146),.UNSPECIFIED.,.F.,.F.,(2,2),(0.00000000000000000E0,1.00000000000000000E0),.UNSPECIFIED.);
#148=DEFINITIONAL_REPRESENTATION('',(#147),#119);
#149=PCURVE('',#29,#148);
#150=CARTESIAN_POINT('',(1.00000000000000000E0,0.00000000000000000E0));
#151=CARTESIAN_POINT('',(1.00000000000000000E0,1.00000000000000000E0));
#152=B_SPLINE_CURVE_WITH_KNOTS('',1,(#150,#151),.UNSPECIFIED.,.F.,.F.,(2,2),(0.00000000000000000E0,1.00000000000000000E0),.UNSPECIFIED.);
#153=DEFINITIONAL_REPRESENTATION('',(#152),#119);
#154=PCURVE('',#34,#153);
#155=CARTESIAN_POINT('',(1.00000000000000000E0,1.00000000000000000E0));
#156=CARTESIAN_POINT('',(8.33333333333333370E-1,1.00000000000000000E0));
#157=B_SPLINE_CURVE_WITH_KNOTS('',1,(#155,#156),.UNSPECIFIED.,.F.,.F.,(2,2),(0.00000000000000000E0,1.00000000000000000E0),.UNSPECIFIED.);
#158=DEFINITIONAL_REPRESENTATION('',(#157),#119);
#159=PCURVE('',#34,#158);
#160=CARTESIAN_POINT('',(8.33333333333333370E-1,1.00000000000000000E0));
#161=CARTESIAN_POINT('',(8.33333333333333370E-1,1.25000000000000000E-1));
#162=B_SPLINE_CURVE_WITH_KNOTS('',1,(#160,#161),.UNSPECIFIED.,.F.,.F.,(2,2),(0.00000000000000000E0,1.00000000000000000E0),.UNSPECIFIED.);
#163=DEFINITIONAL_REPRESENTATION('',(#162),#119);
#164=PCURVE('',#34,#163);
#165=CARTESIAN_POINT('',(8.33333333333333370E-1,1.25000000000000000E-1));
#166=CARTESIAN_POINT('',(0.00000000000000000E0,1.25000000000000000E-1));
#167=B_SPLINE_CURVE_WITH_KNOTS('',1,(#165,#166),.UNSPECIFIED.,.F.,.F.,(2,2),(0.00000000000000000E0,1.00000000000000000E0),.UNSPECIFIED.);
#168=DEFINITIONAL_REPRESENTATION('',(#167),#119);
#169=PCURVE('',#34,#168);
#170=CARTESIAN_POINT('',(0.00000000000000000E0,1.25000000000000000E-1));
#171=CARTESIAN_POINT('',(0.00000000000000000E0,0.00000000000000000E0));
#172=B_SPLINE_CURVE_WITH_KNOTS('',1,(#170,#171),.UNSPECIFIED.,.F.,.F.,(2,2),(0.00000000000000000E0,1.00000000000000000E0),.UNSPECIFIED.);
#173=DEFINITIONAL_REPRESENTATION('',(#172),#119);
#174=PCURVE('',#34,#173);
#175=CARTESIAN_POINT('',(0.00000000000000000E0,0.00000000000000000E0));
#176=CARTESIAN_POINT('',(1.00000000000000000E0,0.00000000000000000E0));
#177=B_SPLINE_CURVE_WITH_KNOTS('',1,(#175,#176),.UNSPECIFIED.,.F.,.F.,(2,2),(0.00000000000000000E0,1.00000000000000000E0),.UNSPECIFIED.);
#178=DEFINITIONAL_REPRESENTATION('',(#177),#119);
#179=PCURVE('',#34,#178);
#180=CARTESIAN_POINT('',(1.00000000000000000E0,0.00000000000000000E0));
#181=CARTESIAN_POINT('',(1.00000000000000000E0,1.00000000000000000E0));
#182=B_SPLINE_CURVE_WITH_KNOTS('',1,(#180,#181),.UNSPECIFIED.,.F.,.F.,(2,2),(0.00000000000000000E0,1.00000000000000000E0),.UNSPECIFIED.);
#183=DEFINITIONAL_REPRESENTATION('',(#182),#119);
#184=PCURVE('',#39,#183);
#185=CARTESIAN_POINT('',(1.00000000000000000E0,1.00000000000000000E0));
#186=CARTESIAN_POINT('',(0.00000000000000000E0,1.00000000000000000E0));
#187=B_SPLINE_CURVE_WITH_KNOTS('',1,(#185,#186),.UNSPECIFIED.,.F.,.F.,(2,2),(0.00000000000000000E0,1.00000000000000000E0),.UNSPECIFIED.);
#188=DEFINITIONAL_REPRESENTATION('',(#187),#119);
#189=PCURVE('',#39,#188);
#190=CARTESIAN_POINT('',(0.00000000000000000E0,1.00000000000000000E0));
#191=CARTESIAN_POINT('',(0.00000000000000000E0,0.00000000000000000E0));
#192=B_SPLINE_CURVE_WITH_KNOTS('',1,(#190,#191),.UNSPECIFIED.,.F.,.F.,(2,2),(0.00000000000000000E0,1.00000000000000000E0),.UNSPECIFIED.);
#193=DEFINITIONAL_REPRESENTATION('',(#192),#119);
#194=PCURVE('',#39,#193);
#195=CARTESIAN_POINT('',(0.00000000000000000E0,0.00000000000000000E0));
#196=CARTESIAN_POINT('',(1.00000000000000000E0,0.00000000000000000E0));
#197=B_SPLINE_CURVE_WITH_KNOTS('',1,(#195,#196),.UNSPECIFIED.,.F.,.F.,(2,2),(0.00000000000000000E0,1.00000000000000000E0),.UNSPECIFIED.);
#198=DEFINITIONAL_REPRESENTATION('',(#197),#119);
#199=PCURVE('',#39,#198);
#200=CARTESIAN_POINT('',(1.00000000000000000E0,0.00000000000000000E0));
#201=CARTESIAN_POINT('',(1.00000000000000000E0,1.00000000000000000E0));
#202=B_SPLINE_CURVE_WITH_KNOTS('',1,(#200,#201),.UNSPECIFIED.,.F.,.F.,(2,2),(0.00000000000000000E0,1.00000000000000000E0),.UNSPECIFIED.);
#203=DEFINITIONAL_REPRESENTATION('',(#202),#119);
#204=PCURVE('',#44,#203);
#205=CARTESIAN_POINT('',(1.00000000000000000E0,1.00000000000000000E0));
#206=CARTESIAN_POINT('',(0.00000000000000000E0,1.00000000000000000E0));
#207=B_SPLINE_CURVE_WITH_KNOTS('',1,(#205,#206),.UNSPECIFIED.,.F.,.F.,(2,2),(0.00000000000000000E0,1.00000000000000000E0),.UNSPECIFIED.);
#208=DEFINITIONAL_REPRESENTATION('',(#207),#119);
#209=PCURVE('',#44,#208);
#210=CARTESIAN_POINT('',(0.00000000000000000E0,1.00000000000000000E0));
#211=CARTESIAN_POINT('',(0.00000000000000000E0,0.00000000000000000E0));
#212=B_SPLINE_CURVE_WITH_KNOTS('',1,(#210,#211),.UNSPECIFIED.,.F.,.F.,(2,2),(0.00000000000000000E0,1.00000000000000000E0),.UNSPECIFIED.);
#213=DEFINITIONAL_REPRESENTATION('',(#212),#119);
#214=PCURVE('',#44,#213);
#215=CARTESIAN_POINT('',(0.00000000000000000E0,0.00000000000000000E0));
#216=CARTESIAN_POINT('',(1.00000000000000000E0,0.00000000000000000E0));
#217=B_SPLINE_CURVE_WITH_KNOTS('',1,(#215,#216),.UNSPECIFIED.,.F.,.F.,(2,2),(0.00000000000000000E0,1.00000000000000000E0),.UNSPECIFIED.);
#218=DEFINITIONAL_REPRESENTATION('',(#217),#119);
#219=PCURVE('',#44,#218);
#220=CARTESIAN_POINT('',(0.00000000000000000E0,1.00000000000000000E0));
#221=CARTESIAN_POINT('',(0.00000000000000000E0,0.00000000000000000E0));
#222=B_SPLINE_CURVE_WITH_KNOTS('',1,(#220,#221),.UNSPECIFIED.,.F.,.F.,(2,2),(0.00000000000000000E0,1.00000000000000000E0),.UNSPECIFIED.);
#223=DEFINITIONAL_REPRESENTATION('',(#222),#119);
#224=PCURVE('',#49,#223);
#225=CARTESIAN_POINT('',(0.00000000000000000E0,0.00000000000000000E0));
#226=CARTESIAN_POINT('',(1.00000000000000000E0,0.00000000000000000E0));
#227=B_SPLINE_CURVE_WITH_KNOTS('',1,(#225,#226),.UNSPECIFIED.,.F.,.F.,(2,2),(0.00000000000000000E0,1.00000000000000000E0),.UNSPECIFIED.);
#228=DEFINITIONAL_REPRESENTATION('',(#227),#119);
#229=PCURVE('',#49,#228);
#230=CARTESIAN_POINT('',(1.00000000000000000E0,0.00000000000000000E0));
#231=CARTESIAN_POINT('',(1.00000000000000000E0,1.00000000000000000E0));
#232=B_SPLINE_CURVE_WITH_KNOTS('',1,(#230,#231),.UNSPECIFIED.,.F.,.F.,(2,2),(0.00000000000000000E0,1.00000000000000000E0),.UNSPECIFIED.);
#233=DEFINITIONAL_REPRESENTATION('',(#232),#119);
#234=PCURVE('',#49,#233);
#235=CARTESIAN_POINT('',(1.00000000000000000E0,1.00000000000000000E0));
#236=CARTESIAN_POINT('',(0.00000000000000000E0,1.00000000000000000E0));
#237=B_SPLINE_CURVE_WITH_KNOTS('',1,(#235,#236),.UNSPECIFIED.,.F.,.F.,(2,2),(0.00000000000000000E0,1.00000000000000000E0),.UNSPECIFIED.);
#238=DEFINITIONAL_REPRESENTATION('',(#237),#119);
#239=PCURVE('',#49,#238);
#240=CARTESIAN_POINT('',(1.00000000000000000E0,0.00000000000000000E0));
#241=CARTESIAN_POINT('',(1.00000000000000000E0,1.00000000000000000E0));
#242=B_SPLINE_CURVE_WITH_KNOTS('',1,(#240,#241),.UNSPECIFIED.,.F.,.F.,(2,2),(0.00000000000000000E0,1.00000000000000000E0),.UNSPECIFIED.);
#243=DEFINITIONAL_REPRESENTATION('',(#242),#119);
#244=PCURVE('',#54,#243);
#245=CARTESIAN_POINT('',(1.00000000000000000E0,1.00000000000000000E0));
#246=CARTESIAN_POINT('',(0.00000000000000000E0,1.00000000000000000E0));
#247=B_SPLINE_CURVE_WITH_KNOTS('',1,(#245,#246),.UNSPECIFIED.,.F.,.F.,(2,2),(0.00000000000000000E0,1.00000000000000000E0),.UNSPECIFIED.);
#248=DEFINITIONAL_REPRESENTATION('',(#247),#119);
#249=PCURVE('',#54,#248);
#250=CARTESIAN_POINT('',(0.00000000000000000E0,1.00000000000000000E0));
#251=CARTESIAN_POINT('',(0.00000000000000000E0,0.00000000000000000E0));
#252=B_SPLINE_CURVE_WITH_KNOTS('',1,(#250,#251),.UNSPECIFIED.,.F.,.F.,(2,2),(0.00000000000000000E0,1.00000000000000000E0),.UNSPECIFIED.);
#253=DEFINITIONAL_REPRESENTATION('',(#252),#119);
#254=PCURVE('',#54,#253);
#255=CARTESIAN_POINT('',(0.00000000000000000E0,0.00000000000000000E0));
#256=CARTESIAN_POINT('',(1.00000000000000000E0,0.00000000000000000E0));
#257=B_SPLINE_CURVE_WITH_KNOTS('',1,(#255,#256),.UNSPECIFIED.,.F.,.F.,(2,2),(0.00000000000000000E0,1.00000000000000000E0),.UNSPECIFIED.);
#258=DEFINITIONAL_REPRESENTATION('',(#257),#119);
#259=PCURVE('',#54,#258);
#260=CARTESIAN_POINT('',(0.00000000000000000E0,1.00000000000000000E0));
#261=CARTESIAN_POINT('',(0.00000000000000000E0,0.00000000000000000E0));
#262=B_SPLINE_CURVE_WITH_KNOTS('',1,(#260,#261),.UNSPECIFIED.,.F.,.F.,(2,2),(0.00000000000000000E0,1.00000000000000000E0),.UNSPECIFIED.);
#263=DEFINITIONAL_REPRESENTATION('',(#262),#119);
#264=PCURVE('',#59,#263);
#265=CARTESIAN_POINT('',(0.00000000000000000E0,0.00000000000000000E0));
#266=CARTESIAN_POINT('',(1.00000000000000000E0,0.00000000000000000E0));
#267=B_SPLINE_CURVE_WITH_KNOTS('',1,(#265,#266),.UNSPECIFIED.,.F.,.F.,(2,2),(0.00000000000000000E0,1.00000000000000000E0),.UNSPECIFIED.);
#268=DEFINITIONAL_REPRESENTATION('',(#267),#119);
#269=PCURVE('',#59,#268);
#270=CARTESIAN_POINT('',(1.00000000000000000E0,0.00000000000000000E0));
#271=CARTESIAN_POINT('',(1.00000000000000000E0,1.00000000000000000E0));
#272=B_SPLINE_CURVE_WITH_KNOTS('',1,(#270,#271),.UNSPECIFIED.,.F.,.F.,(2,2),(0.00000000000000000E0,1.00000000000000000E0),.UNSPECIFIED.);
#273=DEFINITIONAL_REPRESENTATION('',(#272),#119);
#274=PCURVE('',#59,#273);
#275=CARTESIAN_POINT('',(1.00000000000000000E0,1.00000000000000000E0));
#276=CARTESIAN_POINT('',(0.00000000000000000E0,1.00000000000000000E0));
#277=B_SPLINE_CURVE_WITH_KNOTS('',1,(#275,#276),.UNSPECIFIED.,.F.,.F.,(2,2),(0.00000000000000000E0,1.00000000000000000E0),.UNSPECIFIED.);
#278=DEFINITIONAL_REPRESENTATION('',(#277),#119);
#279=PCURVE('',#59,#278);
#280=CARTESIAN_POINT('',(0.00000000000000000E0,1.00000000000000000E0));
#281=CARTESIAN_POINT('',(0.00000000000000000E0,0.00000000000000000E0));
#282=B_SPLINE_CURVE_WITH_KNOTS('',1,(#280,#281),.UNSPECIFIED.,.F.,.F.,(2,2),(0.00000000000000000E0,1.00000000000000000E0),.UNSPECIFIED.);
#283=DEFINITIONAL_REPRESENTATION('',(#282),#119);
#284=PCURVE('',#64,#283);
#285=CARTESIAN_POINT('',(0.00000000000000000E0,0.00000000000000000E0));
#286=CARTESIAN_POINT('',(1.00000000000000000E0,0.00000000000000000E0));
#287=B_SPLINE_CURVE_WITH_KNOTS('',1,(#285,#286),.UNSPECIFIED.,.F.,.F.,(2,2),(0.00000000000000000E0,1.00000000000000000E0),.UNSPECIFIED.);
#288=DEFINITIONAL_REPRESENTATION('',(#287),#119);
#289=PCURVE('',#64,#288);
#290=CARTESIAN_POINT('',(1.00000000000000000E0,0.00000000000000000E0));
#291=CARTESIAN_POINT('',(1.00000000000000000E0,1.00000000000000000E0));
#292=B_SPLINE_CURVE_WITH_KNOTS('',1,(#290,#291),.UNSPECIFIED.,.F.,.F.,(2,2),(0.00000000000000000E0,1.00000000000000000E0),.UNSPECIFIED.);
#293=DEFINITIONAL_REPRESENTATION('',(#292),#119);
#294=PCURVE('',#64,#293);
#295=CARTESIAN_POINT('',(1.00000000000000000E0,1.00000000000000000E0));
#296=CARTESIAN_POINT('',(0.00000000000000000E0,1.00000000000000000E0));
#297=B_SPLINE_CURVE_WITH_KNOTS('',1,(#295,#296),.UNSPECIFIED.,.F.,.F.,(2,2),(0.00000000000000000E0,1.00000000000000000E0),.UNSPECIFIED.);
#298=DEFINITIONAL_REPRESENTATION('',(#297),#119);
#299=PCURVE('',#64,#298);
#300=SURFACE_CURVE('',#67,(#124,#264),.PCURVE_S1.);
#301=EDGE_CURVE('OSCAD_TOPO/3|edge|e:cf16f7ca6be4fe7530fc02911665f845|529946491d6bb922fa9905bbcf1a9b03be708cec15ca621e84ea134c7c54e599',#2,#4,#300,.T.);
#302=SURFACE_CURVE('',#70,(#129,#244),.PCURVE_S1.);
#303=EDGE_CURVE('OSCAD_TOPO/3|edge|e:b5d4054bca82824b464346a5de8df181|7a911c233536745f90baa0d027012770de0db1ab341771b296b91b450938973a',#4,#6,#302,.T.);
#304=SURFACE_CURVE('',#73,(#134,#224),.PCURVE_S1.);
#305=EDGE_CURVE('OSCAD_TOPO/3|edge|e:e527cd27034b91349bd579f7801b5ae2|37761922cedac1bb9650b883f3b5a634bac16791481d2585f181b78d7cd8d4e7',#6,#8,#304,.T.);
#306=SURFACE_CURVE('',#76,(#139,#204),.PCURVE_S1.);
#307=EDGE_CURVE('OSCAD_TOPO/3|edge|e:2ace2aa4caa2fa749c8498dab297676a|580e75938161526e4d44f8507a00eaf66b50ac44619ed625a1135e432048cf7d',#8,#10,#306,.T.);
#308=SURFACE_CURVE('',#79,(#144,#184),.PCURVE_S1.);
#309=EDGE_CURVE('OSCAD_TOPO/3|edge|e:0f902b5a3903040a675e214364fcd0d0|5baa9724cdfb09fd261c480cd5622fdfde23e016810dedfe52eb6000ead31b41',#10,#12,#308,.T.);
#310=SURFACE_CURVE('',#82,(#149,#284),.PCURVE_S1.);
#311=EDGE_CURVE('OSCAD_TOPO/3|edge|e:36b56d211abc5e8dc1a4c1b0f67c9844|18941428820e70a33c03eb096b3ce7608ecd6a446c7198ec8142f0a6b6800289',#2,#12,#310,.T.);
#312=SURFACE_CURVE('',#85,(#154,#194),.PCURVE_S1.);
#313=EDGE_CURVE('OSCAD_TOPO/3|edge|e:82aac6f56a9a32c8e78076d66e8f9417|4d6da7b1c459c667c330cbdde3c6273e0725eb31b6312b7b6301c7426162a7c3',#14,#16,#312,.T.);
#314=SURFACE_CURVE('',#88,(#159,#214),.PCURVE_S1.);
#315=EDGE_CURVE('OSCAD_TOPO/3|edge|e:f7a5c33d132edbb9b1bc150b60996220|36118f377a8e9f018b9551eadc75ec63391516b3d34ff4cd88e195b07ea162c3',#16,#18,#314,.T.);
#316=SURFACE_CURVE('',#91,(#164,#234),.PCURVE_S1.);
#317=EDGE_CURVE('OSCAD_TOPO/3|edge|e:df2ad887ef436a518cd09e92b0cde99f|d81fd897ca14a51d6d09ed86d5e467396d0df0d48fc761747d5bc2069a89208b',#18,#20,#316,.T.);
#318=SURFACE_CURVE('',#94,(#169,#254),.PCURVE_S1.);
#319=EDGE_CURVE('OSCAD_TOPO/3|edge|e:189e8458a491d534406ba268ef7119d0|020bce6affa08ae21413b503c309be67e53ce3a8789d7f3f4489ba31194eb895',#20,#22,#318,.T.);
#320=SURFACE_CURVE('',#97,(#174,#274),.PCURVE_S1.);
#321=EDGE_CURVE('OSCAD_TOPO/3|edge|e:e45eb073cc8425c73471ab45be9bb6a9|53bcc01226204e94ef25196aedab6f74147312a4a9666cc13804a3e18d9935f4',#22,#24,#320,.T.);
#322=SURFACE_CURVE('',#100,(#179,#294),.PCURVE_S1.);
#323=EDGE_CURVE('OSCAD_TOPO/3|edge|e:c49035a7ec4f9a4b0a20be060e0cea48|a52249958249735dbddb777a772dd496af69249259dd2c79f7e53e93953a61e8',#14,#24,#322,.T.);
#324=SURFACE_CURVE('',#103,(#189,#219),.PCURVE_S1.);
#325=EDGE_CURVE('OSCAD_TOPO/3|edge|e:4ef213fb11107aa3d928746296901478|fd36ecfb7ec0b9c7a538ead30e8b24e0455bd9fc1cb19a418ee5d1c089374c1e',#10,#16,#324,.T.);
#326=SURFACE_CURVE('',#106,(#199,#289),.PCURVE_S1.);
#327=EDGE_CURVE('OSCAD_TOPO/3|edge|e:bfe5387cc0cac0ec8e9944a75a395404|211e54ec3e18572d2a80b81e0905d6c7d5db0819b2af62b27a027863e379cab1',#12,#14,#326,.T.);
#328=SURFACE_CURVE('',#109,(#209,#239),.PCURVE_S1.);
#329=EDGE_CURVE('OSCAD_TOPO/3|edge|e:f4ab4a13bae1de4eee1f51ad2638cd13|e080983d002a4755104a6c66993f193d0483f6d333a7326240123165ba11ef09',#8,#18,#328,.T.);
#330=SURFACE_CURVE('',#112,(#229,#259),.PCURVE_S1.);
#331=EDGE_CURVE('OSCAD_TOPO/3|edge|e:351db38a07ff71ad97e12bf668c99d8f|8b7a993d39e7f2c69408520e157207c1849dc15d6b2c4ab4830eea0a59b27e09',#6,#20,#330,.T.);
#332=SURFACE_CURVE('',#115,(#249,#279),.PCURVE_S1.);
#333=EDGE_CURVE('OSCAD_TOPO/3|edge|e:2bced691dd27d715755bbf6bb69766d7|25f77329adf7fd13af744067a58e06d5b394429bb83bdf08aad001d1140fde7c',#4,#22,#332,.T.);
#334=SURFACE_CURVE('',#118,(#269,#299),.PCURVE_S1.);
#335=EDGE_CURVE('OSCAD_TOPO/3|edge|e:fe234849e71c24cf72d4bf2c1812f86f|da11cb79c145c2c90c81f2c1d18b2c228deba527c5f7385038dddea4d87746a1',#2,#24,#334,.T.);
#336=ORIENTED_EDGE('',*,*,#301,.T.);
#337=ORIENTED_EDGE('',*,*,#303,.T.);
#338=ORIENTED_EDGE('',*,*,#305,.T.);
#339=ORIENTED_EDGE('',*,*,#307,.T.);
#340=ORIENTED_EDGE('',*,*,#309,.T.);
#341=ORIENTED_EDGE('',*,*,#311,.F.);
#342=EDGE_LOOP('OSCAD_TOPO/3|loop|l:bc8ac76fdcabcd014e514656548766d3|ace454e43062015c54b8f4e0f3380dadb1131d555cc3bd741b74c13b5b535740',(#336,#337,#338,#339,#340,#341));
#343=ORIENTED_EDGE('',*,*,#313,.T.);
#344=ORIENTED_EDGE('',*,*,#315,.T.);
#345=ORIENTED_EDGE('',*,*,#317,.T.);
#346=ORIENTED_EDGE('',*,*,#319,.T.);
#347=ORIENTED_EDGE('',*,*,#321,.T.);
#348=ORIENTED_EDGE('',*,*,#323,.F.);
#349=EDGE_LOOP('OSCAD_TOPO/3|loop|l:b564a1a915bc69feb822476102e207fd|c39a7fd2cb5973630a7fb2c30dd321b93311075d575242c2ccc4f2a7c8d643ad',(#343,#344,#345,#346,#347,#348));
#350=ORIENTED_EDGE('',*,*,#309,.F.);
#351=ORIENTED_EDGE('',*,*,#325,.T.);
#352=ORIENTED_EDGE('',*,*,#313,.F.);
#353=ORIENTED_EDGE('',*,*,#327,.F.);
#354=EDGE_LOOP('OSCAD_TOPO/3|loop|l:8d20b5f99785735df074cba0aa631320|009fbea2c75d5fc1c791503572571e7219c83a22458f85abae8e2f5b8862d1b0',(#350,#351,#352,#353));
#355=ORIENTED_EDGE('',*,*,#307,.F.);
#356=ORIENTED_EDGE('',*,*,#329,.T.);
#357=ORIENTED_EDGE('',*,*,#315,.F.);
#358=ORIENTED_EDGE('',*,*,#325,.F.);
#359=EDGE_LOOP('OSCAD_TOPO/3|loop|l:e294d9cc560d4579f89e4f46cb64673e|6f1ed18f9818b40cd954626da2c7235df1d2aadbe7520611fc1dfebb2fa895eb',(#355,#356,#357,#358));
#360=ORIENTED_EDGE('',*,*,#305,.F.);
#361=ORIENTED_EDGE('',*,*,#331,.T.);
#362=ORIENTED_EDGE('',*,*,#317,.F.);
#363=ORIENTED_EDGE('',*,*,#329,.F.);
#364=EDGE_LOOP('OSCAD_TOPO/3|loop|l:bbaafe06c89ece18107d124a3b290d57|7531285d3661a80a056c93c2ea6ecb4e573f364a9f072a3e45e2a130b642db5f',(#360,#361,#362,#363));
#365=ORIENTED_EDGE('',*,*,#303,.F.);
#366=ORIENTED_EDGE('',*,*,#333,.T.);
#367=ORIENTED_EDGE('',*,*,#319,.F.);
#368=ORIENTED_EDGE('',*,*,#331,.F.);
#369=EDGE_LOOP('OSCAD_TOPO/3|loop|l:099cdb9a7b2f412a2ccfb8b640bd4b1c|8a16a430841100e401f3b940155dc309dbe04745a386f66f30098bc2b063e74f',(#365,#366,#367,#368));
#370=ORIENTED_EDGE('',*,*,#301,.F.);
#371=ORIENTED_EDGE('',*,*,#335,.T.);
#372=ORIENTED_EDGE('',*,*,#321,.F.);
#373=ORIENTED_EDGE('',*,*,#333,.F.);
#374=EDGE_LOOP('OSCAD_TOPO/3|loop|l:bdb5f0e11d009f7bd0d2810175685a7a|3339242aed86fe31837dd1558c791f122721c0a65db2deb64fd3e9012dfffe98',(#370,#371,#372,#373));
#375=ORIENTED_EDGE('',*,*,#311,.T.);
#376=ORIENTED_EDGE('',*,*,#327,.T.);
#377=ORIENTED_EDGE('',*,*,#323,.T.);
#378=ORIENTED_EDGE('',*,*,#335,.F.);
#379=EDGE_LOOP('OSCAD_TOPO/3|loop|l:a63631e1b6852273746356dc3422aa07|3d9453bafb3a3ccb9887a1a7f615869fae65f5310d0a5c62455dc6083bd5d789',(#375,#376,#377,#378));
#380=FACE_OUTER_BOUND('',#342,.T.);
#381=ADVANCED_FACE('OSCAD_TOPO/3|face|f:6d1ac7e1a765958d603c6c42cb7d7a58|25b8be5f7fc629deccb8057bd6a530d723a41de241eb395a7700cd6476d05056',(#380),#29,.T.);
#382=FACE_OUTER_BOUND('',#349,.T.);
#383=ADVANCED_FACE('OSCAD_TOPO/3|face|f:c064b76185f24914abfbd81487e10bd2|35f2a6caf03c0265c7fbbe8b0c923620c79fbed93e359f3692346cb0f0d681f9',(#382),#34,.T.);
#384=FACE_OUTER_BOUND('',#354,.T.);
#385=ADVANCED_FACE('OSCAD_TOPO/3|face|f:ceb2d32f071dfc5d38ef7ea52df5bb67|829a77c17b366956d650bd1bdd14cd5da7c137dda6043ab57fc53e2fa0a7f2e6',(#384),#39,.T.);
#386=FACE_OUTER_BOUND('',#359,.T.);
#387=ADVANCED_FACE('OSCAD_TOPO/3|face|f:3e91d4af59819dfd99bd14d80a749afc|2fe5bf3763699c39c7dc4886aa07071c398a22a105301557f22506853822f3a6',(#386),#44,.T.);
#388=FACE_OUTER_BOUND('',#364,.T.);
#389=ADVANCED_FACE('OSCAD_TOPO/3|face|f:d9011c43f2eda9fc589640495d96b5d6|9221a0651114d69845f56372fe19a5d99391ef6b54edc03686a75eaf3016fa94',(#388),#49,.T.);
#390=FACE_OUTER_BOUND('',#369,.T.);
#391=ADVANCED_FACE('OSCAD_TOPO/3|face|f:4b7b9f234e400c6feea66a23b0d91f46|7b4a722e9f200ce858e34a21bc57c44381cb57e21981240be11f54e564c17864',(#390),#54,.T.);
#392=FACE_OUTER_BOUND('',#374,.T.);
#393=ADVANCED_FACE('OSCAD_TOPO/3|face|f:e0171dbf4c261f4168dd85bc4422a7ca|943ef725c1df564efd87b7ec773b335a44ef93541a72305d3dcb3ad885654faa',(#392),#59,.T.);
#394=FACE_OUTER_BOUND('',#379,.T.);
#395=ADVANCED_FACE('OSCAD_TOPO/3|face|f:d7a79c2ebe17e865a3b56c30fb54ffc9|935bf5fdeebd22e3c460fd30cdafac141a2af6ac0e729aeade40580adbad3b97',(#394),#64,.T.);
#396=CLOSED_SHELL('OSCAD_TOPO/3|shell|s:6f2d26e52287138ec136d00ef646d01f|8809c364dbce45db692420b143fe998809974b64247fbbca44dfd7c6e90170a1',(#381,#395,#383,#385,#387,#389,#391,#393));
#397=MANIFOLD_SOLID_BREP('OSCAD_TOPO/3|body|b:4b6c058ff34be4f24d8b7e86dcffcc77|10dab6aedb65d731847e32519fc73059b009ea7e9bbdcf98fa4cb68304942a4e',#396);
#398=(LENGTH_UNIT()NAMED_UNIT(*)SI_UNIT(.CENTI.,.METRE.));
#399=UNCERTAINTY_MEASURE_WITH_UNIT(LENGTH_MEASURE(9.99999999999999955E-8),#398,'distance_accuracy_value','');
#400=(GEOMETRIC_REPRESENTATION_CONTEXT(3)GLOBAL_UNCERTAINTY_ASSIGNED_CONTEXT((#399))GLOBAL_UNIT_ASSIGNED_CONTEXT((#398))REPRESENTATION_CONTEXT('','3D'));
#401=ADVANCED_BREP_SHAPE_REPRESENTATION('',(#397),#400);
#402=APPLICATION_CONTEXT('managed model based 3d engineering');
#403=PRODUCT_CONTEXT('',#402,'mechanical');
#404=PRODUCT('model','model','',(#403));
#405=PRODUCT_DEFINITION_FORMATION('1','',#404);
#406=PRODUCT_DEFINITION_CONTEXT('part definition',#402,'design');
#407=PRODUCT_DEFINITION('design','',#405,#406);
#408=PRODUCT_DEFINITION_SHAPE('','',#407);
#409=SHAPE_DEFINITION_REPRESENTATION(#408,#401);
ENDSEC;
END-ISO-10303-21;
