ISO-10303-21;
HEADER;
FILE_DESCRIPTION(('OpenSCAD Viewer retained AP242 B-rep'),'2;1');
FILE_NAME('model.step','',(''),(''),'OpenSCAD Viewer','OpenSCAD Viewer','');
FILE_SCHEMA(('AP242_MANAGED_MODEL_BASED_3D_ENGINEERING_MIM_LF'));
ENDSEC;
DATA;
#1=CARTESIAN_POINT('',(0.00000000000000000E0,0.00000000000000000E0,0.00000000000000000E0));
#2=VERTEX_POINT('OSCAD_TOPO/3|vertex|v:2301485b2aa5130a3ffa2c3d4ddce85f|191be695419e636e18cadbd25849313dc09d01169bcb85a989c23a0b6cf87b5c',#1);
#3=CARTESIAN_POINT('',(0.00000000000000000E0,3.00000000000000000E0,0.00000000000000000E0));
#4=VERTEX_POINT('OSCAD_TOPO/3|vertex|v:96619fa870a7f51b481b3e2ddb3a0b93|7fac6cadf4bba600b15015a2637eae2011a7aeb74f8dc6aeef5586ad17349a50',#3);
#5=CARTESIAN_POINT('',(2.00000000000000000E0,3.00000000000000000E0,0.00000000000000000E0));
#6=VERTEX_POINT('OSCAD_TOPO/3|vertex|v:15630187ca9558931ed7d631890faede|aaaa39f327d37f210dc7c7acff7b9f8041dd914a0f3bcd6922d381a29483ee09',#5);
#7=CARTESIAN_POINT('',(2.00000000000000000E0,0.00000000000000000E0,0.00000000000000000E0));
#8=VERTEX_POINT('OSCAD_TOPO/3|vertex|v:220e6fc475a9da38f53af60746604ed2|1dcac6380df9c51f2f20175abf4c52a78bcefb465c10760b4c3387485c81df72',#7);
#9=CARTESIAN_POINT('',(0.00000000000000000E0,0.00000000000000000E0,4.00000000000000000E0));
#10=VERTEX_POINT('OSCAD_TOPO/3|vertex|v:fcd89561da553c1324475310cc039099|0239b6db1bca62ddc3c4a809f79ae3c6a51d1b93eaca1d66b7e4996a0bfc1060',#9);
#11=CARTESIAN_POINT('',(2.00000000000000000E0,0.00000000000000000E0,4.00000000000000000E0));
#12=VERTEX_POINT('OSCAD_TOPO/3|vertex|v:a031a00b4920c2f64ef94214dfda953e|5d55a8b770721a4eacfff214cbc3c9bf1245b81fd12113031fd82058c88078c2',#11);
#13=CARTESIAN_POINT('',(2.00000000000000000E0,3.00000000000000000E0,4.00000000000000000E0));
#14=VERTEX_POINT('OSCAD_TOPO/3|vertex|v:608c5cbeb17b01b3d106d2b35656f52f|5a7184c6ef06dbdfffff8e57ce3a5adcf34e0ad840c980212ed40e260dada6e7',#13);
#15=CARTESIAN_POINT('',(0.00000000000000000E0,3.00000000000000000E0,4.00000000000000000E0));
#16=VERTEX_POINT('OSCAD_TOPO/3|vertex|v:2c72ff9c20f1b7350b74ed063e434a0e|454aa93e998f9407b93f8a5287800c98e816d6d06d52e5edae5b128fed5c01e7',#15);
#17=CARTESIAN_POINT('',(2.54000000000000000E2,0.00000000000000000E0,0.00000000000000000E0));
#18=VERTEX_POINT('OSCAD_TOPO/3|vertex|v:3249283c8e46293e2604e8b0f3f62027|c26732217ad5e26915210568884aa47b36cf22cff625f10dbc64f25f256dc276',#17);
#19=CARTESIAN_POINT('',(2.54000000000000000E2,7.61999999999999886E1,0.00000000000000000E0));
#20=VERTEX_POINT('OSCAD_TOPO/3|vertex|v:4cf3e5a00857d17d1fd5d48af25e9c07|0312ceaa57e163dae6a34e0a15ef34b1314e09f283868eeb118d085512a044ac',#19);
#21=CARTESIAN_POINT('',(3.04799999999999955E2,7.61999999999999886E1,0.00000000000000000E0));
#22=VERTEX_POINT('OSCAD_TOPO/3|vertex|v:b4890a4849884d46d9319dbd013c3646|0dc3126742feea6b6d2450d7c6f6a19beaba421ab47c9cc2a90156eb09148224',#21);
#23=CARTESIAN_POINT('',(3.04799999999999955E2,0.00000000000000000E0,0.00000000000000000E0));
#24=VERTEX_POINT('OSCAD_TOPO/3|vertex|v:419fd9307e70b30a3d083b1db7bc6848|65aa78c10edb7ee28491313f03583ea899d99efb7d9c779d366256094552d6a9',#23);
#25=CARTESIAN_POINT('',(2.54000000000000000E2,0.00000000000000000E0,1.02599999999999994E2));
#26=VERTEX_POINT('OSCAD_TOPO/3|vertex|v:a337278aadf3dd2432e8f24b142ad67a|ffa2b63d31481c6f4821ad5a26c77cf3de5756104ab8f78cdcdf43d5f2e203b7',#25);
#27=CARTESIAN_POINT('',(3.04799999999999955E2,0.00000000000000000E0,1.02599999999999994E2));
#28=VERTEX_POINT('OSCAD_TOPO/3|vertex|v:2d9c48732b666adc983da5a8212bc907|3d0fdde92eaba6472c8dc1b2e856d744418567b1dc12adae6fb3864b3463b8d6',#27);
#29=CARTESIAN_POINT('',(3.04799999999999955E2,7.61999999999999886E1,1.02599999999999994E2));
#30=VERTEX_POINT('OSCAD_TOPO/3|vertex|v:92b4a35b4f75002ed2fd4ed6f31d38bf|5284a8d2b5cb82e62208d9f73fe203d1e2dfd21b4d8cecae5e770e0ded304f45',#29);
#31=CARTESIAN_POINT('',(2.54000000000000000E2,7.61999999999999886E1,1.02599999999999994E2));
#32=VERTEX_POINT('OSCAD_TOPO/3|vertex|v:c6fc56cafb087b9212231953986189df|e17d4ffd2dbf376fa5f5644f7fd7b997febdac6596f78322f98fbdd0a1138165',#31);
#33=CARTESIAN_POINT('',(0.00000000000000000E0,0.00000000000000000E0,0.00000000000000000E0));
#34=CARTESIAN_POINT('',(2.00000000000000000E0,0.00000000000000000E0,0.00000000000000000E0));
#35=CARTESIAN_POINT('',(0.00000000000000000E0,3.00000000000000000E0,0.00000000000000000E0));
#36=CARTESIAN_POINT('',(2.00000000000000000E0,3.00000000000000000E0,0.00000000000000000E0));
#37=B_SPLINE_SURFACE_WITH_KNOTS('',1,1,((#33,#34),(#35,#36)),.UNSPECIFIED.,.F.,.F.,.F.,(2,2),(2,2),(0.00000000000000000E0,1.00000000000000000E0),(0.00000000000000000E0,1.00000000000000000E0),.UNSPECIFIED.);
#38=CARTESIAN_POINT('',(0.00000000000000000E0,0.00000000000000000E0,4.00000000000000000E0));
#39=CARTESIAN_POINT('',(0.00000000000000000E0,3.00000000000000000E0,4.00000000000000000E0));
#40=CARTESIAN_POINT('',(2.00000000000000000E0,0.00000000000000000E0,4.00000000000000000E0));
#41=CARTESIAN_POINT('',(2.00000000000000000E0,3.00000000000000000E0,4.00000000000000000E0));
#42=B_SPLINE_SURFACE_WITH_KNOTS('',1,1,((#38,#39),(#40,#41)),.UNSPECIFIED.,.F.,.F.,.F.,(2,2),(2,2),(0.00000000000000000E0,1.00000000000000000E0),(0.00000000000000000E0,1.00000000000000000E0),.UNSPECIFIED.);
#43=CARTESIAN_POINT('',(0.00000000000000000E0,0.00000000000000000E0,0.00000000000000000E0));
#44=CARTESIAN_POINT('',(0.00000000000000000E0,0.00000000000000000E0,4.00000000000000000E0));
#45=CARTESIAN_POINT('',(2.00000000000000000E0,0.00000000000000000E0,0.00000000000000000E0));
#46=CARTESIAN_POINT('',(2.00000000000000000E0,0.00000000000000000E0,4.00000000000000000E0));
#47=B_SPLINE_SURFACE_WITH_KNOTS('',1,1,((#43,#44),(#45,#46)),.UNSPECIFIED.,.F.,.F.,.F.,(2,2),(2,2),(0.00000000000000000E0,1.00000000000000000E0),(0.00000000000000000E0,1.00000000000000000E0),.UNSPECIFIED.);
#48=CARTESIAN_POINT('',(2.00000000000000000E0,0.00000000000000000E0,0.00000000000000000E0));
#49=CARTESIAN_POINT('',(2.00000000000000000E0,0.00000000000000000E0,4.00000000000000000E0));
#50=CARTESIAN_POINT('',(2.00000000000000000E0,3.00000000000000000E0,0.00000000000000000E0));
#51=CARTESIAN_POINT('',(2.00000000000000000E0,3.00000000000000000E0,4.00000000000000000E0));
#52=B_SPLINE_SURFACE_WITH_KNOTS('',1,1,((#48,#49),(#50,#51)),.UNSPECIFIED.,.F.,.F.,.F.,(2,2),(2,2),(0.00000000000000000E0,1.00000000000000000E0),(0.00000000000000000E0,1.00000000000000000E0),.UNSPECIFIED.);
#53=CARTESIAN_POINT('',(2.00000000000000000E0,3.00000000000000000E0,0.00000000000000000E0));
#54=CARTESIAN_POINT('',(2.00000000000000000E0,3.00000000000000000E0,4.00000000000000000E0));
#55=CARTESIAN_POINT('',(0.00000000000000000E0,3.00000000000000000E0,0.00000000000000000E0));
#56=CARTESIAN_POINT('',(0.00000000000000000E0,3.00000000000000000E0,4.00000000000000000E0));
#57=B_SPLINE_SURFACE_WITH_KNOTS('',1,1,((#53,#54),(#55,#56)),.UNSPECIFIED.,.F.,.F.,.F.,(2,2),(2,2),(0.00000000000000000E0,1.00000000000000000E0),(0.00000000000000000E0,1.00000000000000000E0),.UNSPECIFIED.);
#58=CARTESIAN_POINT('',(0.00000000000000000E0,3.00000000000000000E0,0.00000000000000000E0));
#59=CARTESIAN_POINT('',(0.00000000000000000E0,3.00000000000000000E0,4.00000000000000000E0));
#60=CARTESIAN_POINT('',(0.00000000000000000E0,0.00000000000000000E0,0.00000000000000000E0));
#61=CARTESIAN_POINT('',(0.00000000000000000E0,0.00000000000000000E0,4.00000000000000000E0));
#62=B_SPLINE_SURFACE_WITH_KNOTS('',1,1,((#58,#59),(#60,#61)),.UNSPECIFIED.,.F.,.F.,.F.,(2,2),(2,2),(0.00000000000000000E0,1.00000000000000000E0),(0.00000000000000000E0,1.00000000000000000E0),.UNSPECIFIED.);
#63=CARTESIAN_POINT('',(2.54000000000000000E2,0.00000000000000000E0,0.00000000000000000E0));
#64=CARTESIAN_POINT('',(3.04799999999999955E2,0.00000000000000000E0,0.00000000000000000E0));
#65=CARTESIAN_POINT('',(2.54000000000000000E2,7.61999999999999886E1,0.00000000000000000E0));
#66=CARTESIAN_POINT('',(3.04799999999999955E2,7.61999999999999886E1,0.00000000000000000E0));
#67=B_SPLINE_SURFACE_WITH_KNOTS('',1,1,((#63,#64),(#65,#66)),.UNSPECIFIED.,.F.,.F.,.F.,(2,2),(2,2),(0.00000000000000000E0,1.00000000000000000E0),(0.00000000000000000E0,1.00000000000000000E0),.UNSPECIFIED.);
#68=CARTESIAN_POINT('',(2.54000000000000000E2,0.00000000000000000E0,1.02599999999999994E2));
#69=CARTESIAN_POINT('',(2.54000000000000000E2,7.61999999999999886E1,1.02599999999999994E2));
#70=CARTESIAN_POINT('',(3.04799999999999955E2,0.00000000000000000E0,1.02599999999999994E2));
#71=CARTESIAN_POINT('',(3.04799999999999955E2,7.61999999999999886E1,1.02599999999999994E2));
#72=B_SPLINE_SURFACE_WITH_KNOTS('',1,1,((#68,#69),(#70,#71)),.UNSPECIFIED.,.F.,.F.,.F.,(2,2),(2,2),(0.00000000000000000E0,1.00000000000000000E0),(0.00000000000000000E0,1.00000000000000000E0),.UNSPECIFIED.);
#73=CARTESIAN_POINT('',(2.54000000000000000E2,0.00000000000000000E0,0.00000000000000000E0));
#74=CARTESIAN_POINT('',(2.54000000000000000E2,0.00000000000000000E0,1.02599999999999994E2));
#75=CARTESIAN_POINT('',(3.04799999999999955E2,0.00000000000000000E0,0.00000000000000000E0));
#76=CARTESIAN_POINT('',(3.04799999999999955E2,0.00000000000000000E0,1.02599999999999994E2));
#77=B_SPLINE_SURFACE_WITH_KNOTS('',1,1,((#73,#74),(#75,#76)),.UNSPECIFIED.,.F.,.F.,.F.,(2,2),(2,2),(0.00000000000000000E0,1.00000000000000000E0),(0.00000000000000000E0,1.00000000000000000E0),.UNSPECIFIED.);
#78=CARTESIAN_POINT('',(3.04799999999999955E2,0.00000000000000000E0,0.00000000000000000E0));
#79=CARTESIAN_POINT('',(3.04799999999999955E2,0.00000000000000000E0,1.02599999999999994E2));
#80=CARTESIAN_POINT('',(3.04799999999999955E2,7.61999999999999886E1,0.00000000000000000E0));
#81=CARTESIAN_POINT('',(3.04799999999999955E2,7.61999999999999886E1,1.02599999999999994E2));
#82=B_SPLINE_SURFACE_WITH_KNOTS('',1,1,((#78,#79),(#80,#81)),.UNSPECIFIED.,.F.,.F.,.F.,(2,2),(2,2),(0.00000000000000000E0,1.00000000000000000E0),(0.00000000000000000E0,1.00000000000000000E0),.UNSPECIFIED.);
#83=CARTESIAN_POINT('',(3.04799999999999955E2,7.61999999999999886E1,0.00000000000000000E0));
#84=CARTESIAN_POINT('',(3.04799999999999955E2,7.61999999999999886E1,1.02599999999999994E2));
#85=CARTESIAN_POINT('',(2.54000000000000000E2,7.61999999999999886E1,0.00000000000000000E0));
#86=CARTESIAN_POINT('',(2.54000000000000000E2,7.61999999999999886E1,1.02599999999999994E2));
#87=B_SPLINE_SURFACE_WITH_KNOTS('',1,1,((#83,#84),(#85,#86)),.UNSPECIFIED.,.F.,.F.,.F.,(2,2),(2,2),(0.00000000000000000E0,1.00000000000000000E0),(0.00000000000000000E0,1.00000000000000000E0),.UNSPECIFIED.);
#88=CARTESIAN_POINT('',(2.54000000000000000E2,7.61999999999999886E1,0.00000000000000000E0));
#89=CARTESIAN_POINT('',(2.54000000000000000E2,7.61999999999999886E1,1.02599999999999994E2));
#90=CARTESIAN_POINT('',(2.54000000000000000E2,0.00000000000000000E0,0.00000000000000000E0));
#91=CARTESIAN_POINT('',(2.54000000000000000E2,0.00000000000000000E0,1.02599999999999994E2));
#92=B_SPLINE_SURFACE_WITH_KNOTS('',1,1,((#88,#89),(#90,#91)),.UNSPECIFIED.,.F.,.F.,.F.,(2,2),(2,2),(0.00000000000000000E0,1.00000000000000000E0),(0.00000000000000000E0,1.00000000000000000E0),.UNSPECIFIED.);
#93=CARTESIAN_POINT('',(0.00000000000000000E0,0.00000000000000000E0,0.00000000000000000E0));
#94=CARTESIAN_POINT('',(0.00000000000000000E0,3.00000000000000000E0,0.00000000000000000E0));
#95=B_SPLINE_CURVE_WITH_KNOTS('',1,(#93,#94),.UNSPECIFIED.,.F.,.F.,(2,2),(0.00000000000000000E0,1.00000000000000000E0),.UNSPECIFIED.);
#96=CARTESIAN_POINT('',(2.00000000000000000E0,3.00000000000000000E0,0.00000000000000000E0));
#97=CARTESIAN_POINT('',(0.00000000000000000E0,3.00000000000000000E0,0.00000000000000000E0));
#98=B_SPLINE_CURVE_WITH_KNOTS('',1,(#96,#97),.UNSPECIFIED.,.F.,.F.,(2,2),(0.00000000000000000E0,1.00000000000000000E0),.UNSPECIFIED.);
#99=CARTESIAN_POINT('',(2.00000000000000000E0,0.00000000000000000E0,0.00000000000000000E0));
#100=CARTESIAN_POINT('',(2.00000000000000000E0,3.00000000000000000E0,0.00000000000000000E0));
#101=B_SPLINE_CURVE_WITH_KNOTS('',1,(#99,#100),.UNSPECIFIED.,.F.,.F.,(2,2),(0.00000000000000000E0,1.00000000000000000E0),.UNSPECIFIED.);
#102=CARTESIAN_POINT('',(0.00000000000000000E0,0.00000000000000000E0,0.00000000000000000E0));
#103=CARTESIAN_POINT('',(2.00000000000000000E0,0.00000000000000000E0,0.00000000000000000E0));
#104=B_SPLINE_CURVE_WITH_KNOTS('',1,(#102,#103),.UNSPECIFIED.,.F.,.F.,(2,2),(0.00000000000000000E0,1.00000000000000000E0),.UNSPECIFIED.);
#105=CARTESIAN_POINT('',(0.00000000000000000E0,0.00000000000000000E0,4.00000000000000000E0));
#106=CARTESIAN_POINT('',(2.00000000000000000E0,0.00000000000000000E0,4.00000000000000000E0));
#107=B_SPLINE_CURVE_WITH_KNOTS('',1,(#105,#106),.UNSPECIFIED.,.F.,.F.,(2,2),(0.00000000000000000E0,1.00000000000000000E0),.UNSPECIFIED.);
#108=CARTESIAN_POINT('',(2.00000000000000000E0,0.00000000000000000E0,4.00000000000000000E0));
#109=CARTESIAN_POINT('',(2.00000000000000000E0,3.00000000000000000E0,4.00000000000000000E0));
#110=B_SPLINE_CURVE_WITH_KNOTS('',1,(#108,#109),.UNSPECIFIED.,.F.,.F.,(2,2),(0.00000000000000000E0,1.00000000000000000E0),.UNSPECIFIED.);
#111=CARTESIAN_POINT('',(2.00000000000000000E0,3.00000000000000000E0,4.00000000000000000E0));
#112=CARTESIAN_POINT('',(0.00000000000000000E0,3.00000000000000000E0,4.00000000000000000E0));
#113=B_SPLINE_CURVE_WITH_KNOTS('',1,(#111,#112),.UNSPECIFIED.,.F.,.F.,(2,2),(0.00000000000000000E0,1.00000000000000000E0),.UNSPECIFIED.);
#114=CARTESIAN_POINT('',(0.00000000000000000E0,0.00000000000000000E0,4.00000000000000000E0));
#115=CARTESIAN_POINT('',(0.00000000000000000E0,3.00000000000000000E0,4.00000000000000000E0));
#116=B_SPLINE_CURVE_WITH_KNOTS('',1,(#114,#115),.UNSPECIFIED.,.F.,.F.,(2,2),(0.00000000000000000E0,1.00000000000000000E0),.UNSPECIFIED.);
#117=CARTESIAN_POINT('',(2.00000000000000000E0,0.00000000000000000E0,0.00000000000000000E0));
#118=CARTESIAN_POINT('',(2.00000000000000000E0,0.00000000000000000E0,4.00000000000000000E0));
#119=B_SPLINE_CURVE_WITH_KNOTS('',1,(#117,#118),.UNSPECIFIED.,.F.,.F.,(2,2),(0.00000000000000000E0,1.00000000000000000E0),.UNSPECIFIED.);
#120=CARTESIAN_POINT('',(0.00000000000000000E0,0.00000000000000000E0,0.00000000000000000E0));
#121=CARTESIAN_POINT('',(0.00000000000000000E0,0.00000000000000000E0,4.00000000000000000E0));
#122=B_SPLINE_CURVE_WITH_KNOTS('',1,(#120,#121),.UNSPECIFIED.,.F.,.F.,(2,2),(0.00000000000000000E0,1.00000000000000000E0),.UNSPECIFIED.);
#123=CARTESIAN_POINT('',(2.00000000000000000E0,3.00000000000000000E0,0.00000000000000000E0));
#124=CARTESIAN_POINT('',(2.00000000000000000E0,3.00000000000000000E0,4.00000000000000000E0));
#125=B_SPLINE_CURVE_WITH_KNOTS('',1,(#123,#124),.UNSPECIFIED.,.F.,.F.,(2,2),(0.00000000000000000E0,1.00000000000000000E0),.UNSPECIFIED.);
#126=CARTESIAN_POINT('',(0.00000000000000000E0,3.00000000000000000E0,0.00000000000000000E0));
#127=CARTESIAN_POINT('',(0.00000000000000000E0,3.00000000000000000E0,4.00000000000000000E0));
#128=B_SPLINE_CURVE_WITH_KNOTS('',1,(#126,#127),.UNSPECIFIED.,.F.,.F.,(2,2),(0.00000000000000000E0,1.00000000000000000E0),.UNSPECIFIED.);
#129=CARTESIAN_POINT('',(2.54000000000000000E2,0.00000000000000000E0,0.00000000000000000E0));
#130=CARTESIAN_POINT('',(2.54000000000000000E2,7.61999999999999886E1,0.00000000000000000E0));
#131=B_SPLINE_CURVE_WITH_KNOTS('',1,(#129,#130),.UNSPECIFIED.,.F.,.F.,(2,2),(0.00000000000000000E0,1.00000000000000000E0),.UNSPECIFIED.);
#132=CARTESIAN_POINT('',(3.04799999999999955E2,7.61999999999999886E1,0.00000000000000000E0));
#133=CARTESIAN_POINT('',(2.54000000000000000E2,7.61999999999999886E1,0.00000000000000000E0));
#134=B_SPLINE_CURVE_WITH_KNOTS('',1,(#132,#133),.UNSPECIFIED.,.F.,.F.,(2,2),(0.00000000000000000E0,1.00000000000000000E0),.UNSPECIFIED.);
#135=CARTESIAN_POINT('',(3.04799999999999955E2,0.00000000000000000E0,0.00000000000000000E0));
#136=CARTESIAN_POINT('',(3.04799999999999955E2,7.61999999999999886E1,0.00000000000000000E0));
#137=B_SPLINE_CURVE_WITH_KNOTS('',1,(#135,#136),.UNSPECIFIED.,.F.,.F.,(2,2),(0.00000000000000000E0,1.00000000000000000E0),.UNSPECIFIED.);
#138=CARTESIAN_POINT('',(2.54000000000000000E2,0.00000000000000000E0,0.00000000000000000E0));
#139=CARTESIAN_POINT('',(3.04799999999999955E2,0.00000000000000000E0,0.00000000000000000E0));
#140=B_SPLINE_CURVE_WITH_KNOTS('',1,(#138,#139),.UNSPECIFIED.,.F.,.F.,(2,2),(0.00000000000000000E0,1.00000000000000000E0),.UNSPECIFIED.);
#141=CARTESIAN_POINT('',(2.54000000000000000E2,0.00000000000000000E0,1.02599999999999994E2));
#142=CARTESIAN_POINT('',(3.04799999999999955E2,0.00000000000000000E0,1.02599999999999994E2));
#143=B_SPLINE_CURVE_WITH_KNOTS('',1,(#141,#142),.UNSPECIFIED.,.F.,.F.,(2,2),(0.00000000000000000E0,1.00000000000000000E0),.UNSPECIFIED.);
#144=CARTESIAN_POINT('',(3.04799999999999955E2,0.00000000000000000E0,1.02599999999999994E2));
#145=CARTESIAN_POINT('',(3.04799999999999955E2,7.61999999999999886E1,1.02599999999999994E2));
#146=B_SPLINE_CURVE_WITH_KNOTS('',1,(#144,#145),.UNSPECIFIED.,.F.,.F.,(2,2),(0.00000000000000000E0,1.00000000000000000E0),.UNSPECIFIED.);
#147=CARTESIAN_POINT('',(3.04799999999999955E2,7.61999999999999886E1,1.02599999999999994E2));
#148=CARTESIAN_POINT('',(2.54000000000000000E2,7.61999999999999886E1,1.02599999999999994E2));
#149=B_SPLINE_CURVE_WITH_KNOTS('',1,(#147,#148),.UNSPECIFIED.,.F.,.F.,(2,2),(0.00000000000000000E0,1.00000000000000000E0),.UNSPECIFIED.);
#150=CARTESIAN_POINT('',(2.54000000000000000E2,0.00000000000000000E0,1.02599999999999994E2));
#151=CARTESIAN_POINT('',(2.54000000000000000E2,7.61999999999999886E1,1.02599999999999994E2));
#152=B_SPLINE_CURVE_WITH_KNOTS('',1,(#150,#151),.UNSPECIFIED.,.F.,.F.,(2,2),(0.00000000000000000E0,1.00000000000000000E0),.UNSPECIFIED.);
#153=CARTESIAN_POINT('',(3.04799999999999955E2,0.00000000000000000E0,0.00000000000000000E0));
#154=CARTESIAN_POINT('',(3.04799999999999955E2,0.00000000000000000E0,1.02599999999999994E2));
#155=B_SPLINE_CURVE_WITH_KNOTS('',1,(#153,#154),.UNSPECIFIED.,.F.,.F.,(2,2),(0.00000000000000000E0,1.00000000000000000E0),.UNSPECIFIED.);
#156=CARTESIAN_POINT('',(2.54000000000000000E2,0.00000000000000000E0,0.00000000000000000E0));
#157=CARTESIAN_POINT('',(2.54000000000000000E2,0.00000000000000000E0,1.02599999999999994E2));
#158=B_SPLINE_CURVE_WITH_KNOTS('',1,(#156,#157),.UNSPECIFIED.,.F.,.F.,(2,2),(0.00000000000000000E0,1.00000000000000000E0),.UNSPECIFIED.);
#159=CARTESIAN_POINT('',(3.04799999999999955E2,7.61999999999999886E1,0.00000000000000000E0));
#160=CARTESIAN_POINT('',(3.04799999999999955E2,7.61999999999999886E1,1.02599999999999994E2));
#161=B_SPLINE_CURVE_WITH_KNOTS('',1,(#159,#160),.UNSPECIFIED.,.F.,.F.,(2,2),(0.00000000000000000E0,1.00000000000000000E0),.UNSPECIFIED.);
#162=CARTESIAN_POINT('',(2.54000000000000000E2,7.61999999999999886E1,0.00000000000000000E0));
#163=CARTESIAN_POINT('',(2.54000000000000000E2,7.61999999999999886E1,1.02599999999999994E2));
#164=B_SPLINE_CURVE_WITH_KNOTS('',1,(#162,#163),.UNSPECIFIED.,.F.,.F.,(2,2),(0.00000000000000000E0,1.00000000000000000E0),.UNSPECIFIED.);
#165=(GEOMETRIC_REPRESENTATION_CONTEXT(2)REPRESENTATION_CONTEXT('','2D'));
#166=CARTESIAN_POINT('',(0.00000000000000000E0,0.00000000000000000E0));
#167=CARTESIAN_POINT('',(1.00000000000000000E0,0.00000000000000000E0));
#168=B_SPLINE_CURVE_WITH_KNOTS('',1,(#166,#167),.UNSPECIFIED.,.F.,.F.,(2,2),(0.00000000000000000E0,1.00000000000000000E0),.UNSPECIFIED.);
#169=DEFINITIONAL_REPRESENTATION('',(#168),#165);
#170=PCURVE('',#37,#169);
#171=CARTESIAN_POINT('',(1.00000000000000000E0,0.00000000000000000E0));
#172=CARTESIAN_POINT('',(1.00000000000000000E0,1.00000000000000000E0));
#173=B_SPLINE_CURVE_WITH_KNOTS('',1,(#171,#172),.UNSPECIFIED.,.F.,.F.,(2,2),(0.00000000000000000E0,1.00000000000000000E0),.UNSPECIFIED.);
#174=DEFINITIONAL_REPRESENTATION('',(#173),#165);
#175=PCURVE('',#37,#174);
#176=CARTESIAN_POINT('',(1.00000000000000000E0,1.00000000000000000E0));
#177=CARTESIAN_POINT('',(0.00000000000000000E0,1.00000000000000000E0));
#178=B_SPLINE_CURVE_WITH_KNOTS('',1,(#176,#177),.UNSPECIFIED.,.F.,.F.,(2,2),(0.00000000000000000E0,1.00000000000000000E0),.UNSPECIFIED.);
#179=DEFINITIONAL_REPRESENTATION('',(#178),#165);
#180=PCURVE('',#37,#179);
#181=CARTESIAN_POINT('',(0.00000000000000000E0,1.00000000000000000E0));
#182=CARTESIAN_POINT('',(0.00000000000000000E0,0.00000000000000000E0));
#183=B_SPLINE_CURVE_WITH_KNOTS('',1,(#181,#182),.UNSPECIFIED.,.F.,.F.,(2,2),(0.00000000000000000E0,1.00000000000000000E0),.UNSPECIFIED.);
#184=DEFINITIONAL_REPRESENTATION('',(#183),#165);
#185=PCURVE('',#37,#184);
#186=CARTESIAN_POINT('',(0.00000000000000000E0,0.00000000000000000E0));
#187=CARTESIAN_POINT('',(1.00000000000000000E0,0.00000000000000000E0));
#188=B_SPLINE_CURVE_WITH_KNOTS('',1,(#186,#187),.UNSPECIFIED.,.F.,.F.,(2,2),(0.00000000000000000E0,1.00000000000000000E0),.UNSPECIFIED.);
#189=DEFINITIONAL_REPRESENTATION('',(#188),#165);
#190=PCURVE('',#42,#189);
#191=CARTESIAN_POINT('',(1.00000000000000000E0,0.00000000000000000E0));
#192=CARTESIAN_POINT('',(1.00000000000000000E0,1.00000000000000000E0));
#193=B_SPLINE_CURVE_WITH_KNOTS('',1,(#191,#192),.UNSPECIFIED.,.F.,.F.,(2,2),(0.00000000000000000E0,1.00000000000000000E0),.UNSPECIFIED.);
#194=DEFINITIONAL_REPRESENTATION('',(#193),#165);
#195=PCURVE('',#42,#194);
#196=CARTESIAN_POINT('',(1.00000000000000000E0,1.00000000000000000E0));
#197=CARTESIAN_POINT('',(0.00000000000000000E0,1.00000000000000000E0));
#198=B_SPLINE_CURVE_WITH_KNOTS('',1,(#196,#197),.UNSPECIFIED.,.F.,.F.,(2,2),(0.00000000000000000E0,1.00000000000000000E0),.UNSPECIFIED.);
#199=DEFINITIONAL_REPRESENTATION('',(#198),#165);
#200=PCURVE('',#42,#199);
#201=CARTESIAN_POINT('',(0.00000000000000000E0,1.00000000000000000E0));
#202=CARTESIAN_POINT('',(0.00000000000000000E0,0.00000000000000000E0));
#203=B_SPLINE_CURVE_WITH_KNOTS('',1,(#201,#202),.UNSPECIFIED.,.F.,.F.,(2,2),(0.00000000000000000E0,1.00000000000000000E0),.UNSPECIFIED.);
#204=DEFINITIONAL_REPRESENTATION('',(#203),#165);
#205=PCURVE('',#42,#204);
#206=CARTESIAN_POINT('',(0.00000000000000000E0,0.00000000000000000E0));
#207=CARTESIAN_POINT('',(1.00000000000000000E0,0.00000000000000000E0));
#208=B_SPLINE_CURVE_WITH_KNOTS('',1,(#206,#207),.UNSPECIFIED.,.F.,.F.,(2,2),(0.00000000000000000E0,1.00000000000000000E0),.UNSPECIFIED.);
#209=DEFINITIONAL_REPRESENTATION('',(#208),#165);
#210=PCURVE('',#47,#209);
#211=CARTESIAN_POINT('',(1.00000000000000000E0,0.00000000000000000E0));
#212=CARTESIAN_POINT('',(1.00000000000000000E0,1.00000000000000000E0));
#213=B_SPLINE_CURVE_WITH_KNOTS('',1,(#211,#212),.UNSPECIFIED.,.F.,.F.,(2,2),(0.00000000000000000E0,1.00000000000000000E0),.UNSPECIFIED.);
#214=DEFINITIONAL_REPRESENTATION('',(#213),#165);
#215=PCURVE('',#47,#214);
#216=CARTESIAN_POINT('',(1.00000000000000000E0,1.00000000000000000E0));
#217=CARTESIAN_POINT('',(0.00000000000000000E0,1.00000000000000000E0));
#218=B_SPLINE_CURVE_WITH_KNOTS('',1,(#216,#217),.UNSPECIFIED.,.F.,.F.,(2,2),(0.00000000000000000E0,1.00000000000000000E0),.UNSPECIFIED.);
#219=DEFINITIONAL_REPRESENTATION('',(#218),#165);
#220=PCURVE('',#47,#219);
#221=CARTESIAN_POINT('',(0.00000000000000000E0,1.00000000000000000E0));
#222=CARTESIAN_POINT('',(0.00000000000000000E0,0.00000000000000000E0));
#223=B_SPLINE_CURVE_WITH_KNOTS('',1,(#221,#222),.UNSPECIFIED.,.F.,.F.,(2,2),(0.00000000000000000E0,1.00000000000000000E0),.UNSPECIFIED.);
#224=DEFINITIONAL_REPRESENTATION('',(#223),#165);
#225=PCURVE('',#47,#224);
#226=CARTESIAN_POINT('',(0.00000000000000000E0,0.00000000000000000E0));
#227=CARTESIAN_POINT('',(1.00000000000000000E0,0.00000000000000000E0));
#228=B_SPLINE_CURVE_WITH_KNOTS('',1,(#226,#227),.UNSPECIFIED.,.F.,.F.,(2,2),(0.00000000000000000E0,1.00000000000000000E0),.UNSPECIFIED.);
#229=DEFINITIONAL_REPRESENTATION('',(#228),#165);
#230=PCURVE('',#52,#229);
#231=CARTESIAN_POINT('',(1.00000000000000000E0,0.00000000000000000E0));
#232=CARTESIAN_POINT('',(1.00000000000000000E0,1.00000000000000000E0));
#233=B_SPLINE_CURVE_WITH_KNOTS('',1,(#231,#232),.UNSPECIFIED.,.F.,.F.,(2,2),(0.00000000000000000E0,1.00000000000000000E0),.UNSPECIFIED.);
#234=DEFINITIONAL_REPRESENTATION('',(#233),#165);
#235=PCURVE('',#52,#234);
#236=CARTESIAN_POINT('',(1.00000000000000000E0,1.00000000000000000E0));
#237=CARTESIAN_POINT('',(0.00000000000000000E0,1.00000000000000000E0));
#238=B_SPLINE_CURVE_WITH_KNOTS('',1,(#236,#237),.UNSPECIFIED.,.F.,.F.,(2,2),(0.00000000000000000E0,1.00000000000000000E0),.UNSPECIFIED.);
#239=DEFINITIONAL_REPRESENTATION('',(#238),#165);
#240=PCURVE('',#52,#239);
#241=CARTESIAN_POINT('',(0.00000000000000000E0,1.00000000000000000E0));
#242=CARTESIAN_POINT('',(0.00000000000000000E0,0.00000000000000000E0));
#243=B_SPLINE_CURVE_WITH_KNOTS('',1,(#241,#242),.UNSPECIFIED.,.F.,.F.,(2,2),(0.00000000000000000E0,1.00000000000000000E0),.UNSPECIFIED.);
#244=DEFINITIONAL_REPRESENTATION('',(#243),#165);
#245=PCURVE('',#52,#244);
#246=CARTESIAN_POINT('',(0.00000000000000000E0,0.00000000000000000E0));
#247=CARTESIAN_POINT('',(1.00000000000000000E0,0.00000000000000000E0));
#248=B_SPLINE_CURVE_WITH_KNOTS('',1,(#246,#247),.UNSPECIFIED.,.F.,.F.,(2,2),(0.00000000000000000E0,1.00000000000000000E0),.UNSPECIFIED.);
#249=DEFINITIONAL_REPRESENTATION('',(#248),#165);
#250=PCURVE('',#57,#249);
#251=CARTESIAN_POINT('',(1.00000000000000000E0,0.00000000000000000E0));
#252=CARTESIAN_POINT('',(1.00000000000000000E0,1.00000000000000000E0));
#253=B_SPLINE_CURVE_WITH_KNOTS('',1,(#251,#252),.UNSPECIFIED.,.F.,.F.,(2,2),(0.00000000000000000E0,1.00000000000000000E0),.UNSPECIFIED.);
#254=DEFINITIONAL_REPRESENTATION('',(#253),#165);
#255=PCURVE('',#57,#254);
#256=CARTESIAN_POINT('',(1.00000000000000000E0,1.00000000000000000E0));
#257=CARTESIAN_POINT('',(0.00000000000000000E0,1.00000000000000000E0));
#258=B_SPLINE_CURVE_WITH_KNOTS('',1,(#256,#257),.UNSPECIFIED.,.F.,.F.,(2,2),(0.00000000000000000E0,1.00000000000000000E0),.UNSPECIFIED.);
#259=DEFINITIONAL_REPRESENTATION('',(#258),#165);
#260=PCURVE('',#57,#259);
#261=CARTESIAN_POINT('',(0.00000000000000000E0,1.00000000000000000E0));
#262=CARTESIAN_POINT('',(0.00000000000000000E0,0.00000000000000000E0));
#263=B_SPLINE_CURVE_WITH_KNOTS('',1,(#261,#262),.UNSPECIFIED.,.F.,.F.,(2,2),(0.00000000000000000E0,1.00000000000000000E0),.UNSPECIFIED.);
#264=DEFINITIONAL_REPRESENTATION('',(#263),#165);
#265=PCURVE('',#57,#264);
#266=CARTESIAN_POINT('',(0.00000000000000000E0,0.00000000000000000E0));
#267=CARTESIAN_POINT('',(1.00000000000000000E0,0.00000000000000000E0));
#268=B_SPLINE_CURVE_WITH_KNOTS('',1,(#266,#267),.UNSPECIFIED.,.F.,.F.,(2,2),(0.00000000000000000E0,1.00000000000000000E0),.UNSPECIFIED.);
#269=DEFINITIONAL_REPRESENTATION('',(#268),#165);
#270=PCURVE('',#62,#269);
#271=CARTESIAN_POINT('',(1.00000000000000000E0,0.00000000000000000E0));
#272=CARTESIAN_POINT('',(1.00000000000000000E0,1.00000000000000000E0));
#273=B_SPLINE_CURVE_WITH_KNOTS('',1,(#271,#272),.UNSPECIFIED.,.F.,.F.,(2,2),(0.00000000000000000E0,1.00000000000000000E0),.UNSPECIFIED.);
#274=DEFINITIONAL_REPRESENTATION('',(#273),#165);
#275=PCURVE('',#62,#274);
#276=CARTESIAN_POINT('',(1.00000000000000000E0,1.00000000000000000E0));
#277=CARTESIAN_POINT('',(0.00000000000000000E0,1.00000000000000000E0));
#278=B_SPLINE_CURVE_WITH_KNOTS('',1,(#276,#277),.UNSPECIFIED.,.F.,.F.,(2,2),(0.00000000000000000E0,1.00000000000000000E0),.UNSPECIFIED.);
#279=DEFINITIONAL_REPRESENTATION('',(#278),#165);
#280=PCURVE('',#62,#279);
#281=CARTESIAN_POINT('',(0.00000000000000000E0,1.00000000000000000E0));
#282=CARTESIAN_POINT('',(0.00000000000000000E0,0.00000000000000000E0));
#283=B_SPLINE_CURVE_WITH_KNOTS('',1,(#281,#282),.UNSPECIFIED.,.F.,.F.,(2,2),(0.00000000000000000E0,1.00000000000000000E0),.UNSPECIFIED.);
#284=DEFINITIONAL_REPRESENTATION('',(#283),#165);
#285=PCURVE('',#62,#284);
#286=CARTESIAN_POINT('',(0.00000000000000000E0,0.00000000000000000E0));
#287=CARTESIAN_POINT('',(1.00000000000000000E0,0.00000000000000000E0));
#288=B_SPLINE_CURVE_WITH_KNOTS('',1,(#286,#287),.UNSPECIFIED.,.F.,.F.,(2,2),(0.00000000000000000E0,1.00000000000000000E0),.UNSPECIFIED.);
#289=DEFINITIONAL_REPRESENTATION('',(#288),#165);
#290=PCURVE('',#67,#289);
#291=CARTESIAN_POINT('',(1.00000000000000000E0,0.00000000000000000E0));
#292=CARTESIAN_POINT('',(1.00000000000000000E0,1.00000000000000000E0));
#293=B_SPLINE_CURVE_WITH_KNOTS('',1,(#291,#292),.UNSPECIFIED.,.F.,.F.,(2,2),(0.00000000000000000E0,1.00000000000000000E0),.UNSPECIFIED.);
#294=DEFINITIONAL_REPRESENTATION('',(#293),#165);
#295=PCURVE('',#67,#294);
#296=CARTESIAN_POINT('',(1.00000000000000000E0,1.00000000000000000E0));
#297=CARTESIAN_POINT('',(0.00000000000000000E0,1.00000000000000000E0));
#298=B_SPLINE_CURVE_WITH_KNOTS('',1,(#296,#297),.UNSPECIFIED.,.F.,.F.,(2,2),(0.00000000000000000E0,1.00000000000000000E0),.UNSPECIFIED.);
#299=DEFINITIONAL_REPRESENTATION('',(#298),#165);
#300=PCURVE('',#67,#299);
#301=CARTESIAN_POINT('',(0.00000000000000000E0,1.00000000000000000E0));
#302=CARTESIAN_POINT('',(0.00000000000000000E0,0.00000000000000000E0));
#303=B_SPLINE_CURVE_WITH_KNOTS('',1,(#301,#302),.UNSPECIFIED.,.F.,.F.,(2,2),(0.00000000000000000E0,1.00000000000000000E0),.UNSPECIFIED.);
#304=DEFINITIONAL_REPRESENTATION('',(#303),#165);
#305=PCURVE('',#67,#304);
#306=CARTESIAN_POINT('',(0.00000000000000000E0,0.00000000000000000E0));
#307=CARTESIAN_POINT('',(1.00000000000000000E0,0.00000000000000000E0));
#308=B_SPLINE_CURVE_WITH_KNOTS('',1,(#306,#307),.UNSPECIFIED.,.F.,.F.,(2,2),(0.00000000000000000E0,1.00000000000000000E0),.UNSPECIFIED.);
#309=DEFINITIONAL_REPRESENTATION('',(#308),#165);
#310=PCURVE('',#72,#309);
#311=CARTESIAN_POINT('',(1.00000000000000000E0,0.00000000000000000E0));
#312=CARTESIAN_POINT('',(1.00000000000000000E0,1.00000000000000000E0));
#313=B_SPLINE_CURVE_WITH_KNOTS('',1,(#311,#312),.UNSPECIFIED.,.F.,.F.,(2,2),(0.00000000000000000E0,1.00000000000000000E0),.UNSPECIFIED.);
#314=DEFINITIONAL_REPRESENTATION('',(#313),#165);
#315=PCURVE('',#72,#314);
#316=CARTESIAN_POINT('',(1.00000000000000000E0,1.00000000000000000E0));
#317=CARTESIAN_POINT('',(0.00000000000000000E0,1.00000000000000000E0));
#318=B_SPLINE_CURVE_WITH_KNOTS('',1,(#316,#317),.UNSPECIFIED.,.F.,.F.,(2,2),(0.00000000000000000E0,1.00000000000000000E0),.UNSPECIFIED.);
#319=DEFINITIONAL_REPRESENTATION('',(#318),#165);
#320=PCURVE('',#72,#319);
#321=CARTESIAN_POINT('',(0.00000000000000000E0,1.00000000000000000E0));
#322=CARTESIAN_POINT('',(0.00000000000000000E0,0.00000000000000000E0));
#323=B_SPLINE_CURVE_WITH_KNOTS('',1,(#321,#322),.UNSPECIFIED.,.F.,.F.,(2,2),(0.00000000000000000E0,1.00000000000000000E0),.UNSPECIFIED.);
#324=DEFINITIONAL_REPRESENTATION('',(#323),#165);
#325=PCURVE('',#72,#324);
#326=CARTESIAN_POINT('',(0.00000000000000000E0,0.00000000000000000E0));
#327=CARTESIAN_POINT('',(1.00000000000000000E0,0.00000000000000000E0));
#328=B_SPLINE_CURVE_WITH_KNOTS('',1,(#326,#327),.UNSPECIFIED.,.F.,.F.,(2,2),(0.00000000000000000E0,1.00000000000000000E0),.UNSPECIFIED.);
#329=DEFINITIONAL_REPRESENTATION('',(#328),#165);
#330=PCURVE('',#77,#329);
#331=CARTESIAN_POINT('',(1.00000000000000000E0,0.00000000000000000E0));
#332=CARTESIAN_POINT('',(1.00000000000000000E0,1.00000000000000000E0));
#333=B_SPLINE_CURVE_WITH_KNOTS('',1,(#331,#332),.UNSPECIFIED.,.F.,.F.,(2,2),(0.00000000000000000E0,1.00000000000000000E0),.UNSPECIFIED.);
#334=DEFINITIONAL_REPRESENTATION('',(#333),#165);
#335=PCURVE('',#77,#334);
#336=CARTESIAN_POINT('',(1.00000000000000000E0,1.00000000000000000E0));
#337=CARTESIAN_POINT('',(0.00000000000000000E0,1.00000000000000000E0));
#338=B_SPLINE_CURVE_WITH_KNOTS('',1,(#336,#337),.UNSPECIFIED.,.F.,.F.,(2,2),(0.00000000000000000E0,1.00000000000000000E0),.UNSPECIFIED.);
#339=DEFINITIONAL_REPRESENTATION('',(#338),#165);
#340=PCURVE('',#77,#339);
#341=CARTESIAN_POINT('',(0.00000000000000000E0,1.00000000000000000E0));
#342=CARTESIAN_POINT('',(0.00000000000000000E0,0.00000000000000000E0));
#343=B_SPLINE_CURVE_WITH_KNOTS('',1,(#341,#342),.UNSPECIFIED.,.F.,.F.,(2,2),(0.00000000000000000E0,1.00000000000000000E0),.UNSPECIFIED.);
#344=DEFINITIONAL_REPRESENTATION('',(#343),#165);
#345=PCURVE('',#77,#344);
#346=CARTESIAN_POINT('',(0.00000000000000000E0,0.00000000000000000E0));
#347=CARTESIAN_POINT('',(1.00000000000000000E0,0.00000000000000000E0));
#348=B_SPLINE_CURVE_WITH_KNOTS('',1,(#346,#347),.UNSPECIFIED.,.F.,.F.,(2,2),(0.00000000000000000E0,1.00000000000000000E0),.UNSPECIFIED.);
#349=DEFINITIONAL_REPRESENTATION('',(#348),#165);
#350=PCURVE('',#82,#349);
#351=CARTESIAN_POINT('',(1.00000000000000000E0,0.00000000000000000E0));
#352=CARTESIAN_POINT('',(1.00000000000000000E0,1.00000000000000000E0));
#353=B_SPLINE_CURVE_WITH_KNOTS('',1,(#351,#352),.UNSPECIFIED.,.F.,.F.,(2,2),(0.00000000000000000E0,1.00000000000000000E0),.UNSPECIFIED.);
#354=DEFINITIONAL_REPRESENTATION('',(#353),#165);
#355=PCURVE('',#82,#354);
#356=CARTESIAN_POINT('',(1.00000000000000000E0,1.00000000000000000E0));
#357=CARTESIAN_POINT('',(0.00000000000000000E0,1.00000000000000000E0));
#358=B_SPLINE_CURVE_WITH_KNOTS('',1,(#356,#357),.UNSPECIFIED.,.F.,.F.,(2,2),(0.00000000000000000E0,1.00000000000000000E0),.UNSPECIFIED.);
#359=DEFINITIONAL_REPRESENTATION('',(#358),#165);
#360=PCURVE('',#82,#359);
#361=CARTESIAN_POINT('',(0.00000000000000000E0,1.00000000000000000E0));
#362=CARTESIAN_POINT('',(0.00000000000000000E0,0.00000000000000000E0));
#363=B_SPLINE_CURVE_WITH_KNOTS('',1,(#361,#362),.UNSPECIFIED.,.F.,.F.,(2,2),(0.00000000000000000E0,1.00000000000000000E0),.UNSPECIFIED.);
#364=DEFINITIONAL_REPRESENTATION('',(#363),#165);
#365=PCURVE('',#82,#364);
#366=CARTESIAN_POINT('',(0.00000000000000000E0,0.00000000000000000E0));
#367=CARTESIAN_POINT('',(1.00000000000000000E0,0.00000000000000000E0));
#368=B_SPLINE_CURVE_WITH_KNOTS('',1,(#366,#367),.UNSPECIFIED.,.F.,.F.,(2,2),(0.00000000000000000E0,1.00000000000000000E0),.UNSPECIFIED.);
#369=DEFINITIONAL_REPRESENTATION('',(#368),#165);
#370=PCURVE('',#87,#369);
#371=CARTESIAN_POINT('',(1.00000000000000000E0,0.00000000000000000E0));
#372=CARTESIAN_POINT('',(1.00000000000000000E0,1.00000000000000000E0));
#373=B_SPLINE_CURVE_WITH_KNOTS('',1,(#371,#372),.UNSPECIFIED.,.F.,.F.,(2,2),(0.00000000000000000E0,1.00000000000000000E0),.UNSPECIFIED.);
#374=DEFINITIONAL_REPRESENTATION('',(#373),#165);
#375=PCURVE('',#87,#374);
#376=CARTESIAN_POINT('',(1.00000000000000000E0,1.00000000000000000E0));
#377=CARTESIAN_POINT('',(0.00000000000000000E0,1.00000000000000000E0));
#378=B_SPLINE_CURVE_WITH_KNOTS('',1,(#376,#377),.UNSPECIFIED.,.F.,.F.,(2,2),(0.00000000000000000E0,1.00000000000000000E0),.UNSPECIFIED.);
#379=DEFINITIONAL_REPRESENTATION('',(#378),#165);
#380=PCURVE('',#87,#379);
#381=CARTESIAN_POINT('',(0.00000000000000000E0,1.00000000000000000E0));
#382=CARTESIAN_POINT('',(0.00000000000000000E0,0.00000000000000000E0));
#383=B_SPLINE_CURVE_WITH_KNOTS('',1,(#381,#382),.UNSPECIFIED.,.F.,.F.,(2,2),(0.00000000000000000E0,1.00000000000000000E0),.UNSPECIFIED.);
#384=DEFINITIONAL_REPRESENTATION('',(#383),#165);
#385=PCURVE('',#87,#384);
#386=CARTESIAN_POINT('',(0.00000000000000000E0,0.00000000000000000E0));
#387=CARTESIAN_POINT('',(1.00000000000000000E0,0.00000000000000000E0));
#388=B_SPLINE_CURVE_WITH_KNOTS('',1,(#386,#387),.UNSPECIFIED.,.F.,.F.,(2,2),(0.00000000000000000E0,1.00000000000000000E0),.UNSPECIFIED.);
#389=DEFINITIONAL_REPRESENTATION('',(#388),#165);
#390=PCURVE('',#92,#389);
#391=CARTESIAN_POINT('',(1.00000000000000000E0,0.00000000000000000E0));
#392=CARTESIAN_POINT('',(1.00000000000000000E0,1.00000000000000000E0));
#393=B_SPLINE_CURVE_WITH_KNOTS('',1,(#391,#392),.UNSPECIFIED.,.F.,.F.,(2,2),(0.00000000000000000E0,1.00000000000000000E0),.UNSPECIFIED.);
#394=DEFINITIONAL_REPRESENTATION('',(#393),#165);
#395=PCURVE('',#92,#394);
#396=CARTESIAN_POINT('',(1.00000000000000000E0,1.00000000000000000E0));
#397=CARTESIAN_POINT('',(0.00000000000000000E0,1.00000000000000000E0));
#398=B_SPLINE_CURVE_WITH_KNOTS('',1,(#396,#397),.UNSPECIFIED.,.F.,.F.,(2,2),(0.00000000000000000E0,1.00000000000000000E0),.UNSPECIFIED.);
#399=DEFINITIONAL_REPRESENTATION('',(#398),#165);
#400=PCURVE('',#92,#399);
#401=CARTESIAN_POINT('',(0.00000000000000000E0,1.00000000000000000E0));
#402=CARTESIAN_POINT('',(0.00000000000000000E0,0.00000000000000000E0));
#403=B_SPLINE_CURVE_WITH_KNOTS('',1,(#401,#402),.UNSPECIFIED.,.F.,.F.,(2,2),(0.00000000000000000E0,1.00000000000000000E0),.UNSPECIFIED.);
#404=DEFINITIONAL_REPRESENTATION('',(#403),#165);
#405=PCURVE('',#92,#404);
#406=SURFACE_CURVE('',#95,(#170,#270),.PCURVE_S1.);
#407=EDGE_CURVE('OSCAD_TOPO/3|edge|e:1de26457d8a47e6f37d233a3d6756a53|3c94652a2c2165c7b1d14e205af962cd07682ec7ffa9a179ba0b53e6e67b0114',#2,#4,#406,.T.);
#408=SURFACE_CURVE('',#98,(#175,#250),.PCURVE_S1.);
#409=EDGE_CURVE('OSCAD_TOPO/3|edge|e:a4f7badedbed9b5674eff0143ec73e92|24fa68ffc504a0e5a105b56380102fca08e3dff458eefc67c1b58eb6e6991d73',#6,#4,#408,.T.);
#410=SURFACE_CURVE('',#101,(#180,#230),.PCURVE_S1.);
#411=EDGE_CURVE('OSCAD_TOPO/3|edge|e:657ecfecac266de3ad9c1c86cfaec8c9|adde00b82fa423ec17672eaada1d716d0f6c961b4e466e33d08054ad0e1df7bd',#8,#6,#410,.T.);
#412=SURFACE_CURVE('',#104,(#185,#210),.PCURVE_S1.);
#413=EDGE_CURVE('OSCAD_TOPO/3|edge|e:92ba71e8a196f004b4c1ffc55ac484d5|22337f6fa2fd6a1ca3421d5842ef5c1c997a93a2221e4a12201fc4f1a44bea70',#2,#8,#412,.T.);
#414=SURFACE_CURVE('',#107,(#190,#220),.PCURVE_S1.);
#415=EDGE_CURVE('OSCAD_TOPO/3|edge|e:ec3fb5eb6e8a9555a293220d844e5898|5618db8595d37463e40bf8cc3934c9ce0aec3f699e04c81e7d05a42d5b1aff0a',#10,#12,#414,.T.);
#416=SURFACE_CURVE('',#110,(#195,#240),.PCURVE_S1.);
#417=EDGE_CURVE('OSCAD_TOPO/3|edge|e:1d8feadb47c85079154de17822b6a279|b639a5bb1a53d39562c6c988340a1b35ba2bcebe537a3f9af124ae807df60439',#12,#14,#416,.T.);
#418=SURFACE_CURVE('',#113,(#200,#260),.PCURVE_S1.);
#419=EDGE_CURVE('OSCAD_TOPO/3|edge|e:3bf4f2e286e7b2bbdfcadec26f20403f|6b3174ce6f5d33f8193cea010961a102623df49cf2198c0f8d1ce3c44ec5a0d0',#14,#16,#418,.T.);
#420=SURFACE_CURVE('',#116,(#205,#280),.PCURVE_S1.);
#421=EDGE_CURVE('OSCAD_TOPO/3|edge|e:f6e01bf9b97418dbb0641d53508a7c39|00a4c330d1b8ac784f4ce9bbba5e299216cf08d2a6fb46c72633543e1ccb080f',#10,#16,#420,.T.);
#422=SURFACE_CURVE('',#119,(#215,#245),.PCURVE_S1.);
#423=EDGE_CURVE('OSCAD_TOPO/3|edge|e:6f3da9e55990d11c46f434723a0da716|228b5ccbab19f1e6e53e5e39f9dc9906481d5b9cb67c724e440bc47c67e06df6',#8,#12,#422,.T.);
#424=SURFACE_CURVE('',#122,(#225,#275),.PCURVE_S1.);
#425=EDGE_CURVE('OSCAD_TOPO/3|edge|e:08fef0785958b3ff2573c79624025f86|9c7ca6ee34000d6c35aac070751d15c209cd9ba5382f02bdfd186905590315c5',#2,#10,#424,.T.);
#426=SURFACE_CURVE('',#125,(#235,#265),.PCURVE_S1.);
#427=EDGE_CURVE('OSCAD_TOPO/3|edge|e:86d2750b3ee97a11bd99c5e434bc832a|54d6c5613664178b45dd86fb6ffb66ab4177dbe4bc26db782aaaa68aee714b27',#6,#14,#426,.T.);
#428=SURFACE_CURVE('',#128,(#255,#285),.PCURVE_S1.);
#429=EDGE_CURVE('OSCAD_TOPO/3|edge|e:4db14007bdf5f2ad5de5645e46b6372b|a3c0f754d8da08ee6c71b23dab9ae99adb4258470407736dacfc6dc805499f25',#4,#16,#428,.T.);
#430=SURFACE_CURVE('',#131,(#290,#390),.PCURVE_S1.);
#431=EDGE_CURVE('OSCAD_TOPO/3|edge|e:a35afa6e179c152f779811f0b0a30f42|4be090323aadda02873a7c1f38cf63c4e88cfc1d4eae01de8c34d3d0bbaf4172',#18,#20,#430,.T.);
#432=SURFACE_CURVE('',#134,(#295,#370),.PCURVE_S1.);
#433=EDGE_CURVE('OSCAD_TOPO/3|edge|e:0a7d49a7c5e646de874d3b4d899bd119|100aeb67ed3797972d3120ad29c1bc9fc945d014e1dcc37948bfba457670e8f6',#22,#20,#432,.T.);
#434=SURFACE_CURVE('',#137,(#300,#350),.PCURVE_S1.);
#435=EDGE_CURVE('OSCAD_TOPO/3|edge|e:28f10c678e13468cbd6b21bb2f4fc2ff|30d0937954c6e6bc7ded8effb5d31be6957c8b84b9bab9d4e43f452ef9293078',#24,#22,#434,.T.);
#436=SURFACE_CURVE('',#140,(#305,#330),.PCURVE_S1.);
#437=EDGE_CURVE('OSCAD_TOPO/3|edge|e:b018e2493e8c72d28d386a1e4ff0614c|443e2267c49d3515cee2ffd3822805cf180eb7501d7b45179db86bfe06f1996f',#18,#24,#436,.T.);
#438=SURFACE_CURVE('',#143,(#310,#340),.PCURVE_S1.);
#439=EDGE_CURVE('OSCAD_TOPO/3|edge|e:5ba873d66da5b5e5e982d3c368edeb3e|f2a15156097b675c0e37cf7a0e883a6f2e5e2b217dec11c0d2f7894db6e5faf4',#26,#28,#438,.T.);
#440=SURFACE_CURVE('',#146,(#315,#360),.PCURVE_S1.);
#441=EDGE_CURVE('OSCAD_TOPO/3|edge|e:b936b64733e426913e517fd2908df93b|8db5c384e69fdfc18d0a1a298b4dfad99dca515d8540732b3e32b6b7e2259ecc',#28,#30,#440,.T.);
#442=SURFACE_CURVE('',#149,(#320,#380),.PCURVE_S1.);
#443=EDGE_CURVE('OSCAD_TOPO/3|edge|e:f3eb456429ab46195d1d3e04e7585dbd|ea5bd7097b17da85438e4db210b953f319ef013bc5b27f3e2f06d285f5f85997',#30,#32,#442,.T.);
#444=SURFACE_CURVE('',#152,(#325,#400),.PCURVE_S1.);
#445=EDGE_CURVE('OSCAD_TOPO/3|edge|e:4da80fa1cb357603458077f8e068ee2a|f4ea2c2da7518b34f877a51f292d952a8add73dc3680581383004c11cb24c582',#26,#32,#444,.T.);
#446=SURFACE_CURVE('',#155,(#335,#365),.PCURVE_S1.);
#447=EDGE_CURVE('OSCAD_TOPO/3|edge|e:ed6b37acd1bba8ff9dab48e05a42817d|e3197ac41187755924924a8693a51c4c538fc0cea2b8b1fa02d0c0f9262593af',#24,#28,#446,.T.);
#448=SURFACE_CURVE('',#158,(#345,#395),.PCURVE_S1.);
#449=EDGE_CURVE('OSCAD_TOPO/3|edge|e:011ef4e3e6860896b024b368327d2868|1b2170ac06e7c01e69dbcde1a7040dd4260f516f674fcba27002c5497bbd5c2f',#18,#26,#448,.T.);
#450=SURFACE_CURVE('',#161,(#355,#385),.PCURVE_S1.);
#451=EDGE_CURVE('OSCAD_TOPO/3|edge|e:59ac70435e1ad08a125b4e305718fd59|fc748654cc14055092e1aa6fdb2ac20efb568a68e2c92d1b0510223dd620eb9a',#22,#30,#450,.T.);
#452=SURFACE_CURVE('',#164,(#375,#405),.PCURVE_S1.);
#453=EDGE_CURVE('OSCAD_TOPO/3|edge|e:cacf2c8b9f5ed639fd00d0eab33327c4|e89cc0437da7ddd803c9604847bb67ee976a60c458f7fafccd506614ae061918',#20,#32,#452,.T.);
#454=ORIENTED_EDGE('',*,*,#407,.T.);
#455=ORIENTED_EDGE('',*,*,#409,.F.);
#456=ORIENTED_EDGE('',*,*,#411,.F.);
#457=ORIENTED_EDGE('',*,*,#413,.F.);
#458=EDGE_LOOP('OSCAD_TOPO/3|loop|l:bc98c01527f10592e350b147292ba7ff|6296e171661e99d3110cec8b9afa8fda03f26dd8e28a5d51d88a32e0a4ec4afa',(#454,#455,#456,#457));
#459=ORIENTED_EDGE('',*,*,#415,.T.);
#460=ORIENTED_EDGE('',*,*,#417,.T.);
#461=ORIENTED_EDGE('',*,*,#419,.T.);
#462=ORIENTED_EDGE('',*,*,#421,.F.);
#463=EDGE_LOOP('OSCAD_TOPO/3|loop|l:f4f38cf3e4deffa059c22605beb62393|d2469db78bda0057a91dc9543b0424bf4b82c79aaea01080d21f394d2f4039d1',(#459,#460,#461,#462));
#464=ORIENTED_EDGE('',*,*,#413,.T.);
#465=ORIENTED_EDGE('',*,*,#423,.T.);
#466=ORIENTED_EDGE('',*,*,#415,.F.);
#467=ORIENTED_EDGE('',*,*,#425,.F.);
#468=EDGE_LOOP('OSCAD_TOPO/3|loop|l:c77f9eb002720d6bcf4f4056f1ceed1c|13005c867eb0e471bddd3007b55f83e1a0c4245f61ce44fa6867bb09d96424db',(#464,#465,#466,#467));
#469=ORIENTED_EDGE('',*,*,#411,.T.);
#470=ORIENTED_EDGE('',*,*,#427,.T.);
#471=ORIENTED_EDGE('',*,*,#417,.F.);
#472=ORIENTED_EDGE('',*,*,#423,.F.);
#473=EDGE_LOOP('OSCAD_TOPO/3|loop|l:21de6d2e7ad2f0aaa0bf0f2f941e03ef|ce3f7912556ce9ec015f8a5e434c0e0c20cb7035fad0c6aa491c24c0f492d0cd',(#469,#470,#471,#472));
#474=ORIENTED_EDGE('',*,*,#409,.T.);
#475=ORIENTED_EDGE('',*,*,#429,.T.);
#476=ORIENTED_EDGE('',*,*,#419,.F.);
#477=ORIENTED_EDGE('',*,*,#427,.F.);
#478=EDGE_LOOP('OSCAD_TOPO/3|loop|l:f15d2d6975ce13538ea750e0ac6d431e|e1f5049b704a554c612c199f043473cb62617043251c2b950abc7250a1367608',(#474,#475,#476,#477));
#479=ORIENTED_EDGE('',*,*,#407,.F.);
#480=ORIENTED_EDGE('',*,*,#425,.T.);
#481=ORIENTED_EDGE('',*,*,#421,.T.);
#482=ORIENTED_EDGE('',*,*,#429,.F.);
#483=EDGE_LOOP('OSCAD_TOPO/3|loop|l:56f5feb679fde562da11f9e43f3cbff5|a17e6b4fe067196f4e44f9fb56c09295f989b188d42e3e5c616ce4e085171d3a',(#479,#480,#481,#482));
#484=ORIENTED_EDGE('',*,*,#431,.T.);
#485=ORIENTED_EDGE('',*,*,#433,.F.);
#486=ORIENTED_EDGE('',*,*,#435,.F.);
#487=ORIENTED_EDGE('',*,*,#437,.F.);
#488=EDGE_LOOP('OSCAD_TOPO/3|loop|l:1226f9a26acc3dc202cc324aaf643e96|0045c214ae2e91e3b138479c494158225d445c638cd282c43ee42ab27e34490a',(#484,#485,#486,#487));
#489=ORIENTED_EDGE('',*,*,#439,.T.);
#490=ORIENTED_EDGE('',*,*,#441,.T.);
#491=ORIENTED_EDGE('',*,*,#443,.T.);
#492=ORIENTED_EDGE('',*,*,#445,.F.);
#493=EDGE_LOOP('OSCAD_TOPO/3|loop|l:8e31eb3f022d55d50f0167ea30fd2bbb|43524893bb08d1a36704c10752ce215f377d3a037b1bb4f561dcb79e7296bc9e',(#489,#490,#491,#492));
#494=ORIENTED_EDGE('',*,*,#437,.T.);
#495=ORIENTED_EDGE('',*,*,#447,.T.);
#496=ORIENTED_EDGE('',*,*,#439,.F.);
#497=ORIENTED_EDGE('',*,*,#449,.F.);
#498=EDGE_LOOP('OSCAD_TOPO/3|loop|l:074a1a447d3271931f2e33ad5db7b544|21a241092787c4a9c0e3f14f7cab6999772cc65c88c3ed94d49c00579ec01b42',(#494,#495,#496,#497));
#499=ORIENTED_EDGE('',*,*,#435,.T.);
#500=ORIENTED_EDGE('',*,*,#451,.T.);
#501=ORIENTED_EDGE('',*,*,#441,.F.);
#502=ORIENTED_EDGE('',*,*,#447,.F.);
#503=EDGE_LOOP('OSCAD_TOPO/3|loop|l:9827addd0bf90038f055e3ef767426c6|b4af91434c2f0e1eb79995fe7086b03ad24fd2faa3cfce95abf4f3138a87565c',(#499,#500,#501,#502));
#504=ORIENTED_EDGE('',*,*,#433,.T.);
#505=ORIENTED_EDGE('',*,*,#453,.T.);
#506=ORIENTED_EDGE('',*,*,#443,.F.);
#507=ORIENTED_EDGE('',*,*,#451,.F.);
#508=EDGE_LOOP('OSCAD_TOPO/3|loop|l:57e574707b42cc30d9605805bc361b80|8caaf77d4e295108c20a5991ada04881621de9cdee5e807bdc5897e625e292a5',(#504,#505,#506,#507));
#509=ORIENTED_EDGE('',*,*,#431,.F.);
#510=ORIENTED_EDGE('',*,*,#449,.T.);
#511=ORIENTED_EDGE('',*,*,#445,.T.);
#512=ORIENTED_EDGE('',*,*,#453,.F.);
#513=EDGE_LOOP('OSCAD_TOPO/3|loop|l:d57d6bad0e71556da58dff3b42bc2180|6cae3668985389508e41c11dad5e7b32e07bdca94a8cd150580e268df79e2b85',(#509,#510,#511,#512));
#514=FACE_OUTER_BOUND('',#458,.T.);
#515=ADVANCED_FACE('OSCAD_TOPO/3|face|f:f053bfa3db65533f5890eb656b17fce8|768804c1113e3bfe89b6dc110c815e99209a886895bb7aee007aabd45f739b9b',(#514),#37,.T.);
#516=FACE_OUTER_BOUND('',#463,.T.);
#517=ADVANCED_FACE('OSCAD_TOPO/3|face|f:e63ef27c2b488026df9e2b82f82158eb|f2b80201c7105675acdebf0aad77cbd68f9306e8c316a160ef14aef2c8603dee',(#516),#42,.T.);
#518=FACE_OUTER_BOUND('',#468,.T.);
#519=ADVANCED_FACE('OSCAD_TOPO/3|face|f:e78b50979f15baad24e4e9f54dc23c29|e7e095835125907f3f0660f22c1bac8c318e4e07e8e17c8de468c87e8c72d4da',(#518),#47,.T.);
#520=FACE_OUTER_BOUND('',#473,.T.);
#521=ADVANCED_FACE('OSCAD_TOPO/3|face|f:c2588bcf1a8631a74a0d34fde21741de|69de277bd198c179483ac6556f7c2e11f41747236f338ec58645e02158679df3',(#520),#52,.T.);
#522=FACE_OUTER_BOUND('',#478,.T.);
#523=ADVANCED_FACE('OSCAD_TOPO/3|face|f:be1f2c12387071235b1b0cc3490c9a45|c1dd7f48e616b10817b6bf18ea5d55549db871c827822ea8773efb4aee01d8cf',(#522),#57,.T.);
#524=FACE_OUTER_BOUND('',#483,.T.);
#525=ADVANCED_FACE('OSCAD_TOPO/3|face|f:6c5bc30f2df2ad9bdf527dce1297400b|60b612b099c05836b317ea6adb847ab69f2fb26117b925490db727572946e284',(#524),#62,.T.);
#526=FACE_OUTER_BOUND('',#488,.T.);
#527=ADVANCED_FACE('OSCAD_TOPO/3|face|f:84011236532a18357e9086664ff7f93f|86a34814e4b242fa8f021039efcba138c07cf5cb7a6079575189468010697572',(#526),#67,.T.);
#528=FACE_OUTER_BOUND('',#493,.T.);
#529=ADVANCED_FACE('OSCAD_TOPO/3|face|f:d1556d3193ea954b08b64d9cb9ae70de|b07158a9746ce13e10107f7b73c091e1238bfd44b91ad3df1057850c8ff97a74',(#528),#72,.T.);
#530=FACE_OUTER_BOUND('',#498,.T.);
#531=ADVANCED_FACE('OSCAD_TOPO/3|face|f:67533ae78fee80ccbdc29253c88fd6f0|ea865e7aaf1f5af2dd2487abd5dad5ebb8ff75d1749e84050a7a270dd478466b',(#530),#77,.T.);
#532=FACE_OUTER_BOUND('',#503,.T.);
#533=ADVANCED_FACE('OSCAD_TOPO/3|face|f:eaa69c85d19fd5ea16927f32a22e9f5f|17b0149395e66984560951353858f8ebe61d036d454e2e8d3bbb234e26fe36c1',(#532),#82,.T.);
#534=FACE_OUTER_BOUND('',#508,.T.);
#535=ADVANCED_FACE('OSCAD_TOPO/3|face|f:81722f5a1ee2f8f0cfef1505c4e96bec|7afe8f656708fd1ff0949f45ddd7cd93b362e46f72fe1d54e349fbc29713d3f8',(#534),#87,.T.);
#536=FACE_OUTER_BOUND('',#513,.T.);
#537=ADVANCED_FACE('OSCAD_TOPO/3|face|f:a33b41704cad64c24774e0dcd9048242|3b648dc8348d5cf587389d89e0abd6dd5f424e7c9ef2d9d6fda607ee3ae41f28',(#536),#92,.T.);
#538=CLOSED_SHELL('OSCAD_TOPO/3|shell|s:0752e07c02b14e3a2dec65a29e593aa3|d903f6e8f31e5c17decba53d8a8d8f21a72940e46d30e89012fb43c8f157a8e0',(#515,#517,#519,#521,#523,#525));
#539=CLOSED_SHELL('OSCAD_TOPO/3|shell|s:c5463a6acc4c62e5d4e9f66f6d4ca476|dd9c9af828b46f02455f1b851f5eba63cfbdeea5cccb0a9b374b681dbf8e0196',(#527,#529,#531,#533,#535,#537));
#540=MANIFOLD_SOLID_BREP('OSCAD_TOPO/3|body|b:9fa5159bab72be9bce758973e4027187|c2aef2bb1462db744300b1a8f85b486b5f7e35867c6bf5d391e7200473fc0e14',#538);
#541=MANIFOLD_SOLID_BREP('OSCAD_TOPO/3|body|b:4ee9b29e146749ac35eb4334fa9a3b8b|d8ace799fda26fc07bbf4807a2945b9cbf05111d0c6582c7c1c506a9b531d2cb',#539);
#542=(LENGTH_UNIT()NAMED_UNIT(*)SI_UNIT(.MILLI.,.METRE.));
#543=UNCERTAINTY_MEASURE_WITH_UNIT(LENGTH_MEASURE(9.99999999999999955E-8),#542,'distance_accuracy_value','');
#544=(GEOMETRIC_REPRESENTATION_CONTEXT(3)GLOBAL_UNCERTAINTY_ASSIGNED_CONTEXT((#543))GLOBAL_UNIT_ASSIGNED_CONTEXT((#542))REPRESENTATION_CONTEXT('','3D'));
#545=ADVANCED_BREP_SHAPE_REPRESENTATION('',(#540,#541),#544);
#546=APPLICATION_CONTEXT('managed model based 3d engineering');
#547=PRODUCT_CONTEXT('',#546,'mechanical');
#548=PRODUCT('model','model','',(#547));
#549=PRODUCT_DEFINITION_FORMATION('1','',#548);
#550=PRODUCT_DEFINITION_CONTEXT('part definition',#546,'design');
#551=PRODUCT_DEFINITION('design','',#549,#550);
#552=PRODUCT_DEFINITION_SHAPE('','',#551);
#553=SHAPE_DEFINITION_REPRESENTATION(#552,#545);
ENDSEC;
END-ISO-10303-21;
