ISO-10303-21;
HEADER;
FILE_DESCRIPTION(('OpenSCAD Viewer retained AP242 B-rep'),'2;1');
FILE_NAME('model.step','',(''),(''),'OpenSCAD Viewer','OpenSCAD Viewer','');
FILE_SCHEMA(('AP242_MANAGED_MODEL_BASED_3D_ENGINEERING_MIM_LF'));
ENDSEC;
DATA;
#1=CARTESIAN_POINT('',(1.00000000000000000E0,0.00000000000000000E0,0.00000000000000000E0));
#2=VERTEX_POINT('OSCAD_TOPO/3|vertex|v:befe2ea341ef65389fdccf7b3e2df3b0|8e25ccad3a3f68fd24d7b20fab6b4ed802a15355cd7e7b9022a346f61c6b204f',#1);
#3=CARTESIAN_POINT('',(-0.00000000000000000E0,1.00000000000000000E0,-0.00000000000000000E0));
#4=VERTEX_POINT('OSCAD_TOPO/3|vertex|v:ea50bfb34bc94adec88a40daad718837|b9e9f496d236c80b486eccc3729a57d592287abb35253eb5f27709dcd8cc896b',#3);
#5=CARTESIAN_POINT('',(-0.00000000000000000E0,8.00000000000000000E0,-0.00000000000000000E0));
#6=VERTEX_POINT('OSCAD_TOPO/3|vertex|v:07720a061eecc28a2d7844e564055068|82d663cd6c71b1fba57415287860b1e6c4d8676683736725012d2e4ecbc26381',#5);
#7=CARTESIAN_POINT('',(1.00000000000000000E1,8.00000000000000000E0,-0.00000000000000000E0));
#8=VERTEX_POINT('OSCAD_TOPO/3|vertex|v:5ed3d0155a17989510cc39733ff22bf0|b73effc5d1bda0a9f23de5a73572b827afcd81440b578b8545e0f11dc5c563af',#7);
#9=CARTESIAN_POINT('',(1.00000000000000000E1,-0.00000000000000000E0,-0.00000000000000000E0));
#10=VERTEX_POINT('OSCAD_TOPO/3|vertex|v:de3e486565e3a7617eea6e36ede06c2b|343cd49931557f89f345a0105fa156ebb1762acefe7705d94a523196e0a28c20',#9);
#11=CARTESIAN_POINT('',(0.00000000000000000E0,8.00000000000000000E0,6.00000000000000000E0));
#12=VERTEX_POINT('OSCAD_TOPO/3|vertex|v:489111dd2077f01697a2c4f266651f39|5f93c05b89e3ebf1b45378f0575e8b1c7f6cfe92c07950f10f5234cb251056a0',#11);
#13=CARTESIAN_POINT('',(0.00000000000000000E0,1.00000000000000000E0,6.00000000000000000E0));
#14=VERTEX_POINT('OSCAD_TOPO/3|vertex|v:e186c12bcfa2177a40e7f7779ee556e2|812224391143d5ac24b71d990e755e3153874fce515a9e1056071e84f56e48a4',#13);
#15=CARTESIAN_POINT('',(1.00000000000000000E0,-0.00000000000000000E0,6.00000000000000000E0));
#16=VERTEX_POINT('OSCAD_TOPO/3|vertex|v:39b097340548426eb642dddc9a106329|b97c94451249306468f22426c9125caed2b4f9e9aeb20526bcee9768bd354514',#15);
#17=CARTESIAN_POINT('',(1.00000000000000000E1,0.00000000000000000E0,6.00000000000000000E0));
#18=VERTEX_POINT('OSCAD_TOPO/3|vertex|v:40d90877984143ce3cd3ba9f42de6527|25d8f150c0b4ce4e19ab24ca582cf7fbb0eb4bc192bbecfeea61af71571a1a82',#17);
#19=CARTESIAN_POINT('',(1.00000000000000000E1,8.00000000000000000E0,6.00000000000000000E0));
#20=VERTEX_POINT('OSCAD_TOPO/3|vertex|v:163fe6769df8a8cb631d63cd87296ec6|4a938000dd5126b7e1aadae1f137a9799f9472050dfdbe9820767b72da878403',#19);
#21=CARTESIAN_POINT('',(0.00000000000000000E0,0.00000000000000000E0,0.00000000000000000E0));
#22=CARTESIAN_POINT('',(1.00000000000000000E1,0.00000000000000000E0,0.00000000000000000E0));
#23=CARTESIAN_POINT('',(0.00000000000000000E0,8.00000000000000000E0,0.00000000000000000E0));
#24=CARTESIAN_POINT('',(1.00000000000000000E1,8.00000000000000000E0,0.00000000000000000E0));
#25=B_SPLINE_SURFACE_WITH_KNOTS('',1,1,((#21,#22),(#23,#24)),.UNSPECIFIED.,.F.,.F.,.F.,(2,2),(2,2),(0.00000000000000000E0,1.00000000000000000E0),(0.00000000000000000E0,1.00000000000000000E0),.UNSPECIFIED.);
#26=CARTESIAN_POINT('',(0.00000000000000000E0,8.00000000000000000E0,6.00000000000000000E0));
#27=CARTESIAN_POINT('',(1.00000000000000000E1,8.00000000000000000E0,6.00000000000000000E0));
#28=CARTESIAN_POINT('',(0.00000000000000000E0,0.00000000000000000E0,6.00000000000000000E0));
#29=CARTESIAN_POINT('',(1.00000000000000000E1,0.00000000000000000E0,6.00000000000000000E0));
#30=B_SPLINE_SURFACE_WITH_KNOTS('',1,1,((#26,#27),(#28,#29)),.UNSPECIFIED.,.F.,.F.,.F.,(2,2),(2,2),(0.00000000000000000E0,1.00000000000000000E0),(0.00000000000000000E0,1.00000000000000000E0),.UNSPECIFIED.);
#31=CARTESIAN_POINT('',(1.00000000000000000E0,0.00000000000000000E0,6.00000000000000000E0));
#32=CARTESIAN_POINT('',(1.00000000000000000E1,0.00000000000000000E0,6.00000000000000000E0));
#33=CARTESIAN_POINT('',(1.00000000000000000E0,0.00000000000000000E0,0.00000000000000000E0));
#34=CARTESIAN_POINT('',(1.00000000000000000E1,0.00000000000000000E0,0.00000000000000000E0));
#35=B_SPLINE_SURFACE_WITH_KNOTS('',1,1,((#31,#32),(#33,#34)),.UNSPECIFIED.,.F.,.F.,.F.,(2,2),(2,2),(0.00000000000000000E0,1.00000000000000000E0),(0.00000000000000000E0,1.00000000000000000E0),.UNSPECIFIED.);
#36=CARTESIAN_POINT('',(1.00000000000000000E1,0.00000000000000000E0,6.00000000000000000E0));
#37=CARTESIAN_POINT('',(1.00000000000000000E1,8.00000000000000000E0,6.00000000000000000E0));
#38=CARTESIAN_POINT('',(1.00000000000000000E1,0.00000000000000000E0,0.00000000000000000E0));
#39=CARTESIAN_POINT('',(1.00000000000000000E1,8.00000000000000000E0,0.00000000000000000E0));
#40=B_SPLINE_SURFACE_WITH_KNOTS('',1,1,((#36,#37),(#38,#39)),.UNSPECIFIED.,.F.,.F.,.F.,(2,2),(2,2),(0.00000000000000000E0,1.00000000000000000E0),(0.00000000000000000E0,1.00000000000000000E0),.UNSPECIFIED.);
#41=CARTESIAN_POINT('',(0.00000000000000000E0,8.00000000000000000E0,0.00000000000000000E0));
#42=CARTESIAN_POINT('',(1.00000000000000000E1,8.00000000000000000E0,0.00000000000000000E0));
#43=CARTESIAN_POINT('',(0.00000000000000000E0,8.00000000000000000E0,6.00000000000000000E0));
#44=CARTESIAN_POINT('',(1.00000000000000000E1,8.00000000000000000E0,6.00000000000000000E0));
#45=B_SPLINE_SURFACE_WITH_KNOTS('',1,1,((#41,#42),(#43,#44)),.UNSPECIFIED.,.F.,.F.,.F.,(2,2),(2,2),(0.00000000000000000E0,1.00000000000000000E0),(0.00000000000000000E0,1.00000000000000000E0),.UNSPECIFIED.);
#46=CARTESIAN_POINT('',(0.00000000000000000E0,1.00000000000000000E0,0.00000000000000000E0));
#47=CARTESIAN_POINT('',(0.00000000000000000E0,8.00000000000000000E0,0.00000000000000000E0));
#48=CARTESIAN_POINT('',(0.00000000000000000E0,1.00000000000000000E0,6.00000000000000000E0));
#49=CARTESIAN_POINT('',(0.00000000000000000E0,8.00000000000000000E0,6.00000000000000000E0));
#50=B_SPLINE_SURFACE_WITH_KNOTS('',1,1,((#46,#47),(#48,#49)),.UNSPECIFIED.,.F.,.F.,.F.,(2,2),(2,2),(0.00000000000000000E0,1.00000000000000000E0),(0.00000000000000000E0,1.00000000000000000E0),.UNSPECIFIED.);
#51=CARTESIAN_POINT('',(0.00000000000000000E0,1.00000000000000000E0,6.00000000000000000E0));
#52=CARTESIAN_POINT('',(1.00000000000000022E0,-2.22044604925031308E-16,6.00000000000000000E0));
#53=CARTESIAN_POINT('',(0.00000000000000000E0,1.00000000000000000E0,0.00000000000000000E0));
#54=CARTESIAN_POINT('',(1.00000000000000022E0,-2.22044604925031308E-16,0.00000000000000000E0));
#55=B_SPLINE_SURFACE_WITH_KNOTS('',1,1,((#51,#52),(#53,#54)),.UNSPECIFIED.,.F.,.F.,.F.,(2,2),(2,2),(0.00000000000000000E0,1.00000000000000000E0),(0.00000000000000000E0,1.00000000000000000E0),.UNSPECIFIED.);
#56=CARTESIAN_POINT('',(1.00000000000000000E0,0.00000000000000000E0,0.00000000000000000E0));
#57=CARTESIAN_POINT('',(-0.00000000000000000E0,1.00000000000000000E0,-0.00000000000000000E0));
#58=B_SPLINE_CURVE_WITH_KNOTS('',1,(#56,#57),.UNSPECIFIED.,.F.,.F.,(2,2),(0.00000000000000000E0,1.00000000000000000E0),.UNSPECIFIED.);
#59=CARTESIAN_POINT('',(-0.00000000000000000E0,1.00000000000000000E0,-0.00000000000000000E0));
#60=CARTESIAN_POINT('',(-0.00000000000000000E0,8.00000000000000000E0,-0.00000000000000000E0));
#61=B_SPLINE_CURVE_WITH_KNOTS('',1,(#59,#60),.UNSPECIFIED.,.F.,.F.,(2,2),(0.00000000000000000E0,1.00000000000000000E0),.UNSPECIFIED.);
#62=CARTESIAN_POINT('',(-0.00000000000000000E0,8.00000000000000000E0,-0.00000000000000000E0));
#63=CARTESIAN_POINT('',(1.00000000000000000E1,8.00000000000000000E0,-0.00000000000000000E0));
#64=B_SPLINE_CURVE_WITH_KNOTS('',1,(#62,#63),.UNSPECIFIED.,.F.,.F.,(2,2),(0.00000000000000000E0,1.00000000000000000E0),.UNSPECIFIED.);
#65=CARTESIAN_POINT('',(1.00000000000000000E1,8.00000000000000000E0,-0.00000000000000000E0));
#66=CARTESIAN_POINT('',(1.00000000000000000E1,-0.00000000000000000E0,-0.00000000000000000E0));
#67=B_SPLINE_CURVE_WITH_KNOTS('',1,(#65,#66),.UNSPECIFIED.,.F.,.F.,(2,2),(0.00000000000000000E0,1.00000000000000000E0),.UNSPECIFIED.);
#68=CARTESIAN_POINT('',(1.00000000000000000E0,0.00000000000000000E0,0.00000000000000000E0));
#69=CARTESIAN_POINT('',(1.00000000000000000E1,-0.00000000000000000E0,-0.00000000000000000E0));
#70=B_SPLINE_CURVE_WITH_KNOTS('',1,(#68,#69),.UNSPECIFIED.,.F.,.F.,(2,2),(0.00000000000000000E0,1.00000000000000000E0),.UNSPECIFIED.);
#71=CARTESIAN_POINT('',(0.00000000000000000E0,8.00000000000000000E0,6.00000000000000000E0));
#72=CARTESIAN_POINT('',(0.00000000000000000E0,1.00000000000000000E0,6.00000000000000000E0));
#73=B_SPLINE_CURVE_WITH_KNOTS('',1,(#71,#72),.UNSPECIFIED.,.F.,.F.,(2,2),(0.00000000000000000E0,1.00000000000000000E0),.UNSPECIFIED.);
#74=CARTESIAN_POINT('',(0.00000000000000000E0,1.00000000000000000E0,6.00000000000000000E0));
#75=CARTESIAN_POINT('',(1.00000000000000000E0,-0.00000000000000000E0,6.00000000000000000E0));
#76=B_SPLINE_CURVE_WITH_KNOTS('',1,(#74,#75),.UNSPECIFIED.,.F.,.F.,(2,2),(0.00000000000000000E0,1.00000000000000000E0),.UNSPECIFIED.);
#77=CARTESIAN_POINT('',(1.00000000000000000E0,-0.00000000000000000E0,6.00000000000000000E0));
#78=CARTESIAN_POINT('',(1.00000000000000000E1,0.00000000000000000E0,6.00000000000000000E0));
#79=B_SPLINE_CURVE_WITH_KNOTS('',1,(#77,#78),.UNSPECIFIED.,.F.,.F.,(2,2),(0.00000000000000000E0,1.00000000000000000E0),.UNSPECIFIED.);
#80=CARTESIAN_POINT('',(1.00000000000000000E1,0.00000000000000000E0,6.00000000000000000E0));
#81=CARTESIAN_POINT('',(1.00000000000000000E1,8.00000000000000000E0,6.00000000000000000E0));
#82=B_SPLINE_CURVE_WITH_KNOTS('',1,(#80,#81),.UNSPECIFIED.,.F.,.F.,(2,2),(0.00000000000000000E0,1.00000000000000000E0),.UNSPECIFIED.);
#83=CARTESIAN_POINT('',(0.00000000000000000E0,8.00000000000000000E0,6.00000000000000000E0));
#84=CARTESIAN_POINT('',(1.00000000000000000E1,8.00000000000000000E0,6.00000000000000000E0));
#85=B_SPLINE_CURVE_WITH_KNOTS('',1,(#83,#84),.UNSPECIFIED.,.F.,.F.,(2,2),(0.00000000000000000E0,1.00000000000000000E0),.UNSPECIFIED.);
#86=CARTESIAN_POINT('',(1.00000000000000000E0,0.00000000000000000E0,0.00000000000000000E0));
#87=CARTESIAN_POINT('',(1.00000000000000000E0,-0.00000000000000000E0,6.00000000000000000E0));
#88=B_SPLINE_CURVE_WITH_KNOTS('',1,(#86,#87),.UNSPECIFIED.,.F.,.F.,(2,2),(0.00000000000000000E0,1.00000000000000000E0),.UNSPECIFIED.);
#89=CARTESIAN_POINT('',(1.00000000000000000E1,-0.00000000000000000E0,-0.00000000000000000E0));
#90=CARTESIAN_POINT('',(1.00000000000000000E1,0.00000000000000000E0,6.00000000000000000E0));
#91=B_SPLINE_CURVE_WITH_KNOTS('',1,(#89,#90),.UNSPECIFIED.,.F.,.F.,(2,2),(0.00000000000000000E0,1.00000000000000000E0),.UNSPECIFIED.);
#92=CARTESIAN_POINT('',(1.00000000000000000E1,8.00000000000000000E0,-0.00000000000000000E0));
#93=CARTESIAN_POINT('',(1.00000000000000000E1,8.00000000000000000E0,6.00000000000000000E0));
#94=B_SPLINE_CURVE_WITH_KNOTS('',1,(#92,#93),.UNSPECIFIED.,.F.,.F.,(2,2),(0.00000000000000000E0,1.00000000000000000E0),.UNSPECIFIED.);
#95=CARTESIAN_POINT('',(-0.00000000000000000E0,8.00000000000000000E0,-0.00000000000000000E0));
#96=CARTESIAN_POINT('',(0.00000000000000000E0,8.00000000000000000E0,6.00000000000000000E0));
#97=B_SPLINE_CURVE_WITH_KNOTS('',1,(#95,#96),.UNSPECIFIED.,.F.,.F.,(2,2),(0.00000000000000000E0,1.00000000000000000E0),.UNSPECIFIED.);
#98=CARTESIAN_POINT('',(-0.00000000000000000E0,1.00000000000000000E0,-0.00000000000000000E0));
#99=CARTESIAN_POINT('',(0.00000000000000000E0,1.00000000000000000E0,6.00000000000000000E0));
#100=B_SPLINE_CURVE_WITH_KNOTS('',1,(#98,#99),.UNSPECIFIED.,.F.,.F.,(2,2),(0.00000000000000000E0,1.00000000000000000E0),.UNSPECIFIED.);
#101=(GEOMETRIC_REPRESENTATION_CONTEXT(2)REPRESENTATION_CONTEXT('','2D'));
#102=CARTESIAN_POINT('',(0.00000000000000000E0,1.00000000000000006E-1));
#103=CARTESIAN_POINT('',(1.25000000000000000E-1,0.00000000000000000E0));
#104=B_SPLINE_CURVE_WITH_KNOTS('',1,(#102,#103),.UNSPECIFIED.,.F.,.F.,(2,2),(0.00000000000000000E0,1.00000000000000000E0),.UNSPECIFIED.);
#105=DEFINITIONAL_REPRESENTATION('',(#104),#101);
#106=PCURVE('',#25,#105);
#107=CARTESIAN_POINT('',(1.25000000000000000E-1,0.00000000000000000E0));
#108=CARTESIAN_POINT('',(1.00000000000000000E0,0.00000000000000000E0));
#109=B_SPLINE_CURVE_WITH_KNOTS('',1,(#107,#108),.UNSPECIFIED.,.F.,.F.,(2,2),(0.00000000000000000E0,1.00000000000000000E0),.UNSPECIFIED.);
#110=DEFINITIONAL_REPRESENTATION('',(#109),#101);
#111=PCURVE('',#25,#110);
#112=CARTESIAN_POINT('',(1.00000000000000000E0,0.00000000000000000E0));
#113=CARTESIAN_POINT('',(1.00000000000000000E0,1.00000000000000000E0));
#114=B_SPLINE_CURVE_WITH_KNOTS('',1,(#112,#113),.UNSPECIFIED.,.F.,.F.,(2,2),(0.00000000000000000E0,1.00000000000000000E0),.UNSPECIFIED.);
#115=DEFINITIONAL_REPRESENTATION('',(#114),#101);
#116=PCURVE('',#25,#115);
#117=CARTESIAN_POINT('',(1.00000000000000000E0,1.00000000000000000E0));
#118=CARTESIAN_POINT('',(0.00000000000000000E0,1.00000000000000000E0));
#119=B_SPLINE_CURVE_WITH_KNOTS('',1,(#117,#118),.UNSPECIFIED.,.F.,.F.,(2,2),(0.00000000000000000E0,1.00000000000000000E0),.UNSPECIFIED.);
#120=DEFINITIONAL_REPRESENTATION('',(#119),#101);
#121=PCURVE('',#25,#120);
#122=CARTESIAN_POINT('',(0.00000000000000000E0,1.00000000000000000E0));
#123=CARTESIAN_POINT('',(0.00000000000000000E0,1.00000000000000006E-1));
#124=B_SPLINE_CURVE_WITH_KNOTS('',1,(#122,#123),.UNSPECIFIED.,.F.,.F.,(2,2),(0.00000000000000000E0,1.00000000000000000E0),.UNSPECIFIED.);
#125=DEFINITIONAL_REPRESENTATION('',(#124),#101);
#126=PCURVE('',#25,#125);
#127=CARTESIAN_POINT('',(0.00000000000000000E0,0.00000000000000000E0));
#128=CARTESIAN_POINT('',(8.75000000000000000E-1,0.00000000000000000E0));
#129=B_SPLINE_CURVE_WITH_KNOTS('',1,(#127,#128),.UNSPECIFIED.,.F.,.F.,(2,2),(0.00000000000000000E0,1.00000000000000000E0),.UNSPECIFIED.);
#130=DEFINITIONAL_REPRESENTATION('',(#129),#101);
#131=PCURVE('',#30,#130);
#132=CARTESIAN_POINT('',(8.75000000000000000E-1,0.00000000000000000E0));
#133=CARTESIAN_POINT('',(1.00000000000000000E0,1.00000000000000006E-1));
#134=B_SPLINE_CURVE_WITH_KNOTS('',1,(#132,#133),.UNSPECIFIED.,.F.,.F.,(2,2),(0.00000000000000000E0,1.00000000000000000E0),.UNSPECIFIED.);
#135=DEFINITIONAL_REPRESENTATION('',(#134),#101);
#136=PCURVE('',#30,#135);
#137=CARTESIAN_POINT('',(1.00000000000000000E0,1.00000000000000006E-1));
#138=CARTESIAN_POINT('',(1.00000000000000000E0,1.00000000000000000E0));
#139=B_SPLINE_CURVE_WITH_KNOTS('',1,(#137,#138),.UNSPECIFIED.,.F.,.F.,(2,2),(0.00000000000000000E0,1.00000000000000000E0),.UNSPECIFIED.);
#140=DEFINITIONAL_REPRESENTATION('',(#139),#101);
#141=PCURVE('',#30,#140);
#142=CARTESIAN_POINT('',(1.00000000000000000E0,1.00000000000000000E0));
#143=CARTESIAN_POINT('',(0.00000000000000000E0,1.00000000000000000E0));
#144=B_SPLINE_CURVE_WITH_KNOTS('',1,(#142,#143),.UNSPECIFIED.,.F.,.F.,(2,2),(0.00000000000000000E0,1.00000000000000000E0),.UNSPECIFIED.);
#145=DEFINITIONAL_REPRESENTATION('',(#144),#101);
#146=PCURVE('',#30,#145);
#147=CARTESIAN_POINT('',(0.00000000000000000E0,1.00000000000000000E0));
#148=CARTESIAN_POINT('',(0.00000000000000000E0,0.00000000000000000E0));
#149=B_SPLINE_CURVE_WITH_KNOTS('',1,(#147,#148),.UNSPECIFIED.,.F.,.F.,(2,2),(0.00000000000000000E0,1.00000000000000000E0),.UNSPECIFIED.);
#150=DEFINITIONAL_REPRESENTATION('',(#149),#101);
#151=PCURVE('',#30,#150);
#152=CARTESIAN_POINT('',(0.00000000000000000E0,0.00000000000000000E0));
#153=CARTESIAN_POINT('',(1.00000000000000000E0,0.00000000000000000E0));
#154=B_SPLINE_CURVE_WITH_KNOTS('',1,(#152,#153),.UNSPECIFIED.,.F.,.F.,(2,2),(0.00000000000000000E0,1.00000000000000000E0),.UNSPECIFIED.);
#155=DEFINITIONAL_REPRESENTATION('',(#154),#101);
#156=PCURVE('',#35,#155);
#157=CARTESIAN_POINT('',(1.00000000000000000E0,0.00000000000000000E0));
#158=CARTESIAN_POINT('',(1.00000000000000000E0,1.00000000000000000E0));
#159=B_SPLINE_CURVE_WITH_KNOTS('',1,(#157,#158),.UNSPECIFIED.,.F.,.F.,(2,2),(0.00000000000000000E0,1.00000000000000000E0),.UNSPECIFIED.);
#160=DEFINITIONAL_REPRESENTATION('',(#159),#101);
#161=PCURVE('',#35,#160);
#162=CARTESIAN_POINT('',(1.00000000000000000E0,1.00000000000000000E0));
#163=CARTESIAN_POINT('',(0.00000000000000000E0,1.00000000000000000E0));
#164=B_SPLINE_CURVE_WITH_KNOTS('',1,(#162,#163),.UNSPECIFIED.,.F.,.F.,(2,2),(0.00000000000000000E0,1.00000000000000000E0),.UNSPECIFIED.);
#165=DEFINITIONAL_REPRESENTATION('',(#164),#101);
#166=PCURVE('',#35,#165);
#167=CARTESIAN_POINT('',(0.00000000000000000E0,1.00000000000000000E0));
#168=CARTESIAN_POINT('',(0.00000000000000000E0,0.00000000000000000E0));
#169=B_SPLINE_CURVE_WITH_KNOTS('',1,(#167,#168),.UNSPECIFIED.,.F.,.F.,(2,2),(0.00000000000000000E0,1.00000000000000000E0),.UNSPECIFIED.);
#170=DEFINITIONAL_REPRESENTATION('',(#169),#101);
#171=PCURVE('',#35,#170);
#172=CARTESIAN_POINT('',(0.00000000000000000E0,0.00000000000000000E0));
#173=CARTESIAN_POINT('',(1.00000000000000000E0,0.00000000000000000E0));
#174=B_SPLINE_CURVE_WITH_KNOTS('',1,(#172,#173),.UNSPECIFIED.,.F.,.F.,(2,2),(0.00000000000000000E0,1.00000000000000000E0),.UNSPECIFIED.);
#175=DEFINITIONAL_REPRESENTATION('',(#174),#101);
#176=PCURVE('',#40,#175);
#177=CARTESIAN_POINT('',(1.00000000000000000E0,0.00000000000000000E0));
#178=CARTESIAN_POINT('',(1.00000000000000000E0,1.00000000000000000E0));
#179=B_SPLINE_CURVE_WITH_KNOTS('',1,(#177,#178),.UNSPECIFIED.,.F.,.F.,(2,2),(0.00000000000000000E0,1.00000000000000000E0),.UNSPECIFIED.);
#180=DEFINITIONAL_REPRESENTATION('',(#179),#101);
#181=PCURVE('',#40,#180);
#182=CARTESIAN_POINT('',(1.00000000000000000E0,1.00000000000000000E0));
#183=CARTESIAN_POINT('',(0.00000000000000000E0,1.00000000000000000E0));
#184=B_SPLINE_CURVE_WITH_KNOTS('',1,(#182,#183),.UNSPECIFIED.,.F.,.F.,(2,2),(0.00000000000000000E0,1.00000000000000000E0),.UNSPECIFIED.);
#185=DEFINITIONAL_REPRESENTATION('',(#184),#101);
#186=PCURVE('',#40,#185);
#187=CARTESIAN_POINT('',(0.00000000000000000E0,1.00000000000000000E0));
#188=CARTESIAN_POINT('',(0.00000000000000000E0,0.00000000000000000E0));
#189=B_SPLINE_CURVE_WITH_KNOTS('',1,(#187,#188),.UNSPECIFIED.,.F.,.F.,(2,2),(0.00000000000000000E0,1.00000000000000000E0),.UNSPECIFIED.);
#190=DEFINITIONAL_REPRESENTATION('',(#189),#101);
#191=PCURVE('',#40,#190);
#192=CARTESIAN_POINT('',(0.00000000000000000E0,0.00000000000000000E0));
#193=CARTESIAN_POINT('',(1.00000000000000000E0,0.00000000000000000E0));
#194=B_SPLINE_CURVE_WITH_KNOTS('',1,(#192,#193),.UNSPECIFIED.,.F.,.F.,(2,2),(0.00000000000000000E0,1.00000000000000000E0),.UNSPECIFIED.);
#195=DEFINITIONAL_REPRESENTATION('',(#194),#101);
#196=PCURVE('',#45,#195);
#197=CARTESIAN_POINT('',(1.00000000000000000E0,0.00000000000000000E0));
#198=CARTESIAN_POINT('',(1.00000000000000000E0,1.00000000000000000E0));
#199=B_SPLINE_CURVE_WITH_KNOTS('',1,(#197,#198),.UNSPECIFIED.,.F.,.F.,(2,2),(0.00000000000000000E0,1.00000000000000000E0),.UNSPECIFIED.);
#200=DEFINITIONAL_REPRESENTATION('',(#199),#101);
#201=PCURVE('',#45,#200);
#202=CARTESIAN_POINT('',(1.00000000000000000E0,1.00000000000000000E0));
#203=CARTESIAN_POINT('',(0.00000000000000000E0,1.00000000000000000E0));
#204=B_SPLINE_CURVE_WITH_KNOTS('',1,(#202,#203),.UNSPECIFIED.,.F.,.F.,(2,2),(0.00000000000000000E0,1.00000000000000000E0),.UNSPECIFIED.);
#205=DEFINITIONAL_REPRESENTATION('',(#204),#101);
#206=PCURVE('',#45,#205);
#207=CARTESIAN_POINT('',(0.00000000000000000E0,1.00000000000000000E0));
#208=CARTESIAN_POINT('',(0.00000000000000000E0,0.00000000000000000E0));
#209=B_SPLINE_CURVE_WITH_KNOTS('',1,(#207,#208),.UNSPECIFIED.,.F.,.F.,(2,2),(0.00000000000000000E0,1.00000000000000000E0),.UNSPECIFIED.);
#210=DEFINITIONAL_REPRESENTATION('',(#209),#101);
#211=PCURVE('',#45,#210);
#212=CARTESIAN_POINT('',(0.00000000000000000E0,0.00000000000000000E0));
#213=CARTESIAN_POINT('',(1.00000000000000000E0,0.00000000000000000E0));
#214=B_SPLINE_CURVE_WITH_KNOTS('',1,(#212,#213),.UNSPECIFIED.,.F.,.F.,(2,2),(0.00000000000000000E0,1.00000000000000000E0),.UNSPECIFIED.);
#215=DEFINITIONAL_REPRESENTATION('',(#214),#101);
#216=PCURVE('',#50,#215);
#217=CARTESIAN_POINT('',(1.00000000000000000E0,0.00000000000000000E0));
#218=CARTESIAN_POINT('',(1.00000000000000000E0,1.00000000000000000E0));
#219=B_SPLINE_CURVE_WITH_KNOTS('',1,(#217,#218),.UNSPECIFIED.,.F.,.F.,(2,2),(0.00000000000000000E0,1.00000000000000000E0),.UNSPECIFIED.);
#220=DEFINITIONAL_REPRESENTATION('',(#219),#101);
#221=PCURVE('',#50,#220);
#222=CARTESIAN_POINT('',(1.00000000000000000E0,1.00000000000000000E0));
#223=CARTESIAN_POINT('',(0.00000000000000000E0,1.00000000000000000E0));
#224=B_SPLINE_CURVE_WITH_KNOTS('',1,(#222,#223),.UNSPECIFIED.,.F.,.F.,(2,2),(0.00000000000000000E0,1.00000000000000000E0),.UNSPECIFIED.);
#225=DEFINITIONAL_REPRESENTATION('',(#224),#101);
#226=PCURVE('',#50,#225);
#227=CARTESIAN_POINT('',(0.00000000000000000E0,1.00000000000000000E0));
#228=CARTESIAN_POINT('',(0.00000000000000000E0,0.00000000000000000E0));
#229=B_SPLINE_CURVE_WITH_KNOTS('',1,(#227,#228),.UNSPECIFIED.,.F.,.F.,(2,2),(0.00000000000000000E0,1.00000000000000000E0),.UNSPECIFIED.);
#230=DEFINITIONAL_REPRESENTATION('',(#229),#101);
#231=PCURVE('',#50,#230);
#232=CARTESIAN_POINT('',(0.00000000000000000E0,0.00000000000000000E0));
#233=CARTESIAN_POINT('',(1.00000000000000000E0,0.00000000000000000E0));
#234=B_SPLINE_CURVE_WITH_KNOTS('',1,(#232,#233),.UNSPECIFIED.,.F.,.F.,(2,2),(0.00000000000000000E0,1.00000000000000000E0),.UNSPECIFIED.);
#235=DEFINITIONAL_REPRESENTATION('',(#234),#101);
#236=PCURVE('',#55,#235);
#237=CARTESIAN_POINT('',(1.00000000000000000E0,0.00000000000000000E0));
#238=CARTESIAN_POINT('',(1.00000000000000000E0,1.00000000000000000E0));
#239=B_SPLINE_CURVE_WITH_KNOTS('',1,(#237,#238),.UNSPECIFIED.,.F.,.F.,(2,2),(0.00000000000000000E0,1.00000000000000000E0),.UNSPECIFIED.);
#240=DEFINITIONAL_REPRESENTATION('',(#239),#101);
#241=PCURVE('',#55,#240);
#242=CARTESIAN_POINT('',(1.00000000000000000E0,1.00000000000000000E0));
#243=CARTESIAN_POINT('',(0.00000000000000000E0,1.00000000000000000E0));
#244=B_SPLINE_CURVE_WITH_KNOTS('',1,(#242,#243),.UNSPECIFIED.,.F.,.F.,(2,2),(0.00000000000000000E0,1.00000000000000000E0),.UNSPECIFIED.);
#245=DEFINITIONAL_REPRESENTATION('',(#244),#101);
#246=PCURVE('',#55,#245);
#247=CARTESIAN_POINT('',(0.00000000000000000E0,1.00000000000000000E0));
#248=CARTESIAN_POINT('',(0.00000000000000000E0,0.00000000000000000E0));
#249=B_SPLINE_CURVE_WITH_KNOTS('',1,(#247,#248),.UNSPECIFIED.,.F.,.F.,(2,2),(0.00000000000000000E0,1.00000000000000000E0),.UNSPECIFIED.);
#250=DEFINITIONAL_REPRESENTATION('',(#249),#101);
#251=PCURVE('',#55,#250);
#252=SURFACE_CURVE('',#58,(#106,#241),.PCURVE_S1.);
#253=EDGE_CURVE('OSCAD_TOPO/3|edge|e:bc8bb7edcc258c227dcd49ca7a65ef06|0cdb86cdad1ca2fb33dc8bd86b70b5ec39be3ca93bd6dadb7d51abbd2e4e59f2',#2,#4,#252,.T.);
#254=SURFACE_CURVE('',#61,(#111,#231),.PCURVE_S1.);
#255=EDGE_CURVE('OSCAD_TOPO/3|edge|e:858eeb97759997864faa14db5e392178|d2885d74621040c8f5936dc144098c33221167fd113aaaeb1da66e9b1f5461e9',#4,#6,#254,.T.);
#256=SURFACE_CURVE('',#64,(#116,#211),.PCURVE_S1.);
#257=EDGE_CURVE('OSCAD_TOPO/3|edge|e:32ca12f6c4ec37055bf83c6c4093a0ba|fd919f1e5f0f9dae5348ca186b631153c28bb1d6099bba9f8a2b021024306e5a',#6,#8,#256,.T.);
#258=SURFACE_CURVE('',#67,(#121,#181),.PCURVE_S1.);
#259=EDGE_CURVE('OSCAD_TOPO/3|edge|e:23f66ba741ea7dbfeb90e6e135298609|fe1a827288f02d1d81a4c0480b6ae1c3946a99543cd04a6be91b89e54afa4895',#8,#10,#258,.T.);
#260=SURFACE_CURVE('',#70,(#126,#161),.PCURVE_S1.);
#261=EDGE_CURVE('OSCAD_TOPO/3|edge|e:40863d4e1525724979e96a2c865de011|5b4d4c7f91a206101d847fd545a7e74d08a7572ce59de8c68fa234ade8919a87',#2,#10,#260,.T.);
#262=SURFACE_CURVE('',#73,(#131,#221),.PCURVE_S1.);
#263=EDGE_CURVE('OSCAD_TOPO/3|edge|e:290c411ef342278fb0ed00fb3c2f38fc|58827b4003eed3076828d206f7b17df9912a7e6c43fd93cb0c1b24838e614398',#12,#14,#262,.T.);
#264=SURFACE_CURVE('',#76,(#136,#251),.PCURVE_S1.);
#265=EDGE_CURVE('OSCAD_TOPO/3|edge|e:3b55ea272985f8fa2a39213ec9c10a49|192d51053edb7d949f3c37cdd2f20aa9d41c6ba1938da3a009e615190b210e1e',#14,#16,#264,.T.);
#266=SURFACE_CURVE('',#79,(#141,#171),.PCURVE_S1.);
#267=EDGE_CURVE('OSCAD_TOPO/3|edge|e:cbb34e75c062902348ad656ffdabf1a7|ce0785fc1592a98d2c57433adcc5e4b6e217cec064cff17cdc7f8823cbc9bd19',#16,#18,#266,.T.);
#268=SURFACE_CURVE('',#82,(#146,#191),.PCURVE_S1.);
#269=EDGE_CURVE('OSCAD_TOPO/3|edge|e:97de442a996fb4fc068d601591f93dcc|401bcce6a758953a71fd328946136040eeea65a10c9333d90c7315a0cc503f89',#18,#20,#268,.T.);
#270=SURFACE_CURVE('',#85,(#151,#201),.PCURVE_S1.);
#271=EDGE_CURVE('OSCAD_TOPO/3|edge|e:8daec46f0bcb9104c431e7f0e2826e31|0907d03da2919bf9bf86db055ba43c01e20af63facbe35bb00fd442400eb5c08',#12,#20,#270,.T.);
#272=SURFACE_CURVE('',#88,(#156,#246),.PCURVE_S1.);
#273=EDGE_CURVE('OSCAD_TOPO/3|edge|e:c0edc8e507e7fabbcaf36307e2892fc9|97d3ab559f662c74cf097e6eaba9f7108c093dc6ad8382e2c6b4fc0c0170c956',#2,#16,#272,.T.);
#274=SURFACE_CURVE('',#91,(#166,#176),.PCURVE_S1.);
#275=EDGE_CURVE('OSCAD_TOPO/3|edge|e:db35eaabe23d2dddbfb5afbdaa1da2ed|b5f7ddab1df781c468bdede609b874b2bfbf4bed7b9f7bd69a6cf6228c9b7254',#10,#18,#274,.T.);
#276=SURFACE_CURVE('',#94,(#186,#206),.PCURVE_S1.);
#277=EDGE_CURVE('OSCAD_TOPO/3|edge|e:59a774f0e3526744dd1c1d64ad9d8086|55007705f310fcc34550b2da2fc92d188a76242440bef722c37b38a56dcb496c',#8,#20,#276,.T.);
#278=SURFACE_CURVE('',#97,(#196,#226),.PCURVE_S1.);
#279=EDGE_CURVE('OSCAD_TOPO/3|edge|e:c184c8a94b5df5771f033a156f9a6d59|889254c420d433b1f248ed816d93866a3c9f4b3a5a4326c98132af35ff468676',#6,#12,#278,.T.);
#280=SURFACE_CURVE('',#100,(#216,#236),.PCURVE_S1.);
#281=EDGE_CURVE('OSCAD_TOPO/3|edge|e:4400077f14bcbe7136c96679a56ca311|3ea494333ca4d33d07179bca39c4b4456334cf0aeb98d4465c47a9f7b585e593',#4,#14,#280,.T.);
#282=ORIENTED_EDGE('',*,*,#253,.T.);
#283=ORIENTED_EDGE('',*,*,#255,.T.);
#284=ORIENTED_EDGE('',*,*,#257,.T.);
#285=ORIENTED_EDGE('',*,*,#259,.T.);
#286=ORIENTED_EDGE('',*,*,#261,.F.);
#287=EDGE_LOOP('OSCAD_TOPO/3|loop|l:89fb8047995bab136c27fca42e65e8e1|97b85dc74bf87b16638237978929609f7cbca6975aac48f2db6f012f21f295be',(#282,#283,#284,#285,#286));
#288=ORIENTED_EDGE('',*,*,#263,.T.);
#289=ORIENTED_EDGE('',*,*,#265,.T.);
#290=ORIENTED_EDGE('',*,*,#267,.T.);
#291=ORIENTED_EDGE('',*,*,#269,.T.);
#292=ORIENTED_EDGE('',*,*,#271,.F.);
#293=EDGE_LOOP('OSCAD_TOPO/3|loop|l:ef205b8b70d709e2d237f7b071fc5766|b65bb94309b2cb2a7dc6b6ec760b950111a7e1e4c7ed303720ee1fbc1ceaadec',(#288,#289,#290,#291,#292));
#294=ORIENTED_EDGE('',*,*,#273,.F.);
#295=ORIENTED_EDGE('',*,*,#261,.T.);
#296=ORIENTED_EDGE('',*,*,#275,.T.);
#297=ORIENTED_EDGE('',*,*,#267,.F.);
#298=EDGE_LOOP('OSCAD_TOPO/3|loop|l:c9e25830dcb03fa3d9abab7c27f275f3|f9d373b0a4c9bc844e3504a5b4c1d3fb550d0d658d510aae33e7515da179a75b',(#294,#295,#296,#297));
#299=ORIENTED_EDGE('',*,*,#275,.F.);
#300=ORIENTED_EDGE('',*,*,#259,.F.);
#301=ORIENTED_EDGE('',*,*,#277,.T.);
#302=ORIENTED_EDGE('',*,*,#269,.F.);
#303=EDGE_LOOP('OSCAD_TOPO/3|loop|l:1719b2e15c317e4b0f0708719d7317e5|1390524d2935ff3e7417257da41c02ec25585eb6ac4df48fc92041353b01c620',(#299,#300,#301,#302));
#304=ORIENTED_EDGE('',*,*,#279,.T.);
#305=ORIENTED_EDGE('',*,*,#271,.T.);
#306=ORIENTED_EDGE('',*,*,#277,.F.);
#307=ORIENTED_EDGE('',*,*,#257,.F.);
#308=EDGE_LOOP('OSCAD_TOPO/3|loop|l:24cafc38d7e43c224b9ba8321c9d3a11|e9ecc642579cac7d79da3710c6130aefa724f832dec0e66f6280e9ddb6ce6791',(#304,#305,#306,#307));
#309=ORIENTED_EDGE('',*,*,#281,.T.);
#310=ORIENTED_EDGE('',*,*,#263,.F.);
#311=ORIENTED_EDGE('',*,*,#279,.F.);
#312=ORIENTED_EDGE('',*,*,#255,.F.);
#313=EDGE_LOOP('OSCAD_TOPO/3|loop|l:023e4226015ac6e192f298317a09341c|6e9bd490df16b9dcc854bf1fd3db2dacc48750e305dc1a81e758ae4d6bf0aff1',(#309,#310,#311,#312));
#314=ORIENTED_EDGE('',*,*,#281,.F.);
#315=ORIENTED_EDGE('',*,*,#253,.F.);
#316=ORIENTED_EDGE('',*,*,#273,.T.);
#317=ORIENTED_EDGE('',*,*,#265,.F.);
#318=EDGE_LOOP('OSCAD_TOPO/3|loop|l:f132815104ce96bb9fca491b9b081879|e5179477e7f8c78d97a6a1160f31fbbb5b9c9dea5278a34d4952a7e289b28d39',(#314,#315,#316,#317));
#319=FACE_OUTER_BOUND('',#287,.T.);
#320=ADVANCED_FACE('OSCAD_TOPO/3|face|f:e7719fb424f2163e2c09df29d33365bc|777985955399af7472cf21be025ac32639c961f6f65188eac08268465c15053c',(#319),#25,.T.);
#321=FACE_OUTER_BOUND('',#293,.T.);
#322=ADVANCED_FACE('OSCAD_TOPO/3|face|f:039b8e7d1c472d798d8dc07b48c60d34|ca26ed00cb54f0e46f0473e6907541cbc3572bd36468ad7434c3244313b38fd8',(#321),#30,.T.);
#323=FACE_OUTER_BOUND('',#298,.T.);
#324=ADVANCED_FACE('OSCAD_TOPO/3|face|f:eb7a2b004dc44275883d19aba0bde1c2|a46a370e900bfdfa0de102b0226a26c4f0687e5f4db9661f229f7037c5673710',(#323),#35,.T.);
#325=FACE_OUTER_BOUND('',#303,.T.);
#326=ADVANCED_FACE('OSCAD_TOPO/3|face|f:b1513535e44eac69816c1fb5d5a2bf83|fbdf33532c2189283a63697f0b09621f01dbd9fe0b905bb8e83d766aca50591b',(#325),#40,.T.);
#327=FACE_OUTER_BOUND('',#308,.T.);
#328=ADVANCED_FACE('OSCAD_TOPO/3|face|f:8667d390306342b5740a35f72b653ecf|053bfb41dbcd5d39c717d2750554c6d09566a76609a0011ece70211262ef3ae5',(#327),#45,.T.);
#329=FACE_OUTER_BOUND('',#313,.T.);
#330=ADVANCED_FACE('OSCAD_TOPO/3|face|f:947d1021bedca838bc6af0452808948f|6e5b4ac14a112d1f2fafde094110df3c532a7cdf9348f09bc1df8d0aac55b948',(#329),#50,.T.);
#331=FACE_OUTER_BOUND('',#318,.T.);
#332=ADVANCED_FACE('OSCAD_TOPO/3|face|f:8857ce599a9dabfed2d4a6b3d4d237d0|40a58dafc45692c7998b364ea86830eb49e302f4c75114268290861660279427',(#331),#55,.T.);
#333=CLOSED_SHELL('OSCAD_TOPO/3|shell|s:1368fe2d6a584a457a03b054720bb527|e64cefab1423470f3609f60c0bd5e42295cb1363ee99c24d91edac1ba4e8f6bb',(#320,#324,#322,#326,#328,#330,#332));
#334=MANIFOLD_SOLID_BREP('OSCAD_TOPO/3|body|b:58e8ac9705b9b4e94f9dce2c3b2c7be1|d111bb94b8a0d56272d33e11030a079ddb33c081b237d313f7874a3e51731c09',#333);
#335=(LENGTH_UNIT()NAMED_UNIT(*)SI_UNIT(.MILLI.,.METRE.));
#336=UNCERTAINTY_MEASURE_WITH_UNIT(LENGTH_MEASURE(9.99999999999999955E-8),#335,'distance_accuracy_value','');
#337=(GEOMETRIC_REPRESENTATION_CONTEXT(3)GLOBAL_UNCERTAINTY_ASSIGNED_CONTEXT((#336))GLOBAL_UNIT_ASSIGNED_CONTEXT((#335))REPRESENTATION_CONTEXT('','3D'));
#338=ADVANCED_BREP_SHAPE_REPRESENTATION('',(#334),#337);
#339=APPLICATION_CONTEXT('managed model based 3d engineering');
#340=PRODUCT_CONTEXT('',#339,'mechanical');
#341=PRODUCT('model','model','',(#340));
#342=PRODUCT_DEFINITION_FORMATION('1','',#341);
#343=PRODUCT_DEFINITION_CONTEXT('part definition',#339,'design');
#344=PRODUCT_DEFINITION('design','',#342,#343);
#345=PRODUCT_DEFINITION_SHAPE('','',#344);
#346=SHAPE_DEFINITION_REPRESENTATION(#345,#338);
ENDSEC;
END-ISO-10303-21;
