ISO-10303-21;
HEADER;
FILE_DESCRIPTION(('OpenSCAD Viewer retained AP242 B-rep'),'2;1');
FILE_NAME('model.step','',(''),(''),'OpenSCAD Viewer','OpenSCAD Viewer','');
FILE_SCHEMA(('AP242_MANAGED_MODEL_BASED_3D_ENGINEERING_MIM_LF'));
ENDSEC;
DATA;
#1=CARTESIAN_POINT('',(2.00000000000000044E0,8.00000000000000000E0,0.00000000000000000E0));
#2=VERTEX_POINT('OSCAD_TOPO/3|vertex|v:757c3354bca517d9414b37b0349337c9|01f3c8cf14cb467ffa124a94ee6d7a40b0606e13e745fdeccb73a72c8789965b',#1);
#3=CARTESIAN_POINT('',(0.00000000000000000E0,6.00000000000000000E0,0.00000000000000000E0));
#4=VERTEX_POINT('OSCAD_TOPO/3|vertex|v:200b784af31b84f1c3d008faa1011d8d|64c9fe4b933d885dd1b545a33bf1363f8545e3a0f78ba0905092b7e3132933d1',#3);
#5=CARTESIAN_POINT('',(0.00000000000000000E0,2.00000000000000089E0,0.00000000000000000E0));
#6=VERTEX_POINT('OSCAD_TOPO/3|vertex|v:0d734311a9b0c1d7a2fa702a40c01688|a5128ac37d27ce69eb29ed284869a4f7639f61af435196dc2016a6d60a258116',#5);
#7=CARTESIAN_POINT('',(2.00000000000000044E0,0.00000000000000000E0,0.00000000000000000E0));
#8=VERTEX_POINT('OSCAD_TOPO/3|vertex|v:7c6a068a156bdc17aa0761c97b5700ab|6acd7c5d8ff4b077c080e15296bc8d466f84e6c03fc164e84973bdd0321d3e59',#7);
#9=CARTESIAN_POINT('',(8.00000000000000000E0,0.00000000000000000E0,0.00000000000000000E0));
#10=VERTEX_POINT('OSCAD_TOPO/3|vertex|v:07720a061eecc28a2d7844e564055068|6cfc48afd0b141bcec1895bb3a93c53419fa4e9c017777961c356ffe4f8fdc54',#9);
#11=CARTESIAN_POINT('',(1.00000000000000000E1,2.00000000000000044E0,0.00000000000000000E0));
#12=VERTEX_POINT('OSCAD_TOPO/3|vertex|v:f87515c20d69e1a51abff6abcad83189|07441061b1650d0872907756fc84030b4280f89d4ae0f07d7305d90965f7fe20',#11);
#13=CARTESIAN_POINT('',(1.00000000000000000E1,6.00000000000000000E0,0.00000000000000000E0));
#14=VERTEX_POINT('OSCAD_TOPO/3|vertex|v:fbd456b1dc8e3162cb40fa2bbedc0511|a132c9ebee7b8ef1d9734b96a0071448f3869973089a782069c06fe779c497b4',#13);
#15=CARTESIAN_POINT('',(8.00000000000000000E0,8.00000000000000000E0,0.00000000000000000E0));
#16=VERTEX_POINT('OSCAD_TOPO/3|vertex|v:815e19e69bb4d9db5bed314fe80a14d1|7fe656f6fbda62bb54adf8fda60e4a85df21f213f80a7081c0e34f5070981772',#15);
#17=CARTESIAN_POINT('',(2.00000000000000044E0,8.00000000000000000E0,6.00000000000000000E0));
#18=VERTEX_POINT('OSCAD_TOPO/3|vertex|v:2a266d99c010839540094cad9e793d5e|77148f2b412fad9bb3f34fccb8e20c084a0083994e70507a15cadc2558fe9aea',#17);
#19=CARTESIAN_POINT('',(0.00000000000000000E0,6.00000000000000000E0,6.00000000000000000E0));
#20=VERTEX_POINT('OSCAD_TOPO/3|vertex|v:599d8627531e975c1c3ca9a1822b7f3b|940dc7e0f423410da6776d80fbd7af12c5208aa20f5f01cd8eebcd379a2dee91',#19);
#21=CARTESIAN_POINT('',(0.00000000000000000E0,2.00000000000000089E0,6.00000000000000000E0));
#22=VERTEX_POINT('OSCAD_TOPO/3|vertex|v:9df08b6c2722c1144472b767c1c2b0a5|112b81202e7ee92fcee86f4d7973e92d848e15f67f40301071d3567b4c3cc430',#21);
#23=CARTESIAN_POINT('',(2.00000000000000044E0,0.00000000000000000E0,6.00000000000000000E0));
#24=VERTEX_POINT('OSCAD_TOPO/3|vertex|v:bbbbeca20ad1926670adca78960fed46|439d7478c8111309d77c9cb2f645519af5431a80ae411a0e9b08479f1d1401b0',#23);
#25=CARTESIAN_POINT('',(8.00000000000000000E0,0.00000000000000000E0,6.00000000000000000E0));
#26=VERTEX_POINT('OSCAD_TOPO/3|vertex|v:489111dd2077f01697a2c4f266651f39|78430877a598609d0c11682b07ee44efd209e16560b9736394b7241f75837a76',#25);
#27=CARTESIAN_POINT('',(1.00000000000000000E1,2.00000000000000044E0,6.00000000000000000E0));
#28=VERTEX_POINT('OSCAD_TOPO/3|vertex|v:efd6cc598cbbc8438696511da98913ef|c2a04d43bed7917335dadd8839c335a3a28761c98fd27e7dc1dc9640673328b4',#27);
#29=CARTESIAN_POINT('',(1.00000000000000000E1,6.00000000000000000E0,6.00000000000000000E0));
#30=VERTEX_POINT('OSCAD_TOPO/3|vertex|v:8c05e81ee56a5e09139848bc35d67c8e|413c9e1436bfc20d2479e13ff413abaf0bb5ae03f6ac771c7d73ddd24d4c7c4a',#29);
#31=CARTESIAN_POINT('',(8.00000000000000000E0,8.00000000000000000E0,6.00000000000000000E0));
#32=VERTEX_POINT('OSCAD_TOPO/3|vertex|v:3efb620bc02ddb6d7d512779906e54a6|fc9cca38405d5d4d7871a4916515c2b70aeb3a8e5f59462548bb9c65d3c88497',#31);
#33=CARTESIAN_POINT('',(2.00000000000000044E0,8.00000000000000000E0,0.00000000000000000E0));
#34=CARTESIAN_POINT('',(2.00000000000000044E0,8.00000000000000000E0,6.00000000000000000E0));
#35=CARTESIAN_POINT('',(2.22044604925031308E-16,8.00000000000000000E0,0.00000000000000000E0));
#36=CARTESIAN_POINT('',(2.22044604925031308E-16,8.00000000000000000E0,6.00000000000000000E0));
#37=CARTESIAN_POINT('',(0.00000000000000000E0,6.00000000000000000E0,0.00000000000000000E0));
#38=CARTESIAN_POINT('',(0.00000000000000000E0,6.00000000000000000E0,6.00000000000000000E0));
#39=(BOUNDED_SURFACE()B_SPLINE_SURFACE(2,1,((#33,#34),(#35,#36),(#37,#38)),.UNSPECIFIED.,.F.,.F.,.F.)B_SPLINE_SURFACE_WITH_KNOTS((3,3),(2,2),(0.00000000000000000E0,1.00000000000000000E0),(0.00000000000000000E0,1.00000000000000000E0),.UNSPECIFIED.)GEOMETRIC_REPRESENTATION_ITEM()RATIONAL_B_SPLINE_SURFACE(((1.00000000000000000E0,1.00000000000000000E0),(7.07106781186547573E-1,7.07106781186547573E-1),(1.00000000000000000E0,1.00000000000000000E0)))REPRESENTATION_ITEM('')SURFACE());
#40=CARTESIAN_POINT('',(0.00000000000000000E0,6.00000000000000000E0,0.00000000000000000E0));
#41=CARTESIAN_POINT('',(0.00000000000000000E0,6.00000000000000000E0,6.00000000000000000E0));
#42=CARTESIAN_POINT('',(0.00000000000000000E0,2.00000000000000044E0,0.00000000000000000E0));
#43=CARTESIAN_POINT('',(0.00000000000000000E0,2.00000000000000044E0,6.00000000000000000E0));
#44=B_SPLINE_SURFACE_WITH_KNOTS('',1,1,((#40,#41),(#42,#43)),.UNSPECIFIED.,.F.,.F.,.F.,(2,2),(2,2),(0.00000000000000000E0,1.00000000000000000E0),(0.00000000000000000E0,1.00000000000000000E0),.UNSPECIFIED.);
#45=CARTESIAN_POINT('',(0.00000000000000000E0,2.00000000000000089E0,0.00000000000000000E0));
#46=CARTESIAN_POINT('',(0.00000000000000000E0,2.00000000000000089E0,6.00000000000000000E0));
#47=CARTESIAN_POINT('',(-4.44089209850062616E-16,8.88178419700125232E-16,0.00000000000000000E0));
#48=CARTESIAN_POINT('',(-4.44089209850062616E-16,8.88178419700125232E-16,6.00000000000000000E0));
#49=CARTESIAN_POINT('',(1.99999999999999911E0,0.00000000000000000E0,0.00000000000000000E0));
#50=CARTESIAN_POINT('',(1.99999999999999911E0,0.00000000000000000E0,6.00000000000000000E0));
#51=(BOUNDED_SURFACE()B_SPLINE_SURFACE(2,1,((#45,#46),(#47,#48),(#49,#50)),.UNSPECIFIED.,.F.,.F.,.F.)B_SPLINE_SURFACE_WITH_KNOTS((3,3),(2,2),(0.00000000000000000E0,1.00000000000000000E0),(0.00000000000000000E0,1.00000000000000000E0),.UNSPECIFIED.)GEOMETRIC_REPRESENTATION_ITEM()RATIONAL_B_SPLINE_SURFACE(((1.00000000000000000E0,1.00000000000000000E0),(7.07106781186547573E-1,7.07106781186547573E-1),(1.00000000000000000E0,1.00000000000000000E0)))REPRESENTATION_ITEM('')SURFACE());
#52=CARTESIAN_POINT('',(2.00000000000000044E0,0.00000000000000000E0,0.00000000000000000E0));
#53=CARTESIAN_POINT('',(2.00000000000000044E0,0.00000000000000000E0,6.00000000000000000E0));
#54=CARTESIAN_POINT('',(8.00000000000000000E0,0.00000000000000000E0,0.00000000000000000E0));
#55=CARTESIAN_POINT('',(8.00000000000000000E0,0.00000000000000000E0,6.00000000000000000E0));
#56=B_SPLINE_SURFACE_WITH_KNOTS('',1,1,((#52,#53),(#54,#55)),.UNSPECIFIED.,.F.,.F.,.F.,(2,2),(2,2),(0.00000000000000000E0,1.00000000000000000E0),(0.00000000000000000E0,1.00000000000000000E0),.UNSPECIFIED.);
#57=CARTESIAN_POINT('',(8.00000000000000000E0,0.00000000000000000E0,0.00000000000000000E0));
#58=CARTESIAN_POINT('',(8.00000000000000000E0,0.00000000000000000E0,6.00000000000000000E0));
#59=CARTESIAN_POINT('',(1.00000000000000000E1,0.00000000000000000E0,0.00000000000000000E0));
#60=CARTESIAN_POINT('',(1.00000000000000000E1,0.00000000000000000E0,6.00000000000000000E0));
#61=CARTESIAN_POINT('',(1.00000000000000000E1,1.99999999999999978E0,0.00000000000000000E0));
#62=CARTESIAN_POINT('',(1.00000000000000000E1,1.99999999999999978E0,6.00000000000000000E0));
#63=(BOUNDED_SURFACE()B_SPLINE_SURFACE(2,1,((#57,#58),(#59,#60),(#61,#62)),.UNSPECIFIED.,.F.,.F.,.F.)B_SPLINE_SURFACE_WITH_KNOTS((3,3),(2,2),(0.00000000000000000E0,1.00000000000000000E0),(0.00000000000000000E0,1.00000000000000000E0),.UNSPECIFIED.)GEOMETRIC_REPRESENTATION_ITEM()RATIONAL_B_SPLINE_SURFACE(((1.00000000000000000E0,1.00000000000000000E0),(7.07106781186547573E-1,7.07106781186547573E-1),(1.00000000000000000E0,1.00000000000000000E0)))REPRESENTATION_ITEM('')SURFACE());
#64=CARTESIAN_POINT('',(1.00000000000000000E1,2.00000000000000044E0,0.00000000000000000E0));
#65=CARTESIAN_POINT('',(1.00000000000000000E1,2.00000000000000044E0,6.00000000000000000E0));
#66=CARTESIAN_POINT('',(1.00000000000000000E1,6.00000000000000000E0,0.00000000000000000E0));
#67=CARTESIAN_POINT('',(1.00000000000000000E1,6.00000000000000000E0,6.00000000000000000E0));
#68=B_SPLINE_SURFACE_WITH_KNOTS('',1,1,((#64,#65),(#66,#67)),.UNSPECIFIED.,.F.,.F.,.F.,(2,2),(2,2),(0.00000000000000000E0,1.00000000000000000E0),(0.00000000000000000E0,1.00000000000000000E0),.UNSPECIFIED.);
#69=CARTESIAN_POINT('',(1.00000000000000000E1,6.00000000000000000E0,0.00000000000000000E0));
#70=CARTESIAN_POINT('',(1.00000000000000000E1,6.00000000000000000E0,6.00000000000000000E0));
#71=CARTESIAN_POINT('',(1.00000000000000000E1,8.00000000000000000E0,0.00000000000000000E0));
#72=CARTESIAN_POINT('',(1.00000000000000000E1,8.00000000000000000E0,6.00000000000000000E0));
#73=CARTESIAN_POINT('',(8.00000000000000000E0,8.00000000000000000E0,0.00000000000000000E0));
#74=CARTESIAN_POINT('',(8.00000000000000000E0,8.00000000000000000E0,6.00000000000000000E0));
#75=(BOUNDED_SURFACE()B_SPLINE_SURFACE(2,1,((#69,#70),(#71,#72),(#73,#74)),.UNSPECIFIED.,.F.,.F.,.F.)B_SPLINE_SURFACE_WITH_KNOTS((3,3),(2,2),(0.00000000000000000E0,1.00000000000000000E0),(0.00000000000000000E0,1.00000000000000000E0),.UNSPECIFIED.)GEOMETRIC_REPRESENTATION_ITEM()RATIONAL_B_SPLINE_SURFACE(((1.00000000000000000E0,1.00000000000000000E0),(7.07106781186547573E-1,7.07106781186547573E-1),(1.00000000000000000E0,1.00000000000000000E0)))REPRESENTATION_ITEM('')SURFACE());
#76=CARTESIAN_POINT('',(8.00000000000000000E0,8.00000000000000000E0,0.00000000000000000E0));
#77=CARTESIAN_POINT('',(8.00000000000000000E0,8.00000000000000000E0,6.00000000000000000E0));
#78=CARTESIAN_POINT('',(2.00000000000000044E0,8.00000000000000000E0,0.00000000000000000E0));
#79=CARTESIAN_POINT('',(2.00000000000000044E0,8.00000000000000000E0,6.00000000000000000E0));
#80=B_SPLINE_SURFACE_WITH_KNOTS('',1,1,((#76,#77),(#78,#79)),.UNSPECIFIED.,.F.,.F.,.F.,(2,2),(2,2),(0.00000000000000000E0,1.00000000000000000E0),(0.00000000000000000E0,1.00000000000000000E0),.UNSPECIFIED.);
#81=CARTESIAN_POINT('',(-4.44089209850062616E-16,0.00000000000000000E0,0.00000000000000000E0));
#82=CARTESIAN_POINT('',(1.00000000000000000E1,0.00000000000000000E0,0.00000000000000000E0));
#83=CARTESIAN_POINT('',(-4.44089209850062616E-16,8.00000000000000000E0,0.00000000000000000E0));
#84=CARTESIAN_POINT('',(1.00000000000000000E1,8.00000000000000000E0,0.00000000000000000E0));
#85=B_SPLINE_SURFACE_WITH_KNOTS('',1,1,((#81,#82),(#83,#84)),.UNSPECIFIED.,.F.,.F.,.F.,(2,2),(2,2),(0.00000000000000000E0,1.00000000000000000E0),(0.00000000000000000E0,1.00000000000000000E0),.UNSPECIFIED.);
#86=CARTESIAN_POINT('',(-4.44089209850062616E-16,8.00000000000000000E0,6.00000000000000000E0));
#87=CARTESIAN_POINT('',(1.00000000000000000E1,8.00000000000000000E0,6.00000000000000000E0));
#88=CARTESIAN_POINT('',(-4.44089209850062616E-16,0.00000000000000000E0,6.00000000000000000E0));
#89=CARTESIAN_POINT('',(1.00000000000000000E1,0.00000000000000000E0,6.00000000000000000E0));
#90=B_SPLINE_SURFACE_WITH_KNOTS('',1,1,((#86,#87),(#88,#89)),.UNSPECIFIED.,.F.,.F.,.F.,(2,2),(2,2),(0.00000000000000000E0,1.00000000000000000E0),(0.00000000000000000E0,1.00000000000000000E0),.UNSPECIFIED.);
#91=CARTESIAN_POINT('',(2.00000000000000044E0,8.00000000000000000E0,0.00000000000000000E0));
#92=CARTESIAN_POINT('',(2.22044604925031308E-16,8.00000000000000000E0,0.00000000000000000E0));
#93=CARTESIAN_POINT('',(0.00000000000000000E0,6.00000000000000000E0,0.00000000000000000E0));
#94=(BOUNDED_CURVE()B_SPLINE_CURVE(2,(#91,#92,#93),.UNSPECIFIED.,.F.,.F.)B_SPLINE_CURVE_WITH_KNOTS((3,3),(0.00000000000000000E0,1.00000000000000000E0),.UNSPECIFIED.)CURVE()GEOMETRIC_REPRESENTATION_ITEM()RATIONAL_B_SPLINE_CURVE((1.00000000000000000E0,7.07106781186547573E-1,1.00000000000000000E0))REPRESENTATION_ITEM(''));
#95=CARTESIAN_POINT('',(2.00000000000000044E0,8.00000000000000000E0,6.00000000000000000E0));
#96=CARTESIAN_POINT('',(2.22044604925031308E-16,8.00000000000000000E0,6.00000000000000000E0));
#97=CARTESIAN_POINT('',(0.00000000000000000E0,6.00000000000000000E0,6.00000000000000000E0));
#98=(BOUNDED_CURVE()B_SPLINE_CURVE(2,(#95,#96,#97),.UNSPECIFIED.,.F.,.F.)B_SPLINE_CURVE_WITH_KNOTS((3,3),(0.00000000000000000E0,1.00000000000000000E0),.UNSPECIFIED.)CURVE()GEOMETRIC_REPRESENTATION_ITEM()RATIONAL_B_SPLINE_CURVE((1.00000000000000000E0,7.07106781186547573E-1,1.00000000000000000E0))REPRESENTATION_ITEM(''));
#99=CARTESIAN_POINT('',(0.00000000000000000E0,6.00000000000000000E0,0.00000000000000000E0));
#100=CARTESIAN_POINT('',(0.00000000000000000E0,2.00000000000000044E0,0.00000000000000000E0));
#101=B_SPLINE_CURVE_WITH_KNOTS('',1,(#99,#100),.UNSPECIFIED.,.F.,.F.,(2,2),(0.00000000000000000E0,1.00000000000000000E0),.UNSPECIFIED.);
#102=CARTESIAN_POINT('',(0.00000000000000000E0,6.00000000000000000E0,6.00000000000000000E0));
#103=CARTESIAN_POINT('',(0.00000000000000000E0,2.00000000000000044E0,6.00000000000000000E0));
#104=B_SPLINE_CURVE_WITH_KNOTS('',1,(#102,#103),.UNSPECIFIED.,.F.,.F.,(2,2),(0.00000000000000000E0,1.00000000000000000E0),.UNSPECIFIED.);
#105=CARTESIAN_POINT('',(0.00000000000000000E0,2.00000000000000089E0,0.00000000000000000E0));
#106=CARTESIAN_POINT('',(-4.44089209850062616E-16,8.88178419700125232E-16,0.00000000000000000E0));
#107=CARTESIAN_POINT('',(1.99999999999999911E0,0.00000000000000000E0,0.00000000000000000E0));
#108=(BOUNDED_CURVE()B_SPLINE_CURVE(2,(#105,#106,#107),.UNSPECIFIED.,.F.,.F.)B_SPLINE_CURVE_WITH_KNOTS((3,3),(0.00000000000000000E0,1.00000000000000000E0),.UNSPECIFIED.)CURVE()GEOMETRIC_REPRESENTATION_ITEM()RATIONAL_B_SPLINE_CURVE((1.00000000000000000E0,7.07106781186547573E-1,1.00000000000000000E0))REPRESENTATION_ITEM(''));
#109=CARTESIAN_POINT('',(0.00000000000000000E0,2.00000000000000089E0,6.00000000000000000E0));
#110=CARTESIAN_POINT('',(-4.44089209850062616E-16,8.88178419700125232E-16,6.00000000000000000E0));
#111=CARTESIAN_POINT('',(1.99999999999999911E0,0.00000000000000000E0,6.00000000000000000E0));
#112=(BOUNDED_CURVE()B_SPLINE_CURVE(2,(#109,#110,#111),.UNSPECIFIED.,.F.,.F.)B_SPLINE_CURVE_WITH_KNOTS((3,3),(0.00000000000000000E0,1.00000000000000000E0),.UNSPECIFIED.)CURVE()GEOMETRIC_REPRESENTATION_ITEM()RATIONAL_B_SPLINE_CURVE((1.00000000000000000E0,7.07106781186547573E-1,1.00000000000000000E0))REPRESENTATION_ITEM(''));
#113=CARTESIAN_POINT('',(2.00000000000000044E0,0.00000000000000000E0,0.00000000000000000E0));
#114=CARTESIAN_POINT('',(8.00000000000000000E0,0.00000000000000000E0,0.00000000000000000E0));
#115=B_SPLINE_CURVE_WITH_KNOTS('',1,(#113,#114),.UNSPECIFIED.,.F.,.F.,(2,2),(0.00000000000000000E0,1.00000000000000000E0),.UNSPECIFIED.);
#116=CARTESIAN_POINT('',(2.00000000000000044E0,0.00000000000000000E0,6.00000000000000000E0));
#117=CARTESIAN_POINT('',(8.00000000000000000E0,0.00000000000000000E0,6.00000000000000000E0));
#118=B_SPLINE_CURVE_WITH_KNOTS('',1,(#116,#117),.UNSPECIFIED.,.F.,.F.,(2,2),(0.00000000000000000E0,1.00000000000000000E0),.UNSPECIFIED.);
#119=CARTESIAN_POINT('',(8.00000000000000000E0,0.00000000000000000E0,0.00000000000000000E0));
#120=CARTESIAN_POINT('',(1.00000000000000000E1,0.00000000000000000E0,0.00000000000000000E0));
#121=CARTESIAN_POINT('',(1.00000000000000000E1,1.99999999999999978E0,0.00000000000000000E0));
#122=(BOUNDED_CURVE()B_SPLINE_CURVE(2,(#119,#120,#121),.UNSPECIFIED.,.F.,.F.)B_SPLINE_CURVE_WITH_KNOTS((3,3),(0.00000000000000000E0,1.00000000000000000E0),.UNSPECIFIED.)CURVE()GEOMETRIC_REPRESENTATION_ITEM()RATIONAL_B_SPLINE_CURVE((1.00000000000000000E0,7.07106781186547573E-1,1.00000000000000000E0))REPRESENTATION_ITEM(''));
#123=CARTESIAN_POINT('',(8.00000000000000000E0,0.00000000000000000E0,6.00000000000000000E0));
#124=CARTESIAN_POINT('',(1.00000000000000000E1,0.00000000000000000E0,6.00000000000000000E0));
#125=CARTESIAN_POINT('',(1.00000000000000000E1,1.99999999999999978E0,6.00000000000000000E0));
#126=(BOUNDED_CURVE()B_SPLINE_CURVE(2,(#123,#124,#125),.UNSPECIFIED.,.F.,.F.)B_SPLINE_CURVE_WITH_KNOTS((3,3),(0.00000000000000000E0,1.00000000000000000E0),.UNSPECIFIED.)CURVE()GEOMETRIC_REPRESENTATION_ITEM()RATIONAL_B_SPLINE_CURVE((1.00000000000000000E0,7.07106781186547573E-1,1.00000000000000000E0))REPRESENTATION_ITEM(''));
#127=CARTESIAN_POINT('',(1.00000000000000000E1,2.00000000000000044E0,0.00000000000000000E0));
#128=CARTESIAN_POINT('',(1.00000000000000000E1,6.00000000000000000E0,0.00000000000000000E0));
#129=B_SPLINE_CURVE_WITH_KNOTS('',1,(#127,#128),.UNSPECIFIED.,.F.,.F.,(2,2),(0.00000000000000000E0,1.00000000000000000E0),.UNSPECIFIED.);
#130=CARTESIAN_POINT('',(1.00000000000000000E1,2.00000000000000044E0,6.00000000000000000E0));
#131=CARTESIAN_POINT('',(1.00000000000000000E1,6.00000000000000000E0,6.00000000000000000E0));
#132=B_SPLINE_CURVE_WITH_KNOTS('',1,(#130,#131),.UNSPECIFIED.,.F.,.F.,(2,2),(0.00000000000000000E0,1.00000000000000000E0),.UNSPECIFIED.);
#133=CARTESIAN_POINT('',(1.00000000000000000E1,6.00000000000000000E0,0.00000000000000000E0));
#134=CARTESIAN_POINT('',(1.00000000000000000E1,8.00000000000000000E0,0.00000000000000000E0));
#135=CARTESIAN_POINT('',(8.00000000000000000E0,8.00000000000000000E0,0.00000000000000000E0));
#136=(BOUNDED_CURVE()B_SPLINE_CURVE(2,(#133,#134,#135),.UNSPECIFIED.,.F.,.F.)B_SPLINE_CURVE_WITH_KNOTS((3,3),(0.00000000000000000E0,1.00000000000000000E0),.UNSPECIFIED.)CURVE()GEOMETRIC_REPRESENTATION_ITEM()RATIONAL_B_SPLINE_CURVE((1.00000000000000000E0,7.07106781186547573E-1,1.00000000000000000E0))REPRESENTATION_ITEM(''));
#137=CARTESIAN_POINT('',(1.00000000000000000E1,6.00000000000000000E0,6.00000000000000000E0));
#138=CARTESIAN_POINT('',(1.00000000000000000E1,8.00000000000000000E0,6.00000000000000000E0));
#139=CARTESIAN_POINT('',(8.00000000000000000E0,8.00000000000000000E0,6.00000000000000000E0));
#140=(BOUNDED_CURVE()B_SPLINE_CURVE(2,(#137,#138,#139),.UNSPECIFIED.,.F.,.F.)B_SPLINE_CURVE_WITH_KNOTS((3,3),(0.00000000000000000E0,1.00000000000000000E0),.UNSPECIFIED.)CURVE()GEOMETRIC_REPRESENTATION_ITEM()RATIONAL_B_SPLINE_CURVE((1.00000000000000000E0,7.07106781186547573E-1,1.00000000000000000E0))REPRESENTATION_ITEM(''));
#141=CARTESIAN_POINT('',(8.00000000000000000E0,8.00000000000000000E0,0.00000000000000000E0));
#142=CARTESIAN_POINT('',(2.00000000000000044E0,8.00000000000000000E0,0.00000000000000000E0));
#143=B_SPLINE_CURVE_WITH_KNOTS('',1,(#141,#142),.UNSPECIFIED.,.F.,.F.,(2,2),(0.00000000000000000E0,1.00000000000000000E0),.UNSPECIFIED.);
#144=CARTESIAN_POINT('',(8.00000000000000000E0,8.00000000000000000E0,6.00000000000000000E0));
#145=CARTESIAN_POINT('',(2.00000000000000044E0,8.00000000000000000E0,6.00000000000000000E0));
#146=B_SPLINE_CURVE_WITH_KNOTS('',1,(#144,#145),.UNSPECIFIED.,.F.,.F.,(2,2),(0.00000000000000000E0,1.00000000000000000E0),.UNSPECIFIED.);
#147=CARTESIAN_POINT('',(2.00000000000000044E0,8.00000000000000000E0,0.00000000000000000E0));
#148=CARTESIAN_POINT('',(2.00000000000000044E0,8.00000000000000000E0,6.00000000000000000E0));
#149=B_SPLINE_CURVE_WITH_KNOTS('',1,(#147,#148),.UNSPECIFIED.,.F.,.F.,(2,2),(0.00000000000000000E0,1.00000000000000000E0),.UNSPECIFIED.);
#150=CARTESIAN_POINT('',(0.00000000000000000E0,6.00000000000000000E0,0.00000000000000000E0));
#151=CARTESIAN_POINT('',(0.00000000000000000E0,6.00000000000000000E0,6.00000000000000000E0));
#152=B_SPLINE_CURVE_WITH_KNOTS('',1,(#150,#151),.UNSPECIFIED.,.F.,.F.,(2,2),(0.00000000000000000E0,1.00000000000000000E0),.UNSPECIFIED.);
#153=CARTESIAN_POINT('',(0.00000000000000000E0,2.00000000000000089E0,0.00000000000000000E0));
#154=CARTESIAN_POINT('',(0.00000000000000000E0,2.00000000000000089E0,6.00000000000000000E0));
#155=B_SPLINE_CURVE_WITH_KNOTS('',1,(#153,#154),.UNSPECIFIED.,.F.,.F.,(2,2),(0.00000000000000000E0,1.00000000000000000E0),.UNSPECIFIED.);
#156=CARTESIAN_POINT('',(2.00000000000000044E0,0.00000000000000000E0,0.00000000000000000E0));
#157=CARTESIAN_POINT('',(2.00000000000000044E0,0.00000000000000000E0,6.00000000000000000E0));
#158=B_SPLINE_CURVE_WITH_KNOTS('',1,(#156,#157),.UNSPECIFIED.,.F.,.F.,(2,2),(0.00000000000000000E0,1.00000000000000000E0),.UNSPECIFIED.);
#159=CARTESIAN_POINT('',(8.00000000000000000E0,0.00000000000000000E0,0.00000000000000000E0));
#160=CARTESIAN_POINT('',(8.00000000000000000E0,0.00000000000000000E0,6.00000000000000000E0));
#161=B_SPLINE_CURVE_WITH_KNOTS('',1,(#159,#160),.UNSPECIFIED.,.F.,.F.,(2,2),(0.00000000000000000E0,1.00000000000000000E0),.UNSPECIFIED.);
#162=CARTESIAN_POINT('',(1.00000000000000000E1,2.00000000000000044E0,0.00000000000000000E0));
#163=CARTESIAN_POINT('',(1.00000000000000000E1,2.00000000000000044E0,6.00000000000000000E0));
#164=B_SPLINE_CURVE_WITH_KNOTS('',1,(#162,#163),.UNSPECIFIED.,.F.,.F.,(2,2),(0.00000000000000000E0,1.00000000000000000E0),.UNSPECIFIED.);
#165=CARTESIAN_POINT('',(1.00000000000000000E1,6.00000000000000000E0,0.00000000000000000E0));
#166=CARTESIAN_POINT('',(1.00000000000000000E1,6.00000000000000000E0,6.00000000000000000E0));
#167=B_SPLINE_CURVE_WITH_KNOTS('',1,(#165,#166),.UNSPECIFIED.,.F.,.F.,(2,2),(0.00000000000000000E0,1.00000000000000000E0),.UNSPECIFIED.);
#168=CARTESIAN_POINT('',(8.00000000000000000E0,8.00000000000000000E0,0.00000000000000000E0));
#169=CARTESIAN_POINT('',(8.00000000000000000E0,8.00000000000000000E0,6.00000000000000000E0));
#170=B_SPLINE_CURVE_WITH_KNOTS('',1,(#168,#169),.UNSPECIFIED.,.F.,.F.,(2,2),(0.00000000000000000E0,1.00000000000000000E0),.UNSPECIFIED.);
#171=(GEOMETRIC_REPRESENTATION_CONTEXT(2)REPRESENTATION_CONTEXT('','2D'));
#172=CARTESIAN_POINT('',(0.00000000000000000E0,0.00000000000000000E0));
#173=CARTESIAN_POINT('',(1.00000000000000000E0,0.00000000000000000E0));
#174=B_SPLINE_CURVE_WITH_KNOTS('',1,(#172,#173),.UNSPECIFIED.,.F.,.F.,(2,2),(0.00000000000000000E0,1.00000000000000000E0),.UNSPECIFIED.);
#175=DEFINITIONAL_REPRESENTATION('',(#174),#171);
#176=PCURVE('',#39,#175);
#177=CARTESIAN_POINT('',(1.00000000000000000E0,0.00000000000000000E0));
#178=CARTESIAN_POINT('',(1.00000000000000000E0,1.00000000000000000E0));
#179=B_SPLINE_CURVE_WITH_KNOTS('',1,(#177,#178),.UNSPECIFIED.,.F.,.F.,(2,2),(0.00000000000000000E0,1.00000000000000000E0),.UNSPECIFIED.);
#180=DEFINITIONAL_REPRESENTATION('',(#179),#171);
#181=PCURVE('',#39,#180);
#182=CARTESIAN_POINT('',(1.00000000000000000E0,1.00000000000000000E0));
#183=CARTESIAN_POINT('',(0.00000000000000000E0,1.00000000000000000E0));
#184=B_SPLINE_CURVE_WITH_KNOTS('',1,(#182,#183),.UNSPECIFIED.,.F.,.F.,(2,2),(0.00000000000000000E0,1.00000000000000000E0),.UNSPECIFIED.);
#185=DEFINITIONAL_REPRESENTATION('',(#184),#171);
#186=PCURVE('',#39,#185);
#187=CARTESIAN_POINT('',(0.00000000000000000E0,1.00000000000000000E0));
#188=CARTESIAN_POINT('',(0.00000000000000000E0,0.00000000000000000E0));
#189=B_SPLINE_CURVE_WITH_KNOTS('',1,(#187,#188),.UNSPECIFIED.,.F.,.F.,(2,2),(0.00000000000000000E0,1.00000000000000000E0),.UNSPECIFIED.);
#190=DEFINITIONAL_REPRESENTATION('',(#189),#171);
#191=PCURVE('',#39,#190);
#192=CARTESIAN_POINT('',(0.00000000000000000E0,0.00000000000000000E0));
#193=CARTESIAN_POINT('',(1.00000000000000000E0,0.00000000000000000E0));
#194=B_SPLINE_CURVE_WITH_KNOTS('',1,(#192,#193),.UNSPECIFIED.,.F.,.F.,(2,2),(0.00000000000000000E0,1.00000000000000000E0),.UNSPECIFIED.);
#195=DEFINITIONAL_REPRESENTATION('',(#194),#171);
#196=PCURVE('',#44,#195);
#197=CARTESIAN_POINT('',(1.00000000000000000E0,0.00000000000000000E0));
#198=CARTESIAN_POINT('',(1.00000000000000000E0,1.00000000000000000E0));
#199=B_SPLINE_CURVE_WITH_KNOTS('',1,(#197,#198),.UNSPECIFIED.,.F.,.F.,(2,2),(0.00000000000000000E0,1.00000000000000000E0),.UNSPECIFIED.);
#200=DEFINITIONAL_REPRESENTATION('',(#199),#171);
#201=PCURVE('',#44,#200);
#202=CARTESIAN_POINT('',(1.00000000000000000E0,1.00000000000000000E0));
#203=CARTESIAN_POINT('',(0.00000000000000000E0,1.00000000000000000E0));
#204=B_SPLINE_CURVE_WITH_KNOTS('',1,(#202,#203),.UNSPECIFIED.,.F.,.F.,(2,2),(0.00000000000000000E0,1.00000000000000000E0),.UNSPECIFIED.);
#205=DEFINITIONAL_REPRESENTATION('',(#204),#171);
#206=PCURVE('',#44,#205);
#207=CARTESIAN_POINT('',(0.00000000000000000E0,1.00000000000000000E0));
#208=CARTESIAN_POINT('',(0.00000000000000000E0,0.00000000000000000E0));
#209=B_SPLINE_CURVE_WITH_KNOTS('',1,(#207,#208),.UNSPECIFIED.,.F.,.F.,(2,2),(0.00000000000000000E0,1.00000000000000000E0),.UNSPECIFIED.);
#210=DEFINITIONAL_REPRESENTATION('',(#209),#171);
#211=PCURVE('',#44,#210);
#212=CARTESIAN_POINT('',(0.00000000000000000E0,0.00000000000000000E0));
#213=CARTESIAN_POINT('',(1.00000000000000000E0,0.00000000000000000E0));
#214=B_SPLINE_CURVE_WITH_KNOTS('',1,(#212,#213),.UNSPECIFIED.,.F.,.F.,(2,2),(0.00000000000000000E0,1.00000000000000000E0),.UNSPECIFIED.);
#215=DEFINITIONAL_REPRESENTATION('',(#214),#171);
#216=PCURVE('',#51,#215);
#217=CARTESIAN_POINT('',(1.00000000000000000E0,0.00000000000000000E0));
#218=CARTESIAN_POINT('',(1.00000000000000000E0,1.00000000000000000E0));
#219=B_SPLINE_CURVE_WITH_KNOTS('',1,(#217,#218),.UNSPECIFIED.,.F.,.F.,(2,2),(0.00000000000000000E0,1.00000000000000000E0),.UNSPECIFIED.);
#220=DEFINITIONAL_REPRESENTATION('',(#219),#171);
#221=PCURVE('',#51,#220);
#222=CARTESIAN_POINT('',(1.00000000000000000E0,1.00000000000000000E0));
#223=CARTESIAN_POINT('',(0.00000000000000000E0,1.00000000000000000E0));
#224=B_SPLINE_CURVE_WITH_KNOTS('',1,(#222,#223),.UNSPECIFIED.,.F.,.F.,(2,2),(0.00000000000000000E0,1.00000000000000000E0),.UNSPECIFIED.);
#225=DEFINITIONAL_REPRESENTATION('',(#224),#171);
#226=PCURVE('',#51,#225);
#227=CARTESIAN_POINT('',(0.00000000000000000E0,1.00000000000000000E0));
#228=CARTESIAN_POINT('',(0.00000000000000000E0,0.00000000000000000E0));
#229=B_SPLINE_CURVE_WITH_KNOTS('',1,(#227,#228),.UNSPECIFIED.,.F.,.F.,(2,2),(0.00000000000000000E0,1.00000000000000000E0),.UNSPECIFIED.);
#230=DEFINITIONAL_REPRESENTATION('',(#229),#171);
#231=PCURVE('',#51,#230);
#232=CARTESIAN_POINT('',(0.00000000000000000E0,0.00000000000000000E0));
#233=CARTESIAN_POINT('',(1.00000000000000000E0,0.00000000000000000E0));
#234=B_SPLINE_CURVE_WITH_KNOTS('',1,(#232,#233),.UNSPECIFIED.,.F.,.F.,(2,2),(0.00000000000000000E0,1.00000000000000000E0),.UNSPECIFIED.);
#235=DEFINITIONAL_REPRESENTATION('',(#234),#171);
#236=PCURVE('',#56,#235);
#237=CARTESIAN_POINT('',(1.00000000000000000E0,0.00000000000000000E0));
#238=CARTESIAN_POINT('',(1.00000000000000000E0,1.00000000000000000E0));
#239=B_SPLINE_CURVE_WITH_KNOTS('',1,(#237,#238),.UNSPECIFIED.,.F.,.F.,(2,2),(0.00000000000000000E0,1.00000000000000000E0),.UNSPECIFIED.);
#240=DEFINITIONAL_REPRESENTATION('',(#239),#171);
#241=PCURVE('',#56,#240);
#242=CARTESIAN_POINT('',(1.00000000000000000E0,1.00000000000000000E0));
#243=CARTESIAN_POINT('',(0.00000000000000000E0,1.00000000000000000E0));
#244=B_SPLINE_CURVE_WITH_KNOTS('',1,(#242,#243),.UNSPECIFIED.,.F.,.F.,(2,2),(0.00000000000000000E0,1.00000000000000000E0),.UNSPECIFIED.);
#245=DEFINITIONAL_REPRESENTATION('',(#244),#171);
#246=PCURVE('',#56,#245);
#247=CARTESIAN_POINT('',(0.00000000000000000E0,1.00000000000000000E0));
#248=CARTESIAN_POINT('',(0.00000000000000000E0,0.00000000000000000E0));
#249=B_SPLINE_CURVE_WITH_KNOTS('',1,(#247,#248),.UNSPECIFIED.,.F.,.F.,(2,2),(0.00000000000000000E0,1.00000000000000000E0),.UNSPECIFIED.);
#250=DEFINITIONAL_REPRESENTATION('',(#249),#171);
#251=PCURVE('',#56,#250);
#252=CARTESIAN_POINT('',(0.00000000000000000E0,0.00000000000000000E0));
#253=CARTESIAN_POINT('',(1.00000000000000000E0,0.00000000000000000E0));
#254=B_SPLINE_CURVE_WITH_KNOTS('',1,(#252,#253),.UNSPECIFIED.,.F.,.F.,(2,2),(0.00000000000000000E0,1.00000000000000000E0),.UNSPECIFIED.);
#255=DEFINITIONAL_REPRESENTATION('',(#254),#171);
#256=PCURVE('',#63,#255);
#257=CARTESIAN_POINT('',(1.00000000000000000E0,0.00000000000000000E0));
#258=CARTESIAN_POINT('',(1.00000000000000000E0,1.00000000000000000E0));
#259=B_SPLINE_CURVE_WITH_KNOTS('',1,(#257,#258),.UNSPECIFIED.,.F.,.F.,(2,2),(0.00000000000000000E0,1.00000000000000000E0),.UNSPECIFIED.);
#260=DEFINITIONAL_REPRESENTATION('',(#259),#171);
#261=PCURVE('',#63,#260);
#262=CARTESIAN_POINT('',(1.00000000000000000E0,1.00000000000000000E0));
#263=CARTESIAN_POINT('',(0.00000000000000000E0,1.00000000000000000E0));
#264=B_SPLINE_CURVE_WITH_KNOTS('',1,(#262,#263),.UNSPECIFIED.,.F.,.F.,(2,2),(0.00000000000000000E0,1.00000000000000000E0),.UNSPECIFIED.);
#265=DEFINITIONAL_REPRESENTATION('',(#264),#171);
#266=PCURVE('',#63,#265);
#267=CARTESIAN_POINT('',(0.00000000000000000E0,1.00000000000000000E0));
#268=CARTESIAN_POINT('',(0.00000000000000000E0,0.00000000000000000E0));
#269=B_SPLINE_CURVE_WITH_KNOTS('',1,(#267,#268),.UNSPECIFIED.,.F.,.F.,(2,2),(0.00000000000000000E0,1.00000000000000000E0),.UNSPECIFIED.);
#270=DEFINITIONAL_REPRESENTATION('',(#269),#171);
#271=PCURVE('',#63,#270);
#272=CARTESIAN_POINT('',(0.00000000000000000E0,0.00000000000000000E0));
#273=CARTESIAN_POINT('',(1.00000000000000000E0,0.00000000000000000E0));
#274=B_SPLINE_CURVE_WITH_KNOTS('',1,(#272,#273),.UNSPECIFIED.,.F.,.F.,(2,2),(0.00000000000000000E0,1.00000000000000000E0),.UNSPECIFIED.);
#275=DEFINITIONAL_REPRESENTATION('',(#274),#171);
#276=PCURVE('',#68,#275);
#277=CARTESIAN_POINT('',(1.00000000000000000E0,0.00000000000000000E0));
#278=CARTESIAN_POINT('',(1.00000000000000000E0,1.00000000000000000E0));
#279=B_SPLINE_CURVE_WITH_KNOTS('',1,(#277,#278),.UNSPECIFIED.,.F.,.F.,(2,2),(0.00000000000000000E0,1.00000000000000000E0),.UNSPECIFIED.);
#280=DEFINITIONAL_REPRESENTATION('',(#279),#171);
#281=PCURVE('',#68,#280);
#282=CARTESIAN_POINT('',(1.00000000000000000E0,1.00000000000000000E0));
#283=CARTESIAN_POINT('',(0.00000000000000000E0,1.00000000000000000E0));
#284=B_SPLINE_CURVE_WITH_KNOTS('',1,(#282,#283),.UNSPECIFIED.,.F.,.F.,(2,2),(0.00000000000000000E0,1.00000000000000000E0),.UNSPECIFIED.);
#285=DEFINITIONAL_REPRESENTATION('',(#284),#171);
#286=PCURVE('',#68,#285);
#287=CARTESIAN_POINT('',(0.00000000000000000E0,1.00000000000000000E0));
#288=CARTESIAN_POINT('',(0.00000000000000000E0,0.00000000000000000E0));
#289=B_SPLINE_CURVE_WITH_KNOTS('',1,(#287,#288),.UNSPECIFIED.,.F.,.F.,(2,2),(0.00000000000000000E0,1.00000000000000000E0),.UNSPECIFIED.);
#290=DEFINITIONAL_REPRESENTATION('',(#289),#171);
#291=PCURVE('',#68,#290);
#292=CARTESIAN_POINT('',(0.00000000000000000E0,0.00000000000000000E0));
#293=CARTESIAN_POINT('',(1.00000000000000000E0,0.00000000000000000E0));
#294=B_SPLINE_CURVE_WITH_KNOTS('',1,(#292,#293),.UNSPECIFIED.,.F.,.F.,(2,2),(0.00000000000000000E0,1.00000000000000000E0),.UNSPECIFIED.);
#295=DEFINITIONAL_REPRESENTATION('',(#294),#171);
#296=PCURVE('',#75,#295);
#297=CARTESIAN_POINT('',(1.00000000000000000E0,0.00000000000000000E0));
#298=CARTESIAN_POINT('',(1.00000000000000000E0,1.00000000000000000E0));
#299=B_SPLINE_CURVE_WITH_KNOTS('',1,(#297,#298),.UNSPECIFIED.,.F.,.F.,(2,2),(0.00000000000000000E0,1.00000000000000000E0),.UNSPECIFIED.);
#300=DEFINITIONAL_REPRESENTATION('',(#299),#171);
#301=PCURVE('',#75,#300);
#302=CARTESIAN_POINT('',(1.00000000000000000E0,1.00000000000000000E0));
#303=CARTESIAN_POINT('',(0.00000000000000000E0,1.00000000000000000E0));
#304=B_SPLINE_CURVE_WITH_KNOTS('',1,(#302,#303),.UNSPECIFIED.,.F.,.F.,(2,2),(0.00000000000000000E0,1.00000000000000000E0),.UNSPECIFIED.);
#305=DEFINITIONAL_REPRESENTATION('',(#304),#171);
#306=PCURVE('',#75,#305);
#307=CARTESIAN_POINT('',(0.00000000000000000E0,1.00000000000000000E0));
#308=CARTESIAN_POINT('',(0.00000000000000000E0,0.00000000000000000E0));
#309=B_SPLINE_CURVE_WITH_KNOTS('',1,(#307,#308),.UNSPECIFIED.,.F.,.F.,(2,2),(0.00000000000000000E0,1.00000000000000000E0),.UNSPECIFIED.);
#310=DEFINITIONAL_REPRESENTATION('',(#309),#171);
#311=PCURVE('',#75,#310);
#312=CARTESIAN_POINT('',(0.00000000000000000E0,0.00000000000000000E0));
#313=CARTESIAN_POINT('',(1.00000000000000000E0,0.00000000000000000E0));
#314=B_SPLINE_CURVE_WITH_KNOTS('',1,(#312,#313),.UNSPECIFIED.,.F.,.F.,(2,2),(0.00000000000000000E0,1.00000000000000000E0),.UNSPECIFIED.);
#315=DEFINITIONAL_REPRESENTATION('',(#314),#171);
#316=PCURVE('',#80,#315);
#317=CARTESIAN_POINT('',(1.00000000000000000E0,0.00000000000000000E0));
#318=CARTESIAN_POINT('',(1.00000000000000000E0,1.00000000000000000E0));
#319=B_SPLINE_CURVE_WITH_KNOTS('',1,(#317,#318),.UNSPECIFIED.,.F.,.F.,(2,2),(0.00000000000000000E0,1.00000000000000000E0),.UNSPECIFIED.);
#320=DEFINITIONAL_REPRESENTATION('',(#319),#171);
#321=PCURVE('',#80,#320);
#322=CARTESIAN_POINT('',(1.00000000000000000E0,1.00000000000000000E0));
#323=CARTESIAN_POINT('',(0.00000000000000000E0,1.00000000000000000E0));
#324=B_SPLINE_CURVE_WITH_KNOTS('',1,(#322,#323),.UNSPECIFIED.,.F.,.F.,(2,2),(0.00000000000000000E0,1.00000000000000000E0),.UNSPECIFIED.);
#325=DEFINITIONAL_REPRESENTATION('',(#324),#171);
#326=PCURVE('',#80,#325);
#327=CARTESIAN_POINT('',(0.00000000000000000E0,1.00000000000000000E0));
#328=CARTESIAN_POINT('',(0.00000000000000000E0,0.00000000000000000E0));
#329=B_SPLINE_CURVE_WITH_KNOTS('',1,(#327,#328),.UNSPECIFIED.,.F.,.F.,(2,2),(0.00000000000000000E0,1.00000000000000000E0),.UNSPECIFIED.);
#330=DEFINITIONAL_REPRESENTATION('',(#329),#171);
#331=PCURVE('',#80,#330);
#332=CARTESIAN_POINT('',(1.00000000000000000E0,2.00000000000000094E-1));
#333=CARTESIAN_POINT('',(1.00000000000000000E0,8.00000000000000044E-1));
#334=B_SPLINE_CURVE_WITH_KNOTS('',1,(#332,#333),.UNSPECIFIED.,.F.,.F.,(2,2),(0.00000000000000000E0,1.00000000000000000E0),.UNSPECIFIED.);
#335=DEFINITIONAL_REPRESENTATION('',(#334),#171);
#336=PCURVE('',#85,#335);
#337=CARTESIAN_POINT('',(1.00000000000000000E0,8.00000000000000044E-1));
#338=CARTESIAN_POINT('',(1.00000000000000000E0,1.00000000000000000E0));
#339=CARTESIAN_POINT('',(7.50000000000000000E-1,1.00000000000000000E0));
#340=(BOUNDED_CURVE()B_SPLINE_CURVE(2,(#337,#338,#339),.UNSPECIFIED.,.F.,.F.)B_SPLINE_CURVE_WITH_KNOTS((3,3),(0.00000000000000000E0,1.00000000000000000E0),.UNSPECIFIED.)CURVE()GEOMETRIC_REPRESENTATION_ITEM()RATIONAL_B_SPLINE_CURVE((1.00000000000000000E0,7.07106781186547573E-1,1.00000000000000000E0))REPRESENTATION_ITEM(''));
#341=DEFINITIONAL_REPRESENTATION('',(#340),#171);
#342=PCURVE('',#85,#341);
#343=CARTESIAN_POINT('',(7.50000000000000000E-1,1.00000000000000000E0));
#344=CARTESIAN_POINT('',(2.50000000000000000E-1,1.00000000000000000E0));
#345=B_SPLINE_CURVE_WITH_KNOTS('',1,(#343,#344),.UNSPECIFIED.,.F.,.F.,(2,2),(0.00000000000000000E0,1.00000000000000000E0),.UNSPECIFIED.);
#346=DEFINITIONAL_REPRESENTATION('',(#345),#171);
#347=PCURVE('',#85,#346);
#348=CARTESIAN_POINT('',(2.50000000000000000E-1,1.00000000000000000E0));
#349=CARTESIAN_POINT('',(0.00000000000000000E0,1.00000000000000000E0));
#350=CARTESIAN_POINT('',(0.00000000000000000E0,8.00000000000000044E-1));
#351=(BOUNDED_CURVE()B_SPLINE_CURVE(2,(#348,#349,#350),.UNSPECIFIED.,.F.,.F.)B_SPLINE_CURVE_WITH_KNOTS((3,3),(0.00000000000000000E0,1.00000000000000000E0),.UNSPECIFIED.)CURVE()GEOMETRIC_REPRESENTATION_ITEM()RATIONAL_B_SPLINE_CURVE((1.00000000000000000E0,7.07106781186547573E-1,1.00000000000000000E0))REPRESENTATION_ITEM(''));
#352=DEFINITIONAL_REPRESENTATION('',(#351),#171);
#353=PCURVE('',#85,#352);
#354=CARTESIAN_POINT('',(0.00000000000000000E0,8.00000000000000044E-1));
#355=CARTESIAN_POINT('',(0.00000000000000000E0,2.00000000000000094E-1));
#356=B_SPLINE_CURVE_WITH_KNOTS('',1,(#354,#355),.UNSPECIFIED.,.F.,.F.,(2,2),(0.00000000000000000E0,1.00000000000000000E0),.UNSPECIFIED.);
#357=DEFINITIONAL_REPRESENTATION('',(#356),#171);
#358=PCURVE('',#85,#357);
#359=CARTESIAN_POINT('',(0.00000000000000000E0,1.99999999999999956E-1));
#360=CARTESIAN_POINT('',(1.11022302462515654E-16,0.00000000000000000E0));
#361=CARTESIAN_POINT('',(2.50000000000000111E-1,4.44089209850062641E-17));
#362=(BOUNDED_CURVE()B_SPLINE_CURVE(2,(#359,#360,#361),.UNSPECIFIED.,.F.,.F.)B_SPLINE_CURVE_WITH_KNOTS((3,3),(0.00000000000000000E0,1.00000000000000000E0),.UNSPECIFIED.)CURVE()GEOMETRIC_REPRESENTATION_ITEM()RATIONAL_B_SPLINE_CURVE((1.00000000000000000E0,7.07106781186547573E-1,1.00000000000000000E0))REPRESENTATION_ITEM(''));
#363=DEFINITIONAL_REPRESENTATION('',(#362),#171);
#364=PCURVE('',#85,#363);
#365=CARTESIAN_POINT('',(2.50000000000000000E-1,4.44089209850062641E-17));
#366=CARTESIAN_POINT('',(7.50000000000000000E-1,4.44089209850062641E-17));
#367=B_SPLINE_CURVE_WITH_KNOTS('',1,(#365,#366),.UNSPECIFIED.,.F.,.F.,(2,2),(0.00000000000000000E0,1.00000000000000000E0),.UNSPECIFIED.);
#368=DEFINITIONAL_REPRESENTATION('',(#367),#171);
#369=PCURVE('',#85,#368);
#370=CARTESIAN_POINT('',(7.50000000000000000E-1,4.44089209850062641E-17));
#371=CARTESIAN_POINT('',(1.00000000000000000E0,6.66133814775093900E-17));
#372=CARTESIAN_POINT('',(1.00000000000000000E0,2.00000000000000094E-1));
#373=(BOUNDED_CURVE()B_SPLINE_CURVE(2,(#370,#371,#372),.UNSPECIFIED.,.F.,.F.)B_SPLINE_CURVE_WITH_KNOTS((3,3),(0.00000000000000000E0,1.00000000000000000E0),.UNSPECIFIED.)CURVE()GEOMETRIC_REPRESENTATION_ITEM()RATIONAL_B_SPLINE_CURVE((1.00000000000000000E0,7.07106781186547573E-1,1.00000000000000000E0))REPRESENTATION_ITEM(''));
#374=DEFINITIONAL_REPRESENTATION('',(#373),#171);
#375=PCURVE('',#85,#374);
#376=CARTESIAN_POINT('',(0.00000000000000000E0,2.00000000000000094E-1));
#377=CARTESIAN_POINT('',(0.00000000000000000E0,6.66133814775093900E-17));
#378=CARTESIAN_POINT('',(2.50000000000000000E-1,4.44089209850062641E-17));
#379=(BOUNDED_CURVE()B_SPLINE_CURVE(2,(#376,#377,#378),.UNSPECIFIED.,.F.,.F.)B_SPLINE_CURVE_WITH_KNOTS((3,3),(0.00000000000000000E0,1.00000000000000000E0),.UNSPECIFIED.)CURVE()GEOMETRIC_REPRESENTATION_ITEM()RATIONAL_B_SPLINE_CURVE((1.00000000000000000E0,7.07106781186547573E-1,1.00000000000000000E0))REPRESENTATION_ITEM(''));
#380=DEFINITIONAL_REPRESENTATION('',(#379),#171);
#381=PCURVE('',#90,#380);
#382=CARTESIAN_POINT('',(2.50000000000000000E-1,4.44089209850062641E-17));
#383=CARTESIAN_POINT('',(7.50000000000000000E-1,4.44089209850062641E-17));
#384=B_SPLINE_CURVE_WITH_KNOTS('',1,(#382,#383),.UNSPECIFIED.,.F.,.F.,(2,2),(0.00000000000000000E0,1.00000000000000000E0),.UNSPECIFIED.);
#385=DEFINITIONAL_REPRESENTATION('',(#384),#171);
#386=PCURVE('',#90,#385);
#387=CARTESIAN_POINT('',(7.49999999999999889E-1,4.44089209850062641E-17));
#388=CARTESIAN_POINT('',(9.99999999999999889E-1,0.00000000000000000E0));
#389=CARTESIAN_POINT('',(1.00000000000000000E0,1.99999999999999956E-1));
#390=(BOUNDED_CURVE()B_SPLINE_CURVE(2,(#387,#388,#389),.UNSPECIFIED.,.F.,.F.)B_SPLINE_CURVE_WITH_KNOTS((3,3),(0.00000000000000000E0,1.00000000000000000E0),.UNSPECIFIED.)CURVE()GEOMETRIC_REPRESENTATION_ITEM()RATIONAL_B_SPLINE_CURVE((1.00000000000000000E0,7.07106781186547573E-1,1.00000000000000000E0))REPRESENTATION_ITEM(''));
#391=DEFINITIONAL_REPRESENTATION('',(#390),#171);
#392=PCURVE('',#90,#391);
#393=CARTESIAN_POINT('',(1.00000000000000000E0,2.00000000000000094E-1));
#394=CARTESIAN_POINT('',(1.00000000000000000E0,8.00000000000000044E-1));
#395=B_SPLINE_CURVE_WITH_KNOTS('',1,(#393,#394),.UNSPECIFIED.,.F.,.F.,(2,2),(0.00000000000000000E0,1.00000000000000000E0),.UNSPECIFIED.);
#396=DEFINITIONAL_REPRESENTATION('',(#395),#171);
#397=PCURVE('',#90,#396);
#398=CARTESIAN_POINT('',(1.00000000000000000E0,8.00000000000000044E-1));
#399=CARTESIAN_POINT('',(1.00000000000000000E0,1.00000000000000000E0));
#400=CARTESIAN_POINT('',(7.50000000000000000E-1,1.00000000000000000E0));
#401=(BOUNDED_CURVE()B_SPLINE_CURVE(2,(#398,#399,#400),.UNSPECIFIED.,.F.,.F.)B_SPLINE_CURVE_WITH_KNOTS((3,3),(0.00000000000000000E0,1.00000000000000000E0),.UNSPECIFIED.)CURVE()GEOMETRIC_REPRESENTATION_ITEM()RATIONAL_B_SPLINE_CURVE((1.00000000000000000E0,7.07106781186547573E-1,1.00000000000000000E0))REPRESENTATION_ITEM(''));
#402=DEFINITIONAL_REPRESENTATION('',(#401),#171);
#403=PCURVE('',#90,#402);
#404=CARTESIAN_POINT('',(7.50000000000000000E-1,1.00000000000000000E0));
#405=CARTESIAN_POINT('',(2.50000000000000000E-1,1.00000000000000000E0));
#406=B_SPLINE_CURVE_WITH_KNOTS('',1,(#404,#405),.UNSPECIFIED.,.F.,.F.,(2,2),(0.00000000000000000E0,1.00000000000000000E0),.UNSPECIFIED.);
#407=DEFINITIONAL_REPRESENTATION('',(#406),#171);
#408=PCURVE('',#90,#407);
#409=CARTESIAN_POINT('',(2.50000000000000000E-1,1.00000000000000000E0));
#410=CARTESIAN_POINT('',(0.00000000000000000E0,1.00000000000000000E0));
#411=CARTESIAN_POINT('',(0.00000000000000000E0,8.00000000000000044E-1));
#412=(BOUNDED_CURVE()B_SPLINE_CURVE(2,(#409,#410,#411),.UNSPECIFIED.,.F.,.F.)B_SPLINE_CURVE_WITH_KNOTS((3,3),(0.00000000000000000E0,1.00000000000000000E0),.UNSPECIFIED.)CURVE()GEOMETRIC_REPRESENTATION_ITEM()RATIONAL_B_SPLINE_CURVE((1.00000000000000000E0,7.07106781186547573E-1,1.00000000000000000E0))REPRESENTATION_ITEM(''));
#413=DEFINITIONAL_REPRESENTATION('',(#412),#171);
#414=PCURVE('',#90,#413);
#415=CARTESIAN_POINT('',(0.00000000000000000E0,8.00000000000000044E-1));
#416=CARTESIAN_POINT('',(0.00000000000000000E0,2.00000000000000094E-1));
#417=B_SPLINE_CURVE_WITH_KNOTS('',1,(#415,#416),.UNSPECIFIED.,.F.,.F.,(2,2),(0.00000000000000000E0,1.00000000000000000E0),.UNSPECIFIED.);
#418=DEFINITIONAL_REPRESENTATION('',(#417),#171);
#419=PCURVE('',#90,#418);
#420=SURFACE_CURVE('',#94,(#176,#375),.PCURVE_S1.);
#421=EDGE_CURVE('OSCAD_TOPO/3|edge|e:92aa879ddb5c8cbba34c23e8e75c3de0|d43e261fa109635277aa4cc74b4d806500ee8e2ad5ffa26e59bf47446f21e072',#2,#4,#420,.T.);
#422=SURFACE_CURVE('',#98,(#186,#381),.PCURVE_S1.);
#423=EDGE_CURVE('OSCAD_TOPO/3|edge|e:7cffc815f877a5289538c41feb8b3d86|a5fcaa513525edfaf8c451d7a2e63dc0cb2d8170cea5fae5e22d56f9cab12456',#18,#20,#422,.T.);
#424=SURFACE_CURVE('',#101,(#196,#369),.PCURVE_S1.);
#425=EDGE_CURVE('OSCAD_TOPO/3|edge|e:572c6dce69bc4e98ceee9499c070ce1e|2df9e511a249b634a09f094f0e87dee35210966f2ae53f3d9a061177f609a4f6',#4,#6,#424,.T.);
#426=SURFACE_CURVE('',#104,(#206,#386),.PCURVE_S1.);
#427=EDGE_CURVE('OSCAD_TOPO/3|edge|e:97fff6f2adb81b649b11e2a0d4c9eb37|46577d4b77659991398f8a6568e529d07ddb89b7923978916a543f8de883b698',#20,#22,#426,.T.);
#428=SURFACE_CURVE('',#108,(#216,#364),.PCURVE_S1.);
#429=EDGE_CURVE('OSCAD_TOPO/3|edge|e:794e57eda4980a3b14aec2964960b94e|522a657c941cfeb0b7efe57d7a9fc19df30d4a171d23355aad0d97710aba03f9',#6,#8,#428,.T.);
#430=SURFACE_CURVE('',#112,(#226,#392),.PCURVE_S1.);
#431=EDGE_CURVE('OSCAD_TOPO/3|edge|e:a8c28be9c0d7d2955ee774731dcbd6c3|07aa747ecafdc427c3fcf4ad91fb69b75ff82a3627e0a6336269e2db5f63c241',#22,#24,#430,.T.);
#432=SURFACE_CURVE('',#115,(#236,#358),.PCURVE_S1.);
#433=EDGE_CURVE('OSCAD_TOPO/3|edge|e:3f9eced0c543afd02d041c4b7aab3e68|79ae1696e7384ccb433970ec87592144a2589c3eb46fa5f1e70b37030d2128fd',#8,#10,#432,.T.);
#434=SURFACE_CURVE('',#118,(#246,#397),.PCURVE_S1.);
#435=EDGE_CURVE('OSCAD_TOPO/3|edge|e:518b83825653bb3a4fd7dfc5065539a5|48aaef662afe87dd699616783e3757c5f1e5142e5f914a9fe208e23c8f031a0c',#24,#26,#434,.T.);
#436=SURFACE_CURVE('',#122,(#256,#353),.PCURVE_S1.);
#437=EDGE_CURVE('OSCAD_TOPO/3|edge|e:44bc0c805a9617d2896257a0c3d23c35|c5924ce378c6316fe771e4745b1ead2b26190209d792df5dc5e28b6418e67df6',#10,#12,#436,.T.);
#438=SURFACE_CURVE('',#126,(#266,#403),.PCURVE_S1.);
#439=EDGE_CURVE('OSCAD_TOPO/3|edge|e:5c76a23d6ca2248fdff345701055636b|ba3c8da85bb8585303b4fc35efae3127cc96e04e7c5319080f691feaeef7e2b9',#26,#28,#438,.T.);
#440=SURFACE_CURVE('',#129,(#276,#347),.PCURVE_S1.);
#441=EDGE_CURVE('OSCAD_TOPO/3|edge|e:b4140dae87bc581b3cea60fbf1bb0eef|f4d732cc4e11c5bd8d56657167af0ab86046c4be8edc5f7f8543bf180bc8e960',#12,#14,#440,.T.);
#442=SURFACE_CURVE('',#132,(#286,#408),.PCURVE_S1.);
#443=EDGE_CURVE('OSCAD_TOPO/3|edge|e:8b78ec2a7b5eb73ab2083dc61f8e3693|4d0cbbcec30a436b98a74e760137344783da5c532390a646d6b0bf884af9c437',#28,#30,#442,.T.);
#444=SURFACE_CURVE('',#136,(#296,#342),.PCURVE_S1.);
#445=EDGE_CURVE('OSCAD_TOPO/3|edge|e:2e3319e2863efd5dcd3579c6751e64b1|e68d8d08bb57c15c7480ae85695d4b2120fde0b84802ce5049077d155ee8619c',#14,#16,#444,.T.);
#446=SURFACE_CURVE('',#140,(#306,#414),.PCURVE_S1.);
#447=EDGE_CURVE('OSCAD_TOPO/3|edge|e:0d9bff913e37147eb971a67771af2708|7e0ed17b65b8b96e9f6f903b613eadbe52c88818835b04aa9b464c5c853da33b',#30,#32,#446,.T.);
#448=SURFACE_CURVE('',#143,(#316,#336),.PCURVE_S1.);
#449=EDGE_CURVE('OSCAD_TOPO/3|edge|e:5b672ce2f8aa4790a49dcf6b7a32a1be|86a9d36de98a95b7111b2cbb7a629a4486945ebbc85659cf8b2c0e9fabc58969',#16,#2,#448,.T.);
#450=SURFACE_CURVE('',#146,(#326,#419),.PCURVE_S1.);
#451=EDGE_CURVE('OSCAD_TOPO/3|edge|e:99cd923a5d4396c023fb5488e91f26ac|3d337e94e68b667046dad0b38acfd7a83f97feb036cae94f6c9a3f70e06c7d94',#32,#18,#450,.T.);
#452=SURFACE_CURVE('',#149,(#191,#321),.PCURVE_S1.);
#453=EDGE_CURVE('OSCAD_TOPO/3|edge|e:1188e96a355095d2c529995b2d02dc13|6ef3d0ba252124cf557c673b90a3f381a59c58cd110c90db2645f490c0fe85a2',#2,#18,#452,.T.);
#454=SURFACE_CURVE('',#152,(#181,#211),.PCURVE_S1.);
#455=EDGE_CURVE('OSCAD_TOPO/3|edge|e:1e619b0a5d63f528af0d54d723c02bc3|f3d8af9b8c40d8679130d7d4d50c911cfa30498f222dd2b0384c120e35477e04',#4,#20,#454,.T.);
#456=SURFACE_CURVE('',#155,(#201,#231),.PCURVE_S1.);
#457=EDGE_CURVE('OSCAD_TOPO/3|edge|e:cee2bcba191fe3ca0a0e550fadc9de03|ddf621819dde792c9ab948e14c173b9427c38bae8979787341d61f142782c528',#6,#22,#456,.T.);
#458=SURFACE_CURVE('',#158,(#221,#251),.PCURVE_S1.);
#459=EDGE_CURVE('OSCAD_TOPO/3|edge|e:f5e2ae8298a030ac17c4e2cd8a48128e|f5002e1e13fc1600bd9730f02116bc96861102496889f7a773510ec2bf0172a8',#8,#24,#458,.T.);
#460=SURFACE_CURVE('',#161,(#241,#271),.PCURVE_S1.);
#461=EDGE_CURVE('OSCAD_TOPO/3|edge|e:c184c8a94b5df5771f033a156f9a6d59|1f92d95ec407c7dbd5d47f1f43fcf6de14f035695eecc4c452fe502d7dc16894',#10,#26,#460,.T.);
#462=SURFACE_CURVE('',#164,(#261,#291),.PCURVE_S1.);
#463=EDGE_CURVE('OSCAD_TOPO/3|edge|e:26016407997d66cca4eb83268bb97ded|fd2bb13a0f8810dc415f6940b9509d51335156be0fcdeb31ccb026c597bc2479',#12,#28,#462,.T.);
#464=SURFACE_CURVE('',#167,(#281,#311),.PCURVE_S1.);
#465=EDGE_CURVE('OSCAD_TOPO/3|edge|e:f708851671e6b8f7fb9b28cbb798fce2|753dc7fc62d9742f36c0ee936d4b44e51b9199329c39c8162e48fcb464f9a836',#14,#30,#464,.T.);
#466=SURFACE_CURVE('',#170,(#301,#331),.PCURVE_S1.);
#467=EDGE_CURVE('OSCAD_TOPO/3|edge|e:c8ef73a34fc12a41b6ca473d8ab13c63|4953d8b3367969724e01e84705e5b4af92730248f77b2cabdccf1628068d93c3',#16,#32,#466,.T.);
#468=ORIENTED_EDGE('',*,*,#421,.T.);
#469=ORIENTED_EDGE('',*,*,#455,.T.);
#470=ORIENTED_EDGE('',*,*,#423,.F.);
#471=ORIENTED_EDGE('',*,*,#453,.F.);
#472=EDGE_LOOP('OSCAD_TOPO/3|loop|l:519b01a97255efc14cca32273286bf0b|da54c6501d8699e0b3e12bf0a8bb6df940b3394654ff1dbb30b80009243ddeee',(#468,#469,#470,#471));
#473=ORIENTED_EDGE('',*,*,#425,.T.);
#474=ORIENTED_EDGE('',*,*,#457,.T.);
#475=ORIENTED_EDGE('',*,*,#427,.F.);
#476=ORIENTED_EDGE('',*,*,#455,.F.);
#477=EDGE_LOOP('OSCAD_TOPO/3|loop|l:088b38975e3d38adae475884437b0dfa|a561313550c145e0388680a1986966fd9a192408e67dd5db03a496b097385b28',(#473,#474,#475,#476));
#478=ORIENTED_EDGE('',*,*,#429,.T.);
#479=ORIENTED_EDGE('',*,*,#459,.T.);
#480=ORIENTED_EDGE('',*,*,#431,.F.);
#481=ORIENTED_EDGE('',*,*,#457,.F.);
#482=EDGE_LOOP('OSCAD_TOPO/3|loop|l:882d23c0fba41ebafc5b4b343703f530|320f32be7a28a870f4d6bb3ffcc3cdf394e6a9886a5ee50fdd4520cff2000e2a',(#478,#479,#480,#481));
#483=ORIENTED_EDGE('',*,*,#433,.T.);
#484=ORIENTED_EDGE('',*,*,#461,.T.);
#485=ORIENTED_EDGE('',*,*,#435,.F.);
#486=ORIENTED_EDGE('',*,*,#459,.F.);
#487=EDGE_LOOP('OSCAD_TOPO/3|loop|l:1b3f25002614ff85a566236b7fed596f|1f99fa47ef2766d30a0ea5e84592cad4df6cbd16a050af163e2cb5f2ddbcf827',(#483,#484,#485,#486));
#488=ORIENTED_EDGE('',*,*,#437,.T.);
#489=ORIENTED_EDGE('',*,*,#463,.T.);
#490=ORIENTED_EDGE('',*,*,#439,.F.);
#491=ORIENTED_EDGE('',*,*,#461,.F.);
#492=EDGE_LOOP('OSCAD_TOPO/3|loop|l:39f7abb17409537b25f776fa7ca73f14|937ca0c2dd2d61757e37128c94a283e288a2408968d008494e4f5de453d803c8',(#488,#489,#490,#491));
#493=ORIENTED_EDGE('',*,*,#441,.T.);
#494=ORIENTED_EDGE('',*,*,#465,.T.);
#495=ORIENTED_EDGE('',*,*,#443,.F.);
#496=ORIENTED_EDGE('',*,*,#463,.F.);
#497=EDGE_LOOP('OSCAD_TOPO/3|loop|l:78fae3bf9574f662e6c5f46b7e854602|ab7cbeaea8fbfd45f8a14a0b49d32bdfb301308fffa971e7730400383773260c',(#493,#494,#495,#496));
#498=ORIENTED_EDGE('',*,*,#445,.T.);
#499=ORIENTED_EDGE('',*,*,#467,.T.);
#500=ORIENTED_EDGE('',*,*,#447,.F.);
#501=ORIENTED_EDGE('',*,*,#465,.F.);
#502=EDGE_LOOP('OSCAD_TOPO/3|loop|l:d5d73ea2fe62c27cc78f685c5af665fc|9e87b3178b7e28250ab00c3ec68e726c9c0433dad5d6c8bafd9e009e98533e09',(#498,#499,#500,#501));
#503=ORIENTED_EDGE('',*,*,#449,.T.);
#504=ORIENTED_EDGE('',*,*,#453,.T.);
#505=ORIENTED_EDGE('',*,*,#451,.F.);
#506=ORIENTED_EDGE('',*,*,#467,.F.);
#507=EDGE_LOOP('OSCAD_TOPO/3|loop|l:e3a195ec47c9d9ce5e669e7d4f274f03|6b0b7a5a6b71d02ecbde7e42e19fa36c357afb4adf02baaebdcd9f602a562975',(#503,#504,#505,#506));
#508=ORIENTED_EDGE('',*,*,#449,.F.);
#509=ORIENTED_EDGE('',*,*,#445,.F.);
#510=ORIENTED_EDGE('',*,*,#441,.F.);
#511=ORIENTED_EDGE('',*,*,#437,.F.);
#512=ORIENTED_EDGE('',*,*,#433,.F.);
#513=ORIENTED_EDGE('',*,*,#429,.F.);
#514=ORIENTED_EDGE('',*,*,#425,.F.);
#515=ORIENTED_EDGE('',*,*,#421,.F.);
#516=EDGE_LOOP('OSCAD_TOPO/3|loop|l:24a4ecbed94b3cceeb0ee84b357b3b67|9d57bf16b007309a06e2846fa6b8b810f0b7e5fc1fe1517d40086541a31e19ef',(#508,#509,#510,#511,#512,#513,#514,#515));
#517=ORIENTED_EDGE('',*,*,#423,.T.);
#518=ORIENTED_EDGE('',*,*,#427,.T.);
#519=ORIENTED_EDGE('',*,*,#431,.T.);
#520=ORIENTED_EDGE('',*,*,#435,.T.);
#521=ORIENTED_EDGE('',*,*,#439,.T.);
#522=ORIENTED_EDGE('',*,*,#443,.T.);
#523=ORIENTED_EDGE('',*,*,#447,.T.);
#524=ORIENTED_EDGE('',*,*,#451,.T.);
#525=EDGE_LOOP('OSCAD_TOPO/3|loop|l:5f651a35e4635ad07e642259384ee424|e10bd5dc849670c1486fea85d8d7d359ac397fbcf536f7db0a37c51299c23e48',(#517,#518,#519,#520,#521,#522,#523,#524));
#526=FACE_OUTER_BOUND('',#472,.T.);
#527=ADVANCED_FACE('OSCAD_TOPO/3|face|f:83076439c4a41e00e331ff5892e1b9e2|4ec3bd734fc1611009fbaf18ac9ae040339d02db274277a5e68f4ac8765d65e8',(#526),#39,.T.);
#528=FACE_OUTER_BOUND('',#477,.T.);
#529=ADVANCED_FACE('OSCAD_TOPO/3|face|f:4fc94d15c183580c1aa978395728cc22|c7ef4c2b0a89359eab7c35ce764d92ea526f11172f5e40d036c7deac6e7e0830',(#528),#44,.T.);
#530=FACE_OUTER_BOUND('',#482,.T.);
#531=ADVANCED_FACE('OSCAD_TOPO/3|face|f:ac7781412ec6daa248b84f42c62b0f96|408f704e6e76688e0a9ee1805985efc1d1ccfde09cf63b25f23a10b48d79cf89',(#530),#51,.T.);
#532=FACE_OUTER_BOUND('',#487,.T.);
#533=ADVANCED_FACE('OSCAD_TOPO/3|face|f:a64c603bbfeb712d808ec42f14b0d281|c553cc6feda9af591c27e167b8329bdc97df39caec482e4081242cd30016a47f',(#532),#56,.T.);
#534=FACE_OUTER_BOUND('',#492,.T.);
#535=ADVANCED_FACE('OSCAD_TOPO/3|face|f:6ad80f33cdae21de71c1439e9a6154b7|4008ca0ce433a24b01e87c84cb19e2a25cfe8e2e8cf253873ed6177f8f030db8',(#534),#63,.T.);
#536=FACE_OUTER_BOUND('',#497,.T.);
#537=ADVANCED_FACE('OSCAD_TOPO/3|face|f:949629dbf397a644d5f80a55a19e7360|176430b689139bea5b3db5b0bba830970104ea4d03db0ef303161d1aad07fad8',(#536),#68,.T.);
#538=FACE_OUTER_BOUND('',#502,.T.);
#539=ADVANCED_FACE('OSCAD_TOPO/3|face|f:8c527c72a02f1c885587724dfee24358|caa7cfa0379ea51feea59c9830b64c94675496017cb9346e59cfffe23fd3528a',(#538),#75,.T.);
#540=FACE_OUTER_BOUND('',#507,.T.);
#541=ADVANCED_FACE('OSCAD_TOPO/3|face|f:ebbc81b409f73005facaadb39ef8fac3|b1e4aa04c754488332b1c61f19c7bd8774caaf0927635541af7ce8f49f56120a',(#540),#80,.T.);
#542=FACE_OUTER_BOUND('',#516,.T.);
#543=ADVANCED_FACE('OSCAD_TOPO/3|face|f:70295dd2e55d0139756aaf0261719691|2e373aabfbff350d6a07353daf67ee8b7f6a9ba03dd797f0f7d0fea01ce4736e',(#542),#85,.T.);
#544=FACE_OUTER_BOUND('',#525,.T.);
#545=ADVANCED_FACE('OSCAD_TOPO/3|face|f:e7d43f5084e969f704de972f84f6bc04|558b598278b57827f088d86a3193fcbe15f490c641fdaea4b63304c5385ec37a',(#544),#90,.T.);
#546=CLOSED_SHELL('OSCAD_TOPO/3|shell|s:c87248980775c765c82b7404c110f12b|b370e6d2d0b5a72b14ff954d5a634021309445a359c79b7dbbb21342a985aee6',(#527,#529,#531,#533,#535,#537,#539,#541,#543,#545));
#547=MANIFOLD_SOLID_BREP('OSCAD_TOPO/3|body|b:a2d28f797122b2ddc5bc7ae9cae9ed25|72c53d1fc5a61f3fbca8ca976505b81f46ff980d08455bca2d100c5330ea335b',#546);
#548=(LENGTH_UNIT()NAMED_UNIT(*)SI_UNIT(.MILLI.,.METRE.));
#549=UNCERTAINTY_MEASURE_WITH_UNIT(LENGTH_MEASURE(9.99999999999999955E-8),#548,'distance_accuracy_value','');
#550=(GEOMETRIC_REPRESENTATION_CONTEXT(3)GLOBAL_UNCERTAINTY_ASSIGNED_CONTEXT((#549))GLOBAL_UNIT_ASSIGNED_CONTEXT((#548))REPRESENTATION_CONTEXT('','3D'));
#551=ADVANCED_BREP_SHAPE_REPRESENTATION('',(#547),#550);
#552=APPLICATION_CONTEXT('managed model based 3d engineering');
#553=PRODUCT_CONTEXT('',#552,'mechanical');
#554=PRODUCT('model','model','',(#553));
#555=PRODUCT_DEFINITION_FORMATION('1','',#554);
#556=PRODUCT_DEFINITION_CONTEXT('part definition',#552,'design');
#557=PRODUCT_DEFINITION('design','',#555,#556);
#558=PRODUCT_DEFINITION_SHAPE('','',#557);
#559=SHAPE_DEFINITION_REPRESENTATION(#558,#551);
ENDSEC;
END-ISO-10303-21;
