ISO-10303-21;
HEADER;
FILE_DESCRIPTION(('OpenSCAD Viewer retained AP242 B-rep'),'2;1');
FILE_NAME('model.step','',(''),(''),'OpenSCAD Viewer','OpenSCAD Viewer','');
FILE_SCHEMA(('AP242_MANAGED_MODEL_BASED_3D_ENGINEERING_MIM_LF'));
ENDSEC;
DATA;
#1=CARTESIAN_POINT('',(5.00000000000000000E-1,0.00000000000000000E0,5.00000000000000000E-1));
#2=VERTEX_POINT('OSCAD_TOPO/3|vertex|v:0e6d4a07b0201a33d7c8c088b03fa571|c2c008b09215b0685ff2f4999125b05c87c4da0bc3a6326741a3dc7c1ddf60ba',#1);
#3=CARTESIAN_POINT('',(0.00000000000000000E0,5.00000000000000000E-1,5.00000000000000000E-1));
#4=VERTEX_POINT('OSCAD_TOPO/3|vertex|v:d2c9d309c8baeb414eb1dbc590614e81|d66f357fa75e4dcd1609a64d93d44964c086d42e8c1d801100abeaf246127a03',#3);
#5=CARTESIAN_POINT('',(-5.00000000000000000E-1,0.00000000000000000E0,-5.00000000000000000E-1));
#6=VERTEX_POINT('OSCAD_TOPO/3|vertex|v:f39579044843e9d81d49f18d635d7cb4|3789d4964a01416eae61e2f7639026c95ba84d8965093166ee32e635d0274bda',#5);
#7=CARTESIAN_POINT('',(0.00000000000000000E0,-5.00000000000000000E-1,-5.00000000000000000E-1));
#8=VERTEX_POINT('OSCAD_TOPO/3|vertex|v:accf73ee661a5f72096a66e2fe7d7ae1|efcf0c2935137c3097d551d0aa72d15099cd46af8021a04d03bee59a2abc0a44',#7);
#9=CARTESIAN_POINT('',(2.00000000000000011E-1,0.00000000000000000E0,2.00000000000000011E-1));
#10=VERTEX_POINT('OSCAD_TOPO/3|vertex|v:e020534d0e147521dcdf277f4e2a129c|24f3ddac5e8aee4d730c12a0baac4ed99c942720ab3e91a9fa9a57b590849ef5',#9);
#11=CARTESIAN_POINT('',(0.00000000000000000E0,-2.00000000000000011E-1,-2.00000000000000011E-1));
#12=VERTEX_POINT('OSCAD_TOPO/3|vertex|v:bb3341f7139f15db4050c6f998f08e0e|11f2f75b8cce129473138a76a3ea15a8d40563fc23ea0a1cace834d5cbbd0306',#11);
#13=CARTESIAN_POINT('',(-2.00000000000000011E-1,0.00000000000000000E0,-2.00000000000000011E-1));
#14=VERTEX_POINT('OSCAD_TOPO/3|vertex|v:8b86a10dd555723a673522fb2d43468b|09fb8710f23394c3bbf37d9c4f5c75b99f872473251d9e1a6c646800552d3cb9',#13);
#15=CARTESIAN_POINT('',(0.00000000000000000E0,2.00000000000000011E-1,2.00000000000000011E-1));
#16=VERTEX_POINT('OSCAD_TOPO/3|vertex|v:c36dfbd38b5102b09f08db0fe8ab74a1|802fd45500f860f52119b5e2c1b6a5cf06f5af6d80cc34a6d26bfbe30a7943b9',#15);
#17=CARTESIAN_POINT('',(5.00000000000000000E-1,0.00000000000000000E0,1.05000000000000000E1));
#18=VERTEX_POINT('OSCAD_TOPO/3|vertex|v:65a2b94697f7764c0ec46e3cb7230a0b|4c4831c6ebb4e7b5aa81036a693987f69a13170f8bb24bc69164c724feace5f5',#17);
#19=CARTESIAN_POINT('',(0.00000000000000000E0,5.00000000000000000E-1,1.05000000000000000E1));
#20=VERTEX_POINT('OSCAD_TOPO/3|vertex|v:da250462cad98ea1106e7af565243070|36d647f5b246299dd679d589314476e352c9936f9151959e030e416fdeaffc84',#19);
#21=CARTESIAN_POINT('',(-5.00000000000000000E-1,0.00000000000000000E0,9.50000000000000000E0));
#22=VERTEX_POINT('OSCAD_TOPO/3|vertex|v:8d0803439123f86cda3112616073e6c8|7576590030b4b095463fed53c739b2dfda33a6c912229a5c5d797091115c6f8f',#21);
#23=CARTESIAN_POINT('',(0.00000000000000000E0,-5.00000000000000000E-1,9.50000000000000000E0));
#24=VERTEX_POINT('OSCAD_TOPO/3|vertex|v:27a54c3a2c883aafcc8fd51fdb6469d2|8ee98b505523185f5f79f02163b7cd1f0839207dec4abf0c1ecfac41b188c92e',#23);
#25=CARTESIAN_POINT('',(2.00000000000000011E-1,0.00000000000000000E0,1.01999999999999993E1));
#26=VERTEX_POINT('OSCAD_TOPO/3|vertex|v:e6589d554b50b9c3061f38f52eca8cb8|dca1e1029eb61587f9add2b92062bceab095f3b4a42a8c18027275b564005005',#25);
#27=CARTESIAN_POINT('',(0.00000000000000000E0,-2.00000000000000011E-1,9.80000000000000071E0));
#28=VERTEX_POINT('OSCAD_TOPO/3|vertex|v:ccf0412743ea9452be3e0a4ab0d9bf93|398f2c88758fbe161e77ea365d1635bdd637ca5fc7e84beb0262c0848534b0b9',#27);
#29=CARTESIAN_POINT('',(-2.00000000000000011E-1,0.00000000000000000E0,9.80000000000000071E0));
#30=VERTEX_POINT('OSCAD_TOPO/3|vertex|v:83b7d56d9f17c5681f704be9188118b3|39c5cf837a961aa30aa616cfabd4d730c8657e52abca1d2dd1f9401291a232d1',#29);
#31=CARTESIAN_POINT('',(0.00000000000000000E0,2.00000000000000011E-1,1.01999999999999993E1));
#32=VERTEX_POINT('OSCAD_TOPO/3|vertex|v:f136fc9fa923f3d8ce0a9672aec565f4|a660c66ef1545fce890ff52c7172aa6173fc48a3bb6f8cc86ae9294ddfb38728',#31);
#33=CARTESIAN_POINT('',(5.00000000000000000E-1,0.00000000000000000E0,5.00000000000000000E-1));
#34=CARTESIAN_POINT('',(5.00000000000000000E-1,0.00000000000000000E0,1.05000000000000000E1));
#35=CARTESIAN_POINT('',(5.00000000000000000E-1,5.00000000000000000E-1,1.00000000000000000E0));
#36=CARTESIAN_POINT('',(5.00000000000000000E-1,5.00000000000000000E-1,1.10000000000000000E1));
#37=CARTESIAN_POINT('',(0.00000000000000000E0,5.00000000000000000E-1,5.00000000000000000E-1));
#38=CARTESIAN_POINT('',(0.00000000000000000E0,5.00000000000000000E-1,1.05000000000000000E1));
#39=(BOUNDED_SURFACE()B_SPLINE_SURFACE(2,1,((#33,#34),(#35,#36),(#37,#38)),.UNSPECIFIED.,.F.,.F.,.F.)B_SPLINE_SURFACE_WITH_KNOTS((3,3),(2,2),(0.00000000000000000E0,1.00000000000000000E0),(0.00000000000000000E0,1.00000000000000000E0),.UNSPECIFIED.)GEOMETRIC_REPRESENTATION_ITEM()RATIONAL_B_SPLINE_SURFACE(((1.00000000000000000E0,1.00000000000000000E0),(7.07106781186547573E-1,7.07106781186547573E-1),(1.00000000000000000E0,1.00000000000000000E0)))REPRESENTATION_ITEM('')SURFACE());
#40=CARTESIAN_POINT('',(0.00000000000000000E0,5.00000000000000000E-1,5.00000000000000000E-1));
#41=CARTESIAN_POINT('',(0.00000000000000000E0,5.00000000000000000E-1,1.05000000000000000E1));
#42=CARTESIAN_POINT('',(-5.00000000000000000E-1,5.00000000000000000E-1,0.00000000000000000E0));
#43=CARTESIAN_POINT('',(-5.00000000000000000E-1,5.00000000000000000E-1,1.00000000000000000E1));
#44=CARTESIAN_POINT('',(-5.00000000000000000E-1,0.00000000000000000E0,-5.00000000000000000E-1));
#45=CARTESIAN_POINT('',(-5.00000000000000000E-1,0.00000000000000000E0,9.50000000000000000E0));
#46=(BOUNDED_SURFACE()B_SPLINE_SURFACE(2,1,((#40,#41),(#42,#43),(#44,#45)),.UNSPECIFIED.,.F.,.F.,.F.)B_SPLINE_SURFACE_WITH_KNOTS((3,3),(2,2),(0.00000000000000000E0,1.00000000000000000E0),(0.00000000000000000E0,1.00000000000000000E0),.UNSPECIFIED.)GEOMETRIC_REPRESENTATION_ITEM()RATIONAL_B_SPLINE_SURFACE(((1.00000000000000000E0,1.00000000000000000E0),(7.07106781186547573E-1,7.07106781186547573E-1),(1.00000000000000000E0,1.00000000000000000E0)))REPRESENTATION_ITEM('')SURFACE());
#47=CARTESIAN_POINT('',(-5.00000000000000000E-1,0.00000000000000000E0,-5.00000000000000000E-1));
#48=CARTESIAN_POINT('',(-5.00000000000000000E-1,0.00000000000000000E0,9.50000000000000000E0));
#49=CARTESIAN_POINT('',(-5.00000000000000000E-1,-5.00000000000000000E-1,-1.00000000000000000E0));
#50=CARTESIAN_POINT('',(-5.00000000000000000E-1,-5.00000000000000000E-1,9.00000000000000000E0));
#51=CARTESIAN_POINT('',(0.00000000000000000E0,-5.00000000000000000E-1,-5.00000000000000000E-1));
#52=CARTESIAN_POINT('',(0.00000000000000000E0,-5.00000000000000000E-1,9.50000000000000000E0));
#53=(BOUNDED_SURFACE()B_SPLINE_SURFACE(2,1,((#47,#48),(#49,#50),(#51,#52)),.UNSPECIFIED.,.F.,.F.,.F.)B_SPLINE_SURFACE_WITH_KNOTS((3,3),(2,2),(0.00000000000000000E0,1.00000000000000000E0),(0.00000000000000000E0,1.00000000000000000E0),.UNSPECIFIED.)GEOMETRIC_REPRESENTATION_ITEM()RATIONAL_B_SPLINE_SURFACE(((1.00000000000000000E0,1.00000000000000000E0),(7.07106781186547573E-1,7.07106781186547573E-1),(1.00000000000000000E0,1.00000000000000000E0)))REPRESENTATION_ITEM('')SURFACE());
#54=CARTESIAN_POINT('',(0.00000000000000000E0,-5.00000000000000000E-1,-5.00000000000000000E-1));
#55=CARTESIAN_POINT('',(0.00000000000000000E0,-5.00000000000000000E-1,9.50000000000000000E0));
#56=CARTESIAN_POINT('',(5.00000000000000000E-1,-5.00000000000000000E-1,0.00000000000000000E0));
#57=CARTESIAN_POINT('',(5.00000000000000000E-1,-5.00000000000000000E-1,1.00000000000000000E1));
#58=CARTESIAN_POINT('',(5.00000000000000000E-1,0.00000000000000000E0,5.00000000000000000E-1));
#59=CARTESIAN_POINT('',(5.00000000000000000E-1,0.00000000000000000E0,1.05000000000000000E1));
#60=(BOUNDED_SURFACE()B_SPLINE_SURFACE(2,1,((#54,#55),(#56,#57),(#58,#59)),.UNSPECIFIED.,.F.,.F.,.F.)B_SPLINE_SURFACE_WITH_KNOTS((3,3),(2,2),(0.00000000000000000E0,1.00000000000000000E0),(0.00000000000000000E0,1.00000000000000000E0),.UNSPECIFIED.)GEOMETRIC_REPRESENTATION_ITEM()RATIONAL_B_SPLINE_SURFACE(((1.00000000000000000E0,1.00000000000000000E0),(7.07106781186547573E-1,7.07106781186547573E-1),(1.00000000000000000E0,1.00000000000000000E0)))REPRESENTATION_ITEM('')SURFACE());
#61=CARTESIAN_POINT('',(2.00000000000000011E-1,0.00000000000000000E0,2.00000000000000011E-1));
#62=CARTESIAN_POINT('',(2.00000000000000011E-1,0.00000000000000000E0,1.01999999999999993E1));
#63=CARTESIAN_POINT('',(2.00000000000000011E-1,-2.00000000000000011E-1,0.00000000000000000E0));
#64=CARTESIAN_POINT('',(2.00000000000000011E-1,-2.00000000000000011E-1,1.00000000000000000E1));
#65=CARTESIAN_POINT('',(0.00000000000000000E0,-2.00000000000000011E-1,-2.00000000000000011E-1));
#66=CARTESIAN_POINT('',(0.00000000000000000E0,-2.00000000000000011E-1,9.80000000000000071E0));
#67=(BOUNDED_SURFACE()B_SPLINE_SURFACE(2,1,((#61,#62),(#63,#64),(#65,#66)),.UNSPECIFIED.,.F.,.F.,.F.)B_SPLINE_SURFACE_WITH_KNOTS((3,3),(2,2),(0.00000000000000000E0,1.00000000000000000E0),(0.00000000000000000E0,1.00000000000000000E0),.UNSPECIFIED.)GEOMETRIC_REPRESENTATION_ITEM()RATIONAL_B_SPLINE_SURFACE(((1.00000000000000000E0,1.00000000000000000E0),(7.07106781186547573E-1,7.07106781186547573E-1),(1.00000000000000000E0,1.00000000000000000E0)))REPRESENTATION_ITEM('')SURFACE());
#68=CARTESIAN_POINT('',(0.00000000000000000E0,-2.00000000000000011E-1,-2.00000000000000011E-1));
#69=CARTESIAN_POINT('',(0.00000000000000000E0,-2.00000000000000011E-1,9.80000000000000071E0));
#70=CARTESIAN_POINT('',(-2.00000000000000011E-1,-2.00000000000000011E-1,-4.00000000000000022E-1));
#71=CARTESIAN_POINT('',(-2.00000000000000011E-1,-2.00000000000000011E-1,9.59999999999999964E0));
#72=CARTESIAN_POINT('',(-2.00000000000000011E-1,0.00000000000000000E0,-2.00000000000000011E-1));
#73=CARTESIAN_POINT('',(-2.00000000000000011E-1,0.00000000000000000E0,9.80000000000000071E0));
#74=(BOUNDED_SURFACE()B_SPLINE_SURFACE(2,1,((#68,#69),(#70,#71),(#72,#73)),.UNSPECIFIED.,.F.,.F.,.F.)B_SPLINE_SURFACE_WITH_KNOTS((3,3),(2,2),(0.00000000000000000E0,1.00000000000000000E0),(0.00000000000000000E0,1.00000000000000000E0),.UNSPECIFIED.)GEOMETRIC_REPRESENTATION_ITEM()RATIONAL_B_SPLINE_SURFACE(((1.00000000000000000E0,1.00000000000000000E0),(7.07106781186547573E-1,7.07106781186547573E-1),(1.00000000000000000E0,1.00000000000000000E0)))REPRESENTATION_ITEM('')SURFACE());
#75=CARTESIAN_POINT('',(-2.00000000000000011E-1,0.00000000000000000E0,-2.00000000000000011E-1));
#76=CARTESIAN_POINT('',(-2.00000000000000011E-1,0.00000000000000000E0,9.80000000000000071E0));
#77=CARTESIAN_POINT('',(-2.00000000000000011E-1,2.00000000000000011E-1,0.00000000000000000E0));
#78=CARTESIAN_POINT('',(-2.00000000000000011E-1,2.00000000000000011E-1,1.00000000000000000E1));
#79=CARTESIAN_POINT('',(0.00000000000000000E0,2.00000000000000011E-1,2.00000000000000011E-1));
#80=CARTESIAN_POINT('',(0.00000000000000000E0,2.00000000000000011E-1,1.01999999999999993E1));
#81=(BOUNDED_SURFACE()B_SPLINE_SURFACE(2,1,((#75,#76),(#77,#78),(#79,#80)),.UNSPECIFIED.,.F.,.F.,.F.)B_SPLINE_SURFACE_WITH_KNOTS((3,3),(2,2),(0.00000000000000000E0,1.00000000000000000E0),(0.00000000000000000E0,1.00000000000000000E0),.UNSPECIFIED.)GEOMETRIC_REPRESENTATION_ITEM()RATIONAL_B_SPLINE_SURFACE(((1.00000000000000000E0,1.00000000000000000E0),(7.07106781186547573E-1,7.07106781186547573E-1),(1.00000000000000000E0,1.00000000000000000E0)))REPRESENTATION_ITEM('')SURFACE());
#82=CARTESIAN_POINT('',(0.00000000000000000E0,2.00000000000000011E-1,2.00000000000000011E-1));
#83=CARTESIAN_POINT('',(0.00000000000000000E0,2.00000000000000011E-1,1.01999999999999993E1));
#84=CARTESIAN_POINT('',(2.00000000000000011E-1,2.00000000000000011E-1,4.00000000000000022E-1));
#85=CARTESIAN_POINT('',(2.00000000000000011E-1,2.00000000000000011E-1,1.04000000000000004E1));
#86=CARTESIAN_POINT('',(2.00000000000000011E-1,0.00000000000000000E0,2.00000000000000011E-1));
#87=CARTESIAN_POINT('',(2.00000000000000011E-1,0.00000000000000000E0,1.01999999999999993E1));
#88=(BOUNDED_SURFACE()B_SPLINE_SURFACE(2,1,((#82,#83),(#84,#85),(#86,#87)),.UNSPECIFIED.,.F.,.F.,.F.)B_SPLINE_SURFACE_WITH_KNOTS((3,3),(2,2),(0.00000000000000000E0,1.00000000000000000E0),(0.00000000000000000E0,1.00000000000000000E0),.UNSPECIFIED.)GEOMETRIC_REPRESENTATION_ITEM()RATIONAL_B_SPLINE_SURFACE(((1.00000000000000000E0,1.00000000000000000E0),(7.07106781186547573E-1,7.07106781186547573E-1),(1.00000000000000000E0,1.00000000000000000E0)))REPRESENTATION_ITEM('')SURFACE());
#89=CARTESIAN_POINT('',(5.00000000000000000E-1,-5.00000000000000000E-1,0.00000000000000000E0));
#90=CARTESIAN_POINT('',(5.00000000000000000E-1,5.00000000000000000E-1,1.00000000000000000E0));
#91=CARTESIAN_POINT('',(-5.00000000000000000E-1,-5.00000000000000000E-1,-1.00000000000000000E0));
#92=CARTESIAN_POINT('',(-5.00000000000000000E-1,5.00000000000000000E-1,0.00000000000000000E0));
#93=B_SPLINE_SURFACE_WITH_KNOTS('',1,1,((#89,#90),(#91,#92)),.UNSPECIFIED.,.F.,.F.,.F.,(2,2),(2,2),(-5.00000000000000000E-1,5.00000000000000000E-1),(-5.00000000000000000E-1,5.00000000000000000E-1),.UNSPECIFIED.);
#94=CARTESIAN_POINT('',(-5.00000000000000000E-1,-5.00000000000000000E-1,9.00000000000000000E0));
#95=CARTESIAN_POINT('',(-5.00000000000000000E-1,5.00000000000000000E-1,1.00000000000000000E1));
#96=CARTESIAN_POINT('',(5.00000000000000000E-1,-5.00000000000000000E-1,1.00000000000000000E1));
#97=CARTESIAN_POINT('',(5.00000000000000000E-1,5.00000000000000000E-1,1.10000000000000000E1));
#98=B_SPLINE_SURFACE_WITH_KNOTS('',1,1,((#94,#95),(#96,#97)),.UNSPECIFIED.,.F.,.F.,.F.,(2,2),(2,2),(-5.00000000000000000E-1,5.00000000000000000E-1),(-5.00000000000000000E-1,5.00000000000000000E-1),.UNSPECIFIED.);
#99=CARTESIAN_POINT('',(5.00000000000000000E-1,0.00000000000000000E0,5.00000000000000000E-1));
#100=CARTESIAN_POINT('',(5.00000000000000000E-1,5.00000000000000000E-1,1.00000000000000000E0));
#101=CARTESIAN_POINT('',(0.00000000000000000E0,5.00000000000000000E-1,5.00000000000000000E-1));
#102=(BOUNDED_CURVE()B_SPLINE_CURVE(2,(#99,#100,#101),.UNSPECIFIED.,.F.,.F.)B_SPLINE_CURVE_WITH_KNOTS((3,3),(0.00000000000000000E0,1.00000000000000000E0),.UNSPECIFIED.)CURVE()GEOMETRIC_REPRESENTATION_ITEM()RATIONAL_B_SPLINE_CURVE((1.00000000000000000E0,7.07106781186547573E-1,1.00000000000000000E0))REPRESENTATION_ITEM(''));
#103=CARTESIAN_POINT('',(0.00000000000000000E0,5.00000000000000000E-1,5.00000000000000000E-1));
#104=CARTESIAN_POINT('',(0.00000000000000000E0,5.00000000000000000E-1,1.05000000000000000E1));
#105=B_SPLINE_CURVE_WITH_KNOTS('',1,(#103,#104),.UNSPECIFIED.,.F.,.F.,(2,2),(0.00000000000000000E0,1.00000000000000000E0),.UNSPECIFIED.);
#106=CARTESIAN_POINT('',(5.00000000000000000E-1,0.00000000000000000E0,1.05000000000000000E1));
#107=CARTESIAN_POINT('',(5.00000000000000000E-1,5.00000000000000000E-1,1.10000000000000000E1));
#108=CARTESIAN_POINT('',(0.00000000000000000E0,5.00000000000000000E-1,1.05000000000000000E1));
#109=(BOUNDED_CURVE()B_SPLINE_CURVE(2,(#106,#107,#108),.UNSPECIFIED.,.F.,.F.)B_SPLINE_CURVE_WITH_KNOTS((3,3),(0.00000000000000000E0,1.00000000000000000E0),.UNSPECIFIED.)CURVE()GEOMETRIC_REPRESENTATION_ITEM()RATIONAL_B_SPLINE_CURVE((1.00000000000000000E0,7.07106781186547573E-1,1.00000000000000000E0))REPRESENTATION_ITEM(''));
#110=CARTESIAN_POINT('',(5.00000000000000000E-1,0.00000000000000000E0,5.00000000000000000E-1));
#111=CARTESIAN_POINT('',(5.00000000000000000E-1,0.00000000000000000E0,1.05000000000000000E1));
#112=B_SPLINE_CURVE_WITH_KNOTS('',1,(#110,#111),.UNSPECIFIED.,.F.,.F.,(2,2),(0.00000000000000000E0,1.00000000000000000E0),.UNSPECIFIED.);
#113=CARTESIAN_POINT('',(0.00000000000000000E0,5.00000000000000000E-1,5.00000000000000000E-1));
#114=CARTESIAN_POINT('',(-5.00000000000000000E-1,5.00000000000000000E-1,0.00000000000000000E0));
#115=CARTESIAN_POINT('',(-5.00000000000000000E-1,0.00000000000000000E0,-5.00000000000000000E-1));
#116=(BOUNDED_CURVE()B_SPLINE_CURVE(2,(#113,#114,#115),.UNSPECIFIED.,.F.,.F.)B_SPLINE_CURVE_WITH_KNOTS((3,3),(0.00000000000000000E0,1.00000000000000000E0),.UNSPECIFIED.)CURVE()GEOMETRIC_REPRESENTATION_ITEM()RATIONAL_B_SPLINE_CURVE((1.00000000000000000E0,7.07106781186547573E-1,1.00000000000000000E0))REPRESENTATION_ITEM(''));
#117=CARTESIAN_POINT('',(-5.00000000000000000E-1,0.00000000000000000E0,-5.00000000000000000E-1));
#118=CARTESIAN_POINT('',(-5.00000000000000000E-1,0.00000000000000000E0,9.50000000000000000E0));
#119=B_SPLINE_CURVE_WITH_KNOTS('',1,(#117,#118),.UNSPECIFIED.,.F.,.F.,(2,2),(0.00000000000000000E0,1.00000000000000000E0),.UNSPECIFIED.);
#120=CARTESIAN_POINT('',(0.00000000000000000E0,5.00000000000000000E-1,1.05000000000000000E1));
#121=CARTESIAN_POINT('',(-5.00000000000000000E-1,5.00000000000000000E-1,1.00000000000000000E1));
#122=CARTESIAN_POINT('',(-5.00000000000000000E-1,0.00000000000000000E0,9.50000000000000000E0));
#123=(BOUNDED_CURVE()B_SPLINE_CURVE(2,(#120,#121,#122),.UNSPECIFIED.,.F.,.F.)B_SPLINE_CURVE_WITH_KNOTS((3,3),(0.00000000000000000E0,1.00000000000000000E0),.UNSPECIFIED.)CURVE()GEOMETRIC_REPRESENTATION_ITEM()RATIONAL_B_SPLINE_CURVE((1.00000000000000000E0,7.07106781186547573E-1,1.00000000000000000E0))REPRESENTATION_ITEM(''));
#124=CARTESIAN_POINT('',(-5.00000000000000000E-1,0.00000000000000000E0,-5.00000000000000000E-1));
#125=CARTESIAN_POINT('',(-5.00000000000000000E-1,-5.00000000000000000E-1,-1.00000000000000000E0));
#126=CARTESIAN_POINT('',(0.00000000000000000E0,-5.00000000000000000E-1,-5.00000000000000000E-1));
#127=(BOUNDED_CURVE()B_SPLINE_CURVE(2,(#124,#125,#126),.UNSPECIFIED.,.F.,.F.)B_SPLINE_CURVE_WITH_KNOTS((3,3),(0.00000000000000000E0,1.00000000000000000E0),.UNSPECIFIED.)CURVE()GEOMETRIC_REPRESENTATION_ITEM()RATIONAL_B_SPLINE_CURVE((1.00000000000000000E0,7.07106781186547573E-1,1.00000000000000000E0))REPRESENTATION_ITEM(''));
#128=CARTESIAN_POINT('',(0.00000000000000000E0,-5.00000000000000000E-1,-5.00000000000000000E-1));
#129=CARTESIAN_POINT('',(0.00000000000000000E0,-5.00000000000000000E-1,9.50000000000000000E0));
#130=B_SPLINE_CURVE_WITH_KNOTS('',1,(#128,#129),.UNSPECIFIED.,.F.,.F.,(2,2),(0.00000000000000000E0,1.00000000000000000E0),.UNSPECIFIED.);
#131=CARTESIAN_POINT('',(-5.00000000000000000E-1,0.00000000000000000E0,9.50000000000000000E0));
#132=CARTESIAN_POINT('',(-5.00000000000000000E-1,-5.00000000000000000E-1,9.00000000000000000E0));
#133=CARTESIAN_POINT('',(0.00000000000000000E0,-5.00000000000000000E-1,9.50000000000000000E0));
#134=(BOUNDED_CURVE()B_SPLINE_CURVE(2,(#131,#132,#133),.UNSPECIFIED.,.F.,.F.)B_SPLINE_CURVE_WITH_KNOTS((3,3),(0.00000000000000000E0,1.00000000000000000E0),.UNSPECIFIED.)CURVE()GEOMETRIC_REPRESENTATION_ITEM()RATIONAL_B_SPLINE_CURVE((1.00000000000000000E0,7.07106781186547573E-1,1.00000000000000000E0))REPRESENTATION_ITEM(''));
#135=CARTESIAN_POINT('',(5.00000000000000000E-1,0.00000000000000000E0,5.00000000000000000E-1));
#136=CARTESIAN_POINT('',(5.00000000000000000E-1,-5.00000000000000000E-1,0.00000000000000000E0));
#137=CARTESIAN_POINT('',(0.00000000000000000E0,-5.00000000000000000E-1,-5.00000000000000000E-1));
#138=(BOUNDED_CURVE()B_SPLINE_CURVE(2,(#135,#136,#137),.UNSPECIFIED.,.F.,.F.)B_SPLINE_CURVE_WITH_KNOTS((3,3),(0.00000000000000000E0,1.00000000000000000E0),.UNSPECIFIED.)CURVE()GEOMETRIC_REPRESENTATION_ITEM()RATIONAL_B_SPLINE_CURVE((1.00000000000000000E0,7.07106781186547573E-1,1.00000000000000000E0))REPRESENTATION_ITEM(''));
#139=CARTESIAN_POINT('',(5.00000000000000000E-1,0.00000000000000000E0,1.05000000000000000E1));
#140=CARTESIAN_POINT('',(5.00000000000000000E-1,-5.00000000000000000E-1,1.00000000000000000E1));
#141=CARTESIAN_POINT('',(0.00000000000000000E0,-5.00000000000000000E-1,9.50000000000000000E0));
#142=(BOUNDED_CURVE()B_SPLINE_CURVE(2,(#139,#140,#141),.UNSPECIFIED.,.F.,.F.)B_SPLINE_CURVE_WITH_KNOTS((3,3),(0.00000000000000000E0,1.00000000000000000E0),.UNSPECIFIED.)CURVE()GEOMETRIC_REPRESENTATION_ITEM()RATIONAL_B_SPLINE_CURVE((1.00000000000000000E0,7.07106781186547573E-1,1.00000000000000000E0))REPRESENTATION_ITEM(''));
#143=CARTESIAN_POINT('',(2.00000000000000011E-1,0.00000000000000000E0,2.00000000000000011E-1));
#144=CARTESIAN_POINT('',(2.00000000000000011E-1,-2.00000000000000011E-1,0.00000000000000000E0));
#145=CARTESIAN_POINT('',(0.00000000000000000E0,-2.00000000000000011E-1,-2.00000000000000011E-1));
#146=(BOUNDED_CURVE()B_SPLINE_CURVE(2,(#143,#144,#145),.UNSPECIFIED.,.F.,.F.)B_SPLINE_CURVE_WITH_KNOTS((3,3),(0.00000000000000000E0,1.00000000000000000E0),.UNSPECIFIED.)CURVE()GEOMETRIC_REPRESENTATION_ITEM()RATIONAL_B_SPLINE_CURVE((1.00000000000000000E0,7.07106781186547573E-1,1.00000000000000000E0))REPRESENTATION_ITEM(''));
#147=CARTESIAN_POINT('',(0.00000000000000000E0,-2.00000000000000011E-1,-2.00000000000000011E-1));
#148=CARTESIAN_POINT('',(0.00000000000000000E0,-2.00000000000000011E-1,9.80000000000000071E0));
#149=B_SPLINE_CURVE_WITH_KNOTS('',1,(#147,#148),.UNSPECIFIED.,.F.,.F.,(2,2),(0.00000000000000000E0,1.00000000000000000E0),.UNSPECIFIED.);
#150=CARTESIAN_POINT('',(2.00000000000000011E-1,0.00000000000000000E0,1.01999999999999993E1));
#151=CARTESIAN_POINT('',(2.00000000000000011E-1,-2.00000000000000011E-1,1.00000000000000000E1));
#152=CARTESIAN_POINT('',(0.00000000000000000E0,-2.00000000000000011E-1,9.80000000000000071E0));
#153=(BOUNDED_CURVE()B_SPLINE_CURVE(2,(#150,#151,#152),.UNSPECIFIED.,.F.,.F.)B_SPLINE_CURVE_WITH_KNOTS((3,3),(0.00000000000000000E0,1.00000000000000000E0),.UNSPECIFIED.)CURVE()GEOMETRIC_REPRESENTATION_ITEM()RATIONAL_B_SPLINE_CURVE((1.00000000000000000E0,7.07106781186547573E-1,1.00000000000000000E0))REPRESENTATION_ITEM(''));
#154=CARTESIAN_POINT('',(2.00000000000000011E-1,0.00000000000000000E0,2.00000000000000011E-1));
#155=CARTESIAN_POINT('',(2.00000000000000011E-1,0.00000000000000000E0,1.01999999999999993E1));
#156=B_SPLINE_CURVE_WITH_KNOTS('',1,(#154,#155),.UNSPECIFIED.,.F.,.F.,(2,2),(0.00000000000000000E0,1.00000000000000000E0),.UNSPECIFIED.);
#157=CARTESIAN_POINT('',(0.00000000000000000E0,-2.00000000000000011E-1,-2.00000000000000011E-1));
#158=CARTESIAN_POINT('',(-2.00000000000000011E-1,-2.00000000000000011E-1,-4.00000000000000022E-1));
#159=CARTESIAN_POINT('',(-2.00000000000000011E-1,0.00000000000000000E0,-2.00000000000000011E-1));
#160=(BOUNDED_CURVE()B_SPLINE_CURVE(2,(#157,#158,#159),.UNSPECIFIED.,.F.,.F.)B_SPLINE_CURVE_WITH_KNOTS((3,3),(0.00000000000000000E0,1.00000000000000000E0),.UNSPECIFIED.)CURVE()GEOMETRIC_REPRESENTATION_ITEM()RATIONAL_B_SPLINE_CURVE((1.00000000000000000E0,7.07106781186547573E-1,1.00000000000000000E0))REPRESENTATION_ITEM(''));
#161=CARTESIAN_POINT('',(-2.00000000000000011E-1,0.00000000000000000E0,-2.00000000000000011E-1));
#162=CARTESIAN_POINT('',(-2.00000000000000011E-1,0.00000000000000000E0,9.80000000000000071E0));
#163=B_SPLINE_CURVE_WITH_KNOTS('',1,(#161,#162),.UNSPECIFIED.,.F.,.F.,(2,2),(0.00000000000000000E0,1.00000000000000000E0),.UNSPECIFIED.);
#164=CARTESIAN_POINT('',(0.00000000000000000E0,-2.00000000000000011E-1,9.80000000000000071E0));
#165=CARTESIAN_POINT('',(-2.00000000000000011E-1,-2.00000000000000011E-1,9.59999999999999964E0));
#166=CARTESIAN_POINT('',(-2.00000000000000011E-1,0.00000000000000000E0,9.80000000000000071E0));
#167=(BOUNDED_CURVE()B_SPLINE_CURVE(2,(#164,#165,#166),.UNSPECIFIED.,.F.,.F.)B_SPLINE_CURVE_WITH_KNOTS((3,3),(0.00000000000000000E0,1.00000000000000000E0),.UNSPECIFIED.)CURVE()GEOMETRIC_REPRESENTATION_ITEM()RATIONAL_B_SPLINE_CURVE((1.00000000000000000E0,7.07106781186547573E-1,1.00000000000000000E0))REPRESENTATION_ITEM(''));
#168=CARTESIAN_POINT('',(-2.00000000000000011E-1,0.00000000000000000E0,-2.00000000000000011E-1));
#169=CARTESIAN_POINT('',(-2.00000000000000011E-1,2.00000000000000011E-1,0.00000000000000000E0));
#170=CARTESIAN_POINT('',(0.00000000000000000E0,2.00000000000000011E-1,2.00000000000000011E-1));
#171=(BOUNDED_CURVE()B_SPLINE_CURVE(2,(#168,#169,#170),.UNSPECIFIED.,.F.,.F.)B_SPLINE_CURVE_WITH_KNOTS((3,3),(0.00000000000000000E0,1.00000000000000000E0),.UNSPECIFIED.)CURVE()GEOMETRIC_REPRESENTATION_ITEM()RATIONAL_B_SPLINE_CURVE((1.00000000000000000E0,7.07106781186547573E-1,1.00000000000000000E0))REPRESENTATION_ITEM(''));
#172=CARTESIAN_POINT('',(0.00000000000000000E0,2.00000000000000011E-1,2.00000000000000011E-1));
#173=CARTESIAN_POINT('',(0.00000000000000000E0,2.00000000000000011E-1,1.01999999999999993E1));
#174=B_SPLINE_CURVE_WITH_KNOTS('',1,(#172,#173),.UNSPECIFIED.,.F.,.F.,(2,2),(0.00000000000000000E0,1.00000000000000000E0),.UNSPECIFIED.);
#175=CARTESIAN_POINT('',(-2.00000000000000011E-1,0.00000000000000000E0,9.80000000000000071E0));
#176=CARTESIAN_POINT('',(-2.00000000000000011E-1,2.00000000000000011E-1,1.00000000000000000E1));
#177=CARTESIAN_POINT('',(0.00000000000000000E0,2.00000000000000011E-1,1.01999999999999993E1));
#178=(BOUNDED_CURVE()B_SPLINE_CURVE(2,(#175,#176,#177),.UNSPECIFIED.,.F.,.F.)B_SPLINE_CURVE_WITH_KNOTS((3,3),(0.00000000000000000E0,1.00000000000000000E0),.UNSPECIFIED.)CURVE()GEOMETRIC_REPRESENTATION_ITEM()RATIONAL_B_SPLINE_CURVE((1.00000000000000000E0,7.07106781186547573E-1,1.00000000000000000E0))REPRESENTATION_ITEM(''));
#179=CARTESIAN_POINT('',(2.00000000000000011E-1,0.00000000000000000E0,2.00000000000000011E-1));
#180=CARTESIAN_POINT('',(2.00000000000000011E-1,2.00000000000000011E-1,4.00000000000000022E-1));
#181=CARTESIAN_POINT('',(0.00000000000000000E0,2.00000000000000011E-1,2.00000000000000011E-1));
#182=(BOUNDED_CURVE()B_SPLINE_CURVE(2,(#179,#180,#181),.UNSPECIFIED.,.F.,.F.)B_SPLINE_CURVE_WITH_KNOTS((3,3),(0.00000000000000000E0,1.00000000000000000E0),.UNSPECIFIED.)CURVE()GEOMETRIC_REPRESENTATION_ITEM()RATIONAL_B_SPLINE_CURVE((1.00000000000000000E0,7.07106781186547573E-1,1.00000000000000000E0))REPRESENTATION_ITEM(''));
#183=CARTESIAN_POINT('',(2.00000000000000011E-1,0.00000000000000000E0,1.01999999999999993E1));
#184=CARTESIAN_POINT('',(2.00000000000000011E-1,2.00000000000000011E-1,1.04000000000000004E1));
#185=CARTESIAN_POINT('',(0.00000000000000000E0,2.00000000000000011E-1,1.01999999999999993E1));
#186=(BOUNDED_CURVE()B_SPLINE_CURVE(2,(#183,#184,#185),.UNSPECIFIED.,.F.,.F.)B_SPLINE_CURVE_WITH_KNOTS((3,3),(0.00000000000000000E0,1.00000000000000000E0),.UNSPECIFIED.)CURVE()GEOMETRIC_REPRESENTATION_ITEM()RATIONAL_B_SPLINE_CURVE((1.00000000000000000E0,7.07106781186547573E-1,1.00000000000000000E0))REPRESENTATION_ITEM(''));
#187=(GEOMETRIC_REPRESENTATION_CONTEXT(2)REPRESENTATION_CONTEXT('','2D'));
#188=CARTESIAN_POINT('',(0.00000000000000000E0,0.00000000000000000E0));
#189=CARTESIAN_POINT('',(1.00000000000000000E0,0.00000000000000000E0));
#190=B_SPLINE_CURVE_WITH_KNOTS('',1,(#188,#189),.UNSPECIFIED.,.F.,.F.,(2,2),(0.00000000000000000E0,1.00000000000000000E0),.UNSPECIFIED.);
#191=DEFINITIONAL_REPRESENTATION('',(#190),#187);
#192=PCURVE('',#39,#191);
#193=CARTESIAN_POINT('',(1.00000000000000000E0,0.00000000000000000E0));
#194=CARTESIAN_POINT('',(1.00000000000000000E0,1.00000000000000000E0));
#195=B_SPLINE_CURVE_WITH_KNOTS('',1,(#193,#194),.UNSPECIFIED.,.F.,.F.,(2,2),(0.00000000000000000E0,1.00000000000000000E0),.UNSPECIFIED.);
#196=DEFINITIONAL_REPRESENTATION('',(#195),#187);
#197=PCURVE('',#39,#196);
#198=CARTESIAN_POINT('',(1.00000000000000000E0,1.00000000000000000E0));
#199=CARTESIAN_POINT('',(0.00000000000000000E0,1.00000000000000000E0));
#200=B_SPLINE_CURVE_WITH_KNOTS('',1,(#198,#199),.UNSPECIFIED.,.F.,.F.,(2,2),(0.00000000000000000E0,1.00000000000000000E0),.UNSPECIFIED.);
#201=DEFINITIONAL_REPRESENTATION('',(#200),#187);
#202=PCURVE('',#39,#201);
#203=CARTESIAN_POINT('',(0.00000000000000000E0,1.00000000000000000E0));
#204=CARTESIAN_POINT('',(0.00000000000000000E0,0.00000000000000000E0));
#205=B_SPLINE_CURVE_WITH_KNOTS('',1,(#203,#204),.UNSPECIFIED.,.F.,.F.,(2,2),(0.00000000000000000E0,1.00000000000000000E0),.UNSPECIFIED.);
#206=DEFINITIONAL_REPRESENTATION('',(#205),#187);
#207=PCURVE('',#39,#206);
#208=CARTESIAN_POINT('',(0.00000000000000000E0,0.00000000000000000E0));
#209=CARTESIAN_POINT('',(1.00000000000000000E0,0.00000000000000000E0));
#210=B_SPLINE_CURVE_WITH_KNOTS('',1,(#208,#209),.UNSPECIFIED.,.F.,.F.,(2,2),(0.00000000000000000E0,1.00000000000000000E0),.UNSPECIFIED.);
#211=DEFINITIONAL_REPRESENTATION('',(#210),#187);
#212=PCURVE('',#46,#211);
#213=CARTESIAN_POINT('',(1.00000000000000000E0,0.00000000000000000E0));
#214=CARTESIAN_POINT('',(1.00000000000000000E0,1.00000000000000000E0));
#215=B_SPLINE_CURVE_WITH_KNOTS('',1,(#213,#214),.UNSPECIFIED.,.F.,.F.,(2,2),(0.00000000000000000E0,1.00000000000000000E0),.UNSPECIFIED.);
#216=DEFINITIONAL_REPRESENTATION('',(#215),#187);
#217=PCURVE('',#46,#216);
#218=CARTESIAN_POINT('',(1.00000000000000000E0,1.00000000000000000E0));
#219=CARTESIAN_POINT('',(0.00000000000000000E0,1.00000000000000000E0));
#220=B_SPLINE_CURVE_WITH_KNOTS('',1,(#218,#219),.UNSPECIFIED.,.F.,.F.,(2,2),(0.00000000000000000E0,1.00000000000000000E0),.UNSPECIFIED.);
#221=DEFINITIONAL_REPRESENTATION('',(#220),#187);
#222=PCURVE('',#46,#221);
#223=CARTESIAN_POINT('',(0.00000000000000000E0,1.00000000000000000E0));
#224=CARTESIAN_POINT('',(0.00000000000000000E0,0.00000000000000000E0));
#225=B_SPLINE_CURVE_WITH_KNOTS('',1,(#223,#224),.UNSPECIFIED.,.F.,.F.,(2,2),(0.00000000000000000E0,1.00000000000000000E0),.UNSPECIFIED.);
#226=DEFINITIONAL_REPRESENTATION('',(#225),#187);
#227=PCURVE('',#46,#226);
#228=CARTESIAN_POINT('',(0.00000000000000000E0,0.00000000000000000E0));
#229=CARTESIAN_POINT('',(1.00000000000000000E0,0.00000000000000000E0));
#230=B_SPLINE_CURVE_WITH_KNOTS('',1,(#228,#229),.UNSPECIFIED.,.F.,.F.,(2,2),(0.00000000000000000E0,1.00000000000000000E0),.UNSPECIFIED.);
#231=DEFINITIONAL_REPRESENTATION('',(#230),#187);
#232=PCURVE('',#53,#231);
#233=CARTESIAN_POINT('',(1.00000000000000000E0,0.00000000000000000E0));
#234=CARTESIAN_POINT('',(1.00000000000000000E0,1.00000000000000000E0));
#235=B_SPLINE_CURVE_WITH_KNOTS('',1,(#233,#234),.UNSPECIFIED.,.F.,.F.,(2,2),(0.00000000000000000E0,1.00000000000000000E0),.UNSPECIFIED.);
#236=DEFINITIONAL_REPRESENTATION('',(#235),#187);
#237=PCURVE('',#53,#236);
#238=CARTESIAN_POINT('',(1.00000000000000000E0,1.00000000000000000E0));
#239=CARTESIAN_POINT('',(0.00000000000000000E0,1.00000000000000000E0));
#240=B_SPLINE_CURVE_WITH_KNOTS('',1,(#238,#239),.UNSPECIFIED.,.F.,.F.,(2,2),(0.00000000000000000E0,1.00000000000000000E0),.UNSPECIFIED.);
#241=DEFINITIONAL_REPRESENTATION('',(#240),#187);
#242=PCURVE('',#53,#241);
#243=CARTESIAN_POINT('',(0.00000000000000000E0,1.00000000000000000E0));
#244=CARTESIAN_POINT('',(0.00000000000000000E0,0.00000000000000000E0));
#245=B_SPLINE_CURVE_WITH_KNOTS('',1,(#243,#244),.UNSPECIFIED.,.F.,.F.,(2,2),(0.00000000000000000E0,1.00000000000000000E0),.UNSPECIFIED.);
#246=DEFINITIONAL_REPRESENTATION('',(#245),#187);
#247=PCURVE('',#53,#246);
#248=CARTESIAN_POINT('',(0.00000000000000000E0,0.00000000000000000E0));
#249=CARTESIAN_POINT('',(1.00000000000000000E0,0.00000000000000000E0));
#250=B_SPLINE_CURVE_WITH_KNOTS('',1,(#248,#249),.UNSPECIFIED.,.F.,.F.,(2,2),(0.00000000000000000E0,1.00000000000000000E0),.UNSPECIFIED.);
#251=DEFINITIONAL_REPRESENTATION('',(#250),#187);
#252=PCURVE('',#60,#251);
#253=CARTESIAN_POINT('',(1.00000000000000000E0,0.00000000000000000E0));
#254=CARTESIAN_POINT('',(1.00000000000000000E0,1.00000000000000000E0));
#255=B_SPLINE_CURVE_WITH_KNOTS('',1,(#253,#254),.UNSPECIFIED.,.F.,.F.,(2,2),(0.00000000000000000E0,1.00000000000000000E0),.UNSPECIFIED.);
#256=DEFINITIONAL_REPRESENTATION('',(#255),#187);
#257=PCURVE('',#60,#256);
#258=CARTESIAN_POINT('',(1.00000000000000000E0,1.00000000000000000E0));
#259=CARTESIAN_POINT('',(0.00000000000000000E0,1.00000000000000000E0));
#260=B_SPLINE_CURVE_WITH_KNOTS('',1,(#258,#259),.UNSPECIFIED.,.F.,.F.,(2,2),(0.00000000000000000E0,1.00000000000000000E0),.UNSPECIFIED.);
#261=DEFINITIONAL_REPRESENTATION('',(#260),#187);
#262=PCURVE('',#60,#261);
#263=CARTESIAN_POINT('',(0.00000000000000000E0,1.00000000000000000E0));
#264=CARTESIAN_POINT('',(0.00000000000000000E0,0.00000000000000000E0));
#265=B_SPLINE_CURVE_WITH_KNOTS('',1,(#263,#264),.UNSPECIFIED.,.F.,.F.,(2,2),(0.00000000000000000E0,1.00000000000000000E0),.UNSPECIFIED.);
#266=DEFINITIONAL_REPRESENTATION('',(#265),#187);
#267=PCURVE('',#60,#266);
#268=CARTESIAN_POINT('',(0.00000000000000000E0,0.00000000000000000E0));
#269=CARTESIAN_POINT('',(1.00000000000000000E0,0.00000000000000000E0));
#270=B_SPLINE_CURVE_WITH_KNOTS('',1,(#268,#269),.UNSPECIFIED.,.F.,.F.,(2,2),(0.00000000000000000E0,1.00000000000000000E0),.UNSPECIFIED.);
#271=DEFINITIONAL_REPRESENTATION('',(#270),#187);
#272=PCURVE('',#67,#271);
#273=CARTESIAN_POINT('',(1.00000000000000000E0,0.00000000000000000E0));
#274=CARTESIAN_POINT('',(1.00000000000000000E0,1.00000000000000000E0));
#275=B_SPLINE_CURVE_WITH_KNOTS('',1,(#273,#274),.UNSPECIFIED.,.F.,.F.,(2,2),(0.00000000000000000E0,1.00000000000000000E0),.UNSPECIFIED.);
#276=DEFINITIONAL_REPRESENTATION('',(#275),#187);
#277=PCURVE('',#67,#276);
#278=CARTESIAN_POINT('',(1.00000000000000000E0,1.00000000000000000E0));
#279=CARTESIAN_POINT('',(0.00000000000000000E0,1.00000000000000000E0));
#280=B_SPLINE_CURVE_WITH_KNOTS('',1,(#278,#279),.UNSPECIFIED.,.F.,.F.,(2,2),(0.00000000000000000E0,1.00000000000000000E0),.UNSPECIFIED.);
#281=DEFINITIONAL_REPRESENTATION('',(#280),#187);
#282=PCURVE('',#67,#281);
#283=CARTESIAN_POINT('',(0.00000000000000000E0,1.00000000000000000E0));
#284=CARTESIAN_POINT('',(0.00000000000000000E0,0.00000000000000000E0));
#285=B_SPLINE_CURVE_WITH_KNOTS('',1,(#283,#284),.UNSPECIFIED.,.F.,.F.,(2,2),(0.00000000000000000E0,1.00000000000000000E0),.UNSPECIFIED.);
#286=DEFINITIONAL_REPRESENTATION('',(#285),#187);
#287=PCURVE('',#67,#286);
#288=CARTESIAN_POINT('',(0.00000000000000000E0,0.00000000000000000E0));
#289=CARTESIAN_POINT('',(1.00000000000000000E0,0.00000000000000000E0));
#290=B_SPLINE_CURVE_WITH_KNOTS('',1,(#288,#289),.UNSPECIFIED.,.F.,.F.,(2,2),(0.00000000000000000E0,1.00000000000000000E0),.UNSPECIFIED.);
#291=DEFINITIONAL_REPRESENTATION('',(#290),#187);
#292=PCURVE('',#74,#291);
#293=CARTESIAN_POINT('',(1.00000000000000000E0,0.00000000000000000E0));
#294=CARTESIAN_POINT('',(1.00000000000000000E0,1.00000000000000000E0));
#295=B_SPLINE_CURVE_WITH_KNOTS('',1,(#293,#294),.UNSPECIFIED.,.F.,.F.,(2,2),(0.00000000000000000E0,1.00000000000000000E0),.UNSPECIFIED.);
#296=DEFINITIONAL_REPRESENTATION('',(#295),#187);
#297=PCURVE('',#74,#296);
#298=CARTESIAN_POINT('',(1.00000000000000000E0,1.00000000000000000E0));
#299=CARTESIAN_POINT('',(0.00000000000000000E0,1.00000000000000000E0));
#300=B_SPLINE_CURVE_WITH_KNOTS('',1,(#298,#299),.UNSPECIFIED.,.F.,.F.,(2,2),(0.00000000000000000E0,1.00000000000000000E0),.UNSPECIFIED.);
#301=DEFINITIONAL_REPRESENTATION('',(#300),#187);
#302=PCURVE('',#74,#301);
#303=CARTESIAN_POINT('',(0.00000000000000000E0,1.00000000000000000E0));
#304=CARTESIAN_POINT('',(0.00000000000000000E0,0.00000000000000000E0));
#305=B_SPLINE_CURVE_WITH_KNOTS('',1,(#303,#304),.UNSPECIFIED.,.F.,.F.,(2,2),(0.00000000000000000E0,1.00000000000000000E0),.UNSPECIFIED.);
#306=DEFINITIONAL_REPRESENTATION('',(#305),#187);
#307=PCURVE('',#74,#306);
#308=CARTESIAN_POINT('',(0.00000000000000000E0,0.00000000000000000E0));
#309=CARTESIAN_POINT('',(1.00000000000000000E0,0.00000000000000000E0));
#310=B_SPLINE_CURVE_WITH_KNOTS('',1,(#308,#309),.UNSPECIFIED.,.F.,.F.,(2,2),(0.00000000000000000E0,1.00000000000000000E0),.UNSPECIFIED.);
#311=DEFINITIONAL_REPRESENTATION('',(#310),#187);
#312=PCURVE('',#81,#311);
#313=CARTESIAN_POINT('',(1.00000000000000000E0,0.00000000000000000E0));
#314=CARTESIAN_POINT('',(1.00000000000000000E0,1.00000000000000000E0));
#315=B_SPLINE_CURVE_WITH_KNOTS('',1,(#313,#314),.UNSPECIFIED.,.F.,.F.,(2,2),(0.00000000000000000E0,1.00000000000000000E0),.UNSPECIFIED.);
#316=DEFINITIONAL_REPRESENTATION('',(#315),#187);
#317=PCURVE('',#81,#316);
#318=CARTESIAN_POINT('',(1.00000000000000000E0,1.00000000000000000E0));
#319=CARTESIAN_POINT('',(0.00000000000000000E0,1.00000000000000000E0));
#320=B_SPLINE_CURVE_WITH_KNOTS('',1,(#318,#319),.UNSPECIFIED.,.F.,.F.,(2,2),(0.00000000000000000E0,1.00000000000000000E0),.UNSPECIFIED.);
#321=DEFINITIONAL_REPRESENTATION('',(#320),#187);
#322=PCURVE('',#81,#321);
#323=CARTESIAN_POINT('',(0.00000000000000000E0,1.00000000000000000E0));
#324=CARTESIAN_POINT('',(0.00000000000000000E0,0.00000000000000000E0));
#325=B_SPLINE_CURVE_WITH_KNOTS('',1,(#323,#324),.UNSPECIFIED.,.F.,.F.,(2,2),(0.00000000000000000E0,1.00000000000000000E0),.UNSPECIFIED.);
#326=DEFINITIONAL_REPRESENTATION('',(#325),#187);
#327=PCURVE('',#81,#326);
#328=CARTESIAN_POINT('',(0.00000000000000000E0,0.00000000000000000E0));
#329=CARTESIAN_POINT('',(1.00000000000000000E0,0.00000000000000000E0));
#330=B_SPLINE_CURVE_WITH_KNOTS('',1,(#328,#329),.UNSPECIFIED.,.F.,.F.,(2,2),(0.00000000000000000E0,1.00000000000000000E0),.UNSPECIFIED.);
#331=DEFINITIONAL_REPRESENTATION('',(#330),#187);
#332=PCURVE('',#88,#331);
#333=CARTESIAN_POINT('',(1.00000000000000000E0,0.00000000000000000E0));
#334=CARTESIAN_POINT('',(1.00000000000000000E0,1.00000000000000000E0));
#335=B_SPLINE_CURVE_WITH_KNOTS('',1,(#333,#334),.UNSPECIFIED.,.F.,.F.,(2,2),(0.00000000000000000E0,1.00000000000000000E0),.UNSPECIFIED.);
#336=DEFINITIONAL_REPRESENTATION('',(#335),#187);
#337=PCURVE('',#88,#336);
#338=CARTESIAN_POINT('',(1.00000000000000000E0,1.00000000000000000E0));
#339=CARTESIAN_POINT('',(0.00000000000000000E0,1.00000000000000000E0));
#340=B_SPLINE_CURVE_WITH_KNOTS('',1,(#338,#339),.UNSPECIFIED.,.F.,.F.,(2,2),(0.00000000000000000E0,1.00000000000000000E0),.UNSPECIFIED.);
#341=DEFINITIONAL_REPRESENTATION('',(#340),#187);
#342=PCURVE('',#88,#341);
#343=CARTESIAN_POINT('',(0.00000000000000000E0,1.00000000000000000E0));
#344=CARTESIAN_POINT('',(0.00000000000000000E0,0.00000000000000000E0));
#345=B_SPLINE_CURVE_WITH_KNOTS('',1,(#343,#344),.UNSPECIFIED.,.F.,.F.,(2,2),(0.00000000000000000E0,1.00000000000000000E0),.UNSPECIFIED.);
#346=DEFINITIONAL_REPRESENTATION('',(#345),#187);
#347=PCURVE('',#88,#346);
#348=CARTESIAN_POINT('',(-5.00000000000000000E-1,0.00000000000000000E0));
#349=CARTESIAN_POINT('',(-5.00000000000000000E-1,-5.00000000000000000E-1));
#350=CARTESIAN_POINT('',(0.00000000000000000E0,-5.00000000000000000E-1));
#351=(BOUNDED_CURVE()B_SPLINE_CURVE(2,(#348,#349,#350),.UNSPECIFIED.,.F.,.F.)B_SPLINE_CURVE_WITH_KNOTS((3,3),(0.00000000000000000E0,1.00000000000000000E0),.UNSPECIFIED.)CURVE()GEOMETRIC_REPRESENTATION_ITEM()RATIONAL_B_SPLINE_CURVE((1.00000000000000000E0,7.07106781186547573E-1,1.00000000000000000E0))REPRESENTATION_ITEM(''));
#352=DEFINITIONAL_REPRESENTATION('',(#351),#187);
#353=PCURVE('',#93,#352);
#354=CARTESIAN_POINT('',(0.00000000000000000E0,-5.00000000000000000E-1));
#355=CARTESIAN_POINT('',(5.00000000000000000E-1,-5.00000000000000000E-1));
#356=CARTESIAN_POINT('',(5.00000000000000000E-1,0.00000000000000000E0));
#357=(BOUNDED_CURVE()B_SPLINE_CURVE(2,(#354,#355,#356),.UNSPECIFIED.,.F.,.F.)B_SPLINE_CURVE_WITH_KNOTS((3,3),(0.00000000000000000E0,1.00000000000000000E0),.UNSPECIFIED.)CURVE()GEOMETRIC_REPRESENTATION_ITEM()RATIONAL_B_SPLINE_CURVE((1.00000000000000000E0,7.07106781186547573E-1,1.00000000000000000E0))REPRESENTATION_ITEM(''));
#358=DEFINITIONAL_REPRESENTATION('',(#357),#187);
#359=PCURVE('',#93,#358);
#360=CARTESIAN_POINT('',(5.00000000000000000E-1,0.00000000000000000E0));
#361=CARTESIAN_POINT('',(5.00000000000000000E-1,5.00000000000000000E-1));
#362=CARTESIAN_POINT('',(0.00000000000000000E0,5.00000000000000000E-1));
#363=(BOUNDED_CURVE()B_SPLINE_CURVE(2,(#360,#361,#362),.UNSPECIFIED.,.F.,.F.)B_SPLINE_CURVE_WITH_KNOTS((3,3),(0.00000000000000000E0,1.00000000000000000E0),.UNSPECIFIED.)CURVE()GEOMETRIC_REPRESENTATION_ITEM()RATIONAL_B_SPLINE_CURVE((1.00000000000000000E0,7.07106781186547573E-1,1.00000000000000000E0))REPRESENTATION_ITEM(''));
#364=DEFINITIONAL_REPRESENTATION('',(#363),#187);
#365=PCURVE('',#93,#364);
#366=CARTESIAN_POINT('',(0.00000000000000000E0,5.00000000000000000E-1));
#367=CARTESIAN_POINT('',(-5.00000000000000000E-1,5.00000000000000000E-1));
#368=CARTESIAN_POINT('',(-5.00000000000000000E-1,0.00000000000000000E0));
#369=(BOUNDED_CURVE()B_SPLINE_CURVE(2,(#366,#367,#368),.UNSPECIFIED.,.F.,.F.)B_SPLINE_CURVE_WITH_KNOTS((3,3),(0.00000000000000000E0,1.00000000000000000E0),.UNSPECIFIED.)CURVE()GEOMETRIC_REPRESENTATION_ITEM()RATIONAL_B_SPLINE_CURVE((1.00000000000000000E0,7.07106781186547573E-1,1.00000000000000000E0))REPRESENTATION_ITEM(''));
#370=DEFINITIONAL_REPRESENTATION('',(#369),#187);
#371=PCURVE('',#93,#370);
#372=CARTESIAN_POINT('',(-2.00000000000000011E-1,0.00000000000000000E0));
#373=CARTESIAN_POINT('',(-2.00000000000000011E-1,2.00000000000000011E-1));
#374=CARTESIAN_POINT('',(0.00000000000000000E0,2.00000000000000011E-1));
#375=(BOUNDED_CURVE()B_SPLINE_CURVE(2,(#372,#373,#374),.UNSPECIFIED.,.F.,.F.)B_SPLINE_CURVE_WITH_KNOTS((3,3),(0.00000000000000000E0,1.00000000000000000E0),.UNSPECIFIED.)CURVE()GEOMETRIC_REPRESENTATION_ITEM()RATIONAL_B_SPLINE_CURVE((1.00000000000000000E0,7.07106781186547573E-1,1.00000000000000000E0))REPRESENTATION_ITEM(''));
#376=DEFINITIONAL_REPRESENTATION('',(#375),#187);
#377=PCURVE('',#93,#376);
#378=CARTESIAN_POINT('',(0.00000000000000000E0,2.00000000000000011E-1));
#379=CARTESIAN_POINT('',(2.00000000000000011E-1,2.00000000000000011E-1));
#380=CARTESIAN_POINT('',(2.00000000000000011E-1,0.00000000000000000E0));
#381=(BOUNDED_CURVE()B_SPLINE_CURVE(2,(#378,#379,#380),.UNSPECIFIED.,.F.,.F.)B_SPLINE_CURVE_WITH_KNOTS((3,3),(0.00000000000000000E0,1.00000000000000000E0),.UNSPECIFIED.)CURVE()GEOMETRIC_REPRESENTATION_ITEM()RATIONAL_B_SPLINE_CURVE((1.00000000000000000E0,7.07106781186547573E-1,1.00000000000000000E0))REPRESENTATION_ITEM(''));
#382=DEFINITIONAL_REPRESENTATION('',(#381),#187);
#383=PCURVE('',#93,#382);
#384=CARTESIAN_POINT('',(2.00000000000000011E-1,0.00000000000000000E0));
#385=CARTESIAN_POINT('',(2.00000000000000011E-1,-2.00000000000000011E-1));
#386=CARTESIAN_POINT('',(0.00000000000000000E0,-2.00000000000000011E-1));
#387=(BOUNDED_CURVE()B_SPLINE_CURVE(2,(#384,#385,#386),.UNSPECIFIED.,.F.,.F.)B_SPLINE_CURVE_WITH_KNOTS((3,3),(0.00000000000000000E0,1.00000000000000000E0),.UNSPECIFIED.)CURVE()GEOMETRIC_REPRESENTATION_ITEM()RATIONAL_B_SPLINE_CURVE((1.00000000000000000E0,7.07106781186547573E-1,1.00000000000000000E0))REPRESENTATION_ITEM(''));
#388=DEFINITIONAL_REPRESENTATION('',(#387),#187);
#389=PCURVE('',#93,#388);
#390=CARTESIAN_POINT('',(0.00000000000000000E0,-2.00000000000000011E-1));
#391=CARTESIAN_POINT('',(-2.00000000000000011E-1,-2.00000000000000011E-1));
#392=CARTESIAN_POINT('',(-2.00000000000000011E-1,0.00000000000000000E0));
#393=(BOUNDED_CURVE()B_SPLINE_CURVE(2,(#390,#391,#392),.UNSPECIFIED.,.F.,.F.)B_SPLINE_CURVE_WITH_KNOTS((3,3),(0.00000000000000000E0,1.00000000000000000E0),.UNSPECIFIED.)CURVE()GEOMETRIC_REPRESENTATION_ITEM()RATIONAL_B_SPLINE_CURVE((1.00000000000000000E0,7.07106781186547573E-1,1.00000000000000000E0))REPRESENTATION_ITEM(''));
#394=DEFINITIONAL_REPRESENTATION('',(#393),#187);
#395=PCURVE('',#93,#394);
#396=CARTESIAN_POINT('',(5.00000000000000000E-1,0.00000000000000000E0));
#397=CARTESIAN_POINT('',(5.00000000000000000E-1,5.00000000000000000E-1));
#398=CARTESIAN_POINT('',(0.00000000000000000E0,5.00000000000000000E-1));
#399=(BOUNDED_CURVE()B_SPLINE_CURVE(2,(#396,#397,#398),.UNSPECIFIED.,.F.,.F.)B_SPLINE_CURVE_WITH_KNOTS((3,3),(0.00000000000000000E0,1.00000000000000000E0),.UNSPECIFIED.)CURVE()GEOMETRIC_REPRESENTATION_ITEM()RATIONAL_B_SPLINE_CURVE((1.00000000000000000E0,7.07106781186547573E-1,1.00000000000000000E0))REPRESENTATION_ITEM(''));
#400=DEFINITIONAL_REPRESENTATION('',(#399),#187);
#401=PCURVE('',#98,#400);
#402=CARTESIAN_POINT('',(0.00000000000000000E0,5.00000000000000000E-1));
#403=CARTESIAN_POINT('',(-5.00000000000000000E-1,5.00000000000000000E-1));
#404=CARTESIAN_POINT('',(-5.00000000000000000E-1,0.00000000000000000E0));
#405=(BOUNDED_CURVE()B_SPLINE_CURVE(2,(#402,#403,#404),.UNSPECIFIED.,.F.,.F.)B_SPLINE_CURVE_WITH_KNOTS((3,3),(0.00000000000000000E0,1.00000000000000000E0),.UNSPECIFIED.)CURVE()GEOMETRIC_REPRESENTATION_ITEM()RATIONAL_B_SPLINE_CURVE((1.00000000000000000E0,7.07106781186547573E-1,1.00000000000000000E0))REPRESENTATION_ITEM(''));
#406=DEFINITIONAL_REPRESENTATION('',(#405),#187);
#407=PCURVE('',#98,#406);
#408=CARTESIAN_POINT('',(-5.00000000000000000E-1,0.00000000000000000E0));
#409=CARTESIAN_POINT('',(-5.00000000000000000E-1,-5.00000000000000000E-1));
#410=CARTESIAN_POINT('',(0.00000000000000000E0,-5.00000000000000000E-1));
#411=(BOUNDED_CURVE()B_SPLINE_CURVE(2,(#408,#409,#410),.UNSPECIFIED.,.F.,.F.)B_SPLINE_CURVE_WITH_KNOTS((3,3),(0.00000000000000000E0,1.00000000000000000E0),.UNSPECIFIED.)CURVE()GEOMETRIC_REPRESENTATION_ITEM()RATIONAL_B_SPLINE_CURVE((1.00000000000000000E0,7.07106781186547573E-1,1.00000000000000000E0))REPRESENTATION_ITEM(''));
#412=DEFINITIONAL_REPRESENTATION('',(#411),#187);
#413=PCURVE('',#98,#412);
#414=CARTESIAN_POINT('',(0.00000000000000000E0,-5.00000000000000000E-1));
#415=CARTESIAN_POINT('',(5.00000000000000000E-1,-5.00000000000000000E-1));
#416=CARTESIAN_POINT('',(5.00000000000000000E-1,0.00000000000000000E0));
#417=(BOUNDED_CURVE()B_SPLINE_CURVE(2,(#414,#415,#416),.UNSPECIFIED.,.F.,.F.)B_SPLINE_CURVE_WITH_KNOTS((3,3),(0.00000000000000000E0,1.00000000000000000E0),.UNSPECIFIED.)CURVE()GEOMETRIC_REPRESENTATION_ITEM()RATIONAL_B_SPLINE_CURVE((1.00000000000000000E0,7.07106781186547573E-1,1.00000000000000000E0))REPRESENTATION_ITEM(''));
#418=DEFINITIONAL_REPRESENTATION('',(#417),#187);
#419=PCURVE('',#98,#418);
#420=CARTESIAN_POINT('',(2.00000000000000011E-1,0.00000000000000000E0));
#421=CARTESIAN_POINT('',(2.00000000000000011E-1,-2.00000000000000011E-1));
#422=CARTESIAN_POINT('',(0.00000000000000000E0,-2.00000000000000011E-1));
#423=(BOUNDED_CURVE()B_SPLINE_CURVE(2,(#420,#421,#422),.UNSPECIFIED.,.F.,.F.)B_SPLINE_CURVE_WITH_KNOTS((3,3),(0.00000000000000000E0,1.00000000000000000E0),.UNSPECIFIED.)CURVE()GEOMETRIC_REPRESENTATION_ITEM()RATIONAL_B_SPLINE_CURVE((1.00000000000000000E0,7.07106781186547573E-1,1.00000000000000000E0))REPRESENTATION_ITEM(''));
#424=DEFINITIONAL_REPRESENTATION('',(#423),#187);
#425=PCURVE('',#98,#424);
#426=CARTESIAN_POINT('',(0.00000000000000000E0,-2.00000000000000011E-1));
#427=CARTESIAN_POINT('',(-2.00000000000000011E-1,-2.00000000000000011E-1));
#428=CARTESIAN_POINT('',(-2.00000000000000011E-1,0.00000000000000000E0));
#429=(BOUNDED_CURVE()B_SPLINE_CURVE(2,(#426,#427,#428),.UNSPECIFIED.,.F.,.F.)B_SPLINE_CURVE_WITH_KNOTS((3,3),(0.00000000000000000E0,1.00000000000000000E0),.UNSPECIFIED.)CURVE()GEOMETRIC_REPRESENTATION_ITEM()RATIONAL_B_SPLINE_CURVE((1.00000000000000000E0,7.07106781186547573E-1,1.00000000000000000E0))REPRESENTATION_ITEM(''));
#430=DEFINITIONAL_REPRESENTATION('',(#429),#187);
#431=PCURVE('',#98,#430);
#432=CARTESIAN_POINT('',(-2.00000000000000011E-1,0.00000000000000000E0));
#433=CARTESIAN_POINT('',(-2.00000000000000011E-1,2.00000000000000011E-1));
#434=CARTESIAN_POINT('',(0.00000000000000000E0,2.00000000000000011E-1));
#435=(BOUNDED_CURVE()B_SPLINE_CURVE(2,(#432,#433,#434),.UNSPECIFIED.,.F.,.F.)B_SPLINE_CURVE_WITH_KNOTS((3,3),(0.00000000000000000E0,1.00000000000000000E0),.UNSPECIFIED.)CURVE()GEOMETRIC_REPRESENTATION_ITEM()RATIONAL_B_SPLINE_CURVE((1.00000000000000000E0,7.07106781186547573E-1,1.00000000000000000E0))REPRESENTATION_ITEM(''));
#436=DEFINITIONAL_REPRESENTATION('',(#435),#187);
#437=PCURVE('',#98,#436);
#438=CARTESIAN_POINT('',(0.00000000000000000E0,2.00000000000000011E-1));
#439=CARTESIAN_POINT('',(2.00000000000000011E-1,2.00000000000000011E-1));
#440=CARTESIAN_POINT('',(2.00000000000000011E-1,0.00000000000000000E0));
#441=(BOUNDED_CURVE()B_SPLINE_CURVE(2,(#438,#439,#440),.UNSPECIFIED.,.F.,.F.)B_SPLINE_CURVE_WITH_KNOTS((3,3),(0.00000000000000000E0,1.00000000000000000E0),.UNSPECIFIED.)CURVE()GEOMETRIC_REPRESENTATION_ITEM()RATIONAL_B_SPLINE_CURVE((1.00000000000000000E0,7.07106781186547573E-1,1.00000000000000000E0))REPRESENTATION_ITEM(''));
#442=DEFINITIONAL_REPRESENTATION('',(#441),#187);
#443=PCURVE('',#98,#442);
#444=SURFACE_CURVE('',#102,(#192,#371),.PCURVE_S1.);
#445=EDGE_CURVE('OSCAD_TOPO/3|edge|e:72987ed2b5b10acfc8ac1548b89c8d0d|bac125c85cf04780f586395b7d2d12544fbe5b32d10455b697ebbccf2181904c',#2,#4,#444,.T.);
#446=SURFACE_CURVE('',#105,(#197,#227),.PCURVE_S1.);
#447=EDGE_CURVE('OSCAD_TOPO/3|edge|e:88df429acefc7b892c5a31d8637cc3a4|a288205f6a445ab434710486d252d889613f3c19238e47bd46cd40d934f9b47b',#4,#20,#446,.T.);
#448=SURFACE_CURVE('',#109,(#202,#401),.PCURVE_S1.);
#449=EDGE_CURVE('OSCAD_TOPO/3|edge|e:c30976ef0312e1f670f1e60f35efa08d|f7fda83bdd212fe9edfc8d60b09a5f1a14136c686eedfb42c0f5e4a73db2db18',#18,#20,#448,.T.);
#450=SURFACE_CURVE('',#112,(#207,#257),.PCURVE_S1.);
#451=EDGE_CURVE('OSCAD_TOPO/3|edge|e:c02f4d42022ebe2cf5315a4716879d14|db9addb60931136eaf8233a6f8ee857b29bdfba6235c950547cfcf05227d0ae9',#2,#18,#450,.T.);
#452=SURFACE_CURVE('',#116,(#212,#365),.PCURVE_S1.);
#453=EDGE_CURVE('OSCAD_TOPO/3|edge|e:36c745b77e44fde69330ccc127247a04|22f36db5872f11ddd27578986943df59c5cbe887018fbbc9275523b4322c055d',#4,#6,#452,.T.);
#454=SURFACE_CURVE('',#119,(#217,#247),.PCURVE_S1.);
#455=EDGE_CURVE('OSCAD_TOPO/3|edge|e:c20424c621c296454458e2aac0c4429c|b0564ee7c843f2cd1f5ffb326d1a5716956d8c20f265d5dc7aa1e0c4b92e2e92',#6,#22,#454,.T.);
#456=SURFACE_CURVE('',#123,(#222,#407),.PCURVE_S1.);
#457=EDGE_CURVE('OSCAD_TOPO/3|edge|e:5afb7f91b4cd1f0308b8ff4f0c462d89|25c11f86c92810de6e798477a95857317632b44f8b5c018a2bc7938bc69f3b7b',#20,#22,#456,.T.);
#458=SURFACE_CURVE('',#127,(#232,#359),.PCURVE_S1.);
#459=EDGE_CURVE('OSCAD_TOPO/3|edge|e:061829fddb95204f19be10f9dc84d9dc|4d4a201c7618a6d2e255a69d6d207fd7a5540068c415a9b5f5c8885a2d46a559',#6,#8,#458,.T.);
#460=SURFACE_CURVE('',#130,(#237,#267),.PCURVE_S1.);
#461=EDGE_CURVE('OSCAD_TOPO/3|edge|e:0f65d6f51ad8616a5004f79d62b39c10|f99747bd09c91c9cf93f41729b67251637de09b286384cff79baea874931e04f',#8,#24,#460,.T.);
#462=SURFACE_CURVE('',#134,(#242,#413),.PCURVE_S1.);
#463=EDGE_CURVE('OSCAD_TOPO/3|edge|e:c43fbe7dce442c19724e482e205ce081|97f48491d9484e2e93b94fdf1293f7f28a927f49bc6b7ede9e07bc4115e30cbc',#22,#24,#462,.T.);
#464=SURFACE_CURVE('',#138,(#252,#353),.PCURVE_S1.);
#465=EDGE_CURVE('OSCAD_TOPO/3|edge|e:caed41cf9e37d40e51845f863d97aa57|1b856c7d2fe7cb6719e01f191e49122cd6b70b601ddc0d62dac14c667c1bf1f0',#2,#8,#464,.T.);
#466=SURFACE_CURVE('',#142,(#262,#419),.PCURVE_S1.);
#467=EDGE_CURVE('OSCAD_TOPO/3|edge|e:9d321e889a33d39860e0c914fe78a309|50400c09fafcdd2cd2f27ad172dc00bc5de8ac37db74e3aaa43a142e834a8be8',#18,#24,#466,.T.);
#468=SURFACE_CURVE('',#146,(#272,#395),.PCURVE_S1.);
#469=EDGE_CURVE('OSCAD_TOPO/3|edge|e:0ddb2fe9267d6de9230823e50f024f94|87ab2d82f64789715912a0a6f178c1cf393540c288aa362653a874641846384e',#10,#12,#468,.T.);
#470=SURFACE_CURVE('',#149,(#277,#307),.PCURVE_S1.);
#471=EDGE_CURVE('OSCAD_TOPO/3|edge|e:c6e4b4ad84f32fcc408c1546695ec396|09b156e78f4019b059724442bfd69ac581f3975d2a2bddf7c47be2413c4bbca0',#12,#28,#470,.T.);
#472=SURFACE_CURVE('',#153,(#282,#425),.PCURVE_S1.);
#473=EDGE_CURVE('OSCAD_TOPO/3|edge|e:bcf13f562b06982b0b5ec82eb8c0892c|b92e80471faae5aa9226fa089036f0bb226822a664579b0c132a58160866440e',#26,#28,#472,.T.);
#474=SURFACE_CURVE('',#156,(#287,#337),.PCURVE_S1.);
#475=EDGE_CURVE('OSCAD_TOPO/3|edge|e:110a46b9bc6dc01a270f06cf520846eb|bc6f05082e68b8552e85b56b2aba829199dccf1fb0e8a357c4f732e9c160d905',#10,#26,#474,.T.);
#476=SURFACE_CURVE('',#160,(#292,#389),.PCURVE_S1.);
#477=EDGE_CURVE('OSCAD_TOPO/3|edge|e:c7799a138d411c47a21a840ce5967bb7|d4c50b12056eb9717d2f52ff7ae0f3d301d7089dea54d728e3439b2878e6121b',#12,#14,#476,.T.);
#478=SURFACE_CURVE('',#163,(#297,#327),.PCURVE_S1.);
#479=EDGE_CURVE('OSCAD_TOPO/3|edge|e:f2adc3cb8c484dc3721ddb6cf03eb376|814882d068c160689368dbc3c56ab01e5894f3b3633349c97e2a619d0650e43d',#14,#30,#478,.T.);
#480=SURFACE_CURVE('',#167,(#302,#431),.PCURVE_S1.);
#481=EDGE_CURVE('OSCAD_TOPO/3|edge|e:5994b17f831306661421cbc5fb81432b|7cefab77f30eb28cb6fbea989215168e0576bfdc703c33bf8f9ac0b939f97e94',#28,#30,#480,.T.);
#482=SURFACE_CURVE('',#171,(#312,#383),.PCURVE_S1.);
#483=EDGE_CURVE('OSCAD_TOPO/3|edge|e:af195f3ff807dd9969c8c768fa792789|9b2be97c8050282a33490f82a6982dc3e964662697b1e767b1f20db2825fac46',#14,#16,#482,.T.);
#484=SURFACE_CURVE('',#174,(#317,#347),.PCURVE_S1.);
#485=EDGE_CURVE('OSCAD_TOPO/3|edge|e:f4b3f59af577aa3c4a66fb86cbe6fa3b|f134a5683ddd7243f2aebbf6b59b00b2ef241506e446099eb5346bff0423b7b0',#16,#32,#484,.T.);
#486=SURFACE_CURVE('',#178,(#322,#437),.PCURVE_S1.);
#487=EDGE_CURVE('OSCAD_TOPO/3|edge|e:a047a52ede95f818bca30c68d37e62df|ed6a3b7021ffb8aece56a1d0159b5912f9b8a9a400f0361f8e97b04147492cbf',#30,#32,#486,.T.);
#488=SURFACE_CURVE('',#182,(#332,#377),.PCURVE_S1.);
#489=EDGE_CURVE('OSCAD_TOPO/3|edge|e:0c14499c5d6962d56273c5dec648f554|96be5cde851f4e2538486ed5bb36c653c19e6604c13deee0136a34c1b4f97ab6',#10,#16,#488,.T.);
#490=SURFACE_CURVE('',#186,(#342,#443),.PCURVE_S1.);
#491=EDGE_CURVE('OSCAD_TOPO/3|edge|e:ca6133b15c32a78101cbca4d6ed55e44|f207a692cf680c75e60200cfa79b962b0e664420185d44d27f248107ffe4d5d6',#26,#32,#490,.T.);
#492=ORIENTED_EDGE('',*,*,#445,.T.);
#493=ORIENTED_EDGE('',*,*,#447,.T.);
#494=ORIENTED_EDGE('',*,*,#449,.F.);
#495=ORIENTED_EDGE('',*,*,#451,.F.);
#496=EDGE_LOOP('OSCAD_TOPO/3|loop|l:5d53be51e021751550d845bb26f96b2e|a517aad802e160cea50c49e7713e6191de83dd888ac5f4f6d2ad5a827bba7570',(#492,#493,#494,#495));
#497=ORIENTED_EDGE('',*,*,#453,.T.);
#498=ORIENTED_EDGE('',*,*,#455,.T.);
#499=ORIENTED_EDGE('',*,*,#457,.F.);
#500=ORIENTED_EDGE('',*,*,#447,.F.);
#501=EDGE_LOOP('OSCAD_TOPO/3|loop|l:05c944cdd65374d0f90b40b3617770b9|ed15b506d5d5872b02b2c3134930664f188d3e586995b0d52d2aff9f39860ddb',(#497,#498,#499,#500));
#502=ORIENTED_EDGE('',*,*,#459,.T.);
#503=ORIENTED_EDGE('',*,*,#461,.T.);
#504=ORIENTED_EDGE('',*,*,#463,.F.);
#505=ORIENTED_EDGE('',*,*,#455,.F.);
#506=EDGE_LOOP('OSCAD_TOPO/3|loop|l:f0532dcd534edede2a8c5d551da57d81|808e6c057d51f897b4822e522145e64d41e436c796fcbddfed25cbd26bdae6f3',(#502,#503,#504,#505));
#507=ORIENTED_EDGE('',*,*,#465,.F.);
#508=ORIENTED_EDGE('',*,*,#451,.T.);
#509=ORIENTED_EDGE('',*,*,#467,.T.);
#510=ORIENTED_EDGE('',*,*,#461,.F.);
#511=EDGE_LOOP('OSCAD_TOPO/3|loop|l:fc3fc734e1266848e92f87cbc7a4f507|887c5aa5bfcd5d0c1889b4d49e9376d39285a18d3f67e0675b98cfbf0facce71',(#507,#508,#509,#510));
#512=ORIENTED_EDGE('',*,*,#469,.T.);
#513=ORIENTED_EDGE('',*,*,#471,.T.);
#514=ORIENTED_EDGE('',*,*,#473,.F.);
#515=ORIENTED_EDGE('',*,*,#475,.F.);
#516=EDGE_LOOP('OSCAD_TOPO/3|loop|l:a94badd19ad2c0b64d1650000b1a99ea|c6e4b559aae98d9814d02a37bf8ba22af6d5fa201e938af5ada331e121b174b1',(#512,#513,#514,#515));
#517=ORIENTED_EDGE('',*,*,#477,.T.);
#518=ORIENTED_EDGE('',*,*,#479,.T.);
#519=ORIENTED_EDGE('',*,*,#481,.F.);
#520=ORIENTED_EDGE('',*,*,#471,.F.);
#521=EDGE_LOOP('OSCAD_TOPO/3|loop|l:1c200e4778467f5f2521092ed22ac85a|cef24d8f29bcefdf78e1cdb12c3976b098dc0b487dcdc460d1e2f6f8e3ab7a2d',(#517,#518,#519,#520));
#522=ORIENTED_EDGE('',*,*,#483,.T.);
#523=ORIENTED_EDGE('',*,*,#485,.T.);
#524=ORIENTED_EDGE('',*,*,#487,.F.);
#525=ORIENTED_EDGE('',*,*,#479,.F.);
#526=EDGE_LOOP('OSCAD_TOPO/3|loop|l:980d15af9a514ff3c18e764e9eb238a8|29e451d5e134ce74c7d242e639313faaf4035196ce81fe22e1621f2fb10ef961',(#522,#523,#524,#525));
#527=ORIENTED_EDGE('',*,*,#489,.F.);
#528=ORIENTED_EDGE('',*,*,#475,.T.);
#529=ORIENTED_EDGE('',*,*,#491,.T.);
#530=ORIENTED_EDGE('',*,*,#485,.F.);
#531=EDGE_LOOP('OSCAD_TOPO/3|loop|l:9c40cb3d4d948b40bbe8432e82a09a12|d34a37cbd6d5b78187b69fee9c08752bb56a5c320d4fbbb3e9fe69876cc5aa98',(#527,#528,#529,#530));
#532=ORIENTED_EDGE('',*,*,#465,.T.);
#533=ORIENTED_EDGE('',*,*,#459,.F.);
#534=ORIENTED_EDGE('',*,*,#453,.F.);
#535=ORIENTED_EDGE('',*,*,#445,.F.);
#536=EDGE_LOOP('OSCAD_TOPO/3|loop|l:6643b10370548dc2fe8d1d1d1699d950|07c054b75adfe9f02990299db6db0727fc720ed28e31e2f1af9f4512f0a9ca88',(#532,#533,#534,#535));
#537=ORIENTED_EDGE('',*,*,#489,.T.);
#538=ORIENTED_EDGE('',*,*,#483,.F.);
#539=ORIENTED_EDGE('',*,*,#477,.F.);
#540=ORIENTED_EDGE('',*,*,#469,.F.);
#541=EDGE_LOOP('OSCAD_TOPO/3|loop|l:af03f1a3481351cc06795576b6ba86fc|eec5bd5403994087730c114ce1f094fd8bd95395c7bd602355d231526ba05470',(#537,#538,#539,#540));
#542=ORIENTED_EDGE('',*,*,#449,.T.);
#543=ORIENTED_EDGE('',*,*,#457,.T.);
#544=ORIENTED_EDGE('',*,*,#463,.T.);
#545=ORIENTED_EDGE('',*,*,#467,.F.);
#546=EDGE_LOOP('OSCAD_TOPO/3|loop|l:9b0a2d7b099f5c67aae14b243e3ec491|7ad97da9d242d2a8228833bc9b22af17c8e47cd6e8c7c2edde98b264555e92a6',(#542,#543,#544,#545));
#547=ORIENTED_EDGE('',*,*,#473,.T.);
#548=ORIENTED_EDGE('',*,*,#481,.T.);
#549=ORIENTED_EDGE('',*,*,#487,.T.);
#550=ORIENTED_EDGE('',*,*,#491,.F.);
#551=EDGE_LOOP('OSCAD_TOPO/3|loop|l:cd88ab734ee1d42c6c58e2ff00bc3c0f|17d4a94baeba48600b351d72e5c706bb28f4a934f9db811b6996ae9a0c6b6ff0',(#547,#548,#549,#550));
#552=FACE_OUTER_BOUND('',#496,.T.);
#553=ADVANCED_FACE('OSCAD_TOPO/3|face|f:959eebe1b7681e167584edf6fe2ead95|9b72320b63212acbb42dc170445d4cb9445928bd694a7f016e319325812b5d20',(#552),#39,.T.);
#554=FACE_OUTER_BOUND('',#501,.T.);
#555=ADVANCED_FACE('OSCAD_TOPO/3|face|f:b249e3645213483c39d7bf9a4fabe39e|a9964a00f4958aa35c7d931ddaa5f09f90e2f9343151524f0b299d03d425eadb',(#554),#46,.T.);
#556=FACE_OUTER_BOUND('',#506,.T.);
#557=ADVANCED_FACE('OSCAD_TOPO/3|face|f:8c2dfca7628cc885bf0004497b617f7a|98bb509e39688bade7265841278843dd8a7afe565af8ab3ceab4280957a7e4af',(#556),#53,.T.);
#558=FACE_OUTER_BOUND('',#511,.T.);
#559=ADVANCED_FACE('OSCAD_TOPO/3|face|f:2de275f5cbc11ab388cc3b8f4e243981|e276eb1ad9be5945312d2cb400506c6013d2e15be13583cad2de9cbd423211b4',(#558),#60,.T.);
#560=FACE_OUTER_BOUND('',#516,.T.);
#561=ADVANCED_FACE('OSCAD_TOPO/3|face|f:dbe96c18f319f50005e240c0cbad42dd|7831b0e2c5bd19e8cff421576daf0888e27d7e73680480e494af9a33196598b0',(#560),#67,.T.);
#562=FACE_OUTER_BOUND('',#521,.T.);
#563=ADVANCED_FACE('OSCAD_TOPO/3|face|f:4785905a136fa5e07d0d0bd0509d2083|0f9cfe911e93953325b3fe5c0d2290d987851c52c836efe291ec5ac5844b23b5',(#562),#74,.T.);
#564=FACE_OUTER_BOUND('',#526,.T.);
#565=ADVANCED_FACE('OSCAD_TOPO/3|face|f:1b889c5ef9576a9c3361da580aa464d3|1faf5aa760bd1ad057aaac9f9f13f00f576a904121def55a41c7b16aaee40a4d',(#564),#81,.T.);
#566=FACE_OUTER_BOUND('',#531,.T.);
#567=ADVANCED_FACE('OSCAD_TOPO/3|face|f:936c657bfc27de802d3ba57388d94c25|23c6424ad9a0a57d61aad2250bc18259ad4a2a4b56807b128dd8f899ce720645',(#566),#88,.T.);
#568=FACE_OUTER_BOUND('',#536,.T.);
#569=FACE_BOUND('',#541,.T.);
#570=ADVANCED_FACE('OSCAD_TOPO/3|face|f:26a48d57c7fab5df1c1ce50a9c5f31f5|7b5f414b63fd10c7bb9dc10cfcc0f7cc52a4c3bcbd104af68474ec3dbe52c83c',(#568,#569),#93,.T.);
#571=FACE_OUTER_BOUND('',#546,.T.);
#572=FACE_BOUND('',#551,.T.);
#573=ADVANCED_FACE('OSCAD_TOPO/3|face|f:7d7bc0b6e785a0e04f869effaf298e5b|a94fd957e3420c00303cfec431106428beeb2f70c2f210fa55998841107d4efe',(#571,#572),#98,.T.);
#574=CLOSED_SHELL('OSCAD_TOPO/3|shell|s:d33b94fec0fee9832a1a5005fc6a8bdc|09ae5b2505856e62c52d092ec9332e906bd3dd2c95a5424c670984ef308b5859',(#553,#555,#557,#559,#561,#563,#565,#567,#570,#573));
#575=MANIFOLD_SOLID_BREP('OSCAD_TOPO/3|body|b:5276df9b992e0c5b98bf5856aa100591|713f548582dd0b438a6d8bfc1d531e39474e84a1d26ae464e2a7626108b85fb9',#574);
#576=(LENGTH_UNIT()NAMED_UNIT(*)SI_UNIT(.MILLI.,.METRE.));
#577=UNCERTAINTY_MEASURE_WITH_UNIT(LENGTH_MEASURE(9.99999999999999955E-8),#576,'distance_accuracy_value','');
#578=(GEOMETRIC_REPRESENTATION_CONTEXT(3)GLOBAL_UNCERTAINTY_ASSIGNED_CONTEXT((#577))GLOBAL_UNIT_ASSIGNED_CONTEXT((#576))REPRESENTATION_CONTEXT('','3D'));
#579=ADVANCED_BREP_SHAPE_REPRESENTATION('',(#575),#578);
#580=APPLICATION_CONTEXT('managed model based 3d engineering');
#581=PRODUCT_CONTEXT('',#580,'mechanical');
#582=PRODUCT('model','model','',(#581));
#583=PRODUCT_DEFINITION_FORMATION('1','',#582);
#584=PRODUCT_DEFINITION_CONTEXT('part definition',#580,'design');
#585=PRODUCT_DEFINITION('design','',#583,#584);
#586=PRODUCT_DEFINITION_SHAPE('','',#585);
#587=SHAPE_DEFINITION_REPRESENTATION(#586,#579);
ENDSEC;
END-ISO-10303-21;
