ISO-10303-21;
HEADER;
FILE_DESCRIPTION(('OpenSCAD Viewer retained AP242 B-rep'),'2;1');
FILE_NAME('model.step','',(''),(''),'OpenSCAD Viewer','OpenSCAD Viewer','');
FILE_SCHEMA(('AP242_MANAGED_MODEL_BASED_3D_ENGINEERING_MIM_LF'));
ENDSEC;
DATA;
#1=CARTESIAN_POINT('',(-1.00000000000000000E0,-1.00000000000000000E0,0.00000000000000000E0));
#2=VERTEX_POINT('OSCAD_TOPO/3|vertex|v:8b0c401dfd26c9a864e5e6912223f1ff|c22b42f7031b3d39e586b7a14506935abee601cc3f0277ed0e65b51a4ffaf060',#1);
#3=CARTESIAN_POINT('',(1.00000000000000000E0,-1.00000000000000000E0,0.00000000000000000E0));
#4=VERTEX_POINT('OSCAD_TOPO/3|vertex|v:77db26283c111e57dea65bec9e96e3f2|3b7a245ba826dc22e8e356d6ea9a956e50c1f53f3b674482ac9f946b229420af',#3);
#5=CARTESIAN_POINT('',(1.00000000000000000E0,1.00000000000000000E0,0.00000000000000000E0));
#6=VERTEX_POINT('OSCAD_TOPO/3|vertex|v:b471cab15cd502e0183cbd792ffff343|7c0ff219006a237dcc031f736e659b62986b2df98f2deef8ed6d0c548d655cf1',#5);
#7=CARTESIAN_POINT('',(-1.00000000000000000E0,1.00000000000000000E0,0.00000000000000000E0));
#8=VERTEX_POINT('OSCAD_TOPO/3|vertex|v:dedf867940d7ce1bf3d19ea721a13e86|c79627e33fa4623f5bf7bd78396dc21b287e38d0b11ada7cd0c54481f3b10a6f',#7);
#9=CARTESIAN_POINT('',(-2.00000000000000000E0,-2.00000000000000000E0,5.00000000000000000E0));
#10=VERTEX_POINT('OSCAD_TOPO/3|vertex|v:a199281d7b139008a0dadb167a7db78e|842e17df50d403f44910ed4689e9b46303e72c45c6373633531219bed8a89c86',#9);
#11=CARTESIAN_POINT('',(2.00000000000000000E0,-2.00000000000000000E0,5.00000000000000000E0));
#12=VERTEX_POINT('OSCAD_TOPO/3|vertex|v:c7a5f9835eb5e90635c893d8c79a0884|72d83a7465dca5efe4029bfcecc4d532116742fcb87e61f91ec26a9d534dbbf0',#11);
#13=CARTESIAN_POINT('',(2.00000000000000000E0,2.00000000000000000E0,5.00000000000000000E0));
#14=VERTEX_POINT('OSCAD_TOPO/3|vertex|v:884ae5bb3514786a6d15fe83bc5e4ef0|03ee86c35b60c926dd084c48e0c63b941db446edb3e7b0e0cd4e1fa4cd986025',#13);
#15=CARTESIAN_POINT('',(-2.00000000000000000E0,2.00000000000000000E0,5.00000000000000000E0));
#16=VERTEX_POINT('OSCAD_TOPO/3|vertex|v:3088947c608c34a8c1826429e8543873|e2fcfd6cb7062e4e0383d11407dea6096a0a65cea7b6149ee1fd4386a6276ebd',#15);
#17=CARTESIAN_POINT('',(-1.00000000000000000E0,-1.00000000000000000E0,0.00000000000000000E0));
#18=CARTESIAN_POINT('',(-1.25000000000000000E0,-1.25000000000000000E0,1.25000000000000000E0));
#19=CARTESIAN_POINT('',(-1.50000000000000000E0,-1.50000000000000000E0,2.50000000000000000E0));
#20=CARTESIAN_POINT('',(-1.75000000000000000E0,-1.75000000000000000E0,3.75000000000000000E0));
#21=CARTESIAN_POINT('',(-2.00000000000000000E0,-2.00000000000000000E0,5.00000000000000000E0));
#22=CARTESIAN_POINT('',(1.00000000000000000E0,-1.00000000000000000E0,0.00000000000000000E0));
#23=CARTESIAN_POINT('',(1.25000000000000000E0,-1.25000000000000000E0,1.25000000000000000E0));
#24=CARTESIAN_POINT('',(1.50000000000000000E0,-1.50000000000000000E0,2.50000000000000000E0));
#25=CARTESIAN_POINT('',(1.75000000000000000E0,-1.75000000000000000E0,3.75000000000000000E0));
#26=CARTESIAN_POINT('',(2.00000000000000000E0,-2.00000000000000000E0,5.00000000000000000E0));
#27=B_SPLINE_SURFACE_WITH_KNOTS('',1,1,((#17,#18,#19,#20,#21),(#22,#23,#24,#25,#26)),.UNSPECIFIED.,.F.,.F.,.F.,(2,2),(2,1,1,1,2),(0.00000000000000000E0,1.00000000000000000E0),(0.00000000000000000E0,2.50000000000000000E-1,5.00000000000000000E-1,7.50000000000000000E-1,1.00000000000000000E0),.UNSPECIFIED.);
#28=CARTESIAN_POINT('',(1.00000000000000000E0,-1.00000000000000000E0,0.00000000000000000E0));
#29=CARTESIAN_POINT('',(1.25000000000000000E0,-1.25000000000000000E0,1.25000000000000000E0));
#30=CARTESIAN_POINT('',(1.50000000000000000E0,-1.50000000000000000E0,2.50000000000000000E0));
#31=CARTESIAN_POINT('',(1.75000000000000000E0,-1.75000000000000000E0,3.75000000000000000E0));
#32=CARTESIAN_POINT('',(2.00000000000000000E0,-2.00000000000000000E0,5.00000000000000000E0));
#33=CARTESIAN_POINT('',(1.00000000000000000E0,1.00000000000000000E0,0.00000000000000000E0));
#34=CARTESIAN_POINT('',(1.25000000000000000E0,1.25000000000000000E0,1.25000000000000000E0));
#35=CARTESIAN_POINT('',(1.50000000000000000E0,1.50000000000000000E0,2.50000000000000000E0));
#36=CARTESIAN_POINT('',(1.75000000000000000E0,1.75000000000000000E0,3.75000000000000000E0));
#37=CARTESIAN_POINT('',(2.00000000000000000E0,2.00000000000000000E0,5.00000000000000000E0));
#38=B_SPLINE_SURFACE_WITH_KNOTS('',1,1,((#28,#29,#30,#31,#32),(#33,#34,#35,#36,#37)),.UNSPECIFIED.,.F.,.F.,.F.,(2,2),(2,1,1,1,2),(0.00000000000000000E0,1.00000000000000000E0),(0.00000000000000000E0,2.50000000000000000E-1,5.00000000000000000E-1,7.50000000000000000E-1,1.00000000000000000E0),.UNSPECIFIED.);
#39=CARTESIAN_POINT('',(1.00000000000000000E0,1.00000000000000000E0,0.00000000000000000E0));
#40=CARTESIAN_POINT('',(1.25000000000000000E0,1.25000000000000000E0,1.25000000000000000E0));
#41=CARTESIAN_POINT('',(1.50000000000000000E0,1.50000000000000000E0,2.50000000000000000E0));
#42=CARTESIAN_POINT('',(1.75000000000000000E0,1.75000000000000000E0,3.75000000000000000E0));
#43=CARTESIAN_POINT('',(2.00000000000000000E0,2.00000000000000000E0,5.00000000000000000E0));
#44=CARTESIAN_POINT('',(-1.00000000000000000E0,1.00000000000000000E0,0.00000000000000000E0));
#45=CARTESIAN_POINT('',(-1.25000000000000000E0,1.25000000000000000E0,1.25000000000000000E0));
#46=CARTESIAN_POINT('',(-1.50000000000000000E0,1.50000000000000000E0,2.50000000000000000E0));
#47=CARTESIAN_POINT('',(-1.75000000000000000E0,1.75000000000000000E0,3.75000000000000000E0));
#48=CARTESIAN_POINT('',(-2.00000000000000000E0,2.00000000000000000E0,5.00000000000000000E0));
#49=B_SPLINE_SURFACE_WITH_KNOTS('',1,1,((#39,#40,#41,#42,#43),(#44,#45,#46,#47,#48)),.UNSPECIFIED.,.F.,.F.,.F.,(2,2),(2,1,1,1,2),(0.00000000000000000E0,1.00000000000000000E0),(0.00000000000000000E0,2.50000000000000000E-1,5.00000000000000000E-1,7.50000000000000000E-1,1.00000000000000000E0),.UNSPECIFIED.);
#50=CARTESIAN_POINT('',(-1.00000000000000000E0,1.00000000000000000E0,0.00000000000000000E0));
#51=CARTESIAN_POINT('',(-1.25000000000000000E0,1.25000000000000000E0,1.25000000000000000E0));
#52=CARTESIAN_POINT('',(-1.50000000000000000E0,1.50000000000000000E0,2.50000000000000000E0));
#53=CARTESIAN_POINT('',(-1.75000000000000000E0,1.75000000000000000E0,3.75000000000000000E0));
#54=CARTESIAN_POINT('',(-2.00000000000000000E0,2.00000000000000000E0,5.00000000000000000E0));
#55=CARTESIAN_POINT('',(-1.00000000000000000E0,-1.00000000000000000E0,0.00000000000000000E0));
#56=CARTESIAN_POINT('',(-1.25000000000000000E0,-1.25000000000000000E0,1.25000000000000000E0));
#57=CARTESIAN_POINT('',(-1.50000000000000000E0,-1.50000000000000000E0,2.50000000000000000E0));
#58=CARTESIAN_POINT('',(-1.75000000000000000E0,-1.75000000000000000E0,3.75000000000000000E0));
#59=CARTESIAN_POINT('',(-2.00000000000000000E0,-2.00000000000000000E0,5.00000000000000000E0));
#60=B_SPLINE_SURFACE_WITH_KNOTS('',1,1,((#50,#51,#52,#53,#54),(#55,#56,#57,#58,#59)),.UNSPECIFIED.,.F.,.F.,.F.,(2,2),(2,1,1,1,2),(0.00000000000000000E0,1.00000000000000000E0),(0.00000000000000000E0,2.50000000000000000E-1,5.00000000000000000E-1,7.50000000000000000E-1,1.00000000000000000E0),.UNSPECIFIED.);
#61=CARTESIAN_POINT('',(1.00000000000000000E0,-1.00000000000000000E0,0.00000000000000000E0));
#62=CARTESIAN_POINT('',(1.00000000000000000E0,1.00000000000000000E0,0.00000000000000000E0));
#63=CARTESIAN_POINT('',(-1.00000000000000000E0,-1.00000000000000000E0,0.00000000000000000E0));
#64=CARTESIAN_POINT('',(-1.00000000000000000E0,1.00000000000000000E0,0.00000000000000000E0));
#65=B_SPLINE_SURFACE_WITH_KNOTS('',1,1,((#61,#62),(#63,#64)),.UNSPECIFIED.,.F.,.F.,.F.,(2,2),(2,2),(-1.00000000000000000E0,1.00000000000000000E0),(-1.00000000000000000E0,1.00000000000000000E0),.UNSPECIFIED.);
#66=CARTESIAN_POINT('',(-2.00000000000000000E0,-2.00000000000000000E0,5.00000000000000000E0));
#67=CARTESIAN_POINT('',(-2.00000000000000000E0,2.00000000000000000E0,5.00000000000000000E0));
#68=CARTESIAN_POINT('',(2.00000000000000000E0,-2.00000000000000000E0,5.00000000000000000E0));
#69=CARTESIAN_POINT('',(2.00000000000000000E0,2.00000000000000000E0,5.00000000000000000E0));
#70=B_SPLINE_SURFACE_WITH_KNOTS('',1,1,((#66,#67),(#68,#69)),.UNSPECIFIED.,.F.,.F.,.F.,(2,2),(2,2),(-2.00000000000000000E0,2.00000000000000000E0),(-2.00000000000000000E0,2.00000000000000000E0),.UNSPECIFIED.);
#71=CARTESIAN_POINT('',(-1.00000000000000000E0,-1.00000000000000000E0,0.00000000000000000E0));
#72=CARTESIAN_POINT('',(1.00000000000000000E0,-1.00000000000000000E0,0.00000000000000000E0));
#73=B_SPLINE_CURVE_WITH_KNOTS('',1,(#71,#72),.UNSPECIFIED.,.F.,.F.,(2,2),(0.00000000000000000E0,1.00000000000000000E0),.UNSPECIFIED.);
#74=CARTESIAN_POINT('',(1.00000000000000000E0,-1.00000000000000000E0,0.00000000000000000E0));
#75=CARTESIAN_POINT('',(1.25000000000000000E0,-1.25000000000000000E0,1.25000000000000000E0));
#76=CARTESIAN_POINT('',(1.50000000000000000E0,-1.50000000000000000E0,2.50000000000000000E0));
#77=CARTESIAN_POINT('',(1.75000000000000000E0,-1.75000000000000000E0,3.75000000000000000E0));
#78=CARTESIAN_POINT('',(2.00000000000000000E0,-2.00000000000000000E0,5.00000000000000000E0));
#79=B_SPLINE_CURVE_WITH_KNOTS('',1,(#74,#75,#76,#77,#78),.UNSPECIFIED.,.F.,.F.,(2,1,1,1,2),(0.00000000000000000E0,2.50000000000000000E-1,5.00000000000000000E-1,7.50000000000000000E-1,1.00000000000000000E0),.UNSPECIFIED.);
#80=CARTESIAN_POINT('',(-2.00000000000000000E0,-2.00000000000000000E0,5.00000000000000000E0));
#81=CARTESIAN_POINT('',(2.00000000000000000E0,-2.00000000000000000E0,5.00000000000000000E0));
#82=B_SPLINE_CURVE_WITH_KNOTS('',1,(#80,#81),.UNSPECIFIED.,.F.,.F.,(2,2),(0.00000000000000000E0,1.00000000000000000E0),.UNSPECIFIED.);
#83=CARTESIAN_POINT('',(-1.00000000000000000E0,-1.00000000000000000E0,0.00000000000000000E0));
#84=CARTESIAN_POINT('',(-1.25000000000000000E0,-1.25000000000000000E0,1.25000000000000000E0));
#85=CARTESIAN_POINT('',(-1.50000000000000000E0,-1.50000000000000000E0,2.50000000000000000E0));
#86=CARTESIAN_POINT('',(-1.75000000000000000E0,-1.75000000000000000E0,3.75000000000000000E0));
#87=CARTESIAN_POINT('',(-2.00000000000000000E0,-2.00000000000000000E0,5.00000000000000000E0));
#88=B_SPLINE_CURVE_WITH_KNOTS('',1,(#83,#84,#85,#86,#87),.UNSPECIFIED.,.F.,.F.,(2,1,1,1,2),(0.00000000000000000E0,2.50000000000000000E-1,5.00000000000000000E-1,7.50000000000000000E-1,1.00000000000000000E0),.UNSPECIFIED.);
#89=CARTESIAN_POINT('',(1.00000000000000000E0,-1.00000000000000000E0,0.00000000000000000E0));
#90=CARTESIAN_POINT('',(1.00000000000000000E0,1.00000000000000000E0,0.00000000000000000E0));
#91=B_SPLINE_CURVE_WITH_KNOTS('',1,(#89,#90),.UNSPECIFIED.,.F.,.F.,(2,2),(0.00000000000000000E0,1.00000000000000000E0),.UNSPECIFIED.);
#92=CARTESIAN_POINT('',(1.00000000000000000E0,1.00000000000000000E0,0.00000000000000000E0));
#93=CARTESIAN_POINT('',(1.25000000000000000E0,1.25000000000000000E0,1.25000000000000000E0));
#94=CARTESIAN_POINT('',(1.50000000000000000E0,1.50000000000000000E0,2.50000000000000000E0));
#95=CARTESIAN_POINT('',(1.75000000000000000E0,1.75000000000000000E0,3.75000000000000000E0));
#96=CARTESIAN_POINT('',(2.00000000000000000E0,2.00000000000000000E0,5.00000000000000000E0));
#97=B_SPLINE_CURVE_WITH_KNOTS('',1,(#92,#93,#94,#95,#96),.UNSPECIFIED.,.F.,.F.,(2,1,1,1,2),(0.00000000000000000E0,2.50000000000000000E-1,5.00000000000000000E-1,7.50000000000000000E-1,1.00000000000000000E0),.UNSPECIFIED.);
#98=CARTESIAN_POINT('',(2.00000000000000000E0,-2.00000000000000000E0,5.00000000000000000E0));
#99=CARTESIAN_POINT('',(2.00000000000000000E0,2.00000000000000000E0,5.00000000000000000E0));
#100=B_SPLINE_CURVE_WITH_KNOTS('',1,(#98,#99),.UNSPECIFIED.,.F.,.F.,(2,2),(0.00000000000000000E0,1.00000000000000000E0),.UNSPECIFIED.);
#101=CARTESIAN_POINT('',(1.00000000000000000E0,1.00000000000000000E0,0.00000000000000000E0));
#102=CARTESIAN_POINT('',(-1.00000000000000000E0,1.00000000000000000E0,0.00000000000000000E0));
#103=B_SPLINE_CURVE_WITH_KNOTS('',1,(#101,#102),.UNSPECIFIED.,.F.,.F.,(2,2),(0.00000000000000000E0,1.00000000000000000E0),.UNSPECIFIED.);
#104=CARTESIAN_POINT('',(-1.00000000000000000E0,1.00000000000000000E0,0.00000000000000000E0));
#105=CARTESIAN_POINT('',(-1.25000000000000000E0,1.25000000000000000E0,1.25000000000000000E0));
#106=CARTESIAN_POINT('',(-1.50000000000000000E0,1.50000000000000000E0,2.50000000000000000E0));
#107=CARTESIAN_POINT('',(-1.75000000000000000E0,1.75000000000000000E0,3.75000000000000000E0));
#108=CARTESIAN_POINT('',(-2.00000000000000000E0,2.00000000000000000E0,5.00000000000000000E0));
#109=B_SPLINE_CURVE_WITH_KNOTS('',1,(#104,#105,#106,#107,#108),.UNSPECIFIED.,.F.,.F.,(2,1,1,1,2),(0.00000000000000000E0,2.50000000000000000E-1,5.00000000000000000E-1,7.50000000000000000E-1,1.00000000000000000E0),.UNSPECIFIED.);
#110=CARTESIAN_POINT('',(2.00000000000000000E0,2.00000000000000000E0,5.00000000000000000E0));
#111=CARTESIAN_POINT('',(-2.00000000000000000E0,2.00000000000000000E0,5.00000000000000000E0));
#112=B_SPLINE_CURVE_WITH_KNOTS('',1,(#110,#111),.UNSPECIFIED.,.F.,.F.,(2,2),(0.00000000000000000E0,1.00000000000000000E0),.UNSPECIFIED.);
#113=CARTESIAN_POINT('',(-1.00000000000000000E0,-1.00000000000000000E0,0.00000000000000000E0));
#114=CARTESIAN_POINT('',(-1.00000000000000000E0,1.00000000000000000E0,0.00000000000000000E0));
#115=B_SPLINE_CURVE_WITH_KNOTS('',1,(#113,#114),.UNSPECIFIED.,.F.,.F.,(2,2),(0.00000000000000000E0,1.00000000000000000E0),.UNSPECIFIED.);
#116=CARTESIAN_POINT('',(-2.00000000000000000E0,-2.00000000000000000E0,5.00000000000000000E0));
#117=CARTESIAN_POINT('',(-2.00000000000000000E0,2.00000000000000000E0,5.00000000000000000E0));
#118=B_SPLINE_CURVE_WITH_KNOTS('',1,(#116,#117),.UNSPECIFIED.,.F.,.F.,(2,2),(0.00000000000000000E0,1.00000000000000000E0),.UNSPECIFIED.);
#119=(GEOMETRIC_REPRESENTATION_CONTEXT(2)REPRESENTATION_CONTEXT('','2D'));
#120=CARTESIAN_POINT('',(0.00000000000000000E0,0.00000000000000000E0));
#121=CARTESIAN_POINT('',(1.00000000000000000E0,0.00000000000000000E0));
#122=B_SPLINE_CURVE_WITH_KNOTS('',1,(#120,#121),.UNSPECIFIED.,.F.,.F.,(2,2),(0.00000000000000000E0,1.00000000000000000E0),.UNSPECIFIED.);
#123=DEFINITIONAL_REPRESENTATION('',(#122),#119);
#124=PCURVE('',#27,#123);
#125=CARTESIAN_POINT('',(1.00000000000000000E0,0.00000000000000000E0));
#126=CARTESIAN_POINT('',(1.00000000000000000E0,1.00000000000000000E0));
#127=B_SPLINE_CURVE_WITH_KNOTS('',1,(#125,#126),.UNSPECIFIED.,.F.,.F.,(2,2),(0.00000000000000000E0,1.00000000000000000E0),.UNSPECIFIED.);
#128=DEFINITIONAL_REPRESENTATION('',(#127),#119);
#129=PCURVE('',#27,#128);
#130=CARTESIAN_POINT('',(1.00000000000000000E0,1.00000000000000000E0));
#131=CARTESIAN_POINT('',(0.00000000000000000E0,1.00000000000000000E0));
#132=B_SPLINE_CURVE_WITH_KNOTS('',1,(#130,#131),.UNSPECIFIED.,.F.,.F.,(2,2),(0.00000000000000000E0,1.00000000000000000E0),.UNSPECIFIED.);
#133=DEFINITIONAL_REPRESENTATION('',(#132),#119);
#134=PCURVE('',#27,#133);
#135=CARTESIAN_POINT('',(0.00000000000000000E0,1.00000000000000000E0));
#136=CARTESIAN_POINT('',(0.00000000000000000E0,0.00000000000000000E0));
#137=B_SPLINE_CURVE_WITH_KNOTS('',1,(#135,#136),.UNSPECIFIED.,.F.,.F.,(2,2),(0.00000000000000000E0,1.00000000000000000E0),.UNSPECIFIED.);
#138=DEFINITIONAL_REPRESENTATION('',(#137),#119);
#139=PCURVE('',#27,#138);
#140=CARTESIAN_POINT('',(0.00000000000000000E0,0.00000000000000000E0));
#141=CARTESIAN_POINT('',(1.00000000000000000E0,0.00000000000000000E0));
#142=B_SPLINE_CURVE_WITH_KNOTS('',1,(#140,#141),.UNSPECIFIED.,.F.,.F.,(2,2),(0.00000000000000000E0,1.00000000000000000E0),.UNSPECIFIED.);
#143=DEFINITIONAL_REPRESENTATION('',(#142),#119);
#144=PCURVE('',#38,#143);
#145=CARTESIAN_POINT('',(1.00000000000000000E0,0.00000000000000000E0));
#146=CARTESIAN_POINT('',(1.00000000000000000E0,1.00000000000000000E0));
#147=B_SPLINE_CURVE_WITH_KNOTS('',1,(#145,#146),.UNSPECIFIED.,.F.,.F.,(2,2),(0.00000000000000000E0,1.00000000000000000E0),.UNSPECIFIED.);
#148=DEFINITIONAL_REPRESENTATION('',(#147),#119);
#149=PCURVE('',#38,#148);
#150=CARTESIAN_POINT('',(1.00000000000000000E0,1.00000000000000000E0));
#151=CARTESIAN_POINT('',(0.00000000000000000E0,1.00000000000000000E0));
#152=B_SPLINE_CURVE_WITH_KNOTS('',1,(#150,#151),.UNSPECIFIED.,.F.,.F.,(2,2),(0.00000000000000000E0,1.00000000000000000E0),.UNSPECIFIED.);
#153=DEFINITIONAL_REPRESENTATION('',(#152),#119);
#154=PCURVE('',#38,#153);
#155=CARTESIAN_POINT('',(0.00000000000000000E0,1.00000000000000000E0));
#156=CARTESIAN_POINT('',(0.00000000000000000E0,0.00000000000000000E0));
#157=B_SPLINE_CURVE_WITH_KNOTS('',1,(#155,#156),.UNSPECIFIED.,.F.,.F.,(2,2),(0.00000000000000000E0,1.00000000000000000E0),.UNSPECIFIED.);
#158=DEFINITIONAL_REPRESENTATION('',(#157),#119);
#159=PCURVE('',#38,#158);
#160=CARTESIAN_POINT('',(0.00000000000000000E0,0.00000000000000000E0));
#161=CARTESIAN_POINT('',(1.00000000000000000E0,0.00000000000000000E0));
#162=B_SPLINE_CURVE_WITH_KNOTS('',1,(#160,#161),.UNSPECIFIED.,.F.,.F.,(2,2),(0.00000000000000000E0,1.00000000000000000E0),.UNSPECIFIED.);
#163=DEFINITIONAL_REPRESENTATION('',(#162),#119);
#164=PCURVE('',#49,#163);
#165=CARTESIAN_POINT('',(1.00000000000000000E0,0.00000000000000000E0));
#166=CARTESIAN_POINT('',(1.00000000000000000E0,1.00000000000000000E0));
#167=B_SPLINE_CURVE_WITH_KNOTS('',1,(#165,#166),.UNSPECIFIED.,.F.,.F.,(2,2),(0.00000000000000000E0,1.00000000000000000E0),.UNSPECIFIED.);
#168=DEFINITIONAL_REPRESENTATION('',(#167),#119);
#169=PCURVE('',#49,#168);
#170=CARTESIAN_POINT('',(1.00000000000000000E0,1.00000000000000000E0));
#171=CARTESIAN_POINT('',(0.00000000000000000E0,1.00000000000000000E0));
#172=B_SPLINE_CURVE_WITH_KNOTS('',1,(#170,#171),.UNSPECIFIED.,.F.,.F.,(2,2),(0.00000000000000000E0,1.00000000000000000E0),.UNSPECIFIED.);
#173=DEFINITIONAL_REPRESENTATION('',(#172),#119);
#174=PCURVE('',#49,#173);
#175=CARTESIAN_POINT('',(0.00000000000000000E0,1.00000000000000000E0));
#176=CARTESIAN_POINT('',(0.00000000000000000E0,0.00000000000000000E0));
#177=B_SPLINE_CURVE_WITH_KNOTS('',1,(#175,#176),.UNSPECIFIED.,.F.,.F.,(2,2),(0.00000000000000000E0,1.00000000000000000E0),.UNSPECIFIED.);
#178=DEFINITIONAL_REPRESENTATION('',(#177),#119);
#179=PCURVE('',#49,#178);
#180=CARTESIAN_POINT('',(0.00000000000000000E0,0.00000000000000000E0));
#181=CARTESIAN_POINT('',(1.00000000000000000E0,0.00000000000000000E0));
#182=B_SPLINE_CURVE_WITH_KNOTS('',1,(#180,#181),.UNSPECIFIED.,.F.,.F.,(2,2),(0.00000000000000000E0,1.00000000000000000E0),.UNSPECIFIED.);
#183=DEFINITIONAL_REPRESENTATION('',(#182),#119);
#184=PCURVE('',#60,#183);
#185=CARTESIAN_POINT('',(1.00000000000000000E0,0.00000000000000000E0));
#186=CARTESIAN_POINT('',(1.00000000000000000E0,1.00000000000000000E0));
#187=B_SPLINE_CURVE_WITH_KNOTS('',1,(#185,#186),.UNSPECIFIED.,.F.,.F.,(2,2),(0.00000000000000000E0,1.00000000000000000E0),.UNSPECIFIED.);
#188=DEFINITIONAL_REPRESENTATION('',(#187),#119);
#189=PCURVE('',#60,#188);
#190=CARTESIAN_POINT('',(1.00000000000000000E0,1.00000000000000000E0));
#191=CARTESIAN_POINT('',(0.00000000000000000E0,1.00000000000000000E0));
#192=B_SPLINE_CURVE_WITH_KNOTS('',1,(#190,#191),.UNSPECIFIED.,.F.,.F.,(2,2),(0.00000000000000000E0,1.00000000000000000E0),.UNSPECIFIED.);
#193=DEFINITIONAL_REPRESENTATION('',(#192),#119);
#194=PCURVE('',#60,#193);
#195=CARTESIAN_POINT('',(0.00000000000000000E0,1.00000000000000000E0));
#196=CARTESIAN_POINT('',(0.00000000000000000E0,0.00000000000000000E0));
#197=B_SPLINE_CURVE_WITH_KNOTS('',1,(#195,#196),.UNSPECIFIED.,.F.,.F.,(2,2),(0.00000000000000000E0,1.00000000000000000E0),.UNSPECIFIED.);
#198=DEFINITIONAL_REPRESENTATION('',(#197),#119);
#199=PCURVE('',#60,#198);
#200=CARTESIAN_POINT('',(1.00000000000000000E0,-1.00000000000000000E0));
#201=CARTESIAN_POINT('',(1.00000000000000000E0,1.00000000000000000E0));
#202=B_SPLINE_CURVE_WITH_KNOTS('',1,(#200,#201),.UNSPECIFIED.,.F.,.F.,(2,2),(0.00000000000000000E0,1.00000000000000000E0),.UNSPECIFIED.);
#203=DEFINITIONAL_REPRESENTATION('',(#202),#119);
#204=PCURVE('',#65,#203);
#205=CARTESIAN_POINT('',(1.00000000000000000E0,1.00000000000000000E0));
#206=CARTESIAN_POINT('',(-1.00000000000000000E0,1.00000000000000000E0));
#207=B_SPLINE_CURVE_WITH_KNOTS('',1,(#205,#206),.UNSPECIFIED.,.F.,.F.,(2,2),(0.00000000000000000E0,1.00000000000000000E0),.UNSPECIFIED.);
#208=DEFINITIONAL_REPRESENTATION('',(#207),#119);
#209=PCURVE('',#65,#208);
#210=CARTESIAN_POINT('',(-1.00000000000000000E0,1.00000000000000000E0));
#211=CARTESIAN_POINT('',(-1.00000000000000000E0,-1.00000000000000000E0));
#212=B_SPLINE_CURVE_WITH_KNOTS('',1,(#210,#211),.UNSPECIFIED.,.F.,.F.,(2,2),(0.00000000000000000E0,1.00000000000000000E0),.UNSPECIFIED.);
#213=DEFINITIONAL_REPRESENTATION('',(#212),#119);
#214=PCURVE('',#65,#213);
#215=CARTESIAN_POINT('',(-1.00000000000000000E0,-1.00000000000000000E0));
#216=CARTESIAN_POINT('',(1.00000000000000000E0,-1.00000000000000000E0));
#217=B_SPLINE_CURVE_WITH_KNOTS('',1,(#215,#216),.UNSPECIFIED.,.F.,.F.,(2,2),(0.00000000000000000E0,1.00000000000000000E0),.UNSPECIFIED.);
#218=DEFINITIONAL_REPRESENTATION('',(#217),#119);
#219=PCURVE('',#65,#218);
#220=CARTESIAN_POINT('',(-2.00000000000000000E0,-2.00000000000000000E0));
#221=CARTESIAN_POINT('',(2.00000000000000000E0,-2.00000000000000000E0));
#222=B_SPLINE_CURVE_WITH_KNOTS('',1,(#220,#221),.UNSPECIFIED.,.F.,.F.,(2,2),(0.00000000000000000E0,1.00000000000000000E0),.UNSPECIFIED.);
#223=DEFINITIONAL_REPRESENTATION('',(#222),#119);
#224=PCURVE('',#70,#223);
#225=CARTESIAN_POINT('',(2.00000000000000000E0,-2.00000000000000000E0));
#226=CARTESIAN_POINT('',(2.00000000000000000E0,2.00000000000000000E0));
#227=B_SPLINE_CURVE_WITH_KNOTS('',1,(#225,#226),.UNSPECIFIED.,.F.,.F.,(2,2),(0.00000000000000000E0,1.00000000000000000E0),.UNSPECIFIED.);
#228=DEFINITIONAL_REPRESENTATION('',(#227),#119);
#229=PCURVE('',#70,#228);
#230=CARTESIAN_POINT('',(2.00000000000000000E0,2.00000000000000000E0));
#231=CARTESIAN_POINT('',(-2.00000000000000000E0,2.00000000000000000E0));
#232=B_SPLINE_CURVE_WITH_KNOTS('',1,(#230,#231),.UNSPECIFIED.,.F.,.F.,(2,2),(0.00000000000000000E0,1.00000000000000000E0),.UNSPECIFIED.);
#233=DEFINITIONAL_REPRESENTATION('',(#232),#119);
#234=PCURVE('',#70,#233);
#235=CARTESIAN_POINT('',(-2.00000000000000000E0,2.00000000000000000E0));
#236=CARTESIAN_POINT('',(-2.00000000000000000E0,-2.00000000000000000E0));
#237=B_SPLINE_CURVE_WITH_KNOTS('',1,(#235,#236),.UNSPECIFIED.,.F.,.F.,(2,2),(0.00000000000000000E0,1.00000000000000000E0),.UNSPECIFIED.);
#238=DEFINITIONAL_REPRESENTATION('',(#237),#119);
#239=PCURVE('',#70,#238);
#240=SURFACE_CURVE('',#73,(#124,#219),.PCURVE_S1.);
#241=EDGE_CURVE('OSCAD_TOPO/3|edge|e:52df2022a7de5f153820db97c0574efc|e3c0dbca3b4b46015f7d5e6e526341cf18781e5cc47d2fb12e6ab04abcedea8a',#2,#4,#240,.T.);
#242=SURFACE_CURVE('',#79,(#129,#159),.PCURVE_S1.);
#243=EDGE_CURVE('OSCAD_TOPO/3|edge|e:db6343e11022592cd23754df3d88da2d|f32a5ce7d43bf1e0bffd00b40bff3f7d744d9c1dd3bbb5d93d86be04b90edb23',#4,#12,#242,.T.);
#244=SURFACE_CURVE('',#82,(#134,#224),.PCURVE_S1.);
#245=EDGE_CURVE('OSCAD_TOPO/3|edge|e:7b271e842e88f868d4576ee8691b8b1f|9dfa93b0e8c0b2c34f9b3299e9c64f2e079edb416c9e3fd583ea5392aae1e008',#10,#12,#244,.T.);
#246=SURFACE_CURVE('',#88,(#139,#189),.PCURVE_S1.);
#247=EDGE_CURVE('OSCAD_TOPO/3|edge|e:5185866653ceac7da14fdd86cc5a75ae|5a23ad3411e3ce5050520992d175f48d67a4c88560e79b8ff5951c8bd84b9c18',#2,#10,#246,.T.);
#248=SURFACE_CURVE('',#91,(#144,#214),.PCURVE_S1.);
#249=EDGE_CURVE('OSCAD_TOPO/3|edge|e:f98d7129fce97a432dfec8dc8900f55b|c7d290b7d3bfe5a9d73be5c3d7bfd7b00fc0e667f37c96df97e152671a67e46c',#4,#6,#248,.T.);
#250=SURFACE_CURVE('',#97,(#149,#179),.PCURVE_S1.);
#251=EDGE_CURVE('OSCAD_TOPO/3|edge|e:75fd967071f88e8e9fa86e51b12a1763|7be5ba4a987635db89734aec6308fb5f93456a660faf63696ab96350b3a1c8e1',#6,#14,#250,.T.);
#252=SURFACE_CURVE('',#100,(#154,#229),.PCURVE_S1.);
#253=EDGE_CURVE('OSCAD_TOPO/3|edge|e:83bdd3de4c3aa3a38b054e7951447b38|45d4c884980ebb27df966f2d44d930efa7e0e96f37559fa2f80309039ba57f83',#12,#14,#252,.T.);
#254=SURFACE_CURVE('',#103,(#164,#209),.PCURVE_S1.);
#255=EDGE_CURVE('OSCAD_TOPO/3|edge|e:c475e57640409562706dc3ec82640cdd|193472ca9cb3ac06f95e38e75f5dd8131e287fba43e311f061bc103f7d049165',#6,#8,#254,.T.);
#256=SURFACE_CURVE('',#109,(#169,#199),.PCURVE_S1.);
#257=EDGE_CURVE('OSCAD_TOPO/3|edge|e:6cf077dd663ff3837b70556bc63c1b5a|5d417792acf9f86d8f7222cccb099fdbeba8e872bbcee6df099ca4a64c46b238',#8,#16,#256,.T.);
#258=SURFACE_CURVE('',#112,(#174,#234),.PCURVE_S1.);
#259=EDGE_CURVE('OSCAD_TOPO/3|edge|e:2545cc8c950f2ccbb449dc41b314be3e|ca052b45241ea107775aadefb0fd9b713e4c674b2172447219cd701e3afd25ef',#14,#16,#258,.T.);
#260=SURFACE_CURVE('',#115,(#184,#204),.PCURVE_S1.);
#261=EDGE_CURVE('OSCAD_TOPO/3|edge|e:d3995d4ef82d66149e3094033b8e6ec7|c1052dde70b12e587ebf96db5c7cf3e95f75e779276e38dd9201b0f79ab976cd',#2,#8,#260,.T.);
#262=SURFACE_CURVE('',#118,(#194,#239),.PCURVE_S1.);
#263=EDGE_CURVE('OSCAD_TOPO/3|edge|e:b938d303ecbdf51ce81702dcec6bb6cd|58d46d773cea633b85f707f4d287ed45c1732d14856d6996b6a7179acd37a0d9',#10,#16,#262,.T.);
#264=ORIENTED_EDGE('',*,*,#241,.T.);
#265=ORIENTED_EDGE('',*,*,#243,.T.);
#266=ORIENTED_EDGE('',*,*,#245,.F.);
#267=ORIENTED_EDGE('',*,*,#247,.F.);
#268=EDGE_LOOP('OSCAD_TOPO/3|loop|l:aa2c3edc08ec0c2a18d2318c6849434f|c547f932e21c653e4a971ec14ba791912d37ce403e4519e6fb844fc87cd24b1d',(#264,#265,#266,#267));
#269=ORIENTED_EDGE('',*,*,#249,.T.);
#270=ORIENTED_EDGE('',*,*,#251,.T.);
#271=ORIENTED_EDGE('',*,*,#253,.F.);
#272=ORIENTED_EDGE('',*,*,#243,.F.);
#273=EDGE_LOOP('OSCAD_TOPO/3|loop|l:5051f902fb3c6b524752db8cb41a26dc|6aaf75d78b5bf7951e638a80f7085b380c2d2722873df1f098afe62775b67099',(#269,#270,#271,#272));
#274=ORIENTED_EDGE('',*,*,#255,.T.);
#275=ORIENTED_EDGE('',*,*,#257,.T.);
#276=ORIENTED_EDGE('',*,*,#259,.F.);
#277=ORIENTED_EDGE('',*,*,#251,.F.);
#278=EDGE_LOOP('OSCAD_TOPO/3|loop|l:b21f15ab049bc874c3596ab18034613f|013f2d31d45eaad0489f41b70a267d68937c9bad4ebfa556e632312e26208adf',(#274,#275,#276,#277));
#279=ORIENTED_EDGE('',*,*,#261,.F.);
#280=ORIENTED_EDGE('',*,*,#247,.T.);
#281=ORIENTED_EDGE('',*,*,#263,.T.);
#282=ORIENTED_EDGE('',*,*,#257,.F.);
#283=EDGE_LOOP('OSCAD_TOPO/3|loop|l:6aa9dd4533b5c9aa9a68113240acf1bb|2f2295052a3a9f82045cf3784504a009a1516079fa7c1afd8628708069453adb',(#279,#280,#281,#282));
#284=ORIENTED_EDGE('',*,*,#261,.T.);
#285=ORIENTED_EDGE('',*,*,#255,.F.);
#286=ORIENTED_EDGE('',*,*,#249,.F.);
#287=ORIENTED_EDGE('',*,*,#241,.F.);
#288=EDGE_LOOP('OSCAD_TOPO/3|loop|l:96783a6b113ad36d932a680fb4c683f7|cb1c56d33e00199ea5d608e87f29a8ad388b541f867089e7548f4e4c0eb6ece3',(#284,#285,#286,#287));
#289=ORIENTED_EDGE('',*,*,#245,.T.);
#290=ORIENTED_EDGE('',*,*,#253,.T.);
#291=ORIENTED_EDGE('',*,*,#259,.T.);
#292=ORIENTED_EDGE('',*,*,#263,.F.);
#293=EDGE_LOOP('OSCAD_TOPO/3|loop|l:c313b509eb89e69774afd1b26f06c490|55bf372b1cd6de9e5b0f8a2b3fc7b0481f6bee91371277c102269507cf8a0f80',(#289,#290,#291,#292));
#294=FACE_OUTER_BOUND('',#268,.T.);
#295=ADVANCED_FACE('OSCAD_TOPO/3|face|f:ac46cafc9852f60dabbff48c9a2af360|8bb7726cfac7f6b511359dcb070a8279036729c5be5c6b1ad30f3fdab49cd067',(#294),#27,.T.);
#296=FACE_OUTER_BOUND('',#273,.T.);
#297=ADVANCED_FACE('OSCAD_TOPO/3|face|f:d55e0304526f25178a81d52c6a46a130|7751ea7d06692c111437cd7372cdb99e120639b94e64f25a97df9474f2ad805f',(#296),#38,.T.);
#298=FACE_OUTER_BOUND('',#278,.T.);
#299=ADVANCED_FACE('OSCAD_TOPO/3|face|f:221e472e8b5ef1377b09ead8ac521726|2cae664c679a3b65e2a1ce1c1f0e3ecb0dba901b9bdef3b7fd3fcc7c9430abf5',(#298),#49,.T.);
#300=FACE_OUTER_BOUND('',#283,.T.);
#301=ADVANCED_FACE('OSCAD_TOPO/3|face|f:3e9705ca1c0219b2499f3d68c493413c|6faed83a82c308ef24ae0195b644ab20757ae2ba4f7a232d4dbdc7a8b6f0ebb5',(#300),#60,.T.);
#302=FACE_OUTER_BOUND('',#288,.T.);
#303=ADVANCED_FACE('OSCAD_TOPO/3|face|f:673b032e9b88a4174a55fbbc1f85e481|42df50c38904d49e4234624a4f92b49b3984905fbe5e8a94732ebe72a669e84c',(#302),#65,.T.);
#304=FACE_OUTER_BOUND('',#293,.T.);
#305=ADVANCED_FACE('OSCAD_TOPO/3|face|f:161561a9bc3d12aa58f999d1fe1feb2c|503a7c5bb42db866615939a10a6edf4a76c338607b562310657144619aab0b57',(#304),#70,.T.);
#306=CLOSED_SHELL('OSCAD_TOPO/3|shell|s:a0b33a764751714bb314f3d33d514efa|f5e44b435edc324b6efdd09f56590343e16c6fd53e8834226dd6ba3f5a40a1c2',(#295,#297,#299,#301,#303,#305));
#307=MANIFOLD_SOLID_BREP('OSCAD_TOPO/3|body|b:4f72bf50e1e33029983d892924331e27|1d51bb2d20c2406d06e2569332d871b85bf7f575d2447ef25139c7ae19325bc3',#306);
#308=(LENGTH_UNIT()NAMED_UNIT(*)SI_UNIT(.MILLI.,.METRE.));
#309=UNCERTAINTY_MEASURE_WITH_UNIT(LENGTH_MEASURE(9.99999999999999955E-8),#308,'distance_accuracy_value','');
#310=(GEOMETRIC_REPRESENTATION_CONTEXT(3)GLOBAL_UNCERTAINTY_ASSIGNED_CONTEXT((#309))GLOBAL_UNIT_ASSIGNED_CONTEXT((#308))REPRESENTATION_CONTEXT('','3D'));
#311=ADVANCED_BREP_SHAPE_REPRESENTATION('',(#307),#310);
#312=APPLICATION_CONTEXT('managed model based 3d engineering');
#313=PRODUCT_CONTEXT('',#312,'mechanical');
#314=PRODUCT('model','model','',(#313));
#315=PRODUCT_DEFINITION_FORMATION('1','',#314);
#316=PRODUCT_DEFINITION_CONTEXT('part definition',#312,'design');
#317=PRODUCT_DEFINITION('design','',#315,#316);
#318=PRODUCT_DEFINITION_SHAPE('','',#317);
#319=SHAPE_DEFINITION_REPRESENTATION(#318,#311);
ENDSEC;
END-ISO-10303-21;
