ISO-10303-21;
HEADER;
FILE_DESCRIPTION(('OpenSCAD Viewer retained AP242 B-rep'),'2;1');
FILE_NAME('model.step','',(''),(''),'OpenSCAD Viewer','OpenSCAD Viewer','');
FILE_SCHEMA(('AP242_MANAGED_MODEL_BASED_3D_ENGINEERING_MIM_LF'));
ENDSEC;
DATA;
#1=CARTESIAN_POINT('',(-1.00000000000000000E1,-1.00000000000000000E1,5.00000000000000000E0));
#2=VERTEX_POINT('OSCAD_TOPO/3|vertex|v:47ee7f0f11b13d57e3eaffb297f7db47|8d35b9db05dd5999733380e20b9e9d2ee686a7be06ca16f4f8c2ed9d442967b7',#1);
#3=CARTESIAN_POINT('',(-1.00000000000000000E1,1.00000000000000000E1,5.00000000000000000E0));
#4=VERTEX_POINT('OSCAD_TOPO/3|vertex|v:1a582389783ebc4debb48d29c9a7c664|b38f761a07c149a8dec675f3918c17ff6e70a199768cec14025d2b0e01cb12f9',#3);
#5=CARTESIAN_POINT('',(1.00000000000000000E1,1.00000000000000000E1,5.00000000000000000E0));
#6=VERTEX_POINT('OSCAD_TOPO/3|vertex|v:ad0d0c15396adc7f7861dea765b1668b|02e68598f8d2d7da350459e3563addc85d287e33c71ce2dda2c7783be63a67d3',#5);
#7=CARTESIAN_POINT('',(1.00000000000000000E1,-1.00000000000000000E1,5.00000000000000000E0));
#8=VERTEX_POINT('OSCAD_TOPO/3|vertex|v:652f4808c810e3eddcd13711e4655a12|e55ecfcc4cd1121a64dacaff2b78f297db726998aff5acf184a9330ae62952be',#7);
#9=CARTESIAN_POINT('',(-1.00000000000000000E1,1.00000000000000000E1,2.00000000000000000E1));
#10=VERTEX_POINT('OSCAD_TOPO/3|vertex|v:8e96d34e675862c75a3020107ce74e8b|2ac1e5d4f1203ee4830de75baf6af773c5c94128c76b190855cab67423da829b',#9);
#11=CARTESIAN_POINT('',(-1.00000000000000000E1,-1.00000000000000000E1,2.00000000000000000E1));
#12=VERTEX_POINT('OSCAD_TOPO/3|vertex|v:6e4dbcb7a7b10aec9795c66461c2b40c|85dfc5389e33680f7b4b9c35b52c979109df8fb2fe42bf3dc8f8557d665732ef',#11);
#13=CARTESIAN_POINT('',(1.00000000000000000E1,-1.00000000000000000E1,2.00000000000000000E1));
#14=VERTEX_POINT('OSCAD_TOPO/3|vertex|v:5f73bf3a2e3384b21cd6df0154cd3282|40bb71c2bd334a44a2a6534194229a0fefb8e6e1dccb0f0898eba4a4163eae11',#13);
#15=CARTESIAN_POINT('',(1.00000000000000000E1,1.00000000000000000E1,2.00000000000000000E1));
#16=VERTEX_POINT('OSCAD_TOPO/3|vertex|v:bebaeef6d79f069ca46cc61d6f7c061c|2f3bb8e78c31d58c085255dcc3ad09e87a3a698c1b3be650354ff1846f2ac2d4',#15);
#17=CARTESIAN_POINT('',(-1.00000000000000000E1,-1.00000000000000000E1,5.00000000000000000E0));
#18=CARTESIAN_POINT('',(1.00000000000000000E1,-1.00000000000000000E1,5.00000000000000000E0));
#19=CARTESIAN_POINT('',(-1.00000000000000000E1,1.00000000000000000E1,5.00000000000000000E0));
#20=CARTESIAN_POINT('',(1.00000000000000000E1,1.00000000000000000E1,5.00000000000000000E0));
#21=B_SPLINE_SURFACE_WITH_KNOTS('',1,1,((#17,#18),(#19,#20)),.UNSPECIFIED.,.F.,.F.,.F.,(2,2),(2,2),(0.00000000000000000E0,1.00000000000000000E0),(0.00000000000000000E0,1.00000000000000000E0),.UNSPECIFIED.);
#22=CARTESIAN_POINT('',(-1.00000000000000000E1,1.00000000000000000E1,2.00000000000000000E1));
#23=CARTESIAN_POINT('',(1.00000000000000000E1,1.00000000000000000E1,2.00000000000000000E1));
#24=CARTESIAN_POINT('',(-1.00000000000000000E1,-1.00000000000000000E1,2.00000000000000000E1));
#25=CARTESIAN_POINT('',(1.00000000000000000E1,-1.00000000000000000E1,2.00000000000000000E1));
#26=B_SPLINE_SURFACE_WITH_KNOTS('',1,1,((#22,#23),(#24,#25)),.UNSPECIFIED.,.F.,.F.,.F.,(2,2),(2,2),(0.00000000000000000E0,1.00000000000000000E0),(0.00000000000000000E0,1.00000000000000000E0),.UNSPECIFIED.);
#27=CARTESIAN_POINT('',(-1.00000000000000000E1,-1.00000000000000000E1,2.00000000000000000E1));
#28=CARTESIAN_POINT('',(1.00000000000000000E1,-1.00000000000000000E1,2.00000000000000000E1));
#29=CARTESIAN_POINT('',(-1.00000000000000000E1,-1.00000000000000000E1,5.00000000000000000E0));
#30=CARTESIAN_POINT('',(1.00000000000000000E1,-1.00000000000000000E1,5.00000000000000000E0));
#31=B_SPLINE_SURFACE_WITH_KNOTS('',1,1,((#27,#28),(#29,#30)),.UNSPECIFIED.,.F.,.F.,.F.,(2,2),(2,2),(0.00000000000000000E0,1.00000000000000000E0),(0.00000000000000000E0,1.00000000000000000E0),.UNSPECIFIED.);
#32=CARTESIAN_POINT('',(1.00000000000000000E1,-1.00000000000000000E1,2.00000000000000000E1));
#33=CARTESIAN_POINT('',(1.00000000000000000E1,1.00000000000000000E1,2.00000000000000000E1));
#34=CARTESIAN_POINT('',(1.00000000000000000E1,-1.00000000000000000E1,5.00000000000000000E0));
#35=CARTESIAN_POINT('',(1.00000000000000000E1,1.00000000000000000E1,5.00000000000000000E0));
#36=B_SPLINE_SURFACE_WITH_KNOTS('',1,1,((#32,#33),(#34,#35)),.UNSPECIFIED.,.F.,.F.,.F.,(2,2),(2,2),(0.00000000000000000E0,1.00000000000000000E0),(0.00000000000000000E0,1.00000000000000000E0),.UNSPECIFIED.);
#37=CARTESIAN_POINT('',(-1.00000000000000000E1,1.00000000000000000E1,5.00000000000000000E0));
#38=CARTESIAN_POINT('',(1.00000000000000000E1,1.00000000000000000E1,5.00000000000000000E0));
#39=CARTESIAN_POINT('',(-1.00000000000000000E1,1.00000000000000000E1,2.00000000000000000E1));
#40=CARTESIAN_POINT('',(1.00000000000000000E1,1.00000000000000000E1,2.00000000000000000E1));
#41=B_SPLINE_SURFACE_WITH_KNOTS('',1,1,((#37,#38),(#39,#40)),.UNSPECIFIED.,.F.,.F.,.F.,(2,2),(2,2),(0.00000000000000000E0,1.00000000000000000E0),(0.00000000000000000E0,1.00000000000000000E0),.UNSPECIFIED.);
#42=CARTESIAN_POINT('',(-1.00000000000000000E1,-1.00000000000000000E1,5.00000000000000000E0));
#43=CARTESIAN_POINT('',(-1.00000000000000000E1,1.00000000000000000E1,5.00000000000000000E0));
#44=CARTESIAN_POINT('',(-1.00000000000000000E1,-1.00000000000000000E1,2.00000000000000000E1));
#45=CARTESIAN_POINT('',(-1.00000000000000000E1,1.00000000000000000E1,2.00000000000000000E1));
#46=B_SPLINE_SURFACE_WITH_KNOTS('',1,1,((#42,#43),(#44,#45)),.UNSPECIFIED.,.F.,.F.,.F.,(2,2),(2,2),(0.00000000000000000E0,1.00000000000000000E0),(0.00000000000000000E0,1.00000000000000000E0),.UNSPECIFIED.);
#47=CARTESIAN_POINT('',(-1.00000000000000000E1,-1.00000000000000000E1,5.00000000000000000E0));
#48=CARTESIAN_POINT('',(-1.00000000000000000E1,1.00000000000000000E1,5.00000000000000000E0));
#49=B_SPLINE_CURVE_WITH_KNOTS('',1,(#47,#48),.UNSPECIFIED.,.F.,.F.,(2,2),(0.00000000000000000E0,1.00000000000000000E0),.UNSPECIFIED.);
#50=CARTESIAN_POINT('',(-1.00000000000000000E1,1.00000000000000000E1,5.00000000000000000E0));
#51=CARTESIAN_POINT('',(1.00000000000000000E1,1.00000000000000000E1,5.00000000000000000E0));
#52=B_SPLINE_CURVE_WITH_KNOTS('',1,(#50,#51),.UNSPECIFIED.,.F.,.F.,(2,2),(0.00000000000000000E0,1.00000000000000000E0),.UNSPECIFIED.);
#53=CARTESIAN_POINT('',(1.00000000000000000E1,1.00000000000000000E1,5.00000000000000000E0));
#54=CARTESIAN_POINT('',(1.00000000000000000E1,-1.00000000000000000E1,5.00000000000000000E0));
#55=B_SPLINE_CURVE_WITH_KNOTS('',1,(#53,#54),.UNSPECIFIED.,.F.,.F.,(2,2),(0.00000000000000000E0,1.00000000000000000E0),.UNSPECIFIED.);
#56=CARTESIAN_POINT('',(-1.00000000000000000E1,-1.00000000000000000E1,5.00000000000000000E0));
#57=CARTESIAN_POINT('',(1.00000000000000000E1,-1.00000000000000000E1,5.00000000000000000E0));
#58=B_SPLINE_CURVE_WITH_KNOTS('',1,(#56,#57),.UNSPECIFIED.,.F.,.F.,(2,2),(0.00000000000000000E0,1.00000000000000000E0),.UNSPECIFIED.);
#59=CARTESIAN_POINT('',(-1.00000000000000000E1,1.00000000000000000E1,2.00000000000000000E1));
#60=CARTESIAN_POINT('',(-1.00000000000000000E1,-1.00000000000000000E1,2.00000000000000000E1));
#61=B_SPLINE_CURVE_WITH_KNOTS('',1,(#59,#60),.UNSPECIFIED.,.F.,.F.,(2,2),(0.00000000000000000E0,1.00000000000000000E0),.UNSPECIFIED.);
#62=CARTESIAN_POINT('',(-1.00000000000000000E1,-1.00000000000000000E1,2.00000000000000000E1));
#63=CARTESIAN_POINT('',(1.00000000000000000E1,-1.00000000000000000E1,2.00000000000000000E1));
#64=B_SPLINE_CURVE_WITH_KNOTS('',1,(#62,#63),.UNSPECIFIED.,.F.,.F.,(2,2),(0.00000000000000000E0,1.00000000000000000E0),.UNSPECIFIED.);
#65=CARTESIAN_POINT('',(1.00000000000000000E1,-1.00000000000000000E1,2.00000000000000000E1));
#66=CARTESIAN_POINT('',(1.00000000000000000E1,1.00000000000000000E1,2.00000000000000000E1));
#67=B_SPLINE_CURVE_WITH_KNOTS('',1,(#65,#66),.UNSPECIFIED.,.F.,.F.,(2,2),(0.00000000000000000E0,1.00000000000000000E0),.UNSPECIFIED.);
#68=CARTESIAN_POINT('',(-1.00000000000000000E1,1.00000000000000000E1,2.00000000000000000E1));
#69=CARTESIAN_POINT('',(1.00000000000000000E1,1.00000000000000000E1,2.00000000000000000E1));
#70=B_SPLINE_CURVE_WITH_KNOTS('',1,(#68,#69),.UNSPECIFIED.,.F.,.F.,(2,2),(0.00000000000000000E0,1.00000000000000000E0),.UNSPECIFIED.);
#71=CARTESIAN_POINT('',(-1.00000000000000000E1,-1.00000000000000000E1,5.00000000000000000E0));
#72=CARTESIAN_POINT('',(-1.00000000000000000E1,-1.00000000000000000E1,2.00000000000000000E1));
#73=B_SPLINE_CURVE_WITH_KNOTS('',1,(#71,#72),.UNSPECIFIED.,.F.,.F.,(2,2),(0.00000000000000000E0,1.00000000000000000E0),.UNSPECIFIED.);
#74=CARTESIAN_POINT('',(1.00000000000000000E1,-1.00000000000000000E1,5.00000000000000000E0));
#75=CARTESIAN_POINT('',(1.00000000000000000E1,-1.00000000000000000E1,2.00000000000000000E1));
#76=B_SPLINE_CURVE_WITH_KNOTS('',1,(#74,#75),.UNSPECIFIED.,.F.,.F.,(2,2),(0.00000000000000000E0,1.00000000000000000E0),.UNSPECIFIED.);
#77=CARTESIAN_POINT('',(1.00000000000000000E1,1.00000000000000000E1,5.00000000000000000E0));
#78=CARTESIAN_POINT('',(1.00000000000000000E1,1.00000000000000000E1,2.00000000000000000E1));
#79=B_SPLINE_CURVE_WITH_KNOTS('',1,(#77,#78),.UNSPECIFIED.,.F.,.F.,(2,2),(0.00000000000000000E0,1.00000000000000000E0),.UNSPECIFIED.);
#80=CARTESIAN_POINT('',(-1.00000000000000000E1,1.00000000000000000E1,5.00000000000000000E0));
#81=CARTESIAN_POINT('',(-1.00000000000000000E1,1.00000000000000000E1,2.00000000000000000E1));
#82=B_SPLINE_CURVE_WITH_KNOTS('',1,(#80,#81),.UNSPECIFIED.,.F.,.F.,(2,2),(0.00000000000000000E0,1.00000000000000000E0),.UNSPECIFIED.);
#83=(GEOMETRIC_REPRESENTATION_CONTEXT(2)REPRESENTATION_CONTEXT('','2D'));
#84=CARTESIAN_POINT('',(0.00000000000000000E0,0.00000000000000000E0));
#85=CARTESIAN_POINT('',(1.00000000000000000E0,0.00000000000000000E0));
#86=B_SPLINE_CURVE_WITH_KNOTS('',1,(#84,#85),.UNSPECIFIED.,.F.,.F.,(2,2),(0.00000000000000000E0,1.00000000000000000E0),.UNSPECIFIED.);
#87=DEFINITIONAL_REPRESENTATION('',(#86),#83);
#88=PCURVE('',#21,#87);
#89=CARTESIAN_POINT('',(1.00000000000000000E0,0.00000000000000000E0));
#90=CARTESIAN_POINT('',(1.00000000000000000E0,1.00000000000000000E0));
#91=B_SPLINE_CURVE_WITH_KNOTS('',1,(#89,#90),.UNSPECIFIED.,.F.,.F.,(2,2),(0.00000000000000000E0,1.00000000000000000E0),.UNSPECIFIED.);
#92=DEFINITIONAL_REPRESENTATION('',(#91),#83);
#93=PCURVE('',#21,#92);
#94=CARTESIAN_POINT('',(1.00000000000000000E0,1.00000000000000000E0));
#95=CARTESIAN_POINT('',(0.00000000000000000E0,1.00000000000000000E0));
#96=B_SPLINE_CURVE_WITH_KNOTS('',1,(#94,#95),.UNSPECIFIED.,.F.,.F.,(2,2),(0.00000000000000000E0,1.00000000000000000E0),.UNSPECIFIED.);
#97=DEFINITIONAL_REPRESENTATION('',(#96),#83);
#98=PCURVE('',#21,#97);
#99=CARTESIAN_POINT('',(0.00000000000000000E0,1.00000000000000000E0));
#100=CARTESIAN_POINT('',(0.00000000000000000E0,0.00000000000000000E0));
#101=B_SPLINE_CURVE_WITH_KNOTS('',1,(#99,#100),.UNSPECIFIED.,.F.,.F.,(2,2),(0.00000000000000000E0,1.00000000000000000E0),.UNSPECIFIED.);
#102=DEFINITIONAL_REPRESENTATION('',(#101),#83);
#103=PCURVE('',#21,#102);
#104=CARTESIAN_POINT('',(0.00000000000000000E0,0.00000000000000000E0));
#105=CARTESIAN_POINT('',(1.00000000000000000E0,0.00000000000000000E0));
#106=B_SPLINE_CURVE_WITH_KNOTS('',1,(#104,#105),.UNSPECIFIED.,.F.,.F.,(2,2),(0.00000000000000000E0,1.00000000000000000E0),.UNSPECIFIED.);
#107=DEFINITIONAL_REPRESENTATION('',(#106),#83);
#108=PCURVE('',#26,#107);
#109=CARTESIAN_POINT('',(1.00000000000000000E0,0.00000000000000000E0));
#110=CARTESIAN_POINT('',(1.00000000000000000E0,1.00000000000000000E0));
#111=B_SPLINE_CURVE_WITH_KNOTS('',1,(#109,#110),.UNSPECIFIED.,.F.,.F.,(2,2),(0.00000000000000000E0,1.00000000000000000E0),.UNSPECIFIED.);
#112=DEFINITIONAL_REPRESENTATION('',(#111),#83);
#113=PCURVE('',#26,#112);
#114=CARTESIAN_POINT('',(1.00000000000000000E0,1.00000000000000000E0));
#115=CARTESIAN_POINT('',(0.00000000000000000E0,1.00000000000000000E0));
#116=B_SPLINE_CURVE_WITH_KNOTS('',1,(#114,#115),.UNSPECIFIED.,.F.,.F.,(2,2),(0.00000000000000000E0,1.00000000000000000E0),.UNSPECIFIED.);
#117=DEFINITIONAL_REPRESENTATION('',(#116),#83);
#118=PCURVE('',#26,#117);
#119=CARTESIAN_POINT('',(0.00000000000000000E0,1.00000000000000000E0));
#120=CARTESIAN_POINT('',(0.00000000000000000E0,0.00000000000000000E0));
#121=B_SPLINE_CURVE_WITH_KNOTS('',1,(#119,#120),.UNSPECIFIED.,.F.,.F.,(2,2),(0.00000000000000000E0,1.00000000000000000E0),.UNSPECIFIED.);
#122=DEFINITIONAL_REPRESENTATION('',(#121),#83);
#123=PCURVE('',#26,#122);
#124=CARTESIAN_POINT('',(0.00000000000000000E0,0.00000000000000000E0));
#125=CARTESIAN_POINT('',(1.00000000000000000E0,0.00000000000000000E0));
#126=B_SPLINE_CURVE_WITH_KNOTS('',1,(#124,#125),.UNSPECIFIED.,.F.,.F.,(2,2),(0.00000000000000000E0,1.00000000000000000E0),.UNSPECIFIED.);
#127=DEFINITIONAL_REPRESENTATION('',(#126),#83);
#128=PCURVE('',#31,#127);
#129=CARTESIAN_POINT('',(1.00000000000000000E0,0.00000000000000000E0));
#130=CARTESIAN_POINT('',(1.00000000000000000E0,1.00000000000000000E0));
#131=B_SPLINE_CURVE_WITH_KNOTS('',1,(#129,#130),.UNSPECIFIED.,.F.,.F.,(2,2),(0.00000000000000000E0,1.00000000000000000E0),.UNSPECIFIED.);
#132=DEFINITIONAL_REPRESENTATION('',(#131),#83);
#133=PCURVE('',#31,#132);
#134=CARTESIAN_POINT('',(1.00000000000000000E0,1.00000000000000000E0));
#135=CARTESIAN_POINT('',(0.00000000000000000E0,1.00000000000000000E0));
#136=B_SPLINE_CURVE_WITH_KNOTS('',1,(#134,#135),.UNSPECIFIED.,.F.,.F.,(2,2),(0.00000000000000000E0,1.00000000000000000E0),.UNSPECIFIED.);
#137=DEFINITIONAL_REPRESENTATION('',(#136),#83);
#138=PCURVE('',#31,#137);
#139=CARTESIAN_POINT('',(0.00000000000000000E0,1.00000000000000000E0));
#140=CARTESIAN_POINT('',(0.00000000000000000E0,0.00000000000000000E0));
#141=B_SPLINE_CURVE_WITH_KNOTS('',1,(#139,#140),.UNSPECIFIED.,.F.,.F.,(2,2),(0.00000000000000000E0,1.00000000000000000E0),.UNSPECIFIED.);
#142=DEFINITIONAL_REPRESENTATION('',(#141),#83);
#143=PCURVE('',#31,#142);
#144=CARTESIAN_POINT('',(0.00000000000000000E0,0.00000000000000000E0));
#145=CARTESIAN_POINT('',(1.00000000000000000E0,0.00000000000000000E0));
#146=B_SPLINE_CURVE_WITH_KNOTS('',1,(#144,#145),.UNSPECIFIED.,.F.,.F.,(2,2),(0.00000000000000000E0,1.00000000000000000E0),.UNSPECIFIED.);
#147=DEFINITIONAL_REPRESENTATION('',(#146),#83);
#148=PCURVE('',#36,#147);
#149=CARTESIAN_POINT('',(1.00000000000000000E0,0.00000000000000000E0));
#150=CARTESIAN_POINT('',(1.00000000000000000E0,1.00000000000000000E0));
#151=B_SPLINE_CURVE_WITH_KNOTS('',1,(#149,#150),.UNSPECIFIED.,.F.,.F.,(2,2),(0.00000000000000000E0,1.00000000000000000E0),.UNSPECIFIED.);
#152=DEFINITIONAL_REPRESENTATION('',(#151),#83);
#153=PCURVE('',#36,#152);
#154=CARTESIAN_POINT('',(1.00000000000000000E0,1.00000000000000000E0));
#155=CARTESIAN_POINT('',(0.00000000000000000E0,1.00000000000000000E0));
#156=B_SPLINE_CURVE_WITH_KNOTS('',1,(#154,#155),.UNSPECIFIED.,.F.,.F.,(2,2),(0.00000000000000000E0,1.00000000000000000E0),.UNSPECIFIED.);
#157=DEFINITIONAL_REPRESENTATION('',(#156),#83);
#158=PCURVE('',#36,#157);
#159=CARTESIAN_POINT('',(0.00000000000000000E0,1.00000000000000000E0));
#160=CARTESIAN_POINT('',(0.00000000000000000E0,0.00000000000000000E0));
#161=B_SPLINE_CURVE_WITH_KNOTS('',1,(#159,#160),.UNSPECIFIED.,.F.,.F.,(2,2),(0.00000000000000000E0,1.00000000000000000E0),.UNSPECIFIED.);
#162=DEFINITIONAL_REPRESENTATION('',(#161),#83);
#163=PCURVE('',#36,#162);
#164=CARTESIAN_POINT('',(0.00000000000000000E0,0.00000000000000000E0));
#165=CARTESIAN_POINT('',(1.00000000000000000E0,0.00000000000000000E0));
#166=B_SPLINE_CURVE_WITH_KNOTS('',1,(#164,#165),.UNSPECIFIED.,.F.,.F.,(2,2),(0.00000000000000000E0,1.00000000000000000E0),.UNSPECIFIED.);
#167=DEFINITIONAL_REPRESENTATION('',(#166),#83);
#168=PCURVE('',#41,#167);
#169=CARTESIAN_POINT('',(1.00000000000000000E0,0.00000000000000000E0));
#170=CARTESIAN_POINT('',(1.00000000000000000E0,1.00000000000000000E0));
#171=B_SPLINE_CURVE_WITH_KNOTS('',1,(#169,#170),.UNSPECIFIED.,.F.,.F.,(2,2),(0.00000000000000000E0,1.00000000000000000E0),.UNSPECIFIED.);
#172=DEFINITIONAL_REPRESENTATION('',(#171),#83);
#173=PCURVE('',#41,#172);
#174=CARTESIAN_POINT('',(1.00000000000000000E0,1.00000000000000000E0));
#175=CARTESIAN_POINT('',(0.00000000000000000E0,1.00000000000000000E0));
#176=B_SPLINE_CURVE_WITH_KNOTS('',1,(#174,#175),.UNSPECIFIED.,.F.,.F.,(2,2),(0.00000000000000000E0,1.00000000000000000E0),.UNSPECIFIED.);
#177=DEFINITIONAL_REPRESENTATION('',(#176),#83);
#178=PCURVE('',#41,#177);
#179=CARTESIAN_POINT('',(0.00000000000000000E0,1.00000000000000000E0));
#180=CARTESIAN_POINT('',(0.00000000000000000E0,0.00000000000000000E0));
#181=B_SPLINE_CURVE_WITH_KNOTS('',1,(#179,#180),.UNSPECIFIED.,.F.,.F.,(2,2),(0.00000000000000000E0,1.00000000000000000E0),.UNSPECIFIED.);
#182=DEFINITIONAL_REPRESENTATION('',(#181),#83);
#183=PCURVE('',#41,#182);
#184=CARTESIAN_POINT('',(0.00000000000000000E0,0.00000000000000000E0));
#185=CARTESIAN_POINT('',(1.00000000000000000E0,0.00000000000000000E0));
#186=B_SPLINE_CURVE_WITH_KNOTS('',1,(#184,#185),.UNSPECIFIED.,.F.,.F.,(2,2),(0.00000000000000000E0,1.00000000000000000E0),.UNSPECIFIED.);
#187=DEFINITIONAL_REPRESENTATION('',(#186),#83);
#188=PCURVE('',#46,#187);
#189=CARTESIAN_POINT('',(1.00000000000000000E0,0.00000000000000000E0));
#190=CARTESIAN_POINT('',(1.00000000000000000E0,1.00000000000000000E0));
#191=B_SPLINE_CURVE_WITH_KNOTS('',1,(#189,#190),.UNSPECIFIED.,.F.,.F.,(2,2),(0.00000000000000000E0,1.00000000000000000E0),.UNSPECIFIED.);
#192=DEFINITIONAL_REPRESENTATION('',(#191),#83);
#193=PCURVE('',#46,#192);
#194=CARTESIAN_POINT('',(1.00000000000000000E0,1.00000000000000000E0));
#195=CARTESIAN_POINT('',(0.00000000000000000E0,1.00000000000000000E0));
#196=B_SPLINE_CURVE_WITH_KNOTS('',1,(#194,#195),.UNSPECIFIED.,.F.,.F.,(2,2),(0.00000000000000000E0,1.00000000000000000E0),.UNSPECIFIED.);
#197=DEFINITIONAL_REPRESENTATION('',(#196),#83);
#198=PCURVE('',#46,#197);
#199=CARTESIAN_POINT('',(0.00000000000000000E0,1.00000000000000000E0));
#200=CARTESIAN_POINT('',(0.00000000000000000E0,0.00000000000000000E0));
#201=B_SPLINE_CURVE_WITH_KNOTS('',1,(#199,#200),.UNSPECIFIED.,.F.,.F.,(2,2),(0.00000000000000000E0,1.00000000000000000E0),.UNSPECIFIED.);
#202=DEFINITIONAL_REPRESENTATION('',(#201),#83);
#203=PCURVE('',#46,#202);
#204=SURFACE_CURVE('',#49,(#88,#203),.PCURVE_S1.);
#205=EDGE_CURVE('OSCAD_TOPO/3|edge|e:7b999ab543a42f7b2cfbb3bb16d3c1ee|78c2737c45bf1c1cf30155d20ead5099e812315952fc7000f7292f617c8a9e00',#2,#4,#204,.T.);
#206=SURFACE_CURVE('',#52,(#93,#183),.PCURVE_S1.);
#207=EDGE_CURVE('OSCAD_TOPO/3|edge|e:df3dc509ccbb97c010061109f34c906e|914cfeefd1ca92ea71c5d9269c1091d806d21c8af8f3a553a976d8c9cbde9e98',#4,#6,#206,.T.);
#208=SURFACE_CURVE('',#55,(#98,#153),.PCURVE_S1.);
#209=EDGE_CURVE('OSCAD_TOPO/3|edge|e:b4ed41f9f78e206226228fc4bdc51ab3|d4049a54684038e7d9da064d567f5ae2f4ab1e57aff9132be043cf4f668c8052',#6,#8,#208,.T.);
#210=SURFACE_CURVE('',#58,(#103,#133),.PCURVE_S1.);
#211=EDGE_CURVE('OSCAD_TOPO/3|edge|e:3a98869cda4d1d9e75caf8c00816a469|aeca0d6eb642c4bc7d39743f2c2daa83d3cf3255165e100db733d4a2e123baeb',#2,#8,#210,.T.);
#212=SURFACE_CURVE('',#61,(#108,#193),.PCURVE_S1.);
#213=EDGE_CURVE('OSCAD_TOPO/3|edge|e:5b04c8a40a14d4fd1c918f30ff341477|9349f93e010bae6e7ded4d83ad20764d42126af487b3923641852bca91c2852b',#10,#12,#212,.T.);
#214=SURFACE_CURVE('',#64,(#113,#143),.PCURVE_S1.);
#215=EDGE_CURVE('OSCAD_TOPO/3|edge|e:99ba740c69928b7e187dd7e4dfd171e7|8c91381505fd31f5fb64f36011e97f1ca18bb6c57ecdc844e1d2bc8608f6f4e8',#12,#14,#214,.T.);
#216=SURFACE_CURVE('',#67,(#118,#163),.PCURVE_S1.);
#217=EDGE_CURVE('OSCAD_TOPO/3|edge|e:90f8ad0e41bd70c90f643d285268b0b1|bfb7370ed097cad77659be1c2b1e5c804b4f7a4268f8f41a894459b285228df2',#14,#16,#216,.T.);
#218=SURFACE_CURVE('',#70,(#123,#173),.PCURVE_S1.);
#219=EDGE_CURVE('OSCAD_TOPO/3|edge|e:54892c3fae944e3babd393a3ca158b79|092d1117609f865a4f1954c6ea1d7ba6a363f2b29ae10e6fbf2c25022d198e3e',#10,#16,#218,.T.);
#220=SURFACE_CURVE('',#73,(#128,#188),.PCURVE_S1.);
#221=EDGE_CURVE('OSCAD_TOPO/3|edge|e:f0de768e9443583810d6786d233379b1|538abf442a2211f67bc8d1f729dbb6bdfe556dd055ea5d0f3982f76e5bde20e3',#2,#12,#220,.T.);
#222=SURFACE_CURVE('',#76,(#138,#148),.PCURVE_S1.);
#223=EDGE_CURVE('OSCAD_TOPO/3|edge|e:417c6b94670795e0a37cd7aa86a99bf8|ac4500830813d72f42c0b9a07e79eca4bd5ec580a42eaa7ec88e4f42c9970105',#8,#14,#222,.T.);
#224=SURFACE_CURVE('',#79,(#158,#178),.PCURVE_S1.);
#225=EDGE_CURVE('OSCAD_TOPO/3|edge|e:22c36a0b97c6120d1d6a5c8c05aa1b6c|f86345f4b753c1e2823c4a9b3417b17c29c98df5b6899f74f06991b347943f5d',#6,#16,#224,.T.);
#226=SURFACE_CURVE('',#82,(#168,#198),.PCURVE_S1.);
#227=EDGE_CURVE('OSCAD_TOPO/3|edge|e:17754942642eee429de10b4f07c3dc07|f8b3fc9d8659a280a118197a4bda32ce1fec6dd4b141e174020b955c8b1f566c',#4,#10,#226,.T.);
#228=ORIENTED_EDGE('',*,*,#205,.T.);
#229=ORIENTED_EDGE('',*,*,#207,.T.);
#230=ORIENTED_EDGE('',*,*,#209,.T.);
#231=ORIENTED_EDGE('',*,*,#211,.F.);
#232=EDGE_LOOP('OSCAD_TOPO/3|loop|l:089f50d87c183ea7e5192dbd4ad697ff|689508053654654d28b9da9c9abb6c22fb8d8ea9efea84c2e971373c86deb163',(#228,#229,#230,#231));
#233=ORIENTED_EDGE('',*,*,#213,.T.);
#234=ORIENTED_EDGE('',*,*,#215,.T.);
#235=ORIENTED_EDGE('',*,*,#217,.T.);
#236=ORIENTED_EDGE('',*,*,#219,.F.);
#237=EDGE_LOOP('OSCAD_TOPO/3|loop|l:55ab69dd611da584831af3818a6a9391|0e85f413babc234368a776c6aa02ca4a8e7309ea3402a287d364d0a1470e6a66',(#233,#234,#235,#236));
#238=ORIENTED_EDGE('',*,*,#221,.F.);
#239=ORIENTED_EDGE('',*,*,#211,.T.);
#240=ORIENTED_EDGE('',*,*,#223,.T.);
#241=ORIENTED_EDGE('',*,*,#215,.F.);
#242=EDGE_LOOP('OSCAD_TOPO/3|loop|l:ea7a93cc7fbaba29b4afc12f75bf087a|e7e3814591fcca31ceca62c52abcdfe176fc7a73be898181b3e8025b77749488',(#238,#239,#240,#241));
#243=ORIENTED_EDGE('',*,*,#223,.F.);
#244=ORIENTED_EDGE('',*,*,#209,.F.);
#245=ORIENTED_EDGE('',*,*,#225,.T.);
#246=ORIENTED_EDGE('',*,*,#217,.F.);
#247=EDGE_LOOP('OSCAD_TOPO/3|loop|l:f6ba50863ed6ae11af694ad9db61f0de|4ffa986649a5c1a478349b349009dad0e2903e996aa837607b45bb1d7b236ada',(#243,#244,#245,#246));
#248=ORIENTED_EDGE('',*,*,#227,.T.);
#249=ORIENTED_EDGE('',*,*,#219,.T.);
#250=ORIENTED_EDGE('',*,*,#225,.F.);
#251=ORIENTED_EDGE('',*,*,#207,.F.);
#252=EDGE_LOOP('OSCAD_TOPO/3|loop|l:a0c8e4576908d3bc3bd354f05da9496d|b6e7f3c5a4240da32edc6ab535587954bb1b8fb5150b6686ef9907e76dcf93b4',(#248,#249,#250,#251));
#253=ORIENTED_EDGE('',*,*,#221,.T.);
#254=ORIENTED_EDGE('',*,*,#213,.F.);
#255=ORIENTED_EDGE('',*,*,#227,.F.);
#256=ORIENTED_EDGE('',*,*,#205,.F.);
#257=EDGE_LOOP('OSCAD_TOPO/3|loop|l:8aa273a3bcb49917216de8fc67087ae7|c52b1f08a1ae069a3e383662aa7cfdd2e5e50c75d3db83cad4c681a5b5245a6b',(#253,#254,#255,#256));
#258=FACE_OUTER_BOUND('',#232,.T.);
#259=ADVANCED_FACE('OSCAD_TOPO/3|face|f:4f3e6b102821e6a4e5768c803b40ad7d|0cd8272e33d8bf8862d6a4a410b62bb98dca6de9c5e0aaaa46292e8837d8e8a5',(#258),#21,.T.);
#260=FACE_OUTER_BOUND('',#237,.T.);
#261=ADVANCED_FACE('OSCAD_TOPO/3|face|f:18de2e12fa4c3af8bbe18e8b562922b0|1cb733dc4aad906cd970e99e005d4171b9c18ff216d0ec64420aa716b9d272ee',(#260),#26,.T.);
#262=FACE_OUTER_BOUND('',#242,.T.);
#263=ADVANCED_FACE('OSCAD_TOPO/3|face|f:077b0ffb5c6eb9710b58d701bb233ec2|7f5d0ad36759383c0332d0d44ea46481b05124d3c10b95aa799c45f32b45fa63',(#262),#31,.T.);
#264=FACE_OUTER_BOUND('',#247,.T.);
#265=ADVANCED_FACE('OSCAD_TOPO/3|face|f:13aab2ec0f28eadad15c72eab38adc8b|a05ee3dbcb1215d15615f2a3a0e534bee3365bf3dc60a3c0d3472c146e19ecb8',(#264),#36,.T.);
#266=FACE_OUTER_BOUND('',#252,.T.);
#267=ADVANCED_FACE('OSCAD_TOPO/3|face|f:9dd41fd2dc2fb022f1a4be26d4c8f2f6|dd72713c69644f1a65b7d297c340aa512e02e9ec3966151f5bc609898f703735',(#266),#41,.T.);
#268=FACE_OUTER_BOUND('',#257,.T.);
#269=ADVANCED_FACE('OSCAD_TOPO/3|face|f:a9a369759847f25747dd617cdda1238b|c9d278489b3eb36258c4ad74ae67f09b1db8ed8aa0692871922359c75e7ae462',(#268),#46,.T.);
#270=CLOSED_SHELL('OSCAD_TOPO/3|shell|s:5bd532650ff3216288f136dda347f217|ef8d7dcb15975c09ae7d0449f39df3a0826af534a8a999b44c8b0a0b3e8ec72c',(#259,#263,#261,#265,#267,#269));
#271=MANIFOLD_SOLID_BREP('OSCAD_TOPO/3|body|b:c092e3cf417234d7d8482858aa8779e0|9769c49529698a5eeb07689459dca441e6286bcbdc8ad3879856437284cd45d8',#270);
#272=(LENGTH_UNIT()NAMED_UNIT(*)SI_UNIT(.MILLI.,.METRE.));
#273=UNCERTAINTY_MEASURE_WITH_UNIT(LENGTH_MEASURE(9.99999999999999955E-8),#272,'distance_accuracy_value','');
#274=(GEOMETRIC_REPRESENTATION_CONTEXT(3)GLOBAL_UNCERTAINTY_ASSIGNED_CONTEXT((#273))GLOBAL_UNIT_ASSIGNED_CONTEXT((#272))REPRESENTATION_CONTEXT('','3D'));
#275=ADVANCED_BREP_SHAPE_REPRESENTATION('',(#271),#274);
#276=APPLICATION_CONTEXT('managed model based 3d engineering');
#277=PRODUCT_CONTEXT('',#276,'mechanical');
#278=PRODUCT('model','model','',(#277));
#279=PRODUCT_DEFINITION_FORMATION('1','',#278);
#280=PRODUCT_DEFINITION_CONTEXT('part definition',#276,'design');
#281=PRODUCT_DEFINITION('design','',#279,#280);
#282=PRODUCT_DEFINITION_SHAPE('','',#281);
#283=SHAPE_DEFINITION_REPRESENTATION(#282,#275);
ENDSEC;
END-ISO-10303-21;
