ISO-10303-21;
HEADER;
FILE_DESCRIPTION(('OpenSCAD Viewer retained AP242 B-rep'),'2;1');
FILE_NAME('model.step','',(''),(''),'OpenSCAD Viewer','OpenSCAD Viewer','');
FILE_SCHEMA(('AP242_MANAGED_MODEL_BASED_3D_ENGINEERING_MIM_LF'));
ENDSEC;
DATA;
#1=CARTESIAN_POINT('',(5.00000000000000000E0,0.00000000000000000E0,0.00000000000000000E0));
#2=VERTEX_POINT('OSCAD_TOPO/3|vertex|v:2301485b2aa5130a3ffa2c3d4ddce85f|4172a2f068046afc72ac3e751c4450c5c4a1bdf6a599d0c8bf438537a483418a',#1);
#3=CARTESIAN_POINT('',(9.00000000000000000E0,0.00000000000000000E0,0.00000000000000000E0));
#4=VERTEX_POINT('OSCAD_TOPO/3|vertex|v:220e6fc475a9da38f53af60746604ed2|5771a3ebfa41c3059072d1254e98ae6f21502374ceea2e00af5f2d1d26f78bcb',#3);
#5=CARTESIAN_POINT('',(9.00000000000000000E0,3.00000000000000000E0,0.00000000000000000E0));
#6=VERTEX_POINT('OSCAD_TOPO/3|vertex|v:15630187ca9558931ed7d631890faede|64949a78c39452d77a11afe889c03d8505acaccf230168ee46df2d003b230fee',#5);
#7=CARTESIAN_POINT('',(5.00000000000000000E0,3.00000000000000000E0,0.00000000000000000E0));
#8=VERTEX_POINT('OSCAD_TOPO/3|vertex|v:96619fa870a7f51b481b3e2ddb3a0b93|6b49277c6163f35b3fcecca526c61f0439e17b9f758730c3e80c5ee98135237c',#7);
#9=CARTESIAN_POINT('',(5.00000000000000000E0,0.00000000000000000E0,4.00000000000000000E0));
#10=VERTEX_POINT('OSCAD_TOPO/3|vertex|v:fcd89561da553c1324475310cc039099|69842127709579aa7be7f1e01e57346310f5c1f5efa1af63a208b9e2b7c813ea',#9);
#11=CARTESIAN_POINT('',(9.00000000000000000E0,0.00000000000000000E0,4.00000000000000000E0));
#12=VERTEX_POINT('OSCAD_TOPO/3|vertex|v:a031a00b4920c2f64ef94214dfda953e|6b33c914f4c5ede7ae0f0a60eb06001ab5991f6fd6a6578d613d685722ec2261',#11);
#13=CARTESIAN_POINT('',(9.00000000000000000E0,3.00000000000000000E0,4.00000000000000000E0));
#14=VERTEX_POINT('OSCAD_TOPO/3|vertex|v:608c5cbeb17b01b3d106d2b35656f52f|5457553ba083bc42e337587a101e272ca386287f6f1d4e8349cb81b97b59cf5e',#13);
#15=CARTESIAN_POINT('',(5.00000000000000000E0,3.00000000000000000E0,4.00000000000000000E0));
#16=VERTEX_POINT('OSCAD_TOPO/3|vertex|v:2c72ff9c20f1b7350b74ed063e434a0e|710bb7fea067c86cb493c48d3fbfdcd4f12d303d88c8aa3e32d78ce419cf0c38',#15);
#17=CARTESIAN_POINT('',(5.00000000000000000E0,0.00000000000000000E0,0.00000000000000000E0));
#18=CARTESIAN_POINT('',(9.00000000000000000E0,0.00000000000000000E0,0.00000000000000000E0));
#19=CARTESIAN_POINT('',(5.00000000000000000E0,3.00000000000000000E0,0.00000000000000000E0));
#20=CARTESIAN_POINT('',(9.00000000000000000E0,3.00000000000000000E0,0.00000000000000000E0));
#21=B_SPLINE_SURFACE_WITH_KNOTS('',1,1,((#17,#18),(#19,#20)),.UNSPECIFIED.,.F.,.F.,.F.,(2,2),(2,2),(0.00000000000000000E0,1.00000000000000000E0),(0.00000000000000000E0,1.00000000000000000E0),.UNSPECIFIED.);
#22=CARTESIAN_POINT('',(5.00000000000000000E0,0.00000000000000000E0,4.00000000000000000E0));
#23=CARTESIAN_POINT('',(5.00000000000000000E0,3.00000000000000000E0,4.00000000000000000E0));
#24=CARTESIAN_POINT('',(9.00000000000000000E0,0.00000000000000000E0,4.00000000000000000E0));
#25=CARTESIAN_POINT('',(9.00000000000000000E0,3.00000000000000000E0,4.00000000000000000E0));
#26=B_SPLINE_SURFACE_WITH_KNOTS('',1,1,((#22,#23),(#24,#25)),.UNSPECIFIED.,.F.,.F.,.F.,(2,2),(2,2),(0.00000000000000000E0,1.00000000000000000E0),(0.00000000000000000E0,1.00000000000000000E0),.UNSPECIFIED.);
#27=CARTESIAN_POINT('',(5.00000000000000000E0,0.00000000000000000E0,0.00000000000000000E0));
#28=CARTESIAN_POINT('',(5.00000000000000000E0,0.00000000000000000E0,4.00000000000000000E0));
#29=CARTESIAN_POINT('',(9.00000000000000000E0,0.00000000000000000E0,0.00000000000000000E0));
#30=CARTESIAN_POINT('',(9.00000000000000000E0,0.00000000000000000E0,4.00000000000000000E0));
#31=B_SPLINE_SURFACE_WITH_KNOTS('',1,1,((#27,#28),(#29,#30)),.UNSPECIFIED.,.F.,.F.,.F.,(2,2),(2,2),(0.00000000000000000E0,1.00000000000000000E0),(0.00000000000000000E0,1.00000000000000000E0),.UNSPECIFIED.);
#32=CARTESIAN_POINT('',(9.00000000000000000E0,0.00000000000000000E0,0.00000000000000000E0));
#33=CARTESIAN_POINT('',(9.00000000000000000E0,0.00000000000000000E0,4.00000000000000000E0));
#34=CARTESIAN_POINT('',(9.00000000000000000E0,3.00000000000000000E0,0.00000000000000000E0));
#35=CARTESIAN_POINT('',(9.00000000000000000E0,3.00000000000000000E0,4.00000000000000000E0));
#36=B_SPLINE_SURFACE_WITH_KNOTS('',1,1,((#32,#33),(#34,#35)),.UNSPECIFIED.,.F.,.F.,.F.,(2,2),(2,2),(0.00000000000000000E0,1.00000000000000000E0),(0.00000000000000000E0,1.00000000000000000E0),.UNSPECIFIED.);
#37=CARTESIAN_POINT('',(9.00000000000000000E0,3.00000000000000000E0,0.00000000000000000E0));
#38=CARTESIAN_POINT('',(9.00000000000000000E0,3.00000000000000000E0,4.00000000000000000E0));
#39=CARTESIAN_POINT('',(5.00000000000000000E0,3.00000000000000000E0,0.00000000000000000E0));
#40=CARTESIAN_POINT('',(5.00000000000000000E0,3.00000000000000000E0,4.00000000000000000E0));
#41=B_SPLINE_SURFACE_WITH_KNOTS('',1,1,((#37,#38),(#39,#40)),.UNSPECIFIED.,.F.,.F.,.F.,(2,2),(2,2),(0.00000000000000000E0,1.00000000000000000E0),(0.00000000000000000E0,1.00000000000000000E0),.UNSPECIFIED.);
#42=CARTESIAN_POINT('',(5.00000000000000000E0,3.00000000000000000E0,0.00000000000000000E0));
#43=CARTESIAN_POINT('',(5.00000000000000000E0,3.00000000000000000E0,4.00000000000000000E0));
#44=CARTESIAN_POINT('',(5.00000000000000000E0,0.00000000000000000E0,0.00000000000000000E0));
#45=CARTESIAN_POINT('',(5.00000000000000000E0,0.00000000000000000E0,4.00000000000000000E0));
#46=B_SPLINE_SURFACE_WITH_KNOTS('',1,1,((#42,#43),(#44,#45)),.UNSPECIFIED.,.F.,.F.,.F.,(2,2),(2,2),(0.00000000000000000E0,1.00000000000000000E0),(0.00000000000000000E0,1.00000000000000000E0),.UNSPECIFIED.);
#47=CARTESIAN_POINT('',(5.00000000000000000E0,0.00000000000000000E0,0.00000000000000000E0));
#48=CARTESIAN_POINT('',(5.00000000000000000E0,3.00000000000000000E0,0.00000000000000000E0));
#49=B_SPLINE_CURVE_WITH_KNOTS('',1,(#47,#48),.UNSPECIFIED.,.F.,.F.,(2,2),(0.00000000000000000E0,1.00000000000000000E0),.UNSPECIFIED.);
#50=CARTESIAN_POINT('',(9.00000000000000000E0,3.00000000000000000E0,0.00000000000000000E0));
#51=CARTESIAN_POINT('',(5.00000000000000000E0,3.00000000000000000E0,0.00000000000000000E0));
#52=B_SPLINE_CURVE_WITH_KNOTS('',1,(#50,#51),.UNSPECIFIED.,.F.,.F.,(2,2),(0.00000000000000000E0,1.00000000000000000E0),.UNSPECIFIED.);
#53=CARTESIAN_POINT('',(9.00000000000000000E0,0.00000000000000000E0,0.00000000000000000E0));
#54=CARTESIAN_POINT('',(9.00000000000000000E0,3.00000000000000000E0,0.00000000000000000E0));
#55=B_SPLINE_CURVE_WITH_KNOTS('',1,(#53,#54),.UNSPECIFIED.,.F.,.F.,(2,2),(0.00000000000000000E0,1.00000000000000000E0),.UNSPECIFIED.);
#56=CARTESIAN_POINT('',(5.00000000000000000E0,0.00000000000000000E0,0.00000000000000000E0));
#57=CARTESIAN_POINT('',(9.00000000000000000E0,0.00000000000000000E0,0.00000000000000000E0));
#58=B_SPLINE_CURVE_WITH_KNOTS('',1,(#56,#57),.UNSPECIFIED.,.F.,.F.,(2,2),(0.00000000000000000E0,1.00000000000000000E0),.UNSPECIFIED.);
#59=CARTESIAN_POINT('',(5.00000000000000000E0,0.00000000000000000E0,4.00000000000000000E0));
#60=CARTESIAN_POINT('',(9.00000000000000000E0,0.00000000000000000E0,4.00000000000000000E0));
#61=B_SPLINE_CURVE_WITH_KNOTS('',1,(#59,#60),.UNSPECIFIED.,.F.,.F.,(2,2),(0.00000000000000000E0,1.00000000000000000E0),.UNSPECIFIED.);
#62=CARTESIAN_POINT('',(9.00000000000000000E0,0.00000000000000000E0,4.00000000000000000E0));
#63=CARTESIAN_POINT('',(9.00000000000000000E0,3.00000000000000000E0,4.00000000000000000E0));
#64=B_SPLINE_CURVE_WITH_KNOTS('',1,(#62,#63),.UNSPECIFIED.,.F.,.F.,(2,2),(0.00000000000000000E0,1.00000000000000000E0),.UNSPECIFIED.);
#65=CARTESIAN_POINT('',(9.00000000000000000E0,3.00000000000000000E0,4.00000000000000000E0));
#66=CARTESIAN_POINT('',(5.00000000000000000E0,3.00000000000000000E0,4.00000000000000000E0));
#67=B_SPLINE_CURVE_WITH_KNOTS('',1,(#65,#66),.UNSPECIFIED.,.F.,.F.,(2,2),(0.00000000000000000E0,1.00000000000000000E0),.UNSPECIFIED.);
#68=CARTESIAN_POINT('',(5.00000000000000000E0,0.00000000000000000E0,4.00000000000000000E0));
#69=CARTESIAN_POINT('',(5.00000000000000000E0,3.00000000000000000E0,4.00000000000000000E0));
#70=B_SPLINE_CURVE_WITH_KNOTS('',1,(#68,#69),.UNSPECIFIED.,.F.,.F.,(2,2),(0.00000000000000000E0,1.00000000000000000E0),.UNSPECIFIED.);
#71=CARTESIAN_POINT('',(9.00000000000000000E0,0.00000000000000000E0,0.00000000000000000E0));
#72=CARTESIAN_POINT('',(9.00000000000000000E0,0.00000000000000000E0,4.00000000000000000E0));
#73=B_SPLINE_CURVE_WITH_KNOTS('',1,(#71,#72),.UNSPECIFIED.,.F.,.F.,(2,2),(0.00000000000000000E0,1.00000000000000000E0),.UNSPECIFIED.);
#74=CARTESIAN_POINT('',(5.00000000000000000E0,0.00000000000000000E0,0.00000000000000000E0));
#75=CARTESIAN_POINT('',(5.00000000000000000E0,0.00000000000000000E0,4.00000000000000000E0));
#76=B_SPLINE_CURVE_WITH_KNOTS('',1,(#74,#75),.UNSPECIFIED.,.F.,.F.,(2,2),(0.00000000000000000E0,1.00000000000000000E0),.UNSPECIFIED.);
#77=CARTESIAN_POINT('',(9.00000000000000000E0,3.00000000000000000E0,0.00000000000000000E0));
#78=CARTESIAN_POINT('',(9.00000000000000000E0,3.00000000000000000E0,4.00000000000000000E0));
#79=B_SPLINE_CURVE_WITH_KNOTS('',1,(#77,#78),.UNSPECIFIED.,.F.,.F.,(2,2),(0.00000000000000000E0,1.00000000000000000E0),.UNSPECIFIED.);
#80=CARTESIAN_POINT('',(5.00000000000000000E0,3.00000000000000000E0,0.00000000000000000E0));
#81=CARTESIAN_POINT('',(5.00000000000000000E0,3.00000000000000000E0,4.00000000000000000E0));
#82=B_SPLINE_CURVE_WITH_KNOTS('',1,(#80,#81),.UNSPECIFIED.,.F.,.F.,(2,2),(0.00000000000000000E0,1.00000000000000000E0),.UNSPECIFIED.);
#83=(GEOMETRIC_REPRESENTATION_CONTEXT(2)REPRESENTATION_CONTEXT('','2D'));
#84=CARTESIAN_POINT('',(0.00000000000000000E0,0.00000000000000000E0));
#85=CARTESIAN_POINT('',(1.00000000000000000E0,0.00000000000000000E0));
#86=B_SPLINE_CURVE_WITH_KNOTS('',1,(#84,#85),.UNSPECIFIED.,.F.,.F.,(2,2),(0.00000000000000000E0,1.00000000000000000E0),.UNSPECIFIED.);
#87=DEFINITIONAL_REPRESENTATION('',(#86),#83);
#88=PCURVE('',#21,#87);
#89=CARTESIAN_POINT('',(1.00000000000000000E0,0.00000000000000000E0));
#90=CARTESIAN_POINT('',(1.00000000000000000E0,1.00000000000000000E0));
#91=B_SPLINE_CURVE_WITH_KNOTS('',1,(#89,#90),.UNSPECIFIED.,.F.,.F.,(2,2),(0.00000000000000000E0,1.00000000000000000E0),.UNSPECIFIED.);
#92=DEFINITIONAL_REPRESENTATION('',(#91),#83);
#93=PCURVE('',#21,#92);
#94=CARTESIAN_POINT('',(1.00000000000000000E0,1.00000000000000000E0));
#95=CARTESIAN_POINT('',(0.00000000000000000E0,1.00000000000000000E0));
#96=B_SPLINE_CURVE_WITH_KNOTS('',1,(#94,#95),.UNSPECIFIED.,.F.,.F.,(2,2),(0.00000000000000000E0,1.00000000000000000E0),.UNSPECIFIED.);
#97=DEFINITIONAL_REPRESENTATION('',(#96),#83);
#98=PCURVE('',#21,#97);
#99=CARTESIAN_POINT('',(0.00000000000000000E0,1.00000000000000000E0));
#100=CARTESIAN_POINT('',(0.00000000000000000E0,0.00000000000000000E0));
#101=B_SPLINE_CURVE_WITH_KNOTS('',1,(#99,#100),.UNSPECIFIED.,.F.,.F.,(2,2),(0.00000000000000000E0,1.00000000000000000E0),.UNSPECIFIED.);
#102=DEFINITIONAL_REPRESENTATION('',(#101),#83);
#103=PCURVE('',#21,#102);
#104=CARTESIAN_POINT('',(0.00000000000000000E0,0.00000000000000000E0));
#105=CARTESIAN_POINT('',(1.00000000000000000E0,0.00000000000000000E0));
#106=B_SPLINE_CURVE_WITH_KNOTS('',1,(#104,#105),.UNSPECIFIED.,.F.,.F.,(2,2),(0.00000000000000000E0,1.00000000000000000E0),.UNSPECIFIED.);
#107=DEFINITIONAL_REPRESENTATION('',(#106),#83);
#108=PCURVE('',#26,#107);
#109=CARTESIAN_POINT('',(1.00000000000000000E0,0.00000000000000000E0));
#110=CARTESIAN_POINT('',(1.00000000000000000E0,1.00000000000000000E0));
#111=B_SPLINE_CURVE_WITH_KNOTS('',1,(#109,#110),.UNSPECIFIED.,.F.,.F.,(2,2),(0.00000000000000000E0,1.00000000000000000E0),.UNSPECIFIED.);
#112=DEFINITIONAL_REPRESENTATION('',(#111),#83);
#113=PCURVE('',#26,#112);
#114=CARTESIAN_POINT('',(1.00000000000000000E0,1.00000000000000000E0));
#115=CARTESIAN_POINT('',(0.00000000000000000E0,1.00000000000000000E0));
#116=B_SPLINE_CURVE_WITH_KNOTS('',1,(#114,#115),.UNSPECIFIED.,.F.,.F.,(2,2),(0.00000000000000000E0,1.00000000000000000E0),.UNSPECIFIED.);
#117=DEFINITIONAL_REPRESENTATION('',(#116),#83);
#118=PCURVE('',#26,#117);
#119=CARTESIAN_POINT('',(0.00000000000000000E0,1.00000000000000000E0));
#120=CARTESIAN_POINT('',(0.00000000000000000E0,0.00000000000000000E0));
#121=B_SPLINE_CURVE_WITH_KNOTS('',1,(#119,#120),.UNSPECIFIED.,.F.,.F.,(2,2),(0.00000000000000000E0,1.00000000000000000E0),.UNSPECIFIED.);
#122=DEFINITIONAL_REPRESENTATION('',(#121),#83);
#123=PCURVE('',#26,#122);
#124=CARTESIAN_POINT('',(0.00000000000000000E0,0.00000000000000000E0));
#125=CARTESIAN_POINT('',(1.00000000000000000E0,0.00000000000000000E0));
#126=B_SPLINE_CURVE_WITH_KNOTS('',1,(#124,#125),.UNSPECIFIED.,.F.,.F.,(2,2),(0.00000000000000000E0,1.00000000000000000E0),.UNSPECIFIED.);
#127=DEFINITIONAL_REPRESENTATION('',(#126),#83);
#128=PCURVE('',#31,#127);
#129=CARTESIAN_POINT('',(1.00000000000000000E0,0.00000000000000000E0));
#130=CARTESIAN_POINT('',(1.00000000000000000E0,1.00000000000000000E0));
#131=B_SPLINE_CURVE_WITH_KNOTS('',1,(#129,#130),.UNSPECIFIED.,.F.,.F.,(2,2),(0.00000000000000000E0,1.00000000000000000E0),.UNSPECIFIED.);
#132=DEFINITIONAL_REPRESENTATION('',(#131),#83);
#133=PCURVE('',#31,#132);
#134=CARTESIAN_POINT('',(1.00000000000000000E0,1.00000000000000000E0));
#135=CARTESIAN_POINT('',(0.00000000000000000E0,1.00000000000000000E0));
#136=B_SPLINE_CURVE_WITH_KNOTS('',1,(#134,#135),.UNSPECIFIED.,.F.,.F.,(2,2),(0.00000000000000000E0,1.00000000000000000E0),.UNSPECIFIED.);
#137=DEFINITIONAL_REPRESENTATION('',(#136),#83);
#138=PCURVE('',#31,#137);
#139=CARTESIAN_POINT('',(0.00000000000000000E0,1.00000000000000000E0));
#140=CARTESIAN_POINT('',(0.00000000000000000E0,0.00000000000000000E0));
#141=B_SPLINE_CURVE_WITH_KNOTS('',1,(#139,#140),.UNSPECIFIED.,.F.,.F.,(2,2),(0.00000000000000000E0,1.00000000000000000E0),.UNSPECIFIED.);
#142=DEFINITIONAL_REPRESENTATION('',(#141),#83);
#143=PCURVE('',#31,#142);
#144=CARTESIAN_POINT('',(0.00000000000000000E0,0.00000000000000000E0));
#145=CARTESIAN_POINT('',(1.00000000000000000E0,0.00000000000000000E0));
#146=B_SPLINE_CURVE_WITH_KNOTS('',1,(#144,#145),.UNSPECIFIED.,.F.,.F.,(2,2),(0.00000000000000000E0,1.00000000000000000E0),.UNSPECIFIED.);
#147=DEFINITIONAL_REPRESENTATION('',(#146),#83);
#148=PCURVE('',#36,#147);
#149=CARTESIAN_POINT('',(1.00000000000000000E0,0.00000000000000000E0));
#150=CARTESIAN_POINT('',(1.00000000000000000E0,1.00000000000000000E0));
#151=B_SPLINE_CURVE_WITH_KNOTS('',1,(#149,#150),.UNSPECIFIED.,.F.,.F.,(2,2),(0.00000000000000000E0,1.00000000000000000E0),.UNSPECIFIED.);
#152=DEFINITIONAL_REPRESENTATION('',(#151),#83);
#153=PCURVE('',#36,#152);
#154=CARTESIAN_POINT('',(1.00000000000000000E0,1.00000000000000000E0));
#155=CARTESIAN_POINT('',(0.00000000000000000E0,1.00000000000000000E0));
#156=B_SPLINE_CURVE_WITH_KNOTS('',1,(#154,#155),.UNSPECIFIED.,.F.,.F.,(2,2),(0.00000000000000000E0,1.00000000000000000E0),.UNSPECIFIED.);
#157=DEFINITIONAL_REPRESENTATION('',(#156),#83);
#158=PCURVE('',#36,#157);
#159=CARTESIAN_POINT('',(0.00000000000000000E0,1.00000000000000000E0));
#160=CARTESIAN_POINT('',(0.00000000000000000E0,0.00000000000000000E0));
#161=B_SPLINE_CURVE_WITH_KNOTS('',1,(#159,#160),.UNSPECIFIED.,.F.,.F.,(2,2),(0.00000000000000000E0,1.00000000000000000E0),.UNSPECIFIED.);
#162=DEFINITIONAL_REPRESENTATION('',(#161),#83);
#163=PCURVE('',#36,#162);
#164=CARTESIAN_POINT('',(0.00000000000000000E0,0.00000000000000000E0));
#165=CARTESIAN_POINT('',(1.00000000000000000E0,0.00000000000000000E0));
#166=B_SPLINE_CURVE_WITH_KNOTS('',1,(#164,#165),.UNSPECIFIED.,.F.,.F.,(2,2),(0.00000000000000000E0,1.00000000000000000E0),.UNSPECIFIED.);
#167=DEFINITIONAL_REPRESENTATION('',(#166),#83);
#168=PCURVE('',#41,#167);
#169=CARTESIAN_POINT('',(1.00000000000000000E0,0.00000000000000000E0));
#170=CARTESIAN_POINT('',(1.00000000000000000E0,1.00000000000000000E0));
#171=B_SPLINE_CURVE_WITH_KNOTS('',1,(#169,#170),.UNSPECIFIED.,.F.,.F.,(2,2),(0.00000000000000000E0,1.00000000000000000E0),.UNSPECIFIED.);
#172=DEFINITIONAL_REPRESENTATION('',(#171),#83);
#173=PCURVE('',#41,#172);
#174=CARTESIAN_POINT('',(1.00000000000000000E0,1.00000000000000000E0));
#175=CARTESIAN_POINT('',(0.00000000000000000E0,1.00000000000000000E0));
#176=B_SPLINE_CURVE_WITH_KNOTS('',1,(#174,#175),.UNSPECIFIED.,.F.,.F.,(2,2),(0.00000000000000000E0,1.00000000000000000E0),.UNSPECIFIED.);
#177=DEFINITIONAL_REPRESENTATION('',(#176),#83);
#178=PCURVE('',#41,#177);
#179=CARTESIAN_POINT('',(0.00000000000000000E0,1.00000000000000000E0));
#180=CARTESIAN_POINT('',(0.00000000000000000E0,0.00000000000000000E0));
#181=B_SPLINE_CURVE_WITH_KNOTS('',1,(#179,#180),.UNSPECIFIED.,.F.,.F.,(2,2),(0.00000000000000000E0,1.00000000000000000E0),.UNSPECIFIED.);
#182=DEFINITIONAL_REPRESENTATION('',(#181),#83);
#183=PCURVE('',#41,#182);
#184=CARTESIAN_POINT('',(0.00000000000000000E0,0.00000000000000000E0));
#185=CARTESIAN_POINT('',(1.00000000000000000E0,0.00000000000000000E0));
#186=B_SPLINE_CURVE_WITH_KNOTS('',1,(#184,#185),.UNSPECIFIED.,.F.,.F.,(2,2),(0.00000000000000000E0,1.00000000000000000E0),.UNSPECIFIED.);
#187=DEFINITIONAL_REPRESENTATION('',(#186),#83);
#188=PCURVE('',#46,#187);
#189=CARTESIAN_POINT('',(1.00000000000000000E0,0.00000000000000000E0));
#190=CARTESIAN_POINT('',(1.00000000000000000E0,1.00000000000000000E0));
#191=B_SPLINE_CURVE_WITH_KNOTS('',1,(#189,#190),.UNSPECIFIED.,.F.,.F.,(2,2),(0.00000000000000000E0,1.00000000000000000E0),.UNSPECIFIED.);
#192=DEFINITIONAL_REPRESENTATION('',(#191),#83);
#193=PCURVE('',#46,#192);
#194=CARTESIAN_POINT('',(1.00000000000000000E0,1.00000000000000000E0));
#195=CARTESIAN_POINT('',(0.00000000000000000E0,1.00000000000000000E0));
#196=B_SPLINE_CURVE_WITH_KNOTS('',1,(#194,#195),.UNSPECIFIED.,.F.,.F.,(2,2),(0.00000000000000000E0,1.00000000000000000E0),.UNSPECIFIED.);
#197=DEFINITIONAL_REPRESENTATION('',(#196),#83);
#198=PCURVE('',#46,#197);
#199=CARTESIAN_POINT('',(0.00000000000000000E0,1.00000000000000000E0));
#200=CARTESIAN_POINT('',(0.00000000000000000E0,0.00000000000000000E0));
#201=B_SPLINE_CURVE_WITH_KNOTS('',1,(#199,#200),.UNSPECIFIED.,.F.,.F.,(2,2),(0.00000000000000000E0,1.00000000000000000E0),.UNSPECIFIED.);
#202=DEFINITIONAL_REPRESENTATION('',(#201),#83);
#203=PCURVE('',#46,#202);
#204=SURFACE_CURVE('',#49,(#88,#188),.PCURVE_S1.);
#205=EDGE_CURVE('OSCAD_TOPO/3|edge|e:1de26457d8a47e6f37d233a3d6756a53|cc23cd24510ce2e53c0a0c355888ac9fe8b7f8d249697188d82081fcd683a1e2',#2,#8,#204,.T.);
#206=SURFACE_CURVE('',#52,(#93,#168),.PCURVE_S1.);
#207=EDGE_CURVE('OSCAD_TOPO/3|edge|e:a4f7badedbed9b5674eff0143ec73e92|2f9d8a84f16ff7ee24739fc4e4c99711a9f268f450d12f08378b773c718da197',#6,#8,#206,.T.);
#208=SURFACE_CURVE('',#55,(#98,#148),.PCURVE_S1.);
#209=EDGE_CURVE('OSCAD_TOPO/3|edge|e:657ecfecac266de3ad9c1c86cfaec8c9|7ef0ea4db0d75c8c4276d6975889d7cdee66ab74c8616e7b0bcfd6f249e0a97b',#4,#6,#208,.T.);
#210=SURFACE_CURVE('',#58,(#103,#128),.PCURVE_S1.);
#211=EDGE_CURVE('OSCAD_TOPO/3|edge|e:92ba71e8a196f004b4c1ffc55ac484d5|ac9fa9901e090fb9b1e7cfc3fa6d4479c5b8ea141bb7e2e1b52e4d546d4b9a38',#2,#4,#210,.T.);
#212=SURFACE_CURVE('',#61,(#108,#138),.PCURVE_S1.);
#213=EDGE_CURVE('OSCAD_TOPO/3|edge|e:ec3fb5eb6e8a9555a293220d844e5898|be391914915f347a3c3f852f85b8417b65ce18e1a47a63f7ec375af260ce4b42',#10,#12,#212,.T.);
#214=SURFACE_CURVE('',#64,(#113,#158),.PCURVE_S1.);
#215=EDGE_CURVE('OSCAD_TOPO/3|edge|e:1d8feadb47c85079154de17822b6a279|4b24bb603643df6facd1c0dd99e3b266a099633197cfba5c943c464fe7687460',#12,#14,#214,.T.);
#216=SURFACE_CURVE('',#67,(#118,#178),.PCURVE_S1.);
#217=EDGE_CURVE('OSCAD_TOPO/3|edge|e:3bf4f2e286e7b2bbdfcadec26f20403f|df82ffb611394105d7ec52119cf102bae325ac2051d106817da42ecd965f77c5',#14,#16,#216,.T.);
#218=SURFACE_CURVE('',#70,(#123,#198),.PCURVE_S1.);
#219=EDGE_CURVE('OSCAD_TOPO/3|edge|e:f6e01bf9b97418dbb0641d53508a7c39|3364627a6186adbb34a5637b198298f4d16b62260a14d7f78d6a1d518692c35c',#10,#16,#218,.T.);
#220=SURFACE_CURVE('',#73,(#133,#163),.PCURVE_S1.);
#221=EDGE_CURVE('OSCAD_TOPO/3|edge|e:6f3da9e55990d11c46f434723a0da716|14b23ab8fab3d1e5fadde1cb724452e596059767dd9f3c61d95c3c0a63205249',#4,#12,#220,.T.);
#222=SURFACE_CURVE('',#76,(#143,#193),.PCURVE_S1.);
#223=EDGE_CURVE('OSCAD_TOPO/3|edge|e:08fef0785958b3ff2573c79624025f86|bba662ca2bd1f6c01d14b562691193feda17111e1a856a2824094d49a43dcb86',#2,#10,#222,.T.);
#224=SURFACE_CURVE('',#79,(#153,#183),.PCURVE_S1.);
#225=EDGE_CURVE('OSCAD_TOPO/3|edge|e:86d2750b3ee97a11bd99c5e434bc832a|ced95c5abe372568bc5dbe62d5685667ec151e0f82b114d15ab32ad88a331dc0',#6,#14,#224,.T.);
#226=SURFACE_CURVE('',#82,(#173,#203),.PCURVE_S1.);
#227=EDGE_CURVE('OSCAD_TOPO/3|edge|e:4db14007bdf5f2ad5de5645e46b6372b|d93c6ec122d1ac825ae15b0175a9d738236a103e9ffc7d878164bfbf33202c03',#8,#16,#226,.T.);
#228=ORIENTED_EDGE('',*,*,#205,.T.);
#229=ORIENTED_EDGE('',*,*,#207,.F.);
#230=ORIENTED_EDGE('',*,*,#209,.F.);
#231=ORIENTED_EDGE('',*,*,#211,.F.);
#232=EDGE_LOOP('OSCAD_TOPO/3|loop|l:bc98c01527f10592e350b147292ba7ff|f5d882d1b45392f0e0049dce19763d78e520175c056b7c19562877359b6136e9',(#228,#229,#230,#231));
#233=ORIENTED_EDGE('',*,*,#213,.T.);
#234=ORIENTED_EDGE('',*,*,#215,.T.);
#235=ORIENTED_EDGE('',*,*,#217,.T.);
#236=ORIENTED_EDGE('',*,*,#219,.F.);
#237=EDGE_LOOP('OSCAD_TOPO/3|loop|l:f4f38cf3e4deffa059c22605beb62393|9143a3bd50353c8b325f4805b838d3e820d5c617cb1fbe352b15dc825cb14ba0',(#233,#234,#235,#236));
#238=ORIENTED_EDGE('',*,*,#211,.T.);
#239=ORIENTED_EDGE('',*,*,#221,.T.);
#240=ORIENTED_EDGE('',*,*,#213,.F.);
#241=ORIENTED_EDGE('',*,*,#223,.F.);
#242=EDGE_LOOP('OSCAD_TOPO/3|loop|l:c77f9eb002720d6bcf4f4056f1ceed1c|95bb102b23b021ec8730d57228b8929f7de4c084ff3bb0bde08b290ae663f8be',(#238,#239,#240,#241));
#243=ORIENTED_EDGE('',*,*,#209,.T.);
#244=ORIENTED_EDGE('',*,*,#225,.T.);
#245=ORIENTED_EDGE('',*,*,#215,.F.);
#246=ORIENTED_EDGE('',*,*,#221,.F.);
#247=EDGE_LOOP('OSCAD_TOPO/3|loop|l:21de6d2e7ad2f0aaa0bf0f2f941e03ef|87c206bef82f8446dfd693bb1100ea5f441f06c62138b99de0da1611b2e5648d',(#243,#244,#245,#246));
#248=ORIENTED_EDGE('',*,*,#207,.T.);
#249=ORIENTED_EDGE('',*,*,#227,.T.);
#250=ORIENTED_EDGE('',*,*,#217,.F.);
#251=ORIENTED_EDGE('',*,*,#225,.F.);
#252=EDGE_LOOP('OSCAD_TOPO/3|loop|l:f15d2d6975ce13538ea750e0ac6d431e|0c36119b5ccb0f5646847b6550f8c8222280a14ec38cd27f28332d60713b9dfe',(#248,#249,#250,#251));
#253=ORIENTED_EDGE('',*,*,#205,.F.);
#254=ORIENTED_EDGE('',*,*,#223,.T.);
#255=ORIENTED_EDGE('',*,*,#219,.T.);
#256=ORIENTED_EDGE('',*,*,#227,.F.);
#257=EDGE_LOOP('OSCAD_TOPO/3|loop|l:56f5feb679fde562da11f9e43f3cbff5|8118320b068e3f8d39176b71bd1d5a46e9d7cbe434af89e6e8d10e1a8cbe778e',(#253,#254,#255,#256));
#258=FACE_OUTER_BOUND('',#232,.T.);
#259=ADVANCED_FACE('OSCAD_TOPO/3|face|f:f053bfa3db65533f5890eb656b17fce8|c3b228252611393c0f16cf791ad61e7b5d9ee61036672a738f3df159bc8589c5',(#258),#21,.T.);
#260=FACE_OUTER_BOUND('',#237,.T.);
#261=ADVANCED_FACE('OSCAD_TOPO/3|face|f:e63ef27c2b488026df9e2b82f82158eb|d44559827e65d532178291fc77c57f20ff110b4ac1aa5ea5be992eba983ccd4d',(#260),#26,.T.);
#262=FACE_OUTER_BOUND('',#242,.T.);
#263=ADVANCED_FACE('OSCAD_TOPO/3|face|f:e78b50979f15baad24e4e9f54dc23c29|c88e7f3f9ff8e8ad8f51ff9a657953d08118af7d23b37d04673f4e5bdeb686bc',(#262),#31,.T.);
#264=FACE_OUTER_BOUND('',#247,.T.);
#265=ADVANCED_FACE('OSCAD_TOPO/3|face|f:c2588bcf1a8631a74a0d34fde21741de|c7cc9604e90153c53cbe70625e06f7ce94e10e43ffad097c6e687b876884a5a8',(#264),#36,.T.);
#266=FACE_OUTER_BOUND('',#252,.T.);
#267=ADVANCED_FACE('OSCAD_TOPO/3|face|f:be1f2c12387071235b1b0cc3490c9a45|feca305a4c1fc608d9aa317310aa5901bd42af6d8883c7af18c5cf621d4c8caf',(#266),#41,.T.);
#268=FACE_OUTER_BOUND('',#257,.T.);
#269=ADVANCED_FACE('OSCAD_TOPO/3|face|f:6c5bc30f2df2ad9bdf527dce1297400b|565bb1a66ca35497b355a434771cdb5171ecf91ddba68a8d338191b1ca6741fb',(#268),#46,.T.);
#270=CLOSED_SHELL('OSCAD_TOPO/3|shell|s:0752e07c02b14e3a2dec65a29e593aa3|a77d4806ffabbc84d5128ea74ea13af08653abf555e290047e4f08eed5483071',(#259,#261,#263,#265,#267,#269));
#271=MANIFOLD_SOLID_BREP('OSCAD_TOPO/3|body|b:9fa5159bab72be9bce758973e4027187|2b38a724122a3c128167ccf7e6c9b44c72cc95de947755101fac55c73041f679',#270);
#272=(LENGTH_UNIT()NAMED_UNIT(*)SI_UNIT(.MILLI.,.METRE.));
#273=UNCERTAINTY_MEASURE_WITH_UNIT(LENGTH_MEASURE(9.99999999999999955E-8),#272,'distance_accuracy_value','');
#274=(GEOMETRIC_REPRESENTATION_CONTEXT(3)GLOBAL_UNCERTAINTY_ASSIGNED_CONTEXT((#273))GLOBAL_UNIT_ASSIGNED_CONTEXT((#272))REPRESENTATION_CONTEXT('','3D'));
#275=ADVANCED_BREP_SHAPE_REPRESENTATION('',(#271),#274);
#276=APPLICATION_CONTEXT('managed model based 3d engineering');
#277=PRODUCT_CONTEXT('',#276,'mechanical');
#278=PRODUCT('model','model','',(#277));
#279=PRODUCT_DEFINITION_FORMATION('1','',#278);
#280=PRODUCT_DEFINITION_CONTEXT('part definition',#276,'design');
#281=PRODUCT_DEFINITION('design','',#279,#280);
#282=PRODUCT_DEFINITION_SHAPE('','',#281);
#283=SHAPE_DEFINITION_REPRESENTATION(#282,#275);
ENDSEC;
END-ISO-10303-21;
