ISO-10303-21;
HEADER;
FILE_DESCRIPTION(('OpenSCAD Viewer retained AP242 B-rep'),'2;1');
FILE_NAME('model.step','',(''),(''),'OpenSCAD Viewer','OpenSCAD Viewer','');
FILE_SCHEMA(('AP242_MANAGED_MODEL_BASED_3D_ENGINEERING_MIM_LF'));
ENDSEC;
DATA;
#1=CARTESIAN_POINT('',(2.00000000000000000E1,0.00000000000000000E0,0.00000000000000000E0));
#2=VERTEX_POINT('OSCAD_TOPO/3|vertex|v:eeafa1f193a00e53c2ad070631add22a|2f57866bfcf1365e4ee0c0c7b006e7d171e9cf8ecb8e6dcbbbe94f72a62d4823',#1);
#3=CARTESIAN_POINT('',(2.00000000000000000E1,0.00000000000000000E0,6.00000000000000000E0));
#4=VERTEX_POINT('OSCAD_TOPO/3|vertex|v:d3067954d870549101dae47bb73f791e|9584fa4324d34572467aafa8468b6a764f8775866bdfc447617c8e17e3b1c982',#3);
#5=CARTESIAN_POINT('',(0.00000000000000000E0,2.00000000000000000E1,0.00000000000000000E0));
#6=VERTEX_POINT('OSCAD_TOPO/3|vertex|v:3d9774850fd962e522513344b828956e|d555225819ec426e319e1bbea33fca8648c37dadb3f764733e3f7e4db4e4465e',#5);
#7=CARTESIAN_POINT('',(0.00000000000000000E0,2.00000000000000000E1,6.00000000000000000E0));
#8=VERTEX_POINT('OSCAD_TOPO/3|vertex|v:3bc1fc3243b4aac31d133d98b0b4fbae|f659be6e93cabe6b6525e44ff3b444f62c2e3c499f4b4e8db027a2218f187124',#7);
#9=CARTESIAN_POINT('',(-2.00000000000000000E1,0.00000000000000000E0,0.00000000000000000E0));
#10=VERTEX_POINT('OSCAD_TOPO/3|vertex|v:8a63d87e0063351fc3a877852e3c4190|efe4d388619020bc70316871f1ccf610b0eec5383cc7ea53bcb3087502999d03',#9);
#11=CARTESIAN_POINT('',(-2.00000000000000000E1,0.00000000000000000E0,6.00000000000000000E0));
#12=VERTEX_POINT('OSCAD_TOPO/3|vertex|v:9a110acbdcd910a1b51d07a3d13c4eee|694d5a5575facfbeefd3598d7765b47af408581d9ba0ed941fbef74dcdd3306d',#11);
#13=CARTESIAN_POINT('',(0.00000000000000000E0,-2.00000000000000000E1,0.00000000000000000E0));
#14=VERTEX_POINT('OSCAD_TOPO/3|vertex|v:2e93c68df56bb8872ea1c7f49a6295d0|137be0bdca1201c4865f995fa30858398cd44d03ef9d3c7ea89c2889a619c120',#13);
#15=CARTESIAN_POINT('',(0.00000000000000000E0,-2.00000000000000000E1,6.00000000000000000E0));
#16=VERTEX_POINT('OSCAD_TOPO/3|vertex|v:84b3caecd36f28456fa30784e9ee28ff|ed1dddfef36c4d08b45a60dc55ab834a06ddbf7c0ab18352a8369c11b27fe329',#15);
#17=CARTESIAN_POINT('',(5.00000000000000000E0,0.00000000000000000E0,0.00000000000000000E0));
#18=VERTEX_POINT('OSCAD_TOPO/3|vertex|v:ca0e371c0e65f05b5b78b9b603713aeb|4172a2f068046afc72ac3e751c4450c5c4a1bdf6a599d0c8bf438537a483418a',#17);
#19=CARTESIAN_POINT('',(5.00000000000000000E0,0.00000000000000000E0,6.00000000000000000E0));
#20=VERTEX_POINT('OSCAD_TOPO/3|vertex|v:09b078da8d7b0f4865e5f28ec4a88023|c6d8f4335f6b625be585444ea5463ec83d64cd6aec0d58ee3ea72c944e928404',#19);
#21=CARTESIAN_POINT('',(0.00000000000000000E0,-5.00000000000000000E0,0.00000000000000000E0));
#22=VERTEX_POINT('OSCAD_TOPO/3|vertex|v:66354ba7ccd501c81a60daf738ea5514|e647d3a2117c85a5d9755975f2710bca43a3786e142f05e7b1540bbf5f781de4',#21);
#23=CARTESIAN_POINT('',(0.00000000000000000E0,-5.00000000000000000E0,6.00000000000000000E0));
#24=VERTEX_POINT('OSCAD_TOPO/3|vertex|v:eeeeacfb5e7c735b5b1a49455232d113|ea9f79519d3d8ede233a6428cf8d888c3671becb0cf6ff87dc93fae5474b22ff',#23);
#25=CARTESIAN_POINT('',(-5.00000000000000000E0,0.00000000000000000E0,0.00000000000000000E0));
#26=VERTEX_POINT('OSCAD_TOPO/3|vertex|v:1fc9e0968879ec46488bdee4304e51d6|fd3c8f3c1420774493df7905c05a787915c3bf03cdd9490ed021f657d79576d3',#25);
#27=CARTESIAN_POINT('',(-5.00000000000000000E0,0.00000000000000000E0,6.00000000000000000E0));
#28=VERTEX_POINT('OSCAD_TOPO/3|vertex|v:50fb88e6afc1b68e641cd895da922074|9bb30a1b1c3f30c5c16efe2a2406d64ec0af07de0db048106084ca12e943fb39',#27);
#29=CARTESIAN_POINT('',(0.00000000000000000E0,5.00000000000000000E0,0.00000000000000000E0));
#30=VERTEX_POINT('OSCAD_TOPO/3|vertex|v:52a7adc63afa2c0e5f005639cb9e2d10|51281efd40942a5e074bebb1dda24105797e2c87a468cfdbc9892c14012dce42',#29);
#31=CARTESIAN_POINT('',(0.00000000000000000E0,5.00000000000000000E0,6.00000000000000000E0));
#32=VERTEX_POINT('OSCAD_TOPO/3|vertex|v:20d12629482d8ebda5e6ac95715b32a2|b198cb21a740f68fa7ff52f151a8619159de83be9e2cce9400122dd1732da42f',#31);
#33=CARTESIAN_POINT('',(2.00000000000000000E1,0.00000000000000000E0,0.00000000000000000E0));
#34=CARTESIAN_POINT('',(2.00000000000000000E1,0.00000000000000000E0,6.00000000000000000E0));
#35=CARTESIAN_POINT('',(2.00000000000000000E1,2.00000000000000000E1,0.00000000000000000E0));
#36=CARTESIAN_POINT('',(2.00000000000000000E1,2.00000000000000000E1,6.00000000000000000E0));
#37=CARTESIAN_POINT('',(0.00000000000000000E0,2.00000000000000000E1,0.00000000000000000E0));
#38=CARTESIAN_POINT('',(0.00000000000000000E0,2.00000000000000000E1,6.00000000000000000E0));
#39=CARTESIAN_POINT('',(-2.00000000000000000E1,2.00000000000000000E1,0.00000000000000000E0));
#40=CARTESIAN_POINT('',(-2.00000000000000000E1,2.00000000000000000E1,6.00000000000000000E0));
#41=CARTESIAN_POINT('',(-2.00000000000000000E1,0.00000000000000000E0,0.00000000000000000E0));
#42=CARTESIAN_POINT('',(-2.00000000000000000E1,0.00000000000000000E0,6.00000000000000000E0));
#43=CARTESIAN_POINT('',(-2.00000000000000000E1,-2.00000000000000000E1,0.00000000000000000E0));
#44=CARTESIAN_POINT('',(-2.00000000000000000E1,-2.00000000000000000E1,6.00000000000000000E0));
#45=CARTESIAN_POINT('',(0.00000000000000000E0,-2.00000000000000000E1,0.00000000000000000E0));
#46=CARTESIAN_POINT('',(0.00000000000000000E0,-2.00000000000000000E1,6.00000000000000000E0));
#47=CARTESIAN_POINT('',(2.00000000000000000E1,-2.00000000000000000E1,0.00000000000000000E0));
#48=CARTESIAN_POINT('',(2.00000000000000000E1,-2.00000000000000000E1,6.00000000000000000E0));
#49=CARTESIAN_POINT('',(2.00000000000000000E1,0.00000000000000000E0,0.00000000000000000E0));
#50=CARTESIAN_POINT('',(2.00000000000000000E1,0.00000000000000000E0,6.00000000000000000E0));
#51=(BOUNDED_SURFACE()B_SPLINE_SURFACE(2,1,((#33,#34),(#35,#36),(#37,#38),(#39,#40),(#41,#42),(#43,#44),(#45,#46),(#47,#48),(#49,#50)),.UNSPECIFIED.,.F.,.F.,.F.)B_SPLINE_SURFACE_WITH_KNOTS((3,2,2,2,3),(2,2),(0.00000000000000000E0,1.00000000000000000E0,2.00000000000000000E0,3.00000000000000000E0,4.00000000000000000E0),(0.00000000000000000E0,1.00000000000000000E0),.UNSPECIFIED.)GEOMETRIC_REPRESENTATION_ITEM()RATIONAL_B_SPLINE_SURFACE(((1.00000000000000000E0,1.00000000000000000E0),(7.07106781186547573E-1,7.07106781186547573E-1),(1.00000000000000000E0,1.00000000000000000E0),(7.07106781186547573E-1,7.07106781186547573E-1),(1.00000000000000000E0,1.00000000000000000E0),(7.07106781186547573E-1,7.07106781186547573E-1),(1.00000000000000000E0,1.00000000000000000E0),(7.07106781186547573E-1,7.07106781186547573E-1),(1.00000000000000000E0,1.00000000000000000E0)))REPRESENTATION_ITEM('')SURFACE());
#52=CARTESIAN_POINT('',(5.00000000000000000E0,0.00000000000000000E0,0.00000000000000000E0));
#53=CARTESIAN_POINT('',(5.00000000000000000E0,0.00000000000000000E0,6.00000000000000000E0));
#54=CARTESIAN_POINT('',(5.00000000000000000E0,-5.00000000000000000E0,0.00000000000000000E0));
#55=CARTESIAN_POINT('',(5.00000000000000000E0,-5.00000000000000000E0,6.00000000000000000E0));
#56=CARTESIAN_POINT('',(0.00000000000000000E0,-5.00000000000000000E0,0.00000000000000000E0));
#57=CARTESIAN_POINT('',(0.00000000000000000E0,-5.00000000000000000E0,6.00000000000000000E0));
#58=(BOUNDED_SURFACE()B_SPLINE_SURFACE(2,1,((#52,#53),(#54,#55),(#56,#57)),.UNSPECIFIED.,.F.,.F.,.F.)B_SPLINE_SURFACE_WITH_KNOTS((3,3),(2,2),(0.00000000000000000E0,1.00000000000000000E0),(0.00000000000000000E0,1.00000000000000000E0),.UNSPECIFIED.)GEOMETRIC_REPRESENTATION_ITEM()RATIONAL_B_SPLINE_SURFACE(((1.00000000000000000E0,1.00000000000000000E0),(7.07106781186547573E-1,7.07106781186547573E-1),(1.00000000000000000E0,1.00000000000000000E0)))REPRESENTATION_ITEM('')SURFACE());
#59=CARTESIAN_POINT('',(0.00000000000000000E0,-5.00000000000000000E0,0.00000000000000000E0));
#60=CARTESIAN_POINT('',(0.00000000000000000E0,-5.00000000000000000E0,6.00000000000000000E0));
#61=CARTESIAN_POINT('',(-5.00000000000000000E0,-5.00000000000000000E0,0.00000000000000000E0));
#62=CARTESIAN_POINT('',(-5.00000000000000000E0,-5.00000000000000000E0,6.00000000000000000E0));
#63=CARTESIAN_POINT('',(-5.00000000000000000E0,0.00000000000000000E0,0.00000000000000000E0));
#64=CARTESIAN_POINT('',(-5.00000000000000000E0,0.00000000000000000E0,6.00000000000000000E0));
#65=(BOUNDED_SURFACE()B_SPLINE_SURFACE(2,1,((#59,#60),(#61,#62),(#63,#64)),.UNSPECIFIED.,.F.,.F.,.F.)B_SPLINE_SURFACE_WITH_KNOTS((3,3),(2,2),(0.00000000000000000E0,1.00000000000000000E0),(0.00000000000000000E0,1.00000000000000000E0),.UNSPECIFIED.)GEOMETRIC_REPRESENTATION_ITEM()RATIONAL_B_SPLINE_SURFACE(((1.00000000000000000E0,1.00000000000000000E0),(7.07106781186547573E-1,7.07106781186547573E-1),(1.00000000000000000E0,1.00000000000000000E0)))REPRESENTATION_ITEM('')SURFACE());
#66=CARTESIAN_POINT('',(-5.00000000000000000E0,0.00000000000000000E0,0.00000000000000000E0));
#67=CARTESIAN_POINT('',(-5.00000000000000000E0,0.00000000000000000E0,6.00000000000000000E0));
#68=CARTESIAN_POINT('',(-5.00000000000000000E0,5.00000000000000000E0,0.00000000000000000E0));
#69=CARTESIAN_POINT('',(-5.00000000000000000E0,5.00000000000000000E0,6.00000000000000000E0));
#70=CARTESIAN_POINT('',(0.00000000000000000E0,5.00000000000000000E0,0.00000000000000000E0));
#71=CARTESIAN_POINT('',(0.00000000000000000E0,5.00000000000000000E0,6.00000000000000000E0));
#72=(BOUNDED_SURFACE()B_SPLINE_SURFACE(2,1,((#66,#67),(#68,#69),(#70,#71)),.UNSPECIFIED.,.F.,.F.,.F.)B_SPLINE_SURFACE_WITH_KNOTS((3,3),(2,2),(0.00000000000000000E0,1.00000000000000000E0),(0.00000000000000000E0,1.00000000000000000E0),.UNSPECIFIED.)GEOMETRIC_REPRESENTATION_ITEM()RATIONAL_B_SPLINE_SURFACE(((1.00000000000000000E0,1.00000000000000000E0),(7.07106781186547573E-1,7.07106781186547573E-1),(1.00000000000000000E0,1.00000000000000000E0)))REPRESENTATION_ITEM('')SURFACE());
#73=CARTESIAN_POINT('',(0.00000000000000000E0,5.00000000000000000E0,0.00000000000000000E0));
#74=CARTESIAN_POINT('',(0.00000000000000000E0,5.00000000000000000E0,6.00000000000000000E0));
#75=CARTESIAN_POINT('',(5.00000000000000000E0,5.00000000000000000E0,0.00000000000000000E0));
#76=CARTESIAN_POINT('',(5.00000000000000000E0,5.00000000000000000E0,6.00000000000000000E0));
#77=CARTESIAN_POINT('',(5.00000000000000000E0,0.00000000000000000E0,0.00000000000000000E0));
#78=CARTESIAN_POINT('',(5.00000000000000000E0,0.00000000000000000E0,6.00000000000000000E0));
#79=(BOUNDED_SURFACE()B_SPLINE_SURFACE(2,1,((#73,#74),(#75,#76),(#77,#78)),.UNSPECIFIED.,.F.,.F.,.F.)B_SPLINE_SURFACE_WITH_KNOTS((3,3),(2,2),(0.00000000000000000E0,1.00000000000000000E0),(0.00000000000000000E0,1.00000000000000000E0),.UNSPECIFIED.)GEOMETRIC_REPRESENTATION_ITEM()RATIONAL_B_SPLINE_SURFACE(((1.00000000000000000E0,1.00000000000000000E0),(7.07106781186547573E-1,7.07106781186547573E-1),(1.00000000000000000E0,1.00000000000000000E0)))REPRESENTATION_ITEM('')SURFACE());
#80=CARTESIAN_POINT('',(2.00000000000000000E1,-2.00000000000000000E1,0.00000000000000000E0));
#81=CARTESIAN_POINT('',(2.00000000000000000E1,2.00000000000000000E1,0.00000000000000000E0));
#82=CARTESIAN_POINT('',(-2.00000000000000000E1,-2.00000000000000000E1,0.00000000000000000E0));
#83=CARTESIAN_POINT('',(-2.00000000000000000E1,2.00000000000000000E1,0.00000000000000000E0));
#84=B_SPLINE_SURFACE_WITH_KNOTS('',1,1,((#80,#81),(#82,#83)),.UNSPECIFIED.,.F.,.F.,.F.,(2,2),(2,2),(0.00000000000000000E0,1.00000000000000000E0),(0.00000000000000000E0,1.00000000000000000E0),.UNSPECIFIED.);
#85=CARTESIAN_POINT('',(-2.00000000000000000E1,-2.00000000000000000E1,6.00000000000000000E0));
#86=CARTESIAN_POINT('',(-2.00000000000000000E1,2.00000000000000000E1,6.00000000000000000E0));
#87=CARTESIAN_POINT('',(2.00000000000000000E1,-2.00000000000000000E1,6.00000000000000000E0));
#88=CARTESIAN_POINT('',(2.00000000000000000E1,2.00000000000000000E1,6.00000000000000000E0));
#89=B_SPLINE_SURFACE_WITH_KNOTS('',1,1,((#85,#86),(#87,#88)),.UNSPECIFIED.,.F.,.F.,.F.,(2,2),(2,2),(0.00000000000000000E0,1.00000000000000000E0),(0.00000000000000000E0,1.00000000000000000E0),.UNSPECIFIED.);
#90=CARTESIAN_POINT('',(2.00000000000000000E1,0.00000000000000000E0,0.00000000000000000E0));
#91=CARTESIAN_POINT('',(2.00000000000000000E1,2.00000000000000000E1,0.00000000000000000E0));
#92=CARTESIAN_POINT('',(0.00000000000000000E0,2.00000000000000000E1,0.00000000000000000E0));
#93=(BOUNDED_CURVE()B_SPLINE_CURVE(2,(#90,#91,#92),.UNSPECIFIED.,.F.,.F.)B_SPLINE_CURVE_WITH_KNOTS((3,3),(0.00000000000000000E0,1.00000000000000000E0),.UNSPECIFIED.)CURVE()GEOMETRIC_REPRESENTATION_ITEM()RATIONAL_B_SPLINE_CURVE((1.00000000000000000E0,7.07106781186547573E-1,1.00000000000000000E0))REPRESENTATION_ITEM(''));
#94=CARTESIAN_POINT('',(2.00000000000000000E1,0.00000000000000000E0,6.00000000000000000E0));
#95=CARTESIAN_POINT('',(2.00000000000000000E1,2.00000000000000000E1,6.00000000000000000E0));
#96=CARTESIAN_POINT('',(0.00000000000000000E0,2.00000000000000000E1,6.00000000000000000E0));
#97=(BOUNDED_CURVE()B_SPLINE_CURVE(2,(#94,#95,#96),.UNSPECIFIED.,.F.,.F.)B_SPLINE_CURVE_WITH_KNOTS((3,3),(0.00000000000000000E0,1.00000000000000000E0),.UNSPECIFIED.)CURVE()GEOMETRIC_REPRESENTATION_ITEM()RATIONAL_B_SPLINE_CURVE((1.00000000000000000E0,7.07106781186547573E-1,1.00000000000000000E0))REPRESENTATION_ITEM(''));
#98=CARTESIAN_POINT('',(2.00000000000000000E1,0.00000000000000000E0,0.00000000000000000E0));
#99=CARTESIAN_POINT('',(2.00000000000000000E1,0.00000000000000000E0,6.00000000000000000E0));
#100=B_SPLINE_CURVE_WITH_KNOTS('',1,(#98,#99),.UNSPECIFIED.,.F.,.F.,(2,2),(0.00000000000000000E0,1.00000000000000000E0),.UNSPECIFIED.);
#101=CARTESIAN_POINT('',(0.00000000000000000E0,2.00000000000000000E1,0.00000000000000000E0));
#102=CARTESIAN_POINT('',(-2.00000000000000000E1,2.00000000000000000E1,0.00000000000000000E0));
#103=CARTESIAN_POINT('',(-2.00000000000000000E1,0.00000000000000000E0,0.00000000000000000E0));
#104=(BOUNDED_CURVE()B_SPLINE_CURVE(2,(#101,#102,#103),.UNSPECIFIED.,.F.,.F.)B_SPLINE_CURVE_WITH_KNOTS((3,3),(0.00000000000000000E0,1.00000000000000000E0),.UNSPECIFIED.)CURVE()GEOMETRIC_REPRESENTATION_ITEM()RATIONAL_B_SPLINE_CURVE((1.00000000000000000E0,7.07106781186547573E-1,1.00000000000000000E0))REPRESENTATION_ITEM(''));
#105=CARTESIAN_POINT('',(0.00000000000000000E0,2.00000000000000000E1,6.00000000000000000E0));
#106=CARTESIAN_POINT('',(-2.00000000000000000E1,2.00000000000000000E1,6.00000000000000000E0));
#107=CARTESIAN_POINT('',(-2.00000000000000000E1,0.00000000000000000E0,6.00000000000000000E0));
#108=(BOUNDED_CURVE()B_SPLINE_CURVE(2,(#105,#106,#107),.UNSPECIFIED.,.F.,.F.)B_SPLINE_CURVE_WITH_KNOTS((3,3),(0.00000000000000000E0,1.00000000000000000E0),.UNSPECIFIED.)CURVE()GEOMETRIC_REPRESENTATION_ITEM()RATIONAL_B_SPLINE_CURVE((1.00000000000000000E0,7.07106781186547573E-1,1.00000000000000000E0))REPRESENTATION_ITEM(''));
#109=CARTESIAN_POINT('',(0.00000000000000000E0,2.00000000000000000E1,0.00000000000000000E0));
#110=CARTESIAN_POINT('',(0.00000000000000000E0,2.00000000000000000E1,6.00000000000000000E0));
#111=B_SPLINE_CURVE_WITH_KNOTS('',1,(#109,#110),.UNSPECIFIED.,.F.,.F.,(2,2),(0.00000000000000000E0,1.00000000000000000E0),.UNSPECIFIED.);
#112=CARTESIAN_POINT('',(-2.00000000000000000E1,0.00000000000000000E0,0.00000000000000000E0));
#113=CARTESIAN_POINT('',(-2.00000000000000000E1,-2.00000000000000000E1,0.00000000000000000E0));
#114=CARTESIAN_POINT('',(0.00000000000000000E0,-2.00000000000000000E1,0.00000000000000000E0));
#115=(BOUNDED_CURVE()B_SPLINE_CURVE(2,(#112,#113,#114),.UNSPECIFIED.,.F.,.F.)B_SPLINE_CURVE_WITH_KNOTS((3,3),(0.00000000000000000E0,1.00000000000000000E0),.UNSPECIFIED.)CURVE()GEOMETRIC_REPRESENTATION_ITEM()RATIONAL_B_SPLINE_CURVE((1.00000000000000000E0,7.07106781186547573E-1,1.00000000000000000E0))REPRESENTATION_ITEM(''));
#116=CARTESIAN_POINT('',(-2.00000000000000000E1,0.00000000000000000E0,6.00000000000000000E0));
#117=CARTESIAN_POINT('',(-2.00000000000000000E1,-2.00000000000000000E1,6.00000000000000000E0));
#118=CARTESIAN_POINT('',(0.00000000000000000E0,-2.00000000000000000E1,6.00000000000000000E0));
#119=(BOUNDED_CURVE()B_SPLINE_CURVE(2,(#116,#117,#118),.UNSPECIFIED.,.F.,.F.)B_SPLINE_CURVE_WITH_KNOTS((3,3),(0.00000000000000000E0,1.00000000000000000E0),.UNSPECIFIED.)CURVE()GEOMETRIC_REPRESENTATION_ITEM()RATIONAL_B_SPLINE_CURVE((1.00000000000000000E0,7.07106781186547573E-1,1.00000000000000000E0))REPRESENTATION_ITEM(''));
#120=CARTESIAN_POINT('',(-2.00000000000000000E1,0.00000000000000000E0,0.00000000000000000E0));
#121=CARTESIAN_POINT('',(-2.00000000000000000E1,0.00000000000000000E0,6.00000000000000000E0));
#122=B_SPLINE_CURVE_WITH_KNOTS('',1,(#120,#121),.UNSPECIFIED.,.F.,.F.,(2,2),(0.00000000000000000E0,1.00000000000000000E0),.UNSPECIFIED.);
#123=CARTESIAN_POINT('',(0.00000000000000000E0,-2.00000000000000000E1,0.00000000000000000E0));
#124=CARTESIAN_POINT('',(2.00000000000000000E1,-2.00000000000000000E1,0.00000000000000000E0));
#125=CARTESIAN_POINT('',(2.00000000000000000E1,0.00000000000000000E0,0.00000000000000000E0));
#126=(BOUNDED_CURVE()B_SPLINE_CURVE(2,(#123,#124,#125),.UNSPECIFIED.,.F.,.F.)B_SPLINE_CURVE_WITH_KNOTS((3,3),(0.00000000000000000E0,1.00000000000000000E0),.UNSPECIFIED.)CURVE()GEOMETRIC_REPRESENTATION_ITEM()RATIONAL_B_SPLINE_CURVE((1.00000000000000000E0,7.07106781186547573E-1,1.00000000000000000E0))REPRESENTATION_ITEM(''));
#127=CARTESIAN_POINT('',(0.00000000000000000E0,-2.00000000000000000E1,6.00000000000000000E0));
#128=CARTESIAN_POINT('',(2.00000000000000000E1,-2.00000000000000000E1,6.00000000000000000E0));
#129=CARTESIAN_POINT('',(2.00000000000000000E1,0.00000000000000000E0,6.00000000000000000E0));
#130=(BOUNDED_CURVE()B_SPLINE_CURVE(2,(#127,#128,#129),.UNSPECIFIED.,.F.,.F.)B_SPLINE_CURVE_WITH_KNOTS((3,3),(0.00000000000000000E0,1.00000000000000000E0),.UNSPECIFIED.)CURVE()GEOMETRIC_REPRESENTATION_ITEM()RATIONAL_B_SPLINE_CURVE((1.00000000000000000E0,7.07106781186547573E-1,1.00000000000000000E0))REPRESENTATION_ITEM(''));
#131=CARTESIAN_POINT('',(0.00000000000000000E0,-2.00000000000000000E1,0.00000000000000000E0));
#132=CARTESIAN_POINT('',(0.00000000000000000E0,-2.00000000000000000E1,6.00000000000000000E0));
#133=B_SPLINE_CURVE_WITH_KNOTS('',1,(#131,#132),.UNSPECIFIED.,.F.,.F.,(2,2),(0.00000000000000000E0,1.00000000000000000E0),.UNSPECIFIED.);
#134=CARTESIAN_POINT('',(5.00000000000000000E0,0.00000000000000000E0,0.00000000000000000E0));
#135=CARTESIAN_POINT('',(5.00000000000000000E0,-5.00000000000000000E0,0.00000000000000000E0));
#136=CARTESIAN_POINT('',(0.00000000000000000E0,-5.00000000000000000E0,0.00000000000000000E0));
#137=(BOUNDED_CURVE()B_SPLINE_CURVE(2,(#134,#135,#136),.UNSPECIFIED.,.F.,.F.)B_SPLINE_CURVE_WITH_KNOTS((3,3),(0.00000000000000000E0,1.00000000000000000E0),.UNSPECIFIED.)CURVE()GEOMETRIC_REPRESENTATION_ITEM()RATIONAL_B_SPLINE_CURVE((1.00000000000000000E0,7.07106781186547573E-1,1.00000000000000000E0))REPRESENTATION_ITEM(''));
#138=CARTESIAN_POINT('',(5.00000000000000000E0,0.00000000000000000E0,6.00000000000000000E0));
#139=CARTESIAN_POINT('',(5.00000000000000000E0,-5.00000000000000000E0,6.00000000000000000E0));
#140=CARTESIAN_POINT('',(0.00000000000000000E0,-5.00000000000000000E0,6.00000000000000000E0));
#141=(BOUNDED_CURVE()B_SPLINE_CURVE(2,(#138,#139,#140),.UNSPECIFIED.,.F.,.F.)B_SPLINE_CURVE_WITH_KNOTS((3,3),(0.00000000000000000E0,1.00000000000000000E0),.UNSPECIFIED.)CURVE()GEOMETRIC_REPRESENTATION_ITEM()RATIONAL_B_SPLINE_CURVE((1.00000000000000000E0,7.07106781186547573E-1,1.00000000000000000E0))REPRESENTATION_ITEM(''));
#142=CARTESIAN_POINT('',(5.00000000000000000E0,0.00000000000000000E0,0.00000000000000000E0));
#143=CARTESIAN_POINT('',(5.00000000000000000E0,0.00000000000000000E0,6.00000000000000000E0));
#144=B_SPLINE_CURVE_WITH_KNOTS('',1,(#142,#143),.UNSPECIFIED.,.F.,.F.,(2,2),(0.00000000000000000E0,1.00000000000000000E0),.UNSPECIFIED.);
#145=CARTESIAN_POINT('',(0.00000000000000000E0,-5.00000000000000000E0,0.00000000000000000E0));
#146=CARTESIAN_POINT('',(-5.00000000000000000E0,-5.00000000000000000E0,0.00000000000000000E0));
#147=CARTESIAN_POINT('',(-5.00000000000000000E0,0.00000000000000000E0,0.00000000000000000E0));
#148=(BOUNDED_CURVE()B_SPLINE_CURVE(2,(#145,#146,#147),.UNSPECIFIED.,.F.,.F.)B_SPLINE_CURVE_WITH_KNOTS((3,3),(0.00000000000000000E0,1.00000000000000000E0),.UNSPECIFIED.)CURVE()GEOMETRIC_REPRESENTATION_ITEM()RATIONAL_B_SPLINE_CURVE((1.00000000000000000E0,7.07106781186547573E-1,1.00000000000000000E0))REPRESENTATION_ITEM(''));
#149=CARTESIAN_POINT('',(0.00000000000000000E0,-5.00000000000000000E0,6.00000000000000000E0));
#150=CARTESIAN_POINT('',(-5.00000000000000000E0,-5.00000000000000000E0,6.00000000000000000E0));
#151=CARTESIAN_POINT('',(-5.00000000000000000E0,0.00000000000000000E0,6.00000000000000000E0));
#152=(BOUNDED_CURVE()B_SPLINE_CURVE(2,(#149,#150,#151),.UNSPECIFIED.,.F.,.F.)B_SPLINE_CURVE_WITH_KNOTS((3,3),(0.00000000000000000E0,1.00000000000000000E0),.UNSPECIFIED.)CURVE()GEOMETRIC_REPRESENTATION_ITEM()RATIONAL_B_SPLINE_CURVE((1.00000000000000000E0,7.07106781186547573E-1,1.00000000000000000E0))REPRESENTATION_ITEM(''));
#153=CARTESIAN_POINT('',(0.00000000000000000E0,-5.00000000000000000E0,0.00000000000000000E0));
#154=CARTESIAN_POINT('',(0.00000000000000000E0,-5.00000000000000000E0,6.00000000000000000E0));
#155=B_SPLINE_CURVE_WITH_KNOTS('',1,(#153,#154),.UNSPECIFIED.,.F.,.F.,(2,2),(0.00000000000000000E0,1.00000000000000000E0),.UNSPECIFIED.);
#156=CARTESIAN_POINT('',(-5.00000000000000000E0,0.00000000000000000E0,0.00000000000000000E0));
#157=CARTESIAN_POINT('',(-5.00000000000000000E0,5.00000000000000000E0,0.00000000000000000E0));
#158=CARTESIAN_POINT('',(0.00000000000000000E0,5.00000000000000000E0,0.00000000000000000E0));
#159=(BOUNDED_CURVE()B_SPLINE_CURVE(2,(#156,#157,#158),.UNSPECIFIED.,.F.,.F.)B_SPLINE_CURVE_WITH_KNOTS((3,3),(0.00000000000000000E0,1.00000000000000000E0),.UNSPECIFIED.)CURVE()GEOMETRIC_REPRESENTATION_ITEM()RATIONAL_B_SPLINE_CURVE((1.00000000000000000E0,7.07106781186547573E-1,1.00000000000000000E0))REPRESENTATION_ITEM(''));
#160=CARTESIAN_POINT('',(-5.00000000000000000E0,0.00000000000000000E0,6.00000000000000000E0));
#161=CARTESIAN_POINT('',(-5.00000000000000000E0,5.00000000000000000E0,6.00000000000000000E0));
#162=CARTESIAN_POINT('',(0.00000000000000000E0,5.00000000000000000E0,6.00000000000000000E0));
#163=(BOUNDED_CURVE()B_SPLINE_CURVE(2,(#160,#161,#162),.UNSPECIFIED.,.F.,.F.)B_SPLINE_CURVE_WITH_KNOTS((3,3),(0.00000000000000000E0,1.00000000000000000E0),.UNSPECIFIED.)CURVE()GEOMETRIC_REPRESENTATION_ITEM()RATIONAL_B_SPLINE_CURVE((1.00000000000000000E0,7.07106781186547573E-1,1.00000000000000000E0))REPRESENTATION_ITEM(''));
#164=CARTESIAN_POINT('',(-5.00000000000000000E0,0.00000000000000000E0,0.00000000000000000E0));
#165=CARTESIAN_POINT('',(-5.00000000000000000E0,0.00000000000000000E0,6.00000000000000000E0));
#166=B_SPLINE_CURVE_WITH_KNOTS('',1,(#164,#165),.UNSPECIFIED.,.F.,.F.,(2,2),(0.00000000000000000E0,1.00000000000000000E0),.UNSPECIFIED.);
#167=CARTESIAN_POINT('',(0.00000000000000000E0,5.00000000000000000E0,0.00000000000000000E0));
#168=CARTESIAN_POINT('',(5.00000000000000000E0,5.00000000000000000E0,0.00000000000000000E0));
#169=CARTESIAN_POINT('',(5.00000000000000000E0,0.00000000000000000E0,0.00000000000000000E0));
#170=(BOUNDED_CURVE()B_SPLINE_CURVE(2,(#167,#168,#169),.UNSPECIFIED.,.F.,.F.)B_SPLINE_CURVE_WITH_KNOTS((3,3),(0.00000000000000000E0,1.00000000000000000E0),.UNSPECIFIED.)CURVE()GEOMETRIC_REPRESENTATION_ITEM()RATIONAL_B_SPLINE_CURVE((1.00000000000000000E0,7.07106781186547573E-1,1.00000000000000000E0))REPRESENTATION_ITEM(''));
#171=CARTESIAN_POINT('',(0.00000000000000000E0,5.00000000000000000E0,6.00000000000000000E0));
#172=CARTESIAN_POINT('',(5.00000000000000000E0,5.00000000000000000E0,6.00000000000000000E0));
#173=CARTESIAN_POINT('',(5.00000000000000000E0,0.00000000000000000E0,6.00000000000000000E0));
#174=(BOUNDED_CURVE()B_SPLINE_CURVE(2,(#171,#172,#173),.UNSPECIFIED.,.F.,.F.)B_SPLINE_CURVE_WITH_KNOTS((3,3),(0.00000000000000000E0,1.00000000000000000E0),.UNSPECIFIED.)CURVE()GEOMETRIC_REPRESENTATION_ITEM()RATIONAL_B_SPLINE_CURVE((1.00000000000000000E0,7.07106781186547573E-1,1.00000000000000000E0))REPRESENTATION_ITEM(''));
#175=CARTESIAN_POINT('',(0.00000000000000000E0,5.00000000000000000E0,0.00000000000000000E0));
#176=CARTESIAN_POINT('',(0.00000000000000000E0,5.00000000000000000E0,6.00000000000000000E0));
#177=B_SPLINE_CURVE_WITH_KNOTS('',1,(#175,#176),.UNSPECIFIED.,.F.,.F.,(2,2),(0.00000000000000000E0,1.00000000000000000E0),.UNSPECIFIED.);
#178=(GEOMETRIC_REPRESENTATION_CONTEXT(2)REPRESENTATION_CONTEXT('','2D'));
#179=CARTESIAN_POINT('',(0.00000000000000000E0,5.00000000000000000E-1));
#180=CARTESIAN_POINT('',(0.00000000000000000E0,0.00000000000000000E0));
#181=CARTESIAN_POINT('',(5.00000000000000000E-1,0.00000000000000000E0));
#182=(BOUNDED_CURVE()B_SPLINE_CURVE(2,(#179,#180,#181),.UNSPECIFIED.,.F.,.F.)B_SPLINE_CURVE_WITH_KNOTS((3,3),(0.00000000000000000E0,1.00000000000000000E0),.UNSPECIFIED.)CURVE()GEOMETRIC_REPRESENTATION_ITEM()RATIONAL_B_SPLINE_CURVE((1.00000000000000000E0,7.07106781186547573E-1,1.00000000000000000E0))REPRESENTATION_ITEM(''));
#183=DEFINITIONAL_REPRESENTATION('',(#182),#178);
#184=PCURVE('',#84,#183);
#185=CARTESIAN_POINT('',(5.00000000000000000E-1,0.00000000000000000E0));
#186=CARTESIAN_POINT('',(1.00000000000000000E0,0.00000000000000000E0));
#187=CARTESIAN_POINT('',(1.00000000000000000E0,5.00000000000000000E-1));
#188=(BOUNDED_CURVE()B_SPLINE_CURVE(2,(#185,#186,#187),.UNSPECIFIED.,.F.,.F.)B_SPLINE_CURVE_WITH_KNOTS((3,3),(0.00000000000000000E0,1.00000000000000000E0),.UNSPECIFIED.)CURVE()GEOMETRIC_REPRESENTATION_ITEM()RATIONAL_B_SPLINE_CURVE((1.00000000000000000E0,7.07106781186547573E-1,1.00000000000000000E0))REPRESENTATION_ITEM(''));
#189=DEFINITIONAL_REPRESENTATION('',(#188),#178);
#190=PCURVE('',#84,#189);
#191=CARTESIAN_POINT('',(1.00000000000000000E0,5.00000000000000000E-1));
#192=CARTESIAN_POINT('',(1.00000000000000000E0,1.00000000000000000E0));
#193=CARTESIAN_POINT('',(5.00000000000000000E-1,1.00000000000000000E0));
#194=(BOUNDED_CURVE()B_SPLINE_CURVE(2,(#191,#192,#193),.UNSPECIFIED.,.F.,.F.)B_SPLINE_CURVE_WITH_KNOTS((3,3),(0.00000000000000000E0,1.00000000000000000E0),.UNSPECIFIED.)CURVE()GEOMETRIC_REPRESENTATION_ITEM()RATIONAL_B_SPLINE_CURVE((1.00000000000000000E0,7.07106781186547573E-1,1.00000000000000000E0))REPRESENTATION_ITEM(''));
#195=DEFINITIONAL_REPRESENTATION('',(#194),#178);
#196=PCURVE('',#84,#195);
#197=CARTESIAN_POINT('',(5.00000000000000000E-1,1.00000000000000000E0));
#198=CARTESIAN_POINT('',(0.00000000000000000E0,1.00000000000000000E0));
#199=CARTESIAN_POINT('',(0.00000000000000000E0,5.00000000000000000E-1));
#200=(BOUNDED_CURVE()B_SPLINE_CURVE(2,(#197,#198,#199),.UNSPECIFIED.,.F.,.F.)B_SPLINE_CURVE_WITH_KNOTS((3,3),(0.00000000000000000E0,1.00000000000000000E0),.UNSPECIFIED.)CURVE()GEOMETRIC_REPRESENTATION_ITEM()RATIONAL_B_SPLINE_CURVE((1.00000000000000000E0,7.07106781186547573E-1,1.00000000000000000E0))REPRESENTATION_ITEM(''));
#201=DEFINITIONAL_REPRESENTATION('',(#200),#178);
#202=PCURVE('',#84,#201);
#203=CARTESIAN_POINT('',(1.00000000000000000E0,5.00000000000000000E-1));
#204=CARTESIAN_POINT('',(1.00000000000000000E0,1.00000000000000000E0));
#205=CARTESIAN_POINT('',(5.00000000000000000E-1,1.00000000000000000E0));
#206=(BOUNDED_CURVE()B_SPLINE_CURVE(2,(#203,#204,#205),.UNSPECIFIED.,.F.,.F.)B_SPLINE_CURVE_WITH_KNOTS((3,3),(0.00000000000000000E0,1.00000000000000000E0),.UNSPECIFIED.)CURVE()GEOMETRIC_REPRESENTATION_ITEM()RATIONAL_B_SPLINE_CURVE((1.00000000000000000E0,7.07106781186547573E-1,1.00000000000000000E0))REPRESENTATION_ITEM(''));
#207=DEFINITIONAL_REPRESENTATION('',(#206),#178);
#208=PCURVE('',#89,#207);
#209=CARTESIAN_POINT('',(5.00000000000000000E-1,1.00000000000000000E0));
#210=CARTESIAN_POINT('',(0.00000000000000000E0,1.00000000000000000E0));
#211=CARTESIAN_POINT('',(0.00000000000000000E0,5.00000000000000000E-1));
#212=(BOUNDED_CURVE()B_SPLINE_CURVE(2,(#209,#210,#211),.UNSPECIFIED.,.F.,.F.)B_SPLINE_CURVE_WITH_KNOTS((3,3),(0.00000000000000000E0,1.00000000000000000E0),.UNSPECIFIED.)CURVE()GEOMETRIC_REPRESENTATION_ITEM()RATIONAL_B_SPLINE_CURVE((1.00000000000000000E0,7.07106781186547573E-1,1.00000000000000000E0))REPRESENTATION_ITEM(''));
#213=DEFINITIONAL_REPRESENTATION('',(#212),#178);
#214=PCURVE('',#89,#213);
#215=CARTESIAN_POINT('',(0.00000000000000000E0,5.00000000000000000E-1));
#216=CARTESIAN_POINT('',(0.00000000000000000E0,0.00000000000000000E0));
#217=CARTESIAN_POINT('',(5.00000000000000000E-1,0.00000000000000000E0));
#218=(BOUNDED_CURVE()B_SPLINE_CURVE(2,(#215,#216,#217),.UNSPECIFIED.,.F.,.F.)B_SPLINE_CURVE_WITH_KNOTS((3,3),(0.00000000000000000E0,1.00000000000000000E0),.UNSPECIFIED.)CURVE()GEOMETRIC_REPRESENTATION_ITEM()RATIONAL_B_SPLINE_CURVE((1.00000000000000000E0,7.07106781186547573E-1,1.00000000000000000E0))REPRESENTATION_ITEM(''));
#219=DEFINITIONAL_REPRESENTATION('',(#218),#178);
#220=PCURVE('',#89,#219);
#221=CARTESIAN_POINT('',(5.00000000000000000E-1,0.00000000000000000E0));
#222=CARTESIAN_POINT('',(1.00000000000000000E0,0.00000000000000000E0));
#223=CARTESIAN_POINT('',(1.00000000000000000E0,5.00000000000000000E-1));
#224=(BOUNDED_CURVE()B_SPLINE_CURVE(2,(#221,#222,#223),.UNSPECIFIED.,.F.,.F.)B_SPLINE_CURVE_WITH_KNOTS((3,3),(0.00000000000000000E0,1.00000000000000000E0),.UNSPECIFIED.)CURVE()GEOMETRIC_REPRESENTATION_ITEM()RATIONAL_B_SPLINE_CURVE((1.00000000000000000E0,7.07106781186547573E-1,1.00000000000000000E0))REPRESENTATION_ITEM(''));
#225=DEFINITIONAL_REPRESENTATION('',(#224),#178);
#226=PCURVE('',#89,#225);
#227=CARTESIAN_POINT('',(0.00000000000000000E0,0.00000000000000000E0));
#228=CARTESIAN_POINT('',(1.00000000000000000E0,0.00000000000000000E0));
#229=B_SPLINE_CURVE_WITH_KNOTS('',1,(#227,#228),.UNSPECIFIED.,.F.,.F.,(2,2),(0.00000000000000000E0,1.00000000000000000E0),.UNSPECIFIED.);
#230=DEFINITIONAL_REPRESENTATION('',(#229),#178);
#231=PCURVE('',#51,#230);
#232=CARTESIAN_POINT('',(1.00000000000000000E0,0.00000000000000000E0));
#233=CARTESIAN_POINT('',(1.00000000000000000E0,1.00000000000000000E0));
#234=B_SPLINE_CURVE_WITH_KNOTS('',1,(#232,#233),.UNSPECIFIED.,.F.,.F.,(2,2),(0.00000000000000000E0,1.00000000000000000E0),.UNSPECIFIED.);
#235=DEFINITIONAL_REPRESENTATION('',(#234),#178);
#236=PCURVE('',#51,#235);
#237=CARTESIAN_POINT('',(1.00000000000000000E0,1.00000000000000000E0));
#238=CARTESIAN_POINT('',(0.00000000000000000E0,1.00000000000000000E0));
#239=B_SPLINE_CURVE_WITH_KNOTS('',1,(#237,#238),.UNSPECIFIED.,.F.,.F.,(2,2),(0.00000000000000000E0,1.00000000000000000E0),.UNSPECIFIED.);
#240=DEFINITIONAL_REPRESENTATION('',(#239),#178);
#241=PCURVE('',#51,#240);
#242=CARTESIAN_POINT('',(0.00000000000000000E0,1.00000000000000000E0));
#243=CARTESIAN_POINT('',(0.00000000000000000E0,0.00000000000000000E0));
#244=B_SPLINE_CURVE_WITH_KNOTS('',1,(#242,#243),.UNSPECIFIED.,.F.,.F.,(2,2),(0.00000000000000000E0,1.00000000000000000E0),.UNSPECIFIED.);
#245=DEFINITIONAL_REPRESENTATION('',(#244),#178);
#246=PCURVE('',#51,#245);
#247=CARTESIAN_POINT('',(1.00000000000000000E0,0.00000000000000000E0));
#248=CARTESIAN_POINT('',(2.00000000000000000E0,0.00000000000000000E0));
#249=B_SPLINE_CURVE_WITH_KNOTS('',1,(#247,#248),.UNSPECIFIED.,.F.,.F.,(2,2),(0.00000000000000000E0,1.00000000000000000E0),.UNSPECIFIED.);
#250=DEFINITIONAL_REPRESENTATION('',(#249),#178);
#251=PCURVE('',#51,#250);
#252=CARTESIAN_POINT('',(2.00000000000000000E0,0.00000000000000000E0));
#253=CARTESIAN_POINT('',(2.00000000000000000E0,1.00000000000000000E0));
#254=B_SPLINE_CURVE_WITH_KNOTS('',1,(#252,#253),.UNSPECIFIED.,.F.,.F.,(2,2),(0.00000000000000000E0,1.00000000000000000E0),.UNSPECIFIED.);
#255=DEFINITIONAL_REPRESENTATION('',(#254),#178);
#256=PCURVE('',#51,#255);
#257=CARTESIAN_POINT('',(2.00000000000000000E0,1.00000000000000000E0));
#258=CARTESIAN_POINT('',(1.00000000000000000E0,1.00000000000000000E0));
#259=B_SPLINE_CURVE_WITH_KNOTS('',1,(#257,#258),.UNSPECIFIED.,.F.,.F.,(2,2),(0.00000000000000000E0,1.00000000000000000E0),.UNSPECIFIED.);
#260=DEFINITIONAL_REPRESENTATION('',(#259),#178);
#261=PCURVE('',#51,#260);
#262=CARTESIAN_POINT('',(1.00000000000000000E0,1.00000000000000000E0));
#263=CARTESIAN_POINT('',(1.00000000000000000E0,0.00000000000000000E0));
#264=B_SPLINE_CURVE_WITH_KNOTS('',1,(#262,#263),.UNSPECIFIED.,.F.,.F.,(2,2),(0.00000000000000000E0,1.00000000000000000E0),.UNSPECIFIED.);
#265=DEFINITIONAL_REPRESENTATION('',(#264),#178);
#266=PCURVE('',#51,#265);
#267=CARTESIAN_POINT('',(2.00000000000000000E0,0.00000000000000000E0));
#268=CARTESIAN_POINT('',(3.00000000000000000E0,0.00000000000000000E0));
#269=B_SPLINE_CURVE_WITH_KNOTS('',1,(#267,#268),.UNSPECIFIED.,.F.,.F.,(2,2),(0.00000000000000000E0,1.00000000000000000E0),.UNSPECIFIED.);
#270=DEFINITIONAL_REPRESENTATION('',(#269),#178);
#271=PCURVE('',#51,#270);
#272=CARTESIAN_POINT('',(3.00000000000000000E0,0.00000000000000000E0));
#273=CARTESIAN_POINT('',(3.00000000000000000E0,1.00000000000000000E0));
#274=B_SPLINE_CURVE_WITH_KNOTS('',1,(#272,#273),.UNSPECIFIED.,.F.,.F.,(2,2),(0.00000000000000000E0,1.00000000000000000E0),.UNSPECIFIED.);
#275=DEFINITIONAL_REPRESENTATION('',(#274),#178);
#276=PCURVE('',#51,#275);
#277=CARTESIAN_POINT('',(3.00000000000000000E0,1.00000000000000000E0));
#278=CARTESIAN_POINT('',(2.00000000000000000E0,1.00000000000000000E0));
#279=B_SPLINE_CURVE_WITH_KNOTS('',1,(#277,#278),.UNSPECIFIED.,.F.,.F.,(2,2),(0.00000000000000000E0,1.00000000000000000E0),.UNSPECIFIED.);
#280=DEFINITIONAL_REPRESENTATION('',(#279),#178);
#281=PCURVE('',#51,#280);
#282=CARTESIAN_POINT('',(2.00000000000000000E0,1.00000000000000000E0));
#283=CARTESIAN_POINT('',(2.00000000000000000E0,0.00000000000000000E0));
#284=B_SPLINE_CURVE_WITH_KNOTS('',1,(#282,#283),.UNSPECIFIED.,.F.,.F.,(2,2),(0.00000000000000000E0,1.00000000000000000E0),.UNSPECIFIED.);
#285=DEFINITIONAL_REPRESENTATION('',(#284),#178);
#286=PCURVE('',#51,#285);
#287=CARTESIAN_POINT('',(3.00000000000000000E0,0.00000000000000000E0));
#288=CARTESIAN_POINT('',(4.00000000000000000E0,0.00000000000000000E0));
#289=B_SPLINE_CURVE_WITH_KNOTS('',1,(#287,#288),.UNSPECIFIED.,.F.,.F.,(2,2),(0.00000000000000000E0,1.00000000000000000E0),.UNSPECIFIED.);
#290=DEFINITIONAL_REPRESENTATION('',(#289),#178);
#291=PCURVE('',#51,#290);
#292=CARTESIAN_POINT('',(4.00000000000000000E0,0.00000000000000000E0));
#293=CARTESIAN_POINT('',(4.00000000000000000E0,1.00000000000000000E0));
#294=B_SPLINE_CURVE_WITH_KNOTS('',1,(#292,#293),.UNSPECIFIED.,.F.,.F.,(2,2),(0.00000000000000000E0,1.00000000000000000E0),.UNSPECIFIED.);
#295=DEFINITIONAL_REPRESENTATION('',(#294),#178);
#296=PCURVE('',#51,#295);
#297=CARTESIAN_POINT('',(4.00000000000000000E0,1.00000000000000000E0));
#298=CARTESIAN_POINT('',(3.00000000000000000E0,1.00000000000000000E0));
#299=B_SPLINE_CURVE_WITH_KNOTS('',1,(#297,#298),.UNSPECIFIED.,.F.,.F.,(2,2),(0.00000000000000000E0,1.00000000000000000E0),.UNSPECIFIED.);
#300=DEFINITIONAL_REPRESENTATION('',(#299),#178);
#301=PCURVE('',#51,#300);
#302=CARTESIAN_POINT('',(3.00000000000000000E0,1.00000000000000000E0));
#303=CARTESIAN_POINT('',(3.00000000000000000E0,0.00000000000000000E0));
#304=B_SPLINE_CURVE_WITH_KNOTS('',1,(#302,#303),.UNSPECIFIED.,.F.,.F.,(2,2),(0.00000000000000000E0,1.00000000000000000E0),.UNSPECIFIED.);
#305=DEFINITIONAL_REPRESENTATION('',(#304),#178);
#306=PCURVE('',#51,#305);
#307=CARTESIAN_POINT('',(3.75000000000000000E-1,5.00000000000000000E-1));
#308=CARTESIAN_POINT('',(3.75000000000000000E-1,6.25000000000000000E-1));
#309=CARTESIAN_POINT('',(5.00000000000000000E-1,6.25000000000000000E-1));
#310=(BOUNDED_CURVE()B_SPLINE_CURVE(2,(#307,#308,#309),.UNSPECIFIED.,.F.,.F.)B_SPLINE_CURVE_WITH_KNOTS((3,3),(0.00000000000000000E0,1.00000000000000000E0),.UNSPECIFIED.)CURVE()GEOMETRIC_REPRESENTATION_ITEM()RATIONAL_B_SPLINE_CURVE((1.00000000000000000E0,7.07106781186547573E-1,1.00000000000000000E0))REPRESENTATION_ITEM(''));
#311=DEFINITIONAL_REPRESENTATION('',(#310),#178);
#312=PCURVE('',#84,#311);
#313=CARTESIAN_POINT('',(5.00000000000000000E-1,6.25000000000000000E-1));
#314=CARTESIAN_POINT('',(6.25000000000000000E-1,6.25000000000000000E-1));
#315=CARTESIAN_POINT('',(6.25000000000000000E-1,5.00000000000000000E-1));
#316=(BOUNDED_CURVE()B_SPLINE_CURVE(2,(#313,#314,#315),.UNSPECIFIED.,.F.,.F.)B_SPLINE_CURVE_WITH_KNOTS((3,3),(0.00000000000000000E0,1.00000000000000000E0),.UNSPECIFIED.)CURVE()GEOMETRIC_REPRESENTATION_ITEM()RATIONAL_B_SPLINE_CURVE((1.00000000000000000E0,7.07106781186547573E-1,1.00000000000000000E0))REPRESENTATION_ITEM(''));
#317=DEFINITIONAL_REPRESENTATION('',(#316),#178);
#318=PCURVE('',#84,#317);
#319=CARTESIAN_POINT('',(6.25000000000000000E-1,5.00000000000000000E-1));
#320=CARTESIAN_POINT('',(6.25000000000000000E-1,3.75000000000000000E-1));
#321=CARTESIAN_POINT('',(5.00000000000000000E-1,3.75000000000000000E-1));
#322=(BOUNDED_CURVE()B_SPLINE_CURVE(2,(#319,#320,#321),.UNSPECIFIED.,.F.,.F.)B_SPLINE_CURVE_WITH_KNOTS((3,3),(0.00000000000000000E0,1.00000000000000000E0),.UNSPECIFIED.)CURVE()GEOMETRIC_REPRESENTATION_ITEM()RATIONAL_B_SPLINE_CURVE((1.00000000000000000E0,7.07106781186547573E-1,1.00000000000000000E0))REPRESENTATION_ITEM(''));
#323=DEFINITIONAL_REPRESENTATION('',(#322),#178);
#324=PCURVE('',#84,#323);
#325=CARTESIAN_POINT('',(5.00000000000000000E-1,3.75000000000000000E-1));
#326=CARTESIAN_POINT('',(3.75000000000000000E-1,3.75000000000000000E-1));
#327=CARTESIAN_POINT('',(3.75000000000000000E-1,5.00000000000000000E-1));
#328=(BOUNDED_CURVE()B_SPLINE_CURVE(2,(#325,#326,#327),.UNSPECIFIED.,.F.,.F.)B_SPLINE_CURVE_WITH_KNOTS((3,3),(0.00000000000000000E0,1.00000000000000000E0),.UNSPECIFIED.)CURVE()GEOMETRIC_REPRESENTATION_ITEM()RATIONAL_B_SPLINE_CURVE((1.00000000000000000E0,7.07106781186547573E-1,1.00000000000000000E0))REPRESENTATION_ITEM(''));
#329=DEFINITIONAL_REPRESENTATION('',(#328),#178);
#330=PCURVE('',#84,#329);
#331=CARTESIAN_POINT('',(6.25000000000000000E-1,5.00000000000000000E-1));
#332=CARTESIAN_POINT('',(6.25000000000000000E-1,3.75000000000000000E-1));
#333=CARTESIAN_POINT('',(5.00000000000000000E-1,3.75000000000000000E-1));
#334=(BOUNDED_CURVE()B_SPLINE_CURVE(2,(#331,#332,#333),.UNSPECIFIED.,.F.,.F.)B_SPLINE_CURVE_WITH_KNOTS((3,3),(0.00000000000000000E0,1.00000000000000000E0),.UNSPECIFIED.)CURVE()GEOMETRIC_REPRESENTATION_ITEM()RATIONAL_B_SPLINE_CURVE((1.00000000000000000E0,7.07106781186547573E-1,1.00000000000000000E0))REPRESENTATION_ITEM(''));
#335=DEFINITIONAL_REPRESENTATION('',(#334),#178);
#336=PCURVE('',#89,#335);
#337=CARTESIAN_POINT('',(5.00000000000000000E-1,3.75000000000000000E-1));
#338=CARTESIAN_POINT('',(3.75000000000000000E-1,3.75000000000000000E-1));
#339=CARTESIAN_POINT('',(3.75000000000000000E-1,5.00000000000000000E-1));
#340=(BOUNDED_CURVE()B_SPLINE_CURVE(2,(#337,#338,#339),.UNSPECIFIED.,.F.,.F.)B_SPLINE_CURVE_WITH_KNOTS((3,3),(0.00000000000000000E0,1.00000000000000000E0),.UNSPECIFIED.)CURVE()GEOMETRIC_REPRESENTATION_ITEM()RATIONAL_B_SPLINE_CURVE((1.00000000000000000E0,7.07106781186547573E-1,1.00000000000000000E0))REPRESENTATION_ITEM(''));
#341=DEFINITIONAL_REPRESENTATION('',(#340),#178);
#342=PCURVE('',#89,#341);
#343=CARTESIAN_POINT('',(3.75000000000000000E-1,5.00000000000000000E-1));
#344=CARTESIAN_POINT('',(3.75000000000000000E-1,6.25000000000000000E-1));
#345=CARTESIAN_POINT('',(5.00000000000000000E-1,6.25000000000000000E-1));
#346=(BOUNDED_CURVE()B_SPLINE_CURVE(2,(#343,#344,#345),.UNSPECIFIED.,.F.,.F.)B_SPLINE_CURVE_WITH_KNOTS((3,3),(0.00000000000000000E0,1.00000000000000000E0),.UNSPECIFIED.)CURVE()GEOMETRIC_REPRESENTATION_ITEM()RATIONAL_B_SPLINE_CURVE((1.00000000000000000E0,7.07106781186547573E-1,1.00000000000000000E0))REPRESENTATION_ITEM(''));
#347=DEFINITIONAL_REPRESENTATION('',(#346),#178);
#348=PCURVE('',#89,#347);
#349=CARTESIAN_POINT('',(5.00000000000000000E-1,6.25000000000000000E-1));
#350=CARTESIAN_POINT('',(6.25000000000000000E-1,6.25000000000000000E-1));
#351=CARTESIAN_POINT('',(6.25000000000000000E-1,5.00000000000000000E-1));
#352=(BOUNDED_CURVE()B_SPLINE_CURVE(2,(#349,#350,#351),.UNSPECIFIED.,.F.,.F.)B_SPLINE_CURVE_WITH_KNOTS((3,3),(0.00000000000000000E0,1.00000000000000000E0),.UNSPECIFIED.)CURVE()GEOMETRIC_REPRESENTATION_ITEM()RATIONAL_B_SPLINE_CURVE((1.00000000000000000E0,7.07106781186547573E-1,1.00000000000000000E0))REPRESENTATION_ITEM(''));
#353=DEFINITIONAL_REPRESENTATION('',(#352),#178);
#354=PCURVE('',#89,#353);
#355=CARTESIAN_POINT('',(0.00000000000000000E0,0.00000000000000000E0));
#356=CARTESIAN_POINT('',(1.00000000000000000E0,0.00000000000000000E0));
#357=B_SPLINE_CURVE_WITH_KNOTS('',1,(#355,#356),.UNSPECIFIED.,.F.,.F.,(2,2),(0.00000000000000000E0,1.00000000000000000E0),.UNSPECIFIED.);
#358=DEFINITIONAL_REPRESENTATION('',(#357),#178);
#359=PCURVE('',#58,#358);
#360=CARTESIAN_POINT('',(1.00000000000000000E0,0.00000000000000000E0));
#361=CARTESIAN_POINT('',(1.00000000000000000E0,1.00000000000000000E0));
#362=B_SPLINE_CURVE_WITH_KNOTS('',1,(#360,#361),.UNSPECIFIED.,.F.,.F.,(2,2),(0.00000000000000000E0,1.00000000000000000E0),.UNSPECIFIED.);
#363=DEFINITIONAL_REPRESENTATION('',(#362),#178);
#364=PCURVE('',#58,#363);
#365=CARTESIAN_POINT('',(1.00000000000000000E0,1.00000000000000000E0));
#366=CARTESIAN_POINT('',(0.00000000000000000E0,1.00000000000000000E0));
#367=B_SPLINE_CURVE_WITH_KNOTS('',1,(#365,#366),.UNSPECIFIED.,.F.,.F.,(2,2),(0.00000000000000000E0,1.00000000000000000E0),.UNSPECIFIED.);
#368=DEFINITIONAL_REPRESENTATION('',(#367),#178);
#369=PCURVE('',#58,#368);
#370=CARTESIAN_POINT('',(0.00000000000000000E0,1.00000000000000000E0));
#371=CARTESIAN_POINT('',(0.00000000000000000E0,0.00000000000000000E0));
#372=B_SPLINE_CURVE_WITH_KNOTS('',1,(#370,#371),.UNSPECIFIED.,.F.,.F.,(2,2),(0.00000000000000000E0,1.00000000000000000E0),.UNSPECIFIED.);
#373=DEFINITIONAL_REPRESENTATION('',(#372),#178);
#374=PCURVE('',#58,#373);
#375=CARTESIAN_POINT('',(0.00000000000000000E0,0.00000000000000000E0));
#376=CARTESIAN_POINT('',(1.00000000000000000E0,0.00000000000000000E0));
#377=B_SPLINE_CURVE_WITH_KNOTS('',1,(#375,#376),.UNSPECIFIED.,.F.,.F.,(2,2),(0.00000000000000000E0,1.00000000000000000E0),.UNSPECIFIED.);
#378=DEFINITIONAL_REPRESENTATION('',(#377),#178);
#379=PCURVE('',#65,#378);
#380=CARTESIAN_POINT('',(1.00000000000000000E0,0.00000000000000000E0));
#381=CARTESIAN_POINT('',(1.00000000000000000E0,1.00000000000000000E0));
#382=B_SPLINE_CURVE_WITH_KNOTS('',1,(#380,#381),.UNSPECIFIED.,.F.,.F.,(2,2),(0.00000000000000000E0,1.00000000000000000E0),.UNSPECIFIED.);
#383=DEFINITIONAL_REPRESENTATION('',(#382),#178);
#384=PCURVE('',#65,#383);
#385=CARTESIAN_POINT('',(1.00000000000000000E0,1.00000000000000000E0));
#386=CARTESIAN_POINT('',(0.00000000000000000E0,1.00000000000000000E0));
#387=B_SPLINE_CURVE_WITH_KNOTS('',1,(#385,#386),.UNSPECIFIED.,.F.,.F.,(2,2),(0.00000000000000000E0,1.00000000000000000E0),.UNSPECIFIED.);
#388=DEFINITIONAL_REPRESENTATION('',(#387),#178);
#389=PCURVE('',#65,#388);
#390=CARTESIAN_POINT('',(0.00000000000000000E0,1.00000000000000000E0));
#391=CARTESIAN_POINT('',(0.00000000000000000E0,0.00000000000000000E0));
#392=B_SPLINE_CURVE_WITH_KNOTS('',1,(#390,#391),.UNSPECIFIED.,.F.,.F.,(2,2),(0.00000000000000000E0,1.00000000000000000E0),.UNSPECIFIED.);
#393=DEFINITIONAL_REPRESENTATION('',(#392),#178);
#394=PCURVE('',#65,#393);
#395=CARTESIAN_POINT('',(0.00000000000000000E0,0.00000000000000000E0));
#396=CARTESIAN_POINT('',(1.00000000000000000E0,0.00000000000000000E0));
#397=B_SPLINE_CURVE_WITH_KNOTS('',1,(#395,#396),.UNSPECIFIED.,.F.,.F.,(2,2),(0.00000000000000000E0,1.00000000000000000E0),.UNSPECIFIED.);
#398=DEFINITIONAL_REPRESENTATION('',(#397),#178);
#399=PCURVE('',#72,#398);
#400=CARTESIAN_POINT('',(1.00000000000000000E0,0.00000000000000000E0));
#401=CARTESIAN_POINT('',(1.00000000000000000E0,1.00000000000000000E0));
#402=B_SPLINE_CURVE_WITH_KNOTS('',1,(#400,#401),.UNSPECIFIED.,.F.,.F.,(2,2),(0.00000000000000000E0,1.00000000000000000E0),.UNSPECIFIED.);
#403=DEFINITIONAL_REPRESENTATION('',(#402),#178);
#404=PCURVE('',#72,#403);
#405=CARTESIAN_POINT('',(1.00000000000000000E0,1.00000000000000000E0));
#406=CARTESIAN_POINT('',(0.00000000000000000E0,1.00000000000000000E0));
#407=B_SPLINE_CURVE_WITH_KNOTS('',1,(#405,#406),.UNSPECIFIED.,.F.,.F.,(2,2),(0.00000000000000000E0,1.00000000000000000E0),.UNSPECIFIED.);
#408=DEFINITIONAL_REPRESENTATION('',(#407),#178);
#409=PCURVE('',#72,#408);
#410=CARTESIAN_POINT('',(0.00000000000000000E0,1.00000000000000000E0));
#411=CARTESIAN_POINT('',(0.00000000000000000E0,0.00000000000000000E0));
#412=B_SPLINE_CURVE_WITH_KNOTS('',1,(#410,#411),.UNSPECIFIED.,.F.,.F.,(2,2),(0.00000000000000000E0,1.00000000000000000E0),.UNSPECIFIED.);
#413=DEFINITIONAL_REPRESENTATION('',(#412),#178);
#414=PCURVE('',#72,#413);
#415=CARTESIAN_POINT('',(0.00000000000000000E0,0.00000000000000000E0));
#416=CARTESIAN_POINT('',(1.00000000000000000E0,0.00000000000000000E0));
#417=B_SPLINE_CURVE_WITH_KNOTS('',1,(#415,#416),.UNSPECIFIED.,.F.,.F.,(2,2),(0.00000000000000000E0,1.00000000000000000E0),.UNSPECIFIED.);
#418=DEFINITIONAL_REPRESENTATION('',(#417),#178);
#419=PCURVE('',#79,#418);
#420=CARTESIAN_POINT('',(1.00000000000000000E0,0.00000000000000000E0));
#421=CARTESIAN_POINT('',(1.00000000000000000E0,1.00000000000000000E0));
#422=B_SPLINE_CURVE_WITH_KNOTS('',1,(#420,#421),.UNSPECIFIED.,.F.,.F.,(2,2),(0.00000000000000000E0,1.00000000000000000E0),.UNSPECIFIED.);
#423=DEFINITIONAL_REPRESENTATION('',(#422),#178);
#424=PCURVE('',#79,#423);
#425=CARTESIAN_POINT('',(1.00000000000000000E0,1.00000000000000000E0));
#426=CARTESIAN_POINT('',(0.00000000000000000E0,1.00000000000000000E0));
#427=B_SPLINE_CURVE_WITH_KNOTS('',1,(#425,#426),.UNSPECIFIED.,.F.,.F.,(2,2),(0.00000000000000000E0,1.00000000000000000E0),.UNSPECIFIED.);
#428=DEFINITIONAL_REPRESENTATION('',(#427),#178);
#429=PCURVE('',#79,#428);
#430=CARTESIAN_POINT('',(0.00000000000000000E0,1.00000000000000000E0));
#431=CARTESIAN_POINT('',(0.00000000000000000E0,0.00000000000000000E0));
#432=B_SPLINE_CURVE_WITH_KNOTS('',1,(#430,#431),.UNSPECIFIED.,.F.,.F.,(2,2),(0.00000000000000000E0,1.00000000000000000E0),.UNSPECIFIED.);
#433=DEFINITIONAL_REPRESENTATION('',(#432),#178);
#434=PCURVE('',#79,#433);
#435=SURFACE_CURVE('',#93,(#202,#231),.PCURVE_S1.);
#436=EDGE_CURVE('OSCAD_TOPO/3|edge|e:866512d1b44e85daac0ac6f965ba3848|385afd12c4a3464f52ff871e664df713fcb7c379a2c12dd451d5706ba3f73ba6',#2,#6,#435,.T.);
#437=SURFACE_CURVE('',#97,(#208,#241),.PCURVE_S1.);
#438=EDGE_CURVE('OSCAD_TOPO/3|edge|e:7120615578fc59d691ca7ddb21abf4c1|b66e952d255c5f62c91e5fe474f6694d99d3da70ff0b946d748b8b00c7b70501',#4,#8,#437,.T.);
#439=SEAM_CURVE('',#100,(#246,#296),.PCURVE_S1.);
#440=EDGE_CURVE('OSCAD_TOPO/3|edge|e:089f3fabb852fce729739fbca181edf9|c763450df8c6be3effa1ec65d84c6a8aebbcaf914a93fd1f15b53970d1541d8a',#2,#4,#439,.T.);
#441=SURFACE_CURVE('',#104,(#196,#251),.PCURVE_S1.);
#442=EDGE_CURVE('OSCAD_TOPO/3|edge|e:28b27ef9b071f0da66aa209dd676b106|b3a8e1e39c30ef207eb0e2622af24d6284735edb3d0f8ba4a7c9714deff5f3dd',#6,#10,#441,.T.);
#443=SURFACE_CURVE('',#108,(#214,#261),.PCURVE_S1.);
#444=EDGE_CURVE('OSCAD_TOPO/3|edge|e:586b1a752fcbcef794cb13c0eecc507f|fc2a335582ce39e2839cea34baf47ad8ad74a7db3041646105432802bfb61f4d',#8,#12,#443,.T.);
#445=SURFACE_CURVE('',#111,(#236,#266),.PCURVE_S1.);
#446=EDGE_CURVE('OSCAD_TOPO/3|edge|e:db49c6f41851f0ac80bda0a75e10c558|6f0a5d446ef424a49102ac8b3f5c6c7ba614d8c85897d0de7c75c1b09e2dcb53',#6,#8,#445,.T.);
#447=SURFACE_CURVE('',#115,(#190,#271),.PCURVE_S1.);
#448=EDGE_CURVE('OSCAD_TOPO/3|edge|e:ebb56be06ec41cd752697dd7d7206034|eacb91e7449ab23674360af368e4e9d985c340e32bbb2223acb09f108183c4ba',#10,#14,#447,.T.);
#449=SURFACE_CURVE('',#119,(#220,#281),.PCURVE_S1.);
#450=EDGE_CURVE('OSCAD_TOPO/3|edge|e:789cc84111a5016d1dbd8f4cb1dd3741|3d0681e04a16b44e996e6c71cb70253dfeca0162eba9d4a4e10f16d5c25e272c',#12,#16,#449,.T.);
#451=SURFACE_CURVE('',#122,(#256,#286),.PCURVE_S1.);
#452=EDGE_CURVE('OSCAD_TOPO/3|edge|e:7c0bdd6b5f46ee0fde28061fd290ef74|12dff44721288c0d501d91dcd5f8bc6ea0fca4029ad58a5047fa18e104cec835',#10,#12,#451,.T.);
#453=SURFACE_CURVE('',#126,(#184,#291),.PCURVE_S1.);
#454=EDGE_CURVE('OSCAD_TOPO/3|edge|e:4ac96bce1c0cc652965028b603fc6891|28ceec74129f5e2968a0ec0c965d42b9cda84ba18a5924e45e2de90cfb7c8685',#14,#2,#453,.T.);
#455=SURFACE_CURVE('',#130,(#226,#301),.PCURVE_S1.);
#456=EDGE_CURVE('OSCAD_TOPO/3|edge|e:6fd332a78b0a0c181f6ca205f9cb8657|77e0bb3be8e4699ff9fe1d9cd33f2d07c023ac45bb7d39a9e206b408ded03ea1',#16,#4,#455,.T.);
#457=SURFACE_CURVE('',#133,(#276,#306),.PCURVE_S1.);
#458=EDGE_CURVE('OSCAD_TOPO/3|edge|e:950a3e93bd0261e1f96f11043b5cb930|1f803730337c3884e61a96a6ce8e67831fe8c68e3048782229502eb97bc1623a',#14,#16,#457,.T.);
#459=SURFACE_CURVE('',#137,(#330,#359),.PCURVE_S1.);
#460=EDGE_CURVE('OSCAD_TOPO/3|edge|e:b63e1aac8436ffa958b50728f0f07b35|d7cc66f797ffff2736bcf4e7fd18d4c97feac1f0d4436abb9c9bb92c472aca63',#18,#22,#459,.T.);
#461=SURFACE_CURVE('',#141,(#336,#369),.PCURVE_S1.);
#462=EDGE_CURVE('OSCAD_TOPO/3|edge|e:9f09da0c98d2d94abe6ab637a059e76f|6b2964e6802b9349c70ac729e52118e8122ab4940695bd8bc0ee0cb5ca14ba08',#20,#24,#461,.T.);
#463=SURFACE_CURVE('',#144,(#374,#424),.PCURVE_S1.);
#464=EDGE_CURVE('OSCAD_TOPO/3|edge|e:cec0d997197acdc44dc28263321b5b6d|8100fe00662bc93ed8b7d166d670aad6b9f8ba0524173a87f179f64598c69a7e',#18,#20,#463,.T.);
#465=SURFACE_CURVE('',#148,(#324,#379),.PCURVE_S1.);
#466=EDGE_CURVE('OSCAD_TOPO/3|edge|e:16c0a6ef458c8471012a5e50d4243d9d|befb16fe46619a76f198841a22ffd327301e168639cd3a39c3578d5b9cda3d6c',#22,#26,#465,.T.);
#467=SURFACE_CURVE('',#152,(#342,#389),.PCURVE_S1.);
#468=EDGE_CURVE('OSCAD_TOPO/3|edge|e:dcfa1d838322aa865f47ae177caa85b9|5babbc0c44838009165b9f0da25491dfdf06be7dfe121dc85d2d0c829fb5f7e8',#24,#28,#467,.T.);
#469=SURFACE_CURVE('',#155,(#364,#394),.PCURVE_S1.);
#470=EDGE_CURVE('OSCAD_TOPO/3|edge|e:7518569ee619f092937e0f3e71b168f8|0be2dda02b51d7a82a2c78e6b89deaf47be6075f3d820850cb8094be5ab6e899',#22,#24,#469,.T.);
#471=SURFACE_CURVE('',#159,(#318,#399),.PCURVE_S1.);
#472=EDGE_CURVE('OSCAD_TOPO/3|edge|e:60803eec01d38b9ffcd17f998b6af4e0|4efdbbcf24d363ac9278668e49d43324e2e2406ae0efa31120186c13be35bb86',#26,#30,#471,.T.);
#473=SURFACE_CURVE('',#163,(#348,#409),.PCURVE_S1.);
#474=EDGE_CURVE('OSCAD_TOPO/3|edge|e:3c44f62ef6bc76e3c415e69f7840b267|30b84e36fb7afc5af4d72556ec2509a609c80fe622cb7cd569ae93464d4e2c43',#28,#32,#473,.T.);
#475=SURFACE_CURVE('',#166,(#384,#414),.PCURVE_S1.);
#476=EDGE_CURVE('OSCAD_TOPO/3|edge|e:053537c552ad7e1c1df56126168a38e7|a892a50d50c5d954c66b6575591a13fd83b11288ea5f205540cc41b0e78d5f24',#26,#28,#475,.T.);
#477=SURFACE_CURVE('',#170,(#312,#419),.PCURVE_S1.);
#478=EDGE_CURVE('OSCAD_TOPO/3|edge|e:e1db1b769df2a32d365e1892126a8a2e|09ceaebe285c2a37f5e7e6e5f9a24138ccfc425bed56df0114d0ce8a14b87317',#30,#18,#477,.T.);
#479=SURFACE_CURVE('',#174,(#354,#429),.PCURVE_S1.);
#480=EDGE_CURVE('OSCAD_TOPO/3|edge|e:928c4971f9300596dc7e581922de5f7d|9e31b123b81e66d059824cfe14707688665625e4fa63e4b4fe0413e835407b67',#32,#20,#479,.T.);
#481=SURFACE_CURVE('',#177,(#404,#434),.PCURVE_S1.);
#482=EDGE_CURVE('OSCAD_TOPO/3|edge|e:6088b1dc4007af98ac8d4642e57ecc6d|4e69ae3496cf42a54245323672cec549f185c162ef76b94e0e156824c794a726',#30,#32,#481,.T.);
#483=ORIENTED_EDGE('',*,*,#454,.F.);
#484=ORIENTED_EDGE('',*,*,#448,.F.);
#485=ORIENTED_EDGE('',*,*,#442,.F.);
#486=ORIENTED_EDGE('',*,*,#436,.F.);
#487=EDGE_LOOP('OSCAD_TOPO/3|loop|l:f5cbf68bd03f65836d17b6f649b4f054|2cd95f0f6aa277d4899761214d12588bcbbfc30f0c5816ae4b64f3d03ae665a1',(#483,#484,#485,#486));
#488=ORIENTED_EDGE('',*,*,#438,.T.);
#489=ORIENTED_EDGE('',*,*,#444,.T.);
#490=ORIENTED_EDGE('',*,*,#450,.T.);
#491=ORIENTED_EDGE('',*,*,#456,.T.);
#492=EDGE_LOOP('OSCAD_TOPO/3|loop|l:b44137165feb40f149b725b8dc7f7fd8|33a923ebaf0b9d7675e7512790547e38ba6435a35ff50eb2b3b110759d4f11d4',(#488,#489,#490,#491));
#493=ORIENTED_EDGE('',*,*,#436,.T.);
#494=ORIENTED_EDGE('',*,*,#446,.T.);
#495=ORIENTED_EDGE('',*,*,#438,.F.);
#496=ORIENTED_EDGE('',*,*,#440,.F.);
#497=EDGE_LOOP('OSCAD_TOPO/3|loop|l:1d6713bb8abaed371a5fd5198cd37eee|128d5f275afea13469026cbffbadcb16b8ceb30050114e879879d0b9c5b58921',(#493,#494,#495,#496));
#498=ORIENTED_EDGE('',*,*,#442,.T.);
#499=ORIENTED_EDGE('',*,*,#452,.T.);
#500=ORIENTED_EDGE('',*,*,#444,.F.);
#501=ORIENTED_EDGE('',*,*,#446,.F.);
#502=EDGE_LOOP('OSCAD_TOPO/3|loop|l:ccc893a4ddb76c2e39db961585da190d|129ebce241cb56f2a5d09270643fd03aeab8157d4229013b801a3adf45203bb7',(#498,#499,#500,#501));
#503=ORIENTED_EDGE('',*,*,#448,.T.);
#504=ORIENTED_EDGE('',*,*,#458,.T.);
#505=ORIENTED_EDGE('',*,*,#450,.F.);
#506=ORIENTED_EDGE('',*,*,#452,.F.);
#507=EDGE_LOOP('OSCAD_TOPO/3|loop|l:ae00854a98c0d131f6d7f2b2ee8a4bd9|bfbace9595cba61cdbcb68a279b46ed5c1832106e4ff30a2873fd910eb025a91',(#503,#504,#505,#506));
#508=ORIENTED_EDGE('',*,*,#454,.T.);
#509=ORIENTED_EDGE('',*,*,#440,.T.);
#510=ORIENTED_EDGE('',*,*,#456,.F.);
#511=ORIENTED_EDGE('',*,*,#458,.F.);
#512=EDGE_LOOP('OSCAD_TOPO/3|loop|l:242a1c142d7f1159d08676cfb6bca99e|e16aa53de9f1e828eb99fc0d0166aa3bb49123ad5da7e7682bc065610ec85918',(#508,#509,#510,#511));
#513=ORIENTED_EDGE('',*,*,#478,.F.);
#514=ORIENTED_EDGE('',*,*,#472,.F.);
#515=ORIENTED_EDGE('',*,*,#466,.F.);
#516=ORIENTED_EDGE('',*,*,#460,.F.);
#517=EDGE_LOOP('OSCAD_TOPO/3|loop|l:3521c0c404ecb419df8047e91825b7bf|406c7f153d4e2a74219386611ec76138dcc3a83a1353b31ace2660fef5d81510',(#513,#514,#515,#516));
#518=ORIENTED_EDGE('',*,*,#462,.T.);
#519=ORIENTED_EDGE('',*,*,#468,.T.);
#520=ORIENTED_EDGE('',*,*,#474,.T.);
#521=ORIENTED_EDGE('',*,*,#480,.T.);
#522=EDGE_LOOP('OSCAD_TOPO/3|loop|l:9d8c304527f8a4501573a2c8158ccec6|4caa113832b278093c091bcb7a6cbff3fa9f9e4ce2ff43fdbf66016c696935ce',(#518,#519,#520,#521));
#523=ORIENTED_EDGE('',*,*,#460,.T.);
#524=ORIENTED_EDGE('',*,*,#470,.T.);
#525=ORIENTED_EDGE('',*,*,#462,.F.);
#526=ORIENTED_EDGE('',*,*,#464,.F.);
#527=EDGE_LOOP('OSCAD_TOPO/3|loop|l:d76c261541d9bc7bfa8c79b6ae4e7cf4|9aca88b99bddc7a56cb5255260f591cceedeecd85426f21c9fd4ecd7382c7432',(#523,#524,#525,#526));
#528=ORIENTED_EDGE('',*,*,#466,.T.);
#529=ORIENTED_EDGE('',*,*,#476,.T.);
#530=ORIENTED_EDGE('',*,*,#468,.F.);
#531=ORIENTED_EDGE('',*,*,#470,.F.);
#532=EDGE_LOOP('OSCAD_TOPO/3|loop|l:404207ecb4361855c6a9380cee8fd804|d0e52ddc733148355b7a7af49d0e7bf78c04f84a47aecfdbbe0aa46b59de7eb8',(#528,#529,#530,#531));
#533=ORIENTED_EDGE('',*,*,#472,.T.);
#534=ORIENTED_EDGE('',*,*,#482,.T.);
#535=ORIENTED_EDGE('',*,*,#474,.F.);
#536=ORIENTED_EDGE('',*,*,#476,.F.);
#537=EDGE_LOOP('OSCAD_TOPO/3|loop|l:b4ed149ed633f05a1f8046f870764123|85afb8fd2df10f58c6576859fb6b03297761554198b1f4706bcb9e33e05fa821',(#533,#534,#535,#536));
#538=ORIENTED_EDGE('',*,*,#478,.T.);
#539=ORIENTED_EDGE('',*,*,#464,.T.);
#540=ORIENTED_EDGE('',*,*,#480,.F.);
#541=ORIENTED_EDGE('',*,*,#482,.F.);
#542=EDGE_LOOP('OSCAD_TOPO/3|loop|l:1ae06d10c70df9c8a8918602b528afe7|664fc9da69d3d8def78488bcf37a2344581d4cc322bef188e663dee785e0673c',(#538,#539,#540,#541));
#543=FACE_OUTER_BOUND('',#497,.T.);
#544=ADVANCED_FACE('OSCAD_TOPO/3|face|f:ecb186b25aba32f8c989eae022b26658|19b3df4b17fe3238c67d262a76916b7b178caadbd92f54335f004a752be7639b',(#543),#51,.T.);
#545=FACE_OUTER_BOUND('',#502,.T.);
#546=ADVANCED_FACE('OSCAD_TOPO/3|face|f:00f8efe7e77bc2fdd00358404d154531|c6bf7aa424a8f43fded7d0ebad33d0f8795be3a784715361c991f859ec47a931',(#545),#51,.T.);
#547=FACE_OUTER_BOUND('',#507,.T.);
#548=ADVANCED_FACE('OSCAD_TOPO/3|face|f:412bc5ee64c54181218eed5204b92cf1|9a212336fda39a35da7b96a66c7e0dd6f78f3366e4407ea10f7b4943305c38a1',(#547),#51,.T.);
#549=FACE_OUTER_BOUND('',#512,.T.);
#550=ADVANCED_FACE('OSCAD_TOPO/3|face|f:3a52d0a12d50bba2dd0c3b61b5aa1298|761a517f432e8f8ea5af258210b285ce68aac20a92629d5d324c374d1e92ac8d',(#549),#51,.T.);
#551=FACE_OUTER_BOUND('',#527,.T.);
#552=ADVANCED_FACE('OSCAD_TOPO/3|face|f:0122fe5d2554f540f69dcedfad45626d|d2b644e49a1716479b87860baf78e9f2d1be604caf09c4e2ea62f035e479bd31',(#551),#58,.T.);
#553=FACE_OUTER_BOUND('',#532,.T.);
#554=ADVANCED_FACE('OSCAD_TOPO/3|face|f:afefaf9caac87ca10bb75eb66b0b2c00|3cf86aa292d93c2daed57aa7f5a0731e75ed91b9efff75948e85eeb97dddb770',(#553),#65,.T.);
#555=FACE_OUTER_BOUND('',#537,.T.);
#556=ADVANCED_FACE('OSCAD_TOPO/3|face|f:b1e6138cc4a2a61b2615f3591bf4202e|2d32da80e40ced78b02ee446516be52993924ca02fa48eee1bf6553f4c172767',(#555),#72,.T.);
#557=FACE_OUTER_BOUND('',#542,.T.);
#558=ADVANCED_FACE('OSCAD_TOPO/3|face|f:a7ba00a4305ff88fe37d1ec413a4ac8e|f6be620b632967f80a17ec075e0f764a3212ec163ad88dc83ed2c38ed43ec806',(#557),#79,.T.);
#559=FACE_OUTER_BOUND('',#487,.T.);
#560=FACE_BOUND('',#517,.T.);
#561=ADVANCED_FACE('OSCAD_TOPO/3|face|f:579e62108d450a00751adc02d14285f6|c2c0d767898e0548c7b352e3e78d83b8c296ec1a7be8c3f648bef59697d37979',(#559,#560),#84,.T.);
#562=FACE_OUTER_BOUND('',#492,.T.);
#563=FACE_BOUND('',#522,.T.);
#564=ADVANCED_FACE('OSCAD_TOPO/3|face|f:34f6d502c6b24ff200e430f7845bf85e|3916034bfc511e07b0acc9ba78a0dfc4d20877a3b6204565979c10571bab4c06',(#562,#563),#89,.T.);
#565=CLOSED_SHELL('OSCAD_TOPO/3|shell|s:799b05402f3230d20c12b7af956e9352|db70245d298e717d439f88ee8db498b6e6402bcb9af74a4d9fc96c0be93a64c0',(#544,#546,#548,#550,#552,#554,#556,#558,#561,#564));
#566=MANIFOLD_SOLID_BREP('OSCAD_TOPO/3|body|b:9cf526d5f484ac8a348b40363a9eddce|c18e4e567dc16f1cd79f6dd518a49722238036c7452e513240db3a57404daa84',#565);
#567=(LENGTH_UNIT()NAMED_UNIT(*)SI_UNIT(.MILLI.,.METRE.));
#568=UNCERTAINTY_MEASURE_WITH_UNIT(LENGTH_MEASURE(9.99999999999999955E-8),#567,'distance_accuracy_value','');
#569=(GEOMETRIC_REPRESENTATION_CONTEXT(3)GLOBAL_UNCERTAINTY_ASSIGNED_CONTEXT((#568))GLOBAL_UNIT_ASSIGNED_CONTEXT((#567))REPRESENTATION_CONTEXT('','3D'));
#570=ADVANCED_BREP_SHAPE_REPRESENTATION('',(#566),#569);
#571=APPLICATION_CONTEXT('managed model based 3d engineering');
#572=PRODUCT_CONTEXT('',#571,'mechanical');
#573=PRODUCT('model','model','',(#572));
#574=PRODUCT_DEFINITION_FORMATION('1','',#573);
#575=PRODUCT_DEFINITION_CONTEXT('part definition',#571,'design');
#576=PRODUCT_DEFINITION('design','',#574,#575);
#577=PRODUCT_DEFINITION_SHAPE('','',#576);
#578=SHAPE_DEFINITION_REPRESENTATION(#577,#570);
ENDSEC;
END-ISO-10303-21;
