ISO-10303-21;
HEADER;
FILE_DESCRIPTION(('OpenSCAD Viewer retained AP242 B-rep'),'2;1');
FILE_NAME('model.step','',(''),(''),'OpenSCAD Viewer','OpenSCAD Viewer','');
FILE_SCHEMA(('AP242_MANAGED_MODEL_BASED_3D_ENGINEERING_MIM_LF'));
ENDSEC;
DATA;
#1=CARTESIAN_POINT('',(0.00000000000000000E0,0.00000000000000000E0,0.00000000000000000E0));
#2=VERTEX_POINT('OSCAD_TOPO/3|vertex|v:2301485b2aa5130a3ffa2c3d4ddce85f|191be695419e636e18cadbd25849313dc09d01169bcb85a989c23a0b6cf87b5c',#1);
#3=CARTESIAN_POINT('',(0.00000000000000000E0,0.00000000000000000E0,5.00000000000000000E0));
#4=VERTEX_POINT('OSCAD_TOPO/3|vertex|v:59d3d47065edcb9da9cf3f5109bbabd8|f48f690029a9b30015c875addfee158b8bb015cde4f67b7e6d766c8d67187a4b',#3);
#5=CARTESIAN_POINT('',(2.00000000000000000E0,0.00000000000000000E0,0.00000000000000000E0));
#6=VERTEX_POINT('OSCAD_TOPO/3|vertex|v:220e6fc475a9da38f53af60746604ed2|1dcac6380df9c51f2f20175abf4c52a78bcefb465c10760b4c3387485c81df72',#5);
#7=CARTESIAN_POINT('',(2.00000000000000000E0,0.00000000000000000E0,5.00000000000000000E0));
#8=VERTEX_POINT('OSCAD_TOPO/3|vertex|v:24428ad73e678c231468d93f27e72200|da21222f3f9c8668ef3a863afd5293ed9b51b45a5b4d1ce268e50da6196d3fce',#7);
#9=CARTESIAN_POINT('',(2.00000000000000000E0,2.00000000000000000E0,0.00000000000000000E0));
#10=VERTEX_POINT('OSCAD_TOPO/3|vertex|v:87720f8b4387fc79bcf0107a078936de|a237d89cc8dfcfcf60109572be19d22463269b22cba151a13bc65d0f41397665',#9);
#11=CARTESIAN_POINT('',(2.00000000000000000E0,2.00000000000000000E0,5.00000000000000000E0));
#12=VERTEX_POINT('OSCAD_TOPO/3|vertex|v:884ae5bb3514786a6d15fe83bc5e4ef0|03ee86c35b60c926dd084c48e0c63b941db446edb3e7b0e0cd4e1fa4cd986025',#11);
#13=CARTESIAN_POINT('',(0.00000000000000000E0,2.00000000000000000E0,0.00000000000000000E0));
#14=VERTEX_POINT('OSCAD_TOPO/3|vertex|v:4da6a71bbd8682eea7476dfa8a111789|e58bff6b40d40faf3355976d3273446059fc0dd6c216a01efa7bae6850e9fb03',#13);
#15=CARTESIAN_POINT('',(0.00000000000000000E0,2.00000000000000000E0,5.00000000000000000E0));
#16=VERTEX_POINT('OSCAD_TOPO/3|vertex|v:89e9633d63c0b98f90f89b504a60adbd|f78d355325c1261d3124140008fe7d596681815b4b839b0de80a57eb53f9c88b',#15);
#17=CARTESIAN_POINT('',(0.00000000000000000E0,0.00000000000000000E0,0.00000000000000000E0));
#18=CARTESIAN_POINT('',(0.00000000000000000E0,0.00000000000000000E0,5.00000000000000000E0));
#19=CARTESIAN_POINT('',(1.00000000000000000E0,-1.00000000000000000E0,0.00000000000000000E0));
#20=CARTESIAN_POINT('',(1.00000000000000000E0,-1.00000000000000000E0,5.00000000000000000E0));
#21=CARTESIAN_POINT('',(2.00000000000000000E0,0.00000000000000000E0,0.00000000000000000E0));
#22=CARTESIAN_POINT('',(2.00000000000000000E0,0.00000000000000000E0,5.00000000000000000E0));
#23=B_SPLINE_SURFACE_WITH_KNOTS('',2,1,((#17,#18),(#19,#20),(#21,#22)),.UNSPECIFIED.,.F.,.F.,.F.,(3,3),(2,2),(0.00000000000000000E0,1.00000000000000000E0),(0.00000000000000000E0,1.00000000000000000E0),.UNSPECIFIED.);
#24=CARTESIAN_POINT('',(2.00000000000000000E0,0.00000000000000000E0,0.00000000000000000E0));
#25=CARTESIAN_POINT('',(2.00000000000000000E0,0.00000000000000000E0,5.00000000000000000E0));
#26=CARTESIAN_POINT('',(2.00000000000000000E0,2.00000000000000000E0,0.00000000000000000E0));
#27=CARTESIAN_POINT('',(2.00000000000000000E0,2.00000000000000000E0,5.00000000000000000E0));
#28=B_SPLINE_SURFACE_WITH_KNOTS('',1,1,((#24,#25),(#26,#27)),.UNSPECIFIED.,.F.,.F.,.F.,(2,2),(2,2),(0.00000000000000000E0,1.00000000000000000E0),(0.00000000000000000E0,1.00000000000000000E0),.UNSPECIFIED.);
#29=CARTESIAN_POINT('',(2.00000000000000000E0,2.00000000000000000E0,0.00000000000000000E0));
#30=CARTESIAN_POINT('',(2.00000000000000000E0,2.00000000000000000E0,5.00000000000000000E0));
#31=CARTESIAN_POINT('',(0.00000000000000000E0,2.00000000000000000E0,0.00000000000000000E0));
#32=CARTESIAN_POINT('',(0.00000000000000000E0,2.00000000000000000E0,5.00000000000000000E0));
#33=B_SPLINE_SURFACE_WITH_KNOTS('',1,1,((#29,#30),(#31,#32)),.UNSPECIFIED.,.F.,.F.,.F.,(2,2),(2,2),(0.00000000000000000E0,1.00000000000000000E0),(0.00000000000000000E0,1.00000000000000000E0),.UNSPECIFIED.);
#34=CARTESIAN_POINT('',(0.00000000000000000E0,2.00000000000000000E0,0.00000000000000000E0));
#35=CARTESIAN_POINT('',(0.00000000000000000E0,2.00000000000000000E0,5.00000000000000000E0));
#36=CARTESIAN_POINT('',(0.00000000000000000E0,0.00000000000000000E0,0.00000000000000000E0));
#37=CARTESIAN_POINT('',(0.00000000000000000E0,0.00000000000000000E0,5.00000000000000000E0));
#38=B_SPLINE_SURFACE_WITH_KNOTS('',1,1,((#34,#35),(#36,#37)),.UNSPECIFIED.,.F.,.F.,.F.,(2,2),(2,2),(0.00000000000000000E0,1.00000000000000000E0),(0.00000000000000000E0,1.00000000000000000E0),.UNSPECIFIED.);
#39=CARTESIAN_POINT('',(2.00000000000000000E0,-1.00000000000000000E0,0.00000000000000000E0));
#40=CARTESIAN_POINT('',(2.00000000000000000E0,2.00000000000000000E0,0.00000000000000000E0));
#41=CARTESIAN_POINT('',(0.00000000000000000E0,-1.00000000000000000E0,0.00000000000000000E0));
#42=CARTESIAN_POINT('',(0.00000000000000000E0,2.00000000000000000E0,0.00000000000000000E0));
#43=B_SPLINE_SURFACE_WITH_KNOTS('',1,1,((#39,#40),(#41,#42)),.UNSPECIFIED.,.F.,.F.,.F.,(2,2),(2,2),(0.00000000000000000E0,1.00000000000000000E0),(0.00000000000000000E0,1.00000000000000000E0),.UNSPECIFIED.);
#44=CARTESIAN_POINT('',(0.00000000000000000E0,-1.00000000000000000E0,5.00000000000000000E0));
#45=CARTESIAN_POINT('',(0.00000000000000000E0,2.00000000000000000E0,5.00000000000000000E0));
#46=CARTESIAN_POINT('',(2.00000000000000000E0,-1.00000000000000000E0,5.00000000000000000E0));
#47=CARTESIAN_POINT('',(2.00000000000000000E0,2.00000000000000000E0,5.00000000000000000E0));
#48=B_SPLINE_SURFACE_WITH_KNOTS('',1,1,((#44,#45),(#46,#47)),.UNSPECIFIED.,.F.,.F.,.F.,(2,2),(2,2),(0.00000000000000000E0,1.00000000000000000E0),(0.00000000000000000E0,1.00000000000000000E0),.UNSPECIFIED.);
#49=CARTESIAN_POINT('',(0.00000000000000000E0,0.00000000000000000E0,0.00000000000000000E0));
#50=CARTESIAN_POINT('',(1.00000000000000000E0,-1.00000000000000000E0,0.00000000000000000E0));
#51=CARTESIAN_POINT('',(2.00000000000000000E0,0.00000000000000000E0,0.00000000000000000E0));
#52=B_SPLINE_CURVE_WITH_KNOTS('',2,(#49,#50,#51),.UNSPECIFIED.,.F.,.F.,(3,3),(0.00000000000000000E0,1.00000000000000000E0),.UNSPECIFIED.);
#53=CARTESIAN_POINT('',(0.00000000000000000E0,0.00000000000000000E0,5.00000000000000000E0));
#54=CARTESIAN_POINT('',(1.00000000000000000E0,-1.00000000000000000E0,5.00000000000000000E0));
#55=CARTESIAN_POINT('',(2.00000000000000000E0,0.00000000000000000E0,5.00000000000000000E0));
#56=B_SPLINE_CURVE_WITH_KNOTS('',2,(#53,#54,#55),.UNSPECIFIED.,.F.,.F.,(3,3),(0.00000000000000000E0,1.00000000000000000E0),.UNSPECIFIED.);
#57=CARTESIAN_POINT('',(0.00000000000000000E0,0.00000000000000000E0,0.00000000000000000E0));
#58=CARTESIAN_POINT('',(0.00000000000000000E0,0.00000000000000000E0,5.00000000000000000E0));
#59=B_SPLINE_CURVE_WITH_KNOTS('',1,(#57,#58),.UNSPECIFIED.,.F.,.F.,(2,2),(0.00000000000000000E0,1.00000000000000000E0),.UNSPECIFIED.);
#60=CARTESIAN_POINT('',(2.00000000000000000E0,0.00000000000000000E0,0.00000000000000000E0));
#61=CARTESIAN_POINT('',(2.00000000000000000E0,2.00000000000000000E0,0.00000000000000000E0));
#62=B_SPLINE_CURVE_WITH_KNOTS('',1,(#60,#61),.UNSPECIFIED.,.F.,.F.,(2,2),(0.00000000000000000E0,1.00000000000000000E0),.UNSPECIFIED.);
#63=CARTESIAN_POINT('',(2.00000000000000000E0,0.00000000000000000E0,5.00000000000000000E0));
#64=CARTESIAN_POINT('',(2.00000000000000000E0,2.00000000000000000E0,5.00000000000000000E0));
#65=B_SPLINE_CURVE_WITH_KNOTS('',1,(#63,#64),.UNSPECIFIED.,.F.,.F.,(2,2),(0.00000000000000000E0,1.00000000000000000E0),.UNSPECIFIED.);
#66=CARTESIAN_POINT('',(2.00000000000000000E0,0.00000000000000000E0,0.00000000000000000E0));
#67=CARTESIAN_POINT('',(2.00000000000000000E0,0.00000000000000000E0,5.00000000000000000E0));
#68=B_SPLINE_CURVE_WITH_KNOTS('',1,(#66,#67),.UNSPECIFIED.,.F.,.F.,(2,2),(0.00000000000000000E0,1.00000000000000000E0),.UNSPECIFIED.);
#69=CARTESIAN_POINT('',(2.00000000000000000E0,2.00000000000000000E0,0.00000000000000000E0));
#70=CARTESIAN_POINT('',(0.00000000000000000E0,2.00000000000000000E0,0.00000000000000000E0));
#71=B_SPLINE_CURVE_WITH_KNOTS('',1,(#69,#70),.UNSPECIFIED.,.F.,.F.,(2,2),(0.00000000000000000E0,1.00000000000000000E0),.UNSPECIFIED.);
#72=CARTESIAN_POINT('',(2.00000000000000000E0,2.00000000000000000E0,5.00000000000000000E0));
#73=CARTESIAN_POINT('',(0.00000000000000000E0,2.00000000000000000E0,5.00000000000000000E0));
#74=B_SPLINE_CURVE_WITH_KNOTS('',1,(#72,#73),.UNSPECIFIED.,.F.,.F.,(2,2),(0.00000000000000000E0,1.00000000000000000E0),.UNSPECIFIED.);
#75=CARTESIAN_POINT('',(2.00000000000000000E0,2.00000000000000000E0,0.00000000000000000E0));
#76=CARTESIAN_POINT('',(2.00000000000000000E0,2.00000000000000000E0,5.00000000000000000E0));
#77=B_SPLINE_CURVE_WITH_KNOTS('',1,(#75,#76),.UNSPECIFIED.,.F.,.F.,(2,2),(0.00000000000000000E0,1.00000000000000000E0),.UNSPECIFIED.);
#78=CARTESIAN_POINT('',(0.00000000000000000E0,2.00000000000000000E0,0.00000000000000000E0));
#79=CARTESIAN_POINT('',(0.00000000000000000E0,0.00000000000000000E0,0.00000000000000000E0));
#80=B_SPLINE_CURVE_WITH_KNOTS('',1,(#78,#79),.UNSPECIFIED.,.F.,.F.,(2,2),(0.00000000000000000E0,1.00000000000000000E0),.UNSPECIFIED.);
#81=CARTESIAN_POINT('',(0.00000000000000000E0,2.00000000000000000E0,5.00000000000000000E0));
#82=CARTESIAN_POINT('',(0.00000000000000000E0,0.00000000000000000E0,5.00000000000000000E0));
#83=B_SPLINE_CURVE_WITH_KNOTS('',1,(#81,#82),.UNSPECIFIED.,.F.,.F.,(2,2),(0.00000000000000000E0,1.00000000000000000E0),.UNSPECIFIED.);
#84=CARTESIAN_POINT('',(0.00000000000000000E0,2.00000000000000000E0,0.00000000000000000E0));
#85=CARTESIAN_POINT('',(0.00000000000000000E0,2.00000000000000000E0,5.00000000000000000E0));
#86=B_SPLINE_CURVE_WITH_KNOTS('',1,(#84,#85),.UNSPECIFIED.,.F.,.F.,(2,2),(0.00000000000000000E0,1.00000000000000000E0),.UNSPECIFIED.);
#87=(GEOMETRIC_REPRESENTATION_CONTEXT(2)REPRESENTATION_CONTEXT('','2D'));
#88=CARTESIAN_POINT('',(1.00000000000000000E0,3.33333333333333315E-1));
#89=CARTESIAN_POINT('',(1.00000000000000000E0,1.00000000000000000E0));
#90=B_SPLINE_CURVE_WITH_KNOTS('',1,(#88,#89),.UNSPECIFIED.,.F.,.F.,(2,2),(0.00000000000000000E0,1.00000000000000000E0),.UNSPECIFIED.);
#91=DEFINITIONAL_REPRESENTATION('',(#90),#87);
#92=PCURVE('',#43,#91);
#93=CARTESIAN_POINT('',(1.00000000000000000E0,1.00000000000000000E0));
#94=CARTESIAN_POINT('',(0.00000000000000000E0,1.00000000000000000E0));
#95=B_SPLINE_CURVE_WITH_KNOTS('',1,(#93,#94),.UNSPECIFIED.,.F.,.F.,(2,2),(0.00000000000000000E0,1.00000000000000000E0),.UNSPECIFIED.);
#96=DEFINITIONAL_REPRESENTATION('',(#95),#87);
#97=PCURVE('',#43,#96);
#98=CARTESIAN_POINT('',(0.00000000000000000E0,1.00000000000000000E0));
#99=CARTESIAN_POINT('',(0.00000000000000000E0,3.33333333333333315E-1));
#100=B_SPLINE_CURVE_WITH_KNOTS('',1,(#98,#99),.UNSPECIFIED.,.F.,.F.,(2,2),(0.00000000000000000E0,1.00000000000000000E0),.UNSPECIFIED.);
#101=DEFINITIONAL_REPRESENTATION('',(#100),#87);
#102=PCURVE('',#43,#101);
#103=CARTESIAN_POINT('',(0.00000000000000000E0,3.33333333333333315E-1));
#104=CARTESIAN_POINT('',(5.00000000000000000E-1,0.00000000000000000E0));
#105=CARTESIAN_POINT('',(1.00000000000000000E0,3.33333333333333315E-1));
#106=B_SPLINE_CURVE_WITH_KNOTS('',2,(#103,#104,#105),.UNSPECIFIED.,.F.,.F.,(3,3),(0.00000000000000000E0,1.00000000000000000E0),.UNSPECIFIED.);
#107=DEFINITIONAL_REPRESENTATION('',(#106),#87);
#108=PCURVE('',#43,#107);
#109=CARTESIAN_POINT('',(0.00000000000000000E0,3.33333333333333315E-1));
#110=CARTESIAN_POINT('',(5.00000000000000000E-1,0.00000000000000000E0));
#111=CARTESIAN_POINT('',(1.00000000000000000E0,3.33333333333333315E-1));
#112=B_SPLINE_CURVE_WITH_KNOTS('',2,(#109,#110,#111),.UNSPECIFIED.,.F.,.F.,(3,3),(0.00000000000000000E0,1.00000000000000000E0),.UNSPECIFIED.);
#113=DEFINITIONAL_REPRESENTATION('',(#112),#87);
#114=PCURVE('',#48,#113);
#115=CARTESIAN_POINT('',(1.00000000000000000E0,3.33333333333333315E-1));
#116=CARTESIAN_POINT('',(1.00000000000000000E0,1.00000000000000000E0));
#117=B_SPLINE_CURVE_WITH_KNOTS('',1,(#115,#116),.UNSPECIFIED.,.F.,.F.,(2,2),(0.00000000000000000E0,1.00000000000000000E0),.UNSPECIFIED.);
#118=DEFINITIONAL_REPRESENTATION('',(#117),#87);
#119=PCURVE('',#48,#118);
#120=CARTESIAN_POINT('',(1.00000000000000000E0,1.00000000000000000E0));
#121=CARTESIAN_POINT('',(0.00000000000000000E0,1.00000000000000000E0));
#122=B_SPLINE_CURVE_WITH_KNOTS('',1,(#120,#121),.UNSPECIFIED.,.F.,.F.,(2,2),(0.00000000000000000E0,1.00000000000000000E0),.UNSPECIFIED.);
#123=DEFINITIONAL_REPRESENTATION('',(#122),#87);
#124=PCURVE('',#48,#123);
#125=CARTESIAN_POINT('',(0.00000000000000000E0,1.00000000000000000E0));
#126=CARTESIAN_POINT('',(0.00000000000000000E0,3.33333333333333315E-1));
#127=B_SPLINE_CURVE_WITH_KNOTS('',1,(#125,#126),.UNSPECIFIED.,.F.,.F.,(2,2),(0.00000000000000000E0,1.00000000000000000E0),.UNSPECIFIED.);
#128=DEFINITIONAL_REPRESENTATION('',(#127),#87);
#129=PCURVE('',#48,#128);
#130=CARTESIAN_POINT('',(0.00000000000000000E0,0.00000000000000000E0));
#131=CARTESIAN_POINT('',(1.00000000000000000E0,0.00000000000000000E0));
#132=B_SPLINE_CURVE_WITH_KNOTS('',1,(#130,#131),.UNSPECIFIED.,.F.,.F.,(2,2),(0.00000000000000000E0,1.00000000000000000E0),.UNSPECIFIED.);
#133=DEFINITIONAL_REPRESENTATION('',(#132),#87);
#134=PCURVE('',#23,#133);
#135=CARTESIAN_POINT('',(1.00000000000000000E0,0.00000000000000000E0));
#136=CARTESIAN_POINT('',(1.00000000000000000E0,1.00000000000000000E0));
#137=B_SPLINE_CURVE_WITH_KNOTS('',1,(#135,#136),.UNSPECIFIED.,.F.,.F.,(2,2),(0.00000000000000000E0,1.00000000000000000E0),.UNSPECIFIED.);
#138=DEFINITIONAL_REPRESENTATION('',(#137),#87);
#139=PCURVE('',#23,#138);
#140=CARTESIAN_POINT('',(1.00000000000000000E0,1.00000000000000000E0));
#141=CARTESIAN_POINT('',(0.00000000000000000E0,1.00000000000000000E0));
#142=B_SPLINE_CURVE_WITH_KNOTS('',1,(#140,#141),.UNSPECIFIED.,.F.,.F.,(2,2),(0.00000000000000000E0,1.00000000000000000E0),.UNSPECIFIED.);
#143=DEFINITIONAL_REPRESENTATION('',(#142),#87);
#144=PCURVE('',#23,#143);
#145=CARTESIAN_POINT('',(0.00000000000000000E0,1.00000000000000000E0));
#146=CARTESIAN_POINT('',(0.00000000000000000E0,0.00000000000000000E0));
#147=B_SPLINE_CURVE_WITH_KNOTS('',1,(#145,#146),.UNSPECIFIED.,.F.,.F.,(2,2),(0.00000000000000000E0,1.00000000000000000E0),.UNSPECIFIED.);
#148=DEFINITIONAL_REPRESENTATION('',(#147),#87);
#149=PCURVE('',#23,#148);
#150=CARTESIAN_POINT('',(0.00000000000000000E0,0.00000000000000000E0));
#151=CARTESIAN_POINT('',(1.00000000000000000E0,0.00000000000000000E0));
#152=B_SPLINE_CURVE_WITH_KNOTS('',1,(#150,#151),.UNSPECIFIED.,.F.,.F.,(2,2),(0.00000000000000000E0,1.00000000000000000E0),.UNSPECIFIED.);
#153=DEFINITIONAL_REPRESENTATION('',(#152),#87);
#154=PCURVE('',#28,#153);
#155=CARTESIAN_POINT('',(1.00000000000000000E0,0.00000000000000000E0));
#156=CARTESIAN_POINT('',(1.00000000000000000E0,1.00000000000000000E0));
#157=B_SPLINE_CURVE_WITH_KNOTS('',1,(#155,#156),.UNSPECIFIED.,.F.,.F.,(2,2),(0.00000000000000000E0,1.00000000000000000E0),.UNSPECIFIED.);
#158=DEFINITIONAL_REPRESENTATION('',(#157),#87);
#159=PCURVE('',#28,#158);
#160=CARTESIAN_POINT('',(1.00000000000000000E0,1.00000000000000000E0));
#161=CARTESIAN_POINT('',(0.00000000000000000E0,1.00000000000000000E0));
#162=B_SPLINE_CURVE_WITH_KNOTS('',1,(#160,#161),.UNSPECIFIED.,.F.,.F.,(2,2),(0.00000000000000000E0,1.00000000000000000E0),.UNSPECIFIED.);
#163=DEFINITIONAL_REPRESENTATION('',(#162),#87);
#164=PCURVE('',#28,#163);
#165=CARTESIAN_POINT('',(0.00000000000000000E0,1.00000000000000000E0));
#166=CARTESIAN_POINT('',(0.00000000000000000E0,0.00000000000000000E0));
#167=B_SPLINE_CURVE_WITH_KNOTS('',1,(#165,#166),.UNSPECIFIED.,.F.,.F.,(2,2),(0.00000000000000000E0,1.00000000000000000E0),.UNSPECIFIED.);
#168=DEFINITIONAL_REPRESENTATION('',(#167),#87);
#169=PCURVE('',#28,#168);
#170=CARTESIAN_POINT('',(0.00000000000000000E0,0.00000000000000000E0));
#171=CARTESIAN_POINT('',(1.00000000000000000E0,0.00000000000000000E0));
#172=B_SPLINE_CURVE_WITH_KNOTS('',1,(#170,#171),.UNSPECIFIED.,.F.,.F.,(2,2),(0.00000000000000000E0,1.00000000000000000E0),.UNSPECIFIED.);
#173=DEFINITIONAL_REPRESENTATION('',(#172),#87);
#174=PCURVE('',#33,#173);
#175=CARTESIAN_POINT('',(1.00000000000000000E0,0.00000000000000000E0));
#176=CARTESIAN_POINT('',(1.00000000000000000E0,1.00000000000000000E0));
#177=B_SPLINE_CURVE_WITH_KNOTS('',1,(#175,#176),.UNSPECIFIED.,.F.,.F.,(2,2),(0.00000000000000000E0,1.00000000000000000E0),.UNSPECIFIED.);
#178=DEFINITIONAL_REPRESENTATION('',(#177),#87);
#179=PCURVE('',#33,#178);
#180=CARTESIAN_POINT('',(1.00000000000000000E0,1.00000000000000000E0));
#181=CARTESIAN_POINT('',(0.00000000000000000E0,1.00000000000000000E0));
#182=B_SPLINE_CURVE_WITH_KNOTS('',1,(#180,#181),.UNSPECIFIED.,.F.,.F.,(2,2),(0.00000000000000000E0,1.00000000000000000E0),.UNSPECIFIED.);
#183=DEFINITIONAL_REPRESENTATION('',(#182),#87);
#184=PCURVE('',#33,#183);
#185=CARTESIAN_POINT('',(0.00000000000000000E0,1.00000000000000000E0));
#186=CARTESIAN_POINT('',(0.00000000000000000E0,0.00000000000000000E0));
#187=B_SPLINE_CURVE_WITH_KNOTS('',1,(#185,#186),.UNSPECIFIED.,.F.,.F.,(2,2),(0.00000000000000000E0,1.00000000000000000E0),.UNSPECIFIED.);
#188=DEFINITIONAL_REPRESENTATION('',(#187),#87);
#189=PCURVE('',#33,#188);
#190=CARTESIAN_POINT('',(0.00000000000000000E0,0.00000000000000000E0));
#191=CARTESIAN_POINT('',(1.00000000000000000E0,0.00000000000000000E0));
#192=B_SPLINE_CURVE_WITH_KNOTS('',1,(#190,#191),.UNSPECIFIED.,.F.,.F.,(2,2),(0.00000000000000000E0,1.00000000000000000E0),.UNSPECIFIED.);
#193=DEFINITIONAL_REPRESENTATION('',(#192),#87);
#194=PCURVE('',#38,#193);
#195=CARTESIAN_POINT('',(1.00000000000000000E0,0.00000000000000000E0));
#196=CARTESIAN_POINT('',(1.00000000000000000E0,1.00000000000000000E0));
#197=B_SPLINE_CURVE_WITH_KNOTS('',1,(#195,#196),.UNSPECIFIED.,.F.,.F.,(2,2),(0.00000000000000000E0,1.00000000000000000E0),.UNSPECIFIED.);
#198=DEFINITIONAL_REPRESENTATION('',(#197),#87);
#199=PCURVE('',#38,#198);
#200=CARTESIAN_POINT('',(1.00000000000000000E0,1.00000000000000000E0));
#201=CARTESIAN_POINT('',(0.00000000000000000E0,1.00000000000000000E0));
#202=B_SPLINE_CURVE_WITH_KNOTS('',1,(#200,#201),.UNSPECIFIED.,.F.,.F.,(2,2),(0.00000000000000000E0,1.00000000000000000E0),.UNSPECIFIED.);
#203=DEFINITIONAL_REPRESENTATION('',(#202),#87);
#204=PCURVE('',#38,#203);
#205=CARTESIAN_POINT('',(0.00000000000000000E0,1.00000000000000000E0));
#206=CARTESIAN_POINT('',(0.00000000000000000E0,0.00000000000000000E0));
#207=B_SPLINE_CURVE_WITH_KNOTS('',1,(#205,#206),.UNSPECIFIED.,.F.,.F.,(2,2),(0.00000000000000000E0,1.00000000000000000E0),.UNSPECIFIED.);
#208=DEFINITIONAL_REPRESENTATION('',(#207),#87);
#209=PCURVE('',#38,#208);
#210=SURFACE_CURVE('',#52,(#108,#134),.PCURVE_S1.);
#211=EDGE_CURVE('OSCAD_TOPO/3|edge|e:db31dd167a9f4535bddfd159368946c4|bc163bb37519ed3a6338769d3430624dd2d14c1ed28769e81f0309dc5bedb391',#2,#6,#210,.T.);
#212=SURFACE_CURVE('',#56,(#114,#144),.PCURVE_S1.);
#213=EDGE_CURVE('OSCAD_TOPO/3|edge|e:867a77d8d180c8dda54f9222e9dc8e8a|bee5f895d0d590a342a1364cd5ab12521b6c7209de8fa64211d6785324c71513',#4,#8,#212,.T.);
#214=SURFACE_CURVE('',#59,(#149,#199),.PCURVE_S1.);
#215=EDGE_CURVE('OSCAD_TOPO/3|edge|e:079caa78c187fd597def57a809c813d8|41c8414f431f4e1018d7b793cad282292b024e0d90de4263692164f0d84829cb',#2,#4,#214,.T.);
#216=SURFACE_CURVE('',#62,(#102,#154),.PCURVE_S1.);
#217=EDGE_CURVE('OSCAD_TOPO/3|edge|e:4c42159c9a7c24426a7f346d879d6cc4|aba299730c03c3c94d44a745e90461a7333fd355f1d346908ac068ea5bea8262',#6,#10,#216,.T.);
#218=SURFACE_CURVE('',#65,(#119,#164),.PCURVE_S1.);
#219=EDGE_CURVE('OSCAD_TOPO/3|edge|e:2daa6fea5e2499c7fa30623fdaa075a2|dac20f00ee44507edb83bb5b700a15d92660159975df12351a2cbd0540e58279',#8,#12,#218,.T.);
#220=SURFACE_CURVE('',#68,(#139,#169),.PCURVE_S1.);
#221=EDGE_CURVE('OSCAD_TOPO/3|edge|e:00a028ff901429f0b04c059df9e6773b|7acee695e21babd4d6943bbe8763f32e09aaf9ba5937ce5df6eca9df93c95939',#6,#8,#220,.T.);
#222=SURFACE_CURVE('',#71,(#97,#174),.PCURVE_S1.);
#223=EDGE_CURVE('OSCAD_TOPO/3|edge|e:bfb90be8cf0e109d7c65bec1c4b36160|288fc2d2f2c4f80f8e3721150c40de759bb0dddfba0d5c0f5c9e8255422c4e6c',#10,#14,#222,.T.);
#224=SURFACE_CURVE('',#74,(#124,#184),.PCURVE_S1.);
#225=EDGE_CURVE('OSCAD_TOPO/3|edge|e:9a0378fd80f3a5356b6e26f47b4af869|3c8c9fe02a5fa136d12543453f6894e653f42094e5ba8d69282c14c414ad3042',#12,#16,#224,.T.);
#226=SURFACE_CURVE('',#77,(#159,#189),.PCURVE_S1.);
#227=EDGE_CURVE('OSCAD_TOPO/3|edge|e:9190eb44c2d1108bd1ff71aa9acf878b|caee3522ae51ddb35565af1fd098f9019286aa12e7a1c398b638952272b2bc06',#10,#12,#226,.T.);
#228=SURFACE_CURVE('',#80,(#92,#194),.PCURVE_S1.);
#229=EDGE_CURVE('OSCAD_TOPO/3|edge|e:4f7784c4ad4dc96af6416cfefc765528|e20a5c600b0c26b822d895e04e0a6e6a89bf97fd0224e125015844df7103366a',#14,#2,#228,.T.);
#230=SURFACE_CURVE('',#83,(#129,#204),.PCURVE_S1.);
#231=EDGE_CURVE('OSCAD_TOPO/3|edge|e:b1981a4987e83d79b197aadb51b9a6c8|094ea69214beda52a7003e395c8acfbe3efeb10846e65a7cd3ceb50417f20ee8',#16,#4,#230,.T.);
#232=SURFACE_CURVE('',#86,(#179,#209),.PCURVE_S1.);
#233=EDGE_CURVE('OSCAD_TOPO/3|edge|e:969578dd5e20b086ed96cdc29c3dfbac|8c09b178c344d39fbe7a139220f38799f5edb015556c4e28f9956887b6996805',#14,#16,#232,.T.);
#234=ORIENTED_EDGE('',*,*,#229,.F.);
#235=ORIENTED_EDGE('',*,*,#223,.F.);
#236=ORIENTED_EDGE('',*,*,#217,.F.);
#237=ORIENTED_EDGE('',*,*,#211,.F.);
#238=EDGE_LOOP('OSCAD_TOPO/3|loop|l:76ef07daca1f9cc9a051d5872cea14a2|80f58ac9867ffa94ff279a86f6d622ecd576f5d1193d7427e3401e69e8562940',(#234,#235,#236,#237));
#239=ORIENTED_EDGE('',*,*,#213,.T.);
#240=ORIENTED_EDGE('',*,*,#219,.T.);
#241=ORIENTED_EDGE('',*,*,#225,.T.);
#242=ORIENTED_EDGE('',*,*,#231,.T.);
#243=EDGE_LOOP('OSCAD_TOPO/3|loop|l:8d98126c3d69de44cbd37226d7959370|97e10c6a07826d60d7729ca34897e45df8188ec3626dd8dc29d49b8d76253c39',(#239,#240,#241,#242));
#244=ORIENTED_EDGE('',*,*,#211,.T.);
#245=ORIENTED_EDGE('',*,*,#221,.T.);
#246=ORIENTED_EDGE('',*,*,#213,.F.);
#247=ORIENTED_EDGE('',*,*,#215,.F.);
#248=EDGE_LOOP('OSCAD_TOPO/3|loop|l:2b5eb1991596386cab61b5541071e856|76f8b03c39f528e42a790e9d2cee4ebd665f35bb1563adf48ecfc70b2f9b6297',(#244,#245,#246,#247));
#249=ORIENTED_EDGE('',*,*,#217,.T.);
#250=ORIENTED_EDGE('',*,*,#227,.T.);
#251=ORIENTED_EDGE('',*,*,#219,.F.);
#252=ORIENTED_EDGE('',*,*,#221,.F.);
#253=EDGE_LOOP('OSCAD_TOPO/3|loop|l:96ef477747542178b3f9fa8d84a5cdda|f4156eda9dd046a0b2de63f07b97fd88560611c4be71411169df489193f039b2',(#249,#250,#251,#252));
#254=ORIENTED_EDGE('',*,*,#223,.T.);
#255=ORIENTED_EDGE('',*,*,#233,.T.);
#256=ORIENTED_EDGE('',*,*,#225,.F.);
#257=ORIENTED_EDGE('',*,*,#227,.F.);
#258=EDGE_LOOP('OSCAD_TOPO/3|loop|l:9672364eca4472d958eb0e516e278bd8|c7e5d155dfa0d10242c310769463d26ef1be1688f52d17a520b7178d695b82d1',(#254,#255,#256,#257));
#259=ORIENTED_EDGE('',*,*,#229,.T.);
#260=ORIENTED_EDGE('',*,*,#215,.T.);
#261=ORIENTED_EDGE('',*,*,#231,.F.);
#262=ORIENTED_EDGE('',*,*,#233,.F.);
#263=EDGE_LOOP('OSCAD_TOPO/3|loop|l:ea50615870a59e005f5338782cbeb8d8|87d427e8ab509b832b1fe9152d92b7a2d743e8e141772cb58a4a84554060fc2f',(#259,#260,#261,#262));
#264=FACE_OUTER_BOUND('',#248,.T.);
#265=ADVANCED_FACE('OSCAD_TOPO/3|face|f:014c69313887faa63986d258794003cc|0e74a88fd62b29c6954a830efb3441769d2a87dd0d3db62046661463523bec3e',(#264),#23,.T.);
#266=FACE_OUTER_BOUND('',#253,.T.);
#267=ADVANCED_FACE('OSCAD_TOPO/3|face|f:8b5e9476f4f7a7120d1ea50ad1e18774|2337faaa4f90d0d99d9b577132f0d4894a45ce883e3b59778f8db6aaaa40f4c8',(#266),#28,.T.);
#268=FACE_OUTER_BOUND('',#258,.T.);
#269=ADVANCED_FACE('OSCAD_TOPO/3|face|f:c3b3dcb1590940ef90e9282eb896d593|e210dbd2c532ca8977d2d1244ffd49593c2f91789cf7111bb8f7427847495336',(#268),#33,.T.);
#270=FACE_OUTER_BOUND('',#263,.T.);
#271=ADVANCED_FACE('OSCAD_TOPO/3|face|f:f1388f8e5c7d8851f922c8e23d34c8fe|d702ff8db129864be3e545e0749fcf85530678592d87ed3412094e244f210f2f',(#270),#38,.T.);
#272=FACE_OUTER_BOUND('',#238,.T.);
#273=ADVANCED_FACE('OSCAD_TOPO/3|face|f:e29b6bb5c2d94e4ddd6b1877945ebb71|5fc61dfaac7782e63e60ffa35971c2c623a94c184b115fbcb9bef009a93240cd',(#272),#43,.T.);
#274=FACE_OUTER_BOUND('',#243,.T.);
#275=ADVANCED_FACE('OSCAD_TOPO/3|face|f:aeea5487b282774bf9ec455d93c267ca|714a3bae95dd430da537db72e6d0498d2c88e7f5e1ad14985e1e261c6bf8394b',(#274),#48,.T.);
#276=CLOSED_SHELL('OSCAD_TOPO/3|shell|s:c0ccb77ca50e67e32ee5daab72a137ce|e5140a99747c1f94c094b3f95cb1cc799f662253c31b7baf6e2d1e1e5b06765e',(#265,#267,#269,#271,#273,#275));
#277=MANIFOLD_SOLID_BREP('OSCAD_TOPO/3|body|b:a3d63bd8395fe17542095d8096c907ad|41860d22d0b49b6c0bfea4ba51bef1228ed1b317c2b2f349a433de61ba41292e',#276);
#278=(LENGTH_UNIT()NAMED_UNIT(*)SI_UNIT(.MILLI.,.METRE.));
#279=UNCERTAINTY_MEASURE_WITH_UNIT(LENGTH_MEASURE(9.99999999999999955E-8),#278,'distance_accuracy_value','');
#280=(GEOMETRIC_REPRESENTATION_CONTEXT(3)GLOBAL_UNCERTAINTY_ASSIGNED_CONTEXT((#279))GLOBAL_UNIT_ASSIGNED_CONTEXT((#278))REPRESENTATION_CONTEXT('','3D'));
#281=ADVANCED_BREP_SHAPE_REPRESENTATION('',(#277),#280);
#282=APPLICATION_CONTEXT('managed model based 3d engineering');
#283=PRODUCT_CONTEXT('',#282,'mechanical');
#284=PRODUCT('model','model','',(#283));
#285=PRODUCT_DEFINITION_FORMATION('1','',#284);
#286=PRODUCT_DEFINITION_CONTEXT('part definition',#282,'design');
#287=PRODUCT_DEFINITION('design','',#285,#286);
#288=PRODUCT_DEFINITION_SHAPE('','',#287);
#289=SHAPE_DEFINITION_REPRESENTATION(#288,#281);
ENDSEC;
END-ISO-10303-21;
