ISO-10303-21;
HEADER;
FILE_DESCRIPTION(('OpenSCAD Viewer retained AP242 B-rep'),'2;1');
FILE_NAME('model.step','',(''),(''),'OpenSCAD Viewer','OpenSCAD Viewer','');
FILE_SCHEMA(('AP242_MANAGED_MODEL_BASED_3D_ENGINEERING_MIM_LF'));
ENDSEC;
DATA;
#1=CARTESIAN_POINT('',(0.00000000000000000E0,0.00000000000000000E0,0.00000000000000000E0));
#2=VERTEX_POINT('OSCAD_TOPO/3|vertex|v:2301485b2aa5130a3ffa2c3d4ddce85f|191be695419e636e18cadbd25849313dc09d01169bcb85a989c23a0b6cf87b5c',#1);
#3=CARTESIAN_POINT('',(2.00000000000000036E1,0.00000000000000000E0,0.00000000000000000E0));
#4=VERTEX_POINT('OSCAD_TOPO/3|vertex|v:42b1443b33321b9d7122158b84be5fe4|eaf42d4385333df99de5738cdaf0fa637e8399fb9bb9ccce78f91630574f5d72',#3);
#5=CARTESIAN_POINT('',(2.00000000000000036E1,0.00000000000000000E0,4.00000000000000071E1));
#6=VERTEX_POINT('OSCAD_TOPO/3|vertex|v:3c6f611241fe0eb650c922852b776f10|cc7a92bf3ee810ffe34584bbad9d5cdbec981094f74c4e917a9c10fa406aed01',#5);
#7=CARTESIAN_POINT('',(0.00000000000000000E0,0.00000000000000000E0,4.00000000000000000E1));
#8=VERTEX_POINT('OSCAD_TOPO/3|vertex|v:a32c3fed1ddd192ef15f5ac06826b00c|d54395ab2a55a963f583094a42b455dafe004a7570c7e8458020abb620905b3f',#7);
#9=CARTESIAN_POINT('',(0.00000000000000000E0,0.00000000000000000E0,0.00000000000000000E0));
#10=CARTESIAN_POINT('',(0.00000000000000000E0,0.00000000000000000E0,1.60000000000000036E1));
#11=CARTESIAN_POINT('',(0.00000000000000000E0,0.00000000000000000E0,2.66666666666666679E1));
#12=CARTESIAN_POINT('',(0.00000000000000000E0,0.00000000000000000E0,3.42857142857142847E1));
#13=CARTESIAN_POINT('',(0.00000000000000000E0,0.00000000000000000E0,4.00000000000000000E1));
#14=CARTESIAN_POINT('',(5.21739130434782705E0,0.00000000000000000E0,0.00000000000000000E0));
#15=CARTESIAN_POINT('',(5.21739130434782705E0,0.00000000000000000E0,1.80869565217391397E1));
#16=CARTESIAN_POINT('',(3.76811594202898670E0,0.00000000000000000E0,2.91787439613526622E1));
#17=CARTESIAN_POINT('',(8.69565217391304879E-1,0.00000000000000000E0,3.40372670807453375E1));
#18=CARTESIAN_POINT('',(8.69565217391304435E-1,0.00000000000000000E0,4.00000000000000000E1));
#19=CARTESIAN_POINT('',(9.53271028037383239E0,0.00000000000000000E0,0.00000000000000000E0));
#20=CARTESIAN_POINT('',(9.53271028037383239E0,0.00000000000000000E0,1.98130841121495358E1));
#21=CARTESIAN_POINT('',(7.04049844236759981E0,0.00000000000000000E0,3.12980269989615785E1));
#22=CARTESIAN_POINT('',(2.05607476635514042E0,0.00000000000000000E0,3.36982643524699554E1));
#23=CARTESIAN_POINT('',(2.05607476635514042E0,0.00000000000000000E0,4.00000000000000000E1));
#24=CARTESIAN_POINT('',(1.29479768786127174E1,0.00000000000000000E0,0.00000000000000000E0));
#25=CARTESIAN_POINT('',(1.29479768786127174E1,0.00000000000000000E0,2.11791907514450912E1));
#26=CARTESIAN_POINT('',(9.86512524084778342E0,0.00000000000000000E0,3.29993577392421358E1));
#27=CARTESIAN_POINT('',(3.69942196531791856E0,0.00000000000000000E0,3.32287365813377349E1));
#28=CARTESIAN_POINT('',(3.69942196531791678E0,0.00000000000000000E0,4.00000000000000000E1));
#29=CARTESIAN_POINT('',(1.55910543130990416E1,0.00000000000000000E0,0.00000000000000000E0));
#30=CARTESIAN_POINT('',(1.55910543130990380E1,0.00000000000000000E0,2.22364217252396195E1));
#31=CARTESIAN_POINT('',(1.23961661341853002E1,0.00000000000000000E0,3.42917997870074558E1));
#32=CARTESIAN_POINT('',(6.00638977635782645E0,0.00000000000000000E0,3.25696029210406195E1));
#33=CARTESIAN_POINT('',(6.00638977635782556E0,0.00000000000000000E0,4.00000000000000000E1));
#34=CARTESIAN_POINT('',(1.75796178343949023E1,0.00000000000000000E0,0.00000000000000000E0));
#35=CARTESIAN_POINT('',(1.75796178343949059E1,0.00000000000000000E0,2.30318471337579567E1));
#36=CARTESIAN_POINT('',(1.48195329087048862E1,0.00000000000000000E0,3.51592356687898118E1));
#37=CARTESIAN_POINT('',(9.29936305732484136E0,0.00000000000000000E0,3.16287534121929106E1));
#38=CARTESIAN_POINT('',(9.29936305732483781E0,0.00000000000000000E0,4.00000000000000071E1));
#39=CARTESIAN_POINT('',(1.90000000000000036E1,0.00000000000000000E0,0.00000000000000000E0));
#40=CARTESIAN_POINT('',(1.90000000000000036E1,0.00000000000000000E0,2.35999999999999943E1));
#41=CARTESIAN_POINT('',(1.73333333333333357E1,0.00000000000000000E0,3.55555555555555500E1));
#42=CARTESIAN_POINT('',(1.40000000000000036E1,0.00000000000000000E0,3.02857142857142776E1));
#43=CARTESIAN_POINT('',(1.39999999999999982E1,0.00000000000000000E0,3.99999999999999858E1));
#44=CARTESIAN_POINT('',(2.00000000000000036E1,0.00000000000000000E0,0.00000000000000000E0));
#45=CARTESIAN_POINT('',(2.00000000000000000E1,0.00000000000000000E0,2.39999999999999964E1));
#46=CARTESIAN_POINT('',(1.99999999999999964E1,0.00000000000000000E0,3.55555555555555500E1));
#47=CARTESIAN_POINT('',(1.99999999999999964E1,0.00000000000000000E0,2.85714285714285658E1));
#48=CARTESIAN_POINT('',(2.00000000000000036E1,0.00000000000000000E0,4.00000000000000071E1));
#49=(BOUNDED_SURFACE()B_SPLINE_SURFACE(7,4,((#9,#10,#11,#12,#13),(#14,#15,#16,#17,#18),(#19,#20,#21,#22,#23),(#24,#25,#26,#27,#28),(#29,#30,#31,#32,#33),(#34,#35,#36,#37,#38),(#39,#40,#41,#42,#43),(#44,#45,#46,#47,#48)),.UNSPECIFIED.,.F.,.F.,.F.)B_SPLINE_SURFACE_WITH_KNOTS((8,8),(5,5),(0.00000000000000000E0,1.00000000000000000E0),(0.00000000000000000E0,1.00000000000000000E0),.UNSPECIFIED.)GEOMETRIC_REPRESENTATION_ITEM()RATIONAL_B_SPLINE_SURFACE(((1.25000000000000000E-1,1.56250000000000000E-1,1.87500000000000000E-1,2.18750000000000000E-1,2.50000000000000000E-1),(1.36904761904761918E-1,1.71130952380952384E-1,2.05357142857142877E-1,2.39583333333333370E-1,2.73809523809523836E-1),(1.41534391534391540E-1,1.76917989417989419E-1,2.12301587301587324E-1,2.47685185185185203E-1,2.83068783068783081E-1),(1.37301587301587313E-1,1.71626984126984128E-1,2.05952380952380970E-1,2.40277777777777812E-1,2.74603174603174627E-1),(1.24206349206349209E-1,1.55257936507936511E-1,1.86309523809523814E-1,2.17361111111111116E-1,2.48412698412698418E-1),(1.03835978835978837E-1,1.29794973544973546E-1,1.55753968253968256E-1,1.81712962962962965E-1,2.07671957671957674E-1),(7.93650793650793746E-2,9.92063492063492147E-2,1.19047619047619069E-1,1.38888888888888895E-1,1.58730158730158749E-1),(5.55555555555555525E-2,6.94444444444444475E-2,8.33333333333333287E-2,9.72222222222222099E-2,1.11111111111111105E-1)))REPRESENTATION_ITEM('')SURFACE());
#50=CARTESIAN_POINT('',(0.00000000000000000E0,0.00000000000000000E0,0.00000000000000000E0));
#51=CARTESIAN_POINT('',(5.21739130434782705E0,0.00000000000000000E0,0.00000000000000000E0));
#52=CARTESIAN_POINT('',(9.53271028037383239E0,0.00000000000000000E0,0.00000000000000000E0));
#53=CARTESIAN_POINT('',(1.29479768786127174E1,0.00000000000000000E0,0.00000000000000000E0));
#54=CARTESIAN_POINT('',(1.55910543130990416E1,0.00000000000000000E0,0.00000000000000000E0));
#55=CARTESIAN_POINT('',(1.75796178343949023E1,0.00000000000000000E0,0.00000000000000000E0));
#56=CARTESIAN_POINT('',(1.90000000000000036E1,0.00000000000000000E0,0.00000000000000000E0));
#57=CARTESIAN_POINT('',(2.00000000000000036E1,0.00000000000000000E0,0.00000000000000000E0));
#58=(BOUNDED_CURVE()B_SPLINE_CURVE(7,(#50,#51,#52,#53,#54,#55,#56,#57),.UNSPECIFIED.,.F.,.F.)B_SPLINE_CURVE_WITH_KNOTS((8,8),(0.00000000000000000E0,1.00000000000000000E0),.UNSPECIFIED.)CURVE()GEOMETRIC_REPRESENTATION_ITEM()RATIONAL_B_SPLINE_CURVE((1.25000000000000000E-1,1.36904761904761918E-1,1.41534391534391540E-1,1.37301587301587313E-1,1.24206349206349209E-1,1.03835978835978837E-1,7.93650793650793746E-2,5.55555555555555525E-2))REPRESENTATION_ITEM(''));
#59=CARTESIAN_POINT('',(2.00000000000000036E1,0.00000000000000000E0,0.00000000000000000E0));
#60=CARTESIAN_POINT('',(2.00000000000000000E1,0.00000000000000000E0,2.39999999999999964E1));
#61=CARTESIAN_POINT('',(1.99999999999999964E1,0.00000000000000000E0,3.55555555555555500E1));
#62=CARTESIAN_POINT('',(1.99999999999999964E1,0.00000000000000000E0,2.85714285714285658E1));
#63=CARTESIAN_POINT('',(2.00000000000000036E1,0.00000000000000000E0,4.00000000000000071E1));
#64=(BOUNDED_CURVE()B_SPLINE_CURVE(4,(#59,#60,#61,#62,#63),.UNSPECIFIED.,.F.,.F.)B_SPLINE_CURVE_WITH_KNOTS((5,5),(0.00000000000000000E0,1.00000000000000000E0),.UNSPECIFIED.)CURVE()GEOMETRIC_REPRESENTATION_ITEM()RATIONAL_B_SPLINE_CURVE((5.55555555555555525E-2,6.94444444444444475E-2,8.33333333333333287E-2,9.72222222222222099E-2,1.11111111111111105E-1))REPRESENTATION_ITEM(''));
#65=CARTESIAN_POINT('',(2.00000000000000036E1,0.00000000000000000E0,4.00000000000000071E1));
#66=CARTESIAN_POINT('',(1.39999999999999982E1,0.00000000000000000E0,3.99999999999999858E1));
#67=CARTESIAN_POINT('',(9.29936305732483781E0,0.00000000000000000E0,4.00000000000000071E1));
#68=CARTESIAN_POINT('',(6.00638977635782645E0,0.00000000000000000E0,4.00000000000000000E1));
#69=CARTESIAN_POINT('',(3.69942196531791723E0,0.00000000000000000E0,4.00000000000000000E1));
#70=CARTESIAN_POINT('',(2.05607476635513997E0,0.00000000000000000E0,4.00000000000000000E1));
#71=CARTESIAN_POINT('',(8.69565217391304657E-1,0.00000000000000000E0,4.00000000000000000E1));
#72=CARTESIAN_POINT('',(0.00000000000000000E0,0.00000000000000000E0,4.00000000000000000E1));
#73=(BOUNDED_CURVE()B_SPLINE_CURVE(7,(#65,#66,#67,#68,#69,#70,#71,#72),.UNSPECIFIED.,.F.,.F.)B_SPLINE_CURVE_WITH_KNOTS((8,8),(0.00000000000000000E0,1.00000000000000000E0),.UNSPECIFIED.)CURVE()GEOMETRIC_REPRESENTATION_ITEM()RATIONAL_B_SPLINE_CURVE((1.11111111111111105E-1,1.58730158730158749E-1,2.07671957671957674E-1,2.48412698412698418E-1,2.74603174603174627E-1,2.83068783068783081E-1,2.73809523809523836E-1,2.50000000000000000E-1))REPRESENTATION_ITEM(''));
#74=CARTESIAN_POINT('',(0.00000000000000000E0,0.00000000000000000E0,4.00000000000000000E1));
#75=CARTESIAN_POINT('',(0.00000000000000000E0,0.00000000000000000E0,3.42857142857142847E1));
#76=CARTESIAN_POINT('',(0.00000000000000000E0,0.00000000000000000E0,2.66666666666666679E1));
#77=CARTESIAN_POINT('',(0.00000000000000000E0,0.00000000000000000E0,1.60000000000000036E1));
#78=CARTESIAN_POINT('',(0.00000000000000000E0,0.00000000000000000E0,0.00000000000000000E0));
#79=(BOUNDED_CURVE()B_SPLINE_CURVE(4,(#74,#75,#76,#77,#78),.UNSPECIFIED.,.F.,.F.)B_SPLINE_CURVE_WITH_KNOTS((5,5),(0.00000000000000000E0,1.00000000000000000E0),.UNSPECIFIED.)CURVE()GEOMETRIC_REPRESENTATION_ITEM()RATIONAL_B_SPLINE_CURVE((2.50000000000000000E-1,2.18750000000000000E-1,1.87500000000000000E-1,1.56250000000000000E-1,1.25000000000000000E-1))REPRESENTATION_ITEM(''));
#80=(GEOMETRIC_REPRESENTATION_CONTEXT(2)REPRESENTATION_CONTEXT('','2D'));
#81=CARTESIAN_POINT('',(0.00000000000000000E0,0.00000000000000000E0));
#82=CARTESIAN_POINT('',(1.00000000000000000E0,0.00000000000000000E0));
#83=B_SPLINE_CURVE_WITH_KNOTS('',1,(#81,#82),.UNSPECIFIED.,.F.,.F.,(2,2),(0.00000000000000000E0,1.00000000000000000E0),.UNSPECIFIED.);
#84=DEFINITIONAL_REPRESENTATION('',(#83),#80);
#85=PCURVE('',#49,#84);
#86=CARTESIAN_POINT('',(1.00000000000000000E0,0.00000000000000000E0));
#87=CARTESIAN_POINT('',(1.00000000000000000E0,1.00000000000000000E0));
#88=B_SPLINE_CURVE_WITH_KNOTS('',1,(#86,#87),.UNSPECIFIED.,.F.,.F.,(2,2),(0.00000000000000000E0,1.00000000000000000E0),.UNSPECIFIED.);
#89=DEFINITIONAL_REPRESENTATION('',(#88),#80);
#90=PCURVE('',#49,#89);
#91=CARTESIAN_POINT('',(1.00000000000000000E0,1.00000000000000000E0));
#92=CARTESIAN_POINT('',(0.00000000000000000E0,1.00000000000000000E0));
#93=B_SPLINE_CURVE_WITH_KNOTS('',1,(#91,#92),.UNSPECIFIED.,.F.,.F.,(2,2),(0.00000000000000000E0,1.00000000000000000E0),.UNSPECIFIED.);
#94=DEFINITIONAL_REPRESENTATION('',(#93),#80);
#95=PCURVE('',#49,#94);
#96=CARTESIAN_POINT('',(0.00000000000000000E0,1.00000000000000000E0));
#97=CARTESIAN_POINT('',(0.00000000000000000E0,0.00000000000000000E0));
#98=B_SPLINE_CURVE_WITH_KNOTS('',1,(#96,#97),.UNSPECIFIED.,.F.,.F.,(2,2),(0.00000000000000000E0,1.00000000000000000E0),.UNSPECIFIED.);
#99=DEFINITIONAL_REPRESENTATION('',(#98),#80);
#100=PCURVE('',#49,#99);
#101=SURFACE_CURVE('',#58,(#85),.PCURVE_S1.);
#102=EDGE_CURVE('OSCAD_TOPO/3|edge|e:fe5cf6c7215979124bb1ccd23ae0cb0c|d03ff043a5a23a19afd32d4db6d95e6f640aafc360a52aaffd9ce4387007500e',#2,#4,#101,.T.);
#103=SURFACE_CURVE('',#64,(#90),.PCURVE_S1.);
#104=EDGE_CURVE('OSCAD_TOPO/3|edge|e:51a100bade7fdc014de8ec084795e26d|873d020f284b21dab5f4a0805b07eef4415c0799967df8881e1374525c12429d',#4,#6,#103,.T.);
#105=SURFACE_CURVE('',#73,(#95),.PCURVE_S1.);
#106=EDGE_CURVE('OSCAD_TOPO/3|edge|e:3b33f3a8d3474e310aaf7353ba60ef8d|79dacf4e09ffc8045cce45d354cf9ccc425cb25bc9c08369ad2d8e2b82be75b3',#6,#8,#105,.T.);
#107=SURFACE_CURVE('',#79,(#100),.PCURVE_S1.);
#108=EDGE_CURVE('OSCAD_TOPO/3|edge|e:aac6f8d3c6d5b07747d93059444055be|0e357bcf04ee7a71c29b2ecec19b04d76aa7cc07c6e6969954e679afef7a37ef',#8,#2,#107,.T.);
#109=ORIENTED_EDGE('',*,*,#102,.T.);
#110=ORIENTED_EDGE('',*,*,#104,.T.);
#111=ORIENTED_EDGE('',*,*,#106,.T.);
#112=ORIENTED_EDGE('',*,*,#108,.T.);
#113=EDGE_LOOP('OSCAD_TOPO/3|loop|l:3f48207e0f74f457e5394b8a91f8dc72|a3261a4d331ef6e63c81b4b9c7642ac15b39754e5dac4d4a131b729e0e2b4498',(#109,#110,#111,#112));
#114=FACE_OUTER_BOUND('',#113,.T.);
#115=ADVANCED_FACE('OSCAD_TOPO/3|face|f:9bea9a5b74fefc123d0a0c1acb2b6542|03f671c914cbebb75a64728728d912af61e4f10026ed8a05e0c8bbe059f5016f',(#114),#49,.T.);
#116=OPEN_SHELL('OSCAD_TOPO/3|shell|s:8d69d51a80a58c0842c4bfa1f36c402b|2076c22a75815b1ab3d3e182d00798339f999450b0fb92d01d1f4d5f496c390c',(#115));
#117=SHELL_BASED_SURFACE_MODEL('',(#116));
#118=(LENGTH_UNIT()NAMED_UNIT(*)SI_UNIT(.MILLI.,.METRE.));
#119=UNCERTAINTY_MEASURE_WITH_UNIT(LENGTH_MEASURE(9.99999999999999955E-8),#118,'distance_accuracy_value','');
#120=(GEOMETRIC_REPRESENTATION_CONTEXT(3)GLOBAL_UNCERTAINTY_ASSIGNED_CONTEXT((#119))GLOBAL_UNIT_ASSIGNED_CONTEXT((#118))REPRESENTATION_CONTEXT('','3D'));
#121=MANIFOLD_SURFACE_SHAPE_REPRESENTATION('',(#117),#120);
#122=APPLICATION_CONTEXT('managed model based 3d engineering');
#123=PRODUCT_CONTEXT('',#122,'mechanical');
#124=PRODUCT('model','model','',(#123));
#125=PRODUCT_DEFINITION_FORMATION('1','',#124);
#126=PRODUCT_DEFINITION_CONTEXT('part definition',#122,'design');
#127=PRODUCT_DEFINITION('design','',#125,#126);
#128=PRODUCT_DEFINITION_SHAPE('','',#127);
#129=SHAPE_DEFINITION_REPRESENTATION(#128,#121);
ENDSEC;
END-ISO-10303-21;
