ISO-10303-21;
HEADER;
FILE_DESCRIPTION(('OpenSCAD Viewer retained AP242 B-rep'),'2;1');
FILE_NAME('model.step','',(''),(''),'OpenSCAD Viewer','OpenSCAD Viewer','');
FILE_SCHEMA(('AP242_MANAGED_MODEL_BASED_3D_ENGINEERING_MIM_LF'));
ENDSEC;
DATA;
#1=CARTESIAN_POINT('',(1.00000000000000000E0,0.00000000000000000E0,0.00000000000000000E0));
#2=VERTEX_POINT('OSCAD_TOPO/3|vertex|v:befe2ea341ef65389fdccf7b3e2df3b0|8e25ccad3a3f68fd24d7b20fab6b4ed802a15355cd7e7b9022a346f61c6b204f',#1);
#3=CARTESIAN_POINT('',(0.00000000000000000E0,1.00000000000000000E0,0.00000000000000000E0));
#4=VERTEX_POINT('OSCAD_TOPO/3|vertex|v:ea50bfb34bc94adec88a40daad718837|ccf045df9afd484518927e20a45f460699644d9e56dbe284c8bfb528ad24b044',#3);
#5=CARTESIAN_POINT('',(-1.00000000000000000E0,0.00000000000000000E0,0.00000000000000000E0));
#6=VERTEX_POINT('OSCAD_TOPO/3|vertex|v:e8383cc89db6828ff6cd38365fafdb7a|a8f9ceebd71915287b6bd8226ad2cf519c9e2009450585131f66478870cca77a',#5);
#7=CARTESIAN_POINT('',(0.00000000000000000E0,-1.00000000000000000E0,0.00000000000000000E0));
#8=VERTEX_POINT('OSCAD_TOPO/3|vertex|v:b9e8a1ba3aca8032c502ad2732ee0068|85d46364e39a2881df434d484719627f0f3cec5c8502c3a53615813ffdce6ae9',#7);
#9=CARTESIAN_POINT('',(1.00000000000000000E0,0.00000000000000000E0,9.00000000000000000E0));
#10=VERTEX_POINT('OSCAD_TOPO/3|vertex|v:c31ca86787ea36a728b2e393aaa1e80a|dc2e91b98d3856bae31533cb160c9711fea38b3b2984ee884e8a9ab4d9d319f8',#9);
#11=CARTESIAN_POINT('',(0.00000000000000000E0,1.00000000000000000E0,1.00000000000000000E1));
#12=VERTEX_POINT('OSCAD_TOPO/3|vertex|v:c5ad3961a5ec04186b4eb078a1eb4267|8fd5977d95407c98cb2cf2c47bb7c0797d24b331e043ba04e1e79f57179791ad',#11);
#13=CARTESIAN_POINT('',(-1.00000000000000000E0,0.00000000000000000E0,1.10000000000000000E1));
#14=VERTEX_POINT('OSCAD_TOPO/3|vertex|v:683c8366210a60765f52e9df45fcdb44|88c410986e7b249e1448ea6afb75ff3729076a06285789705712817250818b28',#13);
#15=CARTESIAN_POINT('',(0.00000000000000000E0,-1.00000000000000000E0,1.00000000000000000E1));
#16=VERTEX_POINT('OSCAD_TOPO/3|vertex|v:f9cb672842e09535cab34adf8c90d6ca|cab2a4c2433aa00d2b9c6557cbb9c39964f6f00df60504f982c48bbf338524b8',#15);
#17=CARTESIAN_POINT('',(1.00000000000000000E1,0.00000000000000000E0,9.00000000000000000E0));
#18=VERTEX_POINT('OSCAD_TOPO/3|vertex|v:471d53f13c5534df1cc5a84f260e7728|ec8d9c61c49e291b2dae2163038c2f7e7fec8ee508ecaee5b0d65b2d0126bfb7',#17);
#19=CARTESIAN_POINT('',(1.00000000000000000E1,1.00000000000000000E0,1.00000000000000000E1));
#20=VERTEX_POINT('OSCAD_TOPO/3|vertex|v:380940061e2f22229b74a1b39c8bf40f|5af1b4fd4b88d1ec4499aebd90196eb28232671289e52514279bae9b9c03b14b',#19);
#21=CARTESIAN_POINT('',(1.00000000000000000E1,0.00000000000000000E0,1.10000000000000000E1));
#22=VERTEX_POINT('OSCAD_TOPO/3|vertex|v:836ff8ee6e05d29c9a4bf12373a2d147|f2e1acabde2b91ba7b13d248b25982e1b4b28a49742338c7870a6ebf979f120f',#21);
#23=CARTESIAN_POINT('',(1.00000000000000000E1,-1.00000000000000000E0,1.00000000000000000E1));
#24=VERTEX_POINT('OSCAD_TOPO/3|vertex|v:70b5ab66d8c763f3d88dd5b733e7aa48|d3a4d50254aad3cf37acc3603a7f972da00e5f5e6f1ad9f83c4f614e77c78342',#23);
#25=CARTESIAN_POINT('',(1.00000000000000000E0,0.00000000000000000E0,0.00000000000000000E0));
#26=CARTESIAN_POINT('',(1.00000000000000000E0,0.00000000000000000E0,1.81250000000000000E0));
#27=CARTESIAN_POINT('',(1.00000000000000000E0,0.00000000000000000E0,3.62500000000000000E0));
#28=CARTESIAN_POINT('',(1.00000000000000000E0,0.00000000000000000E0,5.37500000000000000E0));
#29=CARTESIAN_POINT('',(1.00000000000000000E0,0.00000000000000000E0,7.18750000000000000E0));
#30=CARTESIAN_POINT('',(1.00000000000000000E0,0.00000000000000000E0,9.00000000000000000E0));
#31=CARTESIAN_POINT('',(1.00000000000000000E0,1.00000000000000000E0,0.00000000000000000E0));
#32=CARTESIAN_POINT('',(1.00000000000000000E0,1.00000000000000000E0,1.81250000000000000E0));
#33=CARTESIAN_POINT('',(1.00000000000000000E0,1.00000000000000000E0,3.62500000000000000E0));
#34=CARTESIAN_POINT('',(1.00000000000000000E0,1.00000000000000000E0,5.37500000000000000E0));
#35=CARTESIAN_POINT('',(1.00000000000000000E0,1.00000000000000000E0,7.18750000000000000E0));
#36=CARTESIAN_POINT('',(1.00000000000000000E0,1.00000000000000000E0,9.00000000000000000E0));
#37=CARTESIAN_POINT('',(0.00000000000000000E0,1.00000000000000000E0,0.00000000000000000E0));
#38=CARTESIAN_POINT('',(0.00000000000000000E0,1.00000000000000000E0,2.00000000000000000E0));
#39=CARTESIAN_POINT('',(0.00000000000000000E0,1.00000000000000000E0,4.00000000000000000E0));
#40=CARTESIAN_POINT('',(0.00000000000000000E0,1.00000000000000000E0,6.00000000000000000E0));
#41=CARTESIAN_POINT('',(0.00000000000000000E0,1.00000000000000000E0,8.00000000000000000E0));
#42=CARTESIAN_POINT('',(0.00000000000000000E0,1.00000000000000000E0,1.00000000000000000E1));
#43=(BOUNDED_SURFACE()B_SPLINE_SURFACE(2,5,((#25,#26,#27,#28,#29,#30),(#31,#32,#33,#34,#35,#36),(#37,#38,#39,#40,#41,#42)),.UNSPECIFIED.,.F.,.F.,.F.)B_SPLINE_SURFACE_WITH_KNOTS((3,3),(6,6),(0.00000000000000000E0,1.00000000000000000E0),(0.00000000000000000E0,1.00000000000000000E0),.UNSPECIFIED.)GEOMETRIC_REPRESENTATION_ITEM()RATIONAL_B_SPLINE_SURFACE(((1.00000000000000000E0,1.00000000000000000E0,1.00000000000000000E0,1.00000000000000000E0,1.00000000000000000E0,1.00000000000000000E0),(7.07106781186547573E-1,7.07106781186547573E-1,7.07106781186547573E-1,7.07106781186547573E-1,7.07106781186547573E-1,7.07106781186547573E-1),(1.00000000000000000E0,1.00000000000000000E0,1.00000000000000000E0,1.00000000000000000E0,1.00000000000000000E0,1.00000000000000000E0)))REPRESENTATION_ITEM('')SURFACE());
#44=CARTESIAN_POINT('',(0.00000000000000000E0,1.00000000000000000E0,0.00000000000000000E0));
#45=CARTESIAN_POINT('',(0.00000000000000000E0,1.00000000000000000E0,2.00000000000000000E0));
#46=CARTESIAN_POINT('',(0.00000000000000000E0,1.00000000000000000E0,4.00000000000000000E0));
#47=CARTESIAN_POINT('',(0.00000000000000000E0,1.00000000000000000E0,6.00000000000000000E0));
#48=CARTESIAN_POINT('',(0.00000000000000000E0,1.00000000000000000E0,8.00000000000000000E0));
#49=CARTESIAN_POINT('',(0.00000000000000000E0,1.00000000000000000E0,1.00000000000000000E1));
#50=CARTESIAN_POINT('',(-1.00000000000000000E0,1.00000000000000000E0,0.00000000000000000E0));
#51=CARTESIAN_POINT('',(-1.00000000000000000E0,1.00000000000000000E0,2.18750000000000000E0));
#52=CARTESIAN_POINT('',(-1.00000000000000000E0,1.00000000000000000E0,4.37500000000000000E0));
#53=CARTESIAN_POINT('',(-1.00000000000000000E0,1.00000000000000000E0,6.62500000000000000E0));
#54=CARTESIAN_POINT('',(-1.00000000000000000E0,1.00000000000000000E0,8.81250000000000000E0));
#55=CARTESIAN_POINT('',(-1.00000000000000000E0,1.00000000000000000E0,1.10000000000000000E1));
#56=CARTESIAN_POINT('',(-1.00000000000000000E0,0.00000000000000000E0,0.00000000000000000E0));
#57=CARTESIAN_POINT('',(-1.00000000000000000E0,0.00000000000000000E0,2.18750000000000000E0));
#58=CARTESIAN_POINT('',(-1.00000000000000000E0,0.00000000000000000E0,4.37500000000000000E0));
#59=CARTESIAN_POINT('',(-1.00000000000000000E0,0.00000000000000000E0,6.62500000000000000E0));
#60=CARTESIAN_POINT('',(-1.00000000000000000E0,0.00000000000000000E0,8.81250000000000000E0));
#61=CARTESIAN_POINT('',(-1.00000000000000000E0,0.00000000000000000E0,1.10000000000000000E1));
#62=(BOUNDED_SURFACE()B_SPLINE_SURFACE(2,5,((#44,#45,#46,#47,#48,#49),(#50,#51,#52,#53,#54,#55),(#56,#57,#58,#59,#60,#61)),.UNSPECIFIED.,.F.,.F.,.F.)B_SPLINE_SURFACE_WITH_KNOTS((3,3),(6,6),(0.00000000000000000E0,1.00000000000000000E0),(0.00000000000000000E0,1.00000000000000000E0),.UNSPECIFIED.)GEOMETRIC_REPRESENTATION_ITEM()RATIONAL_B_SPLINE_SURFACE(((1.00000000000000000E0,1.00000000000000000E0,1.00000000000000000E0,1.00000000000000000E0,1.00000000000000000E0,1.00000000000000000E0),(7.07106781186547573E-1,7.07106781186547573E-1,7.07106781186547573E-1,7.07106781186547573E-1,7.07106781186547573E-1,7.07106781186547573E-1),(1.00000000000000000E0,1.00000000000000000E0,1.00000000000000000E0,1.00000000000000000E0,1.00000000000000000E0,1.00000000000000000E0)))REPRESENTATION_ITEM('')SURFACE());
#63=CARTESIAN_POINT('',(-1.00000000000000000E0,0.00000000000000000E0,0.00000000000000000E0));
#64=CARTESIAN_POINT('',(-1.00000000000000000E0,0.00000000000000000E0,2.18750000000000000E0));
#65=CARTESIAN_POINT('',(-1.00000000000000000E0,0.00000000000000000E0,4.37500000000000000E0));
#66=CARTESIAN_POINT('',(-1.00000000000000000E0,0.00000000000000000E0,6.62500000000000000E0));
#67=CARTESIAN_POINT('',(-1.00000000000000000E0,0.00000000000000000E0,8.81250000000000000E0));
#68=CARTESIAN_POINT('',(-1.00000000000000000E0,0.00000000000000000E0,1.10000000000000000E1));
#69=CARTESIAN_POINT('',(-1.00000000000000000E0,-1.00000000000000000E0,0.00000000000000000E0));
#70=CARTESIAN_POINT('',(-1.00000000000000000E0,-1.00000000000000000E0,2.18750000000000000E0));
#71=CARTESIAN_POINT('',(-1.00000000000000000E0,-1.00000000000000000E0,4.37500000000000000E0));
#72=CARTESIAN_POINT('',(-1.00000000000000000E0,-1.00000000000000000E0,6.62500000000000000E0));
#73=CARTESIAN_POINT('',(-1.00000000000000000E0,-1.00000000000000000E0,8.81250000000000000E0));
#74=CARTESIAN_POINT('',(-1.00000000000000000E0,-1.00000000000000000E0,1.10000000000000000E1));
#75=CARTESIAN_POINT('',(0.00000000000000000E0,-1.00000000000000000E0,0.00000000000000000E0));
#76=CARTESIAN_POINT('',(0.00000000000000000E0,-1.00000000000000000E0,2.00000000000000000E0));
#77=CARTESIAN_POINT('',(0.00000000000000000E0,-1.00000000000000000E0,4.00000000000000000E0));
#78=CARTESIAN_POINT('',(0.00000000000000000E0,-1.00000000000000000E0,6.00000000000000000E0));
#79=CARTESIAN_POINT('',(0.00000000000000000E0,-1.00000000000000000E0,8.00000000000000000E0));
#80=CARTESIAN_POINT('',(0.00000000000000000E0,-1.00000000000000000E0,1.00000000000000000E1));
#81=(BOUNDED_SURFACE()B_SPLINE_SURFACE(2,5,((#63,#64,#65,#66,#67,#68),(#69,#70,#71,#72,#73,#74),(#75,#76,#77,#78,#79,#80)),.UNSPECIFIED.,.F.,.F.,.F.)B_SPLINE_SURFACE_WITH_KNOTS((3,3),(6,6),(0.00000000000000000E0,1.00000000000000000E0),(0.00000000000000000E0,1.00000000000000000E0),.UNSPECIFIED.)GEOMETRIC_REPRESENTATION_ITEM()RATIONAL_B_SPLINE_SURFACE(((1.00000000000000000E0,1.00000000000000000E0,1.00000000000000000E0,1.00000000000000000E0,1.00000000000000000E0,1.00000000000000000E0),(7.07106781186547573E-1,7.07106781186547573E-1,7.07106781186547573E-1,7.07106781186547573E-1,7.07106781186547573E-1,7.07106781186547573E-1),(1.00000000000000000E0,1.00000000000000000E0,1.00000000000000000E0,1.00000000000000000E0,1.00000000000000000E0,1.00000000000000000E0)))REPRESENTATION_ITEM('')SURFACE());
#82=CARTESIAN_POINT('',(0.00000000000000000E0,-1.00000000000000000E0,0.00000000000000000E0));
#83=CARTESIAN_POINT('',(0.00000000000000000E0,-1.00000000000000000E0,2.00000000000000000E0));
#84=CARTESIAN_POINT('',(0.00000000000000000E0,-1.00000000000000000E0,4.00000000000000000E0));
#85=CARTESIAN_POINT('',(0.00000000000000000E0,-1.00000000000000000E0,6.00000000000000000E0));
#86=CARTESIAN_POINT('',(0.00000000000000000E0,-1.00000000000000000E0,8.00000000000000000E0));
#87=CARTESIAN_POINT('',(0.00000000000000000E0,-1.00000000000000000E0,1.00000000000000000E1));
#88=CARTESIAN_POINT('',(1.00000000000000000E0,-1.00000000000000000E0,0.00000000000000000E0));
#89=CARTESIAN_POINT('',(1.00000000000000000E0,-1.00000000000000000E0,1.81250000000000000E0));
#90=CARTESIAN_POINT('',(1.00000000000000000E0,-1.00000000000000000E0,3.62500000000000000E0));
#91=CARTESIAN_POINT('',(1.00000000000000000E0,-1.00000000000000000E0,5.37500000000000000E0));
#92=CARTESIAN_POINT('',(1.00000000000000000E0,-1.00000000000000000E0,7.18750000000000000E0));
#93=CARTESIAN_POINT('',(1.00000000000000000E0,-1.00000000000000000E0,9.00000000000000000E0));
#94=CARTESIAN_POINT('',(1.00000000000000000E0,0.00000000000000000E0,0.00000000000000000E0));
#95=CARTESIAN_POINT('',(1.00000000000000000E0,0.00000000000000000E0,1.81250000000000000E0));
#96=CARTESIAN_POINT('',(1.00000000000000000E0,0.00000000000000000E0,3.62500000000000000E0));
#97=CARTESIAN_POINT('',(1.00000000000000000E0,0.00000000000000000E0,5.37500000000000000E0));
#98=CARTESIAN_POINT('',(1.00000000000000000E0,0.00000000000000000E0,7.18750000000000000E0));
#99=CARTESIAN_POINT('',(1.00000000000000000E0,0.00000000000000000E0,9.00000000000000000E0));
#100=(BOUNDED_SURFACE()B_SPLINE_SURFACE(2,5,((#82,#83,#84,#85,#86,#87),(#88,#89,#90,#91,#92,#93),(#94,#95,#96,#97,#98,#99)),.UNSPECIFIED.,.F.,.F.,.F.)B_SPLINE_SURFACE_WITH_KNOTS((3,3),(6,6),(0.00000000000000000E0,1.00000000000000000E0),(0.00000000000000000E0,1.00000000000000000E0),.UNSPECIFIED.)GEOMETRIC_REPRESENTATION_ITEM()RATIONAL_B_SPLINE_SURFACE(((1.00000000000000000E0,1.00000000000000000E0,1.00000000000000000E0,1.00000000000000000E0,1.00000000000000000E0,1.00000000000000000E0),(7.07106781186547573E-1,7.07106781186547573E-1,7.07106781186547573E-1,7.07106781186547573E-1,7.07106781186547573E-1,7.07106781186547573E-1),(1.00000000000000000E0,1.00000000000000000E0,1.00000000000000000E0,1.00000000000000000E0,1.00000000000000000E0,1.00000000000000000E0)))REPRESENTATION_ITEM('')SURFACE());
#101=CARTESIAN_POINT('',(1.00000000000000000E0,0.00000000000000000E0,9.00000000000000000E0));
#102=CARTESIAN_POINT('',(2.81250000000000000E0,0.00000000000000000E0,9.00000000000000000E0));
#103=CARTESIAN_POINT('',(4.62500000000000000E0,0.00000000000000000E0,9.00000000000000000E0));
#104=CARTESIAN_POINT('',(6.37500000000000000E0,0.00000000000000000E0,9.00000000000000000E0));
#105=CARTESIAN_POINT('',(8.18750000000000000E0,0.00000000000000000E0,9.00000000000000000E0));
#106=CARTESIAN_POINT('',(1.00000000000000000E1,0.00000000000000000E0,9.00000000000000000E0));
#107=CARTESIAN_POINT('',(1.00000000000000000E0,1.00000000000000000E0,9.00000000000000000E0));
#108=CARTESIAN_POINT('',(2.81250000000000000E0,1.00000000000000000E0,9.00000000000000000E0));
#109=CARTESIAN_POINT('',(4.62500000000000000E0,1.00000000000000000E0,9.00000000000000000E0));
#110=CARTESIAN_POINT('',(6.37500000000000000E0,1.00000000000000000E0,9.00000000000000000E0));
#111=CARTESIAN_POINT('',(8.18750000000000000E0,1.00000000000000000E0,9.00000000000000000E0));
#112=CARTESIAN_POINT('',(1.00000000000000000E1,1.00000000000000000E0,9.00000000000000000E0));
#113=CARTESIAN_POINT('',(0.00000000000000000E0,1.00000000000000000E0,1.00000000000000000E1));
#114=CARTESIAN_POINT('',(2.00000000000000000E0,1.00000000000000000E0,1.00000000000000000E1));
#115=CARTESIAN_POINT('',(4.00000000000000000E0,1.00000000000000000E0,1.00000000000000000E1));
#116=CARTESIAN_POINT('',(6.00000000000000000E0,1.00000000000000000E0,1.00000000000000000E1));
#117=CARTESIAN_POINT('',(8.00000000000000000E0,1.00000000000000000E0,1.00000000000000000E1));
#118=CARTESIAN_POINT('',(1.00000000000000000E1,1.00000000000000000E0,1.00000000000000000E1));
#119=(BOUNDED_SURFACE()B_SPLINE_SURFACE(2,5,((#101,#102,#103,#104,#105,#106),(#107,#108,#109,#110,#111,#112),(#113,#114,#115,#116,#117,#118)),.UNSPECIFIED.,.F.,.F.,.F.)B_SPLINE_SURFACE_WITH_KNOTS((3,3),(6,6),(0.00000000000000000E0,1.00000000000000000E0),(0.00000000000000000E0,1.00000000000000000E0),.UNSPECIFIED.)GEOMETRIC_REPRESENTATION_ITEM()RATIONAL_B_SPLINE_SURFACE(((1.00000000000000000E0,1.00000000000000000E0,1.00000000000000000E0,1.00000000000000000E0,1.00000000000000000E0,1.00000000000000000E0),(7.07106781186547573E-1,7.07106781186547573E-1,7.07106781186547573E-1,7.07106781186547573E-1,7.07106781186547573E-1,7.07106781186547573E-1),(1.00000000000000000E0,1.00000000000000000E0,1.00000000000000000E0,1.00000000000000000E0,1.00000000000000000E0,1.00000000000000000E0)))REPRESENTATION_ITEM('')SURFACE());
#120=CARTESIAN_POINT('',(0.00000000000000000E0,1.00000000000000000E0,1.00000000000000000E1));
#121=CARTESIAN_POINT('',(2.00000000000000000E0,1.00000000000000000E0,1.00000000000000000E1));
#122=CARTESIAN_POINT('',(4.00000000000000000E0,1.00000000000000000E0,1.00000000000000000E1));
#123=CARTESIAN_POINT('',(6.00000000000000000E0,1.00000000000000000E0,1.00000000000000000E1));
#124=CARTESIAN_POINT('',(8.00000000000000000E0,1.00000000000000000E0,1.00000000000000000E1));
#125=CARTESIAN_POINT('',(1.00000000000000000E1,1.00000000000000000E0,1.00000000000000000E1));
#126=CARTESIAN_POINT('',(-1.00000000000000000E0,1.00000000000000000E0,1.10000000000000000E1));
#127=CARTESIAN_POINT('',(1.18750000000000000E0,1.00000000000000000E0,1.10000000000000000E1));
#128=CARTESIAN_POINT('',(3.37500000000000000E0,1.00000000000000000E0,1.10000000000000000E1));
#129=CARTESIAN_POINT('',(5.62500000000000000E0,1.00000000000000000E0,1.10000000000000000E1));
#130=CARTESIAN_POINT('',(7.81250000000000000E0,1.00000000000000000E0,1.10000000000000000E1));
#131=CARTESIAN_POINT('',(1.00000000000000000E1,1.00000000000000000E0,1.10000000000000000E1));
#132=CARTESIAN_POINT('',(-1.00000000000000000E0,0.00000000000000000E0,1.10000000000000000E1));
#133=CARTESIAN_POINT('',(1.18750000000000000E0,0.00000000000000000E0,1.10000000000000000E1));
#134=CARTESIAN_POINT('',(3.37500000000000000E0,0.00000000000000000E0,1.10000000000000000E1));
#135=CARTESIAN_POINT('',(5.62500000000000000E0,0.00000000000000000E0,1.10000000000000000E1));
#136=CARTESIAN_POINT('',(7.81250000000000000E0,0.00000000000000000E0,1.10000000000000000E1));
#137=CARTESIAN_POINT('',(1.00000000000000000E1,0.00000000000000000E0,1.10000000000000000E1));
#138=(BOUNDED_SURFACE()B_SPLINE_SURFACE(2,5,((#120,#121,#122,#123,#124,#125),(#126,#127,#128,#129,#130,#131),(#132,#133,#134,#135,#136,#137)),.UNSPECIFIED.,.F.,.F.,.F.)B_SPLINE_SURFACE_WITH_KNOTS((3,3),(6,6),(0.00000000000000000E0,1.00000000000000000E0),(0.00000000000000000E0,1.00000000000000000E0),.UNSPECIFIED.)GEOMETRIC_REPRESENTATION_ITEM()RATIONAL_B_SPLINE_SURFACE(((1.00000000000000000E0,1.00000000000000000E0,1.00000000000000000E0,1.00000000000000000E0,1.00000000000000000E0,1.00000000000000000E0),(7.07106781186547573E-1,7.07106781186547573E-1,7.07106781186547573E-1,7.07106781186547573E-1,7.07106781186547573E-1,7.07106781186547573E-1),(1.00000000000000000E0,1.00000000000000000E0,1.00000000000000000E0,1.00000000000000000E0,1.00000000000000000E0,1.00000000000000000E0)))REPRESENTATION_ITEM('')SURFACE());
#139=CARTESIAN_POINT('',(-1.00000000000000000E0,0.00000000000000000E0,1.10000000000000000E1));
#140=CARTESIAN_POINT('',(1.18750000000000000E0,0.00000000000000000E0,1.10000000000000000E1));
#141=CARTESIAN_POINT('',(3.37500000000000000E0,0.00000000000000000E0,1.10000000000000000E1));
#142=CARTESIAN_POINT('',(5.62500000000000000E0,0.00000000000000000E0,1.10000000000000000E1));
#143=CARTESIAN_POINT('',(7.81250000000000000E0,0.00000000000000000E0,1.10000000000000000E1));
#144=CARTESIAN_POINT('',(1.00000000000000000E1,0.00000000000000000E0,1.10000000000000000E1));
#145=CARTESIAN_POINT('',(-1.00000000000000000E0,-1.00000000000000000E0,1.10000000000000000E1));
#146=CARTESIAN_POINT('',(1.18750000000000000E0,-1.00000000000000000E0,1.10000000000000000E1));
#147=CARTESIAN_POINT('',(3.37500000000000000E0,-1.00000000000000000E0,1.10000000000000000E1));
#148=CARTESIAN_POINT('',(5.62500000000000000E0,-1.00000000000000000E0,1.10000000000000000E1));
#149=CARTESIAN_POINT('',(7.81250000000000000E0,-1.00000000000000000E0,1.10000000000000000E1));
#150=CARTESIAN_POINT('',(1.00000000000000000E1,-1.00000000000000000E0,1.10000000000000000E1));
#151=CARTESIAN_POINT('',(0.00000000000000000E0,-1.00000000000000000E0,1.00000000000000000E1));
#152=CARTESIAN_POINT('',(2.00000000000000000E0,-1.00000000000000000E0,1.00000000000000000E1));
#153=CARTESIAN_POINT('',(4.00000000000000000E0,-1.00000000000000000E0,1.00000000000000000E1));
#154=CARTESIAN_POINT('',(6.00000000000000000E0,-1.00000000000000000E0,1.00000000000000000E1));
#155=CARTESIAN_POINT('',(8.00000000000000000E0,-1.00000000000000000E0,1.00000000000000000E1));
#156=CARTESIAN_POINT('',(1.00000000000000000E1,-1.00000000000000000E0,1.00000000000000000E1));
#157=(BOUNDED_SURFACE()B_SPLINE_SURFACE(2,5,((#139,#140,#141,#142,#143,#144),(#145,#146,#147,#148,#149,#150),(#151,#152,#153,#154,#155,#156)),.UNSPECIFIED.,.F.,.F.,.F.)B_SPLINE_SURFACE_WITH_KNOTS((3,3),(6,6),(0.00000000000000000E0,1.00000000000000000E0),(0.00000000000000000E0,1.00000000000000000E0),.UNSPECIFIED.)GEOMETRIC_REPRESENTATION_ITEM()RATIONAL_B_SPLINE_SURFACE(((1.00000000000000000E0,1.00000000000000000E0,1.00000000000000000E0,1.00000000000000000E0,1.00000000000000000E0,1.00000000000000000E0),(7.07106781186547573E-1,7.07106781186547573E-1,7.07106781186547573E-1,7.07106781186547573E-1,7.07106781186547573E-1,7.07106781186547573E-1),(1.00000000000000000E0,1.00000000000000000E0,1.00000000000000000E0,1.00000000000000000E0,1.00000000000000000E0,1.00000000000000000E0)))REPRESENTATION_ITEM('')SURFACE());
#158=CARTESIAN_POINT('',(0.00000000000000000E0,-1.00000000000000000E0,1.00000000000000000E1));
#159=CARTESIAN_POINT('',(2.00000000000000000E0,-1.00000000000000000E0,1.00000000000000000E1));
#160=CARTESIAN_POINT('',(4.00000000000000000E0,-1.00000000000000000E0,1.00000000000000000E1));
#161=CARTESIAN_POINT('',(6.00000000000000000E0,-1.00000000000000000E0,1.00000000000000000E1));
#162=CARTESIAN_POINT('',(8.00000000000000000E0,-1.00000000000000000E0,1.00000000000000000E1));
#163=CARTESIAN_POINT('',(1.00000000000000000E1,-1.00000000000000000E0,1.00000000000000000E1));
#164=CARTESIAN_POINT('',(1.00000000000000000E0,-1.00000000000000000E0,9.00000000000000000E0));
#165=CARTESIAN_POINT('',(2.81250000000000000E0,-1.00000000000000000E0,9.00000000000000000E0));
#166=CARTESIAN_POINT('',(4.62500000000000000E0,-1.00000000000000000E0,9.00000000000000000E0));
#167=CARTESIAN_POINT('',(6.37500000000000000E0,-1.00000000000000000E0,9.00000000000000000E0));
#168=CARTESIAN_POINT('',(8.18750000000000000E0,-1.00000000000000000E0,9.00000000000000000E0));
#169=CARTESIAN_POINT('',(1.00000000000000000E1,-1.00000000000000000E0,9.00000000000000000E0));
#170=CARTESIAN_POINT('',(1.00000000000000000E0,0.00000000000000000E0,9.00000000000000000E0));
#171=CARTESIAN_POINT('',(2.81250000000000000E0,0.00000000000000000E0,9.00000000000000000E0));
#172=CARTESIAN_POINT('',(4.62500000000000000E0,0.00000000000000000E0,9.00000000000000000E0));
#173=CARTESIAN_POINT('',(6.37500000000000000E0,0.00000000000000000E0,9.00000000000000000E0));
#174=CARTESIAN_POINT('',(8.18750000000000000E0,0.00000000000000000E0,9.00000000000000000E0));
#175=CARTESIAN_POINT('',(1.00000000000000000E1,0.00000000000000000E0,9.00000000000000000E0));
#176=(BOUNDED_SURFACE()B_SPLINE_SURFACE(2,5,((#158,#159,#160,#161,#162,#163),(#164,#165,#166,#167,#168,#169),(#170,#171,#172,#173,#174,#175)),.UNSPECIFIED.,.F.,.F.,.F.)B_SPLINE_SURFACE_WITH_KNOTS((3,3),(6,6),(0.00000000000000000E0,1.00000000000000000E0),(0.00000000000000000E0,1.00000000000000000E0),.UNSPECIFIED.)GEOMETRIC_REPRESENTATION_ITEM()RATIONAL_B_SPLINE_SURFACE(((1.00000000000000000E0,1.00000000000000000E0,1.00000000000000000E0,1.00000000000000000E0,1.00000000000000000E0,1.00000000000000000E0),(7.07106781186547573E-1,7.07106781186547573E-1,7.07106781186547573E-1,7.07106781186547573E-1,7.07106781186547573E-1,7.07106781186547573E-1),(1.00000000000000000E0,1.00000000000000000E0,1.00000000000000000E0,1.00000000000000000E0,1.00000000000000000E0,1.00000000000000000E0)))REPRESENTATION_ITEM('')SURFACE());
#177=CARTESIAN_POINT('',(1.00000000000000000E0,-1.00000000000000000E0,0.00000000000000000E0));
#178=CARTESIAN_POINT('',(1.00000000000000000E0,1.00000000000000000E0,0.00000000000000000E0));
#179=CARTESIAN_POINT('',(-1.00000000000000000E0,-1.00000000000000000E0,0.00000000000000000E0));
#180=CARTESIAN_POINT('',(-1.00000000000000000E0,1.00000000000000000E0,0.00000000000000000E0));
#181=B_SPLINE_SURFACE_WITH_KNOTS('',1,1,((#177,#178),(#179,#180)),.UNSPECIFIED.,.F.,.F.,.F.,(2,2),(2,2),(-1.00000000000000000E0,1.00000000000000000E0),(-1.00000000000000000E0,1.00000000000000000E0),.UNSPECIFIED.);
#182=CARTESIAN_POINT('',(1.00000000000000000E1,-1.00000000000000000E0,9.00000000000000000E0));
#183=CARTESIAN_POINT('',(1.00000000000000000E1,-1.00000000000000000E0,1.10000000000000000E1));
#184=CARTESIAN_POINT('',(1.00000000000000000E1,1.00000000000000000E0,9.00000000000000000E0));
#185=CARTESIAN_POINT('',(1.00000000000000000E1,1.00000000000000000E0,1.10000000000000000E1));
#186=B_SPLINE_SURFACE_WITH_KNOTS('',1,1,((#182,#183),(#184,#185)),.UNSPECIFIED.,.F.,.F.,.F.,(2,2),(2,2),(-1.00000000000000000E0,1.00000000000000000E0),(9.00000000000000000E0,1.10000000000000000E1),.UNSPECIFIED.);
#187=CARTESIAN_POINT('',(1.00000000000000000E0,0.00000000000000000E0,0.00000000000000000E0));
#188=CARTESIAN_POINT('',(1.00000000000000000E0,1.00000000000000000E0,0.00000000000000000E0));
#189=CARTESIAN_POINT('',(0.00000000000000000E0,1.00000000000000000E0,0.00000000000000000E0));
#190=(BOUNDED_CURVE()B_SPLINE_CURVE(2,(#187,#188,#189),.UNSPECIFIED.,.F.,.F.)B_SPLINE_CURVE_WITH_KNOTS((3,3),(0.00000000000000000E0,1.00000000000000000E0),.UNSPECIFIED.)CURVE()GEOMETRIC_REPRESENTATION_ITEM()RATIONAL_B_SPLINE_CURVE((1.00000000000000000E0,7.07106781186547573E-1,1.00000000000000000E0))REPRESENTATION_ITEM(''));
#191=CARTESIAN_POINT('',(0.00000000000000000E0,1.00000000000000000E0,0.00000000000000000E0));
#192=CARTESIAN_POINT('',(0.00000000000000000E0,1.00000000000000000E0,2.00000000000000000E0));
#193=CARTESIAN_POINT('',(0.00000000000000000E0,1.00000000000000000E0,4.00000000000000000E0));
#194=CARTESIAN_POINT('',(0.00000000000000000E0,1.00000000000000000E0,6.00000000000000000E0));
#195=CARTESIAN_POINT('',(0.00000000000000000E0,1.00000000000000000E0,8.00000000000000000E0));
#196=CARTESIAN_POINT('',(0.00000000000000000E0,1.00000000000000000E0,1.00000000000000000E1));
#197=B_SPLINE_CURVE_WITH_KNOTS('',5,(#191,#192,#193,#194,#195,#196),.UNSPECIFIED.,.F.,.F.,(6,6),(0.00000000000000000E0,1.00000000000000000E0),.UNSPECIFIED.);
#198=CARTESIAN_POINT('',(1.00000000000000000E0,0.00000000000000000E0,9.00000000000000000E0));
#199=CARTESIAN_POINT('',(1.00000000000000000E0,1.00000000000000000E0,9.00000000000000000E0));
#200=CARTESIAN_POINT('',(0.00000000000000000E0,1.00000000000000000E0,1.00000000000000000E1));
#201=(BOUNDED_CURVE()B_SPLINE_CURVE(2,(#198,#199,#200),.UNSPECIFIED.,.F.,.F.)B_SPLINE_CURVE_WITH_KNOTS((3,3),(0.00000000000000000E0,1.00000000000000000E0),.UNSPECIFIED.)CURVE()GEOMETRIC_REPRESENTATION_ITEM()RATIONAL_B_SPLINE_CURVE((1.00000000000000000E0,7.07106781186547573E-1,1.00000000000000000E0))REPRESENTATION_ITEM(''));
#202=CARTESIAN_POINT('',(1.00000000000000000E0,0.00000000000000000E0,0.00000000000000000E0));
#203=CARTESIAN_POINT('',(1.00000000000000000E0,0.00000000000000000E0,1.81250000000000000E0));
#204=CARTESIAN_POINT('',(1.00000000000000000E0,0.00000000000000000E0,3.62500000000000000E0));
#205=CARTESIAN_POINT('',(1.00000000000000000E0,0.00000000000000000E0,5.37500000000000000E0));
#206=CARTESIAN_POINT('',(1.00000000000000000E0,0.00000000000000000E0,7.18750000000000000E0));
#207=CARTESIAN_POINT('',(1.00000000000000000E0,0.00000000000000000E0,9.00000000000000000E0));
#208=B_SPLINE_CURVE_WITH_KNOTS('',5,(#202,#203,#204,#205,#206,#207),.UNSPECIFIED.,.F.,.F.,(6,6),(0.00000000000000000E0,1.00000000000000000E0),.UNSPECIFIED.);
#209=CARTESIAN_POINT('',(0.00000000000000000E0,1.00000000000000000E0,0.00000000000000000E0));
#210=CARTESIAN_POINT('',(-1.00000000000000000E0,1.00000000000000000E0,0.00000000000000000E0));
#211=CARTESIAN_POINT('',(-1.00000000000000000E0,0.00000000000000000E0,0.00000000000000000E0));
#212=(BOUNDED_CURVE()B_SPLINE_CURVE(2,(#209,#210,#211),.UNSPECIFIED.,.F.,.F.)B_SPLINE_CURVE_WITH_KNOTS((3,3),(0.00000000000000000E0,1.00000000000000000E0),.UNSPECIFIED.)CURVE()GEOMETRIC_REPRESENTATION_ITEM()RATIONAL_B_SPLINE_CURVE((1.00000000000000000E0,7.07106781186547573E-1,1.00000000000000000E0))REPRESENTATION_ITEM(''));
#213=CARTESIAN_POINT('',(-1.00000000000000000E0,0.00000000000000000E0,0.00000000000000000E0));
#214=CARTESIAN_POINT('',(-1.00000000000000000E0,0.00000000000000000E0,2.18750000000000000E0));
#215=CARTESIAN_POINT('',(-1.00000000000000000E0,0.00000000000000000E0,4.37500000000000000E0));
#216=CARTESIAN_POINT('',(-1.00000000000000000E0,0.00000000000000000E0,6.62500000000000000E0));
#217=CARTESIAN_POINT('',(-1.00000000000000000E0,0.00000000000000000E0,8.81250000000000000E0));
#218=CARTESIAN_POINT('',(-1.00000000000000000E0,0.00000000000000000E0,1.10000000000000000E1));
#219=B_SPLINE_CURVE_WITH_KNOTS('',5,(#213,#214,#215,#216,#217,#218),.UNSPECIFIED.,.F.,.F.,(6,6),(0.00000000000000000E0,1.00000000000000000E0),.UNSPECIFIED.);
#220=CARTESIAN_POINT('',(0.00000000000000000E0,1.00000000000000000E0,1.00000000000000000E1));
#221=CARTESIAN_POINT('',(-1.00000000000000000E0,1.00000000000000000E0,1.10000000000000000E1));
#222=CARTESIAN_POINT('',(-1.00000000000000000E0,0.00000000000000000E0,1.10000000000000000E1));
#223=(BOUNDED_CURVE()B_SPLINE_CURVE(2,(#220,#221,#222),.UNSPECIFIED.,.F.,.F.)B_SPLINE_CURVE_WITH_KNOTS((3,3),(0.00000000000000000E0,1.00000000000000000E0),.UNSPECIFIED.)CURVE()GEOMETRIC_REPRESENTATION_ITEM()RATIONAL_B_SPLINE_CURVE((1.00000000000000000E0,7.07106781186547573E-1,1.00000000000000000E0))REPRESENTATION_ITEM(''));
#224=CARTESIAN_POINT('',(-1.00000000000000000E0,0.00000000000000000E0,0.00000000000000000E0));
#225=CARTESIAN_POINT('',(-1.00000000000000000E0,-1.00000000000000000E0,0.00000000000000000E0));
#226=CARTESIAN_POINT('',(0.00000000000000000E0,-1.00000000000000000E0,0.00000000000000000E0));
#227=(BOUNDED_CURVE()B_SPLINE_CURVE(2,(#224,#225,#226),.UNSPECIFIED.,.F.,.F.)B_SPLINE_CURVE_WITH_KNOTS((3,3),(0.00000000000000000E0,1.00000000000000000E0),.UNSPECIFIED.)CURVE()GEOMETRIC_REPRESENTATION_ITEM()RATIONAL_B_SPLINE_CURVE((1.00000000000000000E0,7.07106781186547573E-1,1.00000000000000000E0))REPRESENTATION_ITEM(''));
#228=CARTESIAN_POINT('',(0.00000000000000000E0,-1.00000000000000000E0,0.00000000000000000E0));
#229=CARTESIAN_POINT('',(0.00000000000000000E0,-1.00000000000000000E0,2.00000000000000000E0));
#230=CARTESIAN_POINT('',(0.00000000000000000E0,-1.00000000000000000E0,4.00000000000000000E0));
#231=CARTESIAN_POINT('',(0.00000000000000000E0,-1.00000000000000000E0,6.00000000000000000E0));
#232=CARTESIAN_POINT('',(0.00000000000000000E0,-1.00000000000000000E0,8.00000000000000000E0));
#233=CARTESIAN_POINT('',(0.00000000000000000E0,-1.00000000000000000E0,1.00000000000000000E1));
#234=B_SPLINE_CURVE_WITH_KNOTS('',5,(#228,#229,#230,#231,#232,#233),.UNSPECIFIED.,.F.,.F.,(6,6),(0.00000000000000000E0,1.00000000000000000E0),.UNSPECIFIED.);
#235=CARTESIAN_POINT('',(-1.00000000000000000E0,0.00000000000000000E0,1.10000000000000000E1));
#236=CARTESIAN_POINT('',(-1.00000000000000000E0,-1.00000000000000000E0,1.10000000000000000E1));
#237=CARTESIAN_POINT('',(0.00000000000000000E0,-1.00000000000000000E0,1.00000000000000000E1));
#238=(BOUNDED_CURVE()B_SPLINE_CURVE(2,(#235,#236,#237),.UNSPECIFIED.,.F.,.F.)B_SPLINE_CURVE_WITH_KNOTS((3,3),(0.00000000000000000E0,1.00000000000000000E0),.UNSPECIFIED.)CURVE()GEOMETRIC_REPRESENTATION_ITEM()RATIONAL_B_SPLINE_CURVE((1.00000000000000000E0,7.07106781186547573E-1,1.00000000000000000E0))REPRESENTATION_ITEM(''));
#239=CARTESIAN_POINT('',(1.00000000000000000E0,0.00000000000000000E0,0.00000000000000000E0));
#240=CARTESIAN_POINT('',(1.00000000000000000E0,-1.00000000000000000E0,0.00000000000000000E0));
#241=CARTESIAN_POINT('',(0.00000000000000000E0,-1.00000000000000000E0,0.00000000000000000E0));
#242=(BOUNDED_CURVE()B_SPLINE_CURVE(2,(#239,#240,#241),.UNSPECIFIED.,.F.,.F.)B_SPLINE_CURVE_WITH_KNOTS((3,3),(0.00000000000000000E0,1.00000000000000000E0),.UNSPECIFIED.)CURVE()GEOMETRIC_REPRESENTATION_ITEM()RATIONAL_B_SPLINE_CURVE((1.00000000000000000E0,7.07106781186547573E-1,1.00000000000000000E0))REPRESENTATION_ITEM(''));
#243=CARTESIAN_POINT('',(1.00000000000000000E0,0.00000000000000000E0,9.00000000000000000E0));
#244=CARTESIAN_POINT('',(1.00000000000000000E0,-1.00000000000000000E0,9.00000000000000000E0));
#245=CARTESIAN_POINT('',(0.00000000000000000E0,-1.00000000000000000E0,1.00000000000000000E1));
#246=(BOUNDED_CURVE()B_SPLINE_CURVE(2,(#243,#244,#245),.UNSPECIFIED.,.F.,.F.)B_SPLINE_CURVE_WITH_KNOTS((3,3),(0.00000000000000000E0,1.00000000000000000E0),.UNSPECIFIED.)CURVE()GEOMETRIC_REPRESENTATION_ITEM()RATIONAL_B_SPLINE_CURVE((1.00000000000000000E0,7.07106781186547573E-1,1.00000000000000000E0))REPRESENTATION_ITEM(''));
#247=CARTESIAN_POINT('',(0.00000000000000000E0,1.00000000000000000E0,1.00000000000000000E1));
#248=CARTESIAN_POINT('',(2.00000000000000000E0,1.00000000000000000E0,1.00000000000000000E1));
#249=CARTESIAN_POINT('',(4.00000000000000000E0,1.00000000000000000E0,1.00000000000000000E1));
#250=CARTESIAN_POINT('',(6.00000000000000000E0,1.00000000000000000E0,1.00000000000000000E1));
#251=CARTESIAN_POINT('',(8.00000000000000000E0,1.00000000000000000E0,1.00000000000000000E1));
#252=CARTESIAN_POINT('',(1.00000000000000000E1,1.00000000000000000E0,1.00000000000000000E1));
#253=B_SPLINE_CURVE_WITH_KNOTS('',5,(#247,#248,#249,#250,#251,#252),.UNSPECIFIED.,.F.,.F.,(6,6),(0.00000000000000000E0,1.00000000000000000E0),.UNSPECIFIED.);
#254=CARTESIAN_POINT('',(1.00000000000000000E1,0.00000000000000000E0,9.00000000000000000E0));
#255=CARTESIAN_POINT('',(1.00000000000000000E1,1.00000000000000000E0,9.00000000000000000E0));
#256=CARTESIAN_POINT('',(1.00000000000000000E1,1.00000000000000000E0,1.00000000000000000E1));
#257=(BOUNDED_CURVE()B_SPLINE_CURVE(2,(#254,#255,#256),.UNSPECIFIED.,.F.,.F.)B_SPLINE_CURVE_WITH_KNOTS((3,3),(0.00000000000000000E0,1.00000000000000000E0),.UNSPECIFIED.)CURVE()GEOMETRIC_REPRESENTATION_ITEM()RATIONAL_B_SPLINE_CURVE((1.00000000000000000E0,7.07106781186547573E-1,1.00000000000000000E0))REPRESENTATION_ITEM(''));
#258=CARTESIAN_POINT('',(1.00000000000000000E0,0.00000000000000000E0,9.00000000000000000E0));
#259=CARTESIAN_POINT('',(2.81250000000000000E0,0.00000000000000000E0,9.00000000000000000E0));
#260=CARTESIAN_POINT('',(4.62500000000000000E0,0.00000000000000000E0,9.00000000000000000E0));
#261=CARTESIAN_POINT('',(6.37500000000000000E0,0.00000000000000000E0,9.00000000000000000E0));
#262=CARTESIAN_POINT('',(8.18750000000000000E0,0.00000000000000000E0,9.00000000000000000E0));
#263=CARTESIAN_POINT('',(1.00000000000000000E1,0.00000000000000000E0,9.00000000000000000E0));
#264=B_SPLINE_CURVE_WITH_KNOTS('',5,(#258,#259,#260,#261,#262,#263),.UNSPECIFIED.,.F.,.F.,(6,6),(0.00000000000000000E0,1.00000000000000000E0),.UNSPECIFIED.);
#265=CARTESIAN_POINT('',(-1.00000000000000000E0,0.00000000000000000E0,1.10000000000000000E1));
#266=CARTESIAN_POINT('',(1.18750000000000000E0,0.00000000000000000E0,1.10000000000000000E1));
#267=CARTESIAN_POINT('',(3.37500000000000000E0,0.00000000000000000E0,1.10000000000000000E1));
#268=CARTESIAN_POINT('',(5.62500000000000000E0,0.00000000000000000E0,1.10000000000000000E1));
#269=CARTESIAN_POINT('',(7.81250000000000000E0,0.00000000000000000E0,1.10000000000000000E1));
#270=CARTESIAN_POINT('',(1.00000000000000000E1,0.00000000000000000E0,1.10000000000000000E1));
#271=B_SPLINE_CURVE_WITH_KNOTS('',5,(#265,#266,#267,#268,#269,#270),.UNSPECIFIED.,.F.,.F.,(6,6),(0.00000000000000000E0,1.00000000000000000E0),.UNSPECIFIED.);
#272=CARTESIAN_POINT('',(1.00000000000000000E1,1.00000000000000000E0,1.00000000000000000E1));
#273=CARTESIAN_POINT('',(1.00000000000000000E1,1.00000000000000000E0,1.10000000000000000E1));
#274=CARTESIAN_POINT('',(1.00000000000000000E1,0.00000000000000000E0,1.10000000000000000E1));
#275=(BOUNDED_CURVE()B_SPLINE_CURVE(2,(#272,#273,#274),.UNSPECIFIED.,.F.,.F.)B_SPLINE_CURVE_WITH_KNOTS((3,3),(0.00000000000000000E0,1.00000000000000000E0),.UNSPECIFIED.)CURVE()GEOMETRIC_REPRESENTATION_ITEM()RATIONAL_B_SPLINE_CURVE((1.00000000000000000E0,7.07106781186547573E-1,1.00000000000000000E0))REPRESENTATION_ITEM(''));
#276=CARTESIAN_POINT('',(0.00000000000000000E0,-1.00000000000000000E0,1.00000000000000000E1));
#277=CARTESIAN_POINT('',(2.00000000000000000E0,-1.00000000000000000E0,1.00000000000000000E1));
#278=CARTESIAN_POINT('',(4.00000000000000000E0,-1.00000000000000000E0,1.00000000000000000E1));
#279=CARTESIAN_POINT('',(6.00000000000000000E0,-1.00000000000000000E0,1.00000000000000000E1));
#280=CARTESIAN_POINT('',(8.00000000000000000E0,-1.00000000000000000E0,1.00000000000000000E1));
#281=CARTESIAN_POINT('',(1.00000000000000000E1,-1.00000000000000000E0,1.00000000000000000E1));
#282=B_SPLINE_CURVE_WITH_KNOTS('',5,(#276,#277,#278,#279,#280,#281),.UNSPECIFIED.,.F.,.F.,(6,6),(0.00000000000000000E0,1.00000000000000000E0),.UNSPECIFIED.);
#283=CARTESIAN_POINT('',(1.00000000000000000E1,0.00000000000000000E0,1.10000000000000000E1));
#284=CARTESIAN_POINT('',(1.00000000000000000E1,-1.00000000000000000E0,1.10000000000000000E1));
#285=CARTESIAN_POINT('',(1.00000000000000000E1,-1.00000000000000000E0,1.00000000000000000E1));
#286=(BOUNDED_CURVE()B_SPLINE_CURVE(2,(#283,#284,#285),.UNSPECIFIED.,.F.,.F.)B_SPLINE_CURVE_WITH_KNOTS((3,3),(0.00000000000000000E0,1.00000000000000000E0),.UNSPECIFIED.)CURVE()GEOMETRIC_REPRESENTATION_ITEM()RATIONAL_B_SPLINE_CURVE((1.00000000000000000E0,7.07106781186547573E-1,1.00000000000000000E0))REPRESENTATION_ITEM(''));
#287=CARTESIAN_POINT('',(1.00000000000000000E1,0.00000000000000000E0,9.00000000000000000E0));
#288=CARTESIAN_POINT('',(1.00000000000000000E1,-1.00000000000000000E0,9.00000000000000000E0));
#289=CARTESIAN_POINT('',(1.00000000000000000E1,-1.00000000000000000E0,1.00000000000000000E1));
#290=(BOUNDED_CURVE()B_SPLINE_CURVE(2,(#287,#288,#289),.UNSPECIFIED.,.F.,.F.)B_SPLINE_CURVE_WITH_KNOTS((3,3),(0.00000000000000000E0,1.00000000000000000E0),.UNSPECIFIED.)CURVE()GEOMETRIC_REPRESENTATION_ITEM()RATIONAL_B_SPLINE_CURVE((1.00000000000000000E0,7.07106781186547573E-1,1.00000000000000000E0))REPRESENTATION_ITEM(''));
#291=(GEOMETRIC_REPRESENTATION_CONTEXT(2)REPRESENTATION_CONTEXT('','2D'));
#292=CARTESIAN_POINT('',(0.00000000000000000E0,0.00000000000000000E0));
#293=CARTESIAN_POINT('',(1.00000000000000000E0,0.00000000000000000E0));
#294=B_SPLINE_CURVE_WITH_KNOTS('',1,(#292,#293),.UNSPECIFIED.,.F.,.F.,(2,2),(0.00000000000000000E0,1.00000000000000000E0),.UNSPECIFIED.);
#295=DEFINITIONAL_REPRESENTATION('',(#294),#291);
#296=PCURVE('',#43,#295);
#297=CARTESIAN_POINT('',(1.00000000000000000E0,0.00000000000000000E0));
#298=CARTESIAN_POINT('',(1.00000000000000000E0,1.00000000000000000E0));
#299=B_SPLINE_CURVE_WITH_KNOTS('',1,(#297,#298),.UNSPECIFIED.,.F.,.F.,(2,2),(0.00000000000000000E0,1.00000000000000000E0),.UNSPECIFIED.);
#300=DEFINITIONAL_REPRESENTATION('',(#299),#291);
#301=PCURVE('',#43,#300);
#302=CARTESIAN_POINT('',(1.00000000000000000E0,1.00000000000000000E0));
#303=CARTESIAN_POINT('',(0.00000000000000000E0,1.00000000000000000E0));
#304=B_SPLINE_CURVE_WITH_KNOTS('',1,(#302,#303),.UNSPECIFIED.,.F.,.F.,(2,2),(0.00000000000000000E0,1.00000000000000000E0),.UNSPECIFIED.);
#305=DEFINITIONAL_REPRESENTATION('',(#304),#291);
#306=PCURVE('',#43,#305);
#307=CARTESIAN_POINT('',(0.00000000000000000E0,1.00000000000000000E0));
#308=CARTESIAN_POINT('',(0.00000000000000000E0,0.00000000000000000E0));
#309=B_SPLINE_CURVE_WITH_KNOTS('',1,(#307,#308),.UNSPECIFIED.,.F.,.F.,(2,2),(0.00000000000000000E0,1.00000000000000000E0),.UNSPECIFIED.);
#310=DEFINITIONAL_REPRESENTATION('',(#309),#291);
#311=PCURVE('',#43,#310);
#312=CARTESIAN_POINT('',(0.00000000000000000E0,0.00000000000000000E0));
#313=CARTESIAN_POINT('',(1.00000000000000000E0,0.00000000000000000E0));
#314=B_SPLINE_CURVE_WITH_KNOTS('',1,(#312,#313),.UNSPECIFIED.,.F.,.F.,(2,2),(0.00000000000000000E0,1.00000000000000000E0),.UNSPECIFIED.);
#315=DEFINITIONAL_REPRESENTATION('',(#314),#291);
#316=PCURVE('',#62,#315);
#317=CARTESIAN_POINT('',(1.00000000000000000E0,0.00000000000000000E0));
#318=CARTESIAN_POINT('',(1.00000000000000000E0,1.00000000000000000E0));
#319=B_SPLINE_CURVE_WITH_KNOTS('',1,(#317,#318),.UNSPECIFIED.,.F.,.F.,(2,2),(0.00000000000000000E0,1.00000000000000000E0),.UNSPECIFIED.);
#320=DEFINITIONAL_REPRESENTATION('',(#319),#291);
#321=PCURVE('',#62,#320);
#322=CARTESIAN_POINT('',(1.00000000000000000E0,1.00000000000000000E0));
#323=CARTESIAN_POINT('',(0.00000000000000000E0,1.00000000000000000E0));
#324=B_SPLINE_CURVE_WITH_KNOTS('',1,(#322,#323),.UNSPECIFIED.,.F.,.F.,(2,2),(0.00000000000000000E0,1.00000000000000000E0),.UNSPECIFIED.);
#325=DEFINITIONAL_REPRESENTATION('',(#324),#291);
#326=PCURVE('',#62,#325);
#327=CARTESIAN_POINT('',(0.00000000000000000E0,1.00000000000000000E0));
#328=CARTESIAN_POINT('',(0.00000000000000000E0,0.00000000000000000E0));
#329=B_SPLINE_CURVE_WITH_KNOTS('',1,(#327,#328),.UNSPECIFIED.,.F.,.F.,(2,2),(0.00000000000000000E0,1.00000000000000000E0),.UNSPECIFIED.);
#330=DEFINITIONAL_REPRESENTATION('',(#329),#291);
#331=PCURVE('',#62,#330);
#332=CARTESIAN_POINT('',(0.00000000000000000E0,0.00000000000000000E0));
#333=CARTESIAN_POINT('',(1.00000000000000000E0,0.00000000000000000E0));
#334=B_SPLINE_CURVE_WITH_KNOTS('',1,(#332,#333),.UNSPECIFIED.,.F.,.F.,(2,2),(0.00000000000000000E0,1.00000000000000000E0),.UNSPECIFIED.);
#335=DEFINITIONAL_REPRESENTATION('',(#334),#291);
#336=PCURVE('',#81,#335);
#337=CARTESIAN_POINT('',(1.00000000000000000E0,0.00000000000000000E0));
#338=CARTESIAN_POINT('',(1.00000000000000000E0,1.00000000000000000E0));
#339=B_SPLINE_CURVE_WITH_KNOTS('',1,(#337,#338),.UNSPECIFIED.,.F.,.F.,(2,2),(0.00000000000000000E0,1.00000000000000000E0),.UNSPECIFIED.);
#340=DEFINITIONAL_REPRESENTATION('',(#339),#291);
#341=PCURVE('',#81,#340);
#342=CARTESIAN_POINT('',(1.00000000000000000E0,1.00000000000000000E0));
#343=CARTESIAN_POINT('',(0.00000000000000000E0,1.00000000000000000E0));
#344=B_SPLINE_CURVE_WITH_KNOTS('',1,(#342,#343),.UNSPECIFIED.,.F.,.F.,(2,2),(0.00000000000000000E0,1.00000000000000000E0),.UNSPECIFIED.);
#345=DEFINITIONAL_REPRESENTATION('',(#344),#291);
#346=PCURVE('',#81,#345);
#347=CARTESIAN_POINT('',(0.00000000000000000E0,1.00000000000000000E0));
#348=CARTESIAN_POINT('',(0.00000000000000000E0,0.00000000000000000E0));
#349=B_SPLINE_CURVE_WITH_KNOTS('',1,(#347,#348),.UNSPECIFIED.,.F.,.F.,(2,2),(0.00000000000000000E0,1.00000000000000000E0),.UNSPECIFIED.);
#350=DEFINITIONAL_REPRESENTATION('',(#349),#291);
#351=PCURVE('',#81,#350);
#352=CARTESIAN_POINT('',(0.00000000000000000E0,0.00000000000000000E0));
#353=CARTESIAN_POINT('',(1.00000000000000000E0,0.00000000000000000E0));
#354=B_SPLINE_CURVE_WITH_KNOTS('',1,(#352,#353),.UNSPECIFIED.,.F.,.F.,(2,2),(0.00000000000000000E0,1.00000000000000000E0),.UNSPECIFIED.);
#355=DEFINITIONAL_REPRESENTATION('',(#354),#291);
#356=PCURVE('',#100,#355);
#357=CARTESIAN_POINT('',(1.00000000000000000E0,0.00000000000000000E0));
#358=CARTESIAN_POINT('',(1.00000000000000000E0,1.00000000000000000E0));
#359=B_SPLINE_CURVE_WITH_KNOTS('',1,(#357,#358),.UNSPECIFIED.,.F.,.F.,(2,2),(0.00000000000000000E0,1.00000000000000000E0),.UNSPECIFIED.);
#360=DEFINITIONAL_REPRESENTATION('',(#359),#291);
#361=PCURVE('',#100,#360);
#362=CARTESIAN_POINT('',(1.00000000000000000E0,1.00000000000000000E0));
#363=CARTESIAN_POINT('',(0.00000000000000000E0,1.00000000000000000E0));
#364=B_SPLINE_CURVE_WITH_KNOTS('',1,(#362,#363),.UNSPECIFIED.,.F.,.F.,(2,2),(0.00000000000000000E0,1.00000000000000000E0),.UNSPECIFIED.);
#365=DEFINITIONAL_REPRESENTATION('',(#364),#291);
#366=PCURVE('',#100,#365);
#367=CARTESIAN_POINT('',(0.00000000000000000E0,1.00000000000000000E0));
#368=CARTESIAN_POINT('',(0.00000000000000000E0,0.00000000000000000E0));
#369=B_SPLINE_CURVE_WITH_KNOTS('',1,(#367,#368),.UNSPECIFIED.,.F.,.F.,(2,2),(0.00000000000000000E0,1.00000000000000000E0),.UNSPECIFIED.);
#370=DEFINITIONAL_REPRESENTATION('',(#369),#291);
#371=PCURVE('',#100,#370);
#372=CARTESIAN_POINT('',(0.00000000000000000E0,0.00000000000000000E0));
#373=CARTESIAN_POINT('',(1.00000000000000000E0,0.00000000000000000E0));
#374=B_SPLINE_CURVE_WITH_KNOTS('',1,(#372,#373),.UNSPECIFIED.,.F.,.F.,(2,2),(0.00000000000000000E0,1.00000000000000000E0),.UNSPECIFIED.);
#375=DEFINITIONAL_REPRESENTATION('',(#374),#291);
#376=PCURVE('',#119,#375);
#377=CARTESIAN_POINT('',(1.00000000000000000E0,0.00000000000000000E0));
#378=CARTESIAN_POINT('',(1.00000000000000000E0,1.00000000000000000E0));
#379=B_SPLINE_CURVE_WITH_KNOTS('',1,(#377,#378),.UNSPECIFIED.,.F.,.F.,(2,2),(0.00000000000000000E0,1.00000000000000000E0),.UNSPECIFIED.);
#380=DEFINITIONAL_REPRESENTATION('',(#379),#291);
#381=PCURVE('',#119,#380);
#382=CARTESIAN_POINT('',(1.00000000000000000E0,1.00000000000000000E0));
#383=CARTESIAN_POINT('',(0.00000000000000000E0,1.00000000000000000E0));
#384=B_SPLINE_CURVE_WITH_KNOTS('',1,(#382,#383),.UNSPECIFIED.,.F.,.F.,(2,2),(0.00000000000000000E0,1.00000000000000000E0),.UNSPECIFIED.);
#385=DEFINITIONAL_REPRESENTATION('',(#384),#291);
#386=PCURVE('',#119,#385);
#387=CARTESIAN_POINT('',(0.00000000000000000E0,1.00000000000000000E0));
#388=CARTESIAN_POINT('',(0.00000000000000000E0,0.00000000000000000E0));
#389=B_SPLINE_CURVE_WITH_KNOTS('',1,(#387,#388),.UNSPECIFIED.,.F.,.F.,(2,2),(0.00000000000000000E0,1.00000000000000000E0),.UNSPECIFIED.);
#390=DEFINITIONAL_REPRESENTATION('',(#389),#291);
#391=PCURVE('',#119,#390);
#392=CARTESIAN_POINT('',(0.00000000000000000E0,0.00000000000000000E0));
#393=CARTESIAN_POINT('',(1.00000000000000000E0,0.00000000000000000E0));
#394=B_SPLINE_CURVE_WITH_KNOTS('',1,(#392,#393),.UNSPECIFIED.,.F.,.F.,(2,2),(0.00000000000000000E0,1.00000000000000000E0),.UNSPECIFIED.);
#395=DEFINITIONAL_REPRESENTATION('',(#394),#291);
#396=PCURVE('',#138,#395);
#397=CARTESIAN_POINT('',(1.00000000000000000E0,0.00000000000000000E0));
#398=CARTESIAN_POINT('',(1.00000000000000000E0,1.00000000000000000E0));
#399=B_SPLINE_CURVE_WITH_KNOTS('',1,(#397,#398),.UNSPECIFIED.,.F.,.F.,(2,2),(0.00000000000000000E0,1.00000000000000000E0),.UNSPECIFIED.);
#400=DEFINITIONAL_REPRESENTATION('',(#399),#291);
#401=PCURVE('',#138,#400);
#402=CARTESIAN_POINT('',(1.00000000000000000E0,1.00000000000000000E0));
#403=CARTESIAN_POINT('',(0.00000000000000000E0,1.00000000000000000E0));
#404=B_SPLINE_CURVE_WITH_KNOTS('',1,(#402,#403),.UNSPECIFIED.,.F.,.F.,(2,2),(0.00000000000000000E0,1.00000000000000000E0),.UNSPECIFIED.);
#405=DEFINITIONAL_REPRESENTATION('',(#404),#291);
#406=PCURVE('',#138,#405);
#407=CARTESIAN_POINT('',(0.00000000000000000E0,1.00000000000000000E0));
#408=CARTESIAN_POINT('',(0.00000000000000000E0,0.00000000000000000E0));
#409=B_SPLINE_CURVE_WITH_KNOTS('',1,(#407,#408),.UNSPECIFIED.,.F.,.F.,(2,2),(0.00000000000000000E0,1.00000000000000000E0),.UNSPECIFIED.);
#410=DEFINITIONAL_REPRESENTATION('',(#409),#291);
#411=PCURVE('',#138,#410);
#412=CARTESIAN_POINT('',(0.00000000000000000E0,0.00000000000000000E0));
#413=CARTESIAN_POINT('',(1.00000000000000000E0,0.00000000000000000E0));
#414=B_SPLINE_CURVE_WITH_KNOTS('',1,(#412,#413),.UNSPECIFIED.,.F.,.F.,(2,2),(0.00000000000000000E0,1.00000000000000000E0),.UNSPECIFIED.);
#415=DEFINITIONAL_REPRESENTATION('',(#414),#291);
#416=PCURVE('',#157,#415);
#417=CARTESIAN_POINT('',(1.00000000000000000E0,0.00000000000000000E0));
#418=CARTESIAN_POINT('',(1.00000000000000000E0,1.00000000000000000E0));
#419=B_SPLINE_CURVE_WITH_KNOTS('',1,(#417,#418),.UNSPECIFIED.,.F.,.F.,(2,2),(0.00000000000000000E0,1.00000000000000000E0),.UNSPECIFIED.);
#420=DEFINITIONAL_REPRESENTATION('',(#419),#291);
#421=PCURVE('',#157,#420);
#422=CARTESIAN_POINT('',(1.00000000000000000E0,1.00000000000000000E0));
#423=CARTESIAN_POINT('',(0.00000000000000000E0,1.00000000000000000E0));
#424=B_SPLINE_CURVE_WITH_KNOTS('',1,(#422,#423),.UNSPECIFIED.,.F.,.F.,(2,2),(0.00000000000000000E0,1.00000000000000000E0),.UNSPECIFIED.);
#425=DEFINITIONAL_REPRESENTATION('',(#424),#291);
#426=PCURVE('',#157,#425);
#427=CARTESIAN_POINT('',(0.00000000000000000E0,1.00000000000000000E0));
#428=CARTESIAN_POINT('',(0.00000000000000000E0,0.00000000000000000E0));
#429=B_SPLINE_CURVE_WITH_KNOTS('',1,(#427,#428),.UNSPECIFIED.,.F.,.F.,(2,2),(0.00000000000000000E0,1.00000000000000000E0),.UNSPECIFIED.);
#430=DEFINITIONAL_REPRESENTATION('',(#429),#291);
#431=PCURVE('',#157,#430);
#432=CARTESIAN_POINT('',(0.00000000000000000E0,0.00000000000000000E0));
#433=CARTESIAN_POINT('',(1.00000000000000000E0,0.00000000000000000E0));
#434=B_SPLINE_CURVE_WITH_KNOTS('',1,(#432,#433),.UNSPECIFIED.,.F.,.F.,(2,2),(0.00000000000000000E0,1.00000000000000000E0),.UNSPECIFIED.);
#435=DEFINITIONAL_REPRESENTATION('',(#434),#291);
#436=PCURVE('',#176,#435);
#437=CARTESIAN_POINT('',(1.00000000000000000E0,0.00000000000000000E0));
#438=CARTESIAN_POINT('',(1.00000000000000000E0,1.00000000000000000E0));
#439=B_SPLINE_CURVE_WITH_KNOTS('',1,(#437,#438),.UNSPECIFIED.,.F.,.F.,(2,2),(0.00000000000000000E0,1.00000000000000000E0),.UNSPECIFIED.);
#440=DEFINITIONAL_REPRESENTATION('',(#439),#291);
#441=PCURVE('',#176,#440);
#442=CARTESIAN_POINT('',(1.00000000000000000E0,1.00000000000000000E0));
#443=CARTESIAN_POINT('',(0.00000000000000000E0,1.00000000000000000E0));
#444=B_SPLINE_CURVE_WITH_KNOTS('',1,(#442,#443),.UNSPECIFIED.,.F.,.F.,(2,2),(0.00000000000000000E0,1.00000000000000000E0),.UNSPECIFIED.);
#445=DEFINITIONAL_REPRESENTATION('',(#444),#291);
#446=PCURVE('',#176,#445);
#447=CARTESIAN_POINT('',(0.00000000000000000E0,1.00000000000000000E0));
#448=CARTESIAN_POINT('',(0.00000000000000000E0,0.00000000000000000E0));
#449=B_SPLINE_CURVE_WITH_KNOTS('',1,(#447,#448),.UNSPECIFIED.,.F.,.F.,(2,2),(0.00000000000000000E0,1.00000000000000000E0),.UNSPECIFIED.);
#450=DEFINITIONAL_REPRESENTATION('',(#449),#291);
#451=PCURVE('',#176,#450);
#452=CARTESIAN_POINT('',(-1.00000000000000000E0,0.00000000000000000E0));
#453=CARTESIAN_POINT('',(-1.00000000000000000E0,-1.00000000000000000E0));
#454=CARTESIAN_POINT('',(0.00000000000000000E0,-1.00000000000000000E0));
#455=(BOUNDED_CURVE()B_SPLINE_CURVE(2,(#452,#453,#454),.UNSPECIFIED.,.F.,.F.)B_SPLINE_CURVE_WITH_KNOTS((3,3),(0.00000000000000000E0,1.00000000000000000E0),.UNSPECIFIED.)CURVE()GEOMETRIC_REPRESENTATION_ITEM()RATIONAL_B_SPLINE_CURVE((1.00000000000000000E0,7.07106781186547573E-1,1.00000000000000000E0))REPRESENTATION_ITEM(''));
#456=DEFINITIONAL_REPRESENTATION('',(#455),#291);
#457=PCURVE('',#181,#456);
#458=CARTESIAN_POINT('',(0.00000000000000000E0,-1.00000000000000000E0));
#459=CARTESIAN_POINT('',(1.00000000000000000E0,-1.00000000000000000E0));
#460=CARTESIAN_POINT('',(1.00000000000000000E0,0.00000000000000000E0));
#461=(BOUNDED_CURVE()B_SPLINE_CURVE(2,(#458,#459,#460),.UNSPECIFIED.,.F.,.F.)B_SPLINE_CURVE_WITH_KNOTS((3,3),(0.00000000000000000E0,1.00000000000000000E0),.UNSPECIFIED.)CURVE()GEOMETRIC_REPRESENTATION_ITEM()RATIONAL_B_SPLINE_CURVE((1.00000000000000000E0,7.07106781186547573E-1,1.00000000000000000E0))REPRESENTATION_ITEM(''));
#462=DEFINITIONAL_REPRESENTATION('',(#461),#291);
#463=PCURVE('',#181,#462);
#464=CARTESIAN_POINT('',(1.00000000000000000E0,0.00000000000000000E0));
#465=CARTESIAN_POINT('',(1.00000000000000000E0,1.00000000000000000E0));
#466=CARTESIAN_POINT('',(0.00000000000000000E0,1.00000000000000000E0));
#467=(BOUNDED_CURVE()B_SPLINE_CURVE(2,(#464,#465,#466),.UNSPECIFIED.,.F.,.F.)B_SPLINE_CURVE_WITH_KNOTS((3,3),(0.00000000000000000E0,1.00000000000000000E0),.UNSPECIFIED.)CURVE()GEOMETRIC_REPRESENTATION_ITEM()RATIONAL_B_SPLINE_CURVE((1.00000000000000000E0,7.07106781186547573E-1,1.00000000000000000E0))REPRESENTATION_ITEM(''));
#468=DEFINITIONAL_REPRESENTATION('',(#467),#291);
#469=PCURVE('',#181,#468);
#470=CARTESIAN_POINT('',(0.00000000000000000E0,1.00000000000000000E0));
#471=CARTESIAN_POINT('',(-1.00000000000000000E0,1.00000000000000000E0));
#472=CARTESIAN_POINT('',(-1.00000000000000000E0,0.00000000000000000E0));
#473=(BOUNDED_CURVE()B_SPLINE_CURVE(2,(#470,#471,#472),.UNSPECIFIED.,.F.,.F.)B_SPLINE_CURVE_WITH_KNOTS((3,3),(0.00000000000000000E0,1.00000000000000000E0),.UNSPECIFIED.)CURVE()GEOMETRIC_REPRESENTATION_ITEM()RATIONAL_B_SPLINE_CURVE((1.00000000000000000E0,7.07106781186547573E-1,1.00000000000000000E0))REPRESENTATION_ITEM(''));
#474=DEFINITIONAL_REPRESENTATION('',(#473),#291);
#475=PCURVE('',#181,#474);
#476=CARTESIAN_POINT('',(0.00000000000000000E0,9.00000000000000000E0));
#477=CARTESIAN_POINT('',(1.00000000000000000E0,9.00000000000000000E0));
#478=CARTESIAN_POINT('',(1.00000000000000000E0,1.00000000000000000E1));
#479=(BOUNDED_CURVE()B_SPLINE_CURVE(2,(#476,#477,#478),.UNSPECIFIED.,.F.,.F.)B_SPLINE_CURVE_WITH_KNOTS((3,3),(0.00000000000000000E0,1.00000000000000000E0),.UNSPECIFIED.)CURVE()GEOMETRIC_REPRESENTATION_ITEM()RATIONAL_B_SPLINE_CURVE((1.00000000000000000E0,7.07106781186547573E-1,1.00000000000000000E0))REPRESENTATION_ITEM(''));
#480=DEFINITIONAL_REPRESENTATION('',(#479),#291);
#481=PCURVE('',#186,#480);
#482=CARTESIAN_POINT('',(1.00000000000000000E0,1.00000000000000000E1));
#483=CARTESIAN_POINT('',(1.00000000000000000E0,1.10000000000000000E1));
#484=CARTESIAN_POINT('',(0.00000000000000000E0,1.10000000000000000E1));
#485=(BOUNDED_CURVE()B_SPLINE_CURVE(2,(#482,#483,#484),.UNSPECIFIED.,.F.,.F.)B_SPLINE_CURVE_WITH_KNOTS((3,3),(0.00000000000000000E0,1.00000000000000000E0),.UNSPECIFIED.)CURVE()GEOMETRIC_REPRESENTATION_ITEM()RATIONAL_B_SPLINE_CURVE((1.00000000000000000E0,7.07106781186547573E-1,1.00000000000000000E0))REPRESENTATION_ITEM(''));
#486=DEFINITIONAL_REPRESENTATION('',(#485),#291);
#487=PCURVE('',#186,#486);
#488=CARTESIAN_POINT('',(0.00000000000000000E0,1.10000000000000000E1));
#489=CARTESIAN_POINT('',(-1.00000000000000000E0,1.10000000000000000E1));
#490=CARTESIAN_POINT('',(-1.00000000000000000E0,1.00000000000000000E1));
#491=(BOUNDED_CURVE()B_SPLINE_CURVE(2,(#488,#489,#490),.UNSPECIFIED.,.F.,.F.)B_SPLINE_CURVE_WITH_KNOTS((3,3),(0.00000000000000000E0,1.00000000000000000E0),.UNSPECIFIED.)CURVE()GEOMETRIC_REPRESENTATION_ITEM()RATIONAL_B_SPLINE_CURVE((1.00000000000000000E0,7.07106781186547573E-1,1.00000000000000000E0))REPRESENTATION_ITEM(''));
#492=DEFINITIONAL_REPRESENTATION('',(#491),#291);
#493=PCURVE('',#186,#492);
#494=CARTESIAN_POINT('',(-1.00000000000000000E0,1.00000000000000000E1));
#495=CARTESIAN_POINT('',(-1.00000000000000000E0,9.00000000000000000E0));
#496=CARTESIAN_POINT('',(0.00000000000000000E0,9.00000000000000000E0));
#497=(BOUNDED_CURVE()B_SPLINE_CURVE(2,(#494,#495,#496),.UNSPECIFIED.,.F.,.F.)B_SPLINE_CURVE_WITH_KNOTS((3,3),(0.00000000000000000E0,1.00000000000000000E0),.UNSPECIFIED.)CURVE()GEOMETRIC_REPRESENTATION_ITEM()RATIONAL_B_SPLINE_CURVE((1.00000000000000000E0,7.07106781186547573E-1,1.00000000000000000E0))REPRESENTATION_ITEM(''));
#498=DEFINITIONAL_REPRESENTATION('',(#497),#291);
#499=PCURVE('',#186,#498);
#500=SURFACE_CURVE('',#190,(#296,#475),.PCURVE_S1.);
#501=EDGE_CURVE('OSCAD_TOPO/3|edge|e:7af43d0f6da04ac3a6e72ebda0ebab05|e0eba3cecadbe715ecb7d70bb3c74f4e78052c4603ed51a5da1f78df137b5389',#2,#4,#500,.T.);
#502=SURFACE_CURVE('',#197,(#301,#331),.PCURVE_S1.);
#503=EDGE_CURVE('OSCAD_TOPO/3|edge|e:4aa307836e455990f66af8c2d3858cee|a5ef10318c2c93f63bfade0c289e1483b4252d2b2c11d9af9bae9187c027e09a',#4,#12,#502,.T.);
#504=SURFACE_CURVE('',#201,(#306,#376),.PCURVE_S1.);
#505=EDGE_CURVE('OSCAD_TOPO/3|edge|e:7889ddc0ca15eb54f844e3a9a0fe0789|70ed97a47896d24e57eec5c3e88599d9191b5c34d1f1544d4b508fb5850b2545',#10,#12,#504,.T.);
#506=SURFACE_CURVE('',#208,(#311,#361),.PCURVE_S1.);
#507=EDGE_CURVE('OSCAD_TOPO/3|edge|e:2385128efc6741178a72667364b0ffbd|ecb1b3a0b1491687d5784f28d8f3be0eeb81cf1f1e16e4bfac8dfcca1d9ba5fa',#2,#10,#506,.T.);
#508=SURFACE_CURVE('',#212,(#316,#469),.PCURVE_S1.);
#509=EDGE_CURVE('OSCAD_TOPO/3|edge|e:983cbe6b53a436d353ca3234b1cfdd0b|7ec8d0a7cb3d3e3732db9d7e1b0949774ac0d54dc38c92635a098deaa5b63c64',#4,#6,#508,.T.);
#510=SURFACE_CURVE('',#219,(#321,#351),.PCURVE_S1.);
#511=EDGE_CURVE('OSCAD_TOPO/3|edge|e:3b835adcee2377f96918a57090889f9e|86f295a1aca7f2ee1c8bb4903fd96f605e7f8f87333d65b111b05e9af8554486',#6,#14,#510,.T.);
#512=SURFACE_CURVE('',#223,(#326,#396),.PCURVE_S1.);
#513=EDGE_CURVE('OSCAD_TOPO/3|edge|e:8a9450a4ba842c1cdf34b3ff4496db34|547c8073bc36e46e165a1e138d9f986fa8a09a5c691200f6045612ebdf45f76f',#12,#14,#512,.T.);
#514=SURFACE_CURVE('',#227,(#336,#463),.PCURVE_S1.);
#515=EDGE_CURVE('OSCAD_TOPO/3|edge|e:6c2c9a17122b93eda11319d21669b160|e092aa55f4dd6538cd8c30780202b1a71c0ef70f06ca5e1defb2fdeb913bc605',#6,#8,#514,.T.);
#516=SURFACE_CURVE('',#234,(#341,#371),.PCURVE_S1.);
#517=EDGE_CURVE('OSCAD_TOPO/3|edge|e:494e41f9a2c66af97c8f341209720a9f|862fbdb13f9b01c4efd6c458274de837e998b67f6e1cdad9aff1d2160166250d',#8,#16,#516,.T.);
#518=SURFACE_CURVE('',#238,(#346,#416),.PCURVE_S1.);
#519=EDGE_CURVE('OSCAD_TOPO/3|edge|e:5de747016ea6e7d719e5ba2e9deb85eb|d631a5faea8d1dee1123fa496cbbe753d921b6096352adf49c6215e36206fa78',#14,#16,#518,.T.);
#520=SURFACE_CURVE('',#242,(#356,#457),.PCURVE_S1.);
#521=EDGE_CURVE('OSCAD_TOPO/3|edge|e:62f276512b7b4aadd94b3e6dd5d2557c|b6aaf5974c48e790a97bd73bf44a7aa7065831cf193cb414c09e06e4c74ca61a',#2,#8,#520,.T.);
#522=SURFACE_CURVE('',#246,(#366,#436),.PCURVE_S1.);
#523=EDGE_CURVE('OSCAD_TOPO/3|edge|e:9c830757717c2521f2cb891d26a4f519|a4a3ed769d116bf412ab7c6ae2423110a43351928a7a75c958822e1f5a87178c',#10,#16,#522,.T.);
#524=SURFACE_CURVE('',#253,(#381,#411),.PCURVE_S1.);
#525=EDGE_CURVE('OSCAD_TOPO/3|edge|e:58603559cfe5922446b7d07ea33675d8|292c20fa65a05ae849e1441ea6e804570e36ce345e6e05e8eeae5af27ed384eb',#12,#20,#524,.T.);
#526=SURFACE_CURVE('',#257,(#386,#481),.PCURVE_S1.);
#527=EDGE_CURVE('OSCAD_TOPO/3|edge|e:23c102dfb395038e007b0f7151387828|22a21323cb1fbd44edb90e98ba2c179c023ef484e50880cc7e47d1e3cb9d6ec5',#18,#20,#526,.T.);
#528=SURFACE_CURVE('',#264,(#391,#441),.PCURVE_S1.);
#529=EDGE_CURVE('OSCAD_TOPO/3|edge|e:19304ed8c8cd1aae9e451d0b99ab5fc8|dc3d530bec1a38d5f77034d8d673aee2705969cb554887bf6e9c5caa1b9e863f',#10,#18,#528,.T.);
#530=SURFACE_CURVE('',#271,(#401,#431),.PCURVE_S1.);
#531=EDGE_CURVE('OSCAD_TOPO/3|edge|e:641de534687b2d1b420499ec0a810cd3|dcd2873404f9917234350070a4f3ec19ccaa5bb43e4c4d5ba05cbeca987c1793',#14,#22,#530,.T.);
#532=SURFACE_CURVE('',#275,(#406,#487),.PCURVE_S1.);
#533=EDGE_CURVE('OSCAD_TOPO/3|edge|e:ff8c57c980217ee0b6c50afe24912b12|070d241c5825dd6166d20b268021f0760915260366b3626f10007c837d615903',#20,#22,#532,.T.);
#534=SURFACE_CURVE('',#282,(#421,#451),.PCURVE_S1.);
#535=EDGE_CURVE('OSCAD_TOPO/3|edge|e:8569ee59826d1b975b9821c811dcf2a8|230a49335faccdff5394252ee832b93c9db483024dd61237665573fbd4cf383a',#16,#24,#534,.T.);
#536=SURFACE_CURVE('',#286,(#426,#493),.PCURVE_S1.);
#537=EDGE_CURVE('OSCAD_TOPO/3|edge|e:88cda7ef987fb284a26e974bcd6e0821|32b7fc15075ea6a657f04e16e556bb76827cc78726379ce3af0154389357ebba',#22,#24,#536,.T.);
#538=SURFACE_CURVE('',#290,(#446,#499),.PCURVE_S1.);
#539=EDGE_CURVE('OSCAD_TOPO/3|edge|e:a2b8f6ded27f9717fad5541a19818719|8d3c5f4f5355531071ac294f5e1e176013bde1973f8860e94eedc023c8495990',#18,#24,#538,.T.);
#540=ORIENTED_EDGE('',*,*,#501,.T.);
#541=ORIENTED_EDGE('',*,*,#503,.T.);
#542=ORIENTED_EDGE('',*,*,#505,.F.);
#543=ORIENTED_EDGE('',*,*,#507,.F.);
#544=EDGE_LOOP('OSCAD_TOPO/3|loop|l:c4a0000846413f5a52cb39885cb1d255|058c8df268018adc8a52bce38bce7f803d73508fecd4c382e09101855d159a27',(#540,#541,#542,#543));
#545=ORIENTED_EDGE('',*,*,#509,.T.);
#546=ORIENTED_EDGE('',*,*,#511,.T.);
#547=ORIENTED_EDGE('',*,*,#513,.F.);
#548=ORIENTED_EDGE('',*,*,#503,.F.);
#549=EDGE_LOOP('OSCAD_TOPO/3|loop|l:6f40184212ec4211d59fe289d98c1dc0|2961dea2a445c811c1d5da5bef6c67ae10001a24a005532083020dd5e58037ad',(#545,#546,#547,#548));
#550=ORIENTED_EDGE('',*,*,#515,.T.);
#551=ORIENTED_EDGE('',*,*,#517,.T.);
#552=ORIENTED_EDGE('',*,*,#519,.F.);
#553=ORIENTED_EDGE('',*,*,#511,.F.);
#554=EDGE_LOOP('OSCAD_TOPO/3|loop|l:2399d095ba594ce28e38b72cd9cc00a0|f9dcf5da0136eed2d6eb920ec92800e8340cc5dce5633b7bb643921f942e4117',(#550,#551,#552,#553));
#555=ORIENTED_EDGE('',*,*,#521,.F.);
#556=ORIENTED_EDGE('',*,*,#507,.T.);
#557=ORIENTED_EDGE('',*,*,#523,.T.);
#558=ORIENTED_EDGE('',*,*,#517,.F.);
#559=EDGE_LOOP('OSCAD_TOPO/3|loop|l:69399bdc8ca806449445efbf7652b87b|ebfa82060dbb9306287f05439222a6dfc62b19bb9db20caf03a87c8aae940e84',(#555,#556,#557,#558));
#560=ORIENTED_EDGE('',*,*,#505,.T.);
#561=ORIENTED_EDGE('',*,*,#525,.T.);
#562=ORIENTED_EDGE('',*,*,#527,.F.);
#563=ORIENTED_EDGE('',*,*,#529,.F.);
#564=EDGE_LOOP('OSCAD_TOPO/3|loop|l:f6175c414a00cc6c206c1d770dc8acb1|e674a286789b5b8e35fe2b6a23a334f6abec1c2adab03ee63cdaaf4abb62f2d5',(#560,#561,#562,#563));
#565=ORIENTED_EDGE('',*,*,#513,.T.);
#566=ORIENTED_EDGE('',*,*,#531,.T.);
#567=ORIENTED_EDGE('',*,*,#533,.F.);
#568=ORIENTED_EDGE('',*,*,#525,.F.);
#569=EDGE_LOOP('OSCAD_TOPO/3|loop|l:a771ec500c1dc15842d090bdcadd9cba|a8097251ae6b98ee326818884b545aa439a02121d264fa1dfa0b2fda408e9ab8',(#565,#566,#567,#568));
#570=ORIENTED_EDGE('',*,*,#519,.T.);
#571=ORIENTED_EDGE('',*,*,#535,.T.);
#572=ORIENTED_EDGE('',*,*,#537,.F.);
#573=ORIENTED_EDGE('',*,*,#531,.F.);
#574=EDGE_LOOP('OSCAD_TOPO/3|loop|l:9127ffb29caac671c264c4126c1f859c|f54f36de520db931e7e606b4a722367bed3432f770986200c32b87c572f2260d',(#570,#571,#572,#573));
#575=ORIENTED_EDGE('',*,*,#523,.F.);
#576=ORIENTED_EDGE('',*,*,#529,.T.);
#577=ORIENTED_EDGE('',*,*,#539,.T.);
#578=ORIENTED_EDGE('',*,*,#535,.F.);
#579=EDGE_LOOP('OSCAD_TOPO/3|loop|l:9f040a910570d2f60cab96b613b89986|1c484e165708df288221a0cc5f1f685429f9ac21ce61b91f611505dbc12ad01a',(#575,#576,#577,#578));
#580=ORIENTED_EDGE('',*,*,#521,.T.);
#581=ORIENTED_EDGE('',*,*,#515,.F.);
#582=ORIENTED_EDGE('',*,*,#509,.F.);
#583=ORIENTED_EDGE('',*,*,#501,.F.);
#584=EDGE_LOOP('OSCAD_TOPO/3|loop|l:0e61524d9c8c745b85aa8ecd78d7ebb9|8475746917c93aecfb06e356e0cf0e25e359a609513655fd8a5c502d89c69137',(#580,#581,#582,#583));
#585=ORIENTED_EDGE('',*,*,#527,.T.);
#586=ORIENTED_EDGE('',*,*,#533,.T.);
#587=ORIENTED_EDGE('',*,*,#537,.T.);
#588=ORIENTED_EDGE('',*,*,#539,.F.);
#589=EDGE_LOOP('OSCAD_TOPO/3|loop|l:e105fe90a9e085675fe737752eaf785d|6568f7b3dce09fd193b3ef5cbadc35fa05e0441b7cc69b8a807d035a0de2068b',(#585,#586,#587,#588));
#590=FACE_OUTER_BOUND('',#544,.T.);
#591=ADVANCED_FACE('OSCAD_TOPO/3|face|f:b9a1a7fcca82367457e52454ce5435ae|3dc63aa3594c08552a6401c843b8ff0ef459cfeb07881f5ae846a58e405ddc82',(#590),#43,.T.);
#592=FACE_OUTER_BOUND('',#549,.T.);
#593=ADVANCED_FACE('OSCAD_TOPO/3|face|f:80f7f661a457e12e1c6765f4fed1d641|96b1f402aa2b37b579f22107d6f5bc08d1402096bb110a37759fd6569df74f76',(#592),#62,.T.);
#594=FACE_OUTER_BOUND('',#554,.T.);
#595=ADVANCED_FACE('OSCAD_TOPO/3|face|f:15033f1a1b59b1e0ac6354205a08ab28|87bd6994259f903d49c36c4acc9f2229c569d725ff1074a70103213e155ec2c9',(#594),#81,.T.);
#596=FACE_OUTER_BOUND('',#559,.T.);
#597=ADVANCED_FACE('OSCAD_TOPO/3|face|f:d547aa7ce66d5c36dac72e79f4ac5acf|5564c054f615fdf5734ff78fbc4052611cfa62787ad2f4ebb7d010735241ef77',(#596),#100,.T.);
#598=FACE_OUTER_BOUND('',#564,.T.);
#599=ADVANCED_FACE('OSCAD_TOPO/3|face|f:59b70eb621c77e61f86dce79a8a1fb36|dc232b5f2369f9d236f568b8fb298625ba003ab5da229ecf4edf2d0720fe3de5',(#598),#119,.T.);
#600=FACE_OUTER_BOUND('',#569,.T.);
#601=ADVANCED_FACE('OSCAD_TOPO/3|face|f:127321fe235ab031f80916a447f5f024|9ec1b76c07b657bf7692c07804c43e66f9245958da5b914550fd1b8ee1c37f57',(#600),#138,.T.);
#602=FACE_OUTER_BOUND('',#574,.T.);
#603=ADVANCED_FACE('OSCAD_TOPO/3|face|f:b0af623dc84bd6259b5bc88242c2dd65|d6afb4978b8abda25d6197eea0ac3a8284107fe9d3f8c5f27d0716e59bf3c500',(#602),#157,.T.);
#604=FACE_OUTER_BOUND('',#579,.T.);
#605=ADVANCED_FACE('OSCAD_TOPO/3|face|f:1939d407cc77812000a721c315620ea7|ae5d858c1a0d3c33fe32158362e400d5d032192f26d8f1edf205bd1b8c8ce9b9',(#604),#176,.T.);
#606=FACE_OUTER_BOUND('',#584,.T.);
#607=ADVANCED_FACE('OSCAD_TOPO/3|face|f:5da0b20f8b8c2ed0cbef66ec36006488|2d52a71ced23e165922c3150803268e756a4586227f4c9c026d44f4d64399536',(#606),#181,.T.);
#608=FACE_OUTER_BOUND('',#589,.T.);
#609=ADVANCED_FACE('OSCAD_TOPO/3|face|f:2c03aa7f3200423418cea0041a465755|5920625e0dfd38a09c41f33484fe3ec4eb54f65d1a3fb21ab3fb9ae1bc952d8a',(#608),#186,.T.);
#610=CLOSED_SHELL('OSCAD_TOPO/3|shell|s:9eb27a28a8f51f228e168c545e418717|61620d6c250c2d1972109ac64fba8a773a68298199701d1407862b75f9fef720',(#591,#593,#595,#597,#599,#601,#603,#605,#607,#609));
#611=MANIFOLD_SOLID_BREP('OSCAD_TOPO/3|body|b:40a48f45805f15ca1641c8dad2fc136c|9419e2989f57eae3968d1175b0c9b86e2290d321d70d2b56e515b8129034776c',#610);
#612=(LENGTH_UNIT()NAMED_UNIT(*)SI_UNIT(.MILLI.,.METRE.));
#613=UNCERTAINTY_MEASURE_WITH_UNIT(LENGTH_MEASURE(9.99999999999999955E-8),#612,'distance_accuracy_value','');
#614=(GEOMETRIC_REPRESENTATION_CONTEXT(3)GLOBAL_UNCERTAINTY_ASSIGNED_CONTEXT((#613))GLOBAL_UNIT_ASSIGNED_CONTEXT((#612))REPRESENTATION_CONTEXT('','3D'));
#615=ADVANCED_BREP_SHAPE_REPRESENTATION('',(#611),#614);
#616=APPLICATION_CONTEXT('managed model based 3d engineering');
#617=PRODUCT_CONTEXT('',#616,'mechanical');
#618=PRODUCT('model','model','',(#617));
#619=PRODUCT_DEFINITION_FORMATION('1','',#618);
#620=PRODUCT_DEFINITION_CONTEXT('part definition',#616,'design');
#621=PRODUCT_DEFINITION('design','',#619,#620);
#622=PRODUCT_DEFINITION_SHAPE('','',#621);
#623=SHAPE_DEFINITION_REPRESENTATION(#622,#615);
ENDSEC;
END-ISO-10303-21;
