ISO-10303-21;
HEADER;
FILE_DESCRIPTION(('OpenSCAD Viewer retained AP242 B-rep'),'2;1');
FILE_NAME('model.step','',(''),(''),'OpenSCAD Viewer','OpenSCAD Viewer','');
FILE_SCHEMA(('AP242_MANAGED_MODEL_BASED_3D_ENGINEERING_MIM_LF'));
ENDSEC;
DATA;
#1=CARTESIAN_POINT('',(-1.00000000000000000E0,-1.00000000000000000E0,0.00000000000000000E0));
#2=VERTEX_POINT('OSCAD_TOPO/3|vertex|v:8b0c401dfd26c9a864e5e6912223f1ff|c22b42f7031b3d39e586b7a14506935abee601cc3f0277ed0e65b51a4ffaf060',#1);
#3=CARTESIAN_POINT('',(1.00000000000000000E0,-1.00000000000000000E0,0.00000000000000000E0));
#4=VERTEX_POINT('OSCAD_TOPO/3|vertex|v:77db26283c111e57dea65bec9e96e3f2|3b7a245ba826dc22e8e356d6ea9a956e50c1f53f3b674482ac9f946b229420af',#3);
#5=CARTESIAN_POINT('',(1.00000000000000000E0,1.00000000000000000E0,0.00000000000000000E0));
#6=VERTEX_POINT('OSCAD_TOPO/3|vertex|v:b471cab15cd502e0183cbd792ffff343|7c0ff219006a237dcc031f736e659b62986b2df98f2deef8ed6d0c548d655cf1',#5);
#7=CARTESIAN_POINT('',(-1.00000000000000000E0,1.00000000000000000E0,0.00000000000000000E0));
#8=VERTEX_POINT('OSCAD_TOPO/3|vertex|v:dedf867940d7ce1bf3d19ea721a13e86|c79627e33fa4623f5bf7bd78396dc21b287e38d0b11ada7cd0c54481f3b10a6f',#7);
#9=CARTESIAN_POINT('',(-1.00000000000000000E0,-1.00000000000000000E0,5.00000000000000000E0));
#10=VERTEX_POINT('OSCAD_TOPO/3|vertex|v:28fa7b90dea25d797fcac6a6041027a4|7c3b36026e8bf96be01f9f59888dca56c9091688c26b8d67ecf90cd18346665a',#9);
#11=CARTESIAN_POINT('',(1.00000000000000000E0,-1.00000000000000000E0,5.00000000000000000E0));
#12=VERTEX_POINT('OSCAD_TOPO/3|vertex|v:4b2416786fab31a75e65752cc757fba5|aa29b6c1c4a458ac72c6c352c2e8a7cac127ec61b7cd526728ff0ae11f09c6a9',#11);
#13=CARTESIAN_POINT('',(1.00000000000000000E0,1.00000000000000000E0,5.00000000000000000E0));
#14=VERTEX_POINT('OSCAD_TOPO/3|vertex|v:7e02c40f3a7c064f531303f905475de5|ceeb697f9d1a29bdbe31f1a2eb0c4b4d1d268cb53e9e0c6366d09302e383f292',#13);
#15=CARTESIAN_POINT('',(-1.00000000000000000E0,1.00000000000000000E0,5.00000000000000000E0));
#16=VERTEX_POINT('OSCAD_TOPO/3|vertex|v:cacc3fd88ae4cb307924e39cad9ecc80|88c6ff711bdbc3ebaee34c547500cac33336add36bd1417f1a36342fd5847dfa',#15);
#17=CARTESIAN_POINT('',(-1.00000000000000000E0,-1.00000000000000000E0,0.00000000000000000E0));
#18=CARTESIAN_POINT('',(-1.00000000000000000E0,-1.00000000000000000E0,1.00000000000000000E0));
#19=CARTESIAN_POINT('',(-1.00000000000000000E0,-1.00000000000000000E0,3.00000000000000000E0));
#20=CARTESIAN_POINT('',(-1.00000000000000000E0,-1.00000000000000000E0,5.00000000000000000E0));
#21=CARTESIAN_POINT('',(1.00000000000000000E0,-1.00000000000000000E0,0.00000000000000000E0));
#22=CARTESIAN_POINT('',(1.00000000000000000E0,-1.00000000000000000E0,1.00000000000000000E0));
#23=CARTESIAN_POINT('',(1.00000000000000000E0,-1.00000000000000000E0,3.00000000000000000E0));
#24=CARTESIAN_POINT('',(1.00000000000000000E0,-1.00000000000000000E0,5.00000000000000000E0));
#25=(BOUNDED_SURFACE()B_SPLINE_SURFACE(1,2,((#17,#18,#19,#20),(#21,#22,#23,#24)),.UNSPECIFIED.,.F.,.F.,.F.)B_SPLINE_SURFACE_WITH_KNOTS((2,2),(3,1,3),(0.00000000000000000E0,1.00000000000000000E0),(0.00000000000000000E0,2.50000000000000000E-1,1.00000000000000000E0),.UNSPECIFIED.)GEOMETRIC_REPRESENTATION_ITEM()RATIONAL_B_SPLINE_SURFACE(((1.00000000000000000E0,7.50000000000000000E-1,1.50000000000000000E0,1.00000000000000000E0),(1.00000000000000000E0,7.50000000000000000E-1,1.50000000000000000E0,1.00000000000000000E0)))REPRESENTATION_ITEM('')SURFACE());
#26=CARTESIAN_POINT('',(1.00000000000000000E0,-1.00000000000000000E0,0.00000000000000000E0));
#27=CARTESIAN_POINT('',(1.00000000000000000E0,-1.00000000000000000E0,1.00000000000000000E0));
#28=CARTESIAN_POINT('',(1.00000000000000000E0,-1.00000000000000000E0,3.00000000000000000E0));
#29=CARTESIAN_POINT('',(1.00000000000000000E0,-1.00000000000000000E0,5.00000000000000000E0));
#30=CARTESIAN_POINT('',(1.00000000000000000E0,1.00000000000000000E0,0.00000000000000000E0));
#31=CARTESIAN_POINT('',(1.00000000000000000E0,1.00000000000000000E0,1.00000000000000000E0));
#32=CARTESIAN_POINT('',(1.00000000000000000E0,1.00000000000000000E0,3.00000000000000000E0));
#33=CARTESIAN_POINT('',(1.00000000000000000E0,1.00000000000000000E0,5.00000000000000000E0));
#34=(BOUNDED_SURFACE()B_SPLINE_SURFACE(1,2,((#26,#27,#28,#29),(#30,#31,#32,#33)),.UNSPECIFIED.,.F.,.F.,.F.)B_SPLINE_SURFACE_WITH_KNOTS((2,2),(3,1,3),(0.00000000000000000E0,1.00000000000000000E0),(0.00000000000000000E0,2.50000000000000000E-1,1.00000000000000000E0),.UNSPECIFIED.)GEOMETRIC_REPRESENTATION_ITEM()RATIONAL_B_SPLINE_SURFACE(((1.00000000000000000E0,7.50000000000000000E-1,1.50000000000000000E0,1.00000000000000000E0),(1.00000000000000000E0,7.50000000000000000E-1,1.50000000000000000E0,1.00000000000000000E0)))REPRESENTATION_ITEM('')SURFACE());
#35=CARTESIAN_POINT('',(1.00000000000000000E0,1.00000000000000000E0,0.00000000000000000E0));
#36=CARTESIAN_POINT('',(1.00000000000000000E0,1.00000000000000000E0,1.00000000000000000E0));
#37=CARTESIAN_POINT('',(1.00000000000000000E0,1.00000000000000000E0,3.00000000000000000E0));
#38=CARTESIAN_POINT('',(1.00000000000000000E0,1.00000000000000000E0,5.00000000000000000E0));
#39=CARTESIAN_POINT('',(-1.00000000000000000E0,1.00000000000000000E0,0.00000000000000000E0));
#40=CARTESIAN_POINT('',(-1.00000000000000000E0,1.00000000000000000E0,1.00000000000000000E0));
#41=CARTESIAN_POINT('',(-1.00000000000000000E0,1.00000000000000000E0,3.00000000000000000E0));
#42=CARTESIAN_POINT('',(-1.00000000000000000E0,1.00000000000000000E0,5.00000000000000000E0));
#43=(BOUNDED_SURFACE()B_SPLINE_SURFACE(1,2,((#35,#36,#37,#38),(#39,#40,#41,#42)),.UNSPECIFIED.,.F.,.F.,.F.)B_SPLINE_SURFACE_WITH_KNOTS((2,2),(3,1,3),(0.00000000000000000E0,1.00000000000000000E0),(0.00000000000000000E0,2.50000000000000000E-1,1.00000000000000000E0),.UNSPECIFIED.)GEOMETRIC_REPRESENTATION_ITEM()RATIONAL_B_SPLINE_SURFACE(((1.00000000000000000E0,7.50000000000000000E-1,1.50000000000000000E0,1.00000000000000000E0),(1.00000000000000000E0,7.50000000000000000E-1,1.50000000000000000E0,1.00000000000000000E0)))REPRESENTATION_ITEM('')SURFACE());
#44=CARTESIAN_POINT('',(-1.00000000000000000E0,1.00000000000000000E0,0.00000000000000000E0));
#45=CARTESIAN_POINT('',(-1.00000000000000000E0,1.00000000000000000E0,1.00000000000000000E0));
#46=CARTESIAN_POINT('',(-1.00000000000000000E0,1.00000000000000000E0,3.00000000000000000E0));
#47=CARTESIAN_POINT('',(-1.00000000000000000E0,1.00000000000000000E0,5.00000000000000000E0));
#48=CARTESIAN_POINT('',(-1.00000000000000000E0,-1.00000000000000000E0,0.00000000000000000E0));
#49=CARTESIAN_POINT('',(-1.00000000000000000E0,-1.00000000000000000E0,1.00000000000000000E0));
#50=CARTESIAN_POINT('',(-1.00000000000000000E0,-1.00000000000000000E0,3.00000000000000000E0));
#51=CARTESIAN_POINT('',(-1.00000000000000000E0,-1.00000000000000000E0,5.00000000000000000E0));
#52=(BOUNDED_SURFACE()B_SPLINE_SURFACE(1,2,((#44,#45,#46,#47),(#48,#49,#50,#51)),.UNSPECIFIED.,.F.,.F.,.F.)B_SPLINE_SURFACE_WITH_KNOTS((2,2),(3,1,3),(0.00000000000000000E0,1.00000000000000000E0),(0.00000000000000000E0,2.50000000000000000E-1,1.00000000000000000E0),.UNSPECIFIED.)GEOMETRIC_REPRESENTATION_ITEM()RATIONAL_B_SPLINE_SURFACE(((1.00000000000000000E0,7.50000000000000000E-1,1.50000000000000000E0,1.00000000000000000E0),(1.00000000000000000E0,7.50000000000000000E-1,1.50000000000000000E0,1.00000000000000000E0)))REPRESENTATION_ITEM('')SURFACE());
#53=CARTESIAN_POINT('',(1.00000000000000000E0,-1.00000000000000000E0,0.00000000000000000E0));
#54=CARTESIAN_POINT('',(1.00000000000000000E0,1.00000000000000000E0,0.00000000000000000E0));
#55=CARTESIAN_POINT('',(-1.00000000000000000E0,-1.00000000000000000E0,0.00000000000000000E0));
#56=CARTESIAN_POINT('',(-1.00000000000000000E0,1.00000000000000000E0,0.00000000000000000E0));
#57=B_SPLINE_SURFACE_WITH_KNOTS('',1,1,((#53,#54),(#55,#56)),.UNSPECIFIED.,.F.,.F.,.F.,(2,2),(2,2),(-1.00000000000000000E0,1.00000000000000000E0),(-1.00000000000000000E0,1.00000000000000000E0),.UNSPECIFIED.);
#58=CARTESIAN_POINT('',(-1.00000000000000000E0,-1.00000000000000000E0,5.00000000000000000E0));
#59=CARTESIAN_POINT('',(-1.00000000000000000E0,1.00000000000000000E0,5.00000000000000000E0));
#60=CARTESIAN_POINT('',(1.00000000000000000E0,-1.00000000000000000E0,5.00000000000000000E0));
#61=CARTESIAN_POINT('',(1.00000000000000000E0,1.00000000000000000E0,5.00000000000000000E0));
#62=B_SPLINE_SURFACE_WITH_KNOTS('',1,1,((#58,#59),(#60,#61)),.UNSPECIFIED.,.F.,.F.,.F.,(2,2),(2,2),(-1.00000000000000000E0,1.00000000000000000E0),(-1.00000000000000000E0,1.00000000000000000E0),.UNSPECIFIED.);
#63=CARTESIAN_POINT('',(-1.00000000000000000E0,-1.00000000000000000E0,0.00000000000000000E0));
#64=CARTESIAN_POINT('',(1.00000000000000000E0,-1.00000000000000000E0,0.00000000000000000E0));
#65=B_SPLINE_CURVE_WITH_KNOTS('',1,(#63,#64),.UNSPECIFIED.,.F.,.F.,(2,2),(0.00000000000000000E0,1.00000000000000000E0),.UNSPECIFIED.);
#66=CARTESIAN_POINT('',(1.00000000000000000E0,-1.00000000000000000E0,0.00000000000000000E0));
#67=CARTESIAN_POINT('',(1.00000000000000000E0,-1.00000000000000000E0,1.00000000000000000E0));
#68=CARTESIAN_POINT('',(1.00000000000000000E0,-1.00000000000000000E0,3.00000000000000000E0));
#69=CARTESIAN_POINT('',(1.00000000000000000E0,-1.00000000000000000E0,5.00000000000000000E0));
#70=(BOUNDED_CURVE()B_SPLINE_CURVE(2,(#66,#67,#68,#69),.UNSPECIFIED.,.F.,.F.)B_SPLINE_CURVE_WITH_KNOTS((3,1,3),(0.00000000000000000E0,2.50000000000000000E-1,1.00000000000000000E0),.UNSPECIFIED.)CURVE()GEOMETRIC_REPRESENTATION_ITEM()RATIONAL_B_SPLINE_CURVE((1.00000000000000000E0,7.50000000000000000E-1,1.50000000000000000E0,1.00000000000000000E0))REPRESENTATION_ITEM(''));
#71=CARTESIAN_POINT('',(-1.00000000000000000E0,-1.00000000000000000E0,5.00000000000000000E0));
#72=CARTESIAN_POINT('',(1.00000000000000000E0,-1.00000000000000000E0,5.00000000000000000E0));
#73=B_SPLINE_CURVE_WITH_KNOTS('',1,(#71,#72),.UNSPECIFIED.,.F.,.F.,(2,2),(0.00000000000000000E0,1.00000000000000000E0),.UNSPECIFIED.);
#74=CARTESIAN_POINT('',(-1.00000000000000000E0,-1.00000000000000000E0,0.00000000000000000E0));
#75=CARTESIAN_POINT('',(-1.00000000000000000E0,-1.00000000000000000E0,1.00000000000000000E0));
#76=CARTESIAN_POINT('',(-1.00000000000000000E0,-1.00000000000000000E0,3.00000000000000000E0));
#77=CARTESIAN_POINT('',(-1.00000000000000000E0,-1.00000000000000000E0,5.00000000000000000E0));
#78=(BOUNDED_CURVE()B_SPLINE_CURVE(2,(#74,#75,#76,#77),.UNSPECIFIED.,.F.,.F.)B_SPLINE_CURVE_WITH_KNOTS((3,1,3),(0.00000000000000000E0,2.50000000000000000E-1,1.00000000000000000E0),.UNSPECIFIED.)CURVE()GEOMETRIC_REPRESENTATION_ITEM()RATIONAL_B_SPLINE_CURVE((1.00000000000000000E0,7.50000000000000000E-1,1.50000000000000000E0,1.00000000000000000E0))REPRESENTATION_ITEM(''));
#79=CARTESIAN_POINT('',(1.00000000000000000E0,-1.00000000000000000E0,0.00000000000000000E0));
#80=CARTESIAN_POINT('',(1.00000000000000000E0,1.00000000000000000E0,0.00000000000000000E0));
#81=B_SPLINE_CURVE_WITH_KNOTS('',1,(#79,#80),.UNSPECIFIED.,.F.,.F.,(2,2),(0.00000000000000000E0,1.00000000000000000E0),.UNSPECIFIED.);
#82=CARTESIAN_POINT('',(1.00000000000000000E0,1.00000000000000000E0,0.00000000000000000E0));
#83=CARTESIAN_POINT('',(1.00000000000000000E0,1.00000000000000000E0,1.00000000000000000E0));
#84=CARTESIAN_POINT('',(1.00000000000000000E0,1.00000000000000000E0,3.00000000000000000E0));
#85=CARTESIAN_POINT('',(1.00000000000000000E0,1.00000000000000000E0,5.00000000000000000E0));
#86=(BOUNDED_CURVE()B_SPLINE_CURVE(2,(#82,#83,#84,#85),.UNSPECIFIED.,.F.,.F.)B_SPLINE_CURVE_WITH_KNOTS((3,1,3),(0.00000000000000000E0,2.50000000000000000E-1,1.00000000000000000E0),.UNSPECIFIED.)CURVE()GEOMETRIC_REPRESENTATION_ITEM()RATIONAL_B_SPLINE_CURVE((1.00000000000000000E0,7.50000000000000000E-1,1.50000000000000000E0,1.00000000000000000E0))REPRESENTATION_ITEM(''));
#87=CARTESIAN_POINT('',(1.00000000000000000E0,-1.00000000000000000E0,5.00000000000000000E0));
#88=CARTESIAN_POINT('',(1.00000000000000000E0,1.00000000000000000E0,5.00000000000000000E0));
#89=B_SPLINE_CURVE_WITH_KNOTS('',1,(#87,#88),.UNSPECIFIED.,.F.,.F.,(2,2),(0.00000000000000000E0,1.00000000000000000E0),.UNSPECIFIED.);
#90=CARTESIAN_POINT('',(1.00000000000000000E0,1.00000000000000000E0,0.00000000000000000E0));
#91=CARTESIAN_POINT('',(-1.00000000000000000E0,1.00000000000000000E0,0.00000000000000000E0));
#92=B_SPLINE_CURVE_WITH_KNOTS('',1,(#90,#91),.UNSPECIFIED.,.F.,.F.,(2,2),(0.00000000000000000E0,1.00000000000000000E0),.UNSPECIFIED.);
#93=CARTESIAN_POINT('',(-1.00000000000000000E0,1.00000000000000000E0,0.00000000000000000E0));
#94=CARTESIAN_POINT('',(-1.00000000000000000E0,1.00000000000000000E0,1.00000000000000000E0));
#95=CARTESIAN_POINT('',(-1.00000000000000000E0,1.00000000000000000E0,3.00000000000000000E0));
#96=CARTESIAN_POINT('',(-1.00000000000000000E0,1.00000000000000000E0,5.00000000000000000E0));
#97=(BOUNDED_CURVE()B_SPLINE_CURVE(2,(#93,#94,#95,#96),.UNSPECIFIED.,.F.,.F.)B_SPLINE_CURVE_WITH_KNOTS((3,1,3),(0.00000000000000000E0,2.50000000000000000E-1,1.00000000000000000E0),.UNSPECIFIED.)CURVE()GEOMETRIC_REPRESENTATION_ITEM()RATIONAL_B_SPLINE_CURVE((1.00000000000000000E0,7.50000000000000000E-1,1.50000000000000000E0,1.00000000000000000E0))REPRESENTATION_ITEM(''));
#98=CARTESIAN_POINT('',(1.00000000000000000E0,1.00000000000000000E0,5.00000000000000000E0));
#99=CARTESIAN_POINT('',(-1.00000000000000000E0,1.00000000000000000E0,5.00000000000000000E0));
#100=B_SPLINE_CURVE_WITH_KNOTS('',1,(#98,#99),.UNSPECIFIED.,.F.,.F.,(2,2),(0.00000000000000000E0,1.00000000000000000E0),.UNSPECIFIED.);
#101=CARTESIAN_POINT('',(-1.00000000000000000E0,-1.00000000000000000E0,0.00000000000000000E0));
#102=CARTESIAN_POINT('',(-1.00000000000000000E0,1.00000000000000000E0,0.00000000000000000E0));
#103=B_SPLINE_CURVE_WITH_KNOTS('',1,(#101,#102),.UNSPECIFIED.,.F.,.F.,(2,2),(0.00000000000000000E0,1.00000000000000000E0),.UNSPECIFIED.);
#104=CARTESIAN_POINT('',(-1.00000000000000000E0,-1.00000000000000000E0,5.00000000000000000E0));
#105=CARTESIAN_POINT('',(-1.00000000000000000E0,1.00000000000000000E0,5.00000000000000000E0));
#106=B_SPLINE_CURVE_WITH_KNOTS('',1,(#104,#105),.UNSPECIFIED.,.F.,.F.,(2,2),(0.00000000000000000E0,1.00000000000000000E0),.UNSPECIFIED.);
#107=(GEOMETRIC_REPRESENTATION_CONTEXT(2)REPRESENTATION_CONTEXT('','2D'));
#108=CARTESIAN_POINT('',(0.00000000000000000E0,0.00000000000000000E0));
#109=CARTESIAN_POINT('',(1.00000000000000000E0,0.00000000000000000E0));
#110=B_SPLINE_CURVE_WITH_KNOTS('',1,(#108,#109),.UNSPECIFIED.,.F.,.F.,(2,2),(0.00000000000000000E0,1.00000000000000000E0),.UNSPECIFIED.);
#111=DEFINITIONAL_REPRESENTATION('',(#110),#107);
#112=PCURVE('',#25,#111);
#113=CARTESIAN_POINT('',(1.00000000000000000E0,0.00000000000000000E0));
#114=CARTESIAN_POINT('',(1.00000000000000000E0,1.00000000000000000E0));
#115=B_SPLINE_CURVE_WITH_KNOTS('',1,(#113,#114),.UNSPECIFIED.,.F.,.F.,(2,2),(0.00000000000000000E0,1.00000000000000000E0),.UNSPECIFIED.);
#116=DEFINITIONAL_REPRESENTATION('',(#115),#107);
#117=PCURVE('',#25,#116);
#118=CARTESIAN_POINT('',(1.00000000000000000E0,1.00000000000000000E0));
#119=CARTESIAN_POINT('',(0.00000000000000000E0,1.00000000000000000E0));
#120=B_SPLINE_CURVE_WITH_KNOTS('',1,(#118,#119),.UNSPECIFIED.,.F.,.F.,(2,2),(0.00000000000000000E0,1.00000000000000000E0),.UNSPECIFIED.);
#121=DEFINITIONAL_REPRESENTATION('',(#120),#107);
#122=PCURVE('',#25,#121);
#123=CARTESIAN_POINT('',(0.00000000000000000E0,1.00000000000000000E0));
#124=CARTESIAN_POINT('',(0.00000000000000000E0,0.00000000000000000E0));
#125=B_SPLINE_CURVE_WITH_KNOTS('',1,(#123,#124),.UNSPECIFIED.,.F.,.F.,(2,2),(0.00000000000000000E0,1.00000000000000000E0),.UNSPECIFIED.);
#126=DEFINITIONAL_REPRESENTATION('',(#125),#107);
#127=PCURVE('',#25,#126);
#128=CARTESIAN_POINT('',(0.00000000000000000E0,0.00000000000000000E0));
#129=CARTESIAN_POINT('',(1.00000000000000000E0,0.00000000000000000E0));
#130=B_SPLINE_CURVE_WITH_KNOTS('',1,(#128,#129),.UNSPECIFIED.,.F.,.F.,(2,2),(0.00000000000000000E0,1.00000000000000000E0),.UNSPECIFIED.);
#131=DEFINITIONAL_REPRESENTATION('',(#130),#107);
#132=PCURVE('',#34,#131);
#133=CARTESIAN_POINT('',(1.00000000000000000E0,0.00000000000000000E0));
#134=CARTESIAN_POINT('',(1.00000000000000000E0,1.00000000000000000E0));
#135=B_SPLINE_CURVE_WITH_KNOTS('',1,(#133,#134),.UNSPECIFIED.,.F.,.F.,(2,2),(0.00000000000000000E0,1.00000000000000000E0),.UNSPECIFIED.);
#136=DEFINITIONAL_REPRESENTATION('',(#135),#107);
#137=PCURVE('',#34,#136);
#138=CARTESIAN_POINT('',(1.00000000000000000E0,1.00000000000000000E0));
#139=CARTESIAN_POINT('',(0.00000000000000000E0,1.00000000000000000E0));
#140=B_SPLINE_CURVE_WITH_KNOTS('',1,(#138,#139),.UNSPECIFIED.,.F.,.F.,(2,2),(0.00000000000000000E0,1.00000000000000000E0),.UNSPECIFIED.);
#141=DEFINITIONAL_REPRESENTATION('',(#140),#107);
#142=PCURVE('',#34,#141);
#143=CARTESIAN_POINT('',(0.00000000000000000E0,1.00000000000000000E0));
#144=CARTESIAN_POINT('',(0.00000000000000000E0,0.00000000000000000E0));
#145=B_SPLINE_CURVE_WITH_KNOTS('',1,(#143,#144),.UNSPECIFIED.,.F.,.F.,(2,2),(0.00000000000000000E0,1.00000000000000000E0),.UNSPECIFIED.);
#146=DEFINITIONAL_REPRESENTATION('',(#145),#107);
#147=PCURVE('',#34,#146);
#148=CARTESIAN_POINT('',(0.00000000000000000E0,0.00000000000000000E0));
#149=CARTESIAN_POINT('',(1.00000000000000000E0,0.00000000000000000E0));
#150=B_SPLINE_CURVE_WITH_KNOTS('',1,(#148,#149),.UNSPECIFIED.,.F.,.F.,(2,2),(0.00000000000000000E0,1.00000000000000000E0),.UNSPECIFIED.);
#151=DEFINITIONAL_REPRESENTATION('',(#150),#107);
#152=PCURVE('',#43,#151);
#153=CARTESIAN_POINT('',(1.00000000000000000E0,0.00000000000000000E0));
#154=CARTESIAN_POINT('',(1.00000000000000000E0,1.00000000000000000E0));
#155=B_SPLINE_CURVE_WITH_KNOTS('',1,(#153,#154),.UNSPECIFIED.,.F.,.F.,(2,2),(0.00000000000000000E0,1.00000000000000000E0),.UNSPECIFIED.);
#156=DEFINITIONAL_REPRESENTATION('',(#155),#107);
#157=PCURVE('',#43,#156);
#158=CARTESIAN_POINT('',(1.00000000000000000E0,1.00000000000000000E0));
#159=CARTESIAN_POINT('',(0.00000000000000000E0,1.00000000000000000E0));
#160=B_SPLINE_CURVE_WITH_KNOTS('',1,(#158,#159),.UNSPECIFIED.,.F.,.F.,(2,2),(0.00000000000000000E0,1.00000000000000000E0),.UNSPECIFIED.);
#161=DEFINITIONAL_REPRESENTATION('',(#160),#107);
#162=PCURVE('',#43,#161);
#163=CARTESIAN_POINT('',(0.00000000000000000E0,1.00000000000000000E0));
#164=CARTESIAN_POINT('',(0.00000000000000000E0,0.00000000000000000E0));
#165=B_SPLINE_CURVE_WITH_KNOTS('',1,(#163,#164),.UNSPECIFIED.,.F.,.F.,(2,2),(0.00000000000000000E0,1.00000000000000000E0),.UNSPECIFIED.);
#166=DEFINITIONAL_REPRESENTATION('',(#165),#107);
#167=PCURVE('',#43,#166);
#168=CARTESIAN_POINT('',(0.00000000000000000E0,0.00000000000000000E0));
#169=CARTESIAN_POINT('',(1.00000000000000000E0,0.00000000000000000E0));
#170=B_SPLINE_CURVE_WITH_KNOTS('',1,(#168,#169),.UNSPECIFIED.,.F.,.F.,(2,2),(0.00000000000000000E0,1.00000000000000000E0),.UNSPECIFIED.);
#171=DEFINITIONAL_REPRESENTATION('',(#170),#107);
#172=PCURVE('',#52,#171);
#173=CARTESIAN_POINT('',(1.00000000000000000E0,0.00000000000000000E0));
#174=CARTESIAN_POINT('',(1.00000000000000000E0,1.00000000000000000E0));
#175=B_SPLINE_CURVE_WITH_KNOTS('',1,(#173,#174),.UNSPECIFIED.,.F.,.F.,(2,2),(0.00000000000000000E0,1.00000000000000000E0),.UNSPECIFIED.);
#176=DEFINITIONAL_REPRESENTATION('',(#175),#107);
#177=PCURVE('',#52,#176);
#178=CARTESIAN_POINT('',(1.00000000000000000E0,1.00000000000000000E0));
#179=CARTESIAN_POINT('',(0.00000000000000000E0,1.00000000000000000E0));
#180=B_SPLINE_CURVE_WITH_KNOTS('',1,(#178,#179),.UNSPECIFIED.,.F.,.F.,(2,2),(0.00000000000000000E0,1.00000000000000000E0),.UNSPECIFIED.);
#181=DEFINITIONAL_REPRESENTATION('',(#180),#107);
#182=PCURVE('',#52,#181);
#183=CARTESIAN_POINT('',(0.00000000000000000E0,1.00000000000000000E0));
#184=CARTESIAN_POINT('',(0.00000000000000000E0,0.00000000000000000E0));
#185=B_SPLINE_CURVE_WITH_KNOTS('',1,(#183,#184),.UNSPECIFIED.,.F.,.F.,(2,2),(0.00000000000000000E0,1.00000000000000000E0),.UNSPECIFIED.);
#186=DEFINITIONAL_REPRESENTATION('',(#185),#107);
#187=PCURVE('',#52,#186);
#188=CARTESIAN_POINT('',(1.00000000000000000E0,-1.00000000000000000E0));
#189=CARTESIAN_POINT('',(1.00000000000000000E0,1.00000000000000000E0));
#190=B_SPLINE_CURVE_WITH_KNOTS('',1,(#188,#189),.UNSPECIFIED.,.F.,.F.,(2,2),(0.00000000000000000E0,1.00000000000000000E0),.UNSPECIFIED.);
#191=DEFINITIONAL_REPRESENTATION('',(#190),#107);
#192=PCURVE('',#57,#191);
#193=CARTESIAN_POINT('',(1.00000000000000000E0,1.00000000000000000E0));
#194=CARTESIAN_POINT('',(-1.00000000000000000E0,1.00000000000000000E0));
#195=B_SPLINE_CURVE_WITH_KNOTS('',1,(#193,#194),.UNSPECIFIED.,.F.,.F.,(2,2),(0.00000000000000000E0,1.00000000000000000E0),.UNSPECIFIED.);
#196=DEFINITIONAL_REPRESENTATION('',(#195),#107);
#197=PCURVE('',#57,#196);
#198=CARTESIAN_POINT('',(-1.00000000000000000E0,1.00000000000000000E0));
#199=CARTESIAN_POINT('',(-1.00000000000000000E0,-1.00000000000000000E0));
#200=B_SPLINE_CURVE_WITH_KNOTS('',1,(#198,#199),.UNSPECIFIED.,.F.,.F.,(2,2),(0.00000000000000000E0,1.00000000000000000E0),.UNSPECIFIED.);
#201=DEFINITIONAL_REPRESENTATION('',(#200),#107);
#202=PCURVE('',#57,#201);
#203=CARTESIAN_POINT('',(-1.00000000000000000E0,-1.00000000000000000E0));
#204=CARTESIAN_POINT('',(1.00000000000000000E0,-1.00000000000000000E0));
#205=B_SPLINE_CURVE_WITH_KNOTS('',1,(#203,#204),.UNSPECIFIED.,.F.,.F.,(2,2),(0.00000000000000000E0,1.00000000000000000E0),.UNSPECIFIED.);
#206=DEFINITIONAL_REPRESENTATION('',(#205),#107);
#207=PCURVE('',#57,#206);
#208=CARTESIAN_POINT('',(-1.00000000000000000E0,-1.00000000000000000E0));
#209=CARTESIAN_POINT('',(1.00000000000000000E0,-1.00000000000000000E0));
#210=B_SPLINE_CURVE_WITH_KNOTS('',1,(#208,#209),.UNSPECIFIED.,.F.,.F.,(2,2),(0.00000000000000000E0,1.00000000000000000E0),.UNSPECIFIED.);
#211=DEFINITIONAL_REPRESENTATION('',(#210),#107);
#212=PCURVE('',#62,#211);
#213=CARTESIAN_POINT('',(1.00000000000000000E0,-1.00000000000000000E0));
#214=CARTESIAN_POINT('',(1.00000000000000000E0,1.00000000000000000E0));
#215=B_SPLINE_CURVE_WITH_KNOTS('',1,(#213,#214),.UNSPECIFIED.,.F.,.F.,(2,2),(0.00000000000000000E0,1.00000000000000000E0),.UNSPECIFIED.);
#216=DEFINITIONAL_REPRESENTATION('',(#215),#107);
#217=PCURVE('',#62,#216);
#218=CARTESIAN_POINT('',(1.00000000000000000E0,1.00000000000000000E0));
#219=CARTESIAN_POINT('',(-1.00000000000000000E0,1.00000000000000000E0));
#220=B_SPLINE_CURVE_WITH_KNOTS('',1,(#218,#219),.UNSPECIFIED.,.F.,.F.,(2,2),(0.00000000000000000E0,1.00000000000000000E0),.UNSPECIFIED.);
#221=DEFINITIONAL_REPRESENTATION('',(#220),#107);
#222=PCURVE('',#62,#221);
#223=CARTESIAN_POINT('',(-1.00000000000000000E0,1.00000000000000000E0));
#224=CARTESIAN_POINT('',(-1.00000000000000000E0,-1.00000000000000000E0));
#225=B_SPLINE_CURVE_WITH_KNOTS('',1,(#223,#224),.UNSPECIFIED.,.F.,.F.,(2,2),(0.00000000000000000E0,1.00000000000000000E0),.UNSPECIFIED.);
#226=DEFINITIONAL_REPRESENTATION('',(#225),#107);
#227=PCURVE('',#62,#226);
#228=SURFACE_CURVE('',#65,(#112,#207),.PCURVE_S1.);
#229=EDGE_CURVE('OSCAD_TOPO/3|edge|e:52df2022a7de5f153820db97c0574efc|65966cea9ea7dcfb16066de7a1bb534aceb45135317202a8656aa80c65e1d193',#2,#4,#228,.T.);
#230=SURFACE_CURVE('',#70,(#117,#147),.PCURVE_S1.);
#231=EDGE_CURVE('OSCAD_TOPO/3|edge|e:8a5e1de2c1cda62fe77a5e684cd2f96a|549e4e1424cac1c55e74d92239b85e70d4026203ecebf160806736fa467a80ba',#4,#12,#230,.T.);
#232=SURFACE_CURVE('',#73,(#122,#212),.PCURVE_S1.);
#233=EDGE_CURVE('OSCAD_TOPO/3|edge|e:31ae18bfc684e3b579eaaaa5779985fe|6da783dddf822048f37294f9f297037db59f83491f12a7c14a859a7c99925d98',#10,#12,#232,.T.);
#234=SURFACE_CURVE('',#78,(#127,#177),.PCURVE_S1.);
#235=EDGE_CURVE('OSCAD_TOPO/3|edge|e:8e8ccf195434e8192a0a0e726c8f64f3|92a5282f73dce279840a264a745af1b5b35a89527ff6f9dd85c4851e59b4556d',#2,#10,#234,.T.);
#236=SURFACE_CURVE('',#81,(#132,#202),.PCURVE_S1.);
#237=EDGE_CURVE('OSCAD_TOPO/3|edge|e:f98d7129fce97a432dfec8dc8900f55b|0e2768159a66d2666f242a010fa381c3ad386ede6237372184c010255044506a',#4,#6,#236,.T.);
#238=SURFACE_CURVE('',#86,(#137,#167),.PCURVE_S1.);
#239=EDGE_CURVE('OSCAD_TOPO/3|edge|e:91d70c2f18f3003ae542009663069133|2ec8f4145d1323acd29ddb2ee17e4015a881707e0456f3da90268b7584e2c6b7',#6,#14,#238,.T.);
#240=SURFACE_CURVE('',#89,(#142,#217),.PCURVE_S1.);
#241=EDGE_CURVE('OSCAD_TOPO/3|edge|e:50b7849a95c585778a620c50c5fd554f|0e02c865dfb9e60caa0edaa046c285b6dccd0da71be66211ef2446594cd4967c',#12,#14,#240,.T.);
#242=SURFACE_CURVE('',#92,(#152,#197),.PCURVE_S1.);
#243=EDGE_CURVE('OSCAD_TOPO/3|edge|e:c475e57640409562706dc3ec82640cdd|2a6b719782519c1654302dc79500ea7ca113bb59d306b1cdb993d2ad4a7ce841',#6,#8,#242,.T.);
#244=SURFACE_CURVE('',#97,(#157,#187),.PCURVE_S1.);
#245=EDGE_CURVE('OSCAD_TOPO/3|edge|e:26af01012a21cd7583fbef5ea5e2a8be|57007e732b4758fc6f34f577abfc19e5d619ec4db6d1d3d905addbc73c84e24b',#8,#16,#244,.T.);
#246=SURFACE_CURVE('',#100,(#162,#222),.PCURVE_S1.);
#247=EDGE_CURVE('OSCAD_TOPO/3|edge|e:e9b8e8f7bc0d67e0a405adc5dd0edcd4|4b90577c309011b02c476c807ea25f9cbd6ff66f9fdfffe9a6e9d0e3f8e4a02a',#14,#16,#246,.T.);
#248=SURFACE_CURVE('',#103,(#172,#192),.PCURVE_S1.);
#249=EDGE_CURVE('OSCAD_TOPO/3|edge|e:d3995d4ef82d66149e3094033b8e6ec7|64b72b0d38b89e2f096daef6ab21ac6682eaa987344bb2a0697ea7ee5fa26f56',#2,#8,#248,.T.);
#250=SURFACE_CURVE('',#106,(#182,#227),.PCURVE_S1.);
#251=EDGE_CURVE('OSCAD_TOPO/3|edge|e:7c7c84b18038775c0f435c0ff1c825d8|07b04c110a329c9ad4933efa99008a5a7306702d6bd5542aaa726930922f320d',#10,#16,#250,.T.);
#252=ORIENTED_EDGE('',*,*,#229,.T.);
#253=ORIENTED_EDGE('',*,*,#231,.T.);
#254=ORIENTED_EDGE('',*,*,#233,.F.);
#255=ORIENTED_EDGE('',*,*,#235,.F.);
#256=EDGE_LOOP('OSCAD_TOPO/3|loop|l:0ece4f5b304b2a97d836508eb5c1b8c9|6e26921f57f3654e6bbaa979cbd13eb5960ee3aded19b377c6dd305c3d813f61',(#252,#253,#254,#255));
#257=ORIENTED_EDGE('',*,*,#237,.T.);
#258=ORIENTED_EDGE('',*,*,#239,.T.);
#259=ORIENTED_EDGE('',*,*,#241,.F.);
#260=ORIENTED_EDGE('',*,*,#231,.F.);
#261=EDGE_LOOP('OSCAD_TOPO/3|loop|l:02eb188e4a0d55313bedce144bbe1918|69d84f35f77b18e384e92b9fac54ba2873f26a77f4e28292f94d8f9a7a074f94',(#257,#258,#259,#260));
#262=ORIENTED_EDGE('',*,*,#243,.T.);
#263=ORIENTED_EDGE('',*,*,#245,.T.);
#264=ORIENTED_EDGE('',*,*,#247,.F.);
#265=ORIENTED_EDGE('',*,*,#239,.F.);
#266=EDGE_LOOP('OSCAD_TOPO/3|loop|l:4e2bb46afff6bf0d9f21b1951546ad53|7d4230fed61de647e8de7d7bc86059d78491e4fece92241966e6daca8c4d7ad5',(#262,#263,#264,#265));
#267=ORIENTED_EDGE('',*,*,#249,.F.);
#268=ORIENTED_EDGE('',*,*,#235,.T.);
#269=ORIENTED_EDGE('',*,*,#251,.T.);
#270=ORIENTED_EDGE('',*,*,#245,.F.);
#271=EDGE_LOOP('OSCAD_TOPO/3|loop|l:762ae71bcc949dde249195f39e0c2f13|5e0c61d7e0ad66056d568de6676ae59e1e06db38fb085cdad63dcc16f60f7a77',(#267,#268,#269,#270));
#272=ORIENTED_EDGE('',*,*,#249,.T.);
#273=ORIENTED_EDGE('',*,*,#243,.F.);
#274=ORIENTED_EDGE('',*,*,#237,.F.);
#275=ORIENTED_EDGE('',*,*,#229,.F.);
#276=EDGE_LOOP('OSCAD_TOPO/3|loop|l:96783a6b113ad36d932a680fb4c683f7|9870ce8f09e57da303ddac0269288ccf102d87ecf9081022756a1aff486cb084',(#272,#273,#274,#275));
#277=ORIENTED_EDGE('',*,*,#233,.T.);
#278=ORIENTED_EDGE('',*,*,#241,.T.);
#279=ORIENTED_EDGE('',*,*,#247,.T.);
#280=ORIENTED_EDGE('',*,*,#251,.F.);
#281=EDGE_LOOP('OSCAD_TOPO/3|loop|l:097d6f2751926d5534260299d485f740|312c39d75e7808ed7eaa3e79022144c7a7eaa45bd2f64a36b80eb095d56051d0',(#277,#278,#279,#280));
#282=FACE_OUTER_BOUND('',#256,.T.);
#283=ADVANCED_FACE('OSCAD_TOPO/3|face|f:03620c7d480cb75be2593d58462421da|87f8b0e06e43d776a303c2b74146ab0d9a80d1e21f69128226f55af4378f60aa',(#282),#25,.T.);
#284=FACE_OUTER_BOUND('',#261,.T.);
#285=ADVANCED_FACE('OSCAD_TOPO/3|face|f:90fee12f14f66ec42b34353fba71d6aa|f3442920d2e9b0beb81e17e5831d26edebf3edca551835404c294ac34ab6195d',(#284),#34,.T.);
#286=FACE_OUTER_BOUND('',#266,.T.);
#287=ADVANCED_FACE('OSCAD_TOPO/3|face|f:740fcd4e885c4a1ad238dd7b85bab028|a871b57867edf022427c0cbbaf7d64d4c77ec2f8c1d1e140005b315ca9c68cb5',(#286),#43,.T.);
#288=FACE_OUTER_BOUND('',#271,.T.);
#289=ADVANCED_FACE('OSCAD_TOPO/3|face|f:f7bde0618d28e86a6a3d73a6570d7905|f21841ac0c9caa84f0f9297476bfbc61eba6e4e22597614bed2b5be64f69bafc',(#288),#52,.T.);
#290=FACE_OUTER_BOUND('',#276,.T.);
#291=ADVANCED_FACE('OSCAD_TOPO/3|face|f:673b032e9b88a4174a55fbbc1f85e481|a2a5eb4f6c185e39795820c3880e03356c82fa9edcf6b1db7fca76f2d52da2d1',(#290),#57,.T.);
#292=FACE_OUTER_BOUND('',#281,.T.);
#293=ADVANCED_FACE('OSCAD_TOPO/3|face|f:c2269737848560b2c7af27f49b9c072c|3a12b97afdbe061d4c48a688abbbe601778122dfd160c87e2d66a11db3651002',(#292),#62,.T.);
#294=CLOSED_SHELL('OSCAD_TOPO/3|shell|s:cf9014f9b85da82e7c6d0c7a611f444a|a758de41534e50f82d75af28254e1182748d8e293ad2885a1b88833fc2ac2bd7',(#283,#285,#287,#289,#291,#293));
#295=MANIFOLD_SOLID_BREP('OSCAD_TOPO/3|body|b:d99027ad8b9e978ecff363667e90fba7|3a31fe667f4a4e398d202666f3e6259b1386daa8151ae9bfb57f9ff7a65840aa',#294);
#296=(LENGTH_UNIT()NAMED_UNIT(*)SI_UNIT(.MILLI.,.METRE.));
#297=UNCERTAINTY_MEASURE_WITH_UNIT(LENGTH_MEASURE(9.99999999999999955E-8),#296,'distance_accuracy_value','');
#298=(GEOMETRIC_REPRESENTATION_CONTEXT(3)GLOBAL_UNCERTAINTY_ASSIGNED_CONTEXT((#297))GLOBAL_UNIT_ASSIGNED_CONTEXT((#296))REPRESENTATION_CONTEXT('','3D'));
#299=ADVANCED_BREP_SHAPE_REPRESENTATION('',(#295),#298);
#300=APPLICATION_CONTEXT('managed model based 3d engineering');
#301=PRODUCT_CONTEXT('',#300,'mechanical');
#302=PRODUCT('model','model','',(#301));
#303=PRODUCT_DEFINITION_FORMATION('1','',#302);
#304=PRODUCT_DEFINITION_CONTEXT('part definition',#300,'design');
#305=PRODUCT_DEFINITION('design','',#303,#304);
#306=PRODUCT_DEFINITION_SHAPE('','',#305);
#307=SHAPE_DEFINITION_REPRESENTATION(#306,#299);
ENDSEC;
END-ISO-10303-21;
