ISO-10303-21;
HEADER;
FILE_DESCRIPTION(('OpenSCAD Viewer retained AP242 B-rep'),'2;1');
FILE_NAME('model.step','',(''),(''),'OpenSCAD Viewer','OpenSCAD Viewer','');
FILE_SCHEMA(('AP242_MANAGED_MODEL_BASED_3D_ENGINEERING_MIM_LF'));
ENDSEC;
DATA;
#1=CARTESIAN_POINT('',(0.00000000000000000E0,5.00000000000000222E-1,0.00000000000000000E0));
#2=VERTEX_POINT('OSCAD_TOPO/3|vertex|v:c50aa8f4c92e5e414e5e1cf9ff83a1dd|b3c4f68c371b102e556774ca5c12f6a69d37c5db53c5ca9d166b9ae0b8bbcd61',#1);
#3=CARTESIAN_POINT('',(5.00000000000000111E-1,0.00000000000000000E0,0.00000000000000000E0));
#4=VERTEX_POINT('OSCAD_TOPO/3|vertex|v:92dd4b9b1af60ca39d77729d4509abe4|0a747a0756162640cf3f75d16ed5a3835ba1ea1480d4a28f1e766ad64c3e125f',#3);
#5=CARTESIAN_POINT('',(5.00000000000000111E-1,0.00000000000000000E0,5.00000000000000000E0));
#6=VERTEX_POINT('OSCAD_TOPO/3|vertex|v:9ccb8e44f6f3b0814ae270ed985bc9d7|55f64cd93e2f6bc2b20e6f2cd4570dd7e8309416a9e1b2c1f8712fe209a5eb6c',#5);
#7=CARTESIAN_POINT('',(0.00000000000000000E0,5.00000000000000222E-1,5.00000000000000000E0));
#8=VERTEX_POINT('OSCAD_TOPO/3|vertex|v:894bf78ddc6d597ac691f42fe23b1a1f|b3e34cfa7b89764eec5d74c748e1ddf1a87068d8e3fa8306df4349057c8ff24f',#7);
#9=CARTESIAN_POINT('',(1.00000000000000000E1,0.00000000000000000E0,0.00000000000000000E0));
#10=VERTEX_POINT('OSCAD_TOPO/3|vertex|v:de3e486565e3a7617eea6e36ede06c2b|3353643bad860c733430b2273204e26943203410030abd80943e3de65777f15e',#9);
#11=CARTESIAN_POINT('',(1.00000000000000000E1,0.00000000000000000E0,5.00000000000000000E0));
#12=VERTEX_POINT('OSCAD_TOPO/3|vertex|v:7b4e38492ab3979a228ebade3e25c12d|f196c19bd84c4c30fb1663e94e6da57354bd798c7abfcc43becdd8c277b4b3e9',#11);
#13=CARTESIAN_POINT('',(1.00000000000000000E1,2.00000000000000000E0,0.00000000000000000E0));
#14=VERTEX_POINT('OSCAD_TOPO/3|vertex|v:c50b2a53f0912608992fcc545b2f0307|fadf3952876d0c2bd19cba47e128939b3e8850b537479b8a84f449506b6840f8',#13);
#15=CARTESIAN_POINT('',(1.00000000000000000E1,2.00000000000000000E0,5.00000000000000000E0));
#16=VERTEX_POINT('OSCAD_TOPO/3|vertex|v:227f6f738faf07a3c85e6015091dd775|c0a6f16dc8cfd22e23c126aee8ffd4c0d76de6cd8f895109cf653b202d9d19e6',#15);
#17=CARTESIAN_POINT('',(2.00000000000000000E0,2.00000000000000000E0,0.00000000000000000E0));
#18=VERTEX_POINT('OSCAD_TOPO/3|vertex|v:87720f8b4387fc79bcf0107a078936de|a237d89cc8dfcfcf60109572be19d22463269b22cba151a13bc65d0f41397665',#17);
#19=CARTESIAN_POINT('',(2.00000000000000000E0,2.00000000000000000E0,5.00000000000000000E0));
#20=VERTEX_POINT('OSCAD_TOPO/3|vertex|v:884ae5bb3514786a6d15fe83bc5e4ef0|03ee86c35b60c926dd084c48e0c63b941db446edb3e7b0e0cd4e1fa4cd986025',#19);
#21=CARTESIAN_POINT('',(2.00000000000000000E0,8.00000000000000000E0,0.00000000000000000E0));
#22=VERTEX_POINT('OSCAD_TOPO/3|vertex|v:bb6fa50b3632a436fb742ac12e3358b1|13b7e4b7efd7ce354d38b8d489e358a331be0a708efaa7a428c0b646bc494655',#21);
#23=CARTESIAN_POINT('',(2.00000000000000000E0,8.00000000000000000E0,5.00000000000000000E0));
#24=VERTEX_POINT('OSCAD_TOPO/3|vertex|v:f749f7a8790b446908917ecc3c45ef20|adb156e7e2c2c01cebc2ea79708d75743d014aac38ddcbf09d580c4ec42b09d4',#23);
#25=CARTESIAN_POINT('',(1.00000000000000000E1,8.00000000000000000E0,0.00000000000000000E0));
#26=VERTEX_POINT('OSCAD_TOPO/3|vertex|v:5ed3d0155a17989510cc39733ff22bf0|644dc0b5b09b993762109b0c4bcd7c69d5ba826d52e1b31415b41bdf655282e4',#25);
#27=CARTESIAN_POINT('',(1.00000000000000000E1,8.00000000000000000E0,5.00000000000000000E0));
#28=VERTEX_POINT('OSCAD_TOPO/3|vertex|v:d5801c2100bc5f87d7b84e4926b1825c|df73beee32aaf2239c680ec1e387718829fd3aa9f65f8c9c90ee12dc72592ad2',#27);
#29=CARTESIAN_POINT('',(1.00000000000000000E1,1.00000000000000000E1,0.00000000000000000E0));
#30=VERTEX_POINT('OSCAD_TOPO/3|vertex|v:a7c318a24a2ed8be495f614388a236f6|a2612161dbe383cf9f5325a525358a21349ae239b27c9d695b65c30e0e7830dc',#29);
#31=CARTESIAN_POINT('',(1.00000000000000000E1,1.00000000000000000E1,5.00000000000000000E0));
#32=VERTEX_POINT('OSCAD_TOPO/3|vertex|v:ad0d0c15396adc7f7861dea765b1668b|02e68598f8d2d7da350459e3563addc85d287e33c71ce2dda2c7783be63a67d3',#31);
#33=CARTESIAN_POINT('',(0.00000000000000000E0,1.00000000000000000E1,0.00000000000000000E0));
#34=VERTEX_POINT('OSCAD_TOPO/3|vertex|v:20390dbab053390b17f1cd806dfaa2db|01ca02167a710a35a72e0cc32f356edccab0d226bfb29f014dd9ca88560e82d4',#33);
#35=CARTESIAN_POINT('',(0.00000000000000000E0,1.00000000000000000E1,5.00000000000000000E0));
#36=VERTEX_POINT('OSCAD_TOPO/3|vertex|v:310f471b6893478ebc7fa834b5c4cc0a|3e51483646db597c4da0f971022d95ac2f3394636b87fb276713eb6aeba6bdb3',#35);
#37=CARTESIAN_POINT('',(0.00000000000000000E0,5.00000000000000222E-1,0.00000000000000000E0));
#38=CARTESIAN_POINT('',(0.00000000000000000E0,5.00000000000000222E-1,5.00000000000000000E0));
#39=CARTESIAN_POINT('',(-1.11022302462515654E-16,2.22044604925031308E-16,0.00000000000000000E0));
#40=CARTESIAN_POINT('',(-1.11022302462515654E-16,2.22044604925031308E-16,5.00000000000000000E0));
#41=CARTESIAN_POINT('',(4.99999999999999778E-1,0.00000000000000000E0,0.00000000000000000E0));
#42=CARTESIAN_POINT('',(4.99999999999999778E-1,0.00000000000000000E0,5.00000000000000000E0));
#43=(BOUNDED_SURFACE()B_SPLINE_SURFACE(2,1,((#37,#38),(#39,#40),(#41,#42)),.UNSPECIFIED.,.F.,.F.,.F.)B_SPLINE_SURFACE_WITH_KNOTS((3,3),(2,2),(0.00000000000000000E0,1.00000000000000000E0),(0.00000000000000000E0,1.00000000000000000E0),.UNSPECIFIED.)GEOMETRIC_REPRESENTATION_ITEM()RATIONAL_B_SPLINE_SURFACE(((1.00000000000000000E0,1.00000000000000000E0),(7.07106781186547573E-1,7.07106781186547573E-1),(1.00000000000000000E0,1.00000000000000000E0)))REPRESENTATION_ITEM('')SURFACE());
#44=CARTESIAN_POINT('',(5.00000000000000111E-1,0.00000000000000000E0,0.00000000000000000E0));
#45=CARTESIAN_POINT('',(5.00000000000000111E-1,0.00000000000000000E0,5.00000000000000000E0));
#46=CARTESIAN_POINT('',(1.00000000000000000E1,0.00000000000000000E0,0.00000000000000000E0));
#47=CARTESIAN_POINT('',(1.00000000000000000E1,0.00000000000000000E0,5.00000000000000000E0));
#48=B_SPLINE_SURFACE_WITH_KNOTS('',1,1,((#44,#45),(#46,#47)),.UNSPECIFIED.,.F.,.F.,.F.,(2,2),(2,2),(0.00000000000000000E0,1.00000000000000000E0),(0.00000000000000000E0,1.00000000000000000E0),.UNSPECIFIED.);
#49=CARTESIAN_POINT('',(1.00000000000000000E1,0.00000000000000000E0,0.00000000000000000E0));
#50=CARTESIAN_POINT('',(1.00000000000000000E1,0.00000000000000000E0,5.00000000000000000E0));
#51=CARTESIAN_POINT('',(1.00000000000000000E1,2.00000000000000000E0,0.00000000000000000E0));
#52=CARTESIAN_POINT('',(1.00000000000000000E1,2.00000000000000000E0,5.00000000000000000E0));
#53=B_SPLINE_SURFACE_WITH_KNOTS('',1,1,((#49,#50),(#51,#52)),.UNSPECIFIED.,.F.,.F.,.F.,(2,2),(2,2),(0.00000000000000000E0,1.00000000000000000E0),(0.00000000000000000E0,1.00000000000000000E0),.UNSPECIFIED.);
#54=CARTESIAN_POINT('',(1.00000000000000000E1,2.00000000000000000E0,0.00000000000000000E0));
#55=CARTESIAN_POINT('',(1.00000000000000000E1,2.00000000000000000E0,5.00000000000000000E0));
#56=CARTESIAN_POINT('',(2.00000000000000000E0,2.00000000000000000E0,0.00000000000000000E0));
#57=CARTESIAN_POINT('',(2.00000000000000000E0,2.00000000000000000E0,5.00000000000000000E0));
#58=B_SPLINE_SURFACE_WITH_KNOTS('',1,1,((#54,#55),(#56,#57)),.UNSPECIFIED.,.F.,.F.,.F.,(2,2),(2,2),(0.00000000000000000E0,1.00000000000000000E0),(0.00000000000000000E0,1.00000000000000000E0),.UNSPECIFIED.);
#59=CARTESIAN_POINT('',(2.00000000000000000E0,2.00000000000000000E0,0.00000000000000000E0));
#60=CARTESIAN_POINT('',(2.00000000000000000E0,2.00000000000000000E0,5.00000000000000000E0));
#61=CARTESIAN_POINT('',(2.00000000000000000E0,8.00000000000000000E0,0.00000000000000000E0));
#62=CARTESIAN_POINT('',(2.00000000000000000E0,8.00000000000000000E0,5.00000000000000000E0));
#63=B_SPLINE_SURFACE_WITH_KNOTS('',1,1,((#59,#60),(#61,#62)),.UNSPECIFIED.,.F.,.F.,.F.,(2,2),(2,2),(0.00000000000000000E0,1.00000000000000000E0),(0.00000000000000000E0,1.00000000000000000E0),.UNSPECIFIED.);
#64=CARTESIAN_POINT('',(2.00000000000000000E0,8.00000000000000000E0,0.00000000000000000E0));
#65=CARTESIAN_POINT('',(2.00000000000000000E0,8.00000000000000000E0,5.00000000000000000E0));
#66=CARTESIAN_POINT('',(1.00000000000000000E1,8.00000000000000000E0,0.00000000000000000E0));
#67=CARTESIAN_POINT('',(1.00000000000000000E1,8.00000000000000000E0,5.00000000000000000E0));
#68=B_SPLINE_SURFACE_WITH_KNOTS('',1,1,((#64,#65),(#66,#67)),.UNSPECIFIED.,.F.,.F.,.F.,(2,2),(2,2),(0.00000000000000000E0,1.00000000000000000E0),(0.00000000000000000E0,1.00000000000000000E0),.UNSPECIFIED.);
#69=CARTESIAN_POINT('',(1.00000000000000000E1,8.00000000000000000E0,0.00000000000000000E0));
#70=CARTESIAN_POINT('',(1.00000000000000000E1,8.00000000000000000E0,5.00000000000000000E0));
#71=CARTESIAN_POINT('',(1.00000000000000000E1,1.00000000000000000E1,0.00000000000000000E0));
#72=CARTESIAN_POINT('',(1.00000000000000000E1,1.00000000000000000E1,5.00000000000000000E0));
#73=B_SPLINE_SURFACE_WITH_KNOTS('',1,1,((#69,#70),(#71,#72)),.UNSPECIFIED.,.F.,.F.,.F.,(2,2),(2,2),(0.00000000000000000E0,1.00000000000000000E0),(0.00000000000000000E0,1.00000000000000000E0),.UNSPECIFIED.);
#74=CARTESIAN_POINT('',(1.00000000000000000E1,1.00000000000000000E1,0.00000000000000000E0));
#75=CARTESIAN_POINT('',(1.00000000000000000E1,1.00000000000000000E1,5.00000000000000000E0));
#76=CARTESIAN_POINT('',(0.00000000000000000E0,1.00000000000000000E1,0.00000000000000000E0));
#77=CARTESIAN_POINT('',(0.00000000000000000E0,1.00000000000000000E1,5.00000000000000000E0));
#78=B_SPLINE_SURFACE_WITH_KNOTS('',1,1,((#74,#75),(#76,#77)),.UNSPECIFIED.,.F.,.F.,.F.,(2,2),(2,2),(0.00000000000000000E0,1.00000000000000000E0),(0.00000000000000000E0,1.00000000000000000E0),.UNSPECIFIED.);
#79=CARTESIAN_POINT('',(0.00000000000000000E0,1.00000000000000000E1,0.00000000000000000E0));
#80=CARTESIAN_POINT('',(0.00000000000000000E0,1.00000000000000000E1,5.00000000000000000E0));
#81=CARTESIAN_POINT('',(0.00000000000000000E0,5.00000000000000111E-1,0.00000000000000000E0));
#82=CARTESIAN_POINT('',(0.00000000000000000E0,5.00000000000000111E-1,5.00000000000000000E0));
#83=B_SPLINE_SURFACE_WITH_KNOTS('',1,1,((#79,#80),(#81,#82)),.UNSPECIFIED.,.F.,.F.,.F.,(2,2),(2,2),(0.00000000000000000E0,1.00000000000000000E0),(0.00000000000000000E0,1.00000000000000000E0),.UNSPECIFIED.);
#84=CARTESIAN_POINT('',(-1.11022302462515654E-16,0.00000000000000000E0,0.00000000000000000E0));
#85=CARTESIAN_POINT('',(1.00000000000000000E1,0.00000000000000000E0,0.00000000000000000E0));
#86=CARTESIAN_POINT('',(-1.11022302462515654E-16,1.00000000000000000E1,0.00000000000000000E0));
#87=CARTESIAN_POINT('',(1.00000000000000000E1,1.00000000000000000E1,0.00000000000000000E0));
#88=B_SPLINE_SURFACE_WITH_KNOTS('',1,1,((#84,#85),(#86,#87)),.UNSPECIFIED.,.F.,.F.,.F.,(2,2),(2,2),(0.00000000000000000E0,1.00000000000000000E0),(0.00000000000000000E0,1.00000000000000000E0),.UNSPECIFIED.);
#89=CARTESIAN_POINT('',(-1.11022302462515654E-16,1.00000000000000000E1,5.00000000000000000E0));
#90=CARTESIAN_POINT('',(1.00000000000000000E1,1.00000000000000000E1,5.00000000000000000E0));
#91=CARTESIAN_POINT('',(-1.11022302462515654E-16,0.00000000000000000E0,5.00000000000000000E0));
#92=CARTESIAN_POINT('',(1.00000000000000000E1,0.00000000000000000E0,5.00000000000000000E0));
#93=B_SPLINE_SURFACE_WITH_KNOTS('',1,1,((#89,#90),(#91,#92)),.UNSPECIFIED.,.F.,.F.,.F.,(2,2),(2,2),(0.00000000000000000E0,1.00000000000000000E0),(0.00000000000000000E0,1.00000000000000000E0),.UNSPECIFIED.);
#94=CARTESIAN_POINT('',(0.00000000000000000E0,5.00000000000000222E-1,0.00000000000000000E0));
#95=CARTESIAN_POINT('',(-1.11022302462515654E-16,2.22044604925031308E-16,0.00000000000000000E0));
#96=CARTESIAN_POINT('',(4.99999999999999778E-1,0.00000000000000000E0,0.00000000000000000E0));
#97=(BOUNDED_CURVE()B_SPLINE_CURVE(2,(#94,#95,#96),.UNSPECIFIED.,.F.,.F.)B_SPLINE_CURVE_WITH_KNOTS((3,3),(0.00000000000000000E0,1.00000000000000000E0),.UNSPECIFIED.)CURVE()GEOMETRIC_REPRESENTATION_ITEM()RATIONAL_B_SPLINE_CURVE((1.00000000000000000E0,7.07106781186547573E-1,1.00000000000000000E0))REPRESENTATION_ITEM(''));
#98=CARTESIAN_POINT('',(5.00000000000000111E-1,0.00000000000000000E0,0.00000000000000000E0));
#99=CARTESIAN_POINT('',(5.00000000000000111E-1,0.00000000000000000E0,5.00000000000000000E0));
#100=B_SPLINE_CURVE_WITH_KNOTS('',1,(#98,#99),.UNSPECIFIED.,.F.,.F.,(2,2),(0.00000000000000000E0,1.00000000000000000E0),.UNSPECIFIED.);
#101=CARTESIAN_POINT('',(0.00000000000000000E0,5.00000000000000222E-1,5.00000000000000000E0));
#102=CARTESIAN_POINT('',(-1.11022302462515654E-16,2.22044604925031308E-16,5.00000000000000000E0));
#103=CARTESIAN_POINT('',(4.99999999999999778E-1,0.00000000000000000E0,5.00000000000000000E0));
#104=(BOUNDED_CURVE()B_SPLINE_CURVE(2,(#101,#102,#103),.UNSPECIFIED.,.F.,.F.)B_SPLINE_CURVE_WITH_KNOTS((3,3),(0.00000000000000000E0,1.00000000000000000E0),.UNSPECIFIED.)CURVE()GEOMETRIC_REPRESENTATION_ITEM()RATIONAL_B_SPLINE_CURVE((1.00000000000000000E0,7.07106781186547573E-1,1.00000000000000000E0))REPRESENTATION_ITEM(''));
#105=CARTESIAN_POINT('',(0.00000000000000000E0,5.00000000000000222E-1,0.00000000000000000E0));
#106=CARTESIAN_POINT('',(0.00000000000000000E0,5.00000000000000222E-1,5.00000000000000000E0));
#107=B_SPLINE_CURVE_WITH_KNOTS('',1,(#105,#106),.UNSPECIFIED.,.F.,.F.,(2,2),(0.00000000000000000E0,1.00000000000000000E0),.UNSPECIFIED.);
#108=CARTESIAN_POINT('',(5.00000000000000111E-1,0.00000000000000000E0,0.00000000000000000E0));
#109=CARTESIAN_POINT('',(1.00000000000000000E1,0.00000000000000000E0,0.00000000000000000E0));
#110=B_SPLINE_CURVE_WITH_KNOTS('',1,(#108,#109),.UNSPECIFIED.,.F.,.F.,(2,2),(0.00000000000000000E0,1.00000000000000000E0),.UNSPECIFIED.);
#111=CARTESIAN_POINT('',(1.00000000000000000E1,0.00000000000000000E0,0.00000000000000000E0));
#112=CARTESIAN_POINT('',(1.00000000000000000E1,0.00000000000000000E0,5.00000000000000000E0));
#113=B_SPLINE_CURVE_WITH_KNOTS('',1,(#111,#112),.UNSPECIFIED.,.F.,.F.,(2,2),(0.00000000000000000E0,1.00000000000000000E0),.UNSPECIFIED.);
#114=CARTESIAN_POINT('',(5.00000000000000111E-1,0.00000000000000000E0,5.00000000000000000E0));
#115=CARTESIAN_POINT('',(1.00000000000000000E1,0.00000000000000000E0,5.00000000000000000E0));
#116=B_SPLINE_CURVE_WITH_KNOTS('',1,(#114,#115),.UNSPECIFIED.,.F.,.F.,(2,2),(0.00000000000000000E0,1.00000000000000000E0),.UNSPECIFIED.);
#117=CARTESIAN_POINT('',(1.00000000000000000E1,0.00000000000000000E0,0.00000000000000000E0));
#118=CARTESIAN_POINT('',(1.00000000000000000E1,2.00000000000000000E0,0.00000000000000000E0));
#119=B_SPLINE_CURVE_WITH_KNOTS('',1,(#117,#118),.UNSPECIFIED.,.F.,.F.,(2,2),(0.00000000000000000E0,1.00000000000000000E0),.UNSPECIFIED.);
#120=CARTESIAN_POINT('',(1.00000000000000000E1,2.00000000000000000E0,0.00000000000000000E0));
#121=CARTESIAN_POINT('',(1.00000000000000000E1,2.00000000000000000E0,5.00000000000000000E0));
#122=B_SPLINE_CURVE_WITH_KNOTS('',1,(#120,#121),.UNSPECIFIED.,.F.,.F.,(2,2),(0.00000000000000000E0,1.00000000000000000E0),.UNSPECIFIED.);
#123=CARTESIAN_POINT('',(1.00000000000000000E1,0.00000000000000000E0,5.00000000000000000E0));
#124=CARTESIAN_POINT('',(1.00000000000000000E1,2.00000000000000000E0,5.00000000000000000E0));
#125=B_SPLINE_CURVE_WITH_KNOTS('',1,(#123,#124),.UNSPECIFIED.,.F.,.F.,(2,2),(0.00000000000000000E0,1.00000000000000000E0),.UNSPECIFIED.);
#126=CARTESIAN_POINT('',(1.00000000000000000E1,2.00000000000000000E0,0.00000000000000000E0));
#127=CARTESIAN_POINT('',(2.00000000000000000E0,2.00000000000000000E0,0.00000000000000000E0));
#128=B_SPLINE_CURVE_WITH_KNOTS('',1,(#126,#127),.UNSPECIFIED.,.F.,.F.,(2,2),(0.00000000000000000E0,1.00000000000000000E0),.UNSPECIFIED.);
#129=CARTESIAN_POINT('',(2.00000000000000000E0,2.00000000000000000E0,0.00000000000000000E0));
#130=CARTESIAN_POINT('',(2.00000000000000000E0,2.00000000000000000E0,5.00000000000000000E0));
#131=B_SPLINE_CURVE_WITH_KNOTS('',1,(#129,#130),.UNSPECIFIED.,.F.,.F.,(2,2),(0.00000000000000000E0,1.00000000000000000E0),.UNSPECIFIED.);
#132=CARTESIAN_POINT('',(1.00000000000000000E1,2.00000000000000000E0,5.00000000000000000E0));
#133=CARTESIAN_POINT('',(2.00000000000000000E0,2.00000000000000000E0,5.00000000000000000E0));
#134=B_SPLINE_CURVE_WITH_KNOTS('',1,(#132,#133),.UNSPECIFIED.,.F.,.F.,(2,2),(0.00000000000000000E0,1.00000000000000000E0),.UNSPECIFIED.);
#135=CARTESIAN_POINT('',(2.00000000000000000E0,2.00000000000000000E0,0.00000000000000000E0));
#136=CARTESIAN_POINT('',(2.00000000000000000E0,8.00000000000000000E0,0.00000000000000000E0));
#137=B_SPLINE_CURVE_WITH_KNOTS('',1,(#135,#136),.UNSPECIFIED.,.F.,.F.,(2,2),(0.00000000000000000E0,1.00000000000000000E0),.UNSPECIFIED.);
#138=CARTESIAN_POINT('',(2.00000000000000000E0,8.00000000000000000E0,0.00000000000000000E0));
#139=CARTESIAN_POINT('',(2.00000000000000000E0,8.00000000000000000E0,5.00000000000000000E0));
#140=B_SPLINE_CURVE_WITH_KNOTS('',1,(#138,#139),.UNSPECIFIED.,.F.,.F.,(2,2),(0.00000000000000000E0,1.00000000000000000E0),.UNSPECIFIED.);
#141=CARTESIAN_POINT('',(2.00000000000000000E0,2.00000000000000000E0,5.00000000000000000E0));
#142=CARTESIAN_POINT('',(2.00000000000000000E0,8.00000000000000000E0,5.00000000000000000E0));
#143=B_SPLINE_CURVE_WITH_KNOTS('',1,(#141,#142),.UNSPECIFIED.,.F.,.F.,(2,2),(0.00000000000000000E0,1.00000000000000000E0),.UNSPECIFIED.);
#144=CARTESIAN_POINT('',(2.00000000000000000E0,8.00000000000000000E0,0.00000000000000000E0));
#145=CARTESIAN_POINT('',(1.00000000000000000E1,8.00000000000000000E0,0.00000000000000000E0));
#146=B_SPLINE_CURVE_WITH_KNOTS('',1,(#144,#145),.UNSPECIFIED.,.F.,.F.,(2,2),(0.00000000000000000E0,1.00000000000000000E0),.UNSPECIFIED.);
#147=CARTESIAN_POINT('',(1.00000000000000000E1,8.00000000000000000E0,0.00000000000000000E0));
#148=CARTESIAN_POINT('',(1.00000000000000000E1,8.00000000000000000E0,5.00000000000000000E0));
#149=B_SPLINE_CURVE_WITH_KNOTS('',1,(#147,#148),.UNSPECIFIED.,.F.,.F.,(2,2),(0.00000000000000000E0,1.00000000000000000E0),.UNSPECIFIED.);
#150=CARTESIAN_POINT('',(2.00000000000000000E0,8.00000000000000000E0,5.00000000000000000E0));
#151=CARTESIAN_POINT('',(1.00000000000000000E1,8.00000000000000000E0,5.00000000000000000E0));
#152=B_SPLINE_CURVE_WITH_KNOTS('',1,(#150,#151),.UNSPECIFIED.,.F.,.F.,(2,2),(0.00000000000000000E0,1.00000000000000000E0),.UNSPECIFIED.);
#153=CARTESIAN_POINT('',(1.00000000000000000E1,8.00000000000000000E0,0.00000000000000000E0));
#154=CARTESIAN_POINT('',(1.00000000000000000E1,1.00000000000000000E1,0.00000000000000000E0));
#155=B_SPLINE_CURVE_WITH_KNOTS('',1,(#153,#154),.UNSPECIFIED.,.F.,.F.,(2,2),(0.00000000000000000E0,1.00000000000000000E0),.UNSPECIFIED.);
#156=CARTESIAN_POINT('',(1.00000000000000000E1,1.00000000000000000E1,0.00000000000000000E0));
#157=CARTESIAN_POINT('',(1.00000000000000000E1,1.00000000000000000E1,5.00000000000000000E0));
#158=B_SPLINE_CURVE_WITH_KNOTS('',1,(#156,#157),.UNSPECIFIED.,.F.,.F.,(2,2),(0.00000000000000000E0,1.00000000000000000E0),.UNSPECIFIED.);
#159=CARTESIAN_POINT('',(1.00000000000000000E1,8.00000000000000000E0,5.00000000000000000E0));
#160=CARTESIAN_POINT('',(1.00000000000000000E1,1.00000000000000000E1,5.00000000000000000E0));
#161=B_SPLINE_CURVE_WITH_KNOTS('',1,(#159,#160),.UNSPECIFIED.,.F.,.F.,(2,2),(0.00000000000000000E0,1.00000000000000000E0),.UNSPECIFIED.);
#162=CARTESIAN_POINT('',(1.00000000000000000E1,1.00000000000000000E1,0.00000000000000000E0));
#163=CARTESIAN_POINT('',(0.00000000000000000E0,1.00000000000000000E1,0.00000000000000000E0));
#164=B_SPLINE_CURVE_WITH_KNOTS('',1,(#162,#163),.UNSPECIFIED.,.F.,.F.,(2,2),(0.00000000000000000E0,1.00000000000000000E0),.UNSPECIFIED.);
#165=CARTESIAN_POINT('',(0.00000000000000000E0,1.00000000000000000E1,0.00000000000000000E0));
#166=CARTESIAN_POINT('',(0.00000000000000000E0,1.00000000000000000E1,5.00000000000000000E0));
#167=B_SPLINE_CURVE_WITH_KNOTS('',1,(#165,#166),.UNSPECIFIED.,.F.,.F.,(2,2),(0.00000000000000000E0,1.00000000000000000E0),.UNSPECIFIED.);
#168=CARTESIAN_POINT('',(1.00000000000000000E1,1.00000000000000000E1,5.00000000000000000E0));
#169=CARTESIAN_POINT('',(0.00000000000000000E0,1.00000000000000000E1,5.00000000000000000E0));
#170=B_SPLINE_CURVE_WITH_KNOTS('',1,(#168,#169),.UNSPECIFIED.,.F.,.F.,(2,2),(0.00000000000000000E0,1.00000000000000000E0),.UNSPECIFIED.);
#171=CARTESIAN_POINT('',(0.00000000000000000E0,1.00000000000000000E1,0.00000000000000000E0));
#172=CARTESIAN_POINT('',(0.00000000000000000E0,5.00000000000000111E-1,0.00000000000000000E0));
#173=B_SPLINE_CURVE_WITH_KNOTS('',1,(#171,#172),.UNSPECIFIED.,.F.,.F.,(2,2),(0.00000000000000000E0,1.00000000000000000E0),.UNSPECIFIED.);
#174=CARTESIAN_POINT('',(0.00000000000000000E0,1.00000000000000000E1,5.00000000000000000E0));
#175=CARTESIAN_POINT('',(0.00000000000000000E0,5.00000000000000111E-1,5.00000000000000000E0));
#176=B_SPLINE_CURVE_WITH_KNOTS('',1,(#174,#175),.UNSPECIFIED.,.F.,.F.,(2,2),(0.00000000000000000E0,1.00000000000000000E0),.UNSPECIFIED.);
#177=(GEOMETRIC_REPRESENTATION_CONTEXT(2)REPRESENTATION_CONTEXT('','2D'));
#178=CARTESIAN_POINT('',(0.00000000000000000E0,0.00000000000000000E0));
#179=CARTESIAN_POINT('',(1.00000000000000000E0,0.00000000000000000E0));
#180=B_SPLINE_CURVE_WITH_KNOTS('',1,(#178,#179),.UNSPECIFIED.,.F.,.F.,(2,2),(0.00000000000000000E0,1.00000000000000000E0),.UNSPECIFIED.);
#181=DEFINITIONAL_REPRESENTATION('',(#180),#177);
#182=PCURVE('',#43,#181);
#183=CARTESIAN_POINT('',(1.00000000000000000E0,0.00000000000000000E0));
#184=CARTESIAN_POINT('',(1.00000000000000000E0,1.00000000000000000E0));
#185=B_SPLINE_CURVE_WITH_KNOTS('',1,(#183,#184),.UNSPECIFIED.,.F.,.F.,(2,2),(0.00000000000000000E0,1.00000000000000000E0),.UNSPECIFIED.);
#186=DEFINITIONAL_REPRESENTATION('',(#185),#177);
#187=PCURVE('',#43,#186);
#188=CARTESIAN_POINT('',(1.00000000000000000E0,1.00000000000000000E0));
#189=CARTESIAN_POINT('',(0.00000000000000000E0,1.00000000000000000E0));
#190=B_SPLINE_CURVE_WITH_KNOTS('',1,(#188,#189),.UNSPECIFIED.,.F.,.F.,(2,2),(0.00000000000000000E0,1.00000000000000000E0),.UNSPECIFIED.);
#191=DEFINITIONAL_REPRESENTATION('',(#190),#177);
#192=PCURVE('',#43,#191);
#193=CARTESIAN_POINT('',(0.00000000000000000E0,1.00000000000000000E0));
#194=CARTESIAN_POINT('',(0.00000000000000000E0,0.00000000000000000E0));
#195=B_SPLINE_CURVE_WITH_KNOTS('',1,(#193,#194),.UNSPECIFIED.,.F.,.F.,(2,2),(0.00000000000000000E0,1.00000000000000000E0),.UNSPECIFIED.);
#196=DEFINITIONAL_REPRESENTATION('',(#195),#177);
#197=PCURVE('',#43,#196);
#198=CARTESIAN_POINT('',(0.00000000000000000E0,0.00000000000000000E0));
#199=CARTESIAN_POINT('',(1.00000000000000000E0,0.00000000000000000E0));
#200=B_SPLINE_CURVE_WITH_KNOTS('',1,(#198,#199),.UNSPECIFIED.,.F.,.F.,(2,2),(0.00000000000000000E0,1.00000000000000000E0),.UNSPECIFIED.);
#201=DEFINITIONAL_REPRESENTATION('',(#200),#177);
#202=PCURVE('',#48,#201);
#203=CARTESIAN_POINT('',(1.00000000000000000E0,0.00000000000000000E0));
#204=CARTESIAN_POINT('',(1.00000000000000000E0,1.00000000000000000E0));
#205=B_SPLINE_CURVE_WITH_KNOTS('',1,(#203,#204),.UNSPECIFIED.,.F.,.F.,(2,2),(0.00000000000000000E0,1.00000000000000000E0),.UNSPECIFIED.);
#206=DEFINITIONAL_REPRESENTATION('',(#205),#177);
#207=PCURVE('',#48,#206);
#208=CARTESIAN_POINT('',(1.00000000000000000E0,1.00000000000000000E0));
#209=CARTESIAN_POINT('',(0.00000000000000000E0,1.00000000000000000E0));
#210=B_SPLINE_CURVE_WITH_KNOTS('',1,(#208,#209),.UNSPECIFIED.,.F.,.F.,(2,2),(0.00000000000000000E0,1.00000000000000000E0),.UNSPECIFIED.);
#211=DEFINITIONAL_REPRESENTATION('',(#210),#177);
#212=PCURVE('',#48,#211);
#213=CARTESIAN_POINT('',(0.00000000000000000E0,1.00000000000000000E0));
#214=CARTESIAN_POINT('',(0.00000000000000000E0,0.00000000000000000E0));
#215=B_SPLINE_CURVE_WITH_KNOTS('',1,(#213,#214),.UNSPECIFIED.,.F.,.F.,(2,2),(0.00000000000000000E0,1.00000000000000000E0),.UNSPECIFIED.);
#216=DEFINITIONAL_REPRESENTATION('',(#215),#177);
#217=PCURVE('',#48,#216);
#218=CARTESIAN_POINT('',(0.00000000000000000E0,0.00000000000000000E0));
#219=CARTESIAN_POINT('',(1.00000000000000000E0,0.00000000000000000E0));
#220=B_SPLINE_CURVE_WITH_KNOTS('',1,(#218,#219),.UNSPECIFIED.,.F.,.F.,(2,2),(0.00000000000000000E0,1.00000000000000000E0),.UNSPECIFIED.);
#221=DEFINITIONAL_REPRESENTATION('',(#220),#177);
#222=PCURVE('',#53,#221);
#223=CARTESIAN_POINT('',(1.00000000000000000E0,0.00000000000000000E0));
#224=CARTESIAN_POINT('',(1.00000000000000000E0,1.00000000000000000E0));
#225=B_SPLINE_CURVE_WITH_KNOTS('',1,(#223,#224),.UNSPECIFIED.,.F.,.F.,(2,2),(0.00000000000000000E0,1.00000000000000000E0),.UNSPECIFIED.);
#226=DEFINITIONAL_REPRESENTATION('',(#225),#177);
#227=PCURVE('',#53,#226);
#228=CARTESIAN_POINT('',(1.00000000000000000E0,1.00000000000000000E0));
#229=CARTESIAN_POINT('',(0.00000000000000000E0,1.00000000000000000E0));
#230=B_SPLINE_CURVE_WITH_KNOTS('',1,(#228,#229),.UNSPECIFIED.,.F.,.F.,(2,2),(0.00000000000000000E0,1.00000000000000000E0),.UNSPECIFIED.);
#231=DEFINITIONAL_REPRESENTATION('',(#230),#177);
#232=PCURVE('',#53,#231);
#233=CARTESIAN_POINT('',(0.00000000000000000E0,1.00000000000000000E0));
#234=CARTESIAN_POINT('',(0.00000000000000000E0,0.00000000000000000E0));
#235=B_SPLINE_CURVE_WITH_KNOTS('',1,(#233,#234),.UNSPECIFIED.,.F.,.F.,(2,2),(0.00000000000000000E0,1.00000000000000000E0),.UNSPECIFIED.);
#236=DEFINITIONAL_REPRESENTATION('',(#235),#177);
#237=PCURVE('',#53,#236);
#238=CARTESIAN_POINT('',(0.00000000000000000E0,0.00000000000000000E0));
#239=CARTESIAN_POINT('',(1.00000000000000000E0,0.00000000000000000E0));
#240=B_SPLINE_CURVE_WITH_KNOTS('',1,(#238,#239),.UNSPECIFIED.,.F.,.F.,(2,2),(0.00000000000000000E0,1.00000000000000000E0),.UNSPECIFIED.);
#241=DEFINITIONAL_REPRESENTATION('',(#240),#177);
#242=PCURVE('',#58,#241);
#243=CARTESIAN_POINT('',(1.00000000000000000E0,0.00000000000000000E0));
#244=CARTESIAN_POINT('',(1.00000000000000000E0,1.00000000000000000E0));
#245=B_SPLINE_CURVE_WITH_KNOTS('',1,(#243,#244),.UNSPECIFIED.,.F.,.F.,(2,2),(0.00000000000000000E0,1.00000000000000000E0),.UNSPECIFIED.);
#246=DEFINITIONAL_REPRESENTATION('',(#245),#177);
#247=PCURVE('',#58,#246);
#248=CARTESIAN_POINT('',(1.00000000000000000E0,1.00000000000000000E0));
#249=CARTESIAN_POINT('',(0.00000000000000000E0,1.00000000000000000E0));
#250=B_SPLINE_CURVE_WITH_KNOTS('',1,(#248,#249),.UNSPECIFIED.,.F.,.F.,(2,2),(0.00000000000000000E0,1.00000000000000000E0),.UNSPECIFIED.);
#251=DEFINITIONAL_REPRESENTATION('',(#250),#177);
#252=PCURVE('',#58,#251);
#253=CARTESIAN_POINT('',(0.00000000000000000E0,1.00000000000000000E0));
#254=CARTESIAN_POINT('',(0.00000000000000000E0,0.00000000000000000E0));
#255=B_SPLINE_CURVE_WITH_KNOTS('',1,(#253,#254),.UNSPECIFIED.,.F.,.F.,(2,2),(0.00000000000000000E0,1.00000000000000000E0),.UNSPECIFIED.);
#256=DEFINITIONAL_REPRESENTATION('',(#255),#177);
#257=PCURVE('',#58,#256);
#258=CARTESIAN_POINT('',(0.00000000000000000E0,0.00000000000000000E0));
#259=CARTESIAN_POINT('',(1.00000000000000000E0,0.00000000000000000E0));
#260=B_SPLINE_CURVE_WITH_KNOTS('',1,(#258,#259),.UNSPECIFIED.,.F.,.F.,(2,2),(0.00000000000000000E0,1.00000000000000000E0),.UNSPECIFIED.);
#261=DEFINITIONAL_REPRESENTATION('',(#260),#177);
#262=PCURVE('',#63,#261);
#263=CARTESIAN_POINT('',(1.00000000000000000E0,0.00000000000000000E0));
#264=CARTESIAN_POINT('',(1.00000000000000000E0,1.00000000000000000E0));
#265=B_SPLINE_CURVE_WITH_KNOTS('',1,(#263,#264),.UNSPECIFIED.,.F.,.F.,(2,2),(0.00000000000000000E0,1.00000000000000000E0),.UNSPECIFIED.);
#266=DEFINITIONAL_REPRESENTATION('',(#265),#177);
#267=PCURVE('',#63,#266);
#268=CARTESIAN_POINT('',(1.00000000000000000E0,1.00000000000000000E0));
#269=CARTESIAN_POINT('',(0.00000000000000000E0,1.00000000000000000E0));
#270=B_SPLINE_CURVE_WITH_KNOTS('',1,(#268,#269),.UNSPECIFIED.,.F.,.F.,(2,2),(0.00000000000000000E0,1.00000000000000000E0),.UNSPECIFIED.);
#271=DEFINITIONAL_REPRESENTATION('',(#270),#177);
#272=PCURVE('',#63,#271);
#273=CARTESIAN_POINT('',(0.00000000000000000E0,1.00000000000000000E0));
#274=CARTESIAN_POINT('',(0.00000000000000000E0,0.00000000000000000E0));
#275=B_SPLINE_CURVE_WITH_KNOTS('',1,(#273,#274),.UNSPECIFIED.,.F.,.F.,(2,2),(0.00000000000000000E0,1.00000000000000000E0),.UNSPECIFIED.);
#276=DEFINITIONAL_REPRESENTATION('',(#275),#177);
#277=PCURVE('',#63,#276);
#278=CARTESIAN_POINT('',(0.00000000000000000E0,0.00000000000000000E0));
#279=CARTESIAN_POINT('',(1.00000000000000000E0,0.00000000000000000E0));
#280=B_SPLINE_CURVE_WITH_KNOTS('',1,(#278,#279),.UNSPECIFIED.,.F.,.F.,(2,2),(0.00000000000000000E0,1.00000000000000000E0),.UNSPECIFIED.);
#281=DEFINITIONAL_REPRESENTATION('',(#280),#177);
#282=PCURVE('',#68,#281);
#283=CARTESIAN_POINT('',(1.00000000000000000E0,0.00000000000000000E0));
#284=CARTESIAN_POINT('',(1.00000000000000000E0,1.00000000000000000E0));
#285=B_SPLINE_CURVE_WITH_KNOTS('',1,(#283,#284),.UNSPECIFIED.,.F.,.F.,(2,2),(0.00000000000000000E0,1.00000000000000000E0),.UNSPECIFIED.);
#286=DEFINITIONAL_REPRESENTATION('',(#285),#177);
#287=PCURVE('',#68,#286);
#288=CARTESIAN_POINT('',(1.00000000000000000E0,1.00000000000000000E0));
#289=CARTESIAN_POINT('',(0.00000000000000000E0,1.00000000000000000E0));
#290=B_SPLINE_CURVE_WITH_KNOTS('',1,(#288,#289),.UNSPECIFIED.,.F.,.F.,(2,2),(0.00000000000000000E0,1.00000000000000000E0),.UNSPECIFIED.);
#291=DEFINITIONAL_REPRESENTATION('',(#290),#177);
#292=PCURVE('',#68,#291);
#293=CARTESIAN_POINT('',(0.00000000000000000E0,1.00000000000000000E0));
#294=CARTESIAN_POINT('',(0.00000000000000000E0,0.00000000000000000E0));
#295=B_SPLINE_CURVE_WITH_KNOTS('',1,(#293,#294),.UNSPECIFIED.,.F.,.F.,(2,2),(0.00000000000000000E0,1.00000000000000000E0),.UNSPECIFIED.);
#296=DEFINITIONAL_REPRESENTATION('',(#295),#177);
#297=PCURVE('',#68,#296);
#298=CARTESIAN_POINT('',(0.00000000000000000E0,0.00000000000000000E0));
#299=CARTESIAN_POINT('',(1.00000000000000000E0,0.00000000000000000E0));
#300=B_SPLINE_CURVE_WITH_KNOTS('',1,(#298,#299),.UNSPECIFIED.,.F.,.F.,(2,2),(0.00000000000000000E0,1.00000000000000000E0),.UNSPECIFIED.);
#301=DEFINITIONAL_REPRESENTATION('',(#300),#177);
#302=PCURVE('',#73,#301);
#303=CARTESIAN_POINT('',(1.00000000000000000E0,0.00000000000000000E0));
#304=CARTESIAN_POINT('',(1.00000000000000000E0,1.00000000000000000E0));
#305=B_SPLINE_CURVE_WITH_KNOTS('',1,(#303,#304),.UNSPECIFIED.,.F.,.F.,(2,2),(0.00000000000000000E0,1.00000000000000000E0),.UNSPECIFIED.);
#306=DEFINITIONAL_REPRESENTATION('',(#305),#177);
#307=PCURVE('',#73,#306);
#308=CARTESIAN_POINT('',(1.00000000000000000E0,1.00000000000000000E0));
#309=CARTESIAN_POINT('',(0.00000000000000000E0,1.00000000000000000E0));
#310=B_SPLINE_CURVE_WITH_KNOTS('',1,(#308,#309),.UNSPECIFIED.,.F.,.F.,(2,2),(0.00000000000000000E0,1.00000000000000000E0),.UNSPECIFIED.);
#311=DEFINITIONAL_REPRESENTATION('',(#310),#177);
#312=PCURVE('',#73,#311);
#313=CARTESIAN_POINT('',(0.00000000000000000E0,1.00000000000000000E0));
#314=CARTESIAN_POINT('',(0.00000000000000000E0,0.00000000000000000E0));
#315=B_SPLINE_CURVE_WITH_KNOTS('',1,(#313,#314),.UNSPECIFIED.,.F.,.F.,(2,2),(0.00000000000000000E0,1.00000000000000000E0),.UNSPECIFIED.);
#316=DEFINITIONAL_REPRESENTATION('',(#315),#177);
#317=PCURVE('',#73,#316);
#318=CARTESIAN_POINT('',(0.00000000000000000E0,0.00000000000000000E0));
#319=CARTESIAN_POINT('',(1.00000000000000000E0,0.00000000000000000E0));
#320=B_SPLINE_CURVE_WITH_KNOTS('',1,(#318,#319),.UNSPECIFIED.,.F.,.F.,(2,2),(0.00000000000000000E0,1.00000000000000000E0),.UNSPECIFIED.);
#321=DEFINITIONAL_REPRESENTATION('',(#320),#177);
#322=PCURVE('',#78,#321);
#323=CARTESIAN_POINT('',(1.00000000000000000E0,0.00000000000000000E0));
#324=CARTESIAN_POINT('',(1.00000000000000000E0,1.00000000000000000E0));
#325=B_SPLINE_CURVE_WITH_KNOTS('',1,(#323,#324),.UNSPECIFIED.,.F.,.F.,(2,2),(0.00000000000000000E0,1.00000000000000000E0),.UNSPECIFIED.);
#326=DEFINITIONAL_REPRESENTATION('',(#325),#177);
#327=PCURVE('',#78,#326);
#328=CARTESIAN_POINT('',(1.00000000000000000E0,1.00000000000000000E0));
#329=CARTESIAN_POINT('',(0.00000000000000000E0,1.00000000000000000E0));
#330=B_SPLINE_CURVE_WITH_KNOTS('',1,(#328,#329),.UNSPECIFIED.,.F.,.F.,(2,2),(0.00000000000000000E0,1.00000000000000000E0),.UNSPECIFIED.);
#331=DEFINITIONAL_REPRESENTATION('',(#330),#177);
#332=PCURVE('',#78,#331);
#333=CARTESIAN_POINT('',(0.00000000000000000E0,1.00000000000000000E0));
#334=CARTESIAN_POINT('',(0.00000000000000000E0,0.00000000000000000E0));
#335=B_SPLINE_CURVE_WITH_KNOTS('',1,(#333,#334),.UNSPECIFIED.,.F.,.F.,(2,2),(0.00000000000000000E0,1.00000000000000000E0),.UNSPECIFIED.);
#336=DEFINITIONAL_REPRESENTATION('',(#335),#177);
#337=PCURVE('',#78,#336);
#338=CARTESIAN_POINT('',(0.00000000000000000E0,0.00000000000000000E0));
#339=CARTESIAN_POINT('',(1.00000000000000000E0,0.00000000000000000E0));
#340=B_SPLINE_CURVE_WITH_KNOTS('',1,(#338,#339),.UNSPECIFIED.,.F.,.F.,(2,2),(0.00000000000000000E0,1.00000000000000000E0),.UNSPECIFIED.);
#341=DEFINITIONAL_REPRESENTATION('',(#340),#177);
#342=PCURVE('',#83,#341);
#343=CARTESIAN_POINT('',(1.00000000000000000E0,0.00000000000000000E0));
#344=CARTESIAN_POINT('',(1.00000000000000000E0,1.00000000000000000E0));
#345=B_SPLINE_CURVE_WITH_KNOTS('',1,(#343,#344),.UNSPECIFIED.,.F.,.F.,(2,2),(0.00000000000000000E0,1.00000000000000000E0),.UNSPECIFIED.);
#346=DEFINITIONAL_REPRESENTATION('',(#345),#177);
#347=PCURVE('',#83,#346);
#348=CARTESIAN_POINT('',(1.00000000000000000E0,1.00000000000000000E0));
#349=CARTESIAN_POINT('',(0.00000000000000000E0,1.00000000000000000E0));
#350=B_SPLINE_CURVE_WITH_KNOTS('',1,(#348,#349),.UNSPECIFIED.,.F.,.F.,(2,2),(0.00000000000000000E0,1.00000000000000000E0),.UNSPECIFIED.);
#351=DEFINITIONAL_REPRESENTATION('',(#350),#177);
#352=PCURVE('',#83,#351);
#353=CARTESIAN_POINT('',(0.00000000000000000E0,1.00000000000000000E0));
#354=CARTESIAN_POINT('',(0.00000000000000000E0,0.00000000000000000E0));
#355=B_SPLINE_CURVE_WITH_KNOTS('',1,(#353,#354),.UNSPECIFIED.,.F.,.F.,(2,2),(0.00000000000000000E0,1.00000000000000000E0),.UNSPECIFIED.);
#356=DEFINITIONAL_REPRESENTATION('',(#355),#177);
#357=PCURVE('',#83,#356);
#358=CARTESIAN_POINT('',(5.00000000000000444E-2,1.11022302462515660E-17));
#359=CARTESIAN_POINT('',(1.00000000000000000E0,1.11022302462515660E-17));
#360=B_SPLINE_CURVE_WITH_KNOTS('',1,(#358,#359),.UNSPECIFIED.,.F.,.F.,(2,2),(0.00000000000000000E0,1.00000000000000000E0),.UNSPECIFIED.);
#361=DEFINITIONAL_REPRESENTATION('',(#360),#177);
#362=PCURVE('',#88,#361);
#363=CARTESIAN_POINT('',(1.00000000000000000E0,1.11022302462515660E-17));
#364=CARTESIAN_POINT('',(1.00000000000000000E0,1.00000000000000000E0));
#365=B_SPLINE_CURVE_WITH_KNOTS('',1,(#363,#364),.UNSPECIFIED.,.F.,.F.,(2,2),(0.00000000000000000E0,1.00000000000000000E0),.UNSPECIFIED.);
#366=DEFINITIONAL_REPRESENTATION('',(#365),#177);
#367=PCURVE('',#88,#366);
#368=CARTESIAN_POINT('',(1.00000000000000000E0,1.00000000000000000E0));
#369=CARTESIAN_POINT('',(8.00000000000000044E-1,1.00000000000000000E0));
#370=B_SPLINE_CURVE_WITH_KNOTS('',1,(#368,#369),.UNSPECIFIED.,.F.,.F.,(2,2),(0.00000000000000000E0,1.00000000000000000E0),.UNSPECIFIED.);
#371=DEFINITIONAL_REPRESENTATION('',(#370),#177);
#372=PCURVE('',#88,#371);
#373=CARTESIAN_POINT('',(8.00000000000000044E-1,1.00000000000000000E0));
#374=CARTESIAN_POINT('',(8.00000000000000044E-1,2.00000000000000011E-1));
#375=B_SPLINE_CURVE_WITH_KNOTS('',1,(#373,#374),.UNSPECIFIED.,.F.,.F.,(2,2),(0.00000000000000000E0,1.00000000000000000E0),.UNSPECIFIED.);
#376=DEFINITIONAL_REPRESENTATION('',(#375),#177);
#377=PCURVE('',#88,#376);
#378=CARTESIAN_POINT('',(8.00000000000000044E-1,2.00000000000000011E-1));
#379=CARTESIAN_POINT('',(1.99999999999999956E-1,2.00000000000000011E-1));
#380=B_SPLINE_CURVE_WITH_KNOTS('',1,(#378,#379),.UNSPECIFIED.,.F.,.F.,(2,2),(0.00000000000000000E0,1.00000000000000000E0),.UNSPECIFIED.);
#381=DEFINITIONAL_REPRESENTATION('',(#380),#177);
#382=PCURVE('',#88,#381);
#383=CARTESIAN_POINT('',(1.99999999999999956E-1,2.00000000000000011E-1));
#384=CARTESIAN_POINT('',(1.99999999999999956E-1,1.00000000000000000E0));
#385=B_SPLINE_CURVE_WITH_KNOTS('',1,(#383,#384),.UNSPECIFIED.,.F.,.F.,(2,2),(0.00000000000000000E0,1.00000000000000000E0),.UNSPECIFIED.);
#386=DEFINITIONAL_REPRESENTATION('',(#385),#177);
#387=PCURVE('',#88,#386);
#388=CARTESIAN_POINT('',(1.99999999999999956E-1,1.00000000000000000E0));
#389=CARTESIAN_POINT('',(0.00000000000000000E0,1.00000000000000000E0));
#390=B_SPLINE_CURVE_WITH_KNOTS('',1,(#388,#389),.UNSPECIFIED.,.F.,.F.,(2,2),(0.00000000000000000E0,1.00000000000000000E0),.UNSPECIFIED.);
#391=DEFINITIONAL_REPRESENTATION('',(#390),#177);
#392=PCURVE('',#88,#391);
#393=CARTESIAN_POINT('',(0.00000000000000000E0,1.00000000000000000E0));
#394=CARTESIAN_POINT('',(0.00000000000000000E0,5.00000000000000236E-2));
#395=B_SPLINE_CURVE_WITH_KNOTS('',1,(#393,#394),.UNSPECIFIED.,.F.,.F.,(2,2),(0.00000000000000000E0,1.00000000000000000E0),.UNSPECIFIED.);
#396=DEFINITIONAL_REPRESENTATION('',(#395),#177);
#397=PCURVE('',#88,#396);
#398=CARTESIAN_POINT('',(0.00000000000000000E0,4.99999999999999889E-2));
#399=CARTESIAN_POINT('',(0.00000000000000000E0,0.00000000000000000E0));
#400=CARTESIAN_POINT('',(5.00000000000000444E-2,1.11022302462515660E-17));
#401=(BOUNDED_CURVE()B_SPLINE_CURVE(2,(#398,#399,#400),.UNSPECIFIED.,.F.,.F.)B_SPLINE_CURVE_WITH_KNOTS((3,3),(0.00000000000000000E0,1.00000000000000000E0),.UNSPECIFIED.)CURVE()GEOMETRIC_REPRESENTATION_ITEM()RATIONAL_B_SPLINE_CURVE((1.00000000000000000E0,7.07106781186547573E-1,1.00000000000000000E0))REPRESENTATION_ITEM(''));
#402=DEFINITIONAL_REPRESENTATION('',(#401),#177);
#403=PCURVE('',#88,#402);
#404=CARTESIAN_POINT('',(9.49999999999999956E-1,1.11022302462515660E-17));
#405=CARTESIAN_POINT('',(1.00000000000000000E0,0.00000000000000000E0));
#406=CARTESIAN_POINT('',(1.00000000000000000E0,4.99999999999999889E-2));
#407=(BOUNDED_CURVE()B_SPLINE_CURVE(2,(#404,#405,#406),.UNSPECIFIED.,.F.,.F.)B_SPLINE_CURVE_WITH_KNOTS((3,3),(0.00000000000000000E0,1.00000000000000000E0),.UNSPECIFIED.)CURVE()GEOMETRIC_REPRESENTATION_ITEM()RATIONAL_B_SPLINE_CURVE((1.00000000000000000E0,7.07106781186547573E-1,1.00000000000000000E0))REPRESENTATION_ITEM(''));
#408=DEFINITIONAL_REPRESENTATION('',(#407),#177);
#409=PCURVE('',#93,#408);
#410=CARTESIAN_POINT('',(1.00000000000000000E0,5.00000000000000236E-2));
#411=CARTESIAN_POINT('',(1.00000000000000000E0,1.00000000000000000E0));
#412=B_SPLINE_CURVE_WITH_KNOTS('',1,(#410,#411),.UNSPECIFIED.,.F.,.F.,(2,2),(0.00000000000000000E0,1.00000000000000000E0),.UNSPECIFIED.);
#413=DEFINITIONAL_REPRESENTATION('',(#412),#177);
#414=PCURVE('',#93,#413);
#415=CARTESIAN_POINT('',(1.00000000000000000E0,1.00000000000000000E0));
#416=CARTESIAN_POINT('',(8.00000000000000044E-1,1.00000000000000000E0));
#417=B_SPLINE_CURVE_WITH_KNOTS('',1,(#415,#416),.UNSPECIFIED.,.F.,.F.,(2,2),(0.00000000000000000E0,1.00000000000000000E0),.UNSPECIFIED.);
#418=DEFINITIONAL_REPRESENTATION('',(#417),#177);
#419=PCURVE('',#93,#418);
#420=CARTESIAN_POINT('',(8.00000000000000044E-1,1.00000000000000000E0));
#421=CARTESIAN_POINT('',(8.00000000000000044E-1,2.00000000000000011E-1));
#422=B_SPLINE_CURVE_WITH_KNOTS('',1,(#420,#421),.UNSPECIFIED.,.F.,.F.,(2,2),(0.00000000000000000E0,1.00000000000000000E0),.UNSPECIFIED.);
#423=DEFINITIONAL_REPRESENTATION('',(#422),#177);
#424=PCURVE('',#93,#423);
#425=CARTESIAN_POINT('',(8.00000000000000044E-1,2.00000000000000011E-1));
#426=CARTESIAN_POINT('',(2.00000000000000011E-1,2.00000000000000011E-1));
#427=B_SPLINE_CURVE_WITH_KNOTS('',1,(#425,#426),.UNSPECIFIED.,.F.,.F.,(2,2),(0.00000000000000000E0,1.00000000000000000E0),.UNSPECIFIED.);
#428=DEFINITIONAL_REPRESENTATION('',(#427),#177);
#429=PCURVE('',#93,#428);
#430=CARTESIAN_POINT('',(2.00000000000000011E-1,2.00000000000000011E-1));
#431=CARTESIAN_POINT('',(2.00000000000000011E-1,1.00000000000000000E0));
#432=B_SPLINE_CURVE_WITH_KNOTS('',1,(#430,#431),.UNSPECIFIED.,.F.,.F.,(2,2),(0.00000000000000000E0,1.00000000000000000E0),.UNSPECIFIED.);
#433=DEFINITIONAL_REPRESENTATION('',(#432),#177);
#434=PCURVE('',#93,#433);
#435=CARTESIAN_POINT('',(2.00000000000000011E-1,1.00000000000000000E0));
#436=CARTESIAN_POINT('',(0.00000000000000000E0,1.00000000000000000E0));
#437=B_SPLINE_CURVE_WITH_KNOTS('',1,(#435,#436),.UNSPECIFIED.,.F.,.F.,(2,2),(0.00000000000000000E0,1.00000000000000000E0),.UNSPECIFIED.);
#438=DEFINITIONAL_REPRESENTATION('',(#437),#177);
#439=PCURVE('',#93,#438);
#440=CARTESIAN_POINT('',(0.00000000000000000E0,1.00000000000000000E0));
#441=CARTESIAN_POINT('',(0.00000000000000000E0,1.11022302462515660E-17));
#442=B_SPLINE_CURVE_WITH_KNOTS('',1,(#440,#441),.UNSPECIFIED.,.F.,.F.,(2,2),(0.00000000000000000E0,1.00000000000000000E0),.UNSPECIFIED.);
#443=DEFINITIONAL_REPRESENTATION('',(#442),#177);
#444=PCURVE('',#93,#443);
#445=CARTESIAN_POINT('',(0.00000000000000000E0,1.11022302462515660E-17));
#446=CARTESIAN_POINT('',(9.49999999999999956E-1,1.11022302462515660E-17));
#447=B_SPLINE_CURVE_WITH_KNOTS('',1,(#445,#446),.UNSPECIFIED.,.F.,.F.,(2,2),(0.00000000000000000E0,1.00000000000000000E0),.UNSPECIFIED.);
#448=DEFINITIONAL_REPRESENTATION('',(#447),#177);
#449=PCURVE('',#93,#448);
#450=SURFACE_CURVE('',#97,(#182,#403),.PCURVE_S1.);
#451=EDGE_CURVE('OSCAD_TOPO/3|edge|e:ecf05abc023bee2eaa4aefe13bcee2b2|59eebf571e023711e25ea896a30a28f352b5619885343035fc50c10aad77063f',#2,#4,#450,.T.);
#452=SURFACE_CURVE('',#100,(#187,#217),.PCURVE_S1.);
#453=EDGE_CURVE('OSCAD_TOPO/3|edge|e:4fca3294ff396a8228626e5a47c7fb3c|adef35f35e17eab490bd3c32a13ecae97c65cdc6f39b79cb971469ce6477862f',#4,#6,#452,.T.);
#454=SURFACE_CURVE('',#104,(#192,#409),.PCURVE_S1.);
#455=EDGE_CURVE('OSCAD_TOPO/3|edge|e:b7db61df5d2ef058a3d37976e3e09b79|86af5c45613ae80a6842ad62f3636bf018cb8a2c6af399c01625ff9ef5485bc8',#8,#6,#454,.T.);
#456=SURFACE_CURVE('',#107,(#197,#347),.PCURVE_S1.);
#457=EDGE_CURVE('OSCAD_TOPO/3|edge|e:71ed05647d430c0f320cc8c929d9da46|35f8dcb24dc566cd2489c08f43386b3e1918b47c622b8c8ed180dbe6792b16bc',#2,#8,#456,.T.);
#458=SURFACE_CURVE('',#110,(#202,#397),.PCURVE_S1.);
#459=EDGE_CURVE('OSCAD_TOPO/3|edge|e:af21d894279b7924f1bbebcf5aacc8f9|53836e6bf3ffcef915790ac88330995f9c2fcaf1b3f454e9ba5e37d48fc9020c',#4,#10,#458,.T.);
#460=SURFACE_CURVE('',#113,(#207,#237),.PCURVE_S1.);
#461=EDGE_CURVE('OSCAD_TOPO/3|edge|e:9525a8dc575df0fda66836bb891f3533|bd1f448cd2b7ee75bc69165fc12c2732f517e457ebf536c425ca663bd7ca61cf',#10,#12,#460,.T.);
#462=SURFACE_CURVE('',#116,(#212,#414),.PCURVE_S1.);
#463=EDGE_CURVE('OSCAD_TOPO/3|edge|e:4c4cade4932769e3b6026c679b8349dc|24aa1c9d44f8301aaeaa85717f16452168e1f2d00a51081ae21a520ef493d28c',#6,#12,#462,.T.);
#464=SURFACE_CURVE('',#119,(#222,#392),.PCURVE_S1.);
#465=EDGE_CURVE('OSCAD_TOPO/3|edge|e:7628aad1d759cb5fe86f0f6800d4420d|2e22ce19a55df8f568bf367fd4b22cdeeecb1ab735cbc2119a2c3066d9e21597',#10,#14,#464,.T.);
#466=SURFACE_CURVE('',#122,(#227,#257),.PCURVE_S1.);
#467=EDGE_CURVE('OSCAD_TOPO/3|edge|e:50ef12ecbf72b07441b95946666e2be9|a9e938a182d08f31e25211b61c453ba289cf5c7ceea7489866357b8adaa3c837',#14,#16,#466,.T.);
#468=SURFACE_CURVE('',#125,(#232,#419),.PCURVE_S1.);
#469=EDGE_CURVE('OSCAD_TOPO/3|edge|e:6fbd59b3cd47df7facc66690643f79be|23307605d573ac9b61970b7eb42fda2ccdc2bbe65d4bbebe8f33d62245f5cbd9',#12,#16,#468,.T.);
#470=SURFACE_CURVE('',#128,(#242,#387),.PCURVE_S1.);
#471=EDGE_CURVE('OSCAD_TOPO/3|edge|e:5265b7e4ecf8d6e1dc3ded1b0a59c72b|e2bca64cf81b5fe0685f72482764883ba51229ce899f0dc00ad012dfb8312194',#14,#18,#470,.T.);
#472=SURFACE_CURVE('',#131,(#247,#277),.PCURVE_S1.);
#473=EDGE_CURVE('OSCAD_TOPO/3|edge|e:9190eb44c2d1108bd1ff71aa9acf878b|f47fe03ee64c4c4e6f0e3858056bd9cc2e7b2b1ac7fd8663469aa483947be391',#18,#20,#472,.T.);
#474=SURFACE_CURVE('',#134,(#252,#424),.PCURVE_S1.);
#475=EDGE_CURVE('OSCAD_TOPO/3|edge|e:afc318577d8ec705a4712ca84c488307|91fd45ca9a1a683c1dd832e0117c5c3373c4875140d87fa40e92a02d623bd08b',#16,#20,#474,.T.);
#476=SURFACE_CURVE('',#137,(#262,#382),.PCURVE_S1.);
#477=EDGE_CURVE('OSCAD_TOPO/3|edge|e:23d4a0ae2c646d27d9011b42d0a84f1a|3fce719ee354aa3e4a64099c311438fb1fa6d0e0e62f95038780122fb04e6b5a',#18,#22,#476,.T.);
#478=SURFACE_CURVE('',#140,(#267,#297),.PCURVE_S1.);
#479=EDGE_CURVE('OSCAD_TOPO/3|edge|e:2b7d58db5154867f6ce76da4de6e34bb|5f4a7ef83f02fb2b204e9ff1736965a5df8e5291addfb82707f4785eefb74a51',#22,#24,#478,.T.);
#480=SURFACE_CURVE('',#143,(#272,#429),.PCURVE_S1.);
#481=EDGE_CURVE('OSCAD_TOPO/3|edge|e:ad4d0db3449c08ae9b08fe35d53d9b99|338770d833fc0c2522dab1dff9ed20799a2882d2ebac6e66bb79fce789c77a88',#20,#24,#480,.T.);
#482=SURFACE_CURVE('',#146,(#282,#377),.PCURVE_S1.);
#483=EDGE_CURVE('OSCAD_TOPO/3|edge|e:f628d1b61090c19d93a8134f315d2de6|653d74b50b086984b77e0210beefa0e38dc5519b7899de1a2b1f1cb94146e4ed',#22,#26,#482,.T.);
#484=SURFACE_CURVE('',#149,(#287,#317),.PCURVE_S1.);
#485=EDGE_CURVE('OSCAD_TOPO/3|edge|e:7ea0e1b2a943b7671cf017d921f1b701|2c58ceef40dc2df54abd96f3b9e0ecd58363ee2bc32d66850dc72e16f2e9f022',#26,#28,#484,.T.);
#486=SURFACE_CURVE('',#152,(#292,#434),.PCURVE_S1.);
#487=EDGE_CURVE('OSCAD_TOPO/3|edge|e:34622a4edbf26cc6101ae0dc97eebc4f|263dac6b15c07e4dadbd8db9f8ac6f31877efc099e661ef7d745f092516b26f2',#24,#28,#486,.T.);
#488=SURFACE_CURVE('',#155,(#302,#372),.PCURVE_S1.);
#489=EDGE_CURVE('OSCAD_TOPO/3|edge|e:72c03bf7da6fcf0c586d9bf090d59e44|3877d43b80024db856c79c82fc67e78690f31b59ce77e35dc621f9cb69a1f13a',#26,#30,#488,.T.);
#490=SURFACE_CURVE('',#158,(#307,#337),.PCURVE_S1.);
#491=EDGE_CURVE('OSCAD_TOPO/3|edge|e:3ae55749df3510c9ea7369a26275aabe|3e24c8036de0cda800a1f63b434e1e96c79f30e984ae74472165d82e7cd04138',#30,#32,#490,.T.);
#492=SURFACE_CURVE('',#161,(#312,#439),.PCURVE_S1.);
#493=EDGE_CURVE('OSCAD_TOPO/3|edge|e:1a7c49866ad88e0a9108a69110da1ba2|da6df1f7d8a07fceeedd25753f01a4bf585e3015229bba6970dc95e9b4d85163',#28,#32,#492,.T.);
#494=SURFACE_CURVE('',#164,(#322,#367),.PCURVE_S1.);
#495=EDGE_CURVE('OSCAD_TOPO/3|edge|e:ef4d7148860916ab51bba60ee5828e9c|92abb1e8bd50668e8525e83232fb7f48fdb41bee7cf312551f5a9fecdccf12e7',#30,#34,#494,.T.);
#496=SURFACE_CURVE('',#167,(#327,#357),.PCURVE_S1.);
#497=EDGE_CURVE('OSCAD_TOPO/3|edge|e:9fd2cf8cb25c72a5dbb528eedad6a333|952c1c2e4982096cc7118f684818cc405cb37ce0fc42dff1c59ecb7b74a51799',#34,#36,#496,.T.);
#498=SURFACE_CURVE('',#170,(#332,#444),.PCURVE_S1.);
#499=EDGE_CURVE('OSCAD_TOPO/3|edge|e:ac80ade02a0acf867412d243724863cf|9134193ab2238891602431b4d268b0f8dcaff8183d0f9442775b5982c088b774',#32,#36,#498,.T.);
#500=SURFACE_CURVE('',#173,(#342,#362),.PCURVE_S1.);
#501=EDGE_CURVE('OSCAD_TOPO/3|edge|e:4c8489a314b5d0e1fd47ae48e01b213b|4c970bbe9e2b49a1d7a41be7a12299dceecf501d8ac48379738719c13a5b00d5',#34,#2,#500,.T.);
#502=SURFACE_CURVE('',#176,(#352,#449),.PCURVE_S1.);
#503=EDGE_CURVE('OSCAD_TOPO/3|edge|e:ac63c48d8b39882dbd3ccf5d326607dd|eeb3dac86c885df44c18fb76009d2dc42c01ddfd997a41b529b8ef4b920adf43',#36,#8,#502,.T.);
#504=ORIENTED_EDGE('',*,*,#451,.T.);
#505=ORIENTED_EDGE('',*,*,#453,.T.);
#506=ORIENTED_EDGE('',*,*,#455,.F.);
#507=ORIENTED_EDGE('',*,*,#457,.F.);
#508=EDGE_LOOP('OSCAD_TOPO/3|loop|l:c96e5fed5e740dc5a1aab7bf8233ae08|681d9764c786efe80863dcb195ce395add55cbe3265d58a0513ab67faf5f9c82',(#504,#505,#506,#507));
#509=ORIENTED_EDGE('',*,*,#459,.T.);
#510=ORIENTED_EDGE('',*,*,#461,.T.);
#511=ORIENTED_EDGE('',*,*,#463,.F.);
#512=ORIENTED_EDGE('',*,*,#453,.F.);
#513=EDGE_LOOP('OSCAD_TOPO/3|loop|l:9bbbfcc7e91e46f0c8211bd0041dd4d9|5dd45e0c0d9471ed59848cf2d067e2b7532221d7abd424952d7674f10acf4113',(#509,#510,#511,#512));
#514=ORIENTED_EDGE('',*,*,#465,.T.);
#515=ORIENTED_EDGE('',*,*,#467,.T.);
#516=ORIENTED_EDGE('',*,*,#469,.F.);
#517=ORIENTED_EDGE('',*,*,#461,.F.);
#518=EDGE_LOOP('OSCAD_TOPO/3|loop|l:e6e57f7053e49630dce3aedb12bc996a|b3ad28b40920bf9be6ae4174addeaab7c038df1d3592ca689b414890723d35d1',(#514,#515,#516,#517));
#519=ORIENTED_EDGE('',*,*,#471,.T.);
#520=ORIENTED_EDGE('',*,*,#473,.T.);
#521=ORIENTED_EDGE('',*,*,#475,.F.);
#522=ORIENTED_EDGE('',*,*,#467,.F.);
#523=EDGE_LOOP('OSCAD_TOPO/3|loop|l:42cc5ffb3524c30d149bdea9578b207d|f6f33e229da782846b954382f1d3747fa2eded8c4b9f41fe49051f2d6c397923',(#519,#520,#521,#522));
#524=ORIENTED_EDGE('',*,*,#477,.T.);
#525=ORIENTED_EDGE('',*,*,#479,.T.);
#526=ORIENTED_EDGE('',*,*,#481,.F.);
#527=ORIENTED_EDGE('',*,*,#473,.F.);
#528=EDGE_LOOP('OSCAD_TOPO/3|loop|l:2be6e39b7eace100ac42e40c1c9801d9|97fa70b5228c14fd0c68a4b8c707757da0c55a67a450687e452c8e4fd1f761d4',(#524,#525,#526,#527));
#529=ORIENTED_EDGE('',*,*,#483,.T.);
#530=ORIENTED_EDGE('',*,*,#485,.T.);
#531=ORIENTED_EDGE('',*,*,#487,.F.);
#532=ORIENTED_EDGE('',*,*,#479,.F.);
#533=EDGE_LOOP('OSCAD_TOPO/3|loop|l:ed8c6e3140282cff1b1edfce43ad8b79|00c6bcd29fbf57c5e9f3292cd2731e2c68a92ed521c3e2a997b2ce661b362bc4',(#529,#530,#531,#532));
#534=ORIENTED_EDGE('',*,*,#489,.T.);
#535=ORIENTED_EDGE('',*,*,#491,.T.);
#536=ORIENTED_EDGE('',*,*,#493,.F.);
#537=ORIENTED_EDGE('',*,*,#485,.F.);
#538=EDGE_LOOP('OSCAD_TOPO/3|loop|l:c3b9bd12305509264343c8dafeeec907|0315f6db4b6bcd9ce7b13a84535259fdc20849b20492e3d780b684bf82a1dbab',(#534,#535,#536,#537));
#539=ORIENTED_EDGE('',*,*,#495,.T.);
#540=ORIENTED_EDGE('',*,*,#497,.T.);
#541=ORIENTED_EDGE('',*,*,#499,.F.);
#542=ORIENTED_EDGE('',*,*,#491,.F.);
#543=EDGE_LOOP('OSCAD_TOPO/3|loop|l:a8dc35538808bcd721490331176293f7|5de4dadee8e9f54eb38b6ceb7b2d45a43bc99fcf20c891f0f2b998f88e947328',(#539,#540,#541,#542));
#544=ORIENTED_EDGE('',*,*,#501,.T.);
#545=ORIENTED_EDGE('',*,*,#457,.T.);
#546=ORIENTED_EDGE('',*,*,#503,.F.);
#547=ORIENTED_EDGE('',*,*,#497,.F.);
#548=EDGE_LOOP('OSCAD_TOPO/3|loop|l:3be7fdf77caca57d849a29361feb74f9|68ba93d235f688276985d2b90490ee591e89a5388e47437751e03f404c7e6cd9',(#544,#545,#546,#547));
#549=ORIENTED_EDGE('',*,*,#501,.F.);
#550=ORIENTED_EDGE('',*,*,#495,.F.);
#551=ORIENTED_EDGE('',*,*,#489,.F.);
#552=ORIENTED_EDGE('',*,*,#483,.F.);
#553=ORIENTED_EDGE('',*,*,#477,.F.);
#554=ORIENTED_EDGE('',*,*,#471,.F.);
#555=ORIENTED_EDGE('',*,*,#465,.F.);
#556=ORIENTED_EDGE('',*,*,#459,.F.);
#557=ORIENTED_EDGE('',*,*,#451,.F.);
#558=EDGE_LOOP('OSCAD_TOPO/3|loop|l:5485c3faa8e1120d189a3aff138d092b|ddb48241a59a3c369182d7fb39aeec3a460e9dcf69e04bd165cb341a3c46d31e',(#549,#550,#551,#552,#553,#554,#555,#556,#557));
#559=ORIENTED_EDGE('',*,*,#455,.T.);
#560=ORIENTED_EDGE('',*,*,#463,.T.);
#561=ORIENTED_EDGE('',*,*,#469,.T.);
#562=ORIENTED_EDGE('',*,*,#475,.T.);
#563=ORIENTED_EDGE('',*,*,#481,.T.);
#564=ORIENTED_EDGE('',*,*,#487,.T.);
#565=ORIENTED_EDGE('',*,*,#493,.T.);
#566=ORIENTED_EDGE('',*,*,#499,.T.);
#567=ORIENTED_EDGE('',*,*,#503,.T.);
#568=EDGE_LOOP('OSCAD_TOPO/3|loop|l:6c3a89cb2658bcca2bf362a4ebdaa206|14b29db65e5f27aafb65b1d3a34aeffc63e5f3bf744ad66464e29fe7b243db5c',(#559,#560,#561,#562,#563,#564,#565,#566,#567));
#569=FACE_OUTER_BOUND('',#508,.T.);
#570=ADVANCED_FACE('OSCAD_TOPO/3|face|f:0f8329e766c397a7cb08fa2c9a467683|7705b22b99961ee91e7a41543032126a7d7f9fbc83bf7bae00eae96fdd4f81e0',(#569),#43,.T.);
#571=FACE_OUTER_BOUND('',#513,.T.);
#572=ADVANCED_FACE('OSCAD_TOPO/3|face|f:efeca3c61c7efb053ef4e01e92746b56|7eedbf21755cb9636bfc4053ed038476b3eda30e57203ccf5cae9f1e61c303f4',(#571),#48,.T.);
#573=FACE_OUTER_BOUND('',#518,.T.);
#574=ADVANCED_FACE('OSCAD_TOPO/3|face|f:ed1c5e016444ae0676b981bf566b664a|02a847f287ae0c11763697a4900b3a58479feda8dd26399fff4a11e8010e173a',(#573),#53,.T.);
#575=FACE_OUTER_BOUND('',#523,.T.);
#576=ADVANCED_FACE('OSCAD_TOPO/3|face|f:f55ae36b2a35fc812773aaaf7303959b|5e0d5862bdb245a87991f71e21306380ee5eec1fc6e91f6fb124021438d94208',(#575),#58,.T.);
#577=FACE_OUTER_BOUND('',#528,.T.);
#578=ADVANCED_FACE('OSCAD_TOPO/3|face|f:0b11a796ecda42142c47b98291ab2785|b31460a1dc3bb1fb600b650ee4befddb47ccc57e38a4f4094729d9115cd4302f',(#577),#63,.T.);
#579=FACE_OUTER_BOUND('',#533,.T.);
#580=ADVANCED_FACE('OSCAD_TOPO/3|face|f:e179b39cb7beccd33d40792fe0cf43bd|53fca23c04f7c05340057223601b3bed4d37dc132bcd2054f85d2237db73baff',(#579),#68,.T.);
#581=FACE_OUTER_BOUND('',#538,.T.);
#582=ADVANCED_FACE('OSCAD_TOPO/3|face|f:d1163dccbf1b67e6d87e728472da58fa|97993e125f621f3299310cda0988d22c2d4921a60f94c4a66dbd2d53d29b874c',(#581),#73,.T.);
#583=FACE_OUTER_BOUND('',#543,.T.);
#584=ADVANCED_FACE('OSCAD_TOPO/3|face|f:add39537a77b9b45e5bc0154225c4670|4ea0ac332144181780d5792ce7269cb38e1e50ef01c29b60152250e78ac0a911',(#583),#78,.T.);
#585=FACE_OUTER_BOUND('',#548,.T.);
#586=ADVANCED_FACE('OSCAD_TOPO/3|face|f:d7a88d83b2e591abecf4b79a48c55ec3|273f68809a57436b0d0d98242072c8386efeace0251c2b9974a152210182f8ad',(#585),#83,.T.);
#587=FACE_OUTER_BOUND('',#558,.T.);
#588=ADVANCED_FACE('OSCAD_TOPO/3|face|f:dd2fa125edecaeacbed2fc9a7e05e35f|2d16a060f875e79fa8bea1e027449ec5f3f173bd773fd48ede9254a6e4b16e0d',(#587),#88,.T.);
#589=FACE_OUTER_BOUND('',#568,.T.);
#590=ADVANCED_FACE('OSCAD_TOPO/3|face|f:bb644b5fb898f0ae17aff0ae4f5e0e85|12295f2be229a535e59905a380770387a6e7de970eb50a283f90287791feb2c6',(#589),#93,.T.);
#591=CLOSED_SHELL('OSCAD_TOPO/3|shell|s:76a0b4069ab5c6cca2fa531e2e8110d4|ff4bceb5330ce70bb4b962242d1c5555a99f5902d22bdcad3f0030fed651cfb7',(#570,#572,#574,#576,#578,#580,#582,#584,#586,#588,#590));
#592=MANIFOLD_SOLID_BREP('OSCAD_TOPO/3|body|b:78821dfee1ec16dc8d9e418dbb0e6c6c|c6fea45b4a3cf28e434caede7dd462ffb3005fdcda4eded9cfa83097047eebb9',#591);
#593=(LENGTH_UNIT()NAMED_UNIT(*)SI_UNIT(.MILLI.,.METRE.));
#594=UNCERTAINTY_MEASURE_WITH_UNIT(LENGTH_MEASURE(9.99999999999999955E-8),#593,'distance_accuracy_value','');
#595=(GEOMETRIC_REPRESENTATION_CONTEXT(3)GLOBAL_UNCERTAINTY_ASSIGNED_CONTEXT((#594))GLOBAL_UNIT_ASSIGNED_CONTEXT((#593))REPRESENTATION_CONTEXT('','3D'));
#596=ADVANCED_BREP_SHAPE_REPRESENTATION('',(#592),#595);
#597=APPLICATION_CONTEXT('managed model based 3d engineering');
#598=PRODUCT_CONTEXT('',#597,'mechanical');
#599=PRODUCT('model','model','',(#598));
#600=PRODUCT_DEFINITION_FORMATION('1','',#599);
#601=PRODUCT_DEFINITION_CONTEXT('part definition',#597,'design');
#602=PRODUCT_DEFINITION('design','',#600,#601);
#603=PRODUCT_DEFINITION_SHAPE('','',#602);
#604=SHAPE_DEFINITION_REPRESENTATION(#603,#596);
ENDSEC;
END-ISO-10303-21;
