ISO-10303-21;
HEADER;
FILE_DESCRIPTION(('OpenSCAD Viewer retained AP242 B-rep'),'2;1');
FILE_NAME('model.step','',(''),(''),'OpenSCAD Viewer','OpenSCAD Viewer','');
FILE_SCHEMA(('AP242_MANAGED_MODEL_BASED_3D_ENGINEERING_MIM_LF'));
ENDSEC;
DATA;
#1=CARTESIAN_POINT('',(1.10000000000000000E1,-7.00000000000000000E0,3.50000000000000000E0));
#2=VERTEX_POINT('OSCAD_TOPO/3|vertex|v:f878fb8158fdf53d396d110473915b03|42318f43d33905d90dfb26901bbcdd19ff759ea8f8804059c6201bdec3ce999b',#1);
#3=CARTESIAN_POINT('',(1.10000000000000000E1,-6.50000000000000000E0,3.00000000000000000E0));
#4=VERTEX_POINT('OSCAD_TOPO/3|vertex|v:7879b21a0a29a80450e8db262f3d74c0|fddfb38d53b48cae4ca1a81460dc0477c5c32e719d754dd29aa4cf276cc4142c',#3);
#5=CARTESIAN_POINT('',(3.10000000000000000E1,-6.50000000000000000E0,3.00000000000000000E0));
#6=VERTEX_POINT('OSCAD_TOPO/3|vertex|v:1060b2335e93b5542e63e98bc0871d70|30516851de5f42828906f6bb1c0dee5334a79d13fa6111a84857614a681bf11f',#5);
#7=CARTESIAN_POINT('',(3.10000000000000000E1,-7.00000000000000000E0,3.50000000000000000E0));
#8=VERTEX_POINT('OSCAD_TOPO/3|vertex|v:9af60482f5f0d97b74111f02fa463637|b37bfaa78a96976fd28dc413b0dd6bf889aa16b577344061e756588f351dfb5d',#7);
#9=CARTESIAN_POINT('',(1.10000000000000000E1,3.30000000000000000E1,3.00000000000000000E0));
#10=VERTEX_POINT('OSCAD_TOPO/3|vertex|v:14953e6ea1ee1d9a6c273dfbef8428b5|3b96431385fa704494843c097ceac6a1ff979d23d4e51656b9d42ac7626720d3',#9);
#11=CARTESIAN_POINT('',(3.10000000000000000E1,3.30000000000000000E1,3.00000000000000000E0));
#12=VERTEX_POINT('OSCAD_TOPO/3|vertex|v:46d98c2dacfcb07ca88a02e3448e43fa|e65697d8144ccabc5474886e07d62c1ebd9bd7e10928e85ffd6c1c03cd17244a',#11);
#13=CARTESIAN_POINT('',(1.10000000000000000E1,3.30000000000000000E1,8.00000000000000000E0));
#14=VERTEX_POINT('OSCAD_TOPO/3|vertex|v:6621bb20349fffd4b3d865ca379ca109|d2715e7d061124e42d03b7bdd70c3bdd18bec6d50f8b46f3dd6ad52b5eaf77cd',#13);
#15=CARTESIAN_POINT('',(3.10000000000000000E1,3.30000000000000000E1,8.00000000000000000E0));
#16=VERTEX_POINT('OSCAD_TOPO/3|vertex|v:b9b44f05b51c8cf0cb7a80630d844215|dae66b63f0aa41eba9949058b14b3cf6800f0f1eb838516b810e11ebe2b9d381',#15);
#17=CARTESIAN_POINT('',(1.10000000000000000E1,-2.00000000000000000E0,8.00000000000000000E0));
#18=VERTEX_POINT('OSCAD_TOPO/3|vertex|v:5b56bacb4a35e94e050e1135ba79fd1f|95d1692b9547c6808ce7302ac29bc916c87a9738824605a73cdb7a0873570213',#17);
#19=CARTESIAN_POINT('',(3.10000000000000000E1,-2.00000000000000000E0,8.00000000000000000E0));
#20=VERTEX_POINT('OSCAD_TOPO/3|vertex|v:9324b6f1c108bec789273e633c9e06a5|a7ae530cef2ca742665523783ad9ea657a477495c68129f79c50db87dfc7609e',#19);
#21=CARTESIAN_POINT('',(1.10000000000000000E1,-2.00000000000000000E0,3.30000000000000000E1));
#22=VERTEX_POINT('OSCAD_TOPO/3|vertex|v:b8fca4fbd3072811bead05f319f1e494|c50a78ffa58d2dfa4cf4d999a20a6376891062e7a7a2c52be3faa7c743b13147',#21);
#23=CARTESIAN_POINT('',(3.10000000000000000E1,-2.00000000000000000E0,3.30000000000000000E1));
#24=VERTEX_POINT('OSCAD_TOPO/3|vertex|v:9ea02da8eae007a42bd733c89d10099b|2622738940378865d856f081b3e27942e5549dff44432182f9c1a1bcf2331d41',#23);
#25=CARTESIAN_POINT('',(1.10000000000000000E1,-7.00000000000000000E0,3.30000000000000000E1));
#26=VERTEX_POINT('OSCAD_TOPO/3|vertex|v:f01e77a09ba002ad803248d897a7c42b|c4bb89b4c29f0ecb83296387759ed9fb9edd5f852c80f5eda69c66b74504dd98',#25);
#27=CARTESIAN_POINT('',(3.10000000000000000E1,-7.00000000000000000E0,3.30000000000000000E1));
#28=VERTEX_POINT('OSCAD_TOPO/3|vertex|v:b4b1da85e3adf2c95687be108642a5e4|fb9f711c5aaf7c58c4d3e5430af962a49dfbc524e7fb4cbc26f55dea32d68868',#27);
#29=CARTESIAN_POINT('',(1.10000000000000000E1,-7.00000000000000000E0,3.50000000000000000E0));
#30=CARTESIAN_POINT('',(3.10000000000000000E1,-7.00000000000000000E0,3.50000000000000000E0));
#31=CARTESIAN_POINT('',(1.10000000000000000E1,-7.00000000000000000E0,3.00000000000000000E0));
#32=CARTESIAN_POINT('',(3.10000000000000000E1,-7.00000000000000000E0,3.00000000000000000E0));
#33=CARTESIAN_POINT('',(1.10000000000000000E1,-6.50000000000000000E0,3.00000000000000000E0));
#34=CARTESIAN_POINT('',(3.10000000000000000E1,-6.50000000000000000E0,3.00000000000000000E0));
#35=(BOUNDED_SURFACE()B_SPLINE_SURFACE(2,1,((#29,#30),(#31,#32),(#33,#34)),.UNSPECIFIED.,.F.,.F.,.F.)B_SPLINE_SURFACE_WITH_KNOTS((3,3),(2,2),(0.00000000000000000E0,1.00000000000000000E0),(0.00000000000000000E0,1.00000000000000000E0),.UNSPECIFIED.)GEOMETRIC_REPRESENTATION_ITEM()RATIONAL_B_SPLINE_SURFACE(((1.00000000000000000E0,1.00000000000000000E0),(7.07106781186547573E-1,7.07106781186547573E-1),(1.00000000000000000E0,1.00000000000000000E0)))REPRESENTATION_ITEM('')SURFACE());
#36=CARTESIAN_POINT('',(1.10000000000000000E1,-6.50000000000000000E0,3.00000000000000000E0));
#37=CARTESIAN_POINT('',(3.10000000000000000E1,-6.50000000000000000E0,3.00000000000000000E0));
#38=CARTESIAN_POINT('',(1.10000000000000000E1,3.30000000000000000E1,3.00000000000000000E0));
#39=CARTESIAN_POINT('',(3.10000000000000000E1,3.30000000000000000E1,3.00000000000000000E0));
#40=B_SPLINE_SURFACE_WITH_KNOTS('',1,1,((#36,#37),(#38,#39)),.UNSPECIFIED.,.F.,.F.,.F.,(2,2),(2,2),(0.00000000000000000E0,1.00000000000000000E0),(0.00000000000000000E0,1.00000000000000000E0),.UNSPECIFIED.);
#41=CARTESIAN_POINT('',(1.10000000000000000E1,3.30000000000000000E1,3.00000000000000000E0));
#42=CARTESIAN_POINT('',(3.10000000000000000E1,3.30000000000000000E1,3.00000000000000000E0));
#43=CARTESIAN_POINT('',(1.10000000000000000E1,3.30000000000000000E1,8.00000000000000000E0));
#44=CARTESIAN_POINT('',(3.10000000000000000E1,3.30000000000000000E1,8.00000000000000000E0));
#45=B_SPLINE_SURFACE_WITH_KNOTS('',1,1,((#41,#42),(#43,#44)),.UNSPECIFIED.,.F.,.F.,.F.,(2,2),(2,2),(0.00000000000000000E0,1.00000000000000000E0),(0.00000000000000000E0,1.00000000000000000E0),.UNSPECIFIED.);
#46=CARTESIAN_POINT('',(1.10000000000000000E1,3.30000000000000000E1,8.00000000000000000E0));
#47=CARTESIAN_POINT('',(3.10000000000000000E1,3.30000000000000000E1,8.00000000000000000E0));
#48=CARTESIAN_POINT('',(1.10000000000000000E1,-2.00000000000000000E0,8.00000000000000000E0));
#49=CARTESIAN_POINT('',(3.10000000000000000E1,-2.00000000000000000E0,8.00000000000000000E0));
#50=B_SPLINE_SURFACE_WITH_KNOTS('',1,1,((#46,#47),(#48,#49)),.UNSPECIFIED.,.F.,.F.,.F.,(2,2),(2,2),(0.00000000000000000E0,1.00000000000000000E0),(0.00000000000000000E0,1.00000000000000000E0),.UNSPECIFIED.);
#51=CARTESIAN_POINT('',(1.10000000000000000E1,-2.00000000000000000E0,8.00000000000000000E0));
#52=CARTESIAN_POINT('',(3.10000000000000000E1,-2.00000000000000000E0,8.00000000000000000E0));
#53=CARTESIAN_POINT('',(1.10000000000000000E1,-2.00000000000000000E0,3.30000000000000000E1));
#54=CARTESIAN_POINT('',(3.10000000000000000E1,-2.00000000000000000E0,3.30000000000000000E1));
#55=B_SPLINE_SURFACE_WITH_KNOTS('',1,1,((#51,#52),(#53,#54)),.UNSPECIFIED.,.F.,.F.,.F.,(2,2),(2,2),(0.00000000000000000E0,1.00000000000000000E0),(0.00000000000000000E0,1.00000000000000000E0),.UNSPECIFIED.);
#56=CARTESIAN_POINT('',(1.10000000000000000E1,-2.00000000000000000E0,3.30000000000000000E1));
#57=CARTESIAN_POINT('',(3.10000000000000000E1,-2.00000000000000000E0,3.30000000000000000E1));
#58=CARTESIAN_POINT('',(1.10000000000000000E1,-7.00000000000000000E0,3.30000000000000000E1));
#59=CARTESIAN_POINT('',(3.10000000000000000E1,-7.00000000000000000E0,3.30000000000000000E1));
#60=B_SPLINE_SURFACE_WITH_KNOTS('',1,1,((#56,#57),(#58,#59)),.UNSPECIFIED.,.F.,.F.,.F.,(2,2),(2,2),(0.00000000000000000E0,1.00000000000000000E0),(0.00000000000000000E0,1.00000000000000000E0),.UNSPECIFIED.);
#61=CARTESIAN_POINT('',(1.10000000000000000E1,-7.00000000000000000E0,3.30000000000000000E1));
#62=CARTESIAN_POINT('',(3.10000000000000000E1,-7.00000000000000000E0,3.30000000000000000E1));
#63=CARTESIAN_POINT('',(1.10000000000000000E1,-7.00000000000000000E0,3.50000000000000000E0));
#64=CARTESIAN_POINT('',(3.10000000000000000E1,-7.00000000000000000E0,3.50000000000000000E0));
#65=B_SPLINE_SURFACE_WITH_KNOTS('',1,1,((#61,#62),(#63,#64)),.UNSPECIFIED.,.F.,.F.,.F.,(2,2),(2,2),(0.00000000000000000E0,1.00000000000000000E0),(0.00000000000000000E0,1.00000000000000000E0),.UNSPECIFIED.);
#66=CARTESIAN_POINT('',(1.10000000000000000E1,-7.00000000000000000E0,3.00000000000000000E0));
#67=CARTESIAN_POINT('',(1.10000000000000000E1,3.30000000000000000E1,3.00000000000000000E0));
#68=CARTESIAN_POINT('',(1.10000000000000000E1,-7.00000000000000000E0,3.30000000000000000E1));
#69=CARTESIAN_POINT('',(1.10000000000000000E1,3.30000000000000000E1,3.30000000000000000E1));
#70=B_SPLINE_SURFACE_WITH_KNOTS('',1,1,((#66,#67),(#68,#69)),.UNSPECIFIED.,.F.,.F.,.F.,(2,2),(2,2),(0.00000000000000000E0,1.00000000000000000E0),(0.00000000000000000E0,1.00000000000000000E0),.UNSPECIFIED.);
#71=CARTESIAN_POINT('',(3.10000000000000000E1,-7.00000000000000000E0,3.30000000000000000E1));
#72=CARTESIAN_POINT('',(3.10000000000000000E1,3.30000000000000000E1,3.30000000000000000E1));
#73=CARTESIAN_POINT('',(3.10000000000000000E1,-7.00000000000000000E0,3.00000000000000000E0));
#74=CARTESIAN_POINT('',(3.10000000000000000E1,3.30000000000000000E1,3.00000000000000000E0));
#75=B_SPLINE_SURFACE_WITH_KNOTS('',1,1,((#71,#72),(#73,#74)),.UNSPECIFIED.,.F.,.F.,.F.,(2,2),(2,2),(0.00000000000000000E0,1.00000000000000000E0),(0.00000000000000000E0,1.00000000000000000E0),.UNSPECIFIED.);
#76=CARTESIAN_POINT('',(1.10000000000000000E1,-7.00000000000000000E0,3.50000000000000000E0));
#77=CARTESIAN_POINT('',(1.10000000000000000E1,-7.00000000000000000E0,3.00000000000000000E0));
#78=CARTESIAN_POINT('',(1.10000000000000000E1,-6.50000000000000000E0,3.00000000000000000E0));
#79=(BOUNDED_CURVE()B_SPLINE_CURVE(2,(#76,#77,#78),.UNSPECIFIED.,.F.,.F.)B_SPLINE_CURVE_WITH_KNOTS((3,3),(0.00000000000000000E0,1.00000000000000000E0),.UNSPECIFIED.)CURVE()GEOMETRIC_REPRESENTATION_ITEM()RATIONAL_B_SPLINE_CURVE((1.00000000000000000E0,7.07106781186547573E-1,1.00000000000000000E0))REPRESENTATION_ITEM(''));
#80=CARTESIAN_POINT('',(1.10000000000000000E1,-6.50000000000000000E0,3.00000000000000000E0));
#81=CARTESIAN_POINT('',(3.10000000000000000E1,-6.50000000000000000E0,3.00000000000000000E0));
#82=B_SPLINE_CURVE_WITH_KNOTS('',1,(#80,#81),.UNSPECIFIED.,.F.,.F.,(2,2),(0.00000000000000000E0,1.00000000000000000E0),.UNSPECIFIED.);
#83=CARTESIAN_POINT('',(3.10000000000000000E1,-7.00000000000000000E0,3.50000000000000000E0));
#84=CARTESIAN_POINT('',(3.10000000000000000E1,-7.00000000000000000E0,3.00000000000000000E0));
#85=CARTESIAN_POINT('',(3.10000000000000000E1,-6.50000000000000000E0,3.00000000000000000E0));
#86=(BOUNDED_CURVE()B_SPLINE_CURVE(2,(#83,#84,#85),.UNSPECIFIED.,.F.,.F.)B_SPLINE_CURVE_WITH_KNOTS((3,3),(0.00000000000000000E0,1.00000000000000000E0),.UNSPECIFIED.)CURVE()GEOMETRIC_REPRESENTATION_ITEM()RATIONAL_B_SPLINE_CURVE((1.00000000000000000E0,7.07106781186547573E-1,1.00000000000000000E0))REPRESENTATION_ITEM(''));
#87=CARTESIAN_POINT('',(1.10000000000000000E1,-7.00000000000000000E0,3.50000000000000000E0));
#88=CARTESIAN_POINT('',(3.10000000000000000E1,-7.00000000000000000E0,3.50000000000000000E0));
#89=B_SPLINE_CURVE_WITH_KNOTS('',1,(#87,#88),.UNSPECIFIED.,.F.,.F.,(2,2),(0.00000000000000000E0,1.00000000000000000E0),.UNSPECIFIED.);
#90=CARTESIAN_POINT('',(1.10000000000000000E1,-6.50000000000000000E0,3.00000000000000000E0));
#91=CARTESIAN_POINT('',(1.10000000000000000E1,3.30000000000000000E1,3.00000000000000000E0));
#92=B_SPLINE_CURVE_WITH_KNOTS('',1,(#90,#91),.UNSPECIFIED.,.F.,.F.,(2,2),(0.00000000000000000E0,1.00000000000000000E0),.UNSPECIFIED.);
#93=CARTESIAN_POINT('',(1.10000000000000000E1,3.30000000000000000E1,3.00000000000000000E0));
#94=CARTESIAN_POINT('',(3.10000000000000000E1,3.30000000000000000E1,3.00000000000000000E0));
#95=B_SPLINE_CURVE_WITH_KNOTS('',1,(#93,#94),.UNSPECIFIED.,.F.,.F.,(2,2),(0.00000000000000000E0,1.00000000000000000E0),.UNSPECIFIED.);
#96=CARTESIAN_POINT('',(3.10000000000000000E1,-6.50000000000000000E0,3.00000000000000000E0));
#97=CARTESIAN_POINT('',(3.10000000000000000E1,3.30000000000000000E1,3.00000000000000000E0));
#98=B_SPLINE_CURVE_WITH_KNOTS('',1,(#96,#97),.UNSPECIFIED.,.F.,.F.,(2,2),(0.00000000000000000E0,1.00000000000000000E0),.UNSPECIFIED.);
#99=CARTESIAN_POINT('',(1.10000000000000000E1,3.30000000000000000E1,3.00000000000000000E0));
#100=CARTESIAN_POINT('',(1.10000000000000000E1,3.30000000000000000E1,8.00000000000000000E0));
#101=B_SPLINE_CURVE_WITH_KNOTS('',1,(#99,#100),.UNSPECIFIED.,.F.,.F.,(2,2),(0.00000000000000000E0,1.00000000000000000E0),.UNSPECIFIED.);
#102=CARTESIAN_POINT('',(1.10000000000000000E1,3.30000000000000000E1,8.00000000000000000E0));
#103=CARTESIAN_POINT('',(3.10000000000000000E1,3.30000000000000000E1,8.00000000000000000E0));
#104=B_SPLINE_CURVE_WITH_KNOTS('',1,(#102,#103),.UNSPECIFIED.,.F.,.F.,(2,2),(0.00000000000000000E0,1.00000000000000000E0),.UNSPECIFIED.);
#105=CARTESIAN_POINT('',(3.10000000000000000E1,3.30000000000000000E1,3.00000000000000000E0));
#106=CARTESIAN_POINT('',(3.10000000000000000E1,3.30000000000000000E1,8.00000000000000000E0));
#107=B_SPLINE_CURVE_WITH_KNOTS('',1,(#105,#106),.UNSPECIFIED.,.F.,.F.,(2,2),(0.00000000000000000E0,1.00000000000000000E0),.UNSPECIFIED.);
#108=CARTESIAN_POINT('',(1.10000000000000000E1,3.30000000000000000E1,8.00000000000000000E0));
#109=CARTESIAN_POINT('',(1.10000000000000000E1,-2.00000000000000000E0,8.00000000000000000E0));
#110=B_SPLINE_CURVE_WITH_KNOTS('',1,(#108,#109),.UNSPECIFIED.,.F.,.F.,(2,2),(0.00000000000000000E0,1.00000000000000000E0),.UNSPECIFIED.);
#111=CARTESIAN_POINT('',(1.10000000000000000E1,-2.00000000000000000E0,8.00000000000000000E0));
#112=CARTESIAN_POINT('',(3.10000000000000000E1,-2.00000000000000000E0,8.00000000000000000E0));
#113=B_SPLINE_CURVE_WITH_KNOTS('',1,(#111,#112),.UNSPECIFIED.,.F.,.F.,(2,2),(0.00000000000000000E0,1.00000000000000000E0),.UNSPECIFIED.);
#114=CARTESIAN_POINT('',(3.10000000000000000E1,3.30000000000000000E1,8.00000000000000000E0));
#115=CARTESIAN_POINT('',(3.10000000000000000E1,-2.00000000000000000E0,8.00000000000000000E0));
#116=B_SPLINE_CURVE_WITH_KNOTS('',1,(#114,#115),.UNSPECIFIED.,.F.,.F.,(2,2),(0.00000000000000000E0,1.00000000000000000E0),.UNSPECIFIED.);
#117=CARTESIAN_POINT('',(1.10000000000000000E1,-2.00000000000000000E0,8.00000000000000000E0));
#118=CARTESIAN_POINT('',(1.10000000000000000E1,-2.00000000000000000E0,3.30000000000000000E1));
#119=B_SPLINE_CURVE_WITH_KNOTS('',1,(#117,#118),.UNSPECIFIED.,.F.,.F.,(2,2),(0.00000000000000000E0,1.00000000000000000E0),.UNSPECIFIED.);
#120=CARTESIAN_POINT('',(1.10000000000000000E1,-2.00000000000000000E0,3.30000000000000000E1));
#121=CARTESIAN_POINT('',(3.10000000000000000E1,-2.00000000000000000E0,3.30000000000000000E1));
#122=B_SPLINE_CURVE_WITH_KNOTS('',1,(#120,#121),.UNSPECIFIED.,.F.,.F.,(2,2),(0.00000000000000000E0,1.00000000000000000E0),.UNSPECIFIED.);
#123=CARTESIAN_POINT('',(3.10000000000000000E1,-2.00000000000000000E0,8.00000000000000000E0));
#124=CARTESIAN_POINT('',(3.10000000000000000E1,-2.00000000000000000E0,3.30000000000000000E1));
#125=B_SPLINE_CURVE_WITH_KNOTS('',1,(#123,#124),.UNSPECIFIED.,.F.,.F.,(2,2),(0.00000000000000000E0,1.00000000000000000E0),.UNSPECIFIED.);
#126=CARTESIAN_POINT('',(1.10000000000000000E1,-2.00000000000000000E0,3.30000000000000000E1));
#127=CARTESIAN_POINT('',(1.10000000000000000E1,-7.00000000000000000E0,3.30000000000000000E1));
#128=B_SPLINE_CURVE_WITH_KNOTS('',1,(#126,#127),.UNSPECIFIED.,.F.,.F.,(2,2),(0.00000000000000000E0,1.00000000000000000E0),.UNSPECIFIED.);
#129=CARTESIAN_POINT('',(1.10000000000000000E1,-7.00000000000000000E0,3.30000000000000000E1));
#130=CARTESIAN_POINT('',(3.10000000000000000E1,-7.00000000000000000E0,3.30000000000000000E1));
#131=B_SPLINE_CURVE_WITH_KNOTS('',1,(#129,#130),.UNSPECIFIED.,.F.,.F.,(2,2),(0.00000000000000000E0,1.00000000000000000E0),.UNSPECIFIED.);
#132=CARTESIAN_POINT('',(3.10000000000000000E1,-2.00000000000000000E0,3.30000000000000000E1));
#133=CARTESIAN_POINT('',(3.10000000000000000E1,-7.00000000000000000E0,3.30000000000000000E1));
#134=B_SPLINE_CURVE_WITH_KNOTS('',1,(#132,#133),.UNSPECIFIED.,.F.,.F.,(2,2),(0.00000000000000000E0,1.00000000000000000E0),.UNSPECIFIED.);
#135=CARTESIAN_POINT('',(1.10000000000000000E1,-7.00000000000000000E0,3.30000000000000000E1));
#136=CARTESIAN_POINT('',(1.10000000000000000E1,-7.00000000000000000E0,3.50000000000000000E0));
#137=B_SPLINE_CURVE_WITH_KNOTS('',1,(#135,#136),.UNSPECIFIED.,.F.,.F.,(2,2),(0.00000000000000000E0,1.00000000000000000E0),.UNSPECIFIED.);
#138=CARTESIAN_POINT('',(3.10000000000000000E1,-7.00000000000000000E0,3.30000000000000000E1));
#139=CARTESIAN_POINT('',(3.10000000000000000E1,-7.00000000000000000E0,3.50000000000000000E0));
#140=B_SPLINE_CURVE_WITH_KNOTS('',1,(#138,#139),.UNSPECIFIED.,.F.,.F.,(2,2),(0.00000000000000000E0,1.00000000000000000E0),.UNSPECIFIED.);
#141=(GEOMETRIC_REPRESENTATION_CONTEXT(2)REPRESENTATION_CONTEXT('','2D'));
#142=CARTESIAN_POINT('',(0.00000000000000000E0,0.00000000000000000E0));
#143=CARTESIAN_POINT('',(1.00000000000000000E0,0.00000000000000000E0));
#144=B_SPLINE_CURVE_WITH_KNOTS('',1,(#142,#143),.UNSPECIFIED.,.F.,.F.,(2,2),(0.00000000000000000E0,1.00000000000000000E0),.UNSPECIFIED.);
#145=DEFINITIONAL_REPRESENTATION('',(#144),#141);
#146=PCURVE('',#35,#145);
#147=CARTESIAN_POINT('',(1.00000000000000000E0,0.00000000000000000E0));
#148=CARTESIAN_POINT('',(1.00000000000000000E0,1.00000000000000000E0));
#149=B_SPLINE_CURVE_WITH_KNOTS('',1,(#147,#148),.UNSPECIFIED.,.F.,.F.,(2,2),(0.00000000000000000E0,1.00000000000000000E0),.UNSPECIFIED.);
#150=DEFINITIONAL_REPRESENTATION('',(#149),#141);
#151=PCURVE('',#35,#150);
#152=CARTESIAN_POINT('',(1.00000000000000000E0,1.00000000000000000E0));
#153=CARTESIAN_POINT('',(0.00000000000000000E0,1.00000000000000000E0));
#154=B_SPLINE_CURVE_WITH_KNOTS('',1,(#152,#153),.UNSPECIFIED.,.F.,.F.,(2,2),(0.00000000000000000E0,1.00000000000000000E0),.UNSPECIFIED.);
#155=DEFINITIONAL_REPRESENTATION('',(#154),#141);
#156=PCURVE('',#35,#155);
#157=CARTESIAN_POINT('',(0.00000000000000000E0,1.00000000000000000E0));
#158=CARTESIAN_POINT('',(0.00000000000000000E0,0.00000000000000000E0));
#159=B_SPLINE_CURVE_WITH_KNOTS('',1,(#157,#158),.UNSPECIFIED.,.F.,.F.,(2,2),(0.00000000000000000E0,1.00000000000000000E0),.UNSPECIFIED.);
#160=DEFINITIONAL_REPRESENTATION('',(#159),#141);
#161=PCURVE('',#35,#160);
#162=CARTESIAN_POINT('',(0.00000000000000000E0,0.00000000000000000E0));
#163=CARTESIAN_POINT('',(1.00000000000000000E0,0.00000000000000000E0));
#164=B_SPLINE_CURVE_WITH_KNOTS('',1,(#162,#163),.UNSPECIFIED.,.F.,.F.,(2,2),(0.00000000000000000E0,1.00000000000000000E0),.UNSPECIFIED.);
#165=DEFINITIONAL_REPRESENTATION('',(#164),#141);
#166=PCURVE('',#40,#165);
#167=CARTESIAN_POINT('',(1.00000000000000000E0,0.00000000000000000E0));
#168=CARTESIAN_POINT('',(1.00000000000000000E0,1.00000000000000000E0));
#169=B_SPLINE_CURVE_WITH_KNOTS('',1,(#167,#168),.UNSPECIFIED.,.F.,.F.,(2,2),(0.00000000000000000E0,1.00000000000000000E0),.UNSPECIFIED.);
#170=DEFINITIONAL_REPRESENTATION('',(#169),#141);
#171=PCURVE('',#40,#170);
#172=CARTESIAN_POINT('',(1.00000000000000000E0,1.00000000000000000E0));
#173=CARTESIAN_POINT('',(0.00000000000000000E0,1.00000000000000000E0));
#174=B_SPLINE_CURVE_WITH_KNOTS('',1,(#172,#173),.UNSPECIFIED.,.F.,.F.,(2,2),(0.00000000000000000E0,1.00000000000000000E0),.UNSPECIFIED.);
#175=DEFINITIONAL_REPRESENTATION('',(#174),#141);
#176=PCURVE('',#40,#175);
#177=CARTESIAN_POINT('',(0.00000000000000000E0,1.00000000000000000E0));
#178=CARTESIAN_POINT('',(0.00000000000000000E0,0.00000000000000000E0));
#179=B_SPLINE_CURVE_WITH_KNOTS('',1,(#177,#178),.UNSPECIFIED.,.F.,.F.,(2,2),(0.00000000000000000E0,1.00000000000000000E0),.UNSPECIFIED.);
#180=DEFINITIONAL_REPRESENTATION('',(#179),#141);
#181=PCURVE('',#40,#180);
#182=CARTESIAN_POINT('',(0.00000000000000000E0,0.00000000000000000E0));
#183=CARTESIAN_POINT('',(1.00000000000000000E0,0.00000000000000000E0));
#184=B_SPLINE_CURVE_WITH_KNOTS('',1,(#182,#183),.UNSPECIFIED.,.F.,.F.,(2,2),(0.00000000000000000E0,1.00000000000000000E0),.UNSPECIFIED.);
#185=DEFINITIONAL_REPRESENTATION('',(#184),#141);
#186=PCURVE('',#45,#185);
#187=CARTESIAN_POINT('',(1.00000000000000000E0,0.00000000000000000E0));
#188=CARTESIAN_POINT('',(1.00000000000000000E0,1.00000000000000000E0));
#189=B_SPLINE_CURVE_WITH_KNOTS('',1,(#187,#188),.UNSPECIFIED.,.F.,.F.,(2,2),(0.00000000000000000E0,1.00000000000000000E0),.UNSPECIFIED.);
#190=DEFINITIONAL_REPRESENTATION('',(#189),#141);
#191=PCURVE('',#45,#190);
#192=CARTESIAN_POINT('',(1.00000000000000000E0,1.00000000000000000E0));
#193=CARTESIAN_POINT('',(0.00000000000000000E0,1.00000000000000000E0));
#194=B_SPLINE_CURVE_WITH_KNOTS('',1,(#192,#193),.UNSPECIFIED.,.F.,.F.,(2,2),(0.00000000000000000E0,1.00000000000000000E0),.UNSPECIFIED.);
#195=DEFINITIONAL_REPRESENTATION('',(#194),#141);
#196=PCURVE('',#45,#195);
#197=CARTESIAN_POINT('',(0.00000000000000000E0,1.00000000000000000E0));
#198=CARTESIAN_POINT('',(0.00000000000000000E0,0.00000000000000000E0));
#199=B_SPLINE_CURVE_WITH_KNOTS('',1,(#197,#198),.UNSPECIFIED.,.F.,.F.,(2,2),(0.00000000000000000E0,1.00000000000000000E0),.UNSPECIFIED.);
#200=DEFINITIONAL_REPRESENTATION('',(#199),#141);
#201=PCURVE('',#45,#200);
#202=CARTESIAN_POINT('',(0.00000000000000000E0,0.00000000000000000E0));
#203=CARTESIAN_POINT('',(1.00000000000000000E0,0.00000000000000000E0));
#204=B_SPLINE_CURVE_WITH_KNOTS('',1,(#202,#203),.UNSPECIFIED.,.F.,.F.,(2,2),(0.00000000000000000E0,1.00000000000000000E0),.UNSPECIFIED.);
#205=DEFINITIONAL_REPRESENTATION('',(#204),#141);
#206=PCURVE('',#50,#205);
#207=CARTESIAN_POINT('',(1.00000000000000000E0,0.00000000000000000E0));
#208=CARTESIAN_POINT('',(1.00000000000000000E0,1.00000000000000000E0));
#209=B_SPLINE_CURVE_WITH_KNOTS('',1,(#207,#208),.UNSPECIFIED.,.F.,.F.,(2,2),(0.00000000000000000E0,1.00000000000000000E0),.UNSPECIFIED.);
#210=DEFINITIONAL_REPRESENTATION('',(#209),#141);
#211=PCURVE('',#50,#210);
#212=CARTESIAN_POINT('',(1.00000000000000000E0,1.00000000000000000E0));
#213=CARTESIAN_POINT('',(0.00000000000000000E0,1.00000000000000000E0));
#214=B_SPLINE_CURVE_WITH_KNOTS('',1,(#212,#213),.UNSPECIFIED.,.F.,.F.,(2,2),(0.00000000000000000E0,1.00000000000000000E0),.UNSPECIFIED.);
#215=DEFINITIONAL_REPRESENTATION('',(#214),#141);
#216=PCURVE('',#50,#215);
#217=CARTESIAN_POINT('',(0.00000000000000000E0,1.00000000000000000E0));
#218=CARTESIAN_POINT('',(0.00000000000000000E0,0.00000000000000000E0));
#219=B_SPLINE_CURVE_WITH_KNOTS('',1,(#217,#218),.UNSPECIFIED.,.F.,.F.,(2,2),(0.00000000000000000E0,1.00000000000000000E0),.UNSPECIFIED.);
#220=DEFINITIONAL_REPRESENTATION('',(#219),#141);
#221=PCURVE('',#50,#220);
#222=CARTESIAN_POINT('',(0.00000000000000000E0,0.00000000000000000E0));
#223=CARTESIAN_POINT('',(1.00000000000000000E0,0.00000000000000000E0));
#224=B_SPLINE_CURVE_WITH_KNOTS('',1,(#222,#223),.UNSPECIFIED.,.F.,.F.,(2,2),(0.00000000000000000E0,1.00000000000000000E0),.UNSPECIFIED.);
#225=DEFINITIONAL_REPRESENTATION('',(#224),#141);
#226=PCURVE('',#55,#225);
#227=CARTESIAN_POINT('',(1.00000000000000000E0,0.00000000000000000E0));
#228=CARTESIAN_POINT('',(1.00000000000000000E0,1.00000000000000000E0));
#229=B_SPLINE_CURVE_WITH_KNOTS('',1,(#227,#228),.UNSPECIFIED.,.F.,.F.,(2,2),(0.00000000000000000E0,1.00000000000000000E0),.UNSPECIFIED.);
#230=DEFINITIONAL_REPRESENTATION('',(#229),#141);
#231=PCURVE('',#55,#230);
#232=CARTESIAN_POINT('',(1.00000000000000000E0,1.00000000000000000E0));
#233=CARTESIAN_POINT('',(0.00000000000000000E0,1.00000000000000000E0));
#234=B_SPLINE_CURVE_WITH_KNOTS('',1,(#232,#233),.UNSPECIFIED.,.F.,.F.,(2,2),(0.00000000000000000E0,1.00000000000000000E0),.UNSPECIFIED.);
#235=DEFINITIONAL_REPRESENTATION('',(#234),#141);
#236=PCURVE('',#55,#235);
#237=CARTESIAN_POINT('',(0.00000000000000000E0,1.00000000000000000E0));
#238=CARTESIAN_POINT('',(0.00000000000000000E0,0.00000000000000000E0));
#239=B_SPLINE_CURVE_WITH_KNOTS('',1,(#237,#238),.UNSPECIFIED.,.F.,.F.,(2,2),(0.00000000000000000E0,1.00000000000000000E0),.UNSPECIFIED.);
#240=DEFINITIONAL_REPRESENTATION('',(#239),#141);
#241=PCURVE('',#55,#240);
#242=CARTESIAN_POINT('',(0.00000000000000000E0,0.00000000000000000E0));
#243=CARTESIAN_POINT('',(1.00000000000000000E0,0.00000000000000000E0));
#244=B_SPLINE_CURVE_WITH_KNOTS('',1,(#242,#243),.UNSPECIFIED.,.F.,.F.,(2,2),(0.00000000000000000E0,1.00000000000000000E0),.UNSPECIFIED.);
#245=DEFINITIONAL_REPRESENTATION('',(#244),#141);
#246=PCURVE('',#60,#245);
#247=CARTESIAN_POINT('',(1.00000000000000000E0,0.00000000000000000E0));
#248=CARTESIAN_POINT('',(1.00000000000000000E0,1.00000000000000000E0));
#249=B_SPLINE_CURVE_WITH_KNOTS('',1,(#247,#248),.UNSPECIFIED.,.F.,.F.,(2,2),(0.00000000000000000E0,1.00000000000000000E0),.UNSPECIFIED.);
#250=DEFINITIONAL_REPRESENTATION('',(#249),#141);
#251=PCURVE('',#60,#250);
#252=CARTESIAN_POINT('',(1.00000000000000000E0,1.00000000000000000E0));
#253=CARTESIAN_POINT('',(0.00000000000000000E0,1.00000000000000000E0));
#254=B_SPLINE_CURVE_WITH_KNOTS('',1,(#252,#253),.UNSPECIFIED.,.F.,.F.,(2,2),(0.00000000000000000E0,1.00000000000000000E0),.UNSPECIFIED.);
#255=DEFINITIONAL_REPRESENTATION('',(#254),#141);
#256=PCURVE('',#60,#255);
#257=CARTESIAN_POINT('',(0.00000000000000000E0,1.00000000000000000E0));
#258=CARTESIAN_POINT('',(0.00000000000000000E0,0.00000000000000000E0));
#259=B_SPLINE_CURVE_WITH_KNOTS('',1,(#257,#258),.UNSPECIFIED.,.F.,.F.,(2,2),(0.00000000000000000E0,1.00000000000000000E0),.UNSPECIFIED.);
#260=DEFINITIONAL_REPRESENTATION('',(#259),#141);
#261=PCURVE('',#60,#260);
#262=CARTESIAN_POINT('',(0.00000000000000000E0,0.00000000000000000E0));
#263=CARTESIAN_POINT('',(1.00000000000000000E0,0.00000000000000000E0));
#264=B_SPLINE_CURVE_WITH_KNOTS('',1,(#262,#263),.UNSPECIFIED.,.F.,.F.,(2,2),(0.00000000000000000E0,1.00000000000000000E0),.UNSPECIFIED.);
#265=DEFINITIONAL_REPRESENTATION('',(#264),#141);
#266=PCURVE('',#65,#265);
#267=CARTESIAN_POINT('',(1.00000000000000000E0,0.00000000000000000E0));
#268=CARTESIAN_POINT('',(1.00000000000000000E0,1.00000000000000000E0));
#269=B_SPLINE_CURVE_WITH_KNOTS('',1,(#267,#268),.UNSPECIFIED.,.F.,.F.,(2,2),(0.00000000000000000E0,1.00000000000000000E0),.UNSPECIFIED.);
#270=DEFINITIONAL_REPRESENTATION('',(#269),#141);
#271=PCURVE('',#65,#270);
#272=CARTESIAN_POINT('',(1.00000000000000000E0,1.00000000000000000E0));
#273=CARTESIAN_POINT('',(0.00000000000000000E0,1.00000000000000000E0));
#274=B_SPLINE_CURVE_WITH_KNOTS('',1,(#272,#273),.UNSPECIFIED.,.F.,.F.,(2,2),(0.00000000000000000E0,1.00000000000000000E0),.UNSPECIFIED.);
#275=DEFINITIONAL_REPRESENTATION('',(#274),#141);
#276=PCURVE('',#65,#275);
#277=CARTESIAN_POINT('',(0.00000000000000000E0,1.00000000000000000E0));
#278=CARTESIAN_POINT('',(0.00000000000000000E0,0.00000000000000000E0));
#279=B_SPLINE_CURVE_WITH_KNOTS('',1,(#277,#278),.UNSPECIFIED.,.F.,.F.,(2,2),(0.00000000000000000E0,1.00000000000000000E0),.UNSPECIFIED.);
#280=DEFINITIONAL_REPRESENTATION('',(#279),#141);
#281=PCURVE('',#65,#280);
#282=CARTESIAN_POINT('',(1.66666666666667185E-2,0.00000000000000000E0));
#283=CARTESIAN_POINT('',(1.00000000000000000E0,0.00000000000000000E0));
#284=B_SPLINE_CURVE_WITH_KNOTS('',1,(#282,#283),.UNSPECIFIED.,.F.,.F.,(2,2),(0.00000000000000000E0,1.00000000000000000E0),.UNSPECIFIED.);
#285=DEFINITIONAL_REPRESENTATION('',(#284),#141);
#286=PCURVE('',#70,#285);
#287=CARTESIAN_POINT('',(1.00000000000000000E0,0.00000000000000000E0));
#288=CARTESIAN_POINT('',(1.00000000000000000E0,1.25000000000000000E-1));
#289=B_SPLINE_CURVE_WITH_KNOTS('',1,(#287,#288),.UNSPECIFIED.,.F.,.F.,(2,2),(0.00000000000000000E0,1.00000000000000000E0),.UNSPECIFIED.);
#290=DEFINITIONAL_REPRESENTATION('',(#289),#141);
#291=PCURVE('',#70,#290);
#292=CARTESIAN_POINT('',(1.00000000000000000E0,1.25000000000000000E-1));
#293=CARTESIAN_POINT('',(1.66666666666666630E-1,1.25000000000000000E-1));
#294=B_SPLINE_CURVE_WITH_KNOTS('',1,(#292,#293),.UNSPECIFIED.,.F.,.F.,(2,2),(0.00000000000000000E0,1.00000000000000000E0),.UNSPECIFIED.);
#295=DEFINITIONAL_REPRESENTATION('',(#294),#141);
#296=PCURVE('',#70,#295);
#297=CARTESIAN_POINT('',(1.66666666666666630E-1,1.25000000000000000E-1));
#298=CARTESIAN_POINT('',(1.66666666666666630E-1,1.00000000000000000E0));
#299=B_SPLINE_CURVE_WITH_KNOTS('',1,(#297,#298),.UNSPECIFIED.,.F.,.F.,(2,2),(0.00000000000000000E0,1.00000000000000000E0),.UNSPECIFIED.);
#300=DEFINITIONAL_REPRESENTATION('',(#299),#141);
#301=PCURVE('',#70,#300);
#302=CARTESIAN_POINT('',(1.66666666666666630E-1,1.00000000000000000E0));
#303=CARTESIAN_POINT('',(0.00000000000000000E0,1.00000000000000000E0));
#304=B_SPLINE_CURVE_WITH_KNOTS('',1,(#302,#303),.UNSPECIFIED.,.F.,.F.,(2,2),(0.00000000000000000E0,1.00000000000000000E0),.UNSPECIFIED.);
#305=DEFINITIONAL_REPRESENTATION('',(#304),#141);
#306=PCURVE('',#70,#305);
#307=CARTESIAN_POINT('',(0.00000000000000000E0,1.00000000000000000E0));
#308=CARTESIAN_POINT('',(0.00000000000000000E0,1.25000000000000007E-2));
#309=B_SPLINE_CURVE_WITH_KNOTS('',1,(#307,#308),.UNSPECIFIED.,.F.,.F.,(2,2),(0.00000000000000000E0,1.00000000000000000E0),.UNSPECIFIED.);
#310=DEFINITIONAL_REPRESENTATION('',(#309),#141);
#311=PCURVE('',#70,#310);
#312=CARTESIAN_POINT('',(0.00000000000000000E0,1.25000000000000007E-2));
#313=CARTESIAN_POINT('',(0.00000000000000000E0,0.00000000000000000E0));
#314=CARTESIAN_POINT('',(1.66666666666667185E-2,0.00000000000000000E0));
#315=(BOUNDED_CURVE()B_SPLINE_CURVE(2,(#312,#313,#314),.UNSPECIFIED.,.F.,.F.)B_SPLINE_CURVE_WITH_KNOTS((3,3),(0.00000000000000000E0,1.00000000000000000E0),.UNSPECIFIED.)CURVE()GEOMETRIC_REPRESENTATION_ITEM()RATIONAL_B_SPLINE_CURVE((1.00000000000000000E0,7.07106781186547573E-1,1.00000000000000000E0))REPRESENTATION_ITEM(''));
#316=DEFINITIONAL_REPRESENTATION('',(#315),#141);
#317=PCURVE('',#70,#316);
#318=CARTESIAN_POINT('',(9.83333333333333282E-1,0.00000000000000000E0));
#319=CARTESIAN_POINT('',(1.00000000000000000E0,0.00000000000000000E0));
#320=CARTESIAN_POINT('',(1.00000000000000000E0,1.25000000000000007E-2));
#321=(BOUNDED_CURVE()B_SPLINE_CURVE(2,(#318,#319,#320),.UNSPECIFIED.,.F.,.F.)B_SPLINE_CURVE_WITH_KNOTS((3,3),(0.00000000000000000E0,1.00000000000000000E0),.UNSPECIFIED.)CURVE()GEOMETRIC_REPRESENTATION_ITEM()RATIONAL_B_SPLINE_CURVE((1.00000000000000000E0,7.07106781186547573E-1,1.00000000000000000E0))REPRESENTATION_ITEM(''));
#322=DEFINITIONAL_REPRESENTATION('',(#321),#141);
#323=PCURVE('',#75,#322);
#324=CARTESIAN_POINT('',(1.00000000000000000E0,1.25000000000000007E-2));
#325=CARTESIAN_POINT('',(1.00000000000000000E0,1.00000000000000000E0));
#326=B_SPLINE_CURVE_WITH_KNOTS('',1,(#324,#325),.UNSPECIFIED.,.F.,.F.,(2,2),(0.00000000000000000E0,1.00000000000000000E0),.UNSPECIFIED.);
#327=DEFINITIONAL_REPRESENTATION('',(#326),#141);
#328=PCURVE('',#75,#327);
#329=CARTESIAN_POINT('',(1.00000000000000000E0,1.00000000000000000E0));
#330=CARTESIAN_POINT('',(8.33333333333333370E-1,1.00000000000000000E0));
#331=B_SPLINE_CURVE_WITH_KNOTS('',1,(#329,#330),.UNSPECIFIED.,.F.,.F.,(2,2),(0.00000000000000000E0,1.00000000000000000E0),.UNSPECIFIED.);
#332=DEFINITIONAL_REPRESENTATION('',(#331),#141);
#333=PCURVE('',#75,#332);
#334=CARTESIAN_POINT('',(8.33333333333333370E-1,1.00000000000000000E0));
#335=CARTESIAN_POINT('',(8.33333333333333370E-1,1.25000000000000000E-1));
#336=B_SPLINE_CURVE_WITH_KNOTS('',1,(#334,#335),.UNSPECIFIED.,.F.,.F.,(2,2),(0.00000000000000000E0,1.00000000000000000E0),.UNSPECIFIED.);
#337=DEFINITIONAL_REPRESENTATION('',(#336),#141);
#338=PCURVE('',#75,#337);
#339=CARTESIAN_POINT('',(8.33333333333333370E-1,1.25000000000000000E-1));
#340=CARTESIAN_POINT('',(0.00000000000000000E0,1.25000000000000000E-1));
#341=B_SPLINE_CURVE_WITH_KNOTS('',1,(#339,#340),.UNSPECIFIED.,.F.,.F.,(2,2),(0.00000000000000000E0,1.00000000000000000E0),.UNSPECIFIED.);
#342=DEFINITIONAL_REPRESENTATION('',(#341),#141);
#343=PCURVE('',#75,#342);
#344=CARTESIAN_POINT('',(0.00000000000000000E0,1.25000000000000000E-1));
#345=CARTESIAN_POINT('',(0.00000000000000000E0,0.00000000000000000E0));
#346=B_SPLINE_CURVE_WITH_KNOTS('',1,(#344,#345),.UNSPECIFIED.,.F.,.F.,(2,2),(0.00000000000000000E0,1.00000000000000000E0),.UNSPECIFIED.);
#347=DEFINITIONAL_REPRESENTATION('',(#346),#141);
#348=PCURVE('',#75,#347);
#349=CARTESIAN_POINT('',(0.00000000000000000E0,0.00000000000000000E0));
#350=CARTESIAN_POINT('',(9.83333333333333282E-1,0.00000000000000000E0));
#351=B_SPLINE_CURVE_WITH_KNOTS('',1,(#349,#350),.UNSPECIFIED.,.F.,.F.,(2,2),(0.00000000000000000E0,1.00000000000000000E0),.UNSPECIFIED.);
#352=DEFINITIONAL_REPRESENTATION('',(#351),#141);
#353=PCURVE('',#75,#352);
#354=SURFACE_CURVE('',#79,(#146,#317),.PCURVE_S1.);
#355=EDGE_CURVE('OSCAD_TOPO/3|edge|e:ae0150d68db683beab1c59733fd00e3d|7a00a691c8a997778a9e6d19ec306377b7390bb1ba27f12bfdeb05a0972296fc',#2,#4,#354,.T.);
#356=SURFACE_CURVE('',#82,(#151,#181),.PCURVE_S1.);
#357=EDGE_CURVE('OSCAD_TOPO/3|edge|e:7b7dcde3f7fae25d181827a6d2bc4eaf|8558faa819f156fd8d116430b450284f347267acae37fe768a07817791e8f6af',#4,#6,#356,.T.);
#358=SURFACE_CURVE('',#86,(#156,#323),.PCURVE_S1.);
#359=EDGE_CURVE('OSCAD_TOPO/3|edge|e:55d516b950a397f90049407c3308f9bc|28753976bdeb9b8f04913a9e8835bf7e4e105d0815a24fdf8ed6583eb646845b',#8,#6,#358,.T.);
#360=SURFACE_CURVE('',#89,(#161,#271),.PCURVE_S1.);
#361=EDGE_CURVE('OSCAD_TOPO/3|edge|e:465f88465de0ebbb1c0e9caa97cb03ba|7085ef00a09897ce0688c948995792f21c0af2edb6f3ebc4052a25cf97d90a43',#2,#8,#360,.T.);
#362=SURFACE_CURVE('',#92,(#166,#311),.PCURVE_S1.);
#363=EDGE_CURVE('OSCAD_TOPO/3|edge|e:08a6952f3efcfa5e49698326f7e1a94f|0217c3ef0b60ad3b771f898d0e711c80c1b32e55b9665b8a7f36c8f8b33d3e8e',#4,#10,#362,.T.);
#364=SURFACE_CURVE('',#95,(#171,#201),.PCURVE_S1.);
#365=EDGE_CURVE('OSCAD_TOPO/3|edge|e:e4304c8d1ec4c45505d975f9044f4d6f|6603126056ca21ce46d1d69222045f6951e875d70f11722680f80a065c030f0c',#10,#12,#364,.T.);
#366=SURFACE_CURVE('',#98,(#176,#328),.PCURVE_S1.);
#367=EDGE_CURVE('OSCAD_TOPO/3|edge|e:4e6dd21f6b7d4b62a127a8a85ca7d950|5682c4480449bb51facf9a18f61a2eb1f8973e2656225addb0c3844eec104156',#6,#12,#366,.T.);
#368=SURFACE_CURVE('',#101,(#186,#306),.PCURVE_S1.);
#369=EDGE_CURVE('OSCAD_TOPO/3|edge|e:1d3a736fa1e60832dd0e6d34397340c8|77e86cca669f256d0c3767b3f006781dfa75e0ead1a7cc443a6601dce65cc45d',#10,#14,#368,.T.);
#370=SURFACE_CURVE('',#104,(#191,#221),.PCURVE_S1.);
#371=EDGE_CURVE('OSCAD_TOPO/3|edge|e:7d01a49ff011c94924cdf5359587e566|bd79ee828d2a73bc28001a6177dfec527b6f528cb0df8a58b3246042e6207cae',#14,#16,#370,.T.);
#372=SURFACE_CURVE('',#107,(#196,#333),.PCURVE_S1.);
#373=EDGE_CURVE('OSCAD_TOPO/3|edge|e:c56b7cfd9aca6e8928f3792c5c9a7c2c|b66ef429893e266173cfbb5b03c2f64d351245e96397e354b864a88785c38c8d',#12,#16,#372,.T.);
#374=SURFACE_CURVE('',#110,(#206,#301),.PCURVE_S1.);
#375=EDGE_CURVE('OSCAD_TOPO/3|edge|e:01008088c31d6741a55142e338844edd|e629bf57a52f22b42c35e430ca6a86a88b3f756a81029c6084db169bfb2fd2c0',#14,#18,#374,.T.);
#376=SURFACE_CURVE('',#113,(#211,#241),.PCURVE_S1.);
#377=EDGE_CURVE('OSCAD_TOPO/3|edge|e:e00ede707614dc19c0576ba90f6b68de|6e5ec76a935998db09e03b85b4bc218a03cfde95cc1399767d62e99ee023292e',#18,#20,#376,.T.);
#378=SURFACE_CURVE('',#116,(#216,#338),.PCURVE_S1.);
#379=EDGE_CURVE('OSCAD_TOPO/3|edge|e:7e31f793d5e4f304d4fca242e898e7fd|2abe7e8486ea80075bcd2d6c847c69954232e5e7e8db1b5723bf26124b4cac25',#16,#20,#378,.T.);
#380=SURFACE_CURVE('',#119,(#226,#296),.PCURVE_S1.);
#381=EDGE_CURVE('OSCAD_TOPO/3|edge|e:bd7b4fa5a089acd482a934cccd1b0059|8c1187f15cc24ff1c9824c163d808bf3a86acff5c099ccc197c7d14021dac0d3',#18,#22,#380,.T.);
#382=SURFACE_CURVE('',#122,(#231,#261),.PCURVE_S1.);
#383=EDGE_CURVE('OSCAD_TOPO/3|edge|e:5ced863fb8db9cce5dfddbb68a6fe2cf|75a769e288b70162c7d58769b85e3befc45b1ba8ed9ecf7add9a2427a92d1cd3',#22,#24,#382,.T.);
#384=SURFACE_CURVE('',#125,(#236,#343),.PCURVE_S1.);
#385=EDGE_CURVE('OSCAD_TOPO/3|edge|e:55cd1dd7699b62170903ea24192bdbca|ae51b3b4c095fa44c6ff8a19ff80ca3f8458526d09c5d851199bdccdfc9da9c7',#20,#24,#384,.T.);
#386=SURFACE_CURVE('',#128,(#246,#291),.PCURVE_S1.);
#387=EDGE_CURVE('OSCAD_TOPO/3|edge|e:649334567bb72814a1b53cc7ca3ae4ea|634ca16a8c3085167e565f9d28f8646da37d6edd54b4c635870a64dd11e87ac5',#22,#26,#386,.T.);
#388=SURFACE_CURVE('',#131,(#251,#281),.PCURVE_S1.);
#389=EDGE_CURVE('OSCAD_TOPO/3|edge|e:1c00613714e5c5b063eed3ed82268b38|ff1cd40739ad4946c99b7d179d0a05ac38405b949401bac4fece2d28572d6603',#26,#28,#388,.T.);
#390=SURFACE_CURVE('',#134,(#256,#348),.PCURVE_S1.);
#391=EDGE_CURVE('OSCAD_TOPO/3|edge|e:f403a08756de48fb00f79beaed22fc7c|045d34f7dc6eec4b2655dd674744b611514c64198ec67207877a818d3ab2508e',#24,#28,#390,.T.);
#392=SURFACE_CURVE('',#137,(#266,#286),.PCURVE_S1.);
#393=EDGE_CURVE('OSCAD_TOPO/3|edge|e:b09a287f56a5fbb111650a31fc7ba01d|e451e24bf73859802686bfc998392090d9e897d8a48f93364fd3923bae147849',#26,#2,#392,.T.);
#394=SURFACE_CURVE('',#140,(#276,#353),.PCURVE_S1.);
#395=EDGE_CURVE('OSCAD_TOPO/3|edge|e:6e0bf9a27fdc67e467407f91a1c861c0|a3e059c43bb4a898b55bd4c4ba101b958427b412241f854bd92fdc0564463792',#28,#8,#394,.T.);
#396=ORIENTED_EDGE('',*,*,#355,.T.);
#397=ORIENTED_EDGE('',*,*,#357,.T.);
#398=ORIENTED_EDGE('',*,*,#359,.F.);
#399=ORIENTED_EDGE('',*,*,#361,.F.);
#400=EDGE_LOOP('OSCAD_TOPO/3|loop|l:e1c7e930b9bc5850d835d9038189a60a|8299b96832b597d24f22e9566380f8a6ce598a4416da808076306a428b844704',(#396,#397,#398,#399));
#401=ORIENTED_EDGE('',*,*,#363,.T.);
#402=ORIENTED_EDGE('',*,*,#365,.T.);
#403=ORIENTED_EDGE('',*,*,#367,.F.);
#404=ORIENTED_EDGE('',*,*,#357,.F.);
#405=EDGE_LOOP('OSCAD_TOPO/3|loop|l:b3ace429434e6f31915c72bf0f3777d1|80d8f96b19f50711a4b16814a503895d2c83e5ee9049210a84f8fdbfdd6e7a09',(#401,#402,#403,#404));
#406=ORIENTED_EDGE('',*,*,#369,.T.);
#407=ORIENTED_EDGE('',*,*,#371,.T.);
#408=ORIENTED_EDGE('',*,*,#373,.F.);
#409=ORIENTED_EDGE('',*,*,#365,.F.);
#410=EDGE_LOOP('OSCAD_TOPO/3|loop|l:65303d395bd61504b544fbc6058a65f2|960f7bac6f4c78cdb19a814cdadf24342aa61e108d0377ec490beb872aa4c612',(#406,#407,#408,#409));
#411=ORIENTED_EDGE('',*,*,#375,.T.);
#412=ORIENTED_EDGE('',*,*,#377,.T.);
#413=ORIENTED_EDGE('',*,*,#379,.F.);
#414=ORIENTED_EDGE('',*,*,#371,.F.);
#415=EDGE_LOOP('OSCAD_TOPO/3|loop|l:fddcaa55253ba7d45f9802d09a5240c4|8fe6cc76a69db7016659de1f66094d11dc2bb6837ff43a01d6d8e26f2f310ce2',(#411,#412,#413,#414));
#416=ORIENTED_EDGE('',*,*,#381,.T.);
#417=ORIENTED_EDGE('',*,*,#383,.T.);
#418=ORIENTED_EDGE('',*,*,#385,.F.);
#419=ORIENTED_EDGE('',*,*,#377,.F.);
#420=EDGE_LOOP('OSCAD_TOPO/3|loop|l:4ff7eb6a848c8fa68d55f9c1bf0220d5|06df24aeb868698807e40efc9fe6e4994df94ff8378dffffa443e75235cc4c1c',(#416,#417,#418,#419));
#421=ORIENTED_EDGE('',*,*,#387,.T.);
#422=ORIENTED_EDGE('',*,*,#389,.T.);
#423=ORIENTED_EDGE('',*,*,#391,.F.);
#424=ORIENTED_EDGE('',*,*,#383,.F.);
#425=EDGE_LOOP('OSCAD_TOPO/3|loop|l:e82df5864d9075e6e8d35e00eb5171ac|80b14261727ae22335afa67f2c64659756fda956f23c88fe29d96cd6a6512a27',(#421,#422,#423,#424));
#426=ORIENTED_EDGE('',*,*,#393,.T.);
#427=ORIENTED_EDGE('',*,*,#361,.T.);
#428=ORIENTED_EDGE('',*,*,#395,.F.);
#429=ORIENTED_EDGE('',*,*,#389,.F.);
#430=EDGE_LOOP('OSCAD_TOPO/3|loop|l:7e4827d049d6a681251dc82237e50abd|d81da1b32e4a372e9e4c3d60ac23d476588ad10e5ccb17b3959d6a4d8366806e',(#426,#427,#428,#429));
#431=ORIENTED_EDGE('',*,*,#393,.F.);
#432=ORIENTED_EDGE('',*,*,#387,.F.);
#433=ORIENTED_EDGE('',*,*,#381,.F.);
#434=ORIENTED_EDGE('',*,*,#375,.F.);
#435=ORIENTED_EDGE('',*,*,#369,.F.);
#436=ORIENTED_EDGE('',*,*,#363,.F.);
#437=ORIENTED_EDGE('',*,*,#355,.F.);
#438=EDGE_LOOP('OSCAD_TOPO/3|loop|l:a3bc4a50b614cee3409c5a266e94a207|475b95d3b91062506d7c449e8764e83e0f00f74adae38c4b1687d84b22b38132',(#431,#432,#433,#434,#435,#436,#437));
#439=ORIENTED_EDGE('',*,*,#359,.T.);
#440=ORIENTED_EDGE('',*,*,#367,.T.);
#441=ORIENTED_EDGE('',*,*,#373,.T.);
#442=ORIENTED_EDGE('',*,*,#379,.T.);
#443=ORIENTED_EDGE('',*,*,#385,.T.);
#444=ORIENTED_EDGE('',*,*,#391,.T.);
#445=ORIENTED_EDGE('',*,*,#395,.T.);
#446=EDGE_LOOP('OSCAD_TOPO/3|loop|l:3487141cf994a9f96f74c2b46b53159c|06f6d6c64c6df5cf2345f528c40edabd9bdc639b3c21ce55ad3c5632ec425438',(#439,#440,#441,#442,#443,#444,#445));
#447=FACE_OUTER_BOUND('',#400,.T.);
#448=ADVANCED_FACE('OSCAD_TOPO/3|face|f:89412061d5812acb62aac4da33eebb29|3ca6024a4356a56b6f65cff6ae03a6260b6c0de2a58ecd0cdf726cbab350ba30',(#447),#35,.T.);
#449=FACE_OUTER_BOUND('',#405,.T.);
#450=ADVANCED_FACE('OSCAD_TOPO/3|face|f:2a5bd76da96fa227936cf8ba89feb2cf|e0aa3c0a0de288c8756433d7a11fc912f3004660e1fd0f820e2776a54516fc82',(#449),#40,.T.);
#451=FACE_OUTER_BOUND('',#410,.T.);
#452=ADVANCED_FACE('OSCAD_TOPO/3|face|f:ce8c32c7fc7567db9bb9c7ec739043fa|46be5d2aca5a562c78e27baa3bfec3df9ff1ae95a3565ee5cd72c2eca471e957',(#451),#45,.T.);
#453=FACE_OUTER_BOUND('',#415,.T.);
#454=ADVANCED_FACE('OSCAD_TOPO/3|face|f:1de574d0919e534c13632a77a76c38c3|7a5223d72a4e18bb9e4a060ce2c9eaac5482cde09878c80d8234f6802072db72',(#453),#50,.T.);
#455=FACE_OUTER_BOUND('',#420,.T.);
#456=ADVANCED_FACE('OSCAD_TOPO/3|face|f:b85c6e18f9d8dfef02d546b91a85805c|0af9d64b9fa2d9db0a017073b086fae0d87216db6357c4d6839e4e4e78156091',(#455),#55,.T.);
#457=FACE_OUTER_BOUND('',#425,.T.);
#458=ADVANCED_FACE('OSCAD_TOPO/3|face|f:3a8087cc5318f37473076725412cdef3|194bb9c6585355b8683d200cbbcc7ab9e4b1207176fb2b434c512fbe18cb88db',(#457),#60,.T.);
#459=FACE_OUTER_BOUND('',#430,.T.);
#460=ADVANCED_FACE('OSCAD_TOPO/3|face|f:8509492f12b0b959fc8bbe26adb09469|f130b5c1ddab4294a123b835fff51c63d26439b9585237830812ec6f8da6d482',(#459),#65,.T.);
#461=FACE_OUTER_BOUND('',#438,.T.);
#462=ADVANCED_FACE('OSCAD_TOPO/3|face|f:048f2274bb869dbeb941c71cf0bf3309|831ac328a6eb238aa988a2e507029af34739c88566a1f747167ad7bdd970e6b8',(#461),#70,.T.);
#463=FACE_OUTER_BOUND('',#446,.T.);
#464=ADVANCED_FACE('OSCAD_TOPO/3|face|f:ad39e9305110d44ae6e30da16af1ff30|ebf8eb3c3d395fc3cefdda74b2eee4cbb808b3edc34ed16b0013034a6e4c161e',(#463),#75,.T.);
#465=CLOSED_SHELL('OSCAD_TOPO/3|shell|s:f6c0d7abe7720fb5eb928995dbd9b006|ab141b183cc9cd618428f8e9b22a3f3081cbe2ce73050eb26d1cb0b2c63a5f05',(#448,#450,#452,#454,#456,#458,#460,#462,#464));
#466=MANIFOLD_SOLID_BREP('OSCAD_TOPO/3|body|b:86a5daa944f5823163ace148193fbcda|191d2509b95406bba93df25be0bdf2eaf28a67be373412554ac6880aa07fec78',#465);
#467=(LENGTH_UNIT()NAMED_UNIT(*)SI_UNIT(.MILLI.,.METRE.));
#468=UNCERTAINTY_MEASURE_WITH_UNIT(LENGTH_MEASURE(9.99999999999999955E-8),#467,'distance_accuracy_value','');
#469=(GEOMETRIC_REPRESENTATION_CONTEXT(3)GLOBAL_UNCERTAINTY_ASSIGNED_CONTEXT((#468))GLOBAL_UNIT_ASSIGNED_CONTEXT((#467))REPRESENTATION_CONTEXT('','3D'));
#470=ADVANCED_BREP_SHAPE_REPRESENTATION('',(#466),#469);
#471=APPLICATION_CONTEXT('managed model based 3d engineering');
#472=PRODUCT_CONTEXT('',#471,'mechanical');
#473=PRODUCT('model','model','',(#472));
#474=PRODUCT_DEFINITION_FORMATION('1','',#473);
#475=PRODUCT_DEFINITION_CONTEXT('part definition',#471,'design');
#476=PRODUCT_DEFINITION('design','',#474,#475);
#477=PRODUCT_DEFINITION_SHAPE('','',#476);
#478=SHAPE_DEFINITION_REPRESENTATION(#477,#470);
ENDSEC;
END-ISO-10303-21;
