ISO-10303-21;
HEADER;
FILE_DESCRIPTION(('OpenSCAD Viewer retained AP242 B-rep'),'2;1');
FILE_NAME('model.step','',(''),(''),'OpenSCAD Viewer','OpenSCAD Viewer','');
FILE_SCHEMA(('AP242_MANAGED_MODEL_BASED_3D_ENGINEERING_MIM_LF'));
ENDSEC;
DATA;
#1=CARTESIAN_POINT('',(1.95999999999999979E1,-1.20000000000000151E0,0.00000000000000000E0));
#2=VERTEX_POINT('OSCAD_TOPO/3|vertex|v:426386b730be8bc4ebc8763e95e8c5c6|417dccf812ef1ceded82d9a0fb591bca7a488defd7ee285172099c33a5e2ca36',#1);
#3=CARTESIAN_POINT('',(1.95999999999999979E1,-1.20000000000000151E0,7.00000000000000000E0));
#4=VERTEX_POINT('OSCAD_TOPO/3|vertex|v:41ee10704073eeecf9324aca3002b52d|84e4482842f338d59eb12d191b17d9603e0c41435f60d6bd3845508983fba9f5',#3);
#5=CARTESIAN_POINT('',(2.25999999999999979E1,2.79999999999999849E0,0.00000000000000000E0));
#6=VERTEX_POINT('OSCAD_TOPO/3|vertex|v:7968187be074cdfa3ff963c5dfa93772|510eb09104e0e025415daf8787f0d64b09d2375127654241c3c6b50eb0a7a934',#5);
#7=CARTESIAN_POINT('',(2.25999999999999979E1,2.79999999999999849E0,7.00000000000000000E0));
#8=VERTEX_POINT('OSCAD_TOPO/3|vertex|v:14ef7e592e5cf4007aad707b59684f1a|5758ce7b43dffb5e5bf989da359465f9e76a9ff246e11de2052f7634eb54ea6a',#7);
#9=CARTESIAN_POINT('',(2.21999999999999993E1,5.59999999999999964E0,0.00000000000000000E0));
#10=VERTEX_POINT('OSCAD_TOPO/3|vertex|v:9806161ce237d969aec27a330b5fbcf2|29993ad6d9a4ba8be217d9b5867c7ae0b251c3103d1bb9a7c5fa79a42eb39b1f',#9);
#11=CARTESIAN_POINT('',(2.21999999999999993E1,5.59999999999999964E0,7.00000000000000000E0));
#12=VERTEX_POINT('OSCAD_TOPO/3|vertex|v:117fd64cd76e8aa83abe4d573e316bfc|833ef3a691d9717e9156626ce9938cdb0ddea9e255d4ee2da630f84eb0805f9b',#11);
#13=CARTESIAN_POINT('',(1.93999999999999986E1,5.20000000000000018E0,0.00000000000000000E0));
#14=VERTEX_POINT('OSCAD_TOPO/3|vertex|v:b8f33cfb2db6f14e0e1a73c34cdb82a6|393b078aa9d2205da722e04bbc7c3d79a01f5ef9014a544fbfc4818f676cf839',#13);
#15=CARTESIAN_POINT('',(1.93999999999999986E1,5.20000000000000018E0,7.00000000000000000E0));
#16=VERTEX_POINT('OSCAD_TOPO/3|vertex|v:06db519c0797133dc01f1365e09549ee|40f79c21fa391579f204570932904c57ed517e135651f5f759a28120b5507291',#15);
#17=CARTESIAN_POINT('',(1.63999999999999986E1,1.19999999999999996E0,0.00000000000000000E0));
#18=VERTEX_POINT('OSCAD_TOPO/3|vertex|v:d02ede5a79fd1c59de695bca4555cf8e|daaff22248469651656540c3f36b27f4877ebd856b43188db4a3c5f57680d077',#17);
#19=CARTESIAN_POINT('',(1.63999999999999986E1,1.19999999999999996E0,7.00000000000000000E0));
#20=VERTEX_POINT('OSCAD_TOPO/3|vertex|v:64b55549c55f034a9b103b13c31a4b07|428692e26389057859241ea74157c488cef34816d0b135646a76ac9b257f03f0',#19);
#21=CARTESIAN_POINT('',(1.68000000000000007E1,-1.59999999999999987E0,0.00000000000000000E0));
#22=VERTEX_POINT('OSCAD_TOPO/3|vertex|v:3f5ada03c19d3748724213d6f6572499|e094e623d8e0523270e2c1a6fdc4bf9cbcb49a29ed8a021bf4ebb74e4ef96bb7',#21);
#23=CARTESIAN_POINT('',(1.68000000000000007E1,-1.59999999999999987E0,7.00000000000000000E0));
#24=VERTEX_POINT('OSCAD_TOPO/3|vertex|v:bcf881eeaa3af23d31dc0f6750e76e6f|29e4aff57a89796b0e3decc08b01de3df78bb527223fd14594461db1326e9943',#23);
#25=CARTESIAN_POINT('',(1.95999999999999979E1,-1.20000000000000151E0,0.00000000000000000E0));
#26=CARTESIAN_POINT('',(1.95999999999999979E1,-1.20000000000000151E0,7.00000000000000000E0));
#27=CARTESIAN_POINT('',(2.25999999999999979E1,2.79999999999999849E0,0.00000000000000000E0));
#28=CARTESIAN_POINT('',(2.25999999999999979E1,2.79999999999999849E0,7.00000000000000000E0));
#29=B_SPLINE_SURFACE_WITH_KNOTS('',1,1,((#25,#26),(#27,#28)),.UNSPECIFIED.,.F.,.F.,.F.,(2,2),(2,2),(0.00000000000000000E0,1.00000000000000000E0),(0.00000000000000000E0,1.00000000000000000E0),.UNSPECIFIED.);
#30=CARTESIAN_POINT('',(2.25999999999999979E1,2.79999999999999849E0,0.00000000000000000E0));
#31=CARTESIAN_POINT('',(2.25999999999999979E1,2.79999999999999849E0,7.00000000000000000E0));
#32=CARTESIAN_POINT('',(2.38000000000000007E1,4.40000000000000036E0,0.00000000000000000E0));
#33=CARTESIAN_POINT('',(2.38000000000000007E1,4.40000000000000036E0,7.00000000000000000E0));
#34=CARTESIAN_POINT('',(2.21999999999999993E1,5.59999999999999964E0,0.00000000000000000E0));
#35=CARTESIAN_POINT('',(2.21999999999999993E1,5.59999999999999964E0,7.00000000000000000E0));
#36=(BOUNDED_SURFACE()B_SPLINE_SURFACE(2,1,((#30,#31),(#32,#33),(#34,#35)),.UNSPECIFIED.,.F.,.F.,.F.)B_SPLINE_SURFACE_WITH_KNOTS((3,3),(2,2),(0.00000000000000000E0,1.00000000000000000E0),(0.00000000000000000E0,1.00000000000000000E0),.UNSPECIFIED.)GEOMETRIC_REPRESENTATION_ITEM()RATIONAL_B_SPLINE_SURFACE(((1.00000000000000000E0,1.00000000000000000E0),(7.07106781186547573E-1,7.07106781186547573E-1),(1.00000000000000000E0,1.00000000000000000E0)))REPRESENTATION_ITEM('')SURFACE());
#37=CARTESIAN_POINT('',(2.21999999999999993E1,5.59999999999999964E0,0.00000000000000000E0));
#38=CARTESIAN_POINT('',(2.21999999999999993E1,5.59999999999999964E0,7.00000000000000000E0));
#39=CARTESIAN_POINT('',(2.06000000000000014E1,6.79999999999999982E0,0.00000000000000000E0));
#40=CARTESIAN_POINT('',(2.06000000000000014E1,6.79999999999999982E0,7.00000000000000000E0));
#41=CARTESIAN_POINT('',(1.93999999999999986E1,5.20000000000000018E0,0.00000000000000000E0));
#42=CARTESIAN_POINT('',(1.93999999999999986E1,5.20000000000000018E0,7.00000000000000000E0));
#43=(BOUNDED_SURFACE()B_SPLINE_SURFACE(2,1,((#37,#38),(#39,#40),(#41,#42)),.UNSPECIFIED.,.F.,.F.,.F.)B_SPLINE_SURFACE_WITH_KNOTS((3,3),(2,2),(0.00000000000000000E0,1.00000000000000000E0),(0.00000000000000000E0,1.00000000000000000E0),.UNSPECIFIED.)GEOMETRIC_REPRESENTATION_ITEM()RATIONAL_B_SPLINE_SURFACE(((1.00000000000000000E0,1.00000000000000000E0),(7.07106781186547573E-1,7.07106781186547573E-1),(1.00000000000000000E0,1.00000000000000000E0)))REPRESENTATION_ITEM('')SURFACE());
#44=CARTESIAN_POINT('',(1.93999999999999986E1,5.20000000000000018E0,0.00000000000000000E0));
#45=CARTESIAN_POINT('',(1.93999999999999986E1,5.20000000000000018E0,7.00000000000000000E0));
#46=CARTESIAN_POINT('',(1.63999999999999986E1,1.19999999999999996E0,0.00000000000000000E0));
#47=CARTESIAN_POINT('',(1.63999999999999986E1,1.19999999999999996E0,7.00000000000000000E0));
#48=B_SPLINE_SURFACE_WITH_KNOTS('',1,1,((#44,#45),(#46,#47)),.UNSPECIFIED.,.F.,.F.,.F.,(2,2),(2,2),(0.00000000000000000E0,1.00000000000000000E0),(0.00000000000000000E0,1.00000000000000000E0),.UNSPECIFIED.);
#49=CARTESIAN_POINT('',(1.63999999999999986E1,1.19999999999999996E0,0.00000000000000000E0));
#50=CARTESIAN_POINT('',(1.63999999999999986E1,1.19999999999999996E0,7.00000000000000000E0));
#51=CARTESIAN_POINT('',(1.51999999999999993E1,-3.99999999999999911E-1,0.00000000000000000E0));
#52=CARTESIAN_POINT('',(1.51999999999999993E1,-3.99999999999999911E-1,7.00000000000000000E0));
#53=CARTESIAN_POINT('',(1.68000000000000007E1,-1.59999999999999987E0,0.00000000000000000E0));
#54=CARTESIAN_POINT('',(1.68000000000000007E1,-1.59999999999999987E0,7.00000000000000000E0));
#55=(BOUNDED_SURFACE()B_SPLINE_SURFACE(2,1,((#49,#50),(#51,#52),(#53,#54)),.UNSPECIFIED.,.F.,.F.,.F.)B_SPLINE_SURFACE_WITH_KNOTS((3,3),(2,2),(0.00000000000000000E0,1.00000000000000000E0),(0.00000000000000000E0,1.00000000000000000E0),.UNSPECIFIED.)GEOMETRIC_REPRESENTATION_ITEM()RATIONAL_B_SPLINE_SURFACE(((1.00000000000000000E0,1.00000000000000000E0),(7.07106781186547573E-1,7.07106781186547573E-1),(1.00000000000000000E0,1.00000000000000000E0)))REPRESENTATION_ITEM('')SURFACE());
#56=CARTESIAN_POINT('',(1.68000000000000007E1,-1.59999999999999987E0,0.00000000000000000E0));
#57=CARTESIAN_POINT('',(1.68000000000000007E1,-1.59999999999999987E0,7.00000000000000000E0));
#58=CARTESIAN_POINT('',(1.83999999999999986E1,-2.80000000000000027E0,0.00000000000000000E0));
#59=CARTESIAN_POINT('',(1.83999999999999986E1,-2.80000000000000027E0,7.00000000000000000E0));
#60=CARTESIAN_POINT('',(1.95999999999999979E1,-1.20000000000000151E0,0.00000000000000000E0));
#61=CARTESIAN_POINT('',(1.95999999999999979E1,-1.20000000000000151E0,7.00000000000000000E0));
#62=(BOUNDED_SURFACE()B_SPLINE_SURFACE(2,1,((#56,#57),(#58,#59),(#60,#61)),.UNSPECIFIED.,.F.,.F.,.F.)B_SPLINE_SURFACE_WITH_KNOTS((3,3),(2,2),(0.00000000000000000E0,1.00000000000000000E0),(0.00000000000000000E0,1.00000000000000000E0),.UNSPECIFIED.)GEOMETRIC_REPRESENTATION_ITEM()RATIONAL_B_SPLINE_SURFACE(((1.00000000000000000E0,1.00000000000000000E0),(7.07106781186547573E-1,7.07106781186547573E-1),(1.00000000000000000E0,1.00000000000000000E0)))REPRESENTATION_ITEM('')SURFACE());
#63=CARTESIAN_POINT('',(2.38000000000000007E1,-2.80000000000000027E0,0.00000000000000000E0));
#64=CARTESIAN_POINT('',(2.38000000000000007E1,6.79999999999999982E0,0.00000000000000000E0));
#65=CARTESIAN_POINT('',(1.51999999999999993E1,-2.80000000000000027E0,0.00000000000000000E0));
#66=CARTESIAN_POINT('',(1.51999999999999993E1,6.79999999999999982E0,0.00000000000000000E0));
#67=B_SPLINE_SURFACE_WITH_KNOTS('',1,1,((#63,#64),(#65,#66)),.UNSPECIFIED.,.F.,.F.,.F.,(2,2),(2,2),(0.00000000000000000E0,1.00000000000000000E0),(0.00000000000000000E0,1.00000000000000000E0),.UNSPECIFIED.);
#68=CARTESIAN_POINT('',(1.51999999999999993E1,-2.80000000000000027E0,7.00000000000000000E0));
#69=CARTESIAN_POINT('',(1.51999999999999993E1,6.79999999999999982E0,7.00000000000000000E0));
#70=CARTESIAN_POINT('',(2.38000000000000007E1,-2.80000000000000027E0,7.00000000000000000E0));
#71=CARTESIAN_POINT('',(2.38000000000000007E1,6.79999999999999982E0,7.00000000000000000E0));
#72=B_SPLINE_SURFACE_WITH_KNOTS('',1,1,((#68,#69),(#70,#71)),.UNSPECIFIED.,.F.,.F.,.F.,(2,2),(2,2),(0.00000000000000000E0,1.00000000000000000E0),(0.00000000000000000E0,1.00000000000000000E0),.UNSPECIFIED.);
#73=CARTESIAN_POINT('',(1.95999999999999979E1,-1.20000000000000151E0,0.00000000000000000E0));
#74=CARTESIAN_POINT('',(2.25999999999999979E1,2.79999999999999849E0,0.00000000000000000E0));
#75=B_SPLINE_CURVE_WITH_KNOTS('',1,(#73,#74),.UNSPECIFIED.,.F.,.F.,(2,2),(0.00000000000000000E0,1.00000000000000000E0),.UNSPECIFIED.);
#76=CARTESIAN_POINT('',(1.95999999999999979E1,-1.20000000000000151E0,7.00000000000000000E0));
#77=CARTESIAN_POINT('',(2.25999999999999979E1,2.79999999999999849E0,7.00000000000000000E0));
#78=B_SPLINE_CURVE_WITH_KNOTS('',1,(#76,#77),.UNSPECIFIED.,.F.,.F.,(2,2),(0.00000000000000000E0,1.00000000000000000E0),.UNSPECIFIED.);
#79=CARTESIAN_POINT('',(1.95999999999999979E1,-1.20000000000000151E0,0.00000000000000000E0));
#80=CARTESIAN_POINT('',(1.95999999999999979E1,-1.20000000000000151E0,7.00000000000000000E0));
#81=B_SPLINE_CURVE_WITH_KNOTS('',1,(#79,#80),.UNSPECIFIED.,.F.,.F.,(2,2),(0.00000000000000000E0,1.00000000000000000E0),.UNSPECIFIED.);
#82=CARTESIAN_POINT('',(2.25999999999999979E1,2.79999999999999849E0,0.00000000000000000E0));
#83=CARTESIAN_POINT('',(2.38000000000000007E1,4.40000000000000036E0,0.00000000000000000E0));
#84=CARTESIAN_POINT('',(2.21999999999999993E1,5.59999999999999964E0,0.00000000000000000E0));
#85=(BOUNDED_CURVE()B_SPLINE_CURVE(2,(#82,#83,#84),.UNSPECIFIED.,.F.,.F.)B_SPLINE_CURVE_WITH_KNOTS((3,3),(0.00000000000000000E0,1.00000000000000000E0),.UNSPECIFIED.)CURVE()GEOMETRIC_REPRESENTATION_ITEM()RATIONAL_B_SPLINE_CURVE((1.00000000000000000E0,7.07106781186547573E-1,1.00000000000000000E0))REPRESENTATION_ITEM(''));
#86=CARTESIAN_POINT('',(2.25999999999999979E1,2.79999999999999849E0,7.00000000000000000E0));
#87=CARTESIAN_POINT('',(2.38000000000000007E1,4.40000000000000036E0,7.00000000000000000E0));
#88=CARTESIAN_POINT('',(2.21999999999999993E1,5.59999999999999964E0,7.00000000000000000E0));
#89=(BOUNDED_CURVE()B_SPLINE_CURVE(2,(#86,#87,#88),.UNSPECIFIED.,.F.,.F.)B_SPLINE_CURVE_WITH_KNOTS((3,3),(0.00000000000000000E0,1.00000000000000000E0),.UNSPECIFIED.)CURVE()GEOMETRIC_REPRESENTATION_ITEM()RATIONAL_B_SPLINE_CURVE((1.00000000000000000E0,7.07106781186547573E-1,1.00000000000000000E0))REPRESENTATION_ITEM(''));
#90=CARTESIAN_POINT('',(2.25999999999999979E1,2.79999999999999849E0,0.00000000000000000E0));
#91=CARTESIAN_POINT('',(2.25999999999999979E1,2.79999999999999849E0,7.00000000000000000E0));
#92=B_SPLINE_CURVE_WITH_KNOTS('',1,(#90,#91),.UNSPECIFIED.,.F.,.F.,(2,2),(0.00000000000000000E0,1.00000000000000000E0),.UNSPECIFIED.);
#93=CARTESIAN_POINT('',(2.21999999999999993E1,5.59999999999999964E0,0.00000000000000000E0));
#94=CARTESIAN_POINT('',(2.06000000000000014E1,6.79999999999999982E0,0.00000000000000000E0));
#95=CARTESIAN_POINT('',(1.93999999999999986E1,5.20000000000000018E0,0.00000000000000000E0));
#96=(BOUNDED_CURVE()B_SPLINE_CURVE(2,(#93,#94,#95),.UNSPECIFIED.,.F.,.F.)B_SPLINE_CURVE_WITH_KNOTS((3,3),(0.00000000000000000E0,1.00000000000000000E0),.UNSPECIFIED.)CURVE()GEOMETRIC_REPRESENTATION_ITEM()RATIONAL_B_SPLINE_CURVE((1.00000000000000000E0,7.07106781186547573E-1,1.00000000000000000E0))REPRESENTATION_ITEM(''));
#97=CARTESIAN_POINT('',(2.21999999999999993E1,5.59999999999999964E0,7.00000000000000000E0));
#98=CARTESIAN_POINT('',(2.06000000000000014E1,6.79999999999999982E0,7.00000000000000000E0));
#99=CARTESIAN_POINT('',(1.93999999999999986E1,5.20000000000000018E0,7.00000000000000000E0));
#100=(BOUNDED_CURVE()B_SPLINE_CURVE(2,(#97,#98,#99),.UNSPECIFIED.,.F.,.F.)B_SPLINE_CURVE_WITH_KNOTS((3,3),(0.00000000000000000E0,1.00000000000000000E0),.UNSPECIFIED.)CURVE()GEOMETRIC_REPRESENTATION_ITEM()RATIONAL_B_SPLINE_CURVE((1.00000000000000000E0,7.07106781186547573E-1,1.00000000000000000E0))REPRESENTATION_ITEM(''));
#101=CARTESIAN_POINT('',(2.21999999999999993E1,5.59999999999999964E0,0.00000000000000000E0));
#102=CARTESIAN_POINT('',(2.21999999999999993E1,5.59999999999999964E0,7.00000000000000000E0));
#103=B_SPLINE_CURVE_WITH_KNOTS('',1,(#101,#102),.UNSPECIFIED.,.F.,.F.,(2,2),(0.00000000000000000E0,1.00000000000000000E0),.UNSPECIFIED.);
#104=CARTESIAN_POINT('',(1.93999999999999986E1,5.20000000000000018E0,0.00000000000000000E0));
#105=CARTESIAN_POINT('',(1.63999999999999986E1,1.19999999999999996E0,0.00000000000000000E0));
#106=B_SPLINE_CURVE_WITH_KNOTS('',1,(#104,#105),.UNSPECIFIED.,.F.,.F.,(2,2),(0.00000000000000000E0,1.00000000000000000E0),.UNSPECIFIED.);
#107=CARTESIAN_POINT('',(1.93999999999999986E1,5.20000000000000018E0,7.00000000000000000E0));
#108=CARTESIAN_POINT('',(1.63999999999999986E1,1.19999999999999996E0,7.00000000000000000E0));
#109=B_SPLINE_CURVE_WITH_KNOTS('',1,(#107,#108),.UNSPECIFIED.,.F.,.F.,(2,2),(0.00000000000000000E0,1.00000000000000000E0),.UNSPECIFIED.);
#110=CARTESIAN_POINT('',(1.93999999999999986E1,5.20000000000000018E0,0.00000000000000000E0));
#111=CARTESIAN_POINT('',(1.93999999999999986E1,5.20000000000000018E0,7.00000000000000000E0));
#112=B_SPLINE_CURVE_WITH_KNOTS('',1,(#110,#111),.UNSPECIFIED.,.F.,.F.,(2,2),(0.00000000000000000E0,1.00000000000000000E0),.UNSPECIFIED.);
#113=CARTESIAN_POINT('',(1.63999999999999986E1,1.19999999999999996E0,0.00000000000000000E0));
#114=CARTESIAN_POINT('',(1.51999999999999993E1,-3.99999999999999911E-1,0.00000000000000000E0));
#115=CARTESIAN_POINT('',(1.68000000000000007E1,-1.59999999999999987E0,0.00000000000000000E0));
#116=(BOUNDED_CURVE()B_SPLINE_CURVE(2,(#113,#114,#115),.UNSPECIFIED.,.F.,.F.)B_SPLINE_CURVE_WITH_KNOTS((3,3),(0.00000000000000000E0,1.00000000000000000E0),.UNSPECIFIED.)CURVE()GEOMETRIC_REPRESENTATION_ITEM()RATIONAL_B_SPLINE_CURVE((1.00000000000000000E0,7.07106781186547573E-1,1.00000000000000000E0))REPRESENTATION_ITEM(''));
#117=CARTESIAN_POINT('',(1.63999999999999986E1,1.19999999999999996E0,7.00000000000000000E0));
#118=CARTESIAN_POINT('',(1.51999999999999993E1,-3.99999999999999911E-1,7.00000000000000000E0));
#119=CARTESIAN_POINT('',(1.68000000000000007E1,-1.59999999999999987E0,7.00000000000000000E0));
#120=(BOUNDED_CURVE()B_SPLINE_CURVE(2,(#117,#118,#119),.UNSPECIFIED.,.F.,.F.)B_SPLINE_CURVE_WITH_KNOTS((3,3),(0.00000000000000000E0,1.00000000000000000E0),.UNSPECIFIED.)CURVE()GEOMETRIC_REPRESENTATION_ITEM()RATIONAL_B_SPLINE_CURVE((1.00000000000000000E0,7.07106781186547573E-1,1.00000000000000000E0))REPRESENTATION_ITEM(''));
#121=CARTESIAN_POINT('',(1.63999999999999986E1,1.19999999999999996E0,0.00000000000000000E0));
#122=CARTESIAN_POINT('',(1.63999999999999986E1,1.19999999999999996E0,7.00000000000000000E0));
#123=B_SPLINE_CURVE_WITH_KNOTS('',1,(#121,#122),.UNSPECIFIED.,.F.,.F.,(2,2),(0.00000000000000000E0,1.00000000000000000E0),.UNSPECIFIED.);
#124=CARTESIAN_POINT('',(1.68000000000000007E1,-1.59999999999999987E0,0.00000000000000000E0));
#125=CARTESIAN_POINT('',(1.83999999999999986E1,-2.80000000000000027E0,0.00000000000000000E0));
#126=CARTESIAN_POINT('',(1.95999999999999979E1,-1.20000000000000151E0,0.00000000000000000E0));
#127=(BOUNDED_CURVE()B_SPLINE_CURVE(2,(#124,#125,#126),.UNSPECIFIED.,.F.,.F.)B_SPLINE_CURVE_WITH_KNOTS((3,3),(0.00000000000000000E0,1.00000000000000000E0),.UNSPECIFIED.)CURVE()GEOMETRIC_REPRESENTATION_ITEM()RATIONAL_B_SPLINE_CURVE((1.00000000000000000E0,7.07106781186547573E-1,1.00000000000000000E0))REPRESENTATION_ITEM(''));
#128=CARTESIAN_POINT('',(1.68000000000000007E1,-1.59999999999999987E0,7.00000000000000000E0));
#129=CARTESIAN_POINT('',(1.83999999999999986E1,-2.80000000000000027E0,7.00000000000000000E0));
#130=CARTESIAN_POINT('',(1.95999999999999979E1,-1.20000000000000151E0,7.00000000000000000E0));
#131=(BOUNDED_CURVE()B_SPLINE_CURVE(2,(#128,#129,#130),.UNSPECIFIED.,.F.,.F.)B_SPLINE_CURVE_WITH_KNOTS((3,3),(0.00000000000000000E0,1.00000000000000000E0),.UNSPECIFIED.)CURVE()GEOMETRIC_REPRESENTATION_ITEM()RATIONAL_B_SPLINE_CURVE((1.00000000000000000E0,7.07106781186547573E-1,1.00000000000000000E0))REPRESENTATION_ITEM(''));
#132=CARTESIAN_POINT('',(1.68000000000000007E1,-1.59999999999999987E0,0.00000000000000000E0));
#133=CARTESIAN_POINT('',(1.68000000000000007E1,-1.59999999999999987E0,7.00000000000000000E0));
#134=B_SPLINE_CURVE_WITH_KNOTS('',1,(#132,#133),.UNSPECIFIED.,.F.,.F.,(2,2),(0.00000000000000000E0,1.00000000000000000E0),.UNSPECIFIED.);
#135=(GEOMETRIC_REPRESENTATION_CONTEXT(2)REPRESENTATION_CONTEXT('','2D'));
#136=CARTESIAN_POINT('',(4.88372093023256015E-1,1.66666666666666546E-1));
#137=CARTESIAN_POINT('',(6.27906976744186274E-1,0.00000000000000000E0));
#138=CARTESIAN_POINT('',(8.13953488372092915E-1,1.25000000000000056E-1));
#139=(BOUNDED_CURVE()B_SPLINE_CURVE(2,(#136,#137,#138),.UNSPECIFIED.,.F.,.F.)B_SPLINE_CURVE_WITH_KNOTS((3,3),(0.00000000000000000E0,1.00000000000000000E0),.UNSPECIFIED.)CURVE()GEOMETRIC_REPRESENTATION_ITEM()RATIONAL_B_SPLINE_CURVE((1.00000000000000000E0,7.07106781186547573E-1,1.00000000000000000E0))REPRESENTATION_ITEM(''));
#140=DEFINITIONAL_REPRESENTATION('',(#139),#135);
#141=PCURVE('',#67,#140);
#142=CARTESIAN_POINT('',(8.13953488372092915E-1,1.25000000000000056E-1));
#143=CARTESIAN_POINT('',(1.00000000000000000E0,2.50000000000000056E-1));
#144=CARTESIAN_POINT('',(8.60465116279069853E-1,4.16666666666666685E-1));
#145=(BOUNDED_CURVE()B_SPLINE_CURVE(2,(#142,#143,#144),.UNSPECIFIED.,.F.,.F.)B_SPLINE_CURVE_WITH_KNOTS((3,3),(0.00000000000000000E0,1.00000000000000000E0),.UNSPECIFIED.)CURVE()GEOMETRIC_REPRESENTATION_ITEM()RATIONAL_B_SPLINE_CURVE((1.00000000000000000E0,7.07106781186547573E-1,1.00000000000000000E0))REPRESENTATION_ITEM(''));
#146=DEFINITIONAL_REPRESENTATION('',(#145),#135);
#147=PCURVE('',#67,#146);
#148=CARTESIAN_POINT('',(8.60465116279069853E-1,4.16666666666666685E-1));
#149=CARTESIAN_POINT('',(5.11627906976744429E-1,8.33333333333333370E-1));
#150=B_SPLINE_CURVE_WITH_KNOTS('',1,(#148,#149),.UNSPECIFIED.,.F.,.F.,(2,2),(0.00000000000000000E0,1.00000000000000000E0),.UNSPECIFIED.);
#151=DEFINITIONAL_REPRESENTATION('',(#150),#135);
#152=PCURVE('',#67,#151);
#153=CARTESIAN_POINT('',(5.11627906976744429E-1,8.33333333333333370E-1));
#154=CARTESIAN_POINT('',(3.72093023255813837E-1,1.00000000000000000E0));
#155=CARTESIAN_POINT('',(1.86046511627907085E-1,8.75000000000000111E-1));
#156=(BOUNDED_CURVE()B_SPLINE_CURVE(2,(#153,#154,#155),.UNSPECIFIED.,.F.,.F.)B_SPLINE_CURVE_WITH_KNOTS((3,3),(0.00000000000000000E0,1.00000000000000000E0),.UNSPECIFIED.)CURVE()GEOMETRIC_REPRESENTATION_ITEM()RATIONAL_B_SPLINE_CURVE((1.00000000000000000E0,7.07106781186547573E-1,1.00000000000000000E0))REPRESENTATION_ITEM(''));
#157=DEFINITIONAL_REPRESENTATION('',(#156),#135);
#158=PCURVE('',#67,#157);
#159=CARTESIAN_POINT('',(1.86046511627907085E-1,8.75000000000000111E-1));
#160=CARTESIAN_POINT('',(0.00000000000000000E0,7.50000000000000111E-1));
#161=CARTESIAN_POINT('',(1.39534883720930591E-1,5.83333333333333259E-1));
#162=(BOUNDED_CURVE()B_SPLINE_CURVE(2,(#159,#160,#161),.UNSPECIFIED.,.F.,.F.)B_SPLINE_CURVE_WITH_KNOTS((3,3),(0.00000000000000000E0,1.00000000000000000E0),.UNSPECIFIED.)CURVE()GEOMETRIC_REPRESENTATION_ITEM()RATIONAL_B_SPLINE_CURVE((1.00000000000000000E0,7.07106781186547573E-1,1.00000000000000000E0))REPRESENTATION_ITEM(''));
#163=DEFINITIONAL_REPRESENTATION('',(#162),#135);
#164=PCURVE('',#67,#163);
#165=CARTESIAN_POINT('',(1.39534883720930591E-1,5.83333333333333259E-1));
#166=CARTESIAN_POINT('',(4.88372093023256015E-1,1.66666666666666546E-1));
#167=B_SPLINE_CURVE_WITH_KNOTS('',1,(#165,#166),.UNSPECIFIED.,.F.,.F.,(2,2),(0.00000000000000000E0,1.00000000000000000E0),.UNSPECIFIED.);
#168=DEFINITIONAL_REPRESENTATION('',(#167),#135);
#169=PCURVE('',#67,#168);
#170=CARTESIAN_POINT('',(5.11627906976743985E-1,1.66666666666666546E-1));
#171=CARTESIAN_POINT('',(8.60465116279069409E-1,5.83333333333333259E-1));
#172=B_SPLINE_CURVE_WITH_KNOTS('',1,(#170,#171),.UNSPECIFIED.,.F.,.F.,(2,2),(0.00000000000000000E0,1.00000000000000000E0),.UNSPECIFIED.);
#173=DEFINITIONAL_REPRESENTATION('',(#172),#135);
#174=PCURVE('',#72,#173);
#175=CARTESIAN_POINT('',(8.60465116279069409E-1,5.83333333333333259E-1));
#176=CARTESIAN_POINT('',(1.00000000000000000E0,7.50000000000000111E-1));
#177=CARTESIAN_POINT('',(8.13953488372092915E-1,8.75000000000000111E-1));
#178=(BOUNDED_CURVE()B_SPLINE_CURVE(2,(#175,#176,#177),.UNSPECIFIED.,.F.,.F.)B_SPLINE_CURVE_WITH_KNOTS((3,3),(0.00000000000000000E0,1.00000000000000000E0),.UNSPECIFIED.)CURVE()GEOMETRIC_REPRESENTATION_ITEM()RATIONAL_B_SPLINE_CURVE((1.00000000000000000E0,7.07106781186547573E-1,1.00000000000000000E0))REPRESENTATION_ITEM(''));
#179=DEFINITIONAL_REPRESENTATION('',(#178),#135);
#180=PCURVE('',#72,#179);
#181=CARTESIAN_POINT('',(8.13953488372092915E-1,8.75000000000000111E-1));
#182=CARTESIAN_POINT('',(6.27906976744186163E-1,1.00000000000000000E0));
#183=CARTESIAN_POINT('',(4.88372093023255627E-1,8.33333333333333370E-1));
#184=(BOUNDED_CURVE()B_SPLINE_CURVE(2,(#181,#182,#183),.UNSPECIFIED.,.F.,.F.)B_SPLINE_CURVE_WITH_KNOTS((3,3),(0.00000000000000000E0,1.00000000000000000E0),.UNSPECIFIED.)CURVE()GEOMETRIC_REPRESENTATION_ITEM()RATIONAL_B_SPLINE_CURVE((1.00000000000000000E0,7.07106781186547573E-1,1.00000000000000000E0))REPRESENTATION_ITEM(''));
#185=DEFINITIONAL_REPRESENTATION('',(#184),#135);
#186=PCURVE('',#72,#185);
#187=CARTESIAN_POINT('',(4.88372093023255627E-1,8.33333333333333370E-1));
#188=CARTESIAN_POINT('',(1.39534883720930120E-1,4.16666666666666685E-1));
#189=B_SPLINE_CURVE_WITH_KNOTS('',1,(#187,#188),.UNSPECIFIED.,.F.,.F.,(2,2),(0.00000000000000000E0,1.00000000000000000E0),.UNSPECIFIED.);
#190=DEFINITIONAL_REPRESENTATION('',(#189),#135);
#191=PCURVE('',#72,#190);
#192=CARTESIAN_POINT('',(1.39534883720930120E-1,4.16666666666666685E-1));
#193=CARTESIAN_POINT('',(0.00000000000000000E0,2.50000000000000056E-1));
#194=CARTESIAN_POINT('',(1.86046511627907113E-1,1.25000000000000056E-1));
#195=(BOUNDED_CURVE()B_SPLINE_CURVE(2,(#192,#193,#194),.UNSPECIFIED.,.F.,.F.)B_SPLINE_CURVE_WITH_KNOTS((3,3),(0.00000000000000000E0,1.00000000000000000E0),.UNSPECIFIED.)CURVE()GEOMETRIC_REPRESENTATION_ITEM()RATIONAL_B_SPLINE_CURVE((1.00000000000000000E0,7.07106781186547573E-1,1.00000000000000000E0))REPRESENTATION_ITEM(''));
#196=DEFINITIONAL_REPRESENTATION('',(#195),#135);
#197=PCURVE('',#72,#196);
#198=CARTESIAN_POINT('',(1.86046511627907113E-1,1.25000000000000056E-1));
#199=CARTESIAN_POINT('',(3.72093023255813782E-1,0.00000000000000000E0));
#200=CARTESIAN_POINT('',(5.11627906976743985E-1,1.66666666666666546E-1));
#201=(BOUNDED_CURVE()B_SPLINE_CURVE(2,(#198,#199,#200),.UNSPECIFIED.,.F.,.F.)B_SPLINE_CURVE_WITH_KNOTS((3,3),(0.00000000000000000E0,1.00000000000000000E0),.UNSPECIFIED.)CURVE()GEOMETRIC_REPRESENTATION_ITEM()RATIONAL_B_SPLINE_CURVE((1.00000000000000000E0,7.07106781186547573E-1,1.00000000000000000E0))REPRESENTATION_ITEM(''));
#202=DEFINITIONAL_REPRESENTATION('',(#201),#135);
#203=PCURVE('',#72,#202);
#204=CARTESIAN_POINT('',(0.00000000000000000E0,0.00000000000000000E0));
#205=CARTESIAN_POINT('',(1.00000000000000000E0,0.00000000000000000E0));
#206=B_SPLINE_CURVE_WITH_KNOTS('',1,(#204,#205),.UNSPECIFIED.,.F.,.F.,(2,2),(0.00000000000000000E0,1.00000000000000000E0),.UNSPECIFIED.);
#207=DEFINITIONAL_REPRESENTATION('',(#206),#135);
#208=PCURVE('',#29,#207);
#209=CARTESIAN_POINT('',(1.00000000000000000E0,0.00000000000000000E0));
#210=CARTESIAN_POINT('',(1.00000000000000000E0,1.00000000000000000E0));
#211=B_SPLINE_CURVE_WITH_KNOTS('',1,(#209,#210),.UNSPECIFIED.,.F.,.F.,(2,2),(0.00000000000000000E0,1.00000000000000000E0),.UNSPECIFIED.);
#212=DEFINITIONAL_REPRESENTATION('',(#211),#135);
#213=PCURVE('',#29,#212);
#214=CARTESIAN_POINT('',(1.00000000000000000E0,1.00000000000000000E0));
#215=CARTESIAN_POINT('',(0.00000000000000000E0,1.00000000000000000E0));
#216=B_SPLINE_CURVE_WITH_KNOTS('',1,(#214,#215),.UNSPECIFIED.,.F.,.F.,(2,2),(0.00000000000000000E0,1.00000000000000000E0),.UNSPECIFIED.);
#217=DEFINITIONAL_REPRESENTATION('',(#216),#135);
#218=PCURVE('',#29,#217);
#219=CARTESIAN_POINT('',(0.00000000000000000E0,1.00000000000000000E0));
#220=CARTESIAN_POINT('',(0.00000000000000000E0,0.00000000000000000E0));
#221=B_SPLINE_CURVE_WITH_KNOTS('',1,(#219,#220),.UNSPECIFIED.,.F.,.F.,(2,2),(0.00000000000000000E0,1.00000000000000000E0),.UNSPECIFIED.);
#222=DEFINITIONAL_REPRESENTATION('',(#221),#135);
#223=PCURVE('',#29,#222);
#224=CARTESIAN_POINT('',(0.00000000000000000E0,0.00000000000000000E0));
#225=CARTESIAN_POINT('',(1.00000000000000000E0,0.00000000000000000E0));
#226=B_SPLINE_CURVE_WITH_KNOTS('',1,(#224,#225),.UNSPECIFIED.,.F.,.F.,(2,2),(0.00000000000000000E0,1.00000000000000000E0),.UNSPECIFIED.);
#227=DEFINITIONAL_REPRESENTATION('',(#226),#135);
#228=PCURVE('',#36,#227);
#229=CARTESIAN_POINT('',(1.00000000000000000E0,0.00000000000000000E0));
#230=CARTESIAN_POINT('',(1.00000000000000000E0,1.00000000000000000E0));
#231=B_SPLINE_CURVE_WITH_KNOTS('',1,(#229,#230),.UNSPECIFIED.,.F.,.F.,(2,2),(0.00000000000000000E0,1.00000000000000000E0),.UNSPECIFIED.);
#232=DEFINITIONAL_REPRESENTATION('',(#231),#135);
#233=PCURVE('',#36,#232);
#234=CARTESIAN_POINT('',(1.00000000000000000E0,1.00000000000000000E0));
#235=CARTESIAN_POINT('',(0.00000000000000000E0,1.00000000000000000E0));
#236=B_SPLINE_CURVE_WITH_KNOTS('',1,(#234,#235),.UNSPECIFIED.,.F.,.F.,(2,2),(0.00000000000000000E0,1.00000000000000000E0),.UNSPECIFIED.);
#237=DEFINITIONAL_REPRESENTATION('',(#236),#135);
#238=PCURVE('',#36,#237);
#239=CARTESIAN_POINT('',(0.00000000000000000E0,1.00000000000000000E0));
#240=CARTESIAN_POINT('',(0.00000000000000000E0,0.00000000000000000E0));
#241=B_SPLINE_CURVE_WITH_KNOTS('',1,(#239,#240),.UNSPECIFIED.,.F.,.F.,(2,2),(0.00000000000000000E0,1.00000000000000000E0),.UNSPECIFIED.);
#242=DEFINITIONAL_REPRESENTATION('',(#241),#135);
#243=PCURVE('',#36,#242);
#244=CARTESIAN_POINT('',(0.00000000000000000E0,0.00000000000000000E0));
#245=CARTESIAN_POINT('',(1.00000000000000000E0,0.00000000000000000E0));
#246=B_SPLINE_CURVE_WITH_KNOTS('',1,(#244,#245),.UNSPECIFIED.,.F.,.F.,(2,2),(0.00000000000000000E0,1.00000000000000000E0),.UNSPECIFIED.);
#247=DEFINITIONAL_REPRESENTATION('',(#246),#135);
#248=PCURVE('',#43,#247);
#249=CARTESIAN_POINT('',(1.00000000000000000E0,0.00000000000000000E0));
#250=CARTESIAN_POINT('',(1.00000000000000000E0,1.00000000000000000E0));
#251=B_SPLINE_CURVE_WITH_KNOTS('',1,(#249,#250),.UNSPECIFIED.,.F.,.F.,(2,2),(0.00000000000000000E0,1.00000000000000000E0),.UNSPECIFIED.);
#252=DEFINITIONAL_REPRESENTATION('',(#251),#135);
#253=PCURVE('',#43,#252);
#254=CARTESIAN_POINT('',(1.00000000000000000E0,1.00000000000000000E0));
#255=CARTESIAN_POINT('',(0.00000000000000000E0,1.00000000000000000E0));
#256=B_SPLINE_CURVE_WITH_KNOTS('',1,(#254,#255),.UNSPECIFIED.,.F.,.F.,(2,2),(0.00000000000000000E0,1.00000000000000000E0),.UNSPECIFIED.);
#257=DEFINITIONAL_REPRESENTATION('',(#256),#135);
#258=PCURVE('',#43,#257);
#259=CARTESIAN_POINT('',(0.00000000000000000E0,1.00000000000000000E0));
#260=CARTESIAN_POINT('',(0.00000000000000000E0,0.00000000000000000E0));
#261=B_SPLINE_CURVE_WITH_KNOTS('',1,(#259,#260),.UNSPECIFIED.,.F.,.F.,(2,2),(0.00000000000000000E0,1.00000000000000000E0),.UNSPECIFIED.);
#262=DEFINITIONAL_REPRESENTATION('',(#261),#135);
#263=PCURVE('',#43,#262);
#264=CARTESIAN_POINT('',(0.00000000000000000E0,0.00000000000000000E0));
#265=CARTESIAN_POINT('',(1.00000000000000000E0,0.00000000000000000E0));
#266=B_SPLINE_CURVE_WITH_KNOTS('',1,(#264,#265),.UNSPECIFIED.,.F.,.F.,(2,2),(0.00000000000000000E0,1.00000000000000000E0),.UNSPECIFIED.);
#267=DEFINITIONAL_REPRESENTATION('',(#266),#135);
#268=PCURVE('',#48,#267);
#269=CARTESIAN_POINT('',(1.00000000000000000E0,0.00000000000000000E0));
#270=CARTESIAN_POINT('',(1.00000000000000000E0,1.00000000000000000E0));
#271=B_SPLINE_CURVE_WITH_KNOTS('',1,(#269,#270),.UNSPECIFIED.,.F.,.F.,(2,2),(0.00000000000000000E0,1.00000000000000000E0),.UNSPECIFIED.);
#272=DEFINITIONAL_REPRESENTATION('',(#271),#135);
#273=PCURVE('',#48,#272);
#274=CARTESIAN_POINT('',(1.00000000000000000E0,1.00000000000000000E0));
#275=CARTESIAN_POINT('',(0.00000000000000000E0,1.00000000000000000E0));
#276=B_SPLINE_CURVE_WITH_KNOTS('',1,(#274,#275),.UNSPECIFIED.,.F.,.F.,(2,2),(0.00000000000000000E0,1.00000000000000000E0),.UNSPECIFIED.);
#277=DEFINITIONAL_REPRESENTATION('',(#276),#135);
#278=PCURVE('',#48,#277);
#279=CARTESIAN_POINT('',(0.00000000000000000E0,1.00000000000000000E0));
#280=CARTESIAN_POINT('',(0.00000000000000000E0,0.00000000000000000E0));
#281=B_SPLINE_CURVE_WITH_KNOTS('',1,(#279,#280),.UNSPECIFIED.,.F.,.F.,(2,2),(0.00000000000000000E0,1.00000000000000000E0),.UNSPECIFIED.);
#282=DEFINITIONAL_REPRESENTATION('',(#281),#135);
#283=PCURVE('',#48,#282);
#284=CARTESIAN_POINT('',(0.00000000000000000E0,0.00000000000000000E0));
#285=CARTESIAN_POINT('',(1.00000000000000000E0,0.00000000000000000E0));
#286=B_SPLINE_CURVE_WITH_KNOTS('',1,(#284,#285),.UNSPECIFIED.,.F.,.F.,(2,2),(0.00000000000000000E0,1.00000000000000000E0),.UNSPECIFIED.);
#287=DEFINITIONAL_REPRESENTATION('',(#286),#135);
#288=PCURVE('',#55,#287);
#289=CARTESIAN_POINT('',(1.00000000000000000E0,0.00000000000000000E0));
#290=CARTESIAN_POINT('',(1.00000000000000000E0,1.00000000000000000E0));
#291=B_SPLINE_CURVE_WITH_KNOTS('',1,(#289,#290),.UNSPECIFIED.,.F.,.F.,(2,2),(0.00000000000000000E0,1.00000000000000000E0),.UNSPECIFIED.);
#292=DEFINITIONAL_REPRESENTATION('',(#291),#135);
#293=PCURVE('',#55,#292);
#294=CARTESIAN_POINT('',(1.00000000000000000E0,1.00000000000000000E0));
#295=CARTESIAN_POINT('',(0.00000000000000000E0,1.00000000000000000E0));
#296=B_SPLINE_CURVE_WITH_KNOTS('',1,(#294,#295),.UNSPECIFIED.,.F.,.F.,(2,2),(0.00000000000000000E0,1.00000000000000000E0),.UNSPECIFIED.);
#297=DEFINITIONAL_REPRESENTATION('',(#296),#135);
#298=PCURVE('',#55,#297);
#299=CARTESIAN_POINT('',(0.00000000000000000E0,1.00000000000000000E0));
#300=CARTESIAN_POINT('',(0.00000000000000000E0,0.00000000000000000E0));
#301=B_SPLINE_CURVE_WITH_KNOTS('',1,(#299,#300),.UNSPECIFIED.,.F.,.F.,(2,2),(0.00000000000000000E0,1.00000000000000000E0),.UNSPECIFIED.);
#302=DEFINITIONAL_REPRESENTATION('',(#301),#135);
#303=PCURVE('',#55,#302);
#304=CARTESIAN_POINT('',(0.00000000000000000E0,0.00000000000000000E0));
#305=CARTESIAN_POINT('',(1.00000000000000000E0,0.00000000000000000E0));
#306=B_SPLINE_CURVE_WITH_KNOTS('',1,(#304,#305),.UNSPECIFIED.,.F.,.F.,(2,2),(0.00000000000000000E0,1.00000000000000000E0),.UNSPECIFIED.);
#307=DEFINITIONAL_REPRESENTATION('',(#306),#135);
#308=PCURVE('',#62,#307);
#309=CARTESIAN_POINT('',(1.00000000000000000E0,0.00000000000000000E0));
#310=CARTESIAN_POINT('',(1.00000000000000000E0,1.00000000000000000E0));
#311=B_SPLINE_CURVE_WITH_KNOTS('',1,(#309,#310),.UNSPECIFIED.,.F.,.F.,(2,2),(0.00000000000000000E0,1.00000000000000000E0),.UNSPECIFIED.);
#312=DEFINITIONAL_REPRESENTATION('',(#311),#135);
#313=PCURVE('',#62,#312);
#314=CARTESIAN_POINT('',(1.00000000000000000E0,1.00000000000000000E0));
#315=CARTESIAN_POINT('',(0.00000000000000000E0,1.00000000000000000E0));
#316=B_SPLINE_CURVE_WITH_KNOTS('',1,(#314,#315),.UNSPECIFIED.,.F.,.F.,(2,2),(0.00000000000000000E0,1.00000000000000000E0),.UNSPECIFIED.);
#317=DEFINITIONAL_REPRESENTATION('',(#316),#135);
#318=PCURVE('',#62,#317);
#319=CARTESIAN_POINT('',(0.00000000000000000E0,1.00000000000000000E0));
#320=CARTESIAN_POINT('',(0.00000000000000000E0,0.00000000000000000E0));
#321=B_SPLINE_CURVE_WITH_KNOTS('',1,(#319,#320),.UNSPECIFIED.,.F.,.F.,(2,2),(0.00000000000000000E0,1.00000000000000000E0),.UNSPECIFIED.);
#322=DEFINITIONAL_REPRESENTATION('',(#321),#135);
#323=PCURVE('',#62,#322);
#324=SURFACE_CURVE('',#75,(#169,#208),.PCURVE_S1.);
#325=EDGE_CURVE('OSCAD_TOPO/3|edge|e:d668497b7877925a7cb6c2c2b091ac5a|b3e120b670b292917b052f6608f694f354d461970d80dc1c68ec3c8583332435',#2,#6,#324,.T.);
#326=SURFACE_CURVE('',#78,(#174,#218),.PCURVE_S1.);
#327=EDGE_CURVE('OSCAD_TOPO/3|edge|e:bc9b24a4399ad8bfed6d80c4b4725d3d|f5c51fada88c1c84ec6b514c934d0830991e8bec17b521707d5b9172e983c479',#4,#8,#326,.T.);
#328=SURFACE_CURVE('',#81,(#223,#313),.PCURVE_S1.);
#329=EDGE_CURVE('OSCAD_TOPO/3|edge|e:bb3a1b29db2a505857ceddfd23203301|24d716f97dadf60f7d0a64af900ce8d6d6cd0baf58f50aaf6cb42b55b3a0b0b4',#2,#4,#328,.T.);
#330=SURFACE_CURVE('',#85,(#164,#228),.PCURVE_S1.);
#331=EDGE_CURVE('OSCAD_TOPO/3|edge|e:6da41fe850323c0394afe708aae51ab0|46d89512fa57f7a95fceeea520094f705971e72311a92d4d274a086faf82c1ed',#6,#10,#330,.T.);
#332=SURFACE_CURVE('',#89,(#180,#238),.PCURVE_S1.);
#333=EDGE_CURVE('OSCAD_TOPO/3|edge|e:ee610653ed5bfbbe18e8aa0bf9a4e39b|eb46e2a8d3a69ff3801ace021d03ea41617abcc1cab2bef1e193ec61712d608a',#8,#12,#332,.T.);
#334=SURFACE_CURVE('',#92,(#213,#243),.PCURVE_S1.);
#335=EDGE_CURVE('OSCAD_TOPO/3|edge|e:590ae6fc2d1d916fd1a1a72a94864baf|abb30485039ac6dc81c2fb183dffcf79c358ccbc177728d7d5ed6e42dd515207',#6,#8,#334,.T.);
#336=SURFACE_CURVE('',#96,(#158,#248),.PCURVE_S1.);
#337=EDGE_CURVE('OSCAD_TOPO/3|edge|e:cd561fc29c956d7930d6911f57cd89df|f7b1fa7bf2503d19c692152f9cfc574174fc7647067376124383125553b6ece0',#10,#14,#336,.T.);
#338=SURFACE_CURVE('',#100,(#186,#258),.PCURVE_S1.);
#339=EDGE_CURVE('OSCAD_TOPO/3|edge|e:f7a4c2aba0193fd8ebe9180b74639444|9f44165e98c8f5396e24384ff5ab83f097d74988fa82573d8f9a9da6061acf3a',#12,#16,#338,.T.);
#340=SURFACE_CURVE('',#103,(#233,#263),.PCURVE_S1.);
#341=EDGE_CURVE('OSCAD_TOPO/3|edge|e:e98ca1c19bd2109fee728c02179b519b|a46cef42f98a3f100907b953edd70d2eb0e09b1d55a83aacd5698f4ec9cc67b5',#10,#12,#340,.T.);
#342=SURFACE_CURVE('',#106,(#152,#268),.PCURVE_S1.);
#343=EDGE_CURVE('OSCAD_TOPO/3|edge|e:c797a0c7453e7458b38992519693a6cf|8ff365fb80aabd1a8dc1a73484a35c5fef9a1686f033df17cc813d4e05ea8e43',#14,#18,#342,.T.);
#344=SURFACE_CURVE('',#109,(#191,#278),.PCURVE_S1.);
#345=EDGE_CURVE('OSCAD_TOPO/3|edge|e:1fc8058d2212bd9dc6713233f6b94e61|dc45a920dfb592c9c764faa5a822174263eb2332ac2b40d1527a9744e1fe4e89',#16,#20,#344,.T.);
#346=SURFACE_CURVE('',#112,(#253,#283),.PCURVE_S1.);
#347=EDGE_CURVE('OSCAD_TOPO/3|edge|e:7682bb565e0ec1e0ae695e2d0958b421|949240e8a46a1f6456818edc0e24bf4e47511609d922c60d1e8ecb52a9452613',#14,#16,#346,.T.);
#348=SURFACE_CURVE('',#116,(#147,#288),.PCURVE_S1.);
#349=EDGE_CURVE('OSCAD_TOPO/3|edge|e:b561231399c89384bd6745e8b3babdd3|c7512a8a79424f397ec4744b8fa844b82bc5da65095686388dd8a67541f8be27',#18,#22,#348,.T.);
#350=SURFACE_CURVE('',#120,(#197,#298),.PCURVE_S1.);
#351=EDGE_CURVE('OSCAD_TOPO/3|edge|e:0636d27e68acd4c45c8ccc1ca5ce1b19|1f2ab84dea56acb55efe4ef361e8c8e696eef9750f94e63330dc7c5b5be78be7',#20,#24,#350,.T.);
#352=SURFACE_CURVE('',#123,(#273,#303),.PCURVE_S1.);
#353=EDGE_CURVE('OSCAD_TOPO/3|edge|e:ac3f0f8445e6802d74b0ab4a0a9be886|d3d8143a5db7d4feaf7798de8c37d137a45d9b9bf589dd4ebc9b4772f26307a9',#18,#20,#352,.T.);
#354=SURFACE_CURVE('',#127,(#141,#308),.PCURVE_S1.);
#355=EDGE_CURVE('OSCAD_TOPO/3|edge|e:5b46a01b54834f83edb11506f04744cf|7c19cffc3e4393f0dae0208d7e5cf9c0f8332c1c5ae5ef731d3a77eca5cfa59b',#22,#2,#354,.T.);
#356=SURFACE_CURVE('',#131,(#203,#318),.PCURVE_S1.);
#357=EDGE_CURVE('OSCAD_TOPO/3|edge|e:2b9a4f4df2d10c2de664e5181fe6b797|738b2b1a01cdc808a7cc104cbc9bf9d0c5f5bcc49e0b0bc8162949ad814626f8',#24,#4,#356,.T.);
#358=SURFACE_CURVE('',#134,(#293,#323),.PCURVE_S1.);
#359=EDGE_CURVE('OSCAD_TOPO/3|edge|e:d8f43aa7a77c8798c874d5537c712918|21bdb65ae5f2f9c04afb59981b902a90e7981511fa8a68f85a474aeff3c170ea',#22,#24,#358,.T.);
#360=ORIENTED_EDGE('',*,*,#355,.F.);
#361=ORIENTED_EDGE('',*,*,#349,.F.);
#362=ORIENTED_EDGE('',*,*,#343,.F.);
#363=ORIENTED_EDGE('',*,*,#337,.F.);
#364=ORIENTED_EDGE('',*,*,#331,.F.);
#365=ORIENTED_EDGE('',*,*,#325,.F.);
#366=EDGE_LOOP('OSCAD_TOPO/3|loop|l:5bf1fb4c03f5037db3854e1f49dc9f4e|86bbf393288a6e3125b1a69e8d45820de39fb5b4cdac4efba0c65729fcdd4aef',(#360,#361,#362,#363,#364,#365));
#367=ORIENTED_EDGE('',*,*,#327,.T.);
#368=ORIENTED_EDGE('',*,*,#333,.T.);
#369=ORIENTED_EDGE('',*,*,#339,.T.);
#370=ORIENTED_EDGE('',*,*,#345,.T.);
#371=ORIENTED_EDGE('',*,*,#351,.T.);
#372=ORIENTED_EDGE('',*,*,#357,.T.);
#373=EDGE_LOOP('OSCAD_TOPO/3|loop|l:93129e5122e5644a5034b08067fa72b8|5055478babe0d59e047d1a4e04194eaceee94eb8ade588518edc73ddaac3d02d',(#367,#368,#369,#370,#371,#372));
#374=ORIENTED_EDGE('',*,*,#325,.T.);
#375=ORIENTED_EDGE('',*,*,#335,.T.);
#376=ORIENTED_EDGE('',*,*,#327,.F.);
#377=ORIENTED_EDGE('',*,*,#329,.F.);
#378=EDGE_LOOP('OSCAD_TOPO/3|loop|l:d5cf1111573349279145f84ea1496e2d|d0e92295067ad2e6dfa4fb690e4dad146ae18d8b3401ed52cc98863b16f48796',(#374,#375,#376,#377));
#379=ORIENTED_EDGE('',*,*,#331,.T.);
#380=ORIENTED_EDGE('',*,*,#341,.T.);
#381=ORIENTED_EDGE('',*,*,#333,.F.);
#382=ORIENTED_EDGE('',*,*,#335,.F.);
#383=EDGE_LOOP('OSCAD_TOPO/3|loop|l:b70099b0c424878a2361497834b9c55c|b8eb5166f70e3efa9b9a5364f563ab2894a92934b445e380b8cf4328e3297d1d',(#379,#380,#381,#382));
#384=ORIENTED_EDGE('',*,*,#337,.T.);
#385=ORIENTED_EDGE('',*,*,#347,.T.);
#386=ORIENTED_EDGE('',*,*,#339,.F.);
#387=ORIENTED_EDGE('',*,*,#341,.F.);
#388=EDGE_LOOP('OSCAD_TOPO/3|loop|l:1149b88ff9c5b2ac27eb998d45f4a8ac|87cb5ae0f96bcf16263e94272f5f5e67134fae1a963b85ffa714fe0d8e733171',(#384,#385,#386,#387));
#389=ORIENTED_EDGE('',*,*,#343,.T.);
#390=ORIENTED_EDGE('',*,*,#353,.T.);
#391=ORIENTED_EDGE('',*,*,#345,.F.);
#392=ORIENTED_EDGE('',*,*,#347,.F.);
#393=EDGE_LOOP('OSCAD_TOPO/3|loop|l:351db99f3ee8a25ac72741ad9951de63|a72974368b289e99ab4e594e131cd2e12eccc1ec13d92eff35a1fd28a380cd13',(#389,#390,#391,#392));
#394=ORIENTED_EDGE('',*,*,#349,.T.);
#395=ORIENTED_EDGE('',*,*,#359,.T.);
#396=ORIENTED_EDGE('',*,*,#351,.F.);
#397=ORIENTED_EDGE('',*,*,#353,.F.);
#398=EDGE_LOOP('OSCAD_TOPO/3|loop|l:4bc28f52e2ee523764a4ad43078369c1|3a3cd5189bcd1185116e1dc539df9a4a5fbc4f682397874ef382b8449ec5339c',(#394,#395,#396,#397));
#399=ORIENTED_EDGE('',*,*,#355,.T.);
#400=ORIENTED_EDGE('',*,*,#329,.T.);
#401=ORIENTED_EDGE('',*,*,#357,.F.);
#402=ORIENTED_EDGE('',*,*,#359,.F.);
#403=EDGE_LOOP('OSCAD_TOPO/3|loop|l:e65b9eb8952cd904ed64d5fc48531991|cea9a442d32f12e2f484e245138ee3a0f2fe9d24b56a5c6393888c9faf9d2669',(#399,#400,#401,#402));
#404=FACE_OUTER_BOUND('',#378,.T.);
#405=ADVANCED_FACE('OSCAD_TOPO/3|face|f:8b4552d41b662f636c23414f2dccff7c|2cdeba87a6deb3c3a1440c09fa71a3bf8d4615b5ab0c8d443bb2334a248a62eb',(#404),#29,.T.);
#406=FACE_OUTER_BOUND('',#383,.T.);
#407=ADVANCED_FACE('OSCAD_TOPO/3|face|f:655f4174ee177f365a9eb6d8d0921553|de4c4763007b5e4255f5e8f3b687153d0a62df05e2e5470ff522332a3c61ab13',(#406),#36,.T.);
#408=FACE_OUTER_BOUND('',#388,.T.);
#409=ADVANCED_FACE('OSCAD_TOPO/3|face|f:c858b766d30f09f483f738159a404a08|490c85f4562157f98750cede1e8c922c3e3279a82ddb5792d26e741f92a510ee',(#408),#43,.T.);
#410=FACE_OUTER_BOUND('',#393,.T.);
#411=ADVANCED_FACE('OSCAD_TOPO/3|face|f:8d404c46243d204acbcfe09dab41ccdc|7865b9ecb861dada072bfaaef291d849315403686fe346b55b5f5ca17d90842b',(#410),#48,.T.);
#412=FACE_OUTER_BOUND('',#398,.T.);
#413=ADVANCED_FACE('OSCAD_TOPO/3|face|f:eb1b2d9b0c07bddd492373da1b488fa1|19bdda91e6e5adce81f3bd1cc9c816491ef29b5005ad51ad2b330be725ed7b51',(#412),#55,.T.);
#414=FACE_OUTER_BOUND('',#403,.T.);
#415=ADVANCED_FACE('OSCAD_TOPO/3|face|f:96837baaff74c3bf038338857a051760|1b6812f32a0bca73279553213208bc322a21ef9971cd43be1bf54396e663eec3',(#414),#62,.T.);
#416=FACE_OUTER_BOUND('',#366,.T.);
#417=ADVANCED_FACE('OSCAD_TOPO/3|face|f:f9705a1b88fd62839ca2746d7f623d5e|fa184eafca80750878601a305e3cab1aa350a7705447ce0a073eff65bdd1113c',(#416),#67,.T.);
#418=FACE_OUTER_BOUND('',#373,.T.);
#419=ADVANCED_FACE('OSCAD_TOPO/3|face|f:d3f4fa2fe573a7cb78755532d410a1dd|e63641195b2befe340ab28494c8f3d6b1ff820b273c36b91c59e4caf3ace6af2',(#418),#72,.T.);
#420=CLOSED_SHELL('OSCAD_TOPO/3|shell|s:09efb968611a848957c1b1888e4a32b1|ab86fc428b9355d5d3327b8a5c9a86ccc9ec07163f11c6bda514f09fcb9f80ac',(#405,#407,#409,#411,#413,#415,#417,#419));
#421=MANIFOLD_SOLID_BREP('OSCAD_TOPO/3|body|b:b9ebd3da1505bc71d9bb115dccef6ad2|3952fe59c88e94be764a4f3709976097d75b02686bae4081e918b6594b6f188c',#420);
#422=(LENGTH_UNIT()NAMED_UNIT(*)SI_UNIT(.MILLI.,.METRE.));
#423=UNCERTAINTY_MEASURE_WITH_UNIT(LENGTH_MEASURE(9.99999999999999955E-8),#422,'distance_accuracy_value','');
#424=(GEOMETRIC_REPRESENTATION_CONTEXT(3)GLOBAL_UNCERTAINTY_ASSIGNED_CONTEXT((#423))GLOBAL_UNIT_ASSIGNED_CONTEXT((#422))REPRESENTATION_CONTEXT('','3D'));
#425=ADVANCED_BREP_SHAPE_REPRESENTATION('',(#421),#424);
#426=APPLICATION_CONTEXT('managed model based 3d engineering');
#427=PRODUCT_CONTEXT('',#426,'mechanical');
#428=PRODUCT('model','model','',(#427));
#429=PRODUCT_DEFINITION_FORMATION('1','',#428);
#430=PRODUCT_DEFINITION_CONTEXT('part definition',#426,'design');
#431=PRODUCT_DEFINITION('design','',#429,#430);
#432=PRODUCT_DEFINITION_SHAPE('','',#431);
#433=SHAPE_DEFINITION_REPRESENTATION(#432,#425);
ENDSEC;
END-ISO-10303-21;
