ISO-10303-21;
HEADER;
FILE_DESCRIPTION(('OpenSCAD Viewer retained AP242 B-rep'),'2;1');
FILE_NAME('model.step','',(''),(''),'OpenSCAD Viewer','OpenSCAD Viewer','');
FILE_SCHEMA(('AP242_MANAGED_MODEL_BASED_3D_ENGINEERING_MIM_LF'));
ENDSEC;
DATA;
#1=CARTESIAN_POINT('',(5.00000000000000000E-1,0.00000000000000000E0,0.00000000000000000E0));
#2=VERTEX_POINT('OSCAD_TOPO/3|vertex|v:0e6d4a07b0201a33d7c8c088b03fa571|a3b7baffbdd5199fda74c960bfda123f067f8a12a33d99075153c47618fb9e9e',#1);
#3=CARTESIAN_POINT('',(3.06161699786838302E-17,5.00000000000000000E-1,0.00000000000000000E0));
#4=VERTEX_POINT('OSCAD_TOPO/3|vertex|v:c2f1698c364546394346ab1a17884558|cf95b6aa253505a20a08377b0ee64c030ce7430b03e1a51ce942f1a3ba4a6a5b',#3);
#5=CARTESIAN_POINT('',(-5.00000000000000000E-1,6.12323399573676604E-17,0.00000000000000000E0));
#6=VERTEX_POINT('OSCAD_TOPO/3|vertex|v:4c795a0720b0c5cb19a14c9baf9b33c5|cebe06c27cb7468f87c490d8135fb006d0c9cb2bdf7ce1308d77b7ef1674a26a',#5);
#7=CARTESIAN_POINT('',(-9.18485099360514844E-17,-5.00000000000000000E-1,0.00000000000000000E0));
#8=VERTEX_POINT('OSCAD_TOPO/3|vertex|v:bb8f49e8978db54ea78739819540e938|a589a153264e19fd9243d4f24a64287390b686764bc5e9499fb5ee7b7f5fd7c0',#7);
#9=CARTESIAN_POINT('',(2.00000000000000011E-1,0.00000000000000000E0,0.00000000000000000E0));
#10=VERTEX_POINT('OSCAD_TOPO/3|vertex|v:e020534d0e147521dcdf277f4e2a129c|d5538a0e455040d081ba4d9b067fa74b782fb5a120615d0b02582c144f80e560',#9);
#11=CARTESIAN_POINT('',(-3.67394039744205950E-17,-2.00000000000000011E-1,0.00000000000000000E0));
#12=VERTEX_POINT('OSCAD_TOPO/3|vertex|v:4eee40db12beadf68380d4070fd5e81e|a0530fcfe6ed64826506d685eb13ad1659570812181091c154816942b6d3f5eb',#11);
#13=CARTESIAN_POINT('',(-2.00000000000000011E-1,2.44929359829470654E-17,0.00000000000000000E0));
#14=VERTEX_POINT('OSCAD_TOPO/3|vertex|v:fde0effdac5cf7bd41b56e7a909b0c34|44c64328cb026818a151148805c9b876681124cad4b78ec3d7b417e4699d2ef8',#13);
#15=CARTESIAN_POINT('',(1.22464679914735327E-17,2.00000000000000011E-1,0.00000000000000000E0));
#16=VERTEX_POINT('OSCAD_TOPO/3|vertex|v:47e3114d64384376183bece48bae9299|c9da5a8254437d1c96029ed27bb54254cecb3adb38d69495c2b8136b02839c42',#15);
#17=CARTESIAN_POINT('',(5.00000000000000000E-1,0.00000000000000000E0,1.00000000000000000E1));
#18=VERTEX_POINT('OSCAD_TOPO/3|vertex|v:65a2b94697f7764c0ec46e3cb7230a0b|4cd5805e97c75adfe72f74c368b21fded78138cfe65302e0f21d562447d541c3',#17);
#19=CARTESIAN_POINT('',(3.06161699786838302E-17,5.00000000000000000E-1,1.00000000000000000E1));
#20=VERTEX_POINT('OSCAD_TOPO/3|vertex|v:dcb998a5ac316209d9a67dc8e0e964aa|8c1dc6a2b5db5ee8c7b46e72bd7e407d91f1cf0dd478711f74f634006baf97b0',#19);
#21=CARTESIAN_POINT('',(-5.00000000000000000E-1,6.12323399573676604E-17,1.00000000000000000E1));
#22=VERTEX_POINT('OSCAD_TOPO/3|vertex|v:62ab6864d3080f027a9c1f629de0837c|cdc226510bc3ff34f61c4f456283abbe4508c58f80b0feaef4795951a5710361',#21);
#23=CARTESIAN_POINT('',(-9.18485099360514844E-17,-5.00000000000000000E-1,1.00000000000000000E1));
#24=VERTEX_POINT('OSCAD_TOPO/3|vertex|v:88349eef8f03758804d60400ceb8fda4|e4c4fc06353c70fd333cbe7e800ead0ed75a6e00f08b5bd64c9e6bc40ac2f835',#23);
#25=CARTESIAN_POINT('',(2.00000000000000011E-1,0.00000000000000000E0,1.00000000000000000E1));
#26=VERTEX_POINT('OSCAD_TOPO/3|vertex|v:e6589d554b50b9c3061f38f52eca8cb8|0c400b02e55246742b9729c23d58df60d7055ea495f6c303cee3755c38ff1dec',#25);
#27=CARTESIAN_POINT('',(-3.67394039744205950E-17,-2.00000000000000011E-1,1.00000000000000000E1));
#28=VERTEX_POINT('OSCAD_TOPO/3|vertex|v:d7d668a174654e2900df880bc3177e6c|78ea423985cd9980194f1f4a7cc239c008516846ec56d4b9208ad30285f0249d',#27);
#29=CARTESIAN_POINT('',(-2.00000000000000011E-1,2.44929359829470654E-17,1.00000000000000000E1));
#30=VERTEX_POINT('OSCAD_TOPO/3|vertex|v:58256e9af367cd331877d45c6062a078|cc2afe6d9e29e386341557923d15c8f5906196c621d131998e1888d7dc064986',#29);
#31=CARTESIAN_POINT('',(1.22464679914735327E-17,2.00000000000000011E-1,1.00000000000000000E1));
#32=VERTEX_POINT('OSCAD_TOPO/3|vertex|v:baced3cae8817a92f1984ff720cb41ee|31df5aa627cc2798df9ed305c0550103f3360b46e789710dc513cb3e27a3693f',#31);
#33=CARTESIAN_POINT('',(5.00000000000000000E-1,0.00000000000000000E0,0.00000000000000000E0));
#34=CARTESIAN_POINT('',(5.00000000000000000E-1,0.00000000000000000E0,1.00000000000000000E1));
#35=CARTESIAN_POINT('',(5.00000000000000000E-1,4.99999999999999944E-1,0.00000000000000000E0));
#36=CARTESIAN_POINT('',(5.00000000000000000E-1,4.99999999999999944E-1,1.00000000000000000E1));
#37=CARTESIAN_POINT('',(3.06161699786838302E-17,5.00000000000000000E-1,0.00000000000000000E0));
#38=CARTESIAN_POINT('',(3.06161699786838302E-17,5.00000000000000000E-1,1.00000000000000000E1));
#39=(BOUNDED_SURFACE()B_SPLINE_SURFACE(2,1,((#33,#34),(#35,#36),(#37,#38)),.UNSPECIFIED.,.F.,.F.,.F.)B_SPLINE_SURFACE_WITH_KNOTS((3,3),(2,2),(0.00000000000000000E0,1.00000000000000000E0),(0.00000000000000000E0,1.00000000000000000E0),.UNSPECIFIED.)GEOMETRIC_REPRESENTATION_ITEM()RATIONAL_B_SPLINE_SURFACE(((1.00000000000000000E0,1.00000000000000000E0),(7.07106781186547573E-1,7.07106781186547573E-1),(1.00000000000000000E0,1.00000000000000000E0)))REPRESENTATION_ITEM('')SURFACE());
#40=CARTESIAN_POINT('',(3.06161699786838302E-17,5.00000000000000000E-1,0.00000000000000000E0));
#41=CARTESIAN_POINT('',(3.06161699786838302E-17,5.00000000000000000E-1,1.00000000000000000E1));
#42=CARTESIAN_POINT('',(-4.99999999999999944E-1,5.00000000000000000E-1,0.00000000000000000E0));
#43=CARTESIAN_POINT('',(-4.99999999999999944E-1,5.00000000000000000E-1,1.00000000000000000E1));
#44=CARTESIAN_POINT('',(-5.00000000000000000E-1,6.12323399573676604E-17,0.00000000000000000E0));
#45=CARTESIAN_POINT('',(-5.00000000000000000E-1,6.12323399573676604E-17,1.00000000000000000E1));
#46=(BOUNDED_SURFACE()B_SPLINE_SURFACE(2,1,((#40,#41),(#42,#43),(#44,#45)),.UNSPECIFIED.,.F.,.F.,.F.)B_SPLINE_SURFACE_WITH_KNOTS((3,3),(2,2),(0.00000000000000000E0,1.00000000000000000E0),(0.00000000000000000E0,1.00000000000000000E0),.UNSPECIFIED.)GEOMETRIC_REPRESENTATION_ITEM()RATIONAL_B_SPLINE_SURFACE(((1.00000000000000000E0,1.00000000000000000E0),(7.07106781186547573E-1,7.07106781186547573E-1),(1.00000000000000000E0,1.00000000000000000E0)))REPRESENTATION_ITEM('')SURFACE());
#47=CARTESIAN_POINT('',(-5.00000000000000000E-1,6.12323399573676604E-17,0.00000000000000000E0));
#48=CARTESIAN_POINT('',(-5.00000000000000000E-1,6.12323399573676604E-17,1.00000000000000000E1));
#49=CARTESIAN_POINT('',(-5.00000000000000111E-1,-4.99999999999999944E-1,0.00000000000000000E0));
#50=CARTESIAN_POINT('',(-5.00000000000000111E-1,-4.99999999999999944E-1,1.00000000000000000E1));
#51=CARTESIAN_POINT('',(-9.18485099360514844E-17,-5.00000000000000000E-1,0.00000000000000000E0));
#52=CARTESIAN_POINT('',(-9.18485099360514844E-17,-5.00000000000000000E-1,1.00000000000000000E1));
#53=(BOUNDED_SURFACE()B_SPLINE_SURFACE(2,1,((#47,#48),(#49,#50),(#51,#52)),.UNSPECIFIED.,.F.,.F.,.F.)B_SPLINE_SURFACE_WITH_KNOTS((3,3),(2,2),(0.00000000000000000E0,1.00000000000000000E0),(0.00000000000000000E0,1.00000000000000000E0),.UNSPECIFIED.)GEOMETRIC_REPRESENTATION_ITEM()RATIONAL_B_SPLINE_SURFACE(((1.00000000000000000E0,1.00000000000000000E0),(7.07106781186547573E-1,7.07106781186547573E-1),(1.00000000000000000E0,1.00000000000000000E0)))REPRESENTATION_ITEM('')SURFACE());
#54=CARTESIAN_POINT('',(-9.18485099360514844E-17,-5.00000000000000000E-1,0.00000000000000000E0));
#55=CARTESIAN_POINT('',(-9.18485099360514844E-17,-5.00000000000000000E-1,1.00000000000000000E1));
#56=CARTESIAN_POINT('',(4.99999999999999833E-1,-5.00000000000000111E-1,0.00000000000000000E0));
#57=CARTESIAN_POINT('',(4.99999999999999833E-1,-5.00000000000000111E-1,1.00000000000000000E1));
#58=CARTESIAN_POINT('',(5.00000000000000000E-1,0.00000000000000000E0,0.00000000000000000E0));
#59=CARTESIAN_POINT('',(5.00000000000000000E-1,0.00000000000000000E0,1.00000000000000000E1));
#60=(BOUNDED_SURFACE()B_SPLINE_SURFACE(2,1,((#54,#55),(#56,#57),(#58,#59)),.UNSPECIFIED.,.F.,.F.,.F.)B_SPLINE_SURFACE_WITH_KNOTS((3,3),(2,2),(0.00000000000000000E0,1.00000000000000000E0),(0.00000000000000000E0,1.00000000000000000E0),.UNSPECIFIED.)GEOMETRIC_REPRESENTATION_ITEM()RATIONAL_B_SPLINE_SURFACE(((1.00000000000000000E0,1.00000000000000000E0),(7.07106781186547573E-1,7.07106781186547573E-1),(1.00000000000000000E0,1.00000000000000000E0)))REPRESENTATION_ITEM('')SURFACE());
#61=CARTESIAN_POINT('',(2.00000000000000011E-1,0.00000000000000000E0,0.00000000000000000E0));
#62=CARTESIAN_POINT('',(2.00000000000000011E-1,0.00000000000000000E0,1.00000000000000000E1));
#63=CARTESIAN_POINT('',(1.99999999999999956E-1,-2.00000000000000011E-1,0.00000000000000000E0));
#64=CARTESIAN_POINT('',(1.99999999999999956E-1,-2.00000000000000011E-1,1.00000000000000000E1));
#65=CARTESIAN_POINT('',(-3.67394039744205950E-17,-2.00000000000000011E-1,0.00000000000000000E0));
#66=CARTESIAN_POINT('',(-3.67394039744205950E-17,-2.00000000000000011E-1,1.00000000000000000E1));
#67=(BOUNDED_SURFACE()B_SPLINE_SURFACE(2,1,((#61,#62),(#63,#64),(#65,#66)),.UNSPECIFIED.,.F.,.F.,.F.)B_SPLINE_SURFACE_WITH_KNOTS((3,3),(2,2),(0.00000000000000000E0,1.00000000000000000E0),(0.00000000000000000E0,1.00000000000000000E0),.UNSPECIFIED.)GEOMETRIC_REPRESENTATION_ITEM()RATIONAL_B_SPLINE_SURFACE(((1.00000000000000000E0,1.00000000000000000E0),(7.07106781186547573E-1,7.07106781186547573E-1),(1.00000000000000000E0,1.00000000000000000E0)))REPRESENTATION_ITEM('')SURFACE());
#68=CARTESIAN_POINT('',(-3.67394039744205950E-17,-2.00000000000000011E-1,0.00000000000000000E0));
#69=CARTESIAN_POINT('',(-3.67394039744205950E-17,-2.00000000000000011E-1,1.00000000000000000E1));
#70=CARTESIAN_POINT('',(-2.00000000000000011E-1,-1.99999999999999983E-1,0.00000000000000000E0));
#71=CARTESIAN_POINT('',(-2.00000000000000011E-1,-1.99999999999999983E-1,1.00000000000000000E1));
#72=CARTESIAN_POINT('',(-2.00000000000000011E-1,2.44929359829470654E-17,0.00000000000000000E0));
#73=CARTESIAN_POINT('',(-2.00000000000000011E-1,2.44929359829470654E-17,1.00000000000000000E1));
#74=(BOUNDED_SURFACE()B_SPLINE_SURFACE(2,1,((#68,#69),(#70,#71),(#72,#73)),.UNSPECIFIED.,.F.,.F.,.F.)B_SPLINE_SURFACE_WITH_KNOTS((3,3),(2,2),(0.00000000000000000E0,1.00000000000000000E0),(0.00000000000000000E0,1.00000000000000000E0),.UNSPECIFIED.)GEOMETRIC_REPRESENTATION_ITEM()RATIONAL_B_SPLINE_SURFACE(((1.00000000000000000E0,1.00000000000000000E0),(7.07106781186547573E-1,7.07106781186547573E-1),(1.00000000000000000E0,1.00000000000000000E0)))REPRESENTATION_ITEM('')SURFACE());
#75=CARTESIAN_POINT('',(-2.00000000000000011E-1,2.44929359829470654E-17,0.00000000000000000E0));
#76=CARTESIAN_POINT('',(-2.00000000000000011E-1,2.44929359829470654E-17,1.00000000000000000E1));
#77=CARTESIAN_POINT('',(-1.99999999999999983E-1,2.00000000000000011E-1,0.00000000000000000E0));
#78=CARTESIAN_POINT('',(-1.99999999999999983E-1,2.00000000000000011E-1,1.00000000000000000E1));
#79=CARTESIAN_POINT('',(1.22464679914735327E-17,2.00000000000000011E-1,0.00000000000000000E0));
#80=CARTESIAN_POINT('',(1.22464679914735327E-17,2.00000000000000011E-1,1.00000000000000000E1));
#81=(BOUNDED_SURFACE()B_SPLINE_SURFACE(2,1,((#75,#76),(#77,#78),(#79,#80)),.UNSPECIFIED.,.F.,.F.,.F.)B_SPLINE_SURFACE_WITH_KNOTS((3,3),(2,2),(0.00000000000000000E0,1.00000000000000000E0),(0.00000000000000000E0,1.00000000000000000E0),.UNSPECIFIED.)GEOMETRIC_REPRESENTATION_ITEM()RATIONAL_B_SPLINE_SURFACE(((1.00000000000000000E0,1.00000000000000000E0),(7.07106781186547573E-1,7.07106781186547573E-1),(1.00000000000000000E0,1.00000000000000000E0)))REPRESENTATION_ITEM('')SURFACE());
#82=CARTESIAN_POINT('',(1.22464679914735327E-17,2.00000000000000011E-1,0.00000000000000000E0));
#83=CARTESIAN_POINT('',(1.22464679914735327E-17,2.00000000000000011E-1,1.00000000000000000E1));
#84=CARTESIAN_POINT('',(2.00000000000000011E-1,1.99999999999999983E-1,0.00000000000000000E0));
#85=CARTESIAN_POINT('',(2.00000000000000011E-1,1.99999999999999983E-1,1.00000000000000000E1));
#86=CARTESIAN_POINT('',(2.00000000000000011E-1,0.00000000000000000E0,0.00000000000000000E0));
#87=CARTESIAN_POINT('',(2.00000000000000011E-1,0.00000000000000000E0,1.00000000000000000E1));
#88=(BOUNDED_SURFACE()B_SPLINE_SURFACE(2,1,((#82,#83),(#84,#85),(#86,#87)),.UNSPECIFIED.,.F.,.F.,.F.)B_SPLINE_SURFACE_WITH_KNOTS((3,3),(2,2),(0.00000000000000000E0,1.00000000000000000E0),(0.00000000000000000E0,1.00000000000000000E0),.UNSPECIFIED.)GEOMETRIC_REPRESENTATION_ITEM()RATIONAL_B_SPLINE_SURFACE(((1.00000000000000000E0,1.00000000000000000E0),(7.07106781186547573E-1,7.07106781186547573E-1),(1.00000000000000000E0,1.00000000000000000E0)))REPRESENTATION_ITEM('')SURFACE());
#89=CARTESIAN_POINT('',(5.00000000000000000E-1,-5.00000000000000111E-1,0.00000000000000000E0));
#90=CARTESIAN_POINT('',(5.00000000000000000E-1,5.00000000000000000E-1,0.00000000000000000E0));
#91=CARTESIAN_POINT('',(-5.00000000000000111E-1,-5.00000000000000111E-1,0.00000000000000000E0));
#92=CARTESIAN_POINT('',(-5.00000000000000111E-1,5.00000000000000000E-1,0.00000000000000000E0));
#93=B_SPLINE_SURFACE_WITH_KNOTS('',1,1,((#89,#90),(#91,#92)),.UNSPECIFIED.,.F.,.F.,.F.,(2,2),(2,2),(-5.00000000000000111E-1,5.00000000000000000E-1),(-5.00000000000000111E-1,5.00000000000000000E-1),.UNSPECIFIED.);
#94=CARTESIAN_POINT('',(-5.00000000000000111E-1,-5.00000000000000111E-1,1.00000000000000000E1));
#95=CARTESIAN_POINT('',(-5.00000000000000111E-1,5.00000000000000000E-1,1.00000000000000000E1));
#96=CARTESIAN_POINT('',(5.00000000000000000E-1,-5.00000000000000111E-1,1.00000000000000000E1));
#97=CARTESIAN_POINT('',(5.00000000000000000E-1,5.00000000000000000E-1,1.00000000000000000E1));
#98=B_SPLINE_SURFACE_WITH_KNOTS('',1,1,((#94,#95),(#96,#97)),.UNSPECIFIED.,.F.,.F.,.F.,(2,2),(2,2),(-5.00000000000000111E-1,5.00000000000000000E-1),(-5.00000000000000111E-1,5.00000000000000000E-1),.UNSPECIFIED.);
#99=CARTESIAN_POINT('',(5.00000000000000000E-1,0.00000000000000000E0,0.00000000000000000E0));
#100=CARTESIAN_POINT('',(5.00000000000000000E-1,4.99999999999999944E-1,0.00000000000000000E0));
#101=CARTESIAN_POINT('',(3.06161699786838302E-17,5.00000000000000000E-1,0.00000000000000000E0));
#102=(BOUNDED_CURVE()B_SPLINE_CURVE(2,(#99,#100,#101),.UNSPECIFIED.,.F.,.F.)B_SPLINE_CURVE_WITH_KNOTS((3,3),(0.00000000000000000E0,1.00000000000000000E0),.UNSPECIFIED.)CURVE()GEOMETRIC_REPRESENTATION_ITEM()RATIONAL_B_SPLINE_CURVE((1.00000000000000000E0,7.07106781186547573E-1,1.00000000000000000E0))REPRESENTATION_ITEM(''));
#103=CARTESIAN_POINT('',(3.06161699786838302E-17,5.00000000000000000E-1,0.00000000000000000E0));
#104=CARTESIAN_POINT('',(3.06161699786838302E-17,5.00000000000000000E-1,1.00000000000000000E1));
#105=B_SPLINE_CURVE_WITH_KNOTS('',1,(#103,#104),.UNSPECIFIED.,.F.,.F.,(2,2),(0.00000000000000000E0,1.00000000000000000E0),.UNSPECIFIED.);
#106=CARTESIAN_POINT('',(5.00000000000000000E-1,0.00000000000000000E0,1.00000000000000000E1));
#107=CARTESIAN_POINT('',(5.00000000000000000E-1,4.99999999999999944E-1,1.00000000000000000E1));
#108=CARTESIAN_POINT('',(3.06161699786838302E-17,5.00000000000000000E-1,1.00000000000000000E1));
#109=(BOUNDED_CURVE()B_SPLINE_CURVE(2,(#106,#107,#108),.UNSPECIFIED.,.F.,.F.)B_SPLINE_CURVE_WITH_KNOTS((3,3),(0.00000000000000000E0,1.00000000000000000E0),.UNSPECIFIED.)CURVE()GEOMETRIC_REPRESENTATION_ITEM()RATIONAL_B_SPLINE_CURVE((1.00000000000000000E0,7.07106781186547573E-1,1.00000000000000000E0))REPRESENTATION_ITEM(''));
#110=CARTESIAN_POINT('',(5.00000000000000000E-1,0.00000000000000000E0,0.00000000000000000E0));
#111=CARTESIAN_POINT('',(5.00000000000000000E-1,0.00000000000000000E0,1.00000000000000000E1));
#112=B_SPLINE_CURVE_WITH_KNOTS('',1,(#110,#111),.UNSPECIFIED.,.F.,.F.,(2,2),(0.00000000000000000E0,1.00000000000000000E0),.UNSPECIFIED.);
#113=CARTESIAN_POINT('',(3.06161699786838302E-17,5.00000000000000000E-1,0.00000000000000000E0));
#114=CARTESIAN_POINT('',(-4.99999999999999944E-1,5.00000000000000000E-1,0.00000000000000000E0));
#115=CARTESIAN_POINT('',(-5.00000000000000000E-1,6.12323399573676604E-17,0.00000000000000000E0));
#116=(BOUNDED_CURVE()B_SPLINE_CURVE(2,(#113,#114,#115),.UNSPECIFIED.,.F.,.F.)B_SPLINE_CURVE_WITH_KNOTS((3,3),(0.00000000000000000E0,1.00000000000000000E0),.UNSPECIFIED.)CURVE()GEOMETRIC_REPRESENTATION_ITEM()RATIONAL_B_SPLINE_CURVE((1.00000000000000000E0,7.07106781186547573E-1,1.00000000000000000E0))REPRESENTATION_ITEM(''));
#117=CARTESIAN_POINT('',(-5.00000000000000000E-1,6.12323399573676604E-17,0.00000000000000000E0));
#118=CARTESIAN_POINT('',(-5.00000000000000000E-1,6.12323399573676604E-17,1.00000000000000000E1));
#119=B_SPLINE_CURVE_WITH_KNOTS('',1,(#117,#118),.UNSPECIFIED.,.F.,.F.,(2,2),(0.00000000000000000E0,1.00000000000000000E0),.UNSPECIFIED.);
#120=CARTESIAN_POINT('',(3.06161699786838302E-17,5.00000000000000000E-1,1.00000000000000000E1));
#121=CARTESIAN_POINT('',(-4.99999999999999944E-1,5.00000000000000000E-1,1.00000000000000000E1));
#122=CARTESIAN_POINT('',(-5.00000000000000000E-1,6.12323399573676604E-17,1.00000000000000000E1));
#123=(BOUNDED_CURVE()B_SPLINE_CURVE(2,(#120,#121,#122),.UNSPECIFIED.,.F.,.F.)B_SPLINE_CURVE_WITH_KNOTS((3,3),(0.00000000000000000E0,1.00000000000000000E0),.UNSPECIFIED.)CURVE()GEOMETRIC_REPRESENTATION_ITEM()RATIONAL_B_SPLINE_CURVE((1.00000000000000000E0,7.07106781186547573E-1,1.00000000000000000E0))REPRESENTATION_ITEM(''));
#124=CARTESIAN_POINT('',(-5.00000000000000000E-1,6.12323399573676604E-17,0.00000000000000000E0));
#125=CARTESIAN_POINT('',(-5.00000000000000111E-1,-4.99999999999999944E-1,0.00000000000000000E0));
#126=CARTESIAN_POINT('',(-9.18485099360514844E-17,-5.00000000000000000E-1,0.00000000000000000E0));
#127=(BOUNDED_CURVE()B_SPLINE_CURVE(2,(#124,#125,#126),.UNSPECIFIED.,.F.,.F.)B_SPLINE_CURVE_WITH_KNOTS((3,3),(0.00000000000000000E0,1.00000000000000000E0),.UNSPECIFIED.)CURVE()GEOMETRIC_REPRESENTATION_ITEM()RATIONAL_B_SPLINE_CURVE((1.00000000000000000E0,7.07106781186547573E-1,1.00000000000000000E0))REPRESENTATION_ITEM(''));
#128=CARTESIAN_POINT('',(-9.18485099360514844E-17,-5.00000000000000000E-1,0.00000000000000000E0));
#129=CARTESIAN_POINT('',(-9.18485099360514844E-17,-5.00000000000000000E-1,1.00000000000000000E1));
#130=B_SPLINE_CURVE_WITH_KNOTS('',1,(#128,#129),.UNSPECIFIED.,.F.,.F.,(2,2),(0.00000000000000000E0,1.00000000000000000E0),.UNSPECIFIED.);
#131=CARTESIAN_POINT('',(-5.00000000000000000E-1,6.12323399573676604E-17,1.00000000000000000E1));
#132=CARTESIAN_POINT('',(-5.00000000000000111E-1,-4.99999999999999944E-1,1.00000000000000000E1));
#133=CARTESIAN_POINT('',(-9.18485099360514844E-17,-5.00000000000000000E-1,1.00000000000000000E1));
#134=(BOUNDED_CURVE()B_SPLINE_CURVE(2,(#131,#132,#133),.UNSPECIFIED.,.F.,.F.)B_SPLINE_CURVE_WITH_KNOTS((3,3),(0.00000000000000000E0,1.00000000000000000E0),.UNSPECIFIED.)CURVE()GEOMETRIC_REPRESENTATION_ITEM()RATIONAL_B_SPLINE_CURVE((1.00000000000000000E0,7.07106781186547573E-1,1.00000000000000000E0))REPRESENTATION_ITEM(''));
#135=CARTESIAN_POINT('',(5.00000000000000000E-1,0.00000000000000000E0,0.00000000000000000E0));
#136=CARTESIAN_POINT('',(4.99999999999999833E-1,-5.00000000000000111E-1,0.00000000000000000E0));
#137=CARTESIAN_POINT('',(-9.18485099360514844E-17,-5.00000000000000000E-1,0.00000000000000000E0));
#138=(BOUNDED_CURVE()B_SPLINE_CURVE(2,(#135,#136,#137),.UNSPECIFIED.,.F.,.F.)B_SPLINE_CURVE_WITH_KNOTS((3,3),(0.00000000000000000E0,1.00000000000000000E0),.UNSPECIFIED.)CURVE()GEOMETRIC_REPRESENTATION_ITEM()RATIONAL_B_SPLINE_CURVE((1.00000000000000000E0,7.07106781186547573E-1,1.00000000000000000E0))REPRESENTATION_ITEM(''));
#139=CARTESIAN_POINT('',(5.00000000000000000E-1,0.00000000000000000E0,1.00000000000000000E1));
#140=CARTESIAN_POINT('',(4.99999999999999833E-1,-5.00000000000000111E-1,1.00000000000000000E1));
#141=CARTESIAN_POINT('',(-9.18485099360514844E-17,-5.00000000000000000E-1,1.00000000000000000E1));
#142=(BOUNDED_CURVE()B_SPLINE_CURVE(2,(#139,#140,#141),.UNSPECIFIED.,.F.,.F.)B_SPLINE_CURVE_WITH_KNOTS((3,3),(0.00000000000000000E0,1.00000000000000000E0),.UNSPECIFIED.)CURVE()GEOMETRIC_REPRESENTATION_ITEM()RATIONAL_B_SPLINE_CURVE((1.00000000000000000E0,7.07106781186547573E-1,1.00000000000000000E0))REPRESENTATION_ITEM(''));
#143=CARTESIAN_POINT('',(2.00000000000000011E-1,0.00000000000000000E0,0.00000000000000000E0));
#144=CARTESIAN_POINT('',(1.99999999999999956E-1,-2.00000000000000011E-1,0.00000000000000000E0));
#145=CARTESIAN_POINT('',(-3.67394039744205950E-17,-2.00000000000000011E-1,0.00000000000000000E0));
#146=(BOUNDED_CURVE()B_SPLINE_CURVE(2,(#143,#144,#145),.UNSPECIFIED.,.F.,.F.)B_SPLINE_CURVE_WITH_KNOTS((3,3),(0.00000000000000000E0,1.00000000000000000E0),.UNSPECIFIED.)CURVE()GEOMETRIC_REPRESENTATION_ITEM()RATIONAL_B_SPLINE_CURVE((1.00000000000000000E0,7.07106781186547573E-1,1.00000000000000000E0))REPRESENTATION_ITEM(''));
#147=CARTESIAN_POINT('',(-3.67394039744205950E-17,-2.00000000000000011E-1,0.00000000000000000E0));
#148=CARTESIAN_POINT('',(-3.67394039744205950E-17,-2.00000000000000011E-1,1.00000000000000000E1));
#149=B_SPLINE_CURVE_WITH_KNOTS('',1,(#147,#148),.UNSPECIFIED.,.F.,.F.,(2,2),(0.00000000000000000E0,1.00000000000000000E0),.UNSPECIFIED.);
#150=CARTESIAN_POINT('',(2.00000000000000011E-1,0.00000000000000000E0,1.00000000000000000E1));
#151=CARTESIAN_POINT('',(1.99999999999999956E-1,-2.00000000000000011E-1,1.00000000000000000E1));
#152=CARTESIAN_POINT('',(-3.67394039744205950E-17,-2.00000000000000011E-1,1.00000000000000000E1));
#153=(BOUNDED_CURVE()B_SPLINE_CURVE(2,(#150,#151,#152),.UNSPECIFIED.,.F.,.F.)B_SPLINE_CURVE_WITH_KNOTS((3,3),(0.00000000000000000E0,1.00000000000000000E0),.UNSPECIFIED.)CURVE()GEOMETRIC_REPRESENTATION_ITEM()RATIONAL_B_SPLINE_CURVE((1.00000000000000000E0,7.07106781186547573E-1,1.00000000000000000E0))REPRESENTATION_ITEM(''));
#154=CARTESIAN_POINT('',(2.00000000000000011E-1,0.00000000000000000E0,0.00000000000000000E0));
#155=CARTESIAN_POINT('',(2.00000000000000011E-1,0.00000000000000000E0,1.00000000000000000E1));
#156=B_SPLINE_CURVE_WITH_KNOTS('',1,(#154,#155),.UNSPECIFIED.,.F.,.F.,(2,2),(0.00000000000000000E0,1.00000000000000000E0),.UNSPECIFIED.);
#157=CARTESIAN_POINT('',(-3.67394039744205950E-17,-2.00000000000000011E-1,0.00000000000000000E0));
#158=CARTESIAN_POINT('',(-2.00000000000000011E-1,-1.99999999999999983E-1,0.00000000000000000E0));
#159=CARTESIAN_POINT('',(-2.00000000000000011E-1,2.44929359829470654E-17,0.00000000000000000E0));
#160=(BOUNDED_CURVE()B_SPLINE_CURVE(2,(#157,#158,#159),.UNSPECIFIED.,.F.,.F.)B_SPLINE_CURVE_WITH_KNOTS((3,3),(0.00000000000000000E0,1.00000000000000000E0),.UNSPECIFIED.)CURVE()GEOMETRIC_REPRESENTATION_ITEM()RATIONAL_B_SPLINE_CURVE((1.00000000000000000E0,7.07106781186547573E-1,1.00000000000000000E0))REPRESENTATION_ITEM(''));
#161=CARTESIAN_POINT('',(-2.00000000000000011E-1,2.44929359829470654E-17,0.00000000000000000E0));
#162=CARTESIAN_POINT('',(-2.00000000000000011E-1,2.44929359829470654E-17,1.00000000000000000E1));
#163=B_SPLINE_CURVE_WITH_KNOTS('',1,(#161,#162),.UNSPECIFIED.,.F.,.F.,(2,2),(0.00000000000000000E0,1.00000000000000000E0),.UNSPECIFIED.);
#164=CARTESIAN_POINT('',(-3.67394039744205950E-17,-2.00000000000000011E-1,1.00000000000000000E1));
#165=CARTESIAN_POINT('',(-2.00000000000000011E-1,-1.99999999999999983E-1,1.00000000000000000E1));
#166=CARTESIAN_POINT('',(-2.00000000000000011E-1,2.44929359829470654E-17,1.00000000000000000E1));
#167=(BOUNDED_CURVE()B_SPLINE_CURVE(2,(#164,#165,#166),.UNSPECIFIED.,.F.,.F.)B_SPLINE_CURVE_WITH_KNOTS((3,3),(0.00000000000000000E0,1.00000000000000000E0),.UNSPECIFIED.)CURVE()GEOMETRIC_REPRESENTATION_ITEM()RATIONAL_B_SPLINE_CURVE((1.00000000000000000E0,7.07106781186547573E-1,1.00000000000000000E0))REPRESENTATION_ITEM(''));
#168=CARTESIAN_POINT('',(-2.00000000000000011E-1,2.44929359829470654E-17,0.00000000000000000E0));
#169=CARTESIAN_POINT('',(-1.99999999999999983E-1,2.00000000000000011E-1,0.00000000000000000E0));
#170=CARTESIAN_POINT('',(1.22464679914735327E-17,2.00000000000000011E-1,0.00000000000000000E0));
#171=(BOUNDED_CURVE()B_SPLINE_CURVE(2,(#168,#169,#170),.UNSPECIFIED.,.F.,.F.)B_SPLINE_CURVE_WITH_KNOTS((3,3),(0.00000000000000000E0,1.00000000000000000E0),.UNSPECIFIED.)CURVE()GEOMETRIC_REPRESENTATION_ITEM()RATIONAL_B_SPLINE_CURVE((1.00000000000000000E0,7.07106781186547573E-1,1.00000000000000000E0))REPRESENTATION_ITEM(''));
#172=CARTESIAN_POINT('',(1.22464679914735327E-17,2.00000000000000011E-1,0.00000000000000000E0));
#173=CARTESIAN_POINT('',(1.22464679914735327E-17,2.00000000000000011E-1,1.00000000000000000E1));
#174=B_SPLINE_CURVE_WITH_KNOTS('',1,(#172,#173),.UNSPECIFIED.,.F.,.F.,(2,2),(0.00000000000000000E0,1.00000000000000000E0),.UNSPECIFIED.);
#175=CARTESIAN_POINT('',(-2.00000000000000011E-1,2.44929359829470654E-17,1.00000000000000000E1));
#176=CARTESIAN_POINT('',(-1.99999999999999983E-1,2.00000000000000011E-1,1.00000000000000000E1));
#177=CARTESIAN_POINT('',(1.22464679914735327E-17,2.00000000000000011E-1,1.00000000000000000E1));
#178=(BOUNDED_CURVE()B_SPLINE_CURVE(2,(#175,#176,#177),.UNSPECIFIED.,.F.,.F.)B_SPLINE_CURVE_WITH_KNOTS((3,3),(0.00000000000000000E0,1.00000000000000000E0),.UNSPECIFIED.)CURVE()GEOMETRIC_REPRESENTATION_ITEM()RATIONAL_B_SPLINE_CURVE((1.00000000000000000E0,7.07106781186547573E-1,1.00000000000000000E0))REPRESENTATION_ITEM(''));
#179=CARTESIAN_POINT('',(2.00000000000000011E-1,0.00000000000000000E0,0.00000000000000000E0));
#180=CARTESIAN_POINT('',(2.00000000000000011E-1,1.99999999999999983E-1,0.00000000000000000E0));
#181=CARTESIAN_POINT('',(1.22464679914735327E-17,2.00000000000000011E-1,0.00000000000000000E0));
#182=(BOUNDED_CURVE()B_SPLINE_CURVE(2,(#179,#180,#181),.UNSPECIFIED.,.F.,.F.)B_SPLINE_CURVE_WITH_KNOTS((3,3),(0.00000000000000000E0,1.00000000000000000E0),.UNSPECIFIED.)CURVE()GEOMETRIC_REPRESENTATION_ITEM()RATIONAL_B_SPLINE_CURVE((1.00000000000000000E0,7.07106781186547573E-1,1.00000000000000000E0))REPRESENTATION_ITEM(''));
#183=CARTESIAN_POINT('',(2.00000000000000011E-1,0.00000000000000000E0,1.00000000000000000E1));
#184=CARTESIAN_POINT('',(2.00000000000000011E-1,1.99999999999999983E-1,1.00000000000000000E1));
#185=CARTESIAN_POINT('',(1.22464679914735327E-17,2.00000000000000011E-1,1.00000000000000000E1));
#186=(BOUNDED_CURVE()B_SPLINE_CURVE(2,(#183,#184,#185),.UNSPECIFIED.,.F.,.F.)B_SPLINE_CURVE_WITH_KNOTS((3,3),(0.00000000000000000E0,1.00000000000000000E0),.UNSPECIFIED.)CURVE()GEOMETRIC_REPRESENTATION_ITEM()RATIONAL_B_SPLINE_CURVE((1.00000000000000000E0,7.07106781186547573E-1,1.00000000000000000E0))REPRESENTATION_ITEM(''));
#187=(GEOMETRIC_REPRESENTATION_CONTEXT(2)REPRESENTATION_CONTEXT('','2D'));
#188=CARTESIAN_POINT('',(0.00000000000000000E0,0.00000000000000000E0));
#189=CARTESIAN_POINT('',(1.00000000000000000E0,0.00000000000000000E0));
#190=B_SPLINE_CURVE_WITH_KNOTS('',1,(#188,#189),.UNSPECIFIED.,.F.,.F.,(2,2),(0.00000000000000000E0,1.00000000000000000E0),.UNSPECIFIED.);
#191=DEFINITIONAL_REPRESENTATION('',(#190),#187);
#192=PCURVE('',#39,#191);
#193=CARTESIAN_POINT('',(1.00000000000000000E0,0.00000000000000000E0));
#194=CARTESIAN_POINT('',(1.00000000000000000E0,1.00000000000000000E0));
#195=B_SPLINE_CURVE_WITH_KNOTS('',1,(#193,#194),.UNSPECIFIED.,.F.,.F.,(2,2),(0.00000000000000000E0,1.00000000000000000E0),.UNSPECIFIED.);
#196=DEFINITIONAL_REPRESENTATION('',(#195),#187);
#197=PCURVE('',#39,#196);
#198=CARTESIAN_POINT('',(1.00000000000000000E0,1.00000000000000000E0));
#199=CARTESIAN_POINT('',(0.00000000000000000E0,1.00000000000000000E0));
#200=B_SPLINE_CURVE_WITH_KNOTS('',1,(#198,#199),.UNSPECIFIED.,.F.,.F.,(2,2),(0.00000000000000000E0,1.00000000000000000E0),.UNSPECIFIED.);
#201=DEFINITIONAL_REPRESENTATION('',(#200),#187);
#202=PCURVE('',#39,#201);
#203=CARTESIAN_POINT('',(0.00000000000000000E0,1.00000000000000000E0));
#204=CARTESIAN_POINT('',(0.00000000000000000E0,0.00000000000000000E0));
#205=B_SPLINE_CURVE_WITH_KNOTS('',1,(#203,#204),.UNSPECIFIED.,.F.,.F.,(2,2),(0.00000000000000000E0,1.00000000000000000E0),.UNSPECIFIED.);
#206=DEFINITIONAL_REPRESENTATION('',(#205),#187);
#207=PCURVE('',#39,#206);
#208=CARTESIAN_POINT('',(0.00000000000000000E0,0.00000000000000000E0));
#209=CARTESIAN_POINT('',(1.00000000000000000E0,0.00000000000000000E0));
#210=B_SPLINE_CURVE_WITH_KNOTS('',1,(#208,#209),.UNSPECIFIED.,.F.,.F.,(2,2),(0.00000000000000000E0,1.00000000000000000E0),.UNSPECIFIED.);
#211=DEFINITIONAL_REPRESENTATION('',(#210),#187);
#212=PCURVE('',#46,#211);
#213=CARTESIAN_POINT('',(1.00000000000000000E0,0.00000000000000000E0));
#214=CARTESIAN_POINT('',(1.00000000000000000E0,1.00000000000000000E0));
#215=B_SPLINE_CURVE_WITH_KNOTS('',1,(#213,#214),.UNSPECIFIED.,.F.,.F.,(2,2),(0.00000000000000000E0,1.00000000000000000E0),.UNSPECIFIED.);
#216=DEFINITIONAL_REPRESENTATION('',(#215),#187);
#217=PCURVE('',#46,#216);
#218=CARTESIAN_POINT('',(1.00000000000000000E0,1.00000000000000000E0));
#219=CARTESIAN_POINT('',(0.00000000000000000E0,1.00000000000000000E0));
#220=B_SPLINE_CURVE_WITH_KNOTS('',1,(#218,#219),.UNSPECIFIED.,.F.,.F.,(2,2),(0.00000000000000000E0,1.00000000000000000E0),.UNSPECIFIED.);
#221=DEFINITIONAL_REPRESENTATION('',(#220),#187);
#222=PCURVE('',#46,#221);
#223=CARTESIAN_POINT('',(0.00000000000000000E0,1.00000000000000000E0));
#224=CARTESIAN_POINT('',(0.00000000000000000E0,0.00000000000000000E0));
#225=B_SPLINE_CURVE_WITH_KNOTS('',1,(#223,#224),.UNSPECIFIED.,.F.,.F.,(2,2),(0.00000000000000000E0,1.00000000000000000E0),.UNSPECIFIED.);
#226=DEFINITIONAL_REPRESENTATION('',(#225),#187);
#227=PCURVE('',#46,#226);
#228=CARTESIAN_POINT('',(0.00000000000000000E0,0.00000000000000000E0));
#229=CARTESIAN_POINT('',(1.00000000000000000E0,0.00000000000000000E0));
#230=B_SPLINE_CURVE_WITH_KNOTS('',1,(#228,#229),.UNSPECIFIED.,.F.,.F.,(2,2),(0.00000000000000000E0,1.00000000000000000E0),.UNSPECIFIED.);
#231=DEFINITIONAL_REPRESENTATION('',(#230),#187);
#232=PCURVE('',#53,#231);
#233=CARTESIAN_POINT('',(1.00000000000000000E0,0.00000000000000000E0));
#234=CARTESIAN_POINT('',(1.00000000000000000E0,1.00000000000000000E0));
#235=B_SPLINE_CURVE_WITH_KNOTS('',1,(#233,#234),.UNSPECIFIED.,.F.,.F.,(2,2),(0.00000000000000000E0,1.00000000000000000E0),.UNSPECIFIED.);
#236=DEFINITIONAL_REPRESENTATION('',(#235),#187);
#237=PCURVE('',#53,#236);
#238=CARTESIAN_POINT('',(1.00000000000000000E0,1.00000000000000000E0));
#239=CARTESIAN_POINT('',(0.00000000000000000E0,1.00000000000000000E0));
#240=B_SPLINE_CURVE_WITH_KNOTS('',1,(#238,#239),.UNSPECIFIED.,.F.,.F.,(2,2),(0.00000000000000000E0,1.00000000000000000E0),.UNSPECIFIED.);
#241=DEFINITIONAL_REPRESENTATION('',(#240),#187);
#242=PCURVE('',#53,#241);
#243=CARTESIAN_POINT('',(0.00000000000000000E0,1.00000000000000000E0));
#244=CARTESIAN_POINT('',(0.00000000000000000E0,0.00000000000000000E0));
#245=B_SPLINE_CURVE_WITH_KNOTS('',1,(#243,#244),.UNSPECIFIED.,.F.,.F.,(2,2),(0.00000000000000000E0,1.00000000000000000E0),.UNSPECIFIED.);
#246=DEFINITIONAL_REPRESENTATION('',(#245),#187);
#247=PCURVE('',#53,#246);
#248=CARTESIAN_POINT('',(0.00000000000000000E0,0.00000000000000000E0));
#249=CARTESIAN_POINT('',(1.00000000000000000E0,0.00000000000000000E0));
#250=B_SPLINE_CURVE_WITH_KNOTS('',1,(#248,#249),.UNSPECIFIED.,.F.,.F.,(2,2),(0.00000000000000000E0,1.00000000000000000E0),.UNSPECIFIED.);
#251=DEFINITIONAL_REPRESENTATION('',(#250),#187);
#252=PCURVE('',#60,#251);
#253=CARTESIAN_POINT('',(1.00000000000000000E0,0.00000000000000000E0));
#254=CARTESIAN_POINT('',(1.00000000000000000E0,1.00000000000000000E0));
#255=B_SPLINE_CURVE_WITH_KNOTS('',1,(#253,#254),.UNSPECIFIED.,.F.,.F.,(2,2),(0.00000000000000000E0,1.00000000000000000E0),.UNSPECIFIED.);
#256=DEFINITIONAL_REPRESENTATION('',(#255),#187);
#257=PCURVE('',#60,#256);
#258=CARTESIAN_POINT('',(1.00000000000000000E0,1.00000000000000000E0));
#259=CARTESIAN_POINT('',(0.00000000000000000E0,1.00000000000000000E0));
#260=B_SPLINE_CURVE_WITH_KNOTS('',1,(#258,#259),.UNSPECIFIED.,.F.,.F.,(2,2),(0.00000000000000000E0,1.00000000000000000E0),.UNSPECIFIED.);
#261=DEFINITIONAL_REPRESENTATION('',(#260),#187);
#262=PCURVE('',#60,#261);
#263=CARTESIAN_POINT('',(0.00000000000000000E0,1.00000000000000000E0));
#264=CARTESIAN_POINT('',(0.00000000000000000E0,0.00000000000000000E0));
#265=B_SPLINE_CURVE_WITH_KNOTS('',1,(#263,#264),.UNSPECIFIED.,.F.,.F.,(2,2),(0.00000000000000000E0,1.00000000000000000E0),.UNSPECIFIED.);
#266=DEFINITIONAL_REPRESENTATION('',(#265),#187);
#267=PCURVE('',#60,#266);
#268=CARTESIAN_POINT('',(0.00000000000000000E0,0.00000000000000000E0));
#269=CARTESIAN_POINT('',(1.00000000000000000E0,0.00000000000000000E0));
#270=B_SPLINE_CURVE_WITH_KNOTS('',1,(#268,#269),.UNSPECIFIED.,.F.,.F.,(2,2),(0.00000000000000000E0,1.00000000000000000E0),.UNSPECIFIED.);
#271=DEFINITIONAL_REPRESENTATION('',(#270),#187);
#272=PCURVE('',#67,#271);
#273=CARTESIAN_POINT('',(1.00000000000000000E0,0.00000000000000000E0));
#274=CARTESIAN_POINT('',(1.00000000000000000E0,1.00000000000000000E0));
#275=B_SPLINE_CURVE_WITH_KNOTS('',1,(#273,#274),.UNSPECIFIED.,.F.,.F.,(2,2),(0.00000000000000000E0,1.00000000000000000E0),.UNSPECIFIED.);
#276=DEFINITIONAL_REPRESENTATION('',(#275),#187);
#277=PCURVE('',#67,#276);
#278=CARTESIAN_POINT('',(1.00000000000000000E0,1.00000000000000000E0));
#279=CARTESIAN_POINT('',(0.00000000000000000E0,1.00000000000000000E0));
#280=B_SPLINE_CURVE_WITH_KNOTS('',1,(#278,#279),.UNSPECIFIED.,.F.,.F.,(2,2),(0.00000000000000000E0,1.00000000000000000E0),.UNSPECIFIED.);
#281=DEFINITIONAL_REPRESENTATION('',(#280),#187);
#282=PCURVE('',#67,#281);
#283=CARTESIAN_POINT('',(0.00000000000000000E0,1.00000000000000000E0));
#284=CARTESIAN_POINT('',(0.00000000000000000E0,0.00000000000000000E0));
#285=B_SPLINE_CURVE_WITH_KNOTS('',1,(#283,#284),.UNSPECIFIED.,.F.,.F.,(2,2),(0.00000000000000000E0,1.00000000000000000E0),.UNSPECIFIED.);
#286=DEFINITIONAL_REPRESENTATION('',(#285),#187);
#287=PCURVE('',#67,#286);
#288=CARTESIAN_POINT('',(0.00000000000000000E0,0.00000000000000000E0));
#289=CARTESIAN_POINT('',(1.00000000000000000E0,0.00000000000000000E0));
#290=B_SPLINE_CURVE_WITH_KNOTS('',1,(#288,#289),.UNSPECIFIED.,.F.,.F.,(2,2),(0.00000000000000000E0,1.00000000000000000E0),.UNSPECIFIED.);
#291=DEFINITIONAL_REPRESENTATION('',(#290),#187);
#292=PCURVE('',#74,#291);
#293=CARTESIAN_POINT('',(1.00000000000000000E0,0.00000000000000000E0));
#294=CARTESIAN_POINT('',(1.00000000000000000E0,1.00000000000000000E0));
#295=B_SPLINE_CURVE_WITH_KNOTS('',1,(#293,#294),.UNSPECIFIED.,.F.,.F.,(2,2),(0.00000000000000000E0,1.00000000000000000E0),.UNSPECIFIED.);
#296=DEFINITIONAL_REPRESENTATION('',(#295),#187);
#297=PCURVE('',#74,#296);
#298=CARTESIAN_POINT('',(1.00000000000000000E0,1.00000000000000000E0));
#299=CARTESIAN_POINT('',(0.00000000000000000E0,1.00000000000000000E0));
#300=B_SPLINE_CURVE_WITH_KNOTS('',1,(#298,#299),.UNSPECIFIED.,.F.,.F.,(2,2),(0.00000000000000000E0,1.00000000000000000E0),.UNSPECIFIED.);
#301=DEFINITIONAL_REPRESENTATION('',(#300),#187);
#302=PCURVE('',#74,#301);
#303=CARTESIAN_POINT('',(0.00000000000000000E0,1.00000000000000000E0));
#304=CARTESIAN_POINT('',(0.00000000000000000E0,0.00000000000000000E0));
#305=B_SPLINE_CURVE_WITH_KNOTS('',1,(#303,#304),.UNSPECIFIED.,.F.,.F.,(2,2),(0.00000000000000000E0,1.00000000000000000E0),.UNSPECIFIED.);
#306=DEFINITIONAL_REPRESENTATION('',(#305),#187);
#307=PCURVE('',#74,#306);
#308=CARTESIAN_POINT('',(0.00000000000000000E0,0.00000000000000000E0));
#309=CARTESIAN_POINT('',(1.00000000000000000E0,0.00000000000000000E0));
#310=B_SPLINE_CURVE_WITH_KNOTS('',1,(#308,#309),.UNSPECIFIED.,.F.,.F.,(2,2),(0.00000000000000000E0,1.00000000000000000E0),.UNSPECIFIED.);
#311=DEFINITIONAL_REPRESENTATION('',(#310),#187);
#312=PCURVE('',#81,#311);
#313=CARTESIAN_POINT('',(1.00000000000000000E0,0.00000000000000000E0));
#314=CARTESIAN_POINT('',(1.00000000000000000E0,1.00000000000000000E0));
#315=B_SPLINE_CURVE_WITH_KNOTS('',1,(#313,#314),.UNSPECIFIED.,.F.,.F.,(2,2),(0.00000000000000000E0,1.00000000000000000E0),.UNSPECIFIED.);
#316=DEFINITIONAL_REPRESENTATION('',(#315),#187);
#317=PCURVE('',#81,#316);
#318=CARTESIAN_POINT('',(1.00000000000000000E0,1.00000000000000000E0));
#319=CARTESIAN_POINT('',(0.00000000000000000E0,1.00000000000000000E0));
#320=B_SPLINE_CURVE_WITH_KNOTS('',1,(#318,#319),.UNSPECIFIED.,.F.,.F.,(2,2),(0.00000000000000000E0,1.00000000000000000E0),.UNSPECIFIED.);
#321=DEFINITIONAL_REPRESENTATION('',(#320),#187);
#322=PCURVE('',#81,#321);
#323=CARTESIAN_POINT('',(0.00000000000000000E0,1.00000000000000000E0));
#324=CARTESIAN_POINT('',(0.00000000000000000E0,0.00000000000000000E0));
#325=B_SPLINE_CURVE_WITH_KNOTS('',1,(#323,#324),.UNSPECIFIED.,.F.,.F.,(2,2),(0.00000000000000000E0,1.00000000000000000E0),.UNSPECIFIED.);
#326=DEFINITIONAL_REPRESENTATION('',(#325),#187);
#327=PCURVE('',#81,#326);
#328=CARTESIAN_POINT('',(0.00000000000000000E0,0.00000000000000000E0));
#329=CARTESIAN_POINT('',(1.00000000000000000E0,0.00000000000000000E0));
#330=B_SPLINE_CURVE_WITH_KNOTS('',1,(#328,#329),.UNSPECIFIED.,.F.,.F.,(2,2),(0.00000000000000000E0,1.00000000000000000E0),.UNSPECIFIED.);
#331=DEFINITIONAL_REPRESENTATION('',(#330),#187);
#332=PCURVE('',#88,#331);
#333=CARTESIAN_POINT('',(1.00000000000000000E0,0.00000000000000000E0));
#334=CARTESIAN_POINT('',(1.00000000000000000E0,1.00000000000000000E0));
#335=B_SPLINE_CURVE_WITH_KNOTS('',1,(#333,#334),.UNSPECIFIED.,.F.,.F.,(2,2),(0.00000000000000000E0,1.00000000000000000E0),.UNSPECIFIED.);
#336=DEFINITIONAL_REPRESENTATION('',(#335),#187);
#337=PCURVE('',#88,#336);
#338=CARTESIAN_POINT('',(1.00000000000000000E0,1.00000000000000000E0));
#339=CARTESIAN_POINT('',(0.00000000000000000E0,1.00000000000000000E0));
#340=B_SPLINE_CURVE_WITH_KNOTS('',1,(#338,#339),.UNSPECIFIED.,.F.,.F.,(2,2),(0.00000000000000000E0,1.00000000000000000E0),.UNSPECIFIED.);
#341=DEFINITIONAL_REPRESENTATION('',(#340),#187);
#342=PCURVE('',#88,#341);
#343=CARTESIAN_POINT('',(0.00000000000000000E0,1.00000000000000000E0));
#344=CARTESIAN_POINT('',(0.00000000000000000E0,0.00000000000000000E0));
#345=B_SPLINE_CURVE_WITH_KNOTS('',1,(#343,#344),.UNSPECIFIED.,.F.,.F.,(2,2),(0.00000000000000000E0,1.00000000000000000E0),.UNSPECIFIED.);
#346=DEFINITIONAL_REPRESENTATION('',(#345),#187);
#347=PCURVE('',#88,#346);
#348=CARTESIAN_POINT('',(-5.00000000000000111E-1,0.00000000000000000E0));
#349=CARTESIAN_POINT('',(-4.99999999999999944E-1,-5.00000000000000111E-1));
#350=CARTESIAN_POINT('',(-1.91737925264641697E-17,-5.00000000000000000E-1));
#351=(BOUNDED_CURVE()B_SPLINE_CURVE(2,(#348,#349,#350),.UNSPECIFIED.,.F.,.F.)B_SPLINE_CURVE_WITH_KNOTS((3,3),(0.00000000000000000E0,1.00000000000000000E0),.UNSPECIFIED.)CURVE()GEOMETRIC_REPRESENTATION_ITEM()RATIONAL_B_SPLINE_CURVE((1.00000000000000000E0,7.07106781186547573E-1,1.00000000000000000E0))REPRESENTATION_ITEM(''));
#352=DEFINITIONAL_REPRESENTATION('',(#351),#187);
#353=PCURVE('',#93,#352);
#354=CARTESIAN_POINT('',(-1.91737925264641697E-17,-5.00000000000000000E-1));
#355=CARTESIAN_POINT('',(5.00000000000000000E-1,-4.99999999999999944E-1));
#356=CARTESIAN_POINT('',(4.99999999999999889E-1,6.12323399573676604E-17));
#357=(BOUNDED_CURVE()B_SPLINE_CURVE(2,(#354,#355,#356),.UNSPECIFIED.,.F.,.F.)B_SPLINE_CURVE_WITH_KNOTS((3,3),(0.00000000000000000E0,1.00000000000000000E0),.UNSPECIFIED.)CURVE()GEOMETRIC_REPRESENTATION_ITEM()RATIONAL_B_SPLINE_CURVE((1.00000000000000000E0,7.07106781186547573E-1,1.00000000000000000E0))REPRESENTATION_ITEM(''));
#358=DEFINITIONAL_REPRESENTATION('',(#357),#187);
#359=PCURVE('',#93,#358);
#360=CARTESIAN_POINT('',(4.99999999999999889E-1,6.12323399573676604E-17));
#361=CARTESIAN_POINT('',(4.99999999999999833E-1,5.00000000000000000E-1));
#362=CARTESIAN_POINT('',(-1.41638472441199490E-16,5.00000000000000000E-1));
#363=(BOUNDED_CURVE()B_SPLINE_CURVE(2,(#360,#361,#362),.UNSPECIFIED.,.F.,.F.)B_SPLINE_CURVE_WITH_KNOTS((3,3),(0.00000000000000000E0,1.00000000000000000E0),.UNSPECIFIED.)CURVE()GEOMETRIC_REPRESENTATION_ITEM()RATIONAL_B_SPLINE_CURVE((1.00000000000000000E0,7.07106781186547573E-1,1.00000000000000000E0))REPRESENTATION_ITEM(''));
#364=DEFINITIONAL_REPRESENTATION('',(#363),#187);
#365=PCURVE('',#93,#364);
#366=CARTESIAN_POINT('',(-1.41638472441199490E-16,5.00000000000000000E-1));
#367=CARTESIAN_POINT('',(-5.00000000000000111E-1,4.99999999999999944E-1));
#368=CARTESIAN_POINT('',(-5.00000000000000111E-1,0.00000000000000000E0));
#369=(BOUNDED_CURVE()B_SPLINE_CURVE(2,(#366,#367,#368),.UNSPECIFIED.,.F.,.F.)B_SPLINE_CURVE_WITH_KNOTS((3,3),(0.00000000000000000E0,1.00000000000000000E0),.UNSPECIFIED.)CURVE()GEOMETRIC_REPRESENTATION_ITEM()RATIONAL_B_SPLINE_CURVE((1.00000000000000000E0,7.07106781186547573E-1,1.00000000000000000E0))REPRESENTATION_ITEM(''));
#370=DEFINITIONAL_REPRESENTATION('',(#369),#187);
#371=PCURVE('',#93,#370);
#372=CARTESIAN_POINT('',(-2.00000000000000122E-1,0.00000000000000000E0));
#373=CARTESIAN_POINT('',(-2.00000000000000122E-1,1.99999999999999983E-1));
#374=CARTESIAN_POINT('',(-1.23268770453989184E-16,2.00000000000000011E-1));
#375=(BOUNDED_CURVE()B_SPLINE_CURVE(2,(#372,#373,#374),.UNSPECIFIED.,.F.,.F.)B_SPLINE_CURVE_WITH_KNOTS((3,3),(0.00000000000000000E0,1.00000000000000000E0),.UNSPECIFIED.)CURVE()GEOMETRIC_REPRESENTATION_ITEM()RATIONAL_B_SPLINE_CURVE((1.00000000000000000E0,7.07106781186547573E-1,1.00000000000000000E0))REPRESENTATION_ITEM(''));
#376=DEFINITIONAL_REPRESENTATION('',(#375),#187);
#377=PCURVE('',#93,#376);
#378=CARTESIAN_POINT('',(-1.23268770453989184E-16,2.00000000000000011E-1));
#379=CARTESIAN_POINT('',(1.99999999999999872E-1,2.00000000000000011E-1));
#380=CARTESIAN_POINT('',(1.99999999999999900E-1,2.44929359829470654E-17));
#381=(BOUNDED_CURVE()B_SPLINE_CURVE(2,(#378,#379,#380),.UNSPECIFIED.,.F.,.F.)B_SPLINE_CURVE_WITH_KNOTS((3,3),(0.00000000000000000E0,1.00000000000000000E0),.UNSPECIFIED.)CURVE()GEOMETRIC_REPRESENTATION_ITEM()RATIONAL_B_SPLINE_CURVE((1.00000000000000000E0,7.07106781186547573E-1,1.00000000000000000E0))REPRESENTATION_ITEM(''));
#382=DEFINITIONAL_REPRESENTATION('',(#381),#187);
#383=PCURVE('',#93,#382);
#384=CARTESIAN_POINT('',(1.99999999999999900E-1,2.44929359829470654E-17));
#385=CARTESIAN_POINT('',(1.99999999999999900E-1,-1.99999999999999983E-1));
#386=CARTESIAN_POINT('',(-7.42828984880950652E-17,-2.00000000000000011E-1));
#387=(BOUNDED_CURVE()B_SPLINE_CURVE(2,(#384,#385,#386),.UNSPECIFIED.,.F.,.F.)B_SPLINE_CURVE_WITH_KNOTS((3,3),(0.00000000000000000E0,1.00000000000000000E0),.UNSPECIFIED.)CURVE()GEOMETRIC_REPRESENTATION_ITEM()RATIONAL_B_SPLINE_CURVE((1.00000000000000000E0,7.07106781186547573E-1,1.00000000000000000E0))REPRESENTATION_ITEM(''));
#388=DEFINITIONAL_REPRESENTATION('',(#387),#187);
#389=PCURVE('',#93,#388);
#390=CARTESIAN_POINT('',(-7.42828984880950652E-17,-2.00000000000000011E-1));
#391=CARTESIAN_POINT('',(-2.00000000000000067E-1,-2.00000000000000011E-1));
#392=CARTESIAN_POINT('',(-2.00000000000000122E-1,0.00000000000000000E0));
#393=(BOUNDED_CURVE()B_SPLINE_CURVE(2,(#390,#391,#392),.UNSPECIFIED.,.F.,.F.)B_SPLINE_CURVE_WITH_KNOTS((3,3),(0.00000000000000000E0,1.00000000000000000E0),.UNSPECIFIED.)CURVE()GEOMETRIC_REPRESENTATION_ITEM()RATIONAL_B_SPLINE_CURVE((1.00000000000000000E0,7.07106781186547573E-1,1.00000000000000000E0))REPRESENTATION_ITEM(''));
#394=DEFINITIONAL_REPRESENTATION('',(#393),#187);
#395=PCURVE('',#93,#394);
#396=CARTESIAN_POINT('',(5.00000000000000000E-1,0.00000000000000000E0));
#397=CARTESIAN_POINT('',(5.00000000000000000E-1,4.99999999999999944E-1));
#398=CARTESIAN_POINT('',(3.06161699786838302E-17,5.00000000000000000E-1));
#399=(BOUNDED_CURVE()B_SPLINE_CURVE(2,(#396,#397,#398),.UNSPECIFIED.,.F.,.F.)B_SPLINE_CURVE_WITH_KNOTS((3,3),(0.00000000000000000E0,1.00000000000000000E0),.UNSPECIFIED.)CURVE()GEOMETRIC_REPRESENTATION_ITEM()RATIONAL_B_SPLINE_CURVE((1.00000000000000000E0,7.07106781186547573E-1,1.00000000000000000E0))REPRESENTATION_ITEM(''));
#400=DEFINITIONAL_REPRESENTATION('',(#399),#187);
#401=PCURVE('',#98,#400);
#402=CARTESIAN_POINT('',(3.06161699786838302E-17,5.00000000000000000E-1));
#403=CARTESIAN_POINT('',(-4.99999999999999944E-1,5.00000000000000000E-1));
#404=CARTESIAN_POINT('',(-5.00000000000000000E-1,6.12323399573676604E-17));
#405=(BOUNDED_CURVE()B_SPLINE_CURVE(2,(#402,#403,#404),.UNSPECIFIED.,.F.,.F.)B_SPLINE_CURVE_WITH_KNOTS((3,3),(0.00000000000000000E0,1.00000000000000000E0),.UNSPECIFIED.)CURVE()GEOMETRIC_REPRESENTATION_ITEM()RATIONAL_B_SPLINE_CURVE((1.00000000000000000E0,7.07106781186547573E-1,1.00000000000000000E0))REPRESENTATION_ITEM(''));
#406=DEFINITIONAL_REPRESENTATION('',(#405),#187);
#407=PCURVE('',#98,#406);
#408=CARTESIAN_POINT('',(-5.00000000000000000E-1,6.12323399573676604E-17));
#409=CARTESIAN_POINT('',(-5.00000000000000111E-1,-4.99999999999999944E-1));
#410=CARTESIAN_POINT('',(-9.18485099360514844E-17,-5.00000000000000000E-1));
#411=(BOUNDED_CURVE()B_SPLINE_CURVE(2,(#408,#409,#410),.UNSPECIFIED.,.F.,.F.)B_SPLINE_CURVE_WITH_KNOTS((3,3),(0.00000000000000000E0,1.00000000000000000E0),.UNSPECIFIED.)CURVE()GEOMETRIC_REPRESENTATION_ITEM()RATIONAL_B_SPLINE_CURVE((1.00000000000000000E0,7.07106781186547573E-1,1.00000000000000000E0))REPRESENTATION_ITEM(''));
#412=DEFINITIONAL_REPRESENTATION('',(#411),#187);
#413=PCURVE('',#98,#412);
#414=CARTESIAN_POINT('',(-9.18485099360514844E-17,-5.00000000000000000E-1));
#415=CARTESIAN_POINT('',(4.99999999999999833E-1,-5.00000000000000111E-1));
#416=CARTESIAN_POINT('',(5.00000000000000000E-1,0.00000000000000000E0));
#417=(BOUNDED_CURVE()B_SPLINE_CURVE(2,(#414,#415,#416),.UNSPECIFIED.,.F.,.F.)B_SPLINE_CURVE_WITH_KNOTS((3,3),(0.00000000000000000E0,1.00000000000000000E0),.UNSPECIFIED.)CURVE()GEOMETRIC_REPRESENTATION_ITEM()RATIONAL_B_SPLINE_CURVE((1.00000000000000000E0,7.07106781186547573E-1,1.00000000000000000E0))REPRESENTATION_ITEM(''));
#418=DEFINITIONAL_REPRESENTATION('',(#417),#187);
#419=PCURVE('',#98,#418);
#420=CARTESIAN_POINT('',(2.00000000000000011E-1,0.00000000000000000E0));
#421=CARTESIAN_POINT('',(1.99999999999999956E-1,-2.00000000000000011E-1));
#422=CARTESIAN_POINT('',(-3.67394039744205950E-17,-2.00000000000000011E-1));
#423=(BOUNDED_CURVE()B_SPLINE_CURVE(2,(#420,#421,#422),.UNSPECIFIED.,.F.,.F.)B_SPLINE_CURVE_WITH_KNOTS((3,3),(0.00000000000000000E0,1.00000000000000000E0),.UNSPECIFIED.)CURVE()GEOMETRIC_REPRESENTATION_ITEM()RATIONAL_B_SPLINE_CURVE((1.00000000000000000E0,7.07106781186547573E-1,1.00000000000000000E0))REPRESENTATION_ITEM(''));
#424=DEFINITIONAL_REPRESENTATION('',(#423),#187);
#425=PCURVE('',#98,#424);
#426=CARTESIAN_POINT('',(-3.67394039744205950E-17,-2.00000000000000011E-1));
#427=CARTESIAN_POINT('',(-2.00000000000000011E-1,-1.99999999999999983E-1));
#428=CARTESIAN_POINT('',(-2.00000000000000011E-1,2.44929359829470654E-17));
#429=(BOUNDED_CURVE()B_SPLINE_CURVE(2,(#426,#427,#428),.UNSPECIFIED.,.F.,.F.)B_SPLINE_CURVE_WITH_KNOTS((3,3),(0.00000000000000000E0,1.00000000000000000E0),.UNSPECIFIED.)CURVE()GEOMETRIC_REPRESENTATION_ITEM()RATIONAL_B_SPLINE_CURVE((1.00000000000000000E0,7.07106781186547573E-1,1.00000000000000000E0))REPRESENTATION_ITEM(''));
#430=DEFINITIONAL_REPRESENTATION('',(#429),#187);
#431=PCURVE('',#98,#430);
#432=CARTESIAN_POINT('',(-2.00000000000000011E-1,2.44929359829470654E-17));
#433=CARTESIAN_POINT('',(-1.99999999999999983E-1,2.00000000000000011E-1));
#434=CARTESIAN_POINT('',(1.22464679914735327E-17,2.00000000000000011E-1));
#435=(BOUNDED_CURVE()B_SPLINE_CURVE(2,(#432,#433,#434),.UNSPECIFIED.,.F.,.F.)B_SPLINE_CURVE_WITH_KNOTS((3,3),(0.00000000000000000E0,1.00000000000000000E0),.UNSPECIFIED.)CURVE()GEOMETRIC_REPRESENTATION_ITEM()RATIONAL_B_SPLINE_CURVE((1.00000000000000000E0,7.07106781186547573E-1,1.00000000000000000E0))REPRESENTATION_ITEM(''));
#436=DEFINITIONAL_REPRESENTATION('',(#435),#187);
#437=PCURVE('',#98,#436);
#438=CARTESIAN_POINT('',(1.22464679914735327E-17,2.00000000000000011E-1));
#439=CARTESIAN_POINT('',(2.00000000000000011E-1,1.99999999999999983E-1));
#440=CARTESIAN_POINT('',(2.00000000000000011E-1,0.00000000000000000E0));
#441=(BOUNDED_CURVE()B_SPLINE_CURVE(2,(#438,#439,#440),.UNSPECIFIED.,.F.,.F.)B_SPLINE_CURVE_WITH_KNOTS((3,3),(0.00000000000000000E0,1.00000000000000000E0),.UNSPECIFIED.)CURVE()GEOMETRIC_REPRESENTATION_ITEM()RATIONAL_B_SPLINE_CURVE((1.00000000000000000E0,7.07106781186547573E-1,1.00000000000000000E0))REPRESENTATION_ITEM(''));
#442=DEFINITIONAL_REPRESENTATION('',(#441),#187);
#443=PCURVE('',#98,#442);
#444=SURFACE_CURVE('',#102,(#192,#371),.PCURVE_S1.);
#445=EDGE_CURVE('OSCAD_TOPO/3|edge|e:ecf1b12ed6ad74f6c77cb45c9dc6c4da|798a1aa3b2807230b856835c6bb2f7e8452b1feea34c53ce6cd9a7cab922ce90',#2,#4,#444,.T.);
#446=SURFACE_CURVE('',#105,(#197,#227),.PCURVE_S1.);
#447=EDGE_CURVE('OSCAD_TOPO/3|edge|e:4f87da0e862fd31e16fa784fef484192|a33afa3758a2560e5fb1a939ed883a766c038aa6dc822ad10d04812c31e55b1b',#4,#20,#446,.T.);
#448=SURFACE_CURVE('',#109,(#202,#401),.PCURVE_S1.);
#449=EDGE_CURVE('OSCAD_TOPO/3|edge|e:9781326d22d47dcff3e21c6ffa76d9c1|828c05d84d01b563d62181b7446e7b320d30fef6a166b338e76ec2d1400f49b5',#18,#20,#448,.T.);
#450=SURFACE_CURVE('',#112,(#207,#257),.PCURVE_S1.);
#451=EDGE_CURVE('OSCAD_TOPO/3|edge|e:c02f4d42022ebe2cf5315a4716879d14|a82bbec4251882d56ae0b0dc3513d6e8dcdb741d86e09b185e3100cca9a33265',#2,#18,#450,.T.);
#452=SURFACE_CURVE('',#116,(#212,#365),.PCURVE_S1.);
#453=EDGE_CURVE('OSCAD_TOPO/3|edge|e:b1eb984a899d917edd9ea5f8623bc165|eb1c4630063dab9c5b8889f940b190a92ae455f79d98ab83bb8ff145d95137fb',#4,#6,#452,.T.);
#454=SURFACE_CURVE('',#119,(#217,#247),.PCURVE_S1.);
#455=EDGE_CURVE('OSCAD_TOPO/3|edge|e:e6b8a236b468b043f995e390450d7c4c|d40e560a2613011050ed21b2d6dda06b8b60ab481f07e4b525ab56c91247cc14',#6,#22,#454,.T.);
#456=SURFACE_CURVE('',#123,(#222,#407),.PCURVE_S1.);
#457=EDGE_CURVE('OSCAD_TOPO/3|edge|e:5ccff7172b3cf34064b420334c8ed55d|334a757a3e902790be17deb40c4ae8c4b35f424bfc8c0cf5f5d0d4bb1cffda5c',#20,#22,#456,.T.);
#458=SURFACE_CURVE('',#127,(#232,#359),.PCURVE_S1.);
#459=EDGE_CURVE('OSCAD_TOPO/3|edge|e:f573d60595d294e9716540ac62e3d347|8a46ef0ea03162dfe8a37fffdc62cf813c6693ecea03065189390ae12d227775',#6,#8,#458,.T.);
#460=SURFACE_CURVE('',#130,(#237,#267),.PCURVE_S1.);
#461=EDGE_CURVE('OSCAD_TOPO/3|edge|e:8409e0265b2f280bd6cce37dce988789|83b864ca495a8ae306fea33cfd1b920b1b09f0fed82513b169eb83be56fd08fc',#8,#24,#460,.T.);
#462=SURFACE_CURVE('',#134,(#242,#413),.PCURVE_S1.);
#463=EDGE_CURVE('OSCAD_TOPO/3|edge|e:458a367d3d9c27bb23e85e63e4cab2e1|0a503747e331682917d0eae824e38e8b044a2f9c8c052a0a4dea6fc142f2fc94',#22,#24,#462,.T.);
#464=SURFACE_CURVE('',#138,(#252,#353),.PCURVE_S1.);
#465=EDGE_CURVE('OSCAD_TOPO/3|edge|e:3077fa64708764bb7fbee01a97905007|377da2a56da639313d0e5947c5bf2916e6fabfc052b4c499dba67ce8b6d7a4ea',#2,#8,#464,.T.);
#466=SURFACE_CURVE('',#142,(#262,#419),.PCURVE_S1.);
#467=EDGE_CURVE('OSCAD_TOPO/3|edge|e:caed91bbf00f09e982fd07ad47dfb426|6dcf999c2108f8a42b276dfd15c8a18ba92e60f92d0570de8f9cd8660651fd61',#18,#24,#466,.T.);
#468=SURFACE_CURVE('',#146,(#272,#395),.PCURVE_S1.);
#469=EDGE_CURVE('OSCAD_TOPO/3|edge|e:d562ddb03928ec888a8b6948693807ee|b09ec289fa2dfef998cbb84a71b8bd219261a3768357857a41829e070573f2ed',#10,#12,#468,.T.);
#470=SURFACE_CURVE('',#149,(#277,#307),.PCURVE_S1.);
#471=EDGE_CURVE('OSCAD_TOPO/3|edge|e:cc9e15ed7415d715e89657433551b884|3bb5368db17d455a5e974313babfc4ef1a89e73e1a80978e5b801da9275a3dbb',#12,#28,#470,.T.);
#472=SURFACE_CURVE('',#153,(#282,#425),.PCURVE_S1.);
#473=EDGE_CURVE('OSCAD_TOPO/3|edge|e:51522acd5c72f818e4ea200603160902|d9399d5fd326197bab45cd8cf94234e59f179a11aa167975615b59015c4ec488',#26,#28,#472,.T.);
#474=SURFACE_CURVE('',#156,(#287,#337),.PCURVE_S1.);
#475=EDGE_CURVE('OSCAD_TOPO/3|edge|e:110a46b9bc6dc01a270f06cf520846eb|99a77c013652d9c7dac0699b3903c55e3c55270a58d5b7f434beb0f8b634ac43',#10,#26,#474,.T.);
#476=SURFACE_CURVE('',#160,(#292,#389),.PCURVE_S1.);
#477=EDGE_CURVE('OSCAD_TOPO/3|edge|e:490cc21e00865165cfc10b257c735ee7|dd1d73359fc50e91417744bc25c4bcb1f28a08a713e6ec9552a01c665ec5daa7',#12,#14,#476,.T.);
#478=SURFACE_CURVE('',#163,(#297,#327),.PCURVE_S1.);
#479=EDGE_CURVE('OSCAD_TOPO/3|edge|e:1555eaafdaddfd01b17b57c98db7f1c7|8959b1c35a21840c5dee6fb7dddf83e41f2e27debf6ff184f5b46296aa3f1f70',#14,#30,#478,.T.);
#480=SURFACE_CURVE('',#167,(#302,#431),.PCURVE_S1.);
#481=EDGE_CURVE('OSCAD_TOPO/3|edge|e:5d6146e8ce109ef15f76b50337bdd4ad|065c991a9cf77ce204e8865dd66f30d969217580a64756820a089911358ad7ca',#28,#30,#480,.T.);
#482=SURFACE_CURVE('',#171,(#312,#383),.PCURVE_S1.);
#483=EDGE_CURVE('OSCAD_TOPO/3|edge|e:2ae2954a11d494fb59ccf89f9468b3c1|c52ed26b63559f03b17e93eddd1ac282529e5f5fb223aa4abdc6f3868589ce0c',#14,#16,#482,.T.);
#484=SURFACE_CURVE('',#174,(#317,#347),.PCURVE_S1.);
#485=EDGE_CURVE('OSCAD_TOPO/3|edge|e:5c25bd39272fbcd23da93ace8993682d|4fda308f400ed6465af34c60412e05bb6a2bdaded70a6d60cac63828bb21bfce',#16,#32,#484,.T.);
#486=SURFACE_CURVE('',#178,(#322,#437),.PCURVE_S1.);
#487=EDGE_CURVE('OSCAD_TOPO/3|edge|e:2aa920a7ddde13177be5cb2c8f579e84|67d4fb1ef2a6497d6bc18bc317c64c980db4cd39ac448fe5794ab6112b3ed885',#30,#32,#486,.T.);
#488=SURFACE_CURVE('',#182,(#332,#377),.PCURVE_S1.);
#489=EDGE_CURVE('OSCAD_TOPO/3|edge|e:89631ea4431ef2fc6642584298369811|431eaf6c0889ded964bc64c3887f1ab688dda149ab4bc0e80720b76aec0c5c19',#10,#16,#488,.T.);
#490=SURFACE_CURVE('',#186,(#342,#443),.PCURVE_S1.);
#491=EDGE_CURVE('OSCAD_TOPO/3|edge|e:abb9b13d3a39440b119a33c8d4fd8641|47f70b5764298ed138d4dfbdea6e6ebf273569ad0f00d566a97f0e20ce10d886',#26,#32,#490,.T.);
#492=ORIENTED_EDGE('',*,*,#445,.T.);
#493=ORIENTED_EDGE('',*,*,#447,.T.);
#494=ORIENTED_EDGE('',*,*,#449,.F.);
#495=ORIENTED_EDGE('',*,*,#451,.F.);
#496=EDGE_LOOP('OSCAD_TOPO/3|loop|l:ea62f32c7f829d445cdba24f09c3cabc|fb10abd3a9281c756c7f35bb8ab6476ef55d7783ca529840163d435e8c209efa',(#492,#493,#494,#495));
#497=ORIENTED_EDGE('',*,*,#453,.T.);
#498=ORIENTED_EDGE('',*,*,#455,.T.);
#499=ORIENTED_EDGE('',*,*,#457,.F.);
#500=ORIENTED_EDGE('',*,*,#447,.F.);
#501=EDGE_LOOP('OSCAD_TOPO/3|loop|l:14cd438b68578dd79a05bf1bd2b126ca|477ce498c9440173715ee6cb705e8d5a3ad25fee75e74eefb2cfd4fc2661852f',(#497,#498,#499,#500));
#502=ORIENTED_EDGE('',*,*,#459,.T.);
#503=ORIENTED_EDGE('',*,*,#461,.T.);
#504=ORIENTED_EDGE('',*,*,#463,.F.);
#505=ORIENTED_EDGE('',*,*,#455,.F.);
#506=EDGE_LOOP('OSCAD_TOPO/3|loop|l:cacac27fd1231710c3e52cd72f68de27|ae48e3ee1985c3da5d59136a7aa315e8e3cefbf8e9c42ed94e9f104dfbb512e0',(#502,#503,#504,#505));
#507=ORIENTED_EDGE('',*,*,#465,.F.);
#508=ORIENTED_EDGE('',*,*,#451,.T.);
#509=ORIENTED_EDGE('',*,*,#467,.T.);
#510=ORIENTED_EDGE('',*,*,#461,.F.);
#511=EDGE_LOOP('OSCAD_TOPO/3|loop|l:f68f05df987d8d259aed1d39394afb2f|1d4ea870599480224718ae867a6aeb77a2ace4facb357fac9a4543edfe90b72a',(#507,#508,#509,#510));
#512=ORIENTED_EDGE('',*,*,#469,.T.);
#513=ORIENTED_EDGE('',*,*,#471,.T.);
#514=ORIENTED_EDGE('',*,*,#473,.F.);
#515=ORIENTED_EDGE('',*,*,#475,.F.);
#516=EDGE_LOOP('OSCAD_TOPO/3|loop|l:e5732fd5a4fb3b084912b08c8c2b24d9|151fcd02338343064992dcaa42630cad6470d465152e8d2610e4c28081052008',(#512,#513,#514,#515));
#517=ORIENTED_EDGE('',*,*,#477,.T.);
#518=ORIENTED_EDGE('',*,*,#479,.T.);
#519=ORIENTED_EDGE('',*,*,#481,.F.);
#520=ORIENTED_EDGE('',*,*,#471,.F.);
#521=EDGE_LOOP('OSCAD_TOPO/3|loop|l:64ebe168ecfafb1ed19e68718804ddc4|78507e7481e77d51bd523b21986cabec851f4e36d2952429e1dd7ef507eaa09b',(#517,#518,#519,#520));
#522=ORIENTED_EDGE('',*,*,#483,.T.);
#523=ORIENTED_EDGE('',*,*,#485,.T.);
#524=ORIENTED_EDGE('',*,*,#487,.F.);
#525=ORIENTED_EDGE('',*,*,#479,.F.);
#526=EDGE_LOOP('OSCAD_TOPO/3|loop|l:360c3f5aa0e26b8dc4c3cbffd89c2e8e|f2c0e16c535f63ede8b03dcef9917631478942f1ddc9204f121762bef22f8d46',(#522,#523,#524,#525));
#527=ORIENTED_EDGE('',*,*,#489,.F.);
#528=ORIENTED_EDGE('',*,*,#475,.T.);
#529=ORIENTED_EDGE('',*,*,#491,.T.);
#530=ORIENTED_EDGE('',*,*,#485,.F.);
#531=EDGE_LOOP('OSCAD_TOPO/3|loop|l:551f6d6afd5f0a4a2b96ea7e913c7dd1|4abaf83b116d20f747d2b71e5e5153a73e9ac93a6c28472edf9e5fe14f25f5e2',(#527,#528,#529,#530));
#532=ORIENTED_EDGE('',*,*,#465,.T.);
#533=ORIENTED_EDGE('',*,*,#459,.F.);
#534=ORIENTED_EDGE('',*,*,#453,.F.);
#535=ORIENTED_EDGE('',*,*,#445,.F.);
#536=EDGE_LOOP('OSCAD_TOPO/3|loop|l:1029766e0aaf9653127e35cebe88198c|1c63f01d9ab8ac71e8d9818cd883c4f7025baadf73be7f6dfde5ea7b6c32aed5',(#532,#533,#534,#535));
#537=ORIENTED_EDGE('',*,*,#489,.T.);
#538=ORIENTED_EDGE('',*,*,#483,.F.);
#539=ORIENTED_EDGE('',*,*,#477,.F.);
#540=ORIENTED_EDGE('',*,*,#469,.F.);
#541=EDGE_LOOP('OSCAD_TOPO/3|loop|l:3652e8b5c30439567e3300fb44829145|dfa123e7c627ed9ed4321c4e5f194ccb8952fec13eff21778c7111b8c9f599ff',(#537,#538,#539,#540));
#542=ORIENTED_EDGE('',*,*,#449,.T.);
#543=ORIENTED_EDGE('',*,*,#457,.T.);
#544=ORIENTED_EDGE('',*,*,#463,.T.);
#545=ORIENTED_EDGE('',*,*,#467,.F.);
#546=EDGE_LOOP('OSCAD_TOPO/3|loop|l:81206bd57c6e8ec8ba73ebf93ce54ba3|f166524c3e5b72a1237e633fea380dc526d7c8f7eb8b047a6995a5935fc9c7b8',(#542,#543,#544,#545));
#547=ORIENTED_EDGE('',*,*,#473,.T.);
#548=ORIENTED_EDGE('',*,*,#481,.T.);
#549=ORIENTED_EDGE('',*,*,#487,.T.);
#550=ORIENTED_EDGE('',*,*,#491,.F.);
#551=EDGE_LOOP('OSCAD_TOPO/3|loop|l:9b07c5374cdee231b0466f1f39d79b48|bad67200a75a55780dc6ed0cf6eda6c444935605479a65e3f865b844086c4ef2',(#547,#548,#549,#550));
#552=FACE_OUTER_BOUND('',#496,.T.);
#553=ADVANCED_FACE('OSCAD_TOPO/3|face|f:44e17347de60954f1258d4f617dd6d6c|7f673bc8529a6c0e514daa9c697c71dcd089baf4011476c023d4217d2d160af0',(#552),#39,.T.);
#554=FACE_OUTER_BOUND('',#501,.T.);
#555=ADVANCED_FACE('OSCAD_TOPO/3|face|f:8661f252952fc4889ae404e5a19b5e8d|8146d698ea4dff9904dcad423eb196c10d1c7a1e8f51fc179cfde6fd49e0988a',(#554),#46,.T.);
#556=FACE_OUTER_BOUND('',#506,.T.);
#557=ADVANCED_FACE('OSCAD_TOPO/3|face|f:d902a67001bd22106fcbd9c4ab714744|e641303713c749abd7a147d8c026d49e4930b4bc9c3d32ec1c6eca5a337fc560',(#556),#53,.T.);
#558=FACE_OUTER_BOUND('',#511,.T.);
#559=ADVANCED_FACE('OSCAD_TOPO/3|face|f:5e9b1706e884b4802ced0f55dfbda170|d69028fa40816b7e26a140f2ce3c53141240043e1d170d7580cafb394a94377b',(#558),#60,.T.);
#560=FACE_OUTER_BOUND('',#516,.T.);
#561=ADVANCED_FACE('OSCAD_TOPO/3|face|f:c47bb746238ebf892d2296d8f2217096|cc167edb808cf8fd90ef4b5ea12470c0490bae913ede8d50d5b30a5b42dc4931',(#560),#67,.T.);
#562=FACE_OUTER_BOUND('',#521,.T.);
#563=ADVANCED_FACE('OSCAD_TOPO/3|face|f:55681e61cde3ed68f0f12b525b62d7f9|490dc059fb9d13e777e82fb38d3f3ca9cea1ab6dc3e19b1b295b775c7c43133e',(#562),#74,.T.);
#564=FACE_OUTER_BOUND('',#526,.T.);
#565=ADVANCED_FACE('OSCAD_TOPO/3|face|f:952673bb7cfffa60d8c1d93e17236962|2cf47c70ddf61c545d1fd15dca0532343a28af6e4d439d18d480a16dcc9f9499',(#564),#81,.T.);
#566=FACE_OUTER_BOUND('',#531,.T.);
#567=ADVANCED_FACE('OSCAD_TOPO/3|face|f:69b15185201051a748b2879947e8b0c7|31fd4b13deb0008e8611c565d777685de41d4a5541eaa3d9ff9681dc458eb6df',(#566),#88,.T.);
#568=FACE_OUTER_BOUND('',#536,.T.);
#569=FACE_BOUND('',#541,.T.);
#570=ADVANCED_FACE('OSCAD_TOPO/3|face|f:a700131c0018b47ed488203031b8f099|7a2f32f645364c6f36b94c68013db3c30e1c3d898453a559222a87551bee2fd0',(#568,#569),#93,.T.);
#571=FACE_OUTER_BOUND('',#546,.T.);
#572=FACE_BOUND('',#551,.T.);
#573=ADVANCED_FACE('OSCAD_TOPO/3|face|f:9509171277495c135a76f8f88cf8fdbb|3a04ade796d45a7149c8244e505432657bc25ca1d945f8a58e82592b1b2eb548',(#571,#572),#98,.T.);
#574=CLOSED_SHELL('OSCAD_TOPO/3|shell|s:ccf9d91c80e5edcfbb2a8a30f36c28b8|da8e8762f2ffd07fbed21d452c3f3b9695b9e9a9b6cc69c7f32aa52c875138aa',(#553,#555,#557,#559,#561,#563,#565,#567,#570,#573));
#575=MANIFOLD_SOLID_BREP('OSCAD_TOPO/3|body|b:2bc470cf988b7980fedb580727328256|91572586d5b91fec0a0f8d65ad7da9ff6680424cc67c89613b6467c827af6dcd',#574);
#576=(LENGTH_UNIT()NAMED_UNIT(*)SI_UNIT(.MILLI.,.METRE.));
#577=UNCERTAINTY_MEASURE_WITH_UNIT(LENGTH_MEASURE(9.99999999999999955E-8),#576,'distance_accuracy_value','');
#578=(GEOMETRIC_REPRESENTATION_CONTEXT(3)GLOBAL_UNCERTAINTY_ASSIGNED_CONTEXT((#577))GLOBAL_UNIT_ASSIGNED_CONTEXT((#576))REPRESENTATION_CONTEXT('','3D'));
#579=ADVANCED_BREP_SHAPE_REPRESENTATION('',(#575),#578);
#580=APPLICATION_CONTEXT('managed model based 3d engineering');
#581=PRODUCT_CONTEXT('',#580,'mechanical');
#582=PRODUCT('model','model','',(#581));
#583=PRODUCT_DEFINITION_FORMATION('1','',#582);
#584=PRODUCT_DEFINITION_CONTEXT('part definition',#580,'design');
#585=PRODUCT_DEFINITION('design','',#583,#584);
#586=PRODUCT_DEFINITION_SHAPE('','',#585);
#587=SHAPE_DEFINITION_REPRESENTATION(#586,#579);
ENDSEC;
END-ISO-10303-21;
