ISO-10303-21;
HEADER;
FILE_DESCRIPTION(('OpenSCAD Viewer retained AP242 B-rep'),'2;1');
FILE_NAME('model.step','',(''),(''),'OpenSCAD Viewer','OpenSCAD Viewer','');
FILE_SCHEMA(('AP242_MANAGED_MODEL_BASED_3D_ENGINEERING_MIM_LF'));
ENDSEC;
DATA;
#1=CARTESIAN_POINT('',(2.00000000000000000E0,0.00000000000000000E0,0.00000000000000000E0));
#2=VERTEX_POINT('OSCAD_TOPO/3|vertex|v:220e6fc475a9da38f53af60746604ed2|1dcac6380df9c51f2f20175abf4c52a78bcefb465c10760b4c3387485c81df72',#1);
#3=CARTESIAN_POINT('',(0.00000000000000000E0,2.00000000000000000E0,0.00000000000000000E0));
#4=VERTEX_POINT('OSCAD_TOPO/3|vertex|v:4da6a71bbd8682eea7476dfa8a111789|e58bff6b40d40faf3355976d3273446059fc0dd6c216a01efa7bae6850e9fb03',#3);
#5=CARTESIAN_POINT('',(0.00000000000000000E0,2.00000000000000000E0,2.00000000000000000E0));
#6=VERTEX_POINT('OSCAD_TOPO/3|vertex|v:9e386eaff1cee729fb7860270309eac2|5c255bc3ba7c946f53fa5fb29e05f47f1f6833e9af18301d68d529aeefff3040',#5);
#7=CARTESIAN_POINT('',(2.00000000000000000E0,0.00000000000000000E0,2.00000000000000000E0));
#8=VERTEX_POINT('OSCAD_TOPO/3|vertex|v:8453b7774f1abafb3204713d102fc812|120c2829a0f4b1b6df0b6bb8c6c81d3c37edf2a135a188720ea86df4b7b510a9',#7);
#9=CARTESIAN_POINT('',(2.00000000000000000E0,0.00000000000000000E0,0.00000000000000000E0));
#10=CARTESIAN_POINT('',(2.00000000000000000E0,0.00000000000000000E0,3.33333333333333426E-1));
#11=CARTESIAN_POINT('',(2.00000000000000000E0,0.00000000000000000E0,6.66666666666666741E-1));
#12=CARTESIAN_POINT('',(2.00000000000000000E0,0.00000000000000000E0,1.00000000000000000E0));
#13=CARTESIAN_POINT('',(2.00000000000000000E0,0.00000000000000000E0,1.33333333333333370E0));
#14=CARTESIAN_POINT('',(2.00000000000000000E0,0.00000000000000000E0,1.66666666666666674E0));
#15=CARTESIAN_POINT('',(2.00000000000000000E0,0.00000000000000000E0,2.00000000000000000E0));
#16=CARTESIAN_POINT('',(2.00000000000000000E0,1.17157287525380993E0,0.00000000000000000E0));
#17=CARTESIAN_POINT('',(2.00000000000000000E0,1.17157287525380993E0,3.33333333333333426E-1));
#18=CARTESIAN_POINT('',(2.00000000000000000E0,1.17157287525380993E0,6.66666666666666630E-1));
#19=CARTESIAN_POINT('',(2.00000000000000000E0,1.17157287525380993E0,1.00000000000000000E0));
#20=CARTESIAN_POINT('',(2.00000000000000000E0,1.17157287525380993E0,1.33333333333333370E0));
#21=CARTESIAN_POINT('',(2.00000000000000000E0,1.17157287525380993E0,1.66666666666666674E0));
#22=CARTESIAN_POINT('',(2.00000000000000000E0,1.17157287525380993E0,2.00000000000000000E0));
#23=CARTESIAN_POINT('',(1.17157287525380971E0,2.00000000000000000E0,0.00000000000000000E0));
#24=CARTESIAN_POINT('',(1.17157287525380971E0,2.00000000000000000E0,3.33333333333333426E-1));
#25=CARTESIAN_POINT('',(1.17157287525380971E0,2.00000000000000000E0,6.66666666666666630E-1));
#26=CARTESIAN_POINT('',(1.17157287525380971E0,2.00000000000000000E0,1.00000000000000000E0));
#27=CARTESIAN_POINT('',(1.17157287525380971E0,2.00000000000000000E0,1.33333333333333370E0));
#28=CARTESIAN_POINT('',(1.17157287525380971E0,2.00000000000000000E0,1.66666666666666674E0));
#29=CARTESIAN_POINT('',(1.17157287525380971E0,2.00000000000000000E0,2.00000000000000000E0));
#30=CARTESIAN_POINT('',(2.28847549044393334E-17,2.00000000000000000E0,0.00000000000000000E0));
#31=CARTESIAN_POINT('',(2.28847549044393334E-17,2.00000000000000000E0,3.33333333333333426E-1));
#32=CARTESIAN_POINT('',(2.28847549044393334E-17,2.00000000000000000E0,6.66666666666666741E-1));
#33=CARTESIAN_POINT('',(2.28847549044393334E-17,2.00000000000000000E0,1.00000000000000000E0));
#34=CARTESIAN_POINT('',(2.28847549044393334E-17,2.00000000000000000E0,1.33333333333333370E0));
#35=CARTESIAN_POINT('',(2.28847549044393334E-17,2.00000000000000000E0,1.66666666666666674E0));
#36=CARTESIAN_POINT('',(2.28847549044393334E-17,2.00000000000000000E0,2.00000000000000000E0));
#37=(BOUNDED_SURFACE()B_SPLINE_SURFACE(3,3,((#9,#10,#11,#12,#13,#14,#15),(#16,#17,#18,#19,#20,#21,#22),(#23,#24,#25,#26,#27,#28,#29),(#30,#31,#32,#33,#34,#35,#36)),.UNSPECIFIED.,.F.,.F.,.F.)B_SPLINE_SURFACE_WITH_KNOTS((4,4),(4,3,4),(0.00000000000000000E0,1.00000000000000000E0),(0.00000000000000000E0,5.00000000000000000E-1,1.00000000000000000E0),.UNSPECIFIED.)GEOMETRIC_REPRESENTATION_ITEM()RATIONAL_B_SPLINE_SURFACE(((1.00000000000000000E0,1.00000000000000000E0,1.00000000000000000E0,1.00000000000000000E0,1.00000000000000000E0,1.00000000000000000E0,1.00000000000000000E0),(8.04737854124365048E-1,8.04737854124365048E-1,8.04737854124365048E-1,8.04737854124365048E-1,8.04737854124365048E-1,8.04737854124365048E-1,8.04737854124365048E-1),(8.04737854124365048E-1,8.04737854124365048E-1,8.04737854124365048E-1,8.04737854124365048E-1,8.04737854124365048E-1,8.04737854124365048E-1,8.04737854124365048E-1),(1.00000000000000000E0,1.00000000000000000E0,1.00000000000000000E0,1.00000000000000000E0,1.00000000000000000E0,1.00000000000000000E0,1.00000000000000000E0)))REPRESENTATION_ITEM('')SURFACE());
#38=CARTESIAN_POINT('',(2.00000000000000000E0,0.00000000000000000E0,0.00000000000000000E0));
#39=CARTESIAN_POINT('',(2.00000000000000000E0,1.17157287525380993E0,0.00000000000000000E0));
#40=CARTESIAN_POINT('',(1.17157287525380971E0,2.00000000000000000E0,0.00000000000000000E0));
#41=CARTESIAN_POINT('',(2.28847549044393334E-17,2.00000000000000000E0,0.00000000000000000E0));
#42=(BOUNDED_CURVE()B_SPLINE_CURVE(3,(#38,#39,#40,#41),.UNSPECIFIED.,.F.,.F.)B_SPLINE_CURVE_WITH_KNOTS((4,4),(0.00000000000000000E0,1.00000000000000000E0),.UNSPECIFIED.)CURVE()GEOMETRIC_REPRESENTATION_ITEM()RATIONAL_B_SPLINE_CURVE((1.00000000000000000E0,8.04737854124365048E-1,8.04737854124365048E-1,1.00000000000000000E0))REPRESENTATION_ITEM(''));
#43=CARTESIAN_POINT('',(0.00000000000000000E0,2.00000000000000000E0,0.00000000000000000E0));
#44=CARTESIAN_POINT('',(0.00000000000000000E0,2.00000000000000000E0,3.33333333333333426E-1));
#45=CARTESIAN_POINT('',(0.00000000000000000E0,2.00000000000000000E0,6.66666666666666741E-1));
#46=CARTESIAN_POINT('',(0.00000000000000000E0,2.00000000000000000E0,1.00000000000000000E0));
#47=CARTESIAN_POINT('',(0.00000000000000000E0,2.00000000000000000E0,1.33333333333333370E0));
#48=CARTESIAN_POINT('',(0.00000000000000000E0,2.00000000000000000E0,1.66666666666666674E0));
#49=CARTESIAN_POINT('',(0.00000000000000000E0,2.00000000000000000E0,2.00000000000000000E0));
#50=B_SPLINE_CURVE_WITH_KNOTS('',3,(#43,#44,#45,#46,#47,#48,#49),.UNSPECIFIED.,.F.,.F.,(4,3,4),(0.00000000000000000E0,5.00000000000000000E-1,1.00000000000000000E0),.UNSPECIFIED.);
#51=CARTESIAN_POINT('',(2.28847549044393334E-17,2.00000000000000000E0,2.00000000000000000E0));
#52=CARTESIAN_POINT('',(1.17157287525380971E0,2.00000000000000000E0,2.00000000000000000E0));
#53=CARTESIAN_POINT('',(2.00000000000000000E0,1.17157287525380993E0,2.00000000000000000E0));
#54=CARTESIAN_POINT('',(2.00000000000000000E0,0.00000000000000000E0,2.00000000000000000E0));
#55=(BOUNDED_CURVE()B_SPLINE_CURVE(3,(#51,#52,#53,#54),.UNSPECIFIED.,.F.,.F.)B_SPLINE_CURVE_WITH_KNOTS((4,4),(0.00000000000000000E0,1.00000000000000000E0),.UNSPECIFIED.)CURVE()GEOMETRIC_REPRESENTATION_ITEM()RATIONAL_B_SPLINE_CURVE((1.00000000000000000E0,8.04737854124365048E-1,8.04737854124365048E-1,1.00000000000000000E0))REPRESENTATION_ITEM(''));
#56=CARTESIAN_POINT('',(2.00000000000000000E0,0.00000000000000000E0,2.00000000000000000E0));
#57=CARTESIAN_POINT('',(2.00000000000000000E0,0.00000000000000000E0,1.66666666666666674E0));
#58=CARTESIAN_POINT('',(2.00000000000000000E0,0.00000000000000000E0,1.33333333333333370E0));
#59=CARTESIAN_POINT('',(2.00000000000000000E0,0.00000000000000000E0,1.00000000000000000E0));
#60=CARTESIAN_POINT('',(2.00000000000000000E0,0.00000000000000000E0,6.66666666666666741E-1));
#61=CARTESIAN_POINT('',(2.00000000000000000E0,0.00000000000000000E0,3.33333333333333426E-1));
#62=CARTESIAN_POINT('',(2.00000000000000000E0,0.00000000000000000E0,0.00000000000000000E0));
#63=B_SPLINE_CURVE_WITH_KNOTS('',3,(#56,#57,#58,#59,#60,#61,#62),.UNSPECIFIED.,.F.,.F.,(4,3,4),(0.00000000000000000E0,5.00000000000000000E-1,1.00000000000000000E0),.UNSPECIFIED.);
#64=(GEOMETRIC_REPRESENTATION_CONTEXT(2)REPRESENTATION_CONTEXT('','2D'));
#65=CARTESIAN_POINT('',(0.00000000000000000E0,0.00000000000000000E0));
#66=CARTESIAN_POINT('',(1.00000000000000000E0,0.00000000000000000E0));
#67=B_SPLINE_CURVE_WITH_KNOTS('',1,(#65,#66),.UNSPECIFIED.,.F.,.F.,(2,2),(0.00000000000000000E0,1.00000000000000000E0),.UNSPECIFIED.);
#68=DEFINITIONAL_REPRESENTATION('',(#67),#64);
#69=PCURVE('',#37,#68);
#70=CARTESIAN_POINT('',(1.00000000000000000E0,0.00000000000000000E0));
#71=CARTESIAN_POINT('',(1.00000000000000000E0,1.00000000000000000E0));
#72=B_SPLINE_CURVE_WITH_KNOTS('',1,(#70,#71),.UNSPECIFIED.,.F.,.F.,(2,2),(0.00000000000000000E0,1.00000000000000000E0),.UNSPECIFIED.);
#73=DEFINITIONAL_REPRESENTATION('',(#72),#64);
#74=PCURVE('',#37,#73);
#75=CARTESIAN_POINT('',(1.00000000000000000E0,1.00000000000000000E0));
#76=CARTESIAN_POINT('',(0.00000000000000000E0,1.00000000000000000E0));
#77=B_SPLINE_CURVE_WITH_KNOTS('',1,(#75,#76),.UNSPECIFIED.,.F.,.F.,(2,2),(0.00000000000000000E0,1.00000000000000000E0),.UNSPECIFIED.);
#78=DEFINITIONAL_REPRESENTATION('',(#77),#64);
#79=PCURVE('',#37,#78);
#80=CARTESIAN_POINT('',(0.00000000000000000E0,1.00000000000000000E0));
#81=CARTESIAN_POINT('',(0.00000000000000000E0,0.00000000000000000E0));
#82=B_SPLINE_CURVE_WITH_KNOTS('',1,(#80,#81),.UNSPECIFIED.,.F.,.F.,(2,2),(0.00000000000000000E0,1.00000000000000000E0),.UNSPECIFIED.);
#83=DEFINITIONAL_REPRESENTATION('',(#82),#64);
#84=PCURVE('',#37,#83);
#85=SURFACE_CURVE('',#42,(#69),.PCURVE_S1.);
#86=EDGE_CURVE('OSCAD_TOPO/3|edge|e:3ba4e046306a041a1e259507d5efe4eb|36029a0961795e28bffccda97fdcb06a75466453314ab32b7f5ac7f563456d1f',#2,#4,#85,.T.);
#87=SURFACE_CURVE('',#50,(#74),.PCURVE_S1.);
#88=EDGE_CURVE('OSCAD_TOPO/3|edge|e:d9fa39d4734f879ab03aa0a887a3b1fe|e14f77fd805b71de41fd40e487730290824dcc9845a401dcd283ae73f29a3e1a',#4,#6,#87,.T.);
#89=SURFACE_CURVE('',#55,(#79),.PCURVE_S1.);
#90=EDGE_CURVE('OSCAD_TOPO/3|edge|e:558145d7c420d8c4129a430a5617f3db|81e5f9f5c33d2cf14bbabd8bf6d81049e028869a60bf08970a9003107511898d',#6,#8,#89,.T.);
#91=SURFACE_CURVE('',#63,(#84),.PCURVE_S1.);
#92=EDGE_CURVE('OSCAD_TOPO/3|edge|e:bfbce82ea4cfd4c68737f72cda3ee862|ebb31d268a866e00b0dde891a052db72ee2f29ce0f7e8b3819efbf32c68a0d1b',#8,#2,#91,.T.);
#93=ORIENTED_EDGE('',*,*,#86,.T.);
#94=ORIENTED_EDGE('',*,*,#88,.T.);
#95=ORIENTED_EDGE('',*,*,#90,.T.);
#96=ORIENTED_EDGE('',*,*,#92,.T.);
#97=EDGE_LOOP('OSCAD_TOPO/3|loop|l:690aff4b0ae3410c13b6d4db9832b37b|1f02559e7c175bf0bfbebe842a1daf3ada5bc368bc676ce18a62041bc186f8f2',(#93,#94,#95,#96));
#98=FACE_OUTER_BOUND('',#97,.T.);
#99=ADVANCED_FACE('OSCAD_TOPO/3|face|f:0793f7db54bf82dfa1d5670fea0e163d|81795e12b3acba7a56b664b5559b0c3051cdb0598bf278876eec3fd1463b0ed6',(#98),#37,.T.);
#100=OPEN_SHELL('OSCAD_TOPO/3|shell|s:233bd71af68d8f581e1c75aa50c56aac|a8f4874ddab43911dab8f220f45d8c83661530a3fb18727a06f110d7017d0d8c',(#99));
#101=SHELL_BASED_SURFACE_MODEL('',(#100));
#102=(LENGTH_UNIT()NAMED_UNIT(*)SI_UNIT(.MILLI.,.METRE.));
#103=UNCERTAINTY_MEASURE_WITH_UNIT(LENGTH_MEASURE(9.99999999999999955E-8),#102,'distance_accuracy_value','');
#104=(GEOMETRIC_REPRESENTATION_CONTEXT(3)GLOBAL_UNCERTAINTY_ASSIGNED_CONTEXT((#103))GLOBAL_UNIT_ASSIGNED_CONTEXT((#102))REPRESENTATION_CONTEXT('','3D'));
#105=MANIFOLD_SURFACE_SHAPE_REPRESENTATION('',(#101),#104);
#106=APPLICATION_CONTEXT('managed model based 3d engineering');
#107=PRODUCT_CONTEXT('',#106,'mechanical');
#108=PRODUCT('model','model','',(#107));
#109=PRODUCT_DEFINITION_FORMATION('1','',#108);
#110=PRODUCT_DEFINITION_CONTEXT('part definition',#106,'design');
#111=PRODUCT_DEFINITION('design','',#109,#110);
#112=PRODUCT_DEFINITION_SHAPE('','',#111);
#113=SHAPE_DEFINITION_REPRESENTATION(#112,#105);
ENDSEC;
END-ISO-10303-21;
