ISO-10303-21;
HEADER;
FILE_DESCRIPTION(('OpenSCAD Viewer retained AP242 B-rep'),'2;1');
FILE_NAME('model.step','',(''),(''),'OpenSCAD Viewer','OpenSCAD Viewer','');
FILE_SCHEMA(('AP242_MANAGED_MODEL_BASED_3D_ENGINEERING_MIM_LF'));
ENDSEC;
DATA;
#1=CARTESIAN_POINT('',(2.00000000000000000E0,0.00000000000000000E0,0.00000000000000000E0));
#2=VERTEX_POINT('OSCAD_TOPO/3|vertex|v:220e6fc475a9da38f53af60746604ed2|1dcac6380df9c51f2f20175abf4c52a78bcefb465c10760b4c3387485c81df72',#1);
#3=CARTESIAN_POINT('',(2.00000000000000000E0,0.00000000000000000E0,5.00000000000000000E0));
#4=VERTEX_POINT('OSCAD_TOPO/3|vertex|v:24428ad73e678c231468d93f27e72200|da21222f3f9c8668ef3a863afd5293ed9b51b45a5b4d1ce268e50da6196d3fce',#3);
#5=CARTESIAN_POINT('',(0.00000000000000000E0,2.00000000000000000E0,0.00000000000000000E0));
#6=VERTEX_POINT('OSCAD_TOPO/3|vertex|v:4da6a71bbd8682eea7476dfa8a111789|e58bff6b40d40faf3355976d3273446059fc0dd6c216a01efa7bae6850e9fb03',#5);
#7=CARTESIAN_POINT('',(0.00000000000000000E0,2.00000000000000000E0,5.00000000000000000E0));
#8=VERTEX_POINT('OSCAD_TOPO/3|vertex|v:89e9633d63c0b98f90f89b504a60adbd|f78d355325c1261d3124140008fe7d596681815b4b839b0de80a57eb53f9c88b',#7);
#9=CARTESIAN_POINT('',(-2.00000000000000000E0,0.00000000000000000E0,0.00000000000000000E0));
#10=VERTEX_POINT('OSCAD_TOPO/3|vertex|v:fd04dc2d6b4ab3525d530c03274411ba|dc1d54fe4fc06d4d6adc4e03ef8095471c8467513c042660b1b5445f11a2c965',#9);
#11=CARTESIAN_POINT('',(-2.00000000000000000E0,0.00000000000000000E0,5.00000000000000000E0));
#12=VERTEX_POINT('OSCAD_TOPO/3|vertex|v:1dde9972c8afa487120ce3f985d91b4b|13922497c46cd4ecc6dc7f2c0bca682c7fff0bdf8fee122aa390715dd3ec2e8e',#11);
#13=CARTESIAN_POINT('',(0.00000000000000000E0,-2.00000000000000000E0,0.00000000000000000E0));
#14=VERTEX_POINT('OSCAD_TOPO/3|vertex|v:3a16a9cac804736d2977ee197f9edc3a|4b554a548339e786911b3142c30533798c63c3ec0ad9f015bc07a239beb37985',#13);
#15=CARTESIAN_POINT('',(0.00000000000000000E0,-2.00000000000000000E0,5.00000000000000000E0));
#16=VERTEX_POINT('OSCAD_TOPO/3|vertex|v:0d789d7dbd02d626baffccebfb5cf0df|e60241f5c4f0b9c02d7d0339f736d3f6c60950918211f9f16b5d9a835be32e78',#15);
#17=CARTESIAN_POINT('',(2.00000000000000000E0,0.00000000000000000E0,0.00000000000000000E0));
#18=CARTESIAN_POINT('',(2.00000000000000000E0,0.00000000000000000E0,5.00000000000000000E0));
#19=CARTESIAN_POINT('',(2.00000000000000000E0,2.00000000000000000E0,0.00000000000000000E0));
#20=CARTESIAN_POINT('',(2.00000000000000000E0,2.00000000000000000E0,5.00000000000000000E0));
#21=CARTESIAN_POINT('',(0.00000000000000000E0,2.00000000000000000E0,0.00000000000000000E0));
#22=CARTESIAN_POINT('',(0.00000000000000000E0,2.00000000000000000E0,5.00000000000000000E0));
#23=CARTESIAN_POINT('',(-2.00000000000000000E0,2.00000000000000000E0,0.00000000000000000E0));
#24=CARTESIAN_POINT('',(-2.00000000000000000E0,2.00000000000000000E0,5.00000000000000000E0));
#25=CARTESIAN_POINT('',(-2.00000000000000000E0,0.00000000000000000E0,0.00000000000000000E0));
#26=CARTESIAN_POINT('',(-2.00000000000000000E0,0.00000000000000000E0,5.00000000000000000E0));
#27=CARTESIAN_POINT('',(-2.00000000000000000E0,-2.00000000000000000E0,0.00000000000000000E0));
#28=CARTESIAN_POINT('',(-2.00000000000000000E0,-2.00000000000000000E0,5.00000000000000000E0));
#29=CARTESIAN_POINT('',(0.00000000000000000E0,-2.00000000000000000E0,0.00000000000000000E0));
#30=CARTESIAN_POINT('',(0.00000000000000000E0,-2.00000000000000000E0,5.00000000000000000E0));
#31=CARTESIAN_POINT('',(2.00000000000000000E0,-2.00000000000000000E0,0.00000000000000000E0));
#32=CARTESIAN_POINT('',(2.00000000000000000E0,-2.00000000000000000E0,5.00000000000000000E0));
#33=CARTESIAN_POINT('',(2.00000000000000000E0,0.00000000000000000E0,0.00000000000000000E0));
#34=CARTESIAN_POINT('',(2.00000000000000000E0,0.00000000000000000E0,5.00000000000000000E0));
#35=(BOUNDED_SURFACE()B_SPLINE_SURFACE(2,1,((#17,#18),(#19,#20),(#21,#22),(#23,#24),(#25,#26),(#27,#28),(#29,#30),(#31,#32),(#33,#34)),.UNSPECIFIED.,.F.,.F.,.F.)B_SPLINE_SURFACE_WITH_KNOTS((3,2,2,2,3),(2,2),(0.00000000000000000E0,1.00000000000000000E0,2.00000000000000000E0,3.00000000000000000E0,4.00000000000000000E0),(0.00000000000000000E0,1.00000000000000000E0),.UNSPECIFIED.)GEOMETRIC_REPRESENTATION_ITEM()RATIONAL_B_SPLINE_SURFACE(((1.00000000000000000E0,1.00000000000000000E0),(7.07106781186547573E-1,7.07106781186547573E-1),(1.00000000000000000E0,1.00000000000000000E0),(7.07106781186547573E-1,7.07106781186547573E-1),(1.00000000000000000E0,1.00000000000000000E0),(7.07106781186547573E-1,7.07106781186547573E-1),(1.00000000000000000E0,1.00000000000000000E0),(7.07106781186547573E-1,7.07106781186547573E-1),(1.00000000000000000E0,1.00000000000000000E0)))REPRESENTATION_ITEM('')SURFACE());
#36=CARTESIAN_POINT('',(2.00000000000000000E0,-2.00000000000000000E0,0.00000000000000000E0));
#37=CARTESIAN_POINT('',(2.00000000000000000E0,2.00000000000000000E0,0.00000000000000000E0));
#38=CARTESIAN_POINT('',(-2.00000000000000000E0,-2.00000000000000000E0,0.00000000000000000E0));
#39=CARTESIAN_POINT('',(-2.00000000000000000E0,2.00000000000000000E0,0.00000000000000000E0));
#40=B_SPLINE_SURFACE_WITH_KNOTS('',1,1,((#36,#37),(#38,#39)),.UNSPECIFIED.,.F.,.F.,.F.,(2,2),(2,2),(0.00000000000000000E0,1.00000000000000000E0),(0.00000000000000000E0,1.00000000000000000E0),.UNSPECIFIED.);
#41=CARTESIAN_POINT('',(-2.00000000000000000E0,-2.00000000000000000E0,5.00000000000000000E0));
#42=CARTESIAN_POINT('',(-2.00000000000000000E0,2.00000000000000000E0,5.00000000000000000E0));
#43=CARTESIAN_POINT('',(2.00000000000000000E0,-2.00000000000000000E0,5.00000000000000000E0));
#44=CARTESIAN_POINT('',(2.00000000000000000E0,2.00000000000000000E0,5.00000000000000000E0));
#45=B_SPLINE_SURFACE_WITH_KNOTS('',1,1,((#41,#42),(#43,#44)),.UNSPECIFIED.,.F.,.F.,.F.,(2,2),(2,2),(0.00000000000000000E0,1.00000000000000000E0),(0.00000000000000000E0,1.00000000000000000E0),.UNSPECIFIED.);
#46=CARTESIAN_POINT('',(2.00000000000000000E0,0.00000000000000000E0,0.00000000000000000E0));
#47=CARTESIAN_POINT('',(2.00000000000000000E0,2.00000000000000000E0,0.00000000000000000E0));
#48=CARTESIAN_POINT('',(0.00000000000000000E0,2.00000000000000000E0,0.00000000000000000E0));
#49=(BOUNDED_CURVE()B_SPLINE_CURVE(2,(#46,#47,#48),.UNSPECIFIED.,.F.,.F.)B_SPLINE_CURVE_WITH_KNOTS((3,3),(0.00000000000000000E0,1.00000000000000000E0),.UNSPECIFIED.)CURVE()GEOMETRIC_REPRESENTATION_ITEM()RATIONAL_B_SPLINE_CURVE((1.00000000000000000E0,7.07106781186547573E-1,1.00000000000000000E0))REPRESENTATION_ITEM(''));
#50=CARTESIAN_POINT('',(2.00000000000000000E0,0.00000000000000000E0,5.00000000000000000E0));
#51=CARTESIAN_POINT('',(2.00000000000000000E0,2.00000000000000000E0,5.00000000000000000E0));
#52=CARTESIAN_POINT('',(0.00000000000000000E0,2.00000000000000000E0,5.00000000000000000E0));
#53=(BOUNDED_CURVE()B_SPLINE_CURVE(2,(#50,#51,#52),.UNSPECIFIED.,.F.,.F.)B_SPLINE_CURVE_WITH_KNOTS((3,3),(0.00000000000000000E0,1.00000000000000000E0),.UNSPECIFIED.)CURVE()GEOMETRIC_REPRESENTATION_ITEM()RATIONAL_B_SPLINE_CURVE((1.00000000000000000E0,7.07106781186547573E-1,1.00000000000000000E0))REPRESENTATION_ITEM(''));
#54=CARTESIAN_POINT('',(2.00000000000000000E0,0.00000000000000000E0,0.00000000000000000E0));
#55=CARTESIAN_POINT('',(2.00000000000000000E0,0.00000000000000000E0,5.00000000000000000E0));
#56=B_SPLINE_CURVE_WITH_KNOTS('',1,(#54,#55),.UNSPECIFIED.,.F.,.F.,(2,2),(0.00000000000000000E0,1.00000000000000000E0),.UNSPECIFIED.);
#57=CARTESIAN_POINT('',(0.00000000000000000E0,2.00000000000000000E0,0.00000000000000000E0));
#58=CARTESIAN_POINT('',(-2.00000000000000000E0,2.00000000000000000E0,0.00000000000000000E0));
#59=CARTESIAN_POINT('',(-2.00000000000000000E0,0.00000000000000000E0,0.00000000000000000E0));
#60=(BOUNDED_CURVE()B_SPLINE_CURVE(2,(#57,#58,#59),.UNSPECIFIED.,.F.,.F.)B_SPLINE_CURVE_WITH_KNOTS((3,3),(0.00000000000000000E0,1.00000000000000000E0),.UNSPECIFIED.)CURVE()GEOMETRIC_REPRESENTATION_ITEM()RATIONAL_B_SPLINE_CURVE((1.00000000000000000E0,7.07106781186547573E-1,1.00000000000000000E0))REPRESENTATION_ITEM(''));
#61=CARTESIAN_POINT('',(0.00000000000000000E0,2.00000000000000000E0,5.00000000000000000E0));
#62=CARTESIAN_POINT('',(-2.00000000000000000E0,2.00000000000000000E0,5.00000000000000000E0));
#63=CARTESIAN_POINT('',(-2.00000000000000000E0,0.00000000000000000E0,5.00000000000000000E0));
#64=(BOUNDED_CURVE()B_SPLINE_CURVE(2,(#61,#62,#63),.UNSPECIFIED.,.F.,.F.)B_SPLINE_CURVE_WITH_KNOTS((3,3),(0.00000000000000000E0,1.00000000000000000E0),.UNSPECIFIED.)CURVE()GEOMETRIC_REPRESENTATION_ITEM()RATIONAL_B_SPLINE_CURVE((1.00000000000000000E0,7.07106781186547573E-1,1.00000000000000000E0))REPRESENTATION_ITEM(''));
#65=CARTESIAN_POINT('',(0.00000000000000000E0,2.00000000000000000E0,0.00000000000000000E0));
#66=CARTESIAN_POINT('',(0.00000000000000000E0,2.00000000000000000E0,5.00000000000000000E0));
#67=B_SPLINE_CURVE_WITH_KNOTS('',1,(#65,#66),.UNSPECIFIED.,.F.,.F.,(2,2),(0.00000000000000000E0,1.00000000000000000E0),.UNSPECIFIED.);
#68=CARTESIAN_POINT('',(-2.00000000000000000E0,0.00000000000000000E0,0.00000000000000000E0));
#69=CARTESIAN_POINT('',(-2.00000000000000000E0,-2.00000000000000000E0,0.00000000000000000E0));
#70=CARTESIAN_POINT('',(0.00000000000000000E0,-2.00000000000000000E0,0.00000000000000000E0));
#71=(BOUNDED_CURVE()B_SPLINE_CURVE(2,(#68,#69,#70),.UNSPECIFIED.,.F.,.F.)B_SPLINE_CURVE_WITH_KNOTS((3,3),(0.00000000000000000E0,1.00000000000000000E0),.UNSPECIFIED.)CURVE()GEOMETRIC_REPRESENTATION_ITEM()RATIONAL_B_SPLINE_CURVE((1.00000000000000000E0,7.07106781186547573E-1,1.00000000000000000E0))REPRESENTATION_ITEM(''));
#72=CARTESIAN_POINT('',(-2.00000000000000000E0,0.00000000000000000E0,5.00000000000000000E0));
#73=CARTESIAN_POINT('',(-2.00000000000000000E0,-2.00000000000000000E0,5.00000000000000000E0));
#74=CARTESIAN_POINT('',(0.00000000000000000E0,-2.00000000000000000E0,5.00000000000000000E0));
#75=(BOUNDED_CURVE()B_SPLINE_CURVE(2,(#72,#73,#74),.UNSPECIFIED.,.F.,.F.)B_SPLINE_CURVE_WITH_KNOTS((3,3),(0.00000000000000000E0,1.00000000000000000E0),.UNSPECIFIED.)CURVE()GEOMETRIC_REPRESENTATION_ITEM()RATIONAL_B_SPLINE_CURVE((1.00000000000000000E0,7.07106781186547573E-1,1.00000000000000000E0))REPRESENTATION_ITEM(''));
#76=CARTESIAN_POINT('',(-2.00000000000000000E0,0.00000000000000000E0,0.00000000000000000E0));
#77=CARTESIAN_POINT('',(-2.00000000000000000E0,0.00000000000000000E0,5.00000000000000000E0));
#78=B_SPLINE_CURVE_WITH_KNOTS('',1,(#76,#77),.UNSPECIFIED.,.F.,.F.,(2,2),(0.00000000000000000E0,1.00000000000000000E0),.UNSPECIFIED.);
#79=CARTESIAN_POINT('',(0.00000000000000000E0,-2.00000000000000000E0,0.00000000000000000E0));
#80=CARTESIAN_POINT('',(2.00000000000000000E0,-2.00000000000000000E0,0.00000000000000000E0));
#81=CARTESIAN_POINT('',(2.00000000000000000E0,0.00000000000000000E0,0.00000000000000000E0));
#82=(BOUNDED_CURVE()B_SPLINE_CURVE(2,(#79,#80,#81),.UNSPECIFIED.,.F.,.F.)B_SPLINE_CURVE_WITH_KNOTS((3,3),(0.00000000000000000E0,1.00000000000000000E0),.UNSPECIFIED.)CURVE()GEOMETRIC_REPRESENTATION_ITEM()RATIONAL_B_SPLINE_CURVE((1.00000000000000000E0,7.07106781186547573E-1,1.00000000000000000E0))REPRESENTATION_ITEM(''));
#83=CARTESIAN_POINT('',(0.00000000000000000E0,-2.00000000000000000E0,5.00000000000000000E0));
#84=CARTESIAN_POINT('',(2.00000000000000000E0,-2.00000000000000000E0,5.00000000000000000E0));
#85=CARTESIAN_POINT('',(2.00000000000000000E0,0.00000000000000000E0,5.00000000000000000E0));
#86=(BOUNDED_CURVE()B_SPLINE_CURVE(2,(#83,#84,#85),.UNSPECIFIED.,.F.,.F.)B_SPLINE_CURVE_WITH_KNOTS((3,3),(0.00000000000000000E0,1.00000000000000000E0),.UNSPECIFIED.)CURVE()GEOMETRIC_REPRESENTATION_ITEM()RATIONAL_B_SPLINE_CURVE((1.00000000000000000E0,7.07106781186547573E-1,1.00000000000000000E0))REPRESENTATION_ITEM(''));
#87=CARTESIAN_POINT('',(0.00000000000000000E0,-2.00000000000000000E0,0.00000000000000000E0));
#88=CARTESIAN_POINT('',(0.00000000000000000E0,-2.00000000000000000E0,5.00000000000000000E0));
#89=B_SPLINE_CURVE_WITH_KNOTS('',1,(#87,#88),.UNSPECIFIED.,.F.,.F.,(2,2),(0.00000000000000000E0,1.00000000000000000E0),.UNSPECIFIED.);
#90=(GEOMETRIC_REPRESENTATION_CONTEXT(2)REPRESENTATION_CONTEXT('','2D'));
#91=CARTESIAN_POINT('',(0.00000000000000000E0,5.00000000000000000E-1));
#92=CARTESIAN_POINT('',(0.00000000000000000E0,0.00000000000000000E0));
#93=CARTESIAN_POINT('',(5.00000000000000000E-1,0.00000000000000000E0));
#94=(BOUNDED_CURVE()B_SPLINE_CURVE(2,(#91,#92,#93),.UNSPECIFIED.,.F.,.F.)B_SPLINE_CURVE_WITH_KNOTS((3,3),(0.00000000000000000E0,1.00000000000000000E0),.UNSPECIFIED.)CURVE()GEOMETRIC_REPRESENTATION_ITEM()RATIONAL_B_SPLINE_CURVE((1.00000000000000000E0,7.07106781186547573E-1,1.00000000000000000E0))REPRESENTATION_ITEM(''));
#95=DEFINITIONAL_REPRESENTATION('',(#94),#90);
#96=PCURVE('',#40,#95);
#97=CARTESIAN_POINT('',(5.00000000000000000E-1,0.00000000000000000E0));
#98=CARTESIAN_POINT('',(1.00000000000000000E0,0.00000000000000000E0));
#99=CARTESIAN_POINT('',(1.00000000000000000E0,5.00000000000000000E-1));
#100=(BOUNDED_CURVE()B_SPLINE_CURVE(2,(#97,#98,#99),.UNSPECIFIED.,.F.,.F.)B_SPLINE_CURVE_WITH_KNOTS((3,3),(0.00000000000000000E0,1.00000000000000000E0),.UNSPECIFIED.)CURVE()GEOMETRIC_REPRESENTATION_ITEM()RATIONAL_B_SPLINE_CURVE((1.00000000000000000E0,7.07106781186547573E-1,1.00000000000000000E0))REPRESENTATION_ITEM(''));
#101=DEFINITIONAL_REPRESENTATION('',(#100),#90);
#102=PCURVE('',#40,#101);
#103=CARTESIAN_POINT('',(1.00000000000000000E0,5.00000000000000000E-1));
#104=CARTESIAN_POINT('',(1.00000000000000000E0,1.00000000000000000E0));
#105=CARTESIAN_POINT('',(5.00000000000000000E-1,1.00000000000000000E0));
#106=(BOUNDED_CURVE()B_SPLINE_CURVE(2,(#103,#104,#105),.UNSPECIFIED.,.F.,.F.)B_SPLINE_CURVE_WITH_KNOTS((3,3),(0.00000000000000000E0,1.00000000000000000E0),.UNSPECIFIED.)CURVE()GEOMETRIC_REPRESENTATION_ITEM()RATIONAL_B_SPLINE_CURVE((1.00000000000000000E0,7.07106781186547573E-1,1.00000000000000000E0))REPRESENTATION_ITEM(''));
#107=DEFINITIONAL_REPRESENTATION('',(#106),#90);
#108=PCURVE('',#40,#107);
#109=CARTESIAN_POINT('',(5.00000000000000000E-1,1.00000000000000000E0));
#110=CARTESIAN_POINT('',(0.00000000000000000E0,1.00000000000000000E0));
#111=CARTESIAN_POINT('',(0.00000000000000000E0,5.00000000000000000E-1));
#112=(BOUNDED_CURVE()B_SPLINE_CURVE(2,(#109,#110,#111),.UNSPECIFIED.,.F.,.F.)B_SPLINE_CURVE_WITH_KNOTS((3,3),(0.00000000000000000E0,1.00000000000000000E0),.UNSPECIFIED.)CURVE()GEOMETRIC_REPRESENTATION_ITEM()RATIONAL_B_SPLINE_CURVE((1.00000000000000000E0,7.07106781186547573E-1,1.00000000000000000E0))REPRESENTATION_ITEM(''));
#113=DEFINITIONAL_REPRESENTATION('',(#112),#90);
#114=PCURVE('',#40,#113);
#115=CARTESIAN_POINT('',(1.00000000000000000E0,5.00000000000000000E-1));
#116=CARTESIAN_POINT('',(1.00000000000000000E0,1.00000000000000000E0));
#117=CARTESIAN_POINT('',(5.00000000000000000E-1,1.00000000000000000E0));
#118=(BOUNDED_CURVE()B_SPLINE_CURVE(2,(#115,#116,#117),.UNSPECIFIED.,.F.,.F.)B_SPLINE_CURVE_WITH_KNOTS((3,3),(0.00000000000000000E0,1.00000000000000000E0),.UNSPECIFIED.)CURVE()GEOMETRIC_REPRESENTATION_ITEM()RATIONAL_B_SPLINE_CURVE((1.00000000000000000E0,7.07106781186547573E-1,1.00000000000000000E0))REPRESENTATION_ITEM(''));
#119=DEFINITIONAL_REPRESENTATION('',(#118),#90);
#120=PCURVE('',#45,#119);
#121=CARTESIAN_POINT('',(5.00000000000000000E-1,1.00000000000000000E0));
#122=CARTESIAN_POINT('',(0.00000000000000000E0,1.00000000000000000E0));
#123=CARTESIAN_POINT('',(0.00000000000000000E0,5.00000000000000000E-1));
#124=(BOUNDED_CURVE()B_SPLINE_CURVE(2,(#121,#122,#123),.UNSPECIFIED.,.F.,.F.)B_SPLINE_CURVE_WITH_KNOTS((3,3),(0.00000000000000000E0,1.00000000000000000E0),.UNSPECIFIED.)CURVE()GEOMETRIC_REPRESENTATION_ITEM()RATIONAL_B_SPLINE_CURVE((1.00000000000000000E0,7.07106781186547573E-1,1.00000000000000000E0))REPRESENTATION_ITEM(''));
#125=DEFINITIONAL_REPRESENTATION('',(#124),#90);
#126=PCURVE('',#45,#125);
#127=CARTESIAN_POINT('',(0.00000000000000000E0,5.00000000000000000E-1));
#128=CARTESIAN_POINT('',(0.00000000000000000E0,0.00000000000000000E0));
#129=CARTESIAN_POINT('',(5.00000000000000000E-1,0.00000000000000000E0));
#130=(BOUNDED_CURVE()B_SPLINE_CURVE(2,(#127,#128,#129),.UNSPECIFIED.,.F.,.F.)B_SPLINE_CURVE_WITH_KNOTS((3,3),(0.00000000000000000E0,1.00000000000000000E0),.UNSPECIFIED.)CURVE()GEOMETRIC_REPRESENTATION_ITEM()RATIONAL_B_SPLINE_CURVE((1.00000000000000000E0,7.07106781186547573E-1,1.00000000000000000E0))REPRESENTATION_ITEM(''));
#131=DEFINITIONAL_REPRESENTATION('',(#130),#90);
#132=PCURVE('',#45,#131);
#133=CARTESIAN_POINT('',(5.00000000000000000E-1,0.00000000000000000E0));
#134=CARTESIAN_POINT('',(1.00000000000000000E0,0.00000000000000000E0));
#135=CARTESIAN_POINT('',(1.00000000000000000E0,5.00000000000000000E-1));
#136=(BOUNDED_CURVE()B_SPLINE_CURVE(2,(#133,#134,#135),.UNSPECIFIED.,.F.,.F.)B_SPLINE_CURVE_WITH_KNOTS((3,3),(0.00000000000000000E0,1.00000000000000000E0),.UNSPECIFIED.)CURVE()GEOMETRIC_REPRESENTATION_ITEM()RATIONAL_B_SPLINE_CURVE((1.00000000000000000E0,7.07106781186547573E-1,1.00000000000000000E0))REPRESENTATION_ITEM(''));
#137=DEFINITIONAL_REPRESENTATION('',(#136),#90);
#138=PCURVE('',#45,#137);
#139=CARTESIAN_POINT('',(0.00000000000000000E0,0.00000000000000000E0));
#140=CARTESIAN_POINT('',(1.00000000000000000E0,0.00000000000000000E0));
#141=B_SPLINE_CURVE_WITH_KNOTS('',1,(#139,#140),.UNSPECIFIED.,.F.,.F.,(2,2),(0.00000000000000000E0,1.00000000000000000E0),.UNSPECIFIED.);
#142=DEFINITIONAL_REPRESENTATION('',(#141),#90);
#143=PCURVE('',#35,#142);
#144=CARTESIAN_POINT('',(1.00000000000000000E0,0.00000000000000000E0));
#145=CARTESIAN_POINT('',(1.00000000000000000E0,1.00000000000000000E0));
#146=B_SPLINE_CURVE_WITH_KNOTS('',1,(#144,#145),.UNSPECIFIED.,.F.,.F.,(2,2),(0.00000000000000000E0,1.00000000000000000E0),.UNSPECIFIED.);
#147=DEFINITIONAL_REPRESENTATION('',(#146),#90);
#148=PCURVE('',#35,#147);
#149=CARTESIAN_POINT('',(1.00000000000000000E0,1.00000000000000000E0));
#150=CARTESIAN_POINT('',(0.00000000000000000E0,1.00000000000000000E0));
#151=B_SPLINE_CURVE_WITH_KNOTS('',1,(#149,#150),.UNSPECIFIED.,.F.,.F.,(2,2),(0.00000000000000000E0,1.00000000000000000E0),.UNSPECIFIED.);
#152=DEFINITIONAL_REPRESENTATION('',(#151),#90);
#153=PCURVE('',#35,#152);
#154=CARTESIAN_POINT('',(0.00000000000000000E0,1.00000000000000000E0));
#155=CARTESIAN_POINT('',(0.00000000000000000E0,0.00000000000000000E0));
#156=B_SPLINE_CURVE_WITH_KNOTS('',1,(#154,#155),.UNSPECIFIED.,.F.,.F.,(2,2),(0.00000000000000000E0,1.00000000000000000E0),.UNSPECIFIED.);
#157=DEFINITIONAL_REPRESENTATION('',(#156),#90);
#158=PCURVE('',#35,#157);
#159=CARTESIAN_POINT('',(1.00000000000000000E0,0.00000000000000000E0));
#160=CARTESIAN_POINT('',(2.00000000000000000E0,0.00000000000000000E0));
#161=B_SPLINE_CURVE_WITH_KNOTS('',1,(#159,#160),.UNSPECIFIED.,.F.,.F.,(2,2),(0.00000000000000000E0,1.00000000000000000E0),.UNSPECIFIED.);
#162=DEFINITIONAL_REPRESENTATION('',(#161),#90);
#163=PCURVE('',#35,#162);
#164=CARTESIAN_POINT('',(2.00000000000000000E0,0.00000000000000000E0));
#165=CARTESIAN_POINT('',(2.00000000000000000E0,1.00000000000000000E0));
#166=B_SPLINE_CURVE_WITH_KNOTS('',1,(#164,#165),.UNSPECIFIED.,.F.,.F.,(2,2),(0.00000000000000000E0,1.00000000000000000E0),.UNSPECIFIED.);
#167=DEFINITIONAL_REPRESENTATION('',(#166),#90);
#168=PCURVE('',#35,#167);
#169=CARTESIAN_POINT('',(2.00000000000000000E0,1.00000000000000000E0));
#170=CARTESIAN_POINT('',(1.00000000000000000E0,1.00000000000000000E0));
#171=B_SPLINE_CURVE_WITH_KNOTS('',1,(#169,#170),.UNSPECIFIED.,.F.,.F.,(2,2),(0.00000000000000000E0,1.00000000000000000E0),.UNSPECIFIED.);
#172=DEFINITIONAL_REPRESENTATION('',(#171),#90);
#173=PCURVE('',#35,#172);
#174=CARTESIAN_POINT('',(1.00000000000000000E0,1.00000000000000000E0));
#175=CARTESIAN_POINT('',(1.00000000000000000E0,0.00000000000000000E0));
#176=B_SPLINE_CURVE_WITH_KNOTS('',1,(#174,#175),.UNSPECIFIED.,.F.,.F.,(2,2),(0.00000000000000000E0,1.00000000000000000E0),.UNSPECIFIED.);
#177=DEFINITIONAL_REPRESENTATION('',(#176),#90);
#178=PCURVE('',#35,#177);
#179=CARTESIAN_POINT('',(2.00000000000000000E0,0.00000000000000000E0));
#180=CARTESIAN_POINT('',(3.00000000000000000E0,0.00000000000000000E0));
#181=B_SPLINE_CURVE_WITH_KNOTS('',1,(#179,#180),.UNSPECIFIED.,.F.,.F.,(2,2),(0.00000000000000000E0,1.00000000000000000E0),.UNSPECIFIED.);
#182=DEFINITIONAL_REPRESENTATION('',(#181),#90);
#183=PCURVE('',#35,#182);
#184=CARTESIAN_POINT('',(3.00000000000000000E0,0.00000000000000000E0));
#185=CARTESIAN_POINT('',(3.00000000000000000E0,1.00000000000000000E0));
#186=B_SPLINE_CURVE_WITH_KNOTS('',1,(#184,#185),.UNSPECIFIED.,.F.,.F.,(2,2),(0.00000000000000000E0,1.00000000000000000E0),.UNSPECIFIED.);
#187=DEFINITIONAL_REPRESENTATION('',(#186),#90);
#188=PCURVE('',#35,#187);
#189=CARTESIAN_POINT('',(3.00000000000000000E0,1.00000000000000000E0));
#190=CARTESIAN_POINT('',(2.00000000000000000E0,1.00000000000000000E0));
#191=B_SPLINE_CURVE_WITH_KNOTS('',1,(#189,#190),.UNSPECIFIED.,.F.,.F.,(2,2),(0.00000000000000000E0,1.00000000000000000E0),.UNSPECIFIED.);
#192=DEFINITIONAL_REPRESENTATION('',(#191),#90);
#193=PCURVE('',#35,#192);
#194=CARTESIAN_POINT('',(2.00000000000000000E0,1.00000000000000000E0));
#195=CARTESIAN_POINT('',(2.00000000000000000E0,0.00000000000000000E0));
#196=B_SPLINE_CURVE_WITH_KNOTS('',1,(#194,#195),.UNSPECIFIED.,.F.,.F.,(2,2),(0.00000000000000000E0,1.00000000000000000E0),.UNSPECIFIED.);
#197=DEFINITIONAL_REPRESENTATION('',(#196),#90);
#198=PCURVE('',#35,#197);
#199=CARTESIAN_POINT('',(3.00000000000000000E0,0.00000000000000000E0));
#200=CARTESIAN_POINT('',(4.00000000000000000E0,0.00000000000000000E0));
#201=B_SPLINE_CURVE_WITH_KNOTS('',1,(#199,#200),.UNSPECIFIED.,.F.,.F.,(2,2),(0.00000000000000000E0,1.00000000000000000E0),.UNSPECIFIED.);
#202=DEFINITIONAL_REPRESENTATION('',(#201),#90);
#203=PCURVE('',#35,#202);
#204=CARTESIAN_POINT('',(4.00000000000000000E0,0.00000000000000000E0));
#205=CARTESIAN_POINT('',(4.00000000000000000E0,1.00000000000000000E0));
#206=B_SPLINE_CURVE_WITH_KNOTS('',1,(#204,#205),.UNSPECIFIED.,.F.,.F.,(2,2),(0.00000000000000000E0,1.00000000000000000E0),.UNSPECIFIED.);
#207=DEFINITIONAL_REPRESENTATION('',(#206),#90);
#208=PCURVE('',#35,#207);
#209=CARTESIAN_POINT('',(4.00000000000000000E0,1.00000000000000000E0));
#210=CARTESIAN_POINT('',(3.00000000000000000E0,1.00000000000000000E0));
#211=B_SPLINE_CURVE_WITH_KNOTS('',1,(#209,#210),.UNSPECIFIED.,.F.,.F.,(2,2),(0.00000000000000000E0,1.00000000000000000E0),.UNSPECIFIED.);
#212=DEFINITIONAL_REPRESENTATION('',(#211),#90);
#213=PCURVE('',#35,#212);
#214=CARTESIAN_POINT('',(3.00000000000000000E0,1.00000000000000000E0));
#215=CARTESIAN_POINT('',(3.00000000000000000E0,0.00000000000000000E0));
#216=B_SPLINE_CURVE_WITH_KNOTS('',1,(#214,#215),.UNSPECIFIED.,.F.,.F.,(2,2),(0.00000000000000000E0,1.00000000000000000E0),.UNSPECIFIED.);
#217=DEFINITIONAL_REPRESENTATION('',(#216),#90);
#218=PCURVE('',#35,#217);
#219=SURFACE_CURVE('',#49,(#114,#143),.PCURVE_S1.);
#220=EDGE_CURVE('OSCAD_TOPO/3|edge|e:9f1137e0d634bbd07610645ad0878d5d|9df71a3eaedd1cab776470e6f58b08c8bc808a1dda9659fb277661c190f38c75',#2,#6,#219,.T.);
#221=SURFACE_CURVE('',#53,(#120,#153),.PCURVE_S1.);
#222=EDGE_CURVE('OSCAD_TOPO/3|edge|e:3d66c926353ed5c9f87b462f6ecb0851|2b5717ebfd6556593889014222ab4e3330d19fc54e1e5f5adecf3cfe9e1cf88c',#4,#8,#221,.T.);
#223=SEAM_CURVE('',#56,(#158,#208),.PCURVE_S1.);
#224=EDGE_CURVE('OSCAD_TOPO/3|edge|e:00a028ff901429f0b04c059df9e6773b|328d14f6e932f8289bec85b775e52a8e8ac683e8565a845d924be89384c6f58e',#2,#4,#223,.T.);
#225=SURFACE_CURVE('',#60,(#108,#163),.PCURVE_S1.);
#226=EDGE_CURVE('OSCAD_TOPO/3|edge|e:0680b1ee751725c690cbc1647e2348af|6f2a384719bb090e7c998af6c0c46dcf8ca2bcde1e1795b5e9ccd3021487b530',#6,#10,#225,.T.);
#227=SURFACE_CURVE('',#64,(#126,#173),.PCURVE_S1.);
#228=EDGE_CURVE('OSCAD_TOPO/3|edge|e:196bc5e870735ff3676d90595f236cd6|9516921ea57f3f70372ef8ceb2fbd23cc8b1a37e2c18fc530adb4d81bcca5b3a',#8,#12,#227,.T.);
#229=SURFACE_CURVE('',#67,(#148,#178),.PCURVE_S1.);
#230=EDGE_CURVE('OSCAD_TOPO/3|edge|e:969578dd5e20b086ed96cdc29c3dfbac|4d817e220a3c8899d8a0ba30a0282afc066c3ec9aaa6e4c2376f8d8471daf851',#6,#8,#229,.T.);
#231=SURFACE_CURVE('',#71,(#102,#183),.PCURVE_S1.);
#232=EDGE_CURVE('OSCAD_TOPO/3|edge|e:99b5204a305bc8cbe2d87b5353041f75|9e7653dbeeb934c0aaf557c234e9a015a5c973c9d3b5101ab98c31f73dfc9dab',#10,#14,#231,.T.);
#233=SURFACE_CURVE('',#75,(#132,#193),.PCURVE_S1.);
#234=EDGE_CURVE('OSCAD_TOPO/3|edge|e:f4c3aac2eb6a4305662602c1e641d3be|a0a0368a9e4fd53644d17fc0967920ee6c43321b82cf6e52fae3c7a3c4460361',#12,#16,#233,.T.);
#235=SURFACE_CURVE('',#78,(#168,#198),.PCURVE_S1.);
#236=EDGE_CURVE('OSCAD_TOPO/3|edge|e:9083d77cae2913bb945494e1e631b427|e4361ec75a50191ec79c557b50b53ce5490710971f2409b312b3fc0ca56ef7e4',#10,#12,#235,.T.);
#237=SURFACE_CURVE('',#82,(#96,#203),.PCURVE_S1.);
#238=EDGE_CURVE('OSCAD_TOPO/3|edge|e:42fafa2298066de1a407e7a1ea0274ad|f57fc36862fb614a65f447a87874a539d5a0c45d46e9f0d492864beb45876e16',#14,#2,#237,.T.);
#239=SURFACE_CURVE('',#86,(#138,#213),.PCURVE_S1.);
#240=EDGE_CURVE('OSCAD_TOPO/3|edge|e:fcc5cec21153503cf9ad008ef2461dfe|23eac1ec04e710d1ff7901bf8cae2584defcc3de70ae6621edee2e73a8be296e',#16,#4,#239,.T.);
#241=SURFACE_CURVE('',#89,(#188,#218),.PCURVE_S1.);
#242=EDGE_CURVE('OSCAD_TOPO/3|edge|e:e14e8611179f6a46eb6b60fecb3e2d14|b07f64e6d7a4803baf821a73f57808487bf96a56d73e03a55221ac0917d00982',#14,#16,#241,.T.);
#243=ORIENTED_EDGE('',*,*,#238,.F.);
#244=ORIENTED_EDGE('',*,*,#232,.F.);
#245=ORIENTED_EDGE('',*,*,#226,.F.);
#246=ORIENTED_EDGE('',*,*,#220,.F.);
#247=EDGE_LOOP('OSCAD_TOPO/3|loop|l:0f0e90311443f2c4a6d02438091d1270|f477cc8775062cbfb6889b5e48e50251ecb5a9c03da7be20626c0e2e3c38a85f',(#243,#244,#245,#246));
#248=ORIENTED_EDGE('',*,*,#222,.T.);
#249=ORIENTED_EDGE('',*,*,#228,.T.);
#250=ORIENTED_EDGE('',*,*,#234,.T.);
#251=ORIENTED_EDGE('',*,*,#240,.T.);
#252=EDGE_LOOP('OSCAD_TOPO/3|loop|l:a683bbe4190b24f2dfbbf988aa70b279|6d38225171320f2e37a9301ac41d47192eb87c623e317e69f50449e1756741bd',(#248,#249,#250,#251));
#253=ORIENTED_EDGE('',*,*,#220,.T.);
#254=ORIENTED_EDGE('',*,*,#230,.T.);
#255=ORIENTED_EDGE('',*,*,#222,.F.);
#256=ORIENTED_EDGE('',*,*,#224,.F.);
#257=EDGE_LOOP('OSCAD_TOPO/3|loop|l:aa3218a16e76cdba15044b32bf45f32d|521696460dbc4d1e6417a3b180a152b626987ffdeb68fcef30bd8b736b6f729c',(#253,#254,#255,#256));
#258=ORIENTED_EDGE('',*,*,#226,.T.);
#259=ORIENTED_EDGE('',*,*,#236,.T.);
#260=ORIENTED_EDGE('',*,*,#228,.F.);
#261=ORIENTED_EDGE('',*,*,#230,.F.);
#262=EDGE_LOOP('OSCAD_TOPO/3|loop|l:602a2c94734145ed5c48554445351528|45491757f87dfa420d727043ae2d31ea077d71a718a55e52db55ffbc3fce30a4',(#258,#259,#260,#261));
#263=ORIENTED_EDGE('',*,*,#232,.T.);
#264=ORIENTED_EDGE('',*,*,#242,.T.);
#265=ORIENTED_EDGE('',*,*,#234,.F.);
#266=ORIENTED_EDGE('',*,*,#236,.F.);
#267=EDGE_LOOP('OSCAD_TOPO/3|loop|l:d3c5c85eb2ec6ace90bfcfff9895f5e9|0830c1e99c91e4c930c1b7198e8b4d313830c8cb99724b81ce93c5d361ae82c6',(#263,#264,#265,#266));
#268=ORIENTED_EDGE('',*,*,#238,.T.);
#269=ORIENTED_EDGE('',*,*,#224,.T.);
#270=ORIENTED_EDGE('',*,*,#240,.F.);
#271=ORIENTED_EDGE('',*,*,#242,.F.);
#272=EDGE_LOOP('OSCAD_TOPO/3|loop|l:9774f1e1ecdaf4b96ac76c40cbeb9eb6|28afc18ff145eab9b1247b41eb190ab18ccffcec1e8e6b2c57e9abe3a036cd27',(#268,#269,#270,#271));
#273=FACE_OUTER_BOUND('',#257,.T.);
#274=ADVANCED_FACE('OSCAD_TOPO/3|face|f:88cc8e59c2fcf5cee1108500b3e0a99c|f4bcac246d70f964476142b4f6b20d35d56f3364fa90e732438b651815dfb65e',(#273),#35,.T.);
#275=FACE_OUTER_BOUND('',#262,.T.);
#276=ADVANCED_FACE('OSCAD_TOPO/3|face|f:7a12e2710f940eaeb6e7f312c93c9c25|72c80f28dcf83705f1f16896013de5508ed890b7631fb00679649f6ec05e7bbf',(#275),#35,.T.);
#277=FACE_OUTER_BOUND('',#267,.T.);
#278=ADVANCED_FACE('OSCAD_TOPO/3|face|f:7aff163a008b2bdbb1e530c9a4a5c96e|726ae2cb6e3f24e4113ff220a010e9d769770054dc54b95ccd0243d3e4fe7145',(#277),#35,.T.);
#279=FACE_OUTER_BOUND('',#272,.T.);
#280=ADVANCED_FACE('OSCAD_TOPO/3|face|f:83221822b361ea67ff466041b580badf|aea7cf72e1e2737726997c04cea94d4d29c37630c2acbc98646555def9fb74e4',(#279),#35,.T.);
#281=FACE_OUTER_BOUND('',#247,.T.);
#282=ADVANCED_FACE('OSCAD_TOPO/3|face|f:b7bb1d066b73381c8f181fac3e3ea085|8a7bcc29476dabe4e20c797ad664883235d4e70c379085e344ccfa09613f7681',(#281),#40,.T.);
#283=FACE_OUTER_BOUND('',#252,.T.);
#284=ADVANCED_FACE('OSCAD_TOPO/3|face|f:5695a4c589b04a5c94a3df61abc23def|7a4162450437ddbea00782980408f3b74f5788b6033446e0dcc601b08ebbe857',(#283),#45,.T.);
#285=CLOSED_SHELL('OSCAD_TOPO/3|shell|s:5b580fff3a22441937f84c3c0b99f8bc|53af7d206991b61f8d9814905ae67862af1dbe75e9cb5fa27a17703df623a2e2',(#274,#276,#278,#280,#282,#284));
#286=MANIFOLD_SOLID_BREP('OSCAD_TOPO/3|body|b:b3825a4069a0bad34d97841c7b9c4a8f|ed2cfecc1fc1e9801318f5ca27495bd9389f43a7e51ed9d5782b4049a6ab7fb3',#285);
#287=(LENGTH_UNIT()NAMED_UNIT(*)SI_UNIT(.MILLI.,.METRE.));
#288=UNCERTAINTY_MEASURE_WITH_UNIT(LENGTH_MEASURE(9.99999999999999955E-8),#287,'distance_accuracy_value','');
#289=(GEOMETRIC_REPRESENTATION_CONTEXT(3)GLOBAL_UNCERTAINTY_ASSIGNED_CONTEXT((#288))GLOBAL_UNIT_ASSIGNED_CONTEXT((#287))REPRESENTATION_CONTEXT('','3D'));
#290=ADVANCED_BREP_SHAPE_REPRESENTATION('',(#286),#289);
#291=APPLICATION_CONTEXT('managed model based 3d engineering');
#292=PRODUCT_CONTEXT('',#291,'mechanical');
#293=PRODUCT('model','model','',(#292));
#294=PRODUCT_DEFINITION_FORMATION('1','',#293);
#295=PRODUCT_DEFINITION_CONTEXT('part definition',#291,'design');
#296=PRODUCT_DEFINITION('design','',#294,#295);
#297=PRODUCT_DEFINITION_SHAPE('','',#296);
#298=SHAPE_DEFINITION_REPRESENTATION(#297,#290);
ENDSEC;
END-ISO-10303-21;
