ISO-10303-21;
HEADER;
FILE_DESCRIPTION(('OpenSCAD Viewer retained AP242 B-rep'),'2;1');
FILE_NAME('model.step','',(''),(''),'OpenSCAD Viewer','OpenSCAD Viewer','');
FILE_SCHEMA(('AP242_MANAGED_MODEL_BASED_3D_ENGINEERING_MIM_LF'));
ENDSEC;
DATA;
#1=CARTESIAN_POINT('',(7.00000000000000000E0,2.00000000000000000E0,1.10000000000000000E1));
#2=VERTEX_POINT('OSCAD_TOPO/3|vertex|v:756adfac75a484f6f712b66e30608050|577220932c195a810987c5078abecdc9dcc76a9ddd4949925c6da82da57a07aa',#1);
#3=CARTESIAN_POINT('',(7.00000000000000000E0,-3.00000000000000000E0,1.60000000000000000E1));
#4=VERTEX_POINT('OSCAD_TOPO/3|vertex|v:37d34c9141f6c2f1918e503292d3fb5e|d65b9c3d87cfd88dae296d2c5cf68342d31af9e05e082ded1c1fae70bcf48621',#3);
#5=CARTESIAN_POINT('',(7.00000000000000000E0,-3.00000000000000000E0,3.10000000000000000E1));
#6=VERTEX_POINT('OSCAD_TOPO/3|vertex|v:4388df847fe246943974e28d85505cef|e473e5238fbb8be72f8cf57aa492862d2a48632018c2b97f949205feb45e1fd1',#5);
#7=CARTESIAN_POINT('',(7.00000000000000000E0,1.70000000000000000E1,1.10000000000000000E1));
#8=VERTEX_POINT('OSCAD_TOPO/3|vertex|v:0fb93ff437fc8ec6c1c456fc79c15ec7|4e919560bf16c8f46dc6af3d25b401f90e215da1387df67943929f3cd33c99db',#7);
#9=CARTESIAN_POINT('',(7.00000000000000000E0,-8.00000000000000000E0,1.10000000000000000E1));
#10=VERTEX_POINT('OSCAD_TOPO/3|vertex|v:11998df70e6a313a9d3f25f3ad118fac|4fcf1e777c7ae6b1abb90e28cf1b43fe85abe67edd8a98218055dc26a0bef58f',#9);
#11=CARTESIAN_POINT('',(7.00000000000000000E0,-2.30000000000000000E1,1.10000000000000000E1));
#12=VERTEX_POINT('OSCAD_TOPO/3|vertex|v:b4b6eb1e64a6b51c2407aca02afd507e|834ac0ccf3a7440e36e43cf627801dc1a4f38c4490b5c855563234db06594610',#11);
#13=CARTESIAN_POINT('',(7.00000000000000000E0,-3.00000000000000000E0,6.00000000000000000E0));
#14=VERTEX_POINT('OSCAD_TOPO/3|vertex|v:39ee7f42922c23bf43a82707f9683e0d|a25ebed53575c0c7cf34f8b1b5005425d23eff079caa5bf86bea36ada977f9d1',#13);
#15=CARTESIAN_POINT('',(7.00000000000000000E0,-3.00000000000000000E0,-9.00000000000000000E0));
#16=VERTEX_POINT('OSCAD_TOPO/3|vertex|v:b10b96ab05205a4a4c2465394769c281|03da30758d82c90fde3c9341534afe9f045a46ebfe7ec98d78529e955f532a8d',#15);
#17=CARTESIAN_POINT('',(1.05000000000000000E1,-3.00000000000000000E0,3.10000000000000000E1));
#18=VERTEX_POINT('OSCAD_TOPO/3|vertex|v:54320bce07c0e2189a0b7f54bb02c5f3|1aa19ffb49d639547b3a0c1bf0a9d9b344b23f7db00bcb72cfd7960d1c973e90',#17);
#19=CARTESIAN_POINT('',(1.05000000000000000E1,1.70000000000000000E1,1.10000000000000000E1));
#20=VERTEX_POINT('OSCAD_TOPO/3|vertex|v:80fb2493e75e1c8ae8539a927a33884a|c01b3dc161b231b8b343b4a508cd9c1a1b0d2d0236b5e66a1253f1c5786b3ff2',#19);
#21=CARTESIAN_POINT('',(1.05000000000000000E1,-2.30000000000000000E1,1.10000000000000000E1));
#22=VERTEX_POINT('OSCAD_TOPO/3|vertex|v:ceb78c2d1b4e729143818151d8d76935|9bf42c1fa4d2ab817b7ce764a41f3debec4af430beaf95dbb67de283a7d72fcc',#21);
#23=CARTESIAN_POINT('',(1.05000000000000000E1,-3.00000000000000000E0,-9.00000000000000000E0));
#24=VERTEX_POINT('OSCAD_TOPO/3|vertex|v:8f149c61cca380e06081330d2eb8d218|b6bcf9bb522156c9c1384da398de8b2fdb9080c9beca51597d886e2cd9a27f31',#23);
#25=CARTESIAN_POINT('',(1.30000000000000000E1,-3.00000000000000000E0,2.85000000000000000E1));
#26=VERTEX_POINT('OSCAD_TOPO/3|vertex|v:10579537f281fabb173b992e73de9208|3dc7dc62b029f1707ee70c2aa858bb7b02a7363882d6c19bdb0072b8a1e80743',#25);
#27=CARTESIAN_POINT('',(1.30000000000000000E1,1.45000000000000000E1,1.10000000000000000E1));
#28=VERTEX_POINT('OSCAD_TOPO/3|vertex|v:40b111e6d3f1c2cddf6f24a47cd6a2bc|eb36d2aecc2b846cde279ca2347697656f4b623f4591698951ec29d92860700f',#27);
#29=CARTESIAN_POINT('',(1.30000000000000000E1,-2.05000000000000000E1,1.10000000000000000E1));
#30=VERTEX_POINT('OSCAD_TOPO/3|vertex|v:6a82926b6dde80f69f2af4c158571be5|972aed7fef6d5b0217a333328eaf669a5250837611b121725640fc25df594178',#29);
#31=CARTESIAN_POINT('',(1.30000000000000000E1,-3.00000000000000000E0,-6.50000000000000000E0));
#32=VERTEX_POINT('OSCAD_TOPO/3|vertex|v:b93d5994603833c7cfedd465a82e08fd|266f5e225f8af4030be2ff13e158351b093073279dc8566085648621c7bd992a',#31);
#33=CARTESIAN_POINT('',(1.30000000000000000E1,-3.00000000000000000E0,1.60000000000000000E1));
#34=VERTEX_POINT('OSCAD_TOPO/3|vertex|v:df416452818769813b93cd7e2bfc7277|66bdca668c5631c88d01a1536bdb0346ccd8e76d21acfe3df4626f3347ac5dcc',#33);
#35=CARTESIAN_POINT('',(1.30000000000000000E1,2.00000000000000000E0,1.10000000000000000E1));
#36=VERTEX_POINT('OSCAD_TOPO/3|vertex|v:fa29141c731e6772b80992750a58edb4|715d7e8d1ef07ba179128bce630f37d995f3e074b9b41e9ba2cd03a9a5c22087',#35);
#37=CARTESIAN_POINT('',(1.30000000000000000E1,-8.00000000000000000E0,1.10000000000000000E1));
#38=VERTEX_POINT('OSCAD_TOPO/3|vertex|v:f8510c9898c9551d78ee865cbc7f9650|056caf4ba92d62a4336cf9f3abd3e4656a341368ccbbe2e27cbfa3e4aeb8704c',#37);
#39=CARTESIAN_POINT('',(1.30000000000000000E1,-3.00000000000000000E0,6.00000000000000000E0));
#40=VERTEX_POINT('OSCAD_TOPO/3|vertex|v:34ac98b5635cf47cc7fbeede66bc46ac|3365c7ac5c32018ee62d7e463365bcf34ef4addcdad9f9752570a9714ea69dbb',#39);
#41=CARTESIAN_POINT('',(7.00000000000000000E0,2.00000000000000000E0,1.10000000000000000E1));
#42=CARTESIAN_POINT('',(7.00000000000000000E0,1.70000000000000000E1,1.10000000000000000E1));
#43=CARTESIAN_POINT('',(7.00000000000000000E0,2.00000000000000000E0,1.60000000000000000E1));
#44=CARTESIAN_POINT('',(7.00000000000000000E0,1.70000000000000000E1,3.10000000000000000E1));
#45=CARTESIAN_POINT('',(7.00000000000000000E0,-3.00000000000000000E0,1.60000000000000000E1));
#46=CARTESIAN_POINT('',(7.00000000000000000E0,-3.00000000000000000E0,3.10000000000000000E1));
#47=CARTESIAN_POINT('',(7.00000000000000000E0,-8.00000000000000000E0,1.60000000000000000E1));
#48=CARTESIAN_POINT('',(7.00000000000000000E0,-2.30000000000000000E1,3.10000000000000000E1));
#49=CARTESIAN_POINT('',(7.00000000000000000E0,-8.00000000000000000E0,1.10000000000000000E1));
#50=CARTESIAN_POINT('',(7.00000000000000000E0,-2.30000000000000000E1,1.10000000000000000E1));
#51=CARTESIAN_POINT('',(7.00000000000000000E0,-8.00000000000000000E0,6.00000000000000000E0));
#52=CARTESIAN_POINT('',(7.00000000000000000E0,-2.30000000000000000E1,-9.00000000000000000E0));
#53=CARTESIAN_POINT('',(7.00000000000000000E0,-3.00000000000000000E0,6.00000000000000000E0));
#54=CARTESIAN_POINT('',(7.00000000000000000E0,-3.00000000000000000E0,-9.00000000000000000E0));
#55=CARTESIAN_POINT('',(7.00000000000000000E0,2.00000000000000000E0,6.00000000000000000E0));
#56=CARTESIAN_POINT('',(7.00000000000000000E0,1.70000000000000000E1,-9.00000000000000000E0));
#57=CARTESIAN_POINT('',(7.00000000000000000E0,2.00000000000000000E0,1.10000000000000000E1));
#58=CARTESIAN_POINT('',(7.00000000000000000E0,1.70000000000000000E1,1.10000000000000000E1));
#59=(BOUNDED_SURFACE()B_SPLINE_SURFACE(2,1,((#41,#42),(#43,#44),(#45,#46),(#47,#48),(#49,#50),(#51,#52),(#53,#54),(#55,#56),(#57,#58)),.UNSPECIFIED.,.F.,.F.,.F.)B_SPLINE_SURFACE_WITH_KNOTS((3,2,2,2,3),(2,2),(0.00000000000000000E0,1.00000000000000000E0,2.00000000000000000E0,3.00000000000000000E0,4.00000000000000000E0),(0.00000000000000000E0,1.00000000000000000E0),.UNSPECIFIED.)GEOMETRIC_REPRESENTATION_ITEM()RATIONAL_B_SPLINE_SURFACE(((1.00000000000000000E0,1.00000000000000000E0),(7.07106781186547573E-1,7.07106781186547573E-1),(1.00000000000000000E0,1.00000000000000000E0),(7.07106781186547573E-1,7.07106781186547573E-1),(1.00000000000000000E0,1.00000000000000000E0),(7.07106781186547573E-1,7.07106781186547573E-1),(1.00000000000000000E0,1.00000000000000000E0),(7.07106781186547573E-1,7.07106781186547573E-1),(1.00000000000000000E0,1.00000000000000000E0)))REPRESENTATION_ITEM('')SURFACE());
#60=CARTESIAN_POINT('',(7.00000000000000000E0,1.70000000000000000E1,1.10000000000000000E1));
#61=CARTESIAN_POINT('',(1.05000000000000000E1,1.70000000000000000E1,1.10000000000000000E1));
#62=CARTESIAN_POINT('',(7.00000000000000000E0,1.70000000000000000E1,3.10000000000000000E1));
#63=CARTESIAN_POINT('',(1.05000000000000000E1,1.70000000000000000E1,3.10000000000000000E1));
#64=CARTESIAN_POINT('',(7.00000000000000000E0,-3.00000000000000000E0,3.10000000000000000E1));
#65=CARTESIAN_POINT('',(1.05000000000000000E1,-3.00000000000000000E0,3.10000000000000000E1));
#66=(BOUNDED_SURFACE()B_SPLINE_SURFACE(2,1,((#60,#61),(#62,#63),(#64,#65)),.UNSPECIFIED.,.F.,.F.,.F.)B_SPLINE_SURFACE_WITH_KNOTS((3,3),(2,2),(0.00000000000000000E0,1.00000000000000000E0),(0.00000000000000000E0,1.00000000000000000E0),.UNSPECIFIED.)GEOMETRIC_REPRESENTATION_ITEM()RATIONAL_B_SPLINE_SURFACE(((1.00000000000000000E0,1.00000000000000000E0),(7.07106781186547573E-1,7.07106781186547573E-1),(1.00000000000000000E0,1.00000000000000000E0)))REPRESENTATION_ITEM('')SURFACE());
#67=CARTESIAN_POINT('',(7.00000000000000000E0,-3.00000000000000000E0,3.10000000000000000E1));
#68=CARTESIAN_POINT('',(1.05000000000000000E1,-3.00000000000000000E0,3.10000000000000000E1));
#69=CARTESIAN_POINT('',(7.00000000000000000E0,-2.30000000000000000E1,3.10000000000000000E1));
#70=CARTESIAN_POINT('',(1.05000000000000000E1,-2.30000000000000000E1,3.10000000000000000E1));
#71=CARTESIAN_POINT('',(7.00000000000000000E0,-2.30000000000000000E1,1.10000000000000000E1));
#72=CARTESIAN_POINT('',(1.05000000000000000E1,-2.30000000000000000E1,1.10000000000000000E1));
#73=(BOUNDED_SURFACE()B_SPLINE_SURFACE(2,1,((#67,#68),(#69,#70),(#71,#72)),.UNSPECIFIED.,.F.,.F.,.F.)B_SPLINE_SURFACE_WITH_KNOTS((3,3),(2,2),(0.00000000000000000E0,1.00000000000000000E0),(0.00000000000000000E0,1.00000000000000000E0),.UNSPECIFIED.)GEOMETRIC_REPRESENTATION_ITEM()RATIONAL_B_SPLINE_SURFACE(((1.00000000000000000E0,1.00000000000000000E0),(7.07106781186547573E-1,7.07106781186547573E-1),(1.00000000000000000E0,1.00000000000000000E0)))REPRESENTATION_ITEM('')SURFACE());
#74=CARTESIAN_POINT('',(7.00000000000000000E0,-2.30000000000000000E1,1.10000000000000000E1));
#75=CARTESIAN_POINT('',(1.05000000000000000E1,-2.30000000000000000E1,1.10000000000000000E1));
#76=CARTESIAN_POINT('',(7.00000000000000000E0,-2.30000000000000000E1,-9.00000000000000000E0));
#77=CARTESIAN_POINT('',(1.05000000000000000E1,-2.30000000000000000E1,-9.00000000000000000E0));
#78=CARTESIAN_POINT('',(7.00000000000000000E0,-3.00000000000000000E0,-9.00000000000000000E0));
#79=CARTESIAN_POINT('',(1.05000000000000000E1,-3.00000000000000000E0,-9.00000000000000000E0));
#80=(BOUNDED_SURFACE()B_SPLINE_SURFACE(2,1,((#74,#75),(#76,#77),(#78,#79)),.UNSPECIFIED.,.F.,.F.,.F.)B_SPLINE_SURFACE_WITH_KNOTS((3,3),(2,2),(0.00000000000000000E0,1.00000000000000000E0),(0.00000000000000000E0,1.00000000000000000E0),.UNSPECIFIED.)GEOMETRIC_REPRESENTATION_ITEM()RATIONAL_B_SPLINE_SURFACE(((1.00000000000000000E0,1.00000000000000000E0),(7.07106781186547573E-1,7.07106781186547573E-1),(1.00000000000000000E0,1.00000000000000000E0)))REPRESENTATION_ITEM('')SURFACE());
#81=CARTESIAN_POINT('',(7.00000000000000000E0,-3.00000000000000000E0,-9.00000000000000000E0));
#82=CARTESIAN_POINT('',(1.05000000000000000E1,-3.00000000000000000E0,-9.00000000000000000E0));
#83=CARTESIAN_POINT('',(7.00000000000000000E0,1.70000000000000000E1,-9.00000000000000000E0));
#84=CARTESIAN_POINT('',(1.05000000000000000E1,1.70000000000000000E1,-9.00000000000000000E0));
#85=CARTESIAN_POINT('',(7.00000000000000000E0,1.70000000000000000E1,1.10000000000000000E1));
#86=CARTESIAN_POINT('',(1.05000000000000000E1,1.70000000000000000E1,1.10000000000000000E1));
#87=(BOUNDED_SURFACE()B_SPLINE_SURFACE(2,1,((#81,#82),(#83,#84),(#85,#86)),.UNSPECIFIED.,.F.,.F.,.F.)B_SPLINE_SURFACE_WITH_KNOTS((3,3),(2,2),(0.00000000000000000E0,1.00000000000000000E0),(0.00000000000000000E0,1.00000000000000000E0),.UNSPECIFIED.)GEOMETRIC_REPRESENTATION_ITEM()RATIONAL_B_SPLINE_SURFACE(((1.00000000000000000E0,1.00000000000000000E0),(7.07106781186547573E-1,7.07106781186547573E-1),(1.00000000000000000E0,1.00000000000000000E0)))REPRESENTATION_ITEM('')SURFACE());
#88=CARTESIAN_POINT('',(1.05000000000000000E1,1.70000000000000000E1,1.10000000000000000E1));
#89=CARTESIAN_POINT('',(1.30000000000000000E1,1.70000000000000000E1,1.10000000000000000E1));
#90=CARTESIAN_POINT('',(1.30000000000000000E1,1.45000000000000000E1,1.10000000000000000E1));
#91=CARTESIAN_POINT('',(1.05000000000000000E1,1.70000000000000000E1,3.10000000000000000E1));
#92=CARTESIAN_POINT('',(1.30000000000000000E1,1.70000000000000000E1,3.10000000000000000E1));
#93=CARTESIAN_POINT('',(1.30000000000000000E1,1.45000000000000000E1,2.85000000000000000E1));
#94=CARTESIAN_POINT('',(1.05000000000000000E1,-3.00000000000000000E0,3.10000000000000000E1));
#95=CARTESIAN_POINT('',(1.30000000000000000E1,-3.00000000000000000E0,3.10000000000000000E1));
#96=CARTESIAN_POINT('',(1.30000000000000000E1,-3.00000000000000000E0,2.85000000000000000E1));
#97=(BOUNDED_SURFACE()B_SPLINE_SURFACE(2,2,((#88,#89,#90),(#91,#92,#93),(#94,#95,#96)),.UNSPECIFIED.,.F.,.F.,.F.)B_SPLINE_SURFACE_WITH_KNOTS((3,3),(3,3),(0.00000000000000000E0,1.00000000000000000E0),(0.00000000000000000E0,1.00000000000000000E0),.UNSPECIFIED.)GEOMETRIC_REPRESENTATION_ITEM()RATIONAL_B_SPLINE_SURFACE(((1.00000000000000000E0,7.07106781186547573E-1,1.00000000000000000E0),(7.07106781186547573E-1,5.00000000000000111E-1,7.07106781186547573E-1),(1.00000000000000000E0,7.07106781186547573E-1,1.00000000000000000E0)))REPRESENTATION_ITEM('')SURFACE());
#98=CARTESIAN_POINT('',(1.05000000000000000E1,-3.00000000000000000E0,3.10000000000000000E1));
#99=CARTESIAN_POINT('',(1.30000000000000000E1,-3.00000000000000000E0,3.10000000000000000E1));
#100=CARTESIAN_POINT('',(1.30000000000000000E1,-3.00000000000000000E0,2.85000000000000000E1));
#101=CARTESIAN_POINT('',(1.05000000000000000E1,-2.30000000000000000E1,3.10000000000000000E1));
#102=CARTESIAN_POINT('',(1.30000000000000000E1,-2.30000000000000000E1,3.10000000000000000E1));
#103=CARTESIAN_POINT('',(1.30000000000000000E1,-2.05000000000000000E1,2.85000000000000000E1));
#104=CARTESIAN_POINT('',(1.05000000000000000E1,-2.30000000000000000E1,1.10000000000000000E1));
#105=CARTESIAN_POINT('',(1.30000000000000000E1,-2.30000000000000000E1,1.10000000000000000E1));
#106=CARTESIAN_POINT('',(1.30000000000000000E1,-2.05000000000000000E1,1.10000000000000000E1));
#107=(BOUNDED_SURFACE()B_SPLINE_SURFACE(2,2,((#98,#99,#100),(#101,#102,#103),(#104,#105,#106)),.UNSPECIFIED.,.F.,.F.,.F.)B_SPLINE_SURFACE_WITH_KNOTS((3,3),(3,3),(0.00000000000000000E0,1.00000000000000000E0),(0.00000000000000000E0,1.00000000000000000E0),.UNSPECIFIED.)GEOMETRIC_REPRESENTATION_ITEM()RATIONAL_B_SPLINE_SURFACE(((1.00000000000000000E0,7.07106781186547573E-1,1.00000000000000000E0),(7.07106781186547573E-1,5.00000000000000111E-1,7.07106781186547573E-1),(1.00000000000000000E0,7.07106781186547573E-1,1.00000000000000000E0)))REPRESENTATION_ITEM('')SURFACE());
#108=CARTESIAN_POINT('',(1.05000000000000000E1,-2.30000000000000000E1,1.10000000000000000E1));
#109=CARTESIAN_POINT('',(1.30000000000000000E1,-2.30000000000000000E1,1.10000000000000000E1));
#110=CARTESIAN_POINT('',(1.30000000000000000E1,-2.05000000000000000E1,1.10000000000000000E1));
#111=CARTESIAN_POINT('',(1.05000000000000000E1,-2.30000000000000000E1,-9.00000000000000000E0));
#112=CARTESIAN_POINT('',(1.30000000000000000E1,-2.30000000000000000E1,-9.00000000000000000E0));
#113=CARTESIAN_POINT('',(1.30000000000000000E1,-2.05000000000000000E1,-6.50000000000000000E0));
#114=CARTESIAN_POINT('',(1.05000000000000000E1,-3.00000000000000000E0,-9.00000000000000000E0));
#115=CARTESIAN_POINT('',(1.30000000000000000E1,-3.00000000000000000E0,-9.00000000000000000E0));
#116=CARTESIAN_POINT('',(1.30000000000000000E1,-3.00000000000000000E0,-6.50000000000000000E0));
#117=(BOUNDED_SURFACE()B_SPLINE_SURFACE(2,2,((#108,#109,#110),(#111,#112,#113),(#114,#115,#116)),.UNSPECIFIED.,.F.,.F.,.F.)B_SPLINE_SURFACE_WITH_KNOTS((3,3),(3,3),(0.00000000000000000E0,1.00000000000000000E0),(0.00000000000000000E0,1.00000000000000000E0),.UNSPECIFIED.)GEOMETRIC_REPRESENTATION_ITEM()RATIONAL_B_SPLINE_SURFACE(((1.00000000000000000E0,7.07106781186547573E-1,1.00000000000000000E0),(7.07106781186547573E-1,5.00000000000000111E-1,7.07106781186547573E-1),(1.00000000000000000E0,7.07106781186547573E-1,1.00000000000000000E0)))REPRESENTATION_ITEM('')SURFACE());
#118=CARTESIAN_POINT('',(1.05000000000000000E1,-3.00000000000000000E0,-9.00000000000000000E0));
#119=CARTESIAN_POINT('',(1.30000000000000000E1,-3.00000000000000000E0,-9.00000000000000000E0));
#120=CARTESIAN_POINT('',(1.30000000000000000E1,-3.00000000000000000E0,-6.50000000000000000E0));
#121=CARTESIAN_POINT('',(1.05000000000000000E1,1.70000000000000000E1,-9.00000000000000000E0));
#122=CARTESIAN_POINT('',(1.30000000000000000E1,1.70000000000000000E1,-9.00000000000000000E0));
#123=CARTESIAN_POINT('',(1.30000000000000000E1,1.45000000000000000E1,-6.50000000000000000E0));
#124=CARTESIAN_POINT('',(1.05000000000000000E1,1.70000000000000000E1,1.10000000000000000E1));
#125=CARTESIAN_POINT('',(1.30000000000000000E1,1.70000000000000000E1,1.10000000000000000E1));
#126=CARTESIAN_POINT('',(1.30000000000000000E1,1.45000000000000000E1,1.10000000000000000E1));
#127=(BOUNDED_SURFACE()B_SPLINE_SURFACE(2,2,((#118,#119,#120),(#121,#122,#123),(#124,#125,#126)),.UNSPECIFIED.,.F.,.F.,.F.)B_SPLINE_SURFACE_WITH_KNOTS((3,3),(3,3),(0.00000000000000000E0,1.00000000000000000E0),(0.00000000000000000E0,1.00000000000000000E0),.UNSPECIFIED.)GEOMETRIC_REPRESENTATION_ITEM()RATIONAL_B_SPLINE_SURFACE(((1.00000000000000000E0,7.07106781186547573E-1,1.00000000000000000E0),(7.07106781186547573E-1,5.00000000000000111E-1,7.07106781186547573E-1),(1.00000000000000000E0,7.07106781186547573E-1,1.00000000000000000E0)))REPRESENTATION_ITEM('')SURFACE());
#128=CARTESIAN_POINT('',(1.30000000000000000E1,1.45000000000000000E1,1.10000000000000000E1));
#129=CARTESIAN_POINT('',(1.30000000000000000E1,2.00000000000000000E0,1.10000000000000000E1));
#130=CARTESIAN_POINT('',(1.30000000000000000E1,1.45000000000000000E1,2.85000000000000000E1));
#131=CARTESIAN_POINT('',(1.30000000000000000E1,2.00000000000000000E0,1.60000000000000000E1));
#132=CARTESIAN_POINT('',(1.30000000000000000E1,-3.00000000000000000E0,2.85000000000000000E1));
#133=CARTESIAN_POINT('',(1.30000000000000000E1,-3.00000000000000000E0,1.60000000000000000E1));
#134=(BOUNDED_SURFACE()B_SPLINE_SURFACE(2,1,((#128,#129),(#130,#131),(#132,#133)),.UNSPECIFIED.,.F.,.F.,.F.)B_SPLINE_SURFACE_WITH_KNOTS((3,3),(2,2),(0.00000000000000000E0,1.00000000000000000E0),(0.00000000000000000E0,1.00000000000000000E0),.UNSPECIFIED.)GEOMETRIC_REPRESENTATION_ITEM()RATIONAL_B_SPLINE_SURFACE(((1.00000000000000000E0,1.00000000000000000E0),(7.07106781186547573E-1,7.07106781186547573E-1),(1.00000000000000000E0,1.00000000000000000E0)))REPRESENTATION_ITEM('')SURFACE());
#135=CARTESIAN_POINT('',(1.30000000000000000E1,-3.00000000000000000E0,2.85000000000000000E1));
#136=CARTESIAN_POINT('',(1.30000000000000000E1,-3.00000000000000000E0,1.60000000000000000E1));
#137=CARTESIAN_POINT('',(1.30000000000000000E1,-2.05000000000000000E1,2.85000000000000000E1));
#138=CARTESIAN_POINT('',(1.30000000000000000E1,-8.00000000000000000E0,1.60000000000000000E1));
#139=CARTESIAN_POINT('',(1.30000000000000000E1,-2.05000000000000000E1,1.10000000000000000E1));
#140=CARTESIAN_POINT('',(1.30000000000000000E1,-8.00000000000000000E0,1.10000000000000000E1));
#141=(BOUNDED_SURFACE()B_SPLINE_SURFACE(2,1,((#135,#136),(#137,#138),(#139,#140)),.UNSPECIFIED.,.F.,.F.,.F.)B_SPLINE_SURFACE_WITH_KNOTS((3,3),(2,2),(0.00000000000000000E0,1.00000000000000000E0),(0.00000000000000000E0,1.00000000000000000E0),.UNSPECIFIED.)GEOMETRIC_REPRESENTATION_ITEM()RATIONAL_B_SPLINE_SURFACE(((1.00000000000000000E0,1.00000000000000000E0),(7.07106781186547573E-1,7.07106781186547573E-1),(1.00000000000000000E0,1.00000000000000000E0)))REPRESENTATION_ITEM('')SURFACE());
#142=CARTESIAN_POINT('',(1.30000000000000000E1,-2.05000000000000000E1,1.10000000000000000E1));
#143=CARTESIAN_POINT('',(1.30000000000000000E1,-8.00000000000000000E0,1.10000000000000000E1));
#144=CARTESIAN_POINT('',(1.30000000000000000E1,-2.05000000000000000E1,-6.50000000000000000E0));
#145=CARTESIAN_POINT('',(1.30000000000000000E1,-8.00000000000000000E0,6.00000000000000000E0));
#146=CARTESIAN_POINT('',(1.30000000000000000E1,-3.00000000000000000E0,-6.50000000000000000E0));
#147=CARTESIAN_POINT('',(1.30000000000000000E1,-3.00000000000000000E0,6.00000000000000000E0));
#148=(BOUNDED_SURFACE()B_SPLINE_SURFACE(2,1,((#142,#143),(#144,#145),(#146,#147)),.UNSPECIFIED.,.F.,.F.,.F.)B_SPLINE_SURFACE_WITH_KNOTS((3,3),(2,2),(0.00000000000000000E0,1.00000000000000000E0),(0.00000000000000000E0,1.00000000000000000E0),.UNSPECIFIED.)GEOMETRIC_REPRESENTATION_ITEM()RATIONAL_B_SPLINE_SURFACE(((1.00000000000000000E0,1.00000000000000000E0),(7.07106781186547573E-1,7.07106781186547573E-1),(1.00000000000000000E0,1.00000000000000000E0)))REPRESENTATION_ITEM('')SURFACE());
#149=CARTESIAN_POINT('',(1.30000000000000000E1,-3.00000000000000000E0,-6.50000000000000000E0));
#150=CARTESIAN_POINT('',(1.30000000000000000E1,-3.00000000000000000E0,6.00000000000000000E0));
#151=CARTESIAN_POINT('',(1.30000000000000000E1,1.45000000000000000E1,-6.50000000000000000E0));
#152=CARTESIAN_POINT('',(1.30000000000000000E1,2.00000000000000000E0,6.00000000000000000E0));
#153=CARTESIAN_POINT('',(1.30000000000000000E1,1.45000000000000000E1,1.10000000000000000E1));
#154=CARTESIAN_POINT('',(1.30000000000000000E1,2.00000000000000000E0,1.10000000000000000E1));
#155=(BOUNDED_SURFACE()B_SPLINE_SURFACE(2,1,((#149,#150),(#151,#152),(#153,#154)),.UNSPECIFIED.,.F.,.F.,.F.)B_SPLINE_SURFACE_WITH_KNOTS((3,3),(2,2),(0.00000000000000000E0,1.00000000000000000E0),(0.00000000000000000E0,1.00000000000000000E0),.UNSPECIFIED.)GEOMETRIC_REPRESENTATION_ITEM()RATIONAL_B_SPLINE_SURFACE(((1.00000000000000000E0,1.00000000000000000E0),(7.07106781186547573E-1,7.07106781186547573E-1),(1.00000000000000000E0,1.00000000000000000E0)))REPRESENTATION_ITEM('')SURFACE());
#156=CARTESIAN_POINT('',(1.30000000000000000E1,2.00000000000000000E0,1.10000000000000000E1));
#157=CARTESIAN_POINT('',(7.00000000000000000E0,2.00000000000000000E0,1.10000000000000000E1));
#158=CARTESIAN_POINT('',(1.30000000000000000E1,2.00000000000000000E0,1.60000000000000000E1));
#159=CARTESIAN_POINT('',(7.00000000000000000E0,2.00000000000000000E0,1.60000000000000000E1));
#160=CARTESIAN_POINT('',(1.30000000000000000E1,-3.00000000000000000E0,1.60000000000000000E1));
#161=CARTESIAN_POINT('',(7.00000000000000000E0,-3.00000000000000000E0,1.60000000000000000E1));
#162=(BOUNDED_SURFACE()B_SPLINE_SURFACE(2,1,((#156,#157),(#158,#159),(#160,#161)),.UNSPECIFIED.,.F.,.F.,.F.)B_SPLINE_SURFACE_WITH_KNOTS((3,3),(2,2),(0.00000000000000000E0,1.00000000000000000E0),(0.00000000000000000E0,1.00000000000000000E0),.UNSPECIFIED.)GEOMETRIC_REPRESENTATION_ITEM()RATIONAL_B_SPLINE_SURFACE(((1.00000000000000000E0,1.00000000000000000E0),(7.07106781186547573E-1,7.07106781186547573E-1),(1.00000000000000000E0,1.00000000000000000E0)))REPRESENTATION_ITEM('')SURFACE());
#163=CARTESIAN_POINT('',(1.30000000000000000E1,-3.00000000000000000E0,1.60000000000000000E1));
#164=CARTESIAN_POINT('',(7.00000000000000000E0,-3.00000000000000000E0,1.60000000000000000E1));
#165=CARTESIAN_POINT('',(1.30000000000000000E1,-8.00000000000000000E0,1.60000000000000000E1));
#166=CARTESIAN_POINT('',(7.00000000000000000E0,-8.00000000000000000E0,1.60000000000000000E1));
#167=CARTESIAN_POINT('',(1.30000000000000000E1,-8.00000000000000000E0,1.10000000000000000E1));
#168=CARTESIAN_POINT('',(7.00000000000000000E0,-8.00000000000000000E0,1.10000000000000000E1));
#169=(BOUNDED_SURFACE()B_SPLINE_SURFACE(2,1,((#163,#164),(#165,#166),(#167,#168)),.UNSPECIFIED.,.F.,.F.,.F.)B_SPLINE_SURFACE_WITH_KNOTS((3,3),(2,2),(0.00000000000000000E0,1.00000000000000000E0),(0.00000000000000000E0,1.00000000000000000E0),.UNSPECIFIED.)GEOMETRIC_REPRESENTATION_ITEM()RATIONAL_B_SPLINE_SURFACE(((1.00000000000000000E0,1.00000000000000000E0),(7.07106781186547573E-1,7.07106781186547573E-1),(1.00000000000000000E0,1.00000000000000000E0)))REPRESENTATION_ITEM('')SURFACE());
#170=CARTESIAN_POINT('',(1.30000000000000000E1,-8.00000000000000000E0,1.10000000000000000E1));
#171=CARTESIAN_POINT('',(7.00000000000000000E0,-8.00000000000000000E0,1.10000000000000000E1));
#172=CARTESIAN_POINT('',(1.30000000000000000E1,-8.00000000000000000E0,6.00000000000000000E0));
#173=CARTESIAN_POINT('',(7.00000000000000000E0,-8.00000000000000000E0,6.00000000000000000E0));
#174=CARTESIAN_POINT('',(1.30000000000000000E1,-3.00000000000000000E0,6.00000000000000000E0));
#175=CARTESIAN_POINT('',(7.00000000000000000E0,-3.00000000000000000E0,6.00000000000000000E0));
#176=(BOUNDED_SURFACE()B_SPLINE_SURFACE(2,1,((#170,#171),(#172,#173),(#174,#175)),.UNSPECIFIED.,.F.,.F.,.F.)B_SPLINE_SURFACE_WITH_KNOTS((3,3),(2,2),(0.00000000000000000E0,1.00000000000000000E0),(0.00000000000000000E0,1.00000000000000000E0),.UNSPECIFIED.)GEOMETRIC_REPRESENTATION_ITEM()RATIONAL_B_SPLINE_SURFACE(((1.00000000000000000E0,1.00000000000000000E0),(7.07106781186547573E-1,7.07106781186547573E-1),(1.00000000000000000E0,1.00000000000000000E0)))REPRESENTATION_ITEM('')SURFACE());
#177=CARTESIAN_POINT('',(1.30000000000000000E1,-3.00000000000000000E0,6.00000000000000000E0));
#178=CARTESIAN_POINT('',(7.00000000000000000E0,-3.00000000000000000E0,6.00000000000000000E0));
#179=CARTESIAN_POINT('',(1.30000000000000000E1,2.00000000000000000E0,6.00000000000000000E0));
#180=CARTESIAN_POINT('',(7.00000000000000000E0,2.00000000000000000E0,6.00000000000000000E0));
#181=CARTESIAN_POINT('',(1.30000000000000000E1,2.00000000000000000E0,1.10000000000000000E1));
#182=CARTESIAN_POINT('',(7.00000000000000000E0,2.00000000000000000E0,1.10000000000000000E1));
#183=(BOUNDED_SURFACE()B_SPLINE_SURFACE(2,1,((#177,#178),(#179,#180),(#181,#182)),.UNSPECIFIED.,.F.,.F.,.F.)B_SPLINE_SURFACE_WITH_KNOTS((3,3),(2,2),(0.00000000000000000E0,1.00000000000000000E0),(0.00000000000000000E0,1.00000000000000000E0),.UNSPECIFIED.)GEOMETRIC_REPRESENTATION_ITEM()RATIONAL_B_SPLINE_SURFACE(((1.00000000000000000E0,1.00000000000000000E0),(7.07106781186547573E-1,7.07106781186547573E-1),(1.00000000000000000E0,1.00000000000000000E0)))REPRESENTATION_ITEM('')SURFACE());
#184=CARTESIAN_POINT('',(7.00000000000000000E0,2.00000000000000000E0,1.10000000000000000E1));
#185=CARTESIAN_POINT('',(7.00000000000000000E0,2.00000000000000000E0,1.60000000000000000E1));
#186=CARTESIAN_POINT('',(7.00000000000000000E0,-3.00000000000000000E0,1.60000000000000000E1));
#187=(BOUNDED_CURVE()B_SPLINE_CURVE(2,(#184,#185,#186),.UNSPECIFIED.,.F.,.F.)B_SPLINE_CURVE_WITH_KNOTS((3,3),(0.00000000000000000E0,1.00000000000000000E0),.UNSPECIFIED.)CURVE()GEOMETRIC_REPRESENTATION_ITEM()RATIONAL_B_SPLINE_CURVE((1.00000000000000000E0,7.07106781186547573E-1,1.00000000000000000E0))REPRESENTATION_ITEM(''));
#188=CARTESIAN_POINT('',(7.00000000000000000E0,-3.00000000000000000E0,1.60000000000000000E1));
#189=CARTESIAN_POINT('',(7.00000000000000000E0,-3.00000000000000000E0,3.10000000000000000E1));
#190=B_SPLINE_CURVE_WITH_KNOTS('',1,(#188,#189),.UNSPECIFIED.,.F.,.F.,(2,2),(0.00000000000000000E0,1.00000000000000000E0),.UNSPECIFIED.);
#191=CARTESIAN_POINT('',(7.00000000000000000E0,1.70000000000000000E1,1.10000000000000000E1));
#192=CARTESIAN_POINT('',(7.00000000000000000E0,1.70000000000000000E1,3.10000000000000000E1));
#193=CARTESIAN_POINT('',(7.00000000000000000E0,-3.00000000000000000E0,3.10000000000000000E1));
#194=(BOUNDED_CURVE()B_SPLINE_CURVE(2,(#191,#192,#193),.UNSPECIFIED.,.F.,.F.)B_SPLINE_CURVE_WITH_KNOTS((3,3),(0.00000000000000000E0,1.00000000000000000E0),.UNSPECIFIED.)CURVE()GEOMETRIC_REPRESENTATION_ITEM()RATIONAL_B_SPLINE_CURVE((1.00000000000000000E0,7.07106781186547573E-1,1.00000000000000000E0))REPRESENTATION_ITEM(''));
#195=CARTESIAN_POINT('',(7.00000000000000000E0,2.00000000000000000E0,1.10000000000000000E1));
#196=CARTESIAN_POINT('',(7.00000000000000000E0,1.70000000000000000E1,1.10000000000000000E1));
#197=B_SPLINE_CURVE_WITH_KNOTS('',1,(#195,#196),.UNSPECIFIED.,.F.,.F.,(2,2),(0.00000000000000000E0,1.00000000000000000E0),.UNSPECIFIED.);
#198=CARTESIAN_POINT('',(7.00000000000000000E0,-3.00000000000000000E0,1.60000000000000000E1));
#199=CARTESIAN_POINT('',(7.00000000000000000E0,-8.00000000000000000E0,1.60000000000000000E1));
#200=CARTESIAN_POINT('',(7.00000000000000000E0,-8.00000000000000000E0,1.10000000000000000E1));
#201=(BOUNDED_CURVE()B_SPLINE_CURVE(2,(#198,#199,#200),.UNSPECIFIED.,.F.,.F.)B_SPLINE_CURVE_WITH_KNOTS((3,3),(0.00000000000000000E0,1.00000000000000000E0),.UNSPECIFIED.)CURVE()GEOMETRIC_REPRESENTATION_ITEM()RATIONAL_B_SPLINE_CURVE((1.00000000000000000E0,7.07106781186547573E-1,1.00000000000000000E0))REPRESENTATION_ITEM(''));
#202=CARTESIAN_POINT('',(7.00000000000000000E0,-8.00000000000000000E0,1.10000000000000000E1));
#203=CARTESIAN_POINT('',(7.00000000000000000E0,-2.30000000000000000E1,1.10000000000000000E1));
#204=B_SPLINE_CURVE_WITH_KNOTS('',1,(#202,#203),.UNSPECIFIED.,.F.,.F.,(2,2),(0.00000000000000000E0,1.00000000000000000E0),.UNSPECIFIED.);
#205=CARTESIAN_POINT('',(7.00000000000000000E0,-3.00000000000000000E0,3.10000000000000000E1));
#206=CARTESIAN_POINT('',(7.00000000000000000E0,-2.30000000000000000E1,3.10000000000000000E1));
#207=CARTESIAN_POINT('',(7.00000000000000000E0,-2.30000000000000000E1,1.10000000000000000E1));
#208=(BOUNDED_CURVE()B_SPLINE_CURVE(2,(#205,#206,#207),.UNSPECIFIED.,.F.,.F.)B_SPLINE_CURVE_WITH_KNOTS((3,3),(0.00000000000000000E0,1.00000000000000000E0),.UNSPECIFIED.)CURVE()GEOMETRIC_REPRESENTATION_ITEM()RATIONAL_B_SPLINE_CURVE((1.00000000000000000E0,7.07106781186547573E-1,1.00000000000000000E0))REPRESENTATION_ITEM(''));
#209=CARTESIAN_POINT('',(7.00000000000000000E0,-8.00000000000000000E0,1.10000000000000000E1));
#210=CARTESIAN_POINT('',(7.00000000000000000E0,-8.00000000000000000E0,6.00000000000000000E0));
#211=CARTESIAN_POINT('',(7.00000000000000000E0,-3.00000000000000000E0,6.00000000000000000E0));
#212=(BOUNDED_CURVE()B_SPLINE_CURVE(2,(#209,#210,#211),.UNSPECIFIED.,.F.,.F.)B_SPLINE_CURVE_WITH_KNOTS((3,3),(0.00000000000000000E0,1.00000000000000000E0),.UNSPECIFIED.)CURVE()GEOMETRIC_REPRESENTATION_ITEM()RATIONAL_B_SPLINE_CURVE((1.00000000000000000E0,7.07106781186547573E-1,1.00000000000000000E0))REPRESENTATION_ITEM(''));
#213=CARTESIAN_POINT('',(7.00000000000000000E0,-3.00000000000000000E0,6.00000000000000000E0));
#214=CARTESIAN_POINT('',(7.00000000000000000E0,-3.00000000000000000E0,-9.00000000000000000E0));
#215=B_SPLINE_CURVE_WITH_KNOTS('',1,(#213,#214),.UNSPECIFIED.,.F.,.F.,(2,2),(0.00000000000000000E0,1.00000000000000000E0),.UNSPECIFIED.);
#216=CARTESIAN_POINT('',(7.00000000000000000E0,-2.30000000000000000E1,1.10000000000000000E1));
#217=CARTESIAN_POINT('',(7.00000000000000000E0,-2.30000000000000000E1,-9.00000000000000000E0));
#218=CARTESIAN_POINT('',(7.00000000000000000E0,-3.00000000000000000E0,-9.00000000000000000E0));
#219=(BOUNDED_CURVE()B_SPLINE_CURVE(2,(#216,#217,#218),.UNSPECIFIED.,.F.,.F.)B_SPLINE_CURVE_WITH_KNOTS((3,3),(0.00000000000000000E0,1.00000000000000000E0),.UNSPECIFIED.)CURVE()GEOMETRIC_REPRESENTATION_ITEM()RATIONAL_B_SPLINE_CURVE((1.00000000000000000E0,7.07106781186547573E-1,1.00000000000000000E0))REPRESENTATION_ITEM(''));
#220=CARTESIAN_POINT('',(7.00000000000000000E0,2.00000000000000000E0,1.10000000000000000E1));
#221=CARTESIAN_POINT('',(7.00000000000000000E0,2.00000000000000000E0,6.00000000000000000E0));
#222=CARTESIAN_POINT('',(7.00000000000000000E0,-3.00000000000000000E0,6.00000000000000000E0));
#223=(BOUNDED_CURVE()B_SPLINE_CURVE(2,(#220,#221,#222),.UNSPECIFIED.,.F.,.F.)B_SPLINE_CURVE_WITH_KNOTS((3,3),(0.00000000000000000E0,1.00000000000000000E0),.UNSPECIFIED.)CURVE()GEOMETRIC_REPRESENTATION_ITEM()RATIONAL_B_SPLINE_CURVE((1.00000000000000000E0,7.07106781186547573E-1,1.00000000000000000E0))REPRESENTATION_ITEM(''));
#224=CARTESIAN_POINT('',(7.00000000000000000E0,1.70000000000000000E1,1.10000000000000000E1));
#225=CARTESIAN_POINT('',(7.00000000000000000E0,1.70000000000000000E1,-9.00000000000000000E0));
#226=CARTESIAN_POINT('',(7.00000000000000000E0,-3.00000000000000000E0,-9.00000000000000000E0));
#227=(BOUNDED_CURVE()B_SPLINE_CURVE(2,(#224,#225,#226),.UNSPECIFIED.,.F.,.F.)B_SPLINE_CURVE_WITH_KNOTS((3,3),(0.00000000000000000E0,1.00000000000000000E0),.UNSPECIFIED.)CURVE()GEOMETRIC_REPRESENTATION_ITEM()RATIONAL_B_SPLINE_CURVE((1.00000000000000000E0,7.07106781186547573E-1,1.00000000000000000E0))REPRESENTATION_ITEM(''));
#228=CARTESIAN_POINT('',(7.00000000000000000E0,-3.00000000000000000E0,3.10000000000000000E1));
#229=CARTESIAN_POINT('',(1.05000000000000000E1,-3.00000000000000000E0,3.10000000000000000E1));
#230=B_SPLINE_CURVE_WITH_KNOTS('',1,(#228,#229),.UNSPECIFIED.,.F.,.F.,(2,2),(0.00000000000000000E0,1.00000000000000000E0),.UNSPECIFIED.);
#231=CARTESIAN_POINT('',(1.05000000000000000E1,1.70000000000000000E1,1.10000000000000000E1));
#232=CARTESIAN_POINT('',(1.05000000000000000E1,1.70000000000000000E1,3.10000000000000000E1));
#233=CARTESIAN_POINT('',(1.05000000000000000E1,-3.00000000000000000E0,3.10000000000000000E1));
#234=(BOUNDED_CURVE()B_SPLINE_CURVE(2,(#231,#232,#233),.UNSPECIFIED.,.F.,.F.)B_SPLINE_CURVE_WITH_KNOTS((3,3),(0.00000000000000000E0,1.00000000000000000E0),.UNSPECIFIED.)CURVE()GEOMETRIC_REPRESENTATION_ITEM()RATIONAL_B_SPLINE_CURVE((1.00000000000000000E0,7.07106781186547573E-1,1.00000000000000000E0))REPRESENTATION_ITEM(''));
#235=CARTESIAN_POINT('',(7.00000000000000000E0,1.70000000000000000E1,1.10000000000000000E1));
#236=CARTESIAN_POINT('',(1.05000000000000000E1,1.70000000000000000E1,1.10000000000000000E1));
#237=B_SPLINE_CURVE_WITH_KNOTS('',1,(#235,#236),.UNSPECIFIED.,.F.,.F.,(2,2),(0.00000000000000000E0,1.00000000000000000E0),.UNSPECIFIED.);
#238=CARTESIAN_POINT('',(7.00000000000000000E0,-2.30000000000000000E1,1.10000000000000000E1));
#239=CARTESIAN_POINT('',(1.05000000000000000E1,-2.30000000000000000E1,1.10000000000000000E1));
#240=B_SPLINE_CURVE_WITH_KNOTS('',1,(#238,#239),.UNSPECIFIED.,.F.,.F.,(2,2),(0.00000000000000000E0,1.00000000000000000E0),.UNSPECIFIED.);
#241=CARTESIAN_POINT('',(1.05000000000000000E1,-3.00000000000000000E0,3.10000000000000000E1));
#242=CARTESIAN_POINT('',(1.05000000000000000E1,-2.30000000000000000E1,3.10000000000000000E1));
#243=CARTESIAN_POINT('',(1.05000000000000000E1,-2.30000000000000000E1,1.10000000000000000E1));
#244=(BOUNDED_CURVE()B_SPLINE_CURVE(2,(#241,#242,#243),.UNSPECIFIED.,.F.,.F.)B_SPLINE_CURVE_WITH_KNOTS((3,3),(0.00000000000000000E0,1.00000000000000000E0),.UNSPECIFIED.)CURVE()GEOMETRIC_REPRESENTATION_ITEM()RATIONAL_B_SPLINE_CURVE((1.00000000000000000E0,7.07106781186547573E-1,1.00000000000000000E0))REPRESENTATION_ITEM(''));
#245=CARTESIAN_POINT('',(7.00000000000000000E0,-3.00000000000000000E0,-9.00000000000000000E0));
#246=CARTESIAN_POINT('',(1.05000000000000000E1,-3.00000000000000000E0,-9.00000000000000000E0));
#247=B_SPLINE_CURVE_WITH_KNOTS('',1,(#245,#246),.UNSPECIFIED.,.F.,.F.,(2,2),(0.00000000000000000E0,1.00000000000000000E0),.UNSPECIFIED.);
#248=CARTESIAN_POINT('',(1.05000000000000000E1,-2.30000000000000000E1,1.10000000000000000E1));
#249=CARTESIAN_POINT('',(1.05000000000000000E1,-2.30000000000000000E1,-9.00000000000000000E0));
#250=CARTESIAN_POINT('',(1.05000000000000000E1,-3.00000000000000000E0,-9.00000000000000000E0));
#251=(BOUNDED_CURVE()B_SPLINE_CURVE(2,(#248,#249,#250),.UNSPECIFIED.,.F.,.F.)B_SPLINE_CURVE_WITH_KNOTS((3,3),(0.00000000000000000E0,1.00000000000000000E0),.UNSPECIFIED.)CURVE()GEOMETRIC_REPRESENTATION_ITEM()RATIONAL_B_SPLINE_CURVE((1.00000000000000000E0,7.07106781186547573E-1,1.00000000000000000E0))REPRESENTATION_ITEM(''));
#252=CARTESIAN_POINT('',(1.05000000000000000E1,1.70000000000000000E1,1.10000000000000000E1));
#253=CARTESIAN_POINT('',(1.05000000000000000E1,1.70000000000000000E1,-9.00000000000000000E0));
#254=CARTESIAN_POINT('',(1.05000000000000000E1,-3.00000000000000000E0,-9.00000000000000000E0));
#255=(BOUNDED_CURVE()B_SPLINE_CURVE(2,(#252,#253,#254),.UNSPECIFIED.,.F.,.F.)B_SPLINE_CURVE_WITH_KNOTS((3,3),(0.00000000000000000E0,1.00000000000000000E0),.UNSPECIFIED.)CURVE()GEOMETRIC_REPRESENTATION_ITEM()RATIONAL_B_SPLINE_CURVE((1.00000000000000000E0,7.07106781186547573E-1,1.00000000000000000E0))REPRESENTATION_ITEM(''));
#256=CARTESIAN_POINT('',(1.05000000000000000E1,-3.00000000000000000E0,3.10000000000000000E1));
#257=CARTESIAN_POINT('',(1.30000000000000000E1,-3.00000000000000000E0,3.10000000000000000E1));
#258=CARTESIAN_POINT('',(1.30000000000000000E1,-3.00000000000000000E0,2.85000000000000000E1));
#259=(BOUNDED_CURVE()B_SPLINE_CURVE(2,(#256,#257,#258),.UNSPECIFIED.,.F.,.F.)B_SPLINE_CURVE_WITH_KNOTS((3,3),(0.00000000000000000E0,1.00000000000000000E0),.UNSPECIFIED.)CURVE()GEOMETRIC_REPRESENTATION_ITEM()RATIONAL_B_SPLINE_CURVE((1.00000000000000000E0,7.07106781186547573E-1,1.00000000000000000E0))REPRESENTATION_ITEM(''));
#260=CARTESIAN_POINT('',(1.30000000000000000E1,1.45000000000000000E1,1.10000000000000000E1));
#261=CARTESIAN_POINT('',(1.30000000000000000E1,1.45000000000000000E1,2.85000000000000000E1));
#262=CARTESIAN_POINT('',(1.30000000000000000E1,-3.00000000000000000E0,2.85000000000000000E1));
#263=(BOUNDED_CURVE()B_SPLINE_CURVE(2,(#260,#261,#262),.UNSPECIFIED.,.F.,.F.)B_SPLINE_CURVE_WITH_KNOTS((3,3),(0.00000000000000000E0,1.00000000000000000E0),.UNSPECIFIED.)CURVE()GEOMETRIC_REPRESENTATION_ITEM()RATIONAL_B_SPLINE_CURVE((1.00000000000000000E0,7.07106781186547573E-1,1.00000000000000000E0))REPRESENTATION_ITEM(''));
#264=CARTESIAN_POINT('',(1.05000000000000000E1,1.70000000000000000E1,1.10000000000000000E1));
#265=CARTESIAN_POINT('',(1.30000000000000000E1,1.70000000000000000E1,1.10000000000000000E1));
#266=CARTESIAN_POINT('',(1.30000000000000000E1,1.45000000000000000E1,1.10000000000000000E1));
#267=(BOUNDED_CURVE()B_SPLINE_CURVE(2,(#264,#265,#266),.UNSPECIFIED.,.F.,.F.)B_SPLINE_CURVE_WITH_KNOTS((3,3),(0.00000000000000000E0,1.00000000000000000E0),.UNSPECIFIED.)CURVE()GEOMETRIC_REPRESENTATION_ITEM()RATIONAL_B_SPLINE_CURVE((1.00000000000000000E0,7.07106781186547573E-1,1.00000000000000000E0))REPRESENTATION_ITEM(''));
#268=CARTESIAN_POINT('',(1.05000000000000000E1,-2.30000000000000000E1,1.10000000000000000E1));
#269=CARTESIAN_POINT('',(1.30000000000000000E1,-2.30000000000000000E1,1.10000000000000000E1));
#270=CARTESIAN_POINT('',(1.30000000000000000E1,-2.05000000000000000E1,1.10000000000000000E1));
#271=(BOUNDED_CURVE()B_SPLINE_CURVE(2,(#268,#269,#270),.UNSPECIFIED.,.F.,.F.)B_SPLINE_CURVE_WITH_KNOTS((3,3),(0.00000000000000000E0,1.00000000000000000E0),.UNSPECIFIED.)CURVE()GEOMETRIC_REPRESENTATION_ITEM()RATIONAL_B_SPLINE_CURVE((1.00000000000000000E0,7.07106781186547573E-1,1.00000000000000000E0))REPRESENTATION_ITEM(''));
#272=CARTESIAN_POINT('',(1.30000000000000000E1,-3.00000000000000000E0,2.85000000000000000E1));
#273=CARTESIAN_POINT('',(1.30000000000000000E1,-2.05000000000000000E1,2.85000000000000000E1));
#274=CARTESIAN_POINT('',(1.30000000000000000E1,-2.05000000000000000E1,1.10000000000000000E1));
#275=(BOUNDED_CURVE()B_SPLINE_CURVE(2,(#272,#273,#274),.UNSPECIFIED.,.F.,.F.)B_SPLINE_CURVE_WITH_KNOTS((3,3),(0.00000000000000000E0,1.00000000000000000E0),.UNSPECIFIED.)CURVE()GEOMETRIC_REPRESENTATION_ITEM()RATIONAL_B_SPLINE_CURVE((1.00000000000000000E0,7.07106781186547573E-1,1.00000000000000000E0))REPRESENTATION_ITEM(''));
#276=CARTESIAN_POINT('',(1.05000000000000000E1,-3.00000000000000000E0,-9.00000000000000000E0));
#277=CARTESIAN_POINT('',(1.30000000000000000E1,-3.00000000000000000E0,-9.00000000000000000E0));
#278=CARTESIAN_POINT('',(1.30000000000000000E1,-3.00000000000000000E0,-6.50000000000000000E0));
#279=(BOUNDED_CURVE()B_SPLINE_CURVE(2,(#276,#277,#278),.UNSPECIFIED.,.F.,.F.)B_SPLINE_CURVE_WITH_KNOTS((3,3),(0.00000000000000000E0,1.00000000000000000E0),.UNSPECIFIED.)CURVE()GEOMETRIC_REPRESENTATION_ITEM()RATIONAL_B_SPLINE_CURVE((1.00000000000000000E0,7.07106781186547573E-1,1.00000000000000000E0))REPRESENTATION_ITEM(''));
#280=CARTESIAN_POINT('',(1.30000000000000000E1,-2.05000000000000000E1,1.10000000000000000E1));
#281=CARTESIAN_POINT('',(1.30000000000000000E1,-2.05000000000000000E1,-6.50000000000000000E0));
#282=CARTESIAN_POINT('',(1.30000000000000000E1,-3.00000000000000000E0,-6.50000000000000000E0));
#283=(BOUNDED_CURVE()B_SPLINE_CURVE(2,(#280,#281,#282),.UNSPECIFIED.,.F.,.F.)B_SPLINE_CURVE_WITH_KNOTS((3,3),(0.00000000000000000E0,1.00000000000000000E0),.UNSPECIFIED.)CURVE()GEOMETRIC_REPRESENTATION_ITEM()RATIONAL_B_SPLINE_CURVE((1.00000000000000000E0,7.07106781186547573E-1,1.00000000000000000E0))REPRESENTATION_ITEM(''));
#284=CARTESIAN_POINT('',(1.30000000000000000E1,1.45000000000000000E1,1.10000000000000000E1));
#285=CARTESIAN_POINT('',(1.30000000000000000E1,1.45000000000000000E1,-6.50000000000000000E0));
#286=CARTESIAN_POINT('',(1.30000000000000000E1,-3.00000000000000000E0,-6.50000000000000000E0));
#287=(BOUNDED_CURVE()B_SPLINE_CURVE(2,(#284,#285,#286),.UNSPECIFIED.,.F.,.F.)B_SPLINE_CURVE_WITH_KNOTS((3,3),(0.00000000000000000E0,1.00000000000000000E0),.UNSPECIFIED.)CURVE()GEOMETRIC_REPRESENTATION_ITEM()RATIONAL_B_SPLINE_CURVE((1.00000000000000000E0,7.07106781186547573E-1,1.00000000000000000E0))REPRESENTATION_ITEM(''));
#288=CARTESIAN_POINT('',(1.30000000000000000E1,-3.00000000000000000E0,2.85000000000000000E1));
#289=CARTESIAN_POINT('',(1.30000000000000000E1,-3.00000000000000000E0,1.60000000000000000E1));
#290=B_SPLINE_CURVE_WITH_KNOTS('',1,(#288,#289),.UNSPECIFIED.,.F.,.F.,(2,2),(0.00000000000000000E0,1.00000000000000000E0),.UNSPECIFIED.);
#291=CARTESIAN_POINT('',(1.30000000000000000E1,2.00000000000000000E0,1.10000000000000000E1));
#292=CARTESIAN_POINT('',(1.30000000000000000E1,2.00000000000000000E0,1.60000000000000000E1));
#293=CARTESIAN_POINT('',(1.30000000000000000E1,-3.00000000000000000E0,1.60000000000000000E1));
#294=(BOUNDED_CURVE()B_SPLINE_CURVE(2,(#291,#292,#293),.UNSPECIFIED.,.F.,.F.)B_SPLINE_CURVE_WITH_KNOTS((3,3),(0.00000000000000000E0,1.00000000000000000E0),.UNSPECIFIED.)CURVE()GEOMETRIC_REPRESENTATION_ITEM()RATIONAL_B_SPLINE_CURVE((1.00000000000000000E0,7.07106781186547573E-1,1.00000000000000000E0))REPRESENTATION_ITEM(''));
#295=CARTESIAN_POINT('',(1.30000000000000000E1,1.45000000000000000E1,1.10000000000000000E1));
#296=CARTESIAN_POINT('',(1.30000000000000000E1,2.00000000000000000E0,1.10000000000000000E1));
#297=B_SPLINE_CURVE_WITH_KNOTS('',1,(#295,#296),.UNSPECIFIED.,.F.,.F.,(2,2),(0.00000000000000000E0,1.00000000000000000E0),.UNSPECIFIED.);
#298=CARTESIAN_POINT('',(1.30000000000000000E1,-2.05000000000000000E1,1.10000000000000000E1));
#299=CARTESIAN_POINT('',(1.30000000000000000E1,-8.00000000000000000E0,1.10000000000000000E1));
#300=B_SPLINE_CURVE_WITH_KNOTS('',1,(#298,#299),.UNSPECIFIED.,.F.,.F.,(2,2),(0.00000000000000000E0,1.00000000000000000E0),.UNSPECIFIED.);
#301=CARTESIAN_POINT('',(1.30000000000000000E1,-3.00000000000000000E0,1.60000000000000000E1));
#302=CARTESIAN_POINT('',(1.30000000000000000E1,-8.00000000000000000E0,1.60000000000000000E1));
#303=CARTESIAN_POINT('',(1.30000000000000000E1,-8.00000000000000000E0,1.10000000000000000E1));
#304=(BOUNDED_CURVE()B_SPLINE_CURVE(2,(#301,#302,#303),.UNSPECIFIED.,.F.,.F.)B_SPLINE_CURVE_WITH_KNOTS((3,3),(0.00000000000000000E0,1.00000000000000000E0),.UNSPECIFIED.)CURVE()GEOMETRIC_REPRESENTATION_ITEM()RATIONAL_B_SPLINE_CURVE((1.00000000000000000E0,7.07106781186547573E-1,1.00000000000000000E0))REPRESENTATION_ITEM(''));
#305=CARTESIAN_POINT('',(1.30000000000000000E1,-3.00000000000000000E0,-6.50000000000000000E0));
#306=CARTESIAN_POINT('',(1.30000000000000000E1,-3.00000000000000000E0,6.00000000000000000E0));
#307=B_SPLINE_CURVE_WITH_KNOTS('',1,(#305,#306),.UNSPECIFIED.,.F.,.F.,(2,2),(0.00000000000000000E0,1.00000000000000000E0),.UNSPECIFIED.);
#308=CARTESIAN_POINT('',(1.30000000000000000E1,-8.00000000000000000E0,1.10000000000000000E1));
#309=CARTESIAN_POINT('',(1.30000000000000000E1,-8.00000000000000000E0,6.00000000000000000E0));
#310=CARTESIAN_POINT('',(1.30000000000000000E1,-3.00000000000000000E0,6.00000000000000000E0));
#311=(BOUNDED_CURVE()B_SPLINE_CURVE(2,(#308,#309,#310),.UNSPECIFIED.,.F.,.F.)B_SPLINE_CURVE_WITH_KNOTS((3,3),(0.00000000000000000E0,1.00000000000000000E0),.UNSPECIFIED.)CURVE()GEOMETRIC_REPRESENTATION_ITEM()RATIONAL_B_SPLINE_CURVE((1.00000000000000000E0,7.07106781186547573E-1,1.00000000000000000E0))REPRESENTATION_ITEM(''));
#312=CARTESIAN_POINT('',(1.30000000000000000E1,2.00000000000000000E0,1.10000000000000000E1));
#313=CARTESIAN_POINT('',(1.30000000000000000E1,2.00000000000000000E0,6.00000000000000000E0));
#314=CARTESIAN_POINT('',(1.30000000000000000E1,-3.00000000000000000E0,6.00000000000000000E0));
#315=(BOUNDED_CURVE()B_SPLINE_CURVE(2,(#312,#313,#314),.UNSPECIFIED.,.F.,.F.)B_SPLINE_CURVE_WITH_KNOTS((3,3),(0.00000000000000000E0,1.00000000000000000E0),.UNSPECIFIED.)CURVE()GEOMETRIC_REPRESENTATION_ITEM()RATIONAL_B_SPLINE_CURVE((1.00000000000000000E0,7.07106781186547573E-1,1.00000000000000000E0))REPRESENTATION_ITEM(''));
#316=CARTESIAN_POINT('',(7.00000000000000000E0,-3.00000000000000000E0,1.60000000000000000E1));
#317=CARTESIAN_POINT('',(1.30000000000000000E1,-3.00000000000000000E0,1.60000000000000000E1));
#318=B_SPLINE_CURVE_WITH_KNOTS('',1,(#316,#317),.UNSPECIFIED.,.F.,.F.,(2,2),(0.00000000000000000E0,1.00000000000000000E0),.UNSPECIFIED.);
#319=CARTESIAN_POINT('',(7.00000000000000000E0,2.00000000000000000E0,1.10000000000000000E1));
#320=CARTESIAN_POINT('',(1.30000000000000000E1,2.00000000000000000E0,1.10000000000000000E1));
#321=B_SPLINE_CURVE_WITH_KNOTS('',1,(#319,#320),.UNSPECIFIED.,.F.,.F.,(2,2),(0.00000000000000000E0,1.00000000000000000E0),.UNSPECIFIED.);
#322=CARTESIAN_POINT('',(7.00000000000000000E0,-8.00000000000000000E0,1.10000000000000000E1));
#323=CARTESIAN_POINT('',(1.30000000000000000E1,-8.00000000000000000E0,1.10000000000000000E1));
#324=B_SPLINE_CURVE_WITH_KNOTS('',1,(#322,#323),.UNSPECIFIED.,.F.,.F.,(2,2),(0.00000000000000000E0,1.00000000000000000E0),.UNSPECIFIED.);
#325=CARTESIAN_POINT('',(7.00000000000000000E0,-3.00000000000000000E0,6.00000000000000000E0));
#326=CARTESIAN_POINT('',(1.30000000000000000E1,-3.00000000000000000E0,6.00000000000000000E0));
#327=B_SPLINE_CURVE_WITH_KNOTS('',1,(#325,#326),.UNSPECIFIED.,.F.,.F.,(2,2),(0.00000000000000000E0,1.00000000000000000E0),.UNSPECIFIED.);
#328=(GEOMETRIC_REPRESENTATION_CONTEXT(2)REPRESENTATION_CONTEXT('','2D'));
#329=CARTESIAN_POINT('',(0.00000000000000000E0,0.00000000000000000E0));
#330=CARTESIAN_POINT('',(1.00000000000000000E0,0.00000000000000000E0));
#331=B_SPLINE_CURVE_WITH_KNOTS('',1,(#329,#330),.UNSPECIFIED.,.F.,.F.,(2,2),(0.00000000000000000E0,1.00000000000000000E0),.UNSPECIFIED.);
#332=DEFINITIONAL_REPRESENTATION('',(#331),#328);
#333=PCURVE('',#59,#332);
#334=CARTESIAN_POINT('',(1.00000000000000000E0,0.00000000000000000E0));
#335=CARTESIAN_POINT('',(1.00000000000000000E0,1.00000000000000000E0));
#336=B_SPLINE_CURVE_WITH_KNOTS('',1,(#334,#335),.UNSPECIFIED.,.F.,.F.,(2,2),(0.00000000000000000E0,1.00000000000000000E0),.UNSPECIFIED.);
#337=DEFINITIONAL_REPRESENTATION('',(#336),#328);
#338=PCURVE('',#59,#337);
#339=CARTESIAN_POINT('',(1.00000000000000000E0,1.00000000000000000E0));
#340=CARTESIAN_POINT('',(0.00000000000000000E0,1.00000000000000000E0));
#341=B_SPLINE_CURVE_WITH_KNOTS('',1,(#339,#340),.UNSPECIFIED.,.F.,.F.,(2,2),(0.00000000000000000E0,1.00000000000000000E0),.UNSPECIFIED.);
#342=DEFINITIONAL_REPRESENTATION('',(#341),#328);
#343=PCURVE('',#59,#342);
#344=CARTESIAN_POINT('',(0.00000000000000000E0,1.00000000000000000E0));
#345=CARTESIAN_POINT('',(0.00000000000000000E0,0.00000000000000000E0));
#346=B_SPLINE_CURVE_WITH_KNOTS('',1,(#344,#345),.UNSPECIFIED.,.F.,.F.,(2,2),(0.00000000000000000E0,1.00000000000000000E0),.UNSPECIFIED.);
#347=DEFINITIONAL_REPRESENTATION('',(#346),#328);
#348=PCURVE('',#59,#347);
#349=CARTESIAN_POINT('',(1.00000000000000000E0,0.00000000000000000E0));
#350=CARTESIAN_POINT('',(2.00000000000000000E0,0.00000000000000000E0));
#351=B_SPLINE_CURVE_WITH_KNOTS('',1,(#349,#350),.UNSPECIFIED.,.F.,.F.,(2,2),(0.00000000000000000E0,1.00000000000000000E0),.UNSPECIFIED.);
#352=DEFINITIONAL_REPRESENTATION('',(#351),#328);
#353=PCURVE('',#59,#352);
#354=CARTESIAN_POINT('',(2.00000000000000000E0,0.00000000000000000E0));
#355=CARTESIAN_POINT('',(2.00000000000000000E0,1.00000000000000000E0));
#356=B_SPLINE_CURVE_WITH_KNOTS('',1,(#354,#355),.UNSPECIFIED.,.F.,.F.,(2,2),(0.00000000000000000E0,1.00000000000000000E0),.UNSPECIFIED.);
#357=DEFINITIONAL_REPRESENTATION('',(#356),#328);
#358=PCURVE('',#59,#357);
#359=CARTESIAN_POINT('',(2.00000000000000000E0,1.00000000000000000E0));
#360=CARTESIAN_POINT('',(1.00000000000000000E0,1.00000000000000000E0));
#361=B_SPLINE_CURVE_WITH_KNOTS('',1,(#359,#360),.UNSPECIFIED.,.F.,.F.,(2,2),(0.00000000000000000E0,1.00000000000000000E0),.UNSPECIFIED.);
#362=DEFINITIONAL_REPRESENTATION('',(#361),#328);
#363=PCURVE('',#59,#362);
#364=CARTESIAN_POINT('',(1.00000000000000000E0,1.00000000000000000E0));
#365=CARTESIAN_POINT('',(1.00000000000000000E0,0.00000000000000000E0));
#366=B_SPLINE_CURVE_WITH_KNOTS('',1,(#364,#365),.UNSPECIFIED.,.F.,.F.,(2,2),(0.00000000000000000E0,1.00000000000000000E0),.UNSPECIFIED.);
#367=DEFINITIONAL_REPRESENTATION('',(#366),#328);
#368=PCURVE('',#59,#367);
#369=CARTESIAN_POINT('',(2.00000000000000000E0,0.00000000000000000E0));
#370=CARTESIAN_POINT('',(3.00000000000000000E0,0.00000000000000000E0));
#371=B_SPLINE_CURVE_WITH_KNOTS('',1,(#369,#370),.UNSPECIFIED.,.F.,.F.,(2,2),(0.00000000000000000E0,1.00000000000000000E0),.UNSPECIFIED.);
#372=DEFINITIONAL_REPRESENTATION('',(#371),#328);
#373=PCURVE('',#59,#372);
#374=CARTESIAN_POINT('',(3.00000000000000000E0,0.00000000000000000E0));
#375=CARTESIAN_POINT('',(3.00000000000000000E0,1.00000000000000000E0));
#376=B_SPLINE_CURVE_WITH_KNOTS('',1,(#374,#375),.UNSPECIFIED.,.F.,.F.,(2,2),(0.00000000000000000E0,1.00000000000000000E0),.UNSPECIFIED.);
#377=DEFINITIONAL_REPRESENTATION('',(#376),#328);
#378=PCURVE('',#59,#377);
#379=CARTESIAN_POINT('',(3.00000000000000000E0,1.00000000000000000E0));
#380=CARTESIAN_POINT('',(2.00000000000000000E0,1.00000000000000000E0));
#381=B_SPLINE_CURVE_WITH_KNOTS('',1,(#379,#380),.UNSPECIFIED.,.F.,.F.,(2,2),(0.00000000000000000E0,1.00000000000000000E0),.UNSPECIFIED.);
#382=DEFINITIONAL_REPRESENTATION('',(#381),#328);
#383=PCURVE('',#59,#382);
#384=CARTESIAN_POINT('',(2.00000000000000000E0,1.00000000000000000E0));
#385=CARTESIAN_POINT('',(2.00000000000000000E0,0.00000000000000000E0));
#386=B_SPLINE_CURVE_WITH_KNOTS('',1,(#384,#385),.UNSPECIFIED.,.F.,.F.,(2,2),(0.00000000000000000E0,1.00000000000000000E0),.UNSPECIFIED.);
#387=DEFINITIONAL_REPRESENTATION('',(#386),#328);
#388=PCURVE('',#59,#387);
#389=CARTESIAN_POINT('',(3.00000000000000000E0,0.00000000000000000E0));
#390=CARTESIAN_POINT('',(4.00000000000000000E0,0.00000000000000000E0));
#391=B_SPLINE_CURVE_WITH_KNOTS('',1,(#389,#390),.UNSPECIFIED.,.F.,.F.,(2,2),(0.00000000000000000E0,1.00000000000000000E0),.UNSPECIFIED.);
#392=DEFINITIONAL_REPRESENTATION('',(#391),#328);
#393=PCURVE('',#59,#392);
#394=CARTESIAN_POINT('',(4.00000000000000000E0,0.00000000000000000E0));
#395=CARTESIAN_POINT('',(4.00000000000000000E0,1.00000000000000000E0));
#396=B_SPLINE_CURVE_WITH_KNOTS('',1,(#394,#395),.UNSPECIFIED.,.F.,.F.,(2,2),(0.00000000000000000E0,1.00000000000000000E0),.UNSPECIFIED.);
#397=DEFINITIONAL_REPRESENTATION('',(#396),#328);
#398=PCURVE('',#59,#397);
#399=CARTESIAN_POINT('',(4.00000000000000000E0,1.00000000000000000E0));
#400=CARTESIAN_POINT('',(3.00000000000000000E0,1.00000000000000000E0));
#401=B_SPLINE_CURVE_WITH_KNOTS('',1,(#399,#400),.UNSPECIFIED.,.F.,.F.,(2,2),(0.00000000000000000E0,1.00000000000000000E0),.UNSPECIFIED.);
#402=DEFINITIONAL_REPRESENTATION('',(#401),#328);
#403=PCURVE('',#59,#402);
#404=CARTESIAN_POINT('',(3.00000000000000000E0,1.00000000000000000E0));
#405=CARTESIAN_POINT('',(3.00000000000000000E0,0.00000000000000000E0));
#406=B_SPLINE_CURVE_WITH_KNOTS('',1,(#404,#405),.UNSPECIFIED.,.F.,.F.,(2,2),(0.00000000000000000E0,1.00000000000000000E0),.UNSPECIFIED.);
#407=DEFINITIONAL_REPRESENTATION('',(#406),#328);
#408=PCURVE('',#59,#407);
#409=CARTESIAN_POINT('',(0.00000000000000000E0,0.00000000000000000E0));
#410=CARTESIAN_POINT('',(1.00000000000000000E0,0.00000000000000000E0));
#411=B_SPLINE_CURVE_WITH_KNOTS('',1,(#409,#410),.UNSPECIFIED.,.F.,.F.,(2,2),(0.00000000000000000E0,1.00000000000000000E0),.UNSPECIFIED.);
#412=DEFINITIONAL_REPRESENTATION('',(#411),#328);
#413=PCURVE('',#66,#412);
#414=CARTESIAN_POINT('',(1.00000000000000000E0,0.00000000000000000E0));
#415=CARTESIAN_POINT('',(1.00000000000000000E0,1.00000000000000000E0));
#416=B_SPLINE_CURVE_WITH_KNOTS('',1,(#414,#415),.UNSPECIFIED.,.F.,.F.,(2,2),(0.00000000000000000E0,1.00000000000000000E0),.UNSPECIFIED.);
#417=DEFINITIONAL_REPRESENTATION('',(#416),#328);
#418=PCURVE('',#66,#417);
#419=CARTESIAN_POINT('',(1.00000000000000000E0,1.00000000000000000E0));
#420=CARTESIAN_POINT('',(0.00000000000000000E0,1.00000000000000000E0));
#421=B_SPLINE_CURVE_WITH_KNOTS('',1,(#419,#420),.UNSPECIFIED.,.F.,.F.,(2,2),(0.00000000000000000E0,1.00000000000000000E0),.UNSPECIFIED.);
#422=DEFINITIONAL_REPRESENTATION('',(#421),#328);
#423=PCURVE('',#66,#422);
#424=CARTESIAN_POINT('',(0.00000000000000000E0,1.00000000000000000E0));
#425=CARTESIAN_POINT('',(0.00000000000000000E0,0.00000000000000000E0));
#426=B_SPLINE_CURVE_WITH_KNOTS('',1,(#424,#425),.UNSPECIFIED.,.F.,.F.,(2,2),(0.00000000000000000E0,1.00000000000000000E0),.UNSPECIFIED.);
#427=DEFINITIONAL_REPRESENTATION('',(#426),#328);
#428=PCURVE('',#66,#427);
#429=CARTESIAN_POINT('',(0.00000000000000000E0,0.00000000000000000E0));
#430=CARTESIAN_POINT('',(1.00000000000000000E0,0.00000000000000000E0));
#431=B_SPLINE_CURVE_WITH_KNOTS('',1,(#429,#430),.UNSPECIFIED.,.F.,.F.,(2,2),(0.00000000000000000E0,1.00000000000000000E0),.UNSPECIFIED.);
#432=DEFINITIONAL_REPRESENTATION('',(#431),#328);
#433=PCURVE('',#73,#432);
#434=CARTESIAN_POINT('',(1.00000000000000000E0,0.00000000000000000E0));
#435=CARTESIAN_POINT('',(1.00000000000000000E0,1.00000000000000000E0));
#436=B_SPLINE_CURVE_WITH_KNOTS('',1,(#434,#435),.UNSPECIFIED.,.F.,.F.,(2,2),(0.00000000000000000E0,1.00000000000000000E0),.UNSPECIFIED.);
#437=DEFINITIONAL_REPRESENTATION('',(#436),#328);
#438=PCURVE('',#73,#437);
#439=CARTESIAN_POINT('',(1.00000000000000000E0,1.00000000000000000E0));
#440=CARTESIAN_POINT('',(0.00000000000000000E0,1.00000000000000000E0));
#441=B_SPLINE_CURVE_WITH_KNOTS('',1,(#439,#440),.UNSPECIFIED.,.F.,.F.,(2,2),(0.00000000000000000E0,1.00000000000000000E0),.UNSPECIFIED.);
#442=DEFINITIONAL_REPRESENTATION('',(#441),#328);
#443=PCURVE('',#73,#442);
#444=CARTESIAN_POINT('',(0.00000000000000000E0,1.00000000000000000E0));
#445=CARTESIAN_POINT('',(0.00000000000000000E0,0.00000000000000000E0));
#446=B_SPLINE_CURVE_WITH_KNOTS('',1,(#444,#445),.UNSPECIFIED.,.F.,.F.,(2,2),(0.00000000000000000E0,1.00000000000000000E0),.UNSPECIFIED.);
#447=DEFINITIONAL_REPRESENTATION('',(#446),#328);
#448=PCURVE('',#73,#447);
#449=CARTESIAN_POINT('',(0.00000000000000000E0,0.00000000000000000E0));
#450=CARTESIAN_POINT('',(1.00000000000000000E0,0.00000000000000000E0));
#451=B_SPLINE_CURVE_WITH_KNOTS('',1,(#449,#450),.UNSPECIFIED.,.F.,.F.,(2,2),(0.00000000000000000E0,1.00000000000000000E0),.UNSPECIFIED.);
#452=DEFINITIONAL_REPRESENTATION('',(#451),#328);
#453=PCURVE('',#80,#452);
#454=CARTESIAN_POINT('',(1.00000000000000000E0,0.00000000000000000E0));
#455=CARTESIAN_POINT('',(1.00000000000000000E0,1.00000000000000000E0));
#456=B_SPLINE_CURVE_WITH_KNOTS('',1,(#454,#455),.UNSPECIFIED.,.F.,.F.,(2,2),(0.00000000000000000E0,1.00000000000000000E0),.UNSPECIFIED.);
#457=DEFINITIONAL_REPRESENTATION('',(#456),#328);
#458=PCURVE('',#80,#457);
#459=CARTESIAN_POINT('',(1.00000000000000000E0,1.00000000000000000E0));
#460=CARTESIAN_POINT('',(0.00000000000000000E0,1.00000000000000000E0));
#461=B_SPLINE_CURVE_WITH_KNOTS('',1,(#459,#460),.UNSPECIFIED.,.F.,.F.,(2,2),(0.00000000000000000E0,1.00000000000000000E0),.UNSPECIFIED.);
#462=DEFINITIONAL_REPRESENTATION('',(#461),#328);
#463=PCURVE('',#80,#462);
#464=CARTESIAN_POINT('',(0.00000000000000000E0,1.00000000000000000E0));
#465=CARTESIAN_POINT('',(0.00000000000000000E0,0.00000000000000000E0));
#466=B_SPLINE_CURVE_WITH_KNOTS('',1,(#464,#465),.UNSPECIFIED.,.F.,.F.,(2,2),(0.00000000000000000E0,1.00000000000000000E0),.UNSPECIFIED.);
#467=DEFINITIONAL_REPRESENTATION('',(#466),#328);
#468=PCURVE('',#80,#467);
#469=CARTESIAN_POINT('',(0.00000000000000000E0,0.00000000000000000E0));
#470=CARTESIAN_POINT('',(1.00000000000000000E0,0.00000000000000000E0));
#471=B_SPLINE_CURVE_WITH_KNOTS('',1,(#469,#470),.UNSPECIFIED.,.F.,.F.,(2,2),(0.00000000000000000E0,1.00000000000000000E0),.UNSPECIFIED.);
#472=DEFINITIONAL_REPRESENTATION('',(#471),#328);
#473=PCURVE('',#87,#472);
#474=CARTESIAN_POINT('',(1.00000000000000000E0,0.00000000000000000E0));
#475=CARTESIAN_POINT('',(1.00000000000000000E0,1.00000000000000000E0));
#476=B_SPLINE_CURVE_WITH_KNOTS('',1,(#474,#475),.UNSPECIFIED.,.F.,.F.,(2,2),(0.00000000000000000E0,1.00000000000000000E0),.UNSPECIFIED.);
#477=DEFINITIONAL_REPRESENTATION('',(#476),#328);
#478=PCURVE('',#87,#477);
#479=CARTESIAN_POINT('',(1.00000000000000000E0,1.00000000000000000E0));
#480=CARTESIAN_POINT('',(0.00000000000000000E0,1.00000000000000000E0));
#481=B_SPLINE_CURVE_WITH_KNOTS('',1,(#479,#480),.UNSPECIFIED.,.F.,.F.,(2,2),(0.00000000000000000E0,1.00000000000000000E0),.UNSPECIFIED.);
#482=DEFINITIONAL_REPRESENTATION('',(#481),#328);
#483=PCURVE('',#87,#482);
#484=CARTESIAN_POINT('',(0.00000000000000000E0,1.00000000000000000E0));
#485=CARTESIAN_POINT('',(0.00000000000000000E0,0.00000000000000000E0));
#486=B_SPLINE_CURVE_WITH_KNOTS('',1,(#484,#485),.UNSPECIFIED.,.F.,.F.,(2,2),(0.00000000000000000E0,1.00000000000000000E0),.UNSPECIFIED.);
#487=DEFINITIONAL_REPRESENTATION('',(#486),#328);
#488=PCURVE('',#87,#487);
#489=CARTESIAN_POINT('',(0.00000000000000000E0,0.00000000000000000E0));
#490=CARTESIAN_POINT('',(1.00000000000000000E0,0.00000000000000000E0));
#491=B_SPLINE_CURVE_WITH_KNOTS('',1,(#489,#490),.UNSPECIFIED.,.F.,.F.,(2,2),(0.00000000000000000E0,1.00000000000000000E0),.UNSPECIFIED.);
#492=DEFINITIONAL_REPRESENTATION('',(#491),#328);
#493=PCURVE('',#97,#492);
#494=CARTESIAN_POINT('',(1.00000000000000000E0,0.00000000000000000E0));
#495=CARTESIAN_POINT('',(1.00000000000000000E0,1.00000000000000000E0));
#496=B_SPLINE_CURVE_WITH_KNOTS('',1,(#494,#495),.UNSPECIFIED.,.F.,.F.,(2,2),(0.00000000000000000E0,1.00000000000000000E0),.UNSPECIFIED.);
#497=DEFINITIONAL_REPRESENTATION('',(#496),#328);
#498=PCURVE('',#97,#497);
#499=CARTESIAN_POINT('',(1.00000000000000000E0,1.00000000000000000E0));
#500=CARTESIAN_POINT('',(0.00000000000000000E0,1.00000000000000000E0));
#501=B_SPLINE_CURVE_WITH_KNOTS('',1,(#499,#500),.UNSPECIFIED.,.F.,.F.,(2,2),(0.00000000000000000E0,1.00000000000000000E0),.UNSPECIFIED.);
#502=DEFINITIONAL_REPRESENTATION('',(#501),#328);
#503=PCURVE('',#97,#502);
#504=CARTESIAN_POINT('',(0.00000000000000000E0,1.00000000000000000E0));
#505=CARTESIAN_POINT('',(0.00000000000000000E0,0.00000000000000000E0));
#506=B_SPLINE_CURVE_WITH_KNOTS('',1,(#504,#505),.UNSPECIFIED.,.F.,.F.,(2,2),(0.00000000000000000E0,1.00000000000000000E0),.UNSPECIFIED.);
#507=DEFINITIONAL_REPRESENTATION('',(#506),#328);
#508=PCURVE('',#97,#507);
#509=CARTESIAN_POINT('',(0.00000000000000000E0,0.00000000000000000E0));
#510=CARTESIAN_POINT('',(1.00000000000000000E0,0.00000000000000000E0));
#511=B_SPLINE_CURVE_WITH_KNOTS('',1,(#509,#510),.UNSPECIFIED.,.F.,.F.,(2,2),(0.00000000000000000E0,1.00000000000000000E0),.UNSPECIFIED.);
#512=DEFINITIONAL_REPRESENTATION('',(#511),#328);
#513=PCURVE('',#107,#512);
#514=CARTESIAN_POINT('',(1.00000000000000000E0,0.00000000000000000E0));
#515=CARTESIAN_POINT('',(1.00000000000000000E0,1.00000000000000000E0));
#516=B_SPLINE_CURVE_WITH_KNOTS('',1,(#514,#515),.UNSPECIFIED.,.F.,.F.,(2,2),(0.00000000000000000E0,1.00000000000000000E0),.UNSPECIFIED.);
#517=DEFINITIONAL_REPRESENTATION('',(#516),#328);
#518=PCURVE('',#107,#517);
#519=CARTESIAN_POINT('',(1.00000000000000000E0,1.00000000000000000E0));
#520=CARTESIAN_POINT('',(0.00000000000000000E0,1.00000000000000000E0));
#521=B_SPLINE_CURVE_WITH_KNOTS('',1,(#519,#520),.UNSPECIFIED.,.F.,.F.,(2,2),(0.00000000000000000E0,1.00000000000000000E0),.UNSPECIFIED.);
#522=DEFINITIONAL_REPRESENTATION('',(#521),#328);
#523=PCURVE('',#107,#522);
#524=CARTESIAN_POINT('',(0.00000000000000000E0,1.00000000000000000E0));
#525=CARTESIAN_POINT('',(0.00000000000000000E0,0.00000000000000000E0));
#526=B_SPLINE_CURVE_WITH_KNOTS('',1,(#524,#525),.UNSPECIFIED.,.F.,.F.,(2,2),(0.00000000000000000E0,1.00000000000000000E0),.UNSPECIFIED.);
#527=DEFINITIONAL_REPRESENTATION('',(#526),#328);
#528=PCURVE('',#107,#527);
#529=CARTESIAN_POINT('',(0.00000000000000000E0,0.00000000000000000E0));
#530=CARTESIAN_POINT('',(1.00000000000000000E0,0.00000000000000000E0));
#531=B_SPLINE_CURVE_WITH_KNOTS('',1,(#529,#530),.UNSPECIFIED.,.F.,.F.,(2,2),(0.00000000000000000E0,1.00000000000000000E0),.UNSPECIFIED.);
#532=DEFINITIONAL_REPRESENTATION('',(#531),#328);
#533=PCURVE('',#117,#532);
#534=CARTESIAN_POINT('',(1.00000000000000000E0,0.00000000000000000E0));
#535=CARTESIAN_POINT('',(1.00000000000000000E0,1.00000000000000000E0));
#536=B_SPLINE_CURVE_WITH_KNOTS('',1,(#534,#535),.UNSPECIFIED.,.F.,.F.,(2,2),(0.00000000000000000E0,1.00000000000000000E0),.UNSPECIFIED.);
#537=DEFINITIONAL_REPRESENTATION('',(#536),#328);
#538=PCURVE('',#117,#537);
#539=CARTESIAN_POINT('',(1.00000000000000000E0,1.00000000000000000E0));
#540=CARTESIAN_POINT('',(0.00000000000000000E0,1.00000000000000000E0));
#541=B_SPLINE_CURVE_WITH_KNOTS('',1,(#539,#540),.UNSPECIFIED.,.F.,.F.,(2,2),(0.00000000000000000E0,1.00000000000000000E0),.UNSPECIFIED.);
#542=DEFINITIONAL_REPRESENTATION('',(#541),#328);
#543=PCURVE('',#117,#542);
#544=CARTESIAN_POINT('',(0.00000000000000000E0,1.00000000000000000E0));
#545=CARTESIAN_POINT('',(0.00000000000000000E0,0.00000000000000000E0));
#546=B_SPLINE_CURVE_WITH_KNOTS('',1,(#544,#545),.UNSPECIFIED.,.F.,.F.,(2,2),(0.00000000000000000E0,1.00000000000000000E0),.UNSPECIFIED.);
#547=DEFINITIONAL_REPRESENTATION('',(#546),#328);
#548=PCURVE('',#117,#547);
#549=CARTESIAN_POINT('',(0.00000000000000000E0,0.00000000000000000E0));
#550=CARTESIAN_POINT('',(1.00000000000000000E0,0.00000000000000000E0));
#551=B_SPLINE_CURVE_WITH_KNOTS('',1,(#549,#550),.UNSPECIFIED.,.F.,.F.,(2,2),(0.00000000000000000E0,1.00000000000000000E0),.UNSPECIFIED.);
#552=DEFINITIONAL_REPRESENTATION('',(#551),#328);
#553=PCURVE('',#127,#552);
#554=CARTESIAN_POINT('',(1.00000000000000000E0,0.00000000000000000E0));
#555=CARTESIAN_POINT('',(1.00000000000000000E0,1.00000000000000000E0));
#556=B_SPLINE_CURVE_WITH_KNOTS('',1,(#554,#555),.UNSPECIFIED.,.F.,.F.,(2,2),(0.00000000000000000E0,1.00000000000000000E0),.UNSPECIFIED.);
#557=DEFINITIONAL_REPRESENTATION('',(#556),#328);
#558=PCURVE('',#127,#557);
#559=CARTESIAN_POINT('',(1.00000000000000000E0,1.00000000000000000E0));
#560=CARTESIAN_POINT('',(0.00000000000000000E0,1.00000000000000000E0));
#561=B_SPLINE_CURVE_WITH_KNOTS('',1,(#559,#560),.UNSPECIFIED.,.F.,.F.,(2,2),(0.00000000000000000E0,1.00000000000000000E0),.UNSPECIFIED.);
#562=DEFINITIONAL_REPRESENTATION('',(#561),#328);
#563=PCURVE('',#127,#562);
#564=CARTESIAN_POINT('',(0.00000000000000000E0,1.00000000000000000E0));
#565=CARTESIAN_POINT('',(0.00000000000000000E0,0.00000000000000000E0));
#566=B_SPLINE_CURVE_WITH_KNOTS('',1,(#564,#565),.UNSPECIFIED.,.F.,.F.,(2,2),(0.00000000000000000E0,1.00000000000000000E0),.UNSPECIFIED.);
#567=DEFINITIONAL_REPRESENTATION('',(#566),#328);
#568=PCURVE('',#127,#567);
#569=CARTESIAN_POINT('',(0.00000000000000000E0,0.00000000000000000E0));
#570=CARTESIAN_POINT('',(1.00000000000000000E0,0.00000000000000000E0));
#571=B_SPLINE_CURVE_WITH_KNOTS('',1,(#569,#570),.UNSPECIFIED.,.F.,.F.,(2,2),(0.00000000000000000E0,1.00000000000000000E0),.UNSPECIFIED.);
#572=DEFINITIONAL_REPRESENTATION('',(#571),#328);
#573=PCURVE('',#134,#572);
#574=CARTESIAN_POINT('',(1.00000000000000000E0,0.00000000000000000E0));
#575=CARTESIAN_POINT('',(1.00000000000000000E0,1.00000000000000000E0));
#576=B_SPLINE_CURVE_WITH_KNOTS('',1,(#574,#575),.UNSPECIFIED.,.F.,.F.,(2,2),(0.00000000000000000E0,1.00000000000000000E0),.UNSPECIFIED.);
#577=DEFINITIONAL_REPRESENTATION('',(#576),#328);
#578=PCURVE('',#134,#577);
#579=CARTESIAN_POINT('',(1.00000000000000000E0,1.00000000000000000E0));
#580=CARTESIAN_POINT('',(0.00000000000000000E0,1.00000000000000000E0));
#581=B_SPLINE_CURVE_WITH_KNOTS('',1,(#579,#580),.UNSPECIFIED.,.F.,.F.,(2,2),(0.00000000000000000E0,1.00000000000000000E0),.UNSPECIFIED.);
#582=DEFINITIONAL_REPRESENTATION('',(#581),#328);
#583=PCURVE('',#134,#582);
#584=CARTESIAN_POINT('',(0.00000000000000000E0,1.00000000000000000E0));
#585=CARTESIAN_POINT('',(0.00000000000000000E0,0.00000000000000000E0));
#586=B_SPLINE_CURVE_WITH_KNOTS('',1,(#584,#585),.UNSPECIFIED.,.F.,.F.,(2,2),(0.00000000000000000E0,1.00000000000000000E0),.UNSPECIFIED.);
#587=DEFINITIONAL_REPRESENTATION('',(#586),#328);
#588=PCURVE('',#134,#587);
#589=CARTESIAN_POINT('',(0.00000000000000000E0,0.00000000000000000E0));
#590=CARTESIAN_POINT('',(1.00000000000000000E0,0.00000000000000000E0));
#591=B_SPLINE_CURVE_WITH_KNOTS('',1,(#589,#590),.UNSPECIFIED.,.F.,.F.,(2,2),(0.00000000000000000E0,1.00000000000000000E0),.UNSPECIFIED.);
#592=DEFINITIONAL_REPRESENTATION('',(#591),#328);
#593=PCURVE('',#141,#592);
#594=CARTESIAN_POINT('',(1.00000000000000000E0,0.00000000000000000E0));
#595=CARTESIAN_POINT('',(1.00000000000000000E0,1.00000000000000000E0));
#596=B_SPLINE_CURVE_WITH_KNOTS('',1,(#594,#595),.UNSPECIFIED.,.F.,.F.,(2,2),(0.00000000000000000E0,1.00000000000000000E0),.UNSPECIFIED.);
#597=DEFINITIONAL_REPRESENTATION('',(#596),#328);
#598=PCURVE('',#141,#597);
#599=CARTESIAN_POINT('',(1.00000000000000000E0,1.00000000000000000E0));
#600=CARTESIAN_POINT('',(0.00000000000000000E0,1.00000000000000000E0));
#601=B_SPLINE_CURVE_WITH_KNOTS('',1,(#599,#600),.UNSPECIFIED.,.F.,.F.,(2,2),(0.00000000000000000E0,1.00000000000000000E0),.UNSPECIFIED.);
#602=DEFINITIONAL_REPRESENTATION('',(#601),#328);
#603=PCURVE('',#141,#602);
#604=CARTESIAN_POINT('',(0.00000000000000000E0,1.00000000000000000E0));
#605=CARTESIAN_POINT('',(0.00000000000000000E0,0.00000000000000000E0));
#606=B_SPLINE_CURVE_WITH_KNOTS('',1,(#604,#605),.UNSPECIFIED.,.F.,.F.,(2,2),(0.00000000000000000E0,1.00000000000000000E0),.UNSPECIFIED.);
#607=DEFINITIONAL_REPRESENTATION('',(#606),#328);
#608=PCURVE('',#141,#607);
#609=CARTESIAN_POINT('',(0.00000000000000000E0,0.00000000000000000E0));
#610=CARTESIAN_POINT('',(1.00000000000000000E0,0.00000000000000000E0));
#611=B_SPLINE_CURVE_WITH_KNOTS('',1,(#609,#610),.UNSPECIFIED.,.F.,.F.,(2,2),(0.00000000000000000E0,1.00000000000000000E0),.UNSPECIFIED.);
#612=DEFINITIONAL_REPRESENTATION('',(#611),#328);
#613=PCURVE('',#148,#612);
#614=CARTESIAN_POINT('',(1.00000000000000000E0,0.00000000000000000E0));
#615=CARTESIAN_POINT('',(1.00000000000000000E0,1.00000000000000000E0));
#616=B_SPLINE_CURVE_WITH_KNOTS('',1,(#614,#615),.UNSPECIFIED.,.F.,.F.,(2,2),(0.00000000000000000E0,1.00000000000000000E0),.UNSPECIFIED.);
#617=DEFINITIONAL_REPRESENTATION('',(#616),#328);
#618=PCURVE('',#148,#617);
#619=CARTESIAN_POINT('',(1.00000000000000000E0,1.00000000000000000E0));
#620=CARTESIAN_POINT('',(0.00000000000000000E0,1.00000000000000000E0));
#621=B_SPLINE_CURVE_WITH_KNOTS('',1,(#619,#620),.UNSPECIFIED.,.F.,.F.,(2,2),(0.00000000000000000E0,1.00000000000000000E0),.UNSPECIFIED.);
#622=DEFINITIONAL_REPRESENTATION('',(#621),#328);
#623=PCURVE('',#148,#622);
#624=CARTESIAN_POINT('',(0.00000000000000000E0,1.00000000000000000E0));
#625=CARTESIAN_POINT('',(0.00000000000000000E0,0.00000000000000000E0));
#626=B_SPLINE_CURVE_WITH_KNOTS('',1,(#624,#625),.UNSPECIFIED.,.F.,.F.,(2,2),(0.00000000000000000E0,1.00000000000000000E0),.UNSPECIFIED.);
#627=DEFINITIONAL_REPRESENTATION('',(#626),#328);
#628=PCURVE('',#148,#627);
#629=CARTESIAN_POINT('',(0.00000000000000000E0,0.00000000000000000E0));
#630=CARTESIAN_POINT('',(1.00000000000000000E0,0.00000000000000000E0));
#631=B_SPLINE_CURVE_WITH_KNOTS('',1,(#629,#630),.UNSPECIFIED.,.F.,.F.,(2,2),(0.00000000000000000E0,1.00000000000000000E0),.UNSPECIFIED.);
#632=DEFINITIONAL_REPRESENTATION('',(#631),#328);
#633=PCURVE('',#155,#632);
#634=CARTESIAN_POINT('',(1.00000000000000000E0,0.00000000000000000E0));
#635=CARTESIAN_POINT('',(1.00000000000000000E0,1.00000000000000000E0));
#636=B_SPLINE_CURVE_WITH_KNOTS('',1,(#634,#635),.UNSPECIFIED.,.F.,.F.,(2,2),(0.00000000000000000E0,1.00000000000000000E0),.UNSPECIFIED.);
#637=DEFINITIONAL_REPRESENTATION('',(#636),#328);
#638=PCURVE('',#155,#637);
#639=CARTESIAN_POINT('',(1.00000000000000000E0,1.00000000000000000E0));
#640=CARTESIAN_POINT('',(0.00000000000000000E0,1.00000000000000000E0));
#641=B_SPLINE_CURVE_WITH_KNOTS('',1,(#639,#640),.UNSPECIFIED.,.F.,.F.,(2,2),(0.00000000000000000E0,1.00000000000000000E0),.UNSPECIFIED.);
#642=DEFINITIONAL_REPRESENTATION('',(#641),#328);
#643=PCURVE('',#155,#642);
#644=CARTESIAN_POINT('',(0.00000000000000000E0,1.00000000000000000E0));
#645=CARTESIAN_POINT('',(0.00000000000000000E0,0.00000000000000000E0));
#646=B_SPLINE_CURVE_WITH_KNOTS('',1,(#644,#645),.UNSPECIFIED.,.F.,.F.,(2,2),(0.00000000000000000E0,1.00000000000000000E0),.UNSPECIFIED.);
#647=DEFINITIONAL_REPRESENTATION('',(#646),#328);
#648=PCURVE('',#155,#647);
#649=CARTESIAN_POINT('',(0.00000000000000000E0,0.00000000000000000E0));
#650=CARTESIAN_POINT('',(1.00000000000000000E0,0.00000000000000000E0));
#651=B_SPLINE_CURVE_WITH_KNOTS('',1,(#649,#650),.UNSPECIFIED.,.F.,.F.,(2,2),(0.00000000000000000E0,1.00000000000000000E0),.UNSPECIFIED.);
#652=DEFINITIONAL_REPRESENTATION('',(#651),#328);
#653=PCURVE('',#162,#652);
#654=CARTESIAN_POINT('',(1.00000000000000000E0,0.00000000000000000E0));
#655=CARTESIAN_POINT('',(1.00000000000000000E0,1.00000000000000000E0));
#656=B_SPLINE_CURVE_WITH_KNOTS('',1,(#654,#655),.UNSPECIFIED.,.F.,.F.,(2,2),(0.00000000000000000E0,1.00000000000000000E0),.UNSPECIFIED.);
#657=DEFINITIONAL_REPRESENTATION('',(#656),#328);
#658=PCURVE('',#162,#657);
#659=CARTESIAN_POINT('',(1.00000000000000000E0,1.00000000000000000E0));
#660=CARTESIAN_POINT('',(0.00000000000000000E0,1.00000000000000000E0));
#661=B_SPLINE_CURVE_WITH_KNOTS('',1,(#659,#660),.UNSPECIFIED.,.F.,.F.,(2,2),(0.00000000000000000E0,1.00000000000000000E0),.UNSPECIFIED.);
#662=DEFINITIONAL_REPRESENTATION('',(#661),#328);
#663=PCURVE('',#162,#662);
#664=CARTESIAN_POINT('',(0.00000000000000000E0,1.00000000000000000E0));
#665=CARTESIAN_POINT('',(0.00000000000000000E0,0.00000000000000000E0));
#666=B_SPLINE_CURVE_WITH_KNOTS('',1,(#664,#665),.UNSPECIFIED.,.F.,.F.,(2,2),(0.00000000000000000E0,1.00000000000000000E0),.UNSPECIFIED.);
#667=DEFINITIONAL_REPRESENTATION('',(#666),#328);
#668=PCURVE('',#162,#667);
#669=CARTESIAN_POINT('',(0.00000000000000000E0,0.00000000000000000E0));
#670=CARTESIAN_POINT('',(1.00000000000000000E0,0.00000000000000000E0));
#671=B_SPLINE_CURVE_WITH_KNOTS('',1,(#669,#670),.UNSPECIFIED.,.F.,.F.,(2,2),(0.00000000000000000E0,1.00000000000000000E0),.UNSPECIFIED.);
#672=DEFINITIONAL_REPRESENTATION('',(#671),#328);
#673=PCURVE('',#169,#672);
#674=CARTESIAN_POINT('',(1.00000000000000000E0,0.00000000000000000E0));
#675=CARTESIAN_POINT('',(1.00000000000000000E0,1.00000000000000000E0));
#676=B_SPLINE_CURVE_WITH_KNOTS('',1,(#674,#675),.UNSPECIFIED.,.F.,.F.,(2,2),(0.00000000000000000E0,1.00000000000000000E0),.UNSPECIFIED.);
#677=DEFINITIONAL_REPRESENTATION('',(#676),#328);
#678=PCURVE('',#169,#677);
#679=CARTESIAN_POINT('',(1.00000000000000000E0,1.00000000000000000E0));
#680=CARTESIAN_POINT('',(0.00000000000000000E0,1.00000000000000000E0));
#681=B_SPLINE_CURVE_WITH_KNOTS('',1,(#679,#680),.UNSPECIFIED.,.F.,.F.,(2,2),(0.00000000000000000E0,1.00000000000000000E0),.UNSPECIFIED.);
#682=DEFINITIONAL_REPRESENTATION('',(#681),#328);
#683=PCURVE('',#169,#682);
#684=CARTESIAN_POINT('',(0.00000000000000000E0,1.00000000000000000E0));
#685=CARTESIAN_POINT('',(0.00000000000000000E0,0.00000000000000000E0));
#686=B_SPLINE_CURVE_WITH_KNOTS('',1,(#684,#685),.UNSPECIFIED.,.F.,.F.,(2,2),(0.00000000000000000E0,1.00000000000000000E0),.UNSPECIFIED.);
#687=DEFINITIONAL_REPRESENTATION('',(#686),#328);
#688=PCURVE('',#169,#687);
#689=CARTESIAN_POINT('',(0.00000000000000000E0,0.00000000000000000E0));
#690=CARTESIAN_POINT('',(1.00000000000000000E0,0.00000000000000000E0));
#691=B_SPLINE_CURVE_WITH_KNOTS('',1,(#689,#690),.UNSPECIFIED.,.F.,.F.,(2,2),(0.00000000000000000E0,1.00000000000000000E0),.UNSPECIFIED.);
#692=DEFINITIONAL_REPRESENTATION('',(#691),#328);
#693=PCURVE('',#176,#692);
#694=CARTESIAN_POINT('',(1.00000000000000000E0,0.00000000000000000E0));
#695=CARTESIAN_POINT('',(1.00000000000000000E0,1.00000000000000000E0));
#696=B_SPLINE_CURVE_WITH_KNOTS('',1,(#694,#695),.UNSPECIFIED.,.F.,.F.,(2,2),(0.00000000000000000E0,1.00000000000000000E0),.UNSPECIFIED.);
#697=DEFINITIONAL_REPRESENTATION('',(#696),#328);
#698=PCURVE('',#176,#697);
#699=CARTESIAN_POINT('',(1.00000000000000000E0,1.00000000000000000E0));
#700=CARTESIAN_POINT('',(0.00000000000000000E0,1.00000000000000000E0));
#701=B_SPLINE_CURVE_WITH_KNOTS('',1,(#699,#700),.UNSPECIFIED.,.F.,.F.,(2,2),(0.00000000000000000E0,1.00000000000000000E0),.UNSPECIFIED.);
#702=DEFINITIONAL_REPRESENTATION('',(#701),#328);
#703=PCURVE('',#176,#702);
#704=CARTESIAN_POINT('',(0.00000000000000000E0,1.00000000000000000E0));
#705=CARTESIAN_POINT('',(0.00000000000000000E0,0.00000000000000000E0));
#706=B_SPLINE_CURVE_WITH_KNOTS('',1,(#704,#705),.UNSPECIFIED.,.F.,.F.,(2,2),(0.00000000000000000E0,1.00000000000000000E0),.UNSPECIFIED.);
#707=DEFINITIONAL_REPRESENTATION('',(#706),#328);
#708=PCURVE('',#176,#707);
#709=CARTESIAN_POINT('',(0.00000000000000000E0,0.00000000000000000E0));
#710=CARTESIAN_POINT('',(1.00000000000000000E0,0.00000000000000000E0));
#711=B_SPLINE_CURVE_WITH_KNOTS('',1,(#709,#710),.UNSPECIFIED.,.F.,.F.,(2,2),(0.00000000000000000E0,1.00000000000000000E0),.UNSPECIFIED.);
#712=DEFINITIONAL_REPRESENTATION('',(#711),#328);
#713=PCURVE('',#183,#712);
#714=CARTESIAN_POINT('',(1.00000000000000000E0,0.00000000000000000E0));
#715=CARTESIAN_POINT('',(1.00000000000000000E0,1.00000000000000000E0));
#716=B_SPLINE_CURVE_WITH_KNOTS('',1,(#714,#715),.UNSPECIFIED.,.F.,.F.,(2,2),(0.00000000000000000E0,1.00000000000000000E0),.UNSPECIFIED.);
#717=DEFINITIONAL_REPRESENTATION('',(#716),#328);
#718=PCURVE('',#183,#717);
#719=CARTESIAN_POINT('',(1.00000000000000000E0,1.00000000000000000E0));
#720=CARTESIAN_POINT('',(0.00000000000000000E0,1.00000000000000000E0));
#721=B_SPLINE_CURVE_WITH_KNOTS('',1,(#719,#720),.UNSPECIFIED.,.F.,.F.,(2,2),(0.00000000000000000E0,1.00000000000000000E0),.UNSPECIFIED.);
#722=DEFINITIONAL_REPRESENTATION('',(#721),#328);
#723=PCURVE('',#183,#722);
#724=CARTESIAN_POINT('',(0.00000000000000000E0,1.00000000000000000E0));
#725=CARTESIAN_POINT('',(0.00000000000000000E0,0.00000000000000000E0));
#726=B_SPLINE_CURVE_WITH_KNOTS('',1,(#724,#725),.UNSPECIFIED.,.F.,.F.,(2,2),(0.00000000000000000E0,1.00000000000000000E0),.UNSPECIFIED.);
#727=DEFINITIONAL_REPRESENTATION('',(#726),#328);
#728=PCURVE('',#183,#727);
#729=SURFACE_CURVE('',#187,(#333,#663),.PCURVE_S1.);
#730=EDGE_CURVE('OSCAD_TOPO/3|edge|e:2efb33df6dfd910114d65dc6da122920|da4b3f69080df503a020c0f4b0354a0fb6970551da127087eaf135b3aedd4d57',#2,#4,#729,.T.);
#731=SURFACE_CURVE('',#190,(#338,#368),.PCURVE_S1.);
#732=EDGE_CURVE('OSCAD_TOPO/3|edge|e:7debf08f2163b21ddacfe454302b9c0c|0db63f7231d4136f8013ce938da6741ad5aa7471477ec1d3eaddcb96045a1aa8',#4,#6,#731,.T.);
#733=SURFACE_CURVE('',#194,(#343,#413),.PCURVE_S1.);
#734=EDGE_CURVE('OSCAD_TOPO/3|edge|e:581e3c14e271edb8b93f1e7b11e8210b|60861ded39bf7a27b858401e85017fcc8b875ad2f612709df862ba02597f9df6',#8,#6,#733,.T.);
#735=SEAM_CURVE('',#197,(#348,#398),.PCURVE_S1.);
#736=EDGE_CURVE('OSCAD_TOPO/3|edge|e:3ed138ebbb214bc685d3900dd580153f|044c4bd1058b48277b9f97f6afd7a3de97f13697651e158238abf811ec188946',#2,#8,#735,.T.);
#737=SURFACE_CURVE('',#201,(#353,#683),.PCURVE_S1.);
#738=EDGE_CURVE('OSCAD_TOPO/3|edge|e:afa61bbab3527641322867949f8e2f3c|580aecb867a75732f17b2ee41603eff1c58bc0a3aaad447273f9cf413aa5cfdb',#4,#10,#737,.T.);
#739=SURFACE_CURVE('',#204,(#358,#388),.PCURVE_S1.);
#740=EDGE_CURVE('OSCAD_TOPO/3|edge|e:e7b14dbc774877a22d0a0dd23cab6625|e3323e9b21b78a36a78145bab24de7e2831b96b3ffd703b487582b483e37512c',#10,#12,#739,.T.);
#741=SURFACE_CURVE('',#208,(#363,#433),.PCURVE_S1.);
#742=EDGE_CURVE('OSCAD_TOPO/3|edge|e:65ac68e98b4aafa83ee5fb9622628677|8c43ea2431721bcf023e333de7023660f7d2771549d002eaf645b80b3b356363',#6,#12,#741,.T.);
#743=SURFACE_CURVE('',#212,(#373,#703),.PCURVE_S1.);
#744=EDGE_CURVE('OSCAD_TOPO/3|edge|e:96b5f9a24836334fc3cc31a0629f4c35|7d69f7ea45487bb6509ac852bd5b581b43620ccf5d4782fa4c4ed22c4a9040e1',#10,#14,#743,.T.);
#745=SURFACE_CURVE('',#215,(#378,#408),.PCURVE_S1.);
#746=EDGE_CURVE('OSCAD_TOPO/3|edge|e:3560a2f2d44b50bad252f1986e8c7d79|271f0c00478c914f74acbbac74b62ffce987ec72673e23e8fac4cb10bf9d8c66',#14,#16,#745,.T.);
#747=SURFACE_CURVE('',#219,(#383,#453),.PCURVE_S1.);
#748=EDGE_CURVE('OSCAD_TOPO/3|edge|e:98801b16339825c36b93c589486deb08|fc494ae55b000c3aa92d276480f1c8e1f21f9fe8538ab8a74ba5c28d1f47cc4f',#12,#16,#747,.T.);
#749=SURFACE_CURVE('',#223,(#393,#723),.PCURVE_S1.);
#750=EDGE_CURVE('OSCAD_TOPO/3|edge|e:ae7e118283705b0dfd1a7c5e3c935fe0|320a8e1c16fea08bf6dfe614492b4f59c0682a614484600fa055baba71fc2ed0',#2,#14,#749,.T.);
#751=SURFACE_CURVE('',#227,(#403,#473),.PCURVE_S1.);
#752=EDGE_CURVE('OSCAD_TOPO/3|edge|e:d0bd4e324fd3c105484d4fa56de94111|ebabd67235fb302efce23fed9b9c5b23eddf96a9abe8d2bf5f2cbd8072bb1895',#8,#16,#751,.T.);
#753=SURFACE_CURVE('',#230,(#418,#448),.PCURVE_S1.);
#754=EDGE_CURVE('OSCAD_TOPO/3|edge|e:ac377159226c52382ec4a1a367190ce8|5f48fb675f3f44a868af5130f0262a22e2f4f822bf5d646855cc0d6acf1d5f6e',#6,#18,#753,.T.);
#755=SURFACE_CURVE('',#234,(#423,#493),.PCURVE_S1.);
#756=EDGE_CURVE('OSCAD_TOPO/3|edge|e:9663fac12d2032a35edf247db821f511|4983b7b6e57f5b2d1c9f4dd3a26853f12625c1d1e2c3042cba9ebbc864de3bb8',#20,#18,#755,.T.);
#757=SURFACE_CURVE('',#237,(#428,#478),.PCURVE_S1.);
#758=EDGE_CURVE('OSCAD_TOPO/3|edge|e:b723408c092c7bf8b465691a7380c37e|cff5e965f5c1f91da1721dcf3a1a325b5b25def4c1a56e25fe7efa4341ad9f7d',#8,#20,#757,.T.);
#759=SURFACE_CURVE('',#240,(#438,#468),.PCURVE_S1.);
#760=EDGE_CURVE('OSCAD_TOPO/3|edge|e:73756ccf925b4f2b6225a18a3eae788e|604e0e4a92b01e01debc0df14128eb34d3c49c10969a905c8889549f5300d0aa',#12,#22,#759,.T.);
#761=SURFACE_CURVE('',#244,(#443,#513),.PCURVE_S1.);
#762=EDGE_CURVE('OSCAD_TOPO/3|edge|e:1c29cc2315578f94ba6d70cb8cd51819|9e4c7828f9919738ee57349167f5366f40e243da614244e8df5256b15e1a61f5',#18,#22,#761,.T.);
#763=SURFACE_CURVE('',#247,(#458,#488),.PCURVE_S1.);
#764=EDGE_CURVE('OSCAD_TOPO/3|edge|e:6ed9a3dd8733e1041bd7cd58cb5b2c52|9490c8a21664dd9a50618dfb15815b4ca75674bf8273a0f4606e968eb06ccef9',#16,#24,#763,.T.);
#765=SURFACE_CURVE('',#251,(#463,#533),.PCURVE_S1.);
#766=EDGE_CURVE('OSCAD_TOPO/3|edge|e:81b3c2548fa3129ee835e8224f961ce2|8943680eda8df41a0d1f10db67711c3f99f563ff48e5c133165185d774ac1254',#22,#24,#765,.T.);
#767=SURFACE_CURVE('',#255,(#483,#553),.PCURVE_S1.);
#768=EDGE_CURVE('OSCAD_TOPO/3|edge|e:096c3654bf967c8367e5ce14672c8970|f71e7168d4a089464db12bcd3241e380cd57cd2cc3d25846b8a0d4f2c8e5fd93',#20,#24,#767,.T.);
#769=SURFACE_CURVE('',#259,(#498,#528),.PCURVE_S1.);
#770=EDGE_CURVE('OSCAD_TOPO/3|edge|e:30fe51a0f608c2723988cb9142937ee4|f7d2fd9a5e2e6b1a035b90f0f57d381467a89265fdb5aa71b0ade892ae72d189',#18,#26,#769,.T.);
#771=SURFACE_CURVE('',#263,(#503,#573),.PCURVE_S1.);
#772=EDGE_CURVE('OSCAD_TOPO/3|edge|e:091ab6b6aea59d9118f4790eb339a9d2|d062595cccdce7dbda5b0606b30e11a819a33f5dafb9f5177b532afb55d2c089',#28,#26,#771,.T.);
#773=SURFACE_CURVE('',#267,(#508,#558),.PCURVE_S1.);
#774=EDGE_CURVE('OSCAD_TOPO/3|edge|e:24173fd32292cda4842d4a8559b6de7f|f04171594878b076252b591051743a8f108278220a0e9b369f16bbda6adfca7e',#20,#28,#773,.T.);
#775=SURFACE_CURVE('',#271,(#518,#548),.PCURVE_S1.);
#776=EDGE_CURVE('OSCAD_TOPO/3|edge|e:f26cc953a06855066119788ecde8e8bd|9e1ae6c208982378b84fad6a247a8ee816a0bbf9516b1331375ac33f2bc8ebeb',#22,#30,#775,.T.);
#777=SURFACE_CURVE('',#275,(#523,#593),.PCURVE_S1.);
#778=EDGE_CURVE('OSCAD_TOPO/3|edge|e:c08aaa0561d5520b1ad1da04864db54e|4f8b99ffbbea50c33c39ae8c0fc970e1a67b1435c02a01fc585fc5723593bba9',#26,#30,#777,.T.);
#779=SURFACE_CURVE('',#279,(#538,#568),.PCURVE_S1.);
#780=EDGE_CURVE('OSCAD_TOPO/3|edge|e:9dbdffba8128367d778d62adc53f5c9d|a056dba751a6e5c2f065c2819162a4f5b8b30bb26a1f1150ca60f2835c5227e6',#24,#32,#779,.T.);
#781=SURFACE_CURVE('',#283,(#543,#613),.PCURVE_S1.);
#782=EDGE_CURVE('OSCAD_TOPO/3|edge|e:7aeaa346216d0b577f461cd273550e20|ab77a9c157d6397310be50df05fdc0a038dc0c32ef1b50685f99174a386f3fe0',#30,#32,#781,.T.);
#783=SURFACE_CURVE('',#287,(#563,#633),.PCURVE_S1.);
#784=EDGE_CURVE('OSCAD_TOPO/3|edge|e:5e0e48f2e209c6bdff619b10b5002b2f|920406f6cba9885961cbbaf8c09f35dad2370aad30830f5aa2709556eb13b5fc',#28,#32,#783,.T.);
#785=SURFACE_CURVE('',#290,(#578,#608),.PCURVE_S1.);
#786=EDGE_CURVE('OSCAD_TOPO/3|edge|e:9beec7ef7267672628b786b58d7d18fd|49da7beeddb1da95686c9693a2ccbfdaffbc672dfd6e183426dcfbc9c183fde1',#26,#34,#785,.T.);
#787=SURFACE_CURVE('',#294,(#583,#653),.PCURVE_S1.);
#788=EDGE_CURVE('OSCAD_TOPO/3|edge|e:255ccb34d21f39f5e96823907ae762db|002dbe67c896e35fdafd3044b3bcbb132e32e2335132e5b8811d48b39673ca16',#36,#34,#787,.T.);
#789=SURFACE_CURVE('',#297,(#588,#638),.PCURVE_S1.);
#790=EDGE_CURVE('OSCAD_TOPO/3|edge|e:0198175f6d91ced891b89d6aafd28ed6|4a497ea3b4a5d083e7ab49eb7c61c615a726dda7588face85abcc7f453b91063',#28,#36,#789,.T.);
#791=SURFACE_CURVE('',#300,(#598,#628),.PCURVE_S1.);
#792=EDGE_CURVE('OSCAD_TOPO/3|edge|e:582608c97af0d3926136732a0cc55c26|d89fdecc8c4748ae41c4ee16320e6a384965acda5ae5e0d4acaab5d66016f9c0',#30,#38,#791,.T.);
#793=SURFACE_CURVE('',#304,(#603,#673),.PCURVE_S1.);
#794=EDGE_CURVE('OSCAD_TOPO/3|edge|e:24e66c2dfa290a46ab457455f9d9a644|5072db40cb13fc5a99c8fdd8ebc2c2230216f22c41adc87db2d3977aefd7e0cd',#34,#38,#793,.T.);
#795=SURFACE_CURVE('',#307,(#618,#648),.PCURVE_S1.);
#796=EDGE_CURVE('OSCAD_TOPO/3|edge|e:e1958f5779df349903082881243a245f|174326c4730b657cba0453f98f86d71a1cc5dd3a7aaa24d3d50795ea772bdd52',#32,#40,#795,.T.);
#797=SURFACE_CURVE('',#311,(#623,#693),.PCURVE_S1.);
#798=EDGE_CURVE('OSCAD_TOPO/3|edge|e:15ebb8468de28f0084afd69280e1fda5|2f939e331c1235ab7b47e4e58e2831a52c6cfb7a1fc49d26e8d51658d53368ca',#38,#40,#797,.T.);
#799=SURFACE_CURVE('',#315,(#643,#713),.PCURVE_S1.);
#800=EDGE_CURVE('OSCAD_TOPO/3|edge|e:435713593b02500898880ff53f51cb48|a87bf29ddfd2846ebd43eae699408f9803e04657bdf55493ea722ef14b59b477',#36,#40,#799,.T.);
#801=SURFACE_CURVE('',#318,(#658,#688),.PCURVE_S1.);
#802=EDGE_CURVE('OSCAD_TOPO/3|edge|e:d1179eee68c12bd83822d766fc599f1e|926d5680ed5925b0620661348b7480d4cd84191591a639a28d434900e9f12d04',#4,#34,#801,.T.);
#803=SURFACE_CURVE('',#321,(#668,#718),.PCURVE_S1.);
#804=EDGE_CURVE('OSCAD_TOPO/3|edge|e:ecc247fe9ca497c98d225a3fd5fa016b|673cf39605ad8427810f90d2838fa7188a786cc35266f4db71e56d64a72e8977',#2,#36,#803,.T.);
#805=SURFACE_CURVE('',#324,(#678,#708),.PCURVE_S1.);
#806=EDGE_CURVE('OSCAD_TOPO/3|edge|e:d659d8b5e32000898df54ffd7c5498fa|3f558653a19203d1472d991b27be2e3842438eeca98db215f3e22b2825ebb974',#10,#38,#805,.T.);
#807=SURFACE_CURVE('',#327,(#698,#728),.PCURVE_S1.);
#808=EDGE_CURVE('OSCAD_TOPO/3|edge|e:3db5ed5c378606ccf6fe04a634e9eb46|58ecd717160587058a80fe78e75ffbd634cfd190fed46f5f9bc59a2328069338',#14,#40,#807,.T.);
#809=ORIENTED_EDGE('',*,*,#730,.T.);
#810=ORIENTED_EDGE('',*,*,#732,.T.);
#811=ORIENTED_EDGE('',*,*,#734,.F.);
#812=ORIENTED_EDGE('',*,*,#736,.F.);
#813=EDGE_LOOP('OSCAD_TOPO/3|loop|l:2c8b86ff0e3da281d291975be79c5ecc|66387f164347f596ab3dd8798ea4ecd2f08bb0899a0f9a0b5b24b9178152cbfe',(#809,#810,#811,#812));
#814=ORIENTED_EDGE('',*,*,#738,.T.);
#815=ORIENTED_EDGE('',*,*,#740,.T.);
#816=ORIENTED_EDGE('',*,*,#742,.F.);
#817=ORIENTED_EDGE('',*,*,#732,.F.);
#818=EDGE_LOOP('OSCAD_TOPO/3|loop|l:64d858059b0bfb6778fc7769b8986417|001294477dc367723470eecf2a43b377316278eb7b9786d120bbc751515df52d',(#814,#815,#816,#817));
#819=ORIENTED_EDGE('',*,*,#744,.T.);
#820=ORIENTED_EDGE('',*,*,#746,.T.);
#821=ORIENTED_EDGE('',*,*,#748,.F.);
#822=ORIENTED_EDGE('',*,*,#740,.F.);
#823=EDGE_LOOP('OSCAD_TOPO/3|loop|l:f8ce553a79b30c1da324058e24eb55d5|cfa77d59b97fc1fb23b7b205e79469b00a9bae9951866ca2ee7ced1b486744fc',(#819,#820,#821,#822));
#824=ORIENTED_EDGE('',*,*,#750,.F.);
#825=ORIENTED_EDGE('',*,*,#736,.T.);
#826=ORIENTED_EDGE('',*,*,#752,.T.);
#827=ORIENTED_EDGE('',*,*,#746,.F.);
#828=EDGE_LOOP('OSCAD_TOPO/3|loop|l:a60d81cef085b9af624bb966496967cb|83286392859da617b13aa79b1c34a6e2504e77b05f9245ba7593ee1e4aa041be',(#824,#825,#826,#827));
#829=ORIENTED_EDGE('',*,*,#734,.T.);
#830=ORIENTED_EDGE('',*,*,#754,.T.);
#831=ORIENTED_EDGE('',*,*,#756,.F.);
#832=ORIENTED_EDGE('',*,*,#758,.F.);
#833=EDGE_LOOP('OSCAD_TOPO/3|loop|l:8cff63b8b79c3d9754f09f808cb423aa|0acd2444277d22978c70bd21fb9fd0eb1997ab86ec96f30b4bdf4c6db7faebef',(#829,#830,#831,#832));
#834=ORIENTED_EDGE('',*,*,#742,.T.);
#835=ORIENTED_EDGE('',*,*,#760,.T.);
#836=ORIENTED_EDGE('',*,*,#762,.F.);
#837=ORIENTED_EDGE('',*,*,#754,.F.);
#838=EDGE_LOOP('OSCAD_TOPO/3|loop|l:ea8f72b24bcc105f1a53993c7b865550|2e7540241950ce44a5b20b20819ddcf7fef7fc6ecdd84463bd08333687f4204c',(#834,#835,#836,#837));
#839=ORIENTED_EDGE('',*,*,#748,.T.);
#840=ORIENTED_EDGE('',*,*,#764,.T.);
#841=ORIENTED_EDGE('',*,*,#766,.F.);
#842=ORIENTED_EDGE('',*,*,#760,.F.);
#843=EDGE_LOOP('OSCAD_TOPO/3|loop|l:3798e195444f7caf3ef8680ffd00fcc6|537c8358a5d8128ba306c7ad0e0a6bd37d44d96b3405359977b1b37df7e006e5',(#839,#840,#841,#842));
#844=ORIENTED_EDGE('',*,*,#752,.F.);
#845=ORIENTED_EDGE('',*,*,#758,.T.);
#846=ORIENTED_EDGE('',*,*,#768,.T.);
#847=ORIENTED_EDGE('',*,*,#764,.F.);
#848=EDGE_LOOP('OSCAD_TOPO/3|loop|l:d6001ea50dbab2f8a1b586f738a61961|fd946631719eb134eb8191a89e2e723e96aba53aaf42b9ed841358353ef29ef1',(#844,#845,#846,#847));
#849=ORIENTED_EDGE('',*,*,#756,.T.);
#850=ORIENTED_EDGE('',*,*,#770,.T.);
#851=ORIENTED_EDGE('',*,*,#772,.F.);
#852=ORIENTED_EDGE('',*,*,#774,.F.);
#853=EDGE_LOOP('OSCAD_TOPO/3|loop|l:1ca259fed7d9bb4913e4c2a8ac5f3b10|56c05a42c1074623b016198c55ae159197a4dafa9a31e1068cb015749bb4ff2c',(#849,#850,#851,#852));
#854=ORIENTED_EDGE('',*,*,#762,.T.);
#855=ORIENTED_EDGE('',*,*,#776,.T.);
#856=ORIENTED_EDGE('',*,*,#778,.F.);
#857=ORIENTED_EDGE('',*,*,#770,.F.);
#858=EDGE_LOOP('OSCAD_TOPO/3|loop|l:90c282a96139de9bb8d0a7074e6f96e3|2d158bbf0c841476c6f2e017b2f08d1f29fe990e6da908f8dd6e4579b3012bb0',(#854,#855,#856,#857));
#859=ORIENTED_EDGE('',*,*,#766,.T.);
#860=ORIENTED_EDGE('',*,*,#780,.T.);
#861=ORIENTED_EDGE('',*,*,#782,.F.);
#862=ORIENTED_EDGE('',*,*,#776,.F.);
#863=EDGE_LOOP('OSCAD_TOPO/3|loop|l:a31513e1474c0131aafd29b9aa9d5ab3|6a37d14447a53763b7d3369df11cfa76c5e9a18b8485b01cf15ebc6d1a8352a8',(#859,#860,#861,#862));
#864=ORIENTED_EDGE('',*,*,#768,.F.);
#865=ORIENTED_EDGE('',*,*,#774,.T.);
#866=ORIENTED_EDGE('',*,*,#784,.T.);
#867=ORIENTED_EDGE('',*,*,#780,.F.);
#868=EDGE_LOOP('OSCAD_TOPO/3|loop|l:71aef93fdabc86468488b4ed72f3f8c0|397fb51b20970c8fcc7c53b11157fc2f3edfc1ce76ae18c6d3278cde5fd426bb',(#864,#865,#866,#867));
#869=ORIENTED_EDGE('',*,*,#772,.T.);
#870=ORIENTED_EDGE('',*,*,#786,.T.);
#871=ORIENTED_EDGE('',*,*,#788,.F.);
#872=ORIENTED_EDGE('',*,*,#790,.F.);
#873=EDGE_LOOP('OSCAD_TOPO/3|loop|l:c0a9ff2b3fd43889c28201d1c314db07|47f700f89dfbe5d522d9bfffca2a9b3637cda335de1643dbc7ba261d4a9d4e94',(#869,#870,#871,#872));
#874=ORIENTED_EDGE('',*,*,#778,.T.);
#875=ORIENTED_EDGE('',*,*,#792,.T.);
#876=ORIENTED_EDGE('',*,*,#794,.F.);
#877=ORIENTED_EDGE('',*,*,#786,.F.);
#878=EDGE_LOOP('OSCAD_TOPO/3|loop|l:06919f280093ed6f2eecc4e30bd1731f|bf67eaf7ec3e3fa633e2e04b7190d43b25423b3b4c22fd19f4becfce7e16deb8',(#874,#875,#876,#877));
#879=ORIENTED_EDGE('',*,*,#782,.T.);
#880=ORIENTED_EDGE('',*,*,#796,.T.);
#881=ORIENTED_EDGE('',*,*,#798,.F.);
#882=ORIENTED_EDGE('',*,*,#792,.F.);
#883=EDGE_LOOP('OSCAD_TOPO/3|loop|l:a47117ca4dfb1b6abfa11b80912ee567|46765405f11e28593f77dbcf3f391c417be7e3b7f4201194092bd7fd14eb7fcd',(#879,#880,#881,#882));
#884=ORIENTED_EDGE('',*,*,#784,.F.);
#885=ORIENTED_EDGE('',*,*,#790,.T.);
#886=ORIENTED_EDGE('',*,*,#800,.T.);
#887=ORIENTED_EDGE('',*,*,#796,.F.);
#888=EDGE_LOOP('OSCAD_TOPO/3|loop|l:9d7cfa8e5b8ece7c1e085a62c94508c0|29828ba126c4cfc33d222dc5760d7122ebaa72edfe35f024b2cb7bb2b4829852',(#884,#885,#886,#887));
#889=ORIENTED_EDGE('',*,*,#788,.T.);
#890=ORIENTED_EDGE('',*,*,#802,.F.);
#891=ORIENTED_EDGE('',*,*,#730,.F.);
#892=ORIENTED_EDGE('',*,*,#804,.T.);
#893=EDGE_LOOP('OSCAD_TOPO/3|loop|l:a6ebfaf9b67ceaea66461c1700706340|c592d91381c113c8de6f7a8fe7cd50e2802ef4254bcdd9c37731c6e89ab57499',(#889,#890,#891,#892));
#894=ORIENTED_EDGE('',*,*,#794,.T.);
#895=ORIENTED_EDGE('',*,*,#806,.F.);
#896=ORIENTED_EDGE('',*,*,#738,.F.);
#897=ORIENTED_EDGE('',*,*,#802,.T.);
#898=EDGE_LOOP('OSCAD_TOPO/3|loop|l:7db9aaa5b481a148bbab49836cfe7a7d|3ffe8d5a666b4782e8102422d2b7038da97df0ea5f322ad1152372e0e992e908',(#894,#895,#896,#897));
#899=ORIENTED_EDGE('',*,*,#798,.T.);
#900=ORIENTED_EDGE('',*,*,#808,.F.);
#901=ORIENTED_EDGE('',*,*,#744,.F.);
#902=ORIENTED_EDGE('',*,*,#806,.T.);
#903=EDGE_LOOP('OSCAD_TOPO/3|loop|l:a89e1051f1c35ca32eee0079b36b76b1|3ed7bc724c01c7585f3e9baccb3ed0e42796ab6fc5b72c1f972c7bf36c86d567',(#899,#900,#901,#902));
#904=ORIENTED_EDGE('',*,*,#800,.F.);
#905=ORIENTED_EDGE('',*,*,#804,.F.);
#906=ORIENTED_EDGE('',*,*,#750,.T.);
#907=ORIENTED_EDGE('',*,*,#808,.T.);
#908=EDGE_LOOP('OSCAD_TOPO/3|loop|l:218e173f17a2b0f841cc929c865eeb05|2174d30c7e2386211b6bc122fcbe6ff702f1d2d6bd6962cacdd79b737da23f07',(#904,#905,#906,#907));
#909=FACE_OUTER_BOUND('',#813,.T.);
#910=ADVANCED_FACE('OSCAD_TOPO/3|face|f:2d60fc388ae9bb5dabf8d9ec2426b938|2896e87527bc7ab8b2603215d615064e8bb4f6e2eb74f35df692e5e85e61b3ff',(#909),#59,.T.);
#911=FACE_OUTER_BOUND('',#818,.T.);
#912=ADVANCED_FACE('OSCAD_TOPO/3|face|f:8c39ae26339811b09809abf7aaf399b8|34034f72be1c5375197fbd7eb3a0b3de0be1a3757cf8ca6007cc107514855193',(#911),#59,.T.);
#913=FACE_OUTER_BOUND('',#823,.T.);
#914=ADVANCED_FACE('OSCAD_TOPO/3|face|f:e772d91836f8fa808ecdf9d083953763|7f112b19980ab06fb820dd80a75da4e295cc5f57394b32e620dea4590842ddd0',(#913),#59,.T.);
#915=FACE_OUTER_BOUND('',#828,.T.);
#916=ADVANCED_FACE('OSCAD_TOPO/3|face|f:2b1a04ce0d4d24730af2230fd189f9e2|cec7eda67b3255b179df25428c65e63f71c9c712bfd131fc7f8be18a8593d328',(#915),#59,.T.);
#917=FACE_OUTER_BOUND('',#833,.T.);
#918=ADVANCED_FACE('OSCAD_TOPO/3|face|f:d3956625533e4ae9a9a388b88ccdfe88|21efa8732a0bd37460b5b6c7cdd7c0e553c4928d199d7562d4e77b805acb1a23',(#917),#66,.T.);
#919=FACE_OUTER_BOUND('',#838,.T.);
#920=ADVANCED_FACE('OSCAD_TOPO/3|face|f:b07ea3615d1556bf50eb5ba2c60a1024|df7b6bea2d5a905e1472f764b6bef77d739a16cf1d60391f9690865fc3b2d59a',(#919),#73,.T.);
#921=FACE_OUTER_BOUND('',#843,.T.);
#922=ADVANCED_FACE('OSCAD_TOPO/3|face|f:5f44bb1f8bd2ad1ad1f255f9d6129c20|33ebb361b0a607a3297e82fc65f0b5f416008cca99cf23c38042f1dfd4237986',(#921),#80,.T.);
#923=FACE_OUTER_BOUND('',#848,.T.);
#924=ADVANCED_FACE('OSCAD_TOPO/3|face|f:556d24d13c6840f0cf814e2a63efa2f0|998c930d6f16a3234feecc23458798be31ef5b795ae214e1d873d4b4c5b34c06',(#923),#87,.T.);
#925=FACE_OUTER_BOUND('',#853,.T.);
#926=ADVANCED_FACE('OSCAD_TOPO/3|face|f:69d0d2ff9034d5996769801b629468e4|553a444c2513ee1a415cd26f059dce53ce9135f1d450e9e8ba6542869205f155',(#925),#97,.T.);
#927=FACE_OUTER_BOUND('',#858,.T.);
#928=ADVANCED_FACE('OSCAD_TOPO/3|face|f:2b8126b5ee5cd97f66cdf2c9e11ce58f|c39c2c824fbeeef8174563b340d35a67b5b145a97e85117da15d86523d5277b8',(#927),#107,.T.);
#929=FACE_OUTER_BOUND('',#863,.T.);
#930=ADVANCED_FACE('OSCAD_TOPO/3|face|f:fb9b35786ca2fa06f103f1516d75056f|c0f06d173b1140ac1aef7de817decad7e4d88b5fc81ba8cb9f2ce7e817eabf8c',(#929),#117,.T.);
#931=FACE_OUTER_BOUND('',#868,.T.);
#932=ADVANCED_FACE('OSCAD_TOPO/3|face|f:d379116694335a483d1875103db03eaa|b3fb7a8a58fa5938c7eb42d4bb3d4da37194b9d032fd25c8c3bf19e84ddfa42f',(#931),#127,.T.);
#933=FACE_OUTER_BOUND('',#873,.T.);
#934=ADVANCED_FACE('OSCAD_TOPO/3|face|f:072b07d1eecf2c3c33ec3c96e3740de3|100ea6d90df3d725d51e235e635f377d12844b18242387fd31a39d58d884b0df',(#933),#134,.T.);
#935=FACE_OUTER_BOUND('',#878,.T.);
#936=ADVANCED_FACE('OSCAD_TOPO/3|face|f:2fce989e82f08d299b6b3392de2881c1|29213c70a3bd3c4adaa3287632ba0707ff01e26ef39c6873e2e1ddd0c204267b',(#935),#141,.T.);
#937=FACE_OUTER_BOUND('',#883,.T.);
#938=ADVANCED_FACE('OSCAD_TOPO/3|face|f:920fa271cb2b5da0872cdf7aceb75639|19829cad8c6d559afe31855ad791aba7c666c135b1a373f441cb340968a15683',(#937),#148,.T.);
#939=FACE_OUTER_BOUND('',#888,.T.);
#940=ADVANCED_FACE('OSCAD_TOPO/3|face|f:e882506a340f0aac44bf424eb1058acf|d59f58377e1a03d1c33595565e0b9b8e84e49cae39f39cfebe506000b8c68037',(#939),#155,.T.);
#941=FACE_OUTER_BOUND('',#893,.T.);
#942=ADVANCED_FACE('OSCAD_TOPO/3|face|f:84616b66d925871e95e2d428a37bf65d|bc7f8d9b0bee030b26e600274f12378028a9eed14c9b3408dbfc79b94399fc52',(#941),#162,.T.);
#943=FACE_OUTER_BOUND('',#898,.T.);
#944=ADVANCED_FACE('OSCAD_TOPO/3|face|f:143641d63aeed7e5dd34d46631adfdfc|65233e8efcc41c26cd33796387ad0ab74d5989f9ee5d248e5042a5b39252c9e6',(#943),#169,.T.);
#945=FACE_OUTER_BOUND('',#903,.T.);
#946=ADVANCED_FACE('OSCAD_TOPO/3|face|f:69f4a58f17ab8f6732c3e372a4a344ef|706a6ac026953d688740bd5bd46df920174c643e859abb911c40f65269e5d871',(#945),#176,.T.);
#947=FACE_OUTER_BOUND('',#908,.T.);
#948=ADVANCED_FACE('OSCAD_TOPO/3|face|f:9621cadbae59cce5ba0e8ca8db247370|da1880e036c404e13a9a41034d3b67dced88968e6a55563eb6e0522f1530b083',(#947),#183,.T.);
#949=CLOSED_SHELL('OSCAD_TOPO/3|shell|s:7403aa1f002cb492bf8d0e0026e0cac9|a1dc2e3708343022053f90ef443e763306539a2597a99fc8473bafbdde5741c6',(#910,#912,#914,#916,#918,#920,#922,#924,#926,#928,#930,#932,#934,#936,#938,#940,#942,#944,#946,#948));
#950=MANIFOLD_SOLID_BREP('OSCAD_TOPO/3|body|b:df32a0c27b8d0643eb041ada86735bbd|1e8bfbc9c8f7f20bb39fa1cd1fd601078ef7e5fe95137bd2b34ca3771b9a3875',#949);
#951=(LENGTH_UNIT()NAMED_UNIT(*)SI_UNIT(.MILLI.,.METRE.));
#952=UNCERTAINTY_MEASURE_WITH_UNIT(LENGTH_MEASURE(9.99999999999999955E-8),#951,'distance_accuracy_value','');
#953=(GEOMETRIC_REPRESENTATION_CONTEXT(3)GLOBAL_UNCERTAINTY_ASSIGNED_CONTEXT((#952))GLOBAL_UNIT_ASSIGNED_CONTEXT((#951))REPRESENTATION_CONTEXT('','3D'));
#954=ADVANCED_BREP_SHAPE_REPRESENTATION('',(#950),#953);
#955=APPLICATION_CONTEXT('managed model based 3d engineering');
#956=PRODUCT_CONTEXT('',#955,'mechanical');
#957=PRODUCT('model','model','',(#956));
#958=PRODUCT_DEFINITION_FORMATION('1','',#957);
#959=PRODUCT_DEFINITION_CONTEXT('part definition',#955,'design');
#960=PRODUCT_DEFINITION('design','',#958,#959);
#961=PRODUCT_DEFINITION_SHAPE('','',#960);
#962=SHAPE_DEFINITION_REPRESENTATION(#961,#954);
ENDSEC;
END-ISO-10303-21;
