ISO-10303-21;
HEADER;
FILE_DESCRIPTION(('OpenSCAD Viewer retained AP242 B-rep'),'2;1');
FILE_NAME('model.step','',(''),(''),'OpenSCAD Viewer','OpenSCAD Viewer','');
FILE_SCHEMA(('AP242_MANAGED_MODEL_BASED_3D_ENGINEERING_MIM_LF'));
ENDSEC;
DATA;
#1=CARTESIAN_POINT('',(5.00000000000000000E0,0.00000000000000000E0,0.00000000000000000E0));
#2=VERTEX_POINT('OSCAD_TOPO/3|vertex|v:ca0e371c0e65f05b5b78b9b603713aeb|4172a2f068046afc72ac3e751c4450c5c4a1bdf6a599d0c8bf438537a483418a',#1);
#3=CARTESIAN_POINT('',(0.00000000000000000E0,5.00000000000000000E0,0.00000000000000000E0));
#4=VERTEX_POINT('OSCAD_TOPO/3|vertex|v:52a7adc63afa2c0e5f005639cb9e2d10|51281efd40942a5e074bebb1dda24105797e2c87a468cfdbc9892c14012dce42',#3);
#5=CARTESIAN_POINT('',(-5.00000000000000000E0,0.00000000000000000E0,0.00000000000000000E0));
#6=VERTEX_POINT('OSCAD_TOPO/3|vertex|v:1fc9e0968879ec46488bdee4304e51d6|fd3c8f3c1420774493df7905c05a787915c3bf03cdd9490ed021f657d79576d3',#5);
#7=CARTESIAN_POINT('',(0.00000000000000000E0,-5.00000000000000000E0,0.00000000000000000E0));
#8=VERTEX_POINT('OSCAD_TOPO/3|vertex|v:66354ba7ccd501c81a60daf738ea5514|e647d3a2117c85a5d9755975f2710bca43a3786e142f05e7b1540bbf5f781de4',#7);
#9=CARTESIAN_POINT('',(2.00000000000000000E1,0.00000000000000000E0,0.00000000000000000E0));
#10=VERTEX_POINT('OSCAD_TOPO/3|vertex|v:eeafa1f193a00e53c2ad070631add22a|2f57866bfcf1365e4ee0c0c7b006e7d171e9cf8ecb8e6dcbbbe94f72a62d4823',#9);
#11=CARTESIAN_POINT('',(0.00000000000000000E0,2.00000000000000000E1,0.00000000000000000E0));
#12=VERTEX_POINT('OSCAD_TOPO/3|vertex|v:3d9774850fd962e522513344b828956e|d555225819ec426e319e1bbea33fca8648c37dadb3f764733e3f7e4db4e4465e',#11);
#13=CARTESIAN_POINT('',(-2.00000000000000000E1,0.00000000000000000E0,0.00000000000000000E0));
#14=VERTEX_POINT('OSCAD_TOPO/3|vertex|v:8a63d87e0063351fc3a877852e3c4190|efe4d388619020bc70316871f1ccf610b0eec5383cc7ea53bcb3087502999d03',#13);
#15=CARTESIAN_POINT('',(0.00000000000000000E0,-2.00000000000000000E1,0.00000000000000000E0));
#16=VERTEX_POINT('OSCAD_TOPO/3|vertex|v:2e93c68df56bb8872ea1c7f49a6295d0|137be0bdca1201c4865f995fa30858398cd44d03ef9d3c7ea89c2889a619c120',#15);
#17=CARTESIAN_POINT('',(2.00000000000000000E1,0.00000000000000000E0,5.75000000000000000E0));
#18=VERTEX_POINT('OSCAD_TOPO/3|vertex|v:67505ad0f76beae894c845f78f95f47e|280a264a01fe059a7b4d00cadb9cfee1053a2cd5d6bbc6a71530108c6408259a',#17);
#19=CARTESIAN_POINT('',(0.00000000000000000E0,2.00000000000000000E1,5.75000000000000000E0));
#20=VERTEX_POINT('OSCAD_TOPO/3|vertex|v:2a59c140cc470c947e42216021ed7570|22147615b3ef881ce1a5bf2232331ca3b1030b5bdc89d138cfad6da23c1fde98',#19);
#21=CARTESIAN_POINT('',(-2.00000000000000000E1,0.00000000000000000E0,5.75000000000000000E0));
#22=VERTEX_POINT('OSCAD_TOPO/3|vertex|v:7d87b6618cfe9d4333a5127745a325bb|f03da382c89b6c61468f778cd36bc3044b78d7439e448bb7b27bb705531f253f',#21);
#23=CARTESIAN_POINT('',(0.00000000000000000E0,-2.00000000000000000E1,5.75000000000000000E0));
#24=VERTEX_POINT('OSCAD_TOPO/3|vertex|v:07836e0b766c434440228c53c07a1264|56fb7271fc2dc1df263ff5c1de334d7d55b59daa76e809b54aebcc7d6031fd6a',#23);
#25=CARTESIAN_POINT('',(1.97500000000000000E1,0.00000000000000000E0,6.00000000000000000E0));
#26=VERTEX_POINT('OSCAD_TOPO/3|vertex|v:8a82b3b6a15b3e42275892b5d1a2668b|1381e197b15858befd794acc3d0cadecef008bbad24a50285603f401d6f4a9fb',#25);
#27=CARTESIAN_POINT('',(0.00000000000000000E0,1.97500000000000000E1,6.00000000000000000E0));
#28=VERTEX_POINT('OSCAD_TOPO/3|vertex|v:fda1f535855b0523cf3ac5dcc1da5b0e|7d7208597558b1623a4ca40ece688eb6229dede11803056e67d1a2b117125f57',#27);
#29=CARTESIAN_POINT('',(-1.97500000000000000E1,0.00000000000000000E0,6.00000000000000000E0));
#30=VERTEX_POINT('OSCAD_TOPO/3|vertex|v:bccd9bb8df4b9253879cfc5571b6276e|d96773215907d09c7096af83e064f45a4ab91b7b58f076f0252308cca4b2f7c4',#29);
#31=CARTESIAN_POINT('',(0.00000000000000000E0,-1.97500000000000000E1,6.00000000000000000E0));
#32=VERTEX_POINT('OSCAD_TOPO/3|vertex|v:20ff06cb5d26bef3880eddc221389193|6f26ac42f16a3c0925a665c09021656b58284e55416a6b8146e8c7218a0a60aa',#31);
#33=CARTESIAN_POINT('',(5.00000000000000000E0,0.00000000000000000E0,6.00000000000000000E0));
#34=VERTEX_POINT('OSCAD_TOPO/3|vertex|v:09b078da8d7b0f4865e5f28ec4a88023|c6d8f4335f6b625be585444ea5463ec83d64cd6aec0d58ee3ea72c944e928404',#33);
#35=CARTESIAN_POINT('',(0.00000000000000000E0,5.00000000000000000E0,6.00000000000000000E0));
#36=VERTEX_POINT('OSCAD_TOPO/3|vertex|v:20d12629482d8ebda5e6ac95715b32a2|b198cb21a740f68fa7ff52f151a8619159de83be9e2cce9400122dd1732da42f',#35);
#37=CARTESIAN_POINT('',(-5.00000000000000000E0,0.00000000000000000E0,6.00000000000000000E0));
#38=VERTEX_POINT('OSCAD_TOPO/3|vertex|v:50fb88e6afc1b68e641cd895da922074|9bb30a1b1c3f30c5c16efe2a2406d64ec0af07de0db048106084ca12e943fb39',#37);
#39=CARTESIAN_POINT('',(0.00000000000000000E0,-5.00000000000000000E0,6.00000000000000000E0));
#40=VERTEX_POINT('OSCAD_TOPO/3|vertex|v:eeeeacfb5e7c735b5b1a49455232d113|ea9f79519d3d8ede233a6428cf8d888c3671becb0cf6ff87dc93fae5474b22ff',#39);
#41=CARTESIAN_POINT('',(5.00000000000000000E0,0.00000000000000000E0,0.00000000000000000E0));
#42=CARTESIAN_POINT('',(2.00000000000000000E1,0.00000000000000000E0,0.00000000000000000E0));
#43=CARTESIAN_POINT('',(5.00000000000000000E0,5.00000000000000000E0,0.00000000000000000E0));
#44=CARTESIAN_POINT('',(2.00000000000000000E1,2.00000000000000000E1,0.00000000000000000E0));
#45=CARTESIAN_POINT('',(0.00000000000000000E0,5.00000000000000000E0,0.00000000000000000E0));
#46=CARTESIAN_POINT('',(0.00000000000000000E0,2.00000000000000000E1,0.00000000000000000E0));
#47=CARTESIAN_POINT('',(-5.00000000000000000E0,5.00000000000000000E0,0.00000000000000000E0));
#48=CARTESIAN_POINT('',(-2.00000000000000000E1,2.00000000000000000E1,0.00000000000000000E0));
#49=CARTESIAN_POINT('',(-5.00000000000000000E0,0.00000000000000000E0,0.00000000000000000E0));
#50=CARTESIAN_POINT('',(-2.00000000000000000E1,0.00000000000000000E0,0.00000000000000000E0));
#51=CARTESIAN_POINT('',(-5.00000000000000000E0,-5.00000000000000000E0,0.00000000000000000E0));
#52=CARTESIAN_POINT('',(-2.00000000000000000E1,-2.00000000000000000E1,0.00000000000000000E0));
#53=CARTESIAN_POINT('',(0.00000000000000000E0,-5.00000000000000000E0,0.00000000000000000E0));
#54=CARTESIAN_POINT('',(0.00000000000000000E0,-2.00000000000000000E1,0.00000000000000000E0));
#55=CARTESIAN_POINT('',(5.00000000000000000E0,-5.00000000000000000E0,0.00000000000000000E0));
#56=CARTESIAN_POINT('',(2.00000000000000000E1,-2.00000000000000000E1,0.00000000000000000E0));
#57=CARTESIAN_POINT('',(5.00000000000000000E0,0.00000000000000000E0,0.00000000000000000E0));
#58=CARTESIAN_POINT('',(2.00000000000000000E1,0.00000000000000000E0,0.00000000000000000E0));
#59=(BOUNDED_SURFACE()B_SPLINE_SURFACE(2,1,((#41,#42),(#43,#44),(#45,#46),(#47,#48),(#49,#50),(#51,#52),(#53,#54),(#55,#56),(#57,#58)),.UNSPECIFIED.,.F.,.F.,.F.)B_SPLINE_SURFACE_WITH_KNOTS((3,2,2,2,3),(2,2),(0.00000000000000000E0,1.00000000000000000E0,2.00000000000000000E0,3.00000000000000000E0,4.00000000000000000E0),(0.00000000000000000E0,1.00000000000000000E0),.UNSPECIFIED.)GEOMETRIC_REPRESENTATION_ITEM()RATIONAL_B_SPLINE_SURFACE(((1.00000000000000000E0,1.00000000000000000E0),(7.07106781186547573E-1,7.07106781186547573E-1),(1.00000000000000000E0,1.00000000000000000E0),(7.07106781186547573E-1,7.07106781186547573E-1),(1.00000000000000000E0,1.00000000000000000E0),(7.07106781186547573E-1,7.07106781186547573E-1),(1.00000000000000000E0,1.00000000000000000E0),(7.07106781186547573E-1,7.07106781186547573E-1),(1.00000000000000000E0,1.00000000000000000E0)))REPRESENTATION_ITEM('')SURFACE());
#60=CARTESIAN_POINT('',(2.00000000000000000E1,0.00000000000000000E0,0.00000000000000000E0));
#61=CARTESIAN_POINT('',(2.00000000000000000E1,0.00000000000000000E0,5.75000000000000000E0));
#62=CARTESIAN_POINT('',(2.00000000000000000E1,2.00000000000000000E1,0.00000000000000000E0));
#63=CARTESIAN_POINT('',(2.00000000000000000E1,2.00000000000000000E1,5.75000000000000000E0));
#64=CARTESIAN_POINT('',(0.00000000000000000E0,2.00000000000000000E1,0.00000000000000000E0));
#65=CARTESIAN_POINT('',(0.00000000000000000E0,2.00000000000000000E1,5.75000000000000000E0));
#66=(BOUNDED_SURFACE()B_SPLINE_SURFACE(2,1,((#60,#61),(#62,#63),(#64,#65)),.UNSPECIFIED.,.F.,.F.,.F.)B_SPLINE_SURFACE_WITH_KNOTS((3,3),(2,2),(0.00000000000000000E0,1.00000000000000000E0),(0.00000000000000000E0,1.00000000000000000E0),.UNSPECIFIED.)GEOMETRIC_REPRESENTATION_ITEM()RATIONAL_B_SPLINE_SURFACE(((1.00000000000000000E0,1.00000000000000000E0),(7.07106781186547573E-1,7.07106781186547573E-1),(1.00000000000000000E0,1.00000000000000000E0)))REPRESENTATION_ITEM('')SURFACE());
#67=CARTESIAN_POINT('',(0.00000000000000000E0,2.00000000000000000E1,0.00000000000000000E0));
#68=CARTESIAN_POINT('',(0.00000000000000000E0,2.00000000000000000E1,5.75000000000000000E0));
#69=CARTESIAN_POINT('',(-2.00000000000000000E1,2.00000000000000000E1,0.00000000000000000E0));
#70=CARTESIAN_POINT('',(-2.00000000000000000E1,2.00000000000000000E1,5.75000000000000000E0));
#71=CARTESIAN_POINT('',(-2.00000000000000000E1,0.00000000000000000E0,0.00000000000000000E0));
#72=CARTESIAN_POINT('',(-2.00000000000000000E1,0.00000000000000000E0,5.75000000000000000E0));
#73=(BOUNDED_SURFACE()B_SPLINE_SURFACE(2,1,((#67,#68),(#69,#70),(#71,#72)),.UNSPECIFIED.,.F.,.F.,.F.)B_SPLINE_SURFACE_WITH_KNOTS((3,3),(2,2),(0.00000000000000000E0,1.00000000000000000E0),(0.00000000000000000E0,1.00000000000000000E0),.UNSPECIFIED.)GEOMETRIC_REPRESENTATION_ITEM()RATIONAL_B_SPLINE_SURFACE(((1.00000000000000000E0,1.00000000000000000E0),(7.07106781186547573E-1,7.07106781186547573E-1),(1.00000000000000000E0,1.00000000000000000E0)))REPRESENTATION_ITEM('')SURFACE());
#74=CARTESIAN_POINT('',(-2.00000000000000000E1,0.00000000000000000E0,0.00000000000000000E0));
#75=CARTESIAN_POINT('',(-2.00000000000000000E1,0.00000000000000000E0,5.75000000000000000E0));
#76=CARTESIAN_POINT('',(-2.00000000000000000E1,-2.00000000000000000E1,0.00000000000000000E0));
#77=CARTESIAN_POINT('',(-2.00000000000000000E1,-2.00000000000000000E1,5.75000000000000000E0));
#78=CARTESIAN_POINT('',(0.00000000000000000E0,-2.00000000000000000E1,0.00000000000000000E0));
#79=CARTESIAN_POINT('',(0.00000000000000000E0,-2.00000000000000000E1,5.75000000000000000E0));
#80=(BOUNDED_SURFACE()B_SPLINE_SURFACE(2,1,((#74,#75),(#76,#77),(#78,#79)),.UNSPECIFIED.,.F.,.F.,.F.)B_SPLINE_SURFACE_WITH_KNOTS((3,3),(2,2),(0.00000000000000000E0,1.00000000000000000E0),(0.00000000000000000E0,1.00000000000000000E0),.UNSPECIFIED.)GEOMETRIC_REPRESENTATION_ITEM()RATIONAL_B_SPLINE_SURFACE(((1.00000000000000000E0,1.00000000000000000E0),(7.07106781186547573E-1,7.07106781186547573E-1),(1.00000000000000000E0,1.00000000000000000E0)))REPRESENTATION_ITEM('')SURFACE());
#81=CARTESIAN_POINT('',(0.00000000000000000E0,-2.00000000000000000E1,0.00000000000000000E0));
#82=CARTESIAN_POINT('',(0.00000000000000000E0,-2.00000000000000000E1,5.75000000000000000E0));
#83=CARTESIAN_POINT('',(2.00000000000000000E1,-2.00000000000000000E1,0.00000000000000000E0));
#84=CARTESIAN_POINT('',(2.00000000000000000E1,-2.00000000000000000E1,5.75000000000000000E0));
#85=CARTESIAN_POINT('',(2.00000000000000000E1,0.00000000000000000E0,0.00000000000000000E0));
#86=CARTESIAN_POINT('',(2.00000000000000000E1,0.00000000000000000E0,5.75000000000000000E0));
#87=(BOUNDED_SURFACE()B_SPLINE_SURFACE(2,1,((#81,#82),(#83,#84),(#85,#86)),.UNSPECIFIED.,.F.,.F.,.F.)B_SPLINE_SURFACE_WITH_KNOTS((3,3),(2,2),(0.00000000000000000E0,1.00000000000000000E0),(0.00000000000000000E0,1.00000000000000000E0),.UNSPECIFIED.)GEOMETRIC_REPRESENTATION_ITEM()RATIONAL_B_SPLINE_SURFACE(((1.00000000000000000E0,1.00000000000000000E0),(7.07106781186547573E-1,7.07106781186547573E-1),(1.00000000000000000E0,1.00000000000000000E0)))REPRESENTATION_ITEM('')SURFACE());
#88=CARTESIAN_POINT('',(2.00000000000000000E1,0.00000000000000000E0,5.75000000000000000E0));
#89=CARTESIAN_POINT('',(2.00000000000000000E1,0.00000000000000000E0,6.00000000000000000E0));
#90=CARTESIAN_POINT('',(1.97500000000000000E1,0.00000000000000000E0,6.00000000000000000E0));
#91=CARTESIAN_POINT('',(2.00000000000000000E1,2.00000000000000000E1,5.75000000000000000E0));
#92=CARTESIAN_POINT('',(2.00000000000000000E1,2.00000000000000000E1,6.00000000000000000E0));
#93=CARTESIAN_POINT('',(1.97500000000000000E1,1.97500000000000000E1,6.00000000000000000E0));
#94=CARTESIAN_POINT('',(0.00000000000000000E0,2.00000000000000000E1,5.75000000000000000E0));
#95=CARTESIAN_POINT('',(0.00000000000000000E0,2.00000000000000000E1,6.00000000000000000E0));
#96=CARTESIAN_POINT('',(0.00000000000000000E0,1.97500000000000000E1,6.00000000000000000E0));
#97=(BOUNDED_SURFACE()B_SPLINE_SURFACE(2,2,((#88,#89,#90),(#91,#92,#93),(#94,#95,#96)),.UNSPECIFIED.,.F.,.F.,.F.)B_SPLINE_SURFACE_WITH_KNOTS((3,3),(3,3),(0.00000000000000000E0,1.00000000000000000E0),(0.00000000000000000E0,1.00000000000000000E0),.UNSPECIFIED.)GEOMETRIC_REPRESENTATION_ITEM()RATIONAL_B_SPLINE_SURFACE(((1.00000000000000000E0,7.07106781186547573E-1,1.00000000000000000E0),(7.07106781186547573E-1,5.00000000000000111E-1,7.07106781186547573E-1),(1.00000000000000000E0,7.07106781186547573E-1,1.00000000000000000E0)))REPRESENTATION_ITEM('')SURFACE());
#98=CARTESIAN_POINT('',(0.00000000000000000E0,2.00000000000000000E1,5.75000000000000000E0));
#99=CARTESIAN_POINT('',(0.00000000000000000E0,2.00000000000000000E1,6.00000000000000000E0));
#100=CARTESIAN_POINT('',(0.00000000000000000E0,1.97500000000000000E1,6.00000000000000000E0));
#101=CARTESIAN_POINT('',(-2.00000000000000000E1,2.00000000000000000E1,5.75000000000000000E0));
#102=CARTESIAN_POINT('',(-2.00000000000000000E1,2.00000000000000000E1,6.00000000000000000E0));
#103=CARTESIAN_POINT('',(-1.97500000000000000E1,1.97500000000000000E1,6.00000000000000000E0));
#104=CARTESIAN_POINT('',(-2.00000000000000000E1,0.00000000000000000E0,5.75000000000000000E0));
#105=CARTESIAN_POINT('',(-2.00000000000000000E1,0.00000000000000000E0,6.00000000000000000E0));
#106=CARTESIAN_POINT('',(-1.97500000000000000E1,0.00000000000000000E0,6.00000000000000000E0));
#107=(BOUNDED_SURFACE()B_SPLINE_SURFACE(2,2,((#98,#99,#100),(#101,#102,#103),(#104,#105,#106)),.UNSPECIFIED.,.F.,.F.,.F.)B_SPLINE_SURFACE_WITH_KNOTS((3,3),(3,3),(0.00000000000000000E0,1.00000000000000000E0),(0.00000000000000000E0,1.00000000000000000E0),.UNSPECIFIED.)GEOMETRIC_REPRESENTATION_ITEM()RATIONAL_B_SPLINE_SURFACE(((1.00000000000000000E0,7.07106781186547573E-1,1.00000000000000000E0),(7.07106781186547573E-1,5.00000000000000111E-1,7.07106781186547573E-1),(1.00000000000000000E0,7.07106781186547573E-1,1.00000000000000000E0)))REPRESENTATION_ITEM('')SURFACE());
#108=CARTESIAN_POINT('',(-2.00000000000000000E1,0.00000000000000000E0,5.75000000000000000E0));
#109=CARTESIAN_POINT('',(-2.00000000000000000E1,0.00000000000000000E0,6.00000000000000000E0));
#110=CARTESIAN_POINT('',(-1.97500000000000000E1,0.00000000000000000E0,6.00000000000000000E0));
#111=CARTESIAN_POINT('',(-2.00000000000000000E1,-2.00000000000000000E1,5.75000000000000000E0));
#112=CARTESIAN_POINT('',(-2.00000000000000000E1,-2.00000000000000000E1,6.00000000000000000E0));
#113=CARTESIAN_POINT('',(-1.97500000000000000E1,-1.97500000000000000E1,6.00000000000000000E0));
#114=CARTESIAN_POINT('',(0.00000000000000000E0,-2.00000000000000000E1,5.75000000000000000E0));
#115=CARTESIAN_POINT('',(0.00000000000000000E0,-2.00000000000000000E1,6.00000000000000000E0));
#116=CARTESIAN_POINT('',(0.00000000000000000E0,-1.97500000000000000E1,6.00000000000000000E0));
#117=(BOUNDED_SURFACE()B_SPLINE_SURFACE(2,2,((#108,#109,#110),(#111,#112,#113),(#114,#115,#116)),.UNSPECIFIED.,.F.,.F.,.F.)B_SPLINE_SURFACE_WITH_KNOTS((3,3),(3,3),(0.00000000000000000E0,1.00000000000000000E0),(0.00000000000000000E0,1.00000000000000000E0),.UNSPECIFIED.)GEOMETRIC_REPRESENTATION_ITEM()RATIONAL_B_SPLINE_SURFACE(((1.00000000000000000E0,7.07106781186547573E-1,1.00000000000000000E0),(7.07106781186547573E-1,5.00000000000000111E-1,7.07106781186547573E-1),(1.00000000000000000E0,7.07106781186547573E-1,1.00000000000000000E0)))REPRESENTATION_ITEM('')SURFACE());
#118=CARTESIAN_POINT('',(0.00000000000000000E0,-2.00000000000000000E1,5.75000000000000000E0));
#119=CARTESIAN_POINT('',(0.00000000000000000E0,-2.00000000000000000E1,6.00000000000000000E0));
#120=CARTESIAN_POINT('',(0.00000000000000000E0,-1.97500000000000000E1,6.00000000000000000E0));
#121=CARTESIAN_POINT('',(2.00000000000000000E1,-2.00000000000000000E1,5.75000000000000000E0));
#122=CARTESIAN_POINT('',(2.00000000000000000E1,-2.00000000000000000E1,6.00000000000000000E0));
#123=CARTESIAN_POINT('',(1.97500000000000000E1,-1.97500000000000000E1,6.00000000000000000E0));
#124=CARTESIAN_POINT('',(2.00000000000000000E1,0.00000000000000000E0,5.75000000000000000E0));
#125=CARTESIAN_POINT('',(2.00000000000000000E1,0.00000000000000000E0,6.00000000000000000E0));
#126=CARTESIAN_POINT('',(1.97500000000000000E1,0.00000000000000000E0,6.00000000000000000E0));
#127=(BOUNDED_SURFACE()B_SPLINE_SURFACE(2,2,((#118,#119,#120),(#121,#122,#123),(#124,#125,#126)),.UNSPECIFIED.,.F.,.F.,.F.)B_SPLINE_SURFACE_WITH_KNOTS((3,3),(3,3),(0.00000000000000000E0,1.00000000000000000E0),(0.00000000000000000E0,1.00000000000000000E0),.UNSPECIFIED.)GEOMETRIC_REPRESENTATION_ITEM()RATIONAL_B_SPLINE_SURFACE(((1.00000000000000000E0,7.07106781186547573E-1,1.00000000000000000E0),(7.07106781186547573E-1,5.00000000000000111E-1,7.07106781186547573E-1),(1.00000000000000000E0,7.07106781186547573E-1,1.00000000000000000E0)))REPRESENTATION_ITEM('')SURFACE());
#128=CARTESIAN_POINT('',(1.97500000000000000E1,0.00000000000000000E0,6.00000000000000000E0));
#129=CARTESIAN_POINT('',(5.00000000000000000E0,0.00000000000000000E0,6.00000000000000000E0));
#130=CARTESIAN_POINT('',(1.97500000000000000E1,1.97500000000000000E1,6.00000000000000000E0));
#131=CARTESIAN_POINT('',(5.00000000000000000E0,5.00000000000000000E0,6.00000000000000000E0));
#132=CARTESIAN_POINT('',(0.00000000000000000E0,1.97500000000000000E1,6.00000000000000000E0));
#133=CARTESIAN_POINT('',(0.00000000000000000E0,5.00000000000000000E0,6.00000000000000000E0));
#134=(BOUNDED_SURFACE()B_SPLINE_SURFACE(2,1,((#128,#129),(#130,#131),(#132,#133)),.UNSPECIFIED.,.F.,.F.,.F.)B_SPLINE_SURFACE_WITH_KNOTS((3,3),(2,2),(0.00000000000000000E0,1.00000000000000000E0),(0.00000000000000000E0,1.00000000000000000E0),.UNSPECIFIED.)GEOMETRIC_REPRESENTATION_ITEM()RATIONAL_B_SPLINE_SURFACE(((1.00000000000000000E0,1.00000000000000000E0),(7.07106781186547573E-1,7.07106781186547573E-1),(1.00000000000000000E0,1.00000000000000000E0)))REPRESENTATION_ITEM('')SURFACE());
#135=CARTESIAN_POINT('',(0.00000000000000000E0,1.97500000000000000E1,6.00000000000000000E0));
#136=CARTESIAN_POINT('',(0.00000000000000000E0,5.00000000000000000E0,6.00000000000000000E0));
#137=CARTESIAN_POINT('',(-1.97500000000000000E1,1.97500000000000000E1,6.00000000000000000E0));
#138=CARTESIAN_POINT('',(-5.00000000000000000E0,5.00000000000000000E0,6.00000000000000000E0));
#139=CARTESIAN_POINT('',(-1.97500000000000000E1,0.00000000000000000E0,6.00000000000000000E0));
#140=CARTESIAN_POINT('',(-5.00000000000000000E0,0.00000000000000000E0,6.00000000000000000E0));
#141=(BOUNDED_SURFACE()B_SPLINE_SURFACE(2,1,((#135,#136),(#137,#138),(#139,#140)),.UNSPECIFIED.,.F.,.F.,.F.)B_SPLINE_SURFACE_WITH_KNOTS((3,3),(2,2),(0.00000000000000000E0,1.00000000000000000E0),(0.00000000000000000E0,1.00000000000000000E0),.UNSPECIFIED.)GEOMETRIC_REPRESENTATION_ITEM()RATIONAL_B_SPLINE_SURFACE(((1.00000000000000000E0,1.00000000000000000E0),(7.07106781186547573E-1,7.07106781186547573E-1),(1.00000000000000000E0,1.00000000000000000E0)))REPRESENTATION_ITEM('')SURFACE());
#142=CARTESIAN_POINT('',(-1.97500000000000000E1,0.00000000000000000E0,6.00000000000000000E0));
#143=CARTESIAN_POINT('',(-5.00000000000000000E0,0.00000000000000000E0,6.00000000000000000E0));
#144=CARTESIAN_POINT('',(-1.97500000000000000E1,-1.97500000000000000E1,6.00000000000000000E0));
#145=CARTESIAN_POINT('',(-5.00000000000000000E0,-5.00000000000000000E0,6.00000000000000000E0));
#146=CARTESIAN_POINT('',(0.00000000000000000E0,-1.97500000000000000E1,6.00000000000000000E0));
#147=CARTESIAN_POINT('',(0.00000000000000000E0,-5.00000000000000000E0,6.00000000000000000E0));
#148=(BOUNDED_SURFACE()B_SPLINE_SURFACE(2,1,((#142,#143),(#144,#145),(#146,#147)),.UNSPECIFIED.,.F.,.F.,.F.)B_SPLINE_SURFACE_WITH_KNOTS((3,3),(2,2),(0.00000000000000000E0,1.00000000000000000E0),(0.00000000000000000E0,1.00000000000000000E0),.UNSPECIFIED.)GEOMETRIC_REPRESENTATION_ITEM()RATIONAL_B_SPLINE_SURFACE(((1.00000000000000000E0,1.00000000000000000E0),(7.07106781186547573E-1,7.07106781186547573E-1),(1.00000000000000000E0,1.00000000000000000E0)))REPRESENTATION_ITEM('')SURFACE());
#149=CARTESIAN_POINT('',(0.00000000000000000E0,-1.97500000000000000E1,6.00000000000000000E0));
#150=CARTESIAN_POINT('',(0.00000000000000000E0,-5.00000000000000000E0,6.00000000000000000E0));
#151=CARTESIAN_POINT('',(1.97500000000000000E1,-1.97500000000000000E1,6.00000000000000000E0));
#152=CARTESIAN_POINT('',(5.00000000000000000E0,-5.00000000000000000E0,6.00000000000000000E0));
#153=CARTESIAN_POINT('',(1.97500000000000000E1,0.00000000000000000E0,6.00000000000000000E0));
#154=CARTESIAN_POINT('',(5.00000000000000000E0,0.00000000000000000E0,6.00000000000000000E0));
#155=(BOUNDED_SURFACE()B_SPLINE_SURFACE(2,1,((#149,#150),(#151,#152),(#153,#154)),.UNSPECIFIED.,.F.,.F.,.F.)B_SPLINE_SURFACE_WITH_KNOTS((3,3),(2,2),(0.00000000000000000E0,1.00000000000000000E0),(0.00000000000000000E0,1.00000000000000000E0),.UNSPECIFIED.)GEOMETRIC_REPRESENTATION_ITEM()RATIONAL_B_SPLINE_SURFACE(((1.00000000000000000E0,1.00000000000000000E0),(7.07106781186547573E-1,7.07106781186547573E-1),(1.00000000000000000E0,1.00000000000000000E0)))REPRESENTATION_ITEM('')SURFACE());
#156=CARTESIAN_POINT('',(5.00000000000000000E0,0.00000000000000000E0,6.00000000000000000E0));
#157=CARTESIAN_POINT('',(5.00000000000000000E0,0.00000000000000000E0,0.00000000000000000E0));
#158=CARTESIAN_POINT('',(5.00000000000000000E0,5.00000000000000000E0,6.00000000000000000E0));
#159=CARTESIAN_POINT('',(5.00000000000000000E0,5.00000000000000000E0,0.00000000000000000E0));
#160=CARTESIAN_POINT('',(0.00000000000000000E0,5.00000000000000000E0,6.00000000000000000E0));
#161=CARTESIAN_POINT('',(0.00000000000000000E0,5.00000000000000000E0,0.00000000000000000E0));
#162=(BOUNDED_SURFACE()B_SPLINE_SURFACE(2,1,((#156,#157),(#158,#159),(#160,#161)),.UNSPECIFIED.,.F.,.F.,.F.)B_SPLINE_SURFACE_WITH_KNOTS((3,3),(2,2),(0.00000000000000000E0,1.00000000000000000E0),(0.00000000000000000E0,1.00000000000000000E0),.UNSPECIFIED.)GEOMETRIC_REPRESENTATION_ITEM()RATIONAL_B_SPLINE_SURFACE(((1.00000000000000000E0,1.00000000000000000E0),(7.07106781186547573E-1,7.07106781186547573E-1),(1.00000000000000000E0,1.00000000000000000E0)))REPRESENTATION_ITEM('')SURFACE());
#163=CARTESIAN_POINT('',(0.00000000000000000E0,5.00000000000000000E0,6.00000000000000000E0));
#164=CARTESIAN_POINT('',(0.00000000000000000E0,5.00000000000000000E0,0.00000000000000000E0));
#165=CARTESIAN_POINT('',(-5.00000000000000000E0,5.00000000000000000E0,6.00000000000000000E0));
#166=CARTESIAN_POINT('',(-5.00000000000000000E0,5.00000000000000000E0,0.00000000000000000E0));
#167=CARTESIAN_POINT('',(-5.00000000000000000E0,0.00000000000000000E0,6.00000000000000000E0));
#168=CARTESIAN_POINT('',(-5.00000000000000000E0,0.00000000000000000E0,0.00000000000000000E0));
#169=(BOUNDED_SURFACE()B_SPLINE_SURFACE(2,1,((#163,#164),(#165,#166),(#167,#168)),.UNSPECIFIED.,.F.,.F.,.F.)B_SPLINE_SURFACE_WITH_KNOTS((3,3),(2,2),(0.00000000000000000E0,1.00000000000000000E0),(0.00000000000000000E0,1.00000000000000000E0),.UNSPECIFIED.)GEOMETRIC_REPRESENTATION_ITEM()RATIONAL_B_SPLINE_SURFACE(((1.00000000000000000E0,1.00000000000000000E0),(7.07106781186547573E-1,7.07106781186547573E-1),(1.00000000000000000E0,1.00000000000000000E0)))REPRESENTATION_ITEM('')SURFACE());
#170=CARTESIAN_POINT('',(-5.00000000000000000E0,0.00000000000000000E0,6.00000000000000000E0));
#171=CARTESIAN_POINT('',(-5.00000000000000000E0,0.00000000000000000E0,0.00000000000000000E0));
#172=CARTESIAN_POINT('',(-5.00000000000000000E0,-5.00000000000000000E0,6.00000000000000000E0));
#173=CARTESIAN_POINT('',(-5.00000000000000000E0,-5.00000000000000000E0,0.00000000000000000E0));
#174=CARTESIAN_POINT('',(0.00000000000000000E0,-5.00000000000000000E0,6.00000000000000000E0));
#175=CARTESIAN_POINT('',(0.00000000000000000E0,-5.00000000000000000E0,0.00000000000000000E0));
#176=(BOUNDED_SURFACE()B_SPLINE_SURFACE(2,1,((#170,#171),(#172,#173),(#174,#175)),.UNSPECIFIED.,.F.,.F.,.F.)B_SPLINE_SURFACE_WITH_KNOTS((3,3),(2,2),(0.00000000000000000E0,1.00000000000000000E0),(0.00000000000000000E0,1.00000000000000000E0),.UNSPECIFIED.)GEOMETRIC_REPRESENTATION_ITEM()RATIONAL_B_SPLINE_SURFACE(((1.00000000000000000E0,1.00000000000000000E0),(7.07106781186547573E-1,7.07106781186547573E-1),(1.00000000000000000E0,1.00000000000000000E0)))REPRESENTATION_ITEM('')SURFACE());
#177=CARTESIAN_POINT('',(0.00000000000000000E0,-5.00000000000000000E0,6.00000000000000000E0));
#178=CARTESIAN_POINT('',(0.00000000000000000E0,-5.00000000000000000E0,0.00000000000000000E0));
#179=CARTESIAN_POINT('',(5.00000000000000000E0,-5.00000000000000000E0,6.00000000000000000E0));
#180=CARTESIAN_POINT('',(5.00000000000000000E0,-5.00000000000000000E0,0.00000000000000000E0));
#181=CARTESIAN_POINT('',(5.00000000000000000E0,0.00000000000000000E0,6.00000000000000000E0));
#182=CARTESIAN_POINT('',(5.00000000000000000E0,0.00000000000000000E0,0.00000000000000000E0));
#183=(BOUNDED_SURFACE()B_SPLINE_SURFACE(2,1,((#177,#178),(#179,#180),(#181,#182)),.UNSPECIFIED.,.F.,.F.,.F.)B_SPLINE_SURFACE_WITH_KNOTS((3,3),(2,2),(0.00000000000000000E0,1.00000000000000000E0),(0.00000000000000000E0,1.00000000000000000E0),.UNSPECIFIED.)GEOMETRIC_REPRESENTATION_ITEM()RATIONAL_B_SPLINE_SURFACE(((1.00000000000000000E0,1.00000000000000000E0),(7.07106781186547573E-1,7.07106781186547573E-1),(1.00000000000000000E0,1.00000000000000000E0)))REPRESENTATION_ITEM('')SURFACE());
#184=CARTESIAN_POINT('',(5.00000000000000000E0,0.00000000000000000E0,0.00000000000000000E0));
#185=CARTESIAN_POINT('',(5.00000000000000000E0,5.00000000000000000E0,0.00000000000000000E0));
#186=CARTESIAN_POINT('',(0.00000000000000000E0,5.00000000000000000E0,0.00000000000000000E0));
#187=(BOUNDED_CURVE()B_SPLINE_CURVE(2,(#184,#185,#186),.UNSPECIFIED.,.F.,.F.)B_SPLINE_CURVE_WITH_KNOTS((3,3),(0.00000000000000000E0,1.00000000000000000E0),.UNSPECIFIED.)CURVE()GEOMETRIC_REPRESENTATION_ITEM()RATIONAL_B_SPLINE_CURVE((1.00000000000000000E0,7.07106781186547573E-1,1.00000000000000000E0))REPRESENTATION_ITEM(''));
#188=CARTESIAN_POINT('',(0.00000000000000000E0,5.00000000000000000E0,0.00000000000000000E0));
#189=CARTESIAN_POINT('',(0.00000000000000000E0,2.00000000000000000E1,0.00000000000000000E0));
#190=B_SPLINE_CURVE_WITH_KNOTS('',1,(#188,#189),.UNSPECIFIED.,.F.,.F.,(2,2),(0.00000000000000000E0,1.00000000000000000E0),.UNSPECIFIED.);
#191=CARTESIAN_POINT('',(2.00000000000000000E1,0.00000000000000000E0,0.00000000000000000E0));
#192=CARTESIAN_POINT('',(2.00000000000000000E1,2.00000000000000000E1,0.00000000000000000E0));
#193=CARTESIAN_POINT('',(0.00000000000000000E0,2.00000000000000000E1,0.00000000000000000E0));
#194=(BOUNDED_CURVE()B_SPLINE_CURVE(2,(#191,#192,#193),.UNSPECIFIED.,.F.,.F.)B_SPLINE_CURVE_WITH_KNOTS((3,3),(0.00000000000000000E0,1.00000000000000000E0),.UNSPECIFIED.)CURVE()GEOMETRIC_REPRESENTATION_ITEM()RATIONAL_B_SPLINE_CURVE((1.00000000000000000E0,7.07106781186547573E-1,1.00000000000000000E0))REPRESENTATION_ITEM(''));
#195=CARTESIAN_POINT('',(5.00000000000000000E0,0.00000000000000000E0,0.00000000000000000E0));
#196=CARTESIAN_POINT('',(2.00000000000000000E1,0.00000000000000000E0,0.00000000000000000E0));
#197=B_SPLINE_CURVE_WITH_KNOTS('',1,(#195,#196),.UNSPECIFIED.,.F.,.F.,(2,2),(0.00000000000000000E0,1.00000000000000000E0),.UNSPECIFIED.);
#198=CARTESIAN_POINT('',(0.00000000000000000E0,5.00000000000000000E0,0.00000000000000000E0));
#199=CARTESIAN_POINT('',(-5.00000000000000000E0,5.00000000000000000E0,0.00000000000000000E0));
#200=CARTESIAN_POINT('',(-5.00000000000000000E0,0.00000000000000000E0,0.00000000000000000E0));
#201=(BOUNDED_CURVE()B_SPLINE_CURVE(2,(#198,#199,#200),.UNSPECIFIED.,.F.,.F.)B_SPLINE_CURVE_WITH_KNOTS((3,3),(0.00000000000000000E0,1.00000000000000000E0),.UNSPECIFIED.)CURVE()GEOMETRIC_REPRESENTATION_ITEM()RATIONAL_B_SPLINE_CURVE((1.00000000000000000E0,7.07106781186547573E-1,1.00000000000000000E0))REPRESENTATION_ITEM(''));
#202=CARTESIAN_POINT('',(-5.00000000000000000E0,0.00000000000000000E0,0.00000000000000000E0));
#203=CARTESIAN_POINT('',(-2.00000000000000000E1,0.00000000000000000E0,0.00000000000000000E0));
#204=B_SPLINE_CURVE_WITH_KNOTS('',1,(#202,#203),.UNSPECIFIED.,.F.,.F.,(2,2),(0.00000000000000000E0,1.00000000000000000E0),.UNSPECIFIED.);
#205=CARTESIAN_POINT('',(0.00000000000000000E0,2.00000000000000000E1,0.00000000000000000E0));
#206=CARTESIAN_POINT('',(-2.00000000000000000E1,2.00000000000000000E1,0.00000000000000000E0));
#207=CARTESIAN_POINT('',(-2.00000000000000000E1,0.00000000000000000E0,0.00000000000000000E0));
#208=(BOUNDED_CURVE()B_SPLINE_CURVE(2,(#205,#206,#207),.UNSPECIFIED.,.F.,.F.)B_SPLINE_CURVE_WITH_KNOTS((3,3),(0.00000000000000000E0,1.00000000000000000E0),.UNSPECIFIED.)CURVE()GEOMETRIC_REPRESENTATION_ITEM()RATIONAL_B_SPLINE_CURVE((1.00000000000000000E0,7.07106781186547573E-1,1.00000000000000000E0))REPRESENTATION_ITEM(''));
#209=CARTESIAN_POINT('',(-5.00000000000000000E0,0.00000000000000000E0,0.00000000000000000E0));
#210=CARTESIAN_POINT('',(-5.00000000000000000E0,-5.00000000000000000E0,0.00000000000000000E0));
#211=CARTESIAN_POINT('',(0.00000000000000000E0,-5.00000000000000000E0,0.00000000000000000E0));
#212=(BOUNDED_CURVE()B_SPLINE_CURVE(2,(#209,#210,#211),.UNSPECIFIED.,.F.,.F.)B_SPLINE_CURVE_WITH_KNOTS((3,3),(0.00000000000000000E0,1.00000000000000000E0),.UNSPECIFIED.)CURVE()GEOMETRIC_REPRESENTATION_ITEM()RATIONAL_B_SPLINE_CURVE((1.00000000000000000E0,7.07106781186547573E-1,1.00000000000000000E0))REPRESENTATION_ITEM(''));
#213=CARTESIAN_POINT('',(0.00000000000000000E0,-5.00000000000000000E0,0.00000000000000000E0));
#214=CARTESIAN_POINT('',(0.00000000000000000E0,-2.00000000000000000E1,0.00000000000000000E0));
#215=B_SPLINE_CURVE_WITH_KNOTS('',1,(#213,#214),.UNSPECIFIED.,.F.,.F.,(2,2),(0.00000000000000000E0,1.00000000000000000E0),.UNSPECIFIED.);
#216=CARTESIAN_POINT('',(-2.00000000000000000E1,0.00000000000000000E0,0.00000000000000000E0));
#217=CARTESIAN_POINT('',(-2.00000000000000000E1,-2.00000000000000000E1,0.00000000000000000E0));
#218=CARTESIAN_POINT('',(0.00000000000000000E0,-2.00000000000000000E1,0.00000000000000000E0));
#219=(BOUNDED_CURVE()B_SPLINE_CURVE(2,(#216,#217,#218),.UNSPECIFIED.,.F.,.F.)B_SPLINE_CURVE_WITH_KNOTS((3,3),(0.00000000000000000E0,1.00000000000000000E0),.UNSPECIFIED.)CURVE()GEOMETRIC_REPRESENTATION_ITEM()RATIONAL_B_SPLINE_CURVE((1.00000000000000000E0,7.07106781186547573E-1,1.00000000000000000E0))REPRESENTATION_ITEM(''));
#220=CARTESIAN_POINT('',(5.00000000000000000E0,0.00000000000000000E0,0.00000000000000000E0));
#221=CARTESIAN_POINT('',(5.00000000000000000E0,-5.00000000000000000E0,0.00000000000000000E0));
#222=CARTESIAN_POINT('',(0.00000000000000000E0,-5.00000000000000000E0,0.00000000000000000E0));
#223=(BOUNDED_CURVE()B_SPLINE_CURVE(2,(#220,#221,#222),.UNSPECIFIED.,.F.,.F.)B_SPLINE_CURVE_WITH_KNOTS((3,3),(0.00000000000000000E0,1.00000000000000000E0),.UNSPECIFIED.)CURVE()GEOMETRIC_REPRESENTATION_ITEM()RATIONAL_B_SPLINE_CURVE((1.00000000000000000E0,7.07106781186547573E-1,1.00000000000000000E0))REPRESENTATION_ITEM(''));
#224=CARTESIAN_POINT('',(2.00000000000000000E1,0.00000000000000000E0,0.00000000000000000E0));
#225=CARTESIAN_POINT('',(2.00000000000000000E1,-2.00000000000000000E1,0.00000000000000000E0));
#226=CARTESIAN_POINT('',(0.00000000000000000E0,-2.00000000000000000E1,0.00000000000000000E0));
#227=(BOUNDED_CURVE()B_SPLINE_CURVE(2,(#224,#225,#226),.UNSPECIFIED.,.F.,.F.)B_SPLINE_CURVE_WITH_KNOTS((3,3),(0.00000000000000000E0,1.00000000000000000E0),.UNSPECIFIED.)CURVE()GEOMETRIC_REPRESENTATION_ITEM()RATIONAL_B_SPLINE_CURVE((1.00000000000000000E0,7.07106781186547573E-1,1.00000000000000000E0))REPRESENTATION_ITEM(''));
#228=CARTESIAN_POINT('',(0.00000000000000000E0,2.00000000000000000E1,0.00000000000000000E0));
#229=CARTESIAN_POINT('',(0.00000000000000000E0,2.00000000000000000E1,5.75000000000000000E0));
#230=B_SPLINE_CURVE_WITH_KNOTS('',1,(#228,#229),.UNSPECIFIED.,.F.,.F.,(2,2),(0.00000000000000000E0,1.00000000000000000E0),.UNSPECIFIED.);
#231=CARTESIAN_POINT('',(2.00000000000000000E1,0.00000000000000000E0,5.75000000000000000E0));
#232=CARTESIAN_POINT('',(2.00000000000000000E1,2.00000000000000000E1,5.75000000000000000E0));
#233=CARTESIAN_POINT('',(0.00000000000000000E0,2.00000000000000000E1,5.75000000000000000E0));
#234=(BOUNDED_CURVE()B_SPLINE_CURVE(2,(#231,#232,#233),.UNSPECIFIED.,.F.,.F.)B_SPLINE_CURVE_WITH_KNOTS((3,3),(0.00000000000000000E0,1.00000000000000000E0),.UNSPECIFIED.)CURVE()GEOMETRIC_REPRESENTATION_ITEM()RATIONAL_B_SPLINE_CURVE((1.00000000000000000E0,7.07106781186547573E-1,1.00000000000000000E0))REPRESENTATION_ITEM(''));
#235=CARTESIAN_POINT('',(2.00000000000000000E1,0.00000000000000000E0,0.00000000000000000E0));
#236=CARTESIAN_POINT('',(2.00000000000000000E1,0.00000000000000000E0,5.75000000000000000E0));
#237=B_SPLINE_CURVE_WITH_KNOTS('',1,(#235,#236),.UNSPECIFIED.,.F.,.F.,(2,2),(0.00000000000000000E0,1.00000000000000000E0),.UNSPECIFIED.);
#238=CARTESIAN_POINT('',(-2.00000000000000000E1,0.00000000000000000E0,0.00000000000000000E0));
#239=CARTESIAN_POINT('',(-2.00000000000000000E1,0.00000000000000000E0,5.75000000000000000E0));
#240=B_SPLINE_CURVE_WITH_KNOTS('',1,(#238,#239),.UNSPECIFIED.,.F.,.F.,(2,2),(0.00000000000000000E0,1.00000000000000000E0),.UNSPECIFIED.);
#241=CARTESIAN_POINT('',(0.00000000000000000E0,2.00000000000000000E1,5.75000000000000000E0));
#242=CARTESIAN_POINT('',(-2.00000000000000000E1,2.00000000000000000E1,5.75000000000000000E0));
#243=CARTESIAN_POINT('',(-2.00000000000000000E1,0.00000000000000000E0,5.75000000000000000E0));
#244=(BOUNDED_CURVE()B_SPLINE_CURVE(2,(#241,#242,#243),.UNSPECIFIED.,.F.,.F.)B_SPLINE_CURVE_WITH_KNOTS((3,3),(0.00000000000000000E0,1.00000000000000000E0),.UNSPECIFIED.)CURVE()GEOMETRIC_REPRESENTATION_ITEM()RATIONAL_B_SPLINE_CURVE((1.00000000000000000E0,7.07106781186547573E-1,1.00000000000000000E0))REPRESENTATION_ITEM(''));
#245=CARTESIAN_POINT('',(0.00000000000000000E0,-2.00000000000000000E1,0.00000000000000000E0));
#246=CARTESIAN_POINT('',(0.00000000000000000E0,-2.00000000000000000E1,5.75000000000000000E0));
#247=B_SPLINE_CURVE_WITH_KNOTS('',1,(#245,#246),.UNSPECIFIED.,.F.,.F.,(2,2),(0.00000000000000000E0,1.00000000000000000E0),.UNSPECIFIED.);
#248=CARTESIAN_POINT('',(-2.00000000000000000E1,0.00000000000000000E0,5.75000000000000000E0));
#249=CARTESIAN_POINT('',(-2.00000000000000000E1,-2.00000000000000000E1,5.75000000000000000E0));
#250=CARTESIAN_POINT('',(0.00000000000000000E0,-2.00000000000000000E1,5.75000000000000000E0));
#251=(BOUNDED_CURVE()B_SPLINE_CURVE(2,(#248,#249,#250),.UNSPECIFIED.,.F.,.F.)B_SPLINE_CURVE_WITH_KNOTS((3,3),(0.00000000000000000E0,1.00000000000000000E0),.UNSPECIFIED.)CURVE()GEOMETRIC_REPRESENTATION_ITEM()RATIONAL_B_SPLINE_CURVE((1.00000000000000000E0,7.07106781186547573E-1,1.00000000000000000E0))REPRESENTATION_ITEM(''));
#252=CARTESIAN_POINT('',(2.00000000000000000E1,0.00000000000000000E0,5.75000000000000000E0));
#253=CARTESIAN_POINT('',(2.00000000000000000E1,-2.00000000000000000E1,5.75000000000000000E0));
#254=CARTESIAN_POINT('',(0.00000000000000000E0,-2.00000000000000000E1,5.75000000000000000E0));
#255=(BOUNDED_CURVE()B_SPLINE_CURVE(2,(#252,#253,#254),.UNSPECIFIED.,.F.,.F.)B_SPLINE_CURVE_WITH_KNOTS((3,3),(0.00000000000000000E0,1.00000000000000000E0),.UNSPECIFIED.)CURVE()GEOMETRIC_REPRESENTATION_ITEM()RATIONAL_B_SPLINE_CURVE((1.00000000000000000E0,7.07106781186547573E-1,1.00000000000000000E0))REPRESENTATION_ITEM(''));
#256=CARTESIAN_POINT('',(0.00000000000000000E0,2.00000000000000000E1,5.75000000000000000E0));
#257=CARTESIAN_POINT('',(0.00000000000000000E0,2.00000000000000000E1,6.00000000000000000E0));
#258=CARTESIAN_POINT('',(0.00000000000000000E0,1.97500000000000000E1,6.00000000000000000E0));
#259=(BOUNDED_CURVE()B_SPLINE_CURVE(2,(#256,#257,#258),.UNSPECIFIED.,.F.,.F.)B_SPLINE_CURVE_WITH_KNOTS((3,3),(0.00000000000000000E0,1.00000000000000000E0),.UNSPECIFIED.)CURVE()GEOMETRIC_REPRESENTATION_ITEM()RATIONAL_B_SPLINE_CURVE((1.00000000000000000E0,7.07106781186547573E-1,1.00000000000000000E0))REPRESENTATION_ITEM(''));
#260=CARTESIAN_POINT('',(1.97500000000000000E1,0.00000000000000000E0,6.00000000000000000E0));
#261=CARTESIAN_POINT('',(1.97500000000000000E1,1.97500000000000000E1,6.00000000000000000E0));
#262=CARTESIAN_POINT('',(0.00000000000000000E0,1.97500000000000000E1,6.00000000000000000E0));
#263=(BOUNDED_CURVE()B_SPLINE_CURVE(2,(#260,#261,#262),.UNSPECIFIED.,.F.,.F.)B_SPLINE_CURVE_WITH_KNOTS((3,3),(0.00000000000000000E0,1.00000000000000000E0),.UNSPECIFIED.)CURVE()GEOMETRIC_REPRESENTATION_ITEM()RATIONAL_B_SPLINE_CURVE((1.00000000000000000E0,7.07106781186547573E-1,1.00000000000000000E0))REPRESENTATION_ITEM(''));
#264=CARTESIAN_POINT('',(2.00000000000000000E1,0.00000000000000000E0,5.75000000000000000E0));
#265=CARTESIAN_POINT('',(2.00000000000000000E1,0.00000000000000000E0,6.00000000000000000E0));
#266=CARTESIAN_POINT('',(1.97500000000000000E1,0.00000000000000000E0,6.00000000000000000E0));
#267=(BOUNDED_CURVE()B_SPLINE_CURVE(2,(#264,#265,#266),.UNSPECIFIED.,.F.,.F.)B_SPLINE_CURVE_WITH_KNOTS((3,3),(0.00000000000000000E0,1.00000000000000000E0),.UNSPECIFIED.)CURVE()GEOMETRIC_REPRESENTATION_ITEM()RATIONAL_B_SPLINE_CURVE((1.00000000000000000E0,7.07106781186547573E-1,1.00000000000000000E0))REPRESENTATION_ITEM(''));
#268=CARTESIAN_POINT('',(-2.00000000000000000E1,0.00000000000000000E0,5.75000000000000000E0));
#269=CARTESIAN_POINT('',(-2.00000000000000000E1,0.00000000000000000E0,6.00000000000000000E0));
#270=CARTESIAN_POINT('',(-1.97500000000000000E1,0.00000000000000000E0,6.00000000000000000E0));
#271=(BOUNDED_CURVE()B_SPLINE_CURVE(2,(#268,#269,#270),.UNSPECIFIED.,.F.,.F.)B_SPLINE_CURVE_WITH_KNOTS((3,3),(0.00000000000000000E0,1.00000000000000000E0),.UNSPECIFIED.)CURVE()GEOMETRIC_REPRESENTATION_ITEM()RATIONAL_B_SPLINE_CURVE((1.00000000000000000E0,7.07106781186547573E-1,1.00000000000000000E0))REPRESENTATION_ITEM(''));
#272=CARTESIAN_POINT('',(0.00000000000000000E0,1.97500000000000000E1,6.00000000000000000E0));
#273=CARTESIAN_POINT('',(-1.97500000000000000E1,1.97500000000000000E1,6.00000000000000000E0));
#274=CARTESIAN_POINT('',(-1.97500000000000000E1,0.00000000000000000E0,6.00000000000000000E0));
#275=(BOUNDED_CURVE()B_SPLINE_CURVE(2,(#272,#273,#274),.UNSPECIFIED.,.F.,.F.)B_SPLINE_CURVE_WITH_KNOTS((3,3),(0.00000000000000000E0,1.00000000000000000E0),.UNSPECIFIED.)CURVE()GEOMETRIC_REPRESENTATION_ITEM()RATIONAL_B_SPLINE_CURVE((1.00000000000000000E0,7.07106781186547573E-1,1.00000000000000000E0))REPRESENTATION_ITEM(''));
#276=CARTESIAN_POINT('',(0.00000000000000000E0,-2.00000000000000000E1,5.75000000000000000E0));
#277=CARTESIAN_POINT('',(0.00000000000000000E0,-2.00000000000000000E1,6.00000000000000000E0));
#278=CARTESIAN_POINT('',(0.00000000000000000E0,-1.97500000000000000E1,6.00000000000000000E0));
#279=(BOUNDED_CURVE()B_SPLINE_CURVE(2,(#276,#277,#278),.UNSPECIFIED.,.F.,.F.)B_SPLINE_CURVE_WITH_KNOTS((3,3),(0.00000000000000000E0,1.00000000000000000E0),.UNSPECIFIED.)CURVE()GEOMETRIC_REPRESENTATION_ITEM()RATIONAL_B_SPLINE_CURVE((1.00000000000000000E0,7.07106781186547573E-1,1.00000000000000000E0))REPRESENTATION_ITEM(''));
#280=CARTESIAN_POINT('',(-1.97500000000000000E1,0.00000000000000000E0,6.00000000000000000E0));
#281=CARTESIAN_POINT('',(-1.97500000000000000E1,-1.97500000000000000E1,6.00000000000000000E0));
#282=CARTESIAN_POINT('',(0.00000000000000000E0,-1.97500000000000000E1,6.00000000000000000E0));
#283=(BOUNDED_CURVE()B_SPLINE_CURVE(2,(#280,#281,#282),.UNSPECIFIED.,.F.,.F.)B_SPLINE_CURVE_WITH_KNOTS((3,3),(0.00000000000000000E0,1.00000000000000000E0),.UNSPECIFIED.)CURVE()GEOMETRIC_REPRESENTATION_ITEM()RATIONAL_B_SPLINE_CURVE((1.00000000000000000E0,7.07106781186547573E-1,1.00000000000000000E0))REPRESENTATION_ITEM(''));
#284=CARTESIAN_POINT('',(1.97500000000000000E1,0.00000000000000000E0,6.00000000000000000E0));
#285=CARTESIAN_POINT('',(1.97500000000000000E1,-1.97500000000000000E1,6.00000000000000000E0));
#286=CARTESIAN_POINT('',(0.00000000000000000E0,-1.97500000000000000E1,6.00000000000000000E0));
#287=(BOUNDED_CURVE()B_SPLINE_CURVE(2,(#284,#285,#286),.UNSPECIFIED.,.F.,.F.)B_SPLINE_CURVE_WITH_KNOTS((3,3),(0.00000000000000000E0,1.00000000000000000E0),.UNSPECIFIED.)CURVE()GEOMETRIC_REPRESENTATION_ITEM()RATIONAL_B_SPLINE_CURVE((1.00000000000000000E0,7.07106781186547573E-1,1.00000000000000000E0))REPRESENTATION_ITEM(''));
#288=CARTESIAN_POINT('',(0.00000000000000000E0,1.97500000000000000E1,6.00000000000000000E0));
#289=CARTESIAN_POINT('',(0.00000000000000000E0,5.00000000000000000E0,6.00000000000000000E0));
#290=B_SPLINE_CURVE_WITH_KNOTS('',1,(#288,#289),.UNSPECIFIED.,.F.,.F.,(2,2),(0.00000000000000000E0,1.00000000000000000E0),.UNSPECIFIED.);
#291=CARTESIAN_POINT('',(5.00000000000000000E0,0.00000000000000000E0,6.00000000000000000E0));
#292=CARTESIAN_POINT('',(5.00000000000000000E0,5.00000000000000000E0,6.00000000000000000E0));
#293=CARTESIAN_POINT('',(0.00000000000000000E0,5.00000000000000000E0,6.00000000000000000E0));
#294=(BOUNDED_CURVE()B_SPLINE_CURVE(2,(#291,#292,#293),.UNSPECIFIED.,.F.,.F.)B_SPLINE_CURVE_WITH_KNOTS((3,3),(0.00000000000000000E0,1.00000000000000000E0),.UNSPECIFIED.)CURVE()GEOMETRIC_REPRESENTATION_ITEM()RATIONAL_B_SPLINE_CURVE((1.00000000000000000E0,7.07106781186547573E-1,1.00000000000000000E0))REPRESENTATION_ITEM(''));
#295=CARTESIAN_POINT('',(1.97500000000000000E1,0.00000000000000000E0,6.00000000000000000E0));
#296=CARTESIAN_POINT('',(5.00000000000000000E0,0.00000000000000000E0,6.00000000000000000E0));
#297=B_SPLINE_CURVE_WITH_KNOTS('',1,(#295,#296),.UNSPECIFIED.,.F.,.F.,(2,2),(0.00000000000000000E0,1.00000000000000000E0),.UNSPECIFIED.);
#298=CARTESIAN_POINT('',(-1.97500000000000000E1,0.00000000000000000E0,6.00000000000000000E0));
#299=CARTESIAN_POINT('',(-5.00000000000000000E0,0.00000000000000000E0,6.00000000000000000E0));
#300=B_SPLINE_CURVE_WITH_KNOTS('',1,(#298,#299),.UNSPECIFIED.,.F.,.F.,(2,2),(0.00000000000000000E0,1.00000000000000000E0),.UNSPECIFIED.);
#301=CARTESIAN_POINT('',(0.00000000000000000E0,5.00000000000000000E0,6.00000000000000000E0));
#302=CARTESIAN_POINT('',(-5.00000000000000000E0,5.00000000000000000E0,6.00000000000000000E0));
#303=CARTESIAN_POINT('',(-5.00000000000000000E0,0.00000000000000000E0,6.00000000000000000E0));
#304=(BOUNDED_CURVE()B_SPLINE_CURVE(2,(#301,#302,#303),.UNSPECIFIED.,.F.,.F.)B_SPLINE_CURVE_WITH_KNOTS((3,3),(0.00000000000000000E0,1.00000000000000000E0),.UNSPECIFIED.)CURVE()GEOMETRIC_REPRESENTATION_ITEM()RATIONAL_B_SPLINE_CURVE((1.00000000000000000E0,7.07106781186547573E-1,1.00000000000000000E0))REPRESENTATION_ITEM(''));
#305=CARTESIAN_POINT('',(0.00000000000000000E0,-1.97500000000000000E1,6.00000000000000000E0));
#306=CARTESIAN_POINT('',(0.00000000000000000E0,-5.00000000000000000E0,6.00000000000000000E0));
#307=B_SPLINE_CURVE_WITH_KNOTS('',1,(#305,#306),.UNSPECIFIED.,.F.,.F.,(2,2),(0.00000000000000000E0,1.00000000000000000E0),.UNSPECIFIED.);
#308=CARTESIAN_POINT('',(-5.00000000000000000E0,0.00000000000000000E0,6.00000000000000000E0));
#309=CARTESIAN_POINT('',(-5.00000000000000000E0,-5.00000000000000000E0,6.00000000000000000E0));
#310=CARTESIAN_POINT('',(0.00000000000000000E0,-5.00000000000000000E0,6.00000000000000000E0));
#311=(BOUNDED_CURVE()B_SPLINE_CURVE(2,(#308,#309,#310),.UNSPECIFIED.,.F.,.F.)B_SPLINE_CURVE_WITH_KNOTS((3,3),(0.00000000000000000E0,1.00000000000000000E0),.UNSPECIFIED.)CURVE()GEOMETRIC_REPRESENTATION_ITEM()RATIONAL_B_SPLINE_CURVE((1.00000000000000000E0,7.07106781186547573E-1,1.00000000000000000E0))REPRESENTATION_ITEM(''));
#312=CARTESIAN_POINT('',(5.00000000000000000E0,0.00000000000000000E0,6.00000000000000000E0));
#313=CARTESIAN_POINT('',(5.00000000000000000E0,-5.00000000000000000E0,6.00000000000000000E0));
#314=CARTESIAN_POINT('',(0.00000000000000000E0,-5.00000000000000000E0,6.00000000000000000E0));
#315=(BOUNDED_CURVE()B_SPLINE_CURVE(2,(#312,#313,#314),.UNSPECIFIED.,.F.,.F.)B_SPLINE_CURVE_WITH_KNOTS((3,3),(0.00000000000000000E0,1.00000000000000000E0),.UNSPECIFIED.)CURVE()GEOMETRIC_REPRESENTATION_ITEM()RATIONAL_B_SPLINE_CURVE((1.00000000000000000E0,7.07106781186547573E-1,1.00000000000000000E0))REPRESENTATION_ITEM(''));
#316=CARTESIAN_POINT('',(0.00000000000000000E0,5.00000000000000000E0,0.00000000000000000E0));
#317=CARTESIAN_POINT('',(0.00000000000000000E0,5.00000000000000000E0,6.00000000000000000E0));
#318=B_SPLINE_CURVE_WITH_KNOTS('',1,(#316,#317),.UNSPECIFIED.,.F.,.F.,(2,2),(0.00000000000000000E0,1.00000000000000000E0),.UNSPECIFIED.);
#319=CARTESIAN_POINT('',(5.00000000000000000E0,0.00000000000000000E0,0.00000000000000000E0));
#320=CARTESIAN_POINT('',(5.00000000000000000E0,0.00000000000000000E0,6.00000000000000000E0));
#321=B_SPLINE_CURVE_WITH_KNOTS('',1,(#319,#320),.UNSPECIFIED.,.F.,.F.,(2,2),(0.00000000000000000E0,1.00000000000000000E0),.UNSPECIFIED.);
#322=CARTESIAN_POINT('',(-5.00000000000000000E0,0.00000000000000000E0,0.00000000000000000E0));
#323=CARTESIAN_POINT('',(-5.00000000000000000E0,0.00000000000000000E0,6.00000000000000000E0));
#324=B_SPLINE_CURVE_WITH_KNOTS('',1,(#322,#323),.UNSPECIFIED.,.F.,.F.,(2,2),(0.00000000000000000E0,1.00000000000000000E0),.UNSPECIFIED.);
#325=CARTESIAN_POINT('',(0.00000000000000000E0,-5.00000000000000000E0,0.00000000000000000E0));
#326=CARTESIAN_POINT('',(0.00000000000000000E0,-5.00000000000000000E0,6.00000000000000000E0));
#327=B_SPLINE_CURVE_WITH_KNOTS('',1,(#325,#326),.UNSPECIFIED.,.F.,.F.,(2,2),(0.00000000000000000E0,1.00000000000000000E0),.UNSPECIFIED.);
#328=(GEOMETRIC_REPRESENTATION_CONTEXT(2)REPRESENTATION_CONTEXT('','2D'));
#329=CARTESIAN_POINT('',(0.00000000000000000E0,0.00000000000000000E0));
#330=CARTESIAN_POINT('',(1.00000000000000000E0,0.00000000000000000E0));
#331=B_SPLINE_CURVE_WITH_KNOTS('',1,(#329,#330),.UNSPECIFIED.,.F.,.F.,(2,2),(0.00000000000000000E0,1.00000000000000000E0),.UNSPECIFIED.);
#332=DEFINITIONAL_REPRESENTATION('',(#331),#328);
#333=PCURVE('',#59,#332);
#334=CARTESIAN_POINT('',(1.00000000000000000E0,0.00000000000000000E0));
#335=CARTESIAN_POINT('',(1.00000000000000000E0,1.00000000000000000E0));
#336=B_SPLINE_CURVE_WITH_KNOTS('',1,(#334,#335),.UNSPECIFIED.,.F.,.F.,(2,2),(0.00000000000000000E0,1.00000000000000000E0),.UNSPECIFIED.);
#337=DEFINITIONAL_REPRESENTATION('',(#336),#328);
#338=PCURVE('',#59,#337);
#339=CARTESIAN_POINT('',(1.00000000000000000E0,1.00000000000000000E0));
#340=CARTESIAN_POINT('',(0.00000000000000000E0,1.00000000000000000E0));
#341=B_SPLINE_CURVE_WITH_KNOTS('',1,(#339,#340),.UNSPECIFIED.,.F.,.F.,(2,2),(0.00000000000000000E0,1.00000000000000000E0),.UNSPECIFIED.);
#342=DEFINITIONAL_REPRESENTATION('',(#341),#328);
#343=PCURVE('',#59,#342);
#344=CARTESIAN_POINT('',(0.00000000000000000E0,1.00000000000000000E0));
#345=CARTESIAN_POINT('',(0.00000000000000000E0,0.00000000000000000E0));
#346=B_SPLINE_CURVE_WITH_KNOTS('',1,(#344,#345),.UNSPECIFIED.,.F.,.F.,(2,2),(0.00000000000000000E0,1.00000000000000000E0),.UNSPECIFIED.);
#347=DEFINITIONAL_REPRESENTATION('',(#346),#328);
#348=PCURVE('',#59,#347);
#349=CARTESIAN_POINT('',(1.00000000000000000E0,0.00000000000000000E0));
#350=CARTESIAN_POINT('',(2.00000000000000000E0,0.00000000000000000E0));
#351=B_SPLINE_CURVE_WITH_KNOTS('',1,(#349,#350),.UNSPECIFIED.,.F.,.F.,(2,2),(0.00000000000000000E0,1.00000000000000000E0),.UNSPECIFIED.);
#352=DEFINITIONAL_REPRESENTATION('',(#351),#328);
#353=PCURVE('',#59,#352);
#354=CARTESIAN_POINT('',(2.00000000000000000E0,0.00000000000000000E0));
#355=CARTESIAN_POINT('',(2.00000000000000000E0,1.00000000000000000E0));
#356=B_SPLINE_CURVE_WITH_KNOTS('',1,(#354,#355),.UNSPECIFIED.,.F.,.F.,(2,2),(0.00000000000000000E0,1.00000000000000000E0),.UNSPECIFIED.);
#357=DEFINITIONAL_REPRESENTATION('',(#356),#328);
#358=PCURVE('',#59,#357);
#359=CARTESIAN_POINT('',(2.00000000000000000E0,1.00000000000000000E0));
#360=CARTESIAN_POINT('',(1.00000000000000000E0,1.00000000000000000E0));
#361=B_SPLINE_CURVE_WITH_KNOTS('',1,(#359,#360),.UNSPECIFIED.,.F.,.F.,(2,2),(0.00000000000000000E0,1.00000000000000000E0),.UNSPECIFIED.);
#362=DEFINITIONAL_REPRESENTATION('',(#361),#328);
#363=PCURVE('',#59,#362);
#364=CARTESIAN_POINT('',(1.00000000000000000E0,1.00000000000000000E0));
#365=CARTESIAN_POINT('',(1.00000000000000000E0,0.00000000000000000E0));
#366=B_SPLINE_CURVE_WITH_KNOTS('',1,(#364,#365),.UNSPECIFIED.,.F.,.F.,(2,2),(0.00000000000000000E0,1.00000000000000000E0),.UNSPECIFIED.);
#367=DEFINITIONAL_REPRESENTATION('',(#366),#328);
#368=PCURVE('',#59,#367);
#369=CARTESIAN_POINT('',(2.00000000000000000E0,0.00000000000000000E0));
#370=CARTESIAN_POINT('',(3.00000000000000000E0,0.00000000000000000E0));
#371=B_SPLINE_CURVE_WITH_KNOTS('',1,(#369,#370),.UNSPECIFIED.,.F.,.F.,(2,2),(0.00000000000000000E0,1.00000000000000000E0),.UNSPECIFIED.);
#372=DEFINITIONAL_REPRESENTATION('',(#371),#328);
#373=PCURVE('',#59,#372);
#374=CARTESIAN_POINT('',(3.00000000000000000E0,0.00000000000000000E0));
#375=CARTESIAN_POINT('',(3.00000000000000000E0,1.00000000000000000E0));
#376=B_SPLINE_CURVE_WITH_KNOTS('',1,(#374,#375),.UNSPECIFIED.,.F.,.F.,(2,2),(0.00000000000000000E0,1.00000000000000000E0),.UNSPECIFIED.);
#377=DEFINITIONAL_REPRESENTATION('',(#376),#328);
#378=PCURVE('',#59,#377);
#379=CARTESIAN_POINT('',(3.00000000000000000E0,1.00000000000000000E0));
#380=CARTESIAN_POINT('',(2.00000000000000000E0,1.00000000000000000E0));
#381=B_SPLINE_CURVE_WITH_KNOTS('',1,(#379,#380),.UNSPECIFIED.,.F.,.F.,(2,2),(0.00000000000000000E0,1.00000000000000000E0),.UNSPECIFIED.);
#382=DEFINITIONAL_REPRESENTATION('',(#381),#328);
#383=PCURVE('',#59,#382);
#384=CARTESIAN_POINT('',(2.00000000000000000E0,1.00000000000000000E0));
#385=CARTESIAN_POINT('',(2.00000000000000000E0,0.00000000000000000E0));
#386=B_SPLINE_CURVE_WITH_KNOTS('',1,(#384,#385),.UNSPECIFIED.,.F.,.F.,(2,2),(0.00000000000000000E0,1.00000000000000000E0),.UNSPECIFIED.);
#387=DEFINITIONAL_REPRESENTATION('',(#386),#328);
#388=PCURVE('',#59,#387);
#389=CARTESIAN_POINT('',(3.00000000000000000E0,0.00000000000000000E0));
#390=CARTESIAN_POINT('',(4.00000000000000000E0,0.00000000000000000E0));
#391=B_SPLINE_CURVE_WITH_KNOTS('',1,(#389,#390),.UNSPECIFIED.,.F.,.F.,(2,2),(0.00000000000000000E0,1.00000000000000000E0),.UNSPECIFIED.);
#392=DEFINITIONAL_REPRESENTATION('',(#391),#328);
#393=PCURVE('',#59,#392);
#394=CARTESIAN_POINT('',(4.00000000000000000E0,0.00000000000000000E0));
#395=CARTESIAN_POINT('',(4.00000000000000000E0,1.00000000000000000E0));
#396=B_SPLINE_CURVE_WITH_KNOTS('',1,(#394,#395),.UNSPECIFIED.,.F.,.F.,(2,2),(0.00000000000000000E0,1.00000000000000000E0),.UNSPECIFIED.);
#397=DEFINITIONAL_REPRESENTATION('',(#396),#328);
#398=PCURVE('',#59,#397);
#399=CARTESIAN_POINT('',(4.00000000000000000E0,1.00000000000000000E0));
#400=CARTESIAN_POINT('',(3.00000000000000000E0,1.00000000000000000E0));
#401=B_SPLINE_CURVE_WITH_KNOTS('',1,(#399,#400),.UNSPECIFIED.,.F.,.F.,(2,2),(0.00000000000000000E0,1.00000000000000000E0),.UNSPECIFIED.);
#402=DEFINITIONAL_REPRESENTATION('',(#401),#328);
#403=PCURVE('',#59,#402);
#404=CARTESIAN_POINT('',(3.00000000000000000E0,1.00000000000000000E0));
#405=CARTESIAN_POINT('',(3.00000000000000000E0,0.00000000000000000E0));
#406=B_SPLINE_CURVE_WITH_KNOTS('',1,(#404,#405),.UNSPECIFIED.,.F.,.F.,(2,2),(0.00000000000000000E0,1.00000000000000000E0),.UNSPECIFIED.);
#407=DEFINITIONAL_REPRESENTATION('',(#406),#328);
#408=PCURVE('',#59,#407);
#409=CARTESIAN_POINT('',(0.00000000000000000E0,0.00000000000000000E0));
#410=CARTESIAN_POINT('',(1.00000000000000000E0,0.00000000000000000E0));
#411=B_SPLINE_CURVE_WITH_KNOTS('',1,(#409,#410),.UNSPECIFIED.,.F.,.F.,(2,2),(0.00000000000000000E0,1.00000000000000000E0),.UNSPECIFIED.);
#412=DEFINITIONAL_REPRESENTATION('',(#411),#328);
#413=PCURVE('',#66,#412);
#414=CARTESIAN_POINT('',(1.00000000000000000E0,0.00000000000000000E0));
#415=CARTESIAN_POINT('',(1.00000000000000000E0,1.00000000000000000E0));
#416=B_SPLINE_CURVE_WITH_KNOTS('',1,(#414,#415),.UNSPECIFIED.,.F.,.F.,(2,2),(0.00000000000000000E0,1.00000000000000000E0),.UNSPECIFIED.);
#417=DEFINITIONAL_REPRESENTATION('',(#416),#328);
#418=PCURVE('',#66,#417);
#419=CARTESIAN_POINT('',(1.00000000000000000E0,1.00000000000000000E0));
#420=CARTESIAN_POINT('',(0.00000000000000000E0,1.00000000000000000E0));
#421=B_SPLINE_CURVE_WITH_KNOTS('',1,(#419,#420),.UNSPECIFIED.,.F.,.F.,(2,2),(0.00000000000000000E0,1.00000000000000000E0),.UNSPECIFIED.);
#422=DEFINITIONAL_REPRESENTATION('',(#421),#328);
#423=PCURVE('',#66,#422);
#424=CARTESIAN_POINT('',(0.00000000000000000E0,1.00000000000000000E0));
#425=CARTESIAN_POINT('',(0.00000000000000000E0,0.00000000000000000E0));
#426=B_SPLINE_CURVE_WITH_KNOTS('',1,(#424,#425),.UNSPECIFIED.,.F.,.F.,(2,2),(0.00000000000000000E0,1.00000000000000000E0),.UNSPECIFIED.);
#427=DEFINITIONAL_REPRESENTATION('',(#426),#328);
#428=PCURVE('',#66,#427);
#429=CARTESIAN_POINT('',(0.00000000000000000E0,0.00000000000000000E0));
#430=CARTESIAN_POINT('',(1.00000000000000000E0,0.00000000000000000E0));
#431=B_SPLINE_CURVE_WITH_KNOTS('',1,(#429,#430),.UNSPECIFIED.,.F.,.F.,(2,2),(0.00000000000000000E0,1.00000000000000000E0),.UNSPECIFIED.);
#432=DEFINITIONAL_REPRESENTATION('',(#431),#328);
#433=PCURVE('',#73,#432);
#434=CARTESIAN_POINT('',(1.00000000000000000E0,0.00000000000000000E0));
#435=CARTESIAN_POINT('',(1.00000000000000000E0,1.00000000000000000E0));
#436=B_SPLINE_CURVE_WITH_KNOTS('',1,(#434,#435),.UNSPECIFIED.,.F.,.F.,(2,2),(0.00000000000000000E0,1.00000000000000000E0),.UNSPECIFIED.);
#437=DEFINITIONAL_REPRESENTATION('',(#436),#328);
#438=PCURVE('',#73,#437);
#439=CARTESIAN_POINT('',(1.00000000000000000E0,1.00000000000000000E0));
#440=CARTESIAN_POINT('',(0.00000000000000000E0,1.00000000000000000E0));
#441=B_SPLINE_CURVE_WITH_KNOTS('',1,(#439,#440),.UNSPECIFIED.,.F.,.F.,(2,2),(0.00000000000000000E0,1.00000000000000000E0),.UNSPECIFIED.);
#442=DEFINITIONAL_REPRESENTATION('',(#441),#328);
#443=PCURVE('',#73,#442);
#444=CARTESIAN_POINT('',(0.00000000000000000E0,1.00000000000000000E0));
#445=CARTESIAN_POINT('',(0.00000000000000000E0,0.00000000000000000E0));
#446=B_SPLINE_CURVE_WITH_KNOTS('',1,(#444,#445),.UNSPECIFIED.,.F.,.F.,(2,2),(0.00000000000000000E0,1.00000000000000000E0),.UNSPECIFIED.);
#447=DEFINITIONAL_REPRESENTATION('',(#446),#328);
#448=PCURVE('',#73,#447);
#449=CARTESIAN_POINT('',(0.00000000000000000E0,0.00000000000000000E0));
#450=CARTESIAN_POINT('',(1.00000000000000000E0,0.00000000000000000E0));
#451=B_SPLINE_CURVE_WITH_KNOTS('',1,(#449,#450),.UNSPECIFIED.,.F.,.F.,(2,2),(0.00000000000000000E0,1.00000000000000000E0),.UNSPECIFIED.);
#452=DEFINITIONAL_REPRESENTATION('',(#451),#328);
#453=PCURVE('',#80,#452);
#454=CARTESIAN_POINT('',(1.00000000000000000E0,0.00000000000000000E0));
#455=CARTESIAN_POINT('',(1.00000000000000000E0,1.00000000000000000E0));
#456=B_SPLINE_CURVE_WITH_KNOTS('',1,(#454,#455),.UNSPECIFIED.,.F.,.F.,(2,2),(0.00000000000000000E0,1.00000000000000000E0),.UNSPECIFIED.);
#457=DEFINITIONAL_REPRESENTATION('',(#456),#328);
#458=PCURVE('',#80,#457);
#459=CARTESIAN_POINT('',(1.00000000000000000E0,1.00000000000000000E0));
#460=CARTESIAN_POINT('',(0.00000000000000000E0,1.00000000000000000E0));
#461=B_SPLINE_CURVE_WITH_KNOTS('',1,(#459,#460),.UNSPECIFIED.,.F.,.F.,(2,2),(0.00000000000000000E0,1.00000000000000000E0),.UNSPECIFIED.);
#462=DEFINITIONAL_REPRESENTATION('',(#461),#328);
#463=PCURVE('',#80,#462);
#464=CARTESIAN_POINT('',(0.00000000000000000E0,1.00000000000000000E0));
#465=CARTESIAN_POINT('',(0.00000000000000000E0,0.00000000000000000E0));
#466=B_SPLINE_CURVE_WITH_KNOTS('',1,(#464,#465),.UNSPECIFIED.,.F.,.F.,(2,2),(0.00000000000000000E0,1.00000000000000000E0),.UNSPECIFIED.);
#467=DEFINITIONAL_REPRESENTATION('',(#466),#328);
#468=PCURVE('',#80,#467);
#469=CARTESIAN_POINT('',(0.00000000000000000E0,0.00000000000000000E0));
#470=CARTESIAN_POINT('',(1.00000000000000000E0,0.00000000000000000E0));
#471=B_SPLINE_CURVE_WITH_KNOTS('',1,(#469,#470),.UNSPECIFIED.,.F.,.F.,(2,2),(0.00000000000000000E0,1.00000000000000000E0),.UNSPECIFIED.);
#472=DEFINITIONAL_REPRESENTATION('',(#471),#328);
#473=PCURVE('',#87,#472);
#474=CARTESIAN_POINT('',(1.00000000000000000E0,0.00000000000000000E0));
#475=CARTESIAN_POINT('',(1.00000000000000000E0,1.00000000000000000E0));
#476=B_SPLINE_CURVE_WITH_KNOTS('',1,(#474,#475),.UNSPECIFIED.,.F.,.F.,(2,2),(0.00000000000000000E0,1.00000000000000000E0),.UNSPECIFIED.);
#477=DEFINITIONAL_REPRESENTATION('',(#476),#328);
#478=PCURVE('',#87,#477);
#479=CARTESIAN_POINT('',(1.00000000000000000E0,1.00000000000000000E0));
#480=CARTESIAN_POINT('',(0.00000000000000000E0,1.00000000000000000E0));
#481=B_SPLINE_CURVE_WITH_KNOTS('',1,(#479,#480),.UNSPECIFIED.,.F.,.F.,(2,2),(0.00000000000000000E0,1.00000000000000000E0),.UNSPECIFIED.);
#482=DEFINITIONAL_REPRESENTATION('',(#481),#328);
#483=PCURVE('',#87,#482);
#484=CARTESIAN_POINT('',(0.00000000000000000E0,1.00000000000000000E0));
#485=CARTESIAN_POINT('',(0.00000000000000000E0,0.00000000000000000E0));
#486=B_SPLINE_CURVE_WITH_KNOTS('',1,(#484,#485),.UNSPECIFIED.,.F.,.F.,(2,2),(0.00000000000000000E0,1.00000000000000000E0),.UNSPECIFIED.);
#487=DEFINITIONAL_REPRESENTATION('',(#486),#328);
#488=PCURVE('',#87,#487);
#489=CARTESIAN_POINT('',(0.00000000000000000E0,0.00000000000000000E0));
#490=CARTESIAN_POINT('',(1.00000000000000000E0,0.00000000000000000E0));
#491=B_SPLINE_CURVE_WITH_KNOTS('',1,(#489,#490),.UNSPECIFIED.,.F.,.F.,(2,2),(0.00000000000000000E0,1.00000000000000000E0),.UNSPECIFIED.);
#492=DEFINITIONAL_REPRESENTATION('',(#491),#328);
#493=PCURVE('',#97,#492);
#494=CARTESIAN_POINT('',(1.00000000000000000E0,0.00000000000000000E0));
#495=CARTESIAN_POINT('',(1.00000000000000000E0,1.00000000000000000E0));
#496=B_SPLINE_CURVE_WITH_KNOTS('',1,(#494,#495),.UNSPECIFIED.,.F.,.F.,(2,2),(0.00000000000000000E0,1.00000000000000000E0),.UNSPECIFIED.);
#497=DEFINITIONAL_REPRESENTATION('',(#496),#328);
#498=PCURVE('',#97,#497);
#499=CARTESIAN_POINT('',(1.00000000000000000E0,1.00000000000000000E0));
#500=CARTESIAN_POINT('',(0.00000000000000000E0,1.00000000000000000E0));
#501=B_SPLINE_CURVE_WITH_KNOTS('',1,(#499,#500),.UNSPECIFIED.,.F.,.F.,(2,2),(0.00000000000000000E0,1.00000000000000000E0),.UNSPECIFIED.);
#502=DEFINITIONAL_REPRESENTATION('',(#501),#328);
#503=PCURVE('',#97,#502);
#504=CARTESIAN_POINT('',(0.00000000000000000E0,1.00000000000000000E0));
#505=CARTESIAN_POINT('',(0.00000000000000000E0,0.00000000000000000E0));
#506=B_SPLINE_CURVE_WITH_KNOTS('',1,(#504,#505),.UNSPECIFIED.,.F.,.F.,(2,2),(0.00000000000000000E0,1.00000000000000000E0),.UNSPECIFIED.);
#507=DEFINITIONAL_REPRESENTATION('',(#506),#328);
#508=PCURVE('',#97,#507);
#509=CARTESIAN_POINT('',(0.00000000000000000E0,0.00000000000000000E0));
#510=CARTESIAN_POINT('',(1.00000000000000000E0,0.00000000000000000E0));
#511=B_SPLINE_CURVE_WITH_KNOTS('',1,(#509,#510),.UNSPECIFIED.,.F.,.F.,(2,2),(0.00000000000000000E0,1.00000000000000000E0),.UNSPECIFIED.);
#512=DEFINITIONAL_REPRESENTATION('',(#511),#328);
#513=PCURVE('',#107,#512);
#514=CARTESIAN_POINT('',(1.00000000000000000E0,0.00000000000000000E0));
#515=CARTESIAN_POINT('',(1.00000000000000000E0,1.00000000000000000E0));
#516=B_SPLINE_CURVE_WITH_KNOTS('',1,(#514,#515),.UNSPECIFIED.,.F.,.F.,(2,2),(0.00000000000000000E0,1.00000000000000000E0),.UNSPECIFIED.);
#517=DEFINITIONAL_REPRESENTATION('',(#516),#328);
#518=PCURVE('',#107,#517);
#519=CARTESIAN_POINT('',(1.00000000000000000E0,1.00000000000000000E0));
#520=CARTESIAN_POINT('',(0.00000000000000000E0,1.00000000000000000E0));
#521=B_SPLINE_CURVE_WITH_KNOTS('',1,(#519,#520),.UNSPECIFIED.,.F.,.F.,(2,2),(0.00000000000000000E0,1.00000000000000000E0),.UNSPECIFIED.);
#522=DEFINITIONAL_REPRESENTATION('',(#521),#328);
#523=PCURVE('',#107,#522);
#524=CARTESIAN_POINT('',(0.00000000000000000E0,1.00000000000000000E0));
#525=CARTESIAN_POINT('',(0.00000000000000000E0,0.00000000000000000E0));
#526=B_SPLINE_CURVE_WITH_KNOTS('',1,(#524,#525),.UNSPECIFIED.,.F.,.F.,(2,2),(0.00000000000000000E0,1.00000000000000000E0),.UNSPECIFIED.);
#527=DEFINITIONAL_REPRESENTATION('',(#526),#328);
#528=PCURVE('',#107,#527);
#529=CARTESIAN_POINT('',(0.00000000000000000E0,0.00000000000000000E0));
#530=CARTESIAN_POINT('',(1.00000000000000000E0,0.00000000000000000E0));
#531=B_SPLINE_CURVE_WITH_KNOTS('',1,(#529,#530),.UNSPECIFIED.,.F.,.F.,(2,2),(0.00000000000000000E0,1.00000000000000000E0),.UNSPECIFIED.);
#532=DEFINITIONAL_REPRESENTATION('',(#531),#328);
#533=PCURVE('',#117,#532);
#534=CARTESIAN_POINT('',(1.00000000000000000E0,0.00000000000000000E0));
#535=CARTESIAN_POINT('',(1.00000000000000000E0,1.00000000000000000E0));
#536=B_SPLINE_CURVE_WITH_KNOTS('',1,(#534,#535),.UNSPECIFIED.,.F.,.F.,(2,2),(0.00000000000000000E0,1.00000000000000000E0),.UNSPECIFIED.);
#537=DEFINITIONAL_REPRESENTATION('',(#536),#328);
#538=PCURVE('',#117,#537);
#539=CARTESIAN_POINT('',(1.00000000000000000E0,1.00000000000000000E0));
#540=CARTESIAN_POINT('',(0.00000000000000000E0,1.00000000000000000E0));
#541=B_SPLINE_CURVE_WITH_KNOTS('',1,(#539,#540),.UNSPECIFIED.,.F.,.F.,(2,2),(0.00000000000000000E0,1.00000000000000000E0),.UNSPECIFIED.);
#542=DEFINITIONAL_REPRESENTATION('',(#541),#328);
#543=PCURVE('',#117,#542);
#544=CARTESIAN_POINT('',(0.00000000000000000E0,1.00000000000000000E0));
#545=CARTESIAN_POINT('',(0.00000000000000000E0,0.00000000000000000E0));
#546=B_SPLINE_CURVE_WITH_KNOTS('',1,(#544,#545),.UNSPECIFIED.,.F.,.F.,(2,2),(0.00000000000000000E0,1.00000000000000000E0),.UNSPECIFIED.);
#547=DEFINITIONAL_REPRESENTATION('',(#546),#328);
#548=PCURVE('',#117,#547);
#549=CARTESIAN_POINT('',(0.00000000000000000E0,0.00000000000000000E0));
#550=CARTESIAN_POINT('',(1.00000000000000000E0,0.00000000000000000E0));
#551=B_SPLINE_CURVE_WITH_KNOTS('',1,(#549,#550),.UNSPECIFIED.,.F.,.F.,(2,2),(0.00000000000000000E0,1.00000000000000000E0),.UNSPECIFIED.);
#552=DEFINITIONAL_REPRESENTATION('',(#551),#328);
#553=PCURVE('',#127,#552);
#554=CARTESIAN_POINT('',(1.00000000000000000E0,0.00000000000000000E0));
#555=CARTESIAN_POINT('',(1.00000000000000000E0,1.00000000000000000E0));
#556=B_SPLINE_CURVE_WITH_KNOTS('',1,(#554,#555),.UNSPECIFIED.,.F.,.F.,(2,2),(0.00000000000000000E0,1.00000000000000000E0),.UNSPECIFIED.);
#557=DEFINITIONAL_REPRESENTATION('',(#556),#328);
#558=PCURVE('',#127,#557);
#559=CARTESIAN_POINT('',(1.00000000000000000E0,1.00000000000000000E0));
#560=CARTESIAN_POINT('',(0.00000000000000000E0,1.00000000000000000E0));
#561=B_SPLINE_CURVE_WITH_KNOTS('',1,(#559,#560),.UNSPECIFIED.,.F.,.F.,(2,2),(0.00000000000000000E0,1.00000000000000000E0),.UNSPECIFIED.);
#562=DEFINITIONAL_REPRESENTATION('',(#561),#328);
#563=PCURVE('',#127,#562);
#564=CARTESIAN_POINT('',(0.00000000000000000E0,1.00000000000000000E0));
#565=CARTESIAN_POINT('',(0.00000000000000000E0,0.00000000000000000E0));
#566=B_SPLINE_CURVE_WITH_KNOTS('',1,(#564,#565),.UNSPECIFIED.,.F.,.F.,(2,2),(0.00000000000000000E0,1.00000000000000000E0),.UNSPECIFIED.);
#567=DEFINITIONAL_REPRESENTATION('',(#566),#328);
#568=PCURVE('',#127,#567);
#569=CARTESIAN_POINT('',(0.00000000000000000E0,0.00000000000000000E0));
#570=CARTESIAN_POINT('',(1.00000000000000000E0,0.00000000000000000E0));
#571=B_SPLINE_CURVE_WITH_KNOTS('',1,(#569,#570),.UNSPECIFIED.,.F.,.F.,(2,2),(0.00000000000000000E0,1.00000000000000000E0),.UNSPECIFIED.);
#572=DEFINITIONAL_REPRESENTATION('',(#571),#328);
#573=PCURVE('',#134,#572);
#574=CARTESIAN_POINT('',(1.00000000000000000E0,0.00000000000000000E0));
#575=CARTESIAN_POINT('',(1.00000000000000000E0,1.00000000000000000E0));
#576=B_SPLINE_CURVE_WITH_KNOTS('',1,(#574,#575),.UNSPECIFIED.,.F.,.F.,(2,2),(0.00000000000000000E0,1.00000000000000000E0),.UNSPECIFIED.);
#577=DEFINITIONAL_REPRESENTATION('',(#576),#328);
#578=PCURVE('',#134,#577);
#579=CARTESIAN_POINT('',(1.00000000000000000E0,1.00000000000000000E0));
#580=CARTESIAN_POINT('',(0.00000000000000000E0,1.00000000000000000E0));
#581=B_SPLINE_CURVE_WITH_KNOTS('',1,(#579,#580),.UNSPECIFIED.,.F.,.F.,(2,2),(0.00000000000000000E0,1.00000000000000000E0),.UNSPECIFIED.);
#582=DEFINITIONAL_REPRESENTATION('',(#581),#328);
#583=PCURVE('',#134,#582);
#584=CARTESIAN_POINT('',(0.00000000000000000E0,1.00000000000000000E0));
#585=CARTESIAN_POINT('',(0.00000000000000000E0,0.00000000000000000E0));
#586=B_SPLINE_CURVE_WITH_KNOTS('',1,(#584,#585),.UNSPECIFIED.,.F.,.F.,(2,2),(0.00000000000000000E0,1.00000000000000000E0),.UNSPECIFIED.);
#587=DEFINITIONAL_REPRESENTATION('',(#586),#328);
#588=PCURVE('',#134,#587);
#589=CARTESIAN_POINT('',(0.00000000000000000E0,0.00000000000000000E0));
#590=CARTESIAN_POINT('',(1.00000000000000000E0,0.00000000000000000E0));
#591=B_SPLINE_CURVE_WITH_KNOTS('',1,(#589,#590),.UNSPECIFIED.,.F.,.F.,(2,2),(0.00000000000000000E0,1.00000000000000000E0),.UNSPECIFIED.);
#592=DEFINITIONAL_REPRESENTATION('',(#591),#328);
#593=PCURVE('',#141,#592);
#594=CARTESIAN_POINT('',(1.00000000000000000E0,0.00000000000000000E0));
#595=CARTESIAN_POINT('',(1.00000000000000000E0,1.00000000000000000E0));
#596=B_SPLINE_CURVE_WITH_KNOTS('',1,(#594,#595),.UNSPECIFIED.,.F.,.F.,(2,2),(0.00000000000000000E0,1.00000000000000000E0),.UNSPECIFIED.);
#597=DEFINITIONAL_REPRESENTATION('',(#596),#328);
#598=PCURVE('',#141,#597);
#599=CARTESIAN_POINT('',(1.00000000000000000E0,1.00000000000000000E0));
#600=CARTESIAN_POINT('',(0.00000000000000000E0,1.00000000000000000E0));
#601=B_SPLINE_CURVE_WITH_KNOTS('',1,(#599,#600),.UNSPECIFIED.,.F.,.F.,(2,2),(0.00000000000000000E0,1.00000000000000000E0),.UNSPECIFIED.);
#602=DEFINITIONAL_REPRESENTATION('',(#601),#328);
#603=PCURVE('',#141,#602);
#604=CARTESIAN_POINT('',(0.00000000000000000E0,1.00000000000000000E0));
#605=CARTESIAN_POINT('',(0.00000000000000000E0,0.00000000000000000E0));
#606=B_SPLINE_CURVE_WITH_KNOTS('',1,(#604,#605),.UNSPECIFIED.,.F.,.F.,(2,2),(0.00000000000000000E0,1.00000000000000000E0),.UNSPECIFIED.);
#607=DEFINITIONAL_REPRESENTATION('',(#606),#328);
#608=PCURVE('',#141,#607);
#609=CARTESIAN_POINT('',(0.00000000000000000E0,0.00000000000000000E0));
#610=CARTESIAN_POINT('',(1.00000000000000000E0,0.00000000000000000E0));
#611=B_SPLINE_CURVE_WITH_KNOTS('',1,(#609,#610),.UNSPECIFIED.,.F.,.F.,(2,2),(0.00000000000000000E0,1.00000000000000000E0),.UNSPECIFIED.);
#612=DEFINITIONAL_REPRESENTATION('',(#611),#328);
#613=PCURVE('',#148,#612);
#614=CARTESIAN_POINT('',(1.00000000000000000E0,0.00000000000000000E0));
#615=CARTESIAN_POINT('',(1.00000000000000000E0,1.00000000000000000E0));
#616=B_SPLINE_CURVE_WITH_KNOTS('',1,(#614,#615),.UNSPECIFIED.,.F.,.F.,(2,2),(0.00000000000000000E0,1.00000000000000000E0),.UNSPECIFIED.);
#617=DEFINITIONAL_REPRESENTATION('',(#616),#328);
#618=PCURVE('',#148,#617);
#619=CARTESIAN_POINT('',(1.00000000000000000E0,1.00000000000000000E0));
#620=CARTESIAN_POINT('',(0.00000000000000000E0,1.00000000000000000E0));
#621=B_SPLINE_CURVE_WITH_KNOTS('',1,(#619,#620),.UNSPECIFIED.,.F.,.F.,(2,2),(0.00000000000000000E0,1.00000000000000000E0),.UNSPECIFIED.);
#622=DEFINITIONAL_REPRESENTATION('',(#621),#328);
#623=PCURVE('',#148,#622);
#624=CARTESIAN_POINT('',(0.00000000000000000E0,1.00000000000000000E0));
#625=CARTESIAN_POINT('',(0.00000000000000000E0,0.00000000000000000E0));
#626=B_SPLINE_CURVE_WITH_KNOTS('',1,(#624,#625),.UNSPECIFIED.,.F.,.F.,(2,2),(0.00000000000000000E0,1.00000000000000000E0),.UNSPECIFIED.);
#627=DEFINITIONAL_REPRESENTATION('',(#626),#328);
#628=PCURVE('',#148,#627);
#629=CARTESIAN_POINT('',(0.00000000000000000E0,0.00000000000000000E0));
#630=CARTESIAN_POINT('',(1.00000000000000000E0,0.00000000000000000E0));
#631=B_SPLINE_CURVE_WITH_KNOTS('',1,(#629,#630),.UNSPECIFIED.,.F.,.F.,(2,2),(0.00000000000000000E0,1.00000000000000000E0),.UNSPECIFIED.);
#632=DEFINITIONAL_REPRESENTATION('',(#631),#328);
#633=PCURVE('',#155,#632);
#634=CARTESIAN_POINT('',(1.00000000000000000E0,0.00000000000000000E0));
#635=CARTESIAN_POINT('',(1.00000000000000000E0,1.00000000000000000E0));
#636=B_SPLINE_CURVE_WITH_KNOTS('',1,(#634,#635),.UNSPECIFIED.,.F.,.F.,(2,2),(0.00000000000000000E0,1.00000000000000000E0),.UNSPECIFIED.);
#637=DEFINITIONAL_REPRESENTATION('',(#636),#328);
#638=PCURVE('',#155,#637);
#639=CARTESIAN_POINT('',(1.00000000000000000E0,1.00000000000000000E0));
#640=CARTESIAN_POINT('',(0.00000000000000000E0,1.00000000000000000E0));
#641=B_SPLINE_CURVE_WITH_KNOTS('',1,(#639,#640),.UNSPECIFIED.,.F.,.F.,(2,2),(0.00000000000000000E0,1.00000000000000000E0),.UNSPECIFIED.);
#642=DEFINITIONAL_REPRESENTATION('',(#641),#328);
#643=PCURVE('',#155,#642);
#644=CARTESIAN_POINT('',(0.00000000000000000E0,1.00000000000000000E0));
#645=CARTESIAN_POINT('',(0.00000000000000000E0,0.00000000000000000E0));
#646=B_SPLINE_CURVE_WITH_KNOTS('',1,(#644,#645),.UNSPECIFIED.,.F.,.F.,(2,2),(0.00000000000000000E0,1.00000000000000000E0),.UNSPECIFIED.);
#647=DEFINITIONAL_REPRESENTATION('',(#646),#328);
#648=PCURVE('',#155,#647);
#649=CARTESIAN_POINT('',(0.00000000000000000E0,0.00000000000000000E0));
#650=CARTESIAN_POINT('',(1.00000000000000000E0,0.00000000000000000E0));
#651=B_SPLINE_CURVE_WITH_KNOTS('',1,(#649,#650),.UNSPECIFIED.,.F.,.F.,(2,2),(0.00000000000000000E0,1.00000000000000000E0),.UNSPECIFIED.);
#652=DEFINITIONAL_REPRESENTATION('',(#651),#328);
#653=PCURVE('',#162,#652);
#654=CARTESIAN_POINT('',(1.00000000000000000E0,0.00000000000000000E0));
#655=CARTESIAN_POINT('',(1.00000000000000000E0,1.00000000000000000E0));
#656=B_SPLINE_CURVE_WITH_KNOTS('',1,(#654,#655),.UNSPECIFIED.,.F.,.F.,(2,2),(0.00000000000000000E0,1.00000000000000000E0),.UNSPECIFIED.);
#657=DEFINITIONAL_REPRESENTATION('',(#656),#328);
#658=PCURVE('',#162,#657);
#659=CARTESIAN_POINT('',(1.00000000000000000E0,1.00000000000000000E0));
#660=CARTESIAN_POINT('',(0.00000000000000000E0,1.00000000000000000E0));
#661=B_SPLINE_CURVE_WITH_KNOTS('',1,(#659,#660),.UNSPECIFIED.,.F.,.F.,(2,2),(0.00000000000000000E0,1.00000000000000000E0),.UNSPECIFIED.);
#662=DEFINITIONAL_REPRESENTATION('',(#661),#328);
#663=PCURVE('',#162,#662);
#664=CARTESIAN_POINT('',(0.00000000000000000E0,1.00000000000000000E0));
#665=CARTESIAN_POINT('',(0.00000000000000000E0,0.00000000000000000E0));
#666=B_SPLINE_CURVE_WITH_KNOTS('',1,(#664,#665),.UNSPECIFIED.,.F.,.F.,(2,2),(0.00000000000000000E0,1.00000000000000000E0),.UNSPECIFIED.);
#667=DEFINITIONAL_REPRESENTATION('',(#666),#328);
#668=PCURVE('',#162,#667);
#669=CARTESIAN_POINT('',(0.00000000000000000E0,0.00000000000000000E0));
#670=CARTESIAN_POINT('',(1.00000000000000000E0,0.00000000000000000E0));
#671=B_SPLINE_CURVE_WITH_KNOTS('',1,(#669,#670),.UNSPECIFIED.,.F.,.F.,(2,2),(0.00000000000000000E0,1.00000000000000000E0),.UNSPECIFIED.);
#672=DEFINITIONAL_REPRESENTATION('',(#671),#328);
#673=PCURVE('',#169,#672);
#674=CARTESIAN_POINT('',(1.00000000000000000E0,0.00000000000000000E0));
#675=CARTESIAN_POINT('',(1.00000000000000000E0,1.00000000000000000E0));
#676=B_SPLINE_CURVE_WITH_KNOTS('',1,(#674,#675),.UNSPECIFIED.,.F.,.F.,(2,2),(0.00000000000000000E0,1.00000000000000000E0),.UNSPECIFIED.);
#677=DEFINITIONAL_REPRESENTATION('',(#676),#328);
#678=PCURVE('',#169,#677);
#679=CARTESIAN_POINT('',(1.00000000000000000E0,1.00000000000000000E0));
#680=CARTESIAN_POINT('',(0.00000000000000000E0,1.00000000000000000E0));
#681=B_SPLINE_CURVE_WITH_KNOTS('',1,(#679,#680),.UNSPECIFIED.,.F.,.F.,(2,2),(0.00000000000000000E0,1.00000000000000000E0),.UNSPECIFIED.);
#682=DEFINITIONAL_REPRESENTATION('',(#681),#328);
#683=PCURVE('',#169,#682);
#684=CARTESIAN_POINT('',(0.00000000000000000E0,1.00000000000000000E0));
#685=CARTESIAN_POINT('',(0.00000000000000000E0,0.00000000000000000E0));
#686=B_SPLINE_CURVE_WITH_KNOTS('',1,(#684,#685),.UNSPECIFIED.,.F.,.F.,(2,2),(0.00000000000000000E0,1.00000000000000000E0),.UNSPECIFIED.);
#687=DEFINITIONAL_REPRESENTATION('',(#686),#328);
#688=PCURVE('',#169,#687);
#689=CARTESIAN_POINT('',(0.00000000000000000E0,0.00000000000000000E0));
#690=CARTESIAN_POINT('',(1.00000000000000000E0,0.00000000000000000E0));
#691=B_SPLINE_CURVE_WITH_KNOTS('',1,(#689,#690),.UNSPECIFIED.,.F.,.F.,(2,2),(0.00000000000000000E0,1.00000000000000000E0),.UNSPECIFIED.);
#692=DEFINITIONAL_REPRESENTATION('',(#691),#328);
#693=PCURVE('',#176,#692);
#694=CARTESIAN_POINT('',(1.00000000000000000E0,0.00000000000000000E0));
#695=CARTESIAN_POINT('',(1.00000000000000000E0,1.00000000000000000E0));
#696=B_SPLINE_CURVE_WITH_KNOTS('',1,(#694,#695),.UNSPECIFIED.,.F.,.F.,(2,2),(0.00000000000000000E0,1.00000000000000000E0),.UNSPECIFIED.);
#697=DEFINITIONAL_REPRESENTATION('',(#696),#328);
#698=PCURVE('',#176,#697);
#699=CARTESIAN_POINT('',(1.00000000000000000E0,1.00000000000000000E0));
#700=CARTESIAN_POINT('',(0.00000000000000000E0,1.00000000000000000E0));
#701=B_SPLINE_CURVE_WITH_KNOTS('',1,(#699,#700),.UNSPECIFIED.,.F.,.F.,(2,2),(0.00000000000000000E0,1.00000000000000000E0),.UNSPECIFIED.);
#702=DEFINITIONAL_REPRESENTATION('',(#701),#328);
#703=PCURVE('',#176,#702);
#704=CARTESIAN_POINT('',(0.00000000000000000E0,1.00000000000000000E0));
#705=CARTESIAN_POINT('',(0.00000000000000000E0,0.00000000000000000E0));
#706=B_SPLINE_CURVE_WITH_KNOTS('',1,(#704,#705),.UNSPECIFIED.,.F.,.F.,(2,2),(0.00000000000000000E0,1.00000000000000000E0),.UNSPECIFIED.);
#707=DEFINITIONAL_REPRESENTATION('',(#706),#328);
#708=PCURVE('',#176,#707);
#709=CARTESIAN_POINT('',(0.00000000000000000E0,0.00000000000000000E0));
#710=CARTESIAN_POINT('',(1.00000000000000000E0,0.00000000000000000E0));
#711=B_SPLINE_CURVE_WITH_KNOTS('',1,(#709,#710),.UNSPECIFIED.,.F.,.F.,(2,2),(0.00000000000000000E0,1.00000000000000000E0),.UNSPECIFIED.);
#712=DEFINITIONAL_REPRESENTATION('',(#711),#328);
#713=PCURVE('',#183,#712);
#714=CARTESIAN_POINT('',(1.00000000000000000E0,0.00000000000000000E0));
#715=CARTESIAN_POINT('',(1.00000000000000000E0,1.00000000000000000E0));
#716=B_SPLINE_CURVE_WITH_KNOTS('',1,(#714,#715),.UNSPECIFIED.,.F.,.F.,(2,2),(0.00000000000000000E0,1.00000000000000000E0),.UNSPECIFIED.);
#717=DEFINITIONAL_REPRESENTATION('',(#716),#328);
#718=PCURVE('',#183,#717);
#719=CARTESIAN_POINT('',(1.00000000000000000E0,1.00000000000000000E0));
#720=CARTESIAN_POINT('',(0.00000000000000000E0,1.00000000000000000E0));
#721=B_SPLINE_CURVE_WITH_KNOTS('',1,(#719,#720),.UNSPECIFIED.,.F.,.F.,(2,2),(0.00000000000000000E0,1.00000000000000000E0),.UNSPECIFIED.);
#722=DEFINITIONAL_REPRESENTATION('',(#721),#328);
#723=PCURVE('',#183,#722);
#724=CARTESIAN_POINT('',(0.00000000000000000E0,1.00000000000000000E0));
#725=CARTESIAN_POINT('',(0.00000000000000000E0,0.00000000000000000E0));
#726=B_SPLINE_CURVE_WITH_KNOTS('',1,(#724,#725),.UNSPECIFIED.,.F.,.F.,(2,2),(0.00000000000000000E0,1.00000000000000000E0),.UNSPECIFIED.);
#727=DEFINITIONAL_REPRESENTATION('',(#726),#328);
#728=PCURVE('',#183,#727);
#729=SURFACE_CURVE('',#187,(#333,#663),.PCURVE_S1.);
#730=EDGE_CURVE('OSCAD_TOPO/3|edge|e:e1db1b769df2a32d365e1892126a8a2e|373b9bba3d99a6cd88aba49169db27f81f6a40d68d665787c5586f2f468e8793',#2,#4,#729,.T.);
#731=SURFACE_CURVE('',#190,(#338,#368),.PCURVE_S1.);
#732=EDGE_CURVE('OSCAD_TOPO/3|edge|e:95c293cd4f1e2bfc90fb052d231ef4e7|f284ef5fc18423270429bf8191670d20f6798ef3e317987914a3cc73e1fd9700',#4,#12,#731,.T.);
#733=SURFACE_CURVE('',#194,(#343,#413),.PCURVE_S1.);
#734=EDGE_CURVE('OSCAD_TOPO/3|edge|e:866512d1b44e85daac0ac6f965ba3848|0c457ecaca9f8ddaa443e740dcb80aa568cac7ac2eb7d084e40954f187e625b3',#10,#12,#733,.T.);
#735=SEAM_CURVE('',#197,(#348,#398),.PCURVE_S1.);
#736=EDGE_CURVE('OSCAD_TOPO/3|edge|e:69082b4570f8289ad6bb7f6057a578e0|05989b6d88ddb0ce3285727b3f777f0b35b94d7b7cfc50dc730d2a3928aa97b2',#2,#10,#735,.T.);
#737=SURFACE_CURVE('',#201,(#353,#683),.PCURVE_S1.);
#738=EDGE_CURVE('OSCAD_TOPO/3|edge|e:60803eec01d38b9ffcd17f998b6af4e0|4e13e67677812150dfee044c932191cb55e853254d9197cd68758ab91b46e04f',#4,#6,#737,.T.);
#739=SURFACE_CURVE('',#204,(#358,#388),.PCURVE_S1.);
#740=EDGE_CURVE('OSCAD_TOPO/3|edge|e:958dd6059d9756b48ff46d8f7b6e0caa|cf42aee9d592268623750e187172e69e2d76bc3d000616623f6b89d47be94421',#6,#14,#739,.T.);
#741=SURFACE_CURVE('',#208,(#363,#433),.PCURVE_S1.);
#742=EDGE_CURVE('OSCAD_TOPO/3|edge|e:28b27ef9b071f0da66aa209dd676b106|4c8b0e08a854a2f37d146a008ddb27695ee0d318b6a5d7e21ebb469e8fe71030',#12,#14,#741,.T.);
#743=SURFACE_CURVE('',#212,(#373,#703),.PCURVE_S1.);
#744=EDGE_CURVE('OSCAD_TOPO/3|edge|e:16c0a6ef458c8471012a5e50d4243d9d|ded7d9b6fb6f9eec2132fe5d4b72bdaf4cdb1b034537c90bc9e6aa48ebce0d58',#6,#8,#743,.T.);
#745=SURFACE_CURVE('',#215,(#378,#408),.PCURVE_S1.);
#746=EDGE_CURVE('OSCAD_TOPO/3|edge|e:7ed91d8d97b558e2dde644fe032fb2cc|98d1998cac4ed7d9711b07d301cb0edcf5e37b3ffab93e0d473cb951ee37d4b7',#8,#16,#745,.T.);
#747=SURFACE_CURVE('',#219,(#383,#453),.PCURVE_S1.);
#748=EDGE_CURVE('OSCAD_TOPO/3|edge|e:ebb56be06ec41cd752697dd7d7206034|048698694892b2432c649c89f8bfb25cd944145efe1b405f316ea5fad6172bb2',#14,#16,#747,.T.);
#749=SURFACE_CURVE('',#223,(#393,#723),.PCURVE_S1.);
#750=EDGE_CURVE('OSCAD_TOPO/3|edge|e:b63e1aac8436ffa958b50728f0f07b35|9a42cb4652e3bc6f4802eefd6732c99c22cddd819b643e61c540e055fa99834b',#2,#8,#749,.T.);
#751=SURFACE_CURVE('',#227,(#403,#473),.PCURVE_S1.);
#752=EDGE_CURVE('OSCAD_TOPO/3|edge|e:4ac96bce1c0cc652965028b603fc6891|9f0e136f80ed814e5ea4bf12f5a9deab3b9db6ee8df40692a8ffdf3c5ff78028',#10,#16,#751,.T.);
#753=SURFACE_CURVE('',#230,(#418,#448),.PCURVE_S1.);
#754=EDGE_CURVE('OSCAD_TOPO/3|edge|e:19f58bfee234540a69d4d8856a9aaeec|7f8793c31d7db3243c9902f8fa4d2bdabf0673d10d510e1f7d2f2d5bf34e43b8',#12,#20,#753,.T.);
#755=SURFACE_CURVE('',#234,(#423,#493),.PCURVE_S1.);
#756=EDGE_CURVE('OSCAD_TOPO/3|edge|e:0e86a93901709e19b82661b7f9679ab3|b39d29aa098989e2a0ddc85808576d8949ae81fbd64c4115d41eb86f2ce08a64',#18,#20,#755,.T.);
#757=SURFACE_CURVE('',#237,(#428,#478),.PCURVE_S1.);
#758=EDGE_CURVE('OSCAD_TOPO/3|edge|e:0ea75d0c08b40bbf3a05c6477d809bb8|da221991cccc310823c74337d61de72d02e5b194b2b7d6150e4429c6b7384d87',#10,#18,#757,.T.);
#759=SURFACE_CURVE('',#240,(#438,#468),.PCURVE_S1.);
#760=EDGE_CURVE('OSCAD_TOPO/3|edge|e:08b9d21c131742b7dce0bddee926ac82|0a3c805fa85bb272a843eac1a7b524abc4d62b958bc6261ec7315c1da5525f5d',#14,#22,#759,.T.);
#761=SURFACE_CURVE('',#244,(#443,#513),.PCURVE_S1.);
#762=EDGE_CURVE('OSCAD_TOPO/3|edge|e:ccf3274feea10679606164ee10ff05ae|52ff0135b334ae8b144fd74ca17c224ddbeeeb119cfa2a6c727866d56ba4430e',#20,#22,#761,.T.);
#763=SURFACE_CURVE('',#247,(#458,#488),.PCURVE_S1.);
#764=EDGE_CURVE('OSCAD_TOPO/3|edge|e:8995029a43e095c35cb2c1ea893f731d|a6f1eae17fd3a110ab2bdfaa76ad33faa9ec85f48aa1d70d02b87a2ff80caf8a',#16,#24,#763,.T.);
#765=SURFACE_CURVE('',#251,(#463,#533),.PCURVE_S1.);
#766=EDGE_CURVE('OSCAD_TOPO/3|edge|e:c3186eb6602488bd9e8bc554ea401ce1|7e6cb4fcfab8fc9bb3f00d5f301866a665fcd35f521048bc78143d0d8bb97e84',#22,#24,#765,.T.);
#767=SURFACE_CURVE('',#255,(#483,#553),.PCURVE_S1.);
#768=EDGE_CURVE('OSCAD_TOPO/3|edge|e:77e54f6a85af6ce5aab4020fb75789c9|12fca1cc23234fbb185450b42a3e1e2a60cdedf21b230531b1417a6853717bb6',#18,#24,#767,.T.);
#769=SURFACE_CURVE('',#259,(#498,#528),.PCURVE_S1.);
#770=EDGE_CURVE('OSCAD_TOPO/3|edge|e:33d0ee686a79855af847efedade09e3d|4d5616b8879e1ee1da1c5ecdc30db4b65bb39af261056763a419d14f93a2ae2d',#20,#28,#769,.T.);
#771=SURFACE_CURVE('',#263,(#503,#573),.PCURVE_S1.);
#772=EDGE_CURVE('OSCAD_TOPO/3|edge|e:dbd1a75f664c24ed893ea309ae1f0c4f|7d728eb2c2b2494f67c73edfeaed2ce6c8bac1441fe0043c03adc09817026321',#26,#28,#771,.T.);
#773=SURFACE_CURVE('',#267,(#508,#558),.PCURVE_S1.);
#774=EDGE_CURVE('OSCAD_TOPO/3|edge|e:ab438c51bad91a77451a28440eb7d850|3f27ed52de853d75791e172b73ca7e0ecc64c93c8cb205a6bbbbdce9011e440f',#18,#26,#773,.T.);
#775=SURFACE_CURVE('',#271,(#518,#548),.PCURVE_S1.);
#776=EDGE_CURVE('OSCAD_TOPO/3|edge|e:ed57fddfed9126f8a884a589fdc0386d|633908380525dc2228c496d17591eab89d45426db46abbf80a7b37851393e1fe',#22,#30,#775,.T.);
#777=SURFACE_CURVE('',#275,(#523,#593),.PCURVE_S1.);
#778=EDGE_CURVE('OSCAD_TOPO/3|edge|e:b556dff8d0d6fb9dd2269d00e9e1b787|3b9a92e845a54df1bab9237c2f90fb2db4232fe1cc47d12d0d4c8f5aa46769c0',#28,#30,#777,.T.);
#779=SURFACE_CURVE('',#279,(#538,#568),.PCURVE_S1.);
#780=EDGE_CURVE('OSCAD_TOPO/3|edge|e:975363e29e661e00ef571da415feb2d4|d1698f4345effe53d49c7d1be59e113a360209b37ee5145c992fbfd37cb3f2c9',#24,#32,#779,.T.);
#781=SURFACE_CURVE('',#283,(#543,#613),.PCURVE_S1.);
#782=EDGE_CURVE('OSCAD_TOPO/3|edge|e:d26dc0e6f2325b939181e5cf37fcfdbd|481d7de3951ad4a446efc6fabe72a0e04a26204884efa3fc9e457f9427d349ba',#30,#32,#781,.T.);
#783=SURFACE_CURVE('',#287,(#563,#633),.PCURVE_S1.);
#784=EDGE_CURVE('OSCAD_TOPO/3|edge|e:e08cb0d255140d820ae73762106cb0fe|c1551644d2a4dccd8b96edb7c1982f04705a0d551717f4468b961190d85dc164',#26,#32,#783,.T.);
#785=SURFACE_CURVE('',#290,(#578,#608),.PCURVE_S1.);
#786=EDGE_CURVE('OSCAD_TOPO/3|edge|e:2b4dd6c16452c93b40e901976f77b2e2|2f28810893e456985f5ff7683939fe1e6187f7bb63480ef1a17bb16a634dbf1f',#28,#36,#785,.T.);
#787=SURFACE_CURVE('',#294,(#583,#653),.PCURVE_S1.);
#788=EDGE_CURVE('OSCAD_TOPO/3|edge|e:928c4971f9300596dc7e581922de5f7d|2fd8f6d72d8004245a5e83ed3a5b836b7121d47034abe3afc75816ac7ae5b35c',#34,#36,#787,.T.);
#789=SURFACE_CURVE('',#297,(#588,#638),.PCURVE_S1.);
#790=EDGE_CURVE('OSCAD_TOPO/3|edge|e:51696da46db42ce568d72361ef2f7e9e|987c17b5c5ae7297cbc1b95db2cf987c9999f891fad6beb26aaf0407db6af467',#26,#34,#789,.T.);
#791=SURFACE_CURVE('',#300,(#598,#628),.PCURVE_S1.);
#792=EDGE_CURVE('OSCAD_TOPO/3|edge|e:43e4154b6103bc57eada547d1eccab6a|dc3b83c35c72bfa06c7f1fd11a241430ea9a723edb4ef53fc504fb25114db6b1',#30,#38,#791,.T.);
#793=SURFACE_CURVE('',#304,(#603,#673),.PCURVE_S1.);
#794=EDGE_CURVE('OSCAD_TOPO/3|edge|e:3c44f62ef6bc76e3c415e69f7840b267|79cb8ce00e7be22d3c70906ffcca2fe3928dbdab07e3ea22b65ed59039883bf9',#36,#38,#793,.T.);
#795=SURFACE_CURVE('',#307,(#618,#648),.PCURVE_S1.);
#796=EDGE_CURVE('OSCAD_TOPO/3|edge|e:b5f1f97955593d4b172e6966b017dbbc|49c0c3fd1ea9a61ee7e54bc3d5c552e548534647d474b04880eb6404aefff921',#32,#40,#795,.T.);
#797=SURFACE_CURVE('',#311,(#623,#693),.PCURVE_S1.);
#798=EDGE_CURVE('OSCAD_TOPO/3|edge|e:dcfa1d838322aa865f47ae177caa85b9|7040a13552642cb6b08a0ff5b8c4104b3aceb0f12721298dccfb6bae8bc401b6',#38,#40,#797,.T.);
#799=SURFACE_CURVE('',#315,(#643,#713),.PCURVE_S1.);
#800=EDGE_CURVE('OSCAD_TOPO/3|edge|e:9f09da0c98d2d94abe6ab637a059e76f|0c7c53fb4d58c35d15fe7945d39d1c09850064a0e180f15242e25a51a72f9026',#34,#40,#799,.T.);
#801=SURFACE_CURVE('',#318,(#658,#688),.PCURVE_S1.);
#802=EDGE_CURVE('OSCAD_TOPO/3|edge|e:6088b1dc4007af98ac8d4642e57ecc6d|8298e3486bcbd408c2200d480aae69037653fb2ae2b668b30a56a817f268becb',#4,#36,#801,.T.);
#803=SURFACE_CURVE('',#321,(#668,#718),.PCURVE_S1.);
#804=EDGE_CURVE('OSCAD_TOPO/3|edge|e:cec0d997197acdc44dc28263321b5b6d|f47c0b55998398609c2f8443c3b91067ab413251b91055e4a013405972e0677d',#2,#34,#803,.T.);
#805=SURFACE_CURVE('',#324,(#678,#708),.PCURVE_S1.);
#806=EDGE_CURVE('OSCAD_TOPO/3|edge|e:053537c552ad7e1c1df56126168a38e7|c3b646b76a99c6ecace9b45c1a2feb67aab257fddf64c2bd45711e4d27f570fa',#6,#38,#805,.T.);
#807=SURFACE_CURVE('',#327,(#698,#728),.PCURVE_S1.);
#808=EDGE_CURVE('OSCAD_TOPO/3|edge|e:7518569ee619f092937e0f3e71b168f8|e4e9d09787bf233d4aca7eeb0944b1a789ac1eca7c652c19d9ad958f5d2d3c84',#8,#40,#807,.T.);
#809=ORIENTED_EDGE('',*,*,#730,.T.);
#810=ORIENTED_EDGE('',*,*,#732,.T.);
#811=ORIENTED_EDGE('',*,*,#734,.F.);
#812=ORIENTED_EDGE('',*,*,#736,.F.);
#813=EDGE_LOOP('OSCAD_TOPO/3|loop|l:ba96ed3aa3cec43ec3be4eb49f4f13b8|e3fccad5d6992bb1520cf42ee82a5bcc90cf87b96090aed6fa7c994689f30c90',(#809,#810,#811,#812));
#814=ORIENTED_EDGE('',*,*,#738,.T.);
#815=ORIENTED_EDGE('',*,*,#740,.T.);
#816=ORIENTED_EDGE('',*,*,#742,.F.);
#817=ORIENTED_EDGE('',*,*,#732,.F.);
#818=EDGE_LOOP('OSCAD_TOPO/3|loop|l:d9ccad3158164cf2c0ebdc55347eac7d|13148bdeba441029de29f8243de2b48625a754161330c37fd5cb288e5545f52a',(#814,#815,#816,#817));
#819=ORIENTED_EDGE('',*,*,#744,.T.);
#820=ORIENTED_EDGE('',*,*,#746,.T.);
#821=ORIENTED_EDGE('',*,*,#748,.F.);
#822=ORIENTED_EDGE('',*,*,#740,.F.);
#823=EDGE_LOOP('OSCAD_TOPO/3|loop|l:f3c71c6087151766c44326348710f1b4|05880da38c0b38ca6eeaebb135360eae5761fb1d1fb65ebee253d68544072ae5',(#819,#820,#821,#822));
#824=ORIENTED_EDGE('',*,*,#750,.F.);
#825=ORIENTED_EDGE('',*,*,#736,.T.);
#826=ORIENTED_EDGE('',*,*,#752,.T.);
#827=ORIENTED_EDGE('',*,*,#746,.F.);
#828=EDGE_LOOP('OSCAD_TOPO/3|loop|l:7583a7e2b15092524cf4f059b6afbfc4|257933f775cb4ac8b302cbce781f9ae87196141f6f1c7fe7b21ff5ccb5dab6f8',(#824,#825,#826,#827));
#829=ORIENTED_EDGE('',*,*,#734,.T.);
#830=ORIENTED_EDGE('',*,*,#754,.T.);
#831=ORIENTED_EDGE('',*,*,#756,.F.);
#832=ORIENTED_EDGE('',*,*,#758,.F.);
#833=EDGE_LOOP('OSCAD_TOPO/3|loop|l:890e1a0f4884bee3aed62ab7772b4ace|365d0a0516aa8a50d2fc93d9b71449165822a0a72ddf01aee3f3c75b41fa4e3f',(#829,#830,#831,#832));
#834=ORIENTED_EDGE('',*,*,#742,.T.);
#835=ORIENTED_EDGE('',*,*,#760,.T.);
#836=ORIENTED_EDGE('',*,*,#762,.F.);
#837=ORIENTED_EDGE('',*,*,#754,.F.);
#838=EDGE_LOOP('OSCAD_TOPO/3|loop|l:1f4f4643440146973a19008328ff90bd|4ca58ecfa6e7fe5aa37627ff2089b76ed6f99036e07a1a1158e07dedbc87fa58',(#834,#835,#836,#837));
#839=ORIENTED_EDGE('',*,*,#748,.T.);
#840=ORIENTED_EDGE('',*,*,#764,.T.);
#841=ORIENTED_EDGE('',*,*,#766,.F.);
#842=ORIENTED_EDGE('',*,*,#760,.F.);
#843=EDGE_LOOP('OSCAD_TOPO/3|loop|l:d471a8d0754d302853a400ab9f71a42f|aaf81484cf20209d6c193587a6d2ff7afc59d5fc79947dc6f8cf54f57a173e90',(#839,#840,#841,#842));
#844=ORIENTED_EDGE('',*,*,#752,.F.);
#845=ORIENTED_EDGE('',*,*,#758,.T.);
#846=ORIENTED_EDGE('',*,*,#768,.T.);
#847=ORIENTED_EDGE('',*,*,#764,.F.);
#848=EDGE_LOOP('OSCAD_TOPO/3|loop|l:1d44bd4f1b9e1580b644046f04f56f81|129f36e3ca8c3e9006596d5b906d94ed168f5e5d33e1ee1f3222b93f883e7e9a',(#844,#845,#846,#847));
#849=ORIENTED_EDGE('',*,*,#756,.T.);
#850=ORIENTED_EDGE('',*,*,#770,.T.);
#851=ORIENTED_EDGE('',*,*,#772,.F.);
#852=ORIENTED_EDGE('',*,*,#774,.F.);
#853=EDGE_LOOP('OSCAD_TOPO/3|loop|l:fe2a6e9f13c199c10c86699f98f26380|543db3c623309aea8896e4c8cc48aa9a7bd097ed6b226b729c53fe3d877a7973',(#849,#850,#851,#852));
#854=ORIENTED_EDGE('',*,*,#762,.T.);
#855=ORIENTED_EDGE('',*,*,#776,.T.);
#856=ORIENTED_EDGE('',*,*,#778,.F.);
#857=ORIENTED_EDGE('',*,*,#770,.F.);
#858=EDGE_LOOP('OSCAD_TOPO/3|loop|l:f19ff7f43e964ef5e9c42a545205e26a|46879f4daf310fba4bd7faea32c1459999e731cd8e0b40ebb387185fdc446e52',(#854,#855,#856,#857));
#859=ORIENTED_EDGE('',*,*,#766,.T.);
#860=ORIENTED_EDGE('',*,*,#780,.T.);
#861=ORIENTED_EDGE('',*,*,#782,.F.);
#862=ORIENTED_EDGE('',*,*,#776,.F.);
#863=EDGE_LOOP('OSCAD_TOPO/3|loop|l:6cb0ba7ca18989601295c6ee0a530eb1|13f69fc641dc3c4bbe28a503e99b8c8184fc53e8344900a0914ba89887226b44',(#859,#860,#861,#862));
#864=ORIENTED_EDGE('',*,*,#768,.F.);
#865=ORIENTED_EDGE('',*,*,#774,.T.);
#866=ORIENTED_EDGE('',*,*,#784,.T.);
#867=ORIENTED_EDGE('',*,*,#780,.F.);
#868=EDGE_LOOP('OSCAD_TOPO/3|loop|l:639945413aa7ea310ccee4e78057ee86|9d8c84523dfd34a6658e11bf40ae9a43d18f5634582d56a0e46c0548362da3a0',(#864,#865,#866,#867));
#869=ORIENTED_EDGE('',*,*,#772,.T.);
#870=ORIENTED_EDGE('',*,*,#786,.T.);
#871=ORIENTED_EDGE('',*,*,#788,.F.);
#872=ORIENTED_EDGE('',*,*,#790,.F.);
#873=EDGE_LOOP('OSCAD_TOPO/3|loop|l:d9c8b3c9d306fb5c28fd8623dfdac422|1090762685b698b2b8de0856fdc53f961fe460e9099cd42a1086163563b06bcc',(#869,#870,#871,#872));
#874=ORIENTED_EDGE('',*,*,#778,.T.);
#875=ORIENTED_EDGE('',*,*,#792,.T.);
#876=ORIENTED_EDGE('',*,*,#794,.F.);
#877=ORIENTED_EDGE('',*,*,#786,.F.);
#878=EDGE_LOOP('OSCAD_TOPO/3|loop|l:55aa88476305a22b6db27699c5d99248|1f5d0c9c6e8e413c79f2e62c06b0d96686d2946d6b50a131d5dee1bb266f72fc',(#874,#875,#876,#877));
#879=ORIENTED_EDGE('',*,*,#782,.T.);
#880=ORIENTED_EDGE('',*,*,#796,.T.);
#881=ORIENTED_EDGE('',*,*,#798,.F.);
#882=ORIENTED_EDGE('',*,*,#792,.F.);
#883=EDGE_LOOP('OSCAD_TOPO/3|loop|l:1aad71dda43c569d0d795d1fcf2757d2|c0972b3aa3b91aeead63db02cb156d922272909fbab1dffd531ffb02f259b112',(#879,#880,#881,#882));
#884=ORIENTED_EDGE('',*,*,#784,.F.);
#885=ORIENTED_EDGE('',*,*,#790,.T.);
#886=ORIENTED_EDGE('',*,*,#800,.T.);
#887=ORIENTED_EDGE('',*,*,#796,.F.);
#888=EDGE_LOOP('OSCAD_TOPO/3|loop|l:1b99f17ee25862bf8b753ce5cf9721ca|43ac3f0aeb8af247a77b77912d149bc0fe05bee9fbb3171cf34d49f1da5edb2b',(#884,#885,#886,#887));
#889=ORIENTED_EDGE('',*,*,#788,.T.);
#890=ORIENTED_EDGE('',*,*,#802,.F.);
#891=ORIENTED_EDGE('',*,*,#730,.F.);
#892=ORIENTED_EDGE('',*,*,#804,.T.);
#893=EDGE_LOOP('OSCAD_TOPO/3|loop|l:1ae06d10c70df9c8a8918602b528afe7|f5ff3dc87dfcb1eb528107be3dcddd6efe5722c556738a8b08196985c09280b2',(#889,#890,#891,#892));
#894=ORIENTED_EDGE('',*,*,#794,.T.);
#895=ORIENTED_EDGE('',*,*,#806,.F.);
#896=ORIENTED_EDGE('',*,*,#738,.F.);
#897=ORIENTED_EDGE('',*,*,#802,.T.);
#898=EDGE_LOOP('OSCAD_TOPO/3|loop|l:b4ed149ed633f05a1f8046f870764123|f4d03544a6a771f31d39c4aca6c657a5123c1a15cae216ea2c75a7ba6ccd5f9a',(#894,#895,#896,#897));
#899=ORIENTED_EDGE('',*,*,#798,.T.);
#900=ORIENTED_EDGE('',*,*,#808,.F.);
#901=ORIENTED_EDGE('',*,*,#744,.F.);
#902=ORIENTED_EDGE('',*,*,#806,.T.);
#903=EDGE_LOOP('OSCAD_TOPO/3|loop|l:404207ecb4361855c6a9380cee8fd804|27e5dd75257fffaf71f9d6e4108f12c30b174d333a77b84cabc9f99f0e0e0652',(#899,#900,#901,#902));
#904=ORIENTED_EDGE('',*,*,#800,.F.);
#905=ORIENTED_EDGE('',*,*,#804,.F.);
#906=ORIENTED_EDGE('',*,*,#750,.T.);
#907=ORIENTED_EDGE('',*,*,#808,.T.);
#908=EDGE_LOOP('OSCAD_TOPO/3|loop|l:d76c261541d9bc7bfa8c79b6ae4e7cf4|d9ce9a3291a2831fe76dd6dbf80e3cdb10cf8abbc6afd72c802adedd009f4568',(#904,#905,#906,#907));
#909=FACE_OUTER_BOUND('',#813,.T.);
#910=ADVANCED_FACE('OSCAD_TOPO/3|face|f:07058d0cac06daf9a304717bb1f26960|fa5611abfe17873fdd01020ef41ca80f673de245f9b8bcc09c391ccedb3c6a6b',(#909),#59,.T.);
#911=FACE_OUTER_BOUND('',#818,.T.);
#912=ADVANCED_FACE('OSCAD_TOPO/3|face|f:8aae9286bb735c49e2b5985fcbf9490e|8e3e3938b8701c9cd34ecbda3221feb5b0227282853613ca72693e5bbb0346d8',(#911),#59,.T.);
#913=FACE_OUTER_BOUND('',#823,.T.);
#914=ADVANCED_FACE('OSCAD_TOPO/3|face|f:019a3e84471619ab8d590ca1b826aea1|3414ae00bd3a6e3bad31d114e8a04dea71b30809bafb98fe0ef476c6076e901b',(#913),#59,.T.);
#915=FACE_OUTER_BOUND('',#828,.T.);
#916=ADVANCED_FACE('OSCAD_TOPO/3|face|f:4e1c7a464cdddffe8f0e409dd6575808|e2096ebef566c214133483297869de4abab0a8337e6c949af2113a8561c6a0bc',(#915),#59,.T.);
#917=FACE_OUTER_BOUND('',#833,.T.);
#918=ADVANCED_FACE('OSCAD_TOPO/3|face|f:8cc5fb5e6f03baf8dbbeca11d98117b8|67cd32c760096698f8d116ab3ac01d20ee44268ef64d71cac3bfda4418e8df8e',(#917),#66,.T.);
#919=FACE_OUTER_BOUND('',#838,.T.);
#920=ADVANCED_FACE('OSCAD_TOPO/3|face|f:eb1840b74043b5720726b03096021237|98d1d4f6b1f69650d5f65570b6a06c2084c8c950f178d76e29fbf3b032eccb02',(#919),#73,.T.);
#921=FACE_OUTER_BOUND('',#843,.T.);
#922=ADVANCED_FACE('OSCAD_TOPO/3|face|f:bac6778c07be6c87f5b7b4f8ee049812|9b4d64b524aa0c7634eaf2ef10d39a8fb21baea1bd41d79d22f709e68a94de04',(#921),#80,.T.);
#923=FACE_OUTER_BOUND('',#848,.T.);
#924=ADVANCED_FACE('OSCAD_TOPO/3|face|f:89caff83e003e5d241d8dca7b6a5f096|e18cbd9a16daff350112b27ac936e9c5e4e17b714e34014949a8ae20a8d916cc',(#923),#87,.T.);
#925=FACE_OUTER_BOUND('',#853,.T.);
#926=ADVANCED_FACE('OSCAD_TOPO/3|face|f:45868ee1fbdc100b1227b0924115032a|c6c66ed8d4a0f333fc626ab2ad3e3078453d3035ef4bd6fdd97f1c6f87557aad',(#925),#97,.T.);
#927=FACE_OUTER_BOUND('',#858,.T.);
#928=ADVANCED_FACE('OSCAD_TOPO/3|face|f:acc81950da1db5098b72fac939436aca|8df4a1274bb49bbc45bc6f84c7161bf9e32c55b046ae9348853467f793b7bc47',(#927),#107,.T.);
#929=FACE_OUTER_BOUND('',#863,.T.);
#930=ADVANCED_FACE('OSCAD_TOPO/3|face|f:073152c0ba6f14b6dd57af4fb614dd13|123514735d7b6d0286cffa67a2c58357a2939c35ab0bbebbce1759fd86fb1222',(#929),#117,.T.);
#931=FACE_OUTER_BOUND('',#868,.T.);
#932=ADVANCED_FACE('OSCAD_TOPO/3|face|f:1d5290bcc5f445d4931854b040b547ab|da9e31f6c053c7049b63f67006487b3c36f617fb0a0d6cca70f4d56b61bd6262',(#931),#127,.T.);
#933=FACE_OUTER_BOUND('',#873,.T.);
#934=ADVANCED_FACE('OSCAD_TOPO/3|face|f:7249ea79843c1abdf01bf3ef1f01818d|e230f193ccc3184aff4589266d94b3ee1883dbdeb2c5124f8f004b0c2da5d5a4',(#933),#134,.T.);
#935=FACE_OUTER_BOUND('',#878,.T.);
#936=ADVANCED_FACE('OSCAD_TOPO/3|face|f:dfb82944d64ce07f58d07955a43d324c|ed8674efd6698fbb5a9607eb5e7e0b368976c2fca4c929dc9dd4734cae64fd76',(#935),#141,.T.);
#937=FACE_OUTER_BOUND('',#883,.T.);
#938=ADVANCED_FACE('OSCAD_TOPO/3|face|f:6e51c3bcbe55393d8f95b12ba4700580|470526e158fd7383bfa8715a09289d3b9b88e7f87a8e2497dd3e5cb194c379bd',(#937),#148,.T.);
#939=FACE_OUTER_BOUND('',#888,.T.);
#940=ADVANCED_FACE('OSCAD_TOPO/3|face|f:85d6e7503889980133cca16ae881d4b3|a76e1431e2c1f64b07bffcd1b048d3caa27361ad18d41255cb9612334e4fdeff',(#939),#155,.T.);
#941=FACE_OUTER_BOUND('',#893,.T.);
#942=ADVANCED_FACE('OSCAD_TOPO/3|face|f:8d6b7bdb8f469e0380f12b6daf2b18e5|76747e1bbed50bf8973a81e527644d7917a90fd4c2f1270d10bb1d9669077199',(#941),#162,.T.);
#943=FACE_OUTER_BOUND('',#898,.T.);
#944=ADVANCED_FACE('OSCAD_TOPO/3|face|f:09a597f8cd84036bfc77b2d73a225bd8|f4641c69cacd9dcde9724324fd5de39273e4948ed83c8c3275fe3ca1d1ec91e0',(#943),#169,.T.);
#945=FACE_OUTER_BOUND('',#903,.T.);
#946=ADVANCED_FACE('OSCAD_TOPO/3|face|f:5c1134759a000d6a562b7dd6c08a1f24|6a7271f119f58a71d851c415af4729533d5e950a9a04c1e57bfa3ae84b6934dd',(#945),#176,.T.);
#947=FACE_OUTER_BOUND('',#908,.T.);
#948=ADVANCED_FACE('OSCAD_TOPO/3|face|f:c407e8afd0f9dc31ec5cfb01ae3924d6|9ca7d171239152f43bb69b4b0dff90b96adfdad9828840d0b629b1e8d55de816',(#947),#183,.T.);
#949=CLOSED_SHELL('OSCAD_TOPO/3|shell|s:579fc46f708102b9392d2a3d4fa939ff|dc5e10524251b1fda8a813bf2dd9c791a19f03e079ec62f1dbe6f7ec0fa9f85c',(#910,#912,#914,#916,#918,#920,#922,#924,#926,#928,#930,#932,#934,#936,#938,#940,#942,#944,#946,#948));
#950=MANIFOLD_SOLID_BREP('OSCAD_TOPO/3|body|b:a9fe0251c69610eb646ac606ca883e25|1b10ead18f18bc3df4e370184cd20b669b29576aa1c1731b5d8e01096538800f',#949);
#951=(LENGTH_UNIT()NAMED_UNIT(*)SI_UNIT(.MILLI.,.METRE.));
#952=UNCERTAINTY_MEASURE_WITH_UNIT(LENGTH_MEASURE(9.99999999999999955E-8),#951,'distance_accuracy_value','');
#953=(GEOMETRIC_REPRESENTATION_CONTEXT(3)GLOBAL_UNCERTAINTY_ASSIGNED_CONTEXT((#952))GLOBAL_UNIT_ASSIGNED_CONTEXT((#951))REPRESENTATION_CONTEXT('','3D'));
#954=ADVANCED_BREP_SHAPE_REPRESENTATION('',(#950),#953);
#955=APPLICATION_CONTEXT('managed model based 3d engineering');
#956=PRODUCT_CONTEXT('',#955,'mechanical');
#957=PRODUCT('model','model','',(#956));
#958=PRODUCT_DEFINITION_FORMATION('1','',#957);
#959=PRODUCT_DEFINITION_CONTEXT('part definition',#955,'design');
#960=PRODUCT_DEFINITION('design','',#958,#959);
#961=PRODUCT_DEFINITION_SHAPE('','',#960);
#962=SHAPE_DEFINITION_REPRESENTATION(#961,#954);
ENDSEC;
END-ISO-10303-21;
