ISO-10303-21;
HEADER;
FILE_DESCRIPTION(('OpenSCAD Viewer retained AP242 B-rep'),'2;1');
FILE_NAME('model.step','',(''),(''),'OpenSCAD Viewer','OpenSCAD Viewer','');
FILE_SCHEMA(('AP242_MANAGED_MODEL_BASED_3D_ENGINEERING_MIM_LF'));
ENDSEC;
DATA;
#1=CARTESIAN_POINT('',(2.87500000000000000E0,1.56250000000000069E-2,-1.25000000000000028E-1));
#2=VERTEX_POINT('OSCAD_TOPO/3|vertex|v:e153005b280227144c07136e46ae5227|ecaa2575e02569caff271dc36064674320cb7faa5bee967752d8907d13c1fc93',#1);
#3=CARTESIAN_POINT('',(2.87500000000000000E0,-1.56250000000000069E-2,1.25000000000000028E-1));
#4=VERTEX_POINT('OSCAD_TOPO/3|vertex|v:355a8d63a5ec33b4214e2aa359a2bf4c|211f961228dc4d193f4c679139b4af45c6320c5abed7473196eb0729dd60c01d',#3);
#5=CARTESIAN_POINT('',(3.12500000000000000E0,-1.56250000000000069E-2,1.25000000000000028E-1));
#6=VERTEX_POINT('OSCAD_TOPO/3|vertex|v:8f5ff3e362c6004aa83f2f7f739dc09e|9e6df359325bf310ebff646b8f9f9bdaf127c28e71870bb9e38421b0529eadab',#5);
#7=CARTESIAN_POINT('',(3.12500000000000000E0,1.56250000000000069E-2,-1.25000000000000028E-1));
#8=VERTEX_POINT('OSCAD_TOPO/3|vertex|v:59173338dff05c4e10dbd51242f31828|34689a4fb4540ed36e8b4e2879e1a6929927b5aaf9d035de68c6d6e51016ab66',#7);
#9=CARTESIAN_POINT('',(6.45778082559946176E-1,2.67504179475271897E0,-7.07670032651041558E-2));
#10=VERTEX_POINT('OSCAD_TOPO/3|vertex|v:3d489b3d94f58e952999265717ed9a22|533e597336c1e7c30f49beca2f16f0eaf1da769882a7d61837d101afc7090cdc',#9);
#11=CARTESIAN_POINT('',(6.29492757563310912E-1,2.67211518763991895E0,1.80634638854754115E-1));
#12=VERTEX_POINT('OSCAD_TOPO/3|vertex|v:cc8d863e8b4e115926009bb36bced54c|278c5e986429be0e34fcc404c2ef40a3ba3fdeda21f0b4cea75fb97df5785216',#11);
#13=CARTESIAN_POINT('',(7.46221917440053284E-1,2.89295820524728153E0,1.90767003265104151E-1));
#14=VERTEX_POINT('OSCAD_TOPO/3|vertex|v:fb6dbfbbe399459e8daa59594d82a18c|c94d360bff802c3430a423f136deeeb3baf716bc623bb92deaeb56f5691bf67d',#13);
#15=CARTESIAN_POINT('',(7.62507242436688548E-1,2.89588481236008155E0,-6.06346388547541401E-2));
#16=VERTEX_POINT('OSCAD_TOPO/3|vertex|v:7468b456bae290d14786a1fb385db7cb|fa542477ae8d8e1695f9e14daae7174ee36e19f08e02153f3d7004b210ba6e42',#15);
#17=CARTESIAN_POINT('',(-2.13426037447579020E0,1.40277486510614557E0,-2.11151898910877933E-1));
#18=VERTEX_POINT('OSCAD_TOPO/3|vertex|v:7d23331b6b1342f880ba75f3f9d824a3|9e49aaf94391eb6a3f309b4a1d1a721fa5d7bd6ae45a1779572079b252d4996f',#17);
#19=CARTESIAN_POINT('',(-2.13916003871065685E0,1.41169995414889970E0,4.05878448245213796E-2));
#20=VERTEX_POINT('OSCAD_TOPO/3|vertex|v:30d0dfbcbe24fc46fc58346f308d354d|074bc3821f0e1473200ed03a806ffa81b56410feb03360b02fa2f9fb49364d6b',#19);
#21=CARTESIAN_POINT('',(-2.32973962552421021E0,1.57322513489385352E0,3.11518989108779537E-2));
#22=VERTEX_POINT('OSCAD_TOPO/3|vertex|v:d4f388298373c0b4c112249f8c4f93e5|55b64e422edd65fb57a760fb682cd8b359bb586a65894e1e6667fd5a507587d1',#21);
#23=CARTESIAN_POINT('',(-2.32483996128934356E0,1.56430004585109939E0,-2.20587844824521373E-1));
#24=VERTEX_POINT('OSCAD_TOPO/3|vertex|v:a07547866e40ad27d96c6961da3d6d97|b7ed5c4efa1cdb407a3b25a47759885367df57ddefc3d9c1f07802b6c74aeb4e',#23);
#25=CARTESIAN_POINT('',(-2.13916003871065641E0,-1.41169995414889993E0,-4.05878448245213241E-2));
#26=VERTEX_POINT('OSCAD_TOPO/3|vertex|v:231863852a8213edda693978e43c6aca|471da8e9a23124fc9961ad5da0891de36c5a488a7043c80339bf0f266f6c37b3',#25);
#27=CARTESIAN_POINT('',(-2.13426037447579020E0,-1.40277486510614580E0,2.11151898910877933E-1));
#28=VERTEX_POINT('OSCAD_TOPO/3|vertex|v:8687e3266f3636e4e4af4913b1561979|7b804757fbffd4906c4f90e9bb4387cf752d1a51cb60fe352275c70f67995b9c',#27);
#29=CARTESIAN_POINT('',(-2.32483996128934400E0,-1.56430004585109961E0,2.20587844824521317E-1));
#30=VERTEX_POINT('OSCAD_TOPO/3|vertex|v:5fe47f5c956837cefb04277f72663325|bec8125065bab63a7058d7775bc14506aaeccb38524c42d0230be3f9f92e65cf',#29);
#31=CARTESIAN_POINT('',(-2.32973962552421021E0,-1.57322513489385374E0,-3.11518989108779260E-2));
#32=VERTEX_POINT('OSCAD_TOPO/3|vertex|v:d243cc9b0418fbc3ec87040068c73b36|cabad3c390559a7fa0d293811dc704a01c09043843c3030558e255b84987e94c',#31);
#33=CARTESIAN_POINT('',(6.29492757563311800E-1,-2.67211518763991851E0,-1.80634638854754170E-1));
#34=VERTEX_POINT('OSCAD_TOPO/3|vertex|v:0f93d0d91054904eba35dc97184d616e|23f31d7efa8cd53c53f105447bd7097d603ca197369050625c69acb1f8000f12',#33);
#35=CARTESIAN_POINT('',(6.45778082559947064E-1,-2.67504179475271853E0,7.07670032651041420E-2));
#36=VERTEX_POINT('OSCAD_TOPO/3|vertex|v:f2393d29c5ecc54c0fe23671b99ca63e|8e4c7f93d4599505d373305be8c2a2841af6496072c59874bbc42b2024d83d5a',#35);
#37=CARTESIAN_POINT('',(7.62507242436689436E-1,-2.89588481236008111E0,6.06346388547541054E-2));
#38=VERTEX_POINT('OSCAD_TOPO/3|vertex|v:f9e76feab90dc711e0d62b17f33a755c|8d14b754d1739e5f4b648120eeb796d54ce6ed85d13f994c1d52f783b9ba835c',#37);
#39=CARTESIAN_POINT('',(7.46221917440054172E-1,-2.89295820524728109E0,-1.90767003265104207E-1));
#40=VERTEX_POINT('OSCAD_TOPO/3|vertex|v:a6fecc8e2f73805916f9ede5503b042e|3b8c85719034d503f5d849dc26a7ea9621b33a9b732c71bbaeeddbccab4e8e9c',#39);
#41=CARTESIAN_POINT('',(2.87500000000000000E0,1.56250000000000069E-2,-1.25000000000000028E-1));
#42=CARTESIAN_POINT('',(6.45778082559946176E-1,2.67504179475271897E0,-7.07670032651041558E-2));
#43=CARTESIAN_POINT('',(2.87500000000000000E0,-1.56250000000000069E-2,1.25000000000000028E-1));
#44=CARTESIAN_POINT('',(6.29492757563310912E-1,2.67211518763991895E0,1.80634638854754115E-1));
#45=B_SPLINE_SURFACE_WITH_KNOTS('',1,1,((#41,#42),(#43,#44)),.UNSPECIFIED.,.F.,.F.,.F.,(2,2),(2,2),(0.00000000000000000E0,1.00000000000000000E0),(0.00000000000000000E0,1.00000000000000000E0),.UNSPECIFIED.);
#46=CARTESIAN_POINT('',(2.87500000000000000E0,-1.56250000000000069E-2,1.25000000000000028E-1));
#47=CARTESIAN_POINT('',(6.29492757563310912E-1,2.67211518763991895E0,1.80634638854754115E-1));
#48=CARTESIAN_POINT('',(3.12500000000000000E0,-1.56250000000000069E-2,1.25000000000000028E-1));
#49=CARTESIAN_POINT('',(7.46221917440053284E-1,2.89295820524728153E0,1.90767003265104151E-1));
#50=B_SPLINE_SURFACE_WITH_KNOTS('',1,1,((#46,#47),(#48,#49)),.UNSPECIFIED.,.F.,.F.,.F.,(2,2),(2,2),(0.00000000000000000E0,1.00000000000000000E0),(0.00000000000000000E0,1.00000000000000000E0),.UNSPECIFIED.);
#51=CARTESIAN_POINT('',(3.12500000000000000E0,-1.56250000000000069E-2,1.25000000000000028E-1));
#52=CARTESIAN_POINT('',(7.46221917440053284E-1,2.89295820524728153E0,1.90767003265104151E-1));
#53=CARTESIAN_POINT('',(3.12500000000000000E0,1.56250000000000069E-2,-1.25000000000000028E-1));
#54=CARTESIAN_POINT('',(7.62507242436688548E-1,2.89588481236008155E0,-6.06346388547541401E-2));
#55=B_SPLINE_SURFACE_WITH_KNOTS('',1,1,((#51,#52),(#53,#54)),.UNSPECIFIED.,.F.,.F.,.F.,(2,2),(2,2),(0.00000000000000000E0,1.00000000000000000E0),(0.00000000000000000E0,1.00000000000000000E0),.UNSPECIFIED.);
#56=CARTESIAN_POINT('',(3.12500000000000000E0,1.56250000000000069E-2,-1.25000000000000028E-1));
#57=CARTESIAN_POINT('',(7.62507242436688548E-1,2.89588481236008155E0,-6.06346388547541401E-2));
#58=CARTESIAN_POINT('',(2.87500000000000000E0,1.56250000000000069E-2,-1.25000000000000028E-1));
#59=CARTESIAN_POINT('',(6.45778082559946176E-1,2.67504179475271897E0,-7.07670032651041558E-2));
#60=B_SPLINE_SURFACE_WITH_KNOTS('',1,1,((#56,#57),(#58,#59)),.UNSPECIFIED.,.F.,.F.,.F.,(2,2),(2,2),(0.00000000000000000E0,1.00000000000000000E0),(0.00000000000000000E0,1.00000000000000000E0),.UNSPECIFIED.);
#61=CARTESIAN_POINT('',(6.45778082559946176E-1,2.67504179475271897E0,-7.07670032651041558E-2));
#62=CARTESIAN_POINT('',(-2.13426037447579020E0,1.40277486510614557E0,-2.11151898910877933E-1));
#63=CARTESIAN_POINT('',(6.29492757563310912E-1,2.67211518763991895E0,1.80634638854754115E-1));
#64=CARTESIAN_POINT('',(-2.13916003871065685E0,1.41169995414889970E0,4.05878448245213796E-2));
#65=B_SPLINE_SURFACE_WITH_KNOTS('',1,1,((#61,#62),(#63,#64)),.UNSPECIFIED.,.F.,.F.,.F.,(2,2),(2,2),(0.00000000000000000E0,1.00000000000000000E0),(0.00000000000000000E0,1.00000000000000000E0),.UNSPECIFIED.);
#66=CARTESIAN_POINT('',(6.29492757563310912E-1,2.67211518763991895E0,1.80634638854754115E-1));
#67=CARTESIAN_POINT('',(-2.13916003871065685E0,1.41169995414889970E0,4.05878448245213796E-2));
#68=CARTESIAN_POINT('',(7.46221917440053284E-1,2.89295820524728153E0,1.90767003265104151E-1));
#69=CARTESIAN_POINT('',(-2.32973962552421021E0,1.57322513489385352E0,3.11518989108779537E-2));
#70=B_SPLINE_SURFACE_WITH_KNOTS('',1,1,((#66,#67),(#68,#69)),.UNSPECIFIED.,.F.,.F.,.F.,(2,2),(2,2),(0.00000000000000000E0,1.00000000000000000E0),(0.00000000000000000E0,1.00000000000000000E0),.UNSPECIFIED.);
#71=CARTESIAN_POINT('',(7.46221917440053284E-1,2.89295820524728153E0,1.90767003265104151E-1));
#72=CARTESIAN_POINT('',(-2.32973962552421021E0,1.57322513489385352E0,3.11518989108779537E-2));
#73=CARTESIAN_POINT('',(7.62507242436688548E-1,2.89588481236008155E0,-6.06346388547541401E-2));
#74=CARTESIAN_POINT('',(-2.32483996128934356E0,1.56430004585109939E0,-2.20587844824521373E-1));
#75=B_SPLINE_SURFACE_WITH_KNOTS('',1,1,((#71,#72),(#73,#74)),.UNSPECIFIED.,.F.,.F.,.F.,(2,2),(2,2),(0.00000000000000000E0,1.00000000000000000E0),(0.00000000000000000E0,1.00000000000000000E0),.UNSPECIFIED.);
#76=CARTESIAN_POINT('',(7.62507242436688548E-1,2.89588481236008155E0,-6.06346388547541401E-2));
#77=CARTESIAN_POINT('',(-2.32483996128934356E0,1.56430004585109939E0,-2.20587844824521373E-1));
#78=CARTESIAN_POINT('',(6.45778082559946176E-1,2.67504179475271897E0,-7.07670032651041558E-2));
#79=CARTESIAN_POINT('',(-2.13426037447579020E0,1.40277486510614557E0,-2.11151898910877933E-1));
#80=B_SPLINE_SURFACE_WITH_KNOTS('',1,1,((#76,#77),(#78,#79)),.UNSPECIFIED.,.F.,.F.,.F.,(2,2),(2,2),(0.00000000000000000E0,1.00000000000000000E0),(0.00000000000000000E0,1.00000000000000000E0),.UNSPECIFIED.);
#81=CARTESIAN_POINT('',(-2.13426037447579020E0,1.40277486510614557E0,-2.11151898910877933E-1));
#82=CARTESIAN_POINT('',(-2.13916003871065641E0,-1.41169995414889993E0,-4.05878448245213241E-2));
#83=CARTESIAN_POINT('',(-2.13916003871065685E0,1.41169995414889970E0,4.05878448245213796E-2));
#84=CARTESIAN_POINT('',(-2.13426037447579020E0,-1.40277486510614580E0,2.11151898910877933E-1));
#85=B_SPLINE_SURFACE_WITH_KNOTS('',1,1,((#81,#82),(#83,#84)),.UNSPECIFIED.,.F.,.F.,.F.,(2,2),(2,2),(0.00000000000000000E0,1.00000000000000000E0),(0.00000000000000000E0,1.00000000000000000E0),.UNSPECIFIED.);
#86=CARTESIAN_POINT('',(-2.13916003871065685E0,1.41169995414889970E0,4.05878448245213796E-2));
#87=CARTESIAN_POINT('',(-2.13426037447579020E0,-1.40277486510614580E0,2.11151898910877933E-1));
#88=CARTESIAN_POINT('',(-2.32973962552421021E0,1.57322513489385352E0,3.11518989108779537E-2));
#89=CARTESIAN_POINT('',(-2.32483996128934400E0,-1.56430004585109961E0,2.20587844824521317E-1));
#90=B_SPLINE_SURFACE_WITH_KNOTS('',1,1,((#86,#87),(#88,#89)),.UNSPECIFIED.,.F.,.F.,.F.,(2,2),(2,2),(0.00000000000000000E0,1.00000000000000000E0),(0.00000000000000000E0,1.00000000000000000E0),.UNSPECIFIED.);
#91=CARTESIAN_POINT('',(-2.32973962552421021E0,1.57322513489385352E0,3.11518989108779537E-2));
#92=CARTESIAN_POINT('',(-2.32483996128934400E0,-1.56430004585109961E0,2.20587844824521317E-1));
#93=CARTESIAN_POINT('',(-2.32483996128934356E0,1.56430004585109939E0,-2.20587844824521373E-1));
#94=CARTESIAN_POINT('',(-2.32973962552421021E0,-1.57322513489385374E0,-3.11518989108779260E-2));
#95=B_SPLINE_SURFACE_WITH_KNOTS('',1,1,((#91,#92),(#93,#94)),.UNSPECIFIED.,.F.,.F.,.F.,(2,2),(2,2),(0.00000000000000000E0,1.00000000000000000E0),(0.00000000000000000E0,1.00000000000000000E0),.UNSPECIFIED.);
#96=CARTESIAN_POINT('',(-2.32483996128934356E0,1.56430004585109939E0,-2.20587844824521373E-1));
#97=CARTESIAN_POINT('',(-2.32973962552421021E0,-1.57322513489385374E0,-3.11518989108779260E-2));
#98=CARTESIAN_POINT('',(-2.13426037447579020E0,1.40277486510614557E0,-2.11151898910877933E-1));
#99=CARTESIAN_POINT('',(-2.13916003871065641E0,-1.41169995414889993E0,-4.05878448245213241E-2));
#100=B_SPLINE_SURFACE_WITH_KNOTS('',1,1,((#96,#97),(#98,#99)),.UNSPECIFIED.,.F.,.F.,.F.,(2,2),(2,2),(0.00000000000000000E0,1.00000000000000000E0),(0.00000000000000000E0,1.00000000000000000E0),.UNSPECIFIED.);
#101=CARTESIAN_POINT('',(-2.13916003871065641E0,-1.41169995414889993E0,-4.05878448245213241E-2));
#102=CARTESIAN_POINT('',(6.29492757563311800E-1,-2.67211518763991851E0,-1.80634638854754170E-1));
#103=CARTESIAN_POINT('',(-2.13426037447579020E0,-1.40277486510614580E0,2.11151898910877933E-1));
#104=CARTESIAN_POINT('',(6.45778082559947064E-1,-2.67504179475271853E0,7.07670032651041420E-2));
#105=B_SPLINE_SURFACE_WITH_KNOTS('',1,1,((#101,#102),(#103,#104)),.UNSPECIFIED.,.F.,.F.,.F.,(2,2),(2,2),(0.00000000000000000E0,1.00000000000000000E0),(0.00000000000000000E0,1.00000000000000000E0),.UNSPECIFIED.);
#106=CARTESIAN_POINT('',(-2.13426037447579020E0,-1.40277486510614580E0,2.11151898910877933E-1));
#107=CARTESIAN_POINT('',(6.45778082559947064E-1,-2.67504179475271853E0,7.07670032651041420E-2));
#108=CARTESIAN_POINT('',(-2.32483996128934400E0,-1.56430004585109961E0,2.20587844824521317E-1));
#109=CARTESIAN_POINT('',(7.62507242436689436E-1,-2.89588481236008111E0,6.06346388547541054E-2));
#110=B_SPLINE_SURFACE_WITH_KNOTS('',1,1,((#106,#107),(#108,#109)),.UNSPECIFIED.,.F.,.F.,.F.,(2,2),(2,2),(0.00000000000000000E0,1.00000000000000000E0),(0.00000000000000000E0,1.00000000000000000E0),.UNSPECIFIED.);
#111=CARTESIAN_POINT('',(-2.32483996128934400E0,-1.56430004585109961E0,2.20587844824521317E-1));
#112=CARTESIAN_POINT('',(7.62507242436689436E-1,-2.89588481236008111E0,6.06346388547541054E-2));
#113=CARTESIAN_POINT('',(-2.32973962552421021E0,-1.57322513489385374E0,-3.11518989108779260E-2));
#114=CARTESIAN_POINT('',(7.46221917440054172E-1,-2.89295820524728109E0,-1.90767003265104207E-1));
#115=B_SPLINE_SURFACE_WITH_KNOTS('',1,1,((#111,#112),(#113,#114)),.UNSPECIFIED.,.F.,.F.,.F.,(2,2),(2,2),(0.00000000000000000E0,1.00000000000000000E0),(0.00000000000000000E0,1.00000000000000000E0),.UNSPECIFIED.);
#116=CARTESIAN_POINT('',(-2.32973962552421021E0,-1.57322513489385374E0,-3.11518989108779260E-2));
#117=CARTESIAN_POINT('',(7.46221917440054172E-1,-2.89295820524728109E0,-1.90767003265104207E-1));
#118=CARTESIAN_POINT('',(-2.13916003871065641E0,-1.41169995414889993E0,-4.05878448245213241E-2));
#119=CARTESIAN_POINT('',(6.29492757563311800E-1,-2.67211518763991851E0,-1.80634638854754170E-1));
#120=B_SPLINE_SURFACE_WITH_KNOTS('',1,1,((#116,#117),(#118,#119)),.UNSPECIFIED.,.F.,.F.,.F.,(2,2),(2,2),(0.00000000000000000E0,1.00000000000000000E0),(0.00000000000000000E0,1.00000000000000000E0),.UNSPECIFIED.);
#121=CARTESIAN_POINT('',(6.29492757563311800E-1,-2.67211518763991851E0,-1.80634638854754170E-1));
#122=CARTESIAN_POINT('',(2.87500000000000000E0,1.56250000000000069E-2,-1.25000000000000028E-1));
#123=CARTESIAN_POINT('',(6.45778082559947064E-1,-2.67504179475271853E0,7.07670032651041420E-2));
#124=CARTESIAN_POINT('',(2.87500000000000000E0,-1.56250000000000069E-2,1.25000000000000028E-1));
#125=B_SPLINE_SURFACE_WITH_KNOTS('',1,1,((#121,#122),(#123,#124)),.UNSPECIFIED.,.F.,.F.,.F.,(2,2),(2,2),(0.00000000000000000E0,1.00000000000000000E0),(0.00000000000000000E0,1.00000000000000000E0),.UNSPECIFIED.);
#126=CARTESIAN_POINT('',(6.45778082559947064E-1,-2.67504179475271853E0,7.07670032651041420E-2));
#127=CARTESIAN_POINT('',(2.87500000000000000E0,-1.56250000000000069E-2,1.25000000000000028E-1));
#128=CARTESIAN_POINT('',(7.62507242436689436E-1,-2.89588481236008111E0,6.06346388547541054E-2));
#129=CARTESIAN_POINT('',(3.12500000000000000E0,-1.56250000000000069E-2,1.25000000000000028E-1));
#130=B_SPLINE_SURFACE_WITH_KNOTS('',1,1,((#126,#127),(#128,#129)),.UNSPECIFIED.,.F.,.F.,.F.,(2,2),(2,2),(0.00000000000000000E0,1.00000000000000000E0),(0.00000000000000000E0,1.00000000000000000E0),.UNSPECIFIED.);
#131=CARTESIAN_POINT('',(7.62507242436689436E-1,-2.89588481236008111E0,6.06346388547541054E-2));
#132=CARTESIAN_POINT('',(3.12500000000000000E0,-1.56250000000000069E-2,1.25000000000000028E-1));
#133=CARTESIAN_POINT('',(7.46221917440054172E-1,-2.89295820524728109E0,-1.90767003265104207E-1));
#134=CARTESIAN_POINT('',(3.12500000000000000E0,1.56250000000000069E-2,-1.25000000000000028E-1));
#135=B_SPLINE_SURFACE_WITH_KNOTS('',1,1,((#131,#132),(#133,#134)),.UNSPECIFIED.,.F.,.F.,.F.,(2,2),(2,2),(0.00000000000000000E0,1.00000000000000000E0),(0.00000000000000000E0,1.00000000000000000E0),.UNSPECIFIED.);
#136=CARTESIAN_POINT('',(7.46221917440054172E-1,-2.89295820524728109E0,-1.90767003265104207E-1));
#137=CARTESIAN_POINT('',(3.12500000000000000E0,1.56250000000000069E-2,-1.25000000000000028E-1));
#138=CARTESIAN_POINT('',(6.29492757563311800E-1,-2.67211518763991851E0,-1.80634638854754170E-1));
#139=CARTESIAN_POINT('',(2.87500000000000000E0,1.56250000000000069E-2,-1.25000000000000028E-1));
#140=B_SPLINE_SURFACE_WITH_KNOTS('',1,1,((#136,#137),(#138,#139)),.UNSPECIFIED.,.F.,.F.,.F.,(2,2),(2,2),(0.00000000000000000E0,1.00000000000000000E0),(0.00000000000000000E0,1.00000000000000000E0),.UNSPECIFIED.);
#141=CARTESIAN_POINT('',(2.87500000000000000E0,1.56250000000000069E-2,-1.25000000000000028E-1));
#142=CARTESIAN_POINT('',(2.87500000000000000E0,-1.56250000000000069E-2,1.25000000000000028E-1));
#143=B_SPLINE_CURVE_WITH_KNOTS('',1,(#141,#142),.UNSPECIFIED.,.F.,.F.,(2,2),(0.00000000000000000E0,1.00000000000000000E0),.UNSPECIFIED.);
#144=CARTESIAN_POINT('',(2.87500000000000000E0,-1.56250000000000069E-2,1.25000000000000028E-1));
#145=CARTESIAN_POINT('',(6.29492757563310912E-1,2.67211518763991895E0,1.80634638854754115E-1));
#146=B_SPLINE_CURVE_WITH_KNOTS('',1,(#144,#145),.UNSPECIFIED.,.F.,.F.,(2,2),(0.00000000000000000E0,1.00000000000000000E0),.UNSPECIFIED.);
#147=CARTESIAN_POINT('',(6.45778082559946176E-1,2.67504179475271897E0,-7.07670032651041558E-2));
#148=CARTESIAN_POINT('',(6.29492757563310912E-1,2.67211518763991895E0,1.80634638854754115E-1));
#149=B_SPLINE_CURVE_WITH_KNOTS('',1,(#147,#148),.UNSPECIFIED.,.F.,.F.,(2,2),(0.00000000000000000E0,1.00000000000000000E0),.UNSPECIFIED.);
#150=CARTESIAN_POINT('',(2.87500000000000000E0,1.56250000000000069E-2,-1.25000000000000028E-1));
#151=CARTESIAN_POINT('',(6.45778082559946176E-1,2.67504179475271897E0,-7.07670032651041558E-2));
#152=B_SPLINE_CURVE_WITH_KNOTS('',1,(#150,#151),.UNSPECIFIED.,.F.,.F.,(2,2),(0.00000000000000000E0,1.00000000000000000E0),.UNSPECIFIED.);
#153=CARTESIAN_POINT('',(2.87500000000000000E0,-1.56250000000000069E-2,1.25000000000000028E-1));
#154=CARTESIAN_POINT('',(3.12500000000000000E0,-1.56250000000000069E-2,1.25000000000000028E-1));
#155=B_SPLINE_CURVE_WITH_KNOTS('',1,(#153,#154),.UNSPECIFIED.,.F.,.F.,(2,2),(0.00000000000000000E0,1.00000000000000000E0),.UNSPECIFIED.);
#156=CARTESIAN_POINT('',(3.12500000000000000E0,-1.56250000000000069E-2,1.25000000000000028E-1));
#157=CARTESIAN_POINT('',(7.46221917440053284E-1,2.89295820524728153E0,1.90767003265104151E-1));
#158=B_SPLINE_CURVE_WITH_KNOTS('',1,(#156,#157),.UNSPECIFIED.,.F.,.F.,(2,2),(0.00000000000000000E0,1.00000000000000000E0),.UNSPECIFIED.);
#159=CARTESIAN_POINT('',(6.29492757563310912E-1,2.67211518763991895E0,1.80634638854754115E-1));
#160=CARTESIAN_POINT('',(7.46221917440053284E-1,2.89295820524728153E0,1.90767003265104151E-1));
#161=B_SPLINE_CURVE_WITH_KNOTS('',1,(#159,#160),.UNSPECIFIED.,.F.,.F.,(2,2),(0.00000000000000000E0,1.00000000000000000E0),.UNSPECIFIED.);
#162=CARTESIAN_POINT('',(3.12500000000000000E0,-1.56250000000000069E-2,1.25000000000000028E-1));
#163=CARTESIAN_POINT('',(3.12500000000000000E0,1.56250000000000069E-2,-1.25000000000000028E-1));
#164=B_SPLINE_CURVE_WITH_KNOTS('',1,(#162,#163),.UNSPECIFIED.,.F.,.F.,(2,2),(0.00000000000000000E0,1.00000000000000000E0),.UNSPECIFIED.);
#165=CARTESIAN_POINT('',(3.12500000000000000E0,1.56250000000000069E-2,-1.25000000000000028E-1));
#166=CARTESIAN_POINT('',(7.62507242436688548E-1,2.89588481236008155E0,-6.06346388547541401E-2));
#167=B_SPLINE_CURVE_WITH_KNOTS('',1,(#165,#166),.UNSPECIFIED.,.F.,.F.,(2,2),(0.00000000000000000E0,1.00000000000000000E0),.UNSPECIFIED.);
#168=CARTESIAN_POINT('',(7.46221917440053284E-1,2.89295820524728153E0,1.90767003265104151E-1));
#169=CARTESIAN_POINT('',(7.62507242436688548E-1,2.89588481236008155E0,-6.06346388547541401E-2));
#170=B_SPLINE_CURVE_WITH_KNOTS('',1,(#168,#169),.UNSPECIFIED.,.F.,.F.,(2,2),(0.00000000000000000E0,1.00000000000000000E0),.UNSPECIFIED.);
#171=CARTESIAN_POINT('',(2.87500000000000000E0,1.56250000000000069E-2,-1.25000000000000028E-1));
#172=CARTESIAN_POINT('',(3.12500000000000000E0,1.56250000000000069E-2,-1.25000000000000028E-1));
#173=B_SPLINE_CURVE_WITH_KNOTS('',1,(#171,#172),.UNSPECIFIED.,.F.,.F.,(2,2),(0.00000000000000000E0,1.00000000000000000E0),.UNSPECIFIED.);
#174=CARTESIAN_POINT('',(6.45778082559946176E-1,2.67504179475271897E0,-7.07670032651041558E-2));
#175=CARTESIAN_POINT('',(7.62507242436688548E-1,2.89588481236008155E0,-6.06346388547541401E-2));
#176=B_SPLINE_CURVE_WITH_KNOTS('',1,(#174,#175),.UNSPECIFIED.,.F.,.F.,(2,2),(0.00000000000000000E0,1.00000000000000000E0),.UNSPECIFIED.);
#177=CARTESIAN_POINT('',(6.29492757563310912E-1,2.67211518763991895E0,1.80634638854754115E-1));
#178=CARTESIAN_POINT('',(-2.13916003871065685E0,1.41169995414889970E0,4.05878448245213796E-2));
#179=B_SPLINE_CURVE_WITH_KNOTS('',1,(#177,#178),.UNSPECIFIED.,.F.,.F.,(2,2),(0.00000000000000000E0,1.00000000000000000E0),.UNSPECIFIED.);
#180=CARTESIAN_POINT('',(-2.13426037447579020E0,1.40277486510614557E0,-2.11151898910877933E-1));
#181=CARTESIAN_POINT('',(-2.13916003871065685E0,1.41169995414889970E0,4.05878448245213796E-2));
#182=B_SPLINE_CURVE_WITH_KNOTS('',1,(#180,#181),.UNSPECIFIED.,.F.,.F.,(2,2),(0.00000000000000000E0,1.00000000000000000E0),.UNSPECIFIED.);
#183=CARTESIAN_POINT('',(6.45778082559946176E-1,2.67504179475271897E0,-7.07670032651041558E-2));
#184=CARTESIAN_POINT('',(-2.13426037447579020E0,1.40277486510614557E0,-2.11151898910877933E-1));
#185=B_SPLINE_CURVE_WITH_KNOTS('',1,(#183,#184),.UNSPECIFIED.,.F.,.F.,(2,2),(0.00000000000000000E0,1.00000000000000000E0),.UNSPECIFIED.);
#186=CARTESIAN_POINT('',(7.46221917440053284E-1,2.89295820524728153E0,1.90767003265104151E-1));
#187=CARTESIAN_POINT('',(-2.32973962552421021E0,1.57322513489385352E0,3.11518989108779537E-2));
#188=B_SPLINE_CURVE_WITH_KNOTS('',1,(#186,#187),.UNSPECIFIED.,.F.,.F.,(2,2),(0.00000000000000000E0,1.00000000000000000E0),.UNSPECIFIED.);
#189=CARTESIAN_POINT('',(-2.13916003871065685E0,1.41169995414889970E0,4.05878448245213796E-2));
#190=CARTESIAN_POINT('',(-2.32973962552421021E0,1.57322513489385352E0,3.11518989108779537E-2));
#191=B_SPLINE_CURVE_WITH_KNOTS('',1,(#189,#190),.UNSPECIFIED.,.F.,.F.,(2,2),(0.00000000000000000E0,1.00000000000000000E0),.UNSPECIFIED.);
#192=CARTESIAN_POINT('',(7.62507242436688548E-1,2.89588481236008155E0,-6.06346388547541401E-2));
#193=CARTESIAN_POINT('',(-2.32483996128934356E0,1.56430004585109939E0,-2.20587844824521373E-1));
#194=B_SPLINE_CURVE_WITH_KNOTS('',1,(#192,#193),.UNSPECIFIED.,.F.,.F.,(2,2),(0.00000000000000000E0,1.00000000000000000E0),.UNSPECIFIED.);
#195=CARTESIAN_POINT('',(-2.32973962552421021E0,1.57322513489385352E0,3.11518989108779537E-2));
#196=CARTESIAN_POINT('',(-2.32483996128934356E0,1.56430004585109939E0,-2.20587844824521373E-1));
#197=B_SPLINE_CURVE_WITH_KNOTS('',1,(#195,#196),.UNSPECIFIED.,.F.,.F.,(2,2),(0.00000000000000000E0,1.00000000000000000E0),.UNSPECIFIED.);
#198=CARTESIAN_POINT('',(-2.13426037447579020E0,1.40277486510614557E0,-2.11151898910877933E-1));
#199=CARTESIAN_POINT('',(-2.32483996128934356E0,1.56430004585109939E0,-2.20587844824521373E-1));
#200=B_SPLINE_CURVE_WITH_KNOTS('',1,(#198,#199),.UNSPECIFIED.,.F.,.F.,(2,2),(0.00000000000000000E0,1.00000000000000000E0),.UNSPECIFIED.);
#201=CARTESIAN_POINT('',(-2.13916003871065685E0,1.41169995414889970E0,4.05878448245213796E-2));
#202=CARTESIAN_POINT('',(-2.13426037447579020E0,-1.40277486510614580E0,2.11151898910877933E-1));
#203=B_SPLINE_CURVE_WITH_KNOTS('',1,(#201,#202),.UNSPECIFIED.,.F.,.F.,(2,2),(0.00000000000000000E0,1.00000000000000000E0),.UNSPECIFIED.);
#204=CARTESIAN_POINT('',(-2.13916003871065641E0,-1.41169995414889993E0,-4.05878448245213241E-2));
#205=CARTESIAN_POINT('',(-2.13426037447579020E0,-1.40277486510614580E0,2.11151898910877933E-1));
#206=B_SPLINE_CURVE_WITH_KNOTS('',1,(#204,#205),.UNSPECIFIED.,.F.,.F.,(2,2),(0.00000000000000000E0,1.00000000000000000E0),.UNSPECIFIED.);
#207=CARTESIAN_POINT('',(-2.13426037447579020E0,1.40277486510614557E0,-2.11151898910877933E-1));
#208=CARTESIAN_POINT('',(-2.13916003871065641E0,-1.41169995414889993E0,-4.05878448245213241E-2));
#209=B_SPLINE_CURVE_WITH_KNOTS('',1,(#207,#208),.UNSPECIFIED.,.F.,.F.,(2,2),(0.00000000000000000E0,1.00000000000000000E0),.UNSPECIFIED.);
#210=CARTESIAN_POINT('',(-2.32973962552421021E0,1.57322513489385352E0,3.11518989108779537E-2));
#211=CARTESIAN_POINT('',(-2.32483996128934400E0,-1.56430004585109961E0,2.20587844824521317E-1));
#212=B_SPLINE_CURVE_WITH_KNOTS('',1,(#210,#211),.UNSPECIFIED.,.F.,.F.,(2,2),(0.00000000000000000E0,1.00000000000000000E0),.UNSPECIFIED.);
#213=CARTESIAN_POINT('',(-2.13426037447579020E0,-1.40277486510614580E0,2.11151898910877933E-1));
#214=CARTESIAN_POINT('',(-2.32483996128934400E0,-1.56430004585109961E0,2.20587844824521317E-1));
#215=B_SPLINE_CURVE_WITH_KNOTS('',1,(#213,#214),.UNSPECIFIED.,.F.,.F.,(2,2),(0.00000000000000000E0,1.00000000000000000E0),.UNSPECIFIED.);
#216=CARTESIAN_POINT('',(-2.32483996128934356E0,1.56430004585109939E0,-2.20587844824521373E-1));
#217=CARTESIAN_POINT('',(-2.32973962552421021E0,-1.57322513489385374E0,-3.11518989108779260E-2));
#218=B_SPLINE_CURVE_WITH_KNOTS('',1,(#216,#217),.UNSPECIFIED.,.F.,.F.,(2,2),(0.00000000000000000E0,1.00000000000000000E0),.UNSPECIFIED.);
#219=CARTESIAN_POINT('',(-2.32483996128934400E0,-1.56430004585109961E0,2.20587844824521317E-1));
#220=CARTESIAN_POINT('',(-2.32973962552421021E0,-1.57322513489385374E0,-3.11518989108779260E-2));
#221=B_SPLINE_CURVE_WITH_KNOTS('',1,(#219,#220),.UNSPECIFIED.,.F.,.F.,(2,2),(0.00000000000000000E0,1.00000000000000000E0),.UNSPECIFIED.);
#222=CARTESIAN_POINT('',(-2.13916003871065641E0,-1.41169995414889993E0,-4.05878448245213241E-2));
#223=CARTESIAN_POINT('',(-2.32973962552421021E0,-1.57322513489385374E0,-3.11518989108779260E-2));
#224=B_SPLINE_CURVE_WITH_KNOTS('',1,(#222,#223),.UNSPECIFIED.,.F.,.F.,(2,2),(0.00000000000000000E0,1.00000000000000000E0),.UNSPECIFIED.);
#225=CARTESIAN_POINT('',(-2.13426037447579020E0,-1.40277486510614580E0,2.11151898910877933E-1));
#226=CARTESIAN_POINT('',(6.45778082559947064E-1,-2.67504179475271853E0,7.07670032651041420E-2));
#227=B_SPLINE_CURVE_WITH_KNOTS('',1,(#225,#226),.UNSPECIFIED.,.F.,.F.,(2,2),(0.00000000000000000E0,1.00000000000000000E0),.UNSPECIFIED.);
#228=CARTESIAN_POINT('',(6.29492757563311800E-1,-2.67211518763991851E0,-1.80634638854754170E-1));
#229=CARTESIAN_POINT('',(6.45778082559947064E-1,-2.67504179475271853E0,7.07670032651041420E-2));
#230=B_SPLINE_CURVE_WITH_KNOTS('',1,(#228,#229),.UNSPECIFIED.,.F.,.F.,(2,2),(0.00000000000000000E0,1.00000000000000000E0),.UNSPECIFIED.);
#231=CARTESIAN_POINT('',(-2.13916003871065641E0,-1.41169995414889993E0,-4.05878448245213241E-2));
#232=CARTESIAN_POINT('',(6.29492757563311800E-1,-2.67211518763991851E0,-1.80634638854754170E-1));
#233=B_SPLINE_CURVE_WITH_KNOTS('',1,(#231,#232),.UNSPECIFIED.,.F.,.F.,(2,2),(0.00000000000000000E0,1.00000000000000000E0),.UNSPECIFIED.);
#234=CARTESIAN_POINT('',(-2.32483996128934400E0,-1.56430004585109961E0,2.20587844824521317E-1));
#235=CARTESIAN_POINT('',(7.62507242436689436E-1,-2.89588481236008111E0,6.06346388547541054E-2));
#236=B_SPLINE_CURVE_WITH_KNOTS('',1,(#234,#235),.UNSPECIFIED.,.F.,.F.,(2,2),(0.00000000000000000E0,1.00000000000000000E0),.UNSPECIFIED.);
#237=CARTESIAN_POINT('',(6.45778082559947064E-1,-2.67504179475271853E0,7.07670032651041420E-2));
#238=CARTESIAN_POINT('',(7.62507242436689436E-1,-2.89588481236008111E0,6.06346388547541054E-2));
#239=B_SPLINE_CURVE_WITH_KNOTS('',1,(#237,#238),.UNSPECIFIED.,.F.,.F.,(2,2),(0.00000000000000000E0,1.00000000000000000E0),.UNSPECIFIED.);
#240=CARTESIAN_POINT('',(-2.32973962552421021E0,-1.57322513489385374E0,-3.11518989108779260E-2));
#241=CARTESIAN_POINT('',(7.46221917440054172E-1,-2.89295820524728109E0,-1.90767003265104207E-1));
#242=B_SPLINE_CURVE_WITH_KNOTS('',1,(#240,#241),.UNSPECIFIED.,.F.,.F.,(2,2),(0.00000000000000000E0,1.00000000000000000E0),.UNSPECIFIED.);
#243=CARTESIAN_POINT('',(7.62507242436689436E-1,-2.89588481236008111E0,6.06346388547541054E-2));
#244=CARTESIAN_POINT('',(7.46221917440054172E-1,-2.89295820524728109E0,-1.90767003265104207E-1));
#245=B_SPLINE_CURVE_WITH_KNOTS('',1,(#243,#244),.UNSPECIFIED.,.F.,.F.,(2,2),(0.00000000000000000E0,1.00000000000000000E0),.UNSPECIFIED.);
#246=CARTESIAN_POINT('',(6.29492757563311800E-1,-2.67211518763991851E0,-1.80634638854754170E-1));
#247=CARTESIAN_POINT('',(7.46221917440054172E-1,-2.89295820524728109E0,-1.90767003265104207E-1));
#248=B_SPLINE_CURVE_WITH_KNOTS('',1,(#246,#247),.UNSPECIFIED.,.F.,.F.,(2,2),(0.00000000000000000E0,1.00000000000000000E0),.UNSPECIFIED.);
#249=CARTESIAN_POINT('',(2.87500000000000000E0,-1.56250000000000069E-2,1.25000000000000028E-1));
#250=CARTESIAN_POINT('',(6.45778082559947064E-1,-2.67504179475271853E0,7.07670032651041420E-2));
#251=B_SPLINE_CURVE_WITH_KNOTS('',1,(#249,#250),.UNSPECIFIED.,.F.,.F.,(2,2),(0.00000000000000000E0,1.00000000000000000E0),.UNSPECIFIED.);
#252=CARTESIAN_POINT('',(2.87500000000000000E0,1.56250000000000069E-2,-1.25000000000000028E-1));
#253=CARTESIAN_POINT('',(6.29492757563311800E-1,-2.67211518763991851E0,-1.80634638854754170E-1));
#254=B_SPLINE_CURVE_WITH_KNOTS('',1,(#252,#253),.UNSPECIFIED.,.F.,.F.,(2,2),(0.00000000000000000E0,1.00000000000000000E0),.UNSPECIFIED.);
#255=CARTESIAN_POINT('',(3.12500000000000000E0,-1.56250000000000069E-2,1.25000000000000028E-1));
#256=CARTESIAN_POINT('',(7.62507242436689436E-1,-2.89588481236008111E0,6.06346388547541054E-2));
#257=B_SPLINE_CURVE_WITH_KNOTS('',1,(#255,#256),.UNSPECIFIED.,.F.,.F.,(2,2),(0.00000000000000000E0,1.00000000000000000E0),.UNSPECIFIED.);
#258=CARTESIAN_POINT('',(3.12500000000000000E0,1.56250000000000069E-2,-1.25000000000000028E-1));
#259=CARTESIAN_POINT('',(7.46221917440054172E-1,-2.89295820524728109E0,-1.90767003265104207E-1));
#260=B_SPLINE_CURVE_WITH_KNOTS('',1,(#258,#259),.UNSPECIFIED.,.F.,.F.,(2,2),(0.00000000000000000E0,1.00000000000000000E0),.UNSPECIFIED.);
#261=(GEOMETRIC_REPRESENTATION_CONTEXT(2)REPRESENTATION_CONTEXT('','2D'));
#262=CARTESIAN_POINT('',(0.00000000000000000E0,0.00000000000000000E0));
#263=CARTESIAN_POINT('',(1.00000000000000000E0,0.00000000000000000E0));
#264=B_SPLINE_CURVE_WITH_KNOTS('',1,(#262,#263),.UNSPECIFIED.,.F.,.F.,(2,2),(0.00000000000000000E0,1.00000000000000000E0),.UNSPECIFIED.);
#265=DEFINITIONAL_REPRESENTATION('',(#264),#261);
#266=PCURVE('',#45,#265);
#267=CARTESIAN_POINT('',(1.00000000000000000E0,0.00000000000000000E0));
#268=CARTESIAN_POINT('',(1.00000000000000000E0,1.00000000000000000E0));
#269=B_SPLINE_CURVE_WITH_KNOTS('',1,(#267,#268),.UNSPECIFIED.,.F.,.F.,(2,2),(0.00000000000000000E0,1.00000000000000000E0),.UNSPECIFIED.);
#270=DEFINITIONAL_REPRESENTATION('',(#269),#261);
#271=PCURVE('',#45,#270);
#272=CARTESIAN_POINT('',(1.00000000000000000E0,1.00000000000000000E0));
#273=CARTESIAN_POINT('',(0.00000000000000000E0,1.00000000000000000E0));
#274=B_SPLINE_CURVE_WITH_KNOTS('',1,(#272,#273),.UNSPECIFIED.,.F.,.F.,(2,2),(0.00000000000000000E0,1.00000000000000000E0),.UNSPECIFIED.);
#275=DEFINITIONAL_REPRESENTATION('',(#274),#261);
#276=PCURVE('',#45,#275);
#277=CARTESIAN_POINT('',(0.00000000000000000E0,1.00000000000000000E0));
#278=CARTESIAN_POINT('',(0.00000000000000000E0,0.00000000000000000E0));
#279=B_SPLINE_CURVE_WITH_KNOTS('',1,(#277,#278),.UNSPECIFIED.,.F.,.F.,(2,2),(0.00000000000000000E0,1.00000000000000000E0),.UNSPECIFIED.);
#280=DEFINITIONAL_REPRESENTATION('',(#279),#261);
#281=PCURVE('',#45,#280);
#282=CARTESIAN_POINT('',(0.00000000000000000E0,0.00000000000000000E0));
#283=CARTESIAN_POINT('',(1.00000000000000000E0,0.00000000000000000E0));
#284=B_SPLINE_CURVE_WITH_KNOTS('',1,(#282,#283),.UNSPECIFIED.,.F.,.F.,(2,2),(0.00000000000000000E0,1.00000000000000000E0),.UNSPECIFIED.);
#285=DEFINITIONAL_REPRESENTATION('',(#284),#261);
#286=PCURVE('',#50,#285);
#287=CARTESIAN_POINT('',(1.00000000000000000E0,0.00000000000000000E0));
#288=CARTESIAN_POINT('',(1.00000000000000000E0,1.00000000000000000E0));
#289=B_SPLINE_CURVE_WITH_KNOTS('',1,(#287,#288),.UNSPECIFIED.,.F.,.F.,(2,2),(0.00000000000000000E0,1.00000000000000000E0),.UNSPECIFIED.);
#290=DEFINITIONAL_REPRESENTATION('',(#289),#261);
#291=PCURVE('',#50,#290);
#292=CARTESIAN_POINT('',(1.00000000000000000E0,1.00000000000000000E0));
#293=CARTESIAN_POINT('',(0.00000000000000000E0,1.00000000000000000E0));
#294=B_SPLINE_CURVE_WITH_KNOTS('',1,(#292,#293),.UNSPECIFIED.,.F.,.F.,(2,2),(0.00000000000000000E0,1.00000000000000000E0),.UNSPECIFIED.);
#295=DEFINITIONAL_REPRESENTATION('',(#294),#261);
#296=PCURVE('',#50,#295);
#297=CARTESIAN_POINT('',(0.00000000000000000E0,1.00000000000000000E0));
#298=CARTESIAN_POINT('',(0.00000000000000000E0,0.00000000000000000E0));
#299=B_SPLINE_CURVE_WITH_KNOTS('',1,(#297,#298),.UNSPECIFIED.,.F.,.F.,(2,2),(0.00000000000000000E0,1.00000000000000000E0),.UNSPECIFIED.);
#300=DEFINITIONAL_REPRESENTATION('',(#299),#261);
#301=PCURVE('',#50,#300);
#302=CARTESIAN_POINT('',(0.00000000000000000E0,0.00000000000000000E0));
#303=CARTESIAN_POINT('',(1.00000000000000000E0,0.00000000000000000E0));
#304=B_SPLINE_CURVE_WITH_KNOTS('',1,(#302,#303),.UNSPECIFIED.,.F.,.F.,(2,2),(0.00000000000000000E0,1.00000000000000000E0),.UNSPECIFIED.);
#305=DEFINITIONAL_REPRESENTATION('',(#304),#261);
#306=PCURVE('',#55,#305);
#307=CARTESIAN_POINT('',(1.00000000000000000E0,0.00000000000000000E0));
#308=CARTESIAN_POINT('',(1.00000000000000000E0,1.00000000000000000E0));
#309=B_SPLINE_CURVE_WITH_KNOTS('',1,(#307,#308),.UNSPECIFIED.,.F.,.F.,(2,2),(0.00000000000000000E0,1.00000000000000000E0),.UNSPECIFIED.);
#310=DEFINITIONAL_REPRESENTATION('',(#309),#261);
#311=PCURVE('',#55,#310);
#312=CARTESIAN_POINT('',(1.00000000000000000E0,1.00000000000000000E0));
#313=CARTESIAN_POINT('',(0.00000000000000000E0,1.00000000000000000E0));
#314=B_SPLINE_CURVE_WITH_KNOTS('',1,(#312,#313),.UNSPECIFIED.,.F.,.F.,(2,2),(0.00000000000000000E0,1.00000000000000000E0),.UNSPECIFIED.);
#315=DEFINITIONAL_REPRESENTATION('',(#314),#261);
#316=PCURVE('',#55,#315);
#317=CARTESIAN_POINT('',(0.00000000000000000E0,1.00000000000000000E0));
#318=CARTESIAN_POINT('',(0.00000000000000000E0,0.00000000000000000E0));
#319=B_SPLINE_CURVE_WITH_KNOTS('',1,(#317,#318),.UNSPECIFIED.,.F.,.F.,(2,2),(0.00000000000000000E0,1.00000000000000000E0),.UNSPECIFIED.);
#320=DEFINITIONAL_REPRESENTATION('',(#319),#261);
#321=PCURVE('',#55,#320);
#322=CARTESIAN_POINT('',(0.00000000000000000E0,0.00000000000000000E0));
#323=CARTESIAN_POINT('',(1.00000000000000000E0,0.00000000000000000E0));
#324=B_SPLINE_CURVE_WITH_KNOTS('',1,(#322,#323),.UNSPECIFIED.,.F.,.F.,(2,2),(0.00000000000000000E0,1.00000000000000000E0),.UNSPECIFIED.);
#325=DEFINITIONAL_REPRESENTATION('',(#324),#261);
#326=PCURVE('',#60,#325);
#327=CARTESIAN_POINT('',(1.00000000000000000E0,0.00000000000000000E0));
#328=CARTESIAN_POINT('',(1.00000000000000000E0,1.00000000000000000E0));
#329=B_SPLINE_CURVE_WITH_KNOTS('',1,(#327,#328),.UNSPECIFIED.,.F.,.F.,(2,2),(0.00000000000000000E0,1.00000000000000000E0),.UNSPECIFIED.);
#330=DEFINITIONAL_REPRESENTATION('',(#329),#261);
#331=PCURVE('',#60,#330);
#332=CARTESIAN_POINT('',(1.00000000000000000E0,1.00000000000000000E0));
#333=CARTESIAN_POINT('',(0.00000000000000000E0,1.00000000000000000E0));
#334=B_SPLINE_CURVE_WITH_KNOTS('',1,(#332,#333),.UNSPECIFIED.,.F.,.F.,(2,2),(0.00000000000000000E0,1.00000000000000000E0),.UNSPECIFIED.);
#335=DEFINITIONAL_REPRESENTATION('',(#334),#261);
#336=PCURVE('',#60,#335);
#337=CARTESIAN_POINT('',(0.00000000000000000E0,1.00000000000000000E0));
#338=CARTESIAN_POINT('',(0.00000000000000000E0,0.00000000000000000E0));
#339=B_SPLINE_CURVE_WITH_KNOTS('',1,(#337,#338),.UNSPECIFIED.,.F.,.F.,(2,2),(0.00000000000000000E0,1.00000000000000000E0),.UNSPECIFIED.);
#340=DEFINITIONAL_REPRESENTATION('',(#339),#261);
#341=PCURVE('',#60,#340);
#342=CARTESIAN_POINT('',(0.00000000000000000E0,0.00000000000000000E0));
#343=CARTESIAN_POINT('',(1.00000000000000000E0,0.00000000000000000E0));
#344=B_SPLINE_CURVE_WITH_KNOTS('',1,(#342,#343),.UNSPECIFIED.,.F.,.F.,(2,2),(0.00000000000000000E0,1.00000000000000000E0),.UNSPECIFIED.);
#345=DEFINITIONAL_REPRESENTATION('',(#344),#261);
#346=PCURVE('',#65,#345);
#347=CARTESIAN_POINT('',(1.00000000000000000E0,0.00000000000000000E0));
#348=CARTESIAN_POINT('',(1.00000000000000000E0,1.00000000000000000E0));
#349=B_SPLINE_CURVE_WITH_KNOTS('',1,(#347,#348),.UNSPECIFIED.,.F.,.F.,(2,2),(0.00000000000000000E0,1.00000000000000000E0),.UNSPECIFIED.);
#350=DEFINITIONAL_REPRESENTATION('',(#349),#261);
#351=PCURVE('',#65,#350);
#352=CARTESIAN_POINT('',(1.00000000000000000E0,1.00000000000000000E0));
#353=CARTESIAN_POINT('',(0.00000000000000000E0,1.00000000000000000E0));
#354=B_SPLINE_CURVE_WITH_KNOTS('',1,(#352,#353),.UNSPECIFIED.,.F.,.F.,(2,2),(0.00000000000000000E0,1.00000000000000000E0),.UNSPECIFIED.);
#355=DEFINITIONAL_REPRESENTATION('',(#354),#261);
#356=PCURVE('',#65,#355);
#357=CARTESIAN_POINT('',(0.00000000000000000E0,1.00000000000000000E0));
#358=CARTESIAN_POINT('',(0.00000000000000000E0,0.00000000000000000E0));
#359=B_SPLINE_CURVE_WITH_KNOTS('',1,(#357,#358),.UNSPECIFIED.,.F.,.F.,(2,2),(0.00000000000000000E0,1.00000000000000000E0),.UNSPECIFIED.);
#360=DEFINITIONAL_REPRESENTATION('',(#359),#261);
#361=PCURVE('',#65,#360);
#362=CARTESIAN_POINT('',(0.00000000000000000E0,0.00000000000000000E0));
#363=CARTESIAN_POINT('',(1.00000000000000000E0,0.00000000000000000E0));
#364=B_SPLINE_CURVE_WITH_KNOTS('',1,(#362,#363),.UNSPECIFIED.,.F.,.F.,(2,2),(0.00000000000000000E0,1.00000000000000000E0),.UNSPECIFIED.);
#365=DEFINITIONAL_REPRESENTATION('',(#364),#261);
#366=PCURVE('',#70,#365);
#367=CARTESIAN_POINT('',(1.00000000000000000E0,0.00000000000000000E0));
#368=CARTESIAN_POINT('',(1.00000000000000000E0,1.00000000000000000E0));
#369=B_SPLINE_CURVE_WITH_KNOTS('',1,(#367,#368),.UNSPECIFIED.,.F.,.F.,(2,2),(0.00000000000000000E0,1.00000000000000000E0),.UNSPECIFIED.);
#370=DEFINITIONAL_REPRESENTATION('',(#369),#261);
#371=PCURVE('',#70,#370);
#372=CARTESIAN_POINT('',(1.00000000000000000E0,1.00000000000000000E0));
#373=CARTESIAN_POINT('',(0.00000000000000000E0,1.00000000000000000E0));
#374=B_SPLINE_CURVE_WITH_KNOTS('',1,(#372,#373),.UNSPECIFIED.,.F.,.F.,(2,2),(0.00000000000000000E0,1.00000000000000000E0),.UNSPECIFIED.);
#375=DEFINITIONAL_REPRESENTATION('',(#374),#261);
#376=PCURVE('',#70,#375);
#377=CARTESIAN_POINT('',(0.00000000000000000E0,1.00000000000000000E0));
#378=CARTESIAN_POINT('',(0.00000000000000000E0,0.00000000000000000E0));
#379=B_SPLINE_CURVE_WITH_KNOTS('',1,(#377,#378),.UNSPECIFIED.,.F.,.F.,(2,2),(0.00000000000000000E0,1.00000000000000000E0),.UNSPECIFIED.);
#380=DEFINITIONAL_REPRESENTATION('',(#379),#261);
#381=PCURVE('',#70,#380);
#382=CARTESIAN_POINT('',(0.00000000000000000E0,0.00000000000000000E0));
#383=CARTESIAN_POINT('',(1.00000000000000000E0,0.00000000000000000E0));
#384=B_SPLINE_CURVE_WITH_KNOTS('',1,(#382,#383),.UNSPECIFIED.,.F.,.F.,(2,2),(0.00000000000000000E0,1.00000000000000000E0),.UNSPECIFIED.);
#385=DEFINITIONAL_REPRESENTATION('',(#384),#261);
#386=PCURVE('',#75,#385);
#387=CARTESIAN_POINT('',(1.00000000000000000E0,0.00000000000000000E0));
#388=CARTESIAN_POINT('',(1.00000000000000000E0,1.00000000000000000E0));
#389=B_SPLINE_CURVE_WITH_KNOTS('',1,(#387,#388),.UNSPECIFIED.,.F.,.F.,(2,2),(0.00000000000000000E0,1.00000000000000000E0),.UNSPECIFIED.);
#390=DEFINITIONAL_REPRESENTATION('',(#389),#261);
#391=PCURVE('',#75,#390);
#392=CARTESIAN_POINT('',(1.00000000000000000E0,1.00000000000000000E0));
#393=CARTESIAN_POINT('',(0.00000000000000000E0,1.00000000000000000E0));
#394=B_SPLINE_CURVE_WITH_KNOTS('',1,(#392,#393),.UNSPECIFIED.,.F.,.F.,(2,2),(0.00000000000000000E0,1.00000000000000000E0),.UNSPECIFIED.);
#395=DEFINITIONAL_REPRESENTATION('',(#394),#261);
#396=PCURVE('',#75,#395);
#397=CARTESIAN_POINT('',(0.00000000000000000E0,1.00000000000000000E0));
#398=CARTESIAN_POINT('',(0.00000000000000000E0,0.00000000000000000E0));
#399=B_SPLINE_CURVE_WITH_KNOTS('',1,(#397,#398),.UNSPECIFIED.,.F.,.F.,(2,2),(0.00000000000000000E0,1.00000000000000000E0),.UNSPECIFIED.);
#400=DEFINITIONAL_REPRESENTATION('',(#399),#261);
#401=PCURVE('',#75,#400);
#402=CARTESIAN_POINT('',(0.00000000000000000E0,0.00000000000000000E0));
#403=CARTESIAN_POINT('',(1.00000000000000000E0,0.00000000000000000E0));
#404=B_SPLINE_CURVE_WITH_KNOTS('',1,(#402,#403),.UNSPECIFIED.,.F.,.F.,(2,2),(0.00000000000000000E0,1.00000000000000000E0),.UNSPECIFIED.);
#405=DEFINITIONAL_REPRESENTATION('',(#404),#261);
#406=PCURVE('',#80,#405);
#407=CARTESIAN_POINT('',(1.00000000000000000E0,0.00000000000000000E0));
#408=CARTESIAN_POINT('',(1.00000000000000000E0,1.00000000000000000E0));
#409=B_SPLINE_CURVE_WITH_KNOTS('',1,(#407,#408),.UNSPECIFIED.,.F.,.F.,(2,2),(0.00000000000000000E0,1.00000000000000000E0),.UNSPECIFIED.);
#410=DEFINITIONAL_REPRESENTATION('',(#409),#261);
#411=PCURVE('',#80,#410);
#412=CARTESIAN_POINT('',(1.00000000000000000E0,1.00000000000000000E0));
#413=CARTESIAN_POINT('',(0.00000000000000000E0,1.00000000000000000E0));
#414=B_SPLINE_CURVE_WITH_KNOTS('',1,(#412,#413),.UNSPECIFIED.,.F.,.F.,(2,2),(0.00000000000000000E0,1.00000000000000000E0),.UNSPECIFIED.);
#415=DEFINITIONAL_REPRESENTATION('',(#414),#261);
#416=PCURVE('',#80,#415);
#417=CARTESIAN_POINT('',(0.00000000000000000E0,1.00000000000000000E0));
#418=CARTESIAN_POINT('',(0.00000000000000000E0,0.00000000000000000E0));
#419=B_SPLINE_CURVE_WITH_KNOTS('',1,(#417,#418),.UNSPECIFIED.,.F.,.F.,(2,2),(0.00000000000000000E0,1.00000000000000000E0),.UNSPECIFIED.);
#420=DEFINITIONAL_REPRESENTATION('',(#419),#261);
#421=PCURVE('',#80,#420);
#422=CARTESIAN_POINT('',(0.00000000000000000E0,0.00000000000000000E0));
#423=CARTESIAN_POINT('',(1.00000000000000000E0,0.00000000000000000E0));
#424=B_SPLINE_CURVE_WITH_KNOTS('',1,(#422,#423),.UNSPECIFIED.,.F.,.F.,(2,2),(0.00000000000000000E0,1.00000000000000000E0),.UNSPECIFIED.);
#425=DEFINITIONAL_REPRESENTATION('',(#424),#261);
#426=PCURVE('',#85,#425);
#427=CARTESIAN_POINT('',(1.00000000000000000E0,0.00000000000000000E0));
#428=CARTESIAN_POINT('',(1.00000000000000000E0,1.00000000000000000E0));
#429=B_SPLINE_CURVE_WITH_KNOTS('',1,(#427,#428),.UNSPECIFIED.,.F.,.F.,(2,2),(0.00000000000000000E0,1.00000000000000000E0),.UNSPECIFIED.);
#430=DEFINITIONAL_REPRESENTATION('',(#429),#261);
#431=PCURVE('',#85,#430);
#432=CARTESIAN_POINT('',(1.00000000000000000E0,1.00000000000000000E0));
#433=CARTESIAN_POINT('',(0.00000000000000000E0,1.00000000000000000E0));
#434=B_SPLINE_CURVE_WITH_KNOTS('',1,(#432,#433),.UNSPECIFIED.,.F.,.F.,(2,2),(0.00000000000000000E0,1.00000000000000000E0),.UNSPECIFIED.);
#435=DEFINITIONAL_REPRESENTATION('',(#434),#261);
#436=PCURVE('',#85,#435);
#437=CARTESIAN_POINT('',(0.00000000000000000E0,1.00000000000000000E0));
#438=CARTESIAN_POINT('',(0.00000000000000000E0,0.00000000000000000E0));
#439=B_SPLINE_CURVE_WITH_KNOTS('',1,(#437,#438),.UNSPECIFIED.,.F.,.F.,(2,2),(0.00000000000000000E0,1.00000000000000000E0),.UNSPECIFIED.);
#440=DEFINITIONAL_REPRESENTATION('',(#439),#261);
#441=PCURVE('',#85,#440);
#442=CARTESIAN_POINT('',(0.00000000000000000E0,0.00000000000000000E0));
#443=CARTESIAN_POINT('',(1.00000000000000000E0,0.00000000000000000E0));
#444=B_SPLINE_CURVE_WITH_KNOTS('',1,(#442,#443),.UNSPECIFIED.,.F.,.F.,(2,2),(0.00000000000000000E0,1.00000000000000000E0),.UNSPECIFIED.);
#445=DEFINITIONAL_REPRESENTATION('',(#444),#261);
#446=PCURVE('',#90,#445);
#447=CARTESIAN_POINT('',(1.00000000000000000E0,0.00000000000000000E0));
#448=CARTESIAN_POINT('',(1.00000000000000000E0,1.00000000000000000E0));
#449=B_SPLINE_CURVE_WITH_KNOTS('',1,(#447,#448),.UNSPECIFIED.,.F.,.F.,(2,2),(0.00000000000000000E0,1.00000000000000000E0),.UNSPECIFIED.);
#450=DEFINITIONAL_REPRESENTATION('',(#449),#261);
#451=PCURVE('',#90,#450);
#452=CARTESIAN_POINT('',(1.00000000000000000E0,1.00000000000000000E0));
#453=CARTESIAN_POINT('',(0.00000000000000000E0,1.00000000000000000E0));
#454=B_SPLINE_CURVE_WITH_KNOTS('',1,(#452,#453),.UNSPECIFIED.,.F.,.F.,(2,2),(0.00000000000000000E0,1.00000000000000000E0),.UNSPECIFIED.);
#455=DEFINITIONAL_REPRESENTATION('',(#454),#261);
#456=PCURVE('',#90,#455);
#457=CARTESIAN_POINT('',(0.00000000000000000E0,1.00000000000000000E0));
#458=CARTESIAN_POINT('',(0.00000000000000000E0,0.00000000000000000E0));
#459=B_SPLINE_CURVE_WITH_KNOTS('',1,(#457,#458),.UNSPECIFIED.,.F.,.F.,(2,2),(0.00000000000000000E0,1.00000000000000000E0),.UNSPECIFIED.);
#460=DEFINITIONAL_REPRESENTATION('',(#459),#261);
#461=PCURVE('',#90,#460);
#462=CARTESIAN_POINT('',(0.00000000000000000E0,0.00000000000000000E0));
#463=CARTESIAN_POINT('',(1.00000000000000000E0,0.00000000000000000E0));
#464=B_SPLINE_CURVE_WITH_KNOTS('',1,(#462,#463),.UNSPECIFIED.,.F.,.F.,(2,2),(0.00000000000000000E0,1.00000000000000000E0),.UNSPECIFIED.);
#465=DEFINITIONAL_REPRESENTATION('',(#464),#261);
#466=PCURVE('',#95,#465);
#467=CARTESIAN_POINT('',(1.00000000000000000E0,0.00000000000000000E0));
#468=CARTESIAN_POINT('',(1.00000000000000000E0,1.00000000000000000E0));
#469=B_SPLINE_CURVE_WITH_KNOTS('',1,(#467,#468),.UNSPECIFIED.,.F.,.F.,(2,2),(0.00000000000000000E0,1.00000000000000000E0),.UNSPECIFIED.);
#470=DEFINITIONAL_REPRESENTATION('',(#469),#261);
#471=PCURVE('',#95,#470);
#472=CARTESIAN_POINT('',(1.00000000000000000E0,1.00000000000000000E0));
#473=CARTESIAN_POINT('',(0.00000000000000000E0,1.00000000000000000E0));
#474=B_SPLINE_CURVE_WITH_KNOTS('',1,(#472,#473),.UNSPECIFIED.,.F.,.F.,(2,2),(0.00000000000000000E0,1.00000000000000000E0),.UNSPECIFIED.);
#475=DEFINITIONAL_REPRESENTATION('',(#474),#261);
#476=PCURVE('',#95,#475);
#477=CARTESIAN_POINT('',(0.00000000000000000E0,1.00000000000000000E0));
#478=CARTESIAN_POINT('',(0.00000000000000000E0,0.00000000000000000E0));
#479=B_SPLINE_CURVE_WITH_KNOTS('',1,(#477,#478),.UNSPECIFIED.,.F.,.F.,(2,2),(0.00000000000000000E0,1.00000000000000000E0),.UNSPECIFIED.);
#480=DEFINITIONAL_REPRESENTATION('',(#479),#261);
#481=PCURVE('',#95,#480);
#482=CARTESIAN_POINT('',(0.00000000000000000E0,0.00000000000000000E0));
#483=CARTESIAN_POINT('',(1.00000000000000000E0,0.00000000000000000E0));
#484=B_SPLINE_CURVE_WITH_KNOTS('',1,(#482,#483),.UNSPECIFIED.,.F.,.F.,(2,2),(0.00000000000000000E0,1.00000000000000000E0),.UNSPECIFIED.);
#485=DEFINITIONAL_REPRESENTATION('',(#484),#261);
#486=PCURVE('',#100,#485);
#487=CARTESIAN_POINT('',(1.00000000000000000E0,0.00000000000000000E0));
#488=CARTESIAN_POINT('',(1.00000000000000000E0,1.00000000000000000E0));
#489=B_SPLINE_CURVE_WITH_KNOTS('',1,(#487,#488),.UNSPECIFIED.,.F.,.F.,(2,2),(0.00000000000000000E0,1.00000000000000000E0),.UNSPECIFIED.);
#490=DEFINITIONAL_REPRESENTATION('',(#489),#261);
#491=PCURVE('',#100,#490);
#492=CARTESIAN_POINT('',(1.00000000000000000E0,1.00000000000000000E0));
#493=CARTESIAN_POINT('',(0.00000000000000000E0,1.00000000000000000E0));
#494=B_SPLINE_CURVE_WITH_KNOTS('',1,(#492,#493),.UNSPECIFIED.,.F.,.F.,(2,2),(0.00000000000000000E0,1.00000000000000000E0),.UNSPECIFIED.);
#495=DEFINITIONAL_REPRESENTATION('',(#494),#261);
#496=PCURVE('',#100,#495);
#497=CARTESIAN_POINT('',(0.00000000000000000E0,1.00000000000000000E0));
#498=CARTESIAN_POINT('',(0.00000000000000000E0,0.00000000000000000E0));
#499=B_SPLINE_CURVE_WITH_KNOTS('',1,(#497,#498),.UNSPECIFIED.,.F.,.F.,(2,2),(0.00000000000000000E0,1.00000000000000000E0),.UNSPECIFIED.);
#500=DEFINITIONAL_REPRESENTATION('',(#499),#261);
#501=PCURVE('',#100,#500);
#502=CARTESIAN_POINT('',(0.00000000000000000E0,0.00000000000000000E0));
#503=CARTESIAN_POINT('',(1.00000000000000000E0,0.00000000000000000E0));
#504=B_SPLINE_CURVE_WITH_KNOTS('',1,(#502,#503),.UNSPECIFIED.,.F.,.F.,(2,2),(0.00000000000000000E0,1.00000000000000000E0),.UNSPECIFIED.);
#505=DEFINITIONAL_REPRESENTATION('',(#504),#261);
#506=PCURVE('',#105,#505);
#507=CARTESIAN_POINT('',(1.00000000000000000E0,0.00000000000000000E0));
#508=CARTESIAN_POINT('',(1.00000000000000000E0,1.00000000000000000E0));
#509=B_SPLINE_CURVE_WITH_KNOTS('',1,(#507,#508),.UNSPECIFIED.,.F.,.F.,(2,2),(0.00000000000000000E0,1.00000000000000000E0),.UNSPECIFIED.);
#510=DEFINITIONAL_REPRESENTATION('',(#509),#261);
#511=PCURVE('',#105,#510);
#512=CARTESIAN_POINT('',(1.00000000000000000E0,1.00000000000000000E0));
#513=CARTESIAN_POINT('',(0.00000000000000000E0,1.00000000000000000E0));
#514=B_SPLINE_CURVE_WITH_KNOTS('',1,(#512,#513),.UNSPECIFIED.,.F.,.F.,(2,2),(0.00000000000000000E0,1.00000000000000000E0),.UNSPECIFIED.);
#515=DEFINITIONAL_REPRESENTATION('',(#514),#261);
#516=PCURVE('',#105,#515);
#517=CARTESIAN_POINT('',(0.00000000000000000E0,1.00000000000000000E0));
#518=CARTESIAN_POINT('',(0.00000000000000000E0,0.00000000000000000E0));
#519=B_SPLINE_CURVE_WITH_KNOTS('',1,(#517,#518),.UNSPECIFIED.,.F.,.F.,(2,2),(0.00000000000000000E0,1.00000000000000000E0),.UNSPECIFIED.);
#520=DEFINITIONAL_REPRESENTATION('',(#519),#261);
#521=PCURVE('',#105,#520);
#522=CARTESIAN_POINT('',(0.00000000000000000E0,0.00000000000000000E0));
#523=CARTESIAN_POINT('',(1.00000000000000000E0,0.00000000000000000E0));
#524=B_SPLINE_CURVE_WITH_KNOTS('',1,(#522,#523),.UNSPECIFIED.,.F.,.F.,(2,2),(0.00000000000000000E0,1.00000000000000000E0),.UNSPECIFIED.);
#525=DEFINITIONAL_REPRESENTATION('',(#524),#261);
#526=PCURVE('',#110,#525);
#527=CARTESIAN_POINT('',(1.00000000000000000E0,0.00000000000000000E0));
#528=CARTESIAN_POINT('',(1.00000000000000000E0,1.00000000000000000E0));
#529=B_SPLINE_CURVE_WITH_KNOTS('',1,(#527,#528),.UNSPECIFIED.,.F.,.F.,(2,2),(0.00000000000000000E0,1.00000000000000000E0),.UNSPECIFIED.);
#530=DEFINITIONAL_REPRESENTATION('',(#529),#261);
#531=PCURVE('',#110,#530);
#532=CARTESIAN_POINT('',(1.00000000000000000E0,1.00000000000000000E0));
#533=CARTESIAN_POINT('',(0.00000000000000000E0,1.00000000000000000E0));
#534=B_SPLINE_CURVE_WITH_KNOTS('',1,(#532,#533),.UNSPECIFIED.,.F.,.F.,(2,2),(0.00000000000000000E0,1.00000000000000000E0),.UNSPECIFIED.);
#535=DEFINITIONAL_REPRESENTATION('',(#534),#261);
#536=PCURVE('',#110,#535);
#537=CARTESIAN_POINT('',(0.00000000000000000E0,1.00000000000000000E0));
#538=CARTESIAN_POINT('',(0.00000000000000000E0,0.00000000000000000E0));
#539=B_SPLINE_CURVE_WITH_KNOTS('',1,(#537,#538),.UNSPECIFIED.,.F.,.F.,(2,2),(0.00000000000000000E0,1.00000000000000000E0),.UNSPECIFIED.);
#540=DEFINITIONAL_REPRESENTATION('',(#539),#261);
#541=PCURVE('',#110,#540);
#542=CARTESIAN_POINT('',(0.00000000000000000E0,0.00000000000000000E0));
#543=CARTESIAN_POINT('',(1.00000000000000000E0,0.00000000000000000E0));
#544=B_SPLINE_CURVE_WITH_KNOTS('',1,(#542,#543),.UNSPECIFIED.,.F.,.F.,(2,2),(0.00000000000000000E0,1.00000000000000000E0),.UNSPECIFIED.);
#545=DEFINITIONAL_REPRESENTATION('',(#544),#261);
#546=PCURVE('',#115,#545);
#547=CARTESIAN_POINT('',(1.00000000000000000E0,0.00000000000000000E0));
#548=CARTESIAN_POINT('',(1.00000000000000000E0,1.00000000000000000E0));
#549=B_SPLINE_CURVE_WITH_KNOTS('',1,(#547,#548),.UNSPECIFIED.,.F.,.F.,(2,2),(0.00000000000000000E0,1.00000000000000000E0),.UNSPECIFIED.);
#550=DEFINITIONAL_REPRESENTATION('',(#549),#261);
#551=PCURVE('',#115,#550);
#552=CARTESIAN_POINT('',(1.00000000000000000E0,1.00000000000000000E0));
#553=CARTESIAN_POINT('',(0.00000000000000000E0,1.00000000000000000E0));
#554=B_SPLINE_CURVE_WITH_KNOTS('',1,(#552,#553),.UNSPECIFIED.,.F.,.F.,(2,2),(0.00000000000000000E0,1.00000000000000000E0),.UNSPECIFIED.);
#555=DEFINITIONAL_REPRESENTATION('',(#554),#261);
#556=PCURVE('',#115,#555);
#557=CARTESIAN_POINT('',(0.00000000000000000E0,1.00000000000000000E0));
#558=CARTESIAN_POINT('',(0.00000000000000000E0,0.00000000000000000E0));
#559=B_SPLINE_CURVE_WITH_KNOTS('',1,(#557,#558),.UNSPECIFIED.,.F.,.F.,(2,2),(0.00000000000000000E0,1.00000000000000000E0),.UNSPECIFIED.);
#560=DEFINITIONAL_REPRESENTATION('',(#559),#261);
#561=PCURVE('',#115,#560);
#562=CARTESIAN_POINT('',(0.00000000000000000E0,0.00000000000000000E0));
#563=CARTESIAN_POINT('',(1.00000000000000000E0,0.00000000000000000E0));
#564=B_SPLINE_CURVE_WITH_KNOTS('',1,(#562,#563),.UNSPECIFIED.,.F.,.F.,(2,2),(0.00000000000000000E0,1.00000000000000000E0),.UNSPECIFIED.);
#565=DEFINITIONAL_REPRESENTATION('',(#564),#261);
#566=PCURVE('',#120,#565);
#567=CARTESIAN_POINT('',(1.00000000000000000E0,0.00000000000000000E0));
#568=CARTESIAN_POINT('',(1.00000000000000000E0,1.00000000000000000E0));
#569=B_SPLINE_CURVE_WITH_KNOTS('',1,(#567,#568),.UNSPECIFIED.,.F.,.F.,(2,2),(0.00000000000000000E0,1.00000000000000000E0),.UNSPECIFIED.);
#570=DEFINITIONAL_REPRESENTATION('',(#569),#261);
#571=PCURVE('',#120,#570);
#572=CARTESIAN_POINT('',(1.00000000000000000E0,1.00000000000000000E0));
#573=CARTESIAN_POINT('',(0.00000000000000000E0,1.00000000000000000E0));
#574=B_SPLINE_CURVE_WITH_KNOTS('',1,(#572,#573),.UNSPECIFIED.,.F.,.F.,(2,2),(0.00000000000000000E0,1.00000000000000000E0),.UNSPECIFIED.);
#575=DEFINITIONAL_REPRESENTATION('',(#574),#261);
#576=PCURVE('',#120,#575);
#577=CARTESIAN_POINT('',(0.00000000000000000E0,1.00000000000000000E0));
#578=CARTESIAN_POINT('',(0.00000000000000000E0,0.00000000000000000E0));
#579=B_SPLINE_CURVE_WITH_KNOTS('',1,(#577,#578),.UNSPECIFIED.,.F.,.F.,(2,2),(0.00000000000000000E0,1.00000000000000000E0),.UNSPECIFIED.);
#580=DEFINITIONAL_REPRESENTATION('',(#579),#261);
#581=PCURVE('',#120,#580);
#582=CARTESIAN_POINT('',(0.00000000000000000E0,0.00000000000000000E0));
#583=CARTESIAN_POINT('',(1.00000000000000000E0,0.00000000000000000E0));
#584=B_SPLINE_CURVE_WITH_KNOTS('',1,(#582,#583),.UNSPECIFIED.,.F.,.F.,(2,2),(0.00000000000000000E0,1.00000000000000000E0),.UNSPECIFIED.);
#585=DEFINITIONAL_REPRESENTATION('',(#584),#261);
#586=PCURVE('',#125,#585);
#587=CARTESIAN_POINT('',(1.00000000000000000E0,0.00000000000000000E0));
#588=CARTESIAN_POINT('',(1.00000000000000000E0,1.00000000000000000E0));
#589=B_SPLINE_CURVE_WITH_KNOTS('',1,(#587,#588),.UNSPECIFIED.,.F.,.F.,(2,2),(0.00000000000000000E0,1.00000000000000000E0),.UNSPECIFIED.);
#590=DEFINITIONAL_REPRESENTATION('',(#589),#261);
#591=PCURVE('',#125,#590);
#592=CARTESIAN_POINT('',(1.00000000000000000E0,1.00000000000000000E0));
#593=CARTESIAN_POINT('',(0.00000000000000000E0,1.00000000000000000E0));
#594=B_SPLINE_CURVE_WITH_KNOTS('',1,(#592,#593),.UNSPECIFIED.,.F.,.F.,(2,2),(0.00000000000000000E0,1.00000000000000000E0),.UNSPECIFIED.);
#595=DEFINITIONAL_REPRESENTATION('',(#594),#261);
#596=PCURVE('',#125,#595);
#597=CARTESIAN_POINT('',(0.00000000000000000E0,1.00000000000000000E0));
#598=CARTESIAN_POINT('',(0.00000000000000000E0,0.00000000000000000E0));
#599=B_SPLINE_CURVE_WITH_KNOTS('',1,(#597,#598),.UNSPECIFIED.,.F.,.F.,(2,2),(0.00000000000000000E0,1.00000000000000000E0),.UNSPECIFIED.);
#600=DEFINITIONAL_REPRESENTATION('',(#599),#261);
#601=PCURVE('',#125,#600);
#602=CARTESIAN_POINT('',(0.00000000000000000E0,0.00000000000000000E0));
#603=CARTESIAN_POINT('',(1.00000000000000000E0,0.00000000000000000E0));
#604=B_SPLINE_CURVE_WITH_KNOTS('',1,(#602,#603),.UNSPECIFIED.,.F.,.F.,(2,2),(0.00000000000000000E0,1.00000000000000000E0),.UNSPECIFIED.);
#605=DEFINITIONAL_REPRESENTATION('',(#604),#261);
#606=PCURVE('',#130,#605);
#607=CARTESIAN_POINT('',(1.00000000000000000E0,0.00000000000000000E0));
#608=CARTESIAN_POINT('',(1.00000000000000000E0,1.00000000000000000E0));
#609=B_SPLINE_CURVE_WITH_KNOTS('',1,(#607,#608),.UNSPECIFIED.,.F.,.F.,(2,2),(0.00000000000000000E0,1.00000000000000000E0),.UNSPECIFIED.);
#610=DEFINITIONAL_REPRESENTATION('',(#609),#261);
#611=PCURVE('',#130,#610);
#612=CARTESIAN_POINT('',(1.00000000000000000E0,1.00000000000000000E0));
#613=CARTESIAN_POINT('',(0.00000000000000000E0,1.00000000000000000E0));
#614=B_SPLINE_CURVE_WITH_KNOTS('',1,(#612,#613),.UNSPECIFIED.,.F.,.F.,(2,2),(0.00000000000000000E0,1.00000000000000000E0),.UNSPECIFIED.);
#615=DEFINITIONAL_REPRESENTATION('',(#614),#261);
#616=PCURVE('',#130,#615);
#617=CARTESIAN_POINT('',(0.00000000000000000E0,1.00000000000000000E0));
#618=CARTESIAN_POINT('',(0.00000000000000000E0,0.00000000000000000E0));
#619=B_SPLINE_CURVE_WITH_KNOTS('',1,(#617,#618),.UNSPECIFIED.,.F.,.F.,(2,2),(0.00000000000000000E0,1.00000000000000000E0),.UNSPECIFIED.);
#620=DEFINITIONAL_REPRESENTATION('',(#619),#261);
#621=PCURVE('',#130,#620);
#622=CARTESIAN_POINT('',(0.00000000000000000E0,0.00000000000000000E0));
#623=CARTESIAN_POINT('',(1.00000000000000000E0,0.00000000000000000E0));
#624=B_SPLINE_CURVE_WITH_KNOTS('',1,(#622,#623),.UNSPECIFIED.,.F.,.F.,(2,2),(0.00000000000000000E0,1.00000000000000000E0),.UNSPECIFIED.);
#625=DEFINITIONAL_REPRESENTATION('',(#624),#261);
#626=PCURVE('',#135,#625);
#627=CARTESIAN_POINT('',(1.00000000000000000E0,0.00000000000000000E0));
#628=CARTESIAN_POINT('',(1.00000000000000000E0,1.00000000000000000E0));
#629=B_SPLINE_CURVE_WITH_KNOTS('',1,(#627,#628),.UNSPECIFIED.,.F.,.F.,(2,2),(0.00000000000000000E0,1.00000000000000000E0),.UNSPECIFIED.);
#630=DEFINITIONAL_REPRESENTATION('',(#629),#261);
#631=PCURVE('',#135,#630);
#632=CARTESIAN_POINT('',(1.00000000000000000E0,1.00000000000000000E0));
#633=CARTESIAN_POINT('',(0.00000000000000000E0,1.00000000000000000E0));
#634=B_SPLINE_CURVE_WITH_KNOTS('',1,(#632,#633),.UNSPECIFIED.,.F.,.F.,(2,2),(0.00000000000000000E0,1.00000000000000000E0),.UNSPECIFIED.);
#635=DEFINITIONAL_REPRESENTATION('',(#634),#261);
#636=PCURVE('',#135,#635);
#637=CARTESIAN_POINT('',(0.00000000000000000E0,1.00000000000000000E0));
#638=CARTESIAN_POINT('',(0.00000000000000000E0,0.00000000000000000E0));
#639=B_SPLINE_CURVE_WITH_KNOTS('',1,(#637,#638),.UNSPECIFIED.,.F.,.F.,(2,2),(0.00000000000000000E0,1.00000000000000000E0),.UNSPECIFIED.);
#640=DEFINITIONAL_REPRESENTATION('',(#639),#261);
#641=PCURVE('',#135,#640);
#642=CARTESIAN_POINT('',(0.00000000000000000E0,0.00000000000000000E0));
#643=CARTESIAN_POINT('',(1.00000000000000000E0,0.00000000000000000E0));
#644=B_SPLINE_CURVE_WITH_KNOTS('',1,(#642,#643),.UNSPECIFIED.,.F.,.F.,(2,2),(0.00000000000000000E0,1.00000000000000000E0),.UNSPECIFIED.);
#645=DEFINITIONAL_REPRESENTATION('',(#644),#261);
#646=PCURVE('',#140,#645);
#647=CARTESIAN_POINT('',(1.00000000000000000E0,0.00000000000000000E0));
#648=CARTESIAN_POINT('',(1.00000000000000000E0,1.00000000000000000E0));
#649=B_SPLINE_CURVE_WITH_KNOTS('',1,(#647,#648),.UNSPECIFIED.,.F.,.F.,(2,2),(0.00000000000000000E0,1.00000000000000000E0),.UNSPECIFIED.);
#650=DEFINITIONAL_REPRESENTATION('',(#649),#261);
#651=PCURVE('',#140,#650);
#652=CARTESIAN_POINT('',(1.00000000000000000E0,1.00000000000000000E0));
#653=CARTESIAN_POINT('',(0.00000000000000000E0,1.00000000000000000E0));
#654=B_SPLINE_CURVE_WITH_KNOTS('',1,(#652,#653),.UNSPECIFIED.,.F.,.F.,(2,2),(0.00000000000000000E0,1.00000000000000000E0),.UNSPECIFIED.);
#655=DEFINITIONAL_REPRESENTATION('',(#654),#261);
#656=PCURVE('',#140,#655);
#657=CARTESIAN_POINT('',(0.00000000000000000E0,1.00000000000000000E0));
#658=CARTESIAN_POINT('',(0.00000000000000000E0,0.00000000000000000E0));
#659=B_SPLINE_CURVE_WITH_KNOTS('',1,(#657,#658),.UNSPECIFIED.,.F.,.F.,(2,2),(0.00000000000000000E0,1.00000000000000000E0),.UNSPECIFIED.);
#660=DEFINITIONAL_REPRESENTATION('',(#659),#261);
#661=PCURVE('',#140,#660);
#662=SURFACE_CURVE('',#143,(#266,#596),.PCURVE_S1.);
#663=EDGE_CURVE('OSCAD_TOPO/3|edge|e:8e083cdef91f0e6adec60b010c6a56b9|4f7ed72752764708a392f0a71db356d3ebfb1574902416b499f963606bae5544',#2,#4,#662,.T.);
#664=SURFACE_CURVE('',#146,(#271,#301),.PCURVE_S1.);
#665=EDGE_CURVE('OSCAD_TOPO/3|edge|e:df0781195ce468e12b8a1a762e3df4ca|a05b598ac40293bd60f7796432c4c34bb70543ea9b20264ebd633ef5e5bd102e',#4,#12,#664,.T.);
#666=SURFACE_CURVE('',#149,(#276,#346),.PCURVE_S1.);
#667=EDGE_CURVE('OSCAD_TOPO/3|edge|e:93d86b259c2241a77bd6b399a1ddf3bd|3c1d84ece75d08b8832b2f328ea1c157ae7e405d2c89f50e4ad765eecc090fcb',#10,#12,#666,.T.);
#668=SURFACE_CURVE('',#152,(#281,#331),.PCURVE_S1.);
#669=EDGE_CURVE('OSCAD_TOPO/3|edge|e:4737d7969e26772bf245e40f96a822b5|1f817ea791370eec6d00b72368b36dc24b8c049e359e963def5f699440444904',#2,#10,#668,.T.);
#670=SURFACE_CURVE('',#155,(#286,#616),.PCURVE_S1.);
#671=EDGE_CURVE('OSCAD_TOPO/3|edge|e:5beb7973cf903b82317ed47ed669fbf0|ea402064db4c489b4fafad127815d04c235783c40f5037668a2f42746d3d2519',#4,#6,#670,.T.);
#672=SURFACE_CURVE('',#158,(#291,#321),.PCURVE_S1.);
#673=EDGE_CURVE('OSCAD_TOPO/3|edge|e:d53a1912df670a9290228019662ddef6|35fb5d945a9bd6312e6859894557d5b13fcb70033e8e7c89c2ab41951b616f0c',#6,#14,#672,.T.);
#674=SURFACE_CURVE('',#161,(#296,#366),.PCURVE_S1.);
#675=EDGE_CURVE('OSCAD_TOPO/3|edge|e:a933b1bee838d8061aacc867f67be9a9|89abe139a991b42c82b1f82b88fb29d9fae973a3ab87d9d32c0a6305ae248919',#12,#14,#674,.T.);
#676=SURFACE_CURVE('',#164,(#306,#636),.PCURVE_S1.);
#677=EDGE_CURVE('OSCAD_TOPO/3|edge|e:52b0887ad22e1c324fe0e197bc6bd815|5c799bd85182d3e5e08b345a1e5489f745c8cc2bbba2aaaea3943027b3ac08ef',#6,#8,#676,.T.);
#678=SURFACE_CURVE('',#167,(#311,#341),.PCURVE_S1.);
#679=EDGE_CURVE('OSCAD_TOPO/3|edge|e:bb96c2fe9d6cb22c0e3c8b9359030c39|91120650a987433cbb9e150a7904c3236916d2cead9bc0245d7283e3bad043cc',#8,#16,#678,.T.);
#680=SURFACE_CURVE('',#170,(#316,#386),.PCURVE_S1.);
#681=EDGE_CURVE('OSCAD_TOPO/3|edge|e:58bcd76c4a43d36b87566c0e7284cc01|60574230078e8d97b68661847483352693bc6bdb6fe23bfa26e3c23cbc58c8c9',#14,#16,#680,.T.);
#682=SURFACE_CURVE('',#173,(#326,#656),.PCURVE_S1.);
#683=EDGE_CURVE('OSCAD_TOPO/3|edge|e:2e97dd794b4839bbc7f58458a89acf61|b3352e0f99fcf4ffb516e855b044f1051960398d33dedcbe422f17c3897425d3',#2,#8,#682,.T.);
#684=SURFACE_CURVE('',#176,(#336,#406),.PCURVE_S1.);
#685=EDGE_CURVE('OSCAD_TOPO/3|edge|e:8896cd849e63f2142e64f1b2294ef57f|7f08899594e7c710c662720c00e94f9066672b4c74fb259fd0f57f9b78bc207d',#10,#16,#684,.T.);
#686=SURFACE_CURVE('',#179,(#351,#381),.PCURVE_S1.);
#687=EDGE_CURVE('OSCAD_TOPO/3|edge|e:6b9ade002dcbb2b1287e4023663ce78f|b2d613fb3ed1f4a8bc897964326cc3afa8d33a68347acbdef5fdd37f51d1e11e',#12,#20,#686,.T.);
#688=SURFACE_CURVE('',#182,(#356,#426),.PCURVE_S1.);
#689=EDGE_CURVE('OSCAD_TOPO/3|edge|e:3154a7a0a3eb8f7e873c6fcdedd0bf34|0c86e00f7558feb72b04b46361ccb9bafb382e8ae919073bcf8d14812f8893fb',#18,#20,#688,.T.);
#690=SURFACE_CURVE('',#185,(#361,#411),.PCURVE_S1.);
#691=EDGE_CURVE('OSCAD_TOPO/3|edge|e:21b490778da3d503e5523a3ac57e8678|d6249003f7bfadc7841d0a626c11a91a43bcc27cb21988584f9285fffd2f6cb2',#10,#18,#690,.T.);
#692=SURFACE_CURVE('',#188,(#371,#401),.PCURVE_S1.);
#693=EDGE_CURVE('OSCAD_TOPO/3|edge|e:9372a4c5f550e5911693abe5a58b54d9|2897d79a73a2215dd73099b3d513426e3ce3f43b593a799fed55578a27d28337',#14,#22,#692,.T.);
#694=SURFACE_CURVE('',#191,(#376,#446),.PCURVE_S1.);
#695=EDGE_CURVE('OSCAD_TOPO/3|edge|e:99b6354ea8c3c0f7394f1f2d4184135c|90efe946bc5442845cf7479dadfc62abe195c7febcec4115b574c7af43e1942b',#20,#22,#694,.T.);
#696=SURFACE_CURVE('',#194,(#391,#421),.PCURVE_S1.);
#697=EDGE_CURVE('OSCAD_TOPO/3|edge|e:2d8a8647bad3bfc91b7747aa96366127|cb3f98e2b0ab4d5827042ded353b16f5f4ca5e40ef25aed9113c19bf0adc6e12',#16,#24,#696,.T.);
#698=SURFACE_CURVE('',#197,(#396,#466),.PCURVE_S1.);
#699=EDGE_CURVE('OSCAD_TOPO/3|edge|e:939d25444cbe087dae545cbf0fc74643|8b10585e5da813bee304ddc1248d4368df399881972cdb5ff5964cd698530714',#22,#24,#698,.T.);
#700=SURFACE_CURVE('',#200,(#416,#486),.PCURVE_S1.);
#701=EDGE_CURVE('OSCAD_TOPO/3|edge|e:561205c5340e987de981c9c3ab04d1f8|e1990c7cc272a53a81cf9dfacc44f37493daab9eafeddbecdc4e075f885f31dc',#18,#24,#700,.T.);
#702=SURFACE_CURVE('',#203,(#431,#461),.PCURVE_S1.);
#703=EDGE_CURVE('OSCAD_TOPO/3|edge|e:98dd95b37ca8d38d2007424df0f0b613|278f2249d68b821b869c8d4b7bb51aef5dfc6c62002a725770e5657203d99994',#20,#28,#702,.T.);
#704=SURFACE_CURVE('',#206,(#436,#506),.PCURVE_S1.);
#705=EDGE_CURVE('OSCAD_TOPO/3|edge|e:258d17e471627e65a59d8b8debbb5066|b61e434d211cbcd26382fdff652a304af1548704931f12c06d526547a76ad301',#26,#28,#704,.T.);
#706=SURFACE_CURVE('',#209,(#441,#491),.PCURVE_S1.);
#707=EDGE_CURVE('OSCAD_TOPO/3|edge|e:8f9d2203cd4c550793f9684bfe3e02d8|a674fcba53af79f6c2f953cf1121ae94be90744aa4c9bb4497f935bdee002cc5',#18,#26,#706,.T.);
#708=SURFACE_CURVE('',#212,(#451,#481),.PCURVE_S1.);
#709=EDGE_CURVE('OSCAD_TOPO/3|edge|e:ffc7995fca1a12fae5b62dac81553682|925117cedb6eaa1221f850aa545b2fc486ae053d2de6ea4c38cee00a5a8853a9',#22,#30,#708,.T.);
#710=SURFACE_CURVE('',#215,(#456,#526),.PCURVE_S1.);
#711=EDGE_CURVE('OSCAD_TOPO/3|edge|e:19050e7eaf271c6bc960b6bb9c218c59|1c50d1eadf19fff0acf8d8313dccb2952c9c2b62a045ec42ec7d0be1765429ca',#28,#30,#710,.T.);
#712=SURFACE_CURVE('',#218,(#471,#501),.PCURVE_S1.);
#713=EDGE_CURVE('OSCAD_TOPO/3|edge|e:05d8af4b0b25d9dded0bc825d64beac7|6f4ed369ac0e160d269d274e2938709a2a407697aabe53a95cd928be1537ad3b',#24,#32,#712,.T.);
#714=SURFACE_CURVE('',#221,(#476,#546),.PCURVE_S1.);
#715=EDGE_CURVE('OSCAD_TOPO/3|edge|e:5c1ff7ccc7a92c21b30f3988cfe493f1|a92b78dfbebdb8d1926d17e397756185a708362701a988f46a6b5852fd720169',#30,#32,#714,.T.);
#716=SURFACE_CURVE('',#224,(#496,#566),.PCURVE_S1.);
#717=EDGE_CURVE('OSCAD_TOPO/3|edge|e:23af057bef319b6ec6add6c2cff54326|079a2389848c53d7de9fa02919861900304c22977c1dc29c5190fa4127b2f273',#26,#32,#716,.T.);
#718=SURFACE_CURVE('',#227,(#511,#541),.PCURVE_S1.);
#719=EDGE_CURVE('OSCAD_TOPO/3|edge|e:9736dabb1f0a6e430389ab46c349a3e0|a3a3f0f55176a92b59733f0eb892dfb61f8ddf8d45d2b0ec4b569f554a744889',#28,#36,#718,.T.);
#720=SURFACE_CURVE('',#230,(#516,#586),.PCURVE_S1.);
#721=EDGE_CURVE('OSCAD_TOPO/3|edge|e:7f651ec71d4397375c2c6af696d682ce|1db9f3f9d0fd5ab40d598a2aad93aada1a49221b042f159e6ebe03df7cad774f',#34,#36,#720,.T.);
#722=SURFACE_CURVE('',#233,(#521,#571),.PCURVE_S1.);
#723=EDGE_CURVE('OSCAD_TOPO/3|edge|e:59921ff97cf9f66d57e5d073a4ef315d|2005c0d33f97e2ffc118a7886e8617ed192ad5add5c682a4d81bc941204d961f',#26,#34,#722,.T.);
#724=SURFACE_CURVE('',#236,(#531,#561),.PCURVE_S1.);
#725=EDGE_CURVE('OSCAD_TOPO/3|edge|e:3865477dc2dae838e4eda1c052a21337|fb3ebe3f72c8fcff51a9e65d8e3e6ab5473ef8129caee5a355b9ae5691b157b8',#30,#38,#724,.T.);
#726=SURFACE_CURVE('',#239,(#536,#606),.PCURVE_S1.);
#727=EDGE_CURVE('OSCAD_TOPO/3|edge|e:0f31ee4ef3fb339b530ba16f677d59c9|04b719074aa161751c5fa7d3ff77e9b9fc8d0b8714259ce9f5fb1cb9adcf9fd1',#36,#38,#726,.T.);
#728=SURFACE_CURVE('',#242,(#551,#581),.PCURVE_S1.);
#729=EDGE_CURVE('OSCAD_TOPO/3|edge|e:99e3c2493a6b9adba8d0cc78b0f47e4f|f19bee92d86ff2987b97de114e6125763971b8b25c44004fcb6197ca409cd69c',#32,#40,#728,.T.);
#730=SURFACE_CURVE('',#245,(#556,#626),.PCURVE_S1.);
#731=EDGE_CURVE('OSCAD_TOPO/3|edge|e:e307c17a1dd54b88c2b5a2dbc5822c2a|91e1fdc42ff794d4959a3619dee32db86b799432371f2986d3a61989c9bb35f8',#38,#40,#730,.T.);
#732=SURFACE_CURVE('',#248,(#576,#646),.PCURVE_S1.);
#733=EDGE_CURVE('OSCAD_TOPO/3|edge|e:c455eb69db3a1a9bf2d078795be855ac|d97e0cce40b8fa188c704e16c33179371377f5e28b1dd5ce55b1389840bf0179',#34,#40,#732,.T.);
#734=SURFACE_CURVE('',#251,(#591,#621),.PCURVE_S1.);
#735=EDGE_CURVE('OSCAD_TOPO/3|edge|e:8b2d44589788b6c9ee26ada6c2138583|91f1ad27b47218dbbebe3255a344f2792996fd75477b4a093d295a1c0ed9a7a7',#4,#36,#734,.T.);
#736=SURFACE_CURVE('',#254,(#601,#651),.PCURVE_S1.);
#737=EDGE_CURVE('OSCAD_TOPO/3|edge|e:9b9325f6fcaa129e09fe88b4ebae285f|2d56175c611931f247cf914f709e2c12509c222816408da3cc9d7d3449bde654',#2,#34,#736,.T.);
#738=SURFACE_CURVE('',#257,(#611,#641),.PCURVE_S1.);
#739=EDGE_CURVE('OSCAD_TOPO/3|edge|e:4a4f7a766a0d18410aaa4cf4d675d23e|8fd60badaef5be2f338d40b9a9ce9697a90c7b6f5d2ed59c1aec103ff27026f2',#6,#38,#738,.T.);
#740=SURFACE_CURVE('',#260,(#631,#661),.PCURVE_S1.);
#741=EDGE_CURVE('OSCAD_TOPO/3|edge|e:ba522c1849f6907219532a6340811ab2|4653b0456465c59cb94a9184854bea56eba369396ef2ceba27454a28a32c3bd6',#8,#40,#740,.T.);
#742=ORIENTED_EDGE('',*,*,#663,.T.);
#743=ORIENTED_EDGE('',*,*,#665,.T.);
#744=ORIENTED_EDGE('',*,*,#667,.F.);
#745=ORIENTED_EDGE('',*,*,#669,.F.);
#746=EDGE_LOOP('OSCAD_TOPO/3|loop|l:73f2cc66135403c3624bc21e06cd2c06|96bbbfaede6a40fbf44755d3bfc3178b289dee30f64c0ff51ad80b7b5d5febc2',(#742,#743,#744,#745));
#747=ORIENTED_EDGE('',*,*,#671,.T.);
#748=ORIENTED_EDGE('',*,*,#673,.T.);
#749=ORIENTED_EDGE('',*,*,#675,.F.);
#750=ORIENTED_EDGE('',*,*,#665,.F.);
#751=EDGE_LOOP('OSCAD_TOPO/3|loop|l:f91c35377e99e045810d89c293b23e7c|b3a45e947b0e92ae39b003beefd5e90303e096438a772ecbeda70e0717e53a53',(#747,#748,#749,#750));
#752=ORIENTED_EDGE('',*,*,#677,.T.);
#753=ORIENTED_EDGE('',*,*,#679,.T.);
#754=ORIENTED_EDGE('',*,*,#681,.F.);
#755=ORIENTED_EDGE('',*,*,#673,.F.);
#756=EDGE_LOOP('OSCAD_TOPO/3|loop|l:be1f4ad4e1de59f0edcc10869c14bf9f|8224ef951ec0f312dc2a95ca3b8300ff85c71543f771257e27820b776acf1191',(#752,#753,#754,#755));
#757=ORIENTED_EDGE('',*,*,#683,.F.);
#758=ORIENTED_EDGE('',*,*,#669,.T.);
#759=ORIENTED_EDGE('',*,*,#685,.T.);
#760=ORIENTED_EDGE('',*,*,#679,.F.);
#761=EDGE_LOOP('OSCAD_TOPO/3|loop|l:8a391e05990726366c231571aadfa635|8a3e51b70e613b8a312cc09d648980c3c055b3739db3011ec0f4adfecb2ffb11',(#757,#758,#759,#760));
#762=ORIENTED_EDGE('',*,*,#667,.T.);
#763=ORIENTED_EDGE('',*,*,#687,.T.);
#764=ORIENTED_EDGE('',*,*,#689,.F.);
#765=ORIENTED_EDGE('',*,*,#691,.F.);
#766=EDGE_LOOP('OSCAD_TOPO/3|loop|l:9d20f19fc1dcbb396435ff0dec727832|292ab8d7a47a7a19b83239b3bb1e4632b85e0db430dd9d892c452f812868a4f9',(#762,#763,#764,#765));
#767=ORIENTED_EDGE('',*,*,#675,.T.);
#768=ORIENTED_EDGE('',*,*,#693,.T.);
#769=ORIENTED_EDGE('',*,*,#695,.F.);
#770=ORIENTED_EDGE('',*,*,#687,.F.);
#771=EDGE_LOOP('OSCAD_TOPO/3|loop|l:d72c15f8ccbc8f11a51c9f7298e8cb68|1d429cd58a2ecb2f628830115b9a1485cdc22a0f7da93c3e9a784741bf3702b6',(#767,#768,#769,#770));
#772=ORIENTED_EDGE('',*,*,#681,.T.);
#773=ORIENTED_EDGE('',*,*,#697,.T.);
#774=ORIENTED_EDGE('',*,*,#699,.F.);
#775=ORIENTED_EDGE('',*,*,#693,.F.);
#776=EDGE_LOOP('OSCAD_TOPO/3|loop|l:3c1fe3d711765f2c370382d1a0e234e0|e8ddd6fce022126f555dd2746f4ee224dbf6e4806732f35b90a7083547b024ee',(#772,#773,#774,#775));
#777=ORIENTED_EDGE('',*,*,#685,.F.);
#778=ORIENTED_EDGE('',*,*,#691,.T.);
#779=ORIENTED_EDGE('',*,*,#701,.T.);
#780=ORIENTED_EDGE('',*,*,#697,.F.);
#781=EDGE_LOOP('OSCAD_TOPO/3|loop|l:6976544e50e490a32f4e289db848b8a2|a4632c162213d2df391ef17baa6165176565c23f6dd2037623c509939904137a',(#777,#778,#779,#780));
#782=ORIENTED_EDGE('',*,*,#689,.T.);
#783=ORIENTED_EDGE('',*,*,#703,.T.);
#784=ORIENTED_EDGE('',*,*,#705,.F.);
#785=ORIENTED_EDGE('',*,*,#707,.F.);
#786=EDGE_LOOP('OSCAD_TOPO/3|loop|l:36fef7aa80e8203cd5674977312ef890|c01d794054df66c2ac287e95cc7a3dcba592205a625744d2378d2a5d70eef1b3',(#782,#783,#784,#785));
#787=ORIENTED_EDGE('',*,*,#695,.T.);
#788=ORIENTED_EDGE('',*,*,#709,.T.);
#789=ORIENTED_EDGE('',*,*,#711,.F.);
#790=ORIENTED_EDGE('',*,*,#703,.F.);
#791=EDGE_LOOP('OSCAD_TOPO/3|loop|l:f61fadeacc9a8fe0315a3f9f8a1880dd|c679b54f6887174c8ee3088b57262b7d5527b76172a64892e4efa2e4da7ba8fd',(#787,#788,#789,#790));
#792=ORIENTED_EDGE('',*,*,#699,.T.);
#793=ORIENTED_EDGE('',*,*,#713,.T.);
#794=ORIENTED_EDGE('',*,*,#715,.F.);
#795=ORIENTED_EDGE('',*,*,#709,.F.);
#796=EDGE_LOOP('OSCAD_TOPO/3|loop|l:fb6e56bf7ade4bd55f434bf2ebe9527e|99ec9d0b088b11eeb499e7107fcd007facc8ffae1c710417dba837c690d10a3c',(#792,#793,#794,#795));
#797=ORIENTED_EDGE('',*,*,#701,.F.);
#798=ORIENTED_EDGE('',*,*,#707,.T.);
#799=ORIENTED_EDGE('',*,*,#717,.T.);
#800=ORIENTED_EDGE('',*,*,#713,.F.);
#801=EDGE_LOOP('OSCAD_TOPO/3|loop|l:2e63d64d177f8a491f375348d409a9f6|72f690e147064695909c3afc4cddc3d18dbac3a93ff74948277528ce72c6ec08',(#797,#798,#799,#800));
#802=ORIENTED_EDGE('',*,*,#705,.T.);
#803=ORIENTED_EDGE('',*,*,#719,.T.);
#804=ORIENTED_EDGE('',*,*,#721,.F.);
#805=ORIENTED_EDGE('',*,*,#723,.F.);
#806=EDGE_LOOP('OSCAD_TOPO/3|loop|l:c627ecf406f7d717293664410902bf2f|d13bccbc71943909eb1a0983a8207f1ab8730553a56e2b763daaa6dbd2650436',(#802,#803,#804,#805));
#807=ORIENTED_EDGE('',*,*,#711,.T.);
#808=ORIENTED_EDGE('',*,*,#725,.T.);
#809=ORIENTED_EDGE('',*,*,#727,.F.);
#810=ORIENTED_EDGE('',*,*,#719,.F.);
#811=EDGE_LOOP('OSCAD_TOPO/3|loop|l:5a5929c6e4786510d809c29625a8efd9|f315578b5b3cdc51b42280a74522bc07584258baf203be0dd82e9aef07f05cad',(#807,#808,#809,#810));
#812=ORIENTED_EDGE('',*,*,#715,.T.);
#813=ORIENTED_EDGE('',*,*,#729,.T.);
#814=ORIENTED_EDGE('',*,*,#731,.F.);
#815=ORIENTED_EDGE('',*,*,#725,.F.);
#816=EDGE_LOOP('OSCAD_TOPO/3|loop|l:13597b4ecee2121bd6343980b65adca5|87c9bef1484f928587dea63d3b91d7e6f4e71823b29a8a6c5a3143e1993aa90f',(#812,#813,#814,#815));
#817=ORIENTED_EDGE('',*,*,#717,.F.);
#818=ORIENTED_EDGE('',*,*,#723,.T.);
#819=ORIENTED_EDGE('',*,*,#733,.T.);
#820=ORIENTED_EDGE('',*,*,#729,.F.);
#821=EDGE_LOOP('OSCAD_TOPO/3|loop|l:4c8f93260bf5751c24582dfdafc87e6a|f81e11d20b26f4647cb9c1c7be5ebb7173f3fb6f37a85794cdc650cf7be93620',(#817,#818,#819,#820));
#822=ORIENTED_EDGE('',*,*,#721,.T.);
#823=ORIENTED_EDGE('',*,*,#735,.F.);
#824=ORIENTED_EDGE('',*,*,#663,.F.);
#825=ORIENTED_EDGE('',*,*,#737,.T.);
#826=EDGE_LOOP('OSCAD_TOPO/3|loop|l:36453f54fbac99e1a78fedef02722d6d|c343d8db86648e3d7d1afa61c15289fff326f8ae2d5f8937da396a2aa24bd853',(#822,#823,#824,#825));
#827=ORIENTED_EDGE('',*,*,#727,.T.);
#828=ORIENTED_EDGE('',*,*,#739,.F.);
#829=ORIENTED_EDGE('',*,*,#671,.F.);
#830=ORIENTED_EDGE('',*,*,#735,.T.);
#831=EDGE_LOOP('OSCAD_TOPO/3|loop|l:d89b9445d4ea9640e2dd9d8e57d4667c|2067e9ba13d24728e1a8514a7c9d5506698d9cd2fdf82dce59ee0ab3292bb5ad',(#827,#828,#829,#830));
#832=ORIENTED_EDGE('',*,*,#731,.T.);
#833=ORIENTED_EDGE('',*,*,#741,.F.);
#834=ORIENTED_EDGE('',*,*,#677,.F.);
#835=ORIENTED_EDGE('',*,*,#739,.T.);
#836=EDGE_LOOP('OSCAD_TOPO/3|loop|l:cc2d46ec126fda3f189b065279c5df9a|3e3f64a91ad4fa2455d19c5a0b3cfbd1f3d006d6be2481c8edc10f8132f5da33',(#832,#833,#834,#835));
#837=ORIENTED_EDGE('',*,*,#733,.F.);
#838=ORIENTED_EDGE('',*,*,#737,.F.);
#839=ORIENTED_EDGE('',*,*,#683,.T.);
#840=ORIENTED_EDGE('',*,*,#741,.T.);
#841=EDGE_LOOP('OSCAD_TOPO/3|loop|l:d27eb0e2bba50c829d056b1dfbb03c9e|755844844751cc59888b608d1d937ff8762b41ab2224dec342ba26d0b4200547',(#837,#838,#839,#840));
#842=FACE_OUTER_BOUND('',#746,.T.);
#843=ADVANCED_FACE('OSCAD_TOPO/3|face|f:d98e299aa34c569efcee68cb34a80cb0|1da02dfb00da5e5b839e1071b868db14237fd0b4c8313aa222a9a20dec8fc8e2',(#842),#45,.T.);
#844=FACE_OUTER_BOUND('',#751,.T.);
#845=ADVANCED_FACE('OSCAD_TOPO/3|face|f:1f794713c611017c1628ab1343aa0165|4deba9908461c8b6ceccb1884d6f2b3ecc352b1147700b7451131f23c646c57e',(#844),#50,.T.);
#846=FACE_OUTER_BOUND('',#756,.T.);
#847=ADVANCED_FACE('OSCAD_TOPO/3|face|f:559e2a75def1e10b4a64dd9f16f87fd4|28d11e7b77fd4372762b2778c87ed71518e5915f177aff093c4bc025d28058e7',(#846),#55,.T.);
#848=FACE_OUTER_BOUND('',#761,.T.);
#849=ADVANCED_FACE('OSCAD_TOPO/3|face|f:a806e02a7d1dc1840522e924d0ffd4fd|20147e4481cb792f7588aa458115465766b53d71c042b012b103396c5f482987',(#848),#60,.T.);
#850=FACE_OUTER_BOUND('',#766,.T.);
#851=ADVANCED_FACE('OSCAD_TOPO/3|face|f:296a1507f071b05304f7b4f10bc917f6|a5721c3fead01209a4933493e522bb19fd206b1496d401b2e66bee1930dd93fa',(#850),#65,.T.);
#852=FACE_OUTER_BOUND('',#771,.T.);
#853=ADVANCED_FACE('OSCAD_TOPO/3|face|f:b6589d3547a4fa7a5f1007308c1c173c|d0eed08f4613a369aeddcb9e0691b29a979f5888b2c46bb0d13d041a0f371b02',(#852),#70,.T.);
#854=FACE_OUTER_BOUND('',#776,.T.);
#855=ADVANCED_FACE('OSCAD_TOPO/3|face|f:4fd06062681ada14b0fd702d05c4ebc0|5679287b390bf0fb32c4b0b202456267e2bb274a007944a26862883f3042b5d6',(#854),#75,.T.);
#856=FACE_OUTER_BOUND('',#781,.T.);
#857=ADVANCED_FACE('OSCAD_TOPO/3|face|f:cd4a9d7481ced791306edc4b79c44f4d|d9bf2833ed56e528962e5cdd943508050adece86ce2b4a05770ea72e6947bd0d',(#856),#80,.T.);
#858=FACE_OUTER_BOUND('',#786,.T.);
#859=ADVANCED_FACE('OSCAD_TOPO/3|face|f:fda8ed4bdf25fe1e96c650c2155f2bf6|8d5c9d155022dc746c928983b8f31383bc854553b1b02e0d9c6cc7ad9f747f99',(#858),#85,.T.);
#860=FACE_OUTER_BOUND('',#791,.T.);
#861=ADVANCED_FACE('OSCAD_TOPO/3|face|f:5c237f4026bf450dd08a21ea5caa2b7f|bd2bdca1021c4208af79e900c03f52a6c32258db2757d634ba6dd3e279f6df0d',(#860),#90,.T.);
#862=FACE_OUTER_BOUND('',#796,.T.);
#863=ADVANCED_FACE('OSCAD_TOPO/3|face|f:de9ef4150c2b72784aea0c8632a7e1c9|76748638c6602b2802afe265433377eb8db08c090ab88ee2f34e7431ece7d01e',(#862),#95,.T.);
#864=FACE_OUTER_BOUND('',#801,.T.);
#865=ADVANCED_FACE('OSCAD_TOPO/3|face|f:48d8198a4f3d10e77329b06ed45939d4|b539c36049588b351fc61dedcfafd2167b188b61725fdeff3c6ace61bb9ee15e',(#864),#100,.T.);
#866=FACE_OUTER_BOUND('',#806,.T.);
#867=ADVANCED_FACE('OSCAD_TOPO/3|face|f:ea0d8fa0e790b0177fb87dcdbcaaa689|6ee986911ce6114e26780a088f2e12c3c9d02dd8715c283b04170bc55ceea0f2',(#866),#105,.T.);
#868=FACE_OUTER_BOUND('',#811,.T.);
#869=ADVANCED_FACE('OSCAD_TOPO/3|face|f:8f8ec3aaa5ccf8ccc682ebb8e69fedb9|d26a4e725e50f1164f75742b22984fbab6ca79a42fc6a38de1f8b4ba82132a85',(#868),#110,.T.);
#870=FACE_OUTER_BOUND('',#816,.T.);
#871=ADVANCED_FACE('OSCAD_TOPO/3|face|f:c4c8b889e007fb212f5267990ba3c710|4ba300de5301dbf0ae1ed42e6079432c460def9805290ef9dfd9bd52fd1225e6',(#870),#115,.T.);
#872=FACE_OUTER_BOUND('',#821,.T.);
#873=ADVANCED_FACE('OSCAD_TOPO/3|face|f:5cc2943719934edb436b5547e8b9c10d|ab366d10adc82d8d12138c12f0229a6b8344a9aedcdc952a3e149986bbfee813',(#872),#120,.T.);
#874=FACE_OUTER_BOUND('',#826,.T.);
#875=ADVANCED_FACE('OSCAD_TOPO/3|face|f:a97963cbb3145144780adb86d36881fa|bcfa4b9e365ff912b9290646d8adb6175829856e94553b7ab094f325b6aeff03',(#874),#125,.T.);
#876=FACE_OUTER_BOUND('',#831,.T.);
#877=ADVANCED_FACE('OSCAD_TOPO/3|face|f:75913297e66f3c9c66fb42a07563e005|938c97e2299e011b2e3dc0ce94fbea5d5c4dbd6c4a60f1b53f95a04f6ee24c65',(#876),#130,.T.);
#878=FACE_OUTER_BOUND('',#836,.T.);
#879=ADVANCED_FACE('OSCAD_TOPO/3|face|f:27195d3b8af65571d835fe9654110363|858a28ea0df6a8b45cb6c5c1d2e919d0e881c19fb60fb117408350071855377b',(#878),#135,.T.);
#880=FACE_OUTER_BOUND('',#841,.T.);
#881=ADVANCED_FACE('OSCAD_TOPO/3|face|f:e3d081683bd9c7d0bf299b1ab3a704b2|63d317b328bc1b72482ae5c730f522e270d97348ba44caeacc1dab0fac042b11',(#880),#140,.T.);
#882=CLOSED_SHELL('OSCAD_TOPO/3|shell|s:5f3c86145b3683fddfbd35541ebe0019|3328beaeff4532b9615aaeed7973b1af938585f6e085e9d7b2d613ad0f7caf14',(#843,#845,#847,#849,#851,#853,#855,#857,#859,#861,#863,#865,#867,#869,#871,#873,#875,#877,#879,#881));
#883=MANIFOLD_SOLID_BREP('OSCAD_TOPO/3|body|b:397600650979dd9509d4112c04b680b7|48747c08ceb58899c8515a3ee68452d660ea5fd104b8bd35abd7e10dde1b168d',#882);
#884=(LENGTH_UNIT()NAMED_UNIT(*)SI_UNIT(.MILLI.,.METRE.));
#885=UNCERTAINTY_MEASURE_WITH_UNIT(LENGTH_MEASURE(9.99999999999999955E-8),#884,'distance_accuracy_value','');
#886=(GEOMETRIC_REPRESENTATION_CONTEXT(3)GLOBAL_UNCERTAINTY_ASSIGNED_CONTEXT((#885))GLOBAL_UNIT_ASSIGNED_CONTEXT((#884))REPRESENTATION_CONTEXT('','3D'));
#887=ADVANCED_BREP_SHAPE_REPRESENTATION('',(#883),#886);
#888=APPLICATION_CONTEXT('managed model based 3d engineering');
#889=PRODUCT_CONTEXT('',#888,'mechanical');
#890=PRODUCT('model','model','',(#889));
#891=PRODUCT_DEFINITION_FORMATION('1','',#890);
#892=PRODUCT_DEFINITION_CONTEXT('part definition',#888,'design');
#893=PRODUCT_DEFINITION('design','',#891,#892);
#894=PRODUCT_DEFINITION_SHAPE('','',#893);
#895=SHAPE_DEFINITION_REPRESENTATION(#894,#887);
ENDSEC;
END-ISO-10303-21;
