ISO-10303-21;
HEADER;
FILE_DESCRIPTION(('OpenSCAD Viewer retained AP242 B-rep'),'2;1');
FILE_NAME('model.step','',(''),(''),'OpenSCAD Viewer','OpenSCAD Viewer','');
FILE_SCHEMA(('AP242_MANAGED_MODEL_BASED_3D_ENGINEERING_MIM_LF'));
ENDSEC;
DATA;
#1=CARTESIAN_POINT('',(5.00000000000000000E-1,0.00000000000000000E0,5.00000000000000000E-1));
#2=VERTEX_POINT('OSCAD_TOPO/3|vertex|v:0e6d4a07b0201a33d7c8c088b03fa571|c2c008b09215b0685ff2f4999125b05c87c4da0bc3a6326741a3dc7c1ddf60ba',#1);
#3=CARTESIAN_POINT('',(0.00000000000000000E0,5.00000000000000000E-1,5.00000000000000000E-1));
#4=VERTEX_POINT('OSCAD_TOPO/3|vertex|v:d2c9d309c8baeb414eb1dbc590614e81|d66f357fa75e4dcd1609a64d93d44964c086d42e8c1d801100abeaf246127a03',#3);
#5=CARTESIAN_POINT('',(-5.00000000000000000E-1,0.00000000000000000E0,-5.00000000000000000E-1));
#6=VERTEX_POINT('OSCAD_TOPO/3|vertex|v:f39579044843e9d81d49f18d635d7cb4|3789d4964a01416eae61e2f7639026c95ba84d8965093166ee32e635d0274bda',#5);
#7=CARTESIAN_POINT('',(0.00000000000000000E0,-5.00000000000000000E-1,-5.00000000000000000E-1));
#8=VERTEX_POINT('OSCAD_TOPO/3|vertex|v:accf73ee661a5f72096a66e2fe7d7ae1|efcf0c2935137c3097d551d0aa72d15099cd46af8021a04d03bee59a2abc0a44',#7);
#9=CARTESIAN_POINT('',(2.50000000000000000E-1,0.00000000000000000E0,2.50000000000000000E-1));
#10=VERTEX_POINT('OSCAD_TOPO/3|vertex|v:037eddff360781d04a6ed7e92c266a80|0676dbad72e325969687f07abd77e88e81141dd612c3adb6ccd43a42b4e2a3eb',#9);
#11=CARTESIAN_POINT('',(0.00000000000000000E0,-2.50000000000000000E-1,-2.50000000000000000E-1));
#12=VERTEX_POINT('OSCAD_TOPO/3|vertex|v:c9d8ce9e667290e0024d929e3d0aaf8b|95634f51c5ce1f1c95996d391fd762e1227fd12033fa2a5f78bca31c2fdd09cb',#11);
#13=CARTESIAN_POINT('',(-2.50000000000000000E-1,0.00000000000000000E0,-2.50000000000000000E-1));
#14=VERTEX_POINT('OSCAD_TOPO/3|vertex|v:a2a7e5a07a676c7fc6f21f1f7bc2f70d|cda370e90fa21035839f0194dd4cf4802ca0d738e97991f3bdbf9f081b8d88fc',#13);
#15=CARTESIAN_POINT('',(0.00000000000000000E0,2.50000000000000000E-1,2.50000000000000000E-1));
#16=VERTEX_POINT('OSCAD_TOPO/3|vertex|v:de1ed312fb4989a0f4c7402b8f81cfa3|8417c74f891906b84bacd67846fa646baeffa7f1c31d56a2aa65fbff39e69e81',#15);
#17=CARTESIAN_POINT('',(5.00000000000000000E-1,0.00000000000000000E0,1.05000000000000000E1));
#18=VERTEX_POINT('OSCAD_TOPO/3|vertex|v:65a2b94697f7764c0ec46e3cb7230a0b|4c4831c6ebb4e7b5aa81036a693987f69a13170f8bb24bc69164c724feace5f5',#17);
#19=CARTESIAN_POINT('',(0.00000000000000000E0,5.00000000000000000E-1,1.05000000000000000E1));
#20=VERTEX_POINT('OSCAD_TOPO/3|vertex|v:da250462cad98ea1106e7af565243070|36d647f5b246299dd679d589314476e352c9936f9151959e030e416fdeaffc84',#19);
#21=CARTESIAN_POINT('',(-5.00000000000000000E-1,0.00000000000000000E0,9.50000000000000000E0));
#22=VERTEX_POINT('OSCAD_TOPO/3|vertex|v:8d0803439123f86cda3112616073e6c8|7576590030b4b095463fed53c739b2dfda33a6c912229a5c5d797091115c6f8f',#21);
#23=CARTESIAN_POINT('',(0.00000000000000000E0,-5.00000000000000000E-1,9.50000000000000000E0));
#24=VERTEX_POINT('OSCAD_TOPO/3|vertex|v:27a54c3a2c883aafcc8fd51fdb6469d2|8ee98b505523185f5f79f02163b7cd1f0839207dec4abf0c1ecfac41b188c92e',#23);
#25=CARTESIAN_POINT('',(2.50000000000000000E-1,0.00000000000000000E0,1.02500000000000000E1));
#26=VERTEX_POINT('OSCAD_TOPO/3|vertex|v:f731fed2f44a3e662fe5e4a2201355bb|df3c1bd48be47cd299debd3a490e20d3d363bea2c78666a53c4b8de82127f31e',#25);
#27=CARTESIAN_POINT('',(0.00000000000000000E0,-2.50000000000000000E-1,9.75000000000000000E0));
#28=VERTEX_POINT('OSCAD_TOPO/3|vertex|v:01f918a0f7be4a6ba6ac055e80297742|86e6d2a35230a531cfeb72d6c12fa4d086c20e3fc54f3fbe7923925bbb6ae579',#27);
#29=CARTESIAN_POINT('',(-2.50000000000000000E-1,0.00000000000000000E0,9.75000000000000000E0));
#30=VERTEX_POINT('OSCAD_TOPO/3|vertex|v:3baaad985313c029dba5046a14ff055c|caccd02c7f5c3694afd1110baa7ecf1ddd15aa8fef5aad78fb60f0ad1097fa50',#29);
#31=CARTESIAN_POINT('',(0.00000000000000000E0,2.50000000000000000E-1,1.02500000000000000E1));
#32=VERTEX_POINT('OSCAD_TOPO/3|vertex|v:453028ed4cfae525f0a807faef30086c|f20cbbec43716e5ad300f512f4d1616622f6028eba27fd6461ecedb382a2e39c',#31);
#33=CARTESIAN_POINT('',(5.00000000000000000E-1,0.00000000000000000E0,5.00000000000000000E-1));
#34=CARTESIAN_POINT('',(5.00000000000000000E-1,0.00000000000000000E0,1.05000000000000000E1));
#35=CARTESIAN_POINT('',(5.00000000000000000E-1,5.00000000000000000E-1,1.00000000000000000E0));
#36=CARTESIAN_POINT('',(5.00000000000000000E-1,5.00000000000000000E-1,1.10000000000000000E1));
#37=CARTESIAN_POINT('',(0.00000000000000000E0,5.00000000000000000E-1,5.00000000000000000E-1));
#38=CARTESIAN_POINT('',(0.00000000000000000E0,5.00000000000000000E-1,1.05000000000000000E1));
#39=(BOUNDED_SURFACE()B_SPLINE_SURFACE(2,1,((#33,#34),(#35,#36),(#37,#38)),.UNSPECIFIED.,.F.,.F.,.F.)B_SPLINE_SURFACE_WITH_KNOTS((3,3),(2,2),(0.00000000000000000E0,1.00000000000000000E0),(0.00000000000000000E0,1.00000000000000000E0),.UNSPECIFIED.)GEOMETRIC_REPRESENTATION_ITEM()RATIONAL_B_SPLINE_SURFACE(((1.00000000000000000E0,1.00000000000000000E0),(7.07106781186547573E-1,7.07106781186547573E-1),(1.00000000000000000E0,1.00000000000000000E0)))REPRESENTATION_ITEM('')SURFACE());
#40=CARTESIAN_POINT('',(0.00000000000000000E0,5.00000000000000000E-1,5.00000000000000000E-1));
#41=CARTESIAN_POINT('',(0.00000000000000000E0,5.00000000000000000E-1,1.05000000000000000E1));
#42=CARTESIAN_POINT('',(-5.00000000000000000E-1,5.00000000000000000E-1,0.00000000000000000E0));
#43=CARTESIAN_POINT('',(-5.00000000000000000E-1,5.00000000000000000E-1,1.00000000000000000E1));
#44=CARTESIAN_POINT('',(-5.00000000000000000E-1,0.00000000000000000E0,-5.00000000000000000E-1));
#45=CARTESIAN_POINT('',(-5.00000000000000000E-1,0.00000000000000000E0,9.50000000000000000E0));
#46=(BOUNDED_SURFACE()B_SPLINE_SURFACE(2,1,((#40,#41),(#42,#43),(#44,#45)),.UNSPECIFIED.,.F.,.F.,.F.)B_SPLINE_SURFACE_WITH_KNOTS((3,3),(2,2),(0.00000000000000000E0,1.00000000000000000E0),(0.00000000000000000E0,1.00000000000000000E0),.UNSPECIFIED.)GEOMETRIC_REPRESENTATION_ITEM()RATIONAL_B_SPLINE_SURFACE(((1.00000000000000000E0,1.00000000000000000E0),(7.07106781186547573E-1,7.07106781186547573E-1),(1.00000000000000000E0,1.00000000000000000E0)))REPRESENTATION_ITEM('')SURFACE());
#47=CARTESIAN_POINT('',(-5.00000000000000000E-1,0.00000000000000000E0,-5.00000000000000000E-1));
#48=CARTESIAN_POINT('',(-5.00000000000000000E-1,0.00000000000000000E0,9.50000000000000000E0));
#49=CARTESIAN_POINT('',(-5.00000000000000000E-1,-5.00000000000000000E-1,-1.00000000000000000E0));
#50=CARTESIAN_POINT('',(-5.00000000000000000E-1,-5.00000000000000000E-1,9.00000000000000000E0));
#51=CARTESIAN_POINT('',(0.00000000000000000E0,-5.00000000000000000E-1,-5.00000000000000000E-1));
#52=CARTESIAN_POINT('',(0.00000000000000000E0,-5.00000000000000000E-1,9.50000000000000000E0));
#53=(BOUNDED_SURFACE()B_SPLINE_SURFACE(2,1,((#47,#48),(#49,#50),(#51,#52)),.UNSPECIFIED.,.F.,.F.,.F.)B_SPLINE_SURFACE_WITH_KNOTS((3,3),(2,2),(0.00000000000000000E0,1.00000000000000000E0),(0.00000000000000000E0,1.00000000000000000E0),.UNSPECIFIED.)GEOMETRIC_REPRESENTATION_ITEM()RATIONAL_B_SPLINE_SURFACE(((1.00000000000000000E0,1.00000000000000000E0),(7.07106781186547573E-1,7.07106781186547573E-1),(1.00000000000000000E0,1.00000000000000000E0)))REPRESENTATION_ITEM('')SURFACE());
#54=CARTESIAN_POINT('',(0.00000000000000000E0,-5.00000000000000000E-1,-5.00000000000000000E-1));
#55=CARTESIAN_POINT('',(0.00000000000000000E0,-5.00000000000000000E-1,9.50000000000000000E0));
#56=CARTESIAN_POINT('',(5.00000000000000000E-1,-5.00000000000000000E-1,0.00000000000000000E0));
#57=CARTESIAN_POINT('',(5.00000000000000000E-1,-5.00000000000000000E-1,1.00000000000000000E1));
#58=CARTESIAN_POINT('',(5.00000000000000000E-1,0.00000000000000000E0,5.00000000000000000E-1));
#59=CARTESIAN_POINT('',(5.00000000000000000E-1,0.00000000000000000E0,1.05000000000000000E1));
#60=(BOUNDED_SURFACE()B_SPLINE_SURFACE(2,1,((#54,#55),(#56,#57),(#58,#59)),.UNSPECIFIED.,.F.,.F.,.F.)B_SPLINE_SURFACE_WITH_KNOTS((3,3),(2,2),(0.00000000000000000E0,1.00000000000000000E0),(0.00000000000000000E0,1.00000000000000000E0),.UNSPECIFIED.)GEOMETRIC_REPRESENTATION_ITEM()RATIONAL_B_SPLINE_SURFACE(((1.00000000000000000E0,1.00000000000000000E0),(7.07106781186547573E-1,7.07106781186547573E-1),(1.00000000000000000E0,1.00000000000000000E0)))REPRESENTATION_ITEM('')SURFACE());
#61=CARTESIAN_POINT('',(2.50000000000000000E-1,0.00000000000000000E0,2.50000000000000000E-1));
#62=CARTESIAN_POINT('',(2.50000000000000000E-1,0.00000000000000000E0,1.02500000000000000E1));
#63=CARTESIAN_POINT('',(2.50000000000000000E-1,-2.50000000000000000E-1,0.00000000000000000E0));
#64=CARTESIAN_POINT('',(2.50000000000000000E-1,-2.50000000000000000E-1,1.00000000000000000E1));
#65=CARTESIAN_POINT('',(0.00000000000000000E0,-2.50000000000000000E-1,-2.50000000000000000E-1));
#66=CARTESIAN_POINT('',(0.00000000000000000E0,-2.50000000000000000E-1,9.75000000000000000E0));
#67=(BOUNDED_SURFACE()B_SPLINE_SURFACE(2,1,((#61,#62),(#63,#64),(#65,#66)),.UNSPECIFIED.,.F.,.F.,.F.)B_SPLINE_SURFACE_WITH_KNOTS((3,3),(2,2),(0.00000000000000000E0,1.00000000000000000E0),(0.00000000000000000E0,1.00000000000000000E0),.UNSPECIFIED.)GEOMETRIC_REPRESENTATION_ITEM()RATIONAL_B_SPLINE_SURFACE(((1.00000000000000000E0,1.00000000000000000E0),(7.07106781186547573E-1,7.07106781186547573E-1),(1.00000000000000000E0,1.00000000000000000E0)))REPRESENTATION_ITEM('')SURFACE());
#68=CARTESIAN_POINT('',(0.00000000000000000E0,-2.50000000000000000E-1,-2.50000000000000000E-1));
#69=CARTESIAN_POINT('',(0.00000000000000000E0,-2.50000000000000000E-1,9.75000000000000000E0));
#70=CARTESIAN_POINT('',(-2.50000000000000000E-1,-2.50000000000000000E-1,-5.00000000000000000E-1));
#71=CARTESIAN_POINT('',(-2.50000000000000000E-1,-2.50000000000000000E-1,9.50000000000000000E0));
#72=CARTESIAN_POINT('',(-2.50000000000000000E-1,0.00000000000000000E0,-2.50000000000000000E-1));
#73=CARTESIAN_POINT('',(-2.50000000000000000E-1,0.00000000000000000E0,9.75000000000000000E0));
#74=(BOUNDED_SURFACE()B_SPLINE_SURFACE(2,1,((#68,#69),(#70,#71),(#72,#73)),.UNSPECIFIED.,.F.,.F.,.F.)B_SPLINE_SURFACE_WITH_KNOTS((3,3),(2,2),(0.00000000000000000E0,1.00000000000000000E0),(0.00000000000000000E0,1.00000000000000000E0),.UNSPECIFIED.)GEOMETRIC_REPRESENTATION_ITEM()RATIONAL_B_SPLINE_SURFACE(((1.00000000000000000E0,1.00000000000000000E0),(7.07106781186547573E-1,7.07106781186547573E-1),(1.00000000000000000E0,1.00000000000000000E0)))REPRESENTATION_ITEM('')SURFACE());
#75=CARTESIAN_POINT('',(-2.50000000000000000E-1,0.00000000000000000E0,-2.50000000000000000E-1));
#76=CARTESIAN_POINT('',(-2.50000000000000000E-1,0.00000000000000000E0,9.75000000000000000E0));
#77=CARTESIAN_POINT('',(-2.50000000000000000E-1,2.50000000000000000E-1,0.00000000000000000E0));
#78=CARTESIAN_POINT('',(-2.50000000000000000E-1,2.50000000000000000E-1,1.00000000000000000E1));
#79=CARTESIAN_POINT('',(0.00000000000000000E0,2.50000000000000000E-1,2.50000000000000000E-1));
#80=CARTESIAN_POINT('',(0.00000000000000000E0,2.50000000000000000E-1,1.02500000000000000E1));
#81=(BOUNDED_SURFACE()B_SPLINE_SURFACE(2,1,((#75,#76),(#77,#78),(#79,#80)),.UNSPECIFIED.,.F.,.F.,.F.)B_SPLINE_SURFACE_WITH_KNOTS((3,3),(2,2),(0.00000000000000000E0,1.00000000000000000E0),(0.00000000000000000E0,1.00000000000000000E0),.UNSPECIFIED.)GEOMETRIC_REPRESENTATION_ITEM()RATIONAL_B_SPLINE_SURFACE(((1.00000000000000000E0,1.00000000000000000E0),(7.07106781186547573E-1,7.07106781186547573E-1),(1.00000000000000000E0,1.00000000000000000E0)))REPRESENTATION_ITEM('')SURFACE());
#82=CARTESIAN_POINT('',(0.00000000000000000E0,2.50000000000000000E-1,2.50000000000000000E-1));
#83=CARTESIAN_POINT('',(0.00000000000000000E0,2.50000000000000000E-1,1.02500000000000000E1));
#84=CARTESIAN_POINT('',(2.50000000000000000E-1,2.50000000000000000E-1,5.00000000000000000E-1));
#85=CARTESIAN_POINT('',(2.50000000000000000E-1,2.50000000000000000E-1,1.05000000000000000E1));
#86=CARTESIAN_POINT('',(2.50000000000000000E-1,0.00000000000000000E0,2.50000000000000000E-1));
#87=CARTESIAN_POINT('',(2.50000000000000000E-1,0.00000000000000000E0,1.02500000000000000E1));
#88=(BOUNDED_SURFACE()B_SPLINE_SURFACE(2,1,((#82,#83),(#84,#85),(#86,#87)),.UNSPECIFIED.,.F.,.F.,.F.)B_SPLINE_SURFACE_WITH_KNOTS((3,3),(2,2),(0.00000000000000000E0,1.00000000000000000E0),(0.00000000000000000E0,1.00000000000000000E0),.UNSPECIFIED.)GEOMETRIC_REPRESENTATION_ITEM()RATIONAL_B_SPLINE_SURFACE(((1.00000000000000000E0,1.00000000000000000E0),(7.07106781186547573E-1,7.07106781186547573E-1),(1.00000000000000000E0,1.00000000000000000E0)))REPRESENTATION_ITEM('')SURFACE());
#89=CARTESIAN_POINT('',(5.00000000000000000E-1,-5.00000000000000000E-1,0.00000000000000000E0));
#90=CARTESIAN_POINT('',(5.00000000000000000E-1,5.00000000000000000E-1,1.00000000000000000E0));
#91=CARTESIAN_POINT('',(-5.00000000000000000E-1,-5.00000000000000000E-1,-1.00000000000000000E0));
#92=CARTESIAN_POINT('',(-5.00000000000000000E-1,5.00000000000000000E-1,0.00000000000000000E0));
#93=B_SPLINE_SURFACE_WITH_KNOTS('',1,1,((#89,#90),(#91,#92)),.UNSPECIFIED.,.F.,.F.,.F.,(2,2),(2,2),(-5.00000000000000000E-1,5.00000000000000000E-1),(-5.00000000000000000E-1,5.00000000000000000E-1),.UNSPECIFIED.);
#94=CARTESIAN_POINT('',(-5.00000000000000000E-1,-5.00000000000000000E-1,9.00000000000000000E0));
#95=CARTESIAN_POINT('',(-5.00000000000000000E-1,5.00000000000000000E-1,1.00000000000000000E1));
#96=CARTESIAN_POINT('',(5.00000000000000000E-1,-5.00000000000000000E-1,1.00000000000000000E1));
#97=CARTESIAN_POINT('',(5.00000000000000000E-1,5.00000000000000000E-1,1.10000000000000000E1));
#98=B_SPLINE_SURFACE_WITH_KNOTS('',1,1,((#94,#95),(#96,#97)),.UNSPECIFIED.,.F.,.F.,.F.,(2,2),(2,2),(-5.00000000000000000E-1,5.00000000000000000E-1),(-5.00000000000000000E-1,5.00000000000000000E-1),.UNSPECIFIED.);
#99=CARTESIAN_POINT('',(5.00000000000000000E-1,0.00000000000000000E0,5.00000000000000000E-1));
#100=CARTESIAN_POINT('',(5.00000000000000000E-1,5.00000000000000000E-1,1.00000000000000000E0));
#101=CARTESIAN_POINT('',(0.00000000000000000E0,5.00000000000000000E-1,5.00000000000000000E-1));
#102=(BOUNDED_CURVE()B_SPLINE_CURVE(2,(#99,#100,#101),.UNSPECIFIED.,.F.,.F.)B_SPLINE_CURVE_WITH_KNOTS((3,3),(0.00000000000000000E0,1.00000000000000000E0),.UNSPECIFIED.)CURVE()GEOMETRIC_REPRESENTATION_ITEM()RATIONAL_B_SPLINE_CURVE((1.00000000000000000E0,7.07106781186547573E-1,1.00000000000000000E0))REPRESENTATION_ITEM(''));
#103=CARTESIAN_POINT('',(0.00000000000000000E0,5.00000000000000000E-1,5.00000000000000000E-1));
#104=CARTESIAN_POINT('',(0.00000000000000000E0,5.00000000000000000E-1,1.05000000000000000E1));
#105=B_SPLINE_CURVE_WITH_KNOTS('',1,(#103,#104),.UNSPECIFIED.,.F.,.F.,(2,2),(0.00000000000000000E0,1.00000000000000000E0),.UNSPECIFIED.);
#106=CARTESIAN_POINT('',(5.00000000000000000E-1,0.00000000000000000E0,1.05000000000000000E1));
#107=CARTESIAN_POINT('',(5.00000000000000000E-1,5.00000000000000000E-1,1.10000000000000000E1));
#108=CARTESIAN_POINT('',(0.00000000000000000E0,5.00000000000000000E-1,1.05000000000000000E1));
#109=(BOUNDED_CURVE()B_SPLINE_CURVE(2,(#106,#107,#108),.UNSPECIFIED.,.F.,.F.)B_SPLINE_CURVE_WITH_KNOTS((3,3),(0.00000000000000000E0,1.00000000000000000E0),.UNSPECIFIED.)CURVE()GEOMETRIC_REPRESENTATION_ITEM()RATIONAL_B_SPLINE_CURVE((1.00000000000000000E0,7.07106781186547573E-1,1.00000000000000000E0))REPRESENTATION_ITEM(''));
#110=CARTESIAN_POINT('',(5.00000000000000000E-1,0.00000000000000000E0,5.00000000000000000E-1));
#111=CARTESIAN_POINT('',(5.00000000000000000E-1,0.00000000000000000E0,1.05000000000000000E1));
#112=B_SPLINE_CURVE_WITH_KNOTS('',1,(#110,#111),.UNSPECIFIED.,.F.,.F.,(2,2),(0.00000000000000000E0,1.00000000000000000E0),.UNSPECIFIED.);
#113=CARTESIAN_POINT('',(0.00000000000000000E0,5.00000000000000000E-1,5.00000000000000000E-1));
#114=CARTESIAN_POINT('',(-5.00000000000000000E-1,5.00000000000000000E-1,0.00000000000000000E0));
#115=CARTESIAN_POINT('',(-5.00000000000000000E-1,0.00000000000000000E0,-5.00000000000000000E-1));
#116=(BOUNDED_CURVE()B_SPLINE_CURVE(2,(#113,#114,#115),.UNSPECIFIED.,.F.,.F.)B_SPLINE_CURVE_WITH_KNOTS((3,3),(0.00000000000000000E0,1.00000000000000000E0),.UNSPECIFIED.)CURVE()GEOMETRIC_REPRESENTATION_ITEM()RATIONAL_B_SPLINE_CURVE((1.00000000000000000E0,7.07106781186547573E-1,1.00000000000000000E0))REPRESENTATION_ITEM(''));
#117=CARTESIAN_POINT('',(-5.00000000000000000E-1,0.00000000000000000E0,-5.00000000000000000E-1));
#118=CARTESIAN_POINT('',(-5.00000000000000000E-1,0.00000000000000000E0,9.50000000000000000E0));
#119=B_SPLINE_CURVE_WITH_KNOTS('',1,(#117,#118),.UNSPECIFIED.,.F.,.F.,(2,2),(0.00000000000000000E0,1.00000000000000000E0),.UNSPECIFIED.);
#120=CARTESIAN_POINT('',(0.00000000000000000E0,5.00000000000000000E-1,1.05000000000000000E1));
#121=CARTESIAN_POINT('',(-5.00000000000000000E-1,5.00000000000000000E-1,1.00000000000000000E1));
#122=CARTESIAN_POINT('',(-5.00000000000000000E-1,0.00000000000000000E0,9.50000000000000000E0));
#123=(BOUNDED_CURVE()B_SPLINE_CURVE(2,(#120,#121,#122),.UNSPECIFIED.,.F.,.F.)B_SPLINE_CURVE_WITH_KNOTS((3,3),(0.00000000000000000E0,1.00000000000000000E0),.UNSPECIFIED.)CURVE()GEOMETRIC_REPRESENTATION_ITEM()RATIONAL_B_SPLINE_CURVE((1.00000000000000000E0,7.07106781186547573E-1,1.00000000000000000E0))REPRESENTATION_ITEM(''));
#124=CARTESIAN_POINT('',(-5.00000000000000000E-1,0.00000000000000000E0,-5.00000000000000000E-1));
#125=CARTESIAN_POINT('',(-5.00000000000000000E-1,-5.00000000000000000E-1,-1.00000000000000000E0));
#126=CARTESIAN_POINT('',(0.00000000000000000E0,-5.00000000000000000E-1,-5.00000000000000000E-1));
#127=(BOUNDED_CURVE()B_SPLINE_CURVE(2,(#124,#125,#126),.UNSPECIFIED.,.F.,.F.)B_SPLINE_CURVE_WITH_KNOTS((3,3),(0.00000000000000000E0,1.00000000000000000E0),.UNSPECIFIED.)CURVE()GEOMETRIC_REPRESENTATION_ITEM()RATIONAL_B_SPLINE_CURVE((1.00000000000000000E0,7.07106781186547573E-1,1.00000000000000000E0))REPRESENTATION_ITEM(''));
#128=CARTESIAN_POINT('',(0.00000000000000000E0,-5.00000000000000000E-1,-5.00000000000000000E-1));
#129=CARTESIAN_POINT('',(0.00000000000000000E0,-5.00000000000000000E-1,9.50000000000000000E0));
#130=B_SPLINE_CURVE_WITH_KNOTS('',1,(#128,#129),.UNSPECIFIED.,.F.,.F.,(2,2),(0.00000000000000000E0,1.00000000000000000E0),.UNSPECIFIED.);
#131=CARTESIAN_POINT('',(-5.00000000000000000E-1,0.00000000000000000E0,9.50000000000000000E0));
#132=CARTESIAN_POINT('',(-5.00000000000000000E-1,-5.00000000000000000E-1,9.00000000000000000E0));
#133=CARTESIAN_POINT('',(0.00000000000000000E0,-5.00000000000000000E-1,9.50000000000000000E0));
#134=(BOUNDED_CURVE()B_SPLINE_CURVE(2,(#131,#132,#133),.UNSPECIFIED.,.F.,.F.)B_SPLINE_CURVE_WITH_KNOTS((3,3),(0.00000000000000000E0,1.00000000000000000E0),.UNSPECIFIED.)CURVE()GEOMETRIC_REPRESENTATION_ITEM()RATIONAL_B_SPLINE_CURVE((1.00000000000000000E0,7.07106781186547573E-1,1.00000000000000000E0))REPRESENTATION_ITEM(''));
#135=CARTESIAN_POINT('',(5.00000000000000000E-1,0.00000000000000000E0,5.00000000000000000E-1));
#136=CARTESIAN_POINT('',(5.00000000000000000E-1,-5.00000000000000000E-1,0.00000000000000000E0));
#137=CARTESIAN_POINT('',(0.00000000000000000E0,-5.00000000000000000E-1,-5.00000000000000000E-1));
#138=(BOUNDED_CURVE()B_SPLINE_CURVE(2,(#135,#136,#137),.UNSPECIFIED.,.F.,.F.)B_SPLINE_CURVE_WITH_KNOTS((3,3),(0.00000000000000000E0,1.00000000000000000E0),.UNSPECIFIED.)CURVE()GEOMETRIC_REPRESENTATION_ITEM()RATIONAL_B_SPLINE_CURVE((1.00000000000000000E0,7.07106781186547573E-1,1.00000000000000000E0))REPRESENTATION_ITEM(''));
#139=CARTESIAN_POINT('',(5.00000000000000000E-1,0.00000000000000000E0,1.05000000000000000E1));
#140=CARTESIAN_POINT('',(5.00000000000000000E-1,-5.00000000000000000E-1,1.00000000000000000E1));
#141=CARTESIAN_POINT('',(0.00000000000000000E0,-5.00000000000000000E-1,9.50000000000000000E0));
#142=(BOUNDED_CURVE()B_SPLINE_CURVE(2,(#139,#140,#141),.UNSPECIFIED.,.F.,.F.)B_SPLINE_CURVE_WITH_KNOTS((3,3),(0.00000000000000000E0,1.00000000000000000E0),.UNSPECIFIED.)CURVE()GEOMETRIC_REPRESENTATION_ITEM()RATIONAL_B_SPLINE_CURVE((1.00000000000000000E0,7.07106781186547573E-1,1.00000000000000000E0))REPRESENTATION_ITEM(''));
#143=CARTESIAN_POINT('',(2.50000000000000000E-1,0.00000000000000000E0,2.50000000000000000E-1));
#144=CARTESIAN_POINT('',(2.50000000000000000E-1,-2.50000000000000000E-1,0.00000000000000000E0));
#145=CARTESIAN_POINT('',(0.00000000000000000E0,-2.50000000000000000E-1,-2.50000000000000000E-1));
#146=(BOUNDED_CURVE()B_SPLINE_CURVE(2,(#143,#144,#145),.UNSPECIFIED.,.F.,.F.)B_SPLINE_CURVE_WITH_KNOTS((3,3),(0.00000000000000000E0,1.00000000000000000E0),.UNSPECIFIED.)CURVE()GEOMETRIC_REPRESENTATION_ITEM()RATIONAL_B_SPLINE_CURVE((1.00000000000000000E0,7.07106781186547573E-1,1.00000000000000000E0))REPRESENTATION_ITEM(''));
#147=CARTESIAN_POINT('',(0.00000000000000000E0,-2.50000000000000000E-1,-2.50000000000000000E-1));
#148=CARTESIAN_POINT('',(0.00000000000000000E0,-2.50000000000000000E-1,9.75000000000000000E0));
#149=B_SPLINE_CURVE_WITH_KNOTS('',1,(#147,#148),.UNSPECIFIED.,.F.,.F.,(2,2),(0.00000000000000000E0,1.00000000000000000E0),.UNSPECIFIED.);
#150=CARTESIAN_POINT('',(2.50000000000000000E-1,0.00000000000000000E0,1.02500000000000000E1));
#151=CARTESIAN_POINT('',(2.50000000000000000E-1,-2.50000000000000000E-1,1.00000000000000000E1));
#152=CARTESIAN_POINT('',(0.00000000000000000E0,-2.50000000000000000E-1,9.75000000000000000E0));
#153=(BOUNDED_CURVE()B_SPLINE_CURVE(2,(#150,#151,#152),.UNSPECIFIED.,.F.,.F.)B_SPLINE_CURVE_WITH_KNOTS((3,3),(0.00000000000000000E0,1.00000000000000000E0),.UNSPECIFIED.)CURVE()GEOMETRIC_REPRESENTATION_ITEM()RATIONAL_B_SPLINE_CURVE((1.00000000000000000E0,7.07106781186547573E-1,1.00000000000000000E0))REPRESENTATION_ITEM(''));
#154=CARTESIAN_POINT('',(2.50000000000000000E-1,0.00000000000000000E0,2.50000000000000000E-1));
#155=CARTESIAN_POINT('',(2.50000000000000000E-1,0.00000000000000000E0,1.02500000000000000E1));
#156=B_SPLINE_CURVE_WITH_KNOTS('',1,(#154,#155),.UNSPECIFIED.,.F.,.F.,(2,2),(0.00000000000000000E0,1.00000000000000000E0),.UNSPECIFIED.);
#157=CARTESIAN_POINT('',(0.00000000000000000E0,-2.50000000000000000E-1,-2.50000000000000000E-1));
#158=CARTESIAN_POINT('',(-2.50000000000000000E-1,-2.50000000000000000E-1,-5.00000000000000000E-1));
#159=CARTESIAN_POINT('',(-2.50000000000000000E-1,0.00000000000000000E0,-2.50000000000000000E-1));
#160=(BOUNDED_CURVE()B_SPLINE_CURVE(2,(#157,#158,#159),.UNSPECIFIED.,.F.,.F.)B_SPLINE_CURVE_WITH_KNOTS((3,3),(0.00000000000000000E0,1.00000000000000000E0),.UNSPECIFIED.)CURVE()GEOMETRIC_REPRESENTATION_ITEM()RATIONAL_B_SPLINE_CURVE((1.00000000000000000E0,7.07106781186547573E-1,1.00000000000000000E0))REPRESENTATION_ITEM(''));
#161=CARTESIAN_POINT('',(-2.50000000000000000E-1,0.00000000000000000E0,-2.50000000000000000E-1));
#162=CARTESIAN_POINT('',(-2.50000000000000000E-1,0.00000000000000000E0,9.75000000000000000E0));
#163=B_SPLINE_CURVE_WITH_KNOTS('',1,(#161,#162),.UNSPECIFIED.,.F.,.F.,(2,2),(0.00000000000000000E0,1.00000000000000000E0),.UNSPECIFIED.);
#164=CARTESIAN_POINT('',(0.00000000000000000E0,-2.50000000000000000E-1,9.75000000000000000E0));
#165=CARTESIAN_POINT('',(-2.50000000000000000E-1,-2.50000000000000000E-1,9.50000000000000000E0));
#166=CARTESIAN_POINT('',(-2.50000000000000000E-1,0.00000000000000000E0,9.75000000000000000E0));
#167=(BOUNDED_CURVE()B_SPLINE_CURVE(2,(#164,#165,#166),.UNSPECIFIED.,.F.,.F.)B_SPLINE_CURVE_WITH_KNOTS((3,3),(0.00000000000000000E0,1.00000000000000000E0),.UNSPECIFIED.)CURVE()GEOMETRIC_REPRESENTATION_ITEM()RATIONAL_B_SPLINE_CURVE((1.00000000000000000E0,7.07106781186547573E-1,1.00000000000000000E0))REPRESENTATION_ITEM(''));
#168=CARTESIAN_POINT('',(-2.50000000000000000E-1,0.00000000000000000E0,-2.50000000000000000E-1));
#169=CARTESIAN_POINT('',(-2.50000000000000000E-1,2.50000000000000000E-1,0.00000000000000000E0));
#170=CARTESIAN_POINT('',(0.00000000000000000E0,2.50000000000000000E-1,2.50000000000000000E-1));
#171=(BOUNDED_CURVE()B_SPLINE_CURVE(2,(#168,#169,#170),.UNSPECIFIED.,.F.,.F.)B_SPLINE_CURVE_WITH_KNOTS((3,3),(0.00000000000000000E0,1.00000000000000000E0),.UNSPECIFIED.)CURVE()GEOMETRIC_REPRESENTATION_ITEM()RATIONAL_B_SPLINE_CURVE((1.00000000000000000E0,7.07106781186547573E-1,1.00000000000000000E0))REPRESENTATION_ITEM(''));
#172=CARTESIAN_POINT('',(0.00000000000000000E0,2.50000000000000000E-1,2.50000000000000000E-1));
#173=CARTESIAN_POINT('',(0.00000000000000000E0,2.50000000000000000E-1,1.02500000000000000E1));
#174=B_SPLINE_CURVE_WITH_KNOTS('',1,(#172,#173),.UNSPECIFIED.,.F.,.F.,(2,2),(0.00000000000000000E0,1.00000000000000000E0),.UNSPECIFIED.);
#175=CARTESIAN_POINT('',(-2.50000000000000000E-1,0.00000000000000000E0,9.75000000000000000E0));
#176=CARTESIAN_POINT('',(-2.50000000000000000E-1,2.50000000000000000E-1,1.00000000000000000E1));
#177=CARTESIAN_POINT('',(0.00000000000000000E0,2.50000000000000000E-1,1.02500000000000000E1));
#178=(BOUNDED_CURVE()B_SPLINE_CURVE(2,(#175,#176,#177),.UNSPECIFIED.,.F.,.F.)B_SPLINE_CURVE_WITH_KNOTS((3,3),(0.00000000000000000E0,1.00000000000000000E0),.UNSPECIFIED.)CURVE()GEOMETRIC_REPRESENTATION_ITEM()RATIONAL_B_SPLINE_CURVE((1.00000000000000000E0,7.07106781186547573E-1,1.00000000000000000E0))REPRESENTATION_ITEM(''));
#179=CARTESIAN_POINT('',(2.50000000000000000E-1,0.00000000000000000E0,2.50000000000000000E-1));
#180=CARTESIAN_POINT('',(2.50000000000000000E-1,2.50000000000000000E-1,5.00000000000000000E-1));
#181=CARTESIAN_POINT('',(0.00000000000000000E0,2.50000000000000000E-1,2.50000000000000000E-1));
#182=(BOUNDED_CURVE()B_SPLINE_CURVE(2,(#179,#180,#181),.UNSPECIFIED.,.F.,.F.)B_SPLINE_CURVE_WITH_KNOTS((3,3),(0.00000000000000000E0,1.00000000000000000E0),.UNSPECIFIED.)CURVE()GEOMETRIC_REPRESENTATION_ITEM()RATIONAL_B_SPLINE_CURVE((1.00000000000000000E0,7.07106781186547573E-1,1.00000000000000000E0))REPRESENTATION_ITEM(''));
#183=CARTESIAN_POINT('',(2.50000000000000000E-1,0.00000000000000000E0,1.02500000000000000E1));
#184=CARTESIAN_POINT('',(2.50000000000000000E-1,2.50000000000000000E-1,1.05000000000000000E1));
#185=CARTESIAN_POINT('',(0.00000000000000000E0,2.50000000000000000E-1,1.02500000000000000E1));
#186=(BOUNDED_CURVE()B_SPLINE_CURVE(2,(#183,#184,#185),.UNSPECIFIED.,.F.,.F.)B_SPLINE_CURVE_WITH_KNOTS((3,3),(0.00000000000000000E0,1.00000000000000000E0),.UNSPECIFIED.)CURVE()GEOMETRIC_REPRESENTATION_ITEM()RATIONAL_B_SPLINE_CURVE((1.00000000000000000E0,7.07106781186547573E-1,1.00000000000000000E0))REPRESENTATION_ITEM(''));
#187=(GEOMETRIC_REPRESENTATION_CONTEXT(2)REPRESENTATION_CONTEXT('','2D'));
#188=CARTESIAN_POINT('',(0.00000000000000000E0,0.00000000000000000E0));
#189=CARTESIAN_POINT('',(1.00000000000000000E0,0.00000000000000000E0));
#190=B_SPLINE_CURVE_WITH_KNOTS('',1,(#188,#189),.UNSPECIFIED.,.F.,.F.,(2,2),(0.00000000000000000E0,1.00000000000000000E0),.UNSPECIFIED.);
#191=DEFINITIONAL_REPRESENTATION('',(#190),#187);
#192=PCURVE('',#39,#191);
#193=CARTESIAN_POINT('',(1.00000000000000000E0,0.00000000000000000E0));
#194=CARTESIAN_POINT('',(1.00000000000000000E0,1.00000000000000000E0));
#195=B_SPLINE_CURVE_WITH_KNOTS('',1,(#193,#194),.UNSPECIFIED.,.F.,.F.,(2,2),(0.00000000000000000E0,1.00000000000000000E0),.UNSPECIFIED.);
#196=DEFINITIONAL_REPRESENTATION('',(#195),#187);
#197=PCURVE('',#39,#196);
#198=CARTESIAN_POINT('',(1.00000000000000000E0,1.00000000000000000E0));
#199=CARTESIAN_POINT('',(0.00000000000000000E0,1.00000000000000000E0));
#200=B_SPLINE_CURVE_WITH_KNOTS('',1,(#198,#199),.UNSPECIFIED.,.F.,.F.,(2,2),(0.00000000000000000E0,1.00000000000000000E0),.UNSPECIFIED.);
#201=DEFINITIONAL_REPRESENTATION('',(#200),#187);
#202=PCURVE('',#39,#201);
#203=CARTESIAN_POINT('',(0.00000000000000000E0,1.00000000000000000E0));
#204=CARTESIAN_POINT('',(0.00000000000000000E0,0.00000000000000000E0));
#205=B_SPLINE_CURVE_WITH_KNOTS('',1,(#203,#204),.UNSPECIFIED.,.F.,.F.,(2,2),(0.00000000000000000E0,1.00000000000000000E0),.UNSPECIFIED.);
#206=DEFINITIONAL_REPRESENTATION('',(#205),#187);
#207=PCURVE('',#39,#206);
#208=CARTESIAN_POINT('',(0.00000000000000000E0,0.00000000000000000E0));
#209=CARTESIAN_POINT('',(1.00000000000000000E0,0.00000000000000000E0));
#210=B_SPLINE_CURVE_WITH_KNOTS('',1,(#208,#209),.UNSPECIFIED.,.F.,.F.,(2,2),(0.00000000000000000E0,1.00000000000000000E0),.UNSPECIFIED.);
#211=DEFINITIONAL_REPRESENTATION('',(#210),#187);
#212=PCURVE('',#46,#211);
#213=CARTESIAN_POINT('',(1.00000000000000000E0,0.00000000000000000E0));
#214=CARTESIAN_POINT('',(1.00000000000000000E0,1.00000000000000000E0));
#215=B_SPLINE_CURVE_WITH_KNOTS('',1,(#213,#214),.UNSPECIFIED.,.F.,.F.,(2,2),(0.00000000000000000E0,1.00000000000000000E0),.UNSPECIFIED.);
#216=DEFINITIONAL_REPRESENTATION('',(#215),#187);
#217=PCURVE('',#46,#216);
#218=CARTESIAN_POINT('',(1.00000000000000000E0,1.00000000000000000E0));
#219=CARTESIAN_POINT('',(0.00000000000000000E0,1.00000000000000000E0));
#220=B_SPLINE_CURVE_WITH_KNOTS('',1,(#218,#219),.UNSPECIFIED.,.F.,.F.,(2,2),(0.00000000000000000E0,1.00000000000000000E0),.UNSPECIFIED.);
#221=DEFINITIONAL_REPRESENTATION('',(#220),#187);
#222=PCURVE('',#46,#221);
#223=CARTESIAN_POINT('',(0.00000000000000000E0,1.00000000000000000E0));
#224=CARTESIAN_POINT('',(0.00000000000000000E0,0.00000000000000000E0));
#225=B_SPLINE_CURVE_WITH_KNOTS('',1,(#223,#224),.UNSPECIFIED.,.F.,.F.,(2,2),(0.00000000000000000E0,1.00000000000000000E0),.UNSPECIFIED.);
#226=DEFINITIONAL_REPRESENTATION('',(#225),#187);
#227=PCURVE('',#46,#226);
#228=CARTESIAN_POINT('',(0.00000000000000000E0,0.00000000000000000E0));
#229=CARTESIAN_POINT('',(1.00000000000000000E0,0.00000000000000000E0));
#230=B_SPLINE_CURVE_WITH_KNOTS('',1,(#228,#229),.UNSPECIFIED.,.F.,.F.,(2,2),(0.00000000000000000E0,1.00000000000000000E0),.UNSPECIFIED.);
#231=DEFINITIONAL_REPRESENTATION('',(#230),#187);
#232=PCURVE('',#53,#231);
#233=CARTESIAN_POINT('',(1.00000000000000000E0,0.00000000000000000E0));
#234=CARTESIAN_POINT('',(1.00000000000000000E0,1.00000000000000000E0));
#235=B_SPLINE_CURVE_WITH_KNOTS('',1,(#233,#234),.UNSPECIFIED.,.F.,.F.,(2,2),(0.00000000000000000E0,1.00000000000000000E0),.UNSPECIFIED.);
#236=DEFINITIONAL_REPRESENTATION('',(#235),#187);
#237=PCURVE('',#53,#236);
#238=CARTESIAN_POINT('',(1.00000000000000000E0,1.00000000000000000E0));
#239=CARTESIAN_POINT('',(0.00000000000000000E0,1.00000000000000000E0));
#240=B_SPLINE_CURVE_WITH_KNOTS('',1,(#238,#239),.UNSPECIFIED.,.F.,.F.,(2,2),(0.00000000000000000E0,1.00000000000000000E0),.UNSPECIFIED.);
#241=DEFINITIONAL_REPRESENTATION('',(#240),#187);
#242=PCURVE('',#53,#241);
#243=CARTESIAN_POINT('',(0.00000000000000000E0,1.00000000000000000E0));
#244=CARTESIAN_POINT('',(0.00000000000000000E0,0.00000000000000000E0));
#245=B_SPLINE_CURVE_WITH_KNOTS('',1,(#243,#244),.UNSPECIFIED.,.F.,.F.,(2,2),(0.00000000000000000E0,1.00000000000000000E0),.UNSPECIFIED.);
#246=DEFINITIONAL_REPRESENTATION('',(#245),#187);
#247=PCURVE('',#53,#246);
#248=CARTESIAN_POINT('',(0.00000000000000000E0,0.00000000000000000E0));
#249=CARTESIAN_POINT('',(1.00000000000000000E0,0.00000000000000000E0));
#250=B_SPLINE_CURVE_WITH_KNOTS('',1,(#248,#249),.UNSPECIFIED.,.F.,.F.,(2,2),(0.00000000000000000E0,1.00000000000000000E0),.UNSPECIFIED.);
#251=DEFINITIONAL_REPRESENTATION('',(#250),#187);
#252=PCURVE('',#60,#251);
#253=CARTESIAN_POINT('',(1.00000000000000000E0,0.00000000000000000E0));
#254=CARTESIAN_POINT('',(1.00000000000000000E0,1.00000000000000000E0));
#255=B_SPLINE_CURVE_WITH_KNOTS('',1,(#253,#254),.UNSPECIFIED.,.F.,.F.,(2,2),(0.00000000000000000E0,1.00000000000000000E0),.UNSPECIFIED.);
#256=DEFINITIONAL_REPRESENTATION('',(#255),#187);
#257=PCURVE('',#60,#256);
#258=CARTESIAN_POINT('',(1.00000000000000000E0,1.00000000000000000E0));
#259=CARTESIAN_POINT('',(0.00000000000000000E0,1.00000000000000000E0));
#260=B_SPLINE_CURVE_WITH_KNOTS('',1,(#258,#259),.UNSPECIFIED.,.F.,.F.,(2,2),(0.00000000000000000E0,1.00000000000000000E0),.UNSPECIFIED.);
#261=DEFINITIONAL_REPRESENTATION('',(#260),#187);
#262=PCURVE('',#60,#261);
#263=CARTESIAN_POINT('',(0.00000000000000000E0,1.00000000000000000E0));
#264=CARTESIAN_POINT('',(0.00000000000000000E0,0.00000000000000000E0));
#265=B_SPLINE_CURVE_WITH_KNOTS('',1,(#263,#264),.UNSPECIFIED.,.F.,.F.,(2,2),(0.00000000000000000E0,1.00000000000000000E0),.UNSPECIFIED.);
#266=DEFINITIONAL_REPRESENTATION('',(#265),#187);
#267=PCURVE('',#60,#266);
#268=CARTESIAN_POINT('',(0.00000000000000000E0,0.00000000000000000E0));
#269=CARTESIAN_POINT('',(1.00000000000000000E0,0.00000000000000000E0));
#270=B_SPLINE_CURVE_WITH_KNOTS('',1,(#268,#269),.UNSPECIFIED.,.F.,.F.,(2,2),(0.00000000000000000E0,1.00000000000000000E0),.UNSPECIFIED.);
#271=DEFINITIONAL_REPRESENTATION('',(#270),#187);
#272=PCURVE('',#67,#271);
#273=CARTESIAN_POINT('',(1.00000000000000000E0,0.00000000000000000E0));
#274=CARTESIAN_POINT('',(1.00000000000000000E0,1.00000000000000000E0));
#275=B_SPLINE_CURVE_WITH_KNOTS('',1,(#273,#274),.UNSPECIFIED.,.F.,.F.,(2,2),(0.00000000000000000E0,1.00000000000000000E0),.UNSPECIFIED.);
#276=DEFINITIONAL_REPRESENTATION('',(#275),#187);
#277=PCURVE('',#67,#276);
#278=CARTESIAN_POINT('',(1.00000000000000000E0,1.00000000000000000E0));
#279=CARTESIAN_POINT('',(0.00000000000000000E0,1.00000000000000000E0));
#280=B_SPLINE_CURVE_WITH_KNOTS('',1,(#278,#279),.UNSPECIFIED.,.F.,.F.,(2,2),(0.00000000000000000E0,1.00000000000000000E0),.UNSPECIFIED.);
#281=DEFINITIONAL_REPRESENTATION('',(#280),#187);
#282=PCURVE('',#67,#281);
#283=CARTESIAN_POINT('',(0.00000000000000000E0,1.00000000000000000E0));
#284=CARTESIAN_POINT('',(0.00000000000000000E0,0.00000000000000000E0));
#285=B_SPLINE_CURVE_WITH_KNOTS('',1,(#283,#284),.UNSPECIFIED.,.F.,.F.,(2,2),(0.00000000000000000E0,1.00000000000000000E0),.UNSPECIFIED.);
#286=DEFINITIONAL_REPRESENTATION('',(#285),#187);
#287=PCURVE('',#67,#286);
#288=CARTESIAN_POINT('',(0.00000000000000000E0,0.00000000000000000E0));
#289=CARTESIAN_POINT('',(1.00000000000000000E0,0.00000000000000000E0));
#290=B_SPLINE_CURVE_WITH_KNOTS('',1,(#288,#289),.UNSPECIFIED.,.F.,.F.,(2,2),(0.00000000000000000E0,1.00000000000000000E0),.UNSPECIFIED.);
#291=DEFINITIONAL_REPRESENTATION('',(#290),#187);
#292=PCURVE('',#74,#291);
#293=CARTESIAN_POINT('',(1.00000000000000000E0,0.00000000000000000E0));
#294=CARTESIAN_POINT('',(1.00000000000000000E0,1.00000000000000000E0));
#295=B_SPLINE_CURVE_WITH_KNOTS('',1,(#293,#294),.UNSPECIFIED.,.F.,.F.,(2,2),(0.00000000000000000E0,1.00000000000000000E0),.UNSPECIFIED.);
#296=DEFINITIONAL_REPRESENTATION('',(#295),#187);
#297=PCURVE('',#74,#296);
#298=CARTESIAN_POINT('',(1.00000000000000000E0,1.00000000000000000E0));
#299=CARTESIAN_POINT('',(0.00000000000000000E0,1.00000000000000000E0));
#300=B_SPLINE_CURVE_WITH_KNOTS('',1,(#298,#299),.UNSPECIFIED.,.F.,.F.,(2,2),(0.00000000000000000E0,1.00000000000000000E0),.UNSPECIFIED.);
#301=DEFINITIONAL_REPRESENTATION('',(#300),#187);
#302=PCURVE('',#74,#301);
#303=CARTESIAN_POINT('',(0.00000000000000000E0,1.00000000000000000E0));
#304=CARTESIAN_POINT('',(0.00000000000000000E0,0.00000000000000000E0));
#305=B_SPLINE_CURVE_WITH_KNOTS('',1,(#303,#304),.UNSPECIFIED.,.F.,.F.,(2,2),(0.00000000000000000E0,1.00000000000000000E0),.UNSPECIFIED.);
#306=DEFINITIONAL_REPRESENTATION('',(#305),#187);
#307=PCURVE('',#74,#306);
#308=CARTESIAN_POINT('',(0.00000000000000000E0,0.00000000000000000E0));
#309=CARTESIAN_POINT('',(1.00000000000000000E0,0.00000000000000000E0));
#310=B_SPLINE_CURVE_WITH_KNOTS('',1,(#308,#309),.UNSPECIFIED.,.F.,.F.,(2,2),(0.00000000000000000E0,1.00000000000000000E0),.UNSPECIFIED.);
#311=DEFINITIONAL_REPRESENTATION('',(#310),#187);
#312=PCURVE('',#81,#311);
#313=CARTESIAN_POINT('',(1.00000000000000000E0,0.00000000000000000E0));
#314=CARTESIAN_POINT('',(1.00000000000000000E0,1.00000000000000000E0));
#315=B_SPLINE_CURVE_WITH_KNOTS('',1,(#313,#314),.UNSPECIFIED.,.F.,.F.,(2,2),(0.00000000000000000E0,1.00000000000000000E0),.UNSPECIFIED.);
#316=DEFINITIONAL_REPRESENTATION('',(#315),#187);
#317=PCURVE('',#81,#316);
#318=CARTESIAN_POINT('',(1.00000000000000000E0,1.00000000000000000E0));
#319=CARTESIAN_POINT('',(0.00000000000000000E0,1.00000000000000000E0));
#320=B_SPLINE_CURVE_WITH_KNOTS('',1,(#318,#319),.UNSPECIFIED.,.F.,.F.,(2,2),(0.00000000000000000E0,1.00000000000000000E0),.UNSPECIFIED.);
#321=DEFINITIONAL_REPRESENTATION('',(#320),#187);
#322=PCURVE('',#81,#321);
#323=CARTESIAN_POINT('',(0.00000000000000000E0,1.00000000000000000E0));
#324=CARTESIAN_POINT('',(0.00000000000000000E0,0.00000000000000000E0));
#325=B_SPLINE_CURVE_WITH_KNOTS('',1,(#323,#324),.UNSPECIFIED.,.F.,.F.,(2,2),(0.00000000000000000E0,1.00000000000000000E0),.UNSPECIFIED.);
#326=DEFINITIONAL_REPRESENTATION('',(#325),#187);
#327=PCURVE('',#81,#326);
#328=CARTESIAN_POINT('',(0.00000000000000000E0,0.00000000000000000E0));
#329=CARTESIAN_POINT('',(1.00000000000000000E0,0.00000000000000000E0));
#330=B_SPLINE_CURVE_WITH_KNOTS('',1,(#328,#329),.UNSPECIFIED.,.F.,.F.,(2,2),(0.00000000000000000E0,1.00000000000000000E0),.UNSPECIFIED.);
#331=DEFINITIONAL_REPRESENTATION('',(#330),#187);
#332=PCURVE('',#88,#331);
#333=CARTESIAN_POINT('',(1.00000000000000000E0,0.00000000000000000E0));
#334=CARTESIAN_POINT('',(1.00000000000000000E0,1.00000000000000000E0));
#335=B_SPLINE_CURVE_WITH_KNOTS('',1,(#333,#334),.UNSPECIFIED.,.F.,.F.,(2,2),(0.00000000000000000E0,1.00000000000000000E0),.UNSPECIFIED.);
#336=DEFINITIONAL_REPRESENTATION('',(#335),#187);
#337=PCURVE('',#88,#336);
#338=CARTESIAN_POINT('',(1.00000000000000000E0,1.00000000000000000E0));
#339=CARTESIAN_POINT('',(0.00000000000000000E0,1.00000000000000000E0));
#340=B_SPLINE_CURVE_WITH_KNOTS('',1,(#338,#339),.UNSPECIFIED.,.F.,.F.,(2,2),(0.00000000000000000E0,1.00000000000000000E0),.UNSPECIFIED.);
#341=DEFINITIONAL_REPRESENTATION('',(#340),#187);
#342=PCURVE('',#88,#341);
#343=CARTESIAN_POINT('',(0.00000000000000000E0,1.00000000000000000E0));
#344=CARTESIAN_POINT('',(0.00000000000000000E0,0.00000000000000000E0));
#345=B_SPLINE_CURVE_WITH_KNOTS('',1,(#343,#344),.UNSPECIFIED.,.F.,.F.,(2,2),(0.00000000000000000E0,1.00000000000000000E0),.UNSPECIFIED.);
#346=DEFINITIONAL_REPRESENTATION('',(#345),#187);
#347=PCURVE('',#88,#346);
#348=CARTESIAN_POINT('',(-5.00000000000000000E-1,0.00000000000000000E0));
#349=CARTESIAN_POINT('',(-5.00000000000000000E-1,-5.00000000000000000E-1));
#350=CARTESIAN_POINT('',(0.00000000000000000E0,-5.00000000000000000E-1));
#351=(BOUNDED_CURVE()B_SPLINE_CURVE(2,(#348,#349,#350),.UNSPECIFIED.,.F.,.F.)B_SPLINE_CURVE_WITH_KNOTS((3,3),(0.00000000000000000E0,1.00000000000000000E0),.UNSPECIFIED.)CURVE()GEOMETRIC_REPRESENTATION_ITEM()RATIONAL_B_SPLINE_CURVE((1.00000000000000000E0,7.07106781186547573E-1,1.00000000000000000E0))REPRESENTATION_ITEM(''));
#352=DEFINITIONAL_REPRESENTATION('',(#351),#187);
#353=PCURVE('',#93,#352);
#354=CARTESIAN_POINT('',(0.00000000000000000E0,-5.00000000000000000E-1));
#355=CARTESIAN_POINT('',(5.00000000000000000E-1,-5.00000000000000000E-1));
#356=CARTESIAN_POINT('',(5.00000000000000000E-1,0.00000000000000000E0));
#357=(BOUNDED_CURVE()B_SPLINE_CURVE(2,(#354,#355,#356),.UNSPECIFIED.,.F.,.F.)B_SPLINE_CURVE_WITH_KNOTS((3,3),(0.00000000000000000E0,1.00000000000000000E0),.UNSPECIFIED.)CURVE()GEOMETRIC_REPRESENTATION_ITEM()RATIONAL_B_SPLINE_CURVE((1.00000000000000000E0,7.07106781186547573E-1,1.00000000000000000E0))REPRESENTATION_ITEM(''));
#358=DEFINITIONAL_REPRESENTATION('',(#357),#187);
#359=PCURVE('',#93,#358);
#360=CARTESIAN_POINT('',(5.00000000000000000E-1,0.00000000000000000E0));
#361=CARTESIAN_POINT('',(5.00000000000000000E-1,5.00000000000000000E-1));
#362=CARTESIAN_POINT('',(0.00000000000000000E0,5.00000000000000000E-1));
#363=(BOUNDED_CURVE()B_SPLINE_CURVE(2,(#360,#361,#362),.UNSPECIFIED.,.F.,.F.)B_SPLINE_CURVE_WITH_KNOTS((3,3),(0.00000000000000000E0,1.00000000000000000E0),.UNSPECIFIED.)CURVE()GEOMETRIC_REPRESENTATION_ITEM()RATIONAL_B_SPLINE_CURVE((1.00000000000000000E0,7.07106781186547573E-1,1.00000000000000000E0))REPRESENTATION_ITEM(''));
#364=DEFINITIONAL_REPRESENTATION('',(#363),#187);
#365=PCURVE('',#93,#364);
#366=CARTESIAN_POINT('',(0.00000000000000000E0,5.00000000000000000E-1));
#367=CARTESIAN_POINT('',(-5.00000000000000000E-1,5.00000000000000000E-1));
#368=CARTESIAN_POINT('',(-5.00000000000000000E-1,0.00000000000000000E0));
#369=(BOUNDED_CURVE()B_SPLINE_CURVE(2,(#366,#367,#368),.UNSPECIFIED.,.F.,.F.)B_SPLINE_CURVE_WITH_KNOTS((3,3),(0.00000000000000000E0,1.00000000000000000E0),.UNSPECIFIED.)CURVE()GEOMETRIC_REPRESENTATION_ITEM()RATIONAL_B_SPLINE_CURVE((1.00000000000000000E0,7.07106781186547573E-1,1.00000000000000000E0))REPRESENTATION_ITEM(''));
#370=DEFINITIONAL_REPRESENTATION('',(#369),#187);
#371=PCURVE('',#93,#370);
#372=CARTESIAN_POINT('',(-2.50000000000000000E-1,0.00000000000000000E0));
#373=CARTESIAN_POINT('',(-2.50000000000000000E-1,2.50000000000000000E-1));
#374=CARTESIAN_POINT('',(0.00000000000000000E0,2.50000000000000000E-1));
#375=(BOUNDED_CURVE()B_SPLINE_CURVE(2,(#372,#373,#374),.UNSPECIFIED.,.F.,.F.)B_SPLINE_CURVE_WITH_KNOTS((3,3),(0.00000000000000000E0,1.00000000000000000E0),.UNSPECIFIED.)CURVE()GEOMETRIC_REPRESENTATION_ITEM()RATIONAL_B_SPLINE_CURVE((1.00000000000000000E0,7.07106781186547573E-1,1.00000000000000000E0))REPRESENTATION_ITEM(''));
#376=DEFINITIONAL_REPRESENTATION('',(#375),#187);
#377=PCURVE('',#93,#376);
#378=CARTESIAN_POINT('',(0.00000000000000000E0,2.50000000000000000E-1));
#379=CARTESIAN_POINT('',(2.50000000000000000E-1,2.50000000000000000E-1));
#380=CARTESIAN_POINT('',(2.50000000000000000E-1,0.00000000000000000E0));
#381=(BOUNDED_CURVE()B_SPLINE_CURVE(2,(#378,#379,#380),.UNSPECIFIED.,.F.,.F.)B_SPLINE_CURVE_WITH_KNOTS((3,3),(0.00000000000000000E0,1.00000000000000000E0),.UNSPECIFIED.)CURVE()GEOMETRIC_REPRESENTATION_ITEM()RATIONAL_B_SPLINE_CURVE((1.00000000000000000E0,7.07106781186547573E-1,1.00000000000000000E0))REPRESENTATION_ITEM(''));
#382=DEFINITIONAL_REPRESENTATION('',(#381),#187);
#383=PCURVE('',#93,#382);
#384=CARTESIAN_POINT('',(2.50000000000000000E-1,0.00000000000000000E0));
#385=CARTESIAN_POINT('',(2.50000000000000000E-1,-2.50000000000000000E-1));
#386=CARTESIAN_POINT('',(0.00000000000000000E0,-2.50000000000000000E-1));
#387=(BOUNDED_CURVE()B_SPLINE_CURVE(2,(#384,#385,#386),.UNSPECIFIED.,.F.,.F.)B_SPLINE_CURVE_WITH_KNOTS((3,3),(0.00000000000000000E0,1.00000000000000000E0),.UNSPECIFIED.)CURVE()GEOMETRIC_REPRESENTATION_ITEM()RATIONAL_B_SPLINE_CURVE((1.00000000000000000E0,7.07106781186547573E-1,1.00000000000000000E0))REPRESENTATION_ITEM(''));
#388=DEFINITIONAL_REPRESENTATION('',(#387),#187);
#389=PCURVE('',#93,#388);
#390=CARTESIAN_POINT('',(0.00000000000000000E0,-2.50000000000000000E-1));
#391=CARTESIAN_POINT('',(-2.50000000000000000E-1,-2.50000000000000000E-1));
#392=CARTESIAN_POINT('',(-2.50000000000000000E-1,0.00000000000000000E0));
#393=(BOUNDED_CURVE()B_SPLINE_CURVE(2,(#390,#391,#392),.UNSPECIFIED.,.F.,.F.)B_SPLINE_CURVE_WITH_KNOTS((3,3),(0.00000000000000000E0,1.00000000000000000E0),.UNSPECIFIED.)CURVE()GEOMETRIC_REPRESENTATION_ITEM()RATIONAL_B_SPLINE_CURVE((1.00000000000000000E0,7.07106781186547573E-1,1.00000000000000000E0))REPRESENTATION_ITEM(''));
#394=DEFINITIONAL_REPRESENTATION('',(#393),#187);
#395=PCURVE('',#93,#394);
#396=CARTESIAN_POINT('',(5.00000000000000000E-1,0.00000000000000000E0));
#397=CARTESIAN_POINT('',(5.00000000000000000E-1,5.00000000000000000E-1));
#398=CARTESIAN_POINT('',(0.00000000000000000E0,5.00000000000000000E-1));
#399=(BOUNDED_CURVE()B_SPLINE_CURVE(2,(#396,#397,#398),.UNSPECIFIED.,.F.,.F.)B_SPLINE_CURVE_WITH_KNOTS((3,3),(0.00000000000000000E0,1.00000000000000000E0),.UNSPECIFIED.)CURVE()GEOMETRIC_REPRESENTATION_ITEM()RATIONAL_B_SPLINE_CURVE((1.00000000000000000E0,7.07106781186547573E-1,1.00000000000000000E0))REPRESENTATION_ITEM(''));
#400=DEFINITIONAL_REPRESENTATION('',(#399),#187);
#401=PCURVE('',#98,#400);
#402=CARTESIAN_POINT('',(0.00000000000000000E0,5.00000000000000000E-1));
#403=CARTESIAN_POINT('',(-5.00000000000000000E-1,5.00000000000000000E-1));
#404=CARTESIAN_POINT('',(-5.00000000000000000E-1,0.00000000000000000E0));
#405=(BOUNDED_CURVE()B_SPLINE_CURVE(2,(#402,#403,#404),.UNSPECIFIED.,.F.,.F.)B_SPLINE_CURVE_WITH_KNOTS((3,3),(0.00000000000000000E0,1.00000000000000000E0),.UNSPECIFIED.)CURVE()GEOMETRIC_REPRESENTATION_ITEM()RATIONAL_B_SPLINE_CURVE((1.00000000000000000E0,7.07106781186547573E-1,1.00000000000000000E0))REPRESENTATION_ITEM(''));
#406=DEFINITIONAL_REPRESENTATION('',(#405),#187);
#407=PCURVE('',#98,#406);
#408=CARTESIAN_POINT('',(-5.00000000000000000E-1,0.00000000000000000E0));
#409=CARTESIAN_POINT('',(-5.00000000000000000E-1,-5.00000000000000000E-1));
#410=CARTESIAN_POINT('',(0.00000000000000000E0,-5.00000000000000000E-1));
#411=(BOUNDED_CURVE()B_SPLINE_CURVE(2,(#408,#409,#410),.UNSPECIFIED.,.F.,.F.)B_SPLINE_CURVE_WITH_KNOTS((3,3),(0.00000000000000000E0,1.00000000000000000E0),.UNSPECIFIED.)CURVE()GEOMETRIC_REPRESENTATION_ITEM()RATIONAL_B_SPLINE_CURVE((1.00000000000000000E0,7.07106781186547573E-1,1.00000000000000000E0))REPRESENTATION_ITEM(''));
#412=DEFINITIONAL_REPRESENTATION('',(#411),#187);
#413=PCURVE('',#98,#412);
#414=CARTESIAN_POINT('',(0.00000000000000000E0,-5.00000000000000000E-1));
#415=CARTESIAN_POINT('',(5.00000000000000000E-1,-5.00000000000000000E-1));
#416=CARTESIAN_POINT('',(5.00000000000000000E-1,0.00000000000000000E0));
#417=(BOUNDED_CURVE()B_SPLINE_CURVE(2,(#414,#415,#416),.UNSPECIFIED.,.F.,.F.)B_SPLINE_CURVE_WITH_KNOTS((3,3),(0.00000000000000000E0,1.00000000000000000E0),.UNSPECIFIED.)CURVE()GEOMETRIC_REPRESENTATION_ITEM()RATIONAL_B_SPLINE_CURVE((1.00000000000000000E0,7.07106781186547573E-1,1.00000000000000000E0))REPRESENTATION_ITEM(''));
#418=DEFINITIONAL_REPRESENTATION('',(#417),#187);
#419=PCURVE('',#98,#418);
#420=CARTESIAN_POINT('',(2.50000000000000000E-1,0.00000000000000000E0));
#421=CARTESIAN_POINT('',(2.50000000000000000E-1,-2.50000000000000000E-1));
#422=CARTESIAN_POINT('',(0.00000000000000000E0,-2.50000000000000000E-1));
#423=(BOUNDED_CURVE()B_SPLINE_CURVE(2,(#420,#421,#422),.UNSPECIFIED.,.F.,.F.)B_SPLINE_CURVE_WITH_KNOTS((3,3),(0.00000000000000000E0,1.00000000000000000E0),.UNSPECIFIED.)CURVE()GEOMETRIC_REPRESENTATION_ITEM()RATIONAL_B_SPLINE_CURVE((1.00000000000000000E0,7.07106781186547573E-1,1.00000000000000000E0))REPRESENTATION_ITEM(''));
#424=DEFINITIONAL_REPRESENTATION('',(#423),#187);
#425=PCURVE('',#98,#424);
#426=CARTESIAN_POINT('',(0.00000000000000000E0,-2.50000000000000000E-1));
#427=CARTESIAN_POINT('',(-2.50000000000000000E-1,-2.50000000000000000E-1));
#428=CARTESIAN_POINT('',(-2.50000000000000000E-1,0.00000000000000000E0));
#429=(BOUNDED_CURVE()B_SPLINE_CURVE(2,(#426,#427,#428),.UNSPECIFIED.,.F.,.F.)B_SPLINE_CURVE_WITH_KNOTS((3,3),(0.00000000000000000E0,1.00000000000000000E0),.UNSPECIFIED.)CURVE()GEOMETRIC_REPRESENTATION_ITEM()RATIONAL_B_SPLINE_CURVE((1.00000000000000000E0,7.07106781186547573E-1,1.00000000000000000E0))REPRESENTATION_ITEM(''));
#430=DEFINITIONAL_REPRESENTATION('',(#429),#187);
#431=PCURVE('',#98,#430);
#432=CARTESIAN_POINT('',(-2.50000000000000000E-1,0.00000000000000000E0));
#433=CARTESIAN_POINT('',(-2.50000000000000000E-1,2.50000000000000000E-1));
#434=CARTESIAN_POINT('',(0.00000000000000000E0,2.50000000000000000E-1));
#435=(BOUNDED_CURVE()B_SPLINE_CURVE(2,(#432,#433,#434),.UNSPECIFIED.,.F.,.F.)B_SPLINE_CURVE_WITH_KNOTS((3,3),(0.00000000000000000E0,1.00000000000000000E0),.UNSPECIFIED.)CURVE()GEOMETRIC_REPRESENTATION_ITEM()RATIONAL_B_SPLINE_CURVE((1.00000000000000000E0,7.07106781186547573E-1,1.00000000000000000E0))REPRESENTATION_ITEM(''));
#436=DEFINITIONAL_REPRESENTATION('',(#435),#187);
#437=PCURVE('',#98,#436);
#438=CARTESIAN_POINT('',(0.00000000000000000E0,2.50000000000000000E-1));
#439=CARTESIAN_POINT('',(2.50000000000000000E-1,2.50000000000000000E-1));
#440=CARTESIAN_POINT('',(2.50000000000000000E-1,0.00000000000000000E0));
#441=(BOUNDED_CURVE()B_SPLINE_CURVE(2,(#438,#439,#440),.UNSPECIFIED.,.F.,.F.)B_SPLINE_CURVE_WITH_KNOTS((3,3),(0.00000000000000000E0,1.00000000000000000E0),.UNSPECIFIED.)CURVE()GEOMETRIC_REPRESENTATION_ITEM()RATIONAL_B_SPLINE_CURVE((1.00000000000000000E0,7.07106781186547573E-1,1.00000000000000000E0))REPRESENTATION_ITEM(''));
#442=DEFINITIONAL_REPRESENTATION('',(#441),#187);
#443=PCURVE('',#98,#442);
#444=SURFACE_CURVE('',#102,(#192,#371),.PCURVE_S1.);
#445=EDGE_CURVE('OSCAD_TOPO/3|edge|e:72987ed2b5b10acfc8ac1548b89c8d0d|bac125c85cf04780f586395b7d2d12544fbe5b32d10455b697ebbccf2181904c',#2,#4,#444,.T.);
#446=SURFACE_CURVE('',#105,(#197,#227),.PCURVE_S1.);
#447=EDGE_CURVE('OSCAD_TOPO/3|edge|e:88df429acefc7b892c5a31d8637cc3a4|a288205f6a445ab434710486d252d889613f3c19238e47bd46cd40d934f9b47b',#4,#20,#446,.T.);
#448=SURFACE_CURVE('',#109,(#202,#401),.PCURVE_S1.);
#449=EDGE_CURVE('OSCAD_TOPO/3|edge|e:c30976ef0312e1f670f1e60f35efa08d|f7fda83bdd212fe9edfc8d60b09a5f1a14136c686eedfb42c0f5e4a73db2db18',#18,#20,#448,.T.);
#450=SURFACE_CURVE('',#112,(#207,#257),.PCURVE_S1.);
#451=EDGE_CURVE('OSCAD_TOPO/3|edge|e:c02f4d42022ebe2cf5315a4716879d14|db9addb60931136eaf8233a6f8ee857b29bdfba6235c950547cfcf05227d0ae9',#2,#18,#450,.T.);
#452=SURFACE_CURVE('',#116,(#212,#365),.PCURVE_S1.);
#453=EDGE_CURVE('OSCAD_TOPO/3|edge|e:36c745b77e44fde69330ccc127247a04|22f36db5872f11ddd27578986943df59c5cbe887018fbbc9275523b4322c055d',#4,#6,#452,.T.);
#454=SURFACE_CURVE('',#119,(#217,#247),.PCURVE_S1.);
#455=EDGE_CURVE('OSCAD_TOPO/3|edge|e:c20424c621c296454458e2aac0c4429c|b0564ee7c843f2cd1f5ffb326d1a5716956d8c20f265d5dc7aa1e0c4b92e2e92',#6,#22,#454,.T.);
#456=SURFACE_CURVE('',#123,(#222,#407),.PCURVE_S1.);
#457=EDGE_CURVE('OSCAD_TOPO/3|edge|e:5afb7f91b4cd1f0308b8ff4f0c462d89|25c11f86c92810de6e798477a95857317632b44f8b5c018a2bc7938bc69f3b7b',#20,#22,#456,.T.);
#458=SURFACE_CURVE('',#127,(#232,#359),.PCURVE_S1.);
#459=EDGE_CURVE('OSCAD_TOPO/3|edge|e:061829fddb95204f19be10f9dc84d9dc|4d4a201c7618a6d2e255a69d6d207fd7a5540068c415a9b5f5c8885a2d46a559',#6,#8,#458,.T.);
#460=SURFACE_CURVE('',#130,(#237,#267),.PCURVE_S1.);
#461=EDGE_CURVE('OSCAD_TOPO/3|edge|e:0f65d6f51ad8616a5004f79d62b39c10|f99747bd09c91c9cf93f41729b67251637de09b286384cff79baea874931e04f',#8,#24,#460,.T.);
#462=SURFACE_CURVE('',#134,(#242,#413),.PCURVE_S1.);
#463=EDGE_CURVE('OSCAD_TOPO/3|edge|e:c43fbe7dce442c19724e482e205ce081|97f48491d9484e2e93b94fdf1293f7f28a927f49bc6b7ede9e07bc4115e30cbc',#22,#24,#462,.T.);
#464=SURFACE_CURVE('',#138,(#252,#353),.PCURVE_S1.);
#465=EDGE_CURVE('OSCAD_TOPO/3|edge|e:caed41cf9e37d40e51845f863d97aa57|1b856c7d2fe7cb6719e01f191e49122cd6b70b601ddc0d62dac14c667c1bf1f0',#2,#8,#464,.T.);
#466=SURFACE_CURVE('',#142,(#262,#419),.PCURVE_S1.);
#467=EDGE_CURVE('OSCAD_TOPO/3|edge|e:9d321e889a33d39860e0c914fe78a309|50400c09fafcdd2cd2f27ad172dc00bc5de8ac37db74e3aaa43a142e834a8be8',#18,#24,#466,.T.);
#468=SURFACE_CURVE('',#146,(#272,#395),.PCURVE_S1.);
#469=EDGE_CURVE('OSCAD_TOPO/3|edge|e:8d170d4d3588c9b8019c192acd8c60f1|a184dc5a9ab5278ffb96998331cb4095a27a2112b8a1430738c47fd2b47d46a4',#10,#12,#468,.T.);
#470=SURFACE_CURVE('',#149,(#277,#307),.PCURVE_S1.);
#471=EDGE_CURVE('OSCAD_TOPO/3|edge|e:f16be90dddb74d5136bf12a59d64f221|9bc35c4987365fe3ac0cafa7dc2294a4fd6bab8f43f94b450c0a5f1db950667d',#12,#28,#470,.T.);
#472=SURFACE_CURVE('',#153,(#282,#425),.PCURVE_S1.);
#473=EDGE_CURVE('OSCAD_TOPO/3|edge|e:7de2a5c4595b27abbd2e8a0a12a7b303|4985c27559ecc6097f540cd3edc681fa18d172e508f0d04e7289de0afed442fb',#26,#28,#472,.T.);
#474=SURFACE_CURVE('',#156,(#287,#337),.PCURVE_S1.);
#475=EDGE_CURVE('OSCAD_TOPO/3|edge|e:90e000f51c65defb464092f7c6c5df6d|4b68a021246df818594e5da03aede0ef7af8286d806016aee665bc09f6799935',#10,#26,#474,.T.);
#476=SURFACE_CURVE('',#160,(#292,#389),.PCURVE_S1.);
#477=EDGE_CURVE('OSCAD_TOPO/3|edge|e:e4a2c51aaa96668fd5c1b829b1daa677|5337d44b1e421f5598997b3942230dea32f904503f710faf37f7c88a18a1ce45',#12,#14,#476,.T.);
#478=SURFACE_CURVE('',#163,(#297,#327),.PCURVE_S1.);
#479=EDGE_CURVE('OSCAD_TOPO/3|edge|e:420d9a50ca564496e69e1ba6d90e0d75|ea51bf3e07fecc63ca7fbaa01dcc6bea7aa7426059e79bbb9c5cede5f6d437b4',#14,#30,#478,.T.);
#480=SURFACE_CURVE('',#167,(#302,#431),.PCURVE_S1.);
#481=EDGE_CURVE('OSCAD_TOPO/3|edge|e:cbb26940750e05d28ab0ef36a7f6cad4|e78335238f308e27e3bc4e50da8a15400b3b0ad6af10056f556357e72f2a6393',#28,#30,#480,.T.);
#482=SURFACE_CURVE('',#171,(#312,#383),.PCURVE_S1.);
#483=EDGE_CURVE('OSCAD_TOPO/3|edge|e:73415a05d27dd6325188c62a7ceca004|3892af6c4bcfb894aeb1c714655d5ade8bfc9a365b62be61503d1691ff374783',#14,#16,#482,.T.);
#484=SURFACE_CURVE('',#174,(#317,#347),.PCURVE_S1.);
#485=EDGE_CURVE('OSCAD_TOPO/3|edge|e:40eb160e1a86397147eb7b03a18a9d8a|7193be4f0fbc9cc9082cb12b7a559346d8ca045ce0d9f49f9066a50139637953',#16,#32,#484,.T.);
#486=SURFACE_CURVE('',#178,(#322,#437),.PCURVE_S1.);
#487=EDGE_CURVE('OSCAD_TOPO/3|edge|e:92ecb4b9c23cc782dc14eee0bb870532|b481af955abf0cd2062fd5b5c39035929d2862ed13f8d9d06a83b60f47135499',#30,#32,#486,.T.);
#488=SURFACE_CURVE('',#182,(#332,#377),.PCURVE_S1.);
#489=EDGE_CURVE('OSCAD_TOPO/3|edge|e:19c5a725a221b114368dc4e54d6c3ea8|7a7b83737253b8373ca3bf1d5fffff217a6514d2ab0462da2112ac5dbbadfa44',#10,#16,#488,.T.);
#490=SURFACE_CURVE('',#186,(#342,#443),.PCURVE_S1.);
#491=EDGE_CURVE('OSCAD_TOPO/3|edge|e:23862de11f251fe8c57e3475c8257315|fe23cee8a73c3a1857bc956b90ac064f6a4aaa3fbcf68991fa31b26fb8193004',#26,#32,#490,.T.);
#492=ORIENTED_EDGE('',*,*,#445,.T.);
#493=ORIENTED_EDGE('',*,*,#447,.T.);
#494=ORIENTED_EDGE('',*,*,#449,.F.);
#495=ORIENTED_EDGE('',*,*,#451,.F.);
#496=EDGE_LOOP('OSCAD_TOPO/3|loop|l:5d53be51e021751550d845bb26f96b2e|a517aad802e160cea50c49e7713e6191de83dd888ac5f4f6d2ad5a827bba7570',(#492,#493,#494,#495));
#497=ORIENTED_EDGE('',*,*,#453,.T.);
#498=ORIENTED_EDGE('',*,*,#455,.T.);
#499=ORIENTED_EDGE('',*,*,#457,.F.);
#500=ORIENTED_EDGE('',*,*,#447,.F.);
#501=EDGE_LOOP('OSCAD_TOPO/3|loop|l:05c944cdd65374d0f90b40b3617770b9|ed15b506d5d5872b02b2c3134930664f188d3e586995b0d52d2aff9f39860ddb',(#497,#498,#499,#500));
#502=ORIENTED_EDGE('',*,*,#459,.T.);
#503=ORIENTED_EDGE('',*,*,#461,.T.);
#504=ORIENTED_EDGE('',*,*,#463,.F.);
#505=ORIENTED_EDGE('',*,*,#455,.F.);
#506=EDGE_LOOP('OSCAD_TOPO/3|loop|l:f0532dcd534edede2a8c5d551da57d81|808e6c057d51f897b4822e522145e64d41e436c796fcbddfed25cbd26bdae6f3',(#502,#503,#504,#505));
#507=ORIENTED_EDGE('',*,*,#465,.F.);
#508=ORIENTED_EDGE('',*,*,#451,.T.);
#509=ORIENTED_EDGE('',*,*,#467,.T.);
#510=ORIENTED_EDGE('',*,*,#461,.F.);
#511=EDGE_LOOP('OSCAD_TOPO/3|loop|l:fc3fc734e1266848e92f87cbc7a4f507|887c5aa5bfcd5d0c1889b4d49e9376d39285a18d3f67e0675b98cfbf0facce71',(#507,#508,#509,#510));
#512=ORIENTED_EDGE('',*,*,#469,.T.);
#513=ORIENTED_EDGE('',*,*,#471,.T.);
#514=ORIENTED_EDGE('',*,*,#473,.F.);
#515=ORIENTED_EDGE('',*,*,#475,.F.);
#516=EDGE_LOOP('OSCAD_TOPO/3|loop|l:ef372ffe42cf4a8ebe089a61c8e17fcf|37f1d17930bb801340e9a78ef96b1721fe1cd3906dc9791c9009c367f8fa1a37',(#512,#513,#514,#515));
#517=ORIENTED_EDGE('',*,*,#477,.T.);
#518=ORIENTED_EDGE('',*,*,#479,.T.);
#519=ORIENTED_EDGE('',*,*,#481,.F.);
#520=ORIENTED_EDGE('',*,*,#471,.F.);
#521=EDGE_LOOP('OSCAD_TOPO/3|loop|l:b4c8c119089d64fcd97db3799604c224|1ac0b681ac73b4aa48a38dc6487ca83cad217dcec91b5fc2e47a413a704b8e78',(#517,#518,#519,#520));
#522=ORIENTED_EDGE('',*,*,#483,.T.);
#523=ORIENTED_EDGE('',*,*,#485,.T.);
#524=ORIENTED_EDGE('',*,*,#487,.F.);
#525=ORIENTED_EDGE('',*,*,#479,.F.);
#526=EDGE_LOOP('OSCAD_TOPO/3|loop|l:9ed863daba39630ec51ff0c33abcb449|0f3ae0f3522b148d046f66fe8ad9888812297fdfd0ad06d399f7e81e984ff419',(#522,#523,#524,#525));
#527=ORIENTED_EDGE('',*,*,#489,.F.);
#528=ORIENTED_EDGE('',*,*,#475,.T.);
#529=ORIENTED_EDGE('',*,*,#491,.T.);
#530=ORIENTED_EDGE('',*,*,#485,.F.);
#531=EDGE_LOOP('OSCAD_TOPO/3|loop|l:099260716d913922fdc759e2b5e1ab12|7b56ef17738b751e9a0509177ce06d7006fd83fb1db1f40afc306a19ff9be136',(#527,#528,#529,#530));
#532=ORIENTED_EDGE('',*,*,#465,.T.);
#533=ORIENTED_EDGE('',*,*,#459,.F.);
#534=ORIENTED_EDGE('',*,*,#453,.F.);
#535=ORIENTED_EDGE('',*,*,#445,.F.);
#536=EDGE_LOOP('OSCAD_TOPO/3|loop|l:6643b10370548dc2fe8d1d1d1699d950|07c054b75adfe9f02990299db6db0727fc720ed28e31e2f1af9f4512f0a9ca88',(#532,#533,#534,#535));
#537=ORIENTED_EDGE('',*,*,#489,.T.);
#538=ORIENTED_EDGE('',*,*,#483,.F.);
#539=ORIENTED_EDGE('',*,*,#477,.F.);
#540=ORIENTED_EDGE('',*,*,#469,.F.);
#541=EDGE_LOOP('OSCAD_TOPO/3|loop|l:22cbcb77c4a13554a9952429e0ef5448|ff4496a151736e92b6405831a5ff2e94b4d36131322e0a5667c3939b1cf56563',(#537,#538,#539,#540));
#542=ORIENTED_EDGE('',*,*,#449,.T.);
#543=ORIENTED_EDGE('',*,*,#457,.T.);
#544=ORIENTED_EDGE('',*,*,#463,.T.);
#545=ORIENTED_EDGE('',*,*,#467,.F.);
#546=EDGE_LOOP('OSCAD_TOPO/3|loop|l:9b0a2d7b099f5c67aae14b243e3ec491|7ad97da9d242d2a8228833bc9b22af17c8e47cd6e8c7c2edde98b264555e92a6',(#542,#543,#544,#545));
#547=ORIENTED_EDGE('',*,*,#473,.T.);
#548=ORIENTED_EDGE('',*,*,#481,.T.);
#549=ORIENTED_EDGE('',*,*,#487,.T.);
#550=ORIENTED_EDGE('',*,*,#491,.F.);
#551=EDGE_LOOP('OSCAD_TOPO/3|loop|l:89963daea82d81bbfe70fe9d769ab575|d6f519eb822ec071bf95d087d9b14c9e30d2512ae0cec4ceb552c2d22843baf7',(#547,#548,#549,#550));
#552=FACE_OUTER_BOUND('',#496,.T.);
#553=ADVANCED_FACE('OSCAD_TOPO/3|face|f:959eebe1b7681e167584edf6fe2ead95|9b72320b63212acbb42dc170445d4cb9445928bd694a7f016e319325812b5d20',(#552),#39,.T.);
#554=FACE_OUTER_BOUND('',#501,.T.);
#555=ADVANCED_FACE('OSCAD_TOPO/3|face|f:b249e3645213483c39d7bf9a4fabe39e|a9964a00f4958aa35c7d931ddaa5f09f90e2f9343151524f0b299d03d425eadb',(#554),#46,.T.);
#556=FACE_OUTER_BOUND('',#506,.T.);
#557=ADVANCED_FACE('OSCAD_TOPO/3|face|f:8c2dfca7628cc885bf0004497b617f7a|98bb509e39688bade7265841278843dd8a7afe565af8ab3ceab4280957a7e4af',(#556),#53,.T.);
#558=FACE_OUTER_BOUND('',#511,.T.);
#559=ADVANCED_FACE('OSCAD_TOPO/3|face|f:2de275f5cbc11ab388cc3b8f4e243981|e276eb1ad9be5945312d2cb400506c6013d2e15be13583cad2de9cbd423211b4',(#558),#60,.T.);
#560=FACE_OUTER_BOUND('',#516,.T.);
#561=ADVANCED_FACE('OSCAD_TOPO/3|face|f:67f8ec4a6c3d3aba8ca6224726272b8e|a836d3d15d9af911ba434044e4bcc5bec178de97b26acb317947cce1811034fb',(#560),#67,.T.);
#562=FACE_OUTER_BOUND('',#521,.T.);
#563=ADVANCED_FACE('OSCAD_TOPO/3|face|f:85b166a878ef6d2de5582c7c6b9950e3|ca18f3db8d5c58dbf90c5f182a6699b32786deb6e81773d72ff31a967684ba63',(#562),#74,.T.);
#564=FACE_OUTER_BOUND('',#526,.T.);
#565=ADVANCED_FACE('OSCAD_TOPO/3|face|f:c77f6dc566837aacf9d6f7f7d91936f5|967ed97a3116ca7239c9e30817b7ae8905c090723cb89ec6761c15e50cd6c795',(#564),#81,.T.);
#566=FACE_OUTER_BOUND('',#531,.T.);
#567=ADVANCED_FACE('OSCAD_TOPO/3|face|f:cc8717dd736e6a9fc34ac54c98d33ef7|ff781ee47201d27e40ec7acd5baa279a3637d2af84a4d2501de3d838aa22bbfc',(#566),#88,.T.);
#568=FACE_OUTER_BOUND('',#536,.T.);
#569=FACE_BOUND('',#541,.T.);
#570=ADVANCED_FACE('OSCAD_TOPO/3|face|f:42c60d74a2ed0dc6217248c6f31eba60|7e558bf720b31daeb6cfdc99a1a758fe97349fbf71e5a69e30ce0062c31b41b0',(#568,#569),#93,.T.);
#571=FACE_OUTER_BOUND('',#546,.T.);
#572=FACE_BOUND('',#551,.T.);
#573=ADVANCED_FACE('OSCAD_TOPO/3|face|f:9c35e9b202531d2bfe41dea9e4cb0e99|9c1ddf08370e92fd779f241ca334d5c4e49271b839959fab7f12174fd9ad15f3',(#571,#572),#98,.T.);
#574=CLOSED_SHELL('OSCAD_TOPO/3|shell|s:b1a3887300ae2b26e4a890bf8869d822|a713688d38ed7e9d07c3da592cd3999a18d5a60db3fe0421416de8be0902b8fa',(#553,#555,#557,#559,#561,#563,#565,#567,#570,#573));
#575=MANIFOLD_SOLID_BREP('OSCAD_TOPO/3|body|b:f3a00c43e180e1053fc4c65edfa1a0eb|7d4975436a6a92cd316850ac2be0b43433b0d6bb485058df9d7855b943b96db1',#574);
#576=(LENGTH_UNIT()NAMED_UNIT(*)SI_UNIT(.MILLI.,.METRE.));
#577=UNCERTAINTY_MEASURE_WITH_UNIT(LENGTH_MEASURE(9.99999999999999955E-8),#576,'distance_accuracy_value','');
#578=(GEOMETRIC_REPRESENTATION_CONTEXT(3)GLOBAL_UNCERTAINTY_ASSIGNED_CONTEXT((#577))GLOBAL_UNIT_ASSIGNED_CONTEXT((#576))REPRESENTATION_CONTEXT('','3D'));
#579=ADVANCED_BREP_SHAPE_REPRESENTATION('',(#575),#578);
#580=APPLICATION_CONTEXT('managed model based 3d engineering');
#581=PRODUCT_CONTEXT('',#580,'mechanical');
#582=PRODUCT('model','model','',(#581));
#583=PRODUCT_DEFINITION_FORMATION('1','',#582);
#584=PRODUCT_DEFINITION_CONTEXT('part definition',#580,'design');
#585=PRODUCT_DEFINITION('design','',#583,#584);
#586=PRODUCT_DEFINITION_SHAPE('','',#585);
#587=SHAPE_DEFINITION_REPRESENTATION(#586,#579);
ENDSEC;
END-ISO-10303-21;
