ISO-10303-21;
HEADER;
FILE_DESCRIPTION(('OpenSCAD Viewer retained AP242 B-rep'),'2;1');
FILE_NAME('model.step','',(''),(''),'OpenSCAD Viewer','OpenSCAD Viewer','');
FILE_SCHEMA(('AP242_MANAGED_MODEL_BASED_3D_ENGINEERING_MIM_LF'));
ENDSEC;
DATA;
#1=CARTESIAN_POINT('',(-7.00000000000000000E0,3.00000000000000000E0,-2.00000000000000000E0));
#2=VERTEX_POINT('OSCAD_TOPO/3|vertex|v:e804411634460ae3462dd741d68271ac|1d1692c7474faa2ccc37a4d2bc73f5c22dd22581511251caecbb7bda4304016f',#1);
#3=CARTESIAN_POINT('',(3.00000000000000000E0,3.00000000000000000E0,-2.00000000000000000E0));
#4=VERTEX_POINT('OSCAD_TOPO/3|vertex|v:b2279a1257c4fcf496396948530a5725|2122d0861c061d32e6dd1bbf745308449de522badbd407c6558c663ed3c38f30',#3);
#5=CARTESIAN_POINT('',(-7.00000000000000000E0,1.10000000000000000E1,-2.00000000000000000E0));
#6=VERTEX_POINT('OSCAD_TOPO/3|vertex|v:6b761cb1ffd839de853759377cd4617c|2137e0e805d49a2ec5eb83cc7e84af47cec680a956a1088b50b90be81fc98fe0',#5);
#7=CARTESIAN_POINT('',(-7.00000000000000000E0,3.00000000000000000E0,4.00000000000000000E0));
#8=VERTEX_POINT('OSCAD_TOPO/3|vertex|v:08a69e9d487b9d2cca0fea9e5bab1bae|69736b220b53d84fa8b8f643d181f78c74deeefbc7aa414638c39b058338d8f7',#7);
#9=CARTESIAN_POINT('',(3.00000000000000000E0,8.50000000000000000E0,-2.00000000000000000E0));
#10=VERTEX_POINT('OSCAD_TOPO/3|vertex|v:896e36f38b44f0de44af2abb311e9958|ce9d3c8352dc4059e2ee33cb846a49bc15536c329d58f13bd9827869eb0c7e5b',#9);
#11=CARTESIAN_POINT('',(5.00000000000000000E-1,1.10000000000000000E1,-2.00000000000000000E0));
#12=VERTEX_POINT('OSCAD_TOPO/3|vertex|v:5069ebcd1d433529cb2c72df07715ac4|828ce8ea9168d5aed5b389bcbd3b7b61d8ebbacd8743b85d86efd161fcb50889',#11);
#13=CARTESIAN_POINT('',(3.00000000000000000E0,8.50000000000000000E0,1.50000000000000000E0));
#14=VERTEX_POINT('OSCAD_TOPO/3|vertex|v:f4dbe2d21667a3a3ec9bbd47a44683b5|d05a7e20a0b37e8145e4c1e0d8150d0effe958dae5c2bedf76d287a38e91f2d7',#13);
#15=CARTESIAN_POINT('',(5.00000000000000000E-1,1.10000000000000000E1,1.50000000000000000E0));
#16=VERTEX_POINT('OSCAD_TOPO/3|vertex|v:e50a3c838b626d892d6c2dab5d28a09b|916ab6582a7e1c6ff57a1a540cd4e44fbe3798d8b5e5b03f4f265d0f5f44b1e4',#15);
#17=CARTESIAN_POINT('',(5.00000000000000000E-1,8.50000000000000000E0,4.00000000000000000E0));
#18=VERTEX_POINT('OSCAD_TOPO/3|vertex|v:8286c3a56bd1cf57a355ad897dad75e0|a02301f97043230f5edfc9646d408317d62d477dbf0b0f9c497b66c20167fb40',#17);
#19=CARTESIAN_POINT('',(3.00000000000000000E0,3.00000000000000000E0,1.50000000000000000E0));
#20=VERTEX_POINT('OSCAD_TOPO/3|vertex|v:341fa7d9100d7d86c9709753a73f2f6e|e14648c8489c22dbeaa1567dfe5aa6427249bbe6383382df0b814cd6e0afe53e',#19);
#21=CARTESIAN_POINT('',(5.00000000000000000E-1,3.00000000000000000E0,4.00000000000000000E0));
#22=VERTEX_POINT('OSCAD_TOPO/3|vertex|v:e8f8f07715391f4ca86953e6887e5138|5e5e746da504ed4aa596c2ebbdbab32f2132006258459640c9c4f0184ea4b3f5',#21);
#23=CARTESIAN_POINT('',(-7.00000000000000000E0,1.10000000000000000E1,1.50000000000000000E0));
#24=VERTEX_POINT('OSCAD_TOPO/3|vertex|v:f7f85b861cb6bf5da328868690eb2913|0acb69f996b1a0ad95125464a746c203d98af40b6b6f050f57885fc974331129',#23);
#25=CARTESIAN_POINT('',(-7.00000000000000000E0,8.50000000000000000E0,4.00000000000000000E0));
#26=VERTEX_POINT('OSCAD_TOPO/3|vertex|v:dfffd3defb48505d6fe7aec4e6851621|c04b1a77c499af376b1cfd855bf11adf87458dd45b34088eff267e1fb3bed532',#25);
#27=CARTESIAN_POINT('',(3.00000000000000000E0,3.00000000000000000E0,-2.00000000000000000E0));
#28=CARTESIAN_POINT('',(3.00000000000000000E0,1.10000000000000000E1,-2.00000000000000000E0));
#29=CARTESIAN_POINT('',(-7.00000000000000000E0,3.00000000000000000E0,-2.00000000000000000E0));
#30=CARTESIAN_POINT('',(-7.00000000000000000E0,1.10000000000000000E1,-2.00000000000000000E0));
#31=B_SPLINE_SURFACE_WITH_KNOTS('',1,1,((#27,#28),(#29,#30)),.UNSPECIFIED.,.F.,.F.,.F.,(2,2),(2,2),(0.00000000000000000E0,1.00000000000000000E0),(0.00000000000000000E0,1.00000000000000000E0),.UNSPECIFIED.);
#32=CARTESIAN_POINT('',(-7.00000000000000000E0,3.00000000000000000E0,4.00000000000000000E0));
#33=CARTESIAN_POINT('',(-7.00000000000000000E0,1.10000000000000000E1,4.00000000000000000E0));
#34=CARTESIAN_POINT('',(3.00000000000000000E0,3.00000000000000000E0,4.00000000000000000E0));
#35=CARTESIAN_POINT('',(3.00000000000000000E0,1.10000000000000000E1,4.00000000000000000E0));
#36=B_SPLINE_SURFACE_WITH_KNOTS('',1,1,((#32,#33),(#34,#35)),.UNSPECIFIED.,.F.,.F.,.F.,(2,2),(2,2),(0.00000000000000000E0,1.00000000000000000E0),(0.00000000000000000E0,1.00000000000000000E0),.UNSPECIFIED.);
#37=CARTESIAN_POINT('',(-7.00000000000000000E0,1.10000000000000000E1,-2.00000000000000000E0));
#38=CARTESIAN_POINT('',(-7.00000000000000000E0,1.10000000000000000E1,4.00000000000000000E0));
#39=CARTESIAN_POINT('',(-7.00000000000000000E0,3.00000000000000000E0,-2.00000000000000000E0));
#40=CARTESIAN_POINT('',(-7.00000000000000000E0,3.00000000000000000E0,4.00000000000000000E0));
#41=B_SPLINE_SURFACE_WITH_KNOTS('',1,1,((#37,#38),(#39,#40)),.UNSPECIFIED.,.F.,.F.,.F.,(2,2),(2,2),(0.00000000000000000E0,1.00000000000000000E0),(0.00000000000000000E0,1.00000000000000000E0),.UNSPECIFIED.);
#42=CARTESIAN_POINT('',(-7.00000000000000000E0,3.00000000000000000E0,-2.00000000000000000E0));
#43=CARTESIAN_POINT('',(-7.00000000000000000E0,3.00000000000000000E0,4.00000000000000000E0));
#44=CARTESIAN_POINT('',(3.00000000000000000E0,3.00000000000000000E0,-2.00000000000000000E0));
#45=CARTESIAN_POINT('',(3.00000000000000000E0,3.00000000000000000E0,4.00000000000000000E0));
#46=B_SPLINE_SURFACE_WITH_KNOTS('',1,1,((#42,#43),(#44,#45)),.UNSPECIFIED.,.F.,.F.,.F.,(2,2),(2,2),(0.00000000000000000E0,1.00000000000000000E0),(0.00000000000000000E0,1.00000000000000000E0),.UNSPECIFIED.);
#47=CARTESIAN_POINT('',(3.00000000000000000E0,3.00000000000000000E0,-2.00000000000000000E0));
#48=CARTESIAN_POINT('',(3.00000000000000000E0,3.00000000000000000E0,4.00000000000000000E0));
#49=CARTESIAN_POINT('',(3.00000000000000000E0,1.10000000000000000E1,-2.00000000000000000E0));
#50=CARTESIAN_POINT('',(3.00000000000000000E0,1.10000000000000000E1,4.00000000000000000E0));
#51=B_SPLINE_SURFACE_WITH_KNOTS('',1,1,((#47,#48),(#49,#50)),.UNSPECIFIED.,.F.,.F.,.F.,(2,2),(2,2),(0.00000000000000000E0,1.00000000000000000E0),(0.00000000000000000E0,1.00000000000000000E0),.UNSPECIFIED.);
#52=CARTESIAN_POINT('',(3.00000000000000000E0,1.10000000000000000E1,-2.00000000000000000E0));
#53=CARTESIAN_POINT('',(3.00000000000000000E0,1.10000000000000000E1,4.00000000000000000E0));
#54=CARTESIAN_POINT('',(-7.00000000000000000E0,1.10000000000000000E1,-2.00000000000000000E0));
#55=CARTESIAN_POINT('',(-7.00000000000000000E0,1.10000000000000000E1,4.00000000000000000E0));
#56=B_SPLINE_SURFACE_WITH_KNOTS('',1,1,((#52,#53),(#54,#55)),.UNSPECIFIED.,.F.,.F.,.F.,(2,2),(2,2),(0.00000000000000000E0,1.00000000000000000E0),(0.00000000000000000E0,1.00000000000000000E0),.UNSPECIFIED.);
#57=CARTESIAN_POINT('',(3.00000000000000000E0,8.50000000000000000E0,-2.00000000000000000E0));
#58=CARTESIAN_POINT('',(3.00000000000000000E0,8.50000000000000000E0,1.50000000000000000E0));
#59=CARTESIAN_POINT('',(3.00000000000000000E0,1.10000000000000000E1,-2.00000000000000000E0));
#60=CARTESIAN_POINT('',(3.00000000000000000E0,1.10000000000000000E1,1.50000000000000000E0));
#61=CARTESIAN_POINT('',(5.00000000000000111E-1,1.10000000000000000E1,-2.00000000000000000E0));
#62=CARTESIAN_POINT('',(5.00000000000000111E-1,1.10000000000000000E1,1.50000000000000000E0));
#63=(BOUNDED_SURFACE()B_SPLINE_SURFACE(2,1,((#57,#58),(#59,#60),(#61,#62)),.UNSPECIFIED.,.F.,.F.,.F.)B_SPLINE_SURFACE_WITH_KNOTS((3,3),(2,2),(0.00000000000000000E0,1.00000000000000000E0),(0.00000000000000000E0,1.00000000000000000E0),.UNSPECIFIED.)GEOMETRIC_REPRESENTATION_ITEM()RATIONAL_B_SPLINE_SURFACE(((1.00000000000000000E0,1.00000000000000000E0),(7.07106781186547573E-1,7.07106781186547573E-1),(1.00000000000000000E0,1.00000000000000000E0)))REPRESENTATION_ITEM('')SURFACE());
#64=CARTESIAN_POINT('',(5.00000000000000000E-1,3.00000000000000000E0,4.00000000000000000E0));
#65=CARTESIAN_POINT('',(5.00000000000000000E-1,8.50000000000000000E0,4.00000000000000000E0));
#66=CARTESIAN_POINT('',(3.00000000000000000E0,3.00000000000000000E0,4.00000000000000000E0));
#67=CARTESIAN_POINT('',(3.00000000000000000E0,8.50000000000000000E0,4.00000000000000000E0));
#68=CARTESIAN_POINT('',(3.00000000000000000E0,3.00000000000000000E0,1.50000000000000000E0));
#69=CARTESIAN_POINT('',(3.00000000000000000E0,8.50000000000000000E0,1.50000000000000000E0));
#70=(BOUNDED_SURFACE()B_SPLINE_SURFACE(2,1,((#64,#65),(#66,#67),(#68,#69)),.UNSPECIFIED.,.F.,.F.,.F.)B_SPLINE_SURFACE_WITH_KNOTS((3,3),(2,2),(0.00000000000000000E0,1.00000000000000000E0),(0.00000000000000000E0,1.00000000000000000E0),.UNSPECIFIED.)GEOMETRIC_REPRESENTATION_ITEM()RATIONAL_B_SPLINE_SURFACE(((1.00000000000000000E0,1.00000000000000000E0),(1.00000000000000000E0,1.00000000000000000E0),(2.00000000000000000E0,2.00000000000000000E0)))REPRESENTATION_ITEM('')SURFACE());
#71=CARTESIAN_POINT('',(-7.00000000000000000E0,1.10000000000000000E1,1.50000000000000000E0));
#72=CARTESIAN_POINT('',(5.00000000000000000E-1,1.10000000000000000E1,1.50000000000000000E0));
#73=CARTESIAN_POINT('',(-7.00000000000000000E0,1.10000000000000000E1,4.00000000000000000E0));
#74=CARTESIAN_POINT('',(5.00000000000000000E-1,1.10000000000000000E1,4.00000000000000000E0));
#75=CARTESIAN_POINT('',(-7.00000000000000000E0,8.50000000000000000E0,4.00000000000000000E0));
#76=CARTESIAN_POINT('',(5.00000000000000000E-1,8.50000000000000000E0,4.00000000000000000E0));
#77=(BOUNDED_SURFACE()B_SPLINE_SURFACE(2,1,((#71,#72),(#73,#74),(#75,#76)),.UNSPECIFIED.,.F.,.F.,.F.)B_SPLINE_SURFACE_WITH_KNOTS((3,3),(2,2),(0.00000000000000000E0,1.00000000000000000E0),(0.00000000000000000E0,1.00000000000000000E0),.UNSPECIFIED.)GEOMETRIC_REPRESENTATION_ITEM()RATIONAL_B_SPLINE_SURFACE(((2.00000000000000000E0,2.00000000000000000E0),(1.00000000000000000E0,1.00000000000000000E0),(1.00000000000000000E0,1.00000000000000000E0)))REPRESENTATION_ITEM('')SURFACE());
#78=CARTESIAN_POINT('',(5.00000000000000000E-1,8.50000000000000000E0,4.00000000000000000E0));
#79=CARTESIAN_POINT('',(5.00000000000000000E-1,1.10000000000000000E1,4.00000000000000000E0));
#80=CARTESIAN_POINT('',(5.00000000000000000E-1,1.10000000000000000E1,1.50000000000000000E0));
#81=CARTESIAN_POINT('',(3.00000000000000000E0,8.50000000000000000E0,4.00000000000000000E0));
#82=CARTESIAN_POINT('',(3.00000000000000000E0,1.10000000000000000E1,4.00000000000000000E0));
#83=CARTESIAN_POINT('',(1.75000000000000000E0,1.10000000000000000E1,1.50000000000000000E0));
#84=CARTESIAN_POINT('',(3.00000000000000000E0,8.50000000000000000E0,1.50000000000000000E0));
#85=CARTESIAN_POINT('',(3.00000000000000000E0,9.75000000000000000E0,1.50000000000000000E0));
#86=CARTESIAN_POINT('',(2.16666666666666696E0,1.01666666666666661E1,6.66666666666666630E-1));
#87=(BOUNDED_SURFACE()B_SPLINE_SURFACE(2,2,((#78,#79,#80),(#81,#82,#83),(#84,#85,#86)),.UNSPECIFIED.,.F.,.F.,.F.)B_SPLINE_SURFACE_WITH_KNOTS((3,3),(3,3),(0.00000000000000000E0,1.00000000000000000E0),(0.00000000000000000E0,1.00000000000000000E0),.UNSPECIFIED.)GEOMETRIC_REPRESENTATION_ITEM()RATIONAL_B_SPLINE_SURFACE(((1.00000000000000000E0,1.00000000000000000E0,2.00000000000000000E0),(1.00000000000000000E0,1.00000000000000000E0,2.00000000000000000E0),(2.00000000000000000E0,2.00000000000000000E0,3.00000000000000000E0)))REPRESENTATION_ITEM('')SURFACE());
#88=CARTESIAN_POINT('',(-7.00000000000000000E0,3.00000000000000000E0,-2.00000000000000000E0));
#89=CARTESIAN_POINT('',(3.00000000000000000E0,3.00000000000000000E0,-2.00000000000000000E0));
#90=B_SPLINE_CURVE_WITH_KNOTS('',1,(#88,#89),.UNSPECIFIED.,.F.,.F.,(2,2),(0.00000000000000000E0,1.00000000000000000E0),.UNSPECIFIED.);
#91=CARTESIAN_POINT('',(3.00000000000000000E0,3.00000000000000000E0,-2.00000000000000000E0));
#92=CARTESIAN_POINT('',(3.00000000000000000E0,8.50000000000000000E0,-2.00000000000000000E0));
#93=B_SPLINE_CURVE_WITH_KNOTS('',1,(#91,#92),.UNSPECIFIED.,.F.,.F.,(2,2),(0.00000000000000000E0,1.00000000000000000E0),.UNSPECIFIED.);
#94=CARTESIAN_POINT('',(-7.00000000000000000E0,1.10000000000000000E1,-2.00000000000000000E0));
#95=CARTESIAN_POINT('',(5.00000000000000000E-1,1.10000000000000000E1,-2.00000000000000000E0));
#96=B_SPLINE_CURVE_WITH_KNOTS('',1,(#94,#95),.UNSPECIFIED.,.F.,.F.,(2,2),(0.00000000000000000E0,1.00000000000000000E0),.UNSPECIFIED.);
#97=CARTESIAN_POINT('',(-7.00000000000000000E0,3.00000000000000000E0,-2.00000000000000000E0));
#98=CARTESIAN_POINT('',(-7.00000000000000000E0,1.10000000000000000E1,-2.00000000000000000E0));
#99=B_SPLINE_CURVE_WITH_KNOTS('',1,(#97,#98),.UNSPECIFIED.,.F.,.F.,(2,2),(0.00000000000000000E0,1.00000000000000000E0),.UNSPECIFIED.);
#100=CARTESIAN_POINT('',(-7.00000000000000000E0,3.00000000000000000E0,-2.00000000000000000E0));
#101=CARTESIAN_POINT('',(-7.00000000000000000E0,3.00000000000000000E0,4.00000000000000000E0));
#102=B_SPLINE_CURVE_WITH_KNOTS('',1,(#100,#101),.UNSPECIFIED.,.F.,.F.,(2,2),(0.00000000000000000E0,1.00000000000000000E0),.UNSPECIFIED.);
#103=CARTESIAN_POINT('',(3.00000000000000000E0,3.00000000000000000E0,-2.00000000000000000E0));
#104=CARTESIAN_POINT('',(3.00000000000000000E0,3.00000000000000000E0,1.50000000000000000E0));
#105=B_SPLINE_CURVE_WITH_KNOTS('',1,(#103,#104),.UNSPECIFIED.,.F.,.F.,(2,2),(0.00000000000000000E0,1.00000000000000000E0),.UNSPECIFIED.);
#106=CARTESIAN_POINT('',(3.00000000000000000E0,8.50000000000000000E0,1.50000000000000000E0));
#107=CARTESIAN_POINT('',(3.00000000000000000E0,3.00000000000000000E0,1.50000000000000000E0));
#108=B_SPLINE_CURVE_WITH_KNOTS('',1,(#106,#107),.UNSPECIFIED.,.F.,.F.,(2,2),(0.00000000000000000E0,1.00000000000000000E0),.UNSPECIFIED.);
#109=CARTESIAN_POINT('',(3.00000000000000000E0,8.50000000000000000E0,-2.00000000000000000E0));
#110=CARTESIAN_POINT('',(3.00000000000000000E0,8.50000000000000000E0,1.50000000000000000E0));
#111=B_SPLINE_CURVE_WITH_KNOTS('',1,(#109,#110),.UNSPECIFIED.,.F.,.F.,(2,2),(0.00000000000000000E0,1.00000000000000000E0),.UNSPECIFIED.);
#112=CARTESIAN_POINT('',(5.00000000000000000E-1,1.10000000000000000E1,-2.00000000000000000E0));
#113=CARTESIAN_POINT('',(5.00000000000000000E-1,1.10000000000000000E1,1.50000000000000000E0));
#114=B_SPLINE_CURVE_WITH_KNOTS('',1,(#112,#113),.UNSPECIFIED.,.F.,.F.,(2,2),(0.00000000000000000E0,1.00000000000000000E0),.UNSPECIFIED.);
#115=CARTESIAN_POINT('',(-7.00000000000000000E0,1.10000000000000000E1,-2.00000000000000000E0));
#116=CARTESIAN_POINT('',(-7.00000000000000000E0,1.10000000000000000E1,1.50000000000000000E0));
#117=B_SPLINE_CURVE_WITH_KNOTS('',1,(#115,#116),.UNSPECIFIED.,.F.,.F.,(2,2),(0.00000000000000000E0,1.00000000000000000E0),.UNSPECIFIED.);
#118=CARTESIAN_POINT('',(5.00000000000000000E-1,1.10000000000000000E1,1.50000000000000000E0));
#119=CARTESIAN_POINT('',(-7.00000000000000000E0,1.10000000000000000E1,1.50000000000000000E0));
#120=B_SPLINE_CURVE_WITH_KNOTS('',1,(#118,#119),.UNSPECIFIED.,.F.,.F.,(2,2),(0.00000000000000000E0,1.00000000000000000E0),.UNSPECIFIED.);
#121=CARTESIAN_POINT('',(-7.00000000000000000E0,3.00000000000000000E0,4.00000000000000000E0));
#122=CARTESIAN_POINT('',(5.00000000000000000E-1,3.00000000000000000E0,4.00000000000000000E0));
#123=B_SPLINE_CURVE_WITH_KNOTS('',1,(#121,#122),.UNSPECIFIED.,.F.,.F.,(2,2),(0.00000000000000000E0,1.00000000000000000E0),.UNSPECIFIED.);
#124=CARTESIAN_POINT('',(5.00000000000000000E-1,8.50000000000000000E0,4.00000000000000000E0));
#125=CARTESIAN_POINT('',(5.00000000000000000E-1,3.00000000000000000E0,4.00000000000000000E0));
#126=B_SPLINE_CURVE_WITH_KNOTS('',1,(#124,#125),.UNSPECIFIED.,.F.,.F.,(2,2),(0.00000000000000000E0,1.00000000000000000E0),.UNSPECIFIED.);
#127=CARTESIAN_POINT('',(-7.00000000000000000E0,3.00000000000000000E0,4.00000000000000000E0));
#128=CARTESIAN_POINT('',(-7.00000000000000000E0,8.50000000000000000E0,4.00000000000000000E0));
#129=B_SPLINE_CURVE_WITH_KNOTS('',1,(#127,#128),.UNSPECIFIED.,.F.,.F.,(2,2),(0.00000000000000000E0,1.00000000000000000E0),.UNSPECIFIED.);
#130=CARTESIAN_POINT('',(5.00000000000000000E-1,8.50000000000000000E0,4.00000000000000000E0));
#131=CARTESIAN_POINT('',(-7.00000000000000000E0,8.50000000000000000E0,4.00000000000000000E0));
#132=B_SPLINE_CURVE_WITH_KNOTS('',1,(#130,#131),.UNSPECIFIED.,.F.,.F.,(2,2),(0.00000000000000000E0,1.00000000000000000E0),.UNSPECIFIED.);
#133=CARTESIAN_POINT('',(3.00000000000000000E0,8.50000000000000000E0,-2.00000000000000000E0));
#134=CARTESIAN_POINT('',(3.00000000000000000E0,1.10000000000000000E1,-2.00000000000000000E0));
#135=CARTESIAN_POINT('',(5.00000000000000111E-1,1.10000000000000000E1,-2.00000000000000000E0));
#136=(BOUNDED_CURVE()B_SPLINE_CURVE(2,(#133,#134,#135),.UNSPECIFIED.,.F.,.F.)B_SPLINE_CURVE_WITH_KNOTS((3,3),(0.00000000000000000E0,1.00000000000000000E0),.UNSPECIFIED.)CURVE()GEOMETRIC_REPRESENTATION_ITEM()RATIONAL_B_SPLINE_CURVE((1.00000000000000000E0,7.07106781186547573E-1,1.00000000000000000E0))REPRESENTATION_ITEM(''));
#137=CARTESIAN_POINT('',(3.00000000000000000E0,8.50000000000000000E0,1.50000000000000000E0));
#138=CARTESIAN_POINT('',(3.00000000000000000E0,1.10000000000000000E1,1.50000000000000000E0));
#139=CARTESIAN_POINT('',(5.00000000000000111E-1,1.10000000000000000E1,1.50000000000000000E0));
#140=(BOUNDED_CURVE()B_SPLINE_CURVE(2,(#137,#138,#139),.UNSPECIFIED.,.F.,.F.)B_SPLINE_CURVE_WITH_KNOTS((3,3),(0.00000000000000000E0,1.00000000000000000E0),.UNSPECIFIED.)CURVE()GEOMETRIC_REPRESENTATION_ITEM()RATIONAL_B_SPLINE_CURVE((1.00000000000000000E0,7.07106781186547573E-1,1.00000000000000000E0))REPRESENTATION_ITEM(''));
#141=CARTESIAN_POINT('',(3.00000000000000000E0,8.50000000000000000E0,1.50000000000000000E0));
#142=CARTESIAN_POINT('',(3.00000000000000000E0,8.50000000000000000E0,4.00000000000000000E0));
#143=CARTESIAN_POINT('',(5.00000000000000000E-1,8.50000000000000000E0,4.00000000000000000E0));
#144=(BOUNDED_CURVE()B_SPLINE_CURVE(2,(#141,#142,#143),.UNSPECIFIED.,.F.,.F.)B_SPLINE_CURVE_WITH_KNOTS((3,3),(0.00000000000000000E0,1.00000000000000000E0),.UNSPECIFIED.)CURVE()GEOMETRIC_REPRESENTATION_ITEM()RATIONAL_B_SPLINE_CURVE((2.00000000000000000E0,1.00000000000000000E0,1.00000000000000000E0))REPRESENTATION_ITEM(''));
#145=CARTESIAN_POINT('',(5.00000000000000000E-1,1.10000000000000000E1,1.50000000000000000E0));
#146=CARTESIAN_POINT('',(5.00000000000000000E-1,1.10000000000000000E1,4.00000000000000000E0));
#147=CARTESIAN_POINT('',(5.00000000000000000E-1,8.50000000000000000E0,4.00000000000000000E0));
#148=(BOUNDED_CURVE()B_SPLINE_CURVE(2,(#145,#146,#147),.UNSPECIFIED.,.F.,.F.)B_SPLINE_CURVE_WITH_KNOTS((3,3),(0.00000000000000000E0,1.00000000000000000E0),.UNSPECIFIED.)CURVE()GEOMETRIC_REPRESENTATION_ITEM()RATIONAL_B_SPLINE_CURVE((2.00000000000000000E0,1.00000000000000000E0,1.00000000000000000E0))REPRESENTATION_ITEM(''));
#149=CARTESIAN_POINT('',(3.00000000000000000E0,3.00000000000000000E0,1.50000000000000000E0));
#150=CARTESIAN_POINT('',(3.00000000000000000E0,3.00000000000000000E0,4.00000000000000000E0));
#151=CARTESIAN_POINT('',(5.00000000000000000E-1,3.00000000000000000E0,4.00000000000000000E0));
#152=(BOUNDED_CURVE()B_SPLINE_CURVE(2,(#149,#150,#151),.UNSPECIFIED.,.F.,.F.)B_SPLINE_CURVE_WITH_KNOTS((3,3),(0.00000000000000000E0,1.00000000000000000E0),.UNSPECIFIED.)CURVE()GEOMETRIC_REPRESENTATION_ITEM()RATIONAL_B_SPLINE_CURVE((2.00000000000000000E0,1.00000000000000000E0,1.00000000000000000E0))REPRESENTATION_ITEM(''));
#153=CARTESIAN_POINT('',(-7.00000000000000000E0,1.10000000000000000E1,1.50000000000000000E0));
#154=CARTESIAN_POINT('',(-7.00000000000000000E0,1.10000000000000000E1,4.00000000000000000E0));
#155=CARTESIAN_POINT('',(-7.00000000000000000E0,8.50000000000000000E0,4.00000000000000000E0));
#156=(BOUNDED_CURVE()B_SPLINE_CURVE(2,(#153,#154,#155),.UNSPECIFIED.,.F.,.F.)B_SPLINE_CURVE_WITH_KNOTS((3,3),(0.00000000000000000E0,1.00000000000000000E0),.UNSPECIFIED.)CURVE()GEOMETRIC_REPRESENTATION_ITEM()RATIONAL_B_SPLINE_CURVE((2.00000000000000000E0,1.00000000000000000E0,1.00000000000000000E0))REPRESENTATION_ITEM(''));
#157=(GEOMETRIC_REPRESENTATION_CONTEXT(2)REPRESENTATION_CONTEXT('','2D'));
#158=CARTESIAN_POINT('',(1.00000000000000000E0,0.00000000000000000E0));
#159=CARTESIAN_POINT('',(1.00000000000000000E0,1.00000000000000000E0));
#160=B_SPLINE_CURVE_WITH_KNOTS('',1,(#158,#159),.UNSPECIFIED.,.F.,.F.,(2,2),(0.00000000000000000E0,1.00000000000000000E0),.UNSPECIFIED.);
#161=DEFINITIONAL_REPRESENTATION('',(#160),#157);
#162=PCURVE('',#31,#161);
#163=CARTESIAN_POINT('',(1.00000000000000000E0,1.00000000000000000E0));
#164=CARTESIAN_POINT('',(2.50000000000000000E-1,1.00000000000000000E0));
#165=B_SPLINE_CURVE_WITH_KNOTS('',1,(#163,#164),.UNSPECIFIED.,.F.,.F.,(2,2),(0.00000000000000000E0,1.00000000000000000E0),.UNSPECIFIED.);
#166=DEFINITIONAL_REPRESENTATION('',(#165),#157);
#167=PCURVE('',#31,#166);
#168=CARTESIAN_POINT('',(2.50000000000000000E-1,1.00000000000000000E0));
#169=CARTESIAN_POINT('',(0.00000000000000000E0,1.00000000000000000E0));
#170=CARTESIAN_POINT('',(0.00000000000000000E0,6.87500000000000000E-1));
#171=(BOUNDED_CURVE()B_SPLINE_CURVE(2,(#168,#169,#170),.UNSPECIFIED.,.F.,.F.)B_SPLINE_CURVE_WITH_KNOTS((3,3),(0.00000000000000000E0,1.00000000000000000E0),.UNSPECIFIED.)CURVE()GEOMETRIC_REPRESENTATION_ITEM()RATIONAL_B_SPLINE_CURVE((1.00000000000000000E0,7.07106781186547573E-1,1.00000000000000000E0))REPRESENTATION_ITEM(''));
#172=DEFINITIONAL_REPRESENTATION('',(#171),#157);
#173=PCURVE('',#31,#172);
#174=CARTESIAN_POINT('',(0.00000000000000000E0,6.87500000000000000E-1));
#175=CARTESIAN_POINT('',(0.00000000000000000E0,0.00000000000000000E0));
#176=B_SPLINE_CURVE_WITH_KNOTS('',1,(#174,#175),.UNSPECIFIED.,.F.,.F.,(2,2),(0.00000000000000000E0,1.00000000000000000E0),.UNSPECIFIED.);
#177=DEFINITIONAL_REPRESENTATION('',(#176),#157);
#178=PCURVE('',#31,#177);
#179=CARTESIAN_POINT('',(0.00000000000000000E0,0.00000000000000000E0));
#180=CARTESIAN_POINT('',(1.00000000000000000E0,0.00000000000000000E0));
#181=B_SPLINE_CURVE_WITH_KNOTS('',1,(#179,#180),.UNSPECIFIED.,.F.,.F.,(2,2),(0.00000000000000000E0,1.00000000000000000E0),.UNSPECIFIED.);
#182=DEFINITIONAL_REPRESENTATION('',(#181),#157);
#183=PCURVE('',#31,#182);
#184=CARTESIAN_POINT('',(0.00000000000000000E0,0.00000000000000000E0));
#185=CARTESIAN_POINT('',(7.50000000000000000E-1,0.00000000000000000E0));
#186=B_SPLINE_CURVE_WITH_KNOTS('',1,(#184,#185),.UNSPECIFIED.,.F.,.F.,(2,2),(0.00000000000000000E0,1.00000000000000000E0),.UNSPECIFIED.);
#187=DEFINITIONAL_REPRESENTATION('',(#186),#157);
#188=PCURVE('',#36,#187);
#189=CARTESIAN_POINT('',(7.50000000000000000E-1,0.00000000000000000E0));
#190=CARTESIAN_POINT('',(7.50000000000000000E-1,6.87500000000000000E-1));
#191=B_SPLINE_CURVE_WITH_KNOTS('',1,(#189,#190),.UNSPECIFIED.,.F.,.F.,(2,2),(0.00000000000000000E0,1.00000000000000000E0),.UNSPECIFIED.);
#192=DEFINITIONAL_REPRESENTATION('',(#191),#157);
#193=PCURVE('',#36,#192);
#194=CARTESIAN_POINT('',(7.50000000000000000E-1,6.87500000000000000E-1));
#195=CARTESIAN_POINT('',(0.00000000000000000E0,6.87500000000000000E-1));
#196=B_SPLINE_CURVE_WITH_KNOTS('',1,(#194,#195),.UNSPECIFIED.,.F.,.F.,(2,2),(0.00000000000000000E0,1.00000000000000000E0),.UNSPECIFIED.);
#197=DEFINITIONAL_REPRESENTATION('',(#196),#157);
#198=PCURVE('',#36,#197);
#199=CARTESIAN_POINT('',(0.00000000000000000E0,6.87500000000000000E-1));
#200=CARTESIAN_POINT('',(0.00000000000000000E0,0.00000000000000000E0));
#201=B_SPLINE_CURVE_WITH_KNOTS('',1,(#199,#200),.UNSPECIFIED.,.F.,.F.,(2,2),(0.00000000000000000E0,1.00000000000000000E0),.UNSPECIFIED.);
#202=DEFINITIONAL_REPRESENTATION('',(#201),#157);
#203=PCURVE('',#36,#202);
#204=CARTESIAN_POINT('',(1.00000000000000000E0,0.00000000000000000E0));
#205=CARTESIAN_POINT('',(1.00000000000000000E0,1.00000000000000000E0));
#206=B_SPLINE_CURVE_WITH_KNOTS('',1,(#204,#205),.UNSPECIFIED.,.F.,.F.,(2,2),(0.00000000000000000E0,1.00000000000000000E0),.UNSPECIFIED.);
#207=DEFINITIONAL_REPRESENTATION('',(#206),#157);
#208=PCURVE('',#41,#207);
#209=CARTESIAN_POINT('',(1.00000000000000000E0,1.00000000000000000E0));
#210=CARTESIAN_POINT('',(3.12500000000000000E-1,1.00000000000000000E0));
#211=B_SPLINE_CURVE_WITH_KNOTS('',1,(#209,#210),.UNSPECIFIED.,.F.,.F.,(2,2),(0.00000000000000000E0,1.00000000000000000E0),.UNSPECIFIED.);
#212=DEFINITIONAL_REPRESENTATION('',(#211),#157);
#213=PCURVE('',#41,#212);
#214=CARTESIAN_POINT('',(3.12500000000000000E-1,1.00000000000000000E0));
#215=CARTESIAN_POINT('',(0.00000000000000000E0,1.00000000000000000E0));
#216=CARTESIAN_POINT('',(0.00000000000000000E0,5.83333333333333370E-1));
#217=(BOUNDED_CURVE()B_SPLINE_CURVE(2,(#214,#215,#216),.UNSPECIFIED.,.F.,.F.)B_SPLINE_CURVE_WITH_KNOTS((3,3),(0.00000000000000000E0,1.00000000000000000E0),.UNSPECIFIED.)CURVE()GEOMETRIC_REPRESENTATION_ITEM()RATIONAL_B_SPLINE_CURVE((1.00000000000000000E0,1.00000000000000000E0,2.00000000000000000E0))REPRESENTATION_ITEM(''));
#218=DEFINITIONAL_REPRESENTATION('',(#217),#157);
#219=PCURVE('',#41,#218);
#220=CARTESIAN_POINT('',(0.00000000000000000E0,5.83333333333333370E-1));
#221=CARTESIAN_POINT('',(0.00000000000000000E0,0.00000000000000000E0));
#222=B_SPLINE_CURVE_WITH_KNOTS('',1,(#220,#221),.UNSPECIFIED.,.F.,.F.,(2,2),(0.00000000000000000E0,1.00000000000000000E0),.UNSPECIFIED.);
#223=DEFINITIONAL_REPRESENTATION('',(#222),#157);
#224=PCURVE('',#41,#223);
#225=CARTESIAN_POINT('',(0.00000000000000000E0,0.00000000000000000E0));
#226=CARTESIAN_POINT('',(1.00000000000000000E0,0.00000000000000000E0));
#227=B_SPLINE_CURVE_WITH_KNOTS('',1,(#225,#226),.UNSPECIFIED.,.F.,.F.,(2,2),(0.00000000000000000E0,1.00000000000000000E0),.UNSPECIFIED.);
#228=DEFINITIONAL_REPRESENTATION('',(#227),#157);
#229=PCURVE('',#41,#228);
#230=CARTESIAN_POINT('',(0.00000000000000000E0,0.00000000000000000E0));
#231=CARTESIAN_POINT('',(1.00000000000000000E0,0.00000000000000000E0));
#232=B_SPLINE_CURVE_WITH_KNOTS('',1,(#230,#231),.UNSPECIFIED.,.F.,.F.,(2,2),(0.00000000000000000E0,1.00000000000000000E0),.UNSPECIFIED.);
#233=DEFINITIONAL_REPRESENTATION('',(#232),#157);
#234=PCURVE('',#46,#233);
#235=CARTESIAN_POINT('',(1.00000000000000000E0,0.00000000000000000E0));
#236=CARTESIAN_POINT('',(1.00000000000000000E0,5.83333333333333370E-1));
#237=B_SPLINE_CURVE_WITH_KNOTS('',1,(#235,#236),.UNSPECIFIED.,.F.,.F.,(2,2),(0.00000000000000000E0,1.00000000000000000E0),.UNSPECIFIED.);
#238=DEFINITIONAL_REPRESENTATION('',(#237),#157);
#239=PCURVE('',#46,#238);
#240=CARTESIAN_POINT('',(1.00000000000000000E0,5.83333333333333370E-1));
#241=CARTESIAN_POINT('',(1.00000000000000000E0,1.00000000000000000E0));
#242=CARTESIAN_POINT('',(7.50000000000000000E-1,1.00000000000000000E0));
#243=(BOUNDED_CURVE()B_SPLINE_CURVE(2,(#240,#241,#242),.UNSPECIFIED.,.F.,.F.)B_SPLINE_CURVE_WITH_KNOTS((3,3),(0.00000000000000000E0,1.00000000000000000E0),.UNSPECIFIED.)CURVE()GEOMETRIC_REPRESENTATION_ITEM()RATIONAL_B_SPLINE_CURVE((2.00000000000000000E0,1.00000000000000000E0,1.00000000000000000E0))REPRESENTATION_ITEM(''));
#244=DEFINITIONAL_REPRESENTATION('',(#243),#157);
#245=PCURVE('',#46,#244);
#246=CARTESIAN_POINT('',(7.50000000000000000E-1,1.00000000000000000E0));
#247=CARTESIAN_POINT('',(0.00000000000000000E0,1.00000000000000000E0));
#248=B_SPLINE_CURVE_WITH_KNOTS('',1,(#246,#247),.UNSPECIFIED.,.F.,.F.,(2,2),(0.00000000000000000E0,1.00000000000000000E0),.UNSPECIFIED.);
#249=DEFINITIONAL_REPRESENTATION('',(#248),#157);
#250=PCURVE('',#46,#249);
#251=CARTESIAN_POINT('',(0.00000000000000000E0,1.00000000000000000E0));
#252=CARTESIAN_POINT('',(0.00000000000000000E0,0.00000000000000000E0));
#253=B_SPLINE_CURVE_WITH_KNOTS('',1,(#251,#252),.UNSPECIFIED.,.F.,.F.,(2,2),(0.00000000000000000E0,1.00000000000000000E0),.UNSPECIFIED.);
#254=DEFINITIONAL_REPRESENTATION('',(#253),#157);
#255=PCURVE('',#46,#254);
#256=CARTESIAN_POINT('',(0.00000000000000000E0,0.00000000000000000E0));
#257=CARTESIAN_POINT('',(6.87500000000000000E-1,0.00000000000000000E0));
#258=B_SPLINE_CURVE_WITH_KNOTS('',1,(#256,#257),.UNSPECIFIED.,.F.,.F.,(2,2),(0.00000000000000000E0,1.00000000000000000E0),.UNSPECIFIED.);
#259=DEFINITIONAL_REPRESENTATION('',(#258),#157);
#260=PCURVE('',#51,#259);
#261=CARTESIAN_POINT('',(6.87500000000000000E-1,0.00000000000000000E0));
#262=CARTESIAN_POINT('',(6.87500000000000000E-1,5.83333333333333370E-1));
#263=B_SPLINE_CURVE_WITH_KNOTS('',1,(#261,#262),.UNSPECIFIED.,.F.,.F.,(2,2),(0.00000000000000000E0,1.00000000000000000E0),.UNSPECIFIED.);
#264=DEFINITIONAL_REPRESENTATION('',(#263),#157);
#265=PCURVE('',#51,#264);
#266=CARTESIAN_POINT('',(6.87500000000000000E-1,5.83333333333333370E-1));
#267=CARTESIAN_POINT('',(0.00000000000000000E0,5.83333333333333370E-1));
#268=B_SPLINE_CURVE_WITH_KNOTS('',1,(#266,#267),.UNSPECIFIED.,.F.,.F.,(2,2),(0.00000000000000000E0,1.00000000000000000E0),.UNSPECIFIED.);
#269=DEFINITIONAL_REPRESENTATION('',(#268),#157);
#270=PCURVE('',#51,#269);
#271=CARTESIAN_POINT('',(0.00000000000000000E0,5.83333333333333370E-1));
#272=CARTESIAN_POINT('',(0.00000000000000000E0,0.00000000000000000E0));
#273=B_SPLINE_CURVE_WITH_KNOTS('',1,(#271,#272),.UNSPECIFIED.,.F.,.F.,(2,2),(0.00000000000000000E0,1.00000000000000000E0),.UNSPECIFIED.);
#274=DEFINITIONAL_REPRESENTATION('',(#273),#157);
#275=PCURVE('',#51,#274);
#276=CARTESIAN_POINT('',(1.00000000000000000E0,0.00000000000000000E0));
#277=CARTESIAN_POINT('',(1.00000000000000000E0,5.83333333333333370E-1));
#278=B_SPLINE_CURVE_WITH_KNOTS('',1,(#276,#277),.UNSPECIFIED.,.F.,.F.,(2,2),(0.00000000000000000E0,1.00000000000000000E0),.UNSPECIFIED.);
#279=DEFINITIONAL_REPRESENTATION('',(#278),#157);
#280=PCURVE('',#56,#279);
#281=CARTESIAN_POINT('',(1.00000000000000000E0,5.83333333333333370E-1));
#282=CARTESIAN_POINT('',(2.50000000000000000E-1,5.83333333333333370E-1));
#283=B_SPLINE_CURVE_WITH_KNOTS('',1,(#281,#282),.UNSPECIFIED.,.F.,.F.,(2,2),(0.00000000000000000E0,1.00000000000000000E0),.UNSPECIFIED.);
#284=DEFINITIONAL_REPRESENTATION('',(#283),#157);
#285=PCURVE('',#56,#284);
#286=CARTESIAN_POINT('',(2.50000000000000000E-1,5.83333333333333370E-1));
#287=CARTESIAN_POINT('',(2.50000000000000000E-1,0.00000000000000000E0));
#288=B_SPLINE_CURVE_WITH_KNOTS('',1,(#286,#287),.UNSPECIFIED.,.F.,.F.,(2,2),(0.00000000000000000E0,1.00000000000000000E0),.UNSPECIFIED.);
#289=DEFINITIONAL_REPRESENTATION('',(#288),#157);
#290=PCURVE('',#56,#289);
#291=CARTESIAN_POINT('',(2.50000000000000000E-1,0.00000000000000000E0));
#292=CARTESIAN_POINT('',(1.00000000000000000E0,0.00000000000000000E0));
#293=B_SPLINE_CURVE_WITH_KNOTS('',1,(#291,#292),.UNSPECIFIED.,.F.,.F.,(2,2),(0.00000000000000000E0,1.00000000000000000E0),.UNSPECIFIED.);
#294=DEFINITIONAL_REPRESENTATION('',(#293),#157);
#295=PCURVE('',#56,#294);
#296=CARTESIAN_POINT('',(0.00000000000000000E0,0.00000000000000000E0));
#297=CARTESIAN_POINT('',(1.00000000000000000E0,0.00000000000000000E0));
#298=B_SPLINE_CURVE_WITH_KNOTS('',1,(#296,#297),.UNSPECIFIED.,.F.,.F.,(2,2),(0.00000000000000000E0,1.00000000000000000E0),.UNSPECIFIED.);
#299=DEFINITIONAL_REPRESENTATION('',(#298),#157);
#300=PCURVE('',#63,#299);
#301=CARTESIAN_POINT('',(1.00000000000000000E0,0.00000000000000000E0));
#302=CARTESIAN_POINT('',(1.00000000000000000E0,1.00000000000000000E0));
#303=B_SPLINE_CURVE_WITH_KNOTS('',1,(#301,#302),.UNSPECIFIED.,.F.,.F.,(2,2),(0.00000000000000000E0,1.00000000000000000E0),.UNSPECIFIED.);
#304=DEFINITIONAL_REPRESENTATION('',(#303),#157);
#305=PCURVE('',#63,#304);
#306=CARTESIAN_POINT('',(1.00000000000000000E0,1.00000000000000000E0));
#307=CARTESIAN_POINT('',(0.00000000000000000E0,1.00000000000000000E0));
#308=B_SPLINE_CURVE_WITH_KNOTS('',1,(#306,#307),.UNSPECIFIED.,.F.,.F.,(2,2),(0.00000000000000000E0,1.00000000000000000E0),.UNSPECIFIED.);
#309=DEFINITIONAL_REPRESENTATION('',(#308),#157);
#310=PCURVE('',#63,#309);
#311=CARTESIAN_POINT('',(0.00000000000000000E0,1.00000000000000000E0));
#312=CARTESIAN_POINT('',(0.00000000000000000E0,0.00000000000000000E0));
#313=B_SPLINE_CURVE_WITH_KNOTS('',1,(#311,#312),.UNSPECIFIED.,.F.,.F.,(2,2),(0.00000000000000000E0,1.00000000000000000E0),.UNSPECIFIED.);
#314=DEFINITIONAL_REPRESENTATION('',(#313),#157);
#315=PCURVE('',#63,#314);
#316=CARTESIAN_POINT('',(1.00000000000000000E0,0.00000000000000000E0));
#317=CARTESIAN_POINT('',(1.00000000000000000E0,1.00000000000000000E0));
#318=B_SPLINE_CURVE_WITH_KNOTS('',1,(#316,#317),.UNSPECIFIED.,.F.,.F.,(2,2),(0.00000000000000000E0,1.00000000000000000E0),.UNSPECIFIED.);
#319=DEFINITIONAL_REPRESENTATION('',(#318),#157);
#320=PCURVE('',#70,#319);
#321=CARTESIAN_POINT('',(1.00000000000000000E0,1.00000000000000000E0));
#322=CARTESIAN_POINT('',(0.00000000000000000E0,1.00000000000000000E0));
#323=B_SPLINE_CURVE_WITH_KNOTS('',1,(#321,#322),.UNSPECIFIED.,.F.,.F.,(2,2),(0.00000000000000000E0,1.00000000000000000E0),.UNSPECIFIED.);
#324=DEFINITIONAL_REPRESENTATION('',(#323),#157);
#325=PCURVE('',#70,#324);
#326=CARTESIAN_POINT('',(0.00000000000000000E0,1.00000000000000000E0));
#327=CARTESIAN_POINT('',(0.00000000000000000E0,0.00000000000000000E0));
#328=B_SPLINE_CURVE_WITH_KNOTS('',1,(#326,#327),.UNSPECIFIED.,.F.,.F.,(2,2),(0.00000000000000000E0,1.00000000000000000E0),.UNSPECIFIED.);
#329=DEFINITIONAL_REPRESENTATION('',(#328),#157);
#330=PCURVE('',#70,#329);
#331=CARTESIAN_POINT('',(0.00000000000000000E0,0.00000000000000000E0));
#332=CARTESIAN_POINT('',(1.00000000000000000E0,0.00000000000000000E0));
#333=B_SPLINE_CURVE_WITH_KNOTS('',1,(#331,#332),.UNSPECIFIED.,.F.,.F.,(2,2),(0.00000000000000000E0,1.00000000000000000E0),.UNSPECIFIED.);
#334=DEFINITIONAL_REPRESENTATION('',(#333),#157);
#335=PCURVE('',#70,#334);
#336=CARTESIAN_POINT('',(0.00000000000000000E0,0.00000000000000000E0));
#337=CARTESIAN_POINT('',(1.00000000000000000E0,0.00000000000000000E0));
#338=B_SPLINE_CURVE_WITH_KNOTS('',1,(#336,#337),.UNSPECIFIED.,.F.,.F.,(2,2),(0.00000000000000000E0,1.00000000000000000E0),.UNSPECIFIED.);
#339=DEFINITIONAL_REPRESENTATION('',(#338),#157);
#340=PCURVE('',#77,#339);
#341=CARTESIAN_POINT('',(1.00000000000000000E0,0.00000000000000000E0));
#342=CARTESIAN_POINT('',(1.00000000000000000E0,1.00000000000000000E0));
#343=B_SPLINE_CURVE_WITH_KNOTS('',1,(#341,#342),.UNSPECIFIED.,.F.,.F.,(2,2),(0.00000000000000000E0,1.00000000000000000E0),.UNSPECIFIED.);
#344=DEFINITIONAL_REPRESENTATION('',(#343),#157);
#345=PCURVE('',#77,#344);
#346=CARTESIAN_POINT('',(1.00000000000000000E0,1.00000000000000000E0));
#347=CARTESIAN_POINT('',(0.00000000000000000E0,1.00000000000000000E0));
#348=B_SPLINE_CURVE_WITH_KNOTS('',1,(#346,#347),.UNSPECIFIED.,.F.,.F.,(2,2),(0.00000000000000000E0,1.00000000000000000E0),.UNSPECIFIED.);
#349=DEFINITIONAL_REPRESENTATION('',(#348),#157);
#350=PCURVE('',#77,#349);
#351=CARTESIAN_POINT('',(0.00000000000000000E0,1.00000000000000000E0));
#352=CARTESIAN_POINT('',(0.00000000000000000E0,0.00000000000000000E0));
#353=B_SPLINE_CURVE_WITH_KNOTS('',1,(#351,#352),.UNSPECIFIED.,.F.,.F.,(2,2),(0.00000000000000000E0,1.00000000000000000E0),.UNSPECIFIED.);
#354=DEFINITIONAL_REPRESENTATION('',(#353),#157);
#355=PCURVE('',#77,#354);
#356=CARTESIAN_POINT('',(0.00000000000000000E0,0.00000000000000000E0));
#357=CARTESIAN_POINT('',(1.00000000000000000E0,0.00000000000000000E0));
#358=B_SPLINE_CURVE_WITH_KNOTS('',1,(#356,#357),.UNSPECIFIED.,.F.,.F.,(2,2),(0.00000000000000000E0,1.00000000000000000E0),.UNSPECIFIED.);
#359=DEFINITIONAL_REPRESENTATION('',(#358),#157);
#360=PCURVE('',#87,#359);
#361=CARTESIAN_POINT('',(1.00000000000000000E0,0.00000000000000000E0));
#362=CARTESIAN_POINT('',(1.00000000000000000E0,1.00000000000000000E0));
#363=CARTESIAN_POINT('',(0.00000000000000000E0,1.00000000000000000E0));
#364=(BOUNDED_CURVE()B_SPLINE_CURVE(2,(#361,#362,#363),.UNSPECIFIED.,.F.,.F.)B_SPLINE_CURVE_WITH_KNOTS((3,3),(0.00000000000000000E0,1.00000000000000000E0),.UNSPECIFIED.)CURVE()GEOMETRIC_REPRESENTATION_ITEM()RATIONAL_B_SPLINE_CURVE((1.00000000000000000E0,7.07106781186547573E-1,1.00000000000000000E0))REPRESENTATION_ITEM(''));
#365=DEFINITIONAL_REPRESENTATION('',(#364),#157);
#366=PCURVE('',#87,#365);
#367=CARTESIAN_POINT('',(0.00000000000000000E0,1.00000000000000000E0));
#368=CARTESIAN_POINT('',(0.00000000000000000E0,0.00000000000000000E0));
#369=B_SPLINE_CURVE_WITH_KNOTS('',1,(#367,#368),.UNSPECIFIED.,.F.,.F.,(2,2),(0.00000000000000000E0,1.00000000000000000E0),.UNSPECIFIED.);
#370=DEFINITIONAL_REPRESENTATION('',(#369),#157);
#371=PCURVE('',#87,#370);
#372=SURFACE_CURVE('',#90,(#183,#234),.PCURVE_S1.);
#373=EDGE_CURVE('OSCAD_TOPO/3|edge|e:1b72f66ce507cbae9ea52d9d7ddee98a|92db6d675cc50c5af8bd545ac7df80400ec65508f216edb669e0e5ca3e37b623',#2,#4,#372,.T.);
#374=SURFACE_CURVE('',#93,(#178,#260),.PCURVE_S1.);
#375=EDGE_CURVE('OSCAD_TOPO/3|edge|e:5fe73750529b6e7ad23dd9d2fa31facf|afb1e1ddaa726ce32a9a22e3c729a87e19fe8b8c3b9687b1869959c8538c6681',#4,#10,#374,.T.);
#376=SURFACE_CURVE('',#96,(#167,#295),.PCURVE_S1.);
#377=EDGE_CURVE('OSCAD_TOPO/3|edge|e:d32bc1c3c6c673db670eca1b2994063c|e2ae63f52d4f4600780393949e89deb21226bdf00e2925060e8fc65b312404d5',#6,#12,#376,.T.);
#378=SURFACE_CURVE('',#99,(#162,#229),.PCURVE_S1.);
#379=EDGE_CURVE('OSCAD_TOPO/3|edge|e:a9cfcfc2f8418cf9220eb90f7eaaed17|2d4a48a7e908e02bed987ff6a64c7b9ba0e88a5c162213a3d4aed2701809b99c',#2,#6,#378,.T.);
#380=SURFACE_CURVE('',#102,(#208,#255),.PCURVE_S1.);
#381=EDGE_CURVE('OSCAD_TOPO/3|edge|e:d12fcf5d26f10018194828a55cf8b816|33cda0893e8fe70d6ab60844c19f21ec2a61eb7b72045400b1cbc54ef29dffbc',#2,#8,#380,.T.);
#382=SURFACE_CURVE('',#105,(#239,#275),.PCURVE_S1.);
#383=EDGE_CURVE('OSCAD_TOPO/3|edge|e:2112b5f3feb047e84bdc227e9c51db06|e10c297a32cf6a7cdfb715dce0969cc67c0f41fe20b94962d702a567a3c40f2c',#4,#20,#382,.T.);
#384=SURFACE_CURVE('',#108,(#270,#320),.PCURVE_S1.);
#385=EDGE_CURVE('OSCAD_TOPO/3|edge|e:ef3ac23e001be8de8ff56e27a8970bfe|93ccbe917aceca9a40cc96da893954261511bf9d802bbb5e5726f91a22f41308',#14,#20,#384,.T.);
#386=SURFACE_CURVE('',#111,(#265,#315),.PCURVE_S1.);
#387=EDGE_CURVE('OSCAD_TOPO/3|edge|e:2b9c150b5f886ecccf0f6fd399860b80|62ac716f701ccb20e161a4c602f535b09d25e985c1103deb17eecd6d37403395',#10,#14,#386,.T.);
#388=SURFACE_CURVE('',#114,(#290,#305),.PCURVE_S1.);
#389=EDGE_CURVE('OSCAD_TOPO/3|edge|e:7e022e8fbb16d6a3331220aa36242a52|8a4d5fc62b383b6ffde0fed65f3eef4d03cb78da0488c85488c4a4e8e581fe1e',#12,#16,#388,.T.);
#390=SURFACE_CURVE('',#117,(#224,#280),.PCURVE_S1.);
#391=EDGE_CURVE('OSCAD_TOPO/3|edge|e:e1b9dee4638b384d9a4e12c7dbc6d4de|70db53854628dbda56945a1621b16eec979d7cbe5bcce1ba832705ed2bdd2a57',#6,#24,#390,.T.);
#392=SURFACE_CURVE('',#120,(#285,#355),.PCURVE_S1.);
#393=EDGE_CURVE('OSCAD_TOPO/3|edge|e:31cd82b966daa3a2894ee97b8fb783e6|9255c7af99f5a279325e52906a3ad95977305432a80a888b7dd77e4aeecaad79',#16,#24,#392,.T.);
#394=SURFACE_CURVE('',#123,(#188,#250),.PCURVE_S1.);
#395=EDGE_CURVE('OSCAD_TOPO/3|edge|e:af8d9bdfe705e7efd101cfa494f117b8|8b11a8b8e8a2c143dba707458b60d3450fa833cee205fe79ee1a9cbce4fbc080',#8,#22,#394,.T.);
#396=SURFACE_CURVE('',#126,(#193,#330),.PCURVE_S1.);
#397=EDGE_CURVE('OSCAD_TOPO/3|edge|e:73a31a3a6a56a8453bcb45bc0bd9f414|ab061a982832f66634333be6a7b1ed28f629f0fe2c34c7476fcf2698b5be89e2',#18,#22,#396,.T.);
#398=SURFACE_CURVE('',#129,(#203,#213),.PCURVE_S1.);
#399=EDGE_CURVE('OSCAD_TOPO/3|edge|e:29795a3e7d520c9f079f23dae1e8d3ff|e522538a0837800ff390a62b17277ada7357d9a713ad3385fd47d1d59b23795f',#8,#26,#398,.T.);
#400=SURFACE_CURVE('',#132,(#198,#345),.PCURVE_S1.);
#401=EDGE_CURVE('OSCAD_TOPO/3|edge|e:794f39ee1c4ae973ad7843936e482caa|b101579d54d7f7dcc5e70b2891ee06c3962eac4e173cc5296b68baf949be56ee',#18,#26,#400,.T.);
#402=SURFACE_CURVE('',#136,(#173,#300),.PCURVE_S1.);
#403=EDGE_CURVE('OSCAD_TOPO/3|edge|e:6c5b90cb2c92cfed1467863a6a922c38|0569575830ad6be26d903a0ec746663d3670a1fcb93cd6038fe304e7009c8d55',#10,#12,#402,.T.);
#404=SURFACE_CURVE('',#140,(#310,#366),.PCURVE_S1.);
#405=EDGE_CURVE('OSCAD_TOPO/3|edge|e:c426fa52815914b15438b29e5f896660|df387d4da17fe5199517127751e60dce9f980a2d719e1f0b6b4e6abfd33f7787',#14,#16,#404,.T.);
#406=SURFACE_CURVE('',#144,(#325,#360),.PCURVE_S1.);
#407=EDGE_CURVE('OSCAD_TOPO/3|edge|e:f3f1481e69af1a8d4434a45146cd12c2|91a87049d94c6f3dc6f2643a00c5a8b931b76e492c170050211ccfdce1f07bf2',#14,#18,#406,.T.);
#408=SURFACE_CURVE('',#148,(#350,#371),.PCURVE_S1.);
#409=EDGE_CURVE('OSCAD_TOPO/3|edge|e:768b1d586fcdc8db01a1d4e4cbdee75b|9e0e875087a9e1e268ab585cc654792e2e56b7bddbd1596c7456ebe79627d704',#16,#18,#408,.T.);
#410=SURFACE_CURVE('',#152,(#245,#335),.PCURVE_S1.);
#411=EDGE_CURVE('OSCAD_TOPO/3|edge|e:d3e9eb95809f191d498627cc8de096b4|c546994f650e2e25e87365609ac212a09c9ae67021ce19cc83c6a4d0b4faa233',#20,#22,#410,.T.);
#412=SURFACE_CURVE('',#156,(#219,#340),.PCURVE_S1.);
#413=EDGE_CURVE('OSCAD_TOPO/3|edge|e:8fd741a9d0620c6074d62418b2495dc5|880923a4545d4b75f2780ed7f1b3efa236b83294ffe420a7aa57b822ae1550c6',#24,#26,#412,.T.);
#414=ORIENTED_EDGE('',*,*,#379,.T.);
#415=ORIENTED_EDGE('',*,*,#377,.T.);
#416=ORIENTED_EDGE('',*,*,#403,.F.);
#417=ORIENTED_EDGE('',*,*,#375,.F.);
#418=ORIENTED_EDGE('',*,*,#373,.F.);
#419=EDGE_LOOP('OSCAD_TOPO/3|loop|l:4ca865c5e0f2efcbf01a23ff1097f2a8|c2e4586745154ba8556fb75d41d36ecf5cdca428a7730a8e8cc7d8af2cc8f604',(#414,#415,#416,#417,#418));
#420=ORIENTED_EDGE('',*,*,#395,.T.);
#421=ORIENTED_EDGE('',*,*,#397,.F.);
#422=ORIENTED_EDGE('',*,*,#401,.T.);
#423=ORIENTED_EDGE('',*,*,#399,.F.);
#424=EDGE_LOOP('OSCAD_TOPO/3|loop|l:e8f8e2b1473d59d82ea32bbf805416ff|daa34a534f0e9cac3a93e301efabea4240839475ccac413972cda3ffa091cd67',(#420,#421,#422,#423));
#425=ORIENTED_EDGE('',*,*,#381,.T.);
#426=ORIENTED_EDGE('',*,*,#399,.T.);
#427=ORIENTED_EDGE('',*,*,#413,.F.);
#428=ORIENTED_EDGE('',*,*,#391,.F.);
#429=ORIENTED_EDGE('',*,*,#379,.F.);
#430=EDGE_LOOP('OSCAD_TOPO/3|loop|l:d43d888d00ea7f49f4e80b0a5d33c10a|ffc648e164f3c2c67803c23174777fd393fc64646428b129cc3975505caaf072',(#425,#426,#427,#428,#429));
#431=ORIENTED_EDGE('',*,*,#373,.T.);
#432=ORIENTED_EDGE('',*,*,#383,.T.);
#433=ORIENTED_EDGE('',*,*,#411,.T.);
#434=ORIENTED_EDGE('',*,*,#395,.F.);
#435=ORIENTED_EDGE('',*,*,#381,.F.);
#436=EDGE_LOOP('OSCAD_TOPO/3|loop|l:371f57653e2320061dbb41b22a26e98e|810aaeed1f2bd4f50617669d2cb50a45d12bcf4fcd109a87a93b0bf29ca30b11',(#431,#432,#433,#434,#435));
#437=ORIENTED_EDGE('',*,*,#375,.T.);
#438=ORIENTED_EDGE('',*,*,#387,.T.);
#439=ORIENTED_EDGE('',*,*,#385,.T.);
#440=ORIENTED_EDGE('',*,*,#383,.F.);
#441=EDGE_LOOP('OSCAD_TOPO/3|loop|l:0cee615d6ec2fa5b9778fdd1501b7216|944a29f4e6fcac1802cf48698d51a0e7ad5da7ec411dff38350947460b2f1c90',(#437,#438,#439,#440));
#442=ORIENTED_EDGE('',*,*,#391,.T.);
#443=ORIENTED_EDGE('',*,*,#393,.F.);
#444=ORIENTED_EDGE('',*,*,#389,.F.);
#445=ORIENTED_EDGE('',*,*,#377,.F.);
#446=EDGE_LOOP('OSCAD_TOPO/3|loop|l:e822ed3254e583d1715d3be06499b6f7|facce8f5bf5ac5c92a6b22113f681689d043a4fcb5daaec7d0a7f7c505694a04',(#442,#443,#444,#445));
#447=ORIENTED_EDGE('',*,*,#403,.T.);
#448=ORIENTED_EDGE('',*,*,#389,.T.);
#449=ORIENTED_EDGE('',*,*,#405,.F.);
#450=ORIENTED_EDGE('',*,*,#387,.F.);
#451=EDGE_LOOP('OSCAD_TOPO/3|loop|l:7f4fe340a059e395d812d363e167d499|766b696d1ec64c0a7b22365c075ff140fe81351795f01091330b7c414c61c8f7',(#447,#448,#449,#450));
#452=ORIENTED_EDGE('',*,*,#385,.F.);
#453=ORIENTED_EDGE('',*,*,#407,.T.);
#454=ORIENTED_EDGE('',*,*,#397,.T.);
#455=ORIENTED_EDGE('',*,*,#411,.F.);
#456=EDGE_LOOP('OSCAD_TOPO/3|loop|l:745ee38d306bcc3678af8445be6dad75|f83e1fcaba78b71f02db7c8aad03cff4830b17c9bdb468e4eb10041a956a81e1',(#452,#453,#454,#455));
#457=ORIENTED_EDGE('',*,*,#413,.T.);
#458=ORIENTED_EDGE('',*,*,#401,.F.);
#459=ORIENTED_EDGE('',*,*,#409,.F.);
#460=ORIENTED_EDGE('',*,*,#393,.T.);
#461=EDGE_LOOP('OSCAD_TOPO/3|loop|l:d08ca8d213e5e262e0960fc9c18e55f1|544d5bf99dd04417bacd462d4f14457cc8e66b2ca03fc4796c3625935375e2de',(#457,#458,#459,#460));
#462=ORIENTED_EDGE('',*,*,#407,.F.);
#463=ORIENTED_EDGE('',*,*,#405,.T.);
#464=ORIENTED_EDGE('',*,*,#409,.T.);
#465=EDGE_LOOP('OSCAD_TOPO/3|loop|l:766023006fa4f83a5e57900124fd6d70|3e86235a61efca0c47f113cc23f26c5aabb6e5c55ffb47be6084cc751e61594c',(#462,#463,#464));
#466=FACE_OUTER_BOUND('',#419,.T.);
#467=ADVANCED_FACE('OSCAD_TOPO/3|face|f:f2fa2e505582152ec8522a512f5cf1ab|18b89499fb988448eb9913e89b7e22cc79638910f775df2e4cd0a2b9d7c6a6cc',(#466),#31,.T.);
#468=FACE_OUTER_BOUND('',#424,.T.);
#469=ADVANCED_FACE('OSCAD_TOPO/3|face|f:a8884c64ace299af67ba111972487bc5|0bf257eddb0c0baa2c28b3a7557d8118be43700cdacfdc1bd2556448a8e3b619',(#468),#36,.T.);
#470=FACE_OUTER_BOUND('',#430,.T.);
#471=ADVANCED_FACE('OSCAD_TOPO/3|face|f:f25edc90d31e0acbae5ba3f7e151561c|1ab240fb0771b04e3e35fe29d7c97a4c269e06545604498696b997781ad005ca',(#470),#41,.T.);
#472=FACE_OUTER_BOUND('',#436,.T.);
#473=ADVANCED_FACE('OSCAD_TOPO/3|face|f:955023fbacb6abe8c202eb966af71de3|79455c5087ece976e11c60f8f79192d7bf2aa52bdc365efc985c37a93824f632',(#472),#46,.T.);
#474=FACE_OUTER_BOUND('',#441,.T.);
#475=ADVANCED_FACE('OSCAD_TOPO/3|face|f:7fa080565a91754d515b0dd952842cd8|0d506995d78a264e227e919f26867076d36018c335bd260afb1e9a66094150b8',(#474),#51,.T.);
#476=FACE_OUTER_BOUND('',#446,.T.);
#477=ADVANCED_FACE('OSCAD_TOPO/3|face|f:b13de7dc01bd559c047fe832fa9017e6|5bed300f2589fa24af75bf10d80333e7daec706a3134c97a75165e46dcc2e72c',(#476),#56,.T.);
#478=FACE_OUTER_BOUND('',#451,.T.);
#479=ADVANCED_FACE('OSCAD_TOPO/3|face|f:39755cd5850cf5aa68c98c0ff1404b23|e43269eb64d695cd6acf0ab65792e2f742968b0aee34dcf3cc2bc7e4570a3624',(#478),#63,.T.);
#480=FACE_OUTER_BOUND('',#456,.T.);
#481=ADVANCED_FACE('OSCAD_TOPO/3|face|f:4344169d7338d373127cbd806b2bf2c3|cff77becb2198427ca5bab0cc009cad2b64d10bc2dcaf80d695455849a48157e',(#480),#70,.T.);
#482=FACE_OUTER_BOUND('',#461,.T.);
#483=ADVANCED_FACE('OSCAD_TOPO/3|face|f:63fcc53e921914326f1430127f7a8ab5|2317077c0c5e95b783e36768998caf805d69267d8de7689bfc605cc43e7574ea',(#482),#77,.T.);
#484=FACE_OUTER_BOUND('',#465,.T.);
#485=ADVANCED_FACE('OSCAD_TOPO/3|face|f:6c01822adf2da785ff82cc84a2168c50|1c10bbee8cf95f9e3f140108bbe67fa1c999e3491e7ed84bca149014362d6d43',(#484),#87,.T.);
#486=CLOSED_SHELL('OSCAD_TOPO/3|shell|s:820e70c87e5d338f1421b3afa292cc8d|c664e6b8dae47032c941abd0e8e7cdace003c4563ee98cb89219776d31ec0ca8',(#467,#469,#471,#473,#475,#477,#479,#481,#483,#485));
#487=MANIFOLD_SOLID_BREP('OSCAD_TOPO/3|body|b:cc3b46d98e4e6579127e12ca52a49f69|032e2c0125d0451126b2fb91c53b5e73b18f10ce92730b26d5a8f26d4cb9a35e',#486);
#488=(LENGTH_UNIT()NAMED_UNIT(*)SI_UNIT(.MILLI.,.METRE.));
#489=UNCERTAINTY_MEASURE_WITH_UNIT(LENGTH_MEASURE(9.99999999999999955E-8),#488,'distance_accuracy_value','');
#490=(GEOMETRIC_REPRESENTATION_CONTEXT(3)GLOBAL_UNCERTAINTY_ASSIGNED_CONTEXT((#489))GLOBAL_UNIT_ASSIGNED_CONTEXT((#488))REPRESENTATION_CONTEXT('','3D'));
#491=ADVANCED_BREP_SHAPE_REPRESENTATION('',(#487),#490);
#492=APPLICATION_CONTEXT('managed model based 3d engineering');
#493=PRODUCT_CONTEXT('',#492,'mechanical');
#494=PRODUCT('model','model','',(#493));
#495=PRODUCT_DEFINITION_FORMATION('1','',#494);
#496=PRODUCT_DEFINITION_CONTEXT('part definition',#492,'design');
#497=PRODUCT_DEFINITION('design','',#495,#496);
#498=PRODUCT_DEFINITION_SHAPE('','',#497);
#499=SHAPE_DEFINITION_REPRESENTATION(#498,#491);
ENDSEC;
END-ISO-10303-21;
