ISO-10303-21;
HEADER;
FILE_DESCRIPTION(('OpenSCAD Viewer retained AP242 B-rep'),'2;1');
FILE_NAME('model.step','',(''),(''),'OpenSCAD Viewer','OpenSCAD Viewer','');
FILE_SCHEMA(('AP242_MANAGED_MODEL_BASED_3D_ENGINEERING_MIM_LF'));
ENDSEC;
DATA;
#1=CARTESIAN_POINT('',(3.00000000000000000E0,3.00000000000000000E0,4.00000000000000000E0));
#2=VERTEX_POINT('OSCAD_TOPO/3|vertex|v:53a464579622ecae7631e4082e630b38|14d7b7bfc4f503382769214230c513b1797555b1ebe7beddd3dba74267e6137b',#1);
#3=CARTESIAN_POINT('',(3.00000000000000000E0,1.10000000000000000E1,4.00000000000000000E0));
#4=VERTEX_POINT('OSCAD_TOPO/3|vertex|v:06d9911279025fdc180dc0c24a30cc22|dcf2909c4ac8e4e4de619222d9518bf0f54a74692cf28e897ad03ab0ea8a0fb2',#3);
#5=CARTESIAN_POINT('',(-4.50000000000000000E0,1.10000000000000000E1,4.00000000000000000E0));
#6=VERTEX_POINT('OSCAD_TOPO/3|vertex|v:63ff2dfb2931a06b7b15b11f8e8972b5|fa4e22cae5592daf888b207ed17ed23feb76f96f18b82486bb36cfdb8dcfab56',#5);
#7=CARTESIAN_POINT('',(-7.00000000000000000E0,8.50000000000000000E0,4.00000000000000000E0));
#8=VERTEX_POINT('OSCAD_TOPO/3|vertex|v:dfffd3defb48505d6fe7aec4e6851621|c04b1a77c499af376b1cfd855bf11adf87458dd45b34088eff267e1fb3bed532',#7);
#9=CARTESIAN_POINT('',(-7.00000000000000000E0,3.00000000000000000E0,4.00000000000000000E0));
#10=VERTEX_POINT('OSCAD_TOPO/3|vertex|v:08a69e9d487b9d2cca0fea9e5bab1bae|69736b220b53d84fa8b8f643d181f78c74deeefbc7aa414638c39b058338d8f7',#9);
#11=CARTESIAN_POINT('',(3.00000000000000000E0,3.00000000000000000E0,-2.00000000000000000E0));
#12=VERTEX_POINT('OSCAD_TOPO/3|vertex|v:b2279a1257c4fcf496396948530a5725|2122d0861c061d32e6dd1bbf745308449de522badbd407c6558c663ed3c38f30',#11);
#13=CARTESIAN_POINT('',(-4.50000000000000000E0,3.00000000000000000E0,-2.00000000000000000E0));
#14=VERTEX_POINT('OSCAD_TOPO/3|vertex|v:f847a99384a3a48a3f66b5ba89a6f5e0|30cfd6b3f2d0a67e38a2be1b162464300cdf075b44a722f47ab21aee64abd60f',#13);
#15=CARTESIAN_POINT('',(-4.50000000000000000E0,8.50000000000000000E0,-2.00000000000000000E0));
#16=VERTEX_POINT('OSCAD_TOPO/3|vertex|v:0725b7f94841ed906fd5fd1b2b43b6c6|200f7f4060fced4b5c38360ba61573fb4356d5a8043ee40fca39a97c1302ba05',#15);
#17=CARTESIAN_POINT('',(3.00000000000000000E0,8.50000000000000000E0,-2.00000000000000000E0));
#18=VERTEX_POINT('OSCAD_TOPO/3|vertex|v:896e36f38b44f0de44af2abb311e9958|ce9d3c8352dc4059e2ee33cb846a49bc15536c329d58f13bd9827869eb0c7e5b',#17);
#19=CARTESIAN_POINT('',(3.00000000000000000E0,1.10000000000000000E1,5.00000000000000000E-1));
#20=VERTEX_POINT('OSCAD_TOPO/3|vertex|v:530037f042f871c8b7f1ec8ef95859fb|b679f541011a75b467072ad5e3c25c8782bd5e29482c2134be18aae4d14f0e10',#19);
#21=CARTESIAN_POINT('',(-7.00000000000000000E0,3.00000000000000000E0,5.00000000000000000E-1));
#22=VERTEX_POINT('OSCAD_TOPO/3|vertex|v:75fcff879c5b995863bfd4b2fb5e0560|4f1490ce1a7fcddcd7ea2cb567eb5a8cc701e6d7124edf44d59f5e0331aba4f3',#21);
#23=CARTESIAN_POINT('',(-7.00000000000000000E0,8.50000000000000000E0,5.00000000000000000E-1));
#24=VERTEX_POINT('OSCAD_TOPO/3|vertex|v:16bcf34ca5dc9ee40de2debd50cad7fa|609b5d0a56285c16612755f26b4ecedcc6c84faa63f844ca129eb06d351b5eef',#23);
#25=CARTESIAN_POINT('',(-4.50000000000000000E0,1.10000000000000000E1,5.00000000000000000E-1));
#26=VERTEX_POINT('OSCAD_TOPO/3|vertex|v:b296b81976cde4d43cec54097a2bb7bb|fc9c6ec31c6aaa20c0f5d9d0ec2573aaceabafa3890cb24f14ae5907a8baf896',#25);
#27=CARTESIAN_POINT('',(-7.00000000000000000E0,3.00000000000000000E0,4.00000000000000000E0));
#28=CARTESIAN_POINT('',(-7.00000000000000000E0,1.10000000000000000E1,4.00000000000000000E0));
#29=CARTESIAN_POINT('',(3.00000000000000000E0,3.00000000000000000E0,4.00000000000000000E0));
#30=CARTESIAN_POINT('',(3.00000000000000000E0,1.10000000000000000E1,4.00000000000000000E0));
#31=B_SPLINE_SURFACE_WITH_KNOTS('',1,1,((#27,#28),(#29,#30)),.UNSPECIFIED.,.F.,.F.,.F.,(2,2),(2,2),(0.00000000000000000E0,1.00000000000000000E0),(0.00000000000000000E0,1.00000000000000000E0),.UNSPECIFIED.);
#32=CARTESIAN_POINT('',(3.00000000000000000E0,3.00000000000000000E0,-2.00000000000000000E0));
#33=CARTESIAN_POINT('',(3.00000000000000000E0,1.10000000000000000E1,-2.00000000000000000E0));
#34=CARTESIAN_POINT('',(-7.00000000000000000E0,3.00000000000000000E0,-2.00000000000000000E0));
#35=CARTESIAN_POINT('',(-7.00000000000000000E0,1.10000000000000000E1,-2.00000000000000000E0));
#36=B_SPLINE_SURFACE_WITH_KNOTS('',1,1,((#32,#33),(#34,#35)),.UNSPECIFIED.,.F.,.F.,.F.,(2,2),(2,2),(0.00000000000000000E0,1.00000000000000000E0),(0.00000000000000000E0,1.00000000000000000E0),.UNSPECIFIED.);
#37=CARTESIAN_POINT('',(3.00000000000000000E0,1.10000000000000000E1,4.00000000000000000E0));
#38=CARTESIAN_POINT('',(3.00000000000000000E0,1.10000000000000000E1,-2.00000000000000000E0));
#39=CARTESIAN_POINT('',(3.00000000000000000E0,3.00000000000000000E0,4.00000000000000000E0));
#40=CARTESIAN_POINT('',(3.00000000000000000E0,3.00000000000000000E0,-2.00000000000000000E0));
#41=B_SPLINE_SURFACE_WITH_KNOTS('',1,1,((#37,#38),(#39,#40)),.UNSPECIFIED.,.F.,.F.,.F.,(2,2),(2,2),(0.00000000000000000E0,1.00000000000000000E0),(0.00000000000000000E0,1.00000000000000000E0),.UNSPECIFIED.);
#42=CARTESIAN_POINT('',(3.00000000000000000E0,3.00000000000000000E0,4.00000000000000000E0));
#43=CARTESIAN_POINT('',(3.00000000000000000E0,3.00000000000000000E0,-2.00000000000000000E0));
#44=CARTESIAN_POINT('',(-7.00000000000000000E0,3.00000000000000000E0,4.00000000000000000E0));
#45=CARTESIAN_POINT('',(-7.00000000000000000E0,3.00000000000000000E0,-2.00000000000000000E0));
#46=B_SPLINE_SURFACE_WITH_KNOTS('',1,1,((#42,#43),(#44,#45)),.UNSPECIFIED.,.F.,.F.,.F.,(2,2),(2,2),(0.00000000000000000E0,1.00000000000000000E0),(0.00000000000000000E0,1.00000000000000000E0),.UNSPECIFIED.);
#47=CARTESIAN_POINT('',(-7.00000000000000000E0,3.00000000000000000E0,4.00000000000000000E0));
#48=CARTESIAN_POINT('',(-7.00000000000000000E0,3.00000000000000000E0,-2.00000000000000000E0));
#49=CARTESIAN_POINT('',(-7.00000000000000000E0,1.10000000000000000E1,4.00000000000000000E0));
#50=CARTESIAN_POINT('',(-7.00000000000000000E0,1.10000000000000000E1,-2.00000000000000000E0));
#51=B_SPLINE_SURFACE_WITH_KNOTS('',1,1,((#47,#48),(#49,#50)),.UNSPECIFIED.,.F.,.F.,.F.,(2,2),(2,2),(0.00000000000000000E0,1.00000000000000000E0),(0.00000000000000000E0,1.00000000000000000E0),.UNSPECIFIED.);
#52=CARTESIAN_POINT('',(-7.00000000000000000E0,1.10000000000000000E1,4.00000000000000000E0));
#53=CARTESIAN_POINT('',(-7.00000000000000000E0,1.10000000000000000E1,-2.00000000000000000E0));
#54=CARTESIAN_POINT('',(3.00000000000000000E0,1.10000000000000000E1,4.00000000000000000E0));
#55=CARTESIAN_POINT('',(3.00000000000000000E0,1.10000000000000000E1,-2.00000000000000000E0));
#56=B_SPLINE_SURFACE_WITH_KNOTS('',1,1,((#52,#53),(#54,#55)),.UNSPECIFIED.,.F.,.F.,.F.,(2,2),(2,2),(0.00000000000000000E0,1.00000000000000000E0),(0.00000000000000000E0,1.00000000000000000E0),.UNSPECIFIED.);
#57=CARTESIAN_POINT('',(-7.00000000000000000E0,8.50000000000000000E0,4.00000000000000000E0));
#58=CARTESIAN_POINT('',(-7.00000000000000000E0,8.50000000000000000E0,5.00000000000000000E-1));
#59=CARTESIAN_POINT('',(-7.00000000000000000E0,1.10000000000000000E1,4.00000000000000000E0));
#60=CARTESIAN_POINT('',(-7.00000000000000000E0,1.10000000000000000E1,5.00000000000000000E-1));
#61=CARTESIAN_POINT('',(-4.50000000000000000E0,1.10000000000000000E1,4.00000000000000000E0));
#62=CARTESIAN_POINT('',(-4.50000000000000000E0,1.10000000000000000E1,5.00000000000000000E-1));
#63=(BOUNDED_SURFACE()B_SPLINE_SURFACE(2,1,((#57,#58),(#59,#60),(#61,#62)),.UNSPECIFIED.,.F.,.F.,.F.)B_SPLINE_SURFACE_WITH_KNOTS((3,3),(2,2),(0.00000000000000000E0,1.00000000000000000E0),(0.00000000000000000E0,1.00000000000000000E0),.UNSPECIFIED.)GEOMETRIC_REPRESENTATION_ITEM()RATIONAL_B_SPLINE_SURFACE(((1.00000000000000000E0,1.00000000000000000E0),(7.07106781186547573E-1,7.07106781186547573E-1),(1.00000000000000000E0,1.00000000000000000E0)))REPRESENTATION_ITEM('')SURFACE());
#64=CARTESIAN_POINT('',(-4.50000000000000000E0,3.00000000000000000E0,-2.00000000000000000E0));
#65=CARTESIAN_POINT('',(-4.50000000000000000E0,8.50000000000000000E0,-2.00000000000000000E0));
#66=CARTESIAN_POINT('',(-7.00000000000000000E0,3.00000000000000000E0,-2.00000000000000000E0));
#67=CARTESIAN_POINT('',(-7.00000000000000000E0,8.50000000000000000E0,-2.00000000000000000E0));
#68=CARTESIAN_POINT('',(-7.00000000000000000E0,3.00000000000000000E0,5.00000000000000000E-1));
#69=CARTESIAN_POINT('',(-7.00000000000000000E0,8.50000000000000000E0,5.00000000000000000E-1));
#70=(BOUNDED_SURFACE()B_SPLINE_SURFACE(2,1,((#64,#65),(#66,#67),(#68,#69)),.UNSPECIFIED.,.F.,.F.,.F.)B_SPLINE_SURFACE_WITH_KNOTS((3,3),(2,2),(0.00000000000000000E0,1.00000000000000000E0),(0.00000000000000000E0,1.00000000000000000E0),.UNSPECIFIED.)GEOMETRIC_REPRESENTATION_ITEM()RATIONAL_B_SPLINE_SURFACE(((1.00000000000000000E0,1.00000000000000000E0),(1.00000000000000000E0,1.00000000000000000E0),(2.00000000000000000E0,2.00000000000000000E0)))REPRESENTATION_ITEM('')SURFACE());
#71=CARTESIAN_POINT('',(3.00000000000000000E0,1.10000000000000000E1,5.00000000000000000E-1));
#72=CARTESIAN_POINT('',(-4.50000000000000000E0,1.10000000000000000E1,5.00000000000000000E-1));
#73=CARTESIAN_POINT('',(3.00000000000000000E0,1.10000000000000000E1,-2.00000000000000000E0));
#74=CARTESIAN_POINT('',(-4.50000000000000000E0,1.10000000000000000E1,-2.00000000000000000E0));
#75=CARTESIAN_POINT('',(3.00000000000000000E0,8.50000000000000000E0,-2.00000000000000000E0));
#76=CARTESIAN_POINT('',(-4.50000000000000000E0,8.50000000000000000E0,-2.00000000000000000E0));
#77=(BOUNDED_SURFACE()B_SPLINE_SURFACE(2,1,((#71,#72),(#73,#74),(#75,#76)),.UNSPECIFIED.,.F.,.F.,.F.)B_SPLINE_SURFACE_WITH_KNOTS((3,3),(2,2),(0.00000000000000000E0,1.00000000000000000E0),(0.00000000000000000E0,1.00000000000000000E0),.UNSPECIFIED.)GEOMETRIC_REPRESENTATION_ITEM()RATIONAL_B_SPLINE_SURFACE(((2.00000000000000000E0,2.00000000000000000E0),(1.00000000000000000E0,1.00000000000000000E0),(1.00000000000000000E0,1.00000000000000000E0)))REPRESENTATION_ITEM('')SURFACE());
#78=CARTESIAN_POINT('',(-4.50000000000000000E0,8.50000000000000000E0,-2.00000000000000000E0));
#79=CARTESIAN_POINT('',(-4.50000000000000000E0,1.10000000000000000E1,-2.00000000000000000E0));
#80=CARTESIAN_POINT('',(-4.50000000000000000E0,1.10000000000000000E1,5.00000000000000000E-1));
#81=CARTESIAN_POINT('',(-7.00000000000000000E0,8.50000000000000000E0,-2.00000000000000000E0));
#82=CARTESIAN_POINT('',(-7.00000000000000000E0,1.10000000000000000E1,-2.00000000000000000E0));
#83=CARTESIAN_POINT('',(-5.75000000000000000E0,1.10000000000000000E1,5.00000000000000000E-1));
#84=CARTESIAN_POINT('',(-7.00000000000000000E0,8.50000000000000000E0,5.00000000000000000E-1));
#85=CARTESIAN_POINT('',(-7.00000000000000000E0,9.75000000000000000E0,5.00000000000000000E-1));
#86=CARTESIAN_POINT('',(-6.16666666666666696E0,1.01666666666666661E1,1.33333333333333348E0));
#87=(BOUNDED_SURFACE()B_SPLINE_SURFACE(2,2,((#78,#79,#80),(#81,#82,#83),(#84,#85,#86)),.UNSPECIFIED.,.F.,.F.,.F.)B_SPLINE_SURFACE_WITH_KNOTS((3,3),(3,3),(0.00000000000000000E0,1.00000000000000000E0),(0.00000000000000000E0,1.00000000000000000E0),.UNSPECIFIED.)GEOMETRIC_REPRESENTATION_ITEM()RATIONAL_B_SPLINE_SURFACE(((1.00000000000000000E0,1.00000000000000000E0,2.00000000000000000E0),(1.00000000000000000E0,1.00000000000000000E0,2.00000000000000000E0),(2.00000000000000000E0,2.00000000000000000E0,3.00000000000000000E0)))REPRESENTATION_ITEM('')SURFACE());
#88=CARTESIAN_POINT('',(3.00000000000000000E0,3.00000000000000000E0,4.00000000000000000E0));
#89=CARTESIAN_POINT('',(3.00000000000000000E0,1.10000000000000000E1,4.00000000000000000E0));
#90=B_SPLINE_CURVE_WITH_KNOTS('',1,(#88,#89),.UNSPECIFIED.,.F.,.F.,(2,2),(0.00000000000000000E0,1.00000000000000000E0),.UNSPECIFIED.);
#91=CARTESIAN_POINT('',(3.00000000000000000E0,1.10000000000000000E1,4.00000000000000000E0));
#92=CARTESIAN_POINT('',(-4.50000000000000000E0,1.10000000000000000E1,4.00000000000000000E0));
#93=B_SPLINE_CURVE_WITH_KNOTS('',1,(#91,#92),.UNSPECIFIED.,.F.,.F.,(2,2),(0.00000000000000000E0,1.00000000000000000E0),.UNSPECIFIED.);
#94=CARTESIAN_POINT('',(-7.00000000000000000E0,8.50000000000000000E0,4.00000000000000000E0));
#95=CARTESIAN_POINT('',(-7.00000000000000000E0,1.10000000000000000E1,4.00000000000000000E0));
#96=CARTESIAN_POINT('',(-4.50000000000000000E0,1.10000000000000000E1,4.00000000000000000E0));
#97=(BOUNDED_CURVE()B_SPLINE_CURVE(2,(#94,#95,#96),.UNSPECIFIED.,.F.,.F.)B_SPLINE_CURVE_WITH_KNOTS((3,3),(0.00000000000000000E0,1.00000000000000000E0),.UNSPECIFIED.)CURVE()GEOMETRIC_REPRESENTATION_ITEM()RATIONAL_B_SPLINE_CURVE((1.00000000000000000E0,7.07106781186547573E-1,1.00000000000000000E0))REPRESENTATION_ITEM(''));
#98=CARTESIAN_POINT('',(-7.00000000000000000E0,3.00000000000000000E0,4.00000000000000000E0));
#99=CARTESIAN_POINT('',(-7.00000000000000000E0,8.50000000000000000E0,4.00000000000000000E0));
#100=B_SPLINE_CURVE_WITH_KNOTS('',1,(#98,#99),.UNSPECIFIED.,.F.,.F.,(2,2),(0.00000000000000000E0,1.00000000000000000E0),.UNSPECIFIED.);
#101=CARTESIAN_POINT('',(3.00000000000000000E0,3.00000000000000000E0,4.00000000000000000E0));
#102=CARTESIAN_POINT('',(-7.00000000000000000E0,3.00000000000000000E0,4.00000000000000000E0));
#103=B_SPLINE_CURVE_WITH_KNOTS('',1,(#101,#102),.UNSPECIFIED.,.F.,.F.,(2,2),(0.00000000000000000E0,1.00000000000000000E0),.UNSPECIFIED.);
#104=CARTESIAN_POINT('',(3.00000000000000000E0,3.00000000000000000E0,-2.00000000000000000E0));
#105=CARTESIAN_POINT('',(-4.50000000000000000E0,3.00000000000000000E0,-2.00000000000000000E0));
#106=B_SPLINE_CURVE_WITH_KNOTS('',1,(#104,#105),.UNSPECIFIED.,.F.,.F.,(2,2),(0.00000000000000000E0,1.00000000000000000E0),.UNSPECIFIED.);
#107=CARTESIAN_POINT('',(-4.50000000000000000E0,8.50000000000000000E0,-2.00000000000000000E0));
#108=CARTESIAN_POINT('',(-4.50000000000000000E0,3.00000000000000000E0,-2.00000000000000000E0));
#109=B_SPLINE_CURVE_WITH_KNOTS('',1,(#107,#108),.UNSPECIFIED.,.F.,.F.,(2,2),(0.00000000000000000E0,1.00000000000000000E0),.UNSPECIFIED.);
#110=CARTESIAN_POINT('',(-4.50000000000000000E0,8.50000000000000000E0,-2.00000000000000000E0));
#111=CARTESIAN_POINT('',(3.00000000000000000E0,8.50000000000000000E0,-2.00000000000000000E0));
#112=B_SPLINE_CURVE_WITH_KNOTS('',1,(#110,#111),.UNSPECIFIED.,.F.,.F.,(2,2),(0.00000000000000000E0,1.00000000000000000E0),.UNSPECIFIED.);
#113=CARTESIAN_POINT('',(3.00000000000000000E0,3.00000000000000000E0,-2.00000000000000000E0));
#114=CARTESIAN_POINT('',(3.00000000000000000E0,8.50000000000000000E0,-2.00000000000000000E0));
#115=B_SPLINE_CURVE_WITH_KNOTS('',1,(#113,#114),.UNSPECIFIED.,.F.,.F.,(2,2),(0.00000000000000000E0,1.00000000000000000E0),.UNSPECIFIED.);
#116=CARTESIAN_POINT('',(3.00000000000000000E0,3.00000000000000000E0,4.00000000000000000E0));
#117=CARTESIAN_POINT('',(3.00000000000000000E0,3.00000000000000000E0,-2.00000000000000000E0));
#118=B_SPLINE_CURVE_WITH_KNOTS('',1,(#116,#117),.UNSPECIFIED.,.F.,.F.,(2,2),(0.00000000000000000E0,1.00000000000000000E0),.UNSPECIFIED.);
#119=CARTESIAN_POINT('',(3.00000000000000000E0,1.10000000000000000E1,5.00000000000000000E-1));
#120=CARTESIAN_POINT('',(3.00000000000000000E0,1.10000000000000000E1,-2.00000000000000000E0));
#121=CARTESIAN_POINT('',(3.00000000000000000E0,8.50000000000000000E0,-2.00000000000000000E0));
#122=(BOUNDED_CURVE()B_SPLINE_CURVE(2,(#119,#120,#121),.UNSPECIFIED.,.F.,.F.)B_SPLINE_CURVE_WITH_KNOTS((3,3),(0.00000000000000000E0,1.00000000000000000E0),.UNSPECIFIED.)CURVE()GEOMETRIC_REPRESENTATION_ITEM()RATIONAL_B_SPLINE_CURVE((2.00000000000000000E0,1.00000000000000000E0,1.00000000000000000E0))REPRESENTATION_ITEM(''));
#123=CARTESIAN_POINT('',(3.00000000000000000E0,1.10000000000000000E1,4.00000000000000000E0));
#124=CARTESIAN_POINT('',(3.00000000000000000E0,1.10000000000000000E1,5.00000000000000000E-1));
#125=B_SPLINE_CURVE_WITH_KNOTS('',1,(#123,#124),.UNSPECIFIED.,.F.,.F.,(2,2),(0.00000000000000000E0,1.00000000000000000E0),.UNSPECIFIED.);
#126=CARTESIAN_POINT('',(-7.00000000000000000E0,3.00000000000000000E0,4.00000000000000000E0));
#127=CARTESIAN_POINT('',(-7.00000000000000000E0,3.00000000000000000E0,5.00000000000000000E-1));
#128=B_SPLINE_CURVE_WITH_KNOTS('',1,(#126,#127),.UNSPECIFIED.,.F.,.F.,(2,2),(0.00000000000000000E0,1.00000000000000000E0),.UNSPECIFIED.);
#129=CARTESIAN_POINT('',(-7.00000000000000000E0,3.00000000000000000E0,5.00000000000000000E-1));
#130=CARTESIAN_POINT('',(-7.00000000000000000E0,3.00000000000000000E0,-2.00000000000000000E0));
#131=CARTESIAN_POINT('',(-4.50000000000000000E0,3.00000000000000000E0,-2.00000000000000000E0));
#132=(BOUNDED_CURVE()B_SPLINE_CURVE(2,(#129,#130,#131),.UNSPECIFIED.,.F.,.F.)B_SPLINE_CURVE_WITH_KNOTS((3,3),(0.00000000000000000E0,1.00000000000000000E0),.UNSPECIFIED.)CURVE()GEOMETRIC_REPRESENTATION_ITEM()RATIONAL_B_SPLINE_CURVE((2.00000000000000000E0,1.00000000000000000E0,1.00000000000000000E0))REPRESENTATION_ITEM(''));
#133=CARTESIAN_POINT('',(-7.00000000000000000E0,8.50000000000000000E0,4.00000000000000000E0));
#134=CARTESIAN_POINT('',(-7.00000000000000000E0,8.50000000000000000E0,5.00000000000000000E-1));
#135=B_SPLINE_CURVE_WITH_KNOTS('',1,(#133,#134),.UNSPECIFIED.,.F.,.F.,(2,2),(0.00000000000000000E0,1.00000000000000000E0),.UNSPECIFIED.);
#136=CARTESIAN_POINT('',(-7.00000000000000000E0,8.50000000000000000E0,5.00000000000000000E-1));
#137=CARTESIAN_POINT('',(-7.00000000000000000E0,3.00000000000000000E0,5.00000000000000000E-1));
#138=B_SPLINE_CURVE_WITH_KNOTS('',1,(#136,#137),.UNSPECIFIED.,.F.,.F.,(2,2),(0.00000000000000000E0,1.00000000000000000E0),.UNSPECIFIED.);
#139=CARTESIAN_POINT('',(-4.50000000000000000E0,1.10000000000000000E1,5.00000000000000000E-1));
#140=CARTESIAN_POINT('',(3.00000000000000000E0,1.10000000000000000E1,5.00000000000000000E-1));
#141=B_SPLINE_CURVE_WITH_KNOTS('',1,(#139,#140),.UNSPECIFIED.,.F.,.F.,(2,2),(0.00000000000000000E0,1.00000000000000000E0),.UNSPECIFIED.);
#142=CARTESIAN_POINT('',(-4.50000000000000000E0,1.10000000000000000E1,4.00000000000000000E0));
#143=CARTESIAN_POINT('',(-4.50000000000000000E0,1.10000000000000000E1,5.00000000000000000E-1));
#144=B_SPLINE_CURVE_WITH_KNOTS('',1,(#142,#143),.UNSPECIFIED.,.F.,.F.,(2,2),(0.00000000000000000E0,1.00000000000000000E0),.UNSPECIFIED.);
#145=CARTESIAN_POINT('',(-7.00000000000000000E0,8.50000000000000000E0,5.00000000000000000E-1));
#146=CARTESIAN_POINT('',(-7.00000000000000000E0,1.10000000000000000E1,5.00000000000000000E-1));
#147=CARTESIAN_POINT('',(-4.50000000000000000E0,1.10000000000000000E1,5.00000000000000000E-1));
#148=(BOUNDED_CURVE()B_SPLINE_CURVE(2,(#145,#146,#147),.UNSPECIFIED.,.F.,.F.)B_SPLINE_CURVE_WITH_KNOTS((3,3),(0.00000000000000000E0,1.00000000000000000E0),.UNSPECIFIED.)CURVE()GEOMETRIC_REPRESENTATION_ITEM()RATIONAL_B_SPLINE_CURVE((1.00000000000000000E0,7.07106781186547573E-1,1.00000000000000000E0))REPRESENTATION_ITEM(''));
#149=CARTESIAN_POINT('',(-7.00000000000000000E0,8.50000000000000000E0,5.00000000000000000E-1));
#150=CARTESIAN_POINT('',(-7.00000000000000000E0,8.50000000000000000E0,-2.00000000000000000E0));
#151=CARTESIAN_POINT('',(-4.50000000000000000E0,8.50000000000000000E0,-2.00000000000000000E0));
#152=(BOUNDED_CURVE()B_SPLINE_CURVE(2,(#149,#150,#151),.UNSPECIFIED.,.F.,.F.)B_SPLINE_CURVE_WITH_KNOTS((3,3),(0.00000000000000000E0,1.00000000000000000E0),.UNSPECIFIED.)CURVE()GEOMETRIC_REPRESENTATION_ITEM()RATIONAL_B_SPLINE_CURVE((2.00000000000000000E0,1.00000000000000000E0,1.00000000000000000E0))REPRESENTATION_ITEM(''));
#153=CARTESIAN_POINT('',(-4.50000000000000000E0,1.10000000000000000E1,5.00000000000000000E-1));
#154=CARTESIAN_POINT('',(-4.50000000000000000E0,1.10000000000000000E1,-2.00000000000000000E0));
#155=CARTESIAN_POINT('',(-4.50000000000000000E0,8.50000000000000000E0,-2.00000000000000000E0));
#156=(BOUNDED_CURVE()B_SPLINE_CURVE(2,(#153,#154,#155),.UNSPECIFIED.,.F.,.F.)B_SPLINE_CURVE_WITH_KNOTS((3,3),(0.00000000000000000E0,1.00000000000000000E0),.UNSPECIFIED.)CURVE()GEOMETRIC_REPRESENTATION_ITEM()RATIONAL_B_SPLINE_CURVE((2.00000000000000000E0,1.00000000000000000E0,1.00000000000000000E0))REPRESENTATION_ITEM(''));
#157=(GEOMETRIC_REPRESENTATION_CONTEXT(2)REPRESENTATION_CONTEXT('','2D'));
#158=CARTESIAN_POINT('',(1.00000000000000000E0,0.00000000000000000E0));
#159=CARTESIAN_POINT('',(1.00000000000000000E0,1.00000000000000000E0));
#160=B_SPLINE_CURVE_WITH_KNOTS('',1,(#158,#159),.UNSPECIFIED.,.F.,.F.,(2,2),(0.00000000000000000E0,1.00000000000000000E0),.UNSPECIFIED.);
#161=DEFINITIONAL_REPRESENTATION('',(#160),#157);
#162=PCURVE('',#31,#161);
#163=CARTESIAN_POINT('',(1.00000000000000000E0,1.00000000000000000E0));
#164=CARTESIAN_POINT('',(2.50000000000000000E-1,1.00000000000000000E0));
#165=B_SPLINE_CURVE_WITH_KNOTS('',1,(#163,#164),.UNSPECIFIED.,.F.,.F.,(2,2),(0.00000000000000000E0,1.00000000000000000E0),.UNSPECIFIED.);
#166=DEFINITIONAL_REPRESENTATION('',(#165),#157);
#167=PCURVE('',#31,#166);
#168=CARTESIAN_POINT('',(2.50000000000000000E-1,1.00000000000000000E0));
#169=CARTESIAN_POINT('',(0.00000000000000000E0,1.00000000000000000E0));
#170=CARTESIAN_POINT('',(0.00000000000000000E0,6.87500000000000000E-1));
#171=(BOUNDED_CURVE()B_SPLINE_CURVE(2,(#168,#169,#170),.UNSPECIFIED.,.F.,.F.)B_SPLINE_CURVE_WITH_KNOTS((3,3),(0.00000000000000000E0,1.00000000000000000E0),.UNSPECIFIED.)CURVE()GEOMETRIC_REPRESENTATION_ITEM()RATIONAL_B_SPLINE_CURVE((1.00000000000000000E0,7.07106781186547573E-1,1.00000000000000000E0))REPRESENTATION_ITEM(''));
#172=DEFINITIONAL_REPRESENTATION('',(#171),#157);
#173=PCURVE('',#31,#172);
#174=CARTESIAN_POINT('',(0.00000000000000000E0,6.87500000000000000E-1));
#175=CARTESIAN_POINT('',(0.00000000000000000E0,0.00000000000000000E0));
#176=B_SPLINE_CURVE_WITH_KNOTS('',1,(#174,#175),.UNSPECIFIED.,.F.,.F.,(2,2),(0.00000000000000000E0,1.00000000000000000E0),.UNSPECIFIED.);
#177=DEFINITIONAL_REPRESENTATION('',(#176),#157);
#178=PCURVE('',#31,#177);
#179=CARTESIAN_POINT('',(0.00000000000000000E0,0.00000000000000000E0));
#180=CARTESIAN_POINT('',(1.00000000000000000E0,0.00000000000000000E0));
#181=B_SPLINE_CURVE_WITH_KNOTS('',1,(#179,#180),.UNSPECIFIED.,.F.,.F.,(2,2),(0.00000000000000000E0,1.00000000000000000E0),.UNSPECIFIED.);
#182=DEFINITIONAL_REPRESENTATION('',(#181),#157);
#183=PCURVE('',#31,#182);
#184=CARTESIAN_POINT('',(0.00000000000000000E0,0.00000000000000000E0));
#185=CARTESIAN_POINT('',(7.50000000000000000E-1,0.00000000000000000E0));
#186=B_SPLINE_CURVE_WITH_KNOTS('',1,(#184,#185),.UNSPECIFIED.,.F.,.F.,(2,2),(0.00000000000000000E0,1.00000000000000000E0),.UNSPECIFIED.);
#187=DEFINITIONAL_REPRESENTATION('',(#186),#157);
#188=PCURVE('',#36,#187);
#189=CARTESIAN_POINT('',(7.50000000000000000E-1,0.00000000000000000E0));
#190=CARTESIAN_POINT('',(7.50000000000000000E-1,6.87500000000000000E-1));
#191=B_SPLINE_CURVE_WITH_KNOTS('',1,(#189,#190),.UNSPECIFIED.,.F.,.F.,(2,2),(0.00000000000000000E0,1.00000000000000000E0),.UNSPECIFIED.);
#192=DEFINITIONAL_REPRESENTATION('',(#191),#157);
#193=PCURVE('',#36,#192);
#194=CARTESIAN_POINT('',(7.50000000000000000E-1,6.87500000000000000E-1));
#195=CARTESIAN_POINT('',(0.00000000000000000E0,6.87500000000000000E-1));
#196=B_SPLINE_CURVE_WITH_KNOTS('',1,(#194,#195),.UNSPECIFIED.,.F.,.F.,(2,2),(0.00000000000000000E0,1.00000000000000000E0),.UNSPECIFIED.);
#197=DEFINITIONAL_REPRESENTATION('',(#196),#157);
#198=PCURVE('',#36,#197);
#199=CARTESIAN_POINT('',(0.00000000000000000E0,6.87500000000000000E-1));
#200=CARTESIAN_POINT('',(0.00000000000000000E0,0.00000000000000000E0));
#201=B_SPLINE_CURVE_WITH_KNOTS('',1,(#199,#200),.UNSPECIFIED.,.F.,.F.,(2,2),(0.00000000000000000E0,1.00000000000000000E0),.UNSPECIFIED.);
#202=DEFINITIONAL_REPRESENTATION('',(#201),#157);
#203=PCURVE('',#36,#202);
#204=CARTESIAN_POINT('',(1.00000000000000000E0,0.00000000000000000E0));
#205=CARTESIAN_POINT('',(1.00000000000000000E0,1.00000000000000000E0));
#206=B_SPLINE_CURVE_WITH_KNOTS('',1,(#204,#205),.UNSPECIFIED.,.F.,.F.,(2,2),(0.00000000000000000E0,1.00000000000000000E0),.UNSPECIFIED.);
#207=DEFINITIONAL_REPRESENTATION('',(#206),#157);
#208=PCURVE('',#41,#207);
#209=CARTESIAN_POINT('',(1.00000000000000000E0,1.00000000000000000E0));
#210=CARTESIAN_POINT('',(3.12500000000000000E-1,1.00000000000000000E0));
#211=B_SPLINE_CURVE_WITH_KNOTS('',1,(#209,#210),.UNSPECIFIED.,.F.,.F.,(2,2),(0.00000000000000000E0,1.00000000000000000E0),.UNSPECIFIED.);
#212=DEFINITIONAL_REPRESENTATION('',(#211),#157);
#213=PCURVE('',#41,#212);
#214=CARTESIAN_POINT('',(3.12500000000000000E-1,1.00000000000000000E0));
#215=CARTESIAN_POINT('',(0.00000000000000000E0,1.00000000000000000E0));
#216=CARTESIAN_POINT('',(0.00000000000000000E0,5.83333333333333370E-1));
#217=(BOUNDED_CURVE()B_SPLINE_CURVE(2,(#214,#215,#216),.UNSPECIFIED.,.F.,.F.)B_SPLINE_CURVE_WITH_KNOTS((3,3),(0.00000000000000000E0,1.00000000000000000E0),.UNSPECIFIED.)CURVE()GEOMETRIC_REPRESENTATION_ITEM()RATIONAL_B_SPLINE_CURVE((1.00000000000000000E0,1.00000000000000000E0,2.00000000000000000E0))REPRESENTATION_ITEM(''));
#218=DEFINITIONAL_REPRESENTATION('',(#217),#157);
#219=PCURVE('',#41,#218);
#220=CARTESIAN_POINT('',(0.00000000000000000E0,5.83333333333333370E-1));
#221=CARTESIAN_POINT('',(0.00000000000000000E0,0.00000000000000000E0));
#222=B_SPLINE_CURVE_WITH_KNOTS('',1,(#220,#221),.UNSPECIFIED.,.F.,.F.,(2,2),(0.00000000000000000E0,1.00000000000000000E0),.UNSPECIFIED.);
#223=DEFINITIONAL_REPRESENTATION('',(#222),#157);
#224=PCURVE('',#41,#223);
#225=CARTESIAN_POINT('',(0.00000000000000000E0,0.00000000000000000E0));
#226=CARTESIAN_POINT('',(1.00000000000000000E0,0.00000000000000000E0));
#227=B_SPLINE_CURVE_WITH_KNOTS('',1,(#225,#226),.UNSPECIFIED.,.F.,.F.,(2,2),(0.00000000000000000E0,1.00000000000000000E0),.UNSPECIFIED.);
#228=DEFINITIONAL_REPRESENTATION('',(#227),#157);
#229=PCURVE('',#41,#228);
#230=CARTESIAN_POINT('',(0.00000000000000000E0,0.00000000000000000E0));
#231=CARTESIAN_POINT('',(1.00000000000000000E0,0.00000000000000000E0));
#232=B_SPLINE_CURVE_WITH_KNOTS('',1,(#230,#231),.UNSPECIFIED.,.F.,.F.,(2,2),(0.00000000000000000E0,1.00000000000000000E0),.UNSPECIFIED.);
#233=DEFINITIONAL_REPRESENTATION('',(#232),#157);
#234=PCURVE('',#46,#233);
#235=CARTESIAN_POINT('',(1.00000000000000000E0,0.00000000000000000E0));
#236=CARTESIAN_POINT('',(1.00000000000000000E0,5.83333333333333370E-1));
#237=B_SPLINE_CURVE_WITH_KNOTS('',1,(#235,#236),.UNSPECIFIED.,.F.,.F.,(2,2),(0.00000000000000000E0,1.00000000000000000E0),.UNSPECIFIED.);
#238=DEFINITIONAL_REPRESENTATION('',(#237),#157);
#239=PCURVE('',#46,#238);
#240=CARTESIAN_POINT('',(1.00000000000000000E0,5.83333333333333370E-1));
#241=CARTESIAN_POINT('',(1.00000000000000000E0,1.00000000000000000E0));
#242=CARTESIAN_POINT('',(7.50000000000000000E-1,1.00000000000000000E0));
#243=(BOUNDED_CURVE()B_SPLINE_CURVE(2,(#240,#241,#242),.UNSPECIFIED.,.F.,.F.)B_SPLINE_CURVE_WITH_KNOTS((3,3),(0.00000000000000000E0,1.00000000000000000E0),.UNSPECIFIED.)CURVE()GEOMETRIC_REPRESENTATION_ITEM()RATIONAL_B_SPLINE_CURVE((2.00000000000000000E0,1.00000000000000000E0,1.00000000000000000E0))REPRESENTATION_ITEM(''));
#244=DEFINITIONAL_REPRESENTATION('',(#243),#157);
#245=PCURVE('',#46,#244);
#246=CARTESIAN_POINT('',(7.50000000000000000E-1,1.00000000000000000E0));
#247=CARTESIAN_POINT('',(0.00000000000000000E0,1.00000000000000000E0));
#248=B_SPLINE_CURVE_WITH_KNOTS('',1,(#246,#247),.UNSPECIFIED.,.F.,.F.,(2,2),(0.00000000000000000E0,1.00000000000000000E0),.UNSPECIFIED.);
#249=DEFINITIONAL_REPRESENTATION('',(#248),#157);
#250=PCURVE('',#46,#249);
#251=CARTESIAN_POINT('',(0.00000000000000000E0,1.00000000000000000E0));
#252=CARTESIAN_POINT('',(0.00000000000000000E0,0.00000000000000000E0));
#253=B_SPLINE_CURVE_WITH_KNOTS('',1,(#251,#252),.UNSPECIFIED.,.F.,.F.,(2,2),(0.00000000000000000E0,1.00000000000000000E0),.UNSPECIFIED.);
#254=DEFINITIONAL_REPRESENTATION('',(#253),#157);
#255=PCURVE('',#46,#254);
#256=CARTESIAN_POINT('',(0.00000000000000000E0,0.00000000000000000E0));
#257=CARTESIAN_POINT('',(6.87500000000000000E-1,0.00000000000000000E0));
#258=B_SPLINE_CURVE_WITH_KNOTS('',1,(#256,#257),.UNSPECIFIED.,.F.,.F.,(2,2),(0.00000000000000000E0,1.00000000000000000E0),.UNSPECIFIED.);
#259=DEFINITIONAL_REPRESENTATION('',(#258),#157);
#260=PCURVE('',#51,#259);
#261=CARTESIAN_POINT('',(6.87500000000000000E-1,0.00000000000000000E0));
#262=CARTESIAN_POINT('',(6.87500000000000000E-1,5.83333333333333370E-1));
#263=B_SPLINE_CURVE_WITH_KNOTS('',1,(#261,#262),.UNSPECIFIED.,.F.,.F.,(2,2),(0.00000000000000000E0,1.00000000000000000E0),.UNSPECIFIED.);
#264=DEFINITIONAL_REPRESENTATION('',(#263),#157);
#265=PCURVE('',#51,#264);
#266=CARTESIAN_POINT('',(6.87500000000000000E-1,5.83333333333333370E-1));
#267=CARTESIAN_POINT('',(0.00000000000000000E0,5.83333333333333370E-1));
#268=B_SPLINE_CURVE_WITH_KNOTS('',1,(#266,#267),.UNSPECIFIED.,.F.,.F.,(2,2),(0.00000000000000000E0,1.00000000000000000E0),.UNSPECIFIED.);
#269=DEFINITIONAL_REPRESENTATION('',(#268),#157);
#270=PCURVE('',#51,#269);
#271=CARTESIAN_POINT('',(0.00000000000000000E0,5.83333333333333370E-1));
#272=CARTESIAN_POINT('',(0.00000000000000000E0,0.00000000000000000E0));
#273=B_SPLINE_CURVE_WITH_KNOTS('',1,(#271,#272),.UNSPECIFIED.,.F.,.F.,(2,2),(0.00000000000000000E0,1.00000000000000000E0),.UNSPECIFIED.);
#274=DEFINITIONAL_REPRESENTATION('',(#273),#157);
#275=PCURVE('',#51,#274);
#276=CARTESIAN_POINT('',(1.00000000000000000E0,0.00000000000000000E0));
#277=CARTESIAN_POINT('',(1.00000000000000000E0,5.83333333333333370E-1));
#278=B_SPLINE_CURVE_WITH_KNOTS('',1,(#276,#277),.UNSPECIFIED.,.F.,.F.,(2,2),(0.00000000000000000E0,1.00000000000000000E0),.UNSPECIFIED.);
#279=DEFINITIONAL_REPRESENTATION('',(#278),#157);
#280=PCURVE('',#56,#279);
#281=CARTESIAN_POINT('',(1.00000000000000000E0,5.83333333333333370E-1));
#282=CARTESIAN_POINT('',(2.50000000000000000E-1,5.83333333333333370E-1));
#283=B_SPLINE_CURVE_WITH_KNOTS('',1,(#281,#282),.UNSPECIFIED.,.F.,.F.,(2,2),(0.00000000000000000E0,1.00000000000000000E0),.UNSPECIFIED.);
#284=DEFINITIONAL_REPRESENTATION('',(#283),#157);
#285=PCURVE('',#56,#284);
#286=CARTESIAN_POINT('',(2.50000000000000000E-1,5.83333333333333370E-1));
#287=CARTESIAN_POINT('',(2.50000000000000000E-1,0.00000000000000000E0));
#288=B_SPLINE_CURVE_WITH_KNOTS('',1,(#286,#287),.UNSPECIFIED.,.F.,.F.,(2,2),(0.00000000000000000E0,1.00000000000000000E0),.UNSPECIFIED.);
#289=DEFINITIONAL_REPRESENTATION('',(#288),#157);
#290=PCURVE('',#56,#289);
#291=CARTESIAN_POINT('',(2.50000000000000000E-1,0.00000000000000000E0));
#292=CARTESIAN_POINT('',(1.00000000000000000E0,0.00000000000000000E0));
#293=B_SPLINE_CURVE_WITH_KNOTS('',1,(#291,#292),.UNSPECIFIED.,.F.,.F.,(2,2),(0.00000000000000000E0,1.00000000000000000E0),.UNSPECIFIED.);
#294=DEFINITIONAL_REPRESENTATION('',(#293),#157);
#295=PCURVE('',#56,#294);
#296=CARTESIAN_POINT('',(0.00000000000000000E0,0.00000000000000000E0));
#297=CARTESIAN_POINT('',(1.00000000000000000E0,0.00000000000000000E0));
#298=B_SPLINE_CURVE_WITH_KNOTS('',1,(#296,#297),.UNSPECIFIED.,.F.,.F.,(2,2),(0.00000000000000000E0,1.00000000000000000E0),.UNSPECIFIED.);
#299=DEFINITIONAL_REPRESENTATION('',(#298),#157);
#300=PCURVE('',#63,#299);
#301=CARTESIAN_POINT('',(1.00000000000000000E0,0.00000000000000000E0));
#302=CARTESIAN_POINT('',(1.00000000000000000E0,1.00000000000000000E0));
#303=B_SPLINE_CURVE_WITH_KNOTS('',1,(#301,#302),.UNSPECIFIED.,.F.,.F.,(2,2),(0.00000000000000000E0,1.00000000000000000E0),.UNSPECIFIED.);
#304=DEFINITIONAL_REPRESENTATION('',(#303),#157);
#305=PCURVE('',#63,#304);
#306=CARTESIAN_POINT('',(1.00000000000000000E0,1.00000000000000000E0));
#307=CARTESIAN_POINT('',(0.00000000000000000E0,1.00000000000000000E0));
#308=B_SPLINE_CURVE_WITH_KNOTS('',1,(#306,#307),.UNSPECIFIED.,.F.,.F.,(2,2),(0.00000000000000000E0,1.00000000000000000E0),.UNSPECIFIED.);
#309=DEFINITIONAL_REPRESENTATION('',(#308),#157);
#310=PCURVE('',#63,#309);
#311=CARTESIAN_POINT('',(0.00000000000000000E0,1.00000000000000000E0));
#312=CARTESIAN_POINT('',(0.00000000000000000E0,0.00000000000000000E0));
#313=B_SPLINE_CURVE_WITH_KNOTS('',1,(#311,#312),.UNSPECIFIED.,.F.,.F.,(2,2),(0.00000000000000000E0,1.00000000000000000E0),.UNSPECIFIED.);
#314=DEFINITIONAL_REPRESENTATION('',(#313),#157);
#315=PCURVE('',#63,#314);
#316=CARTESIAN_POINT('',(1.00000000000000000E0,0.00000000000000000E0));
#317=CARTESIAN_POINT('',(1.00000000000000000E0,1.00000000000000000E0));
#318=B_SPLINE_CURVE_WITH_KNOTS('',1,(#316,#317),.UNSPECIFIED.,.F.,.F.,(2,2),(0.00000000000000000E0,1.00000000000000000E0),.UNSPECIFIED.);
#319=DEFINITIONAL_REPRESENTATION('',(#318),#157);
#320=PCURVE('',#70,#319);
#321=CARTESIAN_POINT('',(1.00000000000000000E0,1.00000000000000000E0));
#322=CARTESIAN_POINT('',(0.00000000000000000E0,1.00000000000000000E0));
#323=B_SPLINE_CURVE_WITH_KNOTS('',1,(#321,#322),.UNSPECIFIED.,.F.,.F.,(2,2),(0.00000000000000000E0,1.00000000000000000E0),.UNSPECIFIED.);
#324=DEFINITIONAL_REPRESENTATION('',(#323),#157);
#325=PCURVE('',#70,#324);
#326=CARTESIAN_POINT('',(0.00000000000000000E0,1.00000000000000000E0));
#327=CARTESIAN_POINT('',(0.00000000000000000E0,0.00000000000000000E0));
#328=B_SPLINE_CURVE_WITH_KNOTS('',1,(#326,#327),.UNSPECIFIED.,.F.,.F.,(2,2),(0.00000000000000000E0,1.00000000000000000E0),.UNSPECIFIED.);
#329=DEFINITIONAL_REPRESENTATION('',(#328),#157);
#330=PCURVE('',#70,#329);
#331=CARTESIAN_POINT('',(0.00000000000000000E0,0.00000000000000000E0));
#332=CARTESIAN_POINT('',(1.00000000000000000E0,0.00000000000000000E0));
#333=B_SPLINE_CURVE_WITH_KNOTS('',1,(#331,#332),.UNSPECIFIED.,.F.,.F.,(2,2),(0.00000000000000000E0,1.00000000000000000E0),.UNSPECIFIED.);
#334=DEFINITIONAL_REPRESENTATION('',(#333),#157);
#335=PCURVE('',#70,#334);
#336=CARTESIAN_POINT('',(0.00000000000000000E0,0.00000000000000000E0));
#337=CARTESIAN_POINT('',(1.00000000000000000E0,0.00000000000000000E0));
#338=B_SPLINE_CURVE_WITH_KNOTS('',1,(#336,#337),.UNSPECIFIED.,.F.,.F.,(2,2),(0.00000000000000000E0,1.00000000000000000E0),.UNSPECIFIED.);
#339=DEFINITIONAL_REPRESENTATION('',(#338),#157);
#340=PCURVE('',#77,#339);
#341=CARTESIAN_POINT('',(1.00000000000000000E0,0.00000000000000000E0));
#342=CARTESIAN_POINT('',(1.00000000000000000E0,1.00000000000000000E0));
#343=B_SPLINE_CURVE_WITH_KNOTS('',1,(#341,#342),.UNSPECIFIED.,.F.,.F.,(2,2),(0.00000000000000000E0,1.00000000000000000E0),.UNSPECIFIED.);
#344=DEFINITIONAL_REPRESENTATION('',(#343),#157);
#345=PCURVE('',#77,#344);
#346=CARTESIAN_POINT('',(1.00000000000000000E0,1.00000000000000000E0));
#347=CARTESIAN_POINT('',(0.00000000000000000E0,1.00000000000000000E0));
#348=B_SPLINE_CURVE_WITH_KNOTS('',1,(#346,#347),.UNSPECIFIED.,.F.,.F.,(2,2),(0.00000000000000000E0,1.00000000000000000E0),.UNSPECIFIED.);
#349=DEFINITIONAL_REPRESENTATION('',(#348),#157);
#350=PCURVE('',#77,#349);
#351=CARTESIAN_POINT('',(0.00000000000000000E0,1.00000000000000000E0));
#352=CARTESIAN_POINT('',(0.00000000000000000E0,0.00000000000000000E0));
#353=B_SPLINE_CURVE_WITH_KNOTS('',1,(#351,#352),.UNSPECIFIED.,.F.,.F.,(2,2),(0.00000000000000000E0,1.00000000000000000E0),.UNSPECIFIED.);
#354=DEFINITIONAL_REPRESENTATION('',(#353),#157);
#355=PCURVE('',#77,#354);
#356=CARTESIAN_POINT('',(0.00000000000000000E0,0.00000000000000000E0));
#357=CARTESIAN_POINT('',(1.00000000000000000E0,0.00000000000000000E0));
#358=B_SPLINE_CURVE_WITH_KNOTS('',1,(#356,#357),.UNSPECIFIED.,.F.,.F.,(2,2),(0.00000000000000000E0,1.00000000000000000E0),.UNSPECIFIED.);
#359=DEFINITIONAL_REPRESENTATION('',(#358),#157);
#360=PCURVE('',#87,#359);
#361=CARTESIAN_POINT('',(1.00000000000000000E0,0.00000000000000000E0));
#362=CARTESIAN_POINT('',(1.00000000000000000E0,1.00000000000000000E0));
#363=CARTESIAN_POINT('',(0.00000000000000000E0,1.00000000000000000E0));
#364=(BOUNDED_CURVE()B_SPLINE_CURVE(2,(#361,#362,#363),.UNSPECIFIED.,.F.,.F.)B_SPLINE_CURVE_WITH_KNOTS((3,3),(0.00000000000000000E0,1.00000000000000000E0),.UNSPECIFIED.)CURVE()GEOMETRIC_REPRESENTATION_ITEM()RATIONAL_B_SPLINE_CURVE((1.00000000000000000E0,7.07106781186547573E-1,1.00000000000000000E0))REPRESENTATION_ITEM(''));
#365=DEFINITIONAL_REPRESENTATION('',(#364),#157);
#366=PCURVE('',#87,#365);
#367=CARTESIAN_POINT('',(0.00000000000000000E0,1.00000000000000000E0));
#368=CARTESIAN_POINT('',(0.00000000000000000E0,0.00000000000000000E0));
#369=B_SPLINE_CURVE_WITH_KNOTS('',1,(#367,#368),.UNSPECIFIED.,.F.,.F.,(2,2),(0.00000000000000000E0,1.00000000000000000E0),.UNSPECIFIED.);
#370=DEFINITIONAL_REPRESENTATION('',(#369),#157);
#371=PCURVE('',#87,#370);
#372=SURFACE_CURVE('',#90,(#162,#229),.PCURVE_S1.);
#373=EDGE_CURVE('OSCAD_TOPO/3|edge|e:9919200a8f6738a373684e548432a8e5|b743109fbbbec85ad54976854c120c87c76712b29898a1ea15d214ca93cfc648',#2,#4,#372,.T.);
#374=SURFACE_CURVE('',#93,(#167,#295),.PCURVE_S1.);
#375=EDGE_CURVE('OSCAD_TOPO/3|edge|e:d0d29ea774f61bb97a0018be2667a8ae|6e6a81d143053ddb9aa39b5ace7553c0d626775da3e702906e6381d4a02b3dc2',#4,#6,#374,.T.);
#376=SURFACE_CURVE('',#97,(#173,#300),.PCURVE_S1.);
#377=EDGE_CURVE('OSCAD_TOPO/3|edge|e:453b424269cd9300c4c03a0319b5e18a|cb05a9f7af14c24ad0993d734dd2cdc596f99c5ab803f9625edb23224a6f8be3',#8,#6,#376,.T.);
#378=SURFACE_CURVE('',#100,(#178,#260),.PCURVE_S1.);
#379=EDGE_CURVE('OSCAD_TOPO/3|edge|e:29795a3e7d520c9f079f23dae1e8d3ff|3c00f77a811795bfe7f9ceb4f559cf5f2c3a2ba4f6072c4c4f423e8707fb737f',#10,#8,#378,.T.);
#380=SURFACE_CURVE('',#103,(#183,#234),.PCURVE_S1.);
#381=EDGE_CURVE('OSCAD_TOPO/3|edge|e:977c05c523f18d689988ff941b1ef3c1|3454cee16dca92a3202886dced55f58c55f22fcf8550b06da64bab98ddb2255c',#2,#10,#380,.T.);
#382=SURFACE_CURVE('',#106,(#188,#250),.PCURVE_S1.);
#383=EDGE_CURVE('OSCAD_TOPO/3|edge|e:7b47373c28468c9f89e45f9a709fb767|3bfa4198d2ad64ff28d84501c00c523c96d61c6458c942c4be0766ef1bf54444',#12,#14,#382,.T.);
#384=SURFACE_CURVE('',#109,(#193,#330),.PCURVE_S1.);
#385=EDGE_CURVE('OSCAD_TOPO/3|edge|e:56a35b6a30ba11b61f9c99ecc2f76747|984c57b596f6d258df479635614c48883ad8ff22c1e4e27297816cd65dddaf55',#16,#14,#384,.T.);
#386=SURFACE_CURVE('',#112,(#198,#345),.PCURVE_S1.);
#387=EDGE_CURVE('OSCAD_TOPO/3|edge|e:7c5523c158b0fad37dc34d3b0afdc286|eeda292bde34ab90cc4c5a29888f0fedad79e81cb12f521562252655fcb0d4a3',#16,#18,#386,.T.);
#388=SURFACE_CURVE('',#115,(#203,#213),.PCURVE_S1.);
#389=EDGE_CURVE('OSCAD_TOPO/3|edge|e:5fe73750529b6e7ad23dd9d2fa31facf|82e8a13bbe4c62c7a4ce22bc3548457ea6836534a2c396124c80bb506fa06ed9',#12,#18,#388,.T.);
#390=SURFACE_CURVE('',#118,(#208,#255),.PCURVE_S1.);
#391=EDGE_CURVE('OSCAD_TOPO/3|edge|e:b52673a92e057b0258a91871e6fa45f1|dc72817f3f07f7a0123ed3ef3b83fd926af6c9ece77884c680d811a35627fb5a',#2,#12,#390,.T.);
#392=SURFACE_CURVE('',#122,(#219,#340),.PCURVE_S1.);
#393=EDGE_CURVE('OSCAD_TOPO/3|edge|e:e0a994a2241b792f34460935584a44ec|8a852842afb3b20acf0b37aa58ee602299b2c3b7d2d387f0a2e0916b5885da96',#20,#18,#392,.T.);
#394=SURFACE_CURVE('',#125,(#224,#280),.PCURVE_S1.);
#395=EDGE_CURVE('OSCAD_TOPO/3|edge|e:70d6a3d0ebc43e46b20c154b95b3c073|74a43b4ab35ecdf5e10b1ee43a377a8fa6a98bd0be9ca538d790075d005b5824',#4,#20,#394,.T.);
#396=SURFACE_CURVE('',#128,(#239,#275),.PCURVE_S1.);
#397=EDGE_CURVE('OSCAD_TOPO/3|edge|e:caa4f8968a410c9b55389e019847b0c4|d9cc4f12cecbbca8c19926d3ffa1f5b60527c7ce5207c3f60cd34dcb474bd9f5',#10,#22,#396,.T.);
#398=SURFACE_CURVE('',#132,(#245,#335),.PCURVE_S1.);
#399=EDGE_CURVE('OSCAD_TOPO/3|edge|e:0ccef301ef06b4f46e778909ef8eaab6|7a581692be6977654c3867c38b1e2aaaa8fbed48feb7f7f1f28c9b6747acaf8f',#22,#14,#398,.T.);
#400=SURFACE_CURVE('',#135,(#265,#315),.PCURVE_S1.);
#401=EDGE_CURVE('OSCAD_TOPO/3|edge|e:d485a01d0ebfa9c1689514e2f09622ba|ac67372b068d47942ef17fb640450ecf93797ea551af208902c43d62ecb5cd32',#8,#24,#400,.T.);
#402=SURFACE_CURVE('',#138,(#270,#320),.PCURVE_S1.);
#403=EDGE_CURVE('OSCAD_TOPO/3|edge|e:7c21bc6e3975bb7d726a6e5d60a758fb|088021299a375c5630bf693287fabaf1b259151f55005086a80e6c865453a7ba',#24,#22,#402,.T.);
#404=SURFACE_CURVE('',#141,(#285,#355),.PCURVE_S1.);
#405=EDGE_CURVE('OSCAD_TOPO/3|edge|e:af1fea9cb4a38413678abe87d66a9520|c7c9d713619d0fb2d9d75a61356a152098f0aa48acb65d463ed282263962e6ba',#26,#20,#404,.T.);
#406=SURFACE_CURVE('',#144,(#290,#305),.PCURVE_S1.);
#407=EDGE_CURVE('OSCAD_TOPO/3|edge|e:30087703b81eea65497f98028ff83729|5eba157c54b3909d6da5299fda9d395155ae2c3170b511f08e86b5a3f3457c5d',#6,#26,#406,.T.);
#408=SURFACE_CURVE('',#148,(#310,#366),.PCURVE_S1.);
#409=EDGE_CURVE('OSCAD_TOPO/3|edge|e:af5400e93f0442b5df9f2661e8826268|a0a615fee6e91fab69d8c26d4b70f7c2c42fa90914151ddf97cd6790a04517a4',#24,#26,#408,.T.);
#410=SURFACE_CURVE('',#152,(#325,#360),.PCURVE_S1.);
#411=EDGE_CURVE('OSCAD_TOPO/3|edge|e:3bbf97215552e8f5d40d44df1e969635|32677aa682685ae7d7d610b38363182b36b74f355c86557186cc42a12141e751',#24,#16,#410,.T.);
#412=SURFACE_CURVE('',#156,(#350,#371),.PCURVE_S1.);
#413=EDGE_CURVE('OSCAD_TOPO/3|edge|e:a6fb458151ae8fc54196c54a3127d42c|94df84166cb500482e22581ca43ecf01eaf9c0b1b5b6fd5615df5b9cbbb82aee',#26,#16,#412,.T.);
#414=ORIENTED_EDGE('',*,*,#373,.T.);
#415=ORIENTED_EDGE('',*,*,#375,.T.);
#416=ORIENTED_EDGE('',*,*,#377,.F.);
#417=ORIENTED_EDGE('',*,*,#379,.F.);
#418=ORIENTED_EDGE('',*,*,#381,.F.);
#419=EDGE_LOOP('OSCAD_TOPO/3|loop|l:86c2bef4ff0cc3c28b40ac2b98ba5cb8|607825c3035526731b2e80c7aa1b781160224ed5aaf8703a9d47708457b4f38b',(#414,#415,#416,#417,#418));
#420=ORIENTED_EDGE('',*,*,#383,.T.);
#421=ORIENTED_EDGE('',*,*,#385,.F.);
#422=ORIENTED_EDGE('',*,*,#387,.T.);
#423=ORIENTED_EDGE('',*,*,#389,.F.);
#424=EDGE_LOOP('OSCAD_TOPO/3|loop|l:46229401445d5d64c25f0d6e1bf27a08|d308a4d9b3c8da0d7d485a042d18f1e888781cc2c40a05bdc815d59d8856c7a4',(#420,#421,#422,#423));
#425=ORIENTED_EDGE('',*,*,#391,.T.);
#426=ORIENTED_EDGE('',*,*,#389,.T.);
#427=ORIENTED_EDGE('',*,*,#393,.F.);
#428=ORIENTED_EDGE('',*,*,#395,.F.);
#429=ORIENTED_EDGE('',*,*,#373,.F.);
#430=EDGE_LOOP('OSCAD_TOPO/3|loop|l:4c2c9750b17320e566af56a48bec3290|f93fd5caf3bbdfa03dd7c48040aec631db07d837e380696efbac1faddbd53a6c',(#425,#426,#427,#428,#429));
#431=ORIENTED_EDGE('',*,*,#381,.T.);
#432=ORIENTED_EDGE('',*,*,#397,.T.);
#433=ORIENTED_EDGE('',*,*,#399,.T.);
#434=ORIENTED_EDGE('',*,*,#383,.F.);
#435=ORIENTED_EDGE('',*,*,#391,.F.);
#436=EDGE_LOOP('OSCAD_TOPO/3|loop|l:3f9ddaad7cbd35a5acadbc18796aab2d|3afacaeab9b410ade2f4fd4eb9446d7b7ad7bc8a0e479aa106f2f727aefb662a',(#431,#432,#433,#434,#435));
#437=ORIENTED_EDGE('',*,*,#379,.T.);
#438=ORIENTED_EDGE('',*,*,#401,.T.);
#439=ORIENTED_EDGE('',*,*,#403,.T.);
#440=ORIENTED_EDGE('',*,*,#397,.F.);
#441=EDGE_LOOP('OSCAD_TOPO/3|loop|l:d72df17714678f593804451759d09c26|dd757d4749503bf1a07d51c7d0629e92ecd0ee42c38cb896d952aa1989f68f04',(#437,#438,#439,#440));
#442=ORIENTED_EDGE('',*,*,#395,.T.);
#443=ORIENTED_EDGE('',*,*,#405,.F.);
#444=ORIENTED_EDGE('',*,*,#407,.F.);
#445=ORIENTED_EDGE('',*,*,#375,.F.);
#446=EDGE_LOOP('OSCAD_TOPO/3|loop|l:196927717f24cf48e763f04dbf91c635|72940c9c7099e461f0cec710e026dbaaa5350bf40da67b02a932de9baddb1c86',(#442,#443,#444,#445));
#447=ORIENTED_EDGE('',*,*,#377,.T.);
#448=ORIENTED_EDGE('',*,*,#407,.T.);
#449=ORIENTED_EDGE('',*,*,#409,.F.);
#450=ORIENTED_EDGE('',*,*,#401,.F.);
#451=EDGE_LOOP('OSCAD_TOPO/3|loop|l:4507b7e6a16ac048e0351bd23bb136fe|061a94df3aa50c6d62b798eb49957441a185060c63c4617a904663338e82cfa2',(#447,#448,#449,#450));
#452=ORIENTED_EDGE('',*,*,#403,.F.);
#453=ORIENTED_EDGE('',*,*,#411,.T.);
#454=ORIENTED_EDGE('',*,*,#385,.T.);
#455=ORIENTED_EDGE('',*,*,#399,.F.);
#456=EDGE_LOOP('OSCAD_TOPO/3|loop|l:59b11211805e178411a1b7b3301933c8|7d54531fea9278ea9a4add059dfbdb2a8fece131f68cd095709334b52312dcca',(#452,#453,#454,#455));
#457=ORIENTED_EDGE('',*,*,#393,.T.);
#458=ORIENTED_EDGE('',*,*,#387,.F.);
#459=ORIENTED_EDGE('',*,*,#413,.F.);
#460=ORIENTED_EDGE('',*,*,#405,.T.);
#461=EDGE_LOOP('OSCAD_TOPO/3|loop|l:b67f019f98beb19c81aea9bda5720a30|b332c672935b99cdd38a2755b958fc4ae67ad96687f557ab9b8f78254d666528',(#457,#458,#459,#460));
#462=ORIENTED_EDGE('',*,*,#411,.F.);
#463=ORIENTED_EDGE('',*,*,#409,.T.);
#464=ORIENTED_EDGE('',*,*,#413,.T.);
#465=EDGE_LOOP('OSCAD_TOPO/3|loop|l:51b92d3bab88b6c4429e02febf79b8cc|fbc77deabdc923547dcbf07060e36850060e8609afc8dffa5e71b354e2bc01e5',(#462,#463,#464));
#466=FACE_OUTER_BOUND('',#419,.T.);
#467=ADVANCED_FACE('OSCAD_TOPO/3|face|f:5734434276b3d5ec3ddc919d47f08679|e814e4a3856af4ba6547ade36eae4263eabda9f110859ecc7ee3f680771030c0',(#466),#31,.T.);
#468=FACE_OUTER_BOUND('',#424,.T.);
#469=ADVANCED_FACE('OSCAD_TOPO/3|face|f:a0bfaf2be56358117185eb24e3cfa7b0|2941dfe631cea916b371db2f9b53a514cbe54e70b5dedcac3e7919b97ccc1783',(#468),#36,.T.);
#470=FACE_OUTER_BOUND('',#430,.T.);
#471=ADVANCED_FACE('OSCAD_TOPO/3|face|f:a0786c86ef1f4258b5dd554b12d726ec|a8c53d338fc42db1d67be28abdda925210c34998fafc9daa9f4eeb9773bad535',(#470),#41,.T.);
#472=FACE_OUTER_BOUND('',#436,.T.);
#473=ADVANCED_FACE('OSCAD_TOPO/3|face|f:c91c95d6b68c71b01237f8574426bf02|b147cd1c841bb6f27c6aab5ce918fd2df6c9589708402081084c39db99ebf5ea',(#472),#46,.T.);
#474=FACE_OUTER_BOUND('',#441,.T.);
#475=ADVANCED_FACE('OSCAD_TOPO/3|face|f:442132985eb7d2cd4d9bad5774a6e0a1|1d678a7fe4a3bfe2c3426a35be9d2f0e9ccef9b31cbd95992a54a4b0e99b2f9a',(#474),#51,.T.);
#476=FACE_OUTER_BOUND('',#446,.T.);
#477=ADVANCED_FACE('OSCAD_TOPO/3|face|f:849f0544e726a32c2fb21774b07470b2|78dcf81f07623565db11ad6665c57729ae3926180151712d788d59ecfe55b1a8',(#476),#56,.T.);
#478=FACE_OUTER_BOUND('',#451,.T.);
#479=ADVANCED_FACE('OSCAD_TOPO/3|face|f:7fc7290cf0d937ae70706aaa08a95e60|a7c59a7188906fb721018788cf6869d91600ade95a89594d9ed526a6f3594ae6',(#478),#63,.T.);
#480=FACE_OUTER_BOUND('',#456,.T.);
#481=ADVANCED_FACE('OSCAD_TOPO/3|face|f:f567b55a2f856002a0e9f7b9d072b4f0|0cc233aa27a6b3ec1c1ee4590da01361e38b02e684852a3e0792cd1d89741bbc',(#480),#70,.T.);
#482=FACE_OUTER_BOUND('',#461,.T.);
#483=ADVANCED_FACE('OSCAD_TOPO/3|face|f:4e54bb90cc3a707fd8b14a9b39fe64a4|e5215fd47e595c6d2f5bd6459d018f7d6db238f8408430fe79102e4b0bc694a8',(#482),#77,.T.);
#484=FACE_OUTER_BOUND('',#465,.T.);
#485=ADVANCED_FACE('OSCAD_TOPO/3|face|f:f47debac08ac6c50afe630fe9bf530ac|54cd971464255e66283d71926c466aa61acbb0b8300cc14788a8a7542665ca9e',(#484),#87,.T.);
#486=CLOSED_SHELL('OSCAD_TOPO/3|shell|s:673a0a9db929a32e224797b2a92039d6|b02ae520bbed1a30c482588b6ffa5c6f47837084be94cf0eecfbca960a433310',(#467,#469,#471,#473,#475,#477,#479,#481,#483,#485));
#487=MANIFOLD_SOLID_BREP('OSCAD_TOPO/3|body|b:93101ab381a401811354209cb7a894f7|e98d1eeb02e3dc6ba912ceeb11093724172332afae7ff4d17cd27d797bb5e675',#486);
#488=(LENGTH_UNIT()NAMED_UNIT(*)SI_UNIT(.MILLI.,.METRE.));
#489=UNCERTAINTY_MEASURE_WITH_UNIT(LENGTH_MEASURE(9.99999999999999955E-8),#488,'distance_accuracy_value','');
#490=(GEOMETRIC_REPRESENTATION_CONTEXT(3)GLOBAL_UNCERTAINTY_ASSIGNED_CONTEXT((#489))GLOBAL_UNIT_ASSIGNED_CONTEXT((#488))REPRESENTATION_CONTEXT('','3D'));
#491=ADVANCED_BREP_SHAPE_REPRESENTATION('',(#487),#490);
#492=APPLICATION_CONTEXT('managed model based 3d engineering');
#493=PRODUCT_CONTEXT('',#492,'mechanical');
#494=PRODUCT('model','model','',(#493));
#495=PRODUCT_DEFINITION_FORMATION('1','',#494);
#496=PRODUCT_DEFINITION_CONTEXT('part definition',#492,'design');
#497=PRODUCT_DEFINITION('design','',#495,#496);
#498=PRODUCT_DEFINITION_SHAPE('','',#497);
#499=SHAPE_DEFINITION_REPRESENTATION(#498,#491);
ENDSEC;
END-ISO-10303-21;
