ISO-10303-21;
HEADER;
FILE_DESCRIPTION(('OpenSCAD Viewer retained AP242 B-rep'),'2;1');
FILE_NAME('model.step','',(''),(''),'OpenSCAD Viewer','OpenSCAD Viewer','');
FILE_SCHEMA(('AP242_MANAGED_MODEL_BASED_3D_ENGINEERING_MIM_LF'));
ENDSEC;
DATA;
#1=CARTESIAN_POINT('',(0.00000000000000000E0,5.00000000000000000E-1,0.00000000000000000E0));
#2=VERTEX_POINT('OSCAD_TOPO/3|vertex|v:d2c9d309c8baeb414eb1dbc590614e81|24d4900efc5a829bc2a8e469e883f3b58eb177407e6fcb09040bf44a2621498d',#1);
#3=CARTESIAN_POINT('',(-5.00000000000000000E-1,0.00000000000000000E0,0.00000000000000000E0));
#4=VERTEX_POINT('OSCAD_TOPO/3|vertex|v:f39579044843e9d81d49f18d635d7cb4|499c65313d73e68adacf4e67c9141e3eaeacf5fa102fe1f62efa18964cf095da',#3);
#5=CARTESIAN_POINT('',(0.00000000000000000E0,-5.00000000000000000E-1,0.00000000000000000E0));
#6=VERTEX_POINT('OSCAD_TOPO/3|vertex|v:accf73ee661a5f72096a66e2fe7d7ae1|10a8ef953b178e5b82934ac00c049c2803a5ef1725f6409a743e8c34662fd076',#5);
#7=CARTESIAN_POINT('',(5.00000000000000000E-1,0.00000000000000000E0,0.00000000000000000E0));
#8=VERTEX_POINT('OSCAD_TOPO/3|vertex|v:0e6d4a07b0201a33d7c8c088b03fa571|a3b7baffbdd5199fda74c960bfda123f067f8a12a33d99075153c47618fb9e9e',#7);
#9=CARTESIAN_POINT('',(0.00000000000000000E0,2.00000000000000011E-1,0.00000000000000000E0));
#10=VERTEX_POINT('OSCAD_TOPO/3|vertex|v:c36dfbd38b5102b09f08db0fe8ab74a1|7fd33b393794241877f809361440fadd76fd4127b16652fc066defc6288a5e2a',#9);
#11=CARTESIAN_POINT('',(2.00000000000000011E-1,0.00000000000000000E0,0.00000000000000000E0));
#12=VERTEX_POINT('OSCAD_TOPO/3|vertex|v:e020534d0e147521dcdf277f4e2a129c|d5538a0e455040d081ba4d9b067fa74b782fb5a120615d0b02582c144f80e560',#11);
#13=CARTESIAN_POINT('',(0.00000000000000000E0,-2.00000000000000011E-1,0.00000000000000000E0));
#14=VERTEX_POINT('OSCAD_TOPO/3|vertex|v:bb3341f7139f15db4050c6f998f08e0e|d3fb78029f8265cdbb66d1993d810f04e3b7c58598b1de6ee14b94cccd2172ff',#13);
#15=CARTESIAN_POINT('',(-2.00000000000000011E-1,0.00000000000000000E0,0.00000000000000000E0));
#16=VERTEX_POINT('OSCAD_TOPO/3|vertex|v:8b86a10dd555723a673522fb2d43468b|250e72fedc4cb13be31177777d7c0c8ccd5b414a8d115a531ea9541efe5f432b',#15);
#17=CARTESIAN_POINT('',(0.00000000000000000E0,5.00000000000000000E-1,1.00000000000000000E1));
#18=VERTEX_POINT('OSCAD_TOPO/3|vertex|v:da250462cad98ea1106e7af565243070|d861edca9cd1e5fc8c103d20c37ba619684a1ac253bd72154361f43067378765',#17);
#19=CARTESIAN_POINT('',(-5.00000000000000000E-1,0.00000000000000000E0,1.00000000000000000E1));
#20=VERTEX_POINT('OSCAD_TOPO/3|vertex|v:8d0803439123f86cda3112616073e6c8|daf980cd5471788956fe993216614fa12e384cdfc36c6302a7edf5863dc1c285',#19);
#21=CARTESIAN_POINT('',(0.00000000000000000E0,-5.00000000000000000E-1,1.00000000000000000E1));
#22=VERTEX_POINT('OSCAD_TOPO/3|vertex|v:27a54c3a2c883aafcc8fd51fdb6469d2|63686d12e119a84a11e98f9d9c9628c6956d1316de512ec6beaffb9f61744143',#21);
#23=CARTESIAN_POINT('',(5.00000000000000000E-1,0.00000000000000000E0,1.00000000000000000E1));
#24=VERTEX_POINT('OSCAD_TOPO/3|vertex|v:65a2b94697f7764c0ec46e3cb7230a0b|4cd5805e97c75adfe72f74c368b21fded78138cfe65302e0f21d562447d541c3',#23);
#25=CARTESIAN_POINT('',(0.00000000000000000E0,2.00000000000000011E-1,1.00000000000000000E1));
#26=VERTEX_POINT('OSCAD_TOPO/3|vertex|v:f136fc9fa923f3d8ce0a9672aec565f4|dd0f801736d7e38d7e8d667cdc155e716d70c6c6fdbc7aebecca5fb96aefc1ab',#25);
#27=CARTESIAN_POINT('',(2.00000000000000011E-1,0.00000000000000000E0,1.00000000000000000E1));
#28=VERTEX_POINT('OSCAD_TOPO/3|vertex|v:e6589d554b50b9c3061f38f52eca8cb8|0c400b02e55246742b9729c23d58df60d7055ea495f6c303cee3755c38ff1dec',#27);
#29=CARTESIAN_POINT('',(0.00000000000000000E0,-2.00000000000000011E-1,1.00000000000000000E1));
#30=VERTEX_POINT('OSCAD_TOPO/3|vertex|v:ccf0412743ea9452be3e0a4ab0d9bf93|0ad4bca34133c20b037935313e5d3ef841354edd9d28a6a21c1d42fbeea60966',#29);
#31=CARTESIAN_POINT('',(-2.00000000000000011E-1,0.00000000000000000E0,1.00000000000000000E1));
#32=VERTEX_POINT('OSCAD_TOPO/3|vertex|v:83b7d56d9f17c5681f704be9188118b3|11c32525d8765f9a72cb355035e03db9413dcc57dbb8437b2fb5962cf7b3b097',#31);
#33=CARTESIAN_POINT('',(0.00000000000000000E0,5.00000000000000000E-1,0.00000000000000000E0));
#34=CARTESIAN_POINT('',(0.00000000000000000E0,5.00000000000000000E-1,1.00000000000000000E1));
#35=CARTESIAN_POINT('',(-5.00000000000000000E-1,5.00000000000000000E-1,0.00000000000000000E0));
#36=CARTESIAN_POINT('',(-5.00000000000000000E-1,5.00000000000000000E-1,1.00000000000000000E1));
#37=CARTESIAN_POINT('',(-5.00000000000000000E-1,0.00000000000000000E0,0.00000000000000000E0));
#38=CARTESIAN_POINT('',(-5.00000000000000000E-1,0.00000000000000000E0,1.00000000000000000E1));
#39=(BOUNDED_SURFACE()B_SPLINE_SURFACE(2,1,((#33,#34),(#35,#36),(#37,#38)),.UNSPECIFIED.,.F.,.F.,.F.)B_SPLINE_SURFACE_WITH_KNOTS((3,3),(2,2),(0.00000000000000000E0,1.00000000000000000E0),(0.00000000000000000E0,1.00000000000000000E0),.UNSPECIFIED.)GEOMETRIC_REPRESENTATION_ITEM()RATIONAL_B_SPLINE_SURFACE(((1.00000000000000000E0,1.00000000000000000E0),(7.07106781186547573E-1,7.07106781186547573E-1),(1.00000000000000000E0,1.00000000000000000E0)))REPRESENTATION_ITEM('')SURFACE());
#40=CARTESIAN_POINT('',(-5.00000000000000000E-1,0.00000000000000000E0,0.00000000000000000E0));
#41=CARTESIAN_POINT('',(-5.00000000000000000E-1,0.00000000000000000E0,1.00000000000000000E1));
#42=CARTESIAN_POINT('',(-5.00000000000000000E-1,-5.00000000000000000E-1,0.00000000000000000E0));
#43=CARTESIAN_POINT('',(-5.00000000000000000E-1,-5.00000000000000000E-1,1.00000000000000000E1));
#44=CARTESIAN_POINT('',(0.00000000000000000E0,-5.00000000000000000E-1,0.00000000000000000E0));
#45=CARTESIAN_POINT('',(0.00000000000000000E0,-5.00000000000000000E-1,1.00000000000000000E1));
#46=(BOUNDED_SURFACE()B_SPLINE_SURFACE(2,1,((#40,#41),(#42,#43),(#44,#45)),.UNSPECIFIED.,.F.,.F.,.F.)B_SPLINE_SURFACE_WITH_KNOTS((3,3),(2,2),(0.00000000000000000E0,1.00000000000000000E0),(0.00000000000000000E0,1.00000000000000000E0),.UNSPECIFIED.)GEOMETRIC_REPRESENTATION_ITEM()RATIONAL_B_SPLINE_SURFACE(((1.00000000000000000E0,1.00000000000000000E0),(7.07106781186547573E-1,7.07106781186547573E-1),(1.00000000000000000E0,1.00000000000000000E0)))REPRESENTATION_ITEM('')SURFACE());
#47=CARTESIAN_POINT('',(0.00000000000000000E0,-5.00000000000000000E-1,0.00000000000000000E0));
#48=CARTESIAN_POINT('',(0.00000000000000000E0,-5.00000000000000000E-1,1.00000000000000000E1));
#49=CARTESIAN_POINT('',(5.00000000000000000E-1,-5.00000000000000000E-1,0.00000000000000000E0));
#50=CARTESIAN_POINT('',(5.00000000000000000E-1,-5.00000000000000000E-1,1.00000000000000000E1));
#51=CARTESIAN_POINT('',(5.00000000000000000E-1,0.00000000000000000E0,0.00000000000000000E0));
#52=CARTESIAN_POINT('',(5.00000000000000000E-1,0.00000000000000000E0,1.00000000000000000E1));
#53=(BOUNDED_SURFACE()B_SPLINE_SURFACE(2,1,((#47,#48),(#49,#50),(#51,#52)),.UNSPECIFIED.,.F.,.F.,.F.)B_SPLINE_SURFACE_WITH_KNOTS((3,3),(2,2),(0.00000000000000000E0,1.00000000000000000E0),(0.00000000000000000E0,1.00000000000000000E0),.UNSPECIFIED.)GEOMETRIC_REPRESENTATION_ITEM()RATIONAL_B_SPLINE_SURFACE(((1.00000000000000000E0,1.00000000000000000E0),(7.07106781186547573E-1,7.07106781186547573E-1),(1.00000000000000000E0,1.00000000000000000E0)))REPRESENTATION_ITEM('')SURFACE());
#54=CARTESIAN_POINT('',(5.00000000000000000E-1,0.00000000000000000E0,0.00000000000000000E0));
#55=CARTESIAN_POINT('',(5.00000000000000000E-1,0.00000000000000000E0,1.00000000000000000E1));
#56=CARTESIAN_POINT('',(5.00000000000000000E-1,5.00000000000000000E-1,0.00000000000000000E0));
#57=CARTESIAN_POINT('',(5.00000000000000000E-1,5.00000000000000000E-1,1.00000000000000000E1));
#58=CARTESIAN_POINT('',(0.00000000000000000E0,5.00000000000000000E-1,0.00000000000000000E0));
#59=CARTESIAN_POINT('',(0.00000000000000000E0,5.00000000000000000E-1,1.00000000000000000E1));
#60=(BOUNDED_SURFACE()B_SPLINE_SURFACE(2,1,((#54,#55),(#56,#57),(#58,#59)),.UNSPECIFIED.,.F.,.F.,.F.)B_SPLINE_SURFACE_WITH_KNOTS((3,3),(2,2),(0.00000000000000000E0,1.00000000000000000E0),(0.00000000000000000E0,1.00000000000000000E0),.UNSPECIFIED.)GEOMETRIC_REPRESENTATION_ITEM()RATIONAL_B_SPLINE_SURFACE(((1.00000000000000000E0,1.00000000000000000E0),(7.07106781186547573E-1,7.07106781186547573E-1),(1.00000000000000000E0,1.00000000000000000E0)))REPRESENTATION_ITEM('')SURFACE());
#61=CARTESIAN_POINT('',(0.00000000000000000E0,2.00000000000000011E-1,0.00000000000000000E0));
#62=CARTESIAN_POINT('',(0.00000000000000000E0,2.00000000000000011E-1,1.00000000000000000E1));
#63=CARTESIAN_POINT('',(2.00000000000000011E-1,2.00000000000000011E-1,0.00000000000000000E0));
#64=CARTESIAN_POINT('',(2.00000000000000011E-1,2.00000000000000011E-1,1.00000000000000000E1));
#65=CARTESIAN_POINT('',(2.00000000000000011E-1,0.00000000000000000E0,0.00000000000000000E0));
#66=CARTESIAN_POINT('',(2.00000000000000011E-1,0.00000000000000000E0,1.00000000000000000E1));
#67=(BOUNDED_SURFACE()B_SPLINE_SURFACE(2,1,((#61,#62),(#63,#64),(#65,#66)),.UNSPECIFIED.,.F.,.F.,.F.)B_SPLINE_SURFACE_WITH_KNOTS((3,3),(2,2),(0.00000000000000000E0,1.00000000000000000E0),(0.00000000000000000E0,1.00000000000000000E0),.UNSPECIFIED.)GEOMETRIC_REPRESENTATION_ITEM()RATIONAL_B_SPLINE_SURFACE(((1.00000000000000000E0,1.00000000000000000E0),(7.07106781186547573E-1,7.07106781186547573E-1),(1.00000000000000000E0,1.00000000000000000E0)))REPRESENTATION_ITEM('')SURFACE());
#68=CARTESIAN_POINT('',(2.00000000000000011E-1,0.00000000000000000E0,0.00000000000000000E0));
#69=CARTESIAN_POINT('',(2.00000000000000011E-1,0.00000000000000000E0,1.00000000000000000E1));
#70=CARTESIAN_POINT('',(2.00000000000000011E-1,-2.00000000000000011E-1,0.00000000000000000E0));
#71=CARTESIAN_POINT('',(2.00000000000000011E-1,-2.00000000000000011E-1,1.00000000000000000E1));
#72=CARTESIAN_POINT('',(0.00000000000000000E0,-2.00000000000000011E-1,0.00000000000000000E0));
#73=CARTESIAN_POINT('',(0.00000000000000000E0,-2.00000000000000011E-1,1.00000000000000000E1));
#74=(BOUNDED_SURFACE()B_SPLINE_SURFACE(2,1,((#68,#69),(#70,#71),(#72,#73)),.UNSPECIFIED.,.F.,.F.,.F.)B_SPLINE_SURFACE_WITH_KNOTS((3,3),(2,2),(0.00000000000000000E0,1.00000000000000000E0),(0.00000000000000000E0,1.00000000000000000E0),.UNSPECIFIED.)GEOMETRIC_REPRESENTATION_ITEM()RATIONAL_B_SPLINE_SURFACE(((1.00000000000000000E0,1.00000000000000000E0),(7.07106781186547573E-1,7.07106781186547573E-1),(1.00000000000000000E0,1.00000000000000000E0)))REPRESENTATION_ITEM('')SURFACE());
#75=CARTESIAN_POINT('',(0.00000000000000000E0,-2.00000000000000011E-1,0.00000000000000000E0));
#76=CARTESIAN_POINT('',(0.00000000000000000E0,-2.00000000000000011E-1,1.00000000000000000E1));
#77=CARTESIAN_POINT('',(-2.00000000000000011E-1,-2.00000000000000011E-1,0.00000000000000000E0));
#78=CARTESIAN_POINT('',(-2.00000000000000011E-1,-2.00000000000000011E-1,1.00000000000000000E1));
#79=CARTESIAN_POINT('',(-2.00000000000000011E-1,0.00000000000000000E0,0.00000000000000000E0));
#80=CARTESIAN_POINT('',(-2.00000000000000011E-1,0.00000000000000000E0,1.00000000000000000E1));
#81=(BOUNDED_SURFACE()B_SPLINE_SURFACE(2,1,((#75,#76),(#77,#78),(#79,#80)),.UNSPECIFIED.,.F.,.F.,.F.)B_SPLINE_SURFACE_WITH_KNOTS((3,3),(2,2),(0.00000000000000000E0,1.00000000000000000E0),(0.00000000000000000E0,1.00000000000000000E0),.UNSPECIFIED.)GEOMETRIC_REPRESENTATION_ITEM()RATIONAL_B_SPLINE_SURFACE(((1.00000000000000000E0,1.00000000000000000E0),(7.07106781186547573E-1,7.07106781186547573E-1),(1.00000000000000000E0,1.00000000000000000E0)))REPRESENTATION_ITEM('')SURFACE());
#82=CARTESIAN_POINT('',(-2.00000000000000011E-1,0.00000000000000000E0,0.00000000000000000E0));
#83=CARTESIAN_POINT('',(-2.00000000000000011E-1,0.00000000000000000E0,1.00000000000000000E1));
#84=CARTESIAN_POINT('',(-2.00000000000000011E-1,2.00000000000000011E-1,0.00000000000000000E0));
#85=CARTESIAN_POINT('',(-2.00000000000000011E-1,2.00000000000000011E-1,1.00000000000000000E1));
#86=CARTESIAN_POINT('',(0.00000000000000000E0,2.00000000000000011E-1,0.00000000000000000E0));
#87=CARTESIAN_POINT('',(0.00000000000000000E0,2.00000000000000011E-1,1.00000000000000000E1));
#88=(BOUNDED_SURFACE()B_SPLINE_SURFACE(2,1,((#82,#83),(#84,#85),(#86,#87)),.UNSPECIFIED.,.F.,.F.,.F.)B_SPLINE_SURFACE_WITH_KNOTS((3,3),(2,2),(0.00000000000000000E0,1.00000000000000000E0),(0.00000000000000000E0,1.00000000000000000E0),.UNSPECIFIED.)GEOMETRIC_REPRESENTATION_ITEM()RATIONAL_B_SPLINE_SURFACE(((1.00000000000000000E0,1.00000000000000000E0),(7.07106781186547573E-1,7.07106781186547573E-1),(1.00000000000000000E0,1.00000000000000000E0)))REPRESENTATION_ITEM('')SURFACE());
#89=CARTESIAN_POINT('',(5.00000000000000000E-1,-5.00000000000000000E-1,0.00000000000000000E0));
#90=CARTESIAN_POINT('',(5.00000000000000000E-1,5.00000000000000000E-1,0.00000000000000000E0));
#91=CARTESIAN_POINT('',(-5.00000000000000000E-1,-5.00000000000000000E-1,0.00000000000000000E0));
#92=CARTESIAN_POINT('',(-5.00000000000000000E-1,5.00000000000000000E-1,0.00000000000000000E0));
#93=B_SPLINE_SURFACE_WITH_KNOTS('',1,1,((#89,#90),(#91,#92)),.UNSPECIFIED.,.F.,.F.,.F.,(2,2),(2,2),(-5.00000000000000000E-1,5.00000000000000000E-1),(-5.00000000000000000E-1,5.00000000000000000E-1),.UNSPECIFIED.);
#94=CARTESIAN_POINT('',(-5.00000000000000000E-1,-5.00000000000000000E-1,1.00000000000000000E1));
#95=CARTESIAN_POINT('',(-5.00000000000000000E-1,5.00000000000000000E-1,1.00000000000000000E1));
#96=CARTESIAN_POINT('',(5.00000000000000000E-1,-5.00000000000000000E-1,1.00000000000000000E1));
#97=CARTESIAN_POINT('',(5.00000000000000000E-1,5.00000000000000000E-1,1.00000000000000000E1));
#98=B_SPLINE_SURFACE_WITH_KNOTS('',1,1,((#94,#95),(#96,#97)),.UNSPECIFIED.,.F.,.F.,.F.,(2,2),(2,2),(-5.00000000000000000E-1,5.00000000000000000E-1),(-5.00000000000000000E-1,5.00000000000000000E-1),.UNSPECIFIED.);
#99=CARTESIAN_POINT('',(0.00000000000000000E0,5.00000000000000000E-1,0.00000000000000000E0));
#100=CARTESIAN_POINT('',(-5.00000000000000000E-1,5.00000000000000000E-1,0.00000000000000000E0));
#101=CARTESIAN_POINT('',(-5.00000000000000000E-1,0.00000000000000000E0,0.00000000000000000E0));
#102=(BOUNDED_CURVE()B_SPLINE_CURVE(2,(#99,#100,#101),.UNSPECIFIED.,.F.,.F.)B_SPLINE_CURVE_WITH_KNOTS((3,3),(0.00000000000000000E0,1.00000000000000000E0),.UNSPECIFIED.)CURVE()GEOMETRIC_REPRESENTATION_ITEM()RATIONAL_B_SPLINE_CURVE((1.00000000000000000E0,7.07106781186547573E-1,1.00000000000000000E0))REPRESENTATION_ITEM(''));
#103=CARTESIAN_POINT('',(-5.00000000000000000E-1,0.00000000000000000E0,0.00000000000000000E0));
#104=CARTESIAN_POINT('',(-5.00000000000000000E-1,0.00000000000000000E0,1.00000000000000000E1));
#105=B_SPLINE_CURVE_WITH_KNOTS('',1,(#103,#104),.UNSPECIFIED.,.F.,.F.,(2,2),(0.00000000000000000E0,1.00000000000000000E0),.UNSPECIFIED.);
#106=CARTESIAN_POINT('',(0.00000000000000000E0,5.00000000000000000E-1,1.00000000000000000E1));
#107=CARTESIAN_POINT('',(-5.00000000000000000E-1,5.00000000000000000E-1,1.00000000000000000E1));
#108=CARTESIAN_POINT('',(-5.00000000000000000E-1,0.00000000000000000E0,1.00000000000000000E1));
#109=(BOUNDED_CURVE()B_SPLINE_CURVE(2,(#106,#107,#108),.UNSPECIFIED.,.F.,.F.)B_SPLINE_CURVE_WITH_KNOTS((3,3),(0.00000000000000000E0,1.00000000000000000E0),.UNSPECIFIED.)CURVE()GEOMETRIC_REPRESENTATION_ITEM()RATIONAL_B_SPLINE_CURVE((1.00000000000000000E0,7.07106781186547573E-1,1.00000000000000000E0))REPRESENTATION_ITEM(''));
#110=CARTESIAN_POINT('',(0.00000000000000000E0,5.00000000000000000E-1,0.00000000000000000E0));
#111=CARTESIAN_POINT('',(0.00000000000000000E0,5.00000000000000000E-1,1.00000000000000000E1));
#112=B_SPLINE_CURVE_WITH_KNOTS('',1,(#110,#111),.UNSPECIFIED.,.F.,.F.,(2,2),(0.00000000000000000E0,1.00000000000000000E0),.UNSPECIFIED.);
#113=CARTESIAN_POINT('',(-5.00000000000000000E-1,0.00000000000000000E0,0.00000000000000000E0));
#114=CARTESIAN_POINT('',(-5.00000000000000000E-1,-5.00000000000000000E-1,0.00000000000000000E0));
#115=CARTESIAN_POINT('',(0.00000000000000000E0,-5.00000000000000000E-1,0.00000000000000000E0));
#116=(BOUNDED_CURVE()B_SPLINE_CURVE(2,(#113,#114,#115),.UNSPECIFIED.,.F.,.F.)B_SPLINE_CURVE_WITH_KNOTS((3,3),(0.00000000000000000E0,1.00000000000000000E0),.UNSPECIFIED.)CURVE()GEOMETRIC_REPRESENTATION_ITEM()RATIONAL_B_SPLINE_CURVE((1.00000000000000000E0,7.07106781186547573E-1,1.00000000000000000E0))REPRESENTATION_ITEM(''));
#117=CARTESIAN_POINT('',(0.00000000000000000E0,-5.00000000000000000E-1,0.00000000000000000E0));
#118=CARTESIAN_POINT('',(0.00000000000000000E0,-5.00000000000000000E-1,1.00000000000000000E1));
#119=B_SPLINE_CURVE_WITH_KNOTS('',1,(#117,#118),.UNSPECIFIED.,.F.,.F.,(2,2),(0.00000000000000000E0,1.00000000000000000E0),.UNSPECIFIED.);
#120=CARTESIAN_POINT('',(-5.00000000000000000E-1,0.00000000000000000E0,1.00000000000000000E1));
#121=CARTESIAN_POINT('',(-5.00000000000000000E-1,-5.00000000000000000E-1,1.00000000000000000E1));
#122=CARTESIAN_POINT('',(0.00000000000000000E0,-5.00000000000000000E-1,1.00000000000000000E1));
#123=(BOUNDED_CURVE()B_SPLINE_CURVE(2,(#120,#121,#122),.UNSPECIFIED.,.F.,.F.)B_SPLINE_CURVE_WITH_KNOTS((3,3),(0.00000000000000000E0,1.00000000000000000E0),.UNSPECIFIED.)CURVE()GEOMETRIC_REPRESENTATION_ITEM()RATIONAL_B_SPLINE_CURVE((1.00000000000000000E0,7.07106781186547573E-1,1.00000000000000000E0))REPRESENTATION_ITEM(''));
#124=CARTESIAN_POINT('',(0.00000000000000000E0,-5.00000000000000000E-1,0.00000000000000000E0));
#125=CARTESIAN_POINT('',(5.00000000000000000E-1,-5.00000000000000000E-1,0.00000000000000000E0));
#126=CARTESIAN_POINT('',(5.00000000000000000E-1,0.00000000000000000E0,0.00000000000000000E0));
#127=(BOUNDED_CURVE()B_SPLINE_CURVE(2,(#124,#125,#126),.UNSPECIFIED.,.F.,.F.)B_SPLINE_CURVE_WITH_KNOTS((3,3),(0.00000000000000000E0,1.00000000000000000E0),.UNSPECIFIED.)CURVE()GEOMETRIC_REPRESENTATION_ITEM()RATIONAL_B_SPLINE_CURVE((1.00000000000000000E0,7.07106781186547573E-1,1.00000000000000000E0))REPRESENTATION_ITEM(''));
#128=CARTESIAN_POINT('',(5.00000000000000000E-1,0.00000000000000000E0,0.00000000000000000E0));
#129=CARTESIAN_POINT('',(5.00000000000000000E-1,0.00000000000000000E0,1.00000000000000000E1));
#130=B_SPLINE_CURVE_WITH_KNOTS('',1,(#128,#129),.UNSPECIFIED.,.F.,.F.,(2,2),(0.00000000000000000E0,1.00000000000000000E0),.UNSPECIFIED.);
#131=CARTESIAN_POINT('',(0.00000000000000000E0,-5.00000000000000000E-1,1.00000000000000000E1));
#132=CARTESIAN_POINT('',(5.00000000000000000E-1,-5.00000000000000000E-1,1.00000000000000000E1));
#133=CARTESIAN_POINT('',(5.00000000000000000E-1,0.00000000000000000E0,1.00000000000000000E1));
#134=(BOUNDED_CURVE()B_SPLINE_CURVE(2,(#131,#132,#133),.UNSPECIFIED.,.F.,.F.)B_SPLINE_CURVE_WITH_KNOTS((3,3),(0.00000000000000000E0,1.00000000000000000E0),.UNSPECIFIED.)CURVE()GEOMETRIC_REPRESENTATION_ITEM()RATIONAL_B_SPLINE_CURVE((1.00000000000000000E0,7.07106781186547573E-1,1.00000000000000000E0))REPRESENTATION_ITEM(''));
#135=CARTESIAN_POINT('',(0.00000000000000000E0,5.00000000000000000E-1,0.00000000000000000E0));
#136=CARTESIAN_POINT('',(5.00000000000000000E-1,5.00000000000000000E-1,0.00000000000000000E0));
#137=CARTESIAN_POINT('',(5.00000000000000000E-1,0.00000000000000000E0,0.00000000000000000E0));
#138=(BOUNDED_CURVE()B_SPLINE_CURVE(2,(#135,#136,#137),.UNSPECIFIED.,.F.,.F.)B_SPLINE_CURVE_WITH_KNOTS((3,3),(0.00000000000000000E0,1.00000000000000000E0),.UNSPECIFIED.)CURVE()GEOMETRIC_REPRESENTATION_ITEM()RATIONAL_B_SPLINE_CURVE((1.00000000000000000E0,7.07106781186547573E-1,1.00000000000000000E0))REPRESENTATION_ITEM(''));
#139=CARTESIAN_POINT('',(0.00000000000000000E0,5.00000000000000000E-1,1.00000000000000000E1));
#140=CARTESIAN_POINT('',(5.00000000000000000E-1,5.00000000000000000E-1,1.00000000000000000E1));
#141=CARTESIAN_POINT('',(5.00000000000000000E-1,0.00000000000000000E0,1.00000000000000000E1));
#142=(BOUNDED_CURVE()B_SPLINE_CURVE(2,(#139,#140,#141),.UNSPECIFIED.,.F.,.F.)B_SPLINE_CURVE_WITH_KNOTS((3,3),(0.00000000000000000E0,1.00000000000000000E0),.UNSPECIFIED.)CURVE()GEOMETRIC_REPRESENTATION_ITEM()RATIONAL_B_SPLINE_CURVE((1.00000000000000000E0,7.07106781186547573E-1,1.00000000000000000E0))REPRESENTATION_ITEM(''));
#143=CARTESIAN_POINT('',(0.00000000000000000E0,2.00000000000000011E-1,0.00000000000000000E0));
#144=CARTESIAN_POINT('',(2.00000000000000011E-1,2.00000000000000011E-1,0.00000000000000000E0));
#145=CARTESIAN_POINT('',(2.00000000000000011E-1,0.00000000000000000E0,0.00000000000000000E0));
#146=(BOUNDED_CURVE()B_SPLINE_CURVE(2,(#143,#144,#145),.UNSPECIFIED.,.F.,.F.)B_SPLINE_CURVE_WITH_KNOTS((3,3),(0.00000000000000000E0,1.00000000000000000E0),.UNSPECIFIED.)CURVE()GEOMETRIC_REPRESENTATION_ITEM()RATIONAL_B_SPLINE_CURVE((1.00000000000000000E0,7.07106781186547573E-1,1.00000000000000000E0))REPRESENTATION_ITEM(''));
#147=CARTESIAN_POINT('',(2.00000000000000011E-1,0.00000000000000000E0,0.00000000000000000E0));
#148=CARTESIAN_POINT('',(2.00000000000000011E-1,0.00000000000000000E0,1.00000000000000000E1));
#149=B_SPLINE_CURVE_WITH_KNOTS('',1,(#147,#148),.UNSPECIFIED.,.F.,.F.,(2,2),(0.00000000000000000E0,1.00000000000000000E0),.UNSPECIFIED.);
#150=CARTESIAN_POINT('',(0.00000000000000000E0,2.00000000000000011E-1,1.00000000000000000E1));
#151=CARTESIAN_POINT('',(2.00000000000000011E-1,2.00000000000000011E-1,1.00000000000000000E1));
#152=CARTESIAN_POINT('',(2.00000000000000011E-1,0.00000000000000000E0,1.00000000000000000E1));
#153=(BOUNDED_CURVE()B_SPLINE_CURVE(2,(#150,#151,#152),.UNSPECIFIED.,.F.,.F.)B_SPLINE_CURVE_WITH_KNOTS((3,3),(0.00000000000000000E0,1.00000000000000000E0),.UNSPECIFIED.)CURVE()GEOMETRIC_REPRESENTATION_ITEM()RATIONAL_B_SPLINE_CURVE((1.00000000000000000E0,7.07106781186547573E-1,1.00000000000000000E0))REPRESENTATION_ITEM(''));
#154=CARTESIAN_POINT('',(0.00000000000000000E0,2.00000000000000011E-1,0.00000000000000000E0));
#155=CARTESIAN_POINT('',(0.00000000000000000E0,2.00000000000000011E-1,1.00000000000000000E1));
#156=B_SPLINE_CURVE_WITH_KNOTS('',1,(#154,#155),.UNSPECIFIED.,.F.,.F.,(2,2),(0.00000000000000000E0,1.00000000000000000E0),.UNSPECIFIED.);
#157=CARTESIAN_POINT('',(2.00000000000000011E-1,0.00000000000000000E0,0.00000000000000000E0));
#158=CARTESIAN_POINT('',(2.00000000000000011E-1,-2.00000000000000011E-1,0.00000000000000000E0));
#159=CARTESIAN_POINT('',(0.00000000000000000E0,-2.00000000000000011E-1,0.00000000000000000E0));
#160=(BOUNDED_CURVE()B_SPLINE_CURVE(2,(#157,#158,#159),.UNSPECIFIED.,.F.,.F.)B_SPLINE_CURVE_WITH_KNOTS((3,3),(0.00000000000000000E0,1.00000000000000000E0),.UNSPECIFIED.)CURVE()GEOMETRIC_REPRESENTATION_ITEM()RATIONAL_B_SPLINE_CURVE((1.00000000000000000E0,7.07106781186547573E-1,1.00000000000000000E0))REPRESENTATION_ITEM(''));
#161=CARTESIAN_POINT('',(0.00000000000000000E0,-2.00000000000000011E-1,0.00000000000000000E0));
#162=CARTESIAN_POINT('',(0.00000000000000000E0,-2.00000000000000011E-1,1.00000000000000000E1));
#163=B_SPLINE_CURVE_WITH_KNOTS('',1,(#161,#162),.UNSPECIFIED.,.F.,.F.,(2,2),(0.00000000000000000E0,1.00000000000000000E0),.UNSPECIFIED.);
#164=CARTESIAN_POINT('',(2.00000000000000011E-1,0.00000000000000000E0,1.00000000000000000E1));
#165=CARTESIAN_POINT('',(2.00000000000000011E-1,-2.00000000000000011E-1,1.00000000000000000E1));
#166=CARTESIAN_POINT('',(0.00000000000000000E0,-2.00000000000000011E-1,1.00000000000000000E1));
#167=(BOUNDED_CURVE()B_SPLINE_CURVE(2,(#164,#165,#166),.UNSPECIFIED.,.F.,.F.)B_SPLINE_CURVE_WITH_KNOTS((3,3),(0.00000000000000000E0,1.00000000000000000E0),.UNSPECIFIED.)CURVE()GEOMETRIC_REPRESENTATION_ITEM()RATIONAL_B_SPLINE_CURVE((1.00000000000000000E0,7.07106781186547573E-1,1.00000000000000000E0))REPRESENTATION_ITEM(''));
#168=CARTESIAN_POINT('',(0.00000000000000000E0,-2.00000000000000011E-1,0.00000000000000000E0));
#169=CARTESIAN_POINT('',(-2.00000000000000011E-1,-2.00000000000000011E-1,0.00000000000000000E0));
#170=CARTESIAN_POINT('',(-2.00000000000000011E-1,0.00000000000000000E0,0.00000000000000000E0));
#171=(BOUNDED_CURVE()B_SPLINE_CURVE(2,(#168,#169,#170),.UNSPECIFIED.,.F.,.F.)B_SPLINE_CURVE_WITH_KNOTS((3,3),(0.00000000000000000E0,1.00000000000000000E0),.UNSPECIFIED.)CURVE()GEOMETRIC_REPRESENTATION_ITEM()RATIONAL_B_SPLINE_CURVE((1.00000000000000000E0,7.07106781186547573E-1,1.00000000000000000E0))REPRESENTATION_ITEM(''));
#172=CARTESIAN_POINT('',(-2.00000000000000011E-1,0.00000000000000000E0,0.00000000000000000E0));
#173=CARTESIAN_POINT('',(-2.00000000000000011E-1,0.00000000000000000E0,1.00000000000000000E1));
#174=B_SPLINE_CURVE_WITH_KNOTS('',1,(#172,#173),.UNSPECIFIED.,.F.,.F.,(2,2),(0.00000000000000000E0,1.00000000000000000E0),.UNSPECIFIED.);
#175=CARTESIAN_POINT('',(0.00000000000000000E0,-2.00000000000000011E-1,1.00000000000000000E1));
#176=CARTESIAN_POINT('',(-2.00000000000000011E-1,-2.00000000000000011E-1,1.00000000000000000E1));
#177=CARTESIAN_POINT('',(-2.00000000000000011E-1,0.00000000000000000E0,1.00000000000000000E1));
#178=(BOUNDED_CURVE()B_SPLINE_CURVE(2,(#175,#176,#177),.UNSPECIFIED.,.F.,.F.)B_SPLINE_CURVE_WITH_KNOTS((3,3),(0.00000000000000000E0,1.00000000000000000E0),.UNSPECIFIED.)CURVE()GEOMETRIC_REPRESENTATION_ITEM()RATIONAL_B_SPLINE_CURVE((1.00000000000000000E0,7.07106781186547573E-1,1.00000000000000000E0))REPRESENTATION_ITEM(''));
#179=CARTESIAN_POINT('',(0.00000000000000000E0,2.00000000000000011E-1,0.00000000000000000E0));
#180=CARTESIAN_POINT('',(-2.00000000000000011E-1,2.00000000000000011E-1,0.00000000000000000E0));
#181=CARTESIAN_POINT('',(-2.00000000000000011E-1,0.00000000000000000E0,0.00000000000000000E0));
#182=(BOUNDED_CURVE()B_SPLINE_CURVE(2,(#179,#180,#181),.UNSPECIFIED.,.F.,.F.)B_SPLINE_CURVE_WITH_KNOTS((3,3),(0.00000000000000000E0,1.00000000000000000E0),.UNSPECIFIED.)CURVE()GEOMETRIC_REPRESENTATION_ITEM()RATIONAL_B_SPLINE_CURVE((1.00000000000000000E0,7.07106781186547573E-1,1.00000000000000000E0))REPRESENTATION_ITEM(''));
#183=CARTESIAN_POINT('',(0.00000000000000000E0,2.00000000000000011E-1,1.00000000000000000E1));
#184=CARTESIAN_POINT('',(-2.00000000000000011E-1,2.00000000000000011E-1,1.00000000000000000E1));
#185=CARTESIAN_POINT('',(-2.00000000000000011E-1,0.00000000000000000E0,1.00000000000000000E1));
#186=(BOUNDED_CURVE()B_SPLINE_CURVE(2,(#183,#184,#185),.UNSPECIFIED.,.F.,.F.)B_SPLINE_CURVE_WITH_KNOTS((3,3),(0.00000000000000000E0,1.00000000000000000E0),.UNSPECIFIED.)CURVE()GEOMETRIC_REPRESENTATION_ITEM()RATIONAL_B_SPLINE_CURVE((1.00000000000000000E0,7.07106781186547573E-1,1.00000000000000000E0))REPRESENTATION_ITEM(''));
#187=(GEOMETRIC_REPRESENTATION_CONTEXT(2)REPRESENTATION_CONTEXT('','2D'));
#188=CARTESIAN_POINT('',(0.00000000000000000E0,0.00000000000000000E0));
#189=CARTESIAN_POINT('',(1.00000000000000000E0,0.00000000000000000E0));
#190=B_SPLINE_CURVE_WITH_KNOTS('',1,(#188,#189),.UNSPECIFIED.,.F.,.F.,(2,2),(0.00000000000000000E0,1.00000000000000000E0),.UNSPECIFIED.);
#191=DEFINITIONAL_REPRESENTATION('',(#190),#187);
#192=PCURVE('',#39,#191);
#193=CARTESIAN_POINT('',(1.00000000000000000E0,0.00000000000000000E0));
#194=CARTESIAN_POINT('',(1.00000000000000000E0,1.00000000000000000E0));
#195=B_SPLINE_CURVE_WITH_KNOTS('',1,(#193,#194),.UNSPECIFIED.,.F.,.F.,(2,2),(0.00000000000000000E0,1.00000000000000000E0),.UNSPECIFIED.);
#196=DEFINITIONAL_REPRESENTATION('',(#195),#187);
#197=PCURVE('',#39,#196);
#198=CARTESIAN_POINT('',(1.00000000000000000E0,1.00000000000000000E0));
#199=CARTESIAN_POINT('',(0.00000000000000000E0,1.00000000000000000E0));
#200=B_SPLINE_CURVE_WITH_KNOTS('',1,(#198,#199),.UNSPECIFIED.,.F.,.F.,(2,2),(0.00000000000000000E0,1.00000000000000000E0),.UNSPECIFIED.);
#201=DEFINITIONAL_REPRESENTATION('',(#200),#187);
#202=PCURVE('',#39,#201);
#203=CARTESIAN_POINT('',(0.00000000000000000E0,1.00000000000000000E0));
#204=CARTESIAN_POINT('',(0.00000000000000000E0,0.00000000000000000E0));
#205=B_SPLINE_CURVE_WITH_KNOTS('',1,(#203,#204),.UNSPECIFIED.,.F.,.F.,(2,2),(0.00000000000000000E0,1.00000000000000000E0),.UNSPECIFIED.);
#206=DEFINITIONAL_REPRESENTATION('',(#205),#187);
#207=PCURVE('',#39,#206);
#208=CARTESIAN_POINT('',(0.00000000000000000E0,0.00000000000000000E0));
#209=CARTESIAN_POINT('',(1.00000000000000000E0,0.00000000000000000E0));
#210=B_SPLINE_CURVE_WITH_KNOTS('',1,(#208,#209),.UNSPECIFIED.,.F.,.F.,(2,2),(0.00000000000000000E0,1.00000000000000000E0),.UNSPECIFIED.);
#211=DEFINITIONAL_REPRESENTATION('',(#210),#187);
#212=PCURVE('',#46,#211);
#213=CARTESIAN_POINT('',(1.00000000000000000E0,0.00000000000000000E0));
#214=CARTESIAN_POINT('',(1.00000000000000000E0,1.00000000000000000E0));
#215=B_SPLINE_CURVE_WITH_KNOTS('',1,(#213,#214),.UNSPECIFIED.,.F.,.F.,(2,2),(0.00000000000000000E0,1.00000000000000000E0),.UNSPECIFIED.);
#216=DEFINITIONAL_REPRESENTATION('',(#215),#187);
#217=PCURVE('',#46,#216);
#218=CARTESIAN_POINT('',(1.00000000000000000E0,1.00000000000000000E0));
#219=CARTESIAN_POINT('',(0.00000000000000000E0,1.00000000000000000E0));
#220=B_SPLINE_CURVE_WITH_KNOTS('',1,(#218,#219),.UNSPECIFIED.,.F.,.F.,(2,2),(0.00000000000000000E0,1.00000000000000000E0),.UNSPECIFIED.);
#221=DEFINITIONAL_REPRESENTATION('',(#220),#187);
#222=PCURVE('',#46,#221);
#223=CARTESIAN_POINT('',(0.00000000000000000E0,1.00000000000000000E0));
#224=CARTESIAN_POINT('',(0.00000000000000000E0,0.00000000000000000E0));
#225=B_SPLINE_CURVE_WITH_KNOTS('',1,(#223,#224),.UNSPECIFIED.,.F.,.F.,(2,2),(0.00000000000000000E0,1.00000000000000000E0),.UNSPECIFIED.);
#226=DEFINITIONAL_REPRESENTATION('',(#225),#187);
#227=PCURVE('',#46,#226);
#228=CARTESIAN_POINT('',(0.00000000000000000E0,0.00000000000000000E0));
#229=CARTESIAN_POINT('',(1.00000000000000000E0,0.00000000000000000E0));
#230=B_SPLINE_CURVE_WITH_KNOTS('',1,(#228,#229),.UNSPECIFIED.,.F.,.F.,(2,2),(0.00000000000000000E0,1.00000000000000000E0),.UNSPECIFIED.);
#231=DEFINITIONAL_REPRESENTATION('',(#230),#187);
#232=PCURVE('',#53,#231);
#233=CARTESIAN_POINT('',(1.00000000000000000E0,0.00000000000000000E0));
#234=CARTESIAN_POINT('',(1.00000000000000000E0,1.00000000000000000E0));
#235=B_SPLINE_CURVE_WITH_KNOTS('',1,(#233,#234),.UNSPECIFIED.,.F.,.F.,(2,2),(0.00000000000000000E0,1.00000000000000000E0),.UNSPECIFIED.);
#236=DEFINITIONAL_REPRESENTATION('',(#235),#187);
#237=PCURVE('',#53,#236);
#238=CARTESIAN_POINT('',(1.00000000000000000E0,1.00000000000000000E0));
#239=CARTESIAN_POINT('',(0.00000000000000000E0,1.00000000000000000E0));
#240=B_SPLINE_CURVE_WITH_KNOTS('',1,(#238,#239),.UNSPECIFIED.,.F.,.F.,(2,2),(0.00000000000000000E0,1.00000000000000000E0),.UNSPECIFIED.);
#241=DEFINITIONAL_REPRESENTATION('',(#240),#187);
#242=PCURVE('',#53,#241);
#243=CARTESIAN_POINT('',(0.00000000000000000E0,1.00000000000000000E0));
#244=CARTESIAN_POINT('',(0.00000000000000000E0,0.00000000000000000E0));
#245=B_SPLINE_CURVE_WITH_KNOTS('',1,(#243,#244),.UNSPECIFIED.,.F.,.F.,(2,2),(0.00000000000000000E0,1.00000000000000000E0),.UNSPECIFIED.);
#246=DEFINITIONAL_REPRESENTATION('',(#245),#187);
#247=PCURVE('',#53,#246);
#248=CARTESIAN_POINT('',(0.00000000000000000E0,0.00000000000000000E0));
#249=CARTESIAN_POINT('',(1.00000000000000000E0,0.00000000000000000E0));
#250=B_SPLINE_CURVE_WITH_KNOTS('',1,(#248,#249),.UNSPECIFIED.,.F.,.F.,(2,2),(0.00000000000000000E0,1.00000000000000000E0),.UNSPECIFIED.);
#251=DEFINITIONAL_REPRESENTATION('',(#250),#187);
#252=PCURVE('',#60,#251);
#253=CARTESIAN_POINT('',(1.00000000000000000E0,0.00000000000000000E0));
#254=CARTESIAN_POINT('',(1.00000000000000000E0,1.00000000000000000E0));
#255=B_SPLINE_CURVE_WITH_KNOTS('',1,(#253,#254),.UNSPECIFIED.,.F.,.F.,(2,2),(0.00000000000000000E0,1.00000000000000000E0),.UNSPECIFIED.);
#256=DEFINITIONAL_REPRESENTATION('',(#255),#187);
#257=PCURVE('',#60,#256);
#258=CARTESIAN_POINT('',(1.00000000000000000E0,1.00000000000000000E0));
#259=CARTESIAN_POINT('',(0.00000000000000000E0,1.00000000000000000E0));
#260=B_SPLINE_CURVE_WITH_KNOTS('',1,(#258,#259),.UNSPECIFIED.,.F.,.F.,(2,2),(0.00000000000000000E0,1.00000000000000000E0),.UNSPECIFIED.);
#261=DEFINITIONAL_REPRESENTATION('',(#260),#187);
#262=PCURVE('',#60,#261);
#263=CARTESIAN_POINT('',(0.00000000000000000E0,1.00000000000000000E0));
#264=CARTESIAN_POINT('',(0.00000000000000000E0,0.00000000000000000E0));
#265=B_SPLINE_CURVE_WITH_KNOTS('',1,(#263,#264),.UNSPECIFIED.,.F.,.F.,(2,2),(0.00000000000000000E0,1.00000000000000000E0),.UNSPECIFIED.);
#266=DEFINITIONAL_REPRESENTATION('',(#265),#187);
#267=PCURVE('',#60,#266);
#268=CARTESIAN_POINT('',(0.00000000000000000E0,0.00000000000000000E0));
#269=CARTESIAN_POINT('',(1.00000000000000000E0,0.00000000000000000E0));
#270=B_SPLINE_CURVE_WITH_KNOTS('',1,(#268,#269),.UNSPECIFIED.,.F.,.F.,(2,2),(0.00000000000000000E0,1.00000000000000000E0),.UNSPECIFIED.);
#271=DEFINITIONAL_REPRESENTATION('',(#270),#187);
#272=PCURVE('',#67,#271);
#273=CARTESIAN_POINT('',(1.00000000000000000E0,0.00000000000000000E0));
#274=CARTESIAN_POINT('',(1.00000000000000000E0,1.00000000000000000E0));
#275=B_SPLINE_CURVE_WITH_KNOTS('',1,(#273,#274),.UNSPECIFIED.,.F.,.F.,(2,2),(0.00000000000000000E0,1.00000000000000000E0),.UNSPECIFIED.);
#276=DEFINITIONAL_REPRESENTATION('',(#275),#187);
#277=PCURVE('',#67,#276);
#278=CARTESIAN_POINT('',(1.00000000000000000E0,1.00000000000000000E0));
#279=CARTESIAN_POINT('',(0.00000000000000000E0,1.00000000000000000E0));
#280=B_SPLINE_CURVE_WITH_KNOTS('',1,(#278,#279),.UNSPECIFIED.,.F.,.F.,(2,2),(0.00000000000000000E0,1.00000000000000000E0),.UNSPECIFIED.);
#281=DEFINITIONAL_REPRESENTATION('',(#280),#187);
#282=PCURVE('',#67,#281);
#283=CARTESIAN_POINT('',(0.00000000000000000E0,1.00000000000000000E0));
#284=CARTESIAN_POINT('',(0.00000000000000000E0,0.00000000000000000E0));
#285=B_SPLINE_CURVE_WITH_KNOTS('',1,(#283,#284),.UNSPECIFIED.,.F.,.F.,(2,2),(0.00000000000000000E0,1.00000000000000000E0),.UNSPECIFIED.);
#286=DEFINITIONAL_REPRESENTATION('',(#285),#187);
#287=PCURVE('',#67,#286);
#288=CARTESIAN_POINT('',(0.00000000000000000E0,0.00000000000000000E0));
#289=CARTESIAN_POINT('',(1.00000000000000000E0,0.00000000000000000E0));
#290=B_SPLINE_CURVE_WITH_KNOTS('',1,(#288,#289),.UNSPECIFIED.,.F.,.F.,(2,2),(0.00000000000000000E0,1.00000000000000000E0),.UNSPECIFIED.);
#291=DEFINITIONAL_REPRESENTATION('',(#290),#187);
#292=PCURVE('',#74,#291);
#293=CARTESIAN_POINT('',(1.00000000000000000E0,0.00000000000000000E0));
#294=CARTESIAN_POINT('',(1.00000000000000000E0,1.00000000000000000E0));
#295=B_SPLINE_CURVE_WITH_KNOTS('',1,(#293,#294),.UNSPECIFIED.,.F.,.F.,(2,2),(0.00000000000000000E0,1.00000000000000000E0),.UNSPECIFIED.);
#296=DEFINITIONAL_REPRESENTATION('',(#295),#187);
#297=PCURVE('',#74,#296);
#298=CARTESIAN_POINT('',(1.00000000000000000E0,1.00000000000000000E0));
#299=CARTESIAN_POINT('',(0.00000000000000000E0,1.00000000000000000E0));
#300=B_SPLINE_CURVE_WITH_KNOTS('',1,(#298,#299),.UNSPECIFIED.,.F.,.F.,(2,2),(0.00000000000000000E0,1.00000000000000000E0),.UNSPECIFIED.);
#301=DEFINITIONAL_REPRESENTATION('',(#300),#187);
#302=PCURVE('',#74,#301);
#303=CARTESIAN_POINT('',(0.00000000000000000E0,1.00000000000000000E0));
#304=CARTESIAN_POINT('',(0.00000000000000000E0,0.00000000000000000E0));
#305=B_SPLINE_CURVE_WITH_KNOTS('',1,(#303,#304),.UNSPECIFIED.,.F.,.F.,(2,2),(0.00000000000000000E0,1.00000000000000000E0),.UNSPECIFIED.);
#306=DEFINITIONAL_REPRESENTATION('',(#305),#187);
#307=PCURVE('',#74,#306);
#308=CARTESIAN_POINT('',(0.00000000000000000E0,0.00000000000000000E0));
#309=CARTESIAN_POINT('',(1.00000000000000000E0,0.00000000000000000E0));
#310=B_SPLINE_CURVE_WITH_KNOTS('',1,(#308,#309),.UNSPECIFIED.,.F.,.F.,(2,2),(0.00000000000000000E0,1.00000000000000000E0),.UNSPECIFIED.);
#311=DEFINITIONAL_REPRESENTATION('',(#310),#187);
#312=PCURVE('',#81,#311);
#313=CARTESIAN_POINT('',(1.00000000000000000E0,0.00000000000000000E0));
#314=CARTESIAN_POINT('',(1.00000000000000000E0,1.00000000000000000E0));
#315=B_SPLINE_CURVE_WITH_KNOTS('',1,(#313,#314),.UNSPECIFIED.,.F.,.F.,(2,2),(0.00000000000000000E0,1.00000000000000000E0),.UNSPECIFIED.);
#316=DEFINITIONAL_REPRESENTATION('',(#315),#187);
#317=PCURVE('',#81,#316);
#318=CARTESIAN_POINT('',(1.00000000000000000E0,1.00000000000000000E0));
#319=CARTESIAN_POINT('',(0.00000000000000000E0,1.00000000000000000E0));
#320=B_SPLINE_CURVE_WITH_KNOTS('',1,(#318,#319),.UNSPECIFIED.,.F.,.F.,(2,2),(0.00000000000000000E0,1.00000000000000000E0),.UNSPECIFIED.);
#321=DEFINITIONAL_REPRESENTATION('',(#320),#187);
#322=PCURVE('',#81,#321);
#323=CARTESIAN_POINT('',(0.00000000000000000E0,1.00000000000000000E0));
#324=CARTESIAN_POINT('',(0.00000000000000000E0,0.00000000000000000E0));
#325=B_SPLINE_CURVE_WITH_KNOTS('',1,(#323,#324),.UNSPECIFIED.,.F.,.F.,(2,2),(0.00000000000000000E0,1.00000000000000000E0),.UNSPECIFIED.);
#326=DEFINITIONAL_REPRESENTATION('',(#325),#187);
#327=PCURVE('',#81,#326);
#328=CARTESIAN_POINT('',(0.00000000000000000E0,0.00000000000000000E0));
#329=CARTESIAN_POINT('',(1.00000000000000000E0,0.00000000000000000E0));
#330=B_SPLINE_CURVE_WITH_KNOTS('',1,(#328,#329),.UNSPECIFIED.,.F.,.F.,(2,2),(0.00000000000000000E0,1.00000000000000000E0),.UNSPECIFIED.);
#331=DEFINITIONAL_REPRESENTATION('',(#330),#187);
#332=PCURVE('',#88,#331);
#333=CARTESIAN_POINT('',(1.00000000000000000E0,0.00000000000000000E0));
#334=CARTESIAN_POINT('',(1.00000000000000000E0,1.00000000000000000E0));
#335=B_SPLINE_CURVE_WITH_KNOTS('',1,(#333,#334),.UNSPECIFIED.,.F.,.F.,(2,2),(0.00000000000000000E0,1.00000000000000000E0),.UNSPECIFIED.);
#336=DEFINITIONAL_REPRESENTATION('',(#335),#187);
#337=PCURVE('',#88,#336);
#338=CARTESIAN_POINT('',(1.00000000000000000E0,1.00000000000000000E0));
#339=CARTESIAN_POINT('',(0.00000000000000000E0,1.00000000000000000E0));
#340=B_SPLINE_CURVE_WITH_KNOTS('',1,(#338,#339),.UNSPECIFIED.,.F.,.F.,(2,2),(0.00000000000000000E0,1.00000000000000000E0),.UNSPECIFIED.);
#341=DEFINITIONAL_REPRESENTATION('',(#340),#187);
#342=PCURVE('',#88,#341);
#343=CARTESIAN_POINT('',(0.00000000000000000E0,1.00000000000000000E0));
#344=CARTESIAN_POINT('',(0.00000000000000000E0,0.00000000000000000E0));
#345=B_SPLINE_CURVE_WITH_KNOTS('',1,(#343,#344),.UNSPECIFIED.,.F.,.F.,(2,2),(0.00000000000000000E0,1.00000000000000000E0),.UNSPECIFIED.);
#346=DEFINITIONAL_REPRESENTATION('',(#345),#187);
#347=PCURVE('',#88,#346);
#348=CARTESIAN_POINT('',(0.00000000000000000E0,5.00000000000000000E-1));
#349=CARTESIAN_POINT('',(-5.00000000000000000E-1,5.00000000000000000E-1));
#350=CARTESIAN_POINT('',(-5.00000000000000000E-1,0.00000000000000000E0));
#351=(BOUNDED_CURVE()B_SPLINE_CURVE(2,(#348,#349,#350),.UNSPECIFIED.,.F.,.F.)B_SPLINE_CURVE_WITH_KNOTS((3,3),(0.00000000000000000E0,1.00000000000000000E0),.UNSPECIFIED.)CURVE()GEOMETRIC_REPRESENTATION_ITEM()RATIONAL_B_SPLINE_CURVE((1.00000000000000000E0,7.07106781186547573E-1,1.00000000000000000E0))REPRESENTATION_ITEM(''));
#352=DEFINITIONAL_REPRESENTATION('',(#351),#187);
#353=PCURVE('',#93,#352);
#354=CARTESIAN_POINT('',(-5.00000000000000000E-1,0.00000000000000000E0));
#355=CARTESIAN_POINT('',(-5.00000000000000000E-1,-5.00000000000000000E-1));
#356=CARTESIAN_POINT('',(0.00000000000000000E0,-5.00000000000000000E-1));
#357=(BOUNDED_CURVE()B_SPLINE_CURVE(2,(#354,#355,#356),.UNSPECIFIED.,.F.,.F.)B_SPLINE_CURVE_WITH_KNOTS((3,3),(0.00000000000000000E0,1.00000000000000000E0),.UNSPECIFIED.)CURVE()GEOMETRIC_REPRESENTATION_ITEM()RATIONAL_B_SPLINE_CURVE((1.00000000000000000E0,7.07106781186547573E-1,1.00000000000000000E0))REPRESENTATION_ITEM(''));
#358=DEFINITIONAL_REPRESENTATION('',(#357),#187);
#359=PCURVE('',#93,#358);
#360=CARTESIAN_POINT('',(0.00000000000000000E0,-5.00000000000000000E-1));
#361=CARTESIAN_POINT('',(5.00000000000000000E-1,-5.00000000000000000E-1));
#362=CARTESIAN_POINT('',(5.00000000000000000E-1,0.00000000000000000E0));
#363=(BOUNDED_CURVE()B_SPLINE_CURVE(2,(#360,#361,#362),.UNSPECIFIED.,.F.,.F.)B_SPLINE_CURVE_WITH_KNOTS((3,3),(0.00000000000000000E0,1.00000000000000000E0),.UNSPECIFIED.)CURVE()GEOMETRIC_REPRESENTATION_ITEM()RATIONAL_B_SPLINE_CURVE((1.00000000000000000E0,7.07106781186547573E-1,1.00000000000000000E0))REPRESENTATION_ITEM(''));
#364=DEFINITIONAL_REPRESENTATION('',(#363),#187);
#365=PCURVE('',#93,#364);
#366=CARTESIAN_POINT('',(5.00000000000000000E-1,0.00000000000000000E0));
#367=CARTESIAN_POINT('',(5.00000000000000000E-1,5.00000000000000000E-1));
#368=CARTESIAN_POINT('',(0.00000000000000000E0,5.00000000000000000E-1));
#369=(BOUNDED_CURVE()B_SPLINE_CURVE(2,(#366,#367,#368),.UNSPECIFIED.,.F.,.F.)B_SPLINE_CURVE_WITH_KNOTS((3,3),(0.00000000000000000E0,1.00000000000000000E0),.UNSPECIFIED.)CURVE()GEOMETRIC_REPRESENTATION_ITEM()RATIONAL_B_SPLINE_CURVE((1.00000000000000000E0,7.07106781186547573E-1,1.00000000000000000E0))REPRESENTATION_ITEM(''));
#370=DEFINITIONAL_REPRESENTATION('',(#369),#187);
#371=PCURVE('',#93,#370);
#372=CARTESIAN_POINT('',(0.00000000000000000E0,2.00000000000000011E-1));
#373=CARTESIAN_POINT('',(2.00000000000000011E-1,2.00000000000000011E-1));
#374=CARTESIAN_POINT('',(2.00000000000000011E-1,0.00000000000000000E0));
#375=(BOUNDED_CURVE()B_SPLINE_CURVE(2,(#372,#373,#374),.UNSPECIFIED.,.F.,.F.)B_SPLINE_CURVE_WITH_KNOTS((3,3),(0.00000000000000000E0,1.00000000000000000E0),.UNSPECIFIED.)CURVE()GEOMETRIC_REPRESENTATION_ITEM()RATIONAL_B_SPLINE_CURVE((1.00000000000000000E0,7.07106781186547573E-1,1.00000000000000000E0))REPRESENTATION_ITEM(''));
#376=DEFINITIONAL_REPRESENTATION('',(#375),#187);
#377=PCURVE('',#93,#376);
#378=CARTESIAN_POINT('',(2.00000000000000011E-1,0.00000000000000000E0));
#379=CARTESIAN_POINT('',(2.00000000000000011E-1,-2.00000000000000011E-1));
#380=CARTESIAN_POINT('',(0.00000000000000000E0,-2.00000000000000011E-1));
#381=(BOUNDED_CURVE()B_SPLINE_CURVE(2,(#378,#379,#380),.UNSPECIFIED.,.F.,.F.)B_SPLINE_CURVE_WITH_KNOTS((3,3),(0.00000000000000000E0,1.00000000000000000E0),.UNSPECIFIED.)CURVE()GEOMETRIC_REPRESENTATION_ITEM()RATIONAL_B_SPLINE_CURVE((1.00000000000000000E0,7.07106781186547573E-1,1.00000000000000000E0))REPRESENTATION_ITEM(''));
#382=DEFINITIONAL_REPRESENTATION('',(#381),#187);
#383=PCURVE('',#93,#382);
#384=CARTESIAN_POINT('',(0.00000000000000000E0,-2.00000000000000011E-1));
#385=CARTESIAN_POINT('',(-2.00000000000000011E-1,-2.00000000000000011E-1));
#386=CARTESIAN_POINT('',(-2.00000000000000011E-1,0.00000000000000000E0));
#387=(BOUNDED_CURVE()B_SPLINE_CURVE(2,(#384,#385,#386),.UNSPECIFIED.,.F.,.F.)B_SPLINE_CURVE_WITH_KNOTS((3,3),(0.00000000000000000E0,1.00000000000000000E0),.UNSPECIFIED.)CURVE()GEOMETRIC_REPRESENTATION_ITEM()RATIONAL_B_SPLINE_CURVE((1.00000000000000000E0,7.07106781186547573E-1,1.00000000000000000E0))REPRESENTATION_ITEM(''));
#388=DEFINITIONAL_REPRESENTATION('',(#387),#187);
#389=PCURVE('',#93,#388);
#390=CARTESIAN_POINT('',(-2.00000000000000011E-1,0.00000000000000000E0));
#391=CARTESIAN_POINT('',(-2.00000000000000011E-1,2.00000000000000011E-1));
#392=CARTESIAN_POINT('',(0.00000000000000000E0,2.00000000000000011E-1));
#393=(BOUNDED_CURVE()B_SPLINE_CURVE(2,(#390,#391,#392),.UNSPECIFIED.,.F.,.F.)B_SPLINE_CURVE_WITH_KNOTS((3,3),(0.00000000000000000E0,1.00000000000000000E0),.UNSPECIFIED.)CURVE()GEOMETRIC_REPRESENTATION_ITEM()RATIONAL_B_SPLINE_CURVE((1.00000000000000000E0,7.07106781186547573E-1,1.00000000000000000E0))REPRESENTATION_ITEM(''));
#394=DEFINITIONAL_REPRESENTATION('',(#393),#187);
#395=PCURVE('',#93,#394);
#396=CARTESIAN_POINT('',(0.00000000000000000E0,5.00000000000000000E-1));
#397=CARTESIAN_POINT('',(-5.00000000000000000E-1,5.00000000000000000E-1));
#398=CARTESIAN_POINT('',(-5.00000000000000000E-1,0.00000000000000000E0));
#399=(BOUNDED_CURVE()B_SPLINE_CURVE(2,(#396,#397,#398),.UNSPECIFIED.,.F.,.F.)B_SPLINE_CURVE_WITH_KNOTS((3,3),(0.00000000000000000E0,1.00000000000000000E0),.UNSPECIFIED.)CURVE()GEOMETRIC_REPRESENTATION_ITEM()RATIONAL_B_SPLINE_CURVE((1.00000000000000000E0,7.07106781186547573E-1,1.00000000000000000E0))REPRESENTATION_ITEM(''));
#400=DEFINITIONAL_REPRESENTATION('',(#399),#187);
#401=PCURVE('',#98,#400);
#402=CARTESIAN_POINT('',(-5.00000000000000000E-1,0.00000000000000000E0));
#403=CARTESIAN_POINT('',(-5.00000000000000000E-1,-5.00000000000000000E-1));
#404=CARTESIAN_POINT('',(0.00000000000000000E0,-5.00000000000000000E-1));
#405=(BOUNDED_CURVE()B_SPLINE_CURVE(2,(#402,#403,#404),.UNSPECIFIED.,.F.,.F.)B_SPLINE_CURVE_WITH_KNOTS((3,3),(0.00000000000000000E0,1.00000000000000000E0),.UNSPECIFIED.)CURVE()GEOMETRIC_REPRESENTATION_ITEM()RATIONAL_B_SPLINE_CURVE((1.00000000000000000E0,7.07106781186547573E-1,1.00000000000000000E0))REPRESENTATION_ITEM(''));
#406=DEFINITIONAL_REPRESENTATION('',(#405),#187);
#407=PCURVE('',#98,#406);
#408=CARTESIAN_POINT('',(0.00000000000000000E0,-5.00000000000000000E-1));
#409=CARTESIAN_POINT('',(5.00000000000000000E-1,-5.00000000000000000E-1));
#410=CARTESIAN_POINT('',(5.00000000000000000E-1,0.00000000000000000E0));
#411=(BOUNDED_CURVE()B_SPLINE_CURVE(2,(#408,#409,#410),.UNSPECIFIED.,.F.,.F.)B_SPLINE_CURVE_WITH_KNOTS((3,3),(0.00000000000000000E0,1.00000000000000000E0),.UNSPECIFIED.)CURVE()GEOMETRIC_REPRESENTATION_ITEM()RATIONAL_B_SPLINE_CURVE((1.00000000000000000E0,7.07106781186547573E-1,1.00000000000000000E0))REPRESENTATION_ITEM(''));
#412=DEFINITIONAL_REPRESENTATION('',(#411),#187);
#413=PCURVE('',#98,#412);
#414=CARTESIAN_POINT('',(5.00000000000000000E-1,0.00000000000000000E0));
#415=CARTESIAN_POINT('',(5.00000000000000000E-1,5.00000000000000000E-1));
#416=CARTESIAN_POINT('',(0.00000000000000000E0,5.00000000000000000E-1));
#417=(BOUNDED_CURVE()B_SPLINE_CURVE(2,(#414,#415,#416),.UNSPECIFIED.,.F.,.F.)B_SPLINE_CURVE_WITH_KNOTS((3,3),(0.00000000000000000E0,1.00000000000000000E0),.UNSPECIFIED.)CURVE()GEOMETRIC_REPRESENTATION_ITEM()RATIONAL_B_SPLINE_CURVE((1.00000000000000000E0,7.07106781186547573E-1,1.00000000000000000E0))REPRESENTATION_ITEM(''));
#418=DEFINITIONAL_REPRESENTATION('',(#417),#187);
#419=PCURVE('',#98,#418);
#420=CARTESIAN_POINT('',(0.00000000000000000E0,2.00000000000000011E-1));
#421=CARTESIAN_POINT('',(2.00000000000000011E-1,2.00000000000000011E-1));
#422=CARTESIAN_POINT('',(2.00000000000000011E-1,0.00000000000000000E0));
#423=(BOUNDED_CURVE()B_SPLINE_CURVE(2,(#420,#421,#422),.UNSPECIFIED.,.F.,.F.)B_SPLINE_CURVE_WITH_KNOTS((3,3),(0.00000000000000000E0,1.00000000000000000E0),.UNSPECIFIED.)CURVE()GEOMETRIC_REPRESENTATION_ITEM()RATIONAL_B_SPLINE_CURVE((1.00000000000000000E0,7.07106781186547573E-1,1.00000000000000000E0))REPRESENTATION_ITEM(''));
#424=DEFINITIONAL_REPRESENTATION('',(#423),#187);
#425=PCURVE('',#98,#424);
#426=CARTESIAN_POINT('',(2.00000000000000011E-1,0.00000000000000000E0));
#427=CARTESIAN_POINT('',(2.00000000000000011E-1,-2.00000000000000011E-1));
#428=CARTESIAN_POINT('',(0.00000000000000000E0,-2.00000000000000011E-1));
#429=(BOUNDED_CURVE()B_SPLINE_CURVE(2,(#426,#427,#428),.UNSPECIFIED.,.F.,.F.)B_SPLINE_CURVE_WITH_KNOTS((3,3),(0.00000000000000000E0,1.00000000000000000E0),.UNSPECIFIED.)CURVE()GEOMETRIC_REPRESENTATION_ITEM()RATIONAL_B_SPLINE_CURVE((1.00000000000000000E0,7.07106781186547573E-1,1.00000000000000000E0))REPRESENTATION_ITEM(''));
#430=DEFINITIONAL_REPRESENTATION('',(#429),#187);
#431=PCURVE('',#98,#430);
#432=CARTESIAN_POINT('',(0.00000000000000000E0,-2.00000000000000011E-1));
#433=CARTESIAN_POINT('',(-2.00000000000000011E-1,-2.00000000000000011E-1));
#434=CARTESIAN_POINT('',(-2.00000000000000011E-1,0.00000000000000000E0));
#435=(BOUNDED_CURVE()B_SPLINE_CURVE(2,(#432,#433,#434),.UNSPECIFIED.,.F.,.F.)B_SPLINE_CURVE_WITH_KNOTS((3,3),(0.00000000000000000E0,1.00000000000000000E0),.UNSPECIFIED.)CURVE()GEOMETRIC_REPRESENTATION_ITEM()RATIONAL_B_SPLINE_CURVE((1.00000000000000000E0,7.07106781186547573E-1,1.00000000000000000E0))REPRESENTATION_ITEM(''));
#436=DEFINITIONAL_REPRESENTATION('',(#435),#187);
#437=PCURVE('',#98,#436);
#438=CARTESIAN_POINT('',(-2.00000000000000011E-1,0.00000000000000000E0));
#439=CARTESIAN_POINT('',(-2.00000000000000011E-1,2.00000000000000011E-1));
#440=CARTESIAN_POINT('',(0.00000000000000000E0,2.00000000000000011E-1));
#441=(BOUNDED_CURVE()B_SPLINE_CURVE(2,(#438,#439,#440),.UNSPECIFIED.,.F.,.F.)B_SPLINE_CURVE_WITH_KNOTS((3,3),(0.00000000000000000E0,1.00000000000000000E0),.UNSPECIFIED.)CURVE()GEOMETRIC_REPRESENTATION_ITEM()RATIONAL_B_SPLINE_CURVE((1.00000000000000000E0,7.07106781186547573E-1,1.00000000000000000E0))REPRESENTATION_ITEM(''));
#442=DEFINITIONAL_REPRESENTATION('',(#441),#187);
#443=PCURVE('',#98,#442);
#444=SURFACE_CURVE('',#102,(#192,#371),.PCURVE_S1.);
#445=EDGE_CURVE('OSCAD_TOPO/3|edge|e:36c745b77e44fde69330ccc127247a04|c937498ef0428a7f1cf88dc9b06078d292521b9c2cf825e36cb3752f39ce4aa9',#2,#4,#444,.T.);
#446=SURFACE_CURVE('',#105,(#197,#227),.PCURVE_S1.);
#447=EDGE_CURVE('OSCAD_TOPO/3|edge|e:c20424c621c296454458e2aac0c4429c|9f11659daae509626fb416c5f29aa92fd4073af776aebfc02624fb953026b818',#4,#20,#446,.T.);
#448=SURFACE_CURVE('',#109,(#202,#401),.PCURVE_S1.);
#449=EDGE_CURVE('OSCAD_TOPO/3|edge|e:5afb7f91b4cd1f0308b8ff4f0c462d89|834ec306f6ef7d469924e54044a61877f9e188eb462a798a44acffb6003bd6f9',#18,#20,#448,.T.);
#450=SURFACE_CURVE('',#112,(#207,#257),.PCURVE_S1.);
#451=EDGE_CURVE('OSCAD_TOPO/3|edge|e:88df429acefc7b892c5a31d8637cc3a4|3390e0c2bdf589381648a0b8175e6c9169a3c1a2aea289486d25bb3426aedadc',#2,#18,#450,.T.);
#452=SURFACE_CURVE('',#116,(#212,#365),.PCURVE_S1.);
#453=EDGE_CURVE('OSCAD_TOPO/3|edge|e:061829fddb95204f19be10f9dc84d9dc|988dc4a26a4a91356608c901fdc329bcdc83d8cb28efacbf1ec702307043333a',#4,#6,#452,.T.);
#454=SURFACE_CURVE('',#119,(#217,#247),.PCURVE_S1.);
#455=EDGE_CURVE('OSCAD_TOPO/3|edge|e:0f65d6f51ad8616a5004f79d62b39c10|282648cabc94ba036e2582d36b9cc4913852555d546f928be0b1fd4b7799c284',#6,#22,#454,.T.);
#456=SURFACE_CURVE('',#123,(#222,#407),.PCURVE_S1.);
#457=EDGE_CURVE('OSCAD_TOPO/3|edge|e:c43fbe7dce442c19724e482e205ce081|8519755bba98db2e62e043900da6fd9ccf8e4b4a0b75acd6fda436745638992b',#20,#22,#456,.T.);
#458=SURFACE_CURVE('',#127,(#232,#359),.PCURVE_S1.);
#459=EDGE_CURVE('OSCAD_TOPO/3|edge|e:caed41cf9e37d40e51845f863d97aa57|96d5b38441b47a180ecabf4d5eb0a96c6c295ab263b1036793aac234f370235f',#6,#8,#458,.T.);
#460=SURFACE_CURVE('',#130,(#237,#267),.PCURVE_S1.);
#461=EDGE_CURVE('OSCAD_TOPO/3|edge|e:c02f4d42022ebe2cf5315a4716879d14|9920d011a171ce402fc642af0d1559971d56df07035d1edefe5bc908772c836b',#8,#24,#460,.T.);
#462=SURFACE_CURVE('',#134,(#242,#413),.PCURVE_S1.);
#463=EDGE_CURVE('OSCAD_TOPO/3|edge|e:9d321e889a33d39860e0c914fe78a309|76a4af81e8ec525a1e7f58ad5b2d89ba41434b7d8ac5a706add3780a8d6c572e',#22,#24,#462,.T.);
#464=SURFACE_CURVE('',#138,(#252,#353),.PCURVE_S1.);
#465=EDGE_CURVE('OSCAD_TOPO/3|edge|e:72987ed2b5b10acfc8ac1548b89c8d0d|10413193eb1da36dca7bd21399869b242b0d45ee3b516b9298148ff9a161ffde',#2,#8,#464,.T.);
#466=SURFACE_CURVE('',#142,(#262,#419),.PCURVE_S1.);
#467=EDGE_CURVE('OSCAD_TOPO/3|edge|e:c30976ef0312e1f670f1e60f35efa08d|ca71d1a6040152c1f849a4ac585e15727401de3537eeae68eb991b151e92c0aa',#18,#24,#466,.T.);
#468=SURFACE_CURVE('',#146,(#272,#395),.PCURVE_S1.);
#469=EDGE_CURVE('OSCAD_TOPO/3|edge|e:0c14499c5d6962d56273c5dec648f554|b75744dc8ec2f1ba08b1eee8dee46033e18a2d1709c3fb66324038218d893728',#10,#12,#468,.T.);
#470=SURFACE_CURVE('',#149,(#277,#307),.PCURVE_S1.);
#471=EDGE_CURVE('OSCAD_TOPO/3|edge|e:110a46b9bc6dc01a270f06cf520846eb|5db54ae79f35f75bc4bb93f0aac8ac45fa8709e6f9d76df1fb19bf9788cb3c57',#12,#28,#470,.T.);
#472=SURFACE_CURVE('',#153,(#282,#425),.PCURVE_S1.);
#473=EDGE_CURVE('OSCAD_TOPO/3|edge|e:ca6133b15c32a78101cbca4d6ed55e44|d58db0e4701c081841332afd2dc49acc2d35980f668b3e6846de4c9c7088302a',#26,#28,#472,.T.);
#474=SURFACE_CURVE('',#156,(#287,#337),.PCURVE_S1.);
#475=EDGE_CURVE('OSCAD_TOPO/3|edge|e:f4b3f59af577aa3c4a66fb86cbe6fa3b|95dfc42d498693a851a3e1bb1330d3fe265888910484c41af2768c8f2bc41e3e',#10,#26,#474,.T.);
#476=SURFACE_CURVE('',#160,(#292,#389),.PCURVE_S1.);
#477=EDGE_CURVE('OSCAD_TOPO/3|edge|e:0ddb2fe9267d6de9230823e50f024f94|6770ba14ea87fd13e9f3c04a36c1993ceb19dc53bc747790864de75aeb309f2f',#12,#14,#476,.T.);
#478=SURFACE_CURVE('',#163,(#297,#327),.PCURVE_S1.);
#479=EDGE_CURVE('OSCAD_TOPO/3|edge|e:c6e4b4ad84f32fcc408c1546695ec396|b46c2f7ffff1b84b1ff987cce61e4796487bd202248b663f7e19fb6ccd949da6',#14,#30,#478,.T.);
#480=SURFACE_CURVE('',#167,(#302,#431),.PCURVE_S1.);
#481=EDGE_CURVE('OSCAD_TOPO/3|edge|e:bcf13f562b06982b0b5ec82eb8c0892c|4857bd90d512387b71334fbc8704f0908915e30fce2b4566f98c01127b80d029',#28,#30,#480,.T.);
#482=SURFACE_CURVE('',#171,(#312,#383),.PCURVE_S1.);
#483=EDGE_CURVE('OSCAD_TOPO/3|edge|e:c7799a138d411c47a21a840ce5967bb7|bb02f24965f59997cec062b3c0778b025f2a74669d8e9af2051da11b6af1343e',#14,#16,#482,.T.);
#484=SURFACE_CURVE('',#174,(#317,#347),.PCURVE_S1.);
#485=EDGE_CURVE('OSCAD_TOPO/3|edge|e:f2adc3cb8c484dc3721ddb6cf03eb376|7b8f468bdec2a6c6ca56e1c179002d592a59f42a409c118a047e5ca828275e47',#16,#32,#484,.T.);
#486=SURFACE_CURVE('',#178,(#322,#437),.PCURVE_S1.);
#487=EDGE_CURVE('OSCAD_TOPO/3|edge|e:5994b17f831306661421cbc5fb81432b|ee46de78f8463c750f11acbe92ad35f651f1b572aa96ff30b01c404fe7934908',#30,#32,#486,.T.);
#488=SURFACE_CURVE('',#182,(#332,#377),.PCURVE_S1.);
#489=EDGE_CURVE('OSCAD_TOPO/3|edge|e:af195f3ff807dd9969c8c768fa792789|1066d0411f902e0ec4a94a5720cd197f837e38ff9b0353ea6b1dd774a850abbc',#10,#16,#488,.T.);
#490=SURFACE_CURVE('',#186,(#342,#443),.PCURVE_S1.);
#491=EDGE_CURVE('OSCAD_TOPO/3|edge|e:a047a52ede95f818bca30c68d37e62df|fea0bb48ec7761bc48cdd0ba6e85f0b4de4a2c5d955591555ce595918dde06e3',#26,#32,#490,.T.);
#492=ORIENTED_EDGE('',*,*,#445,.T.);
#493=ORIENTED_EDGE('',*,*,#447,.T.);
#494=ORIENTED_EDGE('',*,*,#449,.F.);
#495=ORIENTED_EDGE('',*,*,#451,.F.);
#496=EDGE_LOOP('OSCAD_TOPO/3|loop|l:05c944cdd65374d0f90b40b3617770b9|164302ac7b71dd8fee43330e0911a1ec566005a2a3485b5aba051e63746e62a7',(#492,#493,#494,#495));
#497=ORIENTED_EDGE('',*,*,#453,.T.);
#498=ORIENTED_EDGE('',*,*,#455,.T.);
#499=ORIENTED_EDGE('',*,*,#457,.F.);
#500=ORIENTED_EDGE('',*,*,#447,.F.);
#501=EDGE_LOOP('OSCAD_TOPO/3|loop|l:f0532dcd534edede2a8c5d551da57d81|9faf1f3cb7f5f69ffde8e4a5e59e58a9d3820e856b801b653f0ef45f24c90ebb',(#497,#498,#499,#500));
#502=ORIENTED_EDGE('',*,*,#459,.T.);
#503=ORIENTED_EDGE('',*,*,#461,.T.);
#504=ORIENTED_EDGE('',*,*,#463,.F.);
#505=ORIENTED_EDGE('',*,*,#455,.F.);
#506=EDGE_LOOP('OSCAD_TOPO/3|loop|l:fc3fc734e1266848e92f87cbc7a4f507|7cb88e135d0210b28b46cb6e46d5319080f9de3fcc5b39784fbc708a9a86dc38',(#502,#503,#504,#505));
#507=ORIENTED_EDGE('',*,*,#465,.F.);
#508=ORIENTED_EDGE('',*,*,#451,.T.);
#509=ORIENTED_EDGE('',*,*,#467,.T.);
#510=ORIENTED_EDGE('',*,*,#461,.F.);
#511=EDGE_LOOP('OSCAD_TOPO/3|loop|l:5d53be51e021751550d845bb26f96b2e|a613cbe941e680a8fb855d37d4ac9a7c7423ec617d2db757c3086e1434800cb5',(#507,#508,#509,#510));
#512=ORIENTED_EDGE('',*,*,#469,.T.);
#513=ORIENTED_EDGE('',*,*,#471,.T.);
#514=ORIENTED_EDGE('',*,*,#473,.F.);
#515=ORIENTED_EDGE('',*,*,#475,.F.);
#516=EDGE_LOOP('OSCAD_TOPO/3|loop|l:9c40cb3d4d948b40bbe8432e82a09a12|6c482e35c167fd5340e2381a152536b16359de23214a972ad09a9a82106d8ab0',(#512,#513,#514,#515));
#517=ORIENTED_EDGE('',*,*,#477,.T.);
#518=ORIENTED_EDGE('',*,*,#479,.T.);
#519=ORIENTED_EDGE('',*,*,#481,.F.);
#520=ORIENTED_EDGE('',*,*,#471,.F.);
#521=EDGE_LOOP('OSCAD_TOPO/3|loop|l:a94badd19ad2c0b64d1650000b1a99ea|ce2c50aa7f0e228dfcdd3a0212d3aab68815be6426ee81f6368243dcc7a93565',(#517,#518,#519,#520));
#522=ORIENTED_EDGE('',*,*,#483,.T.);
#523=ORIENTED_EDGE('',*,*,#485,.T.);
#524=ORIENTED_EDGE('',*,*,#487,.F.);
#525=ORIENTED_EDGE('',*,*,#479,.F.);
#526=EDGE_LOOP('OSCAD_TOPO/3|loop|l:1c200e4778467f5f2521092ed22ac85a|f9381156e768d8b00ff4a012cad7ecf45d0c3e5e13018d538d7f3f815ab2698f',(#522,#523,#524,#525));
#527=ORIENTED_EDGE('',*,*,#489,.F.);
#528=ORIENTED_EDGE('',*,*,#475,.T.);
#529=ORIENTED_EDGE('',*,*,#491,.T.);
#530=ORIENTED_EDGE('',*,*,#485,.F.);
#531=EDGE_LOOP('OSCAD_TOPO/3|loop|l:980d15af9a514ff3c18e764e9eb238a8|0e1bb5cbefafbb5774fabe5e169b2ec0e8b585ecbbc9910d192ed420ffe427cf',(#527,#528,#529,#530));
#532=ORIENTED_EDGE('',*,*,#465,.T.);
#533=ORIENTED_EDGE('',*,*,#459,.F.);
#534=ORIENTED_EDGE('',*,*,#453,.F.);
#535=ORIENTED_EDGE('',*,*,#445,.F.);
#536=EDGE_LOOP('OSCAD_TOPO/3|loop|l:6643b10370548dc2fe8d1d1d1699d950|554dbb88a9b3dfd2ef1cf108aa674cc984cab0cddf096a07faa0993e011fde3e',(#532,#533,#534,#535));
#537=ORIENTED_EDGE('',*,*,#489,.T.);
#538=ORIENTED_EDGE('',*,*,#483,.F.);
#539=ORIENTED_EDGE('',*,*,#477,.F.);
#540=ORIENTED_EDGE('',*,*,#469,.F.);
#541=EDGE_LOOP('OSCAD_TOPO/3|loop|l:af03f1a3481351cc06795576b6ba86fc|d36cca3fe1eaa03fecf3ab65148974e0f8dd5e94d6c3d3de8f67fd8f82ed8238',(#537,#538,#539,#540));
#542=ORIENTED_EDGE('',*,*,#449,.T.);
#543=ORIENTED_EDGE('',*,*,#457,.T.);
#544=ORIENTED_EDGE('',*,*,#463,.T.);
#545=ORIENTED_EDGE('',*,*,#467,.F.);
#546=EDGE_LOOP('OSCAD_TOPO/3|loop|l:9b0a2d7b099f5c67aae14b243e3ec491|11e60a34636251b315ad363ab033a4a115a5ff308c33360bd80e1990cf7347cf',(#542,#543,#544,#545));
#547=ORIENTED_EDGE('',*,*,#473,.T.);
#548=ORIENTED_EDGE('',*,*,#481,.T.);
#549=ORIENTED_EDGE('',*,*,#487,.T.);
#550=ORIENTED_EDGE('',*,*,#491,.F.);
#551=EDGE_LOOP('OSCAD_TOPO/3|loop|l:cd88ab734ee1d42c6c58e2ff00bc3c0f|ee53ed38d421c98a1cd06f8040f66e4f90e6c1d4266047e85766a0f6c8005547',(#547,#548,#549,#550));
#552=FACE_OUTER_BOUND('',#496,.T.);
#553=ADVANCED_FACE('OSCAD_TOPO/3|face|f:b249e3645213483c39d7bf9a4fabe39e|d9b053cec6997005595580b990645a895b92a327cf0592e6f783b5bd4bd1bf83',(#552),#39,.T.);
#554=FACE_OUTER_BOUND('',#501,.T.);
#555=ADVANCED_FACE('OSCAD_TOPO/3|face|f:8c2dfca7628cc885bf0004497b617f7a|6cbb0ff1d9855bbbf8dc7788b8156524f432ae6ff9d84a413530857c751d858d',(#554),#46,.T.);
#556=FACE_OUTER_BOUND('',#506,.T.);
#557=ADVANCED_FACE('OSCAD_TOPO/3|face|f:2de275f5cbc11ab388cc3b8f4e243981|ed769d44f21b3d7cc4f7faf9fc43ffe6ce4dcde506f2892413ee4cd147f1a9c0',(#556),#53,.T.);
#558=FACE_OUTER_BOUND('',#511,.T.);
#559=ADVANCED_FACE('OSCAD_TOPO/3|face|f:959eebe1b7681e167584edf6fe2ead95|f83e21ee0fdc8239a7ac145c871a07219759a0699b15e921fa32567523e22d61',(#558),#60,.T.);
#560=FACE_OUTER_BOUND('',#516,.T.);
#561=ADVANCED_FACE('OSCAD_TOPO/3|face|f:936c657bfc27de802d3ba57388d94c25|6c8f577baecf13f06cfa0a14dd0e1d3fb289371d7ff171dc5978c575ed58eded',(#560),#67,.T.);
#562=FACE_OUTER_BOUND('',#521,.T.);
#563=ADVANCED_FACE('OSCAD_TOPO/3|face|f:dbe96c18f319f50005e240c0cbad42dd|e126ceb6ede6b7647555330602756f5b55cb0ba4958d0c9be7d14c2fbd518820',(#562),#74,.T.);
#564=FACE_OUTER_BOUND('',#526,.T.);
#565=ADVANCED_FACE('OSCAD_TOPO/3|face|f:4785905a136fa5e07d0d0bd0509d2083|d89cae216ec1521b7f77c82bc67ba91df56093385776a90ed5f3dad635bbf670',(#564),#81,.T.);
#566=FACE_OUTER_BOUND('',#531,.T.);
#567=ADVANCED_FACE('OSCAD_TOPO/3|face|f:1b889c5ef9576a9c3361da580aa464d3|d700f042ad94e505bdef6b3fa4c4c1c634fcab8ca2c9950aad837366205c0099',(#566),#88,.T.);
#568=FACE_OUTER_BOUND('',#536,.T.);
#569=FACE_BOUND('',#541,.T.);
#570=ADVANCED_FACE('OSCAD_TOPO/3|face|f:26a48d57c7fab5df1c1ce50a9c5f31f5|3a21b675aacc1ebdf27f19d9e8ba69ef3effe1fe7f90d24f23efd08428380ce2',(#568,#569),#93,.T.);
#571=FACE_OUTER_BOUND('',#546,.T.);
#572=FACE_BOUND('',#551,.T.);
#573=ADVANCED_FACE('OSCAD_TOPO/3|face|f:7d7bc0b6e785a0e04f869effaf298e5b|82bb29ef24920d0172bb56abf247650553f0aad22ed6ec0888903972a9aa47cb',(#571,#572),#98,.T.);
#574=CLOSED_SHELL('OSCAD_TOPO/3|shell|s:d33b94fec0fee9832a1a5005fc6a8bdc|8cdde7899084cde1c81590cdaf716dd2f312b659e436e961a153e932f69421b8',(#553,#555,#557,#559,#561,#563,#565,#567,#570,#573));
#575=MANIFOLD_SOLID_BREP('OSCAD_TOPO/3|body|b:5276df9b992e0c5b98bf5856aa100591|4f93f763b9a51eb4b5627a3e0485dd5c6acc7c79177554895ce36efca5722fbb',#574);
#576=(LENGTH_UNIT()NAMED_UNIT(*)SI_UNIT(.MILLI.,.METRE.));
#577=UNCERTAINTY_MEASURE_WITH_UNIT(LENGTH_MEASURE(9.99999999999999955E-8),#576,'distance_accuracy_value','');
#578=(GEOMETRIC_REPRESENTATION_CONTEXT(3)GLOBAL_UNCERTAINTY_ASSIGNED_CONTEXT((#577))GLOBAL_UNIT_ASSIGNED_CONTEXT((#576))REPRESENTATION_CONTEXT('','3D'));
#579=ADVANCED_BREP_SHAPE_REPRESENTATION('',(#575),#578);
#580=APPLICATION_CONTEXT('managed model based 3d engineering');
#581=PRODUCT_CONTEXT('',#580,'mechanical');
#582=PRODUCT('model','model','',(#581));
#583=PRODUCT_DEFINITION_FORMATION('1','',#582);
#584=PRODUCT_DEFINITION_CONTEXT('part definition',#580,'design');
#585=PRODUCT_DEFINITION('design','',#583,#584);
#586=PRODUCT_DEFINITION_SHAPE('','',#585);
#587=SHAPE_DEFINITION_REPRESENTATION(#586,#579);
ENDSEC;
END-ISO-10303-21;
