ISO-10303-21;
HEADER;
FILE_DESCRIPTION(('OpenSCAD Viewer retained AP242 B-rep'),'2;1');
FILE_NAME('model.step','',(''),(''),'OpenSCAD Viewer','OpenSCAD Viewer','');
FILE_SCHEMA(('AP242_MANAGED_MODEL_BASED_3D_ENGINEERING_MIM_LF'));
ENDSEC;
DATA;
#1=CARTESIAN_POINT('',(1.12500000000000000E0,7.50000000000000000E-1,0.00000000000000000E0));
#2=VERTEX_POINT('OSCAD_TOPO/3|vertex|v:36ec018d6debff469308f1d0bd3e6bbc|68b346f28c31dfd1d80099a55e07a76f5793730c9fbcc5b83cf8e2e0a913f4cf',#1);
#3=CARTESIAN_POINT('',(-8.75000000000000000E-1,7.50000000000000000E-1,0.00000000000000000E0));
#4=VERTEX_POINT('OSCAD_TOPO/3|vertex|v:d823e1d4e0493f9f5e754dc0b02207e9|ffa49c0e73f401978647edfa67ac25878ab108396c4f221488b12d922b19b3de',#3);
#5=CARTESIAN_POINT('',(-8.75000000000000000E-1,-2.50000000000000000E-1,0.00000000000000000E0));
#6=VERTEX_POINT('OSCAD_TOPO/3|vertex|v:8faba890d133aac003087292915bd713|16bcc391b74e0ce2ce9fe8d6357fd37ecd57b7450be7734b662e6cd9c2f3dc49',#5);
#7=CARTESIAN_POINT('',(1.12500000000000000E0,-2.50000000000000000E-1,0.00000000000000000E0));
#8=VERTEX_POINT('OSCAD_TOPO/3|vertex|v:4ab1806a33a9cfa17207f96149e31e30|77a9705d7ca320352221ccd9003855c3940b7c03a8885bfda7c8a9c851f715f2',#7);
#9=CARTESIAN_POINT('',(3.75000000000000000E-1,3.75000000000000000E-1,0.00000000000000000E0));
#10=VERTEX_POINT('OSCAD_TOPO/3|vertex|v:316fc258ca9e1322ced3bd247d312a8b|f20490d8946b4f4299b00a8eaa61d0ff4a0c855aed561c78a212f12ee7577dc7',#9);
#11=CARTESIAN_POINT('',(3.75000000000000000E-1,1.25000000000000000E-1,0.00000000000000000E0));
#12=VERTEX_POINT('OSCAD_TOPO/3|vertex|v:dd218fe35a58d35c5f94b85b5b171222|f513119eef9c20d051fffd51b36f4b571d726d4f9518695b0508a78aa4022336',#11);
#13=CARTESIAN_POINT('',(-1.25000000000000000E-1,1.25000000000000000E-1,0.00000000000000000E0));
#14=VERTEX_POINT('OSCAD_TOPO/3|vertex|v:d5ad8e782cbda78d564317654eee4561|718d31a7c41cab39758cc2d5cbda74e58ba3a8c67c395fbb2d96ee39ac6155d7',#13);
#15=CARTESIAN_POINT('',(-1.25000000000000000E-1,3.75000000000000000E-1,0.00000000000000000E0));
#16=VERTEX_POINT('OSCAD_TOPO/3|vertex|v:66abde85f0d70a2c2accb437c6b69be4|7196db3dacb7ecb77ed4ef2b351c680081bd1742720d6dd5bca424276b20571c',#15);
#17=CARTESIAN_POINT('',(1.12500000000000000E0,7.50000000000000000E-1,1.00000000000000000E1));
#18=VERTEX_POINT('OSCAD_TOPO/3|vertex|v:c77843ea48d7d77b8a4995489946bbd8|4ff67b6b7c1842abb8224145393dbcbad5772c51dbebefa831ef57b25d26c52f',#17);
#19=CARTESIAN_POINT('',(-8.75000000000000000E-1,7.50000000000000000E-1,1.00000000000000000E1));
#20=VERTEX_POINT('OSCAD_TOPO/3|vertex|v:dd4f8b9e932a11d84b843f91abecdd76|c6d515863bbe266e39a691757f41eb3626291cd00f67a08844052c25232c06df',#19);
#21=CARTESIAN_POINT('',(-8.75000000000000000E-1,-2.50000000000000000E-1,1.00000000000000000E1));
#22=VERTEX_POINT('OSCAD_TOPO/3|vertex|v:04b666cb6b825e56f62abf132bd1480a|551dfe23f1e1a2e2ca67f6d5500257c27d62c2822b3fb9eb402fdbbf0e6cd81a',#21);
#23=CARTESIAN_POINT('',(1.12500000000000000E0,-2.50000000000000000E-1,1.00000000000000000E1));
#24=VERTEX_POINT('OSCAD_TOPO/3|vertex|v:fc8026e5371e89d26e17e414c6b6716b|3ddef9608cc3d61ed1c6c588e124ee85951ee7ab13646173c29771fafdddee15',#23);
#25=CARTESIAN_POINT('',(3.75000000000000000E-1,3.75000000000000000E-1,1.00000000000000000E1));
#26=VERTEX_POINT('OSCAD_TOPO/3|vertex|v:f53ee61521df3879aba422746b5f45a8|a9d11ede618c0995e52a9e357b360270767eba05265298fe1204764596bf9ed3',#25);
#27=CARTESIAN_POINT('',(3.75000000000000000E-1,1.25000000000000000E-1,1.00000000000000000E1));
#28=VERTEX_POINT('OSCAD_TOPO/3|vertex|v:a64eb58f348a3d9a293470b9f589019f|3a555f170a7a93635c1e6c3dc89aa3808ca5d8925aef3a731c827be1fa92dc94',#27);
#29=CARTESIAN_POINT('',(-1.25000000000000000E-1,1.25000000000000000E-1,1.00000000000000000E1));
#30=VERTEX_POINT('OSCAD_TOPO/3|vertex|v:19ca9041ff3090ef84d2f4b27d400e94|44c19d8a82c0dfa33dcce7f92fb068713d57ac5be644626fe11c7b4632c6cb1a',#29);
#31=CARTESIAN_POINT('',(-1.25000000000000000E-1,3.75000000000000000E-1,1.00000000000000000E1));
#32=VERTEX_POINT('OSCAD_TOPO/3|vertex|v:53dd12edbcdf5d50f424cdc805e5af34|87d9d313ff12e20fa334744344bab5486e01a6f2ce64b13b42d8e0882c1eedfd',#31);
#33=CARTESIAN_POINT('',(1.12500000000000000E0,7.50000000000000000E-1,0.00000000000000000E0));
#34=CARTESIAN_POINT('',(1.12500000000000000E0,7.50000000000000000E-1,1.00000000000000000E1));
#35=CARTESIAN_POINT('',(1.25000000000000000E-1,1.25000000000000000E0,0.00000000000000000E0));
#36=CARTESIAN_POINT('',(1.25000000000000000E-1,1.25000000000000000E0,1.00000000000000000E1));
#37=CARTESIAN_POINT('',(-8.75000000000000000E-1,7.50000000000000000E-1,0.00000000000000000E0));
#38=CARTESIAN_POINT('',(-8.75000000000000000E-1,7.50000000000000000E-1,1.00000000000000000E1));
#39=B_SPLINE_SURFACE_WITH_KNOTS('',2,1,((#33,#34),(#35,#36),(#37,#38)),.UNSPECIFIED.,.F.,.F.,.F.,(3,3),(2,2),(0.00000000000000000E0,1.00000000000000000E0),(0.00000000000000000E0,1.00000000000000000E0),.UNSPECIFIED.);
#40=CARTESIAN_POINT('',(-8.75000000000000000E-1,7.50000000000000000E-1,0.00000000000000000E0));
#41=CARTESIAN_POINT('',(-8.75000000000000000E-1,7.50000000000000000E-1,1.00000000000000000E1));
#42=CARTESIAN_POINT('',(-1.87500000000000000E0,2.50000000000000000E-1,0.00000000000000000E0));
#43=CARTESIAN_POINT('',(-1.87500000000000000E0,2.50000000000000000E-1,1.00000000000000000E1));
#44=CARTESIAN_POINT('',(-8.75000000000000000E-1,-2.50000000000000000E-1,0.00000000000000000E0));
#45=CARTESIAN_POINT('',(-8.75000000000000000E-1,-2.50000000000000000E-1,1.00000000000000000E1));
#46=B_SPLINE_SURFACE_WITH_KNOTS('',2,1,((#40,#41),(#42,#43),(#44,#45)),.UNSPECIFIED.,.F.,.F.,.F.,(3,3),(2,2),(0.00000000000000000E0,1.00000000000000000E0),(0.00000000000000000E0,1.00000000000000000E0),.UNSPECIFIED.);
#47=CARTESIAN_POINT('',(-8.75000000000000000E-1,-2.50000000000000000E-1,0.00000000000000000E0));
#48=CARTESIAN_POINT('',(-8.75000000000000000E-1,-2.50000000000000000E-1,1.00000000000000000E1));
#49=CARTESIAN_POINT('',(1.25000000000000000E-1,-7.50000000000000000E-1,0.00000000000000000E0));
#50=CARTESIAN_POINT('',(1.25000000000000000E-1,-7.50000000000000000E-1,1.00000000000000000E1));
#51=CARTESIAN_POINT('',(1.12500000000000000E0,-2.50000000000000000E-1,0.00000000000000000E0));
#52=CARTESIAN_POINT('',(1.12500000000000000E0,-2.50000000000000000E-1,1.00000000000000000E1));
#53=B_SPLINE_SURFACE_WITH_KNOTS('',2,1,((#47,#48),(#49,#50),(#51,#52)),.UNSPECIFIED.,.F.,.F.,.F.,(3,3),(2,2),(0.00000000000000000E0,1.00000000000000000E0),(0.00000000000000000E0,1.00000000000000000E0),.UNSPECIFIED.);
#54=CARTESIAN_POINT('',(1.12500000000000000E0,-2.50000000000000000E-1,0.00000000000000000E0));
#55=CARTESIAN_POINT('',(1.12500000000000000E0,-2.50000000000000000E-1,1.00000000000000000E1));
#56=CARTESIAN_POINT('',(2.12500000000000000E0,2.50000000000000000E-1,0.00000000000000000E0));
#57=CARTESIAN_POINT('',(2.12500000000000000E0,2.50000000000000000E-1,1.00000000000000000E1));
#58=CARTESIAN_POINT('',(1.12500000000000000E0,7.50000000000000000E-1,0.00000000000000000E0));
#59=CARTESIAN_POINT('',(1.12500000000000000E0,7.50000000000000000E-1,1.00000000000000000E1));
#60=B_SPLINE_SURFACE_WITH_KNOTS('',2,1,((#54,#55),(#56,#57),(#58,#59)),.UNSPECIFIED.,.F.,.F.,.F.,(3,3),(2,2),(0.00000000000000000E0,1.00000000000000000E0),(0.00000000000000000E0,1.00000000000000000E0),.UNSPECIFIED.);
#61=CARTESIAN_POINT('',(3.75000000000000000E-1,3.75000000000000000E-1,0.00000000000000000E0));
#62=CARTESIAN_POINT('',(3.75000000000000000E-1,3.75000000000000000E-1,1.00000000000000000E1));
#63=CARTESIAN_POINT('',(6.25000000000000000E-1,2.50000000000000000E-1,0.00000000000000000E0));
#64=CARTESIAN_POINT('',(6.25000000000000000E-1,2.50000000000000000E-1,1.00000000000000000E1));
#65=CARTESIAN_POINT('',(3.75000000000000000E-1,1.25000000000000000E-1,0.00000000000000000E0));
#66=CARTESIAN_POINT('',(3.75000000000000000E-1,1.25000000000000000E-1,1.00000000000000000E1));
#67=B_SPLINE_SURFACE_WITH_KNOTS('',2,1,((#61,#62),(#63,#64),(#65,#66)),.UNSPECIFIED.,.F.,.F.,.F.,(3,3),(2,2),(0.00000000000000000E0,1.00000000000000000E0),(0.00000000000000000E0,1.00000000000000000E0),.UNSPECIFIED.);
#68=CARTESIAN_POINT('',(3.75000000000000000E-1,1.25000000000000000E-1,0.00000000000000000E0));
#69=CARTESIAN_POINT('',(3.75000000000000000E-1,1.25000000000000000E-1,1.00000000000000000E1));
#70=CARTESIAN_POINT('',(1.25000000000000000E-1,0.00000000000000000E0,0.00000000000000000E0));
#71=CARTESIAN_POINT('',(1.25000000000000000E-1,0.00000000000000000E0,1.00000000000000000E1));
#72=CARTESIAN_POINT('',(-1.25000000000000000E-1,1.25000000000000000E-1,0.00000000000000000E0));
#73=CARTESIAN_POINT('',(-1.25000000000000000E-1,1.25000000000000000E-1,1.00000000000000000E1));
#74=B_SPLINE_SURFACE_WITH_KNOTS('',2,1,((#68,#69),(#70,#71),(#72,#73)),.UNSPECIFIED.,.F.,.F.,.F.,(3,3),(2,2),(0.00000000000000000E0,1.00000000000000000E0),(0.00000000000000000E0,1.00000000000000000E0),.UNSPECIFIED.);
#75=CARTESIAN_POINT('',(-1.25000000000000000E-1,1.25000000000000000E-1,0.00000000000000000E0));
#76=CARTESIAN_POINT('',(-1.25000000000000000E-1,1.25000000000000000E-1,1.00000000000000000E1));
#77=CARTESIAN_POINT('',(-3.75000000000000000E-1,2.50000000000000000E-1,0.00000000000000000E0));
#78=CARTESIAN_POINT('',(-3.75000000000000000E-1,2.50000000000000000E-1,1.00000000000000000E1));
#79=CARTESIAN_POINT('',(-1.25000000000000000E-1,3.75000000000000000E-1,0.00000000000000000E0));
#80=CARTESIAN_POINT('',(-1.25000000000000000E-1,3.75000000000000000E-1,1.00000000000000000E1));
#81=B_SPLINE_SURFACE_WITH_KNOTS('',2,1,((#75,#76),(#77,#78),(#79,#80)),.UNSPECIFIED.,.F.,.F.,.F.,(3,3),(2,2),(0.00000000000000000E0,1.00000000000000000E0),(0.00000000000000000E0,1.00000000000000000E0),.UNSPECIFIED.);
#82=CARTESIAN_POINT('',(-1.25000000000000000E-1,3.75000000000000000E-1,0.00000000000000000E0));
#83=CARTESIAN_POINT('',(-1.25000000000000000E-1,3.75000000000000000E-1,1.00000000000000000E1));
#84=CARTESIAN_POINT('',(1.25000000000000000E-1,5.00000000000000000E-1,0.00000000000000000E0));
#85=CARTESIAN_POINT('',(1.25000000000000000E-1,5.00000000000000000E-1,1.00000000000000000E1));
#86=CARTESIAN_POINT('',(3.75000000000000000E-1,3.75000000000000000E-1,0.00000000000000000E0));
#87=CARTESIAN_POINT('',(3.75000000000000000E-1,3.75000000000000000E-1,1.00000000000000000E1));
#88=B_SPLINE_SURFACE_WITH_KNOTS('',2,1,((#82,#83),(#84,#85),(#86,#87)),.UNSPECIFIED.,.F.,.F.,.F.,(3,3),(2,2),(0.00000000000000000E0,1.00000000000000000E0),(0.00000000000000000E0,1.00000000000000000E0),.UNSPECIFIED.);
#89=CARTESIAN_POINT('',(2.12500000000000000E0,-7.50000000000000000E-1,0.00000000000000000E0));
#90=CARTESIAN_POINT('',(2.12500000000000000E0,1.25000000000000000E0,0.00000000000000000E0));
#91=CARTESIAN_POINT('',(-1.87500000000000000E0,-7.50000000000000000E-1,0.00000000000000000E0));
#92=CARTESIAN_POINT('',(-1.87500000000000000E0,1.25000000000000000E0,0.00000000000000000E0));
#93=B_SPLINE_SURFACE_WITH_KNOTS('',1,1,((#89,#90),(#91,#92)),.UNSPECIFIED.,.F.,.F.,.F.,(2,2),(2,2),(-1.87500000000000000E0,2.12500000000000000E0),(-7.50000000000000000E-1,1.25000000000000000E0),.UNSPECIFIED.);
#94=CARTESIAN_POINT('',(-1.87500000000000000E0,-7.50000000000000000E-1,1.00000000000000000E1));
#95=CARTESIAN_POINT('',(-1.87500000000000000E0,1.25000000000000000E0,1.00000000000000000E1));
#96=CARTESIAN_POINT('',(2.12500000000000000E0,-7.50000000000000000E-1,1.00000000000000000E1));
#97=CARTESIAN_POINT('',(2.12500000000000000E0,1.25000000000000000E0,1.00000000000000000E1));
#98=B_SPLINE_SURFACE_WITH_KNOTS('',1,1,((#94,#95),(#96,#97)),.UNSPECIFIED.,.F.,.F.,.F.,(2,2),(2,2),(-1.87500000000000000E0,2.12500000000000000E0),(-7.50000000000000000E-1,1.25000000000000000E0),.UNSPECIFIED.);
#99=CARTESIAN_POINT('',(1.12500000000000000E0,7.50000000000000000E-1,0.00000000000000000E0));
#100=CARTESIAN_POINT('',(1.25000000000000000E-1,1.25000000000000000E0,0.00000000000000000E0));
#101=CARTESIAN_POINT('',(-8.75000000000000000E-1,7.50000000000000000E-1,0.00000000000000000E0));
#102=B_SPLINE_CURVE_WITH_KNOTS('',2,(#99,#100,#101),.UNSPECIFIED.,.F.,.F.,(3,3),(0.00000000000000000E0,1.00000000000000000E0),.UNSPECIFIED.);
#103=CARTESIAN_POINT('',(-8.75000000000000000E-1,7.50000000000000000E-1,0.00000000000000000E0));
#104=CARTESIAN_POINT('',(-8.75000000000000000E-1,7.50000000000000000E-1,1.00000000000000000E1));
#105=B_SPLINE_CURVE_WITH_KNOTS('',1,(#103,#104),.UNSPECIFIED.,.F.,.F.,(2,2),(0.00000000000000000E0,1.00000000000000000E0),.UNSPECIFIED.);
#106=CARTESIAN_POINT('',(1.12500000000000000E0,7.50000000000000000E-1,1.00000000000000000E1));
#107=CARTESIAN_POINT('',(1.25000000000000000E-1,1.25000000000000000E0,1.00000000000000000E1));
#108=CARTESIAN_POINT('',(-8.75000000000000000E-1,7.50000000000000000E-1,1.00000000000000000E1));
#109=B_SPLINE_CURVE_WITH_KNOTS('',2,(#106,#107,#108),.UNSPECIFIED.,.F.,.F.,(3,3),(0.00000000000000000E0,1.00000000000000000E0),.UNSPECIFIED.);
#110=CARTESIAN_POINT('',(1.12500000000000000E0,7.50000000000000000E-1,0.00000000000000000E0));
#111=CARTESIAN_POINT('',(1.12500000000000000E0,7.50000000000000000E-1,1.00000000000000000E1));
#112=B_SPLINE_CURVE_WITH_KNOTS('',1,(#110,#111),.UNSPECIFIED.,.F.,.F.,(2,2),(0.00000000000000000E0,1.00000000000000000E0),.UNSPECIFIED.);
#113=CARTESIAN_POINT('',(-8.75000000000000000E-1,7.50000000000000000E-1,0.00000000000000000E0));
#114=CARTESIAN_POINT('',(-1.87500000000000000E0,2.50000000000000000E-1,0.00000000000000000E0));
#115=CARTESIAN_POINT('',(-8.75000000000000000E-1,-2.50000000000000000E-1,0.00000000000000000E0));
#116=B_SPLINE_CURVE_WITH_KNOTS('',2,(#113,#114,#115),.UNSPECIFIED.,.F.,.F.,(3,3),(0.00000000000000000E0,1.00000000000000000E0),.UNSPECIFIED.);
#117=CARTESIAN_POINT('',(-8.75000000000000000E-1,-2.50000000000000000E-1,0.00000000000000000E0));
#118=CARTESIAN_POINT('',(-8.75000000000000000E-1,-2.50000000000000000E-1,1.00000000000000000E1));
#119=B_SPLINE_CURVE_WITH_KNOTS('',1,(#117,#118),.UNSPECIFIED.,.F.,.F.,(2,2),(0.00000000000000000E0,1.00000000000000000E0),.UNSPECIFIED.);
#120=CARTESIAN_POINT('',(-8.75000000000000000E-1,7.50000000000000000E-1,1.00000000000000000E1));
#121=CARTESIAN_POINT('',(-1.87500000000000000E0,2.50000000000000000E-1,1.00000000000000000E1));
#122=CARTESIAN_POINT('',(-8.75000000000000000E-1,-2.50000000000000000E-1,1.00000000000000000E1));
#123=B_SPLINE_CURVE_WITH_KNOTS('',2,(#120,#121,#122),.UNSPECIFIED.,.F.,.F.,(3,3),(0.00000000000000000E0,1.00000000000000000E0),.UNSPECIFIED.);
#124=CARTESIAN_POINT('',(-8.75000000000000000E-1,-2.50000000000000000E-1,0.00000000000000000E0));
#125=CARTESIAN_POINT('',(1.25000000000000000E-1,-7.50000000000000000E-1,0.00000000000000000E0));
#126=CARTESIAN_POINT('',(1.12500000000000000E0,-2.50000000000000000E-1,0.00000000000000000E0));
#127=B_SPLINE_CURVE_WITH_KNOTS('',2,(#124,#125,#126),.UNSPECIFIED.,.F.,.F.,(3,3),(0.00000000000000000E0,1.00000000000000000E0),.UNSPECIFIED.);
#128=CARTESIAN_POINT('',(1.12500000000000000E0,-2.50000000000000000E-1,0.00000000000000000E0));
#129=CARTESIAN_POINT('',(1.12500000000000000E0,-2.50000000000000000E-1,1.00000000000000000E1));
#130=B_SPLINE_CURVE_WITH_KNOTS('',1,(#128,#129),.UNSPECIFIED.,.F.,.F.,(2,2),(0.00000000000000000E0,1.00000000000000000E0),.UNSPECIFIED.);
#131=CARTESIAN_POINT('',(-8.75000000000000000E-1,-2.50000000000000000E-1,1.00000000000000000E1));
#132=CARTESIAN_POINT('',(1.25000000000000000E-1,-7.50000000000000000E-1,1.00000000000000000E1));
#133=CARTESIAN_POINT('',(1.12500000000000000E0,-2.50000000000000000E-1,1.00000000000000000E1));
#134=B_SPLINE_CURVE_WITH_KNOTS('',2,(#131,#132,#133),.UNSPECIFIED.,.F.,.F.,(3,3),(0.00000000000000000E0,1.00000000000000000E0),.UNSPECIFIED.);
#135=CARTESIAN_POINT('',(1.12500000000000000E0,7.50000000000000000E-1,0.00000000000000000E0));
#136=CARTESIAN_POINT('',(2.12500000000000000E0,2.50000000000000000E-1,0.00000000000000000E0));
#137=CARTESIAN_POINT('',(1.12500000000000000E0,-2.50000000000000000E-1,0.00000000000000000E0));
#138=B_SPLINE_CURVE_WITH_KNOTS('',2,(#135,#136,#137),.UNSPECIFIED.,.F.,.F.,(3,3),(0.00000000000000000E0,1.00000000000000000E0),.UNSPECIFIED.);
#139=CARTESIAN_POINT('',(1.12500000000000000E0,7.50000000000000000E-1,1.00000000000000000E1));
#140=CARTESIAN_POINT('',(2.12500000000000000E0,2.50000000000000000E-1,1.00000000000000000E1));
#141=CARTESIAN_POINT('',(1.12500000000000000E0,-2.50000000000000000E-1,1.00000000000000000E1));
#142=B_SPLINE_CURVE_WITH_KNOTS('',2,(#139,#140,#141),.UNSPECIFIED.,.F.,.F.,(3,3),(0.00000000000000000E0,1.00000000000000000E0),.UNSPECIFIED.);
#143=CARTESIAN_POINT('',(3.75000000000000000E-1,3.75000000000000000E-1,0.00000000000000000E0));
#144=CARTESIAN_POINT('',(6.25000000000000000E-1,2.50000000000000000E-1,0.00000000000000000E0));
#145=CARTESIAN_POINT('',(3.75000000000000000E-1,1.25000000000000000E-1,0.00000000000000000E0));
#146=B_SPLINE_CURVE_WITH_KNOTS('',2,(#143,#144,#145),.UNSPECIFIED.,.F.,.F.,(3,3),(0.00000000000000000E0,1.00000000000000000E0),.UNSPECIFIED.);
#147=CARTESIAN_POINT('',(3.75000000000000000E-1,1.25000000000000000E-1,0.00000000000000000E0));
#148=CARTESIAN_POINT('',(3.75000000000000000E-1,1.25000000000000000E-1,1.00000000000000000E1));
#149=B_SPLINE_CURVE_WITH_KNOTS('',1,(#147,#148),.UNSPECIFIED.,.F.,.F.,(2,2),(0.00000000000000000E0,1.00000000000000000E0),.UNSPECIFIED.);
#150=CARTESIAN_POINT('',(3.75000000000000000E-1,3.75000000000000000E-1,1.00000000000000000E1));
#151=CARTESIAN_POINT('',(6.25000000000000000E-1,2.50000000000000000E-1,1.00000000000000000E1));
#152=CARTESIAN_POINT('',(3.75000000000000000E-1,1.25000000000000000E-1,1.00000000000000000E1));
#153=B_SPLINE_CURVE_WITH_KNOTS('',2,(#150,#151,#152),.UNSPECIFIED.,.F.,.F.,(3,3),(0.00000000000000000E0,1.00000000000000000E0),.UNSPECIFIED.);
#154=CARTESIAN_POINT('',(3.75000000000000000E-1,3.75000000000000000E-1,0.00000000000000000E0));
#155=CARTESIAN_POINT('',(3.75000000000000000E-1,3.75000000000000000E-1,1.00000000000000000E1));
#156=B_SPLINE_CURVE_WITH_KNOTS('',1,(#154,#155),.UNSPECIFIED.,.F.,.F.,(2,2),(0.00000000000000000E0,1.00000000000000000E0),.UNSPECIFIED.);
#157=CARTESIAN_POINT('',(3.75000000000000000E-1,1.25000000000000000E-1,0.00000000000000000E0));
#158=CARTESIAN_POINT('',(1.25000000000000000E-1,0.00000000000000000E0,0.00000000000000000E0));
#159=CARTESIAN_POINT('',(-1.25000000000000000E-1,1.25000000000000000E-1,0.00000000000000000E0));
#160=B_SPLINE_CURVE_WITH_KNOTS('',2,(#157,#158,#159),.UNSPECIFIED.,.F.,.F.,(3,3),(0.00000000000000000E0,1.00000000000000000E0),.UNSPECIFIED.);
#161=CARTESIAN_POINT('',(-1.25000000000000000E-1,1.25000000000000000E-1,0.00000000000000000E0));
#162=CARTESIAN_POINT('',(-1.25000000000000000E-1,1.25000000000000000E-1,1.00000000000000000E1));
#163=B_SPLINE_CURVE_WITH_KNOTS('',1,(#161,#162),.UNSPECIFIED.,.F.,.F.,(2,2),(0.00000000000000000E0,1.00000000000000000E0),.UNSPECIFIED.);
#164=CARTESIAN_POINT('',(3.75000000000000000E-1,1.25000000000000000E-1,1.00000000000000000E1));
#165=CARTESIAN_POINT('',(1.25000000000000000E-1,0.00000000000000000E0,1.00000000000000000E1));
#166=CARTESIAN_POINT('',(-1.25000000000000000E-1,1.25000000000000000E-1,1.00000000000000000E1));
#167=B_SPLINE_CURVE_WITH_KNOTS('',2,(#164,#165,#166),.UNSPECIFIED.,.F.,.F.,(3,3),(0.00000000000000000E0,1.00000000000000000E0),.UNSPECIFIED.);
#168=CARTESIAN_POINT('',(-1.25000000000000000E-1,1.25000000000000000E-1,0.00000000000000000E0));
#169=CARTESIAN_POINT('',(-3.75000000000000000E-1,2.50000000000000000E-1,0.00000000000000000E0));
#170=CARTESIAN_POINT('',(-1.25000000000000000E-1,3.75000000000000000E-1,0.00000000000000000E0));
#171=B_SPLINE_CURVE_WITH_KNOTS('',2,(#168,#169,#170),.UNSPECIFIED.,.F.,.F.,(3,3),(0.00000000000000000E0,1.00000000000000000E0),.UNSPECIFIED.);
#172=CARTESIAN_POINT('',(-1.25000000000000000E-1,3.75000000000000000E-1,0.00000000000000000E0));
#173=CARTESIAN_POINT('',(-1.25000000000000000E-1,3.75000000000000000E-1,1.00000000000000000E1));
#174=B_SPLINE_CURVE_WITH_KNOTS('',1,(#172,#173),.UNSPECIFIED.,.F.,.F.,(2,2),(0.00000000000000000E0,1.00000000000000000E0),.UNSPECIFIED.);
#175=CARTESIAN_POINT('',(-1.25000000000000000E-1,1.25000000000000000E-1,1.00000000000000000E1));
#176=CARTESIAN_POINT('',(-3.75000000000000000E-1,2.50000000000000000E-1,1.00000000000000000E1));
#177=CARTESIAN_POINT('',(-1.25000000000000000E-1,3.75000000000000000E-1,1.00000000000000000E1));
#178=B_SPLINE_CURVE_WITH_KNOTS('',2,(#175,#176,#177),.UNSPECIFIED.,.F.,.F.,(3,3),(0.00000000000000000E0,1.00000000000000000E0),.UNSPECIFIED.);
#179=CARTESIAN_POINT('',(3.75000000000000000E-1,3.75000000000000000E-1,0.00000000000000000E0));
#180=CARTESIAN_POINT('',(1.25000000000000000E-1,5.00000000000000000E-1,0.00000000000000000E0));
#181=CARTESIAN_POINT('',(-1.25000000000000000E-1,3.75000000000000000E-1,0.00000000000000000E0));
#182=B_SPLINE_CURVE_WITH_KNOTS('',2,(#179,#180,#181),.UNSPECIFIED.,.F.,.F.,(3,3),(0.00000000000000000E0,1.00000000000000000E0),.UNSPECIFIED.);
#183=CARTESIAN_POINT('',(3.75000000000000000E-1,3.75000000000000000E-1,1.00000000000000000E1));
#184=CARTESIAN_POINT('',(1.25000000000000000E-1,5.00000000000000000E-1,1.00000000000000000E1));
#185=CARTESIAN_POINT('',(-1.25000000000000000E-1,3.75000000000000000E-1,1.00000000000000000E1));
#186=B_SPLINE_CURVE_WITH_KNOTS('',2,(#183,#184,#185),.UNSPECIFIED.,.F.,.F.,(3,3),(0.00000000000000000E0,1.00000000000000000E0),.UNSPECIFIED.);
#187=(GEOMETRIC_REPRESENTATION_CONTEXT(2)REPRESENTATION_CONTEXT('','2D'));
#188=CARTESIAN_POINT('',(0.00000000000000000E0,0.00000000000000000E0));
#189=CARTESIAN_POINT('',(1.00000000000000000E0,0.00000000000000000E0));
#190=B_SPLINE_CURVE_WITH_KNOTS('',1,(#188,#189),.UNSPECIFIED.,.F.,.F.,(2,2),(0.00000000000000000E0,1.00000000000000000E0),.UNSPECIFIED.);
#191=DEFINITIONAL_REPRESENTATION('',(#190),#187);
#192=PCURVE('',#39,#191);
#193=CARTESIAN_POINT('',(1.00000000000000000E0,0.00000000000000000E0));
#194=CARTESIAN_POINT('',(1.00000000000000000E0,1.00000000000000000E0));
#195=B_SPLINE_CURVE_WITH_KNOTS('',1,(#193,#194),.UNSPECIFIED.,.F.,.F.,(2,2),(0.00000000000000000E0,1.00000000000000000E0),.UNSPECIFIED.);
#196=DEFINITIONAL_REPRESENTATION('',(#195),#187);
#197=PCURVE('',#39,#196);
#198=CARTESIAN_POINT('',(1.00000000000000000E0,1.00000000000000000E0));
#199=CARTESIAN_POINT('',(0.00000000000000000E0,1.00000000000000000E0));
#200=B_SPLINE_CURVE_WITH_KNOTS('',1,(#198,#199),.UNSPECIFIED.,.F.,.F.,(2,2),(0.00000000000000000E0,1.00000000000000000E0),.UNSPECIFIED.);
#201=DEFINITIONAL_REPRESENTATION('',(#200),#187);
#202=PCURVE('',#39,#201);
#203=CARTESIAN_POINT('',(0.00000000000000000E0,1.00000000000000000E0));
#204=CARTESIAN_POINT('',(0.00000000000000000E0,0.00000000000000000E0));
#205=B_SPLINE_CURVE_WITH_KNOTS('',1,(#203,#204),.UNSPECIFIED.,.F.,.F.,(2,2),(0.00000000000000000E0,1.00000000000000000E0),.UNSPECIFIED.);
#206=DEFINITIONAL_REPRESENTATION('',(#205),#187);
#207=PCURVE('',#39,#206);
#208=CARTESIAN_POINT('',(0.00000000000000000E0,0.00000000000000000E0));
#209=CARTESIAN_POINT('',(1.00000000000000000E0,0.00000000000000000E0));
#210=B_SPLINE_CURVE_WITH_KNOTS('',1,(#208,#209),.UNSPECIFIED.,.F.,.F.,(2,2),(0.00000000000000000E0,1.00000000000000000E0),.UNSPECIFIED.);
#211=DEFINITIONAL_REPRESENTATION('',(#210),#187);
#212=PCURVE('',#46,#211);
#213=CARTESIAN_POINT('',(1.00000000000000000E0,0.00000000000000000E0));
#214=CARTESIAN_POINT('',(1.00000000000000000E0,1.00000000000000000E0));
#215=B_SPLINE_CURVE_WITH_KNOTS('',1,(#213,#214),.UNSPECIFIED.,.F.,.F.,(2,2),(0.00000000000000000E0,1.00000000000000000E0),.UNSPECIFIED.);
#216=DEFINITIONAL_REPRESENTATION('',(#215),#187);
#217=PCURVE('',#46,#216);
#218=CARTESIAN_POINT('',(1.00000000000000000E0,1.00000000000000000E0));
#219=CARTESIAN_POINT('',(0.00000000000000000E0,1.00000000000000000E0));
#220=B_SPLINE_CURVE_WITH_KNOTS('',1,(#218,#219),.UNSPECIFIED.,.F.,.F.,(2,2),(0.00000000000000000E0,1.00000000000000000E0),.UNSPECIFIED.);
#221=DEFINITIONAL_REPRESENTATION('',(#220),#187);
#222=PCURVE('',#46,#221);
#223=CARTESIAN_POINT('',(0.00000000000000000E0,1.00000000000000000E0));
#224=CARTESIAN_POINT('',(0.00000000000000000E0,0.00000000000000000E0));
#225=B_SPLINE_CURVE_WITH_KNOTS('',1,(#223,#224),.UNSPECIFIED.,.F.,.F.,(2,2),(0.00000000000000000E0,1.00000000000000000E0),.UNSPECIFIED.);
#226=DEFINITIONAL_REPRESENTATION('',(#225),#187);
#227=PCURVE('',#46,#226);
#228=CARTESIAN_POINT('',(0.00000000000000000E0,0.00000000000000000E0));
#229=CARTESIAN_POINT('',(1.00000000000000000E0,0.00000000000000000E0));
#230=B_SPLINE_CURVE_WITH_KNOTS('',1,(#228,#229),.UNSPECIFIED.,.F.,.F.,(2,2),(0.00000000000000000E0,1.00000000000000000E0),.UNSPECIFIED.);
#231=DEFINITIONAL_REPRESENTATION('',(#230),#187);
#232=PCURVE('',#53,#231);
#233=CARTESIAN_POINT('',(1.00000000000000000E0,0.00000000000000000E0));
#234=CARTESIAN_POINT('',(1.00000000000000000E0,1.00000000000000000E0));
#235=B_SPLINE_CURVE_WITH_KNOTS('',1,(#233,#234),.UNSPECIFIED.,.F.,.F.,(2,2),(0.00000000000000000E0,1.00000000000000000E0),.UNSPECIFIED.);
#236=DEFINITIONAL_REPRESENTATION('',(#235),#187);
#237=PCURVE('',#53,#236);
#238=CARTESIAN_POINT('',(1.00000000000000000E0,1.00000000000000000E0));
#239=CARTESIAN_POINT('',(0.00000000000000000E0,1.00000000000000000E0));
#240=B_SPLINE_CURVE_WITH_KNOTS('',1,(#238,#239),.UNSPECIFIED.,.F.,.F.,(2,2),(0.00000000000000000E0,1.00000000000000000E0),.UNSPECIFIED.);
#241=DEFINITIONAL_REPRESENTATION('',(#240),#187);
#242=PCURVE('',#53,#241);
#243=CARTESIAN_POINT('',(0.00000000000000000E0,1.00000000000000000E0));
#244=CARTESIAN_POINT('',(0.00000000000000000E0,0.00000000000000000E0));
#245=B_SPLINE_CURVE_WITH_KNOTS('',1,(#243,#244),.UNSPECIFIED.,.F.,.F.,(2,2),(0.00000000000000000E0,1.00000000000000000E0),.UNSPECIFIED.);
#246=DEFINITIONAL_REPRESENTATION('',(#245),#187);
#247=PCURVE('',#53,#246);
#248=CARTESIAN_POINT('',(0.00000000000000000E0,0.00000000000000000E0));
#249=CARTESIAN_POINT('',(1.00000000000000000E0,0.00000000000000000E0));
#250=B_SPLINE_CURVE_WITH_KNOTS('',1,(#248,#249),.UNSPECIFIED.,.F.,.F.,(2,2),(0.00000000000000000E0,1.00000000000000000E0),.UNSPECIFIED.);
#251=DEFINITIONAL_REPRESENTATION('',(#250),#187);
#252=PCURVE('',#60,#251);
#253=CARTESIAN_POINT('',(1.00000000000000000E0,0.00000000000000000E0));
#254=CARTESIAN_POINT('',(1.00000000000000000E0,1.00000000000000000E0));
#255=B_SPLINE_CURVE_WITH_KNOTS('',1,(#253,#254),.UNSPECIFIED.,.F.,.F.,(2,2),(0.00000000000000000E0,1.00000000000000000E0),.UNSPECIFIED.);
#256=DEFINITIONAL_REPRESENTATION('',(#255),#187);
#257=PCURVE('',#60,#256);
#258=CARTESIAN_POINT('',(1.00000000000000000E0,1.00000000000000000E0));
#259=CARTESIAN_POINT('',(0.00000000000000000E0,1.00000000000000000E0));
#260=B_SPLINE_CURVE_WITH_KNOTS('',1,(#258,#259),.UNSPECIFIED.,.F.,.F.,(2,2),(0.00000000000000000E0,1.00000000000000000E0),.UNSPECIFIED.);
#261=DEFINITIONAL_REPRESENTATION('',(#260),#187);
#262=PCURVE('',#60,#261);
#263=CARTESIAN_POINT('',(0.00000000000000000E0,1.00000000000000000E0));
#264=CARTESIAN_POINT('',(0.00000000000000000E0,0.00000000000000000E0));
#265=B_SPLINE_CURVE_WITH_KNOTS('',1,(#263,#264),.UNSPECIFIED.,.F.,.F.,(2,2),(0.00000000000000000E0,1.00000000000000000E0),.UNSPECIFIED.);
#266=DEFINITIONAL_REPRESENTATION('',(#265),#187);
#267=PCURVE('',#60,#266);
#268=CARTESIAN_POINT('',(0.00000000000000000E0,0.00000000000000000E0));
#269=CARTESIAN_POINT('',(1.00000000000000000E0,0.00000000000000000E0));
#270=B_SPLINE_CURVE_WITH_KNOTS('',1,(#268,#269),.UNSPECIFIED.,.F.,.F.,(2,2),(0.00000000000000000E0,1.00000000000000000E0),.UNSPECIFIED.);
#271=DEFINITIONAL_REPRESENTATION('',(#270),#187);
#272=PCURVE('',#67,#271);
#273=CARTESIAN_POINT('',(1.00000000000000000E0,0.00000000000000000E0));
#274=CARTESIAN_POINT('',(1.00000000000000000E0,1.00000000000000000E0));
#275=B_SPLINE_CURVE_WITH_KNOTS('',1,(#273,#274),.UNSPECIFIED.,.F.,.F.,(2,2),(0.00000000000000000E0,1.00000000000000000E0),.UNSPECIFIED.);
#276=DEFINITIONAL_REPRESENTATION('',(#275),#187);
#277=PCURVE('',#67,#276);
#278=CARTESIAN_POINT('',(1.00000000000000000E0,1.00000000000000000E0));
#279=CARTESIAN_POINT('',(0.00000000000000000E0,1.00000000000000000E0));
#280=B_SPLINE_CURVE_WITH_KNOTS('',1,(#278,#279),.UNSPECIFIED.,.F.,.F.,(2,2),(0.00000000000000000E0,1.00000000000000000E0),.UNSPECIFIED.);
#281=DEFINITIONAL_REPRESENTATION('',(#280),#187);
#282=PCURVE('',#67,#281);
#283=CARTESIAN_POINT('',(0.00000000000000000E0,1.00000000000000000E0));
#284=CARTESIAN_POINT('',(0.00000000000000000E0,0.00000000000000000E0));
#285=B_SPLINE_CURVE_WITH_KNOTS('',1,(#283,#284),.UNSPECIFIED.,.F.,.F.,(2,2),(0.00000000000000000E0,1.00000000000000000E0),.UNSPECIFIED.);
#286=DEFINITIONAL_REPRESENTATION('',(#285),#187);
#287=PCURVE('',#67,#286);
#288=CARTESIAN_POINT('',(0.00000000000000000E0,0.00000000000000000E0));
#289=CARTESIAN_POINT('',(1.00000000000000000E0,0.00000000000000000E0));
#290=B_SPLINE_CURVE_WITH_KNOTS('',1,(#288,#289),.UNSPECIFIED.,.F.,.F.,(2,2),(0.00000000000000000E0,1.00000000000000000E0),.UNSPECIFIED.);
#291=DEFINITIONAL_REPRESENTATION('',(#290),#187);
#292=PCURVE('',#74,#291);
#293=CARTESIAN_POINT('',(1.00000000000000000E0,0.00000000000000000E0));
#294=CARTESIAN_POINT('',(1.00000000000000000E0,1.00000000000000000E0));
#295=B_SPLINE_CURVE_WITH_KNOTS('',1,(#293,#294),.UNSPECIFIED.,.F.,.F.,(2,2),(0.00000000000000000E0,1.00000000000000000E0),.UNSPECIFIED.);
#296=DEFINITIONAL_REPRESENTATION('',(#295),#187);
#297=PCURVE('',#74,#296);
#298=CARTESIAN_POINT('',(1.00000000000000000E0,1.00000000000000000E0));
#299=CARTESIAN_POINT('',(0.00000000000000000E0,1.00000000000000000E0));
#300=B_SPLINE_CURVE_WITH_KNOTS('',1,(#298,#299),.UNSPECIFIED.,.F.,.F.,(2,2),(0.00000000000000000E0,1.00000000000000000E0),.UNSPECIFIED.);
#301=DEFINITIONAL_REPRESENTATION('',(#300),#187);
#302=PCURVE('',#74,#301);
#303=CARTESIAN_POINT('',(0.00000000000000000E0,1.00000000000000000E0));
#304=CARTESIAN_POINT('',(0.00000000000000000E0,0.00000000000000000E0));
#305=B_SPLINE_CURVE_WITH_KNOTS('',1,(#303,#304),.UNSPECIFIED.,.F.,.F.,(2,2),(0.00000000000000000E0,1.00000000000000000E0),.UNSPECIFIED.);
#306=DEFINITIONAL_REPRESENTATION('',(#305),#187);
#307=PCURVE('',#74,#306);
#308=CARTESIAN_POINT('',(0.00000000000000000E0,0.00000000000000000E0));
#309=CARTESIAN_POINT('',(1.00000000000000000E0,0.00000000000000000E0));
#310=B_SPLINE_CURVE_WITH_KNOTS('',1,(#308,#309),.UNSPECIFIED.,.F.,.F.,(2,2),(0.00000000000000000E0,1.00000000000000000E0),.UNSPECIFIED.);
#311=DEFINITIONAL_REPRESENTATION('',(#310),#187);
#312=PCURVE('',#81,#311);
#313=CARTESIAN_POINT('',(1.00000000000000000E0,0.00000000000000000E0));
#314=CARTESIAN_POINT('',(1.00000000000000000E0,1.00000000000000000E0));
#315=B_SPLINE_CURVE_WITH_KNOTS('',1,(#313,#314),.UNSPECIFIED.,.F.,.F.,(2,2),(0.00000000000000000E0,1.00000000000000000E0),.UNSPECIFIED.);
#316=DEFINITIONAL_REPRESENTATION('',(#315),#187);
#317=PCURVE('',#81,#316);
#318=CARTESIAN_POINT('',(1.00000000000000000E0,1.00000000000000000E0));
#319=CARTESIAN_POINT('',(0.00000000000000000E0,1.00000000000000000E0));
#320=B_SPLINE_CURVE_WITH_KNOTS('',1,(#318,#319),.UNSPECIFIED.,.F.,.F.,(2,2),(0.00000000000000000E0,1.00000000000000000E0),.UNSPECIFIED.);
#321=DEFINITIONAL_REPRESENTATION('',(#320),#187);
#322=PCURVE('',#81,#321);
#323=CARTESIAN_POINT('',(0.00000000000000000E0,1.00000000000000000E0));
#324=CARTESIAN_POINT('',(0.00000000000000000E0,0.00000000000000000E0));
#325=B_SPLINE_CURVE_WITH_KNOTS('',1,(#323,#324),.UNSPECIFIED.,.F.,.F.,(2,2),(0.00000000000000000E0,1.00000000000000000E0),.UNSPECIFIED.);
#326=DEFINITIONAL_REPRESENTATION('',(#325),#187);
#327=PCURVE('',#81,#326);
#328=CARTESIAN_POINT('',(0.00000000000000000E0,0.00000000000000000E0));
#329=CARTESIAN_POINT('',(1.00000000000000000E0,0.00000000000000000E0));
#330=B_SPLINE_CURVE_WITH_KNOTS('',1,(#328,#329),.UNSPECIFIED.,.F.,.F.,(2,2),(0.00000000000000000E0,1.00000000000000000E0),.UNSPECIFIED.);
#331=DEFINITIONAL_REPRESENTATION('',(#330),#187);
#332=PCURVE('',#88,#331);
#333=CARTESIAN_POINT('',(1.00000000000000000E0,0.00000000000000000E0));
#334=CARTESIAN_POINT('',(1.00000000000000000E0,1.00000000000000000E0));
#335=B_SPLINE_CURVE_WITH_KNOTS('',1,(#333,#334),.UNSPECIFIED.,.F.,.F.,(2,2),(0.00000000000000000E0,1.00000000000000000E0),.UNSPECIFIED.);
#336=DEFINITIONAL_REPRESENTATION('',(#335),#187);
#337=PCURVE('',#88,#336);
#338=CARTESIAN_POINT('',(1.00000000000000000E0,1.00000000000000000E0));
#339=CARTESIAN_POINT('',(0.00000000000000000E0,1.00000000000000000E0));
#340=B_SPLINE_CURVE_WITH_KNOTS('',1,(#338,#339),.UNSPECIFIED.,.F.,.F.,(2,2),(0.00000000000000000E0,1.00000000000000000E0),.UNSPECIFIED.);
#341=DEFINITIONAL_REPRESENTATION('',(#340),#187);
#342=PCURVE('',#88,#341);
#343=CARTESIAN_POINT('',(0.00000000000000000E0,1.00000000000000000E0));
#344=CARTESIAN_POINT('',(0.00000000000000000E0,0.00000000000000000E0));
#345=B_SPLINE_CURVE_WITH_KNOTS('',1,(#343,#344),.UNSPECIFIED.,.F.,.F.,(2,2),(0.00000000000000000E0,1.00000000000000000E0),.UNSPECIFIED.);
#346=DEFINITIONAL_REPRESENTATION('',(#345),#187);
#347=PCURVE('',#88,#346);
#348=CARTESIAN_POINT('',(-8.75000000000000000E-1,7.50000000000000000E-1));
#349=CARTESIAN_POINT('',(-1.87500000000000000E0,2.50000000000000000E-1));
#350=CARTESIAN_POINT('',(-8.75000000000000000E-1,-2.50000000000000000E-1));
#351=B_SPLINE_CURVE_WITH_KNOTS('',2,(#348,#349,#350),.UNSPECIFIED.,.F.,.F.,(3,3),(0.00000000000000000E0,1.00000000000000000E0),.UNSPECIFIED.);
#352=DEFINITIONAL_REPRESENTATION('',(#351),#187);
#353=PCURVE('',#93,#352);
#354=CARTESIAN_POINT('',(-8.75000000000000000E-1,-2.50000000000000000E-1));
#355=CARTESIAN_POINT('',(1.25000000000000000E-1,-7.50000000000000000E-1));
#356=CARTESIAN_POINT('',(1.12500000000000000E0,-2.50000000000000000E-1));
#357=B_SPLINE_CURVE_WITH_KNOTS('',2,(#354,#355,#356),.UNSPECIFIED.,.F.,.F.,(3,3),(0.00000000000000000E0,1.00000000000000000E0),.UNSPECIFIED.);
#358=DEFINITIONAL_REPRESENTATION('',(#357),#187);
#359=PCURVE('',#93,#358);
#360=CARTESIAN_POINT('',(1.12500000000000000E0,-2.50000000000000000E-1));
#361=CARTESIAN_POINT('',(2.12500000000000000E0,2.50000000000000000E-1));
#362=CARTESIAN_POINT('',(1.12500000000000000E0,7.50000000000000000E-1));
#363=B_SPLINE_CURVE_WITH_KNOTS('',2,(#360,#361,#362),.UNSPECIFIED.,.F.,.F.,(3,3),(0.00000000000000000E0,1.00000000000000000E0),.UNSPECIFIED.);
#364=DEFINITIONAL_REPRESENTATION('',(#363),#187);
#365=PCURVE('',#93,#364);
#366=CARTESIAN_POINT('',(1.12500000000000000E0,7.50000000000000000E-1));
#367=CARTESIAN_POINT('',(1.25000000000000000E-1,1.25000000000000000E0));
#368=CARTESIAN_POINT('',(-8.75000000000000000E-1,7.50000000000000000E-1));
#369=B_SPLINE_CURVE_WITH_KNOTS('',2,(#366,#367,#368),.UNSPECIFIED.,.F.,.F.,(3,3),(0.00000000000000000E0,1.00000000000000000E0),.UNSPECIFIED.);
#370=DEFINITIONAL_REPRESENTATION('',(#369),#187);
#371=PCURVE('',#93,#370);
#372=CARTESIAN_POINT('',(-1.25000000000000000E-1,3.75000000000000000E-1));
#373=CARTESIAN_POINT('',(1.25000000000000000E-1,5.00000000000000000E-1));
#374=CARTESIAN_POINT('',(3.75000000000000000E-1,3.75000000000000000E-1));
#375=B_SPLINE_CURVE_WITH_KNOTS('',2,(#372,#373,#374),.UNSPECIFIED.,.F.,.F.,(3,3),(0.00000000000000000E0,1.00000000000000000E0),.UNSPECIFIED.);
#376=DEFINITIONAL_REPRESENTATION('',(#375),#187);
#377=PCURVE('',#93,#376);
#378=CARTESIAN_POINT('',(3.75000000000000000E-1,3.75000000000000000E-1));
#379=CARTESIAN_POINT('',(6.25000000000000000E-1,2.50000000000000000E-1));
#380=CARTESIAN_POINT('',(3.75000000000000000E-1,1.25000000000000000E-1));
#381=B_SPLINE_CURVE_WITH_KNOTS('',2,(#378,#379,#380),.UNSPECIFIED.,.F.,.F.,(3,3),(0.00000000000000000E0,1.00000000000000000E0),.UNSPECIFIED.);
#382=DEFINITIONAL_REPRESENTATION('',(#381),#187);
#383=PCURVE('',#93,#382);
#384=CARTESIAN_POINT('',(3.75000000000000000E-1,1.25000000000000000E-1));
#385=CARTESIAN_POINT('',(1.25000000000000000E-1,0.00000000000000000E0));
#386=CARTESIAN_POINT('',(-1.25000000000000000E-1,1.25000000000000000E-1));
#387=B_SPLINE_CURVE_WITH_KNOTS('',2,(#384,#385,#386),.UNSPECIFIED.,.F.,.F.,(3,3),(0.00000000000000000E0,1.00000000000000000E0),.UNSPECIFIED.);
#388=DEFINITIONAL_REPRESENTATION('',(#387),#187);
#389=PCURVE('',#93,#388);
#390=CARTESIAN_POINT('',(-1.25000000000000000E-1,1.25000000000000000E-1));
#391=CARTESIAN_POINT('',(-3.75000000000000000E-1,2.50000000000000000E-1));
#392=CARTESIAN_POINT('',(-1.25000000000000000E-1,3.75000000000000000E-1));
#393=B_SPLINE_CURVE_WITH_KNOTS('',2,(#390,#391,#392),.UNSPECIFIED.,.F.,.F.,(3,3),(0.00000000000000000E0,1.00000000000000000E0),.UNSPECIFIED.);
#394=DEFINITIONAL_REPRESENTATION('',(#393),#187);
#395=PCURVE('',#93,#394);
#396=CARTESIAN_POINT('',(1.12500000000000000E0,7.50000000000000000E-1));
#397=CARTESIAN_POINT('',(1.25000000000000000E-1,1.25000000000000000E0));
#398=CARTESIAN_POINT('',(-8.75000000000000000E-1,7.50000000000000000E-1));
#399=B_SPLINE_CURVE_WITH_KNOTS('',2,(#396,#397,#398),.UNSPECIFIED.,.F.,.F.,(3,3),(0.00000000000000000E0,1.00000000000000000E0),.UNSPECIFIED.);
#400=DEFINITIONAL_REPRESENTATION('',(#399),#187);
#401=PCURVE('',#98,#400);
#402=CARTESIAN_POINT('',(-8.75000000000000000E-1,7.50000000000000000E-1));
#403=CARTESIAN_POINT('',(-1.87500000000000000E0,2.50000000000000000E-1));
#404=CARTESIAN_POINT('',(-8.75000000000000000E-1,-2.50000000000000000E-1));
#405=B_SPLINE_CURVE_WITH_KNOTS('',2,(#402,#403,#404),.UNSPECIFIED.,.F.,.F.,(3,3),(0.00000000000000000E0,1.00000000000000000E0),.UNSPECIFIED.);
#406=DEFINITIONAL_REPRESENTATION('',(#405),#187);
#407=PCURVE('',#98,#406);
#408=CARTESIAN_POINT('',(-8.75000000000000000E-1,-2.50000000000000000E-1));
#409=CARTESIAN_POINT('',(1.25000000000000000E-1,-7.50000000000000000E-1));
#410=CARTESIAN_POINT('',(1.12500000000000000E0,-2.50000000000000000E-1));
#411=B_SPLINE_CURVE_WITH_KNOTS('',2,(#408,#409,#410),.UNSPECIFIED.,.F.,.F.,(3,3),(0.00000000000000000E0,1.00000000000000000E0),.UNSPECIFIED.);
#412=DEFINITIONAL_REPRESENTATION('',(#411),#187);
#413=PCURVE('',#98,#412);
#414=CARTESIAN_POINT('',(1.12500000000000000E0,-2.50000000000000000E-1));
#415=CARTESIAN_POINT('',(2.12500000000000000E0,2.50000000000000000E-1));
#416=CARTESIAN_POINT('',(1.12500000000000000E0,7.50000000000000000E-1));
#417=B_SPLINE_CURVE_WITH_KNOTS('',2,(#414,#415,#416),.UNSPECIFIED.,.F.,.F.,(3,3),(0.00000000000000000E0,1.00000000000000000E0),.UNSPECIFIED.);
#418=DEFINITIONAL_REPRESENTATION('',(#417),#187);
#419=PCURVE('',#98,#418);
#420=CARTESIAN_POINT('',(3.75000000000000000E-1,3.75000000000000000E-1));
#421=CARTESIAN_POINT('',(6.25000000000000000E-1,2.50000000000000000E-1));
#422=CARTESIAN_POINT('',(3.75000000000000000E-1,1.25000000000000000E-1));
#423=B_SPLINE_CURVE_WITH_KNOTS('',2,(#420,#421,#422),.UNSPECIFIED.,.F.,.F.,(3,3),(0.00000000000000000E0,1.00000000000000000E0),.UNSPECIFIED.);
#424=DEFINITIONAL_REPRESENTATION('',(#423),#187);
#425=PCURVE('',#98,#424);
#426=CARTESIAN_POINT('',(3.75000000000000000E-1,1.25000000000000000E-1));
#427=CARTESIAN_POINT('',(1.25000000000000000E-1,0.00000000000000000E0));
#428=CARTESIAN_POINT('',(-1.25000000000000000E-1,1.25000000000000000E-1));
#429=B_SPLINE_CURVE_WITH_KNOTS('',2,(#426,#427,#428),.UNSPECIFIED.,.F.,.F.,(3,3),(0.00000000000000000E0,1.00000000000000000E0),.UNSPECIFIED.);
#430=DEFINITIONAL_REPRESENTATION('',(#429),#187);
#431=PCURVE('',#98,#430);
#432=CARTESIAN_POINT('',(-1.25000000000000000E-1,1.25000000000000000E-1));
#433=CARTESIAN_POINT('',(-3.75000000000000000E-1,2.50000000000000000E-1));
#434=CARTESIAN_POINT('',(-1.25000000000000000E-1,3.75000000000000000E-1));
#435=B_SPLINE_CURVE_WITH_KNOTS('',2,(#432,#433,#434),.UNSPECIFIED.,.F.,.F.,(3,3),(0.00000000000000000E0,1.00000000000000000E0),.UNSPECIFIED.);
#436=DEFINITIONAL_REPRESENTATION('',(#435),#187);
#437=PCURVE('',#98,#436);
#438=CARTESIAN_POINT('',(-1.25000000000000000E-1,3.75000000000000000E-1));
#439=CARTESIAN_POINT('',(1.25000000000000000E-1,5.00000000000000000E-1));
#440=CARTESIAN_POINT('',(3.75000000000000000E-1,3.75000000000000000E-1));
#441=B_SPLINE_CURVE_WITH_KNOTS('',2,(#438,#439,#440),.UNSPECIFIED.,.F.,.F.,(3,3),(0.00000000000000000E0,1.00000000000000000E0),.UNSPECIFIED.);
#442=DEFINITIONAL_REPRESENTATION('',(#441),#187);
#443=PCURVE('',#98,#442);
#444=SURFACE_CURVE('',#102,(#192,#371),.PCURVE_S1.);
#445=EDGE_CURVE('OSCAD_TOPO/3|edge|e:227276cecc942ed095c6033a99876cbc|05c91bd0c85626127ee7c756d32ec0667e9c24afb2fe107a392dc1f1b773e345',#2,#4,#444,.T.);
#446=SURFACE_CURVE('',#105,(#197,#227),.PCURVE_S1.);
#447=EDGE_CURVE('OSCAD_TOPO/3|edge|e:ac86407aee31c48e89dfc8b34366311d|6f690ebb65a0928a01df8c99b6479d1347d3aeabde58972762bf15ac7034fb91',#4,#20,#446,.T.);
#448=SURFACE_CURVE('',#109,(#202,#401),.PCURVE_S1.);
#449=EDGE_CURVE('OSCAD_TOPO/3|edge|e:9df1c75cb7d4df3e88b00e67876d1a88|18003c5fe1c2430d0dcca87aa7591228200da3c841ec298d12b1a196cc704ac0',#18,#20,#448,.T.);
#450=SURFACE_CURVE('',#112,(#207,#257),.PCURVE_S1.);
#451=EDGE_CURVE('OSCAD_TOPO/3|edge|e:bd6509068bf077e111734d71124dfb6f|7376bd9d3251198ebc483db2eb4811ad7b3d0adecf0c07bf3945146d44467cf8',#2,#18,#450,.T.);
#452=SURFACE_CURVE('',#116,(#212,#365),.PCURVE_S1.);
#453=EDGE_CURVE('OSCAD_TOPO/3|edge|e:7702ffbff5069522b3f71e89d54a550b|cb96bd9391f3afc807526ed4337010b5f4eba5a3dbf9c356169daf17a5428107',#4,#6,#452,.T.);
#454=SURFACE_CURVE('',#119,(#217,#247),.PCURVE_S1.);
#455=EDGE_CURVE('OSCAD_TOPO/3|edge|e:90e918f44fb497def9b3c55ee54df37a|42e88347a35d0ddb2d358019926de4665978bb387f7df7eae9006ab431401cec',#6,#22,#454,.T.);
#456=SURFACE_CURVE('',#123,(#222,#407),.PCURVE_S1.);
#457=EDGE_CURVE('OSCAD_TOPO/3|edge|e:07116236a203e363b15cf28c30a45960|cc49f6d3ea821e883526b3ee4da25ac8c2ce80dc0bb432556c029f24d03522c8',#20,#22,#456,.T.);
#458=SURFACE_CURVE('',#127,(#232,#359),.PCURVE_S1.);
#459=EDGE_CURVE('OSCAD_TOPO/3|edge|e:d06f93fbe65d879a6aefe37b834b46fa|ff5683d306da39099f3724c2cdecf133db959b4aeafcbf69c26c2677d62edfe7',#6,#8,#458,.T.);
#460=SURFACE_CURVE('',#130,(#237,#267),.PCURVE_S1.);
#461=EDGE_CURVE('OSCAD_TOPO/3|edge|e:eb200cb2c528384f5a5ef5c4e986d75e|498c721889ca5d6f2d6b66cf0326b31c1f535d7fd0c42288a0fd8e33255ccd43',#8,#24,#460,.T.);
#462=SURFACE_CURVE('',#134,(#242,#413),.PCURVE_S1.);
#463=EDGE_CURVE('OSCAD_TOPO/3|edge|e:74c3bc40990d113ddad6ca31580de386|4f00344bc3525b3da1011c0f867bf3ba6d740bff785c213ea32e6bfc8a7b321b',#22,#24,#462,.T.);
#464=SURFACE_CURVE('',#138,(#252,#353),.PCURVE_S1.);
#465=EDGE_CURVE('OSCAD_TOPO/3|edge|e:a1ba6c2e830b81e3310f7805f87211d8|f7cb670fc28a72e5ada736fb0dda9ec50d3fea381be39d608a7c5db9d2938d5a',#2,#8,#464,.T.);
#466=SURFACE_CURVE('',#142,(#262,#419),.PCURVE_S1.);
#467=EDGE_CURVE('OSCAD_TOPO/3|edge|e:efd6b37bba4d1debd4d0ca5a3aa21da7|bd581b38259aa6a992c9c10b21657cdadb77be6d0b49ce47293818161c55a8b0',#18,#24,#466,.T.);
#468=SURFACE_CURVE('',#146,(#272,#395),.PCURVE_S1.);
#469=EDGE_CURVE('OSCAD_TOPO/3|edge|e:5fd819102746fd2a9cde28ff80ec9293|171355c78eced7556444e53c81df42ab9c7f88bcddc5e304ce45b1add61dc007',#10,#12,#468,.T.);
#470=SURFACE_CURVE('',#149,(#277,#307),.PCURVE_S1.);
#471=EDGE_CURVE('OSCAD_TOPO/3|edge|e:2632a62a5aa96de0119dfecc5e341d2f|761ee55ae66ecab93c8aeba9520366c1bc24adf9660e058638035f7296ac4325',#12,#28,#470,.T.);
#472=SURFACE_CURVE('',#153,(#282,#425),.PCURVE_S1.);
#473=EDGE_CURVE('OSCAD_TOPO/3|edge|e:ef787d2dc80f69358ab03dd0c9ec9864|5440dba828c5b5291d2bc8e301d4e459638b8b83517448bf33c75f8409c9dab9',#26,#28,#472,.T.);
#474=SURFACE_CURVE('',#156,(#287,#337),.PCURVE_S1.);
#475=EDGE_CURVE('OSCAD_TOPO/3|edge|e:fc19fd443968b704128bd0e8d695e97f|c1d2de3641fa0de04269351e52b836bfdbf6f7eba7f71ea0ad147f3155d7b9e3',#10,#26,#474,.T.);
#476=SURFACE_CURVE('',#160,(#292,#389),.PCURVE_S1.);
#477=EDGE_CURVE('OSCAD_TOPO/3|edge|e:73f6647325c70f843d3fec2467ecfece|421ecb4e170f93cedf7e13db337277924e1a3003b76057dddad782b4f771536b',#12,#14,#476,.T.);
#478=SURFACE_CURVE('',#163,(#297,#327),.PCURVE_S1.);
#479=EDGE_CURVE('OSCAD_TOPO/3|edge|e:589691904bb723e8188c91a26d05dc41|80d37f370a6e13cb5e08ee4a939e476592e1af9b27ed96281a7edae64f5390e0',#14,#30,#478,.T.);
#480=SURFACE_CURVE('',#167,(#302,#431),.PCURVE_S1.);
#481=EDGE_CURVE('OSCAD_TOPO/3|edge|e:47f2c8fdf82a5cfb3551cbbd8b0cbf2a|ebc4be181bf7a870fffe0dad97a1bdc67eb5d90962e35d45c95b714132bafae2',#28,#30,#480,.T.);
#482=SURFACE_CURVE('',#171,(#312,#383),.PCURVE_S1.);
#483=EDGE_CURVE('OSCAD_TOPO/3|edge|e:ee0502d024eb40179f0918917c433bcd|5b687457387607712a67b14217b2069736dbeb87bfa5dc459096dc08b28649bd',#14,#16,#482,.T.);
#484=SURFACE_CURVE('',#174,(#317,#347),.PCURVE_S1.);
#485=EDGE_CURVE('OSCAD_TOPO/3|edge|e:0cc8bf9b5c18afa014f64fc0c2b46117|e3387c43b07cf89720968a6b482ac71723461d975c70c2541b9a0fbcf62e238e',#16,#32,#484,.T.);
#486=SURFACE_CURVE('',#178,(#322,#437),.PCURVE_S1.);
#487=EDGE_CURVE('OSCAD_TOPO/3|edge|e:a474c9aea2bc0297433db4d7c76aefb6|a022962bbd5e646e00a7ae210705b9420b3c4036122ec9aec3006195d7de8824',#30,#32,#486,.T.);
#488=SURFACE_CURVE('',#182,(#332,#377),.PCURVE_S1.);
#489=EDGE_CURVE('OSCAD_TOPO/3|edge|e:ee667a5c585ee9ef02e6f38b51cd074a|da3273f3939d0b660c950ca2096ce60756c4f66d98dab5a362f7f8bd5883ff90',#10,#16,#488,.T.);
#490=SURFACE_CURVE('',#186,(#342,#443),.PCURVE_S1.);
#491=EDGE_CURVE('OSCAD_TOPO/3|edge|e:78e53bd57e9c7df183b44ac10809503e|8b0676291a2c54a22d9a4a0889334b2fcab3ef2648b53a92c00c8f2ecfa905f8',#26,#32,#490,.T.);
#492=ORIENTED_EDGE('',*,*,#445,.T.);
#493=ORIENTED_EDGE('',*,*,#447,.T.);
#494=ORIENTED_EDGE('',*,*,#449,.F.);
#495=ORIENTED_EDGE('',*,*,#451,.F.);
#496=EDGE_LOOP('OSCAD_TOPO/3|loop|l:e8e935b256d3f203ac87614194b9818f|79fff213d61b47b903a4c23380f4c4f3bc1957be04edfed43f41658b4b0ceae1',(#492,#493,#494,#495));
#497=ORIENTED_EDGE('',*,*,#453,.T.);
#498=ORIENTED_EDGE('',*,*,#455,.T.);
#499=ORIENTED_EDGE('',*,*,#457,.F.);
#500=ORIENTED_EDGE('',*,*,#447,.F.);
#501=EDGE_LOOP('OSCAD_TOPO/3|loop|l:9ea8e7d17b21f977ad9209d00f15f00d|70fe54c4cdae1abcff39e61582648630bd817ddb1e31dbe037a2caef9b2b2c11',(#497,#498,#499,#500));
#502=ORIENTED_EDGE('',*,*,#459,.T.);
#503=ORIENTED_EDGE('',*,*,#461,.T.);
#504=ORIENTED_EDGE('',*,*,#463,.F.);
#505=ORIENTED_EDGE('',*,*,#455,.F.);
#506=EDGE_LOOP('OSCAD_TOPO/3|loop|l:2ceeaa03e39df070a8072e025cc2c43a|ab3c07f9254f2636be168a42462049d01a8b2c54270ae8a2e11c244198e1047a',(#502,#503,#504,#505));
#507=ORIENTED_EDGE('',*,*,#465,.F.);
#508=ORIENTED_EDGE('',*,*,#451,.T.);
#509=ORIENTED_EDGE('',*,*,#467,.T.);
#510=ORIENTED_EDGE('',*,*,#461,.F.);
#511=EDGE_LOOP('OSCAD_TOPO/3|loop|l:cb0c18306ba9db0e976b8e80fbfdf48a|d57e820c5442176b1c60676f41e56081280a34a64af500bcd8207827f406a655',(#507,#508,#509,#510));
#512=ORIENTED_EDGE('',*,*,#469,.T.);
#513=ORIENTED_EDGE('',*,*,#471,.T.);
#514=ORIENTED_EDGE('',*,*,#473,.F.);
#515=ORIENTED_EDGE('',*,*,#475,.F.);
#516=EDGE_LOOP('OSCAD_TOPO/3|loop|l:1ed904410412b2cab6075b97e6b70b02|1293d449c9af1769ec1d210aeeb0d67b470bfdfe3a14798af2339cc6631bac8c',(#512,#513,#514,#515));
#517=ORIENTED_EDGE('',*,*,#477,.T.);
#518=ORIENTED_EDGE('',*,*,#479,.T.);
#519=ORIENTED_EDGE('',*,*,#481,.F.);
#520=ORIENTED_EDGE('',*,*,#471,.F.);
#521=EDGE_LOOP('OSCAD_TOPO/3|loop|l:b03e46121f904b5ba3502540183d5827|48ffc63b688bf628b891880135f1eb9c244ff0c7f10cbc2054f5d1da5b092c42',(#517,#518,#519,#520));
#522=ORIENTED_EDGE('',*,*,#483,.T.);
#523=ORIENTED_EDGE('',*,*,#485,.T.);
#524=ORIENTED_EDGE('',*,*,#487,.F.);
#525=ORIENTED_EDGE('',*,*,#479,.F.);
#526=EDGE_LOOP('OSCAD_TOPO/3|loop|l:66e21d6c091e259263b6ab95e009b97b|b4313813fea3a80cb61fc96897fa842266914b3e987ed6e945f35a7102f90f54',(#522,#523,#524,#525));
#527=ORIENTED_EDGE('',*,*,#489,.F.);
#528=ORIENTED_EDGE('',*,*,#475,.T.);
#529=ORIENTED_EDGE('',*,*,#491,.T.);
#530=ORIENTED_EDGE('',*,*,#485,.F.);
#531=EDGE_LOOP('OSCAD_TOPO/3|loop|l:1e0d95f8275bfce718c9382df2c24769|796cb4db10fb6b6a6445d985724e7b5fd5ba07aaf780423fab258b93e6252dff',(#527,#528,#529,#530));
#532=ORIENTED_EDGE('',*,*,#465,.T.);
#533=ORIENTED_EDGE('',*,*,#459,.F.);
#534=ORIENTED_EDGE('',*,*,#453,.F.);
#535=ORIENTED_EDGE('',*,*,#445,.F.);
#536=EDGE_LOOP('OSCAD_TOPO/3|loop|l:1837d1410bf09aef5c37312fd6d7076b|63e9912e9e2b44b7d6e1b11cd4addebb0b3ceca2e2b9056dbb0cf3bf03830b6a',(#532,#533,#534,#535));
#537=ORIENTED_EDGE('',*,*,#489,.T.);
#538=ORIENTED_EDGE('',*,*,#483,.F.);
#539=ORIENTED_EDGE('',*,*,#477,.F.);
#540=ORIENTED_EDGE('',*,*,#469,.F.);
#541=EDGE_LOOP('OSCAD_TOPO/3|loop|l:e791a254f8f43b62901cc47e971c2c63|62215ec984da08007bac84e6eb825f874e5f446400834e2bb2125c0d9aae4550',(#537,#538,#539,#540));
#542=ORIENTED_EDGE('',*,*,#449,.T.);
#543=ORIENTED_EDGE('',*,*,#457,.T.);
#544=ORIENTED_EDGE('',*,*,#463,.T.);
#545=ORIENTED_EDGE('',*,*,#467,.F.);
#546=EDGE_LOOP('OSCAD_TOPO/3|loop|l:05cf6b96660ee3ab7aa366d71db91797|cda0df5c0a95ed1fc4a1776ae0e1951dd8ed383ce291acd31d01a9f987b633ed',(#542,#543,#544,#545));
#547=ORIENTED_EDGE('',*,*,#473,.T.);
#548=ORIENTED_EDGE('',*,*,#481,.T.);
#549=ORIENTED_EDGE('',*,*,#487,.T.);
#550=ORIENTED_EDGE('',*,*,#491,.F.);
#551=EDGE_LOOP('OSCAD_TOPO/3|loop|l:fdf31c0f025fd82ec41f4c723533b60e|5ff5649bae02abb5d47c1f69c684fed6962af0fcdf2921e974fdc3a184d1b677',(#547,#548,#549,#550));
#552=FACE_OUTER_BOUND('',#496,.T.);
#553=ADVANCED_FACE('OSCAD_TOPO/3|face|f:082518e5cf38b44303c35c127a78dd69|7fd5fdc7a93d4e8125cf81cc23a9de5499aa41b66f3d61953c5f804dc6a7b9a4',(#552),#39,.T.);
#554=FACE_OUTER_BOUND('',#501,.T.);
#555=ADVANCED_FACE('OSCAD_TOPO/3|face|f:573b5636e90a25debfaf9f7b1cecab67|e405de66f2b13659a18a667fefe17888f8a4475725c9f0144c92ee7b18ed9fbb',(#554),#46,.T.);
#556=FACE_OUTER_BOUND('',#506,.T.);
#557=ADVANCED_FACE('OSCAD_TOPO/3|face|f:585842822c59758b18f7991751c6ef5f|c274fab8c37a9b2bb34d727a56d64eacfb19eb9dd8699db9bb6776196921b91b',(#556),#53,.T.);
#558=FACE_OUTER_BOUND('',#511,.T.);
#559=ADVANCED_FACE('OSCAD_TOPO/3|face|f:246886f4896c9e78ffdb91d1284ad0d4|609f2d37f7e80d82841de6bd2ac20570873c2e162108d5184a3e96932314fd6b',(#558),#60,.T.);
#560=FACE_OUTER_BOUND('',#516,.T.);
#561=ADVANCED_FACE('OSCAD_TOPO/3|face|f:5de25cf4da58e4a81aa2be204503eeb4|eaa25b54113aa9f48f310dd805e13fd7ee02d9b818c4ec77de9c881a3e65b8b7',(#560),#67,.T.);
#562=FACE_OUTER_BOUND('',#521,.T.);
#563=ADVANCED_FACE('OSCAD_TOPO/3|face|f:68dc2a958bd2540cfd4bd64d4838211a|ec15e254b697f85676f7c8b911132602b7ca32e350b17d7d9b0bdcec208a70c3',(#562),#74,.T.);
#564=FACE_OUTER_BOUND('',#526,.T.);
#565=ADVANCED_FACE('OSCAD_TOPO/3|face|f:809b81f709d57870bbd395bf9aa060ec|c229316ee73e13b3e011fbb35e2206e24d073fa7f2c0323f93170665ffdb7ce8',(#564),#81,.T.);
#566=FACE_OUTER_BOUND('',#531,.T.);
#567=ADVANCED_FACE('OSCAD_TOPO/3|face|f:bf86ba002c9ee282d26fcdc0ed4be833|daf39f3a970722218d64da8881b6147b594d1dedd4f69bdc95f442d39d542a8a',(#566),#88,.T.);
#568=FACE_OUTER_BOUND('',#536,.T.);
#569=FACE_BOUND('',#541,.T.);
#570=ADVANCED_FACE('OSCAD_TOPO/3|face|f:fbe88ca9dad8faa75dd4401d9e6f5ab1|5212ed2675cb3892001bbfddce512fcb78d1aff2e2123aba43e75d9c8faef501',(#568,#569),#93,.T.);
#571=FACE_OUTER_BOUND('',#546,.T.);
#572=FACE_BOUND('',#551,.T.);
#573=ADVANCED_FACE('OSCAD_TOPO/3|face|f:684dc69173357dfeb73e152fb6730149|a1125e0f04f0c80b60185a18662f85d8f10b48a33ebd02364045f07be02a4a9c',(#571,#572),#98,.T.);
#574=CLOSED_SHELL('OSCAD_TOPO/3|shell|s:e67714d16754b254bbf22bc5edb2c145|68c5c621d1f4eaa95aa725618555f456c691d13f1bc048963a76ba21e0f87411',(#553,#555,#557,#559,#561,#563,#565,#567,#570,#573));
#575=MANIFOLD_SOLID_BREP('OSCAD_TOPO/3|body|b:e162cbb935438f7f2d27962ecaeae49d|19546f8773f1369f59f680f87699d8ce06697e9960496e40d12119ea15477c9e',#574);
#576=(LENGTH_UNIT()NAMED_UNIT(*)SI_UNIT(.MILLI.,.METRE.));
#577=UNCERTAINTY_MEASURE_WITH_UNIT(LENGTH_MEASURE(9.99999999999999955E-8),#576,'distance_accuracy_value','');
#578=(GEOMETRIC_REPRESENTATION_CONTEXT(3)GLOBAL_UNCERTAINTY_ASSIGNED_CONTEXT((#577))GLOBAL_UNIT_ASSIGNED_CONTEXT((#576))REPRESENTATION_CONTEXT('','3D'));
#579=ADVANCED_BREP_SHAPE_REPRESENTATION('',(#575),#578);
#580=APPLICATION_CONTEXT('managed model based 3d engineering');
#581=PRODUCT_CONTEXT('',#580,'mechanical');
#582=PRODUCT('model','model','',(#581));
#583=PRODUCT_DEFINITION_FORMATION('1','',#582);
#584=PRODUCT_DEFINITION_CONTEXT('part definition',#580,'design');
#585=PRODUCT_DEFINITION('design','',#583,#584);
#586=PRODUCT_DEFINITION_SHAPE('','',#585);
#587=SHAPE_DEFINITION_REPRESENTATION(#586,#579);
ENDSEC;
END-ISO-10303-21;
