ISO-10303-21;
HEADER;
FILE_DESCRIPTION(('OpenSCAD Viewer retained AP242 B-rep'),'2;1');
FILE_NAME('model.step','',(''),(''),'OpenSCAD Viewer','OpenSCAD Viewer','');
FILE_SCHEMA(('AP242_MANAGED_MODEL_BASED_3D_ENGINEERING_MIM_LF'));
ENDSEC;
DATA;
#1=CARTESIAN_POINT('',(5.00000000000000000E-1,2.50000000000000000E-1,0.00000000000000000E0));
#2=VERTEX_POINT('OSCAD_TOPO/3|vertex|v:3715287cb40783d245f7702dd10b9183|0c81fe1552579f5b5d881077b8b1e168fe089371fc3324a36470047079850306',#1);
#3=CARTESIAN_POINT('',(3.06161699786838302E-17,7.50000000000000000E-1,0.00000000000000000E0));
#4=VERTEX_POINT('OSCAD_TOPO/3|vertex|v:27ca192c2d4901b8eed76ecca39b382d|ba11c30901000434449530df251adb4e35b2e9c3e5dffe7e058cbae1e28b0387',#3);
#5=CARTESIAN_POINT('',(-5.00000000000000000E-1,2.50000000000000056E-1,0.00000000000000000E0));
#6=VERTEX_POINT('OSCAD_TOPO/3|vertex|v:605868c73f12d84e1eb047c76cb1f6e2|c97a286d98d0dd71d272231a864a3beae3499755f8b2b13b088a3d3c6dbbca94',#5);
#7=CARTESIAN_POINT('',(-9.18485099360514844E-17,-2.50000000000000000E-1,0.00000000000000000E0));
#8=VERTEX_POINT('OSCAD_TOPO/3|vertex|v:d194dbede3ccb0ae51f33060d3d719ca|120577701e2619e75e24dbc6e1938a3cc3eb1dbb591043965f132e3da63ee519',#7);
#9=CARTESIAN_POINT('',(2.00000000000000011E-1,2.50000000000000000E-1,0.00000000000000000E0));
#10=VERTEX_POINT('OSCAD_TOPO/3|vertex|v:74ec88c495b13d49a7c78c02d6ea7aa9|9acd94a5c76d22a76a88f21519d63d8ad78336277539d67394790503be192e2b',#9);
#11=CARTESIAN_POINT('',(1.22464679914735327E-17,4.99999999999999889E-2,0.00000000000000000E0));
#12=VERTEX_POINT('OSCAD_TOPO/3|vertex|v:c1f8eb617449c3022b27e3e9f1530528|d1f130e84eaf9fe0a34062d814a70a15081c5b6698f3106debb195dbe442a3c9',#11);
#13=CARTESIAN_POINT('',(-2.00000000000000011E-1,2.49999999999999972E-1,0.00000000000000000E0));
#14=VERTEX_POINT('OSCAD_TOPO/3|vertex|v:1837ebf9354ac34c5881b2f38ebf7864|d339ef83a1db9c862eafb943dcb9dbd4e13091e99be9b6ae7e0622d0a98b984b',#13);
#15=CARTESIAN_POINT('',(-3.67394039744205950E-17,4.50000000000000011E-1,0.00000000000000000E0));
#16=VERTEX_POINT('OSCAD_TOPO/3|vertex|v:d10817a628be2d785004c2ba0c00ab02|9e2ad9a78c0c0a86e1c446451b96a624e4798dadd2f4f9ec3648bb9dc479a451',#15);
#17=CARTESIAN_POINT('',(1.00000000000000000E0,5.00000000000000000E-1,1.00000000000000000E1));
#18=VERTEX_POINT('OSCAD_TOPO/3|vertex|v:137f29f23aa115748fab774da6f16480|cc385960648f5c0d54d8e077302da2254e843074c21c7feaad47ccdb747e01a5',#17);
#19=CARTESIAN_POINT('',(6.12323399573676604E-17,1.00000000000000000E0,1.00000000000000000E1));
#20=VERTEX_POINT('OSCAD_TOPO/3|vertex|v:53be5d7a6b8eb7943176308bc5abaa2e|6a96e8bc9615185f0d1ad07dd87bb8a5cb1043fab4c1d606e6944652702ba7ab',#19);
#21=CARTESIAN_POINT('',(-1.00000000000000000E0,5.00000000000000111E-1,1.00000000000000000E1));
#22=VERTEX_POINT('OSCAD_TOPO/3|vertex|v:e1fbe891494f4dcdcd6dd92f5d1f6afc|04cb75cdda8a6e42b79e4fd0a39db196f85cb13686fd528ce62a5b159e14df0d',#21);
#23=CARTESIAN_POINT('',(-1.83697019872102969E-16,0.00000000000000000E0,1.00000000000000000E1));
#24=VERTEX_POINT('OSCAD_TOPO/3|vertex|v:84ee823f09bbcb77e29eb371135ed387|dc20fa3b622574e1e6325d44398cd1f654dd1760337073d69382ab2008c6c822',#23);
#25=CARTESIAN_POINT('',(4.00000000000000022E-1,5.00000000000000000E-1,1.00000000000000000E1));
#26=VERTEX_POINT('OSCAD_TOPO/3|vertex|v:b23705579da4cef73557e115ea6e08ce|45592bb8a0f9eebe9a314ec8738eff0276ea01b09d371088221da8dc9b905728',#25);
#27=CARTESIAN_POINT('',(2.44929359829470654E-17,2.99999999999999989E-1,1.00000000000000000E1));
#28=VERTEX_POINT('OSCAD_TOPO/3|vertex|v:234f6a6623bf60150f47fa9acbd2e35a|49c9e5aff245745dcee5321d15113a70f53644109f17ab72de71ede89db3cc6d',#27);
#29=CARTESIAN_POINT('',(-4.00000000000000022E-1,5.00000000000000000E-1,1.00000000000000000E1));
#30=VERTEX_POINT('OSCAD_TOPO/3|vertex|v:d03e3845c926af5e8fda912bad648f7c|21266436daa2e7b1536420a8d5dc07aa1c62bb0707e3c55deb8e52ad98238b16',#29);
#31=CARTESIAN_POINT('',(-7.34788079488411900E-17,6.99999999999999956E-1,1.00000000000000000E1));
#32=VERTEX_POINT('OSCAD_TOPO/3|vertex|v:a0ccab0c38d8682789ecba3aae78f2d5|d7ccbdd2c3a4ec7cb9c3fef617978b85f73410836ba243dbca20508575ea9da5',#31);
#33=CARTESIAN_POINT('',(5.00000000000000000E-1,2.50000000000000000E-1,0.00000000000000000E0));
#34=CARTESIAN_POINT('',(1.00000000000000000E0,5.00000000000000000E-1,1.00000000000000000E1));
#35=CARTESIAN_POINT('',(5.00000000000000000E-1,7.50000000000000000E-1,0.00000000000000000E0));
#36=CARTESIAN_POINT('',(1.00000000000000000E0,1.00000000000000000E0,1.00000000000000000E1));
#37=CARTESIAN_POINT('',(3.06161699786838302E-17,7.50000000000000000E-1,0.00000000000000000E0));
#38=CARTESIAN_POINT('',(6.12323399573676604E-17,1.00000000000000000E0,1.00000000000000000E1));
#39=(BOUNDED_SURFACE()B_SPLINE_SURFACE(2,1,((#33,#34),(#35,#36),(#37,#38)),.UNSPECIFIED.,.F.,.F.,.F.)B_SPLINE_SURFACE_WITH_KNOTS((3,3),(2,2),(0.00000000000000000E0,1.00000000000000000E0),(0.00000000000000000E0,1.00000000000000000E0),.UNSPECIFIED.)GEOMETRIC_REPRESENTATION_ITEM()RATIONAL_B_SPLINE_SURFACE(((1.00000000000000000E0,1.00000000000000000E0),(7.07106781186547573E-1,7.07106781186547573E-1),(1.00000000000000000E0,1.00000000000000000E0)))REPRESENTATION_ITEM('')SURFACE());
#40=CARTESIAN_POINT('',(3.06161699786838302E-17,7.50000000000000000E-1,0.00000000000000000E0));
#41=CARTESIAN_POINT('',(6.12323399573676604E-17,1.00000000000000000E0,1.00000000000000000E1));
#42=CARTESIAN_POINT('',(-4.99999999999999944E-1,7.50000000000000000E-1,0.00000000000000000E0));
#43=CARTESIAN_POINT('',(-9.99999999999999889E-1,1.00000000000000000E0,1.00000000000000000E1));
#44=CARTESIAN_POINT('',(-5.00000000000000000E-1,2.50000000000000056E-1,0.00000000000000000E0));
#45=CARTESIAN_POINT('',(-1.00000000000000000E0,5.00000000000000111E-1,1.00000000000000000E1));
#46=(BOUNDED_SURFACE()B_SPLINE_SURFACE(2,1,((#40,#41),(#42,#43),(#44,#45)),.UNSPECIFIED.,.F.,.F.,.F.)B_SPLINE_SURFACE_WITH_KNOTS((3,3),(2,2),(0.00000000000000000E0,1.00000000000000000E0),(0.00000000000000000E0,1.00000000000000000E0),.UNSPECIFIED.)GEOMETRIC_REPRESENTATION_ITEM()RATIONAL_B_SPLINE_SURFACE(((1.00000000000000000E0,1.00000000000000000E0),(7.07106781186547573E-1,7.07106781186547573E-1),(1.00000000000000000E0,1.00000000000000000E0)))REPRESENTATION_ITEM('')SURFACE());
#47=CARTESIAN_POINT('',(-5.00000000000000000E-1,2.50000000000000056E-1,0.00000000000000000E0));
#48=CARTESIAN_POINT('',(-1.00000000000000000E0,5.00000000000000111E-1,1.00000000000000000E1));
#49=CARTESIAN_POINT('',(-5.00000000000000111E-1,-2.49999999999999944E-1,0.00000000000000000E0));
#50=CARTESIAN_POINT('',(-1.00000000000000022E0,5.55111512312578270E-17,1.00000000000000000E1));
#51=CARTESIAN_POINT('',(-9.18485099360514844E-17,-2.50000000000000000E-1,0.00000000000000000E0));
#52=CARTESIAN_POINT('',(-1.83697019872102969E-16,0.00000000000000000E0,1.00000000000000000E1));
#53=(BOUNDED_SURFACE()B_SPLINE_SURFACE(2,1,((#47,#48),(#49,#50),(#51,#52)),.UNSPECIFIED.,.F.,.F.,.F.)B_SPLINE_SURFACE_WITH_KNOTS((3,3),(2,2),(0.00000000000000000E0,1.00000000000000000E0),(0.00000000000000000E0,1.00000000000000000E0),.UNSPECIFIED.)GEOMETRIC_REPRESENTATION_ITEM()RATIONAL_B_SPLINE_SURFACE(((1.00000000000000000E0,1.00000000000000000E0),(7.07106781186547573E-1,7.07106781186547573E-1),(1.00000000000000000E0,1.00000000000000000E0)))REPRESENTATION_ITEM('')SURFACE());
#54=CARTESIAN_POINT('',(-9.18485099360514844E-17,-2.50000000000000000E-1,0.00000000000000000E0));
#55=CARTESIAN_POINT('',(-1.83697019872102969E-16,0.00000000000000000E0,1.00000000000000000E1));
#56=CARTESIAN_POINT('',(4.99999999999999833E-1,-2.50000000000000111E-1,0.00000000000000000E0));
#57=CARTESIAN_POINT('',(9.99999999999999667E-1,-1.11022302462515654E-16,1.00000000000000000E1));
#58=CARTESIAN_POINT('',(5.00000000000000000E-1,2.50000000000000000E-1,0.00000000000000000E0));
#59=CARTESIAN_POINT('',(1.00000000000000000E0,5.00000000000000000E-1,1.00000000000000000E1));
#60=(BOUNDED_SURFACE()B_SPLINE_SURFACE(2,1,((#54,#55),(#56,#57),(#58,#59)),.UNSPECIFIED.,.F.,.F.,.F.)B_SPLINE_SURFACE_WITH_KNOTS((3,3),(2,2),(0.00000000000000000E0,1.00000000000000000E0),(0.00000000000000000E0,1.00000000000000000E0),.UNSPECIFIED.)GEOMETRIC_REPRESENTATION_ITEM()RATIONAL_B_SPLINE_SURFACE(((1.00000000000000000E0,1.00000000000000000E0),(7.07106781186547573E-1,7.07106781186547573E-1),(1.00000000000000000E0,1.00000000000000000E0)))REPRESENTATION_ITEM('')SURFACE());
#61=CARTESIAN_POINT('',(2.00000000000000011E-1,2.50000000000000000E-1,0.00000000000000000E0));
#62=CARTESIAN_POINT('',(4.00000000000000022E-1,5.00000000000000000E-1,1.00000000000000000E1));
#63=CARTESIAN_POINT('',(2.00000000000000011E-1,5.00000000000000167E-2,0.00000000000000000E0));
#64=CARTESIAN_POINT('',(4.00000000000000022E-1,3.00000000000000044E-1,1.00000000000000000E1));
#65=CARTESIAN_POINT('',(1.22464679914735327E-17,4.99999999999999889E-2,0.00000000000000000E0));
#66=CARTESIAN_POINT('',(2.44929359829470654E-17,2.99999999999999989E-1,1.00000000000000000E1));
#67=(BOUNDED_SURFACE()B_SPLINE_SURFACE(2,1,((#61,#62),(#63,#64),(#65,#66)),.UNSPECIFIED.,.F.,.F.,.F.)B_SPLINE_SURFACE_WITH_KNOTS((3,3),(2,2),(0.00000000000000000E0,1.00000000000000000E0),(0.00000000000000000E0,1.00000000000000000E0),.UNSPECIFIED.)GEOMETRIC_REPRESENTATION_ITEM()RATIONAL_B_SPLINE_SURFACE(((1.00000000000000000E0,1.00000000000000000E0),(7.07106781186547573E-1,7.07106781186547573E-1),(1.00000000000000000E0,1.00000000000000000E0)))REPRESENTATION_ITEM('')SURFACE());
#68=CARTESIAN_POINT('',(1.22464679914735327E-17,4.99999999999999889E-2,0.00000000000000000E0));
#69=CARTESIAN_POINT('',(2.44929359829470654E-17,2.99999999999999989E-1,1.00000000000000000E1));
#70=CARTESIAN_POINT('',(-1.99999999999999983E-1,4.99999999999999889E-2,0.00000000000000000E0));
#71=CARTESIAN_POINT('',(-3.99999999999999967E-1,2.99999999999999989E-1,1.00000000000000000E1));
#72=CARTESIAN_POINT('',(-2.00000000000000011E-1,2.49999999999999972E-1,0.00000000000000000E0));
#73=CARTESIAN_POINT('',(-4.00000000000000022E-1,5.00000000000000000E-1,1.00000000000000000E1));
#74=(BOUNDED_SURFACE()B_SPLINE_SURFACE(2,1,((#68,#69),(#70,#71),(#72,#73)),.UNSPECIFIED.,.F.,.F.,.F.)B_SPLINE_SURFACE_WITH_KNOTS((3,3),(2,2),(0.00000000000000000E0,1.00000000000000000E0),(0.00000000000000000E0,1.00000000000000000E0),.UNSPECIFIED.)GEOMETRIC_REPRESENTATION_ITEM()RATIONAL_B_SPLINE_SURFACE(((1.00000000000000000E0,1.00000000000000000E0),(7.07106781186547573E-1,7.07106781186547573E-1),(1.00000000000000000E0,1.00000000000000000E0)))REPRESENTATION_ITEM('')SURFACE());
#75=CARTESIAN_POINT('',(-2.00000000000000011E-1,2.49999999999999972E-1,0.00000000000000000E0));
#76=CARTESIAN_POINT('',(-4.00000000000000022E-1,5.00000000000000000E-1,1.00000000000000000E1));
#77=CARTESIAN_POINT('',(-2.00000000000000011E-1,4.49999999999999956E-1,0.00000000000000000E0));
#78=CARTESIAN_POINT('',(-4.00000000000000022E-1,6.99999999999999956E-1,1.00000000000000000E1));
#79=CARTESIAN_POINT('',(-3.67394039744205950E-17,4.50000000000000011E-1,0.00000000000000000E0));
#80=CARTESIAN_POINT('',(-7.34788079488411900E-17,6.99999999999999956E-1,1.00000000000000000E1));
#81=(BOUNDED_SURFACE()B_SPLINE_SURFACE(2,1,((#75,#76),(#77,#78),(#79,#80)),.UNSPECIFIED.,.F.,.F.,.F.)B_SPLINE_SURFACE_WITH_KNOTS((3,3),(2,2),(0.00000000000000000E0,1.00000000000000000E0),(0.00000000000000000E0,1.00000000000000000E0),.UNSPECIFIED.)GEOMETRIC_REPRESENTATION_ITEM()RATIONAL_B_SPLINE_SURFACE(((1.00000000000000000E0,1.00000000000000000E0),(7.07106781186547573E-1,7.07106781186547573E-1),(1.00000000000000000E0,1.00000000000000000E0)))REPRESENTATION_ITEM('')SURFACE());
#82=CARTESIAN_POINT('',(-3.67394039744205950E-17,4.50000000000000011E-1,0.00000000000000000E0));
#83=CARTESIAN_POINT('',(-7.34788079488411900E-17,6.99999999999999956E-1,1.00000000000000000E1));
#84=CARTESIAN_POINT('',(1.99999999999999956E-1,4.50000000000000011E-1,0.00000000000000000E0));
#85=CARTESIAN_POINT('',(3.99999999999999911E-1,6.99999999999999956E-1,1.00000000000000000E1));
#86=CARTESIAN_POINT('',(2.00000000000000011E-1,2.50000000000000000E-1,0.00000000000000000E0));
#87=CARTESIAN_POINT('',(4.00000000000000022E-1,5.00000000000000000E-1,1.00000000000000000E1));
#88=(BOUNDED_SURFACE()B_SPLINE_SURFACE(2,1,((#82,#83),(#84,#85),(#86,#87)),.UNSPECIFIED.,.F.,.F.,.F.)B_SPLINE_SURFACE_WITH_KNOTS((3,3),(2,2),(0.00000000000000000E0,1.00000000000000000E0),(0.00000000000000000E0,1.00000000000000000E0),.UNSPECIFIED.)GEOMETRIC_REPRESENTATION_ITEM()RATIONAL_B_SPLINE_SURFACE(((1.00000000000000000E0,1.00000000000000000E0),(7.07106781186547573E-1,7.07106781186547573E-1),(1.00000000000000000E0,1.00000000000000000E0)))REPRESENTATION_ITEM('')SURFACE());
#89=CARTESIAN_POINT('',(5.00000000000000000E-1,-2.50000000000000111E-1,0.00000000000000000E0));
#90=CARTESIAN_POINT('',(5.00000000000000000E-1,7.50000000000000000E-1,0.00000000000000000E0));
#91=CARTESIAN_POINT('',(-5.00000000000000111E-1,-2.50000000000000111E-1,0.00000000000000000E0));
#92=CARTESIAN_POINT('',(-5.00000000000000111E-1,7.50000000000000000E-1,0.00000000000000000E0));
#93=B_SPLINE_SURFACE_WITH_KNOTS('',1,1,((#89,#90),(#91,#92)),.UNSPECIFIED.,.F.,.F.,.F.,(2,2),(2,2),(-5.00000000000000111E-1,5.00000000000000000E-1),(-2.50000000000000111E-1,7.50000000000000000E-1),.UNSPECIFIED.);
#94=CARTESIAN_POINT('',(-1.00000000000000022E0,-1.11022302462515654E-16,1.00000000000000000E1));
#95=CARTESIAN_POINT('',(-1.00000000000000022E0,1.00000000000000000E0,1.00000000000000000E1));
#96=CARTESIAN_POINT('',(1.00000000000000000E0,-1.11022302462515654E-16,1.00000000000000000E1));
#97=CARTESIAN_POINT('',(1.00000000000000000E0,1.00000000000000000E0,1.00000000000000000E1));
#98=B_SPLINE_SURFACE_WITH_KNOTS('',1,1,((#94,#95),(#96,#97)),.UNSPECIFIED.,.F.,.F.,.F.,(2,2),(2,2),(-1.00000000000000022E0,1.00000000000000000E0),(-1.11022302462515654E-16,1.00000000000000000E0),.UNSPECIFIED.);
#99=CARTESIAN_POINT('',(5.00000000000000000E-1,2.50000000000000000E-1,0.00000000000000000E0));
#100=CARTESIAN_POINT('',(5.00000000000000000E-1,7.50000000000000000E-1,0.00000000000000000E0));
#101=CARTESIAN_POINT('',(3.06161699786838302E-17,7.50000000000000000E-1,0.00000000000000000E0));
#102=(BOUNDED_CURVE()B_SPLINE_CURVE(2,(#99,#100,#101),.UNSPECIFIED.,.F.,.F.)B_SPLINE_CURVE_WITH_KNOTS((3,3),(0.00000000000000000E0,1.00000000000000000E0),.UNSPECIFIED.)CURVE()GEOMETRIC_REPRESENTATION_ITEM()RATIONAL_B_SPLINE_CURVE((1.00000000000000000E0,7.07106781186547573E-1,1.00000000000000000E0))REPRESENTATION_ITEM(''));
#103=CARTESIAN_POINT('',(3.06161699786838302E-17,7.50000000000000000E-1,0.00000000000000000E0));
#104=CARTESIAN_POINT('',(6.12323399573676604E-17,1.00000000000000000E0,1.00000000000000000E1));
#105=B_SPLINE_CURVE_WITH_KNOTS('',1,(#103,#104),.UNSPECIFIED.,.F.,.F.,(2,2),(0.00000000000000000E0,1.00000000000000000E0),.UNSPECIFIED.);
#106=CARTESIAN_POINT('',(1.00000000000000000E0,5.00000000000000000E-1,1.00000000000000000E1));
#107=CARTESIAN_POINT('',(1.00000000000000000E0,1.00000000000000000E0,1.00000000000000000E1));
#108=CARTESIAN_POINT('',(6.12323399573676604E-17,1.00000000000000000E0,1.00000000000000000E1));
#109=(BOUNDED_CURVE()B_SPLINE_CURVE(2,(#106,#107,#108),.UNSPECIFIED.,.F.,.F.)B_SPLINE_CURVE_WITH_KNOTS((3,3),(0.00000000000000000E0,1.00000000000000000E0),.UNSPECIFIED.)CURVE()GEOMETRIC_REPRESENTATION_ITEM()RATIONAL_B_SPLINE_CURVE((1.00000000000000000E0,7.07106781186547573E-1,1.00000000000000000E0))REPRESENTATION_ITEM(''));
#110=CARTESIAN_POINT('',(5.00000000000000000E-1,2.50000000000000000E-1,0.00000000000000000E0));
#111=CARTESIAN_POINT('',(1.00000000000000000E0,5.00000000000000000E-1,1.00000000000000000E1));
#112=B_SPLINE_CURVE_WITH_KNOTS('',1,(#110,#111),.UNSPECIFIED.,.F.,.F.,(2,2),(0.00000000000000000E0,1.00000000000000000E0),.UNSPECIFIED.);
#113=CARTESIAN_POINT('',(3.06161699786838302E-17,7.50000000000000000E-1,0.00000000000000000E0));
#114=CARTESIAN_POINT('',(-4.99999999999999944E-1,7.50000000000000000E-1,0.00000000000000000E0));
#115=CARTESIAN_POINT('',(-5.00000000000000000E-1,2.50000000000000056E-1,0.00000000000000000E0));
#116=(BOUNDED_CURVE()B_SPLINE_CURVE(2,(#113,#114,#115),.UNSPECIFIED.,.F.,.F.)B_SPLINE_CURVE_WITH_KNOTS((3,3),(0.00000000000000000E0,1.00000000000000000E0),.UNSPECIFIED.)CURVE()GEOMETRIC_REPRESENTATION_ITEM()RATIONAL_B_SPLINE_CURVE((1.00000000000000000E0,7.07106781186547573E-1,1.00000000000000000E0))REPRESENTATION_ITEM(''));
#117=CARTESIAN_POINT('',(-5.00000000000000000E-1,2.50000000000000056E-1,0.00000000000000000E0));
#118=CARTESIAN_POINT('',(-1.00000000000000000E0,5.00000000000000111E-1,1.00000000000000000E1));
#119=B_SPLINE_CURVE_WITH_KNOTS('',1,(#117,#118),.UNSPECIFIED.,.F.,.F.,(2,2),(0.00000000000000000E0,1.00000000000000000E0),.UNSPECIFIED.);
#120=CARTESIAN_POINT('',(6.12323399573676604E-17,1.00000000000000000E0,1.00000000000000000E1));
#121=CARTESIAN_POINT('',(-9.99999999999999889E-1,1.00000000000000000E0,1.00000000000000000E1));
#122=CARTESIAN_POINT('',(-1.00000000000000000E0,5.00000000000000111E-1,1.00000000000000000E1));
#123=(BOUNDED_CURVE()B_SPLINE_CURVE(2,(#120,#121,#122),.UNSPECIFIED.,.F.,.F.)B_SPLINE_CURVE_WITH_KNOTS((3,3),(0.00000000000000000E0,1.00000000000000000E0),.UNSPECIFIED.)CURVE()GEOMETRIC_REPRESENTATION_ITEM()RATIONAL_B_SPLINE_CURVE((1.00000000000000000E0,7.07106781186547573E-1,1.00000000000000000E0))REPRESENTATION_ITEM(''));
#124=CARTESIAN_POINT('',(-5.00000000000000000E-1,2.50000000000000056E-1,0.00000000000000000E0));
#125=CARTESIAN_POINT('',(-5.00000000000000111E-1,-2.49999999999999944E-1,0.00000000000000000E0));
#126=CARTESIAN_POINT('',(-9.18485099360514844E-17,-2.50000000000000000E-1,0.00000000000000000E0));
#127=(BOUNDED_CURVE()B_SPLINE_CURVE(2,(#124,#125,#126),.UNSPECIFIED.,.F.,.F.)B_SPLINE_CURVE_WITH_KNOTS((3,3),(0.00000000000000000E0,1.00000000000000000E0),.UNSPECIFIED.)CURVE()GEOMETRIC_REPRESENTATION_ITEM()RATIONAL_B_SPLINE_CURVE((1.00000000000000000E0,7.07106781186547573E-1,1.00000000000000000E0))REPRESENTATION_ITEM(''));
#128=CARTESIAN_POINT('',(-9.18485099360514844E-17,-2.50000000000000000E-1,0.00000000000000000E0));
#129=CARTESIAN_POINT('',(-1.83697019872102969E-16,0.00000000000000000E0,1.00000000000000000E1));
#130=B_SPLINE_CURVE_WITH_KNOTS('',1,(#128,#129),.UNSPECIFIED.,.F.,.F.,(2,2),(0.00000000000000000E0,1.00000000000000000E0),.UNSPECIFIED.);
#131=CARTESIAN_POINT('',(-1.00000000000000000E0,5.00000000000000111E-1,1.00000000000000000E1));
#132=CARTESIAN_POINT('',(-1.00000000000000022E0,5.55111512312578270E-17,1.00000000000000000E1));
#133=CARTESIAN_POINT('',(-1.83697019872102969E-16,0.00000000000000000E0,1.00000000000000000E1));
#134=(BOUNDED_CURVE()B_SPLINE_CURVE(2,(#131,#132,#133),.UNSPECIFIED.,.F.,.F.)B_SPLINE_CURVE_WITH_KNOTS((3,3),(0.00000000000000000E0,1.00000000000000000E0),.UNSPECIFIED.)CURVE()GEOMETRIC_REPRESENTATION_ITEM()RATIONAL_B_SPLINE_CURVE((1.00000000000000000E0,7.07106781186547573E-1,1.00000000000000000E0))REPRESENTATION_ITEM(''));
#135=CARTESIAN_POINT('',(5.00000000000000000E-1,2.50000000000000000E-1,0.00000000000000000E0));
#136=CARTESIAN_POINT('',(4.99999999999999833E-1,-2.50000000000000111E-1,0.00000000000000000E0));
#137=CARTESIAN_POINT('',(-9.18485099360514844E-17,-2.50000000000000000E-1,0.00000000000000000E0));
#138=(BOUNDED_CURVE()B_SPLINE_CURVE(2,(#135,#136,#137),.UNSPECIFIED.,.F.,.F.)B_SPLINE_CURVE_WITH_KNOTS((3,3),(0.00000000000000000E0,1.00000000000000000E0),.UNSPECIFIED.)CURVE()GEOMETRIC_REPRESENTATION_ITEM()RATIONAL_B_SPLINE_CURVE((1.00000000000000000E0,7.07106781186547573E-1,1.00000000000000000E0))REPRESENTATION_ITEM(''));
#139=CARTESIAN_POINT('',(1.00000000000000000E0,5.00000000000000000E-1,1.00000000000000000E1));
#140=CARTESIAN_POINT('',(9.99999999999999667E-1,-1.11022302462515654E-16,1.00000000000000000E1));
#141=CARTESIAN_POINT('',(-1.83697019872102969E-16,0.00000000000000000E0,1.00000000000000000E1));
#142=(BOUNDED_CURVE()B_SPLINE_CURVE(2,(#139,#140,#141),.UNSPECIFIED.,.F.,.F.)B_SPLINE_CURVE_WITH_KNOTS((3,3),(0.00000000000000000E0,1.00000000000000000E0),.UNSPECIFIED.)CURVE()GEOMETRIC_REPRESENTATION_ITEM()RATIONAL_B_SPLINE_CURVE((1.00000000000000000E0,7.07106781186547573E-1,1.00000000000000000E0))REPRESENTATION_ITEM(''));
#143=CARTESIAN_POINT('',(2.00000000000000011E-1,2.50000000000000000E-1,0.00000000000000000E0));
#144=CARTESIAN_POINT('',(2.00000000000000011E-1,5.00000000000000167E-2,0.00000000000000000E0));
#145=CARTESIAN_POINT('',(1.22464679914735327E-17,4.99999999999999889E-2,0.00000000000000000E0));
#146=(BOUNDED_CURVE()B_SPLINE_CURVE(2,(#143,#144,#145),.UNSPECIFIED.,.F.,.F.)B_SPLINE_CURVE_WITH_KNOTS((3,3),(0.00000000000000000E0,1.00000000000000000E0),.UNSPECIFIED.)CURVE()GEOMETRIC_REPRESENTATION_ITEM()RATIONAL_B_SPLINE_CURVE((1.00000000000000000E0,7.07106781186547573E-1,1.00000000000000000E0))REPRESENTATION_ITEM(''));
#147=CARTESIAN_POINT('',(1.22464679914735327E-17,4.99999999999999889E-2,0.00000000000000000E0));
#148=CARTESIAN_POINT('',(2.44929359829470654E-17,2.99999999999999989E-1,1.00000000000000000E1));
#149=B_SPLINE_CURVE_WITH_KNOTS('',1,(#147,#148),.UNSPECIFIED.,.F.,.F.,(2,2),(0.00000000000000000E0,1.00000000000000000E0),.UNSPECIFIED.);
#150=CARTESIAN_POINT('',(4.00000000000000022E-1,5.00000000000000000E-1,1.00000000000000000E1));
#151=CARTESIAN_POINT('',(4.00000000000000022E-1,3.00000000000000044E-1,1.00000000000000000E1));
#152=CARTESIAN_POINT('',(2.44929359829470654E-17,2.99999999999999989E-1,1.00000000000000000E1));
#153=(BOUNDED_CURVE()B_SPLINE_CURVE(2,(#150,#151,#152),.UNSPECIFIED.,.F.,.F.)B_SPLINE_CURVE_WITH_KNOTS((3,3),(0.00000000000000000E0,1.00000000000000000E0),.UNSPECIFIED.)CURVE()GEOMETRIC_REPRESENTATION_ITEM()RATIONAL_B_SPLINE_CURVE((1.00000000000000000E0,7.07106781186547573E-1,1.00000000000000000E0))REPRESENTATION_ITEM(''));
#154=CARTESIAN_POINT('',(2.00000000000000011E-1,2.50000000000000000E-1,0.00000000000000000E0));
#155=CARTESIAN_POINT('',(4.00000000000000022E-1,5.00000000000000000E-1,1.00000000000000000E1));
#156=B_SPLINE_CURVE_WITH_KNOTS('',1,(#154,#155),.UNSPECIFIED.,.F.,.F.,(2,2),(0.00000000000000000E0,1.00000000000000000E0),.UNSPECIFIED.);
#157=CARTESIAN_POINT('',(1.22464679914735327E-17,4.99999999999999889E-2,0.00000000000000000E0));
#158=CARTESIAN_POINT('',(-1.99999999999999983E-1,4.99999999999999889E-2,0.00000000000000000E0));
#159=CARTESIAN_POINT('',(-2.00000000000000011E-1,2.49999999999999972E-1,0.00000000000000000E0));
#160=(BOUNDED_CURVE()B_SPLINE_CURVE(2,(#157,#158,#159),.UNSPECIFIED.,.F.,.F.)B_SPLINE_CURVE_WITH_KNOTS((3,3),(0.00000000000000000E0,1.00000000000000000E0),.UNSPECIFIED.)CURVE()GEOMETRIC_REPRESENTATION_ITEM()RATIONAL_B_SPLINE_CURVE((1.00000000000000000E0,7.07106781186547573E-1,1.00000000000000000E0))REPRESENTATION_ITEM(''));
#161=CARTESIAN_POINT('',(-2.00000000000000011E-1,2.49999999999999972E-1,0.00000000000000000E0));
#162=CARTESIAN_POINT('',(-4.00000000000000022E-1,5.00000000000000000E-1,1.00000000000000000E1));
#163=B_SPLINE_CURVE_WITH_KNOTS('',1,(#161,#162),.UNSPECIFIED.,.F.,.F.,(2,2),(0.00000000000000000E0,1.00000000000000000E0),.UNSPECIFIED.);
#164=CARTESIAN_POINT('',(2.44929359829470654E-17,2.99999999999999989E-1,1.00000000000000000E1));
#165=CARTESIAN_POINT('',(-3.99999999999999967E-1,2.99999999999999989E-1,1.00000000000000000E1));
#166=CARTESIAN_POINT('',(-4.00000000000000022E-1,5.00000000000000000E-1,1.00000000000000000E1));
#167=(BOUNDED_CURVE()B_SPLINE_CURVE(2,(#164,#165,#166),.UNSPECIFIED.,.F.,.F.)B_SPLINE_CURVE_WITH_KNOTS((3,3),(0.00000000000000000E0,1.00000000000000000E0),.UNSPECIFIED.)CURVE()GEOMETRIC_REPRESENTATION_ITEM()RATIONAL_B_SPLINE_CURVE((1.00000000000000000E0,7.07106781186547573E-1,1.00000000000000000E0))REPRESENTATION_ITEM(''));
#168=CARTESIAN_POINT('',(-2.00000000000000011E-1,2.49999999999999972E-1,0.00000000000000000E0));
#169=CARTESIAN_POINT('',(-2.00000000000000011E-1,4.49999999999999956E-1,0.00000000000000000E0));
#170=CARTESIAN_POINT('',(-3.67394039744205950E-17,4.50000000000000011E-1,0.00000000000000000E0));
#171=(BOUNDED_CURVE()B_SPLINE_CURVE(2,(#168,#169,#170),.UNSPECIFIED.,.F.,.F.)B_SPLINE_CURVE_WITH_KNOTS((3,3),(0.00000000000000000E0,1.00000000000000000E0),.UNSPECIFIED.)CURVE()GEOMETRIC_REPRESENTATION_ITEM()RATIONAL_B_SPLINE_CURVE((1.00000000000000000E0,7.07106781186547573E-1,1.00000000000000000E0))REPRESENTATION_ITEM(''));
#172=CARTESIAN_POINT('',(-3.67394039744205950E-17,4.50000000000000011E-1,0.00000000000000000E0));
#173=CARTESIAN_POINT('',(-7.34788079488411900E-17,6.99999999999999956E-1,1.00000000000000000E1));
#174=B_SPLINE_CURVE_WITH_KNOTS('',1,(#172,#173),.UNSPECIFIED.,.F.,.F.,(2,2),(0.00000000000000000E0,1.00000000000000000E0),.UNSPECIFIED.);
#175=CARTESIAN_POINT('',(-4.00000000000000022E-1,5.00000000000000000E-1,1.00000000000000000E1));
#176=CARTESIAN_POINT('',(-4.00000000000000022E-1,6.99999999999999956E-1,1.00000000000000000E1));
#177=CARTESIAN_POINT('',(-7.34788079488411900E-17,6.99999999999999956E-1,1.00000000000000000E1));
#178=(BOUNDED_CURVE()B_SPLINE_CURVE(2,(#175,#176,#177),.UNSPECIFIED.,.F.,.F.)B_SPLINE_CURVE_WITH_KNOTS((3,3),(0.00000000000000000E0,1.00000000000000000E0),.UNSPECIFIED.)CURVE()GEOMETRIC_REPRESENTATION_ITEM()RATIONAL_B_SPLINE_CURVE((1.00000000000000000E0,7.07106781186547573E-1,1.00000000000000000E0))REPRESENTATION_ITEM(''));
#179=CARTESIAN_POINT('',(2.00000000000000011E-1,2.50000000000000000E-1,0.00000000000000000E0));
#180=CARTESIAN_POINT('',(1.99999999999999956E-1,4.50000000000000011E-1,0.00000000000000000E0));
#181=CARTESIAN_POINT('',(-3.67394039744205950E-17,4.50000000000000011E-1,0.00000000000000000E0));
#182=(BOUNDED_CURVE()B_SPLINE_CURVE(2,(#179,#180,#181),.UNSPECIFIED.,.F.,.F.)B_SPLINE_CURVE_WITH_KNOTS((3,3),(0.00000000000000000E0,1.00000000000000000E0),.UNSPECIFIED.)CURVE()GEOMETRIC_REPRESENTATION_ITEM()RATIONAL_B_SPLINE_CURVE((1.00000000000000000E0,7.07106781186547573E-1,1.00000000000000000E0))REPRESENTATION_ITEM(''));
#183=CARTESIAN_POINT('',(4.00000000000000022E-1,5.00000000000000000E-1,1.00000000000000000E1));
#184=CARTESIAN_POINT('',(3.99999999999999911E-1,6.99999999999999956E-1,1.00000000000000000E1));
#185=CARTESIAN_POINT('',(-7.34788079488411900E-17,6.99999999999999956E-1,1.00000000000000000E1));
#186=(BOUNDED_CURVE()B_SPLINE_CURVE(2,(#183,#184,#185),.UNSPECIFIED.,.F.,.F.)B_SPLINE_CURVE_WITH_KNOTS((3,3),(0.00000000000000000E0,1.00000000000000000E0),.UNSPECIFIED.)CURVE()GEOMETRIC_REPRESENTATION_ITEM()RATIONAL_B_SPLINE_CURVE((1.00000000000000000E0,7.07106781186547573E-1,1.00000000000000000E0))REPRESENTATION_ITEM(''));
#187=(GEOMETRIC_REPRESENTATION_CONTEXT(2)REPRESENTATION_CONTEXT('','2D'));
#188=CARTESIAN_POINT('',(0.00000000000000000E0,0.00000000000000000E0));
#189=CARTESIAN_POINT('',(1.00000000000000000E0,0.00000000000000000E0));
#190=B_SPLINE_CURVE_WITH_KNOTS('',1,(#188,#189),.UNSPECIFIED.,.F.,.F.,(2,2),(0.00000000000000000E0,1.00000000000000000E0),.UNSPECIFIED.);
#191=DEFINITIONAL_REPRESENTATION('',(#190),#187);
#192=PCURVE('',#39,#191);
#193=CARTESIAN_POINT('',(1.00000000000000000E0,0.00000000000000000E0));
#194=CARTESIAN_POINT('',(1.00000000000000000E0,1.00000000000000000E0));
#195=B_SPLINE_CURVE_WITH_KNOTS('',1,(#193,#194),.UNSPECIFIED.,.F.,.F.,(2,2),(0.00000000000000000E0,1.00000000000000000E0),.UNSPECIFIED.);
#196=DEFINITIONAL_REPRESENTATION('',(#195),#187);
#197=PCURVE('',#39,#196);
#198=CARTESIAN_POINT('',(1.00000000000000000E0,1.00000000000000000E0));
#199=CARTESIAN_POINT('',(0.00000000000000000E0,1.00000000000000000E0));
#200=B_SPLINE_CURVE_WITH_KNOTS('',1,(#198,#199),.UNSPECIFIED.,.F.,.F.,(2,2),(0.00000000000000000E0,1.00000000000000000E0),.UNSPECIFIED.);
#201=DEFINITIONAL_REPRESENTATION('',(#200),#187);
#202=PCURVE('',#39,#201);
#203=CARTESIAN_POINT('',(0.00000000000000000E0,1.00000000000000000E0));
#204=CARTESIAN_POINT('',(0.00000000000000000E0,0.00000000000000000E0));
#205=B_SPLINE_CURVE_WITH_KNOTS('',1,(#203,#204),.UNSPECIFIED.,.F.,.F.,(2,2),(0.00000000000000000E0,1.00000000000000000E0),.UNSPECIFIED.);
#206=DEFINITIONAL_REPRESENTATION('',(#205),#187);
#207=PCURVE('',#39,#206);
#208=CARTESIAN_POINT('',(0.00000000000000000E0,0.00000000000000000E0));
#209=CARTESIAN_POINT('',(1.00000000000000000E0,0.00000000000000000E0));
#210=B_SPLINE_CURVE_WITH_KNOTS('',1,(#208,#209),.UNSPECIFIED.,.F.,.F.,(2,2),(0.00000000000000000E0,1.00000000000000000E0),.UNSPECIFIED.);
#211=DEFINITIONAL_REPRESENTATION('',(#210),#187);
#212=PCURVE('',#46,#211);
#213=CARTESIAN_POINT('',(1.00000000000000000E0,0.00000000000000000E0));
#214=CARTESIAN_POINT('',(1.00000000000000000E0,1.00000000000000000E0));
#215=B_SPLINE_CURVE_WITH_KNOTS('',1,(#213,#214),.UNSPECIFIED.,.F.,.F.,(2,2),(0.00000000000000000E0,1.00000000000000000E0),.UNSPECIFIED.);
#216=DEFINITIONAL_REPRESENTATION('',(#215),#187);
#217=PCURVE('',#46,#216);
#218=CARTESIAN_POINT('',(1.00000000000000000E0,1.00000000000000000E0));
#219=CARTESIAN_POINT('',(0.00000000000000000E0,1.00000000000000000E0));
#220=B_SPLINE_CURVE_WITH_KNOTS('',1,(#218,#219),.UNSPECIFIED.,.F.,.F.,(2,2),(0.00000000000000000E0,1.00000000000000000E0),.UNSPECIFIED.);
#221=DEFINITIONAL_REPRESENTATION('',(#220),#187);
#222=PCURVE('',#46,#221);
#223=CARTESIAN_POINT('',(0.00000000000000000E0,1.00000000000000000E0));
#224=CARTESIAN_POINT('',(0.00000000000000000E0,0.00000000000000000E0));
#225=B_SPLINE_CURVE_WITH_KNOTS('',1,(#223,#224),.UNSPECIFIED.,.F.,.F.,(2,2),(0.00000000000000000E0,1.00000000000000000E0),.UNSPECIFIED.);
#226=DEFINITIONAL_REPRESENTATION('',(#225),#187);
#227=PCURVE('',#46,#226);
#228=CARTESIAN_POINT('',(0.00000000000000000E0,0.00000000000000000E0));
#229=CARTESIAN_POINT('',(1.00000000000000000E0,0.00000000000000000E0));
#230=B_SPLINE_CURVE_WITH_KNOTS('',1,(#228,#229),.UNSPECIFIED.,.F.,.F.,(2,2),(0.00000000000000000E0,1.00000000000000000E0),.UNSPECIFIED.);
#231=DEFINITIONAL_REPRESENTATION('',(#230),#187);
#232=PCURVE('',#53,#231);
#233=CARTESIAN_POINT('',(1.00000000000000000E0,0.00000000000000000E0));
#234=CARTESIAN_POINT('',(1.00000000000000000E0,1.00000000000000000E0));
#235=B_SPLINE_CURVE_WITH_KNOTS('',1,(#233,#234),.UNSPECIFIED.,.F.,.F.,(2,2),(0.00000000000000000E0,1.00000000000000000E0),.UNSPECIFIED.);
#236=DEFINITIONAL_REPRESENTATION('',(#235),#187);
#237=PCURVE('',#53,#236);
#238=CARTESIAN_POINT('',(1.00000000000000000E0,1.00000000000000000E0));
#239=CARTESIAN_POINT('',(0.00000000000000000E0,1.00000000000000000E0));
#240=B_SPLINE_CURVE_WITH_KNOTS('',1,(#238,#239),.UNSPECIFIED.,.F.,.F.,(2,2),(0.00000000000000000E0,1.00000000000000000E0),.UNSPECIFIED.);
#241=DEFINITIONAL_REPRESENTATION('',(#240),#187);
#242=PCURVE('',#53,#241);
#243=CARTESIAN_POINT('',(0.00000000000000000E0,1.00000000000000000E0));
#244=CARTESIAN_POINT('',(0.00000000000000000E0,0.00000000000000000E0));
#245=B_SPLINE_CURVE_WITH_KNOTS('',1,(#243,#244),.UNSPECIFIED.,.F.,.F.,(2,2),(0.00000000000000000E0,1.00000000000000000E0),.UNSPECIFIED.);
#246=DEFINITIONAL_REPRESENTATION('',(#245),#187);
#247=PCURVE('',#53,#246);
#248=CARTESIAN_POINT('',(0.00000000000000000E0,0.00000000000000000E0));
#249=CARTESIAN_POINT('',(1.00000000000000000E0,0.00000000000000000E0));
#250=B_SPLINE_CURVE_WITH_KNOTS('',1,(#248,#249),.UNSPECIFIED.,.F.,.F.,(2,2),(0.00000000000000000E0,1.00000000000000000E0),.UNSPECIFIED.);
#251=DEFINITIONAL_REPRESENTATION('',(#250),#187);
#252=PCURVE('',#60,#251);
#253=CARTESIAN_POINT('',(1.00000000000000000E0,0.00000000000000000E0));
#254=CARTESIAN_POINT('',(1.00000000000000000E0,1.00000000000000000E0));
#255=B_SPLINE_CURVE_WITH_KNOTS('',1,(#253,#254),.UNSPECIFIED.,.F.,.F.,(2,2),(0.00000000000000000E0,1.00000000000000000E0),.UNSPECIFIED.);
#256=DEFINITIONAL_REPRESENTATION('',(#255),#187);
#257=PCURVE('',#60,#256);
#258=CARTESIAN_POINT('',(1.00000000000000000E0,1.00000000000000000E0));
#259=CARTESIAN_POINT('',(0.00000000000000000E0,1.00000000000000000E0));
#260=B_SPLINE_CURVE_WITH_KNOTS('',1,(#258,#259),.UNSPECIFIED.,.F.,.F.,(2,2),(0.00000000000000000E0,1.00000000000000000E0),.UNSPECIFIED.);
#261=DEFINITIONAL_REPRESENTATION('',(#260),#187);
#262=PCURVE('',#60,#261);
#263=CARTESIAN_POINT('',(0.00000000000000000E0,1.00000000000000000E0));
#264=CARTESIAN_POINT('',(0.00000000000000000E0,0.00000000000000000E0));
#265=B_SPLINE_CURVE_WITH_KNOTS('',1,(#263,#264),.UNSPECIFIED.,.F.,.F.,(2,2),(0.00000000000000000E0,1.00000000000000000E0),.UNSPECIFIED.);
#266=DEFINITIONAL_REPRESENTATION('',(#265),#187);
#267=PCURVE('',#60,#266);
#268=CARTESIAN_POINT('',(0.00000000000000000E0,0.00000000000000000E0));
#269=CARTESIAN_POINT('',(1.00000000000000000E0,0.00000000000000000E0));
#270=B_SPLINE_CURVE_WITH_KNOTS('',1,(#268,#269),.UNSPECIFIED.,.F.,.F.,(2,2),(0.00000000000000000E0,1.00000000000000000E0),.UNSPECIFIED.);
#271=DEFINITIONAL_REPRESENTATION('',(#270),#187);
#272=PCURVE('',#67,#271);
#273=CARTESIAN_POINT('',(1.00000000000000000E0,0.00000000000000000E0));
#274=CARTESIAN_POINT('',(1.00000000000000000E0,1.00000000000000000E0));
#275=B_SPLINE_CURVE_WITH_KNOTS('',1,(#273,#274),.UNSPECIFIED.,.F.,.F.,(2,2),(0.00000000000000000E0,1.00000000000000000E0),.UNSPECIFIED.);
#276=DEFINITIONAL_REPRESENTATION('',(#275),#187);
#277=PCURVE('',#67,#276);
#278=CARTESIAN_POINT('',(1.00000000000000000E0,1.00000000000000000E0));
#279=CARTESIAN_POINT('',(0.00000000000000000E0,1.00000000000000000E0));
#280=B_SPLINE_CURVE_WITH_KNOTS('',1,(#278,#279),.UNSPECIFIED.,.F.,.F.,(2,2),(0.00000000000000000E0,1.00000000000000000E0),.UNSPECIFIED.);
#281=DEFINITIONAL_REPRESENTATION('',(#280),#187);
#282=PCURVE('',#67,#281);
#283=CARTESIAN_POINT('',(0.00000000000000000E0,1.00000000000000000E0));
#284=CARTESIAN_POINT('',(0.00000000000000000E0,0.00000000000000000E0));
#285=B_SPLINE_CURVE_WITH_KNOTS('',1,(#283,#284),.UNSPECIFIED.,.F.,.F.,(2,2),(0.00000000000000000E0,1.00000000000000000E0),.UNSPECIFIED.);
#286=DEFINITIONAL_REPRESENTATION('',(#285),#187);
#287=PCURVE('',#67,#286);
#288=CARTESIAN_POINT('',(0.00000000000000000E0,0.00000000000000000E0));
#289=CARTESIAN_POINT('',(1.00000000000000000E0,0.00000000000000000E0));
#290=B_SPLINE_CURVE_WITH_KNOTS('',1,(#288,#289),.UNSPECIFIED.,.F.,.F.,(2,2),(0.00000000000000000E0,1.00000000000000000E0),.UNSPECIFIED.);
#291=DEFINITIONAL_REPRESENTATION('',(#290),#187);
#292=PCURVE('',#74,#291);
#293=CARTESIAN_POINT('',(1.00000000000000000E0,0.00000000000000000E0));
#294=CARTESIAN_POINT('',(1.00000000000000000E0,1.00000000000000000E0));
#295=B_SPLINE_CURVE_WITH_KNOTS('',1,(#293,#294),.UNSPECIFIED.,.F.,.F.,(2,2),(0.00000000000000000E0,1.00000000000000000E0),.UNSPECIFIED.);
#296=DEFINITIONAL_REPRESENTATION('',(#295),#187);
#297=PCURVE('',#74,#296);
#298=CARTESIAN_POINT('',(1.00000000000000000E0,1.00000000000000000E0));
#299=CARTESIAN_POINT('',(0.00000000000000000E0,1.00000000000000000E0));
#300=B_SPLINE_CURVE_WITH_KNOTS('',1,(#298,#299),.UNSPECIFIED.,.F.,.F.,(2,2),(0.00000000000000000E0,1.00000000000000000E0),.UNSPECIFIED.);
#301=DEFINITIONAL_REPRESENTATION('',(#300),#187);
#302=PCURVE('',#74,#301);
#303=CARTESIAN_POINT('',(0.00000000000000000E0,1.00000000000000000E0));
#304=CARTESIAN_POINT('',(0.00000000000000000E0,0.00000000000000000E0));
#305=B_SPLINE_CURVE_WITH_KNOTS('',1,(#303,#304),.UNSPECIFIED.,.F.,.F.,(2,2),(0.00000000000000000E0,1.00000000000000000E0),.UNSPECIFIED.);
#306=DEFINITIONAL_REPRESENTATION('',(#305),#187);
#307=PCURVE('',#74,#306);
#308=CARTESIAN_POINT('',(0.00000000000000000E0,0.00000000000000000E0));
#309=CARTESIAN_POINT('',(1.00000000000000000E0,0.00000000000000000E0));
#310=B_SPLINE_CURVE_WITH_KNOTS('',1,(#308,#309),.UNSPECIFIED.,.F.,.F.,(2,2),(0.00000000000000000E0,1.00000000000000000E0),.UNSPECIFIED.);
#311=DEFINITIONAL_REPRESENTATION('',(#310),#187);
#312=PCURVE('',#81,#311);
#313=CARTESIAN_POINT('',(1.00000000000000000E0,0.00000000000000000E0));
#314=CARTESIAN_POINT('',(1.00000000000000000E0,1.00000000000000000E0));
#315=B_SPLINE_CURVE_WITH_KNOTS('',1,(#313,#314),.UNSPECIFIED.,.F.,.F.,(2,2),(0.00000000000000000E0,1.00000000000000000E0),.UNSPECIFIED.);
#316=DEFINITIONAL_REPRESENTATION('',(#315),#187);
#317=PCURVE('',#81,#316);
#318=CARTESIAN_POINT('',(1.00000000000000000E0,1.00000000000000000E0));
#319=CARTESIAN_POINT('',(0.00000000000000000E0,1.00000000000000000E0));
#320=B_SPLINE_CURVE_WITH_KNOTS('',1,(#318,#319),.UNSPECIFIED.,.F.,.F.,(2,2),(0.00000000000000000E0,1.00000000000000000E0),.UNSPECIFIED.);
#321=DEFINITIONAL_REPRESENTATION('',(#320),#187);
#322=PCURVE('',#81,#321);
#323=CARTESIAN_POINT('',(0.00000000000000000E0,1.00000000000000000E0));
#324=CARTESIAN_POINT('',(0.00000000000000000E0,0.00000000000000000E0));
#325=B_SPLINE_CURVE_WITH_KNOTS('',1,(#323,#324),.UNSPECIFIED.,.F.,.F.,(2,2),(0.00000000000000000E0,1.00000000000000000E0),.UNSPECIFIED.);
#326=DEFINITIONAL_REPRESENTATION('',(#325),#187);
#327=PCURVE('',#81,#326);
#328=CARTESIAN_POINT('',(0.00000000000000000E0,0.00000000000000000E0));
#329=CARTESIAN_POINT('',(1.00000000000000000E0,0.00000000000000000E0));
#330=B_SPLINE_CURVE_WITH_KNOTS('',1,(#328,#329),.UNSPECIFIED.,.F.,.F.,(2,2),(0.00000000000000000E0,1.00000000000000000E0),.UNSPECIFIED.);
#331=DEFINITIONAL_REPRESENTATION('',(#330),#187);
#332=PCURVE('',#88,#331);
#333=CARTESIAN_POINT('',(1.00000000000000000E0,0.00000000000000000E0));
#334=CARTESIAN_POINT('',(1.00000000000000000E0,1.00000000000000000E0));
#335=B_SPLINE_CURVE_WITH_KNOTS('',1,(#333,#334),.UNSPECIFIED.,.F.,.F.,(2,2),(0.00000000000000000E0,1.00000000000000000E0),.UNSPECIFIED.);
#336=DEFINITIONAL_REPRESENTATION('',(#335),#187);
#337=PCURVE('',#88,#336);
#338=CARTESIAN_POINT('',(1.00000000000000000E0,1.00000000000000000E0));
#339=CARTESIAN_POINT('',(0.00000000000000000E0,1.00000000000000000E0));
#340=B_SPLINE_CURVE_WITH_KNOTS('',1,(#338,#339),.UNSPECIFIED.,.F.,.F.,(2,2),(0.00000000000000000E0,1.00000000000000000E0),.UNSPECIFIED.);
#341=DEFINITIONAL_REPRESENTATION('',(#340),#187);
#342=PCURVE('',#88,#341);
#343=CARTESIAN_POINT('',(0.00000000000000000E0,1.00000000000000000E0));
#344=CARTESIAN_POINT('',(0.00000000000000000E0,0.00000000000000000E0));
#345=B_SPLINE_CURVE_WITH_KNOTS('',1,(#343,#344),.UNSPECIFIED.,.F.,.F.,(2,2),(0.00000000000000000E0,1.00000000000000000E0),.UNSPECIFIED.);
#346=DEFINITIONAL_REPRESENTATION('',(#345),#187);
#347=PCURVE('',#88,#346);
#348=CARTESIAN_POINT('',(-5.00000000000000111E-1,2.50000000000000000E-1));
#349=CARTESIAN_POINT('',(-4.99999999999999944E-1,-2.50000000000000111E-1));
#350=CARTESIAN_POINT('',(-1.91737925264641697E-17,-2.50000000000000000E-1));
#351=(BOUNDED_CURVE()B_SPLINE_CURVE(2,(#348,#349,#350),.UNSPECIFIED.,.F.,.F.)B_SPLINE_CURVE_WITH_KNOTS((3,3),(0.00000000000000000E0,1.00000000000000000E0),.UNSPECIFIED.)CURVE()GEOMETRIC_REPRESENTATION_ITEM()RATIONAL_B_SPLINE_CURVE((1.00000000000000000E0,7.07106781186547573E-1,1.00000000000000000E0))REPRESENTATION_ITEM(''));
#352=DEFINITIONAL_REPRESENTATION('',(#351),#187);
#353=PCURVE('',#93,#352);
#354=CARTESIAN_POINT('',(-1.91737925264641697E-17,-2.50000000000000000E-1));
#355=CARTESIAN_POINT('',(5.00000000000000000E-1,-2.49999999999999944E-1));
#356=CARTESIAN_POINT('',(4.99999999999999889E-1,2.50000000000000056E-1));
#357=(BOUNDED_CURVE()B_SPLINE_CURVE(2,(#354,#355,#356),.UNSPECIFIED.,.F.,.F.)B_SPLINE_CURVE_WITH_KNOTS((3,3),(0.00000000000000000E0,1.00000000000000000E0),.UNSPECIFIED.)CURVE()GEOMETRIC_REPRESENTATION_ITEM()RATIONAL_B_SPLINE_CURVE((1.00000000000000000E0,7.07106781186547573E-1,1.00000000000000000E0))REPRESENTATION_ITEM(''));
#358=DEFINITIONAL_REPRESENTATION('',(#357),#187);
#359=PCURVE('',#93,#358);
#360=CARTESIAN_POINT('',(4.99999999999999889E-1,2.50000000000000056E-1));
#361=CARTESIAN_POINT('',(4.99999999999999833E-1,7.50000000000000000E-1));
#362=CARTESIAN_POINT('',(-1.41638472441199490E-16,7.50000000000000000E-1));
#363=(BOUNDED_CURVE()B_SPLINE_CURVE(2,(#360,#361,#362),.UNSPECIFIED.,.F.,.F.)B_SPLINE_CURVE_WITH_KNOTS((3,3),(0.00000000000000000E0,1.00000000000000000E0),.UNSPECIFIED.)CURVE()GEOMETRIC_REPRESENTATION_ITEM()RATIONAL_B_SPLINE_CURVE((1.00000000000000000E0,7.07106781186547573E-1,1.00000000000000000E0))REPRESENTATION_ITEM(''));
#364=DEFINITIONAL_REPRESENTATION('',(#363),#187);
#365=PCURVE('',#93,#364);
#366=CARTESIAN_POINT('',(-1.41638472441199490E-16,7.50000000000000000E-1));
#367=CARTESIAN_POINT('',(-5.00000000000000111E-1,7.50000000000000000E-1));
#368=CARTESIAN_POINT('',(-5.00000000000000111E-1,2.50000000000000000E-1));
#369=(BOUNDED_CURVE()B_SPLINE_CURVE(2,(#366,#367,#368),.UNSPECIFIED.,.F.,.F.)B_SPLINE_CURVE_WITH_KNOTS((3,3),(0.00000000000000000E0,1.00000000000000000E0),.UNSPECIFIED.)CURVE()GEOMETRIC_REPRESENTATION_ITEM()RATIONAL_B_SPLINE_CURVE((1.00000000000000000E0,7.07106781186547573E-1,1.00000000000000000E0))REPRESENTATION_ITEM(''));
#370=DEFINITIONAL_REPRESENTATION('',(#369),#187);
#371=PCURVE('',#93,#370);
#372=CARTESIAN_POINT('',(-2.00000000000000122E-1,2.50000000000000000E-1));
#373=CARTESIAN_POINT('',(-2.00000000000000067E-1,4.50000000000000011E-1));
#374=CARTESIAN_POINT('',(-7.42828984880950652E-17,4.50000000000000011E-1));
#375=(BOUNDED_CURVE()B_SPLINE_CURVE(2,(#372,#373,#374),.UNSPECIFIED.,.F.,.F.)B_SPLINE_CURVE_WITH_KNOTS((3,3),(0.00000000000000000E0,1.00000000000000000E0),.UNSPECIFIED.)CURVE()GEOMETRIC_REPRESENTATION_ITEM()RATIONAL_B_SPLINE_CURVE((1.00000000000000000E0,7.07106781186547573E-1,1.00000000000000000E0))REPRESENTATION_ITEM(''));
#376=DEFINITIONAL_REPRESENTATION('',(#375),#187);
#377=PCURVE('',#93,#376);
#378=CARTESIAN_POINT('',(-7.42828984880950652E-17,4.50000000000000011E-1));
#379=CARTESIAN_POINT('',(1.99999999999999900E-1,4.49999999999999956E-1));
#380=CARTESIAN_POINT('',(1.99999999999999900E-1,2.49999999999999972E-1));
#381=(BOUNDED_CURVE()B_SPLINE_CURVE(2,(#378,#379,#380),.UNSPECIFIED.,.F.,.F.)B_SPLINE_CURVE_WITH_KNOTS((3,3),(0.00000000000000000E0,1.00000000000000000E0),.UNSPECIFIED.)CURVE()GEOMETRIC_REPRESENTATION_ITEM()RATIONAL_B_SPLINE_CURVE((1.00000000000000000E0,7.07106781186547573E-1,1.00000000000000000E0))REPRESENTATION_ITEM(''));
#382=DEFINITIONAL_REPRESENTATION('',(#381),#187);
#383=PCURVE('',#93,#382);
#384=CARTESIAN_POINT('',(1.99999999999999900E-1,2.49999999999999972E-1));
#385=CARTESIAN_POINT('',(1.99999999999999872E-1,4.99999999999999889E-2));
#386=CARTESIAN_POINT('',(-1.23268770453989184E-16,4.99999999999999889E-2));
#387=(BOUNDED_CURVE()B_SPLINE_CURVE(2,(#384,#385,#386),.UNSPECIFIED.,.F.,.F.)B_SPLINE_CURVE_WITH_KNOTS((3,3),(0.00000000000000000E0,1.00000000000000000E0),.UNSPECIFIED.)CURVE()GEOMETRIC_REPRESENTATION_ITEM()RATIONAL_B_SPLINE_CURVE((1.00000000000000000E0,7.07106781186547573E-1,1.00000000000000000E0))REPRESENTATION_ITEM(''));
#388=DEFINITIONAL_REPRESENTATION('',(#387),#187);
#389=PCURVE('',#93,#388);
#390=CARTESIAN_POINT('',(-1.23268770453989184E-16,4.99999999999999889E-2));
#391=CARTESIAN_POINT('',(-2.00000000000000122E-1,5.00000000000000167E-2));
#392=CARTESIAN_POINT('',(-2.00000000000000122E-1,2.50000000000000000E-1));
#393=(BOUNDED_CURVE()B_SPLINE_CURVE(2,(#390,#391,#392),.UNSPECIFIED.,.F.,.F.)B_SPLINE_CURVE_WITH_KNOTS((3,3),(0.00000000000000000E0,1.00000000000000000E0),.UNSPECIFIED.)CURVE()GEOMETRIC_REPRESENTATION_ITEM()RATIONAL_B_SPLINE_CURVE((1.00000000000000000E0,7.07106781186547573E-1,1.00000000000000000E0))REPRESENTATION_ITEM(''));
#394=DEFINITIONAL_REPRESENTATION('',(#393),#187);
#395=PCURVE('',#93,#394);
#396=CARTESIAN_POINT('',(1.00000000000000000E0,5.00000000000000000E-1));
#397=CARTESIAN_POINT('',(1.00000000000000000E0,1.00000000000000000E0));
#398=CARTESIAN_POINT('',(6.12323399573676604E-17,1.00000000000000000E0));
#399=(BOUNDED_CURVE()B_SPLINE_CURVE(2,(#396,#397,#398),.UNSPECIFIED.,.F.,.F.)B_SPLINE_CURVE_WITH_KNOTS((3,3),(0.00000000000000000E0,1.00000000000000000E0),.UNSPECIFIED.)CURVE()GEOMETRIC_REPRESENTATION_ITEM()RATIONAL_B_SPLINE_CURVE((1.00000000000000000E0,7.07106781186547573E-1,1.00000000000000000E0))REPRESENTATION_ITEM(''));
#400=DEFINITIONAL_REPRESENTATION('',(#399),#187);
#401=PCURVE('',#98,#400);
#402=CARTESIAN_POINT('',(6.12323399573676604E-17,1.00000000000000000E0));
#403=CARTESIAN_POINT('',(-9.99999999999999889E-1,1.00000000000000000E0));
#404=CARTESIAN_POINT('',(-1.00000000000000000E0,5.00000000000000111E-1));
#405=(BOUNDED_CURVE()B_SPLINE_CURVE(2,(#402,#403,#404),.UNSPECIFIED.,.F.,.F.)B_SPLINE_CURVE_WITH_KNOTS((3,3),(0.00000000000000000E0,1.00000000000000000E0),.UNSPECIFIED.)CURVE()GEOMETRIC_REPRESENTATION_ITEM()RATIONAL_B_SPLINE_CURVE((1.00000000000000000E0,7.07106781186547573E-1,1.00000000000000000E0))REPRESENTATION_ITEM(''));
#406=DEFINITIONAL_REPRESENTATION('',(#405),#187);
#407=PCURVE('',#98,#406);
#408=CARTESIAN_POINT('',(-1.00000000000000000E0,5.00000000000000111E-1));
#409=CARTESIAN_POINT('',(-1.00000000000000022E0,5.55111512312578270E-17));
#410=CARTESIAN_POINT('',(-1.83697019872102969E-16,0.00000000000000000E0));
#411=(BOUNDED_CURVE()B_SPLINE_CURVE(2,(#408,#409,#410),.UNSPECIFIED.,.F.,.F.)B_SPLINE_CURVE_WITH_KNOTS((3,3),(0.00000000000000000E0,1.00000000000000000E0),.UNSPECIFIED.)CURVE()GEOMETRIC_REPRESENTATION_ITEM()RATIONAL_B_SPLINE_CURVE((1.00000000000000000E0,7.07106781186547573E-1,1.00000000000000000E0))REPRESENTATION_ITEM(''));
#412=DEFINITIONAL_REPRESENTATION('',(#411),#187);
#413=PCURVE('',#98,#412);
#414=CARTESIAN_POINT('',(-1.83697019872102969E-16,0.00000000000000000E0));
#415=CARTESIAN_POINT('',(9.99999999999999667E-1,-1.11022302462515654E-16));
#416=CARTESIAN_POINT('',(1.00000000000000000E0,5.00000000000000000E-1));
#417=(BOUNDED_CURVE()B_SPLINE_CURVE(2,(#414,#415,#416),.UNSPECIFIED.,.F.,.F.)B_SPLINE_CURVE_WITH_KNOTS((3,3),(0.00000000000000000E0,1.00000000000000000E0),.UNSPECIFIED.)CURVE()GEOMETRIC_REPRESENTATION_ITEM()RATIONAL_B_SPLINE_CURVE((1.00000000000000000E0,7.07106781186547573E-1,1.00000000000000000E0))REPRESENTATION_ITEM(''));
#418=DEFINITIONAL_REPRESENTATION('',(#417),#187);
#419=PCURVE('',#98,#418);
#420=CARTESIAN_POINT('',(4.00000000000000022E-1,5.00000000000000000E-1));
#421=CARTESIAN_POINT('',(4.00000000000000022E-1,3.00000000000000044E-1));
#422=CARTESIAN_POINT('',(2.44929359829470654E-17,2.99999999999999989E-1));
#423=(BOUNDED_CURVE()B_SPLINE_CURVE(2,(#420,#421,#422),.UNSPECIFIED.,.F.,.F.)B_SPLINE_CURVE_WITH_KNOTS((3,3),(0.00000000000000000E0,1.00000000000000000E0),.UNSPECIFIED.)CURVE()GEOMETRIC_REPRESENTATION_ITEM()RATIONAL_B_SPLINE_CURVE((1.00000000000000000E0,7.07106781186547573E-1,1.00000000000000000E0))REPRESENTATION_ITEM(''));
#424=DEFINITIONAL_REPRESENTATION('',(#423),#187);
#425=PCURVE('',#98,#424);
#426=CARTESIAN_POINT('',(2.44929359829470654E-17,2.99999999999999989E-1));
#427=CARTESIAN_POINT('',(-3.99999999999999967E-1,2.99999999999999989E-1));
#428=CARTESIAN_POINT('',(-4.00000000000000022E-1,5.00000000000000000E-1));
#429=(BOUNDED_CURVE()B_SPLINE_CURVE(2,(#426,#427,#428),.UNSPECIFIED.,.F.,.F.)B_SPLINE_CURVE_WITH_KNOTS((3,3),(0.00000000000000000E0,1.00000000000000000E0),.UNSPECIFIED.)CURVE()GEOMETRIC_REPRESENTATION_ITEM()RATIONAL_B_SPLINE_CURVE((1.00000000000000000E0,7.07106781186547573E-1,1.00000000000000000E0))REPRESENTATION_ITEM(''));
#430=DEFINITIONAL_REPRESENTATION('',(#429),#187);
#431=PCURVE('',#98,#430);
#432=CARTESIAN_POINT('',(-4.00000000000000022E-1,5.00000000000000000E-1));
#433=CARTESIAN_POINT('',(-4.00000000000000022E-1,6.99999999999999956E-1));
#434=CARTESIAN_POINT('',(-7.34788079488411900E-17,6.99999999999999956E-1));
#435=(BOUNDED_CURVE()B_SPLINE_CURVE(2,(#432,#433,#434),.UNSPECIFIED.,.F.,.F.)B_SPLINE_CURVE_WITH_KNOTS((3,3),(0.00000000000000000E0,1.00000000000000000E0),.UNSPECIFIED.)CURVE()GEOMETRIC_REPRESENTATION_ITEM()RATIONAL_B_SPLINE_CURVE((1.00000000000000000E0,7.07106781186547573E-1,1.00000000000000000E0))REPRESENTATION_ITEM(''));
#436=DEFINITIONAL_REPRESENTATION('',(#435),#187);
#437=PCURVE('',#98,#436);
#438=CARTESIAN_POINT('',(-7.34788079488411900E-17,6.99999999999999956E-1));
#439=CARTESIAN_POINT('',(3.99999999999999911E-1,6.99999999999999956E-1));
#440=CARTESIAN_POINT('',(4.00000000000000022E-1,5.00000000000000000E-1));
#441=(BOUNDED_CURVE()B_SPLINE_CURVE(2,(#438,#439,#440),.UNSPECIFIED.,.F.,.F.)B_SPLINE_CURVE_WITH_KNOTS((3,3),(0.00000000000000000E0,1.00000000000000000E0),.UNSPECIFIED.)CURVE()GEOMETRIC_REPRESENTATION_ITEM()RATIONAL_B_SPLINE_CURVE((1.00000000000000000E0,7.07106781186547573E-1,1.00000000000000000E0))REPRESENTATION_ITEM(''));
#442=DEFINITIONAL_REPRESENTATION('',(#441),#187);
#443=PCURVE('',#98,#442);
#444=SURFACE_CURVE('',#102,(#192,#371),.PCURVE_S1.);
#445=EDGE_CURVE('OSCAD_TOPO/3|edge|e:c843a528b4b7cc38685700b1b7949f79|cefbe064c1ea4b91a80da4583878787d2302efe2bd579761b1c1442e9b489bdc',#2,#4,#444,.T.);
#446=SURFACE_CURVE('',#105,(#197,#227),.PCURVE_S1.);
#447=EDGE_CURVE('OSCAD_TOPO/3|edge|e:fe6b387b520a83657c281c906dbf844b|4927a65a9eb952982fa9394cb42bab770ef19fc268fe86a6dc11b543f841fe13',#4,#20,#446,.T.);
#448=SURFACE_CURVE('',#109,(#202,#401),.PCURVE_S1.);
#449=EDGE_CURVE('OSCAD_TOPO/3|edge|e:310ba023d35e6bdb21fb94243becde08|0c45823483237f6184464183696a93a16757231316e0c0d6d2419f12b51256f2',#18,#20,#448,.T.);
#450=SURFACE_CURVE('',#112,(#207,#257),.PCURVE_S1.);
#451=EDGE_CURVE('OSCAD_TOPO/3|edge|e:208be793f11a29bbcd35c99f5a987af5|cb3d9081dcc0b91e27ea0e13cf7495600880417f278e72b6356d8dc35299b6cc',#2,#18,#450,.T.);
#452=SURFACE_CURVE('',#116,(#212,#365),.PCURVE_S1.);
#453=EDGE_CURVE('OSCAD_TOPO/3|edge|e:328f098d0d3995964bbb1e493ea91362|069d5a17891c7642991e7386a090900b346351e93f9d72dd97fbb367100d7d14',#4,#6,#452,.T.);
#454=SURFACE_CURVE('',#119,(#217,#247),.PCURVE_S1.);
#455=EDGE_CURVE('OSCAD_TOPO/3|edge|e:798cfc49e7853b1e2ecd5be6a9dd6d4c|e9106119c450f3877a811af4b557f490230566827104ab133a88d1a604518e3e',#6,#22,#454,.T.);
#456=SURFACE_CURVE('',#123,(#222,#407),.PCURVE_S1.);
#457=EDGE_CURVE('OSCAD_TOPO/3|edge|e:454187d0d34778a157ed508d768cb233|3225d9f5c56b9e017f955b41649a4c7e414bd01ac520fd013ce139a5f52dbe27',#20,#22,#456,.T.);
#458=SURFACE_CURVE('',#127,(#232,#359),.PCURVE_S1.);
#459=EDGE_CURVE('OSCAD_TOPO/3|edge|e:bf2e16f3f4181f2bda6a519a674e65b9|9fda9547e78b4a160e35366b2a1f9d5595f778fbfbe3791edc7bb87815760be0',#6,#8,#458,.T.);
#460=SURFACE_CURVE('',#130,(#237,#267),.PCURVE_S1.);
#461=EDGE_CURVE('OSCAD_TOPO/3|edge|e:4fa352a493b1ae4e8dd0c7c028cec87b|93d3a0f10df9b553608d8e431aa03793fd3b6f703f680094aca52f5e7b7dcf9e',#8,#24,#460,.T.);
#462=SURFACE_CURVE('',#134,(#242,#413),.PCURVE_S1.);
#463=EDGE_CURVE('OSCAD_TOPO/3|edge|e:659a4f5c2c57de1426b80945ed453e36|348e0bf6d61080292c575fbbfe3444ee68a75699fcd614d56b1cc6501290e19b',#22,#24,#462,.T.);
#464=SURFACE_CURVE('',#138,(#252,#353),.PCURVE_S1.);
#465=EDGE_CURVE('OSCAD_TOPO/3|edge|e:9a8493f27cf8a1f24200d5a8d1b5da72|1aeedadd5eb3b959faa5b78aa53cab7c19dfca9ee57049b78413963b6e97516d',#2,#8,#464,.T.);
#466=SURFACE_CURVE('',#142,(#262,#419),.PCURVE_S1.);
#467=EDGE_CURVE('OSCAD_TOPO/3|edge|e:c60ca90cbf7ef75aa5e8f24c884a849a|eaaf058d1442709321ec9a8e861a0dac282c560bb5208a0cc9fe985c23073d77',#18,#24,#466,.T.);
#468=SURFACE_CURVE('',#146,(#272,#395),.PCURVE_S1.);
#469=EDGE_CURVE('OSCAD_TOPO/3|edge|e:8de071d17957b4e1d385886cbf56ae60|078cb89d44b632f06a1e87d1e5be94708004c7bad5822cd1f4172dc539a65b34',#10,#12,#468,.T.);
#470=SURFACE_CURVE('',#149,(#277,#307),.PCURVE_S1.);
#471=EDGE_CURVE('OSCAD_TOPO/3|edge|e:53cadcfd72912059f5571fcd1090f5c7|22a5df8972c778804625e9c2b28532c139c03b2dc1da4b0d71741fd03e0d0750',#12,#28,#470,.T.);
#472=SURFACE_CURVE('',#153,(#282,#425),.PCURVE_S1.);
#473=EDGE_CURVE('OSCAD_TOPO/3|edge|e:56412598d5cf042589b571968e78b7b2|2922cab5057dc6c23e1f0e3d5ef6bd859f108b2ef69d5d766300da8b3491a8d7',#26,#28,#472,.T.);
#474=SURFACE_CURVE('',#156,(#287,#337),.PCURVE_S1.);
#475=EDGE_CURVE('OSCAD_TOPO/3|edge|e:419bbc7de7d7e1f5142ff39cb894185d|d68ca16e8575845f7b474147b2bd22186c45175920a6c2d494539768a5882e50',#10,#26,#474,.T.);
#476=SURFACE_CURVE('',#160,(#292,#389),.PCURVE_S1.);
#477=EDGE_CURVE('OSCAD_TOPO/3|edge|e:259a818b6175bee5ab00f90291a8de34|d4ddfa5728ccad71d2cf9d879229ea068983e19ad4e3e584a2eda2c2d9facd48',#12,#14,#476,.T.);
#478=SURFACE_CURVE('',#163,(#297,#327),.PCURVE_S1.);
#479=EDGE_CURVE('OSCAD_TOPO/3|edge|e:f54c9ad7eded2e8d01bbd7166a4267a8|dbd534b40e97e0528ebc05f7e46381e3853a8a942bdb729306e701ae92111a92',#14,#30,#478,.T.);
#480=SURFACE_CURVE('',#167,(#302,#431),.PCURVE_S1.);
#481=EDGE_CURVE('OSCAD_TOPO/3|edge|e:0983666c74c1991c2f23511ab4f3fe6c|c3c4b170a82292e1f2e193f80c5491930c8156a28ccd2e55223cd7007c1e66fd',#28,#30,#480,.T.);
#482=SURFACE_CURVE('',#171,(#312,#383),.PCURVE_S1.);
#483=EDGE_CURVE('OSCAD_TOPO/3|edge|e:25e103a4f8325f6d12fa93a83d8618c6|2a8c980deb265b95107da28690088668a083abc4450b6a910ab2cb5878afdded',#14,#16,#482,.T.);
#484=SURFACE_CURVE('',#174,(#317,#347),.PCURVE_S1.);
#485=EDGE_CURVE('OSCAD_TOPO/3|edge|e:919c3cadf3b1e26f170830deacb68ca0|380ddfdfee8a505908278b63a88348da433eff5bcdcd9773433db9d6c57c49d4',#16,#32,#484,.T.);
#486=SURFACE_CURVE('',#178,(#322,#437),.PCURVE_S1.);
#487=EDGE_CURVE('OSCAD_TOPO/3|edge|e:731f25eff2d82edb03cebb666b2f7a04|2d1f4c5a06e3e8549be286cc2190da1c08e302955fc9c9d5924d117a484d2ad2',#30,#32,#486,.T.);
#488=SURFACE_CURVE('',#182,(#332,#377),.PCURVE_S1.);
#489=EDGE_CURVE('OSCAD_TOPO/3|edge|e:3fffe0318dcb9a466d60fda0dfe70c6f|8460e2662ccfa004977a30067b14a5dd3812ebe20f21bfc5193e96581e907199',#10,#16,#488,.T.);
#490=SURFACE_CURVE('',#186,(#342,#443),.PCURVE_S1.);
#491=EDGE_CURVE('OSCAD_TOPO/3|edge|e:f6b6543f0557b82ed17bd7084fc77fc5|b0c514280fad62b58eb37c8553a64354c349d163edf5e0bc62010a45b083aed1',#26,#32,#490,.T.);
#492=ORIENTED_EDGE('',*,*,#445,.T.);
#493=ORIENTED_EDGE('',*,*,#447,.T.);
#494=ORIENTED_EDGE('',*,*,#449,.F.);
#495=ORIENTED_EDGE('',*,*,#451,.F.);
#496=EDGE_LOOP('OSCAD_TOPO/3|loop|l:808f3d26ba1ce5f0c0c8623d9cea31d4|8b7def5c54f7b065067778b861dcb5dd8910a195952d4a8239bbaa2f9e7b7274',(#492,#493,#494,#495));
#497=ORIENTED_EDGE('',*,*,#453,.T.);
#498=ORIENTED_EDGE('',*,*,#455,.T.);
#499=ORIENTED_EDGE('',*,*,#457,.F.);
#500=ORIENTED_EDGE('',*,*,#447,.F.);
#501=EDGE_LOOP('OSCAD_TOPO/3|loop|l:8deddca55def076bdbaaf880e3cd4461|b12d2b57313c7846b698743d724423261d53a1bf67c9fce61ee773093f3c7d1f',(#497,#498,#499,#500));
#502=ORIENTED_EDGE('',*,*,#459,.T.);
#503=ORIENTED_EDGE('',*,*,#461,.T.);
#504=ORIENTED_EDGE('',*,*,#463,.F.);
#505=ORIENTED_EDGE('',*,*,#455,.F.);
#506=EDGE_LOOP('OSCAD_TOPO/3|loop|l:fb04cc3d1d611da6c876e52a659593e1|df8fc4819b6ba6140ba50dc8d1da1f74a9700a8bae3fddb9fdb9eebc7ad1a71c',(#502,#503,#504,#505));
#507=ORIENTED_EDGE('',*,*,#465,.F.);
#508=ORIENTED_EDGE('',*,*,#451,.T.);
#509=ORIENTED_EDGE('',*,*,#467,.T.);
#510=ORIENTED_EDGE('',*,*,#461,.F.);
#511=EDGE_LOOP('OSCAD_TOPO/3|loop|l:d1074aeff172110ec9ae78e38764bc52|14c53d2f39e64f523dae788f8d90917f06db9ee05bce291cf08d911926c977d1',(#507,#508,#509,#510));
#512=ORIENTED_EDGE('',*,*,#469,.T.);
#513=ORIENTED_EDGE('',*,*,#471,.T.);
#514=ORIENTED_EDGE('',*,*,#473,.F.);
#515=ORIENTED_EDGE('',*,*,#475,.F.);
#516=EDGE_LOOP('OSCAD_TOPO/3|loop|l:ad581807d0b081d2c347b73dc35ccf3f|bfd73289f99f350b1fadbe254bfbe655ed45c0db71008a89b996dafdb3248ab0',(#512,#513,#514,#515));
#517=ORIENTED_EDGE('',*,*,#477,.T.);
#518=ORIENTED_EDGE('',*,*,#479,.T.);
#519=ORIENTED_EDGE('',*,*,#481,.F.);
#520=ORIENTED_EDGE('',*,*,#471,.F.);
#521=EDGE_LOOP('OSCAD_TOPO/3|loop|l:3cdc02eaef498c9ee7714f8267d3800e|29661f28840139a8ac6bab093e31919e61551f076bb7cc16ebd709fdbbcbbe20',(#517,#518,#519,#520));
#522=ORIENTED_EDGE('',*,*,#483,.T.);
#523=ORIENTED_EDGE('',*,*,#485,.T.);
#524=ORIENTED_EDGE('',*,*,#487,.F.);
#525=ORIENTED_EDGE('',*,*,#479,.F.);
#526=EDGE_LOOP('OSCAD_TOPO/3|loop|l:8ec347ae0a02a871770855caae2af1f2|4e43fb1c56be3fb6d8137ac5f8831d08748f105d4ab28dde4f5fc5b6aa2308d1',(#522,#523,#524,#525));
#527=ORIENTED_EDGE('',*,*,#489,.F.);
#528=ORIENTED_EDGE('',*,*,#475,.T.);
#529=ORIENTED_EDGE('',*,*,#491,.T.);
#530=ORIENTED_EDGE('',*,*,#485,.F.);
#531=EDGE_LOOP('OSCAD_TOPO/3|loop|l:a358c8559a1b549f895a33b9dfc634d0|f97453a987eb756f044e85725be302d8375e8bbead2b9db1ad94d5d90e97a313',(#527,#528,#529,#530));
#532=ORIENTED_EDGE('',*,*,#465,.T.);
#533=ORIENTED_EDGE('',*,*,#459,.F.);
#534=ORIENTED_EDGE('',*,*,#453,.F.);
#535=ORIENTED_EDGE('',*,*,#445,.F.);
#536=EDGE_LOOP('OSCAD_TOPO/3|loop|l:a47c6bdb65d963c6f1cdc07057306fab|2064c9e415dd34b214e3363a8186b5864b2061b7ec07a72de88d083c7032d2ac',(#532,#533,#534,#535));
#537=ORIENTED_EDGE('',*,*,#489,.T.);
#538=ORIENTED_EDGE('',*,*,#483,.F.);
#539=ORIENTED_EDGE('',*,*,#477,.F.);
#540=ORIENTED_EDGE('',*,*,#469,.F.);
#541=EDGE_LOOP('OSCAD_TOPO/3|loop|l:d561cff723a2d9327f865ec55fd18764|78ae407f33d20887e69170cd8d6acf4a48ac993faee65ff6d015c171f18545f3',(#537,#538,#539,#540));
#542=ORIENTED_EDGE('',*,*,#449,.T.);
#543=ORIENTED_EDGE('',*,*,#457,.T.);
#544=ORIENTED_EDGE('',*,*,#463,.T.);
#545=ORIENTED_EDGE('',*,*,#467,.F.);
#546=EDGE_LOOP('OSCAD_TOPO/3|loop|l:c759ebfd563be412cd413dd05c35610f|4de10453610f27d9f1398e58ff9dd6a074db0d089495ebddc0bee7f32753c581',(#542,#543,#544,#545));
#547=ORIENTED_EDGE('',*,*,#473,.T.);
#548=ORIENTED_EDGE('',*,*,#481,.T.);
#549=ORIENTED_EDGE('',*,*,#487,.T.);
#550=ORIENTED_EDGE('',*,*,#491,.F.);
#551=EDGE_LOOP('OSCAD_TOPO/3|loop|l:e85cc8ef6f30c2c1d1afc2683b5b9389|d1e83b8758a421c1b1c2ac51f75c343cf43d1651db8d24a02350fdac93551eec',(#547,#548,#549,#550));
#552=FACE_OUTER_BOUND('',#496,.T.);
#553=ADVANCED_FACE('OSCAD_TOPO/3|face|f:e608986eea12226d0630f987e84a0678|2393c4d05abd021c7155e63961f1efe0ca48c4e5dfdf35fdc4dbe372b4f5acb3',(#552),#39,.T.);
#554=FACE_OUTER_BOUND('',#501,.T.);
#555=ADVANCED_FACE('OSCAD_TOPO/3|face|f:d4e39c39c78495e7584dce2dd8195bb0|c8c51454c02a3a0dece6482e0d230ea61d54893fb85bc601801c2ead17acb10f',(#554),#46,.T.);
#556=FACE_OUTER_BOUND('',#506,.T.);
#557=ADVANCED_FACE('OSCAD_TOPO/3|face|f:45fd67e36a391e8caa9faf1e38c5c6fb|1e56d8d85e6fd5e8b9e50fe5b6e56c09093c84d92f1767866860700e46ee4f33',(#556),#53,.T.);
#558=FACE_OUTER_BOUND('',#511,.T.);
#559=ADVANCED_FACE('OSCAD_TOPO/3|face|f:c3e5464f618482ef249de3088d42b8af|e20a6554582fdea14e2fe0d0cbfbf38021e7a20acf8d572b858bcd7113b84c83',(#558),#60,.T.);
#560=FACE_OUTER_BOUND('',#516,.T.);
#561=ADVANCED_FACE('OSCAD_TOPO/3|face|f:72358e98df7352baf70017ad43fb4bba|170abbdb80807735db16a95f6087d8f4b995095e9ba0dd7fa91cec182f39529d',(#560),#67,.T.);
#562=FACE_OUTER_BOUND('',#521,.T.);
#563=ADVANCED_FACE('OSCAD_TOPO/3|face|f:304a2858cbadda5b1e35339cc6f4af12|f7a274375a302db138b25ea4e635b987fa1172f1691ce49a4c6f912a3609440e',(#562),#74,.T.);
#564=FACE_OUTER_BOUND('',#526,.T.);
#565=ADVANCED_FACE('OSCAD_TOPO/3|face|f:e58c1fa60751d2444d027bfb492c4df5|dd529a403af0be66525ee145b023ad6a1abecc477cd60faffa1ad2f107adfd66',(#564),#81,.T.);
#566=FACE_OUTER_BOUND('',#531,.T.);
#567=ADVANCED_FACE('OSCAD_TOPO/3|face|f:53e455811eadfc810c8b9645c06447b3|f96db3aca9c9ebc933d2c0aff59e37b8e30312e447fc62b48e29dff09bcd3b1d',(#566),#88,.T.);
#568=FACE_OUTER_BOUND('',#536,.T.);
#569=FACE_BOUND('',#541,.T.);
#570=ADVANCED_FACE('OSCAD_TOPO/3|face|f:314f92d0428a760dcfaecec27f29246d|fc79719104f9f9ffdb9e51a6bba10fe0723f7d82c7e45e7de59fd98c8c939fa4',(#568,#569),#93,.T.);
#571=FACE_OUTER_BOUND('',#546,.T.);
#572=FACE_BOUND('',#551,.T.);
#573=ADVANCED_FACE('OSCAD_TOPO/3|face|f:0ff64b20afaa430ee2cf3c632735a58b|6609fff001dbd4047ed4496ed3bd6c40486a94528909e1c7bef92e25c775d72b',(#571,#572),#98,.T.);
#574=CLOSED_SHELL('OSCAD_TOPO/3|shell|s:0d68c7c90e1bd4b82510b76488db392a|109ab00506f53f21d6af8d23784c3576209b1697831ef48d24edaca00064f121',(#553,#555,#557,#559,#561,#563,#565,#567,#570,#573));
#575=MANIFOLD_SOLID_BREP('OSCAD_TOPO/3|body|b:d23d5ee1a6252db3813d00325cd5e5c6|bb05d25afedcb0b9862a1fb7e480e9b70e8bcb6f7a9a7a7f4d37db732c8d9c57',#574);
#576=(LENGTH_UNIT()NAMED_UNIT(*)SI_UNIT(.MILLI.,.METRE.));
#577=UNCERTAINTY_MEASURE_WITH_UNIT(LENGTH_MEASURE(9.99999999999999955E-8),#576,'distance_accuracy_value','');
#578=(GEOMETRIC_REPRESENTATION_CONTEXT(3)GLOBAL_UNCERTAINTY_ASSIGNED_CONTEXT((#577))GLOBAL_UNIT_ASSIGNED_CONTEXT((#576))REPRESENTATION_CONTEXT('','3D'));
#579=ADVANCED_BREP_SHAPE_REPRESENTATION('',(#575),#578);
#580=APPLICATION_CONTEXT('managed model based 3d engineering');
#581=PRODUCT_CONTEXT('',#580,'mechanical');
#582=PRODUCT('model','model','',(#581));
#583=PRODUCT_DEFINITION_FORMATION('1','',#582);
#584=PRODUCT_DEFINITION_CONTEXT('part definition',#580,'design');
#585=PRODUCT_DEFINITION('design','',#583,#584);
#586=PRODUCT_DEFINITION_SHAPE('','',#585);
#587=SHAPE_DEFINITION_REPRESENTATION(#586,#579);
ENDSEC;
END-ISO-10303-21;
