ISO-10303-21;
HEADER;
FILE_DESCRIPTION(('OpenSCAD Viewer retained AP242 B-rep'),'2;1');
FILE_NAME('model.step','',(''),(''),'OpenSCAD Viewer','OpenSCAD Viewer','');
FILE_SCHEMA(('AP242_MANAGED_MODEL_BASED_3D_ENGINEERING_MIM_LF'));
ENDSEC;
DATA;
#1=CARTESIAN_POINT('',(-1.20000000000000000E1,-1.00000000000000000E1,2.00000000000000000E0));
#2=VERTEX_POINT('OSCAD_TOPO/3|vertex|v:713466f0d5e78bd0a66b43eee98d7777|029e4c1d0fe8cdd5d8ad1a182036c0e6eb831958306278da1eca55f82f799dc9',#1);
#3=CARTESIAN_POINT('',(-1.20000000000000000E1,-1.70000000000000000E1,2.00000000000000000E0));
#4=VERTEX_POINT('OSCAD_TOPO/3|vertex|v:0bdef58ee635bb824c85dfc07387268c|2144ab022bf101e8a422a2f426941157cfc8cb807a914f8a6c36b759c22c5973',#3);
#5=CARTESIAN_POINT('',(-1.20000000000000000E1,-1.00000000000000000E1,-8.00000000000000000E0));
#6=VERTEX_POINT('OSCAD_TOPO/3|vertex|v:4892053bf7be260cf8256cc8bb5ced68|f8bc348ee5ea94226da34217cbfd283b37c21bab0c92f6da98242862e3c00d4d',#5);
#7=CARTESIAN_POINT('',(-1.20000000000000000E1,-1.70000000000000000E1,-8.00000000000000000E0));
#8=VERTEX_POINT('OSCAD_TOPO/3|vertex|v:5e31b05739b8aefc619041c431aa7203|fdf2b3240329f079beb5a76a7f614f6fce612bbbf58738ca4936275a7c4ca810',#7);
#9=CARTESIAN_POINT('',(-1.00000000000000000E1,-1.00000000000000000E1,-1.00000000000000000E1));
#10=VERTEX_POINT('OSCAD_TOPO/3|vertex|v:ce2c251b8cebad548c7eefbd25f3053c|a495118ef1ff058e212f17e67adc40020008378ef2f04fac98d0809c1b3554b5',#9);
#11=CARTESIAN_POINT('',(-1.00000000000000000E1,-1.70000000000000000E1,-1.00000000000000000E1));
#12=VERTEX_POINT('OSCAD_TOPO/3|vertex|v:77f841b8754293e52fd06c05b5a02086|9337e18de4522c4191246f586adc034c8740ff7168c24d89db08b58125aa3da3',#11);
#13=CARTESIAN_POINT('',(-8.00000000000000000E0,-1.00000000000000000E1,-8.00000000000000000E0));
#14=VERTEX_POINT('OSCAD_TOPO/3|vertex|v:b5226b1eb18175e5eea487adfaa0e3ca|cc9b823bf9c2680c05731405e66bf436528efa358ef119d8071137e6c466a783',#13);
#15=CARTESIAN_POINT('',(-8.00000000000000000E0,-1.70000000000000000E1,-8.00000000000000000E0));
#16=VERTEX_POINT('OSCAD_TOPO/3|vertex|v:f1cb8a190ecf4f43d6b5801235581cd6|1bca9f162b4bb683744afd5cebe12b84ea45248b7547876399abc6e94bc240cc',#15);
#17=CARTESIAN_POINT('',(-8.00000000000000000E0,-1.00000000000000000E1,2.00000000000000000E0));
#18=VERTEX_POINT('OSCAD_TOPO/3|vertex|v:f790c12ed9000a680c9e73ab5b9af994|9fbc5f41b6cba29f921e215726be4b0980f824090dc86d05c5e6291120a12329',#17);
#19=CARTESIAN_POINT('',(-8.00000000000000000E0,-1.70000000000000000E1,2.00000000000000000E0));
#20=VERTEX_POINT('OSCAD_TOPO/3|vertex|v:4b2570bd2e466979ed6ef408f40ff9b6|2ccb08b0a15935628c6dfd37821258227f9c7cf8ddccd28bee5f5b08eff9694c',#19);
#21=CARTESIAN_POINT('',(-1.00000000000000000E1,-1.00000000000000000E1,4.00000000000000000E0));
#22=VERTEX_POINT('OSCAD_TOPO/3|vertex|v:85823bd482fa44ac27d874e8d8156a84|e19e2d38e0f8793b6326e76ff653f15021c0eb51b1fe6d1f87ec1244ef7300c0',#21);
#23=CARTESIAN_POINT('',(-1.00000000000000000E1,-1.70000000000000000E1,4.00000000000000000E0));
#24=VERTEX_POINT('OSCAD_TOPO/3|vertex|v:b7294b8ae1600d923e555464e809762f|3204abc488b4d302b019cab3ab22fa5765a9b11df6a184de70e2b9d5a40172d4',#23);
#25=CARTESIAN_POINT('',(-1.20000000000000000E1,-1.00000000000000000E1,2.00000000000000000E0));
#26=CARTESIAN_POINT('',(-1.20000000000000000E1,-1.70000000000000000E1,2.00000000000000000E0));
#27=CARTESIAN_POINT('',(-1.20000000000000000E1,-1.00000000000000000E1,-8.00000000000000000E0));
#28=CARTESIAN_POINT('',(-1.20000000000000000E1,-1.70000000000000000E1,-8.00000000000000000E0));
#29=B_SPLINE_SURFACE_WITH_KNOTS('',1,1,((#25,#26),(#27,#28)),.UNSPECIFIED.,.F.,.F.,.F.,(2,2),(2,2),(0.00000000000000000E0,1.00000000000000000E0),(0.00000000000000000E0,1.00000000000000000E0),.UNSPECIFIED.);
#30=CARTESIAN_POINT('',(-1.20000000000000000E1,-1.00000000000000000E1,-8.00000000000000000E0));
#31=CARTESIAN_POINT('',(-1.20000000000000000E1,-1.70000000000000000E1,-8.00000000000000000E0));
#32=CARTESIAN_POINT('',(-1.20000000000000000E1,-1.00000000000000000E1,-1.00000000000000000E1));
#33=CARTESIAN_POINT('',(-1.20000000000000000E1,-1.70000000000000000E1,-1.00000000000000000E1));
#34=CARTESIAN_POINT('',(-1.00000000000000000E1,-1.00000000000000000E1,-1.00000000000000000E1));
#35=CARTESIAN_POINT('',(-1.00000000000000000E1,-1.70000000000000000E1,-1.00000000000000000E1));
#36=(BOUNDED_SURFACE()B_SPLINE_SURFACE(2,1,((#30,#31),(#32,#33),(#34,#35)),.UNSPECIFIED.,.F.,.F.,.F.)B_SPLINE_SURFACE_WITH_KNOTS((3,3),(2,2),(0.00000000000000000E0,1.00000000000000000E0),(0.00000000000000000E0,1.00000000000000000E0),.UNSPECIFIED.)GEOMETRIC_REPRESENTATION_ITEM()RATIONAL_B_SPLINE_SURFACE(((1.00000000000000000E0,1.00000000000000000E0),(7.07106781186547573E-1,7.07106781186547573E-1),(1.00000000000000000E0,1.00000000000000000E0)))REPRESENTATION_ITEM('')SURFACE());
#37=CARTESIAN_POINT('',(-1.00000000000000000E1,-1.00000000000000000E1,-1.00000000000000000E1));
#38=CARTESIAN_POINT('',(-1.00000000000000000E1,-1.70000000000000000E1,-1.00000000000000000E1));
#39=CARTESIAN_POINT('',(-8.00000000000000000E0,-1.00000000000000000E1,-1.00000000000000000E1));
#40=CARTESIAN_POINT('',(-8.00000000000000000E0,-1.70000000000000000E1,-1.00000000000000000E1));
#41=CARTESIAN_POINT('',(-8.00000000000000000E0,-1.00000000000000000E1,-8.00000000000000000E0));
#42=CARTESIAN_POINT('',(-8.00000000000000000E0,-1.70000000000000000E1,-8.00000000000000000E0));
#43=(BOUNDED_SURFACE()B_SPLINE_SURFACE(2,1,((#37,#38),(#39,#40),(#41,#42)),.UNSPECIFIED.,.F.,.F.,.F.)B_SPLINE_SURFACE_WITH_KNOTS((3,3),(2,2),(0.00000000000000000E0,1.00000000000000000E0),(0.00000000000000000E0,1.00000000000000000E0),.UNSPECIFIED.)GEOMETRIC_REPRESENTATION_ITEM()RATIONAL_B_SPLINE_SURFACE(((1.00000000000000000E0,1.00000000000000000E0),(7.07106781186547573E-1,7.07106781186547573E-1),(1.00000000000000000E0,1.00000000000000000E0)))REPRESENTATION_ITEM('')SURFACE());
#44=CARTESIAN_POINT('',(-8.00000000000000000E0,-1.00000000000000000E1,-8.00000000000000000E0));
#45=CARTESIAN_POINT('',(-8.00000000000000000E0,-1.70000000000000000E1,-8.00000000000000000E0));
#46=CARTESIAN_POINT('',(-8.00000000000000000E0,-1.00000000000000000E1,2.00000000000000000E0));
#47=CARTESIAN_POINT('',(-8.00000000000000000E0,-1.70000000000000000E1,2.00000000000000000E0));
#48=B_SPLINE_SURFACE_WITH_KNOTS('',1,1,((#44,#45),(#46,#47)),.UNSPECIFIED.,.F.,.F.,.F.,(2,2),(2,2),(0.00000000000000000E0,1.00000000000000000E0),(0.00000000000000000E0,1.00000000000000000E0),.UNSPECIFIED.);
#49=CARTESIAN_POINT('',(-8.00000000000000000E0,-1.00000000000000000E1,2.00000000000000000E0));
#50=CARTESIAN_POINT('',(-8.00000000000000000E0,-1.70000000000000000E1,2.00000000000000000E0));
#51=CARTESIAN_POINT('',(-8.00000000000000000E0,-1.00000000000000000E1,4.00000000000000000E0));
#52=CARTESIAN_POINT('',(-8.00000000000000000E0,-1.70000000000000000E1,4.00000000000000000E0));
#53=CARTESIAN_POINT('',(-1.00000000000000000E1,-1.00000000000000000E1,4.00000000000000000E0));
#54=CARTESIAN_POINT('',(-1.00000000000000000E1,-1.70000000000000000E1,4.00000000000000000E0));
#55=(BOUNDED_SURFACE()B_SPLINE_SURFACE(2,1,((#49,#50),(#51,#52),(#53,#54)),.UNSPECIFIED.,.F.,.F.,.F.)B_SPLINE_SURFACE_WITH_KNOTS((3,3),(2,2),(0.00000000000000000E0,1.00000000000000000E0),(0.00000000000000000E0,1.00000000000000000E0),.UNSPECIFIED.)GEOMETRIC_REPRESENTATION_ITEM()RATIONAL_B_SPLINE_SURFACE(((1.00000000000000000E0,1.00000000000000000E0),(7.07106781186547573E-1,7.07106781186547573E-1),(1.00000000000000000E0,1.00000000000000000E0)))REPRESENTATION_ITEM('')SURFACE());
#56=CARTESIAN_POINT('',(-1.00000000000000000E1,-1.00000000000000000E1,4.00000000000000000E0));
#57=CARTESIAN_POINT('',(-1.00000000000000000E1,-1.70000000000000000E1,4.00000000000000000E0));
#58=CARTESIAN_POINT('',(-1.20000000000000000E1,-1.00000000000000000E1,4.00000000000000000E0));
#59=CARTESIAN_POINT('',(-1.20000000000000000E1,-1.70000000000000000E1,4.00000000000000000E0));
#60=CARTESIAN_POINT('',(-1.20000000000000000E1,-1.00000000000000000E1,2.00000000000000000E0));
#61=CARTESIAN_POINT('',(-1.20000000000000000E1,-1.70000000000000000E1,2.00000000000000000E0));
#62=(BOUNDED_SURFACE()B_SPLINE_SURFACE(2,1,((#56,#57),(#58,#59),(#60,#61)),.UNSPECIFIED.,.F.,.F.,.F.)B_SPLINE_SURFACE_WITH_KNOTS((3,3),(2,2),(0.00000000000000000E0,1.00000000000000000E0),(0.00000000000000000E0,1.00000000000000000E0),.UNSPECIFIED.)GEOMETRIC_REPRESENTATION_ITEM()RATIONAL_B_SPLINE_SURFACE(((1.00000000000000000E0,1.00000000000000000E0),(7.07106781186547573E-1,7.07106781186547573E-1),(1.00000000000000000E0,1.00000000000000000E0)))REPRESENTATION_ITEM('')SURFACE());
#63=CARTESIAN_POINT('',(-1.20000000000000000E1,-1.00000000000000000E1,-1.00000000000000000E1));
#64=CARTESIAN_POINT('',(-8.00000000000000000E0,-1.00000000000000000E1,-1.00000000000000000E1));
#65=CARTESIAN_POINT('',(-1.20000000000000000E1,-1.00000000000000000E1,4.00000000000000000E0));
#66=CARTESIAN_POINT('',(-8.00000000000000000E0,-1.00000000000000000E1,4.00000000000000000E0));
#67=B_SPLINE_SURFACE_WITH_KNOTS('',1,1,((#63,#64),(#65,#66)),.UNSPECIFIED.,.F.,.F.,.F.,(2,2),(2,2),(0.00000000000000000E0,1.00000000000000000E0),(0.00000000000000000E0,1.00000000000000000E0),.UNSPECIFIED.);
#68=CARTESIAN_POINT('',(-1.20000000000000000E1,-1.70000000000000000E1,4.00000000000000000E0));
#69=CARTESIAN_POINT('',(-8.00000000000000000E0,-1.70000000000000000E1,4.00000000000000000E0));
#70=CARTESIAN_POINT('',(-1.20000000000000000E1,-1.70000000000000000E1,-1.00000000000000000E1));
#71=CARTESIAN_POINT('',(-8.00000000000000000E0,-1.70000000000000000E1,-1.00000000000000000E1));
#72=B_SPLINE_SURFACE_WITH_KNOTS('',1,1,((#68,#69),(#70,#71)),.UNSPECIFIED.,.F.,.F.,.F.,(2,2),(2,2),(0.00000000000000000E0,1.00000000000000000E0),(0.00000000000000000E0,1.00000000000000000E0),.UNSPECIFIED.);
#73=CARTESIAN_POINT('',(-1.20000000000000000E1,-1.00000000000000000E1,2.00000000000000000E0));
#74=CARTESIAN_POINT('',(-1.20000000000000000E1,-1.00000000000000000E1,-8.00000000000000000E0));
#75=B_SPLINE_CURVE_WITH_KNOTS('',1,(#73,#74),.UNSPECIFIED.,.F.,.F.,(2,2),(0.00000000000000000E0,1.00000000000000000E0),.UNSPECIFIED.);
#76=CARTESIAN_POINT('',(-1.20000000000000000E1,-1.70000000000000000E1,2.00000000000000000E0));
#77=CARTESIAN_POINT('',(-1.20000000000000000E1,-1.70000000000000000E1,-8.00000000000000000E0));
#78=B_SPLINE_CURVE_WITH_KNOTS('',1,(#76,#77),.UNSPECIFIED.,.F.,.F.,(2,2),(0.00000000000000000E0,1.00000000000000000E0),.UNSPECIFIED.);
#79=CARTESIAN_POINT('',(-1.20000000000000000E1,-1.00000000000000000E1,2.00000000000000000E0));
#80=CARTESIAN_POINT('',(-1.20000000000000000E1,-1.70000000000000000E1,2.00000000000000000E0));
#81=B_SPLINE_CURVE_WITH_KNOTS('',1,(#79,#80),.UNSPECIFIED.,.F.,.F.,(2,2),(0.00000000000000000E0,1.00000000000000000E0),.UNSPECIFIED.);
#82=CARTESIAN_POINT('',(-1.20000000000000000E1,-1.00000000000000000E1,-8.00000000000000000E0));
#83=CARTESIAN_POINT('',(-1.20000000000000000E1,-1.00000000000000000E1,-1.00000000000000000E1));
#84=CARTESIAN_POINT('',(-1.00000000000000000E1,-1.00000000000000000E1,-1.00000000000000000E1));
#85=(BOUNDED_CURVE()B_SPLINE_CURVE(2,(#82,#83,#84),.UNSPECIFIED.,.F.,.F.)B_SPLINE_CURVE_WITH_KNOTS((3,3),(0.00000000000000000E0,1.00000000000000000E0),.UNSPECIFIED.)CURVE()GEOMETRIC_REPRESENTATION_ITEM()RATIONAL_B_SPLINE_CURVE((1.00000000000000000E0,7.07106781186547573E-1,1.00000000000000000E0))REPRESENTATION_ITEM(''));
#86=CARTESIAN_POINT('',(-1.20000000000000000E1,-1.70000000000000000E1,-8.00000000000000000E0));
#87=CARTESIAN_POINT('',(-1.20000000000000000E1,-1.70000000000000000E1,-1.00000000000000000E1));
#88=CARTESIAN_POINT('',(-1.00000000000000000E1,-1.70000000000000000E1,-1.00000000000000000E1));
#89=(BOUNDED_CURVE()B_SPLINE_CURVE(2,(#86,#87,#88),.UNSPECIFIED.,.F.,.F.)B_SPLINE_CURVE_WITH_KNOTS((3,3),(0.00000000000000000E0,1.00000000000000000E0),.UNSPECIFIED.)CURVE()GEOMETRIC_REPRESENTATION_ITEM()RATIONAL_B_SPLINE_CURVE((1.00000000000000000E0,7.07106781186547573E-1,1.00000000000000000E0))REPRESENTATION_ITEM(''));
#90=CARTESIAN_POINT('',(-1.20000000000000000E1,-1.00000000000000000E1,-8.00000000000000000E0));
#91=CARTESIAN_POINT('',(-1.20000000000000000E1,-1.70000000000000000E1,-8.00000000000000000E0));
#92=B_SPLINE_CURVE_WITH_KNOTS('',1,(#90,#91),.UNSPECIFIED.,.F.,.F.,(2,2),(0.00000000000000000E0,1.00000000000000000E0),.UNSPECIFIED.);
#93=CARTESIAN_POINT('',(-1.00000000000000000E1,-1.00000000000000000E1,-1.00000000000000000E1));
#94=CARTESIAN_POINT('',(-8.00000000000000000E0,-1.00000000000000000E1,-1.00000000000000000E1));
#95=CARTESIAN_POINT('',(-8.00000000000000000E0,-1.00000000000000000E1,-8.00000000000000000E0));
#96=(BOUNDED_CURVE()B_SPLINE_CURVE(2,(#93,#94,#95),.UNSPECIFIED.,.F.,.F.)B_SPLINE_CURVE_WITH_KNOTS((3,3),(0.00000000000000000E0,1.00000000000000000E0),.UNSPECIFIED.)CURVE()GEOMETRIC_REPRESENTATION_ITEM()RATIONAL_B_SPLINE_CURVE((1.00000000000000000E0,7.07106781186547573E-1,1.00000000000000000E0))REPRESENTATION_ITEM(''));
#97=CARTESIAN_POINT('',(-1.00000000000000000E1,-1.70000000000000000E1,-1.00000000000000000E1));
#98=CARTESIAN_POINT('',(-8.00000000000000000E0,-1.70000000000000000E1,-1.00000000000000000E1));
#99=CARTESIAN_POINT('',(-8.00000000000000000E0,-1.70000000000000000E1,-8.00000000000000000E0));
#100=(BOUNDED_CURVE()B_SPLINE_CURVE(2,(#97,#98,#99),.UNSPECIFIED.,.F.,.F.)B_SPLINE_CURVE_WITH_KNOTS((3,3),(0.00000000000000000E0,1.00000000000000000E0),.UNSPECIFIED.)CURVE()GEOMETRIC_REPRESENTATION_ITEM()RATIONAL_B_SPLINE_CURVE((1.00000000000000000E0,7.07106781186547573E-1,1.00000000000000000E0))REPRESENTATION_ITEM(''));
#101=CARTESIAN_POINT('',(-1.00000000000000000E1,-1.00000000000000000E1,-1.00000000000000000E1));
#102=CARTESIAN_POINT('',(-1.00000000000000000E1,-1.70000000000000000E1,-1.00000000000000000E1));
#103=B_SPLINE_CURVE_WITH_KNOTS('',1,(#101,#102),.UNSPECIFIED.,.F.,.F.,(2,2),(0.00000000000000000E0,1.00000000000000000E0),.UNSPECIFIED.);
#104=CARTESIAN_POINT('',(-8.00000000000000000E0,-1.00000000000000000E1,-8.00000000000000000E0));
#105=CARTESIAN_POINT('',(-8.00000000000000000E0,-1.00000000000000000E1,2.00000000000000000E0));
#106=B_SPLINE_CURVE_WITH_KNOTS('',1,(#104,#105),.UNSPECIFIED.,.F.,.F.,(2,2),(0.00000000000000000E0,1.00000000000000000E0),.UNSPECIFIED.);
#107=CARTESIAN_POINT('',(-8.00000000000000000E0,-1.70000000000000000E1,-8.00000000000000000E0));
#108=CARTESIAN_POINT('',(-8.00000000000000000E0,-1.70000000000000000E1,2.00000000000000000E0));
#109=B_SPLINE_CURVE_WITH_KNOTS('',1,(#107,#108),.UNSPECIFIED.,.F.,.F.,(2,2),(0.00000000000000000E0,1.00000000000000000E0),.UNSPECIFIED.);
#110=CARTESIAN_POINT('',(-8.00000000000000000E0,-1.00000000000000000E1,-8.00000000000000000E0));
#111=CARTESIAN_POINT('',(-8.00000000000000000E0,-1.70000000000000000E1,-8.00000000000000000E0));
#112=B_SPLINE_CURVE_WITH_KNOTS('',1,(#110,#111),.UNSPECIFIED.,.F.,.F.,(2,2),(0.00000000000000000E0,1.00000000000000000E0),.UNSPECIFIED.);
#113=CARTESIAN_POINT('',(-8.00000000000000000E0,-1.00000000000000000E1,2.00000000000000000E0));
#114=CARTESIAN_POINT('',(-8.00000000000000000E0,-1.00000000000000000E1,4.00000000000000000E0));
#115=CARTESIAN_POINT('',(-1.00000000000000000E1,-1.00000000000000000E1,4.00000000000000000E0));
#116=(BOUNDED_CURVE()B_SPLINE_CURVE(2,(#113,#114,#115),.UNSPECIFIED.,.F.,.F.)B_SPLINE_CURVE_WITH_KNOTS((3,3),(0.00000000000000000E0,1.00000000000000000E0),.UNSPECIFIED.)CURVE()GEOMETRIC_REPRESENTATION_ITEM()RATIONAL_B_SPLINE_CURVE((1.00000000000000000E0,7.07106781186547573E-1,1.00000000000000000E0))REPRESENTATION_ITEM(''));
#117=CARTESIAN_POINT('',(-8.00000000000000000E0,-1.70000000000000000E1,2.00000000000000000E0));
#118=CARTESIAN_POINT('',(-8.00000000000000000E0,-1.70000000000000000E1,4.00000000000000000E0));
#119=CARTESIAN_POINT('',(-1.00000000000000000E1,-1.70000000000000000E1,4.00000000000000000E0));
#120=(BOUNDED_CURVE()B_SPLINE_CURVE(2,(#117,#118,#119),.UNSPECIFIED.,.F.,.F.)B_SPLINE_CURVE_WITH_KNOTS((3,3),(0.00000000000000000E0,1.00000000000000000E0),.UNSPECIFIED.)CURVE()GEOMETRIC_REPRESENTATION_ITEM()RATIONAL_B_SPLINE_CURVE((1.00000000000000000E0,7.07106781186547573E-1,1.00000000000000000E0))REPRESENTATION_ITEM(''));
#121=CARTESIAN_POINT('',(-8.00000000000000000E0,-1.00000000000000000E1,2.00000000000000000E0));
#122=CARTESIAN_POINT('',(-8.00000000000000000E0,-1.70000000000000000E1,2.00000000000000000E0));
#123=B_SPLINE_CURVE_WITH_KNOTS('',1,(#121,#122),.UNSPECIFIED.,.F.,.F.,(2,2),(0.00000000000000000E0,1.00000000000000000E0),.UNSPECIFIED.);
#124=CARTESIAN_POINT('',(-1.00000000000000000E1,-1.00000000000000000E1,4.00000000000000000E0));
#125=CARTESIAN_POINT('',(-1.20000000000000000E1,-1.00000000000000000E1,4.00000000000000000E0));
#126=CARTESIAN_POINT('',(-1.20000000000000000E1,-1.00000000000000000E1,2.00000000000000000E0));
#127=(BOUNDED_CURVE()B_SPLINE_CURVE(2,(#124,#125,#126),.UNSPECIFIED.,.F.,.F.)B_SPLINE_CURVE_WITH_KNOTS((3,3),(0.00000000000000000E0,1.00000000000000000E0),.UNSPECIFIED.)CURVE()GEOMETRIC_REPRESENTATION_ITEM()RATIONAL_B_SPLINE_CURVE((1.00000000000000000E0,7.07106781186547573E-1,1.00000000000000000E0))REPRESENTATION_ITEM(''));
#128=CARTESIAN_POINT('',(-1.00000000000000000E1,-1.70000000000000000E1,4.00000000000000000E0));
#129=CARTESIAN_POINT('',(-1.20000000000000000E1,-1.70000000000000000E1,4.00000000000000000E0));
#130=CARTESIAN_POINT('',(-1.20000000000000000E1,-1.70000000000000000E1,2.00000000000000000E0));
#131=(BOUNDED_CURVE()B_SPLINE_CURVE(2,(#128,#129,#130),.UNSPECIFIED.,.F.,.F.)B_SPLINE_CURVE_WITH_KNOTS((3,3),(0.00000000000000000E0,1.00000000000000000E0),.UNSPECIFIED.)CURVE()GEOMETRIC_REPRESENTATION_ITEM()RATIONAL_B_SPLINE_CURVE((1.00000000000000000E0,7.07106781186547573E-1,1.00000000000000000E0))REPRESENTATION_ITEM(''));
#132=CARTESIAN_POINT('',(-1.00000000000000000E1,-1.00000000000000000E1,4.00000000000000000E0));
#133=CARTESIAN_POINT('',(-1.00000000000000000E1,-1.70000000000000000E1,4.00000000000000000E0));
#134=B_SPLINE_CURVE_WITH_KNOTS('',1,(#132,#133),.UNSPECIFIED.,.F.,.F.,(2,2),(0.00000000000000000E0,1.00000000000000000E0),.UNSPECIFIED.);
#135=(GEOMETRIC_REPRESENTATION_CONTEXT(2)REPRESENTATION_CONTEXT('','2D'));
#136=CARTESIAN_POINT('',(8.57142857142857206E-1,1.11022302462515654E-16));
#137=CARTESIAN_POINT('',(1.00000000000000000E0,1.66533453693773481E-16));
#138=CARTESIAN_POINT('',(1.00000000000000000E0,5.00000000000000111E-1));
#139=(BOUNDED_CURVE()B_SPLINE_CURVE(2,(#136,#137,#138),.UNSPECIFIED.,.F.,.F.)B_SPLINE_CURVE_WITH_KNOTS((3,3),(0.00000000000000000E0,1.00000000000000000E0),.UNSPECIFIED.)CURVE()GEOMETRIC_REPRESENTATION_ITEM()RATIONAL_B_SPLINE_CURVE((1.00000000000000000E0,7.07106781186547573E-1,1.00000000000000000E0))REPRESENTATION_ITEM(''));
#140=DEFINITIONAL_REPRESENTATION('',(#139),#135);
#141=PCURVE('',#67,#140);
#142=CARTESIAN_POINT('',(1.00000000000000000E0,5.00000000000000111E-1));
#143=CARTESIAN_POINT('',(1.00000000000000000E0,1.00000000000000000E0));
#144=CARTESIAN_POINT('',(8.57142857142857206E-1,1.00000000000000000E0));
#145=(BOUNDED_CURVE()B_SPLINE_CURVE(2,(#142,#143,#144),.UNSPECIFIED.,.F.,.F.)B_SPLINE_CURVE_WITH_KNOTS((3,3),(0.00000000000000000E0,1.00000000000000000E0),.UNSPECIFIED.)CURVE()GEOMETRIC_REPRESENTATION_ITEM()RATIONAL_B_SPLINE_CURVE((1.00000000000000000E0,7.07106781186547573E-1,1.00000000000000000E0))REPRESENTATION_ITEM(''));
#146=DEFINITIONAL_REPRESENTATION('',(#145),#135);
#147=PCURVE('',#67,#146);
#148=CARTESIAN_POINT('',(8.57142857142857206E-1,1.00000000000000000E0));
#149=CARTESIAN_POINT('',(1.42857142857142905E-1,1.00000000000000000E0));
#150=B_SPLINE_CURVE_WITH_KNOTS('',1,(#148,#149),.UNSPECIFIED.,.F.,.F.,(2,2),(0.00000000000000000E0,1.00000000000000000E0),.UNSPECIFIED.);
#151=DEFINITIONAL_REPRESENTATION('',(#150),#135);
#152=PCURVE('',#67,#151);
#153=CARTESIAN_POINT('',(1.42857142857142905E-1,1.00000000000000000E0));
#154=CARTESIAN_POINT('',(0.00000000000000000E0,1.00000000000000000E0));
#155=CARTESIAN_POINT('',(0.00000000000000000E0,5.00000000000000111E-1));
#156=(BOUNDED_CURVE()B_SPLINE_CURVE(2,(#153,#154,#155),.UNSPECIFIED.,.F.,.F.)B_SPLINE_CURVE_WITH_KNOTS((3,3),(0.00000000000000000E0,1.00000000000000000E0),.UNSPECIFIED.)CURVE()GEOMETRIC_REPRESENTATION_ITEM()RATIONAL_B_SPLINE_CURVE((1.00000000000000000E0,7.07106781186547573E-1,1.00000000000000000E0))REPRESENTATION_ITEM(''));
#157=DEFINITIONAL_REPRESENTATION('',(#156),#135);
#158=PCURVE('',#67,#157);
#159=CARTESIAN_POINT('',(0.00000000000000000E0,5.00000000000000111E-1));
#160=CARTESIAN_POINT('',(0.00000000000000000E0,0.00000000000000000E0));
#161=CARTESIAN_POINT('',(1.42857142857142905E-1,1.11022302462515654E-16));
#162=(BOUNDED_CURVE()B_SPLINE_CURVE(2,(#159,#160,#161),.UNSPECIFIED.,.F.,.F.)B_SPLINE_CURVE_WITH_KNOTS((3,3),(0.00000000000000000E0,1.00000000000000000E0),.UNSPECIFIED.)CURVE()GEOMETRIC_REPRESENTATION_ITEM()RATIONAL_B_SPLINE_CURVE((1.00000000000000000E0,7.07106781186547573E-1,1.00000000000000000E0))REPRESENTATION_ITEM(''));
#163=DEFINITIONAL_REPRESENTATION('',(#162),#135);
#164=PCURVE('',#67,#163);
#165=CARTESIAN_POINT('',(1.42857142857142905E-1,1.11022302462515654E-16));
#166=CARTESIAN_POINT('',(8.57142857142857206E-1,1.11022302462515654E-16));
#167=B_SPLINE_CURVE_WITH_KNOTS('',1,(#165,#166),.UNSPECIFIED.,.F.,.F.,(2,2),(0.00000000000000000E0,1.00000000000000000E0),.UNSPECIFIED.);
#168=DEFINITIONAL_REPRESENTATION('',(#167),#135);
#169=PCURVE('',#67,#168);
#170=CARTESIAN_POINT('',(1.42857142857142849E-1,1.11022302462515654E-16));
#171=CARTESIAN_POINT('',(8.57142857142857095E-1,1.11022302462515654E-16));
#172=B_SPLINE_CURVE_WITH_KNOTS('',1,(#170,#171),.UNSPECIFIED.,.F.,.F.,(2,2),(0.00000000000000000E0,1.00000000000000000E0),.UNSPECIFIED.);
#173=DEFINITIONAL_REPRESENTATION('',(#172),#135);
#174=PCURVE('',#72,#173);
#175=CARTESIAN_POINT('',(8.57142857142857095E-1,1.11022302462515654E-16));
#176=CARTESIAN_POINT('',(1.00000000000000000E0,0.00000000000000000E0));
#177=CARTESIAN_POINT('',(1.00000000000000000E0,5.00000000000000111E-1));
#178=(BOUNDED_CURVE()B_SPLINE_CURVE(2,(#175,#176,#177),.UNSPECIFIED.,.F.,.F.)B_SPLINE_CURVE_WITH_KNOTS((3,3),(0.00000000000000000E0,1.00000000000000000E0),.UNSPECIFIED.)CURVE()GEOMETRIC_REPRESENTATION_ITEM()RATIONAL_B_SPLINE_CURVE((1.00000000000000000E0,7.07106781186547573E-1,1.00000000000000000E0))REPRESENTATION_ITEM(''));
#179=DEFINITIONAL_REPRESENTATION('',(#178),#135);
#180=PCURVE('',#72,#179);
#181=CARTESIAN_POINT('',(1.00000000000000000E0,5.00000000000000111E-1));
#182=CARTESIAN_POINT('',(1.00000000000000000E0,1.00000000000000000E0));
#183=CARTESIAN_POINT('',(8.57142857142857095E-1,1.00000000000000000E0));
#184=(BOUNDED_CURVE()B_SPLINE_CURVE(2,(#181,#182,#183),.UNSPECIFIED.,.F.,.F.)B_SPLINE_CURVE_WITH_KNOTS((3,3),(0.00000000000000000E0,1.00000000000000000E0),.UNSPECIFIED.)CURVE()GEOMETRIC_REPRESENTATION_ITEM()RATIONAL_B_SPLINE_CURVE((1.00000000000000000E0,7.07106781186547573E-1,1.00000000000000000E0))REPRESENTATION_ITEM(''));
#185=DEFINITIONAL_REPRESENTATION('',(#184),#135);
#186=PCURVE('',#72,#185);
#187=CARTESIAN_POINT('',(8.57142857142857095E-1,1.00000000000000000E0));
#188=CARTESIAN_POINT('',(1.42857142857142849E-1,1.00000000000000000E0));
#189=B_SPLINE_CURVE_WITH_KNOTS('',1,(#187,#188),.UNSPECIFIED.,.F.,.F.,(2,2),(0.00000000000000000E0,1.00000000000000000E0),.UNSPECIFIED.);
#190=DEFINITIONAL_REPRESENTATION('',(#189),#135);
#191=PCURVE('',#72,#190);
#192=CARTESIAN_POINT('',(1.42857142857142849E-1,1.00000000000000000E0));
#193=CARTESIAN_POINT('',(0.00000000000000000E0,1.00000000000000000E0));
#194=CARTESIAN_POINT('',(0.00000000000000000E0,5.00000000000000111E-1));
#195=(BOUNDED_CURVE()B_SPLINE_CURVE(2,(#192,#193,#194),.UNSPECIFIED.,.F.,.F.)B_SPLINE_CURVE_WITH_KNOTS((3,3),(0.00000000000000000E0,1.00000000000000000E0),.UNSPECIFIED.)CURVE()GEOMETRIC_REPRESENTATION_ITEM()RATIONAL_B_SPLINE_CURVE((1.00000000000000000E0,7.07106781186547573E-1,1.00000000000000000E0))REPRESENTATION_ITEM(''));
#196=DEFINITIONAL_REPRESENTATION('',(#195),#135);
#197=PCURVE('',#72,#196);
#198=CARTESIAN_POINT('',(0.00000000000000000E0,5.00000000000000111E-1));
#199=CARTESIAN_POINT('',(0.00000000000000000E0,1.66533453693773481E-16));
#200=CARTESIAN_POINT('',(1.42857142857142849E-1,1.11022302462515654E-16));
#201=(BOUNDED_CURVE()B_SPLINE_CURVE(2,(#198,#199,#200),.UNSPECIFIED.,.F.,.F.)B_SPLINE_CURVE_WITH_KNOTS((3,3),(0.00000000000000000E0,1.00000000000000000E0),.UNSPECIFIED.)CURVE()GEOMETRIC_REPRESENTATION_ITEM()RATIONAL_B_SPLINE_CURVE((1.00000000000000000E0,7.07106781186547573E-1,1.00000000000000000E0))REPRESENTATION_ITEM(''));
#202=DEFINITIONAL_REPRESENTATION('',(#201),#135);
#203=PCURVE('',#72,#202);
#204=CARTESIAN_POINT('',(0.00000000000000000E0,0.00000000000000000E0));
#205=CARTESIAN_POINT('',(1.00000000000000000E0,0.00000000000000000E0));
#206=B_SPLINE_CURVE_WITH_KNOTS('',1,(#204,#205),.UNSPECIFIED.,.F.,.F.,(2,2),(0.00000000000000000E0,1.00000000000000000E0),.UNSPECIFIED.);
#207=DEFINITIONAL_REPRESENTATION('',(#206),#135);
#208=PCURVE('',#29,#207);
#209=CARTESIAN_POINT('',(1.00000000000000000E0,0.00000000000000000E0));
#210=CARTESIAN_POINT('',(1.00000000000000000E0,1.00000000000000000E0));
#211=B_SPLINE_CURVE_WITH_KNOTS('',1,(#209,#210),.UNSPECIFIED.,.F.,.F.,(2,2),(0.00000000000000000E0,1.00000000000000000E0),.UNSPECIFIED.);
#212=DEFINITIONAL_REPRESENTATION('',(#211),#135);
#213=PCURVE('',#29,#212);
#214=CARTESIAN_POINT('',(1.00000000000000000E0,1.00000000000000000E0));
#215=CARTESIAN_POINT('',(0.00000000000000000E0,1.00000000000000000E0));
#216=B_SPLINE_CURVE_WITH_KNOTS('',1,(#214,#215),.UNSPECIFIED.,.F.,.F.,(2,2),(0.00000000000000000E0,1.00000000000000000E0),.UNSPECIFIED.);
#217=DEFINITIONAL_REPRESENTATION('',(#216),#135);
#218=PCURVE('',#29,#217);
#219=CARTESIAN_POINT('',(0.00000000000000000E0,1.00000000000000000E0));
#220=CARTESIAN_POINT('',(0.00000000000000000E0,0.00000000000000000E0));
#221=B_SPLINE_CURVE_WITH_KNOTS('',1,(#219,#220),.UNSPECIFIED.,.F.,.F.,(2,2),(0.00000000000000000E0,1.00000000000000000E0),.UNSPECIFIED.);
#222=DEFINITIONAL_REPRESENTATION('',(#221),#135);
#223=PCURVE('',#29,#222);
#224=CARTESIAN_POINT('',(0.00000000000000000E0,0.00000000000000000E0));
#225=CARTESIAN_POINT('',(1.00000000000000000E0,0.00000000000000000E0));
#226=B_SPLINE_CURVE_WITH_KNOTS('',1,(#224,#225),.UNSPECIFIED.,.F.,.F.,(2,2),(0.00000000000000000E0,1.00000000000000000E0),.UNSPECIFIED.);
#227=DEFINITIONAL_REPRESENTATION('',(#226),#135);
#228=PCURVE('',#36,#227);
#229=CARTESIAN_POINT('',(1.00000000000000000E0,0.00000000000000000E0));
#230=CARTESIAN_POINT('',(1.00000000000000000E0,1.00000000000000000E0));
#231=B_SPLINE_CURVE_WITH_KNOTS('',1,(#229,#230),.UNSPECIFIED.,.F.,.F.,(2,2),(0.00000000000000000E0,1.00000000000000000E0),.UNSPECIFIED.);
#232=DEFINITIONAL_REPRESENTATION('',(#231),#135);
#233=PCURVE('',#36,#232);
#234=CARTESIAN_POINT('',(1.00000000000000000E0,1.00000000000000000E0));
#235=CARTESIAN_POINT('',(0.00000000000000000E0,1.00000000000000000E0));
#236=B_SPLINE_CURVE_WITH_KNOTS('',1,(#234,#235),.UNSPECIFIED.,.F.,.F.,(2,2),(0.00000000000000000E0,1.00000000000000000E0),.UNSPECIFIED.);
#237=DEFINITIONAL_REPRESENTATION('',(#236),#135);
#238=PCURVE('',#36,#237);
#239=CARTESIAN_POINT('',(0.00000000000000000E0,1.00000000000000000E0));
#240=CARTESIAN_POINT('',(0.00000000000000000E0,0.00000000000000000E0));
#241=B_SPLINE_CURVE_WITH_KNOTS('',1,(#239,#240),.UNSPECIFIED.,.F.,.F.,(2,2),(0.00000000000000000E0,1.00000000000000000E0),.UNSPECIFIED.);
#242=DEFINITIONAL_REPRESENTATION('',(#241),#135);
#243=PCURVE('',#36,#242);
#244=CARTESIAN_POINT('',(0.00000000000000000E0,0.00000000000000000E0));
#245=CARTESIAN_POINT('',(1.00000000000000000E0,0.00000000000000000E0));
#246=B_SPLINE_CURVE_WITH_KNOTS('',1,(#244,#245),.UNSPECIFIED.,.F.,.F.,(2,2),(0.00000000000000000E0,1.00000000000000000E0),.UNSPECIFIED.);
#247=DEFINITIONAL_REPRESENTATION('',(#246),#135);
#248=PCURVE('',#43,#247);
#249=CARTESIAN_POINT('',(1.00000000000000000E0,0.00000000000000000E0));
#250=CARTESIAN_POINT('',(1.00000000000000000E0,1.00000000000000000E0));
#251=B_SPLINE_CURVE_WITH_KNOTS('',1,(#249,#250),.UNSPECIFIED.,.F.,.F.,(2,2),(0.00000000000000000E0,1.00000000000000000E0),.UNSPECIFIED.);
#252=DEFINITIONAL_REPRESENTATION('',(#251),#135);
#253=PCURVE('',#43,#252);
#254=CARTESIAN_POINT('',(1.00000000000000000E0,1.00000000000000000E0));
#255=CARTESIAN_POINT('',(0.00000000000000000E0,1.00000000000000000E0));
#256=B_SPLINE_CURVE_WITH_KNOTS('',1,(#254,#255),.UNSPECIFIED.,.F.,.F.,(2,2),(0.00000000000000000E0,1.00000000000000000E0),.UNSPECIFIED.);
#257=DEFINITIONAL_REPRESENTATION('',(#256),#135);
#258=PCURVE('',#43,#257);
#259=CARTESIAN_POINT('',(0.00000000000000000E0,1.00000000000000000E0));
#260=CARTESIAN_POINT('',(0.00000000000000000E0,0.00000000000000000E0));
#261=B_SPLINE_CURVE_WITH_KNOTS('',1,(#259,#260),.UNSPECIFIED.,.F.,.F.,(2,2),(0.00000000000000000E0,1.00000000000000000E0),.UNSPECIFIED.);
#262=DEFINITIONAL_REPRESENTATION('',(#261),#135);
#263=PCURVE('',#43,#262);
#264=CARTESIAN_POINT('',(0.00000000000000000E0,0.00000000000000000E0));
#265=CARTESIAN_POINT('',(1.00000000000000000E0,0.00000000000000000E0));
#266=B_SPLINE_CURVE_WITH_KNOTS('',1,(#264,#265),.UNSPECIFIED.,.F.,.F.,(2,2),(0.00000000000000000E0,1.00000000000000000E0),.UNSPECIFIED.);
#267=DEFINITIONAL_REPRESENTATION('',(#266),#135);
#268=PCURVE('',#48,#267);
#269=CARTESIAN_POINT('',(1.00000000000000000E0,0.00000000000000000E0));
#270=CARTESIAN_POINT('',(1.00000000000000000E0,1.00000000000000000E0));
#271=B_SPLINE_CURVE_WITH_KNOTS('',1,(#269,#270),.UNSPECIFIED.,.F.,.F.,(2,2),(0.00000000000000000E0,1.00000000000000000E0),.UNSPECIFIED.);
#272=DEFINITIONAL_REPRESENTATION('',(#271),#135);
#273=PCURVE('',#48,#272);
#274=CARTESIAN_POINT('',(1.00000000000000000E0,1.00000000000000000E0));
#275=CARTESIAN_POINT('',(0.00000000000000000E0,1.00000000000000000E0));
#276=B_SPLINE_CURVE_WITH_KNOTS('',1,(#274,#275),.UNSPECIFIED.,.F.,.F.,(2,2),(0.00000000000000000E0,1.00000000000000000E0),.UNSPECIFIED.);
#277=DEFINITIONAL_REPRESENTATION('',(#276),#135);
#278=PCURVE('',#48,#277);
#279=CARTESIAN_POINT('',(0.00000000000000000E0,1.00000000000000000E0));
#280=CARTESIAN_POINT('',(0.00000000000000000E0,0.00000000000000000E0));
#281=B_SPLINE_CURVE_WITH_KNOTS('',1,(#279,#280),.UNSPECIFIED.,.F.,.F.,(2,2),(0.00000000000000000E0,1.00000000000000000E0),.UNSPECIFIED.);
#282=DEFINITIONAL_REPRESENTATION('',(#281),#135);
#283=PCURVE('',#48,#282);
#284=CARTESIAN_POINT('',(0.00000000000000000E0,0.00000000000000000E0));
#285=CARTESIAN_POINT('',(1.00000000000000000E0,0.00000000000000000E0));
#286=B_SPLINE_CURVE_WITH_KNOTS('',1,(#284,#285),.UNSPECIFIED.,.F.,.F.,(2,2),(0.00000000000000000E0,1.00000000000000000E0),.UNSPECIFIED.);
#287=DEFINITIONAL_REPRESENTATION('',(#286),#135);
#288=PCURVE('',#55,#287);
#289=CARTESIAN_POINT('',(1.00000000000000000E0,0.00000000000000000E0));
#290=CARTESIAN_POINT('',(1.00000000000000000E0,1.00000000000000000E0));
#291=B_SPLINE_CURVE_WITH_KNOTS('',1,(#289,#290),.UNSPECIFIED.,.F.,.F.,(2,2),(0.00000000000000000E0,1.00000000000000000E0),.UNSPECIFIED.);
#292=DEFINITIONAL_REPRESENTATION('',(#291),#135);
#293=PCURVE('',#55,#292);
#294=CARTESIAN_POINT('',(1.00000000000000000E0,1.00000000000000000E0));
#295=CARTESIAN_POINT('',(0.00000000000000000E0,1.00000000000000000E0));
#296=B_SPLINE_CURVE_WITH_KNOTS('',1,(#294,#295),.UNSPECIFIED.,.F.,.F.,(2,2),(0.00000000000000000E0,1.00000000000000000E0),.UNSPECIFIED.);
#297=DEFINITIONAL_REPRESENTATION('',(#296),#135);
#298=PCURVE('',#55,#297);
#299=CARTESIAN_POINT('',(0.00000000000000000E0,1.00000000000000000E0));
#300=CARTESIAN_POINT('',(0.00000000000000000E0,0.00000000000000000E0));
#301=B_SPLINE_CURVE_WITH_KNOTS('',1,(#299,#300),.UNSPECIFIED.,.F.,.F.,(2,2),(0.00000000000000000E0,1.00000000000000000E0),.UNSPECIFIED.);
#302=DEFINITIONAL_REPRESENTATION('',(#301),#135);
#303=PCURVE('',#55,#302);
#304=CARTESIAN_POINT('',(0.00000000000000000E0,0.00000000000000000E0));
#305=CARTESIAN_POINT('',(1.00000000000000000E0,0.00000000000000000E0));
#306=B_SPLINE_CURVE_WITH_KNOTS('',1,(#304,#305),.UNSPECIFIED.,.F.,.F.,(2,2),(0.00000000000000000E0,1.00000000000000000E0),.UNSPECIFIED.);
#307=DEFINITIONAL_REPRESENTATION('',(#306),#135);
#308=PCURVE('',#62,#307);
#309=CARTESIAN_POINT('',(1.00000000000000000E0,0.00000000000000000E0));
#310=CARTESIAN_POINT('',(1.00000000000000000E0,1.00000000000000000E0));
#311=B_SPLINE_CURVE_WITH_KNOTS('',1,(#309,#310),.UNSPECIFIED.,.F.,.F.,(2,2),(0.00000000000000000E0,1.00000000000000000E0),.UNSPECIFIED.);
#312=DEFINITIONAL_REPRESENTATION('',(#311),#135);
#313=PCURVE('',#62,#312);
#314=CARTESIAN_POINT('',(1.00000000000000000E0,1.00000000000000000E0));
#315=CARTESIAN_POINT('',(0.00000000000000000E0,1.00000000000000000E0));
#316=B_SPLINE_CURVE_WITH_KNOTS('',1,(#314,#315),.UNSPECIFIED.,.F.,.F.,(2,2),(0.00000000000000000E0,1.00000000000000000E0),.UNSPECIFIED.);
#317=DEFINITIONAL_REPRESENTATION('',(#316),#135);
#318=PCURVE('',#62,#317);
#319=CARTESIAN_POINT('',(0.00000000000000000E0,1.00000000000000000E0));
#320=CARTESIAN_POINT('',(0.00000000000000000E0,0.00000000000000000E0));
#321=B_SPLINE_CURVE_WITH_KNOTS('',1,(#319,#320),.UNSPECIFIED.,.F.,.F.,(2,2),(0.00000000000000000E0,1.00000000000000000E0),.UNSPECIFIED.);
#322=DEFINITIONAL_REPRESENTATION('',(#321),#135);
#323=PCURVE('',#62,#322);
#324=SURFACE_CURVE('',#75,(#169,#208),.PCURVE_S1.);
#325=EDGE_CURVE('OSCAD_TOPO/3|edge|e:3078a52a899286d2440d3029c743ade9|0a094e3e7ad144ab7bca154af022d1273d2b36e775c881ffe230389f337c2e31',#2,#6,#324,.T.);
#326=SURFACE_CURVE('',#78,(#174,#218),.PCURVE_S1.);
#327=EDGE_CURVE('OSCAD_TOPO/3|edge|e:d802358442d086ec8b6d3ea070a83ddc|c21319b7bab1c689d1aba0ba7fcc1d3643db87d16fcbd15a4677a4ce774dbcee',#4,#8,#326,.T.);
#328=SURFACE_CURVE('',#81,(#223,#313),.PCURVE_S1.);
#329=EDGE_CURVE('OSCAD_TOPO/3|edge|e:63f43e568975bf8c906b6f1592162d3d|83632b8e3d80a20c48dc35254057c2c8f37d4f8880eb27483d3348f6173ae89a',#2,#4,#328,.T.);
#330=SURFACE_CURVE('',#85,(#164,#228),.PCURVE_S1.);
#331=EDGE_CURVE('OSCAD_TOPO/3|edge|e:4ca035d23c0ceb1edbcd3cc893edd1fc|b536a0142dc32ac3f1c982b887853de6d902473fa732ec5724d9bc9640b18364',#6,#10,#330,.T.);
#332=SURFACE_CURVE('',#89,(#180,#238),.PCURVE_S1.);
#333=EDGE_CURVE('OSCAD_TOPO/3|edge|e:2e5c00022b88eca356af3de07c85ddf1|478bd1ccec093231c498e96cb3d9aac0ddb5619302f57247ba70c024ec1d1bcc',#8,#12,#332,.T.);
#334=SURFACE_CURVE('',#92,(#213,#243),.PCURVE_S1.);
#335=EDGE_CURVE('OSCAD_TOPO/3|edge|e:de6b1fc163a87b26aab173dd2ed4a201|b95417d221b7a48ca51974a9939cc53eae83118179f0d57051a3be429ccd03f6',#6,#8,#334,.T.);
#336=SURFACE_CURVE('',#96,(#158,#248),.PCURVE_S1.);
#337=EDGE_CURVE('OSCAD_TOPO/3|edge|e:63c753a4c1315364fcf63be14f84a073|f97fa82d307b5fd3e3605477bb0d45246f05c6042d7f66a65bf6f6955a9a48d1',#10,#14,#336,.T.);
#338=SURFACE_CURVE('',#100,(#186,#258),.PCURVE_S1.);
#339=EDGE_CURVE('OSCAD_TOPO/3|edge|e:965b6babe42aef482ec0a603cd565680|ef328b88e2aaa5987cfd5afbe841bd15f21996966198d1c80c74d31ce6006676',#12,#16,#338,.T.);
#340=SURFACE_CURVE('',#103,(#233,#263),.PCURVE_S1.);
#341=EDGE_CURVE('OSCAD_TOPO/3|edge|e:13ba82a45071dc48e65ac428bdf359b7|b38780aa2f375d6c75b3b9df88d70bf4053a1ab9cd1bc30ed9573e967e82a5db',#10,#12,#340,.T.);
#342=SURFACE_CURVE('',#106,(#152,#268),.PCURVE_S1.);
#343=EDGE_CURVE('OSCAD_TOPO/3|edge|e:af04765183acc6067033e623a4701e2f|83beb3ddd26e4d97b8ebda62d24c0ce9f981ca1827f84f9529b32d4ae2e1782e',#14,#18,#342,.T.);
#344=SURFACE_CURVE('',#109,(#191,#278),.PCURVE_S1.);
#345=EDGE_CURVE('OSCAD_TOPO/3|edge|e:b5e83dc4791b1e63cfc35c791428b65b|aac72ded935f3d9db600663fad03481f01b6fcc15448343914f6f9681daa16c2',#16,#20,#344,.T.);
#346=SURFACE_CURVE('',#112,(#253,#283),.PCURVE_S1.);
#347=EDGE_CURVE('OSCAD_TOPO/3|edge|e:e70a0f2287423a67d1396cfd4d4e3c33|f2e7803c6d1790f1321412c14bfacc39839d609dd1594efa949c63d0dd02e179',#14,#16,#346,.T.);
#348=SURFACE_CURVE('',#116,(#147,#288),.PCURVE_S1.);
#349=EDGE_CURVE('OSCAD_TOPO/3|edge|e:b8beb35f231e1bfb1e0606730ea48a0e|50654c3b12948f5043fc8991d5fd85ed70ab06a0c3578a8989570f4d6f2b115d',#18,#22,#348,.T.);
#350=SURFACE_CURVE('',#120,(#197,#298),.PCURVE_S1.);
#351=EDGE_CURVE('OSCAD_TOPO/3|edge|e:751c9923b338174b790350b18e72b013|f636495f271f969b20170a1bbf3037702704d2c414ee44f61dfb918d6a71a99b',#20,#24,#350,.T.);
#352=SURFACE_CURVE('',#123,(#273,#303),.PCURVE_S1.);
#353=EDGE_CURVE('OSCAD_TOPO/3|edge|e:fe7d0443a68846c2caa4e3b9387f122a|ace655f82d2e06613037f09f785f5f78cee63b27c7a6411281fe1938b089b0b9',#18,#20,#352,.T.);
#354=SURFACE_CURVE('',#127,(#141,#308),.PCURVE_S1.);
#355=EDGE_CURVE('OSCAD_TOPO/3|edge|e:0688d5fd8fbfb3eb04051cb70507ae9e|665a6d39ff5c7f9f226379189702fba0a8e9e979fb916d95dae66bc35d5ba4a4',#22,#2,#354,.T.);
#356=SURFACE_CURVE('',#131,(#203,#318),.PCURVE_S1.);
#357=EDGE_CURVE('OSCAD_TOPO/3|edge|e:38ac7c1aaf4308227c15fe672ca871b4|b595afc16973a0d2d6b8de4d4b433770a788b45be4f7df71d6c17ac13a2601f8',#24,#4,#356,.T.);
#358=SURFACE_CURVE('',#134,(#293,#323),.PCURVE_S1.);
#359=EDGE_CURVE('OSCAD_TOPO/3|edge|e:db632b4e01f6462618fc89b89facf395|552be61ecc6547ea21a21ada348eff5f13ad49a062013968ae83d628e12a180f',#22,#24,#358,.T.);
#360=ORIENTED_EDGE('',*,*,#355,.F.);
#361=ORIENTED_EDGE('',*,*,#349,.F.);
#362=ORIENTED_EDGE('',*,*,#343,.F.);
#363=ORIENTED_EDGE('',*,*,#337,.F.);
#364=ORIENTED_EDGE('',*,*,#331,.F.);
#365=ORIENTED_EDGE('',*,*,#325,.F.);
#366=EDGE_LOOP('OSCAD_TOPO/3|loop|l:61f93a7c005f79a4ca99d8ba10643981|8c1b0b8d1758f545acfe7f0fc2ec6e9193bf80fa91395a1de490e1b1428d1439',(#360,#361,#362,#363,#364,#365));
#367=ORIENTED_EDGE('',*,*,#327,.T.);
#368=ORIENTED_EDGE('',*,*,#333,.T.);
#369=ORIENTED_EDGE('',*,*,#339,.T.);
#370=ORIENTED_EDGE('',*,*,#345,.T.);
#371=ORIENTED_EDGE('',*,*,#351,.T.);
#372=ORIENTED_EDGE('',*,*,#357,.T.);
#373=EDGE_LOOP('OSCAD_TOPO/3|loop|l:b4f3c52f2853554e5c29ba566233ca3f|6015bf7a3aec84d118fdbdf9a80256506bc2282c7f991ce1e0c285f7d6322373',(#367,#368,#369,#370,#371,#372));
#374=ORIENTED_EDGE('',*,*,#325,.T.);
#375=ORIENTED_EDGE('',*,*,#335,.T.);
#376=ORIENTED_EDGE('',*,*,#327,.F.);
#377=ORIENTED_EDGE('',*,*,#329,.F.);
#378=EDGE_LOOP('OSCAD_TOPO/3|loop|l:d4ae1a9487e3b008eded27a73c7316ff|b11f9e8ae95eb8e0bb5bf2650750e96ddddd9f202146f2913bd5d79dff00dc6e',(#374,#375,#376,#377));
#379=ORIENTED_EDGE('',*,*,#331,.T.);
#380=ORIENTED_EDGE('',*,*,#341,.T.);
#381=ORIENTED_EDGE('',*,*,#333,.F.);
#382=ORIENTED_EDGE('',*,*,#335,.F.);
#383=EDGE_LOOP('OSCAD_TOPO/3|loop|l:8544ee6c736217a1be4d2517cd923fba|a5d2362858ae0990e0b6a105b6e4e38af04b0880f563f738d0e189fd1e7a152e',(#379,#380,#381,#382));
#384=ORIENTED_EDGE('',*,*,#337,.T.);
#385=ORIENTED_EDGE('',*,*,#347,.T.);
#386=ORIENTED_EDGE('',*,*,#339,.F.);
#387=ORIENTED_EDGE('',*,*,#341,.F.);
#388=EDGE_LOOP('OSCAD_TOPO/3|loop|l:a86a28fdde75768a05b1983239c9f4da|a1fa6b8f3f4f3ba3bef1703773819cabb7d42f9249915d52724f0b85952a47e8',(#384,#385,#386,#387));
#389=ORIENTED_EDGE('',*,*,#343,.T.);
#390=ORIENTED_EDGE('',*,*,#353,.T.);
#391=ORIENTED_EDGE('',*,*,#345,.F.);
#392=ORIENTED_EDGE('',*,*,#347,.F.);
#393=EDGE_LOOP('OSCAD_TOPO/3|loop|l:cbf4aba483bd19f24a4ed67d8e00932b|08b5905595344ec3b01167b6c657713e87c3fe22d7738496c571a566bd5912f9',(#389,#390,#391,#392));
#394=ORIENTED_EDGE('',*,*,#349,.T.);
#395=ORIENTED_EDGE('',*,*,#359,.T.);
#396=ORIENTED_EDGE('',*,*,#351,.F.);
#397=ORIENTED_EDGE('',*,*,#353,.F.);
#398=EDGE_LOOP('OSCAD_TOPO/3|loop|l:bf46569258479af965e8df3b1d4a63ad|68213c16a86036a0c3cdf1a326dac28ebd3f6e25f96e799a53409bde1aef64b5',(#394,#395,#396,#397));
#399=ORIENTED_EDGE('',*,*,#355,.T.);
#400=ORIENTED_EDGE('',*,*,#329,.T.);
#401=ORIENTED_EDGE('',*,*,#357,.F.);
#402=ORIENTED_EDGE('',*,*,#359,.F.);
#403=EDGE_LOOP('OSCAD_TOPO/3|loop|l:6a9214b4ac216eebcf36b4d23f891b7b|7aa58ec0e8fe70d856f015020117e4a5665ca5191c196f01796e481bf075bb83',(#399,#400,#401,#402));
#404=FACE_OUTER_BOUND('',#378,.T.);
#405=ADVANCED_FACE('OSCAD_TOPO/3|face|f:4c519c0973ab4a3fcebfaea169d0362f|c373cc393f788cf668e056c64ebfc7d818b60efad05fd15c44c717d9af20ddf5',(#404),#29,.T.);
#406=FACE_OUTER_BOUND('',#383,.T.);
#407=ADVANCED_FACE('OSCAD_TOPO/3|face|f:2a05224437d7ae689de54f241fa31761|2bb3f4bd05aff797518d4bdf792a601047932da6fc3354db73cc37d31f147d0e',(#406),#36,.T.);
#408=FACE_OUTER_BOUND('',#388,.T.);
#409=ADVANCED_FACE('OSCAD_TOPO/3|face|f:12817cf2facc43048131c6a04e395a71|dde09b3bfa362035b1b7f2a4a164975e68210108e5e3e3aea48d250a24905b1d',(#408),#43,.T.);
#410=FACE_OUTER_BOUND('',#393,.T.);
#411=ADVANCED_FACE('OSCAD_TOPO/3|face|f:b15d79c8d978463a7aa9949da16742fa|a3f137cb5eb658204085111f095f4f2cb36b43ce8f7dd5c6d7cef5a51ce278c1',(#410),#48,.T.);
#412=FACE_OUTER_BOUND('',#398,.T.);
#413=ADVANCED_FACE('OSCAD_TOPO/3|face|f:de120706ec10e2582dc0f85ddacf4398|153b7deb5be7af5d9625448bbeddb1fe872506ddafd05bf25b3ac31a2281aa38',(#412),#55,.T.);
#414=FACE_OUTER_BOUND('',#403,.T.);
#415=ADVANCED_FACE('OSCAD_TOPO/3|face|f:3bf08a95a53730ca64639146791d678a|5d04262c8b0fa5573116f0ebb03435d7f150ca22cedeafc320e4959c26000dae',(#414),#62,.T.);
#416=FACE_OUTER_BOUND('',#366,.T.);
#417=ADVANCED_FACE('OSCAD_TOPO/3|face|f:1e7da3fa2c13454ff3a3c1a51f3d48fc|7342468b2e2ca90fc2fdeb7ba3c1ca9d8c91062f85056823d0dd50ea46a6f49b',(#416),#67,.T.);
#418=FACE_OUTER_BOUND('',#373,.T.);
#419=ADVANCED_FACE('OSCAD_TOPO/3|face|f:2b3f4c769cfcff94229cafc9c067f841|263f1686d379e058c5a501e7ee3e404b219260c5d76824c5634f24905d1859d5',(#418),#72,.T.);
#420=CLOSED_SHELL('OSCAD_TOPO/3|shell|s:68779b513a4598fcb1da806e18abbb26|beb3a81710a9399ce67b41b24d42bd77c20cf4724ce519ae7e59d45d006051c2',(#405,#407,#409,#411,#413,#415,#417,#419));
#421=MANIFOLD_SOLID_BREP('OSCAD_TOPO/3|body|b:a03854540ad15849e912e37ce4a3b920|4dcbfe91b94727882c22d275eaa79314cfc6cbd36cf837833a53c52f172924c8',#420);
#422=(LENGTH_UNIT()NAMED_UNIT(*)SI_UNIT(.MILLI.,.METRE.));
#423=UNCERTAINTY_MEASURE_WITH_UNIT(LENGTH_MEASURE(9.99999999999999955E-8),#422,'distance_accuracy_value','');
#424=(GEOMETRIC_REPRESENTATION_CONTEXT(3)GLOBAL_UNCERTAINTY_ASSIGNED_CONTEXT((#423))GLOBAL_UNIT_ASSIGNED_CONTEXT((#422))REPRESENTATION_CONTEXT('','3D'));
#425=ADVANCED_BREP_SHAPE_REPRESENTATION('',(#421),#424);
#426=APPLICATION_CONTEXT('managed model based 3d engineering');
#427=PRODUCT_CONTEXT('',#426,'mechanical');
#428=PRODUCT('model','model','',(#427));
#429=PRODUCT_DEFINITION_FORMATION('1','',#428);
#430=PRODUCT_DEFINITION_CONTEXT('part definition',#426,'design');
#431=PRODUCT_DEFINITION('design','',#429,#430);
#432=PRODUCT_DEFINITION_SHAPE('','',#431);
#433=SHAPE_DEFINITION_REPRESENTATION(#432,#425);
ENDSEC;
END-ISO-10303-21;
