ISO-10303-21;
HEADER;
FILE_DESCRIPTION(('OpenSCAD Viewer retained AP242 B-rep'),'2;1');
FILE_NAME('model.step','',(''),(''),'OpenSCAD Viewer','OpenSCAD Viewer','');
FILE_SCHEMA(('AP242_MANAGED_MODEL_BASED_3D_ENGINEERING_MIM_LF'));
ENDSEC;
DATA;
#1=CARTESIAN_POINT('',(2.87500000000000000E0,0.00000000000000000E0,-1.25000000000000000E-1));
#2=VERTEX_POINT('OSCAD_TOPO/3|vertex|v:40ea43307020dcfdd63c6dd8ac9dd2b7|4d07cb7a6444d96137e6505646902bfbcbf36c4a2b4a1df629f75b14467be60d',#1);
#3=CARTESIAN_POINT('',(2.87500000000000000E0,0.00000000000000000E0,1.25000000000000000E-1));
#4=VERTEX_POINT('OSCAD_TOPO/3|vertex|v:5ec2a4474954e4a3da5b238782f2a0e8|3e21114dfdfa152ad9ef99e5e6abbc72c49441238934503b05bb2cc4e7651696',#3);
#5=CARTESIAN_POINT('',(3.12500000000000000E0,0.00000000000000000E0,1.25000000000000000E-1));
#6=VERTEX_POINT('OSCAD_TOPO/3|vertex|v:0cc9646bcd74d14bd8494a5132cc99a1|bc5422dcd6fa67a4f5d5b59f8c8040a2cb21d4e0228d45e7de3a8d275011733d',#5);
#7=CARTESIAN_POINT('',(3.12500000000000000E0,0.00000000000000000E0,-1.25000000000000000E-1));
#8=VERTEX_POINT('OSCAD_TOPO/3|vertex|v:a8f0f042f61702dda313969a148b440f|213d146fe6a30f3b8057274d02c65bc31a9beed215a0ca8dd67240d4ea530969',#7);
#9=CARTESIAN_POINT('',(6.31097560975609428E-1,2.80487804878048808E0,-1.25000000000000000E-1));
#10=VERTEX_POINT('OSCAD_TOPO/3|vertex|v:423d9238afdb7508910a5011df3b09d3|872abea6a13078daebca692451cfa83870adb2cf27ddcb7bf47ee1b0a9f72895',#9);
#11=CARTESIAN_POINT('',(6.31097560975609428E-1,2.80487804878048808E0,1.25000000000000000E-1));
#12=VERTEX_POINT('OSCAD_TOPO/3|vertex|v:61bd71f5c95ef360765625fdc298de80|3dbca6cd0bc663cb3ce34079ced335ba304ad38930f6d6f00c5b1313f002f8b6',#11);
#13=CARTESIAN_POINT('',(6.85975609756097282E-1,3.04878048780487854E0,1.25000000000000000E-1));
#14=VERTEX_POINT('OSCAD_TOPO/3|vertex|v:36f1918971a5901ecc1c999a7031026e|03714cb668908d5b8f27932fa3f7fb613091b37ebfc85e227696e035923f6e68',#13);
#15=CARTESIAN_POINT('',(6.85975609756097282E-1,3.04878048780487854E0,-1.25000000000000000E-1));
#16=VERTEX_POINT('OSCAD_TOPO/3|vertex|v:ec56cff2523fa26d421dca6a11a71e43|8e5e535bb4066f4f3d3e813ba3f69e2f34158238b4aa43f6df1da2ca0e23b68d',#15);
#17=CARTESIAN_POINT('',(-2.53676470588235325E0,1.35294117647058787E0,-1.25000000000000000E-1));
#18=VERTEX_POINT('OSCAD_TOPO/3|vertex|v:91a220e40bdf394d6aa30b0ddc115aaa|14b8ce8054661ee5544a6f6092b1fdbbdffbcb0d4631ea1068047e23d48e081d',#17);
#19=CARTESIAN_POINT('',(-2.53676470588235325E0,1.35294117647058787E0,1.25000000000000000E-1));
#20=VERTEX_POINT('OSCAD_TOPO/3|vertex|v:417827dc6ed6a4629e01f0ab2c8b250e|eacac59e66370b0efc6dfc7e88d1354d7b8760fea0d8ffdda2ec1e50fd0321dc',#19);
#21=CARTESIAN_POINT('',(-2.75735294117647101E0,1.47058823529411731E0,1.25000000000000000E-1));
#22=VERTEX_POINT('OSCAD_TOPO/3|vertex|v:c78eb28f6b3c47a7e50c069f1a1c5878|2f3e8d92ec6d83afa69bf1be3ff7ac911ad6c2a316bb70fc9b9559341b1f5553',#21);
#23=CARTESIAN_POINT('',(-2.75735294117647101E0,1.47058823529411731E0,-1.25000000000000000E-1));
#24=VERTEX_POINT('OSCAD_TOPO/3|vertex|v:279da7514a18949d3c0f9778126322ab|2eab0d6e35f70409779a9c94f143325f0ca0e6786abc568c89542d0541c5f813',#23);
#25=CARTESIAN_POINT('',(-2.08189655172413790E0,-1.98275862068965480E0,-1.25000000000000000E-1));
#26=VERTEX_POINT('OSCAD_TOPO/3|vertex|v:ec427f210f6a1f6176ca3c38cce2dd48|edc95db8cb3736293d0b4bfe9380132172ca4568787ad5f3c50b757b936f919a',#25);
#27=CARTESIAN_POINT('',(-2.08189655172413790E0,-1.98275862068965480E0,1.25000000000000000E-1));
#28=VERTEX_POINT('OSCAD_TOPO/3|vertex|v:8b917cff0d9ea349e6b54057ac906a7e|0b1718f59211c304f471b08950a8fe6c330d537a2755b861f0930f0746ac6827',#27);
#29=CARTESIAN_POINT('',(-2.26293103448275890E0,-2.15517241379310320E0,1.25000000000000000E-1));
#30=VERTEX_POINT('OSCAD_TOPO/3|vertex|v:b4c224f369dc0c2f84e75adade08253a|97c153a8e4d4d99dd06a4d68540301ce10e867c216b1cad29794c2da55d8a907',#29);
#31=CARTESIAN_POINT('',(-2.26293103448275890E0,-2.15517241379310320E0,-1.25000000000000000E-1));
#32=VERTEX_POINT('OSCAD_TOPO/3|vertex|v:a80547cfe6512b2028ed61cf4624d751|783a570a94b98558f85e9edfb2ce660c43b22c543ee9bbc396c9aa7638726a71',#31);
#33=CARTESIAN_POINT('',(1.10576923076923173E0,-2.65384615384615330E0,-1.25000000000000000E-1));
#34=VERTEX_POINT('OSCAD_TOPO/3|vertex|v:de8ee39348476a38942213fe332b20ab|745d6e161bfc55d8c668606378e9371c01c98b7beca3aca0bcbc763362d16c62',#33);
#35=CARTESIAN_POINT('',(1.10576923076923173E0,-2.65384615384615330E0,1.25000000000000000E-1));
#36=VERTEX_POINT('OSCAD_TOPO/3|vertex|v:1437cae1187054447bcb6d3b0c57c95f|e237b5daf0b7efbca5c370e6e0ae73de5ff819de1cd23b498919509fbf87ede9',#35);
#37=CARTESIAN_POINT('',(1.20192307692307798E0,-2.88461538461538414E0,1.25000000000000000E-1));
#38=VERTEX_POINT('OSCAD_TOPO/3|vertex|v:082fd56fe62e83a6aa19aa64b1707f85|b02737ea05425939f3eb85d6b2436192281f847e26bd60f8b6b2cb8a784a396d',#37);
#39=CARTESIAN_POINT('',(1.20192307692307798E0,-2.88461538461538414E0,-1.25000000000000000E-1));
#40=VERTEX_POINT('OSCAD_TOPO/3|vertex|v:fb7c34530fdd10f1170673835e613410|320b2d27e0b2a6d4ef59e4a41faf6b19bf58fe56e40e6e2741e2632273f634c4',#39);
#41=CARTESIAN_POINT('',(2.87500000000000000E0,0.00000000000000000E0,-1.25000000000000000E-1));
#42=CARTESIAN_POINT('',(6.31097560975609428E-1,2.80487804878048808E0,-1.25000000000000000E-1));
#43=CARTESIAN_POINT('',(2.87500000000000000E0,0.00000000000000000E0,1.25000000000000000E-1));
#44=CARTESIAN_POINT('',(6.31097560975609428E-1,2.80487804878048808E0,1.25000000000000000E-1));
#45=B_SPLINE_SURFACE_WITH_KNOTS('',1,1,((#41,#42),(#43,#44)),.UNSPECIFIED.,.F.,.F.,.F.,(2,2),(2,2),(0.00000000000000000E0,1.00000000000000000E0),(0.00000000000000000E0,1.00000000000000000E0),.UNSPECIFIED.);
#46=CARTESIAN_POINT('',(2.87500000000000000E0,0.00000000000000000E0,1.25000000000000000E-1));
#47=CARTESIAN_POINT('',(6.31097560975609428E-1,2.80487804878048808E0,1.25000000000000000E-1));
#48=CARTESIAN_POINT('',(3.12500000000000000E0,0.00000000000000000E0,1.25000000000000000E-1));
#49=CARTESIAN_POINT('',(6.85975609756097282E-1,3.04878048780487854E0,1.25000000000000000E-1));
#50=B_SPLINE_SURFACE_WITH_KNOTS('',1,1,((#46,#47),(#48,#49)),.UNSPECIFIED.,.F.,.F.,.F.,(2,2),(2,2),(0.00000000000000000E0,1.00000000000000000E0),(0.00000000000000000E0,1.00000000000000000E0),.UNSPECIFIED.);
#51=CARTESIAN_POINT('',(3.12500000000000000E0,0.00000000000000000E0,1.25000000000000000E-1));
#52=CARTESIAN_POINT('',(6.85975609756097282E-1,3.04878048780487854E0,1.25000000000000000E-1));
#53=CARTESIAN_POINT('',(3.12500000000000000E0,0.00000000000000000E0,-1.25000000000000000E-1));
#54=CARTESIAN_POINT('',(6.85975609756097282E-1,3.04878048780487854E0,-1.25000000000000000E-1));
#55=B_SPLINE_SURFACE_WITH_KNOTS('',1,1,((#51,#52),(#53,#54)),.UNSPECIFIED.,.F.,.F.,.F.,(2,2),(2,2),(0.00000000000000000E0,1.00000000000000000E0),(0.00000000000000000E0,1.00000000000000000E0),.UNSPECIFIED.);
#56=CARTESIAN_POINT('',(3.12500000000000000E0,0.00000000000000000E0,-1.25000000000000000E-1));
#57=CARTESIAN_POINT('',(6.85975609756097282E-1,3.04878048780487854E0,-1.25000000000000000E-1));
#58=CARTESIAN_POINT('',(2.87500000000000000E0,0.00000000000000000E0,-1.25000000000000000E-1));
#59=CARTESIAN_POINT('',(6.31097560975609428E-1,2.80487804878048808E0,-1.25000000000000000E-1));
#60=B_SPLINE_SURFACE_WITH_KNOTS('',1,1,((#56,#57),(#58,#59)),.UNSPECIFIED.,.F.,.F.,.F.,(2,2),(2,2),(0.00000000000000000E0,1.00000000000000000E0),(0.00000000000000000E0,1.00000000000000000E0),.UNSPECIFIED.);
#61=CARTESIAN_POINT('',(6.31097560975609428E-1,2.80487804878048808E0,-1.25000000000000000E-1));
#62=CARTESIAN_POINT('',(-2.53676470588235325E0,1.35294117647058787E0,-1.25000000000000000E-1));
#63=CARTESIAN_POINT('',(6.31097560975609428E-1,2.80487804878048808E0,1.25000000000000000E-1));
#64=CARTESIAN_POINT('',(-2.53676470588235325E0,1.35294117647058787E0,1.25000000000000000E-1));
#65=B_SPLINE_SURFACE_WITH_KNOTS('',1,1,((#61,#62),(#63,#64)),.UNSPECIFIED.,.F.,.F.,.F.,(2,2),(2,2),(0.00000000000000000E0,1.00000000000000000E0),(0.00000000000000000E0,1.00000000000000000E0),.UNSPECIFIED.);
#66=CARTESIAN_POINT('',(6.31097560975609428E-1,2.80487804878048808E0,1.25000000000000000E-1));
#67=CARTESIAN_POINT('',(-2.53676470588235325E0,1.35294117647058787E0,1.25000000000000000E-1));
#68=CARTESIAN_POINT('',(6.85975609756097282E-1,3.04878048780487854E0,1.25000000000000000E-1));
#69=CARTESIAN_POINT('',(-2.75735294117647101E0,1.47058823529411731E0,1.25000000000000000E-1));
#70=B_SPLINE_SURFACE_WITH_KNOTS('',1,1,((#66,#67),(#68,#69)),.UNSPECIFIED.,.F.,.F.,.F.,(2,2),(2,2),(0.00000000000000000E0,1.00000000000000000E0),(0.00000000000000000E0,1.00000000000000000E0),.UNSPECIFIED.);
#71=CARTESIAN_POINT('',(6.85975609756097282E-1,3.04878048780487854E0,1.25000000000000000E-1));
#72=CARTESIAN_POINT('',(-2.75735294117647101E0,1.47058823529411731E0,1.25000000000000000E-1));
#73=CARTESIAN_POINT('',(6.85975609756097282E-1,3.04878048780487854E0,-1.25000000000000000E-1));
#74=CARTESIAN_POINT('',(-2.75735294117647101E0,1.47058823529411731E0,-1.25000000000000000E-1));
#75=B_SPLINE_SURFACE_WITH_KNOTS('',1,1,((#71,#72),(#73,#74)),.UNSPECIFIED.,.F.,.F.,.F.,(2,2),(2,2),(0.00000000000000000E0,1.00000000000000000E0),(0.00000000000000000E0,1.00000000000000000E0),.UNSPECIFIED.);
#76=CARTESIAN_POINT('',(6.85975609756097282E-1,3.04878048780487854E0,-1.25000000000000000E-1));
#77=CARTESIAN_POINT('',(-2.75735294117647101E0,1.47058823529411731E0,-1.25000000000000000E-1));
#78=CARTESIAN_POINT('',(6.31097560975609428E-1,2.80487804878048808E0,-1.25000000000000000E-1));
#79=CARTESIAN_POINT('',(-2.53676470588235325E0,1.35294117647058787E0,-1.25000000000000000E-1));
#80=B_SPLINE_SURFACE_WITH_KNOTS('',1,1,((#76,#77),(#78,#79)),.UNSPECIFIED.,.F.,.F.,.F.,(2,2),(2,2),(0.00000000000000000E0,1.00000000000000000E0),(0.00000000000000000E0,1.00000000000000000E0),.UNSPECIFIED.);
#81=CARTESIAN_POINT('',(-2.53676470588235325E0,1.35294117647058787E0,-1.25000000000000000E-1));
#82=CARTESIAN_POINT('',(-2.08189655172413790E0,-1.98275862068965480E0,-1.25000000000000000E-1));
#83=CARTESIAN_POINT('',(-2.53676470588235325E0,1.35294117647058787E0,1.25000000000000000E-1));
#84=CARTESIAN_POINT('',(-2.08189655172413790E0,-1.98275862068965480E0,1.25000000000000000E-1));
#85=B_SPLINE_SURFACE_WITH_KNOTS('',1,1,((#81,#82),(#83,#84)),.UNSPECIFIED.,.F.,.F.,.F.,(2,2),(2,2),(0.00000000000000000E0,1.00000000000000000E0),(0.00000000000000000E0,1.00000000000000000E0),.UNSPECIFIED.);
#86=CARTESIAN_POINT('',(-2.53676470588235325E0,1.35294117647058787E0,1.25000000000000000E-1));
#87=CARTESIAN_POINT('',(-2.08189655172413790E0,-1.98275862068965480E0,1.25000000000000000E-1));
#88=CARTESIAN_POINT('',(-2.75735294117647101E0,1.47058823529411731E0,1.25000000000000000E-1));
#89=CARTESIAN_POINT('',(-2.26293103448275890E0,-2.15517241379310320E0,1.25000000000000000E-1));
#90=B_SPLINE_SURFACE_WITH_KNOTS('',1,1,((#86,#87),(#88,#89)),.UNSPECIFIED.,.F.,.F.,.F.,(2,2),(2,2),(0.00000000000000000E0,1.00000000000000000E0),(0.00000000000000000E0,1.00000000000000000E0),.UNSPECIFIED.);
#91=CARTESIAN_POINT('',(-2.75735294117647101E0,1.47058823529411731E0,1.25000000000000000E-1));
#92=CARTESIAN_POINT('',(-2.26293103448275890E0,-2.15517241379310320E0,1.25000000000000000E-1));
#93=CARTESIAN_POINT('',(-2.75735294117647101E0,1.47058823529411731E0,-1.25000000000000000E-1));
#94=CARTESIAN_POINT('',(-2.26293103448275890E0,-2.15517241379310320E0,-1.25000000000000000E-1));
#95=B_SPLINE_SURFACE_WITH_KNOTS('',1,1,((#91,#92),(#93,#94)),.UNSPECIFIED.,.F.,.F.,.F.,(2,2),(2,2),(0.00000000000000000E0,1.00000000000000000E0),(0.00000000000000000E0,1.00000000000000000E0),.UNSPECIFIED.);
#96=CARTESIAN_POINT('',(-2.75735294117647101E0,1.47058823529411731E0,-1.25000000000000000E-1));
#97=CARTESIAN_POINT('',(-2.26293103448275890E0,-2.15517241379310320E0,-1.25000000000000000E-1));
#98=CARTESIAN_POINT('',(-2.53676470588235325E0,1.35294117647058787E0,-1.25000000000000000E-1));
#99=CARTESIAN_POINT('',(-2.08189655172413790E0,-1.98275862068965480E0,-1.25000000000000000E-1));
#100=B_SPLINE_SURFACE_WITH_KNOTS('',1,1,((#96,#97),(#98,#99)),.UNSPECIFIED.,.F.,.F.,.F.,(2,2),(2,2),(0.00000000000000000E0,1.00000000000000000E0),(0.00000000000000000E0,1.00000000000000000E0),.UNSPECIFIED.);
#101=CARTESIAN_POINT('',(-2.08189655172413790E0,-1.98275862068965480E0,-1.25000000000000000E-1));
#102=CARTESIAN_POINT('',(1.10576923076923173E0,-2.65384615384615330E0,-1.25000000000000000E-1));
#103=CARTESIAN_POINT('',(-2.08189655172413790E0,-1.98275862068965480E0,1.25000000000000000E-1));
#104=CARTESIAN_POINT('',(1.10576923076923173E0,-2.65384615384615330E0,1.25000000000000000E-1));
#105=B_SPLINE_SURFACE_WITH_KNOTS('',1,1,((#101,#102),(#103,#104)),.UNSPECIFIED.,.F.,.F.,.F.,(2,2),(2,2),(0.00000000000000000E0,1.00000000000000000E0),(0.00000000000000000E0,1.00000000000000000E0),.UNSPECIFIED.);
#106=CARTESIAN_POINT('',(-2.08189655172413790E0,-1.98275862068965480E0,1.25000000000000000E-1));
#107=CARTESIAN_POINT('',(1.10576923076923173E0,-2.65384615384615330E0,1.25000000000000000E-1));
#108=CARTESIAN_POINT('',(-2.26293103448275890E0,-2.15517241379310320E0,1.25000000000000000E-1));
#109=CARTESIAN_POINT('',(1.20192307692307798E0,-2.88461538461538414E0,1.25000000000000000E-1));
#110=B_SPLINE_SURFACE_WITH_KNOTS('',1,1,((#106,#107),(#108,#109)),.UNSPECIFIED.,.F.,.F.,.F.,(2,2),(2,2),(0.00000000000000000E0,1.00000000000000000E0),(0.00000000000000000E0,1.00000000000000000E0),.UNSPECIFIED.);
#111=CARTESIAN_POINT('',(-2.26293103448275890E0,-2.15517241379310320E0,1.25000000000000000E-1));
#112=CARTESIAN_POINT('',(1.20192307692307798E0,-2.88461538461538414E0,1.25000000000000000E-1));
#113=CARTESIAN_POINT('',(-2.26293103448275890E0,-2.15517241379310320E0,-1.25000000000000000E-1));
#114=CARTESIAN_POINT('',(1.20192307692307798E0,-2.88461538461538414E0,-1.25000000000000000E-1));
#115=B_SPLINE_SURFACE_WITH_KNOTS('',1,1,((#111,#112),(#113,#114)),.UNSPECIFIED.,.F.,.F.,.F.,(2,2),(2,2),(0.00000000000000000E0,1.00000000000000000E0),(0.00000000000000000E0,1.00000000000000000E0),.UNSPECIFIED.);
#116=CARTESIAN_POINT('',(-2.26293103448275890E0,-2.15517241379310320E0,-1.25000000000000000E-1));
#117=CARTESIAN_POINT('',(1.20192307692307798E0,-2.88461538461538414E0,-1.25000000000000000E-1));
#118=CARTESIAN_POINT('',(-2.08189655172413790E0,-1.98275862068965480E0,-1.25000000000000000E-1));
#119=CARTESIAN_POINT('',(1.10576923076923173E0,-2.65384615384615330E0,-1.25000000000000000E-1));
#120=B_SPLINE_SURFACE_WITH_KNOTS('',1,1,((#116,#117),(#118,#119)),.UNSPECIFIED.,.F.,.F.,.F.,(2,2),(2,2),(0.00000000000000000E0,1.00000000000000000E0),(0.00000000000000000E0,1.00000000000000000E0),.UNSPECIFIED.);
#121=CARTESIAN_POINT('',(1.10576923076923173E0,-2.65384615384615330E0,-1.25000000000000000E-1));
#122=CARTESIAN_POINT('',(2.87500000000000000E0,0.00000000000000000E0,-1.25000000000000000E-1));
#123=CARTESIAN_POINT('',(1.10576923076923173E0,-2.65384615384615330E0,1.25000000000000000E-1));
#124=CARTESIAN_POINT('',(2.87500000000000000E0,0.00000000000000000E0,1.25000000000000000E-1));
#125=B_SPLINE_SURFACE_WITH_KNOTS('',1,1,((#121,#122),(#123,#124)),.UNSPECIFIED.,.F.,.F.,.F.,(2,2),(2,2),(0.00000000000000000E0,1.00000000000000000E0),(0.00000000000000000E0,1.00000000000000000E0),.UNSPECIFIED.);
#126=CARTESIAN_POINT('',(1.10576923076923173E0,-2.65384615384615330E0,1.25000000000000000E-1));
#127=CARTESIAN_POINT('',(2.87500000000000000E0,0.00000000000000000E0,1.25000000000000000E-1));
#128=CARTESIAN_POINT('',(1.20192307692307798E0,-2.88461538461538414E0,1.25000000000000000E-1));
#129=CARTESIAN_POINT('',(3.12500000000000000E0,0.00000000000000000E0,1.25000000000000000E-1));
#130=B_SPLINE_SURFACE_WITH_KNOTS('',1,1,((#126,#127),(#128,#129)),.UNSPECIFIED.,.F.,.F.,.F.,(2,2),(2,2),(0.00000000000000000E0,1.00000000000000000E0),(0.00000000000000000E0,1.00000000000000000E0),.UNSPECIFIED.);
#131=CARTESIAN_POINT('',(1.20192307692307798E0,-2.88461538461538414E0,1.25000000000000000E-1));
#132=CARTESIAN_POINT('',(3.12500000000000000E0,0.00000000000000000E0,1.25000000000000000E-1));
#133=CARTESIAN_POINT('',(1.20192307692307798E0,-2.88461538461538414E0,-1.25000000000000000E-1));
#134=CARTESIAN_POINT('',(3.12500000000000000E0,0.00000000000000000E0,-1.25000000000000000E-1));
#135=B_SPLINE_SURFACE_WITH_KNOTS('',1,1,((#131,#132),(#133,#134)),.UNSPECIFIED.,.F.,.F.,.F.,(2,2),(2,2),(0.00000000000000000E0,1.00000000000000000E0),(0.00000000000000000E0,1.00000000000000000E0),.UNSPECIFIED.);
#136=CARTESIAN_POINT('',(1.20192307692307798E0,-2.88461538461538414E0,-1.25000000000000000E-1));
#137=CARTESIAN_POINT('',(3.12500000000000000E0,0.00000000000000000E0,-1.25000000000000000E-1));
#138=CARTESIAN_POINT('',(1.10576923076923173E0,-2.65384615384615330E0,-1.25000000000000000E-1));
#139=CARTESIAN_POINT('',(2.87500000000000000E0,0.00000000000000000E0,-1.25000000000000000E-1));
#140=B_SPLINE_SURFACE_WITH_KNOTS('',1,1,((#136,#137),(#138,#139)),.UNSPECIFIED.,.F.,.F.,.F.,(2,2),(2,2),(0.00000000000000000E0,1.00000000000000000E0),(0.00000000000000000E0,1.00000000000000000E0),.UNSPECIFIED.);
#141=CARTESIAN_POINT('',(2.87500000000000000E0,0.00000000000000000E0,-1.25000000000000000E-1));
#142=CARTESIAN_POINT('',(2.87500000000000000E0,0.00000000000000000E0,1.25000000000000000E-1));
#143=B_SPLINE_CURVE_WITH_KNOTS('',1,(#141,#142),.UNSPECIFIED.,.F.,.F.,(2,2),(0.00000000000000000E0,1.00000000000000000E0),.UNSPECIFIED.);
#144=CARTESIAN_POINT('',(2.87500000000000000E0,0.00000000000000000E0,1.25000000000000000E-1));
#145=CARTESIAN_POINT('',(6.31097560975609428E-1,2.80487804878048808E0,1.25000000000000000E-1));
#146=B_SPLINE_CURVE_WITH_KNOTS('',1,(#144,#145),.UNSPECIFIED.,.F.,.F.,(2,2),(0.00000000000000000E0,1.00000000000000000E0),.UNSPECIFIED.);
#147=CARTESIAN_POINT('',(6.31097560975609428E-1,2.80487804878048808E0,-1.25000000000000000E-1));
#148=CARTESIAN_POINT('',(6.31097560975609428E-1,2.80487804878048808E0,1.25000000000000000E-1));
#149=B_SPLINE_CURVE_WITH_KNOTS('',1,(#147,#148),.UNSPECIFIED.,.F.,.F.,(2,2),(0.00000000000000000E0,1.00000000000000000E0),.UNSPECIFIED.);
#150=CARTESIAN_POINT('',(2.87500000000000000E0,0.00000000000000000E0,-1.25000000000000000E-1));
#151=CARTESIAN_POINT('',(6.31097560975609428E-1,2.80487804878048808E0,-1.25000000000000000E-1));
#152=B_SPLINE_CURVE_WITH_KNOTS('',1,(#150,#151),.UNSPECIFIED.,.F.,.F.,(2,2),(0.00000000000000000E0,1.00000000000000000E0),.UNSPECIFIED.);
#153=CARTESIAN_POINT('',(2.87500000000000000E0,0.00000000000000000E0,1.25000000000000000E-1));
#154=CARTESIAN_POINT('',(3.12500000000000000E0,0.00000000000000000E0,1.25000000000000000E-1));
#155=B_SPLINE_CURVE_WITH_KNOTS('',1,(#153,#154),.UNSPECIFIED.,.F.,.F.,(2,2),(0.00000000000000000E0,1.00000000000000000E0),.UNSPECIFIED.);
#156=CARTESIAN_POINT('',(3.12500000000000000E0,0.00000000000000000E0,1.25000000000000000E-1));
#157=CARTESIAN_POINT('',(6.85975609756097282E-1,3.04878048780487854E0,1.25000000000000000E-1));
#158=B_SPLINE_CURVE_WITH_KNOTS('',1,(#156,#157),.UNSPECIFIED.,.F.,.F.,(2,2),(0.00000000000000000E0,1.00000000000000000E0),.UNSPECIFIED.);
#159=CARTESIAN_POINT('',(6.31097560975609428E-1,2.80487804878048808E0,1.25000000000000000E-1));
#160=CARTESIAN_POINT('',(6.85975609756097282E-1,3.04878048780487854E0,1.25000000000000000E-1));
#161=B_SPLINE_CURVE_WITH_KNOTS('',1,(#159,#160),.UNSPECIFIED.,.F.,.F.,(2,2),(0.00000000000000000E0,1.00000000000000000E0),.UNSPECIFIED.);
#162=CARTESIAN_POINT('',(3.12500000000000000E0,0.00000000000000000E0,1.25000000000000000E-1));
#163=CARTESIAN_POINT('',(3.12500000000000000E0,0.00000000000000000E0,-1.25000000000000000E-1));
#164=B_SPLINE_CURVE_WITH_KNOTS('',1,(#162,#163),.UNSPECIFIED.,.F.,.F.,(2,2),(0.00000000000000000E0,1.00000000000000000E0),.UNSPECIFIED.);
#165=CARTESIAN_POINT('',(3.12500000000000000E0,0.00000000000000000E0,-1.25000000000000000E-1));
#166=CARTESIAN_POINT('',(6.85975609756097282E-1,3.04878048780487854E0,-1.25000000000000000E-1));
#167=B_SPLINE_CURVE_WITH_KNOTS('',1,(#165,#166),.UNSPECIFIED.,.F.,.F.,(2,2),(0.00000000000000000E0,1.00000000000000000E0),.UNSPECIFIED.);
#168=CARTESIAN_POINT('',(6.85975609756097282E-1,3.04878048780487854E0,1.25000000000000000E-1));
#169=CARTESIAN_POINT('',(6.85975609756097282E-1,3.04878048780487854E0,-1.25000000000000000E-1));
#170=B_SPLINE_CURVE_WITH_KNOTS('',1,(#168,#169),.UNSPECIFIED.,.F.,.F.,(2,2),(0.00000000000000000E0,1.00000000000000000E0),.UNSPECIFIED.);
#171=CARTESIAN_POINT('',(2.87500000000000000E0,0.00000000000000000E0,-1.25000000000000000E-1));
#172=CARTESIAN_POINT('',(3.12500000000000000E0,0.00000000000000000E0,-1.25000000000000000E-1));
#173=B_SPLINE_CURVE_WITH_KNOTS('',1,(#171,#172),.UNSPECIFIED.,.F.,.F.,(2,2),(0.00000000000000000E0,1.00000000000000000E0),.UNSPECIFIED.);
#174=CARTESIAN_POINT('',(6.31097560975609428E-1,2.80487804878048808E0,-1.25000000000000000E-1));
#175=CARTESIAN_POINT('',(6.85975609756097282E-1,3.04878048780487854E0,-1.25000000000000000E-1));
#176=B_SPLINE_CURVE_WITH_KNOTS('',1,(#174,#175),.UNSPECIFIED.,.F.,.F.,(2,2),(0.00000000000000000E0,1.00000000000000000E0),.UNSPECIFIED.);
#177=CARTESIAN_POINT('',(6.31097560975609428E-1,2.80487804878048808E0,1.25000000000000000E-1));
#178=CARTESIAN_POINT('',(-2.53676470588235325E0,1.35294117647058787E0,1.25000000000000000E-1));
#179=B_SPLINE_CURVE_WITH_KNOTS('',1,(#177,#178),.UNSPECIFIED.,.F.,.F.,(2,2),(0.00000000000000000E0,1.00000000000000000E0),.UNSPECIFIED.);
#180=CARTESIAN_POINT('',(-2.53676470588235325E0,1.35294117647058787E0,-1.25000000000000000E-1));
#181=CARTESIAN_POINT('',(-2.53676470588235325E0,1.35294117647058787E0,1.25000000000000000E-1));
#182=B_SPLINE_CURVE_WITH_KNOTS('',1,(#180,#181),.UNSPECIFIED.,.F.,.F.,(2,2),(0.00000000000000000E0,1.00000000000000000E0),.UNSPECIFIED.);
#183=CARTESIAN_POINT('',(6.31097560975609428E-1,2.80487804878048808E0,-1.25000000000000000E-1));
#184=CARTESIAN_POINT('',(-2.53676470588235325E0,1.35294117647058787E0,-1.25000000000000000E-1));
#185=B_SPLINE_CURVE_WITH_KNOTS('',1,(#183,#184),.UNSPECIFIED.,.F.,.F.,(2,2),(0.00000000000000000E0,1.00000000000000000E0),.UNSPECIFIED.);
#186=CARTESIAN_POINT('',(6.85975609756097282E-1,3.04878048780487854E0,1.25000000000000000E-1));
#187=CARTESIAN_POINT('',(-2.75735294117647101E0,1.47058823529411731E0,1.25000000000000000E-1));
#188=B_SPLINE_CURVE_WITH_KNOTS('',1,(#186,#187),.UNSPECIFIED.,.F.,.F.,(2,2),(0.00000000000000000E0,1.00000000000000000E0),.UNSPECIFIED.);
#189=CARTESIAN_POINT('',(-2.53676470588235325E0,1.35294117647058787E0,1.25000000000000000E-1));
#190=CARTESIAN_POINT('',(-2.75735294117647101E0,1.47058823529411731E0,1.25000000000000000E-1));
#191=B_SPLINE_CURVE_WITH_KNOTS('',1,(#189,#190),.UNSPECIFIED.,.F.,.F.,(2,2),(0.00000000000000000E0,1.00000000000000000E0),.UNSPECIFIED.);
#192=CARTESIAN_POINT('',(6.85975609756097282E-1,3.04878048780487854E0,-1.25000000000000000E-1));
#193=CARTESIAN_POINT('',(-2.75735294117647101E0,1.47058823529411731E0,-1.25000000000000000E-1));
#194=B_SPLINE_CURVE_WITH_KNOTS('',1,(#192,#193),.UNSPECIFIED.,.F.,.F.,(2,2),(0.00000000000000000E0,1.00000000000000000E0),.UNSPECIFIED.);
#195=CARTESIAN_POINT('',(-2.75735294117647101E0,1.47058823529411731E0,1.25000000000000000E-1));
#196=CARTESIAN_POINT('',(-2.75735294117647101E0,1.47058823529411731E0,-1.25000000000000000E-1));
#197=B_SPLINE_CURVE_WITH_KNOTS('',1,(#195,#196),.UNSPECIFIED.,.F.,.F.,(2,2),(0.00000000000000000E0,1.00000000000000000E0),.UNSPECIFIED.);
#198=CARTESIAN_POINT('',(-2.53676470588235325E0,1.35294117647058787E0,-1.25000000000000000E-1));
#199=CARTESIAN_POINT('',(-2.75735294117647101E0,1.47058823529411731E0,-1.25000000000000000E-1));
#200=B_SPLINE_CURVE_WITH_KNOTS('',1,(#198,#199),.UNSPECIFIED.,.F.,.F.,(2,2),(0.00000000000000000E0,1.00000000000000000E0),.UNSPECIFIED.);
#201=CARTESIAN_POINT('',(-2.53676470588235325E0,1.35294117647058787E0,1.25000000000000000E-1));
#202=CARTESIAN_POINT('',(-2.08189655172413790E0,-1.98275862068965480E0,1.25000000000000000E-1));
#203=B_SPLINE_CURVE_WITH_KNOTS('',1,(#201,#202),.UNSPECIFIED.,.F.,.F.,(2,2),(0.00000000000000000E0,1.00000000000000000E0),.UNSPECIFIED.);
#204=CARTESIAN_POINT('',(-2.08189655172413790E0,-1.98275862068965480E0,-1.25000000000000000E-1));
#205=CARTESIAN_POINT('',(-2.08189655172413790E0,-1.98275862068965480E0,1.25000000000000000E-1));
#206=B_SPLINE_CURVE_WITH_KNOTS('',1,(#204,#205),.UNSPECIFIED.,.F.,.F.,(2,2),(0.00000000000000000E0,1.00000000000000000E0),.UNSPECIFIED.);
#207=CARTESIAN_POINT('',(-2.53676470588235325E0,1.35294117647058787E0,-1.25000000000000000E-1));
#208=CARTESIAN_POINT('',(-2.08189655172413790E0,-1.98275862068965480E0,-1.25000000000000000E-1));
#209=B_SPLINE_CURVE_WITH_KNOTS('',1,(#207,#208),.UNSPECIFIED.,.F.,.F.,(2,2),(0.00000000000000000E0,1.00000000000000000E0),.UNSPECIFIED.);
#210=CARTESIAN_POINT('',(-2.75735294117647101E0,1.47058823529411731E0,1.25000000000000000E-1));
#211=CARTESIAN_POINT('',(-2.26293103448275890E0,-2.15517241379310320E0,1.25000000000000000E-1));
#212=B_SPLINE_CURVE_WITH_KNOTS('',1,(#210,#211),.UNSPECIFIED.,.F.,.F.,(2,2),(0.00000000000000000E0,1.00000000000000000E0),.UNSPECIFIED.);
#213=CARTESIAN_POINT('',(-2.08189655172413790E0,-1.98275862068965480E0,1.25000000000000000E-1));
#214=CARTESIAN_POINT('',(-2.26293103448275890E0,-2.15517241379310320E0,1.25000000000000000E-1));
#215=B_SPLINE_CURVE_WITH_KNOTS('',1,(#213,#214),.UNSPECIFIED.,.F.,.F.,(2,2),(0.00000000000000000E0,1.00000000000000000E0),.UNSPECIFIED.);
#216=CARTESIAN_POINT('',(-2.75735294117647101E0,1.47058823529411731E0,-1.25000000000000000E-1));
#217=CARTESIAN_POINT('',(-2.26293103448275890E0,-2.15517241379310320E0,-1.25000000000000000E-1));
#218=B_SPLINE_CURVE_WITH_KNOTS('',1,(#216,#217),.UNSPECIFIED.,.F.,.F.,(2,2),(0.00000000000000000E0,1.00000000000000000E0),.UNSPECIFIED.);
#219=CARTESIAN_POINT('',(-2.26293103448275890E0,-2.15517241379310320E0,1.25000000000000000E-1));
#220=CARTESIAN_POINT('',(-2.26293103448275890E0,-2.15517241379310320E0,-1.25000000000000000E-1));
#221=B_SPLINE_CURVE_WITH_KNOTS('',1,(#219,#220),.UNSPECIFIED.,.F.,.F.,(2,2),(0.00000000000000000E0,1.00000000000000000E0),.UNSPECIFIED.);
#222=CARTESIAN_POINT('',(-2.08189655172413790E0,-1.98275862068965480E0,-1.25000000000000000E-1));
#223=CARTESIAN_POINT('',(-2.26293103448275890E0,-2.15517241379310320E0,-1.25000000000000000E-1));
#224=B_SPLINE_CURVE_WITH_KNOTS('',1,(#222,#223),.UNSPECIFIED.,.F.,.F.,(2,2),(0.00000000000000000E0,1.00000000000000000E0),.UNSPECIFIED.);
#225=CARTESIAN_POINT('',(-2.08189655172413790E0,-1.98275862068965480E0,1.25000000000000000E-1));
#226=CARTESIAN_POINT('',(1.10576923076923173E0,-2.65384615384615330E0,1.25000000000000000E-1));
#227=B_SPLINE_CURVE_WITH_KNOTS('',1,(#225,#226),.UNSPECIFIED.,.F.,.F.,(2,2),(0.00000000000000000E0,1.00000000000000000E0),.UNSPECIFIED.);
#228=CARTESIAN_POINT('',(1.10576923076923173E0,-2.65384615384615330E0,-1.25000000000000000E-1));
#229=CARTESIAN_POINT('',(1.10576923076923173E0,-2.65384615384615330E0,1.25000000000000000E-1));
#230=B_SPLINE_CURVE_WITH_KNOTS('',1,(#228,#229),.UNSPECIFIED.,.F.,.F.,(2,2),(0.00000000000000000E0,1.00000000000000000E0),.UNSPECIFIED.);
#231=CARTESIAN_POINT('',(-2.08189655172413790E0,-1.98275862068965480E0,-1.25000000000000000E-1));
#232=CARTESIAN_POINT('',(1.10576923076923173E0,-2.65384615384615330E0,-1.25000000000000000E-1));
#233=B_SPLINE_CURVE_WITH_KNOTS('',1,(#231,#232),.UNSPECIFIED.,.F.,.F.,(2,2),(0.00000000000000000E0,1.00000000000000000E0),.UNSPECIFIED.);
#234=CARTESIAN_POINT('',(-2.26293103448275890E0,-2.15517241379310320E0,1.25000000000000000E-1));
#235=CARTESIAN_POINT('',(1.20192307692307798E0,-2.88461538461538414E0,1.25000000000000000E-1));
#236=B_SPLINE_CURVE_WITH_KNOTS('',1,(#234,#235),.UNSPECIFIED.,.F.,.F.,(2,2),(0.00000000000000000E0,1.00000000000000000E0),.UNSPECIFIED.);
#237=CARTESIAN_POINT('',(1.10576923076923173E0,-2.65384615384615330E0,1.25000000000000000E-1));
#238=CARTESIAN_POINT('',(1.20192307692307798E0,-2.88461538461538414E0,1.25000000000000000E-1));
#239=B_SPLINE_CURVE_WITH_KNOTS('',1,(#237,#238),.UNSPECIFIED.,.F.,.F.,(2,2),(0.00000000000000000E0,1.00000000000000000E0),.UNSPECIFIED.);
#240=CARTESIAN_POINT('',(-2.26293103448275890E0,-2.15517241379310320E0,-1.25000000000000000E-1));
#241=CARTESIAN_POINT('',(1.20192307692307798E0,-2.88461538461538414E0,-1.25000000000000000E-1));
#242=B_SPLINE_CURVE_WITH_KNOTS('',1,(#240,#241),.UNSPECIFIED.,.F.,.F.,(2,2),(0.00000000000000000E0,1.00000000000000000E0),.UNSPECIFIED.);
#243=CARTESIAN_POINT('',(1.20192307692307798E0,-2.88461538461538414E0,1.25000000000000000E-1));
#244=CARTESIAN_POINT('',(1.20192307692307798E0,-2.88461538461538414E0,-1.25000000000000000E-1));
#245=B_SPLINE_CURVE_WITH_KNOTS('',1,(#243,#244),.UNSPECIFIED.,.F.,.F.,(2,2),(0.00000000000000000E0,1.00000000000000000E0),.UNSPECIFIED.);
#246=CARTESIAN_POINT('',(1.10576923076923173E0,-2.65384615384615330E0,-1.25000000000000000E-1));
#247=CARTESIAN_POINT('',(1.20192307692307798E0,-2.88461538461538414E0,-1.25000000000000000E-1));
#248=B_SPLINE_CURVE_WITH_KNOTS('',1,(#246,#247),.UNSPECIFIED.,.F.,.F.,(2,2),(0.00000000000000000E0,1.00000000000000000E0),.UNSPECIFIED.);
#249=CARTESIAN_POINT('',(2.87500000000000000E0,0.00000000000000000E0,1.25000000000000000E-1));
#250=CARTESIAN_POINT('',(1.10576923076923173E0,-2.65384615384615330E0,1.25000000000000000E-1));
#251=B_SPLINE_CURVE_WITH_KNOTS('',1,(#249,#250),.UNSPECIFIED.,.F.,.F.,(2,2),(0.00000000000000000E0,1.00000000000000000E0),.UNSPECIFIED.);
#252=CARTESIAN_POINT('',(2.87500000000000000E0,0.00000000000000000E0,-1.25000000000000000E-1));
#253=CARTESIAN_POINT('',(1.10576923076923173E0,-2.65384615384615330E0,-1.25000000000000000E-1));
#254=B_SPLINE_CURVE_WITH_KNOTS('',1,(#252,#253),.UNSPECIFIED.,.F.,.F.,(2,2),(0.00000000000000000E0,1.00000000000000000E0),.UNSPECIFIED.);
#255=CARTESIAN_POINT('',(3.12500000000000000E0,0.00000000000000000E0,1.25000000000000000E-1));
#256=CARTESIAN_POINT('',(1.20192307692307798E0,-2.88461538461538414E0,1.25000000000000000E-1));
#257=B_SPLINE_CURVE_WITH_KNOTS('',1,(#255,#256),.UNSPECIFIED.,.F.,.F.,(2,2),(0.00000000000000000E0,1.00000000000000000E0),.UNSPECIFIED.);
#258=CARTESIAN_POINT('',(3.12500000000000000E0,0.00000000000000000E0,-1.25000000000000000E-1));
#259=CARTESIAN_POINT('',(1.20192307692307798E0,-2.88461538461538414E0,-1.25000000000000000E-1));
#260=B_SPLINE_CURVE_WITH_KNOTS('',1,(#258,#259),.UNSPECIFIED.,.F.,.F.,(2,2),(0.00000000000000000E0,1.00000000000000000E0),.UNSPECIFIED.);
#261=(GEOMETRIC_REPRESENTATION_CONTEXT(2)REPRESENTATION_CONTEXT('','2D'));
#262=CARTESIAN_POINT('',(0.00000000000000000E0,0.00000000000000000E0));
#263=CARTESIAN_POINT('',(1.00000000000000000E0,0.00000000000000000E0));
#264=B_SPLINE_CURVE_WITH_KNOTS('',1,(#262,#263),.UNSPECIFIED.,.F.,.F.,(2,2),(0.00000000000000000E0,1.00000000000000000E0),.UNSPECIFIED.);
#265=DEFINITIONAL_REPRESENTATION('',(#264),#261);
#266=PCURVE('',#45,#265);
#267=CARTESIAN_POINT('',(1.00000000000000000E0,0.00000000000000000E0));
#268=CARTESIAN_POINT('',(1.00000000000000000E0,1.00000000000000000E0));
#269=B_SPLINE_CURVE_WITH_KNOTS('',1,(#267,#268),.UNSPECIFIED.,.F.,.F.,(2,2),(0.00000000000000000E0,1.00000000000000000E0),.UNSPECIFIED.);
#270=DEFINITIONAL_REPRESENTATION('',(#269),#261);
#271=PCURVE('',#45,#270);
#272=CARTESIAN_POINT('',(1.00000000000000000E0,1.00000000000000000E0));
#273=CARTESIAN_POINT('',(0.00000000000000000E0,1.00000000000000000E0));
#274=B_SPLINE_CURVE_WITH_KNOTS('',1,(#272,#273),.UNSPECIFIED.,.F.,.F.,(2,2),(0.00000000000000000E0,1.00000000000000000E0),.UNSPECIFIED.);
#275=DEFINITIONAL_REPRESENTATION('',(#274),#261);
#276=PCURVE('',#45,#275);
#277=CARTESIAN_POINT('',(0.00000000000000000E0,1.00000000000000000E0));
#278=CARTESIAN_POINT('',(0.00000000000000000E0,0.00000000000000000E0));
#279=B_SPLINE_CURVE_WITH_KNOTS('',1,(#277,#278),.UNSPECIFIED.,.F.,.F.,(2,2),(0.00000000000000000E0,1.00000000000000000E0),.UNSPECIFIED.);
#280=DEFINITIONAL_REPRESENTATION('',(#279),#261);
#281=PCURVE('',#45,#280);
#282=CARTESIAN_POINT('',(0.00000000000000000E0,0.00000000000000000E0));
#283=CARTESIAN_POINT('',(1.00000000000000000E0,0.00000000000000000E0));
#284=B_SPLINE_CURVE_WITH_KNOTS('',1,(#282,#283),.UNSPECIFIED.,.F.,.F.,(2,2),(0.00000000000000000E0,1.00000000000000000E0),.UNSPECIFIED.);
#285=DEFINITIONAL_REPRESENTATION('',(#284),#261);
#286=PCURVE('',#50,#285);
#287=CARTESIAN_POINT('',(1.00000000000000000E0,0.00000000000000000E0));
#288=CARTESIAN_POINT('',(1.00000000000000000E0,1.00000000000000000E0));
#289=B_SPLINE_CURVE_WITH_KNOTS('',1,(#287,#288),.UNSPECIFIED.,.F.,.F.,(2,2),(0.00000000000000000E0,1.00000000000000000E0),.UNSPECIFIED.);
#290=DEFINITIONAL_REPRESENTATION('',(#289),#261);
#291=PCURVE('',#50,#290);
#292=CARTESIAN_POINT('',(1.00000000000000000E0,1.00000000000000000E0));
#293=CARTESIAN_POINT('',(0.00000000000000000E0,1.00000000000000000E0));
#294=B_SPLINE_CURVE_WITH_KNOTS('',1,(#292,#293),.UNSPECIFIED.,.F.,.F.,(2,2),(0.00000000000000000E0,1.00000000000000000E0),.UNSPECIFIED.);
#295=DEFINITIONAL_REPRESENTATION('',(#294),#261);
#296=PCURVE('',#50,#295);
#297=CARTESIAN_POINT('',(0.00000000000000000E0,1.00000000000000000E0));
#298=CARTESIAN_POINT('',(0.00000000000000000E0,0.00000000000000000E0));
#299=B_SPLINE_CURVE_WITH_KNOTS('',1,(#297,#298),.UNSPECIFIED.,.F.,.F.,(2,2),(0.00000000000000000E0,1.00000000000000000E0),.UNSPECIFIED.);
#300=DEFINITIONAL_REPRESENTATION('',(#299),#261);
#301=PCURVE('',#50,#300);
#302=CARTESIAN_POINT('',(0.00000000000000000E0,0.00000000000000000E0));
#303=CARTESIAN_POINT('',(1.00000000000000000E0,0.00000000000000000E0));
#304=B_SPLINE_CURVE_WITH_KNOTS('',1,(#302,#303),.UNSPECIFIED.,.F.,.F.,(2,2),(0.00000000000000000E0,1.00000000000000000E0),.UNSPECIFIED.);
#305=DEFINITIONAL_REPRESENTATION('',(#304),#261);
#306=PCURVE('',#55,#305);
#307=CARTESIAN_POINT('',(1.00000000000000000E0,0.00000000000000000E0));
#308=CARTESIAN_POINT('',(1.00000000000000000E0,1.00000000000000000E0));
#309=B_SPLINE_CURVE_WITH_KNOTS('',1,(#307,#308),.UNSPECIFIED.,.F.,.F.,(2,2),(0.00000000000000000E0,1.00000000000000000E0),.UNSPECIFIED.);
#310=DEFINITIONAL_REPRESENTATION('',(#309),#261);
#311=PCURVE('',#55,#310);
#312=CARTESIAN_POINT('',(1.00000000000000000E0,1.00000000000000000E0));
#313=CARTESIAN_POINT('',(0.00000000000000000E0,1.00000000000000000E0));
#314=B_SPLINE_CURVE_WITH_KNOTS('',1,(#312,#313),.UNSPECIFIED.,.F.,.F.,(2,2),(0.00000000000000000E0,1.00000000000000000E0),.UNSPECIFIED.);
#315=DEFINITIONAL_REPRESENTATION('',(#314),#261);
#316=PCURVE('',#55,#315);
#317=CARTESIAN_POINT('',(0.00000000000000000E0,1.00000000000000000E0));
#318=CARTESIAN_POINT('',(0.00000000000000000E0,0.00000000000000000E0));
#319=B_SPLINE_CURVE_WITH_KNOTS('',1,(#317,#318),.UNSPECIFIED.,.F.,.F.,(2,2),(0.00000000000000000E0,1.00000000000000000E0),.UNSPECIFIED.);
#320=DEFINITIONAL_REPRESENTATION('',(#319),#261);
#321=PCURVE('',#55,#320);
#322=CARTESIAN_POINT('',(0.00000000000000000E0,0.00000000000000000E0));
#323=CARTESIAN_POINT('',(1.00000000000000000E0,0.00000000000000000E0));
#324=B_SPLINE_CURVE_WITH_KNOTS('',1,(#322,#323),.UNSPECIFIED.,.F.,.F.,(2,2),(0.00000000000000000E0,1.00000000000000000E0),.UNSPECIFIED.);
#325=DEFINITIONAL_REPRESENTATION('',(#324),#261);
#326=PCURVE('',#60,#325);
#327=CARTESIAN_POINT('',(1.00000000000000000E0,0.00000000000000000E0));
#328=CARTESIAN_POINT('',(1.00000000000000000E0,1.00000000000000000E0));
#329=B_SPLINE_CURVE_WITH_KNOTS('',1,(#327,#328),.UNSPECIFIED.,.F.,.F.,(2,2),(0.00000000000000000E0,1.00000000000000000E0),.UNSPECIFIED.);
#330=DEFINITIONAL_REPRESENTATION('',(#329),#261);
#331=PCURVE('',#60,#330);
#332=CARTESIAN_POINT('',(1.00000000000000000E0,1.00000000000000000E0));
#333=CARTESIAN_POINT('',(0.00000000000000000E0,1.00000000000000000E0));
#334=B_SPLINE_CURVE_WITH_KNOTS('',1,(#332,#333),.UNSPECIFIED.,.F.,.F.,(2,2),(0.00000000000000000E0,1.00000000000000000E0),.UNSPECIFIED.);
#335=DEFINITIONAL_REPRESENTATION('',(#334),#261);
#336=PCURVE('',#60,#335);
#337=CARTESIAN_POINT('',(0.00000000000000000E0,1.00000000000000000E0));
#338=CARTESIAN_POINT('',(0.00000000000000000E0,0.00000000000000000E0));
#339=B_SPLINE_CURVE_WITH_KNOTS('',1,(#337,#338),.UNSPECIFIED.,.F.,.F.,(2,2),(0.00000000000000000E0,1.00000000000000000E0),.UNSPECIFIED.);
#340=DEFINITIONAL_REPRESENTATION('',(#339),#261);
#341=PCURVE('',#60,#340);
#342=CARTESIAN_POINT('',(0.00000000000000000E0,0.00000000000000000E0));
#343=CARTESIAN_POINT('',(1.00000000000000000E0,0.00000000000000000E0));
#344=B_SPLINE_CURVE_WITH_KNOTS('',1,(#342,#343),.UNSPECIFIED.,.F.,.F.,(2,2),(0.00000000000000000E0,1.00000000000000000E0),.UNSPECIFIED.);
#345=DEFINITIONAL_REPRESENTATION('',(#344),#261);
#346=PCURVE('',#65,#345);
#347=CARTESIAN_POINT('',(1.00000000000000000E0,0.00000000000000000E0));
#348=CARTESIAN_POINT('',(1.00000000000000000E0,1.00000000000000000E0));
#349=B_SPLINE_CURVE_WITH_KNOTS('',1,(#347,#348),.UNSPECIFIED.,.F.,.F.,(2,2),(0.00000000000000000E0,1.00000000000000000E0),.UNSPECIFIED.);
#350=DEFINITIONAL_REPRESENTATION('',(#349),#261);
#351=PCURVE('',#65,#350);
#352=CARTESIAN_POINT('',(1.00000000000000000E0,1.00000000000000000E0));
#353=CARTESIAN_POINT('',(0.00000000000000000E0,1.00000000000000000E0));
#354=B_SPLINE_CURVE_WITH_KNOTS('',1,(#352,#353),.UNSPECIFIED.,.F.,.F.,(2,2),(0.00000000000000000E0,1.00000000000000000E0),.UNSPECIFIED.);
#355=DEFINITIONAL_REPRESENTATION('',(#354),#261);
#356=PCURVE('',#65,#355);
#357=CARTESIAN_POINT('',(0.00000000000000000E0,1.00000000000000000E0));
#358=CARTESIAN_POINT('',(0.00000000000000000E0,0.00000000000000000E0));
#359=B_SPLINE_CURVE_WITH_KNOTS('',1,(#357,#358),.UNSPECIFIED.,.F.,.F.,(2,2),(0.00000000000000000E0,1.00000000000000000E0),.UNSPECIFIED.);
#360=DEFINITIONAL_REPRESENTATION('',(#359),#261);
#361=PCURVE('',#65,#360);
#362=CARTESIAN_POINT('',(0.00000000000000000E0,0.00000000000000000E0));
#363=CARTESIAN_POINT('',(1.00000000000000000E0,0.00000000000000000E0));
#364=B_SPLINE_CURVE_WITH_KNOTS('',1,(#362,#363),.UNSPECIFIED.,.F.,.F.,(2,2),(0.00000000000000000E0,1.00000000000000000E0),.UNSPECIFIED.);
#365=DEFINITIONAL_REPRESENTATION('',(#364),#261);
#366=PCURVE('',#70,#365);
#367=CARTESIAN_POINT('',(1.00000000000000000E0,0.00000000000000000E0));
#368=CARTESIAN_POINT('',(1.00000000000000000E0,1.00000000000000000E0));
#369=B_SPLINE_CURVE_WITH_KNOTS('',1,(#367,#368),.UNSPECIFIED.,.F.,.F.,(2,2),(0.00000000000000000E0,1.00000000000000000E0),.UNSPECIFIED.);
#370=DEFINITIONAL_REPRESENTATION('',(#369),#261);
#371=PCURVE('',#70,#370);
#372=CARTESIAN_POINT('',(1.00000000000000000E0,1.00000000000000000E0));
#373=CARTESIAN_POINT('',(0.00000000000000000E0,1.00000000000000000E0));
#374=B_SPLINE_CURVE_WITH_KNOTS('',1,(#372,#373),.UNSPECIFIED.,.F.,.F.,(2,2),(0.00000000000000000E0,1.00000000000000000E0),.UNSPECIFIED.);
#375=DEFINITIONAL_REPRESENTATION('',(#374),#261);
#376=PCURVE('',#70,#375);
#377=CARTESIAN_POINT('',(0.00000000000000000E0,1.00000000000000000E0));
#378=CARTESIAN_POINT('',(0.00000000000000000E0,0.00000000000000000E0));
#379=B_SPLINE_CURVE_WITH_KNOTS('',1,(#377,#378),.UNSPECIFIED.,.F.,.F.,(2,2),(0.00000000000000000E0,1.00000000000000000E0),.UNSPECIFIED.);
#380=DEFINITIONAL_REPRESENTATION('',(#379),#261);
#381=PCURVE('',#70,#380);
#382=CARTESIAN_POINT('',(0.00000000000000000E0,0.00000000000000000E0));
#383=CARTESIAN_POINT('',(1.00000000000000000E0,0.00000000000000000E0));
#384=B_SPLINE_CURVE_WITH_KNOTS('',1,(#382,#383),.UNSPECIFIED.,.F.,.F.,(2,2),(0.00000000000000000E0,1.00000000000000000E0),.UNSPECIFIED.);
#385=DEFINITIONAL_REPRESENTATION('',(#384),#261);
#386=PCURVE('',#75,#385);
#387=CARTESIAN_POINT('',(1.00000000000000000E0,0.00000000000000000E0));
#388=CARTESIAN_POINT('',(1.00000000000000000E0,1.00000000000000000E0));
#389=B_SPLINE_CURVE_WITH_KNOTS('',1,(#387,#388),.UNSPECIFIED.,.F.,.F.,(2,2),(0.00000000000000000E0,1.00000000000000000E0),.UNSPECIFIED.);
#390=DEFINITIONAL_REPRESENTATION('',(#389),#261);
#391=PCURVE('',#75,#390);
#392=CARTESIAN_POINT('',(1.00000000000000000E0,1.00000000000000000E0));
#393=CARTESIAN_POINT('',(0.00000000000000000E0,1.00000000000000000E0));
#394=B_SPLINE_CURVE_WITH_KNOTS('',1,(#392,#393),.UNSPECIFIED.,.F.,.F.,(2,2),(0.00000000000000000E0,1.00000000000000000E0),.UNSPECIFIED.);
#395=DEFINITIONAL_REPRESENTATION('',(#394),#261);
#396=PCURVE('',#75,#395);
#397=CARTESIAN_POINT('',(0.00000000000000000E0,1.00000000000000000E0));
#398=CARTESIAN_POINT('',(0.00000000000000000E0,0.00000000000000000E0));
#399=B_SPLINE_CURVE_WITH_KNOTS('',1,(#397,#398),.UNSPECIFIED.,.F.,.F.,(2,2),(0.00000000000000000E0,1.00000000000000000E0),.UNSPECIFIED.);
#400=DEFINITIONAL_REPRESENTATION('',(#399),#261);
#401=PCURVE('',#75,#400);
#402=CARTESIAN_POINT('',(0.00000000000000000E0,0.00000000000000000E0));
#403=CARTESIAN_POINT('',(1.00000000000000000E0,0.00000000000000000E0));
#404=B_SPLINE_CURVE_WITH_KNOTS('',1,(#402,#403),.UNSPECIFIED.,.F.,.F.,(2,2),(0.00000000000000000E0,1.00000000000000000E0),.UNSPECIFIED.);
#405=DEFINITIONAL_REPRESENTATION('',(#404),#261);
#406=PCURVE('',#80,#405);
#407=CARTESIAN_POINT('',(1.00000000000000000E0,0.00000000000000000E0));
#408=CARTESIAN_POINT('',(1.00000000000000000E0,1.00000000000000000E0));
#409=B_SPLINE_CURVE_WITH_KNOTS('',1,(#407,#408),.UNSPECIFIED.,.F.,.F.,(2,2),(0.00000000000000000E0,1.00000000000000000E0),.UNSPECIFIED.);
#410=DEFINITIONAL_REPRESENTATION('',(#409),#261);
#411=PCURVE('',#80,#410);
#412=CARTESIAN_POINT('',(1.00000000000000000E0,1.00000000000000000E0));
#413=CARTESIAN_POINT('',(0.00000000000000000E0,1.00000000000000000E0));
#414=B_SPLINE_CURVE_WITH_KNOTS('',1,(#412,#413),.UNSPECIFIED.,.F.,.F.,(2,2),(0.00000000000000000E0,1.00000000000000000E0),.UNSPECIFIED.);
#415=DEFINITIONAL_REPRESENTATION('',(#414),#261);
#416=PCURVE('',#80,#415);
#417=CARTESIAN_POINT('',(0.00000000000000000E0,1.00000000000000000E0));
#418=CARTESIAN_POINT('',(0.00000000000000000E0,0.00000000000000000E0));
#419=B_SPLINE_CURVE_WITH_KNOTS('',1,(#417,#418),.UNSPECIFIED.,.F.,.F.,(2,2),(0.00000000000000000E0,1.00000000000000000E0),.UNSPECIFIED.);
#420=DEFINITIONAL_REPRESENTATION('',(#419),#261);
#421=PCURVE('',#80,#420);
#422=CARTESIAN_POINT('',(0.00000000000000000E0,0.00000000000000000E0));
#423=CARTESIAN_POINT('',(1.00000000000000000E0,0.00000000000000000E0));
#424=B_SPLINE_CURVE_WITH_KNOTS('',1,(#422,#423),.UNSPECIFIED.,.F.,.F.,(2,2),(0.00000000000000000E0,1.00000000000000000E0),.UNSPECIFIED.);
#425=DEFINITIONAL_REPRESENTATION('',(#424),#261);
#426=PCURVE('',#85,#425);
#427=CARTESIAN_POINT('',(1.00000000000000000E0,0.00000000000000000E0));
#428=CARTESIAN_POINT('',(1.00000000000000000E0,1.00000000000000000E0));
#429=B_SPLINE_CURVE_WITH_KNOTS('',1,(#427,#428),.UNSPECIFIED.,.F.,.F.,(2,2),(0.00000000000000000E0,1.00000000000000000E0),.UNSPECIFIED.);
#430=DEFINITIONAL_REPRESENTATION('',(#429),#261);
#431=PCURVE('',#85,#430);
#432=CARTESIAN_POINT('',(1.00000000000000000E0,1.00000000000000000E0));
#433=CARTESIAN_POINT('',(0.00000000000000000E0,1.00000000000000000E0));
#434=B_SPLINE_CURVE_WITH_KNOTS('',1,(#432,#433),.UNSPECIFIED.,.F.,.F.,(2,2),(0.00000000000000000E0,1.00000000000000000E0),.UNSPECIFIED.);
#435=DEFINITIONAL_REPRESENTATION('',(#434),#261);
#436=PCURVE('',#85,#435);
#437=CARTESIAN_POINT('',(0.00000000000000000E0,1.00000000000000000E0));
#438=CARTESIAN_POINT('',(0.00000000000000000E0,0.00000000000000000E0));
#439=B_SPLINE_CURVE_WITH_KNOTS('',1,(#437,#438),.UNSPECIFIED.,.F.,.F.,(2,2),(0.00000000000000000E0,1.00000000000000000E0),.UNSPECIFIED.);
#440=DEFINITIONAL_REPRESENTATION('',(#439),#261);
#441=PCURVE('',#85,#440);
#442=CARTESIAN_POINT('',(0.00000000000000000E0,0.00000000000000000E0));
#443=CARTESIAN_POINT('',(1.00000000000000000E0,0.00000000000000000E0));
#444=B_SPLINE_CURVE_WITH_KNOTS('',1,(#442,#443),.UNSPECIFIED.,.F.,.F.,(2,2),(0.00000000000000000E0,1.00000000000000000E0),.UNSPECIFIED.);
#445=DEFINITIONAL_REPRESENTATION('',(#444),#261);
#446=PCURVE('',#90,#445);
#447=CARTESIAN_POINT('',(1.00000000000000000E0,0.00000000000000000E0));
#448=CARTESIAN_POINT('',(1.00000000000000000E0,1.00000000000000000E0));
#449=B_SPLINE_CURVE_WITH_KNOTS('',1,(#447,#448),.UNSPECIFIED.,.F.,.F.,(2,2),(0.00000000000000000E0,1.00000000000000000E0),.UNSPECIFIED.);
#450=DEFINITIONAL_REPRESENTATION('',(#449),#261);
#451=PCURVE('',#90,#450);
#452=CARTESIAN_POINT('',(1.00000000000000000E0,1.00000000000000000E0));
#453=CARTESIAN_POINT('',(0.00000000000000000E0,1.00000000000000000E0));
#454=B_SPLINE_CURVE_WITH_KNOTS('',1,(#452,#453),.UNSPECIFIED.,.F.,.F.,(2,2),(0.00000000000000000E0,1.00000000000000000E0),.UNSPECIFIED.);
#455=DEFINITIONAL_REPRESENTATION('',(#454),#261);
#456=PCURVE('',#90,#455);
#457=CARTESIAN_POINT('',(0.00000000000000000E0,1.00000000000000000E0));
#458=CARTESIAN_POINT('',(0.00000000000000000E0,0.00000000000000000E0));
#459=B_SPLINE_CURVE_WITH_KNOTS('',1,(#457,#458),.UNSPECIFIED.,.F.,.F.,(2,2),(0.00000000000000000E0,1.00000000000000000E0),.UNSPECIFIED.);
#460=DEFINITIONAL_REPRESENTATION('',(#459),#261);
#461=PCURVE('',#90,#460);
#462=CARTESIAN_POINT('',(0.00000000000000000E0,0.00000000000000000E0));
#463=CARTESIAN_POINT('',(1.00000000000000000E0,0.00000000000000000E0));
#464=B_SPLINE_CURVE_WITH_KNOTS('',1,(#462,#463),.UNSPECIFIED.,.F.,.F.,(2,2),(0.00000000000000000E0,1.00000000000000000E0),.UNSPECIFIED.);
#465=DEFINITIONAL_REPRESENTATION('',(#464),#261);
#466=PCURVE('',#95,#465);
#467=CARTESIAN_POINT('',(1.00000000000000000E0,0.00000000000000000E0));
#468=CARTESIAN_POINT('',(1.00000000000000000E0,1.00000000000000000E0));
#469=B_SPLINE_CURVE_WITH_KNOTS('',1,(#467,#468),.UNSPECIFIED.,.F.,.F.,(2,2),(0.00000000000000000E0,1.00000000000000000E0),.UNSPECIFIED.);
#470=DEFINITIONAL_REPRESENTATION('',(#469),#261);
#471=PCURVE('',#95,#470);
#472=CARTESIAN_POINT('',(1.00000000000000000E0,1.00000000000000000E0));
#473=CARTESIAN_POINT('',(0.00000000000000000E0,1.00000000000000000E0));
#474=B_SPLINE_CURVE_WITH_KNOTS('',1,(#472,#473),.UNSPECIFIED.,.F.,.F.,(2,2),(0.00000000000000000E0,1.00000000000000000E0),.UNSPECIFIED.);
#475=DEFINITIONAL_REPRESENTATION('',(#474),#261);
#476=PCURVE('',#95,#475);
#477=CARTESIAN_POINT('',(0.00000000000000000E0,1.00000000000000000E0));
#478=CARTESIAN_POINT('',(0.00000000000000000E0,0.00000000000000000E0));
#479=B_SPLINE_CURVE_WITH_KNOTS('',1,(#477,#478),.UNSPECIFIED.,.F.,.F.,(2,2),(0.00000000000000000E0,1.00000000000000000E0),.UNSPECIFIED.);
#480=DEFINITIONAL_REPRESENTATION('',(#479),#261);
#481=PCURVE('',#95,#480);
#482=CARTESIAN_POINT('',(0.00000000000000000E0,0.00000000000000000E0));
#483=CARTESIAN_POINT('',(1.00000000000000000E0,0.00000000000000000E0));
#484=B_SPLINE_CURVE_WITH_KNOTS('',1,(#482,#483),.UNSPECIFIED.,.F.,.F.,(2,2),(0.00000000000000000E0,1.00000000000000000E0),.UNSPECIFIED.);
#485=DEFINITIONAL_REPRESENTATION('',(#484),#261);
#486=PCURVE('',#100,#485);
#487=CARTESIAN_POINT('',(1.00000000000000000E0,0.00000000000000000E0));
#488=CARTESIAN_POINT('',(1.00000000000000000E0,1.00000000000000000E0));
#489=B_SPLINE_CURVE_WITH_KNOTS('',1,(#487,#488),.UNSPECIFIED.,.F.,.F.,(2,2),(0.00000000000000000E0,1.00000000000000000E0),.UNSPECIFIED.);
#490=DEFINITIONAL_REPRESENTATION('',(#489),#261);
#491=PCURVE('',#100,#490);
#492=CARTESIAN_POINT('',(1.00000000000000000E0,1.00000000000000000E0));
#493=CARTESIAN_POINT('',(0.00000000000000000E0,1.00000000000000000E0));
#494=B_SPLINE_CURVE_WITH_KNOTS('',1,(#492,#493),.UNSPECIFIED.,.F.,.F.,(2,2),(0.00000000000000000E0,1.00000000000000000E0),.UNSPECIFIED.);
#495=DEFINITIONAL_REPRESENTATION('',(#494),#261);
#496=PCURVE('',#100,#495);
#497=CARTESIAN_POINT('',(0.00000000000000000E0,1.00000000000000000E0));
#498=CARTESIAN_POINT('',(0.00000000000000000E0,0.00000000000000000E0));
#499=B_SPLINE_CURVE_WITH_KNOTS('',1,(#497,#498),.UNSPECIFIED.,.F.,.F.,(2,2),(0.00000000000000000E0,1.00000000000000000E0),.UNSPECIFIED.);
#500=DEFINITIONAL_REPRESENTATION('',(#499),#261);
#501=PCURVE('',#100,#500);
#502=CARTESIAN_POINT('',(0.00000000000000000E0,0.00000000000000000E0));
#503=CARTESIAN_POINT('',(1.00000000000000000E0,0.00000000000000000E0));
#504=B_SPLINE_CURVE_WITH_KNOTS('',1,(#502,#503),.UNSPECIFIED.,.F.,.F.,(2,2),(0.00000000000000000E0,1.00000000000000000E0),.UNSPECIFIED.);
#505=DEFINITIONAL_REPRESENTATION('',(#504),#261);
#506=PCURVE('',#105,#505);
#507=CARTESIAN_POINT('',(1.00000000000000000E0,0.00000000000000000E0));
#508=CARTESIAN_POINT('',(1.00000000000000000E0,1.00000000000000000E0));
#509=B_SPLINE_CURVE_WITH_KNOTS('',1,(#507,#508),.UNSPECIFIED.,.F.,.F.,(2,2),(0.00000000000000000E0,1.00000000000000000E0),.UNSPECIFIED.);
#510=DEFINITIONAL_REPRESENTATION('',(#509),#261);
#511=PCURVE('',#105,#510);
#512=CARTESIAN_POINT('',(1.00000000000000000E0,1.00000000000000000E0));
#513=CARTESIAN_POINT('',(0.00000000000000000E0,1.00000000000000000E0));
#514=B_SPLINE_CURVE_WITH_KNOTS('',1,(#512,#513),.UNSPECIFIED.,.F.,.F.,(2,2),(0.00000000000000000E0,1.00000000000000000E0),.UNSPECIFIED.);
#515=DEFINITIONAL_REPRESENTATION('',(#514),#261);
#516=PCURVE('',#105,#515);
#517=CARTESIAN_POINT('',(0.00000000000000000E0,1.00000000000000000E0));
#518=CARTESIAN_POINT('',(0.00000000000000000E0,0.00000000000000000E0));
#519=B_SPLINE_CURVE_WITH_KNOTS('',1,(#517,#518),.UNSPECIFIED.,.F.,.F.,(2,2),(0.00000000000000000E0,1.00000000000000000E0),.UNSPECIFIED.);
#520=DEFINITIONAL_REPRESENTATION('',(#519),#261);
#521=PCURVE('',#105,#520);
#522=CARTESIAN_POINT('',(0.00000000000000000E0,0.00000000000000000E0));
#523=CARTESIAN_POINT('',(1.00000000000000000E0,0.00000000000000000E0));
#524=B_SPLINE_CURVE_WITH_KNOTS('',1,(#522,#523),.UNSPECIFIED.,.F.,.F.,(2,2),(0.00000000000000000E0,1.00000000000000000E0),.UNSPECIFIED.);
#525=DEFINITIONAL_REPRESENTATION('',(#524),#261);
#526=PCURVE('',#110,#525);
#527=CARTESIAN_POINT('',(1.00000000000000000E0,0.00000000000000000E0));
#528=CARTESIAN_POINT('',(1.00000000000000000E0,1.00000000000000000E0));
#529=B_SPLINE_CURVE_WITH_KNOTS('',1,(#527,#528),.UNSPECIFIED.,.F.,.F.,(2,2),(0.00000000000000000E0,1.00000000000000000E0),.UNSPECIFIED.);
#530=DEFINITIONAL_REPRESENTATION('',(#529),#261);
#531=PCURVE('',#110,#530);
#532=CARTESIAN_POINT('',(1.00000000000000000E0,1.00000000000000000E0));
#533=CARTESIAN_POINT('',(0.00000000000000000E0,1.00000000000000000E0));
#534=B_SPLINE_CURVE_WITH_KNOTS('',1,(#532,#533),.UNSPECIFIED.,.F.,.F.,(2,2),(0.00000000000000000E0,1.00000000000000000E0),.UNSPECIFIED.);
#535=DEFINITIONAL_REPRESENTATION('',(#534),#261);
#536=PCURVE('',#110,#535);
#537=CARTESIAN_POINT('',(0.00000000000000000E0,1.00000000000000000E0));
#538=CARTESIAN_POINT('',(0.00000000000000000E0,0.00000000000000000E0));
#539=B_SPLINE_CURVE_WITH_KNOTS('',1,(#537,#538),.UNSPECIFIED.,.F.,.F.,(2,2),(0.00000000000000000E0,1.00000000000000000E0),.UNSPECIFIED.);
#540=DEFINITIONAL_REPRESENTATION('',(#539),#261);
#541=PCURVE('',#110,#540);
#542=CARTESIAN_POINT('',(0.00000000000000000E0,0.00000000000000000E0));
#543=CARTESIAN_POINT('',(1.00000000000000000E0,0.00000000000000000E0));
#544=B_SPLINE_CURVE_WITH_KNOTS('',1,(#542,#543),.UNSPECIFIED.,.F.,.F.,(2,2),(0.00000000000000000E0,1.00000000000000000E0),.UNSPECIFIED.);
#545=DEFINITIONAL_REPRESENTATION('',(#544),#261);
#546=PCURVE('',#115,#545);
#547=CARTESIAN_POINT('',(1.00000000000000000E0,0.00000000000000000E0));
#548=CARTESIAN_POINT('',(1.00000000000000000E0,1.00000000000000000E0));
#549=B_SPLINE_CURVE_WITH_KNOTS('',1,(#547,#548),.UNSPECIFIED.,.F.,.F.,(2,2),(0.00000000000000000E0,1.00000000000000000E0),.UNSPECIFIED.);
#550=DEFINITIONAL_REPRESENTATION('',(#549),#261);
#551=PCURVE('',#115,#550);
#552=CARTESIAN_POINT('',(1.00000000000000000E0,1.00000000000000000E0));
#553=CARTESIAN_POINT('',(0.00000000000000000E0,1.00000000000000000E0));
#554=B_SPLINE_CURVE_WITH_KNOTS('',1,(#552,#553),.UNSPECIFIED.,.F.,.F.,(2,2),(0.00000000000000000E0,1.00000000000000000E0),.UNSPECIFIED.);
#555=DEFINITIONAL_REPRESENTATION('',(#554),#261);
#556=PCURVE('',#115,#555);
#557=CARTESIAN_POINT('',(0.00000000000000000E0,1.00000000000000000E0));
#558=CARTESIAN_POINT('',(0.00000000000000000E0,0.00000000000000000E0));
#559=B_SPLINE_CURVE_WITH_KNOTS('',1,(#557,#558),.UNSPECIFIED.,.F.,.F.,(2,2),(0.00000000000000000E0,1.00000000000000000E0),.UNSPECIFIED.);
#560=DEFINITIONAL_REPRESENTATION('',(#559),#261);
#561=PCURVE('',#115,#560);
#562=CARTESIAN_POINT('',(0.00000000000000000E0,0.00000000000000000E0));
#563=CARTESIAN_POINT('',(1.00000000000000000E0,0.00000000000000000E0));
#564=B_SPLINE_CURVE_WITH_KNOTS('',1,(#562,#563),.UNSPECIFIED.,.F.,.F.,(2,2),(0.00000000000000000E0,1.00000000000000000E0),.UNSPECIFIED.);
#565=DEFINITIONAL_REPRESENTATION('',(#564),#261);
#566=PCURVE('',#120,#565);
#567=CARTESIAN_POINT('',(1.00000000000000000E0,0.00000000000000000E0));
#568=CARTESIAN_POINT('',(1.00000000000000000E0,1.00000000000000000E0));
#569=B_SPLINE_CURVE_WITH_KNOTS('',1,(#567,#568),.UNSPECIFIED.,.F.,.F.,(2,2),(0.00000000000000000E0,1.00000000000000000E0),.UNSPECIFIED.);
#570=DEFINITIONAL_REPRESENTATION('',(#569),#261);
#571=PCURVE('',#120,#570);
#572=CARTESIAN_POINT('',(1.00000000000000000E0,1.00000000000000000E0));
#573=CARTESIAN_POINT('',(0.00000000000000000E0,1.00000000000000000E0));
#574=B_SPLINE_CURVE_WITH_KNOTS('',1,(#572,#573),.UNSPECIFIED.,.F.,.F.,(2,2),(0.00000000000000000E0,1.00000000000000000E0),.UNSPECIFIED.);
#575=DEFINITIONAL_REPRESENTATION('',(#574),#261);
#576=PCURVE('',#120,#575);
#577=CARTESIAN_POINT('',(0.00000000000000000E0,1.00000000000000000E0));
#578=CARTESIAN_POINT('',(0.00000000000000000E0,0.00000000000000000E0));
#579=B_SPLINE_CURVE_WITH_KNOTS('',1,(#577,#578),.UNSPECIFIED.,.F.,.F.,(2,2),(0.00000000000000000E0,1.00000000000000000E0),.UNSPECIFIED.);
#580=DEFINITIONAL_REPRESENTATION('',(#579),#261);
#581=PCURVE('',#120,#580);
#582=CARTESIAN_POINT('',(0.00000000000000000E0,0.00000000000000000E0));
#583=CARTESIAN_POINT('',(1.00000000000000000E0,0.00000000000000000E0));
#584=B_SPLINE_CURVE_WITH_KNOTS('',1,(#582,#583),.UNSPECIFIED.,.F.,.F.,(2,2),(0.00000000000000000E0,1.00000000000000000E0),.UNSPECIFIED.);
#585=DEFINITIONAL_REPRESENTATION('',(#584),#261);
#586=PCURVE('',#125,#585);
#587=CARTESIAN_POINT('',(1.00000000000000000E0,0.00000000000000000E0));
#588=CARTESIAN_POINT('',(1.00000000000000000E0,1.00000000000000000E0));
#589=B_SPLINE_CURVE_WITH_KNOTS('',1,(#587,#588),.UNSPECIFIED.,.F.,.F.,(2,2),(0.00000000000000000E0,1.00000000000000000E0),.UNSPECIFIED.);
#590=DEFINITIONAL_REPRESENTATION('',(#589),#261);
#591=PCURVE('',#125,#590);
#592=CARTESIAN_POINT('',(1.00000000000000000E0,1.00000000000000000E0));
#593=CARTESIAN_POINT('',(0.00000000000000000E0,1.00000000000000000E0));
#594=B_SPLINE_CURVE_WITH_KNOTS('',1,(#592,#593),.UNSPECIFIED.,.F.,.F.,(2,2),(0.00000000000000000E0,1.00000000000000000E0),.UNSPECIFIED.);
#595=DEFINITIONAL_REPRESENTATION('',(#594),#261);
#596=PCURVE('',#125,#595);
#597=CARTESIAN_POINT('',(0.00000000000000000E0,1.00000000000000000E0));
#598=CARTESIAN_POINT('',(0.00000000000000000E0,0.00000000000000000E0));
#599=B_SPLINE_CURVE_WITH_KNOTS('',1,(#597,#598),.UNSPECIFIED.,.F.,.F.,(2,2),(0.00000000000000000E0,1.00000000000000000E0),.UNSPECIFIED.);
#600=DEFINITIONAL_REPRESENTATION('',(#599),#261);
#601=PCURVE('',#125,#600);
#602=CARTESIAN_POINT('',(0.00000000000000000E0,0.00000000000000000E0));
#603=CARTESIAN_POINT('',(1.00000000000000000E0,0.00000000000000000E0));
#604=B_SPLINE_CURVE_WITH_KNOTS('',1,(#602,#603),.UNSPECIFIED.,.F.,.F.,(2,2),(0.00000000000000000E0,1.00000000000000000E0),.UNSPECIFIED.);
#605=DEFINITIONAL_REPRESENTATION('',(#604),#261);
#606=PCURVE('',#130,#605);
#607=CARTESIAN_POINT('',(1.00000000000000000E0,0.00000000000000000E0));
#608=CARTESIAN_POINT('',(1.00000000000000000E0,1.00000000000000000E0));
#609=B_SPLINE_CURVE_WITH_KNOTS('',1,(#607,#608),.UNSPECIFIED.,.F.,.F.,(2,2),(0.00000000000000000E0,1.00000000000000000E0),.UNSPECIFIED.);
#610=DEFINITIONAL_REPRESENTATION('',(#609),#261);
#611=PCURVE('',#130,#610);
#612=CARTESIAN_POINT('',(1.00000000000000000E0,1.00000000000000000E0));
#613=CARTESIAN_POINT('',(0.00000000000000000E0,1.00000000000000000E0));
#614=B_SPLINE_CURVE_WITH_KNOTS('',1,(#612,#613),.UNSPECIFIED.,.F.,.F.,(2,2),(0.00000000000000000E0,1.00000000000000000E0),.UNSPECIFIED.);
#615=DEFINITIONAL_REPRESENTATION('',(#614),#261);
#616=PCURVE('',#130,#615);
#617=CARTESIAN_POINT('',(0.00000000000000000E0,1.00000000000000000E0));
#618=CARTESIAN_POINT('',(0.00000000000000000E0,0.00000000000000000E0));
#619=B_SPLINE_CURVE_WITH_KNOTS('',1,(#617,#618),.UNSPECIFIED.,.F.,.F.,(2,2),(0.00000000000000000E0,1.00000000000000000E0),.UNSPECIFIED.);
#620=DEFINITIONAL_REPRESENTATION('',(#619),#261);
#621=PCURVE('',#130,#620);
#622=CARTESIAN_POINT('',(0.00000000000000000E0,0.00000000000000000E0));
#623=CARTESIAN_POINT('',(1.00000000000000000E0,0.00000000000000000E0));
#624=B_SPLINE_CURVE_WITH_KNOTS('',1,(#622,#623),.UNSPECIFIED.,.F.,.F.,(2,2),(0.00000000000000000E0,1.00000000000000000E0),.UNSPECIFIED.);
#625=DEFINITIONAL_REPRESENTATION('',(#624),#261);
#626=PCURVE('',#135,#625);
#627=CARTESIAN_POINT('',(1.00000000000000000E0,0.00000000000000000E0));
#628=CARTESIAN_POINT('',(1.00000000000000000E0,1.00000000000000000E0));
#629=B_SPLINE_CURVE_WITH_KNOTS('',1,(#627,#628),.UNSPECIFIED.,.F.,.F.,(2,2),(0.00000000000000000E0,1.00000000000000000E0),.UNSPECIFIED.);
#630=DEFINITIONAL_REPRESENTATION('',(#629),#261);
#631=PCURVE('',#135,#630);
#632=CARTESIAN_POINT('',(1.00000000000000000E0,1.00000000000000000E0));
#633=CARTESIAN_POINT('',(0.00000000000000000E0,1.00000000000000000E0));
#634=B_SPLINE_CURVE_WITH_KNOTS('',1,(#632,#633),.UNSPECIFIED.,.F.,.F.,(2,2),(0.00000000000000000E0,1.00000000000000000E0),.UNSPECIFIED.);
#635=DEFINITIONAL_REPRESENTATION('',(#634),#261);
#636=PCURVE('',#135,#635);
#637=CARTESIAN_POINT('',(0.00000000000000000E0,1.00000000000000000E0));
#638=CARTESIAN_POINT('',(0.00000000000000000E0,0.00000000000000000E0));
#639=B_SPLINE_CURVE_WITH_KNOTS('',1,(#637,#638),.UNSPECIFIED.,.F.,.F.,(2,2),(0.00000000000000000E0,1.00000000000000000E0),.UNSPECIFIED.);
#640=DEFINITIONAL_REPRESENTATION('',(#639),#261);
#641=PCURVE('',#135,#640);
#642=CARTESIAN_POINT('',(0.00000000000000000E0,0.00000000000000000E0));
#643=CARTESIAN_POINT('',(1.00000000000000000E0,0.00000000000000000E0));
#644=B_SPLINE_CURVE_WITH_KNOTS('',1,(#642,#643),.UNSPECIFIED.,.F.,.F.,(2,2),(0.00000000000000000E0,1.00000000000000000E0),.UNSPECIFIED.);
#645=DEFINITIONAL_REPRESENTATION('',(#644),#261);
#646=PCURVE('',#140,#645);
#647=CARTESIAN_POINT('',(1.00000000000000000E0,0.00000000000000000E0));
#648=CARTESIAN_POINT('',(1.00000000000000000E0,1.00000000000000000E0));
#649=B_SPLINE_CURVE_WITH_KNOTS('',1,(#647,#648),.UNSPECIFIED.,.F.,.F.,(2,2),(0.00000000000000000E0,1.00000000000000000E0),.UNSPECIFIED.);
#650=DEFINITIONAL_REPRESENTATION('',(#649),#261);
#651=PCURVE('',#140,#650);
#652=CARTESIAN_POINT('',(1.00000000000000000E0,1.00000000000000000E0));
#653=CARTESIAN_POINT('',(0.00000000000000000E0,1.00000000000000000E0));
#654=B_SPLINE_CURVE_WITH_KNOTS('',1,(#652,#653),.UNSPECIFIED.,.F.,.F.,(2,2),(0.00000000000000000E0,1.00000000000000000E0),.UNSPECIFIED.);
#655=DEFINITIONAL_REPRESENTATION('',(#654),#261);
#656=PCURVE('',#140,#655);
#657=CARTESIAN_POINT('',(0.00000000000000000E0,1.00000000000000000E0));
#658=CARTESIAN_POINT('',(0.00000000000000000E0,0.00000000000000000E0));
#659=B_SPLINE_CURVE_WITH_KNOTS('',1,(#657,#658),.UNSPECIFIED.,.F.,.F.,(2,2),(0.00000000000000000E0,1.00000000000000000E0),.UNSPECIFIED.);
#660=DEFINITIONAL_REPRESENTATION('',(#659),#261);
#661=PCURVE('',#140,#660);
#662=SURFACE_CURVE('',#143,(#266,#596),.PCURVE_S1.);
#663=EDGE_CURVE('OSCAD_TOPO/3|edge|e:b56dea13a88f73f44fccd47f2c5bbc9b|fed4074eff6aceb6a2b270845955c184520d6b02553d77eedc067c99ee9528ee',#2,#4,#662,.T.);
#664=SURFACE_CURVE('',#146,(#271,#301),.PCURVE_S1.);
#665=EDGE_CURVE('OSCAD_TOPO/3|edge|e:98cbee5f41c60e8aaa5f6fe76060e5d2|f9935df6a1742cba832fc1e0f5388e85e6e32e4d404978f24af2d0a21fb9fe7d',#4,#12,#664,.T.);
#666=SURFACE_CURVE('',#149,(#276,#346),.PCURVE_S1.);
#667=EDGE_CURVE('OSCAD_TOPO/3|edge|e:43f299498b53fca8d49af336f4626cd7|5edc2bad55d7b892f87c28c1a8508f94291bfb2d5574af8761a895e010b890d4',#10,#12,#666,.T.);
#668=SURFACE_CURVE('',#152,(#281,#331),.PCURVE_S1.);
#669=EDGE_CURVE('OSCAD_TOPO/3|edge|e:5ca0f182de0463d78248e81f0c0d33d1|474bbb317cb226044d84f984b16830dee978e5334ee39882033f043878559fd9',#2,#10,#668,.T.);
#670=SURFACE_CURVE('',#155,(#286,#616),.PCURVE_S1.);
#671=EDGE_CURVE('OSCAD_TOPO/3|edge|e:1b3ff32f5698c278309e62508d1cfd5c|6a066573278c56938d0b2c8f26de1d18da0b481ae10347d6c1d9e2369de658f5',#4,#6,#670,.T.);
#672=SURFACE_CURVE('',#158,(#291,#321),.PCURVE_S1.);
#673=EDGE_CURVE('OSCAD_TOPO/3|edge|e:97dd43b2099e5bc93898ce7abdb2d16a|ebbeaa4c8b753a14fddef01fc9cd80e564ff2ee2c7dbdaf761904a0e72db9e50',#6,#14,#672,.T.);
#674=SURFACE_CURVE('',#161,(#296,#366),.PCURVE_S1.);
#675=EDGE_CURVE('OSCAD_TOPO/3|edge|e:b82c23a0c1e93b768a757cc2057a2b63|f12797db3be814492af1fa6ea98d7c0d51c930302fe5b9e1842b43e20b743e87',#12,#14,#674,.T.);
#676=SURFACE_CURVE('',#164,(#306,#636),.PCURVE_S1.);
#677=EDGE_CURVE('OSCAD_TOPO/3|edge|e:eaa29122b1bb76eba5273109aa1c4901|52422c62e45439e6adc3b277143ed60e520b167411ccefd5f778e0ffb980199e',#6,#8,#676,.T.);
#678=SURFACE_CURVE('',#167,(#311,#341),.PCURVE_S1.);
#679=EDGE_CURVE('OSCAD_TOPO/3|edge|e:5480e0e086b52999eb6060da915a1561|b5f5b7fa0403e3d42fc4cfb4c9351c02120018d683ffee35da8b39eed1a5c0ba',#8,#16,#678,.T.);
#680=SURFACE_CURVE('',#170,(#316,#386),.PCURVE_S1.);
#681=EDGE_CURVE('OSCAD_TOPO/3|edge|e:402efe069933db5829759347b72c7e7b|4769d9ef29be1e1a752e0d76c7c95cf59d46eb62998e32aba95a4b50a42439fb',#14,#16,#680,.T.);
#682=SURFACE_CURVE('',#173,(#326,#656),.PCURVE_S1.);
#683=EDGE_CURVE('OSCAD_TOPO/3|edge|e:8ba257221d48e2453c10ba02058bc9fb|3f929599b31e3d538efd7266fdb6a42d8821f837bb9365e7542ab7d458e7d150',#2,#8,#682,.T.);
#684=SURFACE_CURVE('',#176,(#336,#406),.PCURVE_S1.);
#685=EDGE_CURVE('OSCAD_TOPO/3|edge|e:2c57951d8f2b8f97fb119d64e433adb3|f861b368afc2eee14ecff7216388af95392fc1bc75b1b0135b572a5b45151a52',#10,#16,#684,.T.);
#686=SURFACE_CURVE('',#179,(#351,#381),.PCURVE_S1.);
#687=EDGE_CURVE('OSCAD_TOPO/3|edge|e:397fd35c09eda4ff1262de5d72f2f64f|832b0166f5510b85656ba6690e467075949b8ed8abd18760143f888e74c333aa',#12,#20,#686,.T.);
#688=SURFACE_CURVE('',#182,(#356,#426),.PCURVE_S1.);
#689=EDGE_CURVE('OSCAD_TOPO/3|edge|e:37afa69e133e70855c95e42479d982e7|865edb5c79abeec7a8601864a330e0b5659c9d03ab867e1080cea46ee6e78e26',#18,#20,#688,.T.);
#690=SURFACE_CURVE('',#185,(#361,#411),.PCURVE_S1.);
#691=EDGE_CURVE('OSCAD_TOPO/3|edge|e:ffb3e76e8e2065b06d97c896b073f664|d03da02dde354cc4d8ee0fb13efc90864541050d1981182446475745d2a2d689',#10,#18,#690,.T.);
#692=SURFACE_CURVE('',#188,(#371,#401),.PCURVE_S1.);
#693=EDGE_CURVE('OSCAD_TOPO/3|edge|e:1427dea78b9b5fb64d26119df0dd773b|57d8c6ea389bae001d36b86c540eec719864b3e88ee978bd7929bb195493c27a',#14,#22,#692,.T.);
#694=SURFACE_CURVE('',#191,(#376,#446),.PCURVE_S1.);
#695=EDGE_CURVE('OSCAD_TOPO/3|edge|e:5be6264eef221f6ea083a1e95bc34b23|4fb772cda57a9a82b59d964a3ed618bd2c946f4088ca3bdd0c80f407db2b3308',#20,#22,#694,.T.);
#696=SURFACE_CURVE('',#194,(#391,#421),.PCURVE_S1.);
#697=EDGE_CURVE('OSCAD_TOPO/3|edge|e:0c59a207781924ef3343878bebec863b|336bd531e6aa866d8648a530af14ca5355db35ec4a60d1f011d71f516c84f28b',#16,#24,#696,.T.);
#698=SURFACE_CURVE('',#197,(#396,#466),.PCURVE_S1.);
#699=EDGE_CURVE('OSCAD_TOPO/3|edge|e:2c611b79cb0dbe5e16854fe7923aabf3|ae7d99e0e1666a64aedafa4a42f8b901d8c913fb825be0187351182bd5c7312e',#22,#24,#698,.T.);
#700=SURFACE_CURVE('',#200,(#416,#486),.PCURVE_S1.);
#701=EDGE_CURVE('OSCAD_TOPO/3|edge|e:35997a6f71841d366116622546a418c9|714996ee708c9a44b40d11b570f657dbcb71538abd0210361849867a844eebcc',#18,#24,#700,.T.);
#702=SURFACE_CURVE('',#203,(#431,#461),.PCURVE_S1.);
#703=EDGE_CURVE('OSCAD_TOPO/3|edge|e:5680ba213d0623e74b12bec6fbc87c7a|0ac807ac56e613c1bbcfcc7084986128091b0690a7a270b579430253ae523264',#20,#28,#702,.T.);
#704=SURFACE_CURVE('',#206,(#436,#506),.PCURVE_S1.);
#705=EDGE_CURVE('OSCAD_TOPO/3|edge|e:0448f45c61bfc8e5d76539fec2ebaabf|003478c55d882a9fda49e610602ad942388354455db15301b7fa31f7cde2d1a2',#26,#28,#704,.T.);
#706=SURFACE_CURVE('',#209,(#441,#491),.PCURVE_S1.);
#707=EDGE_CURVE('OSCAD_TOPO/3|edge|e:1bb8394f2f8060989a2848723965cb3c|4728764f6536f7a98da0bb579d130022475cb35d55db36d890b0dc196fe43686',#18,#26,#706,.T.);
#708=SURFACE_CURVE('',#212,(#451,#481),.PCURVE_S1.);
#709=EDGE_CURVE('OSCAD_TOPO/3|edge|e:05cfd8891dfdd2b94323ad26275b9779|1aa5f8969a3d9b839a622e838d0ba7a263d2f678dcf0f34f6da8cb060c04cb08',#22,#30,#708,.T.);
#710=SURFACE_CURVE('',#215,(#456,#526),.PCURVE_S1.);
#711=EDGE_CURVE('OSCAD_TOPO/3|edge|e:9a7c434503bfaf23671d9449094fbb79|aaa6e1efd9ff40c22a88c7df00069166d21e707f07f164d9841fa79db6cbb69a',#28,#30,#710,.T.);
#712=SURFACE_CURVE('',#218,(#471,#501),.PCURVE_S1.);
#713=EDGE_CURVE('OSCAD_TOPO/3|edge|e:07a5d1af5ff5405d21b3d48866846974|841b13c114c4d83b45ccb129065734b9a67af6f258f799ea2a303e6003dbe8ad',#24,#32,#712,.T.);
#714=SURFACE_CURVE('',#221,(#476,#546),.PCURVE_S1.);
#715=EDGE_CURVE('OSCAD_TOPO/3|edge|e:b3c117da8a4c01a72c2d76f1e682cf16|70ec3ba55f7027589000c674e4f2e1e1259c937ec3d87263d119463ec7175b61',#30,#32,#714,.T.);
#716=SURFACE_CURVE('',#224,(#496,#566),.PCURVE_S1.);
#717=EDGE_CURVE('OSCAD_TOPO/3|edge|e:44adff0d27ba2a10cbde85771786747b|fe03abbf15681f8738c5d3b595306b80f71441d1d441b3e81b9e3210458b68f3',#26,#32,#716,.T.);
#718=SURFACE_CURVE('',#227,(#511,#541),.PCURVE_S1.);
#719=EDGE_CURVE('OSCAD_TOPO/3|edge|e:01bffb486c2b3b93f9a74ead4ba01668|0ff2bb4b5d033ac5ed1ac8494fe8e3b992c462ab80b9acce26dcecc8941a00a0',#28,#36,#718,.T.);
#720=SURFACE_CURVE('',#230,(#516,#586),.PCURVE_S1.);
#721=EDGE_CURVE('OSCAD_TOPO/3|edge|e:537ced00e9be33c84a45ef704c0e9405|4d7f9ffc0eb1621e14439e46bec44ea226c7f7f37fb9d31a4c4c099b115a82d1',#34,#36,#720,.T.);
#722=SURFACE_CURVE('',#233,(#521,#571),.PCURVE_S1.);
#723=EDGE_CURVE('OSCAD_TOPO/3|edge|e:4f26186a2d026b163023130868b72270|8fa366273cfb046db65761e66fd68b24efc230b2daf1b864cce21b3a6c67f6b4',#26,#34,#722,.T.);
#724=SURFACE_CURVE('',#236,(#531,#561),.PCURVE_S1.);
#725=EDGE_CURVE('OSCAD_TOPO/3|edge|e:9dca9656dd9cc8db8cf6389d22433c43|6dd1f0a7402e010f0aa1cb366d36cc2b6a24039431f37dfb526869e6d27da09d',#30,#38,#724,.T.);
#726=SURFACE_CURVE('',#239,(#536,#606),.PCURVE_S1.);
#727=EDGE_CURVE('OSCAD_TOPO/3|edge|e:2fda34de68a6252b5f5af418026cc0e4|0f44d7ba308a985056533416d14f96824cc6e5a509889bb9c570a9b6912746f3',#36,#38,#726,.T.);
#728=SURFACE_CURVE('',#242,(#551,#581),.PCURVE_S1.);
#729=EDGE_CURVE('OSCAD_TOPO/3|edge|e:59dbacaaa500957f43350ca37bb047ba|08e9d31ef5ac37a4c8d1ed985ad8078fb0b58d0686e02a66cf109b5337c1d866',#32,#40,#728,.T.);
#730=SURFACE_CURVE('',#245,(#556,#626),.PCURVE_S1.);
#731=EDGE_CURVE('OSCAD_TOPO/3|edge|e:08c4594b917c9c56ebbd183ea26cbe4c|49c116324b53b717ebf56a708af6d17dc1676dcb38e5e68a53083315628c1ef8',#38,#40,#730,.T.);
#732=SURFACE_CURVE('',#248,(#576,#646),.PCURVE_S1.);
#733=EDGE_CURVE('OSCAD_TOPO/3|edge|e:e6150d3bd7bfee81dad82d0adaf79ac4|9c700605455807f2591d6b1d675a51710765664bb07bd1f6bec7227be3735ef2',#34,#40,#732,.T.);
#734=SURFACE_CURVE('',#251,(#591,#621),.PCURVE_S1.);
#735=EDGE_CURVE('OSCAD_TOPO/3|edge|e:bc280b00997cd698dffb3d7d681e9915|4ff54422981d5f27542c397274e05dc4c35eb5a5f68953e99fb10d0eb7d9ee48',#4,#36,#734,.T.);
#736=SURFACE_CURVE('',#254,(#601,#651),.PCURVE_S1.);
#737=EDGE_CURVE('OSCAD_TOPO/3|edge|e:0857a49090fd4ccdc59692b1c35f3694|85e091220496386762fd3dccea8d9e3500e012edfe8ab6dfc5b65b74e8162265',#2,#34,#736,.T.);
#738=SURFACE_CURVE('',#257,(#611,#641),.PCURVE_S1.);
#739=EDGE_CURVE('OSCAD_TOPO/3|edge|e:027c196c042b972f3c2e31b8e383f2fe|a1d0b0e415af78667f837cbe366db252088109763d3a04c10d451556741d29ad',#6,#38,#738,.T.);
#740=SURFACE_CURVE('',#260,(#631,#661),.PCURVE_S1.);
#741=EDGE_CURVE('OSCAD_TOPO/3|edge|e:0f9b3a22ac40752074c4293defc61d80|f1ebd949461ca0a9ec1369a015aef08724282ca0723a81895f2b05ad14442674',#8,#40,#740,.T.);
#742=ORIENTED_EDGE('',*,*,#663,.T.);
#743=ORIENTED_EDGE('',*,*,#665,.T.);
#744=ORIENTED_EDGE('',*,*,#667,.F.);
#745=ORIENTED_EDGE('',*,*,#669,.F.);
#746=EDGE_LOOP('OSCAD_TOPO/3|loop|l:8bf0d44eec0bc2eb0a9b190162645020|2894635a9bb09a2f8a0d80aaec65d036342eb302091483beea8dded0803b23c3',(#742,#743,#744,#745));
#747=ORIENTED_EDGE('',*,*,#671,.T.);
#748=ORIENTED_EDGE('',*,*,#673,.T.);
#749=ORIENTED_EDGE('',*,*,#675,.F.);
#750=ORIENTED_EDGE('',*,*,#665,.F.);
#751=EDGE_LOOP('OSCAD_TOPO/3|loop|l:c86313338f991dd3016ee1ff51242211|e097342a0659e7a75bfd94e95352b8221822a9afb6672276b2b961aadc5d9b02',(#747,#748,#749,#750));
#752=ORIENTED_EDGE('',*,*,#677,.T.);
#753=ORIENTED_EDGE('',*,*,#679,.T.);
#754=ORIENTED_EDGE('',*,*,#681,.F.);
#755=ORIENTED_EDGE('',*,*,#673,.F.);
#756=EDGE_LOOP('OSCAD_TOPO/3|loop|l:740d99800f166ca5ef42f6cb94709fef|0459ad2536577afc308b8a73c978f1be82e48093fdcd2d33075884f879793adf',(#752,#753,#754,#755));
#757=ORIENTED_EDGE('',*,*,#683,.F.);
#758=ORIENTED_EDGE('',*,*,#669,.T.);
#759=ORIENTED_EDGE('',*,*,#685,.T.);
#760=ORIENTED_EDGE('',*,*,#679,.F.);
#761=EDGE_LOOP('OSCAD_TOPO/3|loop|l:222ab9f7f7170ae3ff0b15daf1792bd4|f5e24146296b184518de93b315de1c5d1424c81eed66c142ed67234155adf3ba',(#757,#758,#759,#760));
#762=ORIENTED_EDGE('',*,*,#667,.T.);
#763=ORIENTED_EDGE('',*,*,#687,.T.);
#764=ORIENTED_EDGE('',*,*,#689,.F.);
#765=ORIENTED_EDGE('',*,*,#691,.F.);
#766=EDGE_LOOP('OSCAD_TOPO/3|loop|l:5f51d100cf8a07ad00f13e16ad20cf0d|89cae3650cfbff85bd6a29ede696f6d9c79fa0296d9ebcd11f653f042b61d43e',(#762,#763,#764,#765));
#767=ORIENTED_EDGE('',*,*,#675,.T.);
#768=ORIENTED_EDGE('',*,*,#693,.T.);
#769=ORIENTED_EDGE('',*,*,#695,.F.);
#770=ORIENTED_EDGE('',*,*,#687,.F.);
#771=EDGE_LOOP('OSCAD_TOPO/3|loop|l:6a860b4f7f55cee1f999f642d60a3adb|019e65851ce9aab48f059d2e49e2f0a58c548e78c725405efc86ff9ee610cb2f',(#767,#768,#769,#770));
#772=ORIENTED_EDGE('',*,*,#681,.T.);
#773=ORIENTED_EDGE('',*,*,#697,.T.);
#774=ORIENTED_EDGE('',*,*,#699,.F.);
#775=ORIENTED_EDGE('',*,*,#693,.F.);
#776=EDGE_LOOP('OSCAD_TOPO/3|loop|l:13e8afe9a8c758dab33efdfeb71af2c9|534b4bbe3fe6884298342e365a998e0bbb9a5c3cf052b0cd904195dc0b505100',(#772,#773,#774,#775));
#777=ORIENTED_EDGE('',*,*,#685,.F.);
#778=ORIENTED_EDGE('',*,*,#691,.T.);
#779=ORIENTED_EDGE('',*,*,#701,.T.);
#780=ORIENTED_EDGE('',*,*,#697,.F.);
#781=EDGE_LOOP('OSCAD_TOPO/3|loop|l:32a5a86d1894daf20b74d81eb2e7b8bc|859fe8a64e3b0b494580d59d8bf2581217a3fe7a70691c6593af4dff7c11271d',(#777,#778,#779,#780));
#782=ORIENTED_EDGE('',*,*,#689,.T.);
#783=ORIENTED_EDGE('',*,*,#703,.T.);
#784=ORIENTED_EDGE('',*,*,#705,.F.);
#785=ORIENTED_EDGE('',*,*,#707,.F.);
#786=EDGE_LOOP('OSCAD_TOPO/3|loop|l:543003b647511501f875e7fe9d323a0f|bf7a6ede0a056284354b503341fbb5af30406efddf63f9b2818a16180f84943f',(#782,#783,#784,#785));
#787=ORIENTED_EDGE('',*,*,#695,.T.);
#788=ORIENTED_EDGE('',*,*,#709,.T.);
#789=ORIENTED_EDGE('',*,*,#711,.F.);
#790=ORIENTED_EDGE('',*,*,#703,.F.);
#791=EDGE_LOOP('OSCAD_TOPO/3|loop|l:07b705603bab2a966c3314faaa37f263|f7edcb8a654970a466f51dd769c344f5cdd7a68638f097edacc4b05a25220d6a',(#787,#788,#789,#790));
#792=ORIENTED_EDGE('',*,*,#699,.T.);
#793=ORIENTED_EDGE('',*,*,#713,.T.);
#794=ORIENTED_EDGE('',*,*,#715,.F.);
#795=ORIENTED_EDGE('',*,*,#709,.F.);
#796=EDGE_LOOP('OSCAD_TOPO/3|loop|l:db85965f3526fd60ab59078957022cf7|3eb5c93cb35a48632a8dbcd20e4f71b95a08e9f107c29bc345a73469f9cbc288',(#792,#793,#794,#795));
#797=ORIENTED_EDGE('',*,*,#701,.F.);
#798=ORIENTED_EDGE('',*,*,#707,.T.);
#799=ORIENTED_EDGE('',*,*,#717,.T.);
#800=ORIENTED_EDGE('',*,*,#713,.F.);
#801=EDGE_LOOP('OSCAD_TOPO/3|loop|l:7a154c05e0c74f07495725fe452d2188|e9849fad7733ab5c944e1c06037a3f4549aa5821e33c3d976b0f555144fe9b1c',(#797,#798,#799,#800));
#802=ORIENTED_EDGE('',*,*,#705,.T.);
#803=ORIENTED_EDGE('',*,*,#719,.T.);
#804=ORIENTED_EDGE('',*,*,#721,.F.);
#805=ORIENTED_EDGE('',*,*,#723,.F.);
#806=EDGE_LOOP('OSCAD_TOPO/3|loop|l:24f17f5239b6b3614bc32d247fcb6109|493b7ec7dd31d6be52f219fb45b5d6ebb0cee9722f6f23f431876b16b1389468',(#802,#803,#804,#805));
#807=ORIENTED_EDGE('',*,*,#711,.T.);
#808=ORIENTED_EDGE('',*,*,#725,.T.);
#809=ORIENTED_EDGE('',*,*,#727,.F.);
#810=ORIENTED_EDGE('',*,*,#719,.F.);
#811=EDGE_LOOP('OSCAD_TOPO/3|loop|l:586f5f577a8e9d1d7d46f5deda6ea99d|2140007c6f5542b7d9994e7b3dfea5de14275a5295ab33b6251c515957f8fc0d',(#807,#808,#809,#810));
#812=ORIENTED_EDGE('',*,*,#715,.T.);
#813=ORIENTED_EDGE('',*,*,#729,.T.);
#814=ORIENTED_EDGE('',*,*,#731,.F.);
#815=ORIENTED_EDGE('',*,*,#725,.F.);
#816=EDGE_LOOP('OSCAD_TOPO/3|loop|l:9f099bcfffb0fbe0d0657aea1b5b0e36|47d17c4d391b915cc0df01834276061a686e270d9d3cdd1b4b987076997d303f',(#812,#813,#814,#815));
#817=ORIENTED_EDGE('',*,*,#717,.F.);
#818=ORIENTED_EDGE('',*,*,#723,.T.);
#819=ORIENTED_EDGE('',*,*,#733,.T.);
#820=ORIENTED_EDGE('',*,*,#729,.F.);
#821=EDGE_LOOP('OSCAD_TOPO/3|loop|l:6ac54f5df1ae5e571c8b767cb082fd15|c4d6a1a07656d7befb029b5447f3050d4a108636093bd95d1d3a6b87c8beb6a1',(#817,#818,#819,#820));
#822=ORIENTED_EDGE('',*,*,#721,.T.);
#823=ORIENTED_EDGE('',*,*,#735,.F.);
#824=ORIENTED_EDGE('',*,*,#663,.F.);
#825=ORIENTED_EDGE('',*,*,#737,.T.);
#826=EDGE_LOOP('OSCAD_TOPO/3|loop|l:3186c2955a29d870f62d15f6d1451c43|e4cfc6e0b16809eaa639aed52256c69291d04d4f636b3c9740c33304bf8c2e5e',(#822,#823,#824,#825));
#827=ORIENTED_EDGE('',*,*,#727,.T.);
#828=ORIENTED_EDGE('',*,*,#739,.F.);
#829=ORIENTED_EDGE('',*,*,#671,.F.);
#830=ORIENTED_EDGE('',*,*,#735,.T.);
#831=EDGE_LOOP('OSCAD_TOPO/3|loop|l:e49e4db706188abd6106ab5875dca2b9|06730a97826ed4f250c8bf677dbcebd7b897339746a35705204a84c40a4ce3a5',(#827,#828,#829,#830));
#832=ORIENTED_EDGE('',*,*,#731,.T.);
#833=ORIENTED_EDGE('',*,*,#741,.F.);
#834=ORIENTED_EDGE('',*,*,#677,.F.);
#835=ORIENTED_EDGE('',*,*,#739,.T.);
#836=EDGE_LOOP('OSCAD_TOPO/3|loop|l:83c24364bef851658610cdf36faff782|df9dcf9388a2b6370f9d94ad6fb04a8823f1e3f7a0fdac682bb0a65294a0027d',(#832,#833,#834,#835));
#837=ORIENTED_EDGE('',*,*,#733,.F.);
#838=ORIENTED_EDGE('',*,*,#737,.F.);
#839=ORIENTED_EDGE('',*,*,#683,.T.);
#840=ORIENTED_EDGE('',*,*,#741,.T.);
#841=EDGE_LOOP('OSCAD_TOPO/3|loop|l:7b6630527146164a30f5f6e75a1225b7|c560a64097650882af252704fb1e008c5b04b47f0d4e0207dccd527c40e8d355',(#837,#838,#839,#840));
#842=FACE_OUTER_BOUND('',#746,.T.);
#843=ADVANCED_FACE('OSCAD_TOPO/3|face|f:e8fea9f2dea69b599a9897608bf622f1|00238738cad9a6c04774e5c5965173c6431106c6191cb1197dfe357edb6cc52d',(#842),#45,.T.);
#844=FACE_OUTER_BOUND('',#751,.T.);
#845=ADVANCED_FACE('OSCAD_TOPO/3|face|f:186a9404c451160b2357120f9adab752|5f5c32a303ed5a4e5b126d0dcc051cc8c5ef2865b2ea17205fbfb78c856da7c9',(#844),#50,.T.);
#846=FACE_OUTER_BOUND('',#756,.T.);
#847=ADVANCED_FACE('OSCAD_TOPO/3|face|f:7b06137a43e74be5895fbcb31b882814|69ffb14110759815071d7f70dd2fd12e95bc6d664568d7cf78eb22ff4754c808',(#846),#55,.T.);
#848=FACE_OUTER_BOUND('',#761,.T.);
#849=ADVANCED_FACE('OSCAD_TOPO/3|face|f:59a00f6d71fe2aba9be41c9c223b48b9|d6343fba43f11c14c8242b3b87ce440abbb5ed81e7cd0ea77b22a4ca2671bada',(#848),#60,.T.);
#850=FACE_OUTER_BOUND('',#766,.T.);
#851=ADVANCED_FACE('OSCAD_TOPO/3|face|f:4686fdb925a5dfcf2a1c176d7595c8d2|7cfb72620e8a30f80cb3c33fc314fe32b13f9b0bc88c36f091c590404220c2a0',(#850),#65,.T.);
#852=FACE_OUTER_BOUND('',#771,.T.);
#853=ADVANCED_FACE('OSCAD_TOPO/3|face|f:1b1115cf8834455a701abae32d1a5cec|9c5b88c0fe2de4b4ff127f6b66b0f4c87bc68bf90dccb8625c433a617d57efb7',(#852),#70,.T.);
#854=FACE_OUTER_BOUND('',#776,.T.);
#855=ADVANCED_FACE('OSCAD_TOPO/3|face|f:491534fe87df4e77cf9c519a23198ce2|0b3c2fa8be99891518705024d705095804f8586e09fdcf182e4f71e11c597d31',(#854),#75,.T.);
#856=FACE_OUTER_BOUND('',#781,.T.);
#857=ADVANCED_FACE('OSCAD_TOPO/3|face|f:ae68f4a613a7d1be4bc53d4c643995f2|8390c72f0b383bc740a5101a3a0f4eb76ce95149c072012eb73e856660f37b00',(#856),#80,.T.);
#858=FACE_OUTER_BOUND('',#786,.T.);
#859=ADVANCED_FACE('OSCAD_TOPO/3|face|f:8dca2c9bbcd4c9074356667ac2f7ad63|fbae9e2467fbf71d53c79cbc2d67e693a02c3f1a2224bb965d2b9e85ea0df96a',(#858),#85,.T.);
#860=FACE_OUTER_BOUND('',#791,.T.);
#861=ADVANCED_FACE('OSCAD_TOPO/3|face|f:fe239968ab99e9838e6db0945a7580b4|90e2340072ea6983391fbea8cf8172eca28d823e0ad892dfbfc4b1aaf0033fcc',(#860),#90,.T.);
#862=FACE_OUTER_BOUND('',#796,.T.);
#863=ADVANCED_FACE('OSCAD_TOPO/3|face|f:17bf9b9d3535c238c7898f9cf2e52c03|859e2f2dacd6d7d635d4c8280f2c78e16622a37b979ff556bd94db60dec6d873',(#862),#95,.T.);
#864=FACE_OUTER_BOUND('',#801,.T.);
#865=ADVANCED_FACE('OSCAD_TOPO/3|face|f:bf25f746d4df8501319fdb9e96d3a5d7|ea96f0c010951aa1d917a5b0211db117e507a5a2d6aeb7bf39b3e3f23e392786',(#864),#100,.T.);
#866=FACE_OUTER_BOUND('',#806,.T.);
#867=ADVANCED_FACE('OSCAD_TOPO/3|face|f:5285bc41a06c7fe086f375550fb24e98|32b4f75571b0d1fe0181db1b78dfb19132388f31576af22a9da7e7e0231e6b74',(#866),#105,.T.);
#868=FACE_OUTER_BOUND('',#811,.T.);
#869=ADVANCED_FACE('OSCAD_TOPO/3|face|f:fb953c26fd01504d8ca5205d57280a1a|9c84ed306f1bf52b001bd0376887a056256f7190f207b2eb3498c6c1875502a9',(#868),#110,.T.);
#870=FACE_OUTER_BOUND('',#816,.T.);
#871=ADVANCED_FACE('OSCAD_TOPO/3|face|f:bf3eff4f08253c239ed4c6248cd77a48|79ddf7405d5406730d852f46e10dc179d924c8f4b17d98642bfd95a5b4bcbc2f',(#870),#115,.T.);
#872=FACE_OUTER_BOUND('',#821,.T.);
#873=ADVANCED_FACE('OSCAD_TOPO/3|face|f:c3052cd04d50540838c51f5ecbb13eeb|1b2cacf38ab3fd11416f86163f11747f96464a9e736827f948d50b5863b422fe',(#872),#120,.T.);
#874=FACE_OUTER_BOUND('',#826,.T.);
#875=ADVANCED_FACE('OSCAD_TOPO/3|face|f:34587ef6743f7e5bb435310b2fb5ff1a|065954a3c4601e1ce6992e24738eb40181d72fb0813c23376ff3cf707ca2160e',(#874),#125,.T.);
#876=FACE_OUTER_BOUND('',#831,.T.);
#877=ADVANCED_FACE('OSCAD_TOPO/3|face|f:5d400e2cf9b2e639d01d2ff40a25be8e|9454898ddd1ad6f86d8a409a042cdd1caa1c1c4a735f920c22ebb4aace8af363',(#876),#130,.T.);
#878=FACE_OUTER_BOUND('',#836,.T.);
#879=ADVANCED_FACE('OSCAD_TOPO/3|face|f:04843a1bc1333b72f8ff8df29cd02c23|d447a43756b6e5082bd1efe12fd344a3831631b169e350a40cfc8fdc5ffeb669',(#878),#135,.T.);
#880=FACE_OUTER_BOUND('',#841,.T.);
#881=ADVANCED_FACE('OSCAD_TOPO/3|face|f:8d8395a6b2c50fe8d76308b3de5a9717|b195b3353ebc1c3838bef78082e82c3274a36725f68ea539828df860e22e59ef',(#880),#140,.T.);
#882=CLOSED_SHELL('OSCAD_TOPO/3|shell|s:a8a6623184c6b8360cafee7b5fba3b0f|6b5d15a2e0873cd908e4a2bb545d9f08f7e457811138ebeb08d99d0d22228e0d',(#843,#845,#847,#849,#851,#853,#855,#857,#859,#861,#863,#865,#867,#869,#871,#873,#875,#877,#879,#881));
#883=MANIFOLD_SOLID_BREP('OSCAD_TOPO/3|body|b:8d99ceb619b60809831871a25a7fe827|d1f6c81912c1b319ec02995fb21af9846918fe862786101318e652b687c13dfa',#882);
#884=(LENGTH_UNIT()NAMED_UNIT(*)SI_UNIT(.MILLI.,.METRE.));
#885=UNCERTAINTY_MEASURE_WITH_UNIT(LENGTH_MEASURE(9.99999999999999955E-8),#884,'distance_accuracy_value','');
#886=(GEOMETRIC_REPRESENTATION_CONTEXT(3)GLOBAL_UNCERTAINTY_ASSIGNED_CONTEXT((#885))GLOBAL_UNIT_ASSIGNED_CONTEXT((#884))REPRESENTATION_CONTEXT('','3D'));
#887=ADVANCED_BREP_SHAPE_REPRESENTATION('',(#883),#886);
#888=APPLICATION_CONTEXT('managed model based 3d engineering');
#889=PRODUCT_CONTEXT('',#888,'mechanical');
#890=PRODUCT('model','model','',(#889));
#891=PRODUCT_DEFINITION_FORMATION('1','',#890);
#892=PRODUCT_DEFINITION_CONTEXT('part definition',#888,'design');
#893=PRODUCT_DEFINITION('design','',#891,#892);
#894=PRODUCT_DEFINITION_SHAPE('','',#893);
#895=SHAPE_DEFINITION_REPRESENTATION(#894,#887);
ENDSEC;
END-ISO-10303-21;
