ISO-10303-21;
HEADER;
FILE_DESCRIPTION(('OpenSCAD Viewer retained AP242 B-rep'),'2;1');
FILE_NAME('model.step','',(''),(''),'OpenSCAD Viewer','OpenSCAD Viewer','');
FILE_SCHEMA(('AP242_MANAGED_MODEL_BASED_3D_ENGINEERING_MIM_LF'));
ENDSEC;
DATA;
#1=CARTESIAN_POINT('',(0.00000000000000000E0,1.12500000000000000E0,2.50000000000000000E-1));
#2=VERTEX_POINT('OSCAD_TOPO/3|vertex|v:d5eaff44a3f60570cd9983e2a910450c|36913e850cfa6f9de8981fee64eefbdea1ba357889454b001016a5bb61cad431',#1);
#3=CARTESIAN_POINT('',(-5.00000000000000000E-1,1.25000000000000000E-1,2.50000000000000000E-1));
#4=VERTEX_POINT('OSCAD_TOPO/3|vertex|v:57677d62170048e43321720c1ac6d3d3|1b136c3d5c1a1863716beaafb1659f5517084fff99c996343c2be8973737c01a',#3);
#5=CARTESIAN_POINT('',(0.00000000000000000E0,-8.75000000000000000E-1,2.50000000000000000E-1));
#6=VERTEX_POINT('OSCAD_TOPO/3|vertex|v:ad574429d422f7f239e2deaea7b07ac4|3f8b3f351566b41f4f8052d44fed90c4e8ddd21840dee7afdd43441090f1ede3',#5);
#7=CARTESIAN_POINT('',(5.00000000000000000E-1,1.25000000000000000E-1,2.50000000000000000E-1));
#8=VERTEX_POINT('OSCAD_TOPO/3|vertex|v:61ef2a457adce46b09b6b243b95753b7|972a56c4a64572c66ea169382f8094abf80064e70d2d4029d2db2308b31e0de5',#7);
#9=CARTESIAN_POINT('',(0.00000000000000000E0,5.25000000000000022E-1,2.50000000000000000E-1));
#10=VERTEX_POINT('OSCAD_TOPO/3|vertex|v:68aea90df7672644c313011fb7b95863|cf71b46f36aa5c123dfcd19131b0e9c9d3350096ea28d68bc6126e2a37d543e9',#9);
#11=CARTESIAN_POINT('',(2.00000000000000011E-1,1.25000000000000000E-1,2.50000000000000000E-1));
#12=VERTEX_POINT('OSCAD_TOPO/3|vertex|v:7876923e4cf5da68505e02a59a92a9e3|763922a91f22b94d9beab452a3ba82205c4fa14a7e7245ab8d031df0028c71d7',#11);
#13=CARTESIAN_POINT('',(0.00000000000000000E0,-2.75000000000000022E-1,2.50000000000000000E-1));
#14=VERTEX_POINT('OSCAD_TOPO/3|vertex|v:638761dc8b9c8c1c318c4d1f8856a992|6bff0a04d7486bf30f05450465225f0785daad0e2b8e00e8c68e8389bb7f643c',#13);
#15=CARTESIAN_POINT('',(-2.00000000000000011E-1,1.25000000000000000E-1,2.50000000000000000E-1));
#16=VERTEX_POINT('OSCAD_TOPO/3|vertex|v:c4055c8bec730c6c9cdaa26287f600a6|c584dab36ce35658130c9cfb577f4f3e10194733c66291c04126e899db85ec3e',#15);
#17=CARTESIAN_POINT('',(0.00000000000000000E0,1.12500000000000000E0,1.02500000000000000E1));
#18=VERTEX_POINT('OSCAD_TOPO/3|vertex|v:8265dd379ed731e1835d650f203e453d|d3b5cb9e40c656d51f6292904d8b2c8a4399f64a16b8e30686d91f1c4a3af0f4',#17);
#19=CARTESIAN_POINT('',(-5.00000000000000000E-1,1.25000000000000000E-1,1.02500000000000000E1));
#20=VERTEX_POINT('OSCAD_TOPO/3|vertex|v:7348ae2e0ef3cd4eea5cd7612b3f9811|9539eea5a9e35362a7735e328b813d3bc9fcf5194a994a7e29376825329dd753',#19);
#21=CARTESIAN_POINT('',(0.00000000000000000E0,-8.75000000000000000E-1,1.02500000000000000E1));
#22=VERTEX_POINT('OSCAD_TOPO/3|vertex|v:510321bce4a75eadab5ebd0652827513|542fce478b6ceb629aef2b15f36e0b30b148134319698b46abc5ca688cac8c0a',#21);
#23=CARTESIAN_POINT('',(5.00000000000000000E-1,1.25000000000000000E-1,1.02500000000000000E1));
#24=VERTEX_POINT('OSCAD_TOPO/3|vertex|v:0e30cb200b3750a346a07b1241e24f85|fec9e5c44d7e20db0bf2a8a1e1ef14449bb264d3bde7f08bc1021ceeb1b6a2b0',#23);
#25=CARTESIAN_POINT('',(0.00000000000000000E0,5.25000000000000022E-1,1.02500000000000000E1));
#26=VERTEX_POINT('OSCAD_TOPO/3|vertex|v:9d2a4e3c3dd9933009718d81dda2906b|9936f346cf3a41858828359817eebb69242033de27133acfa224fcd9524d98a2',#25);
#27=CARTESIAN_POINT('',(2.00000000000000011E-1,1.25000000000000000E-1,1.02500000000000000E1));
#28=VERTEX_POINT('OSCAD_TOPO/3|vertex|v:a6b903a7382eb433e0ab5e111bf10f7a|eef28b0cae41e1cefa0f621a00a78b3e18f2b3d9c5ee1e3eca6d411903a06fb4',#27);
#29=CARTESIAN_POINT('',(0.00000000000000000E0,-2.75000000000000022E-1,1.02500000000000000E1));
#30=VERTEX_POINT('OSCAD_TOPO/3|vertex|v:c7bf9c548d740b403fb83351955406d9|cc7ddb1cb203b00d2d712caa6581df413acc01abda0a7b52667e81fb39cdea0c',#29);
#31=CARTESIAN_POINT('',(-2.00000000000000011E-1,1.25000000000000000E-1,1.02500000000000000E1));
#32=VERTEX_POINT('OSCAD_TOPO/3|vertex|v:632e979433a1dd33bc747d1bff62c8ad|31158fe2b047b941b85132e39e9edf5110d48ac41034d8e6b771b38d35a80f43',#31);
#33=CARTESIAN_POINT('',(0.00000000000000000E0,1.12500000000000000E0,2.50000000000000000E-1));
#34=CARTESIAN_POINT('',(0.00000000000000000E0,1.12500000000000000E0,1.02500000000000000E1));
#35=CARTESIAN_POINT('',(-5.00000000000000000E-1,1.12500000000000000E0,2.50000000000000000E-1));
#36=CARTESIAN_POINT('',(-5.00000000000000000E-1,1.12500000000000000E0,1.02500000000000000E1));
#37=CARTESIAN_POINT('',(-5.00000000000000000E-1,1.25000000000000000E-1,2.50000000000000000E-1));
#38=CARTESIAN_POINT('',(-5.00000000000000000E-1,1.25000000000000000E-1,1.02500000000000000E1));
#39=(BOUNDED_SURFACE()B_SPLINE_SURFACE(2,1,((#33,#34),(#35,#36),(#37,#38)),.UNSPECIFIED.,.F.,.F.,.F.)B_SPLINE_SURFACE_WITH_KNOTS((3,3),(2,2),(0.00000000000000000E0,1.00000000000000000E0),(0.00000000000000000E0,1.00000000000000000E0),.UNSPECIFIED.)GEOMETRIC_REPRESENTATION_ITEM()RATIONAL_B_SPLINE_SURFACE(((1.00000000000000000E0,1.00000000000000000E0),(7.07106781186547573E-1,7.07106781186547573E-1),(1.00000000000000000E0,1.00000000000000000E0)))REPRESENTATION_ITEM('')SURFACE());
#40=CARTESIAN_POINT('',(-5.00000000000000000E-1,1.25000000000000000E-1,2.50000000000000000E-1));
#41=CARTESIAN_POINT('',(-5.00000000000000000E-1,1.25000000000000000E-1,1.02500000000000000E1));
#42=CARTESIAN_POINT('',(-5.00000000000000000E-1,-8.75000000000000000E-1,2.50000000000000000E-1));
#43=CARTESIAN_POINT('',(-5.00000000000000000E-1,-8.75000000000000000E-1,1.02500000000000000E1));
#44=CARTESIAN_POINT('',(0.00000000000000000E0,-8.75000000000000000E-1,2.50000000000000000E-1));
#45=CARTESIAN_POINT('',(0.00000000000000000E0,-8.75000000000000000E-1,1.02500000000000000E1));
#46=(BOUNDED_SURFACE()B_SPLINE_SURFACE(2,1,((#40,#41),(#42,#43),(#44,#45)),.UNSPECIFIED.,.F.,.F.,.F.)B_SPLINE_SURFACE_WITH_KNOTS((3,3),(2,2),(0.00000000000000000E0,1.00000000000000000E0),(0.00000000000000000E0,1.00000000000000000E0),.UNSPECIFIED.)GEOMETRIC_REPRESENTATION_ITEM()RATIONAL_B_SPLINE_SURFACE(((1.00000000000000000E0,1.00000000000000000E0),(7.07106781186547573E-1,7.07106781186547573E-1),(1.00000000000000000E0,1.00000000000000000E0)))REPRESENTATION_ITEM('')SURFACE());
#47=CARTESIAN_POINT('',(0.00000000000000000E0,-8.75000000000000000E-1,2.50000000000000000E-1));
#48=CARTESIAN_POINT('',(0.00000000000000000E0,-8.75000000000000000E-1,1.02500000000000000E1));
#49=CARTESIAN_POINT('',(5.00000000000000000E-1,-8.75000000000000000E-1,2.50000000000000000E-1));
#50=CARTESIAN_POINT('',(5.00000000000000000E-1,-8.75000000000000000E-1,1.02500000000000000E1));
#51=CARTESIAN_POINT('',(5.00000000000000000E-1,1.25000000000000000E-1,2.50000000000000000E-1));
#52=CARTESIAN_POINT('',(5.00000000000000000E-1,1.25000000000000000E-1,1.02500000000000000E1));
#53=(BOUNDED_SURFACE()B_SPLINE_SURFACE(2,1,((#47,#48),(#49,#50),(#51,#52)),.UNSPECIFIED.,.F.,.F.,.F.)B_SPLINE_SURFACE_WITH_KNOTS((3,3),(2,2),(0.00000000000000000E0,1.00000000000000000E0),(0.00000000000000000E0,1.00000000000000000E0),.UNSPECIFIED.)GEOMETRIC_REPRESENTATION_ITEM()RATIONAL_B_SPLINE_SURFACE(((1.00000000000000000E0,1.00000000000000000E0),(7.07106781186547573E-1,7.07106781186547573E-1),(1.00000000000000000E0,1.00000000000000000E0)))REPRESENTATION_ITEM('')SURFACE());
#54=CARTESIAN_POINT('',(5.00000000000000000E-1,1.25000000000000000E-1,2.50000000000000000E-1));
#55=CARTESIAN_POINT('',(5.00000000000000000E-1,1.25000000000000000E-1,1.02500000000000000E1));
#56=CARTESIAN_POINT('',(5.00000000000000000E-1,1.12500000000000000E0,2.50000000000000000E-1));
#57=CARTESIAN_POINT('',(5.00000000000000000E-1,1.12500000000000000E0,1.02500000000000000E1));
#58=CARTESIAN_POINT('',(0.00000000000000000E0,1.12500000000000000E0,2.50000000000000000E-1));
#59=CARTESIAN_POINT('',(0.00000000000000000E0,1.12500000000000000E0,1.02500000000000000E1));
#60=(BOUNDED_SURFACE()B_SPLINE_SURFACE(2,1,((#54,#55),(#56,#57),(#58,#59)),.UNSPECIFIED.,.F.,.F.,.F.)B_SPLINE_SURFACE_WITH_KNOTS((3,3),(2,2),(0.00000000000000000E0,1.00000000000000000E0),(0.00000000000000000E0,1.00000000000000000E0),.UNSPECIFIED.)GEOMETRIC_REPRESENTATION_ITEM()RATIONAL_B_SPLINE_SURFACE(((1.00000000000000000E0,1.00000000000000000E0),(7.07106781186547573E-1,7.07106781186547573E-1),(1.00000000000000000E0,1.00000000000000000E0)))REPRESENTATION_ITEM('')SURFACE());
#61=CARTESIAN_POINT('',(0.00000000000000000E0,5.25000000000000022E-1,2.50000000000000000E-1));
#62=CARTESIAN_POINT('',(0.00000000000000000E0,5.25000000000000022E-1,1.02500000000000000E1));
#63=CARTESIAN_POINT('',(2.00000000000000011E-1,5.25000000000000022E-1,2.50000000000000000E-1));
#64=CARTESIAN_POINT('',(2.00000000000000011E-1,5.25000000000000022E-1,1.02500000000000000E1));
#65=CARTESIAN_POINT('',(2.00000000000000011E-1,1.25000000000000000E-1,2.50000000000000000E-1));
#66=CARTESIAN_POINT('',(2.00000000000000011E-1,1.25000000000000000E-1,1.02500000000000000E1));
#67=(BOUNDED_SURFACE()B_SPLINE_SURFACE(2,1,((#61,#62),(#63,#64),(#65,#66)),.UNSPECIFIED.,.F.,.F.,.F.)B_SPLINE_SURFACE_WITH_KNOTS((3,3),(2,2),(0.00000000000000000E0,1.00000000000000000E0),(0.00000000000000000E0,1.00000000000000000E0),.UNSPECIFIED.)GEOMETRIC_REPRESENTATION_ITEM()RATIONAL_B_SPLINE_SURFACE(((1.00000000000000000E0,1.00000000000000000E0),(7.07106781186547573E-1,7.07106781186547573E-1),(1.00000000000000000E0,1.00000000000000000E0)))REPRESENTATION_ITEM('')SURFACE());
#68=CARTESIAN_POINT('',(2.00000000000000011E-1,1.25000000000000000E-1,2.50000000000000000E-1));
#69=CARTESIAN_POINT('',(2.00000000000000011E-1,1.25000000000000000E-1,1.02500000000000000E1));
#70=CARTESIAN_POINT('',(2.00000000000000011E-1,-2.75000000000000022E-1,2.50000000000000000E-1));
#71=CARTESIAN_POINT('',(2.00000000000000011E-1,-2.75000000000000022E-1,1.02500000000000000E1));
#72=CARTESIAN_POINT('',(0.00000000000000000E0,-2.75000000000000022E-1,2.50000000000000000E-1));
#73=CARTESIAN_POINT('',(0.00000000000000000E0,-2.75000000000000022E-1,1.02500000000000000E1));
#74=(BOUNDED_SURFACE()B_SPLINE_SURFACE(2,1,((#68,#69),(#70,#71),(#72,#73)),.UNSPECIFIED.,.F.,.F.,.F.)B_SPLINE_SURFACE_WITH_KNOTS((3,3),(2,2),(0.00000000000000000E0,1.00000000000000000E0),(0.00000000000000000E0,1.00000000000000000E0),.UNSPECIFIED.)GEOMETRIC_REPRESENTATION_ITEM()RATIONAL_B_SPLINE_SURFACE(((1.00000000000000000E0,1.00000000000000000E0),(7.07106781186547573E-1,7.07106781186547573E-1),(1.00000000000000000E0,1.00000000000000000E0)))REPRESENTATION_ITEM('')SURFACE());
#75=CARTESIAN_POINT('',(0.00000000000000000E0,-2.75000000000000022E-1,2.50000000000000000E-1));
#76=CARTESIAN_POINT('',(0.00000000000000000E0,-2.75000000000000022E-1,1.02500000000000000E1));
#77=CARTESIAN_POINT('',(-2.00000000000000011E-1,-2.75000000000000022E-1,2.50000000000000000E-1));
#78=CARTESIAN_POINT('',(-2.00000000000000011E-1,-2.75000000000000022E-1,1.02500000000000000E1));
#79=CARTESIAN_POINT('',(-2.00000000000000011E-1,1.25000000000000000E-1,2.50000000000000000E-1));
#80=CARTESIAN_POINT('',(-2.00000000000000011E-1,1.25000000000000000E-1,1.02500000000000000E1));
#81=(BOUNDED_SURFACE()B_SPLINE_SURFACE(2,1,((#75,#76),(#77,#78),(#79,#80)),.UNSPECIFIED.,.F.,.F.,.F.)B_SPLINE_SURFACE_WITH_KNOTS((3,3),(2,2),(0.00000000000000000E0,1.00000000000000000E0),(0.00000000000000000E0,1.00000000000000000E0),.UNSPECIFIED.)GEOMETRIC_REPRESENTATION_ITEM()RATIONAL_B_SPLINE_SURFACE(((1.00000000000000000E0,1.00000000000000000E0),(7.07106781186547573E-1,7.07106781186547573E-1),(1.00000000000000000E0,1.00000000000000000E0)))REPRESENTATION_ITEM('')SURFACE());
#82=CARTESIAN_POINT('',(-2.00000000000000011E-1,1.25000000000000000E-1,2.50000000000000000E-1));
#83=CARTESIAN_POINT('',(-2.00000000000000011E-1,1.25000000000000000E-1,1.02500000000000000E1));
#84=CARTESIAN_POINT('',(-2.00000000000000011E-1,5.25000000000000022E-1,2.50000000000000000E-1));
#85=CARTESIAN_POINT('',(-2.00000000000000011E-1,5.25000000000000022E-1,1.02500000000000000E1));
#86=CARTESIAN_POINT('',(0.00000000000000000E0,5.25000000000000022E-1,2.50000000000000000E-1));
#87=CARTESIAN_POINT('',(0.00000000000000000E0,5.25000000000000022E-1,1.02500000000000000E1));
#88=(BOUNDED_SURFACE()B_SPLINE_SURFACE(2,1,((#82,#83),(#84,#85),(#86,#87)),.UNSPECIFIED.,.F.,.F.,.F.)B_SPLINE_SURFACE_WITH_KNOTS((3,3),(2,2),(0.00000000000000000E0,1.00000000000000000E0),(0.00000000000000000E0,1.00000000000000000E0),.UNSPECIFIED.)GEOMETRIC_REPRESENTATION_ITEM()RATIONAL_B_SPLINE_SURFACE(((1.00000000000000000E0,1.00000000000000000E0),(7.07106781186547573E-1,7.07106781186547573E-1),(1.00000000000000000E0,1.00000000000000000E0)))REPRESENTATION_ITEM('')SURFACE());
#89=CARTESIAN_POINT('',(5.00000000000000000E-1,-8.75000000000000000E-1,2.50000000000000000E-1));
#90=CARTESIAN_POINT('',(5.00000000000000000E-1,1.12500000000000000E0,2.50000000000000000E-1));
#91=CARTESIAN_POINT('',(-5.00000000000000000E-1,-8.75000000000000000E-1,2.50000000000000000E-1));
#92=CARTESIAN_POINT('',(-5.00000000000000000E-1,1.12500000000000000E0,2.50000000000000000E-1));
#93=B_SPLINE_SURFACE_WITH_KNOTS('',1,1,((#89,#90),(#91,#92)),.UNSPECIFIED.,.F.,.F.,.F.,(2,2),(2,2),(-5.00000000000000000E-1,5.00000000000000000E-1),(-8.75000000000000000E-1,1.12500000000000000E0),.UNSPECIFIED.);
#94=CARTESIAN_POINT('',(-5.00000000000000000E-1,-8.75000000000000000E-1,1.02500000000000000E1));
#95=CARTESIAN_POINT('',(-5.00000000000000000E-1,1.12500000000000000E0,1.02500000000000000E1));
#96=CARTESIAN_POINT('',(5.00000000000000000E-1,-8.75000000000000000E-1,1.02500000000000000E1));
#97=CARTESIAN_POINT('',(5.00000000000000000E-1,1.12500000000000000E0,1.02500000000000000E1));
#98=B_SPLINE_SURFACE_WITH_KNOTS('',1,1,((#94,#95),(#96,#97)),.UNSPECIFIED.,.F.,.F.,.F.,(2,2),(2,2),(-5.00000000000000000E-1,5.00000000000000000E-1),(-8.75000000000000000E-1,1.12500000000000000E0),.UNSPECIFIED.);
#99=CARTESIAN_POINT('',(0.00000000000000000E0,1.12500000000000000E0,2.50000000000000000E-1));
#100=CARTESIAN_POINT('',(-5.00000000000000000E-1,1.12500000000000000E0,2.50000000000000000E-1));
#101=CARTESIAN_POINT('',(-5.00000000000000000E-1,1.25000000000000000E-1,2.50000000000000000E-1));
#102=(BOUNDED_CURVE()B_SPLINE_CURVE(2,(#99,#100,#101),.UNSPECIFIED.,.F.,.F.)B_SPLINE_CURVE_WITH_KNOTS((3,3),(0.00000000000000000E0,1.00000000000000000E0),.UNSPECIFIED.)CURVE()GEOMETRIC_REPRESENTATION_ITEM()RATIONAL_B_SPLINE_CURVE((1.00000000000000000E0,7.07106781186547573E-1,1.00000000000000000E0))REPRESENTATION_ITEM(''));
#103=CARTESIAN_POINT('',(-5.00000000000000000E-1,1.25000000000000000E-1,2.50000000000000000E-1));
#104=CARTESIAN_POINT('',(-5.00000000000000000E-1,1.25000000000000000E-1,1.02500000000000000E1));
#105=B_SPLINE_CURVE_WITH_KNOTS('',1,(#103,#104),.UNSPECIFIED.,.F.,.F.,(2,2),(0.00000000000000000E0,1.00000000000000000E0),.UNSPECIFIED.);
#106=CARTESIAN_POINT('',(0.00000000000000000E0,1.12500000000000000E0,1.02500000000000000E1));
#107=CARTESIAN_POINT('',(-5.00000000000000000E-1,1.12500000000000000E0,1.02500000000000000E1));
#108=CARTESIAN_POINT('',(-5.00000000000000000E-1,1.25000000000000000E-1,1.02500000000000000E1));
#109=(BOUNDED_CURVE()B_SPLINE_CURVE(2,(#106,#107,#108),.UNSPECIFIED.,.F.,.F.)B_SPLINE_CURVE_WITH_KNOTS((3,3),(0.00000000000000000E0,1.00000000000000000E0),.UNSPECIFIED.)CURVE()GEOMETRIC_REPRESENTATION_ITEM()RATIONAL_B_SPLINE_CURVE((1.00000000000000000E0,7.07106781186547573E-1,1.00000000000000000E0))REPRESENTATION_ITEM(''));
#110=CARTESIAN_POINT('',(0.00000000000000000E0,1.12500000000000000E0,2.50000000000000000E-1));
#111=CARTESIAN_POINT('',(0.00000000000000000E0,1.12500000000000000E0,1.02500000000000000E1));
#112=B_SPLINE_CURVE_WITH_KNOTS('',1,(#110,#111),.UNSPECIFIED.,.F.,.F.,(2,2),(0.00000000000000000E0,1.00000000000000000E0),.UNSPECIFIED.);
#113=CARTESIAN_POINT('',(-5.00000000000000000E-1,1.25000000000000000E-1,2.50000000000000000E-1));
#114=CARTESIAN_POINT('',(-5.00000000000000000E-1,-8.75000000000000000E-1,2.50000000000000000E-1));
#115=CARTESIAN_POINT('',(0.00000000000000000E0,-8.75000000000000000E-1,2.50000000000000000E-1));
#116=(BOUNDED_CURVE()B_SPLINE_CURVE(2,(#113,#114,#115),.UNSPECIFIED.,.F.,.F.)B_SPLINE_CURVE_WITH_KNOTS((3,3),(0.00000000000000000E0,1.00000000000000000E0),.UNSPECIFIED.)CURVE()GEOMETRIC_REPRESENTATION_ITEM()RATIONAL_B_SPLINE_CURVE((1.00000000000000000E0,7.07106781186547573E-1,1.00000000000000000E0))REPRESENTATION_ITEM(''));
#117=CARTESIAN_POINT('',(0.00000000000000000E0,-8.75000000000000000E-1,2.50000000000000000E-1));
#118=CARTESIAN_POINT('',(0.00000000000000000E0,-8.75000000000000000E-1,1.02500000000000000E1));
#119=B_SPLINE_CURVE_WITH_KNOTS('',1,(#117,#118),.UNSPECIFIED.,.F.,.F.,(2,2),(0.00000000000000000E0,1.00000000000000000E0),.UNSPECIFIED.);
#120=CARTESIAN_POINT('',(-5.00000000000000000E-1,1.25000000000000000E-1,1.02500000000000000E1));
#121=CARTESIAN_POINT('',(-5.00000000000000000E-1,-8.75000000000000000E-1,1.02500000000000000E1));
#122=CARTESIAN_POINT('',(0.00000000000000000E0,-8.75000000000000000E-1,1.02500000000000000E1));
#123=(BOUNDED_CURVE()B_SPLINE_CURVE(2,(#120,#121,#122),.UNSPECIFIED.,.F.,.F.)B_SPLINE_CURVE_WITH_KNOTS((3,3),(0.00000000000000000E0,1.00000000000000000E0),.UNSPECIFIED.)CURVE()GEOMETRIC_REPRESENTATION_ITEM()RATIONAL_B_SPLINE_CURVE((1.00000000000000000E0,7.07106781186547573E-1,1.00000000000000000E0))REPRESENTATION_ITEM(''));
#124=CARTESIAN_POINT('',(0.00000000000000000E0,-8.75000000000000000E-1,2.50000000000000000E-1));
#125=CARTESIAN_POINT('',(5.00000000000000000E-1,-8.75000000000000000E-1,2.50000000000000000E-1));
#126=CARTESIAN_POINT('',(5.00000000000000000E-1,1.25000000000000000E-1,2.50000000000000000E-1));
#127=(BOUNDED_CURVE()B_SPLINE_CURVE(2,(#124,#125,#126),.UNSPECIFIED.,.F.,.F.)B_SPLINE_CURVE_WITH_KNOTS((3,3),(0.00000000000000000E0,1.00000000000000000E0),.UNSPECIFIED.)CURVE()GEOMETRIC_REPRESENTATION_ITEM()RATIONAL_B_SPLINE_CURVE((1.00000000000000000E0,7.07106781186547573E-1,1.00000000000000000E0))REPRESENTATION_ITEM(''));
#128=CARTESIAN_POINT('',(5.00000000000000000E-1,1.25000000000000000E-1,2.50000000000000000E-1));
#129=CARTESIAN_POINT('',(5.00000000000000000E-1,1.25000000000000000E-1,1.02500000000000000E1));
#130=B_SPLINE_CURVE_WITH_KNOTS('',1,(#128,#129),.UNSPECIFIED.,.F.,.F.,(2,2),(0.00000000000000000E0,1.00000000000000000E0),.UNSPECIFIED.);
#131=CARTESIAN_POINT('',(0.00000000000000000E0,-8.75000000000000000E-1,1.02500000000000000E1));
#132=CARTESIAN_POINT('',(5.00000000000000000E-1,-8.75000000000000000E-1,1.02500000000000000E1));
#133=CARTESIAN_POINT('',(5.00000000000000000E-1,1.25000000000000000E-1,1.02500000000000000E1));
#134=(BOUNDED_CURVE()B_SPLINE_CURVE(2,(#131,#132,#133),.UNSPECIFIED.,.F.,.F.)B_SPLINE_CURVE_WITH_KNOTS((3,3),(0.00000000000000000E0,1.00000000000000000E0),.UNSPECIFIED.)CURVE()GEOMETRIC_REPRESENTATION_ITEM()RATIONAL_B_SPLINE_CURVE((1.00000000000000000E0,7.07106781186547573E-1,1.00000000000000000E0))REPRESENTATION_ITEM(''));
#135=CARTESIAN_POINT('',(0.00000000000000000E0,1.12500000000000000E0,2.50000000000000000E-1));
#136=CARTESIAN_POINT('',(5.00000000000000000E-1,1.12500000000000000E0,2.50000000000000000E-1));
#137=CARTESIAN_POINT('',(5.00000000000000000E-1,1.25000000000000000E-1,2.50000000000000000E-1));
#138=(BOUNDED_CURVE()B_SPLINE_CURVE(2,(#135,#136,#137),.UNSPECIFIED.,.F.,.F.)B_SPLINE_CURVE_WITH_KNOTS((3,3),(0.00000000000000000E0,1.00000000000000000E0),.UNSPECIFIED.)CURVE()GEOMETRIC_REPRESENTATION_ITEM()RATIONAL_B_SPLINE_CURVE((1.00000000000000000E0,7.07106781186547573E-1,1.00000000000000000E0))REPRESENTATION_ITEM(''));
#139=CARTESIAN_POINT('',(0.00000000000000000E0,1.12500000000000000E0,1.02500000000000000E1));
#140=CARTESIAN_POINT('',(5.00000000000000000E-1,1.12500000000000000E0,1.02500000000000000E1));
#141=CARTESIAN_POINT('',(5.00000000000000000E-1,1.25000000000000000E-1,1.02500000000000000E1));
#142=(BOUNDED_CURVE()B_SPLINE_CURVE(2,(#139,#140,#141),.UNSPECIFIED.,.F.,.F.)B_SPLINE_CURVE_WITH_KNOTS((3,3),(0.00000000000000000E0,1.00000000000000000E0),.UNSPECIFIED.)CURVE()GEOMETRIC_REPRESENTATION_ITEM()RATIONAL_B_SPLINE_CURVE((1.00000000000000000E0,7.07106781186547573E-1,1.00000000000000000E0))REPRESENTATION_ITEM(''));
#143=CARTESIAN_POINT('',(0.00000000000000000E0,5.25000000000000022E-1,2.50000000000000000E-1));
#144=CARTESIAN_POINT('',(2.00000000000000011E-1,5.25000000000000022E-1,2.50000000000000000E-1));
#145=CARTESIAN_POINT('',(2.00000000000000011E-1,1.25000000000000000E-1,2.50000000000000000E-1));
#146=(BOUNDED_CURVE()B_SPLINE_CURVE(2,(#143,#144,#145),.UNSPECIFIED.,.F.,.F.)B_SPLINE_CURVE_WITH_KNOTS((3,3),(0.00000000000000000E0,1.00000000000000000E0),.UNSPECIFIED.)CURVE()GEOMETRIC_REPRESENTATION_ITEM()RATIONAL_B_SPLINE_CURVE((1.00000000000000000E0,7.07106781186547573E-1,1.00000000000000000E0))REPRESENTATION_ITEM(''));
#147=CARTESIAN_POINT('',(2.00000000000000011E-1,1.25000000000000000E-1,2.50000000000000000E-1));
#148=CARTESIAN_POINT('',(2.00000000000000011E-1,1.25000000000000000E-1,1.02500000000000000E1));
#149=B_SPLINE_CURVE_WITH_KNOTS('',1,(#147,#148),.UNSPECIFIED.,.F.,.F.,(2,2),(0.00000000000000000E0,1.00000000000000000E0),.UNSPECIFIED.);
#150=CARTESIAN_POINT('',(0.00000000000000000E0,5.25000000000000022E-1,1.02500000000000000E1));
#151=CARTESIAN_POINT('',(2.00000000000000011E-1,5.25000000000000022E-1,1.02500000000000000E1));
#152=CARTESIAN_POINT('',(2.00000000000000011E-1,1.25000000000000000E-1,1.02500000000000000E1));
#153=(BOUNDED_CURVE()B_SPLINE_CURVE(2,(#150,#151,#152),.UNSPECIFIED.,.F.,.F.)B_SPLINE_CURVE_WITH_KNOTS((3,3),(0.00000000000000000E0,1.00000000000000000E0),.UNSPECIFIED.)CURVE()GEOMETRIC_REPRESENTATION_ITEM()RATIONAL_B_SPLINE_CURVE((1.00000000000000000E0,7.07106781186547573E-1,1.00000000000000000E0))REPRESENTATION_ITEM(''));
#154=CARTESIAN_POINT('',(0.00000000000000000E0,5.25000000000000022E-1,2.50000000000000000E-1));
#155=CARTESIAN_POINT('',(0.00000000000000000E0,5.25000000000000022E-1,1.02500000000000000E1));
#156=B_SPLINE_CURVE_WITH_KNOTS('',1,(#154,#155),.UNSPECIFIED.,.F.,.F.,(2,2),(0.00000000000000000E0,1.00000000000000000E0),.UNSPECIFIED.);
#157=CARTESIAN_POINT('',(2.00000000000000011E-1,1.25000000000000000E-1,2.50000000000000000E-1));
#158=CARTESIAN_POINT('',(2.00000000000000011E-1,-2.75000000000000022E-1,2.50000000000000000E-1));
#159=CARTESIAN_POINT('',(0.00000000000000000E0,-2.75000000000000022E-1,2.50000000000000000E-1));
#160=(BOUNDED_CURVE()B_SPLINE_CURVE(2,(#157,#158,#159),.UNSPECIFIED.,.F.,.F.)B_SPLINE_CURVE_WITH_KNOTS((3,3),(0.00000000000000000E0,1.00000000000000000E0),.UNSPECIFIED.)CURVE()GEOMETRIC_REPRESENTATION_ITEM()RATIONAL_B_SPLINE_CURVE((1.00000000000000000E0,7.07106781186547573E-1,1.00000000000000000E0))REPRESENTATION_ITEM(''));
#161=CARTESIAN_POINT('',(0.00000000000000000E0,-2.75000000000000022E-1,2.50000000000000000E-1));
#162=CARTESIAN_POINT('',(0.00000000000000000E0,-2.75000000000000022E-1,1.02500000000000000E1));
#163=B_SPLINE_CURVE_WITH_KNOTS('',1,(#161,#162),.UNSPECIFIED.,.F.,.F.,(2,2),(0.00000000000000000E0,1.00000000000000000E0),.UNSPECIFIED.);
#164=CARTESIAN_POINT('',(2.00000000000000011E-1,1.25000000000000000E-1,1.02500000000000000E1));
#165=CARTESIAN_POINT('',(2.00000000000000011E-1,-2.75000000000000022E-1,1.02500000000000000E1));
#166=CARTESIAN_POINT('',(0.00000000000000000E0,-2.75000000000000022E-1,1.02500000000000000E1));
#167=(BOUNDED_CURVE()B_SPLINE_CURVE(2,(#164,#165,#166),.UNSPECIFIED.,.F.,.F.)B_SPLINE_CURVE_WITH_KNOTS((3,3),(0.00000000000000000E0,1.00000000000000000E0),.UNSPECIFIED.)CURVE()GEOMETRIC_REPRESENTATION_ITEM()RATIONAL_B_SPLINE_CURVE((1.00000000000000000E0,7.07106781186547573E-1,1.00000000000000000E0))REPRESENTATION_ITEM(''));
#168=CARTESIAN_POINT('',(0.00000000000000000E0,-2.75000000000000022E-1,2.50000000000000000E-1));
#169=CARTESIAN_POINT('',(-2.00000000000000011E-1,-2.75000000000000022E-1,2.50000000000000000E-1));
#170=CARTESIAN_POINT('',(-2.00000000000000011E-1,1.25000000000000000E-1,2.50000000000000000E-1));
#171=(BOUNDED_CURVE()B_SPLINE_CURVE(2,(#168,#169,#170),.UNSPECIFIED.,.F.,.F.)B_SPLINE_CURVE_WITH_KNOTS((3,3),(0.00000000000000000E0,1.00000000000000000E0),.UNSPECIFIED.)CURVE()GEOMETRIC_REPRESENTATION_ITEM()RATIONAL_B_SPLINE_CURVE((1.00000000000000000E0,7.07106781186547573E-1,1.00000000000000000E0))REPRESENTATION_ITEM(''));
#172=CARTESIAN_POINT('',(-2.00000000000000011E-1,1.25000000000000000E-1,2.50000000000000000E-1));
#173=CARTESIAN_POINT('',(-2.00000000000000011E-1,1.25000000000000000E-1,1.02500000000000000E1));
#174=B_SPLINE_CURVE_WITH_KNOTS('',1,(#172,#173),.UNSPECIFIED.,.F.,.F.,(2,2),(0.00000000000000000E0,1.00000000000000000E0),.UNSPECIFIED.);
#175=CARTESIAN_POINT('',(0.00000000000000000E0,-2.75000000000000022E-1,1.02500000000000000E1));
#176=CARTESIAN_POINT('',(-2.00000000000000011E-1,-2.75000000000000022E-1,1.02500000000000000E1));
#177=CARTESIAN_POINT('',(-2.00000000000000011E-1,1.25000000000000000E-1,1.02500000000000000E1));
#178=(BOUNDED_CURVE()B_SPLINE_CURVE(2,(#175,#176,#177),.UNSPECIFIED.,.F.,.F.)B_SPLINE_CURVE_WITH_KNOTS((3,3),(0.00000000000000000E0,1.00000000000000000E0),.UNSPECIFIED.)CURVE()GEOMETRIC_REPRESENTATION_ITEM()RATIONAL_B_SPLINE_CURVE((1.00000000000000000E0,7.07106781186547573E-1,1.00000000000000000E0))REPRESENTATION_ITEM(''));
#179=CARTESIAN_POINT('',(0.00000000000000000E0,5.25000000000000022E-1,2.50000000000000000E-1));
#180=CARTESIAN_POINT('',(-2.00000000000000011E-1,5.25000000000000022E-1,2.50000000000000000E-1));
#181=CARTESIAN_POINT('',(-2.00000000000000011E-1,1.25000000000000000E-1,2.50000000000000000E-1));
#182=(BOUNDED_CURVE()B_SPLINE_CURVE(2,(#179,#180,#181),.UNSPECIFIED.,.F.,.F.)B_SPLINE_CURVE_WITH_KNOTS((3,3),(0.00000000000000000E0,1.00000000000000000E0),.UNSPECIFIED.)CURVE()GEOMETRIC_REPRESENTATION_ITEM()RATIONAL_B_SPLINE_CURVE((1.00000000000000000E0,7.07106781186547573E-1,1.00000000000000000E0))REPRESENTATION_ITEM(''));
#183=CARTESIAN_POINT('',(0.00000000000000000E0,5.25000000000000022E-1,1.02500000000000000E1));
#184=CARTESIAN_POINT('',(-2.00000000000000011E-1,5.25000000000000022E-1,1.02500000000000000E1));
#185=CARTESIAN_POINT('',(-2.00000000000000011E-1,1.25000000000000000E-1,1.02500000000000000E1));
#186=(BOUNDED_CURVE()B_SPLINE_CURVE(2,(#183,#184,#185),.UNSPECIFIED.,.F.,.F.)B_SPLINE_CURVE_WITH_KNOTS((3,3),(0.00000000000000000E0,1.00000000000000000E0),.UNSPECIFIED.)CURVE()GEOMETRIC_REPRESENTATION_ITEM()RATIONAL_B_SPLINE_CURVE((1.00000000000000000E0,7.07106781186547573E-1,1.00000000000000000E0))REPRESENTATION_ITEM(''));
#187=(GEOMETRIC_REPRESENTATION_CONTEXT(2)REPRESENTATION_CONTEXT('','2D'));
#188=CARTESIAN_POINT('',(0.00000000000000000E0,0.00000000000000000E0));
#189=CARTESIAN_POINT('',(1.00000000000000000E0,0.00000000000000000E0));
#190=B_SPLINE_CURVE_WITH_KNOTS('',1,(#188,#189),.UNSPECIFIED.,.F.,.F.,(2,2),(0.00000000000000000E0,1.00000000000000000E0),.UNSPECIFIED.);
#191=DEFINITIONAL_REPRESENTATION('',(#190),#187);
#192=PCURVE('',#39,#191);
#193=CARTESIAN_POINT('',(1.00000000000000000E0,0.00000000000000000E0));
#194=CARTESIAN_POINT('',(1.00000000000000000E0,1.00000000000000000E0));
#195=B_SPLINE_CURVE_WITH_KNOTS('',1,(#193,#194),.UNSPECIFIED.,.F.,.F.,(2,2),(0.00000000000000000E0,1.00000000000000000E0),.UNSPECIFIED.);
#196=DEFINITIONAL_REPRESENTATION('',(#195),#187);
#197=PCURVE('',#39,#196);
#198=CARTESIAN_POINT('',(1.00000000000000000E0,1.00000000000000000E0));
#199=CARTESIAN_POINT('',(0.00000000000000000E0,1.00000000000000000E0));
#200=B_SPLINE_CURVE_WITH_KNOTS('',1,(#198,#199),.UNSPECIFIED.,.F.,.F.,(2,2),(0.00000000000000000E0,1.00000000000000000E0),.UNSPECIFIED.);
#201=DEFINITIONAL_REPRESENTATION('',(#200),#187);
#202=PCURVE('',#39,#201);
#203=CARTESIAN_POINT('',(0.00000000000000000E0,1.00000000000000000E0));
#204=CARTESIAN_POINT('',(0.00000000000000000E0,0.00000000000000000E0));
#205=B_SPLINE_CURVE_WITH_KNOTS('',1,(#203,#204),.UNSPECIFIED.,.F.,.F.,(2,2),(0.00000000000000000E0,1.00000000000000000E0),.UNSPECIFIED.);
#206=DEFINITIONAL_REPRESENTATION('',(#205),#187);
#207=PCURVE('',#39,#206);
#208=CARTESIAN_POINT('',(0.00000000000000000E0,0.00000000000000000E0));
#209=CARTESIAN_POINT('',(1.00000000000000000E0,0.00000000000000000E0));
#210=B_SPLINE_CURVE_WITH_KNOTS('',1,(#208,#209),.UNSPECIFIED.,.F.,.F.,(2,2),(0.00000000000000000E0,1.00000000000000000E0),.UNSPECIFIED.);
#211=DEFINITIONAL_REPRESENTATION('',(#210),#187);
#212=PCURVE('',#46,#211);
#213=CARTESIAN_POINT('',(1.00000000000000000E0,0.00000000000000000E0));
#214=CARTESIAN_POINT('',(1.00000000000000000E0,1.00000000000000000E0));
#215=B_SPLINE_CURVE_WITH_KNOTS('',1,(#213,#214),.UNSPECIFIED.,.F.,.F.,(2,2),(0.00000000000000000E0,1.00000000000000000E0),.UNSPECIFIED.);
#216=DEFINITIONAL_REPRESENTATION('',(#215),#187);
#217=PCURVE('',#46,#216);
#218=CARTESIAN_POINT('',(1.00000000000000000E0,1.00000000000000000E0));
#219=CARTESIAN_POINT('',(0.00000000000000000E0,1.00000000000000000E0));
#220=B_SPLINE_CURVE_WITH_KNOTS('',1,(#218,#219),.UNSPECIFIED.,.F.,.F.,(2,2),(0.00000000000000000E0,1.00000000000000000E0),.UNSPECIFIED.);
#221=DEFINITIONAL_REPRESENTATION('',(#220),#187);
#222=PCURVE('',#46,#221);
#223=CARTESIAN_POINT('',(0.00000000000000000E0,1.00000000000000000E0));
#224=CARTESIAN_POINT('',(0.00000000000000000E0,0.00000000000000000E0));
#225=B_SPLINE_CURVE_WITH_KNOTS('',1,(#223,#224),.UNSPECIFIED.,.F.,.F.,(2,2),(0.00000000000000000E0,1.00000000000000000E0),.UNSPECIFIED.);
#226=DEFINITIONAL_REPRESENTATION('',(#225),#187);
#227=PCURVE('',#46,#226);
#228=CARTESIAN_POINT('',(0.00000000000000000E0,0.00000000000000000E0));
#229=CARTESIAN_POINT('',(1.00000000000000000E0,0.00000000000000000E0));
#230=B_SPLINE_CURVE_WITH_KNOTS('',1,(#228,#229),.UNSPECIFIED.,.F.,.F.,(2,2),(0.00000000000000000E0,1.00000000000000000E0),.UNSPECIFIED.);
#231=DEFINITIONAL_REPRESENTATION('',(#230),#187);
#232=PCURVE('',#53,#231);
#233=CARTESIAN_POINT('',(1.00000000000000000E0,0.00000000000000000E0));
#234=CARTESIAN_POINT('',(1.00000000000000000E0,1.00000000000000000E0));
#235=B_SPLINE_CURVE_WITH_KNOTS('',1,(#233,#234),.UNSPECIFIED.,.F.,.F.,(2,2),(0.00000000000000000E0,1.00000000000000000E0),.UNSPECIFIED.);
#236=DEFINITIONAL_REPRESENTATION('',(#235),#187);
#237=PCURVE('',#53,#236);
#238=CARTESIAN_POINT('',(1.00000000000000000E0,1.00000000000000000E0));
#239=CARTESIAN_POINT('',(0.00000000000000000E0,1.00000000000000000E0));
#240=B_SPLINE_CURVE_WITH_KNOTS('',1,(#238,#239),.UNSPECIFIED.,.F.,.F.,(2,2),(0.00000000000000000E0,1.00000000000000000E0),.UNSPECIFIED.);
#241=DEFINITIONAL_REPRESENTATION('',(#240),#187);
#242=PCURVE('',#53,#241);
#243=CARTESIAN_POINT('',(0.00000000000000000E0,1.00000000000000000E0));
#244=CARTESIAN_POINT('',(0.00000000000000000E0,0.00000000000000000E0));
#245=B_SPLINE_CURVE_WITH_KNOTS('',1,(#243,#244),.UNSPECIFIED.,.F.,.F.,(2,2),(0.00000000000000000E0,1.00000000000000000E0),.UNSPECIFIED.);
#246=DEFINITIONAL_REPRESENTATION('',(#245),#187);
#247=PCURVE('',#53,#246);
#248=CARTESIAN_POINT('',(0.00000000000000000E0,0.00000000000000000E0));
#249=CARTESIAN_POINT('',(1.00000000000000000E0,0.00000000000000000E0));
#250=B_SPLINE_CURVE_WITH_KNOTS('',1,(#248,#249),.UNSPECIFIED.,.F.,.F.,(2,2),(0.00000000000000000E0,1.00000000000000000E0),.UNSPECIFIED.);
#251=DEFINITIONAL_REPRESENTATION('',(#250),#187);
#252=PCURVE('',#60,#251);
#253=CARTESIAN_POINT('',(1.00000000000000000E0,0.00000000000000000E0));
#254=CARTESIAN_POINT('',(1.00000000000000000E0,1.00000000000000000E0));
#255=B_SPLINE_CURVE_WITH_KNOTS('',1,(#253,#254),.UNSPECIFIED.,.F.,.F.,(2,2),(0.00000000000000000E0,1.00000000000000000E0),.UNSPECIFIED.);
#256=DEFINITIONAL_REPRESENTATION('',(#255),#187);
#257=PCURVE('',#60,#256);
#258=CARTESIAN_POINT('',(1.00000000000000000E0,1.00000000000000000E0));
#259=CARTESIAN_POINT('',(0.00000000000000000E0,1.00000000000000000E0));
#260=B_SPLINE_CURVE_WITH_KNOTS('',1,(#258,#259),.UNSPECIFIED.,.F.,.F.,(2,2),(0.00000000000000000E0,1.00000000000000000E0),.UNSPECIFIED.);
#261=DEFINITIONAL_REPRESENTATION('',(#260),#187);
#262=PCURVE('',#60,#261);
#263=CARTESIAN_POINT('',(0.00000000000000000E0,1.00000000000000000E0));
#264=CARTESIAN_POINT('',(0.00000000000000000E0,0.00000000000000000E0));
#265=B_SPLINE_CURVE_WITH_KNOTS('',1,(#263,#264),.UNSPECIFIED.,.F.,.F.,(2,2),(0.00000000000000000E0,1.00000000000000000E0),.UNSPECIFIED.);
#266=DEFINITIONAL_REPRESENTATION('',(#265),#187);
#267=PCURVE('',#60,#266);
#268=CARTESIAN_POINT('',(0.00000000000000000E0,0.00000000000000000E0));
#269=CARTESIAN_POINT('',(1.00000000000000000E0,0.00000000000000000E0));
#270=B_SPLINE_CURVE_WITH_KNOTS('',1,(#268,#269),.UNSPECIFIED.,.F.,.F.,(2,2),(0.00000000000000000E0,1.00000000000000000E0),.UNSPECIFIED.);
#271=DEFINITIONAL_REPRESENTATION('',(#270),#187);
#272=PCURVE('',#67,#271);
#273=CARTESIAN_POINT('',(1.00000000000000000E0,0.00000000000000000E0));
#274=CARTESIAN_POINT('',(1.00000000000000000E0,1.00000000000000000E0));
#275=B_SPLINE_CURVE_WITH_KNOTS('',1,(#273,#274),.UNSPECIFIED.,.F.,.F.,(2,2),(0.00000000000000000E0,1.00000000000000000E0),.UNSPECIFIED.);
#276=DEFINITIONAL_REPRESENTATION('',(#275),#187);
#277=PCURVE('',#67,#276);
#278=CARTESIAN_POINT('',(1.00000000000000000E0,1.00000000000000000E0));
#279=CARTESIAN_POINT('',(0.00000000000000000E0,1.00000000000000000E0));
#280=B_SPLINE_CURVE_WITH_KNOTS('',1,(#278,#279),.UNSPECIFIED.,.F.,.F.,(2,2),(0.00000000000000000E0,1.00000000000000000E0),.UNSPECIFIED.);
#281=DEFINITIONAL_REPRESENTATION('',(#280),#187);
#282=PCURVE('',#67,#281);
#283=CARTESIAN_POINT('',(0.00000000000000000E0,1.00000000000000000E0));
#284=CARTESIAN_POINT('',(0.00000000000000000E0,0.00000000000000000E0));
#285=B_SPLINE_CURVE_WITH_KNOTS('',1,(#283,#284),.UNSPECIFIED.,.F.,.F.,(2,2),(0.00000000000000000E0,1.00000000000000000E0),.UNSPECIFIED.);
#286=DEFINITIONAL_REPRESENTATION('',(#285),#187);
#287=PCURVE('',#67,#286);
#288=CARTESIAN_POINT('',(0.00000000000000000E0,0.00000000000000000E0));
#289=CARTESIAN_POINT('',(1.00000000000000000E0,0.00000000000000000E0));
#290=B_SPLINE_CURVE_WITH_KNOTS('',1,(#288,#289),.UNSPECIFIED.,.F.,.F.,(2,2),(0.00000000000000000E0,1.00000000000000000E0),.UNSPECIFIED.);
#291=DEFINITIONAL_REPRESENTATION('',(#290),#187);
#292=PCURVE('',#74,#291);
#293=CARTESIAN_POINT('',(1.00000000000000000E0,0.00000000000000000E0));
#294=CARTESIAN_POINT('',(1.00000000000000000E0,1.00000000000000000E0));
#295=B_SPLINE_CURVE_WITH_KNOTS('',1,(#293,#294),.UNSPECIFIED.,.F.,.F.,(2,2),(0.00000000000000000E0,1.00000000000000000E0),.UNSPECIFIED.);
#296=DEFINITIONAL_REPRESENTATION('',(#295),#187);
#297=PCURVE('',#74,#296);
#298=CARTESIAN_POINT('',(1.00000000000000000E0,1.00000000000000000E0));
#299=CARTESIAN_POINT('',(0.00000000000000000E0,1.00000000000000000E0));
#300=B_SPLINE_CURVE_WITH_KNOTS('',1,(#298,#299),.UNSPECIFIED.,.F.,.F.,(2,2),(0.00000000000000000E0,1.00000000000000000E0),.UNSPECIFIED.);
#301=DEFINITIONAL_REPRESENTATION('',(#300),#187);
#302=PCURVE('',#74,#301);
#303=CARTESIAN_POINT('',(0.00000000000000000E0,1.00000000000000000E0));
#304=CARTESIAN_POINT('',(0.00000000000000000E0,0.00000000000000000E0));
#305=B_SPLINE_CURVE_WITH_KNOTS('',1,(#303,#304),.UNSPECIFIED.,.F.,.F.,(2,2),(0.00000000000000000E0,1.00000000000000000E0),.UNSPECIFIED.);
#306=DEFINITIONAL_REPRESENTATION('',(#305),#187);
#307=PCURVE('',#74,#306);
#308=CARTESIAN_POINT('',(0.00000000000000000E0,0.00000000000000000E0));
#309=CARTESIAN_POINT('',(1.00000000000000000E0,0.00000000000000000E0));
#310=B_SPLINE_CURVE_WITH_KNOTS('',1,(#308,#309),.UNSPECIFIED.,.F.,.F.,(2,2),(0.00000000000000000E0,1.00000000000000000E0),.UNSPECIFIED.);
#311=DEFINITIONAL_REPRESENTATION('',(#310),#187);
#312=PCURVE('',#81,#311);
#313=CARTESIAN_POINT('',(1.00000000000000000E0,0.00000000000000000E0));
#314=CARTESIAN_POINT('',(1.00000000000000000E0,1.00000000000000000E0));
#315=B_SPLINE_CURVE_WITH_KNOTS('',1,(#313,#314),.UNSPECIFIED.,.F.,.F.,(2,2),(0.00000000000000000E0,1.00000000000000000E0),.UNSPECIFIED.);
#316=DEFINITIONAL_REPRESENTATION('',(#315),#187);
#317=PCURVE('',#81,#316);
#318=CARTESIAN_POINT('',(1.00000000000000000E0,1.00000000000000000E0));
#319=CARTESIAN_POINT('',(0.00000000000000000E0,1.00000000000000000E0));
#320=B_SPLINE_CURVE_WITH_KNOTS('',1,(#318,#319),.UNSPECIFIED.,.F.,.F.,(2,2),(0.00000000000000000E0,1.00000000000000000E0),.UNSPECIFIED.);
#321=DEFINITIONAL_REPRESENTATION('',(#320),#187);
#322=PCURVE('',#81,#321);
#323=CARTESIAN_POINT('',(0.00000000000000000E0,1.00000000000000000E0));
#324=CARTESIAN_POINT('',(0.00000000000000000E0,0.00000000000000000E0));
#325=B_SPLINE_CURVE_WITH_KNOTS('',1,(#323,#324),.UNSPECIFIED.,.F.,.F.,(2,2),(0.00000000000000000E0,1.00000000000000000E0),.UNSPECIFIED.);
#326=DEFINITIONAL_REPRESENTATION('',(#325),#187);
#327=PCURVE('',#81,#326);
#328=CARTESIAN_POINT('',(0.00000000000000000E0,0.00000000000000000E0));
#329=CARTESIAN_POINT('',(1.00000000000000000E0,0.00000000000000000E0));
#330=B_SPLINE_CURVE_WITH_KNOTS('',1,(#328,#329),.UNSPECIFIED.,.F.,.F.,(2,2),(0.00000000000000000E0,1.00000000000000000E0),.UNSPECIFIED.);
#331=DEFINITIONAL_REPRESENTATION('',(#330),#187);
#332=PCURVE('',#88,#331);
#333=CARTESIAN_POINT('',(1.00000000000000000E0,0.00000000000000000E0));
#334=CARTESIAN_POINT('',(1.00000000000000000E0,1.00000000000000000E0));
#335=B_SPLINE_CURVE_WITH_KNOTS('',1,(#333,#334),.UNSPECIFIED.,.F.,.F.,(2,2),(0.00000000000000000E0,1.00000000000000000E0),.UNSPECIFIED.);
#336=DEFINITIONAL_REPRESENTATION('',(#335),#187);
#337=PCURVE('',#88,#336);
#338=CARTESIAN_POINT('',(1.00000000000000000E0,1.00000000000000000E0));
#339=CARTESIAN_POINT('',(0.00000000000000000E0,1.00000000000000000E0));
#340=B_SPLINE_CURVE_WITH_KNOTS('',1,(#338,#339),.UNSPECIFIED.,.F.,.F.,(2,2),(0.00000000000000000E0,1.00000000000000000E0),.UNSPECIFIED.);
#341=DEFINITIONAL_REPRESENTATION('',(#340),#187);
#342=PCURVE('',#88,#341);
#343=CARTESIAN_POINT('',(0.00000000000000000E0,1.00000000000000000E0));
#344=CARTESIAN_POINT('',(0.00000000000000000E0,0.00000000000000000E0));
#345=B_SPLINE_CURVE_WITH_KNOTS('',1,(#343,#344),.UNSPECIFIED.,.F.,.F.,(2,2),(0.00000000000000000E0,1.00000000000000000E0),.UNSPECIFIED.);
#346=DEFINITIONAL_REPRESENTATION('',(#345),#187);
#347=PCURVE('',#88,#346);
#348=CARTESIAN_POINT('',(0.00000000000000000E0,1.12500000000000000E0));
#349=CARTESIAN_POINT('',(-5.00000000000000000E-1,1.12500000000000000E0));
#350=CARTESIAN_POINT('',(-5.00000000000000000E-1,1.25000000000000000E-1));
#351=(BOUNDED_CURVE()B_SPLINE_CURVE(2,(#348,#349,#350),.UNSPECIFIED.,.F.,.F.)B_SPLINE_CURVE_WITH_KNOTS((3,3),(0.00000000000000000E0,1.00000000000000000E0),.UNSPECIFIED.)CURVE()GEOMETRIC_REPRESENTATION_ITEM()RATIONAL_B_SPLINE_CURVE((1.00000000000000000E0,7.07106781186547573E-1,1.00000000000000000E0))REPRESENTATION_ITEM(''));
#352=DEFINITIONAL_REPRESENTATION('',(#351),#187);
#353=PCURVE('',#93,#352);
#354=CARTESIAN_POINT('',(-5.00000000000000000E-1,1.25000000000000000E-1));
#355=CARTESIAN_POINT('',(-5.00000000000000000E-1,-8.75000000000000000E-1));
#356=CARTESIAN_POINT('',(0.00000000000000000E0,-8.75000000000000000E-1));
#357=(BOUNDED_CURVE()B_SPLINE_CURVE(2,(#354,#355,#356),.UNSPECIFIED.,.F.,.F.)B_SPLINE_CURVE_WITH_KNOTS((3,3),(0.00000000000000000E0,1.00000000000000000E0),.UNSPECIFIED.)CURVE()GEOMETRIC_REPRESENTATION_ITEM()RATIONAL_B_SPLINE_CURVE((1.00000000000000000E0,7.07106781186547573E-1,1.00000000000000000E0))REPRESENTATION_ITEM(''));
#358=DEFINITIONAL_REPRESENTATION('',(#357),#187);
#359=PCURVE('',#93,#358);
#360=CARTESIAN_POINT('',(0.00000000000000000E0,-8.75000000000000000E-1));
#361=CARTESIAN_POINT('',(5.00000000000000000E-1,-8.75000000000000000E-1));
#362=CARTESIAN_POINT('',(5.00000000000000000E-1,1.25000000000000000E-1));
#363=(BOUNDED_CURVE()B_SPLINE_CURVE(2,(#360,#361,#362),.UNSPECIFIED.,.F.,.F.)B_SPLINE_CURVE_WITH_KNOTS((3,3),(0.00000000000000000E0,1.00000000000000000E0),.UNSPECIFIED.)CURVE()GEOMETRIC_REPRESENTATION_ITEM()RATIONAL_B_SPLINE_CURVE((1.00000000000000000E0,7.07106781186547573E-1,1.00000000000000000E0))REPRESENTATION_ITEM(''));
#364=DEFINITIONAL_REPRESENTATION('',(#363),#187);
#365=PCURVE('',#93,#364);
#366=CARTESIAN_POINT('',(5.00000000000000000E-1,1.25000000000000000E-1));
#367=CARTESIAN_POINT('',(5.00000000000000000E-1,1.12500000000000000E0));
#368=CARTESIAN_POINT('',(0.00000000000000000E0,1.12500000000000000E0));
#369=(BOUNDED_CURVE()B_SPLINE_CURVE(2,(#366,#367,#368),.UNSPECIFIED.,.F.,.F.)B_SPLINE_CURVE_WITH_KNOTS((3,3),(0.00000000000000000E0,1.00000000000000000E0),.UNSPECIFIED.)CURVE()GEOMETRIC_REPRESENTATION_ITEM()RATIONAL_B_SPLINE_CURVE((1.00000000000000000E0,7.07106781186547573E-1,1.00000000000000000E0))REPRESENTATION_ITEM(''));
#370=DEFINITIONAL_REPRESENTATION('',(#369),#187);
#371=PCURVE('',#93,#370);
#372=CARTESIAN_POINT('',(0.00000000000000000E0,5.25000000000000022E-1));
#373=CARTESIAN_POINT('',(2.00000000000000011E-1,5.25000000000000022E-1));
#374=CARTESIAN_POINT('',(2.00000000000000011E-1,1.25000000000000000E-1));
#375=(BOUNDED_CURVE()B_SPLINE_CURVE(2,(#372,#373,#374),.UNSPECIFIED.,.F.,.F.)B_SPLINE_CURVE_WITH_KNOTS((3,3),(0.00000000000000000E0,1.00000000000000000E0),.UNSPECIFIED.)CURVE()GEOMETRIC_REPRESENTATION_ITEM()RATIONAL_B_SPLINE_CURVE((1.00000000000000000E0,7.07106781186547573E-1,1.00000000000000000E0))REPRESENTATION_ITEM(''));
#376=DEFINITIONAL_REPRESENTATION('',(#375),#187);
#377=PCURVE('',#93,#376);
#378=CARTESIAN_POINT('',(2.00000000000000011E-1,1.25000000000000000E-1));
#379=CARTESIAN_POINT('',(2.00000000000000011E-1,-2.75000000000000022E-1));
#380=CARTESIAN_POINT('',(0.00000000000000000E0,-2.75000000000000022E-1));
#381=(BOUNDED_CURVE()B_SPLINE_CURVE(2,(#378,#379,#380),.UNSPECIFIED.,.F.,.F.)B_SPLINE_CURVE_WITH_KNOTS((3,3),(0.00000000000000000E0,1.00000000000000000E0),.UNSPECIFIED.)CURVE()GEOMETRIC_REPRESENTATION_ITEM()RATIONAL_B_SPLINE_CURVE((1.00000000000000000E0,7.07106781186547573E-1,1.00000000000000000E0))REPRESENTATION_ITEM(''));
#382=DEFINITIONAL_REPRESENTATION('',(#381),#187);
#383=PCURVE('',#93,#382);
#384=CARTESIAN_POINT('',(0.00000000000000000E0,-2.75000000000000022E-1));
#385=CARTESIAN_POINT('',(-2.00000000000000011E-1,-2.75000000000000022E-1));
#386=CARTESIAN_POINT('',(-2.00000000000000011E-1,1.25000000000000000E-1));
#387=(BOUNDED_CURVE()B_SPLINE_CURVE(2,(#384,#385,#386),.UNSPECIFIED.,.F.,.F.)B_SPLINE_CURVE_WITH_KNOTS((3,3),(0.00000000000000000E0,1.00000000000000000E0),.UNSPECIFIED.)CURVE()GEOMETRIC_REPRESENTATION_ITEM()RATIONAL_B_SPLINE_CURVE((1.00000000000000000E0,7.07106781186547573E-1,1.00000000000000000E0))REPRESENTATION_ITEM(''));
#388=DEFINITIONAL_REPRESENTATION('',(#387),#187);
#389=PCURVE('',#93,#388);
#390=CARTESIAN_POINT('',(-2.00000000000000011E-1,1.25000000000000000E-1));
#391=CARTESIAN_POINT('',(-2.00000000000000011E-1,5.25000000000000022E-1));
#392=CARTESIAN_POINT('',(0.00000000000000000E0,5.25000000000000022E-1));
#393=(BOUNDED_CURVE()B_SPLINE_CURVE(2,(#390,#391,#392),.UNSPECIFIED.,.F.,.F.)B_SPLINE_CURVE_WITH_KNOTS((3,3),(0.00000000000000000E0,1.00000000000000000E0),.UNSPECIFIED.)CURVE()GEOMETRIC_REPRESENTATION_ITEM()RATIONAL_B_SPLINE_CURVE((1.00000000000000000E0,7.07106781186547573E-1,1.00000000000000000E0))REPRESENTATION_ITEM(''));
#394=DEFINITIONAL_REPRESENTATION('',(#393),#187);
#395=PCURVE('',#93,#394);
#396=CARTESIAN_POINT('',(0.00000000000000000E0,1.12500000000000000E0));
#397=CARTESIAN_POINT('',(-5.00000000000000000E-1,1.12500000000000000E0));
#398=CARTESIAN_POINT('',(-5.00000000000000000E-1,1.25000000000000000E-1));
#399=(BOUNDED_CURVE()B_SPLINE_CURVE(2,(#396,#397,#398),.UNSPECIFIED.,.F.,.F.)B_SPLINE_CURVE_WITH_KNOTS((3,3),(0.00000000000000000E0,1.00000000000000000E0),.UNSPECIFIED.)CURVE()GEOMETRIC_REPRESENTATION_ITEM()RATIONAL_B_SPLINE_CURVE((1.00000000000000000E0,7.07106781186547573E-1,1.00000000000000000E0))REPRESENTATION_ITEM(''));
#400=DEFINITIONAL_REPRESENTATION('',(#399),#187);
#401=PCURVE('',#98,#400);
#402=CARTESIAN_POINT('',(-5.00000000000000000E-1,1.25000000000000000E-1));
#403=CARTESIAN_POINT('',(-5.00000000000000000E-1,-8.75000000000000000E-1));
#404=CARTESIAN_POINT('',(0.00000000000000000E0,-8.75000000000000000E-1));
#405=(BOUNDED_CURVE()B_SPLINE_CURVE(2,(#402,#403,#404),.UNSPECIFIED.,.F.,.F.)B_SPLINE_CURVE_WITH_KNOTS((3,3),(0.00000000000000000E0,1.00000000000000000E0),.UNSPECIFIED.)CURVE()GEOMETRIC_REPRESENTATION_ITEM()RATIONAL_B_SPLINE_CURVE((1.00000000000000000E0,7.07106781186547573E-1,1.00000000000000000E0))REPRESENTATION_ITEM(''));
#406=DEFINITIONAL_REPRESENTATION('',(#405),#187);
#407=PCURVE('',#98,#406);
#408=CARTESIAN_POINT('',(0.00000000000000000E0,-8.75000000000000000E-1));
#409=CARTESIAN_POINT('',(5.00000000000000000E-1,-8.75000000000000000E-1));
#410=CARTESIAN_POINT('',(5.00000000000000000E-1,1.25000000000000000E-1));
#411=(BOUNDED_CURVE()B_SPLINE_CURVE(2,(#408,#409,#410),.UNSPECIFIED.,.F.,.F.)B_SPLINE_CURVE_WITH_KNOTS((3,3),(0.00000000000000000E0,1.00000000000000000E0),.UNSPECIFIED.)CURVE()GEOMETRIC_REPRESENTATION_ITEM()RATIONAL_B_SPLINE_CURVE((1.00000000000000000E0,7.07106781186547573E-1,1.00000000000000000E0))REPRESENTATION_ITEM(''));
#412=DEFINITIONAL_REPRESENTATION('',(#411),#187);
#413=PCURVE('',#98,#412);
#414=CARTESIAN_POINT('',(5.00000000000000000E-1,1.25000000000000000E-1));
#415=CARTESIAN_POINT('',(5.00000000000000000E-1,1.12500000000000000E0));
#416=CARTESIAN_POINT('',(0.00000000000000000E0,1.12500000000000000E0));
#417=(BOUNDED_CURVE()B_SPLINE_CURVE(2,(#414,#415,#416),.UNSPECIFIED.,.F.,.F.)B_SPLINE_CURVE_WITH_KNOTS((3,3),(0.00000000000000000E0,1.00000000000000000E0),.UNSPECIFIED.)CURVE()GEOMETRIC_REPRESENTATION_ITEM()RATIONAL_B_SPLINE_CURVE((1.00000000000000000E0,7.07106781186547573E-1,1.00000000000000000E0))REPRESENTATION_ITEM(''));
#418=DEFINITIONAL_REPRESENTATION('',(#417),#187);
#419=PCURVE('',#98,#418);
#420=CARTESIAN_POINT('',(0.00000000000000000E0,5.25000000000000022E-1));
#421=CARTESIAN_POINT('',(2.00000000000000011E-1,5.25000000000000022E-1));
#422=CARTESIAN_POINT('',(2.00000000000000011E-1,1.25000000000000000E-1));
#423=(BOUNDED_CURVE()B_SPLINE_CURVE(2,(#420,#421,#422),.UNSPECIFIED.,.F.,.F.)B_SPLINE_CURVE_WITH_KNOTS((3,3),(0.00000000000000000E0,1.00000000000000000E0),.UNSPECIFIED.)CURVE()GEOMETRIC_REPRESENTATION_ITEM()RATIONAL_B_SPLINE_CURVE((1.00000000000000000E0,7.07106781186547573E-1,1.00000000000000000E0))REPRESENTATION_ITEM(''));
#424=DEFINITIONAL_REPRESENTATION('',(#423),#187);
#425=PCURVE('',#98,#424);
#426=CARTESIAN_POINT('',(2.00000000000000011E-1,1.25000000000000000E-1));
#427=CARTESIAN_POINT('',(2.00000000000000011E-1,-2.75000000000000022E-1));
#428=CARTESIAN_POINT('',(0.00000000000000000E0,-2.75000000000000022E-1));
#429=(BOUNDED_CURVE()B_SPLINE_CURVE(2,(#426,#427,#428),.UNSPECIFIED.,.F.,.F.)B_SPLINE_CURVE_WITH_KNOTS((3,3),(0.00000000000000000E0,1.00000000000000000E0),.UNSPECIFIED.)CURVE()GEOMETRIC_REPRESENTATION_ITEM()RATIONAL_B_SPLINE_CURVE((1.00000000000000000E0,7.07106781186547573E-1,1.00000000000000000E0))REPRESENTATION_ITEM(''));
#430=DEFINITIONAL_REPRESENTATION('',(#429),#187);
#431=PCURVE('',#98,#430);
#432=CARTESIAN_POINT('',(0.00000000000000000E0,-2.75000000000000022E-1));
#433=CARTESIAN_POINT('',(-2.00000000000000011E-1,-2.75000000000000022E-1));
#434=CARTESIAN_POINT('',(-2.00000000000000011E-1,1.25000000000000000E-1));
#435=(BOUNDED_CURVE()B_SPLINE_CURVE(2,(#432,#433,#434),.UNSPECIFIED.,.F.,.F.)B_SPLINE_CURVE_WITH_KNOTS((3,3),(0.00000000000000000E0,1.00000000000000000E0),.UNSPECIFIED.)CURVE()GEOMETRIC_REPRESENTATION_ITEM()RATIONAL_B_SPLINE_CURVE((1.00000000000000000E0,7.07106781186547573E-1,1.00000000000000000E0))REPRESENTATION_ITEM(''));
#436=DEFINITIONAL_REPRESENTATION('',(#435),#187);
#437=PCURVE('',#98,#436);
#438=CARTESIAN_POINT('',(-2.00000000000000011E-1,1.25000000000000000E-1));
#439=CARTESIAN_POINT('',(-2.00000000000000011E-1,5.25000000000000022E-1));
#440=CARTESIAN_POINT('',(0.00000000000000000E0,5.25000000000000022E-1));
#441=(BOUNDED_CURVE()B_SPLINE_CURVE(2,(#438,#439,#440),.UNSPECIFIED.,.F.,.F.)B_SPLINE_CURVE_WITH_KNOTS((3,3),(0.00000000000000000E0,1.00000000000000000E0),.UNSPECIFIED.)CURVE()GEOMETRIC_REPRESENTATION_ITEM()RATIONAL_B_SPLINE_CURVE((1.00000000000000000E0,7.07106781186547573E-1,1.00000000000000000E0))REPRESENTATION_ITEM(''));
#442=DEFINITIONAL_REPRESENTATION('',(#441),#187);
#443=PCURVE('',#98,#442);
#444=SURFACE_CURVE('',#102,(#192,#371),.PCURVE_S1.);
#445=EDGE_CURVE('OSCAD_TOPO/3|edge|e:b1ac209c6669425b5e2ec60b02df6b49|9e4d52fed453311e2581ed667b6d077501e1ead36933158ee242d312f198f507',#2,#4,#444,.T.);
#446=SURFACE_CURVE('',#105,(#197,#227),.PCURVE_S1.);
#447=EDGE_CURVE('OSCAD_TOPO/3|edge|e:c9d55e8dfb58c219a952941d4c085f56|56c0a6ee3fe66c3d433dd74b1022404168ee09bbe68a5c8cdc701a90090918e4',#4,#20,#446,.T.);
#448=SURFACE_CURVE('',#109,(#202,#401),.PCURVE_S1.);
#449=EDGE_CURVE('OSCAD_TOPO/3|edge|e:3c2794a086e6db1eb8365bc0c5faba05|ccde102d34a1ace6135acb445c88833ddee773cc022a3187aab5d255e6dfee39',#18,#20,#448,.T.);
#450=SURFACE_CURVE('',#112,(#207,#257),.PCURVE_S1.);
#451=EDGE_CURVE('OSCAD_TOPO/3|edge|e:3a4356b0e5598d738cd8120144dc4781|d8be2d4fb782bb7ba07a239415bd973005f5150a96174f8529e36eded3551629',#2,#18,#450,.T.);
#452=SURFACE_CURVE('',#116,(#212,#365),.PCURVE_S1.);
#453=EDGE_CURVE('OSCAD_TOPO/3|edge|e:4990199625d8cbdb5afbf838c6d74b6f|6efe54e3c104c9d926a7e898813c29fc21cd16e72e96cd76e95667141925f736',#4,#6,#452,.T.);
#454=SURFACE_CURVE('',#119,(#217,#247),.PCURVE_S1.);
#455=EDGE_CURVE('OSCAD_TOPO/3|edge|e:67fd4266fc7f208e2bd3890b2eb096d7|4d15b273ffecde5e7f0e8916dcb97ec7858e3942e327e8ff571142e345d51380',#6,#22,#454,.T.);
#456=SURFACE_CURVE('',#123,(#222,#407),.PCURVE_S1.);
#457=EDGE_CURVE('OSCAD_TOPO/3|edge|e:60e110c23de329e3dd9ad7db0a33076b|308df60472250bb0bcf9f2f84a960182a59d09d0915709f6f8b7fa2f25f3a650',#20,#22,#456,.T.);
#458=SURFACE_CURVE('',#127,(#232,#359),.PCURVE_S1.);
#459=EDGE_CURVE('OSCAD_TOPO/3|edge|e:ed5cd4956990464c5814224bf1a3950c|83a8708411be9f95c63dad11beb3fd6ace6684080c9fb35cae46513cf1b04e7d',#6,#8,#458,.T.);
#460=SURFACE_CURVE('',#130,(#237,#267),.PCURVE_S1.);
#461=EDGE_CURVE('OSCAD_TOPO/3|edge|e:526931e59421350269959929dc160fa4|8ff7d5388c1596addb53db448b6ea79a860903a228735743cf51e62b21269ced',#8,#24,#460,.T.);
#462=SURFACE_CURVE('',#134,(#242,#413),.PCURVE_S1.);
#463=EDGE_CURVE('OSCAD_TOPO/3|edge|e:bb609a1f8b20bdf0c1764afc7b7379ef|92031a8c12e2b7167c1feabbb34479cc0d98371ab16003f598823ce8193b01a2',#22,#24,#462,.T.);
#464=SURFACE_CURVE('',#138,(#252,#353),.PCURVE_S1.);
#465=EDGE_CURVE('OSCAD_TOPO/3|edge|e:bd8ece91dce2d12f7da82328d49c89d6|af2cdf8f5e670a8830a79e3b602bffee47b5fdd531e479b4099c080c61496bcd',#2,#8,#464,.T.);
#466=SURFACE_CURVE('',#142,(#262,#419),.PCURVE_S1.);
#467=EDGE_CURVE('OSCAD_TOPO/3|edge|e:86f4d8f6f5131e08d09687f07b165d3e|e3af2cf599f407bb77e3e16cb81935e2d6c13265fe4961186865976a0466c42f',#18,#24,#466,.T.);
#468=SURFACE_CURVE('',#146,(#272,#395),.PCURVE_S1.);
#469=EDGE_CURVE('OSCAD_TOPO/3|edge|e:a0abbc28caaaf5be0e6e1851ebe149d8|8abb3d560fd17ab3e08764dc41859e488e715d173248deb94c28be37a4ab3b35',#10,#12,#468,.T.);
#470=SURFACE_CURVE('',#149,(#277,#307),.PCURVE_S1.);
#471=EDGE_CURVE('OSCAD_TOPO/3|edge|e:e6ce288e4492edeae7f5ae833cac18a5|ac832d608d02aa64a599f4641da1b6e9dc8b73490b610e806d695bcb49e64322',#12,#28,#470,.T.);
#472=SURFACE_CURVE('',#153,(#282,#425),.PCURVE_S1.);
#473=EDGE_CURVE('OSCAD_TOPO/3|edge|e:59adbbce69957d39a3f3ff077099a270|2f7d8dc70561f7b803f2c94dc90c7831b52013a1041fb780bb970513fdb48d26',#26,#28,#472,.T.);
#474=SURFACE_CURVE('',#156,(#287,#337),.PCURVE_S1.);
#475=EDGE_CURVE('OSCAD_TOPO/3|edge|e:e1199d2d06e52c69b2b6a2c64b9fab70|b1d008524da41ac764694f40d03dce3f845cf482ed05e69cd79de4804abd3e84',#10,#26,#474,.T.);
#476=SURFACE_CURVE('',#160,(#292,#389),.PCURVE_S1.);
#477=EDGE_CURVE('OSCAD_TOPO/3|edge|e:e84b8b3898cdf2e11db764c7fb940f54|9f9c9429418eb56bea0fa85e8284e696bc0888985e30bf7160888c8eadee2701',#12,#14,#476,.T.);
#478=SURFACE_CURVE('',#163,(#297,#327),.PCURVE_S1.);
#479=EDGE_CURVE('OSCAD_TOPO/3|edge|e:a541fd48f4e83762f76f91198ec703fe|f423d06e1aba76e8f663a6be0d0793fabcc21e3a0892532dadc093286aead7b4',#14,#30,#478,.T.);
#480=SURFACE_CURVE('',#167,(#302,#431),.PCURVE_S1.);
#481=EDGE_CURVE('OSCAD_TOPO/3|edge|e:59671fd2f8a427e7f50dc87288c3e11d|0719c526b667314b5a12e84ddb6b2062dff5238d2faee77541dfc60a562d73ed',#28,#30,#480,.T.);
#482=SURFACE_CURVE('',#171,(#312,#383),.PCURVE_S1.);
#483=EDGE_CURVE('OSCAD_TOPO/3|edge|e:0ed35d836b41219826e7ea74199894e1|21568d3b3de6573f700823666b520f02f1449a505dd3a132769778d6ec46bd80',#14,#16,#482,.T.);
#484=SURFACE_CURVE('',#174,(#317,#347),.PCURVE_S1.);
#485=EDGE_CURVE('OSCAD_TOPO/3|edge|e:240add674d8dc0c9f6caa4f007250217|64cf93b6f81cb4fdbaef7f0441006a4be71db75b1a5d1710b7a80d2103ea7b7d',#16,#32,#484,.T.);
#486=SURFACE_CURVE('',#178,(#322,#437),.PCURVE_S1.);
#487=EDGE_CURVE('OSCAD_TOPO/3|edge|e:5a20f22a2d31675f2196eba9de2a56dc|17bd68ed8729257d15d94b8f6fb19ed6242d735676530c9921fb7bcf2d52159a',#30,#32,#486,.T.);
#488=SURFACE_CURVE('',#182,(#332,#377),.PCURVE_S1.);
#489=EDGE_CURVE('OSCAD_TOPO/3|edge|e:e9223e8a86a639fe301e5b8d9484ccb0|79683f7cbd6e5056574e80ae1e5cfd04eb8c0e496a6f450324b0060c2a1965f5',#10,#16,#488,.T.);
#490=SURFACE_CURVE('',#186,(#342,#443),.PCURVE_S1.);
#491=EDGE_CURVE('OSCAD_TOPO/3|edge|e:c3d1265bfe4f27ff52c6fb204254a1ea|3a093e7635e4a7f0cdb07f960e2869fca62d3fdf0b235822c8fd51fd3c55f1ba',#26,#32,#490,.T.);
#492=ORIENTED_EDGE('',*,*,#445,.T.);
#493=ORIENTED_EDGE('',*,*,#447,.T.);
#494=ORIENTED_EDGE('',*,*,#449,.F.);
#495=ORIENTED_EDGE('',*,*,#451,.F.);
#496=EDGE_LOOP('OSCAD_TOPO/3|loop|l:31e033910a363b1f7a2226bd365d1acb|a92dbc3b43dd3a7dbcb6689ad63ddf35fc365ebc2230cb32c5285321c836e547',(#492,#493,#494,#495));
#497=ORIENTED_EDGE('',*,*,#453,.T.);
#498=ORIENTED_EDGE('',*,*,#455,.T.);
#499=ORIENTED_EDGE('',*,*,#457,.F.);
#500=ORIENTED_EDGE('',*,*,#447,.F.);
#501=EDGE_LOOP('OSCAD_TOPO/3|loop|l:296308c62398f8630694082b05e0373d|4ee89b62970c6199c784baab75032d54a51ff1e496bb4d65a39194cb41222064',(#497,#498,#499,#500));
#502=ORIENTED_EDGE('',*,*,#459,.T.);
#503=ORIENTED_EDGE('',*,*,#461,.T.);
#504=ORIENTED_EDGE('',*,*,#463,.F.);
#505=ORIENTED_EDGE('',*,*,#455,.F.);
#506=EDGE_LOOP('OSCAD_TOPO/3|loop|l:5526af2fc4a4a110c39050242b7f496e|705c925711ad87b9f4da0b88cae7385f51167abbcfe6311be148f90f79d689d3',(#502,#503,#504,#505));
#507=ORIENTED_EDGE('',*,*,#465,.F.);
#508=ORIENTED_EDGE('',*,*,#451,.T.);
#509=ORIENTED_EDGE('',*,*,#467,.T.);
#510=ORIENTED_EDGE('',*,*,#461,.F.);
#511=EDGE_LOOP('OSCAD_TOPO/3|loop|l:ca21e422444329c43abb865eac153b9a|f69699e183da0209321fb0c3da28050cfea945ee637854554045043427862ab8',(#507,#508,#509,#510));
#512=ORIENTED_EDGE('',*,*,#469,.T.);
#513=ORIENTED_EDGE('',*,*,#471,.T.);
#514=ORIENTED_EDGE('',*,*,#473,.F.);
#515=ORIENTED_EDGE('',*,*,#475,.F.);
#516=EDGE_LOOP('OSCAD_TOPO/3|loop|l:528b3417b0df301c2017317838c7e788|ae916d9bae67fe89aec241c3061641c99650a1c234d977669785e9a2a19cd6ea',(#512,#513,#514,#515));
#517=ORIENTED_EDGE('',*,*,#477,.T.);
#518=ORIENTED_EDGE('',*,*,#479,.T.);
#519=ORIENTED_EDGE('',*,*,#481,.F.);
#520=ORIENTED_EDGE('',*,*,#471,.F.);
#521=EDGE_LOOP('OSCAD_TOPO/3|loop|l:ed5ca85bc06183bd9f4fe570629cd3f1|084ec994c93369c2e00565bf4ccb244beabbc64aedc5f2c2a1fc43b823e22118',(#517,#518,#519,#520));
#522=ORIENTED_EDGE('',*,*,#483,.T.);
#523=ORIENTED_EDGE('',*,*,#485,.T.);
#524=ORIENTED_EDGE('',*,*,#487,.F.);
#525=ORIENTED_EDGE('',*,*,#479,.F.);
#526=EDGE_LOOP('OSCAD_TOPO/3|loop|l:46a744d8b8d517f2c4b23adcb775ba8b|c5f77e7653d2eceb2972adaa9184a2043d5405af5467cfb8378c8247b66b54eb',(#522,#523,#524,#525));
#527=ORIENTED_EDGE('',*,*,#489,.F.);
#528=ORIENTED_EDGE('',*,*,#475,.T.);
#529=ORIENTED_EDGE('',*,*,#491,.T.);
#530=ORIENTED_EDGE('',*,*,#485,.F.);
#531=EDGE_LOOP('OSCAD_TOPO/3|loop|l:82c734a089c70b47d39e59f3b5480b9c|5e467a3bb2823dff248659dd546073c0947b48a20b56a7f557f543dd44f2bc67',(#527,#528,#529,#530));
#532=ORIENTED_EDGE('',*,*,#465,.T.);
#533=ORIENTED_EDGE('',*,*,#459,.F.);
#534=ORIENTED_EDGE('',*,*,#453,.F.);
#535=ORIENTED_EDGE('',*,*,#445,.F.);
#536=EDGE_LOOP('OSCAD_TOPO/3|loop|l:c48251b1a07363bd3964b4786701a116|aaabb65744053968f13aecbf213ef9510f5cee6e1823e03e8cdf9f6701d4310e',(#532,#533,#534,#535));
#537=ORIENTED_EDGE('',*,*,#489,.T.);
#538=ORIENTED_EDGE('',*,*,#483,.F.);
#539=ORIENTED_EDGE('',*,*,#477,.F.);
#540=ORIENTED_EDGE('',*,*,#469,.F.);
#541=EDGE_LOOP('OSCAD_TOPO/3|loop|l:0689e41b861b6704d38c25cf343a015e|412ceb44155623e8bc767f77662d1dc42aa9f5a3f7b0dcc5dc45f586c77b64c4',(#537,#538,#539,#540));
#542=ORIENTED_EDGE('',*,*,#449,.T.);
#543=ORIENTED_EDGE('',*,*,#457,.T.);
#544=ORIENTED_EDGE('',*,*,#463,.T.);
#545=ORIENTED_EDGE('',*,*,#467,.F.);
#546=EDGE_LOOP('OSCAD_TOPO/3|loop|l:b6dbb2af56ff58c868ffdbd7e2422d6b|a3e4ce53e7923e3168387b02fbdd1b36c48b556dc7bad2825e731e866cc83d64',(#542,#543,#544,#545));
#547=ORIENTED_EDGE('',*,*,#473,.T.);
#548=ORIENTED_EDGE('',*,*,#481,.T.);
#549=ORIENTED_EDGE('',*,*,#487,.T.);
#550=ORIENTED_EDGE('',*,*,#491,.F.);
#551=EDGE_LOOP('OSCAD_TOPO/3|loop|l:161fd45e3d2cf7ea40c5236a3542bf16|54f03e19cb6808161df899ac01330867ead57dbb97aba6c49034cd492a51d982',(#547,#548,#549,#550));
#552=FACE_OUTER_BOUND('',#496,.T.);
#553=ADVANCED_FACE('OSCAD_TOPO/3|face|f:6217834e253995affb5d346bb029a5f2|91c0f5b88e52edf20c30c986514479118922dcf8d3d0046b400c230b5ec5ba7b',(#552),#39,.T.);
#554=FACE_OUTER_BOUND('',#501,.T.);
#555=ADVANCED_FACE('OSCAD_TOPO/3|face|f:ab6e373061a1693b34bf4b417ed81307|b356cf60c32b12ee6912f00b6295789a9454a92246122dc1a839c620ecc277a2',(#554),#46,.T.);
#556=FACE_OUTER_BOUND('',#506,.T.);
#557=ADVANCED_FACE('OSCAD_TOPO/3|face|f:917d8c5d6bb812bcd43cef96c69363e4|6dbd6dfdf3a2a730aa6293ca1e976c24bf7112febe6aa06ffb8a71c5dfb322c6',(#556),#53,.T.);
#558=FACE_OUTER_BOUND('',#511,.T.);
#559=ADVANCED_FACE('OSCAD_TOPO/3|face|f:4f28d55624bd24b37900726574840b78|2254dc569f3bc0a2927ead9d248c1b2ab0a7485487d001da617b65765e77d545',(#558),#60,.T.);
#560=FACE_OUTER_BOUND('',#516,.T.);
#561=ADVANCED_FACE('OSCAD_TOPO/3|face|f:8ab333d520907e7ae386ac0f13f31448|a22fc53f83c20ffd273891ca52097f2d581306d0876cb7bc7cab55b3ef661ed3',(#560),#67,.T.);
#562=FACE_OUTER_BOUND('',#521,.T.);
#563=ADVANCED_FACE('OSCAD_TOPO/3|face|f:5f2183b11a1d3c0a1580d9db3911e38f|373bf6403afa6cd347cb81d98ebd5ce7546d975b720c8f46358bd36ff9092d60',(#562),#74,.T.);
#564=FACE_OUTER_BOUND('',#526,.T.);
#565=ADVANCED_FACE('OSCAD_TOPO/3|face|f:f21555c61eb4f7e23a84e46486567fc7|b7dc50a5a0e9eadf8da3d4a5f617d9032d1fd0d4bb191096881531c4547ab7ed',(#564),#81,.T.);
#566=FACE_OUTER_BOUND('',#531,.T.);
#567=ADVANCED_FACE('OSCAD_TOPO/3|face|f:debf1d55d0dda5a93e50e13a02e3038c|03aa9515e869d4529efcfc780b14bd49c38360cfca49b024e6a1bf7fa2ad68f2',(#566),#88,.T.);
#568=FACE_OUTER_BOUND('',#536,.T.);
#569=FACE_BOUND('',#541,.T.);
#570=ADVANCED_FACE('OSCAD_TOPO/3|face|f:025c6e171e0ec1d697dadf0a1b126a6d|8a54ac62c00f9e0c2414ca6f4245a126b670967948aca477f1bf7281ce2106f5',(#568,#569),#93,.T.);
#571=FACE_OUTER_BOUND('',#546,.T.);
#572=FACE_BOUND('',#551,.T.);
#573=ADVANCED_FACE('OSCAD_TOPO/3|face|f:4b4eae48258660b33a78251df9901f26|84bb2d96a7ad144cd0cdfdc545380a6cdf864070a863ffc248f0e15e423444ed',(#571,#572),#98,.T.);
#574=CLOSED_SHELL('OSCAD_TOPO/3|shell|s:1fdc34cf5099caf3b583a227d8a237cf|e09580156f6067abc21412cc40a41c5dc9408db364a693f6f2951ccbdcc1581c',(#553,#555,#557,#559,#561,#563,#565,#567,#570,#573));
#575=MANIFOLD_SOLID_BREP('OSCAD_TOPO/3|body|b:a1df16d2af2c998a3663d63bdf0706df|773b6dc4ffa9f9fb81d50b18bf6bce10a2c0b818149e69d86d6ae49efd65195d',#574);
#576=(LENGTH_UNIT()NAMED_UNIT(*)SI_UNIT(.MILLI.,.METRE.));
#577=UNCERTAINTY_MEASURE_WITH_UNIT(LENGTH_MEASURE(9.99999999999999955E-8),#576,'distance_accuracy_value','');
#578=(GEOMETRIC_REPRESENTATION_CONTEXT(3)GLOBAL_UNCERTAINTY_ASSIGNED_CONTEXT((#577))GLOBAL_UNIT_ASSIGNED_CONTEXT((#576))REPRESENTATION_CONTEXT('','3D'));
#579=ADVANCED_BREP_SHAPE_REPRESENTATION('',(#575),#578);
#580=APPLICATION_CONTEXT('managed model based 3d engineering');
#581=PRODUCT_CONTEXT('',#580,'mechanical');
#582=PRODUCT('model','model','',(#581));
#583=PRODUCT_DEFINITION_FORMATION('1','',#582);
#584=PRODUCT_DEFINITION_CONTEXT('part definition',#580,'design');
#585=PRODUCT_DEFINITION('design','',#583,#584);
#586=PRODUCT_DEFINITION_SHAPE('','',#585);
#587=SHAPE_DEFINITION_REPRESENTATION(#586,#579);
ENDSEC;
END-ISO-10303-21;
