ISO-10303-21;
HEADER;
FILE_DESCRIPTION(('OpenSCAD Viewer retained AP242 B-rep'),'2;1');
FILE_NAME('model.step','',(''),(''),'OpenSCAD Viewer','OpenSCAD Viewer','');
FILE_SCHEMA(('AP242_MANAGED_MODEL_BASED_3D_ENGINEERING_MIM_LF'));
ENDSEC;
DATA;
#1=CARTESIAN_POINT('',(-1.00000000000000000E1,-1.33291901444365699E1,5.27425243020165269E0));
#2=VERTEX_POINT('OSCAD_TOPO/3|vertex|v:c134eff8850766e34d756294a432ffaa|394be441600768a7171a6bdc21f2d3773999cabd1dfcaddb5823146d70b43c05',#1);
#3=CARTESIAN_POINT('',(1.00000000000000000E1,-1.33291901444365699E1,5.27425243020165269E0));
#4=VERTEX_POINT('OSCAD_TOPO/3|vertex|v:c098c62c662ca095521f30393d538e62|e7325f8becadfe7d0b2c036ab3e99faf54a608f90463970210305e6ab35bb3f0',#3);
#5=CARTESIAN_POINT('',(1.00000000000000000E1,4.72574756979834731E0,-3.32919014443656991E0));
#6=VERTEX_POINT('OSCAD_TOPO/3|vertex|v:a7c318a24a2ed8be495f614388a236f6|d971eebd5f9390c2864125ed55120a3b01a4d81a5752996d81dc990cc7bd0f3c',#5);
#7=CARTESIAN_POINT('',(-1.00000000000000000E1,4.72574756979834731E0,-3.32919014443656991E0));
#8=VERTEX_POINT('OSCAD_TOPO/3|vertex|v:3d8ce6715d95656886df9bf3947b019f|b9505ce147c194918ca46a59a286deb6e26b53118cb542bbb743c618f58e4943',#7);
#9=CARTESIAN_POINT('',(-1.00000000000000000E1,-4.72574756979834731E0,2.33291901444365699E1));
#10=VERTEX_POINT('OSCAD_TOPO/3|vertex|v:6e4dbcb7a7b10aec9795c66461c2b40c|7ae1272ca719c4fc37026413f86133dcb555b81ac8212100342ff8c7c20727bb',#9);
#11=CARTESIAN_POINT('',(1.00000000000000000E1,-4.72574756979834731E0,2.33291901444365699E1));
#12=VERTEX_POINT('OSCAD_TOPO/3|vertex|v:5f73bf3a2e3384b21cd6df0154cd3282|db58cd622e9c2c21754d1e9e4ea3ac0e64eab5d961c970b5668efd13a74ee9e8',#11);
#13=CARTESIAN_POINT('',(1.00000000000000000E1,1.33291901444365699E1,1.47257475697983473E1));
#14=VERTEX_POINT('OSCAD_TOPO/3|vertex|v:bebaeef6d79f069ca46cc61d6f7c061c|67e566549841893e9aebf56cbff75bca5ae11b37b84b634b3c01499efe1ed6af',#13);
#15=CARTESIAN_POINT('',(-1.00000000000000000E1,1.33291901444365699E1,1.47257475697983473E1));
#16=VERTEX_POINT('OSCAD_TOPO/3|vertex|v:8e96d34e675862c75a3020107ce74e8b|3c453690527b9dcf1a501d7e84ec30495c82ad1d54132f2aed2f02f98812e985',#15);
#17=CARTESIAN_POINT('',(-1.00000000000000000E1,-1.33291901444365699E1,5.27425243020165269E0));
#18=CARTESIAN_POINT('',(1.00000000000000000E1,-1.33291901444365699E1,5.27425243020165269E0));
#19=CARTESIAN_POINT('',(-1.00000000000000000E1,4.72574756979834731E0,-3.32919014443656991E0));
#20=CARTESIAN_POINT('',(1.00000000000000000E1,4.72574756979834731E0,-3.32919014443656991E0));
#21=B_SPLINE_SURFACE_WITH_KNOTS('',1,1,((#17,#18),(#19,#20)),.UNSPECIFIED.,.F.,.F.,.F.,(2,2),(2,2),(0.00000000000000000E0,1.00000000000000000E0),(0.00000000000000000E0,1.00000000000000000E0),.UNSPECIFIED.);
#22=CARTESIAN_POINT('',(-1.00000000000000000E1,-4.72574756979834731E0,2.33291901444365699E1));
#23=CARTESIAN_POINT('',(-1.00000000000000000E1,1.33291901444365699E1,1.47257475697983473E1));
#24=CARTESIAN_POINT('',(1.00000000000000000E1,-4.72574756979834731E0,2.33291901444365699E1));
#25=CARTESIAN_POINT('',(1.00000000000000000E1,1.33291901444365699E1,1.47257475697983473E1));
#26=B_SPLINE_SURFACE_WITH_KNOTS('',1,1,((#22,#23),(#24,#25)),.UNSPECIFIED.,.F.,.F.,.F.,(2,2),(2,2),(0.00000000000000000E0,1.00000000000000000E0),(0.00000000000000000E0,1.00000000000000000E0),.UNSPECIFIED.);
#27=CARTESIAN_POINT('',(-1.00000000000000000E1,-1.33291901444365699E1,5.27425243020165269E0));
#28=CARTESIAN_POINT('',(-1.00000000000000000E1,-4.72574756979834731E0,2.33291901444365699E1));
#29=CARTESIAN_POINT('',(1.00000000000000000E1,-1.33291901444365699E1,5.27425243020165269E0));
#30=CARTESIAN_POINT('',(1.00000000000000000E1,-4.72574756979834731E0,2.33291901444365699E1));
#31=B_SPLINE_SURFACE_WITH_KNOTS('',1,1,((#27,#28),(#29,#30)),.UNSPECIFIED.,.F.,.F.,.F.,(2,2),(2,2),(0.00000000000000000E0,1.00000000000000000E0),(0.00000000000000000E0,1.00000000000000000E0),.UNSPECIFIED.);
#32=CARTESIAN_POINT('',(1.00000000000000000E1,-1.33291901444365699E1,5.27425243020165269E0));
#33=CARTESIAN_POINT('',(1.00000000000000000E1,-4.72574756979834731E0,2.33291901444365699E1));
#34=CARTESIAN_POINT('',(1.00000000000000000E1,4.72574756979834731E0,-3.32919014443656991E0));
#35=CARTESIAN_POINT('',(1.00000000000000000E1,1.33291901444365699E1,1.47257475697983473E1));
#36=B_SPLINE_SURFACE_WITH_KNOTS('',1,1,((#32,#33),(#34,#35)),.UNSPECIFIED.,.F.,.F.,.F.,(2,2),(2,2),(0.00000000000000000E0,1.00000000000000000E0),(0.00000000000000000E0,1.00000000000000000E0),.UNSPECIFIED.);
#37=CARTESIAN_POINT('',(1.00000000000000000E1,4.72574756979834731E0,-3.32919014443656991E0));
#38=CARTESIAN_POINT('',(1.00000000000000000E1,1.33291901444365699E1,1.47257475697983473E1));
#39=CARTESIAN_POINT('',(-1.00000000000000000E1,4.72574756979834731E0,-3.32919014443656991E0));
#40=CARTESIAN_POINT('',(-1.00000000000000000E1,1.33291901444365699E1,1.47257475697983473E1));
#41=B_SPLINE_SURFACE_WITH_KNOTS('',1,1,((#37,#38),(#39,#40)),.UNSPECIFIED.,.F.,.F.,.F.,(2,2),(2,2),(0.00000000000000000E0,1.00000000000000000E0),(0.00000000000000000E0,1.00000000000000000E0),.UNSPECIFIED.);
#42=CARTESIAN_POINT('',(-1.00000000000000000E1,4.72574756979834731E0,-3.32919014443656991E0));
#43=CARTESIAN_POINT('',(-1.00000000000000000E1,1.33291901444365699E1,1.47257475697983473E1));
#44=CARTESIAN_POINT('',(-1.00000000000000000E1,-1.33291901444365699E1,5.27425243020165269E0));
#45=CARTESIAN_POINT('',(-1.00000000000000000E1,-4.72574756979834731E0,2.33291901444365699E1));
#46=B_SPLINE_SURFACE_WITH_KNOTS('',1,1,((#42,#43),(#44,#45)),.UNSPECIFIED.,.F.,.F.,.F.,(2,2),(2,2),(0.00000000000000000E0,1.00000000000000000E0),(0.00000000000000000E0,1.00000000000000000E0),.UNSPECIFIED.);
#47=CARTESIAN_POINT('',(-1.00000000000000000E1,-1.33291901444365699E1,5.27425243020165269E0));
#48=CARTESIAN_POINT('',(-1.00000000000000000E1,4.72574756979834731E0,-3.32919014443656991E0));
#49=B_SPLINE_CURVE_WITH_KNOTS('',1,(#47,#48),.UNSPECIFIED.,.F.,.F.,(2,2),(0.00000000000000000E0,1.00000000000000000E0),.UNSPECIFIED.);
#50=CARTESIAN_POINT('',(1.00000000000000000E1,4.72574756979834731E0,-3.32919014443656991E0));
#51=CARTESIAN_POINT('',(-1.00000000000000000E1,4.72574756979834731E0,-3.32919014443656991E0));
#52=B_SPLINE_CURVE_WITH_KNOTS('',1,(#50,#51),.UNSPECIFIED.,.F.,.F.,(2,2),(0.00000000000000000E0,1.00000000000000000E0),.UNSPECIFIED.);
#53=CARTESIAN_POINT('',(1.00000000000000000E1,-1.33291901444365699E1,5.27425243020165269E0));
#54=CARTESIAN_POINT('',(1.00000000000000000E1,4.72574756979834731E0,-3.32919014443656991E0));
#55=B_SPLINE_CURVE_WITH_KNOTS('',1,(#53,#54),.UNSPECIFIED.,.F.,.F.,(2,2),(0.00000000000000000E0,1.00000000000000000E0),.UNSPECIFIED.);
#56=CARTESIAN_POINT('',(-1.00000000000000000E1,-1.33291901444365699E1,5.27425243020165269E0));
#57=CARTESIAN_POINT('',(1.00000000000000000E1,-1.33291901444365699E1,5.27425243020165269E0));
#58=B_SPLINE_CURVE_WITH_KNOTS('',1,(#56,#57),.UNSPECIFIED.,.F.,.F.,(2,2),(0.00000000000000000E0,1.00000000000000000E0),.UNSPECIFIED.);
#59=CARTESIAN_POINT('',(-1.00000000000000000E1,-4.72574756979834731E0,2.33291901444365699E1));
#60=CARTESIAN_POINT('',(1.00000000000000000E1,-4.72574756979834731E0,2.33291901444365699E1));
#61=B_SPLINE_CURVE_WITH_KNOTS('',1,(#59,#60),.UNSPECIFIED.,.F.,.F.,(2,2),(0.00000000000000000E0,1.00000000000000000E0),.UNSPECIFIED.);
#62=CARTESIAN_POINT('',(1.00000000000000000E1,-4.72574756979834731E0,2.33291901444365699E1));
#63=CARTESIAN_POINT('',(1.00000000000000000E1,1.33291901444365699E1,1.47257475697983473E1));
#64=B_SPLINE_CURVE_WITH_KNOTS('',1,(#62,#63),.UNSPECIFIED.,.F.,.F.,(2,2),(0.00000000000000000E0,1.00000000000000000E0),.UNSPECIFIED.);
#65=CARTESIAN_POINT('',(1.00000000000000000E1,1.33291901444365699E1,1.47257475697983473E1));
#66=CARTESIAN_POINT('',(-1.00000000000000000E1,1.33291901444365699E1,1.47257475697983473E1));
#67=B_SPLINE_CURVE_WITH_KNOTS('',1,(#65,#66),.UNSPECIFIED.,.F.,.F.,(2,2),(0.00000000000000000E0,1.00000000000000000E0),.UNSPECIFIED.);
#68=CARTESIAN_POINT('',(-1.00000000000000000E1,-4.72574756979834731E0,2.33291901444365699E1));
#69=CARTESIAN_POINT('',(-1.00000000000000000E1,1.33291901444365699E1,1.47257475697983473E1));
#70=B_SPLINE_CURVE_WITH_KNOTS('',1,(#68,#69),.UNSPECIFIED.,.F.,.F.,(2,2),(0.00000000000000000E0,1.00000000000000000E0),.UNSPECIFIED.);
#71=CARTESIAN_POINT('',(1.00000000000000000E1,-1.33291901444365699E1,5.27425243020165269E0));
#72=CARTESIAN_POINT('',(1.00000000000000000E1,-4.72574756979834731E0,2.33291901444365699E1));
#73=B_SPLINE_CURVE_WITH_KNOTS('',1,(#71,#72),.UNSPECIFIED.,.F.,.F.,(2,2),(0.00000000000000000E0,1.00000000000000000E0),.UNSPECIFIED.);
#74=CARTESIAN_POINT('',(-1.00000000000000000E1,-1.33291901444365699E1,5.27425243020165269E0));
#75=CARTESIAN_POINT('',(-1.00000000000000000E1,-4.72574756979834731E0,2.33291901444365699E1));
#76=B_SPLINE_CURVE_WITH_KNOTS('',1,(#74,#75),.UNSPECIFIED.,.F.,.F.,(2,2),(0.00000000000000000E0,1.00000000000000000E0),.UNSPECIFIED.);
#77=CARTESIAN_POINT('',(1.00000000000000000E1,4.72574756979834731E0,-3.32919014443656991E0));
#78=CARTESIAN_POINT('',(1.00000000000000000E1,1.33291901444365699E1,1.47257475697983473E1));
#79=B_SPLINE_CURVE_WITH_KNOTS('',1,(#77,#78),.UNSPECIFIED.,.F.,.F.,(2,2),(0.00000000000000000E0,1.00000000000000000E0),.UNSPECIFIED.);
#80=CARTESIAN_POINT('',(-1.00000000000000000E1,4.72574756979834731E0,-3.32919014443656991E0));
#81=CARTESIAN_POINT('',(-1.00000000000000000E1,1.33291901444365699E1,1.47257475697983473E1));
#82=B_SPLINE_CURVE_WITH_KNOTS('',1,(#80,#81),.UNSPECIFIED.,.F.,.F.,(2,2),(0.00000000000000000E0,1.00000000000000000E0),.UNSPECIFIED.);
#83=(GEOMETRIC_REPRESENTATION_CONTEXT(2)REPRESENTATION_CONTEXT('','2D'));
#84=CARTESIAN_POINT('',(0.00000000000000000E0,0.00000000000000000E0));
#85=CARTESIAN_POINT('',(1.00000000000000000E0,0.00000000000000000E0));
#86=B_SPLINE_CURVE_WITH_KNOTS('',1,(#84,#85),.UNSPECIFIED.,.F.,.F.,(2,2),(0.00000000000000000E0,1.00000000000000000E0),.UNSPECIFIED.);
#87=DEFINITIONAL_REPRESENTATION('',(#86),#83);
#88=PCURVE('',#21,#87);
#89=CARTESIAN_POINT('',(1.00000000000000000E0,0.00000000000000000E0));
#90=CARTESIAN_POINT('',(1.00000000000000000E0,1.00000000000000000E0));
#91=B_SPLINE_CURVE_WITH_KNOTS('',1,(#89,#90),.UNSPECIFIED.,.F.,.F.,(2,2),(0.00000000000000000E0,1.00000000000000000E0),.UNSPECIFIED.);
#92=DEFINITIONAL_REPRESENTATION('',(#91),#83);
#93=PCURVE('',#21,#92);
#94=CARTESIAN_POINT('',(1.00000000000000000E0,1.00000000000000000E0));
#95=CARTESIAN_POINT('',(0.00000000000000000E0,1.00000000000000000E0));
#96=B_SPLINE_CURVE_WITH_KNOTS('',1,(#94,#95),.UNSPECIFIED.,.F.,.F.,(2,2),(0.00000000000000000E0,1.00000000000000000E0),.UNSPECIFIED.);
#97=DEFINITIONAL_REPRESENTATION('',(#96),#83);
#98=PCURVE('',#21,#97);
#99=CARTESIAN_POINT('',(0.00000000000000000E0,1.00000000000000000E0));
#100=CARTESIAN_POINT('',(0.00000000000000000E0,0.00000000000000000E0));
#101=B_SPLINE_CURVE_WITH_KNOTS('',1,(#99,#100),.UNSPECIFIED.,.F.,.F.,(2,2),(0.00000000000000000E0,1.00000000000000000E0),.UNSPECIFIED.);
#102=DEFINITIONAL_REPRESENTATION('',(#101),#83);
#103=PCURVE('',#21,#102);
#104=CARTESIAN_POINT('',(0.00000000000000000E0,0.00000000000000000E0));
#105=CARTESIAN_POINT('',(1.00000000000000000E0,0.00000000000000000E0));
#106=B_SPLINE_CURVE_WITH_KNOTS('',1,(#104,#105),.UNSPECIFIED.,.F.,.F.,(2,2),(0.00000000000000000E0,1.00000000000000000E0),.UNSPECIFIED.);
#107=DEFINITIONAL_REPRESENTATION('',(#106),#83);
#108=PCURVE('',#26,#107);
#109=CARTESIAN_POINT('',(1.00000000000000000E0,0.00000000000000000E0));
#110=CARTESIAN_POINT('',(1.00000000000000000E0,1.00000000000000000E0));
#111=B_SPLINE_CURVE_WITH_KNOTS('',1,(#109,#110),.UNSPECIFIED.,.F.,.F.,(2,2),(0.00000000000000000E0,1.00000000000000000E0),.UNSPECIFIED.);
#112=DEFINITIONAL_REPRESENTATION('',(#111),#83);
#113=PCURVE('',#26,#112);
#114=CARTESIAN_POINT('',(1.00000000000000000E0,1.00000000000000000E0));
#115=CARTESIAN_POINT('',(0.00000000000000000E0,1.00000000000000000E0));
#116=B_SPLINE_CURVE_WITH_KNOTS('',1,(#114,#115),.UNSPECIFIED.,.F.,.F.,(2,2),(0.00000000000000000E0,1.00000000000000000E0),.UNSPECIFIED.);
#117=DEFINITIONAL_REPRESENTATION('',(#116),#83);
#118=PCURVE('',#26,#117);
#119=CARTESIAN_POINT('',(0.00000000000000000E0,1.00000000000000000E0));
#120=CARTESIAN_POINT('',(0.00000000000000000E0,0.00000000000000000E0));
#121=B_SPLINE_CURVE_WITH_KNOTS('',1,(#119,#120),.UNSPECIFIED.,.F.,.F.,(2,2),(0.00000000000000000E0,1.00000000000000000E0),.UNSPECIFIED.);
#122=DEFINITIONAL_REPRESENTATION('',(#121),#83);
#123=PCURVE('',#26,#122);
#124=CARTESIAN_POINT('',(0.00000000000000000E0,0.00000000000000000E0));
#125=CARTESIAN_POINT('',(1.00000000000000000E0,0.00000000000000000E0));
#126=B_SPLINE_CURVE_WITH_KNOTS('',1,(#124,#125),.UNSPECIFIED.,.F.,.F.,(2,2),(0.00000000000000000E0,1.00000000000000000E0),.UNSPECIFIED.);
#127=DEFINITIONAL_REPRESENTATION('',(#126),#83);
#128=PCURVE('',#31,#127);
#129=CARTESIAN_POINT('',(1.00000000000000000E0,0.00000000000000000E0));
#130=CARTESIAN_POINT('',(1.00000000000000000E0,1.00000000000000000E0));
#131=B_SPLINE_CURVE_WITH_KNOTS('',1,(#129,#130),.UNSPECIFIED.,.F.,.F.,(2,2),(0.00000000000000000E0,1.00000000000000000E0),.UNSPECIFIED.);
#132=DEFINITIONAL_REPRESENTATION('',(#131),#83);
#133=PCURVE('',#31,#132);
#134=CARTESIAN_POINT('',(1.00000000000000000E0,1.00000000000000000E0));
#135=CARTESIAN_POINT('',(0.00000000000000000E0,1.00000000000000000E0));
#136=B_SPLINE_CURVE_WITH_KNOTS('',1,(#134,#135),.UNSPECIFIED.,.F.,.F.,(2,2),(0.00000000000000000E0,1.00000000000000000E0),.UNSPECIFIED.);
#137=DEFINITIONAL_REPRESENTATION('',(#136),#83);
#138=PCURVE('',#31,#137);
#139=CARTESIAN_POINT('',(0.00000000000000000E0,1.00000000000000000E0));
#140=CARTESIAN_POINT('',(0.00000000000000000E0,0.00000000000000000E0));
#141=B_SPLINE_CURVE_WITH_KNOTS('',1,(#139,#140),.UNSPECIFIED.,.F.,.F.,(2,2),(0.00000000000000000E0,1.00000000000000000E0),.UNSPECIFIED.);
#142=DEFINITIONAL_REPRESENTATION('',(#141),#83);
#143=PCURVE('',#31,#142);
#144=CARTESIAN_POINT('',(0.00000000000000000E0,0.00000000000000000E0));
#145=CARTESIAN_POINT('',(1.00000000000000000E0,0.00000000000000000E0));
#146=B_SPLINE_CURVE_WITH_KNOTS('',1,(#144,#145),.UNSPECIFIED.,.F.,.F.,(2,2),(0.00000000000000000E0,1.00000000000000000E0),.UNSPECIFIED.);
#147=DEFINITIONAL_REPRESENTATION('',(#146),#83);
#148=PCURVE('',#36,#147);
#149=CARTESIAN_POINT('',(1.00000000000000000E0,0.00000000000000000E0));
#150=CARTESIAN_POINT('',(1.00000000000000000E0,1.00000000000000000E0));
#151=B_SPLINE_CURVE_WITH_KNOTS('',1,(#149,#150),.UNSPECIFIED.,.F.,.F.,(2,2),(0.00000000000000000E0,1.00000000000000000E0),.UNSPECIFIED.);
#152=DEFINITIONAL_REPRESENTATION('',(#151),#83);
#153=PCURVE('',#36,#152);
#154=CARTESIAN_POINT('',(1.00000000000000000E0,1.00000000000000000E0));
#155=CARTESIAN_POINT('',(0.00000000000000000E0,1.00000000000000000E0));
#156=B_SPLINE_CURVE_WITH_KNOTS('',1,(#154,#155),.UNSPECIFIED.,.F.,.F.,(2,2),(0.00000000000000000E0,1.00000000000000000E0),.UNSPECIFIED.);
#157=DEFINITIONAL_REPRESENTATION('',(#156),#83);
#158=PCURVE('',#36,#157);
#159=CARTESIAN_POINT('',(0.00000000000000000E0,1.00000000000000000E0));
#160=CARTESIAN_POINT('',(0.00000000000000000E0,0.00000000000000000E0));
#161=B_SPLINE_CURVE_WITH_KNOTS('',1,(#159,#160),.UNSPECIFIED.,.F.,.F.,(2,2),(0.00000000000000000E0,1.00000000000000000E0),.UNSPECIFIED.);
#162=DEFINITIONAL_REPRESENTATION('',(#161),#83);
#163=PCURVE('',#36,#162);
#164=CARTESIAN_POINT('',(0.00000000000000000E0,0.00000000000000000E0));
#165=CARTESIAN_POINT('',(1.00000000000000000E0,0.00000000000000000E0));
#166=B_SPLINE_CURVE_WITH_KNOTS('',1,(#164,#165),.UNSPECIFIED.,.F.,.F.,(2,2),(0.00000000000000000E0,1.00000000000000000E0),.UNSPECIFIED.);
#167=DEFINITIONAL_REPRESENTATION('',(#166),#83);
#168=PCURVE('',#41,#167);
#169=CARTESIAN_POINT('',(1.00000000000000000E0,0.00000000000000000E0));
#170=CARTESIAN_POINT('',(1.00000000000000000E0,1.00000000000000000E0));
#171=B_SPLINE_CURVE_WITH_KNOTS('',1,(#169,#170),.UNSPECIFIED.,.F.,.F.,(2,2),(0.00000000000000000E0,1.00000000000000000E0),.UNSPECIFIED.);
#172=DEFINITIONAL_REPRESENTATION('',(#171),#83);
#173=PCURVE('',#41,#172);
#174=CARTESIAN_POINT('',(1.00000000000000000E0,1.00000000000000000E0));
#175=CARTESIAN_POINT('',(0.00000000000000000E0,1.00000000000000000E0));
#176=B_SPLINE_CURVE_WITH_KNOTS('',1,(#174,#175),.UNSPECIFIED.,.F.,.F.,(2,2),(0.00000000000000000E0,1.00000000000000000E0),.UNSPECIFIED.);
#177=DEFINITIONAL_REPRESENTATION('',(#176),#83);
#178=PCURVE('',#41,#177);
#179=CARTESIAN_POINT('',(0.00000000000000000E0,1.00000000000000000E0));
#180=CARTESIAN_POINT('',(0.00000000000000000E0,0.00000000000000000E0));
#181=B_SPLINE_CURVE_WITH_KNOTS('',1,(#179,#180),.UNSPECIFIED.,.F.,.F.,(2,2),(0.00000000000000000E0,1.00000000000000000E0),.UNSPECIFIED.);
#182=DEFINITIONAL_REPRESENTATION('',(#181),#83);
#183=PCURVE('',#41,#182);
#184=CARTESIAN_POINT('',(0.00000000000000000E0,0.00000000000000000E0));
#185=CARTESIAN_POINT('',(1.00000000000000000E0,0.00000000000000000E0));
#186=B_SPLINE_CURVE_WITH_KNOTS('',1,(#184,#185),.UNSPECIFIED.,.F.,.F.,(2,2),(0.00000000000000000E0,1.00000000000000000E0),.UNSPECIFIED.);
#187=DEFINITIONAL_REPRESENTATION('',(#186),#83);
#188=PCURVE('',#46,#187);
#189=CARTESIAN_POINT('',(1.00000000000000000E0,0.00000000000000000E0));
#190=CARTESIAN_POINT('',(1.00000000000000000E0,1.00000000000000000E0));
#191=B_SPLINE_CURVE_WITH_KNOTS('',1,(#189,#190),.UNSPECIFIED.,.F.,.F.,(2,2),(0.00000000000000000E0,1.00000000000000000E0),.UNSPECIFIED.);
#192=DEFINITIONAL_REPRESENTATION('',(#191),#83);
#193=PCURVE('',#46,#192);
#194=CARTESIAN_POINT('',(1.00000000000000000E0,1.00000000000000000E0));
#195=CARTESIAN_POINT('',(0.00000000000000000E0,1.00000000000000000E0));
#196=B_SPLINE_CURVE_WITH_KNOTS('',1,(#194,#195),.UNSPECIFIED.,.F.,.F.,(2,2),(0.00000000000000000E0,1.00000000000000000E0),.UNSPECIFIED.);
#197=DEFINITIONAL_REPRESENTATION('',(#196),#83);
#198=PCURVE('',#46,#197);
#199=CARTESIAN_POINT('',(0.00000000000000000E0,1.00000000000000000E0));
#200=CARTESIAN_POINT('',(0.00000000000000000E0,0.00000000000000000E0));
#201=B_SPLINE_CURVE_WITH_KNOTS('',1,(#199,#200),.UNSPECIFIED.,.F.,.F.,(2,2),(0.00000000000000000E0,1.00000000000000000E0),.UNSPECIFIED.);
#202=DEFINITIONAL_REPRESENTATION('',(#201),#83);
#203=PCURVE('',#46,#202);
#204=SURFACE_CURVE('',#49,(#88,#188),.PCURVE_S1.);
#205=EDGE_CURVE('OSCAD_TOPO/3|edge|e:4135719a7629310ea21bd3af60d69700|b685966813b37edba497b446caaad3f780529a535f8cc243f8c40828f5537474',#2,#8,#204,.T.);
#206=SURFACE_CURVE('',#52,(#93,#168),.PCURVE_S1.);
#207=EDGE_CURVE('OSCAD_TOPO/3|edge|e:26a8a6d77a9d1570b1368716ba1a8684|58fbe794a0b8d1f9fa12e68899af1f651a7d9dcd55f11881c4b4799b84b26369',#6,#8,#206,.T.);
#208=SURFACE_CURVE('',#55,(#98,#148),.PCURVE_S1.);
#209=EDGE_CURVE('OSCAD_TOPO/3|edge|e:d0eb6bf115ce10def472f2a3d7557baa|72de8959b52e490d9bf66a0910dd041e01cf80424b65c7d530f4d06e853f5506',#4,#6,#208,.T.);
#210=SURFACE_CURVE('',#58,(#103,#128),.PCURVE_S1.);
#211=EDGE_CURVE('OSCAD_TOPO/3|edge|e:7e6feb2eee1ff680f9bb875cffab558f|47c30ff26454e55e1c165e9aa253d55faa27e3bc9b42607f12afba86e830108f',#2,#4,#210,.T.);
#212=SURFACE_CURVE('',#61,(#108,#138),.PCURVE_S1.);
#213=EDGE_CURVE('OSCAD_TOPO/3|edge|e:99ba740c69928b7e187dd7e4dfd171e7|7fc55a5d12b4eb6d3cd0ea8eaba14afe2649adcca4f53ddb11059a8cb353d74e',#10,#12,#212,.T.);
#214=SURFACE_CURVE('',#64,(#113,#158),.PCURVE_S1.);
#215=EDGE_CURVE('OSCAD_TOPO/3|edge|e:90f8ad0e41bd70c90f643d285268b0b1|be47c968441fba10833444b501565ab2e4b5be19644c531dd5f08d8b1437de4d',#12,#14,#214,.T.);
#216=SURFACE_CURVE('',#67,(#118,#178),.PCURVE_S1.);
#217=EDGE_CURVE('OSCAD_TOPO/3|edge|e:54892c3fae944e3babd393a3ca158b79|05dbaeb2915efe80dfd8deecdc4bd3a7734273a972b09e0b7d6fc43dc7b22744',#14,#16,#216,.T.);
#218=SURFACE_CURVE('',#70,(#123,#198),.PCURVE_S1.);
#219=EDGE_CURVE('OSCAD_TOPO/3|edge|e:5b04c8a40a14d4fd1c918f30ff341477|117cedc33fed417fba8d43273f9cd56abb568fdfe60c8c88cee85a6c13af2089',#10,#16,#218,.T.);
#220=SURFACE_CURVE('',#73,(#133,#163),.PCURVE_S1.);
#221=EDGE_CURVE('OSCAD_TOPO/3|edge|e:c24f107732f9bcec3e1ed257805c3412|dac72b110d2082e3c4a1eb79c1f4e64d617ed77308ef31ad5b43e96137c99369',#4,#12,#220,.T.);
#222=SURFACE_CURVE('',#76,(#143,#193),.PCURVE_S1.);
#223=EDGE_CURVE('OSCAD_TOPO/3|edge|e:b571a973af2a8602e0414998c82ea4f6|fb1215878fa62dd89020ccb39fd55368b693ba8f8133123bd46d9f01af09bdf2',#2,#10,#222,.T.);
#224=SURFACE_CURVE('',#79,(#153,#183),.PCURVE_S1.);
#225=EDGE_CURVE('OSCAD_TOPO/3|edge|e:07936c919c0e197b486641ed90d9b8e3|8227365ea2450a593de98dbc1503e330f563004e2248318734869666886a7673',#6,#14,#224,.T.);
#226=SURFACE_CURVE('',#82,(#173,#203),.PCURVE_S1.);
#227=EDGE_CURVE('OSCAD_TOPO/3|edge|e:ab3a6823ad1b2606ed338dc1f4d9eef0|61315e1029be5542e2167e3404c9dbd8f6d789c19c39b3a43170ce45d4efd5f6',#8,#16,#226,.T.);
#228=ORIENTED_EDGE('',*,*,#205,.T.);
#229=ORIENTED_EDGE('',*,*,#207,.F.);
#230=ORIENTED_EDGE('',*,*,#209,.F.);
#231=ORIENTED_EDGE('',*,*,#211,.F.);
#232=EDGE_LOOP('OSCAD_TOPO/3|loop|l:0e95e82b0c23f6748615e19242533dd8|d3b352d69e01969410956ac7d63f6fca97eb576b06bb02d0a88c46d886944821',(#228,#229,#230,#231));
#233=ORIENTED_EDGE('',*,*,#213,.T.);
#234=ORIENTED_EDGE('',*,*,#215,.T.);
#235=ORIENTED_EDGE('',*,*,#217,.T.);
#236=ORIENTED_EDGE('',*,*,#219,.F.);
#237=EDGE_LOOP('OSCAD_TOPO/3|loop|l:55ab69dd611da584831af3818a6a9391|53ce99a75dbfceffa570f56de82eeaa0399fd73db4997206c2ed6bf36c3cdd4d',(#233,#234,#235,#236));
#238=ORIENTED_EDGE('',*,*,#211,.T.);
#239=ORIENTED_EDGE('',*,*,#221,.T.);
#240=ORIENTED_EDGE('',*,*,#213,.F.);
#241=ORIENTED_EDGE('',*,*,#223,.F.);
#242=EDGE_LOOP('OSCAD_TOPO/3|loop|l:1a140701431d2d0bbd71c59ea7121ee1|13fdb6e4ffe38f36665c95e0b00ac0da3ee5e6ff6d6c2e5cef5707b8efa5f3aa',(#238,#239,#240,#241));
#243=ORIENTED_EDGE('',*,*,#209,.T.);
#244=ORIENTED_EDGE('',*,*,#225,.T.);
#245=ORIENTED_EDGE('',*,*,#215,.F.);
#246=ORIENTED_EDGE('',*,*,#221,.F.);
#247=EDGE_LOOP('OSCAD_TOPO/3|loop|l:7b7c4b1bde1f52b832b8228262ebb2cb|54908c75ea83cb923a660caedc77c4e4e65937c39e81a55b4396791380500201',(#243,#244,#245,#246));
#248=ORIENTED_EDGE('',*,*,#207,.T.);
#249=ORIENTED_EDGE('',*,*,#227,.T.);
#250=ORIENTED_EDGE('',*,*,#217,.F.);
#251=ORIENTED_EDGE('',*,*,#225,.F.);
#252=EDGE_LOOP('OSCAD_TOPO/3|loop|l:561474da72b748da637521d9c0f2139d|1a58e0b19b728be56eb6f7137d5c513d12890d55bbe738253d8fdb4f07f02625',(#248,#249,#250,#251));
#253=ORIENTED_EDGE('',*,*,#205,.F.);
#254=ORIENTED_EDGE('',*,*,#223,.T.);
#255=ORIENTED_EDGE('',*,*,#219,.T.);
#256=ORIENTED_EDGE('',*,*,#227,.F.);
#257=EDGE_LOOP('OSCAD_TOPO/3|loop|l:ca103006b584478210bfc5dcb27513d7|573d37ac979e680072d43c564904782a8726199c2fd9843bb8d4ee259ef1f32c',(#253,#254,#255,#256));
#258=FACE_OUTER_BOUND('',#232,.T.);
#259=ADVANCED_FACE('OSCAD_TOPO/3|face|f:d9bd5603d04214452ddba7b5184f4ed7|d012827464e2ef79c6204a321515eb4f2be39c34e1d21a752c47a1db78eb6584',(#258),#21,.T.);
#260=FACE_OUTER_BOUND('',#237,.T.);
#261=ADVANCED_FACE('OSCAD_TOPO/3|face|f:18de2e12fa4c3af8bbe18e8b562922b0|3dc89476f9c042efdc51ac9b6eea2a53ac2d10650b508a5c0e51df0575eae6aa',(#260),#26,.T.);
#262=FACE_OUTER_BOUND('',#242,.T.);
#263=ADVANCED_FACE('OSCAD_TOPO/3|face|f:4c65fef89ddde56533afb54312da6070|8638dcee880b2a9edeebad6079227eef5528fa5a2c2dd7e344eab35fdc50e79b',(#262),#31,.T.);
#264=FACE_OUTER_BOUND('',#247,.T.);
#265=ADVANCED_FACE('OSCAD_TOPO/3|face|f:532de61f96a8fe63c1955c296b829b11|5c1c014646853121493e7096fadb35fe8b655486b36f49a4b9d507b66acec6d8',(#264),#36,.T.);
#266=FACE_OUTER_BOUND('',#252,.T.);
#267=ADVANCED_FACE('OSCAD_TOPO/3|face|f:58d6a1c1097dc83daa1434043f48d910|d6f72d14cee97327e50f36020e33ebc954da59dfe5df00b37c7ef849d68a3885',(#266),#41,.T.);
#268=FACE_OUTER_BOUND('',#257,.T.);
#269=ADVANCED_FACE('OSCAD_TOPO/3|face|f:1bb2483900339e0b06f80771ab201988|7eb0b71cc4eb79842c2b12800bfba2f7bc1726a00ed5bdd04959750f2d9929a6',(#268),#46,.T.);
#270=CLOSED_SHELL('OSCAD_TOPO/3|shell|s:044a831d38b6591459018960ddc79dee|78d2fc280b9cae0645f5178af99741a75c7315bf15dda553f21e7c7f98daca9e',(#259,#261,#263,#265,#267,#269));
#271=MANIFOLD_SOLID_BREP('OSCAD_TOPO/3|body|b:17d3d0f6f371d35ab6c3341dceca1195|40d4d83d5e11053ce8e930bb35679717a52dbd84fb269456d899eef530dd5abf',#270);
#272=(LENGTH_UNIT()NAMED_UNIT(*)SI_UNIT(.MILLI.,.METRE.));
#273=UNCERTAINTY_MEASURE_WITH_UNIT(LENGTH_MEASURE(9.99999999999999955E-8),#272,'distance_accuracy_value','');
#274=(GEOMETRIC_REPRESENTATION_CONTEXT(3)GLOBAL_UNCERTAINTY_ASSIGNED_CONTEXT((#273))GLOBAL_UNIT_ASSIGNED_CONTEXT((#272))REPRESENTATION_CONTEXT('','3D'));
#275=ADVANCED_BREP_SHAPE_REPRESENTATION('',(#271),#274);
#276=APPLICATION_CONTEXT('managed model based 3d engineering');
#277=PRODUCT_CONTEXT('',#276,'mechanical');
#278=PRODUCT('model','model','',(#277));
#279=PRODUCT_DEFINITION_FORMATION('1','',#278);
#280=PRODUCT_DEFINITION_CONTEXT('part definition',#276,'design');
#281=PRODUCT_DEFINITION('design','',#279,#280);
#282=PRODUCT_DEFINITION_SHAPE('','',#281);
#283=SHAPE_DEFINITION_REPRESENTATION(#282,#275);
ENDSEC;
END-ISO-10303-21;
