ISO-10303-21;
HEADER;
FILE_DESCRIPTION(('OpenSCAD Viewer retained AP242 B-rep'),'2;1');
FILE_NAME('model.step','',(''),(''),'OpenSCAD Viewer','OpenSCAD Viewer','');
FILE_SCHEMA(('AP242_MANAGED_MODEL_BASED_3D_ENGINEERING_MIM_LF'));
ENDSEC;
DATA;
#1=CARTESIAN_POINT('',(0.00000000000000000E0,0.00000000000000000E0,0.00000000000000000E0));
#2=VERTEX_POINT('OSCAD_TOPO/3|vertex|v:2301485b2aa5130a3ffa2c3d4ddce85f|191be695419e636e18cadbd25849313dc09d01169bcb85a989c23a0b6cf87b5c',#1);
#3=CARTESIAN_POINT('',(2.00000000000000000E0,0.00000000000000000E0,0.00000000000000000E0));
#4=VERTEX_POINT('OSCAD_TOPO/3|vertex|v:220e6fc475a9da38f53af60746604ed2|1dcac6380df9c51f2f20175abf4c52a78bcefb465c10760b4c3387485c81df72',#3);
#5=CARTESIAN_POINT('',(2.00000000000000000E0,3.00000000000000000E0,0.00000000000000000E0));
#6=VERTEX_POINT('OSCAD_TOPO/3|vertex|v:15630187ca9558931ed7d631890faede|aaaa39f327d37f210dc7c7acff7b9f8041dd914a0f3bcd6922d381a29483ee09',#5);
#7=CARTESIAN_POINT('',(0.00000000000000000E0,3.00000000000000000E0,0.00000000000000000E0));
#8=VERTEX_POINT('OSCAD_TOPO/3|vertex|v:96619fa870a7f51b481b3e2ddb3a0b93|7fac6cadf4bba600b15015a2637eae2011a7aeb74f8dc6aeef5586ad17349a50',#7);
#9=CARTESIAN_POINT('',(0.00000000000000000E0,0.00000000000000000E0,4.00000000000000000E0));
#10=VERTEX_POINT('OSCAD_TOPO/3|vertex|v:fcd89561da553c1324475310cc039099|0239b6db1bca62ddc3c4a809f79ae3c6a51d1b93eaca1d66b7e4996a0bfc1060',#9);
#11=CARTESIAN_POINT('',(2.00000000000000000E0,0.00000000000000000E0,4.00000000000000000E0));
#12=VERTEX_POINT('OSCAD_TOPO/3|vertex|v:a031a00b4920c2f64ef94214dfda953e|5d55a8b770721a4eacfff214cbc3c9bf1245b81fd12113031fd82058c88078c2',#11);
#13=CARTESIAN_POINT('',(2.00000000000000000E0,3.00000000000000000E0,4.00000000000000000E0));
#14=VERTEX_POINT('OSCAD_TOPO/3|vertex|v:608c5cbeb17b01b3d106d2b35656f52f|5a7184c6ef06dbdfffff8e57ce3a5adcf34e0ad840c980212ed40e260dada6e7',#13);
#15=CARTESIAN_POINT('',(0.00000000000000000E0,3.00000000000000000E0,4.00000000000000000E0));
#16=VERTEX_POINT('OSCAD_TOPO/3|vertex|v:2c72ff9c20f1b7350b74ed063e434a0e|454aa93e998f9407b93f8a5287800c98e816d6d06d52e5edae5b128fed5c01e7',#15);
#17=CARTESIAN_POINT('',(0.00000000000000000E0,0.00000000000000000E0,0.00000000000000000E0));
#18=CARTESIAN_POINT('',(2.00000000000000000E0,0.00000000000000000E0,0.00000000000000000E0));
#19=CARTESIAN_POINT('',(0.00000000000000000E0,3.00000000000000000E0,0.00000000000000000E0));
#20=CARTESIAN_POINT('',(2.00000000000000000E0,3.00000000000000000E0,0.00000000000000000E0));
#21=B_SPLINE_SURFACE_WITH_KNOTS('',1,1,((#17,#18),(#19,#20)),.UNSPECIFIED.,.F.,.F.,.F.,(2,2),(2,2),(0.00000000000000000E0,1.00000000000000000E0),(0.00000000000000000E0,1.00000000000000000E0),.UNSPECIFIED.);
#22=CARTESIAN_POINT('',(0.00000000000000000E0,0.00000000000000000E0,4.00000000000000000E0));
#23=CARTESIAN_POINT('',(0.00000000000000000E0,3.00000000000000000E0,4.00000000000000000E0));
#24=CARTESIAN_POINT('',(2.00000000000000000E0,0.00000000000000000E0,4.00000000000000000E0));
#25=CARTESIAN_POINT('',(2.00000000000000000E0,3.00000000000000000E0,4.00000000000000000E0));
#26=B_SPLINE_SURFACE_WITH_KNOTS('',1,1,((#22,#23),(#24,#25)),.UNSPECIFIED.,.F.,.F.,.F.,(2,2),(2,2),(0.00000000000000000E0,1.00000000000000000E0),(0.00000000000000000E0,1.00000000000000000E0),.UNSPECIFIED.);
#27=CARTESIAN_POINT('',(0.00000000000000000E0,0.00000000000000000E0,0.00000000000000000E0));
#28=CARTESIAN_POINT('',(0.00000000000000000E0,0.00000000000000000E0,4.00000000000000000E0));
#29=CARTESIAN_POINT('',(2.00000000000000000E0,0.00000000000000000E0,0.00000000000000000E0));
#30=CARTESIAN_POINT('',(2.00000000000000000E0,0.00000000000000000E0,4.00000000000000000E0));
#31=B_SPLINE_SURFACE_WITH_KNOTS('',1,1,((#27,#28),(#29,#30)),.UNSPECIFIED.,.F.,.F.,.F.,(2,2),(2,2),(0.00000000000000000E0,1.00000000000000000E0),(0.00000000000000000E0,1.00000000000000000E0),.UNSPECIFIED.);
#32=CARTESIAN_POINT('',(2.00000000000000000E0,0.00000000000000000E0,0.00000000000000000E0));
#33=CARTESIAN_POINT('',(2.00000000000000000E0,0.00000000000000000E0,4.00000000000000000E0));
#34=CARTESIAN_POINT('',(2.00000000000000000E0,3.00000000000000000E0,0.00000000000000000E0));
#35=CARTESIAN_POINT('',(2.00000000000000000E0,3.00000000000000000E0,4.00000000000000000E0));
#36=B_SPLINE_SURFACE_WITH_KNOTS('',1,1,((#32,#33),(#34,#35)),.UNSPECIFIED.,.F.,.F.,.F.,(2,2),(2,2),(0.00000000000000000E0,1.00000000000000000E0),(0.00000000000000000E0,1.00000000000000000E0),.UNSPECIFIED.);
#37=CARTESIAN_POINT('',(2.00000000000000000E0,3.00000000000000000E0,0.00000000000000000E0));
#38=CARTESIAN_POINT('',(2.00000000000000000E0,3.00000000000000000E0,4.00000000000000000E0));
#39=CARTESIAN_POINT('',(0.00000000000000000E0,3.00000000000000000E0,0.00000000000000000E0));
#40=CARTESIAN_POINT('',(0.00000000000000000E0,3.00000000000000000E0,4.00000000000000000E0));
#41=B_SPLINE_SURFACE_WITH_KNOTS('',1,1,((#37,#38),(#39,#40)),.UNSPECIFIED.,.F.,.F.,.F.,(2,2),(2,2),(0.00000000000000000E0,1.00000000000000000E0),(0.00000000000000000E0,1.00000000000000000E0),.UNSPECIFIED.);
#42=CARTESIAN_POINT('',(0.00000000000000000E0,3.00000000000000000E0,0.00000000000000000E0));
#43=CARTESIAN_POINT('',(0.00000000000000000E0,3.00000000000000000E0,4.00000000000000000E0));
#44=CARTESIAN_POINT('',(0.00000000000000000E0,0.00000000000000000E0,0.00000000000000000E0));
#45=CARTESIAN_POINT('',(0.00000000000000000E0,0.00000000000000000E0,4.00000000000000000E0));
#46=B_SPLINE_SURFACE_WITH_KNOTS('',1,1,((#42,#43),(#44,#45)),.UNSPECIFIED.,.F.,.F.,.F.,(2,2),(2,2),(0.00000000000000000E0,1.00000000000000000E0),(0.00000000000000000E0,1.00000000000000000E0),.UNSPECIFIED.);
#47=CARTESIAN_POINT('',(0.00000000000000000E0,0.00000000000000000E0,0.00000000000000000E0));
#48=CARTESIAN_POINT('',(0.00000000000000000E0,3.00000000000000000E0,0.00000000000000000E0));
#49=B_SPLINE_CURVE_WITH_KNOTS('',1,(#47,#48),.UNSPECIFIED.,.F.,.F.,(2,2),(0.00000000000000000E0,1.00000000000000000E0),.UNSPECIFIED.);
#50=CARTESIAN_POINT('',(2.00000000000000000E0,3.00000000000000000E0,0.00000000000000000E0));
#51=CARTESIAN_POINT('',(0.00000000000000000E0,3.00000000000000000E0,0.00000000000000000E0));
#52=B_SPLINE_CURVE_WITH_KNOTS('',1,(#50,#51),.UNSPECIFIED.,.F.,.F.,(2,2),(0.00000000000000000E0,1.00000000000000000E0),.UNSPECIFIED.);
#53=CARTESIAN_POINT('',(2.00000000000000000E0,0.00000000000000000E0,0.00000000000000000E0));
#54=CARTESIAN_POINT('',(2.00000000000000000E0,3.00000000000000000E0,0.00000000000000000E0));
#55=B_SPLINE_CURVE_WITH_KNOTS('',1,(#53,#54),.UNSPECIFIED.,.F.,.F.,(2,2),(0.00000000000000000E0,1.00000000000000000E0),.UNSPECIFIED.);
#56=CARTESIAN_POINT('',(0.00000000000000000E0,0.00000000000000000E0,0.00000000000000000E0));
#57=CARTESIAN_POINT('',(2.00000000000000000E0,0.00000000000000000E0,0.00000000000000000E0));
#58=B_SPLINE_CURVE_WITH_KNOTS('',1,(#56,#57),.UNSPECIFIED.,.F.,.F.,(2,2),(0.00000000000000000E0,1.00000000000000000E0),.UNSPECIFIED.);
#59=CARTESIAN_POINT('',(0.00000000000000000E0,0.00000000000000000E0,4.00000000000000000E0));
#60=CARTESIAN_POINT('',(2.00000000000000000E0,0.00000000000000000E0,4.00000000000000000E0));
#61=B_SPLINE_CURVE_WITH_KNOTS('',1,(#59,#60),.UNSPECIFIED.,.F.,.F.,(2,2),(0.00000000000000000E0,1.00000000000000000E0),.UNSPECIFIED.);
#62=CARTESIAN_POINT('',(2.00000000000000000E0,0.00000000000000000E0,4.00000000000000000E0));
#63=CARTESIAN_POINT('',(2.00000000000000000E0,3.00000000000000000E0,4.00000000000000000E0));
#64=B_SPLINE_CURVE_WITH_KNOTS('',1,(#62,#63),.UNSPECIFIED.,.F.,.F.,(2,2),(0.00000000000000000E0,1.00000000000000000E0),.UNSPECIFIED.);
#65=CARTESIAN_POINT('',(2.00000000000000000E0,3.00000000000000000E0,4.00000000000000000E0));
#66=CARTESIAN_POINT('',(0.00000000000000000E0,3.00000000000000000E0,4.00000000000000000E0));
#67=B_SPLINE_CURVE_WITH_KNOTS('',1,(#65,#66),.UNSPECIFIED.,.F.,.F.,(2,2),(0.00000000000000000E0,1.00000000000000000E0),.UNSPECIFIED.);
#68=CARTESIAN_POINT('',(0.00000000000000000E0,0.00000000000000000E0,4.00000000000000000E0));
#69=CARTESIAN_POINT('',(0.00000000000000000E0,3.00000000000000000E0,4.00000000000000000E0));
#70=B_SPLINE_CURVE_WITH_KNOTS('',1,(#68,#69),.UNSPECIFIED.,.F.,.F.,(2,2),(0.00000000000000000E0,1.00000000000000000E0),.UNSPECIFIED.);
#71=CARTESIAN_POINT('',(2.00000000000000000E0,0.00000000000000000E0,0.00000000000000000E0));
#72=CARTESIAN_POINT('',(2.00000000000000000E0,0.00000000000000000E0,4.00000000000000000E0));
#73=B_SPLINE_CURVE_WITH_KNOTS('',1,(#71,#72),.UNSPECIFIED.,.F.,.F.,(2,2),(0.00000000000000000E0,1.00000000000000000E0),.UNSPECIFIED.);
#74=CARTESIAN_POINT('',(0.00000000000000000E0,0.00000000000000000E0,0.00000000000000000E0));
#75=CARTESIAN_POINT('',(0.00000000000000000E0,0.00000000000000000E0,4.00000000000000000E0));
#76=B_SPLINE_CURVE_WITH_KNOTS('',1,(#74,#75),.UNSPECIFIED.,.F.,.F.,(2,2),(0.00000000000000000E0,1.00000000000000000E0),.UNSPECIFIED.);
#77=CARTESIAN_POINT('',(2.00000000000000000E0,3.00000000000000000E0,0.00000000000000000E0));
#78=CARTESIAN_POINT('',(2.00000000000000000E0,3.00000000000000000E0,4.00000000000000000E0));
#79=B_SPLINE_CURVE_WITH_KNOTS('',1,(#77,#78),.UNSPECIFIED.,.F.,.F.,(2,2),(0.00000000000000000E0,1.00000000000000000E0),.UNSPECIFIED.);
#80=CARTESIAN_POINT('',(0.00000000000000000E0,3.00000000000000000E0,0.00000000000000000E0));
#81=CARTESIAN_POINT('',(0.00000000000000000E0,3.00000000000000000E0,4.00000000000000000E0));
#82=B_SPLINE_CURVE_WITH_KNOTS('',1,(#80,#81),.UNSPECIFIED.,.F.,.F.,(2,2),(0.00000000000000000E0,1.00000000000000000E0),.UNSPECIFIED.);
#83=(GEOMETRIC_REPRESENTATION_CONTEXT(2)REPRESENTATION_CONTEXT('','2D'));
#84=CARTESIAN_POINT('',(0.00000000000000000E0,0.00000000000000000E0));
#85=CARTESIAN_POINT('',(1.00000000000000000E0,0.00000000000000000E0));
#86=B_SPLINE_CURVE_WITH_KNOTS('',1,(#84,#85),.UNSPECIFIED.,.F.,.F.,(2,2),(0.00000000000000000E0,1.00000000000000000E0),.UNSPECIFIED.);
#87=DEFINITIONAL_REPRESENTATION('',(#86),#83);
#88=PCURVE('',#21,#87);
#89=CARTESIAN_POINT('',(1.00000000000000000E0,0.00000000000000000E0));
#90=CARTESIAN_POINT('',(1.00000000000000000E0,1.00000000000000000E0));
#91=B_SPLINE_CURVE_WITH_KNOTS('',1,(#89,#90),.UNSPECIFIED.,.F.,.F.,(2,2),(0.00000000000000000E0,1.00000000000000000E0),.UNSPECIFIED.);
#92=DEFINITIONAL_REPRESENTATION('',(#91),#83);
#93=PCURVE('',#21,#92);
#94=CARTESIAN_POINT('',(1.00000000000000000E0,1.00000000000000000E0));
#95=CARTESIAN_POINT('',(0.00000000000000000E0,1.00000000000000000E0));
#96=B_SPLINE_CURVE_WITH_KNOTS('',1,(#94,#95),.UNSPECIFIED.,.F.,.F.,(2,2),(0.00000000000000000E0,1.00000000000000000E0),.UNSPECIFIED.);
#97=DEFINITIONAL_REPRESENTATION('',(#96),#83);
#98=PCURVE('',#21,#97);
#99=CARTESIAN_POINT('',(0.00000000000000000E0,1.00000000000000000E0));
#100=CARTESIAN_POINT('',(0.00000000000000000E0,0.00000000000000000E0));
#101=B_SPLINE_CURVE_WITH_KNOTS('',1,(#99,#100),.UNSPECIFIED.,.F.,.F.,(2,2),(0.00000000000000000E0,1.00000000000000000E0),.UNSPECIFIED.);
#102=DEFINITIONAL_REPRESENTATION('',(#101),#83);
#103=PCURVE('',#21,#102);
#104=CARTESIAN_POINT('',(0.00000000000000000E0,0.00000000000000000E0));
#105=CARTESIAN_POINT('',(1.00000000000000000E0,0.00000000000000000E0));
#106=B_SPLINE_CURVE_WITH_KNOTS('',1,(#104,#105),.UNSPECIFIED.,.F.,.F.,(2,2),(0.00000000000000000E0,1.00000000000000000E0),.UNSPECIFIED.);
#107=DEFINITIONAL_REPRESENTATION('',(#106),#83);
#108=PCURVE('',#26,#107);
#109=CARTESIAN_POINT('',(1.00000000000000000E0,0.00000000000000000E0));
#110=CARTESIAN_POINT('',(1.00000000000000000E0,1.00000000000000000E0));
#111=B_SPLINE_CURVE_WITH_KNOTS('',1,(#109,#110),.UNSPECIFIED.,.F.,.F.,(2,2),(0.00000000000000000E0,1.00000000000000000E0),.UNSPECIFIED.);
#112=DEFINITIONAL_REPRESENTATION('',(#111),#83);
#113=PCURVE('',#26,#112);
#114=CARTESIAN_POINT('',(1.00000000000000000E0,1.00000000000000000E0));
#115=CARTESIAN_POINT('',(0.00000000000000000E0,1.00000000000000000E0));
#116=B_SPLINE_CURVE_WITH_KNOTS('',1,(#114,#115),.UNSPECIFIED.,.F.,.F.,(2,2),(0.00000000000000000E0,1.00000000000000000E0),.UNSPECIFIED.);
#117=DEFINITIONAL_REPRESENTATION('',(#116),#83);
#118=PCURVE('',#26,#117);
#119=CARTESIAN_POINT('',(0.00000000000000000E0,1.00000000000000000E0));
#120=CARTESIAN_POINT('',(0.00000000000000000E0,0.00000000000000000E0));
#121=B_SPLINE_CURVE_WITH_KNOTS('',1,(#119,#120),.UNSPECIFIED.,.F.,.F.,(2,2),(0.00000000000000000E0,1.00000000000000000E0),.UNSPECIFIED.);
#122=DEFINITIONAL_REPRESENTATION('',(#121),#83);
#123=PCURVE('',#26,#122);
#124=CARTESIAN_POINT('',(0.00000000000000000E0,0.00000000000000000E0));
#125=CARTESIAN_POINT('',(1.00000000000000000E0,0.00000000000000000E0));
#126=B_SPLINE_CURVE_WITH_KNOTS('',1,(#124,#125),.UNSPECIFIED.,.F.,.F.,(2,2),(0.00000000000000000E0,1.00000000000000000E0),.UNSPECIFIED.);
#127=DEFINITIONAL_REPRESENTATION('',(#126),#83);
#128=PCURVE('',#31,#127);
#129=CARTESIAN_POINT('',(1.00000000000000000E0,0.00000000000000000E0));
#130=CARTESIAN_POINT('',(1.00000000000000000E0,1.00000000000000000E0));
#131=B_SPLINE_CURVE_WITH_KNOTS('',1,(#129,#130),.UNSPECIFIED.,.F.,.F.,(2,2),(0.00000000000000000E0,1.00000000000000000E0),.UNSPECIFIED.);
#132=DEFINITIONAL_REPRESENTATION('',(#131),#83);
#133=PCURVE('',#31,#132);
#134=CARTESIAN_POINT('',(1.00000000000000000E0,1.00000000000000000E0));
#135=CARTESIAN_POINT('',(0.00000000000000000E0,1.00000000000000000E0));
#136=B_SPLINE_CURVE_WITH_KNOTS('',1,(#134,#135),.UNSPECIFIED.,.F.,.F.,(2,2),(0.00000000000000000E0,1.00000000000000000E0),.UNSPECIFIED.);
#137=DEFINITIONAL_REPRESENTATION('',(#136),#83);
#138=PCURVE('',#31,#137);
#139=CARTESIAN_POINT('',(0.00000000000000000E0,1.00000000000000000E0));
#140=CARTESIAN_POINT('',(0.00000000000000000E0,0.00000000000000000E0));
#141=B_SPLINE_CURVE_WITH_KNOTS('',1,(#139,#140),.UNSPECIFIED.,.F.,.F.,(2,2),(0.00000000000000000E0,1.00000000000000000E0),.UNSPECIFIED.);
#142=DEFINITIONAL_REPRESENTATION('',(#141),#83);
#143=PCURVE('',#31,#142);
#144=CARTESIAN_POINT('',(0.00000000000000000E0,0.00000000000000000E0));
#145=CARTESIAN_POINT('',(1.00000000000000000E0,0.00000000000000000E0));
#146=B_SPLINE_CURVE_WITH_KNOTS('',1,(#144,#145),.UNSPECIFIED.,.F.,.F.,(2,2),(0.00000000000000000E0,1.00000000000000000E0),.UNSPECIFIED.);
#147=DEFINITIONAL_REPRESENTATION('',(#146),#83);
#148=PCURVE('',#36,#147);
#149=CARTESIAN_POINT('',(1.00000000000000000E0,0.00000000000000000E0));
#150=CARTESIAN_POINT('',(1.00000000000000000E0,1.00000000000000000E0));
#151=B_SPLINE_CURVE_WITH_KNOTS('',1,(#149,#150),.UNSPECIFIED.,.F.,.F.,(2,2),(0.00000000000000000E0,1.00000000000000000E0),.UNSPECIFIED.);
#152=DEFINITIONAL_REPRESENTATION('',(#151),#83);
#153=PCURVE('',#36,#152);
#154=CARTESIAN_POINT('',(1.00000000000000000E0,1.00000000000000000E0));
#155=CARTESIAN_POINT('',(0.00000000000000000E0,1.00000000000000000E0));
#156=B_SPLINE_CURVE_WITH_KNOTS('',1,(#154,#155),.UNSPECIFIED.,.F.,.F.,(2,2),(0.00000000000000000E0,1.00000000000000000E0),.UNSPECIFIED.);
#157=DEFINITIONAL_REPRESENTATION('',(#156),#83);
#158=PCURVE('',#36,#157);
#159=CARTESIAN_POINT('',(0.00000000000000000E0,1.00000000000000000E0));
#160=CARTESIAN_POINT('',(0.00000000000000000E0,0.00000000000000000E0));
#161=B_SPLINE_CURVE_WITH_KNOTS('',1,(#159,#160),.UNSPECIFIED.,.F.,.F.,(2,2),(0.00000000000000000E0,1.00000000000000000E0),.UNSPECIFIED.);
#162=DEFINITIONAL_REPRESENTATION('',(#161),#83);
#163=PCURVE('',#36,#162);
#164=CARTESIAN_POINT('',(0.00000000000000000E0,0.00000000000000000E0));
#165=CARTESIAN_POINT('',(1.00000000000000000E0,0.00000000000000000E0));
#166=B_SPLINE_CURVE_WITH_KNOTS('',1,(#164,#165),.UNSPECIFIED.,.F.,.F.,(2,2),(0.00000000000000000E0,1.00000000000000000E0),.UNSPECIFIED.);
#167=DEFINITIONAL_REPRESENTATION('',(#166),#83);
#168=PCURVE('',#41,#167);
#169=CARTESIAN_POINT('',(1.00000000000000000E0,0.00000000000000000E0));
#170=CARTESIAN_POINT('',(1.00000000000000000E0,1.00000000000000000E0));
#171=B_SPLINE_CURVE_WITH_KNOTS('',1,(#169,#170),.UNSPECIFIED.,.F.,.F.,(2,2),(0.00000000000000000E0,1.00000000000000000E0),.UNSPECIFIED.);
#172=DEFINITIONAL_REPRESENTATION('',(#171),#83);
#173=PCURVE('',#41,#172);
#174=CARTESIAN_POINT('',(1.00000000000000000E0,1.00000000000000000E0));
#175=CARTESIAN_POINT('',(0.00000000000000000E0,1.00000000000000000E0));
#176=B_SPLINE_CURVE_WITH_KNOTS('',1,(#174,#175),.UNSPECIFIED.,.F.,.F.,(2,2),(0.00000000000000000E0,1.00000000000000000E0),.UNSPECIFIED.);
#177=DEFINITIONAL_REPRESENTATION('',(#176),#83);
#178=PCURVE('',#41,#177);
#179=CARTESIAN_POINT('',(0.00000000000000000E0,1.00000000000000000E0));
#180=CARTESIAN_POINT('',(0.00000000000000000E0,0.00000000000000000E0));
#181=B_SPLINE_CURVE_WITH_KNOTS('',1,(#179,#180),.UNSPECIFIED.,.F.,.F.,(2,2),(0.00000000000000000E0,1.00000000000000000E0),.UNSPECIFIED.);
#182=DEFINITIONAL_REPRESENTATION('',(#181),#83);
#183=PCURVE('',#41,#182);
#184=CARTESIAN_POINT('',(0.00000000000000000E0,0.00000000000000000E0));
#185=CARTESIAN_POINT('',(1.00000000000000000E0,0.00000000000000000E0));
#186=B_SPLINE_CURVE_WITH_KNOTS('',1,(#184,#185),.UNSPECIFIED.,.F.,.F.,(2,2),(0.00000000000000000E0,1.00000000000000000E0),.UNSPECIFIED.);
#187=DEFINITIONAL_REPRESENTATION('',(#186),#83);
#188=PCURVE('',#46,#187);
#189=CARTESIAN_POINT('',(1.00000000000000000E0,0.00000000000000000E0));
#190=CARTESIAN_POINT('',(1.00000000000000000E0,1.00000000000000000E0));
#191=B_SPLINE_CURVE_WITH_KNOTS('',1,(#189,#190),.UNSPECIFIED.,.F.,.F.,(2,2),(0.00000000000000000E0,1.00000000000000000E0),.UNSPECIFIED.);
#192=DEFINITIONAL_REPRESENTATION('',(#191),#83);
#193=PCURVE('',#46,#192);
#194=CARTESIAN_POINT('',(1.00000000000000000E0,1.00000000000000000E0));
#195=CARTESIAN_POINT('',(0.00000000000000000E0,1.00000000000000000E0));
#196=B_SPLINE_CURVE_WITH_KNOTS('',1,(#194,#195),.UNSPECIFIED.,.F.,.F.,(2,2),(0.00000000000000000E0,1.00000000000000000E0),.UNSPECIFIED.);
#197=DEFINITIONAL_REPRESENTATION('',(#196),#83);
#198=PCURVE('',#46,#197);
#199=CARTESIAN_POINT('',(0.00000000000000000E0,1.00000000000000000E0));
#200=CARTESIAN_POINT('',(0.00000000000000000E0,0.00000000000000000E0));
#201=B_SPLINE_CURVE_WITH_KNOTS('',1,(#199,#200),.UNSPECIFIED.,.F.,.F.,(2,2),(0.00000000000000000E0,1.00000000000000000E0),.UNSPECIFIED.);
#202=DEFINITIONAL_REPRESENTATION('',(#201),#83);
#203=PCURVE('',#46,#202);
#204=SURFACE_CURVE('',#49,(#88,#188),.PCURVE_S1.);
#205=EDGE_CURVE('OSCAD_TOPO/3|edge|e:1de26457d8a47e6f37d233a3d6756a53|3c94652a2c2165c7b1d14e205af962cd07682ec7ffa9a179ba0b53e6e67b0114',#2,#8,#204,.T.);
#206=SURFACE_CURVE('',#52,(#93,#168),.PCURVE_S1.);
#207=EDGE_CURVE('OSCAD_TOPO/3|edge|e:a4f7badedbed9b5674eff0143ec73e92|24fa68ffc504a0e5a105b56380102fca08e3dff458eefc67c1b58eb6e6991d73',#6,#8,#206,.T.);
#208=SURFACE_CURVE('',#55,(#98,#148),.PCURVE_S1.);
#209=EDGE_CURVE('OSCAD_TOPO/3|edge|e:657ecfecac266de3ad9c1c86cfaec8c9|adde00b82fa423ec17672eaada1d716d0f6c961b4e466e33d08054ad0e1df7bd',#4,#6,#208,.T.);
#210=SURFACE_CURVE('',#58,(#103,#128),.PCURVE_S1.);
#211=EDGE_CURVE('OSCAD_TOPO/3|edge|e:92ba71e8a196f004b4c1ffc55ac484d5|22337f6fa2fd6a1ca3421d5842ef5c1c997a93a2221e4a12201fc4f1a44bea70',#2,#4,#210,.T.);
#212=SURFACE_CURVE('',#61,(#108,#138),.PCURVE_S1.);
#213=EDGE_CURVE('OSCAD_TOPO/3|edge|e:ec3fb5eb6e8a9555a293220d844e5898|5618db8595d37463e40bf8cc3934c9ce0aec3f699e04c81e7d05a42d5b1aff0a',#10,#12,#212,.T.);
#214=SURFACE_CURVE('',#64,(#113,#158),.PCURVE_S1.);
#215=EDGE_CURVE('OSCAD_TOPO/3|edge|e:1d8feadb47c85079154de17822b6a279|b639a5bb1a53d39562c6c988340a1b35ba2bcebe537a3f9af124ae807df60439',#12,#14,#214,.T.);
#216=SURFACE_CURVE('',#67,(#118,#178),.PCURVE_S1.);
#217=EDGE_CURVE('OSCAD_TOPO/3|edge|e:3bf4f2e286e7b2bbdfcadec26f20403f|6b3174ce6f5d33f8193cea010961a102623df49cf2198c0f8d1ce3c44ec5a0d0',#14,#16,#216,.T.);
#218=SURFACE_CURVE('',#70,(#123,#198),.PCURVE_S1.);
#219=EDGE_CURVE('OSCAD_TOPO/3|edge|e:f6e01bf9b97418dbb0641d53508a7c39|00a4c330d1b8ac784f4ce9bbba5e299216cf08d2a6fb46c72633543e1ccb080f',#10,#16,#218,.T.);
#220=SURFACE_CURVE('',#73,(#133,#163),.PCURVE_S1.);
#221=EDGE_CURVE('OSCAD_TOPO/3|edge|e:6f3da9e55990d11c46f434723a0da716|228b5ccbab19f1e6e53e5e39f9dc9906481d5b9cb67c724e440bc47c67e06df6',#4,#12,#220,.T.);
#222=SURFACE_CURVE('',#76,(#143,#193),.PCURVE_S1.);
#223=EDGE_CURVE('OSCAD_TOPO/3|edge|e:08fef0785958b3ff2573c79624025f86|9c7ca6ee34000d6c35aac070751d15c209cd9ba5382f02bdfd186905590315c5',#2,#10,#222,.T.);
#224=SURFACE_CURVE('',#79,(#153,#183),.PCURVE_S1.);
#225=EDGE_CURVE('OSCAD_TOPO/3|edge|e:86d2750b3ee97a11bd99c5e434bc832a|54d6c5613664178b45dd86fb6ffb66ab4177dbe4bc26db782aaaa68aee714b27',#6,#14,#224,.T.);
#226=SURFACE_CURVE('',#82,(#173,#203),.PCURVE_S1.);
#227=EDGE_CURVE('OSCAD_TOPO/3|edge|e:4db14007bdf5f2ad5de5645e46b6372b|a3c0f754d8da08ee6c71b23dab9ae99adb4258470407736dacfc6dc805499f25',#8,#16,#226,.T.);
#228=ORIENTED_EDGE('',*,*,#205,.T.);
#229=ORIENTED_EDGE('',*,*,#207,.F.);
#230=ORIENTED_EDGE('',*,*,#209,.F.);
#231=ORIENTED_EDGE('',*,*,#211,.F.);
#232=EDGE_LOOP('OSCAD_TOPO/3|loop|l:bc98c01527f10592e350b147292ba7ff|6296e171661e99d3110cec8b9afa8fda03f26dd8e28a5d51d88a32e0a4ec4afa',(#228,#229,#230,#231));
#233=ORIENTED_EDGE('',*,*,#213,.T.);
#234=ORIENTED_EDGE('',*,*,#215,.T.);
#235=ORIENTED_EDGE('',*,*,#217,.T.);
#236=ORIENTED_EDGE('',*,*,#219,.F.);
#237=EDGE_LOOP('OSCAD_TOPO/3|loop|l:f4f38cf3e4deffa059c22605beb62393|d2469db78bda0057a91dc9543b0424bf4b82c79aaea01080d21f394d2f4039d1',(#233,#234,#235,#236));
#238=ORIENTED_EDGE('',*,*,#211,.T.);
#239=ORIENTED_EDGE('',*,*,#221,.T.);
#240=ORIENTED_EDGE('',*,*,#213,.F.);
#241=ORIENTED_EDGE('',*,*,#223,.F.);
#242=EDGE_LOOP('OSCAD_TOPO/3|loop|l:c77f9eb002720d6bcf4f4056f1ceed1c|13005c867eb0e471bddd3007b55f83e1a0c4245f61ce44fa6867bb09d96424db',(#238,#239,#240,#241));
#243=ORIENTED_EDGE('',*,*,#209,.T.);
#244=ORIENTED_EDGE('',*,*,#225,.T.);
#245=ORIENTED_EDGE('',*,*,#215,.F.);
#246=ORIENTED_EDGE('',*,*,#221,.F.);
#247=EDGE_LOOP('OSCAD_TOPO/3|loop|l:21de6d2e7ad2f0aaa0bf0f2f941e03ef|ce3f7912556ce9ec015f8a5e434c0e0c20cb7035fad0c6aa491c24c0f492d0cd',(#243,#244,#245,#246));
#248=ORIENTED_EDGE('',*,*,#207,.T.);
#249=ORIENTED_EDGE('',*,*,#227,.T.);
#250=ORIENTED_EDGE('',*,*,#217,.F.);
#251=ORIENTED_EDGE('',*,*,#225,.F.);
#252=EDGE_LOOP('OSCAD_TOPO/3|loop|l:f15d2d6975ce13538ea750e0ac6d431e|e1f5049b704a554c612c199f043473cb62617043251c2b950abc7250a1367608',(#248,#249,#250,#251));
#253=ORIENTED_EDGE('',*,*,#205,.F.);
#254=ORIENTED_EDGE('',*,*,#223,.T.);
#255=ORIENTED_EDGE('',*,*,#219,.T.);
#256=ORIENTED_EDGE('',*,*,#227,.F.);
#257=EDGE_LOOP('OSCAD_TOPO/3|loop|l:56f5feb679fde562da11f9e43f3cbff5|a17e6b4fe067196f4e44f9fb56c09295f989b188d42e3e5c616ce4e085171d3a',(#253,#254,#255,#256));
#258=FACE_OUTER_BOUND('',#232,.T.);
#259=ADVANCED_FACE('OSCAD_TOPO/3|face|f:f053bfa3db65533f5890eb656b17fce8|768804c1113e3bfe89b6dc110c815e99209a886895bb7aee007aabd45f739b9b',(#258),#21,.T.);
#260=FACE_OUTER_BOUND('',#237,.T.);
#261=ADVANCED_FACE('OSCAD_TOPO/3|face|f:e63ef27c2b488026df9e2b82f82158eb|f2b80201c7105675acdebf0aad77cbd68f9306e8c316a160ef14aef2c8603dee',(#260),#26,.T.);
#262=FACE_OUTER_BOUND('',#242,.T.);
#263=ADVANCED_FACE('OSCAD_TOPO/3|face|f:e78b50979f15baad24e4e9f54dc23c29|e7e095835125907f3f0660f22c1bac8c318e4e07e8e17c8de468c87e8c72d4da',(#262),#31,.T.);
#264=FACE_OUTER_BOUND('',#247,.T.);
#265=ADVANCED_FACE('OSCAD_TOPO/3|face|f:c2588bcf1a8631a74a0d34fde21741de|69de277bd198c179483ac6556f7c2e11f41747236f338ec58645e02158679df3',(#264),#36,.T.);
#266=FACE_OUTER_BOUND('',#252,.T.);
#267=ADVANCED_FACE('OSCAD_TOPO/3|face|f:be1f2c12387071235b1b0cc3490c9a45|c1dd7f48e616b10817b6bf18ea5d55549db871c827822ea8773efb4aee01d8cf',(#266),#41,.T.);
#268=FACE_OUTER_BOUND('',#257,.T.);
#269=ADVANCED_FACE('OSCAD_TOPO/3|face|f:6c5bc30f2df2ad9bdf527dce1297400b|60b612b099c05836b317ea6adb847ab69f2fb26117b925490db727572946e284',(#268),#46,.T.);
#270=CLOSED_SHELL('OSCAD_TOPO/3|shell|s:0752e07c02b14e3a2dec65a29e593aa3|d903f6e8f31e5c17decba53d8a8d8f21a72940e46d30e89012fb43c8f157a8e0',(#259,#261,#263,#265,#267,#269));
#271=MANIFOLD_SOLID_BREP('OSCAD_TOPO/3|body|b:9fa5159bab72be9bce758973e4027187|c2aef2bb1462db744300b1a8f85b486b5f7e35867c6bf5d391e7200473fc0e14',#270);
#272=(LENGTH_UNIT()NAMED_UNIT(*)SI_UNIT(.MILLI.,.METRE.));
#273=UNCERTAINTY_MEASURE_WITH_UNIT(LENGTH_MEASURE(9.99999999999999955E-8),#272,'distance_accuracy_value','');
#274=(GEOMETRIC_REPRESENTATION_CONTEXT(3)GLOBAL_UNCERTAINTY_ASSIGNED_CONTEXT((#273))GLOBAL_UNIT_ASSIGNED_CONTEXT((#272))REPRESENTATION_CONTEXT('','3D'));
#275=ADVANCED_BREP_SHAPE_REPRESENTATION('',(#271),#274);
#276=APPLICATION_CONTEXT('managed model based 3d engineering');
#277=PRODUCT_CONTEXT('',#276,'mechanical');
#278=PRODUCT('model','model','',(#277));
#279=PRODUCT_DEFINITION_FORMATION('1','',#278);
#280=PRODUCT_DEFINITION_CONTEXT('part definition',#276,'design');
#281=PRODUCT_DEFINITION('design','',#279,#280);
#282=PRODUCT_DEFINITION_SHAPE('','',#281);
#283=SHAPE_DEFINITION_REPRESENTATION(#282,#275);
ENDSEC;
END-ISO-10303-21;
