ISO-10303-21;
HEADER;
FILE_DESCRIPTION(('OpenSCAD Viewer retained AP242 B-rep'),'2;1');
FILE_NAME('model.step','',(''),(''),'OpenSCAD Viewer','OpenSCAD Viewer','');
FILE_SCHEMA(('AP242_MANAGED_MODEL_BASED_3D_ENGINEERING_MIM_LF'));
ENDSEC;
DATA;
#1=CARTESIAN_POINT('',(0.00000000000000000E0,1.12500000000000000E0,2.50000000000000000E-1));
#2=VERTEX_POINT('OSCAD_TOPO/3|vertex|v:d5eaff44a3f60570cd9983e2a910450c|36913e850cfa6f9de8981fee64eefbdea1ba357889454b001016a5bb61cad431',#1);
#3=CARTESIAN_POINT('',(-5.00000000000000000E-1,1.25000000000000056E-1,2.50000000000000000E-1));
#4=VERTEX_POINT('OSCAD_TOPO/3|vertex|v:a657e40ca21fdd020496ac5a331ad8a3|361f39142b8c8d859c3a7dac01873adad9924919aa98bafb0db074abf42fae9d',#3);
#5=CARTESIAN_POINT('',(-6.12323399573676604E-17,-8.75000000000000000E-1,2.50000000000000000E-1));
#6=VERTEX_POINT('OSCAD_TOPO/3|vertex|v:2512b85236c09bc76b196164697927a9|3aeebab62abca7c7809cca21e822a6691ebb5c5633a92a623e118627766bebea',#5);
#7=CARTESIAN_POINT('',(5.00000000000000000E-1,1.24999999999999820E-1,2.50000000000000000E-1));
#8=VERTEX_POINT('OSCAD_TOPO/3|vertex|v:3d57c2e35bec68f88ca8aaa9703d0a33|3809ac9acca79feee99133b523a1be0cdf53f1dbdf9737962636d0874178cec9',#7);
#9=CARTESIAN_POINT('',(0.00000000000000000E0,5.25000000000000022E-1,2.50000000000000000E-1));
#10=VERTEX_POINT('OSCAD_TOPO/3|vertex|v:68aea90df7672644c313011fb7b95863|cf71b46f36aa5c123dfcd19131b0e9c9d3350096ea28d68bc6126e2a37d543e9',#9);
#11=CARTESIAN_POINT('',(2.00000000000000011E-1,1.25000000000000028E-1,2.50000000000000000E-1));
#12=VERTEX_POINT('OSCAD_TOPO/3|vertex|v:b348c09b4dfc12954f7f4fa9b7f95bbf|8ed41491d60e0fda68a5b5e1549147f30b04a218276aa9d0c53d2ab7fde16965',#11);
#13=CARTESIAN_POINT('',(2.44929359829470654E-17,-2.75000000000000022E-1,2.50000000000000000E-1));
#14=VERTEX_POINT('OSCAD_TOPO/3|vertex|v:aaa899b4c81f4956bf02bb6bab6cbf46|dc98a3f0b34c34949c9bede0f41cf0789934cc30928b65370183cad308e6a6e1',#13);
#15=CARTESIAN_POINT('',(-2.00000000000000011E-1,1.24999999999999931E-1,2.50000000000000000E-1));
#16=VERTEX_POINT('OSCAD_TOPO/3|vertex|v:d68a880b9130f08d50109595e5cc59b1|a9b343a6aae306bf48cba1960ee96f8c42182e8f41cd184d5c7933ef3e006ab5',#15);
#17=CARTESIAN_POINT('',(0.00000000000000000E0,1.12500000000000000E0,1.02500000000000000E1));
#18=VERTEX_POINT('OSCAD_TOPO/3|vertex|v:8265dd379ed731e1835d650f203e453d|d3b5cb9e40c656d51f6292904d8b2c8a4399f64a16b8e30686d91f1c4a3af0f4',#17);
#19=CARTESIAN_POINT('',(-5.00000000000000000E-1,1.25000000000000056E-1,1.02500000000000000E1));
#20=VERTEX_POINT('OSCAD_TOPO/3|vertex|v:e70c90e1826d2c8c602454f2b6a9e0bb|5576658480fb0a3cf672c180eb90f359dd8289010097eba9a6eb008e42370dc6',#19);
#21=CARTESIAN_POINT('',(-6.12323399573676604E-17,-8.75000000000000000E-1,1.02500000000000000E1));
#22=VERTEX_POINT('OSCAD_TOPO/3|vertex|v:960637d2b55ac2de00656d66c6b63501|67d590ee355e7714c7bd8abd4556a5dfcde7efa17453ae1ef9833231b6e4d97e',#21);
#23=CARTESIAN_POINT('',(5.00000000000000000E-1,1.24999999999999820E-1,1.02500000000000000E1));
#24=VERTEX_POINT('OSCAD_TOPO/3|vertex|v:2b6612b3d05174719484ba4cc44883a6|4b5b50596fe45a7993fcca5261e8a5f286c21f35232ca487eb92000b8081c352',#23);
#25=CARTESIAN_POINT('',(0.00000000000000000E0,5.25000000000000022E-1,1.02500000000000000E1));
#26=VERTEX_POINT('OSCAD_TOPO/3|vertex|v:9d2a4e3c3dd9933009718d81dda2906b|9936f346cf3a41858828359817eebb69242033de27133acfa224fcd9524d98a2',#25);
#27=CARTESIAN_POINT('',(2.00000000000000011E-1,1.25000000000000028E-1,1.02500000000000000E1));
#28=VERTEX_POINT('OSCAD_TOPO/3|vertex|v:da20947f33f36bb64dbe6ece29ad42a1|0f451a3e1243e48838ad2057ecfa1f9a4bd609f0dc6ffebb03855de729ef035c',#27);
#29=CARTESIAN_POINT('',(2.44929359829470654E-17,-2.75000000000000022E-1,1.02500000000000000E1));
#30=VERTEX_POINT('OSCAD_TOPO/3|vertex|v:d3dd051de7beb19bb6ef97ae3ac1e9d9|e1c4c7493fd031b2551e76a4319bd0acc3f74eb1c5a35abce1e19d36c7098ce0',#29);
#31=CARTESIAN_POINT('',(-2.00000000000000011E-1,1.24999999999999931E-1,1.02500000000000000E1));
#32=VERTEX_POINT('OSCAD_TOPO/3|vertex|v:cc62c83f27a5c17ac73cc525fcbce95f|89babd8a92c14865cf02b67cf4ed632ad73b16a12d90bc8907a0ed0a1f0a0227',#31);
#33=CARTESIAN_POINT('',(0.00000000000000000E0,1.12500000000000000E0,2.50000000000000000E-1));
#34=CARTESIAN_POINT('',(0.00000000000000000E0,1.12500000000000000E0,1.02500000000000000E1));
#35=CARTESIAN_POINT('',(-4.99999999999999944E-1,1.12500000000000000E0,2.50000000000000000E-1));
#36=CARTESIAN_POINT('',(-4.99999999999999944E-1,1.12500000000000000E0,1.02500000000000000E1));
#37=CARTESIAN_POINT('',(-5.00000000000000000E-1,1.25000000000000056E-1,2.50000000000000000E-1));
#38=CARTESIAN_POINT('',(-5.00000000000000000E-1,1.25000000000000056E-1,1.02500000000000000E1));
#39=(BOUNDED_SURFACE()B_SPLINE_SURFACE(2,1,((#33,#34),(#35,#36),(#37,#38)),.UNSPECIFIED.,.F.,.F.,.F.)B_SPLINE_SURFACE_WITH_KNOTS((3,3),(2,2),(0.00000000000000000E0,1.00000000000000000E0),(0.00000000000000000E0,1.00000000000000000E0),.UNSPECIFIED.)GEOMETRIC_REPRESENTATION_ITEM()RATIONAL_B_SPLINE_SURFACE(((1.00000000000000000E0,1.00000000000000000E0),(7.07106781186547573E-1,7.07106781186547573E-1),(1.00000000000000000E0,1.00000000000000000E0)))REPRESENTATION_ITEM('')SURFACE());
#40=CARTESIAN_POINT('',(-5.00000000000000000E-1,1.25000000000000056E-1,2.50000000000000000E-1));
#41=CARTESIAN_POINT('',(-5.00000000000000000E-1,1.25000000000000056E-1,1.02500000000000000E1));
#42=CARTESIAN_POINT('',(-5.00000000000000000E-1,-8.74999999999999889E-1,2.50000000000000000E-1));
#43=CARTESIAN_POINT('',(-5.00000000000000000E-1,-8.74999999999999889E-1,1.02500000000000000E1));
#44=CARTESIAN_POINT('',(-6.12323399573676604E-17,-8.75000000000000000E-1,2.50000000000000000E-1));
#45=CARTESIAN_POINT('',(-6.12323399573676604E-17,-8.75000000000000000E-1,1.02500000000000000E1));
#46=(BOUNDED_SURFACE()B_SPLINE_SURFACE(2,1,((#40,#41),(#42,#43),(#44,#45)),.UNSPECIFIED.,.F.,.F.,.F.)B_SPLINE_SURFACE_WITH_KNOTS((3,3),(2,2),(0.00000000000000000E0,1.00000000000000000E0),(0.00000000000000000E0,1.00000000000000000E0),.UNSPECIFIED.)GEOMETRIC_REPRESENTATION_ITEM()RATIONAL_B_SPLINE_SURFACE(((1.00000000000000000E0,1.00000000000000000E0),(7.07106781186547573E-1,7.07106781186547573E-1),(1.00000000000000000E0,1.00000000000000000E0)))REPRESENTATION_ITEM('')SURFACE());
#47=CARTESIAN_POINT('',(-6.12323399573676604E-17,-8.75000000000000000E-1,2.50000000000000000E-1));
#48=CARTESIAN_POINT('',(-6.12323399573676604E-17,-8.75000000000000000E-1,1.02500000000000000E1));
#49=CARTESIAN_POINT('',(4.99999999999999944E-1,-8.75000000000000222E-1,2.50000000000000000E-1));
#50=CARTESIAN_POINT('',(4.99999999999999944E-1,-8.75000000000000222E-1,1.02500000000000000E1));
#51=CARTESIAN_POINT('',(5.00000000000000000E-1,1.24999999999999820E-1,2.50000000000000000E-1));
#52=CARTESIAN_POINT('',(5.00000000000000000E-1,1.24999999999999820E-1,1.02500000000000000E1));
#53=(BOUNDED_SURFACE()B_SPLINE_SURFACE(2,1,((#47,#48),(#49,#50),(#51,#52)),.UNSPECIFIED.,.F.,.F.,.F.)B_SPLINE_SURFACE_WITH_KNOTS((3,3),(2,2),(0.00000000000000000E0,1.00000000000000000E0),(0.00000000000000000E0,1.00000000000000000E0),.UNSPECIFIED.)GEOMETRIC_REPRESENTATION_ITEM()RATIONAL_B_SPLINE_SURFACE(((1.00000000000000000E0,1.00000000000000000E0),(7.07106781186547573E-1,7.07106781186547573E-1),(1.00000000000000000E0,1.00000000000000000E0)))REPRESENTATION_ITEM('')SURFACE());
#54=CARTESIAN_POINT('',(5.00000000000000000E-1,1.24999999999999820E-1,2.50000000000000000E-1));
#55=CARTESIAN_POINT('',(5.00000000000000000E-1,1.24999999999999820E-1,1.02500000000000000E1));
#56=CARTESIAN_POINT('',(5.00000000000000111E-1,1.12499999999999956E0,2.50000000000000000E-1));
#57=CARTESIAN_POINT('',(5.00000000000000111E-1,1.12499999999999956E0,1.02500000000000000E1));
#58=CARTESIAN_POINT('',(0.00000000000000000E0,1.12500000000000000E0,2.50000000000000000E-1));
#59=CARTESIAN_POINT('',(0.00000000000000000E0,1.12500000000000000E0,1.02500000000000000E1));
#60=(BOUNDED_SURFACE()B_SPLINE_SURFACE(2,1,((#54,#55),(#56,#57),(#58,#59)),.UNSPECIFIED.,.F.,.F.,.F.)B_SPLINE_SURFACE_WITH_KNOTS((3,3),(2,2),(0.00000000000000000E0,1.00000000000000000E0),(0.00000000000000000E0,1.00000000000000000E0),.UNSPECIFIED.)GEOMETRIC_REPRESENTATION_ITEM()RATIONAL_B_SPLINE_SURFACE(((1.00000000000000000E0,1.00000000000000000E0),(7.07106781186547573E-1,7.07106781186547573E-1),(1.00000000000000000E0,1.00000000000000000E0)))REPRESENTATION_ITEM('')SURFACE());
#61=CARTESIAN_POINT('',(0.00000000000000000E0,5.25000000000000022E-1,2.50000000000000000E-1));
#62=CARTESIAN_POINT('',(0.00000000000000000E0,5.25000000000000022E-1,1.02500000000000000E1));
#63=CARTESIAN_POINT('',(1.99999999999999983E-1,5.25000000000000022E-1,2.50000000000000000E-1));
#64=CARTESIAN_POINT('',(1.99999999999999983E-1,5.25000000000000022E-1,1.02500000000000000E1));
#65=CARTESIAN_POINT('',(2.00000000000000011E-1,1.25000000000000028E-1,2.50000000000000000E-1));
#66=CARTESIAN_POINT('',(2.00000000000000011E-1,1.25000000000000028E-1,1.02500000000000000E1));
#67=(BOUNDED_SURFACE()B_SPLINE_SURFACE(2,1,((#61,#62),(#63,#64),(#65,#66)),.UNSPECIFIED.,.F.,.F.,.F.)B_SPLINE_SURFACE_WITH_KNOTS((3,3),(2,2),(0.00000000000000000E0,1.00000000000000000E0),(0.00000000000000000E0,1.00000000000000000E0),.UNSPECIFIED.)GEOMETRIC_REPRESENTATION_ITEM()RATIONAL_B_SPLINE_SURFACE(((1.00000000000000000E0,1.00000000000000000E0),(7.07106781186547573E-1,7.07106781186547573E-1),(1.00000000000000000E0,1.00000000000000000E0)))REPRESENTATION_ITEM('')SURFACE());
#68=CARTESIAN_POINT('',(2.00000000000000011E-1,1.25000000000000028E-1,2.50000000000000000E-1));
#69=CARTESIAN_POINT('',(2.00000000000000011E-1,1.25000000000000028E-1,1.02500000000000000E1));
#70=CARTESIAN_POINT('',(2.00000000000000011E-1,-2.74999999999999967E-1,2.50000000000000000E-1));
#71=CARTESIAN_POINT('',(2.00000000000000011E-1,-2.74999999999999967E-1,1.02500000000000000E1));
#72=CARTESIAN_POINT('',(2.44929359829470654E-17,-2.75000000000000022E-1,2.50000000000000000E-1));
#73=CARTESIAN_POINT('',(2.44929359829470654E-17,-2.75000000000000022E-1,1.02500000000000000E1));
#74=(BOUNDED_SURFACE()B_SPLINE_SURFACE(2,1,((#68,#69),(#70,#71),(#72,#73)),.UNSPECIFIED.,.F.,.F.,.F.)B_SPLINE_SURFACE_WITH_KNOTS((3,3),(2,2),(0.00000000000000000E0,1.00000000000000000E0),(0.00000000000000000E0,1.00000000000000000E0),.UNSPECIFIED.)GEOMETRIC_REPRESENTATION_ITEM()RATIONAL_B_SPLINE_SURFACE(((1.00000000000000000E0,1.00000000000000000E0),(7.07106781186547573E-1,7.07106781186547573E-1),(1.00000000000000000E0,1.00000000000000000E0)))REPRESENTATION_ITEM('')SURFACE());
#75=CARTESIAN_POINT('',(2.44929359829470654E-17,-2.75000000000000022E-1,2.50000000000000000E-1));
#76=CARTESIAN_POINT('',(2.44929359829470654E-17,-2.75000000000000022E-1,1.02500000000000000E1));
#77=CARTESIAN_POINT('',(-1.99999999999999983E-1,-2.75000000000000022E-1,2.50000000000000000E-1));
#78=CARTESIAN_POINT('',(-1.99999999999999983E-1,-2.75000000000000022E-1,1.02500000000000000E1));
#79=CARTESIAN_POINT('',(-2.00000000000000011E-1,1.24999999999999931E-1,2.50000000000000000E-1));
#80=CARTESIAN_POINT('',(-2.00000000000000011E-1,1.24999999999999931E-1,1.02500000000000000E1));
#81=(BOUNDED_SURFACE()B_SPLINE_SURFACE(2,1,((#75,#76),(#77,#78),(#79,#80)),.UNSPECIFIED.,.F.,.F.,.F.)B_SPLINE_SURFACE_WITH_KNOTS((3,3),(2,2),(0.00000000000000000E0,1.00000000000000000E0),(0.00000000000000000E0,1.00000000000000000E0),.UNSPECIFIED.)GEOMETRIC_REPRESENTATION_ITEM()RATIONAL_B_SPLINE_SURFACE(((1.00000000000000000E0,1.00000000000000000E0),(7.07106781186547573E-1,7.07106781186547573E-1),(1.00000000000000000E0,1.00000000000000000E0)))REPRESENTATION_ITEM('')SURFACE());
#82=CARTESIAN_POINT('',(-2.00000000000000011E-1,1.24999999999999931E-1,2.50000000000000000E-1));
#83=CARTESIAN_POINT('',(-2.00000000000000011E-1,1.24999999999999931E-1,1.02500000000000000E1));
#84=CARTESIAN_POINT('',(-2.00000000000000011E-1,5.24999999999999911E-1,2.50000000000000000E-1));
#85=CARTESIAN_POINT('',(-2.00000000000000011E-1,5.24999999999999911E-1,1.02500000000000000E1));
#86=CARTESIAN_POINT('',(0.00000000000000000E0,5.25000000000000022E-1,2.50000000000000000E-1));
#87=CARTESIAN_POINT('',(0.00000000000000000E0,5.25000000000000022E-1,1.02500000000000000E1));
#88=(BOUNDED_SURFACE()B_SPLINE_SURFACE(2,1,((#82,#83),(#84,#85),(#86,#87)),.UNSPECIFIED.,.F.,.F.,.F.)B_SPLINE_SURFACE_WITH_KNOTS((3,3),(2,2),(0.00000000000000000E0,1.00000000000000000E0),(0.00000000000000000E0,1.00000000000000000E0),.UNSPECIFIED.)GEOMETRIC_REPRESENTATION_ITEM()RATIONAL_B_SPLINE_SURFACE(((1.00000000000000000E0,1.00000000000000000E0),(7.07106781186547573E-1,7.07106781186547573E-1),(1.00000000000000000E0,1.00000000000000000E0)))REPRESENTATION_ITEM('')SURFACE());
#89=CARTESIAN_POINT('',(5.00000000000000111E-1,-8.75000000000000222E-1,2.50000000000000000E-1));
#90=CARTESIAN_POINT('',(5.00000000000000111E-1,1.12500000000000000E0,2.50000000000000000E-1));
#91=CARTESIAN_POINT('',(-5.00000000000000000E-1,-8.75000000000000222E-1,2.50000000000000000E-1));
#92=CARTESIAN_POINT('',(-5.00000000000000000E-1,1.12500000000000000E0,2.50000000000000000E-1));
#93=B_SPLINE_SURFACE_WITH_KNOTS('',1,1,((#89,#90),(#91,#92)),.UNSPECIFIED.,.F.,.F.,.F.,(2,2),(2,2),(-5.00000000000000000E-1,5.00000000000000111E-1),(-8.75000000000000222E-1,1.12500000000000000E0),.UNSPECIFIED.);
#94=CARTESIAN_POINT('',(-5.00000000000000000E-1,-8.75000000000000222E-1,1.02500000000000000E1));
#95=CARTESIAN_POINT('',(-5.00000000000000000E-1,1.12500000000000000E0,1.02500000000000000E1));
#96=CARTESIAN_POINT('',(5.00000000000000111E-1,-8.75000000000000222E-1,1.02500000000000000E1));
#97=CARTESIAN_POINT('',(5.00000000000000111E-1,1.12500000000000000E0,1.02500000000000000E1));
#98=B_SPLINE_SURFACE_WITH_KNOTS('',1,1,((#94,#95),(#96,#97)),.UNSPECIFIED.,.F.,.F.,.F.,(2,2),(2,2),(-5.00000000000000000E-1,5.00000000000000111E-1),(-8.75000000000000222E-1,1.12500000000000000E0),.UNSPECIFIED.);
#99=CARTESIAN_POINT('',(0.00000000000000000E0,1.12500000000000000E0,2.50000000000000000E-1));
#100=CARTESIAN_POINT('',(-4.99999999999999944E-1,1.12500000000000000E0,2.50000000000000000E-1));
#101=CARTESIAN_POINT('',(-5.00000000000000000E-1,1.25000000000000056E-1,2.50000000000000000E-1));
#102=(BOUNDED_CURVE()B_SPLINE_CURVE(2,(#99,#100,#101),.UNSPECIFIED.,.F.,.F.)B_SPLINE_CURVE_WITH_KNOTS((3,3),(0.00000000000000000E0,1.00000000000000000E0),.UNSPECIFIED.)CURVE()GEOMETRIC_REPRESENTATION_ITEM()RATIONAL_B_SPLINE_CURVE((1.00000000000000000E0,7.07106781186547573E-1,1.00000000000000000E0))REPRESENTATION_ITEM(''));
#103=CARTESIAN_POINT('',(-5.00000000000000000E-1,1.25000000000000056E-1,2.50000000000000000E-1));
#104=CARTESIAN_POINT('',(-5.00000000000000000E-1,1.25000000000000056E-1,1.02500000000000000E1));
#105=B_SPLINE_CURVE_WITH_KNOTS('',1,(#103,#104),.UNSPECIFIED.,.F.,.F.,(2,2),(0.00000000000000000E0,1.00000000000000000E0),.UNSPECIFIED.);
#106=CARTESIAN_POINT('',(0.00000000000000000E0,1.12500000000000000E0,1.02500000000000000E1));
#107=CARTESIAN_POINT('',(-4.99999999999999944E-1,1.12500000000000000E0,1.02500000000000000E1));
#108=CARTESIAN_POINT('',(-5.00000000000000000E-1,1.25000000000000056E-1,1.02500000000000000E1));
#109=(BOUNDED_CURVE()B_SPLINE_CURVE(2,(#106,#107,#108),.UNSPECIFIED.,.F.,.F.)B_SPLINE_CURVE_WITH_KNOTS((3,3),(0.00000000000000000E0,1.00000000000000000E0),.UNSPECIFIED.)CURVE()GEOMETRIC_REPRESENTATION_ITEM()RATIONAL_B_SPLINE_CURVE((1.00000000000000000E0,7.07106781186547573E-1,1.00000000000000000E0))REPRESENTATION_ITEM(''));
#110=CARTESIAN_POINT('',(0.00000000000000000E0,1.12500000000000000E0,2.50000000000000000E-1));
#111=CARTESIAN_POINT('',(0.00000000000000000E0,1.12500000000000000E0,1.02500000000000000E1));
#112=B_SPLINE_CURVE_WITH_KNOTS('',1,(#110,#111),.UNSPECIFIED.,.F.,.F.,(2,2),(0.00000000000000000E0,1.00000000000000000E0),.UNSPECIFIED.);
#113=CARTESIAN_POINT('',(-5.00000000000000000E-1,1.25000000000000056E-1,2.50000000000000000E-1));
#114=CARTESIAN_POINT('',(-5.00000000000000000E-1,-8.74999999999999889E-1,2.50000000000000000E-1));
#115=CARTESIAN_POINT('',(-6.12323399573676604E-17,-8.75000000000000000E-1,2.50000000000000000E-1));
#116=(BOUNDED_CURVE()B_SPLINE_CURVE(2,(#113,#114,#115),.UNSPECIFIED.,.F.,.F.)B_SPLINE_CURVE_WITH_KNOTS((3,3),(0.00000000000000000E0,1.00000000000000000E0),.UNSPECIFIED.)CURVE()GEOMETRIC_REPRESENTATION_ITEM()RATIONAL_B_SPLINE_CURVE((1.00000000000000000E0,7.07106781186547573E-1,1.00000000000000000E0))REPRESENTATION_ITEM(''));
#117=CARTESIAN_POINT('',(-6.12323399573676604E-17,-8.75000000000000000E-1,2.50000000000000000E-1));
#118=CARTESIAN_POINT('',(-6.12323399573676604E-17,-8.75000000000000000E-1,1.02500000000000000E1));
#119=B_SPLINE_CURVE_WITH_KNOTS('',1,(#117,#118),.UNSPECIFIED.,.F.,.F.,(2,2),(0.00000000000000000E0,1.00000000000000000E0),.UNSPECIFIED.);
#120=CARTESIAN_POINT('',(-5.00000000000000000E-1,1.25000000000000056E-1,1.02500000000000000E1));
#121=CARTESIAN_POINT('',(-5.00000000000000000E-1,-8.74999999999999889E-1,1.02500000000000000E1));
#122=CARTESIAN_POINT('',(-6.12323399573676604E-17,-8.75000000000000000E-1,1.02500000000000000E1));
#123=(BOUNDED_CURVE()B_SPLINE_CURVE(2,(#120,#121,#122),.UNSPECIFIED.,.F.,.F.)B_SPLINE_CURVE_WITH_KNOTS((3,3),(0.00000000000000000E0,1.00000000000000000E0),.UNSPECIFIED.)CURVE()GEOMETRIC_REPRESENTATION_ITEM()RATIONAL_B_SPLINE_CURVE((1.00000000000000000E0,7.07106781186547573E-1,1.00000000000000000E0))REPRESENTATION_ITEM(''));
#124=CARTESIAN_POINT('',(-6.12323399573676604E-17,-8.75000000000000000E-1,2.50000000000000000E-1));
#125=CARTESIAN_POINT('',(4.99999999999999944E-1,-8.75000000000000222E-1,2.50000000000000000E-1));
#126=CARTESIAN_POINT('',(5.00000000000000000E-1,1.24999999999999820E-1,2.50000000000000000E-1));
#127=(BOUNDED_CURVE()B_SPLINE_CURVE(2,(#124,#125,#126),.UNSPECIFIED.,.F.,.F.)B_SPLINE_CURVE_WITH_KNOTS((3,3),(0.00000000000000000E0,1.00000000000000000E0),.UNSPECIFIED.)CURVE()GEOMETRIC_REPRESENTATION_ITEM()RATIONAL_B_SPLINE_CURVE((1.00000000000000000E0,7.07106781186547573E-1,1.00000000000000000E0))REPRESENTATION_ITEM(''));
#128=CARTESIAN_POINT('',(5.00000000000000000E-1,1.24999999999999820E-1,2.50000000000000000E-1));
#129=CARTESIAN_POINT('',(5.00000000000000000E-1,1.24999999999999820E-1,1.02500000000000000E1));
#130=B_SPLINE_CURVE_WITH_KNOTS('',1,(#128,#129),.UNSPECIFIED.,.F.,.F.,(2,2),(0.00000000000000000E0,1.00000000000000000E0),.UNSPECIFIED.);
#131=CARTESIAN_POINT('',(-6.12323399573676604E-17,-8.75000000000000000E-1,1.02500000000000000E1));
#132=CARTESIAN_POINT('',(4.99999999999999944E-1,-8.75000000000000222E-1,1.02500000000000000E1));
#133=CARTESIAN_POINT('',(5.00000000000000000E-1,1.24999999999999820E-1,1.02500000000000000E1));
#134=(BOUNDED_CURVE()B_SPLINE_CURVE(2,(#131,#132,#133),.UNSPECIFIED.,.F.,.F.)B_SPLINE_CURVE_WITH_KNOTS((3,3),(0.00000000000000000E0,1.00000000000000000E0),.UNSPECIFIED.)CURVE()GEOMETRIC_REPRESENTATION_ITEM()RATIONAL_B_SPLINE_CURVE((1.00000000000000000E0,7.07106781186547573E-1,1.00000000000000000E0))REPRESENTATION_ITEM(''));
#135=CARTESIAN_POINT('',(0.00000000000000000E0,1.12500000000000000E0,2.50000000000000000E-1));
#136=CARTESIAN_POINT('',(5.00000000000000111E-1,1.12499999999999956E0,2.50000000000000000E-1));
#137=CARTESIAN_POINT('',(5.00000000000000000E-1,1.24999999999999820E-1,2.50000000000000000E-1));
#138=(BOUNDED_CURVE()B_SPLINE_CURVE(2,(#135,#136,#137),.UNSPECIFIED.,.F.,.F.)B_SPLINE_CURVE_WITH_KNOTS((3,3),(0.00000000000000000E0,1.00000000000000000E0),.UNSPECIFIED.)CURVE()GEOMETRIC_REPRESENTATION_ITEM()RATIONAL_B_SPLINE_CURVE((1.00000000000000000E0,7.07106781186547573E-1,1.00000000000000000E0))REPRESENTATION_ITEM(''));
#139=CARTESIAN_POINT('',(0.00000000000000000E0,1.12500000000000000E0,1.02500000000000000E1));
#140=CARTESIAN_POINT('',(5.00000000000000111E-1,1.12499999999999956E0,1.02500000000000000E1));
#141=CARTESIAN_POINT('',(5.00000000000000000E-1,1.24999999999999820E-1,1.02500000000000000E1));
#142=(BOUNDED_CURVE()B_SPLINE_CURVE(2,(#139,#140,#141),.UNSPECIFIED.,.F.,.F.)B_SPLINE_CURVE_WITH_KNOTS((3,3),(0.00000000000000000E0,1.00000000000000000E0),.UNSPECIFIED.)CURVE()GEOMETRIC_REPRESENTATION_ITEM()RATIONAL_B_SPLINE_CURVE((1.00000000000000000E0,7.07106781186547573E-1,1.00000000000000000E0))REPRESENTATION_ITEM(''));
#143=CARTESIAN_POINT('',(0.00000000000000000E0,5.25000000000000022E-1,2.50000000000000000E-1));
#144=CARTESIAN_POINT('',(1.99999999999999983E-1,5.25000000000000022E-1,2.50000000000000000E-1));
#145=CARTESIAN_POINT('',(2.00000000000000011E-1,1.25000000000000028E-1,2.50000000000000000E-1));
#146=(BOUNDED_CURVE()B_SPLINE_CURVE(2,(#143,#144,#145),.UNSPECIFIED.,.F.,.F.)B_SPLINE_CURVE_WITH_KNOTS((3,3),(0.00000000000000000E0,1.00000000000000000E0),.UNSPECIFIED.)CURVE()GEOMETRIC_REPRESENTATION_ITEM()RATIONAL_B_SPLINE_CURVE((1.00000000000000000E0,7.07106781186547573E-1,1.00000000000000000E0))REPRESENTATION_ITEM(''));
#147=CARTESIAN_POINT('',(2.00000000000000011E-1,1.25000000000000028E-1,2.50000000000000000E-1));
#148=CARTESIAN_POINT('',(2.00000000000000011E-1,1.25000000000000028E-1,1.02500000000000000E1));
#149=B_SPLINE_CURVE_WITH_KNOTS('',1,(#147,#148),.UNSPECIFIED.,.F.,.F.,(2,2),(0.00000000000000000E0,1.00000000000000000E0),.UNSPECIFIED.);
#150=CARTESIAN_POINT('',(0.00000000000000000E0,5.25000000000000022E-1,1.02500000000000000E1));
#151=CARTESIAN_POINT('',(1.99999999999999983E-1,5.25000000000000022E-1,1.02500000000000000E1));
#152=CARTESIAN_POINT('',(2.00000000000000011E-1,1.25000000000000028E-1,1.02500000000000000E1));
#153=(BOUNDED_CURVE()B_SPLINE_CURVE(2,(#150,#151,#152),.UNSPECIFIED.,.F.,.F.)B_SPLINE_CURVE_WITH_KNOTS((3,3),(0.00000000000000000E0,1.00000000000000000E0),.UNSPECIFIED.)CURVE()GEOMETRIC_REPRESENTATION_ITEM()RATIONAL_B_SPLINE_CURVE((1.00000000000000000E0,7.07106781186547573E-1,1.00000000000000000E0))REPRESENTATION_ITEM(''));
#154=CARTESIAN_POINT('',(0.00000000000000000E0,5.25000000000000022E-1,2.50000000000000000E-1));
#155=CARTESIAN_POINT('',(0.00000000000000000E0,5.25000000000000022E-1,1.02500000000000000E1));
#156=B_SPLINE_CURVE_WITH_KNOTS('',1,(#154,#155),.UNSPECIFIED.,.F.,.F.,(2,2),(0.00000000000000000E0,1.00000000000000000E0),.UNSPECIFIED.);
#157=CARTESIAN_POINT('',(2.00000000000000011E-1,1.25000000000000028E-1,2.50000000000000000E-1));
#158=CARTESIAN_POINT('',(2.00000000000000011E-1,-2.74999999999999967E-1,2.50000000000000000E-1));
#159=CARTESIAN_POINT('',(2.44929359829470654E-17,-2.75000000000000022E-1,2.50000000000000000E-1));
#160=(BOUNDED_CURVE()B_SPLINE_CURVE(2,(#157,#158,#159),.UNSPECIFIED.,.F.,.F.)B_SPLINE_CURVE_WITH_KNOTS((3,3),(0.00000000000000000E0,1.00000000000000000E0),.UNSPECIFIED.)CURVE()GEOMETRIC_REPRESENTATION_ITEM()RATIONAL_B_SPLINE_CURVE((1.00000000000000000E0,7.07106781186547573E-1,1.00000000000000000E0))REPRESENTATION_ITEM(''));
#161=CARTESIAN_POINT('',(2.44929359829470654E-17,-2.75000000000000022E-1,2.50000000000000000E-1));
#162=CARTESIAN_POINT('',(2.44929359829470654E-17,-2.75000000000000022E-1,1.02500000000000000E1));
#163=B_SPLINE_CURVE_WITH_KNOTS('',1,(#161,#162),.UNSPECIFIED.,.F.,.F.,(2,2),(0.00000000000000000E0,1.00000000000000000E0),.UNSPECIFIED.);
#164=CARTESIAN_POINT('',(2.00000000000000011E-1,1.25000000000000028E-1,1.02500000000000000E1));
#165=CARTESIAN_POINT('',(2.00000000000000011E-1,-2.74999999999999967E-1,1.02500000000000000E1));
#166=CARTESIAN_POINT('',(2.44929359829470654E-17,-2.75000000000000022E-1,1.02500000000000000E1));
#167=(BOUNDED_CURVE()B_SPLINE_CURVE(2,(#164,#165,#166),.UNSPECIFIED.,.F.,.F.)B_SPLINE_CURVE_WITH_KNOTS((3,3),(0.00000000000000000E0,1.00000000000000000E0),.UNSPECIFIED.)CURVE()GEOMETRIC_REPRESENTATION_ITEM()RATIONAL_B_SPLINE_CURVE((1.00000000000000000E0,7.07106781186547573E-1,1.00000000000000000E0))REPRESENTATION_ITEM(''));
#168=CARTESIAN_POINT('',(2.44929359829470654E-17,-2.75000000000000022E-1,2.50000000000000000E-1));
#169=CARTESIAN_POINT('',(-1.99999999999999983E-1,-2.75000000000000022E-1,2.50000000000000000E-1));
#170=CARTESIAN_POINT('',(-2.00000000000000011E-1,1.24999999999999931E-1,2.50000000000000000E-1));
#171=(BOUNDED_CURVE()B_SPLINE_CURVE(2,(#168,#169,#170),.UNSPECIFIED.,.F.,.F.)B_SPLINE_CURVE_WITH_KNOTS((3,3),(0.00000000000000000E0,1.00000000000000000E0),.UNSPECIFIED.)CURVE()GEOMETRIC_REPRESENTATION_ITEM()RATIONAL_B_SPLINE_CURVE((1.00000000000000000E0,7.07106781186547573E-1,1.00000000000000000E0))REPRESENTATION_ITEM(''));
#172=CARTESIAN_POINT('',(-2.00000000000000011E-1,1.24999999999999931E-1,2.50000000000000000E-1));
#173=CARTESIAN_POINT('',(-2.00000000000000011E-1,1.24999999999999931E-1,1.02500000000000000E1));
#174=B_SPLINE_CURVE_WITH_KNOTS('',1,(#172,#173),.UNSPECIFIED.,.F.,.F.,(2,2),(0.00000000000000000E0,1.00000000000000000E0),.UNSPECIFIED.);
#175=CARTESIAN_POINT('',(2.44929359829470654E-17,-2.75000000000000022E-1,1.02500000000000000E1));
#176=CARTESIAN_POINT('',(-1.99999999999999983E-1,-2.75000000000000022E-1,1.02500000000000000E1));
#177=CARTESIAN_POINT('',(-2.00000000000000011E-1,1.24999999999999931E-1,1.02500000000000000E1));
#178=(BOUNDED_CURVE()B_SPLINE_CURVE(2,(#175,#176,#177),.UNSPECIFIED.,.F.,.F.)B_SPLINE_CURVE_WITH_KNOTS((3,3),(0.00000000000000000E0,1.00000000000000000E0),.UNSPECIFIED.)CURVE()GEOMETRIC_REPRESENTATION_ITEM()RATIONAL_B_SPLINE_CURVE((1.00000000000000000E0,7.07106781186547573E-1,1.00000000000000000E0))REPRESENTATION_ITEM(''));
#179=CARTESIAN_POINT('',(0.00000000000000000E0,5.25000000000000022E-1,2.50000000000000000E-1));
#180=CARTESIAN_POINT('',(-2.00000000000000011E-1,5.24999999999999911E-1,2.50000000000000000E-1));
#181=CARTESIAN_POINT('',(-2.00000000000000011E-1,1.24999999999999931E-1,2.50000000000000000E-1));
#182=(BOUNDED_CURVE()B_SPLINE_CURVE(2,(#179,#180,#181),.UNSPECIFIED.,.F.,.F.)B_SPLINE_CURVE_WITH_KNOTS((3,3),(0.00000000000000000E0,1.00000000000000000E0),.UNSPECIFIED.)CURVE()GEOMETRIC_REPRESENTATION_ITEM()RATIONAL_B_SPLINE_CURVE((1.00000000000000000E0,7.07106781186547573E-1,1.00000000000000000E0))REPRESENTATION_ITEM(''));
#183=CARTESIAN_POINT('',(0.00000000000000000E0,5.25000000000000022E-1,1.02500000000000000E1));
#184=CARTESIAN_POINT('',(-2.00000000000000011E-1,5.24999999999999911E-1,1.02500000000000000E1));
#185=CARTESIAN_POINT('',(-2.00000000000000011E-1,1.24999999999999931E-1,1.02500000000000000E1));
#186=(BOUNDED_CURVE()B_SPLINE_CURVE(2,(#183,#184,#185),.UNSPECIFIED.,.F.,.F.)B_SPLINE_CURVE_WITH_KNOTS((3,3),(0.00000000000000000E0,1.00000000000000000E0),.UNSPECIFIED.)CURVE()GEOMETRIC_REPRESENTATION_ITEM()RATIONAL_B_SPLINE_CURVE((1.00000000000000000E0,7.07106781186547573E-1,1.00000000000000000E0))REPRESENTATION_ITEM(''));
#187=(GEOMETRIC_REPRESENTATION_CONTEXT(2)REPRESENTATION_CONTEXT('','2D'));
#188=CARTESIAN_POINT('',(0.00000000000000000E0,0.00000000000000000E0));
#189=CARTESIAN_POINT('',(1.00000000000000000E0,0.00000000000000000E0));
#190=B_SPLINE_CURVE_WITH_KNOTS('',1,(#188,#189),.UNSPECIFIED.,.F.,.F.,(2,2),(0.00000000000000000E0,1.00000000000000000E0),.UNSPECIFIED.);
#191=DEFINITIONAL_REPRESENTATION('',(#190),#187);
#192=PCURVE('',#39,#191);
#193=CARTESIAN_POINT('',(1.00000000000000000E0,0.00000000000000000E0));
#194=CARTESIAN_POINT('',(1.00000000000000000E0,1.00000000000000000E0));
#195=B_SPLINE_CURVE_WITH_KNOTS('',1,(#193,#194),.UNSPECIFIED.,.F.,.F.,(2,2),(0.00000000000000000E0,1.00000000000000000E0),.UNSPECIFIED.);
#196=DEFINITIONAL_REPRESENTATION('',(#195),#187);
#197=PCURVE('',#39,#196);
#198=CARTESIAN_POINT('',(1.00000000000000000E0,1.00000000000000000E0));
#199=CARTESIAN_POINT('',(0.00000000000000000E0,1.00000000000000000E0));
#200=B_SPLINE_CURVE_WITH_KNOTS('',1,(#198,#199),.UNSPECIFIED.,.F.,.F.,(2,2),(0.00000000000000000E0,1.00000000000000000E0),.UNSPECIFIED.);
#201=DEFINITIONAL_REPRESENTATION('',(#200),#187);
#202=PCURVE('',#39,#201);
#203=CARTESIAN_POINT('',(0.00000000000000000E0,1.00000000000000000E0));
#204=CARTESIAN_POINT('',(0.00000000000000000E0,0.00000000000000000E0));
#205=B_SPLINE_CURVE_WITH_KNOTS('',1,(#203,#204),.UNSPECIFIED.,.F.,.F.,(2,2),(0.00000000000000000E0,1.00000000000000000E0),.UNSPECIFIED.);
#206=DEFINITIONAL_REPRESENTATION('',(#205),#187);
#207=PCURVE('',#39,#206);
#208=CARTESIAN_POINT('',(0.00000000000000000E0,0.00000000000000000E0));
#209=CARTESIAN_POINT('',(1.00000000000000000E0,0.00000000000000000E0));
#210=B_SPLINE_CURVE_WITH_KNOTS('',1,(#208,#209),.UNSPECIFIED.,.F.,.F.,(2,2),(0.00000000000000000E0,1.00000000000000000E0),.UNSPECIFIED.);
#211=DEFINITIONAL_REPRESENTATION('',(#210),#187);
#212=PCURVE('',#46,#211);
#213=CARTESIAN_POINT('',(1.00000000000000000E0,0.00000000000000000E0));
#214=CARTESIAN_POINT('',(1.00000000000000000E0,1.00000000000000000E0));
#215=B_SPLINE_CURVE_WITH_KNOTS('',1,(#213,#214),.UNSPECIFIED.,.F.,.F.,(2,2),(0.00000000000000000E0,1.00000000000000000E0),.UNSPECIFIED.);
#216=DEFINITIONAL_REPRESENTATION('',(#215),#187);
#217=PCURVE('',#46,#216);
#218=CARTESIAN_POINT('',(1.00000000000000000E0,1.00000000000000000E0));
#219=CARTESIAN_POINT('',(0.00000000000000000E0,1.00000000000000000E0));
#220=B_SPLINE_CURVE_WITH_KNOTS('',1,(#218,#219),.UNSPECIFIED.,.F.,.F.,(2,2),(0.00000000000000000E0,1.00000000000000000E0),.UNSPECIFIED.);
#221=DEFINITIONAL_REPRESENTATION('',(#220),#187);
#222=PCURVE('',#46,#221);
#223=CARTESIAN_POINT('',(0.00000000000000000E0,1.00000000000000000E0));
#224=CARTESIAN_POINT('',(0.00000000000000000E0,0.00000000000000000E0));
#225=B_SPLINE_CURVE_WITH_KNOTS('',1,(#223,#224),.UNSPECIFIED.,.F.,.F.,(2,2),(0.00000000000000000E0,1.00000000000000000E0),.UNSPECIFIED.);
#226=DEFINITIONAL_REPRESENTATION('',(#225),#187);
#227=PCURVE('',#46,#226);
#228=CARTESIAN_POINT('',(0.00000000000000000E0,0.00000000000000000E0));
#229=CARTESIAN_POINT('',(1.00000000000000000E0,0.00000000000000000E0));
#230=B_SPLINE_CURVE_WITH_KNOTS('',1,(#228,#229),.UNSPECIFIED.,.F.,.F.,(2,2),(0.00000000000000000E0,1.00000000000000000E0),.UNSPECIFIED.);
#231=DEFINITIONAL_REPRESENTATION('',(#230),#187);
#232=PCURVE('',#53,#231);
#233=CARTESIAN_POINT('',(1.00000000000000000E0,0.00000000000000000E0));
#234=CARTESIAN_POINT('',(1.00000000000000000E0,1.00000000000000000E0));
#235=B_SPLINE_CURVE_WITH_KNOTS('',1,(#233,#234),.UNSPECIFIED.,.F.,.F.,(2,2),(0.00000000000000000E0,1.00000000000000000E0),.UNSPECIFIED.);
#236=DEFINITIONAL_REPRESENTATION('',(#235),#187);
#237=PCURVE('',#53,#236);
#238=CARTESIAN_POINT('',(1.00000000000000000E0,1.00000000000000000E0));
#239=CARTESIAN_POINT('',(0.00000000000000000E0,1.00000000000000000E0));
#240=B_SPLINE_CURVE_WITH_KNOTS('',1,(#238,#239),.UNSPECIFIED.,.F.,.F.,(2,2),(0.00000000000000000E0,1.00000000000000000E0),.UNSPECIFIED.);
#241=DEFINITIONAL_REPRESENTATION('',(#240),#187);
#242=PCURVE('',#53,#241);
#243=CARTESIAN_POINT('',(0.00000000000000000E0,1.00000000000000000E0));
#244=CARTESIAN_POINT('',(0.00000000000000000E0,0.00000000000000000E0));
#245=B_SPLINE_CURVE_WITH_KNOTS('',1,(#243,#244),.UNSPECIFIED.,.F.,.F.,(2,2),(0.00000000000000000E0,1.00000000000000000E0),.UNSPECIFIED.);
#246=DEFINITIONAL_REPRESENTATION('',(#245),#187);
#247=PCURVE('',#53,#246);
#248=CARTESIAN_POINT('',(0.00000000000000000E0,0.00000000000000000E0));
#249=CARTESIAN_POINT('',(1.00000000000000000E0,0.00000000000000000E0));
#250=B_SPLINE_CURVE_WITH_KNOTS('',1,(#248,#249),.UNSPECIFIED.,.F.,.F.,(2,2),(0.00000000000000000E0,1.00000000000000000E0),.UNSPECIFIED.);
#251=DEFINITIONAL_REPRESENTATION('',(#250),#187);
#252=PCURVE('',#60,#251);
#253=CARTESIAN_POINT('',(1.00000000000000000E0,0.00000000000000000E0));
#254=CARTESIAN_POINT('',(1.00000000000000000E0,1.00000000000000000E0));
#255=B_SPLINE_CURVE_WITH_KNOTS('',1,(#253,#254),.UNSPECIFIED.,.F.,.F.,(2,2),(0.00000000000000000E0,1.00000000000000000E0),.UNSPECIFIED.);
#256=DEFINITIONAL_REPRESENTATION('',(#255),#187);
#257=PCURVE('',#60,#256);
#258=CARTESIAN_POINT('',(1.00000000000000000E0,1.00000000000000000E0));
#259=CARTESIAN_POINT('',(0.00000000000000000E0,1.00000000000000000E0));
#260=B_SPLINE_CURVE_WITH_KNOTS('',1,(#258,#259),.UNSPECIFIED.,.F.,.F.,(2,2),(0.00000000000000000E0,1.00000000000000000E0),.UNSPECIFIED.);
#261=DEFINITIONAL_REPRESENTATION('',(#260),#187);
#262=PCURVE('',#60,#261);
#263=CARTESIAN_POINT('',(0.00000000000000000E0,1.00000000000000000E0));
#264=CARTESIAN_POINT('',(0.00000000000000000E0,0.00000000000000000E0));
#265=B_SPLINE_CURVE_WITH_KNOTS('',1,(#263,#264),.UNSPECIFIED.,.F.,.F.,(2,2),(0.00000000000000000E0,1.00000000000000000E0),.UNSPECIFIED.);
#266=DEFINITIONAL_REPRESENTATION('',(#265),#187);
#267=PCURVE('',#60,#266);
#268=CARTESIAN_POINT('',(0.00000000000000000E0,0.00000000000000000E0));
#269=CARTESIAN_POINT('',(1.00000000000000000E0,0.00000000000000000E0));
#270=B_SPLINE_CURVE_WITH_KNOTS('',1,(#268,#269),.UNSPECIFIED.,.F.,.F.,(2,2),(0.00000000000000000E0,1.00000000000000000E0),.UNSPECIFIED.);
#271=DEFINITIONAL_REPRESENTATION('',(#270),#187);
#272=PCURVE('',#67,#271);
#273=CARTESIAN_POINT('',(1.00000000000000000E0,0.00000000000000000E0));
#274=CARTESIAN_POINT('',(1.00000000000000000E0,1.00000000000000000E0));
#275=B_SPLINE_CURVE_WITH_KNOTS('',1,(#273,#274),.UNSPECIFIED.,.F.,.F.,(2,2),(0.00000000000000000E0,1.00000000000000000E0),.UNSPECIFIED.);
#276=DEFINITIONAL_REPRESENTATION('',(#275),#187);
#277=PCURVE('',#67,#276);
#278=CARTESIAN_POINT('',(1.00000000000000000E0,1.00000000000000000E0));
#279=CARTESIAN_POINT('',(0.00000000000000000E0,1.00000000000000000E0));
#280=B_SPLINE_CURVE_WITH_KNOTS('',1,(#278,#279),.UNSPECIFIED.,.F.,.F.,(2,2),(0.00000000000000000E0,1.00000000000000000E0),.UNSPECIFIED.);
#281=DEFINITIONAL_REPRESENTATION('',(#280),#187);
#282=PCURVE('',#67,#281);
#283=CARTESIAN_POINT('',(0.00000000000000000E0,1.00000000000000000E0));
#284=CARTESIAN_POINT('',(0.00000000000000000E0,0.00000000000000000E0));
#285=B_SPLINE_CURVE_WITH_KNOTS('',1,(#283,#284),.UNSPECIFIED.,.F.,.F.,(2,2),(0.00000000000000000E0,1.00000000000000000E0),.UNSPECIFIED.);
#286=DEFINITIONAL_REPRESENTATION('',(#285),#187);
#287=PCURVE('',#67,#286);
#288=CARTESIAN_POINT('',(0.00000000000000000E0,0.00000000000000000E0));
#289=CARTESIAN_POINT('',(1.00000000000000000E0,0.00000000000000000E0));
#290=B_SPLINE_CURVE_WITH_KNOTS('',1,(#288,#289),.UNSPECIFIED.,.F.,.F.,(2,2),(0.00000000000000000E0,1.00000000000000000E0),.UNSPECIFIED.);
#291=DEFINITIONAL_REPRESENTATION('',(#290),#187);
#292=PCURVE('',#74,#291);
#293=CARTESIAN_POINT('',(1.00000000000000000E0,0.00000000000000000E0));
#294=CARTESIAN_POINT('',(1.00000000000000000E0,1.00000000000000000E0));
#295=B_SPLINE_CURVE_WITH_KNOTS('',1,(#293,#294),.UNSPECIFIED.,.F.,.F.,(2,2),(0.00000000000000000E0,1.00000000000000000E0),.UNSPECIFIED.);
#296=DEFINITIONAL_REPRESENTATION('',(#295),#187);
#297=PCURVE('',#74,#296);
#298=CARTESIAN_POINT('',(1.00000000000000000E0,1.00000000000000000E0));
#299=CARTESIAN_POINT('',(0.00000000000000000E0,1.00000000000000000E0));
#300=B_SPLINE_CURVE_WITH_KNOTS('',1,(#298,#299),.UNSPECIFIED.,.F.,.F.,(2,2),(0.00000000000000000E0,1.00000000000000000E0),.UNSPECIFIED.);
#301=DEFINITIONAL_REPRESENTATION('',(#300),#187);
#302=PCURVE('',#74,#301);
#303=CARTESIAN_POINT('',(0.00000000000000000E0,1.00000000000000000E0));
#304=CARTESIAN_POINT('',(0.00000000000000000E0,0.00000000000000000E0));
#305=B_SPLINE_CURVE_WITH_KNOTS('',1,(#303,#304),.UNSPECIFIED.,.F.,.F.,(2,2),(0.00000000000000000E0,1.00000000000000000E0),.UNSPECIFIED.);
#306=DEFINITIONAL_REPRESENTATION('',(#305),#187);
#307=PCURVE('',#74,#306);
#308=CARTESIAN_POINT('',(0.00000000000000000E0,0.00000000000000000E0));
#309=CARTESIAN_POINT('',(1.00000000000000000E0,0.00000000000000000E0));
#310=B_SPLINE_CURVE_WITH_KNOTS('',1,(#308,#309),.UNSPECIFIED.,.F.,.F.,(2,2),(0.00000000000000000E0,1.00000000000000000E0),.UNSPECIFIED.);
#311=DEFINITIONAL_REPRESENTATION('',(#310),#187);
#312=PCURVE('',#81,#311);
#313=CARTESIAN_POINT('',(1.00000000000000000E0,0.00000000000000000E0));
#314=CARTESIAN_POINT('',(1.00000000000000000E0,1.00000000000000000E0));
#315=B_SPLINE_CURVE_WITH_KNOTS('',1,(#313,#314),.UNSPECIFIED.,.F.,.F.,(2,2),(0.00000000000000000E0,1.00000000000000000E0),.UNSPECIFIED.);
#316=DEFINITIONAL_REPRESENTATION('',(#315),#187);
#317=PCURVE('',#81,#316);
#318=CARTESIAN_POINT('',(1.00000000000000000E0,1.00000000000000000E0));
#319=CARTESIAN_POINT('',(0.00000000000000000E0,1.00000000000000000E0));
#320=B_SPLINE_CURVE_WITH_KNOTS('',1,(#318,#319),.UNSPECIFIED.,.F.,.F.,(2,2),(0.00000000000000000E0,1.00000000000000000E0),.UNSPECIFIED.);
#321=DEFINITIONAL_REPRESENTATION('',(#320),#187);
#322=PCURVE('',#81,#321);
#323=CARTESIAN_POINT('',(0.00000000000000000E0,1.00000000000000000E0));
#324=CARTESIAN_POINT('',(0.00000000000000000E0,0.00000000000000000E0));
#325=B_SPLINE_CURVE_WITH_KNOTS('',1,(#323,#324),.UNSPECIFIED.,.F.,.F.,(2,2),(0.00000000000000000E0,1.00000000000000000E0),.UNSPECIFIED.);
#326=DEFINITIONAL_REPRESENTATION('',(#325),#187);
#327=PCURVE('',#81,#326);
#328=CARTESIAN_POINT('',(0.00000000000000000E0,0.00000000000000000E0));
#329=CARTESIAN_POINT('',(1.00000000000000000E0,0.00000000000000000E0));
#330=B_SPLINE_CURVE_WITH_KNOTS('',1,(#328,#329),.UNSPECIFIED.,.F.,.F.,(2,2),(0.00000000000000000E0,1.00000000000000000E0),.UNSPECIFIED.);
#331=DEFINITIONAL_REPRESENTATION('',(#330),#187);
#332=PCURVE('',#88,#331);
#333=CARTESIAN_POINT('',(1.00000000000000000E0,0.00000000000000000E0));
#334=CARTESIAN_POINT('',(1.00000000000000000E0,1.00000000000000000E0));
#335=B_SPLINE_CURVE_WITH_KNOTS('',1,(#333,#334),.UNSPECIFIED.,.F.,.F.,(2,2),(0.00000000000000000E0,1.00000000000000000E0),.UNSPECIFIED.);
#336=DEFINITIONAL_REPRESENTATION('',(#335),#187);
#337=PCURVE('',#88,#336);
#338=CARTESIAN_POINT('',(1.00000000000000000E0,1.00000000000000000E0));
#339=CARTESIAN_POINT('',(0.00000000000000000E0,1.00000000000000000E0));
#340=B_SPLINE_CURVE_WITH_KNOTS('',1,(#338,#339),.UNSPECIFIED.,.F.,.F.,(2,2),(0.00000000000000000E0,1.00000000000000000E0),.UNSPECIFIED.);
#341=DEFINITIONAL_REPRESENTATION('',(#340),#187);
#342=PCURVE('',#88,#341);
#343=CARTESIAN_POINT('',(0.00000000000000000E0,1.00000000000000000E0));
#344=CARTESIAN_POINT('',(0.00000000000000000E0,0.00000000000000000E0));
#345=B_SPLINE_CURVE_WITH_KNOTS('',1,(#343,#344),.UNSPECIFIED.,.F.,.F.,(2,2),(0.00000000000000000E0,1.00000000000000000E0),.UNSPECIFIED.);
#346=DEFINITIONAL_REPRESENTATION('',(#345),#187);
#347=PCURVE('',#88,#346);
#348=CARTESIAN_POINT('',(1.11022302462515654E-16,1.12500000000000000E0));
#349=CARTESIAN_POINT('',(-5.00000000000000000E-1,1.12499999999999956E0));
#350=CARTESIAN_POINT('',(-4.99999999999999889E-1,1.24999999999999820E-1));
#351=(BOUNDED_CURVE()B_SPLINE_CURVE(2,(#348,#349,#350),.UNSPECIFIED.,.F.,.F.)B_SPLINE_CURVE_WITH_KNOTS((3,3),(0.00000000000000000E0,1.00000000000000000E0),.UNSPECIFIED.)CURVE()GEOMETRIC_REPRESENTATION_ITEM()RATIONAL_B_SPLINE_CURVE((1.00000000000000000E0,7.07106781186547573E-1,1.00000000000000000E0))REPRESENTATION_ITEM(''));
#352=DEFINITIONAL_REPRESENTATION('',(#351),#187);
#353=PCURVE('',#93,#352);
#354=CARTESIAN_POINT('',(-4.99999999999999889E-1,1.24999999999999820E-1));
#355=CARTESIAN_POINT('',(-4.99999999999999833E-1,-8.75000000000000222E-1));
#356=CARTESIAN_POINT('',(1.72254642419883327E-16,-8.75000000000000000E-1));
#357=(BOUNDED_CURVE()B_SPLINE_CURVE(2,(#354,#355,#356),.UNSPECIFIED.,.F.,.F.)B_SPLINE_CURVE_WITH_KNOTS((3,3),(0.00000000000000000E0,1.00000000000000000E0),.UNSPECIFIED.)CURVE()GEOMETRIC_REPRESENTATION_ITEM()RATIONAL_B_SPLINE_CURVE((1.00000000000000000E0,7.07106781186547573E-1,1.00000000000000000E0))REPRESENTATION_ITEM(''));
#358=DEFINITIONAL_REPRESENTATION('',(#357),#187);
#359=PCURVE('',#93,#358);
#360=CARTESIAN_POINT('',(1.72254642419883327E-16,-8.75000000000000000E-1));
#361=CARTESIAN_POINT('',(5.00000000000000111E-1,-8.74999999999999889E-1));
#362=CARTESIAN_POINT('',(5.00000000000000111E-1,1.25000000000000056E-1));
#363=(BOUNDED_CURVE()B_SPLINE_CURVE(2,(#360,#361,#362),.UNSPECIFIED.,.F.,.F.)B_SPLINE_CURVE_WITH_KNOTS((3,3),(0.00000000000000000E0,1.00000000000000000E0),.UNSPECIFIED.)CURVE()GEOMETRIC_REPRESENTATION_ITEM()RATIONAL_B_SPLINE_CURVE((1.00000000000000000E0,7.07106781186547573E-1,1.00000000000000000E0))REPRESENTATION_ITEM(''));
#364=DEFINITIONAL_REPRESENTATION('',(#363),#187);
#365=PCURVE('',#93,#364);
#366=CARTESIAN_POINT('',(5.00000000000000111E-1,1.25000000000000056E-1));
#367=CARTESIAN_POINT('',(5.00000000000000000E-1,1.12500000000000000E0));
#368=CARTESIAN_POINT('',(1.11022302462515654E-16,1.12500000000000000E0));
#369=(BOUNDED_CURVE()B_SPLINE_CURVE(2,(#366,#367,#368),.UNSPECIFIED.,.F.,.F.)B_SPLINE_CURVE_WITH_KNOTS((3,3),(0.00000000000000000E0,1.00000000000000000E0),.UNSPECIFIED.)CURVE()GEOMETRIC_REPRESENTATION_ITEM()RATIONAL_B_SPLINE_CURVE((1.00000000000000000E0,7.07106781186547573E-1,1.00000000000000000E0))REPRESENTATION_ITEM(''));
#370=DEFINITIONAL_REPRESENTATION('',(#369),#187);
#371=PCURVE('',#93,#370);
#372=CARTESIAN_POINT('',(1.11022302462515654E-16,5.25000000000000022E-1));
#373=CARTESIAN_POINT('',(2.00000000000000122E-1,5.24999999999999911E-1));
#374=CARTESIAN_POINT('',(2.00000000000000122E-1,1.24999999999999931E-1));
#375=(BOUNDED_CURVE()B_SPLINE_CURVE(2,(#372,#373,#374),.UNSPECIFIED.,.F.,.F.)B_SPLINE_CURVE_WITH_KNOTS((3,3),(0.00000000000000000E0,1.00000000000000000E0),.UNSPECIFIED.)CURVE()GEOMETRIC_REPRESENTATION_ITEM()RATIONAL_B_SPLINE_CURVE((1.00000000000000000E0,7.07106781186547573E-1,1.00000000000000000E0))REPRESENTATION_ITEM(''));
#376=DEFINITIONAL_REPRESENTATION('',(#375),#187);
#377=PCURVE('',#93,#376);
#378=CARTESIAN_POINT('',(2.00000000000000122E-1,1.24999999999999931E-1));
#379=CARTESIAN_POINT('',(2.00000000000000094E-1,-2.75000000000000022E-1));
#380=CARTESIAN_POINT('',(8.65293664795685948E-17,-2.75000000000000022E-1));
#381=(BOUNDED_CURVE()B_SPLINE_CURVE(2,(#378,#379,#380),.UNSPECIFIED.,.F.,.F.)B_SPLINE_CURVE_WITH_KNOTS((3,3),(0.00000000000000000E0,1.00000000000000000E0),.UNSPECIFIED.)CURVE()GEOMETRIC_REPRESENTATION_ITEM()RATIONAL_B_SPLINE_CURVE((1.00000000000000000E0,7.07106781186547573E-1,1.00000000000000000E0))REPRESENTATION_ITEM(''));
#382=DEFINITIONAL_REPRESENTATION('',(#381),#187);
#383=PCURVE('',#93,#382);
#384=CARTESIAN_POINT('',(8.65293664795685948E-17,-2.75000000000000022E-1));
#385=CARTESIAN_POINT('',(-1.99999999999999900E-1,-2.74999999999999967E-1));
#386=CARTESIAN_POINT('',(-1.99999999999999900E-1,1.25000000000000028E-1));
#387=(BOUNDED_CURVE()B_SPLINE_CURVE(2,(#384,#385,#386),.UNSPECIFIED.,.F.,.F.)B_SPLINE_CURVE_WITH_KNOTS((3,3),(0.00000000000000000E0,1.00000000000000000E0),.UNSPECIFIED.)CURVE()GEOMETRIC_REPRESENTATION_ITEM()RATIONAL_B_SPLINE_CURVE((1.00000000000000000E0,7.07106781186547573E-1,1.00000000000000000E0))REPRESENTATION_ITEM(''));
#388=DEFINITIONAL_REPRESENTATION('',(#387),#187);
#389=PCURVE('',#93,#388);
#390=CARTESIAN_POINT('',(-1.99999999999999900E-1,1.25000000000000028E-1));
#391=CARTESIAN_POINT('',(-1.99999999999999872E-1,5.25000000000000022E-1));
#392=CARTESIAN_POINT('',(1.11022302462515654E-16,5.25000000000000022E-1));
#393=(BOUNDED_CURVE()B_SPLINE_CURVE(2,(#390,#391,#392),.UNSPECIFIED.,.F.,.F.)B_SPLINE_CURVE_WITH_KNOTS((3,3),(0.00000000000000000E0,1.00000000000000000E0),.UNSPECIFIED.)CURVE()GEOMETRIC_REPRESENTATION_ITEM()RATIONAL_B_SPLINE_CURVE((1.00000000000000000E0,7.07106781186547573E-1,1.00000000000000000E0))REPRESENTATION_ITEM(''));
#394=DEFINITIONAL_REPRESENTATION('',(#393),#187);
#395=PCURVE('',#93,#394);
#396=CARTESIAN_POINT('',(0.00000000000000000E0,1.12500000000000000E0));
#397=CARTESIAN_POINT('',(-4.99999999999999944E-1,1.12500000000000000E0));
#398=CARTESIAN_POINT('',(-5.00000000000000000E-1,1.25000000000000056E-1));
#399=(BOUNDED_CURVE()B_SPLINE_CURVE(2,(#396,#397,#398),.UNSPECIFIED.,.F.,.F.)B_SPLINE_CURVE_WITH_KNOTS((3,3),(0.00000000000000000E0,1.00000000000000000E0),.UNSPECIFIED.)CURVE()GEOMETRIC_REPRESENTATION_ITEM()RATIONAL_B_SPLINE_CURVE((1.00000000000000000E0,7.07106781186547573E-1,1.00000000000000000E0))REPRESENTATION_ITEM(''));
#400=DEFINITIONAL_REPRESENTATION('',(#399),#187);
#401=PCURVE('',#98,#400);
#402=CARTESIAN_POINT('',(-5.00000000000000000E-1,1.25000000000000056E-1));
#403=CARTESIAN_POINT('',(-5.00000000000000000E-1,-8.74999999999999889E-1));
#404=CARTESIAN_POINT('',(-6.12323399573676604E-17,-8.75000000000000000E-1));
#405=(BOUNDED_CURVE()B_SPLINE_CURVE(2,(#402,#403,#404),.UNSPECIFIED.,.F.,.F.)B_SPLINE_CURVE_WITH_KNOTS((3,3),(0.00000000000000000E0,1.00000000000000000E0),.UNSPECIFIED.)CURVE()GEOMETRIC_REPRESENTATION_ITEM()RATIONAL_B_SPLINE_CURVE((1.00000000000000000E0,7.07106781186547573E-1,1.00000000000000000E0))REPRESENTATION_ITEM(''));
#406=DEFINITIONAL_REPRESENTATION('',(#405),#187);
#407=PCURVE('',#98,#406);
#408=CARTESIAN_POINT('',(-6.12323399573676604E-17,-8.75000000000000000E-1));
#409=CARTESIAN_POINT('',(4.99999999999999944E-1,-8.75000000000000222E-1));
#410=CARTESIAN_POINT('',(5.00000000000000000E-1,1.24999999999999820E-1));
#411=(BOUNDED_CURVE()B_SPLINE_CURVE(2,(#408,#409,#410),.UNSPECIFIED.,.F.,.F.)B_SPLINE_CURVE_WITH_KNOTS((3,3),(0.00000000000000000E0,1.00000000000000000E0),.UNSPECIFIED.)CURVE()GEOMETRIC_REPRESENTATION_ITEM()RATIONAL_B_SPLINE_CURVE((1.00000000000000000E0,7.07106781186547573E-1,1.00000000000000000E0))REPRESENTATION_ITEM(''));
#412=DEFINITIONAL_REPRESENTATION('',(#411),#187);
#413=PCURVE('',#98,#412);
#414=CARTESIAN_POINT('',(5.00000000000000000E-1,1.24999999999999820E-1));
#415=CARTESIAN_POINT('',(5.00000000000000111E-1,1.12499999999999956E0));
#416=CARTESIAN_POINT('',(0.00000000000000000E0,1.12500000000000000E0));
#417=(BOUNDED_CURVE()B_SPLINE_CURVE(2,(#414,#415,#416),.UNSPECIFIED.,.F.,.F.)B_SPLINE_CURVE_WITH_KNOTS((3,3),(0.00000000000000000E0,1.00000000000000000E0),.UNSPECIFIED.)CURVE()GEOMETRIC_REPRESENTATION_ITEM()RATIONAL_B_SPLINE_CURVE((1.00000000000000000E0,7.07106781186547573E-1,1.00000000000000000E0))REPRESENTATION_ITEM(''));
#418=DEFINITIONAL_REPRESENTATION('',(#417),#187);
#419=PCURVE('',#98,#418);
#420=CARTESIAN_POINT('',(0.00000000000000000E0,5.25000000000000022E-1));
#421=CARTESIAN_POINT('',(1.99999999999999983E-1,5.25000000000000022E-1));
#422=CARTESIAN_POINT('',(2.00000000000000011E-1,1.25000000000000028E-1));
#423=(BOUNDED_CURVE()B_SPLINE_CURVE(2,(#420,#421,#422),.UNSPECIFIED.,.F.,.F.)B_SPLINE_CURVE_WITH_KNOTS((3,3),(0.00000000000000000E0,1.00000000000000000E0),.UNSPECIFIED.)CURVE()GEOMETRIC_REPRESENTATION_ITEM()RATIONAL_B_SPLINE_CURVE((1.00000000000000000E0,7.07106781186547573E-1,1.00000000000000000E0))REPRESENTATION_ITEM(''));
#424=DEFINITIONAL_REPRESENTATION('',(#423),#187);
#425=PCURVE('',#98,#424);
#426=CARTESIAN_POINT('',(2.00000000000000011E-1,1.25000000000000028E-1));
#427=CARTESIAN_POINT('',(2.00000000000000011E-1,-2.74999999999999967E-1));
#428=CARTESIAN_POINT('',(2.44929359829470654E-17,-2.75000000000000022E-1));
#429=(BOUNDED_CURVE()B_SPLINE_CURVE(2,(#426,#427,#428),.UNSPECIFIED.,.F.,.F.)B_SPLINE_CURVE_WITH_KNOTS((3,3),(0.00000000000000000E0,1.00000000000000000E0),.UNSPECIFIED.)CURVE()GEOMETRIC_REPRESENTATION_ITEM()RATIONAL_B_SPLINE_CURVE((1.00000000000000000E0,7.07106781186547573E-1,1.00000000000000000E0))REPRESENTATION_ITEM(''));
#430=DEFINITIONAL_REPRESENTATION('',(#429),#187);
#431=PCURVE('',#98,#430);
#432=CARTESIAN_POINT('',(2.44929359829470654E-17,-2.75000000000000022E-1));
#433=CARTESIAN_POINT('',(-1.99999999999999983E-1,-2.75000000000000022E-1));
#434=CARTESIAN_POINT('',(-2.00000000000000011E-1,1.24999999999999931E-1));
#435=(BOUNDED_CURVE()B_SPLINE_CURVE(2,(#432,#433,#434),.UNSPECIFIED.,.F.,.F.)B_SPLINE_CURVE_WITH_KNOTS((3,3),(0.00000000000000000E0,1.00000000000000000E0),.UNSPECIFIED.)CURVE()GEOMETRIC_REPRESENTATION_ITEM()RATIONAL_B_SPLINE_CURVE((1.00000000000000000E0,7.07106781186547573E-1,1.00000000000000000E0))REPRESENTATION_ITEM(''));
#436=DEFINITIONAL_REPRESENTATION('',(#435),#187);
#437=PCURVE('',#98,#436);
#438=CARTESIAN_POINT('',(-2.00000000000000011E-1,1.24999999999999931E-1));
#439=CARTESIAN_POINT('',(-2.00000000000000011E-1,5.24999999999999911E-1));
#440=CARTESIAN_POINT('',(0.00000000000000000E0,5.25000000000000022E-1));
#441=(BOUNDED_CURVE()B_SPLINE_CURVE(2,(#438,#439,#440),.UNSPECIFIED.,.F.,.F.)B_SPLINE_CURVE_WITH_KNOTS((3,3),(0.00000000000000000E0,1.00000000000000000E0),.UNSPECIFIED.)CURVE()GEOMETRIC_REPRESENTATION_ITEM()RATIONAL_B_SPLINE_CURVE((1.00000000000000000E0,7.07106781186547573E-1,1.00000000000000000E0))REPRESENTATION_ITEM(''));
#442=DEFINITIONAL_REPRESENTATION('',(#441),#187);
#443=PCURVE('',#98,#442);
#444=SURFACE_CURVE('',#102,(#192,#371),.PCURVE_S1.);
#445=EDGE_CURVE('OSCAD_TOPO/3|edge|e:2c33277cb6008ba640440b53a7aa995a|4c9c9ae41e514c921496e2811dd4a9426f35f5d7f9406761fa8b8c652e0128e7',#2,#4,#444,.T.);
#446=SURFACE_CURVE('',#105,(#197,#227),.PCURVE_S1.);
#447=EDGE_CURVE('OSCAD_TOPO/3|edge|e:2e14dacce5fe0b6cda2901fea023f6f5|745d89fad8609cfb15e9fbfefcc5c8939644b5f68c1062b7e79beb1fc20d42d1',#4,#20,#446,.T.);
#448=SURFACE_CURVE('',#109,(#202,#401),.PCURVE_S1.);
#449=EDGE_CURVE('OSCAD_TOPO/3|edge|e:fae77770bbe6471e66ff9cae7c3d67bf|7f41a108a92f58d2a0452ccbbbc19be8c1a16c857c36666fc342cfbe952b171e',#18,#20,#448,.T.);
#450=SURFACE_CURVE('',#112,(#207,#257),.PCURVE_S1.);
#451=EDGE_CURVE('OSCAD_TOPO/3|edge|e:3a4356b0e5598d738cd8120144dc4781|65ffb25e1b09e5c2a3b28571581ee84f4178152ca6419e543079268daaead0b7',#2,#18,#450,.T.);
#452=SURFACE_CURVE('',#116,(#212,#365),.PCURVE_S1.);
#453=EDGE_CURVE('OSCAD_TOPO/3|edge|e:f487903092101c4d54f528289a89671a|5f9555068645586ccd49c37b0888e03658505db13c8b06497dc183a8e05c140e',#4,#6,#452,.T.);
#454=SURFACE_CURVE('',#119,(#217,#247),.PCURVE_S1.);
#455=EDGE_CURVE('OSCAD_TOPO/3|edge|e:5ced2e076f3e6d9d38c42bcd4b22c88a|0d0784f265f998b2fc9d5fa7f143f7c4f3109d6b57cce547d81c183b11a13b53',#6,#22,#454,.T.);
#456=SURFACE_CURVE('',#123,(#222,#407),.PCURVE_S1.);
#457=EDGE_CURVE('OSCAD_TOPO/3|edge|e:cb2c67e6a9edf8d6c8e2a075d5dba352|9ee71e7c08c25312103615f82a5096e0378e1663c2759f382baf437b4ec66d5d',#20,#22,#456,.T.);
#458=SURFACE_CURVE('',#127,(#232,#359),.PCURVE_S1.);
#459=EDGE_CURVE('OSCAD_TOPO/3|edge|e:a1d3c498069cff45128ada6d9fc68bce|df5532b6a2a63f71909aba08f81e08d97125f6782a29666af5279f65e7408600',#6,#8,#458,.T.);
#460=SURFACE_CURVE('',#130,(#237,#267),.PCURVE_S1.);
#461=EDGE_CURVE('OSCAD_TOPO/3|edge|e:25dc7cbf1701ef9fd48730886f17cb78|5d182befa5af8a81d6565c81097d48837cb2235ef2ae5817302f9708081e8bb5',#8,#24,#460,.T.);
#462=SURFACE_CURVE('',#134,(#242,#413),.PCURVE_S1.);
#463=EDGE_CURVE('OSCAD_TOPO/3|edge|e:3b5fcdd1cc46e53decb576a6545d2311|b107337856ac84fc8a4b1fac8f19cada1eb7c122eae0664e254d0e2563fc1a0a',#22,#24,#462,.T.);
#464=SURFACE_CURVE('',#138,(#252,#353),.PCURVE_S1.);
#465=EDGE_CURVE('OSCAD_TOPO/3|edge|e:26ad190c13b2c9590523e020c662b4ba|094baf857bba844415eb1ad65f80bb4633e1e962dbfcebfd6c234f69fac6ab3b',#2,#8,#464,.T.);
#466=SURFACE_CURVE('',#142,(#262,#419),.PCURVE_S1.);
#467=EDGE_CURVE('OSCAD_TOPO/3|edge|e:fa201ef809f08d9374b82ac30959b5f0|242dfd53b4330e6da657cc96c862d43f11c1aeda47bd00eccf30caaa2cdde41a',#18,#24,#466,.T.);
#468=SURFACE_CURVE('',#146,(#272,#395),.PCURVE_S1.);
#469=EDGE_CURVE('OSCAD_TOPO/3|edge|e:562b7c63136be9203b01b75a3e409977|2373eb82b3cecc73ca050bd31c6b9ae6dfb10f14c4e1c1ab7cfa0c95f6c7b1a5',#10,#12,#468,.T.);
#470=SURFACE_CURVE('',#149,(#277,#307),.PCURVE_S1.);
#471=EDGE_CURVE('OSCAD_TOPO/3|edge|e:47eda8a1f17b446ecdda8adcf350290a|2bc3d2fa9d599fd053ee91a9332db674c0c0f8d65cb3c9ced831267318048cd0',#12,#28,#470,.T.);
#472=SURFACE_CURVE('',#153,(#282,#425),.PCURVE_S1.);
#473=EDGE_CURVE('OSCAD_TOPO/3|edge|e:fe9fa90dc221f2b49d21b66d1f497437|9f9a359500d6250501b2bb13903d11edd6ac9213f14a2533c01c9575820778ef',#26,#28,#472,.T.);
#474=SURFACE_CURVE('',#156,(#287,#337),.PCURVE_S1.);
#475=EDGE_CURVE('OSCAD_TOPO/3|edge|e:e1199d2d06e52c69b2b6a2c64b9fab70|263cc039d6b1f4f265e96eb87f8616aa9b4e466fb41a63615c0c6226a9c1a6a5',#10,#26,#474,.T.);
#476=SURFACE_CURVE('',#160,(#292,#389),.PCURVE_S1.);
#477=EDGE_CURVE('OSCAD_TOPO/3|edge|e:fba76a3dc89b2aeec2d3269ecc19a1db|ebf4a4d6a03e7538fbb8d2b50c76c8cf75cd14537e226207c40fced124f51d1b',#12,#14,#476,.T.);
#478=SURFACE_CURVE('',#163,(#297,#327),.PCURVE_S1.);
#479=EDGE_CURVE('OSCAD_TOPO/3|edge|e:9420a5a2e45f975652054dc6dda4bab5|6a5f3391289700c11891c23e1d0d10c0e7cee354c415e13c2c50255b9e041d96',#14,#30,#478,.T.);
#480=SURFACE_CURVE('',#167,(#302,#431),.PCURVE_S1.);
#481=EDGE_CURVE('OSCAD_TOPO/3|edge|e:5c9bb17fb10303ed995ae7988632f15b|f80a1a6d108170ed5834c5a066884661cea2ba8e15553453175e964ee6f9fcc3',#28,#30,#480,.T.);
#482=SURFACE_CURVE('',#171,(#312,#383),.PCURVE_S1.);
#483=EDGE_CURVE('OSCAD_TOPO/3|edge|e:9fc7ca472c8ad980362be7831a4da73c|228899cfe4d0271299078e39379e7913882d7fff2b1e6c660d58fdd306dfaa84',#14,#16,#482,.T.);
#484=SURFACE_CURVE('',#174,(#317,#347),.PCURVE_S1.);
#485=EDGE_CURVE('OSCAD_TOPO/3|edge|e:af86d6ab49cd80a2143b96ef8b8a2e2d|0028af30c5cb6424ebe34c326e2deb75423e24ddc68e170b97d0949f4e7b6c37',#16,#32,#484,.T.);
#486=SURFACE_CURVE('',#178,(#322,#437),.PCURVE_S1.);
#487=EDGE_CURVE('OSCAD_TOPO/3|edge|e:0a978acad53e6090596a120eb04c4fc5|1e02f405df6effc7801ab169815ecdf6c0fbf26deb2dfe8f7629861912f5ed6a',#30,#32,#486,.T.);
#488=SURFACE_CURVE('',#182,(#332,#377),.PCURVE_S1.);
#489=EDGE_CURVE('OSCAD_TOPO/3|edge|e:aca89adeb2ab85b674f0151b4840d537|690ec004eb73fa19b35b3645dabd36da7fc249900d04ac1e0e354edfb928d0ae',#10,#16,#488,.T.);
#490=SURFACE_CURVE('',#186,(#342,#443),.PCURVE_S1.);
#491=EDGE_CURVE('OSCAD_TOPO/3|edge|e:39447ca1a90d314ebc3c567cd0f36eb6|8ad85a0ee3afc06fb17168ba730f886df7e5b81718a334aa0e0303d8273c501d',#26,#32,#490,.T.);
#492=ORIENTED_EDGE('',*,*,#445,.T.);
#493=ORIENTED_EDGE('',*,*,#447,.T.);
#494=ORIENTED_EDGE('',*,*,#449,.F.);
#495=ORIENTED_EDGE('',*,*,#451,.F.);
#496=EDGE_LOOP('OSCAD_TOPO/3|loop|l:2db084011b1aaa968334cb453f5137b8|2f83fca318a0b9b19dcd31230dfe552b31629ce8d534ad32f710653560df1585',(#492,#493,#494,#495));
#497=ORIENTED_EDGE('',*,*,#453,.T.);
#498=ORIENTED_EDGE('',*,*,#455,.T.);
#499=ORIENTED_EDGE('',*,*,#457,.F.);
#500=ORIENTED_EDGE('',*,*,#447,.F.);
#501=EDGE_LOOP('OSCAD_TOPO/3|loop|l:0fa99db75a6ce2aadf6e15c486a999a8|53aa64f254f01de8dfe284f3434b4df281a6aa78fae3e4d4c240f46f3d76bb0e',(#497,#498,#499,#500));
#502=ORIENTED_EDGE('',*,*,#459,.T.);
#503=ORIENTED_EDGE('',*,*,#461,.T.);
#504=ORIENTED_EDGE('',*,*,#463,.F.);
#505=ORIENTED_EDGE('',*,*,#455,.F.);
#506=EDGE_LOOP('OSCAD_TOPO/3|loop|l:64dac72130f7498f1cb2bbc09a740d12|0acc341d60789dd488a7ab75d2c23178d8eccb539c3b0941a11c85fb0abbd5a7',(#502,#503,#504,#505));
#507=ORIENTED_EDGE('',*,*,#465,.F.);
#508=ORIENTED_EDGE('',*,*,#451,.T.);
#509=ORIENTED_EDGE('',*,*,#467,.T.);
#510=ORIENTED_EDGE('',*,*,#461,.F.);
#511=EDGE_LOOP('OSCAD_TOPO/3|loop|l:7c4fa48098fa9cc79fb9553164629b0c|4455e1d76964157e062a0cd4e43298d61625112e97924aa45b72fa1584f3a843',(#507,#508,#509,#510));
#512=ORIENTED_EDGE('',*,*,#469,.T.);
#513=ORIENTED_EDGE('',*,*,#471,.T.);
#514=ORIENTED_EDGE('',*,*,#473,.F.);
#515=ORIENTED_EDGE('',*,*,#475,.F.);
#516=EDGE_LOOP('OSCAD_TOPO/3|loop|l:a0c962210f873b1d38237c8af813c816|ecfb962b3dc4f517faf4948a90dab206d98ab937fb1eaf48bfb341dca0d7ba48',(#512,#513,#514,#515));
#517=ORIENTED_EDGE('',*,*,#477,.T.);
#518=ORIENTED_EDGE('',*,*,#479,.T.);
#519=ORIENTED_EDGE('',*,*,#481,.F.);
#520=ORIENTED_EDGE('',*,*,#471,.F.);
#521=EDGE_LOOP('OSCAD_TOPO/3|loop|l:31a8a2a9400e373cd5e63c1ee9bb2fc1|90c61297d0d99c72df47395224e9c545f133a88b4cbe259f3266cdde2e40ac0d',(#517,#518,#519,#520));
#522=ORIENTED_EDGE('',*,*,#483,.T.);
#523=ORIENTED_EDGE('',*,*,#485,.T.);
#524=ORIENTED_EDGE('',*,*,#487,.F.);
#525=ORIENTED_EDGE('',*,*,#479,.F.);
#526=EDGE_LOOP('OSCAD_TOPO/3|loop|l:e95a363dbc06cda163c811b9937b1fe1|fd07338d05c350ac6d9105fcb1dfbef62f59dac6d3f60a53ad6f92545a9fc6cd',(#522,#523,#524,#525));
#527=ORIENTED_EDGE('',*,*,#489,.F.);
#528=ORIENTED_EDGE('',*,*,#475,.T.);
#529=ORIENTED_EDGE('',*,*,#491,.T.);
#530=ORIENTED_EDGE('',*,*,#485,.F.);
#531=EDGE_LOOP('OSCAD_TOPO/3|loop|l:c09e3a3e88dffbfb848aea98f97efd79|f8522a1e0920b9940eb7d2307eab3fbe0a72751964813958fa471b491566f8aa',(#527,#528,#529,#530));
#532=ORIENTED_EDGE('',*,*,#465,.T.);
#533=ORIENTED_EDGE('',*,*,#459,.F.);
#534=ORIENTED_EDGE('',*,*,#453,.F.);
#535=ORIENTED_EDGE('',*,*,#445,.F.);
#536=EDGE_LOOP('OSCAD_TOPO/3|loop|l:e1f08aac386540e01aba52409cdd07b8|4f16c0c7394632afb7db3bcc02d64170a41c04b36113d1752c356e6f964e181c',(#532,#533,#534,#535));
#537=ORIENTED_EDGE('',*,*,#489,.T.);
#538=ORIENTED_EDGE('',*,*,#483,.F.);
#539=ORIENTED_EDGE('',*,*,#477,.F.);
#540=ORIENTED_EDGE('',*,*,#469,.F.);
#541=EDGE_LOOP('OSCAD_TOPO/3|loop|l:d49871787b4a88954930e8775f2f067c|554486a6a7e429e3f8fb43fa2165d5e3af7d283b90f9917c64c903458ca55d81',(#537,#538,#539,#540));
#542=ORIENTED_EDGE('',*,*,#449,.T.);
#543=ORIENTED_EDGE('',*,*,#457,.T.);
#544=ORIENTED_EDGE('',*,*,#463,.T.);
#545=ORIENTED_EDGE('',*,*,#467,.F.);
#546=EDGE_LOOP('OSCAD_TOPO/3|loop|l:45c2f87d6318539bf78f1ef8d9595077|c035fca90c7d8a4383e60294914d12b4f97256ddc151321e9283f2cb9d68251a',(#542,#543,#544,#545));
#547=ORIENTED_EDGE('',*,*,#473,.T.);
#548=ORIENTED_EDGE('',*,*,#481,.T.);
#549=ORIENTED_EDGE('',*,*,#487,.T.);
#550=ORIENTED_EDGE('',*,*,#491,.F.);
#551=EDGE_LOOP('OSCAD_TOPO/3|loop|l:89a596827d8edf2e6e7af79853f89f30|4651d46df8e39e00225dfd78085fcb6cb9a596e203a12ac0d5971f8b94e07cb6',(#547,#548,#549,#550));
#552=FACE_OUTER_BOUND('',#496,.T.);
#553=ADVANCED_FACE('OSCAD_TOPO/3|face|f:c4e7fe68fc3100d495bb7f718bb5a2e4|e777de6347b7569e410ae6221213e2b28880efc49002325e236e99a8a39c14ad',(#552),#39,.T.);
#554=FACE_OUTER_BOUND('',#501,.T.);
#555=ADVANCED_FACE('OSCAD_TOPO/3|face|f:279ca27dd264fd747f091f7effa98a27|9f28b78df3d11793f73e93ee7752b7d61f3fa6c3b3a0512b8fc52026888b9d5f',(#554),#46,.T.);
#556=FACE_OUTER_BOUND('',#506,.T.);
#557=ADVANCED_FACE('OSCAD_TOPO/3|face|f:eb6dc1f04ea28660bf968bb92196c4e1|e37f92853435269b9f31643950339f50e390f0dff402b9b7c8a8dc238a8c5c77',(#556),#53,.T.);
#558=FACE_OUTER_BOUND('',#511,.T.);
#559=ADVANCED_FACE('OSCAD_TOPO/3|face|f:56406d74eeec20608bf52d15d4ddacaf|f7c6c15b605e001988c7c5921f4b01c050258dd8384d516ea04eeb5be02880a2',(#558),#60,.T.);
#560=FACE_OUTER_BOUND('',#516,.T.);
#561=ADVANCED_FACE('OSCAD_TOPO/3|face|f:7d2b923510638170700ab5eb5dac3b09|19d4f3e631c7eae89ea0ed5aaad01dbeb6a84c6f6f4bf84936abef2dcc93776d',(#560),#67,.T.);
#562=FACE_OUTER_BOUND('',#521,.T.);
#563=ADVANCED_FACE('OSCAD_TOPO/3|face|f:eeba6712103e778066b054b48ca32dc3|fd78917baacce7d5b8f413b59ad107f224c34d89126d16d40b1f7bc62a6c756a',(#562),#74,.T.);
#564=FACE_OUTER_BOUND('',#526,.T.);
#565=ADVANCED_FACE('OSCAD_TOPO/3|face|f:a0acbb2fd87c38dc806c8d2158316e8c|72661f5beb5ee552ee7f45ebe862e9f94795e9147f2ddf7e7c4cc3a1cdec87ed',(#564),#81,.T.);
#566=FACE_OUTER_BOUND('',#531,.T.);
#567=ADVANCED_FACE('OSCAD_TOPO/3|face|f:8d72be9114bebdfd108c594ed2162f69|41de2ce3f71b564ce79c333fbe94fa7dee9a5d03f5927055993702c707983f60',(#566),#88,.T.);
#568=FACE_OUTER_BOUND('',#536,.T.);
#569=FACE_BOUND('',#541,.T.);
#570=ADVANCED_FACE('OSCAD_TOPO/3|face|f:2a5230e7de1073c248c470bf21ca62ed|b6ace4934508cd55a238a557e4821ad0307bbd48fbe96516966dc62e196b4878',(#568,#569),#93,.T.);
#571=FACE_OUTER_BOUND('',#546,.T.);
#572=FACE_BOUND('',#551,.T.);
#573=ADVANCED_FACE('OSCAD_TOPO/3|face|f:5831c18568b5b21893535c91e6a06a56|2a62b5e83dbe36325e90df2501b719d3754c23c7c1f795eabd082303daece75f',(#571,#572),#98,.T.);
#574=CLOSED_SHELL('OSCAD_TOPO/3|shell|s:95ff3243433610721178424f7fb9dcfc|f9343bae2f53c6bde55156eabd26c30a201f35ad6ce50b0da51fc538930fcd57',(#553,#555,#557,#559,#561,#563,#565,#567,#570,#573));
#575=MANIFOLD_SOLID_BREP('OSCAD_TOPO/3|body|b:1d283a29042c1f405d9df2b30e6ae8fa|492407498cbf0785b7936f274846c3d8745a937eb1fa0154be5ed4a6f18d0b40',#574);
#576=(LENGTH_UNIT()NAMED_UNIT(*)SI_UNIT(.MILLI.,.METRE.));
#577=UNCERTAINTY_MEASURE_WITH_UNIT(LENGTH_MEASURE(9.99999999999999955E-8),#576,'distance_accuracy_value','');
#578=(GEOMETRIC_REPRESENTATION_CONTEXT(3)GLOBAL_UNCERTAINTY_ASSIGNED_CONTEXT((#577))GLOBAL_UNIT_ASSIGNED_CONTEXT((#576))REPRESENTATION_CONTEXT('','3D'));
#579=ADVANCED_BREP_SHAPE_REPRESENTATION('',(#575),#578);
#580=APPLICATION_CONTEXT('managed model based 3d engineering');
#581=PRODUCT_CONTEXT('',#580,'mechanical');
#582=PRODUCT('model','model','',(#581));
#583=PRODUCT_DEFINITION_FORMATION('1','',#582);
#584=PRODUCT_DEFINITION_CONTEXT('part definition',#580,'design');
#585=PRODUCT_DEFINITION('design','',#583,#584);
#586=PRODUCT_DEFINITION_SHAPE('','',#585);
#587=SHAPE_DEFINITION_REPRESENTATION(#586,#579);
ENDSEC;
END-ISO-10303-21;
