ISO-10303-21;
HEADER;
FILE_DESCRIPTION(('OpenSCAD Viewer retained AP242 B-rep'),'2;1');
FILE_NAME('model.step','',(''),(''),'OpenSCAD Viewer','OpenSCAD Viewer','');
FILE_SCHEMA(('AP242_MANAGED_MODEL_BASED_3D_ENGINEERING_MIM_LF'));
ENDSEC;
DATA;
#1=CARTESIAN_POINT('',(1.92758944834515908E1,-4.89951041899883144E0,2.30793063446104867E1));
#2=VERTEX_POINT('OSCAD_TOPO/3|vertex|v:abcff1dfa0fbaf69ff64c9d91ab5dc01|a2d8db8f8c41ac9a0e6378a1bb1b2b550649f461d2fd3833b4a43e4858ebbac1',#1);
#3=CARTESIAN_POINT('',(1.16340918753603564E1,-7.86348413932301149E0,1.73506317436056712E1));
#4=VERTEX_POINT('OSCAD_TOPO/3|vertex|v:280b483ac40ab42c572afc546edf4d02|76e8d1992c51ea805ebe3adb199b954f28636ec08c525f954fcd12f7ce8d289a',#3);
#5=CARTESIAN_POINT('',(9.64520699955306426E0,-2.73568373848982027E0,1.73506317436056712E1));
#6=VERTEX_POINT('OSCAD_TOPO/3|vertex|v:4b53c48a087d6043f60d0f66a7c0a0e1|be69af28a98ff3806c94725cbca2733cb6e936356e254ce66e070ab0bbde4df9',#5);
#7=CARTESIAN_POINT('',(1.06516190716634682E1,3.36128055606310427E-1,1.87828003938568742E1));
#8=VERTEX_POINT('OSCAD_TOPO/3|vertex|v:2aecadb158d54197c26dcf1444769af2|995dfbb212ddbba120aea49c7c59fc0d123696d9ac64176b8d4efe50bea4ef63',#7);
#9=CARTESIAN_POINT('',(1.63829710277318945E1,2.55910834584944524E0,2.30793063446104867E1));
#10=VERTEX_POINT('OSCAD_TOPO/3|vertex|v:ac4c71c084712fe37181dd8281bc07ed|750e15020d398cd53e7a1208c9c093529010870513f0f6ed7592945931bbc5f2',#9);
#11=CARTESIAN_POINT('',(1.60712944926942747E1,-6.14245670325626847E0,2.79971944516833631E1));
#12=VERTEX_POINT('OSCAD_TOPO/3|vertex|v:d80c1731dbcbdc1bbc446b76f3a41cb0|9c2b9edb4ba55dcaacfe4dc50a62d6d5f4249d04f6a7c95c456b03da8d3a716b',#11);
#13=CARTESIAN_POINT('',(1.40824096168869843E1,-1.01465630242307769E0,2.79971944516833631E1));
#14=VERTEX_POINT('OSCAD_TOPO/3|vertex|v:5bbd36999da1f5fcb99027fef2969b3e|696091c224d9b35b072731de91b02f4d01b50eb520e14256226e05fa7e618f7b',#13);
#15=CARTESIAN_POINT('',(8.35105766081855450E0,-3.23763659266621318E0,2.37006885009297505E1));
#16=VERTEX_POINT('OSCAD_TOPO/3|vertex|v:446ff7fa8384a9cf6ae02d9b9547a7e4|9c7d0426d7afb26a23a17558b092ce70b82a8a212f67f12bf8187936cdd41f95',#15);
#17=CARTESIAN_POINT('',(1.03399425366258484E1,-8.36543699349940439E0,2.37006885009297505E1));
#18=VERTEX_POINT('OSCAD_TOPO/3|vertex|v:60e1cfe32b77e9cc748b1c97c138c5f3|fae6e3fa6a3cb05c6942ce18d994dcf0fe932390ac9e87467cd8f0f0f981f30d',#17);
#19=CARTESIAN_POINT('',(1.45136210331234601E1,1.83405634669927364E0,2.59480744070696652E1));
#20=VERTEX_POINT('OSCAD_TOPO/3|vertex|v:3f9cbb6afe255a10b82d589d489cb874|1ad65b3795b75a6d71f273dd294a1eaeed780e8d0a2dfbe06c7406a6c6e1009b',#19);
#21=CARTESIAN_POINT('',(9.76474188075192018E0,-8.58853613847318265E0,2.02193998060648497E1));
#22=VERTEX_POINT('OSCAD_TOPO/3|vertex|v:af736df3e303627402d6621641e17967|ea72beb7ea41b93a37616bda77a2777efa104cf822b0d3bff953a7d4a8fc5c09',#21);
#23=CARTESIAN_POINT('',(7.77585700494462895E0,-3.46073573763999232E0,2.02193998060648497E1));
#24=VERTEX_POINT('OSCAD_TOPO/3|vertex|v:ab86769c8060c798a03a039901c7c67a|606fb809c44ed61f3ea591054012ceae6f58708f0e9a011d809c3608449a1d0e',#23);
#25=CARTESIAN_POINT('',(8.78226907705503201E0,-3.88923943543861617E-1,2.16515684563160526E1));
#26=VERTEX_POINT('OSCAD_TOPO/3|vertex|v:049ec032dfcdb827fbe6d5ef938a1aa5|ab8889da80962b5c55d1d94ad1172c8a2f383ba76abda84b406ad3b16e10a36c',#25);
#27=CARTESIAN_POINT('',(1.92758944834515908E1,-4.89951041899883144E0,2.30793063446104867E1));
#28=CARTESIAN_POINT('',(1.63829710277318945E1,2.55910834584944524E0,2.30793063446104867E1));
#29=CARTESIAN_POINT('',(1.16340918753603564E1,-7.86348413932301149E0,1.73506317436056712E1));
#30=CARTESIAN_POINT('',(8.74116841964065827E0,-4.04865374474734363E-1,1.73506317436056712E1));
#31=B_SPLINE_SURFACE_WITH_KNOTS('',1,1,((#27,#28),(#29,#30)),.UNSPECIFIED.,.F.,.F.,.F.,(2,2),(2,2),(0.00000000000000000E0,1.00000000000000000E0),(0.00000000000000000E0,1.00000000000000000E0),.UNSPECIFIED.);
#32=CARTESIAN_POINT('',(8.42949188460303844E0,-9.10643042358044852E0,2.22685198506785476E1));
#33=CARTESIAN_POINT('',(5.53656842888334211E0,-1.64781165873217184E0,2.22685198506785476E1));
#34=CARTESIAN_POINT('',(1.60712944926942747E1,-6.14245670325626847E0,2.79971944516833631E1));
#35=CARTESIAN_POINT('',(1.31783710369745783E1,1.31616206159200821E0,2.79971944516833631E1));
#36=B_SPLINE_SURFACE_WITH_KNOTS('',1,1,((#32,#33),(#34,#35)),.UNSPECIFIED.,.F.,.F.,.F.,(2,2),(2,2),(0.00000000000000000E0,1.00000000000000000E0),(0.00000000000000000E0,1.00000000000000000E0),.UNSPECIFIED.);
#37=CARTESIAN_POINT('',(1.92758944834515908E1,-4.89951041899883144E0,2.30793063446104867E1));
#38=CARTESIAN_POINT('',(1.60712944926942747E1,-6.14245670325626847E0,2.79971944516833631E1));
#39=CARTESIAN_POINT('',(1.63829710277318945E1,2.55910834584944524E0,2.30793063446104867E1));
#40=CARTESIAN_POINT('',(1.31783710369745783E1,1.31616206159200821E0,2.79971944516833631E1));
#41=B_SPLINE_SURFACE_WITH_KNOTS('',1,1,((#37,#38),(#39,#40)),.UNSPECIFIED.,.F.,.F.,.F.,(2,2),(2,2),(0.00000000000000000E0,1.00000000000000000E0),(0.00000000000000000E0,1.00000000000000000E0),.UNSPECIFIED.);
#42=CARTESIAN_POINT('',(1.16340918753603564E1,-7.86348413932301149E0,1.73506317436056712E1));
#43=CARTESIAN_POINT('',(8.42949188460303844E0,-9.10643042358044852E0,2.22685198506785476E1));
#44=CARTESIAN_POINT('',(1.92758944834515908E1,-4.89951041899883144E0,2.30793063446104867E1));
#45=CARTESIAN_POINT('',(1.60712944926942747E1,-6.14245670325626847E0,2.79971944516833631E1));
#46=B_SPLINE_SURFACE_WITH_KNOTS('',1,1,((#42,#43),(#44,#45)),.UNSPECIFIED.,.F.,.F.,.F.,(2,2),(2,2),(0.00000000000000000E0,1.00000000000000000E0),(0.00000000000000000E0,1.00000000000000000E0),.UNSPECIFIED.);
#47=CARTESIAN_POINT('',(8.74116841964065827E0,-4.04865374474734363E-1,1.73506317436056712E1));
#48=CARTESIAN_POINT('',(5.53656842888334211E0,-1.64781165873217184E0,2.22685198506785476E1));
#49=CARTESIAN_POINT('',(1.16340918753603564E1,-7.86348413932301149E0,1.73506317436056712E1));
#50=CARTESIAN_POINT('',(8.42949188460303844E0,-9.10643042358044852E0,2.22685198506785476E1));
#51=B_SPLINE_SURFACE_WITH_KNOTS('',1,1,((#47,#48),(#49,#50)),.UNSPECIFIED.,.F.,.F.,.F.,(2,2),(2,2),(0.00000000000000000E0,1.00000000000000000E0),(0.00000000000000000E0,1.00000000000000000E0),.UNSPECIFIED.);
#52=CARTESIAN_POINT('',(1.63829710277318945E1,2.55910834584944524E0,2.30793063446104867E1));
#53=CARTESIAN_POINT('',(1.31783710369745783E1,1.31616206159200821E0,2.79971944516833631E1));
#54=CARTESIAN_POINT('',(8.74116841964065827E0,-4.04865374474734363E-1,1.73506317436056712E1));
#55=CARTESIAN_POINT('',(5.53656842888334211E0,-1.64781165873217184E0,2.22685198506785476E1));
#56=B_SPLINE_SURFACE_WITH_KNOTS('',1,1,((#52,#53),(#54,#55)),.UNSPECIFIED.,.F.,.F.,.F.,(2,2),(2,2),(0.00000000000000000E0,1.00000000000000000E0),(0.00000000000000000E0,1.00000000000000000E0),.UNSPECIFIED.);
#57=CARTESIAN_POINT('',(1.06516190716634682E1,3.36128055606310427E-1,1.87828003938568742E1));
#58=CARTESIAN_POINT('',(8.78226907705503201E0,-3.88923943543861617E-1,2.16515684563160526E1));
#59=CARTESIAN_POINT('',(8.74116841964065827E0,-4.04865374474734363E-1,1.73506317436056712E1));
#60=CARTESIAN_POINT('',(6.87181842503222384E0,-1.12991737362490641E0,2.02193998060648497E1));
#61=CARTESIAN_POINT('',(9.64520699955306426E0,-2.73568373848982027E0,1.73506317436056712E1));
#62=CARTESIAN_POINT('',(7.77585700494462895E0,-3.46073573763999232E0,2.02193998060648497E1));
#63=(BOUNDED_SURFACE()B_SPLINE_SURFACE(2,1,((#57,#58),(#59,#60),(#61,#62)),.UNSPECIFIED.,.F.,.F.,.F.)B_SPLINE_SURFACE_WITH_KNOTS((3,3),(2,2),(0.00000000000000000E0,1.00000000000000000E0),(0.00000000000000000E0,1.00000000000000000E0),.UNSPECIFIED.)GEOMETRIC_REPRESENTATION_ITEM()RATIONAL_B_SPLINE_SURFACE(((1.00000000000000000E0,1.00000000000000000E0),(7.07106781186547573E-1,7.07106781186547573E-1),(1.00000000000000000E0,1.00000000000000000E0)))REPRESENTATION_ITEM('')SURFACE());
#64=CARTESIAN_POINT('',(9.76474188075192018E0,-8.58853613847318265E0,2.02193998060648497E1));
#65=CARTESIAN_POINT('',(7.77585700494462895E0,-3.46073573763999232E0,2.02193998060648497E1));
#66=CARTESIAN_POINT('',(8.42949188460303844E0,-9.10643042358044852E0,2.22685198506785476E1));
#67=CARTESIAN_POINT('',(6.44060700879574721E0,-3.97863002274725774E0,2.22685198506785476E1));
#68=CARTESIAN_POINT('',(1.03399425366258484E1,-8.36543699349940439E0,2.37006885009297505E1));
#69=CARTESIAN_POINT('',(8.35105766081855450E0,-3.23763659266621318E0,2.37006885009297505E1));
#70=(BOUNDED_SURFACE()B_SPLINE_SURFACE(2,1,((#64,#65),(#66,#67),(#68,#69)),.UNSPECIFIED.,.F.,.F.,.F.)B_SPLINE_SURFACE_WITH_KNOTS((3,3),(2,2),(0.00000000000000000E0,1.00000000000000000E0),(0.00000000000000000E0,1.00000000000000000E0),.UNSPECIFIED.)GEOMETRIC_REPRESENTATION_ITEM()RATIONAL_B_SPLINE_SURFACE(((2.00000000000000000E0,2.00000000000000000E0),(1.00000000000000000E0,1.00000000000000000E0),(1.00000000000000000E0,1.00000000000000000E0)))REPRESENTATION_ITEM('')SURFACE());
#71=CARTESIAN_POINT('',(1.40824096168869843E1,-1.01465630242307769E0,2.79971944516833631E1));
#72=CARTESIAN_POINT('',(8.35105766081855450E0,-3.23763659266621318E0,2.37006885009297505E1));
#73=CARTESIAN_POINT('',(1.31783710369745783E1,1.31616206159200821E0,2.79971944516833631E1));
#74=CARTESIAN_POINT('',(7.44701908090615028E0,-9.06818228651127045E-1,2.37006885009297505E1));
#75=CARTESIAN_POINT('',(1.45136210331234601E1,1.83405634669927364E0,2.59480744070696652E1));
#76=CARTESIAN_POINT('',(8.78226907705503201E0,-3.88923943543861617E-1,2.16515684563160526E1));
#77=(BOUNDED_SURFACE()B_SPLINE_SURFACE(2,1,((#71,#72),(#73,#74),(#75,#76)),.UNSPECIFIED.,.F.,.F.,.F.)B_SPLINE_SURFACE_WITH_KNOTS((3,3),(2,2),(0.00000000000000000E0,1.00000000000000000E0),(0.00000000000000000E0,1.00000000000000000E0),.UNSPECIFIED.)GEOMETRIC_REPRESENTATION_ITEM()RATIONAL_B_SPLINE_SURFACE(((1.00000000000000000E0,1.00000000000000000E0),(1.00000000000000000E0,1.00000000000000000E0),(2.00000000000000000E0,2.00000000000000000E0)))REPRESENTATION_ITEM('')SURFACE());
#78=CARTESIAN_POINT('',(7.77585700494462895E0,-3.46073573763999232E0,2.02193998060648497E1));
#79=CARTESIAN_POINT('',(7.32383771498842684E0,-2.29532655563244958E0,2.02193998060648497E1));
#80=CARTESIAN_POINT('',(8.25506483439358973E0,-1.48722758990049764E0,2.00137493412773502E1));
#81=CARTESIAN_POINT('',(6.44060700879574721E0,-3.97863002274725774E0,2.22685198506785476E1));
#82=CARTESIAN_POINT('',(5.53656842888334211E0,-1.64781165873217184E0,2.22685198506785476E1));
#83=CARTESIAN_POINT('',(7.82704375104362793E0,-7.59420658584384012E-1,2.09354841311904494E1));
#84=CARTESIAN_POINT('',(8.35105766081855450E0,-3.23763659266621318E0,2.37006885009297505E1));
#85=CARTESIAN_POINT('',(7.44701908090615028E0,-9.06818228651127045E-1,2.37006885009297505E1));
#86=CARTESIAN_POINT('',(8.78226907705503201E0,-3.88923943543861617E-1,2.16515684563160526E1));
#87=(BOUNDED_SURFACE()B_SPLINE_SURFACE(2,2,((#78,#79,#80),(#81,#82,#83),(#84,#85,#86)),.UNSPECIFIED.,.F.,.F.,.F.)B_SPLINE_SURFACE_WITH_KNOTS((3,3),(3,3),(0.00000000000000000E0,1.00000000000000000E0),(0.00000000000000000E0,1.00000000000000000E0),.UNSPECIFIED.)GEOMETRIC_REPRESENTATION_ITEM()RATIONAL_B_SPLINE_SURFACE(((2.00000000000000000E0,2.00000000000000000E0,3.00000000000000000E0),(1.00000000000000000E0,1.00000000000000000E0,2.00000000000000000E0),(1.00000000000000000E0,1.00000000000000000E0,2.00000000000000000E0)))REPRESENTATION_ITEM('')SURFACE());
#88=CARTESIAN_POINT('',(1.92758944834515908E1,-4.89951041899883144E0,2.30793063446104867E1));
#89=CARTESIAN_POINT('',(1.16340918753603564E1,-7.86348413932301149E0,1.73506317436056712E1));
#90=B_SPLINE_CURVE_WITH_KNOTS('',1,(#88,#89),.UNSPECIFIED.,.F.,.F.,(2,2),(0.00000000000000000E0,1.00000000000000000E0),.UNSPECIFIED.);
#91=CARTESIAN_POINT('',(1.16340918753603564E1,-7.86348413932301149E0,1.73506317436056712E1));
#92=CARTESIAN_POINT('',(9.64520699955306426E0,-2.73568373848982027E0,1.73506317436056712E1));
#93=B_SPLINE_CURVE_WITH_KNOTS('',1,(#91,#92),.UNSPECIFIED.,.F.,.F.,(2,2),(0.00000000000000000E0,1.00000000000000000E0),.UNSPECIFIED.);
#94=CARTESIAN_POINT('',(9.64520699955306426E0,-2.73568373848982027E0,1.73506317436056712E1));
#95=CARTESIAN_POINT('',(8.74116841964065827E0,-4.04865374474734363E-1,1.73506317436056712E1));
#96=CARTESIAN_POINT('',(1.06516190716634682E1,3.36128055606310427E-1,1.87828003938568742E1));
#97=(BOUNDED_CURVE()B_SPLINE_CURVE(2,(#94,#95,#96),.UNSPECIFIED.,.F.,.F.)B_SPLINE_CURVE_WITH_KNOTS((3,3),(0.00000000000000000E0,1.00000000000000000E0),.UNSPECIFIED.)CURVE()GEOMETRIC_REPRESENTATION_ITEM()RATIONAL_B_SPLINE_CURVE((1.00000000000000000E0,7.07106781186547573E-1,1.00000000000000000E0))REPRESENTATION_ITEM(''));
#98=CARTESIAN_POINT('',(1.63829710277318945E1,2.55910834584944524E0,2.30793063446104867E1));
#99=CARTESIAN_POINT('',(1.06516190716634682E1,3.36128055606310427E-1,1.87828003938568742E1));
#100=B_SPLINE_CURVE_WITH_KNOTS('',1,(#98,#99),.UNSPECIFIED.,.F.,.F.,(2,2),(0.00000000000000000E0,1.00000000000000000E0),.UNSPECIFIED.);
#101=CARTESIAN_POINT('',(1.92758944834515908E1,-4.89951041899883144E0,2.30793063446104867E1));
#102=CARTESIAN_POINT('',(1.63829710277318945E1,2.55910834584944524E0,2.30793063446104867E1));
#103=B_SPLINE_CURVE_WITH_KNOTS('',1,(#101,#102),.UNSPECIFIED.,.F.,.F.,(2,2),(0.00000000000000000E0,1.00000000000000000E0),.UNSPECIFIED.);
#104=CARTESIAN_POINT('',(1.60712944926942747E1,-6.14245670325626847E0,2.79971944516833631E1));
#105=CARTESIAN_POINT('',(1.40824096168869843E1,-1.01465630242307769E0,2.79971944516833631E1));
#106=B_SPLINE_CURVE_WITH_KNOTS('',1,(#104,#105),.UNSPECIFIED.,.F.,.F.,(2,2),(0.00000000000000000E0,1.00000000000000000E0),.UNSPECIFIED.);
#107=CARTESIAN_POINT('',(8.35105766081855450E0,-3.23763659266621318E0,2.37006885009297505E1));
#108=CARTESIAN_POINT('',(1.40824096168869843E1,-1.01465630242307769E0,2.79971944516833631E1));
#109=B_SPLINE_CURVE_WITH_KNOTS('',1,(#107,#108),.UNSPECIFIED.,.F.,.F.,(2,2),(0.00000000000000000E0,1.00000000000000000E0),.UNSPECIFIED.);
#110=CARTESIAN_POINT('',(8.35105766081855450E0,-3.23763659266621318E0,2.37006885009297505E1));
#111=CARTESIAN_POINT('',(1.03399425366258484E1,-8.36543699349940439E0,2.37006885009297505E1));
#112=B_SPLINE_CURVE_WITH_KNOTS('',1,(#110,#111),.UNSPECIFIED.,.F.,.F.,(2,2),(0.00000000000000000E0,1.00000000000000000E0),.UNSPECIFIED.);
#113=CARTESIAN_POINT('',(1.60712944926942747E1,-6.14245670325626847E0,2.79971944516833631E1));
#114=CARTESIAN_POINT('',(1.03399425366258484E1,-8.36543699349940439E0,2.37006885009297505E1));
#115=B_SPLINE_CURVE_WITH_KNOTS('',1,(#113,#114),.UNSPECIFIED.,.F.,.F.,(2,2),(0.00000000000000000E0,1.00000000000000000E0),.UNSPECIFIED.);
#116=CARTESIAN_POINT('',(1.63829710277318945E1,2.55910834584944524E0,2.30793063446104867E1));
#117=CARTESIAN_POINT('',(1.45136210331234601E1,1.83405634669927364E0,2.59480744070696652E1));
#118=B_SPLINE_CURVE_WITH_KNOTS('',1,(#116,#117),.UNSPECIFIED.,.F.,.F.,(2,2),(0.00000000000000000E0,1.00000000000000000E0),.UNSPECIFIED.);
#119=CARTESIAN_POINT('',(1.45136210331234601E1,1.83405634669927364E0,2.59480744070696652E1));
#120=CARTESIAN_POINT('',(1.31783710369745783E1,1.31616206159200821E0,2.79971944516833631E1));
#121=CARTESIAN_POINT('',(1.40824096168869843E1,-1.01465630242307769E0,2.79971944516833631E1));
#122=(BOUNDED_CURVE()B_SPLINE_CURVE(2,(#119,#120,#121),.UNSPECIFIED.,.F.,.F.)B_SPLINE_CURVE_WITH_KNOTS((3,3),(0.00000000000000000E0,1.00000000000000000E0),.UNSPECIFIED.)CURVE()GEOMETRIC_REPRESENTATION_ITEM()RATIONAL_B_SPLINE_CURVE((2.00000000000000000E0,1.00000000000000000E0,1.00000000000000000E0))REPRESENTATION_ITEM(''));
#123=CARTESIAN_POINT('',(1.92758944834515908E1,-4.89951041899883144E0,2.30793063446104867E1));
#124=CARTESIAN_POINT('',(1.60712944926942747E1,-6.14245670325626847E0,2.79971944516833631E1));
#125=B_SPLINE_CURVE_WITH_KNOTS('',1,(#123,#124),.UNSPECIFIED.,.F.,.F.,(2,2),(0.00000000000000000E0,1.00000000000000000E0),.UNSPECIFIED.);
#126=CARTESIAN_POINT('',(9.76474188075192018E0,-8.58853613847318265E0,2.02193998060648497E1));
#127=CARTESIAN_POINT('',(8.42949188460303844E0,-9.10643042358044852E0,2.22685198506785476E1));
#128=CARTESIAN_POINT('',(1.03399425366258484E1,-8.36543699349940439E0,2.37006885009297505E1));
#129=(BOUNDED_CURVE()B_SPLINE_CURVE(2,(#126,#127,#128),.UNSPECIFIED.,.F.,.F.)B_SPLINE_CURVE_WITH_KNOTS((3,3),(0.00000000000000000E0,1.00000000000000000E0),.UNSPECIFIED.)CURVE()GEOMETRIC_REPRESENTATION_ITEM()RATIONAL_B_SPLINE_CURVE((2.00000000000000000E0,1.00000000000000000E0,1.00000000000000000E0))REPRESENTATION_ITEM(''));
#130=CARTESIAN_POINT('',(1.16340918753603564E1,-7.86348413932301149E0,1.73506317436056712E1));
#131=CARTESIAN_POINT('',(9.76474188075192018E0,-8.58853613847318265E0,2.02193998060648497E1));
#132=B_SPLINE_CURVE_WITH_KNOTS('',1,(#130,#131),.UNSPECIFIED.,.F.,.F.,(2,2),(0.00000000000000000E0,1.00000000000000000E0),.UNSPECIFIED.);
#133=CARTESIAN_POINT('',(7.77585700494462895E0,-3.46073573763999232E0,2.02193998060648497E1));
#134=CARTESIAN_POINT('',(9.76474188075192018E0,-8.58853613847318265E0,2.02193998060648497E1));
#135=B_SPLINE_CURVE_WITH_KNOTS('',1,(#133,#134),.UNSPECIFIED.,.F.,.F.,(2,2),(0.00000000000000000E0,1.00000000000000000E0),.UNSPECIFIED.);
#136=CARTESIAN_POINT('',(9.64520699955306426E0,-2.73568373848982027E0,1.73506317436056712E1));
#137=CARTESIAN_POINT('',(7.77585700494462895E0,-3.46073573763999232E0,2.02193998060648497E1));
#138=B_SPLINE_CURVE_WITH_KNOTS('',1,(#136,#137),.UNSPECIFIED.,.F.,.F.,(2,2),(0.00000000000000000E0,1.00000000000000000E0),.UNSPECIFIED.);
#139=CARTESIAN_POINT('',(1.06516190716634682E1,3.36128055606310427E-1,1.87828003938568742E1));
#140=CARTESIAN_POINT('',(8.78226907705503201E0,-3.88923943543861617E-1,2.16515684563160526E1));
#141=B_SPLINE_CURVE_WITH_KNOTS('',1,(#139,#140),.UNSPECIFIED.,.F.,.F.,(2,2),(0.00000000000000000E0,1.00000000000000000E0),.UNSPECIFIED.);
#142=CARTESIAN_POINT('',(8.78226907705503201E0,-3.88923943543861617E-1,2.16515684563160526E1));
#143=CARTESIAN_POINT('',(1.45136210331234601E1,1.83405634669927364E0,2.59480744070696652E1));
#144=B_SPLINE_CURVE_WITH_KNOTS('',1,(#142,#143),.UNSPECIFIED.,.F.,.F.,(2,2),(0.00000000000000000E0,1.00000000000000000E0),.UNSPECIFIED.);
#145=CARTESIAN_POINT('',(7.77585700494462895E0,-3.46073573763999232E0,2.02193998060648497E1));
#146=CARTESIAN_POINT('',(6.87181842503222384E0,-1.12991737362490641E0,2.02193998060648497E1));
#147=CARTESIAN_POINT('',(8.78226907705503201E0,-3.88923943543861617E-1,2.16515684563160526E1));
#148=(BOUNDED_CURVE()B_SPLINE_CURVE(2,(#145,#146,#147),.UNSPECIFIED.,.F.,.F.)B_SPLINE_CURVE_WITH_KNOTS((3,3),(0.00000000000000000E0,1.00000000000000000E0),.UNSPECIFIED.)CURVE()GEOMETRIC_REPRESENTATION_ITEM()RATIONAL_B_SPLINE_CURVE((1.00000000000000000E0,7.07106781186547573E-1,1.00000000000000000E0))REPRESENTATION_ITEM(''));
#149=CARTESIAN_POINT('',(7.77585700494462895E0,-3.46073573763999232E0,2.02193998060648497E1));
#150=CARTESIAN_POINT('',(6.44060700879574721E0,-3.97863002274725774E0,2.22685198506785476E1));
#151=CARTESIAN_POINT('',(8.35105766081855450E0,-3.23763659266621318E0,2.37006885009297505E1));
#152=(BOUNDED_CURVE()B_SPLINE_CURVE(2,(#149,#150,#151),.UNSPECIFIED.,.F.,.F.)B_SPLINE_CURVE_WITH_KNOTS((3,3),(0.00000000000000000E0,1.00000000000000000E0),.UNSPECIFIED.)CURVE()GEOMETRIC_REPRESENTATION_ITEM()RATIONAL_B_SPLINE_CURVE((2.00000000000000000E0,1.00000000000000000E0,1.00000000000000000E0))REPRESENTATION_ITEM(''));
#153=CARTESIAN_POINT('',(8.78226907705503201E0,-3.88923943543861617E-1,2.16515684563160526E1));
#154=CARTESIAN_POINT('',(7.44701908090615028E0,-9.06818228651127045E-1,2.37006885009297505E1));
#155=CARTESIAN_POINT('',(8.35105766081855450E0,-3.23763659266621318E0,2.37006885009297505E1));
#156=(BOUNDED_CURVE()B_SPLINE_CURVE(2,(#153,#154,#155),.UNSPECIFIED.,.F.,.F.)B_SPLINE_CURVE_WITH_KNOTS((3,3),(0.00000000000000000E0,1.00000000000000000E0),.UNSPECIFIED.)CURVE()GEOMETRIC_REPRESENTATION_ITEM()RATIONAL_B_SPLINE_CURVE((2.00000000000000000E0,1.00000000000000000E0,1.00000000000000000E0))REPRESENTATION_ITEM(''));
#157=(GEOMETRIC_REPRESENTATION_CONTEXT(2)REPRESENTATION_CONTEXT('','2D'));
#158=CARTESIAN_POINT('',(0.00000000000000000E0,0.00000000000000000E0));
#159=CARTESIAN_POINT('',(1.00000000000000000E0,0.00000000000000000E0));
#160=B_SPLINE_CURVE_WITH_KNOTS('',1,(#158,#159),.UNSPECIFIED.,.F.,.F.,(2,2),(0.00000000000000000E0,1.00000000000000000E0),.UNSPECIFIED.);
#161=DEFINITIONAL_REPRESENTATION('',(#160),#157);
#162=PCURVE('',#31,#161);
#163=CARTESIAN_POINT('',(1.00000000000000000E0,0.00000000000000000E0));
#164=CARTESIAN_POINT('',(1.00000000000000000E0,6.87500000000000111E-1));
#165=B_SPLINE_CURVE_WITH_KNOTS('',1,(#163,#164),.UNSPECIFIED.,.F.,.F.,(2,2),(0.00000000000000000E0,1.00000000000000000E0),.UNSPECIFIED.);
#166=DEFINITIONAL_REPRESENTATION('',(#165),#157);
#167=PCURVE('',#31,#166);
#168=CARTESIAN_POINT('',(1.00000000000000000E0,6.87500000000000111E-1));
#169=CARTESIAN_POINT('',(1.00000000000000000E0,1.00000000000000000E0));
#170=CARTESIAN_POINT('',(7.50000000000000111E-1,1.00000000000000000E0));
#171=(BOUNDED_CURVE()B_SPLINE_CURVE(2,(#168,#169,#170),.UNSPECIFIED.,.F.,.F.)B_SPLINE_CURVE_WITH_KNOTS((3,3),(0.00000000000000000E0,1.00000000000000000E0),.UNSPECIFIED.)CURVE()GEOMETRIC_REPRESENTATION_ITEM()RATIONAL_B_SPLINE_CURVE((1.00000000000000000E0,7.07106781186547573E-1,1.00000000000000000E0))REPRESENTATION_ITEM(''));
#172=DEFINITIONAL_REPRESENTATION('',(#171),#157);
#173=PCURVE('',#31,#172);
#174=CARTESIAN_POINT('',(7.50000000000000111E-1,1.00000000000000000E0));
#175=CARTESIAN_POINT('',(0.00000000000000000E0,1.00000000000000000E0));
#176=B_SPLINE_CURVE_WITH_KNOTS('',1,(#174,#175),.UNSPECIFIED.,.F.,.F.,(2,2),(0.00000000000000000E0,1.00000000000000000E0),.UNSPECIFIED.);
#177=DEFINITIONAL_REPRESENTATION('',(#176),#157);
#178=PCURVE('',#31,#177);
#179=CARTESIAN_POINT('',(0.00000000000000000E0,1.00000000000000000E0));
#180=CARTESIAN_POINT('',(0.00000000000000000E0,0.00000000000000000E0));
#181=B_SPLINE_CURVE_WITH_KNOTS('',1,(#179,#180),.UNSPECIFIED.,.F.,.F.,(2,2),(0.00000000000000000E0,1.00000000000000000E0),.UNSPECIFIED.);
#182=DEFINITIONAL_REPRESENTATION('',(#181),#157);
#183=PCURVE('',#31,#182);
#184=CARTESIAN_POINT('',(1.00000000000000000E0,0.00000000000000000E0));
#185=CARTESIAN_POINT('',(1.00000000000000000E0,6.87500000000000111E-1));
#186=B_SPLINE_CURVE_WITH_KNOTS('',1,(#184,#185),.UNSPECIFIED.,.F.,.F.,(2,2),(0.00000000000000000E0,1.00000000000000000E0),.UNSPECIFIED.);
#187=DEFINITIONAL_REPRESENTATION('',(#186),#157);
#188=PCURVE('',#36,#187);
#189=CARTESIAN_POINT('',(1.00000000000000000E0,6.87500000000000111E-1));
#190=CARTESIAN_POINT('',(2.49999999999999889E-1,6.87500000000000111E-1));
#191=B_SPLINE_CURVE_WITH_KNOTS('',1,(#189,#190),.UNSPECIFIED.,.F.,.F.,(2,2),(0.00000000000000000E0,1.00000000000000000E0),.UNSPECIFIED.);
#192=DEFINITIONAL_REPRESENTATION('',(#191),#157);
#193=PCURVE('',#36,#192);
#194=CARTESIAN_POINT('',(2.49999999999999889E-1,6.87500000000000111E-1));
#195=CARTESIAN_POINT('',(2.49999999999999889E-1,0.00000000000000000E0));
#196=B_SPLINE_CURVE_WITH_KNOTS('',1,(#194,#195),.UNSPECIFIED.,.F.,.F.,(2,2),(0.00000000000000000E0,1.00000000000000000E0),.UNSPECIFIED.);
#197=DEFINITIONAL_REPRESENTATION('',(#196),#157);
#198=PCURVE('',#36,#197);
#199=CARTESIAN_POINT('',(2.49999999999999889E-1,0.00000000000000000E0));
#200=CARTESIAN_POINT('',(1.00000000000000000E0,0.00000000000000000E0));
#201=B_SPLINE_CURVE_WITH_KNOTS('',1,(#199,#200),.UNSPECIFIED.,.F.,.F.,(2,2),(0.00000000000000000E0,1.00000000000000000E0),.UNSPECIFIED.);
#202=DEFINITIONAL_REPRESENTATION('',(#201),#157);
#203=PCURVE('',#36,#202);
#204=CARTESIAN_POINT('',(0.00000000000000000E0,0.00000000000000000E0));
#205=CARTESIAN_POINT('',(1.00000000000000000E0,0.00000000000000000E0));
#206=B_SPLINE_CURVE_WITH_KNOTS('',1,(#204,#205),.UNSPECIFIED.,.F.,.F.,(2,2),(0.00000000000000000E0,1.00000000000000000E0),.UNSPECIFIED.);
#207=DEFINITIONAL_REPRESENTATION('',(#206),#157);
#208=PCURVE('',#41,#207);
#209=CARTESIAN_POINT('',(1.00000000000000000E0,0.00000000000000000E0));
#210=CARTESIAN_POINT('',(1.00000000000000000E0,5.83333333333333481E-1));
#211=B_SPLINE_CURVE_WITH_KNOTS('',1,(#209,#210),.UNSPECIFIED.,.F.,.F.,(2,2),(0.00000000000000000E0,1.00000000000000000E0),.UNSPECIFIED.);
#212=DEFINITIONAL_REPRESENTATION('',(#211),#157);
#213=PCURVE('',#41,#212);
#214=CARTESIAN_POINT('',(1.00000000000000000E0,5.83333333333333481E-1));
#215=CARTESIAN_POINT('',(1.00000000000000000E0,1.00000000000000000E0));
#216=CARTESIAN_POINT('',(6.87500000000000111E-1,1.00000000000000000E0));
#217=(BOUNDED_CURVE()B_SPLINE_CURVE(2,(#214,#215,#216),.UNSPECIFIED.,.F.,.F.)B_SPLINE_CURVE_WITH_KNOTS((3,3),(0.00000000000000000E0,1.00000000000000000E0),.UNSPECIFIED.)CURVE()GEOMETRIC_REPRESENTATION_ITEM()RATIONAL_B_SPLINE_CURVE((2.00000000000000000E0,1.00000000000000000E0,1.00000000000000000E0))REPRESENTATION_ITEM(''));
#218=DEFINITIONAL_REPRESENTATION('',(#217),#157);
#219=PCURVE('',#41,#218);
#220=CARTESIAN_POINT('',(6.87500000000000111E-1,1.00000000000000000E0));
#221=CARTESIAN_POINT('',(0.00000000000000000E0,1.00000000000000000E0));
#222=B_SPLINE_CURVE_WITH_KNOTS('',1,(#220,#221),.UNSPECIFIED.,.F.,.F.,(2,2),(0.00000000000000000E0,1.00000000000000000E0),.UNSPECIFIED.);
#223=DEFINITIONAL_REPRESENTATION('',(#222),#157);
#224=PCURVE('',#41,#223);
#225=CARTESIAN_POINT('',(0.00000000000000000E0,1.00000000000000000E0));
#226=CARTESIAN_POINT('',(0.00000000000000000E0,0.00000000000000000E0));
#227=B_SPLINE_CURVE_WITH_KNOTS('',1,(#225,#226),.UNSPECIFIED.,.F.,.F.,(2,2),(0.00000000000000000E0,1.00000000000000000E0),.UNSPECIFIED.);
#228=DEFINITIONAL_REPRESENTATION('',(#227),#157);
#229=PCURVE('',#41,#228);
#230=CARTESIAN_POINT('',(1.00000000000000000E0,0.00000000000000000E0));
#231=CARTESIAN_POINT('',(1.00000000000000000E0,1.00000000000000000E0));
#232=B_SPLINE_CURVE_WITH_KNOTS('',1,(#230,#231),.UNSPECIFIED.,.F.,.F.,(2,2),(0.00000000000000000E0,1.00000000000000000E0),.UNSPECIFIED.);
#233=DEFINITIONAL_REPRESENTATION('',(#232),#157);
#234=PCURVE('',#46,#233);
#235=CARTESIAN_POINT('',(1.00000000000000000E0,1.00000000000000000E0));
#236=CARTESIAN_POINT('',(2.49999999999999889E-1,1.00000000000000000E0));
#237=B_SPLINE_CURVE_WITH_KNOTS('',1,(#235,#236),.UNSPECIFIED.,.F.,.F.,(2,2),(0.00000000000000000E0,1.00000000000000000E0),.UNSPECIFIED.);
#238=DEFINITIONAL_REPRESENTATION('',(#237),#157);
#239=PCURVE('',#46,#238);
#240=CARTESIAN_POINT('',(2.49999999999999889E-1,1.00000000000000000E0));
#241=CARTESIAN_POINT('',(0.00000000000000000E0,1.00000000000000000E0));
#242=CARTESIAN_POINT('',(0.00000000000000000E0,5.83333333333333481E-1));
#243=(BOUNDED_CURVE()B_SPLINE_CURVE(2,(#240,#241,#242),.UNSPECIFIED.,.F.,.F.)B_SPLINE_CURVE_WITH_KNOTS((3,3),(0.00000000000000000E0,1.00000000000000000E0),.UNSPECIFIED.)CURVE()GEOMETRIC_REPRESENTATION_ITEM()RATIONAL_B_SPLINE_CURVE((1.00000000000000000E0,1.00000000000000000E0,2.00000000000000000E0))REPRESENTATION_ITEM(''));
#244=DEFINITIONAL_REPRESENTATION('',(#243),#157);
#245=PCURVE('',#46,#244);
#246=CARTESIAN_POINT('',(0.00000000000000000E0,5.83333333333333481E-1));
#247=CARTESIAN_POINT('',(0.00000000000000000E0,0.00000000000000000E0));
#248=B_SPLINE_CURVE_WITH_KNOTS('',1,(#246,#247),.UNSPECIFIED.,.F.,.F.,(2,2),(0.00000000000000000E0,1.00000000000000000E0),.UNSPECIFIED.);
#249=DEFINITIONAL_REPRESENTATION('',(#248),#157);
#250=PCURVE('',#46,#249);
#251=CARTESIAN_POINT('',(0.00000000000000000E0,0.00000000000000000E0));
#252=CARTESIAN_POINT('',(1.00000000000000000E0,0.00000000000000000E0));
#253=B_SPLINE_CURVE_WITH_KNOTS('',1,(#251,#252),.UNSPECIFIED.,.F.,.F.,(2,2),(0.00000000000000000E0,1.00000000000000000E0),.UNSPECIFIED.);
#254=DEFINITIONAL_REPRESENTATION('',(#253),#157);
#255=PCURVE('',#46,#254);
#256=CARTESIAN_POINT('',(1.00000000000000000E0,0.00000000000000000E0));
#257=CARTESIAN_POINT('',(1.00000000000000000E0,5.83333333333333481E-1));
#258=B_SPLINE_CURVE_WITH_KNOTS('',1,(#256,#257),.UNSPECIFIED.,.F.,.F.,(2,2),(0.00000000000000000E0,1.00000000000000000E0),.UNSPECIFIED.);
#259=DEFINITIONAL_REPRESENTATION('',(#258),#157);
#260=PCURVE('',#51,#259);
#261=CARTESIAN_POINT('',(1.00000000000000000E0,5.83333333333333481E-1));
#262=CARTESIAN_POINT('',(3.12499999999999889E-1,5.83333333333333481E-1));
#263=B_SPLINE_CURVE_WITH_KNOTS('',1,(#261,#262),.UNSPECIFIED.,.F.,.F.,(2,2),(0.00000000000000000E0,1.00000000000000000E0),.UNSPECIFIED.);
#264=DEFINITIONAL_REPRESENTATION('',(#263),#157);
#265=PCURVE('',#51,#264);
#266=CARTESIAN_POINT('',(3.12499999999999889E-1,5.83333333333333481E-1));
#267=CARTESIAN_POINT('',(3.12499999999999889E-1,0.00000000000000000E0));
#268=B_SPLINE_CURVE_WITH_KNOTS('',1,(#266,#267),.UNSPECIFIED.,.F.,.F.,(2,2),(0.00000000000000000E0,1.00000000000000000E0),.UNSPECIFIED.);
#269=DEFINITIONAL_REPRESENTATION('',(#268),#157);
#270=PCURVE('',#51,#269);
#271=CARTESIAN_POINT('',(3.12499999999999889E-1,0.00000000000000000E0));
#272=CARTESIAN_POINT('',(1.00000000000000000E0,0.00000000000000000E0));
#273=B_SPLINE_CURVE_WITH_KNOTS('',1,(#271,#272),.UNSPECIFIED.,.F.,.F.,(2,2),(0.00000000000000000E0,1.00000000000000000E0),.UNSPECIFIED.);
#274=DEFINITIONAL_REPRESENTATION('',(#273),#157);
#275=PCURVE('',#51,#274);
#276=CARTESIAN_POINT('',(0.00000000000000000E0,0.00000000000000000E0));
#277=CARTESIAN_POINT('',(7.50000000000000111E-1,0.00000000000000000E0));
#278=B_SPLINE_CURVE_WITH_KNOTS('',1,(#276,#277),.UNSPECIFIED.,.F.,.F.,(2,2),(0.00000000000000000E0,1.00000000000000000E0),.UNSPECIFIED.);
#279=DEFINITIONAL_REPRESENTATION('',(#278),#157);
#280=PCURVE('',#56,#279);
#281=CARTESIAN_POINT('',(7.50000000000000111E-1,0.00000000000000000E0));
#282=CARTESIAN_POINT('',(7.50000000000000111E-1,5.83333333333333481E-1));
#283=B_SPLINE_CURVE_WITH_KNOTS('',1,(#281,#282),.UNSPECIFIED.,.F.,.F.,(2,2),(0.00000000000000000E0,1.00000000000000000E0),.UNSPECIFIED.);
#284=DEFINITIONAL_REPRESENTATION('',(#283),#157);
#285=PCURVE('',#56,#284);
#286=CARTESIAN_POINT('',(7.50000000000000111E-1,5.83333333333333481E-1));
#287=CARTESIAN_POINT('',(0.00000000000000000E0,5.83333333333333481E-1));
#288=B_SPLINE_CURVE_WITH_KNOTS('',1,(#286,#287),.UNSPECIFIED.,.F.,.F.,(2,2),(0.00000000000000000E0,1.00000000000000000E0),.UNSPECIFIED.);
#289=DEFINITIONAL_REPRESENTATION('',(#288),#157);
#290=PCURVE('',#56,#289);
#291=CARTESIAN_POINT('',(0.00000000000000000E0,5.83333333333333481E-1));
#292=CARTESIAN_POINT('',(0.00000000000000000E0,0.00000000000000000E0));
#293=B_SPLINE_CURVE_WITH_KNOTS('',1,(#291,#292),.UNSPECIFIED.,.F.,.F.,(2,2),(0.00000000000000000E0,1.00000000000000000E0),.UNSPECIFIED.);
#294=DEFINITIONAL_REPRESENTATION('',(#293),#157);
#295=PCURVE('',#56,#294);
#296=CARTESIAN_POINT('',(1.00000000000000000E0,0.00000000000000000E0));
#297=CARTESIAN_POINT('',(1.00000000000000000E0,1.00000000000000000E0));
#298=B_SPLINE_CURVE_WITH_KNOTS('',1,(#296,#297),.UNSPECIFIED.,.F.,.F.,(2,2),(0.00000000000000000E0,1.00000000000000000E0),.UNSPECIFIED.);
#299=DEFINITIONAL_REPRESENTATION('',(#298),#157);
#300=PCURVE('',#63,#299);
#301=CARTESIAN_POINT('',(1.00000000000000000E0,1.00000000000000000E0));
#302=CARTESIAN_POINT('',(0.00000000000000000E0,1.00000000000000000E0));
#303=B_SPLINE_CURVE_WITH_KNOTS('',1,(#301,#302),.UNSPECIFIED.,.F.,.F.,(2,2),(0.00000000000000000E0,1.00000000000000000E0),.UNSPECIFIED.);
#304=DEFINITIONAL_REPRESENTATION('',(#303),#157);
#305=PCURVE('',#63,#304);
#306=CARTESIAN_POINT('',(0.00000000000000000E0,1.00000000000000000E0));
#307=CARTESIAN_POINT('',(0.00000000000000000E0,0.00000000000000000E0));
#308=B_SPLINE_CURVE_WITH_KNOTS('',1,(#306,#307),.UNSPECIFIED.,.F.,.F.,(2,2),(0.00000000000000000E0,1.00000000000000000E0),.UNSPECIFIED.);
#309=DEFINITIONAL_REPRESENTATION('',(#308),#157);
#310=PCURVE('',#63,#309);
#311=CARTESIAN_POINT('',(0.00000000000000000E0,0.00000000000000000E0));
#312=CARTESIAN_POINT('',(1.00000000000000000E0,0.00000000000000000E0));
#313=B_SPLINE_CURVE_WITH_KNOTS('',1,(#311,#312),.UNSPECIFIED.,.F.,.F.,(2,2),(0.00000000000000000E0,1.00000000000000000E0),.UNSPECIFIED.);
#314=DEFINITIONAL_REPRESENTATION('',(#313),#157);
#315=PCURVE('',#63,#314);
#316=CARTESIAN_POINT('',(0.00000000000000000E0,0.00000000000000000E0));
#317=CARTESIAN_POINT('',(1.00000000000000000E0,0.00000000000000000E0));
#318=B_SPLINE_CURVE_WITH_KNOTS('',1,(#316,#317),.UNSPECIFIED.,.F.,.F.,(2,2),(0.00000000000000000E0,1.00000000000000000E0),.UNSPECIFIED.);
#319=DEFINITIONAL_REPRESENTATION('',(#318),#157);
#320=PCURVE('',#70,#319);
#321=CARTESIAN_POINT('',(1.00000000000000000E0,0.00000000000000000E0));
#322=CARTESIAN_POINT('',(1.00000000000000000E0,1.00000000000000000E0));
#323=B_SPLINE_CURVE_WITH_KNOTS('',1,(#321,#322),.UNSPECIFIED.,.F.,.F.,(2,2),(0.00000000000000000E0,1.00000000000000000E0),.UNSPECIFIED.);
#324=DEFINITIONAL_REPRESENTATION('',(#323),#157);
#325=PCURVE('',#70,#324);
#326=CARTESIAN_POINT('',(1.00000000000000000E0,1.00000000000000000E0));
#327=CARTESIAN_POINT('',(0.00000000000000000E0,1.00000000000000000E0));
#328=B_SPLINE_CURVE_WITH_KNOTS('',1,(#326,#327),.UNSPECIFIED.,.F.,.F.,(2,2),(0.00000000000000000E0,1.00000000000000000E0),.UNSPECIFIED.);
#329=DEFINITIONAL_REPRESENTATION('',(#328),#157);
#330=PCURVE('',#70,#329);
#331=CARTESIAN_POINT('',(0.00000000000000000E0,1.00000000000000000E0));
#332=CARTESIAN_POINT('',(0.00000000000000000E0,0.00000000000000000E0));
#333=B_SPLINE_CURVE_WITH_KNOTS('',1,(#331,#332),.UNSPECIFIED.,.F.,.F.,(2,2),(0.00000000000000000E0,1.00000000000000000E0),.UNSPECIFIED.);
#334=DEFINITIONAL_REPRESENTATION('',(#333),#157);
#335=PCURVE('',#70,#334);
#336=CARTESIAN_POINT('',(1.00000000000000000E0,0.00000000000000000E0));
#337=CARTESIAN_POINT('',(1.00000000000000000E0,1.00000000000000000E0));
#338=B_SPLINE_CURVE_WITH_KNOTS('',1,(#336,#337),.UNSPECIFIED.,.F.,.F.,(2,2),(0.00000000000000000E0,1.00000000000000000E0),.UNSPECIFIED.);
#339=DEFINITIONAL_REPRESENTATION('',(#338),#157);
#340=PCURVE('',#77,#339);
#341=CARTESIAN_POINT('',(1.00000000000000000E0,1.00000000000000000E0));
#342=CARTESIAN_POINT('',(0.00000000000000000E0,1.00000000000000000E0));
#343=B_SPLINE_CURVE_WITH_KNOTS('',1,(#341,#342),.UNSPECIFIED.,.F.,.F.,(2,2),(0.00000000000000000E0,1.00000000000000000E0),.UNSPECIFIED.);
#344=DEFINITIONAL_REPRESENTATION('',(#343),#157);
#345=PCURVE('',#77,#344);
#346=CARTESIAN_POINT('',(0.00000000000000000E0,1.00000000000000000E0));
#347=CARTESIAN_POINT('',(0.00000000000000000E0,0.00000000000000000E0));
#348=B_SPLINE_CURVE_WITH_KNOTS('',1,(#346,#347),.UNSPECIFIED.,.F.,.F.,(2,2),(0.00000000000000000E0,1.00000000000000000E0),.UNSPECIFIED.);
#349=DEFINITIONAL_REPRESENTATION('',(#348),#157);
#350=PCURVE('',#77,#349);
#351=CARTESIAN_POINT('',(0.00000000000000000E0,0.00000000000000000E0));
#352=CARTESIAN_POINT('',(1.00000000000000000E0,0.00000000000000000E0));
#353=B_SPLINE_CURVE_WITH_KNOTS('',1,(#351,#352),.UNSPECIFIED.,.F.,.F.,(2,2),(0.00000000000000000E0,1.00000000000000000E0),.UNSPECIFIED.);
#354=DEFINITIONAL_REPRESENTATION('',(#353),#157);
#355=PCURVE('',#77,#354);
#356=CARTESIAN_POINT('',(1.00000000000000000E0,0.00000000000000000E0));
#357=CARTESIAN_POINT('',(1.00000000000000000E0,1.00000000000000000E0));
#358=B_SPLINE_CURVE_WITH_KNOTS('',1,(#356,#357),.UNSPECIFIED.,.F.,.F.,(2,2),(0.00000000000000000E0,1.00000000000000000E0),.UNSPECIFIED.);
#359=DEFINITIONAL_REPRESENTATION('',(#358),#157);
#360=PCURVE('',#87,#359);
#361=CARTESIAN_POINT('',(1.00000000000000000E0,1.00000000000000000E0));
#362=CARTESIAN_POINT('',(0.00000000000000000E0,1.00000000000000000E0));
#363=CARTESIAN_POINT('',(0.00000000000000000E0,0.00000000000000000E0));
#364=(BOUNDED_CURVE()B_SPLINE_CURVE(2,(#361,#362,#363),.UNSPECIFIED.,.F.,.F.)B_SPLINE_CURVE_WITH_KNOTS((3,3),(0.00000000000000000E0,1.00000000000000000E0),.UNSPECIFIED.)CURVE()GEOMETRIC_REPRESENTATION_ITEM()RATIONAL_B_SPLINE_CURVE((1.00000000000000000E0,7.07106781186547573E-1,1.00000000000000000E0))REPRESENTATION_ITEM(''));
#365=DEFINITIONAL_REPRESENTATION('',(#364),#157);
#366=PCURVE('',#87,#365);
#367=CARTESIAN_POINT('',(0.00000000000000000E0,0.00000000000000000E0));
#368=CARTESIAN_POINT('',(1.00000000000000000E0,0.00000000000000000E0));
#369=B_SPLINE_CURVE_WITH_KNOTS('',1,(#367,#368),.UNSPECIFIED.,.F.,.F.,(2,2),(0.00000000000000000E0,1.00000000000000000E0),.UNSPECIFIED.);
#370=DEFINITIONAL_REPRESENTATION('',(#369),#157);
#371=PCURVE('',#87,#370);
#372=SURFACE_CURVE('',#90,(#162,#255),.PCURVE_S1.);
#373=EDGE_CURVE('OSCAD_TOPO/3|edge|e:a1f1e82a3d3425c54e0d4cded315b50a|390c559f8128d1f5cde44df608cbfa52ce6374672be98c87bd4e1d2e1264b837',#2,#4,#372,.T.);
#374=SURFACE_CURVE('',#93,(#167,#275),.PCURVE_S1.);
#375=EDGE_CURVE('OSCAD_TOPO/3|edge|e:33f06e1bc2f80d59060219cf9964097e|4ea6999ac54b9c09de3c42e46fbe58adf1b06f15c34c50852c9e3be0a876dcd0',#4,#6,#374,.T.);
#376=SURFACE_CURVE('',#97,(#173,#315),.PCURVE_S1.);
#377=EDGE_CURVE('OSCAD_TOPO/3|edge|e:af8337d4a5a8a83ef55f01d7a5c23818|f36a860d0ebaa185b89355550fe6afa83dbfc9d66f102e89af013a5c4e9da2db',#6,#8,#376,.T.);
#378=SURFACE_CURVE('',#100,(#178,#280),.PCURVE_S1.);
#379=EDGE_CURVE('OSCAD_TOPO/3|edge|e:fb741bb4efc9192518eeb7ff072cd4ac|bab88dac22548769ade7f1fc4567e8181a2451859462061f60e71834ade49898',#10,#8,#378,.T.);
#380=SURFACE_CURVE('',#103,(#183,#208),.PCURVE_S1.);
#381=EDGE_CURVE('OSCAD_TOPO/3|edge|e:93f945fe0c2a69109cb717950b9024b7|e561cd75490289e948bcdc3befe403e30353c05d8021be58f321762ffe615a0e',#2,#10,#380,.T.);
#382=SURFACE_CURVE('',#106,(#188,#224),.PCURVE_S1.);
#383=EDGE_CURVE('OSCAD_TOPO/3|edge|e:6b36a36de5afad2f93dc25700dbe77ba|a87a253b0e7308c267e06dd1478f7e1b0dd2ce77086d84da74eb045c5900ab3c',#12,#14,#382,.T.);
#384=SURFACE_CURVE('',#109,(#193,#350),.PCURVE_S1.);
#385=EDGE_CURVE('OSCAD_TOPO/3|edge|e:8793c1a4b862a23d95b890db5b9c06cb|bde54141fffb09d5b3d8c7aa464b5b06a28dd1ea0f9470ba125245078e21cb33',#16,#14,#384,.T.);
#386=SURFACE_CURVE('',#112,(#198,#325),.PCURVE_S1.);
#387=EDGE_CURVE('OSCAD_TOPO/3|edge|e:bd0fb57d6d7dba756a2b22a36f1e71d3|e66890ed94534dda60af10f36c43d51888bc18f6b50e35e3a3cbd9f0039666f7',#16,#18,#386,.T.);
#388=SURFACE_CURVE('',#115,(#203,#239),.PCURVE_S1.);
#389=EDGE_CURVE('OSCAD_TOPO/3|edge|e:02cb0153aff7bfef1240ba5ea5e4ae0f|b49be4b08c08cd97505e032a2bce70c64f353f9f176d23ab4ae402d967ab298f',#12,#18,#388,.T.);
#390=SURFACE_CURVE('',#118,(#213,#295),.PCURVE_S1.);
#391=EDGE_CURVE('OSCAD_TOPO/3|edge|e:9b7658de0b6e537216c677a4cc8868b9|ac2f4239b88a7d37034d86c07372d7430f5c94fdc27751d65913cc7b8703565e',#10,#20,#390,.T.);
#392=SURFACE_CURVE('',#122,(#219,#355),.PCURVE_S1.);
#393=EDGE_CURVE('OSCAD_TOPO/3|edge|e:621c0c72e934fc40d112db4722f7860e|9eca4d5e9b18640efc1281f1cdb233b546c0e7560e642a4f91a9c249ec3a080e',#20,#14,#392,.T.);
#394=SURFACE_CURVE('',#125,(#229,#234),.PCURVE_S1.);
#395=EDGE_CURVE('OSCAD_TOPO/3|edge|e:b06e3111af6dbf7e0fbdf96d4c00b8d0|83135d0751b807aab58c5054f9b16910b6274b582e62fba01c2238a0f80dd344',#2,#12,#394,.T.);
#396=SURFACE_CURVE('',#129,(#245,#320),.PCURVE_S1.);
#397=EDGE_CURVE('OSCAD_TOPO/3|edge|e:0c3aa5d07eadcc54fc4e90340d9a8a7a|7d7485ac5353c4c82c276b7105452a2b7b14ce82764b8b56bb72ba4835d28ec4',#22,#18,#396,.T.);
#398=SURFACE_CURVE('',#132,(#250,#260),.PCURVE_S1.);
#399=EDGE_CURVE('OSCAD_TOPO/3|edge|e:f994571a5a0873b631898dea0d8934d1|e5bade6de3256579fb52f02c645aa1f6ef177dd94642195e90b4e3953a37af35',#4,#22,#398,.T.);
#400=SURFACE_CURVE('',#135,(#265,#335),.PCURVE_S1.);
#401=EDGE_CURVE('OSCAD_TOPO/3|edge|e:6f0a96d66b6967d8cffaeb73b3253a18|600fea243c4a818ed50acf7bdadc3d06c5c32e9cebebcab9b3eceb3806edcd8c',#24,#22,#400,.T.);
#402=SURFACE_CURVE('',#138,(#270,#300),.PCURVE_S1.);
#403=EDGE_CURVE('OSCAD_TOPO/3|edge|e:b7694dfa2310e58710d63c5b218df04f|e2b6b5e36f1c30f9f07187568e10c5de6569dc15c536dbe3f4d6edbf1e7956de',#6,#24,#402,.T.);
#404=SURFACE_CURVE('',#141,(#285,#310),.PCURVE_S1.);
#405=EDGE_CURVE('OSCAD_TOPO/3|edge|e:dbed5726a5daea82168d62cb174da161|d8e129593e953d0b6d18ab6d1a417ede295271258b8b417f26bc8b2e65e7975e',#8,#26,#404,.T.);
#406=SURFACE_CURVE('',#144,(#290,#340),.PCURVE_S1.);
#407=EDGE_CURVE('OSCAD_TOPO/3|edge|e:cec624cc8d2ddd5c417b93af4b91f6cb|d40171d404c599a9161e9f3c62e8dcb2d7b1561b3176828f9e89be78cb31e92d',#26,#20,#406,.T.);
#408=SURFACE_CURVE('',#148,(#305,#366),.PCURVE_S1.);
#409=EDGE_CURVE('OSCAD_TOPO/3|edge|e:63e6d6e2f58b2608a41bac07325b948f|c824233f73d0e1dffabd7a2271eb9b90a0472c44ed29eea2d34f761b546e4431',#24,#26,#408,.T.);
#410=SURFACE_CURVE('',#152,(#330,#371),.PCURVE_S1.);
#411=EDGE_CURVE('OSCAD_TOPO/3|edge|e:741679d52f20e8f613f5b1777244561a|3fe9f7bda01f57eb3c34e12cd21932bd6159c53d6b2e81afa69c3fcaf17f7441',#24,#16,#410,.T.);
#412=SURFACE_CURVE('',#156,(#345,#360),.PCURVE_S1.);
#413=EDGE_CURVE('OSCAD_TOPO/3|edge|e:e33cbaa8ef5f7fc0ddf2e9bb66874190|3a4b5982a31e72276af616b4b1500d85c7655c647e6e123ad7df803011b6c985',#26,#16,#412,.T.);
#414=ORIENTED_EDGE('',*,*,#373,.T.);
#415=ORIENTED_EDGE('',*,*,#375,.T.);
#416=ORIENTED_EDGE('',*,*,#377,.T.);
#417=ORIENTED_EDGE('',*,*,#379,.F.);
#418=ORIENTED_EDGE('',*,*,#381,.F.);
#419=EDGE_LOOP('OSCAD_TOPO/3|loop|l:8116482d98263895eab37069a81c1950|2bcf0a67fd144f4ad70e4715c67e01d9e0b9a836ff0ca7d77eb5caf438833b23',(#414,#415,#416,#417,#418));
#420=ORIENTED_EDGE('',*,*,#383,.T.);
#421=ORIENTED_EDGE('',*,*,#385,.F.);
#422=ORIENTED_EDGE('',*,*,#387,.T.);
#423=ORIENTED_EDGE('',*,*,#389,.F.);
#424=EDGE_LOOP('OSCAD_TOPO/3|loop|l:78b34cdaa982d23ca58b130a2d00c658|a4780d69dd485885313a6a5d6d0311eaf493beff6aaa4d70a2bcf375b67f4b6e',(#420,#421,#422,#423));
#425=ORIENTED_EDGE('',*,*,#381,.T.);
#426=ORIENTED_EDGE('',*,*,#391,.T.);
#427=ORIENTED_EDGE('',*,*,#393,.T.);
#428=ORIENTED_EDGE('',*,*,#383,.F.);
#429=ORIENTED_EDGE('',*,*,#395,.F.);
#430=EDGE_LOOP('OSCAD_TOPO/3|loop|l:c735e47aafb2cd08f393c1d8f0c5d211|eea733837d6d92f3884207a1c228f45c3419d19c89f7490d05c36d3999f011ea',(#425,#426,#427,#428,#429));
#431=ORIENTED_EDGE('',*,*,#395,.T.);
#432=ORIENTED_EDGE('',*,*,#389,.T.);
#433=ORIENTED_EDGE('',*,*,#397,.F.);
#434=ORIENTED_EDGE('',*,*,#399,.F.);
#435=ORIENTED_EDGE('',*,*,#373,.F.);
#436=EDGE_LOOP('OSCAD_TOPO/3|loop|l:05c9f66d7d6beb973b51b981408ce1f5|842885b140ea96f4d13fa54a7c30321cc320877a8dda429d2c47211494478be3',(#431,#432,#433,#434,#435));
#437=ORIENTED_EDGE('',*,*,#399,.T.);
#438=ORIENTED_EDGE('',*,*,#401,.F.);
#439=ORIENTED_EDGE('',*,*,#403,.F.);
#440=ORIENTED_EDGE('',*,*,#375,.F.);
#441=EDGE_LOOP('OSCAD_TOPO/3|loop|l:729ae3cb59ee7b9c10a978e54a34e17e|5551b35a4fd1d7add2a567cc62ee7a8bb73d42246cc783e3dbd3aacea209d58b',(#437,#438,#439,#440));
#442=ORIENTED_EDGE('',*,*,#379,.T.);
#443=ORIENTED_EDGE('',*,*,#405,.T.);
#444=ORIENTED_EDGE('',*,*,#407,.T.);
#445=ORIENTED_EDGE('',*,*,#391,.F.);
#446=EDGE_LOOP('OSCAD_TOPO/3|loop|l:d9f7cdd5635773e79a50f96825130b55|ffd1debb501b56f52b7df7ff5dd2c844abdbad5db39c14f3168fb8495afd72c0',(#442,#443,#444,#445));
#447=ORIENTED_EDGE('',*,*,#403,.T.);
#448=ORIENTED_EDGE('',*,*,#409,.T.);
#449=ORIENTED_EDGE('',*,*,#405,.F.);
#450=ORIENTED_EDGE('',*,*,#377,.F.);
#451=EDGE_LOOP('OSCAD_TOPO/3|loop|l:76df9ecd8d956682fa69b2b1d9f5a149|089183cdfe0db930f424e0c9d32d83352c7e0fae4bf92a91b448b571bb7aebfb',(#447,#448,#449,#450));
#452=ORIENTED_EDGE('',*,*,#397,.T.);
#453=ORIENTED_EDGE('',*,*,#387,.F.);
#454=ORIENTED_EDGE('',*,*,#411,.F.);
#455=ORIENTED_EDGE('',*,*,#401,.T.);
#456=EDGE_LOOP('OSCAD_TOPO/3|loop|l:e0c4cbaee3187d26babc62ab86b344ca|bf6b558396f09d9cf448dcf24e11303fdf5e85a88739c03bf4ba44c8cfb5476d',(#452,#453,#454,#455));
#457=ORIENTED_EDGE('',*,*,#407,.F.);
#458=ORIENTED_EDGE('',*,*,#413,.T.);
#459=ORIENTED_EDGE('',*,*,#385,.T.);
#460=ORIENTED_EDGE('',*,*,#393,.F.);
#461=EDGE_LOOP('OSCAD_TOPO/3|loop|l:46b0de1a69904981a248f1fbc519340c|dbc5d39dea8b822aa3c1ff67332a5383b35ad840fc600dddabe7909753c9edcd',(#457,#458,#459,#460));
#462=ORIENTED_EDGE('',*,*,#413,.F.);
#463=ORIENTED_EDGE('',*,*,#409,.F.);
#464=ORIENTED_EDGE('',*,*,#411,.T.);
#465=EDGE_LOOP('OSCAD_TOPO/3|loop|l:376a15a3ff865b1360397f2b3f82f8bb|0757056bbba6f05da3dfe2039da7a352cfbab2fa2c8fb59fb5d999aa83085c6a',(#462,#463,#464));
#466=FACE_OUTER_BOUND('',#419,.T.);
#467=ADVANCED_FACE('OSCAD_TOPO/3|face|f:cb3d78d6251f00bd956b398a6264a5fa|c21f45883b517fe3359ab3739a53a93e9f6c6166507e38d1443411bf2415e4c8',(#466),#31,.T.);
#468=FACE_OUTER_BOUND('',#424,.T.);
#469=ADVANCED_FACE('OSCAD_TOPO/3|face|f:379c50d3eef547e7dcd0e7aa360bac0d|dd0eebe811f6547425559d188a082991063de60b037edab3db348fa33fcfaeb3',(#468),#36,.T.);
#470=FACE_OUTER_BOUND('',#430,.T.);
#471=ADVANCED_FACE('OSCAD_TOPO/3|face|f:39b54a671d4328766c404f8af458181e|5c7c466d33dd4a1c6b31b4c19875c0c0f80584eed86fa3be3ea3983604c71b5f',(#470),#41,.T.);
#472=FACE_OUTER_BOUND('',#436,.T.);
#473=ADVANCED_FACE('OSCAD_TOPO/3|face|f:0c94b7e78bb01b48568e37a8f670eece|49b6fc9b40b8fb9cf17b8d321bc74b95a3083b67f5412ff564b6e6cc6e6baaa8',(#472),#46,.T.);
#474=FACE_OUTER_BOUND('',#441,.T.);
#475=ADVANCED_FACE('OSCAD_TOPO/3|face|f:a5280f44641f3acf0ead2d03651c4f72|1f735fb2fc84ae8331bd33dd42e62fafb64f63af0fba65235e834aa0ae013c8f',(#474),#51,.T.);
#476=FACE_OUTER_BOUND('',#446,.T.);
#477=ADVANCED_FACE('OSCAD_TOPO/3|face|f:05a745e3cd8004014f1c0802742483bd|5a12f20dfaf25341de35360fa45295b9d9c99560a28e15a30ea2b81bf723efa4',(#476),#56,.T.);
#478=FACE_OUTER_BOUND('',#451,.T.);
#479=ADVANCED_FACE('OSCAD_TOPO/3|face|f:49b6ac03ab8e75554de6827fe54300c3|cd5633ebb85300725eeb171846a308c32a2fa702c166046b8f58fe9f10ac7349',(#478),#63,.T.);
#480=FACE_OUTER_BOUND('',#456,.T.);
#481=ADVANCED_FACE('OSCAD_TOPO/3|face|f:2c5162471fdfe0d4c443f2601b447923|33e774def0c5236f2f4cddfb3eaf21d3a176373384c26beec9a107bb680ae37c',(#480),#70,.T.);
#482=FACE_OUTER_BOUND('',#461,.T.);
#483=ADVANCED_FACE('OSCAD_TOPO/3|face|f:531c5a7af5f2a0faaacdec0d0291f0fa|3a8b79a76e0088327b42e56950984ad81dbc5f2a4ac1b02c77409fda579ae31c',(#482),#77,.T.);
#484=FACE_OUTER_BOUND('',#465,.T.);
#485=ADVANCED_FACE('OSCAD_TOPO/3|face|f:899ed80c8ab05087c39ffc0f078886cd|dc6ec5728f258ed19cc58af060ca640c61ec90c3d9da037dd3fefe67fa268b3e',(#484),#87,.T.);
#486=CLOSED_SHELL('OSCAD_TOPO/3|shell|s:5e415084a9bfd1e816f36f849c32c6c9|30fd6f8cd8fc3eea7dd68802487920a07955ad2b18a9f5df6e40c238d2c4754c',(#467,#469,#471,#473,#475,#477,#479,#481,#483,#485));
#487=MANIFOLD_SOLID_BREP('OSCAD_TOPO/3|body|b:3252e527668c20e8dea51cd185ae7e90|6e66e0f8391011794e4d2e003a98d42b50779d589995bffea34347e635ca6da2',#486);
#488=(LENGTH_UNIT()NAMED_UNIT(*)SI_UNIT(.MILLI.,.METRE.));
#489=UNCERTAINTY_MEASURE_WITH_UNIT(LENGTH_MEASURE(9.99999999999999955E-8),#488,'distance_accuracy_value','');
#490=(GEOMETRIC_REPRESENTATION_CONTEXT(3)GLOBAL_UNCERTAINTY_ASSIGNED_CONTEXT((#489))GLOBAL_UNIT_ASSIGNED_CONTEXT((#488))REPRESENTATION_CONTEXT('','3D'));
#491=ADVANCED_BREP_SHAPE_REPRESENTATION('',(#487),#490);
#492=APPLICATION_CONTEXT('managed model based 3d engineering');
#493=PRODUCT_CONTEXT('',#492,'mechanical');
#494=PRODUCT('model','model','',(#493));
#495=PRODUCT_DEFINITION_FORMATION('1','',#494);
#496=PRODUCT_DEFINITION_CONTEXT('part definition',#492,'design');
#497=PRODUCT_DEFINITION('design','',#495,#496);
#498=PRODUCT_DEFINITION_SHAPE('','',#497);
#499=SHAPE_DEFINITION_REPRESENTATION(#498,#491);
ENDSEC;
END-ISO-10303-21;
