ISO-10303-21;
HEADER;
FILE_DESCRIPTION(('OpenSCAD Viewer retained AP242 B-rep'),'2;1');
FILE_NAME('model.step','',(''),(''),'OpenSCAD Viewer','OpenSCAD Viewer','');
FILE_SCHEMA(('AP242_MANAGED_MODEL_BASED_3D_ENGINEERING_MIM_LF'));
ENDSEC;
DATA;
#1=CARTESIAN_POINT('',(1.92758944834515908E1,-4.89951041899883144E0,2.30793063446104867E1));
#2=VERTEX_POINT('OSCAD_TOPO/3|vertex|v:b2279a1257c4fcf496396948530a5725|a2d8db8f8c41ac9a0e6378a1bb1b2b550649f461d2fd3833b4a43e4858ebbac1',#1);
#3=CARTESIAN_POINT('',(1.16340918753603564E1,-7.86348413932301149E0,1.73506317436056712E1));
#4=VERTEX_POINT('OSCAD_TOPO/3|vertex|v:56a8d30569f63386074e23b30e801bcc|76e8d1992c51ea805ebe3adb199b954f28636ec08c525f954fcd12f7ce8d289a',#3);
#5=CARTESIAN_POINT('',(1.63829710277318945E1,2.55910834584944524E0,2.30793063446104867E1));
#6=VERTEX_POINT('OSCAD_TOPO/3|vertex|v:cebdd7d2bf0a5342332ef9c87784e973|750e15020d398cd53e7a1208c9c093529010870513f0f6ed7592945931bbc5f2',#5);
#7=CARTESIAN_POINT('',(1.60712944926942747E1,-6.14245670325626847E0,2.79971944516833631E1));
#8=VERTEX_POINT('OSCAD_TOPO/3|vertex|v:5ecb15dde8882b5fc9cae32a88c4ab78|9c2b9edb4ba55dcaacfe4dc50a62d6d5f4249d04f6a7c95c456b03da8d3a716b',#7);
#9=CARTESIAN_POINT('',(8.83157227763189923E0,-6.37947210876242954E-1,1.73506317436056712E1));
#10=VERTEX_POINT('OSCAD_TOPO/3|vertex|v:ca63da1e620ef475c69d0fe7021148e4|0c78d0f63b18c70e82da723850542295c199f8008e8a2057dbb6250380924e19',#9);
#11=CARTESIAN_POINT('',(8.93221348484293998E0,-3.30766031466629862E-1,1.74938486086307918E1));
#12=VERTEX_POINT('OSCAD_TOPO/3|vertex|v:9c9dae073f67379c482ec3af9d9f75a5|854a02eb7793c16f65bdad4a14fdbd8f33f86f9e2a1eb7614c93de88d27c9c1a',#11);
#13=CARTESIAN_POINT('',(5.76049728648947124E0,-1.82910406662295388E0,2.20636078462171774E1));
#14=VERTEX_POINT('OSCAD_TOPO/3|vertex|v:e7703081a28d1d42ad127a724136a1cb|ac680b552ec3c311b4fef3e33858ce8d623c9a6c65a60241a0b6b6f802bc3aaa',#13);
#15=CARTESIAN_POINT('',(5.86113849370051110E0,-1.52192288721334079E0,2.22068247112422981E1));
#16=VERTEX_POINT('OSCAD_TOPO/3|vertex|v:478f44555c227b9b9c670af7a8376370|d4fcfd9ee2b1635c510fe4bd7826ce25ccaa00744ed3edec2ea789452534562c',#15);
#17=CARTESIAN_POINT('',(5.81801735207686299E0,-1.80679415212557593E0,2.24117367157036682E1));
#18=VERTEX_POINT('OSCAD_TOPO/3|vertex|v:bcb2acfbe439e4630837501110ce4ba8|aa5ac72774500b0beefc84f783e0ab4dc45cf0ed9f1adfb393d0bed6a5dcd0af',#17);
#19=CARTESIAN_POINT('',(8.56301688421792662E0,-9.05464099506972175E0,2.20636078462171774E1));
#20=VERTEX_POINT('OSCAD_TOPO/3|vertex|v:d0b6de138556d1fe2424e5bde69aecbb|fb7ab884033d8754ad986ccfa606f15f38aa9c375efb34604a24cb7eb6a38295',#19);
#21=CARTESIAN_POINT('',(8.62053694980532015E0,-9.03233108057234446E0,2.24117367157036682E1));
#22=VERTEX_POINT('OSCAD_TOPO/3|vertex|v:a572a70214ca8649d66543cff70f0a7e|ce69fd16eb867d0f081428f25e15fd75967efd336bd378739c7397ed2345657a',#21);
#23=CARTESIAN_POINT('',(1.33118960365894665E1,1.36795149010273498E0,2.77922824472219929E1));
#24=VERTEX_POINT('OSCAD_TOPO/3|vertex|v:9c13bf5a837ef964b1cda3d6ec8fbb7f|b769a3e9c218164df17fa29143b27cf9c6d28f57722108413aeb87c60e1b1397',#23);
#25=CARTESIAN_POINT('',(1.32687748949658193E1,1.08308022519049985E0,2.79971944516833631E1));
#26=VERTEX_POINT('OSCAD_TOPO/3|vertex|v:10a2d93385d8822474355ea83611a0c1|14714526d53ec2eef20b9b8902dea88fc2e295d52a477c6f353a6e42f30b089a',#25);
#27=CARTESIAN_POINT('',(1.92758944834515908E1,-4.89951041899883144E0,2.30793063446104867E1));
#28=CARTESIAN_POINT('',(1.63829710277318945E1,2.55910834584944524E0,2.30793063446104867E1));
#29=CARTESIAN_POINT('',(1.16340918753603564E1,-7.86348413932301149E0,1.73506317436056712E1));
#30=CARTESIAN_POINT('',(8.74116841964065827E0,-4.04865374474734363E-1,1.73506317436056712E1));
#31=B_SPLINE_SURFACE_WITH_KNOTS('',1,1,((#27,#28),(#29,#30)),.UNSPECIFIED.,.F.,.F.,.F.,(2,2),(2,2),(0.00000000000000000E0,1.00000000000000000E0),(0.00000000000000000E0,1.00000000000000000E0),.UNSPECIFIED.);
#32=CARTESIAN_POINT('',(8.42949188460303844E0,-9.10643042358044852E0,2.22685198506785476E1));
#33=CARTESIAN_POINT('',(5.53656842888334211E0,-1.64781165873217184E0,2.22685198506785476E1));
#34=CARTESIAN_POINT('',(1.60712944926942747E1,-6.14245670325626847E0,2.79971944516833631E1));
#35=CARTESIAN_POINT('',(1.31783710369745783E1,1.31616206159200821E0,2.79971944516833631E1));
#36=B_SPLINE_SURFACE_WITH_KNOTS('',1,1,((#32,#33),(#34,#35)),.UNSPECIFIED.,.F.,.F.,.F.,(2,2),(2,2),(0.00000000000000000E0,1.00000000000000000E0),(0.00000000000000000E0,1.00000000000000000E0),.UNSPECIFIED.);
#37=CARTESIAN_POINT('',(1.92758944834515908E1,-4.89951041899883144E0,2.30793063446104867E1));
#38=CARTESIAN_POINT('',(1.60712944926942747E1,-6.14245670325626847E0,2.79971944516833631E1));
#39=CARTESIAN_POINT('',(1.63829710277318945E1,2.55910834584944524E0,2.30793063446104867E1));
#40=CARTESIAN_POINT('',(1.31783710369745783E1,1.31616206159200821E0,2.79971944516833631E1));
#41=B_SPLINE_SURFACE_WITH_KNOTS('',1,1,((#37,#38),(#39,#40)),.UNSPECIFIED.,.F.,.F.,.F.,(2,2),(2,2),(0.00000000000000000E0,1.00000000000000000E0),(0.00000000000000000E0,1.00000000000000000E0),.UNSPECIFIED.);
#42=CARTESIAN_POINT('',(1.16340918753603564E1,-7.86348413932301149E0,1.73506317436056712E1));
#43=CARTESIAN_POINT('',(8.42949188460303844E0,-9.10643042358044852E0,2.22685198506785476E1));
#44=CARTESIAN_POINT('',(1.92758944834515908E1,-4.89951041899883144E0,2.30793063446104867E1));
#45=CARTESIAN_POINT('',(1.60712944926942747E1,-6.14245670325626847E0,2.79971944516833631E1));
#46=B_SPLINE_SURFACE_WITH_KNOTS('',1,1,((#42,#43),(#44,#45)),.UNSPECIFIED.,.F.,.F.,.F.,(2,2),(2,2),(0.00000000000000000E0,1.00000000000000000E0),(0.00000000000000000E0,1.00000000000000000E0),.UNSPECIFIED.);
#47=CARTESIAN_POINT('',(8.74116841964065827E0,-4.04865374474734363E-1,1.73506317436056712E1));
#48=CARTESIAN_POINT('',(5.53656842888334211E0,-1.64781165873217184E0,2.22685198506785476E1));
#49=CARTESIAN_POINT('',(1.16340918753603564E1,-7.86348413932301149E0,1.73506317436056712E1));
#50=CARTESIAN_POINT('',(8.42949188460303844E0,-9.10643042358044852E0,2.22685198506785476E1));
#51=B_SPLINE_SURFACE_WITH_KNOTS('',1,1,((#47,#48),(#49,#50)),.UNSPECIFIED.,.F.,.F.,.F.,(2,2),(2,2),(0.00000000000000000E0,1.00000000000000000E0),(0.00000000000000000E0,1.00000000000000000E0),.UNSPECIFIED.);
#52=CARTESIAN_POINT('',(1.63829710277318945E1,2.55910834584944524E0,2.30793063446104867E1));
#53=CARTESIAN_POINT('',(1.31783710369745783E1,1.31616206159200821E0,2.79971944516833631E1));
#54=CARTESIAN_POINT('',(8.74116841964065827E0,-4.04865374474734363E-1,1.73506317436056712E1));
#55=CARTESIAN_POINT('',(5.53656842888334211E0,-1.64781165873217184E0,2.22685198506785476E1));
#56=B_SPLINE_SURFACE_WITH_KNOTS('',1,1,((#52,#53),(#54,#55)),.UNSPECIFIED.,.F.,.F.,.F.,(2,2),(2,2),(0.00000000000000000E0,1.00000000000000000E0),(0.00000000000000000E0,1.00000000000000000E0),.UNSPECIFIED.);
#57=CARTESIAN_POINT('',(8.93221348484293998E0,-3.30766031466629862E-1,1.74938486086307918E1));
#58=CARTESIAN_POINT('',(5.86113849370051110E0,-1.52192288721334079E0,2.22068247112422981E1));
#59=CARTESIAN_POINT('',(8.74116841964065827E0,-4.04865374474734363E-1,1.73506317436056712E1));
#60=CARTESIAN_POINT('',(5.67009342849823028E0,-1.59602223022144529E0,2.20636078462171774E1));
#61=CARTESIAN_POINT('',(8.83157227763189923E0,-6.37947210876242954E-1,1.73506317436056712E1));
#62=CARTESIAN_POINT('',(5.76049728648947124E0,-1.82910406662295388E0,2.20636078462171774E1));
#63=(BOUNDED_SURFACE()B_SPLINE_SURFACE(2,1,((#57,#58),(#59,#60),(#61,#62)),.UNSPECIFIED.,.F.,.F.,.F.)B_SPLINE_SURFACE_WITH_KNOTS((3,3),(2,2),(0.00000000000000000E0,1.00000000000000000E0),(0.00000000000000000E0,1.00000000000000000E0),.UNSPECIFIED.)GEOMETRIC_REPRESENTATION_ITEM()RATIONAL_B_SPLINE_SURFACE(((1.00000000000000000E0,1.00000000000000000E0),(7.07106781186547573E-1,7.07106781186547573E-1),(1.00000000000000000E0,1.00000000000000000E0)))REPRESENTATION_ITEM('')SURFACE());
#64=CARTESIAN_POINT('',(8.56301688421792662E0,-9.05464099506972175E0,2.20636078462171774E1));
#65=CARTESIAN_POINT('',(5.76049728648947124E0,-1.82910406662295388E0,2.20636078462171774E1));
#66=CARTESIAN_POINT('',(8.42949188460303844E0,-9.10643042358044852E0,2.22685198506785476E1));
#67=CARTESIAN_POINT('',(5.62697228687458306E0,-1.88089349513368043E0,2.22685198506785476E1));
#68=CARTESIAN_POINT('',(8.62053694980532015E0,-9.03233108057234446E0,2.24117367157036682E1));
#69=CARTESIAN_POINT('',(5.81801735207686299E0,-1.80679415212557593E0,2.24117367157036682E1));
#70=(BOUNDED_SURFACE()B_SPLINE_SURFACE(2,1,((#64,#65),(#66,#67),(#68,#69)),.UNSPECIFIED.,.F.,.F.,.F.)B_SPLINE_SURFACE_WITH_KNOTS((3,3),(2,2),(0.00000000000000000E0,1.00000000000000000E0),(0.00000000000000000E0,1.00000000000000000E0),.UNSPECIFIED.)GEOMETRIC_REPRESENTATION_ITEM()RATIONAL_B_SPLINE_SURFACE(((2.00000000000000000E0,2.00000000000000000E0),(1.00000000000000000E0,1.00000000000000000E0),(1.00000000000000000E0,1.00000000000000000E0)))REPRESENTATION_ITEM('')SURFACE());
#71=CARTESIAN_POINT('',(1.32687748949658193E1,1.08308022519049985E0,2.79971944516833631E1));
#72=CARTESIAN_POINT('',(5.81801735207686299E0,-1.80679415212557593E0,2.24117367157036682E1));
#73=CARTESIAN_POINT('',(1.31783710369745783E1,1.31616206159200821E0,2.79971944516833631E1));
#74=CARTESIAN_POINT('',(5.72761349408562292E0,-1.57371231572406733E0,2.24117367157036682E1));
#75=CARTESIAN_POINT('',(1.33118960365894665E1,1.36795149010273498E0,2.77922824472219929E1));
#76=CARTESIAN_POINT('',(5.86113849370051110E0,-1.52192288721334079E0,2.22068247112422981E1));
#77=(BOUNDED_SURFACE()B_SPLINE_SURFACE(2,1,((#71,#72),(#73,#74),(#75,#76)),.UNSPECIFIED.,.F.,.F.,.F.)B_SPLINE_SURFACE_WITH_KNOTS((3,3),(2,2),(0.00000000000000000E0,1.00000000000000000E0),(0.00000000000000000E0,1.00000000000000000E0),.UNSPECIFIED.)GEOMETRIC_REPRESENTATION_ITEM()RATIONAL_B_SPLINE_SURFACE(((1.00000000000000000E0,1.00000000000000000E0),(1.00000000000000000E0,1.00000000000000000E0),(2.00000000000000000E0,2.00000000000000000E0)))REPRESENTATION_ITEM('')SURFACE());
#78=CARTESIAN_POINT('',(5.76049728648947124E0,-1.82910406662295388E0,2.20636078462171774E1));
#79=CARTESIAN_POINT('',(5.71529535749385076E0,-1.71256314842219970E0,2.20636078462171774E1));
#80=CARTESIAN_POINT('',(5.80841806943436723E0,-1.63175325184900410E0,2.20430427997384299E1));
#81=CARTESIAN_POINT('',(5.62697228687458306E0,-1.88089349513368043E0,2.22685198506785476E1));
#82=CARTESIAN_POINT('',(5.53656842888334211E0,-1.64781165873217184E0,2.22685198506785476E1));
#83=CARTESIAN_POINT('',(5.76561596109937113E0,-1.55897255871739304E0,2.21352162787297395E1));
#84=CARTESIAN_POINT('',(5.81801735207686299E0,-1.80679415212557593E0,2.24117367157036682E1));
#85=CARTESIAN_POINT('',(5.72761349408562292E0,-1.57371231572406733E0,2.24117367157036682E1));
#86=CARTESIAN_POINT('',(5.86113849370051110E0,-1.52192288721334079E0,2.22068247112422981E1));
#87=(BOUNDED_SURFACE()B_SPLINE_SURFACE(2,2,((#78,#79,#80),(#81,#82,#83),(#84,#85,#86)),.UNSPECIFIED.,.F.,.F.,.F.)B_SPLINE_SURFACE_WITH_KNOTS((3,3),(3,3),(0.00000000000000000E0,1.00000000000000000E0),(0.00000000000000000E0,1.00000000000000000E0),.UNSPECIFIED.)GEOMETRIC_REPRESENTATION_ITEM()RATIONAL_B_SPLINE_SURFACE(((2.00000000000000000E0,2.00000000000000000E0,3.00000000000000000E0),(1.00000000000000000E0,1.00000000000000000E0,2.00000000000000000E0),(1.00000000000000000E0,1.00000000000000000E0,2.00000000000000000E0)))REPRESENTATION_ITEM('')SURFACE());
#88=CARTESIAN_POINT('',(1.92758944834515908E1,-4.89951041899883144E0,2.30793063446104867E1));
#89=CARTESIAN_POINT('',(1.16340918753603564E1,-7.86348413932301149E0,1.73506317436056712E1));
#90=B_SPLINE_CURVE_WITH_KNOTS('',1,(#88,#89),.UNSPECIFIED.,.F.,.F.,(2,2),(0.00000000000000000E0,1.00000000000000000E0),.UNSPECIFIED.);
#91=CARTESIAN_POINT('',(1.16340918753603564E1,-7.86348413932301149E0,1.73506317436056712E1));
#92=CARTESIAN_POINT('',(8.83157227763189923E0,-6.37947210876242954E-1,1.73506317436056712E1));
#93=B_SPLINE_CURVE_WITH_KNOTS('',1,(#91,#92),.UNSPECIFIED.,.F.,.F.,(2,2),(0.00000000000000000E0,1.00000000000000000E0),.UNSPECIFIED.);
#94=CARTESIAN_POINT('',(1.63829710277318945E1,2.55910834584944524E0,2.30793063446104867E1));
#95=CARTESIAN_POINT('',(8.93221348484293998E0,-3.30766031466629862E-1,1.74938486086307918E1));
#96=B_SPLINE_CURVE_WITH_KNOTS('',1,(#94,#95),.UNSPECIFIED.,.F.,.F.,(2,2),(0.00000000000000000E0,1.00000000000000000E0),.UNSPECIFIED.);
#97=CARTESIAN_POINT('',(1.92758944834515908E1,-4.89951041899883144E0,2.30793063446104867E1));
#98=CARTESIAN_POINT('',(1.63829710277318945E1,2.55910834584944524E0,2.30793063446104867E1));
#99=B_SPLINE_CURVE_WITH_KNOTS('',1,(#97,#98),.UNSPECIFIED.,.F.,.F.,(2,2),(0.00000000000000000E0,1.00000000000000000E0),.UNSPECIFIED.);
#100=CARTESIAN_POINT('',(1.92758944834515908E1,-4.89951041899883144E0,2.30793063446104867E1));
#101=CARTESIAN_POINT('',(1.60712944926942747E1,-6.14245670325626847E0,2.79971944516833631E1));
#102=B_SPLINE_CURVE_WITH_KNOTS('',1,(#100,#101),.UNSPECIFIED.,.F.,.F.,(2,2),(0.00000000000000000E0,1.00000000000000000E0),.UNSPECIFIED.);
#103=CARTESIAN_POINT('',(1.16340918753603564E1,-7.86348413932301149E0,1.73506317436056712E1));
#104=CARTESIAN_POINT('',(8.56301688421792662E0,-9.05464099506972175E0,2.20636078462171774E1));
#105=B_SPLINE_CURVE_WITH_KNOTS('',1,(#103,#104),.UNSPECIFIED.,.F.,.F.,(2,2),(0.00000000000000000E0,1.00000000000000000E0),.UNSPECIFIED.);
#106=CARTESIAN_POINT('',(5.76049728648947124E0,-1.82910406662295388E0,2.20636078462171774E1));
#107=CARTESIAN_POINT('',(8.56301688421792662E0,-9.05464099506972175E0,2.20636078462171774E1));
#108=B_SPLINE_CURVE_WITH_KNOTS('',1,(#106,#107),.UNSPECIFIED.,.F.,.F.,(2,2),(0.00000000000000000E0,1.00000000000000000E0),.UNSPECIFIED.);
#109=CARTESIAN_POINT('',(8.83157227763189923E0,-6.37947210876242954E-1,1.73506317436056712E1));
#110=CARTESIAN_POINT('',(5.76049728648947124E0,-1.82910406662295388E0,2.20636078462171774E1));
#111=B_SPLINE_CURVE_WITH_KNOTS('',1,(#109,#110),.UNSPECIFIED.,.F.,.F.,(2,2),(0.00000000000000000E0,1.00000000000000000E0),.UNSPECIFIED.);
#112=CARTESIAN_POINT('',(8.93221348484293998E0,-3.30766031466629862E-1,1.74938486086307918E1));
#113=CARTESIAN_POINT('',(5.86113849370051110E0,-1.52192288721334079E0,2.22068247112422981E1));
#114=B_SPLINE_CURVE_WITH_KNOTS('',1,(#112,#113),.UNSPECIFIED.,.F.,.F.,(2,2),(0.00000000000000000E0,1.00000000000000000E0),.UNSPECIFIED.);
#115=CARTESIAN_POINT('',(1.63829710277318945E1,2.55910834584944524E0,2.30793063446104867E1));
#116=CARTESIAN_POINT('',(1.33118960365894665E1,1.36795149010273498E0,2.77922824472219929E1));
#117=B_SPLINE_CURVE_WITH_KNOTS('',1,(#115,#116),.UNSPECIFIED.,.F.,.F.,(2,2),(0.00000000000000000E0,1.00000000000000000E0),.UNSPECIFIED.);
#118=CARTESIAN_POINT('',(5.86113849370051110E0,-1.52192288721334079E0,2.22068247112422981E1));
#119=CARTESIAN_POINT('',(1.33118960365894665E1,1.36795149010273498E0,2.77922824472219929E1));
#120=B_SPLINE_CURVE_WITH_KNOTS('',1,(#118,#119),.UNSPECIFIED.,.F.,.F.,(2,2),(0.00000000000000000E0,1.00000000000000000E0),.UNSPECIFIED.);
#121=CARTESIAN_POINT('',(1.60712944926942747E1,-6.14245670325626847E0,2.79971944516833631E1));
#122=CARTESIAN_POINT('',(8.62053694980532015E0,-9.03233108057234446E0,2.24117367157036682E1));
#123=B_SPLINE_CURVE_WITH_KNOTS('',1,(#121,#122),.UNSPECIFIED.,.F.,.F.,(2,2),(0.00000000000000000E0,1.00000000000000000E0),.UNSPECIFIED.);
#124=CARTESIAN_POINT('',(5.81801735207686299E0,-1.80679415212557593E0,2.24117367157036682E1));
#125=CARTESIAN_POINT('',(8.62053694980532015E0,-9.03233108057234446E0,2.24117367157036682E1));
#126=B_SPLINE_CURVE_WITH_KNOTS('',1,(#124,#125),.UNSPECIFIED.,.F.,.F.,(2,2),(0.00000000000000000E0,1.00000000000000000E0),.UNSPECIFIED.);
#127=CARTESIAN_POINT('',(1.60712944926942747E1,-6.14245670325626847E0,2.79971944516833631E1));
#128=CARTESIAN_POINT('',(1.32687748949658193E1,1.08308022519049985E0,2.79971944516833631E1));
#129=B_SPLINE_CURVE_WITH_KNOTS('',1,(#127,#128),.UNSPECIFIED.,.F.,.F.,(2,2),(0.00000000000000000E0,1.00000000000000000E0),.UNSPECIFIED.);
#130=CARTESIAN_POINT('',(5.81801735207686299E0,-1.80679415212557593E0,2.24117367157036682E1));
#131=CARTESIAN_POINT('',(1.32687748949658193E1,1.08308022519049985E0,2.79971944516833631E1));
#132=B_SPLINE_CURVE_WITH_KNOTS('',1,(#130,#131),.UNSPECIFIED.,.F.,.F.,(2,2),(0.00000000000000000E0,1.00000000000000000E0),.UNSPECIFIED.);
#133=CARTESIAN_POINT('',(8.83157227763189923E0,-6.37947210876242954E-1,1.73506317436056712E1));
#134=CARTESIAN_POINT('',(8.74116841964065827E0,-4.04865374474734363E-1,1.73506317436056712E1));
#135=CARTESIAN_POINT('',(8.93221348484293998E0,-3.30766031466629862E-1,1.74938486086307918E1));
#136=(BOUNDED_CURVE()B_SPLINE_CURVE(2,(#133,#134,#135),.UNSPECIFIED.,.F.,.F.)B_SPLINE_CURVE_WITH_KNOTS((3,3),(0.00000000000000000E0,1.00000000000000000E0),.UNSPECIFIED.)CURVE()GEOMETRIC_REPRESENTATION_ITEM()RATIONAL_B_SPLINE_CURVE((1.00000000000000000E0,7.07106781186547573E-1,1.00000000000000000E0))REPRESENTATION_ITEM(''));
#137=CARTESIAN_POINT('',(5.76049728648947124E0,-1.82910406662295388E0,2.20636078462171774E1));
#138=CARTESIAN_POINT('',(5.67009342849823028E0,-1.59602223022144529E0,2.20636078462171774E1));
#139=CARTESIAN_POINT('',(5.86113849370051110E0,-1.52192288721334079E0,2.22068247112422981E1));
#140=(BOUNDED_CURVE()B_SPLINE_CURVE(2,(#137,#138,#139),.UNSPECIFIED.,.F.,.F.)B_SPLINE_CURVE_WITH_KNOTS((3,3),(0.00000000000000000E0,1.00000000000000000E0),.UNSPECIFIED.)CURVE()GEOMETRIC_REPRESENTATION_ITEM()RATIONAL_B_SPLINE_CURVE((1.00000000000000000E0,7.07106781186547573E-1,1.00000000000000000E0))REPRESENTATION_ITEM(''));
#141=CARTESIAN_POINT('',(5.76049728648947124E0,-1.82910406662295388E0,2.20636078462171774E1));
#142=CARTESIAN_POINT('',(5.62697228687458306E0,-1.88089349513368043E0,2.22685198506785476E1));
#143=CARTESIAN_POINT('',(5.81801735207686299E0,-1.80679415212557593E0,2.24117367157036682E1));
#144=(BOUNDED_CURVE()B_SPLINE_CURVE(2,(#141,#142,#143),.UNSPECIFIED.,.F.,.F.)B_SPLINE_CURVE_WITH_KNOTS((3,3),(0.00000000000000000E0,1.00000000000000000E0),.UNSPECIFIED.)CURVE()GEOMETRIC_REPRESENTATION_ITEM()RATIONAL_B_SPLINE_CURVE((2.00000000000000000E0,1.00000000000000000E0,1.00000000000000000E0))REPRESENTATION_ITEM(''));
#145=CARTESIAN_POINT('',(5.86113849370051110E0,-1.52192288721334079E0,2.22068247112422981E1));
#146=CARTESIAN_POINT('',(5.72761349408562292E0,-1.57371231572406733E0,2.24117367157036682E1));
#147=CARTESIAN_POINT('',(5.81801735207686299E0,-1.80679415212557593E0,2.24117367157036682E1));
#148=(BOUNDED_CURVE()B_SPLINE_CURVE(2,(#145,#146,#147),.UNSPECIFIED.,.F.,.F.)B_SPLINE_CURVE_WITH_KNOTS((3,3),(0.00000000000000000E0,1.00000000000000000E0),.UNSPECIFIED.)CURVE()GEOMETRIC_REPRESENTATION_ITEM()RATIONAL_B_SPLINE_CURVE((2.00000000000000000E0,1.00000000000000000E0,1.00000000000000000E0))REPRESENTATION_ITEM(''));
#149=CARTESIAN_POINT('',(8.56301688421792662E0,-9.05464099506972175E0,2.20636078462171774E1));
#150=CARTESIAN_POINT('',(8.42949188460303844E0,-9.10643042358044852E0,2.22685198506785476E1));
#151=CARTESIAN_POINT('',(8.62053694980532015E0,-9.03233108057234446E0,2.24117367157036682E1));
#152=(BOUNDED_CURVE()B_SPLINE_CURVE(2,(#149,#150,#151),.UNSPECIFIED.,.F.,.F.)B_SPLINE_CURVE_WITH_KNOTS((3,3),(0.00000000000000000E0,1.00000000000000000E0),.UNSPECIFIED.)CURVE()GEOMETRIC_REPRESENTATION_ITEM()RATIONAL_B_SPLINE_CURVE((2.00000000000000000E0,1.00000000000000000E0,1.00000000000000000E0))REPRESENTATION_ITEM(''));
#153=CARTESIAN_POINT('',(1.33118960365894665E1,1.36795149010273498E0,2.77922824472219929E1));
#154=CARTESIAN_POINT('',(1.31783710369745783E1,1.31616206159200821E0,2.79971944516833631E1));
#155=CARTESIAN_POINT('',(1.32687748949658193E1,1.08308022519049985E0,2.79971944516833631E1));
#156=(BOUNDED_CURVE()B_SPLINE_CURVE(2,(#153,#154,#155),.UNSPECIFIED.,.F.,.F.)B_SPLINE_CURVE_WITH_KNOTS((3,3),(0.00000000000000000E0,1.00000000000000000E0),.UNSPECIFIED.)CURVE()GEOMETRIC_REPRESENTATION_ITEM()RATIONAL_B_SPLINE_CURVE((2.00000000000000000E0,1.00000000000000000E0,1.00000000000000000E0))REPRESENTATION_ITEM(''));
#157=(GEOMETRIC_REPRESENTATION_CONTEXT(2)REPRESENTATION_CONTEXT('','2D'));
#158=CARTESIAN_POINT('',(0.00000000000000000E0,0.00000000000000000E0));
#159=CARTESIAN_POINT('',(1.00000000000000000E0,0.00000000000000000E0));
#160=B_SPLINE_CURVE_WITH_KNOTS('',1,(#158,#159),.UNSPECIFIED.,.F.,.F.,(2,2),(0.00000000000000000E0,1.00000000000000000E0),.UNSPECIFIED.);
#161=DEFINITIONAL_REPRESENTATION('',(#160),#157);
#162=PCURVE('',#31,#161);
#163=CARTESIAN_POINT('',(1.00000000000000000E0,0.00000000000000000E0));
#164=CARTESIAN_POINT('',(1.00000000000000000E0,9.68750000000000000E-1));
#165=B_SPLINE_CURVE_WITH_KNOTS('',1,(#163,#164),.UNSPECIFIED.,.F.,.F.,(2,2),(0.00000000000000000E0,1.00000000000000000E0),.UNSPECIFIED.);
#166=DEFINITIONAL_REPRESENTATION('',(#165),#157);
#167=PCURVE('',#31,#166);
#168=CARTESIAN_POINT('',(1.00000000000000000E0,9.68750000000000000E-1));
#169=CARTESIAN_POINT('',(1.00000000000000000E0,1.00000000000000000E0));
#170=CARTESIAN_POINT('',(9.74999999999999978E-1,1.00000000000000000E0));
#171=(BOUNDED_CURVE()B_SPLINE_CURVE(2,(#168,#169,#170),.UNSPECIFIED.,.F.,.F.)B_SPLINE_CURVE_WITH_KNOTS((3,3),(0.00000000000000000E0,1.00000000000000000E0),.UNSPECIFIED.)CURVE()GEOMETRIC_REPRESENTATION_ITEM()RATIONAL_B_SPLINE_CURVE((1.00000000000000000E0,7.07106781186547573E-1,1.00000000000000000E0))REPRESENTATION_ITEM(''));
#172=DEFINITIONAL_REPRESENTATION('',(#171),#157);
#173=PCURVE('',#31,#172);
#174=CARTESIAN_POINT('',(9.74999999999999978E-1,1.00000000000000000E0));
#175=CARTESIAN_POINT('',(0.00000000000000000E0,1.00000000000000000E0));
#176=B_SPLINE_CURVE_WITH_KNOTS('',1,(#174,#175),.UNSPECIFIED.,.F.,.F.,(2,2),(0.00000000000000000E0,1.00000000000000000E0),.UNSPECIFIED.);
#177=DEFINITIONAL_REPRESENTATION('',(#176),#157);
#178=PCURVE('',#31,#177);
#179=CARTESIAN_POINT('',(0.00000000000000000E0,1.00000000000000000E0));
#180=CARTESIAN_POINT('',(0.00000000000000000E0,0.00000000000000000E0));
#181=B_SPLINE_CURVE_WITH_KNOTS('',1,(#179,#180),.UNSPECIFIED.,.F.,.F.,(2,2),(0.00000000000000000E0,1.00000000000000000E0),.UNSPECIFIED.);
#182=DEFINITIONAL_REPRESENTATION('',(#181),#157);
#183=PCURVE('',#31,#182);
#184=CARTESIAN_POINT('',(1.00000000000000000E0,0.00000000000000000E0));
#185=CARTESIAN_POINT('',(1.00000000000000000E0,9.68750000000000000E-1));
#186=B_SPLINE_CURVE_WITH_KNOTS('',1,(#184,#185),.UNSPECIFIED.,.F.,.F.,(2,2),(0.00000000000000000E0,1.00000000000000000E0),.UNSPECIFIED.);
#187=DEFINITIONAL_REPRESENTATION('',(#186),#157);
#188=PCURVE('',#36,#187);
#189=CARTESIAN_POINT('',(1.00000000000000000E0,9.68750000000000000E-1));
#190=CARTESIAN_POINT('',(2.50000000000000222E-2,9.68750000000000000E-1));
#191=B_SPLINE_CURVE_WITH_KNOTS('',1,(#189,#190),.UNSPECIFIED.,.F.,.F.,(2,2),(0.00000000000000000E0,1.00000000000000000E0),.UNSPECIFIED.);
#192=DEFINITIONAL_REPRESENTATION('',(#191),#157);
#193=PCURVE('',#36,#192);
#194=CARTESIAN_POINT('',(2.50000000000000222E-2,9.68750000000000000E-1));
#195=CARTESIAN_POINT('',(2.50000000000000222E-2,0.00000000000000000E0));
#196=B_SPLINE_CURVE_WITH_KNOTS('',1,(#194,#195),.UNSPECIFIED.,.F.,.F.,(2,2),(0.00000000000000000E0,1.00000000000000000E0),.UNSPECIFIED.);
#197=DEFINITIONAL_REPRESENTATION('',(#196),#157);
#198=PCURVE('',#36,#197);
#199=CARTESIAN_POINT('',(2.50000000000000222E-2,0.00000000000000000E0));
#200=CARTESIAN_POINT('',(1.00000000000000000E0,0.00000000000000000E0));
#201=B_SPLINE_CURVE_WITH_KNOTS('',1,(#199,#200),.UNSPECIFIED.,.F.,.F.,(2,2),(0.00000000000000000E0,1.00000000000000000E0),.UNSPECIFIED.);
#202=DEFINITIONAL_REPRESENTATION('',(#201),#157);
#203=PCURVE('',#36,#202);
#204=CARTESIAN_POINT('',(0.00000000000000000E0,0.00000000000000000E0));
#205=CARTESIAN_POINT('',(1.00000000000000000E0,0.00000000000000000E0));
#206=B_SPLINE_CURVE_WITH_KNOTS('',1,(#204,#205),.UNSPECIFIED.,.F.,.F.,(2,2),(0.00000000000000000E0,1.00000000000000000E0),.UNSPECIFIED.);
#207=DEFINITIONAL_REPRESENTATION('',(#206),#157);
#208=PCURVE('',#41,#207);
#209=CARTESIAN_POINT('',(1.00000000000000000E0,0.00000000000000000E0));
#210=CARTESIAN_POINT('',(1.00000000000000000E0,9.58333333333333370E-1));
#211=B_SPLINE_CURVE_WITH_KNOTS('',1,(#209,#210),.UNSPECIFIED.,.F.,.F.,(2,2),(0.00000000000000000E0,1.00000000000000000E0),.UNSPECIFIED.);
#212=DEFINITIONAL_REPRESENTATION('',(#211),#157);
#213=PCURVE('',#41,#212);
#214=CARTESIAN_POINT('',(1.00000000000000000E0,9.58333333333333370E-1));
#215=CARTESIAN_POINT('',(1.00000000000000000E0,1.00000000000000000E0));
#216=CARTESIAN_POINT('',(9.68750000000000000E-1,1.00000000000000000E0));
#217=(BOUNDED_CURVE()B_SPLINE_CURVE(2,(#214,#215,#216),.UNSPECIFIED.,.F.,.F.)B_SPLINE_CURVE_WITH_KNOTS((3,3),(0.00000000000000000E0,1.00000000000000000E0),.UNSPECIFIED.)CURVE()GEOMETRIC_REPRESENTATION_ITEM()RATIONAL_B_SPLINE_CURVE((2.00000000000000000E0,1.00000000000000000E0,1.00000000000000000E0))REPRESENTATION_ITEM(''));
#218=DEFINITIONAL_REPRESENTATION('',(#217),#157);
#219=PCURVE('',#41,#218);
#220=CARTESIAN_POINT('',(9.68750000000000000E-1,1.00000000000000000E0));
#221=CARTESIAN_POINT('',(0.00000000000000000E0,1.00000000000000000E0));
#222=B_SPLINE_CURVE_WITH_KNOTS('',1,(#220,#221),.UNSPECIFIED.,.F.,.F.,(2,2),(0.00000000000000000E0,1.00000000000000000E0),.UNSPECIFIED.);
#223=DEFINITIONAL_REPRESENTATION('',(#222),#157);
#224=PCURVE('',#41,#223);
#225=CARTESIAN_POINT('',(0.00000000000000000E0,1.00000000000000000E0));
#226=CARTESIAN_POINT('',(0.00000000000000000E0,0.00000000000000000E0));
#227=B_SPLINE_CURVE_WITH_KNOTS('',1,(#225,#226),.UNSPECIFIED.,.F.,.F.,(2,2),(0.00000000000000000E0,1.00000000000000000E0),.UNSPECIFIED.);
#228=DEFINITIONAL_REPRESENTATION('',(#227),#157);
#229=PCURVE('',#41,#228);
#230=CARTESIAN_POINT('',(1.00000000000000000E0,0.00000000000000000E0));
#231=CARTESIAN_POINT('',(1.00000000000000000E0,1.00000000000000000E0));
#232=B_SPLINE_CURVE_WITH_KNOTS('',1,(#230,#231),.UNSPECIFIED.,.F.,.F.,(2,2),(0.00000000000000000E0,1.00000000000000000E0),.UNSPECIFIED.);
#233=DEFINITIONAL_REPRESENTATION('',(#232),#157);
#234=PCURVE('',#46,#233);
#235=CARTESIAN_POINT('',(1.00000000000000000E0,1.00000000000000000E0));
#236=CARTESIAN_POINT('',(2.50000000000000222E-2,1.00000000000000000E0));
#237=B_SPLINE_CURVE_WITH_KNOTS('',1,(#235,#236),.UNSPECIFIED.,.F.,.F.,(2,2),(0.00000000000000000E0,1.00000000000000000E0),.UNSPECIFIED.);
#238=DEFINITIONAL_REPRESENTATION('',(#237),#157);
#239=PCURVE('',#46,#238);
#240=CARTESIAN_POINT('',(2.50000000000000222E-2,1.00000000000000000E0));
#241=CARTESIAN_POINT('',(0.00000000000000000E0,1.00000000000000000E0));
#242=CARTESIAN_POINT('',(0.00000000000000000E0,9.58333333333333370E-1));
#243=(BOUNDED_CURVE()B_SPLINE_CURVE(2,(#240,#241,#242),.UNSPECIFIED.,.F.,.F.)B_SPLINE_CURVE_WITH_KNOTS((3,3),(0.00000000000000000E0,1.00000000000000000E0),.UNSPECIFIED.)CURVE()GEOMETRIC_REPRESENTATION_ITEM()RATIONAL_B_SPLINE_CURVE((1.00000000000000000E0,1.00000000000000000E0,2.00000000000000000E0))REPRESENTATION_ITEM(''));
#244=DEFINITIONAL_REPRESENTATION('',(#243),#157);
#245=PCURVE('',#46,#244);
#246=CARTESIAN_POINT('',(0.00000000000000000E0,9.58333333333333370E-1));
#247=CARTESIAN_POINT('',(0.00000000000000000E0,0.00000000000000000E0));
#248=B_SPLINE_CURVE_WITH_KNOTS('',1,(#246,#247),.UNSPECIFIED.,.F.,.F.,(2,2),(0.00000000000000000E0,1.00000000000000000E0),.UNSPECIFIED.);
#249=DEFINITIONAL_REPRESENTATION('',(#248),#157);
#250=PCURVE('',#46,#249);
#251=CARTESIAN_POINT('',(0.00000000000000000E0,0.00000000000000000E0));
#252=CARTESIAN_POINT('',(1.00000000000000000E0,0.00000000000000000E0));
#253=B_SPLINE_CURVE_WITH_KNOTS('',1,(#251,#252),.UNSPECIFIED.,.F.,.F.,(2,2),(0.00000000000000000E0,1.00000000000000000E0),.UNSPECIFIED.);
#254=DEFINITIONAL_REPRESENTATION('',(#253),#157);
#255=PCURVE('',#46,#254);
#256=CARTESIAN_POINT('',(1.00000000000000000E0,0.00000000000000000E0));
#257=CARTESIAN_POINT('',(1.00000000000000000E0,9.58333333333333370E-1));
#258=B_SPLINE_CURVE_WITH_KNOTS('',1,(#256,#257),.UNSPECIFIED.,.F.,.F.,(2,2),(0.00000000000000000E0,1.00000000000000000E0),.UNSPECIFIED.);
#259=DEFINITIONAL_REPRESENTATION('',(#258),#157);
#260=PCURVE('',#51,#259);
#261=CARTESIAN_POINT('',(1.00000000000000000E0,9.58333333333333370E-1));
#262=CARTESIAN_POINT('',(3.12500000000000000E-2,9.58333333333333370E-1));
#263=B_SPLINE_CURVE_WITH_KNOTS('',1,(#261,#262),.UNSPECIFIED.,.F.,.F.,(2,2),(0.00000000000000000E0,1.00000000000000000E0),.UNSPECIFIED.);
#264=DEFINITIONAL_REPRESENTATION('',(#263),#157);
#265=PCURVE('',#51,#264);
#266=CARTESIAN_POINT('',(3.12500000000000000E-2,9.58333333333333370E-1));
#267=CARTESIAN_POINT('',(3.12500000000000000E-2,0.00000000000000000E0));
#268=B_SPLINE_CURVE_WITH_KNOTS('',1,(#266,#267),.UNSPECIFIED.,.F.,.F.,(2,2),(0.00000000000000000E0,1.00000000000000000E0),.UNSPECIFIED.);
#269=DEFINITIONAL_REPRESENTATION('',(#268),#157);
#270=PCURVE('',#51,#269);
#271=CARTESIAN_POINT('',(3.12500000000000000E-2,0.00000000000000000E0));
#272=CARTESIAN_POINT('',(1.00000000000000000E0,0.00000000000000000E0));
#273=B_SPLINE_CURVE_WITH_KNOTS('',1,(#271,#272),.UNSPECIFIED.,.F.,.F.,(2,2),(0.00000000000000000E0,1.00000000000000000E0),.UNSPECIFIED.);
#274=DEFINITIONAL_REPRESENTATION('',(#273),#157);
#275=PCURVE('',#51,#274);
#276=CARTESIAN_POINT('',(0.00000000000000000E0,0.00000000000000000E0));
#277=CARTESIAN_POINT('',(9.74999999999999978E-1,0.00000000000000000E0));
#278=B_SPLINE_CURVE_WITH_KNOTS('',1,(#276,#277),.UNSPECIFIED.,.F.,.F.,(2,2),(0.00000000000000000E0,1.00000000000000000E0),.UNSPECIFIED.);
#279=DEFINITIONAL_REPRESENTATION('',(#278),#157);
#280=PCURVE('',#56,#279);
#281=CARTESIAN_POINT('',(9.74999999999999978E-1,0.00000000000000000E0));
#282=CARTESIAN_POINT('',(9.74999999999999978E-1,9.58333333333333370E-1));
#283=B_SPLINE_CURVE_WITH_KNOTS('',1,(#281,#282),.UNSPECIFIED.,.F.,.F.,(2,2),(0.00000000000000000E0,1.00000000000000000E0),.UNSPECIFIED.);
#284=DEFINITIONAL_REPRESENTATION('',(#283),#157);
#285=PCURVE('',#56,#284);
#286=CARTESIAN_POINT('',(9.74999999999999978E-1,9.58333333333333370E-1));
#287=CARTESIAN_POINT('',(0.00000000000000000E0,9.58333333333333370E-1));
#288=B_SPLINE_CURVE_WITH_KNOTS('',1,(#286,#287),.UNSPECIFIED.,.F.,.F.,(2,2),(0.00000000000000000E0,1.00000000000000000E0),.UNSPECIFIED.);
#289=DEFINITIONAL_REPRESENTATION('',(#288),#157);
#290=PCURVE('',#56,#289);
#291=CARTESIAN_POINT('',(0.00000000000000000E0,9.58333333333333370E-1));
#292=CARTESIAN_POINT('',(0.00000000000000000E0,0.00000000000000000E0));
#293=B_SPLINE_CURVE_WITH_KNOTS('',1,(#291,#292),.UNSPECIFIED.,.F.,.F.,(2,2),(0.00000000000000000E0,1.00000000000000000E0),.UNSPECIFIED.);
#294=DEFINITIONAL_REPRESENTATION('',(#293),#157);
#295=PCURVE('',#56,#294);
#296=CARTESIAN_POINT('',(1.00000000000000000E0,0.00000000000000000E0));
#297=CARTESIAN_POINT('',(1.00000000000000000E0,1.00000000000000000E0));
#298=B_SPLINE_CURVE_WITH_KNOTS('',1,(#296,#297),.UNSPECIFIED.,.F.,.F.,(2,2),(0.00000000000000000E0,1.00000000000000000E0),.UNSPECIFIED.);
#299=DEFINITIONAL_REPRESENTATION('',(#298),#157);
#300=PCURVE('',#63,#299);
#301=CARTESIAN_POINT('',(1.00000000000000000E0,1.00000000000000000E0));
#302=CARTESIAN_POINT('',(0.00000000000000000E0,1.00000000000000000E0));
#303=B_SPLINE_CURVE_WITH_KNOTS('',1,(#301,#302),.UNSPECIFIED.,.F.,.F.,(2,2),(0.00000000000000000E0,1.00000000000000000E0),.UNSPECIFIED.);
#304=DEFINITIONAL_REPRESENTATION('',(#303),#157);
#305=PCURVE('',#63,#304);
#306=CARTESIAN_POINT('',(0.00000000000000000E0,1.00000000000000000E0));
#307=CARTESIAN_POINT('',(0.00000000000000000E0,0.00000000000000000E0));
#308=B_SPLINE_CURVE_WITH_KNOTS('',1,(#306,#307),.UNSPECIFIED.,.F.,.F.,(2,2),(0.00000000000000000E0,1.00000000000000000E0),.UNSPECIFIED.);
#309=DEFINITIONAL_REPRESENTATION('',(#308),#157);
#310=PCURVE('',#63,#309);
#311=CARTESIAN_POINT('',(0.00000000000000000E0,0.00000000000000000E0));
#312=CARTESIAN_POINT('',(1.00000000000000000E0,0.00000000000000000E0));
#313=B_SPLINE_CURVE_WITH_KNOTS('',1,(#311,#312),.UNSPECIFIED.,.F.,.F.,(2,2),(0.00000000000000000E0,1.00000000000000000E0),.UNSPECIFIED.);
#314=DEFINITIONAL_REPRESENTATION('',(#313),#157);
#315=PCURVE('',#63,#314);
#316=CARTESIAN_POINT('',(0.00000000000000000E0,0.00000000000000000E0));
#317=CARTESIAN_POINT('',(1.00000000000000000E0,0.00000000000000000E0));
#318=B_SPLINE_CURVE_WITH_KNOTS('',1,(#316,#317),.UNSPECIFIED.,.F.,.F.,(2,2),(0.00000000000000000E0,1.00000000000000000E0),.UNSPECIFIED.);
#319=DEFINITIONAL_REPRESENTATION('',(#318),#157);
#320=PCURVE('',#70,#319);
#321=CARTESIAN_POINT('',(1.00000000000000000E0,0.00000000000000000E0));
#322=CARTESIAN_POINT('',(1.00000000000000000E0,1.00000000000000000E0));
#323=B_SPLINE_CURVE_WITH_KNOTS('',1,(#321,#322),.UNSPECIFIED.,.F.,.F.,(2,2),(0.00000000000000000E0,1.00000000000000000E0),.UNSPECIFIED.);
#324=DEFINITIONAL_REPRESENTATION('',(#323),#157);
#325=PCURVE('',#70,#324);
#326=CARTESIAN_POINT('',(1.00000000000000000E0,1.00000000000000000E0));
#327=CARTESIAN_POINT('',(0.00000000000000000E0,1.00000000000000000E0));
#328=B_SPLINE_CURVE_WITH_KNOTS('',1,(#326,#327),.UNSPECIFIED.,.F.,.F.,(2,2),(0.00000000000000000E0,1.00000000000000000E0),.UNSPECIFIED.);
#329=DEFINITIONAL_REPRESENTATION('',(#328),#157);
#330=PCURVE('',#70,#329);
#331=CARTESIAN_POINT('',(0.00000000000000000E0,1.00000000000000000E0));
#332=CARTESIAN_POINT('',(0.00000000000000000E0,0.00000000000000000E0));
#333=B_SPLINE_CURVE_WITH_KNOTS('',1,(#331,#332),.UNSPECIFIED.,.F.,.F.,(2,2),(0.00000000000000000E0,1.00000000000000000E0),.UNSPECIFIED.);
#334=DEFINITIONAL_REPRESENTATION('',(#333),#157);
#335=PCURVE('',#70,#334);
#336=CARTESIAN_POINT('',(1.00000000000000000E0,0.00000000000000000E0));
#337=CARTESIAN_POINT('',(1.00000000000000000E0,1.00000000000000000E0));
#338=B_SPLINE_CURVE_WITH_KNOTS('',1,(#336,#337),.UNSPECIFIED.,.F.,.F.,(2,2),(0.00000000000000000E0,1.00000000000000000E0),.UNSPECIFIED.);
#339=DEFINITIONAL_REPRESENTATION('',(#338),#157);
#340=PCURVE('',#77,#339);
#341=CARTESIAN_POINT('',(1.00000000000000000E0,1.00000000000000000E0));
#342=CARTESIAN_POINT('',(0.00000000000000000E0,1.00000000000000000E0));
#343=B_SPLINE_CURVE_WITH_KNOTS('',1,(#341,#342),.UNSPECIFIED.,.F.,.F.,(2,2),(0.00000000000000000E0,1.00000000000000000E0),.UNSPECIFIED.);
#344=DEFINITIONAL_REPRESENTATION('',(#343),#157);
#345=PCURVE('',#77,#344);
#346=CARTESIAN_POINT('',(0.00000000000000000E0,1.00000000000000000E0));
#347=CARTESIAN_POINT('',(0.00000000000000000E0,0.00000000000000000E0));
#348=B_SPLINE_CURVE_WITH_KNOTS('',1,(#346,#347),.UNSPECIFIED.,.F.,.F.,(2,2),(0.00000000000000000E0,1.00000000000000000E0),.UNSPECIFIED.);
#349=DEFINITIONAL_REPRESENTATION('',(#348),#157);
#350=PCURVE('',#77,#349);
#351=CARTESIAN_POINT('',(0.00000000000000000E0,0.00000000000000000E0));
#352=CARTESIAN_POINT('',(1.00000000000000000E0,0.00000000000000000E0));
#353=B_SPLINE_CURVE_WITH_KNOTS('',1,(#351,#352),.UNSPECIFIED.,.F.,.F.,(2,2),(0.00000000000000000E0,1.00000000000000000E0),.UNSPECIFIED.);
#354=DEFINITIONAL_REPRESENTATION('',(#353),#157);
#355=PCURVE('',#77,#354);
#356=CARTESIAN_POINT('',(1.00000000000000000E0,0.00000000000000000E0));
#357=CARTESIAN_POINT('',(1.00000000000000000E0,1.00000000000000000E0));
#358=B_SPLINE_CURVE_WITH_KNOTS('',1,(#356,#357),.UNSPECIFIED.,.F.,.F.,(2,2),(0.00000000000000000E0,1.00000000000000000E0),.UNSPECIFIED.);
#359=DEFINITIONAL_REPRESENTATION('',(#358),#157);
#360=PCURVE('',#87,#359);
#361=CARTESIAN_POINT('',(1.00000000000000000E0,1.00000000000000000E0));
#362=CARTESIAN_POINT('',(0.00000000000000000E0,1.00000000000000000E0));
#363=CARTESIAN_POINT('',(0.00000000000000000E0,0.00000000000000000E0));
#364=(BOUNDED_CURVE()B_SPLINE_CURVE(2,(#361,#362,#363),.UNSPECIFIED.,.F.,.F.)B_SPLINE_CURVE_WITH_KNOTS((3,3),(0.00000000000000000E0,1.00000000000000000E0),.UNSPECIFIED.)CURVE()GEOMETRIC_REPRESENTATION_ITEM()RATIONAL_B_SPLINE_CURVE((1.00000000000000000E0,7.07106781186547573E-1,1.00000000000000000E0))REPRESENTATION_ITEM(''));
#365=DEFINITIONAL_REPRESENTATION('',(#364),#157);
#366=PCURVE('',#87,#365);
#367=CARTESIAN_POINT('',(0.00000000000000000E0,0.00000000000000000E0));
#368=CARTESIAN_POINT('',(1.00000000000000000E0,0.00000000000000000E0));
#369=B_SPLINE_CURVE_WITH_KNOTS('',1,(#367,#368),.UNSPECIFIED.,.F.,.F.,(2,2),(0.00000000000000000E0,1.00000000000000000E0),.UNSPECIFIED.);
#370=DEFINITIONAL_REPRESENTATION('',(#369),#157);
#371=PCURVE('',#87,#370);
#372=SURFACE_CURVE('',#90,(#162,#255),.PCURVE_S1.);
#373=EDGE_CURVE('OSCAD_TOPO/3|edge|e:faad7d70279ca3102eb3f66963c9fe38|390c559f8128d1f5cde44df608cbfa52ce6374672be98c87bd4e1d2e1264b837',#2,#4,#372,.T.);
#374=SURFACE_CURVE('',#93,(#167,#275),.PCURVE_S1.);
#375=EDGE_CURVE('OSCAD_TOPO/3|edge|e:db13fe093d3b7ed2309aa21bddaec295|5aa57c5f06060cfaeac9407a4545a98e7382a899272fd88ddba8da3a623482b6',#4,#10,#374,.T.);
#376=SURFACE_CURVE('',#96,(#178,#280),.PCURVE_S1.);
#377=EDGE_CURVE('OSCAD_TOPO/3|edge|e:3c8b1761dcae32439e34ed803e71f1b6|847b09710b8e6bfb419a163d1da74e95e2b1ea518fcf6cb2ab3d9b184f664db3',#6,#12,#376,.T.);
#378=SURFACE_CURVE('',#99,(#183,#208),.PCURVE_S1.);
#379=EDGE_CURVE('OSCAD_TOPO/3|edge|e:21391d916f5d4073a2c247f6889b1b50|e561cd75490289e948bcdc3befe403e30353c05d8021be58f321762ffe615a0e',#2,#6,#378,.T.);
#380=SURFACE_CURVE('',#102,(#229,#234),.PCURVE_S1.);
#381=EDGE_CURVE('OSCAD_TOPO/3|edge|e:7cd360e60912cc707bcfe2d898e4dbc4|83135d0751b807aab58c5054f9b16910b6274b582e62fba01c2238a0f80dd344',#2,#8,#380,.T.);
#382=SURFACE_CURVE('',#105,(#250,#260),.PCURVE_S1.);
#383=EDGE_CURVE('OSCAD_TOPO/3|edge|e:711dc6aa1ed3c95c63ddad6c1ba42543|01b3ddda8983534957e6c539154b96775d55994b80cc4cfd0288d6f84637673c',#4,#20,#382,.T.);
#384=SURFACE_CURVE('',#108,(#265,#335),.PCURVE_S1.);
#385=EDGE_CURVE('OSCAD_TOPO/3|edge|e:ae7202ec082bd080f1bbe223e26571b4|d241588275e914578ec071a8991d0a5e29a6eeafcfcaa855648d0a29fa929cc3',#14,#20,#384,.T.);
#386=SURFACE_CURVE('',#111,(#270,#300),.PCURVE_S1.);
#387=EDGE_CURVE('OSCAD_TOPO/3|edge|e:942f20d074c4598b7289ca5abc5a6526|349a338a8c36e0b0243cf2ff4c38e52775b2ede0b31b3551b8d5a6f09dfafc23',#10,#14,#386,.T.);
#388=SURFACE_CURVE('',#114,(#285,#310),.PCURVE_S1.);
#389=EDGE_CURVE('OSCAD_TOPO/3|edge|e:ef05c5c86fcfa5e8988aa654e4d9d3fa|bc8f17c71d2596c4c10a4dcc09632fa5fa9a4f67cb3921b75033d992f3aaf3da',#12,#16,#388,.T.);
#390=SURFACE_CURVE('',#117,(#213,#295),.PCURVE_S1.);
#391=EDGE_CURVE('OSCAD_TOPO/3|edge|e:b54b20adb79284fd35d7c0b726a5fbbd|cfab72d76b6b4184258c1495d97cdae1af66f53a25feacbd9010b4daa266d9b1',#6,#24,#390,.T.);
#392=SURFACE_CURVE('',#120,(#290,#340),.PCURVE_S1.);
#393=EDGE_CURVE('OSCAD_TOPO/3|edge|e:0adf5276506b4fcdb9f9f7f142db692e|639a45e486483d97ddef22347c55ff61ed8170ab8d5b5ddb8f8acf55a979f534',#16,#24,#392,.T.);
#394=SURFACE_CURVE('',#123,(#203,#239),.PCURVE_S1.);
#395=EDGE_CURVE('OSCAD_TOPO/3|edge|e:57aafb43b818ef50608a6d78f7f2e50c|58e611748de5873f11720f38091b97f28127c5104bb6d1971371d8347a15e7ca',#8,#22,#394,.T.);
#396=SURFACE_CURVE('',#126,(#198,#325),.PCURVE_S1.);
#397=EDGE_CURVE('OSCAD_TOPO/3|edge|e:448bdb8e0b7d650761a6d9526a08d8df|ac9edae4831532c24cefdfc86c37bda893b8533ae98724d7ad113349f0ab8428',#18,#22,#396,.T.);
#398=SURFACE_CURVE('',#129,(#188,#224),.PCURVE_S1.);
#399=EDGE_CURVE('OSCAD_TOPO/3|edge|e:3232e9bef5e85779a331258fdd747ad1|48b59df192cfcbb15e9202ebbc528ce95ca65fb50de33a1e578b40c9b921f3d8',#8,#26,#398,.T.);
#400=SURFACE_CURVE('',#132,(#193,#350),.PCURVE_S1.);
#401=EDGE_CURVE('OSCAD_TOPO/3|edge|e:3bb964aebb031b3a1959d5dc50568e21|ff7e78479aa984ddaa25ca57bd15a981ed63f61a40e40a50b018547d9354d59d',#18,#26,#400,.T.);
#402=SURFACE_CURVE('',#136,(#173,#315),.PCURVE_S1.);
#403=EDGE_CURVE('OSCAD_TOPO/3|edge|e:c4f42673cef88d938022a4c0aab57c6b|e954403fd07b5409b7cb10a8912b4a678f671214ada5836887f05fc58545f5bc',#10,#12,#402,.T.);
#404=SURFACE_CURVE('',#140,(#305,#366),.PCURVE_S1.);
#405=EDGE_CURVE('OSCAD_TOPO/3|edge|e:f0a52ec421446f537c7ad17b42e89de3|772b5f5d2cb3fc48f87122a3d639b3854c3154e8d30a8ca46de047717ad852d8',#14,#16,#404,.T.);
#406=SURFACE_CURVE('',#144,(#330,#371),.PCURVE_S1.);
#407=EDGE_CURVE('OSCAD_TOPO/3|edge|e:1ecbe554229b6c97ffa212487a780e91|39c2b8e3a3b8064a42305e4a9db16d3d82ba9357aab4cc1f5b34f3f80789e408',#14,#18,#406,.T.);
#408=SURFACE_CURVE('',#148,(#345,#360),.PCURVE_S1.);
#409=EDGE_CURVE('OSCAD_TOPO/3|edge|e:5829b529db0fa37ab0fe3554f88f38bc|b28e19dc2e9de68a3aa8d5a42211d4ffd13bc2e9dc7bfa83a18dce76d32f8e55',#16,#18,#408,.T.);
#410=SURFACE_CURVE('',#152,(#245,#320),.PCURVE_S1.);
#411=EDGE_CURVE('OSCAD_TOPO/3|edge|e:992b339a6c2953562e72cfdfade004df|9eacce3cfb5dccb3ce1878c66e9fbebd1da176059b4ffa63e8d655d02cca434d',#20,#22,#410,.T.);
#412=SURFACE_CURVE('',#156,(#219,#355),.PCURVE_S1.);
#413=EDGE_CURVE('OSCAD_TOPO/3|edge|e:7d2f37273fdcf8a811f534d0dbe9e8d6|9e53513fd39873ad4c567c3b55dcd03ee70296a4c29201d729a9a29663288a5e',#24,#26,#412,.T.);
#414=ORIENTED_EDGE('',*,*,#373,.T.);
#415=ORIENTED_EDGE('',*,*,#375,.T.);
#416=ORIENTED_EDGE('',*,*,#403,.T.);
#417=ORIENTED_EDGE('',*,*,#377,.F.);
#418=ORIENTED_EDGE('',*,*,#379,.F.);
#419=EDGE_LOOP('OSCAD_TOPO/3|loop|l:441354e90d9bd073c5263c4475a4a87b|06b3971bc1da1dee1fef53928ed742646428701f217fae40cd40d490a1b061e7',(#414,#415,#416,#417,#418));
#420=ORIENTED_EDGE('',*,*,#399,.T.);
#421=ORIENTED_EDGE('',*,*,#401,.F.);
#422=ORIENTED_EDGE('',*,*,#397,.T.);
#423=ORIENTED_EDGE('',*,*,#395,.F.);
#424=EDGE_LOOP('OSCAD_TOPO/3|loop|l:780599d03fe46871e49c78838a0c3755|ee5171573bcf66adb0a217952847d2bc08c152de0bd1abd4013133a05536e290',(#420,#421,#422,#423));
#425=ORIENTED_EDGE('',*,*,#379,.T.);
#426=ORIENTED_EDGE('',*,*,#391,.T.);
#427=ORIENTED_EDGE('',*,*,#413,.T.);
#428=ORIENTED_EDGE('',*,*,#399,.F.);
#429=ORIENTED_EDGE('',*,*,#381,.F.);
#430=EDGE_LOOP('OSCAD_TOPO/3|loop|l:8ceba3c8a895fcbd64aba4d08db27889|74e97fc43e750d8082a008e4fca66f6cbc8b5d180e20cb232b8775068ec12833',(#425,#426,#427,#428,#429));
#431=ORIENTED_EDGE('',*,*,#381,.T.);
#432=ORIENTED_EDGE('',*,*,#395,.T.);
#433=ORIENTED_EDGE('',*,*,#411,.F.);
#434=ORIENTED_EDGE('',*,*,#383,.F.);
#435=ORIENTED_EDGE('',*,*,#373,.F.);
#436=EDGE_LOOP('OSCAD_TOPO/3|loop|l:ef63aff1c7979e366d56d67b0a359b99|06221d1dbfb1e590704d3567255bf39c8ae71b6412ef4ef66d5b1c9b0e64b0b2',(#431,#432,#433,#434,#435));
#437=ORIENTED_EDGE('',*,*,#383,.T.);
#438=ORIENTED_EDGE('',*,*,#385,.F.);
#439=ORIENTED_EDGE('',*,*,#387,.F.);
#440=ORIENTED_EDGE('',*,*,#375,.F.);
#441=EDGE_LOOP('OSCAD_TOPO/3|loop|l:9014f96064202e7d13653e10ad340ef1|797f01628e578a53bb14e52f58e59ac57f317b2660f4fc1457c575769559d794',(#437,#438,#439,#440));
#442=ORIENTED_EDGE('',*,*,#377,.T.);
#443=ORIENTED_EDGE('',*,*,#389,.T.);
#444=ORIENTED_EDGE('',*,*,#393,.T.);
#445=ORIENTED_EDGE('',*,*,#391,.F.);
#446=EDGE_LOOP('OSCAD_TOPO/3|loop|l:d85ce8feb58716fbf85d1f55ae9ed26d|ee66909fc057a00156bf05070fbf55095bd2d57ff6acc4ddea5fbc7932f6e113',(#442,#443,#444,#445));
#447=ORIENTED_EDGE('',*,*,#387,.T.);
#448=ORIENTED_EDGE('',*,*,#405,.T.);
#449=ORIENTED_EDGE('',*,*,#389,.F.);
#450=ORIENTED_EDGE('',*,*,#403,.F.);
#451=EDGE_LOOP('OSCAD_TOPO/3|loop|l:e7c3f1dbe7ac19e9b37d4f93f25f432f|25c74fbff20fb7f93e2dc266b47c69345ffe681d4887cd6c602adf09289729b9',(#447,#448,#449,#450));
#452=ORIENTED_EDGE('',*,*,#411,.T.);
#453=ORIENTED_EDGE('',*,*,#397,.F.);
#454=ORIENTED_EDGE('',*,*,#407,.F.);
#455=ORIENTED_EDGE('',*,*,#385,.T.);
#456=EDGE_LOOP('OSCAD_TOPO/3|loop|l:24b651d4439e9c8bdaba4c6e078ffcc2|fa0fcd5a74b5ec4a7f921b7bd3e255b6189c3775065d0e7e71e99b4b8573df52',(#452,#453,#454,#455));
#457=ORIENTED_EDGE('',*,*,#393,.F.);
#458=ORIENTED_EDGE('',*,*,#409,.T.);
#459=ORIENTED_EDGE('',*,*,#401,.T.);
#460=ORIENTED_EDGE('',*,*,#413,.F.);
#461=EDGE_LOOP('OSCAD_TOPO/3|loop|l:777b0d5e3555666596fe8b834bec049a|c2c80094938a17ae0fd475c38d4fb0c6f90c7ad3f17ca93d5dee8bc9034d5b5b',(#457,#458,#459,#460));
#462=ORIENTED_EDGE('',*,*,#409,.F.);
#463=ORIENTED_EDGE('',*,*,#405,.F.);
#464=ORIENTED_EDGE('',*,*,#407,.T.);
#465=EDGE_LOOP('OSCAD_TOPO/3|loop|l:f6c891ced2eebe5472ef624eda5f6d26|48a5a9c8f0d942f2ca270713ccf6dfc2ea4413b0afd4556e4bf7504c04cfb2e5',(#462,#463,#464));
#466=FACE_OUTER_BOUND('',#419,.T.);
#467=ADVANCED_FACE('OSCAD_TOPO/3|face|f:7f4de94edcdc38d63a6b7b91e5c167e5|1614db2ef6414af427a47b0ee183e4e98999e8dd8651c590933c170d76896408',(#466),#31,.T.);
#468=FACE_OUTER_BOUND('',#424,.T.);
#469=ADVANCED_FACE('OSCAD_TOPO/3|face|f:1f82a4cf82600b7da965bebb5d9ce053|357ee1315badc4b6d47cc11c6e702c778a45ed931e1cd54ecb3964d1e6a4ea4a',(#468),#36,.T.);
#470=FACE_OUTER_BOUND('',#430,.T.);
#471=ADVANCED_FACE('OSCAD_TOPO/3|face|f:b8be863968d85e992c65b1cf0bb82038|bcebeffa50e26beb271b61cad81bb6d042a82404ded3eaf2558add50ed332c08',(#470),#41,.T.);
#472=FACE_OUTER_BOUND('',#436,.T.);
#473=ADVANCED_FACE('OSCAD_TOPO/3|face|f:df81c18d3fb2dc7e72fdf1694b08ffa3|c6af175c8459c33be104f2fe6a23009005705deeed7c8362ba4ca1b9b67301b4',(#472),#46,.T.);
#474=FACE_OUTER_BOUND('',#441,.T.);
#475=ADVANCED_FACE('OSCAD_TOPO/3|face|f:9e9366916651cab00ba76af0bf105eaf|953d6e59ea6d94dcc29e26481f29eb4d69b2ace2c00c1512a90ac4f5b03fcf42',(#474),#51,.T.);
#476=FACE_OUTER_BOUND('',#446,.T.);
#477=ADVANCED_FACE('OSCAD_TOPO/3|face|f:f69084975a09c24f7a0a68f0ae66457f|36ae2a04dacd3e65835a19fbb5d7126ec1c90d19d809ffb81fdfd1da7e056d04',(#476),#56,.T.);
#478=FACE_OUTER_BOUND('',#451,.T.);
#479=ADVANCED_FACE('OSCAD_TOPO/3|face|f:095f32b7905e85cdd132659f65d536ca|4804dc036543937ad087a35db66d453bc4174cb81a9296abd431fd269ad7a9f6',(#478),#63,.T.);
#480=FACE_OUTER_BOUND('',#456,.T.);
#481=ADVANCED_FACE('OSCAD_TOPO/3|face|f:2c1659158a72bfa5c7a1167e113ffa38|596643aef38573725cbec1435012f16e076651f64976d2a40515df63f00042db',(#480),#70,.T.);
#482=FACE_OUTER_BOUND('',#461,.T.);
#483=ADVANCED_FACE('OSCAD_TOPO/3|face|f:043d576b0c001a9dad6bb0daefa3bda1|f8674243e5447f9341b617e5b1b6857f519daef9e4a3543d8000eecb5064c031',(#482),#77,.T.);
#484=FACE_OUTER_BOUND('',#465,.T.);
#485=ADVANCED_FACE('OSCAD_TOPO/3|face|f:a59053b2d13ef72403eee72e3476a3ad|232048f6055d6276967d9811fa3e5bcce7fc1713d518e063c2b35c85ee714cca',(#484),#87,.T.);
#486=CLOSED_SHELL('OSCAD_TOPO/3|shell|s:b006077d6ffa0ce354bdb0c87c63ab2d|edb0fcb8ba23fbc243d55b9992a808a4667dfe8907ed42114b1ffe06ab3f0f2e',(#467,#469,#471,#473,#475,#477,#479,#481,#483,#485));
#487=MANIFOLD_SOLID_BREP('OSCAD_TOPO/3|body|b:80530a6dd27965cd1778dcc134288307|b99ccd99d4c637dbedf107d7ac8c381e80dbb396dbc800b1e1f88bb0cf22cdb3',#486);
#488=(LENGTH_UNIT()NAMED_UNIT(*)SI_UNIT(.MILLI.,.METRE.));
#489=UNCERTAINTY_MEASURE_WITH_UNIT(LENGTH_MEASURE(9.99999999999999955E-8),#488,'distance_accuracy_value','');
#490=(GEOMETRIC_REPRESENTATION_CONTEXT(3)GLOBAL_UNCERTAINTY_ASSIGNED_CONTEXT((#489))GLOBAL_UNIT_ASSIGNED_CONTEXT((#488))REPRESENTATION_CONTEXT('','3D'));
#491=ADVANCED_BREP_SHAPE_REPRESENTATION('',(#487),#490);
#492=APPLICATION_CONTEXT('managed model based 3d engineering');
#493=PRODUCT_CONTEXT('',#492,'mechanical');
#494=PRODUCT('model','model','',(#493));
#495=PRODUCT_DEFINITION_FORMATION('1','',#494);
#496=PRODUCT_DEFINITION_CONTEXT('part definition',#492,'design');
#497=PRODUCT_DEFINITION('design','',#495,#496);
#498=PRODUCT_DEFINITION_SHAPE('','',#497);
#499=SHAPE_DEFINITION_REPRESENTATION(#498,#491);
ENDSEC;
END-ISO-10303-21;
