ISO-10303-21;
HEADER;
FILE_DESCRIPTION(('OpenSCAD Viewer retained AP242 B-rep'),'2;1');
FILE_NAME('model.step','',(''),(''),'OpenSCAD Viewer','OpenSCAD Viewer','');
FILE_SCHEMA(('AP242_MANAGED_MODEL_BASED_3D_ENGINEERING_MIM_LF'));
ENDSEC;
DATA;
#1=CARTESIAN_POINT('',(2.59993250014434878E1,-2.43086242941436659E0,3.08650226380548105E1));
#2=VERTEX_POINT('OSCAD_TOPO/3|vertex|v:e3789316bdc04d4e2258543edf701bba|8dc2176457dbce8e16aceb11ec9dd9f82a6e824fb474d5d54ed4cb3ad2005a5c',#1);
#3=CARTESIAN_POINT('',(1.88696661209520009E1,-6.05963140081898644E0,3.08650226380548105E1));
#4=VERTEX_POINT('OSCAD_TOPO/3|vertex|v:54fa25a6bb13b3650ac936b4b6b10eae|b0271ffac8aa888b9bedea6e7c6de959f5d3441ef67038136af66479b1ce9049',#3);
#5=CARTESIAN_POINT('',(2.18543461362735343E1,-1.19238102847190319E1,2.36701917697326714E1));
#6=VERTEX_POINT('OSCAD_TOPO/3|vertex|v:f0b3eb37e3b8f22d8a1bd67c6e028c0e|7abab010207714eb29f19da3e89e39799e8496a9898d654987e9468b3ed65fe0',#5);
#7=CARTESIAN_POINT('',(2.21536782330920090E1,-1.19607748154882803E1,2.34857089269551800E1));
#8=VERTEX_POINT('OSCAD_TOPO/3|vertex|v:d66a993d95a4b528840fa8488abdf313|a7a38177c0b1a0d74481600ba8ebea35bfd13c7c2ae708fde4dee68df0878c9f',#7);
#9=CARTESIAN_POINT('',(2.90605352735681386E1,-8.44540487444005450E0,2.34857089269551800E1));
#10=VERTEX_POINT('OSCAD_TOPO/3|vertex|v:4fdb6e809a990a71ecc6eddd0fc41ddb|7c9a20dcd9e9d75557b9b59c278c2555b842ad8841cce3df9fb27220ee998e24',#9);
#11=CARTESIAN_POINT('',(2.39909881545610588E1,1.51503678550618481E0,2.68157680776272045E1));
#12=VERTEX_POINT('OSCAD_TOPO/3|vertex|v:f10c52dc35cdce5d9877eb464f4fa21f|1b18388a4354f6edadda20af50ba36e5e3f8d4811931578b0adbaab18025f710',#11);
#13=CARTESIAN_POINT('',(2.69756681698825957E1,-4.34914209839386068E0,1.96209372093050689E1));
#14=VERTEX_POINT('OSCAD_TOPO/3|vertex|v:46ec023cc103795b365e47dbc61e3365|cc5d08d4f98e69d2e3c821e7dc108c8a65129d09a4ca92af1be385d7e29cfd47',#13);
#15=CARTESIAN_POINT('',(2.00688111294064697E1,-7.86451203944208643E0,1.96209372093050689E1));
#16=VERTEX_POINT('OSCAD_TOPO/3|vertex|v:808f3717270ee9dcdfceeaee597d65d5|81594fd48cfdc187d261ab84c85b71fba90872c65a13e40f4240cbda916cd2a5',#15);
#17=CARTESIAN_POINT('',(1.70841311140849328E1,-2.00033315554204094E0,2.68157680776272045E1));
#18=VERTEX_POINT('OSCAD_TOPO/3|vertex|v:9b3f31af94274b840a2a2c3ed78700b1|1fd62c404e90eda1078a8a0e84cadcf96a203c0952907441f6eaab47491af3a5',#17);
#19=CARTESIAN_POINT('',(2.71358791286391465E1,-4.66391812680785911E0,1.96051733065453959E1));
#20=VERTEX_POINT('OSCAD_TOPO/3|vertex|v:add7751908b172ade3d34a8e95e6b146|83844de8a3b91738e5950c2a9c956cc69c9a232f534a513977c0ec107cb8ad74',#19);
#21=CARTESIAN_POINT('',(1.69450099760230088E1,-2.27814465318679105E0,2.69844870176450229E1));
#22=VERTEX_POINT('OSCAD_TOPO/3|vertex|v:9a29369e84f3ce443636154e3187be7f|2d28be96690e3dc2442565511280ee79c46f43b69ca3432cc32c762ad7d95c77',#21);
#23=CARTESIAN_POINT('',(1.99296899913445458E1,-8.14232353708683654E0,1.97896561493228837E1));
#24=VERTEX_POINT('OSCAD_TOPO/3|vertex|v:c0d7d0f542cd0079cef21d8c75da4672|d24d741e0008402d4aeb77c65f76df980b930cc506779c4c3a8443668ee3cdbe',#23);
#25=CARTESIAN_POINT('',(2.02290220881630205E1,-8.17928806785608487E0,1.96051733065453959E1));
#26=VERTEX_POINT('OSCAD_TOPO/3|vertex|v:d3a9ac385e91829a0f73521abbc01b15|809bd524dcf71e5758b20894e6317f8b7702ab9f1ec53d3e9dd0ab891229557a',#25);
#27=CARTESIAN_POINT('',(2.59993250014434878E1,-2.43086242941436659E0,3.08650226380548105E1));
#28=CARTESIAN_POINT('',(2.90605352735681386E1,-8.44540487444005450E0,2.34857089269551800E1));
#29=CARTESIAN_POINT('',(1.88696661209520009E1,-6.05963140081898644E0,3.08650226380548105E1));
#30=CARTESIAN_POINT('',(2.19308763930766517E1,-1.20741738458446743E1,2.34857089269551800E1));
#31=B_SPLINE_SURFACE_WITH_KNOTS('',1,1,((#27,#28),(#29,#30)),.UNSPECIFIED.,.F.,.F.,.F.,(2,2),(2,2),(0.00000000000000000E0,1.00000000000000000E0),(0.00000000000000000E0,1.00000000000000000E0),.UNSPECIFIED.);
#32=CARTESIAN_POINT('',(1.68613292740695755E1,-2.11373218589843503E0,2.68157680776272045E1));
#33=CARTESIAN_POINT('',(1.99225395461942263E1,-8.12827463092412295E0,1.94364543665275775E1));
#34=CARTESIAN_POINT('',(2.39909881545610588E1,1.51503678550618481E0,2.68157680776272045E1));
#35=CARTESIAN_POINT('',(2.70521984266857132E1,-4.49950565951950310E0,1.94364543665275775E1));
#36=B_SPLINE_SURFACE_WITH_KNOTS('',1,1,((#32,#33),(#34,#35)),.UNSPECIFIED.,.F.,.F.,.F.,(2,2),(2,2),(0.00000000000000000E0,1.00000000000000000E0),(0.00000000000000000E0,1.00000000000000000E0),.UNSPECIFIED.);
#37=CARTESIAN_POINT('',(2.59993250014434878E1,-2.43086242941436659E0,3.08650226380548105E1));
#38=CARTESIAN_POINT('',(2.39909881545610588E1,1.51503678550618481E0,2.68157680776272045E1));
#39=CARTESIAN_POINT('',(2.90605352735681386E1,-8.44540487444005450E0,2.34857089269551800E1));
#40=CARTESIAN_POINT('',(2.70521984266857132E1,-4.49950565951950310E0,1.94364543665275775E1));
#41=B_SPLINE_SURFACE_WITH_KNOTS('',1,1,((#37,#38),(#39,#40)),.UNSPECIFIED.,.F.,.F.,.F.,(2,2),(2,2),(0.00000000000000000E0,1.00000000000000000E0),(0.00000000000000000E0,1.00000000000000000E0),.UNSPECIFIED.);
#42=CARTESIAN_POINT('',(1.88696661209520009E1,-6.05963140081898644E0,3.08650226380548105E1));
#43=CARTESIAN_POINT('',(1.68613292740695755E1,-2.11373218589843503E0,2.68157680776272045E1));
#44=CARTESIAN_POINT('',(2.59993250014434878E1,-2.43086242941436659E0,3.08650226380548105E1));
#45=CARTESIAN_POINT('',(2.39909881545610588E1,1.51503678550618481E0,2.68157680776272045E1));
#46=B_SPLINE_SURFACE_WITH_KNOTS('',1,1,((#42,#43),(#44,#45)),.UNSPECIFIED.,.F.,.F.,.F.,(2,2),(2,2),(0.00000000000000000E0,1.00000000000000000E0),(0.00000000000000000E0,1.00000000000000000E0),.UNSPECIFIED.);
#47=CARTESIAN_POINT('',(2.19308763930766517E1,-1.20741738458446743E1,2.34857089269551800E1));
#48=CARTESIAN_POINT('',(1.99225395461942263E1,-8.12827463092412295E0,1.94364543665275775E1));
#49=CARTESIAN_POINT('',(1.88696661209520009E1,-6.05963140081898644E0,3.08650226380548105E1));
#50=CARTESIAN_POINT('',(1.68613292740695755E1,-2.11373218589843503E0,2.68157680776272045E1));
#51=B_SPLINE_SURFACE_WITH_KNOTS('',1,1,((#47,#48),(#49,#50)),.UNSPECIFIED.,.F.,.F.,.F.,(2,2),(2,2),(0.00000000000000000E0,1.00000000000000000E0),(0.00000000000000000E0,1.00000000000000000E0),.UNSPECIFIED.);
#52=CARTESIAN_POINT('',(2.90605352735681386E1,-8.44540487444005450E0,2.34857089269551800E1));
#53=CARTESIAN_POINT('',(2.70521984266857132E1,-4.49950565951950310E0,1.94364543665275775E1));
#54=CARTESIAN_POINT('',(2.19308763930766517E1,-1.20741738458446743E1,2.34857089269551800E1));
#55=CARTESIAN_POINT('',(1.99225395461942263E1,-8.12827463092412295E0,1.94364543665275775E1));
#56=B_SPLINE_SURFACE_WITH_KNOTS('',1,1,((#52,#53),(#54,#55)),.UNSPECIFIED.,.F.,.F.,.F.,(2,2),(2,2),(0.00000000000000000E0,1.00000000000000000E0),(0.00000000000000000E0,1.00000000000000000E0),.UNSPECIFIED.);
#57=CARTESIAN_POINT('',(2.21536782330920090E1,-1.19607748154882803E1,2.34857089269551800E1));
#58=CARTESIAN_POINT('',(2.02290220881630205E1,-8.17928806785608487E0,1.96051733065453959E1));
#59=CARTESIAN_POINT('',(2.19308763930766517E1,-1.20741738458446743E1,2.34857089269551800E1));
#60=CARTESIAN_POINT('',(2.00062202481476596E1,-8.29268709821247896E0,1.96051733065453959E1));
#61=CARTESIAN_POINT('',(2.18543461362735343E1,-1.19238102847190319E1,2.36701917697326714E1));
#62=CARTESIAN_POINT('',(1.99296899913445458E1,-8.14232353708683654E0,1.97896561493228837E1));
#63=(BOUNDED_SURFACE()B_SPLINE_SURFACE(2,1,((#57,#58),(#59,#60),(#61,#62)),.UNSPECIFIED.,.F.,.F.,.F.)B_SPLINE_SURFACE_WITH_KNOTS((3,3),(2,2),(0.00000000000000000E0,1.00000000000000000E0),(0.00000000000000000E0,1.00000000000000000E0),.UNSPECIFIED.)GEOMETRIC_REPRESENTATION_ITEM()RATIONAL_B_SPLINE_SURFACE(((1.00000000000000000E0,1.00000000000000000E0),(7.07106781186547573E-1,7.07106781186547573E-1),(1.00000000000000000E0,1.00000000000000000E0)))REPRESENTATION_ITEM('')SURFACE());
#64=CARTESIAN_POINT('',(1.69450099760230088E1,-2.27814465318679105E0,2.69844870176450229E1));
#65=CARTESIAN_POINT('',(1.99296899913445458E1,-8.14232353708683654E0,1.97896561493228837E1));
#66=CARTESIAN_POINT('',(1.68613292740695755E1,-2.11373218589843503E0,2.68157680776272045E1));
#67=CARTESIAN_POINT('',(1.98460092893911089E1,-7.97791106979848053E0,1.96209372093050689E1));
#68=CARTESIAN_POINT('',(1.70841311140849328E1,-2.00033315554204094E0,2.68157680776272045E1));
#69=CARTESIAN_POINT('',(2.00688111294064697E1,-7.86451203944208643E0,1.96209372093050689E1));
#70=(BOUNDED_SURFACE()B_SPLINE_SURFACE(2,1,((#64,#65),(#66,#67),(#68,#69)),.UNSPECIFIED.,.F.,.F.,.F.)B_SPLINE_SURFACE_WITH_KNOTS((3,3),(2,2),(0.00000000000000000E0,1.00000000000000000E0),(0.00000000000000000E0,1.00000000000000000E0),.UNSPECIFIED.)GEOMETRIC_REPRESENTATION_ITEM()RATIONAL_B_SPLINE_SURFACE(((2.00000000000000000E0,2.00000000000000000E0),(1.00000000000000000E0,1.00000000000000000E0),(1.00000000000000000E0,1.00000000000000000E0)))REPRESENTATION_ITEM('')SURFACE());
#71=CARTESIAN_POINT('',(2.69756681698825957E1,-4.34914209839386068E0,1.96209372093050689E1));
#72=CARTESIAN_POINT('',(2.00688111294064697E1,-7.86451203944208643E0,1.96209372093050689E1));
#73=CARTESIAN_POINT('',(2.70521984266857132E1,-4.49950565951950310E0,1.94364543665275775E1));
#74=CARTESIAN_POINT('',(2.01453413862095836E1,-8.01487560056772885E0,1.94364543665275775E1));
#75=CARTESIAN_POINT('',(2.71358791286391465E1,-4.66391812680785911E0,1.96051733065453959E1));
#76=CARTESIAN_POINT('',(2.02290220881630205E1,-8.17928806785608487E0,1.96051733065453959E1));
#77=(BOUNDED_SURFACE()B_SPLINE_SURFACE(2,1,((#71,#72),(#73,#74),(#75,#76)),.UNSPECIFIED.,.F.,.F.,.F.)B_SPLINE_SURFACE_WITH_KNOTS((3,3),(2,2),(0.00000000000000000E0,1.00000000000000000E0),(0.00000000000000000E0,1.00000000000000000E0),.UNSPECIFIED.)GEOMETRIC_REPRESENTATION_ITEM()RATIONAL_B_SPLINE_SURFACE(((1.00000000000000000E0,1.00000000000000000E0),(1.00000000000000000E0,1.00000000000000000E0),(2.00000000000000000E0,2.00000000000000000E0)))REPRESENTATION_ITEM('')SURFACE());
#78=CARTESIAN_POINT('',(1.99296899913445458E1,-8.14232353708683654E0,1.97896561493228837E1));
#79=CARTESIAN_POINT('',(1.99679551197461009E1,-8.21750531764965864E0,1.96974147279341381E1));
#80=CARTESIAN_POINT('',(2.00828710098695531E1,-8.25957039014791938E0,1.97229072341438290E1));
#81=CARTESIAN_POINT('',(1.98460092893911089E1,-7.97791106979848053E0,1.96209372093050689E1));
#82=CARTESIAN_POINT('',(1.99225395461942263E1,-8.12827463092412295E0,1.94364543665275775E1));
#83=CARTESIAN_POINT('',(2.01176211681553418E1,-8.23598758303428191E0,1.96051733065453959E1));
#84=CARTESIAN_POINT('',(2.00688111294064697E1,-7.86451203944208643E0,1.96209372093050689E1));
#85=CARTESIAN_POINT('',(2.01453413862095836E1,-8.01487560056772885E0,1.94364543665275775E1));
#86=CARTESIAN_POINT('',(2.02290220881630205E1,-8.17928806785608487E0,1.96051733065453959E1));
#87=(BOUNDED_SURFACE()B_SPLINE_SURFACE(2,2,((#78,#79,#80),(#81,#82,#83),(#84,#85,#86)),.UNSPECIFIED.,.F.,.F.,.F.)B_SPLINE_SURFACE_WITH_KNOTS((3,3),(3,3),(0.00000000000000000E0,1.00000000000000000E0),(0.00000000000000000E0,1.00000000000000000E0),.UNSPECIFIED.)GEOMETRIC_REPRESENTATION_ITEM()RATIONAL_B_SPLINE_SURFACE(((2.00000000000000000E0,2.00000000000000000E0,3.00000000000000000E0),(1.00000000000000000E0,1.00000000000000000E0,2.00000000000000000E0),(1.00000000000000000E0,1.00000000000000000E0,2.00000000000000000E0)))REPRESENTATION_ITEM('')SURFACE());
#88=CARTESIAN_POINT('',(2.59993250014434878E1,-2.43086242941436659E0,3.08650226380548105E1));
#89=CARTESIAN_POINT('',(1.88696661209520009E1,-6.05963140081898644E0,3.08650226380548105E1));
#90=B_SPLINE_CURVE_WITH_KNOTS('',1,(#88,#89),.UNSPECIFIED.,.F.,.F.,(2,2),(0.00000000000000000E0,1.00000000000000000E0),.UNSPECIFIED.);
#91=CARTESIAN_POINT('',(1.88696661209520009E1,-6.05963140081898644E0,3.08650226380548105E1));
#92=CARTESIAN_POINT('',(2.18543461362735343E1,-1.19238102847190319E1,2.36701917697326714E1));
#93=B_SPLINE_CURVE_WITH_KNOTS('',1,(#91,#92),.UNSPECIFIED.,.F.,.F.,(2,2),(0.00000000000000000E0,1.00000000000000000E0),.UNSPECIFIED.);
#94=CARTESIAN_POINT('',(2.18543461362735343E1,-1.19238102847190319E1,2.36701917697326714E1));
#95=CARTESIAN_POINT('',(2.19308763930766517E1,-1.20741738458446743E1,2.34857089269551800E1));
#96=CARTESIAN_POINT('',(2.21536782330920090E1,-1.19607748154882803E1,2.34857089269551800E1));
#97=(BOUNDED_CURVE()B_SPLINE_CURVE(2,(#94,#95,#96),.UNSPECIFIED.,.F.,.F.)B_SPLINE_CURVE_WITH_KNOTS((3,3),(0.00000000000000000E0,1.00000000000000000E0),.UNSPECIFIED.)CURVE()GEOMETRIC_REPRESENTATION_ITEM()RATIONAL_B_SPLINE_CURVE((1.00000000000000000E0,7.07106781186547573E-1,1.00000000000000000E0))REPRESENTATION_ITEM(''));
#98=CARTESIAN_POINT('',(2.90605352735681386E1,-8.44540487444005450E0,2.34857089269551800E1));
#99=CARTESIAN_POINT('',(2.21536782330920090E1,-1.19607748154882803E1,2.34857089269551800E1));
#100=B_SPLINE_CURVE_WITH_KNOTS('',1,(#98,#99),.UNSPECIFIED.,.F.,.F.,(2,2),(0.00000000000000000E0,1.00000000000000000E0),.UNSPECIFIED.);
#101=CARTESIAN_POINT('',(2.59993250014434878E1,-2.43086242941436659E0,3.08650226380548105E1));
#102=CARTESIAN_POINT('',(2.90605352735681386E1,-8.44540487444005450E0,2.34857089269551800E1));
#103=B_SPLINE_CURVE_WITH_KNOTS('',1,(#101,#102),.UNSPECIFIED.,.F.,.F.,(2,2),(0.00000000000000000E0,1.00000000000000000E0),.UNSPECIFIED.);
#104=CARTESIAN_POINT('',(2.39909881545610588E1,1.51503678550618481E0,2.68157680776272045E1));
#105=CARTESIAN_POINT('',(2.69756681698825957E1,-4.34914209839386068E0,1.96209372093050689E1));
#106=B_SPLINE_CURVE_WITH_KNOTS('',1,(#104,#105),.UNSPECIFIED.,.F.,.F.,(2,2),(0.00000000000000000E0,1.00000000000000000E0),.UNSPECIFIED.);
#107=CARTESIAN_POINT('',(2.00688111294064697E1,-7.86451203944208643E0,1.96209372093050689E1));
#108=CARTESIAN_POINT('',(2.69756681698825957E1,-4.34914209839386068E0,1.96209372093050689E1));
#109=B_SPLINE_CURVE_WITH_KNOTS('',1,(#107,#108),.UNSPECIFIED.,.F.,.F.,(2,2),(0.00000000000000000E0,1.00000000000000000E0),.UNSPECIFIED.);
#110=CARTESIAN_POINT('',(2.00688111294064697E1,-7.86451203944208643E0,1.96209372093050689E1));
#111=CARTESIAN_POINT('',(1.70841311140849328E1,-2.00033315554204094E0,2.68157680776272045E1));
#112=B_SPLINE_CURVE_WITH_KNOTS('',1,(#110,#111),.UNSPECIFIED.,.F.,.F.,(2,2),(0.00000000000000000E0,1.00000000000000000E0),.UNSPECIFIED.);
#113=CARTESIAN_POINT('',(2.39909881545610588E1,1.51503678550618481E0,2.68157680776272045E1));
#114=CARTESIAN_POINT('',(1.70841311140849328E1,-2.00033315554204094E0,2.68157680776272045E1));
#115=B_SPLINE_CURVE_WITH_KNOTS('',1,(#113,#114),.UNSPECIFIED.,.F.,.F.,(2,2),(0.00000000000000000E0,1.00000000000000000E0),.UNSPECIFIED.);
#116=CARTESIAN_POINT('',(2.90605352735681386E1,-8.44540487444005450E0,2.34857089269551800E1));
#117=CARTESIAN_POINT('',(2.71358791286391465E1,-4.66391812680785911E0,1.96051733065453959E1));
#118=B_SPLINE_CURVE_WITH_KNOTS('',1,(#116,#117),.UNSPECIFIED.,.F.,.F.,(2,2),(0.00000000000000000E0,1.00000000000000000E0),.UNSPECIFIED.);
#119=CARTESIAN_POINT('',(2.71358791286391465E1,-4.66391812680785911E0,1.96051733065453959E1));
#120=CARTESIAN_POINT('',(2.70521984266857132E1,-4.49950565951950310E0,1.94364543665275775E1));
#121=CARTESIAN_POINT('',(2.69756681698825957E1,-4.34914209839386068E0,1.96209372093050689E1));
#122=(BOUNDED_CURVE()B_SPLINE_CURVE(2,(#119,#120,#121),.UNSPECIFIED.,.F.,.F.)B_SPLINE_CURVE_WITH_KNOTS((3,3),(0.00000000000000000E0,1.00000000000000000E0),.UNSPECIFIED.)CURVE()GEOMETRIC_REPRESENTATION_ITEM()RATIONAL_B_SPLINE_CURVE((2.00000000000000000E0,1.00000000000000000E0,1.00000000000000000E0))REPRESENTATION_ITEM(''));
#123=CARTESIAN_POINT('',(2.59993250014434878E1,-2.43086242941436659E0,3.08650226380548105E1));
#124=CARTESIAN_POINT('',(2.39909881545610588E1,1.51503678550618481E0,2.68157680776272045E1));
#125=B_SPLINE_CURVE_WITH_KNOTS('',1,(#123,#124),.UNSPECIFIED.,.F.,.F.,(2,2),(0.00000000000000000E0,1.00000000000000000E0),.UNSPECIFIED.);
#126=CARTESIAN_POINT('',(1.69450099760230088E1,-2.27814465318679105E0,2.69844870176450229E1));
#127=CARTESIAN_POINT('',(1.68613292740695755E1,-2.11373218589843503E0,2.68157680776272045E1));
#128=CARTESIAN_POINT('',(1.70841311140849328E1,-2.00033315554204094E0,2.68157680776272045E1));
#129=(BOUNDED_CURVE()B_SPLINE_CURVE(2,(#126,#127,#128),.UNSPECIFIED.,.F.,.F.)B_SPLINE_CURVE_WITH_KNOTS((3,3),(0.00000000000000000E0,1.00000000000000000E0),.UNSPECIFIED.)CURVE()GEOMETRIC_REPRESENTATION_ITEM()RATIONAL_B_SPLINE_CURVE((2.00000000000000000E0,1.00000000000000000E0,1.00000000000000000E0))REPRESENTATION_ITEM(''));
#130=CARTESIAN_POINT('',(1.88696661209520009E1,-6.05963140081898644E0,3.08650226380548105E1));
#131=CARTESIAN_POINT('',(1.69450099760230088E1,-2.27814465318679105E0,2.69844870176450229E1));
#132=B_SPLINE_CURVE_WITH_KNOTS('',1,(#130,#131),.UNSPECIFIED.,.F.,.F.,(2,2),(0.00000000000000000E0,1.00000000000000000E0),.UNSPECIFIED.);
#133=CARTESIAN_POINT('',(1.99296899913445458E1,-8.14232353708683654E0,1.97896561493228837E1));
#134=CARTESIAN_POINT('',(1.69450099760230088E1,-2.27814465318679105E0,2.69844870176450229E1));
#135=B_SPLINE_CURVE_WITH_KNOTS('',1,(#133,#134),.UNSPECIFIED.,.F.,.F.,(2,2),(0.00000000000000000E0,1.00000000000000000E0),.UNSPECIFIED.);
#136=CARTESIAN_POINT('',(2.18543461362735343E1,-1.19238102847190319E1,2.36701917697326714E1));
#137=CARTESIAN_POINT('',(1.99296899913445458E1,-8.14232353708683654E0,1.97896561493228837E1));
#138=B_SPLINE_CURVE_WITH_KNOTS('',1,(#136,#137),.UNSPECIFIED.,.F.,.F.,(2,2),(0.00000000000000000E0,1.00000000000000000E0),.UNSPECIFIED.);
#139=CARTESIAN_POINT('',(2.21536782330920090E1,-1.19607748154882803E1,2.34857089269551800E1));
#140=CARTESIAN_POINT('',(2.02290220881630205E1,-8.17928806785608487E0,1.96051733065453959E1));
#141=B_SPLINE_CURVE_WITH_KNOTS('',1,(#139,#140),.UNSPECIFIED.,.F.,.F.,(2,2),(0.00000000000000000E0,1.00000000000000000E0),.UNSPECIFIED.);
#142=CARTESIAN_POINT('',(2.02290220881630205E1,-8.17928806785608487E0,1.96051733065453959E1));
#143=CARTESIAN_POINT('',(2.71358791286391465E1,-4.66391812680785911E0,1.96051733065453959E1));
#144=B_SPLINE_CURVE_WITH_KNOTS('',1,(#142,#143),.UNSPECIFIED.,.F.,.F.,(2,2),(0.00000000000000000E0,1.00000000000000000E0),.UNSPECIFIED.);
#145=CARTESIAN_POINT('',(1.99296899913445458E1,-8.14232353708683654E0,1.97896561493228837E1));
#146=CARTESIAN_POINT('',(2.00062202481476596E1,-8.29268709821247896E0,1.96051733065453959E1));
#147=CARTESIAN_POINT('',(2.02290220881630205E1,-8.17928806785608487E0,1.96051733065453959E1));
#148=(BOUNDED_CURVE()B_SPLINE_CURVE(2,(#145,#146,#147),.UNSPECIFIED.,.F.,.F.)B_SPLINE_CURVE_WITH_KNOTS((3,3),(0.00000000000000000E0,1.00000000000000000E0),.UNSPECIFIED.)CURVE()GEOMETRIC_REPRESENTATION_ITEM()RATIONAL_B_SPLINE_CURVE((1.00000000000000000E0,7.07106781186547573E-1,1.00000000000000000E0))REPRESENTATION_ITEM(''));
#149=CARTESIAN_POINT('',(1.99296899913445458E1,-8.14232353708683654E0,1.97896561493228837E1));
#150=CARTESIAN_POINT('',(1.98460092893911089E1,-7.97791106979848053E0,1.96209372093050689E1));
#151=CARTESIAN_POINT('',(2.00688111294064697E1,-7.86451203944208643E0,1.96209372093050689E1));
#152=(BOUNDED_CURVE()B_SPLINE_CURVE(2,(#149,#150,#151),.UNSPECIFIED.,.F.,.F.)B_SPLINE_CURVE_WITH_KNOTS((3,3),(0.00000000000000000E0,1.00000000000000000E0),.UNSPECIFIED.)CURVE()GEOMETRIC_REPRESENTATION_ITEM()RATIONAL_B_SPLINE_CURVE((2.00000000000000000E0,1.00000000000000000E0,1.00000000000000000E0))REPRESENTATION_ITEM(''));
#153=CARTESIAN_POINT('',(2.02290220881630205E1,-8.17928806785608487E0,1.96051733065453959E1));
#154=CARTESIAN_POINT('',(2.01453413862095836E1,-8.01487560056772885E0,1.94364543665275775E1));
#155=CARTESIAN_POINT('',(2.00688111294064697E1,-7.86451203944208643E0,1.96209372093050689E1));
#156=(BOUNDED_CURVE()B_SPLINE_CURVE(2,(#153,#154,#155),.UNSPECIFIED.,.F.,.F.)B_SPLINE_CURVE_WITH_KNOTS((3,3),(0.00000000000000000E0,1.00000000000000000E0),.UNSPECIFIED.)CURVE()GEOMETRIC_REPRESENTATION_ITEM()RATIONAL_B_SPLINE_CURVE((2.00000000000000000E0,1.00000000000000000E0,1.00000000000000000E0))REPRESENTATION_ITEM(''));
#157=(GEOMETRIC_REPRESENTATION_CONTEXT(2)REPRESENTATION_CONTEXT('','2D'));
#158=CARTESIAN_POINT('',(0.00000000000000000E0,0.00000000000000000E0));
#159=CARTESIAN_POINT('',(1.00000000000000000E0,0.00000000000000000E0));
#160=B_SPLINE_CURVE_WITH_KNOTS('',1,(#158,#159),.UNSPECIFIED.,.F.,.F.,(2,2),(0.00000000000000000E0,1.00000000000000000E0),.UNSPECIFIED.);
#161=DEFINITIONAL_REPRESENTATION('',(#160),#157);
#162=PCURVE('',#31,#161);
#163=CARTESIAN_POINT('',(1.00000000000000000E0,0.00000000000000000E0));
#164=CARTESIAN_POINT('',(1.00000000000000000E0,9.74999999999999978E-1));
#165=B_SPLINE_CURVE_WITH_KNOTS('',1,(#163,#164),.UNSPECIFIED.,.F.,.F.,(2,2),(0.00000000000000000E0,1.00000000000000000E0),.UNSPECIFIED.);
#166=DEFINITIONAL_REPRESENTATION('',(#165),#157);
#167=PCURVE('',#31,#166);
#168=CARTESIAN_POINT('',(1.00000000000000000E0,9.74999999999999978E-1));
#169=CARTESIAN_POINT('',(1.00000000000000000E0,1.00000000000000000E0));
#170=CARTESIAN_POINT('',(9.68750000000000000E-1,1.00000000000000000E0));
#171=(BOUNDED_CURVE()B_SPLINE_CURVE(2,(#168,#169,#170),.UNSPECIFIED.,.F.,.F.)B_SPLINE_CURVE_WITH_KNOTS((3,3),(0.00000000000000000E0,1.00000000000000000E0),.UNSPECIFIED.)CURVE()GEOMETRIC_REPRESENTATION_ITEM()RATIONAL_B_SPLINE_CURVE((1.00000000000000000E0,7.07106781186547573E-1,1.00000000000000000E0))REPRESENTATION_ITEM(''));
#172=DEFINITIONAL_REPRESENTATION('',(#171),#157);
#173=PCURVE('',#31,#172);
#174=CARTESIAN_POINT('',(9.68750000000000000E-1,1.00000000000000000E0));
#175=CARTESIAN_POINT('',(0.00000000000000000E0,1.00000000000000000E0));
#176=B_SPLINE_CURVE_WITH_KNOTS('',1,(#174,#175),.UNSPECIFIED.,.F.,.F.,(2,2),(0.00000000000000000E0,1.00000000000000000E0),.UNSPECIFIED.);
#177=DEFINITIONAL_REPRESENTATION('',(#176),#157);
#178=PCURVE('',#31,#177);
#179=CARTESIAN_POINT('',(0.00000000000000000E0,1.00000000000000000E0));
#180=CARTESIAN_POINT('',(0.00000000000000000E0,0.00000000000000000E0));
#181=B_SPLINE_CURVE_WITH_KNOTS('',1,(#179,#180),.UNSPECIFIED.,.F.,.F.,(2,2),(0.00000000000000000E0,1.00000000000000000E0),.UNSPECIFIED.);
#182=DEFINITIONAL_REPRESENTATION('',(#181),#157);
#183=PCURVE('',#31,#182);
#184=CARTESIAN_POINT('',(1.00000000000000000E0,0.00000000000000000E0));
#185=CARTESIAN_POINT('',(1.00000000000000000E0,9.74999999999999978E-1));
#186=B_SPLINE_CURVE_WITH_KNOTS('',1,(#184,#185),.UNSPECIFIED.,.F.,.F.,(2,2),(0.00000000000000000E0,1.00000000000000000E0),.UNSPECIFIED.);
#187=DEFINITIONAL_REPRESENTATION('',(#186),#157);
#188=PCURVE('',#36,#187);
#189=CARTESIAN_POINT('',(1.00000000000000000E0,9.74999999999999978E-1));
#190=CARTESIAN_POINT('',(3.12500000000000000E-2,9.74999999999999978E-1));
#191=B_SPLINE_CURVE_WITH_KNOTS('',1,(#189,#190),.UNSPECIFIED.,.F.,.F.,(2,2),(0.00000000000000000E0,1.00000000000000000E0),.UNSPECIFIED.);
#192=DEFINITIONAL_REPRESENTATION('',(#191),#157);
#193=PCURVE('',#36,#192);
#194=CARTESIAN_POINT('',(3.12500000000000000E-2,9.74999999999999978E-1));
#195=CARTESIAN_POINT('',(3.12500000000000000E-2,0.00000000000000000E0));
#196=B_SPLINE_CURVE_WITH_KNOTS('',1,(#194,#195),.UNSPECIFIED.,.F.,.F.,(2,2),(0.00000000000000000E0,1.00000000000000000E0),.UNSPECIFIED.);
#197=DEFINITIONAL_REPRESENTATION('',(#196),#157);
#198=PCURVE('',#36,#197);
#199=CARTESIAN_POINT('',(3.12500000000000000E-2,0.00000000000000000E0));
#200=CARTESIAN_POINT('',(1.00000000000000000E0,0.00000000000000000E0));
#201=B_SPLINE_CURVE_WITH_KNOTS('',1,(#199,#200),.UNSPECIFIED.,.F.,.F.,(2,2),(0.00000000000000000E0,1.00000000000000000E0),.UNSPECIFIED.);
#202=DEFINITIONAL_REPRESENTATION('',(#201),#157);
#203=PCURVE('',#36,#202);
#204=CARTESIAN_POINT('',(0.00000000000000000E0,0.00000000000000000E0));
#205=CARTESIAN_POINT('',(1.00000000000000000E0,0.00000000000000000E0));
#206=B_SPLINE_CURVE_WITH_KNOTS('',1,(#204,#205),.UNSPECIFIED.,.F.,.F.,(2,2),(0.00000000000000000E0,1.00000000000000000E0),.UNSPECIFIED.);
#207=DEFINITIONAL_REPRESENTATION('',(#206),#157);
#208=PCURVE('',#41,#207);
#209=CARTESIAN_POINT('',(1.00000000000000000E0,0.00000000000000000E0));
#210=CARTESIAN_POINT('',(1.00000000000000000E0,9.58333333333333370E-1));
#211=B_SPLINE_CURVE_WITH_KNOTS('',1,(#209,#210),.UNSPECIFIED.,.F.,.F.,(2,2),(0.00000000000000000E0,1.00000000000000000E0),.UNSPECIFIED.);
#212=DEFINITIONAL_REPRESENTATION('',(#211),#157);
#213=PCURVE('',#41,#212);
#214=CARTESIAN_POINT('',(1.00000000000000000E0,9.58333333333333370E-1));
#215=CARTESIAN_POINT('',(1.00000000000000000E0,1.00000000000000000E0));
#216=CARTESIAN_POINT('',(9.74999999999999978E-1,1.00000000000000000E0));
#217=(BOUNDED_CURVE()B_SPLINE_CURVE(2,(#214,#215,#216),.UNSPECIFIED.,.F.,.F.)B_SPLINE_CURVE_WITH_KNOTS((3,3),(0.00000000000000000E0,1.00000000000000000E0),.UNSPECIFIED.)CURVE()GEOMETRIC_REPRESENTATION_ITEM()RATIONAL_B_SPLINE_CURVE((2.00000000000000000E0,1.00000000000000000E0,1.00000000000000000E0))REPRESENTATION_ITEM(''));
#218=DEFINITIONAL_REPRESENTATION('',(#217),#157);
#219=PCURVE('',#41,#218);
#220=CARTESIAN_POINT('',(9.74999999999999978E-1,1.00000000000000000E0));
#221=CARTESIAN_POINT('',(0.00000000000000000E0,1.00000000000000000E0));
#222=B_SPLINE_CURVE_WITH_KNOTS('',1,(#220,#221),.UNSPECIFIED.,.F.,.F.,(2,2),(0.00000000000000000E0,1.00000000000000000E0),.UNSPECIFIED.);
#223=DEFINITIONAL_REPRESENTATION('',(#222),#157);
#224=PCURVE('',#41,#223);
#225=CARTESIAN_POINT('',(0.00000000000000000E0,1.00000000000000000E0));
#226=CARTESIAN_POINT('',(0.00000000000000000E0,0.00000000000000000E0));
#227=B_SPLINE_CURVE_WITH_KNOTS('',1,(#225,#226),.UNSPECIFIED.,.F.,.F.,(2,2),(0.00000000000000000E0,1.00000000000000000E0),.UNSPECIFIED.);
#228=DEFINITIONAL_REPRESENTATION('',(#227),#157);
#229=PCURVE('',#41,#228);
#230=CARTESIAN_POINT('',(1.00000000000000000E0,0.00000000000000000E0));
#231=CARTESIAN_POINT('',(1.00000000000000000E0,1.00000000000000000E0));
#232=B_SPLINE_CURVE_WITH_KNOTS('',1,(#230,#231),.UNSPECIFIED.,.F.,.F.,(2,2),(0.00000000000000000E0,1.00000000000000000E0),.UNSPECIFIED.);
#233=DEFINITIONAL_REPRESENTATION('',(#232),#157);
#234=PCURVE('',#46,#233);
#235=CARTESIAN_POINT('',(1.00000000000000000E0,1.00000000000000000E0));
#236=CARTESIAN_POINT('',(3.12500000000000000E-2,1.00000000000000000E0));
#237=B_SPLINE_CURVE_WITH_KNOTS('',1,(#235,#236),.UNSPECIFIED.,.F.,.F.,(2,2),(0.00000000000000000E0,1.00000000000000000E0),.UNSPECIFIED.);
#238=DEFINITIONAL_REPRESENTATION('',(#237),#157);
#239=PCURVE('',#46,#238);
#240=CARTESIAN_POINT('',(3.12500000000000000E-2,1.00000000000000000E0));
#241=CARTESIAN_POINT('',(0.00000000000000000E0,1.00000000000000000E0));
#242=CARTESIAN_POINT('',(0.00000000000000000E0,9.58333333333333370E-1));
#243=(BOUNDED_CURVE()B_SPLINE_CURVE(2,(#240,#241,#242),.UNSPECIFIED.,.F.,.F.)B_SPLINE_CURVE_WITH_KNOTS((3,3),(0.00000000000000000E0,1.00000000000000000E0),.UNSPECIFIED.)CURVE()GEOMETRIC_REPRESENTATION_ITEM()RATIONAL_B_SPLINE_CURVE((1.00000000000000000E0,1.00000000000000000E0,2.00000000000000000E0))REPRESENTATION_ITEM(''));
#244=DEFINITIONAL_REPRESENTATION('',(#243),#157);
#245=PCURVE('',#46,#244);
#246=CARTESIAN_POINT('',(0.00000000000000000E0,9.58333333333333370E-1));
#247=CARTESIAN_POINT('',(0.00000000000000000E0,0.00000000000000000E0));
#248=B_SPLINE_CURVE_WITH_KNOTS('',1,(#246,#247),.UNSPECIFIED.,.F.,.F.,(2,2),(0.00000000000000000E0,1.00000000000000000E0),.UNSPECIFIED.);
#249=DEFINITIONAL_REPRESENTATION('',(#248),#157);
#250=PCURVE('',#46,#249);
#251=CARTESIAN_POINT('',(0.00000000000000000E0,0.00000000000000000E0));
#252=CARTESIAN_POINT('',(1.00000000000000000E0,0.00000000000000000E0));
#253=B_SPLINE_CURVE_WITH_KNOTS('',1,(#251,#252),.UNSPECIFIED.,.F.,.F.,(2,2),(0.00000000000000000E0,1.00000000000000000E0),.UNSPECIFIED.);
#254=DEFINITIONAL_REPRESENTATION('',(#253),#157);
#255=PCURVE('',#46,#254);
#256=CARTESIAN_POINT('',(1.00000000000000000E0,0.00000000000000000E0));
#257=CARTESIAN_POINT('',(1.00000000000000000E0,9.58333333333333370E-1));
#258=B_SPLINE_CURVE_WITH_KNOTS('',1,(#256,#257),.UNSPECIFIED.,.F.,.F.,(2,2),(0.00000000000000000E0,1.00000000000000000E0),.UNSPECIFIED.);
#259=DEFINITIONAL_REPRESENTATION('',(#258),#157);
#260=PCURVE('',#51,#259);
#261=CARTESIAN_POINT('',(1.00000000000000000E0,9.58333333333333370E-1));
#262=CARTESIAN_POINT('',(2.50000000000000222E-2,9.58333333333333370E-1));
#263=B_SPLINE_CURVE_WITH_KNOTS('',1,(#261,#262),.UNSPECIFIED.,.F.,.F.,(2,2),(0.00000000000000000E0,1.00000000000000000E0),.UNSPECIFIED.);
#264=DEFINITIONAL_REPRESENTATION('',(#263),#157);
#265=PCURVE('',#51,#264);
#266=CARTESIAN_POINT('',(2.50000000000000222E-2,9.58333333333333370E-1));
#267=CARTESIAN_POINT('',(2.50000000000000222E-2,0.00000000000000000E0));
#268=B_SPLINE_CURVE_WITH_KNOTS('',1,(#266,#267),.UNSPECIFIED.,.F.,.F.,(2,2),(0.00000000000000000E0,1.00000000000000000E0),.UNSPECIFIED.);
#269=DEFINITIONAL_REPRESENTATION('',(#268),#157);
#270=PCURVE('',#51,#269);
#271=CARTESIAN_POINT('',(2.50000000000000222E-2,0.00000000000000000E0));
#272=CARTESIAN_POINT('',(1.00000000000000000E0,0.00000000000000000E0));
#273=B_SPLINE_CURVE_WITH_KNOTS('',1,(#271,#272),.UNSPECIFIED.,.F.,.F.,(2,2),(0.00000000000000000E0,1.00000000000000000E0),.UNSPECIFIED.);
#274=DEFINITIONAL_REPRESENTATION('',(#273),#157);
#275=PCURVE('',#51,#274);
#276=CARTESIAN_POINT('',(0.00000000000000000E0,0.00000000000000000E0));
#277=CARTESIAN_POINT('',(9.68750000000000000E-1,0.00000000000000000E0));
#278=B_SPLINE_CURVE_WITH_KNOTS('',1,(#276,#277),.UNSPECIFIED.,.F.,.F.,(2,2),(0.00000000000000000E0,1.00000000000000000E0),.UNSPECIFIED.);
#279=DEFINITIONAL_REPRESENTATION('',(#278),#157);
#280=PCURVE('',#56,#279);
#281=CARTESIAN_POINT('',(9.68750000000000000E-1,0.00000000000000000E0));
#282=CARTESIAN_POINT('',(9.68750000000000000E-1,9.58333333333333370E-1));
#283=B_SPLINE_CURVE_WITH_KNOTS('',1,(#281,#282),.UNSPECIFIED.,.F.,.F.,(2,2),(0.00000000000000000E0,1.00000000000000000E0),.UNSPECIFIED.);
#284=DEFINITIONAL_REPRESENTATION('',(#283),#157);
#285=PCURVE('',#56,#284);
#286=CARTESIAN_POINT('',(9.68750000000000000E-1,9.58333333333333370E-1));
#287=CARTESIAN_POINT('',(0.00000000000000000E0,9.58333333333333370E-1));
#288=B_SPLINE_CURVE_WITH_KNOTS('',1,(#286,#287),.UNSPECIFIED.,.F.,.F.,(2,2),(0.00000000000000000E0,1.00000000000000000E0),.UNSPECIFIED.);
#289=DEFINITIONAL_REPRESENTATION('',(#288),#157);
#290=PCURVE('',#56,#289);
#291=CARTESIAN_POINT('',(0.00000000000000000E0,9.58333333333333370E-1));
#292=CARTESIAN_POINT('',(0.00000000000000000E0,0.00000000000000000E0));
#293=B_SPLINE_CURVE_WITH_KNOTS('',1,(#291,#292),.UNSPECIFIED.,.F.,.F.,(2,2),(0.00000000000000000E0,1.00000000000000000E0),.UNSPECIFIED.);
#294=DEFINITIONAL_REPRESENTATION('',(#293),#157);
#295=PCURVE('',#56,#294);
#296=CARTESIAN_POINT('',(1.00000000000000000E0,0.00000000000000000E0));
#297=CARTESIAN_POINT('',(1.00000000000000000E0,1.00000000000000000E0));
#298=B_SPLINE_CURVE_WITH_KNOTS('',1,(#296,#297),.UNSPECIFIED.,.F.,.F.,(2,2),(0.00000000000000000E0,1.00000000000000000E0),.UNSPECIFIED.);
#299=DEFINITIONAL_REPRESENTATION('',(#298),#157);
#300=PCURVE('',#63,#299);
#301=CARTESIAN_POINT('',(1.00000000000000000E0,1.00000000000000000E0));
#302=CARTESIAN_POINT('',(0.00000000000000000E0,1.00000000000000000E0));
#303=B_SPLINE_CURVE_WITH_KNOTS('',1,(#301,#302),.UNSPECIFIED.,.F.,.F.,(2,2),(0.00000000000000000E0,1.00000000000000000E0),.UNSPECIFIED.);
#304=DEFINITIONAL_REPRESENTATION('',(#303),#157);
#305=PCURVE('',#63,#304);
#306=CARTESIAN_POINT('',(0.00000000000000000E0,1.00000000000000000E0));
#307=CARTESIAN_POINT('',(0.00000000000000000E0,0.00000000000000000E0));
#308=B_SPLINE_CURVE_WITH_KNOTS('',1,(#306,#307),.UNSPECIFIED.,.F.,.F.,(2,2),(0.00000000000000000E0,1.00000000000000000E0),.UNSPECIFIED.);
#309=DEFINITIONAL_REPRESENTATION('',(#308),#157);
#310=PCURVE('',#63,#309);
#311=CARTESIAN_POINT('',(0.00000000000000000E0,0.00000000000000000E0));
#312=CARTESIAN_POINT('',(1.00000000000000000E0,0.00000000000000000E0));
#313=B_SPLINE_CURVE_WITH_KNOTS('',1,(#311,#312),.UNSPECIFIED.,.F.,.F.,(2,2),(0.00000000000000000E0,1.00000000000000000E0),.UNSPECIFIED.);
#314=DEFINITIONAL_REPRESENTATION('',(#313),#157);
#315=PCURVE('',#63,#314);
#316=CARTESIAN_POINT('',(0.00000000000000000E0,0.00000000000000000E0));
#317=CARTESIAN_POINT('',(1.00000000000000000E0,0.00000000000000000E0));
#318=B_SPLINE_CURVE_WITH_KNOTS('',1,(#316,#317),.UNSPECIFIED.,.F.,.F.,(2,2),(0.00000000000000000E0,1.00000000000000000E0),.UNSPECIFIED.);
#319=DEFINITIONAL_REPRESENTATION('',(#318),#157);
#320=PCURVE('',#70,#319);
#321=CARTESIAN_POINT('',(1.00000000000000000E0,0.00000000000000000E0));
#322=CARTESIAN_POINT('',(1.00000000000000000E0,1.00000000000000000E0));
#323=B_SPLINE_CURVE_WITH_KNOTS('',1,(#321,#322),.UNSPECIFIED.,.F.,.F.,(2,2),(0.00000000000000000E0,1.00000000000000000E0),.UNSPECIFIED.);
#324=DEFINITIONAL_REPRESENTATION('',(#323),#157);
#325=PCURVE('',#70,#324);
#326=CARTESIAN_POINT('',(1.00000000000000000E0,1.00000000000000000E0));
#327=CARTESIAN_POINT('',(0.00000000000000000E0,1.00000000000000000E0));
#328=B_SPLINE_CURVE_WITH_KNOTS('',1,(#326,#327),.UNSPECIFIED.,.F.,.F.,(2,2),(0.00000000000000000E0,1.00000000000000000E0),.UNSPECIFIED.);
#329=DEFINITIONAL_REPRESENTATION('',(#328),#157);
#330=PCURVE('',#70,#329);
#331=CARTESIAN_POINT('',(0.00000000000000000E0,1.00000000000000000E0));
#332=CARTESIAN_POINT('',(0.00000000000000000E0,0.00000000000000000E0));
#333=B_SPLINE_CURVE_WITH_KNOTS('',1,(#331,#332),.UNSPECIFIED.,.F.,.F.,(2,2),(0.00000000000000000E0,1.00000000000000000E0),.UNSPECIFIED.);
#334=DEFINITIONAL_REPRESENTATION('',(#333),#157);
#335=PCURVE('',#70,#334);
#336=CARTESIAN_POINT('',(1.00000000000000000E0,0.00000000000000000E0));
#337=CARTESIAN_POINT('',(1.00000000000000000E0,1.00000000000000000E0));
#338=B_SPLINE_CURVE_WITH_KNOTS('',1,(#336,#337),.UNSPECIFIED.,.F.,.F.,(2,2),(0.00000000000000000E0,1.00000000000000000E0),.UNSPECIFIED.);
#339=DEFINITIONAL_REPRESENTATION('',(#338),#157);
#340=PCURVE('',#77,#339);
#341=CARTESIAN_POINT('',(1.00000000000000000E0,1.00000000000000000E0));
#342=CARTESIAN_POINT('',(0.00000000000000000E0,1.00000000000000000E0));
#343=B_SPLINE_CURVE_WITH_KNOTS('',1,(#341,#342),.UNSPECIFIED.,.F.,.F.,(2,2),(0.00000000000000000E0,1.00000000000000000E0),.UNSPECIFIED.);
#344=DEFINITIONAL_REPRESENTATION('',(#343),#157);
#345=PCURVE('',#77,#344);
#346=CARTESIAN_POINT('',(0.00000000000000000E0,1.00000000000000000E0));
#347=CARTESIAN_POINT('',(0.00000000000000000E0,0.00000000000000000E0));
#348=B_SPLINE_CURVE_WITH_KNOTS('',1,(#346,#347),.UNSPECIFIED.,.F.,.F.,(2,2),(0.00000000000000000E0,1.00000000000000000E0),.UNSPECIFIED.);
#349=DEFINITIONAL_REPRESENTATION('',(#348),#157);
#350=PCURVE('',#77,#349);
#351=CARTESIAN_POINT('',(0.00000000000000000E0,0.00000000000000000E0));
#352=CARTESIAN_POINT('',(1.00000000000000000E0,0.00000000000000000E0));
#353=B_SPLINE_CURVE_WITH_KNOTS('',1,(#351,#352),.UNSPECIFIED.,.F.,.F.,(2,2),(0.00000000000000000E0,1.00000000000000000E0),.UNSPECIFIED.);
#354=DEFINITIONAL_REPRESENTATION('',(#353),#157);
#355=PCURVE('',#77,#354);
#356=CARTESIAN_POINT('',(1.00000000000000000E0,0.00000000000000000E0));
#357=CARTESIAN_POINT('',(1.00000000000000000E0,1.00000000000000000E0));
#358=B_SPLINE_CURVE_WITH_KNOTS('',1,(#356,#357),.UNSPECIFIED.,.F.,.F.,(2,2),(0.00000000000000000E0,1.00000000000000000E0),.UNSPECIFIED.);
#359=DEFINITIONAL_REPRESENTATION('',(#358),#157);
#360=PCURVE('',#87,#359);
#361=CARTESIAN_POINT('',(1.00000000000000000E0,1.00000000000000000E0));
#362=CARTESIAN_POINT('',(0.00000000000000000E0,1.00000000000000000E0));
#363=CARTESIAN_POINT('',(0.00000000000000000E0,0.00000000000000000E0));
#364=(BOUNDED_CURVE()B_SPLINE_CURVE(2,(#361,#362,#363),.UNSPECIFIED.,.F.,.F.)B_SPLINE_CURVE_WITH_KNOTS((3,3),(0.00000000000000000E0,1.00000000000000000E0),.UNSPECIFIED.)CURVE()GEOMETRIC_REPRESENTATION_ITEM()RATIONAL_B_SPLINE_CURVE((1.00000000000000000E0,7.07106781186547573E-1,1.00000000000000000E0))REPRESENTATION_ITEM(''));
#365=DEFINITIONAL_REPRESENTATION('',(#364),#157);
#366=PCURVE('',#87,#365);
#367=CARTESIAN_POINT('',(0.00000000000000000E0,0.00000000000000000E0));
#368=CARTESIAN_POINT('',(1.00000000000000000E0,0.00000000000000000E0));
#369=B_SPLINE_CURVE_WITH_KNOTS('',1,(#367,#368),.UNSPECIFIED.,.F.,.F.,(2,2),(0.00000000000000000E0,1.00000000000000000E0),.UNSPECIFIED.);
#370=DEFINITIONAL_REPRESENTATION('',(#369),#157);
#371=PCURVE('',#87,#370);
#372=SURFACE_CURVE('',#90,(#162,#255),.PCURVE_S1.);
#373=EDGE_CURVE('OSCAD_TOPO/3|edge|e:0fba7e38835f5865399b6fc9d1574c4a|21e97bcc5bbc9b7ae09e028ca6d1a36fc36f53c7f642e4037855236e9fb5415d',#2,#4,#372,.T.);
#374=SURFACE_CURVE('',#93,(#167,#275),.PCURVE_S1.);
#375=EDGE_CURVE('OSCAD_TOPO/3|edge|e:a99fb605490c17eda3d6e422b41c567d|278a40108be56a21f526229754595c3768bcf54a3b48e850bf4e2049bd167f10',#4,#6,#374,.T.);
#376=SURFACE_CURVE('',#97,(#173,#315),.PCURVE_S1.);
#377=EDGE_CURVE('OSCAD_TOPO/3|edge|e:604acffc7ac13b63350b773a81e6a6e6|31ebc3344952cce7a7ed1655e5f6789fa116a9f0b6a4d23d32849545c6b8ae44',#6,#8,#376,.T.);
#378=SURFACE_CURVE('',#100,(#178,#280),.PCURVE_S1.);
#379=EDGE_CURVE('OSCAD_TOPO/3|edge|e:67a635a23ce8df9af5da790103f3f285|a7f1fa5aebe0a50780418839851cdd2a33f38424f31171e2d017c2e3c6c27f57',#10,#8,#378,.T.);
#380=SURFACE_CURVE('',#103,(#183,#208),.PCURVE_S1.);
#381=EDGE_CURVE('OSCAD_TOPO/3|edge|e:2face7551c4dd3afc7280eeb8036ed6a|c6296bbb5132df435b1ae13a7621ebec0652dacaf4a9b6995abc000d67b35429',#2,#10,#380,.T.);
#382=SURFACE_CURVE('',#106,(#188,#224),.PCURVE_S1.);
#383=EDGE_CURVE('OSCAD_TOPO/3|edge|e:3fa35c658940dfb48ce4eef00eaacc65|133f663ac3e4fbae66f56aa6e710d04bbf0b2a30fc18909324857375e9307d76',#12,#14,#382,.T.);
#384=SURFACE_CURVE('',#109,(#193,#350),.PCURVE_S1.);
#385=EDGE_CURVE('OSCAD_TOPO/3|edge|e:6d5696fed05b721f6c98c67279bc59ec|4e0da9efb184230127b5577e9f139600d3bfa5e5d31d3e749a11ebf7092c6625',#16,#14,#384,.T.);
#386=SURFACE_CURVE('',#112,(#198,#325),.PCURVE_S1.);
#387=EDGE_CURVE('OSCAD_TOPO/3|edge|e:e8ae2f6b637bc21fc02eca3a044f66ba|6ed1df193cb9fce776173e7d3c25b8384df6562b0cd921d29662781ca2fc2a82',#16,#18,#386,.T.);
#388=SURFACE_CURVE('',#115,(#203,#239),.PCURVE_S1.);
#389=EDGE_CURVE('OSCAD_TOPO/3|edge|e:535f3295eae242d03aa491adace3535d|2415e7a749d0294e27508e19c973ab71806be9a7f407ad197de5a12a303cc57b',#12,#18,#388,.T.);
#390=SURFACE_CURVE('',#118,(#213,#295),.PCURVE_S1.);
#391=EDGE_CURVE('OSCAD_TOPO/3|edge|e:facc92affaf0ada4bfefc538cdac9fba|60c7cd52746b6db25d8bd750a33c0280074c2dd240e19e702809f98bbde11949',#10,#20,#390,.T.);
#392=SURFACE_CURVE('',#122,(#219,#355),.PCURVE_S1.);
#393=EDGE_CURVE('OSCAD_TOPO/3|edge|e:5ae9e7fa1006c4e55cb5096ba2c9941d|04678f348163cae778e4698450071d471b4766256aa1ec7fae2acee7b3c1704c',#20,#14,#392,.T.);
#394=SURFACE_CURVE('',#125,(#229,#234),.PCURVE_S1.);
#395=EDGE_CURVE('OSCAD_TOPO/3|edge|e:27ea4296556133e72a0dd3017f56b1d9|5d9a3ef30e078094d7605258dc2d644454617e11454dd75ba40fbca3c5e6274f',#2,#12,#394,.T.);
#396=SURFACE_CURVE('',#129,(#245,#320),.PCURVE_S1.);
#397=EDGE_CURVE('OSCAD_TOPO/3|edge|e:a1c03cfb77c39b85d7a1de0a31251c76|061f5957c7096a1ad5fae9bebfc06d8b72b6c0ef5f90aa55ed362bd86599d51f',#22,#18,#396,.T.);
#398=SURFACE_CURVE('',#132,(#250,#260),.PCURVE_S1.);
#399=EDGE_CURVE('OSCAD_TOPO/3|edge|e:b39f5230fc3b63b48dab65f2a42efeb4|dd77f244794a2023afc4320c2f766aed194b653e7f2a65c955a053c65e291cb7',#4,#22,#398,.T.);
#400=SURFACE_CURVE('',#135,(#265,#335),.PCURVE_S1.);
#401=EDGE_CURVE('OSCAD_TOPO/3|edge|e:f4514d34cf98382d9d5c4c7d01b4f69e|f2497066a2eb586a1948faef8e2662e7056a7e54de53ef36432aa7e1a393db27',#24,#22,#400,.T.);
#402=SURFACE_CURVE('',#138,(#270,#300),.PCURVE_S1.);
#403=EDGE_CURVE('OSCAD_TOPO/3|edge|e:6b3ee7f5b7008c7983d00f1999315f07|f73dc8c2751f9de29501e7aa8d085df98cc632113d958afe8c73b3a185908f6f',#6,#24,#402,.T.);
#404=SURFACE_CURVE('',#141,(#285,#310),.PCURVE_S1.);
#405=EDGE_CURVE('OSCAD_TOPO/3|edge|e:eade65b4bd5546b33270c009811ea2d9|1dd59c84ee3c457bd13dc83ccc9249222b16705f175a8f878b0938348e284f09',#8,#26,#404,.T.);
#406=SURFACE_CURVE('',#144,(#290,#340),.PCURVE_S1.);
#407=EDGE_CURVE('OSCAD_TOPO/3|edge|e:07b799e8a2ba2f0087be2153d1210689|c9b9aace0d96b30c4550205a7234668fc1efd1e1de4aab123f6a9f26c9081448',#26,#20,#406,.T.);
#408=SURFACE_CURVE('',#148,(#305,#366),.PCURVE_S1.);
#409=EDGE_CURVE('OSCAD_TOPO/3|edge|e:92eadd6c6df9e0522d1df34022fdac6d|8eb6f938ef0d3aa5271afc7665778b06b766ac2c73e044cff77d7812dd515ec0',#24,#26,#408,.T.);
#410=SURFACE_CURVE('',#152,(#330,#371),.PCURVE_S1.);
#411=EDGE_CURVE('OSCAD_TOPO/3|edge|e:1b08c103980d9b95a403464b35e69e07|1c2a176f93a3386b49fc0748ed63be3e2d0f9c7713f682ee3a8887b443f714c9',#24,#16,#410,.T.);
#412=SURFACE_CURVE('',#156,(#345,#360),.PCURVE_S1.);
#413=EDGE_CURVE('OSCAD_TOPO/3|edge|e:b449fd1b93553ae3dc2f0a60707f330c|db83eeae40f0b1751363fcc004944e0a7390a995d99f8b3dd52b7dbcf845a1c3',#26,#16,#412,.T.);
#414=ORIENTED_EDGE('',*,*,#373,.T.);
#415=ORIENTED_EDGE('',*,*,#375,.T.);
#416=ORIENTED_EDGE('',*,*,#377,.T.);
#417=ORIENTED_EDGE('',*,*,#379,.F.);
#418=ORIENTED_EDGE('',*,*,#381,.F.);
#419=EDGE_LOOP('OSCAD_TOPO/3|loop|l:6b6775a076c0944a935b45f1025c822a|02eeb7622c77ed9d2a6c39c571509155ce540541a1b2d048161599f7d6289aa6',(#414,#415,#416,#417,#418));
#420=ORIENTED_EDGE('',*,*,#383,.T.);
#421=ORIENTED_EDGE('',*,*,#385,.F.);
#422=ORIENTED_EDGE('',*,*,#387,.T.);
#423=ORIENTED_EDGE('',*,*,#389,.F.);
#424=EDGE_LOOP('OSCAD_TOPO/3|loop|l:4a624bdefa69ad239b69b4c507069ff5|357945997868ecb7378cb6fcf240b433c67aa9ac4304c15c613712c2fa4ebb4b',(#420,#421,#422,#423));
#425=ORIENTED_EDGE('',*,*,#381,.T.);
#426=ORIENTED_EDGE('',*,*,#391,.T.);
#427=ORIENTED_EDGE('',*,*,#393,.T.);
#428=ORIENTED_EDGE('',*,*,#383,.F.);
#429=ORIENTED_EDGE('',*,*,#395,.F.);
#430=EDGE_LOOP('OSCAD_TOPO/3|loop|l:baffab5d8da05e1290e060418761d51e|cf8a29eb1331906f0213d64e3a5cab3277272d0c371fcb6940efb3a714aa820f',(#425,#426,#427,#428,#429));
#431=ORIENTED_EDGE('',*,*,#395,.T.);
#432=ORIENTED_EDGE('',*,*,#389,.T.);
#433=ORIENTED_EDGE('',*,*,#397,.F.);
#434=ORIENTED_EDGE('',*,*,#399,.F.);
#435=ORIENTED_EDGE('',*,*,#373,.F.);
#436=EDGE_LOOP('OSCAD_TOPO/3|loop|l:f0a2257314557fc13287d62eb860ef02|bc8a48cc623e7887264ee53d660d9eda5b790e59d03ce82bf4f6809e185dcc41',(#431,#432,#433,#434,#435));
#437=ORIENTED_EDGE('',*,*,#399,.T.);
#438=ORIENTED_EDGE('',*,*,#401,.F.);
#439=ORIENTED_EDGE('',*,*,#403,.F.);
#440=ORIENTED_EDGE('',*,*,#375,.F.);
#441=EDGE_LOOP('OSCAD_TOPO/3|loop|l:ce7f5196d37e2c34115debefb5f33e55|434f75e24e6d549fc862fb9b84ad1f8b364f151d96e5539b41b19ba76ef8ceee',(#437,#438,#439,#440));
#442=ORIENTED_EDGE('',*,*,#379,.T.);
#443=ORIENTED_EDGE('',*,*,#405,.T.);
#444=ORIENTED_EDGE('',*,*,#407,.T.);
#445=ORIENTED_EDGE('',*,*,#391,.F.);
#446=EDGE_LOOP('OSCAD_TOPO/3|loop|l:bc473a85a4c298d98870d88439bd7ef0|fd7d7be8b2f52c74e80eda7b4957dff6ac69f33a24289059b797aff4087c8f3c',(#442,#443,#444,#445));
#447=ORIENTED_EDGE('',*,*,#403,.T.);
#448=ORIENTED_EDGE('',*,*,#409,.T.);
#449=ORIENTED_EDGE('',*,*,#405,.F.);
#450=ORIENTED_EDGE('',*,*,#377,.F.);
#451=EDGE_LOOP('OSCAD_TOPO/3|loop|l:3251fced55aff65788e385cc4c5abfe6|d4bc527fe57a8ee4216148089ee97bf673e660fbbe4a385939e142edaa1698fc',(#447,#448,#449,#450));
#452=ORIENTED_EDGE('',*,*,#397,.T.);
#453=ORIENTED_EDGE('',*,*,#387,.F.);
#454=ORIENTED_EDGE('',*,*,#411,.F.);
#455=ORIENTED_EDGE('',*,*,#401,.T.);
#456=EDGE_LOOP('OSCAD_TOPO/3|loop|l:8e5d120873fc8e1822a26d709de46bdc|26fe99cc55baaf20c435ced0d4b00571f85b277d5f95b5283bff752014be0f10',(#452,#453,#454,#455));
#457=ORIENTED_EDGE('',*,*,#407,.F.);
#458=ORIENTED_EDGE('',*,*,#413,.T.);
#459=ORIENTED_EDGE('',*,*,#385,.T.);
#460=ORIENTED_EDGE('',*,*,#393,.F.);
#461=EDGE_LOOP('OSCAD_TOPO/3|loop|l:caf550a776691a6e52f8adbcb4eb2178|f0db07b78e1cb8669b4df5f53f20be8a8f9d71c352ff649d0f6b05f116874ec6',(#457,#458,#459,#460));
#462=ORIENTED_EDGE('',*,*,#413,.F.);
#463=ORIENTED_EDGE('',*,*,#409,.F.);
#464=ORIENTED_EDGE('',*,*,#411,.T.);
#465=EDGE_LOOP('OSCAD_TOPO/3|loop|l:7be549255e81f1253372300a4147e9d4|4dd44d963b05d1f7957912fb1ac71b88428639f19a2f484504ba924b5643dd86',(#462,#463,#464));
#466=FACE_OUTER_BOUND('',#419,.T.);
#467=ADVANCED_FACE('OSCAD_TOPO/3|face|f:1b22a8c2580f300197e7ac93e372808a|dea7829beb51e05db1a7d1bc243162694dc4a47f0b4cff2d61f03b37424ffbcf',(#466),#31,.T.);
#468=FACE_OUTER_BOUND('',#424,.T.);
#469=ADVANCED_FACE('OSCAD_TOPO/3|face|f:2189217866afa2b163f18902b9909554|daa0c63f145fa21484d709b9b51a182ee7146fe9b58a28d06d550fe706ebdf7f',(#468),#36,.T.);
#470=FACE_OUTER_BOUND('',#430,.T.);
#471=ADVANCED_FACE('OSCAD_TOPO/3|face|f:a8598d4b8706932ec350c06cd72f15e0|f19ce0b8bc18719e87573920e1749b133174bcbd78dd71d5b59e4754fc2c692d',(#470),#41,.T.);
#472=FACE_OUTER_BOUND('',#436,.T.);
#473=ADVANCED_FACE('OSCAD_TOPO/3|face|f:812b7b0ba8ba3f195fc986abb92bb2d4|e9e0643016129f189b8a2d990480d23884bd8d465a8ecc1e22b8e98798f01045',(#472),#46,.T.);
#474=FACE_OUTER_BOUND('',#441,.T.);
#475=ADVANCED_FACE('OSCAD_TOPO/3|face|f:9ae626aad0f20343dda2451b474e89be|e5a673ff0d04e2f8a2dde721f85ba50ff80ef2f07b28bf35853670802a5806cb',(#474),#51,.T.);
#476=FACE_OUTER_BOUND('',#446,.T.);
#477=ADVANCED_FACE('OSCAD_TOPO/3|face|f:d868aa709ddfafd2fd4c02ba9b849a0e|84f9b6575dcfac09924c4b3f007c262349a09b973989eb49de41f4dfa5a2a14b',(#476),#56,.T.);
#478=FACE_OUTER_BOUND('',#451,.T.);
#479=ADVANCED_FACE('OSCAD_TOPO/3|face|f:2ff3efce0de498b3d9444e0ec7673f0a|6096818dfea2bc86a03c8023f32ff9127ddd0adb1e77f46a0f6764a37a93d0cd',(#478),#63,.T.);
#480=FACE_OUTER_BOUND('',#456,.T.);
#481=ADVANCED_FACE('OSCAD_TOPO/3|face|f:db576a93f0e0122f4844395026fb0503|8c901130529ddc41263102f0460cfd91da045a71ef10eae3fdd1edb35184ec7b',(#480),#70,.T.);
#482=FACE_OUTER_BOUND('',#461,.T.);
#483=ADVANCED_FACE('OSCAD_TOPO/3|face|f:c15a12c4e9a728a1b609b92950c4ec50|bf4c6a4bc67095a38700546cd76b199206b6eed3ea248ee09ea05420eec95753',(#482),#77,.T.);
#484=FACE_OUTER_BOUND('',#465,.T.);
#485=ADVANCED_FACE('OSCAD_TOPO/3|face|f:c1fd5aac7f0dd0f2e8807788591d4bbf|9a5b124c2e60e05ed83c27626cddedc98ed3733d569773e8559ceb26ab1e64ca',(#484),#87,.T.);
#486=CLOSED_SHELL('OSCAD_TOPO/3|shell|s:02e095d8a91ae067b9949102a8e122e6|ee379534e778b4b17636178a77e62844b2f77a3d349948dd12e78a660f53441c',(#467,#469,#471,#473,#475,#477,#479,#481,#483,#485));
#487=MANIFOLD_SOLID_BREP('OSCAD_TOPO/3|body|b:ce74bc7bafc1831c27e7c38a3fe32096|c11b27a9de05b570d7520ed62d59f57c58faadf3147b30d122917dd9616a7929',#486);
#488=(LENGTH_UNIT()NAMED_UNIT(*)SI_UNIT(.MILLI.,.METRE.));
#489=UNCERTAINTY_MEASURE_WITH_UNIT(LENGTH_MEASURE(9.99999999999999955E-8),#488,'distance_accuracy_value','');
#490=(GEOMETRIC_REPRESENTATION_CONTEXT(3)GLOBAL_UNCERTAINTY_ASSIGNED_CONTEXT((#489))GLOBAL_UNIT_ASSIGNED_CONTEXT((#488))REPRESENTATION_CONTEXT('','3D'));
#491=ADVANCED_BREP_SHAPE_REPRESENTATION('',(#487),#490);
#492=APPLICATION_CONTEXT('managed model based 3d engineering');
#493=PRODUCT_CONTEXT('',#492,'mechanical');
#494=PRODUCT('model','model','',(#493));
#495=PRODUCT_DEFINITION_FORMATION('1','',#494);
#496=PRODUCT_DEFINITION_CONTEXT('part definition',#492,'design');
#497=PRODUCT_DEFINITION('design','',#495,#496);
#498=PRODUCT_DEFINITION_SHAPE('','',#497);
#499=SHAPE_DEFINITION_REPRESENTATION(#498,#491);
ENDSEC;
END-ISO-10303-21;
