ISO-10303-21;
HEADER;
FILE_DESCRIPTION(('OpenSCAD Viewer retained AP242 B-rep'),'2;1');
FILE_NAME('model.step','',(''),(''),'OpenSCAD Viewer','OpenSCAD Viewer','');
FILE_SCHEMA(('AP242_MANAGED_MODEL_BASED_3D_ENGINEERING_MIM_LF'));
ENDSEC;
DATA;
#1=CARTESIAN_POINT('',(1.88696661209519974E1,-6.05963140081898644E0,3.08650226380548105E1));
#2=VERTEX_POINT('OSCAD_TOPO/3|vertex|v:bcb0c8b5e5e088af58d3ecee075a06b0|f5723237739098fd18e1c45d4f2128e3cd333f23c0c7c908745728d210937b32',#1);
#3=CARTESIAN_POINT('',(2.19308763930766517E1,-1.20741738458446743E1,2.34857089269551800E1));
#4=VERTEX_POINT('OSCAD_TOPO/3|vertex|v:53eb96348b17f528e1614170fbd67833|54123670e270060a175536db998f8a5a2562059f7405bb32a9e151af6f4fc420',#3);
#5=CARTESIAN_POINT('',(2.68325168734145478E1,-9.57939517800399898E0,2.34857089269551800E1));
#6=VERTEX_POINT('OSCAD_TOPO/3|vertex|v:b1c71d0b8f0d37498e5f710f029b0104|7431c37576bb361704baeeb5f73d1f0567b1d3f7a40ea73af7369e43ddb3aabd',#5);
#7=CARTESIAN_POINT('',(2.82952327055369750E1,-6.94176926318363297E0,2.53305373547300867E1));
#8=VERTEX_POINT('OSCAD_TOPO/3|vertex|v:0de535a068d3340be53a04b1b861e5ec|5e5a95af09c6f8324f3229f4f982b902c2ffd0f2b6524b103be00ef216a8b453',#7);
#9=CARTESIAN_POINT('',(2.59993250014434878E1,-2.43086242941436659E0,3.08650226380548105E1));
#10=VERTEX_POINT('OSCAD_TOPO/3|vertex|v:e3789316bdc04d4e2258543edf701bba|8dc2176457dbce8e16aceb11ec9dd9f82a6e824fb474d5d54ed4cb3ad2005a5c',#9);
#11=CARTESIAN_POINT('',(1.68613292740695755E1,-2.11373218589843503E0,2.68157680776272045E1));
#12=VERTEX_POINT('OSCAD_TOPO/3|vertex|v:3c3436ac3e12a721f396c11f5ebbc3fe|7c725f7283eca545c5a92aac255444404720b014cb3a7ac8af14e247652c599d',#11);
#13=CARTESIAN_POINT('',(2.17629697544074716E1,3.81046481942241222E-1,2.68157680776272045E1));
#14=VERTEX_POINT('OSCAD_TOPO/3|vertex|v:b967ee6481846f7d1ddc81a854128bd5|9df0d09ba525d502ba4bc978e42eed8fde1f499565fe5ef12c8b081bf3411451',#13);
#15=CARTESIAN_POINT('',(2.40588774585009624E1,-4.12986035182702516E0,2.12812827943024843E1));
#16=VERTEX_POINT('OSCAD_TOPO/3|vertex|v:41865c99239a953e1d06efe952581fc4|600c742e2a5ba6fe405bbee352692e8c726061685472a5ad2f6e6890d99924b2',#15);
#17=CARTESIAN_POINT('',(1.91572369781630627E1,-6.62463901966770141E0,2.12812827943024843E1));
#18=VERTEX_POINT('OSCAD_TOPO/3|vertex|v:8f56d4571a36483a413d3310b4863c4e|a2d0c3009f641b8560e4a1a179ea19ed4798718413be3e567bd7cd20b39c90b5',#17);
#19=CARTESIAN_POINT('',(2.48277951740954066E1,-1.29087887377378863E-1,2.85029574778053743E1));
#20=VERTEX_POINT('OSCAD_TOPO/3|vertex|v:b8f0d2410fc38bec9967c01bb1efd775|255b1065e61a725b7dac18e91881d860465dd9fcc0ab921ed93b3be87728147d',#19);
#21=CARTESIAN_POINT('',(2.07593465657285705E1,-9.77239930380768662E0,2.11236437667057437E1));
#22=VERTEX_POINT('OSCAD_TOPO/3|vertex|v:f7bba1e3935e395615d39ce62323bec7|e8d9ae3fb904c4ce220fdac22ede8e9cf2a2ac6be994861246cb18eb795719d7',#21);
#23=CARTESIAN_POINT('',(2.56609870460664666E1,-7.27762063596700948E0,2.11236437667057437E1));
#24=VERTEX_POINT('OSCAD_TOPO/3|vertex|v:a0226365d83e8f565a28f4cf04e17e29|59ad52f27863a73ea9d4b3a0d9a6ae83d75272fecda357e18ecabafd56011b38',#23);
#25=CARTESIAN_POINT('',(2.71237028781888938E1,-4.63999472114664524E0,2.29684721944806505E1));
#26=VERTEX_POINT('OSCAD_TOPO/3|vertex|v:8c4b99cc3d1cbd208362ef8b28c9477f|cddfb2eacd3045bc09adbb28efe262fd6d3c25fbbda23532ee68c8c5d1cfdf6b',#25);
#27=CARTESIAN_POINT('',(1.88696661209519974E1,-6.05963140081898644E0,3.08650226380548105E1));
#28=CARTESIAN_POINT('',(2.59993250014434878E1,-2.43086242941436659E0,3.08650226380548105E1));
#29=CARTESIAN_POINT('',(2.19308763930766517E1,-1.20741738458446743E1,2.34857089269551800E1));
#30=CARTESIAN_POINT('',(2.90605352735681386E1,-8.44540487444005450E0,2.34857089269551800E1));
#31=B_SPLINE_SURFACE_WITH_KNOTS('',1,1,((#27,#28),(#29,#30)),.UNSPECIFIED.,.F.,.F.,.F.,(2,2),(2,2),(0.00000000000000000E0,1.00000000000000000E0),(0.00000000000000000E0,1.00000000000000000E0),.UNSPECIFIED.);
#32=CARTESIAN_POINT('',(1.99225395461942263E1,-8.12827463092412295E0,1.94364543665275775E1));
#33=CARTESIAN_POINT('',(2.70521984266857132E1,-4.49950565951950310E0,1.94364543665275775E1));
#34=CARTESIAN_POINT('',(1.68613292740695755E1,-2.11373218589843503E0,2.68157680776272045E1));
#35=CARTESIAN_POINT('',(2.39909881545610588E1,1.51503678550618481E0,2.68157680776272045E1));
#36=B_SPLINE_SURFACE_WITH_KNOTS('',1,1,((#32,#33),(#34,#35)),.UNSPECIFIED.,.F.,.F.,.F.,(2,2),(2,2),(0.00000000000000000E0,1.00000000000000000E0),(0.00000000000000000E0,1.00000000000000000E0),.UNSPECIFIED.);
#37=CARTESIAN_POINT('',(1.88696661209519974E1,-6.05963140081898644E0,3.08650226380548105E1));
#38=CARTESIAN_POINT('',(1.68613292740695755E1,-2.11373218589843503E0,2.68157680776272045E1));
#39=CARTESIAN_POINT('',(2.59993250014434878E1,-2.43086242941436659E0,3.08650226380548105E1));
#40=CARTESIAN_POINT('',(2.39909881545610588E1,1.51503678550618481E0,2.68157680776272045E1));
#41=B_SPLINE_SURFACE_WITH_KNOTS('',1,1,((#37,#38),(#39,#40)),.UNSPECIFIED.,.F.,.F.,.F.,(2,2),(2,2),(0.00000000000000000E0,1.00000000000000000E0),(0.00000000000000000E0,1.00000000000000000E0),.UNSPECIFIED.);
#42=CARTESIAN_POINT('',(2.19308763930766517E1,-1.20741738458446743E1,2.34857089269551800E1));
#43=CARTESIAN_POINT('',(1.99225395461942263E1,-8.12827463092412295E0,1.94364543665275775E1));
#44=CARTESIAN_POINT('',(1.88696661209519974E1,-6.05963140081898644E0,3.08650226380548105E1));
#45=CARTESIAN_POINT('',(1.68613292740695755E1,-2.11373218589843503E0,2.68157680776272045E1));
#46=B_SPLINE_SURFACE_WITH_KNOTS('',1,1,((#42,#43),(#44,#45)),.UNSPECIFIED.,.F.,.F.,.F.,(2,2),(2,2),(0.00000000000000000E0,1.00000000000000000E0),(0.00000000000000000E0,1.00000000000000000E0),.UNSPECIFIED.);
#47=CARTESIAN_POINT('',(2.90605352735681386E1,-8.44540487444005450E0,2.34857089269551800E1));
#48=CARTESIAN_POINT('',(2.70521984266857132E1,-4.49950565951950310E0,1.94364543665275775E1));
#49=CARTESIAN_POINT('',(2.19308763930766517E1,-1.20741738458446743E1,2.34857089269551800E1));
#50=CARTESIAN_POINT('',(1.99225395461942263E1,-8.12827463092412295E0,1.94364543665275775E1));
#51=B_SPLINE_SURFACE_WITH_KNOTS('',1,1,((#47,#48),(#49,#50)),.UNSPECIFIED.,.F.,.F.,.F.,(2,2),(2,2),(0.00000000000000000E0,1.00000000000000000E0),(0.00000000000000000E0,1.00000000000000000E0),.UNSPECIFIED.);
#52=CARTESIAN_POINT('',(2.59993250014434878E1,-2.43086242941436659E0,3.08650226380548105E1));
#53=CARTESIAN_POINT('',(2.39909881545610588E1,1.51503678550618481E0,2.68157680776272045E1));
#54=CARTESIAN_POINT('',(2.90605352735681386E1,-8.44540487444005450E0,2.34857089269551800E1));
#55=CARTESIAN_POINT('',(2.70521984266857132E1,-4.49950565951950310E0,1.94364543665275775E1));
#56=B_SPLINE_SURFACE_WITH_KNOTS('',1,1,((#52,#53),(#54,#55)),.UNSPECIFIED.,.F.,.F.,.F.,(2,2),(2,2),(0.00000000000000000E0,1.00000000000000000E0),(0.00000000000000000E0,1.00000000000000000E0),.UNSPECIFIED.);
#57=CARTESIAN_POINT('',(2.82952327055369750E1,-6.94176926318363297E0,2.53305373547300867E1));
#58=CARTESIAN_POINT('',(2.71237028781888938E1,-4.63999472114664524E0,2.29684721944806505E1));
#59=CARTESIAN_POINT('',(2.90605352735681386E1,-8.44540487444005450E0,2.34857089269551800E1));
#60=CARTESIAN_POINT('',(2.78890054462200574E1,-6.14363033240306677E0,2.11236437667057437E1));
#61=CARTESIAN_POINT('',(2.68325168734145478E1,-9.57939517800399898E0,2.34857089269551800E1));
#62=CARTESIAN_POINT('',(2.56609870460664666E1,-7.27762063596700948E0,2.11236437667057437E1));
#63=(BOUNDED_SURFACE()B_SPLINE_SURFACE(2,1,((#57,#58),(#59,#60),(#61,#62)),.UNSPECIFIED.,.F.,.F.,.F.)B_SPLINE_SURFACE_WITH_KNOTS((3,3),(2,2),(0.00000000000000000E0,1.00000000000000000E0),(0.00000000000000000E0,1.00000000000000000E0),.UNSPECIFIED.)GEOMETRIC_REPRESENTATION_ITEM()RATIONAL_B_SPLINE_SURFACE(((1.00000000000000000E0,1.00000000000000000E0),(7.07106781186547573E-1,7.07106781186547573E-1),(1.00000000000000000E0,1.00000000000000000E0)))REPRESENTATION_ITEM('')SURFACE());
#64=CARTESIAN_POINT('',(2.07593465657285705E1,-9.77239930380768662E0,2.11236437667057437E1));
#65=CARTESIAN_POINT('',(2.56609870460664666E1,-7.27762063596700948E0,2.11236437667057437E1));
#66=CARTESIAN_POINT('',(1.99225395461942263E1,-8.12827463092412295E0,1.94364543665275775E1));
#67=CARTESIAN_POINT('',(2.48241800265321260E1,-5.63349596308344669E0,1.94364543665275775E1));
#68=CARTESIAN_POINT('',(1.91572369781630627E1,-6.62463901966770141E0,2.12812827943024843E1));
#69=CARTESIAN_POINT('',(2.40588774585009624E1,-4.12986035182702516E0,2.12812827943024843E1));
#70=(BOUNDED_SURFACE()B_SPLINE_SURFACE(2,1,((#64,#65),(#66,#67),(#68,#69)),.UNSPECIFIED.,.F.,.F.,.F.)B_SPLINE_SURFACE_WITH_KNOTS((3,3),(2,2),(0.00000000000000000E0,1.00000000000000000E0),(0.00000000000000000E0,1.00000000000000000E0),.UNSPECIFIED.)GEOMETRIC_REPRESENTATION_ITEM()RATIONAL_B_SPLINE_SURFACE(((2.00000000000000000E0,2.00000000000000000E0),(1.00000000000000000E0,1.00000000000000000E0),(1.00000000000000000E0,1.00000000000000000E0)))REPRESENTATION_ITEM('')SURFACE());
#71=CARTESIAN_POINT('',(2.17629697544074716E1,3.81046481942241222E-1,2.68157680776272045E1));
#72=CARTESIAN_POINT('',(2.40588774585009624E1,-4.12986035182702516E0,2.12812827943024843E1));
#73=CARTESIAN_POINT('',(2.39909881545610588E1,1.51503678550618481E0,2.68157680776272045E1));
#74=CARTESIAN_POINT('',(2.62868958586545496E1,-2.99587004826308156E0,2.12812827943024843E1));
#75=CARTESIAN_POINT('',(2.48277951740954066E1,-1.29087887377378863E-1,2.85029574778053743E1));
#76=CARTESIAN_POINT('',(2.71237028781888938E1,-4.63999472114664524E0,2.29684721944806505E1));
#77=(BOUNDED_SURFACE()B_SPLINE_SURFACE(2,1,((#71,#72),(#73,#74),(#75,#76)),.UNSPECIFIED.,.F.,.F.,.F.)B_SPLINE_SURFACE_WITH_KNOTS((3,3),(2,2),(0.00000000000000000E0,1.00000000000000000E0),(0.00000000000000000E0,1.00000000000000000E0),.UNSPECIFIED.)GEOMETRIC_REPRESENTATION_ITEM()RATIONAL_B_SPLINE_SURFACE(((1.00000000000000000E0,1.00000000000000000E0),(1.00000000000000000E0,1.00000000000000000E0),(2.00000000000000000E0,2.00000000000000000E0)))REPRESENTATION_ITEM('')SURFACE());
#78=CARTESIAN_POINT('',(2.56609870460664666E1,-7.27762063596700948E0,2.11236437667057437E1));
#79=CARTESIAN_POINT('',(2.67749962461432638E1,-6.71062548418503813E0,2.11236437667057437E1));
#80=CARTESIAN_POINT('',(2.71701674633365897E1,-6.56845678746676143E0,2.23009830426901026E1));
#81=CARTESIAN_POINT('',(2.48241800265321260E1,-5.63349596308344669E0,1.94364543665275775E1));
#82=CARTESIAN_POINT('',(2.70521984266857132E1,-4.49950565951950310E0,1.94364543665275775E1));
#83=CARTESIAN_POINT('',(2.75063541622044738E1,-5.39181252677485556E0,2.20460579805931971E1));
#84=CARTESIAN_POINT('',(2.40588774585009624E1,-4.12986035182702516E0,2.12812827943024843E1));
#85=CARTESIAN_POINT('',(2.62868958586545496E1,-2.99587004826308156E0,2.12812827943024843E1));
#86=CARTESIAN_POINT('',(2.71237028781888938E1,-4.63999472114664524E0,2.29684721944806505E1));
#87=(BOUNDED_SURFACE()B_SPLINE_SURFACE(2,2,((#78,#79,#80),(#81,#82,#83),(#84,#85,#86)),.UNSPECIFIED.,.F.,.F.,.F.)B_SPLINE_SURFACE_WITH_KNOTS((3,3),(3,3),(0.00000000000000000E0,1.00000000000000000E0),(0.00000000000000000E0,1.00000000000000000E0),.UNSPECIFIED.)GEOMETRIC_REPRESENTATION_ITEM()RATIONAL_B_SPLINE_SURFACE(((2.00000000000000000E0,2.00000000000000000E0,3.00000000000000000E0),(1.00000000000000000E0,1.00000000000000000E0,2.00000000000000000E0),(1.00000000000000000E0,1.00000000000000000E0,2.00000000000000000E0)))REPRESENTATION_ITEM('')SURFACE());
#88=CARTESIAN_POINT('',(1.88696661209519974E1,-6.05963140081898644E0,3.08650226380548105E1));
#89=CARTESIAN_POINT('',(2.19308763930766517E1,-1.20741738458446743E1,2.34857089269551800E1));
#90=B_SPLINE_CURVE_WITH_KNOTS('',1,(#88,#89),.UNSPECIFIED.,.F.,.F.,(2,2),(0.00000000000000000E0,1.00000000000000000E0),.UNSPECIFIED.);
#91=CARTESIAN_POINT('',(2.19308763930766517E1,-1.20741738458446743E1,2.34857089269551800E1));
#92=CARTESIAN_POINT('',(2.68325168734145478E1,-9.57939517800399898E0,2.34857089269551800E1));
#93=B_SPLINE_CURVE_WITH_KNOTS('',1,(#91,#92),.UNSPECIFIED.,.F.,.F.,(2,2),(0.00000000000000000E0,1.00000000000000000E0),.UNSPECIFIED.);
#94=CARTESIAN_POINT('',(2.68325168734145478E1,-9.57939517800399898E0,2.34857089269551800E1));
#95=CARTESIAN_POINT('',(2.90605352735681386E1,-8.44540487444005450E0,2.34857089269551800E1));
#96=CARTESIAN_POINT('',(2.82952327055369750E1,-6.94176926318363297E0,2.53305373547300867E1));
#97=(BOUNDED_CURVE()B_SPLINE_CURVE(2,(#94,#95,#96),.UNSPECIFIED.,.F.,.F.)B_SPLINE_CURVE_WITH_KNOTS((3,3),(0.00000000000000000E0,1.00000000000000000E0),.UNSPECIFIED.)CURVE()GEOMETRIC_REPRESENTATION_ITEM()RATIONAL_B_SPLINE_CURVE((1.00000000000000000E0,7.07106781186547573E-1,1.00000000000000000E0))REPRESENTATION_ITEM(''));
#98=CARTESIAN_POINT('',(2.59993250014434878E1,-2.43086242941436659E0,3.08650226380548105E1));
#99=CARTESIAN_POINT('',(2.82952327055369750E1,-6.94176926318363297E0,2.53305373547300867E1));
#100=B_SPLINE_CURVE_WITH_KNOTS('',1,(#98,#99),.UNSPECIFIED.,.F.,.F.,(2,2),(0.00000000000000000E0,1.00000000000000000E0),.UNSPECIFIED.);
#101=CARTESIAN_POINT('',(1.88696661209519974E1,-6.05963140081898644E0,3.08650226380548105E1));
#102=CARTESIAN_POINT('',(2.59993250014434878E1,-2.43086242941436659E0,3.08650226380548105E1));
#103=B_SPLINE_CURVE_WITH_KNOTS('',1,(#101,#102),.UNSPECIFIED.,.F.,.F.,(2,2),(0.00000000000000000E0,1.00000000000000000E0),.UNSPECIFIED.);
#104=CARTESIAN_POINT('',(1.68613292740695755E1,-2.11373218589843503E0,2.68157680776272045E1));
#105=CARTESIAN_POINT('',(2.17629697544074716E1,3.81046481942241222E-1,2.68157680776272045E1));
#106=B_SPLINE_CURVE_WITH_KNOTS('',1,(#104,#105),.UNSPECIFIED.,.F.,.F.,(2,2),(0.00000000000000000E0,1.00000000000000000E0),.UNSPECIFIED.);
#107=CARTESIAN_POINT('',(2.40588774585009624E1,-4.12986035182702516E0,2.12812827943024843E1));
#108=CARTESIAN_POINT('',(2.17629697544074716E1,3.81046481942241222E-1,2.68157680776272045E1));
#109=B_SPLINE_CURVE_WITH_KNOTS('',1,(#107,#108),.UNSPECIFIED.,.F.,.F.,(2,2),(0.00000000000000000E0,1.00000000000000000E0),.UNSPECIFIED.);
#110=CARTESIAN_POINT('',(2.40588774585009624E1,-4.12986035182702516E0,2.12812827943024843E1));
#111=CARTESIAN_POINT('',(1.91572369781630627E1,-6.62463901966770141E0,2.12812827943024843E1));
#112=B_SPLINE_CURVE_WITH_KNOTS('',1,(#110,#111),.UNSPECIFIED.,.F.,.F.,(2,2),(0.00000000000000000E0,1.00000000000000000E0),.UNSPECIFIED.);
#113=CARTESIAN_POINT('',(1.68613292740695755E1,-2.11373218589843503E0,2.68157680776272045E1));
#114=CARTESIAN_POINT('',(1.91572369781630627E1,-6.62463901966770141E0,2.12812827943024843E1));
#115=B_SPLINE_CURVE_WITH_KNOTS('',1,(#113,#114),.UNSPECIFIED.,.F.,.F.,(2,2),(0.00000000000000000E0,1.00000000000000000E0),.UNSPECIFIED.);
#116=CARTESIAN_POINT('',(2.59993250014434878E1,-2.43086242941436659E0,3.08650226380548105E1));
#117=CARTESIAN_POINT('',(2.48277951740954066E1,-1.29087887377378863E-1,2.85029574778053743E1));
#118=B_SPLINE_CURVE_WITH_KNOTS('',1,(#116,#117),.UNSPECIFIED.,.F.,.F.,(2,2),(0.00000000000000000E0,1.00000000000000000E0),.UNSPECIFIED.);
#119=CARTESIAN_POINT('',(2.48277951740954066E1,-1.29087887377378863E-1,2.85029574778053743E1));
#120=CARTESIAN_POINT('',(2.39909881545610588E1,1.51503678550618481E0,2.68157680776272045E1));
#121=CARTESIAN_POINT('',(2.17629697544074716E1,3.81046481942241222E-1,2.68157680776272045E1));
#122=(BOUNDED_CURVE()B_SPLINE_CURVE(2,(#119,#120,#121),.UNSPECIFIED.,.F.,.F.)B_SPLINE_CURVE_WITH_KNOTS((3,3),(0.00000000000000000E0,1.00000000000000000E0),.UNSPECIFIED.)CURVE()GEOMETRIC_REPRESENTATION_ITEM()RATIONAL_B_SPLINE_CURVE((2.00000000000000000E0,1.00000000000000000E0,1.00000000000000000E0))REPRESENTATION_ITEM(''));
#123=CARTESIAN_POINT('',(1.88696661209519974E1,-6.05963140081898644E0,3.08650226380548105E1));
#124=CARTESIAN_POINT('',(1.68613292740695755E1,-2.11373218589843503E0,2.68157680776272045E1));
#125=B_SPLINE_CURVE_WITH_KNOTS('',1,(#123,#124),.UNSPECIFIED.,.F.,.F.,(2,2),(0.00000000000000000E0,1.00000000000000000E0),.UNSPECIFIED.);
#126=CARTESIAN_POINT('',(2.07593465657285705E1,-9.77239930380768662E0,2.11236437667057437E1));
#127=CARTESIAN_POINT('',(1.99225395461942263E1,-8.12827463092412295E0,1.94364543665275775E1));
#128=CARTESIAN_POINT('',(1.91572369781630627E1,-6.62463901966770141E0,2.12812827943024843E1));
#129=(BOUNDED_CURVE()B_SPLINE_CURVE(2,(#126,#127,#128),.UNSPECIFIED.,.F.,.F.)B_SPLINE_CURVE_WITH_KNOTS((3,3),(0.00000000000000000E0,1.00000000000000000E0),.UNSPECIFIED.)CURVE()GEOMETRIC_REPRESENTATION_ITEM()RATIONAL_B_SPLINE_CURVE((2.00000000000000000E0,1.00000000000000000E0,1.00000000000000000E0))REPRESENTATION_ITEM(''));
#130=CARTESIAN_POINT('',(2.19308763930766517E1,-1.20741738458446743E1,2.34857089269551800E1));
#131=CARTESIAN_POINT('',(2.07593465657285705E1,-9.77239930380768662E0,2.11236437667057437E1));
#132=B_SPLINE_CURVE_WITH_KNOTS('',1,(#130,#131),.UNSPECIFIED.,.F.,.F.,(2,2),(0.00000000000000000E0,1.00000000000000000E0),.UNSPECIFIED.);
#133=CARTESIAN_POINT('',(2.56609870460664666E1,-7.27762063596700948E0,2.11236437667057437E1));
#134=CARTESIAN_POINT('',(2.07593465657285705E1,-9.77239930380768662E0,2.11236437667057437E1));
#135=B_SPLINE_CURVE_WITH_KNOTS('',1,(#133,#134),.UNSPECIFIED.,.F.,.F.,(2,2),(0.00000000000000000E0,1.00000000000000000E0),.UNSPECIFIED.);
#136=CARTESIAN_POINT('',(2.68325168734145478E1,-9.57939517800399898E0,2.34857089269551800E1));
#137=CARTESIAN_POINT('',(2.56609870460664666E1,-7.27762063596700948E0,2.11236437667057437E1));
#138=B_SPLINE_CURVE_WITH_KNOTS('',1,(#136,#137),.UNSPECIFIED.,.F.,.F.,(2,2),(0.00000000000000000E0,1.00000000000000000E0),.UNSPECIFIED.);
#139=CARTESIAN_POINT('',(2.82952327055369750E1,-6.94176926318363297E0,2.53305373547300867E1));
#140=CARTESIAN_POINT('',(2.71237028781888938E1,-4.63999472114664524E0,2.29684721944806505E1));
#141=B_SPLINE_CURVE_WITH_KNOTS('',1,(#139,#140),.UNSPECIFIED.,.F.,.F.,(2,2),(0.00000000000000000E0,1.00000000000000000E0),.UNSPECIFIED.);
#142=CARTESIAN_POINT('',(2.71237028781888938E1,-4.63999472114664524E0,2.29684721944806505E1));
#143=CARTESIAN_POINT('',(2.48277951740954066E1,-1.29087887377378863E-1,2.85029574778053743E1));
#144=B_SPLINE_CURVE_WITH_KNOTS('',1,(#142,#143),.UNSPECIFIED.,.F.,.F.,(2,2),(0.00000000000000000E0,1.00000000000000000E0),.UNSPECIFIED.);
#145=CARTESIAN_POINT('',(2.56609870460664666E1,-7.27762063596700948E0,2.11236437667057437E1));
#146=CARTESIAN_POINT('',(2.78890054462200574E1,-6.14363033240306677E0,2.11236437667057437E1));
#147=CARTESIAN_POINT('',(2.71237028781888938E1,-4.63999472114664524E0,2.29684721944806505E1));
#148=(BOUNDED_CURVE()B_SPLINE_CURVE(2,(#145,#146,#147),.UNSPECIFIED.,.F.,.F.)B_SPLINE_CURVE_WITH_KNOTS((3,3),(0.00000000000000000E0,1.00000000000000000E0),.UNSPECIFIED.)CURVE()GEOMETRIC_REPRESENTATION_ITEM()RATIONAL_B_SPLINE_CURVE((1.00000000000000000E0,7.07106781186547573E-1,1.00000000000000000E0))REPRESENTATION_ITEM(''));
#149=CARTESIAN_POINT('',(2.56609870460664666E1,-7.27762063596700948E0,2.11236437667057437E1));
#150=CARTESIAN_POINT('',(2.48241800265321260E1,-5.63349596308344669E0,1.94364543665275775E1));
#151=CARTESIAN_POINT('',(2.40588774585009624E1,-4.12986035182702516E0,2.12812827943024843E1));
#152=(BOUNDED_CURVE()B_SPLINE_CURVE(2,(#149,#150,#151),.UNSPECIFIED.,.F.,.F.)B_SPLINE_CURVE_WITH_KNOTS((3,3),(0.00000000000000000E0,1.00000000000000000E0),.UNSPECIFIED.)CURVE()GEOMETRIC_REPRESENTATION_ITEM()RATIONAL_B_SPLINE_CURVE((2.00000000000000000E0,1.00000000000000000E0,1.00000000000000000E0))REPRESENTATION_ITEM(''));
#153=CARTESIAN_POINT('',(2.71237028781888938E1,-4.63999472114664524E0,2.29684721944806505E1));
#154=CARTESIAN_POINT('',(2.62868958586545496E1,-2.99587004826308156E0,2.12812827943024843E1));
#155=CARTESIAN_POINT('',(2.40588774585009624E1,-4.12986035182702516E0,2.12812827943024843E1));
#156=(BOUNDED_CURVE()B_SPLINE_CURVE(2,(#153,#154,#155),.UNSPECIFIED.,.F.,.F.)B_SPLINE_CURVE_WITH_KNOTS((3,3),(0.00000000000000000E0,1.00000000000000000E0),.UNSPECIFIED.)CURVE()GEOMETRIC_REPRESENTATION_ITEM()RATIONAL_B_SPLINE_CURVE((2.00000000000000000E0,1.00000000000000000E0,1.00000000000000000E0))REPRESENTATION_ITEM(''));
#157=(GEOMETRIC_REPRESENTATION_CONTEXT(2)REPRESENTATION_CONTEXT('','2D'));
#158=CARTESIAN_POINT('',(0.00000000000000000E0,0.00000000000000000E0));
#159=CARTESIAN_POINT('',(1.00000000000000000E0,0.00000000000000000E0));
#160=B_SPLINE_CURVE_WITH_KNOTS('',1,(#158,#159),.UNSPECIFIED.,.F.,.F.,(2,2),(0.00000000000000000E0,1.00000000000000000E0),.UNSPECIFIED.);
#161=DEFINITIONAL_REPRESENTATION('',(#160),#157);
#162=PCURVE('',#31,#161);
#163=CARTESIAN_POINT('',(1.00000000000000000E0,0.00000000000000000E0));
#164=CARTESIAN_POINT('',(1.00000000000000000E0,6.87500000000000111E-1));
#165=B_SPLINE_CURVE_WITH_KNOTS('',1,(#163,#164),.UNSPECIFIED.,.F.,.F.,(2,2),(0.00000000000000000E0,1.00000000000000000E0),.UNSPECIFIED.);
#166=DEFINITIONAL_REPRESENTATION('',(#165),#157);
#167=PCURVE('',#31,#166);
#168=CARTESIAN_POINT('',(1.00000000000000000E0,6.87500000000000111E-1));
#169=CARTESIAN_POINT('',(1.00000000000000000E0,1.00000000000000000E0));
#170=CARTESIAN_POINT('',(7.50000000000000111E-1,1.00000000000000000E0));
#171=(BOUNDED_CURVE()B_SPLINE_CURVE(2,(#168,#169,#170),.UNSPECIFIED.,.F.,.F.)B_SPLINE_CURVE_WITH_KNOTS((3,3),(0.00000000000000000E0,1.00000000000000000E0),.UNSPECIFIED.)CURVE()GEOMETRIC_REPRESENTATION_ITEM()RATIONAL_B_SPLINE_CURVE((1.00000000000000000E0,7.07106781186547573E-1,1.00000000000000000E0))REPRESENTATION_ITEM(''));
#172=DEFINITIONAL_REPRESENTATION('',(#171),#157);
#173=PCURVE('',#31,#172);
#174=CARTESIAN_POINT('',(7.50000000000000111E-1,1.00000000000000000E0));
#175=CARTESIAN_POINT('',(0.00000000000000000E0,1.00000000000000000E0));
#176=B_SPLINE_CURVE_WITH_KNOTS('',1,(#174,#175),.UNSPECIFIED.,.F.,.F.,(2,2),(0.00000000000000000E0,1.00000000000000000E0),.UNSPECIFIED.);
#177=DEFINITIONAL_REPRESENTATION('',(#176),#157);
#178=PCURVE('',#31,#177);
#179=CARTESIAN_POINT('',(0.00000000000000000E0,1.00000000000000000E0));
#180=CARTESIAN_POINT('',(0.00000000000000000E0,0.00000000000000000E0));
#181=B_SPLINE_CURVE_WITH_KNOTS('',1,(#179,#180),.UNSPECIFIED.,.F.,.F.,(2,2),(0.00000000000000000E0,1.00000000000000000E0),.UNSPECIFIED.);
#182=DEFINITIONAL_REPRESENTATION('',(#181),#157);
#183=PCURVE('',#31,#182);
#184=CARTESIAN_POINT('',(1.00000000000000000E0,0.00000000000000000E0));
#185=CARTESIAN_POINT('',(1.00000000000000000E0,6.87500000000000111E-1));
#186=B_SPLINE_CURVE_WITH_KNOTS('',1,(#184,#185),.UNSPECIFIED.,.F.,.F.,(2,2),(0.00000000000000000E0,1.00000000000000000E0),.UNSPECIFIED.);
#187=DEFINITIONAL_REPRESENTATION('',(#186),#157);
#188=PCURVE('',#36,#187);
#189=CARTESIAN_POINT('',(1.00000000000000000E0,6.87500000000000111E-1));
#190=CARTESIAN_POINT('',(2.49999999999999889E-1,6.87500000000000111E-1));
#191=B_SPLINE_CURVE_WITH_KNOTS('',1,(#189,#190),.UNSPECIFIED.,.F.,.F.,(2,2),(0.00000000000000000E0,1.00000000000000000E0),.UNSPECIFIED.);
#192=DEFINITIONAL_REPRESENTATION('',(#191),#157);
#193=PCURVE('',#36,#192);
#194=CARTESIAN_POINT('',(2.49999999999999889E-1,6.87500000000000111E-1));
#195=CARTESIAN_POINT('',(2.49999999999999889E-1,0.00000000000000000E0));
#196=B_SPLINE_CURVE_WITH_KNOTS('',1,(#194,#195),.UNSPECIFIED.,.F.,.F.,(2,2),(0.00000000000000000E0,1.00000000000000000E0),.UNSPECIFIED.);
#197=DEFINITIONAL_REPRESENTATION('',(#196),#157);
#198=PCURVE('',#36,#197);
#199=CARTESIAN_POINT('',(2.49999999999999889E-1,0.00000000000000000E0));
#200=CARTESIAN_POINT('',(1.00000000000000000E0,0.00000000000000000E0));
#201=B_SPLINE_CURVE_WITH_KNOTS('',1,(#199,#200),.UNSPECIFIED.,.F.,.F.,(2,2),(0.00000000000000000E0,1.00000000000000000E0),.UNSPECIFIED.);
#202=DEFINITIONAL_REPRESENTATION('',(#201),#157);
#203=PCURVE('',#36,#202);
#204=CARTESIAN_POINT('',(0.00000000000000000E0,0.00000000000000000E0));
#205=CARTESIAN_POINT('',(1.00000000000000000E0,0.00000000000000000E0));
#206=B_SPLINE_CURVE_WITH_KNOTS('',1,(#204,#205),.UNSPECIFIED.,.F.,.F.,(2,2),(0.00000000000000000E0,1.00000000000000000E0),.UNSPECIFIED.);
#207=DEFINITIONAL_REPRESENTATION('',(#206),#157);
#208=PCURVE('',#41,#207);
#209=CARTESIAN_POINT('',(1.00000000000000000E0,0.00000000000000000E0));
#210=CARTESIAN_POINT('',(1.00000000000000000E0,5.83333333333333370E-1));
#211=B_SPLINE_CURVE_WITH_KNOTS('',1,(#209,#210),.UNSPECIFIED.,.F.,.F.,(2,2),(0.00000000000000000E0,1.00000000000000000E0),.UNSPECIFIED.);
#212=DEFINITIONAL_REPRESENTATION('',(#211),#157);
#213=PCURVE('',#41,#212);
#214=CARTESIAN_POINT('',(1.00000000000000000E0,5.83333333333333370E-1));
#215=CARTESIAN_POINT('',(1.00000000000000000E0,1.00000000000000000E0));
#216=CARTESIAN_POINT('',(6.87500000000000111E-1,1.00000000000000000E0));
#217=(BOUNDED_CURVE()B_SPLINE_CURVE(2,(#214,#215,#216),.UNSPECIFIED.,.F.,.F.)B_SPLINE_CURVE_WITH_KNOTS((3,3),(0.00000000000000000E0,1.00000000000000000E0),.UNSPECIFIED.)CURVE()GEOMETRIC_REPRESENTATION_ITEM()RATIONAL_B_SPLINE_CURVE((2.00000000000000000E0,1.00000000000000000E0,1.00000000000000000E0))REPRESENTATION_ITEM(''));
#218=DEFINITIONAL_REPRESENTATION('',(#217),#157);
#219=PCURVE('',#41,#218);
#220=CARTESIAN_POINT('',(6.87500000000000111E-1,1.00000000000000000E0));
#221=CARTESIAN_POINT('',(0.00000000000000000E0,1.00000000000000000E0));
#222=B_SPLINE_CURVE_WITH_KNOTS('',1,(#220,#221),.UNSPECIFIED.,.F.,.F.,(2,2),(0.00000000000000000E0,1.00000000000000000E0),.UNSPECIFIED.);
#223=DEFINITIONAL_REPRESENTATION('',(#222),#157);
#224=PCURVE('',#41,#223);
#225=CARTESIAN_POINT('',(0.00000000000000000E0,1.00000000000000000E0));
#226=CARTESIAN_POINT('',(0.00000000000000000E0,0.00000000000000000E0));
#227=B_SPLINE_CURVE_WITH_KNOTS('',1,(#225,#226),.UNSPECIFIED.,.F.,.F.,(2,2),(0.00000000000000000E0,1.00000000000000000E0),.UNSPECIFIED.);
#228=DEFINITIONAL_REPRESENTATION('',(#227),#157);
#229=PCURVE('',#41,#228);
#230=CARTESIAN_POINT('',(1.00000000000000000E0,0.00000000000000000E0));
#231=CARTESIAN_POINT('',(1.00000000000000000E0,1.00000000000000000E0));
#232=B_SPLINE_CURVE_WITH_KNOTS('',1,(#230,#231),.UNSPECIFIED.,.F.,.F.,(2,2),(0.00000000000000000E0,1.00000000000000000E0),.UNSPECIFIED.);
#233=DEFINITIONAL_REPRESENTATION('',(#232),#157);
#234=PCURVE('',#46,#233);
#235=CARTESIAN_POINT('',(1.00000000000000000E0,1.00000000000000000E0));
#236=CARTESIAN_POINT('',(2.49999999999999889E-1,1.00000000000000000E0));
#237=B_SPLINE_CURVE_WITH_KNOTS('',1,(#235,#236),.UNSPECIFIED.,.F.,.F.,(2,2),(0.00000000000000000E0,1.00000000000000000E0),.UNSPECIFIED.);
#238=DEFINITIONAL_REPRESENTATION('',(#237),#157);
#239=PCURVE('',#46,#238);
#240=CARTESIAN_POINT('',(2.49999999999999889E-1,1.00000000000000000E0));
#241=CARTESIAN_POINT('',(0.00000000000000000E0,1.00000000000000000E0));
#242=CARTESIAN_POINT('',(0.00000000000000000E0,5.83333333333333370E-1));
#243=(BOUNDED_CURVE()B_SPLINE_CURVE(2,(#240,#241,#242),.UNSPECIFIED.,.F.,.F.)B_SPLINE_CURVE_WITH_KNOTS((3,3),(0.00000000000000000E0,1.00000000000000000E0),.UNSPECIFIED.)CURVE()GEOMETRIC_REPRESENTATION_ITEM()RATIONAL_B_SPLINE_CURVE((1.00000000000000000E0,1.00000000000000000E0,2.00000000000000000E0))REPRESENTATION_ITEM(''));
#244=DEFINITIONAL_REPRESENTATION('',(#243),#157);
#245=PCURVE('',#46,#244);
#246=CARTESIAN_POINT('',(0.00000000000000000E0,5.83333333333333370E-1));
#247=CARTESIAN_POINT('',(0.00000000000000000E0,0.00000000000000000E0));
#248=B_SPLINE_CURVE_WITH_KNOTS('',1,(#246,#247),.UNSPECIFIED.,.F.,.F.,(2,2),(0.00000000000000000E0,1.00000000000000000E0),.UNSPECIFIED.);
#249=DEFINITIONAL_REPRESENTATION('',(#248),#157);
#250=PCURVE('',#46,#249);
#251=CARTESIAN_POINT('',(0.00000000000000000E0,0.00000000000000000E0));
#252=CARTESIAN_POINT('',(1.00000000000000000E0,0.00000000000000000E0));
#253=B_SPLINE_CURVE_WITH_KNOTS('',1,(#251,#252),.UNSPECIFIED.,.F.,.F.,(2,2),(0.00000000000000000E0,1.00000000000000000E0),.UNSPECIFIED.);
#254=DEFINITIONAL_REPRESENTATION('',(#253),#157);
#255=PCURVE('',#46,#254);
#256=CARTESIAN_POINT('',(1.00000000000000000E0,0.00000000000000000E0));
#257=CARTESIAN_POINT('',(1.00000000000000000E0,5.83333333333333370E-1));
#258=B_SPLINE_CURVE_WITH_KNOTS('',1,(#256,#257),.UNSPECIFIED.,.F.,.F.,(2,2),(0.00000000000000000E0,1.00000000000000000E0),.UNSPECIFIED.);
#259=DEFINITIONAL_REPRESENTATION('',(#258),#157);
#260=PCURVE('',#51,#259);
#261=CARTESIAN_POINT('',(1.00000000000000000E0,5.83333333333333370E-1));
#262=CARTESIAN_POINT('',(3.12499999999999889E-1,5.83333333333333370E-1));
#263=B_SPLINE_CURVE_WITH_KNOTS('',1,(#261,#262),.UNSPECIFIED.,.F.,.F.,(2,2),(0.00000000000000000E0,1.00000000000000000E0),.UNSPECIFIED.);
#264=DEFINITIONAL_REPRESENTATION('',(#263),#157);
#265=PCURVE('',#51,#264);
#266=CARTESIAN_POINT('',(3.12499999999999889E-1,5.83333333333333370E-1));
#267=CARTESIAN_POINT('',(3.12499999999999889E-1,0.00000000000000000E0));
#268=B_SPLINE_CURVE_WITH_KNOTS('',1,(#266,#267),.UNSPECIFIED.,.F.,.F.,(2,2),(0.00000000000000000E0,1.00000000000000000E0),.UNSPECIFIED.);
#269=DEFINITIONAL_REPRESENTATION('',(#268),#157);
#270=PCURVE('',#51,#269);
#271=CARTESIAN_POINT('',(3.12499999999999889E-1,0.00000000000000000E0));
#272=CARTESIAN_POINT('',(1.00000000000000000E0,0.00000000000000000E0));
#273=B_SPLINE_CURVE_WITH_KNOTS('',1,(#271,#272),.UNSPECIFIED.,.F.,.F.,(2,2),(0.00000000000000000E0,1.00000000000000000E0),.UNSPECIFIED.);
#274=DEFINITIONAL_REPRESENTATION('',(#273),#157);
#275=PCURVE('',#51,#274);
#276=CARTESIAN_POINT('',(0.00000000000000000E0,0.00000000000000000E0));
#277=CARTESIAN_POINT('',(7.50000000000000111E-1,0.00000000000000000E0));
#278=B_SPLINE_CURVE_WITH_KNOTS('',1,(#276,#277),.UNSPECIFIED.,.F.,.F.,(2,2),(0.00000000000000000E0,1.00000000000000000E0),.UNSPECIFIED.);
#279=DEFINITIONAL_REPRESENTATION('',(#278),#157);
#280=PCURVE('',#56,#279);
#281=CARTESIAN_POINT('',(7.50000000000000111E-1,0.00000000000000000E0));
#282=CARTESIAN_POINT('',(7.50000000000000111E-1,5.83333333333333370E-1));
#283=B_SPLINE_CURVE_WITH_KNOTS('',1,(#281,#282),.UNSPECIFIED.,.F.,.F.,(2,2),(0.00000000000000000E0,1.00000000000000000E0),.UNSPECIFIED.);
#284=DEFINITIONAL_REPRESENTATION('',(#283),#157);
#285=PCURVE('',#56,#284);
#286=CARTESIAN_POINT('',(7.50000000000000111E-1,5.83333333333333370E-1));
#287=CARTESIAN_POINT('',(0.00000000000000000E0,5.83333333333333370E-1));
#288=B_SPLINE_CURVE_WITH_KNOTS('',1,(#286,#287),.UNSPECIFIED.,.F.,.F.,(2,2),(0.00000000000000000E0,1.00000000000000000E0),.UNSPECIFIED.);
#289=DEFINITIONAL_REPRESENTATION('',(#288),#157);
#290=PCURVE('',#56,#289);
#291=CARTESIAN_POINT('',(0.00000000000000000E0,5.83333333333333370E-1));
#292=CARTESIAN_POINT('',(0.00000000000000000E0,0.00000000000000000E0));
#293=B_SPLINE_CURVE_WITH_KNOTS('',1,(#291,#292),.UNSPECIFIED.,.F.,.F.,(2,2),(0.00000000000000000E0,1.00000000000000000E0),.UNSPECIFIED.);
#294=DEFINITIONAL_REPRESENTATION('',(#293),#157);
#295=PCURVE('',#56,#294);
#296=CARTESIAN_POINT('',(1.00000000000000000E0,0.00000000000000000E0));
#297=CARTESIAN_POINT('',(1.00000000000000000E0,1.00000000000000000E0));
#298=B_SPLINE_CURVE_WITH_KNOTS('',1,(#296,#297),.UNSPECIFIED.,.F.,.F.,(2,2),(0.00000000000000000E0,1.00000000000000000E0),.UNSPECIFIED.);
#299=DEFINITIONAL_REPRESENTATION('',(#298),#157);
#300=PCURVE('',#63,#299);
#301=CARTESIAN_POINT('',(1.00000000000000000E0,1.00000000000000000E0));
#302=CARTESIAN_POINT('',(0.00000000000000000E0,1.00000000000000000E0));
#303=B_SPLINE_CURVE_WITH_KNOTS('',1,(#301,#302),.UNSPECIFIED.,.F.,.F.,(2,2),(0.00000000000000000E0,1.00000000000000000E0),.UNSPECIFIED.);
#304=DEFINITIONAL_REPRESENTATION('',(#303),#157);
#305=PCURVE('',#63,#304);
#306=CARTESIAN_POINT('',(0.00000000000000000E0,1.00000000000000000E0));
#307=CARTESIAN_POINT('',(0.00000000000000000E0,0.00000000000000000E0));
#308=B_SPLINE_CURVE_WITH_KNOTS('',1,(#306,#307),.UNSPECIFIED.,.F.,.F.,(2,2),(0.00000000000000000E0,1.00000000000000000E0),.UNSPECIFIED.);
#309=DEFINITIONAL_REPRESENTATION('',(#308),#157);
#310=PCURVE('',#63,#309);
#311=CARTESIAN_POINT('',(0.00000000000000000E0,0.00000000000000000E0));
#312=CARTESIAN_POINT('',(1.00000000000000000E0,0.00000000000000000E0));
#313=B_SPLINE_CURVE_WITH_KNOTS('',1,(#311,#312),.UNSPECIFIED.,.F.,.F.,(2,2),(0.00000000000000000E0,1.00000000000000000E0),.UNSPECIFIED.);
#314=DEFINITIONAL_REPRESENTATION('',(#313),#157);
#315=PCURVE('',#63,#314);
#316=CARTESIAN_POINT('',(0.00000000000000000E0,0.00000000000000000E0));
#317=CARTESIAN_POINT('',(1.00000000000000000E0,0.00000000000000000E0));
#318=B_SPLINE_CURVE_WITH_KNOTS('',1,(#316,#317),.UNSPECIFIED.,.F.,.F.,(2,2),(0.00000000000000000E0,1.00000000000000000E0),.UNSPECIFIED.);
#319=DEFINITIONAL_REPRESENTATION('',(#318),#157);
#320=PCURVE('',#70,#319);
#321=CARTESIAN_POINT('',(1.00000000000000000E0,0.00000000000000000E0));
#322=CARTESIAN_POINT('',(1.00000000000000000E0,1.00000000000000000E0));
#323=B_SPLINE_CURVE_WITH_KNOTS('',1,(#321,#322),.UNSPECIFIED.,.F.,.F.,(2,2),(0.00000000000000000E0,1.00000000000000000E0),.UNSPECIFIED.);
#324=DEFINITIONAL_REPRESENTATION('',(#323),#157);
#325=PCURVE('',#70,#324);
#326=CARTESIAN_POINT('',(1.00000000000000000E0,1.00000000000000000E0));
#327=CARTESIAN_POINT('',(0.00000000000000000E0,1.00000000000000000E0));
#328=B_SPLINE_CURVE_WITH_KNOTS('',1,(#326,#327),.UNSPECIFIED.,.F.,.F.,(2,2),(0.00000000000000000E0,1.00000000000000000E0),.UNSPECIFIED.);
#329=DEFINITIONAL_REPRESENTATION('',(#328),#157);
#330=PCURVE('',#70,#329);
#331=CARTESIAN_POINT('',(0.00000000000000000E0,1.00000000000000000E0));
#332=CARTESIAN_POINT('',(0.00000000000000000E0,0.00000000000000000E0));
#333=B_SPLINE_CURVE_WITH_KNOTS('',1,(#331,#332),.UNSPECIFIED.,.F.,.F.,(2,2),(0.00000000000000000E0,1.00000000000000000E0),.UNSPECIFIED.);
#334=DEFINITIONAL_REPRESENTATION('',(#333),#157);
#335=PCURVE('',#70,#334);
#336=CARTESIAN_POINT('',(1.00000000000000000E0,0.00000000000000000E0));
#337=CARTESIAN_POINT('',(1.00000000000000000E0,1.00000000000000000E0));
#338=B_SPLINE_CURVE_WITH_KNOTS('',1,(#336,#337),.UNSPECIFIED.,.F.,.F.,(2,2),(0.00000000000000000E0,1.00000000000000000E0),.UNSPECIFIED.);
#339=DEFINITIONAL_REPRESENTATION('',(#338),#157);
#340=PCURVE('',#77,#339);
#341=CARTESIAN_POINT('',(1.00000000000000000E0,1.00000000000000000E0));
#342=CARTESIAN_POINT('',(0.00000000000000000E0,1.00000000000000000E0));
#343=B_SPLINE_CURVE_WITH_KNOTS('',1,(#341,#342),.UNSPECIFIED.,.F.,.F.,(2,2),(0.00000000000000000E0,1.00000000000000000E0),.UNSPECIFIED.);
#344=DEFINITIONAL_REPRESENTATION('',(#343),#157);
#345=PCURVE('',#77,#344);
#346=CARTESIAN_POINT('',(0.00000000000000000E0,1.00000000000000000E0));
#347=CARTESIAN_POINT('',(0.00000000000000000E0,0.00000000000000000E0));
#348=B_SPLINE_CURVE_WITH_KNOTS('',1,(#346,#347),.UNSPECIFIED.,.F.,.F.,(2,2),(0.00000000000000000E0,1.00000000000000000E0),.UNSPECIFIED.);
#349=DEFINITIONAL_REPRESENTATION('',(#348),#157);
#350=PCURVE('',#77,#349);
#351=CARTESIAN_POINT('',(0.00000000000000000E0,0.00000000000000000E0));
#352=CARTESIAN_POINT('',(1.00000000000000000E0,0.00000000000000000E0));
#353=B_SPLINE_CURVE_WITH_KNOTS('',1,(#351,#352),.UNSPECIFIED.,.F.,.F.,(2,2),(0.00000000000000000E0,1.00000000000000000E0),.UNSPECIFIED.);
#354=DEFINITIONAL_REPRESENTATION('',(#353),#157);
#355=PCURVE('',#77,#354);
#356=CARTESIAN_POINT('',(1.00000000000000000E0,0.00000000000000000E0));
#357=CARTESIAN_POINT('',(1.00000000000000000E0,1.00000000000000000E0));
#358=B_SPLINE_CURVE_WITH_KNOTS('',1,(#356,#357),.UNSPECIFIED.,.F.,.F.,(2,2),(0.00000000000000000E0,1.00000000000000000E0),.UNSPECIFIED.);
#359=DEFINITIONAL_REPRESENTATION('',(#358),#157);
#360=PCURVE('',#87,#359);
#361=CARTESIAN_POINT('',(1.00000000000000000E0,1.00000000000000000E0));
#362=CARTESIAN_POINT('',(0.00000000000000000E0,1.00000000000000000E0));
#363=CARTESIAN_POINT('',(0.00000000000000000E0,0.00000000000000000E0));
#364=(BOUNDED_CURVE()B_SPLINE_CURVE(2,(#361,#362,#363),.UNSPECIFIED.,.F.,.F.)B_SPLINE_CURVE_WITH_KNOTS((3,3),(0.00000000000000000E0,1.00000000000000000E0),.UNSPECIFIED.)CURVE()GEOMETRIC_REPRESENTATION_ITEM()RATIONAL_B_SPLINE_CURVE((1.00000000000000000E0,7.07106781186547573E-1,1.00000000000000000E0))REPRESENTATION_ITEM(''));
#365=DEFINITIONAL_REPRESENTATION('',(#364),#157);
#366=PCURVE('',#87,#365);
#367=CARTESIAN_POINT('',(0.00000000000000000E0,0.00000000000000000E0));
#368=CARTESIAN_POINT('',(1.00000000000000000E0,0.00000000000000000E0));
#369=B_SPLINE_CURVE_WITH_KNOTS('',1,(#367,#368),.UNSPECIFIED.,.F.,.F.,(2,2),(0.00000000000000000E0,1.00000000000000000E0),.UNSPECIFIED.);
#370=DEFINITIONAL_REPRESENTATION('',(#369),#157);
#371=PCURVE('',#87,#370);
#372=SURFACE_CURVE('',#90,(#162,#255),.PCURVE_S1.);
#373=EDGE_CURVE('OSCAD_TOPO/3|edge|e:f920a7a936c91abccc6142e0cd243357|80e65de44461e5d5826fb59dc799a295b530d06b12fbda0f2db637c91326edd4',#2,#4,#372,.T.);
#374=SURFACE_CURVE('',#93,(#167,#275),.PCURVE_S1.);
#375=EDGE_CURVE('OSCAD_TOPO/3|edge|e:e757abd29008c8ef77d2a30ce8545f29|6b4ba099df690556aff0898ab0f8834874ca4a18866465039edcf17b54a9c03c',#4,#6,#374,.T.);
#376=SURFACE_CURVE('',#97,(#173,#315),.PCURVE_S1.);
#377=EDGE_CURVE('OSCAD_TOPO/3|edge|e:93cdb2fdbd792d7db930345112dd4dd1|6507b1a3710cf944f8067cc1003ef03031de1bf23a415676e4974fef50e375cb',#6,#8,#376,.T.);
#378=SURFACE_CURVE('',#100,(#178,#280),.PCURVE_S1.);
#379=EDGE_CURVE('OSCAD_TOPO/3|edge|e:f19de8f3a1efbe64cdd8be1f48ffeea0|80362df4d0968e1dc99218d2469c34fbf7c3a7264dc022d6f173715d66e59e6f',#10,#8,#378,.T.);
#380=SURFACE_CURVE('',#103,(#183,#208),.PCURVE_S1.);
#381=EDGE_CURVE('OSCAD_TOPO/3|edge|e:6645c59c22feb869ebbc1866b5dcfb99|724709349dd94a6c2e611f99599e923cb51843ab31c501d4df09208a632275e0',#2,#10,#380,.T.);
#382=SURFACE_CURVE('',#106,(#188,#224),.PCURVE_S1.);
#383=EDGE_CURVE('OSCAD_TOPO/3|edge|e:24225c1e9a71ebc989ee2381328ceb8c|d6f043d90ef0c16d003add03465305c19b1a1b9ccd090da812cf822ca85be0d3',#12,#14,#382,.T.);
#384=SURFACE_CURVE('',#109,(#193,#350),.PCURVE_S1.);
#385=EDGE_CURVE('OSCAD_TOPO/3|edge|e:231291c87d38f2f96ccd7fea0dd2d6c3|6395b60c02b32e6d3f16ad8cdfce5791c5821e3867841e2dbf2a091df8b60702',#16,#14,#384,.T.);
#386=SURFACE_CURVE('',#112,(#198,#325),.PCURVE_S1.);
#387=EDGE_CURVE('OSCAD_TOPO/3|edge|e:dfab19cdd9b328bc297bce0c137561f6|d05ea5c12c64e622d513f73379db5f524b382e6b941188e354f3983a64ecebe7',#16,#18,#386,.T.);
#388=SURFACE_CURVE('',#115,(#203,#239),.PCURVE_S1.);
#389=EDGE_CURVE('OSCAD_TOPO/3|edge|e:6ae30ef134c42674a1ef8d9e475228d3|10bf5bf110e2b91d402c9f7dbe5eceff57e14d8b661f9b3242bc8515229ea647',#12,#18,#388,.T.);
#390=SURFACE_CURVE('',#118,(#213,#295),.PCURVE_S1.);
#391=EDGE_CURVE('OSCAD_TOPO/3|edge|e:8578e5e622a386a42e0e7993108be1f8|471a1aba437a5469c6af65b6f8e1d70953f549be3dfb9aff865b877f1fb40168',#10,#20,#390,.T.);
#392=SURFACE_CURVE('',#122,(#219,#355),.PCURVE_S1.);
#393=EDGE_CURVE('OSCAD_TOPO/3|edge|e:e48a472c2c6d49564429dff56051c577|956a339718bfcd108de95ff08691a80d79f47c45e1567a3ec4b749ed93804796',#20,#14,#392,.T.);
#394=SURFACE_CURVE('',#125,(#229,#234),.PCURVE_S1.);
#395=EDGE_CURVE('OSCAD_TOPO/3|edge|e:a11da42452a387346e51a068a027460b|1bcd1db829a83afd701e40e5b30cb8fb76b92b72584d17aa889573b51ab828e3',#2,#12,#394,.T.);
#396=SURFACE_CURVE('',#129,(#245,#320),.PCURVE_S1.);
#397=EDGE_CURVE('OSCAD_TOPO/3|edge|e:5a3595b5efac823dacaf406117dcd62d|6d55064d6f627da5646eebf24a05df1bb467882fc1bee048a2ea496b15eeff0b',#22,#18,#396,.T.);
#398=SURFACE_CURVE('',#132,(#250,#260),.PCURVE_S1.);
#399=EDGE_CURVE('OSCAD_TOPO/3|edge|e:791c53fd54c49dd92cd508bf4d6690e2|da3e7239181674ed832c73ceda910dacbaedd1eb03578aeb6a3d4f789f5da6ef',#4,#22,#398,.T.);
#400=SURFACE_CURVE('',#135,(#265,#335),.PCURVE_S1.);
#401=EDGE_CURVE('OSCAD_TOPO/3|edge|e:d3beaa9ccb00437434695a76474b265d|3b290b176f590da64f6128565995cd43087438fe8e99817905dec113ce6838a4',#24,#22,#400,.T.);
#402=SURFACE_CURVE('',#138,(#270,#300),.PCURVE_S1.);
#403=EDGE_CURVE('OSCAD_TOPO/3|edge|e:8ca7b1c6a8e170435099bdda2ef03bae|6c3923ec36ba434241f2c8515204ccb56c78456ff6459fe6fa8a3c77de3e6eb9',#6,#24,#402,.T.);
#404=SURFACE_CURVE('',#141,(#285,#310),.PCURVE_S1.);
#405=EDGE_CURVE('OSCAD_TOPO/3|edge|e:052ec1d850739b26070aa25c958bd353|3f3fb912109452057cc559e5d1f6646ae63d5a8a681df80ab71aa124da789ead',#8,#26,#404,.T.);
#406=SURFACE_CURVE('',#144,(#290,#340),.PCURVE_S1.);
#407=EDGE_CURVE('OSCAD_TOPO/3|edge|e:64e1b5299266a55e74321817686adab8|c8eb38268769b70c0e48eddf3e3231192ff4a557e8708a5addcc1b3f64f77279',#26,#20,#406,.T.);
#408=SURFACE_CURVE('',#148,(#305,#366),.PCURVE_S1.);
#409=EDGE_CURVE('OSCAD_TOPO/3|edge|e:d4a5aa12dd0f6d4c6cd8aa17585e8b0a|a28bca25abc5adbe4391c8d76e5b6492a8c6a3d06b6bbaddfc1af76bf30f8e57',#24,#26,#408,.T.);
#410=SURFACE_CURVE('',#152,(#330,#371),.PCURVE_S1.);
#411=EDGE_CURVE('OSCAD_TOPO/3|edge|e:edbb80f5d885f8bbb84b1f6554c90481|d8e463e2fdc92a7759dc717c7dcc71354162e314e75b99ffc39178465fef8d4a',#24,#16,#410,.T.);
#412=SURFACE_CURVE('',#156,(#345,#360),.PCURVE_S1.);
#413=EDGE_CURVE('OSCAD_TOPO/3|edge|e:38b3fbd003da8eb50229f68b8099cbda|f403278014829bb308b2ce2d0449cf8da225d1393866b26a421b788285906733',#26,#16,#412,.T.);
#414=ORIENTED_EDGE('',*,*,#373,.T.);
#415=ORIENTED_EDGE('',*,*,#375,.T.);
#416=ORIENTED_EDGE('',*,*,#377,.T.);
#417=ORIENTED_EDGE('',*,*,#379,.F.);
#418=ORIENTED_EDGE('',*,*,#381,.F.);
#419=EDGE_LOOP('OSCAD_TOPO/3|loop|l:154478de9d48427406bd056c31082969|f531f3f9996cba438ccac9afd145824163b5f4e841bb4c7e41b41f3c1081a91e',(#414,#415,#416,#417,#418));
#420=ORIENTED_EDGE('',*,*,#383,.T.);
#421=ORIENTED_EDGE('',*,*,#385,.F.);
#422=ORIENTED_EDGE('',*,*,#387,.T.);
#423=ORIENTED_EDGE('',*,*,#389,.F.);
#424=EDGE_LOOP('OSCAD_TOPO/3|loop|l:6cee79490857125d361db555f101d08d|3722a7667d609a5f9b5ab6949327b51390910021d113ae0d0fbc20b2d774cc22',(#420,#421,#422,#423));
#425=ORIENTED_EDGE('',*,*,#381,.T.);
#426=ORIENTED_EDGE('',*,*,#391,.T.);
#427=ORIENTED_EDGE('',*,*,#393,.T.);
#428=ORIENTED_EDGE('',*,*,#383,.F.);
#429=ORIENTED_EDGE('',*,*,#395,.F.);
#430=EDGE_LOOP('OSCAD_TOPO/3|loop|l:77ec36dffa6c25d6be0018806141122e|a659dad8f7655be532a63fce9c975c8898647e6138e9220ffc2765dc610ee5e7',(#425,#426,#427,#428,#429));
#431=ORIENTED_EDGE('',*,*,#395,.T.);
#432=ORIENTED_EDGE('',*,*,#389,.T.);
#433=ORIENTED_EDGE('',*,*,#397,.F.);
#434=ORIENTED_EDGE('',*,*,#399,.F.);
#435=ORIENTED_EDGE('',*,*,#373,.F.);
#436=EDGE_LOOP('OSCAD_TOPO/3|loop|l:e4bfef21f5fa4aa2fb426904206bf6af|3baff688087c1e60f1ba48ce9f934ef0e3c6ae2f01a3dac1bf9fd459dfa51083',(#431,#432,#433,#434,#435));
#437=ORIENTED_EDGE('',*,*,#399,.T.);
#438=ORIENTED_EDGE('',*,*,#401,.F.);
#439=ORIENTED_EDGE('',*,*,#403,.F.);
#440=ORIENTED_EDGE('',*,*,#375,.F.);
#441=EDGE_LOOP('OSCAD_TOPO/3|loop|l:252d43f7271790278bbd044d694b6b07|6730be26421644cb992f312ad357f8846d735f51865d8388e6f222af27d0f4be',(#437,#438,#439,#440));
#442=ORIENTED_EDGE('',*,*,#379,.T.);
#443=ORIENTED_EDGE('',*,*,#405,.T.);
#444=ORIENTED_EDGE('',*,*,#407,.T.);
#445=ORIENTED_EDGE('',*,*,#391,.F.);
#446=EDGE_LOOP('OSCAD_TOPO/3|loop|l:2cce7ce2176db577fd75b25208618582|7527e3c49190afa3358caac704daf46326f2d26b0c7ce2658912e255272159e3',(#442,#443,#444,#445));
#447=ORIENTED_EDGE('',*,*,#403,.T.);
#448=ORIENTED_EDGE('',*,*,#409,.T.);
#449=ORIENTED_EDGE('',*,*,#405,.F.);
#450=ORIENTED_EDGE('',*,*,#377,.F.);
#451=EDGE_LOOP('OSCAD_TOPO/3|loop|l:f5181febc3a162abb608de0653492659|aefaef0fdff58c760d1c05c77f4d4e0da01cbeeb21013c5ed34cb90a2f84af56',(#447,#448,#449,#450));
#452=ORIENTED_EDGE('',*,*,#397,.T.);
#453=ORIENTED_EDGE('',*,*,#387,.F.);
#454=ORIENTED_EDGE('',*,*,#411,.F.);
#455=ORIENTED_EDGE('',*,*,#401,.T.);
#456=EDGE_LOOP('OSCAD_TOPO/3|loop|l:3dbdd50a1c891a1fa3ff4635920108d4|7108f4c96f97feafcf2d513c02934a36205ab4adf977274ff0557d052c898605',(#452,#453,#454,#455));
#457=ORIENTED_EDGE('',*,*,#407,.F.);
#458=ORIENTED_EDGE('',*,*,#413,.T.);
#459=ORIENTED_EDGE('',*,*,#385,.T.);
#460=ORIENTED_EDGE('',*,*,#393,.F.);
#461=EDGE_LOOP('OSCAD_TOPO/3|loop|l:f81ce9c61a2ebe3e126ad871c0a853f4|b17b5bd7b8af37ce37b442942fa292dd5b96d57123378754cba598b45d67b0ab',(#457,#458,#459,#460));
#462=ORIENTED_EDGE('',*,*,#413,.F.);
#463=ORIENTED_EDGE('',*,*,#409,.F.);
#464=ORIENTED_EDGE('',*,*,#411,.T.);
#465=EDGE_LOOP('OSCAD_TOPO/3|loop|l:e69e9d0b2a7be475411441a3d587cf1d|2e66da7d388a3782bf81e95a174071755d202205ddeb3388cc70ec7528b5de50',(#462,#463,#464));
#466=FACE_OUTER_BOUND('',#419,.T.);
#467=ADVANCED_FACE('OSCAD_TOPO/3|face|f:dcf2b97403774a08c9b60ffc521b754a|179b9fe9e0c89ef125c3d6aed9abb1b4d258bd9c3be01904571414d3aaf2f840',(#466),#31,.T.);
#468=FACE_OUTER_BOUND('',#424,.T.);
#469=ADVANCED_FACE('OSCAD_TOPO/3|face|f:69cc88b9ea53de3f8af66c40d706874a|e2ff28cfd1d2996fa536f3c357c39bf33fe88eba0024fa58f53f23704d6d8080',(#468),#36,.T.);
#470=FACE_OUTER_BOUND('',#430,.T.);
#471=ADVANCED_FACE('OSCAD_TOPO/3|face|f:a63c2bae3dbad7048338529678f3f4f1|2f555015373b85cd98dbf7349aef527669ffe4eff0e5a913df90766d59adc677',(#470),#41,.T.);
#472=FACE_OUTER_BOUND('',#436,.T.);
#473=ADVANCED_FACE('OSCAD_TOPO/3|face|f:cf273c34a6716888828911efcf48889f|1c4d13248e06a79fd85339d39c0b3f11d003137cd0d36874f0bdaa5c608f1759',(#472),#46,.T.);
#474=FACE_OUTER_BOUND('',#441,.T.);
#475=ADVANCED_FACE('OSCAD_TOPO/3|face|f:278760a389dcfedd93ed505c2cc66ff4|dcd84cd4bbac89b1aa2688cc7634ba7d9ed8481598376da0c390d159a2dd9dc7',(#474),#51,.T.);
#476=FACE_OUTER_BOUND('',#446,.T.);
#477=ADVANCED_FACE('OSCAD_TOPO/3|face|f:b1281861dd12dc711d3a710d049999f6|90e487301d4ece7b6276e0da1b3eff30d7c3b7909fde68ce7d635bb731805a80',(#476),#56,.T.);
#478=FACE_OUTER_BOUND('',#451,.T.);
#479=ADVANCED_FACE('OSCAD_TOPO/3|face|f:4ee88ea7dc13a88fdb079288336f6c15|c55016bd1e39cbb2eddd39e25fbca733cd56dcad9ebca3e6b46278977fc286ff',(#478),#63,.T.);
#480=FACE_OUTER_BOUND('',#456,.T.);
#481=ADVANCED_FACE('OSCAD_TOPO/3|face|f:10016ab8d08c604257573e3107081b9f|98ced40978a56410835407947371a28e5e55c524d898bf8859656d73c96fa493',(#480),#70,.T.);
#482=FACE_OUTER_BOUND('',#461,.T.);
#483=ADVANCED_FACE('OSCAD_TOPO/3|face|f:43beec12b0b4f463765a7c975af11deb|6ce8bf8bafe138a56a4b8c3bc0c04f28cdb758bba0de27e15b8d6fbaead07d5c',(#482),#77,.T.);
#484=FACE_OUTER_BOUND('',#465,.T.);
#485=ADVANCED_FACE('OSCAD_TOPO/3|face|f:9ff4a0406fdb874f2b8518070d6217cf|532af849ebff21b3cb0367e9abf50f3130b3b4b4c1d70f29d80e00b4b20ca2f5',(#484),#87,.T.);
#486=CLOSED_SHELL('OSCAD_TOPO/3|shell|s:a181d4b8981b5dc3c41cd062654cde22|91eaba65c9b78b485dafd2fccabfa28ac7dc6f688fb7c1f340327be1d55b246e',(#467,#469,#471,#473,#475,#477,#479,#481,#483,#485));
#487=MANIFOLD_SOLID_BREP('OSCAD_TOPO/3|body|b:3e6f1a5fafd0b209841a02a7312b1e87|16c0a0fae07884d24be18d7164ae10d1f60866fd6f2ec22d1c0cbdc0d0976969',#486);
#488=(LENGTH_UNIT()NAMED_UNIT(*)SI_UNIT(.MILLI.,.METRE.));
#489=UNCERTAINTY_MEASURE_WITH_UNIT(LENGTH_MEASURE(9.99999999999999955E-8),#488,'distance_accuracy_value','');
#490=(GEOMETRIC_REPRESENTATION_CONTEXT(3)GLOBAL_UNCERTAINTY_ASSIGNED_CONTEXT((#489))GLOBAL_UNIT_ASSIGNED_CONTEXT((#488))REPRESENTATION_CONTEXT('','3D'));
#491=ADVANCED_BREP_SHAPE_REPRESENTATION('',(#487),#490);
#492=APPLICATION_CONTEXT('managed model based 3d engineering');
#493=PRODUCT_CONTEXT('',#492,'mechanical');
#494=PRODUCT('model','model','',(#493));
#495=PRODUCT_DEFINITION_FORMATION('1','',#494);
#496=PRODUCT_DEFINITION_CONTEXT('part definition',#492,'design');
#497=PRODUCT_DEFINITION('design','',#495,#496);
#498=PRODUCT_DEFINITION_SHAPE('','',#497);
#499=SHAPE_DEFINITION_REPRESENTATION(#498,#491);
ENDSEC;
END-ISO-10303-21;
