ISO-10303-21;
HEADER;
FILE_DESCRIPTION(('OpenSCAD Viewer retained AP242 B-rep'),'2;1');
FILE_NAME('model.step','',(''),(''),'OpenSCAD Viewer','OpenSCAD Viewer','');
FILE_SCHEMA(('AP242_MANAGED_MODEL_BASED_3D_ENGINEERING_MIM_LF'));
ENDSEC;
DATA;
#1=CARTESIAN_POINT('',(1.60712944926942747E1,-6.14245670325626669E0,2.79971944516833631E1));
#2=VERTEX_POINT('OSCAD_TOPO/3|vertex|v:fdfc537031d25f3cc2235cf2aee27db5|e31c01d147b1534fe25348eae1385cf4c51c3661ef860639f334e2b713eb213b',#1);
#3=CARTESIAN_POINT('',(1.31783710369745783E1,1.31616206159200866E0,2.79971944516833631E1));
#4=VERTEX_POINT('OSCAD_TOPO/3|vertex|v:cc0d2b03013fbbbfbfc5acad6aae5a82|e21aed2650e3dbfd7011e3aa9078a62e13d09dc72073e8d89607a0c726faa4b7',#3);
#5=CARTESIAN_POINT('',(8.42949188460303844E0,-9.10643042358044674E0,2.22685198506785476E1));
#6=VERTEX_POINT('OSCAD_TOPO/3|vertex|v:1f0364c35d697fab07cd5940872abab9|858f6f2aaba8e821720e2f1b8dd5bc364e0f4cf7e3a94aa6858304f936d46d16',#5);
#7=CARTESIAN_POINT('',(1.92758944834515908E1,-4.89951041899882966E0,2.30793063446104867E1));
#8=VERTEX_POINT('OSCAD_TOPO/3|vertex|v:b2279a1257c4fcf496396948530a5725|4d7387037b928217f0c35f4a2c69ac73c098834c96a51c0ccb008f1edd8791f6',#7);
#9=CARTESIAN_POINT('',(5.72761349408562204E0,-1.57371231572406689E0,2.24117367157036682E1));
#10=VERTEX_POINT('OSCAD_TOPO/3|vertex|v:a7c44b05b1e0a62514ce403a58e6e27f|7abe968bf435c7bc7e19ec6c6c6b37cac81eb75de6e26e1f8d3054348d9d7007',#9);
#11=CARTESIAN_POINT('',(5.62697228687458129E0,-1.88089349513367998E0,2.22685198506785476E1));
#12=VERTEX_POINT('OSCAD_TOPO/3|vertex|v:1dbeffefca58f2edb672b23f771049b6|6c529379eb0d80b1786eb97e7d6abf78880cc74f241515a614ed214b1f35c3d4',#11);
#13=CARTESIAN_POINT('',(8.79868848522805003E0,-3.82555459977356072E-1,1.76987606130921620E1));
#14=VERTEX_POINT('OSCAD_TOPO/3|vertex|v:bdd38207cfcb66db52dff31ab177e253|298a4d9dd4372647c9425b545b7eebbae671c0bcc389325c6bf4bb82706ae180',#13);
#15=CARTESIAN_POINT('',(8.69804727801701105E0,-6.89736639386969053E-1,1.75555437480670413E1));
#16=VERTEX_POINT('OSCAD_TOPO/3|vertex|v:4e8f7def1a0c3874d1c6c77e8d7964f9|e29121839344b1626fd443b3a74ced3923ab7b2ab63c7331bf00da463e2afcf0',#15);
#17=CARTESIAN_POINT('',(9.02261734283417915E0,-5.63847867868138120E-1,1.74938486086307918E1));
#18=VERTEX_POINT('OSCAD_TOPO/3|vertex|v:ce3f8322ea086dc74d509933818e04da|bb52cb52e5ad878baf05909e2c0bd18b1e82ba7b3b66c3a7d4f8b0bcc6b03eb4',#17);
#19=CARTESIAN_POINT('',(1.62494460281170063E1,2.50731891733871937E0,2.32842183490718568E1));
#20=VERTEX_POINT('OSCAD_TOPO/3|vertex|v:8b634f9d9173f691621b940bcba19c5b|7d62e9a5dcdc4299df4550b30e2b4bde919f94bd28c7af5baffd05b74667a96b',#19);
#21=CARTESIAN_POINT('',(1.64733748857231355E1,2.32602650944793732E0,2.30793063446104867E1));
#22=VERTEX_POINT('OSCAD_TOPO/3|vertex|v:cb4017a4b7f34b226c690264a2cf4838|2c0fa666e24dfdcb078436913fcb44cf0102cc98424142bec6e164e9adaea736',#21);
#23=CARTESIAN_POINT('',(1.15005668757454664E1,-7.91527356783373648E0,1.75555437480670413E1));
#24=VERTEX_POINT('OSCAD_TOPO/3|vertex|v:f0321a898d6475d10af69442f181dd46|3b8758e66f3e7bbee8c1523bdd2044e1121ca8da337084d503e3f1ffa900c6ab',#23);
#25=CARTESIAN_POINT('',(1.18251369405626363E1,-7.78938479631490566E0,1.74938486086307918E1));
#26=VERTEX_POINT('OSCAD_TOPO/3|vertex|v:83b52306499b8b0f7faeac0cb9d60173|fa3e89299527cace34fa2d96efc5daa78657358557304fcde39a3f486212a6db',#25);
#27=CARTESIAN_POINT('',(1.60712944926942747E1,-6.14245670325626669E0,2.79971944516833631E1));
#28=CARTESIAN_POINT('',(8.42949188460303844E0,-9.10643042358044674E0,2.22685198506785476E1));
#29=CARTESIAN_POINT('',(1.31783710369745783E1,1.31616206159200777E0,2.79971944516833631E1));
#30=CARTESIAN_POINT('',(5.53656842888334122E0,-1.64781165873217228E0,2.22685198506785476E1));
#31=B_SPLINE_SURFACE_WITH_KNOTS('',1,1,((#27,#28),(#29,#30)),.UNSPECIFIED.,.F.,.F.,.F.,(2,2),(2,2),(0.00000000000000000E0,1.00000000000000000E0),(0.00000000000000000E0,1.00000000000000000E0),.UNSPECIFIED.);
#32=CARTESIAN_POINT('',(1.63829710277318945E1,2.55910834584944524E0,2.30793063446104867E1));
#33=CARTESIAN_POINT('',(8.74116841964065827E0,-4.04865374474734807E-1,1.73506317436056712E1));
#34=CARTESIAN_POINT('',(1.92758944834515908E1,-4.89951041899882966E0,2.30793063446104867E1));
#35=CARTESIAN_POINT('',(1.16340918753603546E1,-7.86348413932300971E0,1.73506317436056712E1));
#36=B_SPLINE_SURFACE_WITH_KNOTS('',1,1,((#32,#33),(#34,#35)),.UNSPECIFIED.,.F.,.F.,.F.,(2,2),(2,2),(0.00000000000000000E0,1.00000000000000000E0),(0.00000000000000000E0,1.00000000000000000E0),.UNSPECIFIED.);
#37=CARTESIAN_POINT('',(1.60712944926942747E1,-6.14245670325626669E0,2.79971944516833631E1));
#38=CARTESIAN_POINT('',(1.92758944834515908E1,-4.89951041899882966E0,2.30793063446104867E1));
#39=CARTESIAN_POINT('',(8.42949188460303844E0,-9.10643042358044674E0,2.22685198506785476E1));
#40=CARTESIAN_POINT('',(1.16340918753603546E1,-7.86348413932300971E0,1.73506317436056712E1));
#41=B_SPLINE_SURFACE_WITH_KNOTS('',1,1,((#37,#38),(#39,#40)),.UNSPECIFIED.,.F.,.F.,.F.,(2,2),(2,2),(0.00000000000000000E0,1.00000000000000000E0),(0.00000000000000000E0,1.00000000000000000E0),.UNSPECIFIED.);
#42=CARTESIAN_POINT('',(1.31783710369745783E1,1.31616206159200777E0,2.79971944516833631E1));
#43=CARTESIAN_POINT('',(1.63829710277318945E1,2.55910834584944524E0,2.30793063446104867E1));
#44=CARTESIAN_POINT('',(1.60712944926942747E1,-6.14245670325626669E0,2.79971944516833631E1));
#45=CARTESIAN_POINT('',(1.92758944834515908E1,-4.89951041899882966E0,2.30793063446104867E1));
#46=B_SPLINE_SURFACE_WITH_KNOTS('',1,1,((#42,#43),(#44,#45)),.UNSPECIFIED.,.F.,.F.,.F.,(2,2),(2,2),(0.00000000000000000E0,1.00000000000000000E0),(0.00000000000000000E0,1.00000000000000000E0),.UNSPECIFIED.);
#47=CARTESIAN_POINT('',(5.53656842888334033E0,-1.64781165873217139E0,2.22685198506785476E1));
#48=CARTESIAN_POINT('',(8.74116841964065827E0,-4.04865374474733974E-1,1.73506317436056712E1));
#49=CARTESIAN_POINT('',(1.31783710369745783E1,1.31616206159200866E0,2.79971944516833631E1));
#50=CARTESIAN_POINT('',(1.63829710277318945E1,2.55910834584944613E0,2.30793063446104867E1));
#51=B_SPLINE_SURFACE_WITH_KNOTS('',1,1,((#47,#48),(#49,#50)),.UNSPECIFIED.,.F.,.F.,.F.,(2,2),(2,2),(0.00000000000000000E0,1.00000000000000000E0),(0.00000000000000000E0,1.00000000000000000E0),.UNSPECIFIED.);
#52=CARTESIAN_POINT('',(8.42949188460303844E0,-9.10643042358044674E0,2.22685198506785476E1));
#53=CARTESIAN_POINT('',(1.16340918753603546E1,-7.86348413932300971E0,1.73506317436056712E1));
#54=CARTESIAN_POINT('',(5.53656842888334122E0,-1.64781165873217228E0,2.22685198506785476E1));
#55=CARTESIAN_POINT('',(8.74116841964065827E0,-4.04865374474734807E-1,1.73506317436056712E1));
#56=B_SPLINE_SURFACE_WITH_KNOTS('',1,1,((#52,#53),(#54,#55)),.UNSPECIFIED.,.F.,.F.,.F.,(2,2),(2,2),(0.00000000000000000E0,1.00000000000000000E0),(0.00000000000000000E0,1.00000000000000000E0),.UNSPECIFIED.);
#57=CARTESIAN_POINT('',(5.62697228687458129E0,-1.88089349513367998E0,2.22685198506785476E1));
#58=CARTESIAN_POINT('',(8.69804727801701105E0,-6.89736639386969053E-1,1.75555437480670413E1));
#59=CARTESIAN_POINT('',(5.53656842888334033E0,-1.64781165873217139E0,2.22685198506785476E1));
#60=CARTESIAN_POINT('',(8.60764342002577010E0,-4.56654802985460517E-1,1.75555437480670413E1));
#61=CARTESIAN_POINT('',(5.72761349408562204E0,-1.57371231572406689E0,2.24117367157036682E1));
#62=CARTESIAN_POINT('',(8.79868848522805003E0,-3.82555459977356072E-1,1.76987606130921620E1));
#63=(BOUNDED_SURFACE()B_SPLINE_SURFACE(2,1,((#57,#58),(#59,#60),(#61,#62)),.UNSPECIFIED.,.F.,.F.,.F.)B_SPLINE_SURFACE_WITH_KNOTS((3,3),(2,2),(0.00000000000000000E0,1.00000000000000000E0),(0.00000000000000000E0,1.00000000000000000E0),.UNSPECIFIED.)GEOMETRIC_REPRESENTATION_ITEM()RATIONAL_B_SPLINE_SURFACE(((1.00000000000000000E0,1.00000000000000000E0),(7.07106781186547573E-1,7.07106781186547573E-1),(1.00000000000000000E0,1.00000000000000000E0)))REPRESENTATION_ITEM('')SURFACE());
#64=CARTESIAN_POINT('',(1.62494460281170063E1,2.50731891733871937E0,2.32842183490718568E1));
#65=CARTESIAN_POINT('',(8.79868848522805003E0,-3.82555459977356072E-1,1.76987606130921620E1));
#66=CARTESIAN_POINT('',(1.63829710277318945E1,2.55910834584944613E0,2.30793063446104867E1));
#67=CARTESIAN_POINT('',(8.93221348484293820E0,-3.30766031466629529E-1,1.74938486086307918E1));
#68=CARTESIAN_POINT('',(1.64733748857231355E1,2.32602650944793732E0,2.30793063446104867E1));
#69=CARTESIAN_POINT('',(9.02261734283417915E0,-5.63847867868138120E-1,1.74938486086307918E1));
#70=(BOUNDED_SURFACE()B_SPLINE_SURFACE(2,1,((#64,#65),(#66,#67),(#68,#69)),.UNSPECIFIED.,.F.,.F.,.F.)B_SPLINE_SURFACE_WITH_KNOTS((3,3),(2,2),(0.00000000000000000E0,1.00000000000000000E0),(0.00000000000000000E0,1.00000000000000000E0),.UNSPECIFIED.)GEOMETRIC_REPRESENTATION_ITEM()RATIONAL_B_SPLINE_SURFACE(((2.00000000000000000E0,2.00000000000000000E0),(1.00000000000000000E0,1.00000000000000000E0),(1.00000000000000000E0,1.00000000000000000E0)))REPRESENTATION_ITEM('')SURFACE());
#71=CARTESIAN_POINT('',(1.18251369405626363E1,-7.78938479631490566E0,1.74938486086307918E1));
#72=CARTESIAN_POINT('',(9.02261734283417915E0,-5.63847867868138120E-1,1.74938486086307918E1));
#73=CARTESIAN_POINT('',(1.16340918753603546E1,-7.86348413932300971E0,1.73506317436056712E1));
#74=CARTESIAN_POINT('',(8.83157227763189923E0,-6.37947210876242510E-1,1.73506317436056712E1));
#75=CARTESIAN_POINT('',(1.15005668757454664E1,-7.91527356783373648E0,1.75555437480670413E1));
#76=CARTESIAN_POINT('',(8.69804727801701105E0,-6.89736639386969053E-1,1.75555437480670413E1));
#77=(BOUNDED_SURFACE()B_SPLINE_SURFACE(2,1,((#71,#72),(#73,#74),(#75,#76)),.UNSPECIFIED.,.F.,.F.,.F.)B_SPLINE_SURFACE_WITH_KNOTS((3,3),(2,2),(0.00000000000000000E0,1.00000000000000000E0),(0.00000000000000000E0,1.00000000000000000E0),.UNSPECIFIED.)GEOMETRIC_REPRESENTATION_ITEM()RATIONAL_B_SPLINE_SURFACE(((1.00000000000000000E0,1.00000000000000000E0),(1.00000000000000000E0,1.00000000000000000E0),(2.00000000000000000E0,2.00000000000000000E0)))REPRESENTATION_ITEM('')SURFACE());
#78=CARTESIAN_POINT('',(8.79868848522805003E0,-3.82555459977356072E-1,1.76987606130921620E1));
#79=CARTESIAN_POINT('',(8.70316595262691095E0,-4.19605131481408267E-1,1.76271521805795999E1));
#80=CARTESIAN_POINT('',(8.65695139455198159E0,-5.26912110286836932E-1,1.76715867045625394E1));
#81=CARTESIAN_POINT('',(8.93221348484293820E0,-3.30766031466629529E-1,1.74938486086307918E1));
#82=CARTESIAN_POINT('',(8.74116841964065827E0,-4.04865374474733974E-1,1.73506317436056712E1));
#83=CARTESIAN_POINT('',(8.65284534902139058E0,-5.73195721186214868E-1,1.75555437480670413E1));
#84=CARTESIAN_POINT('',(9.02261734283417915E0,-5.63847867868138120E-1,1.74938486086307918E1));
#85=CARTESIAN_POINT('',(8.83157227763189923E0,-6.37947210876242510E-1,1.73506317436056712E1));
#86=CARTESIAN_POINT('',(8.69804727801701105E0,-6.89736639386969053E-1,1.75555437480670413E1));
#87=(BOUNDED_SURFACE()B_SPLINE_SURFACE(2,2,((#78,#79,#80),(#81,#82,#83),(#84,#85,#86)),.UNSPECIFIED.,.F.,.F.,.F.)B_SPLINE_SURFACE_WITH_KNOTS((3,3),(3,3),(0.00000000000000000E0,1.00000000000000000E0),(0.00000000000000000E0,1.00000000000000000E0),.UNSPECIFIED.)GEOMETRIC_REPRESENTATION_ITEM()RATIONAL_B_SPLINE_SURFACE(((2.00000000000000000E0,2.00000000000000000E0,3.00000000000000000E0),(1.00000000000000000E0,1.00000000000000000E0,2.00000000000000000E0),(1.00000000000000000E0,1.00000000000000000E0,2.00000000000000000E0)))REPRESENTATION_ITEM('')SURFACE());
#88=CARTESIAN_POINT('',(1.60712944926942747E1,-6.14245670325626669E0,2.79971944516833631E1));
#89=CARTESIAN_POINT('',(1.31783710369745783E1,1.31616206159200866E0,2.79971944516833631E1));
#90=B_SPLINE_CURVE_WITH_KNOTS('',1,(#88,#89),.UNSPECIFIED.,.F.,.F.,(2,2),(0.00000000000000000E0,1.00000000000000000E0),.UNSPECIFIED.);
#91=CARTESIAN_POINT('',(1.31783710369745783E1,1.31616206159200866E0,2.79971944516833631E1));
#92=CARTESIAN_POINT('',(5.72761349408562204E0,-1.57371231572406689E0,2.24117367157036682E1));
#93=B_SPLINE_CURVE_WITH_KNOTS('',1,(#91,#92),.UNSPECIFIED.,.F.,.F.,(2,2),(0.00000000000000000E0,1.00000000000000000E0),.UNSPECIFIED.);
#94=CARTESIAN_POINT('',(8.42949188460303844E0,-9.10643042358044674E0,2.22685198506785476E1));
#95=CARTESIAN_POINT('',(5.62697228687458129E0,-1.88089349513367998E0,2.22685198506785476E1));
#96=B_SPLINE_CURVE_WITH_KNOTS('',1,(#94,#95),.UNSPECIFIED.,.F.,.F.,(2,2),(0.00000000000000000E0,1.00000000000000000E0),.UNSPECIFIED.);
#97=CARTESIAN_POINT('',(1.60712944926942747E1,-6.14245670325626669E0,2.79971944516833631E1));
#98=CARTESIAN_POINT('',(8.42949188460303844E0,-9.10643042358044674E0,2.22685198506785476E1));
#99=B_SPLINE_CURVE_WITH_KNOTS('',1,(#97,#98),.UNSPECIFIED.,.F.,.F.,(2,2),(0.00000000000000000E0,1.00000000000000000E0),.UNSPECIFIED.);
#100=CARTESIAN_POINT('',(1.60712944926942747E1,-6.14245670325626669E0,2.79971944516833631E1));
#101=CARTESIAN_POINT('',(1.92758944834515908E1,-4.89951041899882966E0,2.30793063446104867E1));
#102=B_SPLINE_CURVE_WITH_KNOTS('',1,(#100,#101),.UNSPECIFIED.,.F.,.F.,(2,2),(0.00000000000000000E0,1.00000000000000000E0),.UNSPECIFIED.);
#103=CARTESIAN_POINT('',(1.31783710369745783E1,1.31616206159200866E0,2.79971944516833631E1));
#104=CARTESIAN_POINT('',(1.62494460281170063E1,2.50731891733871937E0,2.32842183490718568E1));
#105=B_SPLINE_CURVE_WITH_KNOTS('',1,(#103,#104),.UNSPECIFIED.,.F.,.F.,(2,2),(0.00000000000000000E0,1.00000000000000000E0),.UNSPECIFIED.);
#106=CARTESIAN_POINT('',(8.79868848522805003E0,-3.82555459977356072E-1,1.76987606130921620E1));
#107=CARTESIAN_POINT('',(1.62494460281170063E1,2.50731891733871937E0,2.32842183490718568E1));
#108=B_SPLINE_CURVE_WITH_KNOTS('',1,(#106,#107),.UNSPECIFIED.,.F.,.F.,(2,2),(0.00000000000000000E0,1.00000000000000000E0),.UNSPECIFIED.);
#109=CARTESIAN_POINT('',(5.72761349408562204E0,-1.57371231572406689E0,2.24117367157036682E1));
#110=CARTESIAN_POINT('',(8.79868848522805003E0,-3.82555459977356072E-1,1.76987606130921620E1));
#111=B_SPLINE_CURVE_WITH_KNOTS('',1,(#109,#110),.UNSPECIFIED.,.F.,.F.,(2,2),(0.00000000000000000E0,1.00000000000000000E0),.UNSPECIFIED.);
#112=CARTESIAN_POINT('',(5.62697228687458129E0,-1.88089349513367998E0,2.22685198506785476E1));
#113=CARTESIAN_POINT('',(8.69804727801701105E0,-6.89736639386969053E-1,1.75555437480670413E1));
#114=B_SPLINE_CURVE_WITH_KNOTS('',1,(#112,#113),.UNSPECIFIED.,.F.,.F.,(2,2),(0.00000000000000000E0,1.00000000000000000E0),.UNSPECIFIED.);
#115=CARTESIAN_POINT('',(8.42949188460303844E0,-9.10643042358044674E0,2.22685198506785476E1));
#116=CARTESIAN_POINT('',(1.15005668757454664E1,-7.91527356783373648E0,1.75555437480670413E1));
#117=B_SPLINE_CURVE_WITH_KNOTS('',1,(#115,#116),.UNSPECIFIED.,.F.,.F.,(2,2),(0.00000000000000000E0,1.00000000000000000E0),.UNSPECIFIED.);
#118=CARTESIAN_POINT('',(8.69804727801701105E0,-6.89736639386969053E-1,1.75555437480670413E1));
#119=CARTESIAN_POINT('',(1.15005668757454664E1,-7.91527356783373648E0,1.75555437480670413E1));
#120=B_SPLINE_CURVE_WITH_KNOTS('',1,(#118,#119),.UNSPECIFIED.,.F.,.F.,(2,2),(0.00000000000000000E0,1.00000000000000000E0),.UNSPECIFIED.);
#121=CARTESIAN_POINT('',(1.92758944834515908E1,-4.89951041899882966E0,2.30793063446104867E1));
#122=CARTESIAN_POINT('',(1.64733748857231355E1,2.32602650944793732E0,2.30793063446104867E1));
#123=B_SPLINE_CURVE_WITH_KNOTS('',1,(#121,#122),.UNSPECIFIED.,.F.,.F.,(2,2),(0.00000000000000000E0,1.00000000000000000E0),.UNSPECIFIED.);
#124=CARTESIAN_POINT('',(9.02261734283417915E0,-5.63847867868138120E-1,1.74938486086307918E1));
#125=CARTESIAN_POINT('',(1.64733748857231355E1,2.32602650944793732E0,2.30793063446104867E1));
#126=B_SPLINE_CURVE_WITH_KNOTS('',1,(#124,#125),.UNSPECIFIED.,.F.,.F.,(2,2),(0.00000000000000000E0,1.00000000000000000E0),.UNSPECIFIED.);
#127=CARTESIAN_POINT('',(1.92758944834515908E1,-4.89951041899882966E0,2.30793063446104867E1));
#128=CARTESIAN_POINT('',(1.18251369405626363E1,-7.78938479631490566E0,1.74938486086307918E1));
#129=B_SPLINE_CURVE_WITH_KNOTS('',1,(#127,#128),.UNSPECIFIED.,.F.,.F.,(2,2),(0.00000000000000000E0,1.00000000000000000E0),.UNSPECIFIED.);
#130=CARTESIAN_POINT('',(9.02261734283417915E0,-5.63847867868138120E-1,1.74938486086307918E1));
#131=CARTESIAN_POINT('',(1.18251369405626363E1,-7.78938479631490566E0,1.74938486086307918E1));
#132=B_SPLINE_CURVE_WITH_KNOTS('',1,(#130,#131),.UNSPECIFIED.,.F.,.F.,(2,2),(0.00000000000000000E0,1.00000000000000000E0),.UNSPECIFIED.);
#133=CARTESIAN_POINT('',(5.72761349408562204E0,-1.57371231572406689E0,2.24117367157036682E1));
#134=CARTESIAN_POINT('',(5.53656842888334033E0,-1.64781165873217139E0,2.22685198506785476E1));
#135=CARTESIAN_POINT('',(5.62697228687458129E0,-1.88089349513367998E0,2.22685198506785476E1));
#136=(BOUNDED_CURVE()B_SPLINE_CURVE(2,(#133,#134,#135),.UNSPECIFIED.,.F.,.F.)B_SPLINE_CURVE_WITH_KNOTS((3,3),(0.00000000000000000E0,1.00000000000000000E0),.UNSPECIFIED.)CURVE()GEOMETRIC_REPRESENTATION_ITEM()RATIONAL_B_SPLINE_CURVE((1.00000000000000000E0,7.07106781186547573E-1,1.00000000000000000E0))REPRESENTATION_ITEM(''));
#137=CARTESIAN_POINT('',(8.79868848522805003E0,-3.82555459977356072E-1,1.76987606130921620E1));
#138=CARTESIAN_POINT('',(8.60764342002577010E0,-4.56654802985460517E-1,1.75555437480670413E1));
#139=CARTESIAN_POINT('',(8.69804727801701105E0,-6.89736639386969053E-1,1.75555437480670413E1));
#140=(BOUNDED_CURVE()B_SPLINE_CURVE(2,(#137,#138,#139),.UNSPECIFIED.,.F.,.F.)B_SPLINE_CURVE_WITH_KNOTS((3,3),(0.00000000000000000E0,1.00000000000000000E0),.UNSPECIFIED.)CURVE()GEOMETRIC_REPRESENTATION_ITEM()RATIONAL_B_SPLINE_CURVE((1.00000000000000000E0,7.07106781186547573E-1,1.00000000000000000E0))REPRESENTATION_ITEM(''));
#141=CARTESIAN_POINT('',(8.79868848522805003E0,-3.82555459977356072E-1,1.76987606130921620E1));
#142=CARTESIAN_POINT('',(8.93221348484293820E0,-3.30766031466629529E-1,1.74938486086307918E1));
#143=CARTESIAN_POINT('',(9.02261734283417915E0,-5.63847867868138120E-1,1.74938486086307918E1));
#144=(BOUNDED_CURVE()B_SPLINE_CURVE(2,(#141,#142,#143),.UNSPECIFIED.,.F.,.F.)B_SPLINE_CURVE_WITH_KNOTS((3,3),(0.00000000000000000E0,1.00000000000000000E0),.UNSPECIFIED.)CURVE()GEOMETRIC_REPRESENTATION_ITEM()RATIONAL_B_SPLINE_CURVE((2.00000000000000000E0,1.00000000000000000E0,1.00000000000000000E0))REPRESENTATION_ITEM(''));
#145=CARTESIAN_POINT('',(8.69804727801701105E0,-6.89736639386969053E-1,1.75555437480670413E1));
#146=CARTESIAN_POINT('',(8.83157227763189923E0,-6.37947210876242510E-1,1.73506317436056712E1));
#147=CARTESIAN_POINT('',(9.02261734283417915E0,-5.63847867868138120E-1,1.74938486086307918E1));
#148=(BOUNDED_CURVE()B_SPLINE_CURVE(2,(#145,#146,#147),.UNSPECIFIED.,.F.,.F.)B_SPLINE_CURVE_WITH_KNOTS((3,3),(0.00000000000000000E0,1.00000000000000000E0),.UNSPECIFIED.)CURVE()GEOMETRIC_REPRESENTATION_ITEM()RATIONAL_B_SPLINE_CURVE((2.00000000000000000E0,1.00000000000000000E0,1.00000000000000000E0))REPRESENTATION_ITEM(''));
#149=CARTESIAN_POINT('',(1.62494460281170063E1,2.50731891733871937E0,2.32842183490718568E1));
#150=CARTESIAN_POINT('',(1.63829710277318945E1,2.55910834584944613E0,2.30793063446104867E1));
#151=CARTESIAN_POINT('',(1.64733748857231355E1,2.32602650944793732E0,2.30793063446104867E1));
#152=(BOUNDED_CURVE()B_SPLINE_CURVE(2,(#149,#150,#151),.UNSPECIFIED.,.F.,.F.)B_SPLINE_CURVE_WITH_KNOTS((3,3),(0.00000000000000000E0,1.00000000000000000E0),.UNSPECIFIED.)CURVE()GEOMETRIC_REPRESENTATION_ITEM()RATIONAL_B_SPLINE_CURVE((2.00000000000000000E0,1.00000000000000000E0,1.00000000000000000E0))REPRESENTATION_ITEM(''));
#153=CARTESIAN_POINT('',(1.15005668757454664E1,-7.91527356783373648E0,1.75555437480670413E1));
#154=CARTESIAN_POINT('',(1.16340918753603546E1,-7.86348413932300971E0,1.73506317436056712E1));
#155=CARTESIAN_POINT('',(1.18251369405626363E1,-7.78938479631490566E0,1.74938486086307918E1));
#156=(BOUNDED_CURVE()B_SPLINE_CURVE(2,(#153,#154,#155),.UNSPECIFIED.,.F.,.F.)B_SPLINE_CURVE_WITH_KNOTS((3,3),(0.00000000000000000E0,1.00000000000000000E0),.UNSPECIFIED.)CURVE()GEOMETRIC_REPRESENTATION_ITEM()RATIONAL_B_SPLINE_CURVE((2.00000000000000000E0,1.00000000000000000E0,1.00000000000000000E0))REPRESENTATION_ITEM(''));
#157=(GEOMETRIC_REPRESENTATION_CONTEXT(2)REPRESENTATION_CONTEXT('','2D'));
#158=CARTESIAN_POINT('',(0.00000000000000000E0,0.00000000000000000E0));
#159=CARTESIAN_POINT('',(1.00000000000000000E0,0.00000000000000000E0));
#160=B_SPLINE_CURVE_WITH_KNOTS('',1,(#158,#159),.UNSPECIFIED.,.F.,.F.,(2,2),(0.00000000000000000E0,1.00000000000000000E0),.UNSPECIFIED.);
#161=DEFINITIONAL_REPRESENTATION('',(#160),#157);
#162=PCURVE('',#31,#161);
#163=CARTESIAN_POINT('',(1.00000000000000000E0,0.00000000000000000E0));
#164=CARTESIAN_POINT('',(1.00000000000000000E0,9.74999999999999978E-1));
#165=B_SPLINE_CURVE_WITH_KNOTS('',1,(#163,#164),.UNSPECIFIED.,.F.,.F.,(2,2),(0.00000000000000000E0,1.00000000000000000E0),.UNSPECIFIED.);
#166=DEFINITIONAL_REPRESENTATION('',(#165),#157);
#167=PCURVE('',#31,#166);
#168=CARTESIAN_POINT('',(1.00000000000000000E0,9.74999999999999978E-1));
#169=CARTESIAN_POINT('',(1.00000000000000000E0,1.00000000000000000E0));
#170=CARTESIAN_POINT('',(9.68750000000000111E-1,1.00000000000000000E0));
#171=(BOUNDED_CURVE()B_SPLINE_CURVE(2,(#168,#169,#170),.UNSPECIFIED.,.F.,.F.)B_SPLINE_CURVE_WITH_KNOTS((3,3),(0.00000000000000000E0,1.00000000000000000E0),.UNSPECIFIED.)CURVE()GEOMETRIC_REPRESENTATION_ITEM()RATIONAL_B_SPLINE_CURVE((1.00000000000000000E0,7.07106781186547573E-1,1.00000000000000000E0))REPRESENTATION_ITEM(''));
#172=DEFINITIONAL_REPRESENTATION('',(#171),#157);
#173=PCURVE('',#31,#172);
#174=CARTESIAN_POINT('',(9.68750000000000111E-1,1.00000000000000000E0));
#175=CARTESIAN_POINT('',(0.00000000000000000E0,1.00000000000000000E0));
#176=B_SPLINE_CURVE_WITH_KNOTS('',1,(#174,#175),.UNSPECIFIED.,.F.,.F.,(2,2),(0.00000000000000000E0,1.00000000000000000E0),.UNSPECIFIED.);
#177=DEFINITIONAL_REPRESENTATION('',(#176),#157);
#178=PCURVE('',#31,#177);
#179=CARTESIAN_POINT('',(0.00000000000000000E0,1.00000000000000000E0));
#180=CARTESIAN_POINT('',(0.00000000000000000E0,0.00000000000000000E0));
#181=B_SPLINE_CURVE_WITH_KNOTS('',1,(#179,#180),.UNSPECIFIED.,.F.,.F.,(2,2),(0.00000000000000000E0,1.00000000000000000E0),.UNSPECIFIED.);
#182=DEFINITIONAL_REPRESENTATION('',(#181),#157);
#183=PCURVE('',#31,#182);
#184=CARTESIAN_POINT('',(1.00000000000000000E0,0.00000000000000000E0));
#185=CARTESIAN_POINT('',(1.00000000000000000E0,9.74999999999999978E-1));
#186=B_SPLINE_CURVE_WITH_KNOTS('',1,(#184,#185),.UNSPECIFIED.,.F.,.F.,(2,2),(0.00000000000000000E0,1.00000000000000000E0),.UNSPECIFIED.);
#187=DEFINITIONAL_REPRESENTATION('',(#186),#157);
#188=PCURVE('',#36,#187);
#189=CARTESIAN_POINT('',(1.00000000000000000E0,9.74999999999999978E-1));
#190=CARTESIAN_POINT('',(3.12499999999998890E-2,9.74999999999999978E-1));
#191=B_SPLINE_CURVE_WITH_KNOTS('',1,(#189,#190),.UNSPECIFIED.,.F.,.F.,(2,2),(0.00000000000000000E0,1.00000000000000000E0),.UNSPECIFIED.);
#192=DEFINITIONAL_REPRESENTATION('',(#191),#157);
#193=PCURVE('',#36,#192);
#194=CARTESIAN_POINT('',(3.12499999999998890E-2,9.74999999999999978E-1));
#195=CARTESIAN_POINT('',(3.12499999999998890E-2,0.00000000000000000E0));
#196=B_SPLINE_CURVE_WITH_KNOTS('',1,(#194,#195),.UNSPECIFIED.,.F.,.F.,(2,2),(0.00000000000000000E0,1.00000000000000000E0),.UNSPECIFIED.);
#197=DEFINITIONAL_REPRESENTATION('',(#196),#157);
#198=PCURVE('',#36,#197);
#199=CARTESIAN_POINT('',(3.12499999999998890E-2,0.00000000000000000E0));
#200=CARTESIAN_POINT('',(1.00000000000000000E0,0.00000000000000000E0));
#201=B_SPLINE_CURVE_WITH_KNOTS('',1,(#199,#200),.UNSPECIFIED.,.F.,.F.,(2,2),(0.00000000000000000E0,1.00000000000000000E0),.UNSPECIFIED.);
#202=DEFINITIONAL_REPRESENTATION('',(#201),#157);
#203=PCURVE('',#36,#202);
#204=CARTESIAN_POINT('',(0.00000000000000000E0,0.00000000000000000E0));
#205=CARTESIAN_POINT('',(1.00000000000000000E0,0.00000000000000000E0));
#206=B_SPLINE_CURVE_WITH_KNOTS('',1,(#204,#205),.UNSPECIFIED.,.F.,.F.,(2,2),(0.00000000000000000E0,1.00000000000000000E0),.UNSPECIFIED.);
#207=DEFINITIONAL_REPRESENTATION('',(#206),#157);
#208=PCURVE('',#41,#207);
#209=CARTESIAN_POINT('',(1.00000000000000000E0,0.00000000000000000E0));
#210=CARTESIAN_POINT('',(1.00000000000000000E0,9.58333333333333370E-1));
#211=B_SPLINE_CURVE_WITH_KNOTS('',1,(#209,#210),.UNSPECIFIED.,.F.,.F.,(2,2),(0.00000000000000000E0,1.00000000000000000E0),.UNSPECIFIED.);
#212=DEFINITIONAL_REPRESENTATION('',(#211),#157);
#213=PCURVE('',#41,#212);
#214=CARTESIAN_POINT('',(1.00000000000000000E0,9.58333333333333370E-1));
#215=CARTESIAN_POINT('',(1.00000000000000000E0,1.00000000000000000E0));
#216=CARTESIAN_POINT('',(9.74999999999999978E-1,1.00000000000000000E0));
#217=(BOUNDED_CURVE()B_SPLINE_CURVE(2,(#214,#215,#216),.UNSPECIFIED.,.F.,.F.)B_SPLINE_CURVE_WITH_KNOTS((3,3),(0.00000000000000000E0,1.00000000000000000E0),.UNSPECIFIED.)CURVE()GEOMETRIC_REPRESENTATION_ITEM()RATIONAL_B_SPLINE_CURVE((2.00000000000000000E0,1.00000000000000000E0,1.00000000000000000E0))REPRESENTATION_ITEM(''));
#218=DEFINITIONAL_REPRESENTATION('',(#217),#157);
#219=PCURVE('',#41,#218);
#220=CARTESIAN_POINT('',(9.74999999999999978E-1,1.00000000000000000E0));
#221=CARTESIAN_POINT('',(0.00000000000000000E0,1.00000000000000000E0));
#222=B_SPLINE_CURVE_WITH_KNOTS('',1,(#220,#221),.UNSPECIFIED.,.F.,.F.,(2,2),(0.00000000000000000E0,1.00000000000000000E0),.UNSPECIFIED.);
#223=DEFINITIONAL_REPRESENTATION('',(#222),#157);
#224=PCURVE('',#41,#223);
#225=CARTESIAN_POINT('',(0.00000000000000000E0,1.00000000000000000E0));
#226=CARTESIAN_POINT('',(0.00000000000000000E0,0.00000000000000000E0));
#227=B_SPLINE_CURVE_WITH_KNOTS('',1,(#225,#226),.UNSPECIFIED.,.F.,.F.,(2,2),(0.00000000000000000E0,1.00000000000000000E0),.UNSPECIFIED.);
#228=DEFINITIONAL_REPRESENTATION('',(#227),#157);
#229=PCURVE('',#41,#228);
#230=CARTESIAN_POINT('',(1.00000000000000000E0,0.00000000000000000E0));
#231=CARTESIAN_POINT('',(1.00000000000000000E0,1.00000000000000000E0));
#232=B_SPLINE_CURVE_WITH_KNOTS('',1,(#230,#231),.UNSPECIFIED.,.F.,.F.,(2,2),(0.00000000000000000E0,1.00000000000000000E0),.UNSPECIFIED.);
#233=DEFINITIONAL_REPRESENTATION('',(#232),#157);
#234=PCURVE('',#46,#233);
#235=CARTESIAN_POINT('',(1.00000000000000000E0,1.00000000000000000E0));
#236=CARTESIAN_POINT('',(3.12499999999998890E-2,1.00000000000000000E0));
#237=B_SPLINE_CURVE_WITH_KNOTS('',1,(#235,#236),.UNSPECIFIED.,.F.,.F.,(2,2),(0.00000000000000000E0,1.00000000000000000E0),.UNSPECIFIED.);
#238=DEFINITIONAL_REPRESENTATION('',(#237),#157);
#239=PCURVE('',#46,#238);
#240=CARTESIAN_POINT('',(3.12499999999998890E-2,1.00000000000000000E0));
#241=CARTESIAN_POINT('',(0.00000000000000000E0,1.00000000000000000E0));
#242=CARTESIAN_POINT('',(0.00000000000000000E0,9.58333333333333370E-1));
#243=(BOUNDED_CURVE()B_SPLINE_CURVE(2,(#240,#241,#242),.UNSPECIFIED.,.F.,.F.)B_SPLINE_CURVE_WITH_KNOTS((3,3),(0.00000000000000000E0,1.00000000000000000E0),.UNSPECIFIED.)CURVE()GEOMETRIC_REPRESENTATION_ITEM()RATIONAL_B_SPLINE_CURVE((1.00000000000000000E0,1.00000000000000000E0,2.00000000000000000E0))REPRESENTATION_ITEM(''));
#244=DEFINITIONAL_REPRESENTATION('',(#243),#157);
#245=PCURVE('',#46,#244);
#246=CARTESIAN_POINT('',(0.00000000000000000E0,9.58333333333333370E-1));
#247=CARTESIAN_POINT('',(0.00000000000000000E0,0.00000000000000000E0));
#248=B_SPLINE_CURVE_WITH_KNOTS('',1,(#246,#247),.UNSPECIFIED.,.F.,.F.,(2,2),(0.00000000000000000E0,1.00000000000000000E0),.UNSPECIFIED.);
#249=DEFINITIONAL_REPRESENTATION('',(#248),#157);
#250=PCURVE('',#46,#249);
#251=CARTESIAN_POINT('',(0.00000000000000000E0,0.00000000000000000E0));
#252=CARTESIAN_POINT('',(1.00000000000000000E0,0.00000000000000000E0));
#253=B_SPLINE_CURVE_WITH_KNOTS('',1,(#251,#252),.UNSPECIFIED.,.F.,.F.,(2,2),(0.00000000000000000E0,1.00000000000000000E0),.UNSPECIFIED.);
#254=DEFINITIONAL_REPRESENTATION('',(#253),#157);
#255=PCURVE('',#46,#254);
#256=CARTESIAN_POINT('',(1.00000000000000000E0,0.00000000000000000E0));
#257=CARTESIAN_POINT('',(1.00000000000000000E0,9.58333333333333370E-1));
#258=B_SPLINE_CURVE_WITH_KNOTS('',1,(#256,#257),.UNSPECIFIED.,.F.,.F.,(2,2),(0.00000000000000000E0,1.00000000000000000E0),.UNSPECIFIED.);
#259=DEFINITIONAL_REPRESENTATION('',(#258),#157);
#260=PCURVE('',#51,#259);
#261=CARTESIAN_POINT('',(1.00000000000000000E0,9.58333333333333370E-1));
#262=CARTESIAN_POINT('',(2.50000000000000222E-2,9.58333333333333370E-1));
#263=B_SPLINE_CURVE_WITH_KNOTS('',1,(#261,#262),.UNSPECIFIED.,.F.,.F.,(2,2),(0.00000000000000000E0,1.00000000000000000E0),.UNSPECIFIED.);
#264=DEFINITIONAL_REPRESENTATION('',(#263),#157);
#265=PCURVE('',#51,#264);
#266=CARTESIAN_POINT('',(2.50000000000000222E-2,9.58333333333333370E-1));
#267=CARTESIAN_POINT('',(2.50000000000000222E-2,0.00000000000000000E0));
#268=B_SPLINE_CURVE_WITH_KNOTS('',1,(#266,#267),.UNSPECIFIED.,.F.,.F.,(2,2),(0.00000000000000000E0,1.00000000000000000E0),.UNSPECIFIED.);
#269=DEFINITIONAL_REPRESENTATION('',(#268),#157);
#270=PCURVE('',#51,#269);
#271=CARTESIAN_POINT('',(2.50000000000000222E-2,0.00000000000000000E0));
#272=CARTESIAN_POINT('',(1.00000000000000000E0,0.00000000000000000E0));
#273=B_SPLINE_CURVE_WITH_KNOTS('',1,(#271,#272),.UNSPECIFIED.,.F.,.F.,(2,2),(0.00000000000000000E0,1.00000000000000000E0),.UNSPECIFIED.);
#274=DEFINITIONAL_REPRESENTATION('',(#273),#157);
#275=PCURVE('',#51,#274);
#276=CARTESIAN_POINT('',(0.00000000000000000E0,0.00000000000000000E0));
#277=CARTESIAN_POINT('',(9.68750000000000111E-1,0.00000000000000000E0));
#278=B_SPLINE_CURVE_WITH_KNOTS('',1,(#276,#277),.UNSPECIFIED.,.F.,.F.,(2,2),(0.00000000000000000E0,1.00000000000000000E0),.UNSPECIFIED.);
#279=DEFINITIONAL_REPRESENTATION('',(#278),#157);
#280=PCURVE('',#56,#279);
#281=CARTESIAN_POINT('',(9.68750000000000111E-1,0.00000000000000000E0));
#282=CARTESIAN_POINT('',(9.68750000000000111E-1,9.58333333333333370E-1));
#283=B_SPLINE_CURVE_WITH_KNOTS('',1,(#281,#282),.UNSPECIFIED.,.F.,.F.,(2,2),(0.00000000000000000E0,1.00000000000000000E0),.UNSPECIFIED.);
#284=DEFINITIONAL_REPRESENTATION('',(#283),#157);
#285=PCURVE('',#56,#284);
#286=CARTESIAN_POINT('',(9.68750000000000111E-1,9.58333333333333370E-1));
#287=CARTESIAN_POINT('',(0.00000000000000000E0,9.58333333333333370E-1));
#288=B_SPLINE_CURVE_WITH_KNOTS('',1,(#286,#287),.UNSPECIFIED.,.F.,.F.,(2,2),(0.00000000000000000E0,1.00000000000000000E0),.UNSPECIFIED.);
#289=DEFINITIONAL_REPRESENTATION('',(#288),#157);
#290=PCURVE('',#56,#289);
#291=CARTESIAN_POINT('',(0.00000000000000000E0,9.58333333333333370E-1));
#292=CARTESIAN_POINT('',(0.00000000000000000E0,0.00000000000000000E0));
#293=B_SPLINE_CURVE_WITH_KNOTS('',1,(#291,#292),.UNSPECIFIED.,.F.,.F.,(2,2),(0.00000000000000000E0,1.00000000000000000E0),.UNSPECIFIED.);
#294=DEFINITIONAL_REPRESENTATION('',(#293),#157);
#295=PCURVE('',#56,#294);
#296=CARTESIAN_POINT('',(1.00000000000000000E0,0.00000000000000000E0));
#297=CARTESIAN_POINT('',(1.00000000000000000E0,1.00000000000000000E0));
#298=B_SPLINE_CURVE_WITH_KNOTS('',1,(#296,#297),.UNSPECIFIED.,.F.,.F.,(2,2),(0.00000000000000000E0,1.00000000000000000E0),.UNSPECIFIED.);
#299=DEFINITIONAL_REPRESENTATION('',(#298),#157);
#300=PCURVE('',#63,#299);
#301=CARTESIAN_POINT('',(1.00000000000000000E0,1.00000000000000000E0));
#302=CARTESIAN_POINT('',(0.00000000000000000E0,1.00000000000000000E0));
#303=B_SPLINE_CURVE_WITH_KNOTS('',1,(#301,#302),.UNSPECIFIED.,.F.,.F.,(2,2),(0.00000000000000000E0,1.00000000000000000E0),.UNSPECIFIED.);
#304=DEFINITIONAL_REPRESENTATION('',(#303),#157);
#305=PCURVE('',#63,#304);
#306=CARTESIAN_POINT('',(0.00000000000000000E0,1.00000000000000000E0));
#307=CARTESIAN_POINT('',(0.00000000000000000E0,0.00000000000000000E0));
#308=B_SPLINE_CURVE_WITH_KNOTS('',1,(#306,#307),.UNSPECIFIED.,.F.,.F.,(2,2),(0.00000000000000000E0,1.00000000000000000E0),.UNSPECIFIED.);
#309=DEFINITIONAL_REPRESENTATION('',(#308),#157);
#310=PCURVE('',#63,#309);
#311=CARTESIAN_POINT('',(0.00000000000000000E0,0.00000000000000000E0));
#312=CARTESIAN_POINT('',(1.00000000000000000E0,0.00000000000000000E0));
#313=B_SPLINE_CURVE_WITH_KNOTS('',1,(#311,#312),.UNSPECIFIED.,.F.,.F.,(2,2),(0.00000000000000000E0,1.00000000000000000E0),.UNSPECIFIED.);
#314=DEFINITIONAL_REPRESENTATION('',(#313),#157);
#315=PCURVE('',#63,#314);
#316=CARTESIAN_POINT('',(0.00000000000000000E0,0.00000000000000000E0));
#317=CARTESIAN_POINT('',(1.00000000000000000E0,0.00000000000000000E0));
#318=B_SPLINE_CURVE_WITH_KNOTS('',1,(#316,#317),.UNSPECIFIED.,.F.,.F.,(2,2),(0.00000000000000000E0,1.00000000000000000E0),.UNSPECIFIED.);
#319=DEFINITIONAL_REPRESENTATION('',(#318),#157);
#320=PCURVE('',#70,#319);
#321=CARTESIAN_POINT('',(1.00000000000000000E0,0.00000000000000000E0));
#322=CARTESIAN_POINT('',(1.00000000000000000E0,1.00000000000000000E0));
#323=B_SPLINE_CURVE_WITH_KNOTS('',1,(#321,#322),.UNSPECIFIED.,.F.,.F.,(2,2),(0.00000000000000000E0,1.00000000000000000E0),.UNSPECIFIED.);
#324=DEFINITIONAL_REPRESENTATION('',(#323),#157);
#325=PCURVE('',#70,#324);
#326=CARTESIAN_POINT('',(1.00000000000000000E0,1.00000000000000000E0));
#327=CARTESIAN_POINT('',(0.00000000000000000E0,1.00000000000000000E0));
#328=B_SPLINE_CURVE_WITH_KNOTS('',1,(#326,#327),.UNSPECIFIED.,.F.,.F.,(2,2),(0.00000000000000000E0,1.00000000000000000E0),.UNSPECIFIED.);
#329=DEFINITIONAL_REPRESENTATION('',(#328),#157);
#330=PCURVE('',#70,#329);
#331=CARTESIAN_POINT('',(0.00000000000000000E0,1.00000000000000000E0));
#332=CARTESIAN_POINT('',(0.00000000000000000E0,0.00000000000000000E0));
#333=B_SPLINE_CURVE_WITH_KNOTS('',1,(#331,#332),.UNSPECIFIED.,.F.,.F.,(2,2),(0.00000000000000000E0,1.00000000000000000E0),.UNSPECIFIED.);
#334=DEFINITIONAL_REPRESENTATION('',(#333),#157);
#335=PCURVE('',#70,#334);
#336=CARTESIAN_POINT('',(1.00000000000000000E0,0.00000000000000000E0));
#337=CARTESIAN_POINT('',(1.00000000000000000E0,1.00000000000000000E0));
#338=B_SPLINE_CURVE_WITH_KNOTS('',1,(#336,#337),.UNSPECIFIED.,.F.,.F.,(2,2),(0.00000000000000000E0,1.00000000000000000E0),.UNSPECIFIED.);
#339=DEFINITIONAL_REPRESENTATION('',(#338),#157);
#340=PCURVE('',#77,#339);
#341=CARTESIAN_POINT('',(1.00000000000000000E0,1.00000000000000000E0));
#342=CARTESIAN_POINT('',(0.00000000000000000E0,1.00000000000000000E0));
#343=B_SPLINE_CURVE_WITH_KNOTS('',1,(#341,#342),.UNSPECIFIED.,.F.,.F.,(2,2),(0.00000000000000000E0,1.00000000000000000E0),.UNSPECIFIED.);
#344=DEFINITIONAL_REPRESENTATION('',(#343),#157);
#345=PCURVE('',#77,#344);
#346=CARTESIAN_POINT('',(0.00000000000000000E0,1.00000000000000000E0));
#347=CARTESIAN_POINT('',(0.00000000000000000E0,0.00000000000000000E0));
#348=B_SPLINE_CURVE_WITH_KNOTS('',1,(#346,#347),.UNSPECIFIED.,.F.,.F.,(2,2),(0.00000000000000000E0,1.00000000000000000E0),.UNSPECIFIED.);
#349=DEFINITIONAL_REPRESENTATION('',(#348),#157);
#350=PCURVE('',#77,#349);
#351=CARTESIAN_POINT('',(0.00000000000000000E0,0.00000000000000000E0));
#352=CARTESIAN_POINT('',(1.00000000000000000E0,0.00000000000000000E0));
#353=B_SPLINE_CURVE_WITH_KNOTS('',1,(#351,#352),.UNSPECIFIED.,.F.,.F.,(2,2),(0.00000000000000000E0,1.00000000000000000E0),.UNSPECIFIED.);
#354=DEFINITIONAL_REPRESENTATION('',(#353),#157);
#355=PCURVE('',#77,#354);
#356=CARTESIAN_POINT('',(1.00000000000000000E0,0.00000000000000000E0));
#357=CARTESIAN_POINT('',(1.00000000000000000E0,1.00000000000000000E0));
#358=B_SPLINE_CURVE_WITH_KNOTS('',1,(#356,#357),.UNSPECIFIED.,.F.,.F.,(2,2),(0.00000000000000000E0,1.00000000000000000E0),.UNSPECIFIED.);
#359=DEFINITIONAL_REPRESENTATION('',(#358),#157);
#360=PCURVE('',#87,#359);
#361=CARTESIAN_POINT('',(1.00000000000000000E0,1.00000000000000000E0));
#362=CARTESIAN_POINT('',(0.00000000000000000E0,1.00000000000000000E0));
#363=CARTESIAN_POINT('',(0.00000000000000000E0,0.00000000000000000E0));
#364=(BOUNDED_CURVE()B_SPLINE_CURVE(2,(#361,#362,#363),.UNSPECIFIED.,.F.,.F.)B_SPLINE_CURVE_WITH_KNOTS((3,3),(0.00000000000000000E0,1.00000000000000000E0),.UNSPECIFIED.)CURVE()GEOMETRIC_REPRESENTATION_ITEM()RATIONAL_B_SPLINE_CURVE((1.00000000000000000E0,7.07106781186547573E-1,1.00000000000000000E0))REPRESENTATION_ITEM(''));
#365=DEFINITIONAL_REPRESENTATION('',(#364),#157);
#366=PCURVE('',#87,#365);
#367=CARTESIAN_POINT('',(0.00000000000000000E0,0.00000000000000000E0));
#368=CARTESIAN_POINT('',(1.00000000000000000E0,0.00000000000000000E0));
#369=B_SPLINE_CURVE_WITH_KNOTS('',1,(#367,#368),.UNSPECIFIED.,.F.,.F.,(2,2),(0.00000000000000000E0,1.00000000000000000E0),.UNSPECIFIED.);
#370=DEFINITIONAL_REPRESENTATION('',(#369),#157);
#371=PCURVE('',#87,#370);
#372=SURFACE_CURVE('',#90,(#162,#255),.PCURVE_S1.);
#373=EDGE_CURVE('OSCAD_TOPO/3|edge|e:d84680d7ed5f55fd8e4a5b090b861101|eac3df73ffc9fbf1a16fd3582f69d0dc297a1946e25329684f57930d6bbbad19',#2,#4,#372,.T.);
#374=SURFACE_CURVE('',#93,(#167,#275),.PCURVE_S1.);
#375=EDGE_CURVE('OSCAD_TOPO/3|edge|e:90e6863f3757d252483407cab8d504a2|e77dd2196f5d1b6192ef20426f69c6fc3355312a2fea084219d6b8904f9d4e14',#4,#10,#374,.T.);
#376=SURFACE_CURVE('',#96,(#178,#280),.PCURVE_S1.);
#377=EDGE_CURVE('OSCAD_TOPO/3|edge|e:8cce7dddc6708a8d6ec252457815fe19|29c2a89608bcd7fcdc1567e55e3cc32205f31ea60fa00d6593468e65445fa893',#6,#12,#376,.T.);
#378=SURFACE_CURVE('',#99,(#183,#208),.PCURVE_S1.);
#379=EDGE_CURVE('OSCAD_TOPO/3|edge|e:f3c0505c9dc56d77fe4e6154ce194795|fe863c9a5c1b61d1017dbf33998d5323cd8a7dfbab9bfb1c9d2036aa09aedb3b',#2,#6,#378,.T.);
#380=SURFACE_CURVE('',#102,(#229,#234),.PCURVE_S1.);
#381=EDGE_CURVE('OSCAD_TOPO/3|edge|e:9879fa0df84e50f080904a956fe4ec67|3838d1d50d719b0f97a789c1d12a911aa06aa22e6410d30798de3fd349937d5f',#2,#8,#380,.T.);
#382=SURFACE_CURVE('',#105,(#250,#260),.PCURVE_S1.);
#383=EDGE_CURVE('OSCAD_TOPO/3|edge|e:efeef00183cbbd9e22924dbdab5d9988|8127d305578d59c3aa52e880b9b48bbd66f0a86d2f9d59d6a0c65dd2341cd5bd',#4,#20,#382,.T.);
#384=SURFACE_CURVE('',#108,(#265,#335),.PCURVE_S1.);
#385=EDGE_CURVE('OSCAD_TOPO/3|edge|e:86351e45a6fa34705b075e2e9bdf4a6f|d358b7ce332769d8c1b50466217485a9e66c053857640df86cf9bad6a8365a6f',#14,#20,#384,.T.);
#386=SURFACE_CURVE('',#111,(#270,#300),.PCURVE_S1.);
#387=EDGE_CURVE('OSCAD_TOPO/3|edge|e:350662cb00787237ea460c7b8a8dba2e|ba4574c92e3491aea0178f709a69095fc96df4d32a2985438b46bea4ed54db1d',#10,#14,#386,.T.);
#388=SURFACE_CURVE('',#114,(#285,#310),.PCURVE_S1.);
#389=EDGE_CURVE('OSCAD_TOPO/3|edge|e:7801143b3d55f2cf6f653c96beeb4bac|8ed5c430a3650a43779a30e5842104dab6dd933b2b532532704f18a83b84086b',#12,#16,#388,.T.);
#390=SURFACE_CURVE('',#117,(#213,#295),.PCURVE_S1.);
#391=EDGE_CURVE('OSCAD_TOPO/3|edge|e:9570f33b45640038210485f25bcc4356|7f8ca5d1fe42b29ee0954e388e376c12aa90a5c20b281480b1c3e66ba9678775',#6,#24,#390,.T.);
#392=SURFACE_CURVE('',#120,(#290,#340),.PCURVE_S1.);
#393=EDGE_CURVE('OSCAD_TOPO/3|edge|e:26eb3b784d7b034ce7230b1f0552d39c|3cd3b359243612eb8a7b20d44ea5d1017ba2699ccc1cafefa40f0e13e02f3b71',#16,#24,#392,.T.);
#394=SURFACE_CURVE('',#123,(#203,#239),.PCURVE_S1.);
#395=EDGE_CURVE('OSCAD_TOPO/3|edge|e:ad3728ccdf89c308b8d2a72c09609d82|3c962ae4c498cdae3842386cc035f405e76744a927c78dd64d5461c39bb1de95',#8,#22,#394,.T.);
#396=SURFACE_CURVE('',#126,(#198,#325),.PCURVE_S1.);
#397=EDGE_CURVE('OSCAD_TOPO/3|edge|e:d44cc314a276c5d4e9bbcf1fc5bbd37d|943476ce95297ddf28cab8bbf6d8be9b462a187fc0119e41d5e71aa814298b83',#18,#22,#396,.T.);
#398=SURFACE_CURVE('',#129,(#188,#224),.PCURVE_S1.);
#399=EDGE_CURVE('OSCAD_TOPO/3|edge|e:d15be0f794e761e792378fe99a93305f|b7744d68b2c8598813a36cbe13203cb8000c5a9903dd3aee62dd43cc4aaee110',#8,#26,#398,.T.);
#400=SURFACE_CURVE('',#132,(#193,#350),.PCURVE_S1.);
#401=EDGE_CURVE('OSCAD_TOPO/3|edge|e:93f1eab5babc091102f3a691d63aead8|7d1968af91c17f3ea6a869afd80004a2a5db358ddef965fc7481d387c63e1e7e',#18,#26,#400,.T.);
#402=SURFACE_CURVE('',#136,(#173,#315),.PCURVE_S1.);
#403=EDGE_CURVE('OSCAD_TOPO/3|edge|e:d498247d0dbd694888c9773c4a73cb65|fa44f9625459bd3adc3b3f416699e412f01b87055fb8742987709cb0fe3c657d',#10,#12,#402,.T.);
#404=SURFACE_CURVE('',#140,(#305,#366),.PCURVE_S1.);
#405=EDGE_CURVE('OSCAD_TOPO/3|edge|e:efbba85dc2ce2c7e62ffd6387f6c067a|233125bfd1f3780e4638aaa4f767b411f25660a9425d5ad44f931c6eeda86376',#14,#16,#404,.T.);
#406=SURFACE_CURVE('',#144,(#330,#371),.PCURVE_S1.);
#407=EDGE_CURVE('OSCAD_TOPO/3|edge|e:70123c50ce3716143d2b2df309c3e68b|8351d4b10c1a263c4c3ce67846027fbb10781c3626acedc664109273c164bcc5',#14,#18,#406,.T.);
#408=SURFACE_CURVE('',#148,(#345,#360),.PCURVE_S1.);
#409=EDGE_CURVE('OSCAD_TOPO/3|edge|e:480283a92e24b022a8507c75b725d8dd|bf88a8452e84a572f0c5d843e435040912aeebd56cdb7bb6d0b08758f8974f88',#16,#18,#408,.T.);
#410=SURFACE_CURVE('',#152,(#245,#320),.PCURVE_S1.);
#411=EDGE_CURVE('OSCAD_TOPO/3|edge|e:a4a162a3b6052002f93155a457a2803e|47d8a72c4e2e151be612537a8544d6c60e887c1478037a352bcf21e8e35117bc',#20,#22,#410,.T.);
#412=SURFACE_CURVE('',#156,(#219,#355),.PCURVE_S1.);
#413=EDGE_CURVE('OSCAD_TOPO/3|edge|e:4425fd32f98caec493f9fe675d1686b4|f477d8f12bc9f71173cf6a3492e9af28168191ef2ff794eb16b03eee75de444b',#24,#26,#412,.T.);
#414=ORIENTED_EDGE('',*,*,#373,.T.);
#415=ORIENTED_EDGE('',*,*,#375,.T.);
#416=ORIENTED_EDGE('',*,*,#403,.T.);
#417=ORIENTED_EDGE('',*,*,#377,.F.);
#418=ORIENTED_EDGE('',*,*,#379,.F.);
#419=EDGE_LOOP('OSCAD_TOPO/3|loop|l:6555b479a491330d80857a92c58b1c44|e07307430f33c3fca69197d88bcd239504fc6e2d1ee336a825bd5d8e8f78f786',(#414,#415,#416,#417,#418));
#420=ORIENTED_EDGE('',*,*,#399,.T.);
#421=ORIENTED_EDGE('',*,*,#401,.F.);
#422=ORIENTED_EDGE('',*,*,#397,.T.);
#423=ORIENTED_EDGE('',*,*,#395,.F.);
#424=EDGE_LOOP('OSCAD_TOPO/3|loop|l:9cb19df30d2ba4b02d2c24dbaca90ae6|ef52c428cbcaeb8ffbc237592221fe56f90e82ebb8e95c448b03f4c3b461f30e',(#420,#421,#422,#423));
#425=ORIENTED_EDGE('',*,*,#379,.T.);
#426=ORIENTED_EDGE('',*,*,#391,.T.);
#427=ORIENTED_EDGE('',*,*,#413,.T.);
#428=ORIENTED_EDGE('',*,*,#399,.F.);
#429=ORIENTED_EDGE('',*,*,#381,.F.);
#430=EDGE_LOOP('OSCAD_TOPO/3|loop|l:3a5e4753927f6f32888b3181e42dc648|6253a108cf2331be1f3ca35d1995588072c77d54b98ecdabd55d8aa9b0ca2007',(#425,#426,#427,#428,#429));
#431=ORIENTED_EDGE('',*,*,#381,.T.);
#432=ORIENTED_EDGE('',*,*,#395,.T.);
#433=ORIENTED_EDGE('',*,*,#411,.F.);
#434=ORIENTED_EDGE('',*,*,#383,.F.);
#435=ORIENTED_EDGE('',*,*,#373,.F.);
#436=EDGE_LOOP('OSCAD_TOPO/3|loop|l:66d2dbe33421f00cfbe9362137013820|ef57b875d2c5d2bc7fa60f1502237ae3feafd99b45fa765cfa80c1aaba227e3c',(#431,#432,#433,#434,#435));
#437=ORIENTED_EDGE('',*,*,#383,.T.);
#438=ORIENTED_EDGE('',*,*,#385,.F.);
#439=ORIENTED_EDGE('',*,*,#387,.F.);
#440=ORIENTED_EDGE('',*,*,#375,.F.);
#441=EDGE_LOOP('OSCAD_TOPO/3|loop|l:91b60d8dba5460d5351d4d358e22b13d|708d01e09afccd23f3501249f2d970910572720eb477369d41dc0d0e91e0bb3c',(#437,#438,#439,#440));
#442=ORIENTED_EDGE('',*,*,#377,.T.);
#443=ORIENTED_EDGE('',*,*,#389,.T.);
#444=ORIENTED_EDGE('',*,*,#393,.T.);
#445=ORIENTED_EDGE('',*,*,#391,.F.);
#446=EDGE_LOOP('OSCAD_TOPO/3|loop|l:ee7bc5ef9321da6bd1c796b5a0a9e300|79a5595e32b94b66e9d3c599f82d4cc434f200672bce84d3e5e386fb7b1fd1da',(#442,#443,#444,#445));
#447=ORIENTED_EDGE('',*,*,#387,.T.);
#448=ORIENTED_EDGE('',*,*,#405,.T.);
#449=ORIENTED_EDGE('',*,*,#389,.F.);
#450=ORIENTED_EDGE('',*,*,#403,.F.);
#451=EDGE_LOOP('OSCAD_TOPO/3|loop|l:5491f2d50cf053f1c25314654ee8252c|a57fe49bf2658383cb4cb86a1ded97ad1026f542b100d954330735484343d335',(#447,#448,#449,#450));
#452=ORIENTED_EDGE('',*,*,#411,.T.);
#453=ORIENTED_EDGE('',*,*,#397,.F.);
#454=ORIENTED_EDGE('',*,*,#407,.F.);
#455=ORIENTED_EDGE('',*,*,#385,.T.);
#456=EDGE_LOOP('OSCAD_TOPO/3|loop|l:b61290e7ddc8af7b595ce8b0be128b07|20411d87baca31c49142a7a20609c9b0d7334445e8c7df7b95262355b8e2b3f4',(#452,#453,#454,#455));
#457=ORIENTED_EDGE('',*,*,#393,.F.);
#458=ORIENTED_EDGE('',*,*,#409,.T.);
#459=ORIENTED_EDGE('',*,*,#401,.T.);
#460=ORIENTED_EDGE('',*,*,#413,.F.);
#461=EDGE_LOOP('OSCAD_TOPO/3|loop|l:1920fb7a18881912f5dfc7368c0ae4c9|cf31257d6bee4ae4bc9d3ae4defd9a34ed098275029a435e1690c6a5bf8bd38c',(#457,#458,#459,#460));
#462=ORIENTED_EDGE('',*,*,#409,.F.);
#463=ORIENTED_EDGE('',*,*,#405,.F.);
#464=ORIENTED_EDGE('',*,*,#407,.T.);
#465=EDGE_LOOP('OSCAD_TOPO/3|loop|l:bf2ae61bffd99b4887adbd60c7626412|2147a1443413a55fba44f8a8deea85bd89a2ca4517aa52a19ce439d7b53d4141',(#462,#463,#464));
#466=FACE_OUTER_BOUND('',#419,.T.);
#467=ADVANCED_FACE('OSCAD_TOPO/3|face|f:f7404838bcf61c10406f4a288f87731a|9a8aff16cad4486fced4d2662438eed1f0c41ca7e53de978022938fe22a2b68f',(#466),#31,.T.);
#468=FACE_OUTER_BOUND('',#424,.T.);
#469=ADVANCED_FACE('OSCAD_TOPO/3|face|f:4e665136ad76ceeb0e461482c93decbd|47138144d613274fafba8172d8a462e2a787fd90559606ba2aad928ca715a161',(#468),#36,.T.);
#470=FACE_OUTER_BOUND('',#430,.T.);
#471=ADVANCED_FACE('OSCAD_TOPO/3|face|f:b8cb0f887699c93c2f246a48b4204bc8|cf66b79c0facfb267fcc366c379c4a7f7d58298e31d4552cc1e053efd77152e9',(#470),#41,.T.);
#472=FACE_OUTER_BOUND('',#436,.T.);
#473=ADVANCED_FACE('OSCAD_TOPO/3|face|f:02232c96af417eb7ac949f1746306bd5|3e75d9a76f114f82aa69e3c8acbbe946e4cf5c8e996d0c04b0d2a46a2f7922ee',(#472),#46,.T.);
#474=FACE_OUTER_BOUND('',#441,.T.);
#475=ADVANCED_FACE('OSCAD_TOPO/3|face|f:3a85b2f9ed1fba3298dc85e864acda49|a7d041cb87602ba2a44c3f9bcab6cbd8e78f6a8a92b7e31a55452d7fdb9acd29',(#474),#51,.T.);
#476=FACE_OUTER_BOUND('',#446,.T.);
#477=ADVANCED_FACE('OSCAD_TOPO/3|face|f:260d6f2244661727d1445f9d1c5aef40|1009f805d66ca34a42a2e61e00eb0c2d4936eaa9f32289cd4b61c39b8c091b15',(#476),#56,.T.);
#478=FACE_OUTER_BOUND('',#451,.T.);
#479=ADVANCED_FACE('OSCAD_TOPO/3|face|f:c1288dc37176a7f308d3708e43ee4ac2|106515547bd93c747d3b784ebc6dd85feb890813e644737685906c30a70af70b',(#478),#63,.T.);
#480=FACE_OUTER_BOUND('',#456,.T.);
#481=ADVANCED_FACE('OSCAD_TOPO/3|face|f:e4fd13f0d49c4f1a8b6f3bf9955876d6|3fe242cfdba176cc1ccc6186bf9c314ee837a1adad3aab7879cf1f5233038a9e',(#480),#70,.T.);
#482=FACE_OUTER_BOUND('',#461,.T.);
#483=ADVANCED_FACE('OSCAD_TOPO/3|face|f:81b1ba68d5665bbf77f25c4cf422b03c|7a934a3afaccd5547efcfd7c63ec55b002ee39e7df6f023be621000fdfefc7f8',(#482),#77,.T.);
#484=FACE_OUTER_BOUND('',#465,.T.);
#485=ADVANCED_FACE('OSCAD_TOPO/3|face|f:53cfe283f7f2b8bc314a0e67554af30d|7fb61b81ef0ba552e7a419cddff1761984580f249865c239e0d9d254e1b52f6a',(#484),#87,.T.);
#486=CLOSED_SHELL('OSCAD_TOPO/3|shell|s:5190643e14ddcf4cf3504947699c777a|560dc90e1a0d7eb94d92ba2a803b9e715032213c6d88a091ea1702cea39c986a',(#467,#469,#471,#473,#475,#477,#479,#481,#483,#485));
#487=MANIFOLD_SOLID_BREP('OSCAD_TOPO/3|body|b:d7d7963ab184044ab0655e62767356a8|008be61c119ab4cf2a91857c041b943fd856c55e9cebfffa8dd4aa6a78d4d27f',#486);
#488=(LENGTH_UNIT()NAMED_UNIT(*)SI_UNIT(.MILLI.,.METRE.));
#489=UNCERTAINTY_MEASURE_WITH_UNIT(LENGTH_MEASURE(9.99999999999999955E-8),#488,'distance_accuracy_value','');
#490=(GEOMETRIC_REPRESENTATION_CONTEXT(3)GLOBAL_UNCERTAINTY_ASSIGNED_CONTEXT((#489))GLOBAL_UNIT_ASSIGNED_CONTEXT((#488))REPRESENTATION_CONTEXT('','3D'));
#491=ADVANCED_BREP_SHAPE_REPRESENTATION('',(#487),#490);
#492=APPLICATION_CONTEXT('managed model based 3d engineering');
#493=PRODUCT_CONTEXT('',#492,'mechanical');
#494=PRODUCT('model','model','',(#493));
#495=PRODUCT_DEFINITION_FORMATION('1','',#494);
#496=PRODUCT_DEFINITION_CONTEXT('part definition',#492,'design');
#497=PRODUCT_DEFINITION('design','',#495,#496);
#498=PRODUCT_DEFINITION_SHAPE('','',#497);
#499=SHAPE_DEFINITION_REPRESENTATION(#498,#491);
ENDSEC;
END-ISO-10303-21;
