ISO-10303-21;
HEADER;
FILE_DESCRIPTION(('OpenSCAD Viewer retained AP242 B-rep'),'2;1');
FILE_NAME('model.step','',(''),(''),'OpenSCAD Viewer','OpenSCAD Viewer','');
FILE_SCHEMA(('AP242_MANAGED_MODEL_BASED_3D_ENGINEERING_MIM_LF'));
ENDSEC;
DATA;
#1=CARTESIAN_POINT('',(2.39909881545610553E1,1.51503678550617948E0,2.68157680776272045E1));
#2=VERTEX_POINT('OSCAD_TOPO/3|vertex|v:0ca60f79a81da3827315e3263a6f90bc|05bbcf72b4bb24b49ae4e385f8372097b3334130678d8bd9f28507900f656912',#1);
#3=CARTESIAN_POINT('',(2.70521984266857096E1,-4.49950565951950665E0,1.94364543665275740E1));
#4=VERTEX_POINT('OSCAD_TOPO/3|vertex|v:9527e1e2b4bc6d4c39d5118c4f4127d8|e32b1deb6582b1a3d80ba5c89c5a78bd431472c9b14f0cbd978ebea6f79ef31b',#3);
#5=CARTESIAN_POINT('',(1.68613292740695684E1,-2.11373218589844036E0,2.68157680776272045E1));
#6=VERTEX_POINT('OSCAD_TOPO/3|vertex|v:6d6b94d05b4bfed2127c5a6775d18b21|8bb505fb92e64c0501cf498624e60697b8b217cec8f7d9ad008571c2b66163cc',#5);
#7=CARTESIAN_POINT('',(2.59993250014434807E1,-2.43086242941437192E0,3.08650226380548034E1));
#8=VERTEX_POINT('OSCAD_TOPO/3|vertex|v:826587da8f285687e12e382ac854b49a|8649fc52623493d4c0d5baa2697260f63f1a9fa04d9fa2f6b3ecfdb4d5e20dc4',#7);
#9=CARTESIAN_POINT('',(2.21505579463478135E1,-6.99428432736018380E0,1.94364543665275740E1));
#10=VERTEX_POINT('OSCAD_TOPO/3|vertex|v:1e87fbb473128f5168d498ff4bbbcdce|f2242771a0b9cd83ce08f5f3436ad1409e782ee7a83c22643980a498d9147729',#9);
#11=CARTESIAN_POINT('',(1.91572369781630591E1,-6.62463901966770496E0,2.12812827943024807E1));
#12=VERTEX_POINT('OSCAD_TOPO/3|vertex|v:859c2a7ade4ccfede8258efd692c688d|601a787ed539a99f064bc2bf1be4d8b8f34180007a2dab57d32da6b875decefd',#11);
#13=CARTESIAN_POINT('',(2.33220877736958947E1,-9.29605886939717152E0,2.17985195267770102E1));
#14=VERTEX_POINT('OSCAD_TOPO/3|vertex|v:12296f87bb8cf2b19c4a7e5723e9f1a8|05900a25bf6ff1f0f7d0be48438e4261276d5846bda912d95f19061e0f7417f1',#13);
#15=CARTESIAN_POINT('',(2.03287668055111439E1,-8.92641356170469358E0,2.36433479545519170E1));
#16=VERTEX_POINT('OSCAD_TOPO/3|vertex|v:3a251c9b9fd86a3c1c599c9f0afa8519|0e2ac86c926f1d32d5a48ffb37cb306f9c18ee6a3a0bf7343e359aea652d2a78',#15);
#17=CARTESIAN_POINT('',(2.33935922251990753E1,-9.43654793102431455E0,2.53305373547300832E1));
#18=VERTEX_POINT('OSCAD_TOPO/3|vertex|v:e1ddea38dc64f787e4453e27bde17c2c|a00fd2ebac6e05040e22ab202300113673b704b2e6e4419a5136a3b78926a291',#17);
#19=CARTESIAN_POINT('',(2.82237282540337908E1,-6.80128020155649526E0,2.17985195267770102E1));
#20=VERTEX_POINT('OSCAD_TOPO/3|vertex|v:4f66b49b31586fae5195b5d92d4c9a4d|18ab1417d2ff02c39277225ba6908512b56671bb7ff9f8e069a5a4625410692a',#19);
#21=CARTESIAN_POINT('',(2.82952327055369715E1,-6.94176926318363741E0,2.53305373547300832E1));
#22=VERTEX_POINT('OSCAD_TOPO/3|vertex|v:a9d7656690b3f3f486f0875482a5b9da|b08581fbff41fafb3b5554d2fcffe15e2823f304c1ce859d58cfe6756bae563d',#21);
#23=CARTESIAN_POINT('',(1.80328591014176496E1,-4.41550672793542809E0,2.91778332378766372E1));
#24=VERTEX_POINT('OSCAD_TOPO/3|vertex|v:81e7ce5e139aca9c518d92b597cf2731|bb7df693809797284c2a3a8df63d0171a3573981ad78f2c8aab1c967dfbb5a42',#23);
#25=CARTESIAN_POINT('',(2.10976845211055846E1,-4.92564109725504817E0,3.08650226380548034E1));
#26=VERTEX_POINT('OSCAD_TOPO/3|vertex|v:9abd671f55c3f3c1b59fe81bde8bbbac|812ed2e5bb33fb58f838f38b9ec383dbcd0e38aeecf86ab65cc7b7b375948edb',#25);
#27=CARTESIAN_POINT('',(2.39909881545610553E1,1.51503678550617948E0,2.68157680776272045E1));
#28=CARTESIAN_POINT('',(1.68613292740695684E1,-2.11373218589844036E0,2.68157680776272045E1));
#29=CARTESIAN_POINT('',(2.70521984266857096E1,-4.49950565951950665E0,1.94364543665275740E1));
#30=CARTESIAN_POINT('',(1.99225395461942227E1,-8.12827463092412650E0,1.94364543665275740E1));
#31=B_SPLINE_SURFACE_WITH_KNOTS('',1,1,((#27,#28),(#29,#30)),.UNSPECIFIED.,.F.,.F.,.F.,(2,2),(2,2),(0.00000000000000000E0,1.00000000000000000E0),(0.00000000000000000E0,1.00000000000000000E0),.UNSPECIFIED.);
#32=CARTESIAN_POINT('',(2.90605352735681350E1,-8.44540487444005805E0,2.34857089269551764E1));
#33=CARTESIAN_POINT('',(2.19308763930766482E1,-1.20741738458446779E1,2.34857089269551764E1));
#34=CARTESIAN_POINT('',(2.59993250014434807E1,-2.43086242941437192E0,3.08650226380548034E1));
#35=CARTESIAN_POINT('',(1.88696661209519938E1,-6.05963140081899176E0,3.08650226380548034E1));
#36=B_SPLINE_SURFACE_WITH_KNOTS('',1,1,((#32,#33),(#34,#35)),.UNSPECIFIED.,.F.,.F.,.F.,(2,2),(2,2),(0.00000000000000000E0,1.00000000000000000E0),(0.00000000000000000E0,1.00000000000000000E0),.UNSPECIFIED.);
#37=CARTESIAN_POINT('',(2.39909881545610553E1,1.51503678550617948E0,2.68157680776272045E1));
#38=CARTESIAN_POINT('',(2.59993250014434807E1,-2.43086242941437192E0,3.08650226380548034E1));
#39=CARTESIAN_POINT('',(1.68613292740695684E1,-2.11373218589844036E0,2.68157680776272045E1));
#40=CARTESIAN_POINT('',(1.88696661209519938E1,-6.05963140081899176E0,3.08650226380548034E1));
#41=B_SPLINE_SURFACE_WITH_KNOTS('',1,1,((#37,#38),(#39,#40)),.UNSPECIFIED.,.F.,.F.,.F.,(2,2),(2,2),(0.00000000000000000E0,1.00000000000000000E0),(0.00000000000000000E0,1.00000000000000000E0),.UNSPECIFIED.);
#42=CARTESIAN_POINT('',(2.70521984266857096E1,-4.49950565951950665E0,1.94364543665275740E1));
#43=CARTESIAN_POINT('',(2.90605352735681350E1,-8.44540487444005805E0,2.34857089269551764E1));
#44=CARTESIAN_POINT('',(2.39909881545610553E1,1.51503678550617948E0,2.68157680776272045E1));
#45=CARTESIAN_POINT('',(2.59993250014434807E1,-2.43086242941437192E0,3.08650226380548034E1));
#46=B_SPLINE_SURFACE_WITH_KNOTS('',1,1,((#42,#43),(#44,#45)),.UNSPECIFIED.,.F.,.F.,.F.,(2,2),(2,2),(0.00000000000000000E0,1.00000000000000000E0),(0.00000000000000000E0,1.00000000000000000E0),.UNSPECIFIED.);
#47=CARTESIAN_POINT('',(1.99225395461942227E1,-8.12827463092412650E0,1.94364543665275740E1));
#48=CARTESIAN_POINT('',(2.19308763930766482E1,-1.20741738458446779E1,2.34857089269551764E1));
#49=CARTESIAN_POINT('',(2.70521984266857096E1,-4.49950565951950665E0,1.94364543665275740E1));
#50=CARTESIAN_POINT('',(2.90605352735681350E1,-8.44540487444005805E0,2.34857089269551764E1));
#51=B_SPLINE_SURFACE_WITH_KNOTS('',1,1,((#47,#48),(#49,#50)),.UNSPECIFIED.,.F.,.F.,.F.,(2,2),(2,2),(0.00000000000000000E0,1.00000000000000000E0),(0.00000000000000000E0,1.00000000000000000E0),.UNSPECIFIED.);
#52=CARTESIAN_POINT('',(1.68613292740695684E1,-2.11373218589844036E0,2.68157680776272045E1));
#53=CARTESIAN_POINT('',(1.88696661209519938E1,-6.05963140081899176E0,3.08650226380548034E1));
#54=CARTESIAN_POINT('',(1.99225395461942227E1,-8.12827463092412650E0,1.94364543665275740E1));
#55=CARTESIAN_POINT('',(2.19308763930766482E1,-1.20741738458446779E1,2.34857089269551764E1));
#56=B_SPLINE_SURFACE_WITH_KNOTS('',1,1,((#52,#53),(#54,#55)),.UNSPECIFIED.,.F.,.F.,.F.,(2,2),(2,2),(0.00000000000000000E0,1.00000000000000000E0),(0.00000000000000000E0,1.00000000000000000E0),.UNSPECIFIED.);
#57=CARTESIAN_POINT('',(1.91572369781630591E1,-6.62463901966770496E0,2.12812827943024807E1));
#58=CARTESIAN_POINT('',(2.03287668055111439E1,-8.92641356170469358E0,2.36433479545519170E1));
#59=CARTESIAN_POINT('',(1.99225395461942227E1,-8.12827463092412650E0,1.94364543665275740E1));
#60=CARTESIAN_POINT('',(2.10940693735423039E1,-1.04300491729611142E1,2.17985195267770102E1));
#61=CARTESIAN_POINT('',(2.21505579463478135E1,-6.99428432736018380E0,1.94364543665275740E1));
#62=CARTESIAN_POINT('',(2.33220877736958947E1,-9.29605886939717152E0,2.17985195267770102E1));
#63=(BOUNDED_SURFACE()B_SPLINE_SURFACE(2,1,((#57,#58),(#59,#60),(#61,#62)),.UNSPECIFIED.,.F.,.F.,.F.)B_SPLINE_SURFACE_WITH_KNOTS((3,3),(2,2),(0.00000000000000000E0,1.00000000000000000E0),(0.00000000000000000E0,1.00000000000000000E0),.UNSPECIFIED.)GEOMETRIC_REPRESENTATION_ITEM()RATIONAL_B_SPLINE_SURFACE(((1.00000000000000000E0,1.00000000000000000E0),(7.07106781186547573E-1,7.07106781186547573E-1),(1.00000000000000000E0,1.00000000000000000E0)))REPRESENTATION_ITEM('')SURFACE());
#64=CARTESIAN_POINT('',(2.82237282540337908E1,-6.80128020155649526E0,2.17985195267770102E1));
#65=CARTESIAN_POINT('',(2.33220877736958947E1,-9.29605886939717152E0,2.17985195267770102E1));
#66=CARTESIAN_POINT('',(2.90605352735681350E1,-8.44540487444005805E0,2.34857089269551764E1));
#67=CARTESIAN_POINT('',(2.41588947932302389E1,-1.09401835422807352E1,2.34857089269551764E1));
#68=CARTESIAN_POINT('',(2.82952327055369715E1,-6.94176926318363741E0,2.53305373547300832E1));
#69=CARTESIAN_POINT('',(2.33935922251990753E1,-9.43654793102431455E0,2.53305373547300832E1));
#70=(BOUNDED_SURFACE()B_SPLINE_SURFACE(2,1,((#64,#65),(#66,#67),(#68,#69)),.UNSPECIFIED.,.F.,.F.,.F.)B_SPLINE_SURFACE_WITH_KNOTS((3,3),(2,2),(0.00000000000000000E0,1.00000000000000000E0),(0.00000000000000000E0,1.00000000000000000E0),.UNSPECIFIED.)GEOMETRIC_REPRESENTATION_ITEM()RATIONAL_B_SPLINE_SURFACE(((2.00000000000000000E0,2.00000000000000000E0),(1.00000000000000000E0,1.00000000000000000E0),(1.00000000000000000E0,1.00000000000000000E0)))REPRESENTATION_ITEM('')SURFACE());
#71=CARTESIAN_POINT('',(2.10976845211055846E1,-4.92564109725504817E0,3.08650226380548034E1));
#72=CARTESIAN_POINT('',(2.33935922251990753E1,-9.43654793102431455E0,2.53305373547300832E1));
#73=CARTESIAN_POINT('',(1.88696661209519938E1,-6.05963140081899176E0,3.08650226380548034E1));
#74=CARTESIAN_POINT('',(2.11655738250454846E1,-1.05705382345882573E1,2.53305373547300832E1));
#75=CARTESIAN_POINT('',(1.80328591014176496E1,-4.41550672793542809E0,2.91778332378766372E1));
#76=CARTESIAN_POINT('',(2.03287668055111439E1,-8.92641356170469358E0,2.36433479545519170E1));
#77=(BOUNDED_SURFACE()B_SPLINE_SURFACE(2,1,((#71,#72),(#73,#74),(#75,#76)),.UNSPECIFIED.,.F.,.F.,.F.)B_SPLINE_SURFACE_WITH_KNOTS((3,3),(2,2),(0.00000000000000000E0,1.00000000000000000E0),(0.00000000000000000E0,1.00000000000000000E0),.UNSPECIFIED.)GEOMETRIC_REPRESENTATION_ITEM()RATIONAL_B_SPLINE_SURFACE(((1.00000000000000000E0,1.00000000000000000E0),(1.00000000000000000E0,1.00000000000000000E0),(2.00000000000000000E0,2.00000000000000000E0)))REPRESENTATION_ITEM('')SURFACE());
#78=CARTESIAN_POINT('',(2.33220877736958947E1,-9.29605886939717152E0,2.17985195267770102E1));
#79=CARTESIAN_POINT('',(2.22080785736191011E1,-9.86305402117914376E0,2.17985195267770102E1));
#80=CARTESIAN_POINT('',(2.13027056444049983E1,-9.00279897705980581E0,2.18510658693092559E1));
#81=CARTESIAN_POINT('',(2.41588947932302389E1,-1.09401835422807352E1,2.34857089269551764E1));
#82=CARTESIAN_POINT('',(2.19308763930766482E1,-1.20741738458446779E1,2.34857089269551764E1));
#83=CARTESIAN_POINT('',(2.07114180895267239E1,-9.67823136733290390E0,2.27209337406644636E1));
#84=CARTESIAN_POINT('',(2.33935922251990753E1,-9.43654793102431455E0,2.53305373547300832E1));
#85=CARTESIAN_POINT('',(2.11655738250454846E1,-1.05705382345882573E1,2.53305373547300832E1));
#86=CARTESIAN_POINT('',(2.03287668055111439E1,-8.92641356170469358E0,2.36433479545519170E1));
#87=(BOUNDED_SURFACE()B_SPLINE_SURFACE(2,2,((#78,#79,#80),(#81,#82,#83),(#84,#85,#86)),.UNSPECIFIED.,.F.,.F.,.F.)B_SPLINE_SURFACE_WITH_KNOTS((3,3),(3,3),(0.00000000000000000E0,1.00000000000000000E0),(0.00000000000000000E0,1.00000000000000000E0),.UNSPECIFIED.)GEOMETRIC_REPRESENTATION_ITEM()RATIONAL_B_SPLINE_SURFACE(((2.00000000000000000E0,2.00000000000000000E0,3.00000000000000000E0),(1.00000000000000000E0,1.00000000000000000E0,2.00000000000000000E0),(1.00000000000000000E0,1.00000000000000000E0,2.00000000000000000E0)))REPRESENTATION_ITEM('')SURFACE());
#88=CARTESIAN_POINT('',(2.39909881545610553E1,1.51503678550617948E0,2.68157680776272045E1));
#89=CARTESIAN_POINT('',(2.70521984266857096E1,-4.49950565951950665E0,1.94364543665275740E1));
#90=B_SPLINE_CURVE_WITH_KNOTS('',1,(#88,#89),.UNSPECIFIED.,.F.,.F.,(2,2),(0.00000000000000000E0,1.00000000000000000E0),.UNSPECIFIED.);
#91=CARTESIAN_POINT('',(2.70521984266857096E1,-4.49950565951950665E0,1.94364543665275740E1));
#92=CARTESIAN_POINT('',(2.21505579463478135E1,-6.99428432736018380E0,1.94364543665275740E1));
#93=B_SPLINE_CURVE_WITH_KNOTS('',1,(#91,#92),.UNSPECIFIED.,.F.,.F.,(2,2),(0.00000000000000000E0,1.00000000000000000E0),.UNSPECIFIED.);
#94=CARTESIAN_POINT('',(1.68613292740695684E1,-2.11373218589844036E0,2.68157680776272045E1));
#95=CARTESIAN_POINT('',(1.91572369781630591E1,-6.62463901966770496E0,2.12812827943024807E1));
#96=B_SPLINE_CURVE_WITH_KNOTS('',1,(#94,#95),.UNSPECIFIED.,.F.,.F.,(2,2),(0.00000000000000000E0,1.00000000000000000E0),.UNSPECIFIED.);
#97=CARTESIAN_POINT('',(2.39909881545610553E1,1.51503678550617948E0,2.68157680776272045E1));
#98=CARTESIAN_POINT('',(1.68613292740695684E1,-2.11373218589844036E0,2.68157680776272045E1));
#99=B_SPLINE_CURVE_WITH_KNOTS('',1,(#97,#98),.UNSPECIFIED.,.F.,.F.,(2,2),(0.00000000000000000E0,1.00000000000000000E0),.UNSPECIFIED.);
#100=CARTESIAN_POINT('',(2.39909881545610553E1,1.51503678550617948E0,2.68157680776272045E1));
#101=CARTESIAN_POINT('',(2.59993250014434807E1,-2.43086242941437192E0,3.08650226380548034E1));
#102=B_SPLINE_CURVE_WITH_KNOTS('',1,(#100,#101),.UNSPECIFIED.,.F.,.F.,(2,2),(0.00000000000000000E0,1.00000000000000000E0),.UNSPECIFIED.);
#103=CARTESIAN_POINT('',(2.70521984266857096E1,-4.49950565951950665E0,1.94364543665275740E1));
#104=CARTESIAN_POINT('',(2.82237282540337908E1,-6.80128020155649526E0,2.17985195267770102E1));
#105=B_SPLINE_CURVE_WITH_KNOTS('',1,(#103,#104),.UNSPECIFIED.,.F.,.F.,(2,2),(0.00000000000000000E0,1.00000000000000000E0),.UNSPECIFIED.);
#106=CARTESIAN_POINT('',(2.33220877736958947E1,-9.29605886939717152E0,2.17985195267770102E1));
#107=CARTESIAN_POINT('',(2.82237282540337908E1,-6.80128020155649526E0,2.17985195267770102E1));
#108=B_SPLINE_CURVE_WITH_KNOTS('',1,(#106,#107),.UNSPECIFIED.,.F.,.F.,(2,2),(0.00000000000000000E0,1.00000000000000000E0),.UNSPECIFIED.);
#109=CARTESIAN_POINT('',(2.21505579463478135E1,-6.99428432736018380E0,1.94364543665275740E1));
#110=CARTESIAN_POINT('',(2.33220877736958947E1,-9.29605886939717152E0,2.17985195267770102E1));
#111=B_SPLINE_CURVE_WITH_KNOTS('',1,(#109,#110),.UNSPECIFIED.,.F.,.F.,(2,2),(0.00000000000000000E0,1.00000000000000000E0),.UNSPECIFIED.);
#112=CARTESIAN_POINT('',(1.91572369781630591E1,-6.62463901966770496E0,2.12812827943024807E1));
#113=CARTESIAN_POINT('',(2.03287668055111439E1,-8.92641356170469358E0,2.36433479545519170E1));
#114=B_SPLINE_CURVE_WITH_KNOTS('',1,(#112,#113),.UNSPECIFIED.,.F.,.F.,(2,2),(0.00000000000000000E0,1.00000000000000000E0),.UNSPECIFIED.);
#115=CARTESIAN_POINT('',(1.68613292740695684E1,-2.11373218589844036E0,2.68157680776272045E1));
#116=CARTESIAN_POINT('',(1.80328591014176496E1,-4.41550672793542809E0,2.91778332378766372E1));
#117=B_SPLINE_CURVE_WITH_KNOTS('',1,(#115,#116),.UNSPECIFIED.,.F.,.F.,(2,2),(0.00000000000000000E0,1.00000000000000000E0),.UNSPECIFIED.);
#118=CARTESIAN_POINT('',(2.03287668055111439E1,-8.92641356170469358E0,2.36433479545519170E1));
#119=CARTESIAN_POINT('',(1.80328591014176496E1,-4.41550672793542809E0,2.91778332378766372E1));
#120=B_SPLINE_CURVE_WITH_KNOTS('',1,(#118,#119),.UNSPECIFIED.,.F.,.F.,(2,2),(0.00000000000000000E0,1.00000000000000000E0),.UNSPECIFIED.);
#121=CARTESIAN_POINT('',(2.59993250014434807E1,-2.43086242941437192E0,3.08650226380548034E1));
#122=CARTESIAN_POINT('',(2.82952327055369715E1,-6.94176926318363741E0,2.53305373547300832E1));
#123=B_SPLINE_CURVE_WITH_KNOTS('',1,(#121,#122),.UNSPECIFIED.,.F.,.F.,(2,2),(0.00000000000000000E0,1.00000000000000000E0),.UNSPECIFIED.);
#124=CARTESIAN_POINT('',(2.33935922251990753E1,-9.43654793102431455E0,2.53305373547300832E1));
#125=CARTESIAN_POINT('',(2.82952327055369715E1,-6.94176926318363741E0,2.53305373547300832E1));
#126=B_SPLINE_CURVE_WITH_KNOTS('',1,(#124,#125),.UNSPECIFIED.,.F.,.F.,(2,2),(0.00000000000000000E0,1.00000000000000000E0),.UNSPECIFIED.);
#127=CARTESIAN_POINT('',(2.59993250014434807E1,-2.43086242941437192E0,3.08650226380548034E1));
#128=CARTESIAN_POINT('',(2.10976845211055846E1,-4.92564109725504817E0,3.08650226380548034E1));
#129=B_SPLINE_CURVE_WITH_KNOTS('',1,(#127,#128),.UNSPECIFIED.,.F.,.F.,(2,2),(0.00000000000000000E0,1.00000000000000000E0),.UNSPECIFIED.);
#130=CARTESIAN_POINT('',(2.33935922251990753E1,-9.43654793102431455E0,2.53305373547300832E1));
#131=CARTESIAN_POINT('',(2.10976845211055846E1,-4.92564109725504817E0,3.08650226380548034E1));
#132=B_SPLINE_CURVE_WITH_KNOTS('',1,(#130,#131),.UNSPECIFIED.,.F.,.F.,(2,2),(0.00000000000000000E0,1.00000000000000000E0),.UNSPECIFIED.);
#133=CARTESIAN_POINT('',(2.21505579463478135E1,-6.99428432736018380E0,1.94364543665275740E1));
#134=CARTESIAN_POINT('',(1.99225395461942227E1,-8.12827463092412650E0,1.94364543665275740E1));
#135=CARTESIAN_POINT('',(1.91572369781630591E1,-6.62463901966770496E0,2.12812827943024807E1));
#136=(BOUNDED_CURVE()B_SPLINE_CURVE(2,(#133,#134,#135),.UNSPECIFIED.,.F.,.F.)B_SPLINE_CURVE_WITH_KNOTS((3,3),(0.00000000000000000E0,1.00000000000000000E0),.UNSPECIFIED.)CURVE()GEOMETRIC_REPRESENTATION_ITEM()RATIONAL_B_SPLINE_CURVE((1.00000000000000000E0,7.07106781186547573E-1,1.00000000000000000E0))REPRESENTATION_ITEM(''));
#137=CARTESIAN_POINT('',(2.33220877736958947E1,-9.29605886939717152E0,2.17985195267770102E1));
#138=CARTESIAN_POINT('',(2.10940693735423039E1,-1.04300491729611142E1,2.17985195267770102E1));
#139=CARTESIAN_POINT('',(2.03287668055111439E1,-8.92641356170469358E0,2.36433479545519170E1));
#140=(BOUNDED_CURVE()B_SPLINE_CURVE(2,(#137,#138,#139),.UNSPECIFIED.,.F.,.F.)B_SPLINE_CURVE_WITH_KNOTS((3,3),(0.00000000000000000E0,1.00000000000000000E0),.UNSPECIFIED.)CURVE()GEOMETRIC_REPRESENTATION_ITEM()RATIONAL_B_SPLINE_CURVE((1.00000000000000000E0,7.07106781186547573E-1,1.00000000000000000E0))REPRESENTATION_ITEM(''));
#141=CARTESIAN_POINT('',(2.33220877736958947E1,-9.29605886939717152E0,2.17985195267770102E1));
#142=CARTESIAN_POINT('',(2.41588947932302389E1,-1.09401835422807352E1,2.34857089269551764E1));
#143=CARTESIAN_POINT('',(2.33935922251990753E1,-9.43654793102431455E0,2.53305373547300832E1));
#144=(BOUNDED_CURVE()B_SPLINE_CURVE(2,(#141,#142,#143),.UNSPECIFIED.,.F.,.F.)B_SPLINE_CURVE_WITH_KNOTS((3,3),(0.00000000000000000E0,1.00000000000000000E0),.UNSPECIFIED.)CURVE()GEOMETRIC_REPRESENTATION_ITEM()RATIONAL_B_SPLINE_CURVE((2.00000000000000000E0,1.00000000000000000E0,1.00000000000000000E0))REPRESENTATION_ITEM(''));
#145=CARTESIAN_POINT('',(2.03287668055111439E1,-8.92641356170469358E0,2.36433479545519170E1));
#146=CARTESIAN_POINT('',(2.11655738250454846E1,-1.05705382345882573E1,2.53305373547300832E1));
#147=CARTESIAN_POINT('',(2.33935922251990753E1,-9.43654793102431455E0,2.53305373547300832E1));
#148=(BOUNDED_CURVE()B_SPLINE_CURVE(2,(#145,#146,#147),.UNSPECIFIED.,.F.,.F.)B_SPLINE_CURVE_WITH_KNOTS((3,3),(0.00000000000000000E0,1.00000000000000000E0),.UNSPECIFIED.)CURVE()GEOMETRIC_REPRESENTATION_ITEM()RATIONAL_B_SPLINE_CURVE((2.00000000000000000E0,1.00000000000000000E0,1.00000000000000000E0))REPRESENTATION_ITEM(''));
#149=CARTESIAN_POINT('',(2.82237282540337908E1,-6.80128020155649526E0,2.17985195267770102E1));
#150=CARTESIAN_POINT('',(2.90605352735681350E1,-8.44540487444005805E0,2.34857089269551764E1));
#151=CARTESIAN_POINT('',(2.82952327055369715E1,-6.94176926318363741E0,2.53305373547300832E1));
#152=(BOUNDED_CURVE()B_SPLINE_CURVE(2,(#149,#150,#151),.UNSPECIFIED.,.F.,.F.)B_SPLINE_CURVE_WITH_KNOTS((3,3),(0.00000000000000000E0,1.00000000000000000E0),.UNSPECIFIED.)CURVE()GEOMETRIC_REPRESENTATION_ITEM()RATIONAL_B_SPLINE_CURVE((2.00000000000000000E0,1.00000000000000000E0,1.00000000000000000E0))REPRESENTATION_ITEM(''));
#153=CARTESIAN_POINT('',(1.80328591014176496E1,-4.41550672793542809E0,2.91778332378766372E1));
#154=CARTESIAN_POINT('',(1.88696661209519938E1,-6.05963140081899176E0,3.08650226380548034E1));
#155=CARTESIAN_POINT('',(2.10976845211055846E1,-4.92564109725504817E0,3.08650226380548034E1));
#156=(BOUNDED_CURVE()B_SPLINE_CURVE(2,(#153,#154,#155),.UNSPECIFIED.,.F.,.F.)B_SPLINE_CURVE_WITH_KNOTS((3,3),(0.00000000000000000E0,1.00000000000000000E0),.UNSPECIFIED.)CURVE()GEOMETRIC_REPRESENTATION_ITEM()RATIONAL_B_SPLINE_CURVE((2.00000000000000000E0,1.00000000000000000E0,1.00000000000000000E0))REPRESENTATION_ITEM(''));
#157=(GEOMETRIC_REPRESENTATION_CONTEXT(2)REPRESENTATION_CONTEXT('','2D'));
#158=CARTESIAN_POINT('',(0.00000000000000000E0,0.00000000000000000E0));
#159=CARTESIAN_POINT('',(1.00000000000000000E0,0.00000000000000000E0));
#160=B_SPLINE_CURVE_WITH_KNOTS('',1,(#158,#159),.UNSPECIFIED.,.F.,.F.,(2,2),(0.00000000000000000E0,1.00000000000000000E0),.UNSPECIFIED.);
#161=DEFINITIONAL_REPRESENTATION('',(#160),#157);
#162=PCURVE('',#31,#161);
#163=CARTESIAN_POINT('',(1.00000000000000000E0,0.00000000000000000E0));
#164=CARTESIAN_POINT('',(1.00000000000000000E0,6.87500000000000111E-1));
#165=B_SPLINE_CURVE_WITH_KNOTS('',1,(#163,#164),.UNSPECIFIED.,.F.,.F.,(2,2),(0.00000000000000000E0,1.00000000000000000E0),.UNSPECIFIED.);
#166=DEFINITIONAL_REPRESENTATION('',(#165),#157);
#167=PCURVE('',#31,#166);
#168=CARTESIAN_POINT('',(1.00000000000000000E0,6.87500000000000111E-1));
#169=CARTESIAN_POINT('',(1.00000000000000000E0,1.00000000000000000E0));
#170=CARTESIAN_POINT('',(7.50000000000000000E-1,1.00000000000000000E0));
#171=(BOUNDED_CURVE()B_SPLINE_CURVE(2,(#168,#169,#170),.UNSPECIFIED.,.F.,.F.)B_SPLINE_CURVE_WITH_KNOTS((3,3),(0.00000000000000000E0,1.00000000000000000E0),.UNSPECIFIED.)CURVE()GEOMETRIC_REPRESENTATION_ITEM()RATIONAL_B_SPLINE_CURVE((1.00000000000000000E0,7.07106781186547573E-1,1.00000000000000000E0))REPRESENTATION_ITEM(''));
#172=DEFINITIONAL_REPRESENTATION('',(#171),#157);
#173=PCURVE('',#31,#172);
#174=CARTESIAN_POINT('',(7.50000000000000000E-1,1.00000000000000000E0));
#175=CARTESIAN_POINT('',(0.00000000000000000E0,1.00000000000000000E0));
#176=B_SPLINE_CURVE_WITH_KNOTS('',1,(#174,#175),.UNSPECIFIED.,.F.,.F.,(2,2),(0.00000000000000000E0,1.00000000000000000E0),.UNSPECIFIED.);
#177=DEFINITIONAL_REPRESENTATION('',(#176),#157);
#178=PCURVE('',#31,#177);
#179=CARTESIAN_POINT('',(0.00000000000000000E0,1.00000000000000000E0));
#180=CARTESIAN_POINT('',(0.00000000000000000E0,0.00000000000000000E0));
#181=B_SPLINE_CURVE_WITH_KNOTS('',1,(#179,#180),.UNSPECIFIED.,.F.,.F.,(2,2),(0.00000000000000000E0,1.00000000000000000E0),.UNSPECIFIED.);
#182=DEFINITIONAL_REPRESENTATION('',(#181),#157);
#183=PCURVE('',#31,#182);
#184=CARTESIAN_POINT('',(1.00000000000000000E0,0.00000000000000000E0));
#185=CARTESIAN_POINT('',(1.00000000000000000E0,6.87500000000000111E-1));
#186=B_SPLINE_CURVE_WITH_KNOTS('',1,(#184,#185),.UNSPECIFIED.,.F.,.F.,(2,2),(0.00000000000000000E0,1.00000000000000000E0),.UNSPECIFIED.);
#187=DEFINITIONAL_REPRESENTATION('',(#186),#157);
#188=PCURVE('',#36,#187);
#189=CARTESIAN_POINT('',(1.00000000000000000E0,6.87500000000000111E-1));
#190=CARTESIAN_POINT('',(2.50000000000000000E-1,6.87500000000000111E-1));
#191=B_SPLINE_CURVE_WITH_KNOTS('',1,(#189,#190),.UNSPECIFIED.,.F.,.F.,(2,2),(0.00000000000000000E0,1.00000000000000000E0),.UNSPECIFIED.);
#192=DEFINITIONAL_REPRESENTATION('',(#191),#157);
#193=PCURVE('',#36,#192);
#194=CARTESIAN_POINT('',(2.50000000000000000E-1,6.87500000000000111E-1));
#195=CARTESIAN_POINT('',(2.50000000000000000E-1,0.00000000000000000E0));
#196=B_SPLINE_CURVE_WITH_KNOTS('',1,(#194,#195),.UNSPECIFIED.,.F.,.F.,(2,2),(0.00000000000000000E0,1.00000000000000000E0),.UNSPECIFIED.);
#197=DEFINITIONAL_REPRESENTATION('',(#196),#157);
#198=PCURVE('',#36,#197);
#199=CARTESIAN_POINT('',(2.50000000000000000E-1,0.00000000000000000E0));
#200=CARTESIAN_POINT('',(1.00000000000000000E0,0.00000000000000000E0));
#201=B_SPLINE_CURVE_WITH_KNOTS('',1,(#199,#200),.UNSPECIFIED.,.F.,.F.,(2,2),(0.00000000000000000E0,1.00000000000000000E0),.UNSPECIFIED.);
#202=DEFINITIONAL_REPRESENTATION('',(#201),#157);
#203=PCURVE('',#36,#202);
#204=CARTESIAN_POINT('',(0.00000000000000000E0,0.00000000000000000E0));
#205=CARTESIAN_POINT('',(1.00000000000000000E0,0.00000000000000000E0));
#206=B_SPLINE_CURVE_WITH_KNOTS('',1,(#204,#205),.UNSPECIFIED.,.F.,.F.,(2,2),(0.00000000000000000E0,1.00000000000000000E0),.UNSPECIFIED.);
#207=DEFINITIONAL_REPRESENTATION('',(#206),#157);
#208=PCURVE('',#41,#207);
#209=CARTESIAN_POINT('',(1.00000000000000000E0,0.00000000000000000E0));
#210=CARTESIAN_POINT('',(1.00000000000000000E0,5.83333333333333370E-1));
#211=B_SPLINE_CURVE_WITH_KNOTS('',1,(#209,#210),.UNSPECIFIED.,.F.,.F.,(2,2),(0.00000000000000000E0,1.00000000000000000E0),.UNSPECIFIED.);
#212=DEFINITIONAL_REPRESENTATION('',(#211),#157);
#213=PCURVE('',#41,#212);
#214=CARTESIAN_POINT('',(1.00000000000000000E0,5.83333333333333370E-1));
#215=CARTESIAN_POINT('',(1.00000000000000000E0,1.00000000000000000E0));
#216=CARTESIAN_POINT('',(6.87500000000000111E-1,1.00000000000000000E0));
#217=(BOUNDED_CURVE()B_SPLINE_CURVE(2,(#214,#215,#216),.UNSPECIFIED.,.F.,.F.)B_SPLINE_CURVE_WITH_KNOTS((3,3),(0.00000000000000000E0,1.00000000000000000E0),.UNSPECIFIED.)CURVE()GEOMETRIC_REPRESENTATION_ITEM()RATIONAL_B_SPLINE_CURVE((2.00000000000000000E0,1.00000000000000000E0,1.00000000000000000E0))REPRESENTATION_ITEM(''));
#218=DEFINITIONAL_REPRESENTATION('',(#217),#157);
#219=PCURVE('',#41,#218);
#220=CARTESIAN_POINT('',(6.87500000000000111E-1,1.00000000000000000E0));
#221=CARTESIAN_POINT('',(0.00000000000000000E0,1.00000000000000000E0));
#222=B_SPLINE_CURVE_WITH_KNOTS('',1,(#220,#221),.UNSPECIFIED.,.F.,.F.,(2,2),(0.00000000000000000E0,1.00000000000000000E0),.UNSPECIFIED.);
#223=DEFINITIONAL_REPRESENTATION('',(#222),#157);
#224=PCURVE('',#41,#223);
#225=CARTESIAN_POINT('',(0.00000000000000000E0,1.00000000000000000E0));
#226=CARTESIAN_POINT('',(0.00000000000000000E0,0.00000000000000000E0));
#227=B_SPLINE_CURVE_WITH_KNOTS('',1,(#225,#226),.UNSPECIFIED.,.F.,.F.,(2,2),(0.00000000000000000E0,1.00000000000000000E0),.UNSPECIFIED.);
#228=DEFINITIONAL_REPRESENTATION('',(#227),#157);
#229=PCURVE('',#41,#228);
#230=CARTESIAN_POINT('',(1.00000000000000000E0,0.00000000000000000E0));
#231=CARTESIAN_POINT('',(1.00000000000000000E0,1.00000000000000000E0));
#232=B_SPLINE_CURVE_WITH_KNOTS('',1,(#230,#231),.UNSPECIFIED.,.F.,.F.,(2,2),(0.00000000000000000E0,1.00000000000000000E0),.UNSPECIFIED.);
#233=DEFINITIONAL_REPRESENTATION('',(#232),#157);
#234=PCURVE('',#46,#233);
#235=CARTESIAN_POINT('',(1.00000000000000000E0,1.00000000000000000E0));
#236=CARTESIAN_POINT('',(2.50000000000000000E-1,1.00000000000000000E0));
#237=B_SPLINE_CURVE_WITH_KNOTS('',1,(#235,#236),.UNSPECIFIED.,.F.,.F.,(2,2),(0.00000000000000000E0,1.00000000000000000E0),.UNSPECIFIED.);
#238=DEFINITIONAL_REPRESENTATION('',(#237),#157);
#239=PCURVE('',#46,#238);
#240=CARTESIAN_POINT('',(2.50000000000000000E-1,1.00000000000000000E0));
#241=CARTESIAN_POINT('',(0.00000000000000000E0,1.00000000000000000E0));
#242=CARTESIAN_POINT('',(0.00000000000000000E0,5.83333333333333370E-1));
#243=(BOUNDED_CURVE()B_SPLINE_CURVE(2,(#240,#241,#242),.UNSPECIFIED.,.F.,.F.)B_SPLINE_CURVE_WITH_KNOTS((3,3),(0.00000000000000000E0,1.00000000000000000E0),.UNSPECIFIED.)CURVE()GEOMETRIC_REPRESENTATION_ITEM()RATIONAL_B_SPLINE_CURVE((1.00000000000000000E0,1.00000000000000000E0,2.00000000000000000E0))REPRESENTATION_ITEM(''));
#244=DEFINITIONAL_REPRESENTATION('',(#243),#157);
#245=PCURVE('',#46,#244);
#246=CARTESIAN_POINT('',(0.00000000000000000E0,5.83333333333333370E-1));
#247=CARTESIAN_POINT('',(0.00000000000000000E0,0.00000000000000000E0));
#248=B_SPLINE_CURVE_WITH_KNOTS('',1,(#246,#247),.UNSPECIFIED.,.F.,.F.,(2,2),(0.00000000000000000E0,1.00000000000000000E0),.UNSPECIFIED.);
#249=DEFINITIONAL_REPRESENTATION('',(#248),#157);
#250=PCURVE('',#46,#249);
#251=CARTESIAN_POINT('',(0.00000000000000000E0,0.00000000000000000E0));
#252=CARTESIAN_POINT('',(1.00000000000000000E0,0.00000000000000000E0));
#253=B_SPLINE_CURVE_WITH_KNOTS('',1,(#251,#252),.UNSPECIFIED.,.F.,.F.,(2,2),(0.00000000000000000E0,1.00000000000000000E0),.UNSPECIFIED.);
#254=DEFINITIONAL_REPRESENTATION('',(#253),#157);
#255=PCURVE('',#46,#254);
#256=CARTESIAN_POINT('',(1.00000000000000000E0,0.00000000000000000E0));
#257=CARTESIAN_POINT('',(1.00000000000000000E0,5.83333333333333370E-1));
#258=B_SPLINE_CURVE_WITH_KNOTS('',1,(#256,#257),.UNSPECIFIED.,.F.,.F.,(2,2),(0.00000000000000000E0,1.00000000000000000E0),.UNSPECIFIED.);
#259=DEFINITIONAL_REPRESENTATION('',(#258),#157);
#260=PCURVE('',#51,#259);
#261=CARTESIAN_POINT('',(1.00000000000000000E0,5.83333333333333370E-1));
#262=CARTESIAN_POINT('',(3.12499999999999889E-1,5.83333333333333370E-1));
#263=B_SPLINE_CURVE_WITH_KNOTS('',1,(#261,#262),.UNSPECIFIED.,.F.,.F.,(2,2),(0.00000000000000000E0,1.00000000000000000E0),.UNSPECIFIED.);
#264=DEFINITIONAL_REPRESENTATION('',(#263),#157);
#265=PCURVE('',#51,#264);
#266=CARTESIAN_POINT('',(3.12499999999999889E-1,5.83333333333333370E-1));
#267=CARTESIAN_POINT('',(3.12499999999999889E-1,0.00000000000000000E0));
#268=B_SPLINE_CURVE_WITH_KNOTS('',1,(#266,#267),.UNSPECIFIED.,.F.,.F.,(2,2),(0.00000000000000000E0,1.00000000000000000E0),.UNSPECIFIED.);
#269=DEFINITIONAL_REPRESENTATION('',(#268),#157);
#270=PCURVE('',#51,#269);
#271=CARTESIAN_POINT('',(3.12499999999999889E-1,0.00000000000000000E0));
#272=CARTESIAN_POINT('',(1.00000000000000000E0,0.00000000000000000E0));
#273=B_SPLINE_CURVE_WITH_KNOTS('',1,(#271,#272),.UNSPECIFIED.,.F.,.F.,(2,2),(0.00000000000000000E0,1.00000000000000000E0),.UNSPECIFIED.);
#274=DEFINITIONAL_REPRESENTATION('',(#273),#157);
#275=PCURVE('',#51,#274);
#276=CARTESIAN_POINT('',(0.00000000000000000E0,0.00000000000000000E0));
#277=CARTESIAN_POINT('',(7.50000000000000000E-1,0.00000000000000000E0));
#278=B_SPLINE_CURVE_WITH_KNOTS('',1,(#276,#277),.UNSPECIFIED.,.F.,.F.,(2,2),(0.00000000000000000E0,1.00000000000000000E0),.UNSPECIFIED.);
#279=DEFINITIONAL_REPRESENTATION('',(#278),#157);
#280=PCURVE('',#56,#279);
#281=CARTESIAN_POINT('',(7.50000000000000000E-1,0.00000000000000000E0));
#282=CARTESIAN_POINT('',(7.50000000000000000E-1,5.83333333333333370E-1));
#283=B_SPLINE_CURVE_WITH_KNOTS('',1,(#281,#282),.UNSPECIFIED.,.F.,.F.,(2,2),(0.00000000000000000E0,1.00000000000000000E0),.UNSPECIFIED.);
#284=DEFINITIONAL_REPRESENTATION('',(#283),#157);
#285=PCURVE('',#56,#284);
#286=CARTESIAN_POINT('',(7.50000000000000000E-1,5.83333333333333370E-1));
#287=CARTESIAN_POINT('',(0.00000000000000000E0,5.83333333333333370E-1));
#288=B_SPLINE_CURVE_WITH_KNOTS('',1,(#286,#287),.UNSPECIFIED.,.F.,.F.,(2,2),(0.00000000000000000E0,1.00000000000000000E0),.UNSPECIFIED.);
#289=DEFINITIONAL_REPRESENTATION('',(#288),#157);
#290=PCURVE('',#56,#289);
#291=CARTESIAN_POINT('',(0.00000000000000000E0,5.83333333333333370E-1));
#292=CARTESIAN_POINT('',(0.00000000000000000E0,0.00000000000000000E0));
#293=B_SPLINE_CURVE_WITH_KNOTS('',1,(#291,#292),.UNSPECIFIED.,.F.,.F.,(2,2),(0.00000000000000000E0,1.00000000000000000E0),.UNSPECIFIED.);
#294=DEFINITIONAL_REPRESENTATION('',(#293),#157);
#295=PCURVE('',#56,#294);
#296=CARTESIAN_POINT('',(1.00000000000000000E0,0.00000000000000000E0));
#297=CARTESIAN_POINT('',(1.00000000000000000E0,1.00000000000000000E0));
#298=B_SPLINE_CURVE_WITH_KNOTS('',1,(#296,#297),.UNSPECIFIED.,.F.,.F.,(2,2),(0.00000000000000000E0,1.00000000000000000E0),.UNSPECIFIED.);
#299=DEFINITIONAL_REPRESENTATION('',(#298),#157);
#300=PCURVE('',#63,#299);
#301=CARTESIAN_POINT('',(1.00000000000000000E0,1.00000000000000000E0));
#302=CARTESIAN_POINT('',(0.00000000000000000E0,1.00000000000000000E0));
#303=B_SPLINE_CURVE_WITH_KNOTS('',1,(#301,#302),.UNSPECIFIED.,.F.,.F.,(2,2),(0.00000000000000000E0,1.00000000000000000E0),.UNSPECIFIED.);
#304=DEFINITIONAL_REPRESENTATION('',(#303),#157);
#305=PCURVE('',#63,#304);
#306=CARTESIAN_POINT('',(0.00000000000000000E0,1.00000000000000000E0));
#307=CARTESIAN_POINT('',(0.00000000000000000E0,0.00000000000000000E0));
#308=B_SPLINE_CURVE_WITH_KNOTS('',1,(#306,#307),.UNSPECIFIED.,.F.,.F.,(2,2),(0.00000000000000000E0,1.00000000000000000E0),.UNSPECIFIED.);
#309=DEFINITIONAL_REPRESENTATION('',(#308),#157);
#310=PCURVE('',#63,#309);
#311=CARTESIAN_POINT('',(0.00000000000000000E0,0.00000000000000000E0));
#312=CARTESIAN_POINT('',(1.00000000000000000E0,0.00000000000000000E0));
#313=B_SPLINE_CURVE_WITH_KNOTS('',1,(#311,#312),.UNSPECIFIED.,.F.,.F.,(2,2),(0.00000000000000000E0,1.00000000000000000E0),.UNSPECIFIED.);
#314=DEFINITIONAL_REPRESENTATION('',(#313),#157);
#315=PCURVE('',#63,#314);
#316=CARTESIAN_POINT('',(0.00000000000000000E0,0.00000000000000000E0));
#317=CARTESIAN_POINT('',(1.00000000000000000E0,0.00000000000000000E0));
#318=B_SPLINE_CURVE_WITH_KNOTS('',1,(#316,#317),.UNSPECIFIED.,.F.,.F.,(2,2),(0.00000000000000000E0,1.00000000000000000E0),.UNSPECIFIED.);
#319=DEFINITIONAL_REPRESENTATION('',(#318),#157);
#320=PCURVE('',#70,#319);
#321=CARTESIAN_POINT('',(1.00000000000000000E0,0.00000000000000000E0));
#322=CARTESIAN_POINT('',(1.00000000000000000E0,1.00000000000000000E0));
#323=B_SPLINE_CURVE_WITH_KNOTS('',1,(#321,#322),.UNSPECIFIED.,.F.,.F.,(2,2),(0.00000000000000000E0,1.00000000000000000E0),.UNSPECIFIED.);
#324=DEFINITIONAL_REPRESENTATION('',(#323),#157);
#325=PCURVE('',#70,#324);
#326=CARTESIAN_POINT('',(1.00000000000000000E0,1.00000000000000000E0));
#327=CARTESIAN_POINT('',(0.00000000000000000E0,1.00000000000000000E0));
#328=B_SPLINE_CURVE_WITH_KNOTS('',1,(#326,#327),.UNSPECIFIED.,.F.,.F.,(2,2),(0.00000000000000000E0,1.00000000000000000E0),.UNSPECIFIED.);
#329=DEFINITIONAL_REPRESENTATION('',(#328),#157);
#330=PCURVE('',#70,#329);
#331=CARTESIAN_POINT('',(0.00000000000000000E0,1.00000000000000000E0));
#332=CARTESIAN_POINT('',(0.00000000000000000E0,0.00000000000000000E0));
#333=B_SPLINE_CURVE_WITH_KNOTS('',1,(#331,#332),.UNSPECIFIED.,.F.,.F.,(2,2),(0.00000000000000000E0,1.00000000000000000E0),.UNSPECIFIED.);
#334=DEFINITIONAL_REPRESENTATION('',(#333),#157);
#335=PCURVE('',#70,#334);
#336=CARTESIAN_POINT('',(1.00000000000000000E0,0.00000000000000000E0));
#337=CARTESIAN_POINT('',(1.00000000000000000E0,1.00000000000000000E0));
#338=B_SPLINE_CURVE_WITH_KNOTS('',1,(#336,#337),.UNSPECIFIED.,.F.,.F.,(2,2),(0.00000000000000000E0,1.00000000000000000E0),.UNSPECIFIED.);
#339=DEFINITIONAL_REPRESENTATION('',(#338),#157);
#340=PCURVE('',#77,#339);
#341=CARTESIAN_POINT('',(1.00000000000000000E0,1.00000000000000000E0));
#342=CARTESIAN_POINT('',(0.00000000000000000E0,1.00000000000000000E0));
#343=B_SPLINE_CURVE_WITH_KNOTS('',1,(#341,#342),.UNSPECIFIED.,.F.,.F.,(2,2),(0.00000000000000000E0,1.00000000000000000E0),.UNSPECIFIED.);
#344=DEFINITIONAL_REPRESENTATION('',(#343),#157);
#345=PCURVE('',#77,#344);
#346=CARTESIAN_POINT('',(0.00000000000000000E0,1.00000000000000000E0));
#347=CARTESIAN_POINT('',(0.00000000000000000E0,0.00000000000000000E0));
#348=B_SPLINE_CURVE_WITH_KNOTS('',1,(#346,#347),.UNSPECIFIED.,.F.,.F.,(2,2),(0.00000000000000000E0,1.00000000000000000E0),.UNSPECIFIED.);
#349=DEFINITIONAL_REPRESENTATION('',(#348),#157);
#350=PCURVE('',#77,#349);
#351=CARTESIAN_POINT('',(0.00000000000000000E0,0.00000000000000000E0));
#352=CARTESIAN_POINT('',(1.00000000000000000E0,0.00000000000000000E0));
#353=B_SPLINE_CURVE_WITH_KNOTS('',1,(#351,#352),.UNSPECIFIED.,.F.,.F.,(2,2),(0.00000000000000000E0,1.00000000000000000E0),.UNSPECIFIED.);
#354=DEFINITIONAL_REPRESENTATION('',(#353),#157);
#355=PCURVE('',#77,#354);
#356=CARTESIAN_POINT('',(1.00000000000000000E0,0.00000000000000000E0));
#357=CARTESIAN_POINT('',(1.00000000000000000E0,1.00000000000000000E0));
#358=B_SPLINE_CURVE_WITH_KNOTS('',1,(#356,#357),.UNSPECIFIED.,.F.,.F.,(2,2),(0.00000000000000000E0,1.00000000000000000E0),.UNSPECIFIED.);
#359=DEFINITIONAL_REPRESENTATION('',(#358),#157);
#360=PCURVE('',#87,#359);
#361=CARTESIAN_POINT('',(1.00000000000000000E0,1.00000000000000000E0));
#362=CARTESIAN_POINT('',(0.00000000000000000E0,1.00000000000000000E0));
#363=CARTESIAN_POINT('',(0.00000000000000000E0,0.00000000000000000E0));
#364=(BOUNDED_CURVE()B_SPLINE_CURVE(2,(#361,#362,#363),.UNSPECIFIED.,.F.,.F.)B_SPLINE_CURVE_WITH_KNOTS((3,3),(0.00000000000000000E0,1.00000000000000000E0),.UNSPECIFIED.)CURVE()GEOMETRIC_REPRESENTATION_ITEM()RATIONAL_B_SPLINE_CURVE((1.00000000000000000E0,7.07106781186547573E-1,1.00000000000000000E0))REPRESENTATION_ITEM(''));
#365=DEFINITIONAL_REPRESENTATION('',(#364),#157);
#366=PCURVE('',#87,#365);
#367=CARTESIAN_POINT('',(0.00000000000000000E0,0.00000000000000000E0));
#368=CARTESIAN_POINT('',(1.00000000000000000E0,0.00000000000000000E0));
#369=B_SPLINE_CURVE_WITH_KNOTS('',1,(#367,#368),.UNSPECIFIED.,.F.,.F.,(2,2),(0.00000000000000000E0,1.00000000000000000E0),.UNSPECIFIED.);
#370=DEFINITIONAL_REPRESENTATION('',(#369),#157);
#371=PCURVE('',#87,#370);
#372=SURFACE_CURVE('',#90,(#162,#255),.PCURVE_S1.);
#373=EDGE_CURVE('OSCAD_TOPO/3|edge|e:840c7136a8226815a93ccc75b7f912b8|9621f331ae1798ee3b42650c6d59dbe27c3c47ab86254587abf010dd4d2028aa',#2,#4,#372,.T.);
#374=SURFACE_CURVE('',#93,(#167,#275),.PCURVE_S1.);
#375=EDGE_CURVE('OSCAD_TOPO/3|edge|e:86de1c9be7885cc25fc48204d48abe3c|5097a7016759b50ff7d5a056cd40e3801f8386414e53f3070bd1110504081f26',#4,#10,#374,.T.);
#376=SURFACE_CURVE('',#96,(#178,#280),.PCURVE_S1.);
#377=EDGE_CURVE('OSCAD_TOPO/3|edge|e:fb86c0e6dbfe0c49732a318b6377e44f|f08e58da30ed89e07b6064e7415f70609048c52cfb6a20ab7b46c5dc000cada6',#6,#12,#376,.T.);
#378=SURFACE_CURVE('',#99,(#183,#208),.PCURVE_S1.);
#379=EDGE_CURVE('OSCAD_TOPO/3|edge|e:d456ce9a22753e590282fd4f1ca99f73|55b8f8d831e021dbbbb2b852b58f729b5cc8e5389d62d843a7b03efe050dad66',#2,#6,#378,.T.);
#380=SURFACE_CURVE('',#102,(#229,#234),.PCURVE_S1.);
#381=EDGE_CURVE('OSCAD_TOPO/3|edge|e:66d136d80f89576bdfeb14cf71553645|4a598a6d3b7315c213e0d4c1768d851d2b15c5d3ee3b04b0fc907b666ed19227',#2,#8,#380,.T.);
#382=SURFACE_CURVE('',#105,(#250,#260),.PCURVE_S1.);
#383=EDGE_CURVE('OSCAD_TOPO/3|edge|e:c7fa1acc7c9936d460f11b6acdc09561|12afcd27f52d6b2082364cac28713a80925d364845bd2ad1e182b69ebe95b703',#4,#20,#382,.T.);
#384=SURFACE_CURVE('',#108,(#265,#335),.PCURVE_S1.);
#385=EDGE_CURVE('OSCAD_TOPO/3|edge|e:6bf516d91f7463dda57a54c468e9fe17|2fcba53d1cb7714d58a8522132cf550d1e8e07e378d571c0aa85ba27458f3ea8',#14,#20,#384,.T.);
#386=SURFACE_CURVE('',#111,(#270,#300),.PCURVE_S1.);
#387=EDGE_CURVE('OSCAD_TOPO/3|edge|e:8f76d81b8a567876c5b435c0f5568ad9|3ad35ca27fe52ac0408f5db6a5a62bac91dbf768e408a214f8a2a03a8210e017',#10,#14,#386,.T.);
#388=SURFACE_CURVE('',#114,(#285,#310),.PCURVE_S1.);
#389=EDGE_CURVE('OSCAD_TOPO/3|edge|e:84cb546784fe5c019bdb5479d61152cb|d339a35f3950bde99b50a6f6a749784de32ac5e1c0cddf0f6d8ecdc11a3c4f97',#12,#16,#388,.T.);
#390=SURFACE_CURVE('',#117,(#213,#295),.PCURVE_S1.);
#391=EDGE_CURVE('OSCAD_TOPO/3|edge|e:b9cc014c903377ee40ca3d58d7569c41|91a24fe524177ff0369a1f5ba8a9a391e498ee103ccbdfe990161e599978fe19',#6,#24,#390,.T.);
#392=SURFACE_CURVE('',#120,(#290,#340),.PCURVE_S1.);
#393=EDGE_CURVE('OSCAD_TOPO/3|edge|e:bccbbd49d63dc10bd2f4ecbc64d68f86|2940cc4eceb4cf015e9925195a0bfb7d799ce79089576bbe7e400abd989d3d6f',#16,#24,#392,.T.);
#394=SURFACE_CURVE('',#123,(#203,#239),.PCURVE_S1.);
#395=EDGE_CURVE('OSCAD_TOPO/3|edge|e:0c5c5ba5fa7671388612c78fd1c1e629|92ca97676841bd9db01de43e0b162e189c31863efe17d86edfb6dfacb54facad',#8,#22,#394,.T.);
#396=SURFACE_CURVE('',#126,(#198,#325),.PCURVE_S1.);
#397=EDGE_CURVE('OSCAD_TOPO/3|edge|e:c0d10c252f52e8e419d76853d990f155|5afc79f7408822ebadb1c821c3b564039c7adfe2b61f85001b87ad848aee7192',#18,#22,#396,.T.);
#398=SURFACE_CURVE('',#129,(#188,#224),.PCURVE_S1.);
#399=EDGE_CURVE('OSCAD_TOPO/3|edge|e:db626431b8206c9d8c81270a5dc03580|6900f778ddb8d1bcd1b681efc3eab9e889d2abb260fc7d594e9dc428529049cd',#8,#26,#398,.T.);
#400=SURFACE_CURVE('',#132,(#193,#350),.PCURVE_S1.);
#401=EDGE_CURVE('OSCAD_TOPO/3|edge|e:c560b448b4c251c4eddefe12f0b66e52|1789ecc346829b5f9080f591c81c7db35885e4bd98f5e9d3f7f26702a558d7eb',#18,#26,#400,.T.);
#402=SURFACE_CURVE('',#136,(#173,#315),.PCURVE_S1.);
#403=EDGE_CURVE('OSCAD_TOPO/3|edge|e:5e275812594a7806e75f8f55250776b8|ac2bc089a7f4c8c67ee914e2cce7770d795d1e9a3cd9b77b3dcd995deb9d628d',#10,#12,#402,.T.);
#404=SURFACE_CURVE('',#140,(#305,#366),.PCURVE_S1.);
#405=EDGE_CURVE('OSCAD_TOPO/3|edge|e:569e97f61d1795e98416d756059752ba|f7956db1919e42899d0e9d4cb0e2175f834c29ecd267cacd98b2fe3fae74735d',#14,#16,#404,.T.);
#406=SURFACE_CURVE('',#144,(#330,#371),.PCURVE_S1.);
#407=EDGE_CURVE('OSCAD_TOPO/3|edge|e:8897833a09780f1ba3ab83464062af20|7396e3567679d6c38ef9121d41f5ef17372883a607b4f3c8241fbba2ad645a97',#14,#18,#406,.T.);
#408=SURFACE_CURVE('',#148,(#345,#360),.PCURVE_S1.);
#409=EDGE_CURVE('OSCAD_TOPO/3|edge|e:569f56f0a75de0c71e96edc7284d8690|326bb28a6734e670e3ae330758d1c78465a251390564e677458d59cccfc22a97',#16,#18,#408,.T.);
#410=SURFACE_CURVE('',#152,(#245,#320),.PCURVE_S1.);
#411=EDGE_CURVE('OSCAD_TOPO/3|edge|e:9800e6313d1abacfa8b3985062d6a671|c67800b655ee678aa4c5c0d6b202dae422d9a8842f02226f8796dffcf01bfa9e',#20,#22,#410,.T.);
#412=SURFACE_CURVE('',#156,(#219,#355),.PCURVE_S1.);
#413=EDGE_CURVE('OSCAD_TOPO/3|edge|e:83c877b74c93e9d9992f21a32731ecef|ae69813f4bcd379a087ab78fd03b5ec34ed4bed9f83dd51be64f8062d8527963',#24,#26,#412,.T.);
#414=ORIENTED_EDGE('',*,*,#373,.T.);
#415=ORIENTED_EDGE('',*,*,#375,.T.);
#416=ORIENTED_EDGE('',*,*,#403,.T.);
#417=ORIENTED_EDGE('',*,*,#377,.F.);
#418=ORIENTED_EDGE('',*,*,#379,.F.);
#419=EDGE_LOOP('OSCAD_TOPO/3|loop|l:38d63846de29baf7348e78035a73a68d|0f83460e74106d47d63f23a1f35de91ed3b072fe533876f96b531bacab2f6972',(#414,#415,#416,#417,#418));
#420=ORIENTED_EDGE('',*,*,#399,.T.);
#421=ORIENTED_EDGE('',*,*,#401,.F.);
#422=ORIENTED_EDGE('',*,*,#397,.T.);
#423=ORIENTED_EDGE('',*,*,#395,.F.);
#424=EDGE_LOOP('OSCAD_TOPO/3|loop|l:a34543289c3c1ae5dcc89139dd08611a|474e779edd55595dfad1b80f6385ac26e00a47a76e8b5299d9c921d07c635333',(#420,#421,#422,#423));
#425=ORIENTED_EDGE('',*,*,#379,.T.);
#426=ORIENTED_EDGE('',*,*,#391,.T.);
#427=ORIENTED_EDGE('',*,*,#413,.T.);
#428=ORIENTED_EDGE('',*,*,#399,.F.);
#429=ORIENTED_EDGE('',*,*,#381,.F.);
#430=EDGE_LOOP('OSCAD_TOPO/3|loop|l:ae2e878af132f97420fe7c9df7050551|43f86966154c3304c06adada1a65e1a7178b46c4f383b5c92647db6d4bf95c08',(#425,#426,#427,#428,#429));
#431=ORIENTED_EDGE('',*,*,#381,.T.);
#432=ORIENTED_EDGE('',*,*,#395,.T.);
#433=ORIENTED_EDGE('',*,*,#411,.F.);
#434=ORIENTED_EDGE('',*,*,#383,.F.);
#435=ORIENTED_EDGE('',*,*,#373,.F.);
#436=EDGE_LOOP('OSCAD_TOPO/3|loop|l:a996f4cbaf19c96fd4efc744fa57120a|ba60469a41b5e36080ce123ee198f7835d993cd7a5180b27a1002baf7d246630',(#431,#432,#433,#434,#435));
#437=ORIENTED_EDGE('',*,*,#383,.T.);
#438=ORIENTED_EDGE('',*,*,#385,.F.);
#439=ORIENTED_EDGE('',*,*,#387,.F.);
#440=ORIENTED_EDGE('',*,*,#375,.F.);
#441=EDGE_LOOP('OSCAD_TOPO/3|loop|l:229c53e24ea5bff62068c2741743709c|72ac580c0b9a170ef01b3036f8ccdb17b3105f3e4b4231974d8b0c15eb758e04',(#437,#438,#439,#440));
#442=ORIENTED_EDGE('',*,*,#377,.T.);
#443=ORIENTED_EDGE('',*,*,#389,.T.);
#444=ORIENTED_EDGE('',*,*,#393,.T.);
#445=ORIENTED_EDGE('',*,*,#391,.F.);
#446=EDGE_LOOP('OSCAD_TOPO/3|loop|l:52de7e5216fe22bdc672d431eb957ac1|9b44b96bde54926d84fe88e171e76df602623c5c3d6380b014d9d3548ecbba88',(#442,#443,#444,#445));
#447=ORIENTED_EDGE('',*,*,#387,.T.);
#448=ORIENTED_EDGE('',*,*,#405,.T.);
#449=ORIENTED_EDGE('',*,*,#389,.F.);
#450=ORIENTED_EDGE('',*,*,#403,.F.);
#451=EDGE_LOOP('OSCAD_TOPO/3|loop|l:c907afbd5279522e855b80628b2224c1|50881ef91fbb8cb6fd0fb961287e227e9c724d2de5a802fa6ead7bf1a28dfe41',(#447,#448,#449,#450));
#452=ORIENTED_EDGE('',*,*,#411,.T.);
#453=ORIENTED_EDGE('',*,*,#397,.F.);
#454=ORIENTED_EDGE('',*,*,#407,.F.);
#455=ORIENTED_EDGE('',*,*,#385,.T.);
#456=EDGE_LOOP('OSCAD_TOPO/3|loop|l:f19ba275c11baee0298587ca9e621cda|48742776ea8fa96da95284ced93f6340deadfe5fd05bbfc677250a90eaf91955',(#452,#453,#454,#455));
#457=ORIENTED_EDGE('',*,*,#393,.F.);
#458=ORIENTED_EDGE('',*,*,#409,.T.);
#459=ORIENTED_EDGE('',*,*,#401,.T.);
#460=ORIENTED_EDGE('',*,*,#413,.F.);
#461=EDGE_LOOP('OSCAD_TOPO/3|loop|l:fa201c4449eeaaff188f4f802a3852f3|579c267d4fa0ed98c7b3b885b9cee776e1018ceeb7f733a08e8eebf33d897f03',(#457,#458,#459,#460));
#462=ORIENTED_EDGE('',*,*,#409,.F.);
#463=ORIENTED_EDGE('',*,*,#405,.F.);
#464=ORIENTED_EDGE('',*,*,#407,.T.);
#465=EDGE_LOOP('OSCAD_TOPO/3|loop|l:38a3150ac1c6bdfcd7c9aae6c305c76f|d87dc9566145b8356304e72c79c37c465e594db25f3c9229d348474f5a62734c',(#462,#463,#464));
#466=FACE_OUTER_BOUND('',#419,.T.);
#467=ADVANCED_FACE('OSCAD_TOPO/3|face|f:baa65f7fce6994729316e24c5373a291|eaee4e4391acceda1a7fc7155c3a0b4115240b8532859d6af23babbc281b862a',(#466),#31,.T.);
#468=FACE_OUTER_BOUND('',#424,.T.);
#469=ADVANCED_FACE('OSCAD_TOPO/3|face|f:952cfd13e320bb1bb72feba833fed737|5e89888e8b0eaab76abcd4f8d653853007b4c55b84fe0b34c6639df9908fdae6',(#468),#36,.T.);
#470=FACE_OUTER_BOUND('',#430,.T.);
#471=ADVANCED_FACE('OSCAD_TOPO/3|face|f:00cc86de84457397495bf0647e28ac94|06b5a1a82b973279f0fd436af73e9d41d51f33917cd4993728f3f3b176297497',(#470),#41,.T.);
#472=FACE_OUTER_BOUND('',#436,.T.);
#473=ADVANCED_FACE('OSCAD_TOPO/3|face|f:eba5293cd5d08e9aa6fd73b8d1d385e1|22029559c9992414d63cdddbfd996b456232607ea10e5017a2b33526dd98b9d2',(#472),#46,.T.);
#474=FACE_OUTER_BOUND('',#441,.T.);
#475=ADVANCED_FACE('OSCAD_TOPO/3|face|f:5e4e6c2e2419aa47305c181966fbd321|9efa5221c5ccaf4fcec9ca42f17d31b1777608f7f0e773f9696d0efac1205c1f',(#474),#51,.T.);
#476=FACE_OUTER_BOUND('',#446,.T.);
#477=ADVANCED_FACE('OSCAD_TOPO/3|face|f:9efb5313a76e63013cb842b435a1ae34|dece1d662a6ecb5b9d0a386fb35ccc3dd4de7351c8da8e756bcc3db43657d8c6',(#476),#56,.T.);
#478=FACE_OUTER_BOUND('',#451,.T.);
#479=ADVANCED_FACE('OSCAD_TOPO/3|face|f:65334f99e7f80502aa6dfdbbf26bd98c|a19691ca5d6bfb6303bc86424e430673e700961d0651c4088350b46d5438ed35',(#478),#63,.T.);
#480=FACE_OUTER_BOUND('',#456,.T.);
#481=ADVANCED_FACE('OSCAD_TOPO/3|face|f:6d570a262d4ef068df0fd0b6aabf24f8|1f666cd686791f73693be7112d7826dc7effc56ec20f286f341101c50d55c673',(#480),#70,.T.);
#482=FACE_OUTER_BOUND('',#461,.T.);
#483=ADVANCED_FACE('OSCAD_TOPO/3|face|f:940ce6d25200c53552095270cdda0161|f21bf10f35b288b4a74c0a567236329bbc784f7011f7dc9b633cf3e414a28efc',(#482),#77,.T.);
#484=FACE_OUTER_BOUND('',#465,.T.);
#485=ADVANCED_FACE('OSCAD_TOPO/3|face|f:76280a6b39cc21b23fd39dab2b2f0673|0b0071821220a844e9a2e1bf593c987e6eb45aca42a7da210dc9f5438a97a5b9',(#484),#87,.T.);
#486=CLOSED_SHELL('OSCAD_TOPO/3|shell|s:e1ccbbb9569cc4ef8f66ecda1bbcc18e|3be7ed5c25f5f38b7cc0684785568d8b9ab321d125166d9f4d955af8bc9adfc1',(#467,#469,#471,#473,#475,#477,#479,#481,#483,#485));
#487=MANIFOLD_SOLID_BREP('OSCAD_TOPO/3|body|b:1a8d9f5a7cb18a2767c6f8841a168afd|58781869c5ab281f944dccb6c482b3f77d3fcbda0825aac74e9ed1a02c766d6f',#486);
#488=(LENGTH_UNIT()NAMED_UNIT(*)SI_UNIT(.MILLI.,.METRE.));
#489=UNCERTAINTY_MEASURE_WITH_UNIT(LENGTH_MEASURE(9.99999999999999955E-8),#488,'distance_accuracy_value','');
#490=(GEOMETRIC_REPRESENTATION_CONTEXT(3)GLOBAL_UNCERTAINTY_ASSIGNED_CONTEXT((#489))GLOBAL_UNIT_ASSIGNED_CONTEXT((#488))REPRESENTATION_CONTEXT('','3D'));
#491=ADVANCED_BREP_SHAPE_REPRESENTATION('',(#487),#490);
#492=APPLICATION_CONTEXT('managed model based 3d engineering');
#493=PRODUCT_CONTEXT('',#492,'mechanical');
#494=PRODUCT('model','model','',(#493));
#495=PRODUCT_DEFINITION_FORMATION('1','',#494);
#496=PRODUCT_DEFINITION_CONTEXT('part definition',#492,'design');
#497=PRODUCT_DEFINITION('design','',#495,#496);
#498=PRODUCT_DEFINITION_SHAPE('','',#497);
#499=SHAPE_DEFINITION_REPRESENTATION(#498,#491);
ENDSEC;
END-ISO-10303-21;
