ISO-10303-21;
HEADER;
FILE_DESCRIPTION(('OpenSCAD Viewer retained AP242 B-rep'),'2;1');
FILE_NAME('model.step','',(''),(''),'OpenSCAD Viewer','OpenSCAD Viewer','');
FILE_SCHEMA(('AP242_MANAGED_MODEL_BASED_3D_ENGINEERING_MIM_LF'));
ENDSEC;
DATA;
#1=CARTESIAN_POINT('',(3.00000000000000000E0,3.00000000000000000E0,4.00000000000000000E0));
#2=VERTEX_POINT('OSCAD_TOPO/3|vertex|v:53a464579622ecae7631e4082e630b38|14d7b7bfc4f503382769214230c513b1797555b1ebe7beddd3dba74267e6137b',#1);
#3=CARTESIAN_POINT('',(-7.00000000000000000E0,3.00000000000000000E0,4.00000000000000000E0));
#4=VERTEX_POINT('OSCAD_TOPO/3|vertex|v:b2279a1257c4fcf496396948530a5725|69736b220b53d84fa8b8f643d181f78c74deeefbc7aa414638c39b058338d8f7',#3);
#5=CARTESIAN_POINT('',(3.00000000000000000E0,1.10000000000000000E1,4.00000000000000000E0));
#6=VERTEX_POINT('OSCAD_TOPO/3|vertex|v:06d9911279025fdc180dc0c24a30cc22|dcf2909c4ac8e4e4de619222d9518bf0f54a74692cf28e897ad03ab0ea8a0fb2',#5);
#7=CARTESIAN_POINT('',(3.00000000000000000E0,3.00000000000000000E0,-2.00000000000000000E0));
#8=VERTEX_POINT('OSCAD_TOPO/3|vertex|v:08a69e9d487b9d2cca0fea9e5bab1bae|2122d0861c061d32e6dd1bbf745308449de522badbd407c6558c663ed3c38f30',#7);
#9=CARTESIAN_POINT('',(-7.00000000000000000E0,1.00000000000000000E1,4.00000000000000000E0));
#10=VERTEX_POINT('OSCAD_TOPO/3|vertex|v:a31aaf7026681c4539e3515d69fa5f54|b6eef52c4be780e242cdce442df4498940ddd578cbf1868f393e5ad327569396',#9);
#11=CARTESIAN_POINT('',(-6.00000000000000000E0,1.10000000000000000E1,4.00000000000000000E0));
#12=VERTEX_POINT('OSCAD_TOPO/3|vertex|v:a521f7d856a5a155e09986d2a51b59a9|8111e34427713eda001cdb80ada8465096dd763ed45fe695dcd7a9c647bab7e7',#11);
#13=CARTESIAN_POINT('',(-7.00000000000000000E0,1.00000000000000000E1,-1.00000000000000000E0));
#14=VERTEX_POINT('OSCAD_TOPO/3|vertex|v:28708da56233ad86cacabb0ede166f2b|8119ca8ec9e43a60e9aca1292fa30eca174433e5f88dbd9bbff8f6ba7494152e',#13);
#15=CARTESIAN_POINT('',(-6.00000000000000000E0,1.10000000000000000E1,-1.00000000000000000E0));
#16=VERTEX_POINT('OSCAD_TOPO/3|vertex|v:a00ab22bf2e729b1f99875639f3b2b24|d975165164543b591272a77e6641b29504a266b280218ca854bd23c873102cc8',#15);
#17=CARTESIAN_POINT('',(-6.00000000000000000E0,1.00000000000000000E1,-2.00000000000000000E0));
#18=VERTEX_POINT('OSCAD_TOPO/3|vertex|v:3a0cb65f1326d10383fb99917720342d|ba776ae12710b58418a3f5849e6326c18ba01bb91f195161a173778ee28cec87',#17);
#19=CARTESIAN_POINT('',(-7.00000000000000000E0,3.00000000000000000E0,-1.00000000000000000E0));
#20=VERTEX_POINT('OSCAD_TOPO/3|vertex|v:2624ea20090476ea9b4c6bdc8d20526f|ba183e037354cbc756dadb20588f6304b8f158bfdb5e5a0c505b1a0bc9d8cfa4',#19);
#21=CARTESIAN_POINT('',(-6.00000000000000000E0,3.00000000000000000E0,-2.00000000000000000E0));
#22=VERTEX_POINT('OSCAD_TOPO/3|vertex|v:608c5cbeb17b01b3d106d2b35656f52f|ae01cf44d2998dff6ab4c8356491b906f840fe36948ab4a4d594733003f2036a',#21);
#23=CARTESIAN_POINT('',(3.00000000000000000E0,1.10000000000000000E1,-1.00000000000000000E0));
#24=VERTEX_POINT('OSCAD_TOPO/3|vertex|v:8d30fb804610bc373acb313fa3d60fed|5bc807f22e6cae67bc621003ce17fa52578240452e13404562b95c7440382041',#23);
#25=CARTESIAN_POINT('',(3.00000000000000000E0,1.00000000000000000E1,-2.00000000000000000E0));
#26=VERTEX_POINT('OSCAD_TOPO/3|vertex|v:89c6c4bbbe41b83b90b508dc48e33eb4|d02f2f337ed67cd985bb4c57876653adc614a18e607a566246b317e5094f6ee8',#25);
#27=CARTESIAN_POINT('',(-7.00000000000000000E0,3.00000000000000000E0,4.00000000000000000E0));
#28=CARTESIAN_POINT('',(-7.00000000000000000E0,1.10000000000000000E1,4.00000000000000000E0));
#29=CARTESIAN_POINT('',(3.00000000000000000E0,3.00000000000000000E0,4.00000000000000000E0));
#30=CARTESIAN_POINT('',(3.00000000000000000E0,1.10000000000000000E1,4.00000000000000000E0));
#31=B_SPLINE_SURFACE_WITH_KNOTS('',1,1,((#27,#28),(#29,#30)),.UNSPECIFIED.,.F.,.F.,.F.,(2,2),(2,2),(0.00000000000000000E0,1.00000000000000000E0),(0.00000000000000000E0,1.00000000000000000E0),.UNSPECIFIED.);
#32=CARTESIAN_POINT('',(3.00000000000000000E0,3.00000000000000000E0,-2.00000000000000000E0));
#33=CARTESIAN_POINT('',(3.00000000000000000E0,1.10000000000000000E1,-2.00000000000000000E0));
#34=CARTESIAN_POINT('',(-7.00000000000000000E0,3.00000000000000000E0,-2.00000000000000000E0));
#35=CARTESIAN_POINT('',(-7.00000000000000000E0,1.10000000000000000E1,-2.00000000000000000E0));
#36=B_SPLINE_SURFACE_WITH_KNOTS('',1,1,((#32,#33),(#34,#35)),.UNSPECIFIED.,.F.,.F.,.F.,(2,2),(2,2),(0.00000000000000000E0,1.00000000000000000E0),(0.00000000000000000E0,1.00000000000000000E0),.UNSPECIFIED.);
#37=CARTESIAN_POINT('',(3.00000000000000000E0,1.10000000000000000E1,4.00000000000000000E0));
#38=CARTESIAN_POINT('',(3.00000000000000000E0,1.10000000000000000E1,-2.00000000000000000E0));
#39=CARTESIAN_POINT('',(3.00000000000000000E0,3.00000000000000000E0,4.00000000000000000E0));
#40=CARTESIAN_POINT('',(3.00000000000000000E0,3.00000000000000000E0,-2.00000000000000000E0));
#41=B_SPLINE_SURFACE_WITH_KNOTS('',1,1,((#37,#38),(#39,#40)),.UNSPECIFIED.,.F.,.F.,.F.,(2,2),(2,2),(0.00000000000000000E0,1.00000000000000000E0),(0.00000000000000000E0,1.00000000000000000E0),.UNSPECIFIED.);
#42=CARTESIAN_POINT('',(3.00000000000000000E0,3.00000000000000000E0,4.00000000000000000E0));
#43=CARTESIAN_POINT('',(3.00000000000000000E0,3.00000000000000000E0,-2.00000000000000000E0));
#44=CARTESIAN_POINT('',(-7.00000000000000000E0,3.00000000000000000E0,4.00000000000000000E0));
#45=CARTESIAN_POINT('',(-7.00000000000000000E0,3.00000000000000000E0,-2.00000000000000000E0));
#46=B_SPLINE_SURFACE_WITH_KNOTS('',1,1,((#42,#43),(#44,#45)),.UNSPECIFIED.,.F.,.F.,.F.,(2,2),(2,2),(0.00000000000000000E0,1.00000000000000000E0),(0.00000000000000000E0,1.00000000000000000E0),.UNSPECIFIED.);
#47=CARTESIAN_POINT('',(-7.00000000000000000E0,3.00000000000000000E0,4.00000000000000000E0));
#48=CARTESIAN_POINT('',(-7.00000000000000000E0,3.00000000000000000E0,-2.00000000000000000E0));
#49=CARTESIAN_POINT('',(-7.00000000000000000E0,1.10000000000000000E1,4.00000000000000000E0));
#50=CARTESIAN_POINT('',(-7.00000000000000000E0,1.10000000000000000E1,-2.00000000000000000E0));
#51=B_SPLINE_SURFACE_WITH_KNOTS('',1,1,((#47,#48),(#49,#50)),.UNSPECIFIED.,.F.,.F.,.F.,(2,2),(2,2),(0.00000000000000000E0,1.00000000000000000E0),(0.00000000000000000E0,1.00000000000000000E0),.UNSPECIFIED.);
#52=CARTESIAN_POINT('',(-7.00000000000000000E0,1.10000000000000000E1,4.00000000000000000E0));
#53=CARTESIAN_POINT('',(-7.00000000000000000E0,1.10000000000000000E1,-2.00000000000000000E0));
#54=CARTESIAN_POINT('',(3.00000000000000000E0,1.10000000000000000E1,4.00000000000000000E0));
#55=CARTESIAN_POINT('',(3.00000000000000000E0,1.10000000000000000E1,-2.00000000000000000E0));
#56=B_SPLINE_SURFACE_WITH_KNOTS('',1,1,((#52,#53),(#54,#55)),.UNSPECIFIED.,.F.,.F.,.F.,(2,2),(2,2),(0.00000000000000000E0,1.00000000000000000E0),(0.00000000000000000E0,1.00000000000000000E0),.UNSPECIFIED.);
#57=CARTESIAN_POINT('',(-7.00000000000000000E0,1.00000000000000000E1,4.00000000000000000E0));
#58=CARTESIAN_POINT('',(-7.00000000000000000E0,1.00000000000000000E1,-1.00000000000000000E0));
#59=CARTESIAN_POINT('',(-7.00000000000000000E0,1.10000000000000000E1,4.00000000000000000E0));
#60=CARTESIAN_POINT('',(-7.00000000000000000E0,1.10000000000000000E1,-1.00000000000000000E0));
#61=CARTESIAN_POINT('',(-6.00000000000000000E0,1.10000000000000000E1,4.00000000000000000E0));
#62=CARTESIAN_POINT('',(-6.00000000000000000E0,1.10000000000000000E1,-1.00000000000000000E0));
#63=(BOUNDED_SURFACE()B_SPLINE_SURFACE(2,1,((#57,#58),(#59,#60),(#61,#62)),.UNSPECIFIED.,.F.,.F.,.F.)B_SPLINE_SURFACE_WITH_KNOTS((3,3),(2,2),(0.00000000000000000E0,1.00000000000000000E0),(0.00000000000000000E0,1.00000000000000000E0),.UNSPECIFIED.)GEOMETRIC_REPRESENTATION_ITEM()RATIONAL_B_SPLINE_SURFACE(((1.00000000000000000E0,1.00000000000000000E0),(7.07106781186547573E-1,7.07106781186547573E-1),(1.00000000000000000E0,1.00000000000000000E0)))REPRESENTATION_ITEM('')SURFACE());
#64=CARTESIAN_POINT('',(-6.00000000000000000E0,3.00000000000000000E0,-2.00000000000000000E0));
#65=CARTESIAN_POINT('',(-6.00000000000000000E0,1.00000000000000000E1,-2.00000000000000000E0));
#66=CARTESIAN_POINT('',(-7.00000000000000000E0,3.00000000000000000E0,-2.00000000000000000E0));
#67=CARTESIAN_POINT('',(-7.00000000000000000E0,1.00000000000000000E1,-2.00000000000000000E0));
#68=CARTESIAN_POINT('',(-7.00000000000000000E0,3.00000000000000000E0,-1.00000000000000000E0));
#69=CARTESIAN_POINT('',(-7.00000000000000000E0,1.00000000000000000E1,-1.00000000000000000E0));
#70=(BOUNDED_SURFACE()B_SPLINE_SURFACE(2,1,((#64,#65),(#66,#67),(#68,#69)),.UNSPECIFIED.,.F.,.F.,.F.)B_SPLINE_SURFACE_WITH_KNOTS((3,3),(2,2),(0.00000000000000000E0,1.00000000000000000E0),(0.00000000000000000E0,1.00000000000000000E0),.UNSPECIFIED.)GEOMETRIC_REPRESENTATION_ITEM()RATIONAL_B_SPLINE_SURFACE(((1.00000000000000000E0,1.00000000000000000E0),(1.00000000000000000E0,1.00000000000000000E0),(2.00000000000000000E0,2.00000000000000000E0)))REPRESENTATION_ITEM('')SURFACE());
#71=CARTESIAN_POINT('',(3.00000000000000000E0,1.10000000000000000E1,-1.00000000000000000E0));
#72=CARTESIAN_POINT('',(-6.00000000000000000E0,1.10000000000000000E1,-1.00000000000000000E0));
#73=CARTESIAN_POINT('',(3.00000000000000000E0,1.10000000000000000E1,-2.00000000000000000E0));
#74=CARTESIAN_POINT('',(-6.00000000000000000E0,1.10000000000000000E1,-2.00000000000000000E0));
#75=CARTESIAN_POINT('',(3.00000000000000000E0,1.00000000000000000E1,-2.00000000000000000E0));
#76=CARTESIAN_POINT('',(-6.00000000000000000E0,1.00000000000000000E1,-2.00000000000000000E0));
#77=(BOUNDED_SURFACE()B_SPLINE_SURFACE(2,1,((#71,#72),(#73,#74),(#75,#76)),.UNSPECIFIED.,.F.,.F.,.F.)B_SPLINE_SURFACE_WITH_KNOTS((3,3),(2,2),(0.00000000000000000E0,1.00000000000000000E0),(0.00000000000000000E0,1.00000000000000000E0),.UNSPECIFIED.)GEOMETRIC_REPRESENTATION_ITEM()RATIONAL_B_SPLINE_SURFACE(((2.00000000000000000E0,2.00000000000000000E0),(1.00000000000000000E0,1.00000000000000000E0),(1.00000000000000000E0,1.00000000000000000E0)))REPRESENTATION_ITEM('')SURFACE());
#78=CARTESIAN_POINT('',(-6.00000000000000000E0,1.00000000000000000E1,-2.00000000000000000E0));
#79=CARTESIAN_POINT('',(-6.00000000000000000E0,1.10000000000000000E1,-2.00000000000000000E0));
#80=CARTESIAN_POINT('',(-6.00000000000000000E0,1.10000000000000000E1,-1.00000000000000000E0));
#81=CARTESIAN_POINT('',(-7.00000000000000000E0,1.00000000000000000E1,-2.00000000000000000E0));
#82=CARTESIAN_POINT('',(-7.00000000000000000E0,1.10000000000000000E1,-2.00000000000000000E0));
#83=CARTESIAN_POINT('',(-6.50000000000000000E0,1.10000000000000000E1,-1.00000000000000000E0));
#84=CARTESIAN_POINT('',(-7.00000000000000000E0,1.00000000000000000E1,-1.00000000000000000E0));
#85=CARTESIAN_POINT('',(-7.00000000000000000E0,1.05000000000000000E1,-1.00000000000000000E0));
#86=CARTESIAN_POINT('',(-6.66666666666666607E0,1.06666666666666661E1,-6.66666666666666519E-1));
#87=(BOUNDED_SURFACE()B_SPLINE_SURFACE(2,2,((#78,#79,#80),(#81,#82,#83),(#84,#85,#86)),.UNSPECIFIED.,.F.,.F.,.F.)B_SPLINE_SURFACE_WITH_KNOTS((3,3),(3,3),(0.00000000000000000E0,1.00000000000000000E0),(0.00000000000000000E0,1.00000000000000000E0),.UNSPECIFIED.)GEOMETRIC_REPRESENTATION_ITEM()RATIONAL_B_SPLINE_SURFACE(((1.00000000000000000E0,1.00000000000000000E0,2.00000000000000000E0),(1.00000000000000000E0,1.00000000000000000E0,2.00000000000000000E0),(2.00000000000000000E0,2.00000000000000000E0,3.00000000000000000E0)))REPRESENTATION_ITEM('')SURFACE());
#88=CARTESIAN_POINT('',(3.00000000000000000E0,3.00000000000000000E0,4.00000000000000000E0));
#89=CARTESIAN_POINT('',(-7.00000000000000000E0,3.00000000000000000E0,4.00000000000000000E0));
#90=B_SPLINE_CURVE_WITH_KNOTS('',1,(#88,#89),.UNSPECIFIED.,.F.,.F.,(2,2),(0.00000000000000000E0,1.00000000000000000E0),.UNSPECIFIED.);
#91=CARTESIAN_POINT('',(-7.00000000000000000E0,3.00000000000000000E0,4.00000000000000000E0));
#92=CARTESIAN_POINT('',(-7.00000000000000000E0,1.00000000000000000E1,4.00000000000000000E0));
#93=B_SPLINE_CURVE_WITH_KNOTS('',1,(#91,#92),.UNSPECIFIED.,.F.,.F.,(2,2),(0.00000000000000000E0,1.00000000000000000E0),.UNSPECIFIED.);
#94=CARTESIAN_POINT('',(3.00000000000000000E0,1.10000000000000000E1,4.00000000000000000E0));
#95=CARTESIAN_POINT('',(-6.00000000000000000E0,1.10000000000000000E1,4.00000000000000000E0));
#96=B_SPLINE_CURVE_WITH_KNOTS('',1,(#94,#95),.UNSPECIFIED.,.F.,.F.,(2,2),(0.00000000000000000E0,1.00000000000000000E0),.UNSPECIFIED.);
#97=CARTESIAN_POINT('',(3.00000000000000000E0,3.00000000000000000E0,4.00000000000000000E0));
#98=CARTESIAN_POINT('',(3.00000000000000000E0,1.10000000000000000E1,4.00000000000000000E0));
#99=B_SPLINE_CURVE_WITH_KNOTS('',1,(#97,#98),.UNSPECIFIED.,.F.,.F.,(2,2),(0.00000000000000000E0,1.00000000000000000E0),.UNSPECIFIED.);
#100=CARTESIAN_POINT('',(3.00000000000000000E0,3.00000000000000000E0,4.00000000000000000E0));
#101=CARTESIAN_POINT('',(3.00000000000000000E0,3.00000000000000000E0,-2.00000000000000000E0));
#102=B_SPLINE_CURVE_WITH_KNOTS('',1,(#100,#101),.UNSPECIFIED.,.F.,.F.,(2,2),(0.00000000000000000E0,1.00000000000000000E0),.UNSPECIFIED.);
#103=CARTESIAN_POINT('',(-7.00000000000000000E0,3.00000000000000000E0,4.00000000000000000E0));
#104=CARTESIAN_POINT('',(-7.00000000000000000E0,3.00000000000000000E0,-1.00000000000000000E0));
#105=B_SPLINE_CURVE_WITH_KNOTS('',1,(#103,#104),.UNSPECIFIED.,.F.,.F.,(2,2),(0.00000000000000000E0,1.00000000000000000E0),.UNSPECIFIED.);
#106=CARTESIAN_POINT('',(-7.00000000000000000E0,1.00000000000000000E1,-1.00000000000000000E0));
#107=CARTESIAN_POINT('',(-7.00000000000000000E0,3.00000000000000000E0,-1.00000000000000000E0));
#108=B_SPLINE_CURVE_WITH_KNOTS('',1,(#106,#107),.UNSPECIFIED.,.F.,.F.,(2,2),(0.00000000000000000E0,1.00000000000000000E0),.UNSPECIFIED.);
#109=CARTESIAN_POINT('',(-7.00000000000000000E0,1.00000000000000000E1,4.00000000000000000E0));
#110=CARTESIAN_POINT('',(-7.00000000000000000E0,1.00000000000000000E1,-1.00000000000000000E0));
#111=B_SPLINE_CURVE_WITH_KNOTS('',1,(#109,#110),.UNSPECIFIED.,.F.,.F.,(2,2),(0.00000000000000000E0,1.00000000000000000E0),.UNSPECIFIED.);
#112=CARTESIAN_POINT('',(-6.00000000000000000E0,1.10000000000000000E1,4.00000000000000000E0));
#113=CARTESIAN_POINT('',(-6.00000000000000000E0,1.10000000000000000E1,-1.00000000000000000E0));
#114=B_SPLINE_CURVE_WITH_KNOTS('',1,(#112,#113),.UNSPECIFIED.,.F.,.F.,(2,2),(0.00000000000000000E0,1.00000000000000000E0),.UNSPECIFIED.);
#115=CARTESIAN_POINT('',(3.00000000000000000E0,1.10000000000000000E1,4.00000000000000000E0));
#116=CARTESIAN_POINT('',(3.00000000000000000E0,1.10000000000000000E1,-1.00000000000000000E0));
#117=B_SPLINE_CURVE_WITH_KNOTS('',1,(#115,#116),.UNSPECIFIED.,.F.,.F.,(2,2),(0.00000000000000000E0,1.00000000000000000E0),.UNSPECIFIED.);
#118=CARTESIAN_POINT('',(-6.00000000000000000E0,1.10000000000000000E1,-1.00000000000000000E0));
#119=CARTESIAN_POINT('',(3.00000000000000000E0,1.10000000000000000E1,-1.00000000000000000E0));
#120=B_SPLINE_CURVE_WITH_KNOTS('',1,(#118,#119),.UNSPECIFIED.,.F.,.F.,(2,2),(0.00000000000000000E0,1.00000000000000000E0),.UNSPECIFIED.);
#121=CARTESIAN_POINT('',(3.00000000000000000E0,3.00000000000000000E0,-2.00000000000000000E0));
#122=CARTESIAN_POINT('',(-6.00000000000000000E0,3.00000000000000000E0,-2.00000000000000000E0));
#123=B_SPLINE_CURVE_WITH_KNOTS('',1,(#121,#122),.UNSPECIFIED.,.F.,.F.,(2,2),(0.00000000000000000E0,1.00000000000000000E0),.UNSPECIFIED.);
#124=CARTESIAN_POINT('',(-6.00000000000000000E0,1.00000000000000000E1,-2.00000000000000000E0));
#125=CARTESIAN_POINT('',(-6.00000000000000000E0,3.00000000000000000E0,-2.00000000000000000E0));
#126=B_SPLINE_CURVE_WITH_KNOTS('',1,(#124,#125),.UNSPECIFIED.,.F.,.F.,(2,2),(0.00000000000000000E0,1.00000000000000000E0),.UNSPECIFIED.);
#127=CARTESIAN_POINT('',(3.00000000000000000E0,3.00000000000000000E0,-2.00000000000000000E0));
#128=CARTESIAN_POINT('',(3.00000000000000000E0,1.00000000000000000E1,-2.00000000000000000E0));
#129=B_SPLINE_CURVE_WITH_KNOTS('',1,(#127,#128),.UNSPECIFIED.,.F.,.F.,(2,2),(0.00000000000000000E0,1.00000000000000000E0),.UNSPECIFIED.);
#130=CARTESIAN_POINT('',(-6.00000000000000000E0,1.00000000000000000E1,-2.00000000000000000E0));
#131=CARTESIAN_POINT('',(3.00000000000000000E0,1.00000000000000000E1,-2.00000000000000000E0));
#132=B_SPLINE_CURVE_WITH_KNOTS('',1,(#130,#131),.UNSPECIFIED.,.F.,.F.,(2,2),(0.00000000000000000E0,1.00000000000000000E0),.UNSPECIFIED.);
#133=CARTESIAN_POINT('',(-7.00000000000000000E0,1.00000000000000000E1,4.00000000000000000E0));
#134=CARTESIAN_POINT('',(-7.00000000000000000E0,1.10000000000000000E1,4.00000000000000000E0));
#135=CARTESIAN_POINT('',(-6.00000000000000000E0,1.10000000000000000E1,4.00000000000000000E0));
#136=(BOUNDED_CURVE()B_SPLINE_CURVE(2,(#133,#134,#135),.UNSPECIFIED.,.F.,.F.)B_SPLINE_CURVE_WITH_KNOTS((3,3),(0.00000000000000000E0,1.00000000000000000E0),.UNSPECIFIED.)CURVE()GEOMETRIC_REPRESENTATION_ITEM()RATIONAL_B_SPLINE_CURVE((1.00000000000000000E0,7.07106781186547573E-1,1.00000000000000000E0))REPRESENTATION_ITEM(''));
#137=CARTESIAN_POINT('',(-7.00000000000000000E0,1.00000000000000000E1,-1.00000000000000000E0));
#138=CARTESIAN_POINT('',(-7.00000000000000000E0,1.10000000000000000E1,-1.00000000000000000E0));
#139=CARTESIAN_POINT('',(-6.00000000000000000E0,1.10000000000000000E1,-1.00000000000000000E0));
#140=(BOUNDED_CURVE()B_SPLINE_CURVE(2,(#137,#138,#139),.UNSPECIFIED.,.F.,.F.)B_SPLINE_CURVE_WITH_KNOTS((3,3),(0.00000000000000000E0,1.00000000000000000E0),.UNSPECIFIED.)CURVE()GEOMETRIC_REPRESENTATION_ITEM()RATIONAL_B_SPLINE_CURVE((1.00000000000000000E0,7.07106781186547573E-1,1.00000000000000000E0))REPRESENTATION_ITEM(''));
#141=CARTESIAN_POINT('',(-7.00000000000000000E0,1.00000000000000000E1,-1.00000000000000000E0));
#142=CARTESIAN_POINT('',(-7.00000000000000000E0,1.00000000000000000E1,-2.00000000000000000E0));
#143=CARTESIAN_POINT('',(-6.00000000000000000E0,1.00000000000000000E1,-2.00000000000000000E0));
#144=(BOUNDED_CURVE()B_SPLINE_CURVE(2,(#141,#142,#143),.UNSPECIFIED.,.F.,.F.)B_SPLINE_CURVE_WITH_KNOTS((3,3),(0.00000000000000000E0,1.00000000000000000E0),.UNSPECIFIED.)CURVE()GEOMETRIC_REPRESENTATION_ITEM()RATIONAL_B_SPLINE_CURVE((2.00000000000000000E0,1.00000000000000000E0,1.00000000000000000E0))REPRESENTATION_ITEM(''));
#145=CARTESIAN_POINT('',(-6.00000000000000000E0,1.10000000000000000E1,-1.00000000000000000E0));
#146=CARTESIAN_POINT('',(-6.00000000000000000E0,1.10000000000000000E1,-2.00000000000000000E0));
#147=CARTESIAN_POINT('',(-6.00000000000000000E0,1.00000000000000000E1,-2.00000000000000000E0));
#148=(BOUNDED_CURVE()B_SPLINE_CURVE(2,(#145,#146,#147),.UNSPECIFIED.,.F.,.F.)B_SPLINE_CURVE_WITH_KNOTS((3,3),(0.00000000000000000E0,1.00000000000000000E0),.UNSPECIFIED.)CURVE()GEOMETRIC_REPRESENTATION_ITEM()RATIONAL_B_SPLINE_CURVE((2.00000000000000000E0,1.00000000000000000E0,1.00000000000000000E0))REPRESENTATION_ITEM(''));
#149=CARTESIAN_POINT('',(-7.00000000000000000E0,3.00000000000000000E0,-1.00000000000000000E0));
#150=CARTESIAN_POINT('',(-7.00000000000000000E0,3.00000000000000000E0,-2.00000000000000000E0));
#151=CARTESIAN_POINT('',(-6.00000000000000000E0,3.00000000000000000E0,-2.00000000000000000E0));
#152=(BOUNDED_CURVE()B_SPLINE_CURVE(2,(#149,#150,#151),.UNSPECIFIED.,.F.,.F.)B_SPLINE_CURVE_WITH_KNOTS((3,3),(0.00000000000000000E0,1.00000000000000000E0),.UNSPECIFIED.)CURVE()GEOMETRIC_REPRESENTATION_ITEM()RATIONAL_B_SPLINE_CURVE((2.00000000000000000E0,1.00000000000000000E0,1.00000000000000000E0))REPRESENTATION_ITEM(''));
#153=CARTESIAN_POINT('',(3.00000000000000000E0,1.10000000000000000E1,-1.00000000000000000E0));
#154=CARTESIAN_POINT('',(3.00000000000000000E0,1.10000000000000000E1,-2.00000000000000000E0));
#155=CARTESIAN_POINT('',(3.00000000000000000E0,1.00000000000000000E1,-2.00000000000000000E0));
#156=(BOUNDED_CURVE()B_SPLINE_CURVE(2,(#153,#154,#155),.UNSPECIFIED.,.F.,.F.)B_SPLINE_CURVE_WITH_KNOTS((3,3),(0.00000000000000000E0,1.00000000000000000E0),.UNSPECIFIED.)CURVE()GEOMETRIC_REPRESENTATION_ITEM()RATIONAL_B_SPLINE_CURVE((2.00000000000000000E0,1.00000000000000000E0,1.00000000000000000E0))REPRESENTATION_ITEM(''));
#157=(GEOMETRIC_REPRESENTATION_CONTEXT(2)REPRESENTATION_CONTEXT('','2D'));
#158=CARTESIAN_POINT('',(1.00000000000000000E0,0.00000000000000000E0));
#159=CARTESIAN_POINT('',(1.00000000000000000E0,1.00000000000000000E0));
#160=B_SPLINE_CURVE_WITH_KNOTS('',1,(#158,#159),.UNSPECIFIED.,.F.,.F.,(2,2),(0.00000000000000000E0,1.00000000000000000E0),.UNSPECIFIED.);
#161=DEFINITIONAL_REPRESENTATION('',(#160),#157);
#162=PCURVE('',#31,#161);
#163=CARTESIAN_POINT('',(1.00000000000000000E0,1.00000000000000000E0));
#164=CARTESIAN_POINT('',(9.99999999999999778E-2,1.00000000000000000E0));
#165=B_SPLINE_CURVE_WITH_KNOTS('',1,(#163,#164),.UNSPECIFIED.,.F.,.F.,(2,2),(0.00000000000000000E0,1.00000000000000000E0),.UNSPECIFIED.);
#166=DEFINITIONAL_REPRESENTATION('',(#165),#157);
#167=PCURVE('',#31,#166);
#168=CARTESIAN_POINT('',(9.99999999999999778E-2,1.00000000000000000E0));
#169=CARTESIAN_POINT('',(0.00000000000000000E0,1.00000000000000000E0));
#170=CARTESIAN_POINT('',(0.00000000000000000E0,8.75000000000000000E-1));
#171=(BOUNDED_CURVE()B_SPLINE_CURVE(2,(#168,#169,#170),.UNSPECIFIED.,.F.,.F.)B_SPLINE_CURVE_WITH_KNOTS((3,3),(0.00000000000000000E0,1.00000000000000000E0),.UNSPECIFIED.)CURVE()GEOMETRIC_REPRESENTATION_ITEM()RATIONAL_B_SPLINE_CURVE((1.00000000000000000E0,7.07106781186547573E-1,1.00000000000000000E0))REPRESENTATION_ITEM(''));
#172=DEFINITIONAL_REPRESENTATION('',(#171),#157);
#173=PCURVE('',#31,#172);
#174=CARTESIAN_POINT('',(0.00000000000000000E0,8.75000000000000000E-1));
#175=CARTESIAN_POINT('',(0.00000000000000000E0,0.00000000000000000E0));
#176=B_SPLINE_CURVE_WITH_KNOTS('',1,(#174,#175),.UNSPECIFIED.,.F.,.F.,(2,2),(0.00000000000000000E0,1.00000000000000000E0),.UNSPECIFIED.);
#177=DEFINITIONAL_REPRESENTATION('',(#176),#157);
#178=PCURVE('',#31,#177);
#179=CARTESIAN_POINT('',(0.00000000000000000E0,0.00000000000000000E0));
#180=CARTESIAN_POINT('',(1.00000000000000000E0,0.00000000000000000E0));
#181=B_SPLINE_CURVE_WITH_KNOTS('',1,(#179,#180),.UNSPECIFIED.,.F.,.F.,(2,2),(0.00000000000000000E0,1.00000000000000000E0),.UNSPECIFIED.);
#182=DEFINITIONAL_REPRESENTATION('',(#181),#157);
#183=PCURVE('',#31,#182);
#184=CARTESIAN_POINT('',(0.00000000000000000E0,0.00000000000000000E0));
#185=CARTESIAN_POINT('',(9.00000000000000022E-1,0.00000000000000000E0));
#186=B_SPLINE_CURVE_WITH_KNOTS('',1,(#184,#185),.UNSPECIFIED.,.F.,.F.,(2,2),(0.00000000000000000E0,1.00000000000000000E0),.UNSPECIFIED.);
#187=DEFINITIONAL_REPRESENTATION('',(#186),#157);
#188=PCURVE('',#36,#187);
#189=CARTESIAN_POINT('',(9.00000000000000022E-1,0.00000000000000000E0));
#190=CARTESIAN_POINT('',(9.00000000000000022E-1,8.75000000000000000E-1));
#191=B_SPLINE_CURVE_WITH_KNOTS('',1,(#189,#190),.UNSPECIFIED.,.F.,.F.,(2,2),(0.00000000000000000E0,1.00000000000000000E0),.UNSPECIFIED.);
#192=DEFINITIONAL_REPRESENTATION('',(#191),#157);
#193=PCURVE('',#36,#192);
#194=CARTESIAN_POINT('',(9.00000000000000022E-1,8.75000000000000000E-1));
#195=CARTESIAN_POINT('',(0.00000000000000000E0,8.75000000000000000E-1));
#196=B_SPLINE_CURVE_WITH_KNOTS('',1,(#194,#195),.UNSPECIFIED.,.F.,.F.,(2,2),(0.00000000000000000E0,1.00000000000000000E0),.UNSPECIFIED.);
#197=DEFINITIONAL_REPRESENTATION('',(#196),#157);
#198=PCURVE('',#36,#197);
#199=CARTESIAN_POINT('',(0.00000000000000000E0,8.75000000000000000E-1));
#200=CARTESIAN_POINT('',(0.00000000000000000E0,0.00000000000000000E0));
#201=B_SPLINE_CURVE_WITH_KNOTS('',1,(#199,#200),.UNSPECIFIED.,.F.,.F.,(2,2),(0.00000000000000000E0,1.00000000000000000E0),.UNSPECIFIED.);
#202=DEFINITIONAL_REPRESENTATION('',(#201),#157);
#203=PCURVE('',#36,#202);
#204=CARTESIAN_POINT('',(1.00000000000000000E0,0.00000000000000000E0));
#205=CARTESIAN_POINT('',(1.00000000000000000E0,1.00000000000000000E0));
#206=B_SPLINE_CURVE_WITH_KNOTS('',1,(#204,#205),.UNSPECIFIED.,.F.,.F.,(2,2),(0.00000000000000000E0,1.00000000000000000E0),.UNSPECIFIED.);
#207=DEFINITIONAL_REPRESENTATION('',(#206),#157);
#208=PCURVE('',#41,#207);
#209=CARTESIAN_POINT('',(1.00000000000000000E0,1.00000000000000000E0));
#210=CARTESIAN_POINT('',(1.25000000000000000E-1,1.00000000000000000E0));
#211=B_SPLINE_CURVE_WITH_KNOTS('',1,(#209,#210),.UNSPECIFIED.,.F.,.F.,(2,2),(0.00000000000000000E0,1.00000000000000000E0),.UNSPECIFIED.);
#212=DEFINITIONAL_REPRESENTATION('',(#211),#157);
#213=PCURVE('',#41,#212);
#214=CARTESIAN_POINT('',(1.25000000000000000E-1,1.00000000000000000E0));
#215=CARTESIAN_POINT('',(0.00000000000000000E0,1.00000000000000000E0));
#216=CARTESIAN_POINT('',(0.00000000000000000E0,8.33333333333333370E-1));
#217=(BOUNDED_CURVE()B_SPLINE_CURVE(2,(#214,#215,#216),.UNSPECIFIED.,.F.,.F.)B_SPLINE_CURVE_WITH_KNOTS((3,3),(0.00000000000000000E0,1.00000000000000000E0),.UNSPECIFIED.)CURVE()GEOMETRIC_REPRESENTATION_ITEM()RATIONAL_B_SPLINE_CURVE((1.00000000000000000E0,1.00000000000000000E0,2.00000000000000000E0))REPRESENTATION_ITEM(''));
#218=DEFINITIONAL_REPRESENTATION('',(#217),#157);
#219=PCURVE('',#41,#218);
#220=CARTESIAN_POINT('',(0.00000000000000000E0,8.33333333333333370E-1));
#221=CARTESIAN_POINT('',(0.00000000000000000E0,0.00000000000000000E0));
#222=B_SPLINE_CURVE_WITH_KNOTS('',1,(#220,#221),.UNSPECIFIED.,.F.,.F.,(2,2),(0.00000000000000000E0,1.00000000000000000E0),.UNSPECIFIED.);
#223=DEFINITIONAL_REPRESENTATION('',(#222),#157);
#224=PCURVE('',#41,#223);
#225=CARTESIAN_POINT('',(0.00000000000000000E0,0.00000000000000000E0));
#226=CARTESIAN_POINT('',(1.00000000000000000E0,0.00000000000000000E0));
#227=B_SPLINE_CURVE_WITH_KNOTS('',1,(#225,#226),.UNSPECIFIED.,.F.,.F.,(2,2),(0.00000000000000000E0,1.00000000000000000E0),.UNSPECIFIED.);
#228=DEFINITIONAL_REPRESENTATION('',(#227),#157);
#229=PCURVE('',#41,#228);
#230=CARTESIAN_POINT('',(0.00000000000000000E0,0.00000000000000000E0));
#231=CARTESIAN_POINT('',(1.00000000000000000E0,0.00000000000000000E0));
#232=B_SPLINE_CURVE_WITH_KNOTS('',1,(#230,#231),.UNSPECIFIED.,.F.,.F.,(2,2),(0.00000000000000000E0,1.00000000000000000E0),.UNSPECIFIED.);
#233=DEFINITIONAL_REPRESENTATION('',(#232),#157);
#234=PCURVE('',#46,#233);
#235=CARTESIAN_POINT('',(1.00000000000000000E0,0.00000000000000000E0));
#236=CARTESIAN_POINT('',(1.00000000000000000E0,8.33333333333333370E-1));
#237=B_SPLINE_CURVE_WITH_KNOTS('',1,(#235,#236),.UNSPECIFIED.,.F.,.F.,(2,2),(0.00000000000000000E0,1.00000000000000000E0),.UNSPECIFIED.);
#238=DEFINITIONAL_REPRESENTATION('',(#237),#157);
#239=PCURVE('',#46,#238);
#240=CARTESIAN_POINT('',(1.00000000000000000E0,8.33333333333333370E-1));
#241=CARTESIAN_POINT('',(1.00000000000000000E0,1.00000000000000000E0));
#242=CARTESIAN_POINT('',(9.00000000000000022E-1,1.00000000000000000E0));
#243=(BOUNDED_CURVE()B_SPLINE_CURVE(2,(#240,#241,#242),.UNSPECIFIED.,.F.,.F.)B_SPLINE_CURVE_WITH_KNOTS((3,3),(0.00000000000000000E0,1.00000000000000000E0),.UNSPECIFIED.)CURVE()GEOMETRIC_REPRESENTATION_ITEM()RATIONAL_B_SPLINE_CURVE((2.00000000000000000E0,1.00000000000000000E0,1.00000000000000000E0))REPRESENTATION_ITEM(''));
#244=DEFINITIONAL_REPRESENTATION('',(#243),#157);
#245=PCURVE('',#46,#244);
#246=CARTESIAN_POINT('',(9.00000000000000022E-1,1.00000000000000000E0));
#247=CARTESIAN_POINT('',(0.00000000000000000E0,1.00000000000000000E0));
#248=B_SPLINE_CURVE_WITH_KNOTS('',1,(#246,#247),.UNSPECIFIED.,.F.,.F.,(2,2),(0.00000000000000000E0,1.00000000000000000E0),.UNSPECIFIED.);
#249=DEFINITIONAL_REPRESENTATION('',(#248),#157);
#250=PCURVE('',#46,#249);
#251=CARTESIAN_POINT('',(0.00000000000000000E0,1.00000000000000000E0));
#252=CARTESIAN_POINT('',(0.00000000000000000E0,0.00000000000000000E0));
#253=B_SPLINE_CURVE_WITH_KNOTS('',1,(#251,#252),.UNSPECIFIED.,.F.,.F.,(2,2),(0.00000000000000000E0,1.00000000000000000E0),.UNSPECIFIED.);
#254=DEFINITIONAL_REPRESENTATION('',(#253),#157);
#255=PCURVE('',#46,#254);
#256=CARTESIAN_POINT('',(0.00000000000000000E0,0.00000000000000000E0));
#257=CARTESIAN_POINT('',(8.75000000000000000E-1,0.00000000000000000E0));
#258=B_SPLINE_CURVE_WITH_KNOTS('',1,(#256,#257),.UNSPECIFIED.,.F.,.F.,(2,2),(0.00000000000000000E0,1.00000000000000000E0),.UNSPECIFIED.);
#259=DEFINITIONAL_REPRESENTATION('',(#258),#157);
#260=PCURVE('',#51,#259);
#261=CARTESIAN_POINT('',(8.75000000000000000E-1,0.00000000000000000E0));
#262=CARTESIAN_POINT('',(8.75000000000000000E-1,8.33333333333333370E-1));
#263=B_SPLINE_CURVE_WITH_KNOTS('',1,(#261,#262),.UNSPECIFIED.,.F.,.F.,(2,2),(0.00000000000000000E0,1.00000000000000000E0),.UNSPECIFIED.);
#264=DEFINITIONAL_REPRESENTATION('',(#263),#157);
#265=PCURVE('',#51,#264);
#266=CARTESIAN_POINT('',(8.75000000000000000E-1,8.33333333333333370E-1));
#267=CARTESIAN_POINT('',(0.00000000000000000E0,8.33333333333333370E-1));
#268=B_SPLINE_CURVE_WITH_KNOTS('',1,(#266,#267),.UNSPECIFIED.,.F.,.F.,(2,2),(0.00000000000000000E0,1.00000000000000000E0),.UNSPECIFIED.);
#269=DEFINITIONAL_REPRESENTATION('',(#268),#157);
#270=PCURVE('',#51,#269);
#271=CARTESIAN_POINT('',(0.00000000000000000E0,8.33333333333333370E-1));
#272=CARTESIAN_POINT('',(0.00000000000000000E0,0.00000000000000000E0));
#273=B_SPLINE_CURVE_WITH_KNOTS('',1,(#271,#272),.UNSPECIFIED.,.F.,.F.,(2,2),(0.00000000000000000E0,1.00000000000000000E0),.UNSPECIFIED.);
#274=DEFINITIONAL_REPRESENTATION('',(#273),#157);
#275=PCURVE('',#51,#274);
#276=CARTESIAN_POINT('',(1.00000000000000000E0,0.00000000000000000E0));
#277=CARTESIAN_POINT('',(1.00000000000000000E0,8.33333333333333370E-1));
#278=B_SPLINE_CURVE_WITH_KNOTS('',1,(#276,#277),.UNSPECIFIED.,.F.,.F.,(2,2),(0.00000000000000000E0,1.00000000000000000E0),.UNSPECIFIED.);
#279=DEFINITIONAL_REPRESENTATION('',(#278),#157);
#280=PCURVE('',#56,#279);
#281=CARTESIAN_POINT('',(1.00000000000000000E0,8.33333333333333370E-1));
#282=CARTESIAN_POINT('',(9.99999999999999778E-2,8.33333333333333370E-1));
#283=B_SPLINE_CURVE_WITH_KNOTS('',1,(#281,#282),.UNSPECIFIED.,.F.,.F.,(2,2),(0.00000000000000000E0,1.00000000000000000E0),.UNSPECIFIED.);
#284=DEFINITIONAL_REPRESENTATION('',(#283),#157);
#285=PCURVE('',#56,#284);
#286=CARTESIAN_POINT('',(9.99999999999999778E-2,8.33333333333333370E-1));
#287=CARTESIAN_POINT('',(9.99999999999999778E-2,0.00000000000000000E0));
#288=B_SPLINE_CURVE_WITH_KNOTS('',1,(#286,#287),.UNSPECIFIED.,.F.,.F.,(2,2),(0.00000000000000000E0,1.00000000000000000E0),.UNSPECIFIED.);
#289=DEFINITIONAL_REPRESENTATION('',(#288),#157);
#290=PCURVE('',#56,#289);
#291=CARTESIAN_POINT('',(9.99999999999999778E-2,0.00000000000000000E0));
#292=CARTESIAN_POINT('',(1.00000000000000000E0,0.00000000000000000E0));
#293=B_SPLINE_CURVE_WITH_KNOTS('',1,(#291,#292),.UNSPECIFIED.,.F.,.F.,(2,2),(0.00000000000000000E0,1.00000000000000000E0),.UNSPECIFIED.);
#294=DEFINITIONAL_REPRESENTATION('',(#293),#157);
#295=PCURVE('',#56,#294);
#296=CARTESIAN_POINT('',(0.00000000000000000E0,0.00000000000000000E0));
#297=CARTESIAN_POINT('',(1.00000000000000000E0,0.00000000000000000E0));
#298=B_SPLINE_CURVE_WITH_KNOTS('',1,(#296,#297),.UNSPECIFIED.,.F.,.F.,(2,2),(0.00000000000000000E0,1.00000000000000000E0),.UNSPECIFIED.);
#299=DEFINITIONAL_REPRESENTATION('',(#298),#157);
#300=PCURVE('',#63,#299);
#301=CARTESIAN_POINT('',(1.00000000000000000E0,0.00000000000000000E0));
#302=CARTESIAN_POINT('',(1.00000000000000000E0,1.00000000000000000E0));
#303=B_SPLINE_CURVE_WITH_KNOTS('',1,(#301,#302),.UNSPECIFIED.,.F.,.F.,(2,2),(0.00000000000000000E0,1.00000000000000000E0),.UNSPECIFIED.);
#304=DEFINITIONAL_REPRESENTATION('',(#303),#157);
#305=PCURVE('',#63,#304);
#306=CARTESIAN_POINT('',(1.00000000000000000E0,1.00000000000000000E0));
#307=CARTESIAN_POINT('',(0.00000000000000000E0,1.00000000000000000E0));
#308=B_SPLINE_CURVE_WITH_KNOTS('',1,(#306,#307),.UNSPECIFIED.,.F.,.F.,(2,2),(0.00000000000000000E0,1.00000000000000000E0),.UNSPECIFIED.);
#309=DEFINITIONAL_REPRESENTATION('',(#308),#157);
#310=PCURVE('',#63,#309);
#311=CARTESIAN_POINT('',(0.00000000000000000E0,1.00000000000000000E0));
#312=CARTESIAN_POINT('',(0.00000000000000000E0,0.00000000000000000E0));
#313=B_SPLINE_CURVE_WITH_KNOTS('',1,(#311,#312),.UNSPECIFIED.,.F.,.F.,(2,2),(0.00000000000000000E0,1.00000000000000000E0),.UNSPECIFIED.);
#314=DEFINITIONAL_REPRESENTATION('',(#313),#157);
#315=PCURVE('',#63,#314);
#316=CARTESIAN_POINT('',(1.00000000000000000E0,0.00000000000000000E0));
#317=CARTESIAN_POINT('',(1.00000000000000000E0,1.00000000000000000E0));
#318=B_SPLINE_CURVE_WITH_KNOTS('',1,(#316,#317),.UNSPECIFIED.,.F.,.F.,(2,2),(0.00000000000000000E0,1.00000000000000000E0),.UNSPECIFIED.);
#319=DEFINITIONAL_REPRESENTATION('',(#318),#157);
#320=PCURVE('',#70,#319);
#321=CARTESIAN_POINT('',(1.00000000000000000E0,1.00000000000000000E0));
#322=CARTESIAN_POINT('',(0.00000000000000000E0,1.00000000000000000E0));
#323=B_SPLINE_CURVE_WITH_KNOTS('',1,(#321,#322),.UNSPECIFIED.,.F.,.F.,(2,2),(0.00000000000000000E0,1.00000000000000000E0),.UNSPECIFIED.);
#324=DEFINITIONAL_REPRESENTATION('',(#323),#157);
#325=PCURVE('',#70,#324);
#326=CARTESIAN_POINT('',(0.00000000000000000E0,1.00000000000000000E0));
#327=CARTESIAN_POINT('',(0.00000000000000000E0,0.00000000000000000E0));
#328=B_SPLINE_CURVE_WITH_KNOTS('',1,(#326,#327),.UNSPECIFIED.,.F.,.F.,(2,2),(0.00000000000000000E0,1.00000000000000000E0),.UNSPECIFIED.);
#329=DEFINITIONAL_REPRESENTATION('',(#328),#157);
#330=PCURVE('',#70,#329);
#331=CARTESIAN_POINT('',(0.00000000000000000E0,0.00000000000000000E0));
#332=CARTESIAN_POINT('',(1.00000000000000000E0,0.00000000000000000E0));
#333=B_SPLINE_CURVE_WITH_KNOTS('',1,(#331,#332),.UNSPECIFIED.,.F.,.F.,(2,2),(0.00000000000000000E0,1.00000000000000000E0),.UNSPECIFIED.);
#334=DEFINITIONAL_REPRESENTATION('',(#333),#157);
#335=PCURVE('',#70,#334);
#336=CARTESIAN_POINT('',(0.00000000000000000E0,0.00000000000000000E0));
#337=CARTESIAN_POINT('',(1.00000000000000000E0,0.00000000000000000E0));
#338=B_SPLINE_CURVE_WITH_KNOTS('',1,(#336,#337),.UNSPECIFIED.,.F.,.F.,(2,2),(0.00000000000000000E0,1.00000000000000000E0),.UNSPECIFIED.);
#339=DEFINITIONAL_REPRESENTATION('',(#338),#157);
#340=PCURVE('',#77,#339);
#341=CARTESIAN_POINT('',(1.00000000000000000E0,0.00000000000000000E0));
#342=CARTESIAN_POINT('',(1.00000000000000000E0,1.00000000000000000E0));
#343=B_SPLINE_CURVE_WITH_KNOTS('',1,(#341,#342),.UNSPECIFIED.,.F.,.F.,(2,2),(0.00000000000000000E0,1.00000000000000000E0),.UNSPECIFIED.);
#344=DEFINITIONAL_REPRESENTATION('',(#343),#157);
#345=PCURVE('',#77,#344);
#346=CARTESIAN_POINT('',(1.00000000000000000E0,1.00000000000000000E0));
#347=CARTESIAN_POINT('',(0.00000000000000000E0,1.00000000000000000E0));
#348=B_SPLINE_CURVE_WITH_KNOTS('',1,(#346,#347),.UNSPECIFIED.,.F.,.F.,(2,2),(0.00000000000000000E0,1.00000000000000000E0),.UNSPECIFIED.);
#349=DEFINITIONAL_REPRESENTATION('',(#348),#157);
#350=PCURVE('',#77,#349);
#351=CARTESIAN_POINT('',(0.00000000000000000E0,1.00000000000000000E0));
#352=CARTESIAN_POINT('',(0.00000000000000000E0,0.00000000000000000E0));
#353=B_SPLINE_CURVE_WITH_KNOTS('',1,(#351,#352),.UNSPECIFIED.,.F.,.F.,(2,2),(0.00000000000000000E0,1.00000000000000000E0),.UNSPECIFIED.);
#354=DEFINITIONAL_REPRESENTATION('',(#353),#157);
#355=PCURVE('',#77,#354);
#356=CARTESIAN_POINT('',(0.00000000000000000E0,0.00000000000000000E0));
#357=CARTESIAN_POINT('',(1.00000000000000000E0,0.00000000000000000E0));
#358=B_SPLINE_CURVE_WITH_KNOTS('',1,(#356,#357),.UNSPECIFIED.,.F.,.F.,(2,2),(0.00000000000000000E0,1.00000000000000000E0),.UNSPECIFIED.);
#359=DEFINITIONAL_REPRESENTATION('',(#358),#157);
#360=PCURVE('',#87,#359);
#361=CARTESIAN_POINT('',(1.00000000000000000E0,0.00000000000000000E0));
#362=CARTESIAN_POINT('',(1.00000000000000000E0,1.00000000000000000E0));
#363=CARTESIAN_POINT('',(0.00000000000000000E0,1.00000000000000000E0));
#364=(BOUNDED_CURVE()B_SPLINE_CURVE(2,(#361,#362,#363),.UNSPECIFIED.,.F.,.F.)B_SPLINE_CURVE_WITH_KNOTS((3,3),(0.00000000000000000E0,1.00000000000000000E0),.UNSPECIFIED.)CURVE()GEOMETRIC_REPRESENTATION_ITEM()RATIONAL_B_SPLINE_CURVE((1.00000000000000000E0,7.07106781186547573E-1,1.00000000000000000E0))REPRESENTATION_ITEM(''));
#365=DEFINITIONAL_REPRESENTATION('',(#364),#157);
#366=PCURVE('',#87,#365);
#367=CARTESIAN_POINT('',(0.00000000000000000E0,1.00000000000000000E0));
#368=CARTESIAN_POINT('',(0.00000000000000000E0,0.00000000000000000E0));
#369=B_SPLINE_CURVE_WITH_KNOTS('',1,(#367,#368),.UNSPECIFIED.,.F.,.F.,(2,2),(0.00000000000000000E0,1.00000000000000000E0),.UNSPECIFIED.);
#370=DEFINITIONAL_REPRESENTATION('',(#369),#157);
#371=PCURVE('',#87,#370);
#372=SURFACE_CURVE('',#90,(#183,#234),.PCURVE_S1.);
#373=EDGE_CURVE('OSCAD_TOPO/3|edge|e:977c05c523f18d689988ff941b1ef3c1|3454cee16dca92a3202886dced55f58c55f22fcf8550b06da64bab98ddb2255c',#2,#4,#372,.T.);
#374=SURFACE_CURVE('',#93,(#178,#260),.PCURVE_S1.);
#375=EDGE_CURVE('OSCAD_TOPO/3|edge|e:40da8aa7beb2718adda9f6e105cf0b18|9ba5815b97846a251648449821218bcae257b0ba7c57505dbb0c2f9770077616',#4,#10,#374,.T.);
#376=SURFACE_CURVE('',#96,(#167,#295),.PCURVE_S1.);
#377=EDGE_CURVE('OSCAD_TOPO/3|edge|e:3ca63724c43ff3d22ebe498cf650d2a4|0d41bfab20390b527c3c874db5767b0ea95e49fe0d8be67596b07fb8e90e94d4',#6,#12,#376,.T.);
#378=SURFACE_CURVE('',#99,(#162,#229),.PCURVE_S1.);
#379=EDGE_CURVE('OSCAD_TOPO/3|edge|e:9919200a8f6738a373684e548432a8e5|b743109fbbbec85ad54976854c120c87c76712b29898a1ea15d214ca93cfc648',#2,#6,#378,.T.);
#380=SURFACE_CURVE('',#102,(#208,#255),.PCURVE_S1.);
#381=EDGE_CURVE('OSCAD_TOPO/3|edge|e:b52673a92e057b0258a91871e6fa45f1|dc72817f3f07f7a0123ed3ef3b83fd926af6c9ece77884c680d811a35627fb5a',#2,#8,#380,.T.);
#382=SURFACE_CURVE('',#105,(#239,#275),.PCURVE_S1.);
#383=EDGE_CURVE('OSCAD_TOPO/3|edge|e:54e6aff6205c2129a8e89f1bd56787da|3eb17767f43bc7c2cc7691c896da7334edbac453d69e03f2bd41cdc483ae9d2f',#4,#20,#382,.T.);
#384=SURFACE_CURVE('',#108,(#270,#320),.PCURVE_S1.);
#385=EDGE_CURVE('OSCAD_TOPO/3|edge|e:38988984f20f507c2905d9e67b5c8b0a|2487eadd023bb5cf6dd7352722f963db456609962611e1f72bdc85906303ab3a',#14,#20,#384,.T.);
#386=SURFACE_CURVE('',#111,(#265,#315),.PCURVE_S1.);
#387=EDGE_CURVE('OSCAD_TOPO/3|edge|e:8e4c5c8596b3dc636e88456ae735ec63|2fdddf7da792977fd3aeddba3878cd07cf37fd72598dabd3a0766b22210cdeb8',#10,#14,#386,.T.);
#388=SURFACE_CURVE('',#114,(#290,#305),.PCURVE_S1.);
#389=EDGE_CURVE('OSCAD_TOPO/3|edge|e:307e1cb08d58da42e33cee5b4750e2c3|1d766e08f4dc6831f4965e7b8f7bcec4ffb2b21a4583cdcba4c32da53207afa9',#12,#16,#388,.T.);
#390=SURFACE_CURVE('',#117,(#224,#280),.PCURVE_S1.);
#391=EDGE_CURVE('OSCAD_TOPO/3|edge|e:3fed06d17511862daf80daabc445930d|88167e89ee734bfa3a45647b5c45c2a309bbbb75d767f4c25d0082b07ed4596f',#6,#24,#390,.T.);
#392=SURFACE_CURVE('',#120,(#285,#355),.PCURVE_S1.);
#393=EDGE_CURVE('OSCAD_TOPO/3|edge|e:8de291265ace647abe64ceeaa6d6314a|9860a7fbef88de682b036ae692df1bc680dbe2bad077921dba6acf5978b5c303',#16,#24,#392,.T.);
#394=SURFACE_CURVE('',#123,(#188,#250),.PCURVE_S1.);
#395=EDGE_CURVE('OSCAD_TOPO/3|edge|e:30f73f0b65a599d657680fdcadafc3b6|b0c64bd2a00fbc7ced390d5b9756d227e6ca6911c97508c077865f7aec9a5f90',#8,#22,#394,.T.);
#396=SURFACE_CURVE('',#126,(#193,#330),.PCURVE_S1.);
#397=EDGE_CURVE('OSCAD_TOPO/3|edge|e:41b25a146cf4927fbf1cee49f76cf8e2|3b3047ecf2c83f82b6608581c5776aa6079f12c9b797bee3cb2ab52320dc5380',#18,#22,#396,.T.);
#398=SURFACE_CURVE('',#129,(#203,#213),.PCURVE_S1.);
#399=EDGE_CURVE('OSCAD_TOPO/3|edge|e:0d2383b7f4bacf55d5ad9160e3def1fe|f2438b00de80ad85009fbf70c98ebca999e8a78a0fb80cf7f9165b6857e7f97c',#8,#26,#398,.T.);
#400=SURFACE_CURVE('',#132,(#198,#345),.PCURVE_S1.);
#401=EDGE_CURVE('OSCAD_TOPO/3|edge|e:80088777585a02d9993fadf3e1aaeceb|1d0f7e4ea6232a059c07d76c81829f7938a4af139cb93b0d9005eaa968bc738d',#18,#26,#400,.T.);
#402=SURFACE_CURVE('',#136,(#173,#300),.PCURVE_S1.);
#403=EDGE_CURVE('OSCAD_TOPO/3|edge|e:8df028a8262cff1c1b36442e6148cfa7|66a7f788986830657dcd0dd2edcd8a1080b4babb520d3cd48d23d44789a18cc8',#10,#12,#402,.T.);
#404=SURFACE_CURVE('',#140,(#310,#366),.PCURVE_S1.);
#405=EDGE_CURVE('OSCAD_TOPO/3|edge|e:3fde4efba5ef3359b3421e350c8b143c|4203dace5aa4e0700124b6fb16a7956d33cf5a0088f8571d4b1e43a7c4ddbbbb',#14,#16,#404,.T.);
#406=SURFACE_CURVE('',#144,(#325,#360),.PCURVE_S1.);
#407=EDGE_CURVE('OSCAD_TOPO/3|edge|e:744a28905e104c90c0e43a2a89b03770|6ea5f43d52304e0b339bab0a27dbb89186062f2e51f3c1e93aa2a0cf816f8288',#14,#18,#406,.T.);
#408=SURFACE_CURVE('',#148,(#350,#371),.PCURVE_S1.);
#409=EDGE_CURVE('OSCAD_TOPO/3|edge|e:58bbf7b2ac15f0d0b59f9075e8d64144|ab8cdfe2f645d6eef7eb24f80653dafff88ed2f4c817b2e3c0f516ca7b3f8a80',#16,#18,#408,.T.);
#410=SURFACE_CURVE('',#152,(#245,#335),.PCURVE_S1.);
#411=EDGE_CURVE('OSCAD_TOPO/3|edge|e:a55832cc1b7526cee238842dba6b3610|38061fde33ae57782494d0fea98b02ae0401eb7d7debd20d9f058b4320e2d42c',#20,#22,#410,.T.);
#412=SURFACE_CURVE('',#156,(#219,#340),.PCURVE_S1.);
#413=EDGE_CURVE('OSCAD_TOPO/3|edge|e:e4cfa9ad2ecf0ebeb557cf9e810ec6b5|e12adf4759f7811a421705b58aece4853ce80d75f2a6af528214602961d647b4',#24,#26,#412,.T.);
#414=ORIENTED_EDGE('',*,*,#379,.T.);
#415=ORIENTED_EDGE('',*,*,#377,.T.);
#416=ORIENTED_EDGE('',*,*,#403,.F.);
#417=ORIENTED_EDGE('',*,*,#375,.F.);
#418=ORIENTED_EDGE('',*,*,#373,.F.);
#419=EDGE_LOOP('OSCAD_TOPO/3|loop|l:bb408cd8b1147999b0db2a1426a26c7f|d729a39ce563267f2a93e9483793ac62a110c8c69c714a8b86fc76181d7b3ded',(#414,#415,#416,#417,#418));
#420=ORIENTED_EDGE('',*,*,#395,.T.);
#421=ORIENTED_EDGE('',*,*,#397,.F.);
#422=ORIENTED_EDGE('',*,*,#401,.T.);
#423=ORIENTED_EDGE('',*,*,#399,.F.);
#424=EDGE_LOOP('OSCAD_TOPO/3|loop|l:06e98e124356b5c2b9cd596f219b1748|282a677426c2278a12e62657ddffe1f65aee76802295955e5974edae3b63e054',(#420,#421,#422,#423));
#425=ORIENTED_EDGE('',*,*,#381,.T.);
#426=ORIENTED_EDGE('',*,*,#399,.T.);
#427=ORIENTED_EDGE('',*,*,#413,.F.);
#428=ORIENTED_EDGE('',*,*,#391,.F.);
#429=ORIENTED_EDGE('',*,*,#379,.F.);
#430=EDGE_LOOP('OSCAD_TOPO/3|loop|l:4d573273f8df367c9fbbef2ebc060b75|b2d32d3f600ecc70f03a04913db7470abcef0971e5b78619c81bebad597ca0d0',(#425,#426,#427,#428,#429));
#431=ORIENTED_EDGE('',*,*,#373,.T.);
#432=ORIENTED_EDGE('',*,*,#383,.T.);
#433=ORIENTED_EDGE('',*,*,#411,.T.);
#434=ORIENTED_EDGE('',*,*,#395,.F.);
#435=ORIENTED_EDGE('',*,*,#381,.F.);
#436=EDGE_LOOP('OSCAD_TOPO/3|loop|l:c869df7b8a259cb2d983dc72f5a7384d|c1c9ad3a484ee7fc780f384019687cee7d86051aa29fa36511eaeb1dc614fb6e',(#431,#432,#433,#434,#435));
#437=ORIENTED_EDGE('',*,*,#375,.T.);
#438=ORIENTED_EDGE('',*,*,#387,.T.);
#439=ORIENTED_EDGE('',*,*,#385,.T.);
#440=ORIENTED_EDGE('',*,*,#383,.F.);
#441=EDGE_LOOP('OSCAD_TOPO/3|loop|l:430ce97c0be69abb9e3ee5abaf06d725|eae709058bf6d0a0413396cf57c8fbdd2fcca5f0e5931c67f1447ce9a5e2df31',(#437,#438,#439,#440));
#442=ORIENTED_EDGE('',*,*,#391,.T.);
#443=ORIENTED_EDGE('',*,*,#393,.F.);
#444=ORIENTED_EDGE('',*,*,#389,.F.);
#445=ORIENTED_EDGE('',*,*,#377,.F.);
#446=EDGE_LOOP('OSCAD_TOPO/3|loop|l:feeec50ddb908f513ec582ceabc84f9d|baf67c370ec542cbc6e90dbffcb4725b081f7f1af09fbe899f9f0fff6b54e2fe',(#442,#443,#444,#445));
#447=ORIENTED_EDGE('',*,*,#403,.T.);
#448=ORIENTED_EDGE('',*,*,#389,.T.);
#449=ORIENTED_EDGE('',*,*,#405,.F.);
#450=ORIENTED_EDGE('',*,*,#387,.F.);
#451=EDGE_LOOP('OSCAD_TOPO/3|loop|l:61ca603d069d44c6992a2d57f8985352|0c8af81801a5dde56e5b9e34f7979ce294d36d143865a111a39a91b6597ba0da',(#447,#448,#449,#450));
#452=ORIENTED_EDGE('',*,*,#385,.F.);
#453=ORIENTED_EDGE('',*,*,#407,.T.);
#454=ORIENTED_EDGE('',*,*,#397,.T.);
#455=ORIENTED_EDGE('',*,*,#411,.F.);
#456=EDGE_LOOP('OSCAD_TOPO/3|loop|l:ab636a34a5f1350a59eb423aa8c2e26d|7d68fb60213b4581fea56fa98e0602b6bb60e9d7d2a31f57507c761cdfd52ab0',(#452,#453,#454,#455));
#457=ORIENTED_EDGE('',*,*,#413,.T.);
#458=ORIENTED_EDGE('',*,*,#401,.F.);
#459=ORIENTED_EDGE('',*,*,#409,.F.);
#460=ORIENTED_EDGE('',*,*,#393,.T.);
#461=EDGE_LOOP('OSCAD_TOPO/3|loop|l:42b7b1f898d030156c7d0bb0ef6ce7ce|63959d236243402304e0703d6770004c629f4265b7be09a5c1e36f8d94fa7710',(#457,#458,#459,#460));
#462=ORIENTED_EDGE('',*,*,#407,.F.);
#463=ORIENTED_EDGE('',*,*,#405,.T.);
#464=ORIENTED_EDGE('',*,*,#409,.T.);
#465=EDGE_LOOP('OSCAD_TOPO/3|loop|l:9a7a00ddb664fc3bb86cf06267ef697f|17a79160def1759e99a0c47c290955cfc3eaaf78505088a226d20dc118f51744',(#462,#463,#464));
#466=FACE_OUTER_BOUND('',#419,.T.);
#467=ADVANCED_FACE('OSCAD_TOPO/3|face|f:d61aec5a824a0703e4524caec5fb3b12|302c7f4937a7d86a6b3ac6fe0f14367838939b57bd2e912fb8d5c81adf028f6d',(#466),#31,.T.);
#468=FACE_OUTER_BOUND('',#424,.T.);
#469=ADVANCED_FACE('OSCAD_TOPO/3|face|f:c7849fe6d487b26d7c2a668572aceaba|0ab29650a6ff3fa6796a1a60af8f4bf9a63d6f4e6cf4ddc62385f708d1a8ba50',(#468),#36,.T.);
#470=FACE_OUTER_BOUND('',#430,.T.);
#471=ADVANCED_FACE('OSCAD_TOPO/3|face|f:82ce205bae723af5d2a059fa825a163d|4344aab5f40b4295d832d8547f10ca38610c3a84fa25d1cd1df336f5a4adc84d',(#470),#41,.T.);
#472=FACE_OUTER_BOUND('',#436,.T.);
#473=ADVANCED_FACE('OSCAD_TOPO/3|face|f:cc34909f72b883627d8f681d29d5f892|e5541bd975efb96d160914be74d484614651940e07a4df156a642775ae666d2d',(#472),#46,.T.);
#474=FACE_OUTER_BOUND('',#441,.T.);
#475=ADVANCED_FACE('OSCAD_TOPO/3|face|f:aef3a0a68943898414ab387bf687b735|237617c2576b2f5cf71fe847413520a1f7c6c7c1a6bb133d1ac5fb4c424ccd01',(#474),#51,.T.);
#476=FACE_OUTER_BOUND('',#446,.T.);
#477=ADVANCED_FACE('OSCAD_TOPO/3|face|f:759c008427a6d7fdbf985b4cd3db76a1|aae4402324055b1e7f2725bd0c3f0226f248756c6753cdac39ac17835d8a4eea',(#476),#56,.T.);
#478=FACE_OUTER_BOUND('',#451,.T.);
#479=ADVANCED_FACE('OSCAD_TOPO/3|face|f:02da668894f0f3f5cdc8ad81c64bb213|aa60b6237c2f0d62fd03900e8fd9a996e8303e65f4948ca39d333aa71d16a0ca',(#478),#63,.T.);
#480=FACE_OUTER_BOUND('',#456,.T.);
#481=ADVANCED_FACE('OSCAD_TOPO/3|face|f:39b8c9ea1416091a4e1e01423cab5cf9|742b485607c53f2a5c3d128ae675c3291447ce2aa5d419dc8a28012e07b80fad',(#480),#70,.T.);
#482=FACE_OUTER_BOUND('',#461,.T.);
#483=ADVANCED_FACE('OSCAD_TOPO/3|face|f:f1950318e0ee92c4f2583dfd99f2a93a|61f41b64f8953a3d9ab874dfbc21b02f433912be7d0f4a48c5f054f492523021',(#482),#77,.T.);
#484=FACE_OUTER_BOUND('',#465,.T.);
#485=ADVANCED_FACE('OSCAD_TOPO/3|face|f:9959f35f25732276171bc8befd5fbdd0|cd41b13ba5f26c158e438a54a0d8bef99ec48b8cbf5054fe780b485e47483fea',(#484),#87,.T.);
#486=CLOSED_SHELL('OSCAD_TOPO/3|shell|s:8c89657324868edbd43476ffe733fa32|a04ff23551825312cc99f97b378211520f0b6d8ac4c4f493c44f5fa5cb2f882d',(#467,#469,#471,#473,#475,#477,#479,#481,#483,#485));
#487=MANIFOLD_SOLID_BREP('OSCAD_TOPO/3|body|b:f686c70fa6d29b39754a480b0765d5f3|780638d3056b980c2e59004e7bbe5e3aa6df7b5c35de1d9de905a9c487faa02d',#486);
#488=(LENGTH_UNIT()NAMED_UNIT(*)SI_UNIT(.MILLI.,.METRE.));
#489=UNCERTAINTY_MEASURE_WITH_UNIT(LENGTH_MEASURE(9.99999999999999955E-8),#488,'distance_accuracy_value','');
#490=(GEOMETRIC_REPRESENTATION_CONTEXT(3)GLOBAL_UNCERTAINTY_ASSIGNED_CONTEXT((#489))GLOBAL_UNIT_ASSIGNED_CONTEXT((#488))REPRESENTATION_CONTEXT('','3D'));
#491=ADVANCED_BREP_SHAPE_REPRESENTATION('',(#487),#490);
#492=APPLICATION_CONTEXT('managed model based 3d engineering');
#493=PRODUCT_CONTEXT('',#492,'mechanical');
#494=PRODUCT('model','model','',(#493));
#495=PRODUCT_DEFINITION_FORMATION('1','',#494);
#496=PRODUCT_DEFINITION_CONTEXT('part definition',#492,'design');
#497=PRODUCT_DEFINITION('design','',#495,#496);
#498=PRODUCT_DEFINITION_SHAPE('','',#497);
#499=SHAPE_DEFINITION_REPRESENTATION(#498,#491);
ENDSEC;
END-ISO-10303-21;
