ISO-10303-21;
HEADER;
FILE_DESCRIPTION(('OpenSCAD Viewer retained AP242 B-rep'),'2;1');
FILE_NAME('model.step','',(''),(''),'OpenSCAD Viewer','OpenSCAD Viewer','');
FILE_SCHEMA(('AP242_MANAGED_MODEL_BASED_3D_ENGINEERING_MIM_LF'));
ENDSEC;
DATA;
#1=CARTESIAN_POINT('',(2.90605352735681315E1,-8.44540487444005272E0,2.34857089269551800E1));
#2=VERTEX_POINT('OSCAD_TOPO/3|vertex|v:ae85a547cf9b73fb748c0653f6c2f822|7e6c2c54ab5ac20945536bad37b46d2eca9576df9bb65e15be75d73ed8e400ba',#1);
#3=CARTESIAN_POINT('',(2.19308763930766446E1,-1.20741738458446726E1,2.34857089269551800E1));
#4=VERTEX_POINT('OSCAD_TOPO/3|vertex|v:a51181a3a4462fd3c3cdda64b7e923de|59edc9eeb7ae974b34ff4f187f7ca8cd0ba78198ca5255ff3fd182c9c58498d9',#3);
#5=CARTESIAN_POINT('',(2.59993250014434771E1,-2.43086242941436570E0,3.08650226380548105E1));
#6=VERTEX_POINT('OSCAD_TOPO/3|vertex|v:1d85c3471b35e512eb7263d74f193213|20780615cfb68d31567f8a68ba5b49df69d912a16f5ad639409ca504b6f0abca',#5);
#7=CARTESIAN_POINT('',(2.70521984266857061E1,-4.49950565951950132E0,1.94364543665275775E1));
#8=VERTEX_POINT('OSCAD_TOPO/3|vertex|v:8bd6b18248df0f4f1ed561f9704cde93|0457e64a4a1e6270bc2ea972c3255f3256b2d6ab8311ae35268909f715e7573e',#7);
#9=CARTESIAN_POINT('',(1.89461963777551077E1,-6.20999496194462708E0,3.06805397952773191E1));
#10=VERTEX_POINT('OSCAD_TOPO/3|vertex|v:bae2b15e022ecfb1b0d8bd712ae6e370|27f1998913f777a711ed9f3f4f200aaab758bdc86d377f0570463ecdfde5d30f',#9);
#11=CARTESIAN_POINT('',(1.90924679609673511E1,-5.94623237046259057E0,3.08650226380548105E1));
#12=VERTEX_POINT('OSCAD_TOPO/3|vertex|v:25d2c4134d72c32228ce18b6b39213da|996e9ffa02a1677623811f3b885af768f9b2946da955395e68d4b6806bf4756f',#11);
#13=CARTESIAN_POINT('',(1.70215402328261192E1,-2.42850821431243125E0,2.68000041748675315E1));
#14=VERTEX_POINT('OSCAD_TOPO/3|vertex|v:81b5fbf57ee0e0b71a1bf8a881ec54b5|6a3cfd0ee8a5e3d46dc6a5859a259d597194f3c2bc291010b8c7924bb29b762b',#13);
#15=CARTESIAN_POINT('',(1.71678118160383626E1,-2.16474562283039473E0,2.69844870176450229E1));
#16=VERTEX_POINT('OSCAD_TOPO/3|vertex|v:dabfc777f29991fb394107268432ae66|b3c2ee220c680b1e66182872745e9dcc82c24a9bb563e65f472e73e624fd4811',#15);
#17=CARTESIAN_POINT('',(1.71606613708880431E1,-2.15069671666768070E0,2.66312852348497167E1));
#18=VERTEX_POINT('OSCAD_TOPO/3|vertex|v:21fda0792a390e25c5dfc4f316d44dc1|10d33391199dcb0da83338fdba6dcf1a90f33d693881defc0cd5431e66987af5',#17);
#19=CARTESIAN_POINT('',(2.00062202481476561E1,-8.29268709821247718E0,1.96051733065453959E1));
#20=VERTEX_POINT('OSCAD_TOPO/3|vertex|v:c98a3b0cbf591ad86393e39897817350|df7a2049f7bc1c144154b1ee48acf73c9c8e422e6c39498e289314c3e2bef349',#19);
#21=CARTESIAN_POINT('',(2.01453413862095800E1,-8.01487560056772708E0,1.94364543665275775E1));
#22=VERTEX_POINT('OSCAD_TOPO/3|vertex|v:258f908c1f6fd2582c16394e849e735b|f09fb09ee71406bb72d74d7fbf7dc883c3a7332c47d9d49beeadcd68df03b8a2',#21);
#23=CARTESIAN_POINT('',(2.40746688565144922E1,1.35062431821783058E0,2.69844870176450229E1));
#24=VERTEX_POINT('OSCAD_TOPO/3|vertex|v:c40beb6522b7dd0839d8555c37b02050|24adccabc3e12988401264dbc7137eed86ffa7cb91ac40f43a81fcf9d3d777ab',#23);
#25=CARTESIAN_POINT('',(2.40675184113641727E1,1.36467322438054461E0,2.66312852348497167E1));
#26=VERTEX_POINT('OSCAD_TOPO/3|vertex|v:d20bdaa0850a457e592b963a1c3743fb|4282b77eb624b20dd776e7676c9d2c67ff5a155f721e7055a24c135984a4f0be',#25);
#27=CARTESIAN_POINT('',(2.19308763930766446E1,-1.20741738458446726E1,2.34857089269551800E1));
#28=CARTESIAN_POINT('',(1.88696661209519903E1,-6.05963140081898466E0,3.08650226380548105E1));
#29=CARTESIAN_POINT('',(2.90605352735681315E1,-8.44540487444005272E0,2.34857089269551800E1));
#30=CARTESIAN_POINT('',(2.59993250014434771E1,-2.43086242941436570E0,3.08650226380548105E1));
#31=B_SPLINE_SURFACE_WITH_KNOTS('',1,1,((#27,#28),(#29,#30)),.UNSPECIFIED.,.F.,.F.,.F.,(2,2),(2,2),(0.00000000000000000E0,1.00000000000000000E0),(0.00000000000000000E0,1.00000000000000000E0),.UNSPECIFIED.);
#32=CARTESIAN_POINT('',(2.70521984266857061E1,-4.49950565951950132E0,1.94364543665275775E1));
#33=CARTESIAN_POINT('',(2.39909881545610553E1,1.51503678550618659E0,2.68157680776272045E1));
#34=CARTESIAN_POINT('',(1.99225395461942227E1,-8.12827463092412117E0,1.94364543665275775E1));
#35=CARTESIAN_POINT('',(1.68613292740695684E1,-2.11373218589843281E0,2.68157680776272045E1));
#36=B_SPLINE_SURFACE_WITH_KNOTS('',1,1,((#32,#33),(#34,#35)),.UNSPECIFIED.,.F.,.F.,.F.,(2,2),(2,2),(0.00000000000000000E0,1.00000000000000000E0),(0.00000000000000000E0,1.00000000000000000E0),.UNSPECIFIED.);
#37=CARTESIAN_POINT('',(2.59993250014434771E1,-2.43086242941436570E0,3.08650226380548105E1));
#38=CARTESIAN_POINT('',(2.39909881545610553E1,1.51503678550618659E0,2.68157680776272045E1));
#39=CARTESIAN_POINT('',(2.90605352735681315E1,-8.44540487444005272E0,2.34857089269551800E1));
#40=CARTESIAN_POINT('',(2.70521984266857061E1,-4.49950565951950132E0,1.94364543665275775E1));
#41=B_SPLINE_SURFACE_WITH_KNOTS('',1,1,((#37,#38),(#39,#40)),.UNSPECIFIED.,.F.,.F.,.F.,(2,2),(2,2),(0.00000000000000000E0,1.00000000000000000E0),(0.00000000000000000E0,1.00000000000000000E0),.UNSPECIFIED.);
#42=CARTESIAN_POINT('',(2.90605352735681315E1,-8.44540487444005272E0,2.34857089269551800E1));
#43=CARTESIAN_POINT('',(2.70521984266857061E1,-4.49950565951950132E0,1.94364543665275775E1));
#44=CARTESIAN_POINT('',(2.19308763930766446E1,-1.20741738458446726E1,2.34857089269551800E1));
#45=CARTESIAN_POINT('',(1.99225395461942227E1,-8.12827463092412117E0,1.94364543665275775E1));
#46=B_SPLINE_SURFACE_WITH_KNOTS('',1,1,((#42,#43),(#44,#45)),.UNSPECIFIED.,.F.,.F.,.F.,(2,2),(2,2),(0.00000000000000000E0,1.00000000000000000E0),(0.00000000000000000E0,1.00000000000000000E0),.UNSPECIFIED.);
#47=CARTESIAN_POINT('',(2.19308763930766446E1,-1.20741738458446726E1,2.34857089269551800E1));
#48=CARTESIAN_POINT('',(1.99225395461942227E1,-8.12827463092412117E0,1.94364543665275775E1));
#49=CARTESIAN_POINT('',(1.88696661209519903E1,-6.05963140081898466E0,3.08650226380548105E1));
#50=CARTESIAN_POINT('',(1.68613292740695684E1,-2.11373218589843281E0,2.68157680776272045E1));
#51=B_SPLINE_SURFACE_WITH_KNOTS('',1,1,((#47,#48),(#49,#50)),.UNSPECIFIED.,.F.,.F.,.F.,(2,2),(2,2),(0.00000000000000000E0,1.00000000000000000E0),(0.00000000000000000E0,1.00000000000000000E0),.UNSPECIFIED.);
#52=CARTESIAN_POINT('',(1.88696661209519903E1,-6.05963140081898466E0,3.08650226380548105E1));
#53=CARTESIAN_POINT('',(1.68613292740695684E1,-2.11373218589843281E0,2.68157680776272045E1));
#54=CARTESIAN_POINT('',(2.59993250014434771E1,-2.43086242941436570E0,3.08650226380548105E1));
#55=CARTESIAN_POINT('',(2.39909881545610553E1,1.51503678550618659E0,2.68157680776272045E1));
#56=B_SPLINE_SURFACE_WITH_KNOTS('',1,1,((#52,#53),(#54,#55)),.UNSPECIFIED.,.F.,.F.,.F.,(2,2),(2,2),(0.00000000000000000E0,1.00000000000000000E0),(0.00000000000000000E0,1.00000000000000000E0),.UNSPECIFIED.);
#57=CARTESIAN_POINT('',(1.89461963777551077E1,-6.20999496194462708E0,3.06805397952773191E1));
#58=CARTESIAN_POINT('',(1.70215402328261192E1,-2.42850821431243125E0,2.68000041748675315E1));
#59=CARTESIAN_POINT('',(1.88696661209519903E1,-6.05963140081898466E0,3.08650226380548105E1));
#60=CARTESIAN_POINT('',(1.69450099760230053E1,-2.27814465318678927E0,2.69844870176450229E1));
#61=CARTESIAN_POINT('',(1.90924679609673511E1,-5.94623237046259057E0,3.08650226380548105E1));
#62=CARTESIAN_POINT('',(1.71678118160383626E1,-2.16474562283039473E0,2.69844870176450229E1));
#63=(BOUNDED_SURFACE()B_SPLINE_SURFACE(2,1,((#57,#58),(#59,#60),(#61,#62)),.UNSPECIFIED.,.F.,.F.,.F.)B_SPLINE_SURFACE_WITH_KNOTS((3,3),(2,2),(0.00000000000000000E0,1.00000000000000000E0),(0.00000000000000000E0,1.00000000000000000E0),.UNSPECIFIED.)GEOMETRIC_REPRESENTATION_ITEM()RATIONAL_B_SPLINE_SURFACE(((1.00000000000000000E0,1.00000000000000000E0),(7.07106781186547573E-1,7.07106781186547573E-1),(1.00000000000000000E0,1.00000000000000000E0)))REPRESENTATION_ITEM('')SURFACE());
#64=CARTESIAN_POINT('',(2.01453413862095800E1,-8.01487560056772708E0,1.94364543665275775E1));
#65=CARTESIAN_POINT('',(1.71606613708880431E1,-2.15069671666768070E0,2.66312852348497167E1));
#66=CARTESIAN_POINT('',(1.99225395461942227E1,-8.12827463092412117E0,1.94364543665275775E1));
#67=CARTESIAN_POINT('',(1.69378595308726858E1,-2.26409574702407523E0,2.66312852348497167E1));
#68=CARTESIAN_POINT('',(2.00062202481476561E1,-8.29268709821247718E0,1.96051733065453959E1));
#69=CARTESIAN_POINT('',(1.70215402328261192E1,-2.42850821431243125E0,2.68000041748675315E1));
#70=(BOUNDED_SURFACE()B_SPLINE_SURFACE(2,1,((#64,#65),(#66,#67),(#68,#69)),.UNSPECIFIED.,.F.,.F.,.F.)B_SPLINE_SURFACE_WITH_KNOTS((3,3),(2,2),(0.00000000000000000E0,1.00000000000000000E0),(0.00000000000000000E0,1.00000000000000000E0),.UNSPECIFIED.)GEOMETRIC_REPRESENTATION_ITEM()RATIONAL_B_SPLINE_SURFACE(((1.00000000000000000E0,1.00000000000000000E0),(1.00000000000000000E0,1.00000000000000000E0),(2.00000000000000000E0,2.00000000000000000E0)))REPRESENTATION_ITEM('')SURFACE());
#71=CARTESIAN_POINT('',(2.40746688565144922E1,1.35062431821783058E0,2.69844870176450229E1));
#72=CARTESIAN_POINT('',(1.71678118160383626E1,-2.16474562283039473E0,2.69844870176450229E1));
#73=CARTESIAN_POINT('',(2.39909881545610553E1,1.51503678550618659E0,2.68157680776272045E1));
#74=CARTESIAN_POINT('',(1.70841311140849292E1,-2.00033315554203872E0,2.68157680776272045E1));
#75=CARTESIAN_POINT('',(2.40675184113641727E1,1.36467322438054461E0,2.66312852348497167E1));
#76=CARTESIAN_POINT('',(1.71606613708880431E1,-2.15069671666768070E0,2.66312852348497167E1));
#77=(BOUNDED_SURFACE()B_SPLINE_SURFACE(2,1,((#71,#72),(#73,#74),(#75,#76)),.UNSPECIFIED.,.F.,.F.,.F.)B_SPLINE_SURFACE_WITH_KNOTS((3,3),(2,2),(0.00000000000000000E0,1.00000000000000000E0),(0.00000000000000000E0,1.00000000000000000E0),.UNSPECIFIED.)GEOMETRIC_REPRESENTATION_ITEM()RATIONAL_B_SPLINE_SURFACE(((2.00000000000000000E0,2.00000000000000000E0),(1.00000000000000000E0,1.00000000000000000E0),(1.00000000000000000E0,1.00000000000000000E0)))REPRESENTATION_ITEM('')SURFACE());
#78=CARTESIAN_POINT('',(1.71606613708880431E1,-2.15069671666768070E0,2.66312852348497167E1));
#79=CARTESIAN_POINT('',(1.70841311140849292E1,-2.00033315554203872E0,2.68157680776272045E1));
#80=CARTESIAN_POINT('',(1.71678118160383626E1,-2.16474562283039473E0,2.69844870176450229E1));
#81=CARTESIAN_POINT('',(1.69378595308726858E1,-2.26409574702407523E0,2.66312852348497167E1));
#82=CARTESIAN_POINT('',(1.68613292740695684E1,-2.11373218589843281E0,2.68157680776272045E1));
#83=CARTESIAN_POINT('',(1.70564108960306839E1,-2.22144513800859222E0,2.69844870176450229E1));
#84=CARTESIAN_POINT('',(1.70215402328261192E1,-2.42850821431243125E0,2.68000041748675315E1));
#85=CARTESIAN_POINT('',(1.69832751044245605E1,-2.35332643374961048E0,2.68922455962562772E1));
#86=CARTESIAN_POINT('',(1.70726809089469747E1,-2.34527031920599072E0,2.69792323833917962E1));
#87=(BOUNDED_SURFACE()B_SPLINE_SURFACE(2,2,((#78,#79,#80),(#81,#82,#83),(#84,#85,#86)),.UNSPECIFIED.,.F.,.F.,.F.)B_SPLINE_SURFACE_WITH_KNOTS((3,3),(3,3),(0.00000000000000000E0,1.00000000000000000E0),(0.00000000000000000E0,1.00000000000000000E0),.UNSPECIFIED.)GEOMETRIC_REPRESENTATION_ITEM()RATIONAL_B_SPLINE_SURFACE(((1.00000000000000000E0,1.00000000000000000E0,2.00000000000000000E0),(1.00000000000000000E0,1.00000000000000000E0,2.00000000000000000E0),(2.00000000000000000E0,2.00000000000000000E0,3.00000000000000000E0)))REPRESENTATION_ITEM('')SURFACE());
#88=CARTESIAN_POINT('',(2.90605352735681315E1,-8.44540487444005272E0,2.34857089269551800E1));
#89=CARTESIAN_POINT('',(2.19308763930766446E1,-1.20741738458446726E1,2.34857089269551800E1));
#90=B_SPLINE_CURVE_WITH_KNOTS('',1,(#88,#89),.UNSPECIFIED.,.F.,.F.,(2,2),(0.00000000000000000E0,1.00000000000000000E0),.UNSPECIFIED.);
#91=CARTESIAN_POINT('',(2.19308763930766446E1,-1.20741738458446726E1,2.34857089269551800E1));
#92=CARTESIAN_POINT('',(1.89461963777551077E1,-6.20999496194462708E0,3.06805397952773191E1));
#93=B_SPLINE_CURVE_WITH_KNOTS('',1,(#91,#92),.UNSPECIFIED.,.F.,.F.,(2,2),(0.00000000000000000E0,1.00000000000000000E0),.UNSPECIFIED.);
#94=CARTESIAN_POINT('',(2.59993250014434771E1,-2.43086242941436570E0,3.08650226380548105E1));
#95=CARTESIAN_POINT('',(1.90924679609673511E1,-5.94623237046259057E0,3.08650226380548105E1));
#96=B_SPLINE_CURVE_WITH_KNOTS('',1,(#94,#95),.UNSPECIFIED.,.F.,.F.,(2,2),(0.00000000000000000E0,1.00000000000000000E0),.UNSPECIFIED.);
#97=CARTESIAN_POINT('',(2.90605352735681315E1,-8.44540487444005272E0,2.34857089269551800E1));
#98=CARTESIAN_POINT('',(2.59993250014434771E1,-2.43086242941436570E0,3.08650226380548105E1));
#99=B_SPLINE_CURVE_WITH_KNOTS('',1,(#97,#98),.UNSPECIFIED.,.F.,.F.,(2,2),(0.00000000000000000E0,1.00000000000000000E0),.UNSPECIFIED.);
#100=CARTESIAN_POINT('',(2.90605352735681315E1,-8.44540487444005272E0,2.34857089269551800E1));
#101=CARTESIAN_POINT('',(2.70521984266857061E1,-4.49950565951950132E0,1.94364543665275775E1));
#102=B_SPLINE_CURVE_WITH_KNOTS('',1,(#100,#101),.UNSPECIFIED.,.F.,.F.,(2,2),(0.00000000000000000E0,1.00000000000000000E0),.UNSPECIFIED.);
#103=CARTESIAN_POINT('',(2.19308763930766446E1,-1.20741738458446726E1,2.34857089269551800E1));
#104=CARTESIAN_POINT('',(2.00062202481476561E1,-8.29268709821247718E0,1.96051733065453959E1));
#105=B_SPLINE_CURVE_WITH_KNOTS('',1,(#103,#104),.UNSPECIFIED.,.F.,.F.,(2,2),(0.00000000000000000E0,1.00000000000000000E0),.UNSPECIFIED.);
#106=CARTESIAN_POINT('',(1.70215402328261192E1,-2.42850821431243125E0,2.68000041748675315E1));
#107=CARTESIAN_POINT('',(2.00062202481476561E1,-8.29268709821247718E0,1.96051733065453959E1));
#108=B_SPLINE_CURVE_WITH_KNOTS('',1,(#106,#107),.UNSPECIFIED.,.F.,.F.,(2,2),(0.00000000000000000E0,1.00000000000000000E0),.UNSPECIFIED.);
#109=CARTESIAN_POINT('',(1.89461963777551077E1,-6.20999496194462708E0,3.06805397952773191E1));
#110=CARTESIAN_POINT('',(1.70215402328261192E1,-2.42850821431243125E0,2.68000041748675315E1));
#111=B_SPLINE_CURVE_WITH_KNOTS('',1,(#109,#110),.UNSPECIFIED.,.F.,.F.,(2,2),(0.00000000000000000E0,1.00000000000000000E0),.UNSPECIFIED.);
#112=CARTESIAN_POINT('',(1.90924679609673511E1,-5.94623237046259057E0,3.08650226380548105E1));
#113=CARTESIAN_POINT('',(1.71678118160383626E1,-2.16474562283039473E0,2.69844870176450229E1));
#114=B_SPLINE_CURVE_WITH_KNOTS('',1,(#112,#113),.UNSPECIFIED.,.F.,.F.,(2,2),(0.00000000000000000E0,1.00000000000000000E0),.UNSPECIFIED.);
#115=CARTESIAN_POINT('',(2.59993250014434771E1,-2.43086242941436570E0,3.08650226380548105E1));
#116=CARTESIAN_POINT('',(2.40746688565144922E1,1.35062431821783058E0,2.69844870176450229E1));
#117=B_SPLINE_CURVE_WITH_KNOTS('',1,(#115,#116),.UNSPECIFIED.,.F.,.F.,(2,2),(0.00000000000000000E0,1.00000000000000000E0),.UNSPECIFIED.);
#118=CARTESIAN_POINT('',(1.71678118160383626E1,-2.16474562283039473E0,2.69844870176450229E1));
#119=CARTESIAN_POINT('',(2.40746688565144922E1,1.35062431821783058E0,2.69844870176450229E1));
#120=B_SPLINE_CURVE_WITH_KNOTS('',1,(#118,#119),.UNSPECIFIED.,.F.,.F.,(2,2),(0.00000000000000000E0,1.00000000000000000E0),.UNSPECIFIED.);
#121=CARTESIAN_POINT('',(2.70521984266857061E1,-4.49950565951950132E0,1.94364543665275775E1));
#122=CARTESIAN_POINT('',(2.01453413862095800E1,-8.01487560056772708E0,1.94364543665275775E1));
#123=B_SPLINE_CURVE_WITH_KNOTS('',1,(#121,#122),.UNSPECIFIED.,.F.,.F.,(2,2),(0.00000000000000000E0,1.00000000000000000E0),.UNSPECIFIED.);
#124=CARTESIAN_POINT('',(1.71606613708880431E1,-2.15069671666768070E0,2.66312852348497167E1));
#125=CARTESIAN_POINT('',(2.01453413862095800E1,-8.01487560056772708E0,1.94364543665275775E1));
#126=B_SPLINE_CURVE_WITH_KNOTS('',1,(#124,#125),.UNSPECIFIED.,.F.,.F.,(2,2),(0.00000000000000000E0,1.00000000000000000E0),.UNSPECIFIED.);
#127=CARTESIAN_POINT('',(2.70521984266857061E1,-4.49950565951950132E0,1.94364543665275775E1));
#128=CARTESIAN_POINT('',(2.40675184113641727E1,1.36467322438054461E0,2.66312852348497167E1));
#129=B_SPLINE_CURVE_WITH_KNOTS('',1,(#127,#128),.UNSPECIFIED.,.F.,.F.,(2,2),(0.00000000000000000E0,1.00000000000000000E0),.UNSPECIFIED.);
#130=CARTESIAN_POINT('',(1.71606613708880431E1,-2.15069671666768070E0,2.66312852348497167E1));
#131=CARTESIAN_POINT('',(2.40675184113641727E1,1.36467322438054461E0,2.66312852348497167E1));
#132=B_SPLINE_CURVE_WITH_KNOTS('',1,(#130,#131),.UNSPECIFIED.,.F.,.F.,(2,2),(0.00000000000000000E0,1.00000000000000000E0),.UNSPECIFIED.);
#133=CARTESIAN_POINT('',(1.89461963777551077E1,-6.20999496194462708E0,3.06805397952773191E1));
#134=CARTESIAN_POINT('',(1.88696661209519903E1,-6.05963140081898466E0,3.08650226380548105E1));
#135=CARTESIAN_POINT('',(1.90924679609673511E1,-5.94623237046259057E0,3.08650226380548105E1));
#136=(BOUNDED_CURVE()B_SPLINE_CURVE(2,(#133,#134,#135),.UNSPECIFIED.,.F.,.F.)B_SPLINE_CURVE_WITH_KNOTS((3,3),(0.00000000000000000E0,1.00000000000000000E0),.UNSPECIFIED.)CURVE()GEOMETRIC_REPRESENTATION_ITEM()RATIONAL_B_SPLINE_CURVE((1.00000000000000000E0,7.07106781186547573E-1,1.00000000000000000E0))REPRESENTATION_ITEM(''));
#137=CARTESIAN_POINT('',(1.70215402328261192E1,-2.42850821431243125E0,2.68000041748675315E1));
#138=CARTESIAN_POINT('',(1.69450099760230053E1,-2.27814465318678927E0,2.69844870176450229E1));
#139=CARTESIAN_POINT('',(1.71678118160383626E1,-2.16474562283039473E0,2.69844870176450229E1));
#140=(BOUNDED_CURVE()B_SPLINE_CURVE(2,(#137,#138,#139),.UNSPECIFIED.,.F.,.F.)B_SPLINE_CURVE_WITH_KNOTS((3,3),(0.00000000000000000E0,1.00000000000000000E0),.UNSPECIFIED.)CURVE()GEOMETRIC_REPRESENTATION_ITEM()RATIONAL_B_SPLINE_CURVE((1.00000000000000000E0,7.07106781186547573E-1,1.00000000000000000E0))REPRESENTATION_ITEM(''));
#141=CARTESIAN_POINT('',(1.70215402328261192E1,-2.42850821431243125E0,2.68000041748675315E1));
#142=CARTESIAN_POINT('',(1.69378595308726858E1,-2.26409574702407523E0,2.66312852348497167E1));
#143=CARTESIAN_POINT('',(1.71606613708880431E1,-2.15069671666768070E0,2.66312852348497167E1));
#144=(BOUNDED_CURVE()B_SPLINE_CURVE(2,(#141,#142,#143),.UNSPECIFIED.,.F.,.F.)B_SPLINE_CURVE_WITH_KNOTS((3,3),(0.00000000000000000E0,1.00000000000000000E0),.UNSPECIFIED.)CURVE()GEOMETRIC_REPRESENTATION_ITEM()RATIONAL_B_SPLINE_CURVE((2.00000000000000000E0,1.00000000000000000E0,1.00000000000000000E0))REPRESENTATION_ITEM(''));
#145=CARTESIAN_POINT('',(1.71678118160383626E1,-2.16474562283039473E0,2.69844870176450229E1));
#146=CARTESIAN_POINT('',(1.70841311140849292E1,-2.00033315554203872E0,2.68157680776272045E1));
#147=CARTESIAN_POINT('',(1.71606613708880431E1,-2.15069671666768070E0,2.66312852348497167E1));
#148=(BOUNDED_CURVE()B_SPLINE_CURVE(2,(#145,#146,#147),.UNSPECIFIED.,.F.,.F.)B_SPLINE_CURVE_WITH_KNOTS((3,3),(0.00000000000000000E0,1.00000000000000000E0),.UNSPECIFIED.)CURVE()GEOMETRIC_REPRESENTATION_ITEM()RATIONAL_B_SPLINE_CURVE((2.00000000000000000E0,1.00000000000000000E0,1.00000000000000000E0))REPRESENTATION_ITEM(''));
#149=CARTESIAN_POINT('',(2.00062202481476561E1,-8.29268709821247718E0,1.96051733065453959E1));
#150=CARTESIAN_POINT('',(1.99225395461942227E1,-8.12827463092412117E0,1.94364543665275775E1));
#151=CARTESIAN_POINT('',(2.01453413862095800E1,-8.01487560056772708E0,1.94364543665275775E1));
#152=(BOUNDED_CURVE()B_SPLINE_CURVE(2,(#149,#150,#151),.UNSPECIFIED.,.F.,.F.)B_SPLINE_CURVE_WITH_KNOTS((3,3),(0.00000000000000000E0,1.00000000000000000E0),.UNSPECIFIED.)CURVE()GEOMETRIC_REPRESENTATION_ITEM()RATIONAL_B_SPLINE_CURVE((2.00000000000000000E0,1.00000000000000000E0,1.00000000000000000E0))REPRESENTATION_ITEM(''));
#153=CARTESIAN_POINT('',(2.40746688565144922E1,1.35062431821783058E0,2.69844870176450229E1));
#154=CARTESIAN_POINT('',(2.39909881545610553E1,1.51503678550618659E0,2.68157680776272045E1));
#155=CARTESIAN_POINT('',(2.40675184113641727E1,1.36467322438054461E0,2.66312852348497167E1));
#156=(BOUNDED_CURVE()B_SPLINE_CURVE(2,(#153,#154,#155),.UNSPECIFIED.,.F.,.F.)B_SPLINE_CURVE_WITH_KNOTS((3,3),(0.00000000000000000E0,1.00000000000000000E0),.UNSPECIFIED.)CURVE()GEOMETRIC_REPRESENTATION_ITEM()RATIONAL_B_SPLINE_CURVE((2.00000000000000000E0,1.00000000000000000E0,1.00000000000000000E0))REPRESENTATION_ITEM(''));
#157=(GEOMETRIC_REPRESENTATION_CONTEXT(2)REPRESENTATION_CONTEXT('','2D'));
#158=CARTESIAN_POINT('',(1.00000000000000000E0,0.00000000000000000E0));
#159=CARTESIAN_POINT('',(1.00000000000000000E0,1.00000000000000000E0));
#160=B_SPLINE_CURVE_WITH_KNOTS('',1,(#158,#159),.UNSPECIFIED.,.F.,.F.,(2,2),(0.00000000000000000E0,1.00000000000000000E0),.UNSPECIFIED.);
#161=DEFINITIONAL_REPRESENTATION('',(#160),#157);
#162=PCURVE('',#31,#161);
#163=CARTESIAN_POINT('',(1.00000000000000000E0,1.00000000000000000E0));
#164=CARTESIAN_POINT('',(3.12500000000000000E-2,1.00000000000000000E0));
#165=B_SPLINE_CURVE_WITH_KNOTS('',1,(#163,#164),.UNSPECIFIED.,.F.,.F.,(2,2),(0.00000000000000000E0,1.00000000000000000E0),.UNSPECIFIED.);
#166=DEFINITIONAL_REPRESENTATION('',(#165),#157);
#167=PCURVE('',#31,#166);
#168=CARTESIAN_POINT('',(3.12500000000000000E-2,1.00000000000000000E0));
#169=CARTESIAN_POINT('',(0.00000000000000000E0,1.00000000000000000E0));
#170=CARTESIAN_POINT('',(0.00000000000000000E0,9.74999999999999978E-1));
#171=(BOUNDED_CURVE()B_SPLINE_CURVE(2,(#168,#169,#170),.UNSPECIFIED.,.F.,.F.)B_SPLINE_CURVE_WITH_KNOTS((3,3),(0.00000000000000000E0,1.00000000000000000E0),.UNSPECIFIED.)CURVE()GEOMETRIC_REPRESENTATION_ITEM()RATIONAL_B_SPLINE_CURVE((1.00000000000000000E0,7.07106781186547573E-1,1.00000000000000000E0))REPRESENTATION_ITEM(''));
#172=DEFINITIONAL_REPRESENTATION('',(#171),#157);
#173=PCURVE('',#31,#172);
#174=CARTESIAN_POINT('',(0.00000000000000000E0,9.74999999999999978E-1));
#175=CARTESIAN_POINT('',(0.00000000000000000E0,0.00000000000000000E0));
#176=B_SPLINE_CURVE_WITH_KNOTS('',1,(#174,#175),.UNSPECIFIED.,.F.,.F.,(2,2),(0.00000000000000000E0,1.00000000000000000E0),.UNSPECIFIED.);
#177=DEFINITIONAL_REPRESENTATION('',(#176),#157);
#178=PCURVE('',#31,#177);
#179=CARTESIAN_POINT('',(0.00000000000000000E0,0.00000000000000000E0));
#180=CARTESIAN_POINT('',(1.00000000000000000E0,0.00000000000000000E0));
#181=B_SPLINE_CURVE_WITH_KNOTS('',1,(#179,#180),.UNSPECIFIED.,.F.,.F.,(2,2),(0.00000000000000000E0,1.00000000000000000E0),.UNSPECIFIED.);
#182=DEFINITIONAL_REPRESENTATION('',(#181),#157);
#183=PCURVE('',#31,#182);
#184=CARTESIAN_POINT('',(0.00000000000000000E0,0.00000000000000000E0));
#185=CARTESIAN_POINT('',(9.68750000000000000E-1,0.00000000000000000E0));
#186=B_SPLINE_CURVE_WITH_KNOTS('',1,(#184,#185),.UNSPECIFIED.,.F.,.F.,(2,2),(0.00000000000000000E0,1.00000000000000000E0),.UNSPECIFIED.);
#187=DEFINITIONAL_REPRESENTATION('',(#186),#157);
#188=PCURVE('',#36,#187);
#189=CARTESIAN_POINT('',(9.68750000000000000E-1,0.00000000000000000E0));
#190=CARTESIAN_POINT('',(9.68750000000000000E-1,9.74999999999999978E-1));
#191=B_SPLINE_CURVE_WITH_KNOTS('',1,(#189,#190),.UNSPECIFIED.,.F.,.F.,(2,2),(0.00000000000000000E0,1.00000000000000000E0),.UNSPECIFIED.);
#192=DEFINITIONAL_REPRESENTATION('',(#191),#157);
#193=PCURVE('',#36,#192);
#194=CARTESIAN_POINT('',(9.68750000000000000E-1,9.74999999999999978E-1));
#195=CARTESIAN_POINT('',(0.00000000000000000E0,9.74999999999999978E-1));
#196=B_SPLINE_CURVE_WITH_KNOTS('',1,(#194,#195),.UNSPECIFIED.,.F.,.F.,(2,2),(0.00000000000000000E0,1.00000000000000000E0),.UNSPECIFIED.);
#197=DEFINITIONAL_REPRESENTATION('',(#196),#157);
#198=PCURVE('',#36,#197);
#199=CARTESIAN_POINT('',(0.00000000000000000E0,9.74999999999999978E-1));
#200=CARTESIAN_POINT('',(0.00000000000000000E0,0.00000000000000000E0));
#201=B_SPLINE_CURVE_WITH_KNOTS('',1,(#199,#200),.UNSPECIFIED.,.F.,.F.,(2,2),(0.00000000000000000E0,1.00000000000000000E0),.UNSPECIFIED.);
#202=DEFINITIONAL_REPRESENTATION('',(#201),#157);
#203=PCURVE('',#36,#202);
#204=CARTESIAN_POINT('',(1.00000000000000000E0,0.00000000000000000E0));
#205=CARTESIAN_POINT('',(1.00000000000000000E0,1.00000000000000000E0));
#206=B_SPLINE_CURVE_WITH_KNOTS('',1,(#204,#205),.UNSPECIFIED.,.F.,.F.,(2,2),(0.00000000000000000E0,1.00000000000000000E0),.UNSPECIFIED.);
#207=DEFINITIONAL_REPRESENTATION('',(#206),#157);
#208=PCURVE('',#41,#207);
#209=CARTESIAN_POINT('',(1.00000000000000000E0,1.00000000000000000E0));
#210=CARTESIAN_POINT('',(2.50000000000000222E-2,1.00000000000000000E0));
#211=B_SPLINE_CURVE_WITH_KNOTS('',1,(#209,#210),.UNSPECIFIED.,.F.,.F.,(2,2),(0.00000000000000000E0,1.00000000000000000E0),.UNSPECIFIED.);
#212=DEFINITIONAL_REPRESENTATION('',(#211),#157);
#213=PCURVE('',#41,#212);
#214=CARTESIAN_POINT('',(2.50000000000000222E-2,1.00000000000000000E0));
#215=CARTESIAN_POINT('',(0.00000000000000000E0,1.00000000000000000E0));
#216=CARTESIAN_POINT('',(0.00000000000000000E0,9.58333333333333370E-1));
#217=(BOUNDED_CURVE()B_SPLINE_CURVE(2,(#214,#215,#216),.UNSPECIFIED.,.F.,.F.)B_SPLINE_CURVE_WITH_KNOTS((3,3),(0.00000000000000000E0,1.00000000000000000E0),.UNSPECIFIED.)CURVE()GEOMETRIC_REPRESENTATION_ITEM()RATIONAL_B_SPLINE_CURVE((1.00000000000000000E0,1.00000000000000000E0,2.00000000000000000E0))REPRESENTATION_ITEM(''));
#218=DEFINITIONAL_REPRESENTATION('',(#217),#157);
#219=PCURVE('',#41,#218);
#220=CARTESIAN_POINT('',(0.00000000000000000E0,9.58333333333333370E-1));
#221=CARTESIAN_POINT('',(0.00000000000000000E0,0.00000000000000000E0));
#222=B_SPLINE_CURVE_WITH_KNOTS('',1,(#220,#221),.UNSPECIFIED.,.F.,.F.,(2,2),(0.00000000000000000E0,1.00000000000000000E0),.UNSPECIFIED.);
#223=DEFINITIONAL_REPRESENTATION('',(#222),#157);
#224=PCURVE('',#41,#223);
#225=CARTESIAN_POINT('',(0.00000000000000000E0,0.00000000000000000E0));
#226=CARTESIAN_POINT('',(1.00000000000000000E0,0.00000000000000000E0));
#227=B_SPLINE_CURVE_WITH_KNOTS('',1,(#225,#226),.UNSPECIFIED.,.F.,.F.,(2,2),(0.00000000000000000E0,1.00000000000000000E0),.UNSPECIFIED.);
#228=DEFINITIONAL_REPRESENTATION('',(#227),#157);
#229=PCURVE('',#41,#228);
#230=CARTESIAN_POINT('',(0.00000000000000000E0,0.00000000000000000E0));
#231=CARTESIAN_POINT('',(1.00000000000000000E0,0.00000000000000000E0));
#232=B_SPLINE_CURVE_WITH_KNOTS('',1,(#230,#231),.UNSPECIFIED.,.F.,.F.,(2,2),(0.00000000000000000E0,1.00000000000000000E0),.UNSPECIFIED.);
#233=DEFINITIONAL_REPRESENTATION('',(#232),#157);
#234=PCURVE('',#46,#233);
#235=CARTESIAN_POINT('',(1.00000000000000000E0,0.00000000000000000E0));
#236=CARTESIAN_POINT('',(1.00000000000000000E0,9.58333333333333370E-1));
#237=B_SPLINE_CURVE_WITH_KNOTS('',1,(#235,#236),.UNSPECIFIED.,.F.,.F.,(2,2),(0.00000000000000000E0,1.00000000000000000E0),.UNSPECIFIED.);
#238=DEFINITIONAL_REPRESENTATION('',(#237),#157);
#239=PCURVE('',#46,#238);
#240=CARTESIAN_POINT('',(1.00000000000000000E0,9.58333333333333370E-1));
#241=CARTESIAN_POINT('',(1.00000000000000000E0,1.00000000000000000E0));
#242=CARTESIAN_POINT('',(9.68750000000000000E-1,1.00000000000000000E0));
#243=(BOUNDED_CURVE()B_SPLINE_CURVE(2,(#240,#241,#242),.UNSPECIFIED.,.F.,.F.)B_SPLINE_CURVE_WITH_KNOTS((3,3),(0.00000000000000000E0,1.00000000000000000E0),.UNSPECIFIED.)CURVE()GEOMETRIC_REPRESENTATION_ITEM()RATIONAL_B_SPLINE_CURVE((2.00000000000000000E0,1.00000000000000000E0,1.00000000000000000E0))REPRESENTATION_ITEM(''));
#244=DEFINITIONAL_REPRESENTATION('',(#243),#157);
#245=PCURVE('',#46,#244);
#246=CARTESIAN_POINT('',(9.68750000000000000E-1,1.00000000000000000E0));
#247=CARTESIAN_POINT('',(0.00000000000000000E0,1.00000000000000000E0));
#248=B_SPLINE_CURVE_WITH_KNOTS('',1,(#246,#247),.UNSPECIFIED.,.F.,.F.,(2,2),(0.00000000000000000E0,1.00000000000000000E0),.UNSPECIFIED.);
#249=DEFINITIONAL_REPRESENTATION('',(#248),#157);
#250=PCURVE('',#46,#249);
#251=CARTESIAN_POINT('',(0.00000000000000000E0,1.00000000000000000E0));
#252=CARTESIAN_POINT('',(0.00000000000000000E0,0.00000000000000000E0));
#253=B_SPLINE_CURVE_WITH_KNOTS('',1,(#251,#252),.UNSPECIFIED.,.F.,.F.,(2,2),(0.00000000000000000E0,1.00000000000000000E0),.UNSPECIFIED.);
#254=DEFINITIONAL_REPRESENTATION('',(#253),#157);
#255=PCURVE('',#46,#254);
#256=CARTESIAN_POINT('',(0.00000000000000000E0,0.00000000000000000E0));
#257=CARTESIAN_POINT('',(9.74999999999999978E-1,0.00000000000000000E0));
#258=B_SPLINE_CURVE_WITH_KNOTS('',1,(#256,#257),.UNSPECIFIED.,.F.,.F.,(2,2),(0.00000000000000000E0,1.00000000000000000E0),.UNSPECIFIED.);
#259=DEFINITIONAL_REPRESENTATION('',(#258),#157);
#260=PCURVE('',#51,#259);
#261=CARTESIAN_POINT('',(9.74999999999999978E-1,0.00000000000000000E0));
#262=CARTESIAN_POINT('',(9.74999999999999978E-1,9.58333333333333370E-1));
#263=B_SPLINE_CURVE_WITH_KNOTS('',1,(#261,#262),.UNSPECIFIED.,.F.,.F.,(2,2),(0.00000000000000000E0,1.00000000000000000E0),.UNSPECIFIED.);
#264=DEFINITIONAL_REPRESENTATION('',(#263),#157);
#265=PCURVE('',#51,#264);
#266=CARTESIAN_POINT('',(9.74999999999999978E-1,9.58333333333333370E-1));
#267=CARTESIAN_POINT('',(0.00000000000000000E0,9.58333333333333370E-1));
#268=B_SPLINE_CURVE_WITH_KNOTS('',1,(#266,#267),.UNSPECIFIED.,.F.,.F.,(2,2),(0.00000000000000000E0,1.00000000000000000E0),.UNSPECIFIED.);
#269=DEFINITIONAL_REPRESENTATION('',(#268),#157);
#270=PCURVE('',#51,#269);
#271=CARTESIAN_POINT('',(0.00000000000000000E0,9.58333333333333370E-1));
#272=CARTESIAN_POINT('',(0.00000000000000000E0,0.00000000000000000E0));
#273=B_SPLINE_CURVE_WITH_KNOTS('',1,(#271,#272),.UNSPECIFIED.,.F.,.F.,(2,2),(0.00000000000000000E0,1.00000000000000000E0),.UNSPECIFIED.);
#274=DEFINITIONAL_REPRESENTATION('',(#273),#157);
#275=PCURVE('',#51,#274);
#276=CARTESIAN_POINT('',(1.00000000000000000E0,0.00000000000000000E0));
#277=CARTESIAN_POINT('',(1.00000000000000000E0,9.58333333333333370E-1));
#278=B_SPLINE_CURVE_WITH_KNOTS('',1,(#276,#277),.UNSPECIFIED.,.F.,.F.,(2,2),(0.00000000000000000E0,1.00000000000000000E0),.UNSPECIFIED.);
#279=DEFINITIONAL_REPRESENTATION('',(#278),#157);
#280=PCURVE('',#56,#279);
#281=CARTESIAN_POINT('',(1.00000000000000000E0,9.58333333333333370E-1));
#282=CARTESIAN_POINT('',(3.12500000000000000E-2,9.58333333333333370E-1));
#283=B_SPLINE_CURVE_WITH_KNOTS('',1,(#281,#282),.UNSPECIFIED.,.F.,.F.,(2,2),(0.00000000000000000E0,1.00000000000000000E0),.UNSPECIFIED.);
#284=DEFINITIONAL_REPRESENTATION('',(#283),#157);
#285=PCURVE('',#56,#284);
#286=CARTESIAN_POINT('',(3.12500000000000000E-2,9.58333333333333370E-1));
#287=CARTESIAN_POINT('',(3.12500000000000000E-2,0.00000000000000000E0));
#288=B_SPLINE_CURVE_WITH_KNOTS('',1,(#286,#287),.UNSPECIFIED.,.F.,.F.,(2,2),(0.00000000000000000E0,1.00000000000000000E0),.UNSPECIFIED.);
#289=DEFINITIONAL_REPRESENTATION('',(#288),#157);
#290=PCURVE('',#56,#289);
#291=CARTESIAN_POINT('',(3.12500000000000000E-2,0.00000000000000000E0));
#292=CARTESIAN_POINT('',(1.00000000000000000E0,0.00000000000000000E0));
#293=B_SPLINE_CURVE_WITH_KNOTS('',1,(#291,#292),.UNSPECIFIED.,.F.,.F.,(2,2),(0.00000000000000000E0,1.00000000000000000E0),.UNSPECIFIED.);
#294=DEFINITIONAL_REPRESENTATION('',(#293),#157);
#295=PCURVE('',#56,#294);
#296=CARTESIAN_POINT('',(0.00000000000000000E0,0.00000000000000000E0));
#297=CARTESIAN_POINT('',(1.00000000000000000E0,0.00000000000000000E0));
#298=B_SPLINE_CURVE_WITH_KNOTS('',1,(#296,#297),.UNSPECIFIED.,.F.,.F.,(2,2),(0.00000000000000000E0,1.00000000000000000E0),.UNSPECIFIED.);
#299=DEFINITIONAL_REPRESENTATION('',(#298),#157);
#300=PCURVE('',#63,#299);
#301=CARTESIAN_POINT('',(1.00000000000000000E0,0.00000000000000000E0));
#302=CARTESIAN_POINT('',(1.00000000000000000E0,1.00000000000000000E0));
#303=B_SPLINE_CURVE_WITH_KNOTS('',1,(#301,#302),.UNSPECIFIED.,.F.,.F.,(2,2),(0.00000000000000000E0,1.00000000000000000E0),.UNSPECIFIED.);
#304=DEFINITIONAL_REPRESENTATION('',(#303),#157);
#305=PCURVE('',#63,#304);
#306=CARTESIAN_POINT('',(1.00000000000000000E0,1.00000000000000000E0));
#307=CARTESIAN_POINT('',(0.00000000000000000E0,1.00000000000000000E0));
#308=B_SPLINE_CURVE_WITH_KNOTS('',1,(#306,#307),.UNSPECIFIED.,.F.,.F.,(2,2),(0.00000000000000000E0,1.00000000000000000E0),.UNSPECIFIED.);
#309=DEFINITIONAL_REPRESENTATION('',(#308),#157);
#310=PCURVE('',#63,#309);
#311=CARTESIAN_POINT('',(0.00000000000000000E0,1.00000000000000000E0));
#312=CARTESIAN_POINT('',(0.00000000000000000E0,0.00000000000000000E0));
#313=B_SPLINE_CURVE_WITH_KNOTS('',1,(#311,#312),.UNSPECIFIED.,.F.,.F.,(2,2),(0.00000000000000000E0,1.00000000000000000E0),.UNSPECIFIED.);
#314=DEFINITIONAL_REPRESENTATION('',(#313),#157);
#315=PCURVE('',#63,#314);
#316=CARTESIAN_POINT('',(1.00000000000000000E0,0.00000000000000000E0));
#317=CARTESIAN_POINT('',(1.00000000000000000E0,1.00000000000000000E0));
#318=B_SPLINE_CURVE_WITH_KNOTS('',1,(#316,#317),.UNSPECIFIED.,.F.,.F.,(2,2),(0.00000000000000000E0,1.00000000000000000E0),.UNSPECIFIED.);
#319=DEFINITIONAL_REPRESENTATION('',(#318),#157);
#320=PCURVE('',#70,#319);
#321=CARTESIAN_POINT('',(1.00000000000000000E0,1.00000000000000000E0));
#322=CARTESIAN_POINT('',(0.00000000000000000E0,1.00000000000000000E0));
#323=B_SPLINE_CURVE_WITH_KNOTS('',1,(#321,#322),.UNSPECIFIED.,.F.,.F.,(2,2),(0.00000000000000000E0,1.00000000000000000E0),.UNSPECIFIED.);
#324=DEFINITIONAL_REPRESENTATION('',(#323),#157);
#325=PCURVE('',#70,#324);
#326=CARTESIAN_POINT('',(0.00000000000000000E0,1.00000000000000000E0));
#327=CARTESIAN_POINT('',(0.00000000000000000E0,0.00000000000000000E0));
#328=B_SPLINE_CURVE_WITH_KNOTS('',1,(#326,#327),.UNSPECIFIED.,.F.,.F.,(2,2),(0.00000000000000000E0,1.00000000000000000E0),.UNSPECIFIED.);
#329=DEFINITIONAL_REPRESENTATION('',(#328),#157);
#330=PCURVE('',#70,#329);
#331=CARTESIAN_POINT('',(0.00000000000000000E0,0.00000000000000000E0));
#332=CARTESIAN_POINT('',(1.00000000000000000E0,0.00000000000000000E0));
#333=B_SPLINE_CURVE_WITH_KNOTS('',1,(#331,#332),.UNSPECIFIED.,.F.,.F.,(2,2),(0.00000000000000000E0,1.00000000000000000E0),.UNSPECIFIED.);
#334=DEFINITIONAL_REPRESENTATION('',(#333),#157);
#335=PCURVE('',#70,#334);
#336=CARTESIAN_POINT('',(0.00000000000000000E0,0.00000000000000000E0));
#337=CARTESIAN_POINT('',(1.00000000000000000E0,0.00000000000000000E0));
#338=B_SPLINE_CURVE_WITH_KNOTS('',1,(#336,#337),.UNSPECIFIED.,.F.,.F.,(2,2),(0.00000000000000000E0,1.00000000000000000E0),.UNSPECIFIED.);
#339=DEFINITIONAL_REPRESENTATION('',(#338),#157);
#340=PCURVE('',#77,#339);
#341=CARTESIAN_POINT('',(1.00000000000000000E0,0.00000000000000000E0));
#342=CARTESIAN_POINT('',(1.00000000000000000E0,1.00000000000000000E0));
#343=B_SPLINE_CURVE_WITH_KNOTS('',1,(#341,#342),.UNSPECIFIED.,.F.,.F.,(2,2),(0.00000000000000000E0,1.00000000000000000E0),.UNSPECIFIED.);
#344=DEFINITIONAL_REPRESENTATION('',(#343),#157);
#345=PCURVE('',#77,#344);
#346=CARTESIAN_POINT('',(1.00000000000000000E0,1.00000000000000000E0));
#347=CARTESIAN_POINT('',(0.00000000000000000E0,1.00000000000000000E0));
#348=B_SPLINE_CURVE_WITH_KNOTS('',1,(#346,#347),.UNSPECIFIED.,.F.,.F.,(2,2),(0.00000000000000000E0,1.00000000000000000E0),.UNSPECIFIED.);
#349=DEFINITIONAL_REPRESENTATION('',(#348),#157);
#350=PCURVE('',#77,#349);
#351=CARTESIAN_POINT('',(0.00000000000000000E0,1.00000000000000000E0));
#352=CARTESIAN_POINT('',(0.00000000000000000E0,0.00000000000000000E0));
#353=B_SPLINE_CURVE_WITH_KNOTS('',1,(#351,#352),.UNSPECIFIED.,.F.,.F.,(2,2),(0.00000000000000000E0,1.00000000000000000E0),.UNSPECIFIED.);
#354=DEFINITIONAL_REPRESENTATION('',(#353),#157);
#355=PCURVE('',#77,#354);
#356=CARTESIAN_POINT('',(0.00000000000000000E0,0.00000000000000000E0));
#357=CARTESIAN_POINT('',(1.00000000000000000E0,0.00000000000000000E0));
#358=B_SPLINE_CURVE_WITH_KNOTS('',1,(#356,#357),.UNSPECIFIED.,.F.,.F.,(2,2),(0.00000000000000000E0,1.00000000000000000E0),.UNSPECIFIED.);
#359=DEFINITIONAL_REPRESENTATION('',(#358),#157);
#360=PCURVE('',#87,#359);
#361=CARTESIAN_POINT('',(1.00000000000000000E0,0.00000000000000000E0));
#362=CARTESIAN_POINT('',(1.00000000000000000E0,1.00000000000000000E0));
#363=CARTESIAN_POINT('',(0.00000000000000000E0,1.00000000000000000E0));
#364=(BOUNDED_CURVE()B_SPLINE_CURVE(2,(#361,#362,#363),.UNSPECIFIED.,.F.,.F.)B_SPLINE_CURVE_WITH_KNOTS((3,3),(0.00000000000000000E0,1.00000000000000000E0),.UNSPECIFIED.)CURVE()GEOMETRIC_REPRESENTATION_ITEM()RATIONAL_B_SPLINE_CURVE((1.00000000000000000E0,7.07106781186547573E-1,1.00000000000000000E0))REPRESENTATION_ITEM(''));
#365=DEFINITIONAL_REPRESENTATION('',(#364),#157);
#366=PCURVE('',#87,#365);
#367=CARTESIAN_POINT('',(0.00000000000000000E0,1.00000000000000000E0));
#368=CARTESIAN_POINT('',(0.00000000000000000E0,0.00000000000000000E0));
#369=B_SPLINE_CURVE_WITH_KNOTS('',1,(#367,#368),.UNSPECIFIED.,.F.,.F.,(2,2),(0.00000000000000000E0,1.00000000000000000E0),.UNSPECIFIED.);
#370=DEFINITIONAL_REPRESENTATION('',(#369),#157);
#371=PCURVE('',#87,#370);
#372=SURFACE_CURVE('',#90,(#183,#234),.PCURVE_S1.);
#373=EDGE_CURVE('OSCAD_TOPO/3|edge|e:0d1c8a88b74115326a3d2ac044e6482a|1a935dea5061d2f80783e16e78e3ab55a6f0a23baad135563f2bfd808515f660',#2,#4,#372,.T.);
#374=SURFACE_CURVE('',#93,(#178,#260),.PCURVE_S1.);
#375=EDGE_CURVE('OSCAD_TOPO/3|edge|e:76f26b1a31441202e439717add9170c2|2ac775fb8723624232b66a1bf5f23f34f71369a8131def6e4a04df56fb9bd983',#4,#10,#374,.T.);
#376=SURFACE_CURVE('',#96,(#167,#295),.PCURVE_S1.);
#377=EDGE_CURVE('OSCAD_TOPO/3|edge|e:035a3dea2d39b0ef07faa3b2ab23d0d7|64a68c74270d3f39ac9f544ae313e7100abcc3ae2252e82839d5bfba948093be',#6,#12,#376,.T.);
#378=SURFACE_CURVE('',#99,(#162,#229),.PCURVE_S1.);
#379=EDGE_CURVE('OSCAD_TOPO/3|edge|e:930a76a5b128523ed3d68b4e1f6f1b4d|1d73a1fc7ed066622fd3fc7076cf23fcaaa0cc818cda2214018a615ffd7fdedb',#2,#6,#378,.T.);
#380=SURFACE_CURVE('',#102,(#208,#255),.PCURVE_S1.);
#381=EDGE_CURVE('OSCAD_TOPO/3|edge|e:9f0bb72f4933b36fc017f1b1771c2992|697c5d7ccf6d0df0d29c6ea7ee031174ef9f3429cce4f2ed69d67a48684be58c',#2,#8,#380,.T.);
#382=SURFACE_CURVE('',#105,(#239,#275),.PCURVE_S1.);
#383=EDGE_CURVE('OSCAD_TOPO/3|edge|e:736e9b2aa9903db28a9395d86ef85737|8beec9cdbbcc4843f03712c392b89c499785a56db02e424daff9ce207dd274a3',#4,#20,#382,.T.);
#384=SURFACE_CURVE('',#108,(#270,#320),.PCURVE_S1.);
#385=EDGE_CURVE('OSCAD_TOPO/3|edge|e:b556ca03efab5292f5f7d976cc914b99|320d9d27df57476580223e33cceb2d15cd02b82103e815c99f2f77af9dd48ffe',#14,#20,#384,.T.);
#386=SURFACE_CURVE('',#111,(#265,#315),.PCURVE_S1.);
#387=EDGE_CURVE('OSCAD_TOPO/3|edge|e:d13c13b1a1b5b1c87ca943ce45203ffc|f1c8e96826505a9645e4f90e8811df9a0c1a30fa09fc0027ca289925609c60fd',#10,#14,#386,.T.);
#388=SURFACE_CURVE('',#114,(#290,#305),.PCURVE_S1.);
#389=EDGE_CURVE('OSCAD_TOPO/3|edge|e:b3a3887790d5724a2de3f6eed9319e4b|cf365267656d6b59e258df601aa75b6810e0b101aeec739387f74df1a783ef43',#12,#16,#388,.T.);
#390=SURFACE_CURVE('',#117,(#224,#280),.PCURVE_S1.);
#391=EDGE_CURVE('OSCAD_TOPO/3|edge|e:4f3fec11bab6d5fe6a1e1419e43f0f75|eba11d266651865a4f710d072c02dfcafc1d8f526505404f1a781dec150e2368',#6,#24,#390,.T.);
#392=SURFACE_CURVE('',#120,(#285,#355),.PCURVE_S1.);
#393=EDGE_CURVE('OSCAD_TOPO/3|edge|e:0d7321ca969ba648e543bcf47cdb92a5|0b12102b39905eb7ac0909a19e75c60f654232f4efadf7047d15f411cae4f29a',#16,#24,#392,.T.);
#394=SURFACE_CURVE('',#123,(#188,#250),.PCURVE_S1.);
#395=EDGE_CURVE('OSCAD_TOPO/3|edge|e:9cfb96939a649f7aa9b45e3710f8cba4|7efafb2434929b109c31c4f70a3cd4e8b9a74218d4f0ff8563691cb92250e031',#8,#22,#394,.T.);
#396=SURFACE_CURVE('',#126,(#193,#330),.PCURVE_S1.);
#397=EDGE_CURVE('OSCAD_TOPO/3|edge|e:4790be19b23b07755f4e3bc9d1aa3b96|e8bf0b7b427d075403f849d99f637e4d0fe25a307390eae3a7f3fa2b7b4070bc',#18,#22,#396,.T.);
#398=SURFACE_CURVE('',#129,(#203,#213),.PCURVE_S1.);
#399=EDGE_CURVE('OSCAD_TOPO/3|edge|e:c293168bb998ef4a6d4d8bf0cc095655|e769ea3faf1685b002074b54a2b5f1af95f7a5c000a0b8f0f5ae3fea9629d5a1',#8,#26,#398,.T.);
#400=SURFACE_CURVE('',#132,(#198,#345),.PCURVE_S1.);
#401=EDGE_CURVE('OSCAD_TOPO/3|edge|e:96a93e059b2cc1cf3cdc2348a8e1dec7|8f80553ce734d1c783b24661e16aed1fea0ce8d61ad5fa78f88b04472e5890d4',#18,#26,#400,.T.);
#402=SURFACE_CURVE('',#136,(#173,#300),.PCURVE_S1.);
#403=EDGE_CURVE('OSCAD_TOPO/3|edge|e:a0a52d83eeab13caf7d93dbf12a1f72c|47c23eb7af807fddba03830e6a4b39e56199aea586f9435fb43150917fe5ff72',#10,#12,#402,.T.);
#404=SURFACE_CURVE('',#140,(#310,#366),.PCURVE_S1.);
#405=EDGE_CURVE('OSCAD_TOPO/3|edge|e:d5f3e5e889bb61573f6ca07b3984cf72|8e31437a162d35591ab1e2ac2690d41df66e5a028d31fedee365af00ddf5c1cc',#14,#16,#404,.T.);
#406=SURFACE_CURVE('',#144,(#325,#360),.PCURVE_S1.);
#407=EDGE_CURVE('OSCAD_TOPO/3|edge|e:2b5c764dce7fa76e4a87395abe23fe45|4971ac482658ada0fbc6bf11a8a039f8282b39d602c3b143452359954a983132',#14,#18,#406,.T.);
#408=SURFACE_CURVE('',#148,(#350,#371),.PCURVE_S1.);
#409=EDGE_CURVE('OSCAD_TOPO/3|edge|e:920f112cd1397652f36ef0d6207b3c54|5e8c548448ff58cb1f384c102212602b0906f5be8c207b7208602141fe959036',#16,#18,#408,.T.);
#410=SURFACE_CURVE('',#152,(#245,#335),.PCURVE_S1.);
#411=EDGE_CURVE('OSCAD_TOPO/3|edge|e:498c3d0cc63e7bc32aab4bbffd0b76d2|b714e5e78bcfa767d6e66e282be2cc75e34205705dbc2bbb272c162cce26951c',#20,#22,#410,.T.);
#412=SURFACE_CURVE('',#156,(#219,#340),.PCURVE_S1.);
#413=EDGE_CURVE('OSCAD_TOPO/3|edge|e:dc5de2711f32966f7303a61771ffd6db|618f1b265589c1bf8af12ca310e2eff7bdc6fe87094de6e1f95b9f1834cbb533',#24,#26,#412,.T.);
#414=ORIENTED_EDGE('',*,*,#379,.T.);
#415=ORIENTED_EDGE('',*,*,#377,.T.);
#416=ORIENTED_EDGE('',*,*,#403,.F.);
#417=ORIENTED_EDGE('',*,*,#375,.F.);
#418=ORIENTED_EDGE('',*,*,#373,.F.);
#419=EDGE_LOOP('OSCAD_TOPO/3|loop|l:495116b1967398a1cc9c879b3c6fb82e|9194f033e2eb45a644585dcc82714e5f26effa59ceb8ecd8169998af71d2fee6',(#414,#415,#416,#417,#418));
#420=ORIENTED_EDGE('',*,*,#395,.T.);
#421=ORIENTED_EDGE('',*,*,#397,.F.);
#422=ORIENTED_EDGE('',*,*,#401,.T.);
#423=ORIENTED_EDGE('',*,*,#399,.F.);
#424=EDGE_LOOP('OSCAD_TOPO/3|loop|l:3cb010c5cf3cbed572d69b46ead8f31b|6e0dad262183ac1a04da12c78b84d2ee673343e198ae6985feac902e84c51ac6',(#420,#421,#422,#423));
#425=ORIENTED_EDGE('',*,*,#381,.T.);
#426=ORIENTED_EDGE('',*,*,#399,.T.);
#427=ORIENTED_EDGE('',*,*,#413,.F.);
#428=ORIENTED_EDGE('',*,*,#391,.F.);
#429=ORIENTED_EDGE('',*,*,#379,.F.);
#430=EDGE_LOOP('OSCAD_TOPO/3|loop|l:27fa9d34040a84c3bc2b6e69186654b7|2d7716e5c0859715c70a0e509f1fd7a8ef36fb114bac27495188de411d2982a1',(#425,#426,#427,#428,#429));
#431=ORIENTED_EDGE('',*,*,#373,.T.);
#432=ORIENTED_EDGE('',*,*,#383,.T.);
#433=ORIENTED_EDGE('',*,*,#411,.T.);
#434=ORIENTED_EDGE('',*,*,#395,.F.);
#435=ORIENTED_EDGE('',*,*,#381,.F.);
#436=EDGE_LOOP('OSCAD_TOPO/3|loop|l:30cd76aad9bfb2ac8daffd3cc3094b20|5922401a0084ab40d23d8df4b3e1cb6f0388329bcb7f56e0e35b94ed90694349',(#431,#432,#433,#434,#435));
#437=ORIENTED_EDGE('',*,*,#375,.T.);
#438=ORIENTED_EDGE('',*,*,#387,.T.);
#439=ORIENTED_EDGE('',*,*,#385,.T.);
#440=ORIENTED_EDGE('',*,*,#383,.F.);
#441=EDGE_LOOP('OSCAD_TOPO/3|loop|l:a3d2d686b8c8bdcb12845e8bba4dbcca|09009acde95d9a4b0a106c7818228c54693ce64250e3ecfd96f01a05f9027234',(#437,#438,#439,#440));
#442=ORIENTED_EDGE('',*,*,#391,.T.);
#443=ORIENTED_EDGE('',*,*,#393,.F.);
#444=ORIENTED_EDGE('',*,*,#389,.F.);
#445=ORIENTED_EDGE('',*,*,#377,.F.);
#446=EDGE_LOOP('OSCAD_TOPO/3|loop|l:98df5a05a875c66604dc9a7c07cc717b|2f80e688c5dd64cc73c77e272fdd41d7c9626aa13e0d7f56174039eccc98303f',(#442,#443,#444,#445));
#447=ORIENTED_EDGE('',*,*,#403,.T.);
#448=ORIENTED_EDGE('',*,*,#389,.T.);
#449=ORIENTED_EDGE('',*,*,#405,.F.);
#450=ORIENTED_EDGE('',*,*,#387,.F.);
#451=EDGE_LOOP('OSCAD_TOPO/3|loop|l:1e6ff11bb7f28e603cea370511e371fe|b4f4a1609a522e9b32cb2ddf06b8dcfeb0bcdf17ece0bd14a1651ddd5bc43282',(#447,#448,#449,#450));
#452=ORIENTED_EDGE('',*,*,#385,.F.);
#453=ORIENTED_EDGE('',*,*,#407,.T.);
#454=ORIENTED_EDGE('',*,*,#397,.T.);
#455=ORIENTED_EDGE('',*,*,#411,.F.);
#456=EDGE_LOOP('OSCAD_TOPO/3|loop|l:1d73d9a70e136db67548a716896ef1cd|d035056ce840efaec8ddbbd344f22fd26ae6ef5a550256499f79f13a32465fce',(#452,#453,#454,#455));
#457=ORIENTED_EDGE('',*,*,#413,.T.);
#458=ORIENTED_EDGE('',*,*,#401,.F.);
#459=ORIENTED_EDGE('',*,*,#409,.F.);
#460=ORIENTED_EDGE('',*,*,#393,.T.);
#461=EDGE_LOOP('OSCAD_TOPO/3|loop|l:07548def54930a0927938eb8ffe53396|129396d46728694bc02c9ca437c78b3931c43f8dd4d3e35849ca1a6faefd999e',(#457,#458,#459,#460));
#462=ORIENTED_EDGE('',*,*,#407,.F.);
#463=ORIENTED_EDGE('',*,*,#405,.T.);
#464=ORIENTED_EDGE('',*,*,#409,.T.);
#465=EDGE_LOOP('OSCAD_TOPO/3|loop|l:05d6ceaf22b158bdade399c39ff9b378|905d373983e27156b71799d89187f0b3b1344ac61060b4af92f106caa8f0621e',(#462,#463,#464));
#466=FACE_OUTER_BOUND('',#419,.T.);
#467=ADVANCED_FACE('OSCAD_TOPO/3|face|f:9763ec224c55ff24e91a73fd05a49b83|dc0d9784b686003831392805b4e23ed728793453e0998625556d64dff41c6554',(#466),#31,.T.);
#468=FACE_OUTER_BOUND('',#424,.T.);
#469=ADVANCED_FACE('OSCAD_TOPO/3|face|f:5f798806c1f918ea6870dd2025804fcd|122c67344932e5bd9eb68f2829267fcd9b392e10edd5de709e4d571b10c346ca',(#468),#36,.T.);
#470=FACE_OUTER_BOUND('',#430,.T.);
#471=ADVANCED_FACE('OSCAD_TOPO/3|face|f:61a9c81eca238a4d05a3b67f3eb29f55|5bb9538b6dbcd327b6e38cdcd0c8f9a3ac50c73ebc55291829a6c162356885f9',(#470),#41,.T.);
#472=FACE_OUTER_BOUND('',#436,.T.);
#473=ADVANCED_FACE('OSCAD_TOPO/3|face|f:b471a631bf418bbbf847c370baf2aa28|2c63c8f86b1199231001e6aeaa6a65f781bc8b9b5e822d3deb32d8a5fb9b4acd',(#472),#46,.T.);
#474=FACE_OUTER_BOUND('',#441,.T.);
#475=ADVANCED_FACE('OSCAD_TOPO/3|face|f:6fd94ee1c29c33e3136d42bbdbdb5474|aa347cf9466bca3f3b99d52550a5d0a0e689a0e6d7ac849d918b06bdc7d8decd',(#474),#51,.T.);
#476=FACE_OUTER_BOUND('',#446,.T.);
#477=ADVANCED_FACE('OSCAD_TOPO/3|face|f:dfd5f795ef73df943013a6cab42cca5c|ad861467336f4bf195bac49cec0e7360f326d931b11e736f90a5d6f0ce1e108f',(#476),#56,.T.);
#478=FACE_OUTER_BOUND('',#451,.T.);
#479=ADVANCED_FACE('OSCAD_TOPO/3|face|f:0e96a942e9e10af3556cc30c25fb9c6d|cc3cd084b47d949889e68e283a4b2a49cba53b925a9e5211778e40c9050f510c',(#478),#63,.T.);
#480=FACE_OUTER_BOUND('',#456,.T.);
#481=ADVANCED_FACE('OSCAD_TOPO/3|face|f:dabb42f29c95ca1826dfe87fe9c9904f|98ebc59da6349e9312af571a7695dd7f850f278fb2bf68ff71d7f9af0d236c24',(#480),#70,.T.);
#482=FACE_OUTER_BOUND('',#461,.T.);
#483=ADVANCED_FACE('OSCAD_TOPO/3|face|f:b11046c2f4ee686126c10ba1c0f871cb|6afc0b57ef3d083b1dc5f7163ee1069fc24bf83469fc37e3e06706db81d05473',(#482),#77,.T.);
#484=FACE_OUTER_BOUND('',#465,.T.);
#485=ADVANCED_FACE('OSCAD_TOPO/3|face|f:d8605d955fd3059f0e429fbf052fe285|c3c33efcb8ff5a41332bfa463141a255cd64409525a59cfa2c2b0c50c9473c21',(#484),#87,.T.);
#486=CLOSED_SHELL('OSCAD_TOPO/3|shell|s:53be1aa926e90b80ec39f8cf9e3c467e|4bf021138dc7ab965fb9cbc800b326678f7577493433578ec0bae565c930d938',(#467,#469,#471,#473,#475,#477,#479,#481,#483,#485));
#487=MANIFOLD_SOLID_BREP('OSCAD_TOPO/3|body|b:01d313137aceee8dc1e5dbf726ee0a81|1fa3a15e7a20fd59c8a8a65dc5e8db8b7212078e7e664808b72a21d9d1d1bb71',#486);
#488=(LENGTH_UNIT()NAMED_UNIT(*)SI_UNIT(.MILLI.,.METRE.));
#489=UNCERTAINTY_MEASURE_WITH_UNIT(LENGTH_MEASURE(9.99999999999999955E-8),#488,'distance_accuracy_value','');
#490=(GEOMETRIC_REPRESENTATION_CONTEXT(3)GLOBAL_UNCERTAINTY_ASSIGNED_CONTEXT((#489))GLOBAL_UNIT_ASSIGNED_CONTEXT((#488))REPRESENTATION_CONTEXT('','3D'));
#491=ADVANCED_BREP_SHAPE_REPRESENTATION('',(#487),#490);
#492=APPLICATION_CONTEXT('managed model based 3d engineering');
#493=PRODUCT_CONTEXT('',#492,'mechanical');
#494=PRODUCT('model','model','',(#493));
#495=PRODUCT_DEFINITION_FORMATION('1','',#494);
#496=PRODUCT_DEFINITION_CONTEXT('part definition',#492,'design');
#497=PRODUCT_DEFINITION('design','',#495,#496);
#498=PRODUCT_DEFINITION_SHAPE('','',#497);
#499=SHAPE_DEFINITION_REPRESENTATION(#498,#491);
ENDSEC;
END-ISO-10303-21;
