ISO-10303-21;
HEADER;
FILE_DESCRIPTION(('OpenSCAD Viewer retained AP242 B-rep'),'2;1');
FILE_NAME('model.step','',(''),(''),'OpenSCAD Viewer','OpenSCAD Viewer','');
FILE_SCHEMA(('AP242_MANAGED_MODEL_BASED_3D_ENGINEERING_MIM_LF'));
ENDSEC;
DATA;
#1=CARTESIAN_POINT('',(-7.00000000000000000E0,3.00000000000000000E0,4.00000000000000000E0));
#2=VERTEX_POINT('OSCAD_TOPO/3|vertex|v:08a69e9d487b9d2cca0fea9e5bab1bae|69736b220b53d84fa8b8f643d181f78c74deeefbc7aa414638c39b058338d8f7',#1);
#3=CARTESIAN_POINT('',(3.00000000000000000E0,3.00000000000000000E0,4.00000000000000000E0));
#4=VERTEX_POINT('OSCAD_TOPO/3|vertex|v:53a464579622ecae7631e4082e630b38|14d7b7bfc4f503382769214230c513b1797555b1ebe7beddd3dba74267e6137b',#3);
#5=CARTESIAN_POINT('',(3.00000000000000000E0,1.07500000000000000E1,4.00000000000000000E0));
#6=VERTEX_POINT('OSCAD_TOPO/3|vertex|v:9850f571a2129fbd918dcec08c1b143b|0a1cf642cb590d5907f590d278c00a1cc7127ba89e20c49abcb8585501c36f93',#5);
#7=CARTESIAN_POINT('',(2.75000000000000000E0,1.10000000000000000E1,4.00000000000000000E0));
#8=VERTEX_POINT('OSCAD_TOPO/3|vertex|v:f5983d512fb692896062b3f4759fcefb|1f964f62156e8afcd01cfafcef0472ddb597f3f8c0afdc56b1ae81b31659da7e',#7);
#9=CARTESIAN_POINT('',(-7.00000000000000000E0,1.10000000000000000E1,4.00000000000000000E0));
#10=VERTEX_POINT('OSCAD_TOPO/3|vertex|v:4cb20bc6570e7db143224a09414d50bb|909fcabf7d2bb7c0eb177d46addcaa99b4115e73e4516a91e9014decb7bc10ae',#9);
#11=CARTESIAN_POINT('',(-7.00000000000000000E0,3.00000000000000000E0,-2.00000000000000000E0));
#12=VERTEX_POINT('OSCAD_TOPO/3|vertex|v:e804411634460ae3462dd741d68271ac|1d1692c7474faa2ccc37a4d2bc73f5c22dd22581511251caecbb7bda4304016f',#11);
#13=CARTESIAN_POINT('',(-7.00000000000000000E0,1.07500000000000000E1,-2.00000000000000000E0));
#14=VERTEX_POINT('OSCAD_TOPO/3|vertex|v:8a92184dd5d610bf148a0b31c1d07f97|49482e4ff7c0d49f925a9e12271409f7f96061695bd7f597bc9de9cb6d7a8cf9',#13);
#15=CARTESIAN_POINT('',(2.75000000000000000E0,1.07500000000000000E1,-2.00000000000000000E0));
#16=VERTEX_POINT('OSCAD_TOPO/3|vertex|v:2ae2a0e27dc31b2d6578f936768ff975|1522e94bf9f1847985a62341d8d24f4c84bd0f90918202cce3b1824476e56f8d',#15);
#17=CARTESIAN_POINT('',(2.75000000000000000E0,3.00000000000000000E0,-2.00000000000000000E0));
#18=VERTEX_POINT('OSCAD_TOPO/3|vertex|v:109e053100fed497563f8e4f357fa9f5|a7faaafb6e620e0a61e12531ca2b1fc1498c189ee3524ebecd4aa78b11683305',#17);
#19=CARTESIAN_POINT('',(-7.00000000000000000E0,1.10000000000000000E1,-1.75000000000000000E0));
#20=VERTEX_POINT('OSCAD_TOPO/3|vertex|v:c3cc9253b9782cad00b0efc70cd0114b|0da25ed0e221efde5bdb0cca7966c92cda2ac4a4ca318a6f78f37506ceb5dcd5',#19);
#21=CARTESIAN_POINT('',(3.00000000000000000E0,3.00000000000000000E0,-1.75000000000000000E0));
#22=VERTEX_POINT('OSCAD_TOPO/3|vertex|v:00e977c9d7fec6774ef71d8654763d71|e1a1d16132b95ee4b29236512330cebc5281b056bc9d0da53b4de0911dd690e1',#21);
#23=CARTESIAN_POINT('',(3.00000000000000000E0,1.07500000000000000E1,-1.75000000000000000E0));
#24=VERTEX_POINT('OSCAD_TOPO/3|vertex|v:f1c0c5615708132e28f0b31474f88be1|2edf3a2adaabab463300562cb334485f3d44d71cfec242feb4735f4461d1ac16',#23);
#25=CARTESIAN_POINT('',(2.75000000000000000E0,1.10000000000000000E1,-1.75000000000000000E0));
#26=VERTEX_POINT('OSCAD_TOPO/3|vertex|v:6907f12af1875234f617dc4f9c5729af|5dcd0939cd6abba25d23a7fafcae238d28eaa702b5f7f7052afa9a9fbc45a1a3',#25);
#27=CARTESIAN_POINT('',(-7.00000000000000000E0,3.00000000000000000E0,4.00000000000000000E0));
#28=CARTESIAN_POINT('',(-7.00000000000000000E0,1.10000000000000000E1,4.00000000000000000E0));
#29=CARTESIAN_POINT('',(3.00000000000000000E0,3.00000000000000000E0,4.00000000000000000E0));
#30=CARTESIAN_POINT('',(3.00000000000000000E0,1.10000000000000000E1,4.00000000000000000E0));
#31=B_SPLINE_SURFACE_WITH_KNOTS('',1,1,((#27,#28),(#29,#30)),.UNSPECIFIED.,.F.,.F.,.F.,(2,2),(2,2),(0.00000000000000000E0,1.00000000000000000E0),(0.00000000000000000E0,1.00000000000000000E0),.UNSPECIFIED.);
#32=CARTESIAN_POINT('',(3.00000000000000000E0,3.00000000000000000E0,-2.00000000000000000E0));
#33=CARTESIAN_POINT('',(3.00000000000000000E0,1.10000000000000000E1,-2.00000000000000000E0));
#34=CARTESIAN_POINT('',(-7.00000000000000000E0,3.00000000000000000E0,-2.00000000000000000E0));
#35=CARTESIAN_POINT('',(-7.00000000000000000E0,1.10000000000000000E1,-2.00000000000000000E0));
#36=B_SPLINE_SURFACE_WITH_KNOTS('',1,1,((#32,#33),(#34,#35)),.UNSPECIFIED.,.F.,.F.,.F.,(2,2),(2,2),(0.00000000000000000E0,1.00000000000000000E0),(0.00000000000000000E0,1.00000000000000000E0),.UNSPECIFIED.);
#37=CARTESIAN_POINT('',(-7.00000000000000000E0,3.00000000000000000E0,4.00000000000000000E0));
#38=CARTESIAN_POINT('',(-7.00000000000000000E0,3.00000000000000000E0,-2.00000000000000000E0));
#39=CARTESIAN_POINT('',(-7.00000000000000000E0,1.10000000000000000E1,4.00000000000000000E0));
#40=CARTESIAN_POINT('',(-7.00000000000000000E0,1.10000000000000000E1,-2.00000000000000000E0));
#41=B_SPLINE_SURFACE_WITH_KNOTS('',1,1,((#37,#38),(#39,#40)),.UNSPECIFIED.,.F.,.F.,.F.,(2,2),(2,2),(0.00000000000000000E0,1.00000000000000000E0),(0.00000000000000000E0,1.00000000000000000E0),.UNSPECIFIED.);
#42=CARTESIAN_POINT('',(3.00000000000000000E0,3.00000000000000000E0,4.00000000000000000E0));
#43=CARTESIAN_POINT('',(3.00000000000000000E0,3.00000000000000000E0,-2.00000000000000000E0));
#44=CARTESIAN_POINT('',(-7.00000000000000000E0,3.00000000000000000E0,4.00000000000000000E0));
#45=CARTESIAN_POINT('',(-7.00000000000000000E0,3.00000000000000000E0,-2.00000000000000000E0));
#46=B_SPLINE_SURFACE_WITH_KNOTS('',1,1,((#42,#43),(#44,#45)),.UNSPECIFIED.,.F.,.F.,.F.,(2,2),(2,2),(0.00000000000000000E0,1.00000000000000000E0),(0.00000000000000000E0,1.00000000000000000E0),.UNSPECIFIED.);
#47=CARTESIAN_POINT('',(3.00000000000000000E0,1.10000000000000000E1,4.00000000000000000E0));
#48=CARTESIAN_POINT('',(3.00000000000000000E0,1.10000000000000000E1,-2.00000000000000000E0));
#49=CARTESIAN_POINT('',(3.00000000000000000E0,3.00000000000000000E0,4.00000000000000000E0));
#50=CARTESIAN_POINT('',(3.00000000000000000E0,3.00000000000000000E0,-2.00000000000000000E0));
#51=B_SPLINE_SURFACE_WITH_KNOTS('',1,1,((#47,#48),(#49,#50)),.UNSPECIFIED.,.F.,.F.,.F.,(2,2),(2,2),(0.00000000000000000E0,1.00000000000000000E0),(0.00000000000000000E0,1.00000000000000000E0),.UNSPECIFIED.);
#52=CARTESIAN_POINT('',(-7.00000000000000000E0,1.10000000000000000E1,4.00000000000000000E0));
#53=CARTESIAN_POINT('',(-7.00000000000000000E0,1.10000000000000000E1,-2.00000000000000000E0));
#54=CARTESIAN_POINT('',(3.00000000000000000E0,1.10000000000000000E1,4.00000000000000000E0));
#55=CARTESIAN_POINT('',(3.00000000000000000E0,1.10000000000000000E1,-2.00000000000000000E0));
#56=B_SPLINE_SURFACE_WITH_KNOTS('',1,1,((#52,#53),(#54,#55)),.UNSPECIFIED.,.F.,.F.,.F.,(2,2),(2,2),(0.00000000000000000E0,1.00000000000000000E0),(0.00000000000000000E0,1.00000000000000000E0),.UNSPECIFIED.);
#57=CARTESIAN_POINT('',(2.75000000000000000E0,1.10000000000000000E1,4.00000000000000000E0));
#58=CARTESIAN_POINT('',(2.75000000000000000E0,1.10000000000000000E1,-1.75000000000000000E0));
#59=CARTESIAN_POINT('',(3.00000000000000000E0,1.10000000000000000E1,4.00000000000000000E0));
#60=CARTESIAN_POINT('',(3.00000000000000000E0,1.10000000000000000E1,-1.75000000000000000E0));
#61=CARTESIAN_POINT('',(3.00000000000000000E0,1.07500000000000000E1,4.00000000000000000E0));
#62=CARTESIAN_POINT('',(3.00000000000000000E0,1.07500000000000000E1,-1.75000000000000000E0));
#63=(BOUNDED_SURFACE()B_SPLINE_SURFACE(2,1,((#57,#58),(#59,#60),(#61,#62)),.UNSPECIFIED.,.F.,.F.,.F.)B_SPLINE_SURFACE_WITH_KNOTS((3,3),(2,2),(0.00000000000000000E0,1.00000000000000000E0),(0.00000000000000000E0,1.00000000000000000E0),.UNSPECIFIED.)GEOMETRIC_REPRESENTATION_ITEM()RATIONAL_B_SPLINE_SURFACE(((1.00000000000000000E0,1.00000000000000000E0),(7.07106781186547573E-1,7.07106781186547573E-1),(1.00000000000000000E0,1.00000000000000000E0)))REPRESENTATION_ITEM('')SURFACE());
#64=CARTESIAN_POINT('',(3.00000000000000000E0,3.00000000000000000E0,-1.75000000000000000E0));
#65=CARTESIAN_POINT('',(3.00000000000000000E0,1.07500000000000000E1,-1.75000000000000000E0));
#66=CARTESIAN_POINT('',(3.00000000000000000E0,3.00000000000000000E0,-2.00000000000000000E0));
#67=CARTESIAN_POINT('',(3.00000000000000000E0,1.07500000000000000E1,-2.00000000000000000E0));
#68=CARTESIAN_POINT('',(2.75000000000000000E0,3.00000000000000000E0,-2.00000000000000000E0));
#69=CARTESIAN_POINT('',(2.75000000000000000E0,1.07500000000000000E1,-2.00000000000000000E0));
#70=(BOUNDED_SURFACE()B_SPLINE_SURFACE(2,1,((#64,#65),(#66,#67),(#68,#69)),.UNSPECIFIED.,.F.,.F.,.F.)B_SPLINE_SURFACE_WITH_KNOTS((3,3),(2,2),(0.00000000000000000E0,1.00000000000000000E0),(0.00000000000000000E0,1.00000000000000000E0),.UNSPECIFIED.)GEOMETRIC_REPRESENTATION_ITEM()RATIONAL_B_SPLINE_SURFACE(((2.00000000000000000E0,2.00000000000000000E0),(1.00000000000000000E0,1.00000000000000000E0),(1.00000000000000000E0,1.00000000000000000E0)))REPRESENTATION_ITEM('')SURFACE());
#71=CARTESIAN_POINT('',(-7.00000000000000000E0,1.07500000000000000E1,-2.00000000000000000E0));
#72=CARTESIAN_POINT('',(2.75000000000000000E0,1.07500000000000000E1,-2.00000000000000000E0));
#73=CARTESIAN_POINT('',(-7.00000000000000000E0,1.10000000000000000E1,-2.00000000000000000E0));
#74=CARTESIAN_POINT('',(2.75000000000000000E0,1.10000000000000000E1,-2.00000000000000000E0));
#75=CARTESIAN_POINT('',(-7.00000000000000000E0,1.10000000000000000E1,-1.75000000000000000E0));
#76=CARTESIAN_POINT('',(2.75000000000000000E0,1.10000000000000000E1,-1.75000000000000000E0));
#77=(BOUNDED_SURFACE()B_SPLINE_SURFACE(2,1,((#71,#72),(#73,#74),(#75,#76)),.UNSPECIFIED.,.F.,.F.,.F.)B_SPLINE_SURFACE_WITH_KNOTS((3,3),(2,2),(0.00000000000000000E0,1.00000000000000000E0),(0.00000000000000000E0,1.00000000000000000E0),.UNSPECIFIED.)GEOMETRIC_REPRESENTATION_ITEM()RATIONAL_B_SPLINE_SURFACE(((1.00000000000000000E0,1.00000000000000000E0),(1.00000000000000000E0,1.00000000000000000E0),(2.00000000000000000E0,2.00000000000000000E0)))REPRESENTATION_ITEM('')SURFACE());
#78=CARTESIAN_POINT('',(3.00000000000000000E0,1.07500000000000000E1,-1.75000000000000000E0));
#79=CARTESIAN_POINT('',(3.00000000000000000E0,1.08750000000000000E1,-1.75000000000000000E0));
#80=CARTESIAN_POINT('',(2.91666666666666652E0,1.09166666666666661E1,-1.66666666666666652E0));
#81=CARTESIAN_POINT('',(3.00000000000000000E0,1.07500000000000000E1,-2.00000000000000000E0));
#82=CARTESIAN_POINT('',(3.00000000000000000E0,1.10000000000000000E1,-2.00000000000000000E0));
#83=CARTESIAN_POINT('',(2.87500000000000000E0,1.10000000000000000E1,-1.75000000000000000E0));
#84=CARTESIAN_POINT('',(2.75000000000000000E0,1.07500000000000000E1,-2.00000000000000000E0));
#85=CARTESIAN_POINT('',(2.75000000000000000E0,1.10000000000000000E1,-2.00000000000000000E0));
#86=CARTESIAN_POINT('',(2.75000000000000000E0,1.10000000000000000E1,-1.75000000000000000E0));
#87=(BOUNDED_SURFACE()B_SPLINE_SURFACE(2,2,((#78,#79,#80),(#81,#82,#83),(#84,#85,#86)),.UNSPECIFIED.,.F.,.F.,.F.)B_SPLINE_SURFACE_WITH_KNOTS((3,3),(3,3),(0.00000000000000000E0,1.00000000000000000E0),(0.00000000000000000E0,1.00000000000000000E0),.UNSPECIFIED.)GEOMETRIC_REPRESENTATION_ITEM()RATIONAL_B_SPLINE_SURFACE(((2.00000000000000000E0,2.00000000000000000E0,3.00000000000000000E0),(1.00000000000000000E0,1.00000000000000000E0,2.00000000000000000E0),(1.00000000000000000E0,1.00000000000000000E0,2.00000000000000000E0)))REPRESENTATION_ITEM('')SURFACE());
#88=CARTESIAN_POINT('',(-7.00000000000000000E0,3.00000000000000000E0,4.00000000000000000E0));
#89=CARTESIAN_POINT('',(3.00000000000000000E0,3.00000000000000000E0,4.00000000000000000E0));
#90=B_SPLINE_CURVE_WITH_KNOTS('',1,(#88,#89),.UNSPECIFIED.,.F.,.F.,(2,2),(0.00000000000000000E0,1.00000000000000000E0),.UNSPECIFIED.);
#91=CARTESIAN_POINT('',(3.00000000000000000E0,3.00000000000000000E0,4.00000000000000000E0));
#92=CARTESIAN_POINT('',(3.00000000000000000E0,1.07500000000000000E1,4.00000000000000000E0));
#93=B_SPLINE_CURVE_WITH_KNOTS('',1,(#91,#92),.UNSPECIFIED.,.F.,.F.,(2,2),(0.00000000000000000E0,1.00000000000000000E0),.UNSPECIFIED.);
#94=CARTESIAN_POINT('',(3.00000000000000000E0,1.07500000000000000E1,4.00000000000000000E0));
#95=CARTESIAN_POINT('',(3.00000000000000000E0,1.10000000000000000E1,4.00000000000000000E0));
#96=CARTESIAN_POINT('',(2.75000000000000000E0,1.10000000000000000E1,4.00000000000000000E0));
#97=(BOUNDED_CURVE()B_SPLINE_CURVE(2,(#94,#95,#96),.UNSPECIFIED.,.F.,.F.)B_SPLINE_CURVE_WITH_KNOTS((3,3),(0.00000000000000000E0,1.00000000000000000E0),.UNSPECIFIED.)CURVE()GEOMETRIC_REPRESENTATION_ITEM()RATIONAL_B_SPLINE_CURVE((1.00000000000000000E0,7.07106781186547573E-1,1.00000000000000000E0))REPRESENTATION_ITEM(''));
#98=CARTESIAN_POINT('',(-7.00000000000000000E0,1.10000000000000000E1,4.00000000000000000E0));
#99=CARTESIAN_POINT('',(2.75000000000000000E0,1.10000000000000000E1,4.00000000000000000E0));
#100=B_SPLINE_CURVE_WITH_KNOTS('',1,(#98,#99),.UNSPECIFIED.,.F.,.F.,(2,2),(0.00000000000000000E0,1.00000000000000000E0),.UNSPECIFIED.);
#101=CARTESIAN_POINT('',(-7.00000000000000000E0,3.00000000000000000E0,4.00000000000000000E0));
#102=CARTESIAN_POINT('',(-7.00000000000000000E0,1.10000000000000000E1,4.00000000000000000E0));
#103=B_SPLINE_CURVE_WITH_KNOTS('',1,(#101,#102),.UNSPECIFIED.,.F.,.F.,(2,2),(0.00000000000000000E0,1.00000000000000000E0),.UNSPECIFIED.);
#104=CARTESIAN_POINT('',(-7.00000000000000000E0,3.00000000000000000E0,-2.00000000000000000E0));
#105=CARTESIAN_POINT('',(-7.00000000000000000E0,1.07500000000000000E1,-2.00000000000000000E0));
#106=B_SPLINE_CURVE_WITH_KNOTS('',1,(#104,#105),.UNSPECIFIED.,.F.,.F.,(2,2),(0.00000000000000000E0,1.00000000000000000E0),.UNSPECIFIED.);
#107=CARTESIAN_POINT('',(2.75000000000000000E0,1.07500000000000000E1,-2.00000000000000000E0));
#108=CARTESIAN_POINT('',(-7.00000000000000000E0,1.07500000000000000E1,-2.00000000000000000E0));
#109=B_SPLINE_CURVE_WITH_KNOTS('',1,(#107,#108),.UNSPECIFIED.,.F.,.F.,(2,2),(0.00000000000000000E0,1.00000000000000000E0),.UNSPECIFIED.);
#110=CARTESIAN_POINT('',(2.75000000000000000E0,1.07500000000000000E1,-2.00000000000000000E0));
#111=CARTESIAN_POINT('',(2.75000000000000000E0,3.00000000000000000E0,-2.00000000000000000E0));
#112=B_SPLINE_CURVE_WITH_KNOTS('',1,(#110,#111),.UNSPECIFIED.,.F.,.F.,(2,2),(0.00000000000000000E0,1.00000000000000000E0),.UNSPECIFIED.);
#113=CARTESIAN_POINT('',(-7.00000000000000000E0,3.00000000000000000E0,-2.00000000000000000E0));
#114=CARTESIAN_POINT('',(2.75000000000000000E0,3.00000000000000000E0,-2.00000000000000000E0));
#115=B_SPLINE_CURVE_WITH_KNOTS('',1,(#113,#114),.UNSPECIFIED.,.F.,.F.,(2,2),(0.00000000000000000E0,1.00000000000000000E0),.UNSPECIFIED.);
#116=CARTESIAN_POINT('',(-7.00000000000000000E0,1.10000000000000000E1,4.00000000000000000E0));
#117=CARTESIAN_POINT('',(-7.00000000000000000E0,1.10000000000000000E1,-1.75000000000000000E0));
#118=B_SPLINE_CURVE_WITH_KNOTS('',1,(#116,#117),.UNSPECIFIED.,.F.,.F.,(2,2),(0.00000000000000000E0,1.00000000000000000E0),.UNSPECIFIED.);
#119=CARTESIAN_POINT('',(-7.00000000000000000E0,1.10000000000000000E1,-1.75000000000000000E0));
#120=CARTESIAN_POINT('',(-7.00000000000000000E0,1.10000000000000000E1,-2.00000000000000000E0));
#121=CARTESIAN_POINT('',(-7.00000000000000000E0,1.07500000000000000E1,-2.00000000000000000E0));
#122=(BOUNDED_CURVE()B_SPLINE_CURVE(2,(#119,#120,#121),.UNSPECIFIED.,.F.,.F.)B_SPLINE_CURVE_WITH_KNOTS((3,3),(0.00000000000000000E0,1.00000000000000000E0),.UNSPECIFIED.)CURVE()GEOMETRIC_REPRESENTATION_ITEM()RATIONAL_B_SPLINE_CURVE((2.00000000000000000E0,1.00000000000000000E0,1.00000000000000000E0))REPRESENTATION_ITEM(''));
#123=CARTESIAN_POINT('',(-7.00000000000000000E0,3.00000000000000000E0,4.00000000000000000E0));
#124=CARTESIAN_POINT('',(-7.00000000000000000E0,3.00000000000000000E0,-2.00000000000000000E0));
#125=B_SPLINE_CURVE_WITH_KNOTS('',1,(#123,#124),.UNSPECIFIED.,.F.,.F.,(2,2),(0.00000000000000000E0,1.00000000000000000E0),.UNSPECIFIED.);
#126=CARTESIAN_POINT('',(3.00000000000000000E0,3.00000000000000000E0,-1.75000000000000000E0));
#127=CARTESIAN_POINT('',(3.00000000000000000E0,3.00000000000000000E0,-2.00000000000000000E0));
#128=CARTESIAN_POINT('',(2.75000000000000000E0,3.00000000000000000E0,-2.00000000000000000E0));
#129=(BOUNDED_CURVE()B_SPLINE_CURVE(2,(#126,#127,#128),.UNSPECIFIED.,.F.,.F.)B_SPLINE_CURVE_WITH_KNOTS((3,3),(0.00000000000000000E0,1.00000000000000000E0),.UNSPECIFIED.)CURVE()GEOMETRIC_REPRESENTATION_ITEM()RATIONAL_B_SPLINE_CURVE((2.00000000000000000E0,1.00000000000000000E0,1.00000000000000000E0))REPRESENTATION_ITEM(''));
#130=CARTESIAN_POINT('',(3.00000000000000000E0,3.00000000000000000E0,4.00000000000000000E0));
#131=CARTESIAN_POINT('',(3.00000000000000000E0,3.00000000000000000E0,-1.75000000000000000E0));
#132=B_SPLINE_CURVE_WITH_KNOTS('',1,(#130,#131),.UNSPECIFIED.,.F.,.F.,(2,2),(0.00000000000000000E0,1.00000000000000000E0),.UNSPECIFIED.);
#133=CARTESIAN_POINT('',(3.00000000000000000E0,1.07500000000000000E1,-1.75000000000000000E0));
#134=CARTESIAN_POINT('',(3.00000000000000000E0,3.00000000000000000E0,-1.75000000000000000E0));
#135=B_SPLINE_CURVE_WITH_KNOTS('',1,(#133,#134),.UNSPECIFIED.,.F.,.F.,(2,2),(0.00000000000000000E0,1.00000000000000000E0),.UNSPECIFIED.);
#136=CARTESIAN_POINT('',(3.00000000000000000E0,1.07500000000000000E1,4.00000000000000000E0));
#137=CARTESIAN_POINT('',(3.00000000000000000E0,1.07500000000000000E1,-1.75000000000000000E0));
#138=B_SPLINE_CURVE_WITH_KNOTS('',1,(#136,#137),.UNSPECIFIED.,.F.,.F.,(2,2),(0.00000000000000000E0,1.00000000000000000E0),.UNSPECIFIED.);
#139=CARTESIAN_POINT('',(2.75000000000000000E0,1.10000000000000000E1,4.00000000000000000E0));
#140=CARTESIAN_POINT('',(2.75000000000000000E0,1.10000000000000000E1,-1.75000000000000000E0));
#141=B_SPLINE_CURVE_WITH_KNOTS('',1,(#139,#140),.UNSPECIFIED.,.F.,.F.,(2,2),(0.00000000000000000E0,1.00000000000000000E0),.UNSPECIFIED.);
#142=CARTESIAN_POINT('',(2.75000000000000000E0,1.10000000000000000E1,-1.75000000000000000E0));
#143=CARTESIAN_POINT('',(-7.00000000000000000E0,1.10000000000000000E1,-1.75000000000000000E0));
#144=B_SPLINE_CURVE_WITH_KNOTS('',1,(#142,#143),.UNSPECIFIED.,.F.,.F.,(2,2),(0.00000000000000000E0,1.00000000000000000E0),.UNSPECIFIED.);
#145=CARTESIAN_POINT('',(3.00000000000000000E0,1.07500000000000000E1,-1.75000000000000000E0));
#146=CARTESIAN_POINT('',(3.00000000000000000E0,1.10000000000000000E1,-1.75000000000000000E0));
#147=CARTESIAN_POINT('',(2.75000000000000000E0,1.10000000000000000E1,-1.75000000000000000E0));
#148=(BOUNDED_CURVE()B_SPLINE_CURVE(2,(#145,#146,#147),.UNSPECIFIED.,.F.,.F.)B_SPLINE_CURVE_WITH_KNOTS((3,3),(0.00000000000000000E0,1.00000000000000000E0),.UNSPECIFIED.)CURVE()GEOMETRIC_REPRESENTATION_ITEM()RATIONAL_B_SPLINE_CURVE((1.00000000000000000E0,7.07106781186547573E-1,1.00000000000000000E0))REPRESENTATION_ITEM(''));
#149=CARTESIAN_POINT('',(3.00000000000000000E0,1.07500000000000000E1,-1.75000000000000000E0));
#150=CARTESIAN_POINT('',(3.00000000000000000E0,1.07500000000000000E1,-2.00000000000000000E0));
#151=CARTESIAN_POINT('',(2.75000000000000000E0,1.07500000000000000E1,-2.00000000000000000E0));
#152=(BOUNDED_CURVE()B_SPLINE_CURVE(2,(#149,#150,#151),.UNSPECIFIED.,.F.,.F.)B_SPLINE_CURVE_WITH_KNOTS((3,3),(0.00000000000000000E0,1.00000000000000000E0),.UNSPECIFIED.)CURVE()GEOMETRIC_REPRESENTATION_ITEM()RATIONAL_B_SPLINE_CURVE((2.00000000000000000E0,1.00000000000000000E0,1.00000000000000000E0))REPRESENTATION_ITEM(''));
#153=CARTESIAN_POINT('',(2.75000000000000000E0,1.10000000000000000E1,-1.75000000000000000E0));
#154=CARTESIAN_POINT('',(2.75000000000000000E0,1.10000000000000000E1,-2.00000000000000000E0));
#155=CARTESIAN_POINT('',(2.75000000000000000E0,1.07500000000000000E1,-2.00000000000000000E0));
#156=(BOUNDED_CURVE()B_SPLINE_CURVE(2,(#153,#154,#155),.UNSPECIFIED.,.F.,.F.)B_SPLINE_CURVE_WITH_KNOTS((3,3),(0.00000000000000000E0,1.00000000000000000E0),.UNSPECIFIED.)CURVE()GEOMETRIC_REPRESENTATION_ITEM()RATIONAL_B_SPLINE_CURVE((2.00000000000000000E0,1.00000000000000000E0,1.00000000000000000E0))REPRESENTATION_ITEM(''));
#157=(GEOMETRIC_REPRESENTATION_CONTEXT(2)REPRESENTATION_CONTEXT('','2D'));
#158=CARTESIAN_POINT('',(0.00000000000000000E0,0.00000000000000000E0));
#159=CARTESIAN_POINT('',(1.00000000000000000E0,0.00000000000000000E0));
#160=B_SPLINE_CURVE_WITH_KNOTS('',1,(#158,#159),.UNSPECIFIED.,.F.,.F.,(2,2),(0.00000000000000000E0,1.00000000000000000E0),.UNSPECIFIED.);
#161=DEFINITIONAL_REPRESENTATION('',(#160),#157);
#162=PCURVE('',#31,#161);
#163=CARTESIAN_POINT('',(1.00000000000000000E0,0.00000000000000000E0));
#164=CARTESIAN_POINT('',(1.00000000000000000E0,9.68750000000000000E-1));
#165=B_SPLINE_CURVE_WITH_KNOTS('',1,(#163,#164),.UNSPECIFIED.,.F.,.F.,(2,2),(0.00000000000000000E0,1.00000000000000000E0),.UNSPECIFIED.);
#166=DEFINITIONAL_REPRESENTATION('',(#165),#157);
#167=PCURVE('',#31,#166);
#168=CARTESIAN_POINT('',(1.00000000000000000E0,9.68750000000000000E-1));
#169=CARTESIAN_POINT('',(1.00000000000000000E0,1.00000000000000000E0));
#170=CARTESIAN_POINT('',(9.74999999999999978E-1,1.00000000000000000E0));
#171=(BOUNDED_CURVE()B_SPLINE_CURVE(2,(#168,#169,#170),.UNSPECIFIED.,.F.,.F.)B_SPLINE_CURVE_WITH_KNOTS((3,3),(0.00000000000000000E0,1.00000000000000000E0),.UNSPECIFIED.)CURVE()GEOMETRIC_REPRESENTATION_ITEM()RATIONAL_B_SPLINE_CURVE((1.00000000000000000E0,7.07106781186547573E-1,1.00000000000000000E0))REPRESENTATION_ITEM(''));
#172=DEFINITIONAL_REPRESENTATION('',(#171),#157);
#173=PCURVE('',#31,#172);
#174=CARTESIAN_POINT('',(9.74999999999999978E-1,1.00000000000000000E0));
#175=CARTESIAN_POINT('',(0.00000000000000000E0,1.00000000000000000E0));
#176=B_SPLINE_CURVE_WITH_KNOTS('',1,(#174,#175),.UNSPECIFIED.,.F.,.F.,(2,2),(0.00000000000000000E0,1.00000000000000000E0),.UNSPECIFIED.);
#177=DEFINITIONAL_REPRESENTATION('',(#176),#157);
#178=PCURVE('',#31,#177);
#179=CARTESIAN_POINT('',(0.00000000000000000E0,1.00000000000000000E0));
#180=CARTESIAN_POINT('',(0.00000000000000000E0,0.00000000000000000E0));
#181=B_SPLINE_CURVE_WITH_KNOTS('',1,(#179,#180),.UNSPECIFIED.,.F.,.F.,(2,2),(0.00000000000000000E0,1.00000000000000000E0),.UNSPECIFIED.);
#182=DEFINITIONAL_REPRESENTATION('',(#181),#157);
#183=PCURVE('',#31,#182);
#184=CARTESIAN_POINT('',(1.00000000000000000E0,0.00000000000000000E0));
#185=CARTESIAN_POINT('',(1.00000000000000000E0,9.68750000000000000E-1));
#186=B_SPLINE_CURVE_WITH_KNOTS('',1,(#184,#185),.UNSPECIFIED.,.F.,.F.,(2,2),(0.00000000000000000E0,1.00000000000000000E0),.UNSPECIFIED.);
#187=DEFINITIONAL_REPRESENTATION('',(#186),#157);
#188=PCURVE('',#36,#187);
#189=CARTESIAN_POINT('',(1.00000000000000000E0,9.68750000000000000E-1));
#190=CARTESIAN_POINT('',(2.50000000000000222E-2,9.68750000000000000E-1));
#191=B_SPLINE_CURVE_WITH_KNOTS('',1,(#189,#190),.UNSPECIFIED.,.F.,.F.,(2,2),(0.00000000000000000E0,1.00000000000000000E0),.UNSPECIFIED.);
#192=DEFINITIONAL_REPRESENTATION('',(#191),#157);
#193=PCURVE('',#36,#192);
#194=CARTESIAN_POINT('',(2.50000000000000222E-2,9.68750000000000000E-1));
#195=CARTESIAN_POINT('',(2.50000000000000222E-2,0.00000000000000000E0));
#196=B_SPLINE_CURVE_WITH_KNOTS('',1,(#194,#195),.UNSPECIFIED.,.F.,.F.,(2,2),(0.00000000000000000E0,1.00000000000000000E0),.UNSPECIFIED.);
#197=DEFINITIONAL_REPRESENTATION('',(#196),#157);
#198=PCURVE('',#36,#197);
#199=CARTESIAN_POINT('',(2.50000000000000222E-2,0.00000000000000000E0));
#200=CARTESIAN_POINT('',(1.00000000000000000E0,0.00000000000000000E0));
#201=B_SPLINE_CURVE_WITH_KNOTS('',1,(#199,#200),.UNSPECIFIED.,.F.,.F.,(2,2),(0.00000000000000000E0,1.00000000000000000E0),.UNSPECIFIED.);
#202=DEFINITIONAL_REPRESENTATION('',(#201),#157);
#203=PCURVE('',#36,#202);
#204=CARTESIAN_POINT('',(0.00000000000000000E0,0.00000000000000000E0));
#205=CARTESIAN_POINT('',(1.00000000000000000E0,0.00000000000000000E0));
#206=B_SPLINE_CURVE_WITH_KNOTS('',1,(#204,#205),.UNSPECIFIED.,.F.,.F.,(2,2),(0.00000000000000000E0,1.00000000000000000E0),.UNSPECIFIED.);
#207=DEFINITIONAL_REPRESENTATION('',(#206),#157);
#208=PCURVE('',#41,#207);
#209=CARTESIAN_POINT('',(1.00000000000000000E0,0.00000000000000000E0));
#210=CARTESIAN_POINT('',(1.00000000000000000E0,9.58333333333333370E-1));
#211=B_SPLINE_CURVE_WITH_KNOTS('',1,(#209,#210),.UNSPECIFIED.,.F.,.F.,(2,2),(0.00000000000000000E0,1.00000000000000000E0),.UNSPECIFIED.);
#212=DEFINITIONAL_REPRESENTATION('',(#211),#157);
#213=PCURVE('',#41,#212);
#214=CARTESIAN_POINT('',(1.00000000000000000E0,9.58333333333333370E-1));
#215=CARTESIAN_POINT('',(1.00000000000000000E0,1.00000000000000000E0));
#216=CARTESIAN_POINT('',(9.68750000000000000E-1,1.00000000000000000E0));
#217=(BOUNDED_CURVE()B_SPLINE_CURVE(2,(#214,#215,#216),.UNSPECIFIED.,.F.,.F.)B_SPLINE_CURVE_WITH_KNOTS((3,3),(0.00000000000000000E0,1.00000000000000000E0),.UNSPECIFIED.)CURVE()GEOMETRIC_REPRESENTATION_ITEM()RATIONAL_B_SPLINE_CURVE((2.00000000000000000E0,1.00000000000000000E0,1.00000000000000000E0))REPRESENTATION_ITEM(''));
#218=DEFINITIONAL_REPRESENTATION('',(#217),#157);
#219=PCURVE('',#41,#218);
#220=CARTESIAN_POINT('',(9.68750000000000000E-1,1.00000000000000000E0));
#221=CARTESIAN_POINT('',(0.00000000000000000E0,1.00000000000000000E0));
#222=B_SPLINE_CURVE_WITH_KNOTS('',1,(#220,#221),.UNSPECIFIED.,.F.,.F.,(2,2),(0.00000000000000000E0,1.00000000000000000E0),.UNSPECIFIED.);
#223=DEFINITIONAL_REPRESENTATION('',(#222),#157);
#224=PCURVE('',#41,#223);
#225=CARTESIAN_POINT('',(0.00000000000000000E0,1.00000000000000000E0));
#226=CARTESIAN_POINT('',(0.00000000000000000E0,0.00000000000000000E0));
#227=B_SPLINE_CURVE_WITH_KNOTS('',1,(#225,#226),.UNSPECIFIED.,.F.,.F.,(2,2),(0.00000000000000000E0,1.00000000000000000E0),.UNSPECIFIED.);
#228=DEFINITIONAL_REPRESENTATION('',(#227),#157);
#229=PCURVE('',#41,#228);
#230=CARTESIAN_POINT('',(1.00000000000000000E0,0.00000000000000000E0));
#231=CARTESIAN_POINT('',(1.00000000000000000E0,1.00000000000000000E0));
#232=B_SPLINE_CURVE_WITH_KNOTS('',1,(#230,#231),.UNSPECIFIED.,.F.,.F.,(2,2),(0.00000000000000000E0,1.00000000000000000E0),.UNSPECIFIED.);
#233=DEFINITIONAL_REPRESENTATION('',(#232),#157);
#234=PCURVE('',#46,#233);
#235=CARTESIAN_POINT('',(1.00000000000000000E0,1.00000000000000000E0));
#236=CARTESIAN_POINT('',(2.50000000000000222E-2,1.00000000000000000E0));
#237=B_SPLINE_CURVE_WITH_KNOTS('',1,(#235,#236),.UNSPECIFIED.,.F.,.F.,(2,2),(0.00000000000000000E0,1.00000000000000000E0),.UNSPECIFIED.);
#238=DEFINITIONAL_REPRESENTATION('',(#237),#157);
#239=PCURVE('',#46,#238);
#240=CARTESIAN_POINT('',(2.50000000000000222E-2,1.00000000000000000E0));
#241=CARTESIAN_POINT('',(0.00000000000000000E0,1.00000000000000000E0));
#242=CARTESIAN_POINT('',(0.00000000000000000E0,9.58333333333333370E-1));
#243=(BOUNDED_CURVE()B_SPLINE_CURVE(2,(#240,#241,#242),.UNSPECIFIED.,.F.,.F.)B_SPLINE_CURVE_WITH_KNOTS((3,3),(0.00000000000000000E0,1.00000000000000000E0),.UNSPECIFIED.)CURVE()GEOMETRIC_REPRESENTATION_ITEM()RATIONAL_B_SPLINE_CURVE((1.00000000000000000E0,1.00000000000000000E0,2.00000000000000000E0))REPRESENTATION_ITEM(''));
#244=DEFINITIONAL_REPRESENTATION('',(#243),#157);
#245=PCURVE('',#46,#244);
#246=CARTESIAN_POINT('',(0.00000000000000000E0,9.58333333333333370E-1));
#247=CARTESIAN_POINT('',(0.00000000000000000E0,0.00000000000000000E0));
#248=B_SPLINE_CURVE_WITH_KNOTS('',1,(#246,#247),.UNSPECIFIED.,.F.,.F.,(2,2),(0.00000000000000000E0,1.00000000000000000E0),.UNSPECIFIED.);
#249=DEFINITIONAL_REPRESENTATION('',(#248),#157);
#250=PCURVE('',#46,#249);
#251=CARTESIAN_POINT('',(0.00000000000000000E0,0.00000000000000000E0));
#252=CARTESIAN_POINT('',(1.00000000000000000E0,0.00000000000000000E0));
#253=B_SPLINE_CURVE_WITH_KNOTS('',1,(#251,#252),.UNSPECIFIED.,.F.,.F.,(2,2),(0.00000000000000000E0,1.00000000000000000E0),.UNSPECIFIED.);
#254=DEFINITIONAL_REPRESENTATION('',(#253),#157);
#255=PCURVE('',#46,#254);
#256=CARTESIAN_POINT('',(1.00000000000000000E0,0.00000000000000000E0));
#257=CARTESIAN_POINT('',(1.00000000000000000E0,9.58333333333333370E-1));
#258=B_SPLINE_CURVE_WITH_KNOTS('',1,(#256,#257),.UNSPECIFIED.,.F.,.F.,(2,2),(0.00000000000000000E0,1.00000000000000000E0),.UNSPECIFIED.);
#259=DEFINITIONAL_REPRESENTATION('',(#258),#157);
#260=PCURVE('',#51,#259);
#261=CARTESIAN_POINT('',(1.00000000000000000E0,9.58333333333333370E-1));
#262=CARTESIAN_POINT('',(3.12500000000000000E-2,9.58333333333333370E-1));
#263=B_SPLINE_CURVE_WITH_KNOTS('',1,(#261,#262),.UNSPECIFIED.,.F.,.F.,(2,2),(0.00000000000000000E0,1.00000000000000000E0),.UNSPECIFIED.);
#264=DEFINITIONAL_REPRESENTATION('',(#263),#157);
#265=PCURVE('',#51,#264);
#266=CARTESIAN_POINT('',(3.12500000000000000E-2,9.58333333333333370E-1));
#267=CARTESIAN_POINT('',(3.12500000000000000E-2,0.00000000000000000E0));
#268=B_SPLINE_CURVE_WITH_KNOTS('',1,(#266,#267),.UNSPECIFIED.,.F.,.F.,(2,2),(0.00000000000000000E0,1.00000000000000000E0),.UNSPECIFIED.);
#269=DEFINITIONAL_REPRESENTATION('',(#268),#157);
#270=PCURVE('',#51,#269);
#271=CARTESIAN_POINT('',(3.12500000000000000E-2,0.00000000000000000E0));
#272=CARTESIAN_POINT('',(1.00000000000000000E0,0.00000000000000000E0));
#273=B_SPLINE_CURVE_WITH_KNOTS('',1,(#271,#272),.UNSPECIFIED.,.F.,.F.,(2,2),(0.00000000000000000E0,1.00000000000000000E0),.UNSPECIFIED.);
#274=DEFINITIONAL_REPRESENTATION('',(#273),#157);
#275=PCURVE('',#51,#274);
#276=CARTESIAN_POINT('',(0.00000000000000000E0,0.00000000000000000E0));
#277=CARTESIAN_POINT('',(9.74999999999999978E-1,0.00000000000000000E0));
#278=B_SPLINE_CURVE_WITH_KNOTS('',1,(#276,#277),.UNSPECIFIED.,.F.,.F.,(2,2),(0.00000000000000000E0,1.00000000000000000E0),.UNSPECIFIED.);
#279=DEFINITIONAL_REPRESENTATION('',(#278),#157);
#280=PCURVE('',#56,#279);
#281=CARTESIAN_POINT('',(9.74999999999999978E-1,0.00000000000000000E0));
#282=CARTESIAN_POINT('',(9.74999999999999978E-1,9.58333333333333370E-1));
#283=B_SPLINE_CURVE_WITH_KNOTS('',1,(#281,#282),.UNSPECIFIED.,.F.,.F.,(2,2),(0.00000000000000000E0,1.00000000000000000E0),.UNSPECIFIED.);
#284=DEFINITIONAL_REPRESENTATION('',(#283),#157);
#285=PCURVE('',#56,#284);
#286=CARTESIAN_POINT('',(9.74999999999999978E-1,9.58333333333333370E-1));
#287=CARTESIAN_POINT('',(0.00000000000000000E0,9.58333333333333370E-1));
#288=B_SPLINE_CURVE_WITH_KNOTS('',1,(#286,#287),.UNSPECIFIED.,.F.,.F.,(2,2),(0.00000000000000000E0,1.00000000000000000E0),.UNSPECIFIED.);
#289=DEFINITIONAL_REPRESENTATION('',(#288),#157);
#290=PCURVE('',#56,#289);
#291=CARTESIAN_POINT('',(0.00000000000000000E0,9.58333333333333370E-1));
#292=CARTESIAN_POINT('',(0.00000000000000000E0,0.00000000000000000E0));
#293=B_SPLINE_CURVE_WITH_KNOTS('',1,(#291,#292),.UNSPECIFIED.,.F.,.F.,(2,2),(0.00000000000000000E0,1.00000000000000000E0),.UNSPECIFIED.);
#294=DEFINITIONAL_REPRESENTATION('',(#293),#157);
#295=PCURVE('',#56,#294);
#296=CARTESIAN_POINT('',(1.00000000000000000E0,0.00000000000000000E0));
#297=CARTESIAN_POINT('',(1.00000000000000000E0,1.00000000000000000E0));
#298=B_SPLINE_CURVE_WITH_KNOTS('',1,(#296,#297),.UNSPECIFIED.,.F.,.F.,(2,2),(0.00000000000000000E0,1.00000000000000000E0),.UNSPECIFIED.);
#299=DEFINITIONAL_REPRESENTATION('',(#298),#157);
#300=PCURVE('',#63,#299);
#301=CARTESIAN_POINT('',(1.00000000000000000E0,1.00000000000000000E0));
#302=CARTESIAN_POINT('',(0.00000000000000000E0,1.00000000000000000E0));
#303=B_SPLINE_CURVE_WITH_KNOTS('',1,(#301,#302),.UNSPECIFIED.,.F.,.F.,(2,2),(0.00000000000000000E0,1.00000000000000000E0),.UNSPECIFIED.);
#304=DEFINITIONAL_REPRESENTATION('',(#303),#157);
#305=PCURVE('',#63,#304);
#306=CARTESIAN_POINT('',(0.00000000000000000E0,1.00000000000000000E0));
#307=CARTESIAN_POINT('',(0.00000000000000000E0,0.00000000000000000E0));
#308=B_SPLINE_CURVE_WITH_KNOTS('',1,(#306,#307),.UNSPECIFIED.,.F.,.F.,(2,2),(0.00000000000000000E0,1.00000000000000000E0),.UNSPECIFIED.);
#309=DEFINITIONAL_REPRESENTATION('',(#308),#157);
#310=PCURVE('',#63,#309);
#311=CARTESIAN_POINT('',(0.00000000000000000E0,0.00000000000000000E0));
#312=CARTESIAN_POINT('',(1.00000000000000000E0,0.00000000000000000E0));
#313=B_SPLINE_CURVE_WITH_KNOTS('',1,(#311,#312),.UNSPECIFIED.,.F.,.F.,(2,2),(0.00000000000000000E0,1.00000000000000000E0),.UNSPECIFIED.);
#314=DEFINITIONAL_REPRESENTATION('',(#313),#157);
#315=PCURVE('',#63,#314);
#316=CARTESIAN_POINT('',(0.00000000000000000E0,0.00000000000000000E0));
#317=CARTESIAN_POINT('',(1.00000000000000000E0,0.00000000000000000E0));
#318=B_SPLINE_CURVE_WITH_KNOTS('',1,(#316,#317),.UNSPECIFIED.,.F.,.F.,(2,2),(0.00000000000000000E0,1.00000000000000000E0),.UNSPECIFIED.);
#319=DEFINITIONAL_REPRESENTATION('',(#318),#157);
#320=PCURVE('',#70,#319);
#321=CARTESIAN_POINT('',(1.00000000000000000E0,0.00000000000000000E0));
#322=CARTESIAN_POINT('',(1.00000000000000000E0,1.00000000000000000E0));
#323=B_SPLINE_CURVE_WITH_KNOTS('',1,(#321,#322),.UNSPECIFIED.,.F.,.F.,(2,2),(0.00000000000000000E0,1.00000000000000000E0),.UNSPECIFIED.);
#324=DEFINITIONAL_REPRESENTATION('',(#323),#157);
#325=PCURVE('',#70,#324);
#326=CARTESIAN_POINT('',(1.00000000000000000E0,1.00000000000000000E0));
#327=CARTESIAN_POINT('',(0.00000000000000000E0,1.00000000000000000E0));
#328=B_SPLINE_CURVE_WITH_KNOTS('',1,(#326,#327),.UNSPECIFIED.,.F.,.F.,(2,2),(0.00000000000000000E0,1.00000000000000000E0),.UNSPECIFIED.);
#329=DEFINITIONAL_REPRESENTATION('',(#328),#157);
#330=PCURVE('',#70,#329);
#331=CARTESIAN_POINT('',(0.00000000000000000E0,1.00000000000000000E0));
#332=CARTESIAN_POINT('',(0.00000000000000000E0,0.00000000000000000E0));
#333=B_SPLINE_CURVE_WITH_KNOTS('',1,(#331,#332),.UNSPECIFIED.,.F.,.F.,(2,2),(0.00000000000000000E0,1.00000000000000000E0),.UNSPECIFIED.);
#334=DEFINITIONAL_REPRESENTATION('',(#333),#157);
#335=PCURVE('',#70,#334);
#336=CARTESIAN_POINT('',(1.00000000000000000E0,0.00000000000000000E0));
#337=CARTESIAN_POINT('',(1.00000000000000000E0,1.00000000000000000E0));
#338=B_SPLINE_CURVE_WITH_KNOTS('',1,(#336,#337),.UNSPECIFIED.,.F.,.F.,(2,2),(0.00000000000000000E0,1.00000000000000000E0),.UNSPECIFIED.);
#339=DEFINITIONAL_REPRESENTATION('',(#338),#157);
#340=PCURVE('',#77,#339);
#341=CARTESIAN_POINT('',(1.00000000000000000E0,1.00000000000000000E0));
#342=CARTESIAN_POINT('',(0.00000000000000000E0,1.00000000000000000E0));
#343=B_SPLINE_CURVE_WITH_KNOTS('',1,(#341,#342),.UNSPECIFIED.,.F.,.F.,(2,2),(0.00000000000000000E0,1.00000000000000000E0),.UNSPECIFIED.);
#344=DEFINITIONAL_REPRESENTATION('',(#343),#157);
#345=PCURVE('',#77,#344);
#346=CARTESIAN_POINT('',(0.00000000000000000E0,1.00000000000000000E0));
#347=CARTESIAN_POINT('',(0.00000000000000000E0,0.00000000000000000E0));
#348=B_SPLINE_CURVE_WITH_KNOTS('',1,(#346,#347),.UNSPECIFIED.,.F.,.F.,(2,2),(0.00000000000000000E0,1.00000000000000000E0),.UNSPECIFIED.);
#349=DEFINITIONAL_REPRESENTATION('',(#348),#157);
#350=PCURVE('',#77,#349);
#351=CARTESIAN_POINT('',(0.00000000000000000E0,0.00000000000000000E0));
#352=CARTESIAN_POINT('',(1.00000000000000000E0,0.00000000000000000E0));
#353=B_SPLINE_CURVE_WITH_KNOTS('',1,(#351,#352),.UNSPECIFIED.,.F.,.F.,(2,2),(0.00000000000000000E0,1.00000000000000000E0),.UNSPECIFIED.);
#354=DEFINITIONAL_REPRESENTATION('',(#353),#157);
#355=PCURVE('',#77,#354);
#356=CARTESIAN_POINT('',(1.00000000000000000E0,0.00000000000000000E0));
#357=CARTESIAN_POINT('',(1.00000000000000000E0,1.00000000000000000E0));
#358=B_SPLINE_CURVE_WITH_KNOTS('',1,(#356,#357),.UNSPECIFIED.,.F.,.F.,(2,2),(0.00000000000000000E0,1.00000000000000000E0),.UNSPECIFIED.);
#359=DEFINITIONAL_REPRESENTATION('',(#358),#157);
#360=PCURVE('',#87,#359);
#361=CARTESIAN_POINT('',(1.00000000000000000E0,1.00000000000000000E0));
#362=CARTESIAN_POINT('',(0.00000000000000000E0,1.00000000000000000E0));
#363=CARTESIAN_POINT('',(0.00000000000000000E0,0.00000000000000000E0));
#364=(BOUNDED_CURVE()B_SPLINE_CURVE(2,(#361,#362,#363),.UNSPECIFIED.,.F.,.F.)B_SPLINE_CURVE_WITH_KNOTS((3,3),(0.00000000000000000E0,1.00000000000000000E0),.UNSPECIFIED.)CURVE()GEOMETRIC_REPRESENTATION_ITEM()RATIONAL_B_SPLINE_CURVE((1.00000000000000000E0,7.07106781186547573E-1,1.00000000000000000E0))REPRESENTATION_ITEM(''));
#365=DEFINITIONAL_REPRESENTATION('',(#364),#157);
#366=PCURVE('',#87,#365);
#367=CARTESIAN_POINT('',(0.00000000000000000E0,0.00000000000000000E0));
#368=CARTESIAN_POINT('',(1.00000000000000000E0,0.00000000000000000E0));
#369=B_SPLINE_CURVE_WITH_KNOTS('',1,(#367,#368),.UNSPECIFIED.,.F.,.F.,(2,2),(0.00000000000000000E0,1.00000000000000000E0),.UNSPECIFIED.);
#370=DEFINITIONAL_REPRESENTATION('',(#369),#157);
#371=PCURVE('',#87,#370);
#372=SURFACE_CURVE('',#90,(#162,#255),.PCURVE_S1.);
#373=EDGE_CURVE('OSCAD_TOPO/3|edge|e:977c05c523f18d689988ff941b1ef3c1|f20840c7f74e444d4d0f9025945ea119398b089784c3ca4292a65ba3eb8f4f5f',#2,#4,#372,.T.);
#374=SURFACE_CURVE('',#93,(#167,#275),.PCURVE_S1.);
#375=EDGE_CURVE('OSCAD_TOPO/3|edge|e:ec525bb59a8e1f7a3231aa6361a7ddba|bb00685685e39f562f965a24953ada26af71a151c507f3140c33928ca15ac691',#4,#6,#374,.T.);
#376=SURFACE_CURVE('',#97,(#173,#315),.PCURVE_S1.);
#377=EDGE_CURVE('OSCAD_TOPO/3|edge|e:6f76f260c6ac59480f697c40187c1483|97db448c72f3d98f64dab51bd4e0760b7b6751b205e516626dab3a1ab3c618ec',#6,#8,#376,.T.);
#378=SURFACE_CURVE('',#100,(#178,#280),.PCURVE_S1.);
#379=EDGE_CURVE('OSCAD_TOPO/3|edge|e:8b8e6b68403bdf4d44096270b14df3bd|67ac095d6ff8a4e1a0ec584bc7bf41c983be9000a73430204ffccb708cfa30de',#10,#8,#378,.T.);
#380=SURFACE_CURVE('',#103,(#183,#208),.PCURVE_S1.);
#381=EDGE_CURVE('OSCAD_TOPO/3|edge|e:90f73d8f294a6bbfe1cb8944782ac825|144ece3c4b614005efe09bd505accdd08636226abbe8ffc16c0b7fa90a97fa9b',#2,#10,#380,.T.);
#382=SURFACE_CURVE('',#106,(#188,#224),.PCURVE_S1.);
#383=EDGE_CURVE('OSCAD_TOPO/3|edge|e:da7b6750fa5ff39519d916ba56c014e8|025a9ef09eb119c1979f4da5e40d425648195981065ecda6cb076c515215efb3',#12,#14,#382,.T.);
#384=SURFACE_CURVE('',#109,(#193,#350),.PCURVE_S1.);
#385=EDGE_CURVE('OSCAD_TOPO/3|edge|e:379a09bd18d98c1420cb8a3351822854|1fc14fe5056e5f4cfdcbef409515d9c0f22c4f83731cf8bbeed0a99f86915979',#16,#14,#384,.T.);
#386=SURFACE_CURVE('',#112,(#198,#325),.PCURVE_S1.);
#387=EDGE_CURVE('OSCAD_TOPO/3|edge|e:110088c492dced6c48e09210963f3706|e1fbe61e3509fc5722dbdbd186cdd8e2ff43f0efad23730ace000a4ddd29e52f',#16,#18,#386,.T.);
#388=SURFACE_CURVE('',#115,(#203,#239),.PCURVE_S1.);
#389=EDGE_CURVE('OSCAD_TOPO/3|edge|e:a1b0761d4e214fc098e45bd390d0bf9f|1e1ec85a905318623181352e2ec43f2b2ad4bc9e33c31e38dd7a41bd8d7dfec9',#12,#18,#388,.T.);
#390=SURFACE_CURVE('',#118,(#213,#295),.PCURVE_S1.);
#391=EDGE_CURVE('OSCAD_TOPO/3|edge|e:5076c40e62a662069d19874c3867a723|4b80915a47f39204122e4aebf47590a7cb4545e0f2eac7d02ddd0965a3616e9a',#10,#20,#390,.T.);
#392=SURFACE_CURVE('',#122,(#219,#355),.PCURVE_S1.);
#393=EDGE_CURVE('OSCAD_TOPO/3|edge|e:177d520ef039ea9767b78b206a75fe83|1ed5083db8cf5abf7a1201e5139b7628982803ef2a1c919db07c4b9ba34829b3',#20,#14,#392,.T.);
#394=SURFACE_CURVE('',#125,(#229,#234),.PCURVE_S1.);
#395=EDGE_CURVE('OSCAD_TOPO/3|edge|e:d12fcf5d26f10018194828a55cf8b816|c973494cdd4358491ec31d0029fa77390b48feb64c49d775a9ba7fce6b2a4ce6',#2,#12,#394,.T.);
#396=SURFACE_CURVE('',#129,(#245,#320),.PCURVE_S1.);
#397=EDGE_CURVE('OSCAD_TOPO/3|edge|e:c626ec13cc342b14aa82b1b90d647e0b|2736f276cd9d95a4d30cc9296f05b54e1de156ea47997f0bc143dea00353f254',#22,#18,#396,.T.);
#398=SURFACE_CURVE('',#132,(#250,#260),.PCURVE_S1.);
#399=EDGE_CURVE('OSCAD_TOPO/3|edge|e:93feb9824c87c3e5a51f1b862af1b116|2a714fc4d544810e7a69095c9ea6d4359b2bd67e4e1c98afa234a533106c9332',#4,#22,#398,.T.);
#400=SURFACE_CURVE('',#135,(#265,#335),.PCURVE_S1.);
#401=EDGE_CURVE('OSCAD_TOPO/3|edge|e:b1856f7ddb93c09bff64940221cd9214|b5177b07a94eb59231cb6812524af6d93239977847f19eed58c7bc9758c48a04',#24,#22,#400,.T.);
#402=SURFACE_CURVE('',#138,(#270,#300),.PCURVE_S1.);
#403=EDGE_CURVE('OSCAD_TOPO/3|edge|e:8fdeea02389f432f91988ff3bc8babf7|b3934b98f085249a88370492e02fc2fde3cc0c8a6122fe3b9e9e36e94dbe6717',#6,#24,#402,.T.);
#404=SURFACE_CURVE('',#141,(#285,#310),.PCURVE_S1.);
#405=EDGE_CURVE('OSCAD_TOPO/3|edge|e:ccd1f654f92cfe94cc8c4c9c9016ea61|dc69e7f344d37d1ab8257dea1daba1b20d32c9f80546e20990317fba3ed8ebcc',#8,#26,#404,.T.);
#406=SURFACE_CURVE('',#144,(#290,#340),.PCURVE_S1.);
#407=EDGE_CURVE('OSCAD_TOPO/3|edge|e:a744f04d62d0d57db3df4e18149ce00f|237cdb402ff76f6c2eac89bb4cb3b65daaa436531d20916e063dc183657c5915',#26,#20,#406,.T.);
#408=SURFACE_CURVE('',#148,(#305,#366),.PCURVE_S1.);
#409=EDGE_CURVE('OSCAD_TOPO/3|edge|e:135f85f267844da70b6c5a66f2afec05|f5466e13a88c4830afa55e08600601c0952089bd7464d66501cfa0918ccc6dbe',#24,#26,#408,.T.);
#410=SURFACE_CURVE('',#152,(#330,#371),.PCURVE_S1.);
#411=EDGE_CURVE('OSCAD_TOPO/3|edge|e:6af330ecb81f4160b3b1bfcc0d53db9a|198d3837f9b9f674d3c3e96fdca5077196ae1f8300c4c3f326bb670cfa186406',#24,#16,#410,.T.);
#412=SURFACE_CURVE('',#156,(#345,#360),.PCURVE_S1.);
#413=EDGE_CURVE('OSCAD_TOPO/3|edge|e:4a453c5fc49dc57016eae2086a9d5b76|39abdf2292952a64e8c473b83dfed661369e143f2346c709dc776b08ba2d7082',#26,#16,#412,.T.);
#414=ORIENTED_EDGE('',*,*,#373,.T.);
#415=ORIENTED_EDGE('',*,*,#375,.T.);
#416=ORIENTED_EDGE('',*,*,#377,.T.);
#417=ORIENTED_EDGE('',*,*,#379,.F.);
#418=ORIENTED_EDGE('',*,*,#381,.F.);
#419=EDGE_LOOP('OSCAD_TOPO/3|loop|l:888fdcf99f27e0a8b0939596b61d2305|dffd7c297a848748ba85bfd0a10734e576ab0dd7d7787f63bee86043e115f8dc',(#414,#415,#416,#417,#418));
#420=ORIENTED_EDGE('',*,*,#383,.T.);
#421=ORIENTED_EDGE('',*,*,#385,.F.);
#422=ORIENTED_EDGE('',*,*,#387,.T.);
#423=ORIENTED_EDGE('',*,*,#389,.F.);
#424=EDGE_LOOP('OSCAD_TOPO/3|loop|l:ea11470590c74e5a76cf6b087516478b|c134ec54d81777f3bb50580a3f51e9e42e728302359111ab00af3c368e34731d',(#420,#421,#422,#423));
#425=ORIENTED_EDGE('',*,*,#381,.T.);
#426=ORIENTED_EDGE('',*,*,#391,.T.);
#427=ORIENTED_EDGE('',*,*,#393,.T.);
#428=ORIENTED_EDGE('',*,*,#383,.F.);
#429=ORIENTED_EDGE('',*,*,#395,.F.);
#430=EDGE_LOOP('OSCAD_TOPO/3|loop|l:e9427e90b7b44bef667fe702a84bf89e|426ce04b80a88b8e841c1111541d1ec9e2b841e761f7ae27cfec2a28fc3c351d',(#425,#426,#427,#428,#429));
#431=ORIENTED_EDGE('',*,*,#395,.T.);
#432=ORIENTED_EDGE('',*,*,#389,.T.);
#433=ORIENTED_EDGE('',*,*,#397,.F.);
#434=ORIENTED_EDGE('',*,*,#399,.F.);
#435=ORIENTED_EDGE('',*,*,#373,.F.);
#436=EDGE_LOOP('OSCAD_TOPO/3|loop|l:b1a60b7d0618e09ee70a68c135793f89|f980a9cd89fdefd9a063fbc192aade3d8bb390d71af559b4d74d2688c57942d9',(#431,#432,#433,#434,#435));
#437=ORIENTED_EDGE('',*,*,#399,.T.);
#438=ORIENTED_EDGE('',*,*,#401,.F.);
#439=ORIENTED_EDGE('',*,*,#403,.F.);
#440=ORIENTED_EDGE('',*,*,#375,.F.);
#441=EDGE_LOOP('OSCAD_TOPO/3|loop|l:08430187366f49365590a45b8514216f|f8421d235383f5be50fa22f058e6eb56bcf59f5cf0237de211f2232b1dbeee0e',(#437,#438,#439,#440));
#442=ORIENTED_EDGE('',*,*,#379,.T.);
#443=ORIENTED_EDGE('',*,*,#405,.T.);
#444=ORIENTED_EDGE('',*,*,#407,.T.);
#445=ORIENTED_EDGE('',*,*,#391,.F.);
#446=EDGE_LOOP('OSCAD_TOPO/3|loop|l:0702b942b877e5ff5c650cc91f7dcb0e|f9c647be28f363c5ff0e2e3ea728204247ed6a0b0f1fb5a7517277304d60dbe7',(#442,#443,#444,#445));
#447=ORIENTED_EDGE('',*,*,#403,.T.);
#448=ORIENTED_EDGE('',*,*,#409,.T.);
#449=ORIENTED_EDGE('',*,*,#405,.F.);
#450=ORIENTED_EDGE('',*,*,#377,.F.);
#451=EDGE_LOOP('OSCAD_TOPO/3|loop|l:40848554d2c30d643d9bd6a15cd4fac8|deb1875d819d49b6cb637961c1f6e788c750f3ec39ae33bcc35708b90615683f',(#447,#448,#449,#450));
#452=ORIENTED_EDGE('',*,*,#397,.T.);
#453=ORIENTED_EDGE('',*,*,#387,.F.);
#454=ORIENTED_EDGE('',*,*,#411,.F.);
#455=ORIENTED_EDGE('',*,*,#401,.T.);
#456=EDGE_LOOP('OSCAD_TOPO/3|loop|l:a216ba1a0430350550f205357f81924f|0e3ef3f9b89d07ee14bc32192c8f92189d85c0b4d8db779310dfffcef3596c57',(#452,#453,#454,#455));
#457=ORIENTED_EDGE('',*,*,#407,.F.);
#458=ORIENTED_EDGE('',*,*,#413,.T.);
#459=ORIENTED_EDGE('',*,*,#385,.T.);
#460=ORIENTED_EDGE('',*,*,#393,.F.);
#461=EDGE_LOOP('OSCAD_TOPO/3|loop|l:0ae9e5ecfc5802a4589e24412d484836|58d2e41271a6ef947b691583e293b606704f7c8f3b404a105bc4d059f78548e3',(#457,#458,#459,#460));
#462=ORIENTED_EDGE('',*,*,#413,.F.);
#463=ORIENTED_EDGE('',*,*,#409,.F.);
#464=ORIENTED_EDGE('',*,*,#411,.T.);
#465=EDGE_LOOP('OSCAD_TOPO/3|loop|l:f19ad8e00b5d273c615bb32727dd3634|ebc5ef3363f23651bed64bb446add94f3413ac5084bc46a23df722b368538e16',(#462,#463,#464));
#466=FACE_OUTER_BOUND('',#419,.T.);
#467=ADVANCED_FACE('OSCAD_TOPO/3|face|f:9fd886539c5c2c98ea887908d506fdc6|02f717dc43db4f68c5d18c28ee71c2547acd846eeceb62e38829b235c873a028',(#466),#31,.T.);
#468=FACE_OUTER_BOUND('',#424,.T.);
#469=ADVANCED_FACE('OSCAD_TOPO/3|face|f:30c50071f771ded88ff6fb21c03fbe57|d31c7d9a53aa1a8c38fc2cdf0c8e0c5b0b36ebf5120428dd249d75791cb21dbf',(#468),#36,.T.);
#470=FACE_OUTER_BOUND('',#430,.T.);
#471=ADVANCED_FACE('OSCAD_TOPO/3|face|f:6473fdb6902055a5b6674d92485b321d|ad5280a7fe34a8bbacb4f1cdbe5d69b3da74d866422c4ff4cec3a540bdf54757',(#470),#41,.T.);
#472=FACE_OUTER_BOUND('',#436,.T.);
#473=ADVANCED_FACE('OSCAD_TOPO/3|face|f:55df2e1692a4a0fbe8e2f7062d34b851|5c23b74410bcd1581db24d299b67981145abc2527439ead6feacc17181afd2b8',(#472),#46,.T.);
#474=FACE_OUTER_BOUND('',#441,.T.);
#475=ADVANCED_FACE('OSCAD_TOPO/3|face|f:126b526d193130b0ba5ae1b77cc1435a|3eb27b76c184388df618cc465ab5cc4c3830f1b687091bf6674a57cc16fb882e',(#474),#51,.T.);
#476=FACE_OUTER_BOUND('',#446,.T.);
#477=ADVANCED_FACE('OSCAD_TOPO/3|face|f:5d12ce8c8d8d596c53e793c5135fffa1|7378006441b39794dc5b436b52792b3096fad9aae7c11d33b7bb8f25fda0af18',(#476),#56,.T.);
#478=FACE_OUTER_BOUND('',#451,.T.);
#479=ADVANCED_FACE('OSCAD_TOPO/3|face|f:6a25a96ce9831c0fb92ba3b626c755b9|9f12475d7aec4d6c2ec65ab34734f33e0fc4aadabaa7188c58b9279135f07147',(#478),#63,.T.);
#480=FACE_OUTER_BOUND('',#456,.T.);
#481=ADVANCED_FACE('OSCAD_TOPO/3|face|f:fb30a3cf04477d63a85faa73706b3c98|fbc0a8328a889f3b10ee43146b0de917d57f64ff37cf8537612bdc36a9fb5948',(#480),#70,.T.);
#482=FACE_OUTER_BOUND('',#461,.T.);
#483=ADVANCED_FACE('OSCAD_TOPO/3|face|f:29e2e61da9b6dde3b6b3f4762d9e71f8|1e57ff12b59a2f347157c35df0c8d78529006d48f3a8f562ec95037c3f46e024',(#482),#77,.T.);
#484=FACE_OUTER_BOUND('',#465,.T.);
#485=ADVANCED_FACE('OSCAD_TOPO/3|face|f:6763c56c25d126eb0db04a9171a9f295|80277a9d43383534b7dc8cd2e38e4098df39a68a8d65bd29fd5345d0d6d0561b',(#484),#87,.T.);
#486=CLOSED_SHELL('OSCAD_TOPO/3|shell|s:4eb5ff63e55dfcca604df8f4c6f726f2|dac455bf40219d9ceff7f38d34db6a49ac0a6525e054ca21e749cf6d8245be28',(#467,#469,#471,#473,#475,#477,#479,#481,#483,#485));
#487=MANIFOLD_SOLID_BREP('OSCAD_TOPO/3|body|b:6f20a5c9dfa6e96142276f516f64ffec|751028f65e03fc97027e774f0efa2f597b74660eeb0d3ea0c0fce57df1cc559d',#486);
#488=(LENGTH_UNIT()NAMED_UNIT(*)SI_UNIT(.MILLI.,.METRE.));
#489=UNCERTAINTY_MEASURE_WITH_UNIT(LENGTH_MEASURE(9.99999999999999955E-8),#488,'distance_accuracy_value','');
#490=(GEOMETRIC_REPRESENTATION_CONTEXT(3)GLOBAL_UNCERTAINTY_ASSIGNED_CONTEXT((#489))GLOBAL_UNIT_ASSIGNED_CONTEXT((#488))REPRESENTATION_CONTEXT('','3D'));
#491=ADVANCED_BREP_SHAPE_REPRESENTATION('',(#487),#490);
#492=APPLICATION_CONTEXT('managed model based 3d engineering');
#493=PRODUCT_CONTEXT('',#492,'mechanical');
#494=PRODUCT('model','model','',(#493));
#495=PRODUCT_DEFINITION_FORMATION('1','',#494);
#496=PRODUCT_DEFINITION_CONTEXT('part definition',#492,'design');
#497=PRODUCT_DEFINITION('design','',#495,#496);
#498=PRODUCT_DEFINITION_SHAPE('','',#497);
#499=SHAPE_DEFINITION_REPRESENTATION(#498,#491);
ENDSEC;
END-ISO-10303-21;
