ISO-10303-21;
HEADER;
FILE_DESCRIPTION(('OpenSCAD Viewer retained AP242 B-rep'),'2;1');
FILE_NAME('model.step','',(''),(''),'OpenSCAD Viewer','OpenSCAD Viewer','');
FILE_SCHEMA(('AP242_MANAGED_MODEL_BASED_3D_ENGINEERING_MIM_LF'));
ENDSEC;
DATA;
#1=CARTESIAN_POINT('',(2.70521984266857167E1,-4.49950565951950221E0,1.94364543665275775E1));
#2=VERTEX_POINT('OSCAD_TOPO/3|vertex|v:70cd0cacf3cd102625640ef4a0c2704a|e2f2acc09bd292f857d63b34c11a1f3814464a88c967fa733045a3de51326c6d',#1);
#3=CARTESIAN_POINT('',(1.99225395461942298E1,-8.12827463092412295E0,1.94364543665275775E1));
#4=VERTEX_POINT('OSCAD_TOPO/3|vertex|v:e1b46d0ef2b2052f21f1e247593c8d6a|6b49b3f90a783fba0769906ab9b5abdfd91e8f43772d916484e665606672e553',#3);
#5=CARTESIAN_POINT('',(1.71674503012820416E1,-2.71518643040100471E0,2.60778367065172425E1));
#6=VERTEX_POINT('OSCAD_TOPO/3|vertex|v:f88dbb097e9e204c2fe2c095aff495e3|38733dab458cda1bafc5c79296a4b9ece68b6d02c81d87c17372e4b3bfb25b6d',#5);
#7=CARTESIAN_POINT('',(1.77525366341310118E1,-1.66013606447285866E0,2.68157680776272045E1));
#8=VERTEX_POINT('OSCAD_TOPO/3|vertex|v:108cb4d5f5a905749ee272bb4eed38e2|788cc20ee195eb8398aab79a83ba5cb968856cc24e0943cea55eb3e7bd331c22',#7);
#9=CARTESIAN_POINT('',(2.39909881545610624E1,1.51503678550618481E0,2.68157680776272045E1));
#10=VERTEX_POINT('OSCAD_TOPO/3|vertex|v:9f112dc80f11ad470c55604a2d043754|eea98aa35d81e6be720e88e15790c0e48b316b0b20d0df2bdb6fe12300892638',#9);
#11=CARTESIAN_POINT('',(2.90605352735681386E1,-8.44540487444005450E0,2.34857089269551800E1));
#12=VERTEX_POINT('OSCAD_TOPO/3|vertex|v:4fdb6e809a990a71ecc6eddd0fc41ddb|7c9a20dcd9e9d75557b9b59c278c2555b842ad8841cce3df9fb27220ee998e24',#11);
#13=CARTESIAN_POINT('',(2.63054460286559504E1,-3.03231667391693627E0,3.01270912669448450E1));
#14=VERTEX_POINT('OSCAD_TOPO/3|vertex|v:f423fde4f8f7445ad794c613a4fb6483|6662c7b22b5fe970cf3ef5c03786c952bdf28223da0bee8756386b4cc50ef0c8',#13);
#15=CARTESIAN_POINT('',(2.00669945082258998E1,-6.20748952389597974E0,3.01270912669448450E1));
#16=VERTEX_POINT('OSCAD_TOPO/3|vertex|v:44b00e810c1615f20e60d531cb30cbf3|b217b7f3e8126e76b2e4a39969d7b871954a1e3210149bee63395c4f7ba84775',#15);
#17=CARTESIAN_POINT('',(2.28220837531380880E1,-1.16205777244190980E1,2.34857089269551800E1));
#18=VERTEX_POINT('OSCAD_TOPO/3|vertex|v:c26bc3c9ae787d4891608a2f32105114|206b0a00a288a938f587082b90c6fad0d8d14b7679514df1d26878ed5466a28e',#17);
#19=CARTESIAN_POINT('',(2.15961535852629147E1,-1.14165239766912503E1,2.28108331668839099E1));
#20=VERTEX_POINT('OSCAD_TOPO/3|vertex|v:9a3eccf3d0f855e616851e9449af9eaa|4836a4848432799cc3aaa802639874a2bc9e6fad6878355c5e618623c504761e',#19);
#21=CARTESIAN_POINT('',(2.56646021936297473E1,-1.77321256026094254E0,3.01901468779835405E1));
#22=VERTEX_POINT('OSCAD_TOPO/3|vertex|v:06b88e0d3647af7c8c5dfa110c66c67b|dd2bb020e7f7806229e9023cd882de94a54b46670433780390584eea1becd350',#21);
#23=CARTESIAN_POINT('',(1.94261506731996967E1,-4.94838541023998602E0,3.01901468779835405E1));
#24=VERTEX_POINT('OSCAD_TOPO/3|vertex|v:8c9c9339a0ddf160c229d0e649b890c6|9ff3db9abe8317f7dabe88b83398553a165a89e77d5db9f130e048c419e3498c',#23);
#25=CARTESIAN_POINT('',(1.88410643403507265E1,-6.00343577616813118E0,2.94522155068735785E1));
#26=VERTEX_POINT('OSCAD_TOPO/3|vertex|v:ebb1fb92a486f6a69e19cedb329a4378|07a2996b343f28a159c67c517db6b5d9ccefde5c25732bace5d22ea28a9e22ca',#25);
#27=CARTESIAN_POINT('',(2.39909881545610624E1,1.51503678550618481E0,2.68157680776272045E1));
#28=CARTESIAN_POINT('',(1.68613292740695755E1,-2.11373218589843592E0,2.68157680776272045E1));
#29=CARTESIAN_POINT('',(2.70521984266857167E1,-4.49950565951950221E0,1.94364543665275775E1));
#30=CARTESIAN_POINT('',(1.99225395461942298E1,-8.12827463092412295E0,1.94364543665275775E1));
#31=B_SPLINE_SURFACE_WITH_KNOTS('',1,1,((#27,#28),(#29,#30)),.UNSPECIFIED.,.F.,.F.,.F.,(2,2),(2,2),(0.00000000000000000E0,1.00000000000000000E0),(0.00000000000000000E0,1.00000000000000000E0),.UNSPECIFIED.);
#32=CARTESIAN_POINT('',(2.90605352735681386E1,-8.44540487444005450E0,2.34857089269551800E1));
#33=CARTESIAN_POINT('',(2.19308763930766517E1,-1.20741738458446761E1,2.34857089269551800E1));
#34=CARTESIAN_POINT('',(2.59993250014434842E1,-2.43086242941436748E0,3.08650226380548069E1));
#35=CARTESIAN_POINT('',(1.88696661209519974E1,-6.05963140081898821E0,3.08650226380548069E1));
#36=B_SPLINE_SURFACE_WITH_KNOTS('',1,1,((#32,#33),(#34,#35)),.UNSPECIFIED.,.F.,.F.,.F.,(2,2),(2,2),(0.00000000000000000E0,1.00000000000000000E0),(0.00000000000000000E0,1.00000000000000000E0),.UNSPECIFIED.);
#37=CARTESIAN_POINT('',(1.99225395461942298E1,-8.12827463092412295E0,1.94364543665275775E1));
#38=CARTESIAN_POINT('',(2.19308763930766517E1,-1.20741738458446761E1,2.34857089269551800E1));
#39=CARTESIAN_POINT('',(2.70521984266857167E1,-4.49950565951950221E0,1.94364543665275775E1));
#40=CARTESIAN_POINT('',(2.90605352735681386E1,-8.44540487444005450E0,2.34857089269551800E1));
#41=B_SPLINE_SURFACE_WITH_KNOTS('',1,1,((#37,#38),(#39,#40)),.UNSPECIFIED.,.F.,.F.,.F.,(2,2),(2,2),(0.00000000000000000E0,1.00000000000000000E0),(0.00000000000000000E0,1.00000000000000000E0),.UNSPECIFIED.);
#42=CARTESIAN_POINT('',(2.70521984266857167E1,-4.49950565951950221E0,1.94364543665275775E1));
#43=CARTESIAN_POINT('',(2.90605352735681386E1,-8.44540487444005450E0,2.34857089269551800E1));
#44=CARTESIAN_POINT('',(2.39909881545610624E1,1.51503678550618481E0,2.68157680776272045E1));
#45=CARTESIAN_POINT('',(2.59993250014434842E1,-2.43086242941436748E0,3.08650226380548069E1));
#46=B_SPLINE_SURFACE_WITH_KNOTS('',1,1,((#42,#43),(#44,#45)),.UNSPECIFIED.,.F.,.F.,.F.,(2,2),(2,2),(0.00000000000000000E0,1.00000000000000000E0),(0.00000000000000000E0,1.00000000000000000E0),.UNSPECIFIED.);
#47=CARTESIAN_POINT('',(2.39909881545610624E1,1.51503678550618481E0,2.68157680776272045E1));
#48=CARTESIAN_POINT('',(2.59993250014434842E1,-2.43086242941436748E0,3.08650226380548069E1));
#49=CARTESIAN_POINT('',(1.68613292740695755E1,-2.11373218589843592E0,2.68157680776272045E1));
#50=CARTESIAN_POINT('',(1.88696661209519974E1,-6.05963140081898821E0,3.08650226380548069E1));
#51=B_SPLINE_SURFACE_WITH_KNOTS('',1,1,((#47,#48),(#49,#50)),.UNSPECIFIED.,.F.,.F.,.F.,(2,2),(2,2),(0.00000000000000000E0,1.00000000000000000E0),(0.00000000000000000E0,1.00000000000000000E0),.UNSPECIFIED.);
#52=CARTESIAN_POINT('',(1.68613292740695755E1,-2.11373218589843592E0,2.68157680776272045E1));
#53=CARTESIAN_POINT('',(1.88696661209519974E1,-6.05963140081898821E0,3.08650226380548069E1));
#54=CARTESIAN_POINT('',(1.99225395461942298E1,-8.12827463092412295E0,1.94364543665275775E1));
#55=CARTESIAN_POINT('',(2.19308763930766517E1,-1.20741738458446761E1,2.34857089269551800E1));
#56=B_SPLINE_SURFACE_WITH_KNOTS('',1,1,((#52,#53),(#54,#55)),.UNSPECIFIED.,.F.,.F.,.F.,(2,2),(2,2),(0.00000000000000000E0,1.00000000000000000E0),(0.00000000000000000E0,1.00000000000000000E0),.UNSPECIFIED.);
#57=CARTESIAN_POINT('',(1.77525366341310118E1,-1.66013606447285866E0,2.68157680776272045E1));
#58=CARTESIAN_POINT('',(1.94261506731996967E1,-4.94838541023998602E0,3.01901468779835405E1));
#59=CARTESIAN_POINT('',(1.68613292740695755E1,-2.11373218589843592E0,2.68157680776272045E1));
#60=CARTESIAN_POINT('',(1.85349433131382604E1,-5.40198153166556239E0,3.01901468779835405E1));
#61=CARTESIAN_POINT('',(1.71674503012820416E1,-2.71518643040100471E0,2.60778367065172425E1));
#62=CARTESIAN_POINT('',(1.88410643403507265E1,-6.00343577616813118E0,2.94522155068735785E1));
#63=(BOUNDED_SURFACE()B_SPLINE_SURFACE(2,1,((#57,#58),(#59,#60),(#61,#62)),.UNSPECIFIED.,.F.,.F.,.F.)B_SPLINE_SURFACE_WITH_KNOTS((3,3),(2,2),(0.00000000000000000E0,1.00000000000000000E0),(0.00000000000000000E0,1.00000000000000000E0),.UNSPECIFIED.)GEOMETRIC_REPRESENTATION_ITEM()RATIONAL_B_SPLINE_SURFACE(((1.00000000000000000E0,1.00000000000000000E0),(7.07106781186547573E-1,7.07106781186547573E-1),(1.00000000000000000E0,1.00000000000000000E0)))REPRESENTATION_ITEM('')SURFACE());
#64=CARTESIAN_POINT('',(2.63054460286559504E1,-3.03231667391693627E0,3.01270912669448450E1));
#65=CARTESIAN_POINT('',(2.00669945082258998E1,-6.20748952389597974E0,3.01270912669448450E1));
#66=CARTESIAN_POINT('',(2.59993250014434842E1,-2.43086242941436748E0,3.08650226380548069E1));
#67=CARTESIAN_POINT('',(1.97608734810134337E1,-5.60603527939341095E0,3.08650226380548069E1));
#68=CARTESIAN_POINT('',(2.56646021936297473E1,-1.77321256026094254E0,3.01901468779835405E1));
#69=CARTESIAN_POINT('',(1.94261506731996967E1,-4.94838541023998602E0,3.01901468779835405E1));
#70=(BOUNDED_SURFACE()B_SPLINE_SURFACE(2,1,((#64,#65),(#66,#67),(#68,#69)),.UNSPECIFIED.,.F.,.F.,.F.)B_SPLINE_SURFACE_WITH_KNOTS((3,3),(2,2),(0.00000000000000000E0,1.00000000000000000E0),(0.00000000000000000E0,1.00000000000000000E0),.UNSPECIFIED.)GEOMETRIC_REPRESENTATION_ITEM()RATIONAL_B_SPLINE_SURFACE(((1.00000000000000000E0,1.00000000000000000E0),(1.00000000000000000E0,1.00000000000000000E0),(2.00000000000000000E0,2.00000000000000000E0)))REPRESENTATION_ITEM('')SURFACE());
#71=CARTESIAN_POINT('',(2.15961535852629147E1,-1.14165239766912503E1,2.28108331668839099E1));
#72=CARTESIAN_POINT('',(1.88410643403507265E1,-6.00343577616813118E0,2.94522155068735785E1));
#73=CARTESIAN_POINT('',(2.19308763930766517E1,-1.20741738458446761E1,2.34857089269551800E1));
#74=CARTESIAN_POINT('',(1.91757871481644635E1,-6.66108564532155700E0,3.01270912669448450E1));
#75=CARTESIAN_POINT('',(2.28220837531380880E1,-1.16205777244190980E1,2.34857089269551800E1));
#76=CARTESIAN_POINT('',(2.00669945082258998E1,-6.20748952389597974E0,3.01270912669448450E1));
#77=(BOUNDED_SURFACE()B_SPLINE_SURFACE(2,1,((#71,#72),(#73,#74),(#75,#76)),.UNSPECIFIED.,.F.,.F.,.F.)B_SPLINE_SURFACE_WITH_KNOTS((3,3),(2,2),(0.00000000000000000E0,1.00000000000000000E0),(0.00000000000000000E0,1.00000000000000000E0),.UNSPECIFIED.)GEOMETRIC_REPRESENTATION_ITEM()RATIONAL_B_SPLINE_SURFACE(((2.00000000000000000E0,2.00000000000000000E0),(1.00000000000000000E0,1.00000000000000000E0),(1.00000000000000000E0,1.00000000000000000E0)))REPRESENTATION_ITEM('')SURFACE());
#78=CARTESIAN_POINT('',(2.00669945082258998E1,-6.20748952389597974E0,3.01270912669448450E1));
#79=CARTESIAN_POINT('',(1.91757871481644635E1,-6.66108564532155700E0,3.01270912669448450E1));
#80=CARTESIAN_POINT('',(1.88410643403507265E1,-6.00343577616813118E0,2.94522155068735785E1));
#81=CARTESIAN_POINT('',(1.97608734810134337E1,-5.60603527939341095E0,3.08650226380548069E1));
#82=CARTESIAN_POINT('',(1.88696661209519974E1,-6.05963140081898821E0,3.08650226380548069E1));
#83=CARTESIAN_POINT('',(1.86880038267444917E1,-5.70270865391684723E0,2.98211811924285577E1));
#84=CARTESIAN_POINT('',(1.94261506731996967E1,-4.94838541023998602E0,3.01901468779835405E1));
#85=CARTESIAN_POINT('',(1.89805469931689785E1,-5.17518347095277420E0,3.01901468779835405E1));
#86=CARTESIAN_POINT('',(1.88224785062916489E1,-5.23205094964008577E0,2.97192111675897976E1));
#87=(BOUNDED_SURFACE()B_SPLINE_SURFACE(2,2,((#78,#79,#80),(#81,#82,#83),(#84,#85,#86)),.UNSPECIFIED.,.F.,.F.,.F.)B_SPLINE_SURFACE_WITH_KNOTS((3,3),(3,3),(0.00000000000000000E0,1.00000000000000000E0),(0.00000000000000000E0,1.00000000000000000E0),.UNSPECIFIED.)GEOMETRIC_REPRESENTATION_ITEM()RATIONAL_B_SPLINE_SURFACE(((1.00000000000000000E0,1.00000000000000000E0,2.00000000000000000E0),(1.00000000000000000E0,1.00000000000000000E0,2.00000000000000000E0),(2.00000000000000000E0,2.00000000000000000E0,3.00000000000000000E0)))REPRESENTATION_ITEM('')SURFACE());
#88=CARTESIAN_POINT('',(2.70521984266857167E1,-4.49950565951950221E0,1.94364543665275775E1));
#89=CARTESIAN_POINT('',(1.99225395461942298E1,-8.12827463092412295E0,1.94364543665275775E1));
#90=B_SPLINE_CURVE_WITH_KNOTS('',1,(#88,#89),.UNSPECIFIED.,.F.,.F.,(2,2),(0.00000000000000000E0,1.00000000000000000E0),.UNSPECIFIED.);
#91=CARTESIAN_POINT('',(1.99225395461942298E1,-8.12827463092412295E0,1.94364543665275775E1));
#92=CARTESIAN_POINT('',(1.71674503012820416E1,-2.71518643040100471E0,2.60778367065172425E1));
#93=B_SPLINE_CURVE_WITH_KNOTS('',1,(#91,#92),.UNSPECIFIED.,.F.,.F.,(2,2),(0.00000000000000000E0,1.00000000000000000E0),.UNSPECIFIED.);
#94=CARTESIAN_POINT('',(1.77525366341310118E1,-1.66013606447285866E0,2.68157680776272045E1));
#95=CARTESIAN_POINT('',(1.68613292740695755E1,-2.11373218589843592E0,2.68157680776272045E1));
#96=CARTESIAN_POINT('',(1.71674503012820416E1,-2.71518643040100471E0,2.60778367065172425E1));
#97=(BOUNDED_CURVE()B_SPLINE_CURVE(2,(#94,#95,#96),.UNSPECIFIED.,.F.,.F.)B_SPLINE_CURVE_WITH_KNOTS((3,3),(0.00000000000000000E0,1.00000000000000000E0),.UNSPECIFIED.)CURVE()GEOMETRIC_REPRESENTATION_ITEM()RATIONAL_B_SPLINE_CURVE((1.00000000000000000E0,7.07106781186547573E-1,1.00000000000000000E0))REPRESENTATION_ITEM(''));
#98=CARTESIAN_POINT('',(2.39909881545610624E1,1.51503678550618481E0,2.68157680776272045E1));
#99=CARTESIAN_POINT('',(1.77525366341310118E1,-1.66013606447285866E0,2.68157680776272045E1));
#100=B_SPLINE_CURVE_WITH_KNOTS('',1,(#98,#99),.UNSPECIFIED.,.F.,.F.,(2,2),(0.00000000000000000E0,1.00000000000000000E0),.UNSPECIFIED.);
#101=CARTESIAN_POINT('',(2.70521984266857167E1,-4.49950565951950221E0,1.94364543665275775E1));
#102=CARTESIAN_POINT('',(2.39909881545610624E1,1.51503678550618481E0,2.68157680776272045E1));
#103=B_SPLINE_CURVE_WITH_KNOTS('',1,(#101,#102),.UNSPECIFIED.,.F.,.F.,(2,2),(0.00000000000000000E0,1.00000000000000000E0),.UNSPECIFIED.);
#104=CARTESIAN_POINT('',(2.90605352735681386E1,-8.44540487444005450E0,2.34857089269551800E1));
#105=CARTESIAN_POINT('',(2.63054460286559504E1,-3.03231667391693627E0,3.01270912669448450E1));
#106=B_SPLINE_CURVE_WITH_KNOTS('',1,(#104,#105),.UNSPECIFIED.,.F.,.F.,(2,2),(0.00000000000000000E0,1.00000000000000000E0),.UNSPECIFIED.);
#107=CARTESIAN_POINT('',(2.00669945082258998E1,-6.20748952389597974E0,3.01270912669448450E1));
#108=CARTESIAN_POINT('',(2.63054460286559504E1,-3.03231667391693627E0,3.01270912669448450E1));
#109=B_SPLINE_CURVE_WITH_KNOTS('',1,(#107,#108),.UNSPECIFIED.,.F.,.F.,(2,2),(0.00000000000000000E0,1.00000000000000000E0),.UNSPECIFIED.);
#110=CARTESIAN_POINT('',(2.00669945082258998E1,-6.20748952389597974E0,3.01270912669448450E1));
#111=CARTESIAN_POINT('',(2.28220837531380880E1,-1.16205777244190980E1,2.34857089269551800E1));
#112=B_SPLINE_CURVE_WITH_KNOTS('',1,(#110,#111),.UNSPECIFIED.,.F.,.F.,(2,2),(0.00000000000000000E0,1.00000000000000000E0),.UNSPECIFIED.);
#113=CARTESIAN_POINT('',(2.90605352735681386E1,-8.44540487444005450E0,2.34857089269551800E1));
#114=CARTESIAN_POINT('',(2.28220837531380880E1,-1.16205777244190980E1,2.34857089269551800E1));
#115=B_SPLINE_CURVE_WITH_KNOTS('',1,(#113,#114),.UNSPECIFIED.,.F.,.F.,(2,2),(0.00000000000000000E0,1.00000000000000000E0),.UNSPECIFIED.);
#116=CARTESIAN_POINT('',(2.70521984266857167E1,-4.49950565951950221E0,1.94364543665275775E1));
#117=CARTESIAN_POINT('',(2.90605352735681386E1,-8.44540487444005450E0,2.34857089269551800E1));
#118=B_SPLINE_CURVE_WITH_KNOTS('',1,(#116,#117),.UNSPECIFIED.,.F.,.F.,(2,2),(0.00000000000000000E0,1.00000000000000000E0),.UNSPECIFIED.);
#119=CARTESIAN_POINT('',(2.15961535852629147E1,-1.14165239766912503E1,2.28108331668839099E1));
#120=CARTESIAN_POINT('',(2.19308763930766517E1,-1.20741738458446761E1,2.34857089269551800E1));
#121=CARTESIAN_POINT('',(2.28220837531380880E1,-1.16205777244190980E1,2.34857089269551800E1));
#122=(BOUNDED_CURVE()B_SPLINE_CURVE(2,(#119,#120,#121),.UNSPECIFIED.,.F.,.F.)B_SPLINE_CURVE_WITH_KNOTS((3,3),(0.00000000000000000E0,1.00000000000000000E0),.UNSPECIFIED.)CURVE()GEOMETRIC_REPRESENTATION_ITEM()RATIONAL_B_SPLINE_CURVE((2.00000000000000000E0,1.00000000000000000E0,1.00000000000000000E0))REPRESENTATION_ITEM(''));
#123=CARTESIAN_POINT('',(1.99225395461942298E1,-8.12827463092412295E0,1.94364543665275775E1));
#124=CARTESIAN_POINT('',(2.15961535852629147E1,-1.14165239766912503E1,2.28108331668839099E1));
#125=B_SPLINE_CURVE_WITH_KNOTS('',1,(#123,#124),.UNSPECIFIED.,.F.,.F.,(2,2),(0.00000000000000000E0,1.00000000000000000E0),.UNSPECIFIED.);
#126=CARTESIAN_POINT('',(2.39909881545610624E1,1.51503678550618481E0,2.68157680776272045E1));
#127=CARTESIAN_POINT('',(2.56646021936297473E1,-1.77321256026094254E0,3.01901468779835405E1));
#128=B_SPLINE_CURVE_WITH_KNOTS('',1,(#126,#127),.UNSPECIFIED.,.F.,.F.,(2,2),(0.00000000000000000E0,1.00000000000000000E0),.UNSPECIFIED.);
#129=CARTESIAN_POINT('',(2.56646021936297473E1,-1.77321256026094254E0,3.01901468779835405E1));
#130=CARTESIAN_POINT('',(2.59993250014434842E1,-2.43086242941436748E0,3.08650226380548069E1));
#131=CARTESIAN_POINT('',(2.63054460286559504E1,-3.03231667391693627E0,3.01270912669448450E1));
#132=(BOUNDED_CURVE()B_SPLINE_CURVE(2,(#129,#130,#131),.UNSPECIFIED.,.F.,.F.)B_SPLINE_CURVE_WITH_KNOTS((3,3),(0.00000000000000000E0,1.00000000000000000E0),.UNSPECIFIED.)CURVE()GEOMETRIC_REPRESENTATION_ITEM()RATIONAL_B_SPLINE_CURVE((2.00000000000000000E0,1.00000000000000000E0,1.00000000000000000E0))REPRESENTATION_ITEM(''));
#133=CARTESIAN_POINT('',(1.77525366341310118E1,-1.66013606447285866E0,2.68157680776272045E1));
#134=CARTESIAN_POINT('',(1.94261506731996967E1,-4.94838541023998602E0,3.01901468779835405E1));
#135=B_SPLINE_CURVE_WITH_KNOTS('',1,(#133,#134),.UNSPECIFIED.,.F.,.F.,(2,2),(0.00000000000000000E0,1.00000000000000000E0),.UNSPECIFIED.);
#136=CARTESIAN_POINT('',(1.94261506731996967E1,-4.94838541023998602E0,3.01901468779835405E1));
#137=CARTESIAN_POINT('',(2.56646021936297473E1,-1.77321256026094254E0,3.01901468779835405E1));
#138=B_SPLINE_CURVE_WITH_KNOTS('',1,(#136,#137),.UNSPECIFIED.,.F.,.F.,(2,2),(0.00000000000000000E0,1.00000000000000000E0),.UNSPECIFIED.);
#139=CARTESIAN_POINT('',(1.88410643403507265E1,-6.00343577616813118E0,2.94522155068735785E1));
#140=CARTESIAN_POINT('',(2.15961535852629147E1,-1.14165239766912503E1,2.28108331668839099E1));
#141=B_SPLINE_CURVE_WITH_KNOTS('',1,(#139,#140),.UNSPECIFIED.,.F.,.F.,(2,2),(0.00000000000000000E0,1.00000000000000000E0),.UNSPECIFIED.);
#142=CARTESIAN_POINT('',(1.71674503012820416E1,-2.71518643040100471E0,2.60778367065172425E1));
#143=CARTESIAN_POINT('',(1.88410643403507265E1,-6.00343577616813118E0,2.94522155068735785E1));
#144=B_SPLINE_CURVE_WITH_KNOTS('',1,(#142,#143),.UNSPECIFIED.,.F.,.F.,(2,2),(0.00000000000000000E0,1.00000000000000000E0),.UNSPECIFIED.);
#145=CARTESIAN_POINT('',(1.94261506731996967E1,-4.94838541023998602E0,3.01901468779835405E1));
#146=CARTESIAN_POINT('',(1.85349433131382604E1,-5.40198153166556239E0,3.01901468779835405E1));
#147=CARTESIAN_POINT('',(1.88410643403507265E1,-6.00343577616813118E0,2.94522155068735785E1));
#148=(BOUNDED_CURVE()B_SPLINE_CURVE(2,(#145,#146,#147),.UNSPECIFIED.,.F.,.F.)B_SPLINE_CURVE_WITH_KNOTS((3,3),(0.00000000000000000E0,1.00000000000000000E0),.UNSPECIFIED.)CURVE()GEOMETRIC_REPRESENTATION_ITEM()RATIONAL_B_SPLINE_CURVE((1.00000000000000000E0,7.07106781186547573E-1,1.00000000000000000E0))REPRESENTATION_ITEM(''));
#149=CARTESIAN_POINT('',(1.94261506731996967E1,-4.94838541023998602E0,3.01901468779835405E1));
#150=CARTESIAN_POINT('',(1.97608734810134337E1,-5.60603527939341095E0,3.08650226380548069E1));
#151=CARTESIAN_POINT('',(2.00669945082258998E1,-6.20748952389597974E0,3.01270912669448450E1));
#152=(BOUNDED_CURVE()B_SPLINE_CURVE(2,(#149,#150,#151),.UNSPECIFIED.,.F.,.F.)B_SPLINE_CURVE_WITH_KNOTS((3,3),(0.00000000000000000E0,1.00000000000000000E0),.UNSPECIFIED.)CURVE()GEOMETRIC_REPRESENTATION_ITEM()RATIONAL_B_SPLINE_CURVE((2.00000000000000000E0,1.00000000000000000E0,1.00000000000000000E0))REPRESENTATION_ITEM(''));
#153=CARTESIAN_POINT('',(1.88410643403507265E1,-6.00343577616813118E0,2.94522155068735785E1));
#154=CARTESIAN_POINT('',(1.91757871481644635E1,-6.66108564532155700E0,3.01270912669448450E1));
#155=CARTESIAN_POINT('',(2.00669945082258998E1,-6.20748952389597974E0,3.01270912669448450E1));
#156=(BOUNDED_CURVE()B_SPLINE_CURVE(2,(#153,#154,#155),.UNSPECIFIED.,.F.,.F.)B_SPLINE_CURVE_WITH_KNOTS((3,3),(0.00000000000000000E0,1.00000000000000000E0),.UNSPECIFIED.)CURVE()GEOMETRIC_REPRESENTATION_ITEM()RATIONAL_B_SPLINE_CURVE((2.00000000000000000E0,1.00000000000000000E0,1.00000000000000000E0))REPRESENTATION_ITEM(''));
#157=(GEOMETRIC_REPRESENTATION_CONTEXT(2)REPRESENTATION_CONTEXT('','2D'));
#158=CARTESIAN_POINT('',(1.00000000000000000E0,0.00000000000000000E0));
#159=CARTESIAN_POINT('',(1.00000000000000000E0,1.00000000000000000E0));
#160=B_SPLINE_CURVE_WITH_KNOTS('',1,(#158,#159),.UNSPECIFIED.,.F.,.F.,(2,2),(0.00000000000000000E0,1.00000000000000000E0),.UNSPECIFIED.);
#161=DEFINITIONAL_REPRESENTATION('',(#160),#157);
#162=PCURVE('',#31,#161);
#163=CARTESIAN_POINT('',(1.00000000000000000E0,1.00000000000000000E0));
#164=CARTESIAN_POINT('',(9.99999999999999778E-2,1.00000000000000000E0));
#165=B_SPLINE_CURVE_WITH_KNOTS('',1,(#163,#164),.UNSPECIFIED.,.F.,.F.,(2,2),(0.00000000000000000E0,1.00000000000000000E0),.UNSPECIFIED.);
#166=DEFINITIONAL_REPRESENTATION('',(#165),#157);
#167=PCURVE('',#31,#166);
#168=CARTESIAN_POINT('',(9.99999999999999778E-2,1.00000000000000000E0));
#169=CARTESIAN_POINT('',(0.00000000000000000E0,1.00000000000000000E0));
#170=CARTESIAN_POINT('',(0.00000000000000000E0,8.75000000000000000E-1));
#171=(BOUNDED_CURVE()B_SPLINE_CURVE(2,(#168,#169,#170),.UNSPECIFIED.,.F.,.F.)B_SPLINE_CURVE_WITH_KNOTS((3,3),(0.00000000000000000E0,1.00000000000000000E0),.UNSPECIFIED.)CURVE()GEOMETRIC_REPRESENTATION_ITEM()RATIONAL_B_SPLINE_CURVE((1.00000000000000000E0,7.07106781186547573E-1,1.00000000000000000E0))REPRESENTATION_ITEM(''));
#172=DEFINITIONAL_REPRESENTATION('',(#171),#157);
#173=PCURVE('',#31,#172);
#174=CARTESIAN_POINT('',(0.00000000000000000E0,8.75000000000000000E-1));
#175=CARTESIAN_POINT('',(0.00000000000000000E0,0.00000000000000000E0));
#176=B_SPLINE_CURVE_WITH_KNOTS('',1,(#174,#175),.UNSPECIFIED.,.F.,.F.,(2,2),(0.00000000000000000E0,1.00000000000000000E0),.UNSPECIFIED.);
#177=DEFINITIONAL_REPRESENTATION('',(#176),#157);
#178=PCURVE('',#31,#177);
#179=CARTESIAN_POINT('',(0.00000000000000000E0,0.00000000000000000E0));
#180=CARTESIAN_POINT('',(1.00000000000000000E0,0.00000000000000000E0));
#181=B_SPLINE_CURVE_WITH_KNOTS('',1,(#179,#180),.UNSPECIFIED.,.F.,.F.,(2,2),(0.00000000000000000E0,1.00000000000000000E0),.UNSPECIFIED.);
#182=DEFINITIONAL_REPRESENTATION('',(#181),#157);
#183=PCURVE('',#31,#182);
#184=CARTESIAN_POINT('',(0.00000000000000000E0,0.00000000000000000E0));
#185=CARTESIAN_POINT('',(9.00000000000000022E-1,0.00000000000000000E0));
#186=B_SPLINE_CURVE_WITH_KNOTS('',1,(#184,#185),.UNSPECIFIED.,.F.,.F.,(2,2),(0.00000000000000000E0,1.00000000000000000E0),.UNSPECIFIED.);
#187=DEFINITIONAL_REPRESENTATION('',(#186),#157);
#188=PCURVE('',#36,#187);
#189=CARTESIAN_POINT('',(9.00000000000000022E-1,0.00000000000000000E0));
#190=CARTESIAN_POINT('',(9.00000000000000022E-1,8.75000000000000000E-1));
#191=B_SPLINE_CURVE_WITH_KNOTS('',1,(#189,#190),.UNSPECIFIED.,.F.,.F.,(2,2),(0.00000000000000000E0,1.00000000000000000E0),.UNSPECIFIED.);
#192=DEFINITIONAL_REPRESENTATION('',(#191),#157);
#193=PCURVE('',#36,#192);
#194=CARTESIAN_POINT('',(9.00000000000000022E-1,8.75000000000000000E-1));
#195=CARTESIAN_POINT('',(0.00000000000000000E0,8.75000000000000000E-1));
#196=B_SPLINE_CURVE_WITH_KNOTS('',1,(#194,#195),.UNSPECIFIED.,.F.,.F.,(2,2),(0.00000000000000000E0,1.00000000000000000E0),.UNSPECIFIED.);
#197=DEFINITIONAL_REPRESENTATION('',(#196),#157);
#198=PCURVE('',#36,#197);
#199=CARTESIAN_POINT('',(0.00000000000000000E0,8.75000000000000000E-1));
#200=CARTESIAN_POINT('',(0.00000000000000000E0,0.00000000000000000E0));
#201=B_SPLINE_CURVE_WITH_KNOTS('',1,(#199,#200),.UNSPECIFIED.,.F.,.F.,(2,2),(0.00000000000000000E0,1.00000000000000000E0),.UNSPECIFIED.);
#202=DEFINITIONAL_REPRESENTATION('',(#201),#157);
#203=PCURVE('',#36,#202);
#204=CARTESIAN_POINT('',(1.00000000000000000E0,0.00000000000000000E0));
#205=CARTESIAN_POINT('',(1.00000000000000000E0,1.00000000000000000E0));
#206=B_SPLINE_CURVE_WITH_KNOTS('',1,(#204,#205),.UNSPECIFIED.,.F.,.F.,(2,2),(0.00000000000000000E0,1.00000000000000000E0),.UNSPECIFIED.);
#207=DEFINITIONAL_REPRESENTATION('',(#206),#157);
#208=PCURVE('',#41,#207);
#209=CARTESIAN_POINT('',(1.00000000000000000E0,1.00000000000000000E0));
#210=CARTESIAN_POINT('',(1.25000000000000000E-1,1.00000000000000000E0));
#211=B_SPLINE_CURVE_WITH_KNOTS('',1,(#209,#210),.UNSPECIFIED.,.F.,.F.,(2,2),(0.00000000000000000E0,1.00000000000000000E0),.UNSPECIFIED.);
#212=DEFINITIONAL_REPRESENTATION('',(#211),#157);
#213=PCURVE('',#41,#212);
#214=CARTESIAN_POINT('',(1.25000000000000000E-1,1.00000000000000000E0));
#215=CARTESIAN_POINT('',(0.00000000000000000E0,1.00000000000000000E0));
#216=CARTESIAN_POINT('',(0.00000000000000000E0,8.33333333333333370E-1));
#217=(BOUNDED_CURVE()B_SPLINE_CURVE(2,(#214,#215,#216),.UNSPECIFIED.,.F.,.F.)B_SPLINE_CURVE_WITH_KNOTS((3,3),(0.00000000000000000E0,1.00000000000000000E0),.UNSPECIFIED.)CURVE()GEOMETRIC_REPRESENTATION_ITEM()RATIONAL_B_SPLINE_CURVE((1.00000000000000000E0,1.00000000000000000E0,2.00000000000000000E0))REPRESENTATION_ITEM(''));
#218=DEFINITIONAL_REPRESENTATION('',(#217),#157);
#219=PCURVE('',#41,#218);
#220=CARTESIAN_POINT('',(0.00000000000000000E0,8.33333333333333370E-1));
#221=CARTESIAN_POINT('',(0.00000000000000000E0,0.00000000000000000E0));
#222=B_SPLINE_CURVE_WITH_KNOTS('',1,(#220,#221),.UNSPECIFIED.,.F.,.F.,(2,2),(0.00000000000000000E0,1.00000000000000000E0),.UNSPECIFIED.);
#223=DEFINITIONAL_REPRESENTATION('',(#222),#157);
#224=PCURVE('',#41,#223);
#225=CARTESIAN_POINT('',(0.00000000000000000E0,0.00000000000000000E0));
#226=CARTESIAN_POINT('',(1.00000000000000000E0,0.00000000000000000E0));
#227=B_SPLINE_CURVE_WITH_KNOTS('',1,(#225,#226),.UNSPECIFIED.,.F.,.F.,(2,2),(0.00000000000000000E0,1.00000000000000000E0),.UNSPECIFIED.);
#228=DEFINITIONAL_REPRESENTATION('',(#227),#157);
#229=PCURVE('',#41,#228);
#230=CARTESIAN_POINT('',(0.00000000000000000E0,0.00000000000000000E0));
#231=CARTESIAN_POINT('',(1.00000000000000000E0,0.00000000000000000E0));
#232=B_SPLINE_CURVE_WITH_KNOTS('',1,(#230,#231),.UNSPECIFIED.,.F.,.F.,(2,2),(0.00000000000000000E0,1.00000000000000000E0),.UNSPECIFIED.);
#233=DEFINITIONAL_REPRESENTATION('',(#232),#157);
#234=PCURVE('',#46,#233);
#235=CARTESIAN_POINT('',(1.00000000000000000E0,0.00000000000000000E0));
#236=CARTESIAN_POINT('',(1.00000000000000000E0,8.33333333333333370E-1));
#237=B_SPLINE_CURVE_WITH_KNOTS('',1,(#235,#236),.UNSPECIFIED.,.F.,.F.,(2,2),(0.00000000000000000E0,1.00000000000000000E0),.UNSPECIFIED.);
#238=DEFINITIONAL_REPRESENTATION('',(#237),#157);
#239=PCURVE('',#46,#238);
#240=CARTESIAN_POINT('',(1.00000000000000000E0,8.33333333333333370E-1));
#241=CARTESIAN_POINT('',(1.00000000000000000E0,1.00000000000000000E0));
#242=CARTESIAN_POINT('',(9.00000000000000022E-1,1.00000000000000000E0));
#243=(BOUNDED_CURVE()B_SPLINE_CURVE(2,(#240,#241,#242),.UNSPECIFIED.,.F.,.F.)B_SPLINE_CURVE_WITH_KNOTS((3,3),(0.00000000000000000E0,1.00000000000000000E0),.UNSPECIFIED.)CURVE()GEOMETRIC_REPRESENTATION_ITEM()RATIONAL_B_SPLINE_CURVE((2.00000000000000000E0,1.00000000000000000E0,1.00000000000000000E0))REPRESENTATION_ITEM(''));
#244=DEFINITIONAL_REPRESENTATION('',(#243),#157);
#245=PCURVE('',#46,#244);
#246=CARTESIAN_POINT('',(9.00000000000000022E-1,1.00000000000000000E0));
#247=CARTESIAN_POINT('',(0.00000000000000000E0,1.00000000000000000E0));
#248=B_SPLINE_CURVE_WITH_KNOTS('',1,(#246,#247),.UNSPECIFIED.,.F.,.F.,(2,2),(0.00000000000000000E0,1.00000000000000000E0),.UNSPECIFIED.);
#249=DEFINITIONAL_REPRESENTATION('',(#248),#157);
#250=PCURVE('',#46,#249);
#251=CARTESIAN_POINT('',(0.00000000000000000E0,1.00000000000000000E0));
#252=CARTESIAN_POINT('',(0.00000000000000000E0,0.00000000000000000E0));
#253=B_SPLINE_CURVE_WITH_KNOTS('',1,(#251,#252),.UNSPECIFIED.,.F.,.F.,(2,2),(0.00000000000000000E0,1.00000000000000000E0),.UNSPECIFIED.);
#254=DEFINITIONAL_REPRESENTATION('',(#253),#157);
#255=PCURVE('',#46,#254);
#256=CARTESIAN_POINT('',(0.00000000000000000E0,0.00000000000000000E0));
#257=CARTESIAN_POINT('',(8.75000000000000000E-1,0.00000000000000000E0));
#258=B_SPLINE_CURVE_WITH_KNOTS('',1,(#256,#257),.UNSPECIFIED.,.F.,.F.,(2,2),(0.00000000000000000E0,1.00000000000000000E0),.UNSPECIFIED.);
#259=DEFINITIONAL_REPRESENTATION('',(#258),#157);
#260=PCURVE('',#51,#259);
#261=CARTESIAN_POINT('',(8.75000000000000000E-1,0.00000000000000000E0));
#262=CARTESIAN_POINT('',(8.75000000000000000E-1,8.33333333333333370E-1));
#263=B_SPLINE_CURVE_WITH_KNOTS('',1,(#261,#262),.UNSPECIFIED.,.F.,.F.,(2,2),(0.00000000000000000E0,1.00000000000000000E0),.UNSPECIFIED.);
#264=DEFINITIONAL_REPRESENTATION('',(#263),#157);
#265=PCURVE('',#51,#264);
#266=CARTESIAN_POINT('',(8.75000000000000000E-1,8.33333333333333370E-1));
#267=CARTESIAN_POINT('',(0.00000000000000000E0,8.33333333333333370E-1));
#268=B_SPLINE_CURVE_WITH_KNOTS('',1,(#266,#267),.UNSPECIFIED.,.F.,.F.,(2,2),(0.00000000000000000E0,1.00000000000000000E0),.UNSPECIFIED.);
#269=DEFINITIONAL_REPRESENTATION('',(#268),#157);
#270=PCURVE('',#51,#269);
#271=CARTESIAN_POINT('',(0.00000000000000000E0,8.33333333333333370E-1));
#272=CARTESIAN_POINT('',(0.00000000000000000E0,0.00000000000000000E0));
#273=B_SPLINE_CURVE_WITH_KNOTS('',1,(#271,#272),.UNSPECIFIED.,.F.,.F.,(2,2),(0.00000000000000000E0,1.00000000000000000E0),.UNSPECIFIED.);
#274=DEFINITIONAL_REPRESENTATION('',(#273),#157);
#275=PCURVE('',#51,#274);
#276=CARTESIAN_POINT('',(1.00000000000000000E0,0.00000000000000000E0));
#277=CARTESIAN_POINT('',(1.00000000000000000E0,8.33333333333333370E-1));
#278=B_SPLINE_CURVE_WITH_KNOTS('',1,(#276,#277),.UNSPECIFIED.,.F.,.F.,(2,2),(0.00000000000000000E0,1.00000000000000000E0),.UNSPECIFIED.);
#279=DEFINITIONAL_REPRESENTATION('',(#278),#157);
#280=PCURVE('',#56,#279);
#281=CARTESIAN_POINT('',(1.00000000000000000E0,8.33333333333333370E-1));
#282=CARTESIAN_POINT('',(9.99999999999999778E-2,8.33333333333333370E-1));
#283=B_SPLINE_CURVE_WITH_KNOTS('',1,(#281,#282),.UNSPECIFIED.,.F.,.F.,(2,2),(0.00000000000000000E0,1.00000000000000000E0),.UNSPECIFIED.);
#284=DEFINITIONAL_REPRESENTATION('',(#283),#157);
#285=PCURVE('',#56,#284);
#286=CARTESIAN_POINT('',(9.99999999999999778E-2,8.33333333333333370E-1));
#287=CARTESIAN_POINT('',(9.99999999999999778E-2,0.00000000000000000E0));
#288=B_SPLINE_CURVE_WITH_KNOTS('',1,(#286,#287),.UNSPECIFIED.,.F.,.F.,(2,2),(0.00000000000000000E0,1.00000000000000000E0),.UNSPECIFIED.);
#289=DEFINITIONAL_REPRESENTATION('',(#288),#157);
#290=PCURVE('',#56,#289);
#291=CARTESIAN_POINT('',(9.99999999999999778E-2,0.00000000000000000E0));
#292=CARTESIAN_POINT('',(1.00000000000000000E0,0.00000000000000000E0));
#293=B_SPLINE_CURVE_WITH_KNOTS('',1,(#291,#292),.UNSPECIFIED.,.F.,.F.,(2,2),(0.00000000000000000E0,1.00000000000000000E0),.UNSPECIFIED.);
#294=DEFINITIONAL_REPRESENTATION('',(#293),#157);
#295=PCURVE('',#56,#294);
#296=CARTESIAN_POINT('',(0.00000000000000000E0,0.00000000000000000E0));
#297=CARTESIAN_POINT('',(1.00000000000000000E0,0.00000000000000000E0));
#298=B_SPLINE_CURVE_WITH_KNOTS('',1,(#296,#297),.UNSPECIFIED.,.F.,.F.,(2,2),(0.00000000000000000E0,1.00000000000000000E0),.UNSPECIFIED.);
#299=DEFINITIONAL_REPRESENTATION('',(#298),#157);
#300=PCURVE('',#63,#299);
#301=CARTESIAN_POINT('',(1.00000000000000000E0,0.00000000000000000E0));
#302=CARTESIAN_POINT('',(1.00000000000000000E0,1.00000000000000000E0));
#303=B_SPLINE_CURVE_WITH_KNOTS('',1,(#301,#302),.UNSPECIFIED.,.F.,.F.,(2,2),(0.00000000000000000E0,1.00000000000000000E0),.UNSPECIFIED.);
#304=DEFINITIONAL_REPRESENTATION('',(#303),#157);
#305=PCURVE('',#63,#304);
#306=CARTESIAN_POINT('',(1.00000000000000000E0,1.00000000000000000E0));
#307=CARTESIAN_POINT('',(0.00000000000000000E0,1.00000000000000000E0));
#308=B_SPLINE_CURVE_WITH_KNOTS('',1,(#306,#307),.UNSPECIFIED.,.F.,.F.,(2,2),(0.00000000000000000E0,1.00000000000000000E0),.UNSPECIFIED.);
#309=DEFINITIONAL_REPRESENTATION('',(#308),#157);
#310=PCURVE('',#63,#309);
#311=CARTESIAN_POINT('',(0.00000000000000000E0,1.00000000000000000E0));
#312=CARTESIAN_POINT('',(0.00000000000000000E0,0.00000000000000000E0));
#313=B_SPLINE_CURVE_WITH_KNOTS('',1,(#311,#312),.UNSPECIFIED.,.F.,.F.,(2,2),(0.00000000000000000E0,1.00000000000000000E0),.UNSPECIFIED.);
#314=DEFINITIONAL_REPRESENTATION('',(#313),#157);
#315=PCURVE('',#63,#314);
#316=CARTESIAN_POINT('',(1.00000000000000000E0,0.00000000000000000E0));
#317=CARTESIAN_POINT('',(1.00000000000000000E0,1.00000000000000000E0));
#318=B_SPLINE_CURVE_WITH_KNOTS('',1,(#316,#317),.UNSPECIFIED.,.F.,.F.,(2,2),(0.00000000000000000E0,1.00000000000000000E0),.UNSPECIFIED.);
#319=DEFINITIONAL_REPRESENTATION('',(#318),#157);
#320=PCURVE('',#70,#319);
#321=CARTESIAN_POINT('',(1.00000000000000000E0,1.00000000000000000E0));
#322=CARTESIAN_POINT('',(0.00000000000000000E0,1.00000000000000000E0));
#323=B_SPLINE_CURVE_WITH_KNOTS('',1,(#321,#322),.UNSPECIFIED.,.F.,.F.,(2,2),(0.00000000000000000E0,1.00000000000000000E0),.UNSPECIFIED.);
#324=DEFINITIONAL_REPRESENTATION('',(#323),#157);
#325=PCURVE('',#70,#324);
#326=CARTESIAN_POINT('',(0.00000000000000000E0,1.00000000000000000E0));
#327=CARTESIAN_POINT('',(0.00000000000000000E0,0.00000000000000000E0));
#328=B_SPLINE_CURVE_WITH_KNOTS('',1,(#326,#327),.UNSPECIFIED.,.F.,.F.,(2,2),(0.00000000000000000E0,1.00000000000000000E0),.UNSPECIFIED.);
#329=DEFINITIONAL_REPRESENTATION('',(#328),#157);
#330=PCURVE('',#70,#329);
#331=CARTESIAN_POINT('',(0.00000000000000000E0,0.00000000000000000E0));
#332=CARTESIAN_POINT('',(1.00000000000000000E0,0.00000000000000000E0));
#333=B_SPLINE_CURVE_WITH_KNOTS('',1,(#331,#332),.UNSPECIFIED.,.F.,.F.,(2,2),(0.00000000000000000E0,1.00000000000000000E0),.UNSPECIFIED.);
#334=DEFINITIONAL_REPRESENTATION('',(#333),#157);
#335=PCURVE('',#70,#334);
#336=CARTESIAN_POINT('',(0.00000000000000000E0,0.00000000000000000E0));
#337=CARTESIAN_POINT('',(1.00000000000000000E0,0.00000000000000000E0));
#338=B_SPLINE_CURVE_WITH_KNOTS('',1,(#336,#337),.UNSPECIFIED.,.F.,.F.,(2,2),(0.00000000000000000E0,1.00000000000000000E0),.UNSPECIFIED.);
#339=DEFINITIONAL_REPRESENTATION('',(#338),#157);
#340=PCURVE('',#77,#339);
#341=CARTESIAN_POINT('',(1.00000000000000000E0,0.00000000000000000E0));
#342=CARTESIAN_POINT('',(1.00000000000000000E0,1.00000000000000000E0));
#343=B_SPLINE_CURVE_WITH_KNOTS('',1,(#341,#342),.UNSPECIFIED.,.F.,.F.,(2,2),(0.00000000000000000E0,1.00000000000000000E0),.UNSPECIFIED.);
#344=DEFINITIONAL_REPRESENTATION('',(#343),#157);
#345=PCURVE('',#77,#344);
#346=CARTESIAN_POINT('',(1.00000000000000000E0,1.00000000000000000E0));
#347=CARTESIAN_POINT('',(0.00000000000000000E0,1.00000000000000000E0));
#348=B_SPLINE_CURVE_WITH_KNOTS('',1,(#346,#347),.UNSPECIFIED.,.F.,.F.,(2,2),(0.00000000000000000E0,1.00000000000000000E0),.UNSPECIFIED.);
#349=DEFINITIONAL_REPRESENTATION('',(#348),#157);
#350=PCURVE('',#77,#349);
#351=CARTESIAN_POINT('',(0.00000000000000000E0,1.00000000000000000E0));
#352=CARTESIAN_POINT('',(0.00000000000000000E0,0.00000000000000000E0));
#353=B_SPLINE_CURVE_WITH_KNOTS('',1,(#351,#352),.UNSPECIFIED.,.F.,.F.,(2,2),(0.00000000000000000E0,1.00000000000000000E0),.UNSPECIFIED.);
#354=DEFINITIONAL_REPRESENTATION('',(#353),#157);
#355=PCURVE('',#77,#354);
#356=CARTESIAN_POINT('',(0.00000000000000000E0,0.00000000000000000E0));
#357=CARTESIAN_POINT('',(1.00000000000000000E0,0.00000000000000000E0));
#358=B_SPLINE_CURVE_WITH_KNOTS('',1,(#356,#357),.UNSPECIFIED.,.F.,.F.,(2,2),(0.00000000000000000E0,1.00000000000000000E0),.UNSPECIFIED.);
#359=DEFINITIONAL_REPRESENTATION('',(#358),#157);
#360=PCURVE('',#87,#359);
#361=CARTESIAN_POINT('',(1.00000000000000000E0,0.00000000000000000E0));
#362=CARTESIAN_POINT('',(1.00000000000000000E0,1.00000000000000000E0));
#363=CARTESIAN_POINT('',(0.00000000000000000E0,1.00000000000000000E0));
#364=(BOUNDED_CURVE()B_SPLINE_CURVE(2,(#361,#362,#363),.UNSPECIFIED.,.F.,.F.)B_SPLINE_CURVE_WITH_KNOTS((3,3),(0.00000000000000000E0,1.00000000000000000E0),.UNSPECIFIED.)CURVE()GEOMETRIC_REPRESENTATION_ITEM()RATIONAL_B_SPLINE_CURVE((1.00000000000000000E0,7.07106781186547573E-1,1.00000000000000000E0))REPRESENTATION_ITEM(''));
#365=DEFINITIONAL_REPRESENTATION('',(#364),#157);
#366=PCURVE('',#87,#365);
#367=CARTESIAN_POINT('',(0.00000000000000000E0,1.00000000000000000E0));
#368=CARTESIAN_POINT('',(0.00000000000000000E0,0.00000000000000000E0));
#369=B_SPLINE_CURVE_WITH_KNOTS('',1,(#367,#368),.UNSPECIFIED.,.F.,.F.,(2,2),(0.00000000000000000E0,1.00000000000000000E0),.UNSPECIFIED.);
#370=DEFINITIONAL_REPRESENTATION('',(#369),#157);
#371=PCURVE('',#87,#370);
#372=SURFACE_CURVE('',#90,(#162,#229),.PCURVE_S1.);
#373=EDGE_CURVE('OSCAD_TOPO/3|edge|e:842568bdf1c5d7a3ce664791af60bfa4|42a3aca65656d8759a1f5286d2ba68c0b950a35bca842d6fddb873cd13cb317c',#2,#4,#372,.T.);
#374=SURFACE_CURVE('',#93,(#167,#295),.PCURVE_S1.);
#375=EDGE_CURVE('OSCAD_TOPO/3|edge|e:b261eae0fb3a25ca3a916e4778665e2f|7fce48ebea3607a7a749a105ccc9d0d9ee04b7f1ee7028e83a4bdc6c4cc80894',#4,#6,#374,.T.);
#376=SURFACE_CURVE('',#97,(#173,#300),.PCURVE_S1.);
#377=EDGE_CURVE('OSCAD_TOPO/3|edge|e:03c4100f85752753f5b2b6023951f929|20d30b4e2c37318c7c5b973ff81adb6f93337461a2efd0e63dfa1ac8e388e6b4',#8,#6,#376,.T.);
#378=SURFACE_CURVE('',#100,(#178,#260),.PCURVE_S1.);
#379=EDGE_CURVE('OSCAD_TOPO/3|edge|e:47fb854f09d85395ad4332b8dd4626ac|6aec786137b77671fd01d7129c77aa27b0ac2f2ecadc689554f979d6b59aea89',#10,#8,#378,.T.);
#380=SURFACE_CURVE('',#103,(#183,#234),.PCURVE_S1.);
#381=EDGE_CURVE('OSCAD_TOPO/3|edge|e:37f12f75427775a9823ce6ecd39b9b29|ea4e95b05fbb9db673a951259276198a4eda69f910c21a8c816aca60306dc49d',#2,#10,#380,.T.);
#382=SURFACE_CURVE('',#106,(#188,#250),.PCURVE_S1.);
#383=EDGE_CURVE('OSCAD_TOPO/3|edge|e:a93297436428c2786fd9d724e0c59afd|6dc2b49502d4c140a9710f3665fb1d377941aa78eeec433acf0705c0bb6259bd',#12,#14,#382,.T.);
#384=SURFACE_CURVE('',#109,(#193,#330),.PCURVE_S1.);
#385=EDGE_CURVE('OSCAD_TOPO/3|edge|e:2c3dd61ca27672c5029fd2ba38b534cd|13c27d231fc3d729b84233c3ebf815b49d468c2f6568300f40bfa41ea51b9a3e',#16,#14,#384,.T.);
#386=SURFACE_CURVE('',#112,(#198,#345),.PCURVE_S1.);
#387=EDGE_CURVE('OSCAD_TOPO/3|edge|e:fa022949a235d4074f029fe20bf23ca0|71583b76fe32de46ec7c52fc31d80a780750fb3e6eb9c0a5ffafcb82e4a5c9f2',#16,#18,#386,.T.);
#388=SURFACE_CURVE('',#115,(#203,#213),.PCURVE_S1.);
#389=EDGE_CURVE('OSCAD_TOPO/3|edge|e:585d05373b815dc56482549bd0be65d4|7b370c02cbe0a8f80022e0ed641db4a8523a1a3a9723484add3e6d69c55dca9b',#12,#18,#388,.T.);
#390=SURFACE_CURVE('',#118,(#208,#255),.PCURVE_S1.);
#391=EDGE_CURVE('OSCAD_TOPO/3|edge|e:de36e8dc07da06b5de187022c71b9217|cd8c9408c5ac02f77c8d677e13db27daace14f402c51a1ba5ee08ae7abf8811f',#2,#12,#390,.T.);
#392=SURFACE_CURVE('',#122,(#219,#340),.PCURVE_S1.);
#393=EDGE_CURVE('OSCAD_TOPO/3|edge|e:05102e812471383eca893b31105fc954|8a5900a699eebb69195c994de4e5cabe4f2cea567b74d08bac12db83ba2d8439',#20,#18,#392,.T.);
#394=SURFACE_CURVE('',#125,(#224,#280),.PCURVE_S1.);
#395=EDGE_CURVE('OSCAD_TOPO/3|edge|e:d4afaa474b29312908a98497dddd3ffd|1430a317ca0c783404630981fb1aaf450a4049298a401bc0f09a170091378d25',#4,#20,#394,.T.);
#396=SURFACE_CURVE('',#128,(#239,#275),.PCURVE_S1.);
#397=EDGE_CURVE('OSCAD_TOPO/3|edge|e:4cd2a185cc131ff4ad85cca72fc478ad|d6e6bed330748c381357b9c30817ea2515d5ebbf9722deaf5cf76d9dc31c244f',#10,#22,#396,.T.);
#398=SURFACE_CURVE('',#132,(#245,#335),.PCURVE_S1.);
#399=EDGE_CURVE('OSCAD_TOPO/3|edge|e:2a947e9bc8ac2f751504531f4a605792|e19934f61b0af9c044dd99656881c28705a4bffb24c03f2c0f754086d0dd5abf',#22,#14,#398,.T.);
#400=SURFACE_CURVE('',#135,(#265,#315),.PCURVE_S1.);
#401=EDGE_CURVE('OSCAD_TOPO/3|edge|e:fe79fa8a02c9ec96de9737327c65bd4a|6e0b4401ddb98d3ef96d47644ed9fee1d72d9d3a97a502120278ebc57dc40246',#8,#24,#400,.T.);
#402=SURFACE_CURVE('',#138,(#270,#320),.PCURVE_S1.);
#403=EDGE_CURVE('OSCAD_TOPO/3|edge|e:af08afaaea886cbb2feb90a23a386079|e9d8afaeb5f3c783a7c353c2014741e578b68021f7ea71b94d728ad40ba0bbd3',#24,#22,#402,.T.);
#404=SURFACE_CURVE('',#141,(#285,#355),.PCURVE_S1.);
#405=EDGE_CURVE('OSCAD_TOPO/3|edge|e:01fa7673528e56438df4b5d959c7b4c4|6972142917b7c0373fe1793d211fcec2c9fc65cc6ca64fd3573ff6b265634443',#26,#20,#404,.T.);
#406=SURFACE_CURVE('',#144,(#290,#305),.PCURVE_S1.);
#407=EDGE_CURVE('OSCAD_TOPO/3|edge|e:9391226a42047e147a19b72fdf59108a|9f72a29bbe2bf1bad29bcf824c6d3c4d9ec8165821e652e257463fd72d1238ed',#6,#26,#406,.T.);
#408=SURFACE_CURVE('',#148,(#310,#366),.PCURVE_S1.);
#409=EDGE_CURVE('OSCAD_TOPO/3|edge|e:9cf077f8b8f4794ced34c5862bf8cb84|05ea50748cdb3e3a6f017e5e8509b916b9d1e07f3923e7686658cd1ccdb0f8fd',#24,#26,#408,.T.);
#410=SURFACE_CURVE('',#152,(#325,#360),.PCURVE_S1.);
#411=EDGE_CURVE('OSCAD_TOPO/3|edge|e:08021a83693a1722f49feb5060c4f6f0|96bc6dbf443f7ee92f76ee991009fc0414407e0360b561575efee9db3b6e1f44',#24,#16,#410,.T.);
#412=SURFACE_CURVE('',#156,(#350,#371),.PCURVE_S1.);
#413=EDGE_CURVE('OSCAD_TOPO/3|edge|e:e684ef1737fddf6cc523ce5c9f8b8807|ac2f6e2408be7563677d2817b850c8910bb71c229a6782415889c3057ea4e87e',#26,#16,#412,.T.);
#414=ORIENTED_EDGE('',*,*,#373,.T.);
#415=ORIENTED_EDGE('',*,*,#375,.T.);
#416=ORIENTED_EDGE('',*,*,#377,.F.);
#417=ORIENTED_EDGE('',*,*,#379,.F.);
#418=ORIENTED_EDGE('',*,*,#381,.F.);
#419=EDGE_LOOP('OSCAD_TOPO/3|loop|l:81c89d6120374bca856bd8bfacf75df4|c001e5c65617e0c941bd33691651d8a26a6f24b370966ce5dfda035898ccc6a1',(#414,#415,#416,#417,#418));
#420=ORIENTED_EDGE('',*,*,#383,.T.);
#421=ORIENTED_EDGE('',*,*,#385,.F.);
#422=ORIENTED_EDGE('',*,*,#387,.T.);
#423=ORIENTED_EDGE('',*,*,#389,.F.);
#424=EDGE_LOOP('OSCAD_TOPO/3|loop|l:2d60fde6eb956197bbc89d6a60748ea8|8e28ac08b3a344d8ed084364cb517b496a71e4f43f10300ab686abb67b09f580',(#420,#421,#422,#423));
#425=ORIENTED_EDGE('',*,*,#391,.T.);
#426=ORIENTED_EDGE('',*,*,#389,.T.);
#427=ORIENTED_EDGE('',*,*,#393,.F.);
#428=ORIENTED_EDGE('',*,*,#395,.F.);
#429=ORIENTED_EDGE('',*,*,#373,.F.);
#430=EDGE_LOOP('OSCAD_TOPO/3|loop|l:d9c6b637b58c7e1bdf7e97e2bf5f7c0f|3195b9bd4acc66b9f827b221fee8264734525d0e1ef1b0562101b0b97fa2d273',(#425,#426,#427,#428,#429));
#431=ORIENTED_EDGE('',*,*,#381,.T.);
#432=ORIENTED_EDGE('',*,*,#397,.T.);
#433=ORIENTED_EDGE('',*,*,#399,.T.);
#434=ORIENTED_EDGE('',*,*,#383,.F.);
#435=ORIENTED_EDGE('',*,*,#391,.F.);
#436=EDGE_LOOP('OSCAD_TOPO/3|loop|l:7718a4f93b5a2d196bfc91ae60462481|947523990f00b4d58f83a7e56840e6b55e0b4045e6c8a97bbac4aae8f5cd00ca',(#431,#432,#433,#434,#435));
#437=ORIENTED_EDGE('',*,*,#379,.T.);
#438=ORIENTED_EDGE('',*,*,#401,.T.);
#439=ORIENTED_EDGE('',*,*,#403,.T.);
#440=ORIENTED_EDGE('',*,*,#397,.F.);
#441=EDGE_LOOP('OSCAD_TOPO/3|loop|l:01b8d58c902aaf64e20643482956d49a|a688ab708adaa087ec61d6cf08b41f78cf0095205248dcc946f4c277fb04e9fe',(#437,#438,#439,#440));
#442=ORIENTED_EDGE('',*,*,#395,.T.);
#443=ORIENTED_EDGE('',*,*,#405,.F.);
#444=ORIENTED_EDGE('',*,*,#407,.F.);
#445=ORIENTED_EDGE('',*,*,#375,.F.);
#446=EDGE_LOOP('OSCAD_TOPO/3|loop|l:590dd62c52c4e878503160d30599a202|993502f1a4d6bf067b66300165d68f389b665ec22f0d10d434a0af706c3a62f5',(#442,#443,#444,#445));
#447=ORIENTED_EDGE('',*,*,#377,.T.);
#448=ORIENTED_EDGE('',*,*,#407,.T.);
#449=ORIENTED_EDGE('',*,*,#409,.F.);
#450=ORIENTED_EDGE('',*,*,#401,.F.);
#451=EDGE_LOOP('OSCAD_TOPO/3|loop|l:f2be5d4f69f32897761f9042f074fc4d|39a4a333ecda088f1173068908959eca1a302c8fd180339b6cfb4a7af4ac6cc6',(#447,#448,#449,#450));
#452=ORIENTED_EDGE('',*,*,#403,.F.);
#453=ORIENTED_EDGE('',*,*,#411,.T.);
#454=ORIENTED_EDGE('',*,*,#385,.T.);
#455=ORIENTED_EDGE('',*,*,#399,.F.);
#456=EDGE_LOOP('OSCAD_TOPO/3|loop|l:18778fbc0fee492d0f14ff4500bea492|b8c0ba1d44daea0a556c46103588fdbc3cb40b661cc3bed0581eddb9ee181e63',(#452,#453,#454,#455));
#457=ORIENTED_EDGE('',*,*,#393,.T.);
#458=ORIENTED_EDGE('',*,*,#387,.F.);
#459=ORIENTED_EDGE('',*,*,#413,.F.);
#460=ORIENTED_EDGE('',*,*,#405,.T.);
#461=EDGE_LOOP('OSCAD_TOPO/3|loop|l:3a334a70a67269d47e28bfea36f09225|ca74f021875e89d427d349ca24f4d91614b66c0c299777037e20cf4e23f9d1ee',(#457,#458,#459,#460));
#462=ORIENTED_EDGE('',*,*,#411,.F.);
#463=ORIENTED_EDGE('',*,*,#409,.T.);
#464=ORIENTED_EDGE('',*,*,#413,.T.);
#465=EDGE_LOOP('OSCAD_TOPO/3|loop|l:1e9e585e04ceaafc0b72830b9cf61f50|609a6dfe2cb7fa2084bdea7e19376ddd954536246ddeae7bdc11dfca419f074f',(#462,#463,#464));
#466=FACE_OUTER_BOUND('',#419,.T.);
#467=ADVANCED_FACE('OSCAD_TOPO/3|face|f:ced9ae0d2f90dd5c877510436c1316d4|74b45bc43584eb92777eecc2f7a60d2f6368b0a66c641804a52fb6f67fcd7d53',(#466),#31,.T.);
#468=FACE_OUTER_BOUND('',#424,.T.);
#469=ADVANCED_FACE('OSCAD_TOPO/3|face|f:0453a57aad148b624e1fffb6cec154f7|29d0c27ee3ca2c33eaba8c88baf06f66aab3300fdc86ad18dd99ed99bed972ac',(#468),#36,.T.);
#470=FACE_OUTER_BOUND('',#430,.T.);
#471=ADVANCED_FACE('OSCAD_TOPO/3|face|f:44544ed4c7b796af9294217787318fd5|20fcc9f984a17bcd153a9c20d2398dce8fdc5f2dff0857ab1ffa35ae27765a6f',(#470),#41,.T.);
#472=FACE_OUTER_BOUND('',#436,.T.);
#473=ADVANCED_FACE('OSCAD_TOPO/3|face|f:e14009c5030972aec9e2e04a8f9f7f5d|eb65c2a421159f24fa27d8539f670347a8636930befdba261cdd006f6e647be8',(#472),#46,.T.);
#474=FACE_OUTER_BOUND('',#441,.T.);
#475=ADVANCED_FACE('OSCAD_TOPO/3|face|f:540966673701ff234d95a4401955271c|e904bff62d487f760b52bed2065f15d4874a3f79a1fefc9cc7869613ab237c3f',(#474),#51,.T.);
#476=FACE_OUTER_BOUND('',#446,.T.);
#477=ADVANCED_FACE('OSCAD_TOPO/3|face|f:48c5879838024dd1b2d4bd7ae22c63d8|0c1b01b680299cfb38cdf3607f800d78d562b15f5085a43824e5bca5cf6d72f2',(#476),#56,.T.);
#478=FACE_OUTER_BOUND('',#451,.T.);
#479=ADVANCED_FACE('OSCAD_TOPO/3|face|f:2ad7506d664bab104daf1ecb2bd2f55c|6a6ba97d0f270ce5926ae4f44f37ac61c65a1fbab677b8beee7330c2de2b2bfa',(#478),#63,.T.);
#480=FACE_OUTER_BOUND('',#456,.T.);
#481=ADVANCED_FACE('OSCAD_TOPO/3|face|f:3f2617223433499b0fa2d8baeefc93c9|103ab3a639c40e322c0080adb26a38cbd7400450c56d3a3609a0f2c9afc40af0',(#480),#70,.T.);
#482=FACE_OUTER_BOUND('',#461,.T.);
#483=ADVANCED_FACE('OSCAD_TOPO/3|face|f:232785ddee604a1bd75894a0a2d586db|31e5e0be8552955a645fb7f5588fb8f88e2911954d30b0c1ea553f3efe98c3ad',(#482),#77,.T.);
#484=FACE_OUTER_BOUND('',#465,.T.);
#485=ADVANCED_FACE('OSCAD_TOPO/3|face|f:36a84cfcb389147ad127dc613c8744e7|34f168ec461603f7b80fa08d9756c5c069bf486d7d534df5ca346ae66c50ce24',(#484),#87,.T.);
#486=CLOSED_SHELL('OSCAD_TOPO/3|shell|s:f3ad0e4a0b0ad22f2a99e058c880bdec|3f36e55f265ff188dff2a40b01f859437d3840694e77386666a5c76b60314465',(#467,#469,#471,#473,#475,#477,#479,#481,#483,#485));
#487=MANIFOLD_SOLID_BREP('OSCAD_TOPO/3|body|b:97b4eab14c6b9b5013bebd17f11ff89a|ef0027ef625ba8ade4d005058f2bc33c1e5c43c67dea9cacf9bb9883345a61b9',#486);
#488=(LENGTH_UNIT()NAMED_UNIT(*)SI_UNIT(.MILLI.,.METRE.));
#489=UNCERTAINTY_MEASURE_WITH_UNIT(LENGTH_MEASURE(9.99999999999999955E-8),#488,'distance_accuracy_value','');
#490=(GEOMETRIC_REPRESENTATION_CONTEXT(3)GLOBAL_UNCERTAINTY_ASSIGNED_CONTEXT((#489))GLOBAL_UNIT_ASSIGNED_CONTEXT((#488))REPRESENTATION_CONTEXT('','3D'));
#491=ADVANCED_BREP_SHAPE_REPRESENTATION('',(#487),#490);
#492=APPLICATION_CONTEXT('managed model based 3d engineering');
#493=PRODUCT_CONTEXT('',#492,'mechanical');
#494=PRODUCT('model','model','',(#493));
#495=PRODUCT_DEFINITION_FORMATION('1','',#494);
#496=PRODUCT_DEFINITION_CONTEXT('part definition',#492,'design');
#497=PRODUCT_DEFINITION('design','',#495,#496);
#498=PRODUCT_DEFINITION_SHAPE('','',#497);
#499=SHAPE_DEFINITION_REPRESENTATION(#498,#491);
ENDSEC;
END-ISO-10303-21;
