ISO-10303-21;
HEADER;
FILE_DESCRIPTION(('OpenSCAD Viewer retained AP242 B-rep'),'2;1');
FILE_NAME('model.step','',(''),(''),'OpenSCAD Viewer','OpenSCAD Viewer','');
FILE_SCHEMA(('AP242_MANAGED_MODEL_BASED_3D_ENGINEERING_MIM_LF'));
ENDSEC;
DATA;
#1=CARTESIAN_POINT('',(-7.00000000000000000E0,1.10000000000000000E1,-2.00000000000000000E0));
#2=VERTEX_POINT('OSCAD_TOPO/3|vertex|v:6b761cb1ffd839de853759377cd4617c|2137e0e805d49a2ec5eb83cc7e84af47cec680a956a1088b50b90be81fc98fe0',#1);
#3=CARTESIAN_POINT('',(3.00000000000000000E0,1.10000000000000000E1,-2.00000000000000000E0));
#4=VERTEX_POINT('OSCAD_TOPO/3|vertex|v:c6fa78cb18d53e517c4239f8ce2c936e|ea08d262c4e4fcb66a0ad3cea92a5c3b2324de8a3acbcd18269cab4473c5fa5d',#3);
#5=CARTESIAN_POINT('',(3.00000000000000000E0,3.25000000000000000E0,-2.00000000000000000E0));
#6=VERTEX_POINT('OSCAD_TOPO/3|vertex|v:0369fa7aec014bfbb3666691a874a8b7|b49145b0e19b42c42b5b0e4abd5f0cfd5c68918400d35cfd188827ca99f3b6b2',#5);
#7=CARTESIAN_POINT('',(2.75000000000000000E0,3.00000000000000000E0,-2.00000000000000000E0));
#8=VERTEX_POINT('OSCAD_TOPO/3|vertex|v:109e053100fed497563f8e4f357fa9f5|a7faaafb6e620e0a61e12531ca2b1fc1498c189ee3524ebecd4aa78b11683305',#7);
#9=CARTESIAN_POINT('',(-7.00000000000000000E0,3.00000000000000000E0,-2.00000000000000000E0));
#10=VERTEX_POINT('OSCAD_TOPO/3|vertex|v:e804411634460ae3462dd741d68271ac|1d1692c7474faa2ccc37a4d2bc73f5c22dd22581511251caecbb7bda4304016f',#9);
#11=CARTESIAN_POINT('',(-7.00000000000000000E0,1.10000000000000000E1,4.00000000000000000E0));
#12=VERTEX_POINT('OSCAD_TOPO/3|vertex|v:4cb20bc6570e7db143224a09414d50bb|909fcabf7d2bb7c0eb177d46addcaa99b4115e73e4516a91e9014decb7bc10ae',#11);
#13=CARTESIAN_POINT('',(-7.00000000000000000E0,3.25000000000000000E0,4.00000000000000000E0));
#14=VERTEX_POINT('OSCAD_TOPO/3|vertex|v:5983f49d7c1ae49018852f15e1d5f853|36ae3564cc16c67d75dacce2b11c9b38ad6d0e8b3f0bee282ba1a2c62d97c424',#13);
#15=CARTESIAN_POINT('',(2.75000000000000000E0,3.25000000000000000E0,4.00000000000000000E0));
#16=VERTEX_POINT('OSCAD_TOPO/3|vertex|v:aff03899c70a5f916b97d5af241c80dd|399d60a8496e1319a0870a6729051f80932376f58021cdcf9be614b5977683ac',#15);
#17=CARTESIAN_POINT('',(2.75000000000000000E0,1.10000000000000000E1,4.00000000000000000E0));
#18=VERTEX_POINT('OSCAD_TOPO/3|vertex|v:f5983d512fb692896062b3f4759fcefb|1f964f62156e8afcd01cfafcef0472ddb597f3f8c0afdc56b1ae81b31659da7e',#17);
#19=CARTESIAN_POINT('',(-7.00000000000000000E0,3.00000000000000000E0,3.75000000000000000E0));
#20=VERTEX_POINT('OSCAD_TOPO/3|vertex|v:d1af7206637214ffe988be7d680cda4f|4edf4516db3f3d3567202c9098a75ffa97314ba04e7f2770c6d9f207ab505f67',#19);
#21=CARTESIAN_POINT('',(3.00000000000000000E0,1.10000000000000000E1,3.75000000000000000E0));
#22=VERTEX_POINT('OSCAD_TOPO/3|vertex|v:a6952eca2538d5e292b133e76735f742|d83384b831b651e6f77774073c35c649a0b003701d58551fa9bc20ab6716893d',#21);
#23=CARTESIAN_POINT('',(3.00000000000000000E0,3.25000000000000000E0,3.75000000000000000E0));
#24=VERTEX_POINT('OSCAD_TOPO/3|vertex|v:a3905be481f873608fbe91bb8d7b56f2|346243b6c8bfc53caaa02dd4987065c07b6a27a34f5120be6fe59b688505edec',#23);
#25=CARTESIAN_POINT('',(2.75000000000000000E0,3.00000000000000000E0,3.75000000000000000E0));
#26=VERTEX_POINT('OSCAD_TOPO/3|vertex|v:2c7ac5ae3ac3d378dbb0f61f2e249d7a|0e4ac52f4f7cc9ec07b991bf21cf54ec498ca58c836dd097a06ecc380d050e88',#25);
#27=CARTESIAN_POINT('',(-7.00000000000000000E0,1.10000000000000000E1,-2.00000000000000000E0));
#28=CARTESIAN_POINT('',(-7.00000000000000000E0,3.00000000000000000E0,-2.00000000000000000E0));
#29=CARTESIAN_POINT('',(3.00000000000000000E0,1.10000000000000000E1,-2.00000000000000000E0));
#30=CARTESIAN_POINT('',(3.00000000000000000E0,3.00000000000000000E0,-2.00000000000000000E0));
#31=B_SPLINE_SURFACE_WITH_KNOTS('',1,1,((#27,#28),(#29,#30)),.UNSPECIFIED.,.F.,.F.,.F.,(2,2),(2,2),(0.00000000000000000E0,1.00000000000000000E0),(0.00000000000000000E0,1.00000000000000000E0),.UNSPECIFIED.);
#32=CARTESIAN_POINT('',(3.00000000000000000E0,1.10000000000000000E1,4.00000000000000000E0));
#33=CARTESIAN_POINT('',(3.00000000000000000E0,3.00000000000000000E0,4.00000000000000000E0));
#34=CARTESIAN_POINT('',(-7.00000000000000000E0,1.10000000000000000E1,4.00000000000000000E0));
#35=CARTESIAN_POINT('',(-7.00000000000000000E0,3.00000000000000000E0,4.00000000000000000E0));
#36=B_SPLINE_SURFACE_WITH_KNOTS('',1,1,((#32,#33),(#34,#35)),.UNSPECIFIED.,.F.,.F.,.F.,(2,2),(2,2),(0.00000000000000000E0,1.00000000000000000E0),(0.00000000000000000E0,1.00000000000000000E0),.UNSPECIFIED.);
#37=CARTESIAN_POINT('',(-7.00000000000000000E0,1.10000000000000000E1,-2.00000000000000000E0));
#38=CARTESIAN_POINT('',(-7.00000000000000000E0,1.10000000000000000E1,4.00000000000000000E0));
#39=CARTESIAN_POINT('',(-7.00000000000000000E0,3.00000000000000000E0,-2.00000000000000000E0));
#40=CARTESIAN_POINT('',(-7.00000000000000000E0,3.00000000000000000E0,4.00000000000000000E0));
#41=B_SPLINE_SURFACE_WITH_KNOTS('',1,1,((#37,#38),(#39,#40)),.UNSPECIFIED.,.F.,.F.,.F.,(2,2),(2,2),(0.00000000000000000E0,1.00000000000000000E0),(0.00000000000000000E0,1.00000000000000000E0),.UNSPECIFIED.);
#42=CARTESIAN_POINT('',(3.00000000000000000E0,1.10000000000000000E1,-2.00000000000000000E0));
#43=CARTESIAN_POINT('',(3.00000000000000000E0,1.10000000000000000E1,4.00000000000000000E0));
#44=CARTESIAN_POINT('',(-7.00000000000000000E0,1.10000000000000000E1,-2.00000000000000000E0));
#45=CARTESIAN_POINT('',(-7.00000000000000000E0,1.10000000000000000E1,4.00000000000000000E0));
#46=B_SPLINE_SURFACE_WITH_KNOTS('',1,1,((#42,#43),(#44,#45)),.UNSPECIFIED.,.F.,.F.,.F.,(2,2),(2,2),(0.00000000000000000E0,1.00000000000000000E0),(0.00000000000000000E0,1.00000000000000000E0),.UNSPECIFIED.);
#47=CARTESIAN_POINT('',(3.00000000000000000E0,3.00000000000000000E0,-2.00000000000000000E0));
#48=CARTESIAN_POINT('',(3.00000000000000000E0,3.00000000000000000E0,4.00000000000000000E0));
#49=CARTESIAN_POINT('',(3.00000000000000000E0,1.10000000000000000E1,-2.00000000000000000E0));
#50=CARTESIAN_POINT('',(3.00000000000000000E0,1.10000000000000000E1,4.00000000000000000E0));
#51=B_SPLINE_SURFACE_WITH_KNOTS('',1,1,((#47,#48),(#49,#50)),.UNSPECIFIED.,.F.,.F.,.F.,(2,2),(2,2),(0.00000000000000000E0,1.00000000000000000E0),(0.00000000000000000E0,1.00000000000000000E0),.UNSPECIFIED.);
#52=CARTESIAN_POINT('',(-7.00000000000000000E0,3.00000000000000000E0,-2.00000000000000000E0));
#53=CARTESIAN_POINT('',(-7.00000000000000000E0,3.00000000000000000E0,4.00000000000000000E0));
#54=CARTESIAN_POINT('',(3.00000000000000000E0,3.00000000000000000E0,-2.00000000000000000E0));
#55=CARTESIAN_POINT('',(3.00000000000000000E0,3.00000000000000000E0,4.00000000000000000E0));
#56=B_SPLINE_SURFACE_WITH_KNOTS('',1,1,((#52,#53),(#54,#55)),.UNSPECIFIED.,.F.,.F.,.F.,(2,2),(2,2),(0.00000000000000000E0,1.00000000000000000E0),(0.00000000000000000E0,1.00000000000000000E0),.UNSPECIFIED.);
#57=CARTESIAN_POINT('',(2.75000000000000000E0,3.00000000000000000E0,-2.00000000000000000E0));
#58=CARTESIAN_POINT('',(2.75000000000000000E0,3.00000000000000000E0,3.75000000000000000E0));
#59=CARTESIAN_POINT('',(3.00000000000000000E0,3.00000000000000000E0,-2.00000000000000000E0));
#60=CARTESIAN_POINT('',(3.00000000000000000E0,3.00000000000000000E0,3.75000000000000000E0));
#61=CARTESIAN_POINT('',(3.00000000000000000E0,3.25000000000000000E0,-2.00000000000000000E0));
#62=CARTESIAN_POINT('',(3.00000000000000000E0,3.25000000000000000E0,3.75000000000000000E0));
#63=(BOUNDED_SURFACE()B_SPLINE_SURFACE(2,1,((#57,#58),(#59,#60),(#61,#62)),.UNSPECIFIED.,.F.,.F.,.F.)B_SPLINE_SURFACE_WITH_KNOTS((3,3),(2,2),(0.00000000000000000E0,1.00000000000000000E0),(0.00000000000000000E0,1.00000000000000000E0),.UNSPECIFIED.)GEOMETRIC_REPRESENTATION_ITEM()RATIONAL_B_SPLINE_SURFACE(((1.00000000000000000E0,1.00000000000000000E0),(7.07106781186547573E-1,7.07106781186547573E-1),(1.00000000000000000E0,1.00000000000000000E0)))REPRESENTATION_ITEM('')SURFACE());
#64=CARTESIAN_POINT('',(3.00000000000000000E0,1.10000000000000000E1,3.75000000000000000E0));
#65=CARTESIAN_POINT('',(3.00000000000000000E0,3.25000000000000000E0,3.75000000000000000E0));
#66=CARTESIAN_POINT('',(3.00000000000000000E0,1.10000000000000000E1,4.00000000000000000E0));
#67=CARTESIAN_POINT('',(3.00000000000000000E0,3.25000000000000000E0,4.00000000000000000E0));
#68=CARTESIAN_POINT('',(2.75000000000000000E0,1.10000000000000000E1,4.00000000000000000E0));
#69=CARTESIAN_POINT('',(2.75000000000000000E0,3.25000000000000000E0,4.00000000000000000E0));
#70=(BOUNDED_SURFACE()B_SPLINE_SURFACE(2,1,((#64,#65),(#66,#67),(#68,#69)),.UNSPECIFIED.,.F.,.F.,.F.)B_SPLINE_SURFACE_WITH_KNOTS((3,3),(2,2),(0.00000000000000000E0,1.00000000000000000E0),(0.00000000000000000E0,1.00000000000000000E0),.UNSPECIFIED.)GEOMETRIC_REPRESENTATION_ITEM()RATIONAL_B_SPLINE_SURFACE(((2.00000000000000000E0,2.00000000000000000E0),(1.00000000000000000E0,1.00000000000000000E0),(1.00000000000000000E0,1.00000000000000000E0)))REPRESENTATION_ITEM('')SURFACE());
#71=CARTESIAN_POINT('',(-7.00000000000000000E0,3.25000000000000000E0,4.00000000000000000E0));
#72=CARTESIAN_POINT('',(2.75000000000000000E0,3.25000000000000000E0,4.00000000000000000E0));
#73=CARTESIAN_POINT('',(-7.00000000000000000E0,3.00000000000000000E0,4.00000000000000000E0));
#74=CARTESIAN_POINT('',(2.75000000000000000E0,3.00000000000000000E0,4.00000000000000000E0));
#75=CARTESIAN_POINT('',(-7.00000000000000000E0,3.00000000000000000E0,3.75000000000000000E0));
#76=CARTESIAN_POINT('',(2.75000000000000000E0,3.00000000000000000E0,3.75000000000000000E0));
#77=(BOUNDED_SURFACE()B_SPLINE_SURFACE(2,1,((#71,#72),(#73,#74),(#75,#76)),.UNSPECIFIED.,.F.,.F.,.F.)B_SPLINE_SURFACE_WITH_KNOTS((3,3),(2,2),(0.00000000000000000E0,1.00000000000000000E0),(0.00000000000000000E0,1.00000000000000000E0),.UNSPECIFIED.)GEOMETRIC_REPRESENTATION_ITEM()RATIONAL_B_SPLINE_SURFACE(((1.00000000000000000E0,1.00000000000000000E0),(1.00000000000000000E0,1.00000000000000000E0),(2.00000000000000000E0,2.00000000000000000E0)))REPRESENTATION_ITEM('')SURFACE());
#78=CARTESIAN_POINT('',(3.00000000000000000E0,3.25000000000000000E0,3.75000000000000000E0));
#79=CARTESIAN_POINT('',(3.00000000000000000E0,3.12500000000000000E0,3.75000000000000000E0));
#80=CARTESIAN_POINT('',(2.91666666666666652E0,3.08333333333333393E0,3.66666666666666652E0));
#81=CARTESIAN_POINT('',(3.00000000000000000E0,3.25000000000000000E0,4.00000000000000000E0));
#82=CARTESIAN_POINT('',(3.00000000000000000E0,3.00000000000000000E0,4.00000000000000000E0));
#83=CARTESIAN_POINT('',(2.87500000000000000E0,3.00000000000000000E0,3.75000000000000000E0));
#84=CARTESIAN_POINT('',(2.75000000000000000E0,3.25000000000000000E0,4.00000000000000000E0));
#85=CARTESIAN_POINT('',(2.75000000000000000E0,3.00000000000000000E0,4.00000000000000000E0));
#86=CARTESIAN_POINT('',(2.75000000000000000E0,3.00000000000000000E0,3.75000000000000000E0));
#87=(BOUNDED_SURFACE()B_SPLINE_SURFACE(2,2,((#78,#79,#80),(#81,#82,#83),(#84,#85,#86)),.UNSPECIFIED.,.F.,.F.,.F.)B_SPLINE_SURFACE_WITH_KNOTS((3,3),(3,3),(0.00000000000000000E0,1.00000000000000000E0),(0.00000000000000000E0,1.00000000000000000E0),.UNSPECIFIED.)GEOMETRIC_REPRESENTATION_ITEM()RATIONAL_B_SPLINE_SURFACE(((2.00000000000000000E0,2.00000000000000000E0,3.00000000000000000E0),(1.00000000000000000E0,1.00000000000000000E0,2.00000000000000000E0),(1.00000000000000000E0,1.00000000000000000E0,2.00000000000000000E0)))REPRESENTATION_ITEM('')SURFACE());
#88=CARTESIAN_POINT('',(-7.00000000000000000E0,1.10000000000000000E1,-2.00000000000000000E0));
#89=CARTESIAN_POINT('',(3.00000000000000000E0,1.10000000000000000E1,-2.00000000000000000E0));
#90=B_SPLINE_CURVE_WITH_KNOTS('',1,(#88,#89),.UNSPECIFIED.,.F.,.F.,(2,2),(0.00000000000000000E0,1.00000000000000000E0),.UNSPECIFIED.);
#91=CARTESIAN_POINT('',(3.00000000000000000E0,1.10000000000000000E1,-2.00000000000000000E0));
#92=CARTESIAN_POINT('',(3.00000000000000000E0,3.25000000000000000E0,-2.00000000000000000E0));
#93=B_SPLINE_CURVE_WITH_KNOTS('',1,(#91,#92),.UNSPECIFIED.,.F.,.F.,(2,2),(0.00000000000000000E0,1.00000000000000000E0),.UNSPECIFIED.);
#94=CARTESIAN_POINT('',(3.00000000000000000E0,3.25000000000000000E0,-2.00000000000000000E0));
#95=CARTESIAN_POINT('',(3.00000000000000000E0,3.00000000000000000E0,-2.00000000000000000E0));
#96=CARTESIAN_POINT('',(2.75000000000000000E0,3.00000000000000000E0,-2.00000000000000000E0));
#97=(BOUNDED_CURVE()B_SPLINE_CURVE(2,(#94,#95,#96),.UNSPECIFIED.,.F.,.F.)B_SPLINE_CURVE_WITH_KNOTS((3,3),(0.00000000000000000E0,1.00000000000000000E0),.UNSPECIFIED.)CURVE()GEOMETRIC_REPRESENTATION_ITEM()RATIONAL_B_SPLINE_CURVE((1.00000000000000000E0,7.07106781186547573E-1,1.00000000000000000E0))REPRESENTATION_ITEM(''));
#98=CARTESIAN_POINT('',(-7.00000000000000000E0,3.00000000000000000E0,-2.00000000000000000E0));
#99=CARTESIAN_POINT('',(2.75000000000000000E0,3.00000000000000000E0,-2.00000000000000000E0));
#100=B_SPLINE_CURVE_WITH_KNOTS('',1,(#98,#99),.UNSPECIFIED.,.F.,.F.,(2,2),(0.00000000000000000E0,1.00000000000000000E0),.UNSPECIFIED.);
#101=CARTESIAN_POINT('',(-7.00000000000000000E0,1.10000000000000000E1,-2.00000000000000000E0));
#102=CARTESIAN_POINT('',(-7.00000000000000000E0,3.00000000000000000E0,-2.00000000000000000E0));
#103=B_SPLINE_CURVE_WITH_KNOTS('',1,(#101,#102),.UNSPECIFIED.,.F.,.F.,(2,2),(0.00000000000000000E0,1.00000000000000000E0),.UNSPECIFIED.);
#104=CARTESIAN_POINT('',(-7.00000000000000000E0,1.10000000000000000E1,4.00000000000000000E0));
#105=CARTESIAN_POINT('',(-7.00000000000000000E0,3.25000000000000000E0,4.00000000000000000E0));
#106=B_SPLINE_CURVE_WITH_KNOTS('',1,(#104,#105),.UNSPECIFIED.,.F.,.F.,(2,2),(0.00000000000000000E0,1.00000000000000000E0),.UNSPECIFIED.);
#107=CARTESIAN_POINT('',(2.75000000000000000E0,3.25000000000000000E0,4.00000000000000000E0));
#108=CARTESIAN_POINT('',(-7.00000000000000000E0,3.25000000000000000E0,4.00000000000000000E0));
#109=B_SPLINE_CURVE_WITH_KNOTS('',1,(#107,#108),.UNSPECIFIED.,.F.,.F.,(2,2),(0.00000000000000000E0,1.00000000000000000E0),.UNSPECIFIED.);
#110=CARTESIAN_POINT('',(2.75000000000000000E0,3.25000000000000000E0,4.00000000000000000E0));
#111=CARTESIAN_POINT('',(2.75000000000000000E0,1.10000000000000000E1,4.00000000000000000E0));
#112=B_SPLINE_CURVE_WITH_KNOTS('',1,(#110,#111),.UNSPECIFIED.,.F.,.F.,(2,2),(0.00000000000000000E0,1.00000000000000000E0),.UNSPECIFIED.);
#113=CARTESIAN_POINT('',(-7.00000000000000000E0,1.10000000000000000E1,4.00000000000000000E0));
#114=CARTESIAN_POINT('',(2.75000000000000000E0,1.10000000000000000E1,4.00000000000000000E0));
#115=B_SPLINE_CURVE_WITH_KNOTS('',1,(#113,#114),.UNSPECIFIED.,.F.,.F.,(2,2),(0.00000000000000000E0,1.00000000000000000E0),.UNSPECIFIED.);
#116=CARTESIAN_POINT('',(-7.00000000000000000E0,3.00000000000000000E0,-2.00000000000000000E0));
#117=CARTESIAN_POINT('',(-7.00000000000000000E0,3.00000000000000000E0,3.75000000000000000E0));
#118=B_SPLINE_CURVE_WITH_KNOTS('',1,(#116,#117),.UNSPECIFIED.,.F.,.F.,(2,2),(0.00000000000000000E0,1.00000000000000000E0),.UNSPECIFIED.);
#119=CARTESIAN_POINT('',(-7.00000000000000000E0,3.00000000000000000E0,3.75000000000000000E0));
#120=CARTESIAN_POINT('',(-7.00000000000000000E0,3.00000000000000000E0,4.00000000000000000E0));
#121=CARTESIAN_POINT('',(-7.00000000000000000E0,3.25000000000000000E0,4.00000000000000000E0));
#122=(BOUNDED_CURVE()B_SPLINE_CURVE(2,(#119,#120,#121),.UNSPECIFIED.,.F.,.F.)B_SPLINE_CURVE_WITH_KNOTS((3,3),(0.00000000000000000E0,1.00000000000000000E0),.UNSPECIFIED.)CURVE()GEOMETRIC_REPRESENTATION_ITEM()RATIONAL_B_SPLINE_CURVE((2.00000000000000000E0,1.00000000000000000E0,1.00000000000000000E0))REPRESENTATION_ITEM(''));
#123=CARTESIAN_POINT('',(-7.00000000000000000E0,1.10000000000000000E1,-2.00000000000000000E0));
#124=CARTESIAN_POINT('',(-7.00000000000000000E0,1.10000000000000000E1,4.00000000000000000E0));
#125=B_SPLINE_CURVE_WITH_KNOTS('',1,(#123,#124),.UNSPECIFIED.,.F.,.F.,(2,2),(0.00000000000000000E0,1.00000000000000000E0),.UNSPECIFIED.);
#126=CARTESIAN_POINT('',(3.00000000000000000E0,1.10000000000000000E1,3.75000000000000000E0));
#127=CARTESIAN_POINT('',(3.00000000000000000E0,1.10000000000000000E1,4.00000000000000000E0));
#128=CARTESIAN_POINT('',(2.75000000000000000E0,1.10000000000000000E1,4.00000000000000000E0));
#129=(BOUNDED_CURVE()B_SPLINE_CURVE(2,(#126,#127,#128),.UNSPECIFIED.,.F.,.F.)B_SPLINE_CURVE_WITH_KNOTS((3,3),(0.00000000000000000E0,1.00000000000000000E0),.UNSPECIFIED.)CURVE()GEOMETRIC_REPRESENTATION_ITEM()RATIONAL_B_SPLINE_CURVE((2.00000000000000000E0,1.00000000000000000E0,1.00000000000000000E0))REPRESENTATION_ITEM(''));
#130=CARTESIAN_POINT('',(3.00000000000000000E0,1.10000000000000000E1,-2.00000000000000000E0));
#131=CARTESIAN_POINT('',(3.00000000000000000E0,1.10000000000000000E1,3.75000000000000000E0));
#132=B_SPLINE_CURVE_WITH_KNOTS('',1,(#130,#131),.UNSPECIFIED.,.F.,.F.,(2,2),(0.00000000000000000E0,1.00000000000000000E0),.UNSPECIFIED.);
#133=CARTESIAN_POINT('',(3.00000000000000000E0,3.25000000000000000E0,3.75000000000000000E0));
#134=CARTESIAN_POINT('',(3.00000000000000000E0,1.10000000000000000E1,3.75000000000000000E0));
#135=B_SPLINE_CURVE_WITH_KNOTS('',1,(#133,#134),.UNSPECIFIED.,.F.,.F.,(2,2),(0.00000000000000000E0,1.00000000000000000E0),.UNSPECIFIED.);
#136=CARTESIAN_POINT('',(3.00000000000000000E0,3.25000000000000000E0,-2.00000000000000000E0));
#137=CARTESIAN_POINT('',(3.00000000000000000E0,3.25000000000000000E0,3.75000000000000000E0));
#138=B_SPLINE_CURVE_WITH_KNOTS('',1,(#136,#137),.UNSPECIFIED.,.F.,.F.,(2,2),(0.00000000000000000E0,1.00000000000000000E0),.UNSPECIFIED.);
#139=CARTESIAN_POINT('',(2.75000000000000000E0,3.00000000000000000E0,-2.00000000000000000E0));
#140=CARTESIAN_POINT('',(2.75000000000000000E0,3.00000000000000000E0,3.75000000000000000E0));
#141=B_SPLINE_CURVE_WITH_KNOTS('',1,(#139,#140),.UNSPECIFIED.,.F.,.F.,(2,2),(0.00000000000000000E0,1.00000000000000000E0),.UNSPECIFIED.);
#142=CARTESIAN_POINT('',(2.75000000000000000E0,3.00000000000000000E0,3.75000000000000000E0));
#143=CARTESIAN_POINT('',(-7.00000000000000000E0,3.00000000000000000E0,3.75000000000000000E0));
#144=B_SPLINE_CURVE_WITH_KNOTS('',1,(#142,#143),.UNSPECIFIED.,.F.,.F.,(2,2),(0.00000000000000000E0,1.00000000000000000E0),.UNSPECIFIED.);
#145=CARTESIAN_POINT('',(3.00000000000000000E0,3.25000000000000000E0,3.75000000000000000E0));
#146=CARTESIAN_POINT('',(3.00000000000000000E0,3.00000000000000000E0,3.75000000000000000E0));
#147=CARTESIAN_POINT('',(2.75000000000000000E0,3.00000000000000000E0,3.75000000000000000E0));
#148=(BOUNDED_CURVE()B_SPLINE_CURVE(2,(#145,#146,#147),.UNSPECIFIED.,.F.,.F.)B_SPLINE_CURVE_WITH_KNOTS((3,3),(0.00000000000000000E0,1.00000000000000000E0),.UNSPECIFIED.)CURVE()GEOMETRIC_REPRESENTATION_ITEM()RATIONAL_B_SPLINE_CURVE((1.00000000000000000E0,7.07106781186547573E-1,1.00000000000000000E0))REPRESENTATION_ITEM(''));
#149=CARTESIAN_POINT('',(3.00000000000000000E0,3.25000000000000000E0,3.75000000000000000E0));
#150=CARTESIAN_POINT('',(3.00000000000000000E0,3.25000000000000000E0,4.00000000000000000E0));
#151=CARTESIAN_POINT('',(2.75000000000000000E0,3.25000000000000000E0,4.00000000000000000E0));
#152=(BOUNDED_CURVE()B_SPLINE_CURVE(2,(#149,#150,#151),.UNSPECIFIED.,.F.,.F.)B_SPLINE_CURVE_WITH_KNOTS((3,3),(0.00000000000000000E0,1.00000000000000000E0),.UNSPECIFIED.)CURVE()GEOMETRIC_REPRESENTATION_ITEM()RATIONAL_B_SPLINE_CURVE((2.00000000000000000E0,1.00000000000000000E0,1.00000000000000000E0))REPRESENTATION_ITEM(''));
#153=CARTESIAN_POINT('',(2.75000000000000000E0,3.00000000000000000E0,3.75000000000000000E0));
#154=CARTESIAN_POINT('',(2.75000000000000000E0,3.00000000000000000E0,4.00000000000000000E0));
#155=CARTESIAN_POINT('',(2.75000000000000000E0,3.25000000000000000E0,4.00000000000000000E0));
#156=(BOUNDED_CURVE()B_SPLINE_CURVE(2,(#153,#154,#155),.UNSPECIFIED.,.F.,.F.)B_SPLINE_CURVE_WITH_KNOTS((3,3),(0.00000000000000000E0,1.00000000000000000E0),.UNSPECIFIED.)CURVE()GEOMETRIC_REPRESENTATION_ITEM()RATIONAL_B_SPLINE_CURVE((2.00000000000000000E0,1.00000000000000000E0,1.00000000000000000E0))REPRESENTATION_ITEM(''));
#157=(GEOMETRIC_REPRESENTATION_CONTEXT(2)REPRESENTATION_CONTEXT('','2D'));
#158=CARTESIAN_POINT('',(0.00000000000000000E0,0.00000000000000000E0));
#159=CARTESIAN_POINT('',(1.00000000000000000E0,0.00000000000000000E0));
#160=B_SPLINE_CURVE_WITH_KNOTS('',1,(#158,#159),.UNSPECIFIED.,.F.,.F.,(2,2),(0.00000000000000000E0,1.00000000000000000E0),.UNSPECIFIED.);
#161=DEFINITIONAL_REPRESENTATION('',(#160),#157);
#162=PCURVE('',#31,#161);
#163=CARTESIAN_POINT('',(1.00000000000000000E0,0.00000000000000000E0));
#164=CARTESIAN_POINT('',(1.00000000000000000E0,9.68750000000000000E-1));
#165=B_SPLINE_CURVE_WITH_KNOTS('',1,(#163,#164),.UNSPECIFIED.,.F.,.F.,(2,2),(0.00000000000000000E0,1.00000000000000000E0),.UNSPECIFIED.);
#166=DEFINITIONAL_REPRESENTATION('',(#165),#157);
#167=PCURVE('',#31,#166);
#168=CARTESIAN_POINT('',(1.00000000000000000E0,9.68750000000000000E-1));
#169=CARTESIAN_POINT('',(1.00000000000000000E0,1.00000000000000000E0));
#170=CARTESIAN_POINT('',(9.74999999999999978E-1,1.00000000000000000E0));
#171=(BOUNDED_CURVE()B_SPLINE_CURVE(2,(#168,#169,#170),.UNSPECIFIED.,.F.,.F.)B_SPLINE_CURVE_WITH_KNOTS((3,3),(0.00000000000000000E0,1.00000000000000000E0),.UNSPECIFIED.)CURVE()GEOMETRIC_REPRESENTATION_ITEM()RATIONAL_B_SPLINE_CURVE((1.00000000000000000E0,7.07106781186547573E-1,1.00000000000000000E0))REPRESENTATION_ITEM(''));
#172=DEFINITIONAL_REPRESENTATION('',(#171),#157);
#173=PCURVE('',#31,#172);
#174=CARTESIAN_POINT('',(9.74999999999999978E-1,1.00000000000000000E0));
#175=CARTESIAN_POINT('',(0.00000000000000000E0,1.00000000000000000E0));
#176=B_SPLINE_CURVE_WITH_KNOTS('',1,(#174,#175),.UNSPECIFIED.,.F.,.F.,(2,2),(0.00000000000000000E0,1.00000000000000000E0),.UNSPECIFIED.);
#177=DEFINITIONAL_REPRESENTATION('',(#176),#157);
#178=PCURVE('',#31,#177);
#179=CARTESIAN_POINT('',(0.00000000000000000E0,1.00000000000000000E0));
#180=CARTESIAN_POINT('',(0.00000000000000000E0,0.00000000000000000E0));
#181=B_SPLINE_CURVE_WITH_KNOTS('',1,(#179,#180),.UNSPECIFIED.,.F.,.F.,(2,2),(0.00000000000000000E0,1.00000000000000000E0),.UNSPECIFIED.);
#182=DEFINITIONAL_REPRESENTATION('',(#181),#157);
#183=PCURVE('',#31,#182);
#184=CARTESIAN_POINT('',(1.00000000000000000E0,0.00000000000000000E0));
#185=CARTESIAN_POINT('',(1.00000000000000000E0,9.68750000000000000E-1));
#186=B_SPLINE_CURVE_WITH_KNOTS('',1,(#184,#185),.UNSPECIFIED.,.F.,.F.,(2,2),(0.00000000000000000E0,1.00000000000000000E0),.UNSPECIFIED.);
#187=DEFINITIONAL_REPRESENTATION('',(#186),#157);
#188=PCURVE('',#36,#187);
#189=CARTESIAN_POINT('',(1.00000000000000000E0,9.68750000000000000E-1));
#190=CARTESIAN_POINT('',(2.50000000000000222E-2,9.68750000000000000E-1));
#191=B_SPLINE_CURVE_WITH_KNOTS('',1,(#189,#190),.UNSPECIFIED.,.F.,.F.,(2,2),(0.00000000000000000E0,1.00000000000000000E0),.UNSPECIFIED.);
#192=DEFINITIONAL_REPRESENTATION('',(#191),#157);
#193=PCURVE('',#36,#192);
#194=CARTESIAN_POINT('',(2.50000000000000222E-2,9.68750000000000000E-1));
#195=CARTESIAN_POINT('',(2.50000000000000222E-2,0.00000000000000000E0));
#196=B_SPLINE_CURVE_WITH_KNOTS('',1,(#194,#195),.UNSPECIFIED.,.F.,.F.,(2,2),(0.00000000000000000E0,1.00000000000000000E0),.UNSPECIFIED.);
#197=DEFINITIONAL_REPRESENTATION('',(#196),#157);
#198=PCURVE('',#36,#197);
#199=CARTESIAN_POINT('',(2.50000000000000222E-2,0.00000000000000000E0));
#200=CARTESIAN_POINT('',(1.00000000000000000E0,0.00000000000000000E0));
#201=B_SPLINE_CURVE_WITH_KNOTS('',1,(#199,#200),.UNSPECIFIED.,.F.,.F.,(2,2),(0.00000000000000000E0,1.00000000000000000E0),.UNSPECIFIED.);
#202=DEFINITIONAL_REPRESENTATION('',(#201),#157);
#203=PCURVE('',#36,#202);
#204=CARTESIAN_POINT('',(0.00000000000000000E0,0.00000000000000000E0));
#205=CARTESIAN_POINT('',(1.00000000000000000E0,0.00000000000000000E0));
#206=B_SPLINE_CURVE_WITH_KNOTS('',1,(#204,#205),.UNSPECIFIED.,.F.,.F.,(2,2),(0.00000000000000000E0,1.00000000000000000E0),.UNSPECIFIED.);
#207=DEFINITIONAL_REPRESENTATION('',(#206),#157);
#208=PCURVE('',#41,#207);
#209=CARTESIAN_POINT('',(1.00000000000000000E0,0.00000000000000000E0));
#210=CARTESIAN_POINT('',(1.00000000000000000E0,9.58333333333333370E-1));
#211=B_SPLINE_CURVE_WITH_KNOTS('',1,(#209,#210),.UNSPECIFIED.,.F.,.F.,(2,2),(0.00000000000000000E0,1.00000000000000000E0),.UNSPECIFIED.);
#212=DEFINITIONAL_REPRESENTATION('',(#211),#157);
#213=PCURVE('',#41,#212);
#214=CARTESIAN_POINT('',(1.00000000000000000E0,9.58333333333333370E-1));
#215=CARTESIAN_POINT('',(1.00000000000000000E0,1.00000000000000000E0));
#216=CARTESIAN_POINT('',(9.68750000000000000E-1,1.00000000000000000E0));
#217=(BOUNDED_CURVE()B_SPLINE_CURVE(2,(#214,#215,#216),.UNSPECIFIED.,.F.,.F.)B_SPLINE_CURVE_WITH_KNOTS((3,3),(0.00000000000000000E0,1.00000000000000000E0),.UNSPECIFIED.)CURVE()GEOMETRIC_REPRESENTATION_ITEM()RATIONAL_B_SPLINE_CURVE((2.00000000000000000E0,1.00000000000000000E0,1.00000000000000000E0))REPRESENTATION_ITEM(''));
#218=DEFINITIONAL_REPRESENTATION('',(#217),#157);
#219=PCURVE('',#41,#218);
#220=CARTESIAN_POINT('',(9.68750000000000000E-1,1.00000000000000000E0));
#221=CARTESIAN_POINT('',(0.00000000000000000E0,1.00000000000000000E0));
#222=B_SPLINE_CURVE_WITH_KNOTS('',1,(#220,#221),.UNSPECIFIED.,.F.,.F.,(2,2),(0.00000000000000000E0,1.00000000000000000E0),.UNSPECIFIED.);
#223=DEFINITIONAL_REPRESENTATION('',(#222),#157);
#224=PCURVE('',#41,#223);
#225=CARTESIAN_POINT('',(0.00000000000000000E0,1.00000000000000000E0));
#226=CARTESIAN_POINT('',(0.00000000000000000E0,0.00000000000000000E0));
#227=B_SPLINE_CURVE_WITH_KNOTS('',1,(#225,#226),.UNSPECIFIED.,.F.,.F.,(2,2),(0.00000000000000000E0,1.00000000000000000E0),.UNSPECIFIED.);
#228=DEFINITIONAL_REPRESENTATION('',(#227),#157);
#229=PCURVE('',#41,#228);
#230=CARTESIAN_POINT('',(1.00000000000000000E0,0.00000000000000000E0));
#231=CARTESIAN_POINT('',(1.00000000000000000E0,1.00000000000000000E0));
#232=B_SPLINE_CURVE_WITH_KNOTS('',1,(#230,#231),.UNSPECIFIED.,.F.,.F.,(2,2),(0.00000000000000000E0,1.00000000000000000E0),.UNSPECIFIED.);
#233=DEFINITIONAL_REPRESENTATION('',(#232),#157);
#234=PCURVE('',#46,#233);
#235=CARTESIAN_POINT('',(1.00000000000000000E0,1.00000000000000000E0));
#236=CARTESIAN_POINT('',(2.50000000000000222E-2,1.00000000000000000E0));
#237=B_SPLINE_CURVE_WITH_KNOTS('',1,(#235,#236),.UNSPECIFIED.,.F.,.F.,(2,2),(0.00000000000000000E0,1.00000000000000000E0),.UNSPECIFIED.);
#238=DEFINITIONAL_REPRESENTATION('',(#237),#157);
#239=PCURVE('',#46,#238);
#240=CARTESIAN_POINT('',(2.50000000000000222E-2,1.00000000000000000E0));
#241=CARTESIAN_POINT('',(0.00000000000000000E0,1.00000000000000000E0));
#242=CARTESIAN_POINT('',(0.00000000000000000E0,9.58333333333333370E-1));
#243=(BOUNDED_CURVE()B_SPLINE_CURVE(2,(#240,#241,#242),.UNSPECIFIED.,.F.,.F.)B_SPLINE_CURVE_WITH_KNOTS((3,3),(0.00000000000000000E0,1.00000000000000000E0),.UNSPECIFIED.)CURVE()GEOMETRIC_REPRESENTATION_ITEM()RATIONAL_B_SPLINE_CURVE((1.00000000000000000E0,1.00000000000000000E0,2.00000000000000000E0))REPRESENTATION_ITEM(''));
#244=DEFINITIONAL_REPRESENTATION('',(#243),#157);
#245=PCURVE('',#46,#244);
#246=CARTESIAN_POINT('',(0.00000000000000000E0,9.58333333333333370E-1));
#247=CARTESIAN_POINT('',(0.00000000000000000E0,0.00000000000000000E0));
#248=B_SPLINE_CURVE_WITH_KNOTS('',1,(#246,#247),.UNSPECIFIED.,.F.,.F.,(2,2),(0.00000000000000000E0,1.00000000000000000E0),.UNSPECIFIED.);
#249=DEFINITIONAL_REPRESENTATION('',(#248),#157);
#250=PCURVE('',#46,#249);
#251=CARTESIAN_POINT('',(0.00000000000000000E0,0.00000000000000000E0));
#252=CARTESIAN_POINT('',(1.00000000000000000E0,0.00000000000000000E0));
#253=B_SPLINE_CURVE_WITH_KNOTS('',1,(#251,#252),.UNSPECIFIED.,.F.,.F.,(2,2),(0.00000000000000000E0,1.00000000000000000E0),.UNSPECIFIED.);
#254=DEFINITIONAL_REPRESENTATION('',(#253),#157);
#255=PCURVE('',#46,#254);
#256=CARTESIAN_POINT('',(1.00000000000000000E0,0.00000000000000000E0));
#257=CARTESIAN_POINT('',(1.00000000000000000E0,9.58333333333333370E-1));
#258=B_SPLINE_CURVE_WITH_KNOTS('',1,(#256,#257),.UNSPECIFIED.,.F.,.F.,(2,2),(0.00000000000000000E0,1.00000000000000000E0),.UNSPECIFIED.);
#259=DEFINITIONAL_REPRESENTATION('',(#258),#157);
#260=PCURVE('',#51,#259);
#261=CARTESIAN_POINT('',(1.00000000000000000E0,9.58333333333333370E-1));
#262=CARTESIAN_POINT('',(3.12500000000000000E-2,9.58333333333333370E-1));
#263=B_SPLINE_CURVE_WITH_KNOTS('',1,(#261,#262),.UNSPECIFIED.,.F.,.F.,(2,2),(0.00000000000000000E0,1.00000000000000000E0),.UNSPECIFIED.);
#264=DEFINITIONAL_REPRESENTATION('',(#263),#157);
#265=PCURVE('',#51,#264);
#266=CARTESIAN_POINT('',(3.12500000000000000E-2,9.58333333333333370E-1));
#267=CARTESIAN_POINT('',(3.12500000000000000E-2,0.00000000000000000E0));
#268=B_SPLINE_CURVE_WITH_KNOTS('',1,(#266,#267),.UNSPECIFIED.,.F.,.F.,(2,2),(0.00000000000000000E0,1.00000000000000000E0),.UNSPECIFIED.);
#269=DEFINITIONAL_REPRESENTATION('',(#268),#157);
#270=PCURVE('',#51,#269);
#271=CARTESIAN_POINT('',(3.12500000000000000E-2,0.00000000000000000E0));
#272=CARTESIAN_POINT('',(1.00000000000000000E0,0.00000000000000000E0));
#273=B_SPLINE_CURVE_WITH_KNOTS('',1,(#271,#272),.UNSPECIFIED.,.F.,.F.,(2,2),(0.00000000000000000E0,1.00000000000000000E0),.UNSPECIFIED.);
#274=DEFINITIONAL_REPRESENTATION('',(#273),#157);
#275=PCURVE('',#51,#274);
#276=CARTESIAN_POINT('',(0.00000000000000000E0,0.00000000000000000E0));
#277=CARTESIAN_POINT('',(9.74999999999999978E-1,0.00000000000000000E0));
#278=B_SPLINE_CURVE_WITH_KNOTS('',1,(#276,#277),.UNSPECIFIED.,.F.,.F.,(2,2),(0.00000000000000000E0,1.00000000000000000E0),.UNSPECIFIED.);
#279=DEFINITIONAL_REPRESENTATION('',(#278),#157);
#280=PCURVE('',#56,#279);
#281=CARTESIAN_POINT('',(9.74999999999999978E-1,0.00000000000000000E0));
#282=CARTESIAN_POINT('',(9.74999999999999978E-1,9.58333333333333370E-1));
#283=B_SPLINE_CURVE_WITH_KNOTS('',1,(#281,#282),.UNSPECIFIED.,.F.,.F.,(2,2),(0.00000000000000000E0,1.00000000000000000E0),.UNSPECIFIED.);
#284=DEFINITIONAL_REPRESENTATION('',(#283),#157);
#285=PCURVE('',#56,#284);
#286=CARTESIAN_POINT('',(9.74999999999999978E-1,9.58333333333333370E-1));
#287=CARTESIAN_POINT('',(0.00000000000000000E0,9.58333333333333370E-1));
#288=B_SPLINE_CURVE_WITH_KNOTS('',1,(#286,#287),.UNSPECIFIED.,.F.,.F.,(2,2),(0.00000000000000000E0,1.00000000000000000E0),.UNSPECIFIED.);
#289=DEFINITIONAL_REPRESENTATION('',(#288),#157);
#290=PCURVE('',#56,#289);
#291=CARTESIAN_POINT('',(0.00000000000000000E0,9.58333333333333370E-1));
#292=CARTESIAN_POINT('',(0.00000000000000000E0,0.00000000000000000E0));
#293=B_SPLINE_CURVE_WITH_KNOTS('',1,(#291,#292),.UNSPECIFIED.,.F.,.F.,(2,2),(0.00000000000000000E0,1.00000000000000000E0),.UNSPECIFIED.);
#294=DEFINITIONAL_REPRESENTATION('',(#293),#157);
#295=PCURVE('',#56,#294);
#296=CARTESIAN_POINT('',(1.00000000000000000E0,0.00000000000000000E0));
#297=CARTESIAN_POINT('',(1.00000000000000000E0,1.00000000000000000E0));
#298=B_SPLINE_CURVE_WITH_KNOTS('',1,(#296,#297),.UNSPECIFIED.,.F.,.F.,(2,2),(0.00000000000000000E0,1.00000000000000000E0),.UNSPECIFIED.);
#299=DEFINITIONAL_REPRESENTATION('',(#298),#157);
#300=PCURVE('',#63,#299);
#301=CARTESIAN_POINT('',(1.00000000000000000E0,1.00000000000000000E0));
#302=CARTESIAN_POINT('',(0.00000000000000000E0,1.00000000000000000E0));
#303=B_SPLINE_CURVE_WITH_KNOTS('',1,(#301,#302),.UNSPECIFIED.,.F.,.F.,(2,2),(0.00000000000000000E0,1.00000000000000000E0),.UNSPECIFIED.);
#304=DEFINITIONAL_REPRESENTATION('',(#303),#157);
#305=PCURVE('',#63,#304);
#306=CARTESIAN_POINT('',(0.00000000000000000E0,1.00000000000000000E0));
#307=CARTESIAN_POINT('',(0.00000000000000000E0,0.00000000000000000E0));
#308=B_SPLINE_CURVE_WITH_KNOTS('',1,(#306,#307),.UNSPECIFIED.,.F.,.F.,(2,2),(0.00000000000000000E0,1.00000000000000000E0),.UNSPECIFIED.);
#309=DEFINITIONAL_REPRESENTATION('',(#308),#157);
#310=PCURVE('',#63,#309);
#311=CARTESIAN_POINT('',(0.00000000000000000E0,0.00000000000000000E0));
#312=CARTESIAN_POINT('',(1.00000000000000000E0,0.00000000000000000E0));
#313=B_SPLINE_CURVE_WITH_KNOTS('',1,(#311,#312),.UNSPECIFIED.,.F.,.F.,(2,2),(0.00000000000000000E0,1.00000000000000000E0),.UNSPECIFIED.);
#314=DEFINITIONAL_REPRESENTATION('',(#313),#157);
#315=PCURVE('',#63,#314);
#316=CARTESIAN_POINT('',(0.00000000000000000E0,0.00000000000000000E0));
#317=CARTESIAN_POINT('',(1.00000000000000000E0,0.00000000000000000E0));
#318=B_SPLINE_CURVE_WITH_KNOTS('',1,(#316,#317),.UNSPECIFIED.,.F.,.F.,(2,2),(0.00000000000000000E0,1.00000000000000000E0),.UNSPECIFIED.);
#319=DEFINITIONAL_REPRESENTATION('',(#318),#157);
#320=PCURVE('',#70,#319);
#321=CARTESIAN_POINT('',(1.00000000000000000E0,0.00000000000000000E0));
#322=CARTESIAN_POINT('',(1.00000000000000000E0,1.00000000000000000E0));
#323=B_SPLINE_CURVE_WITH_KNOTS('',1,(#321,#322),.UNSPECIFIED.,.F.,.F.,(2,2),(0.00000000000000000E0,1.00000000000000000E0),.UNSPECIFIED.);
#324=DEFINITIONAL_REPRESENTATION('',(#323),#157);
#325=PCURVE('',#70,#324);
#326=CARTESIAN_POINT('',(1.00000000000000000E0,1.00000000000000000E0));
#327=CARTESIAN_POINT('',(0.00000000000000000E0,1.00000000000000000E0));
#328=B_SPLINE_CURVE_WITH_KNOTS('',1,(#326,#327),.UNSPECIFIED.,.F.,.F.,(2,2),(0.00000000000000000E0,1.00000000000000000E0),.UNSPECIFIED.);
#329=DEFINITIONAL_REPRESENTATION('',(#328),#157);
#330=PCURVE('',#70,#329);
#331=CARTESIAN_POINT('',(0.00000000000000000E0,1.00000000000000000E0));
#332=CARTESIAN_POINT('',(0.00000000000000000E0,0.00000000000000000E0));
#333=B_SPLINE_CURVE_WITH_KNOTS('',1,(#331,#332),.UNSPECIFIED.,.F.,.F.,(2,2),(0.00000000000000000E0,1.00000000000000000E0),.UNSPECIFIED.);
#334=DEFINITIONAL_REPRESENTATION('',(#333),#157);
#335=PCURVE('',#70,#334);
#336=CARTESIAN_POINT('',(1.00000000000000000E0,0.00000000000000000E0));
#337=CARTESIAN_POINT('',(1.00000000000000000E0,1.00000000000000000E0));
#338=B_SPLINE_CURVE_WITH_KNOTS('',1,(#336,#337),.UNSPECIFIED.,.F.,.F.,(2,2),(0.00000000000000000E0,1.00000000000000000E0),.UNSPECIFIED.);
#339=DEFINITIONAL_REPRESENTATION('',(#338),#157);
#340=PCURVE('',#77,#339);
#341=CARTESIAN_POINT('',(1.00000000000000000E0,1.00000000000000000E0));
#342=CARTESIAN_POINT('',(0.00000000000000000E0,1.00000000000000000E0));
#343=B_SPLINE_CURVE_WITH_KNOTS('',1,(#341,#342),.UNSPECIFIED.,.F.,.F.,(2,2),(0.00000000000000000E0,1.00000000000000000E0),.UNSPECIFIED.);
#344=DEFINITIONAL_REPRESENTATION('',(#343),#157);
#345=PCURVE('',#77,#344);
#346=CARTESIAN_POINT('',(0.00000000000000000E0,1.00000000000000000E0));
#347=CARTESIAN_POINT('',(0.00000000000000000E0,0.00000000000000000E0));
#348=B_SPLINE_CURVE_WITH_KNOTS('',1,(#346,#347),.UNSPECIFIED.,.F.,.F.,(2,2),(0.00000000000000000E0,1.00000000000000000E0),.UNSPECIFIED.);
#349=DEFINITIONAL_REPRESENTATION('',(#348),#157);
#350=PCURVE('',#77,#349);
#351=CARTESIAN_POINT('',(0.00000000000000000E0,0.00000000000000000E0));
#352=CARTESIAN_POINT('',(1.00000000000000000E0,0.00000000000000000E0));
#353=B_SPLINE_CURVE_WITH_KNOTS('',1,(#351,#352),.UNSPECIFIED.,.F.,.F.,(2,2),(0.00000000000000000E0,1.00000000000000000E0),.UNSPECIFIED.);
#354=DEFINITIONAL_REPRESENTATION('',(#353),#157);
#355=PCURVE('',#77,#354);
#356=CARTESIAN_POINT('',(1.00000000000000000E0,0.00000000000000000E0));
#357=CARTESIAN_POINT('',(1.00000000000000000E0,1.00000000000000000E0));
#358=B_SPLINE_CURVE_WITH_KNOTS('',1,(#356,#357),.UNSPECIFIED.,.F.,.F.,(2,2),(0.00000000000000000E0,1.00000000000000000E0),.UNSPECIFIED.);
#359=DEFINITIONAL_REPRESENTATION('',(#358),#157);
#360=PCURVE('',#87,#359);
#361=CARTESIAN_POINT('',(1.00000000000000000E0,1.00000000000000000E0));
#362=CARTESIAN_POINT('',(0.00000000000000000E0,1.00000000000000000E0));
#363=CARTESIAN_POINT('',(0.00000000000000000E0,0.00000000000000000E0));
#364=(BOUNDED_CURVE()B_SPLINE_CURVE(2,(#361,#362,#363),.UNSPECIFIED.,.F.,.F.)B_SPLINE_CURVE_WITH_KNOTS((3,3),(0.00000000000000000E0,1.00000000000000000E0),.UNSPECIFIED.)CURVE()GEOMETRIC_REPRESENTATION_ITEM()RATIONAL_B_SPLINE_CURVE((1.00000000000000000E0,7.07106781186547573E-1,1.00000000000000000E0))REPRESENTATION_ITEM(''));
#365=DEFINITIONAL_REPRESENTATION('',(#364),#157);
#366=PCURVE('',#87,#365);
#367=CARTESIAN_POINT('',(0.00000000000000000E0,0.00000000000000000E0));
#368=CARTESIAN_POINT('',(1.00000000000000000E0,0.00000000000000000E0));
#369=B_SPLINE_CURVE_WITH_KNOTS('',1,(#367,#368),.UNSPECIFIED.,.F.,.F.,(2,2),(0.00000000000000000E0,1.00000000000000000E0),.UNSPECIFIED.);
#370=DEFINITIONAL_REPRESENTATION('',(#369),#157);
#371=PCURVE('',#87,#370);
#372=SURFACE_CURVE('',#90,(#162,#255),.PCURVE_S1.);
#373=EDGE_CURVE('OSCAD_TOPO/3|edge|e:768f8599aaca6224074dc33c5b8b83f6|eae11a903bb99b53dd913a13472c664e118f5574f1e3bf7cc17dea0cb3405db9',#2,#4,#372,.T.);
#374=SURFACE_CURVE('',#93,(#167,#275),.PCURVE_S1.);
#375=EDGE_CURVE('OSCAD_TOPO/3|edge|e:b52265686e5a1b4ccc1afc32ab45c116|cc71a271359c028e70b47ab7690e202e55fd63c6aeeb59a1fc1b4a181b8d822d',#4,#6,#374,.T.);
#376=SURFACE_CURVE('',#97,(#173,#315),.PCURVE_S1.);
#377=EDGE_CURVE('OSCAD_TOPO/3|edge|e:373b68814339191d40c41f9e98e38059|a9fbd0b44322e60c2098d18f5545d935bd8416395d4d390110e1fa9afb445f03',#6,#8,#376,.T.);
#378=SURFACE_CURVE('',#100,(#178,#280),.PCURVE_S1.);
#379=EDGE_CURVE('OSCAD_TOPO/3|edge|e:a1b0761d4e214fc098e45bd390d0bf9f|e2dbe6c6b4d19f12f4e3f407d5def2b1ef976c0731c38257c8877c7bb71838c2',#10,#8,#378,.T.);
#380=SURFACE_CURVE('',#103,(#183,#208),.PCURVE_S1.);
#381=EDGE_CURVE('OSCAD_TOPO/3|edge|e:a9cfcfc2f8418cf9220eb90f7eaaed17|e12682e135bb7adcc43cffed77e396d10e322483172b0544663bc24b2fab0afa',#2,#10,#380,.T.);
#382=SURFACE_CURVE('',#106,(#188,#224),.PCURVE_S1.);
#383=EDGE_CURVE('OSCAD_TOPO/3|edge|e:9831b60f4bbc05595d65f43c59272a61|df76489c5474c15fddd75ce4082e93d31b398c2d7d5783ccb429ec0bf253bd21',#12,#14,#382,.T.);
#384=SURFACE_CURVE('',#109,(#193,#350),.PCURVE_S1.);
#385=EDGE_CURVE('OSCAD_TOPO/3|edge|e:58531719c7f89d25c278d72d87b565af|df1fda390bb6c220fa9aea121840efef71ca5c54c2a65b79d4392ab324d04eef',#16,#14,#384,.T.);
#386=SURFACE_CURVE('',#112,(#198,#325),.PCURVE_S1.);
#387=EDGE_CURVE('OSCAD_TOPO/3|edge|e:d7ae71339b03e9ca900201fc2dc8de94|4f19b5d4ac113bd939757692548ee72b0c8f7fef02cca19e7e12230141867671',#16,#18,#386,.T.);
#388=SURFACE_CURVE('',#115,(#203,#239),.PCURVE_S1.);
#389=EDGE_CURVE('OSCAD_TOPO/3|edge|e:8b8e6b68403bdf4d44096270b14df3bd|03ccac1e9e5f7dc9aa513038a86035c69e4aac13445ee2665ee45c8fb2acf6e0',#12,#18,#388,.T.);
#390=SURFACE_CURVE('',#118,(#213,#295),.PCURVE_S1.);
#391=EDGE_CURVE('OSCAD_TOPO/3|edge|e:0fcdf71e09f17b6e7e1325ad1312c5f9|d0e335dad8bfb823a3853d0b39eee6cf4d86cefc54fcade4ca3888c818d1277d',#10,#20,#390,.T.);
#392=SURFACE_CURVE('',#122,(#219,#355),.PCURVE_S1.);
#393=EDGE_CURVE('OSCAD_TOPO/3|edge|e:52e5974500329b26eb6b088695f7a0cd|63b389ed72a90aed1160105c82293f91ecd6ae869b389543bd59bb29825fe707',#20,#14,#392,.T.);
#394=SURFACE_CURVE('',#125,(#229,#234),.PCURVE_S1.);
#395=EDGE_CURVE('OSCAD_TOPO/3|edge|e:b2868f6c31edd8a2576b9723829cd607|7536c4b313d6c01382098c7ec32cb4d927e5e197b7702aaa71f86b2b8ba90ddf',#2,#12,#394,.T.);
#396=SURFACE_CURVE('',#129,(#245,#320),.PCURVE_S1.);
#397=EDGE_CURVE('OSCAD_TOPO/3|edge|e:1cfd9aed3aea205a487bc8a3c252c1a3|90dd876f3e0f55630d8c13a245566e0beac39151d646fe8002ce8fe5ea8dc9da',#22,#18,#396,.T.);
#398=SURFACE_CURVE('',#132,(#250,#260),.PCURVE_S1.);
#399=EDGE_CURVE('OSCAD_TOPO/3|edge|e:eed312abb229f19bd78e49af92f977b5|c2b98b014a53da535fd5119a10ee29c7a7c25650f704ba0a23724173a4905a42',#4,#22,#398,.T.);
#400=SURFACE_CURVE('',#135,(#265,#335),.PCURVE_S1.);
#401=EDGE_CURVE('OSCAD_TOPO/3|edge|e:3e08c62cb6a45c218320e4196788c79e|e2d8d87b60a10a7fca00cc4feb21faa3705caaa304c039f0eef884b4178b4a14',#24,#22,#400,.T.);
#402=SURFACE_CURVE('',#138,(#270,#300),.PCURVE_S1.);
#403=EDGE_CURVE('OSCAD_TOPO/3|edge|e:c7c9380b7f1905f6e232f92b06c2c010|87f09236606d09777b2b139d18a92adb34bd56858fcd212014d6b6e45caa6bc2',#6,#24,#402,.T.);
#404=SURFACE_CURVE('',#141,(#285,#310),.PCURVE_S1.);
#405=EDGE_CURVE('OSCAD_TOPO/3|edge|e:c0d94e1bb9631db3e2e0c64d13db4434|953bf824f85c875aba7946f8c3bd6a5670d877d841eec7105a16898fddb2c320',#8,#26,#404,.T.);
#406=SURFACE_CURVE('',#144,(#290,#340),.PCURVE_S1.);
#407=EDGE_CURVE('OSCAD_TOPO/3|edge|e:ec4b915a7102a2f93224190cf0485f89|6d977dce3ebde86ff91e08db6cbaa6c7861ca70f76a212291284e8bdd668af39',#26,#20,#406,.T.);
#408=SURFACE_CURVE('',#148,(#305,#366),.PCURVE_S1.);
#409=EDGE_CURVE('OSCAD_TOPO/3|edge|e:d5e372b7e8911d158677c9a22c4d69ec|49b74c315ac2404919db2e3f05173f13750afa484cbced71910e0897af061a7f',#24,#26,#408,.T.);
#410=SURFACE_CURVE('',#152,(#330,#371),.PCURVE_S1.);
#411=EDGE_CURVE('OSCAD_TOPO/3|edge|e:2f5befa802b1e4d6c907d062c8a2ace6|14a561d83cb750113d7470256b51f1fecdbc8b538c8a8e0c7a0f4d6f5136cd99',#24,#16,#410,.T.);
#412=SURFACE_CURVE('',#156,(#345,#360),.PCURVE_S1.);
#413=EDGE_CURVE('OSCAD_TOPO/3|edge|e:5162586ceb58d20b3ccea971914d9ade|b5fc7894ef5d378d5a6ecbb4ba83b19c1b104f39ce4e13d0357cd549b1d77c47',#26,#16,#412,.T.);
#414=ORIENTED_EDGE('',*,*,#373,.T.);
#415=ORIENTED_EDGE('',*,*,#375,.T.);
#416=ORIENTED_EDGE('',*,*,#377,.T.);
#417=ORIENTED_EDGE('',*,*,#379,.F.);
#418=ORIENTED_EDGE('',*,*,#381,.F.);
#419=EDGE_LOOP('OSCAD_TOPO/3|loop|l:7b8920fb47ba54b903e35281f9fdb4be|32d9e60df85aa4b468343ab98f60eccf4504261f7736cb4345780066f210e076',(#414,#415,#416,#417,#418));
#420=ORIENTED_EDGE('',*,*,#383,.T.);
#421=ORIENTED_EDGE('',*,*,#385,.F.);
#422=ORIENTED_EDGE('',*,*,#387,.T.);
#423=ORIENTED_EDGE('',*,*,#389,.F.);
#424=EDGE_LOOP('OSCAD_TOPO/3|loop|l:bbc8b26fcc293d0b9a114897edc0eabf|4dee9564646909d830be46ab25de9c2f8bf6ad0dcb5e486f6b1058ec62ce1775',(#420,#421,#422,#423));
#425=ORIENTED_EDGE('',*,*,#381,.T.);
#426=ORIENTED_EDGE('',*,*,#391,.T.);
#427=ORIENTED_EDGE('',*,*,#393,.T.);
#428=ORIENTED_EDGE('',*,*,#383,.F.);
#429=ORIENTED_EDGE('',*,*,#395,.F.);
#430=EDGE_LOOP('OSCAD_TOPO/3|loop|l:0c0b5c1ef9ec643c7ce783de35b2ac63|7469adbb3195526c2a81a06175196ca5bd5cb97a28412b50a0cd656013ddbf70',(#425,#426,#427,#428,#429));
#431=ORIENTED_EDGE('',*,*,#395,.T.);
#432=ORIENTED_EDGE('',*,*,#389,.T.);
#433=ORIENTED_EDGE('',*,*,#397,.F.);
#434=ORIENTED_EDGE('',*,*,#399,.F.);
#435=ORIENTED_EDGE('',*,*,#373,.F.);
#436=EDGE_LOOP('OSCAD_TOPO/3|loop|l:bda4f809938c4151278a08b51299e002|1a5829178a021a508f484e6af07f364617858bb05742675df51524ff56fa3fd4',(#431,#432,#433,#434,#435));
#437=ORIENTED_EDGE('',*,*,#399,.T.);
#438=ORIENTED_EDGE('',*,*,#401,.F.);
#439=ORIENTED_EDGE('',*,*,#403,.F.);
#440=ORIENTED_EDGE('',*,*,#375,.F.);
#441=EDGE_LOOP('OSCAD_TOPO/3|loop|l:c4a6d36497e2e8f735391196ff33b116|925aaab199e7dd43cbc6d35cf3ca156e4e81972db4155d5fa91bdeec3f1627a5',(#437,#438,#439,#440));
#442=ORIENTED_EDGE('',*,*,#379,.T.);
#443=ORIENTED_EDGE('',*,*,#405,.T.);
#444=ORIENTED_EDGE('',*,*,#407,.T.);
#445=ORIENTED_EDGE('',*,*,#391,.F.);
#446=EDGE_LOOP('OSCAD_TOPO/3|loop|l:c1d73c61eb6190dd99abe5a2f11c7002|cbf6fe7bb704511bff316640d7cae9d86eb5961726f46f577f4c1dcf6f3112be',(#442,#443,#444,#445));
#447=ORIENTED_EDGE('',*,*,#403,.T.);
#448=ORIENTED_EDGE('',*,*,#409,.T.);
#449=ORIENTED_EDGE('',*,*,#405,.F.);
#450=ORIENTED_EDGE('',*,*,#377,.F.);
#451=EDGE_LOOP('OSCAD_TOPO/3|loop|l:a2f61b9bdbd6605f5da316e0823f6f9a|182aaa52881904c2a2146c1cd586b52a9e78e0bbe33003e5e50e47dde77010ed',(#447,#448,#449,#450));
#452=ORIENTED_EDGE('',*,*,#397,.T.);
#453=ORIENTED_EDGE('',*,*,#387,.F.);
#454=ORIENTED_EDGE('',*,*,#411,.F.);
#455=ORIENTED_EDGE('',*,*,#401,.T.);
#456=EDGE_LOOP('OSCAD_TOPO/3|loop|l:f98b0336903b815350ef55abf72b59cb|b8adaa04ebde5850e3c8a8f8351b576fbd5f11a84d6d4db482c8d1c88f11e53c',(#452,#453,#454,#455));
#457=ORIENTED_EDGE('',*,*,#407,.F.);
#458=ORIENTED_EDGE('',*,*,#413,.T.);
#459=ORIENTED_EDGE('',*,*,#385,.T.);
#460=ORIENTED_EDGE('',*,*,#393,.F.);
#461=EDGE_LOOP('OSCAD_TOPO/3|loop|l:dce95b36d774980f7fa124f005aaa1df|65f433a68ce66c3d25e3562aff0612ddcc5891c3057303783a54fd47f6856cfa',(#457,#458,#459,#460));
#462=ORIENTED_EDGE('',*,*,#413,.F.);
#463=ORIENTED_EDGE('',*,*,#409,.F.);
#464=ORIENTED_EDGE('',*,*,#411,.T.);
#465=EDGE_LOOP('OSCAD_TOPO/3|loop|l:6d453bfe8f6b02af28bf120dcd94f175|09bffd4bdeb93fa81c221772cc4acd0c056f099a43cf37e2b133220e098070f5',(#462,#463,#464));
#466=FACE_OUTER_BOUND('',#419,.T.);
#467=ADVANCED_FACE('OSCAD_TOPO/3|face|f:ac566413a4de0295b9a4daaed744ecc4|d036372ae47e3064adc6b5301ffdd71ac7a6f8f89a147b6e23e6c3d0f3e1425a',(#466),#31,.T.);
#468=FACE_OUTER_BOUND('',#424,.T.);
#469=ADVANCED_FACE('OSCAD_TOPO/3|face|f:f528f22245c84be4d41afd84cae106d1|2b219e0304cca1669d1143ca19d7599824d93bd703892f5612e856dae29c424b',(#468),#36,.T.);
#470=FACE_OUTER_BOUND('',#430,.T.);
#471=ADVANCED_FACE('OSCAD_TOPO/3|face|f:109b5e9c470e4cdbc5d3b21a873ffb13|2804567f137c22136d57dfd359d0c4ecece8067707bc2a7dd7a1c2134ae735c9',(#470),#41,.T.);
#472=FACE_OUTER_BOUND('',#436,.T.);
#473=ADVANCED_FACE('OSCAD_TOPO/3|face|f:15279f0f2c0c7dcea961cb55fedb2ecf|f85cf05e28dff03892d03fecbcef6b3719bdba9ce6189a13a3b43f5bb8df5dcd',(#472),#46,.T.);
#474=FACE_OUTER_BOUND('',#441,.T.);
#475=ADVANCED_FACE('OSCAD_TOPO/3|face|f:ad6c0d8ab01863e04738914649ff3cb7|7ad1182e3eb17efea5e7dc2df70cc804d3cde91340fb819a6a13989c8050c85c',(#474),#51,.T.);
#476=FACE_OUTER_BOUND('',#446,.T.);
#477=ADVANCED_FACE('OSCAD_TOPO/3|face|f:92ed2febea2a6ed9d8333af338237a65|aab03f051b0feb9ae374a042b08445f0759a86bb423407b80e2ba5862408244d',(#476),#56,.T.);
#478=FACE_OUTER_BOUND('',#451,.T.);
#479=ADVANCED_FACE('OSCAD_TOPO/3|face|f:4aa05d38404f6a5e4f0e3b191cfdb609|34fa35ab857cabf4f34590ac24d8d3cfe3ee7ecdc1c5e67046b2de30e9b48106',(#478),#63,.T.);
#480=FACE_OUTER_BOUND('',#456,.T.);
#481=ADVANCED_FACE('OSCAD_TOPO/3|face|f:d93bc1e10b0817a10fc654d72f4b4608|a8fb0c996577147f05f2b7ccb4fa7b17155462736ce80442153df482e0191960',(#480),#70,.T.);
#482=FACE_OUTER_BOUND('',#461,.T.);
#483=ADVANCED_FACE('OSCAD_TOPO/3|face|f:13d9acfa6b350b6f649d730f07b6dd5a|84288d3629076a852b9cf41916f0a08a4944ce86b760a948ca8fd53b094c26dc',(#482),#77,.T.);
#484=FACE_OUTER_BOUND('',#465,.T.);
#485=ADVANCED_FACE('OSCAD_TOPO/3|face|f:6604b56f0350cd8546c38558bcf9ec19|5253c1e5ab9379c9be5395eb2f2a7a7614017bdf6445e9728eae98e462f4302a',(#484),#87,.T.);
#486=CLOSED_SHELL('OSCAD_TOPO/3|shell|s:0e1908de97441f8f9b1524887789fba3|e7211a0699718a6ff2aee9e59c8413830e9ad31adb8abef36fce8278b9422ec8',(#467,#469,#471,#473,#475,#477,#479,#481,#483,#485));
#487=MANIFOLD_SOLID_BREP('OSCAD_TOPO/3|body|b:54f37d759779ef78d6a6a0453faf31a4|216760e76a7c8abe52517bf1a4b3771af8226c43087665cc2781f9c551bda737',#486);
#488=(LENGTH_UNIT()NAMED_UNIT(*)SI_UNIT(.MILLI.,.METRE.));
#489=UNCERTAINTY_MEASURE_WITH_UNIT(LENGTH_MEASURE(9.99999999999999955E-8),#488,'distance_accuracy_value','');
#490=(GEOMETRIC_REPRESENTATION_CONTEXT(3)GLOBAL_UNCERTAINTY_ASSIGNED_CONTEXT((#489))GLOBAL_UNIT_ASSIGNED_CONTEXT((#488))REPRESENTATION_CONTEXT('','3D'));
#491=ADVANCED_BREP_SHAPE_REPRESENTATION('',(#487),#490);
#492=APPLICATION_CONTEXT('managed model based 3d engineering');
#493=PRODUCT_CONTEXT('',#492,'mechanical');
#494=PRODUCT('model','model','',(#493));
#495=PRODUCT_DEFINITION_FORMATION('1','',#494);
#496=PRODUCT_DEFINITION_CONTEXT('part definition',#492,'design');
#497=PRODUCT_DEFINITION('design','',#495,#496);
#498=PRODUCT_DEFINITION_SHAPE('','',#497);
#499=SHAPE_DEFINITION_REPRESENTATION(#498,#491);
ENDSEC;
END-ISO-10303-21;
