ISO-10303-21;
HEADER;
FILE_DESCRIPTION(('OpenSCAD Viewer retained AP242 B-rep'),'2;1');
FILE_NAME('model.step','',(''),(''),'OpenSCAD Viewer','OpenSCAD Viewer','');
FILE_SCHEMA(('AP242_MANAGED_MODEL_BASED_3D_ENGINEERING_MIM_LF'));
ENDSEC;
DATA;
#1=CARTESIAN_POINT('',(1.16340918753603546E1,-7.86348413932300971E0,1.73506317436056712E1));
#2=VERTEX_POINT('OSCAD_TOPO/3|vertex|v:4e200a65512a894832ffd07ccefbd1a8|278304e73e64d1dc508462d8646167ea56017df93ef3fa18c0476a1e8666a63c',#1);
#3=CARTESIAN_POINT('',(8.74116841964065827E0,-4.04865374474733919E-1,1.73506317436056712E1));
#4=VERTEX_POINT('OSCAD_TOPO/3|vertex|v:b36273913acdb0e18f9ad96e5efbbf26|ea029ebbeb489332a78ad2ebeafc211aad495e0a01201907aa8c104a772e7826',#3);
#5=CARTESIAN_POINT('',(1.92758944834515908E1,-4.89951041899883055E0,2.30793063446104867E1));
#6=VERTEX_POINT('OSCAD_TOPO/3|vertex|v:b2279a1257c4fcf496396948530a5725|ea7ac9071d461c729b336be70a8ee9abe3f64108f54ebfe735f02fd03879371f',#5);
#7=CARTESIAN_POINT('',(8.42949188460303844E0,-9.10643042358044674E0,2.22685198506785476E1));
#8=VERTEX_POINT('OSCAD_TOPO/3|vertex|v:230197d63a82479f9fe71c31ec764b92|858f6f2aaba8e821720e2f1b8dd5bc364e0f4cf7e3a94aa6858304f936d46d16',#7);
#9=CARTESIAN_POINT('',(1.44725203757090863E1,1.81811491576840112E0,2.16471376943592837E1));
#10=VERTEX_POINT('OSCAD_TOPO/3|vertex|v:4a62ccf01f4bb351cf593f16644d204b|061a0fc9eb2734f1aa4da6bab8484ab579bf33c477d8d451f33fab99c9fe968c',#9);
#11=CARTESIAN_POINT('',(1.72870096076443005E1,2.28289981834359779E-1,2.30793063446104867E1));
#12=VERTEX_POINT('OSCAD_TOPO/3|vertex|v:c9513f828bdb84575a2937ab378d90ab|a3d732255f2a8fd9af1c4191256fcfacaa87d282ecdc7bfbd8abf183b46e36a4',#11);
#13=CARTESIAN_POINT('',(1.26031703811006501E1,1.09306291661822930E0,2.45159057568184622E1));
#14=VERTEX_POINT('OSCAD_TOPO/3|vertex|v:3247b6e6f197f4bbcc2a2bf3b49e3aef|3511d8968190e7399160b8dcbc32601f2fcc6961dc6009cd6f5801a64a623988',#13);
#15=CARTESIAN_POINT('',(1.54176596130358643E1,-4.96762017315812265E-1,2.59480744070696652E1));
#16=VERTEX_POINT('OSCAD_TOPO/3|vertex|v:142b5ff5c034f5bb3cdac43d29488c11|cbbe455e41e17f90e6388ffe3ac34e1d52d6cc63fec8a47ce5dffe9ed720bb68',#15);
#17=CARTESIAN_POINT('',(1.21719589648641744E1,-1.75564973250412271E0,2.65650258014321601E1));
#18=VERTEX_POINT('OSCAD_TOPO/3|vertex|v:07305045b4eae9b077797080f76c841a|4ebcb86777bd251d5250736acd42463b7d69290efa1d79657bc1879a2da7b6aa',#17);
#19=CARTESIAN_POINT('',(6.87181842503222295E0,-1.12991737362490596E0,2.02193998060648497E1));
#20=VERTEX_POINT('OSCAD_TOPO/3|vertex|v:8728c94662408ed4f8e0b1eb9e29c28c|83a83c3a363c1df29a106f37480d8e892865995ec89ac75004ae7c08968808f7',#19);
#21=CARTESIAN_POINT('',(6.44060700879574632E0,-3.97863002274725730E0,2.22685198506785476E1));
#22=VERTEX_POINT('OSCAD_TOPO/3|vertex|v:272603ed82166a9ff5ecf1b1cbc7cffd|56d61fd2acb3cf6f19700cb47d8cc5f1fd29e6c8190c9a1a842880a7c380ecd9',#21);
#23=CARTESIAN_POINT('',(1.74065444888431564E1,-5.62456241814900260E0,2.59480744070696652E1));
#24=VERTEX_POINT('OSCAD_TOPO/3|vertex|v:53d63f20d72ca40dbb83fb2537e4ba66|de4ba33ce27b793d6f3e941f826d71c60138a4fba6a81444f70506fd63b420b3',#23);
#25=CARTESIAN_POINT('',(1.41608438406714647E1,-6.88345013333731259E0,2.65650258014321601E1));
#26=VERTEX_POINT('OSCAD_TOPO/3|vertex|v:d9c8ae238a6017aef2fa07eecf3c1163|0cb2698c3231ac03895b8caf1b3d5a196dae6295af64ebf0ee7483f332b5dba2',#25);
#27=CARTESIAN_POINT('',(1.16340918753603546E1,-7.86348413932300971E0,1.73506317436056712E1));
#28=CARTESIAN_POINT('',(1.92758944834515908E1,-4.89951041899883055E0,2.30793063446104867E1));
#29=CARTESIAN_POINT('',(8.74116841964065827E0,-4.04865374474734807E-1,1.73506317436056712E1));
#30=CARTESIAN_POINT('',(1.63829710277318945E1,2.55910834584944524E0,2.30793063446104867E1));
#31=B_SPLINE_SURFACE_WITH_KNOTS('',1,1,((#27,#28),(#29,#30)),.UNSPECIFIED.,.F.,.F.,.F.,(2,2),(2,2),(0.00000000000000000E0,1.00000000000000000E0),(0.00000000000000000E0,1.00000000000000000E0),.UNSPECIFIED.);
#32=CARTESIAN_POINT('',(5.53656842888334122E0,-1.64781165873217228E0,2.22685198506785476E1));
#33=CARTESIAN_POINT('',(1.31783710369745766E1,1.31616206159200777E0,2.79971944516833631E1));
#34=CARTESIAN_POINT('',(8.42949188460303844E0,-9.10643042358044674E0,2.22685198506785476E1));
#35=CARTESIAN_POINT('',(1.60712944926942747E1,-6.14245670325626758E0,2.79971944516833631E1));
#36=B_SPLINE_SURFACE_WITH_KNOTS('',1,1,((#32,#33),(#34,#35)),.UNSPECIFIED.,.F.,.F.,.F.,(2,2),(2,2),(0.00000000000000000E0,1.00000000000000000E0),(0.00000000000000000E0,1.00000000000000000E0),.UNSPECIFIED.);
#37=CARTESIAN_POINT('',(1.16340918753603546E1,-7.86348413932300971E0,1.73506317436056712E1));
#38=CARTESIAN_POINT('',(8.42949188460303844E0,-9.10643042358044674E0,2.22685198506785476E1));
#39=CARTESIAN_POINT('',(1.92758944834515908E1,-4.89951041899883055E0,2.30793063446104867E1));
#40=CARTESIAN_POINT('',(1.60712944926942747E1,-6.14245670325626758E0,2.79971944516833631E1));
#41=B_SPLINE_SURFACE_WITH_KNOTS('',1,1,((#37,#38),(#39,#40)),.UNSPECIFIED.,.F.,.F.,.F.,(2,2),(2,2),(0.00000000000000000E0,1.00000000000000000E0),(0.00000000000000000E0,1.00000000000000000E0),.UNSPECIFIED.);
#42=CARTESIAN_POINT('',(8.74116841964065827E0,-4.04865374474734807E-1,1.73506317436056712E1));
#43=CARTESIAN_POINT('',(5.53656842888334122E0,-1.64781165873217228E0,2.22685198506785476E1));
#44=CARTESIAN_POINT('',(1.16340918753603546E1,-7.86348413932300971E0,1.73506317436056712E1));
#45=CARTESIAN_POINT('',(8.42949188460303844E0,-9.10643042358044674E0,2.22685198506785476E1));
#46=B_SPLINE_SURFACE_WITH_KNOTS('',1,1,((#42,#43),(#44,#45)),.UNSPECIFIED.,.F.,.F.,.F.,(2,2),(2,2),(0.00000000000000000E0,1.00000000000000000E0),(0.00000000000000000E0,1.00000000000000000E0),.UNSPECIFIED.);
#47=CARTESIAN_POINT('',(1.63829710277318945E1,2.55910834584944613E0,2.30793063446104867E1));
#48=CARTESIAN_POINT('',(1.31783710369745766E1,1.31616206159200866E0,2.79971944516833631E1));
#49=CARTESIAN_POINT('',(8.74116841964065827E0,-4.04865374474733919E-1,1.73506317436056712E1));
#50=CARTESIAN_POINT('',(5.53656842888334122E0,-1.64781165873217139E0,2.22685198506785476E1));
#51=B_SPLINE_SURFACE_WITH_KNOTS('',1,1,((#47,#48),(#49,#50)),.UNSPECIFIED.,.F.,.F.,.F.,(2,2),(2,2),(0.00000000000000000E0,1.00000000000000000E0),(0.00000000000000000E0,1.00000000000000000E0),.UNSPECIFIED.);
#52=CARTESIAN_POINT('',(1.92758944834515908E1,-4.89951041899883055E0,2.30793063446104867E1));
#53=CARTESIAN_POINT('',(1.60712944926942747E1,-6.14245670325626758E0,2.79971944516833631E1));
#54=CARTESIAN_POINT('',(1.63829710277318945E1,2.55910834584944524E0,2.30793063446104867E1));
#55=CARTESIAN_POINT('',(1.31783710369745766E1,1.31616206159200777E0,2.79971944516833631E1));
#56=B_SPLINE_SURFACE_WITH_KNOTS('',1,1,((#52,#53),(#54,#55)),.UNSPECIFIED.,.F.,.F.,.F.,(2,2),(2,2),(0.00000000000000000E0,1.00000000000000000E0),(0.00000000000000000E0,1.00000000000000000E0),.UNSPECIFIED.);
#57=CARTESIAN_POINT('',(1.72870096076443005E1,2.28289981834359779E-1,2.30793063446104867E1));
#58=CARTESIAN_POINT('',(1.54176596130358643E1,-4.96762017315812265E-1,2.59480744070696652E1));
#59=CARTESIAN_POINT('',(1.63829710277318945E1,2.55910834584944613E0,2.30793063446104867E1));
#60=CARTESIAN_POINT('',(1.45136210331234583E1,1.83405634669927409E0,2.59480744070696652E1));
#61=CARTESIAN_POINT('',(1.44725203757090863E1,1.81811491576840112E0,2.16471376943592837E1));
#62=CARTESIAN_POINT('',(1.26031703811006501E1,1.09306291661822930E0,2.45159057568184622E1));
#63=(BOUNDED_SURFACE()B_SPLINE_SURFACE(2,1,((#57,#58),(#59,#60),(#61,#62)),.UNSPECIFIED.,.F.,.F.,.F.)B_SPLINE_SURFACE_WITH_KNOTS((3,3),(2,2),(0.00000000000000000E0,1.00000000000000000E0),(0.00000000000000000E0,1.00000000000000000E0),.UNSPECIFIED.)GEOMETRIC_REPRESENTATION_ITEM()RATIONAL_B_SPLINE_SURFACE(((1.00000000000000000E0,1.00000000000000000E0),(7.07106781186547573E-1,7.07106781186547573E-1),(1.00000000000000000E0,1.00000000000000000E0)))REPRESENTATION_ITEM('')SURFACE());
#64=CARTESIAN_POINT('',(6.87181842503222295E0,-1.12991737362490596E0,2.02193998060648497E1));
#65=CARTESIAN_POINT('',(1.26031703811006501E1,1.09306291661822930E0,2.45159057568184622E1));
#66=CARTESIAN_POINT('',(5.53656842888334122E0,-1.64781165873217139E0,2.22685198506785476E1));
#67=CARTESIAN_POINT('',(1.12679203849517684E1,5.75168631510963868E-1,2.65650258014321601E1));
#68=CARTESIAN_POINT('',(6.44060700879574632E0,-3.97863002274725730E0,2.22685198506785476E1));
#69=CARTESIAN_POINT('',(1.21719589648641744E1,-1.75564973250412271E0,2.65650258014321601E1));
#70=(BOUNDED_SURFACE()B_SPLINE_SURFACE(2,1,((#64,#65),(#66,#67),(#68,#69)),.UNSPECIFIED.,.F.,.F.,.F.)B_SPLINE_SURFACE_WITH_KNOTS((3,3),(2,2),(0.00000000000000000E0,1.00000000000000000E0),(0.00000000000000000E0,1.00000000000000000E0),.UNSPECIFIED.)GEOMETRIC_REPRESENTATION_ITEM()RATIONAL_B_SPLINE_SURFACE(((2.00000000000000000E0,2.00000000000000000E0),(1.00000000000000000E0,1.00000000000000000E0),(1.00000000000000000E0,1.00000000000000000E0)))REPRESENTATION_ITEM('')SURFACE());
#71=CARTESIAN_POINT('',(1.41608438406714647E1,-6.88345013333731259E0,2.65650258014321601E1));
#72=CARTESIAN_POINT('',(1.21719589648641744E1,-1.75564973250412271E0,2.65650258014321601E1));
#73=CARTESIAN_POINT('',(1.60712944926942747E1,-6.14245670325626758E0,2.79971944516833631E1));
#74=CARTESIAN_POINT('',(1.40824096168869826E1,-1.01465630242307769E0,2.79971944516833631E1));
#75=CARTESIAN_POINT('',(1.74065444888431564E1,-5.62456241814900260E0,2.59480744070696652E1));
#76=CARTESIAN_POINT('',(1.54176596130358643E1,-4.96762017315812265E-1,2.59480744070696652E1));
#77=(BOUNDED_SURFACE()B_SPLINE_SURFACE(2,1,((#71,#72),(#73,#74),(#75,#76)),.UNSPECIFIED.,.F.,.F.,.F.)B_SPLINE_SURFACE_WITH_KNOTS((3,3),(2,2),(0.00000000000000000E0,1.00000000000000000E0),(0.00000000000000000E0,1.00000000000000000E0),.UNSPECIFIED.)GEOMETRIC_REPRESENTATION_ITEM()RATIONAL_B_SPLINE_SURFACE(((1.00000000000000000E0,1.00000000000000000E0),(1.00000000000000000E0,1.00000000000000000E0),(2.00000000000000000E0,2.00000000000000000E0)))REPRESENTATION_ITEM('')SURFACE());
#78=CARTESIAN_POINT('',(1.26031703811006501E1,1.09306291661822930E0,2.45159057568184622E1));
#79=CARTESIAN_POINT('',(1.35583957071120551E1,1.46355963165875180E0,2.52319900819440655E1));
#80=CARTESIAN_POINT('',(1.46232336744696170E1,9.82750510369652330E-1,2.47876448421146982E1));
#81=CARTESIAN_POINT('',(1.12679203849517684E1,5.75168631510963868E-1,2.65650258014321601E1));
#82=CARTESIAN_POINT('',(1.31783710369745766E1,1.31616206159200866E0,2.79971944516833631E1));
#83=CARTESIAN_POINT('',(1.49656403230796613E1,6.68647164691731022E-1,2.59480744070696652E1));
#84=CARTESIAN_POINT('',(1.21719589648641744E1,-1.75564973250412271E0,2.65650258014321601E1));
#85=CARTESIAN_POINT('',(1.40824096168869826E1,-1.01465630242307769E0,2.79971944516833631E1));
#86=CARTESIAN_POINT('',(1.54176596130358643E1,-4.96762017315812265E-1,2.59480744070696652E1));
#87=(BOUNDED_SURFACE()B_SPLINE_SURFACE(2,2,((#78,#79,#80),(#81,#82,#83),(#84,#85,#86)),.UNSPECIFIED.,.F.,.F.,.F.)B_SPLINE_SURFACE_WITH_KNOTS((3,3),(3,3),(0.00000000000000000E0,1.00000000000000000E0),(0.00000000000000000E0,1.00000000000000000E0),.UNSPECIFIED.)GEOMETRIC_REPRESENTATION_ITEM()RATIONAL_B_SPLINE_SURFACE(((2.00000000000000000E0,2.00000000000000000E0,3.00000000000000000E0),(1.00000000000000000E0,1.00000000000000000E0,2.00000000000000000E0),(1.00000000000000000E0,1.00000000000000000E0,2.00000000000000000E0)))REPRESENTATION_ITEM('')SURFACE());
#88=CARTESIAN_POINT('',(1.16340918753603546E1,-7.86348413932300971E0,1.73506317436056712E1));
#89=CARTESIAN_POINT('',(8.74116841964065827E0,-4.04865374474733919E-1,1.73506317436056712E1));
#90=B_SPLINE_CURVE_WITH_KNOTS('',1,(#88,#89),.UNSPECIFIED.,.F.,.F.,(2,2),(0.00000000000000000E0,1.00000000000000000E0),.UNSPECIFIED.);
#91=CARTESIAN_POINT('',(8.74116841964065827E0,-4.04865374474733919E-1,1.73506317436056712E1));
#92=CARTESIAN_POINT('',(1.44725203757090863E1,1.81811491576840112E0,2.16471376943592837E1));
#93=B_SPLINE_CURVE_WITH_KNOTS('',1,(#91,#92),.UNSPECIFIED.,.F.,.F.,(2,2),(0.00000000000000000E0,1.00000000000000000E0),.UNSPECIFIED.);
#94=CARTESIAN_POINT('',(1.92758944834515908E1,-4.89951041899883055E0,2.30793063446104867E1));
#95=CARTESIAN_POINT('',(1.72870096076443005E1,2.28289981834359779E-1,2.30793063446104867E1));
#96=B_SPLINE_CURVE_WITH_KNOTS('',1,(#94,#95),.UNSPECIFIED.,.F.,.F.,(2,2),(0.00000000000000000E0,1.00000000000000000E0),.UNSPECIFIED.);
#97=CARTESIAN_POINT('',(1.16340918753603546E1,-7.86348413932300971E0,1.73506317436056712E1));
#98=CARTESIAN_POINT('',(1.92758944834515908E1,-4.89951041899883055E0,2.30793063446104867E1));
#99=B_SPLINE_CURVE_WITH_KNOTS('',1,(#97,#98),.UNSPECIFIED.,.F.,.F.,(2,2),(0.00000000000000000E0,1.00000000000000000E0),.UNSPECIFIED.);
#100=CARTESIAN_POINT('',(1.16340918753603546E1,-7.86348413932300971E0,1.73506317436056712E1));
#101=CARTESIAN_POINT('',(8.42949188460303844E0,-9.10643042358044674E0,2.22685198506785476E1));
#102=B_SPLINE_CURVE_WITH_KNOTS('',1,(#100,#101),.UNSPECIFIED.,.F.,.F.,(2,2),(0.00000000000000000E0,1.00000000000000000E0),.UNSPECIFIED.);
#103=CARTESIAN_POINT('',(8.74116841964065827E0,-4.04865374474733919E-1,1.73506317436056712E1));
#104=CARTESIAN_POINT('',(6.87181842503222295E0,-1.12991737362490596E0,2.02193998060648497E1));
#105=B_SPLINE_CURVE_WITH_KNOTS('',1,(#103,#104),.UNSPECIFIED.,.F.,.F.,(2,2),(0.00000000000000000E0,1.00000000000000000E0),.UNSPECIFIED.);
#106=CARTESIAN_POINT('',(1.26031703811006501E1,1.09306291661822930E0,2.45159057568184622E1));
#107=CARTESIAN_POINT('',(6.87181842503222295E0,-1.12991737362490596E0,2.02193998060648497E1));
#108=B_SPLINE_CURVE_WITH_KNOTS('',1,(#106,#107),.UNSPECIFIED.,.F.,.F.,(2,2),(0.00000000000000000E0,1.00000000000000000E0),.UNSPECIFIED.);
#109=CARTESIAN_POINT('',(1.44725203757090863E1,1.81811491576840112E0,2.16471376943592837E1));
#110=CARTESIAN_POINT('',(1.26031703811006501E1,1.09306291661822930E0,2.45159057568184622E1));
#111=B_SPLINE_CURVE_WITH_KNOTS('',1,(#109,#110),.UNSPECIFIED.,.F.,.F.,(2,2),(0.00000000000000000E0,1.00000000000000000E0),.UNSPECIFIED.);
#112=CARTESIAN_POINT('',(1.72870096076443005E1,2.28289981834359779E-1,2.30793063446104867E1));
#113=CARTESIAN_POINT('',(1.54176596130358643E1,-4.96762017315812265E-1,2.59480744070696652E1));
#114=B_SPLINE_CURVE_WITH_KNOTS('',1,(#112,#113),.UNSPECIFIED.,.F.,.F.,(2,2),(0.00000000000000000E0,1.00000000000000000E0),.UNSPECIFIED.);
#115=CARTESIAN_POINT('',(1.92758944834515908E1,-4.89951041899883055E0,2.30793063446104867E1));
#116=CARTESIAN_POINT('',(1.74065444888431564E1,-5.62456241814900260E0,2.59480744070696652E1));
#117=B_SPLINE_CURVE_WITH_KNOTS('',1,(#115,#116),.UNSPECIFIED.,.F.,.F.,(2,2),(0.00000000000000000E0,1.00000000000000000E0),.UNSPECIFIED.);
#118=CARTESIAN_POINT('',(1.54176596130358643E1,-4.96762017315812265E-1,2.59480744070696652E1));
#119=CARTESIAN_POINT('',(1.74065444888431564E1,-5.62456241814900260E0,2.59480744070696652E1));
#120=B_SPLINE_CURVE_WITH_KNOTS('',1,(#118,#119),.UNSPECIFIED.,.F.,.F.,(2,2),(0.00000000000000000E0,1.00000000000000000E0),.UNSPECIFIED.);
#121=CARTESIAN_POINT('',(8.42949188460303844E0,-9.10643042358044674E0,2.22685198506785476E1));
#122=CARTESIAN_POINT('',(6.44060700879574632E0,-3.97863002274725730E0,2.22685198506785476E1));
#123=B_SPLINE_CURVE_WITH_KNOTS('',1,(#121,#122),.UNSPECIFIED.,.F.,.F.,(2,2),(0.00000000000000000E0,1.00000000000000000E0),.UNSPECIFIED.);
#124=CARTESIAN_POINT('',(1.21719589648641744E1,-1.75564973250412271E0,2.65650258014321601E1));
#125=CARTESIAN_POINT('',(6.44060700879574632E0,-3.97863002274725730E0,2.22685198506785476E1));
#126=B_SPLINE_CURVE_WITH_KNOTS('',1,(#124,#125),.UNSPECIFIED.,.F.,.F.,(2,2),(0.00000000000000000E0,1.00000000000000000E0),.UNSPECIFIED.);
#127=CARTESIAN_POINT('',(8.42949188460303844E0,-9.10643042358044674E0,2.22685198506785476E1));
#128=CARTESIAN_POINT('',(1.41608438406714647E1,-6.88345013333731259E0,2.65650258014321601E1));
#129=B_SPLINE_CURVE_WITH_KNOTS('',1,(#127,#128),.UNSPECIFIED.,.F.,.F.,(2,2),(0.00000000000000000E0,1.00000000000000000E0),.UNSPECIFIED.);
#130=CARTESIAN_POINT('',(1.21719589648641744E1,-1.75564973250412271E0,2.65650258014321601E1));
#131=CARTESIAN_POINT('',(1.41608438406714647E1,-6.88345013333731259E0,2.65650258014321601E1));
#132=B_SPLINE_CURVE_WITH_KNOTS('',1,(#130,#131),.UNSPECIFIED.,.F.,.F.,(2,2),(0.00000000000000000E0,1.00000000000000000E0),.UNSPECIFIED.);
#133=CARTESIAN_POINT('',(1.44725203757090863E1,1.81811491576840112E0,2.16471376943592837E1));
#134=CARTESIAN_POINT('',(1.63829710277318945E1,2.55910834584944613E0,2.30793063446104867E1));
#135=CARTESIAN_POINT('',(1.72870096076443005E1,2.28289981834359779E-1,2.30793063446104867E1));
#136=(BOUNDED_CURVE()B_SPLINE_CURVE(2,(#133,#134,#135),.UNSPECIFIED.,.F.,.F.)B_SPLINE_CURVE_WITH_KNOTS((3,3),(0.00000000000000000E0,1.00000000000000000E0),.UNSPECIFIED.)CURVE()GEOMETRIC_REPRESENTATION_ITEM()RATIONAL_B_SPLINE_CURVE((1.00000000000000000E0,7.07106781186547573E-1,1.00000000000000000E0))REPRESENTATION_ITEM(''));
#137=CARTESIAN_POINT('',(1.26031703811006501E1,1.09306291661822930E0,2.45159057568184622E1));
#138=CARTESIAN_POINT('',(1.45136210331234583E1,1.83405634669927409E0,2.59480744070696652E1));
#139=CARTESIAN_POINT('',(1.54176596130358643E1,-4.96762017315812265E-1,2.59480744070696652E1));
#140=(BOUNDED_CURVE()B_SPLINE_CURVE(2,(#137,#138,#139),.UNSPECIFIED.,.F.,.F.)B_SPLINE_CURVE_WITH_KNOTS((3,3),(0.00000000000000000E0,1.00000000000000000E0),.UNSPECIFIED.)CURVE()GEOMETRIC_REPRESENTATION_ITEM()RATIONAL_B_SPLINE_CURVE((1.00000000000000000E0,7.07106781186547573E-1,1.00000000000000000E0))REPRESENTATION_ITEM(''));
#141=CARTESIAN_POINT('',(1.26031703811006501E1,1.09306291661822930E0,2.45159057568184622E1));
#142=CARTESIAN_POINT('',(1.12679203849517684E1,5.75168631510963868E-1,2.65650258014321601E1));
#143=CARTESIAN_POINT('',(1.21719589648641744E1,-1.75564973250412271E0,2.65650258014321601E1));
#144=(BOUNDED_CURVE()B_SPLINE_CURVE(2,(#141,#142,#143),.UNSPECIFIED.,.F.,.F.)B_SPLINE_CURVE_WITH_KNOTS((3,3),(0.00000000000000000E0,1.00000000000000000E0),.UNSPECIFIED.)CURVE()GEOMETRIC_REPRESENTATION_ITEM()RATIONAL_B_SPLINE_CURVE((2.00000000000000000E0,1.00000000000000000E0,1.00000000000000000E0))REPRESENTATION_ITEM(''));
#145=CARTESIAN_POINT('',(1.54176596130358643E1,-4.96762017315812265E-1,2.59480744070696652E1));
#146=CARTESIAN_POINT('',(1.40824096168869826E1,-1.01465630242307769E0,2.79971944516833631E1));
#147=CARTESIAN_POINT('',(1.21719589648641744E1,-1.75564973250412271E0,2.65650258014321601E1));
#148=(BOUNDED_CURVE()B_SPLINE_CURVE(2,(#145,#146,#147),.UNSPECIFIED.,.F.,.F.)B_SPLINE_CURVE_WITH_KNOTS((3,3),(0.00000000000000000E0,1.00000000000000000E0),.UNSPECIFIED.)CURVE()GEOMETRIC_REPRESENTATION_ITEM()RATIONAL_B_SPLINE_CURVE((2.00000000000000000E0,1.00000000000000000E0,1.00000000000000000E0))REPRESENTATION_ITEM(''));
#149=CARTESIAN_POINT('',(6.87181842503222295E0,-1.12991737362490596E0,2.02193998060648497E1));
#150=CARTESIAN_POINT('',(5.53656842888334122E0,-1.64781165873217139E0,2.22685198506785476E1));
#151=CARTESIAN_POINT('',(6.44060700879574632E0,-3.97863002274725730E0,2.22685198506785476E1));
#152=(BOUNDED_CURVE()B_SPLINE_CURVE(2,(#149,#150,#151),.UNSPECIFIED.,.F.,.F.)B_SPLINE_CURVE_WITH_KNOTS((3,3),(0.00000000000000000E0,1.00000000000000000E0),.UNSPECIFIED.)CURVE()GEOMETRIC_REPRESENTATION_ITEM()RATIONAL_B_SPLINE_CURVE((2.00000000000000000E0,1.00000000000000000E0,1.00000000000000000E0))REPRESENTATION_ITEM(''));
#153=CARTESIAN_POINT('',(1.74065444888431564E1,-5.62456241814900260E0,2.59480744070696652E1));
#154=CARTESIAN_POINT('',(1.60712944926942747E1,-6.14245670325626758E0,2.79971944516833631E1));
#155=CARTESIAN_POINT('',(1.41608438406714647E1,-6.88345013333731259E0,2.65650258014321601E1));
#156=(BOUNDED_CURVE()B_SPLINE_CURVE(2,(#153,#154,#155),.UNSPECIFIED.,.F.,.F.)B_SPLINE_CURVE_WITH_KNOTS((3,3),(0.00000000000000000E0,1.00000000000000000E0),.UNSPECIFIED.)CURVE()GEOMETRIC_REPRESENTATION_ITEM()RATIONAL_B_SPLINE_CURVE((2.00000000000000000E0,1.00000000000000000E0,1.00000000000000000E0))REPRESENTATION_ITEM(''));
#157=(GEOMETRIC_REPRESENTATION_CONTEXT(2)REPRESENTATION_CONTEXT('','2D'));
#158=CARTESIAN_POINT('',(0.00000000000000000E0,0.00000000000000000E0));
#159=CARTESIAN_POINT('',(1.00000000000000000E0,0.00000000000000000E0));
#160=B_SPLINE_CURVE_WITH_KNOTS('',1,(#158,#159),.UNSPECIFIED.,.F.,.F.,(2,2),(0.00000000000000000E0,1.00000000000000000E0),.UNSPECIFIED.);
#161=DEFINITIONAL_REPRESENTATION('',(#160),#157);
#162=PCURVE('',#31,#161);
#163=CARTESIAN_POINT('',(1.00000000000000000E0,0.00000000000000000E0));
#164=CARTESIAN_POINT('',(1.00000000000000000E0,7.50000000000000111E-1));
#165=B_SPLINE_CURVE_WITH_KNOTS('',1,(#163,#164),.UNSPECIFIED.,.F.,.F.,(2,2),(0.00000000000000000E0,1.00000000000000000E0),.UNSPECIFIED.);
#166=DEFINITIONAL_REPRESENTATION('',(#165),#157);
#167=PCURVE('',#31,#166);
#168=CARTESIAN_POINT('',(1.00000000000000000E0,7.50000000000000111E-1));
#169=CARTESIAN_POINT('',(1.00000000000000000E0,1.00000000000000000E0));
#170=CARTESIAN_POINT('',(6.87500000000000111E-1,1.00000000000000000E0));
#171=(BOUNDED_CURVE()B_SPLINE_CURVE(2,(#168,#169,#170),.UNSPECIFIED.,.F.,.F.)B_SPLINE_CURVE_WITH_KNOTS((3,3),(0.00000000000000000E0,1.00000000000000000E0),.UNSPECIFIED.)CURVE()GEOMETRIC_REPRESENTATION_ITEM()RATIONAL_B_SPLINE_CURVE((1.00000000000000000E0,7.07106781186547573E-1,1.00000000000000000E0))REPRESENTATION_ITEM(''));
#172=DEFINITIONAL_REPRESENTATION('',(#171),#157);
#173=PCURVE('',#31,#172);
#174=CARTESIAN_POINT('',(6.87500000000000111E-1,1.00000000000000000E0));
#175=CARTESIAN_POINT('',(0.00000000000000000E0,1.00000000000000000E0));
#176=B_SPLINE_CURVE_WITH_KNOTS('',1,(#174,#175),.UNSPECIFIED.,.F.,.F.,(2,2),(0.00000000000000000E0,1.00000000000000000E0),.UNSPECIFIED.);
#177=DEFINITIONAL_REPRESENTATION('',(#176),#157);
#178=PCURVE('',#31,#177);
#179=CARTESIAN_POINT('',(0.00000000000000000E0,1.00000000000000000E0));
#180=CARTESIAN_POINT('',(0.00000000000000000E0,0.00000000000000000E0));
#181=B_SPLINE_CURVE_WITH_KNOTS('',1,(#179,#180),.UNSPECIFIED.,.F.,.F.,(2,2),(0.00000000000000000E0,1.00000000000000000E0),.UNSPECIFIED.);
#182=DEFINITIONAL_REPRESENTATION('',(#181),#157);
#183=PCURVE('',#31,#182);
#184=CARTESIAN_POINT('',(1.00000000000000000E0,0.00000000000000000E0));
#185=CARTESIAN_POINT('',(1.00000000000000000E0,7.50000000000000111E-1));
#186=B_SPLINE_CURVE_WITH_KNOTS('',1,(#184,#185),.UNSPECIFIED.,.F.,.F.,(2,2),(0.00000000000000000E0,1.00000000000000000E0),.UNSPECIFIED.);
#187=DEFINITIONAL_REPRESENTATION('',(#186),#157);
#188=PCURVE('',#36,#187);
#189=CARTESIAN_POINT('',(1.00000000000000000E0,7.50000000000000111E-1));
#190=CARTESIAN_POINT('',(3.12499999999999889E-1,7.50000000000000111E-1));
#191=B_SPLINE_CURVE_WITH_KNOTS('',1,(#189,#190),.UNSPECIFIED.,.F.,.F.,(2,2),(0.00000000000000000E0,1.00000000000000000E0),.UNSPECIFIED.);
#192=DEFINITIONAL_REPRESENTATION('',(#191),#157);
#193=PCURVE('',#36,#192);
#194=CARTESIAN_POINT('',(3.12499999999999889E-1,7.50000000000000111E-1));
#195=CARTESIAN_POINT('',(3.12499999999999889E-1,0.00000000000000000E0));
#196=B_SPLINE_CURVE_WITH_KNOTS('',1,(#194,#195),.UNSPECIFIED.,.F.,.F.,(2,2),(0.00000000000000000E0,1.00000000000000000E0),.UNSPECIFIED.);
#197=DEFINITIONAL_REPRESENTATION('',(#196),#157);
#198=PCURVE('',#36,#197);
#199=CARTESIAN_POINT('',(3.12499999999999889E-1,0.00000000000000000E0));
#200=CARTESIAN_POINT('',(1.00000000000000000E0,0.00000000000000000E0));
#201=B_SPLINE_CURVE_WITH_KNOTS('',1,(#199,#200),.UNSPECIFIED.,.F.,.F.,(2,2),(0.00000000000000000E0,1.00000000000000000E0),.UNSPECIFIED.);
#202=DEFINITIONAL_REPRESENTATION('',(#201),#157);
#203=PCURVE('',#36,#202);
#204=CARTESIAN_POINT('',(0.00000000000000000E0,0.00000000000000000E0));
#205=CARTESIAN_POINT('',(1.00000000000000000E0,0.00000000000000000E0));
#206=B_SPLINE_CURVE_WITH_KNOTS('',1,(#204,#205),.UNSPECIFIED.,.F.,.F.,(2,2),(0.00000000000000000E0,1.00000000000000000E0),.UNSPECIFIED.);
#207=DEFINITIONAL_REPRESENTATION('',(#206),#157);
#208=PCURVE('',#41,#207);
#209=CARTESIAN_POINT('',(1.00000000000000000E0,0.00000000000000000E0));
#210=CARTESIAN_POINT('',(1.00000000000000000E0,5.83333333333333481E-1));
#211=B_SPLINE_CURVE_WITH_KNOTS('',1,(#209,#210),.UNSPECIFIED.,.F.,.F.,(2,2),(0.00000000000000000E0,1.00000000000000000E0),.UNSPECIFIED.);
#212=DEFINITIONAL_REPRESENTATION('',(#211),#157);
#213=PCURVE('',#41,#212);
#214=CARTESIAN_POINT('',(1.00000000000000000E0,5.83333333333333481E-1));
#215=CARTESIAN_POINT('',(1.00000000000000000E0,1.00000000000000000E0));
#216=CARTESIAN_POINT('',(7.50000000000000111E-1,1.00000000000000000E0));
#217=(BOUNDED_CURVE()B_SPLINE_CURVE(2,(#214,#215,#216),.UNSPECIFIED.,.F.,.F.)B_SPLINE_CURVE_WITH_KNOTS((3,3),(0.00000000000000000E0,1.00000000000000000E0),.UNSPECIFIED.)CURVE()GEOMETRIC_REPRESENTATION_ITEM()RATIONAL_B_SPLINE_CURVE((2.00000000000000000E0,1.00000000000000000E0,1.00000000000000000E0))REPRESENTATION_ITEM(''));
#218=DEFINITIONAL_REPRESENTATION('',(#217),#157);
#219=PCURVE('',#41,#218);
#220=CARTESIAN_POINT('',(7.50000000000000111E-1,1.00000000000000000E0));
#221=CARTESIAN_POINT('',(0.00000000000000000E0,1.00000000000000000E0));
#222=B_SPLINE_CURVE_WITH_KNOTS('',1,(#220,#221),.UNSPECIFIED.,.F.,.F.,(2,2),(0.00000000000000000E0,1.00000000000000000E0),.UNSPECIFIED.);
#223=DEFINITIONAL_REPRESENTATION('',(#222),#157);
#224=PCURVE('',#41,#223);
#225=CARTESIAN_POINT('',(0.00000000000000000E0,1.00000000000000000E0));
#226=CARTESIAN_POINT('',(0.00000000000000000E0,0.00000000000000000E0));
#227=B_SPLINE_CURVE_WITH_KNOTS('',1,(#225,#226),.UNSPECIFIED.,.F.,.F.,(2,2),(0.00000000000000000E0,1.00000000000000000E0),.UNSPECIFIED.);
#228=DEFINITIONAL_REPRESENTATION('',(#227),#157);
#229=PCURVE('',#41,#228);
#230=CARTESIAN_POINT('',(1.00000000000000000E0,0.00000000000000000E0));
#231=CARTESIAN_POINT('',(1.00000000000000000E0,1.00000000000000000E0));
#232=B_SPLINE_CURVE_WITH_KNOTS('',1,(#230,#231),.UNSPECIFIED.,.F.,.F.,(2,2),(0.00000000000000000E0,1.00000000000000000E0),.UNSPECIFIED.);
#233=DEFINITIONAL_REPRESENTATION('',(#232),#157);
#234=PCURVE('',#46,#233);
#235=CARTESIAN_POINT('',(1.00000000000000000E0,1.00000000000000000E0));
#236=CARTESIAN_POINT('',(3.12499999999999889E-1,1.00000000000000000E0));
#237=B_SPLINE_CURVE_WITH_KNOTS('',1,(#235,#236),.UNSPECIFIED.,.F.,.F.,(2,2),(0.00000000000000000E0,1.00000000000000000E0),.UNSPECIFIED.);
#238=DEFINITIONAL_REPRESENTATION('',(#237),#157);
#239=PCURVE('',#46,#238);
#240=CARTESIAN_POINT('',(3.12499999999999889E-1,1.00000000000000000E0));
#241=CARTESIAN_POINT('',(0.00000000000000000E0,1.00000000000000000E0));
#242=CARTESIAN_POINT('',(0.00000000000000000E0,5.83333333333333481E-1));
#243=(BOUNDED_CURVE()B_SPLINE_CURVE(2,(#240,#241,#242),.UNSPECIFIED.,.F.,.F.)B_SPLINE_CURVE_WITH_KNOTS((3,3),(0.00000000000000000E0,1.00000000000000000E0),.UNSPECIFIED.)CURVE()GEOMETRIC_REPRESENTATION_ITEM()RATIONAL_B_SPLINE_CURVE((1.00000000000000000E0,1.00000000000000000E0,2.00000000000000000E0))REPRESENTATION_ITEM(''));
#244=DEFINITIONAL_REPRESENTATION('',(#243),#157);
#245=PCURVE('',#46,#244);
#246=CARTESIAN_POINT('',(0.00000000000000000E0,5.83333333333333481E-1));
#247=CARTESIAN_POINT('',(0.00000000000000000E0,0.00000000000000000E0));
#248=B_SPLINE_CURVE_WITH_KNOTS('',1,(#246,#247),.UNSPECIFIED.,.F.,.F.,(2,2),(0.00000000000000000E0,1.00000000000000000E0),.UNSPECIFIED.);
#249=DEFINITIONAL_REPRESENTATION('',(#248),#157);
#250=PCURVE('',#46,#249);
#251=CARTESIAN_POINT('',(0.00000000000000000E0,0.00000000000000000E0));
#252=CARTESIAN_POINT('',(1.00000000000000000E0,0.00000000000000000E0));
#253=B_SPLINE_CURVE_WITH_KNOTS('',1,(#251,#252),.UNSPECIFIED.,.F.,.F.,(2,2),(0.00000000000000000E0,1.00000000000000000E0),.UNSPECIFIED.);
#254=DEFINITIONAL_REPRESENTATION('',(#253),#157);
#255=PCURVE('',#46,#254);
#256=CARTESIAN_POINT('',(1.00000000000000000E0,0.00000000000000000E0));
#257=CARTESIAN_POINT('',(1.00000000000000000E0,5.83333333333333481E-1));
#258=B_SPLINE_CURVE_WITH_KNOTS('',1,(#256,#257),.UNSPECIFIED.,.F.,.F.,(2,2),(0.00000000000000000E0,1.00000000000000000E0),.UNSPECIFIED.);
#259=DEFINITIONAL_REPRESENTATION('',(#258),#157);
#260=PCURVE('',#51,#259);
#261=CARTESIAN_POINT('',(1.00000000000000000E0,5.83333333333333481E-1));
#262=CARTESIAN_POINT('',(2.49999999999999889E-1,5.83333333333333481E-1));
#263=B_SPLINE_CURVE_WITH_KNOTS('',1,(#261,#262),.UNSPECIFIED.,.F.,.F.,(2,2),(0.00000000000000000E0,1.00000000000000000E0),.UNSPECIFIED.);
#264=DEFINITIONAL_REPRESENTATION('',(#263),#157);
#265=PCURVE('',#51,#264);
#266=CARTESIAN_POINT('',(2.49999999999999889E-1,5.83333333333333481E-1));
#267=CARTESIAN_POINT('',(2.49999999999999889E-1,0.00000000000000000E0));
#268=B_SPLINE_CURVE_WITH_KNOTS('',1,(#266,#267),.UNSPECIFIED.,.F.,.F.,(2,2),(0.00000000000000000E0,1.00000000000000000E0),.UNSPECIFIED.);
#269=DEFINITIONAL_REPRESENTATION('',(#268),#157);
#270=PCURVE('',#51,#269);
#271=CARTESIAN_POINT('',(2.49999999999999889E-1,0.00000000000000000E0));
#272=CARTESIAN_POINT('',(1.00000000000000000E0,0.00000000000000000E0));
#273=B_SPLINE_CURVE_WITH_KNOTS('',1,(#271,#272),.UNSPECIFIED.,.F.,.F.,(2,2),(0.00000000000000000E0,1.00000000000000000E0),.UNSPECIFIED.);
#274=DEFINITIONAL_REPRESENTATION('',(#273),#157);
#275=PCURVE('',#51,#274);
#276=CARTESIAN_POINT('',(0.00000000000000000E0,0.00000000000000000E0));
#277=CARTESIAN_POINT('',(6.87500000000000111E-1,0.00000000000000000E0));
#278=B_SPLINE_CURVE_WITH_KNOTS('',1,(#276,#277),.UNSPECIFIED.,.F.,.F.,(2,2),(0.00000000000000000E0,1.00000000000000000E0),.UNSPECIFIED.);
#279=DEFINITIONAL_REPRESENTATION('',(#278),#157);
#280=PCURVE('',#56,#279);
#281=CARTESIAN_POINT('',(6.87500000000000111E-1,0.00000000000000000E0));
#282=CARTESIAN_POINT('',(6.87500000000000111E-1,5.83333333333333481E-1));
#283=B_SPLINE_CURVE_WITH_KNOTS('',1,(#281,#282),.UNSPECIFIED.,.F.,.F.,(2,2),(0.00000000000000000E0,1.00000000000000000E0),.UNSPECIFIED.);
#284=DEFINITIONAL_REPRESENTATION('',(#283),#157);
#285=PCURVE('',#56,#284);
#286=CARTESIAN_POINT('',(6.87500000000000111E-1,5.83333333333333481E-1));
#287=CARTESIAN_POINT('',(0.00000000000000000E0,5.83333333333333481E-1));
#288=B_SPLINE_CURVE_WITH_KNOTS('',1,(#286,#287),.UNSPECIFIED.,.F.,.F.,(2,2),(0.00000000000000000E0,1.00000000000000000E0),.UNSPECIFIED.);
#289=DEFINITIONAL_REPRESENTATION('',(#288),#157);
#290=PCURVE('',#56,#289);
#291=CARTESIAN_POINT('',(0.00000000000000000E0,5.83333333333333481E-1));
#292=CARTESIAN_POINT('',(0.00000000000000000E0,0.00000000000000000E0));
#293=B_SPLINE_CURVE_WITH_KNOTS('',1,(#291,#292),.UNSPECIFIED.,.F.,.F.,(2,2),(0.00000000000000000E0,1.00000000000000000E0),.UNSPECIFIED.);
#294=DEFINITIONAL_REPRESENTATION('',(#293),#157);
#295=PCURVE('',#56,#294);
#296=CARTESIAN_POINT('',(1.00000000000000000E0,0.00000000000000000E0));
#297=CARTESIAN_POINT('',(1.00000000000000000E0,1.00000000000000000E0));
#298=B_SPLINE_CURVE_WITH_KNOTS('',1,(#296,#297),.UNSPECIFIED.,.F.,.F.,(2,2),(0.00000000000000000E0,1.00000000000000000E0),.UNSPECIFIED.);
#299=DEFINITIONAL_REPRESENTATION('',(#298),#157);
#300=PCURVE('',#63,#299);
#301=CARTESIAN_POINT('',(1.00000000000000000E0,1.00000000000000000E0));
#302=CARTESIAN_POINT('',(0.00000000000000000E0,1.00000000000000000E0));
#303=B_SPLINE_CURVE_WITH_KNOTS('',1,(#301,#302),.UNSPECIFIED.,.F.,.F.,(2,2),(0.00000000000000000E0,1.00000000000000000E0),.UNSPECIFIED.);
#304=DEFINITIONAL_REPRESENTATION('',(#303),#157);
#305=PCURVE('',#63,#304);
#306=CARTESIAN_POINT('',(0.00000000000000000E0,1.00000000000000000E0));
#307=CARTESIAN_POINT('',(0.00000000000000000E0,0.00000000000000000E0));
#308=B_SPLINE_CURVE_WITH_KNOTS('',1,(#306,#307),.UNSPECIFIED.,.F.,.F.,(2,2),(0.00000000000000000E0,1.00000000000000000E0),.UNSPECIFIED.);
#309=DEFINITIONAL_REPRESENTATION('',(#308),#157);
#310=PCURVE('',#63,#309);
#311=CARTESIAN_POINT('',(0.00000000000000000E0,0.00000000000000000E0));
#312=CARTESIAN_POINT('',(1.00000000000000000E0,0.00000000000000000E0));
#313=B_SPLINE_CURVE_WITH_KNOTS('',1,(#311,#312),.UNSPECIFIED.,.F.,.F.,(2,2),(0.00000000000000000E0,1.00000000000000000E0),.UNSPECIFIED.);
#314=DEFINITIONAL_REPRESENTATION('',(#313),#157);
#315=PCURVE('',#63,#314);
#316=CARTESIAN_POINT('',(0.00000000000000000E0,0.00000000000000000E0));
#317=CARTESIAN_POINT('',(1.00000000000000000E0,0.00000000000000000E0));
#318=B_SPLINE_CURVE_WITH_KNOTS('',1,(#316,#317),.UNSPECIFIED.,.F.,.F.,(2,2),(0.00000000000000000E0,1.00000000000000000E0),.UNSPECIFIED.);
#319=DEFINITIONAL_REPRESENTATION('',(#318),#157);
#320=PCURVE('',#70,#319);
#321=CARTESIAN_POINT('',(1.00000000000000000E0,0.00000000000000000E0));
#322=CARTESIAN_POINT('',(1.00000000000000000E0,1.00000000000000000E0));
#323=B_SPLINE_CURVE_WITH_KNOTS('',1,(#321,#322),.UNSPECIFIED.,.F.,.F.,(2,2),(0.00000000000000000E0,1.00000000000000000E0),.UNSPECIFIED.);
#324=DEFINITIONAL_REPRESENTATION('',(#323),#157);
#325=PCURVE('',#70,#324);
#326=CARTESIAN_POINT('',(1.00000000000000000E0,1.00000000000000000E0));
#327=CARTESIAN_POINT('',(0.00000000000000000E0,1.00000000000000000E0));
#328=B_SPLINE_CURVE_WITH_KNOTS('',1,(#326,#327),.UNSPECIFIED.,.F.,.F.,(2,2),(0.00000000000000000E0,1.00000000000000000E0),.UNSPECIFIED.);
#329=DEFINITIONAL_REPRESENTATION('',(#328),#157);
#330=PCURVE('',#70,#329);
#331=CARTESIAN_POINT('',(0.00000000000000000E0,1.00000000000000000E0));
#332=CARTESIAN_POINT('',(0.00000000000000000E0,0.00000000000000000E0));
#333=B_SPLINE_CURVE_WITH_KNOTS('',1,(#331,#332),.UNSPECIFIED.,.F.,.F.,(2,2),(0.00000000000000000E0,1.00000000000000000E0),.UNSPECIFIED.);
#334=DEFINITIONAL_REPRESENTATION('',(#333),#157);
#335=PCURVE('',#70,#334);
#336=CARTESIAN_POINT('',(1.00000000000000000E0,0.00000000000000000E0));
#337=CARTESIAN_POINT('',(1.00000000000000000E0,1.00000000000000000E0));
#338=B_SPLINE_CURVE_WITH_KNOTS('',1,(#336,#337),.UNSPECIFIED.,.F.,.F.,(2,2),(0.00000000000000000E0,1.00000000000000000E0),.UNSPECIFIED.);
#339=DEFINITIONAL_REPRESENTATION('',(#338),#157);
#340=PCURVE('',#77,#339);
#341=CARTESIAN_POINT('',(1.00000000000000000E0,1.00000000000000000E0));
#342=CARTESIAN_POINT('',(0.00000000000000000E0,1.00000000000000000E0));
#343=B_SPLINE_CURVE_WITH_KNOTS('',1,(#341,#342),.UNSPECIFIED.,.F.,.F.,(2,2),(0.00000000000000000E0,1.00000000000000000E0),.UNSPECIFIED.);
#344=DEFINITIONAL_REPRESENTATION('',(#343),#157);
#345=PCURVE('',#77,#344);
#346=CARTESIAN_POINT('',(0.00000000000000000E0,1.00000000000000000E0));
#347=CARTESIAN_POINT('',(0.00000000000000000E0,0.00000000000000000E0));
#348=B_SPLINE_CURVE_WITH_KNOTS('',1,(#346,#347),.UNSPECIFIED.,.F.,.F.,(2,2),(0.00000000000000000E0,1.00000000000000000E0),.UNSPECIFIED.);
#349=DEFINITIONAL_REPRESENTATION('',(#348),#157);
#350=PCURVE('',#77,#349);
#351=CARTESIAN_POINT('',(0.00000000000000000E0,0.00000000000000000E0));
#352=CARTESIAN_POINT('',(1.00000000000000000E0,0.00000000000000000E0));
#353=B_SPLINE_CURVE_WITH_KNOTS('',1,(#351,#352),.UNSPECIFIED.,.F.,.F.,(2,2),(0.00000000000000000E0,1.00000000000000000E0),.UNSPECIFIED.);
#354=DEFINITIONAL_REPRESENTATION('',(#353),#157);
#355=PCURVE('',#77,#354);
#356=CARTESIAN_POINT('',(1.00000000000000000E0,0.00000000000000000E0));
#357=CARTESIAN_POINT('',(1.00000000000000000E0,1.00000000000000000E0));
#358=B_SPLINE_CURVE_WITH_KNOTS('',1,(#356,#357),.UNSPECIFIED.,.F.,.F.,(2,2),(0.00000000000000000E0,1.00000000000000000E0),.UNSPECIFIED.);
#359=DEFINITIONAL_REPRESENTATION('',(#358),#157);
#360=PCURVE('',#87,#359);
#361=CARTESIAN_POINT('',(1.00000000000000000E0,1.00000000000000000E0));
#362=CARTESIAN_POINT('',(0.00000000000000000E0,1.00000000000000000E0));
#363=CARTESIAN_POINT('',(0.00000000000000000E0,0.00000000000000000E0));
#364=(BOUNDED_CURVE()B_SPLINE_CURVE(2,(#361,#362,#363),.UNSPECIFIED.,.F.,.F.)B_SPLINE_CURVE_WITH_KNOTS((3,3),(0.00000000000000000E0,1.00000000000000000E0),.UNSPECIFIED.)CURVE()GEOMETRIC_REPRESENTATION_ITEM()RATIONAL_B_SPLINE_CURVE((1.00000000000000000E0,7.07106781186547573E-1,1.00000000000000000E0))REPRESENTATION_ITEM(''));
#365=DEFINITIONAL_REPRESENTATION('',(#364),#157);
#366=PCURVE('',#87,#365);
#367=CARTESIAN_POINT('',(0.00000000000000000E0,0.00000000000000000E0));
#368=CARTESIAN_POINT('',(1.00000000000000000E0,0.00000000000000000E0));
#369=B_SPLINE_CURVE_WITH_KNOTS('',1,(#367,#368),.UNSPECIFIED.,.F.,.F.,(2,2),(0.00000000000000000E0,1.00000000000000000E0),.UNSPECIFIED.);
#370=DEFINITIONAL_REPRESENTATION('',(#369),#157);
#371=PCURVE('',#87,#370);
#372=SURFACE_CURVE('',#90,(#162,#255),.PCURVE_S1.);
#373=EDGE_CURVE('OSCAD_TOPO/3|edge|e:15c43bc5030385ef59063b7163db0bb6|4cd87067c645fc41980f748da3f57a94783c84c7f6e933d8343e33725865b511',#2,#4,#372,.T.);
#374=SURFACE_CURVE('',#93,(#167,#275),.PCURVE_S1.);
#375=EDGE_CURVE('OSCAD_TOPO/3|edge|e:85b9d0e5deb0ad4b14e13c17cfd9677c|940ce2239fbda6edafcaa8d63af6837ec8c1c08ac4ef742c10baac71cb91eb18',#4,#10,#374,.T.);
#376=SURFACE_CURVE('',#96,(#178,#280),.PCURVE_S1.);
#377=EDGE_CURVE('OSCAD_TOPO/3|edge|e:2539d2c307a2becb7b8f0dc88dc4e2d3|54b99d7ef5ddcd55ea2d94dd7eddb7aec8859c84e20e410c13f87e9e6bb9a68c',#6,#12,#376,.T.);
#378=SURFACE_CURVE('',#99,(#183,#208),.PCURVE_S1.);
#379=EDGE_CURVE('OSCAD_TOPO/3|edge|e:1c49d47e08bee6e5b59564c836a09c7e|00394b620004e1c1cacfe9fd403aeafe7d6e1db42f39f0f8b33b5e0f87713db1',#2,#6,#378,.T.);
#380=SURFACE_CURVE('',#102,(#229,#234),.PCURVE_S1.);
#381=EDGE_CURVE('OSCAD_TOPO/3|edge|e:236fe543584479761ff6cfbc4739c5a4|8397afd88bd0b5b5b5978a6a4aecd763a9d45ef3d2749e826b0282976d2c4e91',#2,#8,#380,.T.);
#382=SURFACE_CURVE('',#105,(#250,#260),.PCURVE_S1.);
#383=EDGE_CURVE('OSCAD_TOPO/3|edge|e:1fb9df8331f69e19b1045052a63475d7|2d4aaccc166f511f0b4d0a0bc6486aa7f4825daa73270eff799f884b873fe190',#4,#20,#382,.T.);
#384=SURFACE_CURVE('',#108,(#265,#335),.PCURVE_S1.);
#385=EDGE_CURVE('OSCAD_TOPO/3|edge|e:d9835a9b05f7d3f85194ef6592172437|3dffdffd0196ff462a400812c5aeea884cd74962b85b0055b8b8dca204ffef8c',#14,#20,#384,.T.);
#386=SURFACE_CURVE('',#111,(#270,#300),.PCURVE_S1.);
#387=EDGE_CURVE('OSCAD_TOPO/3|edge|e:c1627ffa5932db77cb3f336644b94c2b|95f5000d557a4a8bd188f4e7a51686f046602edc722d11e026c5418ac81c69e9',#10,#14,#386,.T.);
#388=SURFACE_CURVE('',#114,(#285,#310),.PCURVE_S1.);
#389=EDGE_CURVE('OSCAD_TOPO/3|edge|e:1ef58b855403ac8d7b614782ac58ef79|2a62b435c5b787ceec7133c0ca99bb8f4a0254fd22e811b4360a90a655f9c4f5',#12,#16,#388,.T.);
#390=SURFACE_CURVE('',#117,(#213,#295),.PCURVE_S1.);
#391=EDGE_CURVE('OSCAD_TOPO/3|edge|e:67ab3a5c82682fa316fdfb8f908696f2|bb654be3cf5e4dbca34838e880a3436ccfe34fa581e566da180d9cb80117e0c0',#6,#24,#390,.T.);
#392=SURFACE_CURVE('',#120,(#290,#340),.PCURVE_S1.);
#393=EDGE_CURVE('OSCAD_TOPO/3|edge|e:1035636c3c2fa3bdd84d105ca0d45702|d732d29da5480644c1c34906459e62c1e51d3b65ad1edf771dfbaac03e48b3f6',#16,#24,#392,.T.);
#394=SURFACE_CURVE('',#123,(#203,#239),.PCURVE_S1.);
#395=EDGE_CURVE('OSCAD_TOPO/3|edge|e:f27c04a1c92d0011ef68e7912e3c5919|ba4e97aff8e94110923c121840448187b2f2dad9639a6fa936d0fef4d8a885be',#8,#22,#394,.T.);
#396=SURFACE_CURVE('',#126,(#198,#325),.PCURVE_S1.);
#397=EDGE_CURVE('OSCAD_TOPO/3|edge|e:cff99ccfbcb36146fcc2094a30e9d2be|8977a23db6f58887996ce59f6465894799fc974328844e37da9055b13cd484e2',#18,#22,#396,.T.);
#398=SURFACE_CURVE('',#129,(#188,#224),.PCURVE_S1.);
#399=EDGE_CURVE('OSCAD_TOPO/3|edge|e:7f7de349e3f0a649de04a9d7489f3c5c|a75b3f77ac4790b336bb99f30a07fcd3bb83ab4747bfaf4c11b93f8eb1bdf577',#8,#26,#398,.T.);
#400=SURFACE_CURVE('',#132,(#193,#350),.PCURVE_S1.);
#401=EDGE_CURVE('OSCAD_TOPO/3|edge|e:19fa87971dfcec3d7883867b8e4d48db|8a247be890e379edc41af8a3169586c73013518ede72e67670cf11aa7a0da577',#18,#26,#400,.T.);
#402=SURFACE_CURVE('',#136,(#173,#315),.PCURVE_S1.);
#403=EDGE_CURVE('OSCAD_TOPO/3|edge|e:869f334200035f3bd6c8f72e8362013a|6920b8106dc75d603f47fef23f29c14082eb0fa22309037404754b8c6873a47f',#10,#12,#402,.T.);
#404=SURFACE_CURVE('',#140,(#305,#366),.PCURVE_S1.);
#405=EDGE_CURVE('OSCAD_TOPO/3|edge|e:59789a4ce1832e70760b563907fee2ea|83556c2d9348a89938e6541154281eac048062c1c151e26113e0fd505a208d45',#14,#16,#404,.T.);
#406=SURFACE_CURVE('',#144,(#330,#371),.PCURVE_S1.);
#407=EDGE_CURVE('OSCAD_TOPO/3|edge|e:8760d4b1faf737326e803e54b1410999|e347dd910cf974f6ab9d8fdfe4a09c8ca58eb345c5db4299dc8d3dc861272692',#14,#18,#406,.T.);
#408=SURFACE_CURVE('',#148,(#345,#360),.PCURVE_S1.);
#409=EDGE_CURVE('OSCAD_TOPO/3|edge|e:a2c76069821eedf4d35e3953a46ce259|712054de6ab5001495998e58b531d5c18d41af1523713028f7b66405e9726198',#16,#18,#408,.T.);
#410=SURFACE_CURVE('',#152,(#245,#320),.PCURVE_S1.);
#411=EDGE_CURVE('OSCAD_TOPO/3|edge|e:72d55b36105f4aec3758372c9cfa41f4|441c5d51aac7f84d153ebb2089dd1a63d624120b67711adbae305198495e4238',#20,#22,#410,.T.);
#412=SURFACE_CURVE('',#156,(#219,#355),.PCURVE_S1.);
#413=EDGE_CURVE('OSCAD_TOPO/3|edge|e:4c87ea7bc9cd88f5783494ae2e46033f|d13491b21366f9ad4018ab5749bf79f07e729511f78454230e207e7c9769443d',#24,#26,#412,.T.);
#414=ORIENTED_EDGE('',*,*,#373,.T.);
#415=ORIENTED_EDGE('',*,*,#375,.T.);
#416=ORIENTED_EDGE('',*,*,#403,.T.);
#417=ORIENTED_EDGE('',*,*,#377,.F.);
#418=ORIENTED_EDGE('',*,*,#379,.F.);
#419=EDGE_LOOP('OSCAD_TOPO/3|loop|l:07f05a0ac01a01877ef58f30c7564741|eaa92a7c97862e5c26e5f6ce60f72a212cadfba470f62a3cc5799038582f27fb',(#414,#415,#416,#417,#418));
#420=ORIENTED_EDGE('',*,*,#399,.T.);
#421=ORIENTED_EDGE('',*,*,#401,.F.);
#422=ORIENTED_EDGE('',*,*,#397,.T.);
#423=ORIENTED_EDGE('',*,*,#395,.F.);
#424=EDGE_LOOP('OSCAD_TOPO/3|loop|l:e2afd31ec251e75fa7995855550e58d0|b92bc978c2aa9b4a5bf3b2c61093d694f3936ba5291c0ef6d40b9583fe4ef4ef',(#420,#421,#422,#423));
#425=ORIENTED_EDGE('',*,*,#379,.T.);
#426=ORIENTED_EDGE('',*,*,#391,.T.);
#427=ORIENTED_EDGE('',*,*,#413,.T.);
#428=ORIENTED_EDGE('',*,*,#399,.F.);
#429=ORIENTED_EDGE('',*,*,#381,.F.);
#430=EDGE_LOOP('OSCAD_TOPO/3|loop|l:29ccca05c0c1da76581a0fb9fb1604e2|4b57aa0ce33d06c901460cb3b26400937ffb072ebf0d5f9091c6336c3795f44b',(#425,#426,#427,#428,#429));
#431=ORIENTED_EDGE('',*,*,#381,.T.);
#432=ORIENTED_EDGE('',*,*,#395,.T.);
#433=ORIENTED_EDGE('',*,*,#411,.F.);
#434=ORIENTED_EDGE('',*,*,#383,.F.);
#435=ORIENTED_EDGE('',*,*,#373,.F.);
#436=EDGE_LOOP('OSCAD_TOPO/3|loop|l:c88794df4b647df004233425c23a61d0|26e7a9b7a14507b44c43aa25cfa0fc078b9a648521e5481836091c242df53405',(#431,#432,#433,#434,#435));
#437=ORIENTED_EDGE('',*,*,#383,.T.);
#438=ORIENTED_EDGE('',*,*,#385,.F.);
#439=ORIENTED_EDGE('',*,*,#387,.F.);
#440=ORIENTED_EDGE('',*,*,#375,.F.);
#441=EDGE_LOOP('OSCAD_TOPO/3|loop|l:0d70b24903af1ac64a142a5c56a73e97|80a6deca84b5896a7c0af92a36754b9537566912c8cc9f5a8eeacaa049003c55',(#437,#438,#439,#440));
#442=ORIENTED_EDGE('',*,*,#377,.T.);
#443=ORIENTED_EDGE('',*,*,#389,.T.);
#444=ORIENTED_EDGE('',*,*,#393,.T.);
#445=ORIENTED_EDGE('',*,*,#391,.F.);
#446=EDGE_LOOP('OSCAD_TOPO/3|loop|l:aecd00728a674f471facd5f5bc9421a6|42ccdc71c12ce38facd7d3e0971bc3a6fa305108e4e62170967334b57c038032',(#442,#443,#444,#445));
#447=ORIENTED_EDGE('',*,*,#387,.T.);
#448=ORIENTED_EDGE('',*,*,#405,.T.);
#449=ORIENTED_EDGE('',*,*,#389,.F.);
#450=ORIENTED_EDGE('',*,*,#403,.F.);
#451=EDGE_LOOP('OSCAD_TOPO/3|loop|l:e09b7db7708223eb0deba65d042e94f4|57fcd5c34697d60bd7fd1a097e160b81d6aed48f6406d6a0aa2eb1af666bfe32',(#447,#448,#449,#450));
#452=ORIENTED_EDGE('',*,*,#411,.T.);
#453=ORIENTED_EDGE('',*,*,#397,.F.);
#454=ORIENTED_EDGE('',*,*,#407,.F.);
#455=ORIENTED_EDGE('',*,*,#385,.T.);
#456=EDGE_LOOP('OSCAD_TOPO/3|loop|l:075dcc692c506acd0b58b77cc735549d|238017b2b1d66987fe8c7b5c028c6835b4b9a7bf7cb8c84b0b230972b816e6ad',(#452,#453,#454,#455));
#457=ORIENTED_EDGE('',*,*,#393,.F.);
#458=ORIENTED_EDGE('',*,*,#409,.T.);
#459=ORIENTED_EDGE('',*,*,#401,.T.);
#460=ORIENTED_EDGE('',*,*,#413,.F.);
#461=EDGE_LOOP('OSCAD_TOPO/3|loop|l:a42cb2a03ab74aedc95baab51d1e151b|98e399cc103a9b8b48752aa5c1911ed013dde6c470a172c092655ae736fe8115',(#457,#458,#459,#460));
#462=ORIENTED_EDGE('',*,*,#409,.F.);
#463=ORIENTED_EDGE('',*,*,#405,.F.);
#464=ORIENTED_EDGE('',*,*,#407,.T.);
#465=EDGE_LOOP('OSCAD_TOPO/3|loop|l:05228b73b9d62e77b2decf80563d1e74|fe2dbc21cd349a97a6f350bf45ba62f1b6357c7ec376c32cd36e5084fa4255b4',(#462,#463,#464));
#466=FACE_OUTER_BOUND('',#419,.T.);
#467=ADVANCED_FACE('OSCAD_TOPO/3|face|f:068942602d9cb7be85bec64f290310df|5838fad0886a7388be9598f487c035d5e3cdfbff80d72bd850ff478330e7dc2e',(#466),#31,.T.);
#468=FACE_OUTER_BOUND('',#424,.T.);
#469=ADVANCED_FACE('OSCAD_TOPO/3|face|f:5648750b5e38efe7e7fee8f6fdf5562f|81b16dc6838849451fdcd4d18a94aa17fa3238566644d9ac38f7f3b92de806df',(#468),#36,.T.);
#470=FACE_OUTER_BOUND('',#430,.T.);
#471=ADVANCED_FACE('OSCAD_TOPO/3|face|f:7b1d39e0d63c1cba9c7f37403cf8ef3f|7b8b43115cc1a23e548b7c67e95d7e0b328d2c322e395f00c954382ed6ad2a94',(#470),#41,.T.);
#472=FACE_OUTER_BOUND('',#436,.T.);
#473=ADVANCED_FACE('OSCAD_TOPO/3|face|f:e7190141273a48774b769fcd7589d9ca|5a54b6de0d76d6bae0548d3edcdf1fee671758bc140cadb88c0d982f41ae4ef8',(#472),#46,.T.);
#474=FACE_OUTER_BOUND('',#441,.T.);
#475=ADVANCED_FACE('OSCAD_TOPO/3|face|f:22d115f493159fc7894bad37d7499923|27ea4b03120864c9c0c715cb5d6d0da1b6df20b32223e60548cfb7f330789d06',(#474),#51,.T.);
#476=FACE_OUTER_BOUND('',#446,.T.);
#477=ADVANCED_FACE('OSCAD_TOPO/3|face|f:f9dfd523f301cf825e28f9e4ba3bc30d|b879a236aae3385ce61c856ce282e691ea9a94f45c758201173b2e8e1b58a298',(#476),#56,.T.);
#478=FACE_OUTER_BOUND('',#451,.T.);
#479=ADVANCED_FACE('OSCAD_TOPO/3|face|f:a112fd0f2e67a51fce18f2ac61bc8b11|e166bc3ab9c895a2ee25d8997af6d4736f85811db6c8a4fa0a5fb1a2384d4c78',(#478),#63,.T.);
#480=FACE_OUTER_BOUND('',#456,.T.);
#481=ADVANCED_FACE('OSCAD_TOPO/3|face|f:bb498c4f3c173bdb95e433847ec3e3f3|600fe881317131ef89d7a9857f3337861a01be84597438589676ec2fa2232282',(#480),#70,.T.);
#482=FACE_OUTER_BOUND('',#461,.T.);
#483=ADVANCED_FACE('OSCAD_TOPO/3|face|f:89d7468aa0a0f912456116fca6893e1b|a16a47256b5886678a7b5d136ac07ec6c0af540f61feac9a459f7ad46e29c4b7',(#482),#77,.T.);
#484=FACE_OUTER_BOUND('',#465,.T.);
#485=ADVANCED_FACE('OSCAD_TOPO/3|face|f:500591f386c264d9eaacc89530c702d4|573ab2c83a90d6ed81991f19addb9b4db8d58196e89d695fd7bf3628aba16f18',(#484),#87,.T.);
#486=CLOSED_SHELL('OSCAD_TOPO/3|shell|s:fc1adc91c96e3766edbbe9244ecfca3d|0a1eb878bad1f18839f9cf8802e505af6f2a0c42e3adf0d6c82398162730805f',(#467,#469,#471,#473,#475,#477,#479,#481,#483,#485));
#487=MANIFOLD_SOLID_BREP('OSCAD_TOPO/3|body|b:b0516e9158ca4e8068fec892f94c7c04|d70d7e5d27aced0dabf79606a71eff700a757f5fbd561e640a88ca707899d934',#486);
#488=(LENGTH_UNIT()NAMED_UNIT(*)SI_UNIT(.MILLI.,.METRE.));
#489=UNCERTAINTY_MEASURE_WITH_UNIT(LENGTH_MEASURE(9.99999999999999955E-8),#488,'distance_accuracy_value','');
#490=(GEOMETRIC_REPRESENTATION_CONTEXT(3)GLOBAL_UNCERTAINTY_ASSIGNED_CONTEXT((#489))GLOBAL_UNIT_ASSIGNED_CONTEXT((#488))REPRESENTATION_CONTEXT('','3D'));
#491=ADVANCED_BREP_SHAPE_REPRESENTATION('',(#487),#490);
#492=APPLICATION_CONTEXT('managed model based 3d engineering');
#493=PRODUCT_CONTEXT('',#492,'mechanical');
#494=PRODUCT('model','model','',(#493));
#495=PRODUCT_DEFINITION_FORMATION('1','',#494);
#496=PRODUCT_DEFINITION_CONTEXT('part definition',#492,'design');
#497=PRODUCT_DEFINITION('design','',#495,#496);
#498=PRODUCT_DEFINITION_SHAPE('','',#497);
#499=SHAPE_DEFINITION_REPRESENTATION(#498,#491);
ENDSEC;
END-ISO-10303-21;
