ISO-10303-21;
HEADER;
FILE_DESCRIPTION(('OpenSCAD Viewer retained AP242 B-rep'),'2;1');
FILE_NAME('model.step','',(''),(''),'OpenSCAD Viewer','OpenSCAD Viewer','');
FILE_SCHEMA(('AP242_MANAGED_MODEL_BASED_3D_ENGINEERING_MIM_LF'));
ENDSEC;
DATA;
#1=CARTESIAN_POINT('',(5.53656842888334211E0,-1.64781165873216962E0,2.22685198506785476E1));
#2=VERTEX_POINT('OSCAD_TOPO/3|vertex|v:5c02a346e16e71f17ec0323bdf7e9bcc|457ac4abbc6b612178d0781202b5f8b3c6986acb2280d53a819a50bb93d97485',#1);
#3=CARTESIAN_POINT('',(8.42949188460303844E0,-9.10643042358044852E0,2.22685198506785476E1));
#4=VERTEX_POINT('OSCAD_TOPO/3|vertex|v:96ece761eefbf45fbdf16d1f29eca683|22a7d1d81c42e41d1934385f0f8fdaa894b255497796ce27028275c8f85a59c7',#3);
#5=CARTESIAN_POINT('',(1.41608438406714647E1,-6.88345013333731259E0,2.65650258014321601E1));
#6=VERTEX_POINT('OSCAD_TOPO/3|vertex|v:5d52d4366f1c6fd01e0f7b6a0a906ccc|0cb2698c3231ac03895b8caf1b3d5a196dae6295af64ebf0ee7483f332b5dba2',#5);
#7=CARTESIAN_POINT('',(1.51672559127818687E1,-3.81163833924118167E0,2.79971944516833631E1));
#8=VERTEX_POINT('OSCAD_TOPO/3|vertex|v:dc59dcfa47fb8bdcb9c671be1a369e4e|072ff10be903944b13a9018803e2a8f84de4b8d17b11ef4777d0fb0fe35f8a43',#7);
#9=CARTESIAN_POINT('',(1.31783710369745766E1,1.31616206159200910E0,2.79971944516833631E1));
#10=VERTEX_POINT('OSCAD_TOPO/3|vertex|v:5a8dbfedfb55a6befb301edceb684a02|9fd1b28c1fc299ffb622ac964769f4d859b3e819467ed759cfd87ed1bf96aeb6',#9);
#11=CARTESIAN_POINT('',(8.74116841964065827E0,-4.04865374474732143E-1,1.73506317436056712E1));
#12=VERTEX_POINT('OSCAD_TOPO/3|vertex|v:68dde51bf6701afe32d08ee69272262e|7c9b815a9aef65796e7ad3d7e7df8bea87e329a3bbed3d93a99df8101a2c61c4',#11);
#13=CARTESIAN_POINT('',(1.44725203757090846E1,1.81811491576840201E0,2.16471376943592837E1));
#14=VERTEX_POINT('OSCAD_TOPO/3|vertex|v:ad0434fcd90ad2d6e89be982f70ea25b|7a811d4687c9aadd90788f880b573e5bb43486a9f224581e34ebc2a7736092c5',#13);
#15=CARTESIAN_POINT('',(1.64614052515163785E1,-3.30968548506478877E0,2.16471376943592837E1));
#16=VERTEX_POINT('OSCAD_TOPO/3|vertex|v:a32b431ead16264d19e675ce20bb878b|4396808a8cd82cc117353d8a2b349022ccf6c3a044792c6c14caf8964160669f',#15);
#17=CARTESIAN_POINT('',(1.07300532954479486E1,-5.53266577530792425E0,1.73506317436056712E1));
#18=VERTEX_POINT('OSCAD_TOPO/3|vertex|v:9b0d236e53840208e53dff3100fa8296|8e730e961427e0d2109d25d17773d8b7d05ca8c63105dd01e6843200a8990fc0',#17);
#19=CARTESIAN_POINT('',(1.50477210315830128E1,2.04121406074218203E0,2.51284263892241846E1));
#20=VERTEX_POINT('OSCAD_TOPO/3|vertex|v:48869289f13bba6fa2a41a8f3318e3db|9e818d6d3e4f04177cf2f87b9d23e6eaa35a742e79677ef27b573833b859800b',#19);
#21=CARTESIAN_POINT('',(1.02988418792114729E1,-8.38137842443027559E0,1.93997517882193691E1));
#22=VERTEX_POINT('OSCAD_TOPO/3|vertex|v:12a385bdfe5567d38c09c963c4ef66cb|145ff4241939724d6a7c3b8e1db1ddcd229d1706a9ac2f4044bd4cf2e301d788',#21);
#23=CARTESIAN_POINT('',(1.60301938352799027E1,-6.15839813418714055E0,2.36962577389729816E1));
#24=VERTEX_POINT('OSCAD_TOPO/3|vertex|v:2114820adda14ea5c4dc2f767c7c32a2|9b7b98a9410c8d087c1ac6ab05e7947812e3fd4d3639a633f09c59f86068cd2e',#23);
#25=CARTESIAN_POINT('',(1.70366059073903031E1,-3.08658634009100963E0,2.51284263892241846E1));
#26=VERTEX_POINT('OSCAD_TOPO/3|vertex|v:c058fbfe447ff4ded422f1cb34d553e4|1c415a908f981ef4b4e6dc468ca8696d2f37ddd22ff2365d242351c84fdc8e20',#25);
#27=CARTESIAN_POINT('',(5.53656842888334211E0,-1.64781165873216962E0,2.22685198506785476E1));
#28=CARTESIAN_POINT('',(1.31783710369745766E1,1.31616206159200910E0,2.79971944516833631E1));
#29=CARTESIAN_POINT('',(8.42949188460303844E0,-9.10643042358044852E0,2.22685198506785476E1));
#30=CARTESIAN_POINT('',(1.60712944926942747E1,-6.14245670325626847E0,2.79971944516833631E1));
#31=B_SPLINE_SURFACE_WITH_KNOTS('',1,1,((#27,#28),(#29,#30)),.UNSPECIFIED.,.F.,.F.,.F.,(2,2),(2,2),(0.00000000000000000E0,1.00000000000000000E0),(0.00000000000000000E0,1.00000000000000000E0),.UNSPECIFIED.);
#32=CARTESIAN_POINT('',(1.16340918753603546E1,-7.86348413932300971E0,1.73506317436056712E1));
#33=CARTESIAN_POINT('',(1.92758944834515908E1,-4.89951041899883055E0,2.30793063446104867E1));
#34=CARTESIAN_POINT('',(8.74116841964065827E0,-4.04865374474732143E-1,1.73506317436056712E1));
#35=CARTESIAN_POINT('',(1.63829710277318945E1,2.55910834584944702E0,2.30793063446104867E1));
#36=B_SPLINE_SURFACE_WITH_KNOTS('',1,1,((#32,#33),(#34,#35)),.UNSPECIFIED.,.F.,.F.,.F.,(2,2),(2,2),(0.00000000000000000E0,1.00000000000000000E0),(0.00000000000000000E0,1.00000000000000000E0),.UNSPECIFIED.);
#37=CARTESIAN_POINT('',(5.53656842888334211E0,-1.64781165873216962E0,2.22685198506785476E1));
#38=CARTESIAN_POINT('',(8.74116841964065827E0,-4.04865374474732143E-1,1.73506317436056712E1));
#39=CARTESIAN_POINT('',(1.31783710369745766E1,1.31616206159200910E0,2.79971944516833631E1));
#40=CARTESIAN_POINT('',(1.63829710277318945E1,2.55910834584944702E0,2.30793063446104867E1));
#41=B_SPLINE_SURFACE_WITH_KNOTS('',1,1,((#37,#38),(#39,#40)),.UNSPECIFIED.,.F.,.F.,.F.,(2,2),(2,2),(0.00000000000000000E0,1.00000000000000000E0),(0.00000000000000000E0,1.00000000000000000E0),.UNSPECIFIED.);
#42=CARTESIAN_POINT('',(8.42949188460303844E0,-9.10643042358044852E0,2.22685198506785476E1));
#43=CARTESIAN_POINT('',(1.16340918753603546E1,-7.86348413932300971E0,1.73506317436056712E1));
#44=CARTESIAN_POINT('',(5.53656842888334211E0,-1.64781165873216962E0,2.22685198506785476E1));
#45=CARTESIAN_POINT('',(8.74116841964065827E0,-4.04865374474732143E-1,1.73506317436056712E1));
#46=B_SPLINE_SURFACE_WITH_KNOTS('',1,1,((#42,#43),(#44,#45)),.UNSPECIFIED.,.F.,.F.,.F.,(2,2),(2,2),(0.00000000000000000E0,1.00000000000000000E0),(0.00000000000000000E0,1.00000000000000000E0),.UNSPECIFIED.);
#47=CARTESIAN_POINT('',(1.60712944926942747E1,-6.14245670325626847E0,2.79971944516833631E1));
#48=CARTESIAN_POINT('',(1.92758944834515908E1,-4.89951041899883055E0,2.30793063446104867E1));
#49=CARTESIAN_POINT('',(8.42949188460303844E0,-9.10643042358044852E0,2.22685198506785476E1));
#50=CARTESIAN_POINT('',(1.16340918753603546E1,-7.86348413932300971E0,1.73506317436056712E1));
#51=B_SPLINE_SURFACE_WITH_KNOTS('',1,1,((#47,#48),(#49,#50)),.UNSPECIFIED.,.F.,.F.,.F.,(2,2),(2,2),(0.00000000000000000E0,1.00000000000000000E0),(0.00000000000000000E0,1.00000000000000000E0),.UNSPECIFIED.);
#52=CARTESIAN_POINT('',(1.31783710369745766E1,1.31616206159200910E0,2.79971944516833631E1));
#53=CARTESIAN_POINT('',(1.63829710277318945E1,2.55910834584944702E0,2.30793063446104867E1));
#54=CARTESIAN_POINT('',(1.60712944926942747E1,-6.14245670325626847E0,2.79971944516833631E1));
#55=CARTESIAN_POINT('',(1.92758944834515908E1,-4.89951041899883055E0,2.30793063446104867E1));
#56=B_SPLINE_SURFACE_WITH_KNOTS('',1,1,((#52,#53),(#54,#55)),.UNSPECIFIED.,.F.,.F.,.F.,(2,2),(2,2),(0.00000000000000000E0,1.00000000000000000E0),(0.00000000000000000E0,1.00000000000000000E0),.UNSPECIFIED.);
#57=CARTESIAN_POINT('',(1.51672559127818687E1,-3.81163833924118167E0,2.79971944516833631E1));
#58=CARTESIAN_POINT('',(1.70366059073903031E1,-3.08658634009100963E0,2.51284263892241846E1));
#59=CARTESIAN_POINT('',(1.60712944926942747E1,-6.14245670325626847E0,2.79971944516833631E1));
#60=CARTESIAN_POINT('',(1.79406444873027091E1,-5.41740470410609554E0,2.51284263892241846E1));
#61=CARTESIAN_POINT('',(1.41608438406714647E1,-6.88345013333731259E0,2.65650258014321601E1));
#62=CARTESIAN_POINT('',(1.60301938352799027E1,-6.15839813418714055E0,2.36962577389729816E1));
#63=(BOUNDED_SURFACE()B_SPLINE_SURFACE(2,1,((#57,#58),(#59,#60),(#61,#62)),.UNSPECIFIED.,.F.,.F.,.F.)B_SPLINE_SURFACE_WITH_KNOTS((3,3),(2,2),(0.00000000000000000E0,1.00000000000000000E0),(0.00000000000000000E0,1.00000000000000000E0),.UNSPECIFIED.)GEOMETRIC_REPRESENTATION_ITEM()RATIONAL_B_SPLINE_SURFACE(((1.00000000000000000E0,1.00000000000000000E0),(7.07106781186547573E-1,7.07106781186547573E-1),(1.00000000000000000E0,1.00000000000000000E0)))REPRESENTATION_ITEM('')SURFACE());
#64=CARTESIAN_POINT('',(1.02988418792114729E1,-8.38137842443027559E0,1.93997517882193691E1));
#65=CARTESIAN_POINT('',(1.60301938352799027E1,-6.15839813418714055E0,2.36962577389729816E1));
#66=CARTESIAN_POINT('',(1.16340918753603546E1,-7.86348413932300971E0,1.73506317436056712E1));
#67=CARTESIAN_POINT('',(1.73654438314287809E1,-5.64050384907987556E0,2.16471376943592837E1));
#68=CARTESIAN_POINT('',(1.07300532954479486E1,-5.53266577530792425E0,1.73506317436056712E1));
#69=CARTESIAN_POINT('',(1.64614052515163785E1,-3.30968548506478877E0,2.16471376943592837E1));
#70=(BOUNDED_SURFACE()B_SPLINE_SURFACE(2,1,((#64,#65),(#66,#67),(#68,#69)),.UNSPECIFIED.,.F.,.F.,.F.)B_SPLINE_SURFACE_WITH_KNOTS((3,3),(2,2),(0.00000000000000000E0,1.00000000000000000E0),(0.00000000000000000E0,1.00000000000000000E0),.UNSPECIFIED.)GEOMETRIC_REPRESENTATION_ITEM()RATIONAL_B_SPLINE_SURFACE(((2.00000000000000000E0,2.00000000000000000E0),(1.00000000000000000E0,1.00000000000000000E0),(1.00000000000000000E0,1.00000000000000000E0)))REPRESENTATION_ITEM('')SURFACE());
#71=CARTESIAN_POINT('',(1.44725203757090846E1,1.81811491576840201E0,2.16471376943592837E1));
#72=CARTESIAN_POINT('',(1.64614052515163785E1,-3.30968548506478877E0,2.16471376943592837E1));
#73=CARTESIAN_POINT('',(1.63829710277318945E1,2.55910834584944702E0,2.30793063446104867E1));
#74=CARTESIAN_POINT('',(1.83718559035391849E1,-2.56869205498374420E0,2.30793063446104867E1));
#75=CARTESIAN_POINT('',(1.50477210315830128E1,2.04121406074218203E0,2.51284263892241846E1));
#76=CARTESIAN_POINT('',(1.70366059073903031E1,-3.08658634009100963E0,2.51284263892241846E1));
#77=(BOUNDED_SURFACE()B_SPLINE_SURFACE(2,1,((#71,#72),(#73,#74),(#75,#76)),.UNSPECIFIED.,.F.,.F.,.F.)B_SPLINE_SURFACE_WITH_KNOTS((3,3),(2,2),(0.00000000000000000E0,1.00000000000000000E0),(0.00000000000000000E0,1.00000000000000000E0),.UNSPECIFIED.)GEOMETRIC_REPRESENTATION_ITEM()RATIONAL_B_SPLINE_SURFACE(((1.00000000000000000E0,1.00000000000000000E0),(1.00000000000000000E0,1.00000000000000000E0),(2.00000000000000000E0,2.00000000000000000E0)))REPRESENTATION_ITEM('')SURFACE());
#78=CARTESIAN_POINT('',(1.60301938352799027E1,-6.15839813418714055E0,2.36962577389729816E1));
#79=CARTESIAN_POINT('',(1.69854191612913041E1,-5.78790141914661849E0,2.44123420640985849E1));
#80=CARTESIAN_POINT('',(1.65573980779413432E1,-5.06009448783050431E0,2.53340768540116841E1));
#81=CARTESIAN_POINT('',(1.73654438314287809E1,-5.64050384907987556E0,2.16471376943592837E1));
#82=CARTESIAN_POINT('',(1.92758944834515908E1,-4.89951041899883055E0,2.30793063446104867E1));
#83=CARTESIAN_POINT('',(1.74886251973465079E1,-4.25199552209855280E0,2.51284263892241846E1));
#84=CARTESIAN_POINT('',(1.64614052515163785E1,-3.30968548506478877E0,2.16471376943592837E1));
#85=CARTESIAN_POINT('',(1.83718559035391849E1,-2.56869205498374420E0,2.30793063446104867E1));
#86=CARTESIAN_POINT('',(1.70366059073903031E1,-3.08658634009100963E0,2.51284263892241846E1));
#87=(BOUNDED_SURFACE()B_SPLINE_SURFACE(2,2,((#78,#79,#80),(#81,#82,#83),(#84,#85,#86)),.UNSPECIFIED.,.F.,.F.,.F.)B_SPLINE_SURFACE_WITH_KNOTS((3,3),(3,3),(0.00000000000000000E0,1.00000000000000000E0),(0.00000000000000000E0,1.00000000000000000E0),.UNSPECIFIED.)GEOMETRIC_REPRESENTATION_ITEM()RATIONAL_B_SPLINE_SURFACE(((2.00000000000000000E0,2.00000000000000000E0,3.00000000000000000E0),(1.00000000000000000E0,1.00000000000000000E0,2.00000000000000000E0),(1.00000000000000000E0,1.00000000000000000E0,2.00000000000000000E0)))REPRESENTATION_ITEM('')SURFACE());
#88=CARTESIAN_POINT('',(5.53656842888334211E0,-1.64781165873216962E0,2.22685198506785476E1));
#89=CARTESIAN_POINT('',(8.42949188460303844E0,-9.10643042358044852E0,2.22685198506785476E1));
#90=B_SPLINE_CURVE_WITH_KNOTS('',1,(#88,#89),.UNSPECIFIED.,.F.,.F.,(2,2),(0.00000000000000000E0,1.00000000000000000E0),.UNSPECIFIED.);
#91=CARTESIAN_POINT('',(8.42949188460303844E0,-9.10643042358044852E0,2.22685198506785476E1));
#92=CARTESIAN_POINT('',(1.41608438406714647E1,-6.88345013333731259E0,2.65650258014321601E1));
#93=B_SPLINE_CURVE_WITH_KNOTS('',1,(#91,#92),.UNSPECIFIED.,.F.,.F.,(2,2),(0.00000000000000000E0,1.00000000000000000E0),.UNSPECIFIED.);
#94=CARTESIAN_POINT('',(1.41608438406714647E1,-6.88345013333731259E0,2.65650258014321601E1));
#95=CARTESIAN_POINT('',(1.60712944926942747E1,-6.14245670325626847E0,2.79971944516833631E1));
#96=CARTESIAN_POINT('',(1.51672559127818687E1,-3.81163833924118167E0,2.79971944516833631E1));
#97=(BOUNDED_CURVE()B_SPLINE_CURVE(2,(#94,#95,#96),.UNSPECIFIED.,.F.,.F.)B_SPLINE_CURVE_WITH_KNOTS((3,3),(0.00000000000000000E0,1.00000000000000000E0),.UNSPECIFIED.)CURVE()GEOMETRIC_REPRESENTATION_ITEM()RATIONAL_B_SPLINE_CURVE((1.00000000000000000E0,7.07106781186547573E-1,1.00000000000000000E0))REPRESENTATION_ITEM(''));
#98=CARTESIAN_POINT('',(1.31783710369745766E1,1.31616206159200910E0,2.79971944516833631E1));
#99=CARTESIAN_POINT('',(1.51672559127818687E1,-3.81163833924118167E0,2.79971944516833631E1));
#100=B_SPLINE_CURVE_WITH_KNOTS('',1,(#98,#99),.UNSPECIFIED.,.F.,.F.,(2,2),(0.00000000000000000E0,1.00000000000000000E0),.UNSPECIFIED.);
#101=CARTESIAN_POINT('',(5.53656842888334211E0,-1.64781165873216962E0,2.22685198506785476E1));
#102=CARTESIAN_POINT('',(1.31783710369745766E1,1.31616206159200910E0,2.79971944516833631E1));
#103=B_SPLINE_CURVE_WITH_KNOTS('',1,(#101,#102),.UNSPECIFIED.,.F.,.F.,(2,2),(0.00000000000000000E0,1.00000000000000000E0),.UNSPECIFIED.);
#104=CARTESIAN_POINT('',(8.74116841964065827E0,-4.04865374474732143E-1,1.73506317436056712E1));
#105=CARTESIAN_POINT('',(1.44725203757090846E1,1.81811491576840201E0,2.16471376943592837E1));
#106=B_SPLINE_CURVE_WITH_KNOTS('',1,(#104,#105),.UNSPECIFIED.,.F.,.F.,(2,2),(0.00000000000000000E0,1.00000000000000000E0),.UNSPECIFIED.);
#107=CARTESIAN_POINT('',(1.64614052515163785E1,-3.30968548506478877E0,2.16471376943592837E1));
#108=CARTESIAN_POINT('',(1.44725203757090846E1,1.81811491576840201E0,2.16471376943592837E1));
#109=B_SPLINE_CURVE_WITH_KNOTS('',1,(#107,#108),.UNSPECIFIED.,.F.,.F.,(2,2),(0.00000000000000000E0,1.00000000000000000E0),.UNSPECIFIED.);
#110=CARTESIAN_POINT('',(1.64614052515163785E1,-3.30968548506478877E0,2.16471376943592837E1));
#111=CARTESIAN_POINT('',(1.07300532954479486E1,-5.53266577530792425E0,1.73506317436056712E1));
#112=B_SPLINE_CURVE_WITH_KNOTS('',1,(#110,#111),.UNSPECIFIED.,.F.,.F.,(2,2),(0.00000000000000000E0,1.00000000000000000E0),.UNSPECIFIED.);
#113=CARTESIAN_POINT('',(8.74116841964065827E0,-4.04865374474732143E-1,1.73506317436056712E1));
#114=CARTESIAN_POINT('',(1.07300532954479486E1,-5.53266577530792425E0,1.73506317436056712E1));
#115=B_SPLINE_CURVE_WITH_KNOTS('',1,(#113,#114),.UNSPECIFIED.,.F.,.F.,(2,2),(0.00000000000000000E0,1.00000000000000000E0),.UNSPECIFIED.);
#116=CARTESIAN_POINT('',(1.31783710369745766E1,1.31616206159200910E0,2.79971944516833631E1));
#117=CARTESIAN_POINT('',(1.50477210315830128E1,2.04121406074218203E0,2.51284263892241846E1));
#118=B_SPLINE_CURVE_WITH_KNOTS('',1,(#116,#117),.UNSPECIFIED.,.F.,.F.,(2,2),(0.00000000000000000E0,1.00000000000000000E0),.UNSPECIFIED.);
#119=CARTESIAN_POINT('',(1.50477210315830128E1,2.04121406074218203E0,2.51284263892241846E1));
#120=CARTESIAN_POINT('',(1.63829710277318945E1,2.55910834584944702E0,2.30793063446104867E1));
#121=CARTESIAN_POINT('',(1.44725203757090846E1,1.81811491576840201E0,2.16471376943592837E1));
#122=(BOUNDED_CURVE()B_SPLINE_CURVE(2,(#119,#120,#121),.UNSPECIFIED.,.F.,.F.)B_SPLINE_CURVE_WITH_KNOTS((3,3),(0.00000000000000000E0,1.00000000000000000E0),.UNSPECIFIED.)CURVE()GEOMETRIC_REPRESENTATION_ITEM()RATIONAL_B_SPLINE_CURVE((2.00000000000000000E0,1.00000000000000000E0,1.00000000000000000E0))REPRESENTATION_ITEM(''));
#123=CARTESIAN_POINT('',(5.53656842888334211E0,-1.64781165873216962E0,2.22685198506785476E1));
#124=CARTESIAN_POINT('',(8.74116841964065827E0,-4.04865374474732143E-1,1.73506317436056712E1));
#125=B_SPLINE_CURVE_WITH_KNOTS('',1,(#123,#124),.UNSPECIFIED.,.F.,.F.,(2,2),(0.00000000000000000E0,1.00000000000000000E0),.UNSPECIFIED.);
#126=CARTESIAN_POINT('',(1.02988418792114729E1,-8.38137842443027559E0,1.93997517882193691E1));
#127=CARTESIAN_POINT('',(1.16340918753603546E1,-7.86348413932300971E0,1.73506317436056712E1));
#128=CARTESIAN_POINT('',(1.07300532954479486E1,-5.53266577530792425E0,1.73506317436056712E1));
#129=(BOUNDED_CURVE()B_SPLINE_CURVE(2,(#126,#127,#128),.UNSPECIFIED.,.F.,.F.)B_SPLINE_CURVE_WITH_KNOTS((3,3),(0.00000000000000000E0,1.00000000000000000E0),.UNSPECIFIED.)CURVE()GEOMETRIC_REPRESENTATION_ITEM()RATIONAL_B_SPLINE_CURVE((2.00000000000000000E0,1.00000000000000000E0,1.00000000000000000E0))REPRESENTATION_ITEM(''));
#130=CARTESIAN_POINT('',(8.42949188460303844E0,-9.10643042358044852E0,2.22685198506785476E1));
#131=CARTESIAN_POINT('',(1.02988418792114729E1,-8.38137842443027559E0,1.93997517882193691E1));
#132=B_SPLINE_CURVE_WITH_KNOTS('',1,(#130,#131),.UNSPECIFIED.,.F.,.F.,(2,2),(0.00000000000000000E0,1.00000000000000000E0),.UNSPECIFIED.);
#133=CARTESIAN_POINT('',(1.60301938352799027E1,-6.15839813418714055E0,2.36962577389729816E1));
#134=CARTESIAN_POINT('',(1.02988418792114729E1,-8.38137842443027559E0,1.93997517882193691E1));
#135=B_SPLINE_CURVE_WITH_KNOTS('',1,(#133,#134),.UNSPECIFIED.,.F.,.F.,(2,2),(0.00000000000000000E0,1.00000000000000000E0),.UNSPECIFIED.);
#136=CARTESIAN_POINT('',(1.41608438406714647E1,-6.88345013333731259E0,2.65650258014321601E1));
#137=CARTESIAN_POINT('',(1.60301938352799027E1,-6.15839813418714055E0,2.36962577389729816E1));
#138=B_SPLINE_CURVE_WITH_KNOTS('',1,(#136,#137),.UNSPECIFIED.,.F.,.F.,(2,2),(0.00000000000000000E0,1.00000000000000000E0),.UNSPECIFIED.);
#139=CARTESIAN_POINT('',(1.51672559127818687E1,-3.81163833924118167E0,2.79971944516833631E1));
#140=CARTESIAN_POINT('',(1.70366059073903031E1,-3.08658634009100963E0,2.51284263892241846E1));
#141=B_SPLINE_CURVE_WITH_KNOTS('',1,(#139,#140),.UNSPECIFIED.,.F.,.F.,(2,2),(0.00000000000000000E0,1.00000000000000000E0),.UNSPECIFIED.);
#142=CARTESIAN_POINT('',(1.70366059073903031E1,-3.08658634009100963E0,2.51284263892241846E1));
#143=CARTESIAN_POINT('',(1.50477210315830128E1,2.04121406074218203E0,2.51284263892241846E1));
#144=B_SPLINE_CURVE_WITH_KNOTS('',1,(#142,#143),.UNSPECIFIED.,.F.,.F.,(2,2),(0.00000000000000000E0,1.00000000000000000E0),.UNSPECIFIED.);
#145=CARTESIAN_POINT('',(1.60301938352799027E1,-6.15839813418714055E0,2.36962577389729816E1));
#146=CARTESIAN_POINT('',(1.79406444873027091E1,-5.41740470410609554E0,2.51284263892241846E1));
#147=CARTESIAN_POINT('',(1.70366059073903031E1,-3.08658634009100963E0,2.51284263892241846E1));
#148=(BOUNDED_CURVE()B_SPLINE_CURVE(2,(#145,#146,#147),.UNSPECIFIED.,.F.,.F.)B_SPLINE_CURVE_WITH_KNOTS((3,3),(0.00000000000000000E0,1.00000000000000000E0),.UNSPECIFIED.)CURVE()GEOMETRIC_REPRESENTATION_ITEM()RATIONAL_B_SPLINE_CURVE((1.00000000000000000E0,7.07106781186547573E-1,1.00000000000000000E0))REPRESENTATION_ITEM(''));
#149=CARTESIAN_POINT('',(1.60301938352799027E1,-6.15839813418714055E0,2.36962577389729816E1));
#150=CARTESIAN_POINT('',(1.73654438314287809E1,-5.64050384907987556E0,2.16471376943592837E1));
#151=CARTESIAN_POINT('',(1.64614052515163785E1,-3.30968548506478877E0,2.16471376943592837E1));
#152=(BOUNDED_CURVE()B_SPLINE_CURVE(2,(#149,#150,#151),.UNSPECIFIED.,.F.,.F.)B_SPLINE_CURVE_WITH_KNOTS((3,3),(0.00000000000000000E0,1.00000000000000000E0),.UNSPECIFIED.)CURVE()GEOMETRIC_REPRESENTATION_ITEM()RATIONAL_B_SPLINE_CURVE((2.00000000000000000E0,1.00000000000000000E0,1.00000000000000000E0))REPRESENTATION_ITEM(''));
#153=CARTESIAN_POINT('',(1.70366059073903031E1,-3.08658634009100963E0,2.51284263892241846E1));
#154=CARTESIAN_POINT('',(1.83718559035391849E1,-2.56869205498374420E0,2.30793063446104867E1));
#155=CARTESIAN_POINT('',(1.64614052515163785E1,-3.30968548506478877E0,2.16471376943592837E1));
#156=(BOUNDED_CURVE()B_SPLINE_CURVE(2,(#153,#154,#155),.UNSPECIFIED.,.F.,.F.)B_SPLINE_CURVE_WITH_KNOTS((3,3),(0.00000000000000000E0,1.00000000000000000E0),.UNSPECIFIED.)CURVE()GEOMETRIC_REPRESENTATION_ITEM()RATIONAL_B_SPLINE_CURVE((2.00000000000000000E0,1.00000000000000000E0,1.00000000000000000E0))REPRESENTATION_ITEM(''));
#157=(GEOMETRIC_REPRESENTATION_CONTEXT(2)REPRESENTATION_CONTEXT('','2D'));
#158=CARTESIAN_POINT('',(0.00000000000000000E0,0.00000000000000000E0));
#159=CARTESIAN_POINT('',(1.00000000000000000E0,0.00000000000000000E0));
#160=B_SPLINE_CURVE_WITH_KNOTS('',1,(#158,#159),.UNSPECIFIED.,.F.,.F.,(2,2),(0.00000000000000000E0,1.00000000000000000E0),.UNSPECIFIED.);
#161=DEFINITIONAL_REPRESENTATION('',(#160),#157);
#162=PCURVE('',#31,#161);
#163=CARTESIAN_POINT('',(1.00000000000000000E0,0.00000000000000000E0));
#164=CARTESIAN_POINT('',(1.00000000000000000E0,7.50000000000000111E-1));
#165=B_SPLINE_CURVE_WITH_KNOTS('',1,(#163,#164),.UNSPECIFIED.,.F.,.F.,(2,2),(0.00000000000000000E0,1.00000000000000000E0),.UNSPECIFIED.);
#166=DEFINITIONAL_REPRESENTATION('',(#165),#157);
#167=PCURVE('',#31,#166);
#168=CARTESIAN_POINT('',(1.00000000000000000E0,7.50000000000000111E-1));
#169=CARTESIAN_POINT('',(1.00000000000000000E0,1.00000000000000000E0));
#170=CARTESIAN_POINT('',(6.87500000000000111E-1,1.00000000000000000E0));
#171=(BOUNDED_CURVE()B_SPLINE_CURVE(2,(#168,#169,#170),.UNSPECIFIED.,.F.,.F.)B_SPLINE_CURVE_WITH_KNOTS((3,3),(0.00000000000000000E0,1.00000000000000000E0),.UNSPECIFIED.)CURVE()GEOMETRIC_REPRESENTATION_ITEM()RATIONAL_B_SPLINE_CURVE((1.00000000000000000E0,7.07106781186547573E-1,1.00000000000000000E0))REPRESENTATION_ITEM(''));
#172=DEFINITIONAL_REPRESENTATION('',(#171),#157);
#173=PCURVE('',#31,#172);
#174=CARTESIAN_POINT('',(6.87500000000000111E-1,1.00000000000000000E0));
#175=CARTESIAN_POINT('',(0.00000000000000000E0,1.00000000000000000E0));
#176=B_SPLINE_CURVE_WITH_KNOTS('',1,(#174,#175),.UNSPECIFIED.,.F.,.F.,(2,2),(0.00000000000000000E0,1.00000000000000000E0),.UNSPECIFIED.);
#177=DEFINITIONAL_REPRESENTATION('',(#176),#157);
#178=PCURVE('',#31,#177);
#179=CARTESIAN_POINT('',(0.00000000000000000E0,1.00000000000000000E0));
#180=CARTESIAN_POINT('',(0.00000000000000000E0,0.00000000000000000E0));
#181=B_SPLINE_CURVE_WITH_KNOTS('',1,(#179,#180),.UNSPECIFIED.,.F.,.F.,(2,2),(0.00000000000000000E0,1.00000000000000000E0),.UNSPECIFIED.);
#182=DEFINITIONAL_REPRESENTATION('',(#181),#157);
#183=PCURVE('',#31,#182);
#184=CARTESIAN_POINT('',(1.00000000000000000E0,0.00000000000000000E0));
#185=CARTESIAN_POINT('',(1.00000000000000000E0,7.50000000000000111E-1));
#186=B_SPLINE_CURVE_WITH_KNOTS('',1,(#184,#185),.UNSPECIFIED.,.F.,.F.,(2,2),(0.00000000000000000E0,1.00000000000000000E0),.UNSPECIFIED.);
#187=DEFINITIONAL_REPRESENTATION('',(#186),#157);
#188=PCURVE('',#36,#187);
#189=CARTESIAN_POINT('',(1.00000000000000000E0,7.50000000000000111E-1));
#190=CARTESIAN_POINT('',(3.12499999999999889E-1,7.50000000000000111E-1));
#191=B_SPLINE_CURVE_WITH_KNOTS('',1,(#189,#190),.UNSPECIFIED.,.F.,.F.,(2,2),(0.00000000000000000E0,1.00000000000000000E0),.UNSPECIFIED.);
#192=DEFINITIONAL_REPRESENTATION('',(#191),#157);
#193=PCURVE('',#36,#192);
#194=CARTESIAN_POINT('',(3.12499999999999889E-1,7.50000000000000111E-1));
#195=CARTESIAN_POINT('',(3.12499999999999889E-1,0.00000000000000000E0));
#196=B_SPLINE_CURVE_WITH_KNOTS('',1,(#194,#195),.UNSPECIFIED.,.F.,.F.,(2,2),(0.00000000000000000E0,1.00000000000000000E0),.UNSPECIFIED.);
#197=DEFINITIONAL_REPRESENTATION('',(#196),#157);
#198=PCURVE('',#36,#197);
#199=CARTESIAN_POINT('',(3.12499999999999889E-1,0.00000000000000000E0));
#200=CARTESIAN_POINT('',(1.00000000000000000E0,0.00000000000000000E0));
#201=B_SPLINE_CURVE_WITH_KNOTS('',1,(#199,#200),.UNSPECIFIED.,.F.,.F.,(2,2),(0.00000000000000000E0,1.00000000000000000E0),.UNSPECIFIED.);
#202=DEFINITIONAL_REPRESENTATION('',(#201),#157);
#203=PCURVE('',#36,#202);
#204=CARTESIAN_POINT('',(0.00000000000000000E0,0.00000000000000000E0));
#205=CARTESIAN_POINT('',(1.00000000000000000E0,0.00000000000000000E0));
#206=B_SPLINE_CURVE_WITH_KNOTS('',1,(#204,#205),.UNSPECIFIED.,.F.,.F.,(2,2),(0.00000000000000000E0,1.00000000000000000E0),.UNSPECIFIED.);
#207=DEFINITIONAL_REPRESENTATION('',(#206),#157);
#208=PCURVE('',#41,#207);
#209=CARTESIAN_POINT('',(1.00000000000000000E0,0.00000000000000000E0));
#210=CARTESIAN_POINT('',(1.00000000000000000E0,5.83333333333333481E-1));
#211=B_SPLINE_CURVE_WITH_KNOTS('',1,(#209,#210),.UNSPECIFIED.,.F.,.F.,(2,2),(0.00000000000000000E0,1.00000000000000000E0),.UNSPECIFIED.);
#212=DEFINITIONAL_REPRESENTATION('',(#211),#157);
#213=PCURVE('',#41,#212);
#214=CARTESIAN_POINT('',(1.00000000000000000E0,5.83333333333333481E-1));
#215=CARTESIAN_POINT('',(1.00000000000000000E0,1.00000000000000000E0));
#216=CARTESIAN_POINT('',(7.50000000000000111E-1,1.00000000000000000E0));
#217=(BOUNDED_CURVE()B_SPLINE_CURVE(2,(#214,#215,#216),.UNSPECIFIED.,.F.,.F.)B_SPLINE_CURVE_WITH_KNOTS((3,3),(0.00000000000000000E0,1.00000000000000000E0),.UNSPECIFIED.)CURVE()GEOMETRIC_REPRESENTATION_ITEM()RATIONAL_B_SPLINE_CURVE((2.00000000000000000E0,1.00000000000000000E0,1.00000000000000000E0))REPRESENTATION_ITEM(''));
#218=DEFINITIONAL_REPRESENTATION('',(#217),#157);
#219=PCURVE('',#41,#218);
#220=CARTESIAN_POINT('',(7.50000000000000111E-1,1.00000000000000000E0));
#221=CARTESIAN_POINT('',(0.00000000000000000E0,1.00000000000000000E0));
#222=B_SPLINE_CURVE_WITH_KNOTS('',1,(#220,#221),.UNSPECIFIED.,.F.,.F.,(2,2),(0.00000000000000000E0,1.00000000000000000E0),.UNSPECIFIED.);
#223=DEFINITIONAL_REPRESENTATION('',(#222),#157);
#224=PCURVE('',#41,#223);
#225=CARTESIAN_POINT('',(0.00000000000000000E0,1.00000000000000000E0));
#226=CARTESIAN_POINT('',(0.00000000000000000E0,0.00000000000000000E0));
#227=B_SPLINE_CURVE_WITH_KNOTS('',1,(#225,#226),.UNSPECIFIED.,.F.,.F.,(2,2),(0.00000000000000000E0,1.00000000000000000E0),.UNSPECIFIED.);
#228=DEFINITIONAL_REPRESENTATION('',(#227),#157);
#229=PCURVE('',#41,#228);
#230=CARTESIAN_POINT('',(1.00000000000000000E0,0.00000000000000000E0));
#231=CARTESIAN_POINT('',(1.00000000000000000E0,1.00000000000000000E0));
#232=B_SPLINE_CURVE_WITH_KNOTS('',1,(#230,#231),.UNSPECIFIED.,.F.,.F.,(2,2),(0.00000000000000000E0,1.00000000000000000E0),.UNSPECIFIED.);
#233=DEFINITIONAL_REPRESENTATION('',(#232),#157);
#234=PCURVE('',#46,#233);
#235=CARTESIAN_POINT('',(1.00000000000000000E0,1.00000000000000000E0));
#236=CARTESIAN_POINT('',(3.12499999999999889E-1,1.00000000000000000E0));
#237=B_SPLINE_CURVE_WITH_KNOTS('',1,(#235,#236),.UNSPECIFIED.,.F.,.F.,(2,2),(0.00000000000000000E0,1.00000000000000000E0),.UNSPECIFIED.);
#238=DEFINITIONAL_REPRESENTATION('',(#237),#157);
#239=PCURVE('',#46,#238);
#240=CARTESIAN_POINT('',(3.12499999999999889E-1,1.00000000000000000E0));
#241=CARTESIAN_POINT('',(0.00000000000000000E0,1.00000000000000000E0));
#242=CARTESIAN_POINT('',(0.00000000000000000E0,5.83333333333333481E-1));
#243=(BOUNDED_CURVE()B_SPLINE_CURVE(2,(#240,#241,#242),.UNSPECIFIED.,.F.,.F.)B_SPLINE_CURVE_WITH_KNOTS((3,3),(0.00000000000000000E0,1.00000000000000000E0),.UNSPECIFIED.)CURVE()GEOMETRIC_REPRESENTATION_ITEM()RATIONAL_B_SPLINE_CURVE((1.00000000000000000E0,1.00000000000000000E0,2.00000000000000000E0))REPRESENTATION_ITEM(''));
#244=DEFINITIONAL_REPRESENTATION('',(#243),#157);
#245=PCURVE('',#46,#244);
#246=CARTESIAN_POINT('',(0.00000000000000000E0,5.83333333333333481E-1));
#247=CARTESIAN_POINT('',(0.00000000000000000E0,0.00000000000000000E0));
#248=B_SPLINE_CURVE_WITH_KNOTS('',1,(#246,#247),.UNSPECIFIED.,.F.,.F.,(2,2),(0.00000000000000000E0,1.00000000000000000E0),.UNSPECIFIED.);
#249=DEFINITIONAL_REPRESENTATION('',(#248),#157);
#250=PCURVE('',#46,#249);
#251=CARTESIAN_POINT('',(0.00000000000000000E0,0.00000000000000000E0));
#252=CARTESIAN_POINT('',(1.00000000000000000E0,0.00000000000000000E0));
#253=B_SPLINE_CURVE_WITH_KNOTS('',1,(#251,#252),.UNSPECIFIED.,.F.,.F.,(2,2),(0.00000000000000000E0,1.00000000000000000E0),.UNSPECIFIED.);
#254=DEFINITIONAL_REPRESENTATION('',(#253),#157);
#255=PCURVE('',#46,#254);
#256=CARTESIAN_POINT('',(1.00000000000000000E0,0.00000000000000000E0));
#257=CARTESIAN_POINT('',(1.00000000000000000E0,5.83333333333333481E-1));
#258=B_SPLINE_CURVE_WITH_KNOTS('',1,(#256,#257),.UNSPECIFIED.,.F.,.F.,(2,2),(0.00000000000000000E0,1.00000000000000000E0),.UNSPECIFIED.);
#259=DEFINITIONAL_REPRESENTATION('',(#258),#157);
#260=PCURVE('',#51,#259);
#261=CARTESIAN_POINT('',(1.00000000000000000E0,5.83333333333333481E-1));
#262=CARTESIAN_POINT('',(2.49999999999999889E-1,5.83333333333333481E-1));
#263=B_SPLINE_CURVE_WITH_KNOTS('',1,(#261,#262),.UNSPECIFIED.,.F.,.F.,(2,2),(0.00000000000000000E0,1.00000000000000000E0),.UNSPECIFIED.);
#264=DEFINITIONAL_REPRESENTATION('',(#263),#157);
#265=PCURVE('',#51,#264);
#266=CARTESIAN_POINT('',(2.49999999999999889E-1,5.83333333333333481E-1));
#267=CARTESIAN_POINT('',(2.49999999999999889E-1,0.00000000000000000E0));
#268=B_SPLINE_CURVE_WITH_KNOTS('',1,(#266,#267),.UNSPECIFIED.,.F.,.F.,(2,2),(0.00000000000000000E0,1.00000000000000000E0),.UNSPECIFIED.);
#269=DEFINITIONAL_REPRESENTATION('',(#268),#157);
#270=PCURVE('',#51,#269);
#271=CARTESIAN_POINT('',(2.49999999999999889E-1,0.00000000000000000E0));
#272=CARTESIAN_POINT('',(1.00000000000000000E0,0.00000000000000000E0));
#273=B_SPLINE_CURVE_WITH_KNOTS('',1,(#271,#272),.UNSPECIFIED.,.F.,.F.,(2,2),(0.00000000000000000E0,1.00000000000000000E0),.UNSPECIFIED.);
#274=DEFINITIONAL_REPRESENTATION('',(#273),#157);
#275=PCURVE('',#51,#274);
#276=CARTESIAN_POINT('',(0.00000000000000000E0,0.00000000000000000E0));
#277=CARTESIAN_POINT('',(6.87500000000000111E-1,0.00000000000000000E0));
#278=B_SPLINE_CURVE_WITH_KNOTS('',1,(#276,#277),.UNSPECIFIED.,.F.,.F.,(2,2),(0.00000000000000000E0,1.00000000000000000E0),.UNSPECIFIED.);
#279=DEFINITIONAL_REPRESENTATION('',(#278),#157);
#280=PCURVE('',#56,#279);
#281=CARTESIAN_POINT('',(6.87500000000000111E-1,0.00000000000000000E0));
#282=CARTESIAN_POINT('',(6.87500000000000111E-1,5.83333333333333481E-1));
#283=B_SPLINE_CURVE_WITH_KNOTS('',1,(#281,#282),.UNSPECIFIED.,.F.,.F.,(2,2),(0.00000000000000000E0,1.00000000000000000E0),.UNSPECIFIED.);
#284=DEFINITIONAL_REPRESENTATION('',(#283),#157);
#285=PCURVE('',#56,#284);
#286=CARTESIAN_POINT('',(6.87500000000000111E-1,5.83333333333333481E-1));
#287=CARTESIAN_POINT('',(0.00000000000000000E0,5.83333333333333481E-1));
#288=B_SPLINE_CURVE_WITH_KNOTS('',1,(#286,#287),.UNSPECIFIED.,.F.,.F.,(2,2),(0.00000000000000000E0,1.00000000000000000E0),.UNSPECIFIED.);
#289=DEFINITIONAL_REPRESENTATION('',(#288),#157);
#290=PCURVE('',#56,#289);
#291=CARTESIAN_POINT('',(0.00000000000000000E0,5.83333333333333481E-1));
#292=CARTESIAN_POINT('',(0.00000000000000000E0,0.00000000000000000E0));
#293=B_SPLINE_CURVE_WITH_KNOTS('',1,(#291,#292),.UNSPECIFIED.,.F.,.F.,(2,2),(0.00000000000000000E0,1.00000000000000000E0),.UNSPECIFIED.);
#294=DEFINITIONAL_REPRESENTATION('',(#293),#157);
#295=PCURVE('',#56,#294);
#296=CARTESIAN_POINT('',(1.00000000000000000E0,0.00000000000000000E0));
#297=CARTESIAN_POINT('',(1.00000000000000000E0,1.00000000000000000E0));
#298=B_SPLINE_CURVE_WITH_KNOTS('',1,(#296,#297),.UNSPECIFIED.,.F.,.F.,(2,2),(0.00000000000000000E0,1.00000000000000000E0),.UNSPECIFIED.);
#299=DEFINITIONAL_REPRESENTATION('',(#298),#157);
#300=PCURVE('',#63,#299);
#301=CARTESIAN_POINT('',(1.00000000000000000E0,1.00000000000000000E0));
#302=CARTESIAN_POINT('',(0.00000000000000000E0,1.00000000000000000E0));
#303=B_SPLINE_CURVE_WITH_KNOTS('',1,(#301,#302),.UNSPECIFIED.,.F.,.F.,(2,2),(0.00000000000000000E0,1.00000000000000000E0),.UNSPECIFIED.);
#304=DEFINITIONAL_REPRESENTATION('',(#303),#157);
#305=PCURVE('',#63,#304);
#306=CARTESIAN_POINT('',(0.00000000000000000E0,1.00000000000000000E0));
#307=CARTESIAN_POINT('',(0.00000000000000000E0,0.00000000000000000E0));
#308=B_SPLINE_CURVE_WITH_KNOTS('',1,(#306,#307),.UNSPECIFIED.,.F.,.F.,(2,2),(0.00000000000000000E0,1.00000000000000000E0),.UNSPECIFIED.);
#309=DEFINITIONAL_REPRESENTATION('',(#308),#157);
#310=PCURVE('',#63,#309);
#311=CARTESIAN_POINT('',(0.00000000000000000E0,0.00000000000000000E0));
#312=CARTESIAN_POINT('',(1.00000000000000000E0,0.00000000000000000E0));
#313=B_SPLINE_CURVE_WITH_KNOTS('',1,(#311,#312),.UNSPECIFIED.,.F.,.F.,(2,2),(0.00000000000000000E0,1.00000000000000000E0),.UNSPECIFIED.);
#314=DEFINITIONAL_REPRESENTATION('',(#313),#157);
#315=PCURVE('',#63,#314);
#316=CARTESIAN_POINT('',(0.00000000000000000E0,0.00000000000000000E0));
#317=CARTESIAN_POINT('',(1.00000000000000000E0,0.00000000000000000E0));
#318=B_SPLINE_CURVE_WITH_KNOTS('',1,(#316,#317),.UNSPECIFIED.,.F.,.F.,(2,2),(0.00000000000000000E0,1.00000000000000000E0),.UNSPECIFIED.);
#319=DEFINITIONAL_REPRESENTATION('',(#318),#157);
#320=PCURVE('',#70,#319);
#321=CARTESIAN_POINT('',(1.00000000000000000E0,0.00000000000000000E0));
#322=CARTESIAN_POINT('',(1.00000000000000000E0,1.00000000000000000E0));
#323=B_SPLINE_CURVE_WITH_KNOTS('',1,(#321,#322),.UNSPECIFIED.,.F.,.F.,(2,2),(0.00000000000000000E0,1.00000000000000000E0),.UNSPECIFIED.);
#324=DEFINITIONAL_REPRESENTATION('',(#323),#157);
#325=PCURVE('',#70,#324);
#326=CARTESIAN_POINT('',(1.00000000000000000E0,1.00000000000000000E0));
#327=CARTESIAN_POINT('',(0.00000000000000000E0,1.00000000000000000E0));
#328=B_SPLINE_CURVE_WITH_KNOTS('',1,(#326,#327),.UNSPECIFIED.,.F.,.F.,(2,2),(0.00000000000000000E0,1.00000000000000000E0),.UNSPECIFIED.);
#329=DEFINITIONAL_REPRESENTATION('',(#328),#157);
#330=PCURVE('',#70,#329);
#331=CARTESIAN_POINT('',(0.00000000000000000E0,1.00000000000000000E0));
#332=CARTESIAN_POINT('',(0.00000000000000000E0,0.00000000000000000E0));
#333=B_SPLINE_CURVE_WITH_KNOTS('',1,(#331,#332),.UNSPECIFIED.,.F.,.F.,(2,2),(0.00000000000000000E0,1.00000000000000000E0),.UNSPECIFIED.);
#334=DEFINITIONAL_REPRESENTATION('',(#333),#157);
#335=PCURVE('',#70,#334);
#336=CARTESIAN_POINT('',(1.00000000000000000E0,0.00000000000000000E0));
#337=CARTESIAN_POINT('',(1.00000000000000000E0,1.00000000000000000E0));
#338=B_SPLINE_CURVE_WITH_KNOTS('',1,(#336,#337),.UNSPECIFIED.,.F.,.F.,(2,2),(0.00000000000000000E0,1.00000000000000000E0),.UNSPECIFIED.);
#339=DEFINITIONAL_REPRESENTATION('',(#338),#157);
#340=PCURVE('',#77,#339);
#341=CARTESIAN_POINT('',(1.00000000000000000E0,1.00000000000000000E0));
#342=CARTESIAN_POINT('',(0.00000000000000000E0,1.00000000000000000E0));
#343=B_SPLINE_CURVE_WITH_KNOTS('',1,(#341,#342),.UNSPECIFIED.,.F.,.F.,(2,2),(0.00000000000000000E0,1.00000000000000000E0),.UNSPECIFIED.);
#344=DEFINITIONAL_REPRESENTATION('',(#343),#157);
#345=PCURVE('',#77,#344);
#346=CARTESIAN_POINT('',(0.00000000000000000E0,1.00000000000000000E0));
#347=CARTESIAN_POINT('',(0.00000000000000000E0,0.00000000000000000E0));
#348=B_SPLINE_CURVE_WITH_KNOTS('',1,(#346,#347),.UNSPECIFIED.,.F.,.F.,(2,2),(0.00000000000000000E0,1.00000000000000000E0),.UNSPECIFIED.);
#349=DEFINITIONAL_REPRESENTATION('',(#348),#157);
#350=PCURVE('',#77,#349);
#351=CARTESIAN_POINT('',(0.00000000000000000E0,0.00000000000000000E0));
#352=CARTESIAN_POINT('',(1.00000000000000000E0,0.00000000000000000E0));
#353=B_SPLINE_CURVE_WITH_KNOTS('',1,(#351,#352),.UNSPECIFIED.,.F.,.F.,(2,2),(0.00000000000000000E0,1.00000000000000000E0),.UNSPECIFIED.);
#354=DEFINITIONAL_REPRESENTATION('',(#353),#157);
#355=PCURVE('',#77,#354);
#356=CARTESIAN_POINT('',(1.00000000000000000E0,0.00000000000000000E0));
#357=CARTESIAN_POINT('',(1.00000000000000000E0,1.00000000000000000E0));
#358=B_SPLINE_CURVE_WITH_KNOTS('',1,(#356,#357),.UNSPECIFIED.,.F.,.F.,(2,2),(0.00000000000000000E0,1.00000000000000000E0),.UNSPECIFIED.);
#359=DEFINITIONAL_REPRESENTATION('',(#358),#157);
#360=PCURVE('',#87,#359);
#361=CARTESIAN_POINT('',(1.00000000000000000E0,1.00000000000000000E0));
#362=CARTESIAN_POINT('',(0.00000000000000000E0,1.00000000000000000E0));
#363=CARTESIAN_POINT('',(0.00000000000000000E0,0.00000000000000000E0));
#364=(BOUNDED_CURVE()B_SPLINE_CURVE(2,(#361,#362,#363),.UNSPECIFIED.,.F.,.F.)B_SPLINE_CURVE_WITH_KNOTS((3,3),(0.00000000000000000E0,1.00000000000000000E0),.UNSPECIFIED.)CURVE()GEOMETRIC_REPRESENTATION_ITEM()RATIONAL_B_SPLINE_CURVE((1.00000000000000000E0,7.07106781186547573E-1,1.00000000000000000E0))REPRESENTATION_ITEM(''));
#365=DEFINITIONAL_REPRESENTATION('',(#364),#157);
#366=PCURVE('',#87,#365);
#367=CARTESIAN_POINT('',(0.00000000000000000E0,0.00000000000000000E0));
#368=CARTESIAN_POINT('',(1.00000000000000000E0,0.00000000000000000E0));
#369=B_SPLINE_CURVE_WITH_KNOTS('',1,(#367,#368),.UNSPECIFIED.,.F.,.F.,(2,2),(0.00000000000000000E0,1.00000000000000000E0),.UNSPECIFIED.);
#370=DEFINITIONAL_REPRESENTATION('',(#369),#157);
#371=PCURVE('',#87,#370);
#372=SURFACE_CURVE('',#90,(#162,#255),.PCURVE_S1.);
#373=EDGE_CURVE('OSCAD_TOPO/3|edge|e:70357a1c1ab8ed958a1d2ab8c16c81ee|8bb730ac69c44cfa95fbcb62d0c7fb9eb397511d51d8e0292d9e8105d2cca680',#2,#4,#372,.T.);
#374=SURFACE_CURVE('',#93,(#167,#275),.PCURVE_S1.);
#375=EDGE_CURVE('OSCAD_TOPO/3|edge|e:4e41853035e572ca4db93a600d174e15|62c09185599459e7fc49918a28f0fc432654ca103a002e3107ea69d0b7217ed2',#4,#6,#374,.T.);
#376=SURFACE_CURVE('',#97,(#173,#315),.PCURVE_S1.);
#377=EDGE_CURVE('OSCAD_TOPO/3|edge|e:03eb5178e71b17fd07eaed384ce58efa|08806684326b85a9cfd64697417d7f4cc10d368c48888008c6f7405761b347f5',#6,#8,#376,.T.);
#378=SURFACE_CURVE('',#100,(#178,#280),.PCURVE_S1.);
#379=EDGE_CURVE('OSCAD_TOPO/3|edge|e:9e56b594eeb2aa47c0c28b5badc48c7a|be73574109e8159878ae9cbd569a1185379eb688b5b66baf5a1684a4eb454c69',#10,#8,#378,.T.);
#380=SURFACE_CURVE('',#103,(#183,#208),.PCURVE_S1.);
#381=EDGE_CURVE('OSCAD_TOPO/3|edge|e:a82d5a72971e4ed2afb27b6347f99dcc|c169c8a0f5d4cde820aa63f52d6b1a7cc15310def170a20fad4b54a0e08f4424',#2,#10,#380,.T.);
#382=SURFACE_CURVE('',#106,(#188,#224),.PCURVE_S1.);
#383=EDGE_CURVE('OSCAD_TOPO/3|edge|e:fecc11acbdc8e7244aee50db30888b43|d22ce67e86fe9194fbc1ffbfc527ca75bac60c2722df363ca4e03fd91119b5f5',#12,#14,#382,.T.);
#384=SURFACE_CURVE('',#109,(#193,#350),.PCURVE_S1.);
#385=EDGE_CURVE('OSCAD_TOPO/3|edge|e:84f8231c37aab43b2d704b578fcb8551|f32428326149093f212778c3e23f5c6e931081e4ad270824324bdf6093b69d00',#16,#14,#384,.T.);
#386=SURFACE_CURVE('',#112,(#198,#325),.PCURVE_S1.);
#387=EDGE_CURVE('OSCAD_TOPO/3|edge|e:ce42540ec338ca4a64a87ed7891da00d|dd6fe05f8f4c53af90b7ee1bd61587a3e6b580947d02a953ac065dc436ce8da9',#16,#18,#386,.T.);
#388=SURFACE_CURVE('',#115,(#203,#239),.PCURVE_S1.);
#389=EDGE_CURVE('OSCAD_TOPO/3|edge|e:dd2765e19c8b9f96ebb39b78ac186d8c|ce6a0e0d736aa1b0332fb134fbd66b37f88f070822ce26f5d7ab9bd6851864db',#12,#18,#388,.T.);
#390=SURFACE_CURVE('',#118,(#213,#295),.PCURVE_S1.);
#391=EDGE_CURVE('OSCAD_TOPO/3|edge|e:ddbe476047954316665a6e5bbf65f2e4|8ecad7ce9141e551b799645a7492368acd5a1643da8f08969a56e6ebc8950672',#10,#20,#390,.T.);
#392=SURFACE_CURVE('',#122,(#219,#355),.PCURVE_S1.);
#393=EDGE_CURVE('OSCAD_TOPO/3|edge|e:57f67ce269decdd3b32d04a1afcb48a5|bc216546fd491f9c151dcfc29812705b199ab679e4d267bae942dc275fdc444a',#20,#14,#392,.T.);
#394=SURFACE_CURVE('',#125,(#229,#234),.PCURVE_S1.);
#395=EDGE_CURVE('OSCAD_TOPO/3|edge|e:a9a3d4ca11838dfae606a73349b4aba5|cc7bc0e74174b98a1c3819556e729f26a940443d34fa838ea716eda760430ba9',#2,#12,#394,.T.);
#396=SURFACE_CURVE('',#129,(#245,#320),.PCURVE_S1.);
#397=EDGE_CURVE('OSCAD_TOPO/3|edge|e:dcbc2775abf3c0fc93224503bf769dc3|57b15af6add1ff9f87727110d22364d1ca361ba15b6610b149858f93ba35b78e',#22,#18,#396,.T.);
#398=SURFACE_CURVE('',#132,(#250,#260),.PCURVE_S1.);
#399=EDGE_CURVE('OSCAD_TOPO/3|edge|e:d73efc176c2c317f3e717b859569a788|fb43abd5fce1925eca4cbdfb4bdb0d96e6c0595fe18deaa3b9f8cbad73978f66',#4,#22,#398,.T.);
#400=SURFACE_CURVE('',#135,(#265,#335),.PCURVE_S1.);
#401=EDGE_CURVE('OSCAD_TOPO/3|edge|e:b81327cd09409b3305fb31d9ffddf96d|66fb34fe31ce81585e4d2ee0512e6aa566f3bef3e25b7eb7f098fb29366846a7',#24,#22,#400,.T.);
#402=SURFACE_CURVE('',#138,(#270,#300),.PCURVE_S1.);
#403=EDGE_CURVE('OSCAD_TOPO/3|edge|e:cf1d73682e06131a4ae3b40eb61a058f|8ead249920c78d638c2ebf06371b607d6f65a63bc0f4f1be69ac9316b87cc3ff',#6,#24,#402,.T.);
#404=SURFACE_CURVE('',#141,(#285,#310),.PCURVE_S1.);
#405=EDGE_CURVE('OSCAD_TOPO/3|edge|e:3d6448077e0b981564887fe99e73473e|a7d27d3a1d7005c3102c822ae0d49008b9a83dedc6b71e2c0a097703d80cbc72',#8,#26,#404,.T.);
#406=SURFACE_CURVE('',#144,(#290,#340),.PCURVE_S1.);
#407=EDGE_CURVE('OSCAD_TOPO/3|edge|e:16e5b580138091a13078c6ec12c31613|d47cd72c78c20b6050f08f727a8ccc220b1b6ce363ca6909516b06e7391e2ba4',#26,#20,#406,.T.);
#408=SURFACE_CURVE('',#148,(#305,#366),.PCURVE_S1.);
#409=EDGE_CURVE('OSCAD_TOPO/3|edge|e:3acce1ad273d9b291a4a2c2c7507c414|bab29b95e3fdbb57f016b88b8cb80ac714a9b01b5bfd9d020a9098c63aa9ee90',#24,#26,#408,.T.);
#410=SURFACE_CURVE('',#152,(#330,#371),.PCURVE_S1.);
#411=EDGE_CURVE('OSCAD_TOPO/3|edge|e:eedeb2c00b75ec6469ab08eae4b36110|d3ca2db18144615e71f1dca33c0ba3824ff523b2e67dfc19947bee226119b7d9',#24,#16,#410,.T.);
#412=SURFACE_CURVE('',#156,(#345,#360),.PCURVE_S1.);
#413=EDGE_CURVE('OSCAD_TOPO/3|edge|e:06761e29325eaee4d7a5131009d353cc|5a8e1e0a5bcf627713895bf5f05725c9670fe98655f76ffa64337ef18862cb43',#26,#16,#412,.T.);
#414=ORIENTED_EDGE('',*,*,#373,.T.);
#415=ORIENTED_EDGE('',*,*,#375,.T.);
#416=ORIENTED_EDGE('',*,*,#377,.T.);
#417=ORIENTED_EDGE('',*,*,#379,.F.);
#418=ORIENTED_EDGE('',*,*,#381,.F.);
#419=EDGE_LOOP('OSCAD_TOPO/3|loop|l:065e34c409d1c18c3ac83003eb79b98f|058345b91dc65b01c79a78f796f263e3955af1dc9d2d142db4db3b28c04f710f',(#414,#415,#416,#417,#418));
#420=ORIENTED_EDGE('',*,*,#383,.T.);
#421=ORIENTED_EDGE('',*,*,#385,.F.);
#422=ORIENTED_EDGE('',*,*,#387,.T.);
#423=ORIENTED_EDGE('',*,*,#389,.F.);
#424=EDGE_LOOP('OSCAD_TOPO/3|loop|l:de824103e974666b85fb61edfe620804|a25f3f312ba529000c54943c320e4133a30458ef1d7585869cc76f80f6083eef',(#420,#421,#422,#423));
#425=ORIENTED_EDGE('',*,*,#381,.T.);
#426=ORIENTED_EDGE('',*,*,#391,.T.);
#427=ORIENTED_EDGE('',*,*,#393,.T.);
#428=ORIENTED_EDGE('',*,*,#383,.F.);
#429=ORIENTED_EDGE('',*,*,#395,.F.);
#430=EDGE_LOOP('OSCAD_TOPO/3|loop|l:ccb843211bac4dae4a0f251ed549daae|9d4c835492d1cc6505997cad3fd86181d990dcba0ae86b5edbcae08cb97c31e8',(#425,#426,#427,#428,#429));
#431=ORIENTED_EDGE('',*,*,#395,.T.);
#432=ORIENTED_EDGE('',*,*,#389,.T.);
#433=ORIENTED_EDGE('',*,*,#397,.F.);
#434=ORIENTED_EDGE('',*,*,#399,.F.);
#435=ORIENTED_EDGE('',*,*,#373,.F.);
#436=EDGE_LOOP('OSCAD_TOPO/3|loop|l:ce05bd095c096b46edb01e6921b5e3e9|95824c62a3e3d76b70a9e3b655051d16559b626fddfcc24be8b31579d268e2b0',(#431,#432,#433,#434,#435));
#437=ORIENTED_EDGE('',*,*,#399,.T.);
#438=ORIENTED_EDGE('',*,*,#401,.F.);
#439=ORIENTED_EDGE('',*,*,#403,.F.);
#440=ORIENTED_EDGE('',*,*,#375,.F.);
#441=EDGE_LOOP('OSCAD_TOPO/3|loop|l:cf7dd44bdd81adae3ef91f995784d66f|1825948e0b7c3cef1a49f32504407f7b705c90c586d22f48b92e3cf5a516bfb2',(#437,#438,#439,#440));
#442=ORIENTED_EDGE('',*,*,#379,.T.);
#443=ORIENTED_EDGE('',*,*,#405,.T.);
#444=ORIENTED_EDGE('',*,*,#407,.T.);
#445=ORIENTED_EDGE('',*,*,#391,.F.);
#446=EDGE_LOOP('OSCAD_TOPO/3|loop|l:81c59e84b00a28d832224e22b39da786|16943e64094b7be29b05251b0a9738747e996429a09e9463cc6d49f7079a81e8',(#442,#443,#444,#445));
#447=ORIENTED_EDGE('',*,*,#403,.T.);
#448=ORIENTED_EDGE('',*,*,#409,.T.);
#449=ORIENTED_EDGE('',*,*,#405,.F.);
#450=ORIENTED_EDGE('',*,*,#377,.F.);
#451=EDGE_LOOP('OSCAD_TOPO/3|loop|l:5b595ffa23dbd7216f1df38d4f003b5d|7812c575f20b517a33b5d7021862e8d2231a80a5872a7f0f4e4e283e5f30ec44',(#447,#448,#449,#450));
#452=ORIENTED_EDGE('',*,*,#397,.T.);
#453=ORIENTED_EDGE('',*,*,#387,.F.);
#454=ORIENTED_EDGE('',*,*,#411,.F.);
#455=ORIENTED_EDGE('',*,*,#401,.T.);
#456=EDGE_LOOP('OSCAD_TOPO/3|loop|l:f1ff7c6b0e94365c9dff0bd277d41949|fd4d2abff6ef83a036316e800366d43889e91da1c1ab9cf3fb956d9f7f62e733',(#452,#453,#454,#455));
#457=ORIENTED_EDGE('',*,*,#407,.F.);
#458=ORIENTED_EDGE('',*,*,#413,.T.);
#459=ORIENTED_EDGE('',*,*,#385,.T.);
#460=ORIENTED_EDGE('',*,*,#393,.F.);
#461=EDGE_LOOP('OSCAD_TOPO/3|loop|l:c7e41ca6bc04efc32be9478b7db25dcb|b8474f04e49be9744ffb40b3a9a6d3c3ae1c0980f1cd8f8fd4405b5e8ce1d495',(#457,#458,#459,#460));
#462=ORIENTED_EDGE('',*,*,#413,.F.);
#463=ORIENTED_EDGE('',*,*,#409,.F.);
#464=ORIENTED_EDGE('',*,*,#411,.T.);
#465=EDGE_LOOP('OSCAD_TOPO/3|loop|l:d8c620df32b5d141d16e40e6e6f403aa|7a2e0cf4fa8db23d86260a940e5accfd8b8f02e3ddd5e62a00cb20098e914607',(#462,#463,#464));
#466=FACE_OUTER_BOUND('',#419,.T.);
#467=ADVANCED_FACE('OSCAD_TOPO/3|face|f:d19ecdf346af0be39c1eb1abfc9d745f|2967dd7fa8aa1b74862e94fe7718e507472c1ea1089042397fb3b7ad383486b5',(#466),#31,.T.);
#468=FACE_OUTER_BOUND('',#424,.T.);
#469=ADVANCED_FACE('OSCAD_TOPO/3|face|f:e45be8be21eace6d200af97f6d6fc9d0|fdb16575643e5bc605b5d13e1f7fca3b8361ec3bf2f1745f0633228190db9a2e',(#468),#36,.T.);
#470=FACE_OUTER_BOUND('',#430,.T.);
#471=ADVANCED_FACE('OSCAD_TOPO/3|face|f:2e0b7f4b809ee4733c12476095425bfb|ece1c4234b4644307f5a35534099b5d7d8aa6469c1456697c29480cc573d0223',(#470),#41,.T.);
#472=FACE_OUTER_BOUND('',#436,.T.);
#473=ADVANCED_FACE('OSCAD_TOPO/3|face|f:a6f653f520513247063da505fea56509|7faec14120f9d17304a086aaffdccc663f5857781b54c5108b6f8fce1e26a976',(#472),#46,.T.);
#474=FACE_OUTER_BOUND('',#441,.T.);
#475=ADVANCED_FACE('OSCAD_TOPO/3|face|f:c68f27284d6f2372955876e1a76115b8|acb7699e7d4f64d3212215d7d72072fcd9ce2f2efe3b67aba9a01c12382ee841',(#474),#51,.T.);
#476=FACE_OUTER_BOUND('',#446,.T.);
#477=ADVANCED_FACE('OSCAD_TOPO/3|face|f:6d8e2bc7421ed253739c25cd3e0bd761|06e0b71da2fbd8da8119ea7c31928e7098fc1c65e5a8b98e2afa8b14081aa1ba',(#476),#56,.T.);
#478=FACE_OUTER_BOUND('',#451,.T.);
#479=ADVANCED_FACE('OSCAD_TOPO/3|face|f:734cbc51e705d25c814929868c7e402b|e372e49e741452cca744f6dfa00aaed55b6505e80b10b37d11f4cc1afff3c4c3',(#478),#63,.T.);
#480=FACE_OUTER_BOUND('',#456,.T.);
#481=ADVANCED_FACE('OSCAD_TOPO/3|face|f:611646daad56085d3bdd3c46ee62dda1|d4ed1bcce7859fec1a2931ab537fdfc94e4f2c4f60c5bb506af81e7fea8ba68f',(#480),#70,.T.);
#482=FACE_OUTER_BOUND('',#461,.T.);
#483=ADVANCED_FACE('OSCAD_TOPO/3|face|f:b610c2749ab40c28f48376af9042fcc4|6ed77ffb55458355d80f973369b1867600ac26b0e37cfe31307351258143cf29',(#482),#77,.T.);
#484=FACE_OUTER_BOUND('',#465,.T.);
#485=ADVANCED_FACE('OSCAD_TOPO/3|face|f:edb78ccd76397a062b6cba652ef639f9|f41f1afdd97aee4687ce6fc8ca55e51cacf0f178d9a88e51fae18936fcfe39a7',(#484),#87,.T.);
#486=CLOSED_SHELL('OSCAD_TOPO/3|shell|s:a3b633e7bba6f2f1cdd5081e4eac7ff9|d847ee09a2180bceb94df904a5ec2f59a62b0edb21d9bb6fb24040635c2e770d',(#467,#469,#471,#473,#475,#477,#479,#481,#483,#485));
#487=MANIFOLD_SOLID_BREP('OSCAD_TOPO/3|body|b:a29490f5bad6269f33d7e911efd1026c|4843cde20ec0bcba5d514ec0bc91c5c300f7ccdb943101c58c193a4dd79b86a0',#486);
#488=(LENGTH_UNIT()NAMED_UNIT(*)SI_UNIT(.MILLI.,.METRE.));
#489=UNCERTAINTY_MEASURE_WITH_UNIT(LENGTH_MEASURE(9.99999999999999955E-8),#488,'distance_accuracy_value','');
#490=(GEOMETRIC_REPRESENTATION_CONTEXT(3)GLOBAL_UNCERTAINTY_ASSIGNED_CONTEXT((#489))GLOBAL_UNIT_ASSIGNED_CONTEXT((#488))REPRESENTATION_CONTEXT('','3D'));
#491=ADVANCED_BREP_SHAPE_REPRESENTATION('',(#487),#490);
#492=APPLICATION_CONTEXT('managed model based 3d engineering');
#493=PRODUCT_CONTEXT('',#492,'mechanical');
#494=PRODUCT('model','model','',(#493));
#495=PRODUCT_DEFINITION_FORMATION('1','',#494);
#496=PRODUCT_DEFINITION_CONTEXT('part definition',#492,'design');
#497=PRODUCT_DEFINITION('design','',#495,#496);
#498=PRODUCT_DEFINITION_SHAPE('','',#497);
#499=SHAPE_DEFINITION_REPRESENTATION(#498,#491);
ENDSEC;
END-ISO-10303-21;
