ISO-10303-21;
HEADER;
FILE_DESCRIPTION(('OpenSCAD Viewer retained AP242 B-rep'),'2;1');
FILE_NAME('model.step','',(''),(''),'OpenSCAD Viewer','OpenSCAD Viewer','');
FILE_SCHEMA(('AP242_MANAGED_MODEL_BASED_3D_ENGINEERING_MIM_LF'));
ENDSEC;
DATA;
#1=CARTESIAN_POINT('',(8.74116841964065827E0,-4.04865374474732143E-1,1.73506317436056712E1));
#2=VERTEX_POINT('OSCAD_TOPO/3|vertex|v:a612cf517ce72ec3dada278ce677c540|7c9b815a9aef65796e7ad3d7e7df8bea87e329a3bbed3d93a99df8101a2c61c4',#1);
#3=CARTESIAN_POINT('',(1.63829710277318945E1,2.55910834584944613E0,2.30793063446104867E1));
#4=VERTEX_POINT('OSCAD_TOPO/3|vertex|v:1792aa327581d942a54b278b132c5d4c|a7d7bad71f243cb26d615b4baf110a7b6dd37c3cec789b0459a77396db241820',#3);
#5=CARTESIAN_POINT('',(1.16340918753603546E1,-7.86348413932301060E0,1.73506317436056712E1));
#6=VERTEX_POINT('OSCAD_TOPO/3|vertex|v:b7b04825407f0ec01cd51688d0bab84d|11fecac7b57ce01e1678c5f36a1e44cdc5d756cd8339c16436f918349e6dad70',#5);
#7=CARTESIAN_POINT('',(5.53656842888334033E0,-1.64781165873217006E0,2.22685198506785511E1));
#8=VERTEX_POINT('OSCAD_TOPO/3|vertex|v:4cb20bc6570e7db143224a09414d50bb|43711cb66d6b8a7431eec7b78ef367239b703dd0f31815492c1786e4ea25e888',#7);
#9=CARTESIAN_POINT('',(1.91854906254603499E1,-4.66642858259732218E0,2.30793063446104867E1));
#10=VERTEX_POINT('OSCAD_TOPO/3|vertex|v:d6539500876807fb1728a678d77a5c91|02833d0048d485b8a852bb757b876fc11b1b594e32ec582d251ade8871dfb6e8',#9);
#11=CARTESIAN_POINT('',(1.90848494182493091E1,-4.97360976200693550E0,2.29360894795853696E1));
#12=VERTEX_POINT('OSCAD_TOPO/3|vertex|v:dc61a441276a387b28270a71b9166afa|4022e38ae84f68c4f2e2f4332eec417f3dead98407686faf2544955a35de18d5',#11);
#13=CARTESIAN_POINT('',(1.61144156343179219E1,-5.85758543834403334E0,2.77922824472219965E1));
#14=VERTEX_POINT('OSCAD_TOPO/3|vertex|v:ad427e69e2caccd9f4939ca8e5a2d941|0606d16523d9fbf7fd185b832db808f72d203b3ab12d952b8d3ec515fac0b6e4',#13);
#15=CARTESIAN_POINT('',(1.60137744271068811E1,-6.16476661775364665E0,2.76490655821968758E1));
#16=VERTEX_POINT('OSCAD_TOPO/3|vertex|v:fbb4e2ca4eabd99a077dd2c6e1c1660c|db023c69ec0796d8580a9e358f6c391e37406ffa1d0d694822424eddb850c9e2',#15);
#17=CARTESIAN_POINT('',(1.57898455695007520E1,-5.98347420986286416E0,2.78539775866582460E1));
#18=VERTEX_POINT('OSCAD_TOPO/3|vertex|v:8ea1f817bbaa98e3f6540d3d850e04b5|6a3ed7a807b90696f6850aa4729f3228e56056e33e64596aeb80eefc6fd518b2',#17);
#19=CARTESIAN_POINT('',(1.33118960365894647E1,1.36795149010273587E0,2.77922824472219965E1));
#20=VERTEX_POINT('OSCAD_TOPO/3|vertex|v:4ecc6b7c3596ac6bf28aad28dd645001|35a997ef5d0144eed85fe934f8f5aaf2ba0b99765711fa5e13be3a363d9dd8d9',#19);
#21=CARTESIAN_POINT('',(1.29873259717722949E1,1.24206271858390505E0,2.78539775866582460E1));
#22=VERTEX_POINT('OSCAD_TOPO/3|vertex|v:e6b28e430da9b7a7ec2a617a813d9e14|726b65db1e9a7f61994d8c46ecf9c857731e8f5e38adc0995bf3c312f4bfc37f',#21);
#23=CARTESIAN_POINT('',(8.56301688421792484E0,-9.05464099506972175E0,2.20636078462171810E1));
#24=VERTEX_POINT('OSCAD_TOPO/3|vertex|v:24a990a05c0305eee3d945d18d498679|2425cfb086dbc970fc9d599564352cbe95be6d2a6bfdb3f400d1a12811897b3b',#23);
#25=CARTESIAN_POINT('',(8.33908802661179571E0,-8.87334858717893837E0,2.22685198506785511E1));
#26=VERTEX_POINT('OSCAD_TOPO/3|vertex|v:9c031daae3e60437169b3b45a3a176de|af818a17463ab6c2a350597a1caf3f566ccdd129cf931e58a19e5745280ce00a',#25);
#27=CARTESIAN_POINT('',(8.74116841964065827E0,-4.04865374474732143E-1,1.73506317436056712E1));
#28=CARTESIAN_POINT('',(1.16340918753603546E1,-7.86348413932301060E0,1.73506317436056712E1));
#29=CARTESIAN_POINT('',(1.63829710277318945E1,2.55910834584944613E0,2.30793063446104867E1));
#30=CARTESIAN_POINT('',(1.92758944834515908E1,-4.89951041899883144E0,2.30793063446104867E1));
#31=B_SPLINE_SURFACE_WITH_KNOTS('',1,1,((#27,#28),(#29,#30)),.UNSPECIFIED.,.F.,.F.,.F.,(2,2),(2,2),(0.00000000000000000E0,1.00000000000000000E0),(0.00000000000000000E0,1.00000000000000000E0),.UNSPECIFIED.);
#32=CARTESIAN_POINT('',(1.31783710369745766E1,1.31616206159200910E0,2.79971944516833666E1));
#33=CARTESIAN_POINT('',(1.60712944926942711E1,-6.14245670325626847E0,2.79971944516833666E1));
#34=CARTESIAN_POINT('',(5.53656842888334033E0,-1.64781165873217006E0,2.22685198506785511E1));
#35=CARTESIAN_POINT('',(8.42949188460303667E0,-9.10643042358044852E0,2.22685198506785511E1));
#36=B_SPLINE_SURFACE_WITH_KNOTS('',1,1,((#32,#33),(#34,#35)),.UNSPECIFIED.,.F.,.F.,.F.,(2,2),(2,2),(0.00000000000000000E0,1.00000000000000000E0),(0.00000000000000000E0,1.00000000000000000E0),.UNSPECIFIED.);
#37=CARTESIAN_POINT('',(8.74116841964065827E0,-4.04865374474732143E-1,1.73506317436056712E1));
#38=CARTESIAN_POINT('',(5.53656842888334033E0,-1.64781165873217006E0,2.22685198506785511E1));
#39=CARTESIAN_POINT('',(1.16340918753603546E1,-7.86348413932301060E0,1.73506317436056712E1));
#40=CARTESIAN_POINT('',(8.42949188460303667E0,-9.10643042358044852E0,2.22685198506785511E1));
#41=B_SPLINE_SURFACE_WITH_KNOTS('',1,1,((#37,#38),(#39,#40)),.UNSPECIFIED.,.F.,.F.,.F.,(2,2),(2,2),(0.00000000000000000E0,1.00000000000000000E0),(0.00000000000000000E0,1.00000000000000000E0),.UNSPECIFIED.);
#42=CARTESIAN_POINT('',(1.63829710277318945E1,2.55910834584944613E0,2.30793063446104867E1));
#43=CARTESIAN_POINT('',(1.31783710369745766E1,1.31616206159200910E0,2.79971944516833666E1));
#44=CARTESIAN_POINT('',(8.74116841964065827E0,-4.04865374474732143E-1,1.73506317436056712E1));
#45=CARTESIAN_POINT('',(5.53656842888334033E0,-1.64781165873217006E0,2.22685198506785511E1));
#46=B_SPLINE_SURFACE_WITH_KNOTS('',1,1,((#42,#43),(#44,#45)),.UNSPECIFIED.,.F.,.F.,.F.,(2,2),(2,2),(0.00000000000000000E0,1.00000000000000000E0),(0.00000000000000000E0,1.00000000000000000E0),.UNSPECIFIED.);
#47=CARTESIAN_POINT('',(1.92758944834515908E1,-4.89951041899883144E0,2.30793063446104867E1));
#48=CARTESIAN_POINT('',(1.60712944926942711E1,-6.14245670325626847E0,2.79971944516833666E1));
#49=CARTESIAN_POINT('',(1.63829710277318945E1,2.55910834584944613E0,2.30793063446104867E1));
#50=CARTESIAN_POINT('',(1.31783710369745766E1,1.31616206159200910E0,2.79971944516833666E1));
#51=B_SPLINE_SURFACE_WITH_KNOTS('',1,1,((#47,#48),(#49,#50)),.UNSPECIFIED.,.F.,.F.,.F.,(2,2),(2,2),(0.00000000000000000E0,1.00000000000000000E0),(0.00000000000000000E0,1.00000000000000000E0),.UNSPECIFIED.);
#52=CARTESIAN_POINT('',(1.16340918753603546E1,-7.86348413932301060E0,1.73506317436056712E1));
#53=CARTESIAN_POINT('',(8.42949188460303667E0,-9.10643042358044852E0,2.22685198506785511E1));
#54=CARTESIAN_POINT('',(1.92758944834515908E1,-4.89951041899883144E0,2.30793063446104867E1));
#55=CARTESIAN_POINT('',(1.60712944926942711E1,-6.14245670325626847E0,2.79971944516833666E1));
#56=B_SPLINE_SURFACE_WITH_KNOTS('',1,1,((#52,#53),(#54,#55)),.UNSPECIFIED.,.F.,.F.,.F.,(2,2),(2,2),(0.00000000000000000E0,1.00000000000000000E0),(0.00000000000000000E0,1.00000000000000000E0),.UNSPECIFIED.);
#57=CARTESIAN_POINT('',(1.90848494182493091E1,-4.97360976200693550E0,2.29360894795853696E1));
#58=CARTESIAN_POINT('',(1.60137744271068811E1,-6.16476661775364665E0,2.76490655821968758E1));
#59=CARTESIAN_POINT('',(1.92758944834515908E1,-4.89951041899883144E0,2.30793063446104867E1));
#60=CARTESIAN_POINT('',(1.62048194923091593E1,-6.09066727474554170E0,2.77922824472219965E1));
#61=CARTESIAN_POINT('',(1.91854906254603499E1,-4.66642858259732218E0,2.30793063446104867E1));
#62=CARTESIAN_POINT('',(1.61144156343179219E1,-5.85758543834403334E0,2.77922824472219965E1));
#63=(BOUNDED_SURFACE()B_SPLINE_SURFACE(2,1,((#57,#58),(#59,#60),(#61,#62)),.UNSPECIFIED.,.F.,.F.,.F.)B_SPLINE_SURFACE_WITH_KNOTS((3,3),(2,2),(0.00000000000000000E0,1.00000000000000000E0),(0.00000000000000000E0,1.00000000000000000E0),.UNSPECIFIED.)GEOMETRIC_REPRESENTATION_ITEM()RATIONAL_B_SPLINE_SURFACE(((1.00000000000000000E0,1.00000000000000000E0),(7.07106781186547573E-1,7.07106781186547573E-1),(1.00000000000000000E0,1.00000000000000000E0)))REPRESENTATION_ITEM('')SURFACE());
#64=CARTESIAN_POINT('',(1.33118960365894647E1,1.36795149010273587E0,2.77922824472219965E1));
#65=CARTESIAN_POINT('',(1.61144156343179219E1,-5.85758543834403334E0,2.77922824472219965E1));
#66=CARTESIAN_POINT('',(1.31783710369745766E1,1.31616206159200910E0,2.79971944516833666E1));
#67=CARTESIAN_POINT('',(1.59808906347030319E1,-5.90937486685476010E0,2.79971944516833666E1));
#68=CARTESIAN_POINT('',(1.29873259717722949E1,1.24206271858390505E0,2.78539775866582460E1));
#69=CARTESIAN_POINT('',(1.57898455695007520E1,-5.98347420986286416E0,2.78539775866582460E1));
#70=(BOUNDED_SURFACE()B_SPLINE_SURFACE(2,1,((#64,#65),(#66,#67),(#68,#69)),.UNSPECIFIED.,.F.,.F.,.F.)B_SPLINE_SURFACE_WITH_KNOTS((3,3),(2,2),(0.00000000000000000E0,1.00000000000000000E0),(0.00000000000000000E0,1.00000000000000000E0),.UNSPECIFIED.)GEOMETRIC_REPRESENTATION_ITEM()RATIONAL_B_SPLINE_SURFACE(((2.00000000000000000E0,2.00000000000000000E0),(1.00000000000000000E0,1.00000000000000000E0),(1.00000000000000000E0,1.00000000000000000E0)))REPRESENTATION_ITEM('')SURFACE());
#71=CARTESIAN_POINT('',(8.33908802661179571E0,-8.87334858717893837E0,2.22685198506785511E1));
#72=CARTESIAN_POINT('',(1.57898455695007520E1,-5.98347420986286416E0,2.78539775866582460E1));
#73=CARTESIAN_POINT('',(8.42949188460303667E0,-9.10643042358044852E0,2.22685198506785511E1));
#74=CARTESIAN_POINT('',(1.58802494274919912E1,-6.21655604626437253E0,2.78539775866582460E1));
#75=CARTESIAN_POINT('',(8.56301688421792484E0,-9.05464099506972175E0,2.20636078462171810E1));
#76=CARTESIAN_POINT('',(1.60137744271068811E1,-6.16476661775364665E0,2.76490655821968758E1));
#77=(BOUNDED_SURFACE()B_SPLINE_SURFACE(2,1,((#71,#72),(#73,#74),(#75,#76)),.UNSPECIFIED.,.F.,.F.,.F.)B_SPLINE_SURFACE_WITH_KNOTS((3,3),(2,2),(0.00000000000000000E0,1.00000000000000000E0),(0.00000000000000000E0,1.00000000000000000E0),.UNSPECIFIED.)GEOMETRIC_REPRESENTATION_ITEM()RATIONAL_B_SPLINE_SURFACE(((1.00000000000000000E0,1.00000000000000000E0),(1.00000000000000000E0,1.00000000000000000E0),(2.00000000000000000E0,2.00000000000000000E0)))REPRESENTATION_ITEM('')SURFACE());
#78=CARTESIAN_POINT('',(1.61144156343179219E1,-5.85758543834403334E0,2.77922824472219965E1));
#79=CARTESIAN_POINT('',(1.61596175633135424E1,-5.97412635654478752E0,2.77922824472219965E1));
#80=CARTESIAN_POINT('',(1.61555115177829478E1,-6.02040996744416557E0,2.76762394907264984E1));
#81=CARTESIAN_POINT('',(1.59808906347030319E1,-5.90937486685476010E0,2.79971944516833666E1));
#82=CARTESIAN_POINT('',(1.60712944926942711E1,-6.14245670325626847E0,2.79971944516833666E1));
#83=CARTESIAN_POINT('',(1.61092969597080220E1,-6.12771694624959373E0,2.77206740147094344E1));
#84=CARTESIAN_POINT('',(1.57898455695007520E1,-5.98347420986286416E0,2.78539775866582460E1));
#85=CARTESIAN_POINT('',(1.58802494274919912E1,-6.21655604626437253E0,2.78539775866582460E1));
#86=CARTESIAN_POINT('',(1.60137744271068811E1,-6.16476661775364665E0,2.76490655821968758E1));
#87=(BOUNDED_SURFACE()B_SPLINE_SURFACE(2,2,((#78,#79,#80),(#81,#82,#83),(#84,#85,#86)),.UNSPECIFIED.,.F.,.F.,.F.)B_SPLINE_SURFACE_WITH_KNOTS((3,3),(3,3),(0.00000000000000000E0,1.00000000000000000E0),(0.00000000000000000E0,1.00000000000000000E0),.UNSPECIFIED.)GEOMETRIC_REPRESENTATION_ITEM()RATIONAL_B_SPLINE_SURFACE(((2.00000000000000000E0,2.00000000000000000E0,3.00000000000000000E0),(1.00000000000000000E0,1.00000000000000000E0,2.00000000000000000E0),(1.00000000000000000E0,1.00000000000000000E0,2.00000000000000000E0)))REPRESENTATION_ITEM('')SURFACE());
#88=CARTESIAN_POINT('',(8.74116841964065827E0,-4.04865374474732143E-1,1.73506317436056712E1));
#89=CARTESIAN_POINT('',(1.63829710277318945E1,2.55910834584944613E0,2.30793063446104867E1));
#90=B_SPLINE_CURVE_WITH_KNOTS('',1,(#88,#89),.UNSPECIFIED.,.F.,.F.,(2,2),(0.00000000000000000E0,1.00000000000000000E0),.UNSPECIFIED.);
#91=CARTESIAN_POINT('',(1.63829710277318945E1,2.55910834584944613E0,2.30793063446104867E1));
#92=CARTESIAN_POINT('',(1.91854906254603499E1,-4.66642858259732218E0,2.30793063446104867E1));
#93=B_SPLINE_CURVE_WITH_KNOTS('',1,(#91,#92),.UNSPECIFIED.,.F.,.F.,(2,2),(0.00000000000000000E0,1.00000000000000000E0),.UNSPECIFIED.);
#94=CARTESIAN_POINT('',(1.16340918753603546E1,-7.86348413932301060E0,1.73506317436056712E1));
#95=CARTESIAN_POINT('',(1.90848494182493091E1,-4.97360976200693550E0,2.29360894795853696E1));
#96=B_SPLINE_CURVE_WITH_KNOTS('',1,(#94,#95),.UNSPECIFIED.,.F.,.F.,(2,2),(0.00000000000000000E0,1.00000000000000000E0),.UNSPECIFIED.);
#97=CARTESIAN_POINT('',(8.74116841964065827E0,-4.04865374474732143E-1,1.73506317436056712E1));
#98=CARTESIAN_POINT('',(1.16340918753603546E1,-7.86348413932301060E0,1.73506317436056712E1));
#99=B_SPLINE_CURVE_WITH_KNOTS('',1,(#97,#98),.UNSPECIFIED.,.F.,.F.,(2,2),(0.00000000000000000E0,1.00000000000000000E0),.UNSPECIFIED.);
#100=CARTESIAN_POINT('',(8.74116841964065827E0,-4.04865374474732143E-1,1.73506317436056712E1));
#101=CARTESIAN_POINT('',(5.53656842888334033E0,-1.64781165873217006E0,2.22685198506785511E1));
#102=B_SPLINE_CURVE_WITH_KNOTS('',1,(#100,#101),.UNSPECIFIED.,.F.,.F.,(2,2),(0.00000000000000000E0,1.00000000000000000E0),.UNSPECIFIED.);
#103=CARTESIAN_POINT('',(1.63829710277318945E1,2.55910834584944613E0,2.30793063446104867E1));
#104=CARTESIAN_POINT('',(1.33118960365894647E1,1.36795149010273587E0,2.77922824472219965E1));
#105=B_SPLINE_CURVE_WITH_KNOTS('',1,(#103,#104),.UNSPECIFIED.,.F.,.F.,(2,2),(0.00000000000000000E0,1.00000000000000000E0),.UNSPECIFIED.);
#106=CARTESIAN_POINT('',(1.61144156343179219E1,-5.85758543834403334E0,2.77922824472219965E1));
#107=CARTESIAN_POINT('',(1.33118960365894647E1,1.36795149010273587E0,2.77922824472219965E1));
#108=B_SPLINE_CURVE_WITH_KNOTS('',1,(#106,#107),.UNSPECIFIED.,.F.,.F.,(2,2),(0.00000000000000000E0,1.00000000000000000E0),.UNSPECIFIED.);
#109=CARTESIAN_POINT('',(1.91854906254603499E1,-4.66642858259732218E0,2.30793063446104867E1));
#110=CARTESIAN_POINT('',(1.61144156343179219E1,-5.85758543834403334E0,2.77922824472219965E1));
#111=B_SPLINE_CURVE_WITH_KNOTS('',1,(#109,#110),.UNSPECIFIED.,.F.,.F.,(2,2),(0.00000000000000000E0,1.00000000000000000E0),.UNSPECIFIED.);
#112=CARTESIAN_POINT('',(1.90848494182493091E1,-4.97360976200693550E0,2.29360894795853696E1));
#113=CARTESIAN_POINT('',(1.60137744271068811E1,-6.16476661775364665E0,2.76490655821968758E1));
#114=B_SPLINE_CURVE_WITH_KNOTS('',1,(#112,#113),.UNSPECIFIED.,.F.,.F.,(2,2),(0.00000000000000000E0,1.00000000000000000E0),.UNSPECIFIED.);
#115=CARTESIAN_POINT('',(1.16340918753603546E1,-7.86348413932301060E0,1.73506317436056712E1));
#116=CARTESIAN_POINT('',(8.56301688421792484E0,-9.05464099506972175E0,2.20636078462171810E1));
#117=B_SPLINE_CURVE_WITH_KNOTS('',1,(#115,#116),.UNSPECIFIED.,.F.,.F.,(2,2),(0.00000000000000000E0,1.00000000000000000E0),.UNSPECIFIED.);
#118=CARTESIAN_POINT('',(1.60137744271068811E1,-6.16476661775364665E0,2.76490655821968758E1));
#119=CARTESIAN_POINT('',(8.56301688421792484E0,-9.05464099506972175E0,2.20636078462171810E1));
#120=B_SPLINE_CURVE_WITH_KNOTS('',1,(#118,#119),.UNSPECIFIED.,.F.,.F.,(2,2),(0.00000000000000000E0,1.00000000000000000E0),.UNSPECIFIED.);
#121=CARTESIAN_POINT('',(5.53656842888334033E0,-1.64781165873217006E0,2.22685198506785511E1));
#122=CARTESIAN_POINT('',(1.29873259717722949E1,1.24206271858390505E0,2.78539775866582460E1));
#123=B_SPLINE_CURVE_WITH_KNOTS('',1,(#121,#122),.UNSPECIFIED.,.F.,.F.,(2,2),(0.00000000000000000E0,1.00000000000000000E0),.UNSPECIFIED.);
#124=CARTESIAN_POINT('',(1.57898455695007520E1,-5.98347420986286416E0,2.78539775866582460E1));
#125=CARTESIAN_POINT('',(1.29873259717722949E1,1.24206271858390505E0,2.78539775866582460E1));
#126=B_SPLINE_CURVE_WITH_KNOTS('',1,(#124,#125),.UNSPECIFIED.,.F.,.F.,(2,2),(0.00000000000000000E0,1.00000000000000000E0),.UNSPECIFIED.);
#127=CARTESIAN_POINT('',(5.53656842888334033E0,-1.64781165873217006E0,2.22685198506785511E1));
#128=CARTESIAN_POINT('',(8.33908802661179571E0,-8.87334858717893837E0,2.22685198506785511E1));
#129=B_SPLINE_CURVE_WITH_KNOTS('',1,(#127,#128),.UNSPECIFIED.,.F.,.F.,(2,2),(0.00000000000000000E0,1.00000000000000000E0),.UNSPECIFIED.);
#130=CARTESIAN_POINT('',(1.57898455695007520E1,-5.98347420986286416E0,2.78539775866582460E1));
#131=CARTESIAN_POINT('',(8.33908802661179571E0,-8.87334858717893837E0,2.22685198506785511E1));
#132=B_SPLINE_CURVE_WITH_KNOTS('',1,(#130,#131),.UNSPECIFIED.,.F.,.F.,(2,2),(0.00000000000000000E0,1.00000000000000000E0),.UNSPECIFIED.);
#133=CARTESIAN_POINT('',(1.91854906254603499E1,-4.66642858259732218E0,2.30793063446104867E1));
#134=CARTESIAN_POINT('',(1.92758944834515908E1,-4.89951041899883144E0,2.30793063446104867E1));
#135=CARTESIAN_POINT('',(1.90848494182493091E1,-4.97360976200693550E0,2.29360894795853696E1));
#136=(BOUNDED_CURVE()B_SPLINE_CURVE(2,(#133,#134,#135),.UNSPECIFIED.,.F.,.F.)B_SPLINE_CURVE_WITH_KNOTS((3,3),(0.00000000000000000E0,1.00000000000000000E0),.UNSPECIFIED.)CURVE()GEOMETRIC_REPRESENTATION_ITEM()RATIONAL_B_SPLINE_CURVE((1.00000000000000000E0,7.07106781186547573E-1,1.00000000000000000E0))REPRESENTATION_ITEM(''));
#137=CARTESIAN_POINT('',(1.61144156343179219E1,-5.85758543834403334E0,2.77922824472219965E1));
#138=CARTESIAN_POINT('',(1.62048194923091593E1,-6.09066727474554170E0,2.77922824472219965E1));
#139=CARTESIAN_POINT('',(1.60137744271068811E1,-6.16476661775364665E0,2.76490655821968758E1));
#140=(BOUNDED_CURVE()B_SPLINE_CURVE(2,(#137,#138,#139),.UNSPECIFIED.,.F.,.F.)B_SPLINE_CURVE_WITH_KNOTS((3,3),(0.00000000000000000E0,1.00000000000000000E0),.UNSPECIFIED.)CURVE()GEOMETRIC_REPRESENTATION_ITEM()RATIONAL_B_SPLINE_CURVE((1.00000000000000000E0,7.07106781186547573E-1,1.00000000000000000E0))REPRESENTATION_ITEM(''));
#141=CARTESIAN_POINT('',(1.61144156343179219E1,-5.85758543834403334E0,2.77922824472219965E1));
#142=CARTESIAN_POINT('',(1.59808906347030319E1,-5.90937486685476010E0,2.79971944516833666E1));
#143=CARTESIAN_POINT('',(1.57898455695007520E1,-5.98347420986286416E0,2.78539775866582460E1));
#144=(BOUNDED_CURVE()B_SPLINE_CURVE(2,(#141,#142,#143),.UNSPECIFIED.,.F.,.F.)B_SPLINE_CURVE_WITH_KNOTS((3,3),(0.00000000000000000E0,1.00000000000000000E0),.UNSPECIFIED.)CURVE()GEOMETRIC_REPRESENTATION_ITEM()RATIONAL_B_SPLINE_CURVE((2.00000000000000000E0,1.00000000000000000E0,1.00000000000000000E0))REPRESENTATION_ITEM(''));
#145=CARTESIAN_POINT('',(1.60137744271068811E1,-6.16476661775364665E0,2.76490655821968758E1));
#146=CARTESIAN_POINT('',(1.58802494274919912E1,-6.21655604626437253E0,2.78539775866582460E1));
#147=CARTESIAN_POINT('',(1.57898455695007520E1,-5.98347420986286416E0,2.78539775866582460E1));
#148=(BOUNDED_CURVE()B_SPLINE_CURVE(2,(#145,#146,#147),.UNSPECIFIED.,.F.,.F.)B_SPLINE_CURVE_WITH_KNOTS((3,3),(0.00000000000000000E0,1.00000000000000000E0),.UNSPECIFIED.)CURVE()GEOMETRIC_REPRESENTATION_ITEM()RATIONAL_B_SPLINE_CURVE((2.00000000000000000E0,1.00000000000000000E0,1.00000000000000000E0))REPRESENTATION_ITEM(''));
#149=CARTESIAN_POINT('',(1.33118960365894647E1,1.36795149010273587E0,2.77922824472219965E1));
#150=CARTESIAN_POINT('',(1.31783710369745766E1,1.31616206159200910E0,2.79971944516833666E1));
#151=CARTESIAN_POINT('',(1.29873259717722949E1,1.24206271858390505E0,2.78539775866582460E1));
#152=(BOUNDED_CURVE()B_SPLINE_CURVE(2,(#149,#150,#151),.UNSPECIFIED.,.F.,.F.)B_SPLINE_CURVE_WITH_KNOTS((3,3),(0.00000000000000000E0,1.00000000000000000E0),.UNSPECIFIED.)CURVE()GEOMETRIC_REPRESENTATION_ITEM()RATIONAL_B_SPLINE_CURVE((2.00000000000000000E0,1.00000000000000000E0,1.00000000000000000E0))REPRESENTATION_ITEM(''));
#153=CARTESIAN_POINT('',(8.56301688421792484E0,-9.05464099506972175E0,2.20636078462171810E1));
#154=CARTESIAN_POINT('',(8.42949188460303667E0,-9.10643042358044852E0,2.22685198506785511E1));
#155=CARTESIAN_POINT('',(8.33908802661179571E0,-8.87334858717893837E0,2.22685198506785511E1));
#156=(BOUNDED_CURVE()B_SPLINE_CURVE(2,(#153,#154,#155),.UNSPECIFIED.,.F.,.F.)B_SPLINE_CURVE_WITH_KNOTS((3,3),(0.00000000000000000E0,1.00000000000000000E0),.UNSPECIFIED.)CURVE()GEOMETRIC_REPRESENTATION_ITEM()RATIONAL_B_SPLINE_CURVE((2.00000000000000000E0,1.00000000000000000E0,1.00000000000000000E0))REPRESENTATION_ITEM(''));
#157=(GEOMETRIC_REPRESENTATION_CONTEXT(2)REPRESENTATION_CONTEXT('','2D'));
#158=CARTESIAN_POINT('',(0.00000000000000000E0,0.00000000000000000E0));
#159=CARTESIAN_POINT('',(1.00000000000000000E0,0.00000000000000000E0));
#160=B_SPLINE_CURVE_WITH_KNOTS('',1,(#158,#159),.UNSPECIFIED.,.F.,.F.,(2,2),(0.00000000000000000E0,1.00000000000000000E0),.UNSPECIFIED.);
#161=DEFINITIONAL_REPRESENTATION('',(#160),#157);
#162=PCURVE('',#31,#161);
#163=CARTESIAN_POINT('',(1.00000000000000000E0,0.00000000000000000E0));
#164=CARTESIAN_POINT('',(1.00000000000000000E0,9.68750000000000000E-1));
#165=B_SPLINE_CURVE_WITH_KNOTS('',1,(#163,#164),.UNSPECIFIED.,.F.,.F.,(2,2),(0.00000000000000000E0,1.00000000000000000E0),.UNSPECIFIED.);
#166=DEFINITIONAL_REPRESENTATION('',(#165),#157);
#167=PCURVE('',#31,#166);
#168=CARTESIAN_POINT('',(1.00000000000000000E0,9.68750000000000000E-1));
#169=CARTESIAN_POINT('',(1.00000000000000000E0,1.00000000000000000E0));
#170=CARTESIAN_POINT('',(9.74999999999999978E-1,1.00000000000000000E0));
#171=(BOUNDED_CURVE()B_SPLINE_CURVE(2,(#168,#169,#170),.UNSPECIFIED.,.F.,.F.)B_SPLINE_CURVE_WITH_KNOTS((3,3),(0.00000000000000000E0,1.00000000000000000E0),.UNSPECIFIED.)CURVE()GEOMETRIC_REPRESENTATION_ITEM()RATIONAL_B_SPLINE_CURVE((1.00000000000000000E0,7.07106781186547573E-1,1.00000000000000000E0))REPRESENTATION_ITEM(''));
#172=DEFINITIONAL_REPRESENTATION('',(#171),#157);
#173=PCURVE('',#31,#172);
#174=CARTESIAN_POINT('',(9.74999999999999978E-1,1.00000000000000000E0));
#175=CARTESIAN_POINT('',(0.00000000000000000E0,1.00000000000000000E0));
#176=B_SPLINE_CURVE_WITH_KNOTS('',1,(#174,#175),.UNSPECIFIED.,.F.,.F.,(2,2),(0.00000000000000000E0,1.00000000000000000E0),.UNSPECIFIED.);
#177=DEFINITIONAL_REPRESENTATION('',(#176),#157);
#178=PCURVE('',#31,#177);
#179=CARTESIAN_POINT('',(0.00000000000000000E0,1.00000000000000000E0));
#180=CARTESIAN_POINT('',(0.00000000000000000E0,0.00000000000000000E0));
#181=B_SPLINE_CURVE_WITH_KNOTS('',1,(#179,#180),.UNSPECIFIED.,.F.,.F.,(2,2),(0.00000000000000000E0,1.00000000000000000E0),.UNSPECIFIED.);
#182=DEFINITIONAL_REPRESENTATION('',(#181),#157);
#183=PCURVE('',#31,#182);
#184=CARTESIAN_POINT('',(1.00000000000000000E0,0.00000000000000000E0));
#185=CARTESIAN_POINT('',(1.00000000000000000E0,9.68750000000000000E-1));
#186=B_SPLINE_CURVE_WITH_KNOTS('',1,(#184,#185),.UNSPECIFIED.,.F.,.F.,(2,2),(0.00000000000000000E0,1.00000000000000000E0),.UNSPECIFIED.);
#187=DEFINITIONAL_REPRESENTATION('',(#186),#157);
#188=PCURVE('',#36,#187);
#189=CARTESIAN_POINT('',(1.00000000000000000E0,9.68750000000000000E-1));
#190=CARTESIAN_POINT('',(2.50000000000000222E-2,9.68750000000000000E-1));
#191=B_SPLINE_CURVE_WITH_KNOTS('',1,(#189,#190),.UNSPECIFIED.,.F.,.F.,(2,2),(0.00000000000000000E0,1.00000000000000000E0),.UNSPECIFIED.);
#192=DEFINITIONAL_REPRESENTATION('',(#191),#157);
#193=PCURVE('',#36,#192);
#194=CARTESIAN_POINT('',(2.50000000000000222E-2,9.68750000000000000E-1));
#195=CARTESIAN_POINT('',(2.50000000000000222E-2,0.00000000000000000E0));
#196=B_SPLINE_CURVE_WITH_KNOTS('',1,(#194,#195),.UNSPECIFIED.,.F.,.F.,(2,2),(0.00000000000000000E0,1.00000000000000000E0),.UNSPECIFIED.);
#197=DEFINITIONAL_REPRESENTATION('',(#196),#157);
#198=PCURVE('',#36,#197);
#199=CARTESIAN_POINT('',(2.50000000000000222E-2,0.00000000000000000E0));
#200=CARTESIAN_POINT('',(1.00000000000000000E0,0.00000000000000000E0));
#201=B_SPLINE_CURVE_WITH_KNOTS('',1,(#199,#200),.UNSPECIFIED.,.F.,.F.,(2,2),(0.00000000000000000E0,1.00000000000000000E0),.UNSPECIFIED.);
#202=DEFINITIONAL_REPRESENTATION('',(#201),#157);
#203=PCURVE('',#36,#202);
#204=CARTESIAN_POINT('',(0.00000000000000000E0,0.00000000000000000E0));
#205=CARTESIAN_POINT('',(1.00000000000000000E0,0.00000000000000000E0));
#206=B_SPLINE_CURVE_WITH_KNOTS('',1,(#204,#205),.UNSPECIFIED.,.F.,.F.,(2,2),(0.00000000000000000E0,1.00000000000000000E0),.UNSPECIFIED.);
#207=DEFINITIONAL_REPRESENTATION('',(#206),#157);
#208=PCURVE('',#41,#207);
#209=CARTESIAN_POINT('',(1.00000000000000000E0,0.00000000000000000E0));
#210=CARTESIAN_POINT('',(1.00000000000000000E0,9.58333333333333370E-1));
#211=B_SPLINE_CURVE_WITH_KNOTS('',1,(#209,#210),.UNSPECIFIED.,.F.,.F.,(2,2),(0.00000000000000000E0,1.00000000000000000E0),.UNSPECIFIED.);
#212=DEFINITIONAL_REPRESENTATION('',(#211),#157);
#213=PCURVE('',#41,#212);
#214=CARTESIAN_POINT('',(1.00000000000000000E0,9.58333333333333370E-1));
#215=CARTESIAN_POINT('',(1.00000000000000000E0,1.00000000000000000E0));
#216=CARTESIAN_POINT('',(9.68750000000000000E-1,1.00000000000000000E0));
#217=(BOUNDED_CURVE()B_SPLINE_CURVE(2,(#214,#215,#216),.UNSPECIFIED.,.F.,.F.)B_SPLINE_CURVE_WITH_KNOTS((3,3),(0.00000000000000000E0,1.00000000000000000E0),.UNSPECIFIED.)CURVE()GEOMETRIC_REPRESENTATION_ITEM()RATIONAL_B_SPLINE_CURVE((2.00000000000000000E0,1.00000000000000000E0,1.00000000000000000E0))REPRESENTATION_ITEM(''));
#218=DEFINITIONAL_REPRESENTATION('',(#217),#157);
#219=PCURVE('',#41,#218);
#220=CARTESIAN_POINT('',(9.68750000000000000E-1,1.00000000000000000E0));
#221=CARTESIAN_POINT('',(0.00000000000000000E0,1.00000000000000000E0));
#222=B_SPLINE_CURVE_WITH_KNOTS('',1,(#220,#221),.UNSPECIFIED.,.F.,.F.,(2,2),(0.00000000000000000E0,1.00000000000000000E0),.UNSPECIFIED.);
#223=DEFINITIONAL_REPRESENTATION('',(#222),#157);
#224=PCURVE('',#41,#223);
#225=CARTESIAN_POINT('',(0.00000000000000000E0,1.00000000000000000E0));
#226=CARTESIAN_POINT('',(0.00000000000000000E0,0.00000000000000000E0));
#227=B_SPLINE_CURVE_WITH_KNOTS('',1,(#225,#226),.UNSPECIFIED.,.F.,.F.,(2,2),(0.00000000000000000E0,1.00000000000000000E0),.UNSPECIFIED.);
#228=DEFINITIONAL_REPRESENTATION('',(#227),#157);
#229=PCURVE('',#41,#228);
#230=CARTESIAN_POINT('',(1.00000000000000000E0,0.00000000000000000E0));
#231=CARTESIAN_POINT('',(1.00000000000000000E0,1.00000000000000000E0));
#232=B_SPLINE_CURVE_WITH_KNOTS('',1,(#230,#231),.UNSPECIFIED.,.F.,.F.,(2,2),(0.00000000000000000E0,1.00000000000000000E0),.UNSPECIFIED.);
#233=DEFINITIONAL_REPRESENTATION('',(#232),#157);
#234=PCURVE('',#46,#233);
#235=CARTESIAN_POINT('',(1.00000000000000000E0,1.00000000000000000E0));
#236=CARTESIAN_POINT('',(2.50000000000000222E-2,1.00000000000000000E0));
#237=B_SPLINE_CURVE_WITH_KNOTS('',1,(#235,#236),.UNSPECIFIED.,.F.,.F.,(2,2),(0.00000000000000000E0,1.00000000000000000E0),.UNSPECIFIED.);
#238=DEFINITIONAL_REPRESENTATION('',(#237),#157);
#239=PCURVE('',#46,#238);
#240=CARTESIAN_POINT('',(2.50000000000000222E-2,1.00000000000000000E0));
#241=CARTESIAN_POINT('',(0.00000000000000000E0,1.00000000000000000E0));
#242=CARTESIAN_POINT('',(0.00000000000000000E0,9.58333333333333370E-1));
#243=(BOUNDED_CURVE()B_SPLINE_CURVE(2,(#240,#241,#242),.UNSPECIFIED.,.F.,.F.)B_SPLINE_CURVE_WITH_KNOTS((3,3),(0.00000000000000000E0,1.00000000000000000E0),.UNSPECIFIED.)CURVE()GEOMETRIC_REPRESENTATION_ITEM()RATIONAL_B_SPLINE_CURVE((1.00000000000000000E0,1.00000000000000000E0,2.00000000000000000E0))REPRESENTATION_ITEM(''));
#244=DEFINITIONAL_REPRESENTATION('',(#243),#157);
#245=PCURVE('',#46,#244);
#246=CARTESIAN_POINT('',(0.00000000000000000E0,9.58333333333333370E-1));
#247=CARTESIAN_POINT('',(0.00000000000000000E0,0.00000000000000000E0));
#248=B_SPLINE_CURVE_WITH_KNOTS('',1,(#246,#247),.UNSPECIFIED.,.F.,.F.,(2,2),(0.00000000000000000E0,1.00000000000000000E0),.UNSPECIFIED.);
#249=DEFINITIONAL_REPRESENTATION('',(#248),#157);
#250=PCURVE('',#46,#249);
#251=CARTESIAN_POINT('',(0.00000000000000000E0,0.00000000000000000E0));
#252=CARTESIAN_POINT('',(1.00000000000000000E0,0.00000000000000000E0));
#253=B_SPLINE_CURVE_WITH_KNOTS('',1,(#251,#252),.UNSPECIFIED.,.F.,.F.,(2,2),(0.00000000000000000E0,1.00000000000000000E0),.UNSPECIFIED.);
#254=DEFINITIONAL_REPRESENTATION('',(#253),#157);
#255=PCURVE('',#46,#254);
#256=CARTESIAN_POINT('',(1.00000000000000000E0,0.00000000000000000E0));
#257=CARTESIAN_POINT('',(1.00000000000000000E0,9.58333333333333370E-1));
#258=B_SPLINE_CURVE_WITH_KNOTS('',1,(#256,#257),.UNSPECIFIED.,.F.,.F.,(2,2),(0.00000000000000000E0,1.00000000000000000E0),.UNSPECIFIED.);
#259=DEFINITIONAL_REPRESENTATION('',(#258),#157);
#260=PCURVE('',#51,#259);
#261=CARTESIAN_POINT('',(1.00000000000000000E0,9.58333333333333370E-1));
#262=CARTESIAN_POINT('',(3.12500000000000000E-2,9.58333333333333370E-1));
#263=B_SPLINE_CURVE_WITH_KNOTS('',1,(#261,#262),.UNSPECIFIED.,.F.,.F.,(2,2),(0.00000000000000000E0,1.00000000000000000E0),.UNSPECIFIED.);
#264=DEFINITIONAL_REPRESENTATION('',(#263),#157);
#265=PCURVE('',#51,#264);
#266=CARTESIAN_POINT('',(3.12500000000000000E-2,9.58333333333333370E-1));
#267=CARTESIAN_POINT('',(3.12500000000000000E-2,0.00000000000000000E0));
#268=B_SPLINE_CURVE_WITH_KNOTS('',1,(#266,#267),.UNSPECIFIED.,.F.,.F.,(2,2),(0.00000000000000000E0,1.00000000000000000E0),.UNSPECIFIED.);
#269=DEFINITIONAL_REPRESENTATION('',(#268),#157);
#270=PCURVE('',#51,#269);
#271=CARTESIAN_POINT('',(3.12500000000000000E-2,0.00000000000000000E0));
#272=CARTESIAN_POINT('',(1.00000000000000000E0,0.00000000000000000E0));
#273=B_SPLINE_CURVE_WITH_KNOTS('',1,(#271,#272),.UNSPECIFIED.,.F.,.F.,(2,2),(0.00000000000000000E0,1.00000000000000000E0),.UNSPECIFIED.);
#274=DEFINITIONAL_REPRESENTATION('',(#273),#157);
#275=PCURVE('',#51,#274);
#276=CARTESIAN_POINT('',(0.00000000000000000E0,0.00000000000000000E0));
#277=CARTESIAN_POINT('',(9.74999999999999978E-1,0.00000000000000000E0));
#278=B_SPLINE_CURVE_WITH_KNOTS('',1,(#276,#277),.UNSPECIFIED.,.F.,.F.,(2,2),(0.00000000000000000E0,1.00000000000000000E0),.UNSPECIFIED.);
#279=DEFINITIONAL_REPRESENTATION('',(#278),#157);
#280=PCURVE('',#56,#279);
#281=CARTESIAN_POINT('',(9.74999999999999978E-1,0.00000000000000000E0));
#282=CARTESIAN_POINT('',(9.74999999999999978E-1,9.58333333333333370E-1));
#283=B_SPLINE_CURVE_WITH_KNOTS('',1,(#281,#282),.UNSPECIFIED.,.F.,.F.,(2,2),(0.00000000000000000E0,1.00000000000000000E0),.UNSPECIFIED.);
#284=DEFINITIONAL_REPRESENTATION('',(#283),#157);
#285=PCURVE('',#56,#284);
#286=CARTESIAN_POINT('',(9.74999999999999978E-1,9.58333333333333370E-1));
#287=CARTESIAN_POINT('',(0.00000000000000000E0,9.58333333333333370E-1));
#288=B_SPLINE_CURVE_WITH_KNOTS('',1,(#286,#287),.UNSPECIFIED.,.F.,.F.,(2,2),(0.00000000000000000E0,1.00000000000000000E0),.UNSPECIFIED.);
#289=DEFINITIONAL_REPRESENTATION('',(#288),#157);
#290=PCURVE('',#56,#289);
#291=CARTESIAN_POINT('',(0.00000000000000000E0,9.58333333333333370E-1));
#292=CARTESIAN_POINT('',(0.00000000000000000E0,0.00000000000000000E0));
#293=B_SPLINE_CURVE_WITH_KNOTS('',1,(#291,#292),.UNSPECIFIED.,.F.,.F.,(2,2),(0.00000000000000000E0,1.00000000000000000E0),.UNSPECIFIED.);
#294=DEFINITIONAL_REPRESENTATION('',(#293),#157);
#295=PCURVE('',#56,#294);
#296=CARTESIAN_POINT('',(1.00000000000000000E0,0.00000000000000000E0));
#297=CARTESIAN_POINT('',(1.00000000000000000E0,1.00000000000000000E0));
#298=B_SPLINE_CURVE_WITH_KNOTS('',1,(#296,#297),.UNSPECIFIED.,.F.,.F.,(2,2),(0.00000000000000000E0,1.00000000000000000E0),.UNSPECIFIED.);
#299=DEFINITIONAL_REPRESENTATION('',(#298),#157);
#300=PCURVE('',#63,#299);
#301=CARTESIAN_POINT('',(1.00000000000000000E0,1.00000000000000000E0));
#302=CARTESIAN_POINT('',(0.00000000000000000E0,1.00000000000000000E0));
#303=B_SPLINE_CURVE_WITH_KNOTS('',1,(#301,#302),.UNSPECIFIED.,.F.,.F.,(2,2),(0.00000000000000000E0,1.00000000000000000E0),.UNSPECIFIED.);
#304=DEFINITIONAL_REPRESENTATION('',(#303),#157);
#305=PCURVE('',#63,#304);
#306=CARTESIAN_POINT('',(0.00000000000000000E0,1.00000000000000000E0));
#307=CARTESIAN_POINT('',(0.00000000000000000E0,0.00000000000000000E0));
#308=B_SPLINE_CURVE_WITH_KNOTS('',1,(#306,#307),.UNSPECIFIED.,.F.,.F.,(2,2),(0.00000000000000000E0,1.00000000000000000E0),.UNSPECIFIED.);
#309=DEFINITIONAL_REPRESENTATION('',(#308),#157);
#310=PCURVE('',#63,#309);
#311=CARTESIAN_POINT('',(0.00000000000000000E0,0.00000000000000000E0));
#312=CARTESIAN_POINT('',(1.00000000000000000E0,0.00000000000000000E0));
#313=B_SPLINE_CURVE_WITH_KNOTS('',1,(#311,#312),.UNSPECIFIED.,.F.,.F.,(2,2),(0.00000000000000000E0,1.00000000000000000E0),.UNSPECIFIED.);
#314=DEFINITIONAL_REPRESENTATION('',(#313),#157);
#315=PCURVE('',#63,#314);
#316=CARTESIAN_POINT('',(0.00000000000000000E0,0.00000000000000000E0));
#317=CARTESIAN_POINT('',(1.00000000000000000E0,0.00000000000000000E0));
#318=B_SPLINE_CURVE_WITH_KNOTS('',1,(#316,#317),.UNSPECIFIED.,.F.,.F.,(2,2),(0.00000000000000000E0,1.00000000000000000E0),.UNSPECIFIED.);
#319=DEFINITIONAL_REPRESENTATION('',(#318),#157);
#320=PCURVE('',#70,#319);
#321=CARTESIAN_POINT('',(1.00000000000000000E0,0.00000000000000000E0));
#322=CARTESIAN_POINT('',(1.00000000000000000E0,1.00000000000000000E0));
#323=B_SPLINE_CURVE_WITH_KNOTS('',1,(#321,#322),.UNSPECIFIED.,.F.,.F.,(2,2),(0.00000000000000000E0,1.00000000000000000E0),.UNSPECIFIED.);
#324=DEFINITIONAL_REPRESENTATION('',(#323),#157);
#325=PCURVE('',#70,#324);
#326=CARTESIAN_POINT('',(1.00000000000000000E0,1.00000000000000000E0));
#327=CARTESIAN_POINT('',(0.00000000000000000E0,1.00000000000000000E0));
#328=B_SPLINE_CURVE_WITH_KNOTS('',1,(#326,#327),.UNSPECIFIED.,.F.,.F.,(2,2),(0.00000000000000000E0,1.00000000000000000E0),.UNSPECIFIED.);
#329=DEFINITIONAL_REPRESENTATION('',(#328),#157);
#330=PCURVE('',#70,#329);
#331=CARTESIAN_POINT('',(0.00000000000000000E0,1.00000000000000000E0));
#332=CARTESIAN_POINT('',(0.00000000000000000E0,0.00000000000000000E0));
#333=B_SPLINE_CURVE_WITH_KNOTS('',1,(#331,#332),.UNSPECIFIED.,.F.,.F.,(2,2),(0.00000000000000000E0,1.00000000000000000E0),.UNSPECIFIED.);
#334=DEFINITIONAL_REPRESENTATION('',(#333),#157);
#335=PCURVE('',#70,#334);
#336=CARTESIAN_POINT('',(1.00000000000000000E0,0.00000000000000000E0));
#337=CARTESIAN_POINT('',(1.00000000000000000E0,1.00000000000000000E0));
#338=B_SPLINE_CURVE_WITH_KNOTS('',1,(#336,#337),.UNSPECIFIED.,.F.,.F.,(2,2),(0.00000000000000000E0,1.00000000000000000E0),.UNSPECIFIED.);
#339=DEFINITIONAL_REPRESENTATION('',(#338),#157);
#340=PCURVE('',#77,#339);
#341=CARTESIAN_POINT('',(1.00000000000000000E0,1.00000000000000000E0));
#342=CARTESIAN_POINT('',(0.00000000000000000E0,1.00000000000000000E0));
#343=B_SPLINE_CURVE_WITH_KNOTS('',1,(#341,#342),.UNSPECIFIED.,.F.,.F.,(2,2),(0.00000000000000000E0,1.00000000000000000E0),.UNSPECIFIED.);
#344=DEFINITIONAL_REPRESENTATION('',(#343),#157);
#345=PCURVE('',#77,#344);
#346=CARTESIAN_POINT('',(0.00000000000000000E0,1.00000000000000000E0));
#347=CARTESIAN_POINT('',(0.00000000000000000E0,0.00000000000000000E0));
#348=B_SPLINE_CURVE_WITH_KNOTS('',1,(#346,#347),.UNSPECIFIED.,.F.,.F.,(2,2),(0.00000000000000000E0,1.00000000000000000E0),.UNSPECIFIED.);
#349=DEFINITIONAL_REPRESENTATION('',(#348),#157);
#350=PCURVE('',#77,#349);
#351=CARTESIAN_POINT('',(0.00000000000000000E0,0.00000000000000000E0));
#352=CARTESIAN_POINT('',(1.00000000000000000E0,0.00000000000000000E0));
#353=B_SPLINE_CURVE_WITH_KNOTS('',1,(#351,#352),.UNSPECIFIED.,.F.,.F.,(2,2),(0.00000000000000000E0,1.00000000000000000E0),.UNSPECIFIED.);
#354=DEFINITIONAL_REPRESENTATION('',(#353),#157);
#355=PCURVE('',#77,#354);
#356=CARTESIAN_POINT('',(1.00000000000000000E0,0.00000000000000000E0));
#357=CARTESIAN_POINT('',(1.00000000000000000E0,1.00000000000000000E0));
#358=B_SPLINE_CURVE_WITH_KNOTS('',1,(#356,#357),.UNSPECIFIED.,.F.,.F.,(2,2),(0.00000000000000000E0,1.00000000000000000E0),.UNSPECIFIED.);
#359=DEFINITIONAL_REPRESENTATION('',(#358),#157);
#360=PCURVE('',#87,#359);
#361=CARTESIAN_POINT('',(1.00000000000000000E0,1.00000000000000000E0));
#362=CARTESIAN_POINT('',(0.00000000000000000E0,1.00000000000000000E0));
#363=CARTESIAN_POINT('',(0.00000000000000000E0,0.00000000000000000E0));
#364=(BOUNDED_CURVE()B_SPLINE_CURVE(2,(#361,#362,#363),.UNSPECIFIED.,.F.,.F.)B_SPLINE_CURVE_WITH_KNOTS((3,3),(0.00000000000000000E0,1.00000000000000000E0),.UNSPECIFIED.)CURVE()GEOMETRIC_REPRESENTATION_ITEM()RATIONAL_B_SPLINE_CURVE((1.00000000000000000E0,7.07106781186547573E-1,1.00000000000000000E0))REPRESENTATION_ITEM(''));
#365=DEFINITIONAL_REPRESENTATION('',(#364),#157);
#366=PCURVE('',#87,#365);
#367=CARTESIAN_POINT('',(0.00000000000000000E0,0.00000000000000000E0));
#368=CARTESIAN_POINT('',(1.00000000000000000E0,0.00000000000000000E0));
#369=B_SPLINE_CURVE_WITH_KNOTS('',1,(#367,#368),.UNSPECIFIED.,.F.,.F.,(2,2),(0.00000000000000000E0,1.00000000000000000E0),.UNSPECIFIED.);
#370=DEFINITIONAL_REPRESENTATION('',(#369),#157);
#371=PCURVE('',#87,#370);
#372=SURFACE_CURVE('',#90,(#162,#255),.PCURVE_S1.);
#373=EDGE_CURVE('OSCAD_TOPO/3|edge|e:1401cba17842b9a490697ed1d614f153|67ac55ca92cc04d934a208481935a6c4dc3f295af906f74b64edab507a8bb639',#2,#4,#372,.T.);
#374=SURFACE_CURVE('',#93,(#167,#275),.PCURVE_S1.);
#375=EDGE_CURVE('OSCAD_TOPO/3|edge|e:aad9f193506957234ed2c2490d54e3bd|797402362d463fb16019329a136edd55491a160b72437d278f9f71365a5c97dd',#4,#10,#374,.T.);
#376=SURFACE_CURVE('',#96,(#178,#280),.PCURVE_S1.);
#377=EDGE_CURVE('OSCAD_TOPO/3|edge|e:9b19ac4635895fcd306373db0f56884b|81a1d658a23f0d1f009d6abd6323da2d4ff23c7a99c007de8f2ba3716894e44e',#6,#12,#376,.T.);
#378=SURFACE_CURVE('',#99,(#183,#208),.PCURVE_S1.);
#379=EDGE_CURVE('OSCAD_TOPO/3|edge|e:b05eaee73961b2e055167ec27ee73311|448d4159fa43478359dfb4654c88dc300e60b08dab35dd7efda76dcb694304e7',#2,#6,#378,.T.);
#380=SURFACE_CURVE('',#102,(#229,#234),.PCURVE_S1.);
#381=EDGE_CURVE('OSCAD_TOPO/3|edge|e:dc77bf3ce6fbdfe9f3ea7096e06be079|6c6d61a9b610b3e6fc0343ebec9c4e34845ed7e70ccb8a5cabf46ac294b156b3',#2,#8,#380,.T.);
#382=SURFACE_CURVE('',#105,(#250,#260),.PCURVE_S1.);
#383=EDGE_CURVE('OSCAD_TOPO/3|edge|e:95c64066f71b06f405ff9ae60fc8328d|b4ea6749659e1fb2baef87bac8abd3d5727d070247fcaf512fa7a73ec1731a6c',#4,#20,#382,.T.);
#384=SURFACE_CURVE('',#108,(#265,#335),.PCURVE_S1.);
#385=EDGE_CURVE('OSCAD_TOPO/3|edge|e:7718fe788740f03985128de07416724b|d6866e82ba12c30a7fa5d4842e102829cd0faee3b965cba9a1675ed0e6037e9e',#14,#20,#384,.T.);
#386=SURFACE_CURVE('',#111,(#270,#300),.PCURVE_S1.);
#387=EDGE_CURVE('OSCAD_TOPO/3|edge|e:234f006daf7be4a6f1ca7f2fdbfa0a8e|b74a94600b49a10136064bb9614162b975ef59e7659d29d013d94a504ce5d19d',#10,#14,#386,.T.);
#388=SURFACE_CURVE('',#114,(#285,#310),.PCURVE_S1.);
#389=EDGE_CURVE('OSCAD_TOPO/3|edge|e:57fa41843795c524b9a456682b5d00fe|851e27f625d8ebe589a8f63bddf75c04d5e53c56eda67abe9094ac65495c18ad',#12,#16,#388,.T.);
#390=SURFACE_CURVE('',#117,(#213,#295),.PCURVE_S1.);
#391=EDGE_CURVE('OSCAD_TOPO/3|edge|e:6597c6624e02136e1e0e20c7a4b8745e|70bd55af4e47b3c8e1611547fc756882f6edb3729ae61228f5684592d2cedc2c',#6,#24,#390,.T.);
#392=SURFACE_CURVE('',#120,(#290,#340),.PCURVE_S1.);
#393=EDGE_CURVE('OSCAD_TOPO/3|edge|e:499d3869345baa684efe3be8741d01b9|41d1147fef2de711fd3f2587bb9d7b5faaae3167b778f25881c5fa9332054c4a',#16,#24,#392,.T.);
#394=SURFACE_CURVE('',#123,(#203,#239),.PCURVE_S1.);
#395=EDGE_CURVE('OSCAD_TOPO/3|edge|e:91570ab1c36a8fa13e55aeb5ce890541|f097470019084c8a9206081d4aea5d0c0bab4c9d19e0ed824fde9274f682d35e',#8,#22,#394,.T.);
#396=SURFACE_CURVE('',#126,(#198,#325),.PCURVE_S1.);
#397=EDGE_CURVE('OSCAD_TOPO/3|edge|e:61a4422ee53a7c7f2d14dd377581b046|db5ba813b894248ba091781a4969f9d84a20475cf8f69ec442810249c27de9b4',#18,#22,#396,.T.);
#398=SURFACE_CURVE('',#129,(#188,#224),.PCURVE_S1.);
#399=EDGE_CURVE('OSCAD_TOPO/3|edge|e:1dc5ef715decbd46cffb1b5c3ef818d7|37405b709164a2b03b35854fc578fcb79c141fe129155e640ab9db46147264ce',#8,#26,#398,.T.);
#400=SURFACE_CURVE('',#132,(#193,#350),.PCURVE_S1.);
#401=EDGE_CURVE('OSCAD_TOPO/3|edge|e:b49e57e4244b0aa7a56d2c150bed014e|550b1a08cbaf10794c107c27a1a4bf7e3990339a8189db34c4feb539282b91f0',#18,#26,#400,.T.);
#402=SURFACE_CURVE('',#136,(#173,#315),.PCURVE_S1.);
#403=EDGE_CURVE('OSCAD_TOPO/3|edge|e:4be857c6f5039683d4b132f27706c47a|b7314df836536ac01e9f6630bc3acc8d0b593ca1ada7793f614ec655ae2c38d5',#10,#12,#402,.T.);
#404=SURFACE_CURVE('',#140,(#305,#366),.PCURVE_S1.);
#405=EDGE_CURVE('OSCAD_TOPO/3|edge|e:243149727e908363f6fac6086e555a17|816bc01192381c12c62defdced6eef51a324c4b61f107c562c68da597f966f76',#14,#16,#404,.T.);
#406=SURFACE_CURVE('',#144,(#330,#371),.PCURVE_S1.);
#407=EDGE_CURVE('OSCAD_TOPO/3|edge|e:6cc39701d6ac7f33d7d0d4734238f2eb|d73f14f4963b829b352977d6b03c7ec607d1ac1192a2ad30ba4e8d28e5b7349c',#14,#18,#406,.T.);
#408=SURFACE_CURVE('',#148,(#345,#360),.PCURVE_S1.);
#409=EDGE_CURVE('OSCAD_TOPO/3|edge|e:8f6c8812f8e718c07cd73ed780a19c1b|a4635eace10243baef67b077682d0e3773a6162a43a0399f1ea01d196b344f83',#16,#18,#408,.T.);
#410=SURFACE_CURVE('',#152,(#245,#320),.PCURVE_S1.);
#411=EDGE_CURVE('OSCAD_TOPO/3|edge|e:50bf7ffd6e78e140f8610fd5521a9cb9|c7b7f65ec9d4a64d7813652ab437eeaa5eec2c10c979c14e8a6e9b96c5ba90c7',#20,#22,#410,.T.);
#412=SURFACE_CURVE('',#156,(#219,#355),.PCURVE_S1.);
#413=EDGE_CURVE('OSCAD_TOPO/3|edge|e:a349e1ce4d153783c0df2204447f1398|9093e9d604fd4a56fec9a23156eb71cb28c2acd61a360e31a4840ab4abf62f0c',#24,#26,#412,.T.);
#414=ORIENTED_EDGE('',*,*,#373,.T.);
#415=ORIENTED_EDGE('',*,*,#375,.T.);
#416=ORIENTED_EDGE('',*,*,#403,.T.);
#417=ORIENTED_EDGE('',*,*,#377,.F.);
#418=ORIENTED_EDGE('',*,*,#379,.F.);
#419=EDGE_LOOP('OSCAD_TOPO/3|loop|l:b1e35bd68cb2a865e4eccf80a2a2b337|dc78221deae37b4878003e305f798c9cfa9a4816eacde3e325c76d387e5b2e01',(#414,#415,#416,#417,#418));
#420=ORIENTED_EDGE('',*,*,#399,.T.);
#421=ORIENTED_EDGE('',*,*,#401,.F.);
#422=ORIENTED_EDGE('',*,*,#397,.T.);
#423=ORIENTED_EDGE('',*,*,#395,.F.);
#424=EDGE_LOOP('OSCAD_TOPO/3|loop|l:32132d5bdb8f1414e512275ae4a408c8|c55fa45eff5be28d5dc9af49d593f73ee66b906df07fadefc81b7ee0a701227e',(#420,#421,#422,#423));
#425=ORIENTED_EDGE('',*,*,#379,.T.);
#426=ORIENTED_EDGE('',*,*,#391,.T.);
#427=ORIENTED_EDGE('',*,*,#413,.T.);
#428=ORIENTED_EDGE('',*,*,#399,.F.);
#429=ORIENTED_EDGE('',*,*,#381,.F.);
#430=EDGE_LOOP('OSCAD_TOPO/3|loop|l:464d15e0b5809a8fa20a858e3c567906|66b7b8cd48793f370f2aca4f8d5cb6a6eb58e851a0a5ba0e3f61a2c4d004c25f',(#425,#426,#427,#428,#429));
#431=ORIENTED_EDGE('',*,*,#381,.T.);
#432=ORIENTED_EDGE('',*,*,#395,.T.);
#433=ORIENTED_EDGE('',*,*,#411,.F.);
#434=ORIENTED_EDGE('',*,*,#383,.F.);
#435=ORIENTED_EDGE('',*,*,#373,.F.);
#436=EDGE_LOOP('OSCAD_TOPO/3|loop|l:daf205b918f3a72de42029f608d4b1fd|f3007e5b2a2e004ebe3e453167aded53dfc537399f28a7314efe1b34c3a21618',(#431,#432,#433,#434,#435));
#437=ORIENTED_EDGE('',*,*,#383,.T.);
#438=ORIENTED_EDGE('',*,*,#385,.F.);
#439=ORIENTED_EDGE('',*,*,#387,.F.);
#440=ORIENTED_EDGE('',*,*,#375,.F.);
#441=EDGE_LOOP('OSCAD_TOPO/3|loop|l:780278886e5bed5c657f6928e0637d1c|3f00cae3b101b62271026cbcedcfa0a8b1f55e3d5f28868698e51ee038cbfbf2',(#437,#438,#439,#440));
#442=ORIENTED_EDGE('',*,*,#377,.T.);
#443=ORIENTED_EDGE('',*,*,#389,.T.);
#444=ORIENTED_EDGE('',*,*,#393,.T.);
#445=ORIENTED_EDGE('',*,*,#391,.F.);
#446=EDGE_LOOP('OSCAD_TOPO/3|loop|l:acd6b8bd6da5e377b279aadaf8cdc231|bf40eeb2e53563062412c7f8fd96d3c066c69f9640709d3d581972733854d526',(#442,#443,#444,#445));
#447=ORIENTED_EDGE('',*,*,#387,.T.);
#448=ORIENTED_EDGE('',*,*,#405,.T.);
#449=ORIENTED_EDGE('',*,*,#389,.F.);
#450=ORIENTED_EDGE('',*,*,#403,.F.);
#451=EDGE_LOOP('OSCAD_TOPO/3|loop|l:bd19003d6c023185e224634f74561058|f5a667686f0c4473a1c77a213b1741badd9ace50c10b79d2c04c833986e12b0e',(#447,#448,#449,#450));
#452=ORIENTED_EDGE('',*,*,#411,.T.);
#453=ORIENTED_EDGE('',*,*,#397,.F.);
#454=ORIENTED_EDGE('',*,*,#407,.F.);
#455=ORIENTED_EDGE('',*,*,#385,.T.);
#456=EDGE_LOOP('OSCAD_TOPO/3|loop|l:6bfab1dffe650e924fd2c8e58780e9cb|a1b0118decab08ff96c5df43548c2530fa36aea3bf90ac962118294b52b3f74c',(#452,#453,#454,#455));
#457=ORIENTED_EDGE('',*,*,#393,.F.);
#458=ORIENTED_EDGE('',*,*,#409,.T.);
#459=ORIENTED_EDGE('',*,*,#401,.T.);
#460=ORIENTED_EDGE('',*,*,#413,.F.);
#461=EDGE_LOOP('OSCAD_TOPO/3|loop|l:f36408a56002e1cc3ca9fa8fc8b0e273|c0749a52ff097fd55ede217a6885bbb9cb697f49bccab589aca340b73d917766',(#457,#458,#459,#460));
#462=ORIENTED_EDGE('',*,*,#409,.F.);
#463=ORIENTED_EDGE('',*,*,#405,.F.);
#464=ORIENTED_EDGE('',*,*,#407,.T.);
#465=EDGE_LOOP('OSCAD_TOPO/3|loop|l:76ed35bfc15bc81fec19543fcca4205b|d73829b714d4b893527158af1f381e42d54870bf446e24ca1be3bebcef6b82e2',(#462,#463,#464));
#466=FACE_OUTER_BOUND('',#419,.T.);
#467=ADVANCED_FACE('OSCAD_TOPO/3|face|f:3cb355d6dc2c9916c9178dba6fc0e143|f06f993b66c06a5247bed398c2cd25c5f23a1f5ad85be4e3d896ebaccc524bd5',(#466),#31,.T.);
#468=FACE_OUTER_BOUND('',#424,.T.);
#469=ADVANCED_FACE('OSCAD_TOPO/3|face|f:62b867f7276a25ca3dc770f384112c00|3397d6c1347fdca8f34e2b86723271d6d62070b739f24b860f0db1becfae9a53',(#468),#36,.T.);
#470=FACE_OUTER_BOUND('',#430,.T.);
#471=ADVANCED_FACE('OSCAD_TOPO/3|face|f:47702ec1410300fa88d7f02ffe6d1ebc|1bb51f606ac539fd450fcb3e805d96d8e4a39c82d7a9980ef8a51363e69b9d04',(#470),#41,.T.);
#472=FACE_OUTER_BOUND('',#436,.T.);
#473=ADVANCED_FACE('OSCAD_TOPO/3|face|f:8489e239ec86c17200477455da0416c7|a607bd8a00e12f120609d8bdf7e9a87feef96d8f8382dc2fcd35d87807940e6c',(#472),#46,.T.);
#474=FACE_OUTER_BOUND('',#441,.T.);
#475=ADVANCED_FACE('OSCAD_TOPO/3|face|f:04c34e7cb304a5dabfec22e13b9763bc|512bdde8823b41d58d22f205542fdafad22a856201609f3f7f5cb72f586eb7b8',(#474),#51,.T.);
#476=FACE_OUTER_BOUND('',#446,.T.);
#477=ADVANCED_FACE('OSCAD_TOPO/3|face|f:cebe6e190da0c1d8ec74fc7ed3552b6f|f41abc157577cbe37ec369ac359e280414629bb6c4217407759ce7eaaa93e492',(#476),#56,.T.);
#478=FACE_OUTER_BOUND('',#451,.T.);
#479=ADVANCED_FACE('OSCAD_TOPO/3|face|f:47218f21fdc65e933ac98f9c42ac9e43|1b72b8aa7dfad9bde9ab39f37dbb2163a946561e7385bfa7160de97717552f4e',(#478),#63,.T.);
#480=FACE_OUTER_BOUND('',#456,.T.);
#481=ADVANCED_FACE('OSCAD_TOPO/3|face|f:53c11cf7689e6cd0d9ca256be50ed39e|7d2c6a2cf366297ce1c67f7711d7c131a8556f829240d8a4b3651db50708b51f',(#480),#70,.T.);
#482=FACE_OUTER_BOUND('',#461,.T.);
#483=ADVANCED_FACE('OSCAD_TOPO/3|face|f:3d3db229321415826355da2c3975eaeb|023c6c3a70812bc4f79d7994533c8636daf13865b9f9dcadff76932ffa60f700',(#482),#77,.T.);
#484=FACE_OUTER_BOUND('',#465,.T.);
#485=ADVANCED_FACE('OSCAD_TOPO/3|face|f:882b096b331d163e82a819a9889d74c3|3449c8b0c02d4df2204bb19a38d3f3dc3cf2e30fa6f617991bda4eda1f4d4968',(#484),#87,.T.);
#486=CLOSED_SHELL('OSCAD_TOPO/3|shell|s:6ca5ab2338c3b58606bf1f4381b6d821|b5c95770c159bf306b0385f140b037686e8bef81de00205ef1f0420a656a0636',(#467,#469,#471,#473,#475,#477,#479,#481,#483,#485));
#487=MANIFOLD_SOLID_BREP('OSCAD_TOPO/3|body|b:e0f1db2f1b686aa57db87fda48b266ec|cd70a7a04fc6ddea65689e0b42bf3c03eb7e42c4781e7c683a2ab420ea9fe0ce',#486);
#488=(LENGTH_UNIT()NAMED_UNIT(*)SI_UNIT(.MILLI.,.METRE.));
#489=UNCERTAINTY_MEASURE_WITH_UNIT(LENGTH_MEASURE(9.99999999999999955E-8),#488,'distance_accuracy_value','');
#490=(GEOMETRIC_REPRESENTATION_CONTEXT(3)GLOBAL_UNCERTAINTY_ASSIGNED_CONTEXT((#489))GLOBAL_UNIT_ASSIGNED_CONTEXT((#488))REPRESENTATION_CONTEXT('','3D'));
#491=ADVANCED_BREP_SHAPE_REPRESENTATION('',(#487),#490);
#492=APPLICATION_CONTEXT('managed model based 3d engineering');
#493=PRODUCT_CONTEXT('',#492,'mechanical');
#494=PRODUCT('model','model','',(#493));
#495=PRODUCT_DEFINITION_FORMATION('1','',#494);
#496=PRODUCT_DEFINITION_CONTEXT('part definition',#492,'design');
#497=PRODUCT_DEFINITION('design','',#495,#496);
#498=PRODUCT_DEFINITION_SHAPE('','',#497);
#499=SHAPE_DEFINITION_REPRESENTATION(#498,#491);
ENDSEC;
END-ISO-10303-21;
