ISO-10303-21;
HEADER;
FILE_DESCRIPTION(('OpenSCAD Viewer retained AP242 B-rep'),'2;1');
FILE_NAME('model.step','',(''),(''),'OpenSCAD Viewer','OpenSCAD Viewer','');
FILE_SCHEMA(('AP242_MANAGED_MODEL_BASED_3D_ENGINEERING_MIM_LF'));
ENDSEC;
DATA;
#1=CARTESIAN_POINT('',(2.90605352735681315E1,-8.44540487444005272E0,2.34857089269551800E1));
#2=VERTEX_POINT('OSCAD_TOPO/3|vertex|v:bd7426d41a4ca8a2e9011bcccb23c598|7e6c2c54ab5ac20945536bad37b46d2eca9576df9bb65e15be75d73ed8e400ba',#1);
#3=CARTESIAN_POINT('',(2.59993250014434771E1,-2.43086242941436570E0,3.08650226380548105E1));
#4=VERTEX_POINT('OSCAD_TOPO/3|vertex|v:1e056a432569dcf32c30663790ea35cf|20780615cfb68d31567f8a68ba5b49df69d912a16f5ad639409ca504b6f0abca',#3);
#5=CARTESIAN_POINT('',(1.97608734810134266E1,-5.60603527939340829E0,3.08650226380548105E1));
#6=VERTEX_POINT('OSCAD_TOPO/3|vertex|v:550c94289a13e134cf351be70701f8ac|5bcaf3f2573b690f002eaf8958f37c85cfa2c9633748c158164de78c4e0fc7de',#5);
#7=CARTESIAN_POINT('',(1.91757871481644564E1,-6.66108564532155434E0,3.01270912669448450E1));
#8=VERTEX_POINT('OSCAD_TOPO/3|vertex|v:0148117b385e0906800eb81f0e750ef8|17b2e1285048821cff324aad843b636678ccb77788677a0d54ec0960c6f9eee9',#7);
#9=CARTESIAN_POINT('',(2.19308763930766446E1,-1.20741738458446726E1,2.34857089269551800E1));
#10=VERTEX_POINT('OSCAD_TOPO/3|vertex|v:d4a06817d0ce23f6fa143271e51f6226|59edc9eeb7ae974b34ff4f187f7ca8cd0ba78198ca5255ff3fd182c9c58498d9',#9);
#11=CARTESIAN_POINT('',(2.70521984266857061E1,-4.49950565951950132E0,1.94364543665275775E1));
#12=VERTEX_POINT('OSCAD_TOPO/3|vertex|v:1907637731ce464a2786a6431c1017ef|0457e64a4a1e6270bc2ea972c3255f3256b2d6ab8311ae35268909f715e7573e',#11);
#13=CARTESIAN_POINT('',(2.08137469062556555E1,-7.67467850949854302E0,1.94364543665275775E1));
#14=VERTEX_POINT('OSCAD_TOPO/3|vertex|v:6623f91142958697f8dad9c1684cc1a9|27972f00583fe06de97c079dfa1e2140fac2b8ed3ef16641d3d493ca87715dbd',#13);
#15=CARTESIAN_POINT('',(1.80586576613434708E1,-2.26159030897542435E0,2.60778367065172425E1));
#16=VERTEX_POINT('OSCAD_TOPO/3|vertex|v:d6c1ef74ff236d1b73b53e45c4acee55|3681ae3a809461e18d4d097b693da71d33aa63dc924f920d06430f7bdb9d4ab6',#15);
#17=CARTESIAN_POINT('',(2.42971091817735214E1,9.13582541003618243E-1,2.60778367065172425E1));
#18=VERTEX_POINT('OSCAD_TOPO/3|vertex|v:cbe01bd47efcae48b9dcd9418e77bcaf|69e9999f7294d40f345bea74d57fb61495350f98bbb4cc584572465b7e6da577',#17);
#19=CARTESIAN_POINT('',(2.43257109623747922E1,8.57386916352761208E-1,2.74906438376984745E1));
#20=VERTEX_POINT('OSCAD_TOPO/3|vertex|v:f7940c3aa66f91e85d772f8c6a83fe25|fa37e36ca5aa01003558a31f25a4462e172e6373e259665d0bdd4bb99ec930bc',#19);
#21=CARTESIAN_POINT('',(2.02572623540079597E1,-8.78592450007754522E0,2.01113301265988440E1));
#22=VERTEX_POINT('OSCAD_TOPO/3|vertex|v:5e56a882b36249b9b6e75420feb213d3|fd667a647bd139fec691005883a29620a347c366e06ec955f64c10e60d85c919',#21);
#23=CARTESIAN_POINT('',(1.75021731090957715E1,-3.37283629955442699E0,2.67527124665885090E1));
#24=VERTEX_POINT('OSCAD_TOPO/3|vertex|v:0b7b4bc86c9b57a6b94c26d948022c71|36cf6e3ce8ec16f974242184d3025d94edf9075d28d36f3afd72291b6e2662f4',#23);
#25=CARTESIAN_POINT('',(1.80872594419447417E1,-2.31778593362628094E0,2.74906438376984745E1));
#26=VERTEX_POINT('OSCAD_TOPO/3|vertex|v:7e4c95e9debcce9e102e0ce054f9345c|b2d53367ae680dbeedb7c6ad25a28814d22e2e4c271e874bb59e64587377c619',#25);
#27=CARTESIAN_POINT('',(2.19308763930766446E1,-1.20741738458446726E1,2.34857089269551800E1));
#28=CARTESIAN_POINT('',(1.88696661209519903E1,-6.05963140081898466E0,3.08650226380548105E1));
#29=CARTESIAN_POINT('',(2.90605352735681315E1,-8.44540487444005272E0,2.34857089269551800E1));
#30=CARTESIAN_POINT('',(2.59993250014434771E1,-2.43086242941436570E0,3.08650226380548105E1));
#31=B_SPLINE_SURFACE_WITH_KNOTS('',1,1,((#27,#28),(#29,#30)),.UNSPECIFIED.,.F.,.F.,.F.,(2,2),(2,2),(0.00000000000000000E0,1.00000000000000000E0),(0.00000000000000000E0,1.00000000000000000E0),.UNSPECIFIED.);
#32=CARTESIAN_POINT('',(2.70521984266857061E1,-4.49950565951950132E0,1.94364543665275775E1));
#33=CARTESIAN_POINT('',(2.39909881545610553E1,1.51503678550618659E0,2.68157680776272045E1));
#34=CARTESIAN_POINT('',(1.99225395461942227E1,-8.12827463092412117E0,1.94364543665275775E1));
#35=CARTESIAN_POINT('',(1.68613292740695684E1,-2.11373218589843281E0,2.68157680776272045E1));
#36=B_SPLINE_SURFACE_WITH_KNOTS('',1,1,((#32,#33),(#34,#35)),.UNSPECIFIED.,.F.,.F.,.F.,(2,2),(2,2),(0.00000000000000000E0,1.00000000000000000E0),(0.00000000000000000E0,1.00000000000000000E0),.UNSPECIFIED.);
#37=CARTESIAN_POINT('',(2.59993250014434771E1,-2.43086242941436570E0,3.08650226380548105E1));
#38=CARTESIAN_POINT('',(2.39909881545610553E1,1.51503678550618659E0,2.68157680776272045E1));
#39=CARTESIAN_POINT('',(2.90605352735681315E1,-8.44540487444005272E0,2.34857089269551800E1));
#40=CARTESIAN_POINT('',(2.70521984266857061E1,-4.49950565951950132E0,1.94364543665275775E1));
#41=B_SPLINE_SURFACE_WITH_KNOTS('',1,1,((#37,#38),(#39,#40)),.UNSPECIFIED.,.F.,.F.,.F.,(2,2),(2,2),(0.00000000000000000E0,1.00000000000000000E0),(0.00000000000000000E0,1.00000000000000000E0),.UNSPECIFIED.);
#42=CARTESIAN_POINT('',(2.90605352735681315E1,-8.44540487444005272E0,2.34857089269551800E1));
#43=CARTESIAN_POINT('',(2.70521984266857061E1,-4.49950565951950132E0,1.94364543665275775E1));
#44=CARTESIAN_POINT('',(2.19308763930766446E1,-1.20741738458446726E1,2.34857089269551800E1));
#45=CARTESIAN_POINT('',(1.99225395461942227E1,-8.12827463092412117E0,1.94364543665275775E1));
#46=B_SPLINE_SURFACE_WITH_KNOTS('',1,1,((#42,#43),(#44,#45)),.UNSPECIFIED.,.F.,.F.,.F.,(2,2),(2,2),(0.00000000000000000E0,1.00000000000000000E0),(0.00000000000000000E0,1.00000000000000000E0),.UNSPECIFIED.);
#47=CARTESIAN_POINT('',(2.19308763930766446E1,-1.20741738458446726E1,2.34857089269551800E1));
#48=CARTESIAN_POINT('',(1.99225395461942227E1,-8.12827463092412117E0,1.94364543665275775E1));
#49=CARTESIAN_POINT('',(1.88696661209519903E1,-6.05963140081898466E0,3.08650226380548105E1));
#50=CARTESIAN_POINT('',(1.68613292740695684E1,-2.11373218589843281E0,2.68157680776272045E1));
#51=B_SPLINE_SURFACE_WITH_KNOTS('',1,1,((#47,#48),(#49,#50)),.UNSPECIFIED.,.F.,.F.,.F.,(2,2),(2,2),(0.00000000000000000E0,1.00000000000000000E0),(0.00000000000000000E0,1.00000000000000000E0),.UNSPECIFIED.);
#52=CARTESIAN_POINT('',(1.88696661209519903E1,-6.05963140081898466E0,3.08650226380548105E1));
#53=CARTESIAN_POINT('',(1.68613292740695684E1,-2.11373218589843281E0,2.68157680776272045E1));
#54=CARTESIAN_POINT('',(2.59993250014434771E1,-2.43086242941436570E0,3.08650226380548105E1));
#55=CARTESIAN_POINT('',(2.39909881545610553E1,1.51503678550618659E0,2.68157680776272045E1));
#56=B_SPLINE_SURFACE_WITH_KNOTS('',1,1,((#52,#53),(#54,#55)),.UNSPECIFIED.,.F.,.F.,.F.,(2,2),(2,2),(0.00000000000000000E0,1.00000000000000000E0),(0.00000000000000000E0,1.00000000000000000E0),.UNSPECIFIED.);
#57=CARTESIAN_POINT('',(1.91757871481644564E1,-6.66108564532155434E0,3.01270912669448450E1));
#58=CARTESIAN_POINT('',(1.75021731090957715E1,-3.37283629955442699E0,2.67527124665885090E1));
#59=CARTESIAN_POINT('',(1.88696661209519903E1,-6.05963140081898466E0,3.08650226380548105E1));
#60=CARTESIAN_POINT('',(1.71960520818833054E1,-2.77138205505185820E0,2.74906438376984745E1));
#61=CARTESIAN_POINT('',(1.97608734810134266E1,-5.60603527939340829E0,3.08650226380548105E1));
#62=CARTESIAN_POINT('',(1.80872594419447417E1,-2.31778593362628094E0,2.74906438376984745E1));
#63=(BOUNDED_SURFACE()B_SPLINE_SURFACE(2,1,((#57,#58),(#59,#60),(#61,#62)),.UNSPECIFIED.,.F.,.F.,.F.)B_SPLINE_SURFACE_WITH_KNOTS((3,3),(2,2),(0.00000000000000000E0,1.00000000000000000E0),(0.00000000000000000E0,1.00000000000000000E0),.UNSPECIFIED.)GEOMETRIC_REPRESENTATION_ITEM()RATIONAL_B_SPLINE_SURFACE(((1.00000000000000000E0,1.00000000000000000E0),(7.07106781186547573E-1,7.07106781186547573E-1),(1.00000000000000000E0,1.00000000000000000E0)))REPRESENTATION_ITEM('')SURFACE());
#64=CARTESIAN_POINT('',(2.08137469062556555E1,-7.67467850949854302E0,1.94364543665275775E1));
#65=CARTESIAN_POINT('',(1.80586576613434708E1,-2.26159030897542435E0,2.60778367065172425E1));
#66=CARTESIAN_POINT('',(1.99225395461942227E1,-8.12827463092412117E0,1.94364543665275775E1));
#67=CARTESIAN_POINT('',(1.71674503012820345E1,-2.71518643040100160E0,2.60778367065172425E1));
#68=CARTESIAN_POINT('',(2.02572623540079597E1,-8.78592450007754522E0,2.01113301265988440E1));
#69=CARTESIAN_POINT('',(1.75021731090957715E1,-3.37283629955442699E0,2.67527124665885090E1));
#70=(BOUNDED_SURFACE()B_SPLINE_SURFACE(2,1,((#64,#65),(#66,#67),(#68,#69)),.UNSPECIFIED.,.F.,.F.,.F.)B_SPLINE_SURFACE_WITH_KNOTS((3,3),(2,2),(0.00000000000000000E0,1.00000000000000000E0),(0.00000000000000000E0,1.00000000000000000E0),.UNSPECIFIED.)GEOMETRIC_REPRESENTATION_ITEM()RATIONAL_B_SPLINE_SURFACE(((1.00000000000000000E0,1.00000000000000000E0),(1.00000000000000000E0,1.00000000000000000E0),(2.00000000000000000E0,2.00000000000000000E0)))REPRESENTATION_ITEM('')SURFACE());
#71=CARTESIAN_POINT('',(2.43257109623747922E1,8.57386916352761208E-1,2.74906438376984745E1));
#72=CARTESIAN_POINT('',(1.80872594419447417E1,-2.31778593362628094E0,2.74906438376984745E1));
#73=CARTESIAN_POINT('',(2.39909881545610553E1,1.51503678550618659E0,2.68157680776272045E1));
#74=CARTESIAN_POINT('',(1.77525366341310047E1,-1.66013606447285555E0,2.68157680776272045E1));
#75=CARTESIAN_POINT('',(2.42971091817735214E1,9.13582541003618243E-1,2.60778367065172425E1));
#76=CARTESIAN_POINT('',(1.80586576613434708E1,-2.26159030897542435E0,2.60778367065172425E1));
#77=(BOUNDED_SURFACE()B_SPLINE_SURFACE(2,1,((#71,#72),(#73,#74),(#75,#76)),.UNSPECIFIED.,.F.,.F.,.F.)B_SPLINE_SURFACE_WITH_KNOTS((3,3),(2,2),(0.00000000000000000E0,1.00000000000000000E0),(0.00000000000000000E0,1.00000000000000000E0),.UNSPECIFIED.)GEOMETRIC_REPRESENTATION_ITEM()RATIONAL_B_SPLINE_SURFACE(((2.00000000000000000E0,2.00000000000000000E0),(1.00000000000000000E0,1.00000000000000000E0),(1.00000000000000000E0,1.00000000000000000E0)))REPRESENTATION_ITEM('')SURFACE());
#78=CARTESIAN_POINT('',(1.80586576613434708E1,-2.26159030897542435E0,2.60778367065172425E1));
#79=CARTESIAN_POINT('',(1.77525366341310047E1,-1.66013606447285555E0,2.68157680776272045E1));
#80=CARTESIAN_POINT('',(1.80872594419447417E1,-2.31778593362628094E0,2.74906438376984745E1));
#81=CARTESIAN_POINT('',(1.71674503012820345E1,-2.71518643040100160E0,2.60778367065172425E1));
#82=CARTESIAN_POINT('',(1.68613292740695684E1,-2.11373218589843281E0,2.68157680776272045E1));
#83=CARTESIAN_POINT('',(1.76416557619140235E1,-2.54458399433906957E0,2.74906438376984745E1));
#84=CARTESIAN_POINT('',(1.75021731090957715E1,-3.37283629955442699E0,2.67527124665885090E1));
#85=CARTESIAN_POINT('',(1.73491125954895402E1,-3.07210917730314259E0,2.71216781521434918E1));
#86=CARTESIAN_POINT('',(1.77067358135791864E1,-3.03988471912866398E0,2.74696253006855748E1));
#87=(BOUNDED_SURFACE()B_SPLINE_SURFACE(2,2,((#78,#79,#80),(#81,#82,#83),(#84,#85,#86)),.UNSPECIFIED.,.F.,.F.,.F.)B_SPLINE_SURFACE_WITH_KNOTS((3,3),(3,3),(0.00000000000000000E0,1.00000000000000000E0),(0.00000000000000000E0,1.00000000000000000E0),.UNSPECIFIED.)GEOMETRIC_REPRESENTATION_ITEM()RATIONAL_B_SPLINE_SURFACE(((1.00000000000000000E0,1.00000000000000000E0,2.00000000000000000E0),(1.00000000000000000E0,1.00000000000000000E0,2.00000000000000000E0),(2.00000000000000000E0,2.00000000000000000E0,3.00000000000000000E0)))REPRESENTATION_ITEM('')SURFACE());
#88=CARTESIAN_POINT('',(2.90605352735681315E1,-8.44540487444005272E0,2.34857089269551800E1));
#89=CARTESIAN_POINT('',(2.59993250014434771E1,-2.43086242941436570E0,3.08650226380548105E1));
#90=B_SPLINE_CURVE_WITH_KNOTS('',1,(#88,#89),.UNSPECIFIED.,.F.,.F.,(2,2),(0.00000000000000000E0,1.00000000000000000E0),.UNSPECIFIED.);
#91=CARTESIAN_POINT('',(2.59993250014434771E1,-2.43086242941436570E0,3.08650226380548105E1));
#92=CARTESIAN_POINT('',(1.97608734810134266E1,-5.60603527939340829E0,3.08650226380548105E1));
#93=B_SPLINE_CURVE_WITH_KNOTS('',1,(#91,#92),.UNSPECIFIED.,.F.,.F.,(2,2),(0.00000000000000000E0,1.00000000000000000E0),.UNSPECIFIED.);
#94=CARTESIAN_POINT('',(1.91757871481644564E1,-6.66108564532155434E0,3.01270912669448450E1));
#95=CARTESIAN_POINT('',(1.88696661209519903E1,-6.05963140081898466E0,3.08650226380548105E1));
#96=CARTESIAN_POINT('',(1.97608734810134266E1,-5.60603527939340829E0,3.08650226380548105E1));
#97=(BOUNDED_CURVE()B_SPLINE_CURVE(2,(#94,#95,#96),.UNSPECIFIED.,.F.,.F.)B_SPLINE_CURVE_WITH_KNOTS((3,3),(0.00000000000000000E0,1.00000000000000000E0),.UNSPECIFIED.)CURVE()GEOMETRIC_REPRESENTATION_ITEM()RATIONAL_B_SPLINE_CURVE((1.00000000000000000E0,7.07106781186547573E-1,1.00000000000000000E0))REPRESENTATION_ITEM(''));
#98=CARTESIAN_POINT('',(2.19308763930766446E1,-1.20741738458446726E1,2.34857089269551800E1));
#99=CARTESIAN_POINT('',(1.91757871481644564E1,-6.66108564532155434E0,3.01270912669448450E1));
#100=B_SPLINE_CURVE_WITH_KNOTS('',1,(#98,#99),.UNSPECIFIED.,.F.,.F.,(2,2),(0.00000000000000000E0,1.00000000000000000E0),.UNSPECIFIED.);
#101=CARTESIAN_POINT('',(2.90605352735681315E1,-8.44540487444005272E0,2.34857089269551800E1));
#102=CARTESIAN_POINT('',(2.19308763930766446E1,-1.20741738458446726E1,2.34857089269551800E1));
#103=B_SPLINE_CURVE_WITH_KNOTS('',1,(#101,#102),.UNSPECIFIED.,.F.,.F.,(2,2),(0.00000000000000000E0,1.00000000000000000E0),.UNSPECIFIED.);
#104=CARTESIAN_POINT('',(2.70521984266857061E1,-4.49950565951950132E0,1.94364543665275775E1));
#105=CARTESIAN_POINT('',(2.08137469062556555E1,-7.67467850949854302E0,1.94364543665275775E1));
#106=B_SPLINE_CURVE_WITH_KNOTS('',1,(#104,#105),.UNSPECIFIED.,.F.,.F.,(2,2),(0.00000000000000000E0,1.00000000000000000E0),.UNSPECIFIED.);
#107=CARTESIAN_POINT('',(1.80586576613434708E1,-2.26159030897542435E0,2.60778367065172425E1));
#108=CARTESIAN_POINT('',(2.08137469062556555E1,-7.67467850949854302E0,1.94364543665275775E1));
#109=B_SPLINE_CURVE_WITH_KNOTS('',1,(#107,#108),.UNSPECIFIED.,.F.,.F.,(2,2),(0.00000000000000000E0,1.00000000000000000E0),.UNSPECIFIED.);
#110=CARTESIAN_POINT('',(1.80586576613434708E1,-2.26159030897542435E0,2.60778367065172425E1));
#111=CARTESIAN_POINT('',(2.42971091817735214E1,9.13582541003618243E-1,2.60778367065172425E1));
#112=B_SPLINE_CURVE_WITH_KNOTS('',1,(#110,#111),.UNSPECIFIED.,.F.,.F.,(2,2),(0.00000000000000000E0,1.00000000000000000E0),.UNSPECIFIED.);
#113=CARTESIAN_POINT('',(2.70521984266857061E1,-4.49950565951950132E0,1.94364543665275775E1));
#114=CARTESIAN_POINT('',(2.42971091817735214E1,9.13582541003618243E-1,2.60778367065172425E1));
#115=B_SPLINE_CURVE_WITH_KNOTS('',1,(#113,#114),.UNSPECIFIED.,.F.,.F.,(2,2),(0.00000000000000000E0,1.00000000000000000E0),.UNSPECIFIED.);
#116=CARTESIAN_POINT('',(2.90605352735681315E1,-8.44540487444005272E0,2.34857089269551800E1));
#117=CARTESIAN_POINT('',(2.70521984266857061E1,-4.49950565951950132E0,1.94364543665275775E1));
#118=B_SPLINE_CURVE_WITH_KNOTS('',1,(#116,#117),.UNSPECIFIED.,.F.,.F.,(2,2),(0.00000000000000000E0,1.00000000000000000E0),.UNSPECIFIED.);
#119=CARTESIAN_POINT('',(2.43257109623747922E1,8.57386916352761208E-1,2.74906438376984745E1));
#120=CARTESIAN_POINT('',(2.39909881545610553E1,1.51503678550618659E0,2.68157680776272045E1));
#121=CARTESIAN_POINT('',(2.42971091817735214E1,9.13582541003618243E-1,2.60778367065172425E1));
#122=(BOUNDED_CURVE()B_SPLINE_CURVE(2,(#119,#120,#121),.UNSPECIFIED.,.F.,.F.)B_SPLINE_CURVE_WITH_KNOTS((3,3),(0.00000000000000000E0,1.00000000000000000E0),.UNSPECIFIED.)CURVE()GEOMETRIC_REPRESENTATION_ITEM()RATIONAL_B_SPLINE_CURVE((2.00000000000000000E0,1.00000000000000000E0,1.00000000000000000E0))REPRESENTATION_ITEM(''));
#123=CARTESIAN_POINT('',(2.59993250014434771E1,-2.43086242941436570E0,3.08650226380548105E1));
#124=CARTESIAN_POINT('',(2.43257109623747922E1,8.57386916352761208E-1,2.74906438376984745E1));
#125=B_SPLINE_CURVE_WITH_KNOTS('',1,(#123,#124),.UNSPECIFIED.,.F.,.F.,(2,2),(0.00000000000000000E0,1.00000000000000000E0),.UNSPECIFIED.);
#126=CARTESIAN_POINT('',(2.19308763930766446E1,-1.20741738458446726E1,2.34857089269551800E1));
#127=CARTESIAN_POINT('',(2.02572623540079597E1,-8.78592450007754522E0,2.01113301265988440E1));
#128=B_SPLINE_CURVE_WITH_KNOTS('',1,(#126,#127),.UNSPECIFIED.,.F.,.F.,(2,2),(0.00000000000000000E0,1.00000000000000000E0),.UNSPECIFIED.);
#129=CARTESIAN_POINT('',(2.02572623540079597E1,-8.78592450007754522E0,2.01113301265988440E1));
#130=CARTESIAN_POINT('',(1.99225395461942227E1,-8.12827463092412117E0,1.94364543665275775E1));
#131=CARTESIAN_POINT('',(2.08137469062556555E1,-7.67467850949854302E0,1.94364543665275775E1));
#132=(BOUNDED_CURVE()B_SPLINE_CURVE(2,(#129,#130,#131),.UNSPECIFIED.,.F.,.F.)B_SPLINE_CURVE_WITH_KNOTS((3,3),(0.00000000000000000E0,1.00000000000000000E0),.UNSPECIFIED.)CURVE()GEOMETRIC_REPRESENTATION_ITEM()RATIONAL_B_SPLINE_CURVE((2.00000000000000000E0,1.00000000000000000E0,1.00000000000000000E0))REPRESENTATION_ITEM(''));
#133=CARTESIAN_POINT('',(1.91757871481644564E1,-6.66108564532155434E0,3.01270912669448450E1));
#134=CARTESIAN_POINT('',(1.75021731090957715E1,-3.37283629955442699E0,2.67527124665885090E1));
#135=B_SPLINE_CURVE_WITH_KNOTS('',1,(#133,#134),.UNSPECIFIED.,.F.,.F.,(2,2),(0.00000000000000000E0,1.00000000000000000E0),.UNSPECIFIED.);
#136=CARTESIAN_POINT('',(1.75021731090957715E1,-3.37283629955442699E0,2.67527124665885090E1));
#137=CARTESIAN_POINT('',(2.02572623540079597E1,-8.78592450007754522E0,2.01113301265988440E1));
#138=B_SPLINE_CURVE_WITH_KNOTS('',1,(#136,#137),.UNSPECIFIED.,.F.,.F.,(2,2),(0.00000000000000000E0,1.00000000000000000E0),.UNSPECIFIED.);
#139=CARTESIAN_POINT('',(1.80872594419447417E1,-2.31778593362628094E0,2.74906438376984745E1));
#140=CARTESIAN_POINT('',(2.43257109623747922E1,8.57386916352761208E-1,2.74906438376984745E1));
#141=B_SPLINE_CURVE_WITH_KNOTS('',1,(#139,#140),.UNSPECIFIED.,.F.,.F.,(2,2),(0.00000000000000000E0,1.00000000000000000E0),.UNSPECIFIED.);
#142=CARTESIAN_POINT('',(1.97608734810134266E1,-5.60603527939340829E0,3.08650226380548105E1));
#143=CARTESIAN_POINT('',(1.80872594419447417E1,-2.31778593362628094E0,2.74906438376984745E1));
#144=B_SPLINE_CURVE_WITH_KNOTS('',1,(#142,#143),.UNSPECIFIED.,.F.,.F.,(2,2),(0.00000000000000000E0,1.00000000000000000E0),.UNSPECIFIED.);
#145=CARTESIAN_POINT('',(1.75021731090957715E1,-3.37283629955442699E0,2.67527124665885090E1));
#146=CARTESIAN_POINT('',(1.71960520818833054E1,-2.77138205505185820E0,2.74906438376984745E1));
#147=CARTESIAN_POINT('',(1.80872594419447417E1,-2.31778593362628094E0,2.74906438376984745E1));
#148=(BOUNDED_CURVE()B_SPLINE_CURVE(2,(#145,#146,#147),.UNSPECIFIED.,.F.,.F.)B_SPLINE_CURVE_WITH_KNOTS((3,3),(0.00000000000000000E0,1.00000000000000000E0),.UNSPECIFIED.)CURVE()GEOMETRIC_REPRESENTATION_ITEM()RATIONAL_B_SPLINE_CURVE((1.00000000000000000E0,7.07106781186547573E-1,1.00000000000000000E0))REPRESENTATION_ITEM(''));
#149=CARTESIAN_POINT('',(1.75021731090957715E1,-3.37283629955442699E0,2.67527124665885090E1));
#150=CARTESIAN_POINT('',(1.71674503012820345E1,-2.71518643040100160E0,2.60778367065172425E1));
#151=CARTESIAN_POINT('',(1.80586576613434708E1,-2.26159030897542435E0,2.60778367065172425E1));
#152=(BOUNDED_CURVE()B_SPLINE_CURVE(2,(#149,#150,#151),.UNSPECIFIED.,.F.,.F.)B_SPLINE_CURVE_WITH_KNOTS((3,3),(0.00000000000000000E0,1.00000000000000000E0),.UNSPECIFIED.)CURVE()GEOMETRIC_REPRESENTATION_ITEM()RATIONAL_B_SPLINE_CURVE((2.00000000000000000E0,1.00000000000000000E0,1.00000000000000000E0))REPRESENTATION_ITEM(''));
#153=CARTESIAN_POINT('',(1.80872594419447417E1,-2.31778593362628094E0,2.74906438376984745E1));
#154=CARTESIAN_POINT('',(1.77525366341310047E1,-1.66013606447285555E0,2.68157680776272045E1));
#155=CARTESIAN_POINT('',(1.80586576613434708E1,-2.26159030897542435E0,2.60778367065172425E1));
#156=(BOUNDED_CURVE()B_SPLINE_CURVE(2,(#153,#154,#155),.UNSPECIFIED.,.F.,.F.)B_SPLINE_CURVE_WITH_KNOTS((3,3),(0.00000000000000000E0,1.00000000000000000E0),.UNSPECIFIED.)CURVE()GEOMETRIC_REPRESENTATION_ITEM()RATIONAL_B_SPLINE_CURVE((2.00000000000000000E0,1.00000000000000000E0,1.00000000000000000E0))REPRESENTATION_ITEM(''));
#157=(GEOMETRIC_REPRESENTATION_CONTEXT(2)REPRESENTATION_CONTEXT('','2D'));
#158=CARTESIAN_POINT('',(1.00000000000000000E0,0.00000000000000000E0));
#159=CARTESIAN_POINT('',(1.00000000000000000E0,1.00000000000000000E0));
#160=B_SPLINE_CURVE_WITH_KNOTS('',1,(#158,#159),.UNSPECIFIED.,.F.,.F.,(2,2),(0.00000000000000000E0,1.00000000000000000E0),.UNSPECIFIED.);
#161=DEFINITIONAL_REPRESENTATION('',(#160),#157);
#162=PCURVE('',#31,#161);
#163=CARTESIAN_POINT('',(1.00000000000000000E0,1.00000000000000000E0));
#164=CARTESIAN_POINT('',(1.25000000000000000E-1,1.00000000000000000E0));
#165=B_SPLINE_CURVE_WITH_KNOTS('',1,(#163,#164),.UNSPECIFIED.,.F.,.F.,(2,2),(0.00000000000000000E0,1.00000000000000000E0),.UNSPECIFIED.);
#166=DEFINITIONAL_REPRESENTATION('',(#165),#157);
#167=PCURVE('',#31,#166);
#168=CARTESIAN_POINT('',(1.25000000000000000E-1,1.00000000000000000E0));
#169=CARTESIAN_POINT('',(0.00000000000000000E0,1.00000000000000000E0));
#170=CARTESIAN_POINT('',(0.00000000000000000E0,9.00000000000000022E-1));
#171=(BOUNDED_CURVE()B_SPLINE_CURVE(2,(#168,#169,#170),.UNSPECIFIED.,.F.,.F.)B_SPLINE_CURVE_WITH_KNOTS((3,3),(0.00000000000000000E0,1.00000000000000000E0),.UNSPECIFIED.)CURVE()GEOMETRIC_REPRESENTATION_ITEM()RATIONAL_B_SPLINE_CURVE((1.00000000000000000E0,7.07106781186547573E-1,1.00000000000000000E0))REPRESENTATION_ITEM(''));
#172=DEFINITIONAL_REPRESENTATION('',(#171),#157);
#173=PCURVE('',#31,#172);
#174=CARTESIAN_POINT('',(0.00000000000000000E0,9.00000000000000022E-1));
#175=CARTESIAN_POINT('',(0.00000000000000000E0,0.00000000000000000E0));
#176=B_SPLINE_CURVE_WITH_KNOTS('',1,(#174,#175),.UNSPECIFIED.,.F.,.F.,(2,2),(0.00000000000000000E0,1.00000000000000000E0),.UNSPECIFIED.);
#177=DEFINITIONAL_REPRESENTATION('',(#176),#157);
#178=PCURVE('',#31,#177);
#179=CARTESIAN_POINT('',(0.00000000000000000E0,0.00000000000000000E0));
#180=CARTESIAN_POINT('',(1.00000000000000000E0,0.00000000000000000E0));
#181=B_SPLINE_CURVE_WITH_KNOTS('',1,(#179,#180),.UNSPECIFIED.,.F.,.F.,(2,2),(0.00000000000000000E0,1.00000000000000000E0),.UNSPECIFIED.);
#182=DEFINITIONAL_REPRESENTATION('',(#181),#157);
#183=PCURVE('',#31,#182);
#184=CARTESIAN_POINT('',(0.00000000000000000E0,0.00000000000000000E0));
#185=CARTESIAN_POINT('',(8.75000000000000000E-1,0.00000000000000000E0));
#186=B_SPLINE_CURVE_WITH_KNOTS('',1,(#184,#185),.UNSPECIFIED.,.F.,.F.,(2,2),(0.00000000000000000E0,1.00000000000000000E0),.UNSPECIFIED.);
#187=DEFINITIONAL_REPRESENTATION('',(#186),#157);
#188=PCURVE('',#36,#187);
#189=CARTESIAN_POINT('',(8.75000000000000000E-1,0.00000000000000000E0));
#190=CARTESIAN_POINT('',(8.75000000000000000E-1,9.00000000000000022E-1));
#191=B_SPLINE_CURVE_WITH_KNOTS('',1,(#189,#190),.UNSPECIFIED.,.F.,.F.,(2,2),(0.00000000000000000E0,1.00000000000000000E0),.UNSPECIFIED.);
#192=DEFINITIONAL_REPRESENTATION('',(#191),#157);
#193=PCURVE('',#36,#192);
#194=CARTESIAN_POINT('',(8.75000000000000000E-1,9.00000000000000022E-1));
#195=CARTESIAN_POINT('',(0.00000000000000000E0,9.00000000000000022E-1));
#196=B_SPLINE_CURVE_WITH_KNOTS('',1,(#194,#195),.UNSPECIFIED.,.F.,.F.,(2,2),(0.00000000000000000E0,1.00000000000000000E0),.UNSPECIFIED.);
#197=DEFINITIONAL_REPRESENTATION('',(#196),#157);
#198=PCURVE('',#36,#197);
#199=CARTESIAN_POINT('',(0.00000000000000000E0,9.00000000000000022E-1));
#200=CARTESIAN_POINT('',(0.00000000000000000E0,0.00000000000000000E0));
#201=B_SPLINE_CURVE_WITH_KNOTS('',1,(#199,#200),.UNSPECIFIED.,.F.,.F.,(2,2),(0.00000000000000000E0,1.00000000000000000E0),.UNSPECIFIED.);
#202=DEFINITIONAL_REPRESENTATION('',(#201),#157);
#203=PCURVE('',#36,#202);
#204=CARTESIAN_POINT('',(1.00000000000000000E0,0.00000000000000000E0));
#205=CARTESIAN_POINT('',(1.00000000000000000E0,1.00000000000000000E0));
#206=B_SPLINE_CURVE_WITH_KNOTS('',1,(#204,#205),.UNSPECIFIED.,.F.,.F.,(2,2),(0.00000000000000000E0,1.00000000000000000E0),.UNSPECIFIED.);
#207=DEFINITIONAL_REPRESENTATION('',(#206),#157);
#208=PCURVE('',#41,#207);
#209=CARTESIAN_POINT('',(1.00000000000000000E0,1.00000000000000000E0));
#210=CARTESIAN_POINT('',(9.99999999999999778E-2,1.00000000000000000E0));
#211=B_SPLINE_CURVE_WITH_KNOTS('',1,(#209,#210),.UNSPECIFIED.,.F.,.F.,(2,2),(0.00000000000000000E0,1.00000000000000000E0),.UNSPECIFIED.);
#212=DEFINITIONAL_REPRESENTATION('',(#211),#157);
#213=PCURVE('',#41,#212);
#214=CARTESIAN_POINT('',(9.99999999999999778E-2,1.00000000000000000E0));
#215=CARTESIAN_POINT('',(0.00000000000000000E0,1.00000000000000000E0));
#216=CARTESIAN_POINT('',(0.00000000000000000E0,8.33333333333333370E-1));
#217=(BOUNDED_CURVE()B_SPLINE_CURVE(2,(#214,#215,#216),.UNSPECIFIED.,.F.,.F.)B_SPLINE_CURVE_WITH_KNOTS((3,3),(0.00000000000000000E0,1.00000000000000000E0),.UNSPECIFIED.)CURVE()GEOMETRIC_REPRESENTATION_ITEM()RATIONAL_B_SPLINE_CURVE((1.00000000000000000E0,1.00000000000000000E0,2.00000000000000000E0))REPRESENTATION_ITEM(''));
#218=DEFINITIONAL_REPRESENTATION('',(#217),#157);
#219=PCURVE('',#41,#218);
#220=CARTESIAN_POINT('',(0.00000000000000000E0,8.33333333333333370E-1));
#221=CARTESIAN_POINT('',(0.00000000000000000E0,0.00000000000000000E0));
#222=B_SPLINE_CURVE_WITH_KNOTS('',1,(#220,#221),.UNSPECIFIED.,.F.,.F.,(2,2),(0.00000000000000000E0,1.00000000000000000E0),.UNSPECIFIED.);
#223=DEFINITIONAL_REPRESENTATION('',(#222),#157);
#224=PCURVE('',#41,#223);
#225=CARTESIAN_POINT('',(0.00000000000000000E0,0.00000000000000000E0));
#226=CARTESIAN_POINT('',(1.00000000000000000E0,0.00000000000000000E0));
#227=B_SPLINE_CURVE_WITH_KNOTS('',1,(#225,#226),.UNSPECIFIED.,.F.,.F.,(2,2),(0.00000000000000000E0,1.00000000000000000E0),.UNSPECIFIED.);
#228=DEFINITIONAL_REPRESENTATION('',(#227),#157);
#229=PCURVE('',#41,#228);
#230=CARTESIAN_POINT('',(0.00000000000000000E0,0.00000000000000000E0));
#231=CARTESIAN_POINT('',(1.00000000000000000E0,0.00000000000000000E0));
#232=B_SPLINE_CURVE_WITH_KNOTS('',1,(#230,#231),.UNSPECIFIED.,.F.,.F.,(2,2),(0.00000000000000000E0,1.00000000000000000E0),.UNSPECIFIED.);
#233=DEFINITIONAL_REPRESENTATION('',(#232),#157);
#234=PCURVE('',#46,#233);
#235=CARTESIAN_POINT('',(1.00000000000000000E0,0.00000000000000000E0));
#236=CARTESIAN_POINT('',(1.00000000000000000E0,8.33333333333333370E-1));
#237=B_SPLINE_CURVE_WITH_KNOTS('',1,(#235,#236),.UNSPECIFIED.,.F.,.F.,(2,2),(0.00000000000000000E0,1.00000000000000000E0),.UNSPECIFIED.);
#238=DEFINITIONAL_REPRESENTATION('',(#237),#157);
#239=PCURVE('',#46,#238);
#240=CARTESIAN_POINT('',(1.00000000000000000E0,8.33333333333333370E-1));
#241=CARTESIAN_POINT('',(1.00000000000000000E0,1.00000000000000000E0));
#242=CARTESIAN_POINT('',(8.75000000000000000E-1,1.00000000000000000E0));
#243=(BOUNDED_CURVE()B_SPLINE_CURVE(2,(#240,#241,#242),.UNSPECIFIED.,.F.,.F.)B_SPLINE_CURVE_WITH_KNOTS((3,3),(0.00000000000000000E0,1.00000000000000000E0),.UNSPECIFIED.)CURVE()GEOMETRIC_REPRESENTATION_ITEM()RATIONAL_B_SPLINE_CURVE((2.00000000000000000E0,1.00000000000000000E0,1.00000000000000000E0))REPRESENTATION_ITEM(''));
#244=DEFINITIONAL_REPRESENTATION('',(#243),#157);
#245=PCURVE('',#46,#244);
#246=CARTESIAN_POINT('',(8.75000000000000000E-1,1.00000000000000000E0));
#247=CARTESIAN_POINT('',(0.00000000000000000E0,1.00000000000000000E0));
#248=B_SPLINE_CURVE_WITH_KNOTS('',1,(#246,#247),.UNSPECIFIED.,.F.,.F.,(2,2),(0.00000000000000000E0,1.00000000000000000E0),.UNSPECIFIED.);
#249=DEFINITIONAL_REPRESENTATION('',(#248),#157);
#250=PCURVE('',#46,#249);
#251=CARTESIAN_POINT('',(0.00000000000000000E0,1.00000000000000000E0));
#252=CARTESIAN_POINT('',(0.00000000000000000E0,0.00000000000000000E0));
#253=B_SPLINE_CURVE_WITH_KNOTS('',1,(#251,#252),.UNSPECIFIED.,.F.,.F.,(2,2),(0.00000000000000000E0,1.00000000000000000E0),.UNSPECIFIED.);
#254=DEFINITIONAL_REPRESENTATION('',(#253),#157);
#255=PCURVE('',#46,#254);
#256=CARTESIAN_POINT('',(0.00000000000000000E0,0.00000000000000000E0));
#257=CARTESIAN_POINT('',(9.00000000000000022E-1,0.00000000000000000E0));
#258=B_SPLINE_CURVE_WITH_KNOTS('',1,(#256,#257),.UNSPECIFIED.,.F.,.F.,(2,2),(0.00000000000000000E0,1.00000000000000000E0),.UNSPECIFIED.);
#259=DEFINITIONAL_REPRESENTATION('',(#258),#157);
#260=PCURVE('',#51,#259);
#261=CARTESIAN_POINT('',(9.00000000000000022E-1,0.00000000000000000E0));
#262=CARTESIAN_POINT('',(9.00000000000000022E-1,8.33333333333333370E-1));
#263=B_SPLINE_CURVE_WITH_KNOTS('',1,(#261,#262),.UNSPECIFIED.,.F.,.F.,(2,2),(0.00000000000000000E0,1.00000000000000000E0),.UNSPECIFIED.);
#264=DEFINITIONAL_REPRESENTATION('',(#263),#157);
#265=PCURVE('',#51,#264);
#266=CARTESIAN_POINT('',(9.00000000000000022E-1,8.33333333333333370E-1));
#267=CARTESIAN_POINT('',(0.00000000000000000E0,8.33333333333333370E-1));
#268=B_SPLINE_CURVE_WITH_KNOTS('',1,(#266,#267),.UNSPECIFIED.,.F.,.F.,(2,2),(0.00000000000000000E0,1.00000000000000000E0),.UNSPECIFIED.);
#269=DEFINITIONAL_REPRESENTATION('',(#268),#157);
#270=PCURVE('',#51,#269);
#271=CARTESIAN_POINT('',(0.00000000000000000E0,8.33333333333333370E-1));
#272=CARTESIAN_POINT('',(0.00000000000000000E0,0.00000000000000000E0));
#273=B_SPLINE_CURVE_WITH_KNOTS('',1,(#271,#272),.UNSPECIFIED.,.F.,.F.,(2,2),(0.00000000000000000E0,1.00000000000000000E0),.UNSPECIFIED.);
#274=DEFINITIONAL_REPRESENTATION('',(#273),#157);
#275=PCURVE('',#51,#274);
#276=CARTESIAN_POINT('',(1.00000000000000000E0,0.00000000000000000E0));
#277=CARTESIAN_POINT('',(1.00000000000000000E0,8.33333333333333370E-1));
#278=B_SPLINE_CURVE_WITH_KNOTS('',1,(#276,#277),.UNSPECIFIED.,.F.,.F.,(2,2),(0.00000000000000000E0,1.00000000000000000E0),.UNSPECIFIED.);
#279=DEFINITIONAL_REPRESENTATION('',(#278),#157);
#280=PCURVE('',#56,#279);
#281=CARTESIAN_POINT('',(1.00000000000000000E0,8.33333333333333370E-1));
#282=CARTESIAN_POINT('',(1.25000000000000000E-1,8.33333333333333370E-1));
#283=B_SPLINE_CURVE_WITH_KNOTS('',1,(#281,#282),.UNSPECIFIED.,.F.,.F.,(2,2),(0.00000000000000000E0,1.00000000000000000E0),.UNSPECIFIED.);
#284=DEFINITIONAL_REPRESENTATION('',(#283),#157);
#285=PCURVE('',#56,#284);
#286=CARTESIAN_POINT('',(1.25000000000000000E-1,8.33333333333333370E-1));
#287=CARTESIAN_POINT('',(1.25000000000000000E-1,0.00000000000000000E0));
#288=B_SPLINE_CURVE_WITH_KNOTS('',1,(#286,#287),.UNSPECIFIED.,.F.,.F.,(2,2),(0.00000000000000000E0,1.00000000000000000E0),.UNSPECIFIED.);
#289=DEFINITIONAL_REPRESENTATION('',(#288),#157);
#290=PCURVE('',#56,#289);
#291=CARTESIAN_POINT('',(1.25000000000000000E-1,0.00000000000000000E0));
#292=CARTESIAN_POINT('',(1.00000000000000000E0,0.00000000000000000E0));
#293=B_SPLINE_CURVE_WITH_KNOTS('',1,(#291,#292),.UNSPECIFIED.,.F.,.F.,(2,2),(0.00000000000000000E0,1.00000000000000000E0),.UNSPECIFIED.);
#294=DEFINITIONAL_REPRESENTATION('',(#293),#157);
#295=PCURVE('',#56,#294);
#296=CARTESIAN_POINT('',(0.00000000000000000E0,0.00000000000000000E0));
#297=CARTESIAN_POINT('',(1.00000000000000000E0,0.00000000000000000E0));
#298=B_SPLINE_CURVE_WITH_KNOTS('',1,(#296,#297),.UNSPECIFIED.,.F.,.F.,(2,2),(0.00000000000000000E0,1.00000000000000000E0),.UNSPECIFIED.);
#299=DEFINITIONAL_REPRESENTATION('',(#298),#157);
#300=PCURVE('',#63,#299);
#301=CARTESIAN_POINT('',(1.00000000000000000E0,0.00000000000000000E0));
#302=CARTESIAN_POINT('',(1.00000000000000000E0,1.00000000000000000E0));
#303=B_SPLINE_CURVE_WITH_KNOTS('',1,(#301,#302),.UNSPECIFIED.,.F.,.F.,(2,2),(0.00000000000000000E0,1.00000000000000000E0),.UNSPECIFIED.);
#304=DEFINITIONAL_REPRESENTATION('',(#303),#157);
#305=PCURVE('',#63,#304);
#306=CARTESIAN_POINT('',(1.00000000000000000E0,1.00000000000000000E0));
#307=CARTESIAN_POINT('',(0.00000000000000000E0,1.00000000000000000E0));
#308=B_SPLINE_CURVE_WITH_KNOTS('',1,(#306,#307),.UNSPECIFIED.,.F.,.F.,(2,2),(0.00000000000000000E0,1.00000000000000000E0),.UNSPECIFIED.);
#309=DEFINITIONAL_REPRESENTATION('',(#308),#157);
#310=PCURVE('',#63,#309);
#311=CARTESIAN_POINT('',(0.00000000000000000E0,1.00000000000000000E0));
#312=CARTESIAN_POINT('',(0.00000000000000000E0,0.00000000000000000E0));
#313=B_SPLINE_CURVE_WITH_KNOTS('',1,(#311,#312),.UNSPECIFIED.,.F.,.F.,(2,2),(0.00000000000000000E0,1.00000000000000000E0),.UNSPECIFIED.);
#314=DEFINITIONAL_REPRESENTATION('',(#313),#157);
#315=PCURVE('',#63,#314);
#316=CARTESIAN_POINT('',(1.00000000000000000E0,0.00000000000000000E0));
#317=CARTESIAN_POINT('',(1.00000000000000000E0,1.00000000000000000E0));
#318=B_SPLINE_CURVE_WITH_KNOTS('',1,(#316,#317),.UNSPECIFIED.,.F.,.F.,(2,2),(0.00000000000000000E0,1.00000000000000000E0),.UNSPECIFIED.);
#319=DEFINITIONAL_REPRESENTATION('',(#318),#157);
#320=PCURVE('',#70,#319);
#321=CARTESIAN_POINT('',(1.00000000000000000E0,1.00000000000000000E0));
#322=CARTESIAN_POINT('',(0.00000000000000000E0,1.00000000000000000E0));
#323=B_SPLINE_CURVE_WITH_KNOTS('',1,(#321,#322),.UNSPECIFIED.,.F.,.F.,(2,2),(0.00000000000000000E0,1.00000000000000000E0),.UNSPECIFIED.);
#324=DEFINITIONAL_REPRESENTATION('',(#323),#157);
#325=PCURVE('',#70,#324);
#326=CARTESIAN_POINT('',(0.00000000000000000E0,1.00000000000000000E0));
#327=CARTESIAN_POINT('',(0.00000000000000000E0,0.00000000000000000E0));
#328=B_SPLINE_CURVE_WITH_KNOTS('',1,(#326,#327),.UNSPECIFIED.,.F.,.F.,(2,2),(0.00000000000000000E0,1.00000000000000000E0),.UNSPECIFIED.);
#329=DEFINITIONAL_REPRESENTATION('',(#328),#157);
#330=PCURVE('',#70,#329);
#331=CARTESIAN_POINT('',(0.00000000000000000E0,0.00000000000000000E0));
#332=CARTESIAN_POINT('',(1.00000000000000000E0,0.00000000000000000E0));
#333=B_SPLINE_CURVE_WITH_KNOTS('',1,(#331,#332),.UNSPECIFIED.,.F.,.F.,(2,2),(0.00000000000000000E0,1.00000000000000000E0),.UNSPECIFIED.);
#334=DEFINITIONAL_REPRESENTATION('',(#333),#157);
#335=PCURVE('',#70,#334);
#336=CARTESIAN_POINT('',(0.00000000000000000E0,0.00000000000000000E0));
#337=CARTESIAN_POINT('',(1.00000000000000000E0,0.00000000000000000E0));
#338=B_SPLINE_CURVE_WITH_KNOTS('',1,(#336,#337),.UNSPECIFIED.,.F.,.F.,(2,2),(0.00000000000000000E0,1.00000000000000000E0),.UNSPECIFIED.);
#339=DEFINITIONAL_REPRESENTATION('',(#338),#157);
#340=PCURVE('',#77,#339);
#341=CARTESIAN_POINT('',(1.00000000000000000E0,0.00000000000000000E0));
#342=CARTESIAN_POINT('',(1.00000000000000000E0,1.00000000000000000E0));
#343=B_SPLINE_CURVE_WITH_KNOTS('',1,(#341,#342),.UNSPECIFIED.,.F.,.F.,(2,2),(0.00000000000000000E0,1.00000000000000000E0),.UNSPECIFIED.);
#344=DEFINITIONAL_REPRESENTATION('',(#343),#157);
#345=PCURVE('',#77,#344);
#346=CARTESIAN_POINT('',(1.00000000000000000E0,1.00000000000000000E0));
#347=CARTESIAN_POINT('',(0.00000000000000000E0,1.00000000000000000E0));
#348=B_SPLINE_CURVE_WITH_KNOTS('',1,(#346,#347),.UNSPECIFIED.,.F.,.F.,(2,2),(0.00000000000000000E0,1.00000000000000000E0),.UNSPECIFIED.);
#349=DEFINITIONAL_REPRESENTATION('',(#348),#157);
#350=PCURVE('',#77,#349);
#351=CARTESIAN_POINT('',(0.00000000000000000E0,1.00000000000000000E0));
#352=CARTESIAN_POINT('',(0.00000000000000000E0,0.00000000000000000E0));
#353=B_SPLINE_CURVE_WITH_KNOTS('',1,(#351,#352),.UNSPECIFIED.,.F.,.F.,(2,2),(0.00000000000000000E0,1.00000000000000000E0),.UNSPECIFIED.);
#354=DEFINITIONAL_REPRESENTATION('',(#353),#157);
#355=PCURVE('',#77,#354);
#356=CARTESIAN_POINT('',(0.00000000000000000E0,0.00000000000000000E0));
#357=CARTESIAN_POINT('',(1.00000000000000000E0,0.00000000000000000E0));
#358=B_SPLINE_CURVE_WITH_KNOTS('',1,(#356,#357),.UNSPECIFIED.,.F.,.F.,(2,2),(0.00000000000000000E0,1.00000000000000000E0),.UNSPECIFIED.);
#359=DEFINITIONAL_REPRESENTATION('',(#358),#157);
#360=PCURVE('',#87,#359);
#361=CARTESIAN_POINT('',(1.00000000000000000E0,0.00000000000000000E0));
#362=CARTESIAN_POINT('',(1.00000000000000000E0,1.00000000000000000E0));
#363=CARTESIAN_POINT('',(0.00000000000000000E0,1.00000000000000000E0));
#364=(BOUNDED_CURVE()B_SPLINE_CURVE(2,(#361,#362,#363),.UNSPECIFIED.,.F.,.F.)B_SPLINE_CURVE_WITH_KNOTS((3,3),(0.00000000000000000E0,1.00000000000000000E0),.UNSPECIFIED.)CURVE()GEOMETRIC_REPRESENTATION_ITEM()RATIONAL_B_SPLINE_CURVE((1.00000000000000000E0,7.07106781186547573E-1,1.00000000000000000E0))REPRESENTATION_ITEM(''));
#365=DEFINITIONAL_REPRESENTATION('',(#364),#157);
#366=PCURVE('',#87,#365);
#367=CARTESIAN_POINT('',(0.00000000000000000E0,1.00000000000000000E0));
#368=CARTESIAN_POINT('',(0.00000000000000000E0,0.00000000000000000E0));
#369=B_SPLINE_CURVE_WITH_KNOTS('',1,(#367,#368),.UNSPECIFIED.,.F.,.F.,(2,2),(0.00000000000000000E0,1.00000000000000000E0),.UNSPECIFIED.);
#370=DEFINITIONAL_REPRESENTATION('',(#369),#157);
#371=PCURVE('',#87,#370);
#372=SURFACE_CURVE('',#90,(#162,#229),.PCURVE_S1.);
#373=EDGE_CURVE('OSCAD_TOPO/3|edge|e:80cb0c00fb184c5bda8c16bd5fde9782|1d73a1fc7ed066622fd3fc7076cf23fcaaa0cc818cda2214018a615ffd7fdedb',#2,#4,#372,.T.);
#374=SURFACE_CURVE('',#93,(#167,#295),.PCURVE_S1.);
#375=EDGE_CURVE('OSCAD_TOPO/3|edge|e:ad558ad86aa087a0da366e5bd657b1d5|bef90e24502d93554e2b8d524b224f7ee41088f21cceaf612b6864f7aa5d2d5d',#4,#6,#374,.T.);
#376=SURFACE_CURVE('',#97,(#173,#300),.PCURVE_S1.);
#377=EDGE_CURVE('OSCAD_TOPO/3|edge|e:238d5240d0415799a91a701d9df02743|7fb1bb77899574404c7397d90cbfc940afed01c27952e083bac40aa8c994d773',#8,#6,#376,.T.);
#378=SURFACE_CURVE('',#100,(#178,#260),.PCURVE_S1.);
#379=EDGE_CURVE('OSCAD_TOPO/3|edge|e:37ddac51ed84f93afc2b3a376a006129|633798e74a9ca683455d485dd33c88513b7b67e69327bfcab8ceb73f09ec9d6a',#10,#8,#378,.T.);
#380=SURFACE_CURVE('',#103,(#183,#234),.PCURVE_S1.);
#381=EDGE_CURVE('OSCAD_TOPO/3|edge|e:4902e2b07241f936cee31a103b4dd969|1a935dea5061d2f80783e16e78e3ab55a6f0a23baad135563f2bfd808515f660',#2,#10,#380,.T.);
#382=SURFACE_CURVE('',#106,(#188,#250),.PCURVE_S1.);
#383=EDGE_CURVE('OSCAD_TOPO/3|edge|e:7bb1295c73e559846018ea4f81a6790a|edc1fa456b9b159518fc03b2ca994b36d31334336f1550e5de52d46a8a87fda0',#12,#14,#382,.T.);
#384=SURFACE_CURVE('',#109,(#193,#330),.PCURVE_S1.);
#385=EDGE_CURVE('OSCAD_TOPO/3|edge|e:253042051478a4aeae32e005f84457e9|1293dc4442c125cacd700aa64b5170286658ef1001616087cbdcf75ec43312e0',#16,#14,#384,.T.);
#386=SURFACE_CURVE('',#112,(#198,#345),.PCURVE_S1.);
#387=EDGE_CURVE('OSCAD_TOPO/3|edge|e:421166a7c7364a9f3ac04ca1151e0f35|9c2812b816560c5b4504409e893567559ca90a789251a6ce3abad161578d9844',#16,#18,#386,.T.);
#388=SURFACE_CURVE('',#115,(#203,#213),.PCURVE_S1.);
#389=EDGE_CURVE('OSCAD_TOPO/3|edge|e:61a32f928f1f74c0202112a941692757|fc00412409b675711a6531ab5c1f2b6c029fa0f06b5bbdb8430f8c90a7b7c5ee',#12,#18,#388,.T.);
#390=SURFACE_CURVE('',#118,(#208,#255),.PCURVE_S1.);
#391=EDGE_CURVE('OSCAD_TOPO/3|edge|e:ee21e41e3d74815089aa4c3a0ec2b5ca|697c5d7ccf6d0df0d29c6ea7ee031174ef9f3429cce4f2ed69d67a48684be58c',#2,#12,#390,.T.);
#392=SURFACE_CURVE('',#122,(#219,#340),.PCURVE_S1.);
#393=EDGE_CURVE('OSCAD_TOPO/3|edge|e:3893c1e5a4060edcdab0ae05e2ddaaa0|b5c5c0890b6975ba90dc80f8a9027f33150c5a7317a9916dc934156c965f41cf',#20,#18,#392,.T.);
#394=SURFACE_CURVE('',#125,(#224,#280),.PCURVE_S1.);
#395=EDGE_CURVE('OSCAD_TOPO/3|edge|e:22be21fa86abac26bc3b82c332f58b3b|e388d70356c960a0cd4edb49871fe2cb06418fd589081deb30c91167905c4692',#4,#20,#394,.T.);
#396=SURFACE_CURVE('',#128,(#239,#275),.PCURVE_S1.);
#397=EDGE_CURVE('OSCAD_TOPO/3|edge|e:1882bbe44e51accb9cd68dc8435e7e43|124df057f648e7b4582245bbe8a90746c986e608dd2b85a5b26133b1babf8b9b',#10,#22,#396,.T.);
#398=SURFACE_CURVE('',#132,(#245,#335),.PCURVE_S1.);
#399=EDGE_CURVE('OSCAD_TOPO/3|edge|e:5905a9a6a82745d9efeef1250907f186|0d32b014d16906aa58b43f8a2c28d68f92fdedcbfe2a94f70c8349dc80c364f1',#22,#14,#398,.T.);
#400=SURFACE_CURVE('',#135,(#265,#315),.PCURVE_S1.);
#401=EDGE_CURVE('OSCAD_TOPO/3|edge|e:280769b62ac74e27ebc6972d70d642da|854eb70422db7d36b65a13a2e84035475494aa6700e97d11e4a6783f0ef5d10e',#8,#24,#400,.T.);
#402=SURFACE_CURVE('',#138,(#270,#320),.PCURVE_S1.);
#403=EDGE_CURVE('OSCAD_TOPO/3|edge|e:290ad90a172320cd3d9639668e746596|da0dc2486ff0ac5062b246896f566b41a820316f38bb533b929cc5e3c32ff714',#24,#22,#402,.T.);
#404=SURFACE_CURVE('',#141,(#285,#355),.PCURVE_S1.);
#405=EDGE_CURVE('OSCAD_TOPO/3|edge|e:8d60fd41e79a05a891d92d5a780cc9ff|a263adc92aface3947aea6c1600891d0c192fbe7c900fad0fbb9e94592387641',#26,#20,#404,.T.);
#406=SURFACE_CURVE('',#144,(#290,#305),.PCURVE_S1.);
#407=EDGE_CURVE('OSCAD_TOPO/3|edge|e:8342b73f701d8a91454914e5cc0e5965|731e149b509d94e5b2a9bd1f144473547011eb9f963162aa7c09bb10cd589189',#6,#26,#406,.T.);
#408=SURFACE_CURVE('',#148,(#310,#366),.PCURVE_S1.);
#409=EDGE_CURVE('OSCAD_TOPO/3|edge|e:3144c3d6798efe11c71dac45531e1f83|b539b4d078d55f0b820e7e79b2f50db468db523ca01229ad293284b4de42b8f5',#24,#26,#408,.T.);
#410=SURFACE_CURVE('',#152,(#325,#360),.PCURVE_S1.);
#411=EDGE_CURVE('OSCAD_TOPO/3|edge|e:e5bb8b90ba81600760b268d719fc7e35|14159b85c97a326ffa1210b2e65bd024e3f29548731c53ae28577b3c4b4a5afe',#24,#16,#410,.T.);
#412=SURFACE_CURVE('',#156,(#350,#371),.PCURVE_S1.);
#413=EDGE_CURVE('OSCAD_TOPO/3|edge|e:33231ec052bd65eda3e4876bbb39c4e5|f6b1ce11512b83e6843983cb2152cda0287eb39be3e57139c046894909384ac8',#26,#16,#412,.T.);
#414=ORIENTED_EDGE('',*,*,#373,.T.);
#415=ORIENTED_EDGE('',*,*,#375,.T.);
#416=ORIENTED_EDGE('',*,*,#377,.F.);
#417=ORIENTED_EDGE('',*,*,#379,.F.);
#418=ORIENTED_EDGE('',*,*,#381,.F.);
#419=EDGE_LOOP('OSCAD_TOPO/3|loop|l:c657d3768a926f023839e77ce0862876|c876fe86a5779d672541d0023baf7e92cffbba6d69be117728d8adef3a0bfb87',(#414,#415,#416,#417,#418));
#420=ORIENTED_EDGE('',*,*,#383,.T.);
#421=ORIENTED_EDGE('',*,*,#385,.F.);
#422=ORIENTED_EDGE('',*,*,#387,.T.);
#423=ORIENTED_EDGE('',*,*,#389,.F.);
#424=EDGE_LOOP('OSCAD_TOPO/3|loop|l:6a54f2946a7388348c0d0662c841777c|b70d9addf372131bc5363aef46a8a76cbc4ae4cf96a3b50604aeea2ef3ea8924',(#420,#421,#422,#423));
#425=ORIENTED_EDGE('',*,*,#391,.T.);
#426=ORIENTED_EDGE('',*,*,#389,.T.);
#427=ORIENTED_EDGE('',*,*,#393,.F.);
#428=ORIENTED_EDGE('',*,*,#395,.F.);
#429=ORIENTED_EDGE('',*,*,#373,.F.);
#430=EDGE_LOOP('OSCAD_TOPO/3|loop|l:4672dd69bb8642487bdc4d23a1ba51b9|fa7d229b0bb73071b638ba8d951c64c5738072d191f90574150d768c57770029',(#425,#426,#427,#428,#429));
#431=ORIENTED_EDGE('',*,*,#381,.T.);
#432=ORIENTED_EDGE('',*,*,#397,.T.);
#433=ORIENTED_EDGE('',*,*,#399,.T.);
#434=ORIENTED_EDGE('',*,*,#383,.F.);
#435=ORIENTED_EDGE('',*,*,#391,.F.);
#436=EDGE_LOOP('OSCAD_TOPO/3|loop|l:bce7001ae07b732a6334350ab4bb8fb2|97dd67e036e787dc8e67977dc4e65b2a97d373340b4cb3c540bee7cf9714bee3',(#431,#432,#433,#434,#435));
#437=ORIENTED_EDGE('',*,*,#379,.T.);
#438=ORIENTED_EDGE('',*,*,#401,.T.);
#439=ORIENTED_EDGE('',*,*,#403,.T.);
#440=ORIENTED_EDGE('',*,*,#397,.F.);
#441=EDGE_LOOP('OSCAD_TOPO/3|loop|l:3934276e6976c57ec200c2592d19a580|3ff5540aa68a5319e0fef3467d7344570c7e6d9666c6c49928c99c9a1c88e1bf',(#437,#438,#439,#440));
#442=ORIENTED_EDGE('',*,*,#395,.T.);
#443=ORIENTED_EDGE('',*,*,#405,.F.);
#444=ORIENTED_EDGE('',*,*,#407,.F.);
#445=ORIENTED_EDGE('',*,*,#375,.F.);
#446=EDGE_LOOP('OSCAD_TOPO/3|loop|l:b28f71612ffba9972ffd9b2049c0221c|048aee5e8f129b77dcf53258a249a3937482202c0c9c26453640a38aca1d43ba',(#442,#443,#444,#445));
#447=ORIENTED_EDGE('',*,*,#377,.T.);
#448=ORIENTED_EDGE('',*,*,#407,.T.);
#449=ORIENTED_EDGE('',*,*,#409,.F.);
#450=ORIENTED_EDGE('',*,*,#401,.F.);
#451=EDGE_LOOP('OSCAD_TOPO/3|loop|l:ce3985cbad34b082ba5993dd0c8f9922|56647b102b2fb8fb4b15ba254a711cd08b6570f12442fe52f3a07e132b0b77c0',(#447,#448,#449,#450));
#452=ORIENTED_EDGE('',*,*,#403,.F.);
#453=ORIENTED_EDGE('',*,*,#411,.T.);
#454=ORIENTED_EDGE('',*,*,#385,.T.);
#455=ORIENTED_EDGE('',*,*,#399,.F.);
#456=EDGE_LOOP('OSCAD_TOPO/3|loop|l:4373c7705327a5ae4a50139829f3ad56|cbc206f776512096dcc5e000ce3cf6ad241272d24db5d0608ce7f67bc6fb474c',(#452,#453,#454,#455));
#457=ORIENTED_EDGE('',*,*,#393,.T.);
#458=ORIENTED_EDGE('',*,*,#387,.F.);
#459=ORIENTED_EDGE('',*,*,#413,.F.);
#460=ORIENTED_EDGE('',*,*,#405,.T.);
#461=EDGE_LOOP('OSCAD_TOPO/3|loop|l:55c7f640e13e9407b2f5798c787c13de|abc6cf8708f71a78927e83fcb79bbd6ad6cde8ba112c51593a6f28a4ad91f5e6',(#457,#458,#459,#460));
#462=ORIENTED_EDGE('',*,*,#411,.F.);
#463=ORIENTED_EDGE('',*,*,#409,.T.);
#464=ORIENTED_EDGE('',*,*,#413,.T.);
#465=EDGE_LOOP('OSCAD_TOPO/3|loop|l:f43f855f820dd6a1846178e38d63a9d8|114ef5b9e103290e57c8feee66e27a25232fd5128a2ef5bd8e03dbd95763ab4e',(#462,#463,#464));
#466=FACE_OUTER_BOUND('',#419,.T.);
#467=ADVANCED_FACE('OSCAD_TOPO/3|face|f:580b2cc13422d00c51f30b462033aa77|1de7965f6caa7dbc08dea26d82442f58e69958e29bd2bff3ee0dba5a7913c761',(#466),#31,.T.);
#468=FACE_OUTER_BOUND('',#424,.T.);
#469=ADVANCED_FACE('OSCAD_TOPO/3|face|f:83effea592809091499a88b3e9dd7d1c|ff356eff51c3f8caa6939bc3bd8d8064c2110464cc4445025f8759f95439c4d8',(#468),#36,.T.);
#470=FACE_OUTER_BOUND('',#430,.T.);
#471=ADVANCED_FACE('OSCAD_TOPO/3|face|f:6e849d7d85af0654e5ec5380d53582ba|c66bed11ef8b006743523b549cd887842a3be96d2582eb9a43e0162507e339ce',(#470),#41,.T.);
#472=FACE_OUTER_BOUND('',#436,.T.);
#473=ADVANCED_FACE('OSCAD_TOPO/3|face|f:431fa8e95517613273b269e7704cb324|e090673affd526a4d6bebe69c21b703d018c114e2e2b9b45fd4fd29a67de3381',(#472),#46,.T.);
#474=FACE_OUTER_BOUND('',#441,.T.);
#475=ADVANCED_FACE('OSCAD_TOPO/3|face|f:593b02902a2df23ca6503cbc84ab2787|bdaa948539039a4e2233809eb4bb9a4aa399d6971f0bbff73aa7345d6925336e',(#474),#51,.T.);
#476=FACE_OUTER_BOUND('',#446,.T.);
#477=ADVANCED_FACE('OSCAD_TOPO/3|face|f:566e383206456aece60ab6a8c1afe0c4|ae99100708ca7d5e636761b0e5be2a45c5f1b714aba88442bec2229783222154',(#476),#56,.T.);
#478=FACE_OUTER_BOUND('',#451,.T.);
#479=ADVANCED_FACE('OSCAD_TOPO/3|face|f:f7abadebaba063e6fa1a8d12f098ef80|6f0345432835b6c8b1cdbefd757f81d4cfdb4bddf55b44380b1197fa2dfca8f1',(#478),#63,.T.);
#480=FACE_OUTER_BOUND('',#456,.T.);
#481=ADVANCED_FACE('OSCAD_TOPO/3|face|f:2ea0d878292c9de89bd1252d6d0cc16f|22c43856f53bb0ca6cd2916f5dd9fb6519e82d12b1f8f5dec56063dede74e8b0',(#480),#70,.T.);
#482=FACE_OUTER_BOUND('',#461,.T.);
#483=ADVANCED_FACE('OSCAD_TOPO/3|face|f:a31ba5ddd6694a708088bbf1ec566fc4|7fbc3da80501cc6a01ebcc180c10925cca810264fcd521cd40d9fa51e15bbeaf',(#482),#77,.T.);
#484=FACE_OUTER_BOUND('',#465,.T.);
#485=ADVANCED_FACE('OSCAD_TOPO/3|face|f:90704ac61469a13657bd04c8ecd35d11|0798c72147e7940a206cbd04aa9d989995f07db7f4d788108e4cf64ca5fdf530',(#484),#87,.T.);
#486=CLOSED_SHELL('OSCAD_TOPO/3|shell|s:0c2555854af9c63b2f9f1165eb289cab|ab17621227859431bb1b598698ab6581e5ba2b2a41d91ea925aa25b0cd8fb8e3',(#467,#469,#471,#473,#475,#477,#479,#481,#483,#485));
#487=MANIFOLD_SOLID_BREP('OSCAD_TOPO/3|body|b:c12181bd5511524dce9d99e9d627c346|26bd14e3e051859196e536f3821b6be82a0b571184624ff2107f7b393dcbff41',#486);
#488=(LENGTH_UNIT()NAMED_UNIT(*)SI_UNIT(.MILLI.,.METRE.));
#489=UNCERTAINTY_MEASURE_WITH_UNIT(LENGTH_MEASURE(9.99999999999999955E-8),#488,'distance_accuracy_value','');
#490=(GEOMETRIC_REPRESENTATION_CONTEXT(3)GLOBAL_UNCERTAINTY_ASSIGNED_CONTEXT((#489))GLOBAL_UNIT_ASSIGNED_CONTEXT((#488))REPRESENTATION_CONTEXT('','3D'));
#491=ADVANCED_BREP_SHAPE_REPRESENTATION('',(#487),#490);
#492=APPLICATION_CONTEXT('managed model based 3d engineering');
#493=PRODUCT_CONTEXT('',#492,'mechanical');
#494=PRODUCT('model','model','',(#493));
#495=PRODUCT_DEFINITION_FORMATION('1','',#494);
#496=PRODUCT_DEFINITION_CONTEXT('part definition',#492,'design');
#497=PRODUCT_DEFINITION('design','',#495,#496);
#498=PRODUCT_DEFINITION_SHAPE('','',#497);
#499=SHAPE_DEFINITION_REPRESENTATION(#498,#491);
ENDSEC;
END-ISO-10303-21;
