ISO-10303-21;
HEADER;
FILE_DESCRIPTION(('OpenSCAD Viewer retained AP242 B-rep'),'2;1');
FILE_NAME('model.step','',(''),(''),'OpenSCAD Viewer','OpenSCAD Viewer','');
FILE_SCHEMA(('AP242_MANAGED_MODEL_BASED_3D_ENGINEERING_MIM_LF'));
ENDSEC;
DATA;
#1=CARTESIAN_POINT('',(5.53656842888334211E0,-1.64781165873216962E0,2.22685198506785476E1));
#2=VERTEX_POINT('OSCAD_TOPO/3|vertex|v:4cb20bc6570e7db143224a09414d50bb|457ac4abbc6b612178d0781202b5f8b3c6986acb2280d53a819a50bb93d97485',#1);
#3=CARTESIAN_POINT('',(8.42949188460303844E0,-9.10643042358044852E0,2.22685198506785476E1));
#4=VERTEX_POINT('OSCAD_TOPO/3|vertex|v:9d41f699968beabcf9def3c08221b92b|22a7d1d81c42e41d1934385f0f8fdaa894b255497796ce27028275c8f85a59c7',#3);
#5=CARTESIAN_POINT('',(1.31783710369745766E1,1.31616206159200910E0,2.79971944516833631E1));
#6=VERTEX_POINT('OSCAD_TOPO/3|vertex|v:3724d938b983564da0cdaba3ccf58913|9fd1b28c1fc299ffb622ac964769f4d859b3e819467ed759cfd87ed1bf96aeb6',#5);
#7=CARTESIAN_POINT('',(8.74116841964065827E0,-4.04865374474732143E-1,1.73506317436056712E1));
#8=VERTEX_POINT('OSCAD_TOPO/3|vertex|v:5ecb15dde8882b5fc9cae32a88c4ab78|7c9b815a9aef65796e7ad3d7e7df8bea87e329a3bbed3d93a99df8101a2c61c4',#7);
#9=CARTESIAN_POINT('',(1.58802494274919930E1,-6.21655604626437253E0,2.78539775866582424E1));
#10=VERTEX_POINT('OSCAD_TOPO/3|vertex|v:b282c2d71938de9bbfcce5a0f4a47a16|215b2e07b46fdb0014c080506cf4385e5013ce4567944b142a097fe7a030bd4d',#9);
#11=CARTESIAN_POINT('',(1.59808906347030337E1,-5.90937486685475921E0,2.79971944516833631E1));
#12=VERTEX_POINT('OSCAD_TOPO/3|vertex|v:8bf5a0f44c4266594b0175bfc4d4fee7|fd6fad43da25877d434903cbd4e48deac90d41c633e33946b42a89f9239bea42',#11);
#13=CARTESIAN_POINT('',(1.89513244186344210E1,-5.02539919051766137E0,2.31410014840467362E1));
#14=VERTEX_POINT('OSCAD_TOPO/3|vertex|v:6c4c9c5d0204b2b783499398e77593bb|a9b592d37d1311d86fa331a4da52c9378f543737657bc69815a52f6a6c63a3e5',#13);
#15=CARTESIAN_POINT('',(1.90519656258454617E1,-4.71821801110804806E0,2.32842183490718568E1));
#16=VERTEX_POINT('OSCAD_TOPO/3|vertex|v:251d2bdb2a0f9d039b0f095f681e550b|b36d60835b0617f2fc83e696cee4e600f9f379174cdf790914cfca167e174301',#15);
#17=CARTESIAN_POINT('',(1.89944455602580682E1,-4.74052792560542624E0,2.29360894795853660E1));
#18=VERTEX_POINT('OSCAD_TOPO/3|vertex|v:f59e91a1f47ac0d50e89cfbcedc585e5|068d5194bcc7e20c9eaefb39cbc8459a20511ff51512898e7570dfc4154d4b28',#17);
#19=CARTESIAN_POINT('',(1.15005668757454664E1,-7.91527356783373648E0,1.75555437480670413E1));
#20=VERTEX_POINT('OSCAD_TOPO/3|vertex|v:dae495619fd06c74955993c1468659c3|3b8758e66f3e7bbee8c1523bdd2044e1121ca8da337084d503e3f1ffa900c6ab',#19);
#21=CARTESIAN_POINT('',(1.15436880173691137E1,-7.63040230292150135E0,1.73506317436056712E1));
#22=VERTEX_POINT('OSCAD_TOPO/3|vertex|v:1690cb05c01e8e175c9c0cd6a7914928|c9f4d2c0081bb172e7d9aab856d89a9b11d346efaa837b407fe9fd02e3f8f922',#21);
#23=CARTESIAN_POINT('',(1.62494460281170063E1,2.50731891733872025E0,2.32842183490718568E1));
#24=VERTEX_POINT('OSCAD_TOPO/3|vertex|v:26b11019c9e5107981a48156864163cc|84452dbaeeed530eec8878b068713d4eda85ac8af787ad7f8a0ec23f0493b881',#23);
#25=CARTESIAN_POINT('',(1.61919259625296128E1,2.48500900284134296E0,2.29360894795853660E1));
#26=VERTEX_POINT('OSCAD_TOPO/3|vertex|v:57a6775a631fae961941fb22ca7008eb|a228a74a77225aad8ef2b6b53f1c641b3f9c45c4dd2634d06d7311749e77d14d',#25);
#27=CARTESIAN_POINT('',(5.53656842888334211E0,-1.64781165873216962E0,2.22685198506785476E1));
#28=CARTESIAN_POINT('',(1.31783710369745766E1,1.31616206159200910E0,2.79971944516833631E1));
#29=CARTESIAN_POINT('',(8.42949188460303844E0,-9.10643042358044852E0,2.22685198506785476E1));
#30=CARTESIAN_POINT('',(1.60712944926942747E1,-6.14245670325626847E0,2.79971944516833631E1));
#31=B_SPLINE_SURFACE_WITH_KNOTS('',1,1,((#27,#28),(#29,#30)),.UNSPECIFIED.,.F.,.F.,.F.,(2,2),(2,2),(0.00000000000000000E0,1.00000000000000000E0),(0.00000000000000000E0,1.00000000000000000E0),.UNSPECIFIED.);
#32=CARTESIAN_POINT('',(1.16340918753603546E1,-7.86348413932300971E0,1.73506317436056712E1));
#33=CARTESIAN_POINT('',(1.92758944834515908E1,-4.89951041899883055E0,2.30793063446104867E1));
#34=CARTESIAN_POINT('',(8.74116841964065827E0,-4.04865374474732143E-1,1.73506317436056712E1));
#35=CARTESIAN_POINT('',(1.63829710277318945E1,2.55910834584944702E0,2.30793063446104867E1));
#36=B_SPLINE_SURFACE_WITH_KNOTS('',1,1,((#32,#33),(#34,#35)),.UNSPECIFIED.,.F.,.F.,.F.,(2,2),(2,2),(0.00000000000000000E0,1.00000000000000000E0),(0.00000000000000000E0,1.00000000000000000E0),.UNSPECIFIED.);
#37=CARTESIAN_POINT('',(5.53656842888334211E0,-1.64781165873216962E0,2.22685198506785476E1));
#38=CARTESIAN_POINT('',(8.74116841964065827E0,-4.04865374474732143E-1,1.73506317436056712E1));
#39=CARTESIAN_POINT('',(1.31783710369745766E1,1.31616206159200910E0,2.79971944516833631E1));
#40=CARTESIAN_POINT('',(1.63829710277318945E1,2.55910834584944702E0,2.30793063446104867E1));
#41=B_SPLINE_SURFACE_WITH_KNOTS('',1,1,((#37,#38),(#39,#40)),.UNSPECIFIED.,.F.,.F.,.F.,(2,2),(2,2),(0.00000000000000000E0,1.00000000000000000E0),(0.00000000000000000E0,1.00000000000000000E0),.UNSPECIFIED.);
#42=CARTESIAN_POINT('',(8.42949188460303844E0,-9.10643042358044852E0,2.22685198506785476E1));
#43=CARTESIAN_POINT('',(1.16340918753603546E1,-7.86348413932300971E0,1.73506317436056712E1));
#44=CARTESIAN_POINT('',(5.53656842888334211E0,-1.64781165873216962E0,2.22685198506785476E1));
#45=CARTESIAN_POINT('',(8.74116841964065827E0,-4.04865374474732143E-1,1.73506317436056712E1));
#46=B_SPLINE_SURFACE_WITH_KNOTS('',1,1,((#42,#43),(#44,#45)),.UNSPECIFIED.,.F.,.F.,.F.,(2,2),(2,2),(0.00000000000000000E0,1.00000000000000000E0),(0.00000000000000000E0,1.00000000000000000E0),.UNSPECIFIED.);
#47=CARTESIAN_POINT('',(1.60712944926942747E1,-6.14245670325626847E0,2.79971944516833631E1));
#48=CARTESIAN_POINT('',(1.92758944834515908E1,-4.89951041899883055E0,2.30793063446104867E1));
#49=CARTESIAN_POINT('',(8.42949188460303844E0,-9.10643042358044852E0,2.22685198506785476E1));
#50=CARTESIAN_POINT('',(1.16340918753603546E1,-7.86348413932300971E0,1.73506317436056712E1));
#51=B_SPLINE_SURFACE_WITH_KNOTS('',1,1,((#47,#48),(#49,#50)),.UNSPECIFIED.,.F.,.F.,.F.,(2,2),(2,2),(0.00000000000000000E0,1.00000000000000000E0),(0.00000000000000000E0,1.00000000000000000E0),.UNSPECIFIED.);
#52=CARTESIAN_POINT('',(1.31783710369745766E1,1.31616206159200910E0,2.79971944516833631E1));
#53=CARTESIAN_POINT('',(1.63829710277318945E1,2.55910834584944702E0,2.30793063446104867E1));
#54=CARTESIAN_POINT('',(1.60712944926942747E1,-6.14245670325626847E0,2.79971944516833631E1));
#55=CARTESIAN_POINT('',(1.92758944834515908E1,-4.89951041899883055E0,2.30793063446104867E1));
#56=B_SPLINE_SURFACE_WITH_KNOTS('',1,1,((#52,#53),(#54,#55)),.UNSPECIFIED.,.F.,.F.,.F.,(2,2),(2,2),(0.00000000000000000E0,1.00000000000000000E0),(0.00000000000000000E0,1.00000000000000000E0),.UNSPECIFIED.);
#57=CARTESIAN_POINT('',(1.59808906347030337E1,-5.90937486685475921E0,2.79971944516833631E1));
#58=CARTESIAN_POINT('',(1.90519656258454617E1,-4.71821801110804806E0,2.32842183490718568E1));
#59=CARTESIAN_POINT('',(1.60712944926942747E1,-6.14245670325626847E0,2.79971944516833631E1));
#60=CARTESIAN_POINT('',(1.91423694838367027E1,-4.95129984750955732E0,2.32842183490718568E1));
#61=CARTESIAN_POINT('',(1.58802494274919930E1,-6.21655604626437253E0,2.78539775866582424E1));
#62=CARTESIAN_POINT('',(1.89513244186344210E1,-5.02539919051766137E0,2.31410014840467362E1));
#63=(BOUNDED_SURFACE()B_SPLINE_SURFACE(2,1,((#57,#58),(#59,#60),(#61,#62)),.UNSPECIFIED.,.F.,.F.,.F.)B_SPLINE_SURFACE_WITH_KNOTS((3,3),(2,2),(0.00000000000000000E0,1.00000000000000000E0),(0.00000000000000000E0,1.00000000000000000E0),.UNSPECIFIED.)GEOMETRIC_REPRESENTATION_ITEM()RATIONAL_B_SPLINE_SURFACE(((1.00000000000000000E0,1.00000000000000000E0),(7.07106781186547573E-1,7.07106781186547573E-1),(1.00000000000000000E0,1.00000000000000000E0)))REPRESENTATION_ITEM('')SURFACE());
#64=CARTESIAN_POINT('',(1.15005668757454664E1,-7.91527356783373648E0,1.75555437480670413E1));
#65=CARTESIAN_POINT('',(1.89513244186344210E1,-5.02539919051766137E0,2.31410014840467362E1));
#66=CARTESIAN_POINT('',(1.16340918753603546E1,-7.86348413932300971E0,1.73506317436056712E1));
#67=CARTESIAN_POINT('',(1.90848494182493091E1,-4.97360976200693461E0,2.29360894795853660E1));
#68=CARTESIAN_POINT('',(1.15436880173691137E1,-7.63040230292150135E0,1.73506317436056712E1));
#69=CARTESIAN_POINT('',(1.89944455602580682E1,-4.74052792560542624E0,2.29360894795853660E1));
#70=(BOUNDED_SURFACE()B_SPLINE_SURFACE(2,1,((#64,#65),(#66,#67),(#68,#69)),.UNSPECIFIED.,.F.,.F.,.F.)B_SPLINE_SURFACE_WITH_KNOTS((3,3),(2,2),(0.00000000000000000E0,1.00000000000000000E0),(0.00000000000000000E0,1.00000000000000000E0),.UNSPECIFIED.)GEOMETRIC_REPRESENTATION_ITEM()RATIONAL_B_SPLINE_SURFACE(((2.00000000000000000E0,2.00000000000000000E0),(1.00000000000000000E0,1.00000000000000000E0),(1.00000000000000000E0,1.00000000000000000E0)))REPRESENTATION_ITEM('')SURFACE());
#71=CARTESIAN_POINT('',(1.61919259625296128E1,2.48500900284134296E0,2.29360894795853660E1));
#72=CARTESIAN_POINT('',(1.89944455602580682E1,-4.74052792560542624E0,2.29360894795853660E1));
#73=CARTESIAN_POINT('',(1.63829710277318945E1,2.55910834584944702E0,2.30793063446104867E1));
#74=CARTESIAN_POINT('',(1.91854906254603499E1,-4.66642858259732218E0,2.30793063446104867E1));
#75=CARTESIAN_POINT('',(1.62494460281170063E1,2.50731891733872025E0,2.32842183490718568E1));
#76=CARTESIAN_POINT('',(1.90519656258454617E1,-4.71821801110804806E0,2.32842183490718568E1));
#77=(BOUNDED_SURFACE()B_SPLINE_SURFACE(2,1,((#71,#72),(#73,#74),(#75,#76)),.UNSPECIFIED.,.F.,.F.,.F.)B_SPLINE_SURFACE_WITH_KNOTS((3,3),(2,2),(0.00000000000000000E0,1.00000000000000000E0),(0.00000000000000000E0,1.00000000000000000E0),.UNSPECIFIED.)GEOMETRIC_REPRESENTATION_ITEM()RATIONAL_B_SPLINE_SURFACE(((1.00000000000000000E0,1.00000000000000000E0),(1.00000000000000000E0,1.00000000000000000E0),(2.00000000000000000E0,2.00000000000000000E0)))REPRESENTATION_ITEM('')SURFACE());
#78=CARTESIAN_POINT('',(1.89513244186344210E1,-5.02539919051766137E0,2.31410014840467362E1));
#79=CARTESIAN_POINT('',(1.90468469512355618E1,-4.98834951901360935E0,2.32126099165592947E1));
#80=CARTESIAN_POINT('',(1.90040448429005657E1,-4.91556882588199784E0,2.33047833955506043E1));
#81=CARTESIAN_POINT('',(1.90848494182493091E1,-4.97360976200693461E0,2.29360894795853660E1));
#82=CARTESIAN_POINT('',(1.92758944834515908E1,-4.89951041899883055E0,2.30793063446104867E1));
#83=CARTESIAN_POINT('',(1.90971675548410822E1,-4.83475892930880313E0,2.32842183490718568E1));
#84=CARTESIAN_POINT('',(1.89944455602580682E1,-4.74052792560542624E0,2.29360894795853660E1));
#85=CARTESIAN_POINT('',(1.91854906254603499E1,-4.66642858259732218E0,2.30793063446104867E1));
#86=CARTESIAN_POINT('',(1.90519656258454617E1,-4.71821801110804806E0,2.32842183490718568E1));
#87=(BOUNDED_SURFACE()B_SPLINE_SURFACE(2,2,((#78,#79,#80),(#81,#82,#83),(#84,#85,#86)),.UNSPECIFIED.,.F.,.F.,.F.)B_SPLINE_SURFACE_WITH_KNOTS((3,3),(3,3),(0.00000000000000000E0,1.00000000000000000E0),(0.00000000000000000E0,1.00000000000000000E0),.UNSPECIFIED.)GEOMETRIC_REPRESENTATION_ITEM()RATIONAL_B_SPLINE_SURFACE(((2.00000000000000000E0,2.00000000000000000E0,3.00000000000000000E0),(1.00000000000000000E0,1.00000000000000000E0,2.00000000000000000E0),(1.00000000000000000E0,1.00000000000000000E0,2.00000000000000000E0)))REPRESENTATION_ITEM('')SURFACE());
#88=CARTESIAN_POINT('',(5.53656842888334211E0,-1.64781165873216962E0,2.22685198506785476E1));
#89=CARTESIAN_POINT('',(8.42949188460303844E0,-9.10643042358044852E0,2.22685198506785476E1));
#90=B_SPLINE_CURVE_WITH_KNOTS('',1,(#88,#89),.UNSPECIFIED.,.F.,.F.,(2,2),(0.00000000000000000E0,1.00000000000000000E0),.UNSPECIFIED.);
#91=CARTESIAN_POINT('',(8.42949188460303844E0,-9.10643042358044852E0,2.22685198506785476E1));
#92=CARTESIAN_POINT('',(1.58802494274919930E1,-6.21655604626437253E0,2.78539775866582424E1));
#93=B_SPLINE_CURVE_WITH_KNOTS('',1,(#91,#92),.UNSPECIFIED.,.F.,.F.,(2,2),(0.00000000000000000E0,1.00000000000000000E0),.UNSPECIFIED.);
#94=CARTESIAN_POINT('',(1.31783710369745766E1,1.31616206159200910E0,2.79971944516833631E1));
#95=CARTESIAN_POINT('',(1.59808906347030337E1,-5.90937486685475921E0,2.79971944516833631E1));
#96=B_SPLINE_CURVE_WITH_KNOTS('',1,(#94,#95),.UNSPECIFIED.,.F.,.F.,(2,2),(0.00000000000000000E0,1.00000000000000000E0),.UNSPECIFIED.);
#97=CARTESIAN_POINT('',(5.53656842888334211E0,-1.64781165873216962E0,2.22685198506785476E1));
#98=CARTESIAN_POINT('',(1.31783710369745766E1,1.31616206159200910E0,2.79971944516833631E1));
#99=B_SPLINE_CURVE_WITH_KNOTS('',1,(#97,#98),.UNSPECIFIED.,.F.,.F.,(2,2),(0.00000000000000000E0,1.00000000000000000E0),.UNSPECIFIED.);
#100=CARTESIAN_POINT('',(5.53656842888334211E0,-1.64781165873216962E0,2.22685198506785476E1));
#101=CARTESIAN_POINT('',(8.74116841964065827E0,-4.04865374474732143E-1,1.73506317436056712E1));
#102=B_SPLINE_CURVE_WITH_KNOTS('',1,(#100,#101),.UNSPECIFIED.,.F.,.F.,(2,2),(0.00000000000000000E0,1.00000000000000000E0),.UNSPECIFIED.);
#103=CARTESIAN_POINT('',(8.42949188460303844E0,-9.10643042358044852E0,2.22685198506785476E1));
#104=CARTESIAN_POINT('',(1.15005668757454664E1,-7.91527356783373648E0,1.75555437480670413E1));
#105=B_SPLINE_CURVE_WITH_KNOTS('',1,(#103,#104),.UNSPECIFIED.,.F.,.F.,(2,2),(0.00000000000000000E0,1.00000000000000000E0),.UNSPECIFIED.);
#106=CARTESIAN_POINT('',(1.89513244186344210E1,-5.02539919051766137E0,2.31410014840467362E1));
#107=CARTESIAN_POINT('',(1.15005668757454664E1,-7.91527356783373648E0,1.75555437480670413E1));
#108=B_SPLINE_CURVE_WITH_KNOTS('',1,(#106,#107),.UNSPECIFIED.,.F.,.F.,(2,2),(0.00000000000000000E0,1.00000000000000000E0),.UNSPECIFIED.);
#109=CARTESIAN_POINT('',(1.58802494274919930E1,-6.21655604626437253E0,2.78539775866582424E1));
#110=CARTESIAN_POINT('',(1.89513244186344210E1,-5.02539919051766137E0,2.31410014840467362E1));
#111=B_SPLINE_CURVE_WITH_KNOTS('',1,(#109,#110),.UNSPECIFIED.,.F.,.F.,(2,2),(0.00000000000000000E0,1.00000000000000000E0),.UNSPECIFIED.);
#112=CARTESIAN_POINT('',(1.59808906347030337E1,-5.90937486685475921E0,2.79971944516833631E1));
#113=CARTESIAN_POINT('',(1.90519656258454617E1,-4.71821801110804806E0,2.32842183490718568E1));
#114=B_SPLINE_CURVE_WITH_KNOTS('',1,(#112,#113),.UNSPECIFIED.,.F.,.F.,(2,2),(0.00000000000000000E0,1.00000000000000000E0),.UNSPECIFIED.);
#115=CARTESIAN_POINT('',(1.31783710369745766E1,1.31616206159200910E0,2.79971944516833631E1));
#116=CARTESIAN_POINT('',(1.62494460281170063E1,2.50731891733872025E0,2.32842183490718568E1));
#117=B_SPLINE_CURVE_WITH_KNOTS('',1,(#115,#116),.UNSPECIFIED.,.F.,.F.,(2,2),(0.00000000000000000E0,1.00000000000000000E0),.UNSPECIFIED.);
#118=CARTESIAN_POINT('',(1.90519656258454617E1,-4.71821801110804806E0,2.32842183490718568E1));
#119=CARTESIAN_POINT('',(1.62494460281170063E1,2.50731891733872025E0,2.32842183490718568E1));
#120=B_SPLINE_CURVE_WITH_KNOTS('',1,(#118,#119),.UNSPECIFIED.,.F.,.F.,(2,2),(0.00000000000000000E0,1.00000000000000000E0),.UNSPECIFIED.);
#121=CARTESIAN_POINT('',(8.74116841964065827E0,-4.04865374474732143E-1,1.73506317436056712E1));
#122=CARTESIAN_POINT('',(1.15436880173691137E1,-7.63040230292150135E0,1.73506317436056712E1));
#123=B_SPLINE_CURVE_WITH_KNOTS('',1,(#121,#122),.UNSPECIFIED.,.F.,.F.,(2,2),(0.00000000000000000E0,1.00000000000000000E0),.UNSPECIFIED.);
#124=CARTESIAN_POINT('',(1.89944455602580682E1,-4.74052792560542624E0,2.29360894795853660E1));
#125=CARTESIAN_POINT('',(1.15436880173691137E1,-7.63040230292150135E0,1.73506317436056712E1));
#126=B_SPLINE_CURVE_WITH_KNOTS('',1,(#124,#125),.UNSPECIFIED.,.F.,.F.,(2,2),(0.00000000000000000E0,1.00000000000000000E0),.UNSPECIFIED.);
#127=CARTESIAN_POINT('',(8.74116841964065827E0,-4.04865374474732143E-1,1.73506317436056712E1));
#128=CARTESIAN_POINT('',(1.61919259625296128E1,2.48500900284134296E0,2.29360894795853660E1));
#129=B_SPLINE_CURVE_WITH_KNOTS('',1,(#127,#128),.UNSPECIFIED.,.F.,.F.,(2,2),(0.00000000000000000E0,1.00000000000000000E0),.UNSPECIFIED.);
#130=CARTESIAN_POINT('',(1.89944455602580682E1,-4.74052792560542624E0,2.29360894795853660E1));
#131=CARTESIAN_POINT('',(1.61919259625296128E1,2.48500900284134296E0,2.29360894795853660E1));
#132=B_SPLINE_CURVE_WITH_KNOTS('',1,(#130,#131),.UNSPECIFIED.,.F.,.F.,(2,2),(0.00000000000000000E0,1.00000000000000000E0),.UNSPECIFIED.);
#133=CARTESIAN_POINT('',(1.58802494274919930E1,-6.21655604626437253E0,2.78539775866582424E1));
#134=CARTESIAN_POINT('',(1.60712944926942747E1,-6.14245670325626847E0,2.79971944516833631E1));
#135=CARTESIAN_POINT('',(1.59808906347030337E1,-5.90937486685475921E0,2.79971944516833631E1));
#136=(BOUNDED_CURVE()B_SPLINE_CURVE(2,(#133,#134,#135),.UNSPECIFIED.,.F.,.F.)B_SPLINE_CURVE_WITH_KNOTS((3,3),(0.00000000000000000E0,1.00000000000000000E0),.UNSPECIFIED.)CURVE()GEOMETRIC_REPRESENTATION_ITEM()RATIONAL_B_SPLINE_CURVE((1.00000000000000000E0,7.07106781186547573E-1,1.00000000000000000E0))REPRESENTATION_ITEM(''));
#137=CARTESIAN_POINT('',(1.89513244186344210E1,-5.02539919051766137E0,2.31410014840467362E1));
#138=CARTESIAN_POINT('',(1.91423694838367027E1,-4.95129984750955732E0,2.32842183490718568E1));
#139=CARTESIAN_POINT('',(1.90519656258454617E1,-4.71821801110804806E0,2.32842183490718568E1));
#140=(BOUNDED_CURVE()B_SPLINE_CURVE(2,(#137,#138,#139),.UNSPECIFIED.,.F.,.F.)B_SPLINE_CURVE_WITH_KNOTS((3,3),(0.00000000000000000E0,1.00000000000000000E0),.UNSPECIFIED.)CURVE()GEOMETRIC_REPRESENTATION_ITEM()RATIONAL_B_SPLINE_CURVE((1.00000000000000000E0,7.07106781186547573E-1,1.00000000000000000E0))REPRESENTATION_ITEM(''));
#141=CARTESIAN_POINT('',(1.89513244186344210E1,-5.02539919051766137E0,2.31410014840467362E1));
#142=CARTESIAN_POINT('',(1.90848494182493091E1,-4.97360976200693461E0,2.29360894795853660E1));
#143=CARTESIAN_POINT('',(1.89944455602580682E1,-4.74052792560542624E0,2.29360894795853660E1));
#144=(BOUNDED_CURVE()B_SPLINE_CURVE(2,(#141,#142,#143),.UNSPECIFIED.,.F.,.F.)B_SPLINE_CURVE_WITH_KNOTS((3,3),(0.00000000000000000E0,1.00000000000000000E0),.UNSPECIFIED.)CURVE()GEOMETRIC_REPRESENTATION_ITEM()RATIONAL_B_SPLINE_CURVE((2.00000000000000000E0,1.00000000000000000E0,1.00000000000000000E0))REPRESENTATION_ITEM(''));
#145=CARTESIAN_POINT('',(1.90519656258454617E1,-4.71821801110804806E0,2.32842183490718568E1));
#146=CARTESIAN_POINT('',(1.91854906254603499E1,-4.66642858259732218E0,2.30793063446104867E1));
#147=CARTESIAN_POINT('',(1.89944455602580682E1,-4.74052792560542624E0,2.29360894795853660E1));
#148=(BOUNDED_CURVE()B_SPLINE_CURVE(2,(#145,#146,#147),.UNSPECIFIED.,.F.,.F.)B_SPLINE_CURVE_WITH_KNOTS((3,3),(0.00000000000000000E0,1.00000000000000000E0),.UNSPECIFIED.)CURVE()GEOMETRIC_REPRESENTATION_ITEM()RATIONAL_B_SPLINE_CURVE((2.00000000000000000E0,1.00000000000000000E0,1.00000000000000000E0))REPRESENTATION_ITEM(''));
#149=CARTESIAN_POINT('',(1.15005668757454664E1,-7.91527356783373648E0,1.75555437480670413E1));
#150=CARTESIAN_POINT('',(1.16340918753603546E1,-7.86348413932300971E0,1.73506317436056712E1));
#151=CARTESIAN_POINT('',(1.15436880173691137E1,-7.63040230292150135E0,1.73506317436056712E1));
#152=(BOUNDED_CURVE()B_SPLINE_CURVE(2,(#149,#150,#151),.UNSPECIFIED.,.F.,.F.)B_SPLINE_CURVE_WITH_KNOTS((3,3),(0.00000000000000000E0,1.00000000000000000E0),.UNSPECIFIED.)CURVE()GEOMETRIC_REPRESENTATION_ITEM()RATIONAL_B_SPLINE_CURVE((2.00000000000000000E0,1.00000000000000000E0,1.00000000000000000E0))REPRESENTATION_ITEM(''));
#153=CARTESIAN_POINT('',(1.62494460281170063E1,2.50731891733872025E0,2.32842183490718568E1));
#154=CARTESIAN_POINT('',(1.63829710277318945E1,2.55910834584944702E0,2.30793063446104867E1));
#155=CARTESIAN_POINT('',(1.61919259625296128E1,2.48500900284134296E0,2.29360894795853660E1));
#156=(BOUNDED_CURVE()B_SPLINE_CURVE(2,(#153,#154,#155),.UNSPECIFIED.,.F.,.F.)B_SPLINE_CURVE_WITH_KNOTS((3,3),(0.00000000000000000E0,1.00000000000000000E0),.UNSPECIFIED.)CURVE()GEOMETRIC_REPRESENTATION_ITEM()RATIONAL_B_SPLINE_CURVE((2.00000000000000000E0,1.00000000000000000E0,1.00000000000000000E0))REPRESENTATION_ITEM(''));
#157=(GEOMETRIC_REPRESENTATION_CONTEXT(2)REPRESENTATION_CONTEXT('','2D'));
#158=CARTESIAN_POINT('',(0.00000000000000000E0,0.00000000000000000E0));
#159=CARTESIAN_POINT('',(1.00000000000000000E0,0.00000000000000000E0));
#160=B_SPLINE_CURVE_WITH_KNOTS('',1,(#158,#159),.UNSPECIFIED.,.F.,.F.,(2,2),(0.00000000000000000E0,1.00000000000000000E0),.UNSPECIFIED.);
#161=DEFINITIONAL_REPRESENTATION('',(#160),#157);
#162=PCURVE('',#31,#161);
#163=CARTESIAN_POINT('',(1.00000000000000000E0,0.00000000000000000E0));
#164=CARTESIAN_POINT('',(1.00000000000000000E0,9.74999999999999978E-1));
#165=B_SPLINE_CURVE_WITH_KNOTS('',1,(#163,#164),.UNSPECIFIED.,.F.,.F.,(2,2),(0.00000000000000000E0,1.00000000000000000E0),.UNSPECIFIED.);
#166=DEFINITIONAL_REPRESENTATION('',(#165),#157);
#167=PCURVE('',#31,#166);
#168=CARTESIAN_POINT('',(1.00000000000000000E0,9.74999999999999978E-1));
#169=CARTESIAN_POINT('',(1.00000000000000000E0,1.00000000000000000E0));
#170=CARTESIAN_POINT('',(9.68750000000000000E-1,1.00000000000000000E0));
#171=(BOUNDED_CURVE()B_SPLINE_CURVE(2,(#168,#169,#170),.UNSPECIFIED.,.F.,.F.)B_SPLINE_CURVE_WITH_KNOTS((3,3),(0.00000000000000000E0,1.00000000000000000E0),.UNSPECIFIED.)CURVE()GEOMETRIC_REPRESENTATION_ITEM()RATIONAL_B_SPLINE_CURVE((1.00000000000000000E0,7.07106781186547573E-1,1.00000000000000000E0))REPRESENTATION_ITEM(''));
#172=DEFINITIONAL_REPRESENTATION('',(#171),#157);
#173=PCURVE('',#31,#172);
#174=CARTESIAN_POINT('',(9.68750000000000000E-1,1.00000000000000000E0));
#175=CARTESIAN_POINT('',(0.00000000000000000E0,1.00000000000000000E0));
#176=B_SPLINE_CURVE_WITH_KNOTS('',1,(#174,#175),.UNSPECIFIED.,.F.,.F.,(2,2),(0.00000000000000000E0,1.00000000000000000E0),.UNSPECIFIED.);
#177=DEFINITIONAL_REPRESENTATION('',(#176),#157);
#178=PCURVE('',#31,#177);
#179=CARTESIAN_POINT('',(0.00000000000000000E0,1.00000000000000000E0));
#180=CARTESIAN_POINT('',(0.00000000000000000E0,0.00000000000000000E0));
#181=B_SPLINE_CURVE_WITH_KNOTS('',1,(#179,#180),.UNSPECIFIED.,.F.,.F.,(2,2),(0.00000000000000000E0,1.00000000000000000E0),.UNSPECIFIED.);
#182=DEFINITIONAL_REPRESENTATION('',(#181),#157);
#183=PCURVE('',#31,#182);
#184=CARTESIAN_POINT('',(1.00000000000000000E0,0.00000000000000000E0));
#185=CARTESIAN_POINT('',(1.00000000000000000E0,9.74999999999999978E-1));
#186=B_SPLINE_CURVE_WITH_KNOTS('',1,(#184,#185),.UNSPECIFIED.,.F.,.F.,(2,2),(0.00000000000000000E0,1.00000000000000000E0),.UNSPECIFIED.);
#187=DEFINITIONAL_REPRESENTATION('',(#186),#157);
#188=PCURVE('',#36,#187);
#189=CARTESIAN_POINT('',(1.00000000000000000E0,9.74999999999999978E-1));
#190=CARTESIAN_POINT('',(3.12500000000000000E-2,9.74999999999999978E-1));
#191=B_SPLINE_CURVE_WITH_KNOTS('',1,(#189,#190),.UNSPECIFIED.,.F.,.F.,(2,2),(0.00000000000000000E0,1.00000000000000000E0),.UNSPECIFIED.);
#192=DEFINITIONAL_REPRESENTATION('',(#191),#157);
#193=PCURVE('',#36,#192);
#194=CARTESIAN_POINT('',(3.12500000000000000E-2,9.74999999999999978E-1));
#195=CARTESIAN_POINT('',(3.12500000000000000E-2,0.00000000000000000E0));
#196=B_SPLINE_CURVE_WITH_KNOTS('',1,(#194,#195),.UNSPECIFIED.,.F.,.F.,(2,2),(0.00000000000000000E0,1.00000000000000000E0),.UNSPECIFIED.);
#197=DEFINITIONAL_REPRESENTATION('',(#196),#157);
#198=PCURVE('',#36,#197);
#199=CARTESIAN_POINT('',(3.12500000000000000E-2,0.00000000000000000E0));
#200=CARTESIAN_POINT('',(1.00000000000000000E0,0.00000000000000000E0));
#201=B_SPLINE_CURVE_WITH_KNOTS('',1,(#199,#200),.UNSPECIFIED.,.F.,.F.,(2,2),(0.00000000000000000E0,1.00000000000000000E0),.UNSPECIFIED.);
#202=DEFINITIONAL_REPRESENTATION('',(#201),#157);
#203=PCURVE('',#36,#202);
#204=CARTESIAN_POINT('',(0.00000000000000000E0,0.00000000000000000E0));
#205=CARTESIAN_POINT('',(1.00000000000000000E0,0.00000000000000000E0));
#206=B_SPLINE_CURVE_WITH_KNOTS('',1,(#204,#205),.UNSPECIFIED.,.F.,.F.,(2,2),(0.00000000000000000E0,1.00000000000000000E0),.UNSPECIFIED.);
#207=DEFINITIONAL_REPRESENTATION('',(#206),#157);
#208=PCURVE('',#41,#207);
#209=CARTESIAN_POINT('',(1.00000000000000000E0,0.00000000000000000E0));
#210=CARTESIAN_POINT('',(1.00000000000000000E0,9.58333333333333370E-1));
#211=B_SPLINE_CURVE_WITH_KNOTS('',1,(#209,#210),.UNSPECIFIED.,.F.,.F.,(2,2),(0.00000000000000000E0,1.00000000000000000E0),.UNSPECIFIED.);
#212=DEFINITIONAL_REPRESENTATION('',(#211),#157);
#213=PCURVE('',#41,#212);
#214=CARTESIAN_POINT('',(1.00000000000000000E0,9.58333333333333370E-1));
#215=CARTESIAN_POINT('',(1.00000000000000000E0,1.00000000000000000E0));
#216=CARTESIAN_POINT('',(9.74999999999999978E-1,1.00000000000000000E0));
#217=(BOUNDED_CURVE()B_SPLINE_CURVE(2,(#214,#215,#216),.UNSPECIFIED.,.F.,.F.)B_SPLINE_CURVE_WITH_KNOTS((3,3),(0.00000000000000000E0,1.00000000000000000E0),.UNSPECIFIED.)CURVE()GEOMETRIC_REPRESENTATION_ITEM()RATIONAL_B_SPLINE_CURVE((2.00000000000000000E0,1.00000000000000000E0,1.00000000000000000E0))REPRESENTATION_ITEM(''));
#218=DEFINITIONAL_REPRESENTATION('',(#217),#157);
#219=PCURVE('',#41,#218);
#220=CARTESIAN_POINT('',(9.74999999999999978E-1,1.00000000000000000E0));
#221=CARTESIAN_POINT('',(0.00000000000000000E0,1.00000000000000000E0));
#222=B_SPLINE_CURVE_WITH_KNOTS('',1,(#220,#221),.UNSPECIFIED.,.F.,.F.,(2,2),(0.00000000000000000E0,1.00000000000000000E0),.UNSPECIFIED.);
#223=DEFINITIONAL_REPRESENTATION('',(#222),#157);
#224=PCURVE('',#41,#223);
#225=CARTESIAN_POINT('',(0.00000000000000000E0,1.00000000000000000E0));
#226=CARTESIAN_POINT('',(0.00000000000000000E0,0.00000000000000000E0));
#227=B_SPLINE_CURVE_WITH_KNOTS('',1,(#225,#226),.UNSPECIFIED.,.F.,.F.,(2,2),(0.00000000000000000E0,1.00000000000000000E0),.UNSPECIFIED.);
#228=DEFINITIONAL_REPRESENTATION('',(#227),#157);
#229=PCURVE('',#41,#228);
#230=CARTESIAN_POINT('',(1.00000000000000000E0,0.00000000000000000E0));
#231=CARTESIAN_POINT('',(1.00000000000000000E0,1.00000000000000000E0));
#232=B_SPLINE_CURVE_WITH_KNOTS('',1,(#230,#231),.UNSPECIFIED.,.F.,.F.,(2,2),(0.00000000000000000E0,1.00000000000000000E0),.UNSPECIFIED.);
#233=DEFINITIONAL_REPRESENTATION('',(#232),#157);
#234=PCURVE('',#46,#233);
#235=CARTESIAN_POINT('',(1.00000000000000000E0,1.00000000000000000E0));
#236=CARTESIAN_POINT('',(3.12500000000000000E-2,1.00000000000000000E0));
#237=B_SPLINE_CURVE_WITH_KNOTS('',1,(#235,#236),.UNSPECIFIED.,.F.,.F.,(2,2),(0.00000000000000000E0,1.00000000000000000E0),.UNSPECIFIED.);
#238=DEFINITIONAL_REPRESENTATION('',(#237),#157);
#239=PCURVE('',#46,#238);
#240=CARTESIAN_POINT('',(3.12500000000000000E-2,1.00000000000000000E0));
#241=CARTESIAN_POINT('',(0.00000000000000000E0,1.00000000000000000E0));
#242=CARTESIAN_POINT('',(0.00000000000000000E0,9.58333333333333370E-1));
#243=(BOUNDED_CURVE()B_SPLINE_CURVE(2,(#240,#241,#242),.UNSPECIFIED.,.F.,.F.)B_SPLINE_CURVE_WITH_KNOTS((3,3),(0.00000000000000000E0,1.00000000000000000E0),.UNSPECIFIED.)CURVE()GEOMETRIC_REPRESENTATION_ITEM()RATIONAL_B_SPLINE_CURVE((1.00000000000000000E0,1.00000000000000000E0,2.00000000000000000E0))REPRESENTATION_ITEM(''));
#244=DEFINITIONAL_REPRESENTATION('',(#243),#157);
#245=PCURVE('',#46,#244);
#246=CARTESIAN_POINT('',(0.00000000000000000E0,9.58333333333333370E-1));
#247=CARTESIAN_POINT('',(0.00000000000000000E0,0.00000000000000000E0));
#248=B_SPLINE_CURVE_WITH_KNOTS('',1,(#246,#247),.UNSPECIFIED.,.F.,.F.,(2,2),(0.00000000000000000E0,1.00000000000000000E0),.UNSPECIFIED.);
#249=DEFINITIONAL_REPRESENTATION('',(#248),#157);
#250=PCURVE('',#46,#249);
#251=CARTESIAN_POINT('',(0.00000000000000000E0,0.00000000000000000E0));
#252=CARTESIAN_POINT('',(1.00000000000000000E0,0.00000000000000000E0));
#253=B_SPLINE_CURVE_WITH_KNOTS('',1,(#251,#252),.UNSPECIFIED.,.F.,.F.,(2,2),(0.00000000000000000E0,1.00000000000000000E0),.UNSPECIFIED.);
#254=DEFINITIONAL_REPRESENTATION('',(#253),#157);
#255=PCURVE('',#46,#254);
#256=CARTESIAN_POINT('',(1.00000000000000000E0,0.00000000000000000E0));
#257=CARTESIAN_POINT('',(1.00000000000000000E0,9.58333333333333370E-1));
#258=B_SPLINE_CURVE_WITH_KNOTS('',1,(#256,#257),.UNSPECIFIED.,.F.,.F.,(2,2),(0.00000000000000000E0,1.00000000000000000E0),.UNSPECIFIED.);
#259=DEFINITIONAL_REPRESENTATION('',(#258),#157);
#260=PCURVE('',#51,#259);
#261=CARTESIAN_POINT('',(1.00000000000000000E0,9.58333333333333370E-1));
#262=CARTESIAN_POINT('',(2.50000000000000222E-2,9.58333333333333370E-1));
#263=B_SPLINE_CURVE_WITH_KNOTS('',1,(#261,#262),.UNSPECIFIED.,.F.,.F.,(2,2),(0.00000000000000000E0,1.00000000000000000E0),.UNSPECIFIED.);
#264=DEFINITIONAL_REPRESENTATION('',(#263),#157);
#265=PCURVE('',#51,#264);
#266=CARTESIAN_POINT('',(2.50000000000000222E-2,9.58333333333333370E-1));
#267=CARTESIAN_POINT('',(2.50000000000000222E-2,0.00000000000000000E0));
#268=B_SPLINE_CURVE_WITH_KNOTS('',1,(#266,#267),.UNSPECIFIED.,.F.,.F.,(2,2),(0.00000000000000000E0,1.00000000000000000E0),.UNSPECIFIED.);
#269=DEFINITIONAL_REPRESENTATION('',(#268),#157);
#270=PCURVE('',#51,#269);
#271=CARTESIAN_POINT('',(2.50000000000000222E-2,0.00000000000000000E0));
#272=CARTESIAN_POINT('',(1.00000000000000000E0,0.00000000000000000E0));
#273=B_SPLINE_CURVE_WITH_KNOTS('',1,(#271,#272),.UNSPECIFIED.,.F.,.F.,(2,2),(0.00000000000000000E0,1.00000000000000000E0),.UNSPECIFIED.);
#274=DEFINITIONAL_REPRESENTATION('',(#273),#157);
#275=PCURVE('',#51,#274);
#276=CARTESIAN_POINT('',(0.00000000000000000E0,0.00000000000000000E0));
#277=CARTESIAN_POINT('',(9.68750000000000000E-1,0.00000000000000000E0));
#278=B_SPLINE_CURVE_WITH_KNOTS('',1,(#276,#277),.UNSPECIFIED.,.F.,.F.,(2,2),(0.00000000000000000E0,1.00000000000000000E0),.UNSPECIFIED.);
#279=DEFINITIONAL_REPRESENTATION('',(#278),#157);
#280=PCURVE('',#56,#279);
#281=CARTESIAN_POINT('',(9.68750000000000000E-1,0.00000000000000000E0));
#282=CARTESIAN_POINT('',(9.68750000000000000E-1,9.58333333333333370E-1));
#283=B_SPLINE_CURVE_WITH_KNOTS('',1,(#281,#282),.UNSPECIFIED.,.F.,.F.,(2,2),(0.00000000000000000E0,1.00000000000000000E0),.UNSPECIFIED.);
#284=DEFINITIONAL_REPRESENTATION('',(#283),#157);
#285=PCURVE('',#56,#284);
#286=CARTESIAN_POINT('',(9.68750000000000000E-1,9.58333333333333370E-1));
#287=CARTESIAN_POINT('',(0.00000000000000000E0,9.58333333333333370E-1));
#288=B_SPLINE_CURVE_WITH_KNOTS('',1,(#286,#287),.UNSPECIFIED.,.F.,.F.,(2,2),(0.00000000000000000E0,1.00000000000000000E0),.UNSPECIFIED.);
#289=DEFINITIONAL_REPRESENTATION('',(#288),#157);
#290=PCURVE('',#56,#289);
#291=CARTESIAN_POINT('',(0.00000000000000000E0,9.58333333333333370E-1));
#292=CARTESIAN_POINT('',(0.00000000000000000E0,0.00000000000000000E0));
#293=B_SPLINE_CURVE_WITH_KNOTS('',1,(#291,#292),.UNSPECIFIED.,.F.,.F.,(2,2),(0.00000000000000000E0,1.00000000000000000E0),.UNSPECIFIED.);
#294=DEFINITIONAL_REPRESENTATION('',(#293),#157);
#295=PCURVE('',#56,#294);
#296=CARTESIAN_POINT('',(1.00000000000000000E0,0.00000000000000000E0));
#297=CARTESIAN_POINT('',(1.00000000000000000E0,1.00000000000000000E0));
#298=B_SPLINE_CURVE_WITH_KNOTS('',1,(#296,#297),.UNSPECIFIED.,.F.,.F.,(2,2),(0.00000000000000000E0,1.00000000000000000E0),.UNSPECIFIED.);
#299=DEFINITIONAL_REPRESENTATION('',(#298),#157);
#300=PCURVE('',#63,#299);
#301=CARTESIAN_POINT('',(1.00000000000000000E0,1.00000000000000000E0));
#302=CARTESIAN_POINT('',(0.00000000000000000E0,1.00000000000000000E0));
#303=B_SPLINE_CURVE_WITH_KNOTS('',1,(#301,#302),.UNSPECIFIED.,.F.,.F.,(2,2),(0.00000000000000000E0,1.00000000000000000E0),.UNSPECIFIED.);
#304=DEFINITIONAL_REPRESENTATION('',(#303),#157);
#305=PCURVE('',#63,#304);
#306=CARTESIAN_POINT('',(0.00000000000000000E0,1.00000000000000000E0));
#307=CARTESIAN_POINT('',(0.00000000000000000E0,0.00000000000000000E0));
#308=B_SPLINE_CURVE_WITH_KNOTS('',1,(#306,#307),.UNSPECIFIED.,.F.,.F.,(2,2),(0.00000000000000000E0,1.00000000000000000E0),.UNSPECIFIED.);
#309=DEFINITIONAL_REPRESENTATION('',(#308),#157);
#310=PCURVE('',#63,#309);
#311=CARTESIAN_POINT('',(0.00000000000000000E0,0.00000000000000000E0));
#312=CARTESIAN_POINT('',(1.00000000000000000E0,0.00000000000000000E0));
#313=B_SPLINE_CURVE_WITH_KNOTS('',1,(#311,#312),.UNSPECIFIED.,.F.,.F.,(2,2),(0.00000000000000000E0,1.00000000000000000E0),.UNSPECIFIED.);
#314=DEFINITIONAL_REPRESENTATION('',(#313),#157);
#315=PCURVE('',#63,#314);
#316=CARTESIAN_POINT('',(0.00000000000000000E0,0.00000000000000000E0));
#317=CARTESIAN_POINT('',(1.00000000000000000E0,0.00000000000000000E0));
#318=B_SPLINE_CURVE_WITH_KNOTS('',1,(#316,#317),.UNSPECIFIED.,.F.,.F.,(2,2),(0.00000000000000000E0,1.00000000000000000E0),.UNSPECIFIED.);
#319=DEFINITIONAL_REPRESENTATION('',(#318),#157);
#320=PCURVE('',#70,#319);
#321=CARTESIAN_POINT('',(1.00000000000000000E0,0.00000000000000000E0));
#322=CARTESIAN_POINT('',(1.00000000000000000E0,1.00000000000000000E0));
#323=B_SPLINE_CURVE_WITH_KNOTS('',1,(#321,#322),.UNSPECIFIED.,.F.,.F.,(2,2),(0.00000000000000000E0,1.00000000000000000E0),.UNSPECIFIED.);
#324=DEFINITIONAL_REPRESENTATION('',(#323),#157);
#325=PCURVE('',#70,#324);
#326=CARTESIAN_POINT('',(1.00000000000000000E0,1.00000000000000000E0));
#327=CARTESIAN_POINT('',(0.00000000000000000E0,1.00000000000000000E0));
#328=B_SPLINE_CURVE_WITH_KNOTS('',1,(#326,#327),.UNSPECIFIED.,.F.,.F.,(2,2),(0.00000000000000000E0,1.00000000000000000E0),.UNSPECIFIED.);
#329=DEFINITIONAL_REPRESENTATION('',(#328),#157);
#330=PCURVE('',#70,#329);
#331=CARTESIAN_POINT('',(0.00000000000000000E0,1.00000000000000000E0));
#332=CARTESIAN_POINT('',(0.00000000000000000E0,0.00000000000000000E0));
#333=B_SPLINE_CURVE_WITH_KNOTS('',1,(#331,#332),.UNSPECIFIED.,.F.,.F.,(2,2),(0.00000000000000000E0,1.00000000000000000E0),.UNSPECIFIED.);
#334=DEFINITIONAL_REPRESENTATION('',(#333),#157);
#335=PCURVE('',#70,#334);
#336=CARTESIAN_POINT('',(1.00000000000000000E0,0.00000000000000000E0));
#337=CARTESIAN_POINT('',(1.00000000000000000E0,1.00000000000000000E0));
#338=B_SPLINE_CURVE_WITH_KNOTS('',1,(#336,#337),.UNSPECIFIED.,.F.,.F.,(2,2),(0.00000000000000000E0,1.00000000000000000E0),.UNSPECIFIED.);
#339=DEFINITIONAL_REPRESENTATION('',(#338),#157);
#340=PCURVE('',#77,#339);
#341=CARTESIAN_POINT('',(1.00000000000000000E0,1.00000000000000000E0));
#342=CARTESIAN_POINT('',(0.00000000000000000E0,1.00000000000000000E0));
#343=B_SPLINE_CURVE_WITH_KNOTS('',1,(#341,#342),.UNSPECIFIED.,.F.,.F.,(2,2),(0.00000000000000000E0,1.00000000000000000E0),.UNSPECIFIED.);
#344=DEFINITIONAL_REPRESENTATION('',(#343),#157);
#345=PCURVE('',#77,#344);
#346=CARTESIAN_POINT('',(0.00000000000000000E0,1.00000000000000000E0));
#347=CARTESIAN_POINT('',(0.00000000000000000E0,0.00000000000000000E0));
#348=B_SPLINE_CURVE_WITH_KNOTS('',1,(#346,#347),.UNSPECIFIED.,.F.,.F.,(2,2),(0.00000000000000000E0,1.00000000000000000E0),.UNSPECIFIED.);
#349=DEFINITIONAL_REPRESENTATION('',(#348),#157);
#350=PCURVE('',#77,#349);
#351=CARTESIAN_POINT('',(0.00000000000000000E0,0.00000000000000000E0));
#352=CARTESIAN_POINT('',(1.00000000000000000E0,0.00000000000000000E0));
#353=B_SPLINE_CURVE_WITH_KNOTS('',1,(#351,#352),.UNSPECIFIED.,.F.,.F.,(2,2),(0.00000000000000000E0,1.00000000000000000E0),.UNSPECIFIED.);
#354=DEFINITIONAL_REPRESENTATION('',(#353),#157);
#355=PCURVE('',#77,#354);
#356=CARTESIAN_POINT('',(1.00000000000000000E0,0.00000000000000000E0));
#357=CARTESIAN_POINT('',(1.00000000000000000E0,1.00000000000000000E0));
#358=B_SPLINE_CURVE_WITH_KNOTS('',1,(#356,#357),.UNSPECIFIED.,.F.,.F.,(2,2),(0.00000000000000000E0,1.00000000000000000E0),.UNSPECIFIED.);
#359=DEFINITIONAL_REPRESENTATION('',(#358),#157);
#360=PCURVE('',#87,#359);
#361=CARTESIAN_POINT('',(1.00000000000000000E0,1.00000000000000000E0));
#362=CARTESIAN_POINT('',(0.00000000000000000E0,1.00000000000000000E0));
#363=CARTESIAN_POINT('',(0.00000000000000000E0,0.00000000000000000E0));
#364=(BOUNDED_CURVE()B_SPLINE_CURVE(2,(#361,#362,#363),.UNSPECIFIED.,.F.,.F.)B_SPLINE_CURVE_WITH_KNOTS((3,3),(0.00000000000000000E0,1.00000000000000000E0),.UNSPECIFIED.)CURVE()GEOMETRIC_REPRESENTATION_ITEM()RATIONAL_B_SPLINE_CURVE((1.00000000000000000E0,7.07106781186547573E-1,1.00000000000000000E0))REPRESENTATION_ITEM(''));
#365=DEFINITIONAL_REPRESENTATION('',(#364),#157);
#366=PCURVE('',#87,#365);
#367=CARTESIAN_POINT('',(0.00000000000000000E0,0.00000000000000000E0));
#368=CARTESIAN_POINT('',(1.00000000000000000E0,0.00000000000000000E0));
#369=B_SPLINE_CURVE_WITH_KNOTS('',1,(#367,#368),.UNSPECIFIED.,.F.,.F.,(2,2),(0.00000000000000000E0,1.00000000000000000E0),.UNSPECIFIED.);
#370=DEFINITIONAL_REPRESENTATION('',(#369),#157);
#371=PCURVE('',#87,#370);
#372=SURFACE_CURVE('',#90,(#162,#255),.PCURVE_S1.);
#373=EDGE_CURVE('OSCAD_TOPO/3|edge|e:1fa0a5ee118259ebefdc8899f1485fd7|8bb730ac69c44cfa95fbcb62d0c7fb9eb397511d51d8e0292d9e8105d2cca680',#2,#4,#372,.T.);
#374=SURFACE_CURVE('',#93,(#167,#275),.PCURVE_S1.);
#375=EDGE_CURVE('OSCAD_TOPO/3|edge|e:ea08b14da0072551251b08680c4a662f|cef3b858935a5be3718001a0c8bac7fc91bb604cc2a8206a959bafc93b6b67f9',#4,#10,#374,.T.);
#376=SURFACE_CURVE('',#96,(#178,#280),.PCURVE_S1.);
#377=EDGE_CURVE('OSCAD_TOPO/3|edge|e:74e6f2d5e2ac8265dd1eff7fe7a17dd6|8f12b0c68ec2a929d9d4ad6858503f260f1e750f50f27c95b5d73301425ff7f1',#6,#12,#376,.T.);
#378=SURFACE_CURVE('',#99,(#183,#208),.PCURVE_S1.);
#379=EDGE_CURVE('OSCAD_TOPO/3|edge|e:f0441aedbb5a97b259346016046463ee|c169c8a0f5d4cde820aa63f52d6b1a7cc15310def170a20fad4b54a0e08f4424',#2,#6,#378,.T.);
#380=SURFACE_CURVE('',#102,(#229,#234),.PCURVE_S1.);
#381=EDGE_CURVE('OSCAD_TOPO/3|edge|e:7cd360e60912cc707bcfe2d898e4dbc4|cc7bc0e74174b98a1c3819556e729f26a940443d34fa838ea716eda760430ba9',#2,#8,#380,.T.);
#382=SURFACE_CURVE('',#105,(#250,#260),.PCURVE_S1.);
#383=EDGE_CURVE('OSCAD_TOPO/3|edge|e:207296ef751d9bdb327eed9c950b8d37|153443005bf71f9dfba9f50039db2c068ddfcba8543e756578fbdabafb242c66',#4,#20,#382,.T.);
#384=SURFACE_CURVE('',#108,(#265,#335),.PCURVE_S1.);
#385=EDGE_CURVE('OSCAD_TOPO/3|edge|e:e6112ed413d6057e2f6d55cba43f505a|c012544a084f04f0222a459499ca4b4067f340d463100ab8950915dac2670b04',#14,#20,#384,.T.);
#386=SURFACE_CURVE('',#111,(#270,#300),.PCURVE_S1.);
#387=EDGE_CURVE('OSCAD_TOPO/3|edge|e:a41daf68ba09dc6ec878d2b6bf375819|e9158f44f31c6984a8d7e690ea94abdc10f39bb98d9081c135646d6c7aa8f0a3',#10,#14,#386,.T.);
#388=SURFACE_CURVE('',#114,(#285,#310),.PCURVE_S1.);
#389=EDGE_CURVE('OSCAD_TOPO/3|edge|e:daa9b388ec065164b61f698001052691|cc27405fea514195778bebd58a7f24c9bf6f619afa22e5dc8372cc51fd5360b0',#12,#16,#388,.T.);
#390=SURFACE_CURVE('',#117,(#213,#295),.PCURVE_S1.);
#391=EDGE_CURVE('OSCAD_TOPO/3|edge|e:ff8d8d1d9d9cce60e5956edf92fba3ad|c859a89d6dd00e77e36dad94212b4db01e60bdda34316812daec5109d1ac1647',#6,#24,#390,.T.);
#392=SURFACE_CURVE('',#120,(#290,#340),.PCURVE_S1.);
#393=EDGE_CURVE('OSCAD_TOPO/3|edge|e:25de36c3af814e13b09c689e5aa992b0|76d6bdf8c08346c7bf6f54d59d0a4ce48affeb45fb8ede1f1e387ac1b7661866',#16,#24,#392,.T.);
#394=SURFACE_CURVE('',#123,(#203,#239),.PCURVE_S1.);
#395=EDGE_CURVE('OSCAD_TOPO/3|edge|e:0a6e2306833d53acddb9386f2ee9cff5|39437f330ae136726f21e389b6fcb08de6da07c968f997d081c34fe7f30adbb5',#8,#22,#394,.T.);
#396=SURFACE_CURVE('',#126,(#198,#325),.PCURVE_S1.);
#397=EDGE_CURVE('OSCAD_TOPO/3|edge|e:79d42fcb40cacd2a5a8428db998a2859|04074c1f58bec5f0643925143abb24da67349b43ced060099fcbfeed8beab1dd',#18,#22,#396,.T.);
#398=SURFACE_CURVE('',#129,(#188,#224),.PCURVE_S1.);
#399=EDGE_CURVE('OSCAD_TOPO/3|edge|e:ca3309fd267d14bfbe0fb50afc450115|9c3f5d3d80892ca0125501f54d54731a2291713c1be673a6d9ffebf4f71d18d5',#8,#26,#398,.T.);
#400=SURFACE_CURVE('',#132,(#193,#350),.PCURVE_S1.);
#401=EDGE_CURVE('OSCAD_TOPO/3|edge|e:257b121ba393693367de325a219e01f0|2f9253aed5aa931498dbcf791eba274060560d0fc46e1a8d8823221e845e82eb',#18,#26,#400,.T.);
#402=SURFACE_CURVE('',#136,(#173,#315),.PCURVE_S1.);
#403=EDGE_CURVE('OSCAD_TOPO/3|edge|e:47b28800ddd9a9a86c9461e490f35f29|b0bbbd87caeaf897309de005c876c516233e7a642bed72e811a28d724589b3e4',#10,#12,#402,.T.);
#404=SURFACE_CURVE('',#140,(#305,#366),.PCURVE_S1.);
#405=EDGE_CURVE('OSCAD_TOPO/3|edge|e:3511b89f6d2f47af564d1ae51e8d89c7|265457b789cbf8c5c7cfc787ee3455ad8aa2cb104eec1250d0be03913e1357d6',#14,#16,#404,.T.);
#406=SURFACE_CURVE('',#144,(#330,#371),.PCURVE_S1.);
#407=EDGE_CURVE('OSCAD_TOPO/3|edge|e:62da7341fcebe9862d25e19ab3b2594d|73f8bf91e903d6ba904cf2be1d941e932832d0174cd3628c77db238852b4997b',#14,#18,#406,.T.);
#408=SURFACE_CURVE('',#148,(#345,#360),.PCURVE_S1.);
#409=EDGE_CURVE('OSCAD_TOPO/3|edge|e:a04cbbe1b8ed2723662b2d27e19415cf|2b29ec34097c711b30682b5f668cb59bfa72c9bf4ed1d37032f061deef63fab8',#16,#18,#408,.T.);
#410=SURFACE_CURVE('',#152,(#245,#320),.PCURVE_S1.);
#411=EDGE_CURVE('OSCAD_TOPO/3|edge|e:c4dd7e4497a41f4cde8443c1b262c02e|b42fb0a44c011b846666b06ae10c41c9672ddf2b831e896549d1be71957138e7',#20,#22,#410,.T.);
#412=SURFACE_CURVE('',#156,(#219,#355),.PCURVE_S1.);
#413=EDGE_CURVE('OSCAD_TOPO/3|edge|e:81a037d8273e755d119e0ce0c82054de|1182c8288b4f6969dc212c6c4210a50db2682c24db51d623380e9ab4a5b5b060',#24,#26,#412,.T.);
#414=ORIENTED_EDGE('',*,*,#373,.T.);
#415=ORIENTED_EDGE('',*,*,#375,.T.);
#416=ORIENTED_EDGE('',*,*,#403,.T.);
#417=ORIENTED_EDGE('',*,*,#377,.F.);
#418=ORIENTED_EDGE('',*,*,#379,.F.);
#419=EDGE_LOOP('OSCAD_TOPO/3|loop|l:b62ee2be56bff7b21e5da6cc72ff1a4c|b441ee4734fb194aca229e21d8e504a9c1881ab388ddaf7a6c394a3a3eadade0',(#414,#415,#416,#417,#418));
#420=ORIENTED_EDGE('',*,*,#399,.T.);
#421=ORIENTED_EDGE('',*,*,#401,.F.);
#422=ORIENTED_EDGE('',*,*,#397,.T.);
#423=ORIENTED_EDGE('',*,*,#395,.F.);
#424=EDGE_LOOP('OSCAD_TOPO/3|loop|l:6d5fe7b96f0104b3e05a7c7cd38b9354|77fa0f97e0dc2b5a1cce1d8549cf99fa349f55930e2b992daadda78471f672c6',(#420,#421,#422,#423));
#425=ORIENTED_EDGE('',*,*,#379,.T.);
#426=ORIENTED_EDGE('',*,*,#391,.T.);
#427=ORIENTED_EDGE('',*,*,#413,.T.);
#428=ORIENTED_EDGE('',*,*,#399,.F.);
#429=ORIENTED_EDGE('',*,*,#381,.F.);
#430=EDGE_LOOP('OSCAD_TOPO/3|loop|l:277476c12e90abab313a3a4e1edf5a93|db3d0d42b73fffb96b457961cd32001a498e7087cd63eb5a260f5dde47c71012',(#425,#426,#427,#428,#429));
#431=ORIENTED_EDGE('',*,*,#381,.T.);
#432=ORIENTED_EDGE('',*,*,#395,.T.);
#433=ORIENTED_EDGE('',*,*,#411,.F.);
#434=ORIENTED_EDGE('',*,*,#383,.F.);
#435=ORIENTED_EDGE('',*,*,#373,.F.);
#436=EDGE_LOOP('OSCAD_TOPO/3|loop|l:962db158e5c71dd97218ec9468ecceaa|e1ee3f7f448f909c52a9bf51d0d166c98bbfd5046db27c7d8a0b06e4a4e6a843',(#431,#432,#433,#434,#435));
#437=ORIENTED_EDGE('',*,*,#383,.T.);
#438=ORIENTED_EDGE('',*,*,#385,.F.);
#439=ORIENTED_EDGE('',*,*,#387,.F.);
#440=ORIENTED_EDGE('',*,*,#375,.F.);
#441=EDGE_LOOP('OSCAD_TOPO/3|loop|l:d0eafddd9178e64a3a3af8a0c9372976|b189ae1167d86696058d051e383fc63220fd995e9569a92803fe83cfa88996e2',(#437,#438,#439,#440));
#442=ORIENTED_EDGE('',*,*,#377,.T.);
#443=ORIENTED_EDGE('',*,*,#389,.T.);
#444=ORIENTED_EDGE('',*,*,#393,.T.);
#445=ORIENTED_EDGE('',*,*,#391,.F.);
#446=EDGE_LOOP('OSCAD_TOPO/3|loop|l:3a621f3542c67864820a1c5bf60c16da|a8d1ea5417e981f2ae0ab1dae5f2eaa4af55cac0b295e1702356736bd3bb2b2d',(#442,#443,#444,#445));
#447=ORIENTED_EDGE('',*,*,#387,.T.);
#448=ORIENTED_EDGE('',*,*,#405,.T.);
#449=ORIENTED_EDGE('',*,*,#389,.F.);
#450=ORIENTED_EDGE('',*,*,#403,.F.);
#451=EDGE_LOOP('OSCAD_TOPO/3|loop|l:cfe401d98169abe8ac094f8902b76797|755bdcece2f047c6792286fe642f7ee1820e72060a6780d8f62459dfc982a075',(#447,#448,#449,#450));
#452=ORIENTED_EDGE('',*,*,#411,.T.);
#453=ORIENTED_EDGE('',*,*,#397,.F.);
#454=ORIENTED_EDGE('',*,*,#407,.F.);
#455=ORIENTED_EDGE('',*,*,#385,.T.);
#456=EDGE_LOOP('OSCAD_TOPO/3|loop|l:2faa39c597f4c982ecf513427ca2e73f|d3646eb5d677f28096085414724ab83fa4a38612310efae10c2a7b17b06d44e3',(#452,#453,#454,#455));
#457=ORIENTED_EDGE('',*,*,#393,.F.);
#458=ORIENTED_EDGE('',*,*,#409,.T.);
#459=ORIENTED_EDGE('',*,*,#401,.T.);
#460=ORIENTED_EDGE('',*,*,#413,.F.);
#461=EDGE_LOOP('OSCAD_TOPO/3|loop|l:24cd9eee9c3924925950ff33bf5ec982|259f7372d0139e25f64405beda06292245fddd6b65cb85e0a7657c3f769fde50',(#457,#458,#459,#460));
#462=ORIENTED_EDGE('',*,*,#409,.F.);
#463=ORIENTED_EDGE('',*,*,#405,.F.);
#464=ORIENTED_EDGE('',*,*,#407,.T.);
#465=EDGE_LOOP('OSCAD_TOPO/3|loop|l:a2079be0ae557c1fa679df158095123f|d3c9abaeb7ac55e368c1f9555ff7a1c68528bb7c838825eaeb2abbf9d7c603d8',(#462,#463,#464));
#466=FACE_OUTER_BOUND('',#419,.T.);
#467=ADVANCED_FACE('OSCAD_TOPO/3|face|f:c9ce39dd87a5d0e2f497189ecb27cc63|b331fc93005144669ac145e258f40a4bb54333ce740cd5008359e6dc4312fdf9',(#466),#31,.T.);
#468=FACE_OUTER_BOUND('',#424,.T.);
#469=ADVANCED_FACE('OSCAD_TOPO/3|face|f:84cfa43047bb70577a70df93aae7f78b|c9b5d668f3829fe73c3ca0496ef7ad9f79868471ddc072144aaa25176b330247',(#468),#36,.T.);
#470=FACE_OUTER_BOUND('',#430,.T.);
#471=ADVANCED_FACE('OSCAD_TOPO/3|face|f:267da839d0e288c9d73a201f8c3f9dae|50cc85e3ac81a4d37f3f9170f60017485c13734fcf2a75c4d97df3f5775b6790',(#470),#41,.T.);
#472=FACE_OUTER_BOUND('',#436,.T.);
#473=ADVANCED_FACE('OSCAD_TOPO/3|face|f:a94b784e9b6cdbc1aed2c17d95d990f5|25dfe409ef5ddc6b26aab085aa5edb98714e07343ed35e0e7d2236ea5e335b7d',(#472),#46,.T.);
#474=FACE_OUTER_BOUND('',#441,.T.);
#475=ADVANCED_FACE('OSCAD_TOPO/3|face|f:7e79a7dd98f08a56150599306f4dfe1e|ecd9e180a3335eaba30d2e0fd4782eebdc5486cf288004d73d12bb3caf18f5e4',(#474),#51,.T.);
#476=FACE_OUTER_BOUND('',#446,.T.);
#477=ADVANCED_FACE('OSCAD_TOPO/3|face|f:741e3cad610c1334e4b7bc3ca28c6856|ab7764ffd4d2e675004cf59e5b421fc6f878eafa7ed4c17cabeb34d62adff1aa',(#476),#56,.T.);
#478=FACE_OUTER_BOUND('',#451,.T.);
#479=ADVANCED_FACE('OSCAD_TOPO/3|face|f:4d6a4d42650fa1ee7706f619999c6717|810c9920dd5c2fac5388a0075f25c115bb200a081b7e833db16edc4450192379',(#478),#63,.T.);
#480=FACE_OUTER_BOUND('',#456,.T.);
#481=ADVANCED_FACE('OSCAD_TOPO/3|face|f:8b219571ff082bf211e1a8fbb0176d13|f7342215b0cad6f186a9f21ac5804002986e2bea72448e99218147eace418749',(#480),#70,.T.);
#482=FACE_OUTER_BOUND('',#461,.T.);
#483=ADVANCED_FACE('OSCAD_TOPO/3|face|f:927b848f61f8ed07fbec38e6ebd6ad56|bbc8b5ef37a0f28bc8eb40cf306238c503635a851fe445cd5dde3e55ab82dea5',(#482),#77,.T.);
#484=FACE_OUTER_BOUND('',#465,.T.);
#485=ADVANCED_FACE('OSCAD_TOPO/3|face|f:61a007dbeb887a9ea418a97e8cd76456|59aefa729190d1facc904df6c2852bcc850c9629cac248c6146cfff4fe47499a',(#484),#87,.T.);
#486=CLOSED_SHELL('OSCAD_TOPO/3|shell|s:2bd2fba5f9cdb99bd1ddb07b62f70b04|875af744966dc45dfd685c47ab9521e899308f31748ac55da5096266f71cf746',(#467,#469,#471,#473,#475,#477,#479,#481,#483,#485));
#487=MANIFOLD_SOLID_BREP('OSCAD_TOPO/3|body|b:f24141cc9fc869d218eb670766322b44|10f1201338570a359390eef3ef0fb13e94ee7dc77852d5d04bb19c69018b65fb',#486);
#488=(LENGTH_UNIT()NAMED_UNIT(*)SI_UNIT(.MILLI.,.METRE.));
#489=UNCERTAINTY_MEASURE_WITH_UNIT(LENGTH_MEASURE(9.99999999999999955E-8),#488,'distance_accuracy_value','');
#490=(GEOMETRIC_REPRESENTATION_CONTEXT(3)GLOBAL_UNCERTAINTY_ASSIGNED_CONTEXT((#489))GLOBAL_UNIT_ASSIGNED_CONTEXT((#488))REPRESENTATION_CONTEXT('','3D'));
#491=ADVANCED_BREP_SHAPE_REPRESENTATION('',(#487),#490);
#492=APPLICATION_CONTEXT('managed model based 3d engineering');
#493=PRODUCT_CONTEXT('',#492,'mechanical');
#494=PRODUCT('model','model','',(#493));
#495=PRODUCT_DEFINITION_FORMATION('1','',#494);
#496=PRODUCT_DEFINITION_CONTEXT('part definition',#492,'design');
#497=PRODUCT_DEFINITION('design','',#495,#496);
#498=PRODUCT_DEFINITION_SHAPE('','',#497);
#499=SHAPE_DEFINITION_REPRESENTATION(#498,#491);
ENDSEC;
END-ISO-10303-21;
