ISO-10303-21;
HEADER;
FILE_DESCRIPTION(('OpenSCAD Viewer retained AP242 B-rep'),'2;1');
FILE_NAME('model.step','',(''),(''),'OpenSCAD Viewer','OpenSCAD Viewer','');
FILE_SCHEMA(('AP242_MANAGED_MODEL_BASED_3D_ENGINEERING_MIM_LF'));
ENDSEC;
DATA;
#1=CARTESIAN_POINT('',(1.88696661209519974E1,-6.05963140081898644E0,3.08650226380548105E1));
#2=VERTEX_POINT('OSCAD_TOPO/3|vertex|v:23b0daace4d2cc56c90d56e352671c9c|f5723237739098fd18e1c45d4f2128e3cd333f23c0c7c908745728d210937b32',#1);
#3=CARTESIAN_POINT('',(2.19308763930766517E1,-1.20741738458446743E1,2.34857089269551800E1));
#4=VERTEX_POINT('OSCAD_TOPO/3|vertex|v:6b22b79e05373c6765e8ad903425f179|54123670e270060a175536db998f8a5a2562059f7405bb32a9e151af6f4fc420',#3);
#5=CARTESIAN_POINT('',(2.59993250014434878E1,-2.43086242941436659E0,3.08650226380548105E1));
#6=VERTEX_POINT('OSCAD_TOPO/3|vertex|v:07720a061eecc28a2d7844e564055068|8dc2176457dbce8e16aceb11ec9dd9f82a6e824fb474d5d54ed4cb3ad2005a5c',#5);
#7=CARTESIAN_POINT('',(1.68613292740695755E1,-2.11373218589843503E0,2.68157680776272045E1));
#8=VERTEX_POINT('OSCAD_TOPO/3|vertex|v:8a2887ce2640ac891541b347747ac53a|7c725f7283eca545c5a92aac255444404720b014cb3a7ac8af14e247652c599d',#7);
#9=CARTESIAN_POINT('',(2.81693279135067023E1,-8.89900099586563087E0,2.34857089269551800E1));
#10=VERTEX_POINT('OSCAD_TOPO/3|vertex|v:cc3ccda6027bf7fc1faa915c3f967d24|5ec1a847b9ecf127c547f4b9cd1aaba1fdd9137e208161a7bee9b466a132b2ff',#9);
#11=CARTESIAN_POINT('',(2.87544142463556724E1,-7.84395062993748660E0,2.42236402980651420E1));
#12=VERTEX_POINT('OSCAD_TOPO/3|vertex|v:bb971399a3628b77b33f7e6f319f9f2a|18c3039f81aeeab40d119815ea1255a155598786357fc133bb73f8c0774b69a3',#11);
#13=CARTESIAN_POINT('',(2.64957138744380138E1,-5.61075165009850529E0,2.01113301265988440E1));
#14=VERTEX_POINT('OSCAD_TOPO/3|vertex|v:eceec7d2b11c67880d69fe7a652ee412|dc16fab79a5ad3693d12723ef924104c02a5f3130a2d1d71b61d81b569d43082',#13);
#15=CARTESIAN_POINT('',(2.70808002072869840E1,-4.55570128417036013E0,2.08492614977088060E1));
#16=VERTEX_POINT('OSCAD_TOPO/3|vertex|v:406a807927bae87267b574d3caf2d087|08c3cfd5b2031e9d648badf542ed8c1fc6021a6d03584bb32a04f9643c9d7b68',#15);
#17=CARTESIAN_POINT('',(2.58548700394118107E1,-4.35164753644251157E0,2.01743857376375395E1));
#18=VERTEX_POINT('OSCAD_TOPO/3|vertex|v:f95369a2a925c768a85aa551e3dc68eb|2512905e8b3d2040204a2ed6b9641f82d09d0a131059f95832bacd187584ff23',#17);
#19=CARTESIAN_POINT('',(2.02572623540079633E1,-8.78592450007754877E0,2.01113301265988440E1));
#20=VERTEX_POINT('OSCAD_TOPO/3|vertex|v:edd643610fb562e920611e7123c65ace|975919d0ca98245812eaba127f8921cd5b24e6f0b9a13ad7b14b378a111b7de0',#19);
#21=CARTESIAN_POINT('',(1.96164185189817601E1,-7.52682038642155415E0,2.01743857376375395E1));
#22=VERTEX_POINT('OSCAD_TOPO/3|vertex|v:3b0a1f431b885be3fb4f209bda218ade|96f3d3a6f6eb365416bfbe8f4390ed17aed388f50a05fe9cac945a9bc8e6caa8',#21);
#23=CARTESIAN_POINT('',(2.43257109623747994E1,8.57386916352759876E-1,2.74906438376984710E1));
#24=VERTEX_POINT('OSCAD_TOPO/3|vertex|v:076fcbd4b903754c5f2e5f944f9ebed7|2391500b56f838f326137b43169c5f95f3a9af80d5aca01439a84cfed4c8d182',#23);
#25=CARTESIAN_POINT('',(2.30997807944996261E1,1.06144066408060755E0,2.68157680776272045E1));
#26=VERTEX_POINT('OSCAD_TOPO/3|vertex|v:40ef11f627884b73ddff3f99251d1b7d|2dcc89e8ad7f2ca2d8659becd62db7413d09a85850810132d8d1c0852413be51',#25);
#27=CARTESIAN_POINT('',(1.88696661209519974E1,-6.05963140081898644E0,3.08650226380548105E1));
#28=CARTESIAN_POINT('',(2.59993250014434878E1,-2.43086242941436659E0,3.08650226380548105E1));
#29=CARTESIAN_POINT('',(2.19308763930766517E1,-1.20741738458446743E1,2.34857089269551800E1));
#30=CARTESIAN_POINT('',(2.90605352735681386E1,-8.44540487444005450E0,2.34857089269551800E1));
#31=B_SPLINE_SURFACE_WITH_KNOTS('',1,1,((#27,#28),(#29,#30)),.UNSPECIFIED.,.F.,.F.,.F.,(2,2),(2,2),(0.00000000000000000E0,1.00000000000000000E0),(0.00000000000000000E0,1.00000000000000000E0),.UNSPECIFIED.);
#32=CARTESIAN_POINT('',(1.99225395461942263E1,-8.12827463092412295E0,1.94364543665275775E1));
#33=CARTESIAN_POINT('',(2.70521984266857132E1,-4.49950565951950310E0,1.94364543665275775E1));
#34=CARTESIAN_POINT('',(1.68613292740695755E1,-2.11373218589843503E0,2.68157680776272045E1));
#35=CARTESIAN_POINT('',(2.39909881545610588E1,1.51503678550618481E0,2.68157680776272045E1));
#36=B_SPLINE_SURFACE_WITH_KNOTS('',1,1,((#32,#33),(#34,#35)),.UNSPECIFIED.,.F.,.F.,.F.,(2,2),(2,2),(0.00000000000000000E0,1.00000000000000000E0),(0.00000000000000000E0,1.00000000000000000E0),.UNSPECIFIED.);
#37=CARTESIAN_POINT('',(1.88696661209519974E1,-6.05963140081898644E0,3.08650226380548105E1));
#38=CARTESIAN_POINT('',(1.68613292740695755E1,-2.11373218589843503E0,2.68157680776272045E1));
#39=CARTESIAN_POINT('',(2.59993250014434878E1,-2.43086242941436659E0,3.08650226380548105E1));
#40=CARTESIAN_POINT('',(2.39909881545610588E1,1.51503678550618481E0,2.68157680776272045E1));
#41=B_SPLINE_SURFACE_WITH_KNOTS('',1,1,((#37,#38),(#39,#40)),.UNSPECIFIED.,.F.,.F.,.F.,(2,2),(2,2),(0.00000000000000000E0,1.00000000000000000E0),(0.00000000000000000E0,1.00000000000000000E0),.UNSPECIFIED.);
#42=CARTESIAN_POINT('',(2.19308763930766517E1,-1.20741738458446743E1,2.34857089269551800E1));
#43=CARTESIAN_POINT('',(1.99225395461942263E1,-8.12827463092412295E0,1.94364543665275775E1));
#44=CARTESIAN_POINT('',(1.88696661209519974E1,-6.05963140081898644E0,3.08650226380548105E1));
#45=CARTESIAN_POINT('',(1.68613292740695755E1,-2.11373218589843503E0,2.68157680776272045E1));
#46=B_SPLINE_SURFACE_WITH_KNOTS('',1,1,((#42,#43),(#44,#45)),.UNSPECIFIED.,.F.,.F.,.F.,(2,2),(2,2),(0.00000000000000000E0,1.00000000000000000E0),(0.00000000000000000E0,1.00000000000000000E0),.UNSPECIFIED.);
#47=CARTESIAN_POINT('',(2.90605352735681386E1,-8.44540487444005450E0,2.34857089269551800E1));
#48=CARTESIAN_POINT('',(2.70521984266857132E1,-4.49950565951950310E0,1.94364543665275775E1));
#49=CARTESIAN_POINT('',(2.19308763930766517E1,-1.20741738458446743E1,2.34857089269551800E1));
#50=CARTESIAN_POINT('',(1.99225395461942263E1,-8.12827463092412295E0,1.94364543665275775E1));
#51=B_SPLINE_SURFACE_WITH_KNOTS('',1,1,((#47,#48),(#49,#50)),.UNSPECIFIED.,.F.,.F.,.F.,(2,2),(2,2),(0.00000000000000000E0,1.00000000000000000E0),(0.00000000000000000E0,1.00000000000000000E0),.UNSPECIFIED.);
#52=CARTESIAN_POINT('',(2.59993250014434878E1,-2.43086242941436659E0,3.08650226380548105E1));
#53=CARTESIAN_POINT('',(2.39909881545610588E1,1.51503678550618481E0,2.68157680776272045E1));
#54=CARTESIAN_POINT('',(2.90605352735681386E1,-8.44540487444005450E0,2.34857089269551800E1));
#55=CARTESIAN_POINT('',(2.70521984266857132E1,-4.49950565951950310E0,1.94364543665275775E1));
#56=B_SPLINE_SURFACE_WITH_KNOTS('',1,1,((#52,#53),(#54,#55)),.UNSPECIFIED.,.F.,.F.,.F.,(2,2),(2,2),(0.00000000000000000E0,1.00000000000000000E0),(0.00000000000000000E0,1.00000000000000000E0),.UNSPECIFIED.);
#57=CARTESIAN_POINT('',(2.87544142463556724E1,-7.84395062993748660E0,2.42236402980651420E1));
#58=CARTESIAN_POINT('',(2.70808002072869840E1,-4.55570128417036013E0,2.08492614977088060E1));
#59=CARTESIAN_POINT('',(2.90605352735681386E1,-8.44540487444005450E0,2.34857089269551800E1));
#60=CARTESIAN_POINT('',(2.73869212344994502E1,-5.15715552867292892E0,2.01113301265988440E1));
#61=CARTESIAN_POINT('',(2.81693279135067023E1,-8.89900099586563087E0,2.34857089269551800E1));
#62=CARTESIAN_POINT('',(2.64957138744380138E1,-5.61075165009850529E0,2.01113301265988440E1));
#63=(BOUNDED_SURFACE()B_SPLINE_SURFACE(2,1,((#57,#58),(#59,#60),(#61,#62)),.UNSPECIFIED.,.F.,.F.,.F.)B_SPLINE_SURFACE_WITH_KNOTS((3,3),(2,2),(0.00000000000000000E0,1.00000000000000000E0),(0.00000000000000000E0,1.00000000000000000E0),.UNSPECIFIED.)GEOMETRIC_REPRESENTATION_ITEM()RATIONAL_B_SPLINE_SURFACE(((1.00000000000000000E0,1.00000000000000000E0),(7.07106781186547573E-1,7.07106781186547573E-1),(1.00000000000000000E0,1.00000000000000000E0)))REPRESENTATION_ITEM('')SURFACE());
#64=CARTESIAN_POINT('',(2.02572623540079633E1,-8.78592450007754877E0,2.01113301265988440E1));
#65=CARTESIAN_POINT('',(2.64957138744380138E1,-5.61075165009850529E0,2.01113301265988440E1));
#66=CARTESIAN_POINT('',(1.99225395461942263E1,-8.12827463092412295E0,1.94364543665275775E1));
#67=CARTESIAN_POINT('',(2.61609910666242769E1,-4.95310178094508036E0,1.94364543665275775E1));
#68=CARTESIAN_POINT('',(1.96164185189817601E1,-7.52682038642155415E0,2.01743857376375395E1));
#69=CARTESIAN_POINT('',(2.58548700394118107E1,-4.35164753644251157E0,2.01743857376375395E1));
#70=(BOUNDED_SURFACE()B_SPLINE_SURFACE(2,1,((#64,#65),(#66,#67),(#68,#69)),.UNSPECIFIED.,.F.,.F.,.F.)B_SPLINE_SURFACE_WITH_KNOTS((3,3),(2,2),(0.00000000000000000E0,1.00000000000000000E0),(0.00000000000000000E0,1.00000000000000000E0),.UNSPECIFIED.)GEOMETRIC_REPRESENTATION_ITEM()RATIONAL_B_SPLINE_SURFACE(((2.00000000000000000E0,2.00000000000000000E0),(1.00000000000000000E0,1.00000000000000000E0),(1.00000000000000000E0,1.00000000000000000E0)))REPRESENTATION_ITEM('')SURFACE());
#71=CARTESIAN_POINT('',(2.30997807944996261E1,1.06144066408060755E0,2.68157680776272045E1));
#72=CARTESIAN_POINT('',(2.58548700394118107E1,-4.35164753644251157E0,2.01743857376375395E1));
#73=CARTESIAN_POINT('',(2.39909881545610588E1,1.51503678550618481E0,2.68157680776272045E1));
#74=CARTESIAN_POINT('',(2.67460773994732470E1,-3.89805141501693475E0,2.01743857376375395E1));
#75=CARTESIAN_POINT('',(2.43257109623747994E1,8.57386916352759876E-1,2.74906438376984710E1));
#76=CARTESIAN_POINT('',(2.70808002072869840E1,-4.55570128417036013E0,2.08492614977088060E1));
#77=(BOUNDED_SURFACE()B_SPLINE_SURFACE(2,1,((#71,#72),(#73,#74),(#75,#76)),.UNSPECIFIED.,.F.,.F.,.F.)B_SPLINE_SURFACE_WITH_KNOTS((3,3),(2,2),(0.00000000000000000E0,1.00000000000000000E0),(0.00000000000000000E0,1.00000000000000000E0),.UNSPECIFIED.)GEOMETRIC_REPRESENTATION_ITEM()RATIONAL_B_SPLINE_SURFACE(((1.00000000000000000E0,1.00000000000000000E0),(1.00000000000000000E0,1.00000000000000000E0),(2.00000000000000000E0,2.00000000000000000E0)))REPRESENTATION_ITEM('')SURFACE());
#78=CARTESIAN_POINT('',(2.64957138744380138E1,-5.61075165009850529E0,2.01113301265988440E1));
#79=CARTESIAN_POINT('',(2.69413175544687320E1,-5.38395358938571711E0,2.01113301265988440E1));
#80=CARTESIAN_POINT('',(2.70993860413460617E1,-5.32708611069840554E0,2.05822658369925868E1));
#81=CARTESIAN_POINT('',(2.61609910666242769E1,-4.95310178094508036E0,1.94364543665275775E1));
#82=CARTESIAN_POINT('',(2.70521984266857132E1,-4.49950565951950310E0,1.94364543665275775E1));
#83=CARTESIAN_POINT('',(2.72338607208932189E1,-4.85642840642164408E0,2.04802958121538268E1));
#84=CARTESIAN_POINT('',(2.58548700394118107E1,-4.35164753644251157E0,2.01743857376375395E1));
#85=CARTESIAN_POINT('',(2.67460773994732470E1,-3.89805141501693475E0,2.01743857376375395E1));
#86=CARTESIAN_POINT('',(2.70808002072869840E1,-4.55570128417036013E0,2.08492614977088060E1));
#87=(BOUNDED_SURFACE()B_SPLINE_SURFACE(2,2,((#78,#79,#80),(#81,#82,#83),(#84,#85,#86)),.UNSPECIFIED.,.F.,.F.,.F.)B_SPLINE_SURFACE_WITH_KNOTS((3,3),(3,3),(0.00000000000000000E0,1.00000000000000000E0),(0.00000000000000000E0,1.00000000000000000E0),.UNSPECIFIED.)GEOMETRIC_REPRESENTATION_ITEM()RATIONAL_B_SPLINE_SURFACE(((2.00000000000000000E0,2.00000000000000000E0,3.00000000000000000E0),(1.00000000000000000E0,1.00000000000000000E0,2.00000000000000000E0),(1.00000000000000000E0,1.00000000000000000E0,2.00000000000000000E0)))REPRESENTATION_ITEM('')SURFACE());
#88=CARTESIAN_POINT('',(1.88696661209519974E1,-6.05963140081898644E0,3.08650226380548105E1));
#89=CARTESIAN_POINT('',(2.19308763930766517E1,-1.20741738458446743E1,2.34857089269551800E1));
#90=B_SPLINE_CURVE_WITH_KNOTS('',1,(#88,#89),.UNSPECIFIED.,.F.,.F.,(2,2),(0.00000000000000000E0,1.00000000000000000E0),.UNSPECIFIED.);
#91=CARTESIAN_POINT('',(2.19308763930766517E1,-1.20741738458446743E1,2.34857089269551800E1));
#92=CARTESIAN_POINT('',(2.81693279135067023E1,-8.89900099586563087E0,2.34857089269551800E1));
#93=B_SPLINE_CURVE_WITH_KNOTS('',1,(#91,#92),.UNSPECIFIED.,.F.,.F.,(2,2),(0.00000000000000000E0,1.00000000000000000E0),.UNSPECIFIED.);
#94=CARTESIAN_POINT('',(2.59993250014434878E1,-2.43086242941436659E0,3.08650226380548105E1));
#95=CARTESIAN_POINT('',(2.87544142463556724E1,-7.84395062993748660E0,2.42236402980651420E1));
#96=B_SPLINE_CURVE_WITH_KNOTS('',1,(#94,#95),.UNSPECIFIED.,.F.,.F.,(2,2),(0.00000000000000000E0,1.00000000000000000E0),.UNSPECIFIED.);
#97=CARTESIAN_POINT('',(1.88696661209519974E1,-6.05963140081898644E0,3.08650226380548105E1));
#98=CARTESIAN_POINT('',(2.59993250014434878E1,-2.43086242941436659E0,3.08650226380548105E1));
#99=B_SPLINE_CURVE_WITH_KNOTS('',1,(#97,#98),.UNSPECIFIED.,.F.,.F.,(2,2),(0.00000000000000000E0,1.00000000000000000E0),.UNSPECIFIED.);
#100=CARTESIAN_POINT('',(1.88696661209519974E1,-6.05963140081898644E0,3.08650226380548105E1));
#101=CARTESIAN_POINT('',(1.68613292740695755E1,-2.11373218589843503E0,2.68157680776272045E1));
#102=B_SPLINE_CURVE_WITH_KNOTS('',1,(#100,#101),.UNSPECIFIED.,.F.,.F.,(2,2),(0.00000000000000000E0,1.00000000000000000E0),.UNSPECIFIED.);
#103=CARTESIAN_POINT('',(2.19308763930766517E1,-1.20741738458446743E1,2.34857089269551800E1));
#104=CARTESIAN_POINT('',(2.02572623540079633E1,-8.78592450007754877E0,2.01113301265988440E1));
#105=B_SPLINE_CURVE_WITH_KNOTS('',1,(#103,#104),.UNSPECIFIED.,.F.,.F.,(2,2),(0.00000000000000000E0,1.00000000000000000E0),.UNSPECIFIED.);
#106=CARTESIAN_POINT('',(2.64957138744380138E1,-5.61075165009850529E0,2.01113301265988440E1));
#107=CARTESIAN_POINT('',(2.02572623540079633E1,-8.78592450007754877E0,2.01113301265988440E1));
#108=B_SPLINE_CURVE_WITH_KNOTS('',1,(#106,#107),.UNSPECIFIED.,.F.,.F.,(2,2),(0.00000000000000000E0,1.00000000000000000E0),.UNSPECIFIED.);
#109=CARTESIAN_POINT('',(2.81693279135067023E1,-8.89900099586563087E0,2.34857089269551800E1));
#110=CARTESIAN_POINT('',(2.64957138744380138E1,-5.61075165009850529E0,2.01113301265988440E1));
#111=B_SPLINE_CURVE_WITH_KNOTS('',1,(#109,#110),.UNSPECIFIED.,.F.,.F.,(2,2),(0.00000000000000000E0,1.00000000000000000E0),.UNSPECIFIED.);
#112=CARTESIAN_POINT('',(2.87544142463556724E1,-7.84395062993748660E0,2.42236402980651420E1));
#113=CARTESIAN_POINT('',(2.70808002072869840E1,-4.55570128417036013E0,2.08492614977088060E1));
#114=B_SPLINE_CURVE_WITH_KNOTS('',1,(#112,#113),.UNSPECIFIED.,.F.,.F.,(2,2),(0.00000000000000000E0,1.00000000000000000E0),.UNSPECIFIED.);
#115=CARTESIAN_POINT('',(2.59993250014434878E1,-2.43086242941436659E0,3.08650226380548105E1));
#116=CARTESIAN_POINT('',(2.43257109623747994E1,8.57386916352759876E-1,2.74906438376984710E1));
#117=B_SPLINE_CURVE_WITH_KNOTS('',1,(#115,#116),.UNSPECIFIED.,.F.,.F.,(2,2),(0.00000000000000000E0,1.00000000000000000E0),.UNSPECIFIED.);
#118=CARTESIAN_POINT('',(2.70808002072869840E1,-4.55570128417036013E0,2.08492614977088060E1));
#119=CARTESIAN_POINT('',(2.43257109623747994E1,8.57386916352759876E-1,2.74906438376984710E1));
#120=B_SPLINE_CURVE_WITH_KNOTS('',1,(#118,#119),.UNSPECIFIED.,.F.,.F.,(2,2),(0.00000000000000000E0,1.00000000000000000E0),.UNSPECIFIED.);
#121=CARTESIAN_POINT('',(1.68613292740695755E1,-2.11373218589843503E0,2.68157680776272045E1));
#122=CARTESIAN_POINT('',(1.96164185189817601E1,-7.52682038642155415E0,2.01743857376375395E1));
#123=B_SPLINE_CURVE_WITH_KNOTS('',1,(#121,#122),.UNSPECIFIED.,.F.,.F.,(2,2),(0.00000000000000000E0,1.00000000000000000E0),.UNSPECIFIED.);
#124=CARTESIAN_POINT('',(2.58548700394118107E1,-4.35164753644251157E0,2.01743857376375395E1));
#125=CARTESIAN_POINT('',(1.96164185189817601E1,-7.52682038642155415E0,2.01743857376375395E1));
#126=B_SPLINE_CURVE_WITH_KNOTS('',1,(#124,#125),.UNSPECIFIED.,.F.,.F.,(2,2),(0.00000000000000000E0,1.00000000000000000E0),.UNSPECIFIED.);
#127=CARTESIAN_POINT('',(1.68613292740695755E1,-2.11373218589843503E0,2.68157680776272045E1));
#128=CARTESIAN_POINT('',(2.30997807944996261E1,1.06144066408060755E0,2.68157680776272045E1));
#129=B_SPLINE_CURVE_WITH_KNOTS('',1,(#127,#128),.UNSPECIFIED.,.F.,.F.,(2,2),(0.00000000000000000E0,1.00000000000000000E0),.UNSPECIFIED.);
#130=CARTESIAN_POINT('',(2.58548700394118107E1,-4.35164753644251157E0,2.01743857376375395E1));
#131=CARTESIAN_POINT('',(2.30997807944996261E1,1.06144066408060755E0,2.68157680776272045E1));
#132=B_SPLINE_CURVE_WITH_KNOTS('',1,(#130,#131),.UNSPECIFIED.,.F.,.F.,(2,2),(0.00000000000000000E0,1.00000000000000000E0),.UNSPECIFIED.);
#133=CARTESIAN_POINT('',(2.81693279135067023E1,-8.89900099586563087E0,2.34857089269551800E1));
#134=CARTESIAN_POINT('',(2.90605352735681386E1,-8.44540487444005450E0,2.34857089269551800E1));
#135=CARTESIAN_POINT('',(2.87544142463556724E1,-7.84395062993748660E0,2.42236402980651420E1));
#136=(BOUNDED_CURVE()B_SPLINE_CURVE(2,(#133,#134,#135),.UNSPECIFIED.,.F.,.F.)B_SPLINE_CURVE_WITH_KNOTS((3,3),(0.00000000000000000E0,1.00000000000000000E0),.UNSPECIFIED.)CURVE()GEOMETRIC_REPRESENTATION_ITEM()RATIONAL_B_SPLINE_CURVE((1.00000000000000000E0,7.07106781186547573E-1,1.00000000000000000E0))REPRESENTATION_ITEM(''));
#137=CARTESIAN_POINT('',(2.64957138744380138E1,-5.61075165009850529E0,2.01113301265988440E1));
#138=CARTESIAN_POINT('',(2.73869212344994502E1,-5.15715552867292892E0,2.01113301265988440E1));
#139=CARTESIAN_POINT('',(2.70808002072869840E1,-4.55570128417036013E0,2.08492614977088060E1));
#140=(BOUNDED_CURVE()B_SPLINE_CURVE(2,(#137,#138,#139),.UNSPECIFIED.,.F.,.F.)B_SPLINE_CURVE_WITH_KNOTS((3,3),(0.00000000000000000E0,1.00000000000000000E0),.UNSPECIFIED.)CURVE()GEOMETRIC_REPRESENTATION_ITEM()RATIONAL_B_SPLINE_CURVE((1.00000000000000000E0,7.07106781186547573E-1,1.00000000000000000E0))REPRESENTATION_ITEM(''));
#141=CARTESIAN_POINT('',(2.64957138744380138E1,-5.61075165009850529E0,2.01113301265988440E1));
#142=CARTESIAN_POINT('',(2.61609910666242769E1,-4.95310178094508036E0,1.94364543665275775E1));
#143=CARTESIAN_POINT('',(2.58548700394118107E1,-4.35164753644251157E0,2.01743857376375395E1));
#144=(BOUNDED_CURVE()B_SPLINE_CURVE(2,(#141,#142,#143),.UNSPECIFIED.,.F.,.F.)B_SPLINE_CURVE_WITH_KNOTS((3,3),(0.00000000000000000E0,1.00000000000000000E0),.UNSPECIFIED.)CURVE()GEOMETRIC_REPRESENTATION_ITEM()RATIONAL_B_SPLINE_CURVE((2.00000000000000000E0,1.00000000000000000E0,1.00000000000000000E0))REPRESENTATION_ITEM(''));
#145=CARTESIAN_POINT('',(2.70808002072869840E1,-4.55570128417036013E0,2.08492614977088060E1));
#146=CARTESIAN_POINT('',(2.67460773994732470E1,-3.89805141501693475E0,2.01743857376375395E1));
#147=CARTESIAN_POINT('',(2.58548700394118107E1,-4.35164753644251157E0,2.01743857376375395E1));
#148=(BOUNDED_CURVE()B_SPLINE_CURVE(2,(#145,#146,#147),.UNSPECIFIED.,.F.,.F.)B_SPLINE_CURVE_WITH_KNOTS((3,3),(0.00000000000000000E0,1.00000000000000000E0),.UNSPECIFIED.)CURVE()GEOMETRIC_REPRESENTATION_ITEM()RATIONAL_B_SPLINE_CURVE((2.00000000000000000E0,1.00000000000000000E0,1.00000000000000000E0))REPRESENTATION_ITEM(''));
#149=CARTESIAN_POINT('',(2.02572623540079633E1,-8.78592450007754877E0,2.01113301265988440E1));
#150=CARTESIAN_POINT('',(1.99225395461942263E1,-8.12827463092412295E0,1.94364543665275775E1));
#151=CARTESIAN_POINT('',(1.96164185189817601E1,-7.52682038642155415E0,2.01743857376375395E1));
#152=(BOUNDED_CURVE()B_SPLINE_CURVE(2,(#149,#150,#151),.UNSPECIFIED.,.F.,.F.)B_SPLINE_CURVE_WITH_KNOTS((3,3),(0.00000000000000000E0,1.00000000000000000E0),.UNSPECIFIED.)CURVE()GEOMETRIC_REPRESENTATION_ITEM()RATIONAL_B_SPLINE_CURVE((2.00000000000000000E0,1.00000000000000000E0,1.00000000000000000E0))REPRESENTATION_ITEM(''));
#153=CARTESIAN_POINT('',(2.43257109623747994E1,8.57386916352759876E-1,2.74906438376984710E1));
#154=CARTESIAN_POINT('',(2.39909881545610588E1,1.51503678550618481E0,2.68157680776272045E1));
#155=CARTESIAN_POINT('',(2.30997807944996261E1,1.06144066408060755E0,2.68157680776272045E1));
#156=(BOUNDED_CURVE()B_SPLINE_CURVE(2,(#153,#154,#155),.UNSPECIFIED.,.F.,.F.)B_SPLINE_CURVE_WITH_KNOTS((3,3),(0.00000000000000000E0,1.00000000000000000E0),.UNSPECIFIED.)CURVE()GEOMETRIC_REPRESENTATION_ITEM()RATIONAL_B_SPLINE_CURVE((2.00000000000000000E0,1.00000000000000000E0,1.00000000000000000E0))REPRESENTATION_ITEM(''));
#157=(GEOMETRIC_REPRESENTATION_CONTEXT(2)REPRESENTATION_CONTEXT('','2D'));
#158=CARTESIAN_POINT('',(0.00000000000000000E0,0.00000000000000000E0));
#159=CARTESIAN_POINT('',(1.00000000000000000E0,0.00000000000000000E0));
#160=B_SPLINE_CURVE_WITH_KNOTS('',1,(#158,#159),.UNSPECIFIED.,.F.,.F.,(2,2),(0.00000000000000000E0,1.00000000000000000E0),.UNSPECIFIED.);
#161=DEFINITIONAL_REPRESENTATION('',(#160),#157);
#162=PCURVE('',#31,#161);
#163=CARTESIAN_POINT('',(1.00000000000000000E0,0.00000000000000000E0));
#164=CARTESIAN_POINT('',(1.00000000000000000E0,8.75000000000000000E-1));
#165=B_SPLINE_CURVE_WITH_KNOTS('',1,(#163,#164),.UNSPECIFIED.,.F.,.F.,(2,2),(0.00000000000000000E0,1.00000000000000000E0),.UNSPECIFIED.);
#166=DEFINITIONAL_REPRESENTATION('',(#165),#157);
#167=PCURVE('',#31,#166);
#168=CARTESIAN_POINT('',(1.00000000000000000E0,8.75000000000000000E-1));
#169=CARTESIAN_POINT('',(1.00000000000000000E0,1.00000000000000000E0));
#170=CARTESIAN_POINT('',(9.00000000000000022E-1,1.00000000000000000E0));
#171=(BOUNDED_CURVE()B_SPLINE_CURVE(2,(#168,#169,#170),.UNSPECIFIED.,.F.,.F.)B_SPLINE_CURVE_WITH_KNOTS((3,3),(0.00000000000000000E0,1.00000000000000000E0),.UNSPECIFIED.)CURVE()GEOMETRIC_REPRESENTATION_ITEM()RATIONAL_B_SPLINE_CURVE((1.00000000000000000E0,7.07106781186547573E-1,1.00000000000000000E0))REPRESENTATION_ITEM(''));
#172=DEFINITIONAL_REPRESENTATION('',(#171),#157);
#173=PCURVE('',#31,#172);
#174=CARTESIAN_POINT('',(9.00000000000000022E-1,1.00000000000000000E0));
#175=CARTESIAN_POINT('',(0.00000000000000000E0,1.00000000000000000E0));
#176=B_SPLINE_CURVE_WITH_KNOTS('',1,(#174,#175),.UNSPECIFIED.,.F.,.F.,(2,2),(0.00000000000000000E0,1.00000000000000000E0),.UNSPECIFIED.);
#177=DEFINITIONAL_REPRESENTATION('',(#176),#157);
#178=PCURVE('',#31,#177);
#179=CARTESIAN_POINT('',(0.00000000000000000E0,1.00000000000000000E0));
#180=CARTESIAN_POINT('',(0.00000000000000000E0,0.00000000000000000E0));
#181=B_SPLINE_CURVE_WITH_KNOTS('',1,(#179,#180),.UNSPECIFIED.,.F.,.F.,(2,2),(0.00000000000000000E0,1.00000000000000000E0),.UNSPECIFIED.);
#182=DEFINITIONAL_REPRESENTATION('',(#181),#157);
#183=PCURVE('',#31,#182);
#184=CARTESIAN_POINT('',(1.00000000000000000E0,0.00000000000000000E0));
#185=CARTESIAN_POINT('',(1.00000000000000000E0,8.75000000000000000E-1));
#186=B_SPLINE_CURVE_WITH_KNOTS('',1,(#184,#185),.UNSPECIFIED.,.F.,.F.,(2,2),(0.00000000000000000E0,1.00000000000000000E0),.UNSPECIFIED.);
#187=DEFINITIONAL_REPRESENTATION('',(#186),#157);
#188=PCURVE('',#36,#187);
#189=CARTESIAN_POINT('',(1.00000000000000000E0,8.75000000000000000E-1));
#190=CARTESIAN_POINT('',(9.99999999999999778E-2,8.75000000000000000E-1));
#191=B_SPLINE_CURVE_WITH_KNOTS('',1,(#189,#190),.UNSPECIFIED.,.F.,.F.,(2,2),(0.00000000000000000E0,1.00000000000000000E0),.UNSPECIFIED.);
#192=DEFINITIONAL_REPRESENTATION('',(#191),#157);
#193=PCURVE('',#36,#192);
#194=CARTESIAN_POINT('',(9.99999999999999778E-2,8.75000000000000000E-1));
#195=CARTESIAN_POINT('',(9.99999999999999778E-2,0.00000000000000000E0));
#196=B_SPLINE_CURVE_WITH_KNOTS('',1,(#194,#195),.UNSPECIFIED.,.F.,.F.,(2,2),(0.00000000000000000E0,1.00000000000000000E0),.UNSPECIFIED.);
#197=DEFINITIONAL_REPRESENTATION('',(#196),#157);
#198=PCURVE('',#36,#197);
#199=CARTESIAN_POINT('',(9.99999999999999778E-2,0.00000000000000000E0));
#200=CARTESIAN_POINT('',(1.00000000000000000E0,0.00000000000000000E0));
#201=B_SPLINE_CURVE_WITH_KNOTS('',1,(#199,#200),.UNSPECIFIED.,.F.,.F.,(2,2),(0.00000000000000000E0,1.00000000000000000E0),.UNSPECIFIED.);
#202=DEFINITIONAL_REPRESENTATION('',(#201),#157);
#203=PCURVE('',#36,#202);
#204=CARTESIAN_POINT('',(0.00000000000000000E0,0.00000000000000000E0));
#205=CARTESIAN_POINT('',(1.00000000000000000E0,0.00000000000000000E0));
#206=B_SPLINE_CURVE_WITH_KNOTS('',1,(#204,#205),.UNSPECIFIED.,.F.,.F.,(2,2),(0.00000000000000000E0,1.00000000000000000E0),.UNSPECIFIED.);
#207=DEFINITIONAL_REPRESENTATION('',(#206),#157);
#208=PCURVE('',#41,#207);
#209=CARTESIAN_POINT('',(1.00000000000000000E0,0.00000000000000000E0));
#210=CARTESIAN_POINT('',(1.00000000000000000E0,8.33333333333333370E-1));
#211=B_SPLINE_CURVE_WITH_KNOTS('',1,(#209,#210),.UNSPECIFIED.,.F.,.F.,(2,2),(0.00000000000000000E0,1.00000000000000000E0),.UNSPECIFIED.);
#212=DEFINITIONAL_REPRESENTATION('',(#211),#157);
#213=PCURVE('',#41,#212);
#214=CARTESIAN_POINT('',(1.00000000000000000E0,8.33333333333333370E-1));
#215=CARTESIAN_POINT('',(1.00000000000000000E0,1.00000000000000000E0));
#216=CARTESIAN_POINT('',(8.75000000000000000E-1,1.00000000000000000E0));
#217=(BOUNDED_CURVE()B_SPLINE_CURVE(2,(#214,#215,#216),.UNSPECIFIED.,.F.,.F.)B_SPLINE_CURVE_WITH_KNOTS((3,3),(0.00000000000000000E0,1.00000000000000000E0),.UNSPECIFIED.)CURVE()GEOMETRIC_REPRESENTATION_ITEM()RATIONAL_B_SPLINE_CURVE((2.00000000000000000E0,1.00000000000000000E0,1.00000000000000000E0))REPRESENTATION_ITEM(''));
#218=DEFINITIONAL_REPRESENTATION('',(#217),#157);
#219=PCURVE('',#41,#218);
#220=CARTESIAN_POINT('',(8.75000000000000000E-1,1.00000000000000000E0));
#221=CARTESIAN_POINT('',(0.00000000000000000E0,1.00000000000000000E0));
#222=B_SPLINE_CURVE_WITH_KNOTS('',1,(#220,#221),.UNSPECIFIED.,.F.,.F.,(2,2),(0.00000000000000000E0,1.00000000000000000E0),.UNSPECIFIED.);
#223=DEFINITIONAL_REPRESENTATION('',(#222),#157);
#224=PCURVE('',#41,#223);
#225=CARTESIAN_POINT('',(0.00000000000000000E0,1.00000000000000000E0));
#226=CARTESIAN_POINT('',(0.00000000000000000E0,0.00000000000000000E0));
#227=B_SPLINE_CURVE_WITH_KNOTS('',1,(#225,#226),.UNSPECIFIED.,.F.,.F.,(2,2),(0.00000000000000000E0,1.00000000000000000E0),.UNSPECIFIED.);
#228=DEFINITIONAL_REPRESENTATION('',(#227),#157);
#229=PCURVE('',#41,#228);
#230=CARTESIAN_POINT('',(1.00000000000000000E0,0.00000000000000000E0));
#231=CARTESIAN_POINT('',(1.00000000000000000E0,1.00000000000000000E0));
#232=B_SPLINE_CURVE_WITH_KNOTS('',1,(#230,#231),.UNSPECIFIED.,.F.,.F.,(2,2),(0.00000000000000000E0,1.00000000000000000E0),.UNSPECIFIED.);
#233=DEFINITIONAL_REPRESENTATION('',(#232),#157);
#234=PCURVE('',#46,#233);
#235=CARTESIAN_POINT('',(1.00000000000000000E0,1.00000000000000000E0));
#236=CARTESIAN_POINT('',(9.99999999999999778E-2,1.00000000000000000E0));
#237=B_SPLINE_CURVE_WITH_KNOTS('',1,(#235,#236),.UNSPECIFIED.,.F.,.F.,(2,2),(0.00000000000000000E0,1.00000000000000000E0),.UNSPECIFIED.);
#238=DEFINITIONAL_REPRESENTATION('',(#237),#157);
#239=PCURVE('',#46,#238);
#240=CARTESIAN_POINT('',(9.99999999999999778E-2,1.00000000000000000E0));
#241=CARTESIAN_POINT('',(0.00000000000000000E0,1.00000000000000000E0));
#242=CARTESIAN_POINT('',(0.00000000000000000E0,8.33333333333333370E-1));
#243=(BOUNDED_CURVE()B_SPLINE_CURVE(2,(#240,#241,#242),.UNSPECIFIED.,.F.,.F.)B_SPLINE_CURVE_WITH_KNOTS((3,3),(0.00000000000000000E0,1.00000000000000000E0),.UNSPECIFIED.)CURVE()GEOMETRIC_REPRESENTATION_ITEM()RATIONAL_B_SPLINE_CURVE((1.00000000000000000E0,1.00000000000000000E0,2.00000000000000000E0))REPRESENTATION_ITEM(''));
#244=DEFINITIONAL_REPRESENTATION('',(#243),#157);
#245=PCURVE('',#46,#244);
#246=CARTESIAN_POINT('',(0.00000000000000000E0,8.33333333333333370E-1));
#247=CARTESIAN_POINT('',(0.00000000000000000E0,0.00000000000000000E0));
#248=B_SPLINE_CURVE_WITH_KNOTS('',1,(#246,#247),.UNSPECIFIED.,.F.,.F.,(2,2),(0.00000000000000000E0,1.00000000000000000E0),.UNSPECIFIED.);
#249=DEFINITIONAL_REPRESENTATION('',(#248),#157);
#250=PCURVE('',#46,#249);
#251=CARTESIAN_POINT('',(0.00000000000000000E0,0.00000000000000000E0));
#252=CARTESIAN_POINT('',(1.00000000000000000E0,0.00000000000000000E0));
#253=B_SPLINE_CURVE_WITH_KNOTS('',1,(#251,#252),.UNSPECIFIED.,.F.,.F.,(2,2),(0.00000000000000000E0,1.00000000000000000E0),.UNSPECIFIED.);
#254=DEFINITIONAL_REPRESENTATION('',(#253),#157);
#255=PCURVE('',#46,#254);
#256=CARTESIAN_POINT('',(1.00000000000000000E0,0.00000000000000000E0));
#257=CARTESIAN_POINT('',(1.00000000000000000E0,8.33333333333333370E-1));
#258=B_SPLINE_CURVE_WITH_KNOTS('',1,(#256,#257),.UNSPECIFIED.,.F.,.F.,(2,2),(0.00000000000000000E0,1.00000000000000000E0),.UNSPECIFIED.);
#259=DEFINITIONAL_REPRESENTATION('',(#258),#157);
#260=PCURVE('',#51,#259);
#261=CARTESIAN_POINT('',(1.00000000000000000E0,8.33333333333333370E-1));
#262=CARTESIAN_POINT('',(1.25000000000000000E-1,8.33333333333333370E-1));
#263=B_SPLINE_CURVE_WITH_KNOTS('',1,(#261,#262),.UNSPECIFIED.,.F.,.F.,(2,2),(0.00000000000000000E0,1.00000000000000000E0),.UNSPECIFIED.);
#264=DEFINITIONAL_REPRESENTATION('',(#263),#157);
#265=PCURVE('',#51,#264);
#266=CARTESIAN_POINT('',(1.25000000000000000E-1,8.33333333333333370E-1));
#267=CARTESIAN_POINT('',(1.25000000000000000E-1,0.00000000000000000E0));
#268=B_SPLINE_CURVE_WITH_KNOTS('',1,(#266,#267),.UNSPECIFIED.,.F.,.F.,(2,2),(0.00000000000000000E0,1.00000000000000000E0),.UNSPECIFIED.);
#269=DEFINITIONAL_REPRESENTATION('',(#268),#157);
#270=PCURVE('',#51,#269);
#271=CARTESIAN_POINT('',(1.25000000000000000E-1,0.00000000000000000E0));
#272=CARTESIAN_POINT('',(1.00000000000000000E0,0.00000000000000000E0));
#273=B_SPLINE_CURVE_WITH_KNOTS('',1,(#271,#272),.UNSPECIFIED.,.F.,.F.,(2,2),(0.00000000000000000E0,1.00000000000000000E0),.UNSPECIFIED.);
#274=DEFINITIONAL_REPRESENTATION('',(#273),#157);
#275=PCURVE('',#51,#274);
#276=CARTESIAN_POINT('',(0.00000000000000000E0,0.00000000000000000E0));
#277=CARTESIAN_POINT('',(9.00000000000000022E-1,0.00000000000000000E0));
#278=B_SPLINE_CURVE_WITH_KNOTS('',1,(#276,#277),.UNSPECIFIED.,.F.,.F.,(2,2),(0.00000000000000000E0,1.00000000000000000E0),.UNSPECIFIED.);
#279=DEFINITIONAL_REPRESENTATION('',(#278),#157);
#280=PCURVE('',#56,#279);
#281=CARTESIAN_POINT('',(9.00000000000000022E-1,0.00000000000000000E0));
#282=CARTESIAN_POINT('',(9.00000000000000022E-1,8.33333333333333370E-1));
#283=B_SPLINE_CURVE_WITH_KNOTS('',1,(#281,#282),.UNSPECIFIED.,.F.,.F.,(2,2),(0.00000000000000000E0,1.00000000000000000E0),.UNSPECIFIED.);
#284=DEFINITIONAL_REPRESENTATION('',(#283),#157);
#285=PCURVE('',#56,#284);
#286=CARTESIAN_POINT('',(9.00000000000000022E-1,8.33333333333333370E-1));
#287=CARTESIAN_POINT('',(0.00000000000000000E0,8.33333333333333370E-1));
#288=B_SPLINE_CURVE_WITH_KNOTS('',1,(#286,#287),.UNSPECIFIED.,.F.,.F.,(2,2),(0.00000000000000000E0,1.00000000000000000E0),.UNSPECIFIED.);
#289=DEFINITIONAL_REPRESENTATION('',(#288),#157);
#290=PCURVE('',#56,#289);
#291=CARTESIAN_POINT('',(0.00000000000000000E0,8.33333333333333370E-1));
#292=CARTESIAN_POINT('',(0.00000000000000000E0,0.00000000000000000E0));
#293=B_SPLINE_CURVE_WITH_KNOTS('',1,(#291,#292),.UNSPECIFIED.,.F.,.F.,(2,2),(0.00000000000000000E0,1.00000000000000000E0),.UNSPECIFIED.);
#294=DEFINITIONAL_REPRESENTATION('',(#293),#157);
#295=PCURVE('',#56,#294);
#296=CARTESIAN_POINT('',(1.00000000000000000E0,0.00000000000000000E0));
#297=CARTESIAN_POINT('',(1.00000000000000000E0,1.00000000000000000E0));
#298=B_SPLINE_CURVE_WITH_KNOTS('',1,(#296,#297),.UNSPECIFIED.,.F.,.F.,(2,2),(0.00000000000000000E0,1.00000000000000000E0),.UNSPECIFIED.);
#299=DEFINITIONAL_REPRESENTATION('',(#298),#157);
#300=PCURVE('',#63,#299);
#301=CARTESIAN_POINT('',(1.00000000000000000E0,1.00000000000000000E0));
#302=CARTESIAN_POINT('',(0.00000000000000000E0,1.00000000000000000E0));
#303=B_SPLINE_CURVE_WITH_KNOTS('',1,(#301,#302),.UNSPECIFIED.,.F.,.F.,(2,2),(0.00000000000000000E0,1.00000000000000000E0),.UNSPECIFIED.);
#304=DEFINITIONAL_REPRESENTATION('',(#303),#157);
#305=PCURVE('',#63,#304);
#306=CARTESIAN_POINT('',(0.00000000000000000E0,1.00000000000000000E0));
#307=CARTESIAN_POINT('',(0.00000000000000000E0,0.00000000000000000E0));
#308=B_SPLINE_CURVE_WITH_KNOTS('',1,(#306,#307),.UNSPECIFIED.,.F.,.F.,(2,2),(0.00000000000000000E0,1.00000000000000000E0),.UNSPECIFIED.);
#309=DEFINITIONAL_REPRESENTATION('',(#308),#157);
#310=PCURVE('',#63,#309);
#311=CARTESIAN_POINT('',(0.00000000000000000E0,0.00000000000000000E0));
#312=CARTESIAN_POINT('',(1.00000000000000000E0,0.00000000000000000E0));
#313=B_SPLINE_CURVE_WITH_KNOTS('',1,(#311,#312),.UNSPECIFIED.,.F.,.F.,(2,2),(0.00000000000000000E0,1.00000000000000000E0),.UNSPECIFIED.);
#314=DEFINITIONAL_REPRESENTATION('',(#313),#157);
#315=PCURVE('',#63,#314);
#316=CARTESIAN_POINT('',(0.00000000000000000E0,0.00000000000000000E0));
#317=CARTESIAN_POINT('',(1.00000000000000000E0,0.00000000000000000E0));
#318=B_SPLINE_CURVE_WITH_KNOTS('',1,(#316,#317),.UNSPECIFIED.,.F.,.F.,(2,2),(0.00000000000000000E0,1.00000000000000000E0),.UNSPECIFIED.);
#319=DEFINITIONAL_REPRESENTATION('',(#318),#157);
#320=PCURVE('',#70,#319);
#321=CARTESIAN_POINT('',(1.00000000000000000E0,0.00000000000000000E0));
#322=CARTESIAN_POINT('',(1.00000000000000000E0,1.00000000000000000E0));
#323=B_SPLINE_CURVE_WITH_KNOTS('',1,(#321,#322),.UNSPECIFIED.,.F.,.F.,(2,2),(0.00000000000000000E0,1.00000000000000000E0),.UNSPECIFIED.);
#324=DEFINITIONAL_REPRESENTATION('',(#323),#157);
#325=PCURVE('',#70,#324);
#326=CARTESIAN_POINT('',(1.00000000000000000E0,1.00000000000000000E0));
#327=CARTESIAN_POINT('',(0.00000000000000000E0,1.00000000000000000E0));
#328=B_SPLINE_CURVE_WITH_KNOTS('',1,(#326,#327),.UNSPECIFIED.,.F.,.F.,(2,2),(0.00000000000000000E0,1.00000000000000000E0),.UNSPECIFIED.);
#329=DEFINITIONAL_REPRESENTATION('',(#328),#157);
#330=PCURVE('',#70,#329);
#331=CARTESIAN_POINT('',(0.00000000000000000E0,1.00000000000000000E0));
#332=CARTESIAN_POINT('',(0.00000000000000000E0,0.00000000000000000E0));
#333=B_SPLINE_CURVE_WITH_KNOTS('',1,(#331,#332),.UNSPECIFIED.,.F.,.F.,(2,2),(0.00000000000000000E0,1.00000000000000000E0),.UNSPECIFIED.);
#334=DEFINITIONAL_REPRESENTATION('',(#333),#157);
#335=PCURVE('',#70,#334);
#336=CARTESIAN_POINT('',(1.00000000000000000E0,0.00000000000000000E0));
#337=CARTESIAN_POINT('',(1.00000000000000000E0,1.00000000000000000E0));
#338=B_SPLINE_CURVE_WITH_KNOTS('',1,(#336,#337),.UNSPECIFIED.,.F.,.F.,(2,2),(0.00000000000000000E0,1.00000000000000000E0),.UNSPECIFIED.);
#339=DEFINITIONAL_REPRESENTATION('',(#338),#157);
#340=PCURVE('',#77,#339);
#341=CARTESIAN_POINT('',(1.00000000000000000E0,1.00000000000000000E0));
#342=CARTESIAN_POINT('',(0.00000000000000000E0,1.00000000000000000E0));
#343=B_SPLINE_CURVE_WITH_KNOTS('',1,(#341,#342),.UNSPECIFIED.,.F.,.F.,(2,2),(0.00000000000000000E0,1.00000000000000000E0),.UNSPECIFIED.);
#344=DEFINITIONAL_REPRESENTATION('',(#343),#157);
#345=PCURVE('',#77,#344);
#346=CARTESIAN_POINT('',(0.00000000000000000E0,1.00000000000000000E0));
#347=CARTESIAN_POINT('',(0.00000000000000000E0,0.00000000000000000E0));
#348=B_SPLINE_CURVE_WITH_KNOTS('',1,(#346,#347),.UNSPECIFIED.,.F.,.F.,(2,2),(0.00000000000000000E0,1.00000000000000000E0),.UNSPECIFIED.);
#349=DEFINITIONAL_REPRESENTATION('',(#348),#157);
#350=PCURVE('',#77,#349);
#351=CARTESIAN_POINT('',(0.00000000000000000E0,0.00000000000000000E0));
#352=CARTESIAN_POINT('',(1.00000000000000000E0,0.00000000000000000E0));
#353=B_SPLINE_CURVE_WITH_KNOTS('',1,(#351,#352),.UNSPECIFIED.,.F.,.F.,(2,2),(0.00000000000000000E0,1.00000000000000000E0),.UNSPECIFIED.);
#354=DEFINITIONAL_REPRESENTATION('',(#353),#157);
#355=PCURVE('',#77,#354);
#356=CARTESIAN_POINT('',(1.00000000000000000E0,0.00000000000000000E0));
#357=CARTESIAN_POINT('',(1.00000000000000000E0,1.00000000000000000E0));
#358=B_SPLINE_CURVE_WITH_KNOTS('',1,(#356,#357),.UNSPECIFIED.,.F.,.F.,(2,2),(0.00000000000000000E0,1.00000000000000000E0),.UNSPECIFIED.);
#359=DEFINITIONAL_REPRESENTATION('',(#358),#157);
#360=PCURVE('',#87,#359);
#361=CARTESIAN_POINT('',(1.00000000000000000E0,1.00000000000000000E0));
#362=CARTESIAN_POINT('',(0.00000000000000000E0,1.00000000000000000E0));
#363=CARTESIAN_POINT('',(0.00000000000000000E0,0.00000000000000000E0));
#364=(BOUNDED_CURVE()B_SPLINE_CURVE(2,(#361,#362,#363),.UNSPECIFIED.,.F.,.F.)B_SPLINE_CURVE_WITH_KNOTS((3,3),(0.00000000000000000E0,1.00000000000000000E0),.UNSPECIFIED.)CURVE()GEOMETRIC_REPRESENTATION_ITEM()RATIONAL_B_SPLINE_CURVE((1.00000000000000000E0,7.07106781186547573E-1,1.00000000000000000E0))REPRESENTATION_ITEM(''));
#365=DEFINITIONAL_REPRESENTATION('',(#364),#157);
#366=PCURVE('',#87,#365);
#367=CARTESIAN_POINT('',(0.00000000000000000E0,0.00000000000000000E0));
#368=CARTESIAN_POINT('',(1.00000000000000000E0,0.00000000000000000E0));
#369=B_SPLINE_CURVE_WITH_KNOTS('',1,(#367,#368),.UNSPECIFIED.,.F.,.F.,(2,2),(0.00000000000000000E0,1.00000000000000000E0),.UNSPECIFIED.);
#370=DEFINITIONAL_REPRESENTATION('',(#369),#157);
#371=PCURVE('',#87,#370);
#372=SURFACE_CURVE('',#90,(#162,#255),.PCURVE_S1.);
#373=EDGE_CURVE('OSCAD_TOPO/3|edge|e:6155ce5157770d5bd891a505bf093716|80e65de44461e5d5826fb59dc799a295b530d06b12fbda0f2db637c91326edd4',#2,#4,#372,.T.);
#374=SURFACE_CURVE('',#93,(#167,#275),.PCURVE_S1.);
#375=EDGE_CURVE('OSCAD_TOPO/3|edge|e:f54b436ae830bd38e81236633bc96551|6619da997ad18fd99dd7d921a421f8e0a86dcd8eef1069d6312da2b47f2b4a08',#4,#10,#374,.T.);
#376=SURFACE_CURVE('',#96,(#178,#280),.PCURVE_S1.);
#377=EDGE_CURVE('OSCAD_TOPO/3|edge|e:952f0c90d51efc52a5fbe4fdf1624e27|de3cc86b259b2ef70782c15f303cf5427d53834c09d9569ecde0edb46ff2cbb3',#6,#12,#376,.T.);
#378=SURFACE_CURVE('',#99,(#183,#208),.PCURVE_S1.);
#379=EDGE_CURVE('OSCAD_TOPO/3|edge|e:fbc904ffba1f4ddf4043f1066115869e|724709349dd94a6c2e611f99599e923cb51843ab31c501d4df09208a632275e0',#2,#6,#378,.T.);
#380=SURFACE_CURVE('',#102,(#229,#234),.PCURVE_S1.);
#381=EDGE_CURVE('OSCAD_TOPO/3|edge|e:bcf355f264c1bc09b7dc19985b3e49db|1bcd1db829a83afd701e40e5b30cb8fb76b92b72584d17aa889573b51ab828e3',#2,#8,#380,.T.);
#382=SURFACE_CURVE('',#105,(#250,#260),.PCURVE_S1.);
#383=EDGE_CURVE('OSCAD_TOPO/3|edge|e:07c62078007b04a87a8630e96163227c|883d44b948ce75e9ef21ce33d739891722e00b3dbdd85f36df5c4b5095b38d23',#4,#20,#382,.T.);
#384=SURFACE_CURVE('',#108,(#265,#335),.PCURVE_S1.);
#385=EDGE_CURVE('OSCAD_TOPO/3|edge|e:75016291b1ac1e771e0711d54d397bae|0856e284811c30402575eba425f520e59afc289426e3ebf871188d80775a51b7',#14,#20,#384,.T.);
#386=SURFACE_CURVE('',#111,(#270,#300),.PCURVE_S1.);
#387=EDGE_CURVE('OSCAD_TOPO/3|edge|e:1cbca7f9cd159b7b29b6c9e99396c7ad|95797ccacd93a1c89e60d653b42e9bf459b3d2f4853613763c7b5a0ae6610cfd',#10,#14,#386,.T.);
#388=SURFACE_CURVE('',#114,(#285,#310),.PCURVE_S1.);
#389=EDGE_CURVE('OSCAD_TOPO/3|edge|e:8f30d275f986a31cacf110f6f89f3002|edd5b04fc1c83324e1382352539d3b90e8e5b07f72a7dbbd440bd2165e31a35d',#12,#16,#388,.T.);
#390=SURFACE_CURVE('',#117,(#213,#295),.PCURVE_S1.);
#391=EDGE_CURVE('OSCAD_TOPO/3|edge|e:a1cb404e082210db56c707e399106038|09b06aa68a344818727a1829f59722e07ff17ce8b2d566cf7d0e7e68665ed4fc',#6,#24,#390,.T.);
#392=SURFACE_CURVE('',#120,(#290,#340),.PCURVE_S1.);
#393=EDGE_CURVE('OSCAD_TOPO/3|edge|e:d96659d21b6b99fe52a7406afe4978b2|427d5c56c6c9a185736649b3eb10090b62e2745b8f14254d5fedd6dcd830a489',#16,#24,#392,.T.);
#394=SURFACE_CURVE('',#123,(#203,#239),.PCURVE_S1.);
#395=EDGE_CURVE('OSCAD_TOPO/3|edge|e:695ac67312e2a0678aea750998c72dc0|2a4a11d98ff3a77a9d8f1c0db237414f1af67ec1512836c29425d6f09e257e0b',#8,#22,#394,.T.);
#396=SURFACE_CURVE('',#126,(#198,#325),.PCURVE_S1.);
#397=EDGE_CURVE('OSCAD_TOPO/3|edge|e:bca333fbcd14110e030225bf42407afc|5d87298e11c43d625fc2335d1e9313dbc255c0a9eb0c1163f2be1138fe4acd87',#18,#22,#396,.T.);
#398=SURFACE_CURVE('',#129,(#188,#224),.PCURVE_S1.);
#399=EDGE_CURVE('OSCAD_TOPO/3|edge|e:b9ada323c10b4760cb1f793ef04b6df1|8cfb9430ca410c36f149f640f01ace680aa58d899a9eeebac7165f87773e1fde',#8,#26,#398,.T.);
#400=SURFACE_CURVE('',#132,(#193,#350),.PCURVE_S1.);
#401=EDGE_CURVE('OSCAD_TOPO/3|edge|e:6e810e17604d2b426c56c5c5cc1626d7|9020a22f6561a64cca9cd99c043fe209847d83b24bfcad0ee32346df72449499',#18,#26,#400,.T.);
#402=SURFACE_CURVE('',#136,(#173,#315),.PCURVE_S1.);
#403=EDGE_CURVE('OSCAD_TOPO/3|edge|e:8b6ffbce33da0fbeea4a64eac4ca22d2|6cfa7a58142991dac122ff9e3d6672fa3f559850e7d22751c683a95effac400a',#10,#12,#402,.T.);
#404=SURFACE_CURVE('',#140,(#305,#366),.PCURVE_S1.);
#405=EDGE_CURVE('OSCAD_TOPO/3|edge|e:bc3ee3d5822aed7f953a6beb5ad5602c|6dff8ac0846e836cc264e8562691e43c5e94d159446fb6d2b8e5d8d83dc48a8d',#14,#16,#404,.T.);
#406=SURFACE_CURVE('',#144,(#330,#371),.PCURVE_S1.);
#407=EDGE_CURVE('OSCAD_TOPO/3|edge|e:c814807a4c05e713716da4f6de5c58bc|85cd971905aa417992834797ca131aa63f9540868c0c9e9d716c61d87b567762',#14,#18,#406,.T.);
#408=SURFACE_CURVE('',#148,(#345,#360),.PCURVE_S1.);
#409=EDGE_CURVE('OSCAD_TOPO/3|edge|e:09e1dfc2b7002326388ff96cce8c2b1e|7f1d2cbf1932dc81101701ab8d4d8f84e65bc18f2760dfffa7ab0b8fa408dd1e',#16,#18,#408,.T.);
#410=SURFACE_CURVE('',#152,(#245,#320),.PCURVE_S1.);
#411=EDGE_CURVE('OSCAD_TOPO/3|edge|e:a2288a33c6d9a0ef5b06ef52adb849bd|e36b05efeeb1163e25c0f5bb5b73c9833749d89f00cd3e7970797f567d61c4d5',#20,#22,#410,.T.);
#412=SURFACE_CURVE('',#156,(#219,#355),.PCURVE_S1.);
#413=EDGE_CURVE('OSCAD_TOPO/3|edge|e:5d04fba070b0ccf6dec7f9a11d961b03|1e0e52b9fb10738decbe0a8aae85585bb0e974932a51dd6bad8815dc61ff5cb1',#24,#26,#412,.T.);
#414=ORIENTED_EDGE('',*,*,#373,.T.);
#415=ORIENTED_EDGE('',*,*,#375,.T.);
#416=ORIENTED_EDGE('',*,*,#403,.T.);
#417=ORIENTED_EDGE('',*,*,#377,.F.);
#418=ORIENTED_EDGE('',*,*,#379,.F.);
#419=EDGE_LOOP('OSCAD_TOPO/3|loop|l:fe7c4360d0741de652c2403b92502e09|4e3a2f0611523c2e4a6b1818d55f2ddfc656f6aecfff0fc5801bb34ab18245ca',(#414,#415,#416,#417,#418));
#420=ORIENTED_EDGE('',*,*,#399,.T.);
#421=ORIENTED_EDGE('',*,*,#401,.F.);
#422=ORIENTED_EDGE('',*,*,#397,.T.);
#423=ORIENTED_EDGE('',*,*,#395,.F.);
#424=EDGE_LOOP('OSCAD_TOPO/3|loop|l:1b3feaee8e7275676084ff8bcc0b1afd|feaf6407b5620ed08b91f6acf8c504ad347e7570a37b69f079ab456db2db2662',(#420,#421,#422,#423));
#425=ORIENTED_EDGE('',*,*,#379,.T.);
#426=ORIENTED_EDGE('',*,*,#391,.T.);
#427=ORIENTED_EDGE('',*,*,#413,.T.);
#428=ORIENTED_EDGE('',*,*,#399,.F.);
#429=ORIENTED_EDGE('',*,*,#381,.F.);
#430=EDGE_LOOP('OSCAD_TOPO/3|loop|l:59693706b744b6e75e9d30363214dd14|d5112b36eb325fba126df99bfcbe61958dce9f5ee0165d9c11f9187fc04bb048',(#425,#426,#427,#428,#429));
#431=ORIENTED_EDGE('',*,*,#381,.T.);
#432=ORIENTED_EDGE('',*,*,#395,.T.);
#433=ORIENTED_EDGE('',*,*,#411,.F.);
#434=ORIENTED_EDGE('',*,*,#383,.F.);
#435=ORIENTED_EDGE('',*,*,#373,.F.);
#436=EDGE_LOOP('OSCAD_TOPO/3|loop|l:c6f1a2eb2529c73120803a455e6c8902|28d4b5c6b3ddbe7dfd8894b6a66955c30b22cdbfd8c7b67f97c7821ff2d35956',(#431,#432,#433,#434,#435));
#437=ORIENTED_EDGE('',*,*,#383,.T.);
#438=ORIENTED_EDGE('',*,*,#385,.F.);
#439=ORIENTED_EDGE('',*,*,#387,.F.);
#440=ORIENTED_EDGE('',*,*,#375,.F.);
#441=EDGE_LOOP('OSCAD_TOPO/3|loop|l:5eb84735353619d01df238faae4c5761|8d828ad21ea4900017c67be88a48132446956ed83a14598b0ca0b9ad971ef3fe',(#437,#438,#439,#440));
#442=ORIENTED_EDGE('',*,*,#377,.T.);
#443=ORIENTED_EDGE('',*,*,#389,.T.);
#444=ORIENTED_EDGE('',*,*,#393,.T.);
#445=ORIENTED_EDGE('',*,*,#391,.F.);
#446=EDGE_LOOP('OSCAD_TOPO/3|loop|l:0a7e918643ca8ecb6284fdc8aab6f1ef|3b53b06d1fe27447606d5711df735579d020eb184ae42b6497e26305d1068190',(#442,#443,#444,#445));
#447=ORIENTED_EDGE('',*,*,#387,.T.);
#448=ORIENTED_EDGE('',*,*,#405,.T.);
#449=ORIENTED_EDGE('',*,*,#389,.F.);
#450=ORIENTED_EDGE('',*,*,#403,.F.);
#451=EDGE_LOOP('OSCAD_TOPO/3|loop|l:d4fe3d5c6dd2ff46f54a873b97c901a1|42df119cb8b3b0e1a62ec5a0d1f7a22604a56f530db9d32a2a516bb255b24142',(#447,#448,#449,#450));
#452=ORIENTED_EDGE('',*,*,#411,.T.);
#453=ORIENTED_EDGE('',*,*,#397,.F.);
#454=ORIENTED_EDGE('',*,*,#407,.F.);
#455=ORIENTED_EDGE('',*,*,#385,.T.);
#456=EDGE_LOOP('OSCAD_TOPO/3|loop|l:3dff23cfb8af38184ff30c2a8d8d6174|7db6eae485b9bae3dd6e8ecee9ad730d54652e627a998f24589fe6e0f1e97898',(#452,#453,#454,#455));
#457=ORIENTED_EDGE('',*,*,#393,.F.);
#458=ORIENTED_EDGE('',*,*,#409,.T.);
#459=ORIENTED_EDGE('',*,*,#401,.T.);
#460=ORIENTED_EDGE('',*,*,#413,.F.);
#461=EDGE_LOOP('OSCAD_TOPO/3|loop|l:096962c6f1c8698684621626343be0ba|182f8b804b3e5fea04e4a25dfca2ec3ad12e5be2c8a15139ab61112b424bdc0b',(#457,#458,#459,#460));
#462=ORIENTED_EDGE('',*,*,#409,.F.);
#463=ORIENTED_EDGE('',*,*,#405,.F.);
#464=ORIENTED_EDGE('',*,*,#407,.T.);
#465=EDGE_LOOP('OSCAD_TOPO/3|loop|l:76560326f6ea545d7f55fae421bf0558|287b5b556e28c5afcdb94b5c673c6af5fc52b50813c0ad48573f5c168e5e98f3',(#462,#463,#464));
#466=FACE_OUTER_BOUND('',#419,.T.);
#467=ADVANCED_FACE('OSCAD_TOPO/3|face|f:5e634df11c00795be5797c1c4444da89|cec23e83497da3532267838c4c14abae0c2b66928d85cdbaaa65794eb8433784',(#466),#31,.T.);
#468=FACE_OUTER_BOUND('',#424,.T.);
#469=ADVANCED_FACE('OSCAD_TOPO/3|face|f:64eeef1b3a571ab3b229bcd999241cf6|b04406674e5dffab832b6c4c6849e3171c5b7842a2336871f7a828069a39238f',(#468),#36,.T.);
#470=FACE_OUTER_BOUND('',#430,.T.);
#471=ADVANCED_FACE('OSCAD_TOPO/3|face|f:11140a9671734634ea905060253bf100|371f7190c3cbf284457ea17a9327daa16efffcb1dc840fe729ca4814e23f250f',(#470),#41,.T.);
#472=FACE_OUTER_BOUND('',#436,.T.);
#473=ADVANCED_FACE('OSCAD_TOPO/3|face|f:3bc7b46d7fb2ca7455c50ebaeda73013|0b4e855317182b6f84a5cc032d39dc44917f75076a4701bacf8eca2170dacad4',(#472),#46,.T.);
#474=FACE_OUTER_BOUND('',#441,.T.);
#475=ADVANCED_FACE('OSCAD_TOPO/3|face|f:f5d674bf75ba8b30a49e98300194158c|b2cbbb761efebc17bb637687239de2943e42a41f6d866423991b01819d9b02fa',(#474),#51,.T.);
#476=FACE_OUTER_BOUND('',#446,.T.);
#477=ADVANCED_FACE('OSCAD_TOPO/3|face|f:d1b00782c4847c56a2a8071d2debdbef|61db12d1dd70eaca06904694d51d24cc9754fd09a9993e7594a5bd1a8bf3034a',(#476),#56,.T.);
#478=FACE_OUTER_BOUND('',#451,.T.);
#479=ADVANCED_FACE('OSCAD_TOPO/3|face|f:888c74c7e6722d3022384a5711d24c2d|9bffe2ef08769727a74737d67a6fe035c19b8811cf7a708fb84a32dfeb682c35',(#478),#63,.T.);
#480=FACE_OUTER_BOUND('',#456,.T.);
#481=ADVANCED_FACE('OSCAD_TOPO/3|face|f:bc45e78c9507c22dee69e0065a9d8670|c81a27ddddb37a0e70c04580aff52480342d998dd98bcf8327ad841ce367b2b3',(#480),#70,.T.);
#482=FACE_OUTER_BOUND('',#461,.T.);
#483=ADVANCED_FACE('OSCAD_TOPO/3|face|f:0951689c93361ac7eabd931f5fe4e71f|9226e4f3f94bb3e2d7ab1b102f179d68055f1918ad936a224d1230f89f1792f1',(#482),#77,.T.);
#484=FACE_OUTER_BOUND('',#465,.T.);
#485=ADVANCED_FACE('OSCAD_TOPO/3|face|f:fff4fe7bf7d3320c2342682b3177708e|8aa40baf32be39b533fd091bbc12383f4052711fcfca7d6afe96a34214a6288d',(#484),#87,.T.);
#486=CLOSED_SHELL('OSCAD_TOPO/3|shell|s:673aa1bf7ad0d39da76e68e3170c9936|1e45f3859e568e18f3a011e2d19cd096097f5338817ca67d6bac69ae1c3e7f73',(#467,#469,#471,#473,#475,#477,#479,#481,#483,#485));
#487=MANIFOLD_SOLID_BREP('OSCAD_TOPO/3|body|b:365f25b8af263918acecd55241fc0f3d|ceb1f7c8bb029209221f43b7be716fe2c977b133d0e51ef31c6ff43c47f89ba4',#486);
#488=(LENGTH_UNIT()NAMED_UNIT(*)SI_UNIT(.MILLI.,.METRE.));
#489=UNCERTAINTY_MEASURE_WITH_UNIT(LENGTH_MEASURE(9.99999999999999955E-8),#488,'distance_accuracy_value','');
#490=(GEOMETRIC_REPRESENTATION_CONTEXT(3)GLOBAL_UNCERTAINTY_ASSIGNED_CONTEXT((#489))GLOBAL_UNIT_ASSIGNED_CONTEXT((#488))REPRESENTATION_CONTEXT('','3D'));
#491=ADVANCED_BREP_SHAPE_REPRESENTATION('',(#487),#490);
#492=APPLICATION_CONTEXT('managed model based 3d engineering');
#493=PRODUCT_CONTEXT('',#492,'mechanical');
#494=PRODUCT('model','model','',(#493));
#495=PRODUCT_DEFINITION_FORMATION('1','',#494);
#496=PRODUCT_DEFINITION_CONTEXT('part definition',#492,'design');
#497=PRODUCT_DEFINITION('design','',#495,#496);
#498=PRODUCT_DEFINITION_SHAPE('','',#497);
#499=SHAPE_DEFINITION_REPRESENTATION(#498,#491);
ENDSEC;
END-ISO-10303-21;
