ISO-10303-21;
HEADER;
FILE_DESCRIPTION(('OpenSCAD Viewer retained AP242 B-rep'),'2;1');
FILE_NAME('model.step','',(''),(''),'OpenSCAD Viewer','OpenSCAD Viewer','');
FILE_SCHEMA(('AP242_MANAGED_MODEL_BASED_3D_ENGINEERING_MIM_LF'));
ENDSEC;
DATA;
#1=CARTESIAN_POINT('',(1.63829710277318945E1,2.55910834584944524E0,2.30793063446104867E1));
#2=VERTEX_POINT('OSCAD_TOPO/3|vertex|v:ac4c71c084712fe37181dd8281bc07ed|750e15020d398cd53e7a1208c9c093529010870513f0f6ed7592945931bbc5f2',#1);
#3=CARTESIAN_POINT('',(1.92758944834515908E1,-4.89951041899883144E0,2.30793063446104867E1));
#4=VERTEX_POINT('OSCAD_TOPO/3|vertex|v:abcff1dfa0fbaf69ff64c9d91ab5dc01|a2d8db8f8c41ac9a0e6378a1bb1b2b550649f461d2fd3833b4a43e4858ebbac1',#3);
#5=CARTESIAN_POINT('',(1.23982721361694779E1,-7.56708676729059349E0,1.79234992037061538E1));
#6=VERTEX_POINT('OSCAD_TOPO/3|vertex|v:9ce2d3bb41cd94ea361a6a8bf40dc749|d85d49cefcb976d62238739559b3bad9ea4f46368e940a1c3a5765a5947bed64',#5);
#7=CARTESIAN_POINT('',(1.12724764433953943E1,-6.93115679371697713E0,1.73506317436056712E1));
#8=VERTEX_POINT('OSCAD_TOPO/3|vertex|v:5270fb9c53cf608ea772810251d34548|c0327fb0fe202d206f398fb1f8df535058338d535e3632752b37b5d86bbb5fd4',#7);
#9=CARTESIAN_POINT('',(8.74116841964065827E0,-4.04865374474734807E-1,1.73506317436056712E1));
#10=VERTEX_POINT('OSCAD_TOPO/3|vertex|v:98f4eeab216d3f70fd0ff6f03448f170|dd2ae368b086eeccc4848502225716eb22f7015d18cd7c3eb49f03045b9f2a0e',#9);
#11=CARTESIAN_POINT('',(1.31783710369745783E1,1.31616206159200821E0,2.79971944516833666E1));
#12=VERTEX_POINT('OSCAD_TOPO/3|vertex|v:8c1692e0289cf142c4fa57eb127efaf4|24134f9b6dc9d7a3aed810cb4d2e338c52b2fc1362b9ccc3b89953f4f7609543',#11);
#13=CARTESIAN_POINT('',(6.30074868969246449E0,-1.35141428669975383E0,2.28413873107790302E1));
#14=VERTEX_POINT('OSCAD_TOPO/3|vertex|v:d21efe6c950069b03b3a384dedb55d8e|87fc1528658171ae8d0c012cca42719fb5315b1789e4bc9c639811de71cd5f7f',#13);
#15=CARTESIAN_POINT('',(8.83205671344719967E0,-7.87770570594199704E0,2.28413873107790302E1));
#16=VERTEX_POINT('OSCAD_TOPO/3|vertex|v:906fd5aefd4625a16fe9f966666df59b|5651887f147b3cd5400b00c610a60f98e00ddf159faed1639bb96c98459a98c1',#15);
#17=CARTESIAN_POINT('',(1.57096790607293126E1,-5.21012935765023499E0,2.79971944516833666E1));
#18=VERTEX_POINT('OSCAD_TOPO/3|vertex|v:09f412c3de62b73c99b7277039a22405|0145010bccc29d725bd05082dedf034e68a74ac1e10d4969409eb691a73faf87',#17);
#19=CARTESIAN_POINT('',(1.66053944911538274E1,-5.93529898921336319E0,2.71775464338378860E1));
#20=VERTEX_POINT('OSCAD_TOPO/3|vertex|v:ecf2338238f6aaa9f41236ca6a69f49a|558087893765c231a0ce8dcc0308d51612e6dbeba0c2016c04ec05619b301d0c',#19);
#21=CARTESIAN_POINT('',(6.07066842734289391E0,-1.44065394468926566E0,2.14488718328330705E1));
#22=VERTEX_POINT('OSCAD_TOPO/3|vertex|v:55c90ce083f34e7ffc0a9424e2a15ae4|83f125177fdb34ed58dd2af30cfdb7da5aa57e08c56fc153e98f397317acbffb',#21);
#23=CARTESIAN_POINT('',(8.60197645109762909E0,-7.96694536393150798E0,2.14488718328330705E1));
#24=VERTEX_POINT('OSCAD_TOPO/3|vertex|v:eafed3abcc9e6abf7fe4d464fe9b9d66|ddcd426bf884e410eb7a76980816e4c9543b383aec3777d1aff991630aa64e03',#23);
#25=CARTESIAN_POINT('',(9.72777214387171441E0,-8.60287533750512523E0,2.20217392929335496E1));
#26=VERTEX_POINT('OSCAD_TOPO/3|vertex|v:7ebc2c76cd972736b2091647054e5d66|ab3573763c13544b0cb640540cf0041833a515293984ec18bf90479f113b2e89',#25);
#27=CARTESIAN_POINT('',(8.74116841964065827E0,-4.04865374474734807E-1,1.73506317436056712E1));
#28=CARTESIAN_POINT('',(1.16340918753603546E1,-7.86348413932301149E0,1.73506317436056712E1));
#29=CARTESIAN_POINT('',(1.63829710277318945E1,2.55910834584944524E0,2.30793063446104867E1));
#30=CARTESIAN_POINT('',(1.92758944834515908E1,-4.89951041899883144E0,2.30793063446104867E1));
#31=B_SPLINE_SURFACE_WITH_KNOTS('',1,1,((#27,#28),(#29,#30)),.UNSPECIFIED.,.F.,.F.,.F.,(2,2),(2,2),(0.00000000000000000E0,1.00000000000000000E0),(0.00000000000000000E0,1.00000000000000000E0),.UNSPECIFIED.);
#32=CARTESIAN_POINT('',(1.31783710369745783E1,1.31616206159200821E0,2.79971944516833666E1));
#33=CARTESIAN_POINT('',(1.60712944926942747E1,-6.14245670325626936E0,2.79971944516833666E1));
#34=CARTESIAN_POINT('',(5.53656842888334122E0,-1.64781165873217184E0,2.22685198506785476E1));
#35=CARTESIAN_POINT('',(8.42949188460303844E0,-9.10643042358044852E0,2.22685198506785476E1));
#36=B_SPLINE_SURFACE_WITH_KNOTS('',1,1,((#32,#33),(#34,#35)),.UNSPECIFIED.,.F.,.F.,.F.,(2,2),(2,2),(0.00000000000000000E0,1.00000000000000000E0),(0.00000000000000000E0,1.00000000000000000E0),.UNSPECIFIED.);
#37=CARTESIAN_POINT('',(1.92758944834515908E1,-4.89951041899883144E0,2.30793063446104867E1));
#38=CARTESIAN_POINT('',(1.60712944926942747E1,-6.14245670325626936E0,2.79971944516833666E1));
#39=CARTESIAN_POINT('',(1.63829710277318945E1,2.55910834584944524E0,2.30793063446104867E1));
#40=CARTESIAN_POINT('',(1.31783710369745783E1,1.31616206159200821E0,2.79971944516833666E1));
#41=B_SPLINE_SURFACE_WITH_KNOTS('',1,1,((#37,#38),(#39,#40)),.UNSPECIFIED.,.F.,.F.,.F.,(2,2),(2,2),(0.00000000000000000E0,1.00000000000000000E0),(0.00000000000000000E0,1.00000000000000000E0),.UNSPECIFIED.);
#42=CARTESIAN_POINT('',(1.63829710277318945E1,2.55910834584944524E0,2.30793063446104867E1));
#43=CARTESIAN_POINT('',(1.31783710369745783E1,1.31616206159200821E0,2.79971944516833666E1));
#44=CARTESIAN_POINT('',(8.74116841964065827E0,-4.04865374474734807E-1,1.73506317436056712E1));
#45=CARTESIAN_POINT('',(5.53656842888334122E0,-1.64781165873217184E0,2.22685198506785476E1));
#46=B_SPLINE_SURFACE_WITH_KNOTS('',1,1,((#42,#43),(#44,#45)),.UNSPECIFIED.,.F.,.F.,.F.,(2,2),(2,2),(0.00000000000000000E0,1.00000000000000000E0),(0.00000000000000000E0,1.00000000000000000E0),.UNSPECIFIED.);
#47=CARTESIAN_POINT('',(8.74116841964065827E0,-4.04865374474734807E-1,1.73506317436056712E1));
#48=CARTESIAN_POINT('',(5.53656842888334122E0,-1.64781165873217184E0,2.22685198506785476E1));
#49=CARTESIAN_POINT('',(1.16340918753603546E1,-7.86348413932301149E0,1.73506317436056712E1));
#50=CARTESIAN_POINT('',(8.42949188460303844E0,-9.10643042358044852E0,2.22685198506785476E1));
#51=B_SPLINE_SURFACE_WITH_KNOTS('',1,1,((#47,#48),(#49,#50)),.UNSPECIFIED.,.F.,.F.,.F.,(2,2),(2,2),(0.00000000000000000E0,1.00000000000000000E0),(0.00000000000000000E0,1.00000000000000000E0),.UNSPECIFIED.);
#52=CARTESIAN_POINT('',(1.16340918753603546E1,-7.86348413932301149E0,1.73506317436056712E1));
#53=CARTESIAN_POINT('',(8.42949188460303844E0,-9.10643042358044852E0,2.22685198506785476E1));
#54=CARTESIAN_POINT('',(1.92758944834515908E1,-4.89951041899883144E0,2.30793063446104867E1));
#55=CARTESIAN_POINT('',(1.60712944926942747E1,-6.14245670325626936E0,2.79971944516833666E1));
#56=B_SPLINE_SURFACE_WITH_KNOTS('',1,1,((#52,#53),(#54,#55)),.UNSPECIFIED.,.F.,.F.,.F.,(2,2),(2,2),(0.00000000000000000E0,1.00000000000000000E0),(0.00000000000000000E0,1.00000000000000000E0),.UNSPECIFIED.);
#57=CARTESIAN_POINT('',(1.12724764433953943E1,-6.93115679371697713E0,1.73506317436056712E1));
#58=CARTESIAN_POINT('',(8.60197645109762909E0,-7.96694536393150798E0,2.14488718328330705E1));
#59=CARTESIAN_POINT('',(1.16340918753603546E1,-7.86348413932301149E0,1.73506317436056712E1));
#60=CARTESIAN_POINT('',(8.96359188306259114E0,-8.89927270953754324E0,2.14488718328330705E1));
#61=CARTESIAN_POINT('',(1.23982721361694779E1,-7.56708676729059349E0,1.79234992037061538E1));
#62=CARTESIAN_POINT('',(9.72777214387171441E0,-8.60287533750512523E0,2.20217392929335496E1));
#63=(BOUNDED_SURFACE()B_SPLINE_SURFACE(2,1,((#57,#58),(#59,#60),(#61,#62)),.UNSPECIFIED.,.F.,.F.,.F.)B_SPLINE_SURFACE_WITH_KNOTS((3,3),(2,2),(0.00000000000000000E0,1.00000000000000000E0),(0.00000000000000000E0,1.00000000000000000E0),.UNSPECIFIED.)GEOMETRIC_REPRESENTATION_ITEM()RATIONAL_B_SPLINE_SURFACE(((1.00000000000000000E0,1.00000000000000000E0),(7.07106781186547573E-1,7.07106781186547573E-1),(1.00000000000000000E0,1.00000000000000000E0)))REPRESENTATION_ITEM('')SURFACE());
#64=CARTESIAN_POINT('',(6.30074868969246449E0,-1.35141428669975383E0,2.28413873107790302E1));
#65=CARTESIAN_POINT('',(8.83205671344719967E0,-7.87770570594199704E0,2.28413873107790302E1));
#66=CARTESIAN_POINT('',(5.53656842888334122E0,-1.64781165873217184E0,2.22685198506785476E1));
#67=CARTESIAN_POINT('',(8.06787645263807640E0,-8.17410307797441504E0,2.22685198506785476E1));
#68=CARTESIAN_POINT('',(6.07066842734289391E0,-1.44065394468926566E0,2.14488718328330705E1));
#69=CARTESIAN_POINT('',(8.60197645109762909E0,-7.96694536393150798E0,2.14488718328330705E1));
#70=(BOUNDED_SURFACE()B_SPLINE_SURFACE(2,1,((#64,#65),(#66,#67),(#68,#69)),.UNSPECIFIED.,.F.,.F.,.F.)B_SPLINE_SURFACE_WITH_KNOTS((3,3),(2,2),(0.00000000000000000E0,1.00000000000000000E0),(0.00000000000000000E0,1.00000000000000000E0),.UNSPECIFIED.)GEOMETRIC_REPRESENTATION_ITEM()RATIONAL_B_SPLINE_SURFACE(((1.00000000000000000E0,1.00000000000000000E0),(1.00000000000000000E0,1.00000000000000000E0),(2.00000000000000000E0,2.00000000000000000E0)))REPRESENTATION_ITEM('')SURFACE());
#71=CARTESIAN_POINT('',(1.66053944911538274E1,-5.93529898921336319E0,2.71775464338378860E1));
#72=CARTESIAN_POINT('',(9.72777214387171441E0,-8.60287533750512523E0,2.20217392929335496E1));
#73=CARTESIAN_POINT('',(1.60712944926942747E1,-6.14245670325626936E0,2.79971944516833666E1));
#74=CARTESIAN_POINT('',(9.19367214541216171E0,-8.81003305154803051E0,2.28413873107790302E1));
#75=CARTESIAN_POINT('',(1.57096790607293126E1,-5.21012935765023499E0,2.79971944516833666E1));
#76=CARTESIAN_POINT('',(8.83205671344719967E0,-7.87770570594199704E0,2.28413873107790302E1));
#77=(BOUNDED_SURFACE()B_SPLINE_SURFACE(2,1,((#71,#72),(#73,#74),(#75,#76)),.UNSPECIFIED.,.F.,.F.,.F.)B_SPLINE_SURFACE_WITH_KNOTS((3,3),(2,2),(0.00000000000000000E0,1.00000000000000000E0),(0.00000000000000000E0,1.00000000000000000E0),.UNSPECIFIED.)GEOMETRIC_REPRESENTATION_ITEM()RATIONAL_B_SPLINE_SURFACE(((2.00000000000000000E0,2.00000000000000000E0),(1.00000000000000000E0,1.00000000000000000E0),(1.00000000000000000E0,1.00000000000000000E0)))REPRESENTATION_ITEM('')SURFACE());
#78=CARTESIAN_POINT('',(8.83205671344719967E0,-7.87770570594199704E0,2.28413873107790302E1));
#79=CARTESIAN_POINT('',(9.19367214541216171E0,-8.81003305154803051E0,2.28413873107790302E1));
#80=CARTESIAN_POINT('',(9.72777214387171441E0,-8.60287533750512523E0,2.20217392929335496E1));
#81=CARTESIAN_POINT('',(8.06787645263807640E0,-8.17410307797441504E0,2.22685198506785476E1));
#82=CARTESIAN_POINT('',(8.42949188460303844E0,-9.10643042358044852E0,2.22685198506785476E1));
#83=CARTESIAN_POINT('',(9.34568201346715277E0,-8.75107402352133334E0,2.17353055628833118E1));
#84=CARTESIAN_POINT('',(8.60197645109762909E0,-7.96694536393150798E0,2.14488718328330705E1));
#85=CARTESIAN_POINT('',(8.78278416708010923E0,-8.43310903673452472E0,2.14488718328330705E1));
#86=CARTESIAN_POINT('',(9.27581349216382911E0,-8.42064523231042372E0,2.13666116469180700E1));
#87=(BOUNDED_SURFACE()B_SPLINE_SURFACE(2,2,((#78,#79,#80),(#81,#82,#83),(#84,#85,#86)),.UNSPECIFIED.,.F.,.F.,.F.)B_SPLINE_SURFACE_WITH_KNOTS((3,3),(3,3),(0.00000000000000000E0,1.00000000000000000E0),(0.00000000000000000E0,1.00000000000000000E0),.UNSPECIFIED.)GEOMETRIC_REPRESENTATION_ITEM()RATIONAL_B_SPLINE_SURFACE(((1.00000000000000000E0,1.00000000000000000E0,2.00000000000000000E0),(1.00000000000000000E0,1.00000000000000000E0,2.00000000000000000E0),(2.00000000000000000E0,2.00000000000000000E0,3.00000000000000000E0)))REPRESENTATION_ITEM('')SURFACE());
#88=CARTESIAN_POINT('',(1.63829710277318945E1,2.55910834584944524E0,2.30793063446104867E1));
#89=CARTESIAN_POINT('',(1.92758944834515908E1,-4.89951041899883144E0,2.30793063446104867E1));
#90=B_SPLINE_CURVE_WITH_KNOTS('',1,(#88,#89),.UNSPECIFIED.,.F.,.F.,(2,2),(0.00000000000000000E0,1.00000000000000000E0),.UNSPECIFIED.);
#91=CARTESIAN_POINT('',(1.92758944834515908E1,-4.89951041899883144E0,2.30793063446104867E1));
#92=CARTESIAN_POINT('',(1.23982721361694779E1,-7.56708676729059349E0,1.79234992037061538E1));
#93=B_SPLINE_CURVE_WITH_KNOTS('',1,(#91,#92),.UNSPECIFIED.,.F.,.F.,(2,2),(0.00000000000000000E0,1.00000000000000000E0),.UNSPECIFIED.);
#94=CARTESIAN_POINT('',(1.12724764433953943E1,-6.93115679371697713E0,1.73506317436056712E1));
#95=CARTESIAN_POINT('',(1.16340918753603546E1,-7.86348413932301149E0,1.73506317436056712E1));
#96=CARTESIAN_POINT('',(1.23982721361694779E1,-7.56708676729059349E0,1.79234992037061538E1));
#97=(BOUNDED_CURVE()B_SPLINE_CURVE(2,(#94,#95,#96),.UNSPECIFIED.,.F.,.F.)B_SPLINE_CURVE_WITH_KNOTS((3,3),(0.00000000000000000E0,1.00000000000000000E0),.UNSPECIFIED.)CURVE()GEOMETRIC_REPRESENTATION_ITEM()RATIONAL_B_SPLINE_CURVE((1.00000000000000000E0,7.07106781186547573E-1,1.00000000000000000E0))REPRESENTATION_ITEM(''));
#98=CARTESIAN_POINT('',(8.74116841964065827E0,-4.04865374474734807E-1,1.73506317436056712E1));
#99=CARTESIAN_POINT('',(1.12724764433953943E1,-6.93115679371697713E0,1.73506317436056712E1));
#100=B_SPLINE_CURVE_WITH_KNOTS('',1,(#98,#99),.UNSPECIFIED.,.F.,.F.,(2,2),(0.00000000000000000E0,1.00000000000000000E0),.UNSPECIFIED.);
#101=CARTESIAN_POINT('',(1.63829710277318945E1,2.55910834584944524E0,2.30793063446104867E1));
#102=CARTESIAN_POINT('',(8.74116841964065827E0,-4.04865374474734807E-1,1.73506317436056712E1));
#103=B_SPLINE_CURVE_WITH_KNOTS('',1,(#101,#102),.UNSPECIFIED.,.F.,.F.,(2,2),(0.00000000000000000E0,1.00000000000000000E0),.UNSPECIFIED.);
#104=CARTESIAN_POINT('',(1.31783710369745783E1,1.31616206159200821E0,2.79971944516833666E1));
#105=CARTESIAN_POINT('',(6.30074868969246449E0,-1.35141428669975383E0,2.28413873107790302E1));
#106=B_SPLINE_CURVE_WITH_KNOTS('',1,(#104,#105),.UNSPECIFIED.,.F.,.F.,(2,2),(0.00000000000000000E0,1.00000000000000000E0),.UNSPECIFIED.);
#107=CARTESIAN_POINT('',(8.83205671344719967E0,-7.87770570594199704E0,2.28413873107790302E1));
#108=CARTESIAN_POINT('',(6.30074868969246449E0,-1.35141428669975383E0,2.28413873107790302E1));
#109=B_SPLINE_CURVE_WITH_KNOTS('',1,(#107,#108),.UNSPECIFIED.,.F.,.F.,(2,2),(0.00000000000000000E0,1.00000000000000000E0),.UNSPECIFIED.);
#110=CARTESIAN_POINT('',(8.83205671344719967E0,-7.87770570594199704E0,2.28413873107790302E1));
#111=CARTESIAN_POINT('',(1.57096790607293126E1,-5.21012935765023499E0,2.79971944516833666E1));
#112=B_SPLINE_CURVE_WITH_KNOTS('',1,(#110,#111),.UNSPECIFIED.,.F.,.F.,(2,2),(0.00000000000000000E0,1.00000000000000000E0),.UNSPECIFIED.);
#113=CARTESIAN_POINT('',(1.31783710369745783E1,1.31616206159200821E0,2.79971944516833666E1));
#114=CARTESIAN_POINT('',(1.57096790607293126E1,-5.21012935765023499E0,2.79971944516833666E1));
#115=B_SPLINE_CURVE_WITH_KNOTS('',1,(#113,#114),.UNSPECIFIED.,.F.,.F.,(2,2),(0.00000000000000000E0,1.00000000000000000E0),.UNSPECIFIED.);
#116=CARTESIAN_POINT('',(1.63829710277318945E1,2.55910834584944524E0,2.30793063446104867E1));
#117=CARTESIAN_POINT('',(1.31783710369745783E1,1.31616206159200821E0,2.79971944516833666E1));
#118=B_SPLINE_CURVE_WITH_KNOTS('',1,(#116,#117),.UNSPECIFIED.,.F.,.F.,(2,2),(0.00000000000000000E0,1.00000000000000000E0),.UNSPECIFIED.);
#119=CARTESIAN_POINT('',(1.66053944911538274E1,-5.93529898921336319E0,2.71775464338378860E1));
#120=CARTESIAN_POINT('',(1.60712944926942747E1,-6.14245670325626936E0,2.79971944516833666E1));
#121=CARTESIAN_POINT('',(1.57096790607293126E1,-5.21012935765023499E0,2.79971944516833666E1));
#122=(BOUNDED_CURVE()B_SPLINE_CURVE(2,(#119,#120,#121),.UNSPECIFIED.,.F.,.F.)B_SPLINE_CURVE_WITH_KNOTS((3,3),(0.00000000000000000E0,1.00000000000000000E0),.UNSPECIFIED.)CURVE()GEOMETRIC_REPRESENTATION_ITEM()RATIONAL_B_SPLINE_CURVE((2.00000000000000000E0,1.00000000000000000E0,1.00000000000000000E0))REPRESENTATION_ITEM(''));
#123=CARTESIAN_POINT('',(1.92758944834515908E1,-4.89951041899883144E0,2.30793063446104867E1));
#124=CARTESIAN_POINT('',(1.66053944911538274E1,-5.93529898921336319E0,2.71775464338378860E1));
#125=B_SPLINE_CURVE_WITH_KNOTS('',1,(#123,#124),.UNSPECIFIED.,.F.,.F.,(2,2),(0.00000000000000000E0,1.00000000000000000E0),.UNSPECIFIED.);
#126=CARTESIAN_POINT('',(8.74116841964065827E0,-4.04865374474734807E-1,1.73506317436056712E1));
#127=CARTESIAN_POINT('',(6.07066842734289391E0,-1.44065394468926566E0,2.14488718328330705E1));
#128=B_SPLINE_CURVE_WITH_KNOTS('',1,(#126,#127),.UNSPECIFIED.,.F.,.F.,(2,2),(0.00000000000000000E0,1.00000000000000000E0),.UNSPECIFIED.);
#129=CARTESIAN_POINT('',(6.07066842734289391E0,-1.44065394468926566E0,2.14488718328330705E1));
#130=CARTESIAN_POINT('',(5.53656842888334122E0,-1.64781165873217184E0,2.22685198506785476E1));
#131=CARTESIAN_POINT('',(6.30074868969246449E0,-1.35141428669975383E0,2.28413873107790302E1));
#132=(BOUNDED_CURVE()B_SPLINE_CURVE(2,(#129,#130,#131),.UNSPECIFIED.,.F.,.F.)B_SPLINE_CURVE_WITH_KNOTS((3,3),(0.00000000000000000E0,1.00000000000000000E0),.UNSPECIFIED.)CURVE()GEOMETRIC_REPRESENTATION_ITEM()RATIONAL_B_SPLINE_CURVE((2.00000000000000000E0,1.00000000000000000E0,1.00000000000000000E0))REPRESENTATION_ITEM(''));
#133=CARTESIAN_POINT('',(1.12724764433953943E1,-6.93115679371697713E0,1.73506317436056712E1));
#134=CARTESIAN_POINT('',(8.60197645109762909E0,-7.96694536393150798E0,2.14488718328330705E1));
#135=B_SPLINE_CURVE_WITH_KNOTS('',1,(#133,#134),.UNSPECIFIED.,.F.,.F.,(2,2),(0.00000000000000000E0,1.00000000000000000E0),.UNSPECIFIED.);
#136=CARTESIAN_POINT('',(8.60197645109762909E0,-7.96694536393150798E0,2.14488718328330705E1));
#137=CARTESIAN_POINT('',(6.07066842734289391E0,-1.44065394468926566E0,2.14488718328330705E1));
#138=B_SPLINE_CURVE_WITH_KNOTS('',1,(#136,#137),.UNSPECIFIED.,.F.,.F.,(2,2),(0.00000000000000000E0,1.00000000000000000E0),.UNSPECIFIED.);
#139=CARTESIAN_POINT('',(9.72777214387171441E0,-8.60287533750512523E0,2.20217392929335496E1));
#140=CARTESIAN_POINT('',(1.66053944911538274E1,-5.93529898921336319E0,2.71775464338378860E1));
#141=B_SPLINE_CURVE_WITH_KNOTS('',1,(#139,#140),.UNSPECIFIED.,.F.,.F.,(2,2),(0.00000000000000000E0,1.00000000000000000E0),.UNSPECIFIED.);
#142=CARTESIAN_POINT('',(1.23982721361694779E1,-7.56708676729059349E0,1.79234992037061538E1));
#143=CARTESIAN_POINT('',(9.72777214387171441E0,-8.60287533750512523E0,2.20217392929335496E1));
#144=B_SPLINE_CURVE_WITH_KNOTS('',1,(#142,#143),.UNSPECIFIED.,.F.,.F.,(2,2),(0.00000000000000000E0,1.00000000000000000E0),.UNSPECIFIED.);
#145=CARTESIAN_POINT('',(8.60197645109762909E0,-7.96694536393150798E0,2.14488718328330705E1));
#146=CARTESIAN_POINT('',(8.96359188306259114E0,-8.89927270953754324E0,2.14488718328330705E1));
#147=CARTESIAN_POINT('',(9.72777214387171441E0,-8.60287533750512523E0,2.20217392929335496E1));
#148=(BOUNDED_CURVE()B_SPLINE_CURVE(2,(#145,#146,#147),.UNSPECIFIED.,.F.,.F.)B_SPLINE_CURVE_WITH_KNOTS((3,3),(0.00000000000000000E0,1.00000000000000000E0),.UNSPECIFIED.)CURVE()GEOMETRIC_REPRESENTATION_ITEM()RATIONAL_B_SPLINE_CURVE((1.00000000000000000E0,7.07106781186547573E-1,1.00000000000000000E0))REPRESENTATION_ITEM(''));
#149=CARTESIAN_POINT('',(8.60197645109762909E0,-7.96694536393150798E0,2.14488718328330705E1));
#150=CARTESIAN_POINT('',(8.06787645263807640E0,-8.17410307797441504E0,2.22685198506785476E1));
#151=CARTESIAN_POINT('',(8.83205671344719967E0,-7.87770570594199704E0,2.28413873107790302E1));
#152=(BOUNDED_CURVE()B_SPLINE_CURVE(2,(#149,#150,#151),.UNSPECIFIED.,.F.,.F.)B_SPLINE_CURVE_WITH_KNOTS((3,3),(0.00000000000000000E0,1.00000000000000000E0),.UNSPECIFIED.)CURVE()GEOMETRIC_REPRESENTATION_ITEM()RATIONAL_B_SPLINE_CURVE((2.00000000000000000E0,1.00000000000000000E0,1.00000000000000000E0))REPRESENTATION_ITEM(''));
#153=CARTESIAN_POINT('',(9.72777214387171441E0,-8.60287533750512523E0,2.20217392929335496E1));
#154=CARTESIAN_POINT('',(9.19367214541216171E0,-8.81003305154803051E0,2.28413873107790302E1));
#155=CARTESIAN_POINT('',(8.83205671344719967E0,-7.87770570594199704E0,2.28413873107790302E1));
#156=(BOUNDED_CURVE()B_SPLINE_CURVE(2,(#153,#154,#155),.UNSPECIFIED.,.F.,.F.)B_SPLINE_CURVE_WITH_KNOTS((3,3),(0.00000000000000000E0,1.00000000000000000E0),.UNSPECIFIED.)CURVE()GEOMETRIC_REPRESENTATION_ITEM()RATIONAL_B_SPLINE_CURVE((2.00000000000000000E0,1.00000000000000000E0,1.00000000000000000E0))REPRESENTATION_ITEM(''));
#157=(GEOMETRIC_REPRESENTATION_CONTEXT(2)REPRESENTATION_CONTEXT('','2D'));
#158=CARTESIAN_POINT('',(1.00000000000000000E0,0.00000000000000000E0));
#159=CARTESIAN_POINT('',(1.00000000000000000E0,1.00000000000000000E0));
#160=B_SPLINE_CURVE_WITH_KNOTS('',1,(#158,#159),.UNSPECIFIED.,.F.,.F.,(2,2),(0.00000000000000000E0,1.00000000000000000E0),.UNSPECIFIED.);
#161=DEFINITIONAL_REPRESENTATION('',(#160),#157);
#162=PCURVE('',#31,#161);
#163=CARTESIAN_POINT('',(1.00000000000000000E0,1.00000000000000000E0));
#164=CARTESIAN_POINT('',(9.99999999999999778E-2,1.00000000000000000E0));
#165=B_SPLINE_CURVE_WITH_KNOTS('',1,(#163,#164),.UNSPECIFIED.,.F.,.F.,(2,2),(0.00000000000000000E0,1.00000000000000000E0),.UNSPECIFIED.);
#166=DEFINITIONAL_REPRESENTATION('',(#165),#157);
#167=PCURVE('',#31,#166);
#168=CARTESIAN_POINT('',(9.99999999999999778E-2,1.00000000000000000E0));
#169=CARTESIAN_POINT('',(0.00000000000000000E0,1.00000000000000000E0));
#170=CARTESIAN_POINT('',(0.00000000000000000E0,8.75000000000000000E-1));
#171=(BOUNDED_CURVE()B_SPLINE_CURVE(2,(#168,#169,#170),.UNSPECIFIED.,.F.,.F.)B_SPLINE_CURVE_WITH_KNOTS((3,3),(0.00000000000000000E0,1.00000000000000000E0),.UNSPECIFIED.)CURVE()GEOMETRIC_REPRESENTATION_ITEM()RATIONAL_B_SPLINE_CURVE((1.00000000000000000E0,7.07106781186547573E-1,1.00000000000000000E0))REPRESENTATION_ITEM(''));
#172=DEFINITIONAL_REPRESENTATION('',(#171),#157);
#173=PCURVE('',#31,#172);
#174=CARTESIAN_POINT('',(0.00000000000000000E0,8.75000000000000000E-1));
#175=CARTESIAN_POINT('',(0.00000000000000000E0,0.00000000000000000E0));
#176=B_SPLINE_CURVE_WITH_KNOTS('',1,(#174,#175),.UNSPECIFIED.,.F.,.F.,(2,2),(0.00000000000000000E0,1.00000000000000000E0),.UNSPECIFIED.);
#177=DEFINITIONAL_REPRESENTATION('',(#176),#157);
#178=PCURVE('',#31,#177);
#179=CARTESIAN_POINT('',(0.00000000000000000E0,0.00000000000000000E0));
#180=CARTESIAN_POINT('',(1.00000000000000000E0,0.00000000000000000E0));
#181=B_SPLINE_CURVE_WITH_KNOTS('',1,(#179,#180),.UNSPECIFIED.,.F.,.F.,(2,2),(0.00000000000000000E0,1.00000000000000000E0),.UNSPECIFIED.);
#182=DEFINITIONAL_REPRESENTATION('',(#181),#157);
#183=PCURVE('',#31,#182);
#184=CARTESIAN_POINT('',(0.00000000000000000E0,0.00000000000000000E0));
#185=CARTESIAN_POINT('',(9.00000000000000022E-1,0.00000000000000000E0));
#186=B_SPLINE_CURVE_WITH_KNOTS('',1,(#184,#185),.UNSPECIFIED.,.F.,.F.,(2,2),(0.00000000000000000E0,1.00000000000000000E0),.UNSPECIFIED.);
#187=DEFINITIONAL_REPRESENTATION('',(#186),#157);
#188=PCURVE('',#36,#187);
#189=CARTESIAN_POINT('',(9.00000000000000022E-1,0.00000000000000000E0));
#190=CARTESIAN_POINT('',(9.00000000000000022E-1,8.75000000000000000E-1));
#191=B_SPLINE_CURVE_WITH_KNOTS('',1,(#189,#190),.UNSPECIFIED.,.F.,.F.,(2,2),(0.00000000000000000E0,1.00000000000000000E0),.UNSPECIFIED.);
#192=DEFINITIONAL_REPRESENTATION('',(#191),#157);
#193=PCURVE('',#36,#192);
#194=CARTESIAN_POINT('',(9.00000000000000022E-1,8.75000000000000000E-1));
#195=CARTESIAN_POINT('',(0.00000000000000000E0,8.75000000000000000E-1));
#196=B_SPLINE_CURVE_WITH_KNOTS('',1,(#194,#195),.UNSPECIFIED.,.F.,.F.,(2,2),(0.00000000000000000E0,1.00000000000000000E0),.UNSPECIFIED.);
#197=DEFINITIONAL_REPRESENTATION('',(#196),#157);
#198=PCURVE('',#36,#197);
#199=CARTESIAN_POINT('',(0.00000000000000000E0,8.75000000000000000E-1));
#200=CARTESIAN_POINT('',(0.00000000000000000E0,0.00000000000000000E0));
#201=B_SPLINE_CURVE_WITH_KNOTS('',1,(#199,#200),.UNSPECIFIED.,.F.,.F.,(2,2),(0.00000000000000000E0,1.00000000000000000E0),.UNSPECIFIED.);
#202=DEFINITIONAL_REPRESENTATION('',(#201),#157);
#203=PCURVE('',#36,#202);
#204=CARTESIAN_POINT('',(1.00000000000000000E0,0.00000000000000000E0));
#205=CARTESIAN_POINT('',(1.00000000000000000E0,1.00000000000000000E0));
#206=B_SPLINE_CURVE_WITH_KNOTS('',1,(#204,#205),.UNSPECIFIED.,.F.,.F.,(2,2),(0.00000000000000000E0,1.00000000000000000E0),.UNSPECIFIED.);
#207=DEFINITIONAL_REPRESENTATION('',(#206),#157);
#208=PCURVE('',#41,#207);
#209=CARTESIAN_POINT('',(1.00000000000000000E0,1.00000000000000000E0));
#210=CARTESIAN_POINT('',(1.25000000000000000E-1,1.00000000000000000E0));
#211=B_SPLINE_CURVE_WITH_KNOTS('',1,(#209,#210),.UNSPECIFIED.,.F.,.F.,(2,2),(0.00000000000000000E0,1.00000000000000000E0),.UNSPECIFIED.);
#212=DEFINITIONAL_REPRESENTATION('',(#211),#157);
#213=PCURVE('',#41,#212);
#214=CARTESIAN_POINT('',(1.25000000000000000E-1,1.00000000000000000E0));
#215=CARTESIAN_POINT('',(0.00000000000000000E0,1.00000000000000000E0));
#216=CARTESIAN_POINT('',(0.00000000000000000E0,8.33333333333333370E-1));
#217=(BOUNDED_CURVE()B_SPLINE_CURVE(2,(#214,#215,#216),.UNSPECIFIED.,.F.,.F.)B_SPLINE_CURVE_WITH_KNOTS((3,3),(0.00000000000000000E0,1.00000000000000000E0),.UNSPECIFIED.)CURVE()GEOMETRIC_REPRESENTATION_ITEM()RATIONAL_B_SPLINE_CURVE((1.00000000000000000E0,1.00000000000000000E0,2.00000000000000000E0))REPRESENTATION_ITEM(''));
#218=DEFINITIONAL_REPRESENTATION('',(#217),#157);
#219=PCURVE('',#41,#218);
#220=CARTESIAN_POINT('',(0.00000000000000000E0,8.33333333333333370E-1));
#221=CARTESIAN_POINT('',(0.00000000000000000E0,0.00000000000000000E0));
#222=B_SPLINE_CURVE_WITH_KNOTS('',1,(#220,#221),.UNSPECIFIED.,.F.,.F.,(2,2),(0.00000000000000000E0,1.00000000000000000E0),.UNSPECIFIED.);
#223=DEFINITIONAL_REPRESENTATION('',(#222),#157);
#224=PCURVE('',#41,#223);
#225=CARTESIAN_POINT('',(0.00000000000000000E0,0.00000000000000000E0));
#226=CARTESIAN_POINT('',(1.00000000000000000E0,0.00000000000000000E0));
#227=B_SPLINE_CURVE_WITH_KNOTS('',1,(#225,#226),.UNSPECIFIED.,.F.,.F.,(2,2),(0.00000000000000000E0,1.00000000000000000E0),.UNSPECIFIED.);
#228=DEFINITIONAL_REPRESENTATION('',(#227),#157);
#229=PCURVE('',#41,#228);
#230=CARTESIAN_POINT('',(0.00000000000000000E0,0.00000000000000000E0));
#231=CARTESIAN_POINT('',(1.00000000000000000E0,0.00000000000000000E0));
#232=B_SPLINE_CURVE_WITH_KNOTS('',1,(#230,#231),.UNSPECIFIED.,.F.,.F.,(2,2),(0.00000000000000000E0,1.00000000000000000E0),.UNSPECIFIED.);
#233=DEFINITIONAL_REPRESENTATION('',(#232),#157);
#234=PCURVE('',#46,#233);
#235=CARTESIAN_POINT('',(1.00000000000000000E0,0.00000000000000000E0));
#236=CARTESIAN_POINT('',(1.00000000000000000E0,8.33333333333333370E-1));
#237=B_SPLINE_CURVE_WITH_KNOTS('',1,(#235,#236),.UNSPECIFIED.,.F.,.F.,(2,2),(0.00000000000000000E0,1.00000000000000000E0),.UNSPECIFIED.);
#238=DEFINITIONAL_REPRESENTATION('',(#237),#157);
#239=PCURVE('',#46,#238);
#240=CARTESIAN_POINT('',(1.00000000000000000E0,8.33333333333333370E-1));
#241=CARTESIAN_POINT('',(1.00000000000000000E0,1.00000000000000000E0));
#242=CARTESIAN_POINT('',(9.00000000000000022E-1,1.00000000000000000E0));
#243=(BOUNDED_CURVE()B_SPLINE_CURVE(2,(#240,#241,#242),.UNSPECIFIED.,.F.,.F.)B_SPLINE_CURVE_WITH_KNOTS((3,3),(0.00000000000000000E0,1.00000000000000000E0),.UNSPECIFIED.)CURVE()GEOMETRIC_REPRESENTATION_ITEM()RATIONAL_B_SPLINE_CURVE((2.00000000000000000E0,1.00000000000000000E0,1.00000000000000000E0))REPRESENTATION_ITEM(''));
#244=DEFINITIONAL_REPRESENTATION('',(#243),#157);
#245=PCURVE('',#46,#244);
#246=CARTESIAN_POINT('',(9.00000000000000022E-1,1.00000000000000000E0));
#247=CARTESIAN_POINT('',(0.00000000000000000E0,1.00000000000000000E0));
#248=B_SPLINE_CURVE_WITH_KNOTS('',1,(#246,#247),.UNSPECIFIED.,.F.,.F.,(2,2),(0.00000000000000000E0,1.00000000000000000E0),.UNSPECIFIED.);
#249=DEFINITIONAL_REPRESENTATION('',(#248),#157);
#250=PCURVE('',#46,#249);
#251=CARTESIAN_POINT('',(0.00000000000000000E0,1.00000000000000000E0));
#252=CARTESIAN_POINT('',(0.00000000000000000E0,0.00000000000000000E0));
#253=B_SPLINE_CURVE_WITH_KNOTS('',1,(#251,#252),.UNSPECIFIED.,.F.,.F.,(2,2),(0.00000000000000000E0,1.00000000000000000E0),.UNSPECIFIED.);
#254=DEFINITIONAL_REPRESENTATION('',(#253),#157);
#255=PCURVE('',#46,#254);
#256=CARTESIAN_POINT('',(0.00000000000000000E0,0.00000000000000000E0));
#257=CARTESIAN_POINT('',(8.75000000000000000E-1,0.00000000000000000E0));
#258=B_SPLINE_CURVE_WITH_KNOTS('',1,(#256,#257),.UNSPECIFIED.,.F.,.F.,(2,2),(0.00000000000000000E0,1.00000000000000000E0),.UNSPECIFIED.);
#259=DEFINITIONAL_REPRESENTATION('',(#258),#157);
#260=PCURVE('',#51,#259);
#261=CARTESIAN_POINT('',(8.75000000000000000E-1,0.00000000000000000E0));
#262=CARTESIAN_POINT('',(8.75000000000000000E-1,8.33333333333333370E-1));
#263=B_SPLINE_CURVE_WITH_KNOTS('',1,(#261,#262),.UNSPECIFIED.,.F.,.F.,(2,2),(0.00000000000000000E0,1.00000000000000000E0),.UNSPECIFIED.);
#264=DEFINITIONAL_REPRESENTATION('',(#263),#157);
#265=PCURVE('',#51,#264);
#266=CARTESIAN_POINT('',(8.75000000000000000E-1,8.33333333333333370E-1));
#267=CARTESIAN_POINT('',(0.00000000000000000E0,8.33333333333333370E-1));
#268=B_SPLINE_CURVE_WITH_KNOTS('',1,(#266,#267),.UNSPECIFIED.,.F.,.F.,(2,2),(0.00000000000000000E0,1.00000000000000000E0),.UNSPECIFIED.);
#269=DEFINITIONAL_REPRESENTATION('',(#268),#157);
#270=PCURVE('',#51,#269);
#271=CARTESIAN_POINT('',(0.00000000000000000E0,8.33333333333333370E-1));
#272=CARTESIAN_POINT('',(0.00000000000000000E0,0.00000000000000000E0));
#273=B_SPLINE_CURVE_WITH_KNOTS('',1,(#271,#272),.UNSPECIFIED.,.F.,.F.,(2,2),(0.00000000000000000E0,1.00000000000000000E0),.UNSPECIFIED.);
#274=DEFINITIONAL_REPRESENTATION('',(#273),#157);
#275=PCURVE('',#51,#274);
#276=CARTESIAN_POINT('',(1.00000000000000000E0,0.00000000000000000E0));
#277=CARTESIAN_POINT('',(1.00000000000000000E0,8.33333333333333370E-1));
#278=B_SPLINE_CURVE_WITH_KNOTS('',1,(#276,#277),.UNSPECIFIED.,.F.,.F.,(2,2),(0.00000000000000000E0,1.00000000000000000E0),.UNSPECIFIED.);
#279=DEFINITIONAL_REPRESENTATION('',(#278),#157);
#280=PCURVE('',#56,#279);
#281=CARTESIAN_POINT('',(1.00000000000000000E0,8.33333333333333370E-1));
#282=CARTESIAN_POINT('',(9.99999999999999778E-2,8.33333333333333370E-1));
#283=B_SPLINE_CURVE_WITH_KNOTS('',1,(#281,#282),.UNSPECIFIED.,.F.,.F.,(2,2),(0.00000000000000000E0,1.00000000000000000E0),.UNSPECIFIED.);
#284=DEFINITIONAL_REPRESENTATION('',(#283),#157);
#285=PCURVE('',#56,#284);
#286=CARTESIAN_POINT('',(9.99999999999999778E-2,8.33333333333333370E-1));
#287=CARTESIAN_POINT('',(9.99999999999999778E-2,0.00000000000000000E0));
#288=B_SPLINE_CURVE_WITH_KNOTS('',1,(#286,#287),.UNSPECIFIED.,.F.,.F.,(2,2),(0.00000000000000000E0,1.00000000000000000E0),.UNSPECIFIED.);
#289=DEFINITIONAL_REPRESENTATION('',(#288),#157);
#290=PCURVE('',#56,#289);
#291=CARTESIAN_POINT('',(9.99999999999999778E-2,0.00000000000000000E0));
#292=CARTESIAN_POINT('',(1.00000000000000000E0,0.00000000000000000E0));
#293=B_SPLINE_CURVE_WITH_KNOTS('',1,(#291,#292),.UNSPECIFIED.,.F.,.F.,(2,2),(0.00000000000000000E0,1.00000000000000000E0),.UNSPECIFIED.);
#294=DEFINITIONAL_REPRESENTATION('',(#293),#157);
#295=PCURVE('',#56,#294);
#296=CARTESIAN_POINT('',(0.00000000000000000E0,0.00000000000000000E0));
#297=CARTESIAN_POINT('',(1.00000000000000000E0,0.00000000000000000E0));
#298=B_SPLINE_CURVE_WITH_KNOTS('',1,(#296,#297),.UNSPECIFIED.,.F.,.F.,(2,2),(0.00000000000000000E0,1.00000000000000000E0),.UNSPECIFIED.);
#299=DEFINITIONAL_REPRESENTATION('',(#298),#157);
#300=PCURVE('',#63,#299);
#301=CARTESIAN_POINT('',(1.00000000000000000E0,0.00000000000000000E0));
#302=CARTESIAN_POINT('',(1.00000000000000000E0,1.00000000000000000E0));
#303=B_SPLINE_CURVE_WITH_KNOTS('',1,(#301,#302),.UNSPECIFIED.,.F.,.F.,(2,2),(0.00000000000000000E0,1.00000000000000000E0),.UNSPECIFIED.);
#304=DEFINITIONAL_REPRESENTATION('',(#303),#157);
#305=PCURVE('',#63,#304);
#306=CARTESIAN_POINT('',(1.00000000000000000E0,1.00000000000000000E0));
#307=CARTESIAN_POINT('',(0.00000000000000000E0,1.00000000000000000E0));
#308=B_SPLINE_CURVE_WITH_KNOTS('',1,(#306,#307),.UNSPECIFIED.,.F.,.F.,(2,2),(0.00000000000000000E0,1.00000000000000000E0),.UNSPECIFIED.);
#309=DEFINITIONAL_REPRESENTATION('',(#308),#157);
#310=PCURVE('',#63,#309);
#311=CARTESIAN_POINT('',(0.00000000000000000E0,1.00000000000000000E0));
#312=CARTESIAN_POINT('',(0.00000000000000000E0,0.00000000000000000E0));
#313=B_SPLINE_CURVE_WITH_KNOTS('',1,(#311,#312),.UNSPECIFIED.,.F.,.F.,(2,2),(0.00000000000000000E0,1.00000000000000000E0),.UNSPECIFIED.);
#314=DEFINITIONAL_REPRESENTATION('',(#313),#157);
#315=PCURVE('',#63,#314);
#316=CARTESIAN_POINT('',(1.00000000000000000E0,0.00000000000000000E0));
#317=CARTESIAN_POINT('',(1.00000000000000000E0,1.00000000000000000E0));
#318=B_SPLINE_CURVE_WITH_KNOTS('',1,(#316,#317),.UNSPECIFIED.,.F.,.F.,(2,2),(0.00000000000000000E0,1.00000000000000000E0),.UNSPECIFIED.);
#319=DEFINITIONAL_REPRESENTATION('',(#318),#157);
#320=PCURVE('',#70,#319);
#321=CARTESIAN_POINT('',(1.00000000000000000E0,1.00000000000000000E0));
#322=CARTESIAN_POINT('',(0.00000000000000000E0,1.00000000000000000E0));
#323=B_SPLINE_CURVE_WITH_KNOTS('',1,(#321,#322),.UNSPECIFIED.,.F.,.F.,(2,2),(0.00000000000000000E0,1.00000000000000000E0),.UNSPECIFIED.);
#324=DEFINITIONAL_REPRESENTATION('',(#323),#157);
#325=PCURVE('',#70,#324);
#326=CARTESIAN_POINT('',(0.00000000000000000E0,1.00000000000000000E0));
#327=CARTESIAN_POINT('',(0.00000000000000000E0,0.00000000000000000E0));
#328=B_SPLINE_CURVE_WITH_KNOTS('',1,(#326,#327),.UNSPECIFIED.,.F.,.F.,(2,2),(0.00000000000000000E0,1.00000000000000000E0),.UNSPECIFIED.);
#329=DEFINITIONAL_REPRESENTATION('',(#328),#157);
#330=PCURVE('',#70,#329);
#331=CARTESIAN_POINT('',(0.00000000000000000E0,0.00000000000000000E0));
#332=CARTESIAN_POINT('',(1.00000000000000000E0,0.00000000000000000E0));
#333=B_SPLINE_CURVE_WITH_KNOTS('',1,(#331,#332),.UNSPECIFIED.,.F.,.F.,(2,2),(0.00000000000000000E0,1.00000000000000000E0),.UNSPECIFIED.);
#334=DEFINITIONAL_REPRESENTATION('',(#333),#157);
#335=PCURVE('',#70,#334);
#336=CARTESIAN_POINT('',(0.00000000000000000E0,0.00000000000000000E0));
#337=CARTESIAN_POINT('',(1.00000000000000000E0,0.00000000000000000E0));
#338=B_SPLINE_CURVE_WITH_KNOTS('',1,(#336,#337),.UNSPECIFIED.,.F.,.F.,(2,2),(0.00000000000000000E0,1.00000000000000000E0),.UNSPECIFIED.);
#339=DEFINITIONAL_REPRESENTATION('',(#338),#157);
#340=PCURVE('',#77,#339);
#341=CARTESIAN_POINT('',(1.00000000000000000E0,0.00000000000000000E0));
#342=CARTESIAN_POINT('',(1.00000000000000000E0,1.00000000000000000E0));
#343=B_SPLINE_CURVE_WITH_KNOTS('',1,(#341,#342),.UNSPECIFIED.,.F.,.F.,(2,2),(0.00000000000000000E0,1.00000000000000000E0),.UNSPECIFIED.);
#344=DEFINITIONAL_REPRESENTATION('',(#343),#157);
#345=PCURVE('',#77,#344);
#346=CARTESIAN_POINT('',(1.00000000000000000E0,1.00000000000000000E0));
#347=CARTESIAN_POINT('',(0.00000000000000000E0,1.00000000000000000E0));
#348=B_SPLINE_CURVE_WITH_KNOTS('',1,(#346,#347),.UNSPECIFIED.,.F.,.F.,(2,2),(0.00000000000000000E0,1.00000000000000000E0),.UNSPECIFIED.);
#349=DEFINITIONAL_REPRESENTATION('',(#348),#157);
#350=PCURVE('',#77,#349);
#351=CARTESIAN_POINT('',(0.00000000000000000E0,1.00000000000000000E0));
#352=CARTESIAN_POINT('',(0.00000000000000000E0,0.00000000000000000E0));
#353=B_SPLINE_CURVE_WITH_KNOTS('',1,(#351,#352),.UNSPECIFIED.,.F.,.F.,(2,2),(0.00000000000000000E0,1.00000000000000000E0),.UNSPECIFIED.);
#354=DEFINITIONAL_REPRESENTATION('',(#353),#157);
#355=PCURVE('',#77,#354);
#356=CARTESIAN_POINT('',(0.00000000000000000E0,0.00000000000000000E0));
#357=CARTESIAN_POINT('',(1.00000000000000000E0,0.00000000000000000E0));
#358=B_SPLINE_CURVE_WITH_KNOTS('',1,(#356,#357),.UNSPECIFIED.,.F.,.F.,(2,2),(0.00000000000000000E0,1.00000000000000000E0),.UNSPECIFIED.);
#359=DEFINITIONAL_REPRESENTATION('',(#358),#157);
#360=PCURVE('',#87,#359);
#361=CARTESIAN_POINT('',(1.00000000000000000E0,0.00000000000000000E0));
#362=CARTESIAN_POINT('',(1.00000000000000000E0,1.00000000000000000E0));
#363=CARTESIAN_POINT('',(0.00000000000000000E0,1.00000000000000000E0));
#364=(BOUNDED_CURVE()B_SPLINE_CURVE(2,(#361,#362,#363),.UNSPECIFIED.,.F.,.F.)B_SPLINE_CURVE_WITH_KNOTS((3,3),(0.00000000000000000E0,1.00000000000000000E0),.UNSPECIFIED.)CURVE()GEOMETRIC_REPRESENTATION_ITEM()RATIONAL_B_SPLINE_CURVE((1.00000000000000000E0,7.07106781186547573E-1,1.00000000000000000E0))REPRESENTATION_ITEM(''));
#365=DEFINITIONAL_REPRESENTATION('',(#364),#157);
#366=PCURVE('',#87,#365);
#367=CARTESIAN_POINT('',(0.00000000000000000E0,1.00000000000000000E0));
#368=CARTESIAN_POINT('',(0.00000000000000000E0,0.00000000000000000E0));
#369=B_SPLINE_CURVE_WITH_KNOTS('',1,(#367,#368),.UNSPECIFIED.,.F.,.F.,(2,2),(0.00000000000000000E0,1.00000000000000000E0),.UNSPECIFIED.);
#370=DEFINITIONAL_REPRESENTATION('',(#369),#157);
#371=PCURVE('',#87,#370);
#372=SURFACE_CURVE('',#90,(#162,#229),.PCURVE_S1.);
#373=EDGE_CURVE('OSCAD_TOPO/3|edge|e:93f945fe0c2a69109cb717950b9024b7|bd6e780057a48a0144b3b3c7e11f3173799ff3367d59b2733df239b93e8f8864',#2,#4,#372,.T.);
#374=SURFACE_CURVE('',#93,(#167,#295),.PCURVE_S1.);
#375=EDGE_CURVE('OSCAD_TOPO/3|edge|e:ff24e47b18127e40b1223c53c4cdc94e|4476bd4bf20fb6085a7ce7c8251d9d450b03a25709562c31649cb03944a12197',#4,#6,#374,.T.);
#376=SURFACE_CURVE('',#97,(#173,#300),.PCURVE_S1.);
#377=EDGE_CURVE('OSCAD_TOPO/3|edge|e:e6da71f65f3bc8c4de86a7cc2a63e148|99541d8deb41456e73cec1872814f79507f0839cea19959b80e3f519b903f90a',#8,#6,#376,.T.);
#378=SURFACE_CURVE('',#100,(#178,#260),.PCURVE_S1.);
#379=EDGE_CURVE('OSCAD_TOPO/3|edge|e:b600f0bdf4f8b072ff26090bc415a397|bc03f36bf5dc9b2684ec72ad4207ac325f070a68f6b0a1d0853d7c5e0c0c2269',#10,#8,#378,.T.);
#380=SURFACE_CURVE('',#103,(#183,#234),.PCURVE_S1.);
#381=EDGE_CURVE('OSCAD_TOPO/3|edge|e:64b7f8b23cb131fc2c2b2dca34cab3f3|fc6bcd704570a6686ebdfd328e686ee5badcc21ee1f65e4d813ee863e2703cff',#2,#10,#380,.T.);
#382=SURFACE_CURVE('',#106,(#188,#250),.PCURVE_S1.);
#383=EDGE_CURVE('OSCAD_TOPO/3|edge|e:f3d4e1a17de461b1261dbf902c62f8f1|2cb11b7de292e7d32ee8b9ce02a475c4567f58fb858283119e220277e6d56b64',#12,#14,#382,.T.);
#384=SURFACE_CURVE('',#109,(#193,#330),.PCURVE_S1.);
#385=EDGE_CURVE('OSCAD_TOPO/3|edge|e:69cc74fc734d7e5bb840d07ee1ad1d5a|9d133c31fbe0a79ec0e65ff0359d5d48aad6f48c359f27f1a1480f276f61adfd',#16,#14,#384,.T.);
#386=SURFACE_CURVE('',#112,(#198,#345),.PCURVE_S1.);
#387=EDGE_CURVE('OSCAD_TOPO/3|edge|e:0bcfa90c10463516b4be3d775277681c|c64ab6873107b87b0c850ef97ff292795305ad8797c9fc3510df4c8561115dce',#16,#18,#386,.T.);
#388=SURFACE_CURVE('',#115,(#203,#213),.PCURVE_S1.);
#389=EDGE_CURVE('OSCAD_TOPO/3|edge|e:5bb2ea9fbc932fbd36ac93dc6aa9fb51|4f41d413589e7549f49212d64f4cfea77926ff3e5fa80feda4e8de260a38fdaf',#12,#18,#388,.T.);
#390=SURFACE_CURVE('',#118,(#208,#255),.PCURVE_S1.);
#391=EDGE_CURVE('OSCAD_TOPO/3|edge|e:6219e8e2ed3ab9b761fae1eec905a67c|0b5dd624373678d92bf788403e2cbcc2f5ce1c9eb4c1dde0b1d689c7d912f7ee',#2,#12,#390,.T.);
#392=SURFACE_CURVE('',#122,(#219,#340),.PCURVE_S1.);
#393=EDGE_CURVE('OSCAD_TOPO/3|edge|e:6d1af38cbdc6774420fa97d09b2a347e|80e54f2a2babe59b4e1ecd55976f21f9b177aeeafb00ec0c439bb5de23488c39',#20,#18,#392,.T.);
#394=SURFACE_CURVE('',#125,(#224,#280),.PCURVE_S1.);
#395=EDGE_CURVE('OSCAD_TOPO/3|edge|e:de6a516e58fa4191a78e4e048120d816|20cf38f9779fca2184be0c02cd3ea5e46e6d70d13f180d26a852c4cabac8beae',#4,#20,#394,.T.);
#396=SURFACE_CURVE('',#128,(#239,#275),.PCURVE_S1.);
#397=EDGE_CURVE('OSCAD_TOPO/3|edge|e:19eedc57b5d8772e6eac7e142ef8560c|876063645b7c1951fd56f539a9601f2e7ea767e201bf59441cdb49c0ab2c49ab',#10,#22,#396,.T.);
#398=SURFACE_CURVE('',#132,(#245,#335),.PCURVE_S1.);
#399=EDGE_CURVE('OSCAD_TOPO/3|edge|e:656eca0210cf727a5ed33b9a5527d734|c493307f4bd53e13285139a09abbc198e397ca42e84db2e8501515c7fd3de8ba',#22,#14,#398,.T.);
#400=SURFACE_CURVE('',#135,(#265,#315),.PCURVE_S1.);
#401=EDGE_CURVE('OSCAD_TOPO/3|edge|e:5f5c289d462b6433f90266128448bd2f|6249f086adabedf551140e72e2199341d847141156b0bcc537d925d9b596e909',#8,#24,#400,.T.);
#402=SURFACE_CURVE('',#138,(#270,#320),.PCURVE_S1.);
#403=EDGE_CURVE('OSCAD_TOPO/3|edge|e:d460fc3744dd04072623498fa08527fc|d657500fff58b0eb0f9b1fe04bdad03576298ab23c3ac8e4b9f770895a6b9682',#24,#22,#402,.T.);
#404=SURFACE_CURVE('',#141,(#285,#355),.PCURVE_S1.);
#405=EDGE_CURVE('OSCAD_TOPO/3|edge|e:932af302ce89b8b9d035f7428a935edf|2f4738e32c0c971789a33f3b3e3d349f19a87f0fe81a9559ee11872ab5b37e0d',#26,#20,#404,.T.);
#406=SURFACE_CURVE('',#144,(#290,#305),.PCURVE_S1.);
#407=EDGE_CURVE('OSCAD_TOPO/3|edge|e:1afd080b0b2dac1955400f82aebb3596|c99e7f8d0aa8fbcb47446c66ded0b79ff22471a43e999d4f10a7e111897220aa',#6,#26,#406,.T.);
#408=SURFACE_CURVE('',#148,(#310,#366),.PCURVE_S1.);
#409=EDGE_CURVE('OSCAD_TOPO/3|edge|e:64890603659f82c3a5ebf2d70d8940f7|bebe5c5c01181719f0f3350c2931b1ff9fc681a4e899158ac935cd101e73de15',#24,#26,#408,.T.);
#410=SURFACE_CURVE('',#152,(#325,#360),.PCURVE_S1.);
#411=EDGE_CURVE('OSCAD_TOPO/3|edge|e:0e430f7119d678164672121c788f626b|85b33d874311a51e7c02f3dc5299cebda17a631884c576b17a24e65cc9db7e55',#24,#16,#410,.T.);
#412=SURFACE_CURVE('',#156,(#350,#371),.PCURVE_S1.);
#413=EDGE_CURVE('OSCAD_TOPO/3|edge|e:dd31bc2e2a459632a59100d9a7f81835|68a2958adf718221c72b16b9624d9d66b3d01d8d6fd73c1e5f921a37f1311714',#26,#16,#412,.T.);
#414=ORIENTED_EDGE('',*,*,#373,.T.);
#415=ORIENTED_EDGE('',*,*,#375,.T.);
#416=ORIENTED_EDGE('',*,*,#377,.F.);
#417=ORIENTED_EDGE('',*,*,#379,.F.);
#418=ORIENTED_EDGE('',*,*,#381,.F.);
#419=EDGE_LOOP('OSCAD_TOPO/3|loop|l:6586687d32735629d3adac3a65aa1fe9|e4c83989720e8378732452fde7ec1d38a968ef2ae390a890b8d574a5e8cd693b',(#414,#415,#416,#417,#418));
#420=ORIENTED_EDGE('',*,*,#383,.T.);
#421=ORIENTED_EDGE('',*,*,#385,.F.);
#422=ORIENTED_EDGE('',*,*,#387,.T.);
#423=ORIENTED_EDGE('',*,*,#389,.F.);
#424=EDGE_LOOP('OSCAD_TOPO/3|loop|l:8c9c7a78f364529d70160c6acf38f3b9|38f57df1edad9e0c3aa650b3db6df6586c87ba1617b76deaef5d59970e00c88d',(#420,#421,#422,#423));
#425=ORIENTED_EDGE('',*,*,#391,.T.);
#426=ORIENTED_EDGE('',*,*,#389,.T.);
#427=ORIENTED_EDGE('',*,*,#393,.F.);
#428=ORIENTED_EDGE('',*,*,#395,.F.);
#429=ORIENTED_EDGE('',*,*,#373,.F.);
#430=EDGE_LOOP('OSCAD_TOPO/3|loop|l:93233a1095d4420ebdee6bbb66d2a34c|a7d2e25d73e5789db3be0537566c0111e1ec1a1475c563c236913335daaf1c83',(#425,#426,#427,#428,#429));
#431=ORIENTED_EDGE('',*,*,#381,.T.);
#432=ORIENTED_EDGE('',*,*,#397,.T.);
#433=ORIENTED_EDGE('',*,*,#399,.T.);
#434=ORIENTED_EDGE('',*,*,#383,.F.);
#435=ORIENTED_EDGE('',*,*,#391,.F.);
#436=EDGE_LOOP('OSCAD_TOPO/3|loop|l:c856fe78b1d8c2f35eb87f02aa2019b1|8aec57a8b62355eb08940bd34501e2472918d03141fabdc37686371525159fc0',(#431,#432,#433,#434,#435));
#437=ORIENTED_EDGE('',*,*,#379,.T.);
#438=ORIENTED_EDGE('',*,*,#401,.T.);
#439=ORIENTED_EDGE('',*,*,#403,.T.);
#440=ORIENTED_EDGE('',*,*,#397,.F.);
#441=EDGE_LOOP('OSCAD_TOPO/3|loop|l:316f3566bb2f6bb4b05eebe0e2172d4c|1139da751dc7843e595148d3596d04f9db978faf39eea21958520544b1a64e41',(#437,#438,#439,#440));
#442=ORIENTED_EDGE('',*,*,#395,.T.);
#443=ORIENTED_EDGE('',*,*,#405,.F.);
#444=ORIENTED_EDGE('',*,*,#407,.F.);
#445=ORIENTED_EDGE('',*,*,#375,.F.);
#446=EDGE_LOOP('OSCAD_TOPO/3|loop|l:dfa27145d6f6257254ed8459c3dd564f|3431c660167f304229fbe3134fe54200a2dc5a28adba9f75d4ee4c7af14effb2',(#442,#443,#444,#445));
#447=ORIENTED_EDGE('',*,*,#377,.T.);
#448=ORIENTED_EDGE('',*,*,#407,.T.);
#449=ORIENTED_EDGE('',*,*,#409,.F.);
#450=ORIENTED_EDGE('',*,*,#401,.F.);
#451=EDGE_LOOP('OSCAD_TOPO/3|loop|l:1b48093fd722832500b42be6a10f7f6a|e087f80f277b51af91ef3531e74e0ea345e24394ad3be9b743d31790d657eac2',(#447,#448,#449,#450));
#452=ORIENTED_EDGE('',*,*,#403,.F.);
#453=ORIENTED_EDGE('',*,*,#411,.T.);
#454=ORIENTED_EDGE('',*,*,#385,.T.);
#455=ORIENTED_EDGE('',*,*,#399,.F.);
#456=EDGE_LOOP('OSCAD_TOPO/3|loop|l:e3afb518605993fff094c67a85cb26ae|0891e1d0bf699a22ef72e587e802364d2d06ead105797c06b64334ee306c7b36',(#452,#453,#454,#455));
#457=ORIENTED_EDGE('',*,*,#393,.T.);
#458=ORIENTED_EDGE('',*,*,#387,.F.);
#459=ORIENTED_EDGE('',*,*,#413,.F.);
#460=ORIENTED_EDGE('',*,*,#405,.T.);
#461=EDGE_LOOP('OSCAD_TOPO/3|loop|l:4c8cbfaa73df5fc41c663b3e26b9a581|d6fe49afa397ebfaa5cd708de570f1b2a2a4052f45a2ef106ecf226aa7672a1e',(#457,#458,#459,#460));
#462=ORIENTED_EDGE('',*,*,#411,.F.);
#463=ORIENTED_EDGE('',*,*,#409,.T.);
#464=ORIENTED_EDGE('',*,*,#413,.T.);
#465=EDGE_LOOP('OSCAD_TOPO/3|loop|l:c50d38f741399bfc93203047c076f7ed|30730b6c4246f4c46247a29ca5772423a52aef905ae0da517a2f88fe8d7a1a12',(#462,#463,#464));
#466=FACE_OUTER_BOUND('',#419,.T.);
#467=ADVANCED_FACE('OSCAD_TOPO/3|face|f:cc1cb234310b249fbf237590cc423e25|7e424dc36b8cdd6f0d353c989135650d990b1739f33deb2fbecbbc4f9763380d',(#466),#31,.T.);
#468=FACE_OUTER_BOUND('',#424,.T.);
#469=ADVANCED_FACE('OSCAD_TOPO/3|face|f:a7cad4e4828ad308229b4ff9eb170501|c3f210a91a6f2f633fdbd8150287bc1dc175ffdf44b78eef1fac9faabd6000f5',(#468),#36,.T.);
#470=FACE_OUTER_BOUND('',#430,.T.);
#471=ADVANCED_FACE('OSCAD_TOPO/3|face|f:3861a905c5b28f55b348e88a24916592|eaf2e727ba668809e6b021287a3d9756e38e8d9a8718ddaf0eb3bf839a9983ab',(#470),#41,.T.);
#472=FACE_OUTER_BOUND('',#436,.T.);
#473=ADVANCED_FACE('OSCAD_TOPO/3|face|f:9eb3994cf7318f840143f364103e6975|49804742cd229f69a1ea0f694c3a667ff47feda3180550a445745c0727c03b80',(#472),#46,.T.);
#474=FACE_OUTER_BOUND('',#441,.T.);
#475=ADVANCED_FACE('OSCAD_TOPO/3|face|f:f6032635bc2b91ee7bba5ee734fa87ce|491958f3595158495f966b18f94499b8b63e9fbfe5e967773ec94d9a173d036c',(#474),#51,.T.);
#476=FACE_OUTER_BOUND('',#446,.T.);
#477=ADVANCED_FACE('OSCAD_TOPO/3|face|f:f74cd6152040bf1b8d731c6d5342446e|16d984e885d3f23f59cd8e22f363238a6cb261613f04c201cfdee2b2d771c65a',(#476),#56,.T.);
#478=FACE_OUTER_BOUND('',#451,.T.);
#479=ADVANCED_FACE('OSCAD_TOPO/3|face|f:d34ef099395f00c6c14c311d264d808c|4999b8f719ca5ebccf0f7e9bc0394065ab4fe446d140f46160918959025971c0',(#478),#63,.T.);
#480=FACE_OUTER_BOUND('',#456,.T.);
#481=ADVANCED_FACE('OSCAD_TOPO/3|face|f:5be318a9bc493a143fef959224102123|2b3aa9d2aae38ebd295e38cd255203481d4a53e7e75eca358c621fdc310928fa',(#480),#70,.T.);
#482=FACE_OUTER_BOUND('',#461,.T.);
#483=ADVANCED_FACE('OSCAD_TOPO/3|face|f:7be58facb00cc9707e4ba86d66d542ab|699a14045905b8a2ef02e090c3ebfc22184bb54f5d9c947fbaf94df44a7d53b3',(#482),#77,.T.);
#484=FACE_OUTER_BOUND('',#465,.T.);
#485=ADVANCED_FACE('OSCAD_TOPO/3|face|f:637210189e5715ac5c1b46829ca5d675|9b92a09b140eca1d45c09af0f8d75d7175275823b58697881e657b0e0a7b119f',(#484),#87,.T.);
#486=CLOSED_SHELL('OSCAD_TOPO/3|shell|s:f0e72ec5a382a09d695f1bb8bd99a7cf|ea7a07e2792acc37d00a2f95d30fb4ead1363403ded557a26f6ebf37364c3704',(#467,#469,#471,#473,#475,#477,#479,#481,#483,#485));
#487=MANIFOLD_SOLID_BREP('OSCAD_TOPO/3|body|b:82164b02dd7a8251b6a5e4555e008d5a|19fb23bb1e17abe053d52bc8939867d3e83e78b024b2c02583732cdf3eeecbbe',#486);
#488=(LENGTH_UNIT()NAMED_UNIT(*)SI_UNIT(.MILLI.,.METRE.));
#489=UNCERTAINTY_MEASURE_WITH_UNIT(LENGTH_MEASURE(9.99999999999999955E-8),#488,'distance_accuracy_value','');
#490=(GEOMETRIC_REPRESENTATION_CONTEXT(3)GLOBAL_UNCERTAINTY_ASSIGNED_CONTEXT((#489))GLOBAL_UNIT_ASSIGNED_CONTEXT((#488))REPRESENTATION_CONTEXT('','3D'));
#491=ADVANCED_BREP_SHAPE_REPRESENTATION('',(#487),#490);
#492=APPLICATION_CONTEXT('managed model based 3d engineering');
#493=PRODUCT_CONTEXT('',#492,'mechanical');
#494=PRODUCT('model','model','',(#493));
#495=PRODUCT_DEFINITION_FORMATION('1','',#494);
#496=PRODUCT_DEFINITION_CONTEXT('part definition',#492,'design');
#497=PRODUCT_DEFINITION('design','',#495,#496);
#498=PRODUCT_DEFINITION_SHAPE('','',#497);
#499=SHAPE_DEFINITION_REPRESENTATION(#498,#491);
ENDSEC;
END-ISO-10303-21;
