ISO-10303-21;
HEADER;
FILE_DESCRIPTION(('OpenSCAD Viewer retained AP242 B-rep'),'2;1');
FILE_NAME('model.step','',(''),(''),'OpenSCAD Viewer','OpenSCAD Viewer','');
FILE_SCHEMA(('AP242_MANAGED_MODEL_BASED_3D_ENGINEERING_MIM_LF'));
ENDSEC;
DATA;
#1=CARTESIAN_POINT('',(2.90605352735681315E1,-8.44540487444005272E0,2.34857089269551800E1));
#2=VERTEX_POINT('OSCAD_TOPO/3|vertex|v:ae85a547cf9b73fb748c0653f6c2f822|7e6c2c54ab5ac20945536bad37b46d2eca9576df9bb65e15be75d73ed8e400ba',#1);
#3=CARTESIAN_POINT('',(2.19308763930766446E1,-1.20741738458446726E1,2.34857089269551800E1));
#4=VERTEX_POINT('OSCAD_TOPO/3|vertex|v:a51181a3a4462fd3c3cdda64b7e923de|59edc9eeb7ae974b34ff4f187f7ca8cd0ba78198ca5255ff3fd182c9c58498d9',#3);
#5=CARTESIAN_POINT('',(2.59993250014434771E1,-2.43086242941436570E0,3.08650226380548105E1));
#6=VERTEX_POINT('OSCAD_TOPO/3|vertex|v:1d85c3471b35e512eb7263d74f193213|20780615cfb68d31567f8a68ba5b49df69d912a16f5ad639409ca504b6f0abca',#5);
#7=CARTESIAN_POINT('',(2.70521984266857061E1,-4.49950565951950132E0,1.94364543665275775E1));
#8=VERTEX_POINT('OSCAD_TOPO/3|vertex|v:8bd6b18248df0f4f1ed561f9704cde93|0457e64a4a1e6270bc2ea972c3255f3256b2d6ab8311ae35268909f715e7573e',#7);
#9=CARTESIAN_POINT('',(1.96349686889831538E1,-7.56326701207540708E0,2.90201942102799038E1));
#10=VERTEX_POINT('OSCAD_TOPO/3|vertex|v:296fb693441b34d886512e2b6ae976de|2e0120a1392ece793fdb1df9dc1dec5afb5127f9ce66cca97865436c2e8d1eac',#9);
#11=CARTESIAN_POINT('',(2.10976845211055810E1,-4.92564109725504196E0,3.08650226380548105E1));
#12=VERTEX_POINT('OSCAD_TOPO/3|vertex|v:63e2b6bcc9dcb8b9bac2da48da33dc0c|6523fbaf1577febc1e96f26c35a67e14dc15f710083f5850135d67dc1d58f9b0',#11);
#13=CARTESIAN_POINT('',(1.84634388616350762E1,-5.26149247003841758E0,2.66581290500304675E1));
#14=VERTEX_POINT('OSCAD_TOPO/3|vertex|v:2ee36b31f0548bd9477cba178fc75648|af3890d938e3a0fbf8c572257aa6fa5a4bdbffed283c35ef98288a652cd5630f',#13);
#15=CARTESIAN_POINT('',(1.99261546937574998E1,-2.62386655521805334E0,2.85029574778053743E1));
#16=VERTEX_POINT('OSCAD_TOPO/3|vertex|v:a2843e57c65fda6d53d1e4a1e5a25c35|79e835c3a8ebd1f2cbe1e8e682fe0f74507476d82957f438f477d51d3c0a3a81',#15);
#17=CARTESIAN_POINT('',(1.98546502422543192E1,-2.48337749359091120E0,2.49709396498522977E1));
#18=VERTEX_POINT('OSCAD_TOPO/3|vertex|v:70ef9578916fcd88d976bf43e1644b70|6893dffeb2de96371dc48868a092c00308f651a645ed3e42e799675c3c28c391',#17);
#19=CARTESIAN_POINT('',(2.07593465657285634E1,-9.77239930380768484E0,2.11236437667057437E1));
#20=VERTEX_POINT('OSCAD_TOPO/3|vertex|v:592fadc526d15725febbac1bd3a6ab42|174048cd61feb9e3575c8fc40308d29ffcfc4607932973e894b84c851e4d7b59',#19);
#21=CARTESIAN_POINT('',(2.21505579463478099E1,-6.99428432736017669E0,1.94364543665275775E1));
#22=VERTEX_POINT('OSCAD_TOPO/3|vertex|v:294627ad6c3e935b81f5b0ca192e41c7|a90b529969c47928beef373ce280f77a91e0ee33ac40968cb164d00bcbebf178',#21);
#23=CARTESIAN_POINT('',(2.48277951740953995E1,-1.29087887377376642E-1,2.85029574778053743E1));
#24=VERTEX_POINT('OSCAD_TOPO/3|vertex|v:3b6b1c8256a756456407805888d6f30c|506cc33d3896d5931dc9e07e5575cb73c30839cbdbe827afee9e08702b50aa41',#23);
#25=CARTESIAN_POINT('',(2.47562907225922189E1,1.14011742497655000E-2,2.49709396498522977E1));
#26=VERTEX_POINT('OSCAD_TOPO/3|vertex|v:9b0e7c0aaba366c487da37d21b0e8638|260786e5d49ee2893d0d34d0cef0320737494e001633aebaf62ef178327b9400',#25);
#27=CARTESIAN_POINT('',(2.19308763930766446E1,-1.20741738458446726E1,2.34857089269551800E1));
#28=CARTESIAN_POINT('',(1.88696661209519903E1,-6.05963140081898466E0,3.08650226380548105E1));
#29=CARTESIAN_POINT('',(2.90605352735681315E1,-8.44540487444005272E0,2.34857089269551800E1));
#30=CARTESIAN_POINT('',(2.59993250014434771E1,-2.43086242941436570E0,3.08650226380548105E1));
#31=B_SPLINE_SURFACE_WITH_KNOTS('',1,1,((#27,#28),(#29,#30)),.UNSPECIFIED.,.F.,.F.,.F.,(2,2),(2,2),(0.00000000000000000E0,1.00000000000000000E0),(0.00000000000000000E0,1.00000000000000000E0),.UNSPECIFIED.);
#32=CARTESIAN_POINT('',(2.70521984266857061E1,-4.49950565951950132E0,1.94364543665275775E1));
#33=CARTESIAN_POINT('',(2.39909881545610553E1,1.51503678550618659E0,2.68157680776272045E1));
#34=CARTESIAN_POINT('',(1.99225395461942227E1,-8.12827463092412117E0,1.94364543665275775E1));
#35=CARTESIAN_POINT('',(1.68613292740695684E1,-2.11373218589843281E0,2.68157680776272045E1));
#36=B_SPLINE_SURFACE_WITH_KNOTS('',1,1,((#32,#33),(#34,#35)),.UNSPECIFIED.,.F.,.F.,.F.,(2,2),(2,2),(0.00000000000000000E0,1.00000000000000000E0),(0.00000000000000000E0,1.00000000000000000E0),.UNSPECIFIED.);
#37=CARTESIAN_POINT('',(2.59993250014434771E1,-2.43086242941436570E0,3.08650226380548105E1));
#38=CARTESIAN_POINT('',(2.39909881545610553E1,1.51503678550618659E0,2.68157680776272045E1));
#39=CARTESIAN_POINT('',(2.90605352735681315E1,-8.44540487444005272E0,2.34857089269551800E1));
#40=CARTESIAN_POINT('',(2.70521984266857061E1,-4.49950565951950132E0,1.94364543665275775E1));
#41=B_SPLINE_SURFACE_WITH_KNOTS('',1,1,((#37,#38),(#39,#40)),.UNSPECIFIED.,.F.,.F.,.F.,(2,2),(2,2),(0.00000000000000000E0,1.00000000000000000E0),(0.00000000000000000E0,1.00000000000000000E0),.UNSPECIFIED.);
#42=CARTESIAN_POINT('',(2.90605352735681315E1,-8.44540487444005272E0,2.34857089269551800E1));
#43=CARTESIAN_POINT('',(2.70521984266857061E1,-4.49950565951950132E0,1.94364543665275775E1));
#44=CARTESIAN_POINT('',(2.19308763930766446E1,-1.20741738458446726E1,2.34857089269551800E1));
#45=CARTESIAN_POINT('',(1.99225395461942227E1,-8.12827463092412117E0,1.94364543665275775E1));
#46=B_SPLINE_SURFACE_WITH_KNOTS('',1,1,((#42,#43),(#44,#45)),.UNSPECIFIED.,.F.,.F.,.F.,(2,2),(2,2),(0.00000000000000000E0,1.00000000000000000E0),(0.00000000000000000E0,1.00000000000000000E0),.UNSPECIFIED.);
#47=CARTESIAN_POINT('',(2.19308763930766446E1,-1.20741738458446726E1,2.34857089269551800E1));
#48=CARTESIAN_POINT('',(1.99225395461942227E1,-8.12827463092412117E0,1.94364543665275775E1));
#49=CARTESIAN_POINT('',(1.88696661209519903E1,-6.05963140081898466E0,3.08650226380548105E1));
#50=CARTESIAN_POINT('',(1.68613292740695684E1,-2.11373218589843281E0,2.68157680776272045E1));
#51=B_SPLINE_SURFACE_WITH_KNOTS('',1,1,((#47,#48),(#49,#50)),.UNSPECIFIED.,.F.,.F.,.F.,(2,2),(2,2),(0.00000000000000000E0,1.00000000000000000E0),(0.00000000000000000E0,1.00000000000000000E0),.UNSPECIFIED.);
#52=CARTESIAN_POINT('',(1.88696661209519903E1,-6.05963140081898466E0,3.08650226380548105E1));
#53=CARTESIAN_POINT('',(1.68613292740695684E1,-2.11373218589843281E0,2.68157680776272045E1));
#54=CARTESIAN_POINT('',(2.59993250014434771E1,-2.43086242941436570E0,3.08650226380548105E1));
#55=CARTESIAN_POINT('',(2.39909881545610553E1,1.51503678550618659E0,2.68157680776272045E1));
#56=B_SPLINE_SURFACE_WITH_KNOTS('',1,1,((#52,#53),(#54,#55)),.UNSPECIFIED.,.F.,.F.,.F.,(2,2),(2,2),(0.00000000000000000E0,1.00000000000000000E0),(0.00000000000000000E0,1.00000000000000000E0),.UNSPECIFIED.);
#57=CARTESIAN_POINT('',(1.96349686889831538E1,-7.56326701207540708E0,2.90201942102799038E1));
#58=CARTESIAN_POINT('',(1.84634388616350762E1,-5.26149247003841758E0,2.66581290500304675E1));
#59=CARTESIAN_POINT('',(1.88696661209519903E1,-6.05963140081898466E0,3.08650226380548105E1));
#60=CARTESIAN_POINT('',(1.76981362936039126E1,-3.75785685878199605E0,2.85029574778053743E1));
#61=CARTESIAN_POINT('',(2.10976845211055810E1,-4.92564109725504196E0,3.08650226380548105E1));
#62=CARTESIAN_POINT('',(1.99261546937574998E1,-2.62386655521805334E0,2.85029574778053743E1));
#63=(BOUNDED_SURFACE()B_SPLINE_SURFACE(2,1,((#57,#58),(#59,#60),(#61,#62)),.UNSPECIFIED.,.F.,.F.,.F.)B_SPLINE_SURFACE_WITH_KNOTS((3,3),(2,2),(0.00000000000000000E0,1.00000000000000000E0),(0.00000000000000000E0,1.00000000000000000E0),.UNSPECIFIED.)GEOMETRIC_REPRESENTATION_ITEM()RATIONAL_B_SPLINE_SURFACE(((1.00000000000000000E0,1.00000000000000000E0),(7.07106781186547573E-1,7.07106781186547573E-1),(1.00000000000000000E0,1.00000000000000000E0)))REPRESENTATION_ITEM('')SURFACE());
#64=CARTESIAN_POINT('',(2.21505579463478099E1,-6.99428432736017669E0,1.94364543665275775E1));
#65=CARTESIAN_POINT('',(1.98546502422543192E1,-2.48337749359091120E0,2.49709396498522977E1));
#66=CARTESIAN_POINT('',(1.99225395461942227E1,-8.12827463092412117E0,1.94364543665275775E1));
#67=CARTESIAN_POINT('',(1.76266318421007320E1,-3.61736779715485390E0,2.49709396498522977E1));
#68=CARTESIAN_POINT('',(2.07593465657285634E1,-9.77239930380768484E0,2.11236437667057437E1));
#69=CARTESIAN_POINT('',(1.84634388616350762E1,-5.26149247003841758E0,2.66581290500304675E1));
#70=(BOUNDED_SURFACE()B_SPLINE_SURFACE(2,1,((#64,#65),(#66,#67),(#68,#69)),.UNSPECIFIED.,.F.,.F.,.F.)B_SPLINE_SURFACE_WITH_KNOTS((3,3),(2,2),(0.00000000000000000E0,1.00000000000000000E0),(0.00000000000000000E0,1.00000000000000000E0),.UNSPECIFIED.)GEOMETRIC_REPRESENTATION_ITEM()RATIONAL_B_SPLINE_SURFACE(((1.00000000000000000E0,1.00000000000000000E0),(1.00000000000000000E0,1.00000000000000000E0),(2.00000000000000000E0,2.00000000000000000E0)))REPRESENTATION_ITEM('')SURFACE());
#71=CARTESIAN_POINT('',(2.48277951740953995E1,-1.29087887377376642E-1,2.85029574778053743E1));
#72=CARTESIAN_POINT('',(1.99261546937574998E1,-2.62386655521805334E0,2.85029574778053743E1));
#73=CARTESIAN_POINT('',(2.39909881545610553E1,1.51503678550618659E0,2.68157680776272045E1));
#74=CARTESIAN_POINT('',(1.90893476742231591E1,-9.79741882334489667E-1,2.68157680776272045E1));
#75=CARTESIAN_POINT('',(2.47562907225922189E1,1.14011742497655000E-2,2.49709396498522977E1));
#76=CARTESIAN_POINT('',(1.98546502422543192E1,-2.48337749359091120E0,2.49709396498522977E1));
#77=(BOUNDED_SURFACE()B_SPLINE_SURFACE(2,1,((#71,#72),(#73,#74),(#75,#76)),.UNSPECIFIED.,.F.,.F.,.F.)B_SPLINE_SURFACE_WITH_KNOTS((3,3),(2,2),(0.00000000000000000E0,1.00000000000000000E0),(0.00000000000000000E0,1.00000000000000000E0),.UNSPECIFIED.)GEOMETRIC_REPRESENTATION_ITEM()RATIONAL_B_SPLINE_SURFACE(((2.00000000000000000E0,2.00000000000000000E0),(1.00000000000000000E0,1.00000000000000000E0),(1.00000000000000000E0,1.00000000000000000E0)))REPRESENTATION_ITEM('')SURFACE());
#78=CARTESIAN_POINT('',(1.98546502422543192E1,-2.48337749359091120E0,2.49709396498522977E1));
#79=CARTESIAN_POINT('',(1.90893476742231591E1,-9.79741882334489667E-1,2.68157680776272045E1));
#80=CARTESIAN_POINT('',(1.99261546937574998E1,-2.62386655521805334E0,2.85029574778053743E1));
#81=CARTESIAN_POINT('',(1.76266318421007320E1,-3.61736779715485390E0,2.49709396498522977E1));
#82=CARTESIAN_POINT('',(1.68613292740695684E1,-2.11373218589843281E0,2.68157680776272045E1));
#83=CARTESIAN_POINT('',(1.88121454936807062E1,-3.19086170700002469E0,2.85029574778053743E1));
#84=CARTESIAN_POINT('',(1.84634388616350762E1,-5.26149247003841758E0,2.66581290500304675E1));
#85=CARTESIAN_POINT('',(1.80807875776194926E1,-4.50967466441020726E0,2.75805432639179209E1));
#86=CARTESIAN_POINT('',(1.89748456228436098E1,-4.42911351897401051E0,2.84504111352731286E1));
#87=(BOUNDED_SURFACE()B_SPLINE_SURFACE(2,2,((#78,#79,#80),(#81,#82,#83),(#84,#85,#86)),.UNSPECIFIED.,.F.,.F.,.F.)B_SPLINE_SURFACE_WITH_KNOTS((3,3),(3,3),(0.00000000000000000E0,1.00000000000000000E0),(0.00000000000000000E0,1.00000000000000000E0),.UNSPECIFIED.)GEOMETRIC_REPRESENTATION_ITEM()RATIONAL_B_SPLINE_SURFACE(((1.00000000000000000E0,1.00000000000000000E0,2.00000000000000000E0),(1.00000000000000000E0,1.00000000000000000E0,2.00000000000000000E0),(2.00000000000000000E0,2.00000000000000000E0,3.00000000000000000E0)))REPRESENTATION_ITEM('')SURFACE());
#88=CARTESIAN_POINT('',(2.90605352735681315E1,-8.44540487444005272E0,2.34857089269551800E1));
#89=CARTESIAN_POINT('',(2.19308763930766446E1,-1.20741738458446726E1,2.34857089269551800E1));
#90=B_SPLINE_CURVE_WITH_KNOTS('',1,(#88,#89),.UNSPECIFIED.,.F.,.F.,(2,2),(0.00000000000000000E0,1.00000000000000000E0),.UNSPECIFIED.);
#91=CARTESIAN_POINT('',(2.19308763930766446E1,-1.20741738458446726E1,2.34857089269551800E1));
#92=CARTESIAN_POINT('',(1.96349686889831538E1,-7.56326701207540708E0,2.90201942102799038E1));
#93=B_SPLINE_CURVE_WITH_KNOTS('',1,(#91,#92),.UNSPECIFIED.,.F.,.F.,(2,2),(0.00000000000000000E0,1.00000000000000000E0),.UNSPECIFIED.);
#94=CARTESIAN_POINT('',(2.59993250014434771E1,-2.43086242941436570E0,3.08650226380548105E1));
#95=CARTESIAN_POINT('',(2.10976845211055810E1,-4.92564109725504196E0,3.08650226380548105E1));
#96=B_SPLINE_CURVE_WITH_KNOTS('',1,(#94,#95),.UNSPECIFIED.,.F.,.F.,(2,2),(0.00000000000000000E0,1.00000000000000000E0),.UNSPECIFIED.);
#97=CARTESIAN_POINT('',(2.90605352735681315E1,-8.44540487444005272E0,2.34857089269551800E1));
#98=CARTESIAN_POINT('',(2.59993250014434771E1,-2.43086242941436570E0,3.08650226380548105E1));
#99=B_SPLINE_CURVE_WITH_KNOTS('',1,(#97,#98),.UNSPECIFIED.,.F.,.F.,(2,2),(0.00000000000000000E0,1.00000000000000000E0),.UNSPECIFIED.);
#100=CARTESIAN_POINT('',(2.90605352735681315E1,-8.44540487444005272E0,2.34857089269551800E1));
#101=CARTESIAN_POINT('',(2.70521984266857061E1,-4.49950565951950132E0,1.94364543665275775E1));
#102=B_SPLINE_CURVE_WITH_KNOTS('',1,(#100,#101),.UNSPECIFIED.,.F.,.F.,(2,2),(0.00000000000000000E0,1.00000000000000000E0),.UNSPECIFIED.);
#103=CARTESIAN_POINT('',(2.19308763930766446E1,-1.20741738458446726E1,2.34857089269551800E1));
#104=CARTESIAN_POINT('',(2.07593465657285634E1,-9.77239930380768484E0,2.11236437667057437E1));
#105=B_SPLINE_CURVE_WITH_KNOTS('',1,(#103,#104),.UNSPECIFIED.,.F.,.F.,(2,2),(0.00000000000000000E0,1.00000000000000000E0),.UNSPECIFIED.);
#106=CARTESIAN_POINT('',(1.84634388616350762E1,-5.26149247003841758E0,2.66581290500304675E1));
#107=CARTESIAN_POINT('',(2.07593465657285634E1,-9.77239930380768484E0,2.11236437667057437E1));
#108=B_SPLINE_CURVE_WITH_KNOTS('',1,(#106,#107),.UNSPECIFIED.,.F.,.F.,(2,2),(0.00000000000000000E0,1.00000000000000000E0),.UNSPECIFIED.);
#109=CARTESIAN_POINT('',(1.96349686889831538E1,-7.56326701207540708E0,2.90201942102799038E1));
#110=CARTESIAN_POINT('',(1.84634388616350762E1,-5.26149247003841758E0,2.66581290500304675E1));
#111=B_SPLINE_CURVE_WITH_KNOTS('',1,(#109,#110),.UNSPECIFIED.,.F.,.F.,(2,2),(0.00000000000000000E0,1.00000000000000000E0),.UNSPECIFIED.);
#112=CARTESIAN_POINT('',(2.10976845211055810E1,-4.92564109725504196E0,3.08650226380548105E1));
#113=CARTESIAN_POINT('',(1.99261546937574998E1,-2.62386655521805334E0,2.85029574778053743E1));
#114=B_SPLINE_CURVE_WITH_KNOTS('',1,(#112,#113),.UNSPECIFIED.,.F.,.F.,(2,2),(0.00000000000000000E0,1.00000000000000000E0),.UNSPECIFIED.);
#115=CARTESIAN_POINT('',(2.59993250014434771E1,-2.43086242941436570E0,3.08650226380548105E1));
#116=CARTESIAN_POINT('',(2.48277951740953995E1,-1.29087887377376642E-1,2.85029574778053743E1));
#117=B_SPLINE_CURVE_WITH_KNOTS('',1,(#115,#116),.UNSPECIFIED.,.F.,.F.,(2,2),(0.00000000000000000E0,1.00000000000000000E0),.UNSPECIFIED.);
#118=CARTESIAN_POINT('',(1.99261546937574998E1,-2.62386655521805334E0,2.85029574778053743E1));
#119=CARTESIAN_POINT('',(2.48277951740953995E1,-1.29087887377376642E-1,2.85029574778053743E1));
#120=B_SPLINE_CURVE_WITH_KNOTS('',1,(#118,#119),.UNSPECIFIED.,.F.,.F.,(2,2),(0.00000000000000000E0,1.00000000000000000E0),.UNSPECIFIED.);
#121=CARTESIAN_POINT('',(2.70521984266857061E1,-4.49950565951950132E0,1.94364543665275775E1));
#122=CARTESIAN_POINT('',(2.21505579463478099E1,-6.99428432736017669E0,1.94364543665275775E1));
#123=B_SPLINE_CURVE_WITH_KNOTS('',1,(#121,#122),.UNSPECIFIED.,.F.,.F.,(2,2),(0.00000000000000000E0,1.00000000000000000E0),.UNSPECIFIED.);
#124=CARTESIAN_POINT('',(1.98546502422543192E1,-2.48337749359091120E0,2.49709396498522977E1));
#125=CARTESIAN_POINT('',(2.21505579463478099E1,-6.99428432736017669E0,1.94364543665275775E1));
#126=B_SPLINE_CURVE_WITH_KNOTS('',1,(#124,#125),.UNSPECIFIED.,.F.,.F.,(2,2),(0.00000000000000000E0,1.00000000000000000E0),.UNSPECIFIED.);
#127=CARTESIAN_POINT('',(2.70521984266857061E1,-4.49950565951950132E0,1.94364543665275775E1));
#128=CARTESIAN_POINT('',(2.47562907225922189E1,1.14011742497655000E-2,2.49709396498522977E1));
#129=B_SPLINE_CURVE_WITH_KNOTS('',1,(#127,#128),.UNSPECIFIED.,.F.,.F.,(2,2),(0.00000000000000000E0,1.00000000000000000E0),.UNSPECIFIED.);
#130=CARTESIAN_POINT('',(1.98546502422543192E1,-2.48337749359091120E0,2.49709396498522977E1));
#131=CARTESIAN_POINT('',(2.47562907225922189E1,1.14011742497655000E-2,2.49709396498522977E1));
#132=B_SPLINE_CURVE_WITH_KNOTS('',1,(#130,#131),.UNSPECIFIED.,.F.,.F.,(2,2),(0.00000000000000000E0,1.00000000000000000E0),.UNSPECIFIED.);
#133=CARTESIAN_POINT('',(1.96349686889831538E1,-7.56326701207540708E0,2.90201942102799038E1));
#134=CARTESIAN_POINT('',(1.88696661209519903E1,-6.05963140081898466E0,3.08650226380548105E1));
#135=CARTESIAN_POINT('',(2.10976845211055810E1,-4.92564109725504196E0,3.08650226380548105E1));
#136=(BOUNDED_CURVE()B_SPLINE_CURVE(2,(#133,#134,#135),.UNSPECIFIED.,.F.,.F.)B_SPLINE_CURVE_WITH_KNOTS((3,3),(0.00000000000000000E0,1.00000000000000000E0),.UNSPECIFIED.)CURVE()GEOMETRIC_REPRESENTATION_ITEM()RATIONAL_B_SPLINE_CURVE((1.00000000000000000E0,7.07106781186547573E-1,1.00000000000000000E0))REPRESENTATION_ITEM(''));
#137=CARTESIAN_POINT('',(1.84634388616350762E1,-5.26149247003841758E0,2.66581290500304675E1));
#138=CARTESIAN_POINT('',(1.76981362936039126E1,-3.75785685878199605E0,2.85029574778053743E1));
#139=CARTESIAN_POINT('',(1.99261546937574998E1,-2.62386655521805334E0,2.85029574778053743E1));
#140=(BOUNDED_CURVE()B_SPLINE_CURVE(2,(#137,#138,#139),.UNSPECIFIED.,.F.,.F.)B_SPLINE_CURVE_WITH_KNOTS((3,3),(0.00000000000000000E0,1.00000000000000000E0),.UNSPECIFIED.)CURVE()GEOMETRIC_REPRESENTATION_ITEM()RATIONAL_B_SPLINE_CURVE((1.00000000000000000E0,7.07106781186547573E-1,1.00000000000000000E0))REPRESENTATION_ITEM(''));
#141=CARTESIAN_POINT('',(1.84634388616350762E1,-5.26149247003841758E0,2.66581290500304675E1));
#142=CARTESIAN_POINT('',(1.76266318421007320E1,-3.61736779715485390E0,2.49709396498522977E1));
#143=CARTESIAN_POINT('',(1.98546502422543192E1,-2.48337749359091120E0,2.49709396498522977E1));
#144=(BOUNDED_CURVE()B_SPLINE_CURVE(2,(#141,#142,#143),.UNSPECIFIED.,.F.,.F.)B_SPLINE_CURVE_WITH_KNOTS((3,3),(0.00000000000000000E0,1.00000000000000000E0),.UNSPECIFIED.)CURVE()GEOMETRIC_REPRESENTATION_ITEM()RATIONAL_B_SPLINE_CURVE((2.00000000000000000E0,1.00000000000000000E0,1.00000000000000000E0))REPRESENTATION_ITEM(''));
#145=CARTESIAN_POINT('',(1.99261546937574998E1,-2.62386655521805334E0,2.85029574778053743E1));
#146=CARTESIAN_POINT('',(1.90893476742231591E1,-9.79741882334489667E-1,2.68157680776272045E1));
#147=CARTESIAN_POINT('',(1.98546502422543192E1,-2.48337749359091120E0,2.49709396498522977E1));
#148=(BOUNDED_CURVE()B_SPLINE_CURVE(2,(#145,#146,#147),.UNSPECIFIED.,.F.,.F.)B_SPLINE_CURVE_WITH_KNOTS((3,3),(0.00000000000000000E0,1.00000000000000000E0),.UNSPECIFIED.)CURVE()GEOMETRIC_REPRESENTATION_ITEM()RATIONAL_B_SPLINE_CURVE((2.00000000000000000E0,1.00000000000000000E0,1.00000000000000000E0))REPRESENTATION_ITEM(''));
#149=CARTESIAN_POINT('',(2.07593465657285634E1,-9.77239930380768484E0,2.11236437667057437E1));
#150=CARTESIAN_POINT('',(1.99225395461942227E1,-8.12827463092412117E0,1.94364543665275775E1));
#151=CARTESIAN_POINT('',(2.21505579463478099E1,-6.99428432736017669E0,1.94364543665275775E1));
#152=(BOUNDED_CURVE()B_SPLINE_CURVE(2,(#149,#150,#151),.UNSPECIFIED.,.F.,.F.)B_SPLINE_CURVE_WITH_KNOTS((3,3),(0.00000000000000000E0,1.00000000000000000E0),.UNSPECIFIED.)CURVE()GEOMETRIC_REPRESENTATION_ITEM()RATIONAL_B_SPLINE_CURVE((2.00000000000000000E0,1.00000000000000000E0,1.00000000000000000E0))REPRESENTATION_ITEM(''));
#153=CARTESIAN_POINT('',(2.48277951740953995E1,-1.29087887377376642E-1,2.85029574778053743E1));
#154=CARTESIAN_POINT('',(2.39909881545610553E1,1.51503678550618659E0,2.68157680776272045E1));
#155=CARTESIAN_POINT('',(2.47562907225922189E1,1.14011742497655000E-2,2.49709396498522977E1));
#156=(BOUNDED_CURVE()B_SPLINE_CURVE(2,(#153,#154,#155),.UNSPECIFIED.,.F.,.F.)B_SPLINE_CURVE_WITH_KNOTS((3,3),(0.00000000000000000E0,1.00000000000000000E0),.UNSPECIFIED.)CURVE()GEOMETRIC_REPRESENTATION_ITEM()RATIONAL_B_SPLINE_CURVE((2.00000000000000000E0,1.00000000000000000E0,1.00000000000000000E0))REPRESENTATION_ITEM(''));
#157=(GEOMETRIC_REPRESENTATION_CONTEXT(2)REPRESENTATION_CONTEXT('','2D'));
#158=CARTESIAN_POINT('',(1.00000000000000000E0,0.00000000000000000E0));
#159=CARTESIAN_POINT('',(1.00000000000000000E0,1.00000000000000000E0));
#160=B_SPLINE_CURVE_WITH_KNOTS('',1,(#158,#159),.UNSPECIFIED.,.F.,.F.,(2,2),(0.00000000000000000E0,1.00000000000000000E0),.UNSPECIFIED.);
#161=DEFINITIONAL_REPRESENTATION('',(#160),#157);
#162=PCURVE('',#31,#161);
#163=CARTESIAN_POINT('',(1.00000000000000000E0,1.00000000000000000E0));
#164=CARTESIAN_POINT('',(3.12499999999999889E-1,1.00000000000000000E0));
#165=B_SPLINE_CURVE_WITH_KNOTS('',1,(#163,#164),.UNSPECIFIED.,.F.,.F.,(2,2),(0.00000000000000000E0,1.00000000000000000E0),.UNSPECIFIED.);
#166=DEFINITIONAL_REPRESENTATION('',(#165),#157);
#167=PCURVE('',#31,#166);
#168=CARTESIAN_POINT('',(3.12499999999999889E-1,1.00000000000000000E0));
#169=CARTESIAN_POINT('',(0.00000000000000000E0,1.00000000000000000E0));
#170=CARTESIAN_POINT('',(0.00000000000000000E0,7.50000000000000111E-1));
#171=(BOUNDED_CURVE()B_SPLINE_CURVE(2,(#168,#169,#170),.UNSPECIFIED.,.F.,.F.)B_SPLINE_CURVE_WITH_KNOTS((3,3),(0.00000000000000000E0,1.00000000000000000E0),.UNSPECIFIED.)CURVE()GEOMETRIC_REPRESENTATION_ITEM()RATIONAL_B_SPLINE_CURVE((1.00000000000000000E0,7.07106781186547573E-1,1.00000000000000000E0))REPRESENTATION_ITEM(''));
#172=DEFINITIONAL_REPRESENTATION('',(#171),#157);
#173=PCURVE('',#31,#172);
#174=CARTESIAN_POINT('',(0.00000000000000000E0,7.50000000000000111E-1));
#175=CARTESIAN_POINT('',(0.00000000000000000E0,0.00000000000000000E0));
#176=B_SPLINE_CURVE_WITH_KNOTS('',1,(#174,#175),.UNSPECIFIED.,.F.,.F.,(2,2),(0.00000000000000000E0,1.00000000000000000E0),.UNSPECIFIED.);
#177=DEFINITIONAL_REPRESENTATION('',(#176),#157);
#178=PCURVE('',#31,#177);
#179=CARTESIAN_POINT('',(0.00000000000000000E0,0.00000000000000000E0));
#180=CARTESIAN_POINT('',(1.00000000000000000E0,0.00000000000000000E0));
#181=B_SPLINE_CURVE_WITH_KNOTS('',1,(#179,#180),.UNSPECIFIED.,.F.,.F.,(2,2),(0.00000000000000000E0,1.00000000000000000E0),.UNSPECIFIED.);
#182=DEFINITIONAL_REPRESENTATION('',(#181),#157);
#183=PCURVE('',#31,#182);
#184=CARTESIAN_POINT('',(0.00000000000000000E0,0.00000000000000000E0));
#185=CARTESIAN_POINT('',(6.87500000000000111E-1,0.00000000000000000E0));
#186=B_SPLINE_CURVE_WITH_KNOTS('',1,(#184,#185),.UNSPECIFIED.,.F.,.F.,(2,2),(0.00000000000000000E0,1.00000000000000000E0),.UNSPECIFIED.);
#187=DEFINITIONAL_REPRESENTATION('',(#186),#157);
#188=PCURVE('',#36,#187);
#189=CARTESIAN_POINT('',(6.87500000000000111E-1,0.00000000000000000E0));
#190=CARTESIAN_POINT('',(6.87500000000000111E-1,7.50000000000000111E-1));
#191=B_SPLINE_CURVE_WITH_KNOTS('',1,(#189,#190),.UNSPECIFIED.,.F.,.F.,(2,2),(0.00000000000000000E0,1.00000000000000000E0),.UNSPECIFIED.);
#192=DEFINITIONAL_REPRESENTATION('',(#191),#157);
#193=PCURVE('',#36,#192);
#194=CARTESIAN_POINT('',(6.87500000000000111E-1,7.50000000000000111E-1));
#195=CARTESIAN_POINT('',(0.00000000000000000E0,7.50000000000000111E-1));
#196=B_SPLINE_CURVE_WITH_KNOTS('',1,(#194,#195),.UNSPECIFIED.,.F.,.F.,(2,2),(0.00000000000000000E0,1.00000000000000000E0),.UNSPECIFIED.);
#197=DEFINITIONAL_REPRESENTATION('',(#196),#157);
#198=PCURVE('',#36,#197);
#199=CARTESIAN_POINT('',(0.00000000000000000E0,7.50000000000000111E-1));
#200=CARTESIAN_POINT('',(0.00000000000000000E0,0.00000000000000000E0));
#201=B_SPLINE_CURVE_WITH_KNOTS('',1,(#199,#200),.UNSPECIFIED.,.F.,.F.,(2,2),(0.00000000000000000E0,1.00000000000000000E0),.UNSPECIFIED.);
#202=DEFINITIONAL_REPRESENTATION('',(#201),#157);
#203=PCURVE('',#36,#202);
#204=CARTESIAN_POINT('',(1.00000000000000000E0,0.00000000000000000E0));
#205=CARTESIAN_POINT('',(1.00000000000000000E0,1.00000000000000000E0));
#206=B_SPLINE_CURVE_WITH_KNOTS('',1,(#204,#205),.UNSPECIFIED.,.F.,.F.,(2,2),(0.00000000000000000E0,1.00000000000000000E0),.UNSPECIFIED.);
#207=DEFINITIONAL_REPRESENTATION('',(#206),#157);
#208=PCURVE('',#41,#207);
#209=CARTESIAN_POINT('',(1.00000000000000000E0,1.00000000000000000E0));
#210=CARTESIAN_POINT('',(2.49999999999999889E-1,1.00000000000000000E0));
#211=B_SPLINE_CURVE_WITH_KNOTS('',1,(#209,#210),.UNSPECIFIED.,.F.,.F.,(2,2),(0.00000000000000000E0,1.00000000000000000E0),.UNSPECIFIED.);
#212=DEFINITIONAL_REPRESENTATION('',(#211),#157);
#213=PCURVE('',#41,#212);
#214=CARTESIAN_POINT('',(2.49999999999999889E-1,1.00000000000000000E0));
#215=CARTESIAN_POINT('',(0.00000000000000000E0,1.00000000000000000E0));
#216=CARTESIAN_POINT('',(0.00000000000000000E0,5.83333333333333370E-1));
#217=(BOUNDED_CURVE()B_SPLINE_CURVE(2,(#214,#215,#216),.UNSPECIFIED.,.F.,.F.)B_SPLINE_CURVE_WITH_KNOTS((3,3),(0.00000000000000000E0,1.00000000000000000E0),.UNSPECIFIED.)CURVE()GEOMETRIC_REPRESENTATION_ITEM()RATIONAL_B_SPLINE_CURVE((1.00000000000000000E0,1.00000000000000000E0,2.00000000000000000E0))REPRESENTATION_ITEM(''));
#218=DEFINITIONAL_REPRESENTATION('',(#217),#157);
#219=PCURVE('',#41,#218);
#220=CARTESIAN_POINT('',(0.00000000000000000E0,5.83333333333333370E-1));
#221=CARTESIAN_POINT('',(0.00000000000000000E0,0.00000000000000000E0));
#222=B_SPLINE_CURVE_WITH_KNOTS('',1,(#220,#221),.UNSPECIFIED.,.F.,.F.,(2,2),(0.00000000000000000E0,1.00000000000000000E0),.UNSPECIFIED.);
#223=DEFINITIONAL_REPRESENTATION('',(#222),#157);
#224=PCURVE('',#41,#223);
#225=CARTESIAN_POINT('',(0.00000000000000000E0,0.00000000000000000E0));
#226=CARTESIAN_POINT('',(1.00000000000000000E0,0.00000000000000000E0));
#227=B_SPLINE_CURVE_WITH_KNOTS('',1,(#225,#226),.UNSPECIFIED.,.F.,.F.,(2,2),(0.00000000000000000E0,1.00000000000000000E0),.UNSPECIFIED.);
#228=DEFINITIONAL_REPRESENTATION('',(#227),#157);
#229=PCURVE('',#41,#228);
#230=CARTESIAN_POINT('',(0.00000000000000000E0,0.00000000000000000E0));
#231=CARTESIAN_POINT('',(1.00000000000000000E0,0.00000000000000000E0));
#232=B_SPLINE_CURVE_WITH_KNOTS('',1,(#230,#231),.UNSPECIFIED.,.F.,.F.,(2,2),(0.00000000000000000E0,1.00000000000000000E0),.UNSPECIFIED.);
#233=DEFINITIONAL_REPRESENTATION('',(#232),#157);
#234=PCURVE('',#46,#233);
#235=CARTESIAN_POINT('',(1.00000000000000000E0,0.00000000000000000E0));
#236=CARTESIAN_POINT('',(1.00000000000000000E0,5.83333333333333370E-1));
#237=B_SPLINE_CURVE_WITH_KNOTS('',1,(#235,#236),.UNSPECIFIED.,.F.,.F.,(2,2),(0.00000000000000000E0,1.00000000000000000E0),.UNSPECIFIED.);
#238=DEFINITIONAL_REPRESENTATION('',(#237),#157);
#239=PCURVE('',#46,#238);
#240=CARTESIAN_POINT('',(1.00000000000000000E0,5.83333333333333370E-1));
#241=CARTESIAN_POINT('',(1.00000000000000000E0,1.00000000000000000E0));
#242=CARTESIAN_POINT('',(6.87500000000000111E-1,1.00000000000000000E0));
#243=(BOUNDED_CURVE()B_SPLINE_CURVE(2,(#240,#241,#242),.UNSPECIFIED.,.F.,.F.)B_SPLINE_CURVE_WITH_KNOTS((3,3),(0.00000000000000000E0,1.00000000000000000E0),.UNSPECIFIED.)CURVE()GEOMETRIC_REPRESENTATION_ITEM()RATIONAL_B_SPLINE_CURVE((2.00000000000000000E0,1.00000000000000000E0,1.00000000000000000E0))REPRESENTATION_ITEM(''));
#244=DEFINITIONAL_REPRESENTATION('',(#243),#157);
#245=PCURVE('',#46,#244);
#246=CARTESIAN_POINT('',(6.87500000000000111E-1,1.00000000000000000E0));
#247=CARTESIAN_POINT('',(0.00000000000000000E0,1.00000000000000000E0));
#248=B_SPLINE_CURVE_WITH_KNOTS('',1,(#246,#247),.UNSPECIFIED.,.F.,.F.,(2,2),(0.00000000000000000E0,1.00000000000000000E0),.UNSPECIFIED.);
#249=DEFINITIONAL_REPRESENTATION('',(#248),#157);
#250=PCURVE('',#46,#249);
#251=CARTESIAN_POINT('',(0.00000000000000000E0,1.00000000000000000E0));
#252=CARTESIAN_POINT('',(0.00000000000000000E0,0.00000000000000000E0));
#253=B_SPLINE_CURVE_WITH_KNOTS('',1,(#251,#252),.UNSPECIFIED.,.F.,.F.,(2,2),(0.00000000000000000E0,1.00000000000000000E0),.UNSPECIFIED.);
#254=DEFINITIONAL_REPRESENTATION('',(#253),#157);
#255=PCURVE('',#46,#254);
#256=CARTESIAN_POINT('',(0.00000000000000000E0,0.00000000000000000E0));
#257=CARTESIAN_POINT('',(7.50000000000000111E-1,0.00000000000000000E0));
#258=B_SPLINE_CURVE_WITH_KNOTS('',1,(#256,#257),.UNSPECIFIED.,.F.,.F.,(2,2),(0.00000000000000000E0,1.00000000000000000E0),.UNSPECIFIED.);
#259=DEFINITIONAL_REPRESENTATION('',(#258),#157);
#260=PCURVE('',#51,#259);
#261=CARTESIAN_POINT('',(7.50000000000000111E-1,0.00000000000000000E0));
#262=CARTESIAN_POINT('',(7.50000000000000111E-1,5.83333333333333370E-1));
#263=B_SPLINE_CURVE_WITH_KNOTS('',1,(#261,#262),.UNSPECIFIED.,.F.,.F.,(2,2),(0.00000000000000000E0,1.00000000000000000E0),.UNSPECIFIED.);
#264=DEFINITIONAL_REPRESENTATION('',(#263),#157);
#265=PCURVE('',#51,#264);
#266=CARTESIAN_POINT('',(7.50000000000000111E-1,5.83333333333333370E-1));
#267=CARTESIAN_POINT('',(0.00000000000000000E0,5.83333333333333370E-1));
#268=B_SPLINE_CURVE_WITH_KNOTS('',1,(#266,#267),.UNSPECIFIED.,.F.,.F.,(2,2),(0.00000000000000000E0,1.00000000000000000E0),.UNSPECIFIED.);
#269=DEFINITIONAL_REPRESENTATION('',(#268),#157);
#270=PCURVE('',#51,#269);
#271=CARTESIAN_POINT('',(0.00000000000000000E0,5.83333333333333370E-1));
#272=CARTESIAN_POINT('',(0.00000000000000000E0,0.00000000000000000E0));
#273=B_SPLINE_CURVE_WITH_KNOTS('',1,(#271,#272),.UNSPECIFIED.,.F.,.F.,(2,2),(0.00000000000000000E0,1.00000000000000000E0),.UNSPECIFIED.);
#274=DEFINITIONAL_REPRESENTATION('',(#273),#157);
#275=PCURVE('',#51,#274);
#276=CARTESIAN_POINT('',(1.00000000000000000E0,0.00000000000000000E0));
#277=CARTESIAN_POINT('',(1.00000000000000000E0,5.83333333333333370E-1));
#278=B_SPLINE_CURVE_WITH_KNOTS('',1,(#276,#277),.UNSPECIFIED.,.F.,.F.,(2,2),(0.00000000000000000E0,1.00000000000000000E0),.UNSPECIFIED.);
#279=DEFINITIONAL_REPRESENTATION('',(#278),#157);
#280=PCURVE('',#56,#279);
#281=CARTESIAN_POINT('',(1.00000000000000000E0,5.83333333333333370E-1));
#282=CARTESIAN_POINT('',(3.12499999999999889E-1,5.83333333333333370E-1));
#283=B_SPLINE_CURVE_WITH_KNOTS('',1,(#281,#282),.UNSPECIFIED.,.F.,.F.,(2,2),(0.00000000000000000E0,1.00000000000000000E0),.UNSPECIFIED.);
#284=DEFINITIONAL_REPRESENTATION('',(#283),#157);
#285=PCURVE('',#56,#284);
#286=CARTESIAN_POINT('',(3.12499999999999889E-1,5.83333333333333370E-1));
#287=CARTESIAN_POINT('',(3.12499999999999889E-1,0.00000000000000000E0));
#288=B_SPLINE_CURVE_WITH_KNOTS('',1,(#286,#287),.UNSPECIFIED.,.F.,.F.,(2,2),(0.00000000000000000E0,1.00000000000000000E0),.UNSPECIFIED.);
#289=DEFINITIONAL_REPRESENTATION('',(#288),#157);
#290=PCURVE('',#56,#289);
#291=CARTESIAN_POINT('',(3.12499999999999889E-1,0.00000000000000000E0));
#292=CARTESIAN_POINT('',(1.00000000000000000E0,0.00000000000000000E0));
#293=B_SPLINE_CURVE_WITH_KNOTS('',1,(#291,#292),.UNSPECIFIED.,.F.,.F.,(2,2),(0.00000000000000000E0,1.00000000000000000E0),.UNSPECIFIED.);
#294=DEFINITIONAL_REPRESENTATION('',(#293),#157);
#295=PCURVE('',#56,#294);
#296=CARTESIAN_POINT('',(0.00000000000000000E0,0.00000000000000000E0));
#297=CARTESIAN_POINT('',(1.00000000000000000E0,0.00000000000000000E0));
#298=B_SPLINE_CURVE_WITH_KNOTS('',1,(#296,#297),.UNSPECIFIED.,.F.,.F.,(2,2),(0.00000000000000000E0,1.00000000000000000E0),.UNSPECIFIED.);
#299=DEFINITIONAL_REPRESENTATION('',(#298),#157);
#300=PCURVE('',#63,#299);
#301=CARTESIAN_POINT('',(1.00000000000000000E0,0.00000000000000000E0));
#302=CARTESIAN_POINT('',(1.00000000000000000E0,1.00000000000000000E0));
#303=B_SPLINE_CURVE_WITH_KNOTS('',1,(#301,#302),.UNSPECIFIED.,.F.,.F.,(2,2),(0.00000000000000000E0,1.00000000000000000E0),.UNSPECIFIED.);
#304=DEFINITIONAL_REPRESENTATION('',(#303),#157);
#305=PCURVE('',#63,#304);
#306=CARTESIAN_POINT('',(1.00000000000000000E0,1.00000000000000000E0));
#307=CARTESIAN_POINT('',(0.00000000000000000E0,1.00000000000000000E0));
#308=B_SPLINE_CURVE_WITH_KNOTS('',1,(#306,#307),.UNSPECIFIED.,.F.,.F.,(2,2),(0.00000000000000000E0,1.00000000000000000E0),.UNSPECIFIED.);
#309=DEFINITIONAL_REPRESENTATION('',(#308),#157);
#310=PCURVE('',#63,#309);
#311=CARTESIAN_POINT('',(0.00000000000000000E0,1.00000000000000000E0));
#312=CARTESIAN_POINT('',(0.00000000000000000E0,0.00000000000000000E0));
#313=B_SPLINE_CURVE_WITH_KNOTS('',1,(#311,#312),.UNSPECIFIED.,.F.,.F.,(2,2),(0.00000000000000000E0,1.00000000000000000E0),.UNSPECIFIED.);
#314=DEFINITIONAL_REPRESENTATION('',(#313),#157);
#315=PCURVE('',#63,#314);
#316=CARTESIAN_POINT('',(1.00000000000000000E0,0.00000000000000000E0));
#317=CARTESIAN_POINT('',(1.00000000000000000E0,1.00000000000000000E0));
#318=B_SPLINE_CURVE_WITH_KNOTS('',1,(#316,#317),.UNSPECIFIED.,.F.,.F.,(2,2),(0.00000000000000000E0,1.00000000000000000E0),.UNSPECIFIED.);
#319=DEFINITIONAL_REPRESENTATION('',(#318),#157);
#320=PCURVE('',#70,#319);
#321=CARTESIAN_POINT('',(1.00000000000000000E0,1.00000000000000000E0));
#322=CARTESIAN_POINT('',(0.00000000000000000E0,1.00000000000000000E0));
#323=B_SPLINE_CURVE_WITH_KNOTS('',1,(#321,#322),.UNSPECIFIED.,.F.,.F.,(2,2),(0.00000000000000000E0,1.00000000000000000E0),.UNSPECIFIED.);
#324=DEFINITIONAL_REPRESENTATION('',(#323),#157);
#325=PCURVE('',#70,#324);
#326=CARTESIAN_POINT('',(0.00000000000000000E0,1.00000000000000000E0));
#327=CARTESIAN_POINT('',(0.00000000000000000E0,0.00000000000000000E0));
#328=B_SPLINE_CURVE_WITH_KNOTS('',1,(#326,#327),.UNSPECIFIED.,.F.,.F.,(2,2),(0.00000000000000000E0,1.00000000000000000E0),.UNSPECIFIED.);
#329=DEFINITIONAL_REPRESENTATION('',(#328),#157);
#330=PCURVE('',#70,#329);
#331=CARTESIAN_POINT('',(0.00000000000000000E0,0.00000000000000000E0));
#332=CARTESIAN_POINT('',(1.00000000000000000E0,0.00000000000000000E0));
#333=B_SPLINE_CURVE_WITH_KNOTS('',1,(#331,#332),.UNSPECIFIED.,.F.,.F.,(2,2),(0.00000000000000000E0,1.00000000000000000E0),.UNSPECIFIED.);
#334=DEFINITIONAL_REPRESENTATION('',(#333),#157);
#335=PCURVE('',#70,#334);
#336=CARTESIAN_POINT('',(0.00000000000000000E0,0.00000000000000000E0));
#337=CARTESIAN_POINT('',(1.00000000000000000E0,0.00000000000000000E0));
#338=B_SPLINE_CURVE_WITH_KNOTS('',1,(#336,#337),.UNSPECIFIED.,.F.,.F.,(2,2),(0.00000000000000000E0,1.00000000000000000E0),.UNSPECIFIED.);
#339=DEFINITIONAL_REPRESENTATION('',(#338),#157);
#340=PCURVE('',#77,#339);
#341=CARTESIAN_POINT('',(1.00000000000000000E0,0.00000000000000000E0));
#342=CARTESIAN_POINT('',(1.00000000000000000E0,1.00000000000000000E0));
#343=B_SPLINE_CURVE_WITH_KNOTS('',1,(#341,#342),.UNSPECIFIED.,.F.,.F.,(2,2),(0.00000000000000000E0,1.00000000000000000E0),.UNSPECIFIED.);
#344=DEFINITIONAL_REPRESENTATION('',(#343),#157);
#345=PCURVE('',#77,#344);
#346=CARTESIAN_POINT('',(1.00000000000000000E0,1.00000000000000000E0));
#347=CARTESIAN_POINT('',(0.00000000000000000E0,1.00000000000000000E0));
#348=B_SPLINE_CURVE_WITH_KNOTS('',1,(#346,#347),.UNSPECIFIED.,.F.,.F.,(2,2),(0.00000000000000000E0,1.00000000000000000E0),.UNSPECIFIED.);
#349=DEFINITIONAL_REPRESENTATION('',(#348),#157);
#350=PCURVE('',#77,#349);
#351=CARTESIAN_POINT('',(0.00000000000000000E0,1.00000000000000000E0));
#352=CARTESIAN_POINT('',(0.00000000000000000E0,0.00000000000000000E0));
#353=B_SPLINE_CURVE_WITH_KNOTS('',1,(#351,#352),.UNSPECIFIED.,.F.,.F.,(2,2),(0.00000000000000000E0,1.00000000000000000E0),.UNSPECIFIED.);
#354=DEFINITIONAL_REPRESENTATION('',(#353),#157);
#355=PCURVE('',#77,#354);
#356=CARTESIAN_POINT('',(0.00000000000000000E0,0.00000000000000000E0));
#357=CARTESIAN_POINT('',(1.00000000000000000E0,0.00000000000000000E0));
#358=B_SPLINE_CURVE_WITH_KNOTS('',1,(#356,#357),.UNSPECIFIED.,.F.,.F.,(2,2),(0.00000000000000000E0,1.00000000000000000E0),.UNSPECIFIED.);
#359=DEFINITIONAL_REPRESENTATION('',(#358),#157);
#360=PCURVE('',#87,#359);
#361=CARTESIAN_POINT('',(1.00000000000000000E0,0.00000000000000000E0));
#362=CARTESIAN_POINT('',(1.00000000000000000E0,1.00000000000000000E0));
#363=CARTESIAN_POINT('',(0.00000000000000000E0,1.00000000000000000E0));
#364=(BOUNDED_CURVE()B_SPLINE_CURVE(2,(#361,#362,#363),.UNSPECIFIED.,.F.,.F.)B_SPLINE_CURVE_WITH_KNOTS((3,3),(0.00000000000000000E0,1.00000000000000000E0),.UNSPECIFIED.)CURVE()GEOMETRIC_REPRESENTATION_ITEM()RATIONAL_B_SPLINE_CURVE((1.00000000000000000E0,7.07106781186547573E-1,1.00000000000000000E0))REPRESENTATION_ITEM(''));
#365=DEFINITIONAL_REPRESENTATION('',(#364),#157);
#366=PCURVE('',#87,#365);
#367=CARTESIAN_POINT('',(0.00000000000000000E0,1.00000000000000000E0));
#368=CARTESIAN_POINT('',(0.00000000000000000E0,0.00000000000000000E0));
#369=B_SPLINE_CURVE_WITH_KNOTS('',1,(#367,#368),.UNSPECIFIED.,.F.,.F.,(2,2),(0.00000000000000000E0,1.00000000000000000E0),.UNSPECIFIED.);
#370=DEFINITIONAL_REPRESENTATION('',(#369),#157);
#371=PCURVE('',#87,#370);
#372=SURFACE_CURVE('',#90,(#183,#234),.PCURVE_S1.);
#373=EDGE_CURVE('OSCAD_TOPO/3|edge|e:0d1c8a88b74115326a3d2ac044e6482a|1a935dea5061d2f80783e16e78e3ab55a6f0a23baad135563f2bfd808515f660',#2,#4,#372,.T.);
#374=SURFACE_CURVE('',#93,(#178,#260),.PCURVE_S1.);
#375=EDGE_CURVE('OSCAD_TOPO/3|edge|e:eadbb66c447170a63d750301eb59a89d|8ab5170e83ffd1b067575101fcf63baa297b912e701aefa7a65b5e452134d0f6',#4,#10,#374,.T.);
#376=SURFACE_CURVE('',#96,(#167,#295),.PCURVE_S1.);
#377=EDGE_CURVE('OSCAD_TOPO/3|edge|e:278c597707af53462b4b81261c487ea2|20dd97da9d6712cba300921f04def5080f40c23cd950bff262eea2ddaf2170af',#6,#12,#376,.T.);
#378=SURFACE_CURVE('',#99,(#162,#229),.PCURVE_S1.);
#379=EDGE_CURVE('OSCAD_TOPO/3|edge|e:930a76a5b128523ed3d68b4e1f6f1b4d|1d73a1fc7ed066622fd3fc7076cf23fcaaa0cc818cda2214018a615ffd7fdedb',#2,#6,#378,.T.);
#380=SURFACE_CURVE('',#102,(#208,#255),.PCURVE_S1.);
#381=EDGE_CURVE('OSCAD_TOPO/3|edge|e:9f0bb72f4933b36fc017f1b1771c2992|697c5d7ccf6d0df0d29c6ea7ee031174ef9f3429cce4f2ed69d67a48684be58c',#2,#8,#380,.T.);
#382=SURFACE_CURVE('',#105,(#239,#275),.PCURVE_S1.);
#383=EDGE_CURVE('OSCAD_TOPO/3|edge|e:5fbfcc35288f483a7a42967682222be1|68011f12fe675184157138472b494ffa16274330af6ae32b863c1206d739e15d',#4,#20,#382,.T.);
#384=SURFACE_CURVE('',#108,(#270,#320),.PCURVE_S1.);
#385=EDGE_CURVE('OSCAD_TOPO/3|edge|e:aab916699c6779c9fb6a68562ecd146c|9701227e8ef53d64e74ad9d8ac2cc616838ab36c8cb2328e8670cb6cf87b94be',#14,#20,#384,.T.);
#386=SURFACE_CURVE('',#111,(#265,#315),.PCURVE_S1.);
#387=EDGE_CURVE('OSCAD_TOPO/3|edge|e:a0bb334def5c81f822de7be125c62905|896e3d8b6f5c64091bb0b437626ff865b2ff3284e32f77018c4599145a073ad9',#10,#14,#386,.T.);
#388=SURFACE_CURVE('',#114,(#290,#305),.PCURVE_S1.);
#389=EDGE_CURVE('OSCAD_TOPO/3|edge|e:d9341b65781f37d5ef2ec1158fb94839|541ab30265ccf229a97cfa213aa63c41a6e699a4d7f6ced1a92c67d8a329bf1b',#12,#16,#388,.T.);
#390=SURFACE_CURVE('',#117,(#224,#280),.PCURVE_S1.);
#391=EDGE_CURVE('OSCAD_TOPO/3|edge|e:34d7f7a0cd0e0480b6e5e498a1f1f352|fa02dc3a0d7dfbc466855a2fe3265696e4b6650a897c7886734eef7b8022e197',#6,#24,#390,.T.);
#392=SURFACE_CURVE('',#120,(#285,#355),.PCURVE_S1.);
#393=EDGE_CURVE('OSCAD_TOPO/3|edge|e:3dd4ee072bfbb61fd6a84b7ee5d3dc8b|8bc083996c11c2acc6ea4f141ba193774544e2cb5d28db5d5c9b47211ed4fa42',#16,#24,#392,.T.);
#394=SURFACE_CURVE('',#123,(#188,#250),.PCURVE_S1.);
#395=EDGE_CURVE('OSCAD_TOPO/3|edge|e:02ea1a42564f21378eac51d781200eec|51dcba880997fbb2f40b1002d51b7ad1d6879aa2a6a8f25c37dae6a2c53b6b1d',#8,#22,#394,.T.);
#396=SURFACE_CURVE('',#126,(#193,#330),.PCURVE_S1.);
#397=EDGE_CURVE('OSCAD_TOPO/3|edge|e:78b7953f58c04aac90dbfbfd0c3ce4d0|890a683a7f2dc4aefdadbf9ea11eda4e9c49bcfbda7659064f26672841acb0f4',#18,#22,#396,.T.);
#398=SURFACE_CURVE('',#129,(#203,#213),.PCURVE_S1.);
#399=EDGE_CURVE('OSCAD_TOPO/3|edge|e:c65edca391d87cb131ca4bb4cc5c4908|bae575c2add07fdac9f1de5b0907eb9f3a9ee124e2241fedb85bdfb16711e444',#8,#26,#398,.T.);
#400=SURFACE_CURVE('',#132,(#198,#345),.PCURVE_S1.);
#401=EDGE_CURVE('OSCAD_TOPO/3|edge|e:30dd3fa561f6891fb29efd3f3a22ca69|f6c7381c667c28463d12b18be59a07a2e0e6d955571c0f254130a7d88c4d1da0',#18,#26,#400,.T.);
#402=SURFACE_CURVE('',#136,(#173,#300),.PCURVE_S1.);
#403=EDGE_CURVE('OSCAD_TOPO/3|edge|e:f16351783bfffc6d1390110678169287|576fcf0a90199830147c94f1af8945b2a47765b487247368c0f85b3c10fe37e6',#10,#12,#402,.T.);
#404=SURFACE_CURVE('',#140,(#310,#366),.PCURVE_S1.);
#405=EDGE_CURVE('OSCAD_TOPO/3|edge|e:34eaa63a08cf14451f92d096c8de0bdd|d508ed3cbb0ea9e58beed4c4a4b99fc5f7fa567550478f03b14e98c482f6394a',#14,#16,#404,.T.);
#406=SURFACE_CURVE('',#144,(#325,#360),.PCURVE_S1.);
#407=EDGE_CURVE('OSCAD_TOPO/3|edge|e:36cda4b1a797433e6fd0369d51f94281|8098026295783eb8d01784f3628f42367ae8d33dfba884bc3196b13b762aa858',#14,#18,#406,.T.);
#408=SURFACE_CURVE('',#148,(#350,#371),.PCURVE_S1.);
#409=EDGE_CURVE('OSCAD_TOPO/3|edge|e:2c86405764a5845caddd8f6ea3fbdb6a|c1fef4755fbfd6a4ea224029342b2e8a241c70150a7d191cbc0370cbc2ba78aa',#16,#18,#408,.T.);
#410=SURFACE_CURVE('',#152,(#245,#335),.PCURVE_S1.);
#411=EDGE_CURVE('OSCAD_TOPO/3|edge|e:5a64e18ebc60999e19d04a4bb0142ed0|38e67475b0c6613b91d124c5c914593d31e0b7967726b0c4cec80fd067121599',#20,#22,#410,.T.);
#412=SURFACE_CURVE('',#156,(#219,#340),.PCURVE_S1.);
#413=EDGE_CURVE('OSCAD_TOPO/3|edge|e:54994b14cb4c4eba4d23accdc62ba103|245dfa1f99747ad25cf6a873654eaeee9fc750f6dc4ab863456f431bfc014066',#24,#26,#412,.T.);
#414=ORIENTED_EDGE('',*,*,#379,.T.);
#415=ORIENTED_EDGE('',*,*,#377,.T.);
#416=ORIENTED_EDGE('',*,*,#403,.F.);
#417=ORIENTED_EDGE('',*,*,#375,.F.);
#418=ORIENTED_EDGE('',*,*,#373,.F.);
#419=EDGE_LOOP('OSCAD_TOPO/3|loop|l:f66fcf128b6091f4c0d832c4e72af92b|a201836a1dc1a854a51c9e178e604462cb44bc7e216a247dfa0db4856110cc87',(#414,#415,#416,#417,#418));
#420=ORIENTED_EDGE('',*,*,#395,.T.);
#421=ORIENTED_EDGE('',*,*,#397,.F.);
#422=ORIENTED_EDGE('',*,*,#401,.T.);
#423=ORIENTED_EDGE('',*,*,#399,.F.);
#424=EDGE_LOOP('OSCAD_TOPO/3|loop|l:6cb46cf123d605b3996ef510d289c67b|38662859b8f5823e0fc9b9a9208935389ca12b55b89ddfece87934564616a7a0',(#420,#421,#422,#423));
#425=ORIENTED_EDGE('',*,*,#381,.T.);
#426=ORIENTED_EDGE('',*,*,#399,.T.);
#427=ORIENTED_EDGE('',*,*,#413,.F.);
#428=ORIENTED_EDGE('',*,*,#391,.F.);
#429=ORIENTED_EDGE('',*,*,#379,.F.);
#430=EDGE_LOOP('OSCAD_TOPO/3|loop|l:f6ee5afc97fb19ee8219b59d9680882a|66f626dad2acc5f1271546e3492a41b4f701f20ef146818418b5f7782916eca3',(#425,#426,#427,#428,#429));
#431=ORIENTED_EDGE('',*,*,#373,.T.);
#432=ORIENTED_EDGE('',*,*,#383,.T.);
#433=ORIENTED_EDGE('',*,*,#411,.T.);
#434=ORIENTED_EDGE('',*,*,#395,.F.);
#435=ORIENTED_EDGE('',*,*,#381,.F.);
#436=EDGE_LOOP('OSCAD_TOPO/3|loop|l:190ec2358c2b0b3fa6c8eed51a60a578|e790841c996e33817b29eaece41f1a8795c1c4b5ce4ad69693fc3b9c8d4958d2',(#431,#432,#433,#434,#435));
#437=ORIENTED_EDGE('',*,*,#375,.T.);
#438=ORIENTED_EDGE('',*,*,#387,.T.);
#439=ORIENTED_EDGE('',*,*,#385,.T.);
#440=ORIENTED_EDGE('',*,*,#383,.F.);
#441=EDGE_LOOP('OSCAD_TOPO/3|loop|l:f230f747d3acaaecfb5630dde59c308e|4c81b8e550c3b78993e53b278d493fa6429cfe0c58b9b6b7f79d9af8763cb4c2',(#437,#438,#439,#440));
#442=ORIENTED_EDGE('',*,*,#391,.T.);
#443=ORIENTED_EDGE('',*,*,#393,.F.);
#444=ORIENTED_EDGE('',*,*,#389,.F.);
#445=ORIENTED_EDGE('',*,*,#377,.F.);
#446=EDGE_LOOP('OSCAD_TOPO/3|loop|l:cad0c944fd829b4ae0effca6567e6b22|50e5a3b0c6aa3d3a5cbdc7624c2f9426bdc166e8f24c566e8e4c99c4178ae6e0',(#442,#443,#444,#445));
#447=ORIENTED_EDGE('',*,*,#403,.T.);
#448=ORIENTED_EDGE('',*,*,#389,.T.);
#449=ORIENTED_EDGE('',*,*,#405,.F.);
#450=ORIENTED_EDGE('',*,*,#387,.F.);
#451=EDGE_LOOP('OSCAD_TOPO/3|loop|l:578770eba3e95e01abdbf650ff9fa343|b2d6489e0871f95b0363297d6c4b7792f44cc3becddf1cdd5230750a7bade6ff',(#447,#448,#449,#450));
#452=ORIENTED_EDGE('',*,*,#385,.F.);
#453=ORIENTED_EDGE('',*,*,#407,.T.);
#454=ORIENTED_EDGE('',*,*,#397,.T.);
#455=ORIENTED_EDGE('',*,*,#411,.F.);
#456=EDGE_LOOP('OSCAD_TOPO/3|loop|l:69952fd0278ef3fcc465f5abcc57957a|5d2a21e02f0b200a4a2e18791f16e11332f945eb9520a3af6329d1d90245dd1e',(#452,#453,#454,#455));
#457=ORIENTED_EDGE('',*,*,#413,.T.);
#458=ORIENTED_EDGE('',*,*,#401,.F.);
#459=ORIENTED_EDGE('',*,*,#409,.F.);
#460=ORIENTED_EDGE('',*,*,#393,.T.);
#461=EDGE_LOOP('OSCAD_TOPO/3|loop|l:242e279d66d0b83e18b1cec0c67f8555|e68764f516a329734b76c74e83870f2baf4f9faea396ce69fd612945546eb8cb',(#457,#458,#459,#460));
#462=ORIENTED_EDGE('',*,*,#407,.F.);
#463=ORIENTED_EDGE('',*,*,#405,.T.);
#464=ORIENTED_EDGE('',*,*,#409,.T.);
#465=EDGE_LOOP('OSCAD_TOPO/3|loop|l:7bcbf15dc1191854a793dab9650558e8|74f0eaf2a6315dcea1db841172bb49dd71626f7444ad9cc3227e26157f499bcb',(#462,#463,#464));
#466=FACE_OUTER_BOUND('',#419,.T.);
#467=ADVANCED_FACE('OSCAD_TOPO/3|face|f:137695b730f9507f0d7811412f951e22|4e111e16531d898f129ee56546e88ace9ec50410a99437c1491368a5d93ade7f',(#466),#31,.T.);
#468=FACE_OUTER_BOUND('',#424,.T.);
#469=ADVANCED_FACE('OSCAD_TOPO/3|face|f:77054c43878aba59cbfaf92c27227606|a28b8b6068aab6c254450661adeb46efa858415cd7d25c2782a77b5e2fe25163',(#468),#36,.T.);
#470=FACE_OUTER_BOUND('',#430,.T.);
#471=ADVANCED_FACE('OSCAD_TOPO/3|face|f:465a8ea04ea502d521fac7ef955af57d|c3015db58701a48287db0888d97d08b89a099521b04599e99136c2eeca32e7d5',(#470),#41,.T.);
#472=FACE_OUTER_BOUND('',#436,.T.);
#473=ADVANCED_FACE('OSCAD_TOPO/3|face|f:d826ed3edf18288fd2a6c8aff9ba78c6|bb0e7f051148f7a721d84f7c2151a2b5b24534747673234dae1f9f43e4d40ea5',(#472),#46,.T.);
#474=FACE_OUTER_BOUND('',#441,.T.);
#475=ADVANCED_FACE('OSCAD_TOPO/3|face|f:4920576419cbecabab81eaa16a51deeb|97a1c20c313a25b31040fa2c2352861f9955ead34186e78fbb9041a74aff20e8',(#474),#51,.T.);
#476=FACE_OUTER_BOUND('',#446,.T.);
#477=ADVANCED_FACE('OSCAD_TOPO/3|face|f:e95c9b85dfd90f22bc2e508e4f3343c8|17fd1b86f24ff2c965ede55a9a3db54f3d9e52dbbac08392239244643ef9689a',(#476),#56,.T.);
#478=FACE_OUTER_BOUND('',#451,.T.);
#479=ADVANCED_FACE('OSCAD_TOPO/3|face|f:71fbbb6eae3b18dd0ce7e9e6d832fd4e|e8711f7144ab378b1c4ea0c64f57367f02ed3ba8504cbe2d8e208c654bbbfeb1',(#478),#63,.T.);
#480=FACE_OUTER_BOUND('',#456,.T.);
#481=ADVANCED_FACE('OSCAD_TOPO/3|face|f:9c043957d0892c2fd7a7ec6ebb5d3629|0589017f4a0e76a803acf6cade45a9ad7495de608ae9cd3d54a7f81d5c4bee68',(#480),#70,.T.);
#482=FACE_OUTER_BOUND('',#461,.T.);
#483=ADVANCED_FACE('OSCAD_TOPO/3|face|f:664b76a10142597a7fe7661943782024|7ef377b827f1d5c77c93cbea6c67c8bca336a6b4cb35de02c941ce20806ba784',(#482),#77,.T.);
#484=FACE_OUTER_BOUND('',#465,.T.);
#485=ADVANCED_FACE('OSCAD_TOPO/3|face|f:525a0b21cd977c84b0d4b9b0c6cdabde|2f5b8ff581e7a16538201bb14d8e97613cfc17d452d947deced0a7130fff5dee',(#484),#87,.T.);
#486=CLOSED_SHELL('OSCAD_TOPO/3|shell|s:5e18f2a2c8ac65aa1a0e9ef0a989ec30|2d638fc327aea8088d0874df32c2f022bbd57d06dcdd03a6da8612b7eebcc5f4',(#467,#469,#471,#473,#475,#477,#479,#481,#483,#485));
#487=MANIFOLD_SOLID_BREP('OSCAD_TOPO/3|body|b:09b55da01937fce79218368a2d7806cb|fd91581c30d02c1d4fed55b8aed11de796a75262b292b1fcdeda10b7dd62a4ac',#486);
#488=(LENGTH_UNIT()NAMED_UNIT(*)SI_UNIT(.MILLI.,.METRE.));
#489=UNCERTAINTY_MEASURE_WITH_UNIT(LENGTH_MEASURE(9.99999999999999955E-8),#488,'distance_accuracy_value','');
#490=(GEOMETRIC_REPRESENTATION_CONTEXT(3)GLOBAL_UNCERTAINTY_ASSIGNED_CONTEXT((#489))GLOBAL_UNIT_ASSIGNED_CONTEXT((#488))REPRESENTATION_CONTEXT('','3D'));
#491=ADVANCED_BREP_SHAPE_REPRESENTATION('',(#487),#490);
#492=APPLICATION_CONTEXT('managed model based 3d engineering');
#493=PRODUCT_CONTEXT('',#492,'mechanical');
#494=PRODUCT('model','model','',(#493));
#495=PRODUCT_DEFINITION_FORMATION('1','',#494);
#496=PRODUCT_DEFINITION_CONTEXT('part definition',#492,'design');
#497=PRODUCT_DEFINITION('design','',#495,#496);
#498=PRODUCT_DEFINITION_SHAPE('','',#497);
#499=SHAPE_DEFINITION_REPRESENTATION(#498,#491);
ENDSEC;
END-ISO-10303-21;
