ISO-10303-21;
HEADER;
FILE_DESCRIPTION(('OpenSCAD Viewer retained AP242 B-rep'),'2;1');
FILE_NAME('model.step','',(''),(''),'OpenSCAD Viewer','OpenSCAD Viewer','');
FILE_SCHEMA(('AP242_MANAGED_MODEL_BASED_3D_ENGINEERING_MIM_LF'));
ENDSEC;
DATA;
#1=CARTESIAN_POINT('',(-7.00000000000000000E0,1.10000000000000000E1,4.00000000000000000E0));
#2=VERTEX_POINT('OSCAD_TOPO/3|vertex|v:4cb20bc6570e7db143224a09414d50bb|909fcabf7d2bb7c0eb177d46addcaa99b4115e73e4516a91e9014decb7bc10ae',#1);
#3=CARTESIAN_POINT('',(-7.00000000000000000E0,3.00000000000000000E0,4.00000000000000000E0));
#4=VERTEX_POINT('OSCAD_TOPO/3|vertex|v:08a69e9d487b9d2cca0fea9e5bab1bae|69736b220b53d84fa8b8f643d181f78c74deeefbc7aa414638c39b058338d8f7',#3);
#5=CARTESIAN_POINT('',(2.00000000000000000E0,3.00000000000000000E0,4.00000000000000000E0));
#6=VERTEX_POINT('OSCAD_TOPO/3|vertex|v:608c5cbeb17b01b3d106d2b35656f52f|5a7184c6ef06dbdfffff8e57ce3a5adcf34e0ad840c980212ed40e260dada6e7',#5);
#7=CARTESIAN_POINT('',(3.00000000000000000E0,4.00000000000000000E0,4.00000000000000000E0));
#8=VERTEX_POINT('OSCAD_TOPO/3|vertex|v:6b07ddfb6570830950fa9d07cbfac6a0|6ae3efc541fdcbe84e1bf675596f84c5cb6e92fb70398d1c00a6b28c13059634',#7);
#9=CARTESIAN_POINT('',(3.00000000000000000E0,1.10000000000000000E1,4.00000000000000000E0));
#10=VERTEX_POINT('OSCAD_TOPO/3|vertex|v:06d9911279025fdc180dc0c24a30cc22|dcf2909c4ac8e4e4de619222d9518bf0f54a74692cf28e897ad03ab0ea8a0fb2',#9);
#11=CARTESIAN_POINT('',(-7.00000000000000000E0,1.10000000000000000E1,-2.00000000000000000E0));
#12=VERTEX_POINT('OSCAD_TOPO/3|vertex|v:6b761cb1ffd839de853759377cd4617c|2137e0e805d49a2ec5eb83cc7e84af47cec680a956a1088b50b90be81fc98fe0',#11);
#13=CARTESIAN_POINT('',(2.00000000000000000E0,1.10000000000000000E1,-2.00000000000000000E0));
#14=VERTEX_POINT('OSCAD_TOPO/3|vertex|v:a521f7d856a5a155e09986d2a51b59a9|7c2955e3e4447fb0f7284e0993573f921326579da0637ae0c45c98acb2d475c6',#13);
#15=CARTESIAN_POINT('',(2.00000000000000000E0,4.00000000000000000E0,-2.00000000000000000E0));
#16=VERTEX_POINT('OSCAD_TOPO/3|vertex|v:37a9643873ba28a1a468412e3f63aae6|5ec02c84d960cbb928c0486c9f59a2c77b18a8a8e1525d63a7199c54a5976355',#15);
#17=CARTESIAN_POINT('',(-7.00000000000000000E0,4.00000000000000000E0,-2.00000000000000000E0));
#18=VERTEX_POINT('OSCAD_TOPO/3|vertex|v:3550087a51f3991826741934d6168609|c65ce66de850ffd2abbfb8515bc018558c9402ff145ce75d2e4fc5fdd5ce177a',#17);
#19=CARTESIAN_POINT('',(-7.00000000000000000E0,3.00000000000000000E0,-1.00000000000000000E0));
#20=VERTEX_POINT('OSCAD_TOPO/3|vertex|v:a034718e603f74b7a1d0a017398dc620|ba183e037354cbc756dadb20588f6304b8f158bfdb5e5a0c505b1a0bc9d8cfa4',#19);
#21=CARTESIAN_POINT('',(3.00000000000000000E0,1.10000000000000000E1,-1.00000000000000000E0));
#22=VERTEX_POINT('OSCAD_TOPO/3|vertex|v:8a69009d5f7fd16314a49fb6b5beaead|5bc807f22e6cae67bc621003ce17fa52578240452e13404562b95c7440382041',#21);
#23=CARTESIAN_POINT('',(3.00000000000000000E0,4.00000000000000000E0,-1.00000000000000000E0));
#24=VERTEX_POINT('OSCAD_TOPO/3|vertex|v:d2776ed03cc480968823fd58fd658780|6f3ebf3a82b643e2dcb728ed77b3ce70e4406ad3b82da326a9be6059087fd46a',#23);
#25=CARTESIAN_POINT('',(2.00000000000000000E0,3.00000000000000000E0,-1.00000000000000000E0));
#26=VERTEX_POINT('OSCAD_TOPO/3|vertex|v:74868b458d9caf95326bdbd8d46bf416|12e81f4d43dd41fc1101959e0720d3d0a0ca6b2f4d5dabbabf3da8131a0725fa',#25);
#27=CARTESIAN_POINT('',(3.00000000000000000E0,1.10000000000000000E1,4.00000000000000000E0));
#28=CARTESIAN_POINT('',(3.00000000000000000E0,3.00000000000000000E0,4.00000000000000000E0));
#29=CARTESIAN_POINT('',(-7.00000000000000000E0,1.10000000000000000E1,4.00000000000000000E0));
#30=CARTESIAN_POINT('',(-7.00000000000000000E0,3.00000000000000000E0,4.00000000000000000E0));
#31=B_SPLINE_SURFACE_WITH_KNOTS('',1,1,((#27,#28),(#29,#30)),.UNSPECIFIED.,.F.,.F.,.F.,(2,2),(2,2),(0.00000000000000000E0,1.00000000000000000E0),(0.00000000000000000E0,1.00000000000000000E0),.UNSPECIFIED.);
#32=CARTESIAN_POINT('',(-7.00000000000000000E0,1.10000000000000000E1,-2.00000000000000000E0));
#33=CARTESIAN_POINT('',(-7.00000000000000000E0,3.00000000000000000E0,-2.00000000000000000E0));
#34=CARTESIAN_POINT('',(3.00000000000000000E0,1.10000000000000000E1,-2.00000000000000000E0));
#35=CARTESIAN_POINT('',(3.00000000000000000E0,3.00000000000000000E0,-2.00000000000000000E0));
#36=B_SPLINE_SURFACE_WITH_KNOTS('',1,1,((#32,#33),(#34,#35)),.UNSPECIFIED.,.F.,.F.,.F.,(2,2),(2,2),(0.00000000000000000E0,1.00000000000000000E0),(0.00000000000000000E0,1.00000000000000000E0),.UNSPECIFIED.);
#37=CARTESIAN_POINT('',(-7.00000000000000000E0,3.00000000000000000E0,4.00000000000000000E0));
#38=CARTESIAN_POINT('',(-7.00000000000000000E0,3.00000000000000000E0,-2.00000000000000000E0));
#39=CARTESIAN_POINT('',(-7.00000000000000000E0,1.10000000000000000E1,4.00000000000000000E0));
#40=CARTESIAN_POINT('',(-7.00000000000000000E0,1.10000000000000000E1,-2.00000000000000000E0));
#41=B_SPLINE_SURFACE_WITH_KNOTS('',1,1,((#37,#38),(#39,#40)),.UNSPECIFIED.,.F.,.F.,.F.,(2,2),(2,2),(0.00000000000000000E0,1.00000000000000000E0),(0.00000000000000000E0,1.00000000000000000E0),.UNSPECIFIED.);
#42=CARTESIAN_POINT('',(-7.00000000000000000E0,1.10000000000000000E1,4.00000000000000000E0));
#43=CARTESIAN_POINT('',(-7.00000000000000000E0,1.10000000000000000E1,-2.00000000000000000E0));
#44=CARTESIAN_POINT('',(3.00000000000000000E0,1.10000000000000000E1,4.00000000000000000E0));
#45=CARTESIAN_POINT('',(3.00000000000000000E0,1.10000000000000000E1,-2.00000000000000000E0));
#46=B_SPLINE_SURFACE_WITH_KNOTS('',1,1,((#42,#43),(#44,#45)),.UNSPECIFIED.,.F.,.F.,.F.,(2,2),(2,2),(0.00000000000000000E0,1.00000000000000000E0),(0.00000000000000000E0,1.00000000000000000E0),.UNSPECIFIED.);
#47=CARTESIAN_POINT('',(3.00000000000000000E0,1.10000000000000000E1,4.00000000000000000E0));
#48=CARTESIAN_POINT('',(3.00000000000000000E0,1.10000000000000000E1,-2.00000000000000000E0));
#49=CARTESIAN_POINT('',(3.00000000000000000E0,3.00000000000000000E0,4.00000000000000000E0));
#50=CARTESIAN_POINT('',(3.00000000000000000E0,3.00000000000000000E0,-2.00000000000000000E0));
#51=B_SPLINE_SURFACE_WITH_KNOTS('',1,1,((#47,#48),(#49,#50)),.UNSPECIFIED.,.F.,.F.,.F.,(2,2),(2,2),(0.00000000000000000E0,1.00000000000000000E0),(0.00000000000000000E0,1.00000000000000000E0),.UNSPECIFIED.);
#52=CARTESIAN_POINT('',(3.00000000000000000E0,3.00000000000000000E0,4.00000000000000000E0));
#53=CARTESIAN_POINT('',(3.00000000000000000E0,3.00000000000000000E0,-2.00000000000000000E0));
#54=CARTESIAN_POINT('',(-7.00000000000000000E0,3.00000000000000000E0,4.00000000000000000E0));
#55=CARTESIAN_POINT('',(-7.00000000000000000E0,3.00000000000000000E0,-2.00000000000000000E0));
#56=B_SPLINE_SURFACE_WITH_KNOTS('',1,1,((#52,#53),(#54,#55)),.UNSPECIFIED.,.F.,.F.,.F.,(2,2),(2,2),(0.00000000000000000E0,1.00000000000000000E0),(0.00000000000000000E0,1.00000000000000000E0),.UNSPECIFIED.);
#57=CARTESIAN_POINT('',(3.00000000000000000E0,4.00000000000000000E0,4.00000000000000000E0));
#58=CARTESIAN_POINT('',(3.00000000000000000E0,4.00000000000000000E0,-1.00000000000000000E0));
#59=CARTESIAN_POINT('',(3.00000000000000000E0,3.00000000000000000E0,4.00000000000000000E0));
#60=CARTESIAN_POINT('',(3.00000000000000000E0,3.00000000000000000E0,-1.00000000000000000E0));
#61=CARTESIAN_POINT('',(2.00000000000000000E0,3.00000000000000000E0,4.00000000000000000E0));
#62=CARTESIAN_POINT('',(2.00000000000000000E0,3.00000000000000000E0,-1.00000000000000000E0));
#63=(BOUNDED_SURFACE()B_SPLINE_SURFACE(2,1,((#57,#58),(#59,#60),(#61,#62)),.UNSPECIFIED.,.F.,.F.,.F.)B_SPLINE_SURFACE_WITH_KNOTS((3,3),(2,2),(0.00000000000000000E0,1.00000000000000000E0),(0.00000000000000000E0,1.00000000000000000E0),.UNSPECIFIED.)GEOMETRIC_REPRESENTATION_ITEM()RATIONAL_B_SPLINE_SURFACE(((1.00000000000000000E0,1.00000000000000000E0),(7.07106781186547573E-1,7.07106781186547573E-1),(1.00000000000000000E0,1.00000000000000000E0)))REPRESENTATION_ITEM('')SURFACE());
#64=CARTESIAN_POINT('',(2.00000000000000000E0,1.10000000000000000E1,-2.00000000000000000E0));
#65=CARTESIAN_POINT('',(2.00000000000000000E0,4.00000000000000000E0,-2.00000000000000000E0));
#66=CARTESIAN_POINT('',(3.00000000000000000E0,1.10000000000000000E1,-2.00000000000000000E0));
#67=CARTESIAN_POINT('',(3.00000000000000000E0,4.00000000000000000E0,-2.00000000000000000E0));
#68=CARTESIAN_POINT('',(3.00000000000000000E0,1.10000000000000000E1,-1.00000000000000000E0));
#69=CARTESIAN_POINT('',(3.00000000000000000E0,4.00000000000000000E0,-1.00000000000000000E0));
#70=(BOUNDED_SURFACE()B_SPLINE_SURFACE(2,1,((#64,#65),(#66,#67),(#68,#69)),.UNSPECIFIED.,.F.,.F.,.F.)B_SPLINE_SURFACE_WITH_KNOTS((3,3),(2,2),(0.00000000000000000E0,1.00000000000000000E0),(0.00000000000000000E0,1.00000000000000000E0),.UNSPECIFIED.)GEOMETRIC_REPRESENTATION_ITEM()RATIONAL_B_SPLINE_SURFACE(((1.00000000000000000E0,1.00000000000000000E0),(1.00000000000000000E0,1.00000000000000000E0),(2.00000000000000000E0,2.00000000000000000E0)))REPRESENTATION_ITEM('')SURFACE());
#71=CARTESIAN_POINT('',(-7.00000000000000000E0,3.00000000000000000E0,-1.00000000000000000E0));
#72=CARTESIAN_POINT('',(2.00000000000000000E0,3.00000000000000000E0,-1.00000000000000000E0));
#73=CARTESIAN_POINT('',(-7.00000000000000000E0,3.00000000000000000E0,-2.00000000000000000E0));
#74=CARTESIAN_POINT('',(2.00000000000000000E0,3.00000000000000000E0,-2.00000000000000000E0));
#75=CARTESIAN_POINT('',(-7.00000000000000000E0,4.00000000000000000E0,-2.00000000000000000E0));
#76=CARTESIAN_POINT('',(2.00000000000000000E0,4.00000000000000000E0,-2.00000000000000000E0));
#77=(BOUNDED_SURFACE()B_SPLINE_SURFACE(2,1,((#71,#72),(#73,#74),(#75,#76)),.UNSPECIFIED.,.F.,.F.,.F.)B_SPLINE_SURFACE_WITH_KNOTS((3,3),(2,2),(0.00000000000000000E0,1.00000000000000000E0),(0.00000000000000000E0,1.00000000000000000E0),.UNSPECIFIED.)GEOMETRIC_REPRESENTATION_ITEM()RATIONAL_B_SPLINE_SURFACE(((2.00000000000000000E0,2.00000000000000000E0),(1.00000000000000000E0,1.00000000000000000E0),(1.00000000000000000E0,1.00000000000000000E0)))REPRESENTATION_ITEM('')SURFACE());
#78=CARTESIAN_POINT('',(2.00000000000000000E0,4.00000000000000000E0,-2.00000000000000000E0));
#79=CARTESIAN_POINT('',(2.00000000000000000E0,3.00000000000000000E0,-2.00000000000000000E0));
#80=CARTESIAN_POINT('',(2.00000000000000000E0,3.00000000000000000E0,-1.00000000000000000E0));
#81=CARTESIAN_POINT('',(3.00000000000000000E0,4.00000000000000000E0,-2.00000000000000000E0));
#82=CARTESIAN_POINT('',(3.00000000000000000E0,3.00000000000000000E0,-2.00000000000000000E0));
#83=CARTESIAN_POINT('',(2.50000000000000000E0,3.00000000000000000E0,-1.00000000000000000E0));
#84=CARTESIAN_POINT('',(3.00000000000000000E0,4.00000000000000000E0,-1.00000000000000000E0));
#85=CARTESIAN_POINT('',(3.00000000000000000E0,3.50000000000000000E0,-1.00000000000000000E0));
#86=CARTESIAN_POINT('',(2.66666666666666652E0,3.33333333333333393E0,-6.66666666666666519E-1));
#87=(BOUNDED_SURFACE()B_SPLINE_SURFACE(2,2,((#78,#79,#80),(#81,#82,#83),(#84,#85,#86)),.UNSPECIFIED.,.F.,.F.,.F.)B_SPLINE_SURFACE_WITH_KNOTS((3,3),(3,3),(0.00000000000000000E0,1.00000000000000000E0),(0.00000000000000000E0,1.00000000000000000E0),.UNSPECIFIED.)GEOMETRIC_REPRESENTATION_ITEM()RATIONAL_B_SPLINE_SURFACE(((1.00000000000000000E0,1.00000000000000000E0,2.00000000000000000E0),(1.00000000000000000E0,1.00000000000000000E0,2.00000000000000000E0),(2.00000000000000000E0,2.00000000000000000E0,3.00000000000000000E0)))REPRESENTATION_ITEM('')SURFACE());
#88=CARTESIAN_POINT('',(-7.00000000000000000E0,1.10000000000000000E1,4.00000000000000000E0));
#89=CARTESIAN_POINT('',(-7.00000000000000000E0,3.00000000000000000E0,4.00000000000000000E0));
#90=B_SPLINE_CURVE_WITH_KNOTS('',1,(#88,#89),.UNSPECIFIED.,.F.,.F.,(2,2),(0.00000000000000000E0,1.00000000000000000E0),.UNSPECIFIED.);
#91=CARTESIAN_POINT('',(-7.00000000000000000E0,3.00000000000000000E0,4.00000000000000000E0));
#92=CARTESIAN_POINT('',(2.00000000000000000E0,3.00000000000000000E0,4.00000000000000000E0));
#93=B_SPLINE_CURVE_WITH_KNOTS('',1,(#91,#92),.UNSPECIFIED.,.F.,.F.,(2,2),(0.00000000000000000E0,1.00000000000000000E0),.UNSPECIFIED.);
#94=CARTESIAN_POINT('',(3.00000000000000000E0,4.00000000000000000E0,4.00000000000000000E0));
#95=CARTESIAN_POINT('',(3.00000000000000000E0,3.00000000000000000E0,4.00000000000000000E0));
#96=CARTESIAN_POINT('',(2.00000000000000000E0,3.00000000000000000E0,4.00000000000000000E0));
#97=(BOUNDED_CURVE()B_SPLINE_CURVE(2,(#94,#95,#96),.UNSPECIFIED.,.F.,.F.)B_SPLINE_CURVE_WITH_KNOTS((3,3),(0.00000000000000000E0,1.00000000000000000E0),.UNSPECIFIED.)CURVE()GEOMETRIC_REPRESENTATION_ITEM()RATIONAL_B_SPLINE_CURVE((1.00000000000000000E0,7.07106781186547573E-1,1.00000000000000000E0))REPRESENTATION_ITEM(''));
#98=CARTESIAN_POINT('',(3.00000000000000000E0,1.10000000000000000E1,4.00000000000000000E0));
#99=CARTESIAN_POINT('',(3.00000000000000000E0,4.00000000000000000E0,4.00000000000000000E0));
#100=B_SPLINE_CURVE_WITH_KNOTS('',1,(#98,#99),.UNSPECIFIED.,.F.,.F.,(2,2),(0.00000000000000000E0,1.00000000000000000E0),.UNSPECIFIED.);
#101=CARTESIAN_POINT('',(-7.00000000000000000E0,1.10000000000000000E1,4.00000000000000000E0));
#102=CARTESIAN_POINT('',(3.00000000000000000E0,1.10000000000000000E1,4.00000000000000000E0));
#103=B_SPLINE_CURVE_WITH_KNOTS('',1,(#101,#102),.UNSPECIFIED.,.F.,.F.,(2,2),(0.00000000000000000E0,1.00000000000000000E0),.UNSPECIFIED.);
#104=CARTESIAN_POINT('',(-7.00000000000000000E0,1.10000000000000000E1,-2.00000000000000000E0));
#105=CARTESIAN_POINT('',(2.00000000000000000E0,1.10000000000000000E1,-2.00000000000000000E0));
#106=B_SPLINE_CURVE_WITH_KNOTS('',1,(#104,#105),.UNSPECIFIED.,.F.,.F.,(2,2),(0.00000000000000000E0,1.00000000000000000E0),.UNSPECIFIED.);
#107=CARTESIAN_POINT('',(2.00000000000000000E0,4.00000000000000000E0,-2.00000000000000000E0));
#108=CARTESIAN_POINT('',(2.00000000000000000E0,1.10000000000000000E1,-2.00000000000000000E0));
#109=B_SPLINE_CURVE_WITH_KNOTS('',1,(#107,#108),.UNSPECIFIED.,.F.,.F.,(2,2),(0.00000000000000000E0,1.00000000000000000E0),.UNSPECIFIED.);
#110=CARTESIAN_POINT('',(2.00000000000000000E0,4.00000000000000000E0,-2.00000000000000000E0));
#111=CARTESIAN_POINT('',(-7.00000000000000000E0,4.00000000000000000E0,-2.00000000000000000E0));
#112=B_SPLINE_CURVE_WITH_KNOTS('',1,(#110,#111),.UNSPECIFIED.,.F.,.F.,(2,2),(0.00000000000000000E0,1.00000000000000000E0),.UNSPECIFIED.);
#113=CARTESIAN_POINT('',(-7.00000000000000000E0,1.10000000000000000E1,-2.00000000000000000E0));
#114=CARTESIAN_POINT('',(-7.00000000000000000E0,4.00000000000000000E0,-2.00000000000000000E0));
#115=B_SPLINE_CURVE_WITH_KNOTS('',1,(#113,#114),.UNSPECIFIED.,.F.,.F.,(2,2),(0.00000000000000000E0,1.00000000000000000E0),.UNSPECIFIED.);
#116=CARTESIAN_POINT('',(-7.00000000000000000E0,1.10000000000000000E1,4.00000000000000000E0));
#117=CARTESIAN_POINT('',(-7.00000000000000000E0,1.10000000000000000E1,-2.00000000000000000E0));
#118=B_SPLINE_CURVE_WITH_KNOTS('',1,(#116,#117),.UNSPECIFIED.,.F.,.F.,(2,2),(0.00000000000000000E0,1.00000000000000000E0),.UNSPECIFIED.);
#119=CARTESIAN_POINT('',(-7.00000000000000000E0,3.00000000000000000E0,-1.00000000000000000E0));
#120=CARTESIAN_POINT('',(-7.00000000000000000E0,3.00000000000000000E0,-2.00000000000000000E0));
#121=CARTESIAN_POINT('',(-7.00000000000000000E0,4.00000000000000000E0,-2.00000000000000000E0));
#122=(BOUNDED_CURVE()B_SPLINE_CURVE(2,(#119,#120,#121),.UNSPECIFIED.,.F.,.F.)B_SPLINE_CURVE_WITH_KNOTS((3,3),(0.00000000000000000E0,1.00000000000000000E0),.UNSPECIFIED.)CURVE()GEOMETRIC_REPRESENTATION_ITEM()RATIONAL_B_SPLINE_CURVE((2.00000000000000000E0,1.00000000000000000E0,1.00000000000000000E0))REPRESENTATION_ITEM(''));
#123=CARTESIAN_POINT('',(-7.00000000000000000E0,3.00000000000000000E0,4.00000000000000000E0));
#124=CARTESIAN_POINT('',(-7.00000000000000000E0,3.00000000000000000E0,-1.00000000000000000E0));
#125=B_SPLINE_CURVE_WITH_KNOTS('',1,(#123,#124),.UNSPECIFIED.,.F.,.F.,(2,2),(0.00000000000000000E0,1.00000000000000000E0),.UNSPECIFIED.);
#126=CARTESIAN_POINT('',(3.00000000000000000E0,1.10000000000000000E1,4.00000000000000000E0));
#127=CARTESIAN_POINT('',(3.00000000000000000E0,1.10000000000000000E1,-1.00000000000000000E0));
#128=B_SPLINE_CURVE_WITH_KNOTS('',1,(#126,#127),.UNSPECIFIED.,.F.,.F.,(2,2),(0.00000000000000000E0,1.00000000000000000E0),.UNSPECIFIED.);
#129=CARTESIAN_POINT('',(3.00000000000000000E0,1.10000000000000000E1,-1.00000000000000000E0));
#130=CARTESIAN_POINT('',(3.00000000000000000E0,1.10000000000000000E1,-2.00000000000000000E0));
#131=CARTESIAN_POINT('',(2.00000000000000000E0,1.10000000000000000E1,-2.00000000000000000E0));
#132=(BOUNDED_CURVE()B_SPLINE_CURVE(2,(#129,#130,#131),.UNSPECIFIED.,.F.,.F.)B_SPLINE_CURVE_WITH_KNOTS((3,3),(0.00000000000000000E0,1.00000000000000000E0),.UNSPECIFIED.)CURVE()GEOMETRIC_REPRESENTATION_ITEM()RATIONAL_B_SPLINE_CURVE((2.00000000000000000E0,1.00000000000000000E0,1.00000000000000000E0))REPRESENTATION_ITEM(''));
#133=CARTESIAN_POINT('',(3.00000000000000000E0,4.00000000000000000E0,4.00000000000000000E0));
#134=CARTESIAN_POINT('',(3.00000000000000000E0,4.00000000000000000E0,-1.00000000000000000E0));
#135=B_SPLINE_CURVE_WITH_KNOTS('',1,(#133,#134),.UNSPECIFIED.,.F.,.F.,(2,2),(0.00000000000000000E0,1.00000000000000000E0),.UNSPECIFIED.);
#136=CARTESIAN_POINT('',(3.00000000000000000E0,4.00000000000000000E0,-1.00000000000000000E0));
#137=CARTESIAN_POINT('',(3.00000000000000000E0,1.10000000000000000E1,-1.00000000000000000E0));
#138=B_SPLINE_CURVE_WITH_KNOTS('',1,(#136,#137),.UNSPECIFIED.,.F.,.F.,(2,2),(0.00000000000000000E0,1.00000000000000000E0),.UNSPECIFIED.);
#139=CARTESIAN_POINT('',(2.00000000000000000E0,3.00000000000000000E0,-1.00000000000000000E0));
#140=CARTESIAN_POINT('',(-7.00000000000000000E0,3.00000000000000000E0,-1.00000000000000000E0));
#141=B_SPLINE_CURVE_WITH_KNOTS('',1,(#139,#140),.UNSPECIFIED.,.F.,.F.,(2,2),(0.00000000000000000E0,1.00000000000000000E0),.UNSPECIFIED.);
#142=CARTESIAN_POINT('',(2.00000000000000000E0,3.00000000000000000E0,4.00000000000000000E0));
#143=CARTESIAN_POINT('',(2.00000000000000000E0,3.00000000000000000E0,-1.00000000000000000E0));
#144=B_SPLINE_CURVE_WITH_KNOTS('',1,(#142,#143),.UNSPECIFIED.,.F.,.F.,(2,2),(0.00000000000000000E0,1.00000000000000000E0),.UNSPECIFIED.);
#145=CARTESIAN_POINT('',(3.00000000000000000E0,4.00000000000000000E0,-1.00000000000000000E0));
#146=CARTESIAN_POINT('',(3.00000000000000000E0,3.00000000000000000E0,-1.00000000000000000E0));
#147=CARTESIAN_POINT('',(2.00000000000000000E0,3.00000000000000000E0,-1.00000000000000000E0));
#148=(BOUNDED_CURVE()B_SPLINE_CURVE(2,(#145,#146,#147),.UNSPECIFIED.,.F.,.F.)B_SPLINE_CURVE_WITH_KNOTS((3,3),(0.00000000000000000E0,1.00000000000000000E0),.UNSPECIFIED.)CURVE()GEOMETRIC_REPRESENTATION_ITEM()RATIONAL_B_SPLINE_CURVE((1.00000000000000000E0,7.07106781186547573E-1,1.00000000000000000E0))REPRESENTATION_ITEM(''));
#149=CARTESIAN_POINT('',(3.00000000000000000E0,4.00000000000000000E0,-1.00000000000000000E0));
#150=CARTESIAN_POINT('',(3.00000000000000000E0,4.00000000000000000E0,-2.00000000000000000E0));
#151=CARTESIAN_POINT('',(2.00000000000000000E0,4.00000000000000000E0,-2.00000000000000000E0));
#152=(BOUNDED_CURVE()B_SPLINE_CURVE(2,(#149,#150,#151),.UNSPECIFIED.,.F.,.F.)B_SPLINE_CURVE_WITH_KNOTS((3,3),(0.00000000000000000E0,1.00000000000000000E0),.UNSPECIFIED.)CURVE()GEOMETRIC_REPRESENTATION_ITEM()RATIONAL_B_SPLINE_CURVE((2.00000000000000000E0,1.00000000000000000E0,1.00000000000000000E0))REPRESENTATION_ITEM(''));
#153=CARTESIAN_POINT('',(2.00000000000000000E0,3.00000000000000000E0,-1.00000000000000000E0));
#154=CARTESIAN_POINT('',(2.00000000000000000E0,3.00000000000000000E0,-2.00000000000000000E0));
#155=CARTESIAN_POINT('',(2.00000000000000000E0,4.00000000000000000E0,-2.00000000000000000E0));
#156=(BOUNDED_CURVE()B_SPLINE_CURVE(2,(#153,#154,#155),.UNSPECIFIED.,.F.,.F.)B_SPLINE_CURVE_WITH_KNOTS((3,3),(0.00000000000000000E0,1.00000000000000000E0),.UNSPECIFIED.)CURVE()GEOMETRIC_REPRESENTATION_ITEM()RATIONAL_B_SPLINE_CURVE((2.00000000000000000E0,1.00000000000000000E0,1.00000000000000000E0))REPRESENTATION_ITEM(''));
#157=(GEOMETRIC_REPRESENTATION_CONTEXT(2)REPRESENTATION_CONTEXT('','2D'));
#158=CARTESIAN_POINT('',(1.00000000000000000E0,0.00000000000000000E0));
#159=CARTESIAN_POINT('',(1.00000000000000000E0,1.00000000000000000E0));
#160=B_SPLINE_CURVE_WITH_KNOTS('',1,(#158,#159),.UNSPECIFIED.,.F.,.F.,(2,2),(0.00000000000000000E0,1.00000000000000000E0),.UNSPECIFIED.);
#161=DEFINITIONAL_REPRESENTATION('',(#160),#157);
#162=PCURVE('',#31,#161);
#163=CARTESIAN_POINT('',(1.00000000000000000E0,1.00000000000000000E0));
#164=CARTESIAN_POINT('',(9.99999999999999778E-2,1.00000000000000000E0));
#165=B_SPLINE_CURVE_WITH_KNOTS('',1,(#163,#164),.UNSPECIFIED.,.F.,.F.,(2,2),(0.00000000000000000E0,1.00000000000000000E0),.UNSPECIFIED.);
#166=DEFINITIONAL_REPRESENTATION('',(#165),#157);
#167=PCURVE('',#31,#166);
#168=CARTESIAN_POINT('',(9.99999999999999778E-2,1.00000000000000000E0));
#169=CARTESIAN_POINT('',(0.00000000000000000E0,1.00000000000000000E0));
#170=CARTESIAN_POINT('',(0.00000000000000000E0,8.75000000000000000E-1));
#171=(BOUNDED_CURVE()B_SPLINE_CURVE(2,(#168,#169,#170),.UNSPECIFIED.,.F.,.F.)B_SPLINE_CURVE_WITH_KNOTS((3,3),(0.00000000000000000E0,1.00000000000000000E0),.UNSPECIFIED.)CURVE()GEOMETRIC_REPRESENTATION_ITEM()RATIONAL_B_SPLINE_CURVE((1.00000000000000000E0,7.07106781186547573E-1,1.00000000000000000E0))REPRESENTATION_ITEM(''));
#172=DEFINITIONAL_REPRESENTATION('',(#171),#157);
#173=PCURVE('',#31,#172);
#174=CARTESIAN_POINT('',(0.00000000000000000E0,8.75000000000000000E-1));
#175=CARTESIAN_POINT('',(0.00000000000000000E0,0.00000000000000000E0));
#176=B_SPLINE_CURVE_WITH_KNOTS('',1,(#174,#175),.UNSPECIFIED.,.F.,.F.,(2,2),(0.00000000000000000E0,1.00000000000000000E0),.UNSPECIFIED.);
#177=DEFINITIONAL_REPRESENTATION('',(#176),#157);
#178=PCURVE('',#31,#177);
#179=CARTESIAN_POINT('',(0.00000000000000000E0,0.00000000000000000E0));
#180=CARTESIAN_POINT('',(1.00000000000000000E0,0.00000000000000000E0));
#181=B_SPLINE_CURVE_WITH_KNOTS('',1,(#179,#180),.UNSPECIFIED.,.F.,.F.,(2,2),(0.00000000000000000E0,1.00000000000000000E0),.UNSPECIFIED.);
#182=DEFINITIONAL_REPRESENTATION('',(#181),#157);
#183=PCURVE('',#31,#182);
#184=CARTESIAN_POINT('',(0.00000000000000000E0,0.00000000000000000E0));
#185=CARTESIAN_POINT('',(9.00000000000000022E-1,0.00000000000000000E0));
#186=B_SPLINE_CURVE_WITH_KNOTS('',1,(#184,#185),.UNSPECIFIED.,.F.,.F.,(2,2),(0.00000000000000000E0,1.00000000000000000E0),.UNSPECIFIED.);
#187=DEFINITIONAL_REPRESENTATION('',(#186),#157);
#188=PCURVE('',#36,#187);
#189=CARTESIAN_POINT('',(9.00000000000000022E-1,0.00000000000000000E0));
#190=CARTESIAN_POINT('',(9.00000000000000022E-1,8.75000000000000000E-1));
#191=B_SPLINE_CURVE_WITH_KNOTS('',1,(#189,#190),.UNSPECIFIED.,.F.,.F.,(2,2),(0.00000000000000000E0,1.00000000000000000E0),.UNSPECIFIED.);
#192=DEFINITIONAL_REPRESENTATION('',(#191),#157);
#193=PCURVE('',#36,#192);
#194=CARTESIAN_POINT('',(9.00000000000000022E-1,8.75000000000000000E-1));
#195=CARTESIAN_POINT('',(0.00000000000000000E0,8.75000000000000000E-1));
#196=B_SPLINE_CURVE_WITH_KNOTS('',1,(#194,#195),.UNSPECIFIED.,.F.,.F.,(2,2),(0.00000000000000000E0,1.00000000000000000E0),.UNSPECIFIED.);
#197=DEFINITIONAL_REPRESENTATION('',(#196),#157);
#198=PCURVE('',#36,#197);
#199=CARTESIAN_POINT('',(0.00000000000000000E0,8.75000000000000000E-1));
#200=CARTESIAN_POINT('',(0.00000000000000000E0,0.00000000000000000E0));
#201=B_SPLINE_CURVE_WITH_KNOTS('',1,(#199,#200),.UNSPECIFIED.,.F.,.F.,(2,2),(0.00000000000000000E0,1.00000000000000000E0),.UNSPECIFIED.);
#202=DEFINITIONAL_REPRESENTATION('',(#201),#157);
#203=PCURVE('',#36,#202);
#204=CARTESIAN_POINT('',(1.00000000000000000E0,0.00000000000000000E0));
#205=CARTESIAN_POINT('',(1.00000000000000000E0,1.00000000000000000E0));
#206=B_SPLINE_CURVE_WITH_KNOTS('',1,(#204,#205),.UNSPECIFIED.,.F.,.F.,(2,2),(0.00000000000000000E0,1.00000000000000000E0),.UNSPECIFIED.);
#207=DEFINITIONAL_REPRESENTATION('',(#206),#157);
#208=PCURVE('',#41,#207);
#209=CARTESIAN_POINT('',(1.00000000000000000E0,1.00000000000000000E0));
#210=CARTESIAN_POINT('',(1.25000000000000000E-1,1.00000000000000000E0));
#211=B_SPLINE_CURVE_WITH_KNOTS('',1,(#209,#210),.UNSPECIFIED.,.F.,.F.,(2,2),(0.00000000000000000E0,1.00000000000000000E0),.UNSPECIFIED.);
#212=DEFINITIONAL_REPRESENTATION('',(#211),#157);
#213=PCURVE('',#41,#212);
#214=CARTESIAN_POINT('',(1.25000000000000000E-1,1.00000000000000000E0));
#215=CARTESIAN_POINT('',(0.00000000000000000E0,1.00000000000000000E0));
#216=CARTESIAN_POINT('',(0.00000000000000000E0,8.33333333333333370E-1));
#217=(BOUNDED_CURVE()B_SPLINE_CURVE(2,(#214,#215,#216),.UNSPECIFIED.,.F.,.F.)B_SPLINE_CURVE_WITH_KNOTS((3,3),(0.00000000000000000E0,1.00000000000000000E0),.UNSPECIFIED.)CURVE()GEOMETRIC_REPRESENTATION_ITEM()RATIONAL_B_SPLINE_CURVE((1.00000000000000000E0,1.00000000000000000E0,2.00000000000000000E0))REPRESENTATION_ITEM(''));
#218=DEFINITIONAL_REPRESENTATION('',(#217),#157);
#219=PCURVE('',#41,#218);
#220=CARTESIAN_POINT('',(0.00000000000000000E0,8.33333333333333370E-1));
#221=CARTESIAN_POINT('',(0.00000000000000000E0,0.00000000000000000E0));
#222=B_SPLINE_CURVE_WITH_KNOTS('',1,(#220,#221),.UNSPECIFIED.,.F.,.F.,(2,2),(0.00000000000000000E0,1.00000000000000000E0),.UNSPECIFIED.);
#223=DEFINITIONAL_REPRESENTATION('',(#222),#157);
#224=PCURVE('',#41,#223);
#225=CARTESIAN_POINT('',(0.00000000000000000E0,0.00000000000000000E0));
#226=CARTESIAN_POINT('',(1.00000000000000000E0,0.00000000000000000E0));
#227=B_SPLINE_CURVE_WITH_KNOTS('',1,(#225,#226),.UNSPECIFIED.,.F.,.F.,(2,2),(0.00000000000000000E0,1.00000000000000000E0),.UNSPECIFIED.);
#228=DEFINITIONAL_REPRESENTATION('',(#227),#157);
#229=PCURVE('',#41,#228);
#230=CARTESIAN_POINT('',(0.00000000000000000E0,0.00000000000000000E0));
#231=CARTESIAN_POINT('',(1.00000000000000000E0,0.00000000000000000E0));
#232=B_SPLINE_CURVE_WITH_KNOTS('',1,(#230,#231),.UNSPECIFIED.,.F.,.F.,(2,2),(0.00000000000000000E0,1.00000000000000000E0),.UNSPECIFIED.);
#233=DEFINITIONAL_REPRESENTATION('',(#232),#157);
#234=PCURVE('',#46,#233);
#235=CARTESIAN_POINT('',(1.00000000000000000E0,0.00000000000000000E0));
#236=CARTESIAN_POINT('',(1.00000000000000000E0,8.33333333333333370E-1));
#237=B_SPLINE_CURVE_WITH_KNOTS('',1,(#235,#236),.UNSPECIFIED.,.F.,.F.,(2,2),(0.00000000000000000E0,1.00000000000000000E0),.UNSPECIFIED.);
#238=DEFINITIONAL_REPRESENTATION('',(#237),#157);
#239=PCURVE('',#46,#238);
#240=CARTESIAN_POINT('',(1.00000000000000000E0,8.33333333333333370E-1));
#241=CARTESIAN_POINT('',(1.00000000000000000E0,1.00000000000000000E0));
#242=CARTESIAN_POINT('',(9.00000000000000022E-1,1.00000000000000000E0));
#243=(BOUNDED_CURVE()B_SPLINE_CURVE(2,(#240,#241,#242),.UNSPECIFIED.,.F.,.F.)B_SPLINE_CURVE_WITH_KNOTS((3,3),(0.00000000000000000E0,1.00000000000000000E0),.UNSPECIFIED.)CURVE()GEOMETRIC_REPRESENTATION_ITEM()RATIONAL_B_SPLINE_CURVE((2.00000000000000000E0,1.00000000000000000E0,1.00000000000000000E0))REPRESENTATION_ITEM(''));
#244=DEFINITIONAL_REPRESENTATION('',(#243),#157);
#245=PCURVE('',#46,#244);
#246=CARTESIAN_POINT('',(9.00000000000000022E-1,1.00000000000000000E0));
#247=CARTESIAN_POINT('',(0.00000000000000000E0,1.00000000000000000E0));
#248=B_SPLINE_CURVE_WITH_KNOTS('',1,(#246,#247),.UNSPECIFIED.,.F.,.F.,(2,2),(0.00000000000000000E0,1.00000000000000000E0),.UNSPECIFIED.);
#249=DEFINITIONAL_REPRESENTATION('',(#248),#157);
#250=PCURVE('',#46,#249);
#251=CARTESIAN_POINT('',(0.00000000000000000E0,1.00000000000000000E0));
#252=CARTESIAN_POINT('',(0.00000000000000000E0,0.00000000000000000E0));
#253=B_SPLINE_CURVE_WITH_KNOTS('',1,(#251,#252),.UNSPECIFIED.,.F.,.F.,(2,2),(0.00000000000000000E0,1.00000000000000000E0),.UNSPECIFIED.);
#254=DEFINITIONAL_REPRESENTATION('',(#253),#157);
#255=PCURVE('',#46,#254);
#256=CARTESIAN_POINT('',(0.00000000000000000E0,0.00000000000000000E0));
#257=CARTESIAN_POINT('',(8.75000000000000000E-1,0.00000000000000000E0));
#258=B_SPLINE_CURVE_WITH_KNOTS('',1,(#256,#257),.UNSPECIFIED.,.F.,.F.,(2,2),(0.00000000000000000E0,1.00000000000000000E0),.UNSPECIFIED.);
#259=DEFINITIONAL_REPRESENTATION('',(#258),#157);
#260=PCURVE('',#51,#259);
#261=CARTESIAN_POINT('',(8.75000000000000000E-1,0.00000000000000000E0));
#262=CARTESIAN_POINT('',(8.75000000000000000E-1,8.33333333333333370E-1));
#263=B_SPLINE_CURVE_WITH_KNOTS('',1,(#261,#262),.UNSPECIFIED.,.F.,.F.,(2,2),(0.00000000000000000E0,1.00000000000000000E0),.UNSPECIFIED.);
#264=DEFINITIONAL_REPRESENTATION('',(#263),#157);
#265=PCURVE('',#51,#264);
#266=CARTESIAN_POINT('',(8.75000000000000000E-1,8.33333333333333370E-1));
#267=CARTESIAN_POINT('',(0.00000000000000000E0,8.33333333333333370E-1));
#268=B_SPLINE_CURVE_WITH_KNOTS('',1,(#266,#267),.UNSPECIFIED.,.F.,.F.,(2,2),(0.00000000000000000E0,1.00000000000000000E0),.UNSPECIFIED.);
#269=DEFINITIONAL_REPRESENTATION('',(#268),#157);
#270=PCURVE('',#51,#269);
#271=CARTESIAN_POINT('',(0.00000000000000000E0,8.33333333333333370E-1));
#272=CARTESIAN_POINT('',(0.00000000000000000E0,0.00000000000000000E0));
#273=B_SPLINE_CURVE_WITH_KNOTS('',1,(#271,#272),.UNSPECIFIED.,.F.,.F.,(2,2),(0.00000000000000000E0,1.00000000000000000E0),.UNSPECIFIED.);
#274=DEFINITIONAL_REPRESENTATION('',(#273),#157);
#275=PCURVE('',#51,#274);
#276=CARTESIAN_POINT('',(1.00000000000000000E0,0.00000000000000000E0));
#277=CARTESIAN_POINT('',(1.00000000000000000E0,8.33333333333333370E-1));
#278=B_SPLINE_CURVE_WITH_KNOTS('',1,(#276,#277),.UNSPECIFIED.,.F.,.F.,(2,2),(0.00000000000000000E0,1.00000000000000000E0),.UNSPECIFIED.);
#279=DEFINITIONAL_REPRESENTATION('',(#278),#157);
#280=PCURVE('',#56,#279);
#281=CARTESIAN_POINT('',(1.00000000000000000E0,8.33333333333333370E-1));
#282=CARTESIAN_POINT('',(9.99999999999999778E-2,8.33333333333333370E-1));
#283=B_SPLINE_CURVE_WITH_KNOTS('',1,(#281,#282),.UNSPECIFIED.,.F.,.F.,(2,2),(0.00000000000000000E0,1.00000000000000000E0),.UNSPECIFIED.);
#284=DEFINITIONAL_REPRESENTATION('',(#283),#157);
#285=PCURVE('',#56,#284);
#286=CARTESIAN_POINT('',(9.99999999999999778E-2,8.33333333333333370E-1));
#287=CARTESIAN_POINT('',(9.99999999999999778E-2,0.00000000000000000E0));
#288=B_SPLINE_CURVE_WITH_KNOTS('',1,(#286,#287),.UNSPECIFIED.,.F.,.F.,(2,2),(0.00000000000000000E0,1.00000000000000000E0),.UNSPECIFIED.);
#289=DEFINITIONAL_REPRESENTATION('',(#288),#157);
#290=PCURVE('',#56,#289);
#291=CARTESIAN_POINT('',(9.99999999999999778E-2,0.00000000000000000E0));
#292=CARTESIAN_POINT('',(1.00000000000000000E0,0.00000000000000000E0));
#293=B_SPLINE_CURVE_WITH_KNOTS('',1,(#291,#292),.UNSPECIFIED.,.F.,.F.,(2,2),(0.00000000000000000E0,1.00000000000000000E0),.UNSPECIFIED.);
#294=DEFINITIONAL_REPRESENTATION('',(#293),#157);
#295=PCURVE('',#56,#294);
#296=CARTESIAN_POINT('',(0.00000000000000000E0,0.00000000000000000E0));
#297=CARTESIAN_POINT('',(1.00000000000000000E0,0.00000000000000000E0));
#298=B_SPLINE_CURVE_WITH_KNOTS('',1,(#296,#297),.UNSPECIFIED.,.F.,.F.,(2,2),(0.00000000000000000E0,1.00000000000000000E0),.UNSPECIFIED.);
#299=DEFINITIONAL_REPRESENTATION('',(#298),#157);
#300=PCURVE('',#63,#299);
#301=CARTESIAN_POINT('',(1.00000000000000000E0,0.00000000000000000E0));
#302=CARTESIAN_POINT('',(1.00000000000000000E0,1.00000000000000000E0));
#303=B_SPLINE_CURVE_WITH_KNOTS('',1,(#301,#302),.UNSPECIFIED.,.F.,.F.,(2,2),(0.00000000000000000E0,1.00000000000000000E0),.UNSPECIFIED.);
#304=DEFINITIONAL_REPRESENTATION('',(#303),#157);
#305=PCURVE('',#63,#304);
#306=CARTESIAN_POINT('',(1.00000000000000000E0,1.00000000000000000E0));
#307=CARTESIAN_POINT('',(0.00000000000000000E0,1.00000000000000000E0));
#308=B_SPLINE_CURVE_WITH_KNOTS('',1,(#306,#307),.UNSPECIFIED.,.F.,.F.,(2,2),(0.00000000000000000E0,1.00000000000000000E0),.UNSPECIFIED.);
#309=DEFINITIONAL_REPRESENTATION('',(#308),#157);
#310=PCURVE('',#63,#309);
#311=CARTESIAN_POINT('',(0.00000000000000000E0,1.00000000000000000E0));
#312=CARTESIAN_POINT('',(0.00000000000000000E0,0.00000000000000000E0));
#313=B_SPLINE_CURVE_WITH_KNOTS('',1,(#311,#312),.UNSPECIFIED.,.F.,.F.,(2,2),(0.00000000000000000E0,1.00000000000000000E0),.UNSPECIFIED.);
#314=DEFINITIONAL_REPRESENTATION('',(#313),#157);
#315=PCURVE('',#63,#314);
#316=CARTESIAN_POINT('',(1.00000000000000000E0,0.00000000000000000E0));
#317=CARTESIAN_POINT('',(1.00000000000000000E0,1.00000000000000000E0));
#318=B_SPLINE_CURVE_WITH_KNOTS('',1,(#316,#317),.UNSPECIFIED.,.F.,.F.,(2,2),(0.00000000000000000E0,1.00000000000000000E0),.UNSPECIFIED.);
#319=DEFINITIONAL_REPRESENTATION('',(#318),#157);
#320=PCURVE('',#70,#319);
#321=CARTESIAN_POINT('',(1.00000000000000000E0,1.00000000000000000E0));
#322=CARTESIAN_POINT('',(0.00000000000000000E0,1.00000000000000000E0));
#323=B_SPLINE_CURVE_WITH_KNOTS('',1,(#321,#322),.UNSPECIFIED.,.F.,.F.,(2,2),(0.00000000000000000E0,1.00000000000000000E0),.UNSPECIFIED.);
#324=DEFINITIONAL_REPRESENTATION('',(#323),#157);
#325=PCURVE('',#70,#324);
#326=CARTESIAN_POINT('',(0.00000000000000000E0,1.00000000000000000E0));
#327=CARTESIAN_POINT('',(0.00000000000000000E0,0.00000000000000000E0));
#328=B_SPLINE_CURVE_WITH_KNOTS('',1,(#326,#327),.UNSPECIFIED.,.F.,.F.,(2,2),(0.00000000000000000E0,1.00000000000000000E0),.UNSPECIFIED.);
#329=DEFINITIONAL_REPRESENTATION('',(#328),#157);
#330=PCURVE('',#70,#329);
#331=CARTESIAN_POINT('',(0.00000000000000000E0,0.00000000000000000E0));
#332=CARTESIAN_POINT('',(1.00000000000000000E0,0.00000000000000000E0));
#333=B_SPLINE_CURVE_WITH_KNOTS('',1,(#331,#332),.UNSPECIFIED.,.F.,.F.,(2,2),(0.00000000000000000E0,1.00000000000000000E0),.UNSPECIFIED.);
#334=DEFINITIONAL_REPRESENTATION('',(#333),#157);
#335=PCURVE('',#70,#334);
#336=CARTESIAN_POINT('',(0.00000000000000000E0,0.00000000000000000E0));
#337=CARTESIAN_POINT('',(1.00000000000000000E0,0.00000000000000000E0));
#338=B_SPLINE_CURVE_WITH_KNOTS('',1,(#336,#337),.UNSPECIFIED.,.F.,.F.,(2,2),(0.00000000000000000E0,1.00000000000000000E0),.UNSPECIFIED.);
#339=DEFINITIONAL_REPRESENTATION('',(#338),#157);
#340=PCURVE('',#77,#339);
#341=CARTESIAN_POINT('',(1.00000000000000000E0,0.00000000000000000E0));
#342=CARTESIAN_POINT('',(1.00000000000000000E0,1.00000000000000000E0));
#343=B_SPLINE_CURVE_WITH_KNOTS('',1,(#341,#342),.UNSPECIFIED.,.F.,.F.,(2,2),(0.00000000000000000E0,1.00000000000000000E0),.UNSPECIFIED.);
#344=DEFINITIONAL_REPRESENTATION('',(#343),#157);
#345=PCURVE('',#77,#344);
#346=CARTESIAN_POINT('',(1.00000000000000000E0,1.00000000000000000E0));
#347=CARTESIAN_POINT('',(0.00000000000000000E0,1.00000000000000000E0));
#348=B_SPLINE_CURVE_WITH_KNOTS('',1,(#346,#347),.UNSPECIFIED.,.F.,.F.,(2,2),(0.00000000000000000E0,1.00000000000000000E0),.UNSPECIFIED.);
#349=DEFINITIONAL_REPRESENTATION('',(#348),#157);
#350=PCURVE('',#77,#349);
#351=CARTESIAN_POINT('',(0.00000000000000000E0,1.00000000000000000E0));
#352=CARTESIAN_POINT('',(0.00000000000000000E0,0.00000000000000000E0));
#353=B_SPLINE_CURVE_WITH_KNOTS('',1,(#351,#352),.UNSPECIFIED.,.F.,.F.,(2,2),(0.00000000000000000E0,1.00000000000000000E0),.UNSPECIFIED.);
#354=DEFINITIONAL_REPRESENTATION('',(#353),#157);
#355=PCURVE('',#77,#354);
#356=CARTESIAN_POINT('',(0.00000000000000000E0,0.00000000000000000E0));
#357=CARTESIAN_POINT('',(1.00000000000000000E0,0.00000000000000000E0));
#358=B_SPLINE_CURVE_WITH_KNOTS('',1,(#356,#357),.UNSPECIFIED.,.F.,.F.,(2,2),(0.00000000000000000E0,1.00000000000000000E0),.UNSPECIFIED.);
#359=DEFINITIONAL_REPRESENTATION('',(#358),#157);
#360=PCURVE('',#87,#359);
#361=CARTESIAN_POINT('',(1.00000000000000000E0,0.00000000000000000E0));
#362=CARTESIAN_POINT('',(1.00000000000000000E0,1.00000000000000000E0));
#363=CARTESIAN_POINT('',(0.00000000000000000E0,1.00000000000000000E0));
#364=(BOUNDED_CURVE()B_SPLINE_CURVE(2,(#361,#362,#363),.UNSPECIFIED.,.F.,.F.)B_SPLINE_CURVE_WITH_KNOTS((3,3),(0.00000000000000000E0,1.00000000000000000E0),.UNSPECIFIED.)CURVE()GEOMETRIC_REPRESENTATION_ITEM()RATIONAL_B_SPLINE_CURVE((1.00000000000000000E0,7.07106781186547573E-1,1.00000000000000000E0))REPRESENTATION_ITEM(''));
#365=DEFINITIONAL_REPRESENTATION('',(#364),#157);
#366=PCURVE('',#87,#365);
#367=CARTESIAN_POINT('',(0.00000000000000000E0,1.00000000000000000E0));
#368=CARTESIAN_POINT('',(0.00000000000000000E0,0.00000000000000000E0));
#369=B_SPLINE_CURVE_WITH_KNOTS('',1,(#367,#368),.UNSPECIFIED.,.F.,.F.,(2,2),(0.00000000000000000E0,1.00000000000000000E0),.UNSPECIFIED.);
#370=DEFINITIONAL_REPRESENTATION('',(#369),#157);
#371=PCURVE('',#87,#370);
#372=SURFACE_CURVE('',#90,(#162,#229),.PCURVE_S1.);
#373=EDGE_CURVE('OSCAD_TOPO/3|edge|e:90f73d8f294a6bbfe1cb8944782ac825|585120c24bce870c16bf63ae9d7ed37e0cd9f332585b99e024d88b0464ce2ef6',#2,#4,#372,.T.);
#374=SURFACE_CURVE('',#93,(#167,#295),.PCURVE_S1.);
#375=EDGE_CURVE('OSCAD_TOPO/3|edge|e:30f73f0b65a599d657680fdcadafc3b6|cafb437f3ec691dbecda79cb6a7503072b54cb2d75da71e49021313ddfa75406',#4,#6,#374,.T.);
#376=SURFACE_CURVE('',#97,(#173,#300),.PCURVE_S1.);
#377=EDGE_CURVE('OSCAD_TOPO/3|edge|e:f881699daeb7e986bfa8da63b2046328|9b4b01a8936f06426eae34a334b41351f74d591fe3cfebdbd2c8ba723fd6ac8e',#8,#6,#376,.T.);
#378=SURFACE_CURVE('',#100,(#178,#260),.PCURVE_S1.);
#379=EDGE_CURVE('OSCAD_TOPO/3|edge|e:ab12716d507917bf068a7a6b88ec5840|26e02217ee7981f471aa0b2210772b42932105ab118b1136d0f5cb8b1e7428c8',#10,#8,#378,.T.);
#380=SURFACE_CURVE('',#103,(#183,#234),.PCURVE_S1.);
#381=EDGE_CURVE('OSCAD_TOPO/3|edge|e:6788c021a03a498a5bc2cfa1e789c00a|714d19f3d231366cd378ec43bf721b900baf1f5602fa71efe4b83e7d829e0c92',#2,#10,#380,.T.);
#382=SURFACE_CURVE('',#106,(#188,#250),.PCURVE_S1.);
#383=EDGE_CURVE('OSCAD_TOPO/3|edge|e:3ca63724c43ff3d22ebe498cf650d2a4|f8250a7e7a4700ffcee74537eb32767120f474febe7e2420a0086a54d51a2e33',#12,#14,#382,.T.);
#384=SURFACE_CURVE('',#109,(#193,#330),.PCURVE_S1.);
#385=EDGE_CURVE('OSCAD_TOPO/3|edge|e:9b55a9f2691fa13573442c8c58602857|0fc0cf40edcb3f7c96705677de610133a53c8082a9f5ef68cf654d3faabbf372',#16,#14,#384,.T.);
#386=SURFACE_CURVE('',#112,(#198,#345),.PCURVE_S1.);
#387=EDGE_CURVE('OSCAD_TOPO/3|edge|e:02d8373fdb8328232dc96e4ea1074d8c|924e14cba7bee8607f7483bbf19730360d0f2bdbbed2e98653a49031a0c5878f',#16,#18,#386,.T.);
#388=SURFACE_CURVE('',#115,(#203,#213),.PCURVE_S1.);
#389=EDGE_CURVE('OSCAD_TOPO/3|edge|e:6b02861832ae8075532ea00d71b15b70|91d644f5176e99966b6e0d913f36bf3c90a7e370e00b38db35985523f069d688',#12,#18,#388,.T.);
#390=SURFACE_CURVE('',#118,(#208,#255),.PCURVE_S1.);
#391=EDGE_CURVE('OSCAD_TOPO/3|edge|e:b2868f6c31edd8a2576b9723829cd607|5a957179c4c87b7768c28ea7771b5b8727e5c163d7122bff8fde66c2a2200d0a',#2,#12,#390,.T.);
#392=SURFACE_CURVE('',#122,(#219,#340),.PCURVE_S1.);
#393=EDGE_CURVE('OSCAD_TOPO/3|edge|e:82763935cc311ccf1fc8b1ab1818a72a|1330e8dedcb0a2d51f98db200246c7bcab6242cf94a6e06c0dfe447f6130b5f1',#20,#18,#392,.T.);
#394=SURFACE_CURVE('',#125,(#224,#280),.PCURVE_S1.);
#395=EDGE_CURVE('OSCAD_TOPO/3|edge|e:cec05f6af18472c7582ce9e11ef7b3cd|426bb6fd84ded6e960777caceba77038b8288560617befe4ab2886954b4a73d4',#4,#20,#394,.T.);
#396=SURFACE_CURVE('',#128,(#239,#275),.PCURVE_S1.);
#397=EDGE_CURVE('OSCAD_TOPO/3|edge|e:c3d8a12e03b98cac741944b118e18b78|61f0183e3bb2601d0d0c8dafa93a7727fbc09e0f5e82f30cabac22c85ee610c9',#10,#22,#396,.T.);
#398=SURFACE_CURVE('',#132,(#245,#335),.PCURVE_S1.);
#399=EDGE_CURVE('OSCAD_TOPO/3|edge|e:8e0e211c097902d883d6a5d7b445c1b3|f4e62de4ae84359960de1577fa7595356ca4c9e28b762c69c2715fe62bae2fcd',#22,#14,#398,.T.);
#400=SURFACE_CURVE('',#135,(#265,#315),.PCURVE_S1.);
#401=EDGE_CURVE('OSCAD_TOPO/3|edge|e:306bd58280eed918d2aa9ea61d697b90|7b2404a4e3357a273bd972bdd1023189f4cbc05fe0cdc2b5e75fe672168f3889',#8,#24,#400,.T.);
#402=SURFACE_CURVE('',#138,(#270,#320),.PCURVE_S1.);
#403=EDGE_CURVE('OSCAD_TOPO/3|edge|e:87b254c76cd3a00e458d89eedbee084a|d60ebcd4ade1b37a569db74b17b8e208160b46dcf9200b4d0e7e5da03a4ba590',#24,#22,#402,.T.);
#404=SURFACE_CURVE('',#141,(#285,#355),.PCURVE_S1.);
#405=EDGE_CURVE('OSCAD_TOPO/3|edge|e:382da939089f47615bfc8be77863a9ee|7acabb1ce2dc64ab1bc5236701aa11e58fc12950b370eaf3ddacebf904c48393',#26,#20,#404,.T.);
#406=SURFACE_CURVE('',#144,(#290,#305),.PCURVE_S1.);
#407=EDGE_CURVE('OSCAD_TOPO/3|edge|e:a91f9810eb26e95f4af85740b2c853ab|2aed422d94850a2fcfe31d625cd067e96dbad05f5932ae955557618ff5c1a79b',#6,#26,#406,.T.);
#408=SURFACE_CURVE('',#148,(#310,#366),.PCURVE_S1.);
#409=EDGE_CURVE('OSCAD_TOPO/3|edge|e:fbc68b7af719514a2f8a8b3987763708|b91782a64242b33fe49e2eb646bd5b0b2ed2ad014854aac502700742120c632d',#24,#26,#408,.T.);
#410=SURFACE_CURVE('',#152,(#325,#360),.PCURVE_S1.);
#411=EDGE_CURVE('OSCAD_TOPO/3|edge|e:6568fde9dc965190a930a786a6480f3f|06f2dff7ed7b924754a4c2aa4db74070f8d386ffcfd900337ad54af6de696594',#24,#16,#410,.T.);
#412=SURFACE_CURVE('',#156,(#350,#371),.PCURVE_S1.);
#413=EDGE_CURVE('OSCAD_TOPO/3|edge|e:3d6f1e8c11e2bd7626b34259e27cc0f0|a61e626c8957c5c1109b2a421f70d3fd4bcfffcad02ae25acfcda5e6e4c84554',#26,#16,#412,.T.);
#414=ORIENTED_EDGE('',*,*,#373,.T.);
#415=ORIENTED_EDGE('',*,*,#375,.T.);
#416=ORIENTED_EDGE('',*,*,#377,.F.);
#417=ORIENTED_EDGE('',*,*,#379,.F.);
#418=ORIENTED_EDGE('',*,*,#381,.F.);
#419=EDGE_LOOP('OSCAD_TOPO/3|loop|l:9da100ee174a5e4e6d7d939d175ebe7f|38515bc8e22551bb51a741029edd2a0fe047f4e5a4a4dc1056cd013e2679b67c',(#414,#415,#416,#417,#418));
#420=ORIENTED_EDGE('',*,*,#383,.T.);
#421=ORIENTED_EDGE('',*,*,#385,.F.);
#422=ORIENTED_EDGE('',*,*,#387,.T.);
#423=ORIENTED_EDGE('',*,*,#389,.F.);
#424=EDGE_LOOP('OSCAD_TOPO/3|loop|l:7d43846021f0a1a60058b7618ce096bd|56ce54f3d5d9b4701a71d9e9737b5b9b2597c5785c262eba8063126c0921338b',(#420,#421,#422,#423));
#425=ORIENTED_EDGE('',*,*,#391,.T.);
#426=ORIENTED_EDGE('',*,*,#389,.T.);
#427=ORIENTED_EDGE('',*,*,#393,.F.);
#428=ORIENTED_EDGE('',*,*,#395,.F.);
#429=ORIENTED_EDGE('',*,*,#373,.F.);
#430=EDGE_LOOP('OSCAD_TOPO/3|loop|l:b59b687d5b8c4aa146ba67889c07d128|6f6c28ee21872320fed5fa35b026670c5de2ddfbc660fecd2d3cf0477d536baf',(#425,#426,#427,#428,#429));
#431=ORIENTED_EDGE('',*,*,#381,.T.);
#432=ORIENTED_EDGE('',*,*,#397,.T.);
#433=ORIENTED_EDGE('',*,*,#399,.T.);
#434=ORIENTED_EDGE('',*,*,#383,.F.);
#435=ORIENTED_EDGE('',*,*,#391,.F.);
#436=EDGE_LOOP('OSCAD_TOPO/3|loop|l:c852729955eeeb67cc6711865877eca5|66e61562589d6a7cd7ae4299f8d9adf7c3ec25d70d1e99f9cadc571194dd5680',(#431,#432,#433,#434,#435));
#437=ORIENTED_EDGE('',*,*,#379,.T.);
#438=ORIENTED_EDGE('',*,*,#401,.T.);
#439=ORIENTED_EDGE('',*,*,#403,.T.);
#440=ORIENTED_EDGE('',*,*,#397,.F.);
#441=EDGE_LOOP('OSCAD_TOPO/3|loop|l:e770051c8f82469a591a85b254eaee2d|27ac3e608d01882696b51423f2b3e974017a667aaa27a490d7010b15ab2b992b',(#437,#438,#439,#440));
#442=ORIENTED_EDGE('',*,*,#395,.T.);
#443=ORIENTED_EDGE('',*,*,#405,.F.);
#444=ORIENTED_EDGE('',*,*,#407,.F.);
#445=ORIENTED_EDGE('',*,*,#375,.F.);
#446=EDGE_LOOP('OSCAD_TOPO/3|loop|l:8e85a653e737f5fad6c490e426cbf7a0|09578ba39eb1775defdb7f1b81d5e28e72c37f5eef607136a70e81573b790c55',(#442,#443,#444,#445));
#447=ORIENTED_EDGE('',*,*,#377,.T.);
#448=ORIENTED_EDGE('',*,*,#407,.T.);
#449=ORIENTED_EDGE('',*,*,#409,.F.);
#450=ORIENTED_EDGE('',*,*,#401,.F.);
#451=EDGE_LOOP('OSCAD_TOPO/3|loop|l:33a9c32071eec1f2e4ee7384caeff393|8953ef1facd8db230bd61f9e9c7a0eb7ad2ae13bee53c67a99d697ce6a73c17c',(#447,#448,#449,#450));
#452=ORIENTED_EDGE('',*,*,#403,.F.);
#453=ORIENTED_EDGE('',*,*,#411,.T.);
#454=ORIENTED_EDGE('',*,*,#385,.T.);
#455=ORIENTED_EDGE('',*,*,#399,.F.);
#456=EDGE_LOOP('OSCAD_TOPO/3|loop|l:a78389e5d553d58caea1ccd33ce9c085|dab601ec97629d5c38e1cfc424f347b71730cbf05df36215db4e6153610261d4',(#452,#453,#454,#455));
#457=ORIENTED_EDGE('',*,*,#393,.T.);
#458=ORIENTED_EDGE('',*,*,#387,.F.);
#459=ORIENTED_EDGE('',*,*,#413,.F.);
#460=ORIENTED_EDGE('',*,*,#405,.T.);
#461=EDGE_LOOP('OSCAD_TOPO/3|loop|l:b2b352c40501ba570b7b4c8a9266a9fc|4fb4431901349b7f1418e9574312b3cd7f4aeabbcded11710f0f791037ed43d5',(#457,#458,#459,#460));
#462=ORIENTED_EDGE('',*,*,#411,.F.);
#463=ORIENTED_EDGE('',*,*,#409,.T.);
#464=ORIENTED_EDGE('',*,*,#413,.T.);
#465=EDGE_LOOP('OSCAD_TOPO/3|loop|l:7d0114756f265bc4aae3c67964e49d2a|f6ae95e320f476d9da46a0bdea1c9e2bc2b607f8151f4d810402b723a40e7c1d',(#462,#463,#464));
#466=FACE_OUTER_BOUND('',#419,.T.);
#467=ADVANCED_FACE('OSCAD_TOPO/3|face|f:fd4f76ea0c970791391e3231b7d53bbf|8f73a746ab88ff6e1a304df23e6e9fa3dcf93b4997ee2a92436275f3b73512f5',(#466),#31,.T.);
#468=FACE_OUTER_BOUND('',#424,.T.);
#469=ADVANCED_FACE('OSCAD_TOPO/3|face|f:f956b63637de52d14ca537a7212a8ab4|e70dd5e1cc1c1989dfd4e76ff76e1666a1d75c7baacec4440191db369d6c52f5',(#468),#36,.T.);
#470=FACE_OUTER_BOUND('',#430,.T.);
#471=ADVANCED_FACE('OSCAD_TOPO/3|face|f:587a97e34a74e9ff00dde5202327283e|2f9adcfad18826e71cf8df40209e96a1a2d2e321d61c472ff5e35e0ede25d6fb',(#470),#41,.T.);
#472=FACE_OUTER_BOUND('',#436,.T.);
#473=ADVANCED_FACE('OSCAD_TOPO/3|face|f:199e636fcd85704b40d3660098aa44be|de2bcc28b8f1af3ecff994be8ffbe3c16cd7e620b7d6c0c9a77a443b80870573',(#472),#46,.T.);
#474=FACE_OUTER_BOUND('',#441,.T.);
#475=ADVANCED_FACE('OSCAD_TOPO/3|face|f:0cbf33a8f21332b868a29f8abb2e8250|2c941f72490c5185af9dbec928576614811722162d16614aa62b849486399dc7',(#474),#51,.T.);
#476=FACE_OUTER_BOUND('',#446,.T.);
#477=ADVANCED_FACE('OSCAD_TOPO/3|face|f:64755b0b3e77b4001979f094a8e6fe27|3d698d90087a2ad436fcc07a0328eba211361a5137fcab8596e91dad1b05d377',(#476),#56,.T.);
#478=FACE_OUTER_BOUND('',#451,.T.);
#479=ADVANCED_FACE('OSCAD_TOPO/3|face|f:9e160a331d9b114fcd98991696dd6a68|5981084d93b78ecff5f4614f9880b3f6137057d4374e3cf6063c7b7cab6e94be',(#478),#63,.T.);
#480=FACE_OUTER_BOUND('',#456,.T.);
#481=ADVANCED_FACE('OSCAD_TOPO/3|face|f:332c874ed5562d182771bca4be1c20b1|c141d1d9e579a8d091b1a8ac2fe109200e0b3341d39f239807364f30b3efdd0f',(#480),#70,.T.);
#482=FACE_OUTER_BOUND('',#461,.T.);
#483=ADVANCED_FACE('OSCAD_TOPO/3|face|f:e7b9bb0ed9760bf9c525c1e7e8c1a59f|a88712b70a94b7aef2b891f4df5a3802f52110ace545d96532fb3cb0ca2bbe46',(#482),#77,.T.);
#484=FACE_OUTER_BOUND('',#465,.T.);
#485=ADVANCED_FACE('OSCAD_TOPO/3|face|f:400413ed3547d7108fc0bbe00ba38c45|9c6ae47354ed4d7dc7bc695a9e70f03cfb70cf7cd38f2a5aa84d72bf7d8c96e2',(#484),#87,.T.);
#486=CLOSED_SHELL('OSCAD_TOPO/3|shell|s:0a801928f9b96eb8e8a5280fb8fc2dbc|51c3b1fe1ba00e3096d7bc46e879994876a5a1ecd1c5ba6272dc8dca3cb6aad9',(#467,#469,#471,#473,#475,#477,#479,#481,#483,#485));
#487=MANIFOLD_SOLID_BREP('OSCAD_TOPO/3|body|b:cd069ba9e6fdb4bc45d077420ba194ba|f01f718efb95ff14ebef62e3de2e11ae40ec41a76cdb4ce035d17788a2543803',#486);
#488=(LENGTH_UNIT()NAMED_UNIT(*)SI_UNIT(.MILLI.,.METRE.));
#489=UNCERTAINTY_MEASURE_WITH_UNIT(LENGTH_MEASURE(9.99999999999999955E-8),#488,'distance_accuracy_value','');
#490=(GEOMETRIC_REPRESENTATION_CONTEXT(3)GLOBAL_UNCERTAINTY_ASSIGNED_CONTEXT((#489))GLOBAL_UNIT_ASSIGNED_CONTEXT((#488))REPRESENTATION_CONTEXT('','3D'));
#491=ADVANCED_BREP_SHAPE_REPRESENTATION('',(#487),#490);
#492=APPLICATION_CONTEXT('managed model based 3d engineering');
#493=PRODUCT_CONTEXT('',#492,'mechanical');
#494=PRODUCT('model','model','',(#493));
#495=PRODUCT_DEFINITION_FORMATION('1','',#494);
#496=PRODUCT_DEFINITION_CONTEXT('part definition',#492,'design');
#497=PRODUCT_DEFINITION('design','',#495,#496);
#498=PRODUCT_DEFINITION_SHAPE('','',#497);
#499=SHAPE_DEFINITION_REPRESENTATION(#498,#491);
ENDSEC;
END-ISO-10303-21;
