ISO-10303-21;
HEADER;
FILE_DESCRIPTION(('OpenSCAD Viewer retained AP242 B-rep'),'2;1');
FILE_NAME('model.step','',(''),(''),'OpenSCAD Viewer','OpenSCAD Viewer','');
FILE_SCHEMA(('AP242_MANAGED_MODEL_BASED_3D_ENGINEERING_MIM_LF'));
ENDSEC;
DATA;
#1=CARTESIAN_POINT('',(2.19308763930766482E1,-1.20741738458446815E1,2.34857089269551871E1));
#2=VERTEX_POINT('OSCAD_TOPO/3|vertex|v:e636c1d1667c27d3d3b4986113fad662|a83a12fe228f7d187d8dc5a5eb08985fefde31ed95797096dfa279dc648c5a10',#1);
#3=CARTESIAN_POINT('',(2.90605352735681350E1,-8.44540487444006160E0,2.34857089269551871E1));
#4=VERTEX_POINT('OSCAD_TOPO/3|vertex|v:f072c34069e7228494ca69b358db5208|b8edde3248c5780e4e7b79cfaaf88091ba160a1eb1af4909a1515d9b992ef20c',#3);
#5=CARTESIAN_POINT('',(2.63054460286559468E1,-3.03231667391694160E0,3.01270912669448521E1));
#6=VERTEX_POINT('OSCAD_TOPO/3|vertex|v:05806620a5594e23c5223b5a1b0ac392|8a4e5c434db29d59c5b73380a09bcf72ae6267374baf3539b3c02cb3afae9cbc',#5);
#7=CARTESIAN_POINT('',(2.51081176413820479E1,-2.88445855083995006E0,3.08650226380548176E1));
#8=VERTEX_POINT('OSCAD_TOPO/3|vertex|v:ee2071d778ef3bdb73e10f233503849b|a3ca5d04605f18d94a671a37f2e35a9fff43d0b1aff5cc23fd09d4baae90b40c',#7);
#9=CARTESIAN_POINT('',(1.88696661209519974E1,-6.05963140081899265E0,3.08650226380548176E1));
#10=VERTEX_POINT('OSCAD_TOPO/3|vertex|v:60964f5574f5fe2dc7fc52359d343c3d|a11da708e7af131aafc300b14daf25b73087bb17e74027bd3193772d23f202cd',#9);
#11=CARTESIAN_POINT('',(1.99225395461942227E1,-8.12827463092412472E0,1.94364543665275775E1));
#12=VERTEX_POINT('OSCAD_TOPO/3|vertex|v:9512934f62a2e24e47ca12728630d368|5e7894d08ba4935f68ef4af989e024829f8d14b3810f4f2859f98c9c5f24b025',#11);
#13=CARTESIAN_POINT('',(1.71674503012820381E1,-2.71518643040100471E0,2.60778367065172461E1));
#14=VERTEX_POINT('OSCAD_TOPO/3|vertex|v:13b43993fd480d839bb81756ec171f9e|158319872fdbf2e0acd9026fa28b7ac02999ca61c60bbfb0d3008dd5dc91f577',#13);
#15=CARTESIAN_POINT('',(2.34059018217120887E1,4.59986419578037431E-1,2.60778367065172461E1));
#16=VERTEX_POINT('OSCAD_TOPO/3|vertex|v:97dec7c1a465c600968566aab4990849|fa831aba5ed19da7632db9dde873a92ba7a2ce543e86f3f9fd3d57e11ba4d186',#15);
#17=CARTESIAN_POINT('',(2.61609910666242733E1,-4.95310178094508213E0,1.94364543665275775E1));
#18=VERTEX_POINT('OSCAD_TOPO/3|vertex|v:54dfd535dbf028ad1e90e3fd9c11a6e8|74b15203cabb24421a5d60cabc1db9ca411472f40d32c1cbfc4a67eb11f7d99a',#17);
#19=CARTESIAN_POINT('',(1.71960520818833089E1,-2.77138205505186175E0,2.74906438376984745E1));
#20=VERTEX_POINT('OSCAD_TOPO/3|vertex|v:5135065c95583c1af049ade7c592ad73|0749186414aa83e45651ace0e29de27571fad380fcf81dee52c133e2febcf47b',#19);
#21=CARTESIAN_POINT('',(2.73869212344994466E1,-5.15715552867292981E0,2.01113301265988440E1));
#22=VERTEX_POINT('OSCAD_TOPO/3|vertex|v:afb5b4937603bee11ac8a351a289ae35|02b3cb93561f673d0580ad527f4800e980c42077b56769e44c1a8037856ce7f3',#21);
#23=CARTESIAN_POINT('',(2.46318319895872584E1,2.55932671850189530E-1,2.67527124665885125E1));
#24=VERTEX_POINT('OSCAD_TOPO/3|vertex|v:55456cf05fb33eba7b9c61399bfb6c57|2a11deab04079c50b8f3b40518c8aca0f642eccd21a5146009a03cbbcf1cf019',#23);
#25=CARTESIAN_POINT('',(2.34345036023133595E1,4.03790794927180841E-1,2.74906438376984745E1));
#26=VERTEX_POINT('OSCAD_TOPO/3|vertex|v:a2fc4a1cbf845b04cc375d67d47f3b77|5c3fc5f8a9b5b9f16f492ecdba99eb90091608bb733b82208588e860d6495f20',#25);
#27=CARTESIAN_POINT('',(2.19308763930766482E1,-1.20741738458446815E1,2.34857089269551871E1));
#28=CARTESIAN_POINT('',(1.88696661209519974E1,-6.05963140081899265E0,3.08650226380548176E1));
#29=CARTESIAN_POINT('',(2.90605352735681350E1,-8.44540487444006160E0,2.34857089269551871E1));
#30=CARTESIAN_POINT('',(2.59993250014434842E1,-2.43086242941437281E0,3.08650226380548176E1));
#31=B_SPLINE_SURFACE_WITH_KNOTS('',1,1,((#27,#28),(#29,#30)),.UNSPECIFIED.,.F.,.F.,.F.,(2,2),(2,2),(0.00000000000000000E0,1.00000000000000000E0),(0.00000000000000000E0,1.00000000000000000E0),.UNSPECIFIED.);
#32=CARTESIAN_POINT('',(2.70521984266857096E1,-4.49950565951950487E0,1.94364543665275775E1));
#33=CARTESIAN_POINT('',(2.39909881545610588E1,1.51503678550618348E0,2.68157680776272080E1));
#34=CARTESIAN_POINT('',(1.99225395461942227E1,-8.12827463092412472E0,1.94364543665275775E1));
#35=CARTESIAN_POINT('',(1.68613292740695719E1,-2.11373218589843637E0,2.68157680776272080E1));
#36=B_SPLINE_SURFACE_WITH_KNOTS('',1,1,((#32,#33),(#34,#35)),.UNSPECIFIED.,.F.,.F.,.F.,(2,2),(2,2),(0.00000000000000000E0,1.00000000000000000E0),(0.00000000000000000E0,1.00000000000000000E0),.UNSPECIFIED.);
#37=CARTESIAN_POINT('',(2.19308763930766482E1,-1.20741738458446815E1,2.34857089269551871E1));
#38=CARTESIAN_POINT('',(1.99225395461942227E1,-8.12827463092412472E0,1.94364543665275775E1));
#39=CARTESIAN_POINT('',(1.88696661209519974E1,-6.05963140081899265E0,3.08650226380548176E1));
#40=CARTESIAN_POINT('',(1.68613292740695719E1,-2.11373218589843637E0,2.68157680776272080E1));
#41=B_SPLINE_SURFACE_WITH_KNOTS('',1,1,((#37,#38),(#39,#40)),.UNSPECIFIED.,.F.,.F.,.F.,(2,2),(2,2),(0.00000000000000000E0,1.00000000000000000E0),(0.00000000000000000E0,1.00000000000000000E0),.UNSPECIFIED.);
#42=CARTESIAN_POINT('',(2.90605352735681350E1,-8.44540487444006160E0,2.34857089269551871E1));
#43=CARTESIAN_POINT('',(2.70521984266857096E1,-4.49950565951950487E0,1.94364543665275775E1));
#44=CARTESIAN_POINT('',(2.19308763930766482E1,-1.20741738458446815E1,2.34857089269551871E1));
#45=CARTESIAN_POINT('',(1.99225395461942227E1,-8.12827463092412472E0,1.94364543665275775E1));
#46=B_SPLINE_SURFACE_WITH_KNOTS('',1,1,((#42,#43),(#44,#45)),.UNSPECIFIED.,.F.,.F.,.F.,(2,2),(2,2),(0.00000000000000000E0,1.00000000000000000E0),(0.00000000000000000E0,1.00000000000000000E0),.UNSPECIFIED.);
#47=CARTESIAN_POINT('',(2.59993250014434842E1,-2.43086242941437281E0,3.08650226380548176E1));
#48=CARTESIAN_POINT('',(2.39909881545610588E1,1.51503678550618348E0,2.68157680776272080E1));
#49=CARTESIAN_POINT('',(2.90605352735681350E1,-8.44540487444006160E0,2.34857089269551871E1));
#50=CARTESIAN_POINT('',(2.70521984266857096E1,-4.49950565951950487E0,1.94364543665275775E1));
#51=B_SPLINE_SURFACE_WITH_KNOTS('',1,1,((#47,#48),(#49,#50)),.UNSPECIFIED.,.F.,.F.,.F.,(2,2),(2,2),(0.00000000000000000E0,1.00000000000000000E0),(0.00000000000000000E0,1.00000000000000000E0),.UNSPECIFIED.);
#52=CARTESIAN_POINT('',(1.88696661209519974E1,-6.05963140081899265E0,3.08650226380548176E1));
#53=CARTESIAN_POINT('',(1.68613292740695719E1,-2.11373218589843637E0,2.68157680776272080E1));
#54=CARTESIAN_POINT('',(2.59993250014434842E1,-2.43086242941437281E0,3.08650226380548176E1));
#55=CARTESIAN_POINT('',(2.39909881545610588E1,1.51503678550618348E0,2.68157680776272080E1));
#56=B_SPLINE_SURFACE_WITH_KNOTS('',1,1,((#52,#53),(#54,#55)),.UNSPECIFIED.,.F.,.F.,.F.,(2,2),(2,2),(0.00000000000000000E0,1.00000000000000000E0),(0.00000000000000000E0,1.00000000000000000E0),.UNSPECIFIED.);
#57=CARTESIAN_POINT('',(2.51081176413820479E1,-2.88445855083995006E0,3.08650226380548176E1));
#58=CARTESIAN_POINT('',(2.34345036023133595E1,4.03790794927180841E-1,2.74906438376984745E1));
#59=CARTESIAN_POINT('',(2.59993250014434842E1,-2.43086242941437281E0,3.08650226380548176E1));
#60=CARTESIAN_POINT('',(2.43257109623747958E1,8.57386916352758099E-1,2.74906438376984745E1));
#61=CARTESIAN_POINT('',(2.63054460286559468E1,-3.03231667391694160E0,3.01270912669448521E1));
#62=CARTESIAN_POINT('',(2.46318319895872584E1,2.55932671850189530E-1,2.67527124665885125E1));
#63=(BOUNDED_SURFACE()B_SPLINE_SURFACE(2,1,((#57,#58),(#59,#60),(#61,#62)),.UNSPECIFIED.,.F.,.F.,.F.)B_SPLINE_SURFACE_WITH_KNOTS((3,3),(2,2),(0.00000000000000000E0,1.00000000000000000E0),(0.00000000000000000E0,1.00000000000000000E0),.UNSPECIFIED.)GEOMETRIC_REPRESENTATION_ITEM()RATIONAL_B_SPLINE_SURFACE(((1.00000000000000000E0,1.00000000000000000E0),(7.07106781186547573E-1,7.07106781186547573E-1),(1.00000000000000000E0,1.00000000000000000E0)))REPRESENTATION_ITEM('')SURFACE());
#64=CARTESIAN_POINT('',(2.73869212344994466E1,-5.15715552867292981E0,2.01113301265988440E1));
#65=CARTESIAN_POINT('',(2.46318319895872584E1,2.55932671850189530E-1,2.67527124665885125E1));
#66=CARTESIAN_POINT('',(2.70521984266857096E1,-4.49950565951950487E0,1.94364543665275775E1));
#67=CARTESIAN_POINT('',(2.42971091817735214E1,9.13582541003614801E-1,2.60778367065172461E1));
#68=CARTESIAN_POINT('',(2.61609910666242733E1,-4.95310178094508213E0,1.94364543665275775E1));
#69=CARTESIAN_POINT('',(2.34059018217120887E1,4.59986419578037431E-1,2.60778367065172461E1));
#70=(BOUNDED_SURFACE()B_SPLINE_SURFACE(2,1,((#64,#65),(#66,#67),(#68,#69)),.UNSPECIFIED.,.F.,.F.,.F.)B_SPLINE_SURFACE_WITH_KNOTS((3,3),(2,2),(0.00000000000000000E0,1.00000000000000000E0),(0.00000000000000000E0,1.00000000000000000E0),.UNSPECIFIED.)GEOMETRIC_REPRESENTATION_ITEM()RATIONAL_B_SPLINE_SURFACE(((2.00000000000000000E0,2.00000000000000000E0),(1.00000000000000000E0,1.00000000000000000E0),(1.00000000000000000E0,1.00000000000000000E0)))REPRESENTATION_ITEM('')SURFACE());
#71=CARTESIAN_POINT('',(1.71674503012820381E1,-2.71518643040100471E0,2.60778367065172461E1));
#72=CARTESIAN_POINT('',(2.34059018217120887E1,4.59986419578037431E-1,2.60778367065172461E1));
#73=CARTESIAN_POINT('',(1.68613292740695719E1,-2.11373218589843637E0,2.68157680776272080E1));
#74=CARTESIAN_POINT('',(2.30997807944996225E1,1.06144066408060622E0,2.68157680776272080E1));
#75=CARTESIAN_POINT('',(1.71960520818833089E1,-2.77138205505186175E0,2.74906438376984745E1));
#76=CARTESIAN_POINT('',(2.34345036023133595E1,4.03790794927180841E-1,2.74906438376984745E1));
#77=(BOUNDED_SURFACE()B_SPLINE_SURFACE(2,1,((#71,#72),(#73,#74),(#75,#76)),.UNSPECIFIED.,.F.,.F.,.F.)B_SPLINE_SURFACE_WITH_KNOTS((3,3),(2,2),(0.00000000000000000E0,1.00000000000000000E0),(0.00000000000000000E0,1.00000000000000000E0),.UNSPECIFIED.)GEOMETRIC_REPRESENTATION_ITEM()RATIONAL_B_SPLINE_SURFACE(((1.00000000000000000E0,1.00000000000000000E0),(1.00000000000000000E0,1.00000000000000000E0),(2.00000000000000000E0,2.00000000000000000E0)))REPRESENTATION_ITEM('')SURFACE());
#78=CARTESIAN_POINT('',(2.46318319895872584E1,2.55932671850189530E-1,2.67527124665885125E1));
#79=CARTESIAN_POINT('',(2.44787714759810271E1,5.56659794101473815E-1,2.71216781521434918E1));
#80=CARTESIAN_POINT('',(2.42422564540297181E1,2.86486837992234289E-1,2.74696253006855748E1));
#81=CARTESIAN_POINT('',(2.42971091817735214E1,9.13582541003614801E-1,2.60778367065172461E1));
#82=CARTESIAN_POINT('',(2.39909881545610588E1,1.51503678550618348E0,2.68157680776272080E1));
#83=CARTESIAN_POINT('',(2.38801072823440776E1,6.30588855639969470E-1,2.74906438376984745E1));
#84=CARTESIAN_POINT('',(2.34059018217120887E1,4.59986419578037431E-1,2.60778367065172461E1));
#85=CARTESIAN_POINT('',(2.30997807944996225E1,1.06144066408060622E0,2.68157680776272080E1));
#86=CARTESIAN_POINT('',(2.34345036023133595E1,4.03790794927180841E-1,2.74906438376984745E1));
#87=(BOUNDED_SURFACE()B_SPLINE_SURFACE(2,2,((#78,#79,#80),(#81,#82,#83),(#84,#85,#86)),.UNSPECIFIED.,.F.,.F.,.F.)B_SPLINE_SURFACE_WITH_KNOTS((3,3),(3,3),(0.00000000000000000E0,1.00000000000000000E0),(0.00000000000000000E0,1.00000000000000000E0),.UNSPECIFIED.)GEOMETRIC_REPRESENTATION_ITEM()RATIONAL_B_SPLINE_SURFACE(((2.00000000000000000E0,2.00000000000000000E0,3.00000000000000000E0),(1.00000000000000000E0,1.00000000000000000E0,2.00000000000000000E0),(1.00000000000000000E0,1.00000000000000000E0,2.00000000000000000E0)))REPRESENTATION_ITEM('')SURFACE());
#88=CARTESIAN_POINT('',(2.19308763930766482E1,-1.20741738458446815E1,2.34857089269551871E1));
#89=CARTESIAN_POINT('',(2.90605352735681350E1,-8.44540487444006160E0,2.34857089269551871E1));
#90=B_SPLINE_CURVE_WITH_KNOTS('',1,(#88,#89),.UNSPECIFIED.,.F.,.F.,(2,2),(0.00000000000000000E0,1.00000000000000000E0),.UNSPECIFIED.);
#91=CARTESIAN_POINT('',(2.90605352735681350E1,-8.44540487444006160E0,2.34857089269551871E1));
#92=CARTESIAN_POINT('',(2.63054460286559468E1,-3.03231667391694160E0,3.01270912669448521E1));
#93=B_SPLINE_CURVE_WITH_KNOTS('',1,(#91,#92),.UNSPECIFIED.,.F.,.F.,(2,2),(0.00000000000000000E0,1.00000000000000000E0),.UNSPECIFIED.);
#94=CARTESIAN_POINT('',(2.63054460286559468E1,-3.03231667391694160E0,3.01270912669448521E1));
#95=CARTESIAN_POINT('',(2.59993250014434842E1,-2.43086242941437281E0,3.08650226380548176E1));
#96=CARTESIAN_POINT('',(2.51081176413820479E1,-2.88445855083995006E0,3.08650226380548176E1));
#97=(BOUNDED_CURVE()B_SPLINE_CURVE(2,(#94,#95,#96),.UNSPECIFIED.,.F.,.F.)B_SPLINE_CURVE_WITH_KNOTS((3,3),(0.00000000000000000E0,1.00000000000000000E0),.UNSPECIFIED.)CURVE()GEOMETRIC_REPRESENTATION_ITEM()RATIONAL_B_SPLINE_CURVE((1.00000000000000000E0,7.07106781186547573E-1,1.00000000000000000E0))REPRESENTATION_ITEM(''));
#98=CARTESIAN_POINT('',(1.88696661209519974E1,-6.05963140081899265E0,3.08650226380548176E1));
#99=CARTESIAN_POINT('',(2.51081176413820479E1,-2.88445855083995006E0,3.08650226380548176E1));
#100=B_SPLINE_CURVE_WITH_KNOTS('',1,(#98,#99),.UNSPECIFIED.,.F.,.F.,(2,2),(0.00000000000000000E0,1.00000000000000000E0),.UNSPECIFIED.);
#101=CARTESIAN_POINT('',(2.19308763930766482E1,-1.20741738458446815E1,2.34857089269551871E1));
#102=CARTESIAN_POINT('',(1.88696661209519974E1,-6.05963140081899265E0,3.08650226380548176E1));
#103=B_SPLINE_CURVE_WITH_KNOTS('',1,(#101,#102),.UNSPECIFIED.,.F.,.F.,(2,2),(0.00000000000000000E0,1.00000000000000000E0),.UNSPECIFIED.);
#104=CARTESIAN_POINT('',(1.99225395461942227E1,-8.12827463092412472E0,1.94364543665275775E1));
#105=CARTESIAN_POINT('',(1.71674503012820381E1,-2.71518643040100471E0,2.60778367065172461E1));
#106=B_SPLINE_CURVE_WITH_KNOTS('',1,(#104,#105),.UNSPECIFIED.,.F.,.F.,(2,2),(0.00000000000000000E0,1.00000000000000000E0),.UNSPECIFIED.);
#107=CARTESIAN_POINT('',(2.34059018217120887E1,4.59986419578037431E-1,2.60778367065172461E1));
#108=CARTESIAN_POINT('',(1.71674503012820381E1,-2.71518643040100471E0,2.60778367065172461E1));
#109=B_SPLINE_CURVE_WITH_KNOTS('',1,(#107,#108),.UNSPECIFIED.,.F.,.F.,(2,2),(0.00000000000000000E0,1.00000000000000000E0),.UNSPECIFIED.);
#110=CARTESIAN_POINT('',(2.34059018217120887E1,4.59986419578037431E-1,2.60778367065172461E1));
#111=CARTESIAN_POINT('',(2.61609910666242733E1,-4.95310178094508213E0,1.94364543665275775E1));
#112=B_SPLINE_CURVE_WITH_KNOTS('',1,(#110,#111),.UNSPECIFIED.,.F.,.F.,(2,2),(0.00000000000000000E0,1.00000000000000000E0),.UNSPECIFIED.);
#113=CARTESIAN_POINT('',(1.99225395461942227E1,-8.12827463092412472E0,1.94364543665275775E1));
#114=CARTESIAN_POINT('',(2.61609910666242733E1,-4.95310178094508213E0,1.94364543665275775E1));
#115=B_SPLINE_CURVE_WITH_KNOTS('',1,(#113,#114),.UNSPECIFIED.,.F.,.F.,(2,2),(0.00000000000000000E0,1.00000000000000000E0),.UNSPECIFIED.);
#116=CARTESIAN_POINT('',(1.88696661209519974E1,-6.05963140081899265E0,3.08650226380548176E1));
#117=CARTESIAN_POINT('',(1.71960520818833089E1,-2.77138205505186175E0,2.74906438376984745E1));
#118=B_SPLINE_CURVE_WITH_KNOTS('',1,(#116,#117),.UNSPECIFIED.,.F.,.F.,(2,2),(0.00000000000000000E0,1.00000000000000000E0),.UNSPECIFIED.);
#119=CARTESIAN_POINT('',(1.71960520818833089E1,-2.77138205505186175E0,2.74906438376984745E1));
#120=CARTESIAN_POINT('',(1.68613292740695719E1,-2.11373218589843637E0,2.68157680776272080E1));
#121=CARTESIAN_POINT('',(1.71674503012820381E1,-2.71518643040100471E0,2.60778367065172461E1));
#122=(BOUNDED_CURVE()B_SPLINE_CURVE(2,(#119,#120,#121),.UNSPECIFIED.,.F.,.F.)B_SPLINE_CURVE_WITH_KNOTS((3,3),(0.00000000000000000E0,1.00000000000000000E0),.UNSPECIFIED.)CURVE()GEOMETRIC_REPRESENTATION_ITEM()RATIONAL_B_SPLINE_CURVE((2.00000000000000000E0,1.00000000000000000E0,1.00000000000000000E0))REPRESENTATION_ITEM(''));
#123=CARTESIAN_POINT('',(2.19308763930766482E1,-1.20741738458446815E1,2.34857089269551871E1));
#124=CARTESIAN_POINT('',(1.99225395461942227E1,-8.12827463092412472E0,1.94364543665275775E1));
#125=B_SPLINE_CURVE_WITH_KNOTS('',1,(#123,#124),.UNSPECIFIED.,.F.,.F.,(2,2),(0.00000000000000000E0,1.00000000000000000E0),.UNSPECIFIED.);
#126=CARTESIAN_POINT('',(2.73869212344994466E1,-5.15715552867292981E0,2.01113301265988440E1));
#127=CARTESIAN_POINT('',(2.70521984266857096E1,-4.49950565951950487E0,1.94364543665275775E1));
#128=CARTESIAN_POINT('',(2.61609910666242733E1,-4.95310178094508213E0,1.94364543665275775E1));
#129=(BOUNDED_CURVE()B_SPLINE_CURVE(2,(#126,#127,#128),.UNSPECIFIED.,.F.,.F.)B_SPLINE_CURVE_WITH_KNOTS((3,3),(0.00000000000000000E0,1.00000000000000000E0),.UNSPECIFIED.)CURVE()GEOMETRIC_REPRESENTATION_ITEM()RATIONAL_B_SPLINE_CURVE((2.00000000000000000E0,1.00000000000000000E0,1.00000000000000000E0))REPRESENTATION_ITEM(''));
#130=CARTESIAN_POINT('',(2.90605352735681350E1,-8.44540487444006160E0,2.34857089269551871E1));
#131=CARTESIAN_POINT('',(2.73869212344994466E1,-5.15715552867292981E0,2.01113301265988440E1));
#132=B_SPLINE_CURVE_WITH_KNOTS('',1,(#130,#131),.UNSPECIFIED.,.F.,.F.,(2,2),(0.00000000000000000E0,1.00000000000000000E0),.UNSPECIFIED.);
#133=CARTESIAN_POINT('',(2.46318319895872584E1,2.55932671850189530E-1,2.67527124665885125E1));
#134=CARTESIAN_POINT('',(2.73869212344994466E1,-5.15715552867292981E0,2.01113301265988440E1));
#135=B_SPLINE_CURVE_WITH_KNOTS('',1,(#133,#134),.UNSPECIFIED.,.F.,.F.,(2,2),(0.00000000000000000E0,1.00000000000000000E0),.UNSPECIFIED.);
#136=CARTESIAN_POINT('',(2.63054460286559468E1,-3.03231667391694160E0,3.01270912669448521E1));
#137=CARTESIAN_POINT('',(2.46318319895872584E1,2.55932671850189530E-1,2.67527124665885125E1));
#138=B_SPLINE_CURVE_WITH_KNOTS('',1,(#136,#137),.UNSPECIFIED.,.F.,.F.,(2,2),(0.00000000000000000E0,1.00000000000000000E0),.UNSPECIFIED.);
#139=CARTESIAN_POINT('',(2.51081176413820479E1,-2.88445855083995006E0,3.08650226380548176E1));
#140=CARTESIAN_POINT('',(2.34345036023133595E1,4.03790794927180841E-1,2.74906438376984745E1));
#141=B_SPLINE_CURVE_WITH_KNOTS('',1,(#139,#140),.UNSPECIFIED.,.F.,.F.,(2,2),(0.00000000000000000E0,1.00000000000000000E0),.UNSPECIFIED.);
#142=CARTESIAN_POINT('',(2.34345036023133595E1,4.03790794927180841E-1,2.74906438376984745E1));
#143=CARTESIAN_POINT('',(1.71960520818833089E1,-2.77138205505186175E0,2.74906438376984745E1));
#144=B_SPLINE_CURVE_WITH_KNOTS('',1,(#142,#143),.UNSPECIFIED.,.F.,.F.,(2,2),(0.00000000000000000E0,1.00000000000000000E0),.UNSPECIFIED.);
#145=CARTESIAN_POINT('',(2.46318319895872584E1,2.55932671850189530E-1,2.67527124665885125E1));
#146=CARTESIAN_POINT('',(2.43257109623747958E1,8.57386916352758099E-1,2.74906438376984745E1));
#147=CARTESIAN_POINT('',(2.34345036023133595E1,4.03790794927180841E-1,2.74906438376984745E1));
#148=(BOUNDED_CURVE()B_SPLINE_CURVE(2,(#145,#146,#147),.UNSPECIFIED.,.F.,.F.)B_SPLINE_CURVE_WITH_KNOTS((3,3),(0.00000000000000000E0,1.00000000000000000E0),.UNSPECIFIED.)CURVE()GEOMETRIC_REPRESENTATION_ITEM()RATIONAL_B_SPLINE_CURVE((1.00000000000000000E0,7.07106781186547573E-1,1.00000000000000000E0))REPRESENTATION_ITEM(''));
#149=CARTESIAN_POINT('',(2.46318319895872584E1,2.55932671850189530E-1,2.67527124665885125E1));
#150=CARTESIAN_POINT('',(2.42971091817735214E1,9.13582541003614801E-1,2.60778367065172461E1));
#151=CARTESIAN_POINT('',(2.34059018217120887E1,4.59986419578037431E-1,2.60778367065172461E1));
#152=(BOUNDED_CURVE()B_SPLINE_CURVE(2,(#149,#150,#151),.UNSPECIFIED.,.F.,.F.)B_SPLINE_CURVE_WITH_KNOTS((3,3),(0.00000000000000000E0,1.00000000000000000E0),.UNSPECIFIED.)CURVE()GEOMETRIC_REPRESENTATION_ITEM()RATIONAL_B_SPLINE_CURVE((2.00000000000000000E0,1.00000000000000000E0,1.00000000000000000E0))REPRESENTATION_ITEM(''));
#153=CARTESIAN_POINT('',(2.34345036023133595E1,4.03790794927180841E-1,2.74906438376984745E1));
#154=CARTESIAN_POINT('',(2.30997807944996225E1,1.06144066408060622E0,2.68157680776272080E1));
#155=CARTESIAN_POINT('',(2.34059018217120887E1,4.59986419578037431E-1,2.60778367065172461E1));
#156=(BOUNDED_CURVE()B_SPLINE_CURVE(2,(#153,#154,#155),.UNSPECIFIED.,.F.,.F.)B_SPLINE_CURVE_WITH_KNOTS((3,3),(0.00000000000000000E0,1.00000000000000000E0),.UNSPECIFIED.)CURVE()GEOMETRIC_REPRESENTATION_ITEM()RATIONAL_B_SPLINE_CURVE((2.00000000000000000E0,1.00000000000000000E0,1.00000000000000000E0))REPRESENTATION_ITEM(''));
#157=(GEOMETRIC_REPRESENTATION_CONTEXT(2)REPRESENTATION_CONTEXT('','2D'));
#158=CARTESIAN_POINT('',(0.00000000000000000E0,0.00000000000000000E0));
#159=CARTESIAN_POINT('',(1.00000000000000000E0,0.00000000000000000E0));
#160=B_SPLINE_CURVE_WITH_KNOTS('',1,(#158,#159),.UNSPECIFIED.,.F.,.F.,(2,2),(0.00000000000000000E0,1.00000000000000000E0),.UNSPECIFIED.);
#161=DEFINITIONAL_REPRESENTATION('',(#160),#157);
#162=PCURVE('',#31,#161);
#163=CARTESIAN_POINT('',(1.00000000000000000E0,0.00000000000000000E0));
#164=CARTESIAN_POINT('',(1.00000000000000000E0,9.00000000000000022E-1));
#165=B_SPLINE_CURVE_WITH_KNOTS('',1,(#163,#164),.UNSPECIFIED.,.F.,.F.,(2,2),(0.00000000000000000E0,1.00000000000000000E0),.UNSPECIFIED.);
#166=DEFINITIONAL_REPRESENTATION('',(#165),#157);
#167=PCURVE('',#31,#166);
#168=CARTESIAN_POINT('',(1.00000000000000000E0,9.00000000000000022E-1));
#169=CARTESIAN_POINT('',(1.00000000000000000E0,1.00000000000000000E0));
#170=CARTESIAN_POINT('',(8.75000000000000000E-1,1.00000000000000000E0));
#171=(BOUNDED_CURVE()B_SPLINE_CURVE(2,(#168,#169,#170),.UNSPECIFIED.,.F.,.F.)B_SPLINE_CURVE_WITH_KNOTS((3,3),(0.00000000000000000E0,1.00000000000000000E0),.UNSPECIFIED.)CURVE()GEOMETRIC_REPRESENTATION_ITEM()RATIONAL_B_SPLINE_CURVE((1.00000000000000000E0,7.07106781186547573E-1,1.00000000000000000E0))REPRESENTATION_ITEM(''));
#172=DEFINITIONAL_REPRESENTATION('',(#171),#157);
#173=PCURVE('',#31,#172);
#174=CARTESIAN_POINT('',(8.75000000000000000E-1,1.00000000000000000E0));
#175=CARTESIAN_POINT('',(0.00000000000000000E0,1.00000000000000000E0));
#176=B_SPLINE_CURVE_WITH_KNOTS('',1,(#174,#175),.UNSPECIFIED.,.F.,.F.,(2,2),(0.00000000000000000E0,1.00000000000000000E0),.UNSPECIFIED.);
#177=DEFINITIONAL_REPRESENTATION('',(#176),#157);
#178=PCURVE('',#31,#177);
#179=CARTESIAN_POINT('',(0.00000000000000000E0,1.00000000000000000E0));
#180=CARTESIAN_POINT('',(0.00000000000000000E0,0.00000000000000000E0));
#181=B_SPLINE_CURVE_WITH_KNOTS('',1,(#179,#180),.UNSPECIFIED.,.F.,.F.,(2,2),(0.00000000000000000E0,1.00000000000000000E0),.UNSPECIFIED.);
#182=DEFINITIONAL_REPRESENTATION('',(#181),#157);
#183=PCURVE('',#31,#182);
#184=CARTESIAN_POINT('',(1.00000000000000000E0,0.00000000000000000E0));
#185=CARTESIAN_POINT('',(1.00000000000000000E0,9.00000000000000022E-1));
#186=B_SPLINE_CURVE_WITH_KNOTS('',1,(#184,#185),.UNSPECIFIED.,.F.,.F.,(2,2),(0.00000000000000000E0,1.00000000000000000E0),.UNSPECIFIED.);
#187=DEFINITIONAL_REPRESENTATION('',(#186),#157);
#188=PCURVE('',#36,#187);
#189=CARTESIAN_POINT('',(1.00000000000000000E0,9.00000000000000022E-1));
#190=CARTESIAN_POINT('',(1.25000000000000000E-1,9.00000000000000022E-1));
#191=B_SPLINE_CURVE_WITH_KNOTS('',1,(#189,#190),.UNSPECIFIED.,.F.,.F.,(2,2),(0.00000000000000000E0,1.00000000000000000E0),.UNSPECIFIED.);
#192=DEFINITIONAL_REPRESENTATION('',(#191),#157);
#193=PCURVE('',#36,#192);
#194=CARTESIAN_POINT('',(1.25000000000000000E-1,9.00000000000000022E-1));
#195=CARTESIAN_POINT('',(1.25000000000000000E-1,0.00000000000000000E0));
#196=B_SPLINE_CURVE_WITH_KNOTS('',1,(#194,#195),.UNSPECIFIED.,.F.,.F.,(2,2),(0.00000000000000000E0,1.00000000000000000E0),.UNSPECIFIED.);
#197=DEFINITIONAL_REPRESENTATION('',(#196),#157);
#198=PCURVE('',#36,#197);
#199=CARTESIAN_POINT('',(1.25000000000000000E-1,0.00000000000000000E0));
#200=CARTESIAN_POINT('',(1.00000000000000000E0,0.00000000000000000E0));
#201=B_SPLINE_CURVE_WITH_KNOTS('',1,(#199,#200),.UNSPECIFIED.,.F.,.F.,(2,2),(0.00000000000000000E0,1.00000000000000000E0),.UNSPECIFIED.);
#202=DEFINITIONAL_REPRESENTATION('',(#201),#157);
#203=PCURVE('',#36,#202);
#204=CARTESIAN_POINT('',(0.00000000000000000E0,0.00000000000000000E0));
#205=CARTESIAN_POINT('',(1.00000000000000000E0,0.00000000000000000E0));
#206=B_SPLINE_CURVE_WITH_KNOTS('',1,(#204,#205),.UNSPECIFIED.,.F.,.F.,(2,2),(0.00000000000000000E0,1.00000000000000000E0),.UNSPECIFIED.);
#207=DEFINITIONAL_REPRESENTATION('',(#206),#157);
#208=PCURVE('',#41,#207);
#209=CARTESIAN_POINT('',(1.00000000000000000E0,0.00000000000000000E0));
#210=CARTESIAN_POINT('',(1.00000000000000000E0,8.33333333333333481E-1));
#211=B_SPLINE_CURVE_WITH_KNOTS('',1,(#209,#210),.UNSPECIFIED.,.F.,.F.,(2,2),(0.00000000000000000E0,1.00000000000000000E0),.UNSPECIFIED.);
#212=DEFINITIONAL_REPRESENTATION('',(#211),#157);
#213=PCURVE('',#41,#212);
#214=CARTESIAN_POINT('',(1.00000000000000000E0,8.33333333333333481E-1));
#215=CARTESIAN_POINT('',(1.00000000000000000E0,1.00000000000000000E0));
#216=CARTESIAN_POINT('',(9.00000000000000022E-1,1.00000000000000000E0));
#217=(BOUNDED_CURVE()B_SPLINE_CURVE(2,(#214,#215,#216),.UNSPECIFIED.,.F.,.F.)B_SPLINE_CURVE_WITH_KNOTS((3,3),(0.00000000000000000E0,1.00000000000000000E0),.UNSPECIFIED.)CURVE()GEOMETRIC_REPRESENTATION_ITEM()RATIONAL_B_SPLINE_CURVE((2.00000000000000000E0,1.00000000000000000E0,1.00000000000000000E0))REPRESENTATION_ITEM(''));
#218=DEFINITIONAL_REPRESENTATION('',(#217),#157);
#219=PCURVE('',#41,#218);
#220=CARTESIAN_POINT('',(9.00000000000000022E-1,1.00000000000000000E0));
#221=CARTESIAN_POINT('',(0.00000000000000000E0,1.00000000000000000E0));
#222=B_SPLINE_CURVE_WITH_KNOTS('',1,(#220,#221),.UNSPECIFIED.,.F.,.F.,(2,2),(0.00000000000000000E0,1.00000000000000000E0),.UNSPECIFIED.);
#223=DEFINITIONAL_REPRESENTATION('',(#222),#157);
#224=PCURVE('',#41,#223);
#225=CARTESIAN_POINT('',(0.00000000000000000E0,1.00000000000000000E0));
#226=CARTESIAN_POINT('',(0.00000000000000000E0,0.00000000000000000E0));
#227=B_SPLINE_CURVE_WITH_KNOTS('',1,(#225,#226),.UNSPECIFIED.,.F.,.F.,(2,2),(0.00000000000000000E0,1.00000000000000000E0),.UNSPECIFIED.);
#228=DEFINITIONAL_REPRESENTATION('',(#227),#157);
#229=PCURVE('',#41,#228);
#230=CARTESIAN_POINT('',(1.00000000000000000E0,0.00000000000000000E0));
#231=CARTESIAN_POINT('',(1.00000000000000000E0,1.00000000000000000E0));
#232=B_SPLINE_CURVE_WITH_KNOTS('',1,(#230,#231),.UNSPECIFIED.,.F.,.F.,(2,2),(0.00000000000000000E0,1.00000000000000000E0),.UNSPECIFIED.);
#233=DEFINITIONAL_REPRESENTATION('',(#232),#157);
#234=PCURVE('',#46,#233);
#235=CARTESIAN_POINT('',(1.00000000000000000E0,1.00000000000000000E0));
#236=CARTESIAN_POINT('',(1.25000000000000000E-1,1.00000000000000000E0));
#237=B_SPLINE_CURVE_WITH_KNOTS('',1,(#235,#236),.UNSPECIFIED.,.F.,.F.,(2,2),(0.00000000000000000E0,1.00000000000000000E0),.UNSPECIFIED.);
#238=DEFINITIONAL_REPRESENTATION('',(#237),#157);
#239=PCURVE('',#46,#238);
#240=CARTESIAN_POINT('',(1.25000000000000000E-1,1.00000000000000000E0));
#241=CARTESIAN_POINT('',(0.00000000000000000E0,1.00000000000000000E0));
#242=CARTESIAN_POINT('',(0.00000000000000000E0,8.33333333333333481E-1));
#243=(BOUNDED_CURVE()B_SPLINE_CURVE(2,(#240,#241,#242),.UNSPECIFIED.,.F.,.F.)B_SPLINE_CURVE_WITH_KNOTS((3,3),(0.00000000000000000E0,1.00000000000000000E0),.UNSPECIFIED.)CURVE()GEOMETRIC_REPRESENTATION_ITEM()RATIONAL_B_SPLINE_CURVE((1.00000000000000000E0,1.00000000000000000E0,2.00000000000000000E0))REPRESENTATION_ITEM(''));
#244=DEFINITIONAL_REPRESENTATION('',(#243),#157);
#245=PCURVE('',#46,#244);
#246=CARTESIAN_POINT('',(0.00000000000000000E0,8.33333333333333481E-1));
#247=CARTESIAN_POINT('',(0.00000000000000000E0,0.00000000000000000E0));
#248=B_SPLINE_CURVE_WITH_KNOTS('',1,(#246,#247),.UNSPECIFIED.,.F.,.F.,(2,2),(0.00000000000000000E0,1.00000000000000000E0),.UNSPECIFIED.);
#249=DEFINITIONAL_REPRESENTATION('',(#248),#157);
#250=PCURVE('',#46,#249);
#251=CARTESIAN_POINT('',(0.00000000000000000E0,0.00000000000000000E0));
#252=CARTESIAN_POINT('',(1.00000000000000000E0,0.00000000000000000E0));
#253=B_SPLINE_CURVE_WITH_KNOTS('',1,(#251,#252),.UNSPECIFIED.,.F.,.F.,(2,2),(0.00000000000000000E0,1.00000000000000000E0),.UNSPECIFIED.);
#254=DEFINITIONAL_REPRESENTATION('',(#253),#157);
#255=PCURVE('',#46,#254);
#256=CARTESIAN_POINT('',(1.00000000000000000E0,0.00000000000000000E0));
#257=CARTESIAN_POINT('',(1.00000000000000000E0,8.33333333333333481E-1));
#258=B_SPLINE_CURVE_WITH_KNOTS('',1,(#256,#257),.UNSPECIFIED.,.F.,.F.,(2,2),(0.00000000000000000E0,1.00000000000000000E0),.UNSPECIFIED.);
#259=DEFINITIONAL_REPRESENTATION('',(#258),#157);
#260=PCURVE('',#51,#259);
#261=CARTESIAN_POINT('',(1.00000000000000000E0,8.33333333333333481E-1));
#262=CARTESIAN_POINT('',(9.99999999999999778E-2,8.33333333333333481E-1));
#263=B_SPLINE_CURVE_WITH_KNOTS('',1,(#261,#262),.UNSPECIFIED.,.F.,.F.,(2,2),(0.00000000000000000E0,1.00000000000000000E0),.UNSPECIFIED.);
#264=DEFINITIONAL_REPRESENTATION('',(#263),#157);
#265=PCURVE('',#51,#264);
#266=CARTESIAN_POINT('',(9.99999999999999778E-2,8.33333333333333481E-1));
#267=CARTESIAN_POINT('',(9.99999999999999778E-2,0.00000000000000000E0));
#268=B_SPLINE_CURVE_WITH_KNOTS('',1,(#266,#267),.UNSPECIFIED.,.F.,.F.,(2,2),(0.00000000000000000E0,1.00000000000000000E0),.UNSPECIFIED.);
#269=DEFINITIONAL_REPRESENTATION('',(#268),#157);
#270=PCURVE('',#51,#269);
#271=CARTESIAN_POINT('',(9.99999999999999778E-2,0.00000000000000000E0));
#272=CARTESIAN_POINT('',(1.00000000000000000E0,0.00000000000000000E0));
#273=B_SPLINE_CURVE_WITH_KNOTS('',1,(#271,#272),.UNSPECIFIED.,.F.,.F.,(2,2),(0.00000000000000000E0,1.00000000000000000E0),.UNSPECIFIED.);
#274=DEFINITIONAL_REPRESENTATION('',(#273),#157);
#275=PCURVE('',#51,#274);
#276=CARTESIAN_POINT('',(0.00000000000000000E0,0.00000000000000000E0));
#277=CARTESIAN_POINT('',(8.75000000000000000E-1,0.00000000000000000E0));
#278=B_SPLINE_CURVE_WITH_KNOTS('',1,(#276,#277),.UNSPECIFIED.,.F.,.F.,(2,2),(0.00000000000000000E0,1.00000000000000000E0),.UNSPECIFIED.);
#279=DEFINITIONAL_REPRESENTATION('',(#278),#157);
#280=PCURVE('',#56,#279);
#281=CARTESIAN_POINT('',(8.75000000000000000E-1,0.00000000000000000E0));
#282=CARTESIAN_POINT('',(8.75000000000000000E-1,8.33333333333333481E-1));
#283=B_SPLINE_CURVE_WITH_KNOTS('',1,(#281,#282),.UNSPECIFIED.,.F.,.F.,(2,2),(0.00000000000000000E0,1.00000000000000000E0),.UNSPECIFIED.);
#284=DEFINITIONAL_REPRESENTATION('',(#283),#157);
#285=PCURVE('',#56,#284);
#286=CARTESIAN_POINT('',(8.75000000000000000E-1,8.33333333333333481E-1));
#287=CARTESIAN_POINT('',(0.00000000000000000E0,8.33333333333333481E-1));
#288=B_SPLINE_CURVE_WITH_KNOTS('',1,(#286,#287),.UNSPECIFIED.,.F.,.F.,(2,2),(0.00000000000000000E0,1.00000000000000000E0),.UNSPECIFIED.);
#289=DEFINITIONAL_REPRESENTATION('',(#288),#157);
#290=PCURVE('',#56,#289);
#291=CARTESIAN_POINT('',(0.00000000000000000E0,8.33333333333333481E-1));
#292=CARTESIAN_POINT('',(0.00000000000000000E0,0.00000000000000000E0));
#293=B_SPLINE_CURVE_WITH_KNOTS('',1,(#291,#292),.UNSPECIFIED.,.F.,.F.,(2,2),(0.00000000000000000E0,1.00000000000000000E0),.UNSPECIFIED.);
#294=DEFINITIONAL_REPRESENTATION('',(#293),#157);
#295=PCURVE('',#56,#294);
#296=CARTESIAN_POINT('',(1.00000000000000000E0,0.00000000000000000E0));
#297=CARTESIAN_POINT('',(1.00000000000000000E0,1.00000000000000000E0));
#298=B_SPLINE_CURVE_WITH_KNOTS('',1,(#296,#297),.UNSPECIFIED.,.F.,.F.,(2,2),(0.00000000000000000E0,1.00000000000000000E0),.UNSPECIFIED.);
#299=DEFINITIONAL_REPRESENTATION('',(#298),#157);
#300=PCURVE('',#63,#299);
#301=CARTESIAN_POINT('',(1.00000000000000000E0,1.00000000000000000E0));
#302=CARTESIAN_POINT('',(0.00000000000000000E0,1.00000000000000000E0));
#303=B_SPLINE_CURVE_WITH_KNOTS('',1,(#301,#302),.UNSPECIFIED.,.F.,.F.,(2,2),(0.00000000000000000E0,1.00000000000000000E0),.UNSPECIFIED.);
#304=DEFINITIONAL_REPRESENTATION('',(#303),#157);
#305=PCURVE('',#63,#304);
#306=CARTESIAN_POINT('',(0.00000000000000000E0,1.00000000000000000E0));
#307=CARTESIAN_POINT('',(0.00000000000000000E0,0.00000000000000000E0));
#308=B_SPLINE_CURVE_WITH_KNOTS('',1,(#306,#307),.UNSPECIFIED.,.F.,.F.,(2,2),(0.00000000000000000E0,1.00000000000000000E0),.UNSPECIFIED.);
#309=DEFINITIONAL_REPRESENTATION('',(#308),#157);
#310=PCURVE('',#63,#309);
#311=CARTESIAN_POINT('',(0.00000000000000000E0,0.00000000000000000E0));
#312=CARTESIAN_POINT('',(1.00000000000000000E0,0.00000000000000000E0));
#313=B_SPLINE_CURVE_WITH_KNOTS('',1,(#311,#312),.UNSPECIFIED.,.F.,.F.,(2,2),(0.00000000000000000E0,1.00000000000000000E0),.UNSPECIFIED.);
#314=DEFINITIONAL_REPRESENTATION('',(#313),#157);
#315=PCURVE('',#63,#314);
#316=CARTESIAN_POINT('',(0.00000000000000000E0,0.00000000000000000E0));
#317=CARTESIAN_POINT('',(1.00000000000000000E0,0.00000000000000000E0));
#318=B_SPLINE_CURVE_WITH_KNOTS('',1,(#316,#317),.UNSPECIFIED.,.F.,.F.,(2,2),(0.00000000000000000E0,1.00000000000000000E0),.UNSPECIFIED.);
#319=DEFINITIONAL_REPRESENTATION('',(#318),#157);
#320=PCURVE('',#70,#319);
#321=CARTESIAN_POINT('',(1.00000000000000000E0,0.00000000000000000E0));
#322=CARTESIAN_POINT('',(1.00000000000000000E0,1.00000000000000000E0));
#323=B_SPLINE_CURVE_WITH_KNOTS('',1,(#321,#322),.UNSPECIFIED.,.F.,.F.,(2,2),(0.00000000000000000E0,1.00000000000000000E0),.UNSPECIFIED.);
#324=DEFINITIONAL_REPRESENTATION('',(#323),#157);
#325=PCURVE('',#70,#324);
#326=CARTESIAN_POINT('',(1.00000000000000000E0,1.00000000000000000E0));
#327=CARTESIAN_POINT('',(0.00000000000000000E0,1.00000000000000000E0));
#328=B_SPLINE_CURVE_WITH_KNOTS('',1,(#326,#327),.UNSPECIFIED.,.F.,.F.,(2,2),(0.00000000000000000E0,1.00000000000000000E0),.UNSPECIFIED.);
#329=DEFINITIONAL_REPRESENTATION('',(#328),#157);
#330=PCURVE('',#70,#329);
#331=CARTESIAN_POINT('',(0.00000000000000000E0,1.00000000000000000E0));
#332=CARTESIAN_POINT('',(0.00000000000000000E0,0.00000000000000000E0));
#333=B_SPLINE_CURVE_WITH_KNOTS('',1,(#331,#332),.UNSPECIFIED.,.F.,.F.,(2,2),(0.00000000000000000E0,1.00000000000000000E0),.UNSPECIFIED.);
#334=DEFINITIONAL_REPRESENTATION('',(#333),#157);
#335=PCURVE('',#70,#334);
#336=CARTESIAN_POINT('',(1.00000000000000000E0,0.00000000000000000E0));
#337=CARTESIAN_POINT('',(1.00000000000000000E0,1.00000000000000000E0));
#338=B_SPLINE_CURVE_WITH_KNOTS('',1,(#336,#337),.UNSPECIFIED.,.F.,.F.,(2,2),(0.00000000000000000E0,1.00000000000000000E0),.UNSPECIFIED.);
#339=DEFINITIONAL_REPRESENTATION('',(#338),#157);
#340=PCURVE('',#77,#339);
#341=CARTESIAN_POINT('',(1.00000000000000000E0,1.00000000000000000E0));
#342=CARTESIAN_POINT('',(0.00000000000000000E0,1.00000000000000000E0));
#343=B_SPLINE_CURVE_WITH_KNOTS('',1,(#341,#342),.UNSPECIFIED.,.F.,.F.,(2,2),(0.00000000000000000E0,1.00000000000000000E0),.UNSPECIFIED.);
#344=DEFINITIONAL_REPRESENTATION('',(#343),#157);
#345=PCURVE('',#77,#344);
#346=CARTESIAN_POINT('',(0.00000000000000000E0,1.00000000000000000E0));
#347=CARTESIAN_POINT('',(0.00000000000000000E0,0.00000000000000000E0));
#348=B_SPLINE_CURVE_WITH_KNOTS('',1,(#346,#347),.UNSPECIFIED.,.F.,.F.,(2,2),(0.00000000000000000E0,1.00000000000000000E0),.UNSPECIFIED.);
#349=DEFINITIONAL_REPRESENTATION('',(#348),#157);
#350=PCURVE('',#77,#349);
#351=CARTESIAN_POINT('',(0.00000000000000000E0,0.00000000000000000E0));
#352=CARTESIAN_POINT('',(1.00000000000000000E0,0.00000000000000000E0));
#353=B_SPLINE_CURVE_WITH_KNOTS('',1,(#351,#352),.UNSPECIFIED.,.F.,.F.,(2,2),(0.00000000000000000E0,1.00000000000000000E0),.UNSPECIFIED.);
#354=DEFINITIONAL_REPRESENTATION('',(#353),#157);
#355=PCURVE('',#77,#354);
#356=CARTESIAN_POINT('',(1.00000000000000000E0,0.00000000000000000E0));
#357=CARTESIAN_POINT('',(1.00000000000000000E0,1.00000000000000000E0));
#358=B_SPLINE_CURVE_WITH_KNOTS('',1,(#356,#357),.UNSPECIFIED.,.F.,.F.,(2,2),(0.00000000000000000E0,1.00000000000000000E0),.UNSPECIFIED.);
#359=DEFINITIONAL_REPRESENTATION('',(#358),#157);
#360=PCURVE('',#87,#359);
#361=CARTESIAN_POINT('',(1.00000000000000000E0,1.00000000000000000E0));
#362=CARTESIAN_POINT('',(0.00000000000000000E0,1.00000000000000000E0));
#363=CARTESIAN_POINT('',(0.00000000000000000E0,0.00000000000000000E0));
#364=(BOUNDED_CURVE()B_SPLINE_CURVE(2,(#361,#362,#363),.UNSPECIFIED.,.F.,.F.)B_SPLINE_CURVE_WITH_KNOTS((3,3),(0.00000000000000000E0,1.00000000000000000E0),.UNSPECIFIED.)CURVE()GEOMETRIC_REPRESENTATION_ITEM()RATIONAL_B_SPLINE_CURVE((1.00000000000000000E0,7.07106781186547573E-1,1.00000000000000000E0))REPRESENTATION_ITEM(''));
#365=DEFINITIONAL_REPRESENTATION('',(#364),#157);
#366=PCURVE('',#87,#365);
#367=CARTESIAN_POINT('',(0.00000000000000000E0,0.00000000000000000E0));
#368=CARTESIAN_POINT('',(1.00000000000000000E0,0.00000000000000000E0));
#369=B_SPLINE_CURVE_WITH_KNOTS('',1,(#367,#368),.UNSPECIFIED.,.F.,.F.,(2,2),(0.00000000000000000E0,1.00000000000000000E0),.UNSPECIFIED.);
#370=DEFINITIONAL_REPRESENTATION('',(#369),#157);
#371=PCURVE('',#87,#370);
#372=SURFACE_CURVE('',#90,(#162,#255),.PCURVE_S1.);
#373=EDGE_CURVE('OSCAD_TOPO/3|edge|e:604c74cd68c4608a6c50d82a00029151|7bcf27a46494faf50ede02bce16614e08ede65f6a60e1a31a384b8ef825d6abd',#2,#4,#372,.T.);
#374=SURFACE_CURVE('',#93,(#167,#275),.PCURVE_S1.);
#375=EDGE_CURVE('OSCAD_TOPO/3|edge|e:7da95d227398282e93977a8f353dccf0|56a418e8dd7da7fec54eabf4c0e9495498b51692492a879893df1e4aeb698913',#4,#6,#374,.T.);
#376=SURFACE_CURVE('',#97,(#173,#315),.PCURVE_S1.);
#377=EDGE_CURVE('OSCAD_TOPO/3|edge|e:7da9eee0bb0745fe1a6ae25ff63960fb|0fbcb8d42890f2165633138369dafa3950f1f70b56f18f6daf83e2e3c8e27b03',#6,#8,#376,.T.);
#378=SURFACE_CURVE('',#100,(#178,#280),.PCURVE_S1.);
#379=EDGE_CURVE('OSCAD_TOPO/3|edge|e:a60917264fcc37833a18f776985a97b3|ca87bb645abdfb817a8751ed6364c6baad0aac2b77b5aad3989e4251cb1fe2be',#10,#8,#378,.T.);
#380=SURFACE_CURVE('',#103,(#183,#208),.PCURVE_S1.);
#381=EDGE_CURVE('OSCAD_TOPO/3|edge|e:ce13f7759eeef20930ae5c771ff045a4|29fdb033b66c0f293f8af7e548e52f31b7c580e65620b77809c61ec7bf8d3365',#2,#10,#380,.T.);
#382=SURFACE_CURVE('',#106,(#188,#224),.PCURVE_S1.);
#383=EDGE_CURVE('OSCAD_TOPO/3|edge|e:76a5f40532453f1b1aec8e851ee83fed|978cd8d17d610d6a28086a1e92fe7f8cbbfa757e0c1dceb4429621c444b5ed23',#12,#14,#382,.T.);
#384=SURFACE_CURVE('',#109,(#193,#350),.PCURVE_S1.);
#385=EDGE_CURVE('OSCAD_TOPO/3|edge|e:ee57873bf0274f1150bfe22e9a980aaa|a51dd9ac374574921306623fb27a16b172dc2ffbce3b7382973a9ced3b1836ad',#16,#14,#384,.T.);
#386=SURFACE_CURVE('',#112,(#198,#325),.PCURVE_S1.);
#387=EDGE_CURVE('OSCAD_TOPO/3|edge|e:5a757926b78b89f424679ad41370bd4d|bc1d9f734f414a3ef70e7f9e9a2d226001c64147d2386349daacd31cb977fd83',#16,#18,#386,.T.);
#388=SURFACE_CURVE('',#115,(#203,#239),.PCURVE_S1.);
#389=EDGE_CURVE('OSCAD_TOPO/3|edge|e:1f51ec84ca2e662f7b5c399b0b5fb443|52c43c6de486e793659726621bd81a87c3b894ecd54ece7df173d1f4312fa65c',#12,#18,#388,.T.);
#390=SURFACE_CURVE('',#118,(#213,#295),.PCURVE_S1.);
#391=EDGE_CURVE('OSCAD_TOPO/3|edge|e:b187a4c598a838a73ae6e796b9afe472|005e2811b6b9ccdc29ac602e71f53eddd2d48c9237f535ee55f205cb2183be7e',#10,#20,#390,.T.);
#392=SURFACE_CURVE('',#122,(#219,#355),.PCURVE_S1.);
#393=EDGE_CURVE('OSCAD_TOPO/3|edge|e:da3c6ce4ec46ec9bd6789250e8e6e016|2677241149915ef7adaf7bb22d121be86f651f4112f3e3084d7eb88b710faf99',#20,#14,#392,.T.);
#394=SURFACE_CURVE('',#125,(#229,#234),.PCURVE_S1.);
#395=EDGE_CURVE('OSCAD_TOPO/3|edge|e:19273c07952cee73d70615d21c4183df|d730c379d02b735550e8f4617848e6d850eec34f5fcad36dc2db090e9c4df245',#2,#12,#394,.T.);
#396=SURFACE_CURVE('',#129,(#245,#320),.PCURVE_S1.);
#397=EDGE_CURVE('OSCAD_TOPO/3|edge|e:4f21263758436276af74f9eb4b1b6580|40317b4bd16b82216c9ad0a4e754401011b6ee5220b03e484bef2903446a3235',#22,#18,#396,.T.);
#398=SURFACE_CURVE('',#132,(#250,#260),.PCURVE_S1.);
#399=EDGE_CURVE('OSCAD_TOPO/3|edge|e:930fb6bbc20f251cc53132f089bed0ec|475d22501ca5d42e4770b1b06ce5afd19f92f5d41645c19a299775065db57c3d',#4,#22,#398,.T.);
#400=SURFACE_CURVE('',#135,(#265,#335),.PCURVE_S1.);
#401=EDGE_CURVE('OSCAD_TOPO/3|edge|e:c9c834ca126f66a629b79f48773fd8bb|7c9bf4d28cb8f97e58de25250d976ef75e8248e419ad6f14946b48925601a4c0',#24,#22,#400,.T.);
#402=SURFACE_CURVE('',#138,(#270,#300),.PCURVE_S1.);
#403=EDGE_CURVE('OSCAD_TOPO/3|edge|e:72d07bca2801780ce6b0cd3964636395|b41ceed03bb28dbd96c4eceb2f50e8bf4fa0422a53b3ef18a8d75f8f96359ef3',#6,#24,#402,.T.);
#404=SURFACE_CURVE('',#141,(#285,#310),.PCURVE_S1.);
#405=EDGE_CURVE('OSCAD_TOPO/3|edge|e:2b7b2b7b9b1f2d50ee3580139e686abc|52127ce842285b82a505b9f7600848bae5776db2443f4663ba4d942cc49cd285',#8,#26,#404,.T.);
#406=SURFACE_CURVE('',#144,(#290,#340),.PCURVE_S1.);
#407=EDGE_CURVE('OSCAD_TOPO/3|edge|e:2c31d15e3ec90496aa4691bd71ecb82d|296e17ef898dc9f0c262f47854a992db68e869386a5a9d0d995864de41cd724c',#26,#20,#406,.T.);
#408=SURFACE_CURVE('',#148,(#305,#366),.PCURVE_S1.);
#409=EDGE_CURVE('OSCAD_TOPO/3|edge|e:f0dba8876b074f7d70de7609f7813798|4125e28c6860ffdacab12fa962aaa31a892d8ab2f4bb6984e344647fc061895c',#24,#26,#408,.T.);
#410=SURFACE_CURVE('',#152,(#330,#371),.PCURVE_S1.);
#411=EDGE_CURVE('OSCAD_TOPO/3|edge|e:16ca4a3d451a1cd851b0a82e511d9081|707c600f02e432577c21e9e6c8b5b5f78daa86ddcf47c844848e851d24ebd80a',#24,#16,#410,.T.);
#412=SURFACE_CURVE('',#156,(#345,#360),.PCURVE_S1.);
#413=EDGE_CURVE('OSCAD_TOPO/3|edge|e:28d833755165482a10e8a2ef3a744d61|d97a6ace788b79a05eaaa4ccbdaa62a7dcd1b23a026cd258e35b43fa81cbf4aa',#26,#16,#412,.T.);
#414=ORIENTED_EDGE('',*,*,#373,.T.);
#415=ORIENTED_EDGE('',*,*,#375,.T.);
#416=ORIENTED_EDGE('',*,*,#377,.T.);
#417=ORIENTED_EDGE('',*,*,#379,.F.);
#418=ORIENTED_EDGE('',*,*,#381,.F.);
#419=EDGE_LOOP('OSCAD_TOPO/3|loop|l:f4f5203877dd4cb83128c804e36b3952|f5fdfc12c185924c7ab9244775c92c429c0a327d8eef0bbddfedda834bf31b15',(#414,#415,#416,#417,#418));
#420=ORIENTED_EDGE('',*,*,#383,.T.);
#421=ORIENTED_EDGE('',*,*,#385,.F.);
#422=ORIENTED_EDGE('',*,*,#387,.T.);
#423=ORIENTED_EDGE('',*,*,#389,.F.);
#424=EDGE_LOOP('OSCAD_TOPO/3|loop|l:a47437bd50cdea7082403e814ac27915|ac889ed5839ab0e0a82f108b3a4bc3b90a184c1aa1543fbeaf49a2ca25379fe4',(#420,#421,#422,#423));
#425=ORIENTED_EDGE('',*,*,#381,.T.);
#426=ORIENTED_EDGE('',*,*,#391,.T.);
#427=ORIENTED_EDGE('',*,*,#393,.T.);
#428=ORIENTED_EDGE('',*,*,#383,.F.);
#429=ORIENTED_EDGE('',*,*,#395,.F.);
#430=EDGE_LOOP('OSCAD_TOPO/3|loop|l:10c166f0b38724efa96f03da90c7b603|765e0efa0eca9411a2402e88cb864d8d312db15466a89c9191677face22da57d',(#425,#426,#427,#428,#429));
#431=ORIENTED_EDGE('',*,*,#395,.T.);
#432=ORIENTED_EDGE('',*,*,#389,.T.);
#433=ORIENTED_EDGE('',*,*,#397,.F.);
#434=ORIENTED_EDGE('',*,*,#399,.F.);
#435=ORIENTED_EDGE('',*,*,#373,.F.);
#436=EDGE_LOOP('OSCAD_TOPO/3|loop|l:8d70729ca41026f7a531c2ca184184c7|c33fad131a1b286308f1a5562b3486c2b885b27293bb1896f7440d4bb44723ca',(#431,#432,#433,#434,#435));
#437=ORIENTED_EDGE('',*,*,#399,.T.);
#438=ORIENTED_EDGE('',*,*,#401,.F.);
#439=ORIENTED_EDGE('',*,*,#403,.F.);
#440=ORIENTED_EDGE('',*,*,#375,.F.);
#441=EDGE_LOOP('OSCAD_TOPO/3|loop|l:d8e9534e964191426235a11458a64e76|a3d500f5595fad008fbe7cbc7b5879d65c8cfeb5e41b7ad24eb72561002408fd',(#437,#438,#439,#440));
#442=ORIENTED_EDGE('',*,*,#379,.T.);
#443=ORIENTED_EDGE('',*,*,#405,.T.);
#444=ORIENTED_EDGE('',*,*,#407,.T.);
#445=ORIENTED_EDGE('',*,*,#391,.F.);
#446=EDGE_LOOP('OSCAD_TOPO/3|loop|l:c66848199bce1837e828e71c3c7151e9|382c894205ab13ff14c4e849ae2023e39a16cd7af35ba8fbb6e1958a13aecbd6',(#442,#443,#444,#445));
#447=ORIENTED_EDGE('',*,*,#403,.T.);
#448=ORIENTED_EDGE('',*,*,#409,.T.);
#449=ORIENTED_EDGE('',*,*,#405,.F.);
#450=ORIENTED_EDGE('',*,*,#377,.F.);
#451=EDGE_LOOP('OSCAD_TOPO/3|loop|l:c09513a2a42c7bed853eeeb706c4a092|b06f831110072446ffb43846a4bde53724e35fe29d4d9edf68360731f020eac7',(#447,#448,#449,#450));
#452=ORIENTED_EDGE('',*,*,#397,.T.);
#453=ORIENTED_EDGE('',*,*,#387,.F.);
#454=ORIENTED_EDGE('',*,*,#411,.F.);
#455=ORIENTED_EDGE('',*,*,#401,.T.);
#456=EDGE_LOOP('OSCAD_TOPO/3|loop|l:066fdd3cc5d2117866f0e378097387c5|5bb8718c41b3d1550e94406b245e87f0d7bd9072f37b7a19204becf541a1ce47',(#452,#453,#454,#455));
#457=ORIENTED_EDGE('',*,*,#407,.F.);
#458=ORIENTED_EDGE('',*,*,#413,.T.);
#459=ORIENTED_EDGE('',*,*,#385,.T.);
#460=ORIENTED_EDGE('',*,*,#393,.F.);
#461=EDGE_LOOP('OSCAD_TOPO/3|loop|l:3729c64e183b9b61490c273ee943585f|ec15c306a48e3866708a1054107e7fb3f9a343dcb55c3d0d7dca5cb6a1bcebc8',(#457,#458,#459,#460));
#462=ORIENTED_EDGE('',*,*,#413,.F.);
#463=ORIENTED_EDGE('',*,*,#409,.F.);
#464=ORIENTED_EDGE('',*,*,#411,.T.);
#465=EDGE_LOOP('OSCAD_TOPO/3|loop|l:1a1f5c593b13b01a68f98454e0c64cd0|bfeacb944ae7b0653e83b330118494723347dddb9562246de7eb9d7ba445980d',(#462,#463,#464));
#466=FACE_OUTER_BOUND('',#419,.T.);
#467=ADVANCED_FACE('OSCAD_TOPO/3|face|f:56741f23cbcd4b4c17abfb000ee95877|c5a07a31f8a96fbcdefb4bfec2afb1ba7a12f87c4e8f2f46f5642f78d6679637',(#466),#31,.T.);
#468=FACE_OUTER_BOUND('',#424,.T.);
#469=ADVANCED_FACE('OSCAD_TOPO/3|face|f:16728cf0f6e43adbc23f2077c07bb7bb|dd6cb037ce4f2d52f37666c64191d2f58f6ed2e0c21dc2b328258d7e96dd128f',(#468),#36,.T.);
#470=FACE_OUTER_BOUND('',#430,.T.);
#471=ADVANCED_FACE('OSCAD_TOPO/3|face|f:ee841655df1450458325814fb3004531|e783bebfd6bb98ae6e89d009d144757c43462d81e49f4b8f3886c03b4e522048',(#470),#41,.T.);
#472=FACE_OUTER_BOUND('',#436,.T.);
#473=ADVANCED_FACE('OSCAD_TOPO/3|face|f:3d9b9a78097defc77e295e2d0eb7a43e|34db4d2795913fcbea2bc582e382412c38d2fe21351ea419a4dc7463a0c8ccb0',(#472),#46,.T.);
#474=FACE_OUTER_BOUND('',#441,.T.);
#475=ADVANCED_FACE('OSCAD_TOPO/3|face|f:b7973533344ee6b01e2df169277ebb6e|834ae865b210f977095d010ef3d6317c55f98d84f8b8bbd7c1c5b27600ecc4ba',(#474),#51,.T.);
#476=FACE_OUTER_BOUND('',#446,.T.);
#477=ADVANCED_FACE('OSCAD_TOPO/3|face|f:d1736160028fba2c06f3697e3e8cd658|9b655423564c4d6f69045d162d445a19b5d67cad036e2f33456e5658dcdd8127',(#476),#56,.T.);
#478=FACE_OUTER_BOUND('',#451,.T.);
#479=ADVANCED_FACE('OSCAD_TOPO/3|face|f:7712d8effc6c7a3b8d6335203b9dc9bd|1e540760c8d1315f35d976661c9c0465ad077dece952f9526e586cf390e2351b',(#478),#63,.T.);
#480=FACE_OUTER_BOUND('',#456,.T.);
#481=ADVANCED_FACE('OSCAD_TOPO/3|face|f:c36088de1924a33ab5b176f03e58831b|974e64baca767c74e1ef76556b683bc4f9daf10306d59f4208f15c88bd91eafb',(#480),#70,.T.);
#482=FACE_OUTER_BOUND('',#461,.T.);
#483=ADVANCED_FACE('OSCAD_TOPO/3|face|f:ee24589662c8fba3d983f2bb6c06bc07|25774f6c417b5144b8fafb34dc51c4e83694bb8b022fc20be31778d5d7b4d028',(#482),#77,.T.);
#484=FACE_OUTER_BOUND('',#465,.T.);
#485=ADVANCED_FACE('OSCAD_TOPO/3|face|f:a6f6e413d95971d1865c14482408e971|64714dd16f773f8d66a69127c15be9684551bac08eaba8ec4a9c731b632eef4e',(#484),#87,.T.);
#486=CLOSED_SHELL('OSCAD_TOPO/3|shell|s:da04aa93c431cc0979c754ec089843d3|8879e97bd985c8672a65d1e88cef59ef6af8f68b934b20d5ddec1e60bada5d66',(#467,#469,#471,#473,#475,#477,#479,#481,#483,#485));
#487=MANIFOLD_SOLID_BREP('OSCAD_TOPO/3|body|b:f6f173cfbb0a80b7108ccc33d9e70ee5|c87cab740251c5d49fa54b5674b0987e3033142a328b19383011e971fd0ccebb',#486);
#488=(LENGTH_UNIT()NAMED_UNIT(*)SI_UNIT(.MILLI.,.METRE.));
#489=UNCERTAINTY_MEASURE_WITH_UNIT(LENGTH_MEASURE(9.99999999999999955E-8),#488,'distance_accuracy_value','');
#490=(GEOMETRIC_REPRESENTATION_CONTEXT(3)GLOBAL_UNCERTAINTY_ASSIGNED_CONTEXT((#489))GLOBAL_UNIT_ASSIGNED_CONTEXT((#488))REPRESENTATION_CONTEXT('','3D'));
#491=ADVANCED_BREP_SHAPE_REPRESENTATION('',(#487),#490);
#492=APPLICATION_CONTEXT('managed model based 3d engineering');
#493=PRODUCT_CONTEXT('',#492,'mechanical');
#494=PRODUCT('model','model','',(#493));
#495=PRODUCT_DEFINITION_FORMATION('1','',#494);
#496=PRODUCT_DEFINITION_CONTEXT('part definition',#492,'design');
#497=PRODUCT_DEFINITION('design','',#495,#496);
#498=PRODUCT_DEFINITION_SHAPE('','',#497);
#499=SHAPE_DEFINITION_REPRESENTATION(#498,#491);
ENDSEC;
END-ISO-10303-21;
