ISO-10303-21;
HEADER;
FILE_DESCRIPTION(('OpenSCAD Viewer retained AP242 B-rep'),'2;1');
FILE_NAME('model.step','',(''),(''),'OpenSCAD Viewer','OpenSCAD Viewer','');
FILE_SCHEMA(('AP242_MANAGED_MODEL_BASED_3D_ENGINEERING_MIM_LF'));
ENDSEC;
DATA;
#1=CARTESIAN_POINT('',(2.90605352735681315E1,-8.44540487444005272E0,2.34857089269551800E1));
#2=VERTEX_POINT('OSCAD_TOPO/3|vertex|v:ae85a547cf9b73fb748c0653f6c2f822|7e6c2c54ab5ac20945536bad37b46d2eca9576df9bb65e15be75d73ed8e400ba',#1);
#3=CARTESIAN_POINT('',(2.19308763930766446E1,-1.20741738458446726E1,2.34857089269551800E1));
#4=VERTEX_POINT('OSCAD_TOPO/3|vertex|v:a51181a3a4462fd3c3cdda64b7e923de|59edc9eeb7ae974b34ff4f187f7ca8cd0ba78198ca5255ff3fd182c9c58498d9',#3);
#5=CARTESIAN_POINT('',(2.59993250014434771E1,-2.43086242941436570E0,3.08650226380548105E1));
#6=VERTEX_POINT('OSCAD_TOPO/3|vertex|v:1d85c3471b35e512eb7263d74f193213|20780615cfb68d31567f8a68ba5b49df69d912a16f5ad639409ca504b6f0abca',#5);
#7=CARTESIAN_POINT('',(2.70521984266857061E1,-4.49950565951950132E0,1.94364543665275775E1));
#8=VERTEX_POINT('OSCAD_TOPO/3|vertex|v:8bd6b18248df0f4f1ed561f9704cde93|0457e64a4a1e6270bc2ea972c3255f3256b2d6ab8311ae35268909f715e7573e',#7);
#9=CARTESIAN_POINT('',(1.91757871481644564E1,-6.66108564532155434E0,3.01270912669448450E1));
#10=VERTEX_POINT('OSCAD_TOPO/3|vertex|v:ce8614c63bbcbf89aa76b9de744475a8|17b2e1285048821cff324aad843b636678ccb77788677a0d54ec0960c6f9eee9',#9);
#11=CARTESIAN_POINT('',(1.97608734810134266E1,-5.60603527939340829E0,3.08650226380548105E1));
#12=VERTEX_POINT('OSCAD_TOPO/3|vertex|v:5b9b37f1fb964dd3310ecf0167f8e550|5bcaf3f2573b690f002eaf8958f37c85cfa2c9633748c158164de78c4e0fc7de',#11);
#13=CARTESIAN_POINT('',(1.75021731090957715E1,-3.37283629955442699E0,2.67527124665885090E1));
#14=VERTEX_POINT('OSCAD_TOPO/3|vertex|v:278329e2d96b239b5e0c6dcc830004d3|36cf6e3ce8ec16f974242184d3025d94edf9075d28d36f3afd72291b6e2662f4',#13);
#15=CARTESIAN_POINT('',(1.80872594419447417E1,-2.31778593362628094E0,2.74906438376984745E1));
#16=VERTEX_POINT('OSCAD_TOPO/3|vertex|v:abc6b6c70e3cfafced565449dad3b81c|b2d53367ae680dbeedb7c6ad25a28814d22e2e4c271e874bb59e64587377c619',#15);
#17=CARTESIAN_POINT('',(1.80586576613434708E1,-2.26159030897542435E0,2.60778367065172425E1));
#18=VERTEX_POINT('OSCAD_TOPO/3|vertex|v:65b8e1f2c6d28a310c3290f025398d7e|3681ae3a809461e18d4d097b693da71d33aa63dc924f920d06430f7bdb9d4ab6',#17);
#19=CARTESIAN_POINT('',(2.02572623540079597E1,-8.78592450007754522E0,2.01113301265988440E1));
#20=VERTEX_POINT('OSCAD_TOPO/3|vertex|v:254ce418149d920549447ae0bc042108|fd667a647bd139fec691005883a29620a347c366e06ec955f64c10e60d85c919',#19);
#21=CARTESIAN_POINT('',(2.08137469062556555E1,-7.67467850949854302E0,1.94364543665275775E1));
#22=VERTEX_POINT('OSCAD_TOPO/3|vertex|v:a5cea99bcb520e54d4fb5954499ab6e1|27972f00583fe06de97c079dfa1e2140fac2b8ed3ef16641d3d493ca87715dbd',#21);
#23=CARTESIAN_POINT('',(2.43257109623747922E1,8.57386916352761208E-1,2.74906438376984745E1));
#24=VERTEX_POINT('OSCAD_TOPO/3|vertex|v:4825a93440fe1a8443c350c1c21ebad6|fa37e36ca5aa01003558a31f25a4462e172e6373e259665d0bdd4bb99ec930bc',#23);
#25=CARTESIAN_POINT('',(2.42971091817735214E1,9.13582541003618243E-1,2.60778367065172425E1));
#26=VERTEX_POINT('OSCAD_TOPO/3|vertex|v:83917a53b28695a733b9967cfad582fa|69e9999f7294d40f345bea74d57fb61495350f98bbb4cc584572465b7e6da577',#25);
#27=CARTESIAN_POINT('',(2.19308763930766446E1,-1.20741738458446726E1,2.34857089269551800E1));
#28=CARTESIAN_POINT('',(1.88696661209519903E1,-6.05963140081898466E0,3.08650226380548105E1));
#29=CARTESIAN_POINT('',(2.90605352735681315E1,-8.44540487444005272E0,2.34857089269551800E1));
#30=CARTESIAN_POINT('',(2.59993250014434771E1,-2.43086242941436570E0,3.08650226380548105E1));
#31=B_SPLINE_SURFACE_WITH_KNOTS('',1,1,((#27,#28),(#29,#30)),.UNSPECIFIED.,.F.,.F.,.F.,(2,2),(2,2),(0.00000000000000000E0,1.00000000000000000E0),(0.00000000000000000E0,1.00000000000000000E0),.UNSPECIFIED.);
#32=CARTESIAN_POINT('',(2.70521984266857061E1,-4.49950565951950132E0,1.94364543665275775E1));
#33=CARTESIAN_POINT('',(2.39909881545610553E1,1.51503678550618659E0,2.68157680776272045E1));
#34=CARTESIAN_POINT('',(1.99225395461942227E1,-8.12827463092412117E0,1.94364543665275775E1));
#35=CARTESIAN_POINT('',(1.68613292740695684E1,-2.11373218589843281E0,2.68157680776272045E1));
#36=B_SPLINE_SURFACE_WITH_KNOTS('',1,1,((#32,#33),(#34,#35)),.UNSPECIFIED.,.F.,.F.,.F.,(2,2),(2,2),(0.00000000000000000E0,1.00000000000000000E0),(0.00000000000000000E0,1.00000000000000000E0),.UNSPECIFIED.);
#37=CARTESIAN_POINT('',(2.59993250014434771E1,-2.43086242941436570E0,3.08650226380548105E1));
#38=CARTESIAN_POINT('',(2.39909881545610553E1,1.51503678550618659E0,2.68157680776272045E1));
#39=CARTESIAN_POINT('',(2.90605352735681315E1,-8.44540487444005272E0,2.34857089269551800E1));
#40=CARTESIAN_POINT('',(2.70521984266857061E1,-4.49950565951950132E0,1.94364543665275775E1));
#41=B_SPLINE_SURFACE_WITH_KNOTS('',1,1,((#37,#38),(#39,#40)),.UNSPECIFIED.,.F.,.F.,.F.,(2,2),(2,2),(0.00000000000000000E0,1.00000000000000000E0),(0.00000000000000000E0,1.00000000000000000E0),.UNSPECIFIED.);
#42=CARTESIAN_POINT('',(2.90605352735681315E1,-8.44540487444005272E0,2.34857089269551800E1));
#43=CARTESIAN_POINT('',(2.70521984266857061E1,-4.49950565951950132E0,1.94364543665275775E1));
#44=CARTESIAN_POINT('',(2.19308763930766446E1,-1.20741738458446726E1,2.34857089269551800E1));
#45=CARTESIAN_POINT('',(1.99225395461942227E1,-8.12827463092412117E0,1.94364543665275775E1));
#46=B_SPLINE_SURFACE_WITH_KNOTS('',1,1,((#42,#43),(#44,#45)),.UNSPECIFIED.,.F.,.F.,.F.,(2,2),(2,2),(0.00000000000000000E0,1.00000000000000000E0),(0.00000000000000000E0,1.00000000000000000E0),.UNSPECIFIED.);
#47=CARTESIAN_POINT('',(2.19308763930766446E1,-1.20741738458446726E1,2.34857089269551800E1));
#48=CARTESIAN_POINT('',(1.99225395461942227E1,-8.12827463092412117E0,1.94364543665275775E1));
#49=CARTESIAN_POINT('',(1.88696661209519903E1,-6.05963140081898466E0,3.08650226380548105E1));
#50=CARTESIAN_POINT('',(1.68613292740695684E1,-2.11373218589843281E0,2.68157680776272045E1));
#51=B_SPLINE_SURFACE_WITH_KNOTS('',1,1,((#47,#48),(#49,#50)),.UNSPECIFIED.,.F.,.F.,.F.,(2,2),(2,2),(0.00000000000000000E0,1.00000000000000000E0),(0.00000000000000000E0,1.00000000000000000E0),.UNSPECIFIED.);
#52=CARTESIAN_POINT('',(1.88696661209519903E1,-6.05963140081898466E0,3.08650226380548105E1));
#53=CARTESIAN_POINT('',(1.68613292740695684E1,-2.11373218589843281E0,2.68157680776272045E1));
#54=CARTESIAN_POINT('',(2.59993250014434771E1,-2.43086242941436570E0,3.08650226380548105E1));
#55=CARTESIAN_POINT('',(2.39909881545610553E1,1.51503678550618659E0,2.68157680776272045E1));
#56=B_SPLINE_SURFACE_WITH_KNOTS('',1,1,((#52,#53),(#54,#55)),.UNSPECIFIED.,.F.,.F.,.F.,(2,2),(2,2),(0.00000000000000000E0,1.00000000000000000E0),(0.00000000000000000E0,1.00000000000000000E0),.UNSPECIFIED.);
#57=CARTESIAN_POINT('',(1.91757871481644564E1,-6.66108564532155434E0,3.01270912669448450E1));
#58=CARTESIAN_POINT('',(1.75021731090957715E1,-3.37283629955442699E0,2.67527124665885090E1));
#59=CARTESIAN_POINT('',(1.88696661209519903E1,-6.05963140081898466E0,3.08650226380548105E1));
#60=CARTESIAN_POINT('',(1.71960520818833054E1,-2.77138205505185820E0,2.74906438376984745E1));
#61=CARTESIAN_POINT('',(1.97608734810134266E1,-5.60603527939340829E0,3.08650226380548105E1));
#62=CARTESIAN_POINT('',(1.80872594419447417E1,-2.31778593362628094E0,2.74906438376984745E1));
#63=(BOUNDED_SURFACE()B_SPLINE_SURFACE(2,1,((#57,#58),(#59,#60),(#61,#62)),.UNSPECIFIED.,.F.,.F.,.F.)B_SPLINE_SURFACE_WITH_KNOTS((3,3),(2,2),(0.00000000000000000E0,1.00000000000000000E0),(0.00000000000000000E0,1.00000000000000000E0),.UNSPECIFIED.)GEOMETRIC_REPRESENTATION_ITEM()RATIONAL_B_SPLINE_SURFACE(((1.00000000000000000E0,1.00000000000000000E0),(7.07106781186547573E-1,7.07106781186547573E-1),(1.00000000000000000E0,1.00000000000000000E0)))REPRESENTATION_ITEM('')SURFACE());
#64=CARTESIAN_POINT('',(2.08137469062556555E1,-7.67467850949854302E0,1.94364543665275775E1));
#65=CARTESIAN_POINT('',(1.80586576613434708E1,-2.26159030897542435E0,2.60778367065172425E1));
#66=CARTESIAN_POINT('',(1.99225395461942227E1,-8.12827463092412117E0,1.94364543665275775E1));
#67=CARTESIAN_POINT('',(1.71674503012820345E1,-2.71518643040100160E0,2.60778367065172425E1));
#68=CARTESIAN_POINT('',(2.02572623540079597E1,-8.78592450007754522E0,2.01113301265988440E1));
#69=CARTESIAN_POINT('',(1.75021731090957715E1,-3.37283629955442699E0,2.67527124665885090E1));
#70=(BOUNDED_SURFACE()B_SPLINE_SURFACE(2,1,((#64,#65),(#66,#67),(#68,#69)),.UNSPECIFIED.,.F.,.F.,.F.)B_SPLINE_SURFACE_WITH_KNOTS((3,3),(2,2),(0.00000000000000000E0,1.00000000000000000E0),(0.00000000000000000E0,1.00000000000000000E0),.UNSPECIFIED.)GEOMETRIC_REPRESENTATION_ITEM()RATIONAL_B_SPLINE_SURFACE(((1.00000000000000000E0,1.00000000000000000E0),(1.00000000000000000E0,1.00000000000000000E0),(2.00000000000000000E0,2.00000000000000000E0)))REPRESENTATION_ITEM('')SURFACE());
#71=CARTESIAN_POINT('',(2.43257109623747922E1,8.57386916352761208E-1,2.74906438376984745E1));
#72=CARTESIAN_POINT('',(1.80872594419447417E1,-2.31778593362628094E0,2.74906438376984745E1));
#73=CARTESIAN_POINT('',(2.39909881545610553E1,1.51503678550618659E0,2.68157680776272045E1));
#74=CARTESIAN_POINT('',(1.77525366341310047E1,-1.66013606447285555E0,2.68157680776272045E1));
#75=CARTESIAN_POINT('',(2.42971091817735214E1,9.13582541003618243E-1,2.60778367065172425E1));
#76=CARTESIAN_POINT('',(1.80586576613434708E1,-2.26159030897542435E0,2.60778367065172425E1));
#77=(BOUNDED_SURFACE()B_SPLINE_SURFACE(2,1,((#71,#72),(#73,#74),(#75,#76)),.UNSPECIFIED.,.F.,.F.,.F.)B_SPLINE_SURFACE_WITH_KNOTS((3,3),(2,2),(0.00000000000000000E0,1.00000000000000000E0),(0.00000000000000000E0,1.00000000000000000E0),.UNSPECIFIED.)GEOMETRIC_REPRESENTATION_ITEM()RATIONAL_B_SPLINE_SURFACE(((2.00000000000000000E0,2.00000000000000000E0),(1.00000000000000000E0,1.00000000000000000E0),(1.00000000000000000E0,1.00000000000000000E0)))REPRESENTATION_ITEM('')SURFACE());
#78=CARTESIAN_POINT('',(1.80586576613434708E1,-2.26159030897542435E0,2.60778367065172425E1));
#79=CARTESIAN_POINT('',(1.77525366341310047E1,-1.66013606447285555E0,2.68157680776272045E1));
#80=CARTESIAN_POINT('',(1.80872594419447417E1,-2.31778593362628094E0,2.74906438376984745E1));
#81=CARTESIAN_POINT('',(1.71674503012820345E1,-2.71518643040100160E0,2.60778367065172425E1));
#82=CARTESIAN_POINT('',(1.68613292740695684E1,-2.11373218589843281E0,2.68157680776272045E1));
#83=CARTESIAN_POINT('',(1.76416557619140235E1,-2.54458399433906957E0,2.74906438376984745E1));
#84=CARTESIAN_POINT('',(1.75021731090957715E1,-3.37283629955442699E0,2.67527124665885090E1));
#85=CARTESIAN_POINT('',(1.73491125954895402E1,-3.07210917730314259E0,2.71216781521434918E1));
#86=CARTESIAN_POINT('',(1.77067358135791864E1,-3.03988471912866398E0,2.74696253006855748E1));
#87=(BOUNDED_SURFACE()B_SPLINE_SURFACE(2,2,((#78,#79,#80),(#81,#82,#83),(#84,#85,#86)),.UNSPECIFIED.,.F.,.F.,.F.)B_SPLINE_SURFACE_WITH_KNOTS((3,3),(3,3),(0.00000000000000000E0,1.00000000000000000E0),(0.00000000000000000E0,1.00000000000000000E0),.UNSPECIFIED.)GEOMETRIC_REPRESENTATION_ITEM()RATIONAL_B_SPLINE_SURFACE(((1.00000000000000000E0,1.00000000000000000E0,2.00000000000000000E0),(1.00000000000000000E0,1.00000000000000000E0,2.00000000000000000E0),(2.00000000000000000E0,2.00000000000000000E0,3.00000000000000000E0)))REPRESENTATION_ITEM('')SURFACE());
#88=CARTESIAN_POINT('',(2.90605352735681315E1,-8.44540487444005272E0,2.34857089269551800E1));
#89=CARTESIAN_POINT('',(2.19308763930766446E1,-1.20741738458446726E1,2.34857089269551800E1));
#90=B_SPLINE_CURVE_WITH_KNOTS('',1,(#88,#89),.UNSPECIFIED.,.F.,.F.,(2,2),(0.00000000000000000E0,1.00000000000000000E0),.UNSPECIFIED.);
#91=CARTESIAN_POINT('',(2.19308763930766446E1,-1.20741738458446726E1,2.34857089269551800E1));
#92=CARTESIAN_POINT('',(1.91757871481644564E1,-6.66108564532155434E0,3.01270912669448450E1));
#93=B_SPLINE_CURVE_WITH_KNOTS('',1,(#91,#92),.UNSPECIFIED.,.F.,.F.,(2,2),(0.00000000000000000E0,1.00000000000000000E0),.UNSPECIFIED.);
#94=CARTESIAN_POINT('',(2.59993250014434771E1,-2.43086242941436570E0,3.08650226380548105E1));
#95=CARTESIAN_POINT('',(1.97608734810134266E1,-5.60603527939340829E0,3.08650226380548105E1));
#96=B_SPLINE_CURVE_WITH_KNOTS('',1,(#94,#95),.UNSPECIFIED.,.F.,.F.,(2,2),(0.00000000000000000E0,1.00000000000000000E0),.UNSPECIFIED.);
#97=CARTESIAN_POINT('',(2.90605352735681315E1,-8.44540487444005272E0,2.34857089269551800E1));
#98=CARTESIAN_POINT('',(2.59993250014434771E1,-2.43086242941436570E0,3.08650226380548105E1));
#99=B_SPLINE_CURVE_WITH_KNOTS('',1,(#97,#98),.UNSPECIFIED.,.F.,.F.,(2,2),(0.00000000000000000E0,1.00000000000000000E0),.UNSPECIFIED.);
#100=CARTESIAN_POINT('',(2.90605352735681315E1,-8.44540487444005272E0,2.34857089269551800E1));
#101=CARTESIAN_POINT('',(2.70521984266857061E1,-4.49950565951950132E0,1.94364543665275775E1));
#102=B_SPLINE_CURVE_WITH_KNOTS('',1,(#100,#101),.UNSPECIFIED.,.F.,.F.,(2,2),(0.00000000000000000E0,1.00000000000000000E0),.UNSPECIFIED.);
#103=CARTESIAN_POINT('',(2.19308763930766446E1,-1.20741738458446726E1,2.34857089269551800E1));
#104=CARTESIAN_POINT('',(2.02572623540079597E1,-8.78592450007754522E0,2.01113301265988440E1));
#105=B_SPLINE_CURVE_WITH_KNOTS('',1,(#103,#104),.UNSPECIFIED.,.F.,.F.,(2,2),(0.00000000000000000E0,1.00000000000000000E0),.UNSPECIFIED.);
#106=CARTESIAN_POINT('',(1.75021731090957715E1,-3.37283629955442699E0,2.67527124665885090E1));
#107=CARTESIAN_POINT('',(2.02572623540079597E1,-8.78592450007754522E0,2.01113301265988440E1));
#108=B_SPLINE_CURVE_WITH_KNOTS('',1,(#106,#107),.UNSPECIFIED.,.F.,.F.,(2,2),(0.00000000000000000E0,1.00000000000000000E0),.UNSPECIFIED.);
#109=CARTESIAN_POINT('',(1.91757871481644564E1,-6.66108564532155434E0,3.01270912669448450E1));
#110=CARTESIAN_POINT('',(1.75021731090957715E1,-3.37283629955442699E0,2.67527124665885090E1));
#111=B_SPLINE_CURVE_WITH_KNOTS('',1,(#109,#110),.UNSPECIFIED.,.F.,.F.,(2,2),(0.00000000000000000E0,1.00000000000000000E0),.UNSPECIFIED.);
#112=CARTESIAN_POINT('',(1.97608734810134266E1,-5.60603527939340829E0,3.08650226380548105E1));
#113=CARTESIAN_POINT('',(1.80872594419447417E1,-2.31778593362628094E0,2.74906438376984745E1));
#114=B_SPLINE_CURVE_WITH_KNOTS('',1,(#112,#113),.UNSPECIFIED.,.F.,.F.,(2,2),(0.00000000000000000E0,1.00000000000000000E0),.UNSPECIFIED.);
#115=CARTESIAN_POINT('',(2.59993250014434771E1,-2.43086242941436570E0,3.08650226380548105E1));
#116=CARTESIAN_POINT('',(2.43257109623747922E1,8.57386916352761208E-1,2.74906438376984745E1));
#117=B_SPLINE_CURVE_WITH_KNOTS('',1,(#115,#116),.UNSPECIFIED.,.F.,.F.,(2,2),(0.00000000000000000E0,1.00000000000000000E0),.UNSPECIFIED.);
#118=CARTESIAN_POINT('',(1.80872594419447417E1,-2.31778593362628094E0,2.74906438376984745E1));
#119=CARTESIAN_POINT('',(2.43257109623747922E1,8.57386916352761208E-1,2.74906438376984745E1));
#120=B_SPLINE_CURVE_WITH_KNOTS('',1,(#118,#119),.UNSPECIFIED.,.F.,.F.,(2,2),(0.00000000000000000E0,1.00000000000000000E0),.UNSPECIFIED.);
#121=CARTESIAN_POINT('',(2.70521984266857061E1,-4.49950565951950132E0,1.94364543665275775E1));
#122=CARTESIAN_POINT('',(2.08137469062556555E1,-7.67467850949854302E0,1.94364543665275775E1));
#123=B_SPLINE_CURVE_WITH_KNOTS('',1,(#121,#122),.UNSPECIFIED.,.F.,.F.,(2,2),(0.00000000000000000E0,1.00000000000000000E0),.UNSPECIFIED.);
#124=CARTESIAN_POINT('',(1.80586576613434708E1,-2.26159030897542435E0,2.60778367065172425E1));
#125=CARTESIAN_POINT('',(2.08137469062556555E1,-7.67467850949854302E0,1.94364543665275775E1));
#126=B_SPLINE_CURVE_WITH_KNOTS('',1,(#124,#125),.UNSPECIFIED.,.F.,.F.,(2,2),(0.00000000000000000E0,1.00000000000000000E0),.UNSPECIFIED.);
#127=CARTESIAN_POINT('',(2.70521984266857061E1,-4.49950565951950132E0,1.94364543665275775E1));
#128=CARTESIAN_POINT('',(2.42971091817735214E1,9.13582541003618243E-1,2.60778367065172425E1));
#129=B_SPLINE_CURVE_WITH_KNOTS('',1,(#127,#128),.UNSPECIFIED.,.F.,.F.,(2,2),(0.00000000000000000E0,1.00000000000000000E0),.UNSPECIFIED.);
#130=CARTESIAN_POINT('',(1.80586576613434708E1,-2.26159030897542435E0,2.60778367065172425E1));
#131=CARTESIAN_POINT('',(2.42971091817735214E1,9.13582541003618243E-1,2.60778367065172425E1));
#132=B_SPLINE_CURVE_WITH_KNOTS('',1,(#130,#131),.UNSPECIFIED.,.F.,.F.,(2,2),(0.00000000000000000E0,1.00000000000000000E0),.UNSPECIFIED.);
#133=CARTESIAN_POINT('',(1.91757871481644564E1,-6.66108564532155434E0,3.01270912669448450E1));
#134=CARTESIAN_POINT('',(1.88696661209519903E1,-6.05963140081898466E0,3.08650226380548105E1));
#135=CARTESIAN_POINT('',(1.97608734810134266E1,-5.60603527939340829E0,3.08650226380548105E1));
#136=(BOUNDED_CURVE()B_SPLINE_CURVE(2,(#133,#134,#135),.UNSPECIFIED.,.F.,.F.)B_SPLINE_CURVE_WITH_KNOTS((3,3),(0.00000000000000000E0,1.00000000000000000E0),.UNSPECIFIED.)CURVE()GEOMETRIC_REPRESENTATION_ITEM()RATIONAL_B_SPLINE_CURVE((1.00000000000000000E0,7.07106781186547573E-1,1.00000000000000000E0))REPRESENTATION_ITEM(''));
#137=CARTESIAN_POINT('',(1.75021731090957715E1,-3.37283629955442699E0,2.67527124665885090E1));
#138=CARTESIAN_POINT('',(1.71960520818833054E1,-2.77138205505185820E0,2.74906438376984745E1));
#139=CARTESIAN_POINT('',(1.80872594419447417E1,-2.31778593362628094E0,2.74906438376984745E1));
#140=(BOUNDED_CURVE()B_SPLINE_CURVE(2,(#137,#138,#139),.UNSPECIFIED.,.F.,.F.)B_SPLINE_CURVE_WITH_KNOTS((3,3),(0.00000000000000000E0,1.00000000000000000E0),.UNSPECIFIED.)CURVE()GEOMETRIC_REPRESENTATION_ITEM()RATIONAL_B_SPLINE_CURVE((1.00000000000000000E0,7.07106781186547573E-1,1.00000000000000000E0))REPRESENTATION_ITEM(''));
#141=CARTESIAN_POINT('',(1.75021731090957715E1,-3.37283629955442699E0,2.67527124665885090E1));
#142=CARTESIAN_POINT('',(1.71674503012820345E1,-2.71518643040100160E0,2.60778367065172425E1));
#143=CARTESIAN_POINT('',(1.80586576613434708E1,-2.26159030897542435E0,2.60778367065172425E1));
#144=(BOUNDED_CURVE()B_SPLINE_CURVE(2,(#141,#142,#143),.UNSPECIFIED.,.F.,.F.)B_SPLINE_CURVE_WITH_KNOTS((3,3),(0.00000000000000000E0,1.00000000000000000E0),.UNSPECIFIED.)CURVE()GEOMETRIC_REPRESENTATION_ITEM()RATIONAL_B_SPLINE_CURVE((2.00000000000000000E0,1.00000000000000000E0,1.00000000000000000E0))REPRESENTATION_ITEM(''));
#145=CARTESIAN_POINT('',(1.80872594419447417E1,-2.31778593362628094E0,2.74906438376984745E1));
#146=CARTESIAN_POINT('',(1.77525366341310047E1,-1.66013606447285555E0,2.68157680776272045E1));
#147=CARTESIAN_POINT('',(1.80586576613434708E1,-2.26159030897542435E0,2.60778367065172425E1));
#148=(BOUNDED_CURVE()B_SPLINE_CURVE(2,(#145,#146,#147),.UNSPECIFIED.,.F.,.F.)B_SPLINE_CURVE_WITH_KNOTS((3,3),(0.00000000000000000E0,1.00000000000000000E0),.UNSPECIFIED.)CURVE()GEOMETRIC_REPRESENTATION_ITEM()RATIONAL_B_SPLINE_CURVE((2.00000000000000000E0,1.00000000000000000E0,1.00000000000000000E0))REPRESENTATION_ITEM(''));
#149=CARTESIAN_POINT('',(2.02572623540079597E1,-8.78592450007754522E0,2.01113301265988440E1));
#150=CARTESIAN_POINT('',(1.99225395461942227E1,-8.12827463092412117E0,1.94364543665275775E1));
#151=CARTESIAN_POINT('',(2.08137469062556555E1,-7.67467850949854302E0,1.94364543665275775E1));
#152=(BOUNDED_CURVE()B_SPLINE_CURVE(2,(#149,#150,#151),.UNSPECIFIED.,.F.,.F.)B_SPLINE_CURVE_WITH_KNOTS((3,3),(0.00000000000000000E0,1.00000000000000000E0),.UNSPECIFIED.)CURVE()GEOMETRIC_REPRESENTATION_ITEM()RATIONAL_B_SPLINE_CURVE((2.00000000000000000E0,1.00000000000000000E0,1.00000000000000000E0))REPRESENTATION_ITEM(''));
#153=CARTESIAN_POINT('',(2.43257109623747922E1,8.57386916352761208E-1,2.74906438376984745E1));
#154=CARTESIAN_POINT('',(2.39909881545610553E1,1.51503678550618659E0,2.68157680776272045E1));
#155=CARTESIAN_POINT('',(2.42971091817735214E1,9.13582541003618243E-1,2.60778367065172425E1));
#156=(BOUNDED_CURVE()B_SPLINE_CURVE(2,(#153,#154,#155),.UNSPECIFIED.,.F.,.F.)B_SPLINE_CURVE_WITH_KNOTS((3,3),(0.00000000000000000E0,1.00000000000000000E0),.UNSPECIFIED.)CURVE()GEOMETRIC_REPRESENTATION_ITEM()RATIONAL_B_SPLINE_CURVE((2.00000000000000000E0,1.00000000000000000E0,1.00000000000000000E0))REPRESENTATION_ITEM(''));
#157=(GEOMETRIC_REPRESENTATION_CONTEXT(2)REPRESENTATION_CONTEXT('','2D'));
#158=CARTESIAN_POINT('',(1.00000000000000000E0,0.00000000000000000E0));
#159=CARTESIAN_POINT('',(1.00000000000000000E0,1.00000000000000000E0));
#160=B_SPLINE_CURVE_WITH_KNOTS('',1,(#158,#159),.UNSPECIFIED.,.F.,.F.,(2,2),(0.00000000000000000E0,1.00000000000000000E0),.UNSPECIFIED.);
#161=DEFINITIONAL_REPRESENTATION('',(#160),#157);
#162=PCURVE('',#31,#161);
#163=CARTESIAN_POINT('',(1.00000000000000000E0,1.00000000000000000E0));
#164=CARTESIAN_POINT('',(1.25000000000000000E-1,1.00000000000000000E0));
#165=B_SPLINE_CURVE_WITH_KNOTS('',1,(#163,#164),.UNSPECIFIED.,.F.,.F.,(2,2),(0.00000000000000000E0,1.00000000000000000E0),.UNSPECIFIED.);
#166=DEFINITIONAL_REPRESENTATION('',(#165),#157);
#167=PCURVE('',#31,#166);
#168=CARTESIAN_POINT('',(1.25000000000000000E-1,1.00000000000000000E0));
#169=CARTESIAN_POINT('',(0.00000000000000000E0,1.00000000000000000E0));
#170=CARTESIAN_POINT('',(0.00000000000000000E0,9.00000000000000022E-1));
#171=(BOUNDED_CURVE()B_SPLINE_CURVE(2,(#168,#169,#170),.UNSPECIFIED.,.F.,.F.)B_SPLINE_CURVE_WITH_KNOTS((3,3),(0.00000000000000000E0,1.00000000000000000E0),.UNSPECIFIED.)CURVE()GEOMETRIC_REPRESENTATION_ITEM()RATIONAL_B_SPLINE_CURVE((1.00000000000000000E0,7.07106781186547573E-1,1.00000000000000000E0))REPRESENTATION_ITEM(''));
#172=DEFINITIONAL_REPRESENTATION('',(#171),#157);
#173=PCURVE('',#31,#172);
#174=CARTESIAN_POINT('',(0.00000000000000000E0,9.00000000000000022E-1));
#175=CARTESIAN_POINT('',(0.00000000000000000E0,0.00000000000000000E0));
#176=B_SPLINE_CURVE_WITH_KNOTS('',1,(#174,#175),.UNSPECIFIED.,.F.,.F.,(2,2),(0.00000000000000000E0,1.00000000000000000E0),.UNSPECIFIED.);
#177=DEFINITIONAL_REPRESENTATION('',(#176),#157);
#178=PCURVE('',#31,#177);
#179=CARTESIAN_POINT('',(0.00000000000000000E0,0.00000000000000000E0));
#180=CARTESIAN_POINT('',(1.00000000000000000E0,0.00000000000000000E0));
#181=B_SPLINE_CURVE_WITH_KNOTS('',1,(#179,#180),.UNSPECIFIED.,.F.,.F.,(2,2),(0.00000000000000000E0,1.00000000000000000E0),.UNSPECIFIED.);
#182=DEFINITIONAL_REPRESENTATION('',(#181),#157);
#183=PCURVE('',#31,#182);
#184=CARTESIAN_POINT('',(0.00000000000000000E0,0.00000000000000000E0));
#185=CARTESIAN_POINT('',(8.75000000000000000E-1,0.00000000000000000E0));
#186=B_SPLINE_CURVE_WITH_KNOTS('',1,(#184,#185),.UNSPECIFIED.,.F.,.F.,(2,2),(0.00000000000000000E0,1.00000000000000000E0),.UNSPECIFIED.);
#187=DEFINITIONAL_REPRESENTATION('',(#186),#157);
#188=PCURVE('',#36,#187);
#189=CARTESIAN_POINT('',(8.75000000000000000E-1,0.00000000000000000E0));
#190=CARTESIAN_POINT('',(8.75000000000000000E-1,9.00000000000000022E-1));
#191=B_SPLINE_CURVE_WITH_KNOTS('',1,(#189,#190),.UNSPECIFIED.,.F.,.F.,(2,2),(0.00000000000000000E0,1.00000000000000000E0),.UNSPECIFIED.);
#192=DEFINITIONAL_REPRESENTATION('',(#191),#157);
#193=PCURVE('',#36,#192);
#194=CARTESIAN_POINT('',(8.75000000000000000E-1,9.00000000000000022E-1));
#195=CARTESIAN_POINT('',(0.00000000000000000E0,9.00000000000000022E-1));
#196=B_SPLINE_CURVE_WITH_KNOTS('',1,(#194,#195),.UNSPECIFIED.,.F.,.F.,(2,2),(0.00000000000000000E0,1.00000000000000000E0),.UNSPECIFIED.);
#197=DEFINITIONAL_REPRESENTATION('',(#196),#157);
#198=PCURVE('',#36,#197);
#199=CARTESIAN_POINT('',(0.00000000000000000E0,9.00000000000000022E-1));
#200=CARTESIAN_POINT('',(0.00000000000000000E0,0.00000000000000000E0));
#201=B_SPLINE_CURVE_WITH_KNOTS('',1,(#199,#200),.UNSPECIFIED.,.F.,.F.,(2,2),(0.00000000000000000E0,1.00000000000000000E0),.UNSPECIFIED.);
#202=DEFINITIONAL_REPRESENTATION('',(#201),#157);
#203=PCURVE('',#36,#202);
#204=CARTESIAN_POINT('',(1.00000000000000000E0,0.00000000000000000E0));
#205=CARTESIAN_POINT('',(1.00000000000000000E0,1.00000000000000000E0));
#206=B_SPLINE_CURVE_WITH_KNOTS('',1,(#204,#205),.UNSPECIFIED.,.F.,.F.,(2,2),(0.00000000000000000E0,1.00000000000000000E0),.UNSPECIFIED.);
#207=DEFINITIONAL_REPRESENTATION('',(#206),#157);
#208=PCURVE('',#41,#207);
#209=CARTESIAN_POINT('',(1.00000000000000000E0,1.00000000000000000E0));
#210=CARTESIAN_POINT('',(9.99999999999999778E-2,1.00000000000000000E0));
#211=B_SPLINE_CURVE_WITH_KNOTS('',1,(#209,#210),.UNSPECIFIED.,.F.,.F.,(2,2),(0.00000000000000000E0,1.00000000000000000E0),.UNSPECIFIED.);
#212=DEFINITIONAL_REPRESENTATION('',(#211),#157);
#213=PCURVE('',#41,#212);
#214=CARTESIAN_POINT('',(9.99999999999999778E-2,1.00000000000000000E0));
#215=CARTESIAN_POINT('',(0.00000000000000000E0,1.00000000000000000E0));
#216=CARTESIAN_POINT('',(0.00000000000000000E0,8.33333333333333370E-1));
#217=(BOUNDED_CURVE()B_SPLINE_CURVE(2,(#214,#215,#216),.UNSPECIFIED.,.F.,.F.)B_SPLINE_CURVE_WITH_KNOTS((3,3),(0.00000000000000000E0,1.00000000000000000E0),.UNSPECIFIED.)CURVE()GEOMETRIC_REPRESENTATION_ITEM()RATIONAL_B_SPLINE_CURVE((1.00000000000000000E0,1.00000000000000000E0,2.00000000000000000E0))REPRESENTATION_ITEM(''));
#218=DEFINITIONAL_REPRESENTATION('',(#217),#157);
#219=PCURVE('',#41,#218);
#220=CARTESIAN_POINT('',(0.00000000000000000E0,8.33333333333333370E-1));
#221=CARTESIAN_POINT('',(0.00000000000000000E0,0.00000000000000000E0));
#222=B_SPLINE_CURVE_WITH_KNOTS('',1,(#220,#221),.UNSPECIFIED.,.F.,.F.,(2,2),(0.00000000000000000E0,1.00000000000000000E0),.UNSPECIFIED.);
#223=DEFINITIONAL_REPRESENTATION('',(#222),#157);
#224=PCURVE('',#41,#223);
#225=CARTESIAN_POINT('',(0.00000000000000000E0,0.00000000000000000E0));
#226=CARTESIAN_POINT('',(1.00000000000000000E0,0.00000000000000000E0));
#227=B_SPLINE_CURVE_WITH_KNOTS('',1,(#225,#226),.UNSPECIFIED.,.F.,.F.,(2,2),(0.00000000000000000E0,1.00000000000000000E0),.UNSPECIFIED.);
#228=DEFINITIONAL_REPRESENTATION('',(#227),#157);
#229=PCURVE('',#41,#228);
#230=CARTESIAN_POINT('',(0.00000000000000000E0,0.00000000000000000E0));
#231=CARTESIAN_POINT('',(1.00000000000000000E0,0.00000000000000000E0));
#232=B_SPLINE_CURVE_WITH_KNOTS('',1,(#230,#231),.UNSPECIFIED.,.F.,.F.,(2,2),(0.00000000000000000E0,1.00000000000000000E0),.UNSPECIFIED.);
#233=DEFINITIONAL_REPRESENTATION('',(#232),#157);
#234=PCURVE('',#46,#233);
#235=CARTESIAN_POINT('',(1.00000000000000000E0,0.00000000000000000E0));
#236=CARTESIAN_POINT('',(1.00000000000000000E0,8.33333333333333370E-1));
#237=B_SPLINE_CURVE_WITH_KNOTS('',1,(#235,#236),.UNSPECIFIED.,.F.,.F.,(2,2),(0.00000000000000000E0,1.00000000000000000E0),.UNSPECIFIED.);
#238=DEFINITIONAL_REPRESENTATION('',(#237),#157);
#239=PCURVE('',#46,#238);
#240=CARTESIAN_POINT('',(1.00000000000000000E0,8.33333333333333370E-1));
#241=CARTESIAN_POINT('',(1.00000000000000000E0,1.00000000000000000E0));
#242=CARTESIAN_POINT('',(8.75000000000000000E-1,1.00000000000000000E0));
#243=(BOUNDED_CURVE()B_SPLINE_CURVE(2,(#240,#241,#242),.UNSPECIFIED.,.F.,.F.)B_SPLINE_CURVE_WITH_KNOTS((3,3),(0.00000000000000000E0,1.00000000000000000E0),.UNSPECIFIED.)CURVE()GEOMETRIC_REPRESENTATION_ITEM()RATIONAL_B_SPLINE_CURVE((2.00000000000000000E0,1.00000000000000000E0,1.00000000000000000E0))REPRESENTATION_ITEM(''));
#244=DEFINITIONAL_REPRESENTATION('',(#243),#157);
#245=PCURVE('',#46,#244);
#246=CARTESIAN_POINT('',(8.75000000000000000E-1,1.00000000000000000E0));
#247=CARTESIAN_POINT('',(0.00000000000000000E0,1.00000000000000000E0));
#248=B_SPLINE_CURVE_WITH_KNOTS('',1,(#246,#247),.UNSPECIFIED.,.F.,.F.,(2,2),(0.00000000000000000E0,1.00000000000000000E0),.UNSPECIFIED.);
#249=DEFINITIONAL_REPRESENTATION('',(#248),#157);
#250=PCURVE('',#46,#249);
#251=CARTESIAN_POINT('',(0.00000000000000000E0,1.00000000000000000E0));
#252=CARTESIAN_POINT('',(0.00000000000000000E0,0.00000000000000000E0));
#253=B_SPLINE_CURVE_WITH_KNOTS('',1,(#251,#252),.UNSPECIFIED.,.F.,.F.,(2,2),(0.00000000000000000E0,1.00000000000000000E0),.UNSPECIFIED.);
#254=DEFINITIONAL_REPRESENTATION('',(#253),#157);
#255=PCURVE('',#46,#254);
#256=CARTESIAN_POINT('',(0.00000000000000000E0,0.00000000000000000E0));
#257=CARTESIAN_POINT('',(9.00000000000000022E-1,0.00000000000000000E0));
#258=B_SPLINE_CURVE_WITH_KNOTS('',1,(#256,#257),.UNSPECIFIED.,.F.,.F.,(2,2),(0.00000000000000000E0,1.00000000000000000E0),.UNSPECIFIED.);
#259=DEFINITIONAL_REPRESENTATION('',(#258),#157);
#260=PCURVE('',#51,#259);
#261=CARTESIAN_POINT('',(9.00000000000000022E-1,0.00000000000000000E0));
#262=CARTESIAN_POINT('',(9.00000000000000022E-1,8.33333333333333370E-1));
#263=B_SPLINE_CURVE_WITH_KNOTS('',1,(#261,#262),.UNSPECIFIED.,.F.,.F.,(2,2),(0.00000000000000000E0,1.00000000000000000E0),.UNSPECIFIED.);
#264=DEFINITIONAL_REPRESENTATION('',(#263),#157);
#265=PCURVE('',#51,#264);
#266=CARTESIAN_POINT('',(9.00000000000000022E-1,8.33333333333333370E-1));
#267=CARTESIAN_POINT('',(0.00000000000000000E0,8.33333333333333370E-1));
#268=B_SPLINE_CURVE_WITH_KNOTS('',1,(#266,#267),.UNSPECIFIED.,.F.,.F.,(2,2),(0.00000000000000000E0,1.00000000000000000E0),.UNSPECIFIED.);
#269=DEFINITIONAL_REPRESENTATION('',(#268),#157);
#270=PCURVE('',#51,#269);
#271=CARTESIAN_POINT('',(0.00000000000000000E0,8.33333333333333370E-1));
#272=CARTESIAN_POINT('',(0.00000000000000000E0,0.00000000000000000E0));
#273=B_SPLINE_CURVE_WITH_KNOTS('',1,(#271,#272),.UNSPECIFIED.,.F.,.F.,(2,2),(0.00000000000000000E0,1.00000000000000000E0),.UNSPECIFIED.);
#274=DEFINITIONAL_REPRESENTATION('',(#273),#157);
#275=PCURVE('',#51,#274);
#276=CARTESIAN_POINT('',(1.00000000000000000E0,0.00000000000000000E0));
#277=CARTESIAN_POINT('',(1.00000000000000000E0,8.33333333333333370E-1));
#278=B_SPLINE_CURVE_WITH_KNOTS('',1,(#276,#277),.UNSPECIFIED.,.F.,.F.,(2,2),(0.00000000000000000E0,1.00000000000000000E0),.UNSPECIFIED.);
#279=DEFINITIONAL_REPRESENTATION('',(#278),#157);
#280=PCURVE('',#56,#279);
#281=CARTESIAN_POINT('',(1.00000000000000000E0,8.33333333333333370E-1));
#282=CARTESIAN_POINT('',(1.25000000000000000E-1,8.33333333333333370E-1));
#283=B_SPLINE_CURVE_WITH_KNOTS('',1,(#281,#282),.UNSPECIFIED.,.F.,.F.,(2,2),(0.00000000000000000E0,1.00000000000000000E0),.UNSPECIFIED.);
#284=DEFINITIONAL_REPRESENTATION('',(#283),#157);
#285=PCURVE('',#56,#284);
#286=CARTESIAN_POINT('',(1.25000000000000000E-1,8.33333333333333370E-1));
#287=CARTESIAN_POINT('',(1.25000000000000000E-1,0.00000000000000000E0));
#288=B_SPLINE_CURVE_WITH_KNOTS('',1,(#286,#287),.UNSPECIFIED.,.F.,.F.,(2,2),(0.00000000000000000E0,1.00000000000000000E0),.UNSPECIFIED.);
#289=DEFINITIONAL_REPRESENTATION('',(#288),#157);
#290=PCURVE('',#56,#289);
#291=CARTESIAN_POINT('',(1.25000000000000000E-1,0.00000000000000000E0));
#292=CARTESIAN_POINT('',(1.00000000000000000E0,0.00000000000000000E0));
#293=B_SPLINE_CURVE_WITH_KNOTS('',1,(#291,#292),.UNSPECIFIED.,.F.,.F.,(2,2),(0.00000000000000000E0,1.00000000000000000E0),.UNSPECIFIED.);
#294=DEFINITIONAL_REPRESENTATION('',(#293),#157);
#295=PCURVE('',#56,#294);
#296=CARTESIAN_POINT('',(0.00000000000000000E0,0.00000000000000000E0));
#297=CARTESIAN_POINT('',(1.00000000000000000E0,0.00000000000000000E0));
#298=B_SPLINE_CURVE_WITH_KNOTS('',1,(#296,#297),.UNSPECIFIED.,.F.,.F.,(2,2),(0.00000000000000000E0,1.00000000000000000E0),.UNSPECIFIED.);
#299=DEFINITIONAL_REPRESENTATION('',(#298),#157);
#300=PCURVE('',#63,#299);
#301=CARTESIAN_POINT('',(1.00000000000000000E0,0.00000000000000000E0));
#302=CARTESIAN_POINT('',(1.00000000000000000E0,1.00000000000000000E0));
#303=B_SPLINE_CURVE_WITH_KNOTS('',1,(#301,#302),.UNSPECIFIED.,.F.,.F.,(2,2),(0.00000000000000000E0,1.00000000000000000E0),.UNSPECIFIED.);
#304=DEFINITIONAL_REPRESENTATION('',(#303),#157);
#305=PCURVE('',#63,#304);
#306=CARTESIAN_POINT('',(1.00000000000000000E0,1.00000000000000000E0));
#307=CARTESIAN_POINT('',(0.00000000000000000E0,1.00000000000000000E0));
#308=B_SPLINE_CURVE_WITH_KNOTS('',1,(#306,#307),.UNSPECIFIED.,.F.,.F.,(2,2),(0.00000000000000000E0,1.00000000000000000E0),.UNSPECIFIED.);
#309=DEFINITIONAL_REPRESENTATION('',(#308),#157);
#310=PCURVE('',#63,#309);
#311=CARTESIAN_POINT('',(0.00000000000000000E0,1.00000000000000000E0));
#312=CARTESIAN_POINT('',(0.00000000000000000E0,0.00000000000000000E0));
#313=B_SPLINE_CURVE_WITH_KNOTS('',1,(#311,#312),.UNSPECIFIED.,.F.,.F.,(2,2),(0.00000000000000000E0,1.00000000000000000E0),.UNSPECIFIED.);
#314=DEFINITIONAL_REPRESENTATION('',(#313),#157);
#315=PCURVE('',#63,#314);
#316=CARTESIAN_POINT('',(1.00000000000000000E0,0.00000000000000000E0));
#317=CARTESIAN_POINT('',(1.00000000000000000E0,1.00000000000000000E0));
#318=B_SPLINE_CURVE_WITH_KNOTS('',1,(#316,#317),.UNSPECIFIED.,.F.,.F.,(2,2),(0.00000000000000000E0,1.00000000000000000E0),.UNSPECIFIED.);
#319=DEFINITIONAL_REPRESENTATION('',(#318),#157);
#320=PCURVE('',#70,#319);
#321=CARTESIAN_POINT('',(1.00000000000000000E0,1.00000000000000000E0));
#322=CARTESIAN_POINT('',(0.00000000000000000E0,1.00000000000000000E0));
#323=B_SPLINE_CURVE_WITH_KNOTS('',1,(#321,#322),.UNSPECIFIED.,.F.,.F.,(2,2),(0.00000000000000000E0,1.00000000000000000E0),.UNSPECIFIED.);
#324=DEFINITIONAL_REPRESENTATION('',(#323),#157);
#325=PCURVE('',#70,#324);
#326=CARTESIAN_POINT('',(0.00000000000000000E0,1.00000000000000000E0));
#327=CARTESIAN_POINT('',(0.00000000000000000E0,0.00000000000000000E0));
#328=B_SPLINE_CURVE_WITH_KNOTS('',1,(#326,#327),.UNSPECIFIED.,.F.,.F.,(2,2),(0.00000000000000000E0,1.00000000000000000E0),.UNSPECIFIED.);
#329=DEFINITIONAL_REPRESENTATION('',(#328),#157);
#330=PCURVE('',#70,#329);
#331=CARTESIAN_POINT('',(0.00000000000000000E0,0.00000000000000000E0));
#332=CARTESIAN_POINT('',(1.00000000000000000E0,0.00000000000000000E0));
#333=B_SPLINE_CURVE_WITH_KNOTS('',1,(#331,#332),.UNSPECIFIED.,.F.,.F.,(2,2),(0.00000000000000000E0,1.00000000000000000E0),.UNSPECIFIED.);
#334=DEFINITIONAL_REPRESENTATION('',(#333),#157);
#335=PCURVE('',#70,#334);
#336=CARTESIAN_POINT('',(0.00000000000000000E0,0.00000000000000000E0));
#337=CARTESIAN_POINT('',(1.00000000000000000E0,0.00000000000000000E0));
#338=B_SPLINE_CURVE_WITH_KNOTS('',1,(#336,#337),.UNSPECIFIED.,.F.,.F.,(2,2),(0.00000000000000000E0,1.00000000000000000E0),.UNSPECIFIED.);
#339=DEFINITIONAL_REPRESENTATION('',(#338),#157);
#340=PCURVE('',#77,#339);
#341=CARTESIAN_POINT('',(1.00000000000000000E0,0.00000000000000000E0));
#342=CARTESIAN_POINT('',(1.00000000000000000E0,1.00000000000000000E0));
#343=B_SPLINE_CURVE_WITH_KNOTS('',1,(#341,#342),.UNSPECIFIED.,.F.,.F.,(2,2),(0.00000000000000000E0,1.00000000000000000E0),.UNSPECIFIED.);
#344=DEFINITIONAL_REPRESENTATION('',(#343),#157);
#345=PCURVE('',#77,#344);
#346=CARTESIAN_POINT('',(1.00000000000000000E0,1.00000000000000000E0));
#347=CARTESIAN_POINT('',(0.00000000000000000E0,1.00000000000000000E0));
#348=B_SPLINE_CURVE_WITH_KNOTS('',1,(#346,#347),.UNSPECIFIED.,.F.,.F.,(2,2),(0.00000000000000000E0,1.00000000000000000E0),.UNSPECIFIED.);
#349=DEFINITIONAL_REPRESENTATION('',(#348),#157);
#350=PCURVE('',#77,#349);
#351=CARTESIAN_POINT('',(0.00000000000000000E0,1.00000000000000000E0));
#352=CARTESIAN_POINT('',(0.00000000000000000E0,0.00000000000000000E0));
#353=B_SPLINE_CURVE_WITH_KNOTS('',1,(#351,#352),.UNSPECIFIED.,.F.,.F.,(2,2),(0.00000000000000000E0,1.00000000000000000E0),.UNSPECIFIED.);
#354=DEFINITIONAL_REPRESENTATION('',(#353),#157);
#355=PCURVE('',#77,#354);
#356=CARTESIAN_POINT('',(0.00000000000000000E0,0.00000000000000000E0));
#357=CARTESIAN_POINT('',(1.00000000000000000E0,0.00000000000000000E0));
#358=B_SPLINE_CURVE_WITH_KNOTS('',1,(#356,#357),.UNSPECIFIED.,.F.,.F.,(2,2),(0.00000000000000000E0,1.00000000000000000E0),.UNSPECIFIED.);
#359=DEFINITIONAL_REPRESENTATION('',(#358),#157);
#360=PCURVE('',#87,#359);
#361=CARTESIAN_POINT('',(1.00000000000000000E0,0.00000000000000000E0));
#362=CARTESIAN_POINT('',(1.00000000000000000E0,1.00000000000000000E0));
#363=CARTESIAN_POINT('',(0.00000000000000000E0,1.00000000000000000E0));
#364=(BOUNDED_CURVE()B_SPLINE_CURVE(2,(#361,#362,#363),.UNSPECIFIED.,.F.,.F.)B_SPLINE_CURVE_WITH_KNOTS((3,3),(0.00000000000000000E0,1.00000000000000000E0),.UNSPECIFIED.)CURVE()GEOMETRIC_REPRESENTATION_ITEM()RATIONAL_B_SPLINE_CURVE((1.00000000000000000E0,7.07106781186547573E-1,1.00000000000000000E0))REPRESENTATION_ITEM(''));
#365=DEFINITIONAL_REPRESENTATION('',(#364),#157);
#366=PCURVE('',#87,#365);
#367=CARTESIAN_POINT('',(0.00000000000000000E0,1.00000000000000000E0));
#368=CARTESIAN_POINT('',(0.00000000000000000E0,0.00000000000000000E0));
#369=B_SPLINE_CURVE_WITH_KNOTS('',1,(#367,#368),.UNSPECIFIED.,.F.,.F.,(2,2),(0.00000000000000000E0,1.00000000000000000E0),.UNSPECIFIED.);
#370=DEFINITIONAL_REPRESENTATION('',(#369),#157);
#371=PCURVE('',#87,#370);
#372=SURFACE_CURVE('',#90,(#183,#234),.PCURVE_S1.);
#373=EDGE_CURVE('OSCAD_TOPO/3|edge|e:0d1c8a88b74115326a3d2ac044e6482a|1a935dea5061d2f80783e16e78e3ab55a6f0a23baad135563f2bfd808515f660',#2,#4,#372,.T.);
#374=SURFACE_CURVE('',#93,(#178,#260),.PCURVE_S1.);
#375=EDGE_CURVE('OSCAD_TOPO/3|edge|e:7b79b998f271bfdcb0cf626c8680863d|633798e74a9ca683455d485dd33c88513b7b67e69327bfcab8ceb73f09ec9d6a',#4,#10,#374,.T.);
#376=SURFACE_CURVE('',#96,(#167,#295),.PCURVE_S1.);
#377=EDGE_CURVE('OSCAD_TOPO/3|edge|e:2fbb98764df6ec5a7819b3116e75ec82|bef90e24502d93554e2b8d524b224f7ee41088f21cceaf612b6864f7aa5d2d5d',#6,#12,#376,.T.);
#378=SURFACE_CURVE('',#99,(#162,#229),.PCURVE_S1.);
#379=EDGE_CURVE('OSCAD_TOPO/3|edge|e:930a76a5b128523ed3d68b4e1f6f1b4d|1d73a1fc7ed066622fd3fc7076cf23fcaaa0cc818cda2214018a615ffd7fdedb',#2,#6,#378,.T.);
#380=SURFACE_CURVE('',#102,(#208,#255),.PCURVE_S1.);
#381=EDGE_CURVE('OSCAD_TOPO/3|edge|e:9f0bb72f4933b36fc017f1b1771c2992|697c5d7ccf6d0df0d29c6ea7ee031174ef9f3429cce4f2ed69d67a48684be58c',#2,#8,#380,.T.);
#382=SURFACE_CURVE('',#105,(#239,#275),.PCURVE_S1.);
#383=EDGE_CURVE('OSCAD_TOPO/3|edge|e:681c92059f665aa662c4d56c22128d7c|124df057f648e7b4582245bbe8a90746c986e608dd2b85a5b26133b1babf8b9b',#4,#20,#382,.T.);
#384=SURFACE_CURVE('',#108,(#270,#320),.PCURVE_S1.);
#385=EDGE_CURVE('OSCAD_TOPO/3|edge|e:145d34e41cea19f945d8a7bc858452f9|da0dc2486ff0ac5062b246896f566b41a820316f38bb533b929cc5e3c32ff714',#14,#20,#384,.T.);
#386=SURFACE_CURVE('',#111,(#265,#315),.PCURVE_S1.);
#387=EDGE_CURVE('OSCAD_TOPO/3|edge|e:c3a4eddf112fc620b50b00db5ef9ee18|854eb70422db7d36b65a13a2e84035475494aa6700e97d11e4a6783f0ef5d10e',#10,#14,#386,.T.);
#388=SURFACE_CURVE('',#114,(#290,#305),.PCURVE_S1.);
#389=EDGE_CURVE('OSCAD_TOPO/3|edge|e:9f3960218ca42f1ee2f2f24baf79a602|731e149b509d94e5b2a9bd1f144473547011eb9f963162aa7c09bb10cd589189',#12,#16,#388,.T.);
#390=SURFACE_CURVE('',#117,(#224,#280),.PCURVE_S1.);
#391=EDGE_CURVE('OSCAD_TOPO/3|edge|e:17444101a0ee0dab1e4b66cf41d1950e|e388d70356c960a0cd4edb49871fe2cb06418fd589081deb30c91167905c4692',#6,#24,#390,.T.);
#392=SURFACE_CURVE('',#120,(#285,#355),.PCURVE_S1.);
#393=EDGE_CURVE('OSCAD_TOPO/3|edge|e:0a1579bc6131138ff9e007b4bb8c3f6e|a263adc92aface3947aea6c1600891d0c192fbe7c900fad0fbb9e94592387641',#16,#24,#392,.T.);
#394=SURFACE_CURVE('',#123,(#188,#250),.PCURVE_S1.);
#395=EDGE_CURVE('OSCAD_TOPO/3|edge|e:3f91e9ae73e5d2d437c754e805037a06|edc1fa456b9b159518fc03b2ca994b36d31334336f1550e5de52d46a8a87fda0',#8,#22,#394,.T.);
#396=SURFACE_CURVE('',#126,(#193,#330),.PCURVE_S1.);
#397=EDGE_CURVE('OSCAD_TOPO/3|edge|e:8c9a8b91aebfbe32b895c4fa59d695d8|1293dc4442c125cacd700aa64b5170286658ef1001616087cbdcf75ec43312e0',#18,#22,#396,.T.);
#398=SURFACE_CURVE('',#129,(#203,#213),.PCURVE_S1.);
#399=EDGE_CURVE('OSCAD_TOPO/3|edge|e:6685372683103ef766f59ff5463ed6f2|fc00412409b675711a6531ab5c1f2b6c029fa0f06b5bbdb8430f8c90a7b7c5ee',#8,#26,#398,.T.);
#400=SURFACE_CURVE('',#132,(#198,#345),.PCURVE_S1.);
#401=EDGE_CURVE('OSCAD_TOPO/3|edge|e:bac1b778aad4a383cb36b627ab225549|9c2812b816560c5b4504409e893567559ca90a789251a6ce3abad161578d9844',#18,#26,#400,.T.);
#402=SURFACE_CURVE('',#136,(#173,#300),.PCURVE_S1.);
#403=EDGE_CURVE('OSCAD_TOPO/3|edge|e:b6c88ad76d6ef2e6ba78d756925d39d2|7fb1bb77899574404c7397d90cbfc940afed01c27952e083bac40aa8c994d773',#10,#12,#402,.T.);
#404=SURFACE_CURVE('',#140,(#310,#366),.PCURVE_S1.);
#405=EDGE_CURVE('OSCAD_TOPO/3|edge|e:c667e1d51e489a2da18af792209b75c2|b539b4d078d55f0b820e7e79b2f50db468db523ca01229ad293284b4de42b8f5',#14,#16,#404,.T.);
#406=SURFACE_CURVE('',#144,(#325,#360),.PCURVE_S1.);
#407=EDGE_CURVE('OSCAD_TOPO/3|edge|e:d5013a32c5c98f8157927e7ee20516e5|14159b85c97a326ffa1210b2e65bd024e3f29548731c53ae28577b3c4b4a5afe',#14,#18,#406,.T.);
#408=SURFACE_CURVE('',#148,(#350,#371),.PCURVE_S1.);
#409=EDGE_CURVE('OSCAD_TOPO/3|edge|e:4d4c2ff4a15407a353587bc0114a1de1|f6b1ce11512b83e6843983cb2152cda0287eb39be3e57139c046894909384ac8',#16,#18,#408,.T.);
#410=SURFACE_CURVE('',#152,(#245,#335),.PCURVE_S1.);
#411=EDGE_CURVE('OSCAD_TOPO/3|edge|e:da537d00752fcf0a6023dd9664800160|0d32b014d16906aa58b43f8a2c28d68f92fdedcbfe2a94f70c8349dc80c364f1',#20,#22,#410,.T.);
#412=SURFACE_CURVE('',#156,(#219,#340),.PCURVE_S1.);
#413=EDGE_CURVE('OSCAD_TOPO/3|edge|e:3e6a99c71f2b7337501497bfe7155b6a|b5c5c0890b6975ba90dc80f8a9027f33150c5a7317a9916dc934156c965f41cf',#24,#26,#412,.T.);
#414=ORIENTED_EDGE('',*,*,#379,.T.);
#415=ORIENTED_EDGE('',*,*,#377,.T.);
#416=ORIENTED_EDGE('',*,*,#403,.F.);
#417=ORIENTED_EDGE('',*,*,#375,.F.);
#418=ORIENTED_EDGE('',*,*,#373,.F.);
#419=EDGE_LOOP('OSCAD_TOPO/3|loop|l:47536c6df0da933bdc6986c3d062eb36|c876fe86a5779d672541d0023baf7e92cffbba6d69be117728d8adef3a0bfb87',(#414,#415,#416,#417,#418));
#420=ORIENTED_EDGE('',*,*,#395,.T.);
#421=ORIENTED_EDGE('',*,*,#397,.F.);
#422=ORIENTED_EDGE('',*,*,#401,.T.);
#423=ORIENTED_EDGE('',*,*,#399,.F.);
#424=EDGE_LOOP('OSCAD_TOPO/3|loop|l:6afc099fbd35445c554b3f6ec2882163|b70d9addf372131bc5363aef46a8a76cbc4ae4cf96a3b50604aeea2ef3ea8924',(#420,#421,#422,#423));
#425=ORIENTED_EDGE('',*,*,#381,.T.);
#426=ORIENTED_EDGE('',*,*,#399,.T.);
#427=ORIENTED_EDGE('',*,*,#413,.F.);
#428=ORIENTED_EDGE('',*,*,#391,.F.);
#429=ORIENTED_EDGE('',*,*,#379,.F.);
#430=EDGE_LOOP('OSCAD_TOPO/3|loop|l:04130092c339a05d58170b66bb4b3a5b|fa7d229b0bb73071b638ba8d951c64c5738072d191f90574150d768c57770029',(#425,#426,#427,#428,#429));
#431=ORIENTED_EDGE('',*,*,#373,.T.);
#432=ORIENTED_EDGE('',*,*,#383,.T.);
#433=ORIENTED_EDGE('',*,*,#411,.T.);
#434=ORIENTED_EDGE('',*,*,#395,.F.);
#435=ORIENTED_EDGE('',*,*,#381,.F.);
#436=EDGE_LOOP('OSCAD_TOPO/3|loop|l:f922981ef54c7c37fc423400c93ba196|97dd67e036e787dc8e67977dc4e65b2a97d373340b4cb3c540bee7cf9714bee3',(#431,#432,#433,#434,#435));
#437=ORIENTED_EDGE('',*,*,#375,.T.);
#438=ORIENTED_EDGE('',*,*,#387,.T.);
#439=ORIENTED_EDGE('',*,*,#385,.T.);
#440=ORIENTED_EDGE('',*,*,#383,.F.);
#441=EDGE_LOOP('OSCAD_TOPO/3|loop|l:65b7f8058a6f9b0d95b584744549eb02|3ff5540aa68a5319e0fef3467d7344570c7e6d9666c6c49928c99c9a1c88e1bf',(#437,#438,#439,#440));
#442=ORIENTED_EDGE('',*,*,#391,.T.);
#443=ORIENTED_EDGE('',*,*,#393,.F.);
#444=ORIENTED_EDGE('',*,*,#389,.F.);
#445=ORIENTED_EDGE('',*,*,#377,.F.);
#446=EDGE_LOOP('OSCAD_TOPO/3|loop|l:3511cac4a05fa4e51546eefd9a63d7fb|048aee5e8f129b77dcf53258a249a3937482202c0c9c26453640a38aca1d43ba',(#442,#443,#444,#445));
#447=ORIENTED_EDGE('',*,*,#403,.T.);
#448=ORIENTED_EDGE('',*,*,#389,.T.);
#449=ORIENTED_EDGE('',*,*,#405,.F.);
#450=ORIENTED_EDGE('',*,*,#387,.F.);
#451=EDGE_LOOP('OSCAD_TOPO/3|loop|l:61ee04194d34449cecb2a815edc46719|56647b102b2fb8fb4b15ba254a711cd08b6570f12442fe52f3a07e132b0b77c0',(#447,#448,#449,#450));
#452=ORIENTED_EDGE('',*,*,#385,.F.);
#453=ORIENTED_EDGE('',*,*,#407,.T.);
#454=ORIENTED_EDGE('',*,*,#397,.T.);
#455=ORIENTED_EDGE('',*,*,#411,.F.);
#456=EDGE_LOOP('OSCAD_TOPO/3|loop|l:7679c08db9e39e1e7ccd2f9d7f399a69|cbc206f776512096dcc5e000ce3cf6ad241272d24db5d0608ce7f67bc6fb474c',(#452,#453,#454,#455));
#457=ORIENTED_EDGE('',*,*,#413,.T.);
#458=ORIENTED_EDGE('',*,*,#401,.F.);
#459=ORIENTED_EDGE('',*,*,#409,.F.);
#460=ORIENTED_EDGE('',*,*,#393,.T.);
#461=EDGE_LOOP('OSCAD_TOPO/3|loop|l:8473c4fd73b9421dd70876c579e257e4|abc6cf8708f71a78927e83fcb79bbd6ad6cde8ba112c51593a6f28a4ad91f5e6',(#457,#458,#459,#460));
#462=ORIENTED_EDGE('',*,*,#407,.F.);
#463=ORIENTED_EDGE('',*,*,#405,.T.);
#464=ORIENTED_EDGE('',*,*,#409,.T.);
#465=EDGE_LOOP('OSCAD_TOPO/3|loop|l:41547c5c25dd869a950aef4306b113a1|114ef5b9e103290e57c8feee66e27a25232fd5128a2ef5bd8e03dbd95763ab4e',(#462,#463,#464));
#466=FACE_OUTER_BOUND('',#419,.T.);
#467=ADVANCED_FACE('OSCAD_TOPO/3|face|f:2f8df9a8b082ebafa07c788d7645080b|1de7965f6caa7dbc08dea26d82442f58e69958e29bd2bff3ee0dba5a7913c761',(#466),#31,.T.);
#468=FACE_OUTER_BOUND('',#424,.T.);
#469=ADVANCED_FACE('OSCAD_TOPO/3|face|f:6a969c5c3c3b637e01875609b341cdee|ff356eff51c3f8caa6939bc3bd8d8064c2110464cc4445025f8759f95439c4d8',(#468),#36,.T.);
#470=FACE_OUTER_BOUND('',#430,.T.);
#471=ADVANCED_FACE('OSCAD_TOPO/3|face|f:39a80bb04f8c01eec0da1b6a16af5e97|c66bed11ef8b006743523b549cd887842a3be96d2582eb9a43e0162507e339ce',(#470),#41,.T.);
#472=FACE_OUTER_BOUND('',#436,.T.);
#473=ADVANCED_FACE('OSCAD_TOPO/3|face|f:439af84781082d9ce98983eb35df035b|e090673affd526a4d6bebe69c21b703d018c114e2e2b9b45fd4fd29a67de3381',(#472),#46,.T.);
#474=FACE_OUTER_BOUND('',#441,.T.);
#475=ADVANCED_FACE('OSCAD_TOPO/3|face|f:11b67abf73d002f3178a83b768954d32|bdaa948539039a4e2233809eb4bb9a4aa399d6971f0bbff73aa7345d6925336e',(#474),#51,.T.);
#476=FACE_OUTER_BOUND('',#446,.T.);
#477=ADVANCED_FACE('OSCAD_TOPO/3|face|f:0ecb62ebeb2cbc3c4eafac32b7f9d2a3|ae99100708ca7d5e636761b0e5be2a45c5f1b714aba88442bec2229783222154',(#476),#56,.T.);
#478=FACE_OUTER_BOUND('',#451,.T.);
#479=ADVANCED_FACE('OSCAD_TOPO/3|face|f:d5abdea1d9d42c3fe82cd69a98ee18d8|6f0345432835b6c8b1cdbefd757f81d4cfdb4bddf55b44380b1197fa2dfca8f1',(#478),#63,.T.);
#480=FACE_OUTER_BOUND('',#456,.T.);
#481=ADVANCED_FACE('OSCAD_TOPO/3|face|f:14f7ca9df512b314c45c4b94533c469d|22c43856f53bb0ca6cd2916f5dd9fb6519e82d12b1f8f5dec56063dede74e8b0',(#480),#70,.T.);
#482=FACE_OUTER_BOUND('',#461,.T.);
#483=ADVANCED_FACE('OSCAD_TOPO/3|face|f:11cedb30e4828dc878c6cf4fee660cef|7fbc3da80501cc6a01ebcc180c10925cca810264fcd521cd40d9fa51e15bbeaf',(#482),#77,.T.);
#484=FACE_OUTER_BOUND('',#465,.T.);
#485=ADVANCED_FACE('OSCAD_TOPO/3|face|f:0f50b4b634ce7e13aa9830b756a38b9a|0798c72147e7940a206cbd04aa9d989995f07db7f4d788108e4cf64ca5fdf530',(#484),#87,.T.);
#486=CLOSED_SHELL('OSCAD_TOPO/3|shell|s:4e6148de17c8c7a4c78c478dee5019d5|ab17621227859431bb1b598698ab6581e5ba2b2a41d91ea925aa25b0cd8fb8e3',(#467,#469,#471,#473,#475,#477,#479,#481,#483,#485));
#487=MANIFOLD_SOLID_BREP('OSCAD_TOPO/3|body|b:489792851ae84f70d2924bf9e08df6a7|26bd14e3e051859196e536f3821b6be82a0b571184624ff2107f7b393dcbff41',#486);
#488=(LENGTH_UNIT()NAMED_UNIT(*)SI_UNIT(.MILLI.,.METRE.));
#489=UNCERTAINTY_MEASURE_WITH_UNIT(LENGTH_MEASURE(9.99999999999999955E-8),#488,'distance_accuracy_value','');
#490=(GEOMETRIC_REPRESENTATION_CONTEXT(3)GLOBAL_UNCERTAINTY_ASSIGNED_CONTEXT((#489))GLOBAL_UNIT_ASSIGNED_CONTEXT((#488))REPRESENTATION_CONTEXT('','3D'));
#491=ADVANCED_BREP_SHAPE_REPRESENTATION('',(#487),#490);
#492=APPLICATION_CONTEXT('managed model based 3d engineering');
#493=PRODUCT_CONTEXT('',#492,'mechanical');
#494=PRODUCT('model','model','',(#493));
#495=PRODUCT_DEFINITION_FORMATION('1','',#494);
#496=PRODUCT_DEFINITION_CONTEXT('part definition',#492,'design');
#497=PRODUCT_DEFINITION('design','',#495,#496);
#498=PRODUCT_DEFINITION_SHAPE('','',#497);
#499=SHAPE_DEFINITION_REPRESENTATION(#498,#491);
ENDSEC;
END-ISO-10303-21;
