ISO-10303-21;
HEADER;
FILE_DESCRIPTION(('OpenSCAD Viewer retained AP242 B-rep'),'2;1');
FILE_NAME('model.step','',(''),(''),'OpenSCAD Viewer','OpenSCAD Viewer','');
FILE_SCHEMA(('AP242_MANAGED_MODEL_BASED_3D_ENGINEERING_MIM_LF'));
ENDSEC;
DATA;
#1=CARTESIAN_POINT('',(1.63829710277318945E1,2.55910834584944524E0,2.30793063446104867E1));
#2=VERTEX_POINT('OSCAD_TOPO/3|vertex|v:ac4c71c084712fe37181dd8281bc07ed|750e15020d398cd53e7a1208c9c093529010870513f0f6ed7592945931bbc5f2',#1);
#3=CARTESIAN_POINT('',(1.92758944834515908E1,-4.89951041899883144E0,2.30793063446104867E1));
#4=VERTEX_POINT('OSCAD_TOPO/3|vertex|v:abcff1dfa0fbaf69ff64c9d91ab5dc01|a2d8db8f8c41ac9a0e6378a1bb1b2b550649f461d2fd3833b4a43e4858ebbac1',#3);
#5=CARTESIAN_POINT('',(1.18251369405626363E1,-7.78938479631490743E0,1.74938486086307918E1));
#6=VERTEX_POINT('OSCAD_TOPO/3|vertex|v:ef7bbad1b0f71cf9bac280de720c7570|f62ac64a38f663c650d85c2d7ebaf074f5d755fc61192a9b019cbe00c2883ddc',#5);
#7=CARTESIAN_POINT('',(1.15436880173691137E1,-7.63040230292150312E0,1.73506317436056712E1));
#8=VERTEX_POINT('OSCAD_TOPO/3|vertex|v:a12625adbbd16efdd3ebb633e2c9e9d8|a4813d78648d0b5c2c1c4c5e5cb644caa955bc40faba7d617cc9d172c3b3a2a3',#7);
#9=CARTESIAN_POINT('',(8.74116841964065827E0,-4.04865374474734807E-1,1.73506317436056712E1));
#10=VERTEX_POINT('OSCAD_TOPO/3|vertex|v:98f4eeab216d3f70fd0ff6f03448f170|dd2ae368b086eeccc4848502225716eb22f7015d18cd7c3eb49f03045b9f2a0e',#9);
#11=CARTESIAN_POINT('',(1.31783710369745783E1,1.31616206159200821E0,2.79971944516833666E1));
#12=VERTEX_POINT('OSCAD_TOPO/3|vertex|v:8c1692e0289cf142c4fa57eb127efaf4|24134f9b6dc9d7a3aed810cb4d2e338c52b2fc1362b9ccc3b89953f4f7609543',#11);
#13=CARTESIAN_POINT('',(5.72761349408562204E0,-1.57371231572406778E0,2.24117367157036682E1));
#14=VERTEX_POINT('OSCAD_TOPO/3|vertex|v:2cb3e5bbc32a156468b1a5720ccb4d5b|6ff5efc17190413d228f60c942b2e1ac14d43405f08f15381a5848505c1a9c86',#13);
#15=CARTESIAN_POINT('',(8.53013309181407919E0,-8.79924924417083609E0,2.24117367157036682E1));
#16=VERTEX_POINT('OSCAD_TOPO/3|vertex|v:408e825076a3e21cd2f4d50b158f26d5|658d3929e6fae06c7813d9eda542b6d1a92dac5edf62ffd5e9e480ac1fdb8357',#15);
#17=CARTESIAN_POINT('',(1.59808906347030337E1,-5.90937486685476010E0,2.79971944516833666E1));
#18=VERTEX_POINT('OSCAD_TOPO/3|vertex|v:474209c07be1062ab31efadd096aa8eb|95988116b4936cf2e1f544010a81a26629bf6b67b8e29cbef9a009995ef3dad4',#17);
#19=CARTESIAN_POINT('',(1.62048194923091629E1,-6.09066727474554259E0,2.77922824472219965E1));
#20=VERTEX_POINT('OSCAD_TOPO/3|vertex|v:6836c402d4abad345f2cd9183739d247|674edc57a220d2520e90c688ca60a51d114c278f93d09b7117a176ca79119a8e',#19);
#21=CARTESIAN_POINT('',(5.67009342849822939E0,-1.59602223022144596E0,2.20636078462171774E1));
#22=VERTEX_POINT('OSCAD_TOPO/3|vertex|v:8f2f78244609ebfb8051831ddeb5e735|ed96be15436cd6358eeae0f00bd042075eb1f2574f204c151fd686a275f08790',#21);
#23=CARTESIAN_POINT('',(8.47261302622668566E0,-8.82155915866821339E0,2.20636078462171774E1));
#24=VERTEX_POINT('OSCAD_TOPO/3|vertex|v:868b45b115943446d2476b5ec5db7f7c|e8027fccb707d5c4fd49f7a8ea6269f8f278b7a189836652c01fe09ab988382f',#23);
#25=CARTESIAN_POINT('',(8.75406194942020655E0,-8.98054165206161770E0,2.22068247112422981E1));
#26=VERTEX_POINT('OSCAD_TOPO/3|vertex|v:a49fde0c48f6c9ddfb39d35876f8e673|ba376a70f239cacd6b4e620af30cb47ad3eb5d7a79644a666790f16bd62f4b44',#25);
#27=CARTESIAN_POINT('',(8.74116841964065827E0,-4.04865374474734807E-1,1.73506317436056712E1));
#28=CARTESIAN_POINT('',(1.16340918753603546E1,-7.86348413932301149E0,1.73506317436056712E1));
#29=CARTESIAN_POINT('',(1.63829710277318945E1,2.55910834584944524E0,2.30793063446104867E1));
#30=CARTESIAN_POINT('',(1.92758944834515908E1,-4.89951041899883144E0,2.30793063446104867E1));
#31=B_SPLINE_SURFACE_WITH_KNOTS('',1,1,((#27,#28),(#29,#30)),.UNSPECIFIED.,.F.,.F.,.F.,(2,2),(2,2),(0.00000000000000000E0,1.00000000000000000E0),(0.00000000000000000E0,1.00000000000000000E0),.UNSPECIFIED.);
#32=CARTESIAN_POINT('',(1.31783710369745783E1,1.31616206159200821E0,2.79971944516833666E1));
#33=CARTESIAN_POINT('',(1.60712944926942747E1,-6.14245670325626936E0,2.79971944516833666E1));
#34=CARTESIAN_POINT('',(5.53656842888334122E0,-1.64781165873217184E0,2.22685198506785476E1));
#35=CARTESIAN_POINT('',(8.42949188460303844E0,-9.10643042358044852E0,2.22685198506785476E1));
#36=B_SPLINE_SURFACE_WITH_KNOTS('',1,1,((#32,#33),(#34,#35)),.UNSPECIFIED.,.F.,.F.,.F.,(2,2),(2,2),(0.00000000000000000E0,1.00000000000000000E0),(0.00000000000000000E0,1.00000000000000000E0),.UNSPECIFIED.);
#37=CARTESIAN_POINT('',(1.92758944834515908E1,-4.89951041899883144E0,2.30793063446104867E1));
#38=CARTESIAN_POINT('',(1.60712944926942747E1,-6.14245670325626936E0,2.79971944516833666E1));
#39=CARTESIAN_POINT('',(1.63829710277318945E1,2.55910834584944524E0,2.30793063446104867E1));
#40=CARTESIAN_POINT('',(1.31783710369745783E1,1.31616206159200821E0,2.79971944516833666E1));
#41=B_SPLINE_SURFACE_WITH_KNOTS('',1,1,((#37,#38),(#39,#40)),.UNSPECIFIED.,.F.,.F.,.F.,(2,2),(2,2),(0.00000000000000000E0,1.00000000000000000E0),(0.00000000000000000E0,1.00000000000000000E0),.UNSPECIFIED.);
#42=CARTESIAN_POINT('',(1.63829710277318945E1,2.55910834584944524E0,2.30793063446104867E1));
#43=CARTESIAN_POINT('',(1.31783710369745783E1,1.31616206159200821E0,2.79971944516833666E1));
#44=CARTESIAN_POINT('',(8.74116841964065827E0,-4.04865374474734807E-1,1.73506317436056712E1));
#45=CARTESIAN_POINT('',(5.53656842888334122E0,-1.64781165873217184E0,2.22685198506785476E1));
#46=B_SPLINE_SURFACE_WITH_KNOTS('',1,1,((#42,#43),(#44,#45)),.UNSPECIFIED.,.F.,.F.,.F.,(2,2),(2,2),(0.00000000000000000E0,1.00000000000000000E0),(0.00000000000000000E0,1.00000000000000000E0),.UNSPECIFIED.);
#47=CARTESIAN_POINT('',(8.74116841964065827E0,-4.04865374474734807E-1,1.73506317436056712E1));
#48=CARTESIAN_POINT('',(5.53656842888334122E0,-1.64781165873217184E0,2.22685198506785476E1));
#49=CARTESIAN_POINT('',(1.16340918753603546E1,-7.86348413932301149E0,1.73506317436056712E1));
#50=CARTESIAN_POINT('',(8.42949188460303844E0,-9.10643042358044852E0,2.22685198506785476E1));
#51=B_SPLINE_SURFACE_WITH_KNOTS('',1,1,((#47,#48),(#49,#50)),.UNSPECIFIED.,.F.,.F.,.F.,(2,2),(2,2),(0.00000000000000000E0,1.00000000000000000E0),(0.00000000000000000E0,1.00000000000000000E0),.UNSPECIFIED.);
#52=CARTESIAN_POINT('',(1.16340918753603546E1,-7.86348413932301149E0,1.73506317436056712E1));
#53=CARTESIAN_POINT('',(8.42949188460303844E0,-9.10643042358044852E0,2.22685198506785476E1));
#54=CARTESIAN_POINT('',(1.92758944834515908E1,-4.89951041899883144E0,2.30793063446104867E1));
#55=CARTESIAN_POINT('',(1.60712944926942747E1,-6.14245670325626936E0,2.79971944516833666E1));
#56=B_SPLINE_SURFACE_WITH_KNOTS('',1,1,((#52,#53),(#54,#55)),.UNSPECIFIED.,.F.,.F.,.F.,(2,2),(2,2),(0.00000000000000000E0,1.00000000000000000E0),(0.00000000000000000E0,1.00000000000000000E0),.UNSPECIFIED.);
#57=CARTESIAN_POINT('',(1.15436880173691137E1,-7.63040230292150312E0,1.73506317436056712E1));
#58=CARTESIAN_POINT('',(8.47261302622668566E0,-8.82155915866821339E0,2.20636078462171774E1));
#59=CARTESIAN_POINT('',(1.16340918753603546E1,-7.86348413932301149E0,1.73506317436056712E1));
#60=CARTESIAN_POINT('',(8.56301688421792662E0,-9.05464099506972175E0,2.20636078462171774E1));
#61=CARTESIAN_POINT('',(1.18251369405626363E1,-7.78938479631490743E0,1.74938486086307918E1));
#62=CARTESIAN_POINT('',(8.75406194942020655E0,-8.98054165206161770E0,2.22068247112422981E1));
#63=(BOUNDED_SURFACE()B_SPLINE_SURFACE(2,1,((#57,#58),(#59,#60),(#61,#62)),.UNSPECIFIED.,.F.,.F.,.F.)B_SPLINE_SURFACE_WITH_KNOTS((3,3),(2,2),(0.00000000000000000E0,1.00000000000000000E0),(0.00000000000000000E0,1.00000000000000000E0),.UNSPECIFIED.)GEOMETRIC_REPRESENTATION_ITEM()RATIONAL_B_SPLINE_SURFACE(((1.00000000000000000E0,1.00000000000000000E0),(7.07106781186547573E-1,7.07106781186547573E-1),(1.00000000000000000E0,1.00000000000000000E0)))REPRESENTATION_ITEM('')SURFACE());
#64=CARTESIAN_POINT('',(5.72761349408562204E0,-1.57371231572406778E0,2.24117367157036682E1));
#65=CARTESIAN_POINT('',(8.53013309181407919E0,-8.79924924417083609E0,2.24117367157036682E1));
#66=CARTESIAN_POINT('',(5.53656842888334122E0,-1.64781165873217184E0,2.22685198506785476E1));
#67=CARTESIAN_POINT('',(8.33908802661179749E0,-8.87334858717894015E0,2.22685198506785476E1));
#68=CARTESIAN_POINT('',(5.67009342849822939E0,-1.59602223022144596E0,2.20636078462171774E1));
#69=CARTESIAN_POINT('',(8.47261302622668566E0,-8.82155915866821339E0,2.20636078462171774E1));
#70=(BOUNDED_SURFACE()B_SPLINE_SURFACE(2,1,((#64,#65),(#66,#67),(#68,#69)),.UNSPECIFIED.,.F.,.F.,.F.)B_SPLINE_SURFACE_WITH_KNOTS((3,3),(2,2),(0.00000000000000000E0,1.00000000000000000E0),(0.00000000000000000E0,1.00000000000000000E0),.UNSPECIFIED.)GEOMETRIC_REPRESENTATION_ITEM()RATIONAL_B_SPLINE_SURFACE(((1.00000000000000000E0,1.00000000000000000E0),(1.00000000000000000E0,1.00000000000000000E0),(2.00000000000000000E0,2.00000000000000000E0)))REPRESENTATION_ITEM('')SURFACE());
#71=CARTESIAN_POINT('',(1.62048194923091629E1,-6.09066727474554259E0,2.77922824472219965E1));
#72=CARTESIAN_POINT('',(8.75406194942020655E0,-8.98054165206161770E0,2.22068247112422981E1));
#73=CARTESIAN_POINT('',(1.60712944926942747E1,-6.14245670325626936E0,2.79971944516833666E1));
#74=CARTESIAN_POINT('',(8.62053694980531837E0,-9.03233108057234446E0,2.24117367157036682E1));
#75=CARTESIAN_POINT('',(1.59808906347030337E1,-5.90937486685476010E0,2.79971944516833666E1));
#76=CARTESIAN_POINT('',(8.53013309181407919E0,-8.79924924417083609E0,2.24117367157036682E1));
#77=(BOUNDED_SURFACE()B_SPLINE_SURFACE(2,1,((#71,#72),(#73,#74),(#75,#76)),.UNSPECIFIED.,.F.,.F.,.F.)B_SPLINE_SURFACE_WITH_KNOTS((3,3),(2,2),(0.00000000000000000E0,1.00000000000000000E0),(0.00000000000000000E0,1.00000000000000000E0),.UNSPECIFIED.)GEOMETRIC_REPRESENTATION_ITEM()RATIONAL_B_SPLINE_SURFACE(((2.00000000000000000E0,2.00000000000000000E0),(1.00000000000000000E0,1.00000000000000000E0),(1.00000000000000000E0,1.00000000000000000E0)))REPRESENTATION_ITEM('')SURFACE());
#78=CARTESIAN_POINT('',(8.53013309181407919E0,-8.79924924417083609E0,2.24117367157036682E1));
#79=CARTESIAN_POINT('',(8.62053694980531837E0,-9.03233108057234446E0,2.24117367157036682E1));
#80=CARTESIAN_POINT('',(8.75406194942020655E0,-8.98054165206161770E0,2.22068247112422981E1));
#81=CARTESIAN_POINT('',(8.33908802661179749E0,-8.87334858717894015E0,2.22685198506785476E1));
#82=CARTESIAN_POINT('',(8.42949188460303844E0,-9.10643042358044852E0,2.22685198506785476E1));
#83=CARTESIAN_POINT('',(8.65853941681906747E0,-9.01759132356566973E0,2.21352162787297395E1));
#84=CARTESIAN_POINT('',(8.47261302622668566E0,-8.82155915866821339E0,2.20636078462171774E1));
#85=CARTESIAN_POINT('',(8.51781495522230614E0,-8.93810007686896846E0,2.20636078462171774E1));
#86=CARTESIAN_POINT('',(8.64107228649323567E0,-8.93498412576294321E0,2.20430427997384299E1));
#87=(BOUNDED_SURFACE()B_SPLINE_SURFACE(2,2,((#78,#79,#80),(#81,#82,#83),(#84,#85,#86)),.UNSPECIFIED.,.F.,.F.,.F.)B_SPLINE_SURFACE_WITH_KNOTS((3,3),(3,3),(0.00000000000000000E0,1.00000000000000000E0),(0.00000000000000000E0,1.00000000000000000E0),.UNSPECIFIED.)GEOMETRIC_REPRESENTATION_ITEM()RATIONAL_B_SPLINE_SURFACE(((1.00000000000000000E0,1.00000000000000000E0,2.00000000000000000E0),(1.00000000000000000E0,1.00000000000000000E0,2.00000000000000000E0),(2.00000000000000000E0,2.00000000000000000E0,3.00000000000000000E0)))REPRESENTATION_ITEM('')SURFACE());
#88=CARTESIAN_POINT('',(1.63829710277318945E1,2.55910834584944524E0,2.30793063446104867E1));
#89=CARTESIAN_POINT('',(1.92758944834515908E1,-4.89951041899883144E0,2.30793063446104867E1));
#90=B_SPLINE_CURVE_WITH_KNOTS('',1,(#88,#89),.UNSPECIFIED.,.F.,.F.,(2,2),(0.00000000000000000E0,1.00000000000000000E0),.UNSPECIFIED.);
#91=CARTESIAN_POINT('',(1.92758944834515908E1,-4.89951041899883144E0,2.30793063446104867E1));
#92=CARTESIAN_POINT('',(1.18251369405626363E1,-7.78938479631490743E0,1.74938486086307918E1));
#93=B_SPLINE_CURVE_WITH_KNOTS('',1,(#91,#92),.UNSPECIFIED.,.F.,.F.,(2,2),(0.00000000000000000E0,1.00000000000000000E0),.UNSPECIFIED.);
#94=CARTESIAN_POINT('',(1.15436880173691137E1,-7.63040230292150312E0,1.73506317436056712E1));
#95=CARTESIAN_POINT('',(1.16340918753603546E1,-7.86348413932301149E0,1.73506317436056712E1));
#96=CARTESIAN_POINT('',(1.18251369405626363E1,-7.78938479631490743E0,1.74938486086307918E1));
#97=(BOUNDED_CURVE()B_SPLINE_CURVE(2,(#94,#95,#96),.UNSPECIFIED.,.F.,.F.)B_SPLINE_CURVE_WITH_KNOTS((3,3),(0.00000000000000000E0,1.00000000000000000E0),.UNSPECIFIED.)CURVE()GEOMETRIC_REPRESENTATION_ITEM()RATIONAL_B_SPLINE_CURVE((1.00000000000000000E0,7.07106781186547573E-1,1.00000000000000000E0))REPRESENTATION_ITEM(''));
#98=CARTESIAN_POINT('',(8.74116841964065827E0,-4.04865374474734807E-1,1.73506317436056712E1));
#99=CARTESIAN_POINT('',(1.15436880173691137E1,-7.63040230292150312E0,1.73506317436056712E1));
#100=B_SPLINE_CURVE_WITH_KNOTS('',1,(#98,#99),.UNSPECIFIED.,.F.,.F.,(2,2),(0.00000000000000000E0,1.00000000000000000E0),.UNSPECIFIED.);
#101=CARTESIAN_POINT('',(1.63829710277318945E1,2.55910834584944524E0,2.30793063446104867E1));
#102=CARTESIAN_POINT('',(8.74116841964065827E0,-4.04865374474734807E-1,1.73506317436056712E1));
#103=B_SPLINE_CURVE_WITH_KNOTS('',1,(#101,#102),.UNSPECIFIED.,.F.,.F.,(2,2),(0.00000000000000000E0,1.00000000000000000E0),.UNSPECIFIED.);
#104=CARTESIAN_POINT('',(1.31783710369745783E1,1.31616206159200821E0,2.79971944516833666E1));
#105=CARTESIAN_POINT('',(5.72761349408562204E0,-1.57371231572406778E0,2.24117367157036682E1));
#106=B_SPLINE_CURVE_WITH_KNOTS('',1,(#104,#105),.UNSPECIFIED.,.F.,.F.,(2,2),(0.00000000000000000E0,1.00000000000000000E0),.UNSPECIFIED.);
#107=CARTESIAN_POINT('',(8.53013309181407919E0,-8.79924924417083609E0,2.24117367157036682E1));
#108=CARTESIAN_POINT('',(5.72761349408562204E0,-1.57371231572406778E0,2.24117367157036682E1));
#109=B_SPLINE_CURVE_WITH_KNOTS('',1,(#107,#108),.UNSPECIFIED.,.F.,.F.,(2,2),(0.00000000000000000E0,1.00000000000000000E0),.UNSPECIFIED.);
#110=CARTESIAN_POINT('',(8.53013309181407919E0,-8.79924924417083609E0,2.24117367157036682E1));
#111=CARTESIAN_POINT('',(1.59808906347030337E1,-5.90937486685476010E0,2.79971944516833666E1));
#112=B_SPLINE_CURVE_WITH_KNOTS('',1,(#110,#111),.UNSPECIFIED.,.F.,.F.,(2,2),(0.00000000000000000E0,1.00000000000000000E0),.UNSPECIFIED.);
#113=CARTESIAN_POINT('',(1.31783710369745783E1,1.31616206159200821E0,2.79971944516833666E1));
#114=CARTESIAN_POINT('',(1.59808906347030337E1,-5.90937486685476010E0,2.79971944516833666E1));
#115=B_SPLINE_CURVE_WITH_KNOTS('',1,(#113,#114),.UNSPECIFIED.,.F.,.F.,(2,2),(0.00000000000000000E0,1.00000000000000000E0),.UNSPECIFIED.);
#116=CARTESIAN_POINT('',(1.63829710277318945E1,2.55910834584944524E0,2.30793063446104867E1));
#117=CARTESIAN_POINT('',(1.31783710369745783E1,1.31616206159200821E0,2.79971944516833666E1));
#118=B_SPLINE_CURVE_WITH_KNOTS('',1,(#116,#117),.UNSPECIFIED.,.F.,.F.,(2,2),(0.00000000000000000E0,1.00000000000000000E0),.UNSPECIFIED.);
#119=CARTESIAN_POINT('',(1.62048194923091629E1,-6.09066727474554259E0,2.77922824472219965E1));
#120=CARTESIAN_POINT('',(1.60712944926942747E1,-6.14245670325626936E0,2.79971944516833666E1));
#121=CARTESIAN_POINT('',(1.59808906347030337E1,-5.90937486685476010E0,2.79971944516833666E1));
#122=(BOUNDED_CURVE()B_SPLINE_CURVE(2,(#119,#120,#121),.UNSPECIFIED.,.F.,.F.)B_SPLINE_CURVE_WITH_KNOTS((3,3),(0.00000000000000000E0,1.00000000000000000E0),.UNSPECIFIED.)CURVE()GEOMETRIC_REPRESENTATION_ITEM()RATIONAL_B_SPLINE_CURVE((2.00000000000000000E0,1.00000000000000000E0,1.00000000000000000E0))REPRESENTATION_ITEM(''));
#123=CARTESIAN_POINT('',(1.92758944834515908E1,-4.89951041899883144E0,2.30793063446104867E1));
#124=CARTESIAN_POINT('',(1.62048194923091629E1,-6.09066727474554259E0,2.77922824472219965E1));
#125=B_SPLINE_CURVE_WITH_KNOTS('',1,(#123,#124),.UNSPECIFIED.,.F.,.F.,(2,2),(0.00000000000000000E0,1.00000000000000000E0),.UNSPECIFIED.);
#126=CARTESIAN_POINT('',(8.74116841964065827E0,-4.04865374474734807E-1,1.73506317436056712E1));
#127=CARTESIAN_POINT('',(5.67009342849822939E0,-1.59602223022144596E0,2.20636078462171774E1));
#128=B_SPLINE_CURVE_WITH_KNOTS('',1,(#126,#127),.UNSPECIFIED.,.F.,.F.,(2,2),(0.00000000000000000E0,1.00000000000000000E0),.UNSPECIFIED.);
#129=CARTESIAN_POINT('',(5.67009342849822939E0,-1.59602223022144596E0,2.20636078462171774E1));
#130=CARTESIAN_POINT('',(5.53656842888334122E0,-1.64781165873217184E0,2.22685198506785476E1));
#131=CARTESIAN_POINT('',(5.72761349408562204E0,-1.57371231572406778E0,2.24117367157036682E1));
#132=(BOUNDED_CURVE()B_SPLINE_CURVE(2,(#129,#130,#131),.UNSPECIFIED.,.F.,.F.)B_SPLINE_CURVE_WITH_KNOTS((3,3),(0.00000000000000000E0,1.00000000000000000E0),.UNSPECIFIED.)CURVE()GEOMETRIC_REPRESENTATION_ITEM()RATIONAL_B_SPLINE_CURVE((2.00000000000000000E0,1.00000000000000000E0,1.00000000000000000E0))REPRESENTATION_ITEM(''));
#133=CARTESIAN_POINT('',(1.15436880173691137E1,-7.63040230292150312E0,1.73506317436056712E1));
#134=CARTESIAN_POINT('',(8.47261302622668566E0,-8.82155915866821339E0,2.20636078462171774E1));
#135=B_SPLINE_CURVE_WITH_KNOTS('',1,(#133,#134),.UNSPECIFIED.,.F.,.F.,(2,2),(0.00000000000000000E0,1.00000000000000000E0),.UNSPECIFIED.);
#136=CARTESIAN_POINT('',(8.47261302622668566E0,-8.82155915866821339E0,2.20636078462171774E1));
#137=CARTESIAN_POINT('',(5.67009342849822939E0,-1.59602223022144596E0,2.20636078462171774E1));
#138=B_SPLINE_CURVE_WITH_KNOTS('',1,(#136,#137),.UNSPECIFIED.,.F.,.F.,(2,2),(0.00000000000000000E0,1.00000000000000000E0),.UNSPECIFIED.);
#139=CARTESIAN_POINT('',(8.75406194942020655E0,-8.98054165206161770E0,2.22068247112422981E1));
#140=CARTESIAN_POINT('',(1.62048194923091629E1,-6.09066727474554259E0,2.77922824472219965E1));
#141=B_SPLINE_CURVE_WITH_KNOTS('',1,(#139,#140),.UNSPECIFIED.,.F.,.F.,(2,2),(0.00000000000000000E0,1.00000000000000000E0),.UNSPECIFIED.);
#142=CARTESIAN_POINT('',(1.18251369405626363E1,-7.78938479631490743E0,1.74938486086307918E1));
#143=CARTESIAN_POINT('',(8.75406194942020655E0,-8.98054165206161770E0,2.22068247112422981E1));
#144=B_SPLINE_CURVE_WITH_KNOTS('',1,(#142,#143),.UNSPECIFIED.,.F.,.F.,(2,2),(0.00000000000000000E0,1.00000000000000000E0),.UNSPECIFIED.);
#145=CARTESIAN_POINT('',(8.47261302622668566E0,-8.82155915866821339E0,2.20636078462171774E1));
#146=CARTESIAN_POINT('',(8.56301688421792662E0,-9.05464099506972175E0,2.20636078462171774E1));
#147=CARTESIAN_POINT('',(8.75406194942020655E0,-8.98054165206161770E0,2.22068247112422981E1));
#148=(BOUNDED_CURVE()B_SPLINE_CURVE(2,(#145,#146,#147),.UNSPECIFIED.,.F.,.F.)B_SPLINE_CURVE_WITH_KNOTS((3,3),(0.00000000000000000E0,1.00000000000000000E0),.UNSPECIFIED.)CURVE()GEOMETRIC_REPRESENTATION_ITEM()RATIONAL_B_SPLINE_CURVE((1.00000000000000000E0,7.07106781186547573E-1,1.00000000000000000E0))REPRESENTATION_ITEM(''));
#149=CARTESIAN_POINT('',(8.47261302622668566E0,-8.82155915866821339E0,2.20636078462171774E1));
#150=CARTESIAN_POINT('',(8.33908802661179749E0,-8.87334858717894015E0,2.22685198506785476E1));
#151=CARTESIAN_POINT('',(8.53013309181407919E0,-8.79924924417083609E0,2.24117367157036682E1));
#152=(BOUNDED_CURVE()B_SPLINE_CURVE(2,(#149,#150,#151),.UNSPECIFIED.,.F.,.F.)B_SPLINE_CURVE_WITH_KNOTS((3,3),(0.00000000000000000E0,1.00000000000000000E0),.UNSPECIFIED.)CURVE()GEOMETRIC_REPRESENTATION_ITEM()RATIONAL_B_SPLINE_CURVE((2.00000000000000000E0,1.00000000000000000E0,1.00000000000000000E0))REPRESENTATION_ITEM(''));
#153=CARTESIAN_POINT('',(8.75406194942020655E0,-8.98054165206161770E0,2.22068247112422981E1));
#154=CARTESIAN_POINT('',(8.62053694980531837E0,-9.03233108057234446E0,2.24117367157036682E1));
#155=CARTESIAN_POINT('',(8.53013309181407919E0,-8.79924924417083609E0,2.24117367157036682E1));
#156=(BOUNDED_CURVE()B_SPLINE_CURVE(2,(#153,#154,#155),.UNSPECIFIED.,.F.,.F.)B_SPLINE_CURVE_WITH_KNOTS((3,3),(0.00000000000000000E0,1.00000000000000000E0),.UNSPECIFIED.)CURVE()GEOMETRIC_REPRESENTATION_ITEM()RATIONAL_B_SPLINE_CURVE((2.00000000000000000E0,1.00000000000000000E0,1.00000000000000000E0))REPRESENTATION_ITEM(''));
#157=(GEOMETRIC_REPRESENTATION_CONTEXT(2)REPRESENTATION_CONTEXT('','2D'));
#158=CARTESIAN_POINT('',(1.00000000000000000E0,0.00000000000000000E0));
#159=CARTESIAN_POINT('',(1.00000000000000000E0,1.00000000000000000E0));
#160=B_SPLINE_CURVE_WITH_KNOTS('',1,(#158,#159),.UNSPECIFIED.,.F.,.F.,(2,2),(0.00000000000000000E0,1.00000000000000000E0),.UNSPECIFIED.);
#161=DEFINITIONAL_REPRESENTATION('',(#160),#157);
#162=PCURVE('',#31,#161);
#163=CARTESIAN_POINT('',(1.00000000000000000E0,1.00000000000000000E0));
#164=CARTESIAN_POINT('',(2.50000000000000222E-2,1.00000000000000000E0));
#165=B_SPLINE_CURVE_WITH_KNOTS('',1,(#163,#164),.UNSPECIFIED.,.F.,.F.,(2,2),(0.00000000000000000E0,1.00000000000000000E0),.UNSPECIFIED.);
#166=DEFINITIONAL_REPRESENTATION('',(#165),#157);
#167=PCURVE('',#31,#166);
#168=CARTESIAN_POINT('',(2.50000000000000222E-2,1.00000000000000000E0));
#169=CARTESIAN_POINT('',(0.00000000000000000E0,1.00000000000000000E0));
#170=CARTESIAN_POINT('',(0.00000000000000000E0,9.68750000000000000E-1));
#171=(BOUNDED_CURVE()B_SPLINE_CURVE(2,(#168,#169,#170),.UNSPECIFIED.,.F.,.F.)B_SPLINE_CURVE_WITH_KNOTS((3,3),(0.00000000000000000E0,1.00000000000000000E0),.UNSPECIFIED.)CURVE()GEOMETRIC_REPRESENTATION_ITEM()RATIONAL_B_SPLINE_CURVE((1.00000000000000000E0,7.07106781186547573E-1,1.00000000000000000E0))REPRESENTATION_ITEM(''));
#172=DEFINITIONAL_REPRESENTATION('',(#171),#157);
#173=PCURVE('',#31,#172);
#174=CARTESIAN_POINT('',(0.00000000000000000E0,9.68750000000000000E-1));
#175=CARTESIAN_POINT('',(0.00000000000000000E0,0.00000000000000000E0));
#176=B_SPLINE_CURVE_WITH_KNOTS('',1,(#174,#175),.UNSPECIFIED.,.F.,.F.,(2,2),(0.00000000000000000E0,1.00000000000000000E0),.UNSPECIFIED.);
#177=DEFINITIONAL_REPRESENTATION('',(#176),#157);
#178=PCURVE('',#31,#177);
#179=CARTESIAN_POINT('',(0.00000000000000000E0,0.00000000000000000E0));
#180=CARTESIAN_POINT('',(1.00000000000000000E0,0.00000000000000000E0));
#181=B_SPLINE_CURVE_WITH_KNOTS('',1,(#179,#180),.UNSPECIFIED.,.F.,.F.,(2,2),(0.00000000000000000E0,1.00000000000000000E0),.UNSPECIFIED.);
#182=DEFINITIONAL_REPRESENTATION('',(#181),#157);
#183=PCURVE('',#31,#182);
#184=CARTESIAN_POINT('',(0.00000000000000000E0,0.00000000000000000E0));
#185=CARTESIAN_POINT('',(9.74999999999999978E-1,0.00000000000000000E0));
#186=B_SPLINE_CURVE_WITH_KNOTS('',1,(#184,#185),.UNSPECIFIED.,.F.,.F.,(2,2),(0.00000000000000000E0,1.00000000000000000E0),.UNSPECIFIED.);
#187=DEFINITIONAL_REPRESENTATION('',(#186),#157);
#188=PCURVE('',#36,#187);
#189=CARTESIAN_POINT('',(9.74999999999999978E-1,0.00000000000000000E0));
#190=CARTESIAN_POINT('',(9.74999999999999978E-1,9.68750000000000000E-1));
#191=B_SPLINE_CURVE_WITH_KNOTS('',1,(#189,#190),.UNSPECIFIED.,.F.,.F.,(2,2),(0.00000000000000000E0,1.00000000000000000E0),.UNSPECIFIED.);
#192=DEFINITIONAL_REPRESENTATION('',(#191),#157);
#193=PCURVE('',#36,#192);
#194=CARTESIAN_POINT('',(9.74999999999999978E-1,9.68750000000000000E-1));
#195=CARTESIAN_POINT('',(0.00000000000000000E0,9.68750000000000000E-1));
#196=B_SPLINE_CURVE_WITH_KNOTS('',1,(#194,#195),.UNSPECIFIED.,.F.,.F.,(2,2),(0.00000000000000000E0,1.00000000000000000E0),.UNSPECIFIED.);
#197=DEFINITIONAL_REPRESENTATION('',(#196),#157);
#198=PCURVE('',#36,#197);
#199=CARTESIAN_POINT('',(0.00000000000000000E0,9.68750000000000000E-1));
#200=CARTESIAN_POINT('',(0.00000000000000000E0,0.00000000000000000E0));
#201=B_SPLINE_CURVE_WITH_KNOTS('',1,(#199,#200),.UNSPECIFIED.,.F.,.F.,(2,2),(0.00000000000000000E0,1.00000000000000000E0),.UNSPECIFIED.);
#202=DEFINITIONAL_REPRESENTATION('',(#201),#157);
#203=PCURVE('',#36,#202);
#204=CARTESIAN_POINT('',(1.00000000000000000E0,0.00000000000000000E0));
#205=CARTESIAN_POINT('',(1.00000000000000000E0,1.00000000000000000E0));
#206=B_SPLINE_CURVE_WITH_KNOTS('',1,(#204,#205),.UNSPECIFIED.,.F.,.F.,(2,2),(0.00000000000000000E0,1.00000000000000000E0),.UNSPECIFIED.);
#207=DEFINITIONAL_REPRESENTATION('',(#206),#157);
#208=PCURVE('',#41,#207);
#209=CARTESIAN_POINT('',(1.00000000000000000E0,1.00000000000000000E0));
#210=CARTESIAN_POINT('',(3.12500000000000000E-2,1.00000000000000000E0));
#211=B_SPLINE_CURVE_WITH_KNOTS('',1,(#209,#210),.UNSPECIFIED.,.F.,.F.,(2,2),(0.00000000000000000E0,1.00000000000000000E0),.UNSPECIFIED.);
#212=DEFINITIONAL_REPRESENTATION('',(#211),#157);
#213=PCURVE('',#41,#212);
#214=CARTESIAN_POINT('',(3.12500000000000000E-2,1.00000000000000000E0));
#215=CARTESIAN_POINT('',(0.00000000000000000E0,1.00000000000000000E0));
#216=CARTESIAN_POINT('',(0.00000000000000000E0,9.58333333333333370E-1));
#217=(BOUNDED_CURVE()B_SPLINE_CURVE(2,(#214,#215,#216),.UNSPECIFIED.,.F.,.F.)B_SPLINE_CURVE_WITH_KNOTS((3,3),(0.00000000000000000E0,1.00000000000000000E0),.UNSPECIFIED.)CURVE()GEOMETRIC_REPRESENTATION_ITEM()RATIONAL_B_SPLINE_CURVE((1.00000000000000000E0,1.00000000000000000E0,2.00000000000000000E0))REPRESENTATION_ITEM(''));
#218=DEFINITIONAL_REPRESENTATION('',(#217),#157);
#219=PCURVE('',#41,#218);
#220=CARTESIAN_POINT('',(0.00000000000000000E0,9.58333333333333370E-1));
#221=CARTESIAN_POINT('',(0.00000000000000000E0,0.00000000000000000E0));
#222=B_SPLINE_CURVE_WITH_KNOTS('',1,(#220,#221),.UNSPECIFIED.,.F.,.F.,(2,2),(0.00000000000000000E0,1.00000000000000000E0),.UNSPECIFIED.);
#223=DEFINITIONAL_REPRESENTATION('',(#222),#157);
#224=PCURVE('',#41,#223);
#225=CARTESIAN_POINT('',(0.00000000000000000E0,0.00000000000000000E0));
#226=CARTESIAN_POINT('',(1.00000000000000000E0,0.00000000000000000E0));
#227=B_SPLINE_CURVE_WITH_KNOTS('',1,(#225,#226),.UNSPECIFIED.,.F.,.F.,(2,2),(0.00000000000000000E0,1.00000000000000000E0),.UNSPECIFIED.);
#228=DEFINITIONAL_REPRESENTATION('',(#227),#157);
#229=PCURVE('',#41,#228);
#230=CARTESIAN_POINT('',(0.00000000000000000E0,0.00000000000000000E0));
#231=CARTESIAN_POINT('',(1.00000000000000000E0,0.00000000000000000E0));
#232=B_SPLINE_CURVE_WITH_KNOTS('',1,(#230,#231),.UNSPECIFIED.,.F.,.F.,(2,2),(0.00000000000000000E0,1.00000000000000000E0),.UNSPECIFIED.);
#233=DEFINITIONAL_REPRESENTATION('',(#232),#157);
#234=PCURVE('',#46,#233);
#235=CARTESIAN_POINT('',(1.00000000000000000E0,0.00000000000000000E0));
#236=CARTESIAN_POINT('',(1.00000000000000000E0,9.58333333333333370E-1));
#237=B_SPLINE_CURVE_WITH_KNOTS('',1,(#235,#236),.UNSPECIFIED.,.F.,.F.,(2,2),(0.00000000000000000E0,1.00000000000000000E0),.UNSPECIFIED.);
#238=DEFINITIONAL_REPRESENTATION('',(#237),#157);
#239=PCURVE('',#46,#238);
#240=CARTESIAN_POINT('',(1.00000000000000000E0,9.58333333333333370E-1));
#241=CARTESIAN_POINT('',(1.00000000000000000E0,1.00000000000000000E0));
#242=CARTESIAN_POINT('',(9.74999999999999978E-1,1.00000000000000000E0));
#243=(BOUNDED_CURVE()B_SPLINE_CURVE(2,(#240,#241,#242),.UNSPECIFIED.,.F.,.F.)B_SPLINE_CURVE_WITH_KNOTS((3,3),(0.00000000000000000E0,1.00000000000000000E0),.UNSPECIFIED.)CURVE()GEOMETRIC_REPRESENTATION_ITEM()RATIONAL_B_SPLINE_CURVE((2.00000000000000000E0,1.00000000000000000E0,1.00000000000000000E0))REPRESENTATION_ITEM(''));
#244=DEFINITIONAL_REPRESENTATION('',(#243),#157);
#245=PCURVE('',#46,#244);
#246=CARTESIAN_POINT('',(9.74999999999999978E-1,1.00000000000000000E0));
#247=CARTESIAN_POINT('',(0.00000000000000000E0,1.00000000000000000E0));
#248=B_SPLINE_CURVE_WITH_KNOTS('',1,(#246,#247),.UNSPECIFIED.,.F.,.F.,(2,2),(0.00000000000000000E0,1.00000000000000000E0),.UNSPECIFIED.);
#249=DEFINITIONAL_REPRESENTATION('',(#248),#157);
#250=PCURVE('',#46,#249);
#251=CARTESIAN_POINT('',(0.00000000000000000E0,1.00000000000000000E0));
#252=CARTESIAN_POINT('',(0.00000000000000000E0,0.00000000000000000E0));
#253=B_SPLINE_CURVE_WITH_KNOTS('',1,(#251,#252),.UNSPECIFIED.,.F.,.F.,(2,2),(0.00000000000000000E0,1.00000000000000000E0),.UNSPECIFIED.);
#254=DEFINITIONAL_REPRESENTATION('',(#253),#157);
#255=PCURVE('',#46,#254);
#256=CARTESIAN_POINT('',(0.00000000000000000E0,0.00000000000000000E0));
#257=CARTESIAN_POINT('',(9.68750000000000000E-1,0.00000000000000000E0));
#258=B_SPLINE_CURVE_WITH_KNOTS('',1,(#256,#257),.UNSPECIFIED.,.F.,.F.,(2,2),(0.00000000000000000E0,1.00000000000000000E0),.UNSPECIFIED.);
#259=DEFINITIONAL_REPRESENTATION('',(#258),#157);
#260=PCURVE('',#51,#259);
#261=CARTESIAN_POINT('',(9.68750000000000000E-1,0.00000000000000000E0));
#262=CARTESIAN_POINT('',(9.68750000000000000E-1,9.58333333333333370E-1));
#263=B_SPLINE_CURVE_WITH_KNOTS('',1,(#261,#262),.UNSPECIFIED.,.F.,.F.,(2,2),(0.00000000000000000E0,1.00000000000000000E0),.UNSPECIFIED.);
#264=DEFINITIONAL_REPRESENTATION('',(#263),#157);
#265=PCURVE('',#51,#264);
#266=CARTESIAN_POINT('',(9.68750000000000000E-1,9.58333333333333370E-1));
#267=CARTESIAN_POINT('',(0.00000000000000000E0,9.58333333333333370E-1));
#268=B_SPLINE_CURVE_WITH_KNOTS('',1,(#266,#267),.UNSPECIFIED.,.F.,.F.,(2,2),(0.00000000000000000E0,1.00000000000000000E0),.UNSPECIFIED.);
#269=DEFINITIONAL_REPRESENTATION('',(#268),#157);
#270=PCURVE('',#51,#269);
#271=CARTESIAN_POINT('',(0.00000000000000000E0,9.58333333333333370E-1));
#272=CARTESIAN_POINT('',(0.00000000000000000E0,0.00000000000000000E0));
#273=B_SPLINE_CURVE_WITH_KNOTS('',1,(#271,#272),.UNSPECIFIED.,.F.,.F.,(2,2),(0.00000000000000000E0,1.00000000000000000E0),.UNSPECIFIED.);
#274=DEFINITIONAL_REPRESENTATION('',(#273),#157);
#275=PCURVE('',#51,#274);
#276=CARTESIAN_POINT('',(1.00000000000000000E0,0.00000000000000000E0));
#277=CARTESIAN_POINT('',(1.00000000000000000E0,9.58333333333333370E-1));
#278=B_SPLINE_CURVE_WITH_KNOTS('',1,(#276,#277),.UNSPECIFIED.,.F.,.F.,(2,2),(0.00000000000000000E0,1.00000000000000000E0),.UNSPECIFIED.);
#279=DEFINITIONAL_REPRESENTATION('',(#278),#157);
#280=PCURVE('',#56,#279);
#281=CARTESIAN_POINT('',(1.00000000000000000E0,9.58333333333333370E-1));
#282=CARTESIAN_POINT('',(2.50000000000000222E-2,9.58333333333333370E-1));
#283=B_SPLINE_CURVE_WITH_KNOTS('',1,(#281,#282),.UNSPECIFIED.,.F.,.F.,(2,2),(0.00000000000000000E0,1.00000000000000000E0),.UNSPECIFIED.);
#284=DEFINITIONAL_REPRESENTATION('',(#283),#157);
#285=PCURVE('',#56,#284);
#286=CARTESIAN_POINT('',(2.50000000000000222E-2,9.58333333333333370E-1));
#287=CARTESIAN_POINT('',(2.50000000000000222E-2,0.00000000000000000E0));
#288=B_SPLINE_CURVE_WITH_KNOTS('',1,(#286,#287),.UNSPECIFIED.,.F.,.F.,(2,2),(0.00000000000000000E0,1.00000000000000000E0),.UNSPECIFIED.);
#289=DEFINITIONAL_REPRESENTATION('',(#288),#157);
#290=PCURVE('',#56,#289);
#291=CARTESIAN_POINT('',(2.50000000000000222E-2,0.00000000000000000E0));
#292=CARTESIAN_POINT('',(1.00000000000000000E0,0.00000000000000000E0));
#293=B_SPLINE_CURVE_WITH_KNOTS('',1,(#291,#292),.UNSPECIFIED.,.F.,.F.,(2,2),(0.00000000000000000E0,1.00000000000000000E0),.UNSPECIFIED.);
#294=DEFINITIONAL_REPRESENTATION('',(#293),#157);
#295=PCURVE('',#56,#294);
#296=CARTESIAN_POINT('',(0.00000000000000000E0,0.00000000000000000E0));
#297=CARTESIAN_POINT('',(1.00000000000000000E0,0.00000000000000000E0));
#298=B_SPLINE_CURVE_WITH_KNOTS('',1,(#296,#297),.UNSPECIFIED.,.F.,.F.,(2,2),(0.00000000000000000E0,1.00000000000000000E0),.UNSPECIFIED.);
#299=DEFINITIONAL_REPRESENTATION('',(#298),#157);
#300=PCURVE('',#63,#299);
#301=CARTESIAN_POINT('',(1.00000000000000000E0,0.00000000000000000E0));
#302=CARTESIAN_POINT('',(1.00000000000000000E0,1.00000000000000000E0));
#303=B_SPLINE_CURVE_WITH_KNOTS('',1,(#301,#302),.UNSPECIFIED.,.F.,.F.,(2,2),(0.00000000000000000E0,1.00000000000000000E0),.UNSPECIFIED.);
#304=DEFINITIONAL_REPRESENTATION('',(#303),#157);
#305=PCURVE('',#63,#304);
#306=CARTESIAN_POINT('',(1.00000000000000000E0,1.00000000000000000E0));
#307=CARTESIAN_POINT('',(0.00000000000000000E0,1.00000000000000000E0));
#308=B_SPLINE_CURVE_WITH_KNOTS('',1,(#306,#307),.UNSPECIFIED.,.F.,.F.,(2,2),(0.00000000000000000E0,1.00000000000000000E0),.UNSPECIFIED.);
#309=DEFINITIONAL_REPRESENTATION('',(#308),#157);
#310=PCURVE('',#63,#309);
#311=CARTESIAN_POINT('',(0.00000000000000000E0,1.00000000000000000E0));
#312=CARTESIAN_POINT('',(0.00000000000000000E0,0.00000000000000000E0));
#313=B_SPLINE_CURVE_WITH_KNOTS('',1,(#311,#312),.UNSPECIFIED.,.F.,.F.,(2,2),(0.00000000000000000E0,1.00000000000000000E0),.UNSPECIFIED.);
#314=DEFINITIONAL_REPRESENTATION('',(#313),#157);
#315=PCURVE('',#63,#314);
#316=CARTESIAN_POINT('',(1.00000000000000000E0,0.00000000000000000E0));
#317=CARTESIAN_POINT('',(1.00000000000000000E0,1.00000000000000000E0));
#318=B_SPLINE_CURVE_WITH_KNOTS('',1,(#316,#317),.UNSPECIFIED.,.F.,.F.,(2,2),(0.00000000000000000E0,1.00000000000000000E0),.UNSPECIFIED.);
#319=DEFINITIONAL_REPRESENTATION('',(#318),#157);
#320=PCURVE('',#70,#319);
#321=CARTESIAN_POINT('',(1.00000000000000000E0,1.00000000000000000E0));
#322=CARTESIAN_POINT('',(0.00000000000000000E0,1.00000000000000000E0));
#323=B_SPLINE_CURVE_WITH_KNOTS('',1,(#321,#322),.UNSPECIFIED.,.F.,.F.,(2,2),(0.00000000000000000E0,1.00000000000000000E0),.UNSPECIFIED.);
#324=DEFINITIONAL_REPRESENTATION('',(#323),#157);
#325=PCURVE('',#70,#324);
#326=CARTESIAN_POINT('',(0.00000000000000000E0,1.00000000000000000E0));
#327=CARTESIAN_POINT('',(0.00000000000000000E0,0.00000000000000000E0));
#328=B_SPLINE_CURVE_WITH_KNOTS('',1,(#326,#327),.UNSPECIFIED.,.F.,.F.,(2,2),(0.00000000000000000E0,1.00000000000000000E0),.UNSPECIFIED.);
#329=DEFINITIONAL_REPRESENTATION('',(#328),#157);
#330=PCURVE('',#70,#329);
#331=CARTESIAN_POINT('',(0.00000000000000000E0,0.00000000000000000E0));
#332=CARTESIAN_POINT('',(1.00000000000000000E0,0.00000000000000000E0));
#333=B_SPLINE_CURVE_WITH_KNOTS('',1,(#331,#332),.UNSPECIFIED.,.F.,.F.,(2,2),(0.00000000000000000E0,1.00000000000000000E0),.UNSPECIFIED.);
#334=DEFINITIONAL_REPRESENTATION('',(#333),#157);
#335=PCURVE('',#70,#334);
#336=CARTESIAN_POINT('',(0.00000000000000000E0,0.00000000000000000E0));
#337=CARTESIAN_POINT('',(1.00000000000000000E0,0.00000000000000000E0));
#338=B_SPLINE_CURVE_WITH_KNOTS('',1,(#336,#337),.UNSPECIFIED.,.F.,.F.,(2,2),(0.00000000000000000E0,1.00000000000000000E0),.UNSPECIFIED.);
#339=DEFINITIONAL_REPRESENTATION('',(#338),#157);
#340=PCURVE('',#77,#339);
#341=CARTESIAN_POINT('',(1.00000000000000000E0,0.00000000000000000E0));
#342=CARTESIAN_POINT('',(1.00000000000000000E0,1.00000000000000000E0));
#343=B_SPLINE_CURVE_WITH_KNOTS('',1,(#341,#342),.UNSPECIFIED.,.F.,.F.,(2,2),(0.00000000000000000E0,1.00000000000000000E0),.UNSPECIFIED.);
#344=DEFINITIONAL_REPRESENTATION('',(#343),#157);
#345=PCURVE('',#77,#344);
#346=CARTESIAN_POINT('',(1.00000000000000000E0,1.00000000000000000E0));
#347=CARTESIAN_POINT('',(0.00000000000000000E0,1.00000000000000000E0));
#348=B_SPLINE_CURVE_WITH_KNOTS('',1,(#346,#347),.UNSPECIFIED.,.F.,.F.,(2,2),(0.00000000000000000E0,1.00000000000000000E0),.UNSPECIFIED.);
#349=DEFINITIONAL_REPRESENTATION('',(#348),#157);
#350=PCURVE('',#77,#349);
#351=CARTESIAN_POINT('',(0.00000000000000000E0,1.00000000000000000E0));
#352=CARTESIAN_POINT('',(0.00000000000000000E0,0.00000000000000000E0));
#353=B_SPLINE_CURVE_WITH_KNOTS('',1,(#351,#352),.UNSPECIFIED.,.F.,.F.,(2,2),(0.00000000000000000E0,1.00000000000000000E0),.UNSPECIFIED.);
#354=DEFINITIONAL_REPRESENTATION('',(#353),#157);
#355=PCURVE('',#77,#354);
#356=CARTESIAN_POINT('',(0.00000000000000000E0,0.00000000000000000E0));
#357=CARTESIAN_POINT('',(1.00000000000000000E0,0.00000000000000000E0));
#358=B_SPLINE_CURVE_WITH_KNOTS('',1,(#356,#357),.UNSPECIFIED.,.F.,.F.,(2,2),(0.00000000000000000E0,1.00000000000000000E0),.UNSPECIFIED.);
#359=DEFINITIONAL_REPRESENTATION('',(#358),#157);
#360=PCURVE('',#87,#359);
#361=CARTESIAN_POINT('',(1.00000000000000000E0,0.00000000000000000E0));
#362=CARTESIAN_POINT('',(1.00000000000000000E0,1.00000000000000000E0));
#363=CARTESIAN_POINT('',(0.00000000000000000E0,1.00000000000000000E0));
#364=(BOUNDED_CURVE()B_SPLINE_CURVE(2,(#361,#362,#363),.UNSPECIFIED.,.F.,.F.)B_SPLINE_CURVE_WITH_KNOTS((3,3),(0.00000000000000000E0,1.00000000000000000E0),.UNSPECIFIED.)CURVE()GEOMETRIC_REPRESENTATION_ITEM()RATIONAL_B_SPLINE_CURVE((1.00000000000000000E0,7.07106781186547573E-1,1.00000000000000000E0))REPRESENTATION_ITEM(''));
#365=DEFINITIONAL_REPRESENTATION('',(#364),#157);
#366=PCURVE('',#87,#365);
#367=CARTESIAN_POINT('',(0.00000000000000000E0,1.00000000000000000E0));
#368=CARTESIAN_POINT('',(0.00000000000000000E0,0.00000000000000000E0));
#369=B_SPLINE_CURVE_WITH_KNOTS('',1,(#367,#368),.UNSPECIFIED.,.F.,.F.,(2,2),(0.00000000000000000E0,1.00000000000000000E0),.UNSPECIFIED.);
#370=DEFINITIONAL_REPRESENTATION('',(#369),#157);
#371=PCURVE('',#87,#370);
#372=SURFACE_CURVE('',#90,(#162,#229),.PCURVE_S1.);
#373=EDGE_CURVE('OSCAD_TOPO/3|edge|e:93f945fe0c2a69109cb717950b9024b7|bd6e780057a48a0144b3b3c7e11f3173799ff3367d59b2733df239b93e8f8864',#2,#4,#372,.T.);
#374=SURFACE_CURVE('',#93,(#167,#295),.PCURVE_S1.);
#375=EDGE_CURVE('OSCAD_TOPO/3|edge|e:1df5d51cea1c3fdb71c52f5730315c6c|a15e9b70c2cf284f0ecc786e2871b12f642515800deb174b4aa5c282836bcfbd',#4,#6,#374,.T.);
#376=SURFACE_CURVE('',#97,(#173,#300),.PCURVE_S1.);
#377=EDGE_CURVE('OSCAD_TOPO/3|edge|e:f8af88cf5df62ef7b4a17242d8e2bebf|9045dc4b23ecba3b44a17bdacfb43c8bdf5602195c9e0f9946368b4ed802d639',#8,#6,#376,.T.);
#378=SURFACE_CURVE('',#100,(#178,#260),.PCURVE_S1.);
#379=EDGE_CURVE('OSCAD_TOPO/3|edge|e:44289c37a768ddec8698e3d0a85bb672|0da50faf466f0f25d69d087be75edd2b1c3a8e679dbc89caf3d8c18aab5deb80',#10,#8,#378,.T.);
#380=SURFACE_CURVE('',#103,(#183,#234),.PCURVE_S1.);
#381=EDGE_CURVE('OSCAD_TOPO/3|edge|e:64b7f8b23cb131fc2c2b2dca34cab3f3|fc6bcd704570a6686ebdfd328e686ee5badcc21ee1f65e4d813ee863e2703cff',#2,#10,#380,.T.);
#382=SURFACE_CURVE('',#106,(#188,#250),.PCURVE_S1.);
#383=EDGE_CURVE('OSCAD_TOPO/3|edge|e:a4452129e52628a9ae0bb2a8b5d581be|6bdd5b0dfb9599fe99b3ea3a0b0fc6f8c0f16dc5941c2798ed000f534905890a',#12,#14,#382,.T.);
#384=SURFACE_CURVE('',#109,(#193,#330),.PCURVE_S1.);
#385=EDGE_CURVE('OSCAD_TOPO/3|edge|e:2e754e97a47565806e7c4586df32d4ce|f0bfeefe8f0afe244f466de647f96b601409f7567b65b2e902249b56ee992270',#16,#14,#384,.T.);
#386=SURFACE_CURVE('',#112,(#198,#345),.PCURVE_S1.);
#387=EDGE_CURVE('OSCAD_TOPO/3|edge|e:0abf343b794813e1689f15d5ec88e142|c5ab62385f6b7e43bfe59dd8c2e17dbc3ce7d0c2118ff5c8069cae46f45a7ffc',#16,#18,#386,.T.);
#388=SURFACE_CURVE('',#115,(#203,#213),.PCURVE_S1.);
#389=EDGE_CURVE('OSCAD_TOPO/3|edge|e:4f0dd495ef3bcf34cb90afdc74bc8cb5|0074a70f3186ee81db012d614f27f44d00251c3ad98910a6678672afc7afebe2',#12,#18,#388,.T.);
#390=SURFACE_CURVE('',#118,(#208,#255),.PCURVE_S1.);
#391=EDGE_CURVE('OSCAD_TOPO/3|edge|e:6219e8e2ed3ab9b761fae1eec905a67c|0b5dd624373678d92bf788403e2cbcc2f5ce1c9eb4c1dde0b1d689c7d912f7ee',#2,#12,#390,.T.);
#392=SURFACE_CURVE('',#122,(#219,#340),.PCURVE_S1.);
#393=EDGE_CURVE('OSCAD_TOPO/3|edge|e:5db36c62df03d187c251d653f3cce548|80ffe76e4f73fccf58f6752451e4356243c9c9fc4b91ae7629aa3d0854cd1f01',#20,#18,#392,.T.);
#394=SURFACE_CURVE('',#125,(#224,#280),.PCURVE_S1.);
#395=EDGE_CURVE('OSCAD_TOPO/3|edge|e:a189d4be8aba9d9c1ada17162096d7fc|ac20f8c0bbbfa7f2940aa5ea7182a7efbba9b50d89ba8682a2d2f375afee5e32',#4,#20,#394,.T.);
#396=SURFACE_CURVE('',#128,(#239,#275),.PCURVE_S1.);
#397=EDGE_CURVE('OSCAD_TOPO/3|edge|e:b29c6aa0c4e26bac05af00ccbe4a0402|8b4b7b983cd385b77fb831e4ca824996bb5e5b0f902f1f1862757760253cbd61',#10,#22,#396,.T.);
#398=SURFACE_CURVE('',#132,(#245,#335),.PCURVE_S1.);
#399=EDGE_CURVE('OSCAD_TOPO/3|edge|e:117b93ae81301f62b3ddc44068ef59bb|e6fb664ea2fd63747c7fc2cc20bada3c2813e9934295719a624f89a56b9db855',#22,#14,#398,.T.);
#400=SURFACE_CURVE('',#135,(#265,#315),.PCURVE_S1.);
#401=EDGE_CURVE('OSCAD_TOPO/3|edge|e:c398978bf5620b6086da2015ff8c31b4|cae221fcb972059bad65d20d45cf23b8ce7496e4e0d0bfcf4b2472390b18cd75',#8,#24,#400,.T.);
#402=SURFACE_CURVE('',#138,(#270,#320),.PCURVE_S1.);
#403=EDGE_CURVE('OSCAD_TOPO/3|edge|e:24d7d0fadb6ef44f3bbbe2d924ad18f0|7f42167af1c2e0c43b1b6f42f77fbe83860923280164f97cb6f548edbe81e96c',#24,#22,#402,.T.);
#404=SURFACE_CURVE('',#141,(#285,#355),.PCURVE_S1.);
#405=EDGE_CURVE('OSCAD_TOPO/3|edge|e:128be91e346cfcb95603b6bfdcfe6bc1|98044b38f64e548e487b799b992ffbbb9bcae700a6cd24896d5325f34089c99c',#26,#20,#404,.T.);
#406=SURFACE_CURVE('',#144,(#290,#305),.PCURVE_S1.);
#407=EDGE_CURVE('OSCAD_TOPO/3|edge|e:53d50e51401b1b2d1a73c04d29a47d4d|fd22eb8f88fe8248c69b00c6d2a31136a6907c9fefa24f97cb2f8a37e9afef4f',#6,#26,#406,.T.);
#408=SURFACE_CURVE('',#148,(#310,#366),.PCURVE_S1.);
#409=EDGE_CURVE('OSCAD_TOPO/3|edge|e:5e2409b457889e4e14ca9c3c2021201f|183ea5ec8ea51a5d10920e08a4fd85d0a8dc3abe1bf70959041d1c0a0efec2ad',#24,#26,#408,.T.);
#410=SURFACE_CURVE('',#152,(#325,#360),.PCURVE_S1.);
#411=EDGE_CURVE('OSCAD_TOPO/3|edge|e:f9b7ebd603a002e47dbc5397d2b6e79c|c6733df1365e20f38c7bf80f2c6fb1799df582749757768ca018da651a19b73a',#24,#16,#410,.T.);
#412=SURFACE_CURVE('',#156,(#350,#371),.PCURVE_S1.);
#413=EDGE_CURVE('OSCAD_TOPO/3|edge|e:a50336ac9afe77cc871a197f7150feab|b97ed76aa0212cd5a303684c842a756f9df5f84ba390a43ff050f27f751727d2',#26,#16,#412,.T.);
#414=ORIENTED_EDGE('',*,*,#373,.T.);
#415=ORIENTED_EDGE('',*,*,#375,.T.);
#416=ORIENTED_EDGE('',*,*,#377,.F.);
#417=ORIENTED_EDGE('',*,*,#379,.F.);
#418=ORIENTED_EDGE('',*,*,#381,.F.);
#419=EDGE_LOOP('OSCAD_TOPO/3|loop|l:39cb29dbf7177c16beb5b0b20f4a3677|601480254b3a9fb0b7ad8c7e7c396b2491c14aa0febfa114f91212e5cf765741',(#414,#415,#416,#417,#418));
#420=ORIENTED_EDGE('',*,*,#383,.T.);
#421=ORIENTED_EDGE('',*,*,#385,.F.);
#422=ORIENTED_EDGE('',*,*,#387,.T.);
#423=ORIENTED_EDGE('',*,*,#389,.F.);
#424=EDGE_LOOP('OSCAD_TOPO/3|loop|l:4c0778796fef2f7f1cfcebe1f6bdf765|41791aa8180d474ccc4e9a1a99b15ac3d4159a38725cad823ea86b27c88f7f06',(#420,#421,#422,#423));
#425=ORIENTED_EDGE('',*,*,#391,.T.);
#426=ORIENTED_EDGE('',*,*,#389,.T.);
#427=ORIENTED_EDGE('',*,*,#393,.F.);
#428=ORIENTED_EDGE('',*,*,#395,.F.);
#429=ORIENTED_EDGE('',*,*,#373,.F.);
#430=EDGE_LOOP('OSCAD_TOPO/3|loop|l:e42af0901bea9726d9e10f6306f46b48|467bf6b759c16115d30c30b3840835e043b0d4292a3894099a2da2a864a8dbb4',(#425,#426,#427,#428,#429));
#431=ORIENTED_EDGE('',*,*,#381,.T.);
#432=ORIENTED_EDGE('',*,*,#397,.T.);
#433=ORIENTED_EDGE('',*,*,#399,.T.);
#434=ORIENTED_EDGE('',*,*,#383,.F.);
#435=ORIENTED_EDGE('',*,*,#391,.F.);
#436=EDGE_LOOP('OSCAD_TOPO/3|loop|l:ea2e7de49d2761bf3cb6468c03e36db0|e8ac7f471b3f373342c2d016f9021cbe0b9b1c146072c530b6dafecbbd26182d',(#431,#432,#433,#434,#435));
#437=ORIENTED_EDGE('',*,*,#379,.T.);
#438=ORIENTED_EDGE('',*,*,#401,.T.);
#439=ORIENTED_EDGE('',*,*,#403,.T.);
#440=ORIENTED_EDGE('',*,*,#397,.F.);
#441=EDGE_LOOP('OSCAD_TOPO/3|loop|l:27dcde26dfa1ca89dc89a59ed348e410|28a432f6a32848516e581b16be7e6241f52ccb24c1f520d66d90275ff133e197',(#437,#438,#439,#440));
#442=ORIENTED_EDGE('',*,*,#395,.T.);
#443=ORIENTED_EDGE('',*,*,#405,.F.);
#444=ORIENTED_EDGE('',*,*,#407,.F.);
#445=ORIENTED_EDGE('',*,*,#375,.F.);
#446=EDGE_LOOP('OSCAD_TOPO/3|loop|l:4335c496bba177407b9583a4179b86fb|aab6e188e2339446ce2e1f5fa446a1bd8c3e2e374eda48fcadf01a2d60a7ee6e',(#442,#443,#444,#445));
#447=ORIENTED_EDGE('',*,*,#377,.T.);
#448=ORIENTED_EDGE('',*,*,#407,.T.);
#449=ORIENTED_EDGE('',*,*,#409,.F.);
#450=ORIENTED_EDGE('',*,*,#401,.F.);
#451=EDGE_LOOP('OSCAD_TOPO/3|loop|l:5f09b4e679a549d4e1ceef55efa66e85|a9aba8056f48f82c7d3093c514e3478ba5116576aa8ccadd483fffc35a8827bb',(#447,#448,#449,#450));
#452=ORIENTED_EDGE('',*,*,#403,.F.);
#453=ORIENTED_EDGE('',*,*,#411,.T.);
#454=ORIENTED_EDGE('',*,*,#385,.T.);
#455=ORIENTED_EDGE('',*,*,#399,.F.);
#456=EDGE_LOOP('OSCAD_TOPO/3|loop|l:297a0086666aba9b1236b63c4c8da6bb|0b52e7001a284b185be500f691b43af5d595024357ad817fd813caad030be505',(#452,#453,#454,#455));
#457=ORIENTED_EDGE('',*,*,#393,.T.);
#458=ORIENTED_EDGE('',*,*,#387,.F.);
#459=ORIENTED_EDGE('',*,*,#413,.F.);
#460=ORIENTED_EDGE('',*,*,#405,.T.);
#461=EDGE_LOOP('OSCAD_TOPO/3|loop|l:5ff4705cf7f7ae2f72a2e73808ab7b88|8c4b682413207f2c0f400b70a10c2b8a0b2e9d2ef1942928832a8b5d3cf61e27',(#457,#458,#459,#460));
#462=ORIENTED_EDGE('',*,*,#411,.F.);
#463=ORIENTED_EDGE('',*,*,#409,.T.);
#464=ORIENTED_EDGE('',*,*,#413,.T.);
#465=EDGE_LOOP('OSCAD_TOPO/3|loop|l:3cf27c85641114c1ae1f02a1f99e6635|1e64ee93d482328d33cb6128d59ab5e5661c4c8c8ec4b7cd40c22637ad17c3d1',(#462,#463,#464));
#466=FACE_OUTER_BOUND('',#419,.T.);
#467=ADVANCED_FACE('OSCAD_TOPO/3|face|f:62844a779a5584302b42afeec1fe9696|556a22c1d1eb716d461af855ccb6ccb5497b1212b70c0c75c55a055f6706daee',(#466),#31,.T.);
#468=FACE_OUTER_BOUND('',#424,.T.);
#469=ADVANCED_FACE('OSCAD_TOPO/3|face|f:fb0b0258d62fbd072f7e5cb42576ac5c|1462d7048df79535b05dd89667f7e2ae4447d071ca1aa0940daf334bd8900d30',(#468),#36,.T.);
#470=FACE_OUTER_BOUND('',#430,.T.);
#471=ADVANCED_FACE('OSCAD_TOPO/3|face|f:45d0890952d85ba77260cbbb1c41c6ca|ab457636ef55361587d9eb60d14919c7ae6d9a08ebff01640eda0682fca3216c',(#470),#41,.T.);
#472=FACE_OUTER_BOUND('',#436,.T.);
#473=ADVANCED_FACE('OSCAD_TOPO/3|face|f:13ba7b6b9f2cb92aa39b12018eaea806|5820d8827258881b86d2857251c5ae66f5025615f470c800705b97df8b5aad28',(#472),#46,.T.);
#474=FACE_OUTER_BOUND('',#441,.T.);
#475=ADVANCED_FACE('OSCAD_TOPO/3|face|f:838a894f005f7be1354740ecd8ab637f|b342a91c5513a44f10e1c5eecf7c13ad8ddc46291c018438c7cc80f92293a1d0',(#474),#51,.T.);
#476=FACE_OUTER_BOUND('',#446,.T.);
#477=ADVANCED_FACE('OSCAD_TOPO/3|face|f:9fa75f5bbfdd7401b0c015c39aa325eb|1deca47de6f683ec38f59c4e85c1944ae165753d83fc5e2ac434374c28cd707c',(#476),#56,.T.);
#478=FACE_OUTER_BOUND('',#451,.T.);
#479=ADVANCED_FACE('OSCAD_TOPO/3|face|f:b8cf5bd195160d9558affdeedc094f55|a25c8a599ace75cc2b7c18ca39f4a0e03a647e647e7ec119a1b9e24b6e2be869',(#478),#63,.T.);
#480=FACE_OUTER_BOUND('',#456,.T.);
#481=ADVANCED_FACE('OSCAD_TOPO/3|face|f:e694166606631f9d9c90a144dc84cac3|872e11df20d5aecfc9c1b72a0ebf9226c0f26461852e7a623a25d2f62bfa7ff6',(#480),#70,.T.);
#482=FACE_OUTER_BOUND('',#461,.T.);
#483=ADVANCED_FACE('OSCAD_TOPO/3|face|f:4d6e513a81475396cb9432b378e1d3da|b33f96f1058c6af4e1ab065fe4e0131c174a96068cfc8690221ce53b49e61867',(#482),#77,.T.);
#484=FACE_OUTER_BOUND('',#465,.T.);
#485=ADVANCED_FACE('OSCAD_TOPO/3|face|f:ca9609d89529c04b0df4786d2c71c289|a60e25292a0490bea7aeebac3a26479390e668e08c2c816558c4032858b16e76',(#484),#87,.T.);
#486=CLOSED_SHELL('OSCAD_TOPO/3|shell|s:7344d4912c05084d6f564ba740f8f690|2667be7ebcf2d98a902bf944a62c3d3014f84423bab85201af100b6e7bffa1e0',(#467,#469,#471,#473,#475,#477,#479,#481,#483,#485));
#487=MANIFOLD_SOLID_BREP('OSCAD_TOPO/3|body|b:26c2c82bea240c5aeb89ff880eb19554|70b9ebae28bdba1954c150d9ffae9f9989f2210d900b1617125c1580990fe401',#486);
#488=(LENGTH_UNIT()NAMED_UNIT(*)SI_UNIT(.MILLI.,.METRE.));
#489=UNCERTAINTY_MEASURE_WITH_UNIT(LENGTH_MEASURE(9.99999999999999955E-8),#488,'distance_accuracy_value','');
#490=(GEOMETRIC_REPRESENTATION_CONTEXT(3)GLOBAL_UNCERTAINTY_ASSIGNED_CONTEXT((#489))GLOBAL_UNIT_ASSIGNED_CONTEXT((#488))REPRESENTATION_CONTEXT('','3D'));
#491=ADVANCED_BREP_SHAPE_REPRESENTATION('',(#487),#490);
#492=APPLICATION_CONTEXT('managed model based 3d engineering');
#493=PRODUCT_CONTEXT('',#492,'mechanical');
#494=PRODUCT('model','model','',(#493));
#495=PRODUCT_DEFINITION_FORMATION('1','',#494);
#496=PRODUCT_DEFINITION_CONTEXT('part definition',#492,'design');
#497=PRODUCT_DEFINITION('design','',#495,#496);
#498=PRODUCT_DEFINITION_SHAPE('','',#497);
#499=SHAPE_DEFINITION_REPRESENTATION(#498,#491);
ENDSEC;
END-ISO-10303-21;
