ISO-10303-21;
HEADER;
FILE_DESCRIPTION(('OpenSCAD Viewer retained AP242 B-rep'),'2;1');
FILE_NAME('model.step','',(''),(''),'OpenSCAD Viewer','OpenSCAD Viewer','');
FILE_SCHEMA(('AP242_MANAGED_MODEL_BASED_3D_ENGINEERING_MIM_LF'));
ENDSEC;
DATA;
#1=CARTESIAN_POINT('',(8.74116841964065827E0,-4.04865374474732143E-1,1.73506317436056712E1));
#2=VERTEX_POINT('OSCAD_TOPO/3|vertex|v:68dde51bf6701afe32d08ee69272262e|7c9b815a9aef65796e7ad3d7e7df8bea87e329a3bbed3d93a99df8101a2c61c4',#1);
#3=CARTESIAN_POINT('',(1.63829710277318945E1,2.55910834584944613E0,2.30793063446104867E1));
#4=VERTEX_POINT('OSCAD_TOPO/3|vertex|v:ef6181cb7bd079f30ef8c5661c740744|a7d7bad71f243cb26d615b4baf110a7b6dd37c3cec789b0459a77396db241820',#3);
#5=CARTESIAN_POINT('',(1.83718559035391849E1,-2.56869205498374464E0,2.30793063446104867E1));
#6=VERTEX_POINT('OSCAD_TOPO/3|vertex|v:45a6a5b34006c33753382056c1411011|bdcba779a26f9583efd16ebb952c36462f709474b527a8191b7542dd112b7a06',#5);
#7=CARTESIAN_POINT('',(1.73654438314287809E1,-5.64050384907987556E0,2.16471376943592873E1));
#8=VERTEX_POINT('OSCAD_TOPO/3|vertex|v:5946a103b555a1fad2b4cf523608fb39|30450641addcb5abb0debe8bde9028b1786e00eb592684bfc35d03e77f39fa64',#7);
#9=CARTESIAN_POINT('',(1.16340918753603546E1,-7.86348413932301060E0,1.73506317436056712E1));
#10=VERTEX_POINT('OSCAD_TOPO/3|vertex|v:f6e405516adfaf3714c60b863ff5e48d|11fecac7b57ce01e1678c5f36a1e44cdc5d756cd8339c16436f918349e6dad70',#9);
#11=CARTESIAN_POINT('',(5.53656842888334033E0,-1.64781165873217006E0,2.22685198506785511E1));
#12=VERTEX_POINT('OSCAD_TOPO/3|vertex|v:562405b0e718ea825f1e07c018fe602a|43711cb66d6b8a7431eec7b78ef367239b703dd0f31815492c1786e4ea25e888',#11);
#13=CARTESIAN_POINT('',(7.52545330469063067E0,-6.77561205956536128E0,2.22685198506785511E1));
#14=VERTEX_POINT('OSCAD_TOPO/3|vertex|v:ed40fa92455b0a0a2a06788f04ebae71|c7abc3589fa480d009656f6945c03fe1628e37c27d1a5842ee19198bc05ab713',#13);
#15=CARTESIAN_POINT('',(1.32568052607590587E1,-4.55263176932222624E0,2.65650258014321636E1));
#16=VERTEX_POINT('OSCAD_TOPO/3|vertex|v:6fa122a6fd0dee876421dc6481013935|52703c0f1b47866835cc6917c1bc973c03a9cb791b576914876e09f137753a6f',#15);
#17=CARTESIAN_POINT('',(1.12679203849517684E1,5.75168631510964090E-1,2.65650258014321636E1));
#18=VERTEX_POINT('OSCAD_TOPO/3|vertex|v:16658f4053e42111c5ad54f28ff4b5ad|153ba608f60815231e5ad2bac5821961cd90a0d1edbece80d8743c218ceac53b',#17);
#19=CARTESIAN_POINT('',(9.76474188075191840E0,-8.58853613847318265E0,2.02193998060648497E1));
#20=VERTEX_POINT('OSCAD_TOPO/3|vertex|v:d243f3fc11ae397a4fd84ad270922afb|e9482c739c381eab4718c8cb58a60ddb5d0c039f8a55faafd092b0e0beb10f95',#19);
#21=CARTESIAN_POINT('',(1.45136210331234583E1,1.83405634669927498E0,2.59480744070696687E1));
#22=VERTEX_POINT('OSCAD_TOPO/3|vertex|v:cedc97dd397f2dfb16186c76ab7f8833|05cb8426fc1191a9082a1d9f5f34e883ed4e41c553155324a369a9cdf55c58af',#21);
#23=CARTESIAN_POINT('',(1.65025059089307504E1,-3.29374405413391669E0,2.59480744070696687E1));
#24=VERTEX_POINT('OSCAD_TOPO/3|vertex|v:bf65a0996f409ad2d16a07efc616e847|4f90d67d52b5ba583ca95f37d82878acd5174b710fccce7f3defc7b0154c4382',#23);
#25=CARTESIAN_POINT('',(1.54960938368203465E1,-6.36555584823004761E0,2.45159057568184622E1));
#26=VERTEX_POINT('OSCAD_TOPO/3|vertex|v:f8769f0fc91b3a69b33eb52f267929e4|ac8799cd172fb863ba6a2b0d22811d1191c600bee795936f1292e9018ab17367',#25);
#27=CARTESIAN_POINT('',(8.74116841964065827E0,-4.04865374474732143E-1,1.73506317436056712E1));
#28=CARTESIAN_POINT('',(1.16340918753603546E1,-7.86348413932301060E0,1.73506317436056712E1));
#29=CARTESIAN_POINT('',(1.63829710277318945E1,2.55910834584944613E0,2.30793063446104867E1));
#30=CARTESIAN_POINT('',(1.92758944834515908E1,-4.89951041899883144E0,2.30793063446104867E1));
#31=B_SPLINE_SURFACE_WITH_KNOTS('',1,1,((#27,#28),(#29,#30)),.UNSPECIFIED.,.F.,.F.,.F.,(2,2),(2,2),(0.00000000000000000E0,1.00000000000000000E0),(0.00000000000000000E0,1.00000000000000000E0),.UNSPECIFIED.);
#32=CARTESIAN_POINT('',(1.31783710369745766E1,1.31616206159200910E0,2.79971944516833666E1));
#33=CARTESIAN_POINT('',(1.60712944926942711E1,-6.14245670325626847E0,2.79971944516833666E1));
#34=CARTESIAN_POINT('',(5.53656842888334033E0,-1.64781165873217006E0,2.22685198506785511E1));
#35=CARTESIAN_POINT('',(8.42949188460303667E0,-9.10643042358044852E0,2.22685198506785511E1));
#36=B_SPLINE_SURFACE_WITH_KNOTS('',1,1,((#32,#33),(#34,#35)),.UNSPECIFIED.,.F.,.F.,.F.,(2,2),(2,2),(0.00000000000000000E0,1.00000000000000000E0),(0.00000000000000000E0,1.00000000000000000E0),.UNSPECIFIED.);
#37=CARTESIAN_POINT('',(8.74116841964065827E0,-4.04865374474732143E-1,1.73506317436056712E1));
#38=CARTESIAN_POINT('',(5.53656842888334033E0,-1.64781165873217006E0,2.22685198506785511E1));
#39=CARTESIAN_POINT('',(1.16340918753603546E1,-7.86348413932301060E0,1.73506317436056712E1));
#40=CARTESIAN_POINT('',(8.42949188460303667E0,-9.10643042358044852E0,2.22685198506785511E1));
#41=B_SPLINE_SURFACE_WITH_KNOTS('',1,1,((#37,#38),(#39,#40)),.UNSPECIFIED.,.F.,.F.,.F.,(2,2),(2,2),(0.00000000000000000E0,1.00000000000000000E0),(0.00000000000000000E0,1.00000000000000000E0),.UNSPECIFIED.);
#42=CARTESIAN_POINT('',(1.63829710277318945E1,2.55910834584944613E0,2.30793063446104867E1));
#43=CARTESIAN_POINT('',(1.31783710369745766E1,1.31616206159200910E0,2.79971944516833666E1));
#44=CARTESIAN_POINT('',(8.74116841964065827E0,-4.04865374474732143E-1,1.73506317436056712E1));
#45=CARTESIAN_POINT('',(5.53656842888334033E0,-1.64781165873217006E0,2.22685198506785511E1));
#46=B_SPLINE_SURFACE_WITH_KNOTS('',1,1,((#42,#43),(#44,#45)),.UNSPECIFIED.,.F.,.F.,.F.,(2,2),(2,2),(0.00000000000000000E0,1.00000000000000000E0),(0.00000000000000000E0,1.00000000000000000E0),.UNSPECIFIED.);
#47=CARTESIAN_POINT('',(1.92758944834515908E1,-4.89951041899883144E0,2.30793063446104867E1));
#48=CARTESIAN_POINT('',(1.60712944926942711E1,-6.14245670325626847E0,2.79971944516833666E1));
#49=CARTESIAN_POINT('',(1.63829710277318945E1,2.55910834584944613E0,2.30793063446104867E1));
#50=CARTESIAN_POINT('',(1.31783710369745766E1,1.31616206159200910E0,2.79971944516833666E1));
#51=B_SPLINE_SURFACE_WITH_KNOTS('',1,1,((#47,#48),(#49,#50)),.UNSPECIFIED.,.F.,.F.,.F.,(2,2),(2,2),(0.00000000000000000E0,1.00000000000000000E0),(0.00000000000000000E0,1.00000000000000000E0),.UNSPECIFIED.);
#52=CARTESIAN_POINT('',(1.16340918753603546E1,-7.86348413932301060E0,1.73506317436056712E1));
#53=CARTESIAN_POINT('',(8.42949188460303667E0,-9.10643042358044852E0,2.22685198506785511E1));
#54=CARTESIAN_POINT('',(1.92758944834515908E1,-4.89951041899883144E0,2.30793063446104867E1));
#55=CARTESIAN_POINT('',(1.60712944926942711E1,-6.14245670325626847E0,2.79971944516833666E1));
#56=B_SPLINE_SURFACE_WITH_KNOTS('',1,1,((#52,#53),(#54,#55)),.UNSPECIFIED.,.F.,.F.,.F.,(2,2),(2,2),(0.00000000000000000E0,1.00000000000000000E0),(0.00000000000000000E0,1.00000000000000000E0),.UNSPECIFIED.);
#57=CARTESIAN_POINT('',(1.73654438314287809E1,-5.64050384907987556E0,2.16471376943592873E1));
#58=CARTESIAN_POINT('',(1.54960938368203465E1,-6.36555584823004761E0,2.45159057568184622E1));
#59=CARTESIAN_POINT('',(1.92758944834515908E1,-4.89951041899883144E0,2.30793063446104867E1));
#60=CARTESIAN_POINT('',(1.74065444888431529E1,-5.62456241814900260E0,2.59480744070696687E1));
#61=CARTESIAN_POINT('',(1.83718559035391849E1,-2.56869205498374464E0,2.30793063446104867E1));
#62=CARTESIAN_POINT('',(1.65025059089307504E1,-3.29374405413391669E0,2.59480744070696687E1));
#63=(BOUNDED_SURFACE()B_SPLINE_SURFACE(2,1,((#57,#58),(#59,#60),(#61,#62)),.UNSPECIFIED.,.F.,.F.,.F.)B_SPLINE_SURFACE_WITH_KNOTS((3,3),(2,2),(0.00000000000000000E0,1.00000000000000000E0),(0.00000000000000000E0,1.00000000000000000E0),.UNSPECIFIED.)GEOMETRIC_REPRESENTATION_ITEM()RATIONAL_B_SPLINE_SURFACE(((1.00000000000000000E0,1.00000000000000000E0),(7.07106781186547573E-1,7.07106781186547573E-1),(1.00000000000000000E0,1.00000000000000000E0)))REPRESENTATION_ITEM('')SURFACE());
#64=CARTESIAN_POINT('',(1.45136210331234583E1,1.83405634669927498E0,2.59480744070696687E1));
#65=CARTESIAN_POINT('',(1.65025059089307504E1,-3.29374405413391669E0,2.59480744070696687E1));
#66=CARTESIAN_POINT('',(1.31783710369745766E1,1.31616206159200910E0,2.79971944516833666E1));
#67=CARTESIAN_POINT('',(1.51672559127818669E1,-3.81163833924118212E0,2.79971944516833666E1));
#68=CARTESIAN_POINT('',(1.12679203849517684E1,5.75168631510964090E-1,2.65650258014321636E1));
#69=CARTESIAN_POINT('',(1.32568052607590587E1,-4.55263176932222624E0,2.65650258014321636E1));
#70=(BOUNDED_SURFACE()B_SPLINE_SURFACE(2,1,((#64,#65),(#66,#67),(#68,#69)),.UNSPECIFIED.,.F.,.F.,.F.)B_SPLINE_SURFACE_WITH_KNOTS((3,3),(2,2),(0.00000000000000000E0,1.00000000000000000E0),(0.00000000000000000E0,1.00000000000000000E0),.UNSPECIFIED.)GEOMETRIC_REPRESENTATION_ITEM()RATIONAL_B_SPLINE_SURFACE(((2.00000000000000000E0,2.00000000000000000E0),(1.00000000000000000E0,1.00000000000000000E0),(1.00000000000000000E0,1.00000000000000000E0)))REPRESENTATION_ITEM('')SURFACE());
#71=CARTESIAN_POINT('',(7.52545330469063067E0,-6.77561205956536128E0,2.22685198506785511E1));
#72=CARTESIAN_POINT('',(1.32568052607590587E1,-4.55263176932222624E0,2.65650258014321636E1));
#73=CARTESIAN_POINT('',(8.42949188460303667E0,-9.10643042358044852E0,2.22685198506785511E1));
#74=CARTESIAN_POINT('',(1.41608438406714647E1,-6.88345013333731259E0,2.65650258014321636E1));
#75=CARTESIAN_POINT('',(9.76474188075191840E0,-8.58853613847318265E0,2.02193998060648497E1));
#76=CARTESIAN_POINT('',(1.54960938368203465E1,-6.36555584823004761E0,2.45159057568184622E1));
#77=(BOUNDED_SURFACE()B_SPLINE_SURFACE(2,1,((#71,#72),(#73,#74),(#75,#76)),.UNSPECIFIED.,.F.,.F.,.F.)B_SPLINE_SURFACE_WITH_KNOTS((3,3),(2,2),(0.00000000000000000E0,1.00000000000000000E0),(0.00000000000000000E0,1.00000000000000000E0),.UNSPECIFIED.)GEOMETRIC_REPRESENTATION_ITEM()RATIONAL_B_SPLINE_SURFACE(((1.00000000000000000E0,1.00000000000000000E0),(1.00000000000000000E0,1.00000000000000000E0),(2.00000000000000000E0,2.00000000000000000E0)))REPRESENTATION_ITEM('')SURFACE());
#78=CARTESIAN_POINT('',(1.65025059089307504E1,-3.29374405413391669E0,2.59480744070696687E1));
#79=CARTESIAN_POINT('',(1.69545251988869516E1,-4.45915323614145986E0,2.59480744070696687E1));
#80=CARTESIAN_POINT('',(1.69134647435810450E1,-4.92198934513523412E0,2.47876448421147018E1));
#81=CARTESIAN_POINT('',(1.51672559127818669E1,-3.81163833924118212E0,2.79971944516833666E1));
#82=CARTESIAN_POINT('',(1.60712944926942711E1,-6.14245670325626847E0,2.79971944516833666E1));
#83=CARTESIAN_POINT('',(1.64513191628317514E1,-5.99505913318952555E0,2.52319900819440655E1));
#84=CARTESIAN_POINT('',(1.32568052607590587E1,-4.55263176932222624E0,2.65650258014321636E1));
#85=CARTESIAN_POINT('',(1.41608438406714647E1,-6.88345013333731259E0,2.65650258014321636E1));
#86=CARTESIAN_POINT('',(1.54960938368203465E1,-6.36555584823004761E0,2.45159057568184622E1));
#87=(BOUNDED_SURFACE()B_SPLINE_SURFACE(2,2,((#78,#79,#80),(#81,#82,#83),(#84,#85,#86)),.UNSPECIFIED.,.F.,.F.,.F.)B_SPLINE_SURFACE_WITH_KNOTS((3,3),(3,3),(0.00000000000000000E0,1.00000000000000000E0),(0.00000000000000000E0,1.00000000000000000E0),.UNSPECIFIED.)GEOMETRIC_REPRESENTATION_ITEM()RATIONAL_B_SPLINE_SURFACE(((2.00000000000000000E0,2.00000000000000000E0,3.00000000000000000E0),(1.00000000000000000E0,1.00000000000000000E0,2.00000000000000000E0),(1.00000000000000000E0,1.00000000000000000E0,2.00000000000000000E0)))REPRESENTATION_ITEM('')SURFACE());
#88=CARTESIAN_POINT('',(8.74116841964065827E0,-4.04865374474732143E-1,1.73506317436056712E1));
#89=CARTESIAN_POINT('',(1.63829710277318945E1,2.55910834584944613E0,2.30793063446104867E1));
#90=B_SPLINE_CURVE_WITH_KNOTS('',1,(#88,#89),.UNSPECIFIED.,.F.,.F.,(2,2),(0.00000000000000000E0,1.00000000000000000E0),.UNSPECIFIED.);
#91=CARTESIAN_POINT('',(1.63829710277318945E1,2.55910834584944613E0,2.30793063446104867E1));
#92=CARTESIAN_POINT('',(1.83718559035391849E1,-2.56869205498374464E0,2.30793063446104867E1));
#93=B_SPLINE_CURVE_WITH_KNOTS('',1,(#91,#92),.UNSPECIFIED.,.F.,.F.,(2,2),(0.00000000000000000E0,1.00000000000000000E0),.UNSPECIFIED.);
#94=CARTESIAN_POINT('',(1.83718559035391849E1,-2.56869205498374464E0,2.30793063446104867E1));
#95=CARTESIAN_POINT('',(1.92758944834515908E1,-4.89951041899883144E0,2.30793063446104867E1));
#96=CARTESIAN_POINT('',(1.73654438314287809E1,-5.64050384907987556E0,2.16471376943592873E1));
#97=(BOUNDED_CURVE()B_SPLINE_CURVE(2,(#94,#95,#96),.UNSPECIFIED.,.F.,.F.)B_SPLINE_CURVE_WITH_KNOTS((3,3),(0.00000000000000000E0,1.00000000000000000E0),.UNSPECIFIED.)CURVE()GEOMETRIC_REPRESENTATION_ITEM()RATIONAL_B_SPLINE_CURVE((1.00000000000000000E0,7.07106781186547573E-1,1.00000000000000000E0))REPRESENTATION_ITEM(''));
#98=CARTESIAN_POINT('',(1.16340918753603546E1,-7.86348413932301060E0,1.73506317436056712E1));
#99=CARTESIAN_POINT('',(1.73654438314287809E1,-5.64050384907987556E0,2.16471376943592873E1));
#100=B_SPLINE_CURVE_WITH_KNOTS('',1,(#98,#99),.UNSPECIFIED.,.F.,.F.,(2,2),(0.00000000000000000E0,1.00000000000000000E0),.UNSPECIFIED.);
#101=CARTESIAN_POINT('',(8.74116841964065827E0,-4.04865374474732143E-1,1.73506317436056712E1));
#102=CARTESIAN_POINT('',(1.16340918753603546E1,-7.86348413932301060E0,1.73506317436056712E1));
#103=B_SPLINE_CURVE_WITH_KNOTS('',1,(#101,#102),.UNSPECIFIED.,.F.,.F.,(2,2),(0.00000000000000000E0,1.00000000000000000E0),.UNSPECIFIED.);
#104=CARTESIAN_POINT('',(5.53656842888334033E0,-1.64781165873217006E0,2.22685198506785511E1));
#105=CARTESIAN_POINT('',(7.52545330469063067E0,-6.77561205956536128E0,2.22685198506785511E1));
#106=B_SPLINE_CURVE_WITH_KNOTS('',1,(#104,#105),.UNSPECIFIED.,.F.,.F.,(2,2),(0.00000000000000000E0,1.00000000000000000E0),.UNSPECIFIED.);
#107=CARTESIAN_POINT('',(1.32568052607590587E1,-4.55263176932222624E0,2.65650258014321636E1));
#108=CARTESIAN_POINT('',(7.52545330469063067E0,-6.77561205956536128E0,2.22685198506785511E1));
#109=B_SPLINE_CURVE_WITH_KNOTS('',1,(#107,#108),.UNSPECIFIED.,.F.,.F.,(2,2),(0.00000000000000000E0,1.00000000000000000E0),.UNSPECIFIED.);
#110=CARTESIAN_POINT('',(1.32568052607590587E1,-4.55263176932222624E0,2.65650258014321636E1));
#111=CARTESIAN_POINT('',(1.12679203849517684E1,5.75168631510964090E-1,2.65650258014321636E1));
#112=B_SPLINE_CURVE_WITH_KNOTS('',1,(#110,#111),.UNSPECIFIED.,.F.,.F.,(2,2),(0.00000000000000000E0,1.00000000000000000E0),.UNSPECIFIED.);
#113=CARTESIAN_POINT('',(5.53656842888334033E0,-1.64781165873217006E0,2.22685198506785511E1));
#114=CARTESIAN_POINT('',(1.12679203849517684E1,5.75168631510964090E-1,2.65650258014321636E1));
#115=B_SPLINE_CURVE_WITH_KNOTS('',1,(#113,#114),.UNSPECIFIED.,.F.,.F.,(2,2),(0.00000000000000000E0,1.00000000000000000E0),.UNSPECIFIED.);
#116=CARTESIAN_POINT('',(1.16340918753603546E1,-7.86348413932301060E0,1.73506317436056712E1));
#117=CARTESIAN_POINT('',(9.76474188075191840E0,-8.58853613847318265E0,2.02193998060648497E1));
#118=B_SPLINE_CURVE_WITH_KNOTS('',1,(#116,#117),.UNSPECIFIED.,.F.,.F.,(2,2),(0.00000000000000000E0,1.00000000000000000E0),.UNSPECIFIED.);
#119=CARTESIAN_POINT('',(9.76474188075191840E0,-8.58853613847318265E0,2.02193998060648497E1));
#120=CARTESIAN_POINT('',(8.42949188460303667E0,-9.10643042358044852E0,2.22685198506785511E1));
#121=CARTESIAN_POINT('',(7.52545330469063067E0,-6.77561205956536128E0,2.22685198506785511E1));
#122=(BOUNDED_CURVE()B_SPLINE_CURVE(2,(#119,#120,#121),.UNSPECIFIED.,.F.,.F.)B_SPLINE_CURVE_WITH_KNOTS((3,3),(0.00000000000000000E0,1.00000000000000000E0),.UNSPECIFIED.)CURVE()GEOMETRIC_REPRESENTATION_ITEM()RATIONAL_B_SPLINE_CURVE((2.00000000000000000E0,1.00000000000000000E0,1.00000000000000000E0))REPRESENTATION_ITEM(''));
#123=CARTESIAN_POINT('',(8.74116841964065827E0,-4.04865374474732143E-1,1.73506317436056712E1));
#124=CARTESIAN_POINT('',(5.53656842888334033E0,-1.64781165873217006E0,2.22685198506785511E1));
#125=B_SPLINE_CURVE_WITH_KNOTS('',1,(#123,#124),.UNSPECIFIED.,.F.,.F.,(2,2),(0.00000000000000000E0,1.00000000000000000E0),.UNSPECIFIED.);
#126=CARTESIAN_POINT('',(1.45136210331234583E1,1.83405634669927498E0,2.59480744070696687E1));
#127=CARTESIAN_POINT('',(1.31783710369745766E1,1.31616206159200910E0,2.79971944516833666E1));
#128=CARTESIAN_POINT('',(1.12679203849517684E1,5.75168631510964090E-1,2.65650258014321636E1));
#129=(BOUNDED_CURVE()B_SPLINE_CURVE(2,(#126,#127,#128),.UNSPECIFIED.,.F.,.F.)B_SPLINE_CURVE_WITH_KNOTS((3,3),(0.00000000000000000E0,1.00000000000000000E0),.UNSPECIFIED.)CURVE()GEOMETRIC_REPRESENTATION_ITEM()RATIONAL_B_SPLINE_CURVE((2.00000000000000000E0,1.00000000000000000E0,1.00000000000000000E0))REPRESENTATION_ITEM(''));
#130=CARTESIAN_POINT('',(1.63829710277318945E1,2.55910834584944613E0,2.30793063446104867E1));
#131=CARTESIAN_POINT('',(1.45136210331234583E1,1.83405634669927498E0,2.59480744070696687E1));
#132=B_SPLINE_CURVE_WITH_KNOTS('',1,(#130,#131),.UNSPECIFIED.,.F.,.F.,(2,2),(0.00000000000000000E0,1.00000000000000000E0),.UNSPECIFIED.);
#133=CARTESIAN_POINT('',(1.65025059089307504E1,-3.29374405413391669E0,2.59480744070696687E1));
#134=CARTESIAN_POINT('',(1.45136210331234583E1,1.83405634669927498E0,2.59480744070696687E1));
#135=B_SPLINE_CURVE_WITH_KNOTS('',1,(#133,#134),.UNSPECIFIED.,.F.,.F.,(2,2),(0.00000000000000000E0,1.00000000000000000E0),.UNSPECIFIED.);
#136=CARTESIAN_POINT('',(1.83718559035391849E1,-2.56869205498374464E0,2.30793063446104867E1));
#137=CARTESIAN_POINT('',(1.65025059089307504E1,-3.29374405413391669E0,2.59480744070696687E1));
#138=B_SPLINE_CURVE_WITH_KNOTS('',1,(#136,#137),.UNSPECIFIED.,.F.,.F.,(2,2),(0.00000000000000000E0,1.00000000000000000E0),.UNSPECIFIED.);
#139=CARTESIAN_POINT('',(1.73654438314287809E1,-5.64050384907987556E0,2.16471376943592873E1));
#140=CARTESIAN_POINT('',(1.54960938368203465E1,-6.36555584823004761E0,2.45159057568184622E1));
#141=B_SPLINE_CURVE_WITH_KNOTS('',1,(#139,#140),.UNSPECIFIED.,.F.,.F.,(2,2),(0.00000000000000000E0,1.00000000000000000E0),.UNSPECIFIED.);
#142=CARTESIAN_POINT('',(1.54960938368203465E1,-6.36555584823004761E0,2.45159057568184622E1));
#143=CARTESIAN_POINT('',(9.76474188075191840E0,-8.58853613847318265E0,2.02193998060648497E1));
#144=B_SPLINE_CURVE_WITH_KNOTS('',1,(#142,#143),.UNSPECIFIED.,.F.,.F.,(2,2),(0.00000000000000000E0,1.00000000000000000E0),.UNSPECIFIED.);
#145=CARTESIAN_POINT('',(1.65025059089307504E1,-3.29374405413391669E0,2.59480744070696687E1));
#146=CARTESIAN_POINT('',(1.74065444888431529E1,-5.62456241814900260E0,2.59480744070696687E1));
#147=CARTESIAN_POINT('',(1.54960938368203465E1,-6.36555584823004761E0,2.45159057568184622E1));
#148=(BOUNDED_CURVE()B_SPLINE_CURVE(2,(#145,#146,#147),.UNSPECIFIED.,.F.,.F.)B_SPLINE_CURVE_WITH_KNOTS((3,3),(0.00000000000000000E0,1.00000000000000000E0),.UNSPECIFIED.)CURVE()GEOMETRIC_REPRESENTATION_ITEM()RATIONAL_B_SPLINE_CURVE((1.00000000000000000E0,7.07106781186547573E-1,1.00000000000000000E0))REPRESENTATION_ITEM(''));
#149=CARTESIAN_POINT('',(1.65025059089307504E1,-3.29374405413391669E0,2.59480744070696687E1));
#150=CARTESIAN_POINT('',(1.51672559127818669E1,-3.81163833924118212E0,2.79971944516833666E1));
#151=CARTESIAN_POINT('',(1.32568052607590587E1,-4.55263176932222624E0,2.65650258014321636E1));
#152=(BOUNDED_CURVE()B_SPLINE_CURVE(2,(#149,#150,#151),.UNSPECIFIED.,.F.,.F.)B_SPLINE_CURVE_WITH_KNOTS((3,3),(0.00000000000000000E0,1.00000000000000000E0),.UNSPECIFIED.)CURVE()GEOMETRIC_REPRESENTATION_ITEM()RATIONAL_B_SPLINE_CURVE((2.00000000000000000E0,1.00000000000000000E0,1.00000000000000000E0))REPRESENTATION_ITEM(''));
#153=CARTESIAN_POINT('',(1.54960938368203465E1,-6.36555584823004761E0,2.45159057568184622E1));
#154=CARTESIAN_POINT('',(1.41608438406714647E1,-6.88345013333731259E0,2.65650258014321636E1));
#155=CARTESIAN_POINT('',(1.32568052607590587E1,-4.55263176932222624E0,2.65650258014321636E1));
#156=(BOUNDED_CURVE()B_SPLINE_CURVE(2,(#153,#154,#155),.UNSPECIFIED.,.F.,.F.)B_SPLINE_CURVE_WITH_KNOTS((3,3),(0.00000000000000000E0,1.00000000000000000E0),.UNSPECIFIED.)CURVE()GEOMETRIC_REPRESENTATION_ITEM()RATIONAL_B_SPLINE_CURVE((2.00000000000000000E0,1.00000000000000000E0,1.00000000000000000E0))REPRESENTATION_ITEM(''));
#157=(GEOMETRIC_REPRESENTATION_CONTEXT(2)REPRESENTATION_CONTEXT('','2D'));
#158=CARTESIAN_POINT('',(0.00000000000000000E0,0.00000000000000000E0));
#159=CARTESIAN_POINT('',(1.00000000000000000E0,0.00000000000000000E0));
#160=B_SPLINE_CURVE_WITH_KNOTS('',1,(#158,#159),.UNSPECIFIED.,.F.,.F.,(2,2),(0.00000000000000000E0,1.00000000000000000E0),.UNSPECIFIED.);
#161=DEFINITIONAL_REPRESENTATION('',(#160),#157);
#162=PCURVE('',#31,#161);
#163=CARTESIAN_POINT('',(1.00000000000000000E0,0.00000000000000000E0));
#164=CARTESIAN_POINT('',(1.00000000000000000E0,6.87500000000000111E-1));
#165=B_SPLINE_CURVE_WITH_KNOTS('',1,(#163,#164),.UNSPECIFIED.,.F.,.F.,(2,2),(0.00000000000000000E0,1.00000000000000000E0),.UNSPECIFIED.);
#166=DEFINITIONAL_REPRESENTATION('',(#165),#157);
#167=PCURVE('',#31,#166);
#168=CARTESIAN_POINT('',(1.00000000000000000E0,6.87500000000000111E-1));
#169=CARTESIAN_POINT('',(1.00000000000000000E0,1.00000000000000000E0));
#170=CARTESIAN_POINT('',(7.50000000000000111E-1,1.00000000000000000E0));
#171=(BOUNDED_CURVE()B_SPLINE_CURVE(2,(#168,#169,#170),.UNSPECIFIED.,.F.,.F.)B_SPLINE_CURVE_WITH_KNOTS((3,3),(0.00000000000000000E0,1.00000000000000000E0),.UNSPECIFIED.)CURVE()GEOMETRIC_REPRESENTATION_ITEM()RATIONAL_B_SPLINE_CURVE((1.00000000000000000E0,7.07106781186547573E-1,1.00000000000000000E0))REPRESENTATION_ITEM(''));
#172=DEFINITIONAL_REPRESENTATION('',(#171),#157);
#173=PCURVE('',#31,#172);
#174=CARTESIAN_POINT('',(7.50000000000000111E-1,1.00000000000000000E0));
#175=CARTESIAN_POINT('',(0.00000000000000000E0,1.00000000000000000E0));
#176=B_SPLINE_CURVE_WITH_KNOTS('',1,(#174,#175),.UNSPECIFIED.,.F.,.F.,(2,2),(0.00000000000000000E0,1.00000000000000000E0),.UNSPECIFIED.);
#177=DEFINITIONAL_REPRESENTATION('',(#176),#157);
#178=PCURVE('',#31,#177);
#179=CARTESIAN_POINT('',(0.00000000000000000E0,1.00000000000000000E0));
#180=CARTESIAN_POINT('',(0.00000000000000000E0,0.00000000000000000E0));
#181=B_SPLINE_CURVE_WITH_KNOTS('',1,(#179,#180),.UNSPECIFIED.,.F.,.F.,(2,2),(0.00000000000000000E0,1.00000000000000000E0),.UNSPECIFIED.);
#182=DEFINITIONAL_REPRESENTATION('',(#181),#157);
#183=PCURVE('',#31,#182);
#184=CARTESIAN_POINT('',(1.00000000000000000E0,0.00000000000000000E0));
#185=CARTESIAN_POINT('',(1.00000000000000000E0,6.87500000000000111E-1));
#186=B_SPLINE_CURVE_WITH_KNOTS('',1,(#184,#185),.UNSPECIFIED.,.F.,.F.,(2,2),(0.00000000000000000E0,1.00000000000000000E0),.UNSPECIFIED.);
#187=DEFINITIONAL_REPRESENTATION('',(#186),#157);
#188=PCURVE('',#36,#187);
#189=CARTESIAN_POINT('',(1.00000000000000000E0,6.87500000000000111E-1));
#190=CARTESIAN_POINT('',(2.49999999999999889E-1,6.87500000000000111E-1));
#191=B_SPLINE_CURVE_WITH_KNOTS('',1,(#189,#190),.UNSPECIFIED.,.F.,.F.,(2,2),(0.00000000000000000E0,1.00000000000000000E0),.UNSPECIFIED.);
#192=DEFINITIONAL_REPRESENTATION('',(#191),#157);
#193=PCURVE('',#36,#192);
#194=CARTESIAN_POINT('',(2.49999999999999889E-1,6.87500000000000111E-1));
#195=CARTESIAN_POINT('',(2.49999999999999889E-1,0.00000000000000000E0));
#196=B_SPLINE_CURVE_WITH_KNOTS('',1,(#194,#195),.UNSPECIFIED.,.F.,.F.,(2,2),(0.00000000000000000E0,1.00000000000000000E0),.UNSPECIFIED.);
#197=DEFINITIONAL_REPRESENTATION('',(#196),#157);
#198=PCURVE('',#36,#197);
#199=CARTESIAN_POINT('',(2.49999999999999889E-1,0.00000000000000000E0));
#200=CARTESIAN_POINT('',(1.00000000000000000E0,0.00000000000000000E0));
#201=B_SPLINE_CURVE_WITH_KNOTS('',1,(#199,#200),.UNSPECIFIED.,.F.,.F.,(2,2),(0.00000000000000000E0,1.00000000000000000E0),.UNSPECIFIED.);
#202=DEFINITIONAL_REPRESENTATION('',(#201),#157);
#203=PCURVE('',#36,#202);
#204=CARTESIAN_POINT('',(0.00000000000000000E0,0.00000000000000000E0));
#205=CARTESIAN_POINT('',(1.00000000000000000E0,0.00000000000000000E0));
#206=B_SPLINE_CURVE_WITH_KNOTS('',1,(#204,#205),.UNSPECIFIED.,.F.,.F.,(2,2),(0.00000000000000000E0,1.00000000000000000E0),.UNSPECIFIED.);
#207=DEFINITIONAL_REPRESENTATION('',(#206),#157);
#208=PCURVE('',#41,#207);
#209=CARTESIAN_POINT('',(1.00000000000000000E0,0.00000000000000000E0));
#210=CARTESIAN_POINT('',(1.00000000000000000E0,5.83333333333333481E-1));
#211=B_SPLINE_CURVE_WITH_KNOTS('',1,(#209,#210),.UNSPECIFIED.,.F.,.F.,(2,2),(0.00000000000000000E0,1.00000000000000000E0),.UNSPECIFIED.);
#212=DEFINITIONAL_REPRESENTATION('',(#211),#157);
#213=PCURVE('',#41,#212);
#214=CARTESIAN_POINT('',(1.00000000000000000E0,5.83333333333333481E-1));
#215=CARTESIAN_POINT('',(1.00000000000000000E0,1.00000000000000000E0));
#216=CARTESIAN_POINT('',(6.87500000000000111E-1,1.00000000000000000E0));
#217=(BOUNDED_CURVE()B_SPLINE_CURVE(2,(#214,#215,#216),.UNSPECIFIED.,.F.,.F.)B_SPLINE_CURVE_WITH_KNOTS((3,3),(0.00000000000000000E0,1.00000000000000000E0),.UNSPECIFIED.)CURVE()GEOMETRIC_REPRESENTATION_ITEM()RATIONAL_B_SPLINE_CURVE((2.00000000000000000E0,1.00000000000000000E0,1.00000000000000000E0))REPRESENTATION_ITEM(''));
#218=DEFINITIONAL_REPRESENTATION('',(#217),#157);
#219=PCURVE('',#41,#218);
#220=CARTESIAN_POINT('',(6.87500000000000111E-1,1.00000000000000000E0));
#221=CARTESIAN_POINT('',(0.00000000000000000E0,1.00000000000000000E0));
#222=B_SPLINE_CURVE_WITH_KNOTS('',1,(#220,#221),.UNSPECIFIED.,.F.,.F.,(2,2),(0.00000000000000000E0,1.00000000000000000E0),.UNSPECIFIED.);
#223=DEFINITIONAL_REPRESENTATION('',(#222),#157);
#224=PCURVE('',#41,#223);
#225=CARTESIAN_POINT('',(0.00000000000000000E0,1.00000000000000000E0));
#226=CARTESIAN_POINT('',(0.00000000000000000E0,0.00000000000000000E0));
#227=B_SPLINE_CURVE_WITH_KNOTS('',1,(#225,#226),.UNSPECIFIED.,.F.,.F.,(2,2),(0.00000000000000000E0,1.00000000000000000E0),.UNSPECIFIED.);
#228=DEFINITIONAL_REPRESENTATION('',(#227),#157);
#229=PCURVE('',#41,#228);
#230=CARTESIAN_POINT('',(1.00000000000000000E0,0.00000000000000000E0));
#231=CARTESIAN_POINT('',(1.00000000000000000E0,1.00000000000000000E0));
#232=B_SPLINE_CURVE_WITH_KNOTS('',1,(#230,#231),.UNSPECIFIED.,.F.,.F.,(2,2),(0.00000000000000000E0,1.00000000000000000E0),.UNSPECIFIED.);
#233=DEFINITIONAL_REPRESENTATION('',(#232),#157);
#234=PCURVE('',#46,#233);
#235=CARTESIAN_POINT('',(1.00000000000000000E0,1.00000000000000000E0));
#236=CARTESIAN_POINT('',(2.49999999999999889E-1,1.00000000000000000E0));
#237=B_SPLINE_CURVE_WITH_KNOTS('',1,(#235,#236),.UNSPECIFIED.,.F.,.F.,(2,2),(0.00000000000000000E0,1.00000000000000000E0),.UNSPECIFIED.);
#238=DEFINITIONAL_REPRESENTATION('',(#237),#157);
#239=PCURVE('',#46,#238);
#240=CARTESIAN_POINT('',(2.49999999999999889E-1,1.00000000000000000E0));
#241=CARTESIAN_POINT('',(0.00000000000000000E0,1.00000000000000000E0));
#242=CARTESIAN_POINT('',(0.00000000000000000E0,5.83333333333333481E-1));
#243=(BOUNDED_CURVE()B_SPLINE_CURVE(2,(#240,#241,#242),.UNSPECIFIED.,.F.,.F.)B_SPLINE_CURVE_WITH_KNOTS((3,3),(0.00000000000000000E0,1.00000000000000000E0),.UNSPECIFIED.)CURVE()GEOMETRIC_REPRESENTATION_ITEM()RATIONAL_B_SPLINE_CURVE((1.00000000000000000E0,1.00000000000000000E0,2.00000000000000000E0))REPRESENTATION_ITEM(''));
#244=DEFINITIONAL_REPRESENTATION('',(#243),#157);
#245=PCURVE('',#46,#244);
#246=CARTESIAN_POINT('',(0.00000000000000000E0,5.83333333333333481E-1));
#247=CARTESIAN_POINT('',(0.00000000000000000E0,0.00000000000000000E0));
#248=B_SPLINE_CURVE_WITH_KNOTS('',1,(#246,#247),.UNSPECIFIED.,.F.,.F.,(2,2),(0.00000000000000000E0,1.00000000000000000E0),.UNSPECIFIED.);
#249=DEFINITIONAL_REPRESENTATION('',(#248),#157);
#250=PCURVE('',#46,#249);
#251=CARTESIAN_POINT('',(0.00000000000000000E0,0.00000000000000000E0));
#252=CARTESIAN_POINT('',(1.00000000000000000E0,0.00000000000000000E0));
#253=B_SPLINE_CURVE_WITH_KNOTS('',1,(#251,#252),.UNSPECIFIED.,.F.,.F.,(2,2),(0.00000000000000000E0,1.00000000000000000E0),.UNSPECIFIED.);
#254=DEFINITIONAL_REPRESENTATION('',(#253),#157);
#255=PCURVE('',#46,#254);
#256=CARTESIAN_POINT('',(1.00000000000000000E0,0.00000000000000000E0));
#257=CARTESIAN_POINT('',(1.00000000000000000E0,5.83333333333333481E-1));
#258=B_SPLINE_CURVE_WITH_KNOTS('',1,(#256,#257),.UNSPECIFIED.,.F.,.F.,(2,2),(0.00000000000000000E0,1.00000000000000000E0),.UNSPECIFIED.);
#259=DEFINITIONAL_REPRESENTATION('',(#258),#157);
#260=PCURVE('',#51,#259);
#261=CARTESIAN_POINT('',(1.00000000000000000E0,5.83333333333333481E-1));
#262=CARTESIAN_POINT('',(3.12499999999999889E-1,5.83333333333333481E-1));
#263=B_SPLINE_CURVE_WITH_KNOTS('',1,(#261,#262),.UNSPECIFIED.,.F.,.F.,(2,2),(0.00000000000000000E0,1.00000000000000000E0),.UNSPECIFIED.);
#264=DEFINITIONAL_REPRESENTATION('',(#263),#157);
#265=PCURVE('',#51,#264);
#266=CARTESIAN_POINT('',(3.12499999999999889E-1,5.83333333333333481E-1));
#267=CARTESIAN_POINT('',(3.12499999999999889E-1,0.00000000000000000E0));
#268=B_SPLINE_CURVE_WITH_KNOTS('',1,(#266,#267),.UNSPECIFIED.,.F.,.F.,(2,2),(0.00000000000000000E0,1.00000000000000000E0),.UNSPECIFIED.);
#269=DEFINITIONAL_REPRESENTATION('',(#268),#157);
#270=PCURVE('',#51,#269);
#271=CARTESIAN_POINT('',(3.12499999999999889E-1,0.00000000000000000E0));
#272=CARTESIAN_POINT('',(1.00000000000000000E0,0.00000000000000000E0));
#273=B_SPLINE_CURVE_WITH_KNOTS('',1,(#271,#272),.UNSPECIFIED.,.F.,.F.,(2,2),(0.00000000000000000E0,1.00000000000000000E0),.UNSPECIFIED.);
#274=DEFINITIONAL_REPRESENTATION('',(#273),#157);
#275=PCURVE('',#51,#274);
#276=CARTESIAN_POINT('',(0.00000000000000000E0,0.00000000000000000E0));
#277=CARTESIAN_POINT('',(7.50000000000000111E-1,0.00000000000000000E0));
#278=B_SPLINE_CURVE_WITH_KNOTS('',1,(#276,#277),.UNSPECIFIED.,.F.,.F.,(2,2),(0.00000000000000000E0,1.00000000000000000E0),.UNSPECIFIED.);
#279=DEFINITIONAL_REPRESENTATION('',(#278),#157);
#280=PCURVE('',#56,#279);
#281=CARTESIAN_POINT('',(7.50000000000000111E-1,0.00000000000000000E0));
#282=CARTESIAN_POINT('',(7.50000000000000111E-1,5.83333333333333481E-1));
#283=B_SPLINE_CURVE_WITH_KNOTS('',1,(#281,#282),.UNSPECIFIED.,.F.,.F.,(2,2),(0.00000000000000000E0,1.00000000000000000E0),.UNSPECIFIED.);
#284=DEFINITIONAL_REPRESENTATION('',(#283),#157);
#285=PCURVE('',#56,#284);
#286=CARTESIAN_POINT('',(7.50000000000000111E-1,5.83333333333333481E-1));
#287=CARTESIAN_POINT('',(0.00000000000000000E0,5.83333333333333481E-1));
#288=B_SPLINE_CURVE_WITH_KNOTS('',1,(#286,#287),.UNSPECIFIED.,.F.,.F.,(2,2),(0.00000000000000000E0,1.00000000000000000E0),.UNSPECIFIED.);
#289=DEFINITIONAL_REPRESENTATION('',(#288),#157);
#290=PCURVE('',#56,#289);
#291=CARTESIAN_POINT('',(0.00000000000000000E0,5.83333333333333481E-1));
#292=CARTESIAN_POINT('',(0.00000000000000000E0,0.00000000000000000E0));
#293=B_SPLINE_CURVE_WITH_KNOTS('',1,(#291,#292),.UNSPECIFIED.,.F.,.F.,(2,2),(0.00000000000000000E0,1.00000000000000000E0),.UNSPECIFIED.);
#294=DEFINITIONAL_REPRESENTATION('',(#293),#157);
#295=PCURVE('',#56,#294);
#296=CARTESIAN_POINT('',(1.00000000000000000E0,0.00000000000000000E0));
#297=CARTESIAN_POINT('',(1.00000000000000000E0,1.00000000000000000E0));
#298=B_SPLINE_CURVE_WITH_KNOTS('',1,(#296,#297),.UNSPECIFIED.,.F.,.F.,(2,2),(0.00000000000000000E0,1.00000000000000000E0),.UNSPECIFIED.);
#299=DEFINITIONAL_REPRESENTATION('',(#298),#157);
#300=PCURVE('',#63,#299);
#301=CARTESIAN_POINT('',(1.00000000000000000E0,1.00000000000000000E0));
#302=CARTESIAN_POINT('',(0.00000000000000000E0,1.00000000000000000E0));
#303=B_SPLINE_CURVE_WITH_KNOTS('',1,(#301,#302),.UNSPECIFIED.,.F.,.F.,(2,2),(0.00000000000000000E0,1.00000000000000000E0),.UNSPECIFIED.);
#304=DEFINITIONAL_REPRESENTATION('',(#303),#157);
#305=PCURVE('',#63,#304);
#306=CARTESIAN_POINT('',(0.00000000000000000E0,1.00000000000000000E0));
#307=CARTESIAN_POINT('',(0.00000000000000000E0,0.00000000000000000E0));
#308=B_SPLINE_CURVE_WITH_KNOTS('',1,(#306,#307),.UNSPECIFIED.,.F.,.F.,(2,2),(0.00000000000000000E0,1.00000000000000000E0),.UNSPECIFIED.);
#309=DEFINITIONAL_REPRESENTATION('',(#308),#157);
#310=PCURVE('',#63,#309);
#311=CARTESIAN_POINT('',(0.00000000000000000E0,0.00000000000000000E0));
#312=CARTESIAN_POINT('',(1.00000000000000000E0,0.00000000000000000E0));
#313=B_SPLINE_CURVE_WITH_KNOTS('',1,(#311,#312),.UNSPECIFIED.,.F.,.F.,(2,2),(0.00000000000000000E0,1.00000000000000000E0),.UNSPECIFIED.);
#314=DEFINITIONAL_REPRESENTATION('',(#313),#157);
#315=PCURVE('',#63,#314);
#316=CARTESIAN_POINT('',(0.00000000000000000E0,0.00000000000000000E0));
#317=CARTESIAN_POINT('',(1.00000000000000000E0,0.00000000000000000E0));
#318=B_SPLINE_CURVE_WITH_KNOTS('',1,(#316,#317),.UNSPECIFIED.,.F.,.F.,(2,2),(0.00000000000000000E0,1.00000000000000000E0),.UNSPECIFIED.);
#319=DEFINITIONAL_REPRESENTATION('',(#318),#157);
#320=PCURVE('',#70,#319);
#321=CARTESIAN_POINT('',(1.00000000000000000E0,0.00000000000000000E0));
#322=CARTESIAN_POINT('',(1.00000000000000000E0,1.00000000000000000E0));
#323=B_SPLINE_CURVE_WITH_KNOTS('',1,(#321,#322),.UNSPECIFIED.,.F.,.F.,(2,2),(0.00000000000000000E0,1.00000000000000000E0),.UNSPECIFIED.);
#324=DEFINITIONAL_REPRESENTATION('',(#323),#157);
#325=PCURVE('',#70,#324);
#326=CARTESIAN_POINT('',(1.00000000000000000E0,1.00000000000000000E0));
#327=CARTESIAN_POINT('',(0.00000000000000000E0,1.00000000000000000E0));
#328=B_SPLINE_CURVE_WITH_KNOTS('',1,(#326,#327),.UNSPECIFIED.,.F.,.F.,(2,2),(0.00000000000000000E0,1.00000000000000000E0),.UNSPECIFIED.);
#329=DEFINITIONAL_REPRESENTATION('',(#328),#157);
#330=PCURVE('',#70,#329);
#331=CARTESIAN_POINT('',(0.00000000000000000E0,1.00000000000000000E0));
#332=CARTESIAN_POINT('',(0.00000000000000000E0,0.00000000000000000E0));
#333=B_SPLINE_CURVE_WITH_KNOTS('',1,(#331,#332),.UNSPECIFIED.,.F.,.F.,(2,2),(0.00000000000000000E0,1.00000000000000000E0),.UNSPECIFIED.);
#334=DEFINITIONAL_REPRESENTATION('',(#333),#157);
#335=PCURVE('',#70,#334);
#336=CARTESIAN_POINT('',(1.00000000000000000E0,0.00000000000000000E0));
#337=CARTESIAN_POINT('',(1.00000000000000000E0,1.00000000000000000E0));
#338=B_SPLINE_CURVE_WITH_KNOTS('',1,(#336,#337),.UNSPECIFIED.,.F.,.F.,(2,2),(0.00000000000000000E0,1.00000000000000000E0),.UNSPECIFIED.);
#339=DEFINITIONAL_REPRESENTATION('',(#338),#157);
#340=PCURVE('',#77,#339);
#341=CARTESIAN_POINT('',(1.00000000000000000E0,1.00000000000000000E0));
#342=CARTESIAN_POINT('',(0.00000000000000000E0,1.00000000000000000E0));
#343=B_SPLINE_CURVE_WITH_KNOTS('',1,(#341,#342),.UNSPECIFIED.,.F.,.F.,(2,2),(0.00000000000000000E0,1.00000000000000000E0),.UNSPECIFIED.);
#344=DEFINITIONAL_REPRESENTATION('',(#343),#157);
#345=PCURVE('',#77,#344);
#346=CARTESIAN_POINT('',(0.00000000000000000E0,1.00000000000000000E0));
#347=CARTESIAN_POINT('',(0.00000000000000000E0,0.00000000000000000E0));
#348=B_SPLINE_CURVE_WITH_KNOTS('',1,(#346,#347),.UNSPECIFIED.,.F.,.F.,(2,2),(0.00000000000000000E0,1.00000000000000000E0),.UNSPECIFIED.);
#349=DEFINITIONAL_REPRESENTATION('',(#348),#157);
#350=PCURVE('',#77,#349);
#351=CARTESIAN_POINT('',(0.00000000000000000E0,0.00000000000000000E0));
#352=CARTESIAN_POINT('',(1.00000000000000000E0,0.00000000000000000E0));
#353=B_SPLINE_CURVE_WITH_KNOTS('',1,(#351,#352),.UNSPECIFIED.,.F.,.F.,(2,2),(0.00000000000000000E0,1.00000000000000000E0),.UNSPECIFIED.);
#354=DEFINITIONAL_REPRESENTATION('',(#353),#157);
#355=PCURVE('',#77,#354);
#356=CARTESIAN_POINT('',(1.00000000000000000E0,0.00000000000000000E0));
#357=CARTESIAN_POINT('',(1.00000000000000000E0,1.00000000000000000E0));
#358=B_SPLINE_CURVE_WITH_KNOTS('',1,(#356,#357),.UNSPECIFIED.,.F.,.F.,(2,2),(0.00000000000000000E0,1.00000000000000000E0),.UNSPECIFIED.);
#359=DEFINITIONAL_REPRESENTATION('',(#358),#157);
#360=PCURVE('',#87,#359);
#361=CARTESIAN_POINT('',(1.00000000000000000E0,1.00000000000000000E0));
#362=CARTESIAN_POINT('',(0.00000000000000000E0,1.00000000000000000E0));
#363=CARTESIAN_POINT('',(0.00000000000000000E0,0.00000000000000000E0));
#364=(BOUNDED_CURVE()B_SPLINE_CURVE(2,(#361,#362,#363),.UNSPECIFIED.,.F.,.F.)B_SPLINE_CURVE_WITH_KNOTS((3,3),(0.00000000000000000E0,1.00000000000000000E0),.UNSPECIFIED.)CURVE()GEOMETRIC_REPRESENTATION_ITEM()RATIONAL_B_SPLINE_CURVE((1.00000000000000000E0,7.07106781186547573E-1,1.00000000000000000E0))REPRESENTATION_ITEM(''));
#365=DEFINITIONAL_REPRESENTATION('',(#364),#157);
#366=PCURVE('',#87,#365);
#367=CARTESIAN_POINT('',(0.00000000000000000E0,0.00000000000000000E0));
#368=CARTESIAN_POINT('',(1.00000000000000000E0,0.00000000000000000E0));
#369=B_SPLINE_CURVE_WITH_KNOTS('',1,(#367,#368),.UNSPECIFIED.,.F.,.F.,(2,2),(0.00000000000000000E0,1.00000000000000000E0),.UNSPECIFIED.);
#370=DEFINITIONAL_REPRESENTATION('',(#369),#157);
#371=PCURVE('',#87,#370);
#372=SURFACE_CURVE('',#90,(#162,#255),.PCURVE_S1.);
#373=EDGE_CURVE('OSCAD_TOPO/3|edge|e:734a99933e1387d154d60742e40cd512|67ac55ca92cc04d934a208481935a6c4dc3f295af906f74b64edab507a8bb639',#2,#4,#372,.T.);
#374=SURFACE_CURVE('',#93,(#167,#275),.PCURVE_S1.);
#375=EDGE_CURVE('OSCAD_TOPO/3|edge|e:fc3656f969e8d151f1be19aa58ff2a7b|d83346a3c5dee494d9ceeb35d273e3e35e7035566bd09f6ea0130aa915df4024',#4,#6,#374,.T.);
#376=SURFACE_CURVE('',#97,(#173,#315),.PCURVE_S1.);
#377=EDGE_CURVE('OSCAD_TOPO/3|edge|e:fd40ded20283a6faf9349d91d8cee2af|3bd425bba05fa6e24c9b314d463444d6cddc56419406089d516f5ae3b1fde73d',#6,#8,#376,.T.);
#378=SURFACE_CURVE('',#100,(#178,#280),.PCURVE_S1.);
#379=EDGE_CURVE('OSCAD_TOPO/3|edge|e:df7cf19c1ad805ad3fbc2884254c19e2|de9c7bfe2caa4e0fdc7476673c1f299546a3ce6fcbc4e3d590b9a66de59c6d99',#10,#8,#378,.T.);
#380=SURFACE_CURVE('',#103,(#183,#208),.PCURVE_S1.);
#381=EDGE_CURVE('OSCAD_TOPO/3|edge|e:b295fcce1ed4bd1029ef16a481e1b1a6|448d4159fa43478359dfb4654c88dc300e60b08dab35dd7efda76dcb694304e7',#2,#10,#380,.T.);
#382=SURFACE_CURVE('',#106,(#188,#224),.PCURVE_S1.);
#383=EDGE_CURVE('OSCAD_TOPO/3|edge|e:9ef2630ed50dd9aa02e7b2a1b79d1bc1|aadc1f290a2e405c873da25876395288afe4269f27c08430e0772ca020f83b62',#12,#14,#382,.T.);
#384=SURFACE_CURVE('',#109,(#193,#350),.PCURVE_S1.);
#385=EDGE_CURVE('OSCAD_TOPO/3|edge|e:e450b1127032bc26a9bd80ada7da6df9|f00e16857a0a2ea70e03324d230e2299bc0ff3bf1b123f3f5486fffec2bfabae',#16,#14,#384,.T.);
#386=SURFACE_CURVE('',#112,(#198,#325),.PCURVE_S1.);
#387=EDGE_CURVE('OSCAD_TOPO/3|edge|e:d158795b135661d0664a1ada31f7fab5|c8cfd4102b9ba85cd6a28ca969c6e5345dfd0d76ed5dea030a2ffca9dec04d57',#16,#18,#386,.T.);
#388=SURFACE_CURVE('',#115,(#203,#239),.PCURVE_S1.);
#389=EDGE_CURVE('OSCAD_TOPO/3|edge|e:c6ede5ad9ec30ee29ffc0b0e473a649a|ddbcf6520f6c5a4343d7ce22e79a2834edc9786f16d82e153c42d70a625b955e',#12,#18,#388,.T.);
#390=SURFACE_CURVE('',#118,(#213,#295),.PCURVE_S1.);
#391=EDGE_CURVE('OSCAD_TOPO/3|edge|e:a9c25a0be92778b0a725b577294916a5|eb93fb41cefbe05b6906f7338c05b1e9a385553632620c1ad5c1635fdf801d37',#10,#20,#390,.T.);
#392=SURFACE_CURVE('',#122,(#219,#355),.PCURVE_S1.);
#393=EDGE_CURVE('OSCAD_TOPO/3|edge|e:ef5868d0f1cd943617823a7a2c336c03|aed011a2d16db4532ad37d35590343c2cfa040e08e464a6b6bb42369986c6c86',#20,#14,#392,.T.);
#394=SURFACE_CURVE('',#125,(#229,#234),.PCURVE_S1.);
#395=EDGE_CURVE('OSCAD_TOPO/3|edge|e:65f3b9f986a4918e706bef7da8bfc71d|6c6d61a9b610b3e6fc0343ebec9c4e34845ed7e70ccb8a5cabf46ac294b156b3',#2,#12,#394,.T.);
#396=SURFACE_CURVE('',#129,(#245,#320),.PCURVE_S1.);
#397=EDGE_CURVE('OSCAD_TOPO/3|edge|e:70dad3d245093750d9eda7402d586569|1d0f459901d941d35fdf417a5c4dcf228a84bdc304e67acf0792b0b8f74ca546',#22,#18,#396,.T.);
#398=SURFACE_CURVE('',#132,(#250,#260),.PCURVE_S1.);
#399=EDGE_CURVE('OSCAD_TOPO/3|edge|e:9e7752c3ec07b8e52a2e46759ae5ff46|544a7c683d6cf536e023ca5cef37fae3e04361713756e5426e0021c7bae26840',#4,#22,#398,.T.);
#400=SURFACE_CURVE('',#135,(#265,#335),.PCURVE_S1.);
#401=EDGE_CURVE('OSCAD_TOPO/3|edge|e:808ef1772358595d59cee03d90c0c5c2|7a417e006fe33fefbb1e9df689dffc1a02abe3cffbb5d95e5fb6dc577d8e2453',#24,#22,#400,.T.);
#402=SURFACE_CURVE('',#138,(#270,#300),.PCURVE_S1.);
#403=EDGE_CURVE('OSCAD_TOPO/3|edge|e:2377e9b6a63a2cd85a56fb82210b33d0|3477c310de180c7fd533710d3e81ee151ab23081821973588fb1e892dc309fd6',#6,#24,#402,.T.);
#404=SURFACE_CURVE('',#141,(#285,#310),.PCURVE_S1.);
#405=EDGE_CURVE('OSCAD_TOPO/3|edge|e:f2d423d0d7c55a6cdce38f244a90b6c5|412654c517bbe25e59b7bd2ecee5ffe9e1c72bec0df9baa1983edbca83b1122f',#8,#26,#404,.T.);
#406=SURFACE_CURVE('',#144,(#290,#340),.PCURVE_S1.);
#407=EDGE_CURVE('OSCAD_TOPO/3|edge|e:8b1f7884e73d38367ac22167b973ac19|6f02934f53aa7f3b48eb6c2eb8214ac658f1029e3ff8400df24498ed2ac9b5af',#26,#20,#406,.T.);
#408=SURFACE_CURVE('',#148,(#305,#366),.PCURVE_S1.);
#409=EDGE_CURVE('OSCAD_TOPO/3|edge|e:cf20a6e80dbe9c024c84a0fd674ba08f|926a973e1b9656ab0b6c6420731840db3f1409b619ce35570196c1a4fd53c372',#24,#26,#408,.T.);
#410=SURFACE_CURVE('',#152,(#330,#371),.PCURVE_S1.);
#411=EDGE_CURVE('OSCAD_TOPO/3|edge|e:c200bd56d9d57813e7952da5f27158a1|d41d9fd29f34ecde7476d522531af8579239346c82e19b904977090d7d713c5e',#24,#16,#410,.T.);
#412=SURFACE_CURVE('',#156,(#345,#360),.PCURVE_S1.);
#413=EDGE_CURVE('OSCAD_TOPO/3|edge|e:fbfdbea00525e97fbc7543a48b8137dd|29c0db8263bf16abf31e8e71a6caae5fb8a781a071fb3e8d6fa091dc71d439c9',#26,#16,#412,.T.);
#414=ORIENTED_EDGE('',*,*,#373,.T.);
#415=ORIENTED_EDGE('',*,*,#375,.T.);
#416=ORIENTED_EDGE('',*,*,#377,.T.);
#417=ORIENTED_EDGE('',*,*,#379,.F.);
#418=ORIENTED_EDGE('',*,*,#381,.F.);
#419=EDGE_LOOP('OSCAD_TOPO/3|loop|l:4ceb0dcbb049c0c9ce6c9ab489774432|6ce5894f90db005f9ece0f2f92bcb51f8db9d6974cca90eea3c29cd528688c71',(#414,#415,#416,#417,#418));
#420=ORIENTED_EDGE('',*,*,#383,.T.);
#421=ORIENTED_EDGE('',*,*,#385,.F.);
#422=ORIENTED_EDGE('',*,*,#387,.T.);
#423=ORIENTED_EDGE('',*,*,#389,.F.);
#424=EDGE_LOOP('OSCAD_TOPO/3|loop|l:6c1983ac988a14545ac5c1d13c8dce01|d85dcc35f7b64da2a97d2763e5100be106b827e6e72b490767d463e3cfac9ea3',(#420,#421,#422,#423));
#425=ORIENTED_EDGE('',*,*,#381,.T.);
#426=ORIENTED_EDGE('',*,*,#391,.T.);
#427=ORIENTED_EDGE('',*,*,#393,.T.);
#428=ORIENTED_EDGE('',*,*,#383,.F.);
#429=ORIENTED_EDGE('',*,*,#395,.F.);
#430=EDGE_LOOP('OSCAD_TOPO/3|loop|l:19adf364f40fd322f2579278eb8383b2|29af0d89b248349a95340532f0a77b0c467b68a6950314a369bdc4a373b3052d',(#425,#426,#427,#428,#429));
#431=ORIENTED_EDGE('',*,*,#395,.T.);
#432=ORIENTED_EDGE('',*,*,#389,.T.);
#433=ORIENTED_EDGE('',*,*,#397,.F.);
#434=ORIENTED_EDGE('',*,*,#399,.F.);
#435=ORIENTED_EDGE('',*,*,#373,.F.);
#436=EDGE_LOOP('OSCAD_TOPO/3|loop|l:23d51db09cf75423e82a7ed66c77d8a3|3f04dbf290034b98f9940ab0ad7f5ff58b352e34ab53fc959da255460bba3828',(#431,#432,#433,#434,#435));
#437=ORIENTED_EDGE('',*,*,#399,.T.);
#438=ORIENTED_EDGE('',*,*,#401,.F.);
#439=ORIENTED_EDGE('',*,*,#403,.F.);
#440=ORIENTED_EDGE('',*,*,#375,.F.);
#441=EDGE_LOOP('OSCAD_TOPO/3|loop|l:9ea6888678afee1667260ce5b8ab14f3|aa95ef1df2c6e16f2a52042da644f2f742f958f7c545dec27941a070f21e0878',(#437,#438,#439,#440));
#442=ORIENTED_EDGE('',*,*,#379,.T.);
#443=ORIENTED_EDGE('',*,*,#405,.T.);
#444=ORIENTED_EDGE('',*,*,#407,.T.);
#445=ORIENTED_EDGE('',*,*,#391,.F.);
#446=EDGE_LOOP('OSCAD_TOPO/3|loop|l:6d5ca245860362eece9bec5b5ba52984|243811b1cc1074fe654b23ac650d2ce95bf0176e456c54193c312cc666085ee8',(#442,#443,#444,#445));
#447=ORIENTED_EDGE('',*,*,#403,.T.);
#448=ORIENTED_EDGE('',*,*,#409,.T.);
#449=ORIENTED_EDGE('',*,*,#405,.F.);
#450=ORIENTED_EDGE('',*,*,#377,.F.);
#451=EDGE_LOOP('OSCAD_TOPO/3|loop|l:d1ab8c99a43344b53a86ab7a47dc003b|4df4054e6adcb5e21088842d6eb9fcb18237ce26db87f49b42f20cf2eecf4539',(#447,#448,#449,#450));
#452=ORIENTED_EDGE('',*,*,#397,.T.);
#453=ORIENTED_EDGE('',*,*,#387,.F.);
#454=ORIENTED_EDGE('',*,*,#411,.F.);
#455=ORIENTED_EDGE('',*,*,#401,.T.);
#456=EDGE_LOOP('OSCAD_TOPO/3|loop|l:c78fd26ffa28b0b6cf218ed8beb4f276|a216a03d53013a8abff898f7fe81184189a4703924b39974c6cb2b0bbccc57ee',(#452,#453,#454,#455));
#457=ORIENTED_EDGE('',*,*,#407,.F.);
#458=ORIENTED_EDGE('',*,*,#413,.T.);
#459=ORIENTED_EDGE('',*,*,#385,.T.);
#460=ORIENTED_EDGE('',*,*,#393,.F.);
#461=EDGE_LOOP('OSCAD_TOPO/3|loop|l:04e917bf1aa10a02c0371a0248857300|9cae4f114b7b3982a47a50c941ffb907c4454740e016892d624774acf5be3882',(#457,#458,#459,#460));
#462=ORIENTED_EDGE('',*,*,#413,.F.);
#463=ORIENTED_EDGE('',*,*,#409,.F.);
#464=ORIENTED_EDGE('',*,*,#411,.T.);
#465=EDGE_LOOP('OSCAD_TOPO/3|loop|l:497cc462d1796d9c22b926b9531a3b1f|d539e79329362a1ec85322dd88e706ed902e686321d4bf65cd0526df51789dd6',(#462,#463,#464));
#466=FACE_OUTER_BOUND('',#419,.T.);
#467=ADVANCED_FACE('OSCAD_TOPO/3|face|f:52466eb234ca15ad0ab6016b2e08b69d|4c720aca61a9b3b5c363882aef2cd68534e02ea39b6a895a83dbec06416013d7',(#466),#31,.T.);
#468=FACE_OUTER_BOUND('',#424,.T.);
#469=ADVANCED_FACE('OSCAD_TOPO/3|face|f:cba9a8bc3f1ea2fda8fe566b3d7b10dc|931254f0194029caa52923bc4597376f078e1226cb23e0b95ec46e20f16857cf',(#468),#36,.T.);
#470=FACE_OUTER_BOUND('',#430,.T.);
#471=ADVANCED_FACE('OSCAD_TOPO/3|face|f:cd2b78c7eb91b365ea54e3ccb64ef2f4|69d7c0cbb719ea934890ee4c571e2df21469eed7951a5ff27d8544aeb0fc4d97',(#470),#41,.T.);
#472=FACE_OUTER_BOUND('',#436,.T.);
#473=ADVANCED_FACE('OSCAD_TOPO/3|face|f:bd886adc6417e17b817a08ff3db79c07|f512a88fb7ea010bfc3fe1dc57707319cccf7dbdbea29dee44fc06448e625992',(#472),#46,.T.);
#474=FACE_OUTER_BOUND('',#441,.T.);
#475=ADVANCED_FACE('OSCAD_TOPO/3|face|f:504a2deab84cbcae5d87d6674252d19f|91ef9f01097a12f4ee183cedb4bdf77636298b14d731b26b6ae1933fd8603fde',(#474),#51,.T.);
#476=FACE_OUTER_BOUND('',#446,.T.);
#477=ADVANCED_FACE('OSCAD_TOPO/3|face|f:3486dc39adf7c9293b0f570b10f83061|f6399814d46c51561a7fcd7d378b056875ce0415cfb252e56fae5cd36c5b545d',(#476),#56,.T.);
#478=FACE_OUTER_BOUND('',#451,.T.);
#479=ADVANCED_FACE('OSCAD_TOPO/3|face|f:cc349925da2da1e6619754657ed5692f|5f07e2a1b30325a412bcdb9556102fbd9cab00906286860653e4e1989065cc9f',(#478),#63,.T.);
#480=FACE_OUTER_BOUND('',#456,.T.);
#481=ADVANCED_FACE('OSCAD_TOPO/3|face|f:116d655139d18936ea016e7d2343818e|fcf3d30e43e09581477dbadfe31ae216775ee843a7d5c12e682e8ee8999bd7fa',(#480),#70,.T.);
#482=FACE_OUTER_BOUND('',#461,.T.);
#483=ADVANCED_FACE('OSCAD_TOPO/3|face|f:f1e30137572e60f3ad05ac8dd47aa70b|3b322daf7458c98d150e011d102be8eadb12da289a94aca54bb3bf5df9b0b1f2',(#482),#77,.T.);
#484=FACE_OUTER_BOUND('',#465,.T.);
#485=ADVANCED_FACE('OSCAD_TOPO/3|face|f:a8300e98974941aea83278b8228f4007|e0cc18ffef1529979c9c1d7a742997cfb4f78fb0580888373babfbce1ccc9b51',(#484),#87,.T.);
#486=CLOSED_SHELL('OSCAD_TOPO/3|shell|s:b61716410b4cbc3599275759328cd776|6fd8255cbb5ffa695f6c10022f579f5e119e05c47e703667ce297ded90844cf6',(#467,#469,#471,#473,#475,#477,#479,#481,#483,#485));
#487=MANIFOLD_SOLID_BREP('OSCAD_TOPO/3|body|b:b864ceb0425696bb74c2266b311c552b|d2f47f68f9fcd94442e6017e392a5970e60aff37446c33465c71abc8823e6d04',#486);
#488=(LENGTH_UNIT()NAMED_UNIT(*)SI_UNIT(.MILLI.,.METRE.));
#489=UNCERTAINTY_MEASURE_WITH_UNIT(LENGTH_MEASURE(9.99999999999999955E-8),#488,'distance_accuracy_value','');
#490=(GEOMETRIC_REPRESENTATION_CONTEXT(3)GLOBAL_UNCERTAINTY_ASSIGNED_CONTEXT((#489))GLOBAL_UNIT_ASSIGNED_CONTEXT((#488))REPRESENTATION_CONTEXT('','3D'));
#491=ADVANCED_BREP_SHAPE_REPRESENTATION('',(#487),#490);
#492=APPLICATION_CONTEXT('managed model based 3d engineering');
#493=PRODUCT_CONTEXT('',#492,'mechanical');
#494=PRODUCT('model','model','',(#493));
#495=PRODUCT_DEFINITION_FORMATION('1','',#494);
#496=PRODUCT_DEFINITION_CONTEXT('part definition',#492,'design');
#497=PRODUCT_DEFINITION('design','',#495,#496);
#498=PRODUCT_DEFINITION_SHAPE('','',#497);
#499=SHAPE_DEFINITION_REPRESENTATION(#498,#491);
ENDSEC;
END-ISO-10303-21;
