ISO-10303-21;
HEADER;
FILE_DESCRIPTION(('OpenSCAD Viewer retained AP242 B-rep'),'2;1');
FILE_NAME('model.step','',(''),(''),'OpenSCAD Viewer','OpenSCAD Viewer','');
FILE_SCHEMA(('AP242_MANAGED_MODEL_BASED_3D_ENGINEERING_MIM_LF'));
ENDSEC;
DATA;
#1=CARTESIAN_POINT('',(2.59993250014434878E1,-2.43086242941436659E0,3.08650226380548105E1));
#2=VERTEX_POINT('OSCAD_TOPO/3|vertex|v:2301485b2aa5130a3ffa2c3d4ddce85f|8dc2176457dbce8e16aceb11ec9dd9f82a6e824fb474d5d54ed4cb3ad2005a5c',#1);
#3=CARTESIAN_POINT('',(1.88696661209520009E1,-6.05963140081898644E0,3.08650226380548105E1));
#4=VERTEX_POINT('OSCAD_TOPO/3|vertex|v:e32f83585f806566311f9c54ce292366|b0271ffac8aa888b9bedea6e7c6de959f5d3441ef67038136af66479b1ce9049',#3);
#5=CARTESIAN_POINT('',(2.90605352735681386E1,-8.44540487444005450E0,2.34857089269551800E1));
#6=VERTEX_POINT('OSCAD_TOPO/3|vertex|v:3724d938b983564da0cdaba3ccf58913|7c9a20dcd9e9d75557b9b59c278c2555b842ad8841cce3df9fb27220ee998e24',#5);
#7=CARTESIAN_POINT('',(2.39909881545610588E1,1.51503678550618481E0,2.68157680776272045E1));
#8=VERTEX_POINT('OSCAD_TOPO/3|vertex|v:5e3f053d45cd321f45c6da8cc5f4c916|1b18388a4354f6edadda20af50ba36e5e3f8d4811931578b0adbaab18025f710',#7);
#9=CARTESIAN_POINT('',(2.18543461362735343E1,-1.19238102847190319E1,2.36701917697326714E1));
#10=VERTEX_POINT('OSCAD_TOPO/3|vertex|v:da6eb675cf6b330b61636d03ed1a5aa2|7abab010207714eb29f19da3e89e39799e8496a9898d654987e9468b3ed65fe0',#9);
#11=CARTESIAN_POINT('',(2.21536782330920090E1,-1.19607748154882803E1,2.34857089269551800E1));
#12=VERTEX_POINT('OSCAD_TOPO/3|vertex|v:4843d569309158098dbc2f7b464402e2|a7a38177c0b1a0d74481600ba8ebea35bfd13c7c2ae708fde4dee68df0878c9f',#11);
#13=CARTESIAN_POINT('',(1.99296899913445458E1,-8.14232353708683654E0,1.97896561493228837E1));
#14=VERTEX_POINT('OSCAD_TOPO/3|vertex|v:07d1b859f8dfd445713462d40215ac6a|d24d741e0008402d4aeb77c65f76df980b930cc506779c4c3a8443668ee3cdbe',#13);
#15=CARTESIAN_POINT('',(2.02290220881630205E1,-8.17928806785608487E0,1.96051733065453959E1));
#16=VERTEX_POINT('OSCAD_TOPO/3|vertex|v:0730647e0cd814de17913904d6cfe1fe|809bd524dcf71e5758b20894e6317f8b7702ab9f1ec53d3e9dd0ab891229557a',#15);
#17=CARTESIAN_POINT('',(2.00688111294064697E1,-7.86451203944208643E0,1.96209372093050689E1));
#18=VERTEX_POINT('OSCAD_TOPO/3|vertex|v:0e129078434cf0fd27c11cb153d4dbbf|81594fd48cfdc187d261ab84c85b71fba90872c65a13e40f4240cbda916cd2a5',#17);
#19=CARTESIAN_POINT('',(1.69450099760230088E1,-2.27814465318679105E0,2.69844870176450229E1));
#20=VERTEX_POINT('OSCAD_TOPO/3|vertex|v:1f4c8ba03639b5d18e1d8a9b0cb2cdd6|2d28be96690e3dc2442565511280ee79c46f43b69ca3432cc32c762ad7d95c77',#19);
#21=CARTESIAN_POINT('',(1.70841311140849328E1,-2.00033315554204094E0,2.68157680776272045E1));
#22=VERTEX_POINT('OSCAD_TOPO/3|vertex|v:b2707ff2b106691efcd3a4eca1f1ecba|1fd62c404e90eda1078a8a0e84cadcf96a203c0952907441f6eaab47491af3a5',#21);
#23=CARTESIAN_POINT('',(2.71358791286391465E1,-4.66391812680785911E0,1.96051733065453959E1));
#24=VERTEX_POINT('OSCAD_TOPO/3|vertex|v:7e7c55d4b1143291a4e6ece949483017|83844de8a3b91738e5950c2a9c956cc69c9a232f534a513977c0ec107cb8ad74',#23);
#25=CARTESIAN_POINT('',(2.69756681698825957E1,-4.34914209839386068E0,1.96209372093050689E1));
#26=VERTEX_POINT('OSCAD_TOPO/3|vertex|v:d41873614c942489933f1c7a0b7ae59e|cc5d08d4f98e69d2e3c821e7dc108c8a65129d09a4ca92af1be385d7e29cfd47',#25);
#27=CARTESIAN_POINT('',(2.59993250014434878E1,-2.43086242941436659E0,3.08650226380548105E1));
#28=CARTESIAN_POINT('',(2.90605352735681386E1,-8.44540487444005450E0,2.34857089269551800E1));
#29=CARTESIAN_POINT('',(1.88696661209520009E1,-6.05963140081898644E0,3.08650226380548105E1));
#30=CARTESIAN_POINT('',(2.19308763930766517E1,-1.20741738458446743E1,2.34857089269551800E1));
#31=B_SPLINE_SURFACE_WITH_KNOTS('',1,1,((#27,#28),(#29,#30)),.UNSPECIFIED.,.F.,.F.,.F.,(2,2),(2,2),(0.00000000000000000E0,1.00000000000000000E0),(0.00000000000000000E0,1.00000000000000000E0),.UNSPECIFIED.);
#32=CARTESIAN_POINT('',(1.68613292740695755E1,-2.11373218589843503E0,2.68157680776272045E1));
#33=CARTESIAN_POINT('',(1.99225395461942263E1,-8.12827463092412295E0,1.94364543665275775E1));
#34=CARTESIAN_POINT('',(2.39909881545610588E1,1.51503678550618481E0,2.68157680776272045E1));
#35=CARTESIAN_POINT('',(2.70521984266857132E1,-4.49950565951950310E0,1.94364543665275775E1));
#36=B_SPLINE_SURFACE_WITH_KNOTS('',1,1,((#32,#33),(#34,#35)),.UNSPECIFIED.,.F.,.F.,.F.,(2,2),(2,2),(0.00000000000000000E0,1.00000000000000000E0),(0.00000000000000000E0,1.00000000000000000E0),.UNSPECIFIED.);
#37=CARTESIAN_POINT('',(2.59993250014434878E1,-2.43086242941436659E0,3.08650226380548105E1));
#38=CARTESIAN_POINT('',(2.39909881545610588E1,1.51503678550618481E0,2.68157680776272045E1));
#39=CARTESIAN_POINT('',(2.90605352735681386E1,-8.44540487444005450E0,2.34857089269551800E1));
#40=CARTESIAN_POINT('',(2.70521984266857132E1,-4.49950565951950310E0,1.94364543665275775E1));
#41=B_SPLINE_SURFACE_WITH_KNOTS('',1,1,((#37,#38),(#39,#40)),.UNSPECIFIED.,.F.,.F.,.F.,(2,2),(2,2),(0.00000000000000000E0,1.00000000000000000E0),(0.00000000000000000E0,1.00000000000000000E0),.UNSPECIFIED.);
#42=CARTESIAN_POINT('',(1.88696661209520009E1,-6.05963140081898644E0,3.08650226380548105E1));
#43=CARTESIAN_POINT('',(1.68613292740695755E1,-2.11373218589843503E0,2.68157680776272045E1));
#44=CARTESIAN_POINT('',(2.59993250014434878E1,-2.43086242941436659E0,3.08650226380548105E1));
#45=CARTESIAN_POINT('',(2.39909881545610588E1,1.51503678550618481E0,2.68157680776272045E1));
#46=B_SPLINE_SURFACE_WITH_KNOTS('',1,1,((#42,#43),(#44,#45)),.UNSPECIFIED.,.F.,.F.,.F.,(2,2),(2,2),(0.00000000000000000E0,1.00000000000000000E0),(0.00000000000000000E0,1.00000000000000000E0),.UNSPECIFIED.);
#47=CARTESIAN_POINT('',(2.19308763930766517E1,-1.20741738458446743E1,2.34857089269551800E1));
#48=CARTESIAN_POINT('',(1.99225395461942263E1,-8.12827463092412295E0,1.94364543665275775E1));
#49=CARTESIAN_POINT('',(1.88696661209520009E1,-6.05963140081898644E0,3.08650226380548105E1));
#50=CARTESIAN_POINT('',(1.68613292740695755E1,-2.11373218589843503E0,2.68157680776272045E1));
#51=B_SPLINE_SURFACE_WITH_KNOTS('',1,1,((#47,#48),(#49,#50)),.UNSPECIFIED.,.F.,.F.,.F.,(2,2),(2,2),(0.00000000000000000E0,1.00000000000000000E0),(0.00000000000000000E0,1.00000000000000000E0),.UNSPECIFIED.);
#52=CARTESIAN_POINT('',(2.90605352735681386E1,-8.44540487444005450E0,2.34857089269551800E1));
#53=CARTESIAN_POINT('',(2.70521984266857132E1,-4.49950565951950310E0,1.94364543665275775E1));
#54=CARTESIAN_POINT('',(2.19308763930766517E1,-1.20741738458446743E1,2.34857089269551800E1));
#55=CARTESIAN_POINT('',(1.99225395461942263E1,-8.12827463092412295E0,1.94364543665275775E1));
#56=B_SPLINE_SURFACE_WITH_KNOTS('',1,1,((#52,#53),(#54,#55)),.UNSPECIFIED.,.F.,.F.,.F.,(2,2),(2,2),(0.00000000000000000E0,1.00000000000000000E0),(0.00000000000000000E0,1.00000000000000000E0),.UNSPECIFIED.);
#57=CARTESIAN_POINT('',(2.21536782330920090E1,-1.19607748154882803E1,2.34857089269551800E1));
#58=CARTESIAN_POINT('',(2.02290220881630205E1,-8.17928806785608487E0,1.96051733065453959E1));
#59=CARTESIAN_POINT('',(2.19308763930766517E1,-1.20741738458446743E1,2.34857089269551800E1));
#60=CARTESIAN_POINT('',(2.00062202481476596E1,-8.29268709821247896E0,1.96051733065453959E1));
#61=CARTESIAN_POINT('',(2.18543461362735343E1,-1.19238102847190319E1,2.36701917697326714E1));
#62=CARTESIAN_POINT('',(1.99296899913445458E1,-8.14232353708683654E0,1.97896561493228837E1));
#63=(BOUNDED_SURFACE()B_SPLINE_SURFACE(2,1,((#57,#58),(#59,#60),(#61,#62)),.UNSPECIFIED.,.F.,.F.,.F.)B_SPLINE_SURFACE_WITH_KNOTS((3,3),(2,2),(0.00000000000000000E0,1.00000000000000000E0),(0.00000000000000000E0,1.00000000000000000E0),.UNSPECIFIED.)GEOMETRIC_REPRESENTATION_ITEM()RATIONAL_B_SPLINE_SURFACE(((1.00000000000000000E0,1.00000000000000000E0),(7.07106781186547573E-1,7.07106781186547573E-1),(1.00000000000000000E0,1.00000000000000000E0)))REPRESENTATION_ITEM('')SURFACE());
#64=CARTESIAN_POINT('',(1.69450099760230088E1,-2.27814465318679105E0,2.69844870176450229E1));
#65=CARTESIAN_POINT('',(1.99296899913445458E1,-8.14232353708683654E0,1.97896561493228837E1));
#66=CARTESIAN_POINT('',(1.68613292740695755E1,-2.11373218589843503E0,2.68157680776272045E1));
#67=CARTESIAN_POINT('',(1.98460092893911089E1,-7.97791106979848053E0,1.96209372093050689E1));
#68=CARTESIAN_POINT('',(1.70841311140849328E1,-2.00033315554204094E0,2.68157680776272045E1));
#69=CARTESIAN_POINT('',(2.00688111294064697E1,-7.86451203944208643E0,1.96209372093050689E1));
#70=(BOUNDED_SURFACE()B_SPLINE_SURFACE(2,1,((#64,#65),(#66,#67),(#68,#69)),.UNSPECIFIED.,.F.,.F.,.F.)B_SPLINE_SURFACE_WITH_KNOTS((3,3),(2,2),(0.00000000000000000E0,1.00000000000000000E0),(0.00000000000000000E0,1.00000000000000000E0),.UNSPECIFIED.)GEOMETRIC_REPRESENTATION_ITEM()RATIONAL_B_SPLINE_SURFACE(((2.00000000000000000E0,2.00000000000000000E0),(1.00000000000000000E0,1.00000000000000000E0),(1.00000000000000000E0,1.00000000000000000E0)))REPRESENTATION_ITEM('')SURFACE());
#71=CARTESIAN_POINT('',(2.69756681698825957E1,-4.34914209839386068E0,1.96209372093050689E1));
#72=CARTESIAN_POINT('',(2.00688111294064697E1,-7.86451203944208643E0,1.96209372093050689E1));
#73=CARTESIAN_POINT('',(2.70521984266857132E1,-4.49950565951950310E0,1.94364543665275775E1));
#74=CARTESIAN_POINT('',(2.01453413862095836E1,-8.01487560056772885E0,1.94364543665275775E1));
#75=CARTESIAN_POINT('',(2.71358791286391465E1,-4.66391812680785911E0,1.96051733065453959E1));
#76=CARTESIAN_POINT('',(2.02290220881630205E1,-8.17928806785608487E0,1.96051733065453959E1));
#77=(BOUNDED_SURFACE()B_SPLINE_SURFACE(2,1,((#71,#72),(#73,#74),(#75,#76)),.UNSPECIFIED.,.F.,.F.,.F.)B_SPLINE_SURFACE_WITH_KNOTS((3,3),(2,2),(0.00000000000000000E0,1.00000000000000000E0),(0.00000000000000000E0,1.00000000000000000E0),.UNSPECIFIED.)GEOMETRIC_REPRESENTATION_ITEM()RATIONAL_B_SPLINE_SURFACE(((1.00000000000000000E0,1.00000000000000000E0),(1.00000000000000000E0,1.00000000000000000E0),(2.00000000000000000E0,2.00000000000000000E0)))REPRESENTATION_ITEM('')SURFACE());
#78=CARTESIAN_POINT('',(1.99296899913445458E1,-8.14232353708683654E0,1.97896561493228837E1));
#79=CARTESIAN_POINT('',(1.99679551197461009E1,-8.21750531764965864E0,1.96974147279341381E1));
#80=CARTESIAN_POINT('',(2.00828710098695531E1,-8.25957039014791938E0,1.97229072341438290E1));
#81=CARTESIAN_POINT('',(1.98460092893911089E1,-7.97791106979848053E0,1.96209372093050689E1));
#82=CARTESIAN_POINT('',(1.99225395461942263E1,-8.12827463092412295E0,1.94364543665275775E1));
#83=CARTESIAN_POINT('',(2.01176211681553418E1,-8.23598758303428191E0,1.96051733065453959E1));
#84=CARTESIAN_POINT('',(2.00688111294064697E1,-7.86451203944208643E0,1.96209372093050689E1));
#85=CARTESIAN_POINT('',(2.01453413862095836E1,-8.01487560056772885E0,1.94364543665275775E1));
#86=CARTESIAN_POINT('',(2.02290220881630205E1,-8.17928806785608487E0,1.96051733065453959E1));
#87=(BOUNDED_SURFACE()B_SPLINE_SURFACE(2,2,((#78,#79,#80),(#81,#82,#83),(#84,#85,#86)),.UNSPECIFIED.,.F.,.F.,.F.)B_SPLINE_SURFACE_WITH_KNOTS((3,3),(3,3),(0.00000000000000000E0,1.00000000000000000E0),(0.00000000000000000E0,1.00000000000000000E0),.UNSPECIFIED.)GEOMETRIC_REPRESENTATION_ITEM()RATIONAL_B_SPLINE_SURFACE(((2.00000000000000000E0,2.00000000000000000E0,3.00000000000000000E0),(1.00000000000000000E0,1.00000000000000000E0,2.00000000000000000E0),(1.00000000000000000E0,1.00000000000000000E0,2.00000000000000000E0)))REPRESENTATION_ITEM('')SURFACE());
#88=CARTESIAN_POINT('',(2.59993250014434878E1,-2.43086242941436659E0,3.08650226380548105E1));
#89=CARTESIAN_POINT('',(1.88696661209520009E1,-6.05963140081898644E0,3.08650226380548105E1));
#90=B_SPLINE_CURVE_WITH_KNOTS('',1,(#88,#89),.UNSPECIFIED.,.F.,.F.,(2,2),(0.00000000000000000E0,1.00000000000000000E0),.UNSPECIFIED.);
#91=CARTESIAN_POINT('',(1.88696661209520009E1,-6.05963140081898644E0,3.08650226380548105E1));
#92=CARTESIAN_POINT('',(2.18543461362735343E1,-1.19238102847190319E1,2.36701917697326714E1));
#93=B_SPLINE_CURVE_WITH_KNOTS('',1,(#91,#92),.UNSPECIFIED.,.F.,.F.,(2,2),(0.00000000000000000E0,1.00000000000000000E0),.UNSPECIFIED.);
#94=CARTESIAN_POINT('',(2.90605352735681386E1,-8.44540487444005450E0,2.34857089269551800E1));
#95=CARTESIAN_POINT('',(2.21536782330920090E1,-1.19607748154882803E1,2.34857089269551800E1));
#96=B_SPLINE_CURVE_WITH_KNOTS('',1,(#94,#95),.UNSPECIFIED.,.F.,.F.,(2,2),(0.00000000000000000E0,1.00000000000000000E0),.UNSPECIFIED.);
#97=CARTESIAN_POINT('',(2.59993250014434878E1,-2.43086242941436659E0,3.08650226380548105E1));
#98=CARTESIAN_POINT('',(2.90605352735681386E1,-8.44540487444005450E0,2.34857089269551800E1));
#99=B_SPLINE_CURVE_WITH_KNOTS('',1,(#97,#98),.UNSPECIFIED.,.F.,.F.,(2,2),(0.00000000000000000E0,1.00000000000000000E0),.UNSPECIFIED.);
#100=CARTESIAN_POINT('',(2.59993250014434878E1,-2.43086242941436659E0,3.08650226380548105E1));
#101=CARTESIAN_POINT('',(2.39909881545610588E1,1.51503678550618481E0,2.68157680776272045E1));
#102=B_SPLINE_CURVE_WITH_KNOTS('',1,(#100,#101),.UNSPECIFIED.,.F.,.F.,(2,2),(0.00000000000000000E0,1.00000000000000000E0),.UNSPECIFIED.);
#103=CARTESIAN_POINT('',(1.88696661209520009E1,-6.05963140081898644E0,3.08650226380548105E1));
#104=CARTESIAN_POINT('',(1.69450099760230088E1,-2.27814465318679105E0,2.69844870176450229E1));
#105=B_SPLINE_CURVE_WITH_KNOTS('',1,(#103,#104),.UNSPECIFIED.,.F.,.F.,(2,2),(0.00000000000000000E0,1.00000000000000000E0),.UNSPECIFIED.);
#106=CARTESIAN_POINT('',(1.99296899913445458E1,-8.14232353708683654E0,1.97896561493228837E1));
#107=CARTESIAN_POINT('',(1.69450099760230088E1,-2.27814465318679105E0,2.69844870176450229E1));
#108=B_SPLINE_CURVE_WITH_KNOTS('',1,(#106,#107),.UNSPECIFIED.,.F.,.F.,(2,2),(0.00000000000000000E0,1.00000000000000000E0),.UNSPECIFIED.);
#109=CARTESIAN_POINT('',(2.18543461362735343E1,-1.19238102847190319E1,2.36701917697326714E1));
#110=CARTESIAN_POINT('',(1.99296899913445458E1,-8.14232353708683654E0,1.97896561493228837E1));
#111=B_SPLINE_CURVE_WITH_KNOTS('',1,(#109,#110),.UNSPECIFIED.,.F.,.F.,(2,2),(0.00000000000000000E0,1.00000000000000000E0),.UNSPECIFIED.);
#112=CARTESIAN_POINT('',(2.21536782330920090E1,-1.19607748154882803E1,2.34857089269551800E1));
#113=CARTESIAN_POINT('',(2.02290220881630205E1,-8.17928806785608487E0,1.96051733065453959E1));
#114=B_SPLINE_CURVE_WITH_KNOTS('',1,(#112,#113),.UNSPECIFIED.,.F.,.F.,(2,2),(0.00000000000000000E0,1.00000000000000000E0),.UNSPECIFIED.);
#115=CARTESIAN_POINT('',(2.90605352735681386E1,-8.44540487444005450E0,2.34857089269551800E1));
#116=CARTESIAN_POINT('',(2.71358791286391465E1,-4.66391812680785911E0,1.96051733065453959E1));
#117=B_SPLINE_CURVE_WITH_KNOTS('',1,(#115,#116),.UNSPECIFIED.,.F.,.F.,(2,2),(0.00000000000000000E0,1.00000000000000000E0),.UNSPECIFIED.);
#118=CARTESIAN_POINT('',(2.02290220881630205E1,-8.17928806785608487E0,1.96051733065453959E1));
#119=CARTESIAN_POINT('',(2.71358791286391465E1,-4.66391812680785911E0,1.96051733065453959E1));
#120=B_SPLINE_CURVE_WITH_KNOTS('',1,(#118,#119),.UNSPECIFIED.,.F.,.F.,(2,2),(0.00000000000000000E0,1.00000000000000000E0),.UNSPECIFIED.);
#121=CARTESIAN_POINT('',(2.39909881545610588E1,1.51503678550618481E0,2.68157680776272045E1));
#122=CARTESIAN_POINT('',(1.70841311140849328E1,-2.00033315554204094E0,2.68157680776272045E1));
#123=B_SPLINE_CURVE_WITH_KNOTS('',1,(#121,#122),.UNSPECIFIED.,.F.,.F.,(2,2),(0.00000000000000000E0,1.00000000000000000E0),.UNSPECIFIED.);
#124=CARTESIAN_POINT('',(2.00688111294064697E1,-7.86451203944208643E0,1.96209372093050689E1));
#125=CARTESIAN_POINT('',(1.70841311140849328E1,-2.00033315554204094E0,2.68157680776272045E1));
#126=B_SPLINE_CURVE_WITH_KNOTS('',1,(#124,#125),.UNSPECIFIED.,.F.,.F.,(2,2),(0.00000000000000000E0,1.00000000000000000E0),.UNSPECIFIED.);
#127=CARTESIAN_POINT('',(2.39909881545610588E1,1.51503678550618481E0,2.68157680776272045E1));
#128=CARTESIAN_POINT('',(2.69756681698825957E1,-4.34914209839386068E0,1.96209372093050689E1));
#129=B_SPLINE_CURVE_WITH_KNOTS('',1,(#127,#128),.UNSPECIFIED.,.F.,.F.,(2,2),(0.00000000000000000E0,1.00000000000000000E0),.UNSPECIFIED.);
#130=CARTESIAN_POINT('',(2.00688111294064697E1,-7.86451203944208643E0,1.96209372093050689E1));
#131=CARTESIAN_POINT('',(2.69756681698825957E1,-4.34914209839386068E0,1.96209372093050689E1));
#132=B_SPLINE_CURVE_WITH_KNOTS('',1,(#130,#131),.UNSPECIFIED.,.F.,.F.,(2,2),(0.00000000000000000E0,1.00000000000000000E0),.UNSPECIFIED.);
#133=CARTESIAN_POINT('',(2.18543461362735343E1,-1.19238102847190319E1,2.36701917697326714E1));
#134=CARTESIAN_POINT('',(2.19308763930766517E1,-1.20741738458446743E1,2.34857089269551800E1));
#135=CARTESIAN_POINT('',(2.21536782330920090E1,-1.19607748154882803E1,2.34857089269551800E1));
#136=(BOUNDED_CURVE()B_SPLINE_CURVE(2,(#133,#134,#135),.UNSPECIFIED.,.F.,.F.)B_SPLINE_CURVE_WITH_KNOTS((3,3),(0.00000000000000000E0,1.00000000000000000E0),.UNSPECIFIED.)CURVE()GEOMETRIC_REPRESENTATION_ITEM()RATIONAL_B_SPLINE_CURVE((1.00000000000000000E0,7.07106781186547573E-1,1.00000000000000000E0))REPRESENTATION_ITEM(''));
#137=CARTESIAN_POINT('',(1.99296899913445458E1,-8.14232353708683654E0,1.97896561493228837E1));
#138=CARTESIAN_POINT('',(2.00062202481476596E1,-8.29268709821247896E0,1.96051733065453959E1));
#139=CARTESIAN_POINT('',(2.02290220881630205E1,-8.17928806785608487E0,1.96051733065453959E1));
#140=(BOUNDED_CURVE()B_SPLINE_CURVE(2,(#137,#138,#139),.UNSPECIFIED.,.F.,.F.)B_SPLINE_CURVE_WITH_KNOTS((3,3),(0.00000000000000000E0,1.00000000000000000E0),.UNSPECIFIED.)CURVE()GEOMETRIC_REPRESENTATION_ITEM()RATIONAL_B_SPLINE_CURVE((1.00000000000000000E0,7.07106781186547573E-1,1.00000000000000000E0))REPRESENTATION_ITEM(''));
#141=CARTESIAN_POINT('',(1.99296899913445458E1,-8.14232353708683654E0,1.97896561493228837E1));
#142=CARTESIAN_POINT('',(1.98460092893911089E1,-7.97791106979848053E0,1.96209372093050689E1));
#143=CARTESIAN_POINT('',(2.00688111294064697E1,-7.86451203944208643E0,1.96209372093050689E1));
#144=(BOUNDED_CURVE()B_SPLINE_CURVE(2,(#141,#142,#143),.UNSPECIFIED.,.F.,.F.)B_SPLINE_CURVE_WITH_KNOTS((3,3),(0.00000000000000000E0,1.00000000000000000E0),.UNSPECIFIED.)CURVE()GEOMETRIC_REPRESENTATION_ITEM()RATIONAL_B_SPLINE_CURVE((2.00000000000000000E0,1.00000000000000000E0,1.00000000000000000E0))REPRESENTATION_ITEM(''));
#145=CARTESIAN_POINT('',(2.02290220881630205E1,-8.17928806785608487E0,1.96051733065453959E1));
#146=CARTESIAN_POINT('',(2.01453413862095836E1,-8.01487560056772885E0,1.94364543665275775E1));
#147=CARTESIAN_POINT('',(2.00688111294064697E1,-7.86451203944208643E0,1.96209372093050689E1));
#148=(BOUNDED_CURVE()B_SPLINE_CURVE(2,(#145,#146,#147),.UNSPECIFIED.,.F.,.F.)B_SPLINE_CURVE_WITH_KNOTS((3,3),(0.00000000000000000E0,1.00000000000000000E0),.UNSPECIFIED.)CURVE()GEOMETRIC_REPRESENTATION_ITEM()RATIONAL_B_SPLINE_CURVE((2.00000000000000000E0,1.00000000000000000E0,1.00000000000000000E0))REPRESENTATION_ITEM(''));
#149=CARTESIAN_POINT('',(1.69450099760230088E1,-2.27814465318679105E0,2.69844870176450229E1));
#150=CARTESIAN_POINT('',(1.68613292740695755E1,-2.11373218589843503E0,2.68157680776272045E1));
#151=CARTESIAN_POINT('',(1.70841311140849328E1,-2.00033315554204094E0,2.68157680776272045E1));
#152=(BOUNDED_CURVE()B_SPLINE_CURVE(2,(#149,#150,#151),.UNSPECIFIED.,.F.,.F.)B_SPLINE_CURVE_WITH_KNOTS((3,3),(0.00000000000000000E0,1.00000000000000000E0),.UNSPECIFIED.)CURVE()GEOMETRIC_REPRESENTATION_ITEM()RATIONAL_B_SPLINE_CURVE((2.00000000000000000E0,1.00000000000000000E0,1.00000000000000000E0))REPRESENTATION_ITEM(''));
#153=CARTESIAN_POINT('',(2.71358791286391465E1,-4.66391812680785911E0,1.96051733065453959E1));
#154=CARTESIAN_POINT('',(2.70521984266857132E1,-4.49950565951950310E0,1.94364543665275775E1));
#155=CARTESIAN_POINT('',(2.69756681698825957E1,-4.34914209839386068E0,1.96209372093050689E1));
#156=(BOUNDED_CURVE()B_SPLINE_CURVE(2,(#153,#154,#155),.UNSPECIFIED.,.F.,.F.)B_SPLINE_CURVE_WITH_KNOTS((3,3),(0.00000000000000000E0,1.00000000000000000E0),.UNSPECIFIED.)CURVE()GEOMETRIC_REPRESENTATION_ITEM()RATIONAL_B_SPLINE_CURVE((2.00000000000000000E0,1.00000000000000000E0,1.00000000000000000E0))REPRESENTATION_ITEM(''));
#157=(GEOMETRIC_REPRESENTATION_CONTEXT(2)REPRESENTATION_CONTEXT('','2D'));
#158=CARTESIAN_POINT('',(0.00000000000000000E0,0.00000000000000000E0));
#159=CARTESIAN_POINT('',(1.00000000000000000E0,0.00000000000000000E0));
#160=B_SPLINE_CURVE_WITH_KNOTS('',1,(#158,#159),.UNSPECIFIED.,.F.,.F.,(2,2),(0.00000000000000000E0,1.00000000000000000E0),.UNSPECIFIED.);
#161=DEFINITIONAL_REPRESENTATION('',(#160),#157);
#162=PCURVE('',#31,#161);
#163=CARTESIAN_POINT('',(1.00000000000000000E0,0.00000000000000000E0));
#164=CARTESIAN_POINT('',(1.00000000000000000E0,9.74999999999999978E-1));
#165=B_SPLINE_CURVE_WITH_KNOTS('',1,(#163,#164),.UNSPECIFIED.,.F.,.F.,(2,2),(0.00000000000000000E0,1.00000000000000000E0),.UNSPECIFIED.);
#166=DEFINITIONAL_REPRESENTATION('',(#165),#157);
#167=PCURVE('',#31,#166);
#168=CARTESIAN_POINT('',(1.00000000000000000E0,9.74999999999999978E-1));
#169=CARTESIAN_POINT('',(1.00000000000000000E0,1.00000000000000000E0));
#170=CARTESIAN_POINT('',(9.68750000000000000E-1,1.00000000000000000E0));
#171=(BOUNDED_CURVE()B_SPLINE_CURVE(2,(#168,#169,#170),.UNSPECIFIED.,.F.,.F.)B_SPLINE_CURVE_WITH_KNOTS((3,3),(0.00000000000000000E0,1.00000000000000000E0),.UNSPECIFIED.)CURVE()GEOMETRIC_REPRESENTATION_ITEM()RATIONAL_B_SPLINE_CURVE((1.00000000000000000E0,7.07106781186547573E-1,1.00000000000000000E0))REPRESENTATION_ITEM(''));
#172=DEFINITIONAL_REPRESENTATION('',(#171),#157);
#173=PCURVE('',#31,#172);
#174=CARTESIAN_POINT('',(9.68750000000000000E-1,1.00000000000000000E0));
#175=CARTESIAN_POINT('',(0.00000000000000000E0,1.00000000000000000E0));
#176=B_SPLINE_CURVE_WITH_KNOTS('',1,(#174,#175),.UNSPECIFIED.,.F.,.F.,(2,2),(0.00000000000000000E0,1.00000000000000000E0),.UNSPECIFIED.);
#177=DEFINITIONAL_REPRESENTATION('',(#176),#157);
#178=PCURVE('',#31,#177);
#179=CARTESIAN_POINT('',(0.00000000000000000E0,1.00000000000000000E0));
#180=CARTESIAN_POINT('',(0.00000000000000000E0,0.00000000000000000E0));
#181=B_SPLINE_CURVE_WITH_KNOTS('',1,(#179,#180),.UNSPECIFIED.,.F.,.F.,(2,2),(0.00000000000000000E0,1.00000000000000000E0),.UNSPECIFIED.);
#182=DEFINITIONAL_REPRESENTATION('',(#181),#157);
#183=PCURVE('',#31,#182);
#184=CARTESIAN_POINT('',(1.00000000000000000E0,0.00000000000000000E0));
#185=CARTESIAN_POINT('',(1.00000000000000000E0,9.74999999999999978E-1));
#186=B_SPLINE_CURVE_WITH_KNOTS('',1,(#184,#185),.UNSPECIFIED.,.F.,.F.,(2,2),(0.00000000000000000E0,1.00000000000000000E0),.UNSPECIFIED.);
#187=DEFINITIONAL_REPRESENTATION('',(#186),#157);
#188=PCURVE('',#36,#187);
#189=CARTESIAN_POINT('',(1.00000000000000000E0,9.74999999999999978E-1));
#190=CARTESIAN_POINT('',(3.12500000000000000E-2,9.74999999999999978E-1));
#191=B_SPLINE_CURVE_WITH_KNOTS('',1,(#189,#190),.UNSPECIFIED.,.F.,.F.,(2,2),(0.00000000000000000E0,1.00000000000000000E0),.UNSPECIFIED.);
#192=DEFINITIONAL_REPRESENTATION('',(#191),#157);
#193=PCURVE('',#36,#192);
#194=CARTESIAN_POINT('',(3.12500000000000000E-2,9.74999999999999978E-1));
#195=CARTESIAN_POINT('',(3.12500000000000000E-2,0.00000000000000000E0));
#196=B_SPLINE_CURVE_WITH_KNOTS('',1,(#194,#195),.UNSPECIFIED.,.F.,.F.,(2,2),(0.00000000000000000E0,1.00000000000000000E0),.UNSPECIFIED.);
#197=DEFINITIONAL_REPRESENTATION('',(#196),#157);
#198=PCURVE('',#36,#197);
#199=CARTESIAN_POINT('',(3.12500000000000000E-2,0.00000000000000000E0));
#200=CARTESIAN_POINT('',(1.00000000000000000E0,0.00000000000000000E0));
#201=B_SPLINE_CURVE_WITH_KNOTS('',1,(#199,#200),.UNSPECIFIED.,.F.,.F.,(2,2),(0.00000000000000000E0,1.00000000000000000E0),.UNSPECIFIED.);
#202=DEFINITIONAL_REPRESENTATION('',(#201),#157);
#203=PCURVE('',#36,#202);
#204=CARTESIAN_POINT('',(0.00000000000000000E0,0.00000000000000000E0));
#205=CARTESIAN_POINT('',(1.00000000000000000E0,0.00000000000000000E0));
#206=B_SPLINE_CURVE_WITH_KNOTS('',1,(#204,#205),.UNSPECIFIED.,.F.,.F.,(2,2),(0.00000000000000000E0,1.00000000000000000E0),.UNSPECIFIED.);
#207=DEFINITIONAL_REPRESENTATION('',(#206),#157);
#208=PCURVE('',#41,#207);
#209=CARTESIAN_POINT('',(1.00000000000000000E0,0.00000000000000000E0));
#210=CARTESIAN_POINT('',(1.00000000000000000E0,9.58333333333333370E-1));
#211=B_SPLINE_CURVE_WITH_KNOTS('',1,(#209,#210),.UNSPECIFIED.,.F.,.F.,(2,2),(0.00000000000000000E0,1.00000000000000000E0),.UNSPECIFIED.);
#212=DEFINITIONAL_REPRESENTATION('',(#211),#157);
#213=PCURVE('',#41,#212);
#214=CARTESIAN_POINT('',(1.00000000000000000E0,9.58333333333333370E-1));
#215=CARTESIAN_POINT('',(1.00000000000000000E0,1.00000000000000000E0));
#216=CARTESIAN_POINT('',(9.74999999999999978E-1,1.00000000000000000E0));
#217=(BOUNDED_CURVE()B_SPLINE_CURVE(2,(#214,#215,#216),.UNSPECIFIED.,.F.,.F.)B_SPLINE_CURVE_WITH_KNOTS((3,3),(0.00000000000000000E0,1.00000000000000000E0),.UNSPECIFIED.)CURVE()GEOMETRIC_REPRESENTATION_ITEM()RATIONAL_B_SPLINE_CURVE((2.00000000000000000E0,1.00000000000000000E0,1.00000000000000000E0))REPRESENTATION_ITEM(''));
#218=DEFINITIONAL_REPRESENTATION('',(#217),#157);
#219=PCURVE('',#41,#218);
#220=CARTESIAN_POINT('',(9.74999999999999978E-1,1.00000000000000000E0));
#221=CARTESIAN_POINT('',(0.00000000000000000E0,1.00000000000000000E0));
#222=B_SPLINE_CURVE_WITH_KNOTS('',1,(#220,#221),.UNSPECIFIED.,.F.,.F.,(2,2),(0.00000000000000000E0,1.00000000000000000E0),.UNSPECIFIED.);
#223=DEFINITIONAL_REPRESENTATION('',(#222),#157);
#224=PCURVE('',#41,#223);
#225=CARTESIAN_POINT('',(0.00000000000000000E0,1.00000000000000000E0));
#226=CARTESIAN_POINT('',(0.00000000000000000E0,0.00000000000000000E0));
#227=B_SPLINE_CURVE_WITH_KNOTS('',1,(#225,#226),.UNSPECIFIED.,.F.,.F.,(2,2),(0.00000000000000000E0,1.00000000000000000E0),.UNSPECIFIED.);
#228=DEFINITIONAL_REPRESENTATION('',(#227),#157);
#229=PCURVE('',#41,#228);
#230=CARTESIAN_POINT('',(1.00000000000000000E0,0.00000000000000000E0));
#231=CARTESIAN_POINT('',(1.00000000000000000E0,1.00000000000000000E0));
#232=B_SPLINE_CURVE_WITH_KNOTS('',1,(#230,#231),.UNSPECIFIED.,.F.,.F.,(2,2),(0.00000000000000000E0,1.00000000000000000E0),.UNSPECIFIED.);
#233=DEFINITIONAL_REPRESENTATION('',(#232),#157);
#234=PCURVE('',#46,#233);
#235=CARTESIAN_POINT('',(1.00000000000000000E0,1.00000000000000000E0));
#236=CARTESIAN_POINT('',(3.12500000000000000E-2,1.00000000000000000E0));
#237=B_SPLINE_CURVE_WITH_KNOTS('',1,(#235,#236),.UNSPECIFIED.,.F.,.F.,(2,2),(0.00000000000000000E0,1.00000000000000000E0),.UNSPECIFIED.);
#238=DEFINITIONAL_REPRESENTATION('',(#237),#157);
#239=PCURVE('',#46,#238);
#240=CARTESIAN_POINT('',(3.12500000000000000E-2,1.00000000000000000E0));
#241=CARTESIAN_POINT('',(0.00000000000000000E0,1.00000000000000000E0));
#242=CARTESIAN_POINT('',(0.00000000000000000E0,9.58333333333333370E-1));
#243=(BOUNDED_CURVE()B_SPLINE_CURVE(2,(#240,#241,#242),.UNSPECIFIED.,.F.,.F.)B_SPLINE_CURVE_WITH_KNOTS((3,3),(0.00000000000000000E0,1.00000000000000000E0),.UNSPECIFIED.)CURVE()GEOMETRIC_REPRESENTATION_ITEM()RATIONAL_B_SPLINE_CURVE((1.00000000000000000E0,1.00000000000000000E0,2.00000000000000000E0))REPRESENTATION_ITEM(''));
#244=DEFINITIONAL_REPRESENTATION('',(#243),#157);
#245=PCURVE('',#46,#244);
#246=CARTESIAN_POINT('',(0.00000000000000000E0,9.58333333333333370E-1));
#247=CARTESIAN_POINT('',(0.00000000000000000E0,0.00000000000000000E0));
#248=B_SPLINE_CURVE_WITH_KNOTS('',1,(#246,#247),.UNSPECIFIED.,.F.,.F.,(2,2),(0.00000000000000000E0,1.00000000000000000E0),.UNSPECIFIED.);
#249=DEFINITIONAL_REPRESENTATION('',(#248),#157);
#250=PCURVE('',#46,#249);
#251=CARTESIAN_POINT('',(0.00000000000000000E0,0.00000000000000000E0));
#252=CARTESIAN_POINT('',(1.00000000000000000E0,0.00000000000000000E0));
#253=B_SPLINE_CURVE_WITH_KNOTS('',1,(#251,#252),.UNSPECIFIED.,.F.,.F.,(2,2),(0.00000000000000000E0,1.00000000000000000E0),.UNSPECIFIED.);
#254=DEFINITIONAL_REPRESENTATION('',(#253),#157);
#255=PCURVE('',#46,#254);
#256=CARTESIAN_POINT('',(1.00000000000000000E0,0.00000000000000000E0));
#257=CARTESIAN_POINT('',(1.00000000000000000E0,9.58333333333333370E-1));
#258=B_SPLINE_CURVE_WITH_KNOTS('',1,(#256,#257),.UNSPECIFIED.,.F.,.F.,(2,2),(0.00000000000000000E0,1.00000000000000000E0),.UNSPECIFIED.);
#259=DEFINITIONAL_REPRESENTATION('',(#258),#157);
#260=PCURVE('',#51,#259);
#261=CARTESIAN_POINT('',(1.00000000000000000E0,9.58333333333333370E-1));
#262=CARTESIAN_POINT('',(2.50000000000000222E-2,9.58333333333333370E-1));
#263=B_SPLINE_CURVE_WITH_KNOTS('',1,(#261,#262),.UNSPECIFIED.,.F.,.F.,(2,2),(0.00000000000000000E0,1.00000000000000000E0),.UNSPECIFIED.);
#264=DEFINITIONAL_REPRESENTATION('',(#263),#157);
#265=PCURVE('',#51,#264);
#266=CARTESIAN_POINT('',(2.50000000000000222E-2,9.58333333333333370E-1));
#267=CARTESIAN_POINT('',(2.50000000000000222E-2,0.00000000000000000E0));
#268=B_SPLINE_CURVE_WITH_KNOTS('',1,(#266,#267),.UNSPECIFIED.,.F.,.F.,(2,2),(0.00000000000000000E0,1.00000000000000000E0),.UNSPECIFIED.);
#269=DEFINITIONAL_REPRESENTATION('',(#268),#157);
#270=PCURVE('',#51,#269);
#271=CARTESIAN_POINT('',(2.50000000000000222E-2,0.00000000000000000E0));
#272=CARTESIAN_POINT('',(1.00000000000000000E0,0.00000000000000000E0));
#273=B_SPLINE_CURVE_WITH_KNOTS('',1,(#271,#272),.UNSPECIFIED.,.F.,.F.,(2,2),(0.00000000000000000E0,1.00000000000000000E0),.UNSPECIFIED.);
#274=DEFINITIONAL_REPRESENTATION('',(#273),#157);
#275=PCURVE('',#51,#274);
#276=CARTESIAN_POINT('',(0.00000000000000000E0,0.00000000000000000E0));
#277=CARTESIAN_POINT('',(9.68750000000000000E-1,0.00000000000000000E0));
#278=B_SPLINE_CURVE_WITH_KNOTS('',1,(#276,#277),.UNSPECIFIED.,.F.,.F.,(2,2),(0.00000000000000000E0,1.00000000000000000E0),.UNSPECIFIED.);
#279=DEFINITIONAL_REPRESENTATION('',(#278),#157);
#280=PCURVE('',#56,#279);
#281=CARTESIAN_POINT('',(9.68750000000000000E-1,0.00000000000000000E0));
#282=CARTESIAN_POINT('',(9.68750000000000000E-1,9.58333333333333370E-1));
#283=B_SPLINE_CURVE_WITH_KNOTS('',1,(#281,#282),.UNSPECIFIED.,.F.,.F.,(2,2),(0.00000000000000000E0,1.00000000000000000E0),.UNSPECIFIED.);
#284=DEFINITIONAL_REPRESENTATION('',(#283),#157);
#285=PCURVE('',#56,#284);
#286=CARTESIAN_POINT('',(9.68750000000000000E-1,9.58333333333333370E-1));
#287=CARTESIAN_POINT('',(0.00000000000000000E0,9.58333333333333370E-1));
#288=B_SPLINE_CURVE_WITH_KNOTS('',1,(#286,#287),.UNSPECIFIED.,.F.,.F.,(2,2),(0.00000000000000000E0,1.00000000000000000E0),.UNSPECIFIED.);
#289=DEFINITIONAL_REPRESENTATION('',(#288),#157);
#290=PCURVE('',#56,#289);
#291=CARTESIAN_POINT('',(0.00000000000000000E0,9.58333333333333370E-1));
#292=CARTESIAN_POINT('',(0.00000000000000000E0,0.00000000000000000E0));
#293=B_SPLINE_CURVE_WITH_KNOTS('',1,(#291,#292),.UNSPECIFIED.,.F.,.F.,(2,2),(0.00000000000000000E0,1.00000000000000000E0),.UNSPECIFIED.);
#294=DEFINITIONAL_REPRESENTATION('',(#293),#157);
#295=PCURVE('',#56,#294);
#296=CARTESIAN_POINT('',(1.00000000000000000E0,0.00000000000000000E0));
#297=CARTESIAN_POINT('',(1.00000000000000000E0,1.00000000000000000E0));
#298=B_SPLINE_CURVE_WITH_KNOTS('',1,(#296,#297),.UNSPECIFIED.,.F.,.F.,(2,2),(0.00000000000000000E0,1.00000000000000000E0),.UNSPECIFIED.);
#299=DEFINITIONAL_REPRESENTATION('',(#298),#157);
#300=PCURVE('',#63,#299);
#301=CARTESIAN_POINT('',(1.00000000000000000E0,1.00000000000000000E0));
#302=CARTESIAN_POINT('',(0.00000000000000000E0,1.00000000000000000E0));
#303=B_SPLINE_CURVE_WITH_KNOTS('',1,(#301,#302),.UNSPECIFIED.,.F.,.F.,(2,2),(0.00000000000000000E0,1.00000000000000000E0),.UNSPECIFIED.);
#304=DEFINITIONAL_REPRESENTATION('',(#303),#157);
#305=PCURVE('',#63,#304);
#306=CARTESIAN_POINT('',(0.00000000000000000E0,1.00000000000000000E0));
#307=CARTESIAN_POINT('',(0.00000000000000000E0,0.00000000000000000E0));
#308=B_SPLINE_CURVE_WITH_KNOTS('',1,(#306,#307),.UNSPECIFIED.,.F.,.F.,(2,2),(0.00000000000000000E0,1.00000000000000000E0),.UNSPECIFIED.);
#309=DEFINITIONAL_REPRESENTATION('',(#308),#157);
#310=PCURVE('',#63,#309);
#311=CARTESIAN_POINT('',(0.00000000000000000E0,0.00000000000000000E0));
#312=CARTESIAN_POINT('',(1.00000000000000000E0,0.00000000000000000E0));
#313=B_SPLINE_CURVE_WITH_KNOTS('',1,(#311,#312),.UNSPECIFIED.,.F.,.F.,(2,2),(0.00000000000000000E0,1.00000000000000000E0),.UNSPECIFIED.);
#314=DEFINITIONAL_REPRESENTATION('',(#313),#157);
#315=PCURVE('',#63,#314);
#316=CARTESIAN_POINT('',(0.00000000000000000E0,0.00000000000000000E0));
#317=CARTESIAN_POINT('',(1.00000000000000000E0,0.00000000000000000E0));
#318=B_SPLINE_CURVE_WITH_KNOTS('',1,(#316,#317),.UNSPECIFIED.,.F.,.F.,(2,2),(0.00000000000000000E0,1.00000000000000000E0),.UNSPECIFIED.);
#319=DEFINITIONAL_REPRESENTATION('',(#318),#157);
#320=PCURVE('',#70,#319);
#321=CARTESIAN_POINT('',(1.00000000000000000E0,0.00000000000000000E0));
#322=CARTESIAN_POINT('',(1.00000000000000000E0,1.00000000000000000E0));
#323=B_SPLINE_CURVE_WITH_KNOTS('',1,(#321,#322),.UNSPECIFIED.,.F.,.F.,(2,2),(0.00000000000000000E0,1.00000000000000000E0),.UNSPECIFIED.);
#324=DEFINITIONAL_REPRESENTATION('',(#323),#157);
#325=PCURVE('',#70,#324);
#326=CARTESIAN_POINT('',(1.00000000000000000E0,1.00000000000000000E0));
#327=CARTESIAN_POINT('',(0.00000000000000000E0,1.00000000000000000E0));
#328=B_SPLINE_CURVE_WITH_KNOTS('',1,(#326,#327),.UNSPECIFIED.,.F.,.F.,(2,2),(0.00000000000000000E0,1.00000000000000000E0),.UNSPECIFIED.);
#329=DEFINITIONAL_REPRESENTATION('',(#328),#157);
#330=PCURVE('',#70,#329);
#331=CARTESIAN_POINT('',(0.00000000000000000E0,1.00000000000000000E0));
#332=CARTESIAN_POINT('',(0.00000000000000000E0,0.00000000000000000E0));
#333=B_SPLINE_CURVE_WITH_KNOTS('',1,(#331,#332),.UNSPECIFIED.,.F.,.F.,(2,2),(0.00000000000000000E0,1.00000000000000000E0),.UNSPECIFIED.);
#334=DEFINITIONAL_REPRESENTATION('',(#333),#157);
#335=PCURVE('',#70,#334);
#336=CARTESIAN_POINT('',(1.00000000000000000E0,0.00000000000000000E0));
#337=CARTESIAN_POINT('',(1.00000000000000000E0,1.00000000000000000E0));
#338=B_SPLINE_CURVE_WITH_KNOTS('',1,(#336,#337),.UNSPECIFIED.,.F.,.F.,(2,2),(0.00000000000000000E0,1.00000000000000000E0),.UNSPECIFIED.);
#339=DEFINITIONAL_REPRESENTATION('',(#338),#157);
#340=PCURVE('',#77,#339);
#341=CARTESIAN_POINT('',(1.00000000000000000E0,1.00000000000000000E0));
#342=CARTESIAN_POINT('',(0.00000000000000000E0,1.00000000000000000E0));
#343=B_SPLINE_CURVE_WITH_KNOTS('',1,(#341,#342),.UNSPECIFIED.,.F.,.F.,(2,2),(0.00000000000000000E0,1.00000000000000000E0),.UNSPECIFIED.);
#344=DEFINITIONAL_REPRESENTATION('',(#343),#157);
#345=PCURVE('',#77,#344);
#346=CARTESIAN_POINT('',(0.00000000000000000E0,1.00000000000000000E0));
#347=CARTESIAN_POINT('',(0.00000000000000000E0,0.00000000000000000E0));
#348=B_SPLINE_CURVE_WITH_KNOTS('',1,(#346,#347),.UNSPECIFIED.,.F.,.F.,(2,2),(0.00000000000000000E0,1.00000000000000000E0),.UNSPECIFIED.);
#349=DEFINITIONAL_REPRESENTATION('',(#348),#157);
#350=PCURVE('',#77,#349);
#351=CARTESIAN_POINT('',(0.00000000000000000E0,0.00000000000000000E0));
#352=CARTESIAN_POINT('',(1.00000000000000000E0,0.00000000000000000E0));
#353=B_SPLINE_CURVE_WITH_KNOTS('',1,(#351,#352),.UNSPECIFIED.,.F.,.F.,(2,2),(0.00000000000000000E0,1.00000000000000000E0),.UNSPECIFIED.);
#354=DEFINITIONAL_REPRESENTATION('',(#353),#157);
#355=PCURVE('',#77,#354);
#356=CARTESIAN_POINT('',(1.00000000000000000E0,0.00000000000000000E0));
#357=CARTESIAN_POINT('',(1.00000000000000000E0,1.00000000000000000E0));
#358=B_SPLINE_CURVE_WITH_KNOTS('',1,(#356,#357),.UNSPECIFIED.,.F.,.F.,(2,2),(0.00000000000000000E0,1.00000000000000000E0),.UNSPECIFIED.);
#359=DEFINITIONAL_REPRESENTATION('',(#358),#157);
#360=PCURVE('',#87,#359);
#361=CARTESIAN_POINT('',(1.00000000000000000E0,1.00000000000000000E0));
#362=CARTESIAN_POINT('',(0.00000000000000000E0,1.00000000000000000E0));
#363=CARTESIAN_POINT('',(0.00000000000000000E0,0.00000000000000000E0));
#364=(BOUNDED_CURVE()B_SPLINE_CURVE(2,(#361,#362,#363),.UNSPECIFIED.,.F.,.F.)B_SPLINE_CURVE_WITH_KNOTS((3,3),(0.00000000000000000E0,1.00000000000000000E0),.UNSPECIFIED.)CURVE()GEOMETRIC_REPRESENTATION_ITEM()RATIONAL_B_SPLINE_CURVE((1.00000000000000000E0,7.07106781186547573E-1,1.00000000000000000E0))REPRESENTATION_ITEM(''));
#365=DEFINITIONAL_REPRESENTATION('',(#364),#157);
#366=PCURVE('',#87,#365);
#367=CARTESIAN_POINT('',(0.00000000000000000E0,0.00000000000000000E0));
#368=CARTESIAN_POINT('',(1.00000000000000000E0,0.00000000000000000E0));
#369=B_SPLINE_CURVE_WITH_KNOTS('',1,(#367,#368),.UNSPECIFIED.,.F.,.F.,(2,2),(0.00000000000000000E0,1.00000000000000000E0),.UNSPECIFIED.);
#370=DEFINITIONAL_REPRESENTATION('',(#369),#157);
#371=PCURVE('',#87,#370);
#372=SURFACE_CURVE('',#90,(#162,#255),.PCURVE_S1.);
#373=EDGE_CURVE('OSCAD_TOPO/3|edge|e:66ce4db72414cf35f67bab7f2d131780|21e97bcc5bbc9b7ae09e028ca6d1a36fc36f53c7f642e4037855236e9fb5415d',#2,#4,#372,.T.);
#374=SURFACE_CURVE('',#93,(#167,#275),.PCURVE_S1.);
#375=EDGE_CURVE('OSCAD_TOPO/3|edge|e:86f90cad9be99707fc085abd69c06704|278a40108be56a21f526229754595c3768bcf54a3b48e850bf4e2049bd167f10',#4,#10,#374,.T.);
#376=SURFACE_CURVE('',#96,(#178,#280),.PCURVE_S1.);
#377=EDGE_CURVE('OSCAD_TOPO/3|edge|e:a473b13a5078cc80fe41a2fd57713690|a7f1fa5aebe0a50780418839851cdd2a33f38424f31171e2d017c2e3c6c27f57',#6,#12,#376,.T.);
#378=SURFACE_CURVE('',#99,(#183,#208),.PCURVE_S1.);
#379=EDGE_CURVE('OSCAD_TOPO/3|edge|e:f0441aedbb5a97b259346016046463ee|c6296bbb5132df435b1ae13a7621ebec0652dacaf4a9b6995abc000d67b35429',#2,#6,#378,.T.);
#380=SURFACE_CURVE('',#102,(#229,#234),.PCURVE_S1.);
#381=EDGE_CURVE('OSCAD_TOPO/3|edge|e:763908e79b0209bde29b8719876ce96f|5d9a3ef30e078094d7605258dc2d644454617e11454dd75ba40fbca3c5e6274f',#2,#8,#380,.T.);
#382=SURFACE_CURVE('',#105,(#250,#260),.PCURVE_S1.);
#383=EDGE_CURVE('OSCAD_TOPO/3|edge|e:90335140bad0e5440b82c478ece3c1bb|dd77f244794a2023afc4320c2f766aed194b653e7f2a65c955a053c65e291cb7',#4,#20,#382,.T.);
#384=SURFACE_CURVE('',#108,(#265,#335),.PCURVE_S1.);
#385=EDGE_CURVE('OSCAD_TOPO/3|edge|e:6a1c80dcbca7335c8b0ecd0dc94be20c|f2497066a2eb586a1948faef8e2662e7056a7e54de53ef36432aa7e1a393db27',#14,#20,#384,.T.);
#386=SURFACE_CURVE('',#111,(#270,#300),.PCURVE_S1.);
#387=EDGE_CURVE('OSCAD_TOPO/3|edge|e:8a23decc3868d1c8c3932e5f09be52b2|f73dc8c2751f9de29501e7aa8d085df98cc632113d958afe8c73b3a185908f6f',#10,#14,#386,.T.);
#388=SURFACE_CURVE('',#114,(#285,#310),.PCURVE_S1.);
#389=EDGE_CURVE('OSCAD_TOPO/3|edge|e:e66246788ae6c59867f768bc48ad66a8|1dd59c84ee3c457bd13dc83ccc9249222b16705f175a8f878b0938348e284f09',#12,#16,#388,.T.);
#390=SURFACE_CURVE('',#117,(#213,#295),.PCURVE_S1.);
#391=EDGE_CURVE('OSCAD_TOPO/3|edge|e:bba68daf8e15edac084fc256614d122e|60c7cd52746b6db25d8bd750a33c0280074c2dd240e19e702809f98bbde11949',#6,#24,#390,.T.);
#392=SURFACE_CURVE('',#120,(#290,#340),.PCURVE_S1.);
#393=EDGE_CURVE('OSCAD_TOPO/3|edge|e:a1f092f508935ee6f8382eb4cbbc585e|c9b9aace0d96b30c4550205a7234668fc1efd1e1de4aab123f6a9f26c9081448',#16,#24,#392,.T.);
#394=SURFACE_CURVE('',#123,(#203,#239),.PCURVE_S1.);
#395=EDGE_CURVE('OSCAD_TOPO/3|edge|e:e8a7b642f9c8cf4f86fb1e434303ea23|2415e7a749d0294e27508e19c973ab71806be9a7f407ad197de5a12a303cc57b',#8,#22,#394,.T.);
#396=SURFACE_CURVE('',#126,(#198,#325),.PCURVE_S1.);
#397=EDGE_CURVE('OSCAD_TOPO/3|edge|e:82367c7d9758190e5dca060989268598|6ed1df193cb9fce776173e7d3c25b8384df6562b0cd921d29662781ca2fc2a82',#18,#22,#396,.T.);
#398=SURFACE_CURVE('',#129,(#188,#224),.PCURVE_S1.);
#399=EDGE_CURVE('OSCAD_TOPO/3|edge|e:0019487670b13f021dab5dca64875c1d|133f663ac3e4fbae66f56aa6e710d04bbf0b2a30fc18909324857375e9307d76',#8,#26,#398,.T.);
#400=SURFACE_CURVE('',#132,(#193,#350),.PCURVE_S1.);
#401=EDGE_CURVE('OSCAD_TOPO/3|edge|e:9962f97ce290c7003e2dbb822c34ac60|4e0da9efb184230127b5577e9f139600d3bfa5e5d31d3e749a11ebf7092c6625',#18,#26,#400,.T.);
#402=SURFACE_CURVE('',#136,(#173,#315),.PCURVE_S1.);
#403=EDGE_CURVE('OSCAD_TOPO/3|edge|e:f12c529cb26f50c41a1c97c4be8c30c9|31ebc3344952cce7a7ed1655e5f6789fa116a9f0b6a4d23d32849545c6b8ae44',#10,#12,#402,.T.);
#404=SURFACE_CURVE('',#140,(#305,#366),.PCURVE_S1.);
#405=EDGE_CURVE('OSCAD_TOPO/3|edge|e:6c565388af910ecf8ec08c92bb24f070|8eb6f938ef0d3aa5271afc7665778b06b766ac2c73e044cff77d7812dd515ec0',#14,#16,#404,.T.);
#406=SURFACE_CURVE('',#144,(#330,#371),.PCURVE_S1.);
#407=EDGE_CURVE('OSCAD_TOPO/3|edge|e:b7369092743beb7a8b6c0c1ed069cb59|1c2a176f93a3386b49fc0748ed63be3e2d0f9c7713f682ee3a8887b443f714c9',#14,#18,#406,.T.);
#408=SURFACE_CURVE('',#148,(#345,#360),.PCURVE_S1.);
#409=EDGE_CURVE('OSCAD_TOPO/3|edge|e:455f75775a929f257cbaac7060171185|db83eeae40f0b1751363fcc004944e0a7390a995d99f8b3dd52b7dbcf845a1c3',#16,#18,#408,.T.);
#410=SURFACE_CURVE('',#152,(#245,#320),.PCURVE_S1.);
#411=EDGE_CURVE('OSCAD_TOPO/3|edge|e:fff414a94915cb783017b836468c1577|061f5957c7096a1ad5fae9bebfc06d8b72b6c0ef5f90aa55ed362bd86599d51f',#20,#22,#410,.T.);
#412=SURFACE_CURVE('',#156,(#219,#355),.PCURVE_S1.);
#413=EDGE_CURVE('OSCAD_TOPO/3|edge|e:efd59c7b83f5ea660aeea97cbfb405a1|04678f348163cae778e4698450071d471b4766256aa1ec7fae2acee7b3c1704c',#24,#26,#412,.T.);
#414=ORIENTED_EDGE('',*,*,#373,.T.);
#415=ORIENTED_EDGE('',*,*,#375,.T.);
#416=ORIENTED_EDGE('',*,*,#403,.T.);
#417=ORIENTED_EDGE('',*,*,#377,.F.);
#418=ORIENTED_EDGE('',*,*,#379,.F.);
#419=EDGE_LOOP('OSCAD_TOPO/3|loop|l:fb8d77f9a4d2f4d449b1da9dbe4f85ae|02eeb7622c77ed9d2a6c39c571509155ce540541a1b2d048161599f7d6289aa6',(#414,#415,#416,#417,#418));
#420=ORIENTED_EDGE('',*,*,#399,.T.);
#421=ORIENTED_EDGE('',*,*,#401,.F.);
#422=ORIENTED_EDGE('',*,*,#397,.T.);
#423=ORIENTED_EDGE('',*,*,#395,.F.);
#424=EDGE_LOOP('OSCAD_TOPO/3|loop|l:a0d568674a9256fcbc0c9ecc81a5ace2|357945997868ecb7378cb6fcf240b433c67aa9ac4304c15c613712c2fa4ebb4b',(#420,#421,#422,#423));
#425=ORIENTED_EDGE('',*,*,#379,.T.);
#426=ORIENTED_EDGE('',*,*,#391,.T.);
#427=ORIENTED_EDGE('',*,*,#413,.T.);
#428=ORIENTED_EDGE('',*,*,#399,.F.);
#429=ORIENTED_EDGE('',*,*,#381,.F.);
#430=EDGE_LOOP('OSCAD_TOPO/3|loop|l:90c98acf289ac1ecf67d3c85f519de5f|cf8a29eb1331906f0213d64e3a5cab3277272d0c371fcb6940efb3a714aa820f',(#425,#426,#427,#428,#429));
#431=ORIENTED_EDGE('',*,*,#381,.T.);
#432=ORIENTED_EDGE('',*,*,#395,.T.);
#433=ORIENTED_EDGE('',*,*,#411,.F.);
#434=ORIENTED_EDGE('',*,*,#383,.F.);
#435=ORIENTED_EDGE('',*,*,#373,.F.);
#436=EDGE_LOOP('OSCAD_TOPO/3|loop|l:ae3e7d38b0a833b07f9f095f4ff16b0f|bc8a48cc623e7887264ee53d660d9eda5b790e59d03ce82bf4f6809e185dcc41',(#431,#432,#433,#434,#435));
#437=ORIENTED_EDGE('',*,*,#383,.T.);
#438=ORIENTED_EDGE('',*,*,#385,.F.);
#439=ORIENTED_EDGE('',*,*,#387,.F.);
#440=ORIENTED_EDGE('',*,*,#375,.F.);
#441=EDGE_LOOP('OSCAD_TOPO/3|loop|l:9ada8eb519fd701ec500d07d39fee204|434f75e24e6d549fc862fb9b84ad1f8b364f151d96e5539b41b19ba76ef8ceee',(#437,#438,#439,#440));
#442=ORIENTED_EDGE('',*,*,#377,.T.);
#443=ORIENTED_EDGE('',*,*,#389,.T.);
#444=ORIENTED_EDGE('',*,*,#393,.T.);
#445=ORIENTED_EDGE('',*,*,#391,.F.);
#446=EDGE_LOOP('OSCAD_TOPO/3|loop|l:a2beb40d0100e486aece4922ecaeee66|fd7d7be8b2f52c74e80eda7b4957dff6ac69f33a24289059b797aff4087c8f3c',(#442,#443,#444,#445));
#447=ORIENTED_EDGE('',*,*,#387,.T.);
#448=ORIENTED_EDGE('',*,*,#405,.T.);
#449=ORIENTED_EDGE('',*,*,#389,.F.);
#450=ORIENTED_EDGE('',*,*,#403,.F.);
#451=EDGE_LOOP('OSCAD_TOPO/3|loop|l:ef2df06d8e4677a14da722ffcd735888|d4bc527fe57a8ee4216148089ee97bf673e660fbbe4a385939e142edaa1698fc',(#447,#448,#449,#450));
#452=ORIENTED_EDGE('',*,*,#411,.T.);
#453=ORIENTED_EDGE('',*,*,#397,.F.);
#454=ORIENTED_EDGE('',*,*,#407,.F.);
#455=ORIENTED_EDGE('',*,*,#385,.T.);
#456=EDGE_LOOP('OSCAD_TOPO/3|loop|l:af424d423a7ba5df11a136d53cbcab5c|26fe99cc55baaf20c435ced0d4b00571f85b277d5f95b5283bff752014be0f10',(#452,#453,#454,#455));
#457=ORIENTED_EDGE('',*,*,#393,.F.);
#458=ORIENTED_EDGE('',*,*,#409,.T.);
#459=ORIENTED_EDGE('',*,*,#401,.T.);
#460=ORIENTED_EDGE('',*,*,#413,.F.);
#461=EDGE_LOOP('OSCAD_TOPO/3|loop|l:20983621733778d0e20250d9042bc7e3|f0db07b78e1cb8669b4df5f53f20be8a8f9d71c352ff649d0f6b05f116874ec6',(#457,#458,#459,#460));
#462=ORIENTED_EDGE('',*,*,#409,.F.);
#463=ORIENTED_EDGE('',*,*,#405,.F.);
#464=ORIENTED_EDGE('',*,*,#407,.T.);
#465=EDGE_LOOP('OSCAD_TOPO/3|loop|l:7686b5387b0f8b9dc7f1a7a2c7f33b18|4dd44d963b05d1f7957912fb1ac71b88428639f19a2f484504ba924b5643dd86',(#462,#463,#464));
#466=FACE_OUTER_BOUND('',#419,.T.);
#467=ADVANCED_FACE('OSCAD_TOPO/3|face|f:37842dab04220f87002c4d054e59f96a|dea7829beb51e05db1a7d1bc243162694dc4a47f0b4cff2d61f03b37424ffbcf',(#466),#31,.T.);
#468=FACE_OUTER_BOUND('',#424,.T.);
#469=ADVANCED_FACE('OSCAD_TOPO/3|face|f:2e98ecad2b014d2b6f0998d90d369e43|daa0c63f145fa21484d709b9b51a182ee7146fe9b58a28d06d550fe706ebdf7f',(#468),#36,.T.);
#470=FACE_OUTER_BOUND('',#430,.T.);
#471=ADVANCED_FACE('OSCAD_TOPO/3|face|f:e1b5211f48ede5a7e95aed70a8189162|f19ce0b8bc18719e87573920e1749b133174bcbd78dd71d5b59e4754fc2c692d',(#470),#41,.T.);
#472=FACE_OUTER_BOUND('',#436,.T.);
#473=ADVANCED_FACE('OSCAD_TOPO/3|face|f:9414583174c939c3d1dbfccab65ca664|e9e0643016129f189b8a2d990480d23884bd8d465a8ecc1e22b8e98798f01045',(#472),#46,.T.);
#474=FACE_OUTER_BOUND('',#441,.T.);
#475=ADVANCED_FACE('OSCAD_TOPO/3|face|f:1e65ed7f5e142e2d7af86b84c1b23ad2|e5a673ff0d04e2f8a2dde721f85ba50ff80ef2f07b28bf35853670802a5806cb',(#474),#51,.T.);
#476=FACE_OUTER_BOUND('',#446,.T.);
#477=ADVANCED_FACE('OSCAD_TOPO/3|face|f:2257ddca353169061c14efc5eaa80943|84f9b6575dcfac09924c4b3f007c262349a09b973989eb49de41f4dfa5a2a14b',(#476),#56,.T.);
#478=FACE_OUTER_BOUND('',#451,.T.);
#479=ADVANCED_FACE('OSCAD_TOPO/3|face|f:534218d23dd84b918fbb5fbff75fdd3d|6096818dfea2bc86a03c8023f32ff9127ddd0adb1e77f46a0f6764a37a93d0cd',(#478),#63,.T.);
#480=FACE_OUTER_BOUND('',#456,.T.);
#481=ADVANCED_FACE('OSCAD_TOPO/3|face|f:9988923df0de01ae690e8007957e7742|8c901130529ddc41263102f0460cfd91da045a71ef10eae3fdd1edb35184ec7b',(#480),#70,.T.);
#482=FACE_OUTER_BOUND('',#461,.T.);
#483=ADVANCED_FACE('OSCAD_TOPO/3|face|f:aa1e79e6e42089b188fbb523dc56b88b|bf4c6a4bc67095a38700546cd76b199206b6eed3ea248ee09ea05420eec95753',(#482),#77,.T.);
#484=FACE_OUTER_BOUND('',#465,.T.);
#485=ADVANCED_FACE('OSCAD_TOPO/3|face|f:c424dcfc52b748e0659678d16913553f|9a5b124c2e60e05ed83c27626cddedc98ed3733d569773e8559ceb26ab1e64ca',(#484),#87,.T.);
#486=CLOSED_SHELL('OSCAD_TOPO/3|shell|s:ab60cc204a667c6b38c95031529dd962|ee379534e778b4b17636178a77e62844b2f77a3d349948dd12e78a660f53441c',(#467,#469,#471,#473,#475,#477,#479,#481,#483,#485));
#487=MANIFOLD_SOLID_BREP('OSCAD_TOPO/3|body|b:4ffc245c2f93a9ff4d32bcfbc2fec05e|c11b27a9de05b570d7520ed62d59f57c58faadf3147b30d122917dd9616a7929',#486);
#488=(LENGTH_UNIT()NAMED_UNIT(*)SI_UNIT(.MILLI.,.METRE.));
#489=UNCERTAINTY_MEASURE_WITH_UNIT(LENGTH_MEASURE(9.99999999999999955E-8),#488,'distance_accuracy_value','');
#490=(GEOMETRIC_REPRESENTATION_CONTEXT(3)GLOBAL_UNCERTAINTY_ASSIGNED_CONTEXT((#489))GLOBAL_UNIT_ASSIGNED_CONTEXT((#488))REPRESENTATION_CONTEXT('','3D'));
#491=ADVANCED_BREP_SHAPE_REPRESENTATION('',(#487),#490);
#492=APPLICATION_CONTEXT('managed model based 3d engineering');
#493=PRODUCT_CONTEXT('',#492,'mechanical');
#494=PRODUCT('model','model','',(#493));
#495=PRODUCT_DEFINITION_FORMATION('1','',#494);
#496=PRODUCT_DEFINITION_CONTEXT('part definition',#492,'design');
#497=PRODUCT_DEFINITION('design','',#495,#496);
#498=PRODUCT_DEFINITION_SHAPE('','',#497);
#499=SHAPE_DEFINITION_REPRESENTATION(#498,#491);
ENDSEC;
END-ISO-10303-21;
