ISO-10303-21;
HEADER;
FILE_DESCRIPTION(('OpenSCAD Viewer retained AP242 B-rep'),'2;1');
FILE_NAME('model.step','',(''),(''),'OpenSCAD Viewer','OpenSCAD Viewer','');
FILE_SCHEMA(('AP242_MANAGED_MODEL_BASED_3D_ENGINEERING_MIM_LF'));
ENDSEC;
DATA;
#1=CARTESIAN_POINT('',(2.39909881545610553E1,1.51503678550617948E0,2.68157680776272045E1));
#2=VERTEX_POINT('OSCAD_TOPO/3|vertex|v:91cfc3b0f7662dad733f739b05a6793d|05bbcf72b4bb24b49ae4e385f8372097b3334130678d8bd9f28507900f656912',#1);
#3=CARTESIAN_POINT('',(2.70521984266857096E1,-4.49950565951950665E0,1.94364543665275740E1));
#4=VERTEX_POINT('OSCAD_TOPO/3|vertex|v:4f61ff77a1bb8b4346164472e475e413|e32b1deb6582b1a3d80ba5c89c5a78bd431472c9b14f0cbd978ebea6f79ef31b',#3);
#5=CARTESIAN_POINT('',(2.01453413862095836E1,-8.01487560056773241E0,1.94364543665275740E1));
#6=VERTEX_POINT('OSCAD_TOPO/3|vertex|v:ecc59e44fb4e86390dc4305e3a6c95a5|c91815e0acb3a58fb09e64308553de8f28398f6a6528d037e63dd1347caa5820',#5);
#7=CARTESIAN_POINT('',(1.98460092893911089E1,-7.97791106979848497E0,1.96209372093050654E1));
#8=VERTEX_POINT('OSCAD_TOPO/3|vertex|v:210c0df05cf69b7c3e5e32de86cd64cc|60409ed298085f5924bf7ac20315964525efaff61469fff006f66c338ac1bb06',#7);
#9=CARTESIAN_POINT('',(1.68613292740695684E1,-2.11373218589844036E0,2.68157680776272045E1));
#10=VERTEX_POINT('OSCAD_TOPO/3|vertex|v:62976634d2e35e2257ac554f9f9ee5e3|8bb505fb92e64c0501cf498624e60697b8b217cec8f7d9ad008571c2b66163cc',#9);
#11=CARTESIAN_POINT('',(2.59993250014434807E1,-2.43086242941437192E0,3.08650226380548034E1));
#12=VERTEX_POINT('OSCAD_TOPO/3|vertex|v:52a445024de90b928e365bd06391697a|8649fc52623493d4c0d5baa2697260f63f1a9fa04d9fa2f6b3ecfdb4d5e20dc4',#11);
#13=CARTESIAN_POINT('',(1.90924679609673547E1,-5.94623237046259767E0,3.08650226380548034E1));
#14=VERTEX_POINT('OSCAD_TOPO/3|vertex|v:581d076c277ac154b50fdc2d3b34f876|39541c0a4da550f3e8ae52ab410eba89d1b4d370deeb1058d5fc117ed5f355b0',#13);
#15=CARTESIAN_POINT('',(2.20771479762888916E1,-1.18104112543626414E1,2.36701917697326678E1));
#16=VERTEX_POINT('OSCAD_TOPO/3|vertex|v:5fae73a2820ab35ca065fe44f2eccd21|0de63cad772537d750490644356f7a5d381950b14f6365e4f0279f0a95c52699',#15);
#17=CARTESIAN_POINT('',(2.89840050167650176E1,-8.29504131331441563E0,2.36701917697326678E1));
#18=VERTEX_POINT('OSCAD_TOPO/3|vertex|v:9b906187a2ed961af5abb37b4be1e5a0|c5499688ae04ef8ab16914a3261bf3cf6c1c359a39819c501ee4b890a29c2f9e',#17);
#19=CARTESIAN_POINT('',(1.87859854189985604E1,-5.89521893353063575E0,3.06963036980369885E1));
#20=VERTEX_POINT('OSCAD_TOPO/3|vertex|v:61844fe3fa410ec943fc1de1e06cb445|20a3baac1cfe2f9345199f20ab43375c4a71b2c6f132dba36d12455da6bf7c59',#19);
#21=CARTESIAN_POINT('',(2.89768545716147017E1,-8.28099240715170204E0,2.33169899869373616E1));
#22=VERTEX_POINT('OSCAD_TOPO/3|vertex|v:62349d0080c0b06136e94d03bf51b989|be37840161d5363e42e59958d933269da331adb5bab11f0a338797f03bb44119',#21);
#23=CARTESIAN_POINT('',(2.20699975311385757E1,-1.17963623481999278E1,2.33169899869373616E1));
#24=VERTEX_POINT('OSCAD_TOPO/3|vertex|v:c54414ff51d5feebd06c7a3060bd63ae|0d54f46045ba544965fb296eaea838f8e49e037cbb05480ae7c95935b549df4e',#23);
#25=CARTESIAN_POINT('',(2.17706654343200974E1,-1.17593978174306795E1,2.35014728297148530E1));
#26=VERTEX_POINT('OSCAD_TOPO/3|vertex|v:834a40585c3ec0a8f8598fab4d3d8f54|9b87f9c4a16f925acdcee8ef00248e4332c33aa9ce0d70d39754a8ca388b977c',#25);
#27=CARTESIAN_POINT('',(2.39909881545610553E1,1.51503678550617948E0,2.68157680776272045E1));
#28=CARTESIAN_POINT('',(1.68613292740695684E1,-2.11373218589844036E0,2.68157680776272045E1));
#29=CARTESIAN_POINT('',(2.70521984266857096E1,-4.49950565951950665E0,1.94364543665275740E1));
#30=CARTESIAN_POINT('',(1.99225395461942227E1,-8.12827463092412650E0,1.94364543665275740E1));
#31=B_SPLINE_SURFACE_WITH_KNOTS('',1,1,((#27,#28),(#29,#30)),.UNSPECIFIED.,.F.,.F.,.F.,(2,2),(2,2),(0.00000000000000000E0,1.00000000000000000E0),(0.00000000000000000E0,1.00000000000000000E0),.UNSPECIFIED.);
#32=CARTESIAN_POINT('',(2.90605352735681350E1,-8.44540487444005805E0,2.34857089269551764E1));
#33=CARTESIAN_POINT('',(2.19308763930766482E1,-1.20741738458446779E1,2.34857089269551764E1));
#34=CARTESIAN_POINT('',(2.59993250014434807E1,-2.43086242941437192E0,3.08650226380548034E1));
#35=CARTESIAN_POINT('',(1.88696661209519938E1,-6.05963140081899176E0,3.08650226380548034E1));
#36=B_SPLINE_SURFACE_WITH_KNOTS('',1,1,((#32,#33),(#34,#35)),.UNSPECIFIED.,.F.,.F.,.F.,(2,2),(2,2),(0.00000000000000000E0,1.00000000000000000E0),(0.00000000000000000E0,1.00000000000000000E0),.UNSPECIFIED.);
#37=CARTESIAN_POINT('',(2.39909881545610553E1,1.51503678550617948E0,2.68157680776272045E1));
#38=CARTESIAN_POINT('',(2.59993250014434807E1,-2.43086242941437192E0,3.08650226380548034E1));
#39=CARTESIAN_POINT('',(1.68613292740695684E1,-2.11373218589844036E0,2.68157680776272045E1));
#40=CARTESIAN_POINT('',(1.88696661209519938E1,-6.05963140081899176E0,3.08650226380548034E1));
#41=B_SPLINE_SURFACE_WITH_KNOTS('',1,1,((#37,#38),(#39,#40)),.UNSPECIFIED.,.F.,.F.,.F.,(2,2),(2,2),(0.00000000000000000E0,1.00000000000000000E0),(0.00000000000000000E0,1.00000000000000000E0),.UNSPECIFIED.);
#42=CARTESIAN_POINT('',(2.70521984266857096E1,-4.49950565951950665E0,1.94364543665275740E1));
#43=CARTESIAN_POINT('',(2.90605352735681350E1,-8.44540487444005805E0,2.34857089269551764E1));
#44=CARTESIAN_POINT('',(2.39909881545610553E1,1.51503678550617948E0,2.68157680776272045E1));
#45=CARTESIAN_POINT('',(2.59993250014434807E1,-2.43086242941437192E0,3.08650226380548034E1));
#46=B_SPLINE_SURFACE_WITH_KNOTS('',1,1,((#42,#43),(#44,#45)),.UNSPECIFIED.,.F.,.F.,.F.,(2,2),(2,2),(0.00000000000000000E0,1.00000000000000000E0),(0.00000000000000000E0,1.00000000000000000E0),.UNSPECIFIED.);
#47=CARTESIAN_POINT('',(1.99225395461942227E1,-8.12827463092412650E0,1.94364543665275740E1));
#48=CARTESIAN_POINT('',(2.19308763930766482E1,-1.20741738458446779E1,2.34857089269551764E1));
#49=CARTESIAN_POINT('',(2.70521984266857096E1,-4.49950565951950665E0,1.94364543665275740E1));
#50=CARTESIAN_POINT('',(2.90605352735681350E1,-8.44540487444005805E0,2.34857089269551764E1));
#51=B_SPLINE_SURFACE_WITH_KNOTS('',1,1,((#47,#48),(#49,#50)),.UNSPECIFIED.,.F.,.F.,.F.,(2,2),(2,2),(0.00000000000000000E0,1.00000000000000000E0),(0.00000000000000000E0,1.00000000000000000E0),.UNSPECIFIED.);
#52=CARTESIAN_POINT('',(1.68613292740695684E1,-2.11373218589844036E0,2.68157680776272045E1));
#53=CARTESIAN_POINT('',(1.88696661209519938E1,-6.05963140081899176E0,3.08650226380548034E1));
#54=CARTESIAN_POINT('',(1.99225395461942227E1,-8.12827463092412650E0,1.94364543665275740E1));
#55=CARTESIAN_POINT('',(2.19308763930766482E1,-1.20741738458446779E1,2.34857089269551764E1));
#56=B_SPLINE_SURFACE_WITH_KNOTS('',1,1,((#52,#53),(#54,#55)),.UNSPECIFIED.,.F.,.F.,.F.,(2,2),(2,2),(0.00000000000000000E0,1.00000000000000000E0),(0.00000000000000000E0,1.00000000000000000E0),.UNSPECIFIED.);
#57=CARTESIAN_POINT('',(1.98460092893911089E1,-7.97791106979848497E0,1.96209372093050654E1));
#58=CARTESIAN_POINT('',(2.17706654343200974E1,-1.17593978174306795E1,2.35014728297148530E1));
#59=CARTESIAN_POINT('',(1.99225395461942227E1,-8.12827463092412650E0,1.94364543665275740E1));
#60=CARTESIAN_POINT('',(2.18471956911232148E1,-1.19097613785563219E1,2.33169899869373616E1));
#61=CARTESIAN_POINT('',(2.01453413862095836E1,-8.01487560056773241E0,1.94364543665275740E1));
#62=CARTESIAN_POINT('',(2.20699975311385757E1,-1.17963623481999278E1,2.33169899869373616E1));
#63=(BOUNDED_SURFACE()B_SPLINE_SURFACE(2,1,((#57,#58),(#59,#60),(#61,#62)),.UNSPECIFIED.,.F.,.F.,.F.)B_SPLINE_SURFACE_WITH_KNOTS((3,3),(2,2),(0.00000000000000000E0,1.00000000000000000E0),(0.00000000000000000E0,1.00000000000000000E0),.UNSPECIFIED.)GEOMETRIC_REPRESENTATION_ITEM()RATIONAL_B_SPLINE_SURFACE(((1.00000000000000000E0,1.00000000000000000E0),(7.07106781186547573E-1,7.07106781186547573E-1),(1.00000000000000000E0,1.00000000000000000E0)))REPRESENTATION_ITEM('')SURFACE());
#64=CARTESIAN_POINT('',(2.89768545716147017E1,-8.28099240715170204E0,2.33169899869373616E1));
#65=CARTESIAN_POINT('',(2.20699975311385757E1,-1.17963623481999278E1,2.33169899869373616E1));
#66=CARTESIAN_POINT('',(2.90605352735681350E1,-8.44540487444005805E0,2.34857089269551764E1));
#67=CARTESIAN_POINT('',(2.21536782330920090E1,-1.19607748154882838E1,2.34857089269551764E1));
#68=CARTESIAN_POINT('',(2.89840050167650176E1,-8.29504131331441563E0,2.36701917697326678E1));
#69=CARTESIAN_POINT('',(2.20771479762888916E1,-1.18104112543626414E1,2.36701917697326678E1));
#70=(BOUNDED_SURFACE()B_SPLINE_SURFACE(2,1,((#64,#65),(#66,#67),(#68,#69)),.UNSPECIFIED.,.F.,.F.,.F.)B_SPLINE_SURFACE_WITH_KNOTS((3,3),(2,2),(0.00000000000000000E0,1.00000000000000000E0),(0.00000000000000000E0,1.00000000000000000E0),.UNSPECIFIED.)GEOMETRIC_REPRESENTATION_ITEM()RATIONAL_B_SPLINE_SURFACE(((2.00000000000000000E0,2.00000000000000000E0),(1.00000000000000000E0,1.00000000000000000E0),(1.00000000000000000E0,1.00000000000000000E0)))REPRESENTATION_ITEM('')SURFACE());
#71=CARTESIAN_POINT('',(1.90924679609673547E1,-5.94623237046259767E0,3.08650226380548034E1));
#72=CARTESIAN_POINT('',(2.20771479762888916E1,-1.18104112543626414E1,2.36701917697326678E1));
#73=CARTESIAN_POINT('',(1.88696661209519938E1,-6.05963140081899176E0,3.08650226380548034E1));
#74=CARTESIAN_POINT('',(2.18543461362735343E1,-1.19238102847190355E1,2.36701917697326678E1));
#75=CARTESIAN_POINT('',(1.87859854189985604E1,-5.89521893353063575E0,3.06963036980369885E1));
#76=CARTESIAN_POINT('',(2.17706654343200974E1,-1.17593978174306795E1,2.35014728297148530E1));
#77=(BOUNDED_SURFACE()B_SPLINE_SURFACE(2,1,((#71,#72),(#73,#74),(#75,#76)),.UNSPECIFIED.,.F.,.F.,.F.)B_SPLINE_SURFACE_WITH_KNOTS((3,3),(2,2),(0.00000000000000000E0,1.00000000000000000E0),(0.00000000000000000E0,1.00000000000000000E0),.UNSPECIFIED.)GEOMETRIC_REPRESENTATION_ITEM()RATIONAL_B_SPLINE_SURFACE(((1.00000000000000000E0,1.00000000000000000E0),(1.00000000000000000E0,1.00000000000000000E0),(2.00000000000000000E0,2.00000000000000000E0)))REPRESENTATION_ITEM('')SURFACE());
#78=CARTESIAN_POINT('',(2.20699975311385757E1,-1.17963623481999278E1,2.33169899869373616E1));
#79=CARTESIAN_POINT('',(2.19585966111308935E1,-1.18530618633781248E1,2.33169899869373616E1));
#80=CARTESIAN_POINT('',(2.18680593182094860E1,-1.17670363589661910E1,2.33222446211905847E1));
#81=CARTESIAN_POINT('',(2.21536782330920090E1,-1.19607748154882838E1,2.34857089269551764E1));
#82=CARTESIAN_POINT('',(2.19308763930766482E1,-1.20741738458446779E1,2.34857089269551764E1));
#83=CARTESIAN_POINT('',(2.18089305627216561E1,-1.18345795979935016E1,2.34092314083261073E1));
#84=CARTESIAN_POINT('',(2.20771479762888916E1,-1.18104112543626414E1,2.36701917697326678E1));
#85=CARTESIAN_POINT('',(2.18543461362735343E1,-1.19238102847190355E1,2.36701917697326678E1));
#86=CARTESIAN_POINT('',(2.17706654343200974E1,-1.17593978174306795E1,2.35014728297148530E1));
#87=(BOUNDED_SURFACE()B_SPLINE_SURFACE(2,2,((#78,#79,#80),(#81,#82,#83),(#84,#85,#86)),.UNSPECIFIED.,.F.,.F.,.F.)B_SPLINE_SURFACE_WITH_KNOTS((3,3),(3,3),(0.00000000000000000E0,1.00000000000000000E0),(0.00000000000000000E0,1.00000000000000000E0),.UNSPECIFIED.)GEOMETRIC_REPRESENTATION_ITEM()RATIONAL_B_SPLINE_SURFACE(((2.00000000000000000E0,2.00000000000000000E0,3.00000000000000000E0),(1.00000000000000000E0,1.00000000000000000E0,2.00000000000000000E0),(1.00000000000000000E0,1.00000000000000000E0,2.00000000000000000E0)))REPRESENTATION_ITEM('')SURFACE());
#88=CARTESIAN_POINT('',(2.39909881545610553E1,1.51503678550617948E0,2.68157680776272045E1));
#89=CARTESIAN_POINT('',(2.70521984266857096E1,-4.49950565951950665E0,1.94364543665275740E1));
#90=B_SPLINE_CURVE_WITH_KNOTS('',1,(#88,#89),.UNSPECIFIED.,.F.,.F.,(2,2),(0.00000000000000000E0,1.00000000000000000E0),.UNSPECIFIED.);
#91=CARTESIAN_POINT('',(2.70521984266857096E1,-4.49950565951950665E0,1.94364543665275740E1));
#92=CARTESIAN_POINT('',(2.01453413862095836E1,-8.01487560056773241E0,1.94364543665275740E1));
#93=B_SPLINE_CURVE_WITH_KNOTS('',1,(#91,#92),.UNSPECIFIED.,.F.,.F.,(2,2),(0.00000000000000000E0,1.00000000000000000E0),.UNSPECIFIED.);
#94=CARTESIAN_POINT('',(2.01453413862095836E1,-8.01487560056773241E0,1.94364543665275740E1));
#95=CARTESIAN_POINT('',(1.99225395461942227E1,-8.12827463092412650E0,1.94364543665275740E1));
#96=CARTESIAN_POINT('',(1.98460092893911089E1,-7.97791106979848497E0,1.96209372093050654E1));
#97=(BOUNDED_CURVE()B_SPLINE_CURVE(2,(#94,#95,#96),.UNSPECIFIED.,.F.,.F.)B_SPLINE_CURVE_WITH_KNOTS((3,3),(0.00000000000000000E0,1.00000000000000000E0),.UNSPECIFIED.)CURVE()GEOMETRIC_REPRESENTATION_ITEM()RATIONAL_B_SPLINE_CURVE((1.00000000000000000E0,7.07106781186547573E-1,1.00000000000000000E0))REPRESENTATION_ITEM(''));
#98=CARTESIAN_POINT('',(1.68613292740695684E1,-2.11373218589844036E0,2.68157680776272045E1));
#99=CARTESIAN_POINT('',(1.98460092893911089E1,-7.97791106979848497E0,1.96209372093050654E1));
#100=B_SPLINE_CURVE_WITH_KNOTS('',1,(#98,#99),.UNSPECIFIED.,.F.,.F.,(2,2),(0.00000000000000000E0,1.00000000000000000E0),.UNSPECIFIED.);
#101=CARTESIAN_POINT('',(2.39909881545610553E1,1.51503678550617948E0,2.68157680776272045E1));
#102=CARTESIAN_POINT('',(1.68613292740695684E1,-2.11373218589844036E0,2.68157680776272045E1));
#103=B_SPLINE_CURVE_WITH_KNOTS('',1,(#101,#102),.UNSPECIFIED.,.F.,.F.,(2,2),(0.00000000000000000E0,1.00000000000000000E0),.UNSPECIFIED.);
#104=CARTESIAN_POINT('',(2.59993250014434807E1,-2.43086242941437192E0,3.08650226380548034E1));
#105=CARTESIAN_POINT('',(1.90924679609673547E1,-5.94623237046259767E0,3.08650226380548034E1));
#106=B_SPLINE_CURVE_WITH_KNOTS('',1,(#104,#105),.UNSPECIFIED.,.F.,.F.,(2,2),(0.00000000000000000E0,1.00000000000000000E0),.UNSPECIFIED.);
#107=CARTESIAN_POINT('',(2.20771479762888916E1,-1.18104112543626414E1,2.36701917697326678E1));
#108=CARTESIAN_POINT('',(1.90924679609673547E1,-5.94623237046259767E0,3.08650226380548034E1));
#109=B_SPLINE_CURVE_WITH_KNOTS('',1,(#107,#108),.UNSPECIFIED.,.F.,.F.,(2,2),(0.00000000000000000E0,1.00000000000000000E0),.UNSPECIFIED.);
#110=CARTESIAN_POINT('',(2.20771479762888916E1,-1.18104112543626414E1,2.36701917697326678E1));
#111=CARTESIAN_POINT('',(2.89840050167650176E1,-8.29504131331441563E0,2.36701917697326678E1));
#112=B_SPLINE_CURVE_WITH_KNOTS('',1,(#110,#111),.UNSPECIFIED.,.F.,.F.,(2,2),(0.00000000000000000E0,1.00000000000000000E0),.UNSPECIFIED.);
#113=CARTESIAN_POINT('',(2.59993250014434807E1,-2.43086242941437192E0,3.08650226380548034E1));
#114=CARTESIAN_POINT('',(2.89840050167650176E1,-8.29504131331441563E0,2.36701917697326678E1));
#115=B_SPLINE_CURVE_WITH_KNOTS('',1,(#113,#114),.UNSPECIFIED.,.F.,.F.,(2,2),(0.00000000000000000E0,1.00000000000000000E0),.UNSPECIFIED.);
#116=CARTESIAN_POINT('',(1.68613292740695684E1,-2.11373218589844036E0,2.68157680776272045E1));
#117=CARTESIAN_POINT('',(1.87859854189985604E1,-5.89521893353063575E0,3.06963036980369885E1));
#118=B_SPLINE_CURVE_WITH_KNOTS('',1,(#116,#117),.UNSPECIFIED.,.F.,.F.,(2,2),(0.00000000000000000E0,1.00000000000000000E0),.UNSPECIFIED.);
#119=CARTESIAN_POINT('',(1.87859854189985604E1,-5.89521893353063575E0,3.06963036980369885E1));
#120=CARTESIAN_POINT('',(1.88696661209519938E1,-6.05963140081899176E0,3.08650226380548034E1));
#121=CARTESIAN_POINT('',(1.90924679609673547E1,-5.94623237046259767E0,3.08650226380548034E1));
#122=(BOUNDED_CURVE()B_SPLINE_CURVE(2,(#119,#120,#121),.UNSPECIFIED.,.F.,.F.)B_SPLINE_CURVE_WITH_KNOTS((3,3),(0.00000000000000000E0,1.00000000000000000E0),.UNSPECIFIED.)CURVE()GEOMETRIC_REPRESENTATION_ITEM()RATIONAL_B_SPLINE_CURVE((2.00000000000000000E0,1.00000000000000000E0,1.00000000000000000E0))REPRESENTATION_ITEM(''));
#123=CARTESIAN_POINT('',(2.39909881545610553E1,1.51503678550617948E0,2.68157680776272045E1));
#124=CARTESIAN_POINT('',(2.59993250014434807E1,-2.43086242941437192E0,3.08650226380548034E1));
#125=B_SPLINE_CURVE_WITH_KNOTS('',1,(#123,#124),.UNSPECIFIED.,.F.,.F.,(2,2),(0.00000000000000000E0,1.00000000000000000E0),.UNSPECIFIED.);
#126=CARTESIAN_POINT('',(2.89768545716147017E1,-8.28099240715170204E0,2.33169899869373616E1));
#127=CARTESIAN_POINT('',(2.90605352735681350E1,-8.44540487444005805E0,2.34857089269551764E1));
#128=CARTESIAN_POINT('',(2.89840050167650176E1,-8.29504131331441563E0,2.36701917697326678E1));
#129=(BOUNDED_CURVE()B_SPLINE_CURVE(2,(#126,#127,#128),.UNSPECIFIED.,.F.,.F.)B_SPLINE_CURVE_WITH_KNOTS((3,3),(0.00000000000000000E0,1.00000000000000000E0),.UNSPECIFIED.)CURVE()GEOMETRIC_REPRESENTATION_ITEM()RATIONAL_B_SPLINE_CURVE((2.00000000000000000E0,1.00000000000000000E0,1.00000000000000000E0))REPRESENTATION_ITEM(''));
#130=CARTESIAN_POINT('',(2.70521984266857096E1,-4.49950565951950665E0,1.94364543665275740E1));
#131=CARTESIAN_POINT('',(2.89768545716147017E1,-8.28099240715170204E0,2.33169899869373616E1));
#132=B_SPLINE_CURVE_WITH_KNOTS('',1,(#130,#131),.UNSPECIFIED.,.F.,.F.,(2,2),(0.00000000000000000E0,1.00000000000000000E0),.UNSPECIFIED.);
#133=CARTESIAN_POINT('',(2.20699975311385757E1,-1.17963623481999278E1,2.33169899869373616E1));
#134=CARTESIAN_POINT('',(2.89768545716147017E1,-8.28099240715170204E0,2.33169899869373616E1));
#135=B_SPLINE_CURVE_WITH_KNOTS('',1,(#133,#134),.UNSPECIFIED.,.F.,.F.,(2,2),(0.00000000000000000E0,1.00000000000000000E0),.UNSPECIFIED.);
#136=CARTESIAN_POINT('',(2.01453413862095836E1,-8.01487560056773241E0,1.94364543665275740E1));
#137=CARTESIAN_POINT('',(2.20699975311385757E1,-1.17963623481999278E1,2.33169899869373616E1));
#138=B_SPLINE_CURVE_WITH_KNOTS('',1,(#136,#137),.UNSPECIFIED.,.F.,.F.,(2,2),(0.00000000000000000E0,1.00000000000000000E0),.UNSPECIFIED.);
#139=CARTESIAN_POINT('',(1.98460092893911089E1,-7.97791106979848497E0,1.96209372093050654E1));
#140=CARTESIAN_POINT('',(2.17706654343200974E1,-1.17593978174306795E1,2.35014728297148530E1));
#141=B_SPLINE_CURVE_WITH_KNOTS('',1,(#139,#140),.UNSPECIFIED.,.F.,.F.,(2,2),(0.00000000000000000E0,1.00000000000000000E0),.UNSPECIFIED.);
#142=CARTESIAN_POINT('',(2.17706654343200974E1,-1.17593978174306795E1,2.35014728297148530E1));
#143=CARTESIAN_POINT('',(1.87859854189985604E1,-5.89521893353063575E0,3.06963036980369885E1));
#144=B_SPLINE_CURVE_WITH_KNOTS('',1,(#142,#143),.UNSPECIFIED.,.F.,.F.,(2,2),(0.00000000000000000E0,1.00000000000000000E0),.UNSPECIFIED.);
#145=CARTESIAN_POINT('',(2.20699975311385757E1,-1.17963623481999278E1,2.33169899869373616E1));
#146=CARTESIAN_POINT('',(2.18471956911232148E1,-1.19097613785563219E1,2.33169899869373616E1));
#147=CARTESIAN_POINT('',(2.17706654343200974E1,-1.17593978174306795E1,2.35014728297148530E1));
#148=(BOUNDED_CURVE()B_SPLINE_CURVE(2,(#145,#146,#147),.UNSPECIFIED.,.F.,.F.)B_SPLINE_CURVE_WITH_KNOTS((3,3),(0.00000000000000000E0,1.00000000000000000E0),.UNSPECIFIED.)CURVE()GEOMETRIC_REPRESENTATION_ITEM()RATIONAL_B_SPLINE_CURVE((1.00000000000000000E0,7.07106781186547573E-1,1.00000000000000000E0))REPRESENTATION_ITEM(''));
#149=CARTESIAN_POINT('',(2.20699975311385757E1,-1.17963623481999278E1,2.33169899869373616E1));
#150=CARTESIAN_POINT('',(2.21536782330920090E1,-1.19607748154882838E1,2.34857089269551764E1));
#151=CARTESIAN_POINT('',(2.20771479762888916E1,-1.18104112543626414E1,2.36701917697326678E1));
#152=(BOUNDED_CURVE()B_SPLINE_CURVE(2,(#149,#150,#151),.UNSPECIFIED.,.F.,.F.)B_SPLINE_CURVE_WITH_KNOTS((3,3),(0.00000000000000000E0,1.00000000000000000E0),.UNSPECIFIED.)CURVE()GEOMETRIC_REPRESENTATION_ITEM()RATIONAL_B_SPLINE_CURVE((2.00000000000000000E0,1.00000000000000000E0,1.00000000000000000E0))REPRESENTATION_ITEM(''));
#153=CARTESIAN_POINT('',(2.17706654343200974E1,-1.17593978174306795E1,2.35014728297148530E1));
#154=CARTESIAN_POINT('',(2.18543461362735343E1,-1.19238102847190355E1,2.36701917697326678E1));
#155=CARTESIAN_POINT('',(2.20771479762888916E1,-1.18104112543626414E1,2.36701917697326678E1));
#156=(BOUNDED_CURVE()B_SPLINE_CURVE(2,(#153,#154,#155),.UNSPECIFIED.,.F.,.F.)B_SPLINE_CURVE_WITH_KNOTS((3,3),(0.00000000000000000E0,1.00000000000000000E0),.UNSPECIFIED.)CURVE()GEOMETRIC_REPRESENTATION_ITEM()RATIONAL_B_SPLINE_CURVE((2.00000000000000000E0,1.00000000000000000E0,1.00000000000000000E0))REPRESENTATION_ITEM(''));
#157=(GEOMETRIC_REPRESENTATION_CONTEXT(2)REPRESENTATION_CONTEXT('','2D'));
#158=CARTESIAN_POINT('',(0.00000000000000000E0,0.00000000000000000E0));
#159=CARTESIAN_POINT('',(1.00000000000000000E0,0.00000000000000000E0));
#160=B_SPLINE_CURVE_WITH_KNOTS('',1,(#158,#159),.UNSPECIFIED.,.F.,.F.,(2,2),(0.00000000000000000E0,1.00000000000000000E0),.UNSPECIFIED.);
#161=DEFINITIONAL_REPRESENTATION('',(#160),#157);
#162=PCURVE('',#31,#161);
#163=CARTESIAN_POINT('',(1.00000000000000000E0,0.00000000000000000E0));
#164=CARTESIAN_POINT('',(1.00000000000000000E0,9.68750000000000000E-1));
#165=B_SPLINE_CURVE_WITH_KNOTS('',1,(#163,#164),.UNSPECIFIED.,.F.,.F.,(2,2),(0.00000000000000000E0,1.00000000000000000E0),.UNSPECIFIED.);
#166=DEFINITIONAL_REPRESENTATION('',(#165),#157);
#167=PCURVE('',#31,#166);
#168=CARTESIAN_POINT('',(1.00000000000000000E0,9.68750000000000000E-1));
#169=CARTESIAN_POINT('',(1.00000000000000000E0,1.00000000000000000E0));
#170=CARTESIAN_POINT('',(9.74999999999999978E-1,1.00000000000000000E0));
#171=(BOUNDED_CURVE()B_SPLINE_CURVE(2,(#168,#169,#170),.UNSPECIFIED.,.F.,.F.)B_SPLINE_CURVE_WITH_KNOTS((3,3),(0.00000000000000000E0,1.00000000000000000E0),.UNSPECIFIED.)CURVE()GEOMETRIC_REPRESENTATION_ITEM()RATIONAL_B_SPLINE_CURVE((1.00000000000000000E0,7.07106781186547573E-1,1.00000000000000000E0))REPRESENTATION_ITEM(''));
#172=DEFINITIONAL_REPRESENTATION('',(#171),#157);
#173=PCURVE('',#31,#172);
#174=CARTESIAN_POINT('',(9.74999999999999978E-1,1.00000000000000000E0));
#175=CARTESIAN_POINT('',(0.00000000000000000E0,1.00000000000000000E0));
#176=B_SPLINE_CURVE_WITH_KNOTS('',1,(#174,#175),.UNSPECIFIED.,.F.,.F.,(2,2),(0.00000000000000000E0,1.00000000000000000E0),.UNSPECIFIED.);
#177=DEFINITIONAL_REPRESENTATION('',(#176),#157);
#178=PCURVE('',#31,#177);
#179=CARTESIAN_POINT('',(0.00000000000000000E0,1.00000000000000000E0));
#180=CARTESIAN_POINT('',(0.00000000000000000E0,0.00000000000000000E0));
#181=B_SPLINE_CURVE_WITH_KNOTS('',1,(#179,#180),.UNSPECIFIED.,.F.,.F.,(2,2),(0.00000000000000000E0,1.00000000000000000E0),.UNSPECIFIED.);
#182=DEFINITIONAL_REPRESENTATION('',(#181),#157);
#183=PCURVE('',#31,#182);
#184=CARTESIAN_POINT('',(1.00000000000000000E0,0.00000000000000000E0));
#185=CARTESIAN_POINT('',(1.00000000000000000E0,9.68750000000000000E-1));
#186=B_SPLINE_CURVE_WITH_KNOTS('',1,(#184,#185),.UNSPECIFIED.,.F.,.F.,(2,2),(0.00000000000000000E0,1.00000000000000000E0),.UNSPECIFIED.);
#187=DEFINITIONAL_REPRESENTATION('',(#186),#157);
#188=PCURVE('',#36,#187);
#189=CARTESIAN_POINT('',(1.00000000000000000E0,9.68750000000000000E-1));
#190=CARTESIAN_POINT('',(2.50000000000000222E-2,9.68750000000000000E-1));
#191=B_SPLINE_CURVE_WITH_KNOTS('',1,(#189,#190),.UNSPECIFIED.,.F.,.F.,(2,2),(0.00000000000000000E0,1.00000000000000000E0),.UNSPECIFIED.);
#192=DEFINITIONAL_REPRESENTATION('',(#191),#157);
#193=PCURVE('',#36,#192);
#194=CARTESIAN_POINT('',(2.50000000000000222E-2,9.68750000000000000E-1));
#195=CARTESIAN_POINT('',(2.50000000000000222E-2,0.00000000000000000E0));
#196=B_SPLINE_CURVE_WITH_KNOTS('',1,(#194,#195),.UNSPECIFIED.,.F.,.F.,(2,2),(0.00000000000000000E0,1.00000000000000000E0),.UNSPECIFIED.);
#197=DEFINITIONAL_REPRESENTATION('',(#196),#157);
#198=PCURVE('',#36,#197);
#199=CARTESIAN_POINT('',(2.50000000000000222E-2,0.00000000000000000E0));
#200=CARTESIAN_POINT('',(1.00000000000000000E0,0.00000000000000000E0));
#201=B_SPLINE_CURVE_WITH_KNOTS('',1,(#199,#200),.UNSPECIFIED.,.F.,.F.,(2,2),(0.00000000000000000E0,1.00000000000000000E0),.UNSPECIFIED.);
#202=DEFINITIONAL_REPRESENTATION('',(#201),#157);
#203=PCURVE('',#36,#202);
#204=CARTESIAN_POINT('',(0.00000000000000000E0,0.00000000000000000E0));
#205=CARTESIAN_POINT('',(1.00000000000000000E0,0.00000000000000000E0));
#206=B_SPLINE_CURVE_WITH_KNOTS('',1,(#204,#205),.UNSPECIFIED.,.F.,.F.,(2,2),(0.00000000000000000E0,1.00000000000000000E0),.UNSPECIFIED.);
#207=DEFINITIONAL_REPRESENTATION('',(#206),#157);
#208=PCURVE('',#41,#207);
#209=CARTESIAN_POINT('',(1.00000000000000000E0,0.00000000000000000E0));
#210=CARTESIAN_POINT('',(1.00000000000000000E0,9.58333333333333370E-1));
#211=B_SPLINE_CURVE_WITH_KNOTS('',1,(#209,#210),.UNSPECIFIED.,.F.,.F.,(2,2),(0.00000000000000000E0,1.00000000000000000E0),.UNSPECIFIED.);
#212=DEFINITIONAL_REPRESENTATION('',(#211),#157);
#213=PCURVE('',#41,#212);
#214=CARTESIAN_POINT('',(1.00000000000000000E0,9.58333333333333370E-1));
#215=CARTESIAN_POINT('',(1.00000000000000000E0,1.00000000000000000E0));
#216=CARTESIAN_POINT('',(9.68750000000000000E-1,1.00000000000000000E0));
#217=(BOUNDED_CURVE()B_SPLINE_CURVE(2,(#214,#215,#216),.UNSPECIFIED.,.F.,.F.)B_SPLINE_CURVE_WITH_KNOTS((3,3),(0.00000000000000000E0,1.00000000000000000E0),.UNSPECIFIED.)CURVE()GEOMETRIC_REPRESENTATION_ITEM()RATIONAL_B_SPLINE_CURVE((2.00000000000000000E0,1.00000000000000000E0,1.00000000000000000E0))REPRESENTATION_ITEM(''));
#218=DEFINITIONAL_REPRESENTATION('',(#217),#157);
#219=PCURVE('',#41,#218);
#220=CARTESIAN_POINT('',(9.68750000000000000E-1,1.00000000000000000E0));
#221=CARTESIAN_POINT('',(0.00000000000000000E0,1.00000000000000000E0));
#222=B_SPLINE_CURVE_WITH_KNOTS('',1,(#220,#221),.UNSPECIFIED.,.F.,.F.,(2,2),(0.00000000000000000E0,1.00000000000000000E0),.UNSPECIFIED.);
#223=DEFINITIONAL_REPRESENTATION('',(#222),#157);
#224=PCURVE('',#41,#223);
#225=CARTESIAN_POINT('',(0.00000000000000000E0,1.00000000000000000E0));
#226=CARTESIAN_POINT('',(0.00000000000000000E0,0.00000000000000000E0));
#227=B_SPLINE_CURVE_WITH_KNOTS('',1,(#225,#226),.UNSPECIFIED.,.F.,.F.,(2,2),(0.00000000000000000E0,1.00000000000000000E0),.UNSPECIFIED.);
#228=DEFINITIONAL_REPRESENTATION('',(#227),#157);
#229=PCURVE('',#41,#228);
#230=CARTESIAN_POINT('',(1.00000000000000000E0,0.00000000000000000E0));
#231=CARTESIAN_POINT('',(1.00000000000000000E0,1.00000000000000000E0));
#232=B_SPLINE_CURVE_WITH_KNOTS('',1,(#230,#231),.UNSPECIFIED.,.F.,.F.,(2,2),(0.00000000000000000E0,1.00000000000000000E0),.UNSPECIFIED.);
#233=DEFINITIONAL_REPRESENTATION('',(#232),#157);
#234=PCURVE('',#46,#233);
#235=CARTESIAN_POINT('',(1.00000000000000000E0,1.00000000000000000E0));
#236=CARTESIAN_POINT('',(2.50000000000000222E-2,1.00000000000000000E0));
#237=B_SPLINE_CURVE_WITH_KNOTS('',1,(#235,#236),.UNSPECIFIED.,.F.,.F.,(2,2),(0.00000000000000000E0,1.00000000000000000E0),.UNSPECIFIED.);
#238=DEFINITIONAL_REPRESENTATION('',(#237),#157);
#239=PCURVE('',#46,#238);
#240=CARTESIAN_POINT('',(2.50000000000000222E-2,1.00000000000000000E0));
#241=CARTESIAN_POINT('',(0.00000000000000000E0,1.00000000000000000E0));
#242=CARTESIAN_POINT('',(0.00000000000000000E0,9.58333333333333370E-1));
#243=(BOUNDED_CURVE()B_SPLINE_CURVE(2,(#240,#241,#242),.UNSPECIFIED.,.F.,.F.)B_SPLINE_CURVE_WITH_KNOTS((3,3),(0.00000000000000000E0,1.00000000000000000E0),.UNSPECIFIED.)CURVE()GEOMETRIC_REPRESENTATION_ITEM()RATIONAL_B_SPLINE_CURVE((1.00000000000000000E0,1.00000000000000000E0,2.00000000000000000E0))REPRESENTATION_ITEM(''));
#244=DEFINITIONAL_REPRESENTATION('',(#243),#157);
#245=PCURVE('',#46,#244);
#246=CARTESIAN_POINT('',(0.00000000000000000E0,9.58333333333333370E-1));
#247=CARTESIAN_POINT('',(0.00000000000000000E0,0.00000000000000000E0));
#248=B_SPLINE_CURVE_WITH_KNOTS('',1,(#246,#247),.UNSPECIFIED.,.F.,.F.,(2,2),(0.00000000000000000E0,1.00000000000000000E0),.UNSPECIFIED.);
#249=DEFINITIONAL_REPRESENTATION('',(#248),#157);
#250=PCURVE('',#46,#249);
#251=CARTESIAN_POINT('',(0.00000000000000000E0,0.00000000000000000E0));
#252=CARTESIAN_POINT('',(1.00000000000000000E0,0.00000000000000000E0));
#253=B_SPLINE_CURVE_WITH_KNOTS('',1,(#251,#252),.UNSPECIFIED.,.F.,.F.,(2,2),(0.00000000000000000E0,1.00000000000000000E0),.UNSPECIFIED.);
#254=DEFINITIONAL_REPRESENTATION('',(#253),#157);
#255=PCURVE('',#46,#254);
#256=CARTESIAN_POINT('',(1.00000000000000000E0,0.00000000000000000E0));
#257=CARTESIAN_POINT('',(1.00000000000000000E0,9.58333333333333370E-1));
#258=B_SPLINE_CURVE_WITH_KNOTS('',1,(#256,#257),.UNSPECIFIED.,.F.,.F.,(2,2),(0.00000000000000000E0,1.00000000000000000E0),.UNSPECIFIED.);
#259=DEFINITIONAL_REPRESENTATION('',(#258),#157);
#260=PCURVE('',#51,#259);
#261=CARTESIAN_POINT('',(1.00000000000000000E0,9.58333333333333370E-1));
#262=CARTESIAN_POINT('',(3.12500000000000000E-2,9.58333333333333370E-1));
#263=B_SPLINE_CURVE_WITH_KNOTS('',1,(#261,#262),.UNSPECIFIED.,.F.,.F.,(2,2),(0.00000000000000000E0,1.00000000000000000E0),.UNSPECIFIED.);
#264=DEFINITIONAL_REPRESENTATION('',(#263),#157);
#265=PCURVE('',#51,#264);
#266=CARTESIAN_POINT('',(3.12500000000000000E-2,9.58333333333333370E-1));
#267=CARTESIAN_POINT('',(3.12500000000000000E-2,0.00000000000000000E0));
#268=B_SPLINE_CURVE_WITH_KNOTS('',1,(#266,#267),.UNSPECIFIED.,.F.,.F.,(2,2),(0.00000000000000000E0,1.00000000000000000E0),.UNSPECIFIED.);
#269=DEFINITIONAL_REPRESENTATION('',(#268),#157);
#270=PCURVE('',#51,#269);
#271=CARTESIAN_POINT('',(3.12500000000000000E-2,0.00000000000000000E0));
#272=CARTESIAN_POINT('',(1.00000000000000000E0,0.00000000000000000E0));
#273=B_SPLINE_CURVE_WITH_KNOTS('',1,(#271,#272),.UNSPECIFIED.,.F.,.F.,(2,2),(0.00000000000000000E0,1.00000000000000000E0),.UNSPECIFIED.);
#274=DEFINITIONAL_REPRESENTATION('',(#273),#157);
#275=PCURVE('',#51,#274);
#276=CARTESIAN_POINT('',(0.00000000000000000E0,0.00000000000000000E0));
#277=CARTESIAN_POINT('',(9.74999999999999978E-1,0.00000000000000000E0));
#278=B_SPLINE_CURVE_WITH_KNOTS('',1,(#276,#277),.UNSPECIFIED.,.F.,.F.,(2,2),(0.00000000000000000E0,1.00000000000000000E0),.UNSPECIFIED.);
#279=DEFINITIONAL_REPRESENTATION('',(#278),#157);
#280=PCURVE('',#56,#279);
#281=CARTESIAN_POINT('',(9.74999999999999978E-1,0.00000000000000000E0));
#282=CARTESIAN_POINT('',(9.74999999999999978E-1,9.58333333333333370E-1));
#283=B_SPLINE_CURVE_WITH_KNOTS('',1,(#281,#282),.UNSPECIFIED.,.F.,.F.,(2,2),(0.00000000000000000E0,1.00000000000000000E0),.UNSPECIFIED.);
#284=DEFINITIONAL_REPRESENTATION('',(#283),#157);
#285=PCURVE('',#56,#284);
#286=CARTESIAN_POINT('',(9.74999999999999978E-1,9.58333333333333370E-1));
#287=CARTESIAN_POINT('',(0.00000000000000000E0,9.58333333333333370E-1));
#288=B_SPLINE_CURVE_WITH_KNOTS('',1,(#286,#287),.UNSPECIFIED.,.F.,.F.,(2,2),(0.00000000000000000E0,1.00000000000000000E0),.UNSPECIFIED.);
#289=DEFINITIONAL_REPRESENTATION('',(#288),#157);
#290=PCURVE('',#56,#289);
#291=CARTESIAN_POINT('',(0.00000000000000000E0,9.58333333333333370E-1));
#292=CARTESIAN_POINT('',(0.00000000000000000E0,0.00000000000000000E0));
#293=B_SPLINE_CURVE_WITH_KNOTS('',1,(#291,#292),.UNSPECIFIED.,.F.,.F.,(2,2),(0.00000000000000000E0,1.00000000000000000E0),.UNSPECIFIED.);
#294=DEFINITIONAL_REPRESENTATION('',(#293),#157);
#295=PCURVE('',#56,#294);
#296=CARTESIAN_POINT('',(1.00000000000000000E0,0.00000000000000000E0));
#297=CARTESIAN_POINT('',(1.00000000000000000E0,1.00000000000000000E0));
#298=B_SPLINE_CURVE_WITH_KNOTS('',1,(#296,#297),.UNSPECIFIED.,.F.,.F.,(2,2),(0.00000000000000000E0,1.00000000000000000E0),.UNSPECIFIED.);
#299=DEFINITIONAL_REPRESENTATION('',(#298),#157);
#300=PCURVE('',#63,#299);
#301=CARTESIAN_POINT('',(1.00000000000000000E0,1.00000000000000000E0));
#302=CARTESIAN_POINT('',(0.00000000000000000E0,1.00000000000000000E0));
#303=B_SPLINE_CURVE_WITH_KNOTS('',1,(#301,#302),.UNSPECIFIED.,.F.,.F.,(2,2),(0.00000000000000000E0,1.00000000000000000E0),.UNSPECIFIED.);
#304=DEFINITIONAL_REPRESENTATION('',(#303),#157);
#305=PCURVE('',#63,#304);
#306=CARTESIAN_POINT('',(0.00000000000000000E0,1.00000000000000000E0));
#307=CARTESIAN_POINT('',(0.00000000000000000E0,0.00000000000000000E0));
#308=B_SPLINE_CURVE_WITH_KNOTS('',1,(#306,#307),.UNSPECIFIED.,.F.,.F.,(2,2),(0.00000000000000000E0,1.00000000000000000E0),.UNSPECIFIED.);
#309=DEFINITIONAL_REPRESENTATION('',(#308),#157);
#310=PCURVE('',#63,#309);
#311=CARTESIAN_POINT('',(0.00000000000000000E0,0.00000000000000000E0));
#312=CARTESIAN_POINT('',(1.00000000000000000E0,0.00000000000000000E0));
#313=B_SPLINE_CURVE_WITH_KNOTS('',1,(#311,#312),.UNSPECIFIED.,.F.,.F.,(2,2),(0.00000000000000000E0,1.00000000000000000E0),.UNSPECIFIED.);
#314=DEFINITIONAL_REPRESENTATION('',(#313),#157);
#315=PCURVE('',#63,#314);
#316=CARTESIAN_POINT('',(0.00000000000000000E0,0.00000000000000000E0));
#317=CARTESIAN_POINT('',(1.00000000000000000E0,0.00000000000000000E0));
#318=B_SPLINE_CURVE_WITH_KNOTS('',1,(#316,#317),.UNSPECIFIED.,.F.,.F.,(2,2),(0.00000000000000000E0,1.00000000000000000E0),.UNSPECIFIED.);
#319=DEFINITIONAL_REPRESENTATION('',(#318),#157);
#320=PCURVE('',#70,#319);
#321=CARTESIAN_POINT('',(1.00000000000000000E0,0.00000000000000000E0));
#322=CARTESIAN_POINT('',(1.00000000000000000E0,1.00000000000000000E0));
#323=B_SPLINE_CURVE_WITH_KNOTS('',1,(#321,#322),.UNSPECIFIED.,.F.,.F.,(2,2),(0.00000000000000000E0,1.00000000000000000E0),.UNSPECIFIED.);
#324=DEFINITIONAL_REPRESENTATION('',(#323),#157);
#325=PCURVE('',#70,#324);
#326=CARTESIAN_POINT('',(1.00000000000000000E0,1.00000000000000000E0));
#327=CARTESIAN_POINT('',(0.00000000000000000E0,1.00000000000000000E0));
#328=B_SPLINE_CURVE_WITH_KNOTS('',1,(#326,#327),.UNSPECIFIED.,.F.,.F.,(2,2),(0.00000000000000000E0,1.00000000000000000E0),.UNSPECIFIED.);
#329=DEFINITIONAL_REPRESENTATION('',(#328),#157);
#330=PCURVE('',#70,#329);
#331=CARTESIAN_POINT('',(0.00000000000000000E0,1.00000000000000000E0));
#332=CARTESIAN_POINT('',(0.00000000000000000E0,0.00000000000000000E0));
#333=B_SPLINE_CURVE_WITH_KNOTS('',1,(#331,#332),.UNSPECIFIED.,.F.,.F.,(2,2),(0.00000000000000000E0,1.00000000000000000E0),.UNSPECIFIED.);
#334=DEFINITIONAL_REPRESENTATION('',(#333),#157);
#335=PCURVE('',#70,#334);
#336=CARTESIAN_POINT('',(1.00000000000000000E0,0.00000000000000000E0));
#337=CARTESIAN_POINT('',(1.00000000000000000E0,1.00000000000000000E0));
#338=B_SPLINE_CURVE_WITH_KNOTS('',1,(#336,#337),.UNSPECIFIED.,.F.,.F.,(2,2),(0.00000000000000000E0,1.00000000000000000E0),.UNSPECIFIED.);
#339=DEFINITIONAL_REPRESENTATION('',(#338),#157);
#340=PCURVE('',#77,#339);
#341=CARTESIAN_POINT('',(1.00000000000000000E0,1.00000000000000000E0));
#342=CARTESIAN_POINT('',(0.00000000000000000E0,1.00000000000000000E0));
#343=B_SPLINE_CURVE_WITH_KNOTS('',1,(#341,#342),.UNSPECIFIED.,.F.,.F.,(2,2),(0.00000000000000000E0,1.00000000000000000E0),.UNSPECIFIED.);
#344=DEFINITIONAL_REPRESENTATION('',(#343),#157);
#345=PCURVE('',#77,#344);
#346=CARTESIAN_POINT('',(0.00000000000000000E0,1.00000000000000000E0));
#347=CARTESIAN_POINT('',(0.00000000000000000E0,0.00000000000000000E0));
#348=B_SPLINE_CURVE_WITH_KNOTS('',1,(#346,#347),.UNSPECIFIED.,.F.,.F.,(2,2),(0.00000000000000000E0,1.00000000000000000E0),.UNSPECIFIED.);
#349=DEFINITIONAL_REPRESENTATION('',(#348),#157);
#350=PCURVE('',#77,#349);
#351=CARTESIAN_POINT('',(0.00000000000000000E0,0.00000000000000000E0));
#352=CARTESIAN_POINT('',(1.00000000000000000E0,0.00000000000000000E0));
#353=B_SPLINE_CURVE_WITH_KNOTS('',1,(#351,#352),.UNSPECIFIED.,.F.,.F.,(2,2),(0.00000000000000000E0,1.00000000000000000E0),.UNSPECIFIED.);
#354=DEFINITIONAL_REPRESENTATION('',(#353),#157);
#355=PCURVE('',#77,#354);
#356=CARTESIAN_POINT('',(1.00000000000000000E0,0.00000000000000000E0));
#357=CARTESIAN_POINT('',(1.00000000000000000E0,1.00000000000000000E0));
#358=B_SPLINE_CURVE_WITH_KNOTS('',1,(#356,#357),.UNSPECIFIED.,.F.,.F.,(2,2),(0.00000000000000000E0,1.00000000000000000E0),.UNSPECIFIED.);
#359=DEFINITIONAL_REPRESENTATION('',(#358),#157);
#360=PCURVE('',#87,#359);
#361=CARTESIAN_POINT('',(1.00000000000000000E0,1.00000000000000000E0));
#362=CARTESIAN_POINT('',(0.00000000000000000E0,1.00000000000000000E0));
#363=CARTESIAN_POINT('',(0.00000000000000000E0,0.00000000000000000E0));
#364=(BOUNDED_CURVE()B_SPLINE_CURVE(2,(#361,#362,#363),.UNSPECIFIED.,.F.,.F.)B_SPLINE_CURVE_WITH_KNOTS((3,3),(0.00000000000000000E0,1.00000000000000000E0),.UNSPECIFIED.)CURVE()GEOMETRIC_REPRESENTATION_ITEM()RATIONAL_B_SPLINE_CURVE((1.00000000000000000E0,7.07106781186547573E-1,1.00000000000000000E0))REPRESENTATION_ITEM(''));
#365=DEFINITIONAL_REPRESENTATION('',(#364),#157);
#366=PCURVE('',#87,#365);
#367=CARTESIAN_POINT('',(0.00000000000000000E0,0.00000000000000000E0));
#368=CARTESIAN_POINT('',(1.00000000000000000E0,0.00000000000000000E0));
#369=B_SPLINE_CURVE_WITH_KNOTS('',1,(#367,#368),.UNSPECIFIED.,.F.,.F.,(2,2),(0.00000000000000000E0,1.00000000000000000E0),.UNSPECIFIED.);
#370=DEFINITIONAL_REPRESENTATION('',(#369),#157);
#371=PCURVE('',#87,#370);
#372=SURFACE_CURVE('',#90,(#162,#255),.PCURVE_S1.);
#373=EDGE_CURVE('OSCAD_TOPO/3|edge|e:452fc27004acdf64b994c688c97cd521|9621f331ae1798ee3b42650c6d59dbe27c3c47ab86254587abf010dd4d2028aa',#2,#4,#372,.T.);
#374=SURFACE_CURVE('',#93,(#167,#275),.PCURVE_S1.);
#375=EDGE_CURVE('OSCAD_TOPO/3|edge|e:c5b0b09df6fee43a8cac55d27bd45368|81a947fbde10de6a32016ff5f619fe306f2c3332113fb56666213db2e991686e',#4,#6,#374,.T.);
#376=SURFACE_CURVE('',#97,(#173,#315),.PCURVE_S1.);
#377=EDGE_CURVE('OSCAD_TOPO/3|edge|e:fd26bba42d93cc5c4bfe278a5ad29989|427b9df442455b2a82862ed62e49677f353b9cedee73c500cbfbe138d2b2aa74',#6,#8,#376,.T.);
#378=SURFACE_CURVE('',#100,(#178,#280),.PCURVE_S1.);
#379=EDGE_CURVE('OSCAD_TOPO/3|edge|e:4c278c4b67fbe49a85fbcfb36b92bc57|d69dafcfcdbfbfb52e48558e8d6e0fff5e41b72cd5e59da1c68d4b0ac9d6aedd',#10,#8,#378,.T.);
#380=SURFACE_CURVE('',#103,(#183,#208),.PCURVE_S1.);
#381=EDGE_CURVE('OSCAD_TOPO/3|edge|e:5a1c10ba5196e5fe34913501d9d679c6|55b8f8d831e021dbbbb2b852b58f729b5cc8e5389d62d843a7b03efe050dad66',#2,#10,#380,.T.);
#382=SURFACE_CURVE('',#106,(#188,#224),.PCURVE_S1.);
#383=EDGE_CURVE('OSCAD_TOPO/3|edge|e:c2c9eb1df10d2316c0f6172cc4a08479|cd6410a7be10dfc6c1907fe6d1a2a0d2360f1d31ee461c075aa15909a3bcd9e1',#12,#14,#382,.T.);
#384=SURFACE_CURVE('',#109,(#193,#350),.PCURVE_S1.);
#385=EDGE_CURVE('OSCAD_TOPO/3|edge|e:2f1314083e5ca25746ec4850ee54cb5a|6adcd6ca252c5c5a13173cccf7ca011baa4fb02b061a355dabe4c4efa15780d5',#16,#14,#384,.T.);
#386=SURFACE_CURVE('',#112,(#198,#325),.PCURVE_S1.);
#387=EDGE_CURVE('OSCAD_TOPO/3|edge|e:c3c000dded85b144a0b0ca90ea9c612a|384420dd1fbec55fc33a8b3875486b1857a29e16dd5239dffefc111d637453f0',#16,#18,#386,.T.);
#388=SURFACE_CURVE('',#115,(#203,#239),.PCURVE_S1.);
#389=EDGE_CURVE('OSCAD_TOPO/3|edge|e:5279659682d7ed723dd5edf02d268726|145bfe325af83008ee40fd54aa0b8445bf02854901c11eb47f27985cbfe033a5',#12,#18,#388,.T.);
#390=SURFACE_CURVE('',#118,(#213,#295),.PCURVE_S1.);
#391=EDGE_CURVE('OSCAD_TOPO/3|edge|e:8dd87da636574aed3ee4692166b19550|0a5d48050633848548f0822119c574754bc1e35d595c09775f29f9aa21c3b84a',#10,#20,#390,.T.);
#392=SURFACE_CURVE('',#122,(#219,#355),.PCURVE_S1.);
#393=EDGE_CURVE('OSCAD_TOPO/3|edge|e:d14f531ab5250610c57188d1c1caaf62|99598aa98e10219c141ad2288c054ced84d30a8b7a0dcb018202bbac7d6f4499',#20,#14,#392,.T.);
#394=SURFACE_CURVE('',#125,(#229,#234),.PCURVE_S1.);
#395=EDGE_CURVE('OSCAD_TOPO/3|edge|e:77c1f7b45306533c893592f3906209db|4a598a6d3b7315c213e0d4c1768d851d2b15c5d3ee3b04b0fc907b666ed19227',#2,#12,#394,.T.);
#396=SURFACE_CURVE('',#129,(#245,#320),.PCURVE_S1.);
#397=EDGE_CURVE('OSCAD_TOPO/3|edge|e:705a18e7c7735637dd4d5625bf734576|69a7369b081d3a1d71daaaa02d2bc3511d146ad16c8fe8c062e4ed7039d9c9bb',#22,#18,#396,.T.);
#398=SURFACE_CURVE('',#132,(#250,#260),.PCURVE_S1.);
#399=EDGE_CURVE('OSCAD_TOPO/3|edge|e:5af903f1759bdfb72b2800aba7093782|f72f67cc5721c66ba617500f79e96b62725f8a713e4fe726bb67d77eb1bc80a7',#4,#22,#398,.T.);
#400=SURFACE_CURVE('',#135,(#265,#335),.PCURVE_S1.);
#401=EDGE_CURVE('OSCAD_TOPO/3|edge|e:2b30dd5d914fc0e41cf84e6e5d4b6435|a2a86bcfc773e546a25f8cf8bc107c09f44c675e58afe9cf4d296eeaccdd22a4',#24,#22,#400,.T.);
#402=SURFACE_CURVE('',#138,(#270,#300),.PCURVE_S1.);
#403=EDGE_CURVE('OSCAD_TOPO/3|edge|e:c324613b84ff12f9d5c938dde7704127|a9208575e45d4bff4428a3bd43a379ff2f446e5cc7b3286fe046f2b3bedaea13',#6,#24,#402,.T.);
#404=SURFACE_CURVE('',#141,(#285,#310),.PCURVE_S1.);
#405=EDGE_CURVE('OSCAD_TOPO/3|edge|e:e105c3878b041927c1d1c30433a2ff6d|631fcaba66fa15ef5f65c1aecf307155c425bdc77acfb6b9bbe92d736fd3dbdd',#8,#26,#404,.T.);
#406=SURFACE_CURVE('',#144,(#290,#340),.PCURVE_S1.);
#407=EDGE_CURVE('OSCAD_TOPO/3|edge|e:056c1e7a8424e8f9dfe5126a6bc7066f|b48b41b4f678b1ea5509f06473209e16be55cc5370bfd05e77ca49a16722d4c7',#26,#20,#406,.T.);
#408=SURFACE_CURVE('',#148,(#305,#366),.PCURVE_S1.);
#409=EDGE_CURVE('OSCAD_TOPO/3|edge|e:adf21681934dca5d5d3a783d66c16407|025979f9fe9c248e914612fc7ffc0fcaa09f2340153728461f7e9f7747f0f39c',#24,#26,#408,.T.);
#410=SURFACE_CURVE('',#152,(#330,#371),.PCURVE_S1.);
#411=EDGE_CURVE('OSCAD_TOPO/3|edge|e:de7b70230bff16e26430b1420e12a3e4|ffced4510de71c6bcbb37cf1b0b8fff81c4121296c3a051a999267945e2276b9',#24,#16,#410,.T.);
#412=SURFACE_CURVE('',#156,(#345,#360),.PCURVE_S1.);
#413=EDGE_CURVE('OSCAD_TOPO/3|edge|e:35bb6ab6425d254ae23763ca14614716|96ba458e5af7a7f5377d041fd3a8ea0e5192303dc88c1039219531fca874dfc6',#26,#16,#412,.T.);
#414=ORIENTED_EDGE('',*,*,#373,.T.);
#415=ORIENTED_EDGE('',*,*,#375,.T.);
#416=ORIENTED_EDGE('',*,*,#377,.T.);
#417=ORIENTED_EDGE('',*,*,#379,.F.);
#418=ORIENTED_EDGE('',*,*,#381,.F.);
#419=EDGE_LOOP('OSCAD_TOPO/3|loop|l:494a85eae76cfb4024570b08ec92efdf|6d7a50ddb7f429b053f411605fe38b64d3f3b70d691af193cabef91d67e5d741',(#414,#415,#416,#417,#418));
#420=ORIENTED_EDGE('',*,*,#383,.T.);
#421=ORIENTED_EDGE('',*,*,#385,.F.);
#422=ORIENTED_EDGE('',*,*,#387,.T.);
#423=ORIENTED_EDGE('',*,*,#389,.F.);
#424=EDGE_LOOP('OSCAD_TOPO/3|loop|l:d3d1d9876f090b5b2945ddf0212a5656|f73ebd08fe1811689c95cd8777638258cdc92ba960e9b993444e2965d1b08a19',(#420,#421,#422,#423));
#425=ORIENTED_EDGE('',*,*,#381,.T.);
#426=ORIENTED_EDGE('',*,*,#391,.T.);
#427=ORIENTED_EDGE('',*,*,#393,.T.);
#428=ORIENTED_EDGE('',*,*,#383,.F.);
#429=ORIENTED_EDGE('',*,*,#395,.F.);
#430=EDGE_LOOP('OSCAD_TOPO/3|loop|l:45dcf84a26a2abea2466c4fafce7e16d|47890b55fe02cc4653ec3e66ef2d21dd1bc396430f302ed7c66a4b934e84cc25',(#425,#426,#427,#428,#429));
#431=ORIENTED_EDGE('',*,*,#395,.T.);
#432=ORIENTED_EDGE('',*,*,#389,.T.);
#433=ORIENTED_EDGE('',*,*,#397,.F.);
#434=ORIENTED_EDGE('',*,*,#399,.F.);
#435=ORIENTED_EDGE('',*,*,#373,.F.);
#436=EDGE_LOOP('OSCAD_TOPO/3|loop|l:907984317899dcac56ac03911b81d342|f4e6677bd578b32b7d6a88e9906b4795cca915ee0882d2350510db5adfff01b5',(#431,#432,#433,#434,#435));
#437=ORIENTED_EDGE('',*,*,#399,.T.);
#438=ORIENTED_EDGE('',*,*,#401,.F.);
#439=ORIENTED_EDGE('',*,*,#403,.F.);
#440=ORIENTED_EDGE('',*,*,#375,.F.);
#441=EDGE_LOOP('OSCAD_TOPO/3|loop|l:0dda65d5fed84652191d2d271baca249|b3b93db1a2122d860a5420bff79303297f6d7e83a3bad047cef1d138e86969bd',(#437,#438,#439,#440));
#442=ORIENTED_EDGE('',*,*,#379,.T.);
#443=ORIENTED_EDGE('',*,*,#405,.T.);
#444=ORIENTED_EDGE('',*,*,#407,.T.);
#445=ORIENTED_EDGE('',*,*,#391,.F.);
#446=EDGE_LOOP('OSCAD_TOPO/3|loop|l:87f0d19f6be25791a98664ebac60cc3a|a583305163b22f179d62f5387ef5484227e79d2283e1bc5571d1eddc7df6af60',(#442,#443,#444,#445));
#447=ORIENTED_EDGE('',*,*,#403,.T.);
#448=ORIENTED_EDGE('',*,*,#409,.T.);
#449=ORIENTED_EDGE('',*,*,#405,.F.);
#450=ORIENTED_EDGE('',*,*,#377,.F.);
#451=EDGE_LOOP('OSCAD_TOPO/3|loop|l:9133463f12cf030ccc63953d7ded82ee|95cd96890605992c38b6918a4bee23207ffa7e0760edbaed07f2d3b31ccfdc5a',(#447,#448,#449,#450));
#452=ORIENTED_EDGE('',*,*,#397,.T.);
#453=ORIENTED_EDGE('',*,*,#387,.F.);
#454=ORIENTED_EDGE('',*,*,#411,.F.);
#455=ORIENTED_EDGE('',*,*,#401,.T.);
#456=EDGE_LOOP('OSCAD_TOPO/3|loop|l:b568359fa462eae4daf9949417928802|5baab663f2dff510e56bab48a3ed6b05ceee43a73ee869476233acedb9c2eadb',(#452,#453,#454,#455));
#457=ORIENTED_EDGE('',*,*,#407,.F.);
#458=ORIENTED_EDGE('',*,*,#413,.T.);
#459=ORIENTED_EDGE('',*,*,#385,.T.);
#460=ORIENTED_EDGE('',*,*,#393,.F.);
#461=EDGE_LOOP('OSCAD_TOPO/3|loop|l:ae3341dd3ce1dc959718d57b21c97a6a|806021efb38628f05f1765cceeecabdfb2f1d4558179a1d12f1bfc3b673e6ec3',(#457,#458,#459,#460));
#462=ORIENTED_EDGE('',*,*,#413,.F.);
#463=ORIENTED_EDGE('',*,*,#409,.F.);
#464=ORIENTED_EDGE('',*,*,#411,.T.);
#465=EDGE_LOOP('OSCAD_TOPO/3|loop|l:d7e6cf5dc90625f586e0790b64b8c823|f5106a78baff7de273b0d322e532efee829e7013cc3b11bb83c76694796860ef',(#462,#463,#464));
#466=FACE_OUTER_BOUND('',#419,.T.);
#467=ADVANCED_FACE('OSCAD_TOPO/3|face|f:90ba1132e6307f4c569ab4fafa43f1a0|88ee383109a5eec261ba70faf8cd9739730c6950ac32ebd17c0bea84dfe76ff3',(#466),#31,.T.);
#468=FACE_OUTER_BOUND('',#424,.T.);
#469=ADVANCED_FACE('OSCAD_TOPO/3|face|f:d5ca374bafecb253c806da34637ff548|1ece55cab63f910fb8ae32cd82cffe518d3d1687dab69b10b5780a091452c5b0',(#468),#36,.T.);
#470=FACE_OUTER_BOUND('',#430,.T.);
#471=ADVANCED_FACE('OSCAD_TOPO/3|face|f:a4902b1b7e2a4e8fbf237e2f3b2b8121|51c381269725e8817c1b4d3acd129a972a6aa0bdaebb7fa1f96ef510a996afd6',(#470),#41,.T.);
#472=FACE_OUTER_BOUND('',#436,.T.);
#473=ADVANCED_FACE('OSCAD_TOPO/3|face|f:92ddbbe4a626de893a62be31c666d39b|b82c5ba0cf45f82f7e5cca626187af7de954f6dab68b68466659a6b63c7663cb',(#472),#46,.T.);
#474=FACE_OUTER_BOUND('',#441,.T.);
#475=ADVANCED_FACE('OSCAD_TOPO/3|face|f:8031cd3f3b8ecaa5052f3415acd78bcf|070573bb63be51e7e62c421be93e41ebcd278ba7e4b771515eee831e796e28e4',(#474),#51,.T.);
#476=FACE_OUTER_BOUND('',#446,.T.);
#477=ADVANCED_FACE('OSCAD_TOPO/3|face|f:e45520d3007d7084897e1e752b8291bc|a7254a40072365c7bd0d5a936743aa26251712a8169995cec12ca5311110015f',(#476),#56,.T.);
#478=FACE_OUTER_BOUND('',#451,.T.);
#479=ADVANCED_FACE('OSCAD_TOPO/3|face|f:f7beedc9332e246a87a4eb3095d3b7be|14dbb0ae160efc7c57189542a37d0370651be1d3591f4aa78db42d480a513dcc',(#478),#63,.T.);
#480=FACE_OUTER_BOUND('',#456,.T.);
#481=ADVANCED_FACE('OSCAD_TOPO/3|face|f:b13a74663c0045d3d42cc021958c1a4c|d21133a8dbe2ddd991d99017ac51d6e8e7bd36ee9f532f225034c5017d65b5de',(#480),#70,.T.);
#482=FACE_OUTER_BOUND('',#461,.T.);
#483=ADVANCED_FACE('OSCAD_TOPO/3|face|f:7370d3e8373350ea24ed0819da92f8e9|d651d122d5a2456db137d919db2f183c73d5f2297ee4f49021b4b9e19f6dd6b8',(#482),#77,.T.);
#484=FACE_OUTER_BOUND('',#465,.T.);
#485=ADVANCED_FACE('OSCAD_TOPO/3|face|f:43d057b8c38b16a2bef4b8fa48ff7adf|d3961fd2a5d5d61704f5e865c7bf11461608f03921b9e48e90963bb9c21edb58',(#484),#87,.T.);
#486=CLOSED_SHELL('OSCAD_TOPO/3|shell|s:516442c2d4ef01c79461a2c1edccbf36|33d23968ceba74b848053638728bed09841713f7d642911c68bd90104e07277e',(#467,#469,#471,#473,#475,#477,#479,#481,#483,#485));
#487=MANIFOLD_SOLID_BREP('OSCAD_TOPO/3|body|b:f879a5a594e467cf9487aa08b4649329|062d3aa14694e44ad07d36b341274d46ef90f4ee98ec029d839cc762c835333c',#486);
#488=(LENGTH_UNIT()NAMED_UNIT(*)SI_UNIT(.MILLI.,.METRE.));
#489=UNCERTAINTY_MEASURE_WITH_UNIT(LENGTH_MEASURE(9.99999999999999955E-8),#488,'distance_accuracy_value','');
#490=(GEOMETRIC_REPRESENTATION_CONTEXT(3)GLOBAL_UNCERTAINTY_ASSIGNED_CONTEXT((#489))GLOBAL_UNIT_ASSIGNED_CONTEXT((#488))REPRESENTATION_CONTEXT('','3D'));
#491=ADVANCED_BREP_SHAPE_REPRESENTATION('',(#487),#490);
#492=APPLICATION_CONTEXT('managed model based 3d engineering');
#493=PRODUCT_CONTEXT('',#492,'mechanical');
#494=PRODUCT('model','model','',(#493));
#495=PRODUCT_DEFINITION_FORMATION('1','',#494);
#496=PRODUCT_DEFINITION_CONTEXT('part definition',#492,'design');
#497=PRODUCT_DEFINITION('design','',#495,#496);
#498=PRODUCT_DEFINITION_SHAPE('','',#497);
#499=SHAPE_DEFINITION_REPRESENTATION(#498,#491);
ENDSEC;
END-ISO-10303-21;
