ISO-10303-21;
HEADER;
FILE_DESCRIPTION(('OpenSCAD Viewer retained AP242 B-rep'),'2;1');
FILE_NAME('model.step','',(''),(''),'OpenSCAD Viewer','OpenSCAD Viewer','');
FILE_SCHEMA(('AP242_MANAGED_MODEL_BASED_3D_ENGINEERING_MIM_LF'));
ENDSEC;
DATA;
#1=CARTESIAN_POINT('',(1.99225395461942298E1,-8.12827463092412117E0,1.94364543665275740E1));
#2=VERTEX_POINT('OSCAD_TOPO/3|vertex|v:63525a07a803a3279f93ad16089afbb5|d2045e9174bc38f36037cbf878db38462f40a363dd69660ead8b2498baab584b',#1);
#3=CARTESIAN_POINT('',(1.68613292740695755E1,-2.11373218589843415E0,2.68157680776272009E1));
#4=VERTEX_POINT('OSCAD_TOPO/3|vertex|v:fdbe0819d2921b575c0969fe6af8bd37|f4e8984a8d04e13e699028d32b0024c2340df646c79d439de436ebdb17b0d3e7',#3);
#5=CARTESIAN_POINT('',(2.70521984266857132E1,-4.49950565951950043E0,1.94364543665275740E1));
#6=VERTEX_POINT('OSCAD_TOPO/3|vertex|v:1f7b5f9b0b1cb54e6b4dd2aa46f46e73|f8acab5deec09010812d2553f0882f40921ee78180467043bdf7581d33fb00c4',#5);
#7=CARTESIAN_POINT('',(2.19308763930766517E1,-1.20741738458446761E1,2.34857089269551835E1));
#8=VERTEX_POINT('OSCAD_TOPO/3|vertex|v:e3a2aa5410b17e378eae168fb34bd905|a91e83d51a122af811bd51dac89a8788dbcab9ffdebaaff060f73f132d5d26b7',#7);
#9=CARTESIAN_POINT('',(2.17629697544074716E1,3.81046481942242998E-1,2.68157680776272009E1));
#10=VERTEX_POINT('OSCAD_TOPO/3|vertex|v:4e67e3a113501c28e38b9bdfe8bcf3a4|5c6ba705d295bb3da308c96ef5d548a1b63a252814e1fd233944b69d4ff8a18a',#9);
#11=CARTESIAN_POINT('',(2.47562907225922224E1,1.14011742497650559E-2,2.49709396498522942E1));
#12=VERTEX_POINT('OSCAD_TOPO/3|vertex|v:34c157a616c4546860e9bef04e1ed2d0|399f84813bfab004ace54c4f7c7778f62335ee0d2294e446646bfc1dbf0319e6',#11);
#13=CARTESIAN_POINT('',(2.29344995817555528E1,-1.92072806009475028E0,2.91778332378766407E1));
#14=VERTEX_POINT('OSCAD_TOPO/3|vertex|v:1fae45602f8416b2b1c5cec24bd9ce04|e281c51a82c429ad91e43596660e90fc9df8e71c2f6f48f1ddfdbf7e15080291',#13);
#15=CARTESIAN_POINT('',(2.59278205499403072E1,-2.29037336778722844E0,2.73330048101017340E1));
#16=VERTEX_POINT('OSCAD_TOPO/3|vertex|v:58e8be65e4e62c32d8090e33e6ea509e|c90af44b8899df6408d29d27923a97d482461097d7e7fa2bb0f7690843b518fe',#15);
#17=CARTESIAN_POINT('',(2.45366091693210606E1,-5.06848834423473527E0,2.90201942102799038E1));
#18=VERTEX_POINT('OSCAD_TOPO/3|vertex|v:e21a1c600055cfd9d2b504a0778d92b3|179012f497ea389bb53e657d46df25285367e04ca9f0bb66bb1c3d054f1f0cc1',#17);
#19=CARTESIAN_POINT('',(1.80328591014176567E1,-4.41550672793542720E0,2.91778332378766407E1));
#20=VERTEX_POINT('OSCAD_TOPO/3|vertex|v:317a368e47726546e74f16a9c2e4aa6f|b01b7c93a7d9882dbf42007d7e0613eda8787c60e1050d5ffc81ade70b99d5ea',#19);
#21=CARTESIAN_POINT('',(1.96349686889831609E1,-7.56326701207541241E0,2.90201942102799038E1));
#22=VERTEX_POINT('OSCAD_TOPO/3|vertex|v:4a182a268d9ea196ff1f95d2632ad2f1|388b7e71328663906e15b71bd31724f04012e1b2bf3abd94ccedd8d8a79c4934',#21);
#23=CARTESIAN_POINT('',(2.82237282540337979E1,-6.80128020155649349E0,2.17985195267770138E1));
#24=VERTEX_POINT('OSCAD_TOPO/3|vertex|v:0fb8ffb2ea96c5db8cc5563a7053dbb1|b5b739eb06a674f56c0a041b81394d067544f8e7f3b0a33d57e86cd3794c9e60',#23);
#25=CARTESIAN_POINT('',(2.68325168734145514E1,-9.57939517800400075E0,2.34857089269551835E1));
#26=VERTEX_POINT('OSCAD_TOPO/3|vertex|v:0cbc71a042863434b1293ec3e418a464|fd2f2eb9b86f4fc1b9a17eb2cee833b6e1ae4cadb556638db5edb80c9fe1dcfb',#25);
#27=CARTESIAN_POINT('',(1.99225395461942298E1,-8.12827463092412117E0,1.94364543665275740E1));
#28=CARTESIAN_POINT('',(2.70521984266857132E1,-4.49950565951950043E0,1.94364543665275740E1));
#29=CARTESIAN_POINT('',(1.68613292740695755E1,-2.11373218589843415E0,2.68157680776272009E1));
#30=CARTESIAN_POINT('',(2.39909881545610588E1,1.51503678550618659E0,2.68157680776272009E1));
#31=B_SPLINE_SURFACE_WITH_KNOTS('',1,1,((#27,#28),(#29,#30)),.UNSPECIFIED.,.F.,.F.,.F.,(2,2),(2,2),(0.00000000000000000E0,1.00000000000000000E0),(0.00000000000000000E0,1.00000000000000000E0),.UNSPECIFIED.);
#32=CARTESIAN_POINT('',(1.88696661209519974E1,-6.05963140081898999E0,3.08650226380548105E1));
#33=CARTESIAN_POINT('',(2.59993250014434842E1,-2.43086242941437014E0,3.08650226380548105E1));
#34=CARTESIAN_POINT('',(2.19308763930766517E1,-1.20741738458446761E1,2.34857089269551835E1));
#35=CARTESIAN_POINT('',(2.90605352735681386E1,-8.44540487444005805E0,2.34857089269551835E1));
#36=B_SPLINE_SURFACE_WITH_KNOTS('',1,1,((#32,#33),(#34,#35)),.UNSPECIFIED.,.F.,.F.,.F.,(2,2),(2,2),(0.00000000000000000E0,1.00000000000000000E0),(0.00000000000000000E0,1.00000000000000000E0),.UNSPECIFIED.);
#37=CARTESIAN_POINT('',(1.99225395461942298E1,-8.12827463092412117E0,1.94364543665275740E1));
#38=CARTESIAN_POINT('',(2.19308763930766517E1,-1.20741738458446761E1,2.34857089269551835E1));
#39=CARTESIAN_POINT('',(2.70521984266857132E1,-4.49950565951950043E0,1.94364543665275740E1));
#40=CARTESIAN_POINT('',(2.90605352735681386E1,-8.44540487444005805E0,2.34857089269551835E1));
#41=B_SPLINE_SURFACE_WITH_KNOTS('',1,1,((#37,#38),(#39,#40)),.UNSPECIFIED.,.F.,.F.,.F.,(2,2),(2,2),(0.00000000000000000E0,1.00000000000000000E0),(0.00000000000000000E0,1.00000000000000000E0),.UNSPECIFIED.);
#42=CARTESIAN_POINT('',(1.68613292740695755E1,-2.11373218589843415E0,2.68157680776272009E1));
#43=CARTESIAN_POINT('',(1.88696661209519974E1,-6.05963140081898999E0,3.08650226380548105E1));
#44=CARTESIAN_POINT('',(1.99225395461942298E1,-8.12827463092412117E0,1.94364543665275740E1));
#45=CARTESIAN_POINT('',(2.19308763930766517E1,-1.20741738458446761E1,2.34857089269551835E1));
#46=B_SPLINE_SURFACE_WITH_KNOTS('',1,1,((#42,#43),(#44,#45)),.UNSPECIFIED.,.F.,.F.,.F.,(2,2),(2,2),(0.00000000000000000E0,1.00000000000000000E0),(0.00000000000000000E0,1.00000000000000000E0),.UNSPECIFIED.);
#47=CARTESIAN_POINT('',(2.39909881545610588E1,1.51503678550618659E0,2.68157680776272009E1));
#48=CARTESIAN_POINT('',(2.59993250014434842E1,-2.43086242941437014E0,3.08650226380548105E1));
#49=CARTESIAN_POINT('',(1.68613292740695755E1,-2.11373218589843415E0,2.68157680776272009E1));
#50=CARTESIAN_POINT('',(1.88696661209519974E1,-6.05963140081898999E0,3.08650226380548105E1));
#51=B_SPLINE_SURFACE_WITH_KNOTS('',1,1,((#47,#48),(#49,#50)),.UNSPECIFIED.,.F.,.F.,.F.,(2,2),(2,2),(0.00000000000000000E0,1.00000000000000000E0),(0.00000000000000000E0,1.00000000000000000E0),.UNSPECIFIED.);
#52=CARTESIAN_POINT('',(2.70521984266857132E1,-4.49950565951950043E0,1.94364543665275740E1));
#53=CARTESIAN_POINT('',(2.90605352735681386E1,-8.44540487444005805E0,2.34857089269551835E1));
#54=CARTESIAN_POINT('',(2.39909881545610588E1,1.51503678550618659E0,2.68157680776272009E1));
#55=CARTESIAN_POINT('',(2.59993250014434842E1,-2.43086242941437014E0,3.08650226380548105E1));
#56=B_SPLINE_SURFACE_WITH_KNOTS('',1,1,((#52,#53),(#54,#55)),.UNSPECIFIED.,.F.,.F.,.F.,(2,2),(2,2),(0.00000000000000000E0,1.00000000000000000E0),(0.00000000000000000E0,1.00000000000000000E0),.UNSPECIFIED.);
#57=CARTESIAN_POINT('',(2.47562907225922224E1,1.14011742497650559E-2,2.49709396498522942E1));
#58=CARTESIAN_POINT('',(2.59278205499403072E1,-2.29037336778722844E0,2.73330048101017340E1));
#59=CARTESIAN_POINT('',(2.39909881545610588E1,1.51503678550618659E0,2.68157680776272009E1));
#60=CARTESIAN_POINT('',(2.51625179819091436E1,-7.86737756530806909E-1,2.91778332378766407E1));
#61=CARTESIAN_POINT('',(2.17629697544074716E1,3.81046481942242998E-1,2.68157680776272009E1));
#62=CARTESIAN_POINT('',(2.29344995817555528E1,-1.92072806009475028E0,2.91778332378766407E1));
#63=(BOUNDED_SURFACE()B_SPLINE_SURFACE(2,1,((#57,#58),(#59,#60),(#61,#62)),.UNSPECIFIED.,.F.,.F.,.F.)B_SPLINE_SURFACE_WITH_KNOTS((3,3),(2,2),(0.00000000000000000E0,1.00000000000000000E0),(0.00000000000000000E0,1.00000000000000000E0),.UNSPECIFIED.)GEOMETRIC_REPRESENTATION_ITEM()RATIONAL_B_SPLINE_SURFACE(((1.00000000000000000E0,1.00000000000000000E0),(7.07106781186547573E-1,7.07106781186547573E-1),(1.00000000000000000E0,1.00000000000000000E0)))REPRESENTATION_ITEM('')SURFACE());
#64=CARTESIAN_POINT('',(1.80328591014176567E1,-4.41550672793542720E0,2.91778332378766407E1));
#65=CARTESIAN_POINT('',(2.29344995817555528E1,-1.92072806009475028E0,2.91778332378766407E1));
#66=CARTESIAN_POINT('',(1.88696661209519974E1,-6.05963140081898999E0,3.08650226380548105E1));
#67=CARTESIAN_POINT('',(2.37713066012898970E1,-3.56485273297831373E0,3.08650226380548105E1));
#68=CARTESIAN_POINT('',(1.96349686889831609E1,-7.56326701207541241E0,2.90201942102799038E1));
#69=CARTESIAN_POINT('',(2.45366091693210606E1,-5.06848834423473527E0,2.90201942102799038E1));
#70=(BOUNDED_SURFACE()B_SPLINE_SURFACE(2,1,((#64,#65),(#66,#67),(#68,#69)),.UNSPECIFIED.,.F.,.F.,.F.)B_SPLINE_SURFACE_WITH_KNOTS((3,3),(2,2),(0.00000000000000000E0,1.00000000000000000E0),(0.00000000000000000E0,1.00000000000000000E0),.UNSPECIFIED.)GEOMETRIC_REPRESENTATION_ITEM()RATIONAL_B_SPLINE_SURFACE(((2.00000000000000000E0,2.00000000000000000E0),(1.00000000000000000E0,1.00000000000000000E0),(1.00000000000000000E0,1.00000000000000000E0)))REPRESENTATION_ITEM('')SURFACE());
#71=CARTESIAN_POINT('',(2.68325168734145514E1,-9.57939517800400075E0,2.34857089269551835E1));
#72=CARTESIAN_POINT('',(2.45366091693210606E1,-5.06848834423473527E0,2.90201942102799038E1));
#73=CARTESIAN_POINT('',(2.90605352735681386E1,-8.44540487444005805E0,2.34857089269551835E1));
#74=CARTESIAN_POINT('',(2.67646275694746478E1,-3.93449804067079167E0,2.90201942102799038E1));
#75=CARTESIAN_POINT('',(2.82237282540337979E1,-6.80128020155649349E0,2.17985195267770138E1));
#76=CARTESIAN_POINT('',(2.59278205499403072E1,-2.29037336778722844E0,2.73330048101017340E1));
#77=(BOUNDED_SURFACE()B_SPLINE_SURFACE(2,1,((#71,#72),(#73,#74),(#75,#76)),.UNSPECIFIED.,.F.,.F.,.F.)B_SPLINE_SURFACE_WITH_KNOTS((3,3),(2,2),(0.00000000000000000E0,1.00000000000000000E0),(0.00000000000000000E0,1.00000000000000000E0),.UNSPECIFIED.)GEOMETRIC_REPRESENTATION_ITEM()RATIONAL_B_SPLINE_SURFACE(((1.00000000000000000E0,1.00000000000000000E0),(1.00000000000000000E0,1.00000000000000000E0),(2.00000000000000000E0,2.00000000000000000E0)))REPRESENTATION_ITEM('')SURFACE());
#78=CARTESIAN_POINT('',(2.29344995817555528E1,-1.92072806009475028E0,2.91778332378766407E1));
#79=CARTESIAN_POINT('',(2.40485087818323464E1,-1.35373290831277870E0,2.91778332378766407E1));
#80=CARTESIAN_POINT('',(2.43960103646902198E1,-1.11790483717640776E0,2.80004939618922819E1));
#81=CARTESIAN_POINT('',(2.37713066012898970E1,-3.56485273297831373E0,3.08650226380548105E1));
#82=CARTESIAN_POINT('',(2.59993250014434842E1,-2.43086242941437014E0,3.08650226380548105E1));
#83=CARTESIAN_POINT('',(2.55451692659247236E1,-1.53855556215901768E0,2.82554190239891874E1));
#84=CARTESIAN_POINT('',(2.45366091693210606E1,-5.06848834423473527E0,2.90201942102799038E1));
#85=CARTESIAN_POINT('',(2.67646275694746478E1,-3.93449804067079167E0,2.90201942102799038E1));
#86=CARTESIAN_POINT('',(2.59278205499403072E1,-2.29037336778722844E0,2.73330048101017340E1));
#87=(BOUNDED_SURFACE()B_SPLINE_SURFACE(2,2,((#78,#79,#80),(#81,#82,#83),(#84,#85,#86)),.UNSPECIFIED.,.F.,.F.,.F.)B_SPLINE_SURFACE_WITH_KNOTS((3,3),(3,3),(0.00000000000000000E0,1.00000000000000000E0),(0.00000000000000000E0,1.00000000000000000E0),.UNSPECIFIED.)GEOMETRIC_REPRESENTATION_ITEM()RATIONAL_B_SPLINE_SURFACE(((2.00000000000000000E0,2.00000000000000000E0,3.00000000000000000E0),(1.00000000000000000E0,1.00000000000000000E0,2.00000000000000000E0),(1.00000000000000000E0,1.00000000000000000E0,2.00000000000000000E0)))REPRESENTATION_ITEM('')SURFACE());
#88=CARTESIAN_POINT('',(1.99225395461942298E1,-8.12827463092412117E0,1.94364543665275740E1));
#89=CARTESIAN_POINT('',(1.68613292740695755E1,-2.11373218589843415E0,2.68157680776272009E1));
#90=B_SPLINE_CURVE_WITH_KNOTS('',1,(#88,#89),.UNSPECIFIED.,.F.,.F.,(2,2),(0.00000000000000000E0,1.00000000000000000E0),.UNSPECIFIED.);
#91=CARTESIAN_POINT('',(1.68613292740695755E1,-2.11373218589843415E0,2.68157680776272009E1));
#92=CARTESIAN_POINT('',(2.17629697544074716E1,3.81046481942242998E-1,2.68157680776272009E1));
#93=B_SPLINE_CURVE_WITH_KNOTS('',1,(#91,#92),.UNSPECIFIED.,.F.,.F.,(2,2),(0.00000000000000000E0,1.00000000000000000E0),.UNSPECIFIED.);
#94=CARTESIAN_POINT('',(2.70521984266857132E1,-4.49950565951950043E0,1.94364543665275740E1));
#95=CARTESIAN_POINT('',(2.47562907225922224E1,1.14011742497650559E-2,2.49709396498522942E1));
#96=B_SPLINE_CURVE_WITH_KNOTS('',1,(#94,#95),.UNSPECIFIED.,.F.,.F.,(2,2),(0.00000000000000000E0,1.00000000000000000E0),.UNSPECIFIED.);
#97=CARTESIAN_POINT('',(1.99225395461942298E1,-8.12827463092412117E0,1.94364543665275740E1));
#98=CARTESIAN_POINT('',(2.70521984266857132E1,-4.49950565951950043E0,1.94364543665275740E1));
#99=B_SPLINE_CURVE_WITH_KNOTS('',1,(#97,#98),.UNSPECIFIED.,.F.,.F.,(2,2),(0.00000000000000000E0,1.00000000000000000E0),.UNSPECIFIED.);
#100=CARTESIAN_POINT('',(1.99225395461942298E1,-8.12827463092412117E0,1.94364543665275740E1));
#101=CARTESIAN_POINT('',(2.19308763930766517E1,-1.20741738458446761E1,2.34857089269551835E1));
#102=B_SPLINE_CURVE_WITH_KNOTS('',1,(#100,#101),.UNSPECIFIED.,.F.,.F.,(2,2),(0.00000000000000000E0,1.00000000000000000E0),.UNSPECIFIED.);
#103=CARTESIAN_POINT('',(1.68613292740695755E1,-2.11373218589843415E0,2.68157680776272009E1));
#104=CARTESIAN_POINT('',(1.80328591014176567E1,-4.41550672793542720E0,2.91778332378766407E1));
#105=B_SPLINE_CURVE_WITH_KNOTS('',1,(#103,#104),.UNSPECIFIED.,.F.,.F.,(2,2),(0.00000000000000000E0,1.00000000000000000E0),.UNSPECIFIED.);
#106=CARTESIAN_POINT('',(2.29344995817555528E1,-1.92072806009475028E0,2.91778332378766407E1));
#107=CARTESIAN_POINT('',(1.80328591014176567E1,-4.41550672793542720E0,2.91778332378766407E1));
#108=B_SPLINE_CURVE_WITH_KNOTS('',1,(#106,#107),.UNSPECIFIED.,.F.,.F.,(2,2),(0.00000000000000000E0,1.00000000000000000E0),.UNSPECIFIED.);
#109=CARTESIAN_POINT('',(2.17629697544074716E1,3.81046481942242998E-1,2.68157680776272009E1));
#110=CARTESIAN_POINT('',(2.29344995817555528E1,-1.92072806009475028E0,2.91778332378766407E1));
#111=B_SPLINE_CURVE_WITH_KNOTS('',1,(#109,#110),.UNSPECIFIED.,.F.,.F.,(2,2),(0.00000000000000000E0,1.00000000000000000E0),.UNSPECIFIED.);
#112=CARTESIAN_POINT('',(2.47562907225922224E1,1.14011742497650559E-2,2.49709396498522942E1));
#113=CARTESIAN_POINT('',(2.59278205499403072E1,-2.29037336778722844E0,2.73330048101017340E1));
#114=B_SPLINE_CURVE_WITH_KNOTS('',1,(#112,#113),.UNSPECIFIED.,.F.,.F.,(2,2),(0.00000000000000000E0,1.00000000000000000E0),.UNSPECIFIED.);
#115=CARTESIAN_POINT('',(2.70521984266857132E1,-4.49950565951950043E0,1.94364543665275740E1));
#116=CARTESIAN_POINT('',(2.82237282540337979E1,-6.80128020155649349E0,2.17985195267770138E1));
#117=B_SPLINE_CURVE_WITH_KNOTS('',1,(#115,#116),.UNSPECIFIED.,.F.,.F.,(2,2),(0.00000000000000000E0,1.00000000000000000E0),.UNSPECIFIED.);
#118=CARTESIAN_POINT('',(2.59278205499403072E1,-2.29037336778722844E0,2.73330048101017340E1));
#119=CARTESIAN_POINT('',(2.82237282540337979E1,-6.80128020155649349E0,2.17985195267770138E1));
#120=B_SPLINE_CURVE_WITH_KNOTS('',1,(#118,#119),.UNSPECIFIED.,.F.,.F.,(2,2),(0.00000000000000000E0,1.00000000000000000E0),.UNSPECIFIED.);
#121=CARTESIAN_POINT('',(2.19308763930766517E1,-1.20741738458446761E1,2.34857089269551835E1));
#122=CARTESIAN_POINT('',(1.96349686889831609E1,-7.56326701207541241E0,2.90201942102799038E1));
#123=B_SPLINE_CURVE_WITH_KNOTS('',1,(#121,#122),.UNSPECIFIED.,.F.,.F.,(2,2),(0.00000000000000000E0,1.00000000000000000E0),.UNSPECIFIED.);
#124=CARTESIAN_POINT('',(2.45366091693210606E1,-5.06848834423473527E0,2.90201942102799038E1));
#125=CARTESIAN_POINT('',(1.96349686889831609E1,-7.56326701207541241E0,2.90201942102799038E1));
#126=B_SPLINE_CURVE_WITH_KNOTS('',1,(#124,#125),.UNSPECIFIED.,.F.,.F.,(2,2),(0.00000000000000000E0,1.00000000000000000E0),.UNSPECIFIED.);
#127=CARTESIAN_POINT('',(2.19308763930766517E1,-1.20741738458446761E1,2.34857089269551835E1));
#128=CARTESIAN_POINT('',(2.68325168734145514E1,-9.57939517800400075E0,2.34857089269551835E1));
#129=B_SPLINE_CURVE_WITH_KNOTS('',1,(#127,#128),.UNSPECIFIED.,.F.,.F.,(2,2),(0.00000000000000000E0,1.00000000000000000E0),.UNSPECIFIED.);
#130=CARTESIAN_POINT('',(2.45366091693210606E1,-5.06848834423473527E0,2.90201942102799038E1));
#131=CARTESIAN_POINT('',(2.68325168734145514E1,-9.57939517800400075E0,2.34857089269551835E1));
#132=B_SPLINE_CURVE_WITH_KNOTS('',1,(#130,#131),.UNSPECIFIED.,.F.,.F.,(2,2),(0.00000000000000000E0,1.00000000000000000E0),.UNSPECIFIED.);
#133=CARTESIAN_POINT('',(2.17629697544074716E1,3.81046481942242998E-1,2.68157680776272009E1));
#134=CARTESIAN_POINT('',(2.39909881545610588E1,1.51503678550618659E0,2.68157680776272009E1));
#135=CARTESIAN_POINT('',(2.47562907225922224E1,1.14011742497650559E-2,2.49709396498522942E1));
#136=(BOUNDED_CURVE()B_SPLINE_CURVE(2,(#133,#134,#135),.UNSPECIFIED.,.F.,.F.)B_SPLINE_CURVE_WITH_KNOTS((3,3),(0.00000000000000000E0,1.00000000000000000E0),.UNSPECIFIED.)CURVE()GEOMETRIC_REPRESENTATION_ITEM()RATIONAL_B_SPLINE_CURVE((1.00000000000000000E0,7.07106781186547573E-1,1.00000000000000000E0))REPRESENTATION_ITEM(''));
#137=CARTESIAN_POINT('',(2.29344995817555528E1,-1.92072806009475028E0,2.91778332378766407E1));
#138=CARTESIAN_POINT('',(2.51625179819091436E1,-7.86737756530806909E-1,2.91778332378766407E1));
#139=CARTESIAN_POINT('',(2.59278205499403072E1,-2.29037336778722844E0,2.73330048101017340E1));
#140=(BOUNDED_CURVE()B_SPLINE_CURVE(2,(#137,#138,#139),.UNSPECIFIED.,.F.,.F.)B_SPLINE_CURVE_WITH_KNOTS((3,3),(0.00000000000000000E0,1.00000000000000000E0),.UNSPECIFIED.)CURVE()GEOMETRIC_REPRESENTATION_ITEM()RATIONAL_B_SPLINE_CURVE((1.00000000000000000E0,7.07106781186547573E-1,1.00000000000000000E0))REPRESENTATION_ITEM(''));
#141=CARTESIAN_POINT('',(2.29344995817555528E1,-1.92072806009475028E0,2.91778332378766407E1));
#142=CARTESIAN_POINT('',(2.37713066012898970E1,-3.56485273297831373E0,3.08650226380548105E1));
#143=CARTESIAN_POINT('',(2.45366091693210606E1,-5.06848834423473527E0,2.90201942102799038E1));
#144=(BOUNDED_CURVE()B_SPLINE_CURVE(2,(#141,#142,#143),.UNSPECIFIED.,.F.,.F.)B_SPLINE_CURVE_WITH_KNOTS((3,3),(0.00000000000000000E0,1.00000000000000000E0),.UNSPECIFIED.)CURVE()GEOMETRIC_REPRESENTATION_ITEM()RATIONAL_B_SPLINE_CURVE((2.00000000000000000E0,1.00000000000000000E0,1.00000000000000000E0))REPRESENTATION_ITEM(''));
#145=CARTESIAN_POINT('',(2.59278205499403072E1,-2.29037336778722844E0,2.73330048101017340E1));
#146=CARTESIAN_POINT('',(2.67646275694746478E1,-3.93449804067079167E0,2.90201942102799038E1));
#147=CARTESIAN_POINT('',(2.45366091693210606E1,-5.06848834423473527E0,2.90201942102799038E1));
#148=(BOUNDED_CURVE()B_SPLINE_CURVE(2,(#145,#146,#147),.UNSPECIFIED.,.F.,.F.)B_SPLINE_CURVE_WITH_KNOTS((3,3),(0.00000000000000000E0,1.00000000000000000E0),.UNSPECIFIED.)CURVE()GEOMETRIC_REPRESENTATION_ITEM()RATIONAL_B_SPLINE_CURVE((2.00000000000000000E0,1.00000000000000000E0,1.00000000000000000E0))REPRESENTATION_ITEM(''));
#149=CARTESIAN_POINT('',(1.80328591014176567E1,-4.41550672793542720E0,2.91778332378766407E1));
#150=CARTESIAN_POINT('',(1.88696661209519974E1,-6.05963140081898999E0,3.08650226380548105E1));
#151=CARTESIAN_POINT('',(1.96349686889831609E1,-7.56326701207541241E0,2.90201942102799038E1));
#152=(BOUNDED_CURVE()B_SPLINE_CURVE(2,(#149,#150,#151),.UNSPECIFIED.,.F.,.F.)B_SPLINE_CURVE_WITH_KNOTS((3,3),(0.00000000000000000E0,1.00000000000000000E0),.UNSPECIFIED.)CURVE()GEOMETRIC_REPRESENTATION_ITEM()RATIONAL_B_SPLINE_CURVE((2.00000000000000000E0,1.00000000000000000E0,1.00000000000000000E0))REPRESENTATION_ITEM(''));
#153=CARTESIAN_POINT('',(2.82237282540337979E1,-6.80128020155649349E0,2.17985195267770138E1));
#154=CARTESIAN_POINT('',(2.90605352735681386E1,-8.44540487444005805E0,2.34857089269551835E1));
#155=CARTESIAN_POINT('',(2.68325168734145514E1,-9.57939517800400075E0,2.34857089269551835E1));
#156=(BOUNDED_CURVE()B_SPLINE_CURVE(2,(#153,#154,#155),.UNSPECIFIED.,.F.,.F.)B_SPLINE_CURVE_WITH_KNOTS((3,3),(0.00000000000000000E0,1.00000000000000000E0),.UNSPECIFIED.)CURVE()GEOMETRIC_REPRESENTATION_ITEM()RATIONAL_B_SPLINE_CURVE((2.00000000000000000E0,1.00000000000000000E0,1.00000000000000000E0))REPRESENTATION_ITEM(''));
#157=(GEOMETRIC_REPRESENTATION_CONTEXT(2)REPRESENTATION_CONTEXT('','2D'));
#158=CARTESIAN_POINT('',(0.00000000000000000E0,0.00000000000000000E0));
#159=CARTESIAN_POINT('',(1.00000000000000000E0,0.00000000000000000E0));
#160=B_SPLINE_CURVE_WITH_KNOTS('',1,(#158,#159),.UNSPECIFIED.,.F.,.F.,(2,2),(0.00000000000000000E0,1.00000000000000000E0),.UNSPECIFIED.);
#161=DEFINITIONAL_REPRESENTATION('',(#160),#157);
#162=PCURVE('',#31,#161);
#163=CARTESIAN_POINT('',(1.00000000000000000E0,0.00000000000000000E0));
#164=CARTESIAN_POINT('',(1.00000000000000000E0,6.87500000000000111E-1));
#165=B_SPLINE_CURVE_WITH_KNOTS('',1,(#163,#164),.UNSPECIFIED.,.F.,.F.,(2,2),(0.00000000000000000E0,1.00000000000000000E0),.UNSPECIFIED.);
#166=DEFINITIONAL_REPRESENTATION('',(#165),#157);
#167=PCURVE('',#31,#166);
#168=CARTESIAN_POINT('',(1.00000000000000000E0,6.87500000000000111E-1));
#169=CARTESIAN_POINT('',(1.00000000000000000E0,1.00000000000000000E0));
#170=CARTESIAN_POINT('',(7.50000000000000000E-1,1.00000000000000000E0));
#171=(BOUNDED_CURVE()B_SPLINE_CURVE(2,(#168,#169,#170),.UNSPECIFIED.,.F.,.F.)B_SPLINE_CURVE_WITH_KNOTS((3,3),(0.00000000000000000E0,1.00000000000000000E0),.UNSPECIFIED.)CURVE()GEOMETRIC_REPRESENTATION_ITEM()RATIONAL_B_SPLINE_CURVE((1.00000000000000000E0,7.07106781186547573E-1,1.00000000000000000E0))REPRESENTATION_ITEM(''));
#172=DEFINITIONAL_REPRESENTATION('',(#171),#157);
#173=PCURVE('',#31,#172);
#174=CARTESIAN_POINT('',(7.50000000000000000E-1,1.00000000000000000E0));
#175=CARTESIAN_POINT('',(0.00000000000000000E0,1.00000000000000000E0));
#176=B_SPLINE_CURVE_WITH_KNOTS('',1,(#174,#175),.UNSPECIFIED.,.F.,.F.,(2,2),(0.00000000000000000E0,1.00000000000000000E0),.UNSPECIFIED.);
#177=DEFINITIONAL_REPRESENTATION('',(#176),#157);
#178=PCURVE('',#31,#177);
#179=CARTESIAN_POINT('',(0.00000000000000000E0,1.00000000000000000E0));
#180=CARTESIAN_POINT('',(0.00000000000000000E0,0.00000000000000000E0));
#181=B_SPLINE_CURVE_WITH_KNOTS('',1,(#179,#180),.UNSPECIFIED.,.F.,.F.,(2,2),(0.00000000000000000E0,1.00000000000000000E0),.UNSPECIFIED.);
#182=DEFINITIONAL_REPRESENTATION('',(#181),#157);
#183=PCURVE('',#31,#182);
#184=CARTESIAN_POINT('',(1.00000000000000000E0,0.00000000000000000E0));
#185=CARTESIAN_POINT('',(1.00000000000000000E0,6.87500000000000111E-1));
#186=B_SPLINE_CURVE_WITH_KNOTS('',1,(#184,#185),.UNSPECIFIED.,.F.,.F.,(2,2),(0.00000000000000000E0,1.00000000000000000E0),.UNSPECIFIED.);
#187=DEFINITIONAL_REPRESENTATION('',(#186),#157);
#188=PCURVE('',#36,#187);
#189=CARTESIAN_POINT('',(1.00000000000000000E0,6.87500000000000111E-1));
#190=CARTESIAN_POINT('',(2.50000000000000000E-1,6.87500000000000111E-1));
#191=B_SPLINE_CURVE_WITH_KNOTS('',1,(#189,#190),.UNSPECIFIED.,.F.,.F.,(2,2),(0.00000000000000000E0,1.00000000000000000E0),.UNSPECIFIED.);
#192=DEFINITIONAL_REPRESENTATION('',(#191),#157);
#193=PCURVE('',#36,#192);
#194=CARTESIAN_POINT('',(2.50000000000000000E-1,6.87500000000000111E-1));
#195=CARTESIAN_POINT('',(2.50000000000000000E-1,0.00000000000000000E0));
#196=B_SPLINE_CURVE_WITH_KNOTS('',1,(#194,#195),.UNSPECIFIED.,.F.,.F.,(2,2),(0.00000000000000000E0,1.00000000000000000E0),.UNSPECIFIED.);
#197=DEFINITIONAL_REPRESENTATION('',(#196),#157);
#198=PCURVE('',#36,#197);
#199=CARTESIAN_POINT('',(2.50000000000000000E-1,0.00000000000000000E0));
#200=CARTESIAN_POINT('',(1.00000000000000000E0,0.00000000000000000E0));
#201=B_SPLINE_CURVE_WITH_KNOTS('',1,(#199,#200),.UNSPECIFIED.,.F.,.F.,(2,2),(0.00000000000000000E0,1.00000000000000000E0),.UNSPECIFIED.);
#202=DEFINITIONAL_REPRESENTATION('',(#201),#157);
#203=PCURVE('',#36,#202);
#204=CARTESIAN_POINT('',(0.00000000000000000E0,0.00000000000000000E0));
#205=CARTESIAN_POINT('',(1.00000000000000000E0,0.00000000000000000E0));
#206=B_SPLINE_CURVE_WITH_KNOTS('',1,(#204,#205),.UNSPECIFIED.,.F.,.F.,(2,2),(0.00000000000000000E0,1.00000000000000000E0),.UNSPECIFIED.);
#207=DEFINITIONAL_REPRESENTATION('',(#206),#157);
#208=PCURVE('',#41,#207);
#209=CARTESIAN_POINT('',(1.00000000000000000E0,0.00000000000000000E0));
#210=CARTESIAN_POINT('',(1.00000000000000000E0,5.83333333333333814E-1));
#211=B_SPLINE_CURVE_WITH_KNOTS('',1,(#209,#210),.UNSPECIFIED.,.F.,.F.,(2,2),(0.00000000000000000E0,1.00000000000000000E0),.UNSPECIFIED.);
#212=DEFINITIONAL_REPRESENTATION('',(#211),#157);
#213=PCURVE('',#41,#212);
#214=CARTESIAN_POINT('',(1.00000000000000000E0,5.83333333333333814E-1));
#215=CARTESIAN_POINT('',(1.00000000000000000E0,1.00000000000000000E0));
#216=CARTESIAN_POINT('',(6.87500000000000111E-1,1.00000000000000000E0));
#217=(BOUNDED_CURVE()B_SPLINE_CURVE(2,(#214,#215,#216),.UNSPECIFIED.,.F.,.F.)B_SPLINE_CURVE_WITH_KNOTS((3,3),(0.00000000000000000E0,1.00000000000000000E0),.UNSPECIFIED.)CURVE()GEOMETRIC_REPRESENTATION_ITEM()RATIONAL_B_SPLINE_CURVE((2.00000000000000000E0,1.00000000000000000E0,1.00000000000000000E0))REPRESENTATION_ITEM(''));
#218=DEFINITIONAL_REPRESENTATION('',(#217),#157);
#219=PCURVE('',#41,#218);
#220=CARTESIAN_POINT('',(6.87500000000000111E-1,1.00000000000000000E0));
#221=CARTESIAN_POINT('',(0.00000000000000000E0,1.00000000000000000E0));
#222=B_SPLINE_CURVE_WITH_KNOTS('',1,(#220,#221),.UNSPECIFIED.,.F.,.F.,(2,2),(0.00000000000000000E0,1.00000000000000000E0),.UNSPECIFIED.);
#223=DEFINITIONAL_REPRESENTATION('',(#222),#157);
#224=PCURVE('',#41,#223);
#225=CARTESIAN_POINT('',(0.00000000000000000E0,1.00000000000000000E0));
#226=CARTESIAN_POINT('',(0.00000000000000000E0,0.00000000000000000E0));
#227=B_SPLINE_CURVE_WITH_KNOTS('',1,(#225,#226),.UNSPECIFIED.,.F.,.F.,(2,2),(0.00000000000000000E0,1.00000000000000000E0),.UNSPECIFIED.);
#228=DEFINITIONAL_REPRESENTATION('',(#227),#157);
#229=PCURVE('',#41,#228);
#230=CARTESIAN_POINT('',(1.00000000000000000E0,0.00000000000000000E0));
#231=CARTESIAN_POINT('',(1.00000000000000000E0,1.00000000000000000E0));
#232=B_SPLINE_CURVE_WITH_KNOTS('',1,(#230,#231),.UNSPECIFIED.,.F.,.F.,(2,2),(0.00000000000000000E0,1.00000000000000000E0),.UNSPECIFIED.);
#233=DEFINITIONAL_REPRESENTATION('',(#232),#157);
#234=PCURVE('',#46,#233);
#235=CARTESIAN_POINT('',(1.00000000000000000E0,1.00000000000000000E0));
#236=CARTESIAN_POINT('',(2.50000000000000000E-1,1.00000000000000000E0));
#237=B_SPLINE_CURVE_WITH_KNOTS('',1,(#235,#236),.UNSPECIFIED.,.F.,.F.,(2,2),(0.00000000000000000E0,1.00000000000000000E0),.UNSPECIFIED.);
#238=DEFINITIONAL_REPRESENTATION('',(#237),#157);
#239=PCURVE('',#46,#238);
#240=CARTESIAN_POINT('',(2.50000000000000000E-1,1.00000000000000000E0));
#241=CARTESIAN_POINT('',(0.00000000000000000E0,1.00000000000000000E0));
#242=CARTESIAN_POINT('',(0.00000000000000000E0,5.83333333333333814E-1));
#243=(BOUNDED_CURVE()B_SPLINE_CURVE(2,(#240,#241,#242),.UNSPECIFIED.,.F.,.F.)B_SPLINE_CURVE_WITH_KNOTS((3,3),(0.00000000000000000E0,1.00000000000000000E0),.UNSPECIFIED.)CURVE()GEOMETRIC_REPRESENTATION_ITEM()RATIONAL_B_SPLINE_CURVE((1.00000000000000000E0,1.00000000000000000E0,2.00000000000000000E0))REPRESENTATION_ITEM(''));
#244=DEFINITIONAL_REPRESENTATION('',(#243),#157);
#245=PCURVE('',#46,#244);
#246=CARTESIAN_POINT('',(0.00000000000000000E0,5.83333333333333814E-1));
#247=CARTESIAN_POINT('',(0.00000000000000000E0,0.00000000000000000E0));
#248=B_SPLINE_CURVE_WITH_KNOTS('',1,(#246,#247),.UNSPECIFIED.,.F.,.F.,(2,2),(0.00000000000000000E0,1.00000000000000000E0),.UNSPECIFIED.);
#249=DEFINITIONAL_REPRESENTATION('',(#248),#157);
#250=PCURVE('',#46,#249);
#251=CARTESIAN_POINT('',(0.00000000000000000E0,0.00000000000000000E0));
#252=CARTESIAN_POINT('',(1.00000000000000000E0,0.00000000000000000E0));
#253=B_SPLINE_CURVE_WITH_KNOTS('',1,(#251,#252),.UNSPECIFIED.,.F.,.F.,(2,2),(0.00000000000000000E0,1.00000000000000000E0),.UNSPECIFIED.);
#254=DEFINITIONAL_REPRESENTATION('',(#253),#157);
#255=PCURVE('',#46,#254);
#256=CARTESIAN_POINT('',(1.00000000000000000E0,0.00000000000000000E0));
#257=CARTESIAN_POINT('',(1.00000000000000000E0,5.83333333333333814E-1));
#258=B_SPLINE_CURVE_WITH_KNOTS('',1,(#256,#257),.UNSPECIFIED.,.F.,.F.,(2,2),(0.00000000000000000E0,1.00000000000000000E0),.UNSPECIFIED.);
#259=DEFINITIONAL_REPRESENTATION('',(#258),#157);
#260=PCURVE('',#51,#259);
#261=CARTESIAN_POINT('',(1.00000000000000000E0,5.83333333333333814E-1));
#262=CARTESIAN_POINT('',(3.12499999999999889E-1,5.83333333333333814E-1));
#263=B_SPLINE_CURVE_WITH_KNOTS('',1,(#261,#262),.UNSPECIFIED.,.F.,.F.,(2,2),(0.00000000000000000E0,1.00000000000000000E0),.UNSPECIFIED.);
#264=DEFINITIONAL_REPRESENTATION('',(#263),#157);
#265=PCURVE('',#51,#264);
#266=CARTESIAN_POINT('',(3.12499999999999889E-1,5.83333333333333814E-1));
#267=CARTESIAN_POINT('',(3.12499999999999889E-1,0.00000000000000000E0));
#268=B_SPLINE_CURVE_WITH_KNOTS('',1,(#266,#267),.UNSPECIFIED.,.F.,.F.,(2,2),(0.00000000000000000E0,1.00000000000000000E0),.UNSPECIFIED.);
#269=DEFINITIONAL_REPRESENTATION('',(#268),#157);
#270=PCURVE('',#51,#269);
#271=CARTESIAN_POINT('',(3.12499999999999889E-1,0.00000000000000000E0));
#272=CARTESIAN_POINT('',(1.00000000000000000E0,0.00000000000000000E0));
#273=B_SPLINE_CURVE_WITH_KNOTS('',1,(#271,#272),.UNSPECIFIED.,.F.,.F.,(2,2),(0.00000000000000000E0,1.00000000000000000E0),.UNSPECIFIED.);
#274=DEFINITIONAL_REPRESENTATION('',(#273),#157);
#275=PCURVE('',#51,#274);
#276=CARTESIAN_POINT('',(0.00000000000000000E0,0.00000000000000000E0));
#277=CARTESIAN_POINT('',(7.50000000000000000E-1,0.00000000000000000E0));
#278=B_SPLINE_CURVE_WITH_KNOTS('',1,(#276,#277),.UNSPECIFIED.,.F.,.F.,(2,2),(0.00000000000000000E0,1.00000000000000000E0),.UNSPECIFIED.);
#279=DEFINITIONAL_REPRESENTATION('',(#278),#157);
#280=PCURVE('',#56,#279);
#281=CARTESIAN_POINT('',(7.50000000000000000E-1,0.00000000000000000E0));
#282=CARTESIAN_POINT('',(7.50000000000000000E-1,5.83333333333333814E-1));
#283=B_SPLINE_CURVE_WITH_KNOTS('',1,(#281,#282),.UNSPECIFIED.,.F.,.F.,(2,2),(0.00000000000000000E0,1.00000000000000000E0),.UNSPECIFIED.);
#284=DEFINITIONAL_REPRESENTATION('',(#283),#157);
#285=PCURVE('',#56,#284);
#286=CARTESIAN_POINT('',(7.50000000000000000E-1,5.83333333333333814E-1));
#287=CARTESIAN_POINT('',(0.00000000000000000E0,5.83333333333333814E-1));
#288=B_SPLINE_CURVE_WITH_KNOTS('',1,(#286,#287),.UNSPECIFIED.,.F.,.F.,(2,2),(0.00000000000000000E0,1.00000000000000000E0),.UNSPECIFIED.);
#289=DEFINITIONAL_REPRESENTATION('',(#288),#157);
#290=PCURVE('',#56,#289);
#291=CARTESIAN_POINT('',(0.00000000000000000E0,5.83333333333333814E-1));
#292=CARTESIAN_POINT('',(0.00000000000000000E0,0.00000000000000000E0));
#293=B_SPLINE_CURVE_WITH_KNOTS('',1,(#291,#292),.UNSPECIFIED.,.F.,.F.,(2,2),(0.00000000000000000E0,1.00000000000000000E0),.UNSPECIFIED.);
#294=DEFINITIONAL_REPRESENTATION('',(#293),#157);
#295=PCURVE('',#56,#294);
#296=CARTESIAN_POINT('',(1.00000000000000000E0,0.00000000000000000E0));
#297=CARTESIAN_POINT('',(1.00000000000000000E0,1.00000000000000000E0));
#298=B_SPLINE_CURVE_WITH_KNOTS('',1,(#296,#297),.UNSPECIFIED.,.F.,.F.,(2,2),(0.00000000000000000E0,1.00000000000000000E0),.UNSPECIFIED.);
#299=DEFINITIONAL_REPRESENTATION('',(#298),#157);
#300=PCURVE('',#63,#299);
#301=CARTESIAN_POINT('',(1.00000000000000000E0,1.00000000000000000E0));
#302=CARTESIAN_POINT('',(0.00000000000000000E0,1.00000000000000000E0));
#303=B_SPLINE_CURVE_WITH_KNOTS('',1,(#301,#302),.UNSPECIFIED.,.F.,.F.,(2,2),(0.00000000000000000E0,1.00000000000000000E0),.UNSPECIFIED.);
#304=DEFINITIONAL_REPRESENTATION('',(#303),#157);
#305=PCURVE('',#63,#304);
#306=CARTESIAN_POINT('',(0.00000000000000000E0,1.00000000000000000E0));
#307=CARTESIAN_POINT('',(0.00000000000000000E0,0.00000000000000000E0));
#308=B_SPLINE_CURVE_WITH_KNOTS('',1,(#306,#307),.UNSPECIFIED.,.F.,.F.,(2,2),(0.00000000000000000E0,1.00000000000000000E0),.UNSPECIFIED.);
#309=DEFINITIONAL_REPRESENTATION('',(#308),#157);
#310=PCURVE('',#63,#309);
#311=CARTESIAN_POINT('',(0.00000000000000000E0,0.00000000000000000E0));
#312=CARTESIAN_POINT('',(1.00000000000000000E0,0.00000000000000000E0));
#313=B_SPLINE_CURVE_WITH_KNOTS('',1,(#311,#312),.UNSPECIFIED.,.F.,.F.,(2,2),(0.00000000000000000E0,1.00000000000000000E0),.UNSPECIFIED.);
#314=DEFINITIONAL_REPRESENTATION('',(#313),#157);
#315=PCURVE('',#63,#314);
#316=CARTESIAN_POINT('',(0.00000000000000000E0,0.00000000000000000E0));
#317=CARTESIAN_POINT('',(1.00000000000000000E0,0.00000000000000000E0));
#318=B_SPLINE_CURVE_WITH_KNOTS('',1,(#316,#317),.UNSPECIFIED.,.F.,.F.,(2,2),(0.00000000000000000E0,1.00000000000000000E0),.UNSPECIFIED.);
#319=DEFINITIONAL_REPRESENTATION('',(#318),#157);
#320=PCURVE('',#70,#319);
#321=CARTESIAN_POINT('',(1.00000000000000000E0,0.00000000000000000E0));
#322=CARTESIAN_POINT('',(1.00000000000000000E0,1.00000000000000000E0));
#323=B_SPLINE_CURVE_WITH_KNOTS('',1,(#321,#322),.UNSPECIFIED.,.F.,.F.,(2,2),(0.00000000000000000E0,1.00000000000000000E0),.UNSPECIFIED.);
#324=DEFINITIONAL_REPRESENTATION('',(#323),#157);
#325=PCURVE('',#70,#324);
#326=CARTESIAN_POINT('',(1.00000000000000000E0,1.00000000000000000E0));
#327=CARTESIAN_POINT('',(0.00000000000000000E0,1.00000000000000000E0));
#328=B_SPLINE_CURVE_WITH_KNOTS('',1,(#326,#327),.UNSPECIFIED.,.F.,.F.,(2,2),(0.00000000000000000E0,1.00000000000000000E0),.UNSPECIFIED.);
#329=DEFINITIONAL_REPRESENTATION('',(#328),#157);
#330=PCURVE('',#70,#329);
#331=CARTESIAN_POINT('',(0.00000000000000000E0,1.00000000000000000E0));
#332=CARTESIAN_POINT('',(0.00000000000000000E0,0.00000000000000000E0));
#333=B_SPLINE_CURVE_WITH_KNOTS('',1,(#331,#332),.UNSPECIFIED.,.F.,.F.,(2,2),(0.00000000000000000E0,1.00000000000000000E0),.UNSPECIFIED.);
#334=DEFINITIONAL_REPRESENTATION('',(#333),#157);
#335=PCURVE('',#70,#334);
#336=CARTESIAN_POINT('',(1.00000000000000000E0,0.00000000000000000E0));
#337=CARTESIAN_POINT('',(1.00000000000000000E0,1.00000000000000000E0));
#338=B_SPLINE_CURVE_WITH_KNOTS('',1,(#336,#337),.UNSPECIFIED.,.F.,.F.,(2,2),(0.00000000000000000E0,1.00000000000000000E0),.UNSPECIFIED.);
#339=DEFINITIONAL_REPRESENTATION('',(#338),#157);
#340=PCURVE('',#77,#339);
#341=CARTESIAN_POINT('',(1.00000000000000000E0,1.00000000000000000E0));
#342=CARTESIAN_POINT('',(0.00000000000000000E0,1.00000000000000000E0));
#343=B_SPLINE_CURVE_WITH_KNOTS('',1,(#341,#342),.UNSPECIFIED.,.F.,.F.,(2,2),(0.00000000000000000E0,1.00000000000000000E0),.UNSPECIFIED.);
#344=DEFINITIONAL_REPRESENTATION('',(#343),#157);
#345=PCURVE('',#77,#344);
#346=CARTESIAN_POINT('',(0.00000000000000000E0,1.00000000000000000E0));
#347=CARTESIAN_POINT('',(0.00000000000000000E0,0.00000000000000000E0));
#348=B_SPLINE_CURVE_WITH_KNOTS('',1,(#346,#347),.UNSPECIFIED.,.F.,.F.,(2,2),(0.00000000000000000E0,1.00000000000000000E0),.UNSPECIFIED.);
#349=DEFINITIONAL_REPRESENTATION('',(#348),#157);
#350=PCURVE('',#77,#349);
#351=CARTESIAN_POINT('',(0.00000000000000000E0,0.00000000000000000E0));
#352=CARTESIAN_POINT('',(1.00000000000000000E0,0.00000000000000000E0));
#353=B_SPLINE_CURVE_WITH_KNOTS('',1,(#351,#352),.UNSPECIFIED.,.F.,.F.,(2,2),(0.00000000000000000E0,1.00000000000000000E0),.UNSPECIFIED.);
#354=DEFINITIONAL_REPRESENTATION('',(#353),#157);
#355=PCURVE('',#77,#354);
#356=CARTESIAN_POINT('',(1.00000000000000000E0,0.00000000000000000E0));
#357=CARTESIAN_POINT('',(1.00000000000000000E0,1.00000000000000000E0));
#358=B_SPLINE_CURVE_WITH_KNOTS('',1,(#356,#357),.UNSPECIFIED.,.F.,.F.,(2,2),(0.00000000000000000E0,1.00000000000000000E0),.UNSPECIFIED.);
#359=DEFINITIONAL_REPRESENTATION('',(#358),#157);
#360=PCURVE('',#87,#359);
#361=CARTESIAN_POINT('',(1.00000000000000000E0,1.00000000000000000E0));
#362=CARTESIAN_POINT('',(0.00000000000000000E0,1.00000000000000000E0));
#363=CARTESIAN_POINT('',(0.00000000000000000E0,0.00000000000000000E0));
#364=(BOUNDED_CURVE()B_SPLINE_CURVE(2,(#361,#362,#363),.UNSPECIFIED.,.F.,.F.)B_SPLINE_CURVE_WITH_KNOTS((3,3),(0.00000000000000000E0,1.00000000000000000E0),.UNSPECIFIED.)CURVE()GEOMETRIC_REPRESENTATION_ITEM()RATIONAL_B_SPLINE_CURVE((1.00000000000000000E0,7.07106781186547573E-1,1.00000000000000000E0))REPRESENTATION_ITEM(''));
#365=DEFINITIONAL_REPRESENTATION('',(#364),#157);
#366=PCURVE('',#87,#365);
#367=CARTESIAN_POINT('',(0.00000000000000000E0,0.00000000000000000E0));
#368=CARTESIAN_POINT('',(1.00000000000000000E0,0.00000000000000000E0));
#369=B_SPLINE_CURVE_WITH_KNOTS('',1,(#367,#368),.UNSPECIFIED.,.F.,.F.,(2,2),(0.00000000000000000E0,1.00000000000000000E0),.UNSPECIFIED.);
#370=DEFINITIONAL_REPRESENTATION('',(#369),#157);
#371=PCURVE('',#87,#370);
#372=SURFACE_CURVE('',#90,(#162,#255),.PCURVE_S1.);
#373=EDGE_CURVE('OSCAD_TOPO/3|edge|e:594ecfd7483db41a69e5ae81eb290d90|935fe151fb4aeee9d8ada3e0a4e04592af8382b735d01bf708f7c752ed1766a9',#2,#4,#372,.T.);
#374=SURFACE_CURVE('',#93,(#167,#275),.PCURVE_S1.);
#375=EDGE_CURVE('OSCAD_TOPO/3|edge|e:18647e79098709d00508487f11a6d629|d2e8328826f0fa5cf66786abefed5ece7d3d6bbafa05333242e63369a9f67104',#4,#10,#374,.T.);
#376=SURFACE_CURVE('',#96,(#178,#280),.PCURVE_S1.);
#377=EDGE_CURVE('OSCAD_TOPO/3|edge|e:079fe9e2e852ca6fb77bff77dd65b6c1|e9d04c87a0d8afa6bf495867e391187aa83fddaa502acd684d226ebfce2e41c9',#6,#12,#376,.T.);
#378=SURFACE_CURVE('',#99,(#183,#208),.PCURVE_S1.);
#379=EDGE_CURVE('OSCAD_TOPO/3|edge|e:686dedaa410d713ffa8fd688a1732233|3125c08375df3453a5f12cca53828fec2e6524daaedc9dc4499291d3de9d5c71',#2,#6,#378,.T.);
#380=SURFACE_CURVE('',#102,(#229,#234),.PCURVE_S1.);
#381=EDGE_CURVE('OSCAD_TOPO/3|edge|e:37465546dcc6d42d0b627598e374a844|a0fee4ab24fb9eced576194243aef4200272b4cff8c9ddf46054597ad4ba8303',#2,#8,#380,.T.);
#382=SURFACE_CURVE('',#105,(#250,#260),.PCURVE_S1.);
#383=EDGE_CURVE('OSCAD_TOPO/3|edge|e:93ee97fd54d40886ce3f7718b629e13d|b9a3af1c63ac8a4df8dc0873f85deffde7504ea6fad81284b288e0e4deee047b',#4,#20,#382,.T.);
#384=SURFACE_CURVE('',#108,(#265,#335),.PCURVE_S1.);
#385=EDGE_CURVE('OSCAD_TOPO/3|edge|e:24bc014dd705f7efa7d187af19e3326a|205e4f77f4ea9922adb3e4173afc84c583aa9fc61ac40f36aef164d11d5e6ab5',#14,#20,#384,.T.);
#386=SURFACE_CURVE('',#111,(#270,#300),.PCURVE_S1.);
#387=EDGE_CURVE('OSCAD_TOPO/3|edge|e:5297090b08e701b058fd54b15fe7ca60|a4a402de8b769a4d4cac74ee6865290368d6857a114438ffba1ab902e519d000',#10,#14,#386,.T.);
#388=SURFACE_CURVE('',#114,(#285,#310),.PCURVE_S1.);
#389=EDGE_CURVE('OSCAD_TOPO/3|edge|e:8ef39d6843c52c9d1000285797be9395|174783e643527c6854d8c02a671b9293d635d4ffba6d7b4df9b067fc80dc661f',#12,#16,#388,.T.);
#390=SURFACE_CURVE('',#117,(#213,#295),.PCURVE_S1.);
#391=EDGE_CURVE('OSCAD_TOPO/3|edge|e:4c8b910d75fab7001fbf123ac636ed07|132b322d79d79771c49f0d4b64902867c88a2bc37f364952d3d063bfadef2590',#6,#24,#390,.T.);
#392=SURFACE_CURVE('',#120,(#290,#340),.PCURVE_S1.);
#393=EDGE_CURVE('OSCAD_TOPO/3|edge|e:08d8c041be33fb3dbb4051d2e2cd1fa2|867af0aecc44aa4449fcf0e338d17b3d28cd2eafdc247a106a5498360738b60f',#16,#24,#392,.T.);
#394=SURFACE_CURVE('',#123,(#203,#239),.PCURVE_S1.);
#395=EDGE_CURVE('OSCAD_TOPO/3|edge|e:34e894719d8fd2c2598e325316b740a0|3d73c08d7db6d896e2c28b7cdb87c0dd68e353f06667bbcd4b604d611cadb3de',#8,#22,#394,.T.);
#396=SURFACE_CURVE('',#126,(#198,#325),.PCURVE_S1.);
#397=EDGE_CURVE('OSCAD_TOPO/3|edge|e:328d6b47aa5bbd3cdd66f8735c6a8428|a6dc040b2fcd675cb8e477a115d24821dc9a519818c31dbeae37700f8b9d5d6e',#18,#22,#396,.T.);
#398=SURFACE_CURVE('',#129,(#188,#224),.PCURVE_S1.);
#399=EDGE_CURVE('OSCAD_TOPO/3|edge|e:947d46eab5b89e8e189992357f4bfdb4|61dc92f4d9011c65a94dbd701c5de0100dbb04d7bb77afc53f13a97c6b1b5d3e',#8,#26,#398,.T.);
#400=SURFACE_CURVE('',#132,(#193,#350),.PCURVE_S1.);
#401=EDGE_CURVE('OSCAD_TOPO/3|edge|e:58e28987d5b80f48f6dc22e103854508|b43b4211323c97deebb521b9a3f5b7b0d9aae550de87f3b2a8d24b27a0780f7c',#18,#26,#400,.T.);
#402=SURFACE_CURVE('',#136,(#173,#315),.PCURVE_S1.);
#403=EDGE_CURVE('OSCAD_TOPO/3|edge|e:4d57f24db3bf26c036b2ad9c8646245d|758dcc055186852fe4a9f618da3f411197df77282a10b02d93cfce81ae464d97',#10,#12,#402,.T.);
#404=SURFACE_CURVE('',#140,(#305,#366),.PCURVE_S1.);
#405=EDGE_CURVE('OSCAD_TOPO/3|edge|e:75663aad493a35beeab7cabc0dadd873|5418f4d40a79d35e16752164f882f0f2ecd56c92788595db43159fcdfbc54602',#14,#16,#404,.T.);
#406=SURFACE_CURVE('',#144,(#330,#371),.PCURVE_S1.);
#407=EDGE_CURVE('OSCAD_TOPO/3|edge|e:026520920aa843f29dbb0560456a3866|097dee107c3a1a0d8b81c44dac43e153348fd958f183be5ed419ab05e92b7173',#14,#18,#406,.T.);
#408=SURFACE_CURVE('',#148,(#345,#360),.PCURVE_S1.);
#409=EDGE_CURVE('OSCAD_TOPO/3|edge|e:37a2165bfdd1fd0fbeaeeff61cdd248b|7df87f33ce9a1d0bc4ed7e1be85f0183a1ebb2a8396ae539deea865c5e9680f0',#16,#18,#408,.T.);
#410=SURFACE_CURVE('',#152,(#245,#320),.PCURVE_S1.);
#411=EDGE_CURVE('OSCAD_TOPO/3|edge|e:667833ec6f03d1894f7c6318add30cee|be89e765d6fbf5b9fb61df38f9aa6d96546f65dba2c8c73a5e3ff73ebdef2a49',#20,#22,#410,.T.);
#412=SURFACE_CURVE('',#156,(#219,#355),.PCURVE_S1.);
#413=EDGE_CURVE('OSCAD_TOPO/3|edge|e:91a3eaeaed78b29bb2abe6eb53757eba|cba20f2412033e356936f8f8c2d9b3baa0dd1ed82ca6d0da0170e6f700191d36',#24,#26,#412,.T.);
#414=ORIENTED_EDGE('',*,*,#373,.T.);
#415=ORIENTED_EDGE('',*,*,#375,.T.);
#416=ORIENTED_EDGE('',*,*,#403,.T.);
#417=ORIENTED_EDGE('',*,*,#377,.F.);
#418=ORIENTED_EDGE('',*,*,#379,.F.);
#419=EDGE_LOOP('OSCAD_TOPO/3|loop|l:02b7ad7d61ee7f7169050295828c9c84|0139d7faf049b76a202b09da7f59bb3665ddb1fd92bb8de482921fb505424ac6',(#414,#415,#416,#417,#418));
#420=ORIENTED_EDGE('',*,*,#399,.T.);
#421=ORIENTED_EDGE('',*,*,#401,.F.);
#422=ORIENTED_EDGE('',*,*,#397,.T.);
#423=ORIENTED_EDGE('',*,*,#395,.F.);
#424=EDGE_LOOP('OSCAD_TOPO/3|loop|l:ee6ccc599a1491b39dbe3e1d90437dd4|f9f3573339a1418ea332155741fe27904c7e009de4811131ce30e18f44aa74ee',(#420,#421,#422,#423));
#425=ORIENTED_EDGE('',*,*,#379,.T.);
#426=ORIENTED_EDGE('',*,*,#391,.T.);
#427=ORIENTED_EDGE('',*,*,#413,.T.);
#428=ORIENTED_EDGE('',*,*,#399,.F.);
#429=ORIENTED_EDGE('',*,*,#381,.F.);
#430=EDGE_LOOP('OSCAD_TOPO/3|loop|l:8ad982b0a51fafc1a4cbf6b7703e91e7|403e06bb60ab4d1cd9ba67d7bce47082d3c4e6107b6bf3dc5ff729968df8a11d',(#425,#426,#427,#428,#429));
#431=ORIENTED_EDGE('',*,*,#381,.T.);
#432=ORIENTED_EDGE('',*,*,#395,.T.);
#433=ORIENTED_EDGE('',*,*,#411,.F.);
#434=ORIENTED_EDGE('',*,*,#383,.F.);
#435=ORIENTED_EDGE('',*,*,#373,.F.);
#436=EDGE_LOOP('OSCAD_TOPO/3|loop|l:54fd12400612f7f7221bc291c9756429|2afdff223215028f548543800b678ab260b0211c9e0392e24efb3a2999449f05',(#431,#432,#433,#434,#435));
#437=ORIENTED_EDGE('',*,*,#383,.T.);
#438=ORIENTED_EDGE('',*,*,#385,.F.);
#439=ORIENTED_EDGE('',*,*,#387,.F.);
#440=ORIENTED_EDGE('',*,*,#375,.F.);
#441=EDGE_LOOP('OSCAD_TOPO/3|loop|l:13bbdf5d83cc8597c5220720fc7699bf|1a571103912ca39db47c00866943f0da122f66740219141abe5a8a441c2a1f93',(#437,#438,#439,#440));
#442=ORIENTED_EDGE('',*,*,#377,.T.);
#443=ORIENTED_EDGE('',*,*,#389,.T.);
#444=ORIENTED_EDGE('',*,*,#393,.T.);
#445=ORIENTED_EDGE('',*,*,#391,.F.);
#446=EDGE_LOOP('OSCAD_TOPO/3|loop|l:be74965a3da418cdb9002a74244ccc22|253fd22a598bf472d940acc26537546540aa4e78befb9fa42dab28050f8b48c2',(#442,#443,#444,#445));
#447=ORIENTED_EDGE('',*,*,#387,.T.);
#448=ORIENTED_EDGE('',*,*,#405,.T.);
#449=ORIENTED_EDGE('',*,*,#389,.F.);
#450=ORIENTED_EDGE('',*,*,#403,.F.);
#451=EDGE_LOOP('OSCAD_TOPO/3|loop|l:d60ca7243458b3b6462defa3f674456c|9bebaadcf90332a9a7b2dd119c219563387ad93ef38ad1f89039bb6a4083e87f',(#447,#448,#449,#450));
#452=ORIENTED_EDGE('',*,*,#411,.T.);
#453=ORIENTED_EDGE('',*,*,#397,.F.);
#454=ORIENTED_EDGE('',*,*,#407,.F.);
#455=ORIENTED_EDGE('',*,*,#385,.T.);
#456=EDGE_LOOP('OSCAD_TOPO/3|loop|l:1cc57f5120d872950b4017858d5e25cd|3c952318cbbd231f7113ebb2d6f2bae32f351de6ff69d5cece3315ce775dfd79',(#452,#453,#454,#455));
#457=ORIENTED_EDGE('',*,*,#393,.F.);
#458=ORIENTED_EDGE('',*,*,#409,.T.);
#459=ORIENTED_EDGE('',*,*,#401,.T.);
#460=ORIENTED_EDGE('',*,*,#413,.F.);
#461=EDGE_LOOP('OSCAD_TOPO/3|loop|l:31c069a8c2c2dfd4372cfd0830166b3d|0b90e91139a982f92c2bbdf94e68f0440eba966a75ad7f34cfbcf6bc1257a3fe',(#457,#458,#459,#460));
#462=ORIENTED_EDGE('',*,*,#409,.F.);
#463=ORIENTED_EDGE('',*,*,#405,.F.);
#464=ORIENTED_EDGE('',*,*,#407,.T.);
#465=EDGE_LOOP('OSCAD_TOPO/3|loop|l:77dd3be0f1cf36ab4cce3f314659dd90|45186c23187acfff4db02893e82adafda6dd0bdaca008413124410dd5f626b28',(#462,#463,#464));
#466=FACE_OUTER_BOUND('',#419,.T.);
#467=ADVANCED_FACE('OSCAD_TOPO/3|face|f:d725b496a57706f53aba1540432a22a5|dcd6859a3210dd7df5a5c3b9d5a7132eee4d347983d868c1159139b12bbde13f',(#466),#31,.T.);
#468=FACE_OUTER_BOUND('',#424,.T.);
#469=ADVANCED_FACE('OSCAD_TOPO/3|face|f:3848dc3a48395cbe3870421260347a43|ba3015fbbf34d847a59d90cfced48971c884c5ea725f97e31eee3c956e0cab4a',(#468),#36,.T.);
#470=FACE_OUTER_BOUND('',#430,.T.);
#471=ADVANCED_FACE('OSCAD_TOPO/3|face|f:bb5d7d4c9afcdad1e0a253b8af16fe05|fb3f0767d1e242a527eed16d462938883f5dbba57ac15d6d192b888034d326b4',(#470),#41,.T.);
#472=FACE_OUTER_BOUND('',#436,.T.);
#473=ADVANCED_FACE('OSCAD_TOPO/3|face|f:981ca4c86374793047cc6ad7a6e59f60|33cc3399fbd9a79fcacb41fef90d98b84b3ac93494caab1b89d6439ce0738f18',(#472),#46,.T.);
#474=FACE_OUTER_BOUND('',#441,.T.);
#475=ADVANCED_FACE('OSCAD_TOPO/3|face|f:2cc79647f8fce00ce6160f6a422d8e50|ed419b86fd7ac95349a88d9060ef9e7ce3869184ada45c9e5843ef25b4ac24cb',(#474),#51,.T.);
#476=FACE_OUTER_BOUND('',#446,.T.);
#477=ADVANCED_FACE('OSCAD_TOPO/3|face|f:ab8116e268b818aecf59f9383a2d5dd1|c7cb8ff813320a74b4dbbfd7aec2a3ac7911e6ff55bf2f4d96168d981481ab3d',(#476),#56,.T.);
#478=FACE_OUTER_BOUND('',#451,.T.);
#479=ADVANCED_FACE('OSCAD_TOPO/3|face|f:1829ae435fb7a5eed34926fc324c9421|61d00817e3216fc6472f1ad60f76831b37be0e1d591bcbf0c29b8a162bcef888',(#478),#63,.T.);
#480=FACE_OUTER_BOUND('',#456,.T.);
#481=ADVANCED_FACE('OSCAD_TOPO/3|face|f:b344fcc531cf6c91b76f883e38dde16b|b2196a4dd8a522ace7f8128d8a78a64b04080646b28963320a9f67e467701631',(#480),#70,.T.);
#482=FACE_OUTER_BOUND('',#461,.T.);
#483=ADVANCED_FACE('OSCAD_TOPO/3|face|f:859ccd4c57aeba6e14c2099787fea65d|c2961fd89f7808cb2de46acaa20fd383b3d4ffc07f9ddec094dd9efd9df09d1f',(#482),#77,.T.);
#484=FACE_OUTER_BOUND('',#465,.T.);
#485=ADVANCED_FACE('OSCAD_TOPO/3|face|f:a28543c8018e4ae20ff99261f3ae9dd3|216e0f1566b642ac1732cecd587575d723453f3806a5386fba7dcf9eead48cb2',(#484),#87,.T.);
#486=CLOSED_SHELL('OSCAD_TOPO/3|shell|s:015beb6b7f41ab811a58649935051ef4|4b0ba7ff99031aff5fa90db1ef6c424d745091f9fa03b4587c7fadf804a0ef7b',(#467,#469,#471,#473,#475,#477,#479,#481,#483,#485));
#487=MANIFOLD_SOLID_BREP('OSCAD_TOPO/3|body|b:f330037c4c3e0e81a49150664bec6f8c|979d09fda5b673b0ccab6f40631a99c337529c450293a0de661cc7cb980422e5',#486);
#488=(LENGTH_UNIT()NAMED_UNIT(*)SI_UNIT(.MILLI.,.METRE.));
#489=UNCERTAINTY_MEASURE_WITH_UNIT(LENGTH_MEASURE(9.99999999999999955E-8),#488,'distance_accuracy_value','');
#490=(GEOMETRIC_REPRESENTATION_CONTEXT(3)GLOBAL_UNCERTAINTY_ASSIGNED_CONTEXT((#489))GLOBAL_UNIT_ASSIGNED_CONTEXT((#488))REPRESENTATION_CONTEXT('','3D'));
#491=ADVANCED_BREP_SHAPE_REPRESENTATION('',(#487),#490);
#492=APPLICATION_CONTEXT('managed model based 3d engineering');
#493=PRODUCT_CONTEXT('',#492,'mechanical');
#494=PRODUCT('model','model','',(#493));
#495=PRODUCT_DEFINITION_FORMATION('1','',#494);
#496=PRODUCT_DEFINITION_CONTEXT('part definition',#492,'design');
#497=PRODUCT_DEFINITION('design','',#495,#496);
#498=PRODUCT_DEFINITION_SHAPE('','',#497);
#499=SHAPE_DEFINITION_REPRESENTATION(#498,#491);
ENDSEC;
END-ISO-10303-21;
