ISO-10303-21;
HEADER;
FILE_DESCRIPTION(('OpenSCAD Viewer retained AP242 B-rep'),'2;1');
FILE_NAME('model.step','',(''),(''),'OpenSCAD Viewer','OpenSCAD Viewer','');
FILE_SCHEMA(('AP242_MANAGED_MODEL_BASED_3D_ENGINEERING_MIM_LF'));
ENDSEC;
DATA;
#1=CARTESIAN_POINT('',(1.16340918753603546E1,-7.86348413932300971E0,1.73506317436056712E1));
#2=VERTEX_POINT('OSCAD_TOPO/3|vertex|v:df6d6ed399f3cb1d806d75d75694d604|278304e73e64d1dc508462d8646167ea56017df93ef3fa18c0476a1e8666a63c',#1);
#3=CARTESIAN_POINT('',(8.74116841964065827E0,-4.04865374474733919E-1,1.73506317436056712E1));
#4=VERTEX_POINT('OSCAD_TOPO/3|vertex|v:e6e0b773bbd25dfa5d0cbbc7f536f188|ea029ebbeb489332a78ad2ebeafc211aad495e0a01201907aa8c104a772e7826',#3);
#5=CARTESIAN_POINT('',(1.61919259625296128E1,2.48500900284134163E0,2.29360894795853660E1));
#6=VERTEX_POINT('OSCAD_TOPO/3|vertex|v:3f1fd8d900d494959253faa1807f4d0e|384cb42881488a1bc2039df8ff012af10de2d8fd81e76a49d7b6f85e5a3d301a',#5);
#7=CARTESIAN_POINT('',(1.64733748857231355E1,2.32602650944793776E0,2.30793063446104867E1));
#8=VERTEX_POINT('OSCAD_TOPO/3|vertex|v:5edeb9a5e89f43ad79633331483acca0|941fc93f969d7c20f58924d788effd729d5743c30d97315b6c4d65b80b9031fb',#7);
#9=CARTESIAN_POINT('',(1.92758944834515908E1,-4.89951041899883055E0,2.30793063446104867E1));
#10=VERTEX_POINT('OSCAD_TOPO/3|vertex|v:85f45d0a69a17333089823812c51c26e|ea7ac9071d461c729b336be70a8ee9abe3f64108f54ebfe735f02fd03879371f',#9);
#11=CARTESIAN_POINT('',(8.42949188460303844E0,-9.10643042358044674E0,2.22685198506785476E1));
#12=VERTEX_POINT('OSCAD_TOPO/3|vertex|v:fbd2426e205d31eaf0991d50b68bbb58|858f6f2aaba8e821720e2f1b8dd5bc364e0f4cf7e3a94aa6858304f936d46d16',#11);
#13=CARTESIAN_POINT('',(1.58802494274919930E1,-6.21655604626437164E0,2.78539775866582424E1));
#14=VERTEX_POINT('OSCAD_TOPO/3|vertex|v:d92736afafead6f62f2a478f3d363906|5c5d164bc49858563a31aac3a642fa30c2ac802a5704e5beb33895ebd8a6105e',#13);
#15=CARTESIAN_POINT('',(1.30777298297635376E1,1.00898088218239557E0,2.78539775866582424E1));
#16=VERTEX_POINT('OSCAD_TOPO/3|vertex|v:397829150942a57a4205801dd2264524|3fe014630c281c4398db99e4360fea1ede16861f01496b86c5098ec727c5f0da',#15);
#17=CARTESIAN_POINT('',(5.62697228687458129E0,-1.88089349513368020E0,2.22685198506785476E1));
#18=VERTEX_POINT('OSCAD_TOPO/3|vertex|v:2394336a074283be628fad0ff24dd923|24e5f5d336426f1446b946c21c0040704a5c33bdaa5112fa5b24ba33847768c9',#17);
#19=CARTESIAN_POINT('',(1.62048194923091629E1,-6.09066727474554170E0,2.77922824472219929E1));
#20=VERTEX_POINT('OSCAD_TOPO/3|vertex|v:c9603ca9d06780227501e8ea559d6ee2|15785a415d8bcee71460ed855e1f7b698a4aea4b6c12e0ef667adb29b4d1f46a',#19);
#21=CARTESIAN_POINT('',(5.67009342849822939E0,-1.59602223022144463E0,2.20636078462171774E1));
#22=VERTEX_POINT('OSCAD_TOPO/3|vertex|v:c941a13c60e6425796c6e0c633c0bec3|c4a514447c20ea1747a0c61d0560cb37d94a0fbeac5eafd7be83de0172baf0ab',#21);
#23=CARTESIAN_POINT('',(1.31208509713871848E1,1.29385214709463070E0,2.76490655821968758E1));
#24=VERTEX_POINT('OSCAD_TOPO/3|vertex|v:0bbd61c851def350be7988047bf130c1|a5295ee9239b5240a4d6b3d62d5b7b39b804d779548c36b8e4f121083d4d3072',#23);
#25=CARTESIAN_POINT('',(1.34022998945807057E1,1.13486965370122661E0,2.77922824472219929E1));
#26=VERTEX_POINT('OSCAD_TOPO/3|vertex|v:48a100d8779c1e03593947ae91ba0de1|87f82e90d143dbf390f1b589ed73ec5638611f5a89f881974df00d02341d9591',#25);
#27=CARTESIAN_POINT('',(1.16340918753603546E1,-7.86348413932300971E0,1.73506317436056712E1));
#28=CARTESIAN_POINT('',(1.92758944834515908E1,-4.89951041899883055E0,2.30793063446104867E1));
#29=CARTESIAN_POINT('',(8.74116841964065827E0,-4.04865374474734807E-1,1.73506317436056712E1));
#30=CARTESIAN_POINT('',(1.63829710277318945E1,2.55910834584944524E0,2.30793063446104867E1));
#31=B_SPLINE_SURFACE_WITH_KNOTS('',1,1,((#27,#28),(#29,#30)),.UNSPECIFIED.,.F.,.F.,.F.,(2,2),(2,2),(0.00000000000000000E0,1.00000000000000000E0),(0.00000000000000000E0,1.00000000000000000E0),.UNSPECIFIED.);
#32=CARTESIAN_POINT('',(5.53656842888334122E0,-1.64781165873217228E0,2.22685198506785476E1));
#33=CARTESIAN_POINT('',(1.31783710369745766E1,1.31616206159200777E0,2.79971944516833631E1));
#34=CARTESIAN_POINT('',(8.42949188460303844E0,-9.10643042358044674E0,2.22685198506785476E1));
#35=CARTESIAN_POINT('',(1.60712944926942747E1,-6.14245670325626758E0,2.79971944516833631E1));
#36=B_SPLINE_SURFACE_WITH_KNOTS('',1,1,((#32,#33),(#34,#35)),.UNSPECIFIED.,.F.,.F.,.F.,(2,2),(2,2),(0.00000000000000000E0,1.00000000000000000E0),(0.00000000000000000E0,1.00000000000000000E0),.UNSPECIFIED.);
#37=CARTESIAN_POINT('',(1.16340918753603546E1,-7.86348413932300971E0,1.73506317436056712E1));
#38=CARTESIAN_POINT('',(8.42949188460303844E0,-9.10643042358044674E0,2.22685198506785476E1));
#39=CARTESIAN_POINT('',(1.92758944834515908E1,-4.89951041899883055E0,2.30793063446104867E1));
#40=CARTESIAN_POINT('',(1.60712944926942747E1,-6.14245670325626758E0,2.79971944516833631E1));
#41=B_SPLINE_SURFACE_WITH_KNOTS('',1,1,((#37,#38),(#39,#40)),.UNSPECIFIED.,.F.,.F.,.F.,(2,2),(2,2),(0.00000000000000000E0,1.00000000000000000E0),(0.00000000000000000E0,1.00000000000000000E0),.UNSPECIFIED.);
#42=CARTESIAN_POINT('',(8.74116841964065827E0,-4.04865374474734807E-1,1.73506317436056712E1));
#43=CARTESIAN_POINT('',(5.53656842888334122E0,-1.64781165873217228E0,2.22685198506785476E1));
#44=CARTESIAN_POINT('',(1.16340918753603546E1,-7.86348413932300971E0,1.73506317436056712E1));
#45=CARTESIAN_POINT('',(8.42949188460303844E0,-9.10643042358044674E0,2.22685198506785476E1));
#46=B_SPLINE_SURFACE_WITH_KNOTS('',1,1,((#42,#43),(#44,#45)),.UNSPECIFIED.,.F.,.F.,.F.,(2,2),(2,2),(0.00000000000000000E0,1.00000000000000000E0),(0.00000000000000000E0,1.00000000000000000E0),.UNSPECIFIED.);
#47=CARTESIAN_POINT('',(1.63829710277318945E1,2.55910834584944613E0,2.30793063446104867E1));
#48=CARTESIAN_POINT('',(1.31783710369745766E1,1.31616206159200866E0,2.79971944516833631E1));
#49=CARTESIAN_POINT('',(8.74116841964065827E0,-4.04865374474733919E-1,1.73506317436056712E1));
#50=CARTESIAN_POINT('',(5.53656842888334122E0,-1.64781165873217139E0,2.22685198506785476E1));
#51=B_SPLINE_SURFACE_WITH_KNOTS('',1,1,((#47,#48),(#49,#50)),.UNSPECIFIED.,.F.,.F.,.F.,(2,2),(2,2),(0.00000000000000000E0,1.00000000000000000E0),(0.00000000000000000E0,1.00000000000000000E0),.UNSPECIFIED.);
#52=CARTESIAN_POINT('',(1.92758944834515908E1,-4.89951041899883055E0,2.30793063446104867E1));
#53=CARTESIAN_POINT('',(1.60712944926942747E1,-6.14245670325626758E0,2.79971944516833631E1));
#54=CARTESIAN_POINT('',(1.63829710277318945E1,2.55910834584944524E0,2.30793063446104867E1));
#55=CARTESIAN_POINT('',(1.31783710369745766E1,1.31616206159200777E0,2.79971944516833631E1));
#56=B_SPLINE_SURFACE_WITH_KNOTS('',1,1,((#52,#53),(#54,#55)),.UNSPECIFIED.,.F.,.F.,.F.,(2,2),(2,2),(0.00000000000000000E0,1.00000000000000000E0),(0.00000000000000000E0,1.00000000000000000E0),.UNSPECIFIED.);
#57=CARTESIAN_POINT('',(1.64733748857231355E1,2.32602650944793776E0,2.30793063446104867E1));
#58=CARTESIAN_POINT('',(1.34022998945807057E1,1.13486965370122661E0,2.77922824472219929E1));
#59=CARTESIAN_POINT('',(1.63829710277318945E1,2.55910834584944613E0,2.30793063446104867E1));
#60=CARTESIAN_POINT('',(1.33118960365894647E1,1.36795149010273520E0,2.77922824472219929E1));
#61=CARTESIAN_POINT('',(1.61919259625296128E1,2.48500900284134163E0,2.29360894795853660E1));
#62=CARTESIAN_POINT('',(1.31208509713871848E1,1.29385214709463070E0,2.76490655821968758E1));
#63=(BOUNDED_SURFACE()B_SPLINE_SURFACE(2,1,((#57,#58),(#59,#60),(#61,#62)),.UNSPECIFIED.,.F.,.F.,.F.)B_SPLINE_SURFACE_WITH_KNOTS((3,3),(2,2),(0.00000000000000000E0,1.00000000000000000E0),(0.00000000000000000E0,1.00000000000000000E0),.UNSPECIFIED.)GEOMETRIC_REPRESENTATION_ITEM()RATIONAL_B_SPLINE_SURFACE(((1.00000000000000000E0,1.00000000000000000E0),(7.07106781186547573E-1,7.07106781186547573E-1),(1.00000000000000000E0,1.00000000000000000E0)))REPRESENTATION_ITEM('')SURFACE());
#64=CARTESIAN_POINT('',(5.67009342849822939E0,-1.59602223022144463E0,2.20636078462171774E1));
#65=CARTESIAN_POINT('',(1.31208509713871848E1,1.29385214709463070E0,2.76490655821968758E1));
#66=CARTESIAN_POINT('',(5.53656842888334122E0,-1.64781165873217139E0,2.22685198506785476E1));
#67=CARTESIAN_POINT('',(1.29873259717722966E1,1.24206271858390416E0,2.78539775866582424E1));
#68=CARTESIAN_POINT('',(5.62697228687458129E0,-1.88089349513368020E0,2.22685198506785476E1));
#69=CARTESIAN_POINT('',(1.30777298297635376E1,1.00898088218239557E0,2.78539775866582424E1));
#70=(BOUNDED_SURFACE()B_SPLINE_SURFACE(2,1,((#64,#65),(#66,#67),(#68,#69)),.UNSPECIFIED.,.F.,.F.,.F.)B_SPLINE_SURFACE_WITH_KNOTS((3,3),(2,2),(0.00000000000000000E0,1.00000000000000000E0),(0.00000000000000000E0,1.00000000000000000E0),.UNSPECIFIED.)GEOMETRIC_REPRESENTATION_ITEM()RATIONAL_B_SPLINE_SURFACE(((2.00000000000000000E0,2.00000000000000000E0),(1.00000000000000000E0,1.00000000000000000E0),(1.00000000000000000E0,1.00000000000000000E0)))REPRESENTATION_ITEM('')SURFACE());
#71=CARTESIAN_POINT('',(1.58802494274919930E1,-6.21655604626437164E0,2.78539775866582424E1));
#72=CARTESIAN_POINT('',(1.30777298297635376E1,1.00898088218239557E0,2.78539775866582424E1));
#73=CARTESIAN_POINT('',(1.60712944926942747E1,-6.14245670325626758E0,2.79971944516833631E1));
#74=CARTESIAN_POINT('',(1.32687748949658175E1,1.08308022519050007E0,2.79971944516833631E1));
#75=CARTESIAN_POINT('',(1.62048194923091629E1,-6.09066727474554170E0,2.77922824472219929E1));
#76=CARTESIAN_POINT('',(1.34022998945807057E1,1.13486965370122661E0,2.77922824472219929E1));
#77=(BOUNDED_SURFACE()B_SPLINE_SURFACE(2,1,((#71,#72),(#73,#74),(#75,#76)),.UNSPECIFIED.,.F.,.F.,.F.)B_SPLINE_SURFACE_WITH_KNOTS((3,3),(2,2),(0.00000000000000000E0,1.00000000000000000E0),(0.00000000000000000E0,1.00000000000000000E0),.UNSPECIFIED.)GEOMETRIC_REPRESENTATION_ITEM()RATIONAL_B_SPLINE_SURFACE(((1.00000000000000000E0,1.00000000000000000E0),(1.00000000000000000E0,1.00000000000000000E0),(2.00000000000000000E0,2.00000000000000000E0)))REPRESENTATION_ITEM('')SURFACE());
#78=CARTESIAN_POINT('',(1.31208509713871848E1,1.29385214709463070E0,2.76490655821968758E1));
#79=CARTESIAN_POINT('',(1.32163735039883257E1,1.33090181859868295E0,2.77206740147094344E1));
#80=CARTESIAN_POINT('',(1.33228573007240811E1,1.28282090646977309E0,2.76762394907264984E1));
#81=CARTESIAN_POINT('',(1.29873259717722966E1,1.24206271858390416E0,2.78539775866582424E1));
#82=CARTESIAN_POINT('',(1.31783710369745766E1,1.31616206159200866E0,2.79971944516833631E1));
#83=CARTESIAN_POINT('',(1.33570979655850852E1,1.25141057190198079E0,2.77922824472219929E1));
#84=CARTESIAN_POINT('',(1.30777298297635376E1,1.00898088218239557E0,2.78539775866582424E1));
#85=CARTESIAN_POINT('',(1.32687748949658175E1,1.08308022519050007E0,2.79971944516833631E1));
#86=CARTESIAN_POINT('',(1.34022998945807057E1,1.13486965370122661E0,2.77922824472219929E1));
#87=(BOUNDED_SURFACE()B_SPLINE_SURFACE(2,2,((#78,#79,#80),(#81,#82,#83),(#84,#85,#86)),.UNSPECIFIED.,.F.,.F.,.F.)B_SPLINE_SURFACE_WITH_KNOTS((3,3),(3,3),(0.00000000000000000E0,1.00000000000000000E0),(0.00000000000000000E0,1.00000000000000000E0),.UNSPECIFIED.)GEOMETRIC_REPRESENTATION_ITEM()RATIONAL_B_SPLINE_SURFACE(((2.00000000000000000E0,2.00000000000000000E0,3.00000000000000000E0),(1.00000000000000000E0,1.00000000000000000E0,2.00000000000000000E0),(1.00000000000000000E0,1.00000000000000000E0,2.00000000000000000E0)))REPRESENTATION_ITEM('')SURFACE());
#88=CARTESIAN_POINT('',(1.16340918753603546E1,-7.86348413932300971E0,1.73506317436056712E1));
#89=CARTESIAN_POINT('',(8.74116841964065827E0,-4.04865374474733919E-1,1.73506317436056712E1));
#90=B_SPLINE_CURVE_WITH_KNOTS('',1,(#88,#89),.UNSPECIFIED.,.F.,.F.,(2,2),(0.00000000000000000E0,1.00000000000000000E0),.UNSPECIFIED.);
#91=CARTESIAN_POINT('',(8.74116841964065827E0,-4.04865374474733919E-1,1.73506317436056712E1));
#92=CARTESIAN_POINT('',(1.61919259625296128E1,2.48500900284134163E0,2.29360894795853660E1));
#93=B_SPLINE_CURVE_WITH_KNOTS('',1,(#91,#92),.UNSPECIFIED.,.F.,.F.,(2,2),(0.00000000000000000E0,1.00000000000000000E0),.UNSPECIFIED.);
#94=CARTESIAN_POINT('',(1.61919259625296128E1,2.48500900284134163E0,2.29360894795853660E1));
#95=CARTESIAN_POINT('',(1.63829710277318945E1,2.55910834584944613E0,2.30793063446104867E1));
#96=CARTESIAN_POINT('',(1.64733748857231355E1,2.32602650944793776E0,2.30793063446104867E1));
#97=(BOUNDED_CURVE()B_SPLINE_CURVE(2,(#94,#95,#96),.UNSPECIFIED.,.F.,.F.)B_SPLINE_CURVE_WITH_KNOTS((3,3),(0.00000000000000000E0,1.00000000000000000E0),.UNSPECIFIED.)CURVE()GEOMETRIC_REPRESENTATION_ITEM()RATIONAL_B_SPLINE_CURVE((1.00000000000000000E0,7.07106781186547573E-1,1.00000000000000000E0))REPRESENTATION_ITEM(''));
#98=CARTESIAN_POINT('',(1.92758944834515908E1,-4.89951041899883055E0,2.30793063446104867E1));
#99=CARTESIAN_POINT('',(1.64733748857231355E1,2.32602650944793776E0,2.30793063446104867E1));
#100=B_SPLINE_CURVE_WITH_KNOTS('',1,(#98,#99),.UNSPECIFIED.,.F.,.F.,(2,2),(0.00000000000000000E0,1.00000000000000000E0),.UNSPECIFIED.);
#101=CARTESIAN_POINT('',(1.16340918753603546E1,-7.86348413932300971E0,1.73506317436056712E1));
#102=CARTESIAN_POINT('',(1.92758944834515908E1,-4.89951041899883055E0,2.30793063446104867E1));
#103=B_SPLINE_CURVE_WITH_KNOTS('',1,(#101,#102),.UNSPECIFIED.,.F.,.F.,(2,2),(0.00000000000000000E0,1.00000000000000000E0),.UNSPECIFIED.);
#104=CARTESIAN_POINT('',(8.42949188460303844E0,-9.10643042358044674E0,2.22685198506785476E1));
#105=CARTESIAN_POINT('',(1.58802494274919930E1,-6.21655604626437164E0,2.78539775866582424E1));
#106=B_SPLINE_CURVE_WITH_KNOTS('',1,(#104,#105),.UNSPECIFIED.,.F.,.F.,(2,2),(0.00000000000000000E0,1.00000000000000000E0),.UNSPECIFIED.);
#107=CARTESIAN_POINT('',(1.30777298297635376E1,1.00898088218239557E0,2.78539775866582424E1));
#108=CARTESIAN_POINT('',(1.58802494274919930E1,-6.21655604626437164E0,2.78539775866582424E1));
#109=B_SPLINE_CURVE_WITH_KNOTS('',1,(#107,#108),.UNSPECIFIED.,.F.,.F.,(2,2),(0.00000000000000000E0,1.00000000000000000E0),.UNSPECIFIED.);
#110=CARTESIAN_POINT('',(1.30777298297635376E1,1.00898088218239557E0,2.78539775866582424E1));
#111=CARTESIAN_POINT('',(5.62697228687458129E0,-1.88089349513368020E0,2.22685198506785476E1));
#112=B_SPLINE_CURVE_WITH_KNOTS('',1,(#110,#111),.UNSPECIFIED.,.F.,.F.,(2,2),(0.00000000000000000E0,1.00000000000000000E0),.UNSPECIFIED.);
#113=CARTESIAN_POINT('',(8.42949188460303844E0,-9.10643042358044674E0,2.22685198506785476E1));
#114=CARTESIAN_POINT('',(5.62697228687458129E0,-1.88089349513368020E0,2.22685198506785476E1));
#115=B_SPLINE_CURVE_WITH_KNOTS('',1,(#113,#114),.UNSPECIFIED.,.F.,.F.,(2,2),(0.00000000000000000E0,1.00000000000000000E0),.UNSPECIFIED.);
#116=CARTESIAN_POINT('',(1.92758944834515908E1,-4.89951041899883055E0,2.30793063446104867E1));
#117=CARTESIAN_POINT('',(1.62048194923091629E1,-6.09066727474554170E0,2.77922824472219929E1));
#118=B_SPLINE_CURVE_WITH_KNOTS('',1,(#116,#117),.UNSPECIFIED.,.F.,.F.,(2,2),(0.00000000000000000E0,1.00000000000000000E0),.UNSPECIFIED.);
#119=CARTESIAN_POINT('',(1.62048194923091629E1,-6.09066727474554170E0,2.77922824472219929E1));
#120=CARTESIAN_POINT('',(1.60712944926942747E1,-6.14245670325626758E0,2.79971944516833631E1));
#121=CARTESIAN_POINT('',(1.58802494274919930E1,-6.21655604626437164E0,2.78539775866582424E1));
#122=(BOUNDED_CURVE()B_SPLINE_CURVE(2,(#119,#120,#121),.UNSPECIFIED.,.F.,.F.)B_SPLINE_CURVE_WITH_KNOTS((3,3),(0.00000000000000000E0,1.00000000000000000E0),.UNSPECIFIED.)CURVE()GEOMETRIC_REPRESENTATION_ITEM()RATIONAL_B_SPLINE_CURVE((2.00000000000000000E0,1.00000000000000000E0,1.00000000000000000E0))REPRESENTATION_ITEM(''));
#123=CARTESIAN_POINT('',(1.16340918753603546E1,-7.86348413932300971E0,1.73506317436056712E1));
#124=CARTESIAN_POINT('',(8.42949188460303844E0,-9.10643042358044674E0,2.22685198506785476E1));
#125=B_SPLINE_CURVE_WITH_KNOTS('',1,(#123,#124),.UNSPECIFIED.,.F.,.F.,(2,2),(0.00000000000000000E0,1.00000000000000000E0),.UNSPECIFIED.);
#126=CARTESIAN_POINT('',(5.67009342849822939E0,-1.59602223022144463E0,2.20636078462171774E1));
#127=CARTESIAN_POINT('',(5.53656842888334122E0,-1.64781165873217139E0,2.22685198506785476E1));
#128=CARTESIAN_POINT('',(5.62697228687458129E0,-1.88089349513368020E0,2.22685198506785476E1));
#129=(BOUNDED_CURVE()B_SPLINE_CURVE(2,(#126,#127,#128),.UNSPECIFIED.,.F.,.F.)B_SPLINE_CURVE_WITH_KNOTS((3,3),(0.00000000000000000E0,1.00000000000000000E0),.UNSPECIFIED.)CURVE()GEOMETRIC_REPRESENTATION_ITEM()RATIONAL_B_SPLINE_CURVE((2.00000000000000000E0,1.00000000000000000E0,1.00000000000000000E0))REPRESENTATION_ITEM(''));
#130=CARTESIAN_POINT('',(8.74116841964065827E0,-4.04865374474733919E-1,1.73506317436056712E1));
#131=CARTESIAN_POINT('',(5.67009342849822939E0,-1.59602223022144463E0,2.20636078462171774E1));
#132=B_SPLINE_CURVE_WITH_KNOTS('',1,(#130,#131),.UNSPECIFIED.,.F.,.F.,(2,2),(0.00000000000000000E0,1.00000000000000000E0),.UNSPECIFIED.);
#133=CARTESIAN_POINT('',(1.31208509713871848E1,1.29385214709463070E0,2.76490655821968758E1));
#134=CARTESIAN_POINT('',(5.67009342849822939E0,-1.59602223022144463E0,2.20636078462171774E1));
#135=B_SPLINE_CURVE_WITH_KNOTS('',1,(#133,#134),.UNSPECIFIED.,.F.,.F.,(2,2),(0.00000000000000000E0,1.00000000000000000E0),.UNSPECIFIED.);
#136=CARTESIAN_POINT('',(1.61919259625296128E1,2.48500900284134163E0,2.29360894795853660E1));
#137=CARTESIAN_POINT('',(1.31208509713871848E1,1.29385214709463070E0,2.76490655821968758E1));
#138=B_SPLINE_CURVE_WITH_KNOTS('',1,(#136,#137),.UNSPECIFIED.,.F.,.F.,(2,2),(0.00000000000000000E0,1.00000000000000000E0),.UNSPECIFIED.);
#139=CARTESIAN_POINT('',(1.64733748857231355E1,2.32602650944793776E0,2.30793063446104867E1));
#140=CARTESIAN_POINT('',(1.34022998945807057E1,1.13486965370122661E0,2.77922824472219929E1));
#141=B_SPLINE_CURVE_WITH_KNOTS('',1,(#139,#140),.UNSPECIFIED.,.F.,.F.,(2,2),(0.00000000000000000E0,1.00000000000000000E0),.UNSPECIFIED.);
#142=CARTESIAN_POINT('',(1.34022998945807057E1,1.13486965370122661E0,2.77922824472219929E1));
#143=CARTESIAN_POINT('',(1.62048194923091629E1,-6.09066727474554170E0,2.77922824472219929E1));
#144=B_SPLINE_CURVE_WITH_KNOTS('',1,(#142,#143),.UNSPECIFIED.,.F.,.F.,(2,2),(0.00000000000000000E0,1.00000000000000000E0),.UNSPECIFIED.);
#145=CARTESIAN_POINT('',(1.31208509713871848E1,1.29385214709463070E0,2.76490655821968758E1));
#146=CARTESIAN_POINT('',(1.33118960365894647E1,1.36795149010273520E0,2.77922824472219929E1));
#147=CARTESIAN_POINT('',(1.34022998945807057E1,1.13486965370122661E0,2.77922824472219929E1));
#148=(BOUNDED_CURVE()B_SPLINE_CURVE(2,(#145,#146,#147),.UNSPECIFIED.,.F.,.F.)B_SPLINE_CURVE_WITH_KNOTS((3,3),(0.00000000000000000E0,1.00000000000000000E0),.UNSPECIFIED.)CURVE()GEOMETRIC_REPRESENTATION_ITEM()RATIONAL_B_SPLINE_CURVE((1.00000000000000000E0,7.07106781186547573E-1,1.00000000000000000E0))REPRESENTATION_ITEM(''));
#149=CARTESIAN_POINT('',(1.31208509713871848E1,1.29385214709463070E0,2.76490655821968758E1));
#150=CARTESIAN_POINT('',(1.29873259717722966E1,1.24206271858390416E0,2.78539775866582424E1));
#151=CARTESIAN_POINT('',(1.30777298297635376E1,1.00898088218239557E0,2.78539775866582424E1));
#152=(BOUNDED_CURVE()B_SPLINE_CURVE(2,(#149,#150,#151),.UNSPECIFIED.,.F.,.F.)B_SPLINE_CURVE_WITH_KNOTS((3,3),(0.00000000000000000E0,1.00000000000000000E0),.UNSPECIFIED.)CURVE()GEOMETRIC_REPRESENTATION_ITEM()RATIONAL_B_SPLINE_CURVE((2.00000000000000000E0,1.00000000000000000E0,1.00000000000000000E0))REPRESENTATION_ITEM(''));
#153=CARTESIAN_POINT('',(1.34022998945807057E1,1.13486965370122661E0,2.77922824472219929E1));
#154=CARTESIAN_POINT('',(1.32687748949658175E1,1.08308022519050007E0,2.79971944516833631E1));
#155=CARTESIAN_POINT('',(1.30777298297635376E1,1.00898088218239557E0,2.78539775866582424E1));
#156=(BOUNDED_CURVE()B_SPLINE_CURVE(2,(#153,#154,#155),.UNSPECIFIED.,.F.,.F.)B_SPLINE_CURVE_WITH_KNOTS((3,3),(0.00000000000000000E0,1.00000000000000000E0),.UNSPECIFIED.)CURVE()GEOMETRIC_REPRESENTATION_ITEM()RATIONAL_B_SPLINE_CURVE((2.00000000000000000E0,1.00000000000000000E0,1.00000000000000000E0))REPRESENTATION_ITEM(''));
#157=(GEOMETRIC_REPRESENTATION_CONTEXT(2)REPRESENTATION_CONTEXT('','2D'));
#158=CARTESIAN_POINT('',(0.00000000000000000E0,0.00000000000000000E0));
#159=CARTESIAN_POINT('',(1.00000000000000000E0,0.00000000000000000E0));
#160=B_SPLINE_CURVE_WITH_KNOTS('',1,(#158,#159),.UNSPECIFIED.,.F.,.F.,(2,2),(0.00000000000000000E0,1.00000000000000000E0),.UNSPECIFIED.);
#161=DEFINITIONAL_REPRESENTATION('',(#160),#157);
#162=PCURVE('',#31,#161);
#163=CARTESIAN_POINT('',(1.00000000000000000E0,0.00000000000000000E0));
#164=CARTESIAN_POINT('',(1.00000000000000000E0,9.74999999999999978E-1));
#165=B_SPLINE_CURVE_WITH_KNOTS('',1,(#163,#164),.UNSPECIFIED.,.F.,.F.,(2,2),(0.00000000000000000E0,1.00000000000000000E0),.UNSPECIFIED.);
#166=DEFINITIONAL_REPRESENTATION('',(#165),#157);
#167=PCURVE('',#31,#166);
#168=CARTESIAN_POINT('',(1.00000000000000000E0,9.74999999999999978E-1));
#169=CARTESIAN_POINT('',(1.00000000000000000E0,1.00000000000000000E0));
#170=CARTESIAN_POINT('',(9.68750000000000111E-1,1.00000000000000000E0));
#171=(BOUNDED_CURVE()B_SPLINE_CURVE(2,(#168,#169,#170),.UNSPECIFIED.,.F.,.F.)B_SPLINE_CURVE_WITH_KNOTS((3,3),(0.00000000000000000E0,1.00000000000000000E0),.UNSPECIFIED.)CURVE()GEOMETRIC_REPRESENTATION_ITEM()RATIONAL_B_SPLINE_CURVE((1.00000000000000000E0,7.07106781186547573E-1,1.00000000000000000E0))REPRESENTATION_ITEM(''));
#172=DEFINITIONAL_REPRESENTATION('',(#171),#157);
#173=PCURVE('',#31,#172);
#174=CARTESIAN_POINT('',(9.68750000000000111E-1,1.00000000000000000E0));
#175=CARTESIAN_POINT('',(0.00000000000000000E0,1.00000000000000000E0));
#176=B_SPLINE_CURVE_WITH_KNOTS('',1,(#174,#175),.UNSPECIFIED.,.F.,.F.,(2,2),(0.00000000000000000E0,1.00000000000000000E0),.UNSPECIFIED.);
#177=DEFINITIONAL_REPRESENTATION('',(#176),#157);
#178=PCURVE('',#31,#177);
#179=CARTESIAN_POINT('',(0.00000000000000000E0,1.00000000000000000E0));
#180=CARTESIAN_POINT('',(0.00000000000000000E0,0.00000000000000000E0));
#181=B_SPLINE_CURVE_WITH_KNOTS('',1,(#179,#180),.UNSPECIFIED.,.F.,.F.,(2,2),(0.00000000000000000E0,1.00000000000000000E0),.UNSPECIFIED.);
#182=DEFINITIONAL_REPRESENTATION('',(#181),#157);
#183=PCURVE('',#31,#182);
#184=CARTESIAN_POINT('',(1.00000000000000000E0,0.00000000000000000E0));
#185=CARTESIAN_POINT('',(1.00000000000000000E0,9.74999999999999978E-1));
#186=B_SPLINE_CURVE_WITH_KNOTS('',1,(#184,#185),.UNSPECIFIED.,.F.,.F.,(2,2),(0.00000000000000000E0,1.00000000000000000E0),.UNSPECIFIED.);
#187=DEFINITIONAL_REPRESENTATION('',(#186),#157);
#188=PCURVE('',#36,#187);
#189=CARTESIAN_POINT('',(1.00000000000000000E0,9.74999999999999978E-1));
#190=CARTESIAN_POINT('',(3.12499999999998890E-2,9.74999999999999978E-1));
#191=B_SPLINE_CURVE_WITH_KNOTS('',1,(#189,#190),.UNSPECIFIED.,.F.,.F.,(2,2),(0.00000000000000000E0,1.00000000000000000E0),.UNSPECIFIED.);
#192=DEFINITIONAL_REPRESENTATION('',(#191),#157);
#193=PCURVE('',#36,#192);
#194=CARTESIAN_POINT('',(3.12499999999998890E-2,9.74999999999999978E-1));
#195=CARTESIAN_POINT('',(3.12499999999998890E-2,0.00000000000000000E0));
#196=B_SPLINE_CURVE_WITH_KNOTS('',1,(#194,#195),.UNSPECIFIED.,.F.,.F.,(2,2),(0.00000000000000000E0,1.00000000000000000E0),.UNSPECIFIED.);
#197=DEFINITIONAL_REPRESENTATION('',(#196),#157);
#198=PCURVE('',#36,#197);
#199=CARTESIAN_POINT('',(3.12499999999998890E-2,0.00000000000000000E0));
#200=CARTESIAN_POINT('',(1.00000000000000000E0,0.00000000000000000E0));
#201=B_SPLINE_CURVE_WITH_KNOTS('',1,(#199,#200),.UNSPECIFIED.,.F.,.F.,(2,2),(0.00000000000000000E0,1.00000000000000000E0),.UNSPECIFIED.);
#202=DEFINITIONAL_REPRESENTATION('',(#201),#157);
#203=PCURVE('',#36,#202);
#204=CARTESIAN_POINT('',(0.00000000000000000E0,0.00000000000000000E0));
#205=CARTESIAN_POINT('',(1.00000000000000000E0,0.00000000000000000E0));
#206=B_SPLINE_CURVE_WITH_KNOTS('',1,(#204,#205),.UNSPECIFIED.,.F.,.F.,(2,2),(0.00000000000000000E0,1.00000000000000000E0),.UNSPECIFIED.);
#207=DEFINITIONAL_REPRESENTATION('',(#206),#157);
#208=PCURVE('',#41,#207);
#209=CARTESIAN_POINT('',(1.00000000000000000E0,0.00000000000000000E0));
#210=CARTESIAN_POINT('',(1.00000000000000000E0,9.58333333333333370E-1));
#211=B_SPLINE_CURVE_WITH_KNOTS('',1,(#209,#210),.UNSPECIFIED.,.F.,.F.,(2,2),(0.00000000000000000E0,1.00000000000000000E0),.UNSPECIFIED.);
#212=DEFINITIONAL_REPRESENTATION('',(#211),#157);
#213=PCURVE('',#41,#212);
#214=CARTESIAN_POINT('',(1.00000000000000000E0,9.58333333333333370E-1));
#215=CARTESIAN_POINT('',(1.00000000000000000E0,1.00000000000000000E0));
#216=CARTESIAN_POINT('',(9.74999999999999978E-1,1.00000000000000000E0));
#217=(BOUNDED_CURVE()B_SPLINE_CURVE(2,(#214,#215,#216),.UNSPECIFIED.,.F.,.F.)B_SPLINE_CURVE_WITH_KNOTS((3,3),(0.00000000000000000E0,1.00000000000000000E0),.UNSPECIFIED.)CURVE()GEOMETRIC_REPRESENTATION_ITEM()RATIONAL_B_SPLINE_CURVE((2.00000000000000000E0,1.00000000000000000E0,1.00000000000000000E0))REPRESENTATION_ITEM(''));
#218=DEFINITIONAL_REPRESENTATION('',(#217),#157);
#219=PCURVE('',#41,#218);
#220=CARTESIAN_POINT('',(9.74999999999999978E-1,1.00000000000000000E0));
#221=CARTESIAN_POINT('',(0.00000000000000000E0,1.00000000000000000E0));
#222=B_SPLINE_CURVE_WITH_KNOTS('',1,(#220,#221),.UNSPECIFIED.,.F.,.F.,(2,2),(0.00000000000000000E0,1.00000000000000000E0),.UNSPECIFIED.);
#223=DEFINITIONAL_REPRESENTATION('',(#222),#157);
#224=PCURVE('',#41,#223);
#225=CARTESIAN_POINT('',(0.00000000000000000E0,1.00000000000000000E0));
#226=CARTESIAN_POINT('',(0.00000000000000000E0,0.00000000000000000E0));
#227=B_SPLINE_CURVE_WITH_KNOTS('',1,(#225,#226),.UNSPECIFIED.,.F.,.F.,(2,2),(0.00000000000000000E0,1.00000000000000000E0),.UNSPECIFIED.);
#228=DEFINITIONAL_REPRESENTATION('',(#227),#157);
#229=PCURVE('',#41,#228);
#230=CARTESIAN_POINT('',(1.00000000000000000E0,0.00000000000000000E0));
#231=CARTESIAN_POINT('',(1.00000000000000000E0,1.00000000000000000E0));
#232=B_SPLINE_CURVE_WITH_KNOTS('',1,(#230,#231),.UNSPECIFIED.,.F.,.F.,(2,2),(0.00000000000000000E0,1.00000000000000000E0),.UNSPECIFIED.);
#233=DEFINITIONAL_REPRESENTATION('',(#232),#157);
#234=PCURVE('',#46,#233);
#235=CARTESIAN_POINT('',(1.00000000000000000E0,1.00000000000000000E0));
#236=CARTESIAN_POINT('',(3.12499999999998890E-2,1.00000000000000000E0));
#237=B_SPLINE_CURVE_WITH_KNOTS('',1,(#235,#236),.UNSPECIFIED.,.F.,.F.,(2,2),(0.00000000000000000E0,1.00000000000000000E0),.UNSPECIFIED.);
#238=DEFINITIONAL_REPRESENTATION('',(#237),#157);
#239=PCURVE('',#46,#238);
#240=CARTESIAN_POINT('',(3.12499999999998890E-2,1.00000000000000000E0));
#241=CARTESIAN_POINT('',(0.00000000000000000E0,1.00000000000000000E0));
#242=CARTESIAN_POINT('',(0.00000000000000000E0,9.58333333333333370E-1));
#243=(BOUNDED_CURVE()B_SPLINE_CURVE(2,(#240,#241,#242),.UNSPECIFIED.,.F.,.F.)B_SPLINE_CURVE_WITH_KNOTS((3,3),(0.00000000000000000E0,1.00000000000000000E0),.UNSPECIFIED.)CURVE()GEOMETRIC_REPRESENTATION_ITEM()RATIONAL_B_SPLINE_CURVE((1.00000000000000000E0,1.00000000000000000E0,2.00000000000000000E0))REPRESENTATION_ITEM(''));
#244=DEFINITIONAL_REPRESENTATION('',(#243),#157);
#245=PCURVE('',#46,#244);
#246=CARTESIAN_POINT('',(0.00000000000000000E0,9.58333333333333370E-1));
#247=CARTESIAN_POINT('',(0.00000000000000000E0,0.00000000000000000E0));
#248=B_SPLINE_CURVE_WITH_KNOTS('',1,(#246,#247),.UNSPECIFIED.,.F.,.F.,(2,2),(0.00000000000000000E0,1.00000000000000000E0),.UNSPECIFIED.);
#249=DEFINITIONAL_REPRESENTATION('',(#248),#157);
#250=PCURVE('',#46,#249);
#251=CARTESIAN_POINT('',(0.00000000000000000E0,0.00000000000000000E0));
#252=CARTESIAN_POINT('',(1.00000000000000000E0,0.00000000000000000E0));
#253=B_SPLINE_CURVE_WITH_KNOTS('',1,(#251,#252),.UNSPECIFIED.,.F.,.F.,(2,2),(0.00000000000000000E0,1.00000000000000000E0),.UNSPECIFIED.);
#254=DEFINITIONAL_REPRESENTATION('',(#253),#157);
#255=PCURVE('',#46,#254);
#256=CARTESIAN_POINT('',(1.00000000000000000E0,0.00000000000000000E0));
#257=CARTESIAN_POINT('',(1.00000000000000000E0,9.58333333333333370E-1));
#258=B_SPLINE_CURVE_WITH_KNOTS('',1,(#256,#257),.UNSPECIFIED.,.F.,.F.,(2,2),(0.00000000000000000E0,1.00000000000000000E0),.UNSPECIFIED.);
#259=DEFINITIONAL_REPRESENTATION('',(#258),#157);
#260=PCURVE('',#51,#259);
#261=CARTESIAN_POINT('',(1.00000000000000000E0,9.58333333333333370E-1));
#262=CARTESIAN_POINT('',(2.50000000000000222E-2,9.58333333333333370E-1));
#263=B_SPLINE_CURVE_WITH_KNOTS('',1,(#261,#262),.UNSPECIFIED.,.F.,.F.,(2,2),(0.00000000000000000E0,1.00000000000000000E0),.UNSPECIFIED.);
#264=DEFINITIONAL_REPRESENTATION('',(#263),#157);
#265=PCURVE('',#51,#264);
#266=CARTESIAN_POINT('',(2.50000000000000222E-2,9.58333333333333370E-1));
#267=CARTESIAN_POINT('',(2.50000000000000222E-2,0.00000000000000000E0));
#268=B_SPLINE_CURVE_WITH_KNOTS('',1,(#266,#267),.UNSPECIFIED.,.F.,.F.,(2,2),(0.00000000000000000E0,1.00000000000000000E0),.UNSPECIFIED.);
#269=DEFINITIONAL_REPRESENTATION('',(#268),#157);
#270=PCURVE('',#51,#269);
#271=CARTESIAN_POINT('',(2.50000000000000222E-2,0.00000000000000000E0));
#272=CARTESIAN_POINT('',(1.00000000000000000E0,0.00000000000000000E0));
#273=B_SPLINE_CURVE_WITH_KNOTS('',1,(#271,#272),.UNSPECIFIED.,.F.,.F.,(2,2),(0.00000000000000000E0,1.00000000000000000E0),.UNSPECIFIED.);
#274=DEFINITIONAL_REPRESENTATION('',(#273),#157);
#275=PCURVE('',#51,#274);
#276=CARTESIAN_POINT('',(0.00000000000000000E0,0.00000000000000000E0));
#277=CARTESIAN_POINT('',(9.68750000000000111E-1,0.00000000000000000E0));
#278=B_SPLINE_CURVE_WITH_KNOTS('',1,(#276,#277),.UNSPECIFIED.,.F.,.F.,(2,2),(0.00000000000000000E0,1.00000000000000000E0),.UNSPECIFIED.);
#279=DEFINITIONAL_REPRESENTATION('',(#278),#157);
#280=PCURVE('',#56,#279);
#281=CARTESIAN_POINT('',(9.68750000000000111E-1,0.00000000000000000E0));
#282=CARTESIAN_POINT('',(9.68750000000000111E-1,9.58333333333333370E-1));
#283=B_SPLINE_CURVE_WITH_KNOTS('',1,(#281,#282),.UNSPECIFIED.,.F.,.F.,(2,2),(0.00000000000000000E0,1.00000000000000000E0),.UNSPECIFIED.);
#284=DEFINITIONAL_REPRESENTATION('',(#283),#157);
#285=PCURVE('',#56,#284);
#286=CARTESIAN_POINT('',(9.68750000000000111E-1,9.58333333333333370E-1));
#287=CARTESIAN_POINT('',(0.00000000000000000E0,9.58333333333333370E-1));
#288=B_SPLINE_CURVE_WITH_KNOTS('',1,(#286,#287),.UNSPECIFIED.,.F.,.F.,(2,2),(0.00000000000000000E0,1.00000000000000000E0),.UNSPECIFIED.);
#289=DEFINITIONAL_REPRESENTATION('',(#288),#157);
#290=PCURVE('',#56,#289);
#291=CARTESIAN_POINT('',(0.00000000000000000E0,9.58333333333333370E-1));
#292=CARTESIAN_POINT('',(0.00000000000000000E0,0.00000000000000000E0));
#293=B_SPLINE_CURVE_WITH_KNOTS('',1,(#291,#292),.UNSPECIFIED.,.F.,.F.,(2,2),(0.00000000000000000E0,1.00000000000000000E0),.UNSPECIFIED.);
#294=DEFINITIONAL_REPRESENTATION('',(#293),#157);
#295=PCURVE('',#56,#294);
#296=CARTESIAN_POINT('',(1.00000000000000000E0,0.00000000000000000E0));
#297=CARTESIAN_POINT('',(1.00000000000000000E0,1.00000000000000000E0));
#298=B_SPLINE_CURVE_WITH_KNOTS('',1,(#296,#297),.UNSPECIFIED.,.F.,.F.,(2,2),(0.00000000000000000E0,1.00000000000000000E0),.UNSPECIFIED.);
#299=DEFINITIONAL_REPRESENTATION('',(#298),#157);
#300=PCURVE('',#63,#299);
#301=CARTESIAN_POINT('',(1.00000000000000000E0,1.00000000000000000E0));
#302=CARTESIAN_POINT('',(0.00000000000000000E0,1.00000000000000000E0));
#303=B_SPLINE_CURVE_WITH_KNOTS('',1,(#301,#302),.UNSPECIFIED.,.F.,.F.,(2,2),(0.00000000000000000E0,1.00000000000000000E0),.UNSPECIFIED.);
#304=DEFINITIONAL_REPRESENTATION('',(#303),#157);
#305=PCURVE('',#63,#304);
#306=CARTESIAN_POINT('',(0.00000000000000000E0,1.00000000000000000E0));
#307=CARTESIAN_POINT('',(0.00000000000000000E0,0.00000000000000000E0));
#308=B_SPLINE_CURVE_WITH_KNOTS('',1,(#306,#307),.UNSPECIFIED.,.F.,.F.,(2,2),(0.00000000000000000E0,1.00000000000000000E0),.UNSPECIFIED.);
#309=DEFINITIONAL_REPRESENTATION('',(#308),#157);
#310=PCURVE('',#63,#309);
#311=CARTESIAN_POINT('',(0.00000000000000000E0,0.00000000000000000E0));
#312=CARTESIAN_POINT('',(1.00000000000000000E0,0.00000000000000000E0));
#313=B_SPLINE_CURVE_WITH_KNOTS('',1,(#311,#312),.UNSPECIFIED.,.F.,.F.,(2,2),(0.00000000000000000E0,1.00000000000000000E0),.UNSPECIFIED.);
#314=DEFINITIONAL_REPRESENTATION('',(#313),#157);
#315=PCURVE('',#63,#314);
#316=CARTESIAN_POINT('',(0.00000000000000000E0,0.00000000000000000E0));
#317=CARTESIAN_POINT('',(1.00000000000000000E0,0.00000000000000000E0));
#318=B_SPLINE_CURVE_WITH_KNOTS('',1,(#316,#317),.UNSPECIFIED.,.F.,.F.,(2,2),(0.00000000000000000E0,1.00000000000000000E0),.UNSPECIFIED.);
#319=DEFINITIONAL_REPRESENTATION('',(#318),#157);
#320=PCURVE('',#70,#319);
#321=CARTESIAN_POINT('',(1.00000000000000000E0,0.00000000000000000E0));
#322=CARTESIAN_POINT('',(1.00000000000000000E0,1.00000000000000000E0));
#323=B_SPLINE_CURVE_WITH_KNOTS('',1,(#321,#322),.UNSPECIFIED.,.F.,.F.,(2,2),(0.00000000000000000E0,1.00000000000000000E0),.UNSPECIFIED.);
#324=DEFINITIONAL_REPRESENTATION('',(#323),#157);
#325=PCURVE('',#70,#324);
#326=CARTESIAN_POINT('',(1.00000000000000000E0,1.00000000000000000E0));
#327=CARTESIAN_POINT('',(0.00000000000000000E0,1.00000000000000000E0));
#328=B_SPLINE_CURVE_WITH_KNOTS('',1,(#326,#327),.UNSPECIFIED.,.F.,.F.,(2,2),(0.00000000000000000E0,1.00000000000000000E0),.UNSPECIFIED.);
#329=DEFINITIONAL_REPRESENTATION('',(#328),#157);
#330=PCURVE('',#70,#329);
#331=CARTESIAN_POINT('',(0.00000000000000000E0,1.00000000000000000E0));
#332=CARTESIAN_POINT('',(0.00000000000000000E0,0.00000000000000000E0));
#333=B_SPLINE_CURVE_WITH_KNOTS('',1,(#331,#332),.UNSPECIFIED.,.F.,.F.,(2,2),(0.00000000000000000E0,1.00000000000000000E0),.UNSPECIFIED.);
#334=DEFINITIONAL_REPRESENTATION('',(#333),#157);
#335=PCURVE('',#70,#334);
#336=CARTESIAN_POINT('',(1.00000000000000000E0,0.00000000000000000E0));
#337=CARTESIAN_POINT('',(1.00000000000000000E0,1.00000000000000000E0));
#338=B_SPLINE_CURVE_WITH_KNOTS('',1,(#336,#337),.UNSPECIFIED.,.F.,.F.,(2,2),(0.00000000000000000E0,1.00000000000000000E0),.UNSPECIFIED.);
#339=DEFINITIONAL_REPRESENTATION('',(#338),#157);
#340=PCURVE('',#77,#339);
#341=CARTESIAN_POINT('',(1.00000000000000000E0,1.00000000000000000E0));
#342=CARTESIAN_POINT('',(0.00000000000000000E0,1.00000000000000000E0));
#343=B_SPLINE_CURVE_WITH_KNOTS('',1,(#341,#342),.UNSPECIFIED.,.F.,.F.,(2,2),(0.00000000000000000E0,1.00000000000000000E0),.UNSPECIFIED.);
#344=DEFINITIONAL_REPRESENTATION('',(#343),#157);
#345=PCURVE('',#77,#344);
#346=CARTESIAN_POINT('',(0.00000000000000000E0,1.00000000000000000E0));
#347=CARTESIAN_POINT('',(0.00000000000000000E0,0.00000000000000000E0));
#348=B_SPLINE_CURVE_WITH_KNOTS('',1,(#346,#347),.UNSPECIFIED.,.F.,.F.,(2,2),(0.00000000000000000E0,1.00000000000000000E0),.UNSPECIFIED.);
#349=DEFINITIONAL_REPRESENTATION('',(#348),#157);
#350=PCURVE('',#77,#349);
#351=CARTESIAN_POINT('',(0.00000000000000000E0,0.00000000000000000E0));
#352=CARTESIAN_POINT('',(1.00000000000000000E0,0.00000000000000000E0));
#353=B_SPLINE_CURVE_WITH_KNOTS('',1,(#351,#352),.UNSPECIFIED.,.F.,.F.,(2,2),(0.00000000000000000E0,1.00000000000000000E0),.UNSPECIFIED.);
#354=DEFINITIONAL_REPRESENTATION('',(#353),#157);
#355=PCURVE('',#77,#354);
#356=CARTESIAN_POINT('',(1.00000000000000000E0,0.00000000000000000E0));
#357=CARTESIAN_POINT('',(1.00000000000000000E0,1.00000000000000000E0));
#358=B_SPLINE_CURVE_WITH_KNOTS('',1,(#356,#357),.UNSPECIFIED.,.F.,.F.,(2,2),(0.00000000000000000E0,1.00000000000000000E0),.UNSPECIFIED.);
#359=DEFINITIONAL_REPRESENTATION('',(#358),#157);
#360=PCURVE('',#87,#359);
#361=CARTESIAN_POINT('',(1.00000000000000000E0,1.00000000000000000E0));
#362=CARTESIAN_POINT('',(0.00000000000000000E0,1.00000000000000000E0));
#363=CARTESIAN_POINT('',(0.00000000000000000E0,0.00000000000000000E0));
#364=(BOUNDED_CURVE()B_SPLINE_CURVE(2,(#361,#362,#363),.UNSPECIFIED.,.F.,.F.)B_SPLINE_CURVE_WITH_KNOTS((3,3),(0.00000000000000000E0,1.00000000000000000E0),.UNSPECIFIED.)CURVE()GEOMETRIC_REPRESENTATION_ITEM()RATIONAL_B_SPLINE_CURVE((1.00000000000000000E0,7.07106781186547573E-1,1.00000000000000000E0))REPRESENTATION_ITEM(''));
#365=DEFINITIONAL_REPRESENTATION('',(#364),#157);
#366=PCURVE('',#87,#365);
#367=CARTESIAN_POINT('',(0.00000000000000000E0,0.00000000000000000E0));
#368=CARTESIAN_POINT('',(1.00000000000000000E0,0.00000000000000000E0));
#369=B_SPLINE_CURVE_WITH_KNOTS('',1,(#367,#368),.UNSPECIFIED.,.F.,.F.,(2,2),(0.00000000000000000E0,1.00000000000000000E0),.UNSPECIFIED.);
#370=DEFINITIONAL_REPRESENTATION('',(#369),#157);
#371=PCURVE('',#87,#370);
#372=SURFACE_CURVE('',#90,(#162,#255),.PCURVE_S1.);
#373=EDGE_CURVE('OSCAD_TOPO/3|edge|e:6082dc90cf8db6b5c8afe9eeed2dc28c|4cd87067c645fc41980f748da3f57a94783c84c7f6e933d8343e33725865b511',#2,#4,#372,.T.);
#374=SURFACE_CURVE('',#93,(#167,#275),.PCURVE_S1.);
#375=EDGE_CURVE('OSCAD_TOPO/3|edge|e:acb414c8120ab41c30db962ec38e65b2|90dc7cff3582feb16b9cd05e000c6d12dbdda3a62fcf78fd845433344fb7de69',#4,#6,#374,.T.);
#376=SURFACE_CURVE('',#97,(#173,#315),.PCURVE_S1.);
#377=EDGE_CURVE('OSCAD_TOPO/3|edge|e:6645a29ef0f606928f8d9d69c999eb74|571c823dcdb40b8f6d2a25b0636bb321d8f08224679e2e11171d68ba713450be',#6,#8,#376,.T.);
#378=SURFACE_CURVE('',#100,(#178,#280),.PCURVE_S1.);
#379=EDGE_CURVE('OSCAD_TOPO/3|edge|e:ae3767eca4a2315accae7e34423b1c67|f9de2baad833d2c1b623b457836b1f0a5939ad97f61d74d07b706161a9402135',#10,#8,#378,.T.);
#380=SURFACE_CURVE('',#103,(#183,#208),.PCURVE_S1.);
#381=EDGE_CURVE('OSCAD_TOPO/3|edge|e:19a1f1cd8a69e6565fb15bc324b17e30|00394b620004e1c1cacfe9fd403aeafe7d6e1db42f39f0f8b33b5e0f87713db1',#2,#10,#380,.T.);
#382=SURFACE_CURVE('',#106,(#188,#224),.PCURVE_S1.);
#383=EDGE_CURVE('OSCAD_TOPO/3|edge|e:5eff53752f2eaf39c626b1d552878982|727a035b3ac017f82e349a5301d50894337246065d0f8bcd0b03ffeaa1451aec',#12,#14,#382,.T.);
#384=SURFACE_CURVE('',#109,(#193,#350),.PCURVE_S1.);
#385=EDGE_CURVE('OSCAD_TOPO/3|edge|e:9fca7c7509d7300b2c95623501f0ffee|faae6356ffe5896d9d82b103fe5c66a88c9b87db1ab6929a7c51303766f8707e',#16,#14,#384,.T.);
#386=SURFACE_CURVE('',#112,(#198,#325),.PCURVE_S1.);
#387=EDGE_CURVE('OSCAD_TOPO/3|edge|e:4d6e88afbf0bc392fe5f7523e76b8a3f|ae9635f9b5dd2fba6673d46dcfbd1a41bf33151806cc89372a050cbed6dd697b',#16,#18,#386,.T.);
#388=SURFACE_CURVE('',#115,(#203,#239),.PCURVE_S1.);
#389=EDGE_CURVE('OSCAD_TOPO/3|edge|e:441d5c2729b516f8c18bb121e3d8eeae|7e15d932bc03c5df70eb7c76a75bfeae0a0d8efdd5f4d682c8ed8a43d0f4d418',#12,#18,#388,.T.);
#390=SURFACE_CURVE('',#118,(#213,#295),.PCURVE_S1.);
#391=EDGE_CURVE('OSCAD_TOPO/3|edge|e:8dc6f52bfa5d5d734403d8c6c11bc6ae|207e79d578cb3c554a2481bf1a5d0b6e92048ca635596fc1d3beaa6012cfbd8e',#10,#20,#390,.T.);
#392=SURFACE_CURVE('',#122,(#219,#355),.PCURVE_S1.);
#393=EDGE_CURVE('OSCAD_TOPO/3|edge|e:fabd1fce81eb5aead126396bfcf0226d|c11f57aedea10e4a74db2639b42cd6bfd826048f6e4fc44e18622377915ec35c',#20,#14,#392,.T.);
#394=SURFACE_CURVE('',#125,(#229,#234),.PCURVE_S1.);
#395=EDGE_CURVE('OSCAD_TOPO/3|edge|e:bf002fe6b979027a69f3bd9a04a6a961|8397afd88bd0b5b5b5978a6a4aecd763a9d45ef3d2749e826b0282976d2c4e91',#2,#12,#394,.T.);
#396=SURFACE_CURVE('',#129,(#245,#320),.PCURVE_S1.);
#397=EDGE_CURVE('OSCAD_TOPO/3|edge|e:0bd70fae91b9ab570e154b23e8806e01|3e1737e0547a246a36d425a251dca6f250699f4794d02c19fdac494e916dca68',#22,#18,#396,.T.);
#398=SURFACE_CURVE('',#132,(#250,#260),.PCURVE_S1.);
#399=EDGE_CURVE('OSCAD_TOPO/3|edge|e:2c219782dddb2b0a154d7586200a7a85|6cf93fcd5a15be040829c4fc2c1fe307466a00ee2dddf78fd8da7f1592228306',#4,#22,#398,.T.);
#400=SURFACE_CURVE('',#135,(#265,#335),.PCURVE_S1.);
#401=EDGE_CURVE('OSCAD_TOPO/3|edge|e:3947a2ffdcd939ceda9fa06bcd6e0a4b|69546f47d4109a68be86d15b2b7258a242f7be13657d02032a8a62567bd9a6d9',#24,#22,#400,.T.);
#402=SURFACE_CURVE('',#138,(#270,#300),.PCURVE_S1.);
#403=EDGE_CURVE('OSCAD_TOPO/3|edge|e:6434fec439fb7b8783c3b7bb8dccb553|be724e50a6bec8f29e858ee43177045d188681dc2c3541699c65d643ae0d4ba6',#6,#24,#402,.T.);
#404=SURFACE_CURVE('',#141,(#285,#310),.PCURVE_S1.);
#405=EDGE_CURVE('OSCAD_TOPO/3|edge|e:3754b544a61634859e563e3e42bd7b04|62ed5a26b7b0f1f5f222193e71ac512f5b36a7535408ecb3c71fde3eb7e39b42',#8,#26,#404,.T.);
#406=SURFACE_CURVE('',#144,(#290,#340),.PCURVE_S1.);
#407=EDGE_CURVE('OSCAD_TOPO/3|edge|e:6c5d2c8590c7ba7977d07fa2a958c3ae|52ddefdee172b088536b94591f0b75d3dc5363e5d01bcd28d8483c71daa7cd6a',#26,#20,#406,.T.);
#408=SURFACE_CURVE('',#148,(#305,#366),.PCURVE_S1.);
#409=EDGE_CURVE('OSCAD_TOPO/3|edge|e:a7f288400735c4ec3b2168b3d0f1b8f0|eea3a90283a1156af72c6f1716c5b41ae8ac59907dc88a2482ae27df2a570272',#24,#26,#408,.T.);
#410=SURFACE_CURVE('',#152,(#330,#371),.PCURVE_S1.);
#411=EDGE_CURVE('OSCAD_TOPO/3|edge|e:3e87b463908d321f594bfd24beafd3f7|a5f9a1681195a7d2229f7f79a6aa7ec809ae92c72db4e8a52178d7f22efe27b3',#24,#16,#410,.T.);
#412=SURFACE_CURVE('',#156,(#345,#360),.PCURVE_S1.);
#413=EDGE_CURVE('OSCAD_TOPO/3|edge|e:9c3b33757d1a0d5b77082ce784fefb29|92c8d6b078bb766aba7fe0638e0b6871b214bcd7526edea9f089d623d849a3bc',#26,#16,#412,.T.);
#414=ORIENTED_EDGE('',*,*,#373,.T.);
#415=ORIENTED_EDGE('',*,*,#375,.T.);
#416=ORIENTED_EDGE('',*,*,#377,.T.);
#417=ORIENTED_EDGE('',*,*,#379,.F.);
#418=ORIENTED_EDGE('',*,*,#381,.F.);
#419=EDGE_LOOP('OSCAD_TOPO/3|loop|l:0b338d9357f733ea562be316197a2871|11ddba0ee7cd83cace1a7f6a543598024521af9ed6fc208519921732ea88e151',(#414,#415,#416,#417,#418));
#420=ORIENTED_EDGE('',*,*,#383,.T.);
#421=ORIENTED_EDGE('',*,*,#385,.F.);
#422=ORIENTED_EDGE('',*,*,#387,.T.);
#423=ORIENTED_EDGE('',*,*,#389,.F.);
#424=EDGE_LOOP('OSCAD_TOPO/3|loop|l:8468b3dc9fc3cf73d9e6bfc25701631f|e77582f9632e2f51edf6abbfde0957761a99ecf12487e1ba3f92318f1c8c1f15',(#420,#421,#422,#423));
#425=ORIENTED_EDGE('',*,*,#381,.T.);
#426=ORIENTED_EDGE('',*,*,#391,.T.);
#427=ORIENTED_EDGE('',*,*,#393,.T.);
#428=ORIENTED_EDGE('',*,*,#383,.F.);
#429=ORIENTED_EDGE('',*,*,#395,.F.);
#430=EDGE_LOOP('OSCAD_TOPO/3|loop|l:f0e34e7b324c785e6d5c4e4193f1543f|1f2b017c941fe54aae7add5a634024edc71d213b566579d62d189bf4cea59c2c',(#425,#426,#427,#428,#429));
#431=ORIENTED_EDGE('',*,*,#395,.T.);
#432=ORIENTED_EDGE('',*,*,#389,.T.);
#433=ORIENTED_EDGE('',*,*,#397,.F.);
#434=ORIENTED_EDGE('',*,*,#399,.F.);
#435=ORIENTED_EDGE('',*,*,#373,.F.);
#436=EDGE_LOOP('OSCAD_TOPO/3|loop|l:52fe1e5a0f3ba4eff64237196dd8db9d|ed5fee578e3a7a4ad9e6055bea7831de4e11784d1ec025e54cced5d3f5c72a55',(#431,#432,#433,#434,#435));
#437=ORIENTED_EDGE('',*,*,#399,.T.);
#438=ORIENTED_EDGE('',*,*,#401,.F.);
#439=ORIENTED_EDGE('',*,*,#403,.F.);
#440=ORIENTED_EDGE('',*,*,#375,.F.);
#441=EDGE_LOOP('OSCAD_TOPO/3|loop|l:5db2d3d2e62c898bd7a86150e8692f8e|c15353a0b8390978d3c1d5d948434602438d55fe816459beb9eafae322965abd',(#437,#438,#439,#440));
#442=ORIENTED_EDGE('',*,*,#379,.T.);
#443=ORIENTED_EDGE('',*,*,#405,.T.);
#444=ORIENTED_EDGE('',*,*,#407,.T.);
#445=ORIENTED_EDGE('',*,*,#391,.F.);
#446=EDGE_LOOP('OSCAD_TOPO/3|loop|l:88b8059fe4973565b6f71516afadb6e0|c3d7c17b2a3a26126534cfe61aa94cd6ccf48f14609da91210d9ba6c79eb93fa',(#442,#443,#444,#445));
#447=ORIENTED_EDGE('',*,*,#403,.T.);
#448=ORIENTED_EDGE('',*,*,#409,.T.);
#449=ORIENTED_EDGE('',*,*,#405,.F.);
#450=ORIENTED_EDGE('',*,*,#377,.F.);
#451=EDGE_LOOP('OSCAD_TOPO/3|loop|l:5bc7ce499fd7c72cc1054f6b84915448|5628e57daa1c7d8e0172be1eaf87f4fe8fc6acd247922690f85cb0d6c3d1de77',(#447,#448,#449,#450));
#452=ORIENTED_EDGE('',*,*,#397,.T.);
#453=ORIENTED_EDGE('',*,*,#387,.F.);
#454=ORIENTED_EDGE('',*,*,#411,.F.);
#455=ORIENTED_EDGE('',*,*,#401,.T.);
#456=EDGE_LOOP('OSCAD_TOPO/3|loop|l:5c90beea31b4c42f90d7ca83776c8dd1|4dbd5318e8b5750291ad7db6bcb6aba481de7104ee57cc5e528bc6104e004a1f',(#452,#453,#454,#455));
#457=ORIENTED_EDGE('',*,*,#407,.F.);
#458=ORIENTED_EDGE('',*,*,#413,.T.);
#459=ORIENTED_EDGE('',*,*,#385,.T.);
#460=ORIENTED_EDGE('',*,*,#393,.F.);
#461=EDGE_LOOP('OSCAD_TOPO/3|loop|l:70935f3c92429efb1b8fee3b344d5882|b9cc7b9d51e42444e4c9d7757e8750ef393dbf7124382a73a28b6c0302c7b986',(#457,#458,#459,#460));
#462=ORIENTED_EDGE('',*,*,#413,.F.);
#463=ORIENTED_EDGE('',*,*,#409,.F.);
#464=ORIENTED_EDGE('',*,*,#411,.T.);
#465=EDGE_LOOP('OSCAD_TOPO/3|loop|l:86016e12c7c407f30fbdaabbc471f845|2041e79c9bc09fbc158e8b65a9595f221af6b0cb9f6f66d705020d0bc7d31870',(#462,#463,#464));
#466=FACE_OUTER_BOUND('',#419,.T.);
#467=ADVANCED_FACE('OSCAD_TOPO/3|face|f:b4298a315d1052d1f5a4b68c8be4c48d|28861f23ced9f7259823bf65af46ab1bff6d181c23249515ac2c7de4760ca879',(#466),#31,.T.);
#468=FACE_OUTER_BOUND('',#424,.T.);
#469=ADVANCED_FACE('OSCAD_TOPO/3|face|f:77ecb9b71761898e9d478ce40fb69b25|8cc257e366ca1a25607fba298cfd6e15017f96e85e56981774f7f7fb78d17a6b',(#468),#36,.T.);
#470=FACE_OUTER_BOUND('',#430,.T.);
#471=ADVANCED_FACE('OSCAD_TOPO/3|face|f:d7f72d45950969ab31cae18587f8d68b|62a1cf6025273ac72545c86f66e6f70c215c17005b2c4411188418f2686b4938',(#470),#41,.T.);
#472=FACE_OUTER_BOUND('',#436,.T.);
#473=ADVANCED_FACE('OSCAD_TOPO/3|face|f:1b0ea998169a6b90069ff76b424c48ba|dacded6be1e101957738dfe02e6d5a5efd1bc1b9514b719092480cc27c345fd9',(#472),#46,.T.);
#474=FACE_OUTER_BOUND('',#441,.T.);
#475=ADVANCED_FACE('OSCAD_TOPO/3|face|f:9e8a1425a1e29078ec5b82cdb7ef2708|a1f5fb738b0f87384c1a3920c459f510cb3e9e51aff9a5839f88bd9e57401273',(#474),#51,.T.);
#476=FACE_OUTER_BOUND('',#446,.T.);
#477=ADVANCED_FACE('OSCAD_TOPO/3|face|f:33df3f7ce57524aac39de9aca9446d79|e75d27ab5cae6795040d78d150c23f28d467e61e94fd90701f1679440698324f',(#476),#56,.T.);
#478=FACE_OUTER_BOUND('',#451,.T.);
#479=ADVANCED_FACE('OSCAD_TOPO/3|face|f:ff64620ba520ec17330ba1dd83c25dc8|1fb75415698b271dc2edd25f25187e7513316bd2d6a64939865cbc2afb85137e',(#478),#63,.T.);
#480=FACE_OUTER_BOUND('',#456,.T.);
#481=ADVANCED_FACE('OSCAD_TOPO/3|face|f:f06a682715450751b991bcdf9ced8aa7|ce4870ea1fef77764c5396ea4ff4ef0da30d5b78ebb2b3b8f2ebb3dadd2dc264',(#480),#70,.T.);
#482=FACE_OUTER_BOUND('',#461,.T.);
#483=ADVANCED_FACE('OSCAD_TOPO/3|face|f:ed3e9844624be2979f687dbc2ce86a75|77203e9e5227c620d8c77748de94a6c764940de649ccc3da787f31038108141a',(#482),#77,.T.);
#484=FACE_OUTER_BOUND('',#465,.T.);
#485=ADVANCED_FACE('OSCAD_TOPO/3|face|f:d6d839128c82139db590c422689b3cec|1c3ebf1979fc819a6a335b146b8352b250a35f6b9b3645f81743fc0cc56dd487',(#484),#87,.T.);
#486=CLOSED_SHELL('OSCAD_TOPO/3|shell|s:f505e5921a02bc57b2316bf2c5ccd1c8|b7b9aa39f8bb1ecb33cd3a602a00e3f0d903be4f28fa7e2b487eb84684ab7b4b',(#467,#469,#471,#473,#475,#477,#479,#481,#483,#485));
#487=MANIFOLD_SOLID_BREP('OSCAD_TOPO/3|body|b:3b5648bcf248a05179c61d0850ec5c2f|b34bcf00aaf9df6e1cd5b0f3b0981a2da71671ecce29539f2c5b8d550653ae33',#486);
#488=(LENGTH_UNIT()NAMED_UNIT(*)SI_UNIT(.MILLI.,.METRE.));
#489=UNCERTAINTY_MEASURE_WITH_UNIT(LENGTH_MEASURE(9.99999999999999955E-8),#488,'distance_accuracy_value','');
#490=(GEOMETRIC_REPRESENTATION_CONTEXT(3)GLOBAL_UNCERTAINTY_ASSIGNED_CONTEXT((#489))GLOBAL_UNIT_ASSIGNED_CONTEXT((#488))REPRESENTATION_CONTEXT('','3D'));
#491=ADVANCED_BREP_SHAPE_REPRESENTATION('',(#487),#490);
#492=APPLICATION_CONTEXT('managed model based 3d engineering');
#493=PRODUCT_CONTEXT('',#492,'mechanical');
#494=PRODUCT('model','model','',(#493));
#495=PRODUCT_DEFINITION_FORMATION('1','',#494);
#496=PRODUCT_DEFINITION_CONTEXT('part definition',#492,'design');
#497=PRODUCT_DEFINITION('design','',#495,#496);
#498=PRODUCT_DEFINITION_SHAPE('','',#497);
#499=SHAPE_DEFINITION_REPRESENTATION(#498,#491);
ENDSEC;
END-ISO-10303-21;
