ISO-10303-21;
HEADER;
FILE_DESCRIPTION(('OpenSCAD Viewer retained AP242 B-rep'),'2;1');
FILE_NAME('model.step','',(''),(''),'OpenSCAD Viewer','OpenSCAD Viewer','');
FILE_SCHEMA(('AP242_MANAGED_MODEL_BASED_3D_ENGINEERING_MIM_LF'));
ENDSEC;
DATA;
#1=CARTESIAN_POINT('',(5.53656842888334211E0,-1.64781165873216962E0,2.22685198506785476E1));
#2=VERTEX_POINT('OSCAD_TOPO/3|vertex|v:5c02a346e16e71f17ec0323bdf7e9bcc|457ac4abbc6b612178d0781202b5f8b3c6986acb2280d53a819a50bb93d97485',#1);
#3=CARTESIAN_POINT('',(8.42949188460303844E0,-9.10643042358044852E0,2.22685198506785476E1));
#4=VERTEX_POINT('OSCAD_TOPO/3|vertex|v:96ece761eefbf45fbdf16d1f29eca683|22a7d1d81c42e41d1934385f0f8fdaa894b255497796ce27028275c8f85a59c7',#3);
#5=CARTESIAN_POINT('',(1.53071142318851514E1,-6.43885407528868559E0,2.74243269915828805E1));
#6=VERTEX_POINT('OSCAD_TOPO/3|vertex|v:0a60b4b3f81fc49b6c8cc1c392128eb0|c63dae638cf2549cbd628a1f7c4b6e34566780e629db70c19eaca8b92522b8c9',#5);
#7=CARTESIAN_POINT('',(1.57096790607293109E1,-5.21012935765023322E0,2.79971944516833631E1));
#8=VERTEX_POINT('OSCAD_TOPO/3|vertex|v:cfaa2308741b7e945aaf1c81a6b6e5d0|7a70159e2d7f53da649c9d649d6ffeea55e4a47bf87e05e5e98634ec6eb500ac',#7);
#9=CARTESIAN_POINT('',(1.31783710369745766E1,1.31616206159200910E0,2.79971944516833631E1));
#10=VERTEX_POINT('OSCAD_TOPO/3|vertex|v:5a8dbfedfb55a6befb301edceb684a02|9fd1b28c1fc299ffb622ac964769f4d859b3e819467ed759cfd87ed1bf96aeb6',#9);
#11=CARTESIAN_POINT('',(8.74116841964065827E0,-4.04865374474732143E-1,1.73506317436056712E1));
#12=VERTEX_POINT('OSCAD_TOPO/3|vertex|v:68dde51bf6701afe32d08ee69272262e|7c9b815a9aef65796e7ad3d7e7df8bea87e329a3bbed3d93a99df8101a2c61c4',#11);
#13=CARTESIAN_POINT('',(1.56187907669227712E1,2.26271097381702901E0,2.25064388845100041E1));
#14=VERTEX_POINT('OSCAD_TOPO/3|vertex|v:eebd064f132032fbde5ba610ecd64c47|7cddd5deeae858ed54ccec52369e04de0faa7597a3f90cd08b62030e103f4f95',#13);
#15=CARTESIAN_POINT('',(1.81500987906775038E1,-4.26358044542521419E0,2.25064388845100041E1));
#16=VERTEX_POINT('OSCAD_TOPO/3|vertex|v:71d9bc38321359edfbc1ae1c5c7cf220|00af79b5d4f7ad0d93391ad8bd618d699db592a6aacb17d89660cb030b605092',#15);
#17=CARTESIAN_POINT('',(1.12724764433953926E1,-6.93115679371697624E0,1.73506317436056712E1));
#18=VERTEX_POINT('OSCAD_TOPO/3|vertex|v:01037e190060be4300100ad6203951a0|5afa5187fde7c7c706a45b7f50fda1c554a85f4134f1e25a4d5238762fd48556',#17);
#19=CARTESIAN_POINT('',(1.58488710292723418E1,2.35195063180654085E0,2.38989543624559673E1));
#20=VERTEX_POINT('OSCAD_TOPO/3|vertex|v:c9cbec7f7ddcf38fb885291b0cd5448a|f41eb81fea55aa166d0bac4c65209d3c92f6c75f524c90764c8218cd6578417f',#19);
#21=CARTESIAN_POINT('',(1.10999918769008019E1,-8.07064185336591677E0,1.81702797614511482E1));
#22=VERTEX_POINT('OSCAD_TOPO/3|vertex|v:7dc194bac60f9509fe4bb985e8e5f32d|cb03f3a338423e2a3959473996ee13374e15ba3a1643065273452422b6161da2',#21);
#23=CARTESIAN_POINT('',(1.79776142241829149E1,-5.40306550507415473E0,2.33260869023554847E1));
#24=VERTEX_POINT('OSCAD_TOPO/3|vertex|v:5c6f991bb9af2b9cef3772ffbb774f1b|ebe3bca8afc2d98cd3c4869128692c59e2fc91c05b4137fbcee1f2f48b3b79bd',#23);
#25=CARTESIAN_POINT('',(1.83801790530270779E1,-4.17434078743570236E0,2.38989543624559673E1));
#26=VERTEX_POINT('OSCAD_TOPO/3|vertex|v:0fbd076cde6525c79550803227791196|354a808bf2f0083a87ef2c444e8c0b0442ea7acb548454747ed5e83612b14b37',#25);
#27=CARTESIAN_POINT('',(5.53656842888334211E0,-1.64781165873216962E0,2.22685198506785476E1));
#28=CARTESIAN_POINT('',(1.31783710369745766E1,1.31616206159200910E0,2.79971944516833631E1));
#29=CARTESIAN_POINT('',(8.42949188460303844E0,-9.10643042358044852E0,2.22685198506785476E1));
#30=CARTESIAN_POINT('',(1.60712944926942747E1,-6.14245670325626847E0,2.79971944516833631E1));
#31=B_SPLINE_SURFACE_WITH_KNOTS('',1,1,((#27,#28),(#29,#30)),.UNSPECIFIED.,.F.,.F.,.F.,(2,2),(2,2),(0.00000000000000000E0,1.00000000000000000E0),(0.00000000000000000E0,1.00000000000000000E0),.UNSPECIFIED.);
#32=CARTESIAN_POINT('',(1.16340918753603546E1,-7.86348413932300971E0,1.73506317436056712E1));
#33=CARTESIAN_POINT('',(1.92758944834515908E1,-4.89951041899883055E0,2.30793063446104867E1));
#34=CARTESIAN_POINT('',(8.74116841964065827E0,-4.04865374474732143E-1,1.73506317436056712E1));
#35=CARTESIAN_POINT('',(1.63829710277318945E1,2.55910834584944702E0,2.30793063446104867E1));
#36=B_SPLINE_SURFACE_WITH_KNOTS('',1,1,((#32,#33),(#34,#35)),.UNSPECIFIED.,.F.,.F.,.F.,(2,2),(2,2),(0.00000000000000000E0,1.00000000000000000E0),(0.00000000000000000E0,1.00000000000000000E0),.UNSPECIFIED.);
#37=CARTESIAN_POINT('',(5.53656842888334211E0,-1.64781165873216962E0,2.22685198506785476E1));
#38=CARTESIAN_POINT('',(8.74116841964065827E0,-4.04865374474732143E-1,1.73506317436056712E1));
#39=CARTESIAN_POINT('',(1.31783710369745766E1,1.31616206159200910E0,2.79971944516833631E1));
#40=CARTESIAN_POINT('',(1.63829710277318945E1,2.55910834584944702E0,2.30793063446104867E1));
#41=B_SPLINE_SURFACE_WITH_KNOTS('',1,1,((#37,#38),(#39,#40)),.UNSPECIFIED.,.F.,.F.,.F.,(2,2),(2,2),(0.00000000000000000E0,1.00000000000000000E0),(0.00000000000000000E0,1.00000000000000000E0),.UNSPECIFIED.);
#42=CARTESIAN_POINT('',(8.42949188460303844E0,-9.10643042358044852E0,2.22685198506785476E1));
#43=CARTESIAN_POINT('',(1.16340918753603546E1,-7.86348413932300971E0,1.73506317436056712E1));
#44=CARTESIAN_POINT('',(5.53656842888334211E0,-1.64781165873216962E0,2.22685198506785476E1));
#45=CARTESIAN_POINT('',(8.74116841964065827E0,-4.04865374474732143E-1,1.73506317436056712E1));
#46=B_SPLINE_SURFACE_WITH_KNOTS('',1,1,((#42,#43),(#44,#45)),.UNSPECIFIED.,.F.,.F.,.F.,(2,2),(2,2),(0.00000000000000000E0,1.00000000000000000E0),(0.00000000000000000E0,1.00000000000000000E0),.UNSPECIFIED.);
#47=CARTESIAN_POINT('',(1.60712944926942747E1,-6.14245670325626847E0,2.79971944516833631E1));
#48=CARTESIAN_POINT('',(1.92758944834515908E1,-4.89951041899883055E0,2.30793063446104867E1));
#49=CARTESIAN_POINT('',(8.42949188460303844E0,-9.10643042358044852E0,2.22685198506785476E1));
#50=CARTESIAN_POINT('',(1.16340918753603546E1,-7.86348413932300971E0,1.73506317436056712E1));
#51=B_SPLINE_SURFACE_WITH_KNOTS('',1,1,((#47,#48),(#49,#50)),.UNSPECIFIED.,.F.,.F.,.F.,(2,2),(2,2),(0.00000000000000000E0,1.00000000000000000E0),(0.00000000000000000E0,1.00000000000000000E0),.UNSPECIFIED.);
#52=CARTESIAN_POINT('',(1.31783710369745766E1,1.31616206159200910E0,2.79971944516833631E1));
#53=CARTESIAN_POINT('',(1.63829710277318945E1,2.55910834584944702E0,2.30793063446104867E1));
#54=CARTESIAN_POINT('',(1.60712944926942747E1,-6.14245670325626847E0,2.79971944516833631E1));
#55=CARTESIAN_POINT('',(1.92758944834515908E1,-4.89951041899883055E0,2.30793063446104867E1));
#56=B_SPLINE_SURFACE_WITH_KNOTS('',1,1,((#52,#53),(#54,#55)),.UNSPECIFIED.,.F.,.F.,.F.,(2,2),(2,2),(0.00000000000000000E0,1.00000000000000000E0),(0.00000000000000000E0,1.00000000000000000E0),.UNSPECIFIED.);
#57=CARTESIAN_POINT('',(1.57096790607293109E1,-5.21012935765023322E0,2.79971944516833631E1));
#58=CARTESIAN_POINT('',(1.83801790530270779E1,-4.17434078743570236E0,2.38989543624559673E1));
#59=CARTESIAN_POINT('',(1.60712944926942747E1,-6.14245670325626847E0,2.79971944516833631E1));
#60=CARTESIAN_POINT('',(1.87417944849920382E1,-5.10666813304173672E0,2.38989543624559673E1));
#61=CARTESIAN_POINT('',(1.53071142318851514E1,-6.43885407528868559E0,2.74243269915828805E1));
#62=CARTESIAN_POINT('',(1.79776142241829149E1,-5.40306550507415473E0,2.33260869023554847E1));
#63=(BOUNDED_SURFACE()B_SPLINE_SURFACE(2,1,((#57,#58),(#59,#60),(#61,#62)),.UNSPECIFIED.,.F.,.F.,.F.)B_SPLINE_SURFACE_WITH_KNOTS((3,3),(2,2),(0.00000000000000000E0,1.00000000000000000E0),(0.00000000000000000E0,1.00000000000000000E0),.UNSPECIFIED.)GEOMETRIC_REPRESENTATION_ITEM()RATIONAL_B_SPLINE_SURFACE(((1.00000000000000000E0,1.00000000000000000E0),(7.07106781186547573E-1,7.07106781186547573E-1),(1.00000000000000000E0,1.00000000000000000E0)))REPRESENTATION_ITEM('')SURFACE());
#64=CARTESIAN_POINT('',(1.10999918769008019E1,-8.07064185336591677E0,1.81702797614511482E1));
#65=CARTESIAN_POINT('',(1.79776142241829149E1,-5.40306550507415473E0,2.33260869023554847E1));
#66=CARTESIAN_POINT('',(1.16340918753603546E1,-7.86348413932300971E0,1.73506317436056712E1));
#67=CARTESIAN_POINT('',(1.85117142226424676E1,-5.19590779103124856E0,2.25064388845100041E1));
#68=CARTESIAN_POINT('',(1.12724764433953926E1,-6.93115679371697624E0,1.73506317436056712E1));
#69=CARTESIAN_POINT('',(1.81500987906775038E1,-4.26358044542521419E0,2.25064388845100041E1));
#70=(BOUNDED_SURFACE()B_SPLINE_SURFACE(2,1,((#64,#65),(#66,#67),(#68,#69)),.UNSPECIFIED.,.F.,.F.,.F.)B_SPLINE_SURFACE_WITH_KNOTS((3,3),(2,2),(0.00000000000000000E0,1.00000000000000000E0),(0.00000000000000000E0,1.00000000000000000E0),.UNSPECIFIED.)GEOMETRIC_REPRESENTATION_ITEM()RATIONAL_B_SPLINE_SURFACE(((2.00000000000000000E0,2.00000000000000000E0),(1.00000000000000000E0,1.00000000000000000E0),(1.00000000000000000E0,1.00000000000000000E0)))REPRESENTATION_ITEM('')SURFACE());
#71=CARTESIAN_POINT('',(1.56187907669227712E1,2.26271097381702901E0,2.25064388845100041E1));
#72=CARTESIAN_POINT('',(1.81500987906775038E1,-4.26358044542521419E0,2.25064388845100041E1));
#73=CARTESIAN_POINT('',(1.63829710277318945E1,2.55910834584944702E0,2.30793063446104867E1));
#74=CARTESIAN_POINT('',(1.89142790514866306E1,-3.96718307339279619E0,2.30793063446104867E1));
#75=CARTESIAN_POINT('',(1.58488710292723418E1,2.35195063180654085E0,2.38989543624559673E1));
#76=CARTESIAN_POINT('',(1.83801790530270779E1,-4.17434078743570236E0,2.38989543624559673E1));
#77=(BOUNDED_SURFACE()B_SPLINE_SURFACE(2,1,((#71,#72),(#73,#74),(#75,#76)),.UNSPECIFIED.,.F.,.F.,.F.)B_SPLINE_SURFACE_WITH_KNOTS((3,3),(2,2),(0.00000000000000000E0,1.00000000000000000E0),(0.00000000000000000E0,1.00000000000000000E0),.UNSPECIFIED.)GEOMETRIC_REPRESENTATION_ITEM()RATIONAL_B_SPLINE_SURFACE(((1.00000000000000000E0,1.00000000000000000E0),(1.00000000000000000E0,1.00000000000000000E0),(2.00000000000000000E0,2.00000000000000000E0)))REPRESENTATION_ITEM('')SURFACE());
#78=CARTESIAN_POINT('',(1.79776142241829149E1,-5.40306550507415473E0,2.33260869023554847E1));
#79=CARTESIAN_POINT('',(1.83597043545874783E1,-5.25486681905794573E0,2.36125206324057260E1));
#80=CARTESIAN_POINT('',(1.81884959212474904E1,-4.96374404653150059E0,2.39812145483709642E1));
#81=CARTESIAN_POINT('',(1.85117142226424676E1,-5.19590779103124856E0,2.25064388845100041E1));
#82=CARTESIAN_POINT('',(1.92758944834515908E1,-4.89951041899883055E0,2.30793063446104867E1));
#83=CARTESIAN_POINT('',(1.85609867690095562E1,-4.64050446023871910E0,2.38989543624559673E1));
#84=CARTESIAN_POINT('',(1.81500987906775038E1,-4.26358044542521419E0,2.25064388845100041E1));
#85=CARTESIAN_POINT('',(1.89142790514866306E1,-3.96718307339279619E0,2.30793063446104867E1));
#86=CARTESIAN_POINT('',(1.83801790530270779E1,-4.17434078743570236E0,2.38989543624559673E1));
#87=(BOUNDED_SURFACE()B_SPLINE_SURFACE(2,2,((#78,#79,#80),(#81,#82,#83),(#84,#85,#86)),.UNSPECIFIED.,.F.,.F.,.F.)B_SPLINE_SURFACE_WITH_KNOTS((3,3),(3,3),(0.00000000000000000E0,1.00000000000000000E0),(0.00000000000000000E0,1.00000000000000000E0),.UNSPECIFIED.)GEOMETRIC_REPRESENTATION_ITEM()RATIONAL_B_SPLINE_SURFACE(((2.00000000000000000E0,2.00000000000000000E0,3.00000000000000000E0),(1.00000000000000000E0,1.00000000000000000E0,2.00000000000000000E0),(1.00000000000000000E0,1.00000000000000000E0,2.00000000000000000E0)))REPRESENTATION_ITEM('')SURFACE());
#88=CARTESIAN_POINT('',(5.53656842888334211E0,-1.64781165873216962E0,2.22685198506785476E1));
#89=CARTESIAN_POINT('',(8.42949188460303844E0,-9.10643042358044852E0,2.22685198506785476E1));
#90=B_SPLINE_CURVE_WITH_KNOTS('',1,(#88,#89),.UNSPECIFIED.,.F.,.F.,(2,2),(0.00000000000000000E0,1.00000000000000000E0),.UNSPECIFIED.);
#91=CARTESIAN_POINT('',(8.42949188460303844E0,-9.10643042358044852E0,2.22685198506785476E1));
#92=CARTESIAN_POINT('',(1.53071142318851514E1,-6.43885407528868559E0,2.74243269915828805E1));
#93=B_SPLINE_CURVE_WITH_KNOTS('',1,(#91,#92),.UNSPECIFIED.,.F.,.F.,(2,2),(0.00000000000000000E0,1.00000000000000000E0),.UNSPECIFIED.);
#94=CARTESIAN_POINT('',(1.53071142318851514E1,-6.43885407528868559E0,2.74243269915828805E1));
#95=CARTESIAN_POINT('',(1.60712944926942747E1,-6.14245670325626847E0,2.79971944516833631E1));
#96=CARTESIAN_POINT('',(1.57096790607293109E1,-5.21012935765023322E0,2.79971944516833631E1));
#97=(BOUNDED_CURVE()B_SPLINE_CURVE(2,(#94,#95,#96),.UNSPECIFIED.,.F.,.F.)B_SPLINE_CURVE_WITH_KNOTS((3,3),(0.00000000000000000E0,1.00000000000000000E0),.UNSPECIFIED.)CURVE()GEOMETRIC_REPRESENTATION_ITEM()RATIONAL_B_SPLINE_CURVE((1.00000000000000000E0,7.07106781186547573E-1,1.00000000000000000E0))REPRESENTATION_ITEM(''));
#98=CARTESIAN_POINT('',(1.31783710369745766E1,1.31616206159200910E0,2.79971944516833631E1));
#99=CARTESIAN_POINT('',(1.57096790607293109E1,-5.21012935765023322E0,2.79971944516833631E1));
#100=B_SPLINE_CURVE_WITH_KNOTS('',1,(#98,#99),.UNSPECIFIED.,.F.,.F.,(2,2),(0.00000000000000000E0,1.00000000000000000E0),.UNSPECIFIED.);
#101=CARTESIAN_POINT('',(5.53656842888334211E0,-1.64781165873216962E0,2.22685198506785476E1));
#102=CARTESIAN_POINT('',(1.31783710369745766E1,1.31616206159200910E0,2.79971944516833631E1));
#103=B_SPLINE_CURVE_WITH_KNOTS('',1,(#101,#102),.UNSPECIFIED.,.F.,.F.,(2,2),(0.00000000000000000E0,1.00000000000000000E0),.UNSPECIFIED.);
#104=CARTESIAN_POINT('',(8.74116841964065827E0,-4.04865374474732143E-1,1.73506317436056712E1));
#105=CARTESIAN_POINT('',(1.56187907669227712E1,2.26271097381702901E0,2.25064388845100041E1));
#106=B_SPLINE_CURVE_WITH_KNOTS('',1,(#104,#105),.UNSPECIFIED.,.F.,.F.,(2,2),(0.00000000000000000E0,1.00000000000000000E0),.UNSPECIFIED.);
#107=CARTESIAN_POINT('',(1.81500987906775038E1,-4.26358044542521419E0,2.25064388845100041E1));
#108=CARTESIAN_POINT('',(1.56187907669227712E1,2.26271097381702901E0,2.25064388845100041E1));
#109=B_SPLINE_CURVE_WITH_KNOTS('',1,(#107,#108),.UNSPECIFIED.,.F.,.F.,(2,2),(0.00000000000000000E0,1.00000000000000000E0),.UNSPECIFIED.);
#110=CARTESIAN_POINT('',(1.81500987906775038E1,-4.26358044542521419E0,2.25064388845100041E1));
#111=CARTESIAN_POINT('',(1.12724764433953926E1,-6.93115679371697624E0,1.73506317436056712E1));
#112=B_SPLINE_CURVE_WITH_KNOTS('',1,(#110,#111),.UNSPECIFIED.,.F.,.F.,(2,2),(0.00000000000000000E0,1.00000000000000000E0),.UNSPECIFIED.);
#113=CARTESIAN_POINT('',(8.74116841964065827E0,-4.04865374474732143E-1,1.73506317436056712E1));
#114=CARTESIAN_POINT('',(1.12724764433953926E1,-6.93115679371697624E0,1.73506317436056712E1));
#115=B_SPLINE_CURVE_WITH_KNOTS('',1,(#113,#114),.UNSPECIFIED.,.F.,.F.,(2,2),(0.00000000000000000E0,1.00000000000000000E0),.UNSPECIFIED.);
#116=CARTESIAN_POINT('',(1.31783710369745766E1,1.31616206159200910E0,2.79971944516833631E1));
#117=CARTESIAN_POINT('',(1.58488710292723418E1,2.35195063180654085E0,2.38989543624559673E1));
#118=B_SPLINE_CURVE_WITH_KNOTS('',1,(#116,#117),.UNSPECIFIED.,.F.,.F.,(2,2),(0.00000000000000000E0,1.00000000000000000E0),.UNSPECIFIED.);
#119=CARTESIAN_POINT('',(1.58488710292723418E1,2.35195063180654085E0,2.38989543624559673E1));
#120=CARTESIAN_POINT('',(1.63829710277318945E1,2.55910834584944702E0,2.30793063446104867E1));
#121=CARTESIAN_POINT('',(1.56187907669227712E1,2.26271097381702901E0,2.25064388845100041E1));
#122=(BOUNDED_CURVE()B_SPLINE_CURVE(2,(#119,#120,#121),.UNSPECIFIED.,.F.,.F.)B_SPLINE_CURVE_WITH_KNOTS((3,3),(0.00000000000000000E0,1.00000000000000000E0),.UNSPECIFIED.)CURVE()GEOMETRIC_REPRESENTATION_ITEM()RATIONAL_B_SPLINE_CURVE((2.00000000000000000E0,1.00000000000000000E0,1.00000000000000000E0))REPRESENTATION_ITEM(''));
#123=CARTESIAN_POINT('',(5.53656842888334211E0,-1.64781165873216962E0,2.22685198506785476E1));
#124=CARTESIAN_POINT('',(8.74116841964065827E0,-4.04865374474732143E-1,1.73506317436056712E1));
#125=B_SPLINE_CURVE_WITH_KNOTS('',1,(#123,#124),.UNSPECIFIED.,.F.,.F.,(2,2),(0.00000000000000000E0,1.00000000000000000E0),.UNSPECIFIED.);
#126=CARTESIAN_POINT('',(1.10999918769008019E1,-8.07064185336591677E0,1.81702797614511482E1));
#127=CARTESIAN_POINT('',(1.16340918753603546E1,-7.86348413932300971E0,1.73506317436056712E1));
#128=CARTESIAN_POINT('',(1.12724764433953926E1,-6.93115679371697624E0,1.73506317436056712E1));
#129=(BOUNDED_CURVE()B_SPLINE_CURVE(2,(#126,#127,#128),.UNSPECIFIED.,.F.,.F.)B_SPLINE_CURVE_WITH_KNOTS((3,3),(0.00000000000000000E0,1.00000000000000000E0),.UNSPECIFIED.)CURVE()GEOMETRIC_REPRESENTATION_ITEM()RATIONAL_B_SPLINE_CURVE((2.00000000000000000E0,1.00000000000000000E0,1.00000000000000000E0))REPRESENTATION_ITEM(''));
#130=CARTESIAN_POINT('',(8.42949188460303844E0,-9.10643042358044852E0,2.22685198506785476E1));
#131=CARTESIAN_POINT('',(1.10999918769008019E1,-8.07064185336591677E0,1.81702797614511482E1));
#132=B_SPLINE_CURVE_WITH_KNOTS('',1,(#130,#131),.UNSPECIFIED.,.F.,.F.,(2,2),(0.00000000000000000E0,1.00000000000000000E0),.UNSPECIFIED.);
#133=CARTESIAN_POINT('',(1.79776142241829149E1,-5.40306550507415473E0,2.33260869023554847E1));
#134=CARTESIAN_POINT('',(1.10999918769008019E1,-8.07064185336591677E0,1.81702797614511482E1));
#135=B_SPLINE_CURVE_WITH_KNOTS('',1,(#133,#134),.UNSPECIFIED.,.F.,.F.,(2,2),(0.00000000000000000E0,1.00000000000000000E0),.UNSPECIFIED.);
#136=CARTESIAN_POINT('',(1.53071142318851514E1,-6.43885407528868559E0,2.74243269915828805E1));
#137=CARTESIAN_POINT('',(1.79776142241829149E1,-5.40306550507415473E0,2.33260869023554847E1));
#138=B_SPLINE_CURVE_WITH_KNOTS('',1,(#136,#137),.UNSPECIFIED.,.F.,.F.,(2,2),(0.00000000000000000E0,1.00000000000000000E0),.UNSPECIFIED.);
#139=CARTESIAN_POINT('',(1.57096790607293109E1,-5.21012935765023322E0,2.79971944516833631E1));
#140=CARTESIAN_POINT('',(1.83801790530270779E1,-4.17434078743570236E0,2.38989543624559673E1));
#141=B_SPLINE_CURVE_WITH_KNOTS('',1,(#139,#140),.UNSPECIFIED.,.F.,.F.,(2,2),(0.00000000000000000E0,1.00000000000000000E0),.UNSPECIFIED.);
#142=CARTESIAN_POINT('',(1.83801790530270779E1,-4.17434078743570236E0,2.38989543624559673E1));
#143=CARTESIAN_POINT('',(1.58488710292723418E1,2.35195063180654085E0,2.38989543624559673E1));
#144=B_SPLINE_CURVE_WITH_KNOTS('',1,(#142,#143),.UNSPECIFIED.,.F.,.F.,(2,2),(0.00000000000000000E0,1.00000000000000000E0),.UNSPECIFIED.);
#145=CARTESIAN_POINT('',(1.79776142241829149E1,-5.40306550507415473E0,2.33260869023554847E1));
#146=CARTESIAN_POINT('',(1.87417944849920382E1,-5.10666813304173672E0,2.38989543624559673E1));
#147=CARTESIAN_POINT('',(1.83801790530270779E1,-4.17434078743570236E0,2.38989543624559673E1));
#148=(BOUNDED_CURVE()B_SPLINE_CURVE(2,(#145,#146,#147),.UNSPECIFIED.,.F.,.F.)B_SPLINE_CURVE_WITH_KNOTS((3,3),(0.00000000000000000E0,1.00000000000000000E0),.UNSPECIFIED.)CURVE()GEOMETRIC_REPRESENTATION_ITEM()RATIONAL_B_SPLINE_CURVE((1.00000000000000000E0,7.07106781186547573E-1,1.00000000000000000E0))REPRESENTATION_ITEM(''));
#149=CARTESIAN_POINT('',(1.79776142241829149E1,-5.40306550507415473E0,2.33260869023554847E1));
#150=CARTESIAN_POINT('',(1.85117142226424676E1,-5.19590779103124856E0,2.25064388845100041E1));
#151=CARTESIAN_POINT('',(1.81500987906775038E1,-4.26358044542521419E0,2.25064388845100041E1));
#152=(BOUNDED_CURVE()B_SPLINE_CURVE(2,(#149,#150,#151),.UNSPECIFIED.,.F.,.F.)B_SPLINE_CURVE_WITH_KNOTS((3,3),(0.00000000000000000E0,1.00000000000000000E0),.UNSPECIFIED.)CURVE()GEOMETRIC_REPRESENTATION_ITEM()RATIONAL_B_SPLINE_CURVE((2.00000000000000000E0,1.00000000000000000E0,1.00000000000000000E0))REPRESENTATION_ITEM(''));
#153=CARTESIAN_POINT('',(1.83801790530270779E1,-4.17434078743570236E0,2.38989543624559673E1));
#154=CARTESIAN_POINT('',(1.89142790514866306E1,-3.96718307339279619E0,2.30793063446104867E1));
#155=CARTESIAN_POINT('',(1.81500987906775038E1,-4.26358044542521419E0,2.25064388845100041E1));
#156=(BOUNDED_CURVE()B_SPLINE_CURVE(2,(#153,#154,#155),.UNSPECIFIED.,.F.,.F.)B_SPLINE_CURVE_WITH_KNOTS((3,3),(0.00000000000000000E0,1.00000000000000000E0),.UNSPECIFIED.)CURVE()GEOMETRIC_REPRESENTATION_ITEM()RATIONAL_B_SPLINE_CURVE((2.00000000000000000E0,1.00000000000000000E0,1.00000000000000000E0))REPRESENTATION_ITEM(''));
#157=(GEOMETRIC_REPRESENTATION_CONTEXT(2)REPRESENTATION_CONTEXT('','2D'));
#158=CARTESIAN_POINT('',(0.00000000000000000E0,0.00000000000000000E0));
#159=CARTESIAN_POINT('',(1.00000000000000000E0,0.00000000000000000E0));
#160=B_SPLINE_CURVE_WITH_KNOTS('',1,(#158,#159),.UNSPECIFIED.,.F.,.F.,(2,2),(0.00000000000000000E0,1.00000000000000000E0),.UNSPECIFIED.);
#161=DEFINITIONAL_REPRESENTATION('',(#160),#157);
#162=PCURVE('',#31,#161);
#163=CARTESIAN_POINT('',(1.00000000000000000E0,0.00000000000000000E0));
#164=CARTESIAN_POINT('',(1.00000000000000000E0,9.00000000000000022E-1));
#165=B_SPLINE_CURVE_WITH_KNOTS('',1,(#163,#164),.UNSPECIFIED.,.F.,.F.,(2,2),(0.00000000000000000E0,1.00000000000000000E0),.UNSPECIFIED.);
#166=DEFINITIONAL_REPRESENTATION('',(#165),#157);
#167=PCURVE('',#31,#166);
#168=CARTESIAN_POINT('',(1.00000000000000000E0,9.00000000000000022E-1));
#169=CARTESIAN_POINT('',(1.00000000000000000E0,1.00000000000000000E0));
#170=CARTESIAN_POINT('',(8.75000000000000000E-1,1.00000000000000000E0));
#171=(BOUNDED_CURVE()B_SPLINE_CURVE(2,(#168,#169,#170),.UNSPECIFIED.,.F.,.F.)B_SPLINE_CURVE_WITH_KNOTS((3,3),(0.00000000000000000E0,1.00000000000000000E0),.UNSPECIFIED.)CURVE()GEOMETRIC_REPRESENTATION_ITEM()RATIONAL_B_SPLINE_CURVE((1.00000000000000000E0,7.07106781186547573E-1,1.00000000000000000E0))REPRESENTATION_ITEM(''));
#172=DEFINITIONAL_REPRESENTATION('',(#171),#157);
#173=PCURVE('',#31,#172);
#174=CARTESIAN_POINT('',(8.75000000000000000E-1,1.00000000000000000E0));
#175=CARTESIAN_POINT('',(0.00000000000000000E0,1.00000000000000000E0));
#176=B_SPLINE_CURVE_WITH_KNOTS('',1,(#174,#175),.UNSPECIFIED.,.F.,.F.,(2,2),(0.00000000000000000E0,1.00000000000000000E0),.UNSPECIFIED.);
#177=DEFINITIONAL_REPRESENTATION('',(#176),#157);
#178=PCURVE('',#31,#177);
#179=CARTESIAN_POINT('',(0.00000000000000000E0,1.00000000000000000E0));
#180=CARTESIAN_POINT('',(0.00000000000000000E0,0.00000000000000000E0));
#181=B_SPLINE_CURVE_WITH_KNOTS('',1,(#179,#180),.UNSPECIFIED.,.F.,.F.,(2,2),(0.00000000000000000E0,1.00000000000000000E0),.UNSPECIFIED.);
#182=DEFINITIONAL_REPRESENTATION('',(#181),#157);
#183=PCURVE('',#31,#182);
#184=CARTESIAN_POINT('',(1.00000000000000000E0,0.00000000000000000E0));
#185=CARTESIAN_POINT('',(1.00000000000000000E0,9.00000000000000022E-1));
#186=B_SPLINE_CURVE_WITH_KNOTS('',1,(#184,#185),.UNSPECIFIED.,.F.,.F.,(2,2),(0.00000000000000000E0,1.00000000000000000E0),.UNSPECIFIED.);
#187=DEFINITIONAL_REPRESENTATION('',(#186),#157);
#188=PCURVE('',#36,#187);
#189=CARTESIAN_POINT('',(1.00000000000000000E0,9.00000000000000022E-1));
#190=CARTESIAN_POINT('',(1.25000000000000000E-1,9.00000000000000022E-1));
#191=B_SPLINE_CURVE_WITH_KNOTS('',1,(#189,#190),.UNSPECIFIED.,.F.,.F.,(2,2),(0.00000000000000000E0,1.00000000000000000E0),.UNSPECIFIED.);
#192=DEFINITIONAL_REPRESENTATION('',(#191),#157);
#193=PCURVE('',#36,#192);
#194=CARTESIAN_POINT('',(1.25000000000000000E-1,9.00000000000000022E-1));
#195=CARTESIAN_POINT('',(1.25000000000000000E-1,0.00000000000000000E0));
#196=B_SPLINE_CURVE_WITH_KNOTS('',1,(#194,#195),.UNSPECIFIED.,.F.,.F.,(2,2),(0.00000000000000000E0,1.00000000000000000E0),.UNSPECIFIED.);
#197=DEFINITIONAL_REPRESENTATION('',(#196),#157);
#198=PCURVE('',#36,#197);
#199=CARTESIAN_POINT('',(1.25000000000000000E-1,0.00000000000000000E0));
#200=CARTESIAN_POINT('',(1.00000000000000000E0,0.00000000000000000E0));
#201=B_SPLINE_CURVE_WITH_KNOTS('',1,(#199,#200),.UNSPECIFIED.,.F.,.F.,(2,2),(0.00000000000000000E0,1.00000000000000000E0),.UNSPECIFIED.);
#202=DEFINITIONAL_REPRESENTATION('',(#201),#157);
#203=PCURVE('',#36,#202);
#204=CARTESIAN_POINT('',(0.00000000000000000E0,0.00000000000000000E0));
#205=CARTESIAN_POINT('',(1.00000000000000000E0,0.00000000000000000E0));
#206=B_SPLINE_CURVE_WITH_KNOTS('',1,(#204,#205),.UNSPECIFIED.,.F.,.F.,(2,2),(0.00000000000000000E0,1.00000000000000000E0),.UNSPECIFIED.);
#207=DEFINITIONAL_REPRESENTATION('',(#206),#157);
#208=PCURVE('',#41,#207);
#209=CARTESIAN_POINT('',(1.00000000000000000E0,0.00000000000000000E0));
#210=CARTESIAN_POINT('',(1.00000000000000000E0,8.33333333333333370E-1));
#211=B_SPLINE_CURVE_WITH_KNOTS('',1,(#209,#210),.UNSPECIFIED.,.F.,.F.,(2,2),(0.00000000000000000E0,1.00000000000000000E0),.UNSPECIFIED.);
#212=DEFINITIONAL_REPRESENTATION('',(#211),#157);
#213=PCURVE('',#41,#212);
#214=CARTESIAN_POINT('',(1.00000000000000000E0,8.33333333333333370E-1));
#215=CARTESIAN_POINT('',(1.00000000000000000E0,1.00000000000000000E0));
#216=CARTESIAN_POINT('',(9.00000000000000022E-1,1.00000000000000000E0));
#217=(BOUNDED_CURVE()B_SPLINE_CURVE(2,(#214,#215,#216),.UNSPECIFIED.,.F.,.F.)B_SPLINE_CURVE_WITH_KNOTS((3,3),(0.00000000000000000E0,1.00000000000000000E0),.UNSPECIFIED.)CURVE()GEOMETRIC_REPRESENTATION_ITEM()RATIONAL_B_SPLINE_CURVE((2.00000000000000000E0,1.00000000000000000E0,1.00000000000000000E0))REPRESENTATION_ITEM(''));
#218=DEFINITIONAL_REPRESENTATION('',(#217),#157);
#219=PCURVE('',#41,#218);
#220=CARTESIAN_POINT('',(9.00000000000000022E-1,1.00000000000000000E0));
#221=CARTESIAN_POINT('',(0.00000000000000000E0,1.00000000000000000E0));
#222=B_SPLINE_CURVE_WITH_KNOTS('',1,(#220,#221),.UNSPECIFIED.,.F.,.F.,(2,2),(0.00000000000000000E0,1.00000000000000000E0),.UNSPECIFIED.);
#223=DEFINITIONAL_REPRESENTATION('',(#222),#157);
#224=PCURVE('',#41,#223);
#225=CARTESIAN_POINT('',(0.00000000000000000E0,1.00000000000000000E0));
#226=CARTESIAN_POINT('',(0.00000000000000000E0,0.00000000000000000E0));
#227=B_SPLINE_CURVE_WITH_KNOTS('',1,(#225,#226),.UNSPECIFIED.,.F.,.F.,(2,2),(0.00000000000000000E0,1.00000000000000000E0),.UNSPECIFIED.);
#228=DEFINITIONAL_REPRESENTATION('',(#227),#157);
#229=PCURVE('',#41,#228);
#230=CARTESIAN_POINT('',(1.00000000000000000E0,0.00000000000000000E0));
#231=CARTESIAN_POINT('',(1.00000000000000000E0,1.00000000000000000E0));
#232=B_SPLINE_CURVE_WITH_KNOTS('',1,(#230,#231),.UNSPECIFIED.,.F.,.F.,(2,2),(0.00000000000000000E0,1.00000000000000000E0),.UNSPECIFIED.);
#233=DEFINITIONAL_REPRESENTATION('',(#232),#157);
#234=PCURVE('',#46,#233);
#235=CARTESIAN_POINT('',(1.00000000000000000E0,1.00000000000000000E0));
#236=CARTESIAN_POINT('',(1.25000000000000000E-1,1.00000000000000000E0));
#237=B_SPLINE_CURVE_WITH_KNOTS('',1,(#235,#236),.UNSPECIFIED.,.F.,.F.,(2,2),(0.00000000000000000E0,1.00000000000000000E0),.UNSPECIFIED.);
#238=DEFINITIONAL_REPRESENTATION('',(#237),#157);
#239=PCURVE('',#46,#238);
#240=CARTESIAN_POINT('',(1.25000000000000000E-1,1.00000000000000000E0));
#241=CARTESIAN_POINT('',(0.00000000000000000E0,1.00000000000000000E0));
#242=CARTESIAN_POINT('',(0.00000000000000000E0,8.33333333333333370E-1));
#243=(BOUNDED_CURVE()B_SPLINE_CURVE(2,(#240,#241,#242),.UNSPECIFIED.,.F.,.F.)B_SPLINE_CURVE_WITH_KNOTS((3,3),(0.00000000000000000E0,1.00000000000000000E0),.UNSPECIFIED.)CURVE()GEOMETRIC_REPRESENTATION_ITEM()RATIONAL_B_SPLINE_CURVE((1.00000000000000000E0,1.00000000000000000E0,2.00000000000000000E0))REPRESENTATION_ITEM(''));
#244=DEFINITIONAL_REPRESENTATION('',(#243),#157);
#245=PCURVE('',#46,#244);
#246=CARTESIAN_POINT('',(0.00000000000000000E0,8.33333333333333370E-1));
#247=CARTESIAN_POINT('',(0.00000000000000000E0,0.00000000000000000E0));
#248=B_SPLINE_CURVE_WITH_KNOTS('',1,(#246,#247),.UNSPECIFIED.,.F.,.F.,(2,2),(0.00000000000000000E0,1.00000000000000000E0),.UNSPECIFIED.);
#249=DEFINITIONAL_REPRESENTATION('',(#248),#157);
#250=PCURVE('',#46,#249);
#251=CARTESIAN_POINT('',(0.00000000000000000E0,0.00000000000000000E0));
#252=CARTESIAN_POINT('',(1.00000000000000000E0,0.00000000000000000E0));
#253=B_SPLINE_CURVE_WITH_KNOTS('',1,(#251,#252),.UNSPECIFIED.,.F.,.F.,(2,2),(0.00000000000000000E0,1.00000000000000000E0),.UNSPECIFIED.);
#254=DEFINITIONAL_REPRESENTATION('',(#253),#157);
#255=PCURVE('',#46,#254);
#256=CARTESIAN_POINT('',(1.00000000000000000E0,0.00000000000000000E0));
#257=CARTESIAN_POINT('',(1.00000000000000000E0,8.33333333333333370E-1));
#258=B_SPLINE_CURVE_WITH_KNOTS('',1,(#256,#257),.UNSPECIFIED.,.F.,.F.,(2,2),(0.00000000000000000E0,1.00000000000000000E0),.UNSPECIFIED.);
#259=DEFINITIONAL_REPRESENTATION('',(#258),#157);
#260=PCURVE('',#51,#259);
#261=CARTESIAN_POINT('',(1.00000000000000000E0,8.33333333333333370E-1));
#262=CARTESIAN_POINT('',(9.99999999999999778E-2,8.33333333333333370E-1));
#263=B_SPLINE_CURVE_WITH_KNOTS('',1,(#261,#262),.UNSPECIFIED.,.F.,.F.,(2,2),(0.00000000000000000E0,1.00000000000000000E0),.UNSPECIFIED.);
#264=DEFINITIONAL_REPRESENTATION('',(#263),#157);
#265=PCURVE('',#51,#264);
#266=CARTESIAN_POINT('',(9.99999999999999778E-2,8.33333333333333370E-1));
#267=CARTESIAN_POINT('',(9.99999999999999778E-2,0.00000000000000000E0));
#268=B_SPLINE_CURVE_WITH_KNOTS('',1,(#266,#267),.UNSPECIFIED.,.F.,.F.,(2,2),(0.00000000000000000E0,1.00000000000000000E0),.UNSPECIFIED.);
#269=DEFINITIONAL_REPRESENTATION('',(#268),#157);
#270=PCURVE('',#51,#269);
#271=CARTESIAN_POINT('',(9.99999999999999778E-2,0.00000000000000000E0));
#272=CARTESIAN_POINT('',(1.00000000000000000E0,0.00000000000000000E0));
#273=B_SPLINE_CURVE_WITH_KNOTS('',1,(#271,#272),.UNSPECIFIED.,.F.,.F.,(2,2),(0.00000000000000000E0,1.00000000000000000E0),.UNSPECIFIED.);
#274=DEFINITIONAL_REPRESENTATION('',(#273),#157);
#275=PCURVE('',#51,#274);
#276=CARTESIAN_POINT('',(0.00000000000000000E0,0.00000000000000000E0));
#277=CARTESIAN_POINT('',(8.75000000000000000E-1,0.00000000000000000E0));
#278=B_SPLINE_CURVE_WITH_KNOTS('',1,(#276,#277),.UNSPECIFIED.,.F.,.F.,(2,2),(0.00000000000000000E0,1.00000000000000000E0),.UNSPECIFIED.);
#279=DEFINITIONAL_REPRESENTATION('',(#278),#157);
#280=PCURVE('',#56,#279);
#281=CARTESIAN_POINT('',(8.75000000000000000E-1,0.00000000000000000E0));
#282=CARTESIAN_POINT('',(8.75000000000000000E-1,8.33333333333333370E-1));
#283=B_SPLINE_CURVE_WITH_KNOTS('',1,(#281,#282),.UNSPECIFIED.,.F.,.F.,(2,2),(0.00000000000000000E0,1.00000000000000000E0),.UNSPECIFIED.);
#284=DEFINITIONAL_REPRESENTATION('',(#283),#157);
#285=PCURVE('',#56,#284);
#286=CARTESIAN_POINT('',(8.75000000000000000E-1,8.33333333333333370E-1));
#287=CARTESIAN_POINT('',(0.00000000000000000E0,8.33333333333333370E-1));
#288=B_SPLINE_CURVE_WITH_KNOTS('',1,(#286,#287),.UNSPECIFIED.,.F.,.F.,(2,2),(0.00000000000000000E0,1.00000000000000000E0),.UNSPECIFIED.);
#289=DEFINITIONAL_REPRESENTATION('',(#288),#157);
#290=PCURVE('',#56,#289);
#291=CARTESIAN_POINT('',(0.00000000000000000E0,8.33333333333333370E-1));
#292=CARTESIAN_POINT('',(0.00000000000000000E0,0.00000000000000000E0));
#293=B_SPLINE_CURVE_WITH_KNOTS('',1,(#291,#292),.UNSPECIFIED.,.F.,.F.,(2,2),(0.00000000000000000E0,1.00000000000000000E0),.UNSPECIFIED.);
#294=DEFINITIONAL_REPRESENTATION('',(#293),#157);
#295=PCURVE('',#56,#294);
#296=CARTESIAN_POINT('',(1.00000000000000000E0,0.00000000000000000E0));
#297=CARTESIAN_POINT('',(1.00000000000000000E0,1.00000000000000000E0));
#298=B_SPLINE_CURVE_WITH_KNOTS('',1,(#296,#297),.UNSPECIFIED.,.F.,.F.,(2,2),(0.00000000000000000E0,1.00000000000000000E0),.UNSPECIFIED.);
#299=DEFINITIONAL_REPRESENTATION('',(#298),#157);
#300=PCURVE('',#63,#299);
#301=CARTESIAN_POINT('',(1.00000000000000000E0,1.00000000000000000E0));
#302=CARTESIAN_POINT('',(0.00000000000000000E0,1.00000000000000000E0));
#303=B_SPLINE_CURVE_WITH_KNOTS('',1,(#301,#302),.UNSPECIFIED.,.F.,.F.,(2,2),(0.00000000000000000E0,1.00000000000000000E0),.UNSPECIFIED.);
#304=DEFINITIONAL_REPRESENTATION('',(#303),#157);
#305=PCURVE('',#63,#304);
#306=CARTESIAN_POINT('',(0.00000000000000000E0,1.00000000000000000E0));
#307=CARTESIAN_POINT('',(0.00000000000000000E0,0.00000000000000000E0));
#308=B_SPLINE_CURVE_WITH_KNOTS('',1,(#306,#307),.UNSPECIFIED.,.F.,.F.,(2,2),(0.00000000000000000E0,1.00000000000000000E0),.UNSPECIFIED.);
#309=DEFINITIONAL_REPRESENTATION('',(#308),#157);
#310=PCURVE('',#63,#309);
#311=CARTESIAN_POINT('',(0.00000000000000000E0,0.00000000000000000E0));
#312=CARTESIAN_POINT('',(1.00000000000000000E0,0.00000000000000000E0));
#313=B_SPLINE_CURVE_WITH_KNOTS('',1,(#311,#312),.UNSPECIFIED.,.F.,.F.,(2,2),(0.00000000000000000E0,1.00000000000000000E0),.UNSPECIFIED.);
#314=DEFINITIONAL_REPRESENTATION('',(#313),#157);
#315=PCURVE('',#63,#314);
#316=CARTESIAN_POINT('',(0.00000000000000000E0,0.00000000000000000E0));
#317=CARTESIAN_POINT('',(1.00000000000000000E0,0.00000000000000000E0));
#318=B_SPLINE_CURVE_WITH_KNOTS('',1,(#316,#317),.UNSPECIFIED.,.F.,.F.,(2,2),(0.00000000000000000E0,1.00000000000000000E0),.UNSPECIFIED.);
#319=DEFINITIONAL_REPRESENTATION('',(#318),#157);
#320=PCURVE('',#70,#319);
#321=CARTESIAN_POINT('',(1.00000000000000000E0,0.00000000000000000E0));
#322=CARTESIAN_POINT('',(1.00000000000000000E0,1.00000000000000000E0));
#323=B_SPLINE_CURVE_WITH_KNOTS('',1,(#321,#322),.UNSPECIFIED.,.F.,.F.,(2,2),(0.00000000000000000E0,1.00000000000000000E0),.UNSPECIFIED.);
#324=DEFINITIONAL_REPRESENTATION('',(#323),#157);
#325=PCURVE('',#70,#324);
#326=CARTESIAN_POINT('',(1.00000000000000000E0,1.00000000000000000E0));
#327=CARTESIAN_POINT('',(0.00000000000000000E0,1.00000000000000000E0));
#328=B_SPLINE_CURVE_WITH_KNOTS('',1,(#326,#327),.UNSPECIFIED.,.F.,.F.,(2,2),(0.00000000000000000E0,1.00000000000000000E0),.UNSPECIFIED.);
#329=DEFINITIONAL_REPRESENTATION('',(#328),#157);
#330=PCURVE('',#70,#329);
#331=CARTESIAN_POINT('',(0.00000000000000000E0,1.00000000000000000E0));
#332=CARTESIAN_POINT('',(0.00000000000000000E0,0.00000000000000000E0));
#333=B_SPLINE_CURVE_WITH_KNOTS('',1,(#331,#332),.UNSPECIFIED.,.F.,.F.,(2,2),(0.00000000000000000E0,1.00000000000000000E0),.UNSPECIFIED.);
#334=DEFINITIONAL_REPRESENTATION('',(#333),#157);
#335=PCURVE('',#70,#334);
#336=CARTESIAN_POINT('',(1.00000000000000000E0,0.00000000000000000E0));
#337=CARTESIAN_POINT('',(1.00000000000000000E0,1.00000000000000000E0));
#338=B_SPLINE_CURVE_WITH_KNOTS('',1,(#336,#337),.UNSPECIFIED.,.F.,.F.,(2,2),(0.00000000000000000E0,1.00000000000000000E0),.UNSPECIFIED.);
#339=DEFINITIONAL_REPRESENTATION('',(#338),#157);
#340=PCURVE('',#77,#339);
#341=CARTESIAN_POINT('',(1.00000000000000000E0,1.00000000000000000E0));
#342=CARTESIAN_POINT('',(0.00000000000000000E0,1.00000000000000000E0));
#343=B_SPLINE_CURVE_WITH_KNOTS('',1,(#341,#342),.UNSPECIFIED.,.F.,.F.,(2,2),(0.00000000000000000E0,1.00000000000000000E0),.UNSPECIFIED.);
#344=DEFINITIONAL_REPRESENTATION('',(#343),#157);
#345=PCURVE('',#77,#344);
#346=CARTESIAN_POINT('',(0.00000000000000000E0,1.00000000000000000E0));
#347=CARTESIAN_POINT('',(0.00000000000000000E0,0.00000000000000000E0));
#348=B_SPLINE_CURVE_WITH_KNOTS('',1,(#346,#347),.UNSPECIFIED.,.F.,.F.,(2,2),(0.00000000000000000E0,1.00000000000000000E0),.UNSPECIFIED.);
#349=DEFINITIONAL_REPRESENTATION('',(#348),#157);
#350=PCURVE('',#77,#349);
#351=CARTESIAN_POINT('',(0.00000000000000000E0,0.00000000000000000E0));
#352=CARTESIAN_POINT('',(1.00000000000000000E0,0.00000000000000000E0));
#353=B_SPLINE_CURVE_WITH_KNOTS('',1,(#351,#352),.UNSPECIFIED.,.F.,.F.,(2,2),(0.00000000000000000E0,1.00000000000000000E0),.UNSPECIFIED.);
#354=DEFINITIONAL_REPRESENTATION('',(#353),#157);
#355=PCURVE('',#77,#354);
#356=CARTESIAN_POINT('',(1.00000000000000000E0,0.00000000000000000E0));
#357=CARTESIAN_POINT('',(1.00000000000000000E0,1.00000000000000000E0));
#358=B_SPLINE_CURVE_WITH_KNOTS('',1,(#356,#357),.UNSPECIFIED.,.F.,.F.,(2,2),(0.00000000000000000E0,1.00000000000000000E0),.UNSPECIFIED.);
#359=DEFINITIONAL_REPRESENTATION('',(#358),#157);
#360=PCURVE('',#87,#359);
#361=CARTESIAN_POINT('',(1.00000000000000000E0,1.00000000000000000E0));
#362=CARTESIAN_POINT('',(0.00000000000000000E0,1.00000000000000000E0));
#363=CARTESIAN_POINT('',(0.00000000000000000E0,0.00000000000000000E0));
#364=(BOUNDED_CURVE()B_SPLINE_CURVE(2,(#361,#362,#363),.UNSPECIFIED.,.F.,.F.)B_SPLINE_CURVE_WITH_KNOTS((3,3),(0.00000000000000000E0,1.00000000000000000E0),.UNSPECIFIED.)CURVE()GEOMETRIC_REPRESENTATION_ITEM()RATIONAL_B_SPLINE_CURVE((1.00000000000000000E0,7.07106781186547573E-1,1.00000000000000000E0))REPRESENTATION_ITEM(''));
#365=DEFINITIONAL_REPRESENTATION('',(#364),#157);
#366=PCURVE('',#87,#365);
#367=CARTESIAN_POINT('',(0.00000000000000000E0,0.00000000000000000E0));
#368=CARTESIAN_POINT('',(1.00000000000000000E0,0.00000000000000000E0));
#369=B_SPLINE_CURVE_WITH_KNOTS('',1,(#367,#368),.UNSPECIFIED.,.F.,.F.,(2,2),(0.00000000000000000E0,1.00000000000000000E0),.UNSPECIFIED.);
#370=DEFINITIONAL_REPRESENTATION('',(#369),#157);
#371=PCURVE('',#87,#370);
#372=SURFACE_CURVE('',#90,(#162,#255),.PCURVE_S1.);
#373=EDGE_CURVE('OSCAD_TOPO/3|edge|e:70357a1c1ab8ed958a1d2ab8c16c81ee|8bb730ac69c44cfa95fbcb62d0c7fb9eb397511d51d8e0292d9e8105d2cca680',#2,#4,#372,.T.);
#374=SURFACE_CURVE('',#93,(#167,#275),.PCURVE_S1.);
#375=EDGE_CURVE('OSCAD_TOPO/3|edge|e:76c007b38e38f53151531a6342cbca85|7bac008290fdb5d3d03fab16ae05bbca20c0793cdf269f45a21235878d44101a',#4,#6,#374,.T.);
#376=SURFACE_CURVE('',#97,(#173,#315),.PCURVE_S1.);
#377=EDGE_CURVE('OSCAD_TOPO/3|edge|e:16c8a22b0ddd2966c7e918af21f5a856|cef75fa6747712ec1c669c847f5442346b6ef8b5a3c677bb905b2ccf328b8d71',#6,#8,#376,.T.);
#378=SURFACE_CURVE('',#100,(#178,#280),.PCURVE_S1.);
#379=EDGE_CURVE('OSCAD_TOPO/3|edge|e:1c3ebbfe31d752f838090cdc3d37c68e|746a37727b550d1184f97e3322a5e597868e69c43d795d7ee3e55311a2084c28',#10,#8,#378,.T.);
#380=SURFACE_CURVE('',#103,(#183,#208),.PCURVE_S1.);
#381=EDGE_CURVE('OSCAD_TOPO/3|edge|e:a82d5a72971e4ed2afb27b6347f99dcc|c169c8a0f5d4cde820aa63f52d6b1a7cc15310def170a20fad4b54a0e08f4424',#2,#10,#380,.T.);
#382=SURFACE_CURVE('',#106,(#188,#224),.PCURVE_S1.);
#383=EDGE_CURVE('OSCAD_TOPO/3|edge|e:d9de1fb861e44943f16aa379b7b8c976|1c4fdb38cb99f5617ee6a7974cbb06b97a6fcf6cbb779198943bd88cea92647f',#12,#14,#382,.T.);
#384=SURFACE_CURVE('',#109,(#193,#350),.PCURVE_S1.);
#385=EDGE_CURVE('OSCAD_TOPO/3|edge|e:31a11f19a832824d9145799aaeb74f39|4a467ff6f87e71eb5f7f6e6ab39c1dade7497fe3aae56a8690ed6aeb9552de1e',#16,#14,#384,.T.);
#386=SURFACE_CURVE('',#112,(#198,#325),.PCURVE_S1.);
#387=EDGE_CURVE('OSCAD_TOPO/3|edge|e:e7fedb2831855cf8cdc43101bae9f27d|7cd0747a317aaefc548fa385d6272cb84c9d0cd81a05ba14eb68fd160bf3da6e',#16,#18,#386,.T.);
#388=SURFACE_CURVE('',#115,(#203,#239),.PCURVE_S1.);
#389=EDGE_CURVE('OSCAD_TOPO/3|edge|e:d78c8bf2faf76ed1111a009dfc25acba|736495de7e3954bccf70f2487691ef8d07103d451963002c12fccb71fe964385',#12,#18,#388,.T.);
#390=SURFACE_CURVE('',#118,(#213,#295),.PCURVE_S1.);
#391=EDGE_CURVE('OSCAD_TOPO/3|edge|e:8dcd522306f7fde193fcc9494976b079|c59022a6a27b88e54b37a9f2b8dee9eedd00fb4534d32d095371129f7519c4e6',#10,#20,#390,.T.);
#392=SURFACE_CURVE('',#122,(#219,#355),.PCURVE_S1.);
#393=EDGE_CURVE('OSCAD_TOPO/3|edge|e:4dd3a2f660452628cdf66e3abb29b975|fcb1b0ea16182e428dbc72a237be3e39c8157e93ca40ac54ee0ead32917ec35b',#20,#14,#392,.T.);
#394=SURFACE_CURVE('',#125,(#229,#234),.PCURVE_S1.);
#395=EDGE_CURVE('OSCAD_TOPO/3|edge|e:a9a3d4ca11838dfae606a73349b4aba5|cc7bc0e74174b98a1c3819556e729f26a940443d34fa838ea716eda760430ba9',#2,#12,#394,.T.);
#396=SURFACE_CURVE('',#129,(#245,#320),.PCURVE_S1.);
#397=EDGE_CURVE('OSCAD_TOPO/3|edge|e:dc2d4507ea07c616074c5d6aa4f0999a|ecebc6c623cb66a1ba4c8e7d2a263867db3cec258d51ec2ce83caa00a552afe0',#22,#18,#396,.T.);
#398=SURFACE_CURVE('',#132,(#250,#260),.PCURVE_S1.);
#399=EDGE_CURVE('OSCAD_TOPO/3|edge|e:952af268c88dff546491ed7591aa28c8|6e2541d027f1282c747e3cdd2a346c77582c15051b22384afe97899f51411abd',#4,#22,#398,.T.);
#400=SURFACE_CURVE('',#135,(#265,#335),.PCURVE_S1.);
#401=EDGE_CURVE('OSCAD_TOPO/3|edge|e:1e11f7f1a977ee8a59105d38427d41f2|ac59421f639f315acfe834cc4a90e11a951810d37f334beebfd73e7204b7598c',#24,#22,#400,.T.);
#402=SURFACE_CURVE('',#138,(#270,#300),.PCURVE_S1.);
#403=EDGE_CURVE('OSCAD_TOPO/3|edge|e:bd37656de0826da751638c2cb404f15f|aeeaa04e6650f332acee41ebe16bafa66a4d295b05a3b40571f1fef6d7283d37',#6,#24,#402,.T.);
#404=SURFACE_CURVE('',#141,(#285,#310),.PCURVE_S1.);
#405=EDGE_CURVE('OSCAD_TOPO/3|edge|e:35687b56314148b10b0d8ef604ff83b1|600ded6041ec01671e10ee7691f8a499a618917612a00f3b85d545841d161375',#8,#26,#404,.T.);
#406=SURFACE_CURVE('',#144,(#290,#340),.PCURVE_S1.);
#407=EDGE_CURVE('OSCAD_TOPO/3|edge|e:0b489651896db5188050a2261481066b|dc349b3b24998e47bf21b0c41e5fddb2771ee9fb76a18440e387738e13487fef',#26,#20,#406,.T.);
#408=SURFACE_CURVE('',#148,(#305,#366),.PCURVE_S1.);
#409=EDGE_CURVE('OSCAD_TOPO/3|edge|e:38f90bd56df2f1a3f3e967640fffea7e|d0ba79d6b0740883ad42e6e5fec2884062032e86f69fdb4cf12bd2fad8d0909f',#24,#26,#408,.T.);
#410=SURFACE_CURVE('',#152,(#330,#371),.PCURVE_S1.);
#411=EDGE_CURVE('OSCAD_TOPO/3|edge|e:c18bbaf14fb047bd8ce0da5738be5770|7dd38092c79c8d64ff53c583fdca9e793861d128231f8eda7e3da6e187ff8661',#24,#16,#410,.T.);
#412=SURFACE_CURVE('',#156,(#345,#360),.PCURVE_S1.);
#413=EDGE_CURVE('OSCAD_TOPO/3|edge|e:d6255764caaeee679efdf1abffa70b2d|ae058f18bede25bfcc553c6d1d116b56d656cadd3c16bf4547e2b73896ea41ea',#26,#16,#412,.T.);
#414=ORIENTED_EDGE('',*,*,#373,.T.);
#415=ORIENTED_EDGE('',*,*,#375,.T.);
#416=ORIENTED_EDGE('',*,*,#377,.T.);
#417=ORIENTED_EDGE('',*,*,#379,.F.);
#418=ORIENTED_EDGE('',*,*,#381,.F.);
#419=EDGE_LOOP('OSCAD_TOPO/3|loop|l:d287261ff4e54d898287e34fab345368|4a5d51a41c94e138ed124ae933b6f134789265d965eed356a1f19c879f77868c',(#414,#415,#416,#417,#418));
#420=ORIENTED_EDGE('',*,*,#383,.T.);
#421=ORIENTED_EDGE('',*,*,#385,.F.);
#422=ORIENTED_EDGE('',*,*,#387,.T.);
#423=ORIENTED_EDGE('',*,*,#389,.F.);
#424=EDGE_LOOP('OSCAD_TOPO/3|loop|l:c7c3526f73e615105fa94c77420f6427|5f54e547416dd8b28789acc7f3ff035991ba9b9f814e5c96e0a7e7982ba996e9',(#420,#421,#422,#423));
#425=ORIENTED_EDGE('',*,*,#381,.T.);
#426=ORIENTED_EDGE('',*,*,#391,.T.);
#427=ORIENTED_EDGE('',*,*,#393,.T.);
#428=ORIENTED_EDGE('',*,*,#383,.F.);
#429=ORIENTED_EDGE('',*,*,#395,.F.);
#430=EDGE_LOOP('OSCAD_TOPO/3|loop|l:7250fef22f57b1895bacb954acd119a9|3bd6d84392753e0559b75e291d5235232b6bc050426b659831f1c53c06316f5e',(#425,#426,#427,#428,#429));
#431=ORIENTED_EDGE('',*,*,#395,.T.);
#432=ORIENTED_EDGE('',*,*,#389,.T.);
#433=ORIENTED_EDGE('',*,*,#397,.F.);
#434=ORIENTED_EDGE('',*,*,#399,.F.);
#435=ORIENTED_EDGE('',*,*,#373,.F.);
#436=EDGE_LOOP('OSCAD_TOPO/3|loop|l:2f1493242be4fd3b7fa11eaea9ae159b|07c616186e0f9756cb82a9df98ad4c1ed24ebcf94f09947ffa677be130fe7765',(#431,#432,#433,#434,#435));
#437=ORIENTED_EDGE('',*,*,#399,.T.);
#438=ORIENTED_EDGE('',*,*,#401,.F.);
#439=ORIENTED_EDGE('',*,*,#403,.F.);
#440=ORIENTED_EDGE('',*,*,#375,.F.);
#441=EDGE_LOOP('OSCAD_TOPO/3|loop|l:988e7c4220d0c22a3572a28706015f24|195eb76c2b79bb4ad79f79fd11103b85ce3bfa7debf9b089b10479fd9d9e4073',(#437,#438,#439,#440));
#442=ORIENTED_EDGE('',*,*,#379,.T.);
#443=ORIENTED_EDGE('',*,*,#405,.T.);
#444=ORIENTED_EDGE('',*,*,#407,.T.);
#445=ORIENTED_EDGE('',*,*,#391,.F.);
#446=EDGE_LOOP('OSCAD_TOPO/3|loop|l:384572d10bb50d5e6e879fdb6918d93c|52b5c23d436e9bb1a283204379bc73aebb2b0703a95078c8b8de6a8e8f167c9f',(#442,#443,#444,#445));
#447=ORIENTED_EDGE('',*,*,#403,.T.);
#448=ORIENTED_EDGE('',*,*,#409,.T.);
#449=ORIENTED_EDGE('',*,*,#405,.F.);
#450=ORIENTED_EDGE('',*,*,#377,.F.);
#451=EDGE_LOOP('OSCAD_TOPO/3|loop|l:19be0faa21e223e488921a62ce9e2faa|3932147d191883f21ff54fd7db31978bb43e8f5f8bd3c890ab9fe608aac5c309',(#447,#448,#449,#450));
#452=ORIENTED_EDGE('',*,*,#397,.T.);
#453=ORIENTED_EDGE('',*,*,#387,.F.);
#454=ORIENTED_EDGE('',*,*,#411,.F.);
#455=ORIENTED_EDGE('',*,*,#401,.T.);
#456=EDGE_LOOP('OSCAD_TOPO/3|loop|l:10fd1f56a94d99be0927012ff6a1651f|d0730a5b07ad6e2b76c8c6feeaf8afdf58047e7242bd54af033e6ecda0e2f363',(#452,#453,#454,#455));
#457=ORIENTED_EDGE('',*,*,#407,.F.);
#458=ORIENTED_EDGE('',*,*,#413,.T.);
#459=ORIENTED_EDGE('',*,*,#385,.T.);
#460=ORIENTED_EDGE('',*,*,#393,.F.);
#461=EDGE_LOOP('OSCAD_TOPO/3|loop|l:06b5c051823b52b5e270ccdd14f31450|7350191306925d7a1c0b8a2fd79a9bc5f14154ce714f200249b86152325e0aaf',(#457,#458,#459,#460));
#462=ORIENTED_EDGE('',*,*,#413,.F.);
#463=ORIENTED_EDGE('',*,*,#409,.F.);
#464=ORIENTED_EDGE('',*,*,#411,.T.);
#465=EDGE_LOOP('OSCAD_TOPO/3|loop|l:9d7d792299e0f1f24c4cbf311e95c332|a454583d848da4b3ff400ab268da7410df252cfb7d76990938638f272642e0e0',(#462,#463,#464));
#466=FACE_OUTER_BOUND('',#419,.T.);
#467=ADVANCED_FACE('OSCAD_TOPO/3|face|f:b6f77e6f81f3ee22da43a7d1bf393bdb|1075bd01c99c87f6480cfde7e2b56285ec272eca5cbf7b5006676949ad7833ff',(#466),#31,.T.);
#468=FACE_OUTER_BOUND('',#424,.T.);
#469=ADVANCED_FACE('OSCAD_TOPO/3|face|f:0759565b362e34a214aa73b08e18d301|a38d3c663b28827a0b4103685c2cc10dfef80ab02a025397e6c9f9e119897051',(#468),#36,.T.);
#470=FACE_OUTER_BOUND('',#430,.T.);
#471=ADVANCED_FACE('OSCAD_TOPO/3|face|f:5dd86713af811e1c9680c313829f47ff|e7e5318cfed98f34757620162654730ca9e4b6f8a9917e153553fd04169cada1',(#470),#41,.T.);
#472=FACE_OUTER_BOUND('',#436,.T.);
#473=ADVANCED_FACE('OSCAD_TOPO/3|face|f:aad4e30a97b1ae4ddbc49df5af8a5375|0e91c37ee88afe7bb2a566bcbf8f23a27c09ae99abfddb70018c600e874e35ae',(#472),#46,.T.);
#474=FACE_OUTER_BOUND('',#441,.T.);
#475=ADVANCED_FACE('OSCAD_TOPO/3|face|f:81d0dc6b5e36dac7eb28d256d4cccd82|b9cf1af624f8918077defad6093ba4f62f27038fb2b407ef12630f0849f3a82c',(#474),#51,.T.);
#476=FACE_OUTER_BOUND('',#446,.T.);
#477=ADVANCED_FACE('OSCAD_TOPO/3|face|f:03c50b2bc47ad1cb77cc381e2521898c|f44fc32551e6fa4cb4a3e2d50619d7146a601fc80b9831b185b3c53d8ce56463',(#476),#56,.T.);
#478=FACE_OUTER_BOUND('',#451,.T.);
#479=ADVANCED_FACE('OSCAD_TOPO/3|face|f:f475db02eb45f45c079dd49f956ced73|41cbf2729082765dc83ab1985aba752e82477280ec2b1bd77558df455c0966b0',(#478),#63,.T.);
#480=FACE_OUTER_BOUND('',#456,.T.);
#481=ADVANCED_FACE('OSCAD_TOPO/3|face|f:baf6aca0fa552cca58d1d13df5f83c61|9baa853c867048e4c2153525a2ee7256cec8e113852ae9f677565c9591ef63dc',(#480),#70,.T.);
#482=FACE_OUTER_BOUND('',#461,.T.);
#483=ADVANCED_FACE('OSCAD_TOPO/3|face|f:a445f16d300acbbe1932c7a2294560dd|26c8ad0cc3b8bbd2aaa98893fe1d2b296b3e5aa8abb0fe6fb5e38053bdd615b0',(#482),#77,.T.);
#484=FACE_OUTER_BOUND('',#465,.T.);
#485=ADVANCED_FACE('OSCAD_TOPO/3|face|f:fb33531bb25147c8ca0f776dbcab0444|7b36b4fc891035aad781d80d87c3f2f54c158ee218b42f1cdc1c0cbcb41b0b26',(#484),#87,.T.);
#486=CLOSED_SHELL('OSCAD_TOPO/3|shell|s:83ab3f1cea699d23c0c159ad464ece64|215cc282ae056eaceff039d936b5d7fdacc5107b1ca6272e1500e6a7a1c2381f',(#467,#469,#471,#473,#475,#477,#479,#481,#483,#485));
#487=MANIFOLD_SOLID_BREP('OSCAD_TOPO/3|body|b:096f3eb42a7110c02443c4494ef35384|34fd39cf5fdd4623d571d9b4960dc45f61cdbdecbe204f3f2b4906688219ad7d',#486);
#488=(LENGTH_UNIT()NAMED_UNIT(*)SI_UNIT(.MILLI.,.METRE.));
#489=UNCERTAINTY_MEASURE_WITH_UNIT(LENGTH_MEASURE(9.99999999999999955E-8),#488,'distance_accuracy_value','');
#490=(GEOMETRIC_REPRESENTATION_CONTEXT(3)GLOBAL_UNCERTAINTY_ASSIGNED_CONTEXT((#489))GLOBAL_UNIT_ASSIGNED_CONTEXT((#488))REPRESENTATION_CONTEXT('','3D'));
#491=ADVANCED_BREP_SHAPE_REPRESENTATION('',(#487),#490);
#492=APPLICATION_CONTEXT('managed model based 3d engineering');
#493=PRODUCT_CONTEXT('',#492,'mechanical');
#494=PRODUCT('model','model','',(#493));
#495=PRODUCT_DEFINITION_FORMATION('1','',#494);
#496=PRODUCT_DEFINITION_CONTEXT('part definition',#492,'design');
#497=PRODUCT_DEFINITION('design','',#495,#496);
#498=PRODUCT_DEFINITION_SHAPE('','',#497);
#499=SHAPE_DEFINITION_REPRESENTATION(#498,#491);
ENDSEC;
END-ISO-10303-21;
