ISO-10303-21;
HEADER;
FILE_DESCRIPTION(('OpenSCAD Viewer retained AP242 B-rep'),'2;1');
FILE_NAME('model.step','',(''),(''),'OpenSCAD Viewer','OpenSCAD Viewer','');
FILE_SCHEMA(('AP242_MANAGED_MODEL_BASED_3D_ENGINEERING_MIM_LF'));
ENDSEC;
DATA;
#1=CARTESIAN_POINT('',(2.59993250014434878E1,-2.43086242941436659E0,3.08650226380548105E1));
#2=VERTEX_POINT('OSCAD_TOPO/3|vertex|v:2301485b2aa5130a3ffa2c3d4ddce85f|8dc2176457dbce8e16aceb11ec9dd9f82a6e824fb474d5d54ed4cb3ad2005a5c',#1);
#3=CARTESIAN_POINT('',(1.88696661209520009E1,-6.05963140081898644E0,3.08650226380548105E1));
#4=VERTEX_POINT('OSCAD_TOPO/3|vertex|v:e32f83585f806566311f9c54ce292366|b0271ffac8aa888b9bedea6e7c6de959f5d3441ef67038136af66479b1ce9049',#3);
#5=CARTESIAN_POINT('',(2.90605352735681386E1,-8.44540487444005450E0,2.34857089269551800E1));
#6=VERTEX_POINT('OSCAD_TOPO/3|vertex|v:3724d938b983564da0cdaba3ccf58913|7c9a20dcd9e9d75557b9b59c278c2555b842ad8841cce3df9fb27220ee998e24',#5);
#7=CARTESIAN_POINT('',(2.39909881545610588E1,1.51503678550618481E0,2.68157680776272045E1));
#8=VERTEX_POINT('OSCAD_TOPO/3|vertex|v:5e3f053d45cd321f45c6da8cc5f4c916|1b18388a4354f6edadda20af50ba36e5e3f8d4811931578b0adbaab18025f710',#7);
#9=CARTESIAN_POINT('',(2.11655738250454881E1,-1.05705382345882519E1,2.53305373547300867E1));
#10=VERTEX_POINT('OSCAD_TOPO/3|vertex|v:744c3fd92f4be96e113c31c71d977e51|febee236be1cd75c19444a495e6f9cd01eb5952f84f1163bdf476fd5f642c3ee',#9);
#11=CARTESIAN_POINT('',(2.41588947932302389E1,-1.09401835422807316E1,2.34857089269551800E1));
#12=VERTEX_POINT('OSCAD_TOPO/3|vertex|v:3a264065179fa7fa19259b03c692e921|3b16410e76a28bb4c4192eb55b3c6b3bc188047cc17b24f5e551b81200acc05f',#11);
#13=CARTESIAN_POINT('',(1.99940439976974069E1,-8.26876369255126420E0,2.29684721944806505E1));
#14=VERTEX_POINT('OSCAD_TOPO/3|vertex|v:f59756242e42ccfe8765b53a61a0d479|e25879c49d6baa628ec87a53c5f1ba26a7ab4f8e47dccca5d1ba0a126e6f3600',#13);
#15=CARTESIAN_POINT('',(2.29873649658821577E1,-8.63840900024374392E0,2.11236437667057437E1));
#16=VERTEX_POINT('OSCAD_TOPO/3|vertex|v:8257afb5e04bb620787d9ae2e627ba88|9ab18c90640d08c8b8062b3c85718a243b35b7347f1f71f94695bfb5442aba6a',#15);
#17=CARTESIAN_POINT('',(2.13852553783166535E1,-5.49064871610375782E0,2.12812827943024843E1));
#18=VERTEX_POINT('OSCAD_TOPO/3|vertex|v:ee421b7adaa0f59373a784de408ed16f|439835e5a2dd3b3d942883877fb71b993baf8b1cb08df20d4bf2c08c04e0acb2',#17);
#19=CARTESIAN_POINT('',(1.76981362936039162E1,-3.75785685878199871E0,2.85029574778053743E1));
#20=VERTEX_POINT('OSCAD_TOPO/3|vertex|v:4bd87fc40a0a2906167eb09e34ed0c84|97658db09ce04cd237dbe3f37a74deb3d674483f61b1d5cb8bbb6c48ea91a626',#19);
#21=CARTESIAN_POINT('',(1.90893476742231627E1,-9.79741882334492331E-1,2.68157680776272045E1));
#22=VERTEX_POINT('OSCAD_TOPO/3|vertex|v:65bcc1efda67fbf78cafb20ba134425e|c47d3e81226aba53926f7932d2dcdd40668dd81c24fc4ffcf43d7460330586c1',#21);
#23=CARTESIAN_POINT('',(2.78890054462200574E1,-6.14363033240306677E0,2.11236437667057437E1));
#24=VERTEX_POINT('OSCAD_TOPO/3|vertex|v:77c30dc6a7c0f79256257c932144ad3f|5b8709504c0deab25ff3597875ff60c1fe90557b7138a9224b71e685ed639e1f',#23);
#25=CARTESIAN_POINT('',(2.62868958586545496E1,-2.99587004826308156E0,2.12812827943024843E1));
#26=VERTEX_POINT('OSCAD_TOPO/3|vertex|v:8bcc57d7807fd26cc380856d23b2bc7a|cf7937d8e5c17d68c60bd17b8afc1951d6977b11080b272929a9a917feed7002',#25);
#27=CARTESIAN_POINT('',(2.59993250014434878E1,-2.43086242941436659E0,3.08650226380548105E1));
#28=CARTESIAN_POINT('',(2.90605352735681386E1,-8.44540487444005450E0,2.34857089269551800E1));
#29=CARTESIAN_POINT('',(1.88696661209520009E1,-6.05963140081898644E0,3.08650226380548105E1));
#30=CARTESIAN_POINT('',(2.19308763930766517E1,-1.20741738458446743E1,2.34857089269551800E1));
#31=B_SPLINE_SURFACE_WITH_KNOTS('',1,1,((#27,#28),(#29,#30)),.UNSPECIFIED.,.F.,.F.,.F.,(2,2),(2,2),(0.00000000000000000E0,1.00000000000000000E0),(0.00000000000000000E0,1.00000000000000000E0),.UNSPECIFIED.);
#32=CARTESIAN_POINT('',(1.68613292740695755E1,-2.11373218589843503E0,2.68157680776272045E1));
#33=CARTESIAN_POINT('',(1.99225395461942263E1,-8.12827463092412295E0,1.94364543665275775E1));
#34=CARTESIAN_POINT('',(2.39909881545610588E1,1.51503678550618481E0,2.68157680776272045E1));
#35=CARTESIAN_POINT('',(2.70521984266857132E1,-4.49950565951950310E0,1.94364543665275775E1));
#36=B_SPLINE_SURFACE_WITH_KNOTS('',1,1,((#32,#33),(#34,#35)),.UNSPECIFIED.,.F.,.F.,.F.,(2,2),(2,2),(0.00000000000000000E0,1.00000000000000000E0),(0.00000000000000000E0,1.00000000000000000E0),.UNSPECIFIED.);
#37=CARTESIAN_POINT('',(2.59993250014434878E1,-2.43086242941436659E0,3.08650226380548105E1));
#38=CARTESIAN_POINT('',(2.39909881545610588E1,1.51503678550618481E0,2.68157680776272045E1));
#39=CARTESIAN_POINT('',(2.90605352735681386E1,-8.44540487444005450E0,2.34857089269551800E1));
#40=CARTESIAN_POINT('',(2.70521984266857132E1,-4.49950565951950310E0,1.94364543665275775E1));
#41=B_SPLINE_SURFACE_WITH_KNOTS('',1,1,((#37,#38),(#39,#40)),.UNSPECIFIED.,.F.,.F.,.F.,(2,2),(2,2),(0.00000000000000000E0,1.00000000000000000E0),(0.00000000000000000E0,1.00000000000000000E0),.UNSPECIFIED.);
#42=CARTESIAN_POINT('',(1.88696661209520009E1,-6.05963140081898644E0,3.08650226380548105E1));
#43=CARTESIAN_POINT('',(1.68613292740695755E1,-2.11373218589843503E0,2.68157680776272045E1));
#44=CARTESIAN_POINT('',(2.59993250014434878E1,-2.43086242941436659E0,3.08650226380548105E1));
#45=CARTESIAN_POINT('',(2.39909881545610588E1,1.51503678550618481E0,2.68157680776272045E1));
#46=B_SPLINE_SURFACE_WITH_KNOTS('',1,1,((#42,#43),(#44,#45)),.UNSPECIFIED.,.F.,.F.,.F.,(2,2),(2,2),(0.00000000000000000E0,1.00000000000000000E0),(0.00000000000000000E0,1.00000000000000000E0),.UNSPECIFIED.);
#47=CARTESIAN_POINT('',(2.19308763930766517E1,-1.20741738458446743E1,2.34857089269551800E1));
#48=CARTESIAN_POINT('',(1.99225395461942263E1,-8.12827463092412295E0,1.94364543665275775E1));
#49=CARTESIAN_POINT('',(1.88696661209520009E1,-6.05963140081898644E0,3.08650226380548105E1));
#50=CARTESIAN_POINT('',(1.68613292740695755E1,-2.11373218589843503E0,2.68157680776272045E1));
#51=B_SPLINE_SURFACE_WITH_KNOTS('',1,1,((#47,#48),(#49,#50)),.UNSPECIFIED.,.F.,.F.,.F.,(2,2),(2,2),(0.00000000000000000E0,1.00000000000000000E0),(0.00000000000000000E0,1.00000000000000000E0),.UNSPECIFIED.);
#52=CARTESIAN_POINT('',(2.90605352735681386E1,-8.44540487444005450E0,2.34857089269551800E1));
#53=CARTESIAN_POINT('',(2.70521984266857132E1,-4.49950565951950310E0,1.94364543665275775E1));
#54=CARTESIAN_POINT('',(2.19308763930766517E1,-1.20741738458446743E1,2.34857089269551800E1));
#55=CARTESIAN_POINT('',(1.99225395461942263E1,-8.12827463092412295E0,1.94364543665275775E1));
#56=B_SPLINE_SURFACE_WITH_KNOTS('',1,1,((#52,#53),(#54,#55)),.UNSPECIFIED.,.F.,.F.,.F.,(2,2),(2,2),(0.00000000000000000E0,1.00000000000000000E0),(0.00000000000000000E0,1.00000000000000000E0),.UNSPECIFIED.);
#57=CARTESIAN_POINT('',(2.41588947932302389E1,-1.09401835422807316E1,2.34857089269551800E1));
#58=CARTESIAN_POINT('',(2.29873649658821577E1,-8.63840900024374392E0,2.11236437667057437E1));
#59=CARTESIAN_POINT('',(2.19308763930766517E1,-1.20741738458446743E1,2.34857089269551800E1));
#60=CARTESIAN_POINT('',(2.07593465657285705E1,-9.77239930380768662E0,2.11236437667057437E1));
#61=CARTESIAN_POINT('',(2.11655738250454881E1,-1.05705382345882519E1,2.53305373547300867E1));
#62=CARTESIAN_POINT('',(1.99940439976974069E1,-8.26876369255126420E0,2.29684721944806505E1));
#63=(BOUNDED_SURFACE()B_SPLINE_SURFACE(2,1,((#57,#58),(#59,#60),(#61,#62)),.UNSPECIFIED.,.F.,.F.,.F.)B_SPLINE_SURFACE_WITH_KNOTS((3,3),(2,2),(0.00000000000000000E0,1.00000000000000000E0),(0.00000000000000000E0,1.00000000000000000E0),.UNSPECIFIED.)GEOMETRIC_REPRESENTATION_ITEM()RATIONAL_B_SPLINE_SURFACE(((1.00000000000000000E0,1.00000000000000000E0),(7.07106781186547573E-1,7.07106781186547573E-1),(1.00000000000000000E0,1.00000000000000000E0)))REPRESENTATION_ITEM('')SURFACE());
#64=CARTESIAN_POINT('',(1.76981362936039162E1,-3.75785685878199871E0,2.85029574778053743E1));
#65=CARTESIAN_POINT('',(1.99940439976974069E1,-8.26876369255126420E0,2.29684721944806505E1));
#66=CARTESIAN_POINT('',(1.68613292740695755E1,-2.11373218589843503E0,2.68157680776272045E1));
#67=CARTESIAN_POINT('',(1.91572369781630627E1,-6.62463901966770141E0,2.12812827943024843E1));
#68=CARTESIAN_POINT('',(1.90893476742231627E1,-9.79741882334492331E-1,2.68157680776272045E1));
#69=CARTESIAN_POINT('',(2.13852553783166535E1,-5.49064871610375782E0,2.12812827943024843E1));
#70=(BOUNDED_SURFACE()B_SPLINE_SURFACE(2,1,((#64,#65),(#66,#67),(#68,#69)),.UNSPECIFIED.,.F.,.F.,.F.)B_SPLINE_SURFACE_WITH_KNOTS((3,3),(2,2),(0.00000000000000000E0,1.00000000000000000E0),(0.00000000000000000E0,1.00000000000000000E0),.UNSPECIFIED.)GEOMETRIC_REPRESENTATION_ITEM()RATIONAL_B_SPLINE_SURFACE(((2.00000000000000000E0,2.00000000000000000E0),(1.00000000000000000E0,1.00000000000000000E0),(1.00000000000000000E0,1.00000000000000000E0)))REPRESENTATION_ITEM('')SURFACE());
#71=CARTESIAN_POINT('',(2.62868958586545496E1,-2.99587004826308156E0,2.12812827943024843E1));
#72=CARTESIAN_POINT('',(2.13852553783166535E1,-5.49064871610375782E0,2.12812827943024843E1));
#73=CARTESIAN_POINT('',(2.70521984266857132E1,-4.49950565951950310E0,1.94364543665275775E1));
#74=CARTESIAN_POINT('',(2.21505579463478135E1,-6.99428432736018024E0,1.94364543665275775E1));
#75=CARTESIAN_POINT('',(2.78890054462200574E1,-6.14363033240306677E0,2.11236437667057437E1));
#76=CARTESIAN_POINT('',(2.29873649658821577E1,-8.63840900024374392E0,2.11236437667057437E1));
#77=(BOUNDED_SURFACE()B_SPLINE_SURFACE(2,1,((#71,#72),(#73,#74),(#75,#76)),.UNSPECIFIED.,.F.,.F.,.F.)B_SPLINE_SURFACE_WITH_KNOTS((3,3),(2,2),(0.00000000000000000E0,1.00000000000000000E0),(0.00000000000000000E0,1.00000000000000000E0),.UNSPECIFIED.)GEOMETRIC_REPRESENTATION_ITEM()RATIONAL_B_SPLINE_SURFACE(((1.00000000000000000E0,1.00000000000000000E0),(1.00000000000000000E0,1.00000000000000000E0),(2.00000000000000000E0,2.00000000000000000E0)))REPRESENTATION_ITEM('')SURFACE());
#78=CARTESIAN_POINT('',(1.99940439976974069E1,-8.26876369255126420E0,2.29684721944806505E1));
#79=CARTESIAN_POINT('',(2.03766952817129905E1,-9.02058149817947452E0,2.20460579805931971E1));
#80=CARTESIAN_POINT('',(2.15258541829474943E1,-9.44123222316208555E0,2.23009830426901026E1));
#81=CARTESIAN_POINT('',(1.91572369781630627E1,-6.62463901966770141E0,2.12812827943024843E1));
#82=CARTESIAN_POINT('',(1.99225395461942263E1,-8.12827463092412295E0,1.94364543665275775E1));
#83=CARTESIAN_POINT('',(2.18733557658053641E1,-9.20540415202571438E0,2.11236437667057437E1));
#84=CARTESIAN_POINT('',(2.13852553783166535E1,-5.49064871610375782E0,2.12812827943024843E1));
#85=CARTESIAN_POINT('',(2.21505579463478135E1,-6.99428432736018024E0,1.94364543665275775E1));
#86=CARTESIAN_POINT('',(2.29873649658821577E1,-8.63840900024374392E0,2.11236437667057437E1));
#87=(BOUNDED_SURFACE()B_SPLINE_SURFACE(2,2,((#78,#79,#80),(#81,#82,#83),(#84,#85,#86)),.UNSPECIFIED.,.F.,.F.,.F.)B_SPLINE_SURFACE_WITH_KNOTS((3,3),(3,3),(0.00000000000000000E0,1.00000000000000000E0),(0.00000000000000000E0,1.00000000000000000E0),.UNSPECIFIED.)GEOMETRIC_REPRESENTATION_ITEM()RATIONAL_B_SPLINE_SURFACE(((2.00000000000000000E0,2.00000000000000000E0,3.00000000000000000E0),(1.00000000000000000E0,1.00000000000000000E0,2.00000000000000000E0),(1.00000000000000000E0,1.00000000000000000E0,2.00000000000000000E0)))REPRESENTATION_ITEM('')SURFACE());
#88=CARTESIAN_POINT('',(2.59993250014434878E1,-2.43086242941436659E0,3.08650226380548105E1));
#89=CARTESIAN_POINT('',(1.88696661209520009E1,-6.05963140081898644E0,3.08650226380548105E1));
#90=B_SPLINE_CURVE_WITH_KNOTS('',1,(#88,#89),.UNSPECIFIED.,.F.,.F.,(2,2),(0.00000000000000000E0,1.00000000000000000E0),.UNSPECIFIED.);
#91=CARTESIAN_POINT('',(1.88696661209520009E1,-6.05963140081898644E0,3.08650226380548105E1));
#92=CARTESIAN_POINT('',(2.11655738250454881E1,-1.05705382345882519E1,2.53305373547300867E1));
#93=B_SPLINE_CURVE_WITH_KNOTS('',1,(#91,#92),.UNSPECIFIED.,.F.,.F.,(2,2),(0.00000000000000000E0,1.00000000000000000E0),.UNSPECIFIED.);
#94=CARTESIAN_POINT('',(2.90605352735681386E1,-8.44540487444005450E0,2.34857089269551800E1));
#95=CARTESIAN_POINT('',(2.41588947932302389E1,-1.09401835422807316E1,2.34857089269551800E1));
#96=B_SPLINE_CURVE_WITH_KNOTS('',1,(#94,#95),.UNSPECIFIED.,.F.,.F.,(2,2),(0.00000000000000000E0,1.00000000000000000E0),.UNSPECIFIED.);
#97=CARTESIAN_POINT('',(2.59993250014434878E1,-2.43086242941436659E0,3.08650226380548105E1));
#98=CARTESIAN_POINT('',(2.90605352735681386E1,-8.44540487444005450E0,2.34857089269551800E1));
#99=B_SPLINE_CURVE_WITH_KNOTS('',1,(#97,#98),.UNSPECIFIED.,.F.,.F.,(2,2),(0.00000000000000000E0,1.00000000000000000E0),.UNSPECIFIED.);
#100=CARTESIAN_POINT('',(2.59993250014434878E1,-2.43086242941436659E0,3.08650226380548105E1));
#101=CARTESIAN_POINT('',(2.39909881545610588E1,1.51503678550618481E0,2.68157680776272045E1));
#102=B_SPLINE_CURVE_WITH_KNOTS('',1,(#100,#101),.UNSPECIFIED.,.F.,.F.,(2,2),(0.00000000000000000E0,1.00000000000000000E0),.UNSPECIFIED.);
#103=CARTESIAN_POINT('',(1.88696661209520009E1,-6.05963140081898644E0,3.08650226380548105E1));
#104=CARTESIAN_POINT('',(1.76981362936039162E1,-3.75785685878199871E0,2.85029574778053743E1));
#105=B_SPLINE_CURVE_WITH_KNOTS('',1,(#103,#104),.UNSPECIFIED.,.F.,.F.,(2,2),(0.00000000000000000E0,1.00000000000000000E0),.UNSPECIFIED.);
#106=CARTESIAN_POINT('',(1.99940439976974069E1,-8.26876369255126420E0,2.29684721944806505E1));
#107=CARTESIAN_POINT('',(1.76981362936039162E1,-3.75785685878199871E0,2.85029574778053743E1));
#108=B_SPLINE_CURVE_WITH_KNOTS('',1,(#106,#107),.UNSPECIFIED.,.F.,.F.,(2,2),(0.00000000000000000E0,1.00000000000000000E0),.UNSPECIFIED.);
#109=CARTESIAN_POINT('',(2.11655738250454881E1,-1.05705382345882519E1,2.53305373547300867E1));
#110=CARTESIAN_POINT('',(1.99940439976974069E1,-8.26876369255126420E0,2.29684721944806505E1));
#111=B_SPLINE_CURVE_WITH_KNOTS('',1,(#109,#110),.UNSPECIFIED.,.F.,.F.,(2,2),(0.00000000000000000E0,1.00000000000000000E0),.UNSPECIFIED.);
#112=CARTESIAN_POINT('',(2.41588947932302389E1,-1.09401835422807316E1,2.34857089269551800E1));
#113=CARTESIAN_POINT('',(2.29873649658821577E1,-8.63840900024374392E0,2.11236437667057437E1));
#114=B_SPLINE_CURVE_WITH_KNOTS('',1,(#112,#113),.UNSPECIFIED.,.F.,.F.,(2,2),(0.00000000000000000E0,1.00000000000000000E0),.UNSPECIFIED.);
#115=CARTESIAN_POINT('',(2.90605352735681386E1,-8.44540487444005450E0,2.34857089269551800E1));
#116=CARTESIAN_POINT('',(2.78890054462200574E1,-6.14363033240306677E0,2.11236437667057437E1));
#117=B_SPLINE_CURVE_WITH_KNOTS('',1,(#115,#116),.UNSPECIFIED.,.F.,.F.,(2,2),(0.00000000000000000E0,1.00000000000000000E0),.UNSPECIFIED.);
#118=CARTESIAN_POINT('',(2.29873649658821577E1,-8.63840900024374392E0,2.11236437667057437E1));
#119=CARTESIAN_POINT('',(2.78890054462200574E1,-6.14363033240306677E0,2.11236437667057437E1));
#120=B_SPLINE_CURVE_WITH_KNOTS('',1,(#118,#119),.UNSPECIFIED.,.F.,.F.,(2,2),(0.00000000000000000E0,1.00000000000000000E0),.UNSPECIFIED.);
#121=CARTESIAN_POINT('',(2.39909881545610588E1,1.51503678550618481E0,2.68157680776272045E1));
#122=CARTESIAN_POINT('',(1.90893476742231627E1,-9.79741882334492331E-1,2.68157680776272045E1));
#123=B_SPLINE_CURVE_WITH_KNOTS('',1,(#121,#122),.UNSPECIFIED.,.F.,.F.,(2,2),(0.00000000000000000E0,1.00000000000000000E0),.UNSPECIFIED.);
#124=CARTESIAN_POINT('',(2.13852553783166535E1,-5.49064871610375782E0,2.12812827943024843E1));
#125=CARTESIAN_POINT('',(1.90893476742231627E1,-9.79741882334492331E-1,2.68157680776272045E1));
#126=B_SPLINE_CURVE_WITH_KNOTS('',1,(#124,#125),.UNSPECIFIED.,.F.,.F.,(2,2),(0.00000000000000000E0,1.00000000000000000E0),.UNSPECIFIED.);
#127=CARTESIAN_POINT('',(2.39909881545610588E1,1.51503678550618481E0,2.68157680776272045E1));
#128=CARTESIAN_POINT('',(2.62868958586545496E1,-2.99587004826308156E0,2.12812827943024843E1));
#129=B_SPLINE_CURVE_WITH_KNOTS('',1,(#127,#128),.UNSPECIFIED.,.F.,.F.,(2,2),(0.00000000000000000E0,1.00000000000000000E0),.UNSPECIFIED.);
#130=CARTESIAN_POINT('',(2.13852553783166535E1,-5.49064871610375782E0,2.12812827943024843E1));
#131=CARTESIAN_POINT('',(2.62868958586545496E1,-2.99587004826308156E0,2.12812827943024843E1));
#132=B_SPLINE_CURVE_WITH_KNOTS('',1,(#130,#131),.UNSPECIFIED.,.F.,.F.,(2,2),(0.00000000000000000E0,1.00000000000000000E0),.UNSPECIFIED.);
#133=CARTESIAN_POINT('',(2.11655738250454881E1,-1.05705382345882519E1,2.53305373547300867E1));
#134=CARTESIAN_POINT('',(2.19308763930766517E1,-1.20741738458446743E1,2.34857089269551800E1));
#135=CARTESIAN_POINT('',(2.41588947932302389E1,-1.09401835422807316E1,2.34857089269551800E1));
#136=(BOUNDED_CURVE()B_SPLINE_CURVE(2,(#133,#134,#135),.UNSPECIFIED.,.F.,.F.)B_SPLINE_CURVE_WITH_KNOTS((3,3),(0.00000000000000000E0,1.00000000000000000E0),.UNSPECIFIED.)CURVE()GEOMETRIC_REPRESENTATION_ITEM()RATIONAL_B_SPLINE_CURVE((1.00000000000000000E0,7.07106781186547573E-1,1.00000000000000000E0))REPRESENTATION_ITEM(''));
#137=CARTESIAN_POINT('',(1.99940439976974069E1,-8.26876369255126420E0,2.29684721944806505E1));
#138=CARTESIAN_POINT('',(2.07593465657285705E1,-9.77239930380768662E0,2.11236437667057437E1));
#139=CARTESIAN_POINT('',(2.29873649658821577E1,-8.63840900024374392E0,2.11236437667057437E1));
#140=(BOUNDED_CURVE()B_SPLINE_CURVE(2,(#137,#138,#139),.UNSPECIFIED.,.F.,.F.)B_SPLINE_CURVE_WITH_KNOTS((3,3),(0.00000000000000000E0,1.00000000000000000E0),.UNSPECIFIED.)CURVE()GEOMETRIC_REPRESENTATION_ITEM()RATIONAL_B_SPLINE_CURVE((1.00000000000000000E0,7.07106781186547573E-1,1.00000000000000000E0))REPRESENTATION_ITEM(''));
#141=CARTESIAN_POINT('',(1.99940439976974069E1,-8.26876369255126420E0,2.29684721944806505E1));
#142=CARTESIAN_POINT('',(1.91572369781630627E1,-6.62463901966770141E0,2.12812827943024843E1));
#143=CARTESIAN_POINT('',(2.13852553783166535E1,-5.49064871610375782E0,2.12812827943024843E1));
#144=(BOUNDED_CURVE()B_SPLINE_CURVE(2,(#141,#142,#143),.UNSPECIFIED.,.F.,.F.)B_SPLINE_CURVE_WITH_KNOTS((3,3),(0.00000000000000000E0,1.00000000000000000E0),.UNSPECIFIED.)CURVE()GEOMETRIC_REPRESENTATION_ITEM()RATIONAL_B_SPLINE_CURVE((2.00000000000000000E0,1.00000000000000000E0,1.00000000000000000E0))REPRESENTATION_ITEM(''));
#145=CARTESIAN_POINT('',(2.29873649658821577E1,-8.63840900024374392E0,2.11236437667057437E1));
#146=CARTESIAN_POINT('',(2.21505579463478135E1,-6.99428432736018024E0,1.94364543665275775E1));
#147=CARTESIAN_POINT('',(2.13852553783166535E1,-5.49064871610375782E0,2.12812827943024843E1));
#148=(BOUNDED_CURVE()B_SPLINE_CURVE(2,(#145,#146,#147),.UNSPECIFIED.,.F.,.F.)B_SPLINE_CURVE_WITH_KNOTS((3,3),(0.00000000000000000E0,1.00000000000000000E0),.UNSPECIFIED.)CURVE()GEOMETRIC_REPRESENTATION_ITEM()RATIONAL_B_SPLINE_CURVE((2.00000000000000000E0,1.00000000000000000E0,1.00000000000000000E0))REPRESENTATION_ITEM(''));
#149=CARTESIAN_POINT('',(1.76981362936039162E1,-3.75785685878199871E0,2.85029574778053743E1));
#150=CARTESIAN_POINT('',(1.68613292740695755E1,-2.11373218589843503E0,2.68157680776272045E1));
#151=CARTESIAN_POINT('',(1.90893476742231627E1,-9.79741882334492331E-1,2.68157680776272045E1));
#152=(BOUNDED_CURVE()B_SPLINE_CURVE(2,(#149,#150,#151),.UNSPECIFIED.,.F.,.F.)B_SPLINE_CURVE_WITH_KNOTS((3,3),(0.00000000000000000E0,1.00000000000000000E0),.UNSPECIFIED.)CURVE()GEOMETRIC_REPRESENTATION_ITEM()RATIONAL_B_SPLINE_CURVE((2.00000000000000000E0,1.00000000000000000E0,1.00000000000000000E0))REPRESENTATION_ITEM(''));
#153=CARTESIAN_POINT('',(2.78890054462200574E1,-6.14363033240306677E0,2.11236437667057437E1));
#154=CARTESIAN_POINT('',(2.70521984266857132E1,-4.49950565951950310E0,1.94364543665275775E1));
#155=CARTESIAN_POINT('',(2.62868958586545496E1,-2.99587004826308156E0,2.12812827943024843E1));
#156=(BOUNDED_CURVE()B_SPLINE_CURVE(2,(#153,#154,#155),.UNSPECIFIED.,.F.,.F.)B_SPLINE_CURVE_WITH_KNOTS((3,3),(0.00000000000000000E0,1.00000000000000000E0),.UNSPECIFIED.)CURVE()GEOMETRIC_REPRESENTATION_ITEM()RATIONAL_B_SPLINE_CURVE((2.00000000000000000E0,1.00000000000000000E0,1.00000000000000000E0))REPRESENTATION_ITEM(''));
#157=(GEOMETRIC_REPRESENTATION_CONTEXT(2)REPRESENTATION_CONTEXT('','2D'));
#158=CARTESIAN_POINT('',(0.00000000000000000E0,0.00000000000000000E0));
#159=CARTESIAN_POINT('',(1.00000000000000000E0,0.00000000000000000E0));
#160=B_SPLINE_CURVE_WITH_KNOTS('',1,(#158,#159),.UNSPECIFIED.,.F.,.F.,(2,2),(0.00000000000000000E0,1.00000000000000000E0),.UNSPECIFIED.);
#161=DEFINITIONAL_REPRESENTATION('',(#160),#157);
#162=PCURVE('',#31,#161);
#163=CARTESIAN_POINT('',(1.00000000000000000E0,0.00000000000000000E0));
#164=CARTESIAN_POINT('',(1.00000000000000000E0,7.50000000000000111E-1));
#165=B_SPLINE_CURVE_WITH_KNOTS('',1,(#163,#164),.UNSPECIFIED.,.F.,.F.,(2,2),(0.00000000000000000E0,1.00000000000000000E0),.UNSPECIFIED.);
#166=DEFINITIONAL_REPRESENTATION('',(#165),#157);
#167=PCURVE('',#31,#166);
#168=CARTESIAN_POINT('',(1.00000000000000000E0,7.50000000000000111E-1));
#169=CARTESIAN_POINT('',(1.00000000000000000E0,1.00000000000000000E0));
#170=CARTESIAN_POINT('',(6.87500000000000111E-1,1.00000000000000000E0));
#171=(BOUNDED_CURVE()B_SPLINE_CURVE(2,(#168,#169,#170),.UNSPECIFIED.,.F.,.F.)B_SPLINE_CURVE_WITH_KNOTS((3,3),(0.00000000000000000E0,1.00000000000000000E0),.UNSPECIFIED.)CURVE()GEOMETRIC_REPRESENTATION_ITEM()RATIONAL_B_SPLINE_CURVE((1.00000000000000000E0,7.07106781186547573E-1,1.00000000000000000E0))REPRESENTATION_ITEM(''));
#172=DEFINITIONAL_REPRESENTATION('',(#171),#157);
#173=PCURVE('',#31,#172);
#174=CARTESIAN_POINT('',(6.87500000000000111E-1,1.00000000000000000E0));
#175=CARTESIAN_POINT('',(0.00000000000000000E0,1.00000000000000000E0));
#176=B_SPLINE_CURVE_WITH_KNOTS('',1,(#174,#175),.UNSPECIFIED.,.F.,.F.,(2,2),(0.00000000000000000E0,1.00000000000000000E0),.UNSPECIFIED.);
#177=DEFINITIONAL_REPRESENTATION('',(#176),#157);
#178=PCURVE('',#31,#177);
#179=CARTESIAN_POINT('',(0.00000000000000000E0,1.00000000000000000E0));
#180=CARTESIAN_POINT('',(0.00000000000000000E0,0.00000000000000000E0));
#181=B_SPLINE_CURVE_WITH_KNOTS('',1,(#179,#180),.UNSPECIFIED.,.F.,.F.,(2,2),(0.00000000000000000E0,1.00000000000000000E0),.UNSPECIFIED.);
#182=DEFINITIONAL_REPRESENTATION('',(#181),#157);
#183=PCURVE('',#31,#182);
#184=CARTESIAN_POINT('',(1.00000000000000000E0,0.00000000000000000E0));
#185=CARTESIAN_POINT('',(1.00000000000000000E0,7.50000000000000111E-1));
#186=B_SPLINE_CURVE_WITH_KNOTS('',1,(#184,#185),.UNSPECIFIED.,.F.,.F.,(2,2),(0.00000000000000000E0,1.00000000000000000E0),.UNSPECIFIED.);
#187=DEFINITIONAL_REPRESENTATION('',(#186),#157);
#188=PCURVE('',#36,#187);
#189=CARTESIAN_POINT('',(1.00000000000000000E0,7.50000000000000111E-1));
#190=CARTESIAN_POINT('',(3.12499999999999889E-1,7.50000000000000111E-1));
#191=B_SPLINE_CURVE_WITH_KNOTS('',1,(#189,#190),.UNSPECIFIED.,.F.,.F.,(2,2),(0.00000000000000000E0,1.00000000000000000E0),.UNSPECIFIED.);
#192=DEFINITIONAL_REPRESENTATION('',(#191),#157);
#193=PCURVE('',#36,#192);
#194=CARTESIAN_POINT('',(3.12499999999999889E-1,7.50000000000000111E-1));
#195=CARTESIAN_POINT('',(3.12499999999999889E-1,0.00000000000000000E0));
#196=B_SPLINE_CURVE_WITH_KNOTS('',1,(#194,#195),.UNSPECIFIED.,.F.,.F.,(2,2),(0.00000000000000000E0,1.00000000000000000E0),.UNSPECIFIED.);
#197=DEFINITIONAL_REPRESENTATION('',(#196),#157);
#198=PCURVE('',#36,#197);
#199=CARTESIAN_POINT('',(3.12499999999999889E-1,0.00000000000000000E0));
#200=CARTESIAN_POINT('',(1.00000000000000000E0,0.00000000000000000E0));
#201=B_SPLINE_CURVE_WITH_KNOTS('',1,(#199,#200),.UNSPECIFIED.,.F.,.F.,(2,2),(0.00000000000000000E0,1.00000000000000000E0),.UNSPECIFIED.);
#202=DEFINITIONAL_REPRESENTATION('',(#201),#157);
#203=PCURVE('',#36,#202);
#204=CARTESIAN_POINT('',(0.00000000000000000E0,0.00000000000000000E0));
#205=CARTESIAN_POINT('',(1.00000000000000000E0,0.00000000000000000E0));
#206=B_SPLINE_CURVE_WITH_KNOTS('',1,(#204,#205),.UNSPECIFIED.,.F.,.F.,(2,2),(0.00000000000000000E0,1.00000000000000000E0),.UNSPECIFIED.);
#207=DEFINITIONAL_REPRESENTATION('',(#206),#157);
#208=PCURVE('',#41,#207);
#209=CARTESIAN_POINT('',(1.00000000000000000E0,0.00000000000000000E0));
#210=CARTESIAN_POINT('',(1.00000000000000000E0,5.83333333333333370E-1));
#211=B_SPLINE_CURVE_WITH_KNOTS('',1,(#209,#210),.UNSPECIFIED.,.F.,.F.,(2,2),(0.00000000000000000E0,1.00000000000000000E0),.UNSPECIFIED.);
#212=DEFINITIONAL_REPRESENTATION('',(#211),#157);
#213=PCURVE('',#41,#212);
#214=CARTESIAN_POINT('',(1.00000000000000000E0,5.83333333333333370E-1));
#215=CARTESIAN_POINT('',(1.00000000000000000E0,1.00000000000000000E0));
#216=CARTESIAN_POINT('',(7.50000000000000111E-1,1.00000000000000000E0));
#217=(BOUNDED_CURVE()B_SPLINE_CURVE(2,(#214,#215,#216),.UNSPECIFIED.,.F.,.F.)B_SPLINE_CURVE_WITH_KNOTS((3,3),(0.00000000000000000E0,1.00000000000000000E0),.UNSPECIFIED.)CURVE()GEOMETRIC_REPRESENTATION_ITEM()RATIONAL_B_SPLINE_CURVE((2.00000000000000000E0,1.00000000000000000E0,1.00000000000000000E0))REPRESENTATION_ITEM(''));
#218=DEFINITIONAL_REPRESENTATION('',(#217),#157);
#219=PCURVE('',#41,#218);
#220=CARTESIAN_POINT('',(7.50000000000000111E-1,1.00000000000000000E0));
#221=CARTESIAN_POINT('',(0.00000000000000000E0,1.00000000000000000E0));
#222=B_SPLINE_CURVE_WITH_KNOTS('',1,(#220,#221),.UNSPECIFIED.,.F.,.F.,(2,2),(0.00000000000000000E0,1.00000000000000000E0),.UNSPECIFIED.);
#223=DEFINITIONAL_REPRESENTATION('',(#222),#157);
#224=PCURVE('',#41,#223);
#225=CARTESIAN_POINT('',(0.00000000000000000E0,1.00000000000000000E0));
#226=CARTESIAN_POINT('',(0.00000000000000000E0,0.00000000000000000E0));
#227=B_SPLINE_CURVE_WITH_KNOTS('',1,(#225,#226),.UNSPECIFIED.,.F.,.F.,(2,2),(0.00000000000000000E0,1.00000000000000000E0),.UNSPECIFIED.);
#228=DEFINITIONAL_REPRESENTATION('',(#227),#157);
#229=PCURVE('',#41,#228);
#230=CARTESIAN_POINT('',(1.00000000000000000E0,0.00000000000000000E0));
#231=CARTESIAN_POINT('',(1.00000000000000000E0,1.00000000000000000E0));
#232=B_SPLINE_CURVE_WITH_KNOTS('',1,(#230,#231),.UNSPECIFIED.,.F.,.F.,(2,2),(0.00000000000000000E0,1.00000000000000000E0),.UNSPECIFIED.);
#233=DEFINITIONAL_REPRESENTATION('',(#232),#157);
#234=PCURVE('',#46,#233);
#235=CARTESIAN_POINT('',(1.00000000000000000E0,1.00000000000000000E0));
#236=CARTESIAN_POINT('',(3.12499999999999889E-1,1.00000000000000000E0));
#237=B_SPLINE_CURVE_WITH_KNOTS('',1,(#235,#236),.UNSPECIFIED.,.F.,.F.,(2,2),(0.00000000000000000E0,1.00000000000000000E0),.UNSPECIFIED.);
#238=DEFINITIONAL_REPRESENTATION('',(#237),#157);
#239=PCURVE('',#46,#238);
#240=CARTESIAN_POINT('',(3.12499999999999889E-1,1.00000000000000000E0));
#241=CARTESIAN_POINT('',(0.00000000000000000E0,1.00000000000000000E0));
#242=CARTESIAN_POINT('',(0.00000000000000000E0,5.83333333333333370E-1));
#243=(BOUNDED_CURVE()B_SPLINE_CURVE(2,(#240,#241,#242),.UNSPECIFIED.,.F.,.F.)B_SPLINE_CURVE_WITH_KNOTS((3,3),(0.00000000000000000E0,1.00000000000000000E0),.UNSPECIFIED.)CURVE()GEOMETRIC_REPRESENTATION_ITEM()RATIONAL_B_SPLINE_CURVE((1.00000000000000000E0,1.00000000000000000E0,2.00000000000000000E0))REPRESENTATION_ITEM(''));
#244=DEFINITIONAL_REPRESENTATION('',(#243),#157);
#245=PCURVE('',#46,#244);
#246=CARTESIAN_POINT('',(0.00000000000000000E0,5.83333333333333370E-1));
#247=CARTESIAN_POINT('',(0.00000000000000000E0,0.00000000000000000E0));
#248=B_SPLINE_CURVE_WITH_KNOTS('',1,(#246,#247),.UNSPECIFIED.,.F.,.F.,(2,2),(0.00000000000000000E0,1.00000000000000000E0),.UNSPECIFIED.);
#249=DEFINITIONAL_REPRESENTATION('',(#248),#157);
#250=PCURVE('',#46,#249);
#251=CARTESIAN_POINT('',(0.00000000000000000E0,0.00000000000000000E0));
#252=CARTESIAN_POINT('',(1.00000000000000000E0,0.00000000000000000E0));
#253=B_SPLINE_CURVE_WITH_KNOTS('',1,(#251,#252),.UNSPECIFIED.,.F.,.F.,(2,2),(0.00000000000000000E0,1.00000000000000000E0),.UNSPECIFIED.);
#254=DEFINITIONAL_REPRESENTATION('',(#253),#157);
#255=PCURVE('',#46,#254);
#256=CARTESIAN_POINT('',(1.00000000000000000E0,0.00000000000000000E0));
#257=CARTESIAN_POINT('',(1.00000000000000000E0,5.83333333333333370E-1));
#258=B_SPLINE_CURVE_WITH_KNOTS('',1,(#256,#257),.UNSPECIFIED.,.F.,.F.,(2,2),(0.00000000000000000E0,1.00000000000000000E0),.UNSPECIFIED.);
#259=DEFINITIONAL_REPRESENTATION('',(#258),#157);
#260=PCURVE('',#51,#259);
#261=CARTESIAN_POINT('',(1.00000000000000000E0,5.83333333333333370E-1));
#262=CARTESIAN_POINT('',(2.49999999999999889E-1,5.83333333333333370E-1));
#263=B_SPLINE_CURVE_WITH_KNOTS('',1,(#261,#262),.UNSPECIFIED.,.F.,.F.,(2,2),(0.00000000000000000E0,1.00000000000000000E0),.UNSPECIFIED.);
#264=DEFINITIONAL_REPRESENTATION('',(#263),#157);
#265=PCURVE('',#51,#264);
#266=CARTESIAN_POINT('',(2.49999999999999889E-1,5.83333333333333370E-1));
#267=CARTESIAN_POINT('',(2.49999999999999889E-1,0.00000000000000000E0));
#268=B_SPLINE_CURVE_WITH_KNOTS('',1,(#266,#267),.UNSPECIFIED.,.F.,.F.,(2,2),(0.00000000000000000E0,1.00000000000000000E0),.UNSPECIFIED.);
#269=DEFINITIONAL_REPRESENTATION('',(#268),#157);
#270=PCURVE('',#51,#269);
#271=CARTESIAN_POINT('',(2.49999999999999889E-1,0.00000000000000000E0));
#272=CARTESIAN_POINT('',(1.00000000000000000E0,0.00000000000000000E0));
#273=B_SPLINE_CURVE_WITH_KNOTS('',1,(#271,#272),.UNSPECIFIED.,.F.,.F.,(2,2),(0.00000000000000000E0,1.00000000000000000E0),.UNSPECIFIED.);
#274=DEFINITIONAL_REPRESENTATION('',(#273),#157);
#275=PCURVE('',#51,#274);
#276=CARTESIAN_POINT('',(0.00000000000000000E0,0.00000000000000000E0));
#277=CARTESIAN_POINT('',(6.87500000000000111E-1,0.00000000000000000E0));
#278=B_SPLINE_CURVE_WITH_KNOTS('',1,(#276,#277),.UNSPECIFIED.,.F.,.F.,(2,2),(0.00000000000000000E0,1.00000000000000000E0),.UNSPECIFIED.);
#279=DEFINITIONAL_REPRESENTATION('',(#278),#157);
#280=PCURVE('',#56,#279);
#281=CARTESIAN_POINT('',(6.87500000000000111E-1,0.00000000000000000E0));
#282=CARTESIAN_POINT('',(6.87500000000000111E-1,5.83333333333333370E-1));
#283=B_SPLINE_CURVE_WITH_KNOTS('',1,(#281,#282),.UNSPECIFIED.,.F.,.F.,(2,2),(0.00000000000000000E0,1.00000000000000000E0),.UNSPECIFIED.);
#284=DEFINITIONAL_REPRESENTATION('',(#283),#157);
#285=PCURVE('',#56,#284);
#286=CARTESIAN_POINT('',(6.87500000000000111E-1,5.83333333333333370E-1));
#287=CARTESIAN_POINT('',(0.00000000000000000E0,5.83333333333333370E-1));
#288=B_SPLINE_CURVE_WITH_KNOTS('',1,(#286,#287),.UNSPECIFIED.,.F.,.F.,(2,2),(0.00000000000000000E0,1.00000000000000000E0),.UNSPECIFIED.);
#289=DEFINITIONAL_REPRESENTATION('',(#288),#157);
#290=PCURVE('',#56,#289);
#291=CARTESIAN_POINT('',(0.00000000000000000E0,5.83333333333333370E-1));
#292=CARTESIAN_POINT('',(0.00000000000000000E0,0.00000000000000000E0));
#293=B_SPLINE_CURVE_WITH_KNOTS('',1,(#291,#292),.UNSPECIFIED.,.F.,.F.,(2,2),(0.00000000000000000E0,1.00000000000000000E0),.UNSPECIFIED.);
#294=DEFINITIONAL_REPRESENTATION('',(#293),#157);
#295=PCURVE('',#56,#294);
#296=CARTESIAN_POINT('',(1.00000000000000000E0,0.00000000000000000E0));
#297=CARTESIAN_POINT('',(1.00000000000000000E0,1.00000000000000000E0));
#298=B_SPLINE_CURVE_WITH_KNOTS('',1,(#296,#297),.UNSPECIFIED.,.F.,.F.,(2,2),(0.00000000000000000E0,1.00000000000000000E0),.UNSPECIFIED.);
#299=DEFINITIONAL_REPRESENTATION('',(#298),#157);
#300=PCURVE('',#63,#299);
#301=CARTESIAN_POINT('',(1.00000000000000000E0,1.00000000000000000E0));
#302=CARTESIAN_POINT('',(0.00000000000000000E0,1.00000000000000000E0));
#303=B_SPLINE_CURVE_WITH_KNOTS('',1,(#301,#302),.UNSPECIFIED.,.F.,.F.,(2,2),(0.00000000000000000E0,1.00000000000000000E0),.UNSPECIFIED.);
#304=DEFINITIONAL_REPRESENTATION('',(#303),#157);
#305=PCURVE('',#63,#304);
#306=CARTESIAN_POINT('',(0.00000000000000000E0,1.00000000000000000E0));
#307=CARTESIAN_POINT('',(0.00000000000000000E0,0.00000000000000000E0));
#308=B_SPLINE_CURVE_WITH_KNOTS('',1,(#306,#307),.UNSPECIFIED.,.F.,.F.,(2,2),(0.00000000000000000E0,1.00000000000000000E0),.UNSPECIFIED.);
#309=DEFINITIONAL_REPRESENTATION('',(#308),#157);
#310=PCURVE('',#63,#309);
#311=CARTESIAN_POINT('',(0.00000000000000000E0,0.00000000000000000E0));
#312=CARTESIAN_POINT('',(1.00000000000000000E0,0.00000000000000000E0));
#313=B_SPLINE_CURVE_WITH_KNOTS('',1,(#311,#312),.UNSPECIFIED.,.F.,.F.,(2,2),(0.00000000000000000E0,1.00000000000000000E0),.UNSPECIFIED.);
#314=DEFINITIONAL_REPRESENTATION('',(#313),#157);
#315=PCURVE('',#63,#314);
#316=CARTESIAN_POINT('',(0.00000000000000000E0,0.00000000000000000E0));
#317=CARTESIAN_POINT('',(1.00000000000000000E0,0.00000000000000000E0));
#318=B_SPLINE_CURVE_WITH_KNOTS('',1,(#316,#317),.UNSPECIFIED.,.F.,.F.,(2,2),(0.00000000000000000E0,1.00000000000000000E0),.UNSPECIFIED.);
#319=DEFINITIONAL_REPRESENTATION('',(#318),#157);
#320=PCURVE('',#70,#319);
#321=CARTESIAN_POINT('',(1.00000000000000000E0,0.00000000000000000E0));
#322=CARTESIAN_POINT('',(1.00000000000000000E0,1.00000000000000000E0));
#323=B_SPLINE_CURVE_WITH_KNOTS('',1,(#321,#322),.UNSPECIFIED.,.F.,.F.,(2,2),(0.00000000000000000E0,1.00000000000000000E0),.UNSPECIFIED.);
#324=DEFINITIONAL_REPRESENTATION('',(#323),#157);
#325=PCURVE('',#70,#324);
#326=CARTESIAN_POINT('',(1.00000000000000000E0,1.00000000000000000E0));
#327=CARTESIAN_POINT('',(0.00000000000000000E0,1.00000000000000000E0));
#328=B_SPLINE_CURVE_WITH_KNOTS('',1,(#326,#327),.UNSPECIFIED.,.F.,.F.,(2,2),(0.00000000000000000E0,1.00000000000000000E0),.UNSPECIFIED.);
#329=DEFINITIONAL_REPRESENTATION('',(#328),#157);
#330=PCURVE('',#70,#329);
#331=CARTESIAN_POINT('',(0.00000000000000000E0,1.00000000000000000E0));
#332=CARTESIAN_POINT('',(0.00000000000000000E0,0.00000000000000000E0));
#333=B_SPLINE_CURVE_WITH_KNOTS('',1,(#331,#332),.UNSPECIFIED.,.F.,.F.,(2,2),(0.00000000000000000E0,1.00000000000000000E0),.UNSPECIFIED.);
#334=DEFINITIONAL_REPRESENTATION('',(#333),#157);
#335=PCURVE('',#70,#334);
#336=CARTESIAN_POINT('',(1.00000000000000000E0,0.00000000000000000E0));
#337=CARTESIAN_POINT('',(1.00000000000000000E0,1.00000000000000000E0));
#338=B_SPLINE_CURVE_WITH_KNOTS('',1,(#336,#337),.UNSPECIFIED.,.F.,.F.,(2,2),(0.00000000000000000E0,1.00000000000000000E0),.UNSPECIFIED.);
#339=DEFINITIONAL_REPRESENTATION('',(#338),#157);
#340=PCURVE('',#77,#339);
#341=CARTESIAN_POINT('',(1.00000000000000000E0,1.00000000000000000E0));
#342=CARTESIAN_POINT('',(0.00000000000000000E0,1.00000000000000000E0));
#343=B_SPLINE_CURVE_WITH_KNOTS('',1,(#341,#342),.UNSPECIFIED.,.F.,.F.,(2,2),(0.00000000000000000E0,1.00000000000000000E0),.UNSPECIFIED.);
#344=DEFINITIONAL_REPRESENTATION('',(#343),#157);
#345=PCURVE('',#77,#344);
#346=CARTESIAN_POINT('',(0.00000000000000000E0,1.00000000000000000E0));
#347=CARTESIAN_POINT('',(0.00000000000000000E0,0.00000000000000000E0));
#348=B_SPLINE_CURVE_WITH_KNOTS('',1,(#346,#347),.UNSPECIFIED.,.F.,.F.,(2,2),(0.00000000000000000E0,1.00000000000000000E0),.UNSPECIFIED.);
#349=DEFINITIONAL_REPRESENTATION('',(#348),#157);
#350=PCURVE('',#77,#349);
#351=CARTESIAN_POINT('',(0.00000000000000000E0,0.00000000000000000E0));
#352=CARTESIAN_POINT('',(1.00000000000000000E0,0.00000000000000000E0));
#353=B_SPLINE_CURVE_WITH_KNOTS('',1,(#351,#352),.UNSPECIFIED.,.F.,.F.,(2,2),(0.00000000000000000E0,1.00000000000000000E0),.UNSPECIFIED.);
#354=DEFINITIONAL_REPRESENTATION('',(#353),#157);
#355=PCURVE('',#77,#354);
#356=CARTESIAN_POINT('',(1.00000000000000000E0,0.00000000000000000E0));
#357=CARTESIAN_POINT('',(1.00000000000000000E0,1.00000000000000000E0));
#358=B_SPLINE_CURVE_WITH_KNOTS('',1,(#356,#357),.UNSPECIFIED.,.F.,.F.,(2,2),(0.00000000000000000E0,1.00000000000000000E0),.UNSPECIFIED.);
#359=DEFINITIONAL_REPRESENTATION('',(#358),#157);
#360=PCURVE('',#87,#359);
#361=CARTESIAN_POINT('',(1.00000000000000000E0,1.00000000000000000E0));
#362=CARTESIAN_POINT('',(0.00000000000000000E0,1.00000000000000000E0));
#363=CARTESIAN_POINT('',(0.00000000000000000E0,0.00000000000000000E0));
#364=(BOUNDED_CURVE()B_SPLINE_CURVE(2,(#361,#362,#363),.UNSPECIFIED.,.F.,.F.)B_SPLINE_CURVE_WITH_KNOTS((3,3),(0.00000000000000000E0,1.00000000000000000E0),.UNSPECIFIED.)CURVE()GEOMETRIC_REPRESENTATION_ITEM()RATIONAL_B_SPLINE_CURVE((1.00000000000000000E0,7.07106781186547573E-1,1.00000000000000000E0))REPRESENTATION_ITEM(''));
#365=DEFINITIONAL_REPRESENTATION('',(#364),#157);
#366=PCURVE('',#87,#365);
#367=CARTESIAN_POINT('',(0.00000000000000000E0,0.00000000000000000E0));
#368=CARTESIAN_POINT('',(1.00000000000000000E0,0.00000000000000000E0));
#369=B_SPLINE_CURVE_WITH_KNOTS('',1,(#367,#368),.UNSPECIFIED.,.F.,.F.,(2,2),(0.00000000000000000E0,1.00000000000000000E0),.UNSPECIFIED.);
#370=DEFINITIONAL_REPRESENTATION('',(#369),#157);
#371=PCURVE('',#87,#370);
#372=SURFACE_CURVE('',#90,(#162,#255),.PCURVE_S1.);
#373=EDGE_CURVE('OSCAD_TOPO/3|edge|e:66ce4db72414cf35f67bab7f2d131780|21e97bcc5bbc9b7ae09e028ca6d1a36fc36f53c7f642e4037855236e9fb5415d',#2,#4,#372,.T.);
#374=SURFACE_CURVE('',#93,(#167,#275),.PCURVE_S1.);
#375=EDGE_CURVE('OSCAD_TOPO/3|edge|e:20dbee03e2aaa7cec722a200572bb500|39bf54e91511100fb547aeb8ebbfbd5d06764e11edc235d6e0a190e12964fd4b',#4,#10,#374,.T.);
#376=SURFACE_CURVE('',#96,(#178,#280),.PCURVE_S1.);
#377=EDGE_CURVE('OSCAD_TOPO/3|edge|e:d2f52f5836b8bdd11ffa3e194e8de3a1|41b9f77a601384fd50426c7f145c4c07d73e165ba642a14163a644f192de36d1',#6,#12,#376,.T.);
#378=SURFACE_CURVE('',#99,(#183,#208),.PCURVE_S1.);
#379=EDGE_CURVE('OSCAD_TOPO/3|edge|e:f0441aedbb5a97b259346016046463ee|c6296bbb5132df435b1ae13a7621ebec0652dacaf4a9b6995abc000d67b35429',#2,#6,#378,.T.);
#380=SURFACE_CURVE('',#102,(#229,#234),.PCURVE_S1.);
#381=EDGE_CURVE('OSCAD_TOPO/3|edge|e:763908e79b0209bde29b8719876ce96f|5d9a3ef30e078094d7605258dc2d644454617e11454dd75ba40fbca3c5e6274f',#2,#8,#380,.T.);
#382=SURFACE_CURVE('',#105,(#250,#260),.PCURVE_S1.);
#383=EDGE_CURVE('OSCAD_TOPO/3|edge|e:92409019b6ff98d57f24ca61e462ab4a|2e5cee4b9527799b68618f997da3769fd6c1a1402dba0026c00725a817843ebb',#4,#20,#382,.T.);
#384=SURFACE_CURVE('',#108,(#265,#335),.PCURVE_S1.);
#385=EDGE_CURVE('OSCAD_TOPO/3|edge|e:fe70062bdc957e2502c9b3315bd840d3|ef9ebb032eefb7aa48f90add7cbe24cefcefcfeca8938a1eadd49bb186647bfc',#14,#20,#384,.T.);
#386=SURFACE_CURVE('',#111,(#270,#300),.PCURVE_S1.);
#387=EDGE_CURVE('OSCAD_TOPO/3|edge|e:37e5d18ed6386e08618e48af764c8c40|f94a89e1c70a84ff33a3b0e54b8d314fc1c14b267a32513edf6098d9c1e99511',#10,#14,#386,.T.);
#388=SURFACE_CURVE('',#114,(#285,#310),.PCURVE_S1.);
#389=EDGE_CURVE('OSCAD_TOPO/3|edge|e:91c9ac4132d5c2d37b0e6c01ad1bc9c4|b86fde4793aaee71b613b3013bfc7e4b671fa36701f2a374649eb7254e5ec220',#12,#16,#388,.T.);
#390=SURFACE_CURVE('',#117,(#213,#295),.PCURVE_S1.);
#391=EDGE_CURVE('OSCAD_TOPO/3|edge|e:330d2815ca7948d6cc8be8972678ea02|0aef3f8f9588b3cacfdd75706778935dc875d6c23046ee619afd248edaa1daeb',#6,#24,#390,.T.);
#392=SURFACE_CURVE('',#120,(#290,#340),.PCURVE_S1.);
#393=EDGE_CURVE('OSCAD_TOPO/3|edge|e:34a36db4e240d953212a054800c732e1|7841632615d556a2ef427277c93598528d13b185fd720553968705fd9af3b1cc',#16,#24,#392,.T.);
#394=SURFACE_CURVE('',#123,(#203,#239),.PCURVE_S1.);
#395=EDGE_CURVE('OSCAD_TOPO/3|edge|e:a4fbf09a7031a17a7a6d5d23ba3f2133|0f31d8ae6fd750b2e2ae3060c7cc2bb96eecce3d80650f2f9c949ea106b2f848',#8,#22,#394,.T.);
#396=SURFACE_CURVE('',#126,(#198,#325),.PCURVE_S1.);
#397=EDGE_CURVE('OSCAD_TOPO/3|edge|e:8c88a7ad960925f7b4210e2885153920|cc74ebf048160304696c91762a744d75f8268c0319bc1355b378aaea3c222b7f',#18,#22,#396,.T.);
#398=SURFACE_CURVE('',#129,(#188,#224),.PCURVE_S1.);
#399=EDGE_CURVE('OSCAD_TOPO/3|edge|e:2e699b0c6ca35c7f2d38837ddafa05a6|b68e6e84b98117d3f3ba403dbbfd1a634ac67fdce6ff6b66ab325c5e3aa69a0d',#8,#26,#398,.T.);
#400=SURFACE_CURVE('',#132,(#193,#350),.PCURVE_S1.);
#401=EDGE_CURVE('OSCAD_TOPO/3|edge|e:89298acdfa3fc3cf679034a02ccb8d14|742a84323e46d81239e2ce511d5ce2ae84803a57b707c8530f644a2b7aa6e497',#18,#26,#400,.T.);
#402=SURFACE_CURVE('',#136,(#173,#315),.PCURVE_S1.);
#403=EDGE_CURVE('OSCAD_TOPO/3|edge|e:a15df6063a9faa7320bea7653b5a2eae|af6e08a1698d114b9039a16666f6635b1c006b3c604a19a1d8d89121f83f4f5b',#10,#12,#402,.T.);
#404=SURFACE_CURVE('',#140,(#305,#366),.PCURVE_S1.);
#405=EDGE_CURVE('OSCAD_TOPO/3|edge|e:6000578665aea8a015f9bc0d6f80503c|157b82cab40596faea279ef5a699043725c2efae8e0737af69ff2918677eb079',#14,#16,#404,.T.);
#406=SURFACE_CURVE('',#144,(#330,#371),.PCURVE_S1.);
#407=EDGE_CURVE('OSCAD_TOPO/3|edge|e:27c9c82213414ee31664b9c7b8898251|0d86ddd7d5663052583856367301fcfb757d2f8649a4035ca26dbbf85775418e',#14,#18,#406,.T.);
#408=SURFACE_CURVE('',#148,(#345,#360),.PCURVE_S1.);
#409=EDGE_CURVE('OSCAD_TOPO/3|edge|e:187c840b6d6b072e06254fbaf9045423|9538d346267c160ae063792295337191ba6dc7949ff6ead1313aeb5f12e65967',#16,#18,#408,.T.);
#410=SURFACE_CURVE('',#152,(#245,#320),.PCURVE_S1.);
#411=EDGE_CURVE('OSCAD_TOPO/3|edge|e:17c45279395efe4f6816da88d4fb0c1d|d216ba7ac46d722c6a6f103c81086abef7e7bedb304c4a94791196badcfc268f',#20,#22,#410,.T.);
#412=SURFACE_CURVE('',#156,(#219,#355),.PCURVE_S1.);
#413=EDGE_CURVE('OSCAD_TOPO/3|edge|e:bb9a6f9a15c9eabcb038cbb723dd23c9|ed0632503c7bfbb3ec6fe925ddb10ebe1a5e8ee39e788459c09d043412cd85e8',#24,#26,#412,.T.);
#414=ORIENTED_EDGE('',*,*,#373,.T.);
#415=ORIENTED_EDGE('',*,*,#375,.T.);
#416=ORIENTED_EDGE('',*,*,#403,.T.);
#417=ORIENTED_EDGE('',*,*,#377,.F.);
#418=ORIENTED_EDGE('',*,*,#379,.F.);
#419=EDGE_LOOP('OSCAD_TOPO/3|loop|l:af323ace4b2cfaa9dd65d4981daa6e86|bbdb41cea1be83b822dd5c9cd984697945d33eeee9e201835caaec9933c0ba69',(#414,#415,#416,#417,#418));
#420=ORIENTED_EDGE('',*,*,#399,.T.);
#421=ORIENTED_EDGE('',*,*,#401,.F.);
#422=ORIENTED_EDGE('',*,*,#397,.T.);
#423=ORIENTED_EDGE('',*,*,#395,.F.);
#424=EDGE_LOOP('OSCAD_TOPO/3|loop|l:abd9d2a93499479c08e4e2ff82dba1a2|c37df1560765e86025a4dd2aacdfbaf0da90811415f1027fb00dca547da25c11',(#420,#421,#422,#423));
#425=ORIENTED_EDGE('',*,*,#379,.T.);
#426=ORIENTED_EDGE('',*,*,#391,.T.);
#427=ORIENTED_EDGE('',*,*,#413,.T.);
#428=ORIENTED_EDGE('',*,*,#399,.F.);
#429=ORIENTED_EDGE('',*,*,#381,.F.);
#430=EDGE_LOOP('OSCAD_TOPO/3|loop|l:3da351f9a53fef54dc9c2bfd1e6d8fb2|c0836e4251fd5a42674133e3df9353874bf06bbe9b507300b84a2cf431cee38f',(#425,#426,#427,#428,#429));
#431=ORIENTED_EDGE('',*,*,#381,.T.);
#432=ORIENTED_EDGE('',*,*,#395,.T.);
#433=ORIENTED_EDGE('',*,*,#411,.F.);
#434=ORIENTED_EDGE('',*,*,#383,.F.);
#435=ORIENTED_EDGE('',*,*,#373,.F.);
#436=EDGE_LOOP('OSCAD_TOPO/3|loop|l:eceb811740d1ef1c00f15d91a9581db8|ec75de54c6b7ccd974e3373dc44c75a00e4af09f1e4e3bf12134e5e174c4d95b',(#431,#432,#433,#434,#435));
#437=ORIENTED_EDGE('',*,*,#383,.T.);
#438=ORIENTED_EDGE('',*,*,#385,.F.);
#439=ORIENTED_EDGE('',*,*,#387,.F.);
#440=ORIENTED_EDGE('',*,*,#375,.F.);
#441=EDGE_LOOP('OSCAD_TOPO/3|loop|l:3c435131dd9092b624f7f63ddafd7c6f|b17204df4fdc6f0771a4d3414b7a05ca683fe8c5262a07c07bfdac22ea3f9d98',(#437,#438,#439,#440));
#442=ORIENTED_EDGE('',*,*,#377,.T.);
#443=ORIENTED_EDGE('',*,*,#389,.T.);
#444=ORIENTED_EDGE('',*,*,#393,.T.);
#445=ORIENTED_EDGE('',*,*,#391,.F.);
#446=EDGE_LOOP('OSCAD_TOPO/3|loop|l:a7270f37e7878050f58d1ca4b6fc8a07|c88f4516acf6b572d96bc7276a466387422f833f1b3618ec789fa753f15c8c56',(#442,#443,#444,#445));
#447=ORIENTED_EDGE('',*,*,#387,.T.);
#448=ORIENTED_EDGE('',*,*,#405,.T.);
#449=ORIENTED_EDGE('',*,*,#389,.F.);
#450=ORIENTED_EDGE('',*,*,#403,.F.);
#451=EDGE_LOOP('OSCAD_TOPO/3|loop|l:c3f3f6cd07c3ca8d6fe0c40a512bd9ad|72cc98a1beea329ca0a822fd37291f144194499d44485d374108287574fac3a4',(#447,#448,#449,#450));
#452=ORIENTED_EDGE('',*,*,#411,.T.);
#453=ORIENTED_EDGE('',*,*,#397,.F.);
#454=ORIENTED_EDGE('',*,*,#407,.F.);
#455=ORIENTED_EDGE('',*,*,#385,.T.);
#456=EDGE_LOOP('OSCAD_TOPO/3|loop|l:d28991f2e44a685ccea332e7e0dcf029|cfd939349f627d242c7e104e190ca120b8904fb5178e0f11e5b96baa8432cd20',(#452,#453,#454,#455));
#457=ORIENTED_EDGE('',*,*,#393,.F.);
#458=ORIENTED_EDGE('',*,*,#409,.T.);
#459=ORIENTED_EDGE('',*,*,#401,.T.);
#460=ORIENTED_EDGE('',*,*,#413,.F.);
#461=EDGE_LOOP('OSCAD_TOPO/3|loop|l:1bc6ecc563aa40e310fb76c0284d9123|2cca16aa58861ea1d651fa3db3f83e7b21d8b878dd02d42d98fa0b298c27f86f',(#457,#458,#459,#460));
#462=ORIENTED_EDGE('',*,*,#409,.F.);
#463=ORIENTED_EDGE('',*,*,#405,.F.);
#464=ORIENTED_EDGE('',*,*,#407,.T.);
#465=EDGE_LOOP('OSCAD_TOPO/3|loop|l:7942aa499a1e3811cbfcab037432582f|b085966231c2f9b49dd846a843b6a3a5a58930dc53728ff6f9bc63997779ca3c',(#462,#463,#464));
#466=FACE_OUTER_BOUND('',#419,.T.);
#467=ADVANCED_FACE('OSCAD_TOPO/3|face|f:d55de2a3610618d524083df4cdad8bc0|50a03df5c38de51fb533bba6059f4c2cffd0854338c4e2b7fa34a0ffafd22080',(#466),#31,.T.);
#468=FACE_OUTER_BOUND('',#424,.T.);
#469=ADVANCED_FACE('OSCAD_TOPO/3|face|f:d08aea29fec2e6086faa4699be85f65b|e1db730e4d566f1bb8a715ba2c3c9ce370f1c49ffcc2bc8f5799b52c67b8749e',(#468),#36,.T.);
#470=FACE_OUTER_BOUND('',#430,.T.);
#471=ADVANCED_FACE('OSCAD_TOPO/3|face|f:40bc49fd75f9491c9ea3f2526e1f277a|320e296321bf9d8f9193e11e73e10c9f70df97bf1a321eefb2808685db6d041c',(#470),#41,.T.);
#472=FACE_OUTER_BOUND('',#436,.T.);
#473=ADVANCED_FACE('OSCAD_TOPO/3|face|f:1475a648bc5de7df076796eead5b7b50|b8e47c6e170e16a05137c7ef50eab69b4ae10eef90b4f6e3478ec892349407a9',(#472),#46,.T.);
#474=FACE_OUTER_BOUND('',#441,.T.);
#475=ADVANCED_FACE('OSCAD_TOPO/3|face|f:2f126ddd22b59eb302016d4412cd5c69|0690915087c2ecaba88acf523dddefecbb58e65dd6bf26d404d57ff6641b2f85',(#474),#51,.T.);
#476=FACE_OUTER_BOUND('',#446,.T.);
#477=ADVANCED_FACE('OSCAD_TOPO/3|face|f:6aa8d30a8986ad7be42a02b7f17940bf|abfae3cc4d54035dd937f85d19a2f7d92652243dca33908389e93433ab37204b',(#476),#56,.T.);
#478=FACE_OUTER_BOUND('',#451,.T.);
#479=ADVANCED_FACE('OSCAD_TOPO/3|face|f:1a46a650ec2203aea512a5ceac0efc5f|876e6861a2248b16e890080684db4881dceabaaa085906e45d4c88a68b587991',(#478),#63,.T.);
#480=FACE_OUTER_BOUND('',#456,.T.);
#481=ADVANCED_FACE('OSCAD_TOPO/3|face|f:c24528a50cdcd40e8b2a823f69c96237|1bb1c73b3a453af1a611e63e7d7090febfec0cd5b7bc8fd4f594b0c28d42273a',(#480),#70,.T.);
#482=FACE_OUTER_BOUND('',#461,.T.);
#483=ADVANCED_FACE('OSCAD_TOPO/3|face|f:3c9605e0fccecd2501e3ac19e7ecf057|ea979f1c3e39a47ad97d1b6b5880cf14d66cca555275f2579e91e1c695d38024',(#482),#77,.T.);
#484=FACE_OUTER_BOUND('',#465,.T.);
#485=ADVANCED_FACE('OSCAD_TOPO/3|face|f:2e76f27366bced223e6f673d4a9bc4ca|69c21989c28fdc48807158e99d9d724fc11be0883ab9c5725b3e420ae40b6e50',(#484),#87,.T.);
#486=CLOSED_SHELL('OSCAD_TOPO/3|shell|s:a7745ff9d7604ea4e0544b65628dc2f3|74ee42794617192c0b30df54aef6d125e997e09ef7ee23310e177011a0431b0c',(#467,#469,#471,#473,#475,#477,#479,#481,#483,#485));
#487=MANIFOLD_SOLID_BREP('OSCAD_TOPO/3|body|b:192b9b7d889a5cc29d4268f19818cc2c|90aefcc902bd1b02178b611cafbb03be7afc7a3f417c27549902d5c49cea6081',#486);
#488=(LENGTH_UNIT()NAMED_UNIT(*)SI_UNIT(.MILLI.,.METRE.));
#489=UNCERTAINTY_MEASURE_WITH_UNIT(LENGTH_MEASURE(9.99999999999999955E-8),#488,'distance_accuracy_value','');
#490=(GEOMETRIC_REPRESENTATION_CONTEXT(3)GLOBAL_UNCERTAINTY_ASSIGNED_CONTEXT((#489))GLOBAL_UNIT_ASSIGNED_CONTEXT((#488))REPRESENTATION_CONTEXT('','3D'));
#491=ADVANCED_BREP_SHAPE_REPRESENTATION('',(#487),#490);
#492=APPLICATION_CONTEXT('managed model based 3d engineering');
#493=PRODUCT_CONTEXT('',#492,'mechanical');
#494=PRODUCT('model','model','',(#493));
#495=PRODUCT_DEFINITION_FORMATION('1','',#494);
#496=PRODUCT_DEFINITION_CONTEXT('part definition',#492,'design');
#497=PRODUCT_DEFINITION('design','',#495,#496);
#498=PRODUCT_DEFINITION_SHAPE('','',#497);
#499=SHAPE_DEFINITION_REPRESENTATION(#498,#491);
ENDSEC;
END-ISO-10303-21;
