ISO-10303-21;
HEADER;
FILE_DESCRIPTION(('OpenSCAD Viewer retained AP242 B-rep'),'2;1');
FILE_NAME('model.step','',(''),(''),'OpenSCAD Viewer','OpenSCAD Viewer','');
FILE_SCHEMA(('AP242_MANAGED_MODEL_BASED_3D_ENGINEERING_MIM_LF'));
ENDSEC;
DATA;
#1=CARTESIAN_POINT('',(1.00000000000000000E0,0.00000000000000000E0,0.00000000000000000E0));
#2=VERTEX_POINT('OSCAD_TOPO/3|vertex|v:befe2ea341ef65389fdccf7b3e2df3b0|8e25ccad3a3f68fd24d7b20fab6b4ed802a15355cd7e7b9022a346f61c6b204f',#1);
#3=CARTESIAN_POINT('',(0.00000000000000000E0,1.00000000000000000E0,0.00000000000000000E0));
#4=VERTEX_POINT('OSCAD_TOPO/3|vertex|v:ea50bfb34bc94adec88a40daad718837|ccf045df9afd484518927e20a45f460699644d9e56dbe284c8bfb528ad24b044',#3);
#5=CARTESIAN_POINT('',(-1.00000000000000000E0,0.00000000000000000E0,0.00000000000000000E0));
#6=VERTEX_POINT('OSCAD_TOPO/3|vertex|v:e8383cc89db6828ff6cd38365fafdb7a|a8f9ceebd71915287b6bd8226ad2cf519c9e2009450585131f66478870cca77a',#5);
#7=CARTESIAN_POINT('',(0.00000000000000000E0,-1.00000000000000000E0,0.00000000000000000E0));
#8=VERTEX_POINT('OSCAD_TOPO/3|vertex|v:b9e8a1ba3aca8032c502ad2732ee0068|85d46364e39a2881df434d484719627f0f3cec5c8502c3a53615813ffdce6ae9',#7);
#9=CARTESIAN_POINT('',(2.50000000000000000E-1,0.00000000000000000E0,0.00000000000000000E0));
#10=VERTEX_POINT('OSCAD_TOPO/3|vertex|v:037eddff360781d04a6ed7e92c266a80|d270e3bd9e28252b8c9e0ca8d0abbe007520d7845b53819f24f9173cd16a9bd9',#9);
#11=CARTESIAN_POINT('',(0.00000000000000000E0,-2.50000000000000000E-1,0.00000000000000000E0));
#12=VERTEX_POINT('OSCAD_TOPO/3|vertex|v:c9d8ce9e667290e0024d929e3d0aaf8b|35565d0affbe82c16537056c26abef5e67840e34594d434616df38e5f79e2175',#11);
#13=CARTESIAN_POINT('',(-2.50000000000000000E-1,0.00000000000000000E0,0.00000000000000000E0));
#14=VERTEX_POINT('OSCAD_TOPO/3|vertex|v:a2a7e5a07a676c7fc6f21f1f7bc2f70d|35b266cb6d1b39445496c5cb79271ef677dce6ffe703d04d39a7c3c451c941c9',#13);
#15=CARTESIAN_POINT('',(0.00000000000000000E0,2.50000000000000000E-1,0.00000000000000000E0));
#16=VERTEX_POINT('OSCAD_TOPO/3|vertex|v:de1ed312fb4989a0f4c7402b8f81cfa3|6bcb5e0b2a6b0b9ad4477309fb104d6ecbeeb8f6d2c2238bb952e52ad4147112',#15);
#17=CARTESIAN_POINT('',(1.00000000000000000E0,0.00000000000000000E0,1.00000000000000000E1));
#18=VERTEX_POINT('OSCAD_TOPO/3|vertex|v:629511c91fb5e50a9ac8f748666a077f|2c9bb52a65cd5600ccdc375b09da5cf56065b23989cc9c1b76727ede7f8fea86',#17);
#19=CARTESIAN_POINT('',(0.00000000000000000E0,1.00000000000000000E0,1.00000000000000000E1));
#20=VERTEX_POINT('OSCAD_TOPO/3|vertex|v:c5ad3961a5ec04186b4eb078a1eb4267|8fd5977d95407c98cb2cf2c47bb7c0797d24b331e043ba04e1e79f57179791ad',#19);
#21=CARTESIAN_POINT('',(-1.00000000000000000E0,0.00000000000000000E0,1.00000000000000000E1));
#22=VERTEX_POINT('OSCAD_TOPO/3|vertex|v:ef1d790b638d92f1ecf9e9549f3b607a|12c28ce4d5676b040960d8277b90f9b20f5c3d975d6b54a4784c20ace007ed78',#21);
#23=CARTESIAN_POINT('',(0.00000000000000000E0,-1.00000000000000000E0,1.00000000000000000E1));
#24=VERTEX_POINT('OSCAD_TOPO/3|vertex|v:f9cb672842e09535cab34adf8c90d6ca|cab2a4c2433aa00d2b9c6557cbb9c39964f6f00df60504f982c48bbf338524b8',#23);
#25=CARTESIAN_POINT('',(2.50000000000000000E-1,0.00000000000000000E0,1.00000000000000000E1));
#26=VERTEX_POINT('OSCAD_TOPO/3|vertex|v:f731fed2f44a3e662fe5e4a2201355bb|3c0db5630a20b177b104098ac8c6ce47beadc771e8b125332f5d45001544d646',#25);
#27=CARTESIAN_POINT('',(0.00000000000000000E0,-2.50000000000000000E-1,1.00000000000000000E1));
#28=VERTEX_POINT('OSCAD_TOPO/3|vertex|v:01f918a0f7be4a6ba6ac055e80297742|faa87fae4f787166b40d20d27ca419eb1bd3372face8884c909d0878cbe92a6c',#27);
#29=CARTESIAN_POINT('',(-2.50000000000000000E-1,0.00000000000000000E0,1.00000000000000000E1));
#30=VERTEX_POINT('OSCAD_TOPO/3|vertex|v:3baaad985313c029dba5046a14ff055c|00d0d913fab94963e1714ddbf8c2d725bb66906171c4e5ebbff5c92f2292d946',#29);
#31=CARTESIAN_POINT('',(0.00000000000000000E0,2.50000000000000000E-1,1.00000000000000000E1));
#32=VERTEX_POINT('OSCAD_TOPO/3|vertex|v:453028ed4cfae525f0a807faef30086c|1c80744ee25ba42fce125bf3948147afaf1ecc71d16f494d87408000f5e33b94',#31);
#33=CARTESIAN_POINT('',(1.00000000000000000E0,0.00000000000000000E0,0.00000000000000000E0));
#34=CARTESIAN_POINT('',(1.00000000000000000E0,0.00000000000000000E0,1.00000000000000000E1));
#35=CARTESIAN_POINT('',(1.00000000000000000E0,1.00000000000000000E0,0.00000000000000000E0));
#36=CARTESIAN_POINT('',(1.00000000000000000E0,1.00000000000000000E0,1.00000000000000000E1));
#37=CARTESIAN_POINT('',(0.00000000000000000E0,1.00000000000000000E0,0.00000000000000000E0));
#38=CARTESIAN_POINT('',(0.00000000000000000E0,1.00000000000000000E0,1.00000000000000000E1));
#39=B_SPLINE_SURFACE_WITH_KNOTS('',2,1,((#33,#34),(#35,#36),(#37,#38)),.UNSPECIFIED.,.F.,.F.,.F.,(3,3),(2,2),(0.00000000000000000E0,1.00000000000000000E0),(0.00000000000000000E0,1.00000000000000000E0),.UNSPECIFIED.);
#40=CARTESIAN_POINT('',(0.00000000000000000E0,1.00000000000000000E0,0.00000000000000000E0));
#41=CARTESIAN_POINT('',(0.00000000000000000E0,1.00000000000000000E0,1.00000000000000000E1));
#42=CARTESIAN_POINT('',(-1.00000000000000000E0,1.00000000000000000E0,0.00000000000000000E0));
#43=CARTESIAN_POINT('',(-1.00000000000000000E0,1.00000000000000000E0,1.00000000000000000E1));
#44=CARTESIAN_POINT('',(-1.00000000000000000E0,0.00000000000000000E0,0.00000000000000000E0));
#45=CARTESIAN_POINT('',(-1.00000000000000000E0,0.00000000000000000E0,1.00000000000000000E1));
#46=B_SPLINE_SURFACE_WITH_KNOTS('',2,1,((#40,#41),(#42,#43),(#44,#45)),.UNSPECIFIED.,.F.,.F.,.F.,(3,3),(2,2),(0.00000000000000000E0,1.00000000000000000E0),(0.00000000000000000E0,1.00000000000000000E0),.UNSPECIFIED.);
#47=CARTESIAN_POINT('',(-1.00000000000000000E0,0.00000000000000000E0,0.00000000000000000E0));
#48=CARTESIAN_POINT('',(-1.00000000000000000E0,0.00000000000000000E0,1.00000000000000000E1));
#49=CARTESIAN_POINT('',(-1.00000000000000000E0,-1.00000000000000000E0,0.00000000000000000E0));
#50=CARTESIAN_POINT('',(-1.00000000000000000E0,-1.00000000000000000E0,1.00000000000000000E1));
#51=CARTESIAN_POINT('',(0.00000000000000000E0,-1.00000000000000000E0,0.00000000000000000E0));
#52=CARTESIAN_POINT('',(0.00000000000000000E0,-1.00000000000000000E0,1.00000000000000000E1));
#53=B_SPLINE_SURFACE_WITH_KNOTS('',2,1,((#47,#48),(#49,#50),(#51,#52)),.UNSPECIFIED.,.F.,.F.,.F.,(3,3),(2,2),(0.00000000000000000E0,1.00000000000000000E0),(0.00000000000000000E0,1.00000000000000000E0),.UNSPECIFIED.);
#54=CARTESIAN_POINT('',(0.00000000000000000E0,-1.00000000000000000E0,0.00000000000000000E0));
#55=CARTESIAN_POINT('',(0.00000000000000000E0,-1.00000000000000000E0,1.00000000000000000E1));
#56=CARTESIAN_POINT('',(1.00000000000000000E0,-1.00000000000000000E0,0.00000000000000000E0));
#57=CARTESIAN_POINT('',(1.00000000000000000E0,-1.00000000000000000E0,1.00000000000000000E1));
#58=CARTESIAN_POINT('',(1.00000000000000000E0,0.00000000000000000E0,0.00000000000000000E0));
#59=CARTESIAN_POINT('',(1.00000000000000000E0,0.00000000000000000E0,1.00000000000000000E1));
#60=B_SPLINE_SURFACE_WITH_KNOTS('',2,1,((#54,#55),(#56,#57),(#58,#59)),.UNSPECIFIED.,.F.,.F.,.F.,(3,3),(2,2),(0.00000000000000000E0,1.00000000000000000E0),(0.00000000000000000E0,1.00000000000000000E0),.UNSPECIFIED.);
#61=CARTESIAN_POINT('',(2.50000000000000000E-1,0.00000000000000000E0,0.00000000000000000E0));
#62=CARTESIAN_POINT('',(2.50000000000000000E-1,0.00000000000000000E0,1.00000000000000000E1));
#63=CARTESIAN_POINT('',(2.50000000000000000E-1,-2.50000000000000000E-1,0.00000000000000000E0));
#64=CARTESIAN_POINT('',(2.50000000000000000E-1,-2.50000000000000000E-1,1.00000000000000000E1));
#65=CARTESIAN_POINT('',(0.00000000000000000E0,-2.50000000000000000E-1,0.00000000000000000E0));
#66=CARTESIAN_POINT('',(0.00000000000000000E0,-2.50000000000000000E-1,1.00000000000000000E1));
#67=B_SPLINE_SURFACE_WITH_KNOTS('',2,1,((#61,#62),(#63,#64),(#65,#66)),.UNSPECIFIED.,.F.,.F.,.F.,(3,3),(2,2),(0.00000000000000000E0,1.00000000000000000E0),(0.00000000000000000E0,1.00000000000000000E0),.UNSPECIFIED.);
#68=CARTESIAN_POINT('',(0.00000000000000000E0,-2.50000000000000000E-1,0.00000000000000000E0));
#69=CARTESIAN_POINT('',(0.00000000000000000E0,-2.50000000000000000E-1,1.00000000000000000E1));
#70=CARTESIAN_POINT('',(-2.50000000000000000E-1,-2.50000000000000000E-1,0.00000000000000000E0));
#71=CARTESIAN_POINT('',(-2.50000000000000000E-1,-2.50000000000000000E-1,1.00000000000000000E1));
#72=CARTESIAN_POINT('',(-2.50000000000000000E-1,0.00000000000000000E0,0.00000000000000000E0));
#73=CARTESIAN_POINT('',(-2.50000000000000000E-1,0.00000000000000000E0,1.00000000000000000E1));
#74=B_SPLINE_SURFACE_WITH_KNOTS('',2,1,((#68,#69),(#70,#71),(#72,#73)),.UNSPECIFIED.,.F.,.F.,.F.,(3,3),(2,2),(0.00000000000000000E0,1.00000000000000000E0),(0.00000000000000000E0,1.00000000000000000E0),.UNSPECIFIED.);
#75=CARTESIAN_POINT('',(-2.50000000000000000E-1,0.00000000000000000E0,0.00000000000000000E0));
#76=CARTESIAN_POINT('',(-2.50000000000000000E-1,0.00000000000000000E0,1.00000000000000000E1));
#77=CARTESIAN_POINT('',(-2.50000000000000000E-1,2.50000000000000000E-1,0.00000000000000000E0));
#78=CARTESIAN_POINT('',(-2.50000000000000000E-1,2.50000000000000000E-1,1.00000000000000000E1));
#79=CARTESIAN_POINT('',(0.00000000000000000E0,2.50000000000000000E-1,0.00000000000000000E0));
#80=CARTESIAN_POINT('',(0.00000000000000000E0,2.50000000000000000E-1,1.00000000000000000E1));
#81=B_SPLINE_SURFACE_WITH_KNOTS('',2,1,((#75,#76),(#77,#78),(#79,#80)),.UNSPECIFIED.,.F.,.F.,.F.,(3,3),(2,2),(0.00000000000000000E0,1.00000000000000000E0),(0.00000000000000000E0,1.00000000000000000E0),.UNSPECIFIED.);
#82=CARTESIAN_POINT('',(0.00000000000000000E0,2.50000000000000000E-1,0.00000000000000000E0));
#83=CARTESIAN_POINT('',(0.00000000000000000E0,2.50000000000000000E-1,1.00000000000000000E1));
#84=CARTESIAN_POINT('',(2.50000000000000000E-1,2.50000000000000000E-1,0.00000000000000000E0));
#85=CARTESIAN_POINT('',(2.50000000000000000E-1,2.50000000000000000E-1,1.00000000000000000E1));
#86=CARTESIAN_POINT('',(2.50000000000000000E-1,0.00000000000000000E0,0.00000000000000000E0));
#87=CARTESIAN_POINT('',(2.50000000000000000E-1,0.00000000000000000E0,1.00000000000000000E1));
#88=B_SPLINE_SURFACE_WITH_KNOTS('',2,1,((#82,#83),(#84,#85),(#86,#87)),.UNSPECIFIED.,.F.,.F.,.F.,(3,3),(2,2),(0.00000000000000000E0,1.00000000000000000E0),(0.00000000000000000E0,1.00000000000000000E0),.UNSPECIFIED.);
#89=CARTESIAN_POINT('',(1.00000000000000000E0,-1.00000000000000000E0,0.00000000000000000E0));
#90=CARTESIAN_POINT('',(1.00000000000000000E0,1.00000000000000000E0,0.00000000000000000E0));
#91=CARTESIAN_POINT('',(-1.00000000000000000E0,-1.00000000000000000E0,0.00000000000000000E0));
#92=CARTESIAN_POINT('',(-1.00000000000000000E0,1.00000000000000000E0,0.00000000000000000E0));
#93=B_SPLINE_SURFACE_WITH_KNOTS('',1,1,((#89,#90),(#91,#92)),.UNSPECIFIED.,.F.,.F.,.F.,(2,2),(2,2),(-1.00000000000000000E0,1.00000000000000000E0),(-1.00000000000000000E0,1.00000000000000000E0),.UNSPECIFIED.);
#94=CARTESIAN_POINT('',(-1.00000000000000000E0,-1.00000000000000000E0,1.00000000000000000E1));
#95=CARTESIAN_POINT('',(-1.00000000000000000E0,1.00000000000000000E0,1.00000000000000000E1));
#96=CARTESIAN_POINT('',(1.00000000000000000E0,-1.00000000000000000E0,1.00000000000000000E1));
#97=CARTESIAN_POINT('',(1.00000000000000000E0,1.00000000000000000E0,1.00000000000000000E1));
#98=B_SPLINE_SURFACE_WITH_KNOTS('',1,1,((#94,#95),(#96,#97)),.UNSPECIFIED.,.F.,.F.,.F.,(2,2),(2,2),(-1.00000000000000000E0,1.00000000000000000E0),(-1.00000000000000000E0,1.00000000000000000E0),.UNSPECIFIED.);
#99=CARTESIAN_POINT('',(1.00000000000000000E0,0.00000000000000000E0,0.00000000000000000E0));
#100=CARTESIAN_POINT('',(1.00000000000000000E0,1.00000000000000000E0,0.00000000000000000E0));
#101=CARTESIAN_POINT('',(0.00000000000000000E0,1.00000000000000000E0,0.00000000000000000E0));
#102=B_SPLINE_CURVE_WITH_KNOTS('',2,(#99,#100,#101),.UNSPECIFIED.,.F.,.F.,(3,3),(0.00000000000000000E0,1.00000000000000000E0),.UNSPECIFIED.);
#103=CARTESIAN_POINT('',(0.00000000000000000E0,1.00000000000000000E0,0.00000000000000000E0));
#104=CARTESIAN_POINT('',(0.00000000000000000E0,1.00000000000000000E0,1.00000000000000000E1));
#105=B_SPLINE_CURVE_WITH_KNOTS('',1,(#103,#104),.UNSPECIFIED.,.F.,.F.,(2,2),(0.00000000000000000E0,1.00000000000000000E0),.UNSPECIFIED.);
#106=CARTESIAN_POINT('',(1.00000000000000000E0,0.00000000000000000E0,1.00000000000000000E1));
#107=CARTESIAN_POINT('',(1.00000000000000000E0,1.00000000000000000E0,1.00000000000000000E1));
#108=CARTESIAN_POINT('',(0.00000000000000000E0,1.00000000000000000E0,1.00000000000000000E1));
#109=B_SPLINE_CURVE_WITH_KNOTS('',2,(#106,#107,#108),.UNSPECIFIED.,.F.,.F.,(3,3),(0.00000000000000000E0,1.00000000000000000E0),.UNSPECIFIED.);
#110=CARTESIAN_POINT('',(1.00000000000000000E0,0.00000000000000000E0,0.00000000000000000E0));
#111=CARTESIAN_POINT('',(1.00000000000000000E0,0.00000000000000000E0,1.00000000000000000E1));
#112=B_SPLINE_CURVE_WITH_KNOTS('',1,(#110,#111),.UNSPECIFIED.,.F.,.F.,(2,2),(0.00000000000000000E0,1.00000000000000000E0),.UNSPECIFIED.);
#113=CARTESIAN_POINT('',(0.00000000000000000E0,1.00000000000000000E0,0.00000000000000000E0));
#114=CARTESIAN_POINT('',(-1.00000000000000000E0,1.00000000000000000E0,0.00000000000000000E0));
#115=CARTESIAN_POINT('',(-1.00000000000000000E0,0.00000000000000000E0,0.00000000000000000E0));
#116=B_SPLINE_CURVE_WITH_KNOTS('',2,(#113,#114,#115),.UNSPECIFIED.,.F.,.F.,(3,3),(0.00000000000000000E0,1.00000000000000000E0),.UNSPECIFIED.);
#117=CARTESIAN_POINT('',(-1.00000000000000000E0,0.00000000000000000E0,0.00000000000000000E0));
#118=CARTESIAN_POINT('',(-1.00000000000000000E0,0.00000000000000000E0,1.00000000000000000E1));
#119=B_SPLINE_CURVE_WITH_KNOTS('',1,(#117,#118),.UNSPECIFIED.,.F.,.F.,(2,2),(0.00000000000000000E0,1.00000000000000000E0),.UNSPECIFIED.);
#120=CARTESIAN_POINT('',(0.00000000000000000E0,1.00000000000000000E0,1.00000000000000000E1));
#121=CARTESIAN_POINT('',(-1.00000000000000000E0,1.00000000000000000E0,1.00000000000000000E1));
#122=CARTESIAN_POINT('',(-1.00000000000000000E0,0.00000000000000000E0,1.00000000000000000E1));
#123=B_SPLINE_CURVE_WITH_KNOTS('',2,(#120,#121,#122),.UNSPECIFIED.,.F.,.F.,(3,3),(0.00000000000000000E0,1.00000000000000000E0),.UNSPECIFIED.);
#124=CARTESIAN_POINT('',(-1.00000000000000000E0,0.00000000000000000E0,0.00000000000000000E0));
#125=CARTESIAN_POINT('',(-1.00000000000000000E0,-1.00000000000000000E0,0.00000000000000000E0));
#126=CARTESIAN_POINT('',(0.00000000000000000E0,-1.00000000000000000E0,0.00000000000000000E0));
#127=B_SPLINE_CURVE_WITH_KNOTS('',2,(#124,#125,#126),.UNSPECIFIED.,.F.,.F.,(3,3),(0.00000000000000000E0,1.00000000000000000E0),.UNSPECIFIED.);
#128=CARTESIAN_POINT('',(0.00000000000000000E0,-1.00000000000000000E0,0.00000000000000000E0));
#129=CARTESIAN_POINT('',(0.00000000000000000E0,-1.00000000000000000E0,1.00000000000000000E1));
#130=B_SPLINE_CURVE_WITH_KNOTS('',1,(#128,#129),.UNSPECIFIED.,.F.,.F.,(2,2),(0.00000000000000000E0,1.00000000000000000E0),.UNSPECIFIED.);
#131=CARTESIAN_POINT('',(-1.00000000000000000E0,0.00000000000000000E0,1.00000000000000000E1));
#132=CARTESIAN_POINT('',(-1.00000000000000000E0,-1.00000000000000000E0,1.00000000000000000E1));
#133=CARTESIAN_POINT('',(0.00000000000000000E0,-1.00000000000000000E0,1.00000000000000000E1));
#134=B_SPLINE_CURVE_WITH_KNOTS('',2,(#131,#132,#133),.UNSPECIFIED.,.F.,.F.,(3,3),(0.00000000000000000E0,1.00000000000000000E0),.UNSPECIFIED.);
#135=CARTESIAN_POINT('',(1.00000000000000000E0,0.00000000000000000E0,0.00000000000000000E0));
#136=CARTESIAN_POINT('',(1.00000000000000000E0,-1.00000000000000000E0,0.00000000000000000E0));
#137=CARTESIAN_POINT('',(0.00000000000000000E0,-1.00000000000000000E0,0.00000000000000000E0));
#138=B_SPLINE_CURVE_WITH_KNOTS('',2,(#135,#136,#137),.UNSPECIFIED.,.F.,.F.,(3,3),(0.00000000000000000E0,1.00000000000000000E0),.UNSPECIFIED.);
#139=CARTESIAN_POINT('',(1.00000000000000000E0,0.00000000000000000E0,1.00000000000000000E1));
#140=CARTESIAN_POINT('',(1.00000000000000000E0,-1.00000000000000000E0,1.00000000000000000E1));
#141=CARTESIAN_POINT('',(0.00000000000000000E0,-1.00000000000000000E0,1.00000000000000000E1));
#142=B_SPLINE_CURVE_WITH_KNOTS('',2,(#139,#140,#141),.UNSPECIFIED.,.F.,.F.,(3,3),(0.00000000000000000E0,1.00000000000000000E0),.UNSPECIFIED.);
#143=CARTESIAN_POINT('',(2.50000000000000000E-1,0.00000000000000000E0,0.00000000000000000E0));
#144=CARTESIAN_POINT('',(2.50000000000000000E-1,-2.50000000000000000E-1,0.00000000000000000E0));
#145=CARTESIAN_POINT('',(0.00000000000000000E0,-2.50000000000000000E-1,0.00000000000000000E0));
#146=B_SPLINE_CURVE_WITH_KNOTS('',2,(#143,#144,#145),.UNSPECIFIED.,.F.,.F.,(3,3),(0.00000000000000000E0,1.00000000000000000E0),.UNSPECIFIED.);
#147=CARTESIAN_POINT('',(0.00000000000000000E0,-2.50000000000000000E-1,0.00000000000000000E0));
#148=CARTESIAN_POINT('',(0.00000000000000000E0,-2.50000000000000000E-1,1.00000000000000000E1));
#149=B_SPLINE_CURVE_WITH_KNOTS('',1,(#147,#148),.UNSPECIFIED.,.F.,.F.,(2,2),(0.00000000000000000E0,1.00000000000000000E0),.UNSPECIFIED.);
#150=CARTESIAN_POINT('',(2.50000000000000000E-1,0.00000000000000000E0,1.00000000000000000E1));
#151=CARTESIAN_POINT('',(2.50000000000000000E-1,-2.50000000000000000E-1,1.00000000000000000E1));
#152=CARTESIAN_POINT('',(0.00000000000000000E0,-2.50000000000000000E-1,1.00000000000000000E1));
#153=B_SPLINE_CURVE_WITH_KNOTS('',2,(#150,#151,#152),.UNSPECIFIED.,.F.,.F.,(3,3),(0.00000000000000000E0,1.00000000000000000E0),.UNSPECIFIED.);
#154=CARTESIAN_POINT('',(2.50000000000000000E-1,0.00000000000000000E0,0.00000000000000000E0));
#155=CARTESIAN_POINT('',(2.50000000000000000E-1,0.00000000000000000E0,1.00000000000000000E1));
#156=B_SPLINE_CURVE_WITH_KNOTS('',1,(#154,#155),.UNSPECIFIED.,.F.,.F.,(2,2),(0.00000000000000000E0,1.00000000000000000E0),.UNSPECIFIED.);
#157=CARTESIAN_POINT('',(0.00000000000000000E0,-2.50000000000000000E-1,0.00000000000000000E0));
#158=CARTESIAN_POINT('',(-2.50000000000000000E-1,-2.50000000000000000E-1,0.00000000000000000E0));
#159=CARTESIAN_POINT('',(-2.50000000000000000E-1,0.00000000000000000E0,0.00000000000000000E0));
#160=B_SPLINE_CURVE_WITH_KNOTS('',2,(#157,#158,#159),.UNSPECIFIED.,.F.,.F.,(3,3),(0.00000000000000000E0,1.00000000000000000E0),.UNSPECIFIED.);
#161=CARTESIAN_POINT('',(-2.50000000000000000E-1,0.00000000000000000E0,0.00000000000000000E0));
#162=CARTESIAN_POINT('',(-2.50000000000000000E-1,0.00000000000000000E0,1.00000000000000000E1));
#163=B_SPLINE_CURVE_WITH_KNOTS('',1,(#161,#162),.UNSPECIFIED.,.F.,.F.,(2,2),(0.00000000000000000E0,1.00000000000000000E0),.UNSPECIFIED.);
#164=CARTESIAN_POINT('',(0.00000000000000000E0,-2.50000000000000000E-1,1.00000000000000000E1));
#165=CARTESIAN_POINT('',(-2.50000000000000000E-1,-2.50000000000000000E-1,1.00000000000000000E1));
#166=CARTESIAN_POINT('',(-2.50000000000000000E-1,0.00000000000000000E0,1.00000000000000000E1));
#167=B_SPLINE_CURVE_WITH_KNOTS('',2,(#164,#165,#166),.UNSPECIFIED.,.F.,.F.,(3,3),(0.00000000000000000E0,1.00000000000000000E0),.UNSPECIFIED.);
#168=CARTESIAN_POINT('',(-2.50000000000000000E-1,0.00000000000000000E0,0.00000000000000000E0));
#169=CARTESIAN_POINT('',(-2.50000000000000000E-1,2.50000000000000000E-1,0.00000000000000000E0));
#170=CARTESIAN_POINT('',(0.00000000000000000E0,2.50000000000000000E-1,0.00000000000000000E0));
#171=B_SPLINE_CURVE_WITH_KNOTS('',2,(#168,#169,#170),.UNSPECIFIED.,.F.,.F.,(3,3),(0.00000000000000000E0,1.00000000000000000E0),.UNSPECIFIED.);
#172=CARTESIAN_POINT('',(0.00000000000000000E0,2.50000000000000000E-1,0.00000000000000000E0));
#173=CARTESIAN_POINT('',(0.00000000000000000E0,2.50000000000000000E-1,1.00000000000000000E1));
#174=B_SPLINE_CURVE_WITH_KNOTS('',1,(#172,#173),.UNSPECIFIED.,.F.,.F.,(2,2),(0.00000000000000000E0,1.00000000000000000E0),.UNSPECIFIED.);
#175=CARTESIAN_POINT('',(-2.50000000000000000E-1,0.00000000000000000E0,1.00000000000000000E1));
#176=CARTESIAN_POINT('',(-2.50000000000000000E-1,2.50000000000000000E-1,1.00000000000000000E1));
#177=CARTESIAN_POINT('',(0.00000000000000000E0,2.50000000000000000E-1,1.00000000000000000E1));
#178=B_SPLINE_CURVE_WITH_KNOTS('',2,(#175,#176,#177),.UNSPECIFIED.,.F.,.F.,(3,3),(0.00000000000000000E0,1.00000000000000000E0),.UNSPECIFIED.);
#179=CARTESIAN_POINT('',(2.50000000000000000E-1,0.00000000000000000E0,0.00000000000000000E0));
#180=CARTESIAN_POINT('',(2.50000000000000000E-1,2.50000000000000000E-1,0.00000000000000000E0));
#181=CARTESIAN_POINT('',(0.00000000000000000E0,2.50000000000000000E-1,0.00000000000000000E0));
#182=B_SPLINE_CURVE_WITH_KNOTS('',2,(#179,#180,#181),.UNSPECIFIED.,.F.,.F.,(3,3),(0.00000000000000000E0,1.00000000000000000E0),.UNSPECIFIED.);
#183=CARTESIAN_POINT('',(2.50000000000000000E-1,0.00000000000000000E0,1.00000000000000000E1));
#184=CARTESIAN_POINT('',(2.50000000000000000E-1,2.50000000000000000E-1,1.00000000000000000E1));
#185=CARTESIAN_POINT('',(0.00000000000000000E0,2.50000000000000000E-1,1.00000000000000000E1));
#186=B_SPLINE_CURVE_WITH_KNOTS('',2,(#183,#184,#185),.UNSPECIFIED.,.F.,.F.,(3,3),(0.00000000000000000E0,1.00000000000000000E0),.UNSPECIFIED.);
#187=(GEOMETRIC_REPRESENTATION_CONTEXT(2)REPRESENTATION_CONTEXT('','2D'));
#188=CARTESIAN_POINT('',(0.00000000000000000E0,0.00000000000000000E0));
#189=CARTESIAN_POINT('',(1.00000000000000000E0,0.00000000000000000E0));
#190=B_SPLINE_CURVE_WITH_KNOTS('',1,(#188,#189),.UNSPECIFIED.,.F.,.F.,(2,2),(0.00000000000000000E0,1.00000000000000000E0),.UNSPECIFIED.);
#191=DEFINITIONAL_REPRESENTATION('',(#190),#187);
#192=PCURVE('',#39,#191);
#193=CARTESIAN_POINT('',(1.00000000000000000E0,0.00000000000000000E0));
#194=CARTESIAN_POINT('',(1.00000000000000000E0,1.00000000000000000E0));
#195=B_SPLINE_CURVE_WITH_KNOTS('',1,(#193,#194),.UNSPECIFIED.,.F.,.F.,(2,2),(0.00000000000000000E0,1.00000000000000000E0),.UNSPECIFIED.);
#196=DEFINITIONAL_REPRESENTATION('',(#195),#187);
#197=PCURVE('',#39,#196);
#198=CARTESIAN_POINT('',(1.00000000000000000E0,1.00000000000000000E0));
#199=CARTESIAN_POINT('',(0.00000000000000000E0,1.00000000000000000E0));
#200=B_SPLINE_CURVE_WITH_KNOTS('',1,(#198,#199),.UNSPECIFIED.,.F.,.F.,(2,2),(0.00000000000000000E0,1.00000000000000000E0),.UNSPECIFIED.);
#201=DEFINITIONAL_REPRESENTATION('',(#200),#187);
#202=PCURVE('',#39,#201);
#203=CARTESIAN_POINT('',(0.00000000000000000E0,1.00000000000000000E0));
#204=CARTESIAN_POINT('',(0.00000000000000000E0,0.00000000000000000E0));
#205=B_SPLINE_CURVE_WITH_KNOTS('',1,(#203,#204),.UNSPECIFIED.,.F.,.F.,(2,2),(0.00000000000000000E0,1.00000000000000000E0),.UNSPECIFIED.);
#206=DEFINITIONAL_REPRESENTATION('',(#205),#187);
#207=PCURVE('',#39,#206);
#208=CARTESIAN_POINT('',(0.00000000000000000E0,0.00000000000000000E0));
#209=CARTESIAN_POINT('',(1.00000000000000000E0,0.00000000000000000E0));
#210=B_SPLINE_CURVE_WITH_KNOTS('',1,(#208,#209),.UNSPECIFIED.,.F.,.F.,(2,2),(0.00000000000000000E0,1.00000000000000000E0),.UNSPECIFIED.);
#211=DEFINITIONAL_REPRESENTATION('',(#210),#187);
#212=PCURVE('',#46,#211);
#213=CARTESIAN_POINT('',(1.00000000000000000E0,0.00000000000000000E0));
#214=CARTESIAN_POINT('',(1.00000000000000000E0,1.00000000000000000E0));
#215=B_SPLINE_CURVE_WITH_KNOTS('',1,(#213,#214),.UNSPECIFIED.,.F.,.F.,(2,2),(0.00000000000000000E0,1.00000000000000000E0),.UNSPECIFIED.);
#216=DEFINITIONAL_REPRESENTATION('',(#215),#187);
#217=PCURVE('',#46,#216);
#218=CARTESIAN_POINT('',(1.00000000000000000E0,1.00000000000000000E0));
#219=CARTESIAN_POINT('',(0.00000000000000000E0,1.00000000000000000E0));
#220=B_SPLINE_CURVE_WITH_KNOTS('',1,(#218,#219),.UNSPECIFIED.,.F.,.F.,(2,2),(0.00000000000000000E0,1.00000000000000000E0),.UNSPECIFIED.);
#221=DEFINITIONAL_REPRESENTATION('',(#220),#187);
#222=PCURVE('',#46,#221);
#223=CARTESIAN_POINT('',(0.00000000000000000E0,1.00000000000000000E0));
#224=CARTESIAN_POINT('',(0.00000000000000000E0,0.00000000000000000E0));
#225=B_SPLINE_CURVE_WITH_KNOTS('',1,(#223,#224),.UNSPECIFIED.,.F.,.F.,(2,2),(0.00000000000000000E0,1.00000000000000000E0),.UNSPECIFIED.);
#226=DEFINITIONAL_REPRESENTATION('',(#225),#187);
#227=PCURVE('',#46,#226);
#228=CARTESIAN_POINT('',(0.00000000000000000E0,0.00000000000000000E0));
#229=CARTESIAN_POINT('',(1.00000000000000000E0,0.00000000000000000E0));
#230=B_SPLINE_CURVE_WITH_KNOTS('',1,(#228,#229),.UNSPECIFIED.,.F.,.F.,(2,2),(0.00000000000000000E0,1.00000000000000000E0),.UNSPECIFIED.);
#231=DEFINITIONAL_REPRESENTATION('',(#230),#187);
#232=PCURVE('',#53,#231);
#233=CARTESIAN_POINT('',(1.00000000000000000E0,0.00000000000000000E0));
#234=CARTESIAN_POINT('',(1.00000000000000000E0,1.00000000000000000E0));
#235=B_SPLINE_CURVE_WITH_KNOTS('',1,(#233,#234),.UNSPECIFIED.,.F.,.F.,(2,2),(0.00000000000000000E0,1.00000000000000000E0),.UNSPECIFIED.);
#236=DEFINITIONAL_REPRESENTATION('',(#235),#187);
#237=PCURVE('',#53,#236);
#238=CARTESIAN_POINT('',(1.00000000000000000E0,1.00000000000000000E0));
#239=CARTESIAN_POINT('',(0.00000000000000000E0,1.00000000000000000E0));
#240=B_SPLINE_CURVE_WITH_KNOTS('',1,(#238,#239),.UNSPECIFIED.,.F.,.F.,(2,2),(0.00000000000000000E0,1.00000000000000000E0),.UNSPECIFIED.);
#241=DEFINITIONAL_REPRESENTATION('',(#240),#187);
#242=PCURVE('',#53,#241);
#243=CARTESIAN_POINT('',(0.00000000000000000E0,1.00000000000000000E0));
#244=CARTESIAN_POINT('',(0.00000000000000000E0,0.00000000000000000E0));
#245=B_SPLINE_CURVE_WITH_KNOTS('',1,(#243,#244),.UNSPECIFIED.,.F.,.F.,(2,2),(0.00000000000000000E0,1.00000000000000000E0),.UNSPECIFIED.);
#246=DEFINITIONAL_REPRESENTATION('',(#245),#187);
#247=PCURVE('',#53,#246);
#248=CARTESIAN_POINT('',(0.00000000000000000E0,0.00000000000000000E0));
#249=CARTESIAN_POINT('',(1.00000000000000000E0,0.00000000000000000E0));
#250=B_SPLINE_CURVE_WITH_KNOTS('',1,(#248,#249),.UNSPECIFIED.,.F.,.F.,(2,2),(0.00000000000000000E0,1.00000000000000000E0),.UNSPECIFIED.);
#251=DEFINITIONAL_REPRESENTATION('',(#250),#187);
#252=PCURVE('',#60,#251);
#253=CARTESIAN_POINT('',(1.00000000000000000E0,0.00000000000000000E0));
#254=CARTESIAN_POINT('',(1.00000000000000000E0,1.00000000000000000E0));
#255=B_SPLINE_CURVE_WITH_KNOTS('',1,(#253,#254),.UNSPECIFIED.,.F.,.F.,(2,2),(0.00000000000000000E0,1.00000000000000000E0),.UNSPECIFIED.);
#256=DEFINITIONAL_REPRESENTATION('',(#255),#187);
#257=PCURVE('',#60,#256);
#258=CARTESIAN_POINT('',(1.00000000000000000E0,1.00000000000000000E0));
#259=CARTESIAN_POINT('',(0.00000000000000000E0,1.00000000000000000E0));
#260=B_SPLINE_CURVE_WITH_KNOTS('',1,(#258,#259),.UNSPECIFIED.,.F.,.F.,(2,2),(0.00000000000000000E0,1.00000000000000000E0),.UNSPECIFIED.);
#261=DEFINITIONAL_REPRESENTATION('',(#260),#187);
#262=PCURVE('',#60,#261);
#263=CARTESIAN_POINT('',(0.00000000000000000E0,1.00000000000000000E0));
#264=CARTESIAN_POINT('',(0.00000000000000000E0,0.00000000000000000E0));
#265=B_SPLINE_CURVE_WITH_KNOTS('',1,(#263,#264),.UNSPECIFIED.,.F.,.F.,(2,2),(0.00000000000000000E0,1.00000000000000000E0),.UNSPECIFIED.);
#266=DEFINITIONAL_REPRESENTATION('',(#265),#187);
#267=PCURVE('',#60,#266);
#268=CARTESIAN_POINT('',(0.00000000000000000E0,0.00000000000000000E0));
#269=CARTESIAN_POINT('',(1.00000000000000000E0,0.00000000000000000E0));
#270=B_SPLINE_CURVE_WITH_KNOTS('',1,(#268,#269),.UNSPECIFIED.,.F.,.F.,(2,2),(0.00000000000000000E0,1.00000000000000000E0),.UNSPECIFIED.);
#271=DEFINITIONAL_REPRESENTATION('',(#270),#187);
#272=PCURVE('',#67,#271);
#273=CARTESIAN_POINT('',(1.00000000000000000E0,0.00000000000000000E0));
#274=CARTESIAN_POINT('',(1.00000000000000000E0,1.00000000000000000E0));
#275=B_SPLINE_CURVE_WITH_KNOTS('',1,(#273,#274),.UNSPECIFIED.,.F.,.F.,(2,2),(0.00000000000000000E0,1.00000000000000000E0),.UNSPECIFIED.);
#276=DEFINITIONAL_REPRESENTATION('',(#275),#187);
#277=PCURVE('',#67,#276);
#278=CARTESIAN_POINT('',(1.00000000000000000E0,1.00000000000000000E0));
#279=CARTESIAN_POINT('',(0.00000000000000000E0,1.00000000000000000E0));
#280=B_SPLINE_CURVE_WITH_KNOTS('',1,(#278,#279),.UNSPECIFIED.,.F.,.F.,(2,2),(0.00000000000000000E0,1.00000000000000000E0),.UNSPECIFIED.);
#281=DEFINITIONAL_REPRESENTATION('',(#280),#187);
#282=PCURVE('',#67,#281);
#283=CARTESIAN_POINT('',(0.00000000000000000E0,1.00000000000000000E0));
#284=CARTESIAN_POINT('',(0.00000000000000000E0,0.00000000000000000E0));
#285=B_SPLINE_CURVE_WITH_KNOTS('',1,(#283,#284),.UNSPECIFIED.,.F.,.F.,(2,2),(0.00000000000000000E0,1.00000000000000000E0),.UNSPECIFIED.);
#286=DEFINITIONAL_REPRESENTATION('',(#285),#187);
#287=PCURVE('',#67,#286);
#288=CARTESIAN_POINT('',(0.00000000000000000E0,0.00000000000000000E0));
#289=CARTESIAN_POINT('',(1.00000000000000000E0,0.00000000000000000E0));
#290=B_SPLINE_CURVE_WITH_KNOTS('',1,(#288,#289),.UNSPECIFIED.,.F.,.F.,(2,2),(0.00000000000000000E0,1.00000000000000000E0),.UNSPECIFIED.);
#291=DEFINITIONAL_REPRESENTATION('',(#290),#187);
#292=PCURVE('',#74,#291);
#293=CARTESIAN_POINT('',(1.00000000000000000E0,0.00000000000000000E0));
#294=CARTESIAN_POINT('',(1.00000000000000000E0,1.00000000000000000E0));
#295=B_SPLINE_CURVE_WITH_KNOTS('',1,(#293,#294),.UNSPECIFIED.,.F.,.F.,(2,2),(0.00000000000000000E0,1.00000000000000000E0),.UNSPECIFIED.);
#296=DEFINITIONAL_REPRESENTATION('',(#295),#187);
#297=PCURVE('',#74,#296);
#298=CARTESIAN_POINT('',(1.00000000000000000E0,1.00000000000000000E0));
#299=CARTESIAN_POINT('',(0.00000000000000000E0,1.00000000000000000E0));
#300=B_SPLINE_CURVE_WITH_KNOTS('',1,(#298,#299),.UNSPECIFIED.,.F.,.F.,(2,2),(0.00000000000000000E0,1.00000000000000000E0),.UNSPECIFIED.);
#301=DEFINITIONAL_REPRESENTATION('',(#300),#187);
#302=PCURVE('',#74,#301);
#303=CARTESIAN_POINT('',(0.00000000000000000E0,1.00000000000000000E0));
#304=CARTESIAN_POINT('',(0.00000000000000000E0,0.00000000000000000E0));
#305=B_SPLINE_CURVE_WITH_KNOTS('',1,(#303,#304),.UNSPECIFIED.,.F.,.F.,(2,2),(0.00000000000000000E0,1.00000000000000000E0),.UNSPECIFIED.);
#306=DEFINITIONAL_REPRESENTATION('',(#305),#187);
#307=PCURVE('',#74,#306);
#308=CARTESIAN_POINT('',(0.00000000000000000E0,0.00000000000000000E0));
#309=CARTESIAN_POINT('',(1.00000000000000000E0,0.00000000000000000E0));
#310=B_SPLINE_CURVE_WITH_KNOTS('',1,(#308,#309),.UNSPECIFIED.,.F.,.F.,(2,2),(0.00000000000000000E0,1.00000000000000000E0),.UNSPECIFIED.);
#311=DEFINITIONAL_REPRESENTATION('',(#310),#187);
#312=PCURVE('',#81,#311);
#313=CARTESIAN_POINT('',(1.00000000000000000E0,0.00000000000000000E0));
#314=CARTESIAN_POINT('',(1.00000000000000000E0,1.00000000000000000E0));
#315=B_SPLINE_CURVE_WITH_KNOTS('',1,(#313,#314),.UNSPECIFIED.,.F.,.F.,(2,2),(0.00000000000000000E0,1.00000000000000000E0),.UNSPECIFIED.);
#316=DEFINITIONAL_REPRESENTATION('',(#315),#187);
#317=PCURVE('',#81,#316);
#318=CARTESIAN_POINT('',(1.00000000000000000E0,1.00000000000000000E0));
#319=CARTESIAN_POINT('',(0.00000000000000000E0,1.00000000000000000E0));
#320=B_SPLINE_CURVE_WITH_KNOTS('',1,(#318,#319),.UNSPECIFIED.,.F.,.F.,(2,2),(0.00000000000000000E0,1.00000000000000000E0),.UNSPECIFIED.);
#321=DEFINITIONAL_REPRESENTATION('',(#320),#187);
#322=PCURVE('',#81,#321);
#323=CARTESIAN_POINT('',(0.00000000000000000E0,1.00000000000000000E0));
#324=CARTESIAN_POINT('',(0.00000000000000000E0,0.00000000000000000E0));
#325=B_SPLINE_CURVE_WITH_KNOTS('',1,(#323,#324),.UNSPECIFIED.,.F.,.F.,(2,2),(0.00000000000000000E0,1.00000000000000000E0),.UNSPECIFIED.);
#326=DEFINITIONAL_REPRESENTATION('',(#325),#187);
#327=PCURVE('',#81,#326);
#328=CARTESIAN_POINT('',(0.00000000000000000E0,0.00000000000000000E0));
#329=CARTESIAN_POINT('',(1.00000000000000000E0,0.00000000000000000E0));
#330=B_SPLINE_CURVE_WITH_KNOTS('',1,(#328,#329),.UNSPECIFIED.,.F.,.F.,(2,2),(0.00000000000000000E0,1.00000000000000000E0),.UNSPECIFIED.);
#331=DEFINITIONAL_REPRESENTATION('',(#330),#187);
#332=PCURVE('',#88,#331);
#333=CARTESIAN_POINT('',(1.00000000000000000E0,0.00000000000000000E0));
#334=CARTESIAN_POINT('',(1.00000000000000000E0,1.00000000000000000E0));
#335=B_SPLINE_CURVE_WITH_KNOTS('',1,(#333,#334),.UNSPECIFIED.,.F.,.F.,(2,2),(0.00000000000000000E0,1.00000000000000000E0),.UNSPECIFIED.);
#336=DEFINITIONAL_REPRESENTATION('',(#335),#187);
#337=PCURVE('',#88,#336);
#338=CARTESIAN_POINT('',(1.00000000000000000E0,1.00000000000000000E0));
#339=CARTESIAN_POINT('',(0.00000000000000000E0,1.00000000000000000E0));
#340=B_SPLINE_CURVE_WITH_KNOTS('',1,(#338,#339),.UNSPECIFIED.,.F.,.F.,(2,2),(0.00000000000000000E0,1.00000000000000000E0),.UNSPECIFIED.);
#341=DEFINITIONAL_REPRESENTATION('',(#340),#187);
#342=PCURVE('',#88,#341);
#343=CARTESIAN_POINT('',(0.00000000000000000E0,1.00000000000000000E0));
#344=CARTESIAN_POINT('',(0.00000000000000000E0,0.00000000000000000E0));
#345=B_SPLINE_CURVE_WITH_KNOTS('',1,(#343,#344),.UNSPECIFIED.,.F.,.F.,(2,2),(0.00000000000000000E0,1.00000000000000000E0),.UNSPECIFIED.);
#346=DEFINITIONAL_REPRESENTATION('',(#345),#187);
#347=PCURVE('',#88,#346);
#348=CARTESIAN_POINT('',(-1.00000000000000000E0,0.00000000000000000E0));
#349=CARTESIAN_POINT('',(-1.00000000000000000E0,-1.00000000000000000E0));
#350=CARTESIAN_POINT('',(0.00000000000000000E0,-1.00000000000000000E0));
#351=B_SPLINE_CURVE_WITH_KNOTS('',2,(#348,#349,#350),.UNSPECIFIED.,.F.,.F.,(3,3),(0.00000000000000000E0,1.00000000000000000E0),.UNSPECIFIED.);
#352=DEFINITIONAL_REPRESENTATION('',(#351),#187);
#353=PCURVE('',#93,#352);
#354=CARTESIAN_POINT('',(0.00000000000000000E0,-1.00000000000000000E0));
#355=CARTESIAN_POINT('',(1.00000000000000000E0,-1.00000000000000000E0));
#356=CARTESIAN_POINT('',(1.00000000000000000E0,0.00000000000000000E0));
#357=B_SPLINE_CURVE_WITH_KNOTS('',2,(#354,#355,#356),.UNSPECIFIED.,.F.,.F.,(3,3),(0.00000000000000000E0,1.00000000000000000E0),.UNSPECIFIED.);
#358=DEFINITIONAL_REPRESENTATION('',(#357),#187);
#359=PCURVE('',#93,#358);
#360=CARTESIAN_POINT('',(1.00000000000000000E0,0.00000000000000000E0));
#361=CARTESIAN_POINT('',(1.00000000000000000E0,1.00000000000000000E0));
#362=CARTESIAN_POINT('',(0.00000000000000000E0,1.00000000000000000E0));
#363=B_SPLINE_CURVE_WITH_KNOTS('',2,(#360,#361,#362),.UNSPECIFIED.,.F.,.F.,(3,3),(0.00000000000000000E0,1.00000000000000000E0),.UNSPECIFIED.);
#364=DEFINITIONAL_REPRESENTATION('',(#363),#187);
#365=PCURVE('',#93,#364);
#366=CARTESIAN_POINT('',(0.00000000000000000E0,1.00000000000000000E0));
#367=CARTESIAN_POINT('',(-1.00000000000000000E0,1.00000000000000000E0));
#368=CARTESIAN_POINT('',(-1.00000000000000000E0,0.00000000000000000E0));
#369=B_SPLINE_CURVE_WITH_KNOTS('',2,(#366,#367,#368),.UNSPECIFIED.,.F.,.F.,(3,3),(0.00000000000000000E0,1.00000000000000000E0),.UNSPECIFIED.);
#370=DEFINITIONAL_REPRESENTATION('',(#369),#187);
#371=PCURVE('',#93,#370);
#372=CARTESIAN_POINT('',(-2.50000000000000000E-1,0.00000000000000000E0));
#373=CARTESIAN_POINT('',(-2.50000000000000000E-1,2.50000000000000000E-1));
#374=CARTESIAN_POINT('',(0.00000000000000000E0,2.50000000000000000E-1));
#375=B_SPLINE_CURVE_WITH_KNOTS('',2,(#372,#373,#374),.UNSPECIFIED.,.F.,.F.,(3,3),(0.00000000000000000E0,1.00000000000000000E0),.UNSPECIFIED.);
#376=DEFINITIONAL_REPRESENTATION('',(#375),#187);
#377=PCURVE('',#93,#376);
#378=CARTESIAN_POINT('',(0.00000000000000000E0,2.50000000000000000E-1));
#379=CARTESIAN_POINT('',(2.50000000000000000E-1,2.50000000000000000E-1));
#380=CARTESIAN_POINT('',(2.50000000000000000E-1,0.00000000000000000E0));
#381=B_SPLINE_CURVE_WITH_KNOTS('',2,(#378,#379,#380),.UNSPECIFIED.,.F.,.F.,(3,3),(0.00000000000000000E0,1.00000000000000000E0),.UNSPECIFIED.);
#382=DEFINITIONAL_REPRESENTATION('',(#381),#187);
#383=PCURVE('',#93,#382);
#384=CARTESIAN_POINT('',(2.50000000000000000E-1,0.00000000000000000E0));
#385=CARTESIAN_POINT('',(2.50000000000000000E-1,-2.50000000000000000E-1));
#386=CARTESIAN_POINT('',(0.00000000000000000E0,-2.50000000000000000E-1));
#387=B_SPLINE_CURVE_WITH_KNOTS('',2,(#384,#385,#386),.UNSPECIFIED.,.F.,.F.,(3,3),(0.00000000000000000E0,1.00000000000000000E0),.UNSPECIFIED.);
#388=DEFINITIONAL_REPRESENTATION('',(#387),#187);
#389=PCURVE('',#93,#388);
#390=CARTESIAN_POINT('',(0.00000000000000000E0,-2.50000000000000000E-1));
#391=CARTESIAN_POINT('',(-2.50000000000000000E-1,-2.50000000000000000E-1));
#392=CARTESIAN_POINT('',(-2.50000000000000000E-1,0.00000000000000000E0));
#393=B_SPLINE_CURVE_WITH_KNOTS('',2,(#390,#391,#392),.UNSPECIFIED.,.F.,.F.,(3,3),(0.00000000000000000E0,1.00000000000000000E0),.UNSPECIFIED.);
#394=DEFINITIONAL_REPRESENTATION('',(#393),#187);
#395=PCURVE('',#93,#394);
#396=CARTESIAN_POINT('',(1.00000000000000000E0,0.00000000000000000E0));
#397=CARTESIAN_POINT('',(1.00000000000000000E0,1.00000000000000000E0));
#398=CARTESIAN_POINT('',(0.00000000000000000E0,1.00000000000000000E0));
#399=B_SPLINE_CURVE_WITH_KNOTS('',2,(#396,#397,#398),.UNSPECIFIED.,.F.,.F.,(3,3),(0.00000000000000000E0,1.00000000000000000E0),.UNSPECIFIED.);
#400=DEFINITIONAL_REPRESENTATION('',(#399),#187);
#401=PCURVE('',#98,#400);
#402=CARTESIAN_POINT('',(0.00000000000000000E0,1.00000000000000000E0));
#403=CARTESIAN_POINT('',(-1.00000000000000000E0,1.00000000000000000E0));
#404=CARTESIAN_POINT('',(-1.00000000000000000E0,0.00000000000000000E0));
#405=B_SPLINE_CURVE_WITH_KNOTS('',2,(#402,#403,#404),.UNSPECIFIED.,.F.,.F.,(3,3),(0.00000000000000000E0,1.00000000000000000E0),.UNSPECIFIED.);
#406=DEFINITIONAL_REPRESENTATION('',(#405),#187);
#407=PCURVE('',#98,#406);
#408=CARTESIAN_POINT('',(-1.00000000000000000E0,0.00000000000000000E0));
#409=CARTESIAN_POINT('',(-1.00000000000000000E0,-1.00000000000000000E0));
#410=CARTESIAN_POINT('',(0.00000000000000000E0,-1.00000000000000000E0));
#411=B_SPLINE_CURVE_WITH_KNOTS('',2,(#408,#409,#410),.UNSPECIFIED.,.F.,.F.,(3,3),(0.00000000000000000E0,1.00000000000000000E0),.UNSPECIFIED.);
#412=DEFINITIONAL_REPRESENTATION('',(#411),#187);
#413=PCURVE('',#98,#412);
#414=CARTESIAN_POINT('',(0.00000000000000000E0,-1.00000000000000000E0));
#415=CARTESIAN_POINT('',(1.00000000000000000E0,-1.00000000000000000E0));
#416=CARTESIAN_POINT('',(1.00000000000000000E0,0.00000000000000000E0));
#417=B_SPLINE_CURVE_WITH_KNOTS('',2,(#414,#415,#416),.UNSPECIFIED.,.F.,.F.,(3,3),(0.00000000000000000E0,1.00000000000000000E0),.UNSPECIFIED.);
#418=DEFINITIONAL_REPRESENTATION('',(#417),#187);
#419=PCURVE('',#98,#418);
#420=CARTESIAN_POINT('',(2.50000000000000000E-1,0.00000000000000000E0));
#421=CARTESIAN_POINT('',(2.50000000000000000E-1,-2.50000000000000000E-1));
#422=CARTESIAN_POINT('',(0.00000000000000000E0,-2.50000000000000000E-1));
#423=B_SPLINE_CURVE_WITH_KNOTS('',2,(#420,#421,#422),.UNSPECIFIED.,.F.,.F.,(3,3),(0.00000000000000000E0,1.00000000000000000E0),.UNSPECIFIED.);
#424=DEFINITIONAL_REPRESENTATION('',(#423),#187);
#425=PCURVE('',#98,#424);
#426=CARTESIAN_POINT('',(0.00000000000000000E0,-2.50000000000000000E-1));
#427=CARTESIAN_POINT('',(-2.50000000000000000E-1,-2.50000000000000000E-1));
#428=CARTESIAN_POINT('',(-2.50000000000000000E-1,0.00000000000000000E0));
#429=B_SPLINE_CURVE_WITH_KNOTS('',2,(#426,#427,#428),.UNSPECIFIED.,.F.,.F.,(3,3),(0.00000000000000000E0,1.00000000000000000E0),.UNSPECIFIED.);
#430=DEFINITIONAL_REPRESENTATION('',(#429),#187);
#431=PCURVE('',#98,#430);
#432=CARTESIAN_POINT('',(-2.50000000000000000E-1,0.00000000000000000E0));
#433=CARTESIAN_POINT('',(-2.50000000000000000E-1,2.50000000000000000E-1));
#434=CARTESIAN_POINT('',(0.00000000000000000E0,2.50000000000000000E-1));
#435=B_SPLINE_CURVE_WITH_KNOTS('',2,(#432,#433,#434),.UNSPECIFIED.,.F.,.F.,(3,3),(0.00000000000000000E0,1.00000000000000000E0),.UNSPECIFIED.);
#436=DEFINITIONAL_REPRESENTATION('',(#435),#187);
#437=PCURVE('',#98,#436);
#438=CARTESIAN_POINT('',(0.00000000000000000E0,2.50000000000000000E-1));
#439=CARTESIAN_POINT('',(2.50000000000000000E-1,2.50000000000000000E-1));
#440=CARTESIAN_POINT('',(2.50000000000000000E-1,0.00000000000000000E0));
#441=B_SPLINE_CURVE_WITH_KNOTS('',2,(#438,#439,#440),.UNSPECIFIED.,.F.,.F.,(3,3),(0.00000000000000000E0,1.00000000000000000E0),.UNSPECIFIED.);
#442=DEFINITIONAL_REPRESENTATION('',(#441),#187);
#443=PCURVE('',#98,#442);
#444=SURFACE_CURVE('',#102,(#192,#371),.PCURVE_S1.);
#445=EDGE_CURVE('OSCAD_TOPO/3|edge|e:57f2e12b8a80d6c42e77c7bd660af34f|7151525c45205052f44d649aee732eb4361e46c178a8a03059425d01e1caffdb',#2,#4,#444,.T.);
#446=SURFACE_CURVE('',#105,(#197,#227),.PCURVE_S1.);
#447=EDGE_CURVE('OSCAD_TOPO/3|edge|e:785fff83d5867021b3704fe2be61d770|115640479f368da96088f8f602bf58f1dd81ad704c5506a9e61f95e5f81163ba',#4,#20,#446,.T.);
#448=SURFACE_CURVE('',#109,(#202,#401),.PCURVE_S1.);
#449=EDGE_CURVE('OSCAD_TOPO/3|edge|e:1fc49507a361b7f9d36815a554ded1d0|e6dca30fae551729309b6dde455283c0895bd62472ae0857218fc57ecce73550',#18,#20,#448,.T.);
#450=SURFACE_CURVE('',#112,(#207,#257),.PCURVE_S1.);
#451=EDGE_CURVE('OSCAD_TOPO/3|edge|e:2015d76b68250fa4bb77b2b625dc6c85|cc36029ca2fde811601fa2f2f8ee69d6e1c71693966534efe4920a412cb64011',#2,#18,#450,.T.);
#452=SURFACE_CURVE('',#116,(#212,#365),.PCURVE_S1.);
#453=EDGE_CURVE('OSCAD_TOPO/3|edge|e:2fd98f88a04725ed6addf8c2a63d1930|f98543e62ec7323d39f003d603918de3d87d2fe4265135d0310c282aad9a1ca9',#4,#6,#452,.T.);
#454=SURFACE_CURVE('',#119,(#217,#247),.PCURVE_S1.);
#455=EDGE_CURVE('OSCAD_TOPO/3|edge|e:be0a3eccf6112d9e2bca6885af28c11f|1e4debdf3a7f6b86bb9088b18c773512e60dd1e04f13dd5fd3d48e1dcc7c1403',#6,#22,#454,.T.);
#456=SURFACE_CURVE('',#123,(#222,#407),.PCURVE_S1.);
#457=EDGE_CURVE('OSCAD_TOPO/3|edge|e:2d467f9b68647af65d8be661e7ffdf56|8c3c42b82023ea1372f3301d650bf01444bf3c6154f7393054547b205128883b',#20,#22,#456,.T.);
#458=SURFACE_CURVE('',#127,(#232,#359),.PCURVE_S1.);
#459=EDGE_CURVE('OSCAD_TOPO/3|edge|e:6610683d179496c467bdca00b4ed1f71|9ababc824e306428ba31248a3ae789d4d679df10fc3da6958dda582cd7f783d0',#6,#8,#458,.T.);
#460=SURFACE_CURVE('',#130,(#237,#267),.PCURVE_S1.);
#461=EDGE_CURVE('OSCAD_TOPO/3|edge|e:87e23d374b5a065fe6da6ef2a078d52d|bdd24c132ecf8a60a95e49d1faef638dc9d5c70762c6f339b2d56b25eb3dcf13',#8,#24,#460,.T.);
#462=SURFACE_CURVE('',#134,(#242,#413),.PCURVE_S1.);
#463=EDGE_CURVE('OSCAD_TOPO/3|edge|e:628136dbb596e497a94bad5052d81f15|9899fd711daa09bc13c55cf699b2cc4bc384cf81db2e9d29a9911a796d5021cd',#22,#24,#462,.T.);
#464=SURFACE_CURVE('',#138,(#252,#353),.PCURVE_S1.);
#465=EDGE_CURVE('OSCAD_TOPO/3|edge|e:a9254c95d65348a7fd65506bf0eb79f5|677a934b58d701d2c2a7aebbd33f1da43adef1c320fdfa4d01ec56eafd147bdf',#2,#8,#464,.T.);
#466=SURFACE_CURVE('',#142,(#262,#419),.PCURVE_S1.);
#467=EDGE_CURVE('OSCAD_TOPO/3|edge|e:d0e57e6aecff9f17a60dff5b4449030c|581da95e57bcad99ca6c4b7f6b2370efa7188ee57ffa38a08c41b60c9dc73359',#18,#24,#466,.T.);
#468=SURFACE_CURVE('',#146,(#272,#395),.PCURVE_S1.);
#469=EDGE_CURVE('OSCAD_TOPO/3|edge|e:69fd7f4c372130056e449828b2ba5030|cc6d6bdb56fe81f8088060b97d3d7ef722ee37e6822aa01fb193fb05198292be',#10,#12,#468,.T.);
#470=SURFACE_CURVE('',#149,(#277,#307),.PCURVE_S1.);
#471=EDGE_CURVE('OSCAD_TOPO/3|edge|e:f16be90dddb74d5136bf12a59d64f221|6407f95e8f5f8793a1172f183668fe11cb7a803864888940306542a88d3c8fcb',#12,#28,#470,.T.);
#472=SURFACE_CURVE('',#153,(#282,#425),.PCURVE_S1.);
#473=EDGE_CURVE('OSCAD_TOPO/3|edge|e:bf05155f106d851331dac538acc699aa|da2ac3dc0a78ea3c34e6b509388211f0d3b0774f9a5517091655f7c0f27d4178',#26,#28,#472,.T.);
#474=SURFACE_CURVE('',#156,(#287,#337),.PCURVE_S1.);
#475=EDGE_CURVE('OSCAD_TOPO/3|edge|e:90e000f51c65defb464092f7c6c5df6d|74a52a419a7edc432be9b503bf7156c39794990184ecc55bf5251c7571e9148f',#10,#26,#474,.T.);
#476=SURFACE_CURVE('',#160,(#292,#389),.PCURVE_S1.);
#477=EDGE_CURVE('OSCAD_TOPO/3|edge|e:6da79f9ae0546208528010adf5102477|888bff688152fee0dbb6ebe7e1367b97490c93f8acfe4e07272a29f9641eb139',#12,#14,#476,.T.);
#478=SURFACE_CURVE('',#163,(#297,#327),.PCURVE_S1.);
#479=EDGE_CURVE('OSCAD_TOPO/3|edge|e:420d9a50ca564496e69e1ba6d90e0d75|e8f84a5d5cab730533073dbddc7820c0ba260d4bb1e09dea370b42e550eb2c26',#14,#30,#478,.T.);
#480=SURFACE_CURVE('',#167,(#302,#431),.PCURVE_S1.);
#481=EDGE_CURVE('OSCAD_TOPO/3|edge|e:b9c2f236be7ec95f29393503d128199e|22e6b2a5ed58923daf4c695e551d39587e91039c917b0ffd92c02f41aa733dc1',#28,#30,#480,.T.);
#482=SURFACE_CURVE('',#171,(#312,#383),.PCURVE_S1.);
#483=EDGE_CURVE('OSCAD_TOPO/3|edge|e:0114ae315942a482dfa5ac3c56afd48d|9a0ea2343ed86257270ae07c430696f0cf2ce89901aec4fd0fb3f64462b0b561',#14,#16,#482,.T.);
#484=SURFACE_CURVE('',#174,(#317,#347),.PCURVE_S1.);
#485=EDGE_CURVE('OSCAD_TOPO/3|edge|e:40eb160e1a86397147eb7b03a18a9d8a|720575baaea5fba938ef6fa3c256734c35152590636898752cff29fa063c6a4a',#16,#32,#484,.T.);
#486=SURFACE_CURVE('',#178,(#322,#437),.PCURVE_S1.);
#487=EDGE_CURVE('OSCAD_TOPO/3|edge|e:f99e365d8b6ad10cf32c21701fbbea9c|1d7eed20cac110b56a013ade4073f661028c4b2f1ec763198e6c26361f6a68fe',#30,#32,#486,.T.);
#488=SURFACE_CURVE('',#182,(#332,#377),.PCURVE_S1.);
#489=EDGE_CURVE('OSCAD_TOPO/3|edge|e:6b78c3d06edf07cde1042b2b9ecdc0f9|39e9562300febdaae4db74d10101beaebda87dc5d4cadcd6d76521182d3c39c3',#10,#16,#488,.T.);
#490=SURFACE_CURVE('',#186,(#342,#443),.PCURVE_S1.);
#491=EDGE_CURVE('OSCAD_TOPO/3|edge|e:8b8854fc0bc485eb7a89f3ceb2b07f1f|552277068557fe5178d679542f05773fc8e71b4f3d1dfeb8a5a7facf96924cbd',#26,#32,#490,.T.);
#492=ORIENTED_EDGE('',*,*,#445,.T.);
#493=ORIENTED_EDGE('',*,*,#447,.T.);
#494=ORIENTED_EDGE('',*,*,#449,.F.);
#495=ORIENTED_EDGE('',*,*,#451,.F.);
#496=EDGE_LOOP('OSCAD_TOPO/3|loop|l:f0f7bdec8cf29a0c08b8b2b6dad40b24|73d5d823ef58520edc4c67bf7bbb534411494ea6d5eb4a9a01533f2ce8f0bf00',(#492,#493,#494,#495));
#497=ORIENTED_EDGE('',*,*,#453,.T.);
#498=ORIENTED_EDGE('',*,*,#455,.T.);
#499=ORIENTED_EDGE('',*,*,#457,.F.);
#500=ORIENTED_EDGE('',*,*,#447,.F.);
#501=EDGE_LOOP('OSCAD_TOPO/3|loop|l:f8724c38751677257a47981423112085|16d8c3b09ca88975eab74462bac2911c1f4618e9a2d6fb6295ba5ce2a67aca0b',(#497,#498,#499,#500));
#502=ORIENTED_EDGE('',*,*,#459,.T.);
#503=ORIENTED_EDGE('',*,*,#461,.T.);
#504=ORIENTED_EDGE('',*,*,#463,.F.);
#505=ORIENTED_EDGE('',*,*,#455,.F.);
#506=EDGE_LOOP('OSCAD_TOPO/3|loop|l:b4d0bfb7ae4cdb153363636147e16d21|f85894fe0efffd08e3fc8ca81eb756140ddcc7d8ba75156414c3a9683ed8edf9',(#502,#503,#504,#505));
#507=ORIENTED_EDGE('',*,*,#465,.F.);
#508=ORIENTED_EDGE('',*,*,#451,.T.);
#509=ORIENTED_EDGE('',*,*,#467,.T.);
#510=ORIENTED_EDGE('',*,*,#461,.F.);
#511=EDGE_LOOP('OSCAD_TOPO/3|loop|l:3d20ebedde5c82614739b2894c2e99c5|4cd0692518aa0fafc7b02067f5ba4248f4b5071d24886fc19f55fa1d4f49d1c1',(#507,#508,#509,#510));
#512=ORIENTED_EDGE('',*,*,#469,.T.);
#513=ORIENTED_EDGE('',*,*,#471,.T.);
#514=ORIENTED_EDGE('',*,*,#473,.F.);
#515=ORIENTED_EDGE('',*,*,#475,.F.);
#516=EDGE_LOOP('OSCAD_TOPO/3|loop|l:0301c7003394e6f4784496c860deef27|f1fb80bdc5c800ca8f15e9f49f21edcab4fca6d7cb92330544f0fbedeec3c5fa',(#512,#513,#514,#515));
#517=ORIENTED_EDGE('',*,*,#477,.T.);
#518=ORIENTED_EDGE('',*,*,#479,.T.);
#519=ORIENTED_EDGE('',*,*,#481,.F.);
#520=ORIENTED_EDGE('',*,*,#471,.F.);
#521=EDGE_LOOP('OSCAD_TOPO/3|loop|l:fa83b2cab0dd78281e15e4ca601ee107|96018e529e4fff55b6830b3e47f2d01285104973ee21c768b7ccb81e78bad47e',(#517,#518,#519,#520));
#522=ORIENTED_EDGE('',*,*,#483,.T.);
#523=ORIENTED_EDGE('',*,*,#485,.T.);
#524=ORIENTED_EDGE('',*,*,#487,.F.);
#525=ORIENTED_EDGE('',*,*,#479,.F.);
#526=EDGE_LOOP('OSCAD_TOPO/3|loop|l:bfbde6fd82046ffb6d2b3dc03d154f5c|46ff7630fe8d98fc8d1dc395048075f6e7518559202d201522aa7e12a2c3f241',(#522,#523,#524,#525));
#527=ORIENTED_EDGE('',*,*,#489,.F.);
#528=ORIENTED_EDGE('',*,*,#475,.T.);
#529=ORIENTED_EDGE('',*,*,#491,.T.);
#530=ORIENTED_EDGE('',*,*,#485,.F.);
#531=EDGE_LOOP('OSCAD_TOPO/3|loop|l:f6532a8a7ae4d8d26e9db79ecfe1035d|c5efd53eaee79cb1ff7b755fd4e084ebac1502c53d9f3eaa0a65b98dccbece0c',(#527,#528,#529,#530));
#532=ORIENTED_EDGE('',*,*,#465,.T.);
#533=ORIENTED_EDGE('',*,*,#459,.F.);
#534=ORIENTED_EDGE('',*,*,#453,.F.);
#535=ORIENTED_EDGE('',*,*,#445,.F.);
#536=EDGE_LOOP('OSCAD_TOPO/3|loop|l:65188a25ee4654f0469fb23c7a722e54|b86b227a349a8a159bcb6a8071431472082f88f515c1a15a38ae44735358636e',(#532,#533,#534,#535));
#537=ORIENTED_EDGE('',*,*,#489,.T.);
#538=ORIENTED_EDGE('',*,*,#483,.F.);
#539=ORIENTED_EDGE('',*,*,#477,.F.);
#540=ORIENTED_EDGE('',*,*,#469,.F.);
#541=EDGE_LOOP('OSCAD_TOPO/3|loop|l:fc990e4a3a2feff63712b84040d4aff6|82506cc69829cbf3b6ad6881931d40bebb31de175accdce95d5d2a5bc8fe6043',(#537,#538,#539,#540));
#542=ORIENTED_EDGE('',*,*,#449,.T.);
#543=ORIENTED_EDGE('',*,*,#457,.T.);
#544=ORIENTED_EDGE('',*,*,#463,.T.);
#545=ORIENTED_EDGE('',*,*,#467,.F.);
#546=EDGE_LOOP('OSCAD_TOPO/3|loop|l:99c9f644426591b8961ba995c891e45a|eb66a1644970ee2ad36d883e48761ec1f2a82e9025bdf1c8674dcdd334d8e778',(#542,#543,#544,#545));
#547=ORIENTED_EDGE('',*,*,#473,.T.);
#548=ORIENTED_EDGE('',*,*,#481,.T.);
#549=ORIENTED_EDGE('',*,*,#487,.T.);
#550=ORIENTED_EDGE('',*,*,#491,.F.);
#551=EDGE_LOOP('OSCAD_TOPO/3|loop|l:ffd2fff3a87e41671070c4f7ec5ff8c2|1d0820e0cab393e34c9f60684faf2f19cce37c2bd76fa051c93c257451bbe410',(#547,#548,#549,#550));
#552=FACE_OUTER_BOUND('',#496,.T.);
#553=ADVANCED_FACE('OSCAD_TOPO/3|face|f:f18e239222c07a955d39f7e014ba3e41|88efd3d05248b5063b18fd2a26008bea66b93ba8cff0d3469c4ce9f13916e7a4',(#552),#39,.T.);
#554=FACE_OUTER_BOUND('',#501,.T.);
#555=ADVANCED_FACE('OSCAD_TOPO/3|face|f:e6fb2092d383c873844c62de479b6b94|ab5e6249073cda23c110c5f0490239323dcaff7eb8a3d3bdc0a027e1c83dad6e',(#554),#46,.T.);
#556=FACE_OUTER_BOUND('',#506,.T.);
#557=ADVANCED_FACE('OSCAD_TOPO/3|face|f:dacf1e236b0ad604a6e5a61ccd4a20e1|b1c1d9c40ceb1293cefcd25f73034af7542eec615faf75732debd0e53fb4927b',(#556),#53,.T.);
#558=FACE_OUTER_BOUND('',#511,.T.);
#559=ADVANCED_FACE('OSCAD_TOPO/3|face|f:84d43b228c0382228cec1cdb1edac293|bb2d41fd780bd4a4c03335707fe3e6bf115412cd2be5877ae23a50ac7a9b5302',(#558),#60,.T.);
#560=FACE_OUTER_BOUND('',#516,.T.);
#561=ADVANCED_FACE('OSCAD_TOPO/3|face|f:e3d2fe0c0f5b57dc54d1f21b46b10f08|a4741c0d0008f26cca06e07644dcbe6e3f5d02a57073e0c86abad2c016580e75',(#560),#67,.T.);
#562=FACE_OUTER_BOUND('',#521,.T.);
#563=ADVANCED_FACE('OSCAD_TOPO/3|face|f:4b0a77e44eea1e33cc67bbfa571a9230|bdc0c02f0286db48f308ede5bc8126ca21c1ac6b40566785240e488f366f063b',(#562),#74,.T.);
#564=FACE_OUTER_BOUND('',#526,.T.);
#565=ADVANCED_FACE('OSCAD_TOPO/3|face|f:669d45de2716de9fcf4189cea9ef24a3|6601a2226b48bf21c440cc9649335674d396dd38cdd0eb2908af83e61f4531a1',(#564),#81,.T.);
#566=FACE_OUTER_BOUND('',#531,.T.);
#567=ADVANCED_FACE('OSCAD_TOPO/3|face|f:728192c39e36e7453a675825b12685ae|f2d47bbc423a69fa3afd3e334cf567134859c6b97a0f79539a64f943dc3e69e7',(#566),#88,.T.);
#568=FACE_OUTER_BOUND('',#536,.T.);
#569=FACE_BOUND('',#541,.T.);
#570=ADVANCED_FACE('OSCAD_TOPO/3|face|f:ef0589008b4057ccff95f437b9769fba|4a3ae2817b85c9622e32e39d30081572c665a431d67c2044076afe5ddeff43b8',(#568,#569),#93,.T.);
#571=FACE_OUTER_BOUND('',#546,.T.);
#572=FACE_BOUND('',#551,.T.);
#573=ADVANCED_FACE('OSCAD_TOPO/3|face|f:23b838c0167400ca590320afa1fd99cb|63f60ad8abbe17196befbec7b9a5da6ae48ad5da8e6f134aa472ad3f51f86a6b',(#571,#572),#98,.T.);
#574=CLOSED_SHELL('OSCAD_TOPO/3|shell|s:60a0aab985c53c5df38113c74e67e54b|c7e7b8596a2305ce531ba0196261c6b8ae22dc3167bc3c51e1a54b59644a727e',(#553,#555,#557,#559,#561,#563,#565,#567,#570,#573));
#575=MANIFOLD_SOLID_BREP('OSCAD_TOPO/3|body|b:6861e620c84b43c5f9543b1dda03d6e6|64d8f42bf6b80f0b5f14056ef2ab4447367080f9599bb2f51d28284253040a19',#574);
#576=(LENGTH_UNIT()NAMED_UNIT(*)SI_UNIT(.MILLI.,.METRE.));
#577=UNCERTAINTY_MEASURE_WITH_UNIT(LENGTH_MEASURE(9.99999999999999955E-8),#576,'distance_accuracy_value','');
#578=(GEOMETRIC_REPRESENTATION_CONTEXT(3)GLOBAL_UNCERTAINTY_ASSIGNED_CONTEXT((#577))GLOBAL_UNIT_ASSIGNED_CONTEXT((#576))REPRESENTATION_CONTEXT('','3D'));
#579=ADVANCED_BREP_SHAPE_REPRESENTATION('',(#575),#578);
#580=APPLICATION_CONTEXT('managed model based 3d engineering');
#581=PRODUCT_CONTEXT('',#580,'mechanical');
#582=PRODUCT('model','model','',(#581));
#583=PRODUCT_DEFINITION_FORMATION('1','',#582);
#584=PRODUCT_DEFINITION_CONTEXT('part definition',#580,'design');
#585=PRODUCT_DEFINITION('design','',#583,#584);
#586=PRODUCT_DEFINITION_SHAPE('','',#585);
#587=SHAPE_DEFINITION_REPRESENTATION(#586,#579);
ENDSEC;
END-ISO-10303-21;
