ISO-10303-21;
HEADER;
FILE_DESCRIPTION(('OpenSCAD Viewer retained AP242 B-rep'),'2;1');
FILE_NAME('model.step','',(''),(''),'OpenSCAD Viewer','OpenSCAD Viewer','');
FILE_SCHEMA(('AP242_MANAGED_MODEL_BASED_3D_ENGINEERING_MIM_LF'));
ENDSEC;
DATA;
#1=CARTESIAN_POINT('',(1.50000000000000000E0,0.00000000000000000E0,0.00000000000000000E0));
#2=VERTEX_POINT('OSCAD_TOPO/3|vertex|v:2a2312ca2b6e0d76f599f9557cdb5918|bddb6ea2a9e506ce5647adac6e9e3522727dfa5dfafdf83ed350bc06ffd5ec63',#1);
#3=CARTESIAN_POINT('',(1.50000000000000000E0,0.00000000000000000E0,2.00000000000000000E0));
#4=VERTEX_POINT('OSCAD_TOPO/3|vertex|v:a34b1fc1aacdd60bfabb4364deecd5a1|cf631ea05c31d0f5627daba96f72eda504c54c7219389b0a05787282a727e936',#3);
#5=CARTESIAN_POINT('',(0.00000000000000000E0,1.50000000000000000E0,0.00000000000000000E0));
#6=VERTEX_POINT('OSCAD_TOPO/3|vertex|v:b965d423136150872446ea391a66e132|6de3538c5ac4ae333bfe9d3363d19f32e2e80b3bdcfac39ac574232d08480634',#5);
#7=CARTESIAN_POINT('',(0.00000000000000000E0,1.50000000000000000E0,2.00000000000000000E0));
#8=VERTEX_POINT('OSCAD_TOPO/3|vertex|v:9ebb363eaba2fe9c39e0b18fb548d174|a686912ed092affdd6c347869bca56e3aaa31cd9e027d51e72bd7f9c36e0376a',#7);
#9=CARTESIAN_POINT('',(-1.50000000000000000E0,0.00000000000000000E0,0.00000000000000000E0));
#10=VERTEX_POINT('OSCAD_TOPO/3|vertex|v:b0ef3dbd3547903664bb6357297fd67c|0fca8b5319c338c73c79b8d79bc387f18d628c5daa1803529b1a2f91c0aeaa4e',#9);
#11=CARTESIAN_POINT('',(-1.50000000000000000E0,0.00000000000000000E0,2.00000000000000000E0));
#12=VERTEX_POINT('OSCAD_TOPO/3|vertex|v:4d12ffdf4633228d06d15b93e638a123|2609d6515e6d089f5cb0866447704dbff872af0eb5d191b0b7947eb78cba20cb',#11);
#13=CARTESIAN_POINT('',(0.00000000000000000E0,-1.50000000000000000E0,0.00000000000000000E0));
#14=VERTEX_POINT('OSCAD_TOPO/3|vertex|v:4b9b88ee41015ecbc006941d99cd0b43|c1c672517d2c553945886601c8b4f68c3a9506f76d4fba76d7c1d389cea699f9',#13);
#15=CARTESIAN_POINT('',(0.00000000000000000E0,-1.50000000000000000E0,2.00000000000000000E0));
#16=VERTEX_POINT('OSCAD_TOPO/3|vertex|v:757d74128a2f52c6d1a2ec37f5da4a49|b3b5e2189f42a1e1c610efd3298fc44be676418fa62d47a31378b525e390274f',#15);
#17=CARTESIAN_POINT('',(1.50000000000000000E0,0.00000000000000000E0,0.00000000000000000E0));
#18=CARTESIAN_POINT('',(1.50000000000000000E0,0.00000000000000000E0,2.00000000000000000E0));
#19=CARTESIAN_POINT('',(1.50000000000000000E0,1.50000000000000000E0,0.00000000000000000E0));
#20=CARTESIAN_POINT('',(1.50000000000000000E0,1.50000000000000000E0,2.00000000000000000E0));
#21=CARTESIAN_POINT('',(0.00000000000000000E0,1.50000000000000000E0,0.00000000000000000E0));
#22=CARTESIAN_POINT('',(0.00000000000000000E0,1.50000000000000000E0,2.00000000000000000E0));
#23=CARTESIAN_POINT('',(-1.50000000000000000E0,1.50000000000000000E0,0.00000000000000000E0));
#24=CARTESIAN_POINT('',(-1.50000000000000000E0,1.50000000000000000E0,2.00000000000000000E0));
#25=CARTESIAN_POINT('',(-1.50000000000000000E0,0.00000000000000000E0,0.00000000000000000E0));
#26=CARTESIAN_POINT('',(-1.50000000000000000E0,0.00000000000000000E0,2.00000000000000000E0));
#27=CARTESIAN_POINT('',(-1.50000000000000000E0,-1.50000000000000000E0,0.00000000000000000E0));
#28=CARTESIAN_POINT('',(-1.50000000000000000E0,-1.50000000000000000E0,2.00000000000000000E0));
#29=CARTESIAN_POINT('',(0.00000000000000000E0,-1.50000000000000000E0,0.00000000000000000E0));
#30=CARTESIAN_POINT('',(0.00000000000000000E0,-1.50000000000000000E0,2.00000000000000000E0));
#31=CARTESIAN_POINT('',(1.50000000000000000E0,-1.50000000000000000E0,0.00000000000000000E0));
#32=CARTESIAN_POINT('',(1.50000000000000000E0,-1.50000000000000000E0,2.00000000000000000E0));
#33=CARTESIAN_POINT('',(1.50000000000000000E0,0.00000000000000000E0,0.00000000000000000E0));
#34=CARTESIAN_POINT('',(1.50000000000000000E0,0.00000000000000000E0,2.00000000000000000E0));
#35=(BOUNDED_SURFACE()B_SPLINE_SURFACE(2,1,((#17,#18),(#19,#20),(#21,#22),(#23,#24),(#25,#26),(#27,#28),(#29,#30),(#31,#32),(#33,#34)),.UNSPECIFIED.,.F.,.F.,.F.)B_SPLINE_SURFACE_WITH_KNOTS((3,2,2,2,3),(2,2),(0.00000000000000000E0,1.00000000000000000E0,2.00000000000000000E0,3.00000000000000000E0,4.00000000000000000E0),(0.00000000000000000E0,1.00000000000000000E0),.UNSPECIFIED.)GEOMETRIC_REPRESENTATION_ITEM()RATIONAL_B_SPLINE_SURFACE(((1.00000000000000000E0,1.00000000000000000E0),(7.07106781186547573E-1,7.07106781186547573E-1),(1.00000000000000000E0,1.00000000000000000E0),(7.07106781186547573E-1,7.07106781186547573E-1),(1.00000000000000000E0,1.00000000000000000E0),(7.07106781186547573E-1,7.07106781186547573E-1),(1.00000000000000000E0,1.00000000000000000E0),(7.07106781186547573E-1,7.07106781186547573E-1),(1.00000000000000000E0,1.00000000000000000E0)))REPRESENTATION_ITEM('')SURFACE());
#36=CARTESIAN_POINT('',(1.50000000000000000E0,-1.50000000000000000E0,0.00000000000000000E0));
#37=CARTESIAN_POINT('',(1.50000000000000000E0,1.50000000000000000E0,0.00000000000000000E0));
#38=CARTESIAN_POINT('',(-1.50000000000000000E0,-1.50000000000000000E0,0.00000000000000000E0));
#39=CARTESIAN_POINT('',(-1.50000000000000000E0,1.50000000000000000E0,0.00000000000000000E0));
#40=B_SPLINE_SURFACE_WITH_KNOTS('',1,1,((#36,#37),(#38,#39)),.UNSPECIFIED.,.F.,.F.,.F.,(2,2),(2,2),(0.00000000000000000E0,1.00000000000000000E0),(0.00000000000000000E0,1.00000000000000000E0),.UNSPECIFIED.);
#41=CARTESIAN_POINT('',(-1.50000000000000000E0,-1.50000000000000000E0,2.00000000000000000E0));
#42=CARTESIAN_POINT('',(-1.50000000000000000E0,1.50000000000000000E0,2.00000000000000000E0));
#43=CARTESIAN_POINT('',(1.50000000000000000E0,-1.50000000000000000E0,2.00000000000000000E0));
#44=CARTESIAN_POINT('',(1.50000000000000000E0,1.50000000000000000E0,2.00000000000000000E0));
#45=B_SPLINE_SURFACE_WITH_KNOTS('',1,1,((#41,#42),(#43,#44)),.UNSPECIFIED.,.F.,.F.,.F.,(2,2),(2,2),(0.00000000000000000E0,1.00000000000000000E0),(0.00000000000000000E0,1.00000000000000000E0),.UNSPECIFIED.);
#46=CARTESIAN_POINT('',(1.50000000000000000E0,0.00000000000000000E0,0.00000000000000000E0));
#47=CARTESIAN_POINT('',(1.50000000000000000E0,1.50000000000000000E0,0.00000000000000000E0));
#48=CARTESIAN_POINT('',(0.00000000000000000E0,1.50000000000000000E0,0.00000000000000000E0));
#49=(BOUNDED_CURVE()B_SPLINE_CURVE(2,(#46,#47,#48),.UNSPECIFIED.,.F.,.F.)B_SPLINE_CURVE_WITH_KNOTS((3,3),(0.00000000000000000E0,1.00000000000000000E0),.UNSPECIFIED.)CURVE()GEOMETRIC_REPRESENTATION_ITEM()RATIONAL_B_SPLINE_CURVE((1.00000000000000000E0,7.07106781186547573E-1,1.00000000000000000E0))REPRESENTATION_ITEM(''));
#50=CARTESIAN_POINT('',(1.50000000000000000E0,0.00000000000000000E0,2.00000000000000000E0));
#51=CARTESIAN_POINT('',(1.50000000000000000E0,1.50000000000000000E0,2.00000000000000000E0));
#52=CARTESIAN_POINT('',(0.00000000000000000E0,1.50000000000000000E0,2.00000000000000000E0));
#53=(BOUNDED_CURVE()B_SPLINE_CURVE(2,(#50,#51,#52),.UNSPECIFIED.,.F.,.F.)B_SPLINE_CURVE_WITH_KNOTS((3,3),(0.00000000000000000E0,1.00000000000000000E0),.UNSPECIFIED.)CURVE()GEOMETRIC_REPRESENTATION_ITEM()RATIONAL_B_SPLINE_CURVE((1.00000000000000000E0,7.07106781186547573E-1,1.00000000000000000E0))REPRESENTATION_ITEM(''));
#54=CARTESIAN_POINT('',(1.50000000000000000E0,0.00000000000000000E0,0.00000000000000000E0));
#55=CARTESIAN_POINT('',(1.50000000000000000E0,0.00000000000000000E0,2.00000000000000000E0));
#56=B_SPLINE_CURVE_WITH_KNOTS('',1,(#54,#55),.UNSPECIFIED.,.F.,.F.,(2,2),(0.00000000000000000E0,1.00000000000000000E0),.UNSPECIFIED.);
#57=CARTESIAN_POINT('',(0.00000000000000000E0,1.50000000000000000E0,0.00000000000000000E0));
#58=CARTESIAN_POINT('',(-1.50000000000000000E0,1.50000000000000000E0,0.00000000000000000E0));
#59=CARTESIAN_POINT('',(-1.50000000000000000E0,0.00000000000000000E0,0.00000000000000000E0));
#60=(BOUNDED_CURVE()B_SPLINE_CURVE(2,(#57,#58,#59),.UNSPECIFIED.,.F.,.F.)B_SPLINE_CURVE_WITH_KNOTS((3,3),(0.00000000000000000E0,1.00000000000000000E0),.UNSPECIFIED.)CURVE()GEOMETRIC_REPRESENTATION_ITEM()RATIONAL_B_SPLINE_CURVE((1.00000000000000000E0,7.07106781186547573E-1,1.00000000000000000E0))REPRESENTATION_ITEM(''));
#61=CARTESIAN_POINT('',(0.00000000000000000E0,1.50000000000000000E0,2.00000000000000000E0));
#62=CARTESIAN_POINT('',(-1.50000000000000000E0,1.50000000000000000E0,2.00000000000000000E0));
#63=CARTESIAN_POINT('',(-1.50000000000000000E0,0.00000000000000000E0,2.00000000000000000E0));
#64=(BOUNDED_CURVE()B_SPLINE_CURVE(2,(#61,#62,#63),.UNSPECIFIED.,.F.,.F.)B_SPLINE_CURVE_WITH_KNOTS((3,3),(0.00000000000000000E0,1.00000000000000000E0),.UNSPECIFIED.)CURVE()GEOMETRIC_REPRESENTATION_ITEM()RATIONAL_B_SPLINE_CURVE((1.00000000000000000E0,7.07106781186547573E-1,1.00000000000000000E0))REPRESENTATION_ITEM(''));
#65=CARTESIAN_POINT('',(0.00000000000000000E0,1.50000000000000000E0,0.00000000000000000E0));
#66=CARTESIAN_POINT('',(0.00000000000000000E0,1.50000000000000000E0,2.00000000000000000E0));
#67=B_SPLINE_CURVE_WITH_KNOTS('',1,(#65,#66),.UNSPECIFIED.,.F.,.F.,(2,2),(0.00000000000000000E0,1.00000000000000000E0),.UNSPECIFIED.);
#68=CARTESIAN_POINT('',(-1.50000000000000000E0,0.00000000000000000E0,0.00000000000000000E0));
#69=CARTESIAN_POINT('',(-1.50000000000000000E0,-1.50000000000000000E0,0.00000000000000000E0));
#70=CARTESIAN_POINT('',(0.00000000000000000E0,-1.50000000000000000E0,0.00000000000000000E0));
#71=(BOUNDED_CURVE()B_SPLINE_CURVE(2,(#68,#69,#70),.UNSPECIFIED.,.F.,.F.)B_SPLINE_CURVE_WITH_KNOTS((3,3),(0.00000000000000000E0,1.00000000000000000E0),.UNSPECIFIED.)CURVE()GEOMETRIC_REPRESENTATION_ITEM()RATIONAL_B_SPLINE_CURVE((1.00000000000000000E0,7.07106781186547573E-1,1.00000000000000000E0))REPRESENTATION_ITEM(''));
#72=CARTESIAN_POINT('',(-1.50000000000000000E0,0.00000000000000000E0,2.00000000000000000E0));
#73=CARTESIAN_POINT('',(-1.50000000000000000E0,-1.50000000000000000E0,2.00000000000000000E0));
#74=CARTESIAN_POINT('',(0.00000000000000000E0,-1.50000000000000000E0,2.00000000000000000E0));
#75=(BOUNDED_CURVE()B_SPLINE_CURVE(2,(#72,#73,#74),.UNSPECIFIED.,.F.,.F.)B_SPLINE_CURVE_WITH_KNOTS((3,3),(0.00000000000000000E0,1.00000000000000000E0),.UNSPECIFIED.)CURVE()GEOMETRIC_REPRESENTATION_ITEM()RATIONAL_B_SPLINE_CURVE((1.00000000000000000E0,7.07106781186547573E-1,1.00000000000000000E0))REPRESENTATION_ITEM(''));
#76=CARTESIAN_POINT('',(-1.50000000000000000E0,0.00000000000000000E0,0.00000000000000000E0));
#77=CARTESIAN_POINT('',(-1.50000000000000000E0,0.00000000000000000E0,2.00000000000000000E0));
#78=B_SPLINE_CURVE_WITH_KNOTS('',1,(#76,#77),.UNSPECIFIED.,.F.,.F.,(2,2),(0.00000000000000000E0,1.00000000000000000E0),.UNSPECIFIED.);
#79=CARTESIAN_POINT('',(0.00000000000000000E0,-1.50000000000000000E0,0.00000000000000000E0));
#80=CARTESIAN_POINT('',(1.50000000000000000E0,-1.50000000000000000E0,0.00000000000000000E0));
#81=CARTESIAN_POINT('',(1.50000000000000000E0,0.00000000000000000E0,0.00000000000000000E0));
#82=(BOUNDED_CURVE()B_SPLINE_CURVE(2,(#79,#80,#81),.UNSPECIFIED.,.F.,.F.)B_SPLINE_CURVE_WITH_KNOTS((3,3),(0.00000000000000000E0,1.00000000000000000E0),.UNSPECIFIED.)CURVE()GEOMETRIC_REPRESENTATION_ITEM()RATIONAL_B_SPLINE_CURVE((1.00000000000000000E0,7.07106781186547573E-1,1.00000000000000000E0))REPRESENTATION_ITEM(''));
#83=CARTESIAN_POINT('',(0.00000000000000000E0,-1.50000000000000000E0,2.00000000000000000E0));
#84=CARTESIAN_POINT('',(1.50000000000000000E0,-1.50000000000000000E0,2.00000000000000000E0));
#85=CARTESIAN_POINT('',(1.50000000000000000E0,0.00000000000000000E0,2.00000000000000000E0));
#86=(BOUNDED_CURVE()B_SPLINE_CURVE(2,(#83,#84,#85),.UNSPECIFIED.,.F.,.F.)B_SPLINE_CURVE_WITH_KNOTS((3,3),(0.00000000000000000E0,1.00000000000000000E0),.UNSPECIFIED.)CURVE()GEOMETRIC_REPRESENTATION_ITEM()RATIONAL_B_SPLINE_CURVE((1.00000000000000000E0,7.07106781186547573E-1,1.00000000000000000E0))REPRESENTATION_ITEM(''));
#87=CARTESIAN_POINT('',(0.00000000000000000E0,-1.50000000000000000E0,0.00000000000000000E0));
#88=CARTESIAN_POINT('',(0.00000000000000000E0,-1.50000000000000000E0,2.00000000000000000E0));
#89=B_SPLINE_CURVE_WITH_KNOTS('',1,(#87,#88),.UNSPECIFIED.,.F.,.F.,(2,2),(0.00000000000000000E0,1.00000000000000000E0),.UNSPECIFIED.);
#90=(GEOMETRIC_REPRESENTATION_CONTEXT(2)REPRESENTATION_CONTEXT('','2D'));
#91=CARTESIAN_POINT('',(0.00000000000000000E0,5.00000000000000000E-1));
#92=CARTESIAN_POINT('',(0.00000000000000000E0,0.00000000000000000E0));
#93=CARTESIAN_POINT('',(5.00000000000000000E-1,0.00000000000000000E0));
#94=(BOUNDED_CURVE()B_SPLINE_CURVE(2,(#91,#92,#93),.UNSPECIFIED.,.F.,.F.)B_SPLINE_CURVE_WITH_KNOTS((3,3),(0.00000000000000000E0,1.00000000000000000E0),.UNSPECIFIED.)CURVE()GEOMETRIC_REPRESENTATION_ITEM()RATIONAL_B_SPLINE_CURVE((1.00000000000000000E0,7.07106781186547573E-1,1.00000000000000000E0))REPRESENTATION_ITEM(''));
#95=DEFINITIONAL_REPRESENTATION('',(#94),#90);
#96=PCURVE('',#40,#95);
#97=CARTESIAN_POINT('',(5.00000000000000000E-1,0.00000000000000000E0));
#98=CARTESIAN_POINT('',(1.00000000000000000E0,0.00000000000000000E0));
#99=CARTESIAN_POINT('',(1.00000000000000000E0,5.00000000000000000E-1));
#100=(BOUNDED_CURVE()B_SPLINE_CURVE(2,(#97,#98,#99),.UNSPECIFIED.,.F.,.F.)B_SPLINE_CURVE_WITH_KNOTS((3,3),(0.00000000000000000E0,1.00000000000000000E0),.UNSPECIFIED.)CURVE()GEOMETRIC_REPRESENTATION_ITEM()RATIONAL_B_SPLINE_CURVE((1.00000000000000000E0,7.07106781186547573E-1,1.00000000000000000E0))REPRESENTATION_ITEM(''));
#101=DEFINITIONAL_REPRESENTATION('',(#100),#90);
#102=PCURVE('',#40,#101);
#103=CARTESIAN_POINT('',(1.00000000000000000E0,5.00000000000000000E-1));
#104=CARTESIAN_POINT('',(1.00000000000000000E0,1.00000000000000000E0));
#105=CARTESIAN_POINT('',(5.00000000000000000E-1,1.00000000000000000E0));
#106=(BOUNDED_CURVE()B_SPLINE_CURVE(2,(#103,#104,#105),.UNSPECIFIED.,.F.,.F.)B_SPLINE_CURVE_WITH_KNOTS((3,3),(0.00000000000000000E0,1.00000000000000000E0),.UNSPECIFIED.)CURVE()GEOMETRIC_REPRESENTATION_ITEM()RATIONAL_B_SPLINE_CURVE((1.00000000000000000E0,7.07106781186547573E-1,1.00000000000000000E0))REPRESENTATION_ITEM(''));
#107=DEFINITIONAL_REPRESENTATION('',(#106),#90);
#108=PCURVE('',#40,#107);
#109=CARTESIAN_POINT('',(5.00000000000000000E-1,1.00000000000000000E0));
#110=CARTESIAN_POINT('',(0.00000000000000000E0,1.00000000000000000E0));
#111=CARTESIAN_POINT('',(0.00000000000000000E0,5.00000000000000000E-1));
#112=(BOUNDED_CURVE()B_SPLINE_CURVE(2,(#109,#110,#111),.UNSPECIFIED.,.F.,.F.)B_SPLINE_CURVE_WITH_KNOTS((3,3),(0.00000000000000000E0,1.00000000000000000E0),.UNSPECIFIED.)CURVE()GEOMETRIC_REPRESENTATION_ITEM()RATIONAL_B_SPLINE_CURVE((1.00000000000000000E0,7.07106781186547573E-1,1.00000000000000000E0))REPRESENTATION_ITEM(''));
#113=DEFINITIONAL_REPRESENTATION('',(#112),#90);
#114=PCURVE('',#40,#113);
#115=CARTESIAN_POINT('',(1.00000000000000000E0,5.00000000000000000E-1));
#116=CARTESIAN_POINT('',(1.00000000000000000E0,1.00000000000000000E0));
#117=CARTESIAN_POINT('',(5.00000000000000000E-1,1.00000000000000000E0));
#118=(BOUNDED_CURVE()B_SPLINE_CURVE(2,(#115,#116,#117),.UNSPECIFIED.,.F.,.F.)B_SPLINE_CURVE_WITH_KNOTS((3,3),(0.00000000000000000E0,1.00000000000000000E0),.UNSPECIFIED.)CURVE()GEOMETRIC_REPRESENTATION_ITEM()RATIONAL_B_SPLINE_CURVE((1.00000000000000000E0,7.07106781186547573E-1,1.00000000000000000E0))REPRESENTATION_ITEM(''));
#119=DEFINITIONAL_REPRESENTATION('',(#118),#90);
#120=PCURVE('',#45,#119);
#121=CARTESIAN_POINT('',(5.00000000000000000E-1,1.00000000000000000E0));
#122=CARTESIAN_POINT('',(0.00000000000000000E0,1.00000000000000000E0));
#123=CARTESIAN_POINT('',(0.00000000000000000E0,5.00000000000000000E-1));
#124=(BOUNDED_CURVE()B_SPLINE_CURVE(2,(#121,#122,#123),.UNSPECIFIED.,.F.,.F.)B_SPLINE_CURVE_WITH_KNOTS((3,3),(0.00000000000000000E0,1.00000000000000000E0),.UNSPECIFIED.)CURVE()GEOMETRIC_REPRESENTATION_ITEM()RATIONAL_B_SPLINE_CURVE((1.00000000000000000E0,7.07106781186547573E-1,1.00000000000000000E0))REPRESENTATION_ITEM(''));
#125=DEFINITIONAL_REPRESENTATION('',(#124),#90);
#126=PCURVE('',#45,#125);
#127=CARTESIAN_POINT('',(0.00000000000000000E0,5.00000000000000000E-1));
#128=CARTESIAN_POINT('',(0.00000000000000000E0,0.00000000000000000E0));
#129=CARTESIAN_POINT('',(5.00000000000000000E-1,0.00000000000000000E0));
#130=(BOUNDED_CURVE()B_SPLINE_CURVE(2,(#127,#128,#129),.UNSPECIFIED.,.F.,.F.)B_SPLINE_CURVE_WITH_KNOTS((3,3),(0.00000000000000000E0,1.00000000000000000E0),.UNSPECIFIED.)CURVE()GEOMETRIC_REPRESENTATION_ITEM()RATIONAL_B_SPLINE_CURVE((1.00000000000000000E0,7.07106781186547573E-1,1.00000000000000000E0))REPRESENTATION_ITEM(''));
#131=DEFINITIONAL_REPRESENTATION('',(#130),#90);
#132=PCURVE('',#45,#131);
#133=CARTESIAN_POINT('',(5.00000000000000000E-1,0.00000000000000000E0));
#134=CARTESIAN_POINT('',(1.00000000000000000E0,0.00000000000000000E0));
#135=CARTESIAN_POINT('',(1.00000000000000000E0,5.00000000000000000E-1));
#136=(BOUNDED_CURVE()B_SPLINE_CURVE(2,(#133,#134,#135),.UNSPECIFIED.,.F.,.F.)B_SPLINE_CURVE_WITH_KNOTS((3,3),(0.00000000000000000E0,1.00000000000000000E0),.UNSPECIFIED.)CURVE()GEOMETRIC_REPRESENTATION_ITEM()RATIONAL_B_SPLINE_CURVE((1.00000000000000000E0,7.07106781186547573E-1,1.00000000000000000E0))REPRESENTATION_ITEM(''));
#137=DEFINITIONAL_REPRESENTATION('',(#136),#90);
#138=PCURVE('',#45,#137);
#139=CARTESIAN_POINT('',(0.00000000000000000E0,0.00000000000000000E0));
#140=CARTESIAN_POINT('',(1.00000000000000000E0,0.00000000000000000E0));
#141=B_SPLINE_CURVE_WITH_KNOTS('',1,(#139,#140),.UNSPECIFIED.,.F.,.F.,(2,2),(0.00000000000000000E0,1.00000000000000000E0),.UNSPECIFIED.);
#142=DEFINITIONAL_REPRESENTATION('',(#141),#90);
#143=PCURVE('',#35,#142);
#144=CARTESIAN_POINT('',(1.00000000000000000E0,0.00000000000000000E0));
#145=CARTESIAN_POINT('',(1.00000000000000000E0,1.00000000000000000E0));
#146=B_SPLINE_CURVE_WITH_KNOTS('',1,(#144,#145),.UNSPECIFIED.,.F.,.F.,(2,2),(0.00000000000000000E0,1.00000000000000000E0),.UNSPECIFIED.);
#147=DEFINITIONAL_REPRESENTATION('',(#146),#90);
#148=PCURVE('',#35,#147);
#149=CARTESIAN_POINT('',(1.00000000000000000E0,1.00000000000000000E0));
#150=CARTESIAN_POINT('',(0.00000000000000000E0,1.00000000000000000E0));
#151=B_SPLINE_CURVE_WITH_KNOTS('',1,(#149,#150),.UNSPECIFIED.,.F.,.F.,(2,2),(0.00000000000000000E0,1.00000000000000000E0),.UNSPECIFIED.);
#152=DEFINITIONAL_REPRESENTATION('',(#151),#90);
#153=PCURVE('',#35,#152);
#154=CARTESIAN_POINT('',(0.00000000000000000E0,1.00000000000000000E0));
#155=CARTESIAN_POINT('',(0.00000000000000000E0,0.00000000000000000E0));
#156=B_SPLINE_CURVE_WITH_KNOTS('',1,(#154,#155),.UNSPECIFIED.,.F.,.F.,(2,2),(0.00000000000000000E0,1.00000000000000000E0),.UNSPECIFIED.);
#157=DEFINITIONAL_REPRESENTATION('',(#156),#90);
#158=PCURVE('',#35,#157);
#159=CARTESIAN_POINT('',(1.00000000000000000E0,0.00000000000000000E0));
#160=CARTESIAN_POINT('',(2.00000000000000000E0,0.00000000000000000E0));
#161=B_SPLINE_CURVE_WITH_KNOTS('',1,(#159,#160),.UNSPECIFIED.,.F.,.F.,(2,2),(0.00000000000000000E0,1.00000000000000000E0),.UNSPECIFIED.);
#162=DEFINITIONAL_REPRESENTATION('',(#161),#90);
#163=PCURVE('',#35,#162);
#164=CARTESIAN_POINT('',(2.00000000000000000E0,0.00000000000000000E0));
#165=CARTESIAN_POINT('',(2.00000000000000000E0,1.00000000000000000E0));
#166=B_SPLINE_CURVE_WITH_KNOTS('',1,(#164,#165),.UNSPECIFIED.,.F.,.F.,(2,2),(0.00000000000000000E0,1.00000000000000000E0),.UNSPECIFIED.);
#167=DEFINITIONAL_REPRESENTATION('',(#166),#90);
#168=PCURVE('',#35,#167);
#169=CARTESIAN_POINT('',(2.00000000000000000E0,1.00000000000000000E0));
#170=CARTESIAN_POINT('',(1.00000000000000000E0,1.00000000000000000E0));
#171=B_SPLINE_CURVE_WITH_KNOTS('',1,(#169,#170),.UNSPECIFIED.,.F.,.F.,(2,2),(0.00000000000000000E0,1.00000000000000000E0),.UNSPECIFIED.);
#172=DEFINITIONAL_REPRESENTATION('',(#171),#90);
#173=PCURVE('',#35,#172);
#174=CARTESIAN_POINT('',(1.00000000000000000E0,1.00000000000000000E0));
#175=CARTESIAN_POINT('',(1.00000000000000000E0,0.00000000000000000E0));
#176=B_SPLINE_CURVE_WITH_KNOTS('',1,(#174,#175),.UNSPECIFIED.,.F.,.F.,(2,2),(0.00000000000000000E0,1.00000000000000000E0),.UNSPECIFIED.);
#177=DEFINITIONAL_REPRESENTATION('',(#176),#90);
#178=PCURVE('',#35,#177);
#179=CARTESIAN_POINT('',(2.00000000000000000E0,0.00000000000000000E0));
#180=CARTESIAN_POINT('',(3.00000000000000000E0,0.00000000000000000E0));
#181=B_SPLINE_CURVE_WITH_KNOTS('',1,(#179,#180),.UNSPECIFIED.,.F.,.F.,(2,2),(0.00000000000000000E0,1.00000000000000000E0),.UNSPECIFIED.);
#182=DEFINITIONAL_REPRESENTATION('',(#181),#90);
#183=PCURVE('',#35,#182);
#184=CARTESIAN_POINT('',(3.00000000000000000E0,0.00000000000000000E0));
#185=CARTESIAN_POINT('',(3.00000000000000000E0,1.00000000000000000E0));
#186=B_SPLINE_CURVE_WITH_KNOTS('',1,(#184,#185),.UNSPECIFIED.,.F.,.F.,(2,2),(0.00000000000000000E0,1.00000000000000000E0),.UNSPECIFIED.);
#187=DEFINITIONAL_REPRESENTATION('',(#186),#90);
#188=PCURVE('',#35,#187);
#189=CARTESIAN_POINT('',(3.00000000000000000E0,1.00000000000000000E0));
#190=CARTESIAN_POINT('',(2.00000000000000000E0,1.00000000000000000E0));
#191=B_SPLINE_CURVE_WITH_KNOTS('',1,(#189,#190),.UNSPECIFIED.,.F.,.F.,(2,2),(0.00000000000000000E0,1.00000000000000000E0),.UNSPECIFIED.);
#192=DEFINITIONAL_REPRESENTATION('',(#191),#90);
#193=PCURVE('',#35,#192);
#194=CARTESIAN_POINT('',(2.00000000000000000E0,1.00000000000000000E0));
#195=CARTESIAN_POINT('',(2.00000000000000000E0,0.00000000000000000E0));
#196=B_SPLINE_CURVE_WITH_KNOTS('',1,(#194,#195),.UNSPECIFIED.,.F.,.F.,(2,2),(0.00000000000000000E0,1.00000000000000000E0),.UNSPECIFIED.);
#197=DEFINITIONAL_REPRESENTATION('',(#196),#90);
#198=PCURVE('',#35,#197);
#199=CARTESIAN_POINT('',(3.00000000000000000E0,0.00000000000000000E0));
#200=CARTESIAN_POINT('',(4.00000000000000000E0,0.00000000000000000E0));
#201=B_SPLINE_CURVE_WITH_KNOTS('',1,(#199,#200),.UNSPECIFIED.,.F.,.F.,(2,2),(0.00000000000000000E0,1.00000000000000000E0),.UNSPECIFIED.);
#202=DEFINITIONAL_REPRESENTATION('',(#201),#90);
#203=PCURVE('',#35,#202);
#204=CARTESIAN_POINT('',(4.00000000000000000E0,0.00000000000000000E0));
#205=CARTESIAN_POINT('',(4.00000000000000000E0,1.00000000000000000E0));
#206=B_SPLINE_CURVE_WITH_KNOTS('',1,(#204,#205),.UNSPECIFIED.,.F.,.F.,(2,2),(0.00000000000000000E0,1.00000000000000000E0),.UNSPECIFIED.);
#207=DEFINITIONAL_REPRESENTATION('',(#206),#90);
#208=PCURVE('',#35,#207);
#209=CARTESIAN_POINT('',(4.00000000000000000E0,1.00000000000000000E0));
#210=CARTESIAN_POINT('',(3.00000000000000000E0,1.00000000000000000E0));
#211=B_SPLINE_CURVE_WITH_KNOTS('',1,(#209,#210),.UNSPECIFIED.,.F.,.F.,(2,2),(0.00000000000000000E0,1.00000000000000000E0),.UNSPECIFIED.);
#212=DEFINITIONAL_REPRESENTATION('',(#211),#90);
#213=PCURVE('',#35,#212);
#214=CARTESIAN_POINT('',(3.00000000000000000E0,1.00000000000000000E0));
#215=CARTESIAN_POINT('',(3.00000000000000000E0,0.00000000000000000E0));
#216=B_SPLINE_CURVE_WITH_KNOTS('',1,(#214,#215),.UNSPECIFIED.,.F.,.F.,(2,2),(0.00000000000000000E0,1.00000000000000000E0),.UNSPECIFIED.);
#217=DEFINITIONAL_REPRESENTATION('',(#216),#90);
#218=PCURVE('',#35,#217);
#219=SURFACE_CURVE('',#49,(#114,#143),.PCURVE_S1.);
#220=EDGE_CURVE('OSCAD_TOPO/3|edge|e:088e4098d6875c8ae62abb66c9311381|1569960bdb6620f8b064b728ee5975ccc9deaa9c80dd76edd42d07bfcc37464a',#2,#6,#219,.T.);
#221=SURFACE_CURVE('',#53,(#120,#153),.PCURVE_S1.);
#222=EDGE_CURVE('OSCAD_TOPO/3|edge|e:cf22906d0b15d1c5cd9f4c562485b509|dd645f3eb254e107b73c375db7c39499122a498d22172f20d997be9a77974fb7',#4,#8,#221,.T.);
#223=SEAM_CURVE('',#56,(#158,#208),.PCURVE_S1.);
#224=EDGE_CURVE('OSCAD_TOPO/3|edge|e:2f01e8b2e39cdfeb98a18a6d689cebbd|b8608db91423ed4f03dbd419b63e494f879c7563c4ae82094c1c6b75dce3ac5c',#2,#4,#223,.T.);
#225=SURFACE_CURVE('',#60,(#108,#163),.PCURVE_S1.);
#226=EDGE_CURVE('OSCAD_TOPO/3|edge|e:5045fccefc82afe97166251c753e0608|3fe0a1c281c2ded996027aa879b5dc248d7c8f5d23820412552f92b48093186f',#6,#10,#225,.T.);
#227=SURFACE_CURVE('',#64,(#126,#173),.PCURVE_S1.);
#228=EDGE_CURVE('OSCAD_TOPO/3|edge|e:10b67948bd4a5ff86d2381487ccd3b54|f5737cf3b3d1695141535890938ecdfc66ffd4b17725cfd75b377b8c1123bbac',#8,#12,#227,.T.);
#229=SURFACE_CURVE('',#67,(#148,#178),.PCURVE_S1.);
#230=EDGE_CURVE('OSCAD_TOPO/3|edge|e:fa202d1cda07609aa2579e3377283863|0c7b5e2e28940198f3d13fdc7b0fb2e82b4974d571392bdb47fbfb63f28b54cb',#6,#8,#229,.T.);
#231=SURFACE_CURVE('',#71,(#102,#183),.PCURVE_S1.);
#232=EDGE_CURVE('OSCAD_TOPO/3|edge|e:ace43ce804024fd32489f4e1fc99e326|800a83c82f01934c374c2b8b2e00ce9bc3ffc44b85ca1c2397f42b5fe588f287',#10,#14,#231,.T.);
#233=SURFACE_CURVE('',#75,(#132,#193),.PCURVE_S1.);
#234=EDGE_CURVE('OSCAD_TOPO/3|edge|e:00bbe0e46e1451d28febed0c78b0463b|f59219f4b3b67e6d2c02d815501d50f465d1a650f3aa93ff39cfc3c53c02946c',#12,#16,#233,.T.);
#235=SURFACE_CURVE('',#78,(#168,#198),.PCURVE_S1.);
#236=EDGE_CURVE('OSCAD_TOPO/3|edge|e:f3809c52dfe7bc88c61432575004edda|a96138d10215a3aa69ceabdc35d33bb3052c75b1b5915c9aad0a6efb067a283f',#10,#12,#235,.T.);
#237=SURFACE_CURVE('',#82,(#96,#203),.PCURVE_S1.);
#238=EDGE_CURVE('OSCAD_TOPO/3|edge|e:43905690bc50d4b336f246487571a8d9|088be1492a06bc6aab603ffc0084aa17b1f6e5cab6e00781cc780954e76cf5de',#14,#2,#237,.T.);
#239=SURFACE_CURVE('',#86,(#138,#213),.PCURVE_S1.);
#240=EDGE_CURVE('OSCAD_TOPO/3|edge|e:21eee0d17ba38a475bcee5a25667f183|7d8f1bda5ba0fdd76b518d893788ac7a3b4049dbbbcb62b26f0ffa9b995ee631',#16,#4,#239,.T.);
#241=SURFACE_CURVE('',#89,(#188,#218),.PCURVE_S1.);
#242=EDGE_CURVE('OSCAD_TOPO/3|edge|e:4c1e7de44ad2fc6f9d07b3244cbb48c6|f2cd32df48be2380c08ce2721f81a60453f2dff755e7658e8ff2315aac419481',#14,#16,#241,.T.);
#243=ORIENTED_EDGE('',*,*,#238,.F.);
#244=ORIENTED_EDGE('',*,*,#232,.F.);
#245=ORIENTED_EDGE('',*,*,#226,.F.);
#246=ORIENTED_EDGE('',*,*,#220,.F.);
#247=EDGE_LOOP('OSCAD_TOPO/3|loop|l:852035da6b5f3daf44ba55c5f10d4648|1df0dd37555e9a179b775a8816ecfe34089dfbbd0c1ff9adb688e227d9ab6831',(#243,#244,#245,#246));
#248=ORIENTED_EDGE('',*,*,#222,.T.);
#249=ORIENTED_EDGE('',*,*,#228,.T.);
#250=ORIENTED_EDGE('',*,*,#234,.T.);
#251=ORIENTED_EDGE('',*,*,#240,.T.);
#252=EDGE_LOOP('OSCAD_TOPO/3|loop|l:2157adf415b9c8453a7e39719da6829e|a1cb9fd76cfd1a1a486cf3b83cae2fde4d7cbc3ce34e42afb809b5b501713145',(#248,#249,#250,#251));
#253=ORIENTED_EDGE('',*,*,#220,.T.);
#254=ORIENTED_EDGE('',*,*,#230,.T.);
#255=ORIENTED_EDGE('',*,*,#222,.F.);
#256=ORIENTED_EDGE('',*,*,#224,.F.);
#257=EDGE_LOOP('OSCAD_TOPO/3|loop|l:d72cbaf843a61fe86fc639b96245a376|c2f1128a0c0339f4be29b9ece1149cc236ea875511e2cf12ef3bce89f1654d27',(#253,#254,#255,#256));
#258=ORIENTED_EDGE('',*,*,#226,.T.);
#259=ORIENTED_EDGE('',*,*,#236,.T.);
#260=ORIENTED_EDGE('',*,*,#228,.F.);
#261=ORIENTED_EDGE('',*,*,#230,.F.);
#262=EDGE_LOOP('OSCAD_TOPO/3|loop|l:eae1e572fe477f50e6673f3ecfde251a|04c8778efba0a6b6d1b3727897ed14fedc166da030163023e1bc3641cf62071c',(#258,#259,#260,#261));
#263=ORIENTED_EDGE('',*,*,#232,.T.);
#264=ORIENTED_EDGE('',*,*,#242,.T.);
#265=ORIENTED_EDGE('',*,*,#234,.F.);
#266=ORIENTED_EDGE('',*,*,#236,.F.);
#267=EDGE_LOOP('OSCAD_TOPO/3|loop|l:6e442f6fb23ae7c18218eb6e3062221d|84923b68fa290f420e774ec29492db47c891d4fee88eadba40cba86eb97774f7',(#263,#264,#265,#266));
#268=ORIENTED_EDGE('',*,*,#238,.T.);
#269=ORIENTED_EDGE('',*,*,#224,.T.);
#270=ORIENTED_EDGE('',*,*,#240,.F.);
#271=ORIENTED_EDGE('',*,*,#242,.F.);
#272=EDGE_LOOP('OSCAD_TOPO/3|loop|l:263178e604b29a792a8241fc0f691584|5296422b874654000f35bee5d5fd7b219429246570f37767f633d7807eeec1ae',(#268,#269,#270,#271));
#273=FACE_OUTER_BOUND('',#257,.T.);
#274=ADVANCED_FACE('OSCAD_TOPO/3|face|f:af7e45a67dc8f66fac7e55a44375a70b|b7ff104fe3269ad78aec4a677b7e8818540f0f030d706620b20d6d8f2eb5dda2',(#273),#35,.T.);
#275=FACE_OUTER_BOUND('',#262,.T.);
#276=ADVANCED_FACE('OSCAD_TOPO/3|face|f:1408226a8eb02e61a89a8b23d422cb94|413c7561f4a17bdfdad78c9a02a482a60617ef68b0096c764df1d06d5dfb592a',(#275),#35,.T.);
#277=FACE_OUTER_BOUND('',#267,.T.);
#278=ADVANCED_FACE('OSCAD_TOPO/3|face|f:225315a710494873dfb3ef37566d40b4|55ff814f07f9e322e020cc855a7f6b886e55fdc4659cec5636f69dab10e31867',(#277),#35,.T.);
#279=FACE_OUTER_BOUND('',#272,.T.);
#280=ADVANCED_FACE('OSCAD_TOPO/3|face|f:eb642d3c5220a4d511a3ccc94bf4f2ca|40bded4b53023b213b1c777308a55410b8ec96c53d8d49853fb49ddbdf3c42d6',(#279),#35,.T.);
#281=FACE_OUTER_BOUND('',#247,.T.);
#282=ADVANCED_FACE('OSCAD_TOPO/3|face|f:190ebe4d43494e1ef66dd4e5c9b49c93|3f787192dd6af0ae02274d81152e9944609c93ee70dabe4ae07495f91e5dfc0f',(#281),#40,.T.);
#283=FACE_OUTER_BOUND('',#252,.T.);
#284=ADVANCED_FACE('OSCAD_TOPO/3|face|f:4c5b71caa1ffedeec7812f1c9c9c90c3|dc4b10ecb5e894e17ae4be0d5d9f969525b5d39b87b42cccb6a32e9db002187d',(#283),#45,.T.);
#285=CLOSED_SHELL('OSCAD_TOPO/3|shell|s:79b1926fbb83e39abdd9f9b75f0884b4|ce7bbefce40048a144d6e449291bb4691a345bab96a9f071c6c1fc052db1cc52',(#274,#276,#278,#280,#282,#284));
#286=MANIFOLD_SOLID_BREP('OSCAD_TOPO/3|body|b:4d7652f6404b7485af6d76856759a868|817b0d6c0b2cffb4125d8a95b0a5db8e3764cd7181a8c7ac6e6941fd2d92ff2f',#285);
#287=(LENGTH_UNIT()NAMED_UNIT(*)SI_UNIT(.MILLI.,.METRE.));
#288=UNCERTAINTY_MEASURE_WITH_UNIT(LENGTH_MEASURE(9.99999999999999955E-8),#287,'distance_accuracy_value','');
#289=(GEOMETRIC_REPRESENTATION_CONTEXT(3)GLOBAL_UNCERTAINTY_ASSIGNED_CONTEXT((#288))GLOBAL_UNIT_ASSIGNED_CONTEXT((#287))REPRESENTATION_CONTEXT('','3D'));
#290=ADVANCED_BREP_SHAPE_REPRESENTATION('',(#286),#289);
#291=APPLICATION_CONTEXT('managed model based 3d engineering');
#292=PRODUCT_CONTEXT('',#291,'mechanical');
#293=PRODUCT('model','model','',(#292));
#294=PRODUCT_DEFINITION_FORMATION('1','',#293);
#295=PRODUCT_DEFINITION_CONTEXT('part definition',#291,'design');
#296=PRODUCT_DEFINITION('design','',#294,#295);
#297=PRODUCT_DEFINITION_SHAPE('','',#296);
#298=SHAPE_DEFINITION_REPRESENTATION(#297,#290);
ENDSEC;
END-ISO-10303-21;
