ISO-10303-21;
HEADER;
FILE_DESCRIPTION(('OpenSCAD Viewer retained AP242 B-rep'),'2;1');
FILE_NAME('model.step','',(''),(''),'OpenSCAD Viewer','OpenSCAD Viewer','');
FILE_SCHEMA(('AP242_MANAGED_MODEL_BASED_3D_ENGINEERING_MIM_LF'));
ENDSEC;
DATA;
#1=CARTESIAN_POINT('',(0.00000000000000000E0,-5.00000000000000000E-1,0.00000000000000000E0));
#2=VERTEX_POINT('OSCAD_TOPO/3|vertex|v:accf73ee661a5f72096a66e2fe7d7ae1|10a8ef953b178e5b82934ac00c049c2803a5ef1725f6409a743e8c34662fd076',#1);
#3=CARTESIAN_POINT('',(0.00000000000000000E0,-5.00000000000000000E-1,2.00000000000000000E0));
#4=VERTEX_POINT('OSCAD_TOPO/3|vertex|v:3d61985d4ea53ce11d0b4ce772aaceca|6d5ae810caa3d425956abcc220f37ef0ee7d25193f16a493abdee028a70e646e',#3);
#5=CARTESIAN_POINT('',(8.00000000000000000E0,-5.00000000000000000E-1,0.00000000000000000E0));
#6=VERTEX_POINT('OSCAD_TOPO/3|vertex|v:7511484feece86e3002c46d1bfc7a11d|dd739c2db0d481174d4dc7ebc81f98c540e9ea876f6df4660142d833e4ff324f',#5);
#7=CARTESIAN_POINT('',(8.00000000000000000E0,-5.00000000000000000E-1,2.00000000000000000E0));
#8=VERTEX_POINT('OSCAD_TOPO/3|vertex|v:a5d95d7129cfdc01533a8c5fff2bb3fc|e51819f60d074c5d93dfd69b369efbbca52f8f350db8789d3b5aac8f7fe5bae1',#7);
#9=CARTESIAN_POINT('',(8.50000000000000000E0,0.00000000000000000E0,0.00000000000000000E0));
#10=VERTEX_POINT('OSCAD_TOPO/3|vertex|v:5b527374fdf779b53a9b046cff03f72a|0f75efdd4bf9371f909c3acc353532a39f728eb78cd1af5b256dcb30ce3ac002',#9);
#11=CARTESIAN_POINT('',(8.50000000000000000E0,0.00000000000000000E0,2.00000000000000000E0));
#12=VERTEX_POINT('OSCAD_TOPO/3|vertex|v:bbdd9d02633e1b3b5ce048262a6124ea|ac98abe73d0bf549137c4aeaf5172eb26b6e7334b0405592b91ab38334f2e709',#11);
#13=CARTESIAN_POINT('',(8.50000000000000000E0,6.00000000000000000E0,0.00000000000000000E0));
#14=VERTEX_POINT('OSCAD_TOPO/3|vertex|v:743e71166b1eb69b669d32b55124f73f|c002fcf892a409961c460e200091a9b670402e6bea1aa3056228e60719ca1eb9',#13);
#15=CARTESIAN_POINT('',(8.50000000000000000E0,6.00000000000000000E0,2.00000000000000000E0));
#16=VERTEX_POINT('OSCAD_TOPO/3|vertex|v:b6fb8224f49e9bfba5c03b9c438248f0|264dc515e1df3dd7c177167c5850906d46f61f49e305f7ad4e36941325013d05',#15);
#17=CARTESIAN_POINT('',(8.00000000000000000E0,6.50000000000000000E0,0.00000000000000000E0));
#18=VERTEX_POINT('OSCAD_TOPO/3|vertex|v:67a65e0ef2c76f7abde754de15fdb70b|fa94eff21d37b1be08f5c86a518b08fb0ad9e01c092d4b78a51fd9f85b723488',#17);
#19=CARTESIAN_POINT('',(8.00000000000000000E0,6.50000000000000000E0,2.00000000000000000E0));
#20=VERTEX_POINT('OSCAD_TOPO/3|vertex|v:af13a2d084fdc34d5e7575033ec5fd97|c7812ab99261ce8500cc405f5359e973686cbf82851cd73a685c252458246e26',#19);
#21=CARTESIAN_POINT('',(0.00000000000000000E0,6.50000000000000000E0,0.00000000000000000E0));
#22=VERTEX_POINT('OSCAD_TOPO/3|vertex|v:4e91e9b739d8f4e0784f38c2871abf7f|a7cd19483979af1ac7971e65131b6ebcacb5fec1b95b18e6a9e6ee90476b098e',#21);
#23=CARTESIAN_POINT('',(0.00000000000000000E0,6.50000000000000000E0,2.00000000000000000E0));
#24=VERTEX_POINT('OSCAD_TOPO/3|vertex|v:974ab75b503489099f60c8b66e41827c|38228adb4b8952334565cf499aebe693360e328d67b87efbf09f657a7d66a4cb',#23);
#25=CARTESIAN_POINT('',(-5.00000000000000000E-1,6.00000000000000000E0,0.00000000000000000E0));
#26=VERTEX_POINT('OSCAD_TOPO/3|vertex|v:56ab95441aaddab9657d87f1be713bb1|f2bb4b876f319e1ce48b7358b39224ee4650e0029dcae84e5b73d854ad2b0720',#25);
#27=CARTESIAN_POINT('',(-5.00000000000000000E-1,6.00000000000000000E0,2.00000000000000000E0));
#28=VERTEX_POINT('OSCAD_TOPO/3|vertex|v:45bfa2d069f3becdb9ed828b6c8599e7|552543b1879a4cbdd6d036b1424b61d5612165608494e5406b4fb005a0226c5e',#27);
#29=CARTESIAN_POINT('',(-5.00000000000000000E-1,0.00000000000000000E0,0.00000000000000000E0));
#30=VERTEX_POINT('OSCAD_TOPO/3|vertex|v:f39579044843e9d81d49f18d635d7cb4|499c65313d73e68adacf4e67c9141e3eaeacf5fa102fe1f62efa18964cf095da',#29);
#31=CARTESIAN_POINT('',(-5.00000000000000000E-1,0.00000000000000000E0,2.00000000000000000E0));
#32=VERTEX_POINT('OSCAD_TOPO/3|vertex|v:0c93ed07047e0ad3f64d67aa1791af0c|fb7df68716be928dd4688756cc6d4591e7e19f24d18e88c2d54de5088a1bee11',#31);
#33=CARTESIAN_POINT('',(4.00000000000000000E0,3.50000000000000000E0,0.00000000000000000E0));
#34=VERTEX_POINT('OSCAD_TOPO/3|vertex|v:d1161d50df06e27eb172f3f5e5553ce1|79ad46b1dd83ef25723f0e78f47b6cdef349e2e4d12264c5f752b430574a0f31',#33);
#35=CARTESIAN_POINT('',(4.00000000000000000E0,3.50000000000000000E0,2.00000000000000000E0));
#36=VERTEX_POINT('OSCAD_TOPO/3|vertex|v:934f386602490011be1f27429b4289d5|90de7efcc6d5c99d34797376df0ae3566758865ee583cdfc66bce13169797979',#35);
#37=CARTESIAN_POINT('',(4.50000000000000000E0,3.00000000000000000E0,0.00000000000000000E0));
#38=VERTEX_POINT('OSCAD_TOPO/3|vertex|v:6b33455a901cf109a4e59746ed63e20d|fd5714dfb5bfe4e34d8429f505b8bad932b0233516aa8fe9bba86afcfd48e2d1',#37);
#39=CARTESIAN_POINT('',(4.50000000000000000E0,3.00000000000000000E0,2.00000000000000000E0));
#40=VERTEX_POINT('OSCAD_TOPO/3|vertex|v:a6bedff50c100cddf1f5ecaa8514f757|e5fc9266c4c25ad84650ed9156489f39c8df0e2727b7a4459e732db8dc359889',#39);
#41=CARTESIAN_POINT('',(4.00000000000000000E0,2.50000000000000000E0,0.00000000000000000E0));
#42=VERTEX_POINT('OSCAD_TOPO/3|vertex|v:dd54bfeae548b008970774cbf05cc2ed|cc39952586cdefa0bf680d9be8d6301b5985fc56fa985a7575c1dedd5f598ded',#41);
#43=CARTESIAN_POINT('',(4.00000000000000000E0,2.50000000000000000E0,2.00000000000000000E0));
#44=VERTEX_POINT('OSCAD_TOPO/3|vertex|v:f452b980728dee69346b7ef87ade8363|3768a0459dd3ec1fd3fc6b91390880f71b931765ce0f8c0452d47d8914bfb0e5',#43);
#45=CARTESIAN_POINT('',(3.50000000000000000E0,3.00000000000000000E0,0.00000000000000000E0));
#46=VERTEX_POINT('OSCAD_TOPO/3|vertex|v:98f40ac8f967e55a6cdefaa778e83434|b78430df2fc614a95f49b0b15a6e0df766b35142c106a2e2de6c332b2a92c70c',#45);
#47=CARTESIAN_POINT('',(3.50000000000000000E0,3.00000000000000000E0,2.00000000000000000E0));
#48=VERTEX_POINT('OSCAD_TOPO/3|vertex|v:c0bf08056b295a9c2c94ea507c86810f|0ce7c70f080672b039d610377390b33d7bfc7bfd603e98c556244d64f74d9022',#47);
#49=CARTESIAN_POINT('',(0.00000000000000000E0,-5.00000000000000000E-1,0.00000000000000000E0));
#50=CARTESIAN_POINT('',(0.00000000000000000E0,-5.00000000000000000E-1,2.00000000000000000E0));
#51=CARTESIAN_POINT('',(8.00000000000000000E0,-5.00000000000000000E-1,0.00000000000000000E0));
#52=CARTESIAN_POINT('',(8.00000000000000000E0,-5.00000000000000000E-1,2.00000000000000000E0));
#53=B_SPLINE_SURFACE_WITH_KNOTS('',1,1,((#49,#50),(#51,#52)),.UNSPECIFIED.,.F.,.F.,.F.,(2,2),(2,2),(0.00000000000000000E0,1.00000000000000000E0),(0.00000000000000000E0,1.00000000000000000E0),.UNSPECIFIED.);
#54=CARTESIAN_POINT('',(8.00000000000000000E0,-5.00000000000000000E-1,0.00000000000000000E0));
#55=CARTESIAN_POINT('',(8.00000000000000000E0,-5.00000000000000000E-1,2.00000000000000000E0));
#56=CARTESIAN_POINT('',(8.50000000000000000E0,-5.00000000000000000E-1,0.00000000000000000E0));
#57=CARTESIAN_POINT('',(8.50000000000000000E0,-5.00000000000000000E-1,2.00000000000000000E0));
#58=CARTESIAN_POINT('',(8.50000000000000000E0,0.00000000000000000E0,0.00000000000000000E0));
#59=CARTESIAN_POINT('',(8.50000000000000000E0,0.00000000000000000E0,2.00000000000000000E0));
#60=(BOUNDED_SURFACE()B_SPLINE_SURFACE(2,1,((#54,#55),(#56,#57),(#58,#59)),.UNSPECIFIED.,.F.,.F.,.F.)B_SPLINE_SURFACE_WITH_KNOTS((3,3),(2,2),(0.00000000000000000E0,1.00000000000000000E0),(0.00000000000000000E0,1.00000000000000000E0),.UNSPECIFIED.)GEOMETRIC_REPRESENTATION_ITEM()RATIONAL_B_SPLINE_SURFACE(((1.00000000000000000E0,1.00000000000000000E0),(7.07106781186547573E-1,7.07106781186547573E-1),(1.00000000000000000E0,1.00000000000000000E0)))REPRESENTATION_ITEM('')SURFACE());
#61=CARTESIAN_POINT('',(8.50000000000000000E0,0.00000000000000000E0,0.00000000000000000E0));
#62=CARTESIAN_POINT('',(8.50000000000000000E0,0.00000000000000000E0,2.00000000000000000E0));
#63=CARTESIAN_POINT('',(8.50000000000000000E0,6.00000000000000000E0,0.00000000000000000E0));
#64=CARTESIAN_POINT('',(8.50000000000000000E0,6.00000000000000000E0,2.00000000000000000E0));
#65=B_SPLINE_SURFACE_WITH_KNOTS('',1,1,((#61,#62),(#63,#64)),.UNSPECIFIED.,.F.,.F.,.F.,(2,2),(2,2),(0.00000000000000000E0,1.00000000000000000E0),(0.00000000000000000E0,1.00000000000000000E0),.UNSPECIFIED.);
#66=CARTESIAN_POINT('',(8.50000000000000000E0,6.00000000000000000E0,0.00000000000000000E0));
#67=CARTESIAN_POINT('',(8.50000000000000000E0,6.00000000000000000E0,2.00000000000000000E0));
#68=CARTESIAN_POINT('',(8.50000000000000000E0,6.50000000000000089E0,0.00000000000000000E0));
#69=CARTESIAN_POINT('',(8.50000000000000000E0,6.50000000000000089E0,2.00000000000000000E0));
#70=CARTESIAN_POINT('',(8.00000000000000000E0,6.50000000000000000E0,0.00000000000000000E0));
#71=CARTESIAN_POINT('',(8.00000000000000000E0,6.50000000000000000E0,2.00000000000000000E0));
#72=(BOUNDED_SURFACE()B_SPLINE_SURFACE(2,1,((#66,#67),(#68,#69),(#70,#71)),.UNSPECIFIED.,.F.,.F.,.F.)B_SPLINE_SURFACE_WITH_KNOTS((3,3),(2,2),(0.00000000000000000E0,1.00000000000000000E0),(0.00000000000000000E0,1.00000000000000000E0),.UNSPECIFIED.)GEOMETRIC_REPRESENTATION_ITEM()RATIONAL_B_SPLINE_SURFACE(((1.00000000000000000E0,1.00000000000000000E0),(7.07106781186547573E-1,7.07106781186547573E-1),(1.00000000000000000E0,1.00000000000000000E0)))REPRESENTATION_ITEM('')SURFACE());
#73=CARTESIAN_POINT('',(8.00000000000000000E0,6.50000000000000000E0,0.00000000000000000E0));
#74=CARTESIAN_POINT('',(8.00000000000000000E0,6.50000000000000000E0,2.00000000000000000E0));
#75=CARTESIAN_POINT('',(0.00000000000000000E0,6.50000000000000000E0,0.00000000000000000E0));
#76=CARTESIAN_POINT('',(0.00000000000000000E0,6.50000000000000000E0,2.00000000000000000E0));
#77=B_SPLINE_SURFACE_WITH_KNOTS('',1,1,((#73,#74),(#75,#76)),.UNSPECIFIED.,.F.,.F.,.F.,(2,2),(2,2),(0.00000000000000000E0,1.00000000000000000E0),(0.00000000000000000E0,1.00000000000000000E0),.UNSPECIFIED.);
#78=CARTESIAN_POINT('',(0.00000000000000000E0,6.50000000000000000E0,0.00000000000000000E0));
#79=CARTESIAN_POINT('',(0.00000000000000000E0,6.50000000000000000E0,2.00000000000000000E0));
#80=CARTESIAN_POINT('',(-5.00000000000000000E-1,6.50000000000000089E0,0.00000000000000000E0));
#81=CARTESIAN_POINT('',(-5.00000000000000000E-1,6.50000000000000089E0,2.00000000000000000E0));
#82=CARTESIAN_POINT('',(-5.00000000000000000E-1,6.00000000000000000E0,0.00000000000000000E0));
#83=CARTESIAN_POINT('',(-5.00000000000000000E-1,6.00000000000000000E0,2.00000000000000000E0));
#84=(BOUNDED_SURFACE()B_SPLINE_SURFACE(2,1,((#78,#79),(#80,#81),(#82,#83)),.UNSPECIFIED.,.F.,.F.,.F.)B_SPLINE_SURFACE_WITH_KNOTS((3,3),(2,2),(0.00000000000000000E0,1.00000000000000000E0),(0.00000000000000000E0,1.00000000000000000E0),.UNSPECIFIED.)GEOMETRIC_REPRESENTATION_ITEM()RATIONAL_B_SPLINE_SURFACE(((1.00000000000000000E0,1.00000000000000000E0),(7.07106781186547573E-1,7.07106781186547573E-1),(1.00000000000000000E0,1.00000000000000000E0)))REPRESENTATION_ITEM('')SURFACE());
#85=CARTESIAN_POINT('',(-5.00000000000000000E-1,6.00000000000000000E0,0.00000000000000000E0));
#86=CARTESIAN_POINT('',(-5.00000000000000000E-1,6.00000000000000000E0,2.00000000000000000E0));
#87=CARTESIAN_POINT('',(-5.00000000000000000E-1,0.00000000000000000E0,0.00000000000000000E0));
#88=CARTESIAN_POINT('',(-5.00000000000000000E-1,0.00000000000000000E0,2.00000000000000000E0));
#89=B_SPLINE_SURFACE_WITH_KNOTS('',1,1,((#85,#86),(#87,#88)),.UNSPECIFIED.,.F.,.F.,.F.,(2,2),(2,2),(0.00000000000000000E0,1.00000000000000000E0),(0.00000000000000000E0,1.00000000000000000E0),.UNSPECIFIED.);
#90=CARTESIAN_POINT('',(-5.00000000000000000E-1,0.00000000000000000E0,0.00000000000000000E0));
#91=CARTESIAN_POINT('',(-5.00000000000000000E-1,0.00000000000000000E0,2.00000000000000000E0));
#92=CARTESIAN_POINT('',(-5.00000000000000000E-1,-5.00000000000000000E-1,0.00000000000000000E0));
#93=CARTESIAN_POINT('',(-5.00000000000000000E-1,-5.00000000000000000E-1,2.00000000000000000E0));
#94=CARTESIAN_POINT('',(0.00000000000000000E0,-5.00000000000000000E-1,0.00000000000000000E0));
#95=CARTESIAN_POINT('',(0.00000000000000000E0,-5.00000000000000000E-1,2.00000000000000000E0));
#96=(BOUNDED_SURFACE()B_SPLINE_SURFACE(2,1,((#90,#91),(#92,#93),(#94,#95)),.UNSPECIFIED.,.F.,.F.,.F.)B_SPLINE_SURFACE_WITH_KNOTS((3,3),(2,2),(0.00000000000000000E0,1.00000000000000000E0),(0.00000000000000000E0,1.00000000000000000E0),.UNSPECIFIED.)GEOMETRIC_REPRESENTATION_ITEM()RATIONAL_B_SPLINE_SURFACE(((1.00000000000000000E0,1.00000000000000000E0),(7.07106781186547573E-1,7.07106781186547573E-1),(1.00000000000000000E0,1.00000000000000000E0)))REPRESENTATION_ITEM('')SURFACE());
#97=CARTESIAN_POINT('',(4.00000000000000000E0,3.50000000000000000E0,0.00000000000000000E0));
#98=CARTESIAN_POINT('',(4.00000000000000000E0,3.50000000000000000E0,2.00000000000000000E0));
#99=CARTESIAN_POINT('',(4.50000000000000000E0,3.49999999999999956E0,0.00000000000000000E0));
#100=CARTESIAN_POINT('',(4.50000000000000000E0,3.49999999999999956E0,2.00000000000000000E0));
#101=CARTESIAN_POINT('',(4.50000000000000000E0,3.00000000000000000E0,0.00000000000000000E0));
#102=CARTESIAN_POINT('',(4.50000000000000000E0,3.00000000000000000E0,2.00000000000000000E0));
#103=(BOUNDED_SURFACE()B_SPLINE_SURFACE(2,1,((#97,#98),(#99,#100),(#101,#102)),.UNSPECIFIED.,.F.,.F.,.F.)B_SPLINE_SURFACE_WITH_KNOTS((3,3),(2,2),(0.00000000000000000E0,1.00000000000000000E0),(0.00000000000000000E0,1.00000000000000000E0),.UNSPECIFIED.)GEOMETRIC_REPRESENTATION_ITEM()RATIONAL_B_SPLINE_SURFACE(((1.00000000000000000E0,1.00000000000000000E0),(7.07106781186547573E-1,7.07106781186547573E-1),(1.00000000000000000E0,1.00000000000000000E0)))REPRESENTATION_ITEM('')SURFACE());
#104=CARTESIAN_POINT('',(4.50000000000000000E0,3.00000000000000000E0,0.00000000000000000E0));
#105=CARTESIAN_POINT('',(4.50000000000000000E0,3.00000000000000000E0,2.00000000000000000E0));
#106=CARTESIAN_POINT('',(4.50000000000000000E0,2.50000000000000000E0,0.00000000000000000E0));
#107=CARTESIAN_POINT('',(4.50000000000000000E0,2.50000000000000000E0,2.00000000000000000E0));
#108=CARTESIAN_POINT('',(4.00000000000000000E0,2.50000000000000000E0,0.00000000000000000E0));
#109=CARTESIAN_POINT('',(4.00000000000000000E0,2.50000000000000000E0,2.00000000000000000E0));
#110=(BOUNDED_SURFACE()B_SPLINE_SURFACE(2,1,((#104,#105),(#106,#107),(#108,#109)),.UNSPECIFIED.,.F.,.F.,.F.)B_SPLINE_SURFACE_WITH_KNOTS((3,3),(2,2),(0.00000000000000000E0,1.00000000000000000E0),(0.00000000000000000E0,1.00000000000000000E0),.UNSPECIFIED.)GEOMETRIC_REPRESENTATION_ITEM()RATIONAL_B_SPLINE_SURFACE(((1.00000000000000000E0,1.00000000000000000E0),(7.07106781186547573E-1,7.07106781186547573E-1),(1.00000000000000000E0,1.00000000000000000E0)))REPRESENTATION_ITEM('')SURFACE());
#111=CARTESIAN_POINT('',(4.00000000000000000E0,2.50000000000000000E0,0.00000000000000000E0));
#112=CARTESIAN_POINT('',(4.00000000000000000E0,2.50000000000000000E0,2.00000000000000000E0));
#113=CARTESIAN_POINT('',(3.49999999999999956E0,2.50000000000000000E0,0.00000000000000000E0));
#114=CARTESIAN_POINT('',(3.49999999999999956E0,2.50000000000000000E0,2.00000000000000000E0));
#115=CARTESIAN_POINT('',(3.50000000000000000E0,3.00000000000000000E0,0.00000000000000000E0));
#116=CARTESIAN_POINT('',(3.50000000000000000E0,3.00000000000000000E0,2.00000000000000000E0));
#117=(BOUNDED_SURFACE()B_SPLINE_SURFACE(2,1,((#111,#112),(#113,#114),(#115,#116)),.UNSPECIFIED.,.F.,.F.,.F.)B_SPLINE_SURFACE_WITH_KNOTS((3,3),(2,2),(0.00000000000000000E0,1.00000000000000000E0),(0.00000000000000000E0,1.00000000000000000E0),.UNSPECIFIED.)GEOMETRIC_REPRESENTATION_ITEM()RATIONAL_B_SPLINE_SURFACE(((1.00000000000000000E0,1.00000000000000000E0),(7.07106781186547573E-1,7.07106781186547573E-1),(1.00000000000000000E0,1.00000000000000000E0)))REPRESENTATION_ITEM('')SURFACE());
#118=CARTESIAN_POINT('',(3.50000000000000000E0,3.00000000000000000E0,0.00000000000000000E0));
#119=CARTESIAN_POINT('',(3.50000000000000000E0,3.00000000000000000E0,2.00000000000000000E0));
#120=CARTESIAN_POINT('',(3.49999999999999956E0,3.49999999999999956E0,0.00000000000000000E0));
#121=CARTESIAN_POINT('',(3.49999999999999956E0,3.49999999999999956E0,2.00000000000000000E0));
#122=CARTESIAN_POINT('',(4.00000000000000000E0,3.50000000000000000E0,0.00000000000000000E0));
#123=CARTESIAN_POINT('',(4.00000000000000000E0,3.50000000000000000E0,2.00000000000000000E0));
#124=(BOUNDED_SURFACE()B_SPLINE_SURFACE(2,1,((#118,#119),(#120,#121),(#122,#123)),.UNSPECIFIED.,.F.,.F.,.F.)B_SPLINE_SURFACE_WITH_KNOTS((3,3),(2,2),(0.00000000000000000E0,1.00000000000000000E0),(0.00000000000000000E0,1.00000000000000000E0),.UNSPECIFIED.)GEOMETRIC_REPRESENTATION_ITEM()RATIONAL_B_SPLINE_SURFACE(((1.00000000000000000E0,1.00000000000000000E0),(7.07106781186547573E-1,7.07106781186547573E-1),(1.00000000000000000E0,1.00000000000000000E0)))REPRESENTATION_ITEM('')SURFACE());
#125=CARTESIAN_POINT('',(8.50000000000000000E0,-5.00000000000000000E-1,0.00000000000000000E0));
#126=CARTESIAN_POINT('',(8.50000000000000000E0,6.50000000000000089E0,0.00000000000000000E0));
#127=CARTESIAN_POINT('',(-5.00000000000000000E-1,-5.00000000000000000E-1,0.00000000000000000E0));
#128=CARTESIAN_POINT('',(-5.00000000000000000E-1,6.50000000000000089E0,0.00000000000000000E0));
#129=B_SPLINE_SURFACE_WITH_KNOTS('',1,1,((#125,#126),(#127,#128)),.UNSPECIFIED.,.F.,.F.,.F.,(2,2),(2,2),(0.00000000000000000E0,1.00000000000000000E0),(0.00000000000000000E0,1.00000000000000000E0),.UNSPECIFIED.);
#130=CARTESIAN_POINT('',(-5.00000000000000000E-1,-5.00000000000000000E-1,2.00000000000000000E0));
#131=CARTESIAN_POINT('',(-5.00000000000000000E-1,6.50000000000000089E0,2.00000000000000000E0));
#132=CARTESIAN_POINT('',(8.50000000000000000E0,-5.00000000000000000E-1,2.00000000000000000E0));
#133=CARTESIAN_POINT('',(8.50000000000000000E0,6.50000000000000089E0,2.00000000000000000E0));
#134=B_SPLINE_SURFACE_WITH_KNOTS('',1,1,((#130,#131),(#132,#133)),.UNSPECIFIED.,.F.,.F.,.F.,(2,2),(2,2),(0.00000000000000000E0,1.00000000000000000E0),(0.00000000000000000E0,1.00000000000000000E0),.UNSPECIFIED.);
#135=CARTESIAN_POINT('',(0.00000000000000000E0,-5.00000000000000000E-1,0.00000000000000000E0));
#136=CARTESIAN_POINT('',(8.00000000000000000E0,-5.00000000000000000E-1,0.00000000000000000E0));
#137=B_SPLINE_CURVE_WITH_KNOTS('',1,(#135,#136),.UNSPECIFIED.,.F.,.F.,(2,2),(0.00000000000000000E0,1.00000000000000000E0),.UNSPECIFIED.);
#138=CARTESIAN_POINT('',(0.00000000000000000E0,-5.00000000000000000E-1,2.00000000000000000E0));
#139=CARTESIAN_POINT('',(8.00000000000000000E0,-5.00000000000000000E-1,2.00000000000000000E0));
#140=B_SPLINE_CURVE_WITH_KNOTS('',1,(#138,#139),.UNSPECIFIED.,.F.,.F.,(2,2),(0.00000000000000000E0,1.00000000000000000E0),.UNSPECIFIED.);
#141=CARTESIAN_POINT('',(0.00000000000000000E0,-5.00000000000000000E-1,0.00000000000000000E0));
#142=CARTESIAN_POINT('',(0.00000000000000000E0,-5.00000000000000000E-1,2.00000000000000000E0));
#143=B_SPLINE_CURVE_WITH_KNOTS('',1,(#141,#142),.UNSPECIFIED.,.F.,.F.,(2,2),(0.00000000000000000E0,1.00000000000000000E0),.UNSPECIFIED.);
#144=CARTESIAN_POINT('',(8.00000000000000000E0,-5.00000000000000000E-1,0.00000000000000000E0));
#145=CARTESIAN_POINT('',(8.50000000000000000E0,-5.00000000000000000E-1,0.00000000000000000E0));
#146=CARTESIAN_POINT('',(8.50000000000000000E0,0.00000000000000000E0,0.00000000000000000E0));
#147=(BOUNDED_CURVE()B_SPLINE_CURVE(2,(#144,#145,#146),.UNSPECIFIED.,.F.,.F.)B_SPLINE_CURVE_WITH_KNOTS((3,3),(0.00000000000000000E0,1.00000000000000000E0),.UNSPECIFIED.)CURVE()GEOMETRIC_REPRESENTATION_ITEM()RATIONAL_B_SPLINE_CURVE((1.00000000000000000E0,7.07106781186547573E-1,1.00000000000000000E0))REPRESENTATION_ITEM(''));
#148=CARTESIAN_POINT('',(8.00000000000000000E0,-5.00000000000000000E-1,2.00000000000000000E0));
#149=CARTESIAN_POINT('',(8.50000000000000000E0,-5.00000000000000000E-1,2.00000000000000000E0));
#150=CARTESIAN_POINT('',(8.50000000000000000E0,0.00000000000000000E0,2.00000000000000000E0));
#151=(BOUNDED_CURVE()B_SPLINE_CURVE(2,(#148,#149,#150),.UNSPECIFIED.,.F.,.F.)B_SPLINE_CURVE_WITH_KNOTS((3,3),(0.00000000000000000E0,1.00000000000000000E0),.UNSPECIFIED.)CURVE()GEOMETRIC_REPRESENTATION_ITEM()RATIONAL_B_SPLINE_CURVE((1.00000000000000000E0,7.07106781186547573E-1,1.00000000000000000E0))REPRESENTATION_ITEM(''));
#152=CARTESIAN_POINT('',(8.00000000000000000E0,-5.00000000000000000E-1,0.00000000000000000E0));
#153=CARTESIAN_POINT('',(8.00000000000000000E0,-5.00000000000000000E-1,2.00000000000000000E0));
#154=B_SPLINE_CURVE_WITH_KNOTS('',1,(#152,#153),.UNSPECIFIED.,.F.,.F.,(2,2),(0.00000000000000000E0,1.00000000000000000E0),.UNSPECIFIED.);
#155=CARTESIAN_POINT('',(8.50000000000000000E0,0.00000000000000000E0,0.00000000000000000E0));
#156=CARTESIAN_POINT('',(8.50000000000000000E0,6.00000000000000000E0,0.00000000000000000E0));
#157=B_SPLINE_CURVE_WITH_KNOTS('',1,(#155,#156),.UNSPECIFIED.,.F.,.F.,(2,2),(0.00000000000000000E0,1.00000000000000000E0),.UNSPECIFIED.);
#158=CARTESIAN_POINT('',(8.50000000000000000E0,0.00000000000000000E0,2.00000000000000000E0));
#159=CARTESIAN_POINT('',(8.50000000000000000E0,6.00000000000000000E0,2.00000000000000000E0));
#160=B_SPLINE_CURVE_WITH_KNOTS('',1,(#158,#159),.UNSPECIFIED.,.F.,.F.,(2,2),(0.00000000000000000E0,1.00000000000000000E0),.UNSPECIFIED.);
#161=CARTESIAN_POINT('',(8.50000000000000000E0,0.00000000000000000E0,0.00000000000000000E0));
#162=CARTESIAN_POINT('',(8.50000000000000000E0,0.00000000000000000E0,2.00000000000000000E0));
#163=B_SPLINE_CURVE_WITH_KNOTS('',1,(#161,#162),.UNSPECIFIED.,.F.,.F.,(2,2),(0.00000000000000000E0,1.00000000000000000E0),.UNSPECIFIED.);
#164=CARTESIAN_POINT('',(8.50000000000000000E0,6.00000000000000000E0,0.00000000000000000E0));
#165=CARTESIAN_POINT('',(8.50000000000000000E0,6.50000000000000089E0,0.00000000000000000E0));
#166=CARTESIAN_POINT('',(8.00000000000000000E0,6.50000000000000000E0,0.00000000000000000E0));
#167=(BOUNDED_CURVE()B_SPLINE_CURVE(2,(#164,#165,#166),.UNSPECIFIED.,.F.,.F.)B_SPLINE_CURVE_WITH_KNOTS((3,3),(0.00000000000000000E0,1.00000000000000000E0),.UNSPECIFIED.)CURVE()GEOMETRIC_REPRESENTATION_ITEM()RATIONAL_B_SPLINE_CURVE((1.00000000000000000E0,7.07106781186547573E-1,1.00000000000000000E0))REPRESENTATION_ITEM(''));
#168=CARTESIAN_POINT('',(8.50000000000000000E0,6.00000000000000000E0,2.00000000000000000E0));
#169=CARTESIAN_POINT('',(8.50000000000000000E0,6.50000000000000089E0,2.00000000000000000E0));
#170=CARTESIAN_POINT('',(8.00000000000000000E0,6.50000000000000000E0,2.00000000000000000E0));
#171=(BOUNDED_CURVE()B_SPLINE_CURVE(2,(#168,#169,#170),.UNSPECIFIED.,.F.,.F.)B_SPLINE_CURVE_WITH_KNOTS((3,3),(0.00000000000000000E0,1.00000000000000000E0),.UNSPECIFIED.)CURVE()GEOMETRIC_REPRESENTATION_ITEM()RATIONAL_B_SPLINE_CURVE((1.00000000000000000E0,7.07106781186547573E-1,1.00000000000000000E0))REPRESENTATION_ITEM(''));
#172=CARTESIAN_POINT('',(8.50000000000000000E0,6.00000000000000000E0,0.00000000000000000E0));
#173=CARTESIAN_POINT('',(8.50000000000000000E0,6.00000000000000000E0,2.00000000000000000E0));
#174=B_SPLINE_CURVE_WITH_KNOTS('',1,(#172,#173),.UNSPECIFIED.,.F.,.F.,(2,2),(0.00000000000000000E0,1.00000000000000000E0),.UNSPECIFIED.);
#175=CARTESIAN_POINT('',(8.00000000000000000E0,6.50000000000000000E0,0.00000000000000000E0));
#176=CARTESIAN_POINT('',(0.00000000000000000E0,6.50000000000000000E0,0.00000000000000000E0));
#177=B_SPLINE_CURVE_WITH_KNOTS('',1,(#175,#176),.UNSPECIFIED.,.F.,.F.,(2,2),(0.00000000000000000E0,1.00000000000000000E0),.UNSPECIFIED.);
#178=CARTESIAN_POINT('',(8.00000000000000000E0,6.50000000000000000E0,2.00000000000000000E0));
#179=CARTESIAN_POINT('',(0.00000000000000000E0,6.50000000000000000E0,2.00000000000000000E0));
#180=B_SPLINE_CURVE_WITH_KNOTS('',1,(#178,#179),.UNSPECIFIED.,.F.,.F.,(2,2),(0.00000000000000000E0,1.00000000000000000E0),.UNSPECIFIED.);
#181=CARTESIAN_POINT('',(8.00000000000000000E0,6.50000000000000000E0,0.00000000000000000E0));
#182=CARTESIAN_POINT('',(8.00000000000000000E0,6.50000000000000000E0,2.00000000000000000E0));
#183=B_SPLINE_CURVE_WITH_KNOTS('',1,(#181,#182),.UNSPECIFIED.,.F.,.F.,(2,2),(0.00000000000000000E0,1.00000000000000000E0),.UNSPECIFIED.);
#184=CARTESIAN_POINT('',(0.00000000000000000E0,6.50000000000000000E0,0.00000000000000000E0));
#185=CARTESIAN_POINT('',(-5.00000000000000000E-1,6.50000000000000089E0,0.00000000000000000E0));
#186=CARTESIAN_POINT('',(-5.00000000000000000E-1,6.00000000000000000E0,0.00000000000000000E0));
#187=(BOUNDED_CURVE()B_SPLINE_CURVE(2,(#184,#185,#186),.UNSPECIFIED.,.F.,.F.)B_SPLINE_CURVE_WITH_KNOTS((3,3),(0.00000000000000000E0,1.00000000000000000E0),.UNSPECIFIED.)CURVE()GEOMETRIC_REPRESENTATION_ITEM()RATIONAL_B_SPLINE_CURVE((1.00000000000000000E0,7.07106781186547573E-1,1.00000000000000000E0))REPRESENTATION_ITEM(''));
#188=CARTESIAN_POINT('',(0.00000000000000000E0,6.50000000000000000E0,2.00000000000000000E0));
#189=CARTESIAN_POINT('',(-5.00000000000000000E-1,6.50000000000000089E0,2.00000000000000000E0));
#190=CARTESIAN_POINT('',(-5.00000000000000000E-1,6.00000000000000000E0,2.00000000000000000E0));
#191=(BOUNDED_CURVE()B_SPLINE_CURVE(2,(#188,#189,#190),.UNSPECIFIED.,.F.,.F.)B_SPLINE_CURVE_WITH_KNOTS((3,3),(0.00000000000000000E0,1.00000000000000000E0),.UNSPECIFIED.)CURVE()GEOMETRIC_REPRESENTATION_ITEM()RATIONAL_B_SPLINE_CURVE((1.00000000000000000E0,7.07106781186547573E-1,1.00000000000000000E0))REPRESENTATION_ITEM(''));
#192=CARTESIAN_POINT('',(0.00000000000000000E0,6.50000000000000000E0,0.00000000000000000E0));
#193=CARTESIAN_POINT('',(0.00000000000000000E0,6.50000000000000000E0,2.00000000000000000E0));
#194=B_SPLINE_CURVE_WITH_KNOTS('',1,(#192,#193),.UNSPECIFIED.,.F.,.F.,(2,2),(0.00000000000000000E0,1.00000000000000000E0),.UNSPECIFIED.);
#195=CARTESIAN_POINT('',(-5.00000000000000000E-1,6.00000000000000000E0,0.00000000000000000E0));
#196=CARTESIAN_POINT('',(-5.00000000000000000E-1,0.00000000000000000E0,0.00000000000000000E0));
#197=B_SPLINE_CURVE_WITH_KNOTS('',1,(#195,#196),.UNSPECIFIED.,.F.,.F.,(2,2),(0.00000000000000000E0,1.00000000000000000E0),.UNSPECIFIED.);
#198=CARTESIAN_POINT('',(-5.00000000000000000E-1,6.00000000000000000E0,2.00000000000000000E0));
#199=CARTESIAN_POINT('',(-5.00000000000000000E-1,0.00000000000000000E0,2.00000000000000000E0));
#200=B_SPLINE_CURVE_WITH_KNOTS('',1,(#198,#199),.UNSPECIFIED.,.F.,.F.,(2,2),(0.00000000000000000E0,1.00000000000000000E0),.UNSPECIFIED.);
#201=CARTESIAN_POINT('',(-5.00000000000000000E-1,6.00000000000000000E0,0.00000000000000000E0));
#202=CARTESIAN_POINT('',(-5.00000000000000000E-1,6.00000000000000000E0,2.00000000000000000E0));
#203=B_SPLINE_CURVE_WITH_KNOTS('',1,(#201,#202),.UNSPECIFIED.,.F.,.F.,(2,2),(0.00000000000000000E0,1.00000000000000000E0),.UNSPECIFIED.);
#204=CARTESIAN_POINT('',(-5.00000000000000000E-1,0.00000000000000000E0,0.00000000000000000E0));
#205=CARTESIAN_POINT('',(-5.00000000000000000E-1,-5.00000000000000000E-1,0.00000000000000000E0));
#206=CARTESIAN_POINT('',(0.00000000000000000E0,-5.00000000000000000E-1,0.00000000000000000E0));
#207=(BOUNDED_CURVE()B_SPLINE_CURVE(2,(#204,#205,#206),.UNSPECIFIED.,.F.,.F.)B_SPLINE_CURVE_WITH_KNOTS((3,3),(0.00000000000000000E0,1.00000000000000000E0),.UNSPECIFIED.)CURVE()GEOMETRIC_REPRESENTATION_ITEM()RATIONAL_B_SPLINE_CURVE((1.00000000000000000E0,7.07106781186547573E-1,1.00000000000000000E0))REPRESENTATION_ITEM(''));
#208=CARTESIAN_POINT('',(-5.00000000000000000E-1,0.00000000000000000E0,2.00000000000000000E0));
#209=CARTESIAN_POINT('',(-5.00000000000000000E-1,-5.00000000000000000E-1,2.00000000000000000E0));
#210=CARTESIAN_POINT('',(0.00000000000000000E0,-5.00000000000000000E-1,2.00000000000000000E0));
#211=(BOUNDED_CURVE()B_SPLINE_CURVE(2,(#208,#209,#210),.UNSPECIFIED.,.F.,.F.)B_SPLINE_CURVE_WITH_KNOTS((3,3),(0.00000000000000000E0,1.00000000000000000E0),.UNSPECIFIED.)CURVE()GEOMETRIC_REPRESENTATION_ITEM()RATIONAL_B_SPLINE_CURVE((1.00000000000000000E0,7.07106781186547573E-1,1.00000000000000000E0))REPRESENTATION_ITEM(''));
#212=CARTESIAN_POINT('',(-5.00000000000000000E-1,0.00000000000000000E0,0.00000000000000000E0));
#213=CARTESIAN_POINT('',(-5.00000000000000000E-1,0.00000000000000000E0,2.00000000000000000E0));
#214=B_SPLINE_CURVE_WITH_KNOTS('',1,(#212,#213),.UNSPECIFIED.,.F.,.F.,(2,2),(0.00000000000000000E0,1.00000000000000000E0),.UNSPECIFIED.);
#215=CARTESIAN_POINT('',(4.00000000000000000E0,3.50000000000000000E0,0.00000000000000000E0));
#216=CARTESIAN_POINT('',(4.50000000000000000E0,3.49999999999999956E0,0.00000000000000000E0));
#217=CARTESIAN_POINT('',(4.50000000000000000E0,3.00000000000000000E0,0.00000000000000000E0));
#218=(BOUNDED_CURVE()B_SPLINE_CURVE(2,(#215,#216,#217),.UNSPECIFIED.,.F.,.F.)B_SPLINE_CURVE_WITH_KNOTS((3,3),(0.00000000000000000E0,1.00000000000000000E0),.UNSPECIFIED.)CURVE()GEOMETRIC_REPRESENTATION_ITEM()RATIONAL_B_SPLINE_CURVE((1.00000000000000000E0,7.07106781186547573E-1,1.00000000000000000E0))REPRESENTATION_ITEM(''));
#219=CARTESIAN_POINT('',(4.00000000000000000E0,3.50000000000000000E0,2.00000000000000000E0));
#220=CARTESIAN_POINT('',(4.50000000000000000E0,3.49999999999999956E0,2.00000000000000000E0));
#221=CARTESIAN_POINT('',(4.50000000000000000E0,3.00000000000000000E0,2.00000000000000000E0));
#222=(BOUNDED_CURVE()B_SPLINE_CURVE(2,(#219,#220,#221),.UNSPECIFIED.,.F.,.F.)B_SPLINE_CURVE_WITH_KNOTS((3,3),(0.00000000000000000E0,1.00000000000000000E0),.UNSPECIFIED.)CURVE()GEOMETRIC_REPRESENTATION_ITEM()RATIONAL_B_SPLINE_CURVE((1.00000000000000000E0,7.07106781186547573E-1,1.00000000000000000E0))REPRESENTATION_ITEM(''));
#223=CARTESIAN_POINT('',(4.00000000000000000E0,3.50000000000000000E0,0.00000000000000000E0));
#224=CARTESIAN_POINT('',(4.00000000000000000E0,3.50000000000000000E0,2.00000000000000000E0));
#225=B_SPLINE_CURVE_WITH_KNOTS('',1,(#223,#224),.UNSPECIFIED.,.F.,.F.,(2,2),(0.00000000000000000E0,1.00000000000000000E0),.UNSPECIFIED.);
#226=CARTESIAN_POINT('',(4.50000000000000000E0,3.00000000000000000E0,0.00000000000000000E0));
#227=CARTESIAN_POINT('',(4.50000000000000000E0,2.50000000000000000E0,0.00000000000000000E0));
#228=CARTESIAN_POINT('',(4.00000000000000000E0,2.50000000000000000E0,0.00000000000000000E0));
#229=(BOUNDED_CURVE()B_SPLINE_CURVE(2,(#226,#227,#228),.UNSPECIFIED.,.F.,.F.)B_SPLINE_CURVE_WITH_KNOTS((3,3),(0.00000000000000000E0,1.00000000000000000E0),.UNSPECIFIED.)CURVE()GEOMETRIC_REPRESENTATION_ITEM()RATIONAL_B_SPLINE_CURVE((1.00000000000000000E0,7.07106781186547573E-1,1.00000000000000000E0))REPRESENTATION_ITEM(''));
#230=CARTESIAN_POINT('',(4.50000000000000000E0,3.00000000000000000E0,2.00000000000000000E0));
#231=CARTESIAN_POINT('',(4.50000000000000000E0,2.50000000000000000E0,2.00000000000000000E0));
#232=CARTESIAN_POINT('',(4.00000000000000000E0,2.50000000000000000E0,2.00000000000000000E0));
#233=(BOUNDED_CURVE()B_SPLINE_CURVE(2,(#230,#231,#232),.UNSPECIFIED.,.F.,.F.)B_SPLINE_CURVE_WITH_KNOTS((3,3),(0.00000000000000000E0,1.00000000000000000E0),.UNSPECIFIED.)CURVE()GEOMETRIC_REPRESENTATION_ITEM()RATIONAL_B_SPLINE_CURVE((1.00000000000000000E0,7.07106781186547573E-1,1.00000000000000000E0))REPRESENTATION_ITEM(''));
#234=CARTESIAN_POINT('',(4.50000000000000000E0,3.00000000000000000E0,0.00000000000000000E0));
#235=CARTESIAN_POINT('',(4.50000000000000000E0,3.00000000000000000E0,2.00000000000000000E0));
#236=B_SPLINE_CURVE_WITH_KNOTS('',1,(#234,#235),.UNSPECIFIED.,.F.,.F.,(2,2),(0.00000000000000000E0,1.00000000000000000E0),.UNSPECIFIED.);
#237=CARTESIAN_POINT('',(4.00000000000000000E0,2.50000000000000000E0,0.00000000000000000E0));
#238=CARTESIAN_POINT('',(3.49999999999999956E0,2.50000000000000000E0,0.00000000000000000E0));
#239=CARTESIAN_POINT('',(3.50000000000000000E0,3.00000000000000000E0,0.00000000000000000E0));
#240=(BOUNDED_CURVE()B_SPLINE_CURVE(2,(#237,#238,#239),.UNSPECIFIED.,.F.,.F.)B_SPLINE_CURVE_WITH_KNOTS((3,3),(0.00000000000000000E0,1.00000000000000000E0),.UNSPECIFIED.)CURVE()GEOMETRIC_REPRESENTATION_ITEM()RATIONAL_B_SPLINE_CURVE((1.00000000000000000E0,7.07106781186547573E-1,1.00000000000000000E0))REPRESENTATION_ITEM(''));
#241=CARTESIAN_POINT('',(4.00000000000000000E0,2.50000000000000000E0,2.00000000000000000E0));
#242=CARTESIAN_POINT('',(3.49999999999999956E0,2.50000000000000000E0,2.00000000000000000E0));
#243=CARTESIAN_POINT('',(3.50000000000000000E0,3.00000000000000000E0,2.00000000000000000E0));
#244=(BOUNDED_CURVE()B_SPLINE_CURVE(2,(#241,#242,#243),.UNSPECIFIED.,.F.,.F.)B_SPLINE_CURVE_WITH_KNOTS((3,3),(0.00000000000000000E0,1.00000000000000000E0),.UNSPECIFIED.)CURVE()GEOMETRIC_REPRESENTATION_ITEM()RATIONAL_B_SPLINE_CURVE((1.00000000000000000E0,7.07106781186547573E-1,1.00000000000000000E0))REPRESENTATION_ITEM(''));
#245=CARTESIAN_POINT('',(4.00000000000000000E0,2.50000000000000000E0,0.00000000000000000E0));
#246=CARTESIAN_POINT('',(4.00000000000000000E0,2.50000000000000000E0,2.00000000000000000E0));
#247=B_SPLINE_CURVE_WITH_KNOTS('',1,(#245,#246),.UNSPECIFIED.,.F.,.F.,(2,2),(0.00000000000000000E0,1.00000000000000000E0),.UNSPECIFIED.);
#248=CARTESIAN_POINT('',(3.50000000000000000E0,3.00000000000000000E0,0.00000000000000000E0));
#249=CARTESIAN_POINT('',(3.49999999999999956E0,3.49999999999999956E0,0.00000000000000000E0));
#250=CARTESIAN_POINT('',(4.00000000000000000E0,3.50000000000000000E0,0.00000000000000000E0));
#251=(BOUNDED_CURVE()B_SPLINE_CURVE(2,(#248,#249,#250),.UNSPECIFIED.,.F.,.F.)B_SPLINE_CURVE_WITH_KNOTS((3,3),(0.00000000000000000E0,1.00000000000000000E0),.UNSPECIFIED.)CURVE()GEOMETRIC_REPRESENTATION_ITEM()RATIONAL_B_SPLINE_CURVE((1.00000000000000000E0,7.07106781186547573E-1,1.00000000000000000E0))REPRESENTATION_ITEM(''));
#252=CARTESIAN_POINT('',(3.50000000000000000E0,3.00000000000000000E0,2.00000000000000000E0));
#253=CARTESIAN_POINT('',(3.49999999999999956E0,3.49999999999999956E0,2.00000000000000000E0));
#254=CARTESIAN_POINT('',(4.00000000000000000E0,3.50000000000000000E0,2.00000000000000000E0));
#255=(BOUNDED_CURVE()B_SPLINE_CURVE(2,(#252,#253,#254),.UNSPECIFIED.,.F.,.F.)B_SPLINE_CURVE_WITH_KNOTS((3,3),(0.00000000000000000E0,1.00000000000000000E0),.UNSPECIFIED.)CURVE()GEOMETRIC_REPRESENTATION_ITEM()RATIONAL_B_SPLINE_CURVE((1.00000000000000000E0,7.07106781186547573E-1,1.00000000000000000E0))REPRESENTATION_ITEM(''));
#256=CARTESIAN_POINT('',(3.50000000000000000E0,3.00000000000000000E0,0.00000000000000000E0));
#257=CARTESIAN_POINT('',(3.50000000000000000E0,3.00000000000000000E0,2.00000000000000000E0));
#258=B_SPLINE_CURVE_WITH_KNOTS('',1,(#256,#257),.UNSPECIFIED.,.F.,.F.,(2,2),(0.00000000000000000E0,1.00000000000000000E0),.UNSPECIFIED.);
#259=(GEOMETRIC_REPRESENTATION_CONTEXT(2)REPRESENTATION_CONTEXT('','2D'));
#260=CARTESIAN_POINT('',(9.44444444444444420E-1,0.00000000000000000E0));
#261=CARTESIAN_POINT('',(1.00000000000000000E0,0.00000000000000000E0));
#262=CARTESIAN_POINT('',(1.00000000000000000E0,7.14285714285714246E-2));
#263=(BOUNDED_CURVE()B_SPLINE_CURVE(2,(#260,#261,#262),.UNSPECIFIED.,.F.,.F.)B_SPLINE_CURVE_WITH_KNOTS((3,3),(0.00000000000000000E0,1.00000000000000000E0),.UNSPECIFIED.)CURVE()GEOMETRIC_REPRESENTATION_ITEM()RATIONAL_B_SPLINE_CURVE((1.00000000000000000E0,7.07106781186547573E-1,1.00000000000000000E0))REPRESENTATION_ITEM(''));
#264=DEFINITIONAL_REPRESENTATION('',(#263),#259);
#265=PCURVE('',#129,#264);
#266=CARTESIAN_POINT('',(1.00000000000000000E0,7.14285714285714246E-2));
#267=CARTESIAN_POINT('',(1.00000000000000000E0,9.28571428571428492E-1));
#268=B_SPLINE_CURVE_WITH_KNOTS('',1,(#266,#267),.UNSPECIFIED.,.F.,.F.,(2,2),(0.00000000000000000E0,1.00000000000000000E0),.UNSPECIFIED.);
#269=DEFINITIONAL_REPRESENTATION('',(#268),#259);
#270=PCURVE('',#129,#269);
#271=CARTESIAN_POINT('',(1.00000000000000000E0,9.28571428571428492E-1));
#272=CARTESIAN_POINT('',(1.00000000000000000E0,1.00000000000000000E0));
#273=CARTESIAN_POINT('',(9.44444444444444420E-1,9.99999999999999889E-1));
#274=(BOUNDED_CURVE()B_SPLINE_CURVE(2,(#271,#272,#273),.UNSPECIFIED.,.F.,.F.)B_SPLINE_CURVE_WITH_KNOTS((3,3),(0.00000000000000000E0,1.00000000000000000E0),.UNSPECIFIED.)CURVE()GEOMETRIC_REPRESENTATION_ITEM()RATIONAL_B_SPLINE_CURVE((1.00000000000000000E0,7.07106781186547573E-1,1.00000000000000000E0))REPRESENTATION_ITEM(''));
#275=DEFINITIONAL_REPRESENTATION('',(#274),#259);
#276=PCURVE('',#129,#275);
#277=CARTESIAN_POINT('',(9.44444444444444420E-1,9.99999999999999889E-1));
#278=CARTESIAN_POINT('',(5.55555555555555802E-2,9.99999999999999889E-1));
#279=B_SPLINE_CURVE_WITH_KNOTS('',1,(#277,#278),.UNSPECIFIED.,.F.,.F.,(2,2),(0.00000000000000000E0,1.00000000000000000E0),.UNSPECIFIED.);
#280=DEFINITIONAL_REPRESENTATION('',(#279),#259);
#281=PCURVE('',#129,#280);
#282=CARTESIAN_POINT('',(5.55555555555555802E-2,9.99999999999999889E-1));
#283=CARTESIAN_POINT('',(0.00000000000000000E0,1.00000000000000000E0));
#284=CARTESIAN_POINT('',(0.00000000000000000E0,9.28571428571428492E-1));
#285=(BOUNDED_CURVE()B_SPLINE_CURVE(2,(#282,#283,#284),.UNSPECIFIED.,.F.,.F.)B_SPLINE_CURVE_WITH_KNOTS((3,3),(0.00000000000000000E0,1.00000000000000000E0),.UNSPECIFIED.)CURVE()GEOMETRIC_REPRESENTATION_ITEM()RATIONAL_B_SPLINE_CURVE((1.00000000000000000E0,7.07106781186547573E-1,1.00000000000000000E0))REPRESENTATION_ITEM(''));
#286=DEFINITIONAL_REPRESENTATION('',(#285),#259);
#287=PCURVE('',#129,#286);
#288=CARTESIAN_POINT('',(0.00000000000000000E0,9.28571428571428492E-1));
#289=CARTESIAN_POINT('',(0.00000000000000000E0,7.14285714285714246E-2));
#290=B_SPLINE_CURVE_WITH_KNOTS('',1,(#288,#289),.UNSPECIFIED.,.F.,.F.,(2,2),(0.00000000000000000E0,1.00000000000000000E0),.UNSPECIFIED.);
#291=DEFINITIONAL_REPRESENTATION('',(#290),#259);
#292=PCURVE('',#129,#291);
#293=CARTESIAN_POINT('',(0.00000000000000000E0,7.14285714285714246E-2));
#294=CARTESIAN_POINT('',(0.00000000000000000E0,0.00000000000000000E0));
#295=CARTESIAN_POINT('',(5.55555555555555802E-2,0.00000000000000000E0));
#296=(BOUNDED_CURVE()B_SPLINE_CURVE(2,(#293,#294,#295),.UNSPECIFIED.,.F.,.F.)B_SPLINE_CURVE_WITH_KNOTS((3,3),(0.00000000000000000E0,1.00000000000000000E0),.UNSPECIFIED.)CURVE()GEOMETRIC_REPRESENTATION_ITEM()RATIONAL_B_SPLINE_CURVE((1.00000000000000000E0,7.07106781186547573E-1,1.00000000000000000E0))REPRESENTATION_ITEM(''));
#297=DEFINITIONAL_REPRESENTATION('',(#296),#259);
#298=PCURVE('',#129,#297);
#299=CARTESIAN_POINT('',(5.55555555555555802E-2,0.00000000000000000E0));
#300=CARTESIAN_POINT('',(9.44444444444444420E-1,0.00000000000000000E0));
#301=B_SPLINE_CURVE_WITH_KNOTS('',1,(#299,#300),.UNSPECIFIED.,.F.,.F.,(2,2),(0.00000000000000000E0,1.00000000000000000E0),.UNSPECIFIED.);
#302=DEFINITIONAL_REPRESENTATION('',(#301),#259);
#303=PCURVE('',#129,#302);
#304=CARTESIAN_POINT('',(5.55555555555555525E-2,0.00000000000000000E0));
#305=CARTESIAN_POINT('',(9.44444444444444420E-1,0.00000000000000000E0));
#306=B_SPLINE_CURVE_WITH_KNOTS('',1,(#304,#305),.UNSPECIFIED.,.F.,.F.,(2,2),(0.00000000000000000E0,1.00000000000000000E0),.UNSPECIFIED.);
#307=DEFINITIONAL_REPRESENTATION('',(#306),#259);
#308=PCURVE('',#134,#307);
#309=CARTESIAN_POINT('',(9.44444444444444420E-1,0.00000000000000000E0));
#310=CARTESIAN_POINT('',(1.00000000000000000E0,0.00000000000000000E0));
#311=CARTESIAN_POINT('',(1.00000000000000000E0,7.14285714285714246E-2));
#312=(BOUNDED_CURVE()B_SPLINE_CURVE(2,(#309,#310,#311),.UNSPECIFIED.,.F.,.F.)B_SPLINE_CURVE_WITH_KNOTS((3,3),(0.00000000000000000E0,1.00000000000000000E0),.UNSPECIFIED.)CURVE()GEOMETRIC_REPRESENTATION_ITEM()RATIONAL_B_SPLINE_CURVE((1.00000000000000000E0,7.07106781186547573E-1,1.00000000000000000E0))REPRESENTATION_ITEM(''));
#313=DEFINITIONAL_REPRESENTATION('',(#312),#259);
#314=PCURVE('',#134,#313);
#315=CARTESIAN_POINT('',(1.00000000000000000E0,7.14285714285714246E-2));
#316=CARTESIAN_POINT('',(1.00000000000000000E0,9.28571428571428492E-1));
#317=B_SPLINE_CURVE_WITH_KNOTS('',1,(#315,#316),.UNSPECIFIED.,.F.,.F.,(2,2),(0.00000000000000000E0,1.00000000000000000E0),.UNSPECIFIED.);
#318=DEFINITIONAL_REPRESENTATION('',(#317),#259);
#319=PCURVE('',#134,#318);
#320=CARTESIAN_POINT('',(1.00000000000000000E0,9.28571428571428492E-1));
#321=CARTESIAN_POINT('',(1.00000000000000000E0,1.00000000000000000E0));
#322=CARTESIAN_POINT('',(9.44444444444444420E-1,9.99999999999999889E-1));
#323=(BOUNDED_CURVE()B_SPLINE_CURVE(2,(#320,#321,#322),.UNSPECIFIED.,.F.,.F.)B_SPLINE_CURVE_WITH_KNOTS((3,3),(0.00000000000000000E0,1.00000000000000000E0),.UNSPECIFIED.)CURVE()GEOMETRIC_REPRESENTATION_ITEM()RATIONAL_B_SPLINE_CURVE((1.00000000000000000E0,7.07106781186547573E-1,1.00000000000000000E0))REPRESENTATION_ITEM(''));
#324=DEFINITIONAL_REPRESENTATION('',(#323),#259);
#325=PCURVE('',#134,#324);
#326=CARTESIAN_POINT('',(9.44444444444444420E-1,9.99999999999999889E-1));
#327=CARTESIAN_POINT('',(5.55555555555555525E-2,9.99999999999999889E-1));
#328=B_SPLINE_CURVE_WITH_KNOTS('',1,(#326,#327),.UNSPECIFIED.,.F.,.F.,(2,2),(0.00000000000000000E0,1.00000000000000000E0),.UNSPECIFIED.);
#329=DEFINITIONAL_REPRESENTATION('',(#328),#259);
#330=PCURVE('',#134,#329);
#331=CARTESIAN_POINT('',(5.55555555555555525E-2,9.99999999999999889E-1));
#332=CARTESIAN_POINT('',(0.00000000000000000E0,1.00000000000000000E0));
#333=CARTESIAN_POINT('',(0.00000000000000000E0,9.28571428571428492E-1));
#334=(BOUNDED_CURVE()B_SPLINE_CURVE(2,(#331,#332,#333),.UNSPECIFIED.,.F.,.F.)B_SPLINE_CURVE_WITH_KNOTS((3,3),(0.00000000000000000E0,1.00000000000000000E0),.UNSPECIFIED.)CURVE()GEOMETRIC_REPRESENTATION_ITEM()RATIONAL_B_SPLINE_CURVE((1.00000000000000000E0,7.07106781186547573E-1,1.00000000000000000E0))REPRESENTATION_ITEM(''));
#335=DEFINITIONAL_REPRESENTATION('',(#334),#259);
#336=PCURVE('',#134,#335);
#337=CARTESIAN_POINT('',(0.00000000000000000E0,9.28571428571428492E-1));
#338=CARTESIAN_POINT('',(0.00000000000000000E0,7.14285714285714246E-2));
#339=B_SPLINE_CURVE_WITH_KNOTS('',1,(#337,#338),.UNSPECIFIED.,.F.,.F.,(2,2),(0.00000000000000000E0,1.00000000000000000E0),.UNSPECIFIED.);
#340=DEFINITIONAL_REPRESENTATION('',(#339),#259);
#341=PCURVE('',#134,#340);
#342=CARTESIAN_POINT('',(0.00000000000000000E0,7.14285714285714246E-2));
#343=CARTESIAN_POINT('',(0.00000000000000000E0,0.00000000000000000E0));
#344=CARTESIAN_POINT('',(5.55555555555555525E-2,0.00000000000000000E0));
#345=(BOUNDED_CURVE()B_SPLINE_CURVE(2,(#342,#343,#344),.UNSPECIFIED.,.F.,.F.)B_SPLINE_CURVE_WITH_KNOTS((3,3),(0.00000000000000000E0,1.00000000000000000E0),.UNSPECIFIED.)CURVE()GEOMETRIC_REPRESENTATION_ITEM()RATIONAL_B_SPLINE_CURVE((1.00000000000000000E0,7.07106781186547573E-1,1.00000000000000000E0))REPRESENTATION_ITEM(''));
#346=DEFINITIONAL_REPRESENTATION('',(#345),#259);
#347=PCURVE('',#134,#346);
#348=CARTESIAN_POINT('',(0.00000000000000000E0,0.00000000000000000E0));
#349=CARTESIAN_POINT('',(1.00000000000000000E0,0.00000000000000000E0));
#350=B_SPLINE_CURVE_WITH_KNOTS('',1,(#348,#349),.UNSPECIFIED.,.F.,.F.,(2,2),(0.00000000000000000E0,1.00000000000000000E0),.UNSPECIFIED.);
#351=DEFINITIONAL_REPRESENTATION('',(#350),#259);
#352=PCURVE('',#53,#351);
#353=CARTESIAN_POINT('',(1.00000000000000000E0,0.00000000000000000E0));
#354=CARTESIAN_POINT('',(1.00000000000000000E0,1.00000000000000000E0));
#355=B_SPLINE_CURVE_WITH_KNOTS('',1,(#353,#354),.UNSPECIFIED.,.F.,.F.,(2,2),(0.00000000000000000E0,1.00000000000000000E0),.UNSPECIFIED.);
#356=DEFINITIONAL_REPRESENTATION('',(#355),#259);
#357=PCURVE('',#53,#356);
#358=CARTESIAN_POINT('',(1.00000000000000000E0,1.00000000000000000E0));
#359=CARTESIAN_POINT('',(0.00000000000000000E0,1.00000000000000000E0));
#360=B_SPLINE_CURVE_WITH_KNOTS('',1,(#358,#359),.UNSPECIFIED.,.F.,.F.,(2,2),(0.00000000000000000E0,1.00000000000000000E0),.UNSPECIFIED.);
#361=DEFINITIONAL_REPRESENTATION('',(#360),#259);
#362=PCURVE('',#53,#361);
#363=CARTESIAN_POINT('',(0.00000000000000000E0,1.00000000000000000E0));
#364=CARTESIAN_POINT('',(0.00000000000000000E0,0.00000000000000000E0));
#365=B_SPLINE_CURVE_WITH_KNOTS('',1,(#363,#364),.UNSPECIFIED.,.F.,.F.,(2,2),(0.00000000000000000E0,1.00000000000000000E0),.UNSPECIFIED.);
#366=DEFINITIONAL_REPRESENTATION('',(#365),#259);
#367=PCURVE('',#53,#366);
#368=CARTESIAN_POINT('',(0.00000000000000000E0,0.00000000000000000E0));
#369=CARTESIAN_POINT('',(1.00000000000000000E0,0.00000000000000000E0));
#370=B_SPLINE_CURVE_WITH_KNOTS('',1,(#368,#369),.UNSPECIFIED.,.F.,.F.,(2,2),(0.00000000000000000E0,1.00000000000000000E0),.UNSPECIFIED.);
#371=DEFINITIONAL_REPRESENTATION('',(#370),#259);
#372=PCURVE('',#60,#371);
#373=CARTESIAN_POINT('',(1.00000000000000000E0,0.00000000000000000E0));
#374=CARTESIAN_POINT('',(1.00000000000000000E0,1.00000000000000000E0));
#375=B_SPLINE_CURVE_WITH_KNOTS('',1,(#373,#374),.UNSPECIFIED.,.F.,.F.,(2,2),(0.00000000000000000E0,1.00000000000000000E0),.UNSPECIFIED.);
#376=DEFINITIONAL_REPRESENTATION('',(#375),#259);
#377=PCURVE('',#60,#376);
#378=CARTESIAN_POINT('',(1.00000000000000000E0,1.00000000000000000E0));
#379=CARTESIAN_POINT('',(0.00000000000000000E0,1.00000000000000000E0));
#380=B_SPLINE_CURVE_WITH_KNOTS('',1,(#378,#379),.UNSPECIFIED.,.F.,.F.,(2,2),(0.00000000000000000E0,1.00000000000000000E0),.UNSPECIFIED.);
#381=DEFINITIONAL_REPRESENTATION('',(#380),#259);
#382=PCURVE('',#60,#381);
#383=CARTESIAN_POINT('',(0.00000000000000000E0,1.00000000000000000E0));
#384=CARTESIAN_POINT('',(0.00000000000000000E0,0.00000000000000000E0));
#385=B_SPLINE_CURVE_WITH_KNOTS('',1,(#383,#384),.UNSPECIFIED.,.F.,.F.,(2,2),(0.00000000000000000E0,1.00000000000000000E0),.UNSPECIFIED.);
#386=DEFINITIONAL_REPRESENTATION('',(#385),#259);
#387=PCURVE('',#60,#386);
#388=CARTESIAN_POINT('',(0.00000000000000000E0,0.00000000000000000E0));
#389=CARTESIAN_POINT('',(1.00000000000000000E0,0.00000000000000000E0));
#390=B_SPLINE_CURVE_WITH_KNOTS('',1,(#388,#389),.UNSPECIFIED.,.F.,.F.,(2,2),(0.00000000000000000E0,1.00000000000000000E0),.UNSPECIFIED.);
#391=DEFINITIONAL_REPRESENTATION('',(#390),#259);
#392=PCURVE('',#65,#391);
#393=CARTESIAN_POINT('',(1.00000000000000000E0,0.00000000000000000E0));
#394=CARTESIAN_POINT('',(1.00000000000000000E0,1.00000000000000000E0));
#395=B_SPLINE_CURVE_WITH_KNOTS('',1,(#393,#394),.UNSPECIFIED.,.F.,.F.,(2,2),(0.00000000000000000E0,1.00000000000000000E0),.UNSPECIFIED.);
#396=DEFINITIONAL_REPRESENTATION('',(#395),#259);
#397=PCURVE('',#65,#396);
#398=CARTESIAN_POINT('',(1.00000000000000000E0,1.00000000000000000E0));
#399=CARTESIAN_POINT('',(0.00000000000000000E0,1.00000000000000000E0));
#400=B_SPLINE_CURVE_WITH_KNOTS('',1,(#398,#399),.UNSPECIFIED.,.F.,.F.,(2,2),(0.00000000000000000E0,1.00000000000000000E0),.UNSPECIFIED.);
#401=DEFINITIONAL_REPRESENTATION('',(#400),#259);
#402=PCURVE('',#65,#401);
#403=CARTESIAN_POINT('',(0.00000000000000000E0,1.00000000000000000E0));
#404=CARTESIAN_POINT('',(0.00000000000000000E0,0.00000000000000000E0));
#405=B_SPLINE_CURVE_WITH_KNOTS('',1,(#403,#404),.UNSPECIFIED.,.F.,.F.,(2,2),(0.00000000000000000E0,1.00000000000000000E0),.UNSPECIFIED.);
#406=DEFINITIONAL_REPRESENTATION('',(#405),#259);
#407=PCURVE('',#65,#406);
#408=CARTESIAN_POINT('',(0.00000000000000000E0,0.00000000000000000E0));
#409=CARTESIAN_POINT('',(1.00000000000000000E0,0.00000000000000000E0));
#410=B_SPLINE_CURVE_WITH_KNOTS('',1,(#408,#409),.UNSPECIFIED.,.F.,.F.,(2,2),(0.00000000000000000E0,1.00000000000000000E0),.UNSPECIFIED.);
#411=DEFINITIONAL_REPRESENTATION('',(#410),#259);
#412=PCURVE('',#72,#411);
#413=CARTESIAN_POINT('',(1.00000000000000000E0,0.00000000000000000E0));
#414=CARTESIAN_POINT('',(1.00000000000000000E0,1.00000000000000000E0));
#415=B_SPLINE_CURVE_WITH_KNOTS('',1,(#413,#414),.UNSPECIFIED.,.F.,.F.,(2,2),(0.00000000000000000E0,1.00000000000000000E0),.UNSPECIFIED.);
#416=DEFINITIONAL_REPRESENTATION('',(#415),#259);
#417=PCURVE('',#72,#416);
#418=CARTESIAN_POINT('',(1.00000000000000000E0,1.00000000000000000E0));
#419=CARTESIAN_POINT('',(0.00000000000000000E0,1.00000000000000000E0));
#420=B_SPLINE_CURVE_WITH_KNOTS('',1,(#418,#419),.UNSPECIFIED.,.F.,.F.,(2,2),(0.00000000000000000E0,1.00000000000000000E0),.UNSPECIFIED.);
#421=DEFINITIONAL_REPRESENTATION('',(#420),#259);
#422=PCURVE('',#72,#421);
#423=CARTESIAN_POINT('',(0.00000000000000000E0,1.00000000000000000E0));
#424=CARTESIAN_POINT('',(0.00000000000000000E0,0.00000000000000000E0));
#425=B_SPLINE_CURVE_WITH_KNOTS('',1,(#423,#424),.UNSPECIFIED.,.F.,.F.,(2,2),(0.00000000000000000E0,1.00000000000000000E0),.UNSPECIFIED.);
#426=DEFINITIONAL_REPRESENTATION('',(#425),#259);
#427=PCURVE('',#72,#426);
#428=CARTESIAN_POINT('',(0.00000000000000000E0,0.00000000000000000E0));
#429=CARTESIAN_POINT('',(1.00000000000000000E0,0.00000000000000000E0));
#430=B_SPLINE_CURVE_WITH_KNOTS('',1,(#428,#429),.UNSPECIFIED.,.F.,.F.,(2,2),(0.00000000000000000E0,1.00000000000000000E0),.UNSPECIFIED.);
#431=DEFINITIONAL_REPRESENTATION('',(#430),#259);
#432=PCURVE('',#77,#431);
#433=CARTESIAN_POINT('',(1.00000000000000000E0,0.00000000000000000E0));
#434=CARTESIAN_POINT('',(1.00000000000000000E0,1.00000000000000000E0));
#435=B_SPLINE_CURVE_WITH_KNOTS('',1,(#433,#434),.UNSPECIFIED.,.F.,.F.,(2,2),(0.00000000000000000E0,1.00000000000000000E0),.UNSPECIFIED.);
#436=DEFINITIONAL_REPRESENTATION('',(#435),#259);
#437=PCURVE('',#77,#436);
#438=CARTESIAN_POINT('',(1.00000000000000000E0,1.00000000000000000E0));
#439=CARTESIAN_POINT('',(0.00000000000000000E0,1.00000000000000000E0));
#440=B_SPLINE_CURVE_WITH_KNOTS('',1,(#438,#439),.UNSPECIFIED.,.F.,.F.,(2,2),(0.00000000000000000E0,1.00000000000000000E0),.UNSPECIFIED.);
#441=DEFINITIONAL_REPRESENTATION('',(#440),#259);
#442=PCURVE('',#77,#441);
#443=CARTESIAN_POINT('',(0.00000000000000000E0,1.00000000000000000E0));
#444=CARTESIAN_POINT('',(0.00000000000000000E0,0.00000000000000000E0));
#445=B_SPLINE_CURVE_WITH_KNOTS('',1,(#443,#444),.UNSPECIFIED.,.F.,.F.,(2,2),(0.00000000000000000E0,1.00000000000000000E0),.UNSPECIFIED.);
#446=DEFINITIONAL_REPRESENTATION('',(#445),#259);
#447=PCURVE('',#77,#446);
#448=CARTESIAN_POINT('',(0.00000000000000000E0,0.00000000000000000E0));
#449=CARTESIAN_POINT('',(1.00000000000000000E0,0.00000000000000000E0));
#450=B_SPLINE_CURVE_WITH_KNOTS('',1,(#448,#449),.UNSPECIFIED.,.F.,.F.,(2,2),(0.00000000000000000E0,1.00000000000000000E0),.UNSPECIFIED.);
#451=DEFINITIONAL_REPRESENTATION('',(#450),#259);
#452=PCURVE('',#84,#451);
#453=CARTESIAN_POINT('',(1.00000000000000000E0,0.00000000000000000E0));
#454=CARTESIAN_POINT('',(1.00000000000000000E0,1.00000000000000000E0));
#455=B_SPLINE_CURVE_WITH_KNOTS('',1,(#453,#454),.UNSPECIFIED.,.F.,.F.,(2,2),(0.00000000000000000E0,1.00000000000000000E0),.UNSPECIFIED.);
#456=DEFINITIONAL_REPRESENTATION('',(#455),#259);
#457=PCURVE('',#84,#456);
#458=CARTESIAN_POINT('',(1.00000000000000000E0,1.00000000000000000E0));
#459=CARTESIAN_POINT('',(0.00000000000000000E0,1.00000000000000000E0));
#460=B_SPLINE_CURVE_WITH_KNOTS('',1,(#458,#459),.UNSPECIFIED.,.F.,.F.,(2,2),(0.00000000000000000E0,1.00000000000000000E0),.UNSPECIFIED.);
#461=DEFINITIONAL_REPRESENTATION('',(#460),#259);
#462=PCURVE('',#84,#461);
#463=CARTESIAN_POINT('',(0.00000000000000000E0,1.00000000000000000E0));
#464=CARTESIAN_POINT('',(0.00000000000000000E0,0.00000000000000000E0));
#465=B_SPLINE_CURVE_WITH_KNOTS('',1,(#463,#464),.UNSPECIFIED.,.F.,.F.,(2,2),(0.00000000000000000E0,1.00000000000000000E0),.UNSPECIFIED.);
#466=DEFINITIONAL_REPRESENTATION('',(#465),#259);
#467=PCURVE('',#84,#466);
#468=CARTESIAN_POINT('',(0.00000000000000000E0,0.00000000000000000E0));
#469=CARTESIAN_POINT('',(1.00000000000000000E0,0.00000000000000000E0));
#470=B_SPLINE_CURVE_WITH_KNOTS('',1,(#468,#469),.UNSPECIFIED.,.F.,.F.,(2,2),(0.00000000000000000E0,1.00000000000000000E0),.UNSPECIFIED.);
#471=DEFINITIONAL_REPRESENTATION('',(#470),#259);
#472=PCURVE('',#89,#471);
#473=CARTESIAN_POINT('',(1.00000000000000000E0,0.00000000000000000E0));
#474=CARTESIAN_POINT('',(1.00000000000000000E0,1.00000000000000000E0));
#475=B_SPLINE_CURVE_WITH_KNOTS('',1,(#473,#474),.UNSPECIFIED.,.F.,.F.,(2,2),(0.00000000000000000E0,1.00000000000000000E0),.UNSPECIFIED.);
#476=DEFINITIONAL_REPRESENTATION('',(#475),#259);
#477=PCURVE('',#89,#476);
#478=CARTESIAN_POINT('',(1.00000000000000000E0,1.00000000000000000E0));
#479=CARTESIAN_POINT('',(0.00000000000000000E0,1.00000000000000000E0));
#480=B_SPLINE_CURVE_WITH_KNOTS('',1,(#478,#479),.UNSPECIFIED.,.F.,.F.,(2,2),(0.00000000000000000E0,1.00000000000000000E0),.UNSPECIFIED.);
#481=DEFINITIONAL_REPRESENTATION('',(#480),#259);
#482=PCURVE('',#89,#481);
#483=CARTESIAN_POINT('',(0.00000000000000000E0,1.00000000000000000E0));
#484=CARTESIAN_POINT('',(0.00000000000000000E0,0.00000000000000000E0));
#485=B_SPLINE_CURVE_WITH_KNOTS('',1,(#483,#484),.UNSPECIFIED.,.F.,.F.,(2,2),(0.00000000000000000E0,1.00000000000000000E0),.UNSPECIFIED.);
#486=DEFINITIONAL_REPRESENTATION('',(#485),#259);
#487=PCURVE('',#89,#486);
#488=CARTESIAN_POINT('',(0.00000000000000000E0,0.00000000000000000E0));
#489=CARTESIAN_POINT('',(1.00000000000000000E0,0.00000000000000000E0));
#490=B_SPLINE_CURVE_WITH_KNOTS('',1,(#488,#489),.UNSPECIFIED.,.F.,.F.,(2,2),(0.00000000000000000E0,1.00000000000000000E0),.UNSPECIFIED.);
#491=DEFINITIONAL_REPRESENTATION('',(#490),#259);
#492=PCURVE('',#96,#491);
#493=CARTESIAN_POINT('',(1.00000000000000000E0,0.00000000000000000E0));
#494=CARTESIAN_POINT('',(1.00000000000000000E0,1.00000000000000000E0));
#495=B_SPLINE_CURVE_WITH_KNOTS('',1,(#493,#494),.UNSPECIFIED.,.F.,.F.,(2,2),(0.00000000000000000E0,1.00000000000000000E0),.UNSPECIFIED.);
#496=DEFINITIONAL_REPRESENTATION('',(#495),#259);
#497=PCURVE('',#96,#496);
#498=CARTESIAN_POINT('',(1.00000000000000000E0,1.00000000000000000E0));
#499=CARTESIAN_POINT('',(0.00000000000000000E0,1.00000000000000000E0));
#500=B_SPLINE_CURVE_WITH_KNOTS('',1,(#498,#499),.UNSPECIFIED.,.F.,.F.,(2,2),(0.00000000000000000E0,1.00000000000000000E0),.UNSPECIFIED.);
#501=DEFINITIONAL_REPRESENTATION('',(#500),#259);
#502=PCURVE('',#96,#501);
#503=CARTESIAN_POINT('',(0.00000000000000000E0,1.00000000000000000E0));
#504=CARTESIAN_POINT('',(0.00000000000000000E0,0.00000000000000000E0));
#505=B_SPLINE_CURVE_WITH_KNOTS('',1,(#503,#504),.UNSPECIFIED.,.F.,.F.,(2,2),(0.00000000000000000E0,1.00000000000000000E0),.UNSPECIFIED.);
#506=DEFINITIONAL_REPRESENTATION('',(#505),#259);
#507=PCURVE('',#96,#506);
#508=CARTESIAN_POINT('',(5.00000000000000000E-1,5.71428571428571397E-1));
#509=CARTESIAN_POINT('',(5.55555555555555580E-1,5.71428571428571286E-1));
#510=CARTESIAN_POINT('',(5.55555555555555580E-1,4.99999999999999944E-1));
#511=(BOUNDED_CURVE()B_SPLINE_CURVE(2,(#508,#509,#510),.UNSPECIFIED.,.F.,.F.)B_SPLINE_CURVE_WITH_KNOTS((3,3),(0.00000000000000000E0,1.00000000000000000E0),.UNSPECIFIED.)CURVE()GEOMETRIC_REPRESENTATION_ITEM()RATIONAL_B_SPLINE_CURVE((1.00000000000000000E0,7.07106781186547573E-1,1.00000000000000000E0))REPRESENTATION_ITEM(''));
#512=DEFINITIONAL_REPRESENTATION('',(#511),#259);
#513=PCURVE('',#129,#512);
#514=CARTESIAN_POINT('',(5.55555555555555580E-1,4.99999999999999944E-1));
#515=CARTESIAN_POINT('',(5.55555555555555580E-1,4.28571428571428492E-1));
#516=CARTESIAN_POINT('',(5.00000000000000000E-1,4.28571428571428492E-1));
#517=(BOUNDED_CURVE()B_SPLINE_CURVE(2,(#514,#515,#516),.UNSPECIFIED.,.F.,.F.)B_SPLINE_CURVE_WITH_KNOTS((3,3),(0.00000000000000000E0,1.00000000000000000E0),.UNSPECIFIED.)CURVE()GEOMETRIC_REPRESENTATION_ITEM()RATIONAL_B_SPLINE_CURVE((1.00000000000000000E0,7.07106781186547573E-1,1.00000000000000000E0))REPRESENTATION_ITEM(''));
#518=DEFINITIONAL_REPRESENTATION('',(#517),#259);
#519=PCURVE('',#129,#518);
#520=CARTESIAN_POINT('',(5.00000000000000000E-1,4.28571428571428492E-1));
#521=CARTESIAN_POINT('',(4.44444444444444420E-1,4.28571428571428492E-1));
#522=CARTESIAN_POINT('',(4.44444444444444420E-1,4.99999999999999944E-1));
#523=(BOUNDED_CURVE()B_SPLINE_CURVE(2,(#520,#521,#522),.UNSPECIFIED.,.F.,.F.)B_SPLINE_CURVE_WITH_KNOTS((3,3),(0.00000000000000000E0,1.00000000000000000E0),.UNSPECIFIED.)CURVE()GEOMETRIC_REPRESENTATION_ITEM()RATIONAL_B_SPLINE_CURVE((1.00000000000000000E0,7.07106781186547573E-1,1.00000000000000000E0))REPRESENTATION_ITEM(''));
#524=DEFINITIONAL_REPRESENTATION('',(#523),#259);
#525=PCURVE('',#129,#524);
#526=CARTESIAN_POINT('',(4.44444444444444420E-1,4.99999999999999944E-1));
#527=CARTESIAN_POINT('',(4.44444444444444420E-1,5.71428571428571286E-1));
#528=CARTESIAN_POINT('',(5.00000000000000000E-1,5.71428571428571397E-1));
#529=(BOUNDED_CURVE()B_SPLINE_CURVE(2,(#526,#527,#528),.UNSPECIFIED.,.F.,.F.)B_SPLINE_CURVE_WITH_KNOTS((3,3),(0.00000000000000000E0,1.00000000000000000E0),.UNSPECIFIED.)CURVE()GEOMETRIC_REPRESENTATION_ITEM()RATIONAL_B_SPLINE_CURVE((1.00000000000000000E0,7.07106781186547573E-1,1.00000000000000000E0))REPRESENTATION_ITEM(''));
#530=DEFINITIONAL_REPRESENTATION('',(#529),#259);
#531=PCURVE('',#129,#530);
#532=CARTESIAN_POINT('',(5.00000000000000000E-1,5.71428571428571397E-1));
#533=CARTESIAN_POINT('',(5.55555555555555580E-1,5.71428571428571286E-1));
#534=CARTESIAN_POINT('',(5.55555555555555580E-1,4.99999999999999944E-1));
#535=(BOUNDED_CURVE()B_SPLINE_CURVE(2,(#532,#533,#534),.UNSPECIFIED.,.F.,.F.)B_SPLINE_CURVE_WITH_KNOTS((3,3),(0.00000000000000000E0,1.00000000000000000E0),.UNSPECIFIED.)CURVE()GEOMETRIC_REPRESENTATION_ITEM()RATIONAL_B_SPLINE_CURVE((1.00000000000000000E0,7.07106781186547573E-1,1.00000000000000000E0))REPRESENTATION_ITEM(''));
#536=DEFINITIONAL_REPRESENTATION('',(#535),#259);
#537=PCURVE('',#134,#536);
#538=CARTESIAN_POINT('',(5.55555555555555580E-1,4.99999999999999944E-1));
#539=CARTESIAN_POINT('',(5.55555555555555580E-1,4.28571428571428492E-1));
#540=CARTESIAN_POINT('',(5.00000000000000000E-1,4.28571428571428492E-1));
#541=(BOUNDED_CURVE()B_SPLINE_CURVE(2,(#538,#539,#540),.UNSPECIFIED.,.F.,.F.)B_SPLINE_CURVE_WITH_KNOTS((3,3),(0.00000000000000000E0,1.00000000000000000E0),.UNSPECIFIED.)CURVE()GEOMETRIC_REPRESENTATION_ITEM()RATIONAL_B_SPLINE_CURVE((1.00000000000000000E0,7.07106781186547573E-1,1.00000000000000000E0))REPRESENTATION_ITEM(''));
#542=DEFINITIONAL_REPRESENTATION('',(#541),#259);
#543=PCURVE('',#134,#542);
#544=CARTESIAN_POINT('',(5.00000000000000000E-1,4.28571428571428492E-1));
#545=CARTESIAN_POINT('',(4.44444444444444420E-1,4.28571428571428492E-1));
#546=CARTESIAN_POINT('',(4.44444444444444420E-1,4.99999999999999944E-1));
#547=(BOUNDED_CURVE()B_SPLINE_CURVE(2,(#544,#545,#546),.UNSPECIFIED.,.F.,.F.)B_SPLINE_CURVE_WITH_KNOTS((3,3),(0.00000000000000000E0,1.00000000000000000E0),.UNSPECIFIED.)CURVE()GEOMETRIC_REPRESENTATION_ITEM()RATIONAL_B_SPLINE_CURVE((1.00000000000000000E0,7.07106781186547573E-1,1.00000000000000000E0))REPRESENTATION_ITEM(''));
#548=DEFINITIONAL_REPRESENTATION('',(#547),#259);
#549=PCURVE('',#134,#548);
#550=CARTESIAN_POINT('',(4.44444444444444420E-1,4.99999999999999944E-1));
#551=CARTESIAN_POINT('',(4.44444444444444420E-1,5.71428571428571286E-1));
#552=CARTESIAN_POINT('',(5.00000000000000000E-1,5.71428571428571397E-1));
#553=(BOUNDED_CURVE()B_SPLINE_CURVE(2,(#550,#551,#552),.UNSPECIFIED.,.F.,.F.)B_SPLINE_CURVE_WITH_KNOTS((3,3),(0.00000000000000000E0,1.00000000000000000E0),.UNSPECIFIED.)CURVE()GEOMETRIC_REPRESENTATION_ITEM()RATIONAL_B_SPLINE_CURVE((1.00000000000000000E0,7.07106781186547573E-1,1.00000000000000000E0))REPRESENTATION_ITEM(''));
#554=DEFINITIONAL_REPRESENTATION('',(#553),#259);
#555=PCURVE('',#134,#554);
#556=CARTESIAN_POINT('',(0.00000000000000000E0,0.00000000000000000E0));
#557=CARTESIAN_POINT('',(1.00000000000000000E0,0.00000000000000000E0));
#558=B_SPLINE_CURVE_WITH_KNOTS('',1,(#556,#557),.UNSPECIFIED.,.F.,.F.,(2,2),(0.00000000000000000E0,1.00000000000000000E0),.UNSPECIFIED.);
#559=DEFINITIONAL_REPRESENTATION('',(#558),#259);
#560=PCURVE('',#103,#559);
#561=CARTESIAN_POINT('',(1.00000000000000000E0,0.00000000000000000E0));
#562=CARTESIAN_POINT('',(1.00000000000000000E0,1.00000000000000000E0));
#563=B_SPLINE_CURVE_WITH_KNOTS('',1,(#561,#562),.UNSPECIFIED.,.F.,.F.,(2,2),(0.00000000000000000E0,1.00000000000000000E0),.UNSPECIFIED.);
#564=DEFINITIONAL_REPRESENTATION('',(#563),#259);
#565=PCURVE('',#103,#564);
#566=CARTESIAN_POINT('',(1.00000000000000000E0,1.00000000000000000E0));
#567=CARTESIAN_POINT('',(0.00000000000000000E0,1.00000000000000000E0));
#568=B_SPLINE_CURVE_WITH_KNOTS('',1,(#566,#567),.UNSPECIFIED.,.F.,.F.,(2,2),(0.00000000000000000E0,1.00000000000000000E0),.UNSPECIFIED.);
#569=DEFINITIONAL_REPRESENTATION('',(#568),#259);
#570=PCURVE('',#103,#569);
#571=CARTESIAN_POINT('',(0.00000000000000000E0,1.00000000000000000E0));
#572=CARTESIAN_POINT('',(0.00000000000000000E0,0.00000000000000000E0));
#573=B_SPLINE_CURVE_WITH_KNOTS('',1,(#571,#572),.UNSPECIFIED.,.F.,.F.,(2,2),(0.00000000000000000E0,1.00000000000000000E0),.UNSPECIFIED.);
#574=DEFINITIONAL_REPRESENTATION('',(#573),#259);
#575=PCURVE('',#103,#574);
#576=CARTESIAN_POINT('',(0.00000000000000000E0,0.00000000000000000E0));
#577=CARTESIAN_POINT('',(1.00000000000000000E0,0.00000000000000000E0));
#578=B_SPLINE_CURVE_WITH_KNOTS('',1,(#576,#577),.UNSPECIFIED.,.F.,.F.,(2,2),(0.00000000000000000E0,1.00000000000000000E0),.UNSPECIFIED.);
#579=DEFINITIONAL_REPRESENTATION('',(#578),#259);
#580=PCURVE('',#110,#579);
#581=CARTESIAN_POINT('',(1.00000000000000000E0,0.00000000000000000E0));
#582=CARTESIAN_POINT('',(1.00000000000000000E0,1.00000000000000000E0));
#583=B_SPLINE_CURVE_WITH_KNOTS('',1,(#581,#582),.UNSPECIFIED.,.F.,.F.,(2,2),(0.00000000000000000E0,1.00000000000000000E0),.UNSPECIFIED.);
#584=DEFINITIONAL_REPRESENTATION('',(#583),#259);
#585=PCURVE('',#110,#584);
#586=CARTESIAN_POINT('',(1.00000000000000000E0,1.00000000000000000E0));
#587=CARTESIAN_POINT('',(0.00000000000000000E0,1.00000000000000000E0));
#588=B_SPLINE_CURVE_WITH_KNOTS('',1,(#586,#587),.UNSPECIFIED.,.F.,.F.,(2,2),(0.00000000000000000E0,1.00000000000000000E0),.UNSPECIFIED.);
#589=DEFINITIONAL_REPRESENTATION('',(#588),#259);
#590=PCURVE('',#110,#589);
#591=CARTESIAN_POINT('',(0.00000000000000000E0,1.00000000000000000E0));
#592=CARTESIAN_POINT('',(0.00000000000000000E0,0.00000000000000000E0));
#593=B_SPLINE_CURVE_WITH_KNOTS('',1,(#591,#592),.UNSPECIFIED.,.F.,.F.,(2,2),(0.00000000000000000E0,1.00000000000000000E0),.UNSPECIFIED.);
#594=DEFINITIONAL_REPRESENTATION('',(#593),#259);
#595=PCURVE('',#110,#594);
#596=CARTESIAN_POINT('',(0.00000000000000000E0,0.00000000000000000E0));
#597=CARTESIAN_POINT('',(1.00000000000000000E0,0.00000000000000000E0));
#598=B_SPLINE_CURVE_WITH_KNOTS('',1,(#596,#597),.UNSPECIFIED.,.F.,.F.,(2,2),(0.00000000000000000E0,1.00000000000000000E0),.UNSPECIFIED.);
#599=DEFINITIONAL_REPRESENTATION('',(#598),#259);
#600=PCURVE('',#117,#599);
#601=CARTESIAN_POINT('',(1.00000000000000000E0,0.00000000000000000E0));
#602=CARTESIAN_POINT('',(1.00000000000000000E0,1.00000000000000000E0));
#603=B_SPLINE_CURVE_WITH_KNOTS('',1,(#601,#602),.UNSPECIFIED.,.F.,.F.,(2,2),(0.00000000000000000E0,1.00000000000000000E0),.UNSPECIFIED.);
#604=DEFINITIONAL_REPRESENTATION('',(#603),#259);
#605=PCURVE('',#117,#604);
#606=CARTESIAN_POINT('',(1.00000000000000000E0,1.00000000000000000E0));
#607=CARTESIAN_POINT('',(0.00000000000000000E0,1.00000000000000000E0));
#608=B_SPLINE_CURVE_WITH_KNOTS('',1,(#606,#607),.UNSPECIFIED.,.F.,.F.,(2,2),(0.00000000000000000E0,1.00000000000000000E0),.UNSPECIFIED.);
#609=DEFINITIONAL_REPRESENTATION('',(#608),#259);
#610=PCURVE('',#117,#609);
#611=CARTESIAN_POINT('',(0.00000000000000000E0,1.00000000000000000E0));
#612=CARTESIAN_POINT('',(0.00000000000000000E0,0.00000000000000000E0));
#613=B_SPLINE_CURVE_WITH_KNOTS('',1,(#611,#612),.UNSPECIFIED.,.F.,.F.,(2,2),(0.00000000000000000E0,1.00000000000000000E0),.UNSPECIFIED.);
#614=DEFINITIONAL_REPRESENTATION('',(#613),#259);
#615=PCURVE('',#117,#614);
#616=CARTESIAN_POINT('',(0.00000000000000000E0,0.00000000000000000E0));
#617=CARTESIAN_POINT('',(1.00000000000000000E0,0.00000000000000000E0));
#618=B_SPLINE_CURVE_WITH_KNOTS('',1,(#616,#617),.UNSPECIFIED.,.F.,.F.,(2,2),(0.00000000000000000E0,1.00000000000000000E0),.UNSPECIFIED.);
#619=DEFINITIONAL_REPRESENTATION('',(#618),#259);
#620=PCURVE('',#124,#619);
#621=CARTESIAN_POINT('',(1.00000000000000000E0,0.00000000000000000E0));
#622=CARTESIAN_POINT('',(1.00000000000000000E0,1.00000000000000000E0));
#623=B_SPLINE_CURVE_WITH_KNOTS('',1,(#621,#622),.UNSPECIFIED.,.F.,.F.,(2,2),(0.00000000000000000E0,1.00000000000000000E0),.UNSPECIFIED.);
#624=DEFINITIONAL_REPRESENTATION('',(#623),#259);
#625=PCURVE('',#124,#624);
#626=CARTESIAN_POINT('',(1.00000000000000000E0,1.00000000000000000E0));
#627=CARTESIAN_POINT('',(0.00000000000000000E0,1.00000000000000000E0));
#628=B_SPLINE_CURVE_WITH_KNOTS('',1,(#626,#627),.UNSPECIFIED.,.F.,.F.,(2,2),(0.00000000000000000E0,1.00000000000000000E0),.UNSPECIFIED.);
#629=DEFINITIONAL_REPRESENTATION('',(#628),#259);
#630=PCURVE('',#124,#629);
#631=CARTESIAN_POINT('',(0.00000000000000000E0,1.00000000000000000E0));
#632=CARTESIAN_POINT('',(0.00000000000000000E0,0.00000000000000000E0));
#633=B_SPLINE_CURVE_WITH_KNOTS('',1,(#631,#632),.UNSPECIFIED.,.F.,.F.,(2,2),(0.00000000000000000E0,1.00000000000000000E0),.UNSPECIFIED.);
#634=DEFINITIONAL_REPRESENTATION('',(#633),#259);
#635=PCURVE('',#124,#634);
#636=SURFACE_CURVE('',#137,(#303,#352),.PCURVE_S1.);
#637=EDGE_CURVE('OSCAD_TOPO/3|edge|e:990f4cbccf75207bc84f4413ef4e7a2c|1504c0d42f719b37217c31e0aa8807a1e1ef0e7e492e48e49fc765faed235916',#2,#6,#636,.T.);
#638=SURFACE_CURVE('',#140,(#308,#362),.PCURVE_S1.);
#639=EDGE_CURVE('OSCAD_TOPO/3|edge|e:76185be4c83a93c1967279352f23f4a0|18043e62fe0504533e201601b4771dc9b1662397ed3cf5a0546dd9b0e447b094',#4,#8,#638,.T.);
#640=SURFACE_CURVE('',#143,(#367,#497),.PCURVE_S1.);
#641=EDGE_CURVE('OSCAD_TOPO/3|edge|e:477525dead6bd10b382a3e27b5677766|a01561e812c068af731cb3e3f2fd6c49cb1c6c42605c3e5e1b14e69a14a6e3c9',#2,#4,#640,.T.);
#642=SURFACE_CURVE('',#147,(#298,#372),.PCURVE_S1.);
#643=EDGE_CURVE('OSCAD_TOPO/3|edge|e:6bbbab3771f1923ace6ad44abd188533|06b798944c61f83fd03f65ba7c64327f0232c06910036ea48b1a3fbbcbf96585',#6,#10,#642,.T.);
#644=SURFACE_CURVE('',#151,(#314,#382),.PCURVE_S1.);
#645=EDGE_CURVE('OSCAD_TOPO/3|edge|e:a24c3b000f1d4b6c6c36b4056f92be66|8dcbddcdd256f943a792bd0506d7aa0a852210beaea16b601ec8295ff55cad9b',#8,#12,#644,.T.);
#646=SURFACE_CURVE('',#154,(#357,#387),.PCURVE_S1.);
#647=EDGE_CURVE('OSCAD_TOPO/3|edge|e:814fd62fe3ec2a81e11607fd9f04f277|692e842222ae642ca7411c9b30991a6d8539d62bf3372b38788ef0fb8b77557c',#6,#8,#646,.T.);
#648=SURFACE_CURVE('',#157,(#292,#392),.PCURVE_S1.);
#649=EDGE_CURVE('OSCAD_TOPO/3|edge|e:53c0050115a40af0f4643de0528f4fc5|3c9d9198a8039216cfc798fb9f438fb9728cded1207e7a0efba42254d70b4f31',#10,#14,#648,.T.);
#650=SURFACE_CURVE('',#160,(#319,#402),.PCURVE_S1.);
#651=EDGE_CURVE('OSCAD_TOPO/3|edge|e:60e4f9ef3d66ab1e576c236ceeaa07b4|4557ef3681281a09534068682ec4c8371505de462d881c27b72e21b489ae1423',#12,#16,#650,.T.);
#652=SURFACE_CURVE('',#163,(#377,#407),.PCURVE_S1.);
#653=EDGE_CURVE('OSCAD_TOPO/3|edge|e:e61c719c62ddabf111468d69374b3777|edad4bb9eab494d990853bc5b4c80e98f61509dafd6b9b5b37eedbefd6b438f7',#10,#12,#652,.T.);
#654=SURFACE_CURVE('',#167,(#287,#412),.PCURVE_S1.);
#655=EDGE_CURVE('OSCAD_TOPO/3|edge|e:e8f8c1231fcf940a94129eabb6f6a1ee|4738b590885d71da755b16fda6c878de0508c55f19ea7353ba98ce5b3ade9cdc',#14,#18,#654,.T.);
#656=SURFACE_CURVE('',#171,(#325,#422),.PCURVE_S1.);
#657=EDGE_CURVE('OSCAD_TOPO/3|edge|e:06fe305cdfd764ce1c5b8dff49078985|8e4d9999025030e7b9ddd3e89ef1e8b096804deabc8b42fd0d50eddd3d10e610',#16,#20,#656,.T.);
#658=SURFACE_CURVE('',#174,(#397,#427),.PCURVE_S1.);
#659=EDGE_CURVE('OSCAD_TOPO/3|edge|e:dc0f7ca8c56db0ec3fcf463a40279b52|9fafa0488cc2f324aeb255c6e6523421db9b9ed94949a22dec14cd569fff0664',#14,#16,#658,.T.);
#660=SURFACE_CURVE('',#177,(#281,#432),.PCURVE_S1.);
#661=EDGE_CURVE('OSCAD_TOPO/3|edge|e:81f38090dc4d5e502ff36a1fb0ab77fa|128f9ead53e18956fcf4bca89e388eb1b714199f834265ca8bd1e6f33dfe6100',#18,#22,#660,.T.);
#662=SURFACE_CURVE('',#180,(#330,#442),.PCURVE_S1.);
#663=EDGE_CURVE('OSCAD_TOPO/3|edge|e:2eedce0bca457ad76ae695b210a47061|1d037f13c7445808cd3689e80ca658b0fb6026a7465a2ae10dbebbd8cb6dc248',#20,#24,#662,.T.);
#664=SURFACE_CURVE('',#183,(#417,#447),.PCURVE_S1.);
#665=EDGE_CURVE('OSCAD_TOPO/3|edge|e:5eedfbd7d16c656f7945239ac00edd53|083e205d24897173f855c4b7882fa52edfca87bea9950a1347c5a1121847516b',#18,#20,#664,.T.);
#666=SURFACE_CURVE('',#187,(#276,#452),.PCURVE_S1.);
#667=EDGE_CURVE('OSCAD_TOPO/3|edge|e:a88b951a1d27a1a96a9a97ab7362ee78|995f161791941c3e1c5d17350e14265879cc60bc269206d7d63808965ee906ee',#22,#26,#666,.T.);
#668=SURFACE_CURVE('',#191,(#336,#462),.PCURVE_S1.);
#669=EDGE_CURVE('OSCAD_TOPO/3|edge|e:7d093f9dcb5aa1d6148aa8688809457f|83402068726cab1a29839f295dc8bbb59f6954739b8a19947ba8308ea9c79b8b',#24,#28,#668,.T.);
#670=SURFACE_CURVE('',#194,(#437,#467),.PCURVE_S1.);
#671=EDGE_CURVE('OSCAD_TOPO/3|edge|e:e5ba9d232021afab0025007a3558ea34|3ed7219225be899d996c0db4f09881dce835ed8fd4c8bead6371bd7833f5b39f',#22,#24,#670,.T.);
#672=SURFACE_CURVE('',#197,(#270,#472),.PCURVE_S1.);
#673=EDGE_CURVE('OSCAD_TOPO/3|edge|e:a3cda8d01441efd702b320206c9b03b1|2d576b706251614e4d370783019fd12831de7c6e391ea3317027854f0f0487fd',#26,#30,#672,.T.);
#674=SURFACE_CURVE('',#200,(#341,#482),.PCURVE_S1.);
#675=EDGE_CURVE('OSCAD_TOPO/3|edge|e:f7909253150f6e1cf110ff16bf4ca067|58771b31eec6bbcae8ffbbc15b738b8b2c3961dad36f75cd7b410bb429d6f3fd',#28,#32,#674,.T.);
#676=SURFACE_CURVE('',#203,(#457,#487),.PCURVE_S1.);
#677=EDGE_CURVE('OSCAD_TOPO/3|edge|e:ca6e1b010357447bf117252d042b3fb2|92ed364828e49a93ade95751a37bab3e1f8635239f7224678da59341b239c983',#26,#28,#676,.T.);
#678=SURFACE_CURVE('',#207,(#265,#492),.PCURVE_S1.);
#679=EDGE_CURVE('OSCAD_TOPO/3|edge|e:061829fddb95204f19be10f9dc84d9dc|3caf11797d6ebe577335a3dfe4ba69b561cf714554ef9cc337becf6c1c1f20f2',#30,#2,#678,.T.);
#680=SURFACE_CURVE('',#211,(#347,#502),.PCURVE_S1.);
#681=EDGE_CURVE('OSCAD_TOPO/3|edge|e:ceefb8cca27edd4ab62921c44fac85d0|541e2b24bad3861833b487510acdb30af8d6b9b9fbda37d6bf51ecf503f19832',#32,#4,#680,.T.);
#682=SURFACE_CURVE('',#214,(#477,#507),.PCURVE_S1.);
#683=EDGE_CURVE('OSCAD_TOPO/3|edge|e:4ee5964f173c1be0e48cfcc5e321d59a|c383d14cdf3c787171b51fe5497e2b06e292350e9868bca84cac094c554fdf81',#30,#32,#682,.T.);
#684=SURFACE_CURVE('',#218,(#531,#560),.PCURVE_S1.);
#685=EDGE_CURVE('OSCAD_TOPO/3|edge|e:6a411c3ac27de032a289192675aca1cb|961b7509dbf652f7327565b127043e1f7be26d58f976d65db5bc247b4cf7a6d0',#34,#38,#684,.T.);
#686=SURFACE_CURVE('',#222,(#537,#570),.PCURVE_S1.);
#687=EDGE_CURVE('OSCAD_TOPO/3|edge|e:67200b49a74f8de71c69016f6172a891|4443a49129c5452a9df9da3a26d08f185e556cfebaae307ce016f8f43482481c',#36,#40,#686,.T.);
#688=SURFACE_CURVE('',#225,(#575,#625),.PCURVE_S1.);
#689=EDGE_CURVE('OSCAD_TOPO/3|edge|e:18b71fd93d74163162b8d86e2272ed73|0b47d5e7e961f60bb88f021e2557ad63a661a43656f4cc960e335bf2145f356f',#34,#36,#688,.T.);
#690=SURFACE_CURVE('',#229,(#525,#580),.PCURVE_S1.);
#691=EDGE_CURVE('OSCAD_TOPO/3|edge|e:9e18e39869290056c9293d0302027bb6|f20e4ed9610aaf4b343c18ced15cb7e4d50ebb577717844fa3d605f83baf6130',#38,#42,#690,.T.);
#692=SURFACE_CURVE('',#233,(#543,#590),.PCURVE_S1.);
#693=EDGE_CURVE('OSCAD_TOPO/3|edge|e:06d915c704741d94fe36c842b1cc473b|785e602e863e0530754f511686cb9a7a6589b5eb61cb4f8004000dad450de80a',#40,#44,#692,.T.);
#694=SURFACE_CURVE('',#236,(#565,#595),.PCURVE_S1.);
#695=EDGE_CURVE('OSCAD_TOPO/3|edge|e:73f186c1fca3acec5a3253032bfce3d8|74a668082156a2710f58e67c8f969bfa2b41e76a078d8313cad6969a1be84ca0',#38,#40,#694,.T.);
#696=SURFACE_CURVE('',#240,(#519,#600),.PCURVE_S1.);
#697=EDGE_CURVE('OSCAD_TOPO/3|edge|e:8d47cd5bbc9967b6af36e06c41df9315|86777f2d527e1a6bd03edd9689a57288900ac923a2c9268185831658c1078241',#42,#46,#696,.T.);
#698=SURFACE_CURVE('',#244,(#549,#610),.PCURVE_S1.);
#699=EDGE_CURVE('OSCAD_TOPO/3|edge|e:87ce804a260495fa5dbf8865fd988b3c|de8f2d7c88245b6cd147dbb6a14aeb7b15867fe5bcff8b286948be14b7bfde8c',#44,#48,#698,.T.);
#700=SURFACE_CURVE('',#247,(#585,#615),.PCURVE_S1.);
#701=EDGE_CURVE('OSCAD_TOPO/3|edge|e:f460b1e7088e59ff5c4463953a124b27|ed28f5be88181d70caf3d8a22da931ef0e6a3bfbe3423154314e490c5d3da02e',#42,#44,#700,.T.);
#702=SURFACE_CURVE('',#251,(#513,#620),.PCURVE_S1.);
#703=EDGE_CURVE('OSCAD_TOPO/3|edge|e:79b8a2542ee63f8b39c748b3e28916eb|f379d44056e465495e30c1c31fe15b7346331345db8d3651fffce6252c203e53',#46,#34,#702,.T.);
#704=SURFACE_CURVE('',#255,(#555,#630),.PCURVE_S1.);
#705=EDGE_CURVE('OSCAD_TOPO/3|edge|e:6cbadd3f38ecd3a744212d578ff1a00e|f4150fd7fee8211f006590bad8d28f4179904e8a57685ab2a37463ce1a31a158',#48,#36,#704,.T.);
#706=SURFACE_CURVE('',#258,(#605,#635),.PCURVE_S1.);
#707=EDGE_CURVE('OSCAD_TOPO/3|edge|e:97c306b3cce2a1eb33dfe6f79a796226|ccdcb17e5c34f47f74f426143c5a9e54c19a86b13c20b02cf8f8dc662e368729',#46,#48,#706,.T.);
#708=ORIENTED_EDGE('',*,*,#679,.F.);
#709=ORIENTED_EDGE('',*,*,#673,.F.);
#710=ORIENTED_EDGE('',*,*,#667,.F.);
#711=ORIENTED_EDGE('',*,*,#661,.F.);
#712=ORIENTED_EDGE('',*,*,#655,.F.);
#713=ORIENTED_EDGE('',*,*,#649,.F.);
#714=ORIENTED_EDGE('',*,*,#643,.F.);
#715=ORIENTED_EDGE('',*,*,#637,.F.);
#716=EDGE_LOOP('OSCAD_TOPO/3|loop|l:d7995e61539d412723af8cdc4ca2d311|1241e0fe3ca1a8b15d5fb4c793e80e14f3b0acf9afdeab6a2a645796c3ca2e20',(#708,#709,#710,#711,#712,#713,#714,#715));
#717=ORIENTED_EDGE('',*,*,#639,.T.);
#718=ORIENTED_EDGE('',*,*,#645,.T.);
#719=ORIENTED_EDGE('',*,*,#651,.T.);
#720=ORIENTED_EDGE('',*,*,#657,.T.);
#721=ORIENTED_EDGE('',*,*,#663,.T.);
#722=ORIENTED_EDGE('',*,*,#669,.T.);
#723=ORIENTED_EDGE('',*,*,#675,.T.);
#724=ORIENTED_EDGE('',*,*,#681,.T.);
#725=EDGE_LOOP('OSCAD_TOPO/3|loop|l:6ee35cd3437d18a4027d387db9da4069|fbcfda835e8e206fcc169f8a97c46e9043196d1a723946582e2465f4f5ca3cf3',(#717,#718,#719,#720,#721,#722,#723,#724));
#726=ORIENTED_EDGE('',*,*,#637,.T.);
#727=ORIENTED_EDGE('',*,*,#647,.T.);
#728=ORIENTED_EDGE('',*,*,#639,.F.);
#729=ORIENTED_EDGE('',*,*,#641,.F.);
#730=EDGE_LOOP('OSCAD_TOPO/3|loop|l:0628fd9ef76b721c9becec3778bbdf76|9fe90638f700bdaf2aa2bcfc451be2b03b2edfd3a9b750a1edb7b8521727e692',(#726,#727,#728,#729));
#731=ORIENTED_EDGE('',*,*,#643,.T.);
#732=ORIENTED_EDGE('',*,*,#653,.T.);
#733=ORIENTED_EDGE('',*,*,#645,.F.);
#734=ORIENTED_EDGE('',*,*,#647,.F.);
#735=EDGE_LOOP('OSCAD_TOPO/3|loop|l:ec73f1c13315871fad626585aab69238|b8e977b2326266e4393ea93267eab2cb4f263f9b9e18a1f274ce611772cf0b79',(#731,#732,#733,#734));
#736=ORIENTED_EDGE('',*,*,#649,.T.);
#737=ORIENTED_EDGE('',*,*,#659,.T.);
#738=ORIENTED_EDGE('',*,*,#651,.F.);
#739=ORIENTED_EDGE('',*,*,#653,.F.);
#740=EDGE_LOOP('OSCAD_TOPO/3|loop|l:b16a42fbdfc3d0ec62e2cbcbdb4f09aa|12c68a801252c2788c0d98409291faacb49c947573abc73686a372d0e736d573',(#736,#737,#738,#739));
#741=ORIENTED_EDGE('',*,*,#655,.T.);
#742=ORIENTED_EDGE('',*,*,#665,.T.);
#743=ORIENTED_EDGE('',*,*,#657,.F.);
#744=ORIENTED_EDGE('',*,*,#659,.F.);
#745=EDGE_LOOP('OSCAD_TOPO/3|loop|l:3b89e5aac101913b2c16beb7991478df|6c612248d2fff49277d9fd36724d38d0664ddfc6d5a2f2d8aa5a1d28ae8ca5e9',(#741,#742,#743,#744));
#746=ORIENTED_EDGE('',*,*,#661,.T.);
#747=ORIENTED_EDGE('',*,*,#671,.T.);
#748=ORIENTED_EDGE('',*,*,#663,.F.);
#749=ORIENTED_EDGE('',*,*,#665,.F.);
#750=EDGE_LOOP('OSCAD_TOPO/3|loop|l:3d0e795e006490b7d9d970c41ef6824d|c49bbd1c0fa9acfe2ba3c178bf570449ae860e5c0f55f5ecf3b9c3972d69a333',(#746,#747,#748,#749));
#751=ORIENTED_EDGE('',*,*,#667,.T.);
#752=ORIENTED_EDGE('',*,*,#677,.T.);
#753=ORIENTED_EDGE('',*,*,#669,.F.);
#754=ORIENTED_EDGE('',*,*,#671,.F.);
#755=EDGE_LOOP('OSCAD_TOPO/3|loop|l:72dacc48ab4fcf24822690ddba05a43b|5f0a3c5175589a06f12903ffb3df50eaceeae1fdf8e84acbe8f55ac4a132d3c7',(#751,#752,#753,#754));
#756=ORIENTED_EDGE('',*,*,#673,.T.);
#757=ORIENTED_EDGE('',*,*,#683,.T.);
#758=ORIENTED_EDGE('',*,*,#675,.F.);
#759=ORIENTED_EDGE('',*,*,#677,.F.);
#760=EDGE_LOOP('OSCAD_TOPO/3|loop|l:66ebc7dac48446b4c942f2f21a19a2e0|617dee584cd444f96639d345e67d2dde1b97dfa809e9824c98152bf69ed9ccbc',(#756,#757,#758,#759));
#761=ORIENTED_EDGE('',*,*,#679,.T.);
#762=ORIENTED_EDGE('',*,*,#641,.T.);
#763=ORIENTED_EDGE('',*,*,#681,.F.);
#764=ORIENTED_EDGE('',*,*,#683,.F.);
#765=EDGE_LOOP('OSCAD_TOPO/3|loop|l:8e90c2131dec62e7c0fe735bb29626a1|49e11be688c1696cb08aa00bbced9ee6fb675f79afabd70e825f24210894ee10',(#761,#762,#763,#764));
#766=ORIENTED_EDGE('',*,*,#703,.F.);
#767=ORIENTED_EDGE('',*,*,#697,.F.);
#768=ORIENTED_EDGE('',*,*,#691,.F.);
#769=ORIENTED_EDGE('',*,*,#685,.F.);
#770=EDGE_LOOP('OSCAD_TOPO/3|loop|l:fa39ba2bbdc0aa4b914be8535e4811e8|38c37f7739a6d93aec12cf7a5a48b844f8773779e5a5488d0c23258e82c2a48e',(#766,#767,#768,#769));
#771=ORIENTED_EDGE('',*,*,#687,.T.);
#772=ORIENTED_EDGE('',*,*,#693,.T.);
#773=ORIENTED_EDGE('',*,*,#699,.T.);
#774=ORIENTED_EDGE('',*,*,#705,.T.);
#775=EDGE_LOOP('OSCAD_TOPO/3|loop|l:4263ac51ed11d68f9510605b2a574820|b37964ca496025d4b2f947872c982345e5242f9b9182a1bc36b07ca10bcfe88d',(#771,#772,#773,#774));
#776=ORIENTED_EDGE('',*,*,#685,.T.);
#777=ORIENTED_EDGE('',*,*,#695,.T.);
#778=ORIENTED_EDGE('',*,*,#687,.F.);
#779=ORIENTED_EDGE('',*,*,#689,.F.);
#780=EDGE_LOOP('OSCAD_TOPO/3|loop|l:3d479cf797c06b3f646c6e38863356f1|fae9a004964c98c20db985f8ae91275f51a12d7457cbd035d16f026bde3fbf88',(#776,#777,#778,#779));
#781=ORIENTED_EDGE('',*,*,#691,.T.);
#782=ORIENTED_EDGE('',*,*,#701,.T.);
#783=ORIENTED_EDGE('',*,*,#693,.F.);
#784=ORIENTED_EDGE('',*,*,#695,.F.);
#785=EDGE_LOOP('OSCAD_TOPO/3|loop|l:6b9990aabe6bca27029c7bfa6c55426d|b4c8d29a57e2db703b635d61ca4b5d12fd1bcee33e45378fc72628632e9e8b2f',(#781,#782,#783,#784));
#786=ORIENTED_EDGE('',*,*,#697,.T.);
#787=ORIENTED_EDGE('',*,*,#707,.T.);
#788=ORIENTED_EDGE('',*,*,#699,.F.);
#789=ORIENTED_EDGE('',*,*,#701,.F.);
#790=EDGE_LOOP('OSCAD_TOPO/3|loop|l:177171bbcb743874ec231a33a9035986|bcb856ca4eb0af437239e71743425ca920b896554cf231e9bcef577fdc33c6ce',(#786,#787,#788,#789));
#791=ORIENTED_EDGE('',*,*,#703,.T.);
#792=ORIENTED_EDGE('',*,*,#689,.T.);
#793=ORIENTED_EDGE('',*,*,#705,.F.);
#794=ORIENTED_EDGE('',*,*,#707,.F.);
#795=EDGE_LOOP('OSCAD_TOPO/3|loop|l:2ba777907cb13bdbf4e56b80957cc52b|45a1f3ed2dfa5b3d996996c06a33ac8c1d464f125cf619796f666a5c873c8542',(#791,#792,#793,#794));
#796=FACE_OUTER_BOUND('',#730,.T.);
#797=ADVANCED_FACE('OSCAD_TOPO/3|face|f:b6aeb7525c53d45bb9dd38313cf4a8e5|2b6e7f780a79bdf4c815fab76aa03d1b0d4c241bd39598bf77daec0276909aca',(#796),#53,.T.);
#798=FACE_OUTER_BOUND('',#735,.T.);
#799=ADVANCED_FACE('OSCAD_TOPO/3|face|f:e93cfb20199427249bccae875636cb8f|3c98f63b8e3662c18341c6e9f553bbdd24314bde3a03e3cc491cfd2fa740b6ee',(#798),#60,.T.);
#800=FACE_OUTER_BOUND('',#740,.T.);
#801=ADVANCED_FACE('OSCAD_TOPO/3|face|f:35951b25f451a98763ab76c51165df53|f94dad9df8e36a92a67105cb4b69f8b0a53d4a150884c48aea2514fb32de19d0',(#800),#65,.T.);
#802=FACE_OUTER_BOUND('',#745,.T.);
#803=ADVANCED_FACE('OSCAD_TOPO/3|face|f:02da56e50ff2110cb3bb9cdeb21371a0|3114db487f034e29c972c4ed7439bf1df818832dce54369df1187a98c52cd287',(#802),#72,.T.);
#804=FACE_OUTER_BOUND('',#750,.T.);
#805=ADVANCED_FACE('OSCAD_TOPO/3|face|f:dd54e4263b0aa79d387885cd35338a68|be8874036b8454b5ab3f94a32131b3eb5346b365e48e43d32a3c642186297f63',(#804),#77,.T.);
#806=FACE_OUTER_BOUND('',#755,.T.);
#807=ADVANCED_FACE('OSCAD_TOPO/3|face|f:4b786f1172445e9948d82fff852945c7|b1eab03b327664c12dfddf605f500e25ce7e3afda2aa97d51e835a52f82c20ef',(#806),#84,.T.);
#808=FACE_OUTER_BOUND('',#760,.T.);
#809=ADVANCED_FACE('OSCAD_TOPO/3|face|f:28325f6d6ae7d53bd7c1f3344e7c5584|fffcd88e151d1a81f81a968f9cfb2cef31cf843c90328f51d656790360e38a34',(#808),#89,.T.);
#810=FACE_OUTER_BOUND('',#765,.T.);
#811=ADVANCED_FACE('OSCAD_TOPO/3|face|f:f67fb4f38efc32fcc4a014b6efee570c|4819149345e6ac8c11cbc70330c1dbfc7775fb79c45f281ef30c39f57fe9e843',(#810),#96,.T.);
#812=FACE_OUTER_BOUND('',#780,.T.);
#813=ADVANCED_FACE('OSCAD_TOPO/3|face|f:3c2276a91fd62db80658d72da3408fcf|9bd3ede893958c8264a0d6047936928c69b8fab1066db10bccb5d18d1ee44cc6',(#812),#103,.T.);
#814=FACE_OUTER_BOUND('',#785,.T.);
#815=ADVANCED_FACE('OSCAD_TOPO/3|face|f:4c730266b8daeea7c5eade0c18ac5ee4|1c0f686af6706c50797de1967d6425ecabc0b0231e90e83a6ce2dc6136c3b7a2',(#814),#110,.T.);
#816=FACE_OUTER_BOUND('',#790,.T.);
#817=ADVANCED_FACE('OSCAD_TOPO/3|face|f:b1afe77fb65079102e3c473dd7f59176|f80b7b55a8080a9a90aed12f7ea88b2886ae370ff86536a3cba9612b52ab4388',(#816),#117,.T.);
#818=FACE_OUTER_BOUND('',#795,.T.);
#819=ADVANCED_FACE('OSCAD_TOPO/3|face|f:e392b2bbf15d6bd46fb346f1885c2fcd|a99d4dec9773519185a4fcb16866b50bd1bfbbcf2852095efd2c740b2d77c180',(#818),#124,.T.);
#820=FACE_OUTER_BOUND('',#716,.T.);
#821=FACE_BOUND('',#770,.T.);
#822=ADVANCED_FACE('OSCAD_TOPO/3|face|f:b91cf160dca9ba0b970048fb96f6860d|8bab996b9014dbd6f6661922e80edeb2432599a9b84f2f159a97e802b47a4d39',(#820,#821),#129,.T.);
#823=FACE_OUTER_BOUND('',#725,.T.);
#824=FACE_BOUND('',#775,.T.);
#825=ADVANCED_FACE('OSCAD_TOPO/3|face|f:380f395357021ebfb7c2ea33077df8d7|cdc43797f60b468394a3eb4d0dd1cca16f27752387a9683c9e71dd0d3f8d8b40',(#823,#824),#134,.T.);
#826=CLOSED_SHELL('OSCAD_TOPO/3|shell|s:a9ff396c2fbc9cabc5480f136b5c187a|b63c9d7c8ddbc865a4283c0c47d9b98b6265df29983f2079b572486028e2f7fd',(#797,#799,#801,#803,#805,#807,#809,#811,#813,#815,#817,#819,#822,#825));
#827=MANIFOLD_SOLID_BREP('OSCAD_TOPO/3|body|b:722762faf19b5d2950507634c385b97e|6613bf79cad50d2df63168ab6c6e2a584af374649bc829411534618866514a41',#826);
#828=(LENGTH_UNIT()NAMED_UNIT(*)SI_UNIT(.MILLI.,.METRE.));
#829=UNCERTAINTY_MEASURE_WITH_UNIT(LENGTH_MEASURE(9.99999999999999955E-8),#828,'distance_accuracy_value','');
#830=(GEOMETRIC_REPRESENTATION_CONTEXT(3)GLOBAL_UNCERTAINTY_ASSIGNED_CONTEXT((#829))GLOBAL_UNIT_ASSIGNED_CONTEXT((#828))REPRESENTATION_CONTEXT('','3D'));
#831=ADVANCED_BREP_SHAPE_REPRESENTATION('',(#827),#830);
#832=APPLICATION_CONTEXT('managed model based 3d engineering');
#833=PRODUCT_CONTEXT('',#832,'mechanical');
#834=PRODUCT('model','model','',(#833));
#835=PRODUCT_DEFINITION_FORMATION('1','',#834);
#836=PRODUCT_DEFINITION_CONTEXT('part definition',#832,'design');
#837=PRODUCT_DEFINITION('design','',#835,#836);
#838=PRODUCT_DEFINITION_SHAPE('','',#837);
#839=SHAPE_DEFINITION_REPRESENTATION(#838,#831);
ENDSEC;
END-ISO-10303-21;
