ISO-10303-21;
HEADER;
FILE_DESCRIPTION(('OpenSCAD Viewer retained AP242 B-rep'),'2;1');
FILE_NAME('model.step','',(''),(''),'OpenSCAD Viewer','OpenSCAD Viewer','');
FILE_SCHEMA(('AP242_MANAGED_MODEL_BASED_3D_ENGINEERING_MIM_LF'));
ENDSEC;
DATA;
#1=CARTESIAN_POINT('',(1.41421356237309492E0,5.00000000000000000E-1,0.00000000000000000E0));
#2=VERTEX_POINT('OSCAD_TOPO/3|vertex|v:c3e2ff064c9efcc01a7fc2d9a0cd18f1|cb02f6667b98ceae01fbc91f8f07a2c214dd4768f8ea2e1e7dcbd8017de56f44',#1);
#3=CARTESIAN_POINT('',(1.41421356237309492E0,5.00000000000000000E-1,2.00000000000000000E0));
#4=VERTEX_POINT('OSCAD_TOPO/3|vertex|v:44cf9396c3248b64687a33b0c3073e6b|21e64986b81c8e7874bdf90795877c4fbb3be367effed25c7122bbbb222da594',#3);
#5=CARTESIAN_POINT('',(0.00000000000000000E0,1.50000000000000000E0,0.00000000000000000E0));
#6=VERTEX_POINT('OSCAD_TOPO/3|vertex|v:b965d423136150872446ea391a66e132|6de3538c5ac4ae333bfe9d3363d19f32e2e80b3bdcfac39ac574232d08480634',#5);
#7=CARTESIAN_POINT('',(0.00000000000000000E0,1.50000000000000000E0,2.00000000000000000E0));
#8=VERTEX_POINT('OSCAD_TOPO/3|vertex|v:9ebb363eaba2fe9c39e0b18fb548d174|a686912ed092affdd6c347869bca56e3aaa31cd9e027d51e72bd7f9c36e0376a',#7);
#9=CARTESIAN_POINT('',(-1.41421356237309492E0,5.00000000000000000E-1,0.00000000000000000E0));
#10=VERTEX_POINT('OSCAD_TOPO/3|vertex|v:28853894c46f033f2681d6377e1b3496|d3d2db476b56296e7f78a47352115b65e8028ce7c1482de246b50249e296c04a',#9);
#11=CARTESIAN_POINT('',(-1.41421356237309492E0,5.00000000000000000E-1,2.00000000000000000E0));
#12=VERTEX_POINT('OSCAD_TOPO/3|vertex|v:7efa44b9f31829ae0ec1ab7830c4b9d5|9c78959e46033a3a2ffb36750272f38d10f3aa3823a718e6586592a748adde49',#11);
#13=CARTESIAN_POINT('',(1.41421356237309492E0,5.00000000000000000E-1,0.00000000000000000E0));
#14=CARTESIAN_POINT('',(1.41421356237309492E0,5.00000000000000000E-1,2.00000000000000000E0));
#15=CARTESIAN_POINT('',(1.06066017177982119E0,1.49999999999999978E0,0.00000000000000000E0));
#16=CARTESIAN_POINT('',(1.06066017177982119E0,1.49999999999999978E0,2.00000000000000000E0));
#17=CARTESIAN_POINT('',(0.00000000000000000E0,1.50000000000000000E0,0.00000000000000000E0));
#18=CARTESIAN_POINT('',(0.00000000000000000E0,1.50000000000000000E0,2.00000000000000000E0));
#19=(BOUNDED_SURFACE()B_SPLINE_SURFACE(2,1,((#13,#14),(#15,#16),(#17,#18)),.UNSPECIFIED.,.F.,.F.,.F.)B_SPLINE_SURFACE_WITH_KNOTS((3,3),(2,2),(0.00000000000000000E0,1.00000000000000000E0),(0.00000000000000000E0,1.00000000000000000E0),.UNSPECIFIED.)GEOMETRIC_REPRESENTATION_ITEM()RATIONAL_B_SPLINE_SURFACE(((8.97358423438308961E-1,8.97358423438308961E-1),(7.73459080339013672E-1,7.73459080339013672E-1),(1.00000000000000000E0,1.00000000000000000E0)))REPRESENTATION_ITEM('')SURFACE());
#20=CARTESIAN_POINT('',(0.00000000000000000E0,1.50000000000000000E0,0.00000000000000000E0));
#21=CARTESIAN_POINT('',(0.00000000000000000E0,1.50000000000000000E0,2.00000000000000000E0));
#22=CARTESIAN_POINT('',(-1.06066017177982119E0,1.49999999999999978E0,0.00000000000000000E0));
#23=CARTESIAN_POINT('',(-1.06066017177982119E0,1.49999999999999978E0,2.00000000000000000E0));
#24=CARTESIAN_POINT('',(-1.41421356237309492E0,5.00000000000000111E-1,0.00000000000000000E0));
#25=CARTESIAN_POINT('',(-1.41421356237309492E0,5.00000000000000111E-1,2.00000000000000000E0));
#26=(BOUNDED_SURFACE()B_SPLINE_SURFACE(2,1,((#20,#21),(#22,#23),(#24,#25)),.UNSPECIFIED.,.F.,.F.,.F.)B_SPLINE_SURFACE_WITH_KNOTS((3,3),(2,2),(0.00000000000000000E0,1.00000000000000000E0),(0.00000000000000000E0,1.00000000000000000E0),.UNSPECIFIED.)GEOMETRIC_REPRESENTATION_ITEM()RATIONAL_B_SPLINE_SURFACE(((1.00000000000000000E0,1.00000000000000000E0),(7.73459080339013672E-1,7.73459080339013672E-1),(8.97358423438308961E-1,8.97358423438308961E-1)))REPRESENTATION_ITEM('')SURFACE());
#27=CARTESIAN_POINT('',(-1.41421356237309492E0,5.00000000000000000E-1,0.00000000000000000E0));
#28=CARTESIAN_POINT('',(-1.41421356237309492E0,5.00000000000000000E-1,2.00000000000000000E0));
#29=CARTESIAN_POINT('',(1.41421356237309492E0,5.00000000000000000E-1,0.00000000000000000E0));
#30=CARTESIAN_POINT('',(1.41421356237309492E0,5.00000000000000000E-1,2.00000000000000000E0));
#31=B_SPLINE_SURFACE_WITH_KNOTS('',1,1,((#27,#28),(#29,#30)),.UNSPECIFIED.,.F.,.F.,.F.,(2,2),(2,2),(0.00000000000000000E0,1.00000000000000000E0),(0.00000000000000000E0,1.00000000000000000E0),.UNSPECIFIED.);
#32=CARTESIAN_POINT('',(1.41421356237309492E0,5.00000000000000000E-1,0.00000000000000000E0));
#33=CARTESIAN_POINT('',(1.41421356237309492E0,1.50000000000000000E0,0.00000000000000000E0));
#34=CARTESIAN_POINT('',(-1.41421356237309492E0,5.00000000000000000E-1,0.00000000000000000E0));
#35=CARTESIAN_POINT('',(-1.41421356237309492E0,1.50000000000000000E0,0.00000000000000000E0));
#36=B_SPLINE_SURFACE_WITH_KNOTS('',1,1,((#32,#33),(#34,#35)),.UNSPECIFIED.,.F.,.F.,.F.,(2,2),(2,2),(0.00000000000000000E0,1.00000000000000000E0),(0.00000000000000000E0,1.00000000000000000E0),.UNSPECIFIED.);
#37=CARTESIAN_POINT('',(-1.41421356237309492E0,5.00000000000000000E-1,2.00000000000000000E0));
#38=CARTESIAN_POINT('',(-1.41421356237309492E0,1.50000000000000000E0,2.00000000000000000E0));
#39=CARTESIAN_POINT('',(1.41421356237309492E0,5.00000000000000000E-1,2.00000000000000000E0));
#40=CARTESIAN_POINT('',(1.41421356237309492E0,1.50000000000000000E0,2.00000000000000000E0));
#41=B_SPLINE_SURFACE_WITH_KNOTS('',1,1,((#37,#38),(#39,#40)),.UNSPECIFIED.,.F.,.F.,.F.,(2,2),(2,2),(0.00000000000000000E0,1.00000000000000000E0),(0.00000000000000000E0,1.00000000000000000E0),.UNSPECIFIED.);
#42=CARTESIAN_POINT('',(1.41421356237309492E0,5.00000000000000000E-1,0.00000000000000000E0));
#43=CARTESIAN_POINT('',(1.06066017177982119E0,1.49999999999999978E0,0.00000000000000000E0));
#44=CARTESIAN_POINT('',(0.00000000000000000E0,1.50000000000000000E0,0.00000000000000000E0));
#45=(BOUNDED_CURVE()B_SPLINE_CURVE(2,(#42,#43,#44),.UNSPECIFIED.,.F.,.F.)B_SPLINE_CURVE_WITH_KNOTS((3,3),(0.00000000000000000E0,1.00000000000000000E0),.UNSPECIFIED.)CURVE()GEOMETRIC_REPRESENTATION_ITEM()RATIONAL_B_SPLINE_CURVE((8.97358423438308961E-1,7.73459080339013672E-1,1.00000000000000000E0))REPRESENTATION_ITEM(''));
#46=CARTESIAN_POINT('',(1.41421356237309492E0,5.00000000000000000E-1,2.00000000000000000E0));
#47=CARTESIAN_POINT('',(1.06066017177982119E0,1.49999999999999978E0,2.00000000000000000E0));
#48=CARTESIAN_POINT('',(0.00000000000000000E0,1.50000000000000000E0,2.00000000000000000E0));
#49=(BOUNDED_CURVE()B_SPLINE_CURVE(2,(#46,#47,#48),.UNSPECIFIED.,.F.,.F.)B_SPLINE_CURVE_WITH_KNOTS((3,3),(0.00000000000000000E0,1.00000000000000000E0),.UNSPECIFIED.)CURVE()GEOMETRIC_REPRESENTATION_ITEM()RATIONAL_B_SPLINE_CURVE((8.97358423438308961E-1,7.73459080339013672E-1,1.00000000000000000E0))REPRESENTATION_ITEM(''));
#50=CARTESIAN_POINT('',(1.41421356237309492E0,5.00000000000000000E-1,0.00000000000000000E0));
#51=CARTESIAN_POINT('',(1.41421356237309492E0,5.00000000000000000E-1,2.00000000000000000E0));
#52=B_SPLINE_CURVE_WITH_KNOTS('',1,(#50,#51),.UNSPECIFIED.,.F.,.F.,(2,2),(0.00000000000000000E0,1.00000000000000000E0),.UNSPECIFIED.);
#53=CARTESIAN_POINT('',(0.00000000000000000E0,1.50000000000000000E0,0.00000000000000000E0));
#54=CARTESIAN_POINT('',(-1.06066017177982119E0,1.49999999999999978E0,0.00000000000000000E0));
#55=CARTESIAN_POINT('',(-1.41421356237309492E0,5.00000000000000111E-1,0.00000000000000000E0));
#56=(BOUNDED_CURVE()B_SPLINE_CURVE(2,(#53,#54,#55),.UNSPECIFIED.,.F.,.F.)B_SPLINE_CURVE_WITH_KNOTS((3,3),(0.00000000000000000E0,1.00000000000000000E0),.UNSPECIFIED.)CURVE()GEOMETRIC_REPRESENTATION_ITEM()RATIONAL_B_SPLINE_CURVE((1.00000000000000000E0,7.73459080339013672E-1,8.97358423438308961E-1))REPRESENTATION_ITEM(''));
#57=CARTESIAN_POINT('',(0.00000000000000000E0,1.50000000000000000E0,2.00000000000000000E0));
#58=CARTESIAN_POINT('',(-1.06066017177982119E0,1.49999999999999978E0,2.00000000000000000E0));
#59=CARTESIAN_POINT('',(-1.41421356237309492E0,5.00000000000000111E-1,2.00000000000000000E0));
#60=(BOUNDED_CURVE()B_SPLINE_CURVE(2,(#57,#58,#59),.UNSPECIFIED.,.F.,.F.)B_SPLINE_CURVE_WITH_KNOTS((3,3),(0.00000000000000000E0,1.00000000000000000E0),.UNSPECIFIED.)CURVE()GEOMETRIC_REPRESENTATION_ITEM()RATIONAL_B_SPLINE_CURVE((1.00000000000000000E0,7.73459080339013672E-1,8.97358423438308961E-1))REPRESENTATION_ITEM(''));
#61=CARTESIAN_POINT('',(0.00000000000000000E0,1.50000000000000000E0,0.00000000000000000E0));
#62=CARTESIAN_POINT('',(0.00000000000000000E0,1.50000000000000000E0,2.00000000000000000E0));
#63=B_SPLINE_CURVE_WITH_KNOTS('',1,(#61,#62),.UNSPECIFIED.,.F.,.F.,(2,2),(0.00000000000000000E0,1.00000000000000000E0),.UNSPECIFIED.);
#64=CARTESIAN_POINT('',(-1.41421356237309492E0,5.00000000000000000E-1,0.00000000000000000E0));
#65=CARTESIAN_POINT('',(1.41421356237309492E0,5.00000000000000000E-1,0.00000000000000000E0));
#66=B_SPLINE_CURVE_WITH_KNOTS('',1,(#64,#65),.UNSPECIFIED.,.F.,.F.,(2,2),(0.00000000000000000E0,1.00000000000000000E0),.UNSPECIFIED.);
#67=CARTESIAN_POINT('',(-1.41421356237309492E0,5.00000000000000000E-1,2.00000000000000000E0));
#68=CARTESIAN_POINT('',(1.41421356237309492E0,5.00000000000000000E-1,2.00000000000000000E0));
#69=B_SPLINE_CURVE_WITH_KNOTS('',1,(#67,#68),.UNSPECIFIED.,.F.,.F.,(2,2),(0.00000000000000000E0,1.00000000000000000E0),.UNSPECIFIED.);
#70=CARTESIAN_POINT('',(-1.41421356237309492E0,5.00000000000000000E-1,0.00000000000000000E0));
#71=CARTESIAN_POINT('',(-1.41421356237309492E0,5.00000000000000000E-1,2.00000000000000000E0));
#72=B_SPLINE_CURVE_WITH_KNOTS('',1,(#70,#71),.UNSPECIFIED.,.F.,.F.,(2,2),(0.00000000000000000E0,1.00000000000000000E0),.UNSPECIFIED.);
#73=(GEOMETRIC_REPRESENTATION_CONTEXT(2)REPRESENTATION_CONTEXT('','2D'));
#74=CARTESIAN_POINT('',(0.00000000000000000E0,0.00000000000000000E0));
#75=CARTESIAN_POINT('',(1.00000000000000000E0,0.00000000000000000E0));
#76=B_SPLINE_CURVE_WITH_KNOTS('',1,(#74,#75),.UNSPECIFIED.,.F.,.F.,(2,2),(0.00000000000000000E0,1.00000000000000000E0),.UNSPECIFIED.);
#77=DEFINITIONAL_REPRESENTATION('',(#76),#73);
#78=PCURVE('',#36,#77);
#79=CARTESIAN_POINT('',(1.00000000000000000E0,1.11022302462515654E-16));
#80=CARTESIAN_POINT('',(8.75000000000000000E-1,9.99999999999999778E-1));
#81=CARTESIAN_POINT('',(5.00000000000000000E-1,1.00000000000000000E0));
#82=(BOUNDED_CURVE()B_SPLINE_CURVE(2,(#79,#80,#81),.UNSPECIFIED.,.F.,.F.)B_SPLINE_CURVE_WITH_KNOTS((3,3),(0.00000000000000000E0,1.00000000000000000E0),.UNSPECIFIED.)CURVE()GEOMETRIC_REPRESENTATION_ITEM()RATIONAL_B_SPLINE_CURVE((8.97358423438308961E-1,7.73459080339013672E-1,1.00000000000000000E0))REPRESENTATION_ITEM(''));
#83=DEFINITIONAL_REPRESENTATION('',(#82),#73);
#84=PCURVE('',#36,#83);
#85=CARTESIAN_POINT('',(5.00000000000000000E-1,1.00000000000000000E0));
#86=CARTESIAN_POINT('',(1.25000000000000111E-1,9.99999999999999778E-1));
#87=CARTESIAN_POINT('',(0.00000000000000000E0,0.00000000000000000E0));
#88=(BOUNDED_CURVE()B_SPLINE_CURVE(2,(#85,#86,#87),.UNSPECIFIED.,.F.,.F.)B_SPLINE_CURVE_WITH_KNOTS((3,3),(0.00000000000000000E0,1.00000000000000000E0),.UNSPECIFIED.)CURVE()GEOMETRIC_REPRESENTATION_ITEM()RATIONAL_B_SPLINE_CURVE((1.00000000000000000E0,7.73459080339013672E-1,8.97358423438308961E-1))REPRESENTATION_ITEM(''));
#89=DEFINITIONAL_REPRESENTATION('',(#88),#73);
#90=PCURVE('',#36,#89);
#91=CARTESIAN_POINT('',(1.00000000000000000E0,0.00000000000000000E0));
#92=CARTESIAN_POINT('',(8.74999999999999889E-1,9.99999999999999778E-1));
#93=CARTESIAN_POINT('',(5.00000000000000000E-1,1.00000000000000000E0));
#94=(BOUNDED_CURVE()B_SPLINE_CURVE(2,(#91,#92,#93),.UNSPECIFIED.,.F.,.F.)B_SPLINE_CURVE_WITH_KNOTS((3,3),(0.00000000000000000E0,1.00000000000000000E0),.UNSPECIFIED.)CURVE()GEOMETRIC_REPRESENTATION_ITEM()RATIONAL_B_SPLINE_CURVE((8.97358423438308961E-1,7.73459080339013672E-1,1.00000000000000000E0))REPRESENTATION_ITEM(''));
#95=DEFINITIONAL_REPRESENTATION('',(#94),#73);
#96=PCURVE('',#41,#95);
#97=CARTESIAN_POINT('',(5.00000000000000000E-1,1.00000000000000000E0));
#98=CARTESIAN_POINT('',(1.25000000000000000E-1,9.99999999999999778E-1));
#99=CARTESIAN_POINT('',(0.00000000000000000E0,1.11022302462515654E-16));
#100=(BOUNDED_CURVE()B_SPLINE_CURVE(2,(#97,#98,#99),.UNSPECIFIED.,.F.,.F.)B_SPLINE_CURVE_WITH_KNOTS((3,3),(0.00000000000000000E0,1.00000000000000000E0),.UNSPECIFIED.)CURVE()GEOMETRIC_REPRESENTATION_ITEM()RATIONAL_B_SPLINE_CURVE((1.00000000000000000E0,7.73459080339013672E-1,8.97358423438308961E-1))REPRESENTATION_ITEM(''));
#101=DEFINITIONAL_REPRESENTATION('',(#100),#73);
#102=PCURVE('',#41,#101);
#103=CARTESIAN_POINT('',(0.00000000000000000E0,0.00000000000000000E0));
#104=CARTESIAN_POINT('',(1.00000000000000000E0,0.00000000000000000E0));
#105=B_SPLINE_CURVE_WITH_KNOTS('',1,(#103,#104),.UNSPECIFIED.,.F.,.F.,(2,2),(0.00000000000000000E0,1.00000000000000000E0),.UNSPECIFIED.);
#106=DEFINITIONAL_REPRESENTATION('',(#105),#73);
#107=PCURVE('',#41,#106);
#108=CARTESIAN_POINT('',(0.00000000000000000E0,0.00000000000000000E0));
#109=CARTESIAN_POINT('',(1.00000000000000000E0,0.00000000000000000E0));
#110=B_SPLINE_CURVE_WITH_KNOTS('',1,(#108,#109),.UNSPECIFIED.,.F.,.F.,(2,2),(0.00000000000000000E0,1.00000000000000000E0),.UNSPECIFIED.);
#111=DEFINITIONAL_REPRESENTATION('',(#110),#73);
#112=PCURVE('',#19,#111);
#113=CARTESIAN_POINT('',(1.00000000000000000E0,0.00000000000000000E0));
#114=CARTESIAN_POINT('',(1.00000000000000000E0,1.00000000000000000E0));
#115=B_SPLINE_CURVE_WITH_KNOTS('',1,(#113,#114),.UNSPECIFIED.,.F.,.F.,(2,2),(0.00000000000000000E0,1.00000000000000000E0),.UNSPECIFIED.);
#116=DEFINITIONAL_REPRESENTATION('',(#115),#73);
#117=PCURVE('',#19,#116);
#118=CARTESIAN_POINT('',(1.00000000000000000E0,1.00000000000000000E0));
#119=CARTESIAN_POINT('',(0.00000000000000000E0,1.00000000000000000E0));
#120=B_SPLINE_CURVE_WITH_KNOTS('',1,(#118,#119),.UNSPECIFIED.,.F.,.F.,(2,2),(0.00000000000000000E0,1.00000000000000000E0),.UNSPECIFIED.);
#121=DEFINITIONAL_REPRESENTATION('',(#120),#73);
#122=PCURVE('',#19,#121);
#123=CARTESIAN_POINT('',(0.00000000000000000E0,1.00000000000000000E0));
#124=CARTESIAN_POINT('',(0.00000000000000000E0,0.00000000000000000E0));
#125=B_SPLINE_CURVE_WITH_KNOTS('',1,(#123,#124),.UNSPECIFIED.,.F.,.F.,(2,2),(0.00000000000000000E0,1.00000000000000000E0),.UNSPECIFIED.);
#126=DEFINITIONAL_REPRESENTATION('',(#125),#73);
#127=PCURVE('',#19,#126);
#128=CARTESIAN_POINT('',(0.00000000000000000E0,0.00000000000000000E0));
#129=CARTESIAN_POINT('',(1.00000000000000000E0,0.00000000000000000E0));
#130=B_SPLINE_CURVE_WITH_KNOTS('',1,(#128,#129),.UNSPECIFIED.,.F.,.F.,(2,2),(0.00000000000000000E0,1.00000000000000000E0),.UNSPECIFIED.);
#131=DEFINITIONAL_REPRESENTATION('',(#130),#73);
#132=PCURVE('',#26,#131);
#133=CARTESIAN_POINT('',(1.00000000000000000E0,0.00000000000000000E0));
#134=CARTESIAN_POINT('',(1.00000000000000000E0,1.00000000000000000E0));
#135=B_SPLINE_CURVE_WITH_KNOTS('',1,(#133,#134),.UNSPECIFIED.,.F.,.F.,(2,2),(0.00000000000000000E0,1.00000000000000000E0),.UNSPECIFIED.);
#136=DEFINITIONAL_REPRESENTATION('',(#135),#73);
#137=PCURVE('',#26,#136);
#138=CARTESIAN_POINT('',(1.00000000000000000E0,1.00000000000000000E0));
#139=CARTESIAN_POINT('',(0.00000000000000000E0,1.00000000000000000E0));
#140=B_SPLINE_CURVE_WITH_KNOTS('',1,(#138,#139),.UNSPECIFIED.,.F.,.F.,(2,2),(0.00000000000000000E0,1.00000000000000000E0),.UNSPECIFIED.);
#141=DEFINITIONAL_REPRESENTATION('',(#140),#73);
#142=PCURVE('',#26,#141);
#143=CARTESIAN_POINT('',(0.00000000000000000E0,1.00000000000000000E0));
#144=CARTESIAN_POINT('',(0.00000000000000000E0,0.00000000000000000E0));
#145=B_SPLINE_CURVE_WITH_KNOTS('',1,(#143,#144),.UNSPECIFIED.,.F.,.F.,(2,2),(0.00000000000000000E0,1.00000000000000000E0),.UNSPECIFIED.);
#146=DEFINITIONAL_REPRESENTATION('',(#145),#73);
#147=PCURVE('',#26,#146);
#148=CARTESIAN_POINT('',(0.00000000000000000E0,0.00000000000000000E0));
#149=CARTESIAN_POINT('',(1.00000000000000000E0,0.00000000000000000E0));
#150=B_SPLINE_CURVE_WITH_KNOTS('',1,(#148,#149),.UNSPECIFIED.,.F.,.F.,(2,2),(0.00000000000000000E0,1.00000000000000000E0),.UNSPECIFIED.);
#151=DEFINITIONAL_REPRESENTATION('',(#150),#73);
#152=PCURVE('',#31,#151);
#153=CARTESIAN_POINT('',(1.00000000000000000E0,0.00000000000000000E0));
#154=CARTESIAN_POINT('',(1.00000000000000000E0,1.00000000000000000E0));
#155=B_SPLINE_CURVE_WITH_KNOTS('',1,(#153,#154),.UNSPECIFIED.,.F.,.F.,(2,2),(0.00000000000000000E0,1.00000000000000000E0),.UNSPECIFIED.);
#156=DEFINITIONAL_REPRESENTATION('',(#155),#73);
#157=PCURVE('',#31,#156);
#158=CARTESIAN_POINT('',(1.00000000000000000E0,1.00000000000000000E0));
#159=CARTESIAN_POINT('',(0.00000000000000000E0,1.00000000000000000E0));
#160=B_SPLINE_CURVE_WITH_KNOTS('',1,(#158,#159),.UNSPECIFIED.,.F.,.F.,(2,2),(0.00000000000000000E0,1.00000000000000000E0),.UNSPECIFIED.);
#161=DEFINITIONAL_REPRESENTATION('',(#160),#73);
#162=PCURVE('',#31,#161);
#163=CARTESIAN_POINT('',(0.00000000000000000E0,1.00000000000000000E0));
#164=CARTESIAN_POINT('',(0.00000000000000000E0,0.00000000000000000E0));
#165=B_SPLINE_CURVE_WITH_KNOTS('',1,(#163,#164),.UNSPECIFIED.,.F.,.F.,(2,2),(0.00000000000000000E0,1.00000000000000000E0),.UNSPECIFIED.);
#166=DEFINITIONAL_REPRESENTATION('',(#165),#73);
#167=PCURVE('',#31,#166);
#168=SURFACE_CURVE('',#45,(#90,#112),.PCURVE_S1.);
#169=EDGE_CURVE('OSCAD_TOPO/3|edge|e:2b139bfab5bbd08300869b8b25fc4dab|3e4a66f56a6d7d24a354c280a51b1bffc7bdc867dac05802b8bc667c87f33575',#2,#6,#168,.T.);
#170=SURFACE_CURVE('',#49,(#96,#122),.PCURVE_S1.);
#171=EDGE_CURVE('OSCAD_TOPO/3|edge|e:6478804aee8083f1c52141cede9c2396|aaa1ab2b4ad9e55198723dfb09174a2c39521d184b089a2a692541225ad9ebec',#4,#8,#170,.T.);
#172=SURFACE_CURVE('',#52,(#127,#157),.PCURVE_S1.);
#173=EDGE_CURVE('OSCAD_TOPO/3|edge|e:ac1a465b3c5e436f2d9e0d6a1446e79e|2cdabba0df717c443d0bd8f2e1d9011cb59da11369d3c12a38e8c384274ca88b',#2,#4,#172,.T.);
#174=SURFACE_CURVE('',#56,(#84,#132),.PCURVE_S1.);
#175=EDGE_CURVE('OSCAD_TOPO/3|edge|e:27c088515900732ebba5d19102dbc8ac|3a1f2067ee2e5fb8949ff236f776d16aa85b6e27b0092b773cb56aff223682fa',#6,#10,#174,.T.);
#176=SURFACE_CURVE('',#60,(#102,#142),.PCURVE_S1.);
#177=EDGE_CURVE('OSCAD_TOPO/3|edge|e:2c5916b18450a39dcf6557287fd55b86|51ccb983536de0e25833abf0ef375c546bf0682daebd4dd5bcb094bb79d3410c',#8,#12,#176,.T.);
#178=SURFACE_CURVE('',#63,(#117,#147),.PCURVE_S1.);
#179=EDGE_CURVE('OSCAD_TOPO/3|edge|e:fa202d1cda07609aa2579e3377283863|0b0de6e8c1746858fac0218026fea527d1c767a180d8d4827cc64011437f4adc',#6,#8,#178,.T.);
#180=SURFACE_CURVE('',#66,(#78,#152),.PCURVE_S1.);
#181=EDGE_CURVE('OSCAD_TOPO/3|edge|e:120a9bfc6fc24476d124e2d8e83aeb4b|46d8b8046a13801c96c86c10d587d0c39efff5b18c2b62a5314cbfdcabb348a6',#10,#2,#180,.T.);
#182=SURFACE_CURVE('',#69,(#107,#162),.PCURVE_S1.);
#183=EDGE_CURVE('OSCAD_TOPO/3|edge|e:76b357770b16371d73be236d375300da|4a27ec3ed4c9157458acee07959ace97407fa109c95142993fe9e7d1bcef3758',#12,#4,#182,.T.);
#184=SURFACE_CURVE('',#72,(#137,#167),.PCURVE_S1.);
#185=EDGE_CURVE('OSCAD_TOPO/3|edge|e:a97582232dc09d32be7ce98fde4f8867|52a0237ba05a8285928581377932a6534f8bcd2af63e441a85d9b8868c26a106',#10,#12,#184,.T.);
#186=ORIENTED_EDGE('',*,*,#181,.F.);
#187=ORIENTED_EDGE('',*,*,#175,.F.);
#188=ORIENTED_EDGE('',*,*,#169,.F.);
#189=EDGE_LOOP('OSCAD_TOPO/3|loop|l:070a43341ef6bde68f1709061fd0f256|57d9bd93fbfca7a43a71a7719de53e962070d596d6c5b05e0ae5a98ed56db628',(#186,#187,#188));
#190=ORIENTED_EDGE('',*,*,#171,.T.);
#191=ORIENTED_EDGE('',*,*,#177,.T.);
#192=ORIENTED_EDGE('',*,*,#183,.T.);
#193=EDGE_LOOP('OSCAD_TOPO/3|loop|l:a88836b38b0fd4d4f65182ac8599da22|cd4be4ea945453859956493c8994060d54679541f1b6fa38cf51a71823c21fce',(#190,#191,#192));
#194=ORIENTED_EDGE('',*,*,#169,.T.);
#195=ORIENTED_EDGE('',*,*,#179,.T.);
#196=ORIENTED_EDGE('',*,*,#171,.F.);
#197=ORIENTED_EDGE('',*,*,#173,.F.);
#198=EDGE_LOOP('OSCAD_TOPO/3|loop|l:f7b37d9e37670709864c0904743a321c|7300153c346c30be6efd8f1ae8e4936b25732cc7f6c1cca790381bc3da8ef16c',(#194,#195,#196,#197));
#199=ORIENTED_EDGE('',*,*,#175,.T.);
#200=ORIENTED_EDGE('',*,*,#185,.T.);
#201=ORIENTED_EDGE('',*,*,#177,.F.);
#202=ORIENTED_EDGE('',*,*,#179,.F.);
#203=EDGE_LOOP('OSCAD_TOPO/3|loop|l:5c32138f0ab232137abe28804ac7023c|7435b9980d122b0dd4e894fb541a66c6979cd6a401454fef56155d68d70f9e96',(#199,#200,#201,#202));
#204=ORIENTED_EDGE('',*,*,#181,.T.);
#205=ORIENTED_EDGE('',*,*,#173,.T.);
#206=ORIENTED_EDGE('',*,*,#183,.F.);
#207=ORIENTED_EDGE('',*,*,#185,.F.);
#208=EDGE_LOOP('OSCAD_TOPO/3|loop|l:51f1d0775f9a5bb6ea8821ade4353cae|9ae8ec5a67b30dd0a03cea173c0f4684be3f90f766e06924b8095a2a9af50b2c',(#204,#205,#206,#207));
#209=FACE_OUTER_BOUND('',#198,.T.);
#210=ADVANCED_FACE('OSCAD_TOPO/3|face|f:824105b597a9248d659464c9b06f63fc|76e526193f1d9ad42be43b7146493cda5f0d7672e7b6d1f7f497a71fd7f4bb0d',(#209),#19,.T.);
#211=FACE_OUTER_BOUND('',#203,.T.);
#212=ADVANCED_FACE('OSCAD_TOPO/3|face|f:1d664c2ad8bdeed81ca8689d0a387a9b|ee3ab7f716e5882ad089f67c496c0168e967c1b2dcf5c8c59859faac584e70cf',(#211),#26,.T.);
#213=FACE_OUTER_BOUND('',#208,.T.);
#214=ADVANCED_FACE('OSCAD_TOPO/3|face|f:eb12cdd8d4c6051d8731f15d6d500c26|dd89aa9b1e50c1b12011bd6e0dc307fa992527da7211a0bdb69395bbe2d718be',(#213),#31,.T.);
#215=FACE_OUTER_BOUND('',#189,.T.);
#216=ADVANCED_FACE('OSCAD_TOPO/3|face|f:46fe477d4e176b62a3fe2f4141118ffc|dc221f86d669f57454b18783cefdbcd7d6adc14db23028682048ee13666c0811',(#215),#36,.T.);
#217=FACE_OUTER_BOUND('',#193,.T.);
#218=ADVANCED_FACE('OSCAD_TOPO/3|face|f:a63e0910cb0eefe49e00fc04e397d3f0|3ece918d600f0c13d25b2c958115d8ac29220adb441ea09cbbbf5f4925683036',(#217),#41,.T.);
#219=CLOSED_SHELL('OSCAD_TOPO/3|shell|s:db3a85ce7281700832bc4467aead96d4|5ee731d907c0920a9e74900424170c56714d1311b3349a717d0dfb08c5efa7cf',(#210,#212,#214,#216,#218));
#220=MANIFOLD_SOLID_BREP('OSCAD_TOPO/3|body|b:7c7f52319ff22ee4e8ad1caead07b293|d065f19d76e51114603b6824591e0d7c940d022fef6f937acc6b844d7d5a3abb',#219);
#221=(LENGTH_UNIT()NAMED_UNIT(*)SI_UNIT(.MILLI.,.METRE.));
#222=UNCERTAINTY_MEASURE_WITH_UNIT(LENGTH_MEASURE(9.99999999999999955E-8),#221,'distance_accuracy_value','');
#223=(GEOMETRIC_REPRESENTATION_CONTEXT(3)GLOBAL_UNCERTAINTY_ASSIGNED_CONTEXT((#222))GLOBAL_UNIT_ASSIGNED_CONTEXT((#221))REPRESENTATION_CONTEXT('','3D'));
#224=ADVANCED_BREP_SHAPE_REPRESENTATION('',(#220),#223);
#225=APPLICATION_CONTEXT('managed model based 3d engineering');
#226=PRODUCT_CONTEXT('',#225,'mechanical');
#227=PRODUCT('model','model','',(#226));
#228=PRODUCT_DEFINITION_FORMATION('1','',#227);
#229=PRODUCT_DEFINITION_CONTEXT('part definition',#225,'design');
#230=PRODUCT_DEFINITION('design','',#228,#229);
#231=PRODUCT_DEFINITION_SHAPE('','',#230);
#232=SHAPE_DEFINITION_REPRESENTATION(#231,#224);
ENDSEC;
END-ISO-10303-21;
