ISO-10303-21;
HEADER;
FILE_DESCRIPTION(('OpenSCAD Viewer retained AP242 B-rep'),'2;1');
FILE_NAME('model.step','',(''),(''),'OpenSCAD Viewer','OpenSCAD Viewer','');
FILE_SCHEMA(('AP242_MANAGED_MODEL_BASED_3D_ENGINEERING_MIM_LF'));
ENDSEC;
DATA;
#1=CARTESIAN_POINT('',(1.00000000000000000E0,0.00000000000000000E0,0.00000000000000000E0));
#2=VERTEX_POINT('OSCAD_TOPO/3|vertex|v:befe2ea341ef65389fdccf7b3e2df3b0|8e25ccad3a3f68fd24d7b20fab6b4ed802a15355cd7e7b9022a346f61c6b204f',#1);
#3=CARTESIAN_POINT('',(0.00000000000000000E0,1.00000000000000000E0,0.00000000000000000E0));
#4=VERTEX_POINT('OSCAD_TOPO/3|vertex|v:ea50bfb34bc94adec88a40daad718837|ccf045df9afd484518927e20a45f460699644d9e56dbe284c8bfb528ad24b044',#3);
#5=CARTESIAN_POINT('',(-1.00000000000000000E0,0.00000000000000000E0,0.00000000000000000E0));
#6=VERTEX_POINT('OSCAD_TOPO/3|vertex|v:e8383cc89db6828ff6cd38365fafdb7a|a8f9ceebd71915287b6bd8226ad2cf519c9e2009450585131f66478870cca77a',#5);
#7=CARTESIAN_POINT('',(0.00000000000000000E0,-1.00000000000000000E0,0.00000000000000000E0));
#8=VERTEX_POINT('OSCAD_TOPO/3|vertex|v:b9e8a1ba3aca8032c502ad2732ee0068|85d46364e39a2881df434d484719627f0f3cec5c8502c3a53615813ffdce6ae9',#7);
#9=CARTESIAN_POINT('',(1.00000000000000000E0,0.00000000000000000E0,5.00000000000000000E0));
#10=VERTEX_POINT('OSCAD_TOPO/3|vertex|v:b4913cc6411e62dfce9aa40a05ee1532|15ca594e5818dcaf184cf341e1483c7af0962934f6e23540f953cb2c76fe0f5b',#9);
#11=CARTESIAN_POINT('',(0.00000000000000000E0,1.00000000000000000E0,5.00000000000000000E0));
#12=VERTEX_POINT('OSCAD_TOPO/3|vertex|v:df79e0516c0967c0b6e49a41226879ea|5438675aedc2fe32016c9c5e9cbde1546bc6393a0d987cb1cef6e37838b99400',#11);
#13=CARTESIAN_POINT('',(-1.00000000000000000E0,0.00000000000000000E0,5.00000000000000000E0));
#14=VERTEX_POINT('OSCAD_TOPO/3|vertex|v:3f1bedcc6fa0f373deb65bb96f9d04d3|10a887ce93541cc3a3570178b441fc3fc8ca430cb68fd5fa2f6b5bcff179d1e9',#13);
#15=CARTESIAN_POINT('',(0.00000000000000000E0,-1.00000000000000000E0,5.00000000000000000E0));
#16=VERTEX_POINT('OSCAD_TOPO/3|vertex|v:003a02c7e486d70404c2c8b44e1ad690|83f04ee6240228db6169912f7779ea664fda576220f9987148125b747578d1c1',#15);
#17=CARTESIAN_POINT('',(1.00000000000000000E0,0.00000000000000000E0,1.00000000000000000E1));
#18=VERTEX_POINT('OSCAD_TOPO/3|vertex|v:629511c91fb5e50a9ac8f748666a077f|2c9bb52a65cd5600ccdc375b09da5cf56065b23989cc9c1b76727ede7f8fea86',#17);
#19=CARTESIAN_POINT('',(0.00000000000000000E0,1.00000000000000000E0,1.00000000000000000E1));
#20=VERTEX_POINT('OSCAD_TOPO/3|vertex|v:c5ad3961a5ec04186b4eb078a1eb4267|8fd5977d95407c98cb2cf2c47bb7c0797d24b331e043ba04e1e79f57179791ad',#19);
#21=CARTESIAN_POINT('',(-1.00000000000000000E0,0.00000000000000000E0,1.00000000000000000E1));
#22=VERTEX_POINT('OSCAD_TOPO/3|vertex|v:ef1d790b638d92f1ecf9e9549f3b607a|12c28ce4d5676b040960d8277b90f9b20f5c3d975d6b54a4784c20ace007ed78',#21);
#23=CARTESIAN_POINT('',(0.00000000000000000E0,-1.00000000000000000E0,1.00000000000000000E1));
#24=VERTEX_POINT('OSCAD_TOPO/3|vertex|v:f9cb672842e09535cab34adf8c90d6ca|cab2a4c2433aa00d2b9c6557cbb9c39964f6f00df60504f982c48bbf338524b8',#23);
#25=CARTESIAN_POINT('',(1.00000000000000000E0,0.00000000000000000E0,0.00000000000000000E0));
#26=CARTESIAN_POINT('',(1.00000000000000000E0,0.00000000000000000E0,1.00000000000000000E0));
#27=CARTESIAN_POINT('',(1.00000000000000000E0,0.00000000000000000E0,2.00000000000000000E0));
#28=CARTESIAN_POINT('',(1.00000000000000000E0,0.00000000000000000E0,3.00000000000000000E0));
#29=CARTESIAN_POINT('',(1.00000000000000000E0,0.00000000000000000E0,4.00000000000000000E0));
#30=CARTESIAN_POINT('',(1.00000000000000000E0,0.00000000000000000E0,5.00000000000000000E0));
#31=CARTESIAN_POINT('',(1.00000000000000000E0,1.00000000000000000E0,0.00000000000000000E0));
#32=CARTESIAN_POINT('',(1.00000000000000000E0,1.00000000000000000E0,1.00000000000000000E0));
#33=CARTESIAN_POINT('',(1.00000000000000000E0,1.00000000000000000E0,2.00000000000000000E0));
#34=CARTESIAN_POINT('',(1.00000000000000000E0,1.00000000000000000E0,3.00000000000000000E0));
#35=CARTESIAN_POINT('',(1.00000000000000000E0,1.00000000000000000E0,4.00000000000000000E0));
#36=CARTESIAN_POINT('',(1.00000000000000000E0,1.00000000000000000E0,5.00000000000000000E0));
#37=CARTESIAN_POINT('',(0.00000000000000000E0,1.00000000000000000E0,0.00000000000000000E0));
#38=CARTESIAN_POINT('',(0.00000000000000000E0,1.00000000000000000E0,1.00000000000000000E0));
#39=CARTESIAN_POINT('',(0.00000000000000000E0,1.00000000000000000E0,2.00000000000000000E0));
#40=CARTESIAN_POINT('',(0.00000000000000000E0,1.00000000000000000E0,3.00000000000000000E0));
#41=CARTESIAN_POINT('',(0.00000000000000000E0,1.00000000000000000E0,4.00000000000000000E0));
#42=CARTESIAN_POINT('',(0.00000000000000000E0,1.00000000000000000E0,5.00000000000000000E0));
#43=(BOUNDED_SURFACE()B_SPLINE_SURFACE(2,5,((#25,#26,#27,#28,#29,#30),(#31,#32,#33,#34,#35,#36),(#37,#38,#39,#40,#41,#42)),.UNSPECIFIED.,.F.,.F.,.F.)B_SPLINE_SURFACE_WITH_KNOTS((3,3),(6,6),(0.00000000000000000E0,1.00000000000000000E0),(0.00000000000000000E0,1.00000000000000000E0),.UNSPECIFIED.)GEOMETRIC_REPRESENTATION_ITEM()RATIONAL_B_SPLINE_SURFACE(((1.00000000000000000E0,1.00000000000000000E0,1.00000000000000000E0,1.00000000000000000E0,1.00000000000000000E0,1.00000000000000000E0),(7.07106781186547573E-1,7.07106781186547573E-1,7.07106781186547573E-1,7.07106781186547573E-1,7.07106781186547573E-1,7.07106781186547573E-1),(1.00000000000000000E0,1.00000000000000000E0,1.00000000000000000E0,1.00000000000000000E0,1.00000000000000000E0,1.00000000000000000E0)))REPRESENTATION_ITEM('')SURFACE());
#44=CARTESIAN_POINT('',(0.00000000000000000E0,1.00000000000000000E0,0.00000000000000000E0));
#45=CARTESIAN_POINT('',(0.00000000000000000E0,1.00000000000000000E0,1.00000000000000000E0));
#46=CARTESIAN_POINT('',(0.00000000000000000E0,1.00000000000000000E0,2.00000000000000000E0));
#47=CARTESIAN_POINT('',(0.00000000000000000E0,1.00000000000000000E0,3.00000000000000000E0));
#48=CARTESIAN_POINT('',(0.00000000000000000E0,1.00000000000000000E0,4.00000000000000000E0));
#49=CARTESIAN_POINT('',(0.00000000000000000E0,1.00000000000000000E0,5.00000000000000000E0));
#50=CARTESIAN_POINT('',(-1.00000000000000000E0,1.00000000000000000E0,0.00000000000000000E0));
#51=CARTESIAN_POINT('',(-1.00000000000000000E0,1.00000000000000000E0,1.00000000000000000E0));
#52=CARTESIAN_POINT('',(-1.00000000000000000E0,1.00000000000000000E0,2.00000000000000000E0));
#53=CARTESIAN_POINT('',(-1.00000000000000000E0,1.00000000000000000E0,3.00000000000000000E0));
#54=CARTESIAN_POINT('',(-1.00000000000000000E0,1.00000000000000000E0,4.00000000000000000E0));
#55=CARTESIAN_POINT('',(-1.00000000000000000E0,1.00000000000000000E0,5.00000000000000000E0));
#56=CARTESIAN_POINT('',(-1.00000000000000000E0,0.00000000000000000E0,0.00000000000000000E0));
#57=CARTESIAN_POINT('',(-1.00000000000000000E0,0.00000000000000000E0,1.00000000000000000E0));
#58=CARTESIAN_POINT('',(-1.00000000000000000E0,0.00000000000000000E0,2.00000000000000000E0));
#59=CARTESIAN_POINT('',(-1.00000000000000000E0,0.00000000000000000E0,3.00000000000000000E0));
#60=CARTESIAN_POINT('',(-1.00000000000000000E0,0.00000000000000000E0,4.00000000000000000E0));
#61=CARTESIAN_POINT('',(-1.00000000000000000E0,0.00000000000000000E0,5.00000000000000000E0));
#62=(BOUNDED_SURFACE()B_SPLINE_SURFACE(2,5,((#44,#45,#46,#47,#48,#49),(#50,#51,#52,#53,#54,#55),(#56,#57,#58,#59,#60,#61)),.UNSPECIFIED.,.F.,.F.,.F.)B_SPLINE_SURFACE_WITH_KNOTS((3,3),(6,6),(0.00000000000000000E0,1.00000000000000000E0),(0.00000000000000000E0,1.00000000000000000E0),.UNSPECIFIED.)GEOMETRIC_REPRESENTATION_ITEM()RATIONAL_B_SPLINE_SURFACE(((1.00000000000000000E0,1.00000000000000000E0,1.00000000000000000E0,1.00000000000000000E0,1.00000000000000000E0,1.00000000000000000E0),(7.07106781186547573E-1,7.07106781186547573E-1,7.07106781186547573E-1,7.07106781186547573E-1,7.07106781186547573E-1,7.07106781186547573E-1),(1.00000000000000000E0,1.00000000000000000E0,1.00000000000000000E0,1.00000000000000000E0,1.00000000000000000E0,1.00000000000000000E0)))REPRESENTATION_ITEM('')SURFACE());
#63=CARTESIAN_POINT('',(-1.00000000000000000E0,0.00000000000000000E0,0.00000000000000000E0));
#64=CARTESIAN_POINT('',(-1.00000000000000000E0,0.00000000000000000E0,1.00000000000000000E0));
#65=CARTESIAN_POINT('',(-1.00000000000000000E0,0.00000000000000000E0,2.00000000000000000E0));
#66=CARTESIAN_POINT('',(-1.00000000000000000E0,0.00000000000000000E0,3.00000000000000000E0));
#67=CARTESIAN_POINT('',(-1.00000000000000000E0,0.00000000000000000E0,4.00000000000000000E0));
#68=CARTESIAN_POINT('',(-1.00000000000000000E0,0.00000000000000000E0,5.00000000000000000E0));
#69=CARTESIAN_POINT('',(-1.00000000000000000E0,-1.00000000000000000E0,0.00000000000000000E0));
#70=CARTESIAN_POINT('',(-1.00000000000000000E0,-1.00000000000000000E0,1.00000000000000000E0));
#71=CARTESIAN_POINT('',(-1.00000000000000000E0,-1.00000000000000000E0,2.00000000000000000E0));
#72=CARTESIAN_POINT('',(-1.00000000000000000E0,-1.00000000000000000E0,3.00000000000000000E0));
#73=CARTESIAN_POINT('',(-1.00000000000000000E0,-1.00000000000000000E0,4.00000000000000000E0));
#74=CARTESIAN_POINT('',(-1.00000000000000000E0,-1.00000000000000000E0,5.00000000000000000E0));
#75=CARTESIAN_POINT('',(0.00000000000000000E0,-1.00000000000000000E0,0.00000000000000000E0));
#76=CARTESIAN_POINT('',(0.00000000000000000E0,-1.00000000000000000E0,1.00000000000000000E0));
#77=CARTESIAN_POINT('',(0.00000000000000000E0,-1.00000000000000000E0,2.00000000000000000E0));
#78=CARTESIAN_POINT('',(0.00000000000000000E0,-1.00000000000000000E0,3.00000000000000000E0));
#79=CARTESIAN_POINT('',(0.00000000000000000E0,-1.00000000000000000E0,4.00000000000000000E0));
#80=CARTESIAN_POINT('',(0.00000000000000000E0,-1.00000000000000000E0,5.00000000000000000E0));
#81=(BOUNDED_SURFACE()B_SPLINE_SURFACE(2,5,((#63,#64,#65,#66,#67,#68),(#69,#70,#71,#72,#73,#74),(#75,#76,#77,#78,#79,#80)),.UNSPECIFIED.,.F.,.F.,.F.)B_SPLINE_SURFACE_WITH_KNOTS((3,3),(6,6),(0.00000000000000000E0,1.00000000000000000E0),(0.00000000000000000E0,1.00000000000000000E0),.UNSPECIFIED.)GEOMETRIC_REPRESENTATION_ITEM()RATIONAL_B_SPLINE_SURFACE(((1.00000000000000000E0,1.00000000000000000E0,1.00000000000000000E0,1.00000000000000000E0,1.00000000000000000E0,1.00000000000000000E0),(7.07106781186547573E-1,7.07106781186547573E-1,7.07106781186547573E-1,7.07106781186547573E-1,7.07106781186547573E-1,7.07106781186547573E-1),(1.00000000000000000E0,1.00000000000000000E0,1.00000000000000000E0,1.00000000000000000E0,1.00000000000000000E0,1.00000000000000000E0)))REPRESENTATION_ITEM('')SURFACE());
#82=CARTESIAN_POINT('',(0.00000000000000000E0,-1.00000000000000000E0,0.00000000000000000E0));
#83=CARTESIAN_POINT('',(0.00000000000000000E0,-1.00000000000000000E0,1.00000000000000000E0));
#84=CARTESIAN_POINT('',(0.00000000000000000E0,-1.00000000000000000E0,2.00000000000000000E0));
#85=CARTESIAN_POINT('',(0.00000000000000000E0,-1.00000000000000000E0,3.00000000000000000E0));
#86=CARTESIAN_POINT('',(0.00000000000000000E0,-1.00000000000000000E0,4.00000000000000000E0));
#87=CARTESIAN_POINT('',(0.00000000000000000E0,-1.00000000000000000E0,5.00000000000000000E0));
#88=CARTESIAN_POINT('',(1.00000000000000000E0,-1.00000000000000000E0,0.00000000000000000E0));
#89=CARTESIAN_POINT('',(1.00000000000000000E0,-1.00000000000000000E0,1.00000000000000000E0));
#90=CARTESIAN_POINT('',(1.00000000000000000E0,-1.00000000000000000E0,2.00000000000000000E0));
#91=CARTESIAN_POINT('',(1.00000000000000000E0,-1.00000000000000000E0,3.00000000000000000E0));
#92=CARTESIAN_POINT('',(1.00000000000000000E0,-1.00000000000000000E0,4.00000000000000000E0));
#93=CARTESIAN_POINT('',(1.00000000000000000E0,-1.00000000000000000E0,5.00000000000000000E0));
#94=CARTESIAN_POINT('',(1.00000000000000000E0,0.00000000000000000E0,0.00000000000000000E0));
#95=CARTESIAN_POINT('',(1.00000000000000000E0,0.00000000000000000E0,1.00000000000000000E0));
#96=CARTESIAN_POINT('',(1.00000000000000000E0,0.00000000000000000E0,2.00000000000000000E0));
#97=CARTESIAN_POINT('',(1.00000000000000000E0,0.00000000000000000E0,3.00000000000000000E0));
#98=CARTESIAN_POINT('',(1.00000000000000000E0,0.00000000000000000E0,4.00000000000000000E0));
#99=CARTESIAN_POINT('',(1.00000000000000000E0,0.00000000000000000E0,5.00000000000000000E0));
#100=(BOUNDED_SURFACE()B_SPLINE_SURFACE(2,5,((#82,#83,#84,#85,#86,#87),(#88,#89,#90,#91,#92,#93),(#94,#95,#96,#97,#98,#99)),.UNSPECIFIED.,.F.,.F.,.F.)B_SPLINE_SURFACE_WITH_KNOTS((3,3),(6,6),(0.00000000000000000E0,1.00000000000000000E0),(0.00000000000000000E0,1.00000000000000000E0),.UNSPECIFIED.)GEOMETRIC_REPRESENTATION_ITEM()RATIONAL_B_SPLINE_SURFACE(((1.00000000000000000E0,1.00000000000000000E0,1.00000000000000000E0,1.00000000000000000E0,1.00000000000000000E0,1.00000000000000000E0),(7.07106781186547573E-1,7.07106781186547573E-1,7.07106781186547573E-1,7.07106781186547573E-1,7.07106781186547573E-1,7.07106781186547573E-1),(1.00000000000000000E0,1.00000000000000000E0,1.00000000000000000E0,1.00000000000000000E0,1.00000000000000000E0,1.00000000000000000E0)))REPRESENTATION_ITEM('')SURFACE());
#101=CARTESIAN_POINT('',(1.00000000000000000E0,0.00000000000000000E0,5.00000000000000000E0));
#102=CARTESIAN_POINT('',(1.00000000000000000E0,0.00000000000000000E0,6.00000000000000000E0));
#103=CARTESIAN_POINT('',(1.00000000000000000E0,0.00000000000000000E0,7.00000000000000000E0));
#104=CARTESIAN_POINT('',(1.00000000000000000E0,0.00000000000000000E0,8.00000000000000000E0));
#105=CARTESIAN_POINT('',(1.00000000000000000E0,0.00000000000000000E0,9.00000000000000000E0));
#106=CARTESIAN_POINT('',(1.00000000000000000E0,0.00000000000000000E0,1.00000000000000000E1));
#107=CARTESIAN_POINT('',(1.00000000000000000E0,1.00000000000000000E0,5.00000000000000000E0));
#108=CARTESIAN_POINT('',(1.00000000000000000E0,1.00000000000000000E0,6.00000000000000000E0));
#109=CARTESIAN_POINT('',(1.00000000000000000E0,1.00000000000000000E0,7.00000000000000000E0));
#110=CARTESIAN_POINT('',(1.00000000000000000E0,1.00000000000000000E0,8.00000000000000000E0));
#111=CARTESIAN_POINT('',(1.00000000000000000E0,1.00000000000000000E0,9.00000000000000000E0));
#112=CARTESIAN_POINT('',(1.00000000000000000E0,1.00000000000000000E0,1.00000000000000000E1));
#113=CARTESIAN_POINT('',(0.00000000000000000E0,1.00000000000000000E0,5.00000000000000000E0));
#114=CARTESIAN_POINT('',(0.00000000000000000E0,1.00000000000000000E0,6.00000000000000000E0));
#115=CARTESIAN_POINT('',(0.00000000000000000E0,1.00000000000000000E0,7.00000000000000000E0));
#116=CARTESIAN_POINT('',(0.00000000000000000E0,1.00000000000000000E0,8.00000000000000000E0));
#117=CARTESIAN_POINT('',(0.00000000000000000E0,1.00000000000000000E0,9.00000000000000000E0));
#118=CARTESIAN_POINT('',(0.00000000000000000E0,1.00000000000000000E0,1.00000000000000000E1));
#119=(BOUNDED_SURFACE()B_SPLINE_SURFACE(2,5,((#101,#102,#103,#104,#105,#106),(#107,#108,#109,#110,#111,#112),(#113,#114,#115,#116,#117,#118)),.UNSPECIFIED.,.F.,.F.,.F.)B_SPLINE_SURFACE_WITH_KNOTS((3,3),(6,6),(0.00000000000000000E0,1.00000000000000000E0),(0.00000000000000000E0,1.00000000000000000E0),.UNSPECIFIED.)GEOMETRIC_REPRESENTATION_ITEM()RATIONAL_B_SPLINE_SURFACE(((1.00000000000000000E0,1.00000000000000000E0,1.00000000000000000E0,1.00000000000000000E0,1.00000000000000000E0,1.00000000000000000E0),(7.07106781186547573E-1,7.07106781186547573E-1,7.07106781186547573E-1,7.07106781186547573E-1,7.07106781186547573E-1,7.07106781186547573E-1),(1.00000000000000000E0,1.00000000000000000E0,1.00000000000000000E0,1.00000000000000000E0,1.00000000000000000E0,1.00000000000000000E0)))REPRESENTATION_ITEM('')SURFACE());
#120=CARTESIAN_POINT('',(0.00000000000000000E0,1.00000000000000000E0,5.00000000000000000E0));
#121=CARTESIAN_POINT('',(0.00000000000000000E0,1.00000000000000000E0,6.00000000000000000E0));
#122=CARTESIAN_POINT('',(0.00000000000000000E0,1.00000000000000000E0,7.00000000000000000E0));
#123=CARTESIAN_POINT('',(0.00000000000000000E0,1.00000000000000000E0,8.00000000000000000E0));
#124=CARTESIAN_POINT('',(0.00000000000000000E0,1.00000000000000000E0,9.00000000000000000E0));
#125=CARTESIAN_POINT('',(0.00000000000000000E0,1.00000000000000000E0,1.00000000000000000E1));
#126=CARTESIAN_POINT('',(-1.00000000000000000E0,1.00000000000000000E0,5.00000000000000000E0));
#127=CARTESIAN_POINT('',(-1.00000000000000000E0,1.00000000000000000E0,6.00000000000000000E0));
#128=CARTESIAN_POINT('',(-1.00000000000000000E0,1.00000000000000000E0,7.00000000000000000E0));
#129=CARTESIAN_POINT('',(-1.00000000000000000E0,1.00000000000000000E0,8.00000000000000000E0));
#130=CARTESIAN_POINT('',(-1.00000000000000000E0,1.00000000000000000E0,9.00000000000000000E0));
#131=CARTESIAN_POINT('',(-1.00000000000000000E0,1.00000000000000000E0,1.00000000000000000E1));
#132=CARTESIAN_POINT('',(-1.00000000000000000E0,0.00000000000000000E0,5.00000000000000000E0));
#133=CARTESIAN_POINT('',(-1.00000000000000000E0,0.00000000000000000E0,6.00000000000000000E0));
#134=CARTESIAN_POINT('',(-1.00000000000000000E0,0.00000000000000000E0,7.00000000000000000E0));
#135=CARTESIAN_POINT('',(-1.00000000000000000E0,0.00000000000000000E0,8.00000000000000000E0));
#136=CARTESIAN_POINT('',(-1.00000000000000000E0,0.00000000000000000E0,9.00000000000000000E0));
#137=CARTESIAN_POINT('',(-1.00000000000000000E0,0.00000000000000000E0,1.00000000000000000E1));
#138=(BOUNDED_SURFACE()B_SPLINE_SURFACE(2,5,((#120,#121,#122,#123,#124,#125),(#126,#127,#128,#129,#130,#131),(#132,#133,#134,#135,#136,#137)),.UNSPECIFIED.,.F.,.F.,.F.)B_SPLINE_SURFACE_WITH_KNOTS((3,3),(6,6),(0.00000000000000000E0,1.00000000000000000E0),(0.00000000000000000E0,1.00000000000000000E0),.UNSPECIFIED.)GEOMETRIC_REPRESENTATION_ITEM()RATIONAL_B_SPLINE_SURFACE(((1.00000000000000000E0,1.00000000000000000E0,1.00000000000000000E0,1.00000000000000000E0,1.00000000000000000E0,1.00000000000000000E0),(7.07106781186547573E-1,7.07106781186547573E-1,7.07106781186547573E-1,7.07106781186547573E-1,7.07106781186547573E-1,7.07106781186547573E-1),(1.00000000000000000E0,1.00000000000000000E0,1.00000000000000000E0,1.00000000000000000E0,1.00000000000000000E0,1.00000000000000000E0)))REPRESENTATION_ITEM('')SURFACE());
#139=CARTESIAN_POINT('',(-1.00000000000000000E0,0.00000000000000000E0,5.00000000000000000E0));
#140=CARTESIAN_POINT('',(-1.00000000000000000E0,0.00000000000000000E0,6.00000000000000000E0));
#141=CARTESIAN_POINT('',(-1.00000000000000000E0,0.00000000000000000E0,7.00000000000000000E0));
#142=CARTESIAN_POINT('',(-1.00000000000000000E0,0.00000000000000000E0,8.00000000000000000E0));
#143=CARTESIAN_POINT('',(-1.00000000000000000E0,0.00000000000000000E0,9.00000000000000000E0));
#144=CARTESIAN_POINT('',(-1.00000000000000000E0,0.00000000000000000E0,1.00000000000000000E1));
#145=CARTESIAN_POINT('',(-1.00000000000000000E0,-1.00000000000000000E0,5.00000000000000000E0));
#146=CARTESIAN_POINT('',(-1.00000000000000000E0,-1.00000000000000000E0,6.00000000000000000E0));
#147=CARTESIAN_POINT('',(-1.00000000000000000E0,-1.00000000000000000E0,7.00000000000000000E0));
#148=CARTESIAN_POINT('',(-1.00000000000000000E0,-1.00000000000000000E0,8.00000000000000000E0));
#149=CARTESIAN_POINT('',(-1.00000000000000000E0,-1.00000000000000000E0,9.00000000000000000E0));
#150=CARTESIAN_POINT('',(-1.00000000000000000E0,-1.00000000000000000E0,1.00000000000000000E1));
#151=CARTESIAN_POINT('',(0.00000000000000000E0,-1.00000000000000000E0,5.00000000000000000E0));
#152=CARTESIAN_POINT('',(0.00000000000000000E0,-1.00000000000000000E0,6.00000000000000000E0));
#153=CARTESIAN_POINT('',(0.00000000000000000E0,-1.00000000000000000E0,7.00000000000000000E0));
#154=CARTESIAN_POINT('',(0.00000000000000000E0,-1.00000000000000000E0,8.00000000000000000E0));
#155=CARTESIAN_POINT('',(0.00000000000000000E0,-1.00000000000000000E0,9.00000000000000000E0));
#156=CARTESIAN_POINT('',(0.00000000000000000E0,-1.00000000000000000E0,1.00000000000000000E1));
#157=(BOUNDED_SURFACE()B_SPLINE_SURFACE(2,5,((#139,#140,#141,#142,#143,#144),(#145,#146,#147,#148,#149,#150),(#151,#152,#153,#154,#155,#156)),.UNSPECIFIED.,.F.,.F.,.F.)B_SPLINE_SURFACE_WITH_KNOTS((3,3),(6,6),(0.00000000000000000E0,1.00000000000000000E0),(0.00000000000000000E0,1.00000000000000000E0),.UNSPECIFIED.)GEOMETRIC_REPRESENTATION_ITEM()RATIONAL_B_SPLINE_SURFACE(((1.00000000000000000E0,1.00000000000000000E0,1.00000000000000000E0,1.00000000000000000E0,1.00000000000000000E0,1.00000000000000000E0),(7.07106781186547573E-1,7.07106781186547573E-1,7.07106781186547573E-1,7.07106781186547573E-1,7.07106781186547573E-1,7.07106781186547573E-1),(1.00000000000000000E0,1.00000000000000000E0,1.00000000000000000E0,1.00000000000000000E0,1.00000000000000000E0,1.00000000000000000E0)))REPRESENTATION_ITEM('')SURFACE());
#158=CARTESIAN_POINT('',(0.00000000000000000E0,-1.00000000000000000E0,5.00000000000000000E0));
#159=CARTESIAN_POINT('',(0.00000000000000000E0,-1.00000000000000000E0,6.00000000000000000E0));
#160=CARTESIAN_POINT('',(0.00000000000000000E0,-1.00000000000000000E0,7.00000000000000000E0));
#161=CARTESIAN_POINT('',(0.00000000000000000E0,-1.00000000000000000E0,8.00000000000000000E0));
#162=CARTESIAN_POINT('',(0.00000000000000000E0,-1.00000000000000000E0,9.00000000000000000E0));
#163=CARTESIAN_POINT('',(0.00000000000000000E0,-1.00000000000000000E0,1.00000000000000000E1));
#164=CARTESIAN_POINT('',(1.00000000000000000E0,-1.00000000000000000E0,5.00000000000000000E0));
#165=CARTESIAN_POINT('',(1.00000000000000000E0,-1.00000000000000000E0,6.00000000000000000E0));
#166=CARTESIAN_POINT('',(1.00000000000000000E0,-1.00000000000000000E0,7.00000000000000000E0));
#167=CARTESIAN_POINT('',(1.00000000000000000E0,-1.00000000000000000E0,8.00000000000000000E0));
#168=CARTESIAN_POINT('',(1.00000000000000000E0,-1.00000000000000000E0,9.00000000000000000E0));
#169=CARTESIAN_POINT('',(1.00000000000000000E0,-1.00000000000000000E0,1.00000000000000000E1));
#170=CARTESIAN_POINT('',(1.00000000000000000E0,0.00000000000000000E0,5.00000000000000000E0));
#171=CARTESIAN_POINT('',(1.00000000000000000E0,0.00000000000000000E0,6.00000000000000000E0));
#172=CARTESIAN_POINT('',(1.00000000000000000E0,0.00000000000000000E0,7.00000000000000000E0));
#173=CARTESIAN_POINT('',(1.00000000000000000E0,0.00000000000000000E0,8.00000000000000000E0));
#174=CARTESIAN_POINT('',(1.00000000000000000E0,0.00000000000000000E0,9.00000000000000000E0));
#175=CARTESIAN_POINT('',(1.00000000000000000E0,0.00000000000000000E0,1.00000000000000000E1));
#176=(BOUNDED_SURFACE()B_SPLINE_SURFACE(2,5,((#158,#159,#160,#161,#162,#163),(#164,#165,#166,#167,#168,#169),(#170,#171,#172,#173,#174,#175)),.UNSPECIFIED.,.F.,.F.,.F.)B_SPLINE_SURFACE_WITH_KNOTS((3,3),(6,6),(0.00000000000000000E0,1.00000000000000000E0),(0.00000000000000000E0,1.00000000000000000E0),.UNSPECIFIED.)GEOMETRIC_REPRESENTATION_ITEM()RATIONAL_B_SPLINE_SURFACE(((1.00000000000000000E0,1.00000000000000000E0,1.00000000000000000E0,1.00000000000000000E0,1.00000000000000000E0,1.00000000000000000E0),(7.07106781186547573E-1,7.07106781186547573E-1,7.07106781186547573E-1,7.07106781186547573E-1,7.07106781186547573E-1,7.07106781186547573E-1),(1.00000000000000000E0,1.00000000000000000E0,1.00000000000000000E0,1.00000000000000000E0,1.00000000000000000E0,1.00000000000000000E0)))REPRESENTATION_ITEM('')SURFACE());
#177=CARTESIAN_POINT('',(1.00000000000000000E0,-1.00000000000000000E0,0.00000000000000000E0));
#178=CARTESIAN_POINT('',(1.00000000000000000E0,1.00000000000000000E0,0.00000000000000000E0));
#179=CARTESIAN_POINT('',(-1.00000000000000000E0,-1.00000000000000000E0,0.00000000000000000E0));
#180=CARTESIAN_POINT('',(-1.00000000000000000E0,1.00000000000000000E0,0.00000000000000000E0));
#181=B_SPLINE_SURFACE_WITH_KNOTS('',1,1,((#177,#178),(#179,#180)),.UNSPECIFIED.,.F.,.F.,.F.,(2,2),(2,2),(-1.00000000000000000E0,1.00000000000000000E0),(-1.00000000000000000E0,1.00000000000000000E0),.UNSPECIFIED.);
#182=CARTESIAN_POINT('',(-1.00000000000000000E0,-1.00000000000000000E0,1.00000000000000000E1));
#183=CARTESIAN_POINT('',(-1.00000000000000000E0,1.00000000000000000E0,1.00000000000000000E1));
#184=CARTESIAN_POINT('',(1.00000000000000000E0,-1.00000000000000000E0,1.00000000000000000E1));
#185=CARTESIAN_POINT('',(1.00000000000000000E0,1.00000000000000000E0,1.00000000000000000E1));
#186=B_SPLINE_SURFACE_WITH_KNOTS('',1,1,((#182,#183),(#184,#185)),.UNSPECIFIED.,.F.,.F.,.F.,(2,2),(2,2),(-1.00000000000000000E0,1.00000000000000000E0),(-1.00000000000000000E0,1.00000000000000000E0),.UNSPECIFIED.);
#187=CARTESIAN_POINT('',(1.00000000000000000E0,0.00000000000000000E0,0.00000000000000000E0));
#188=CARTESIAN_POINT('',(1.00000000000000000E0,1.00000000000000000E0,0.00000000000000000E0));
#189=CARTESIAN_POINT('',(0.00000000000000000E0,1.00000000000000000E0,0.00000000000000000E0));
#190=(BOUNDED_CURVE()B_SPLINE_CURVE(2,(#187,#188,#189),.UNSPECIFIED.,.F.,.F.)B_SPLINE_CURVE_WITH_KNOTS((3,3),(0.00000000000000000E0,1.00000000000000000E0),.UNSPECIFIED.)CURVE()GEOMETRIC_REPRESENTATION_ITEM()RATIONAL_B_SPLINE_CURVE((1.00000000000000000E0,7.07106781186547573E-1,1.00000000000000000E0))REPRESENTATION_ITEM(''));
#191=CARTESIAN_POINT('',(0.00000000000000000E0,1.00000000000000000E0,0.00000000000000000E0));
#192=CARTESIAN_POINT('',(0.00000000000000000E0,1.00000000000000000E0,1.00000000000000000E0));
#193=CARTESIAN_POINT('',(0.00000000000000000E0,1.00000000000000000E0,2.00000000000000000E0));
#194=CARTESIAN_POINT('',(0.00000000000000000E0,1.00000000000000000E0,3.00000000000000000E0));
#195=CARTESIAN_POINT('',(0.00000000000000000E0,1.00000000000000000E0,4.00000000000000000E0));
#196=CARTESIAN_POINT('',(0.00000000000000000E0,1.00000000000000000E0,5.00000000000000000E0));
#197=B_SPLINE_CURVE_WITH_KNOTS('',5,(#191,#192,#193,#194,#195,#196),.UNSPECIFIED.,.F.,.F.,(6,6),(0.00000000000000000E0,1.00000000000000000E0),.UNSPECIFIED.);
#198=CARTESIAN_POINT('',(1.00000000000000000E0,0.00000000000000000E0,5.00000000000000000E0));
#199=CARTESIAN_POINT('',(1.00000000000000000E0,1.00000000000000000E0,5.00000000000000000E0));
#200=CARTESIAN_POINT('',(0.00000000000000000E0,1.00000000000000000E0,5.00000000000000000E0));
#201=(BOUNDED_CURVE()B_SPLINE_CURVE(2,(#198,#199,#200),.UNSPECIFIED.,.F.,.F.)B_SPLINE_CURVE_WITH_KNOTS((3,3),(0.00000000000000000E0,1.00000000000000000E0),.UNSPECIFIED.)CURVE()GEOMETRIC_REPRESENTATION_ITEM()RATIONAL_B_SPLINE_CURVE((1.00000000000000000E0,7.07106781186547573E-1,1.00000000000000000E0))REPRESENTATION_ITEM(''));
#202=CARTESIAN_POINT('',(1.00000000000000000E0,0.00000000000000000E0,0.00000000000000000E0));
#203=CARTESIAN_POINT('',(1.00000000000000000E0,0.00000000000000000E0,1.00000000000000000E0));
#204=CARTESIAN_POINT('',(1.00000000000000000E0,0.00000000000000000E0,2.00000000000000000E0));
#205=CARTESIAN_POINT('',(1.00000000000000000E0,0.00000000000000000E0,3.00000000000000000E0));
#206=CARTESIAN_POINT('',(1.00000000000000000E0,0.00000000000000000E0,4.00000000000000000E0));
#207=CARTESIAN_POINT('',(1.00000000000000000E0,0.00000000000000000E0,5.00000000000000000E0));
#208=B_SPLINE_CURVE_WITH_KNOTS('',5,(#202,#203,#204,#205,#206,#207),.UNSPECIFIED.,.F.,.F.,(6,6),(0.00000000000000000E0,1.00000000000000000E0),.UNSPECIFIED.);
#209=CARTESIAN_POINT('',(0.00000000000000000E0,1.00000000000000000E0,0.00000000000000000E0));
#210=CARTESIAN_POINT('',(-1.00000000000000000E0,1.00000000000000000E0,0.00000000000000000E0));
#211=CARTESIAN_POINT('',(-1.00000000000000000E0,0.00000000000000000E0,0.00000000000000000E0));
#212=(BOUNDED_CURVE()B_SPLINE_CURVE(2,(#209,#210,#211),.UNSPECIFIED.,.F.,.F.)B_SPLINE_CURVE_WITH_KNOTS((3,3),(0.00000000000000000E0,1.00000000000000000E0),.UNSPECIFIED.)CURVE()GEOMETRIC_REPRESENTATION_ITEM()RATIONAL_B_SPLINE_CURVE((1.00000000000000000E0,7.07106781186547573E-1,1.00000000000000000E0))REPRESENTATION_ITEM(''));
#213=CARTESIAN_POINT('',(-1.00000000000000000E0,0.00000000000000000E0,0.00000000000000000E0));
#214=CARTESIAN_POINT('',(-1.00000000000000000E0,0.00000000000000000E0,1.00000000000000000E0));
#215=CARTESIAN_POINT('',(-1.00000000000000000E0,0.00000000000000000E0,2.00000000000000000E0));
#216=CARTESIAN_POINT('',(-1.00000000000000000E0,0.00000000000000000E0,3.00000000000000000E0));
#217=CARTESIAN_POINT('',(-1.00000000000000000E0,0.00000000000000000E0,4.00000000000000000E0));
#218=CARTESIAN_POINT('',(-1.00000000000000000E0,0.00000000000000000E0,5.00000000000000000E0));
#219=B_SPLINE_CURVE_WITH_KNOTS('',5,(#213,#214,#215,#216,#217,#218),.UNSPECIFIED.,.F.,.F.,(6,6),(0.00000000000000000E0,1.00000000000000000E0),.UNSPECIFIED.);
#220=CARTESIAN_POINT('',(0.00000000000000000E0,1.00000000000000000E0,5.00000000000000000E0));
#221=CARTESIAN_POINT('',(-1.00000000000000000E0,1.00000000000000000E0,5.00000000000000000E0));
#222=CARTESIAN_POINT('',(-1.00000000000000000E0,0.00000000000000000E0,5.00000000000000000E0));
#223=(BOUNDED_CURVE()B_SPLINE_CURVE(2,(#220,#221,#222),.UNSPECIFIED.,.F.,.F.)B_SPLINE_CURVE_WITH_KNOTS((3,3),(0.00000000000000000E0,1.00000000000000000E0),.UNSPECIFIED.)CURVE()GEOMETRIC_REPRESENTATION_ITEM()RATIONAL_B_SPLINE_CURVE((1.00000000000000000E0,7.07106781186547573E-1,1.00000000000000000E0))REPRESENTATION_ITEM(''));
#224=CARTESIAN_POINT('',(-1.00000000000000000E0,0.00000000000000000E0,0.00000000000000000E0));
#225=CARTESIAN_POINT('',(-1.00000000000000000E0,-1.00000000000000000E0,0.00000000000000000E0));
#226=CARTESIAN_POINT('',(0.00000000000000000E0,-1.00000000000000000E0,0.00000000000000000E0));
#227=(BOUNDED_CURVE()B_SPLINE_CURVE(2,(#224,#225,#226),.UNSPECIFIED.,.F.,.F.)B_SPLINE_CURVE_WITH_KNOTS((3,3),(0.00000000000000000E0,1.00000000000000000E0),.UNSPECIFIED.)CURVE()GEOMETRIC_REPRESENTATION_ITEM()RATIONAL_B_SPLINE_CURVE((1.00000000000000000E0,7.07106781186547573E-1,1.00000000000000000E0))REPRESENTATION_ITEM(''));
#228=CARTESIAN_POINT('',(0.00000000000000000E0,-1.00000000000000000E0,0.00000000000000000E0));
#229=CARTESIAN_POINT('',(0.00000000000000000E0,-1.00000000000000000E0,1.00000000000000000E0));
#230=CARTESIAN_POINT('',(0.00000000000000000E0,-1.00000000000000000E0,2.00000000000000000E0));
#231=CARTESIAN_POINT('',(0.00000000000000000E0,-1.00000000000000000E0,3.00000000000000000E0));
#232=CARTESIAN_POINT('',(0.00000000000000000E0,-1.00000000000000000E0,4.00000000000000000E0));
#233=CARTESIAN_POINT('',(0.00000000000000000E0,-1.00000000000000000E0,5.00000000000000000E0));
#234=B_SPLINE_CURVE_WITH_KNOTS('',5,(#228,#229,#230,#231,#232,#233),.UNSPECIFIED.,.F.,.F.,(6,6),(0.00000000000000000E0,1.00000000000000000E0),.UNSPECIFIED.);
#235=CARTESIAN_POINT('',(-1.00000000000000000E0,0.00000000000000000E0,5.00000000000000000E0));
#236=CARTESIAN_POINT('',(-1.00000000000000000E0,-1.00000000000000000E0,5.00000000000000000E0));
#237=CARTESIAN_POINT('',(0.00000000000000000E0,-1.00000000000000000E0,5.00000000000000000E0));
#238=(BOUNDED_CURVE()B_SPLINE_CURVE(2,(#235,#236,#237),.UNSPECIFIED.,.F.,.F.)B_SPLINE_CURVE_WITH_KNOTS((3,3),(0.00000000000000000E0,1.00000000000000000E0),.UNSPECIFIED.)CURVE()GEOMETRIC_REPRESENTATION_ITEM()RATIONAL_B_SPLINE_CURVE((1.00000000000000000E0,7.07106781186547573E-1,1.00000000000000000E0))REPRESENTATION_ITEM(''));
#239=CARTESIAN_POINT('',(1.00000000000000000E0,0.00000000000000000E0,0.00000000000000000E0));
#240=CARTESIAN_POINT('',(1.00000000000000000E0,-1.00000000000000000E0,0.00000000000000000E0));
#241=CARTESIAN_POINT('',(0.00000000000000000E0,-1.00000000000000000E0,0.00000000000000000E0));
#242=(BOUNDED_CURVE()B_SPLINE_CURVE(2,(#239,#240,#241),.UNSPECIFIED.,.F.,.F.)B_SPLINE_CURVE_WITH_KNOTS((3,3),(0.00000000000000000E0,1.00000000000000000E0),.UNSPECIFIED.)CURVE()GEOMETRIC_REPRESENTATION_ITEM()RATIONAL_B_SPLINE_CURVE((1.00000000000000000E0,7.07106781186547573E-1,1.00000000000000000E0))REPRESENTATION_ITEM(''));
#243=CARTESIAN_POINT('',(1.00000000000000000E0,0.00000000000000000E0,5.00000000000000000E0));
#244=CARTESIAN_POINT('',(1.00000000000000000E0,-1.00000000000000000E0,5.00000000000000000E0));
#245=CARTESIAN_POINT('',(0.00000000000000000E0,-1.00000000000000000E0,5.00000000000000000E0));
#246=(BOUNDED_CURVE()B_SPLINE_CURVE(2,(#243,#244,#245),.UNSPECIFIED.,.F.,.F.)B_SPLINE_CURVE_WITH_KNOTS((3,3),(0.00000000000000000E0,1.00000000000000000E0),.UNSPECIFIED.)CURVE()GEOMETRIC_REPRESENTATION_ITEM()RATIONAL_B_SPLINE_CURVE((1.00000000000000000E0,7.07106781186547573E-1,1.00000000000000000E0))REPRESENTATION_ITEM(''));
#247=CARTESIAN_POINT('',(0.00000000000000000E0,1.00000000000000000E0,5.00000000000000000E0));
#248=CARTESIAN_POINT('',(0.00000000000000000E0,1.00000000000000000E0,6.00000000000000000E0));
#249=CARTESIAN_POINT('',(0.00000000000000000E0,1.00000000000000000E0,7.00000000000000000E0));
#250=CARTESIAN_POINT('',(0.00000000000000000E0,1.00000000000000000E0,8.00000000000000000E0));
#251=CARTESIAN_POINT('',(0.00000000000000000E0,1.00000000000000000E0,9.00000000000000000E0));
#252=CARTESIAN_POINT('',(0.00000000000000000E0,1.00000000000000000E0,1.00000000000000000E1));
#253=B_SPLINE_CURVE_WITH_KNOTS('',5,(#247,#248,#249,#250,#251,#252),.UNSPECIFIED.,.F.,.F.,(6,6),(0.00000000000000000E0,1.00000000000000000E0),.UNSPECIFIED.);
#254=CARTESIAN_POINT('',(1.00000000000000000E0,0.00000000000000000E0,1.00000000000000000E1));
#255=CARTESIAN_POINT('',(1.00000000000000000E0,1.00000000000000000E0,1.00000000000000000E1));
#256=CARTESIAN_POINT('',(0.00000000000000000E0,1.00000000000000000E0,1.00000000000000000E1));
#257=(BOUNDED_CURVE()B_SPLINE_CURVE(2,(#254,#255,#256),.UNSPECIFIED.,.F.,.F.)B_SPLINE_CURVE_WITH_KNOTS((3,3),(0.00000000000000000E0,1.00000000000000000E0),.UNSPECIFIED.)CURVE()GEOMETRIC_REPRESENTATION_ITEM()RATIONAL_B_SPLINE_CURVE((1.00000000000000000E0,7.07106781186547573E-1,1.00000000000000000E0))REPRESENTATION_ITEM(''));
#258=CARTESIAN_POINT('',(1.00000000000000000E0,0.00000000000000000E0,5.00000000000000000E0));
#259=CARTESIAN_POINT('',(1.00000000000000000E0,0.00000000000000000E0,6.00000000000000000E0));
#260=CARTESIAN_POINT('',(1.00000000000000000E0,0.00000000000000000E0,7.00000000000000000E0));
#261=CARTESIAN_POINT('',(1.00000000000000000E0,0.00000000000000000E0,8.00000000000000000E0));
#262=CARTESIAN_POINT('',(1.00000000000000000E0,0.00000000000000000E0,9.00000000000000000E0));
#263=CARTESIAN_POINT('',(1.00000000000000000E0,0.00000000000000000E0,1.00000000000000000E1));
#264=B_SPLINE_CURVE_WITH_KNOTS('',5,(#258,#259,#260,#261,#262,#263),.UNSPECIFIED.,.F.,.F.,(6,6),(0.00000000000000000E0,1.00000000000000000E0),.UNSPECIFIED.);
#265=CARTESIAN_POINT('',(-1.00000000000000000E0,0.00000000000000000E0,5.00000000000000000E0));
#266=CARTESIAN_POINT('',(-1.00000000000000000E0,0.00000000000000000E0,6.00000000000000000E0));
#267=CARTESIAN_POINT('',(-1.00000000000000000E0,0.00000000000000000E0,7.00000000000000000E0));
#268=CARTESIAN_POINT('',(-1.00000000000000000E0,0.00000000000000000E0,8.00000000000000000E0));
#269=CARTESIAN_POINT('',(-1.00000000000000000E0,0.00000000000000000E0,9.00000000000000000E0));
#270=CARTESIAN_POINT('',(-1.00000000000000000E0,0.00000000000000000E0,1.00000000000000000E1));
#271=B_SPLINE_CURVE_WITH_KNOTS('',5,(#265,#266,#267,#268,#269,#270),.UNSPECIFIED.,.F.,.F.,(6,6),(0.00000000000000000E0,1.00000000000000000E0),.UNSPECIFIED.);
#272=CARTESIAN_POINT('',(0.00000000000000000E0,1.00000000000000000E0,1.00000000000000000E1));
#273=CARTESIAN_POINT('',(-1.00000000000000000E0,1.00000000000000000E0,1.00000000000000000E1));
#274=CARTESIAN_POINT('',(-1.00000000000000000E0,0.00000000000000000E0,1.00000000000000000E1));
#275=(BOUNDED_CURVE()B_SPLINE_CURVE(2,(#272,#273,#274),.UNSPECIFIED.,.F.,.F.)B_SPLINE_CURVE_WITH_KNOTS((3,3),(0.00000000000000000E0,1.00000000000000000E0),.UNSPECIFIED.)CURVE()GEOMETRIC_REPRESENTATION_ITEM()RATIONAL_B_SPLINE_CURVE((1.00000000000000000E0,7.07106781186547573E-1,1.00000000000000000E0))REPRESENTATION_ITEM(''));
#276=CARTESIAN_POINT('',(0.00000000000000000E0,-1.00000000000000000E0,5.00000000000000000E0));
#277=CARTESIAN_POINT('',(0.00000000000000000E0,-1.00000000000000000E0,6.00000000000000000E0));
#278=CARTESIAN_POINT('',(0.00000000000000000E0,-1.00000000000000000E0,7.00000000000000000E0));
#279=CARTESIAN_POINT('',(0.00000000000000000E0,-1.00000000000000000E0,8.00000000000000000E0));
#280=CARTESIAN_POINT('',(0.00000000000000000E0,-1.00000000000000000E0,9.00000000000000000E0));
#281=CARTESIAN_POINT('',(0.00000000000000000E0,-1.00000000000000000E0,1.00000000000000000E1));
#282=B_SPLINE_CURVE_WITH_KNOTS('',5,(#276,#277,#278,#279,#280,#281),.UNSPECIFIED.,.F.,.F.,(6,6),(0.00000000000000000E0,1.00000000000000000E0),.UNSPECIFIED.);
#283=CARTESIAN_POINT('',(-1.00000000000000000E0,0.00000000000000000E0,1.00000000000000000E1));
#284=CARTESIAN_POINT('',(-1.00000000000000000E0,-1.00000000000000000E0,1.00000000000000000E1));
#285=CARTESIAN_POINT('',(0.00000000000000000E0,-1.00000000000000000E0,1.00000000000000000E1));
#286=(BOUNDED_CURVE()B_SPLINE_CURVE(2,(#283,#284,#285),.UNSPECIFIED.,.F.,.F.)B_SPLINE_CURVE_WITH_KNOTS((3,3),(0.00000000000000000E0,1.00000000000000000E0),.UNSPECIFIED.)CURVE()GEOMETRIC_REPRESENTATION_ITEM()RATIONAL_B_SPLINE_CURVE((1.00000000000000000E0,7.07106781186547573E-1,1.00000000000000000E0))REPRESENTATION_ITEM(''));
#287=CARTESIAN_POINT('',(1.00000000000000000E0,0.00000000000000000E0,1.00000000000000000E1));
#288=CARTESIAN_POINT('',(1.00000000000000000E0,-1.00000000000000000E0,1.00000000000000000E1));
#289=CARTESIAN_POINT('',(0.00000000000000000E0,-1.00000000000000000E0,1.00000000000000000E1));
#290=(BOUNDED_CURVE()B_SPLINE_CURVE(2,(#287,#288,#289),.UNSPECIFIED.,.F.,.F.)B_SPLINE_CURVE_WITH_KNOTS((3,3),(0.00000000000000000E0,1.00000000000000000E0),.UNSPECIFIED.)CURVE()GEOMETRIC_REPRESENTATION_ITEM()RATIONAL_B_SPLINE_CURVE((1.00000000000000000E0,7.07106781186547573E-1,1.00000000000000000E0))REPRESENTATION_ITEM(''));
#291=(GEOMETRIC_REPRESENTATION_CONTEXT(2)REPRESENTATION_CONTEXT('','2D'));
#292=CARTESIAN_POINT('',(0.00000000000000000E0,0.00000000000000000E0));
#293=CARTESIAN_POINT('',(1.00000000000000000E0,0.00000000000000000E0));
#294=B_SPLINE_CURVE_WITH_KNOTS('',1,(#292,#293),.UNSPECIFIED.,.F.,.F.,(2,2),(0.00000000000000000E0,1.00000000000000000E0),.UNSPECIFIED.);
#295=DEFINITIONAL_REPRESENTATION('',(#294),#291);
#296=PCURVE('',#43,#295);
#297=CARTESIAN_POINT('',(1.00000000000000000E0,0.00000000000000000E0));
#298=CARTESIAN_POINT('',(1.00000000000000000E0,1.00000000000000000E0));
#299=B_SPLINE_CURVE_WITH_KNOTS('',1,(#297,#298),.UNSPECIFIED.,.F.,.F.,(2,2),(0.00000000000000000E0,1.00000000000000000E0),.UNSPECIFIED.);
#300=DEFINITIONAL_REPRESENTATION('',(#299),#291);
#301=PCURVE('',#43,#300);
#302=CARTESIAN_POINT('',(1.00000000000000000E0,1.00000000000000000E0));
#303=CARTESIAN_POINT('',(0.00000000000000000E0,1.00000000000000000E0));
#304=B_SPLINE_CURVE_WITH_KNOTS('',1,(#302,#303),.UNSPECIFIED.,.F.,.F.,(2,2),(0.00000000000000000E0,1.00000000000000000E0),.UNSPECIFIED.);
#305=DEFINITIONAL_REPRESENTATION('',(#304),#291);
#306=PCURVE('',#43,#305);
#307=CARTESIAN_POINT('',(0.00000000000000000E0,1.00000000000000000E0));
#308=CARTESIAN_POINT('',(0.00000000000000000E0,0.00000000000000000E0));
#309=B_SPLINE_CURVE_WITH_KNOTS('',1,(#307,#308),.UNSPECIFIED.,.F.,.F.,(2,2),(0.00000000000000000E0,1.00000000000000000E0),.UNSPECIFIED.);
#310=DEFINITIONAL_REPRESENTATION('',(#309),#291);
#311=PCURVE('',#43,#310);
#312=CARTESIAN_POINT('',(0.00000000000000000E0,0.00000000000000000E0));
#313=CARTESIAN_POINT('',(1.00000000000000000E0,0.00000000000000000E0));
#314=B_SPLINE_CURVE_WITH_KNOTS('',1,(#312,#313),.UNSPECIFIED.,.F.,.F.,(2,2),(0.00000000000000000E0,1.00000000000000000E0),.UNSPECIFIED.);
#315=DEFINITIONAL_REPRESENTATION('',(#314),#291);
#316=PCURVE('',#62,#315);
#317=CARTESIAN_POINT('',(1.00000000000000000E0,0.00000000000000000E0));
#318=CARTESIAN_POINT('',(1.00000000000000000E0,1.00000000000000000E0));
#319=B_SPLINE_CURVE_WITH_KNOTS('',1,(#317,#318),.UNSPECIFIED.,.F.,.F.,(2,2),(0.00000000000000000E0,1.00000000000000000E0),.UNSPECIFIED.);
#320=DEFINITIONAL_REPRESENTATION('',(#319),#291);
#321=PCURVE('',#62,#320);
#322=CARTESIAN_POINT('',(1.00000000000000000E0,1.00000000000000000E0));
#323=CARTESIAN_POINT('',(0.00000000000000000E0,1.00000000000000000E0));
#324=B_SPLINE_CURVE_WITH_KNOTS('',1,(#322,#323),.UNSPECIFIED.,.F.,.F.,(2,2),(0.00000000000000000E0,1.00000000000000000E0),.UNSPECIFIED.);
#325=DEFINITIONAL_REPRESENTATION('',(#324),#291);
#326=PCURVE('',#62,#325);
#327=CARTESIAN_POINT('',(0.00000000000000000E0,1.00000000000000000E0));
#328=CARTESIAN_POINT('',(0.00000000000000000E0,0.00000000000000000E0));
#329=B_SPLINE_CURVE_WITH_KNOTS('',1,(#327,#328),.UNSPECIFIED.,.F.,.F.,(2,2),(0.00000000000000000E0,1.00000000000000000E0),.UNSPECIFIED.);
#330=DEFINITIONAL_REPRESENTATION('',(#329),#291);
#331=PCURVE('',#62,#330);
#332=CARTESIAN_POINT('',(0.00000000000000000E0,0.00000000000000000E0));
#333=CARTESIAN_POINT('',(1.00000000000000000E0,0.00000000000000000E0));
#334=B_SPLINE_CURVE_WITH_KNOTS('',1,(#332,#333),.UNSPECIFIED.,.F.,.F.,(2,2),(0.00000000000000000E0,1.00000000000000000E0),.UNSPECIFIED.);
#335=DEFINITIONAL_REPRESENTATION('',(#334),#291);
#336=PCURVE('',#81,#335);
#337=CARTESIAN_POINT('',(1.00000000000000000E0,0.00000000000000000E0));
#338=CARTESIAN_POINT('',(1.00000000000000000E0,1.00000000000000000E0));
#339=B_SPLINE_CURVE_WITH_KNOTS('',1,(#337,#338),.UNSPECIFIED.,.F.,.F.,(2,2),(0.00000000000000000E0,1.00000000000000000E0),.UNSPECIFIED.);
#340=DEFINITIONAL_REPRESENTATION('',(#339),#291);
#341=PCURVE('',#81,#340);
#342=CARTESIAN_POINT('',(1.00000000000000000E0,1.00000000000000000E0));
#343=CARTESIAN_POINT('',(0.00000000000000000E0,1.00000000000000000E0));
#344=B_SPLINE_CURVE_WITH_KNOTS('',1,(#342,#343),.UNSPECIFIED.,.F.,.F.,(2,2),(0.00000000000000000E0,1.00000000000000000E0),.UNSPECIFIED.);
#345=DEFINITIONAL_REPRESENTATION('',(#344),#291);
#346=PCURVE('',#81,#345);
#347=CARTESIAN_POINT('',(0.00000000000000000E0,1.00000000000000000E0));
#348=CARTESIAN_POINT('',(0.00000000000000000E0,0.00000000000000000E0));
#349=B_SPLINE_CURVE_WITH_KNOTS('',1,(#347,#348),.UNSPECIFIED.,.F.,.F.,(2,2),(0.00000000000000000E0,1.00000000000000000E0),.UNSPECIFIED.);
#350=DEFINITIONAL_REPRESENTATION('',(#349),#291);
#351=PCURVE('',#81,#350);
#352=CARTESIAN_POINT('',(0.00000000000000000E0,0.00000000000000000E0));
#353=CARTESIAN_POINT('',(1.00000000000000000E0,0.00000000000000000E0));
#354=B_SPLINE_CURVE_WITH_KNOTS('',1,(#352,#353),.UNSPECIFIED.,.F.,.F.,(2,2),(0.00000000000000000E0,1.00000000000000000E0),.UNSPECIFIED.);
#355=DEFINITIONAL_REPRESENTATION('',(#354),#291);
#356=PCURVE('',#100,#355);
#357=CARTESIAN_POINT('',(1.00000000000000000E0,0.00000000000000000E0));
#358=CARTESIAN_POINT('',(1.00000000000000000E0,1.00000000000000000E0));
#359=B_SPLINE_CURVE_WITH_KNOTS('',1,(#357,#358),.UNSPECIFIED.,.F.,.F.,(2,2),(0.00000000000000000E0,1.00000000000000000E0),.UNSPECIFIED.);
#360=DEFINITIONAL_REPRESENTATION('',(#359),#291);
#361=PCURVE('',#100,#360);
#362=CARTESIAN_POINT('',(1.00000000000000000E0,1.00000000000000000E0));
#363=CARTESIAN_POINT('',(0.00000000000000000E0,1.00000000000000000E0));
#364=B_SPLINE_CURVE_WITH_KNOTS('',1,(#362,#363),.UNSPECIFIED.,.F.,.F.,(2,2),(0.00000000000000000E0,1.00000000000000000E0),.UNSPECIFIED.);
#365=DEFINITIONAL_REPRESENTATION('',(#364),#291);
#366=PCURVE('',#100,#365);
#367=CARTESIAN_POINT('',(0.00000000000000000E0,1.00000000000000000E0));
#368=CARTESIAN_POINT('',(0.00000000000000000E0,0.00000000000000000E0));
#369=B_SPLINE_CURVE_WITH_KNOTS('',1,(#367,#368),.UNSPECIFIED.,.F.,.F.,(2,2),(0.00000000000000000E0,1.00000000000000000E0),.UNSPECIFIED.);
#370=DEFINITIONAL_REPRESENTATION('',(#369),#291);
#371=PCURVE('',#100,#370);
#372=CARTESIAN_POINT('',(0.00000000000000000E0,0.00000000000000000E0));
#373=CARTESIAN_POINT('',(1.00000000000000000E0,0.00000000000000000E0));
#374=B_SPLINE_CURVE_WITH_KNOTS('',1,(#372,#373),.UNSPECIFIED.,.F.,.F.,(2,2),(0.00000000000000000E0,1.00000000000000000E0),.UNSPECIFIED.);
#375=DEFINITIONAL_REPRESENTATION('',(#374),#291);
#376=PCURVE('',#119,#375);
#377=CARTESIAN_POINT('',(1.00000000000000000E0,0.00000000000000000E0));
#378=CARTESIAN_POINT('',(1.00000000000000000E0,1.00000000000000000E0));
#379=B_SPLINE_CURVE_WITH_KNOTS('',1,(#377,#378),.UNSPECIFIED.,.F.,.F.,(2,2),(0.00000000000000000E0,1.00000000000000000E0),.UNSPECIFIED.);
#380=DEFINITIONAL_REPRESENTATION('',(#379),#291);
#381=PCURVE('',#119,#380);
#382=CARTESIAN_POINT('',(1.00000000000000000E0,1.00000000000000000E0));
#383=CARTESIAN_POINT('',(0.00000000000000000E0,1.00000000000000000E0));
#384=B_SPLINE_CURVE_WITH_KNOTS('',1,(#382,#383),.UNSPECIFIED.,.F.,.F.,(2,2),(0.00000000000000000E0,1.00000000000000000E0),.UNSPECIFIED.);
#385=DEFINITIONAL_REPRESENTATION('',(#384),#291);
#386=PCURVE('',#119,#385);
#387=CARTESIAN_POINT('',(0.00000000000000000E0,1.00000000000000000E0));
#388=CARTESIAN_POINT('',(0.00000000000000000E0,0.00000000000000000E0));
#389=B_SPLINE_CURVE_WITH_KNOTS('',1,(#387,#388),.UNSPECIFIED.,.F.,.F.,(2,2),(0.00000000000000000E0,1.00000000000000000E0),.UNSPECIFIED.);
#390=DEFINITIONAL_REPRESENTATION('',(#389),#291);
#391=PCURVE('',#119,#390);
#392=CARTESIAN_POINT('',(0.00000000000000000E0,0.00000000000000000E0));
#393=CARTESIAN_POINT('',(1.00000000000000000E0,0.00000000000000000E0));
#394=B_SPLINE_CURVE_WITH_KNOTS('',1,(#392,#393),.UNSPECIFIED.,.F.,.F.,(2,2),(0.00000000000000000E0,1.00000000000000000E0),.UNSPECIFIED.);
#395=DEFINITIONAL_REPRESENTATION('',(#394),#291);
#396=PCURVE('',#138,#395);
#397=CARTESIAN_POINT('',(1.00000000000000000E0,0.00000000000000000E0));
#398=CARTESIAN_POINT('',(1.00000000000000000E0,1.00000000000000000E0));
#399=B_SPLINE_CURVE_WITH_KNOTS('',1,(#397,#398),.UNSPECIFIED.,.F.,.F.,(2,2),(0.00000000000000000E0,1.00000000000000000E0),.UNSPECIFIED.);
#400=DEFINITIONAL_REPRESENTATION('',(#399),#291);
#401=PCURVE('',#138,#400);
#402=CARTESIAN_POINT('',(1.00000000000000000E0,1.00000000000000000E0));
#403=CARTESIAN_POINT('',(0.00000000000000000E0,1.00000000000000000E0));
#404=B_SPLINE_CURVE_WITH_KNOTS('',1,(#402,#403),.UNSPECIFIED.,.F.,.F.,(2,2),(0.00000000000000000E0,1.00000000000000000E0),.UNSPECIFIED.);
#405=DEFINITIONAL_REPRESENTATION('',(#404),#291);
#406=PCURVE('',#138,#405);
#407=CARTESIAN_POINT('',(0.00000000000000000E0,1.00000000000000000E0));
#408=CARTESIAN_POINT('',(0.00000000000000000E0,0.00000000000000000E0));
#409=B_SPLINE_CURVE_WITH_KNOTS('',1,(#407,#408),.UNSPECIFIED.,.F.,.F.,(2,2),(0.00000000000000000E0,1.00000000000000000E0),.UNSPECIFIED.);
#410=DEFINITIONAL_REPRESENTATION('',(#409),#291);
#411=PCURVE('',#138,#410);
#412=CARTESIAN_POINT('',(0.00000000000000000E0,0.00000000000000000E0));
#413=CARTESIAN_POINT('',(1.00000000000000000E0,0.00000000000000000E0));
#414=B_SPLINE_CURVE_WITH_KNOTS('',1,(#412,#413),.UNSPECIFIED.,.F.,.F.,(2,2),(0.00000000000000000E0,1.00000000000000000E0),.UNSPECIFIED.);
#415=DEFINITIONAL_REPRESENTATION('',(#414),#291);
#416=PCURVE('',#157,#415);
#417=CARTESIAN_POINT('',(1.00000000000000000E0,0.00000000000000000E0));
#418=CARTESIAN_POINT('',(1.00000000000000000E0,1.00000000000000000E0));
#419=B_SPLINE_CURVE_WITH_KNOTS('',1,(#417,#418),.UNSPECIFIED.,.F.,.F.,(2,2),(0.00000000000000000E0,1.00000000000000000E0),.UNSPECIFIED.);
#420=DEFINITIONAL_REPRESENTATION('',(#419),#291);
#421=PCURVE('',#157,#420);
#422=CARTESIAN_POINT('',(1.00000000000000000E0,1.00000000000000000E0));
#423=CARTESIAN_POINT('',(0.00000000000000000E0,1.00000000000000000E0));
#424=B_SPLINE_CURVE_WITH_KNOTS('',1,(#422,#423),.UNSPECIFIED.,.F.,.F.,(2,2),(0.00000000000000000E0,1.00000000000000000E0),.UNSPECIFIED.);
#425=DEFINITIONAL_REPRESENTATION('',(#424),#291);
#426=PCURVE('',#157,#425);
#427=CARTESIAN_POINT('',(0.00000000000000000E0,1.00000000000000000E0));
#428=CARTESIAN_POINT('',(0.00000000000000000E0,0.00000000000000000E0));
#429=B_SPLINE_CURVE_WITH_KNOTS('',1,(#427,#428),.UNSPECIFIED.,.F.,.F.,(2,2),(0.00000000000000000E0,1.00000000000000000E0),.UNSPECIFIED.);
#430=DEFINITIONAL_REPRESENTATION('',(#429),#291);
#431=PCURVE('',#157,#430);
#432=CARTESIAN_POINT('',(0.00000000000000000E0,0.00000000000000000E0));
#433=CARTESIAN_POINT('',(1.00000000000000000E0,0.00000000000000000E0));
#434=B_SPLINE_CURVE_WITH_KNOTS('',1,(#432,#433),.UNSPECIFIED.,.F.,.F.,(2,2),(0.00000000000000000E0,1.00000000000000000E0),.UNSPECIFIED.);
#435=DEFINITIONAL_REPRESENTATION('',(#434),#291);
#436=PCURVE('',#176,#435);
#437=CARTESIAN_POINT('',(1.00000000000000000E0,0.00000000000000000E0));
#438=CARTESIAN_POINT('',(1.00000000000000000E0,1.00000000000000000E0));
#439=B_SPLINE_CURVE_WITH_KNOTS('',1,(#437,#438),.UNSPECIFIED.,.F.,.F.,(2,2),(0.00000000000000000E0,1.00000000000000000E0),.UNSPECIFIED.);
#440=DEFINITIONAL_REPRESENTATION('',(#439),#291);
#441=PCURVE('',#176,#440);
#442=CARTESIAN_POINT('',(1.00000000000000000E0,1.00000000000000000E0));
#443=CARTESIAN_POINT('',(0.00000000000000000E0,1.00000000000000000E0));
#444=B_SPLINE_CURVE_WITH_KNOTS('',1,(#442,#443),.UNSPECIFIED.,.F.,.F.,(2,2),(0.00000000000000000E0,1.00000000000000000E0),.UNSPECIFIED.);
#445=DEFINITIONAL_REPRESENTATION('',(#444),#291);
#446=PCURVE('',#176,#445);
#447=CARTESIAN_POINT('',(0.00000000000000000E0,1.00000000000000000E0));
#448=CARTESIAN_POINT('',(0.00000000000000000E0,0.00000000000000000E0));
#449=B_SPLINE_CURVE_WITH_KNOTS('',1,(#447,#448),.UNSPECIFIED.,.F.,.F.,(2,2),(0.00000000000000000E0,1.00000000000000000E0),.UNSPECIFIED.);
#450=DEFINITIONAL_REPRESENTATION('',(#449),#291);
#451=PCURVE('',#176,#450);
#452=CARTESIAN_POINT('',(-1.00000000000000000E0,0.00000000000000000E0));
#453=CARTESIAN_POINT('',(-1.00000000000000000E0,-1.00000000000000000E0));
#454=CARTESIAN_POINT('',(0.00000000000000000E0,-1.00000000000000000E0));
#455=(BOUNDED_CURVE()B_SPLINE_CURVE(2,(#452,#453,#454),.UNSPECIFIED.,.F.,.F.)B_SPLINE_CURVE_WITH_KNOTS((3,3),(0.00000000000000000E0,1.00000000000000000E0),.UNSPECIFIED.)CURVE()GEOMETRIC_REPRESENTATION_ITEM()RATIONAL_B_SPLINE_CURVE((1.00000000000000000E0,7.07106781186547573E-1,1.00000000000000000E0))REPRESENTATION_ITEM(''));
#456=DEFINITIONAL_REPRESENTATION('',(#455),#291);
#457=PCURVE('',#181,#456);
#458=CARTESIAN_POINT('',(0.00000000000000000E0,-1.00000000000000000E0));
#459=CARTESIAN_POINT('',(1.00000000000000000E0,-1.00000000000000000E0));
#460=CARTESIAN_POINT('',(1.00000000000000000E0,0.00000000000000000E0));
#461=(BOUNDED_CURVE()B_SPLINE_CURVE(2,(#458,#459,#460),.UNSPECIFIED.,.F.,.F.)B_SPLINE_CURVE_WITH_KNOTS((3,3),(0.00000000000000000E0,1.00000000000000000E0),.UNSPECIFIED.)CURVE()GEOMETRIC_REPRESENTATION_ITEM()RATIONAL_B_SPLINE_CURVE((1.00000000000000000E0,7.07106781186547573E-1,1.00000000000000000E0))REPRESENTATION_ITEM(''));
#462=DEFINITIONAL_REPRESENTATION('',(#461),#291);
#463=PCURVE('',#181,#462);
#464=CARTESIAN_POINT('',(1.00000000000000000E0,0.00000000000000000E0));
#465=CARTESIAN_POINT('',(1.00000000000000000E0,1.00000000000000000E0));
#466=CARTESIAN_POINT('',(0.00000000000000000E0,1.00000000000000000E0));
#467=(BOUNDED_CURVE()B_SPLINE_CURVE(2,(#464,#465,#466),.UNSPECIFIED.,.F.,.F.)B_SPLINE_CURVE_WITH_KNOTS((3,3),(0.00000000000000000E0,1.00000000000000000E0),.UNSPECIFIED.)CURVE()GEOMETRIC_REPRESENTATION_ITEM()RATIONAL_B_SPLINE_CURVE((1.00000000000000000E0,7.07106781186547573E-1,1.00000000000000000E0))REPRESENTATION_ITEM(''));
#468=DEFINITIONAL_REPRESENTATION('',(#467),#291);
#469=PCURVE('',#181,#468);
#470=CARTESIAN_POINT('',(0.00000000000000000E0,1.00000000000000000E0));
#471=CARTESIAN_POINT('',(-1.00000000000000000E0,1.00000000000000000E0));
#472=CARTESIAN_POINT('',(-1.00000000000000000E0,0.00000000000000000E0));
#473=(BOUNDED_CURVE()B_SPLINE_CURVE(2,(#470,#471,#472),.UNSPECIFIED.,.F.,.F.)B_SPLINE_CURVE_WITH_KNOTS((3,3),(0.00000000000000000E0,1.00000000000000000E0),.UNSPECIFIED.)CURVE()GEOMETRIC_REPRESENTATION_ITEM()RATIONAL_B_SPLINE_CURVE((1.00000000000000000E0,7.07106781186547573E-1,1.00000000000000000E0))REPRESENTATION_ITEM(''));
#474=DEFINITIONAL_REPRESENTATION('',(#473),#291);
#475=PCURVE('',#181,#474);
#476=CARTESIAN_POINT('',(1.00000000000000000E0,0.00000000000000000E0));
#477=CARTESIAN_POINT('',(1.00000000000000000E0,1.00000000000000000E0));
#478=CARTESIAN_POINT('',(0.00000000000000000E0,1.00000000000000000E0));
#479=(BOUNDED_CURVE()B_SPLINE_CURVE(2,(#476,#477,#478),.UNSPECIFIED.,.F.,.F.)B_SPLINE_CURVE_WITH_KNOTS((3,3),(0.00000000000000000E0,1.00000000000000000E0),.UNSPECIFIED.)CURVE()GEOMETRIC_REPRESENTATION_ITEM()RATIONAL_B_SPLINE_CURVE((1.00000000000000000E0,7.07106781186547573E-1,1.00000000000000000E0))REPRESENTATION_ITEM(''));
#480=DEFINITIONAL_REPRESENTATION('',(#479),#291);
#481=PCURVE('',#186,#480);
#482=CARTESIAN_POINT('',(0.00000000000000000E0,1.00000000000000000E0));
#483=CARTESIAN_POINT('',(-1.00000000000000000E0,1.00000000000000000E0));
#484=CARTESIAN_POINT('',(-1.00000000000000000E0,0.00000000000000000E0));
#485=(BOUNDED_CURVE()B_SPLINE_CURVE(2,(#482,#483,#484),.UNSPECIFIED.,.F.,.F.)B_SPLINE_CURVE_WITH_KNOTS((3,3),(0.00000000000000000E0,1.00000000000000000E0),.UNSPECIFIED.)CURVE()GEOMETRIC_REPRESENTATION_ITEM()RATIONAL_B_SPLINE_CURVE((1.00000000000000000E0,7.07106781186547573E-1,1.00000000000000000E0))REPRESENTATION_ITEM(''));
#486=DEFINITIONAL_REPRESENTATION('',(#485),#291);
#487=PCURVE('',#186,#486);
#488=CARTESIAN_POINT('',(-1.00000000000000000E0,0.00000000000000000E0));
#489=CARTESIAN_POINT('',(-1.00000000000000000E0,-1.00000000000000000E0));
#490=CARTESIAN_POINT('',(0.00000000000000000E0,-1.00000000000000000E0));
#491=(BOUNDED_CURVE()B_SPLINE_CURVE(2,(#488,#489,#490),.UNSPECIFIED.,.F.,.F.)B_SPLINE_CURVE_WITH_KNOTS((3,3),(0.00000000000000000E0,1.00000000000000000E0),.UNSPECIFIED.)CURVE()GEOMETRIC_REPRESENTATION_ITEM()RATIONAL_B_SPLINE_CURVE((1.00000000000000000E0,7.07106781186547573E-1,1.00000000000000000E0))REPRESENTATION_ITEM(''));
#492=DEFINITIONAL_REPRESENTATION('',(#491),#291);
#493=PCURVE('',#186,#492);
#494=CARTESIAN_POINT('',(0.00000000000000000E0,-1.00000000000000000E0));
#495=CARTESIAN_POINT('',(1.00000000000000000E0,-1.00000000000000000E0));
#496=CARTESIAN_POINT('',(1.00000000000000000E0,0.00000000000000000E0));
#497=(BOUNDED_CURVE()B_SPLINE_CURVE(2,(#494,#495,#496),.UNSPECIFIED.,.F.,.F.)B_SPLINE_CURVE_WITH_KNOTS((3,3),(0.00000000000000000E0,1.00000000000000000E0),.UNSPECIFIED.)CURVE()GEOMETRIC_REPRESENTATION_ITEM()RATIONAL_B_SPLINE_CURVE((1.00000000000000000E0,7.07106781186547573E-1,1.00000000000000000E0))REPRESENTATION_ITEM(''));
#498=DEFINITIONAL_REPRESENTATION('',(#497),#291);
#499=PCURVE('',#186,#498);
#500=SURFACE_CURVE('',#190,(#296,#475),.PCURVE_S1.);
#501=EDGE_CURVE('OSCAD_TOPO/3|edge|e:7af43d0f6da04ac3a6e72ebda0ebab05|f627a27337ec4a43d6ec40dedb6d56420c6bed75e0cff0593bcff2fec35b3591',#2,#4,#500,.T.);
#502=SURFACE_CURVE('',#197,(#301,#331),.PCURVE_S1.);
#503=EDGE_CURVE('OSCAD_TOPO/3|edge|e:be381290731f5129c80e8bb25ae1cba2|e0ad0103ad30ae07c244688c620b7701c5426b3706706b85db6e27e8ff4014aa',#4,#12,#502,.T.);
#504=SURFACE_CURVE('',#201,(#306,#376),.PCURVE_S1.);
#505=EDGE_CURVE('OSCAD_TOPO/3|edge|e:7509005998f9c0c73c90bb124508b31b|bb491c8e5bab7d4d51d8f105b20ffd29709062881150363a61cd655cc34eba36',#10,#12,#504,.T.);
#506=SURFACE_CURVE('',#208,(#311,#361),.PCURVE_S1.);
#507=EDGE_CURVE('OSCAD_TOPO/3|edge|e:18b03af5876b2a81f9ca3f76c7c3cb31|7e1ce2b893f39e69049e2b574587d4f294c2fe0d51db6afae93b7ea3b2b86864',#2,#10,#506,.T.);
#508=SURFACE_CURVE('',#212,(#316,#469),.PCURVE_S1.);
#509=EDGE_CURVE('OSCAD_TOPO/3|edge|e:983cbe6b53a436d353ca3234b1cfdd0b|d072b2236773491c9771f7686891c7cabc812e34889fb16134582305ea23289e',#4,#6,#508,.T.);
#510=SURFACE_CURVE('',#219,(#321,#351),.PCURVE_S1.);
#511=EDGE_CURVE('OSCAD_TOPO/3|edge|e:b6fc6d23545e7e0c8e09e6203f969574|5a1dc3afd355e97bea119479741e298b011b94d0ddae6cdea2d1311090cac02a',#6,#14,#510,.T.);
#512=SURFACE_CURVE('',#223,(#326,#396),.PCURVE_S1.);
#513=EDGE_CURVE('OSCAD_TOPO/3|edge|e:aa8e9253f74e154cb436760b98f36448|568123797c4f9d9c7d0cdc62dfef756d5266fb1ab415bd60363859489f6ef368',#12,#14,#512,.T.);
#514=SURFACE_CURVE('',#227,(#336,#463),.PCURVE_S1.);
#515=EDGE_CURVE('OSCAD_TOPO/3|edge|e:6c2c9a17122b93eda11319d21669b160|ea0ff1b6c651181e4be676faf35092cc69ace793d16b16da2502aa06dccfc762',#6,#8,#514,.T.);
#516=SURFACE_CURVE('',#234,(#341,#371),.PCURVE_S1.);
#517=EDGE_CURVE('OSCAD_TOPO/3|edge|e:252c0464691990c947a473dbbb1518ca|2f6b3263c294e84bb330616c0adc6a5f7344c7e4aeadc99792eafca02c356864',#8,#16,#516,.T.);
#518=SURFACE_CURVE('',#238,(#346,#416),.PCURVE_S1.);
#519=EDGE_CURVE('OSCAD_TOPO/3|edge|e:89778cf71a2202ac05acf17cbfc58309|39b330811dae4be9ed6f6cdcf9224adfb68e5cfe129a94ea3cc14e640d886237',#14,#16,#518,.T.);
#520=SURFACE_CURVE('',#242,(#356,#457),.PCURVE_S1.);
#521=EDGE_CURVE('OSCAD_TOPO/3|edge|e:62f276512b7b4aadd94b3e6dd5d2557c|fff81aebf7384c47c228eeec82fc157d449c983eeac519ce49dd11007a3b8078',#2,#8,#520,.T.);
#522=SURFACE_CURVE('',#246,(#366,#436),.PCURVE_S1.);
#523=EDGE_CURVE('OSCAD_TOPO/3|edge|e:7db0065f84cd3729448d99222fe75a68|fb8abef73e7b97f5b00689a00949feaa7d8518fb32b63086532a1ec39ba19a95',#10,#16,#522,.T.);
#524=SURFACE_CURVE('',#253,(#381,#411),.PCURVE_S1.);
#525=EDGE_CURVE('OSCAD_TOPO/3|edge|e:d2e8430293c3431a3da07d87f1be5b7f|488ff7e94f70ab8c8c534f77c2d8892d9c4115ebc3fd7eb0649eda08e38dd76f',#12,#20,#524,.T.);
#526=SURFACE_CURVE('',#257,(#386,#481),.PCURVE_S1.);
#527=EDGE_CURVE('OSCAD_TOPO/3|edge|e:eb769dbdb3cec5aba48a478b2bcc4203|470c0422eaac0b05c1ff3f08639cf0c860d306d4cc0cea3e9a9f1aada68a95b7',#18,#20,#526,.T.);
#528=SURFACE_CURVE('',#264,(#391,#441),.PCURVE_S1.);
#529=EDGE_CURVE('OSCAD_TOPO/3|edge|e:6fa4bded7d9d10b8d1fd6b48fc6dfcda|921031d9dd91201ed92531d77efc1175875e24e68be769a18395387e3d20be8a',#10,#18,#528,.T.);
#530=SURFACE_CURVE('',#271,(#401,#431),.PCURVE_S1.);
#531=EDGE_CURVE('OSCAD_TOPO/3|edge|e:89abc3423b73e713ae2da5edbbc262c0|2760959055de194871920570c98092f40ed3f07ca6dd31cf281218fa445a14ba',#14,#22,#530,.T.);
#532=SURFACE_CURVE('',#275,(#406,#487),.PCURVE_S1.);
#533=EDGE_CURVE('OSCAD_TOPO/3|edge|e:6282d1549c825879662e48ed0a296c07|cc6e46bec5ecd46cfd27f03a86863f150d88466164d7d7d0f0e69cc53d8f360e',#20,#22,#532,.T.);
#534=SURFACE_CURVE('',#282,(#421,#451),.PCURVE_S1.);
#535=EDGE_CURVE('OSCAD_TOPO/3|edge|e:96861c1c8aef40b4b5b7a0f49f91cf76|aa98264e63e8df1a652d94c03ae285acdcc0bd6fa497d58a3ea3d6cba23f0c58',#16,#24,#534,.T.);
#536=SURFACE_CURVE('',#286,(#426,#493),.PCURVE_S1.);
#537=EDGE_CURVE('OSCAD_TOPO/3|edge|e:2234afec30d8038eb9d31cd05ff23d58|cc4bce529a7508befda17c173f57798a433f5020dd6c82db0c99cc46e50712ab',#22,#24,#536,.T.);
#538=SURFACE_CURVE('',#290,(#446,#499),.PCURVE_S1.);
#539=EDGE_CURVE('OSCAD_TOPO/3|edge|e:e788b8fe088ddd30a8ac828d6677bd52|5bd93e130dd72863e78dd467258a3d7a925db8f82e44b8ee09c9aaed959a5f67',#18,#24,#538,.T.);
#540=ORIENTED_EDGE('',*,*,#501,.T.);
#541=ORIENTED_EDGE('',*,*,#503,.T.);
#542=ORIENTED_EDGE('',*,*,#505,.F.);
#543=ORIENTED_EDGE('',*,*,#507,.F.);
#544=EDGE_LOOP('OSCAD_TOPO/3|loop|l:c80e8f55d220c54c0afac4286d40e61c|3e21c248f56a02d191efe8d0df5d99f58c8009c432c20dbe2cd9d55d940a51af',(#540,#541,#542,#543));
#545=ORIENTED_EDGE('',*,*,#509,.T.);
#546=ORIENTED_EDGE('',*,*,#511,.T.);
#547=ORIENTED_EDGE('',*,*,#513,.F.);
#548=ORIENTED_EDGE('',*,*,#503,.F.);
#549=EDGE_LOOP('OSCAD_TOPO/3|loop|l:1cd99e1838f7fbd845b6c08ea55ef639|435d189ae1d0c848e4fa0f018f3822dbf6f03e238135cd8a2713c692037cf528',(#545,#546,#547,#548));
#550=ORIENTED_EDGE('',*,*,#515,.T.);
#551=ORIENTED_EDGE('',*,*,#517,.T.);
#552=ORIENTED_EDGE('',*,*,#519,.F.);
#553=ORIENTED_EDGE('',*,*,#511,.F.);
#554=EDGE_LOOP('OSCAD_TOPO/3|loop|l:6ddb26819eb5a53d0cb60cf74095477b|91f6b7d6fd1f4772999558b9a00fe774375b548a8404c579bb5ed2d1648707c3',(#550,#551,#552,#553));
#555=ORIENTED_EDGE('',*,*,#521,.F.);
#556=ORIENTED_EDGE('',*,*,#507,.T.);
#557=ORIENTED_EDGE('',*,*,#523,.T.);
#558=ORIENTED_EDGE('',*,*,#517,.F.);
#559=EDGE_LOOP('OSCAD_TOPO/3|loop|l:aeba8e38afa94333dbf9caea2a1a2d21|5dffbd0f3c367c43fb1eeb39ab264c9f1e19c510932b4b98b4f6ab7091a3ef50',(#555,#556,#557,#558));
#560=ORIENTED_EDGE('',*,*,#505,.T.);
#561=ORIENTED_EDGE('',*,*,#525,.T.);
#562=ORIENTED_EDGE('',*,*,#527,.F.);
#563=ORIENTED_EDGE('',*,*,#529,.F.);
#564=EDGE_LOOP('OSCAD_TOPO/3|loop|l:075f67e95cd2dc5fb43ed0fcb75e44a0|076b1fc11a7f1ceab1f328c254dca791abbe0691226473d22c9a9955d9ca5492',(#560,#561,#562,#563));
#565=ORIENTED_EDGE('',*,*,#513,.T.);
#566=ORIENTED_EDGE('',*,*,#531,.T.);
#567=ORIENTED_EDGE('',*,*,#533,.F.);
#568=ORIENTED_EDGE('',*,*,#525,.F.);
#569=EDGE_LOOP('OSCAD_TOPO/3|loop|l:f8e5078ac4edef37251b96d7f58859e2|bf7ff25822408a65018dcc273b0a9065f1fb0ffdcc016f8dd335458708fb592f',(#565,#566,#567,#568));
#570=ORIENTED_EDGE('',*,*,#519,.T.);
#571=ORIENTED_EDGE('',*,*,#535,.T.);
#572=ORIENTED_EDGE('',*,*,#537,.F.);
#573=ORIENTED_EDGE('',*,*,#531,.F.);
#574=EDGE_LOOP('OSCAD_TOPO/3|loop|l:e34fc31f57168e99905efecc36dddc4f|412a4590b4aa0da2332620e62cd52c3b64db1aa50bfd0b78706c10459b55b30b',(#570,#571,#572,#573));
#575=ORIENTED_EDGE('',*,*,#523,.F.);
#576=ORIENTED_EDGE('',*,*,#529,.T.);
#577=ORIENTED_EDGE('',*,*,#539,.T.);
#578=ORIENTED_EDGE('',*,*,#535,.F.);
#579=EDGE_LOOP('OSCAD_TOPO/3|loop|l:4d6f32a25220b0a3bef99c00962623aa|aa2973f57b13b001d77d31c40d65b1e04c9426d05f570f2c17f49769998d84c2',(#575,#576,#577,#578));
#580=ORIENTED_EDGE('',*,*,#521,.T.);
#581=ORIENTED_EDGE('',*,*,#515,.F.);
#582=ORIENTED_EDGE('',*,*,#509,.F.);
#583=ORIENTED_EDGE('',*,*,#501,.F.);
#584=EDGE_LOOP('OSCAD_TOPO/3|loop|l:0e61524d9c8c745b85aa8ecd78d7ebb9|5b799ae9c76b8190e6068d9e93a1b23e037842c74aaee11bfb53b8afee4d4257',(#580,#581,#582,#583));
#585=ORIENTED_EDGE('',*,*,#527,.T.);
#586=ORIENTED_EDGE('',*,*,#533,.T.);
#587=ORIENTED_EDGE('',*,*,#537,.T.);
#588=ORIENTED_EDGE('',*,*,#539,.F.);
#589=EDGE_LOOP('OSCAD_TOPO/3|loop|l:f0818ff578d0646a63bda78f0311c542|0e2f8490cbe0639751e97602c3bac6281871bc123a61778f8e7d730f85ce0d2c',(#585,#586,#587,#588));
#590=FACE_OUTER_BOUND('',#544,.T.);
#591=ADVANCED_FACE('OSCAD_TOPO/3|face|f:14df2ab61ff17af23b2b7aa7ae687afd|07bc9cff8fc74f5d1cdc334baad8d7cee76007658fb04ba893cde9ff3305304c',(#590),#43,.T.);
#592=FACE_OUTER_BOUND('',#549,.T.);
#593=ADVANCED_FACE('OSCAD_TOPO/3|face|f:0632b2b63c7d0ad81ac25146a7d53c9a|d0b9de9111ac05554d99d7bf9c573fbdc147c5ded2687eab6f1452e8591b115d',(#592),#62,.T.);
#594=FACE_OUTER_BOUND('',#554,.T.);
#595=ADVANCED_FACE('OSCAD_TOPO/3|face|f:0e8bd1837639a184e412a43f06d5bf49|44fdf7ca9b73d12c95eb6beb4ed7e30c049140e9f924f1430bd8a6bce3ca8cb8',(#594),#81,.T.);
#596=FACE_OUTER_BOUND('',#559,.T.);
#597=ADVANCED_FACE('OSCAD_TOPO/3|face|f:24d28fce9bb8c8866793b3f2b12f224e|389a5c94c61e5e4e208c3957fdea25c02f7f56cf2d66e1ec6b148c48003f62e2',(#596),#100,.T.);
#598=FACE_OUTER_BOUND('',#564,.T.);
#599=ADVANCED_FACE('OSCAD_TOPO/3|face|f:a5b2f302b3375ef8da6a85706ef98940|b51a7fa7679e91fc69a7e895dd90591d07d7cd31b1b521d20c50729ffb523ae7',(#598),#119,.T.);
#600=FACE_OUTER_BOUND('',#569,.T.);
#601=ADVANCED_FACE('OSCAD_TOPO/3|face|f:226f65ecd917e39d658ae644f9d949f7|f0e30a4991f2f5d2e4b383d7d5eadccd891c6d3cdadbf738a05a97e0511c1a89',(#600),#138,.T.);
#602=FACE_OUTER_BOUND('',#574,.T.);
#603=ADVANCED_FACE('OSCAD_TOPO/3|face|f:bea9da4b7556633753df8879829bec3d|2b894758808bcae11892c6b34746d5fa76cdc82c10d9236fa4750f8f72145647',(#602),#157,.T.);
#604=FACE_OUTER_BOUND('',#579,.T.);
#605=ADVANCED_FACE('OSCAD_TOPO/3|face|f:982b510b3d1594b59bbf0bdd5ec7368f|91083bb34c1c3e4c01ac63f0c1b56d201f6fe930a3963a056612d95fcf719167',(#604),#176,.T.);
#606=FACE_OUTER_BOUND('',#584,.T.);
#607=ADVANCED_FACE('OSCAD_TOPO/3|face|f:5da0b20f8b8c2ed0cbef66ec36006488|1cb3b92820f3599b802f91ca0119ea3f12ba0f84e376e9734362c4abe16fe6bb',(#606),#181,.T.);
#608=FACE_OUTER_BOUND('',#589,.T.);
#609=ADVANCED_FACE('OSCAD_TOPO/3|face|f:414b1ae9be75f68137b999547217fc42|6eabdc2ef2cf07f652082810b1d2206c8f40ede57d22dfdd2be3f8f90603b650',(#608),#186,.T.);
#610=CLOSED_SHELL('OSCAD_TOPO/3|shell|s:4cc5c32e85d9af2c7c884ce92161f0a3|04364f118b05c69e4dcabd737e036e98e05e408657c3513898392975a2a27ca1',(#591,#593,#595,#597,#599,#601,#603,#605,#607,#609));
#611=MANIFOLD_SOLID_BREP('OSCAD_TOPO/3|body|b:d19b5e1d5b5c439df87c34c4bc0a1081|1605a0475417fe3ff319590aebf6bc855c5a14b123d8a84fa3ec5e399abfbf85',#610);
#612=(LENGTH_UNIT()NAMED_UNIT(*)SI_UNIT(.MILLI.,.METRE.));
#613=UNCERTAINTY_MEASURE_WITH_UNIT(LENGTH_MEASURE(9.99999999999999955E-8),#612,'distance_accuracy_value','');
#614=(GEOMETRIC_REPRESENTATION_CONTEXT(3)GLOBAL_UNCERTAINTY_ASSIGNED_CONTEXT((#613))GLOBAL_UNIT_ASSIGNED_CONTEXT((#612))REPRESENTATION_CONTEXT('','3D'));
#615=ADVANCED_BREP_SHAPE_REPRESENTATION('',(#611),#614);
#616=APPLICATION_CONTEXT('managed model based 3d engineering');
#617=PRODUCT_CONTEXT('',#616,'mechanical');
#618=PRODUCT('model','model','',(#617));
#619=PRODUCT_DEFINITION_FORMATION('1','',#618);
#620=PRODUCT_DEFINITION_CONTEXT('part definition',#616,'design');
#621=PRODUCT_DEFINITION('design','',#619,#620);
#622=PRODUCT_DEFINITION_SHAPE('','',#621);
#623=SHAPE_DEFINITION_REPRESENTATION(#622,#615);
ENDSEC;
END-ISO-10303-21;
