ISO-10303-21;
HEADER;
FILE_DESCRIPTION(('OpenSCAD Viewer retained AP242 B-rep'),'2;1');
FILE_NAME('model.step','',(''),(''),'OpenSCAD Viewer','OpenSCAD Viewer','');
FILE_SCHEMA(('AP242_MANAGED_MODEL_BASED_3D_ENGINEERING_MIM_LF'));
ENDSEC;
DATA;
#1=CARTESIAN_POINT('',(0.00000000000000000E0,0.00000000000000000E0,0.00000000000000000E0));
#2=VERTEX_POINT('OSCAD_TOPO/3|vertex|v:2301485b2aa5130a3ffa2c3d4ddce85f|191be695419e636e18cadbd25849313dc09d01169bcb85a989c23a0b6cf87b5c',#1);
#3=CARTESIAN_POINT('',(1.00000000000000000E1,0.00000000000000000E0,0.00000000000000000E0));
#4=VERTEX_POINT('OSCAD_TOPO/3|vertex|v:de3e486565e3a7617eea6e36ede06c2b|3353643bad860c733430b2273204e26943203410030abd80943e3de65777f15e',#3);
#5=CARTESIAN_POINT('',(1.00000000000000000E1,7.00000000000000000E0,0.00000000000000000E0));
#6=VERTEX_POINT('OSCAD_TOPO/3|vertex|v:26d49f72935bd1484d937bd410f8887d|7ed4cbe4f16c043a78b25e74221df8ef5cdd5fe3ea642b1e5f666be85425a21e',#5);
#7=CARTESIAN_POINT('',(9.00000000000000000E0,8.00000000000000000E0,0.00000000000000000E0));
#8=VERTEX_POINT('OSCAD_TOPO/3|vertex|v:8013c3b1893dc15c40a95191ca60d5df|a8c25e01cd176cea3cd7cc6360fbb9d2695fab705c85b2e338d60ee5ac9067b7',#7);
#9=CARTESIAN_POINT('',(0.00000000000000000E0,8.00000000000000000E0,0.00000000000000000E0));
#10=VERTEX_POINT('OSCAD_TOPO/3|vertex|v:07720a061eecc28a2d7844e564055068|d6a7b4a3e49ee4023200a4404b886bc455d00d1f53b603276c8602df87b51e36',#9);
#11=CARTESIAN_POINT('',(0.00000000000000000E0,0.00000000000000000E0,6.00000000000000000E0));
#12=VERTEX_POINT('OSCAD_TOPO/3|vertex|v:5e3f053d45cd321f45c6da8cc5f4c916|faacf2ec94c74ba51ba89e4d4dcbab818e1d923b7b2def63f1340a0de7697fce',#11);
#13=CARTESIAN_POINT('',(1.00000000000000000E1,0.00000000000000000E0,6.00000000000000000E0));
#14=VERTEX_POINT('OSCAD_TOPO/3|vertex|v:40d90877984143ce3cd3ba9f42de6527|25d8f150c0b4ce4e19ab24ca582cf7fbb0eb4bc192bbecfeea61af71571a1a82',#13);
#15=CARTESIAN_POINT('',(1.00000000000000000E1,6.00000000000000000E0,6.00000000000000000E0));
#16=VERTEX_POINT('OSCAD_TOPO/3|vertex|v:4df5bedb8981248237ac05d1f8ce8847|413c9e1436bfc20d2479e13ff413abaf0bb5ae03f6ac771c7d73ddd24d4c7c4a',#15);
#17=CARTESIAN_POINT('',(8.00000000000000000E0,8.00000000000000000E0,6.00000000000000000E0));
#18=VERTEX_POINT('OSCAD_TOPO/3|vertex|v:210d2c05fb8963d78eff6f7641b22627|fc9cca38405d5d4d7871a4916515c2b70aeb3a8e5f59462548bb9c65d3c88497',#17);
#19=CARTESIAN_POINT('',(0.00000000000000000E0,8.00000000000000000E0,6.00000000000000000E0));
#20=VERTEX_POINT('OSCAD_TOPO/3|vertex|v:489111dd2077f01697a2c4f266651f39|5f93c05b89e3ebf1b45378f0575e8b1c7f6cfe92c07950f10f5234cb251056a0',#19);
#21=CARTESIAN_POINT('',(0.00000000000000000E0,0.00000000000000000E0,0.00000000000000000E0));
#22=CARTESIAN_POINT('',(0.00000000000000000E0,0.00000000000000000E0,6.00000000000000000E0));
#23=CARTESIAN_POINT('',(1.00000000000000000E1,0.00000000000000000E0,0.00000000000000000E0));
#24=CARTESIAN_POINT('',(1.00000000000000000E1,0.00000000000000000E0,6.00000000000000000E0));
#25=B_SPLINE_SURFACE_WITH_KNOTS('',1,1,((#21,#22),(#23,#24)),.UNSPECIFIED.,.F.,.F.,.F.,(2,2),(2,2),(0.00000000000000000E0,1.00000000000000000E0),(0.00000000000000000E0,1.00000000000000000E0),.UNSPECIFIED.);
#26=CARTESIAN_POINT('',(1.00000000000000000E1,0.00000000000000000E0,0.00000000000000000E0));
#27=CARTESIAN_POINT('',(1.00000000000000000E1,0.00000000000000000E0,6.00000000000000000E0));
#28=CARTESIAN_POINT('',(1.00000000000000000E1,7.00000000000000000E0,0.00000000000000000E0));
#29=CARTESIAN_POINT('',(1.00000000000000000E1,6.00000000000000000E0,6.00000000000000000E0));
#30=B_SPLINE_SURFACE_WITH_KNOTS('',1,1,((#26,#27),(#28,#29)),.UNSPECIFIED.,.F.,.F.,.F.,(2,2),(2,2),(0.00000000000000000E0,1.00000000000000000E0),(0.00000000000000000E0,1.00000000000000000E0),.UNSPECIFIED.);
#31=CARTESIAN_POINT('',(1.00000000000000000E1,7.00000000000000000E0,0.00000000000000000E0));
#32=CARTESIAN_POINT('',(1.00000000000000000E1,6.00000000000000000E0,6.00000000000000000E0));
#33=CARTESIAN_POINT('',(1.00000000000000000E1,8.00000000000000000E0,0.00000000000000000E0));
#34=CARTESIAN_POINT('',(1.00000000000000000E1,8.00000000000000000E0,6.00000000000000000E0));
#35=CARTESIAN_POINT('',(9.00000000000000000E0,8.00000000000000000E0,0.00000000000000000E0));
#36=CARTESIAN_POINT('',(8.00000000000000000E0,8.00000000000000000E0,6.00000000000000000E0));
#37=(BOUNDED_SURFACE()B_SPLINE_SURFACE(2,1,((#31,#32),(#33,#34),(#35,#36)),.UNSPECIFIED.,.F.,.F.,.F.)B_SPLINE_SURFACE_WITH_KNOTS((3,3),(2,2),(0.00000000000000000E0,1.00000000000000000E0),(0.00000000000000000E0,1.00000000000000000E0),.UNSPECIFIED.)GEOMETRIC_REPRESENTATION_ITEM()RATIONAL_B_SPLINE_SURFACE(((1.00000000000000000E0,1.00000000000000000E0),(7.07106781186547573E-1,7.07106781186547573E-1),(1.00000000000000000E0,1.00000000000000000E0)))REPRESENTATION_ITEM('')SURFACE());
#38=CARTESIAN_POINT('',(9.00000000000000000E0,8.00000000000000000E0,0.00000000000000000E0));
#39=CARTESIAN_POINT('',(8.00000000000000000E0,8.00000000000000000E0,6.00000000000000000E0));
#40=CARTESIAN_POINT('',(0.00000000000000000E0,8.00000000000000000E0,0.00000000000000000E0));
#41=CARTESIAN_POINT('',(0.00000000000000000E0,8.00000000000000000E0,6.00000000000000000E0));
#42=B_SPLINE_SURFACE_WITH_KNOTS('',1,1,((#38,#39),(#40,#41)),.UNSPECIFIED.,.F.,.F.,.F.,(2,2),(2,2),(0.00000000000000000E0,1.00000000000000000E0),(0.00000000000000000E0,1.00000000000000000E0),.UNSPECIFIED.);
#43=CARTESIAN_POINT('',(0.00000000000000000E0,8.00000000000000000E0,0.00000000000000000E0));
#44=CARTESIAN_POINT('',(0.00000000000000000E0,8.00000000000000000E0,6.00000000000000000E0));
#45=CARTESIAN_POINT('',(0.00000000000000000E0,0.00000000000000000E0,0.00000000000000000E0));
#46=CARTESIAN_POINT('',(0.00000000000000000E0,0.00000000000000000E0,6.00000000000000000E0));
#47=B_SPLINE_SURFACE_WITH_KNOTS('',1,1,((#43,#44),(#45,#46)),.UNSPECIFIED.,.F.,.F.,.F.,(2,2),(2,2),(0.00000000000000000E0,1.00000000000000000E0),(0.00000000000000000E0,1.00000000000000000E0),.UNSPECIFIED.);
#48=CARTESIAN_POINT('',(1.00000000000000000E1,0.00000000000000000E0,0.00000000000000000E0));
#49=CARTESIAN_POINT('',(1.00000000000000000E1,8.00000000000000000E0,0.00000000000000000E0));
#50=CARTESIAN_POINT('',(0.00000000000000000E0,0.00000000000000000E0,0.00000000000000000E0));
#51=CARTESIAN_POINT('',(0.00000000000000000E0,8.00000000000000000E0,0.00000000000000000E0));
#52=B_SPLINE_SURFACE_WITH_KNOTS('',1,1,((#48,#49),(#50,#51)),.UNSPECIFIED.,.F.,.F.,.F.,(2,2),(2,2),(0.00000000000000000E0,1.00000000000000000E0),(0.00000000000000000E0,1.00000000000000000E0),.UNSPECIFIED.);
#53=CARTESIAN_POINT('',(0.00000000000000000E0,0.00000000000000000E0,6.00000000000000000E0));
#54=CARTESIAN_POINT('',(0.00000000000000000E0,8.00000000000000000E0,6.00000000000000000E0));
#55=CARTESIAN_POINT('',(1.00000000000000000E1,0.00000000000000000E0,6.00000000000000000E0));
#56=CARTESIAN_POINT('',(1.00000000000000000E1,8.00000000000000000E0,6.00000000000000000E0));
#57=B_SPLINE_SURFACE_WITH_KNOTS('',1,1,((#53,#54),(#55,#56)),.UNSPECIFIED.,.F.,.F.,.F.,(2,2),(2,2),(0.00000000000000000E0,1.00000000000000000E0),(0.00000000000000000E0,1.00000000000000000E0),.UNSPECIFIED.);
#58=CARTESIAN_POINT('',(0.00000000000000000E0,0.00000000000000000E0,0.00000000000000000E0));
#59=CARTESIAN_POINT('',(1.00000000000000000E1,0.00000000000000000E0,0.00000000000000000E0));
#60=B_SPLINE_CURVE_WITH_KNOTS('',1,(#58,#59),.UNSPECIFIED.,.F.,.F.,(2,2),(0.00000000000000000E0,1.00000000000000000E0),.UNSPECIFIED.);
#61=CARTESIAN_POINT('',(0.00000000000000000E0,0.00000000000000000E0,6.00000000000000000E0));
#62=CARTESIAN_POINT('',(1.00000000000000000E1,0.00000000000000000E0,6.00000000000000000E0));
#63=B_SPLINE_CURVE_WITH_KNOTS('',1,(#61,#62),.UNSPECIFIED.,.F.,.F.,(2,2),(0.00000000000000000E0,1.00000000000000000E0),.UNSPECIFIED.);
#64=CARTESIAN_POINT('',(1.00000000000000000E1,0.00000000000000000E0,0.00000000000000000E0));
#65=CARTESIAN_POINT('',(1.00000000000000000E1,7.00000000000000000E0,0.00000000000000000E0));
#66=B_SPLINE_CURVE_WITH_KNOTS('',1,(#64,#65),.UNSPECIFIED.,.F.,.F.,(2,2),(0.00000000000000000E0,1.00000000000000000E0),.UNSPECIFIED.);
#67=CARTESIAN_POINT('',(1.00000000000000000E1,0.00000000000000000E0,6.00000000000000000E0));
#68=CARTESIAN_POINT('',(1.00000000000000000E1,6.00000000000000000E0,6.00000000000000000E0));
#69=B_SPLINE_CURVE_WITH_KNOTS('',1,(#67,#68),.UNSPECIFIED.,.F.,.F.,(2,2),(0.00000000000000000E0,1.00000000000000000E0),.UNSPECIFIED.);
#70=CARTESIAN_POINT('',(1.00000000000000000E1,7.00000000000000000E0,0.00000000000000000E0));
#71=CARTESIAN_POINT('',(1.00000000000000000E1,8.00000000000000000E0,0.00000000000000000E0));
#72=CARTESIAN_POINT('',(9.00000000000000000E0,8.00000000000000000E0,0.00000000000000000E0));
#73=(BOUNDED_CURVE()B_SPLINE_CURVE(2,(#70,#71,#72),.UNSPECIFIED.,.F.,.F.)B_SPLINE_CURVE_WITH_KNOTS((3,3),(0.00000000000000000E0,1.00000000000000000E0),.UNSPECIFIED.)CURVE()GEOMETRIC_REPRESENTATION_ITEM()RATIONAL_B_SPLINE_CURVE((1.00000000000000000E0,7.07106781186547573E-1,1.00000000000000000E0))REPRESENTATION_ITEM(''));
#74=CARTESIAN_POINT('',(1.00000000000000000E1,6.00000000000000000E0,6.00000000000000000E0));
#75=CARTESIAN_POINT('',(1.00000000000000000E1,8.00000000000000000E0,6.00000000000000000E0));
#76=CARTESIAN_POINT('',(8.00000000000000000E0,8.00000000000000000E0,6.00000000000000000E0));
#77=(BOUNDED_CURVE()B_SPLINE_CURVE(2,(#74,#75,#76),.UNSPECIFIED.,.F.,.F.)B_SPLINE_CURVE_WITH_KNOTS((3,3),(0.00000000000000000E0,1.00000000000000000E0),.UNSPECIFIED.)CURVE()GEOMETRIC_REPRESENTATION_ITEM()RATIONAL_B_SPLINE_CURVE((1.00000000000000000E0,7.07106781186547573E-1,1.00000000000000000E0))REPRESENTATION_ITEM(''));
#78=CARTESIAN_POINT('',(9.00000000000000000E0,8.00000000000000000E0,0.00000000000000000E0));
#79=CARTESIAN_POINT('',(0.00000000000000000E0,8.00000000000000000E0,0.00000000000000000E0));
#80=B_SPLINE_CURVE_WITH_KNOTS('',1,(#78,#79),.UNSPECIFIED.,.F.,.F.,(2,2),(0.00000000000000000E0,1.00000000000000000E0),.UNSPECIFIED.);
#81=CARTESIAN_POINT('',(8.00000000000000000E0,8.00000000000000000E0,6.00000000000000000E0));
#82=CARTESIAN_POINT('',(0.00000000000000000E0,8.00000000000000000E0,6.00000000000000000E0));
#83=B_SPLINE_CURVE_WITH_KNOTS('',1,(#81,#82),.UNSPECIFIED.,.F.,.F.,(2,2),(0.00000000000000000E0,1.00000000000000000E0),.UNSPECIFIED.);
#84=CARTESIAN_POINT('',(0.00000000000000000E0,8.00000000000000000E0,0.00000000000000000E0));
#85=CARTESIAN_POINT('',(0.00000000000000000E0,0.00000000000000000E0,0.00000000000000000E0));
#86=B_SPLINE_CURVE_WITH_KNOTS('',1,(#84,#85),.UNSPECIFIED.,.F.,.F.,(2,2),(0.00000000000000000E0,1.00000000000000000E0),.UNSPECIFIED.);
#87=CARTESIAN_POINT('',(0.00000000000000000E0,8.00000000000000000E0,6.00000000000000000E0));
#88=CARTESIAN_POINT('',(0.00000000000000000E0,0.00000000000000000E0,6.00000000000000000E0));
#89=B_SPLINE_CURVE_WITH_KNOTS('',1,(#87,#88),.UNSPECIFIED.,.F.,.F.,(2,2),(0.00000000000000000E0,1.00000000000000000E0),.UNSPECIFIED.);
#90=CARTESIAN_POINT('',(0.00000000000000000E0,0.00000000000000000E0,0.00000000000000000E0));
#91=CARTESIAN_POINT('',(0.00000000000000000E0,0.00000000000000000E0,6.00000000000000000E0));
#92=B_SPLINE_CURVE_WITH_KNOTS('',1,(#90,#91),.UNSPECIFIED.,.F.,.F.,(2,2),(0.00000000000000000E0,1.00000000000000000E0),.UNSPECIFIED.);
#93=CARTESIAN_POINT('',(1.00000000000000000E1,0.00000000000000000E0,0.00000000000000000E0));
#94=CARTESIAN_POINT('',(1.00000000000000000E1,0.00000000000000000E0,6.00000000000000000E0));
#95=B_SPLINE_CURVE_WITH_KNOTS('',1,(#93,#94),.UNSPECIFIED.,.F.,.F.,(2,2),(0.00000000000000000E0,1.00000000000000000E0),.UNSPECIFIED.);
#96=CARTESIAN_POINT('',(1.00000000000000000E1,7.00000000000000000E0,0.00000000000000000E0));
#97=CARTESIAN_POINT('',(1.00000000000000000E1,6.00000000000000000E0,6.00000000000000000E0));
#98=B_SPLINE_CURVE_WITH_KNOTS('',1,(#96,#97),.UNSPECIFIED.,.F.,.F.,(2,2),(0.00000000000000000E0,1.00000000000000000E0),.UNSPECIFIED.);
#99=CARTESIAN_POINT('',(9.00000000000000000E0,8.00000000000000000E0,0.00000000000000000E0));
#100=CARTESIAN_POINT('',(8.00000000000000000E0,8.00000000000000000E0,6.00000000000000000E0));
#101=B_SPLINE_CURVE_WITH_KNOTS('',1,(#99,#100),.UNSPECIFIED.,.F.,.F.,(2,2),(0.00000000000000000E0,1.00000000000000000E0),.UNSPECIFIED.);
#102=CARTESIAN_POINT('',(0.00000000000000000E0,8.00000000000000000E0,0.00000000000000000E0));
#103=CARTESIAN_POINT('',(0.00000000000000000E0,8.00000000000000000E0,6.00000000000000000E0));
#104=B_SPLINE_CURVE_WITH_KNOTS('',1,(#102,#103),.UNSPECIFIED.,.F.,.F.,(2,2),(0.00000000000000000E0,1.00000000000000000E0),.UNSPECIFIED.);
#105=(GEOMETRIC_REPRESENTATION_CONTEXT(2)REPRESENTATION_CONTEXT('','2D'));
#106=CARTESIAN_POINT('',(0.00000000000000000E0,0.00000000000000000E0));
#107=CARTESIAN_POINT('',(1.00000000000000000E0,0.00000000000000000E0));
#108=B_SPLINE_CURVE_WITH_KNOTS('',1,(#106,#107),.UNSPECIFIED.,.F.,.F.,(2,2),(0.00000000000000000E0,1.00000000000000000E0),.UNSPECIFIED.);
#109=DEFINITIONAL_REPRESENTATION('',(#108),#105);
#110=PCURVE('',#25,#109);
#111=CARTESIAN_POINT('',(1.00000000000000000E0,0.00000000000000000E0));
#112=CARTESIAN_POINT('',(1.00000000000000000E0,1.00000000000000000E0));
#113=B_SPLINE_CURVE_WITH_KNOTS('',1,(#111,#112),.UNSPECIFIED.,.F.,.F.,(2,2),(0.00000000000000000E0,1.00000000000000000E0),.UNSPECIFIED.);
#114=DEFINITIONAL_REPRESENTATION('',(#113),#105);
#115=PCURVE('',#25,#114);
#116=CARTESIAN_POINT('',(1.00000000000000000E0,1.00000000000000000E0));
#117=CARTESIAN_POINT('',(0.00000000000000000E0,1.00000000000000000E0));
#118=B_SPLINE_CURVE_WITH_KNOTS('',1,(#116,#117),.UNSPECIFIED.,.F.,.F.,(2,2),(0.00000000000000000E0,1.00000000000000000E0),.UNSPECIFIED.);
#119=DEFINITIONAL_REPRESENTATION('',(#118),#105);
#120=PCURVE('',#25,#119);
#121=CARTESIAN_POINT('',(0.00000000000000000E0,1.00000000000000000E0));
#122=CARTESIAN_POINT('',(0.00000000000000000E0,0.00000000000000000E0));
#123=B_SPLINE_CURVE_WITH_KNOTS('',1,(#121,#122),.UNSPECIFIED.,.F.,.F.,(2,2),(0.00000000000000000E0,1.00000000000000000E0),.UNSPECIFIED.);
#124=DEFINITIONAL_REPRESENTATION('',(#123),#105);
#125=PCURVE('',#25,#124);
#126=CARTESIAN_POINT('',(0.00000000000000000E0,0.00000000000000000E0));
#127=CARTESIAN_POINT('',(1.00000000000000000E0,0.00000000000000000E0));
#128=B_SPLINE_CURVE_WITH_KNOTS('',1,(#126,#127),.UNSPECIFIED.,.F.,.F.,(2,2),(0.00000000000000000E0,1.00000000000000000E0),.UNSPECIFIED.);
#129=DEFINITIONAL_REPRESENTATION('',(#128),#105);
#130=PCURVE('',#30,#129);
#131=CARTESIAN_POINT('',(1.00000000000000000E0,0.00000000000000000E0));
#132=CARTESIAN_POINT('',(1.00000000000000000E0,1.00000000000000000E0));
#133=B_SPLINE_CURVE_WITH_KNOTS('',1,(#131,#132),.UNSPECIFIED.,.F.,.F.,(2,2),(0.00000000000000000E0,1.00000000000000000E0),.UNSPECIFIED.);
#134=DEFINITIONAL_REPRESENTATION('',(#133),#105);
#135=PCURVE('',#30,#134);
#136=CARTESIAN_POINT('',(1.00000000000000000E0,1.00000000000000000E0));
#137=CARTESIAN_POINT('',(0.00000000000000000E0,1.00000000000000000E0));
#138=B_SPLINE_CURVE_WITH_KNOTS('',1,(#136,#137),.UNSPECIFIED.,.F.,.F.,(2,2),(0.00000000000000000E0,1.00000000000000000E0),.UNSPECIFIED.);
#139=DEFINITIONAL_REPRESENTATION('',(#138),#105);
#140=PCURVE('',#30,#139);
#141=CARTESIAN_POINT('',(0.00000000000000000E0,1.00000000000000000E0));
#142=CARTESIAN_POINT('',(0.00000000000000000E0,0.00000000000000000E0));
#143=B_SPLINE_CURVE_WITH_KNOTS('',1,(#141,#142),.UNSPECIFIED.,.F.,.F.,(2,2),(0.00000000000000000E0,1.00000000000000000E0),.UNSPECIFIED.);
#144=DEFINITIONAL_REPRESENTATION('',(#143),#105);
#145=PCURVE('',#30,#144);
#146=CARTESIAN_POINT('',(0.00000000000000000E0,0.00000000000000000E0));
#147=CARTESIAN_POINT('',(1.00000000000000000E0,0.00000000000000000E0));
#148=B_SPLINE_CURVE_WITH_KNOTS('',1,(#146,#147),.UNSPECIFIED.,.F.,.F.,(2,2),(0.00000000000000000E0,1.00000000000000000E0),.UNSPECIFIED.);
#149=DEFINITIONAL_REPRESENTATION('',(#148),#105);
#150=PCURVE('',#37,#149);
#151=CARTESIAN_POINT('',(1.00000000000000000E0,0.00000000000000000E0));
#152=CARTESIAN_POINT('',(1.00000000000000000E0,1.00000000000000000E0));
#153=B_SPLINE_CURVE_WITH_KNOTS('',1,(#151,#152),.UNSPECIFIED.,.F.,.F.,(2,2),(0.00000000000000000E0,1.00000000000000000E0),.UNSPECIFIED.);
#154=DEFINITIONAL_REPRESENTATION('',(#153),#105);
#155=PCURVE('',#37,#154);
#156=CARTESIAN_POINT('',(1.00000000000000000E0,1.00000000000000000E0));
#157=CARTESIAN_POINT('',(0.00000000000000000E0,1.00000000000000000E0));
#158=B_SPLINE_CURVE_WITH_KNOTS('',1,(#156,#157),.UNSPECIFIED.,.F.,.F.,(2,2),(0.00000000000000000E0,1.00000000000000000E0),.UNSPECIFIED.);
#159=DEFINITIONAL_REPRESENTATION('',(#158),#105);
#160=PCURVE('',#37,#159);
#161=CARTESIAN_POINT('',(0.00000000000000000E0,1.00000000000000000E0));
#162=CARTESIAN_POINT('',(0.00000000000000000E0,0.00000000000000000E0));
#163=B_SPLINE_CURVE_WITH_KNOTS('',1,(#161,#162),.UNSPECIFIED.,.F.,.F.,(2,2),(0.00000000000000000E0,1.00000000000000000E0),.UNSPECIFIED.);
#164=DEFINITIONAL_REPRESENTATION('',(#163),#105);
#165=PCURVE('',#37,#164);
#166=CARTESIAN_POINT('',(0.00000000000000000E0,0.00000000000000000E0));
#167=CARTESIAN_POINT('',(1.00000000000000000E0,0.00000000000000000E0));
#168=B_SPLINE_CURVE_WITH_KNOTS('',1,(#166,#167),.UNSPECIFIED.,.F.,.F.,(2,2),(0.00000000000000000E0,1.00000000000000000E0),.UNSPECIFIED.);
#169=DEFINITIONAL_REPRESENTATION('',(#168),#105);
#170=PCURVE('',#42,#169);
#171=CARTESIAN_POINT('',(1.00000000000000000E0,0.00000000000000000E0));
#172=CARTESIAN_POINT('',(1.00000000000000000E0,1.00000000000000000E0));
#173=B_SPLINE_CURVE_WITH_KNOTS('',1,(#171,#172),.UNSPECIFIED.,.F.,.F.,(2,2),(0.00000000000000000E0,1.00000000000000000E0),.UNSPECIFIED.);
#174=DEFINITIONAL_REPRESENTATION('',(#173),#105);
#175=PCURVE('',#42,#174);
#176=CARTESIAN_POINT('',(1.00000000000000000E0,1.00000000000000000E0));
#177=CARTESIAN_POINT('',(0.00000000000000000E0,1.00000000000000000E0));
#178=B_SPLINE_CURVE_WITH_KNOTS('',1,(#176,#177),.UNSPECIFIED.,.F.,.F.,(2,2),(0.00000000000000000E0,1.00000000000000000E0),.UNSPECIFIED.);
#179=DEFINITIONAL_REPRESENTATION('',(#178),#105);
#180=PCURVE('',#42,#179);
#181=CARTESIAN_POINT('',(0.00000000000000000E0,1.00000000000000000E0));
#182=CARTESIAN_POINT('',(0.00000000000000000E0,0.00000000000000000E0));
#183=B_SPLINE_CURVE_WITH_KNOTS('',1,(#181,#182),.UNSPECIFIED.,.F.,.F.,(2,2),(0.00000000000000000E0,1.00000000000000000E0),.UNSPECIFIED.);
#184=DEFINITIONAL_REPRESENTATION('',(#183),#105);
#185=PCURVE('',#42,#184);
#186=CARTESIAN_POINT('',(0.00000000000000000E0,0.00000000000000000E0));
#187=CARTESIAN_POINT('',(1.00000000000000000E0,0.00000000000000000E0));
#188=B_SPLINE_CURVE_WITH_KNOTS('',1,(#186,#187),.UNSPECIFIED.,.F.,.F.,(2,2),(0.00000000000000000E0,1.00000000000000000E0),.UNSPECIFIED.);
#189=DEFINITIONAL_REPRESENTATION('',(#188),#105);
#190=PCURVE('',#47,#189);
#191=CARTESIAN_POINT('',(1.00000000000000000E0,0.00000000000000000E0));
#192=CARTESIAN_POINT('',(1.00000000000000000E0,1.00000000000000000E0));
#193=B_SPLINE_CURVE_WITH_KNOTS('',1,(#191,#192),.UNSPECIFIED.,.F.,.F.,(2,2),(0.00000000000000000E0,1.00000000000000000E0),.UNSPECIFIED.);
#194=DEFINITIONAL_REPRESENTATION('',(#193),#105);
#195=PCURVE('',#47,#194);
#196=CARTESIAN_POINT('',(1.00000000000000000E0,1.00000000000000000E0));
#197=CARTESIAN_POINT('',(0.00000000000000000E0,1.00000000000000000E0));
#198=B_SPLINE_CURVE_WITH_KNOTS('',1,(#196,#197),.UNSPECIFIED.,.F.,.F.,(2,2),(0.00000000000000000E0,1.00000000000000000E0),.UNSPECIFIED.);
#199=DEFINITIONAL_REPRESENTATION('',(#198),#105);
#200=PCURVE('',#47,#199);
#201=CARTESIAN_POINT('',(0.00000000000000000E0,1.00000000000000000E0));
#202=CARTESIAN_POINT('',(0.00000000000000000E0,0.00000000000000000E0));
#203=B_SPLINE_CURVE_WITH_KNOTS('',1,(#201,#202),.UNSPECIFIED.,.F.,.F.,(2,2),(0.00000000000000000E0,1.00000000000000000E0),.UNSPECIFIED.);
#204=DEFINITIONAL_REPRESENTATION('',(#203),#105);
#205=PCURVE('',#47,#204);
#206=CARTESIAN_POINT('',(1.00000000000000000E0,0.00000000000000000E0));
#207=CARTESIAN_POINT('',(1.00000000000000000E0,1.00000000000000000E0));
#208=B_SPLINE_CURVE_WITH_KNOTS('',1,(#206,#207),.UNSPECIFIED.,.F.,.F.,(2,2),(0.00000000000000000E0,1.00000000000000000E0),.UNSPECIFIED.);
#209=DEFINITIONAL_REPRESENTATION('',(#208),#105);
#210=PCURVE('',#52,#209);
#211=CARTESIAN_POINT('',(1.00000000000000000E0,1.00000000000000000E0));
#212=CARTESIAN_POINT('',(9.99999999999999778E-2,1.00000000000000000E0));
#213=B_SPLINE_CURVE_WITH_KNOTS('',1,(#211,#212),.UNSPECIFIED.,.F.,.F.,(2,2),(0.00000000000000000E0,1.00000000000000000E0),.UNSPECIFIED.);
#214=DEFINITIONAL_REPRESENTATION('',(#213),#105);
#215=PCURVE('',#52,#214);
#216=CARTESIAN_POINT('',(9.99999999999999778E-2,1.00000000000000000E0));
#217=CARTESIAN_POINT('',(0.00000000000000000E0,1.00000000000000000E0));
#218=CARTESIAN_POINT('',(0.00000000000000000E0,8.75000000000000000E-1));
#219=(BOUNDED_CURVE()B_SPLINE_CURVE(2,(#216,#217,#218),.UNSPECIFIED.,.F.,.F.)B_SPLINE_CURVE_WITH_KNOTS((3,3),(0.00000000000000000E0,1.00000000000000000E0),.UNSPECIFIED.)CURVE()GEOMETRIC_REPRESENTATION_ITEM()RATIONAL_B_SPLINE_CURVE((1.00000000000000000E0,7.07106781186547573E-1,1.00000000000000000E0))REPRESENTATION_ITEM(''));
#220=DEFINITIONAL_REPRESENTATION('',(#219),#105);
#221=PCURVE('',#52,#220);
#222=CARTESIAN_POINT('',(0.00000000000000000E0,8.75000000000000000E-1));
#223=CARTESIAN_POINT('',(0.00000000000000000E0,0.00000000000000000E0));
#224=B_SPLINE_CURVE_WITH_KNOTS('',1,(#222,#223),.UNSPECIFIED.,.F.,.F.,(2,2),(0.00000000000000000E0,1.00000000000000000E0),.UNSPECIFIED.);
#225=DEFINITIONAL_REPRESENTATION('',(#224),#105);
#226=PCURVE('',#52,#225);
#227=CARTESIAN_POINT('',(0.00000000000000000E0,0.00000000000000000E0));
#228=CARTESIAN_POINT('',(1.00000000000000000E0,0.00000000000000000E0));
#229=B_SPLINE_CURVE_WITH_KNOTS('',1,(#227,#228),.UNSPECIFIED.,.F.,.F.,(2,2),(0.00000000000000000E0,1.00000000000000000E0),.UNSPECIFIED.);
#230=DEFINITIONAL_REPRESENTATION('',(#229),#105);
#231=PCURVE('',#52,#230);
#232=CARTESIAN_POINT('',(0.00000000000000000E0,0.00000000000000000E0));
#233=CARTESIAN_POINT('',(1.00000000000000000E0,0.00000000000000000E0));
#234=B_SPLINE_CURVE_WITH_KNOTS('',1,(#232,#233),.UNSPECIFIED.,.F.,.F.,(2,2),(0.00000000000000000E0,1.00000000000000000E0),.UNSPECIFIED.);
#235=DEFINITIONAL_REPRESENTATION('',(#234),#105);
#236=PCURVE('',#57,#235);
#237=CARTESIAN_POINT('',(1.00000000000000000E0,0.00000000000000000E0));
#238=CARTESIAN_POINT('',(1.00000000000000000E0,7.50000000000000000E-1));
#239=B_SPLINE_CURVE_WITH_KNOTS('',1,(#237,#238),.UNSPECIFIED.,.F.,.F.,(2,2),(0.00000000000000000E0,1.00000000000000000E0),.UNSPECIFIED.);
#240=DEFINITIONAL_REPRESENTATION('',(#239),#105);
#241=PCURVE('',#57,#240);
#242=CARTESIAN_POINT('',(1.00000000000000000E0,7.50000000000000000E-1));
#243=CARTESIAN_POINT('',(1.00000000000000000E0,1.00000000000000000E0));
#244=CARTESIAN_POINT('',(8.00000000000000044E-1,1.00000000000000000E0));
#245=(BOUNDED_CURVE()B_SPLINE_CURVE(2,(#242,#243,#244),.UNSPECIFIED.,.F.,.F.)B_SPLINE_CURVE_WITH_KNOTS((3,3),(0.00000000000000000E0,1.00000000000000000E0),.UNSPECIFIED.)CURVE()GEOMETRIC_REPRESENTATION_ITEM()RATIONAL_B_SPLINE_CURVE((1.00000000000000000E0,7.07106781186547573E-1,1.00000000000000000E0))REPRESENTATION_ITEM(''));
#246=DEFINITIONAL_REPRESENTATION('',(#245),#105);
#247=PCURVE('',#57,#246);
#248=CARTESIAN_POINT('',(8.00000000000000044E-1,1.00000000000000000E0));
#249=CARTESIAN_POINT('',(0.00000000000000000E0,1.00000000000000000E0));
#250=B_SPLINE_CURVE_WITH_KNOTS('',1,(#248,#249),.UNSPECIFIED.,.F.,.F.,(2,2),(0.00000000000000000E0,1.00000000000000000E0),.UNSPECIFIED.);
#251=DEFINITIONAL_REPRESENTATION('',(#250),#105);
#252=PCURVE('',#57,#251);
#253=CARTESIAN_POINT('',(0.00000000000000000E0,1.00000000000000000E0));
#254=CARTESIAN_POINT('',(0.00000000000000000E0,0.00000000000000000E0));
#255=B_SPLINE_CURVE_WITH_KNOTS('',1,(#253,#254),.UNSPECIFIED.,.F.,.F.,(2,2),(0.00000000000000000E0,1.00000000000000000E0),.UNSPECIFIED.);
#256=DEFINITIONAL_REPRESENTATION('',(#255),#105);
#257=PCURVE('',#57,#256);
#258=SURFACE_CURVE('',#60,(#110,#231),.PCURVE_S1.);
#259=EDGE_CURVE('OSCAD_TOPO/3|edge|e:7ac5eb1aaf5124cc702f5513db7bdc67|be926849aee323cda8b2536727bdc08764f137d617e74b61bf1afee61ce578b4',#2,#4,#258,.T.);
#260=SURFACE_CURVE('',#63,(#120,#236),.PCURVE_S1.);
#261=EDGE_CURVE('OSCAD_TOPO/3|edge|e:9e69d82eea7d54ee3395d6fdeed7f101|583e75ec5e99be9e7613637497418baa06a8890cb3d26699195ad76a4af4a2b8',#12,#14,#260,.T.);
#262=SURFACE_CURVE('',#66,(#130,#226),.PCURVE_S1.);
#263=EDGE_CURVE('OSCAD_TOPO/3|edge|e:ccb0b48dad17dcd69c6bbc5bbe33ab18|311e37f33d14de19f359f77ffce128f06a541dc35008bc23b2494a05511331dc',#4,#6,#262,.T.);
#264=SURFACE_CURVE('',#69,(#140,#241),.PCURVE_S1.);
#265=EDGE_CURVE('OSCAD_TOPO/3|edge|e:9502d1b420c7588fcd010e62c62b65a3|7fbf71f9e48061b2948db9b918348d60d7a456b462527bac7910dcb61b75e6a1',#14,#16,#264,.T.);
#266=SURFACE_CURVE('',#73,(#150,#221),.PCURVE_S1.);
#267=EDGE_CURVE('OSCAD_TOPO/3|edge|e:6524494824ff28c281f7c255fac0c52b|6034c5e7cbf49a945016f2ecd8d1081bb17ccecb063a0f12a6764d9298a5930c',#6,#8,#266,.T.);
#268=SURFACE_CURVE('',#77,(#160,#247),.PCURVE_S1.);
#269=EDGE_CURVE('OSCAD_TOPO/3|edge|e:3cd32fe6ada69fc4402ca0e8b34852c5|669f56c5ebe9b9ebbcac9be8bb9ee06fa20d64d00f32ae62391cb50aabb7ceb8',#16,#18,#268,.T.);
#270=SURFACE_CURVE('',#80,(#170,#215),.PCURVE_S1.);
#271=EDGE_CURVE('OSCAD_TOPO/3|edge|e:6931242e3bc3221851bb44896f427448|625414b0be3d1fe1d509b9359e340ea38dd5cd2067d9b5ee60b706b19739af27',#8,#10,#270,.T.);
#272=SURFACE_CURVE('',#83,(#180,#252),.PCURVE_S1.);
#273=EDGE_CURVE('OSCAD_TOPO/3|edge|e:7a224e4c772ea6a886615de99863c4dc|b2338bfdec82c6b71d779630bb1e2659569b94be3c78848b0279cb8f27f5b501',#18,#20,#272,.T.);
#274=SURFACE_CURVE('',#86,(#190,#210),.PCURVE_S1.);
#275=EDGE_CURVE('OSCAD_TOPO/3|edge|e:4022bff3011a2f8f413405c2b40121c9|fa5c167ff89e6d4e3690b11ba1492fb9a161b0dc07c203b1e3c763e6c4686a22',#10,#2,#274,.T.);
#276=SURFACE_CURVE('',#89,(#200,#257),.PCURVE_S1.);
#277=EDGE_CURVE('OSCAD_TOPO/3|edge|e:67570bff5569b534572db5aad261fef8|d8da8a5753f4bdb5c906a6f8c623083f4b339e45c90df57f9c1c4d728213fa20',#20,#12,#276,.T.);
#278=SURFACE_CURVE('',#92,(#125,#195),.PCURVE_S1.);
#279=EDGE_CURVE('OSCAD_TOPO/3|edge|e:763908e79b0209bde29b8719876ce96f|0c4e19b872d75c13dfd5472b9db04fbdefa6b4603378a9e7d4284af904f113d3',#2,#12,#278,.T.);
#280=SURFACE_CURVE('',#95,(#115,#145),.PCURVE_S1.);
#281=EDGE_CURVE('OSCAD_TOPO/3|edge|e:db35eaabe23d2dddbfb5afbdaa1da2ed|90c69f15dbf7b5f1f27f5a05989c62ea6784c5a6246955645489e2e23f73926f',#4,#14,#280,.T.);
#282=SURFACE_CURVE('',#98,(#135,#165),.PCURVE_S1.);
#283=EDGE_CURVE('OSCAD_TOPO/3|edge|e:58e7512632f64b2a79a06e16c3973c76|8b4982aa0fe6514616bb3872d37ee2a879ee8ddf65da2871795639e49a7fc29c',#6,#16,#282,.T.);
#284=SURFACE_CURVE('',#101,(#155,#185),.PCURVE_S1.);
#285=EDGE_CURVE('OSCAD_TOPO/3|edge|e:1b0b058ae1a168baae0cdda2a39960df|a89a89a32e7f6faf66cc8e94e1e8b915080ec306afdb172778b53033c1420763',#8,#18,#284,.T.);
#286=SURFACE_CURVE('',#104,(#175,#205),.PCURVE_S1.);
#287=EDGE_CURVE('OSCAD_TOPO/3|edge|e:c184c8a94b5df5771f033a156f9a6d59|7273627f5d873a0ad5556bfad36c5a138103a4e818aaa12cb9938e4944bb084a',#10,#20,#286,.T.);
#288=ORIENTED_EDGE('',*,*,#259,.T.);
#289=ORIENTED_EDGE('',*,*,#281,.T.);
#290=ORIENTED_EDGE('',*,*,#261,.F.);
#291=ORIENTED_EDGE('',*,*,#279,.F.);
#292=EDGE_LOOP('OSCAD_TOPO/3|loop|l:01d47a9a3a1b19feb564d51f8a5f064b|3eb839b2b3f845bda245623b4337d2c58f835d778420c72819cae03955a3121d',(#288,#289,#290,#291));
#293=ORIENTED_EDGE('',*,*,#263,.T.);
#294=ORIENTED_EDGE('',*,*,#283,.T.);
#295=ORIENTED_EDGE('',*,*,#265,.F.);
#296=ORIENTED_EDGE('',*,*,#281,.F.);
#297=EDGE_LOOP('OSCAD_TOPO/3|loop|l:e698e6dd8d3095edd7a5411805c4ce99|c897df38f2bd82da3f2620a539be3458519e78b34e19d73b907e2ed59957b4d6',(#293,#294,#295,#296));
#298=ORIENTED_EDGE('',*,*,#267,.T.);
#299=ORIENTED_EDGE('',*,*,#285,.T.);
#300=ORIENTED_EDGE('',*,*,#269,.F.);
#301=ORIENTED_EDGE('',*,*,#283,.F.);
#302=EDGE_LOOP('OSCAD_TOPO/3|loop|l:5fe7a47d85a5b638d456022b478a17b6|28469562d8235a3da9fc6ed736033775db15e7e71dbc44a52a721bdd83a6a9d4',(#298,#299,#300,#301));
#303=ORIENTED_EDGE('',*,*,#271,.T.);
#304=ORIENTED_EDGE('',*,*,#287,.T.);
#305=ORIENTED_EDGE('',*,*,#273,.F.);
#306=ORIENTED_EDGE('',*,*,#285,.F.);
#307=EDGE_LOOP('OSCAD_TOPO/3|loop|l:b66f0dae2301d4733e27dac21957f3a6|d52053f1e95ddc64aabd8dd16988d38b3afe27da8b530f9fe55d417ee068f88c',(#303,#304,#305,#306));
#308=ORIENTED_EDGE('',*,*,#275,.T.);
#309=ORIENTED_EDGE('',*,*,#279,.T.);
#310=ORIENTED_EDGE('',*,*,#277,.F.);
#311=ORIENTED_EDGE('',*,*,#287,.F.);
#312=EDGE_LOOP('OSCAD_TOPO/3|loop|l:b2e22db2fffd0737e5d1517dbb3ecc3b|475de47291b4ef7b81bdb2fb1d051e3f805f633bed723d691bf8ce34cbe002ac',(#308,#309,#310,#311));
#313=ORIENTED_EDGE('',*,*,#275,.F.);
#314=ORIENTED_EDGE('',*,*,#271,.F.);
#315=ORIENTED_EDGE('',*,*,#267,.F.);
#316=ORIENTED_EDGE('',*,*,#263,.F.);
#317=ORIENTED_EDGE('',*,*,#259,.F.);
#318=EDGE_LOOP('OSCAD_TOPO/3|loop|l:4e2c4af42ab8ba051769349833055a30|a719253931085a88f1a8ca9113f2b0d9571540eca7c4499023661aa1a993c9b0',(#313,#314,#315,#316,#317));
#319=ORIENTED_EDGE('',*,*,#261,.T.);
#320=ORIENTED_EDGE('',*,*,#265,.T.);
#321=ORIENTED_EDGE('',*,*,#269,.T.);
#322=ORIENTED_EDGE('',*,*,#273,.T.);
#323=ORIENTED_EDGE('',*,*,#277,.T.);
#324=EDGE_LOOP('OSCAD_TOPO/3|loop|l:0aac3e91a082845618f1df337afa4527|32e51ec841d5e570da1176e8d91862e3a20d40c2f0ac5c64588c7dbaeb983f64',(#319,#320,#321,#322,#323));
#325=FACE_OUTER_BOUND('',#292,.T.);
#326=ADVANCED_FACE('OSCAD_TOPO/3|face|f:ab8536f9e73ffaf37d07cabe574d2ec0|48281c68db24107b9f701b4471e728666e688e49f143b12d34a4e8cc66c7f2ce',(#325),#25,.T.);
#327=FACE_OUTER_BOUND('',#297,.T.);
#328=ADVANCED_FACE('OSCAD_TOPO/3|face|f:37035dda49bda9d1182ea1f59f424123|43dca40e992aab63873c3276ad989b5e74a7bfc0761eb345e7834427815a6a6b',(#327),#30,.T.);
#329=FACE_OUTER_BOUND('',#302,.T.);
#330=ADVANCED_FACE('OSCAD_TOPO/3|face|f:4d01474cfa893a978023a23275bb008a|c102158efb5c408da14b705e4c9e4fe2f639d55a6478039f73ef02050f2c00c1',(#329),#37,.T.);
#331=FACE_OUTER_BOUND('',#307,.T.);
#332=ADVANCED_FACE('OSCAD_TOPO/3|face|f:2a632edfea0e0df58812842467df9a9e|375978c4b1b3acd2c0cab33feca3fcd68816e0746f343b8e2a6138e036549bd5',(#331),#42,.T.);
#333=FACE_OUTER_BOUND('',#312,.T.);
#334=ADVANCED_FACE('OSCAD_TOPO/3|face|f:5006b93e44e17ee573e4718b7144279f|fd9b01d84d1f0efbb03274eb24383edaa6f40bcb624b9c78853c417a3aa0c80a',(#333),#47,.T.);
#335=FACE_OUTER_BOUND('',#318,.T.);
#336=ADVANCED_FACE('OSCAD_TOPO/3|face|f:5ccd85bd1cdc2fa8a5e9c5043bedcba4|85ab89c263379dc89b178d94eac76d2d9ecbd07d10de833ab9eb6f8f859bae82',(#335),#52,.T.);
#337=FACE_OUTER_BOUND('',#324,.T.);
#338=ADVANCED_FACE('OSCAD_TOPO/3|face|f:daaa0b191155d6d076d534bd06740033|9d2f05670846ba755b75447814c725945cffd229dfcaf7519f3086c440bd31c1',(#337),#57,.T.);
#339=CLOSED_SHELL('OSCAD_TOPO/3|shell|s:ecde7ef5b6076222459f5fcd72c89c2d|984d2cc06aafb6d794b681618d150decf3beb7e856cc745f7a0cb6e39395e4b6',(#326,#328,#330,#332,#334,#336,#338));
#340=MANIFOLD_SOLID_BREP('OSCAD_TOPO/3|body|b:043c1778e72ca53a38530141448f43eb|b26f48690c8a796dc00ab03e8cc2f93833965a3a4b23e31318e8d437dc6c11b9',#339);
#341=(LENGTH_UNIT()NAMED_UNIT(*)SI_UNIT(.MILLI.,.METRE.));
#342=UNCERTAINTY_MEASURE_WITH_UNIT(LENGTH_MEASURE(9.99999999999999955E-8),#341,'distance_accuracy_value','');
#343=(GEOMETRIC_REPRESENTATION_CONTEXT(3)GLOBAL_UNCERTAINTY_ASSIGNED_CONTEXT((#342))GLOBAL_UNIT_ASSIGNED_CONTEXT((#341))REPRESENTATION_CONTEXT('','3D'));
#344=ADVANCED_BREP_SHAPE_REPRESENTATION('',(#340),#343);
#345=APPLICATION_CONTEXT('managed model based 3d engineering');
#346=PRODUCT_CONTEXT('',#345,'mechanical');
#347=PRODUCT('model','model','',(#346));
#348=PRODUCT_DEFINITION_FORMATION('1','',#347);
#349=PRODUCT_DEFINITION_CONTEXT('part definition',#345,'design');
#350=PRODUCT_DEFINITION('design','',#348,#349);
#351=PRODUCT_DEFINITION_SHAPE('','',#350);
#352=SHAPE_DEFINITION_REPRESENTATION(#351,#344);
ENDSEC;
END-ISO-10303-21;
